{
  "name": "GospelSwing.S046.sst",
  "tempo": 110,
  "timeSignature": "4/4",
  "ticksPerQuarter": 1920,
  "sffType": "SFF1",
  "division": "EIGHTH_TRIPLET",
  "parts": {
    "Main_A": {
      "type": "Main_A",
      "sizeInBeats": 8,
      "channels": {
        "1": {
          "ctab": {
            "srcChannel": 1,
            "name": "Bass 2",
            "accType": "BASS",
            "editable": false,
            "mutedNotes": [],
            "mutedChords": [
              "7(13)",
              "7(9)",
              "7th",
              "dim7",
              "min7(11)",
              "min7(9)",
              "min(9)",
              "min7",
              "min6",
              "Maj6(9)",
              "Maj7(9)",
              "Maj(9)",
              "Maj7",
              "Maj6",
              "Maj"
            ],
            "autoStart": false,
            "sourceChordNote": 0,
            "sourceChordType": "Maj7",
            "ctb2Low": null,
            "ctb2Main": {
              "ntr": "ROOT_TRANSPOSITION",
              "ntt": "MELODY",
              "bassOn": true,
              "chordRootUpperLimit": 8,
              "noteLowLimit": 28,
              "noteHighLimit": 51,
              "rtr": "PITCH_SHIFT_TO_ROOT"
            },
            "ctb2High": null
          },
          "notes": [
            {
              "pitch": 24,
              "velocity": 74,
              "position": 0,
              "duration": 0.9854166666666667
            },
            {
              "pitch": 24,
              "velocity": 60,
              "position": 1.6666666666666667,
              "duration": 0.10416666666666667
            },
            {
              "pitch": 31,
              "velocity": 74,
              "position": 2,
              "duration": 0.9854166666666667
            },
            {
              "pitch": 31,
              "velocity": 60,
              "position": 3.6666666666666665,
              "duration": 0.10416666666666667
            },
            {
              "pitch": 24,
              "velocity": 74,
              "position": 4,
              "duration": 0.9854166666666667
            },
            {
              "pitch": 31,
              "velocity": 106,
              "position": 5.333333333333333,
              "duration": 0.10416666666666667
            },
            {
              "pitch": 31,
              "velocity": 60,
              "position": 5.666666666666667,
              "duration": 0.10416666666666667
            },
            {
              "pitch": 31,
              "velocity": 74,
              "position": 6,
              "duration": 0.9854166666666667
            },
            {
              "pitch": 31,
              "velocity": 60,
              "position": 7.666666666666667,
              "duration": 0.10416666666666667
            }
          ]
        },
        "2": {
          "ctab": {
            "srcChannel": 2,
            "name": "Gt Root",
            "accType": "CHORD1",
            "editable": false,
            "mutedNotes": [],
            "mutedChords": [
              "1+2+5",
              "sus4",
              "1+5",
              "1+8",
              "Maj7aug",
              "7th",
              "dim",
              "minMaj7(9)",
              "minMaj7",
              "min6",
              "min",
              "aug",
              "Maj7(9)",
              "Maj7#11",
              "Maj7",
              "Maj6",
              "Maj"
            ],
            "autoStart": false,
            "sourceChordNote": 0,
            "sourceChordType": "Maj7",
            "ctb2Low": null,
            "ctb2Main": {
              "ntr": "ROOT_TRANSPOSITION",
              "ntt": "CHORD",
              "bassOn": false,
              "chordRootUpperLimit": 9,
              "noteLowLimit": 58,
              "noteHighLimit": 69,
              "rtr": "PITCH_SHIFT"
            },
            "ctb2High": null
          },
          "notes": [
            {
              "pitch": 60,
              "velocity": 116,
              "position": 1,
              "duration": 0.21458333333333332
            },
            {
              "pitch": 60,
              "velocity": 116,
              "position": 3,
              "duration": 0.21458333333333332
            },
            {
              "pitch": 60,
              "velocity": 116,
              "position": 5,
              "duration": 0.21458333333333332
            },
            {
              "pitch": 60,
              "velocity": 116,
              "position": 7,
              "duration": 0.21458333333333332
            }
          ]
        },
        "3": {
          "ctab": {
            "srcChannel": 3,
            "name": "Pno 2",
            "accType": "CHORD2",
            "editable": false,
            "mutedNotes": [],
            "mutedChords": [
              "1+2+5",
              "sus4",
              "1+5",
              "1+8",
              "7aug",
              "Maj7aug",
              "7(#9)",
              "7(b13)",
              "7(b9)",
              "7(13)",
              "7#11",
              "7(9)",
              "7b5",
              "7sus4",
              "7th",
              "dim7",
              "dim",
              "minMaj7(9)",
              "minMaj7",
              "min7(11)",
              "min7(9)",
              "min(9)",
              "m7b5",
              "min6",
              "aug",
              "Maj6(9)",
              "Maj7(9)",
              "Maj(9)",
              "Maj7#11",
              "Maj7",
              "Maj6"
            ],
            "autoStart": false,
            "sourceChordNote": 0,
            "sourceChordType": "Maj7",
            "ctb2Low": null,
            "ctb2Main": {
              "ntr": "ROOT_TRANSPOSITION",
              "ntt": "MELODIC_MINOR",
              "bassOn": false,
              "chordRootUpperLimit": 6,
              "noteLowLimit": 54,
              "noteHighLimit": 79,
              "rtr": "PITCH_SHIFT"
            },
            "ctb2High": null
          },
          "notes": [
            {
              "pitch": 43,
              "velocity": 116,
              "position": 0,
              "duration": 1.9854166666666666
            },
            {
              "pitch": 48,
              "velocity": 116,
              "position": 0,
              "duration": 1.9854166666666666
            },
            {
              "pitch": 52,
              "velocity": 116,
              "position": 0,
              "duration": 1.9854166666666666
            },
            {
              "pitch": 43,
              "velocity": 116,
              "position": 2,
              "duration": 0.9854166666666667
            },
            {
              "pitch": 48,
              "velocity": 116,
              "position": 2,
              "duration": 0.9854166666666667
            },
            {
              "pitch": 52,
              "velocity": 116,
              "position": 2,
              "duration": 0.9854166666666667
            },
            {
              "pitch": 45,
              "velocity": 116,
              "position": 3,
              "duration": 0.9854166666666667
            },
            {
              "pitch": 48,
              "velocity": 116,
              "position": 3,
              "duration": 0.9854166666666667
            },
            {
              "pitch": 53,
              "velocity": 116,
              "position": 3,
              "duration": 0.9854166666666667
            },
            {
              "pitch": 43,
              "velocity": 116,
              "position": 4,
              "duration": 2.9854166666666666
            },
            {
              "pitch": 48,
              "velocity": 116,
              "position": 4,
              "duration": 2.9854166666666666
            },
            {
              "pitch": 52,
              "velocity": 116,
              "position": 4,
              "duration": 2.9854166666666666
            },
            {
              "pitch": 45,
              "velocity": 116,
              "position": 7,
              "duration": 0.9854166666666667
            },
            {
              "pitch": 48,
              "velocity": 116,
              "position": 7,
              "duration": 0.9854166666666667
            },
            {
              "pitch": 53,
              "velocity": 116,
              "position": 7,
              "duration": 0.9854166666666667
            }
          ]
        },
        "5": {
          "ctab": {
            "srcChannel": 5,
            "name": "Org 2",
            "accType": "PAD",
            "editable": false,
            "mutedNotes": [],
            "mutedChords": [
              "1+2+5",
              "sus4",
              "1+5",
              "1+8",
              "7aug",
              "Maj7aug",
              "7(#9)",
              "7(b13)",
              "7(b9)",
              "7(13)",
              "7#11",
              "7(9)",
              "7b5",
              "7sus4",
              "7th",
              "dim7",
              "dim",
              "minMaj7(9)",
              "minMaj7",
              "min7(11)",
              "min7(9)",
              "min(9)",
              "m7b5",
              "min6",
              "aug",
              "Maj6(9)",
              "Maj7(9)",
              "Maj(9)",
              "Maj7#11",
              "Maj7",
              "Maj6"
            ],
            "autoStart": false,
            "sourceChordNote": 0,
            "sourceChordType": "Maj7",
            "ctb2Low": null,
            "ctb2Main": {
              "ntr": "ROOT_TRANSPOSITION",
              "ntt": "MELODIC_MINOR",
              "bassOn": false,
              "chordRootUpperLimit": 6,
              "noteLowLimit": 57,
              "noteHighLimit": 79,
              "rtr": "PITCH_SHIFT"
            },
            "ctb2High": null
          },
          "notes": []
        },
        "6": {
          "ctab": {
            "srcChannel": 6,
            "name": "Choir 2",
            "accType": "PHRASE1",
            "editable": false,
            "mutedNotes": [],
            "mutedChords": [
              "1+2+5",
              "sus4",
              "1+5",
              "1+8",
              "7aug",
              "Maj7aug",
              "7(#9)",
              "7(b13)",
              "7(b9)",
              "7(13)",
              "7#11",
              "7(9)",
              "7b5",
              "7sus4",
              "7th",
              "dim7",
              "dim",
              "minMaj7(9)",
              "minMaj7",
              "min7(11)",
              "min7(9)",
              "min(9)",
              "m7b5",
              "min6",
              "aug",
              "Maj6(9)",
              "Maj7(9)",
              "Maj(9)",
              "Maj7#11",
              "Maj7",
              "Maj6"
            ],
            "autoStart": false,
            "sourceChordNote": 0,
            "sourceChordType": "Maj7",
            "ctb2Low": null,
            "ctb2Main": {
              "ntr": "ROOT_TRANSPOSITION",
              "ntt": "MELODIC_MINOR",
              "bassOn": false,
              "chordRootUpperLimit": 6,
              "noteLowLimit": 57,
              "noteHighLimit": 79,
              "rtr": "PITCH_SHIFT"
            },
            "ctb2High": null
          },
          "notes": [
            {
              "pitch": 52,
              "velocity": 50,
              "position": 0.010416666666666666,
              "duration": 2.975
            },
            {
              "pitch": 55,
              "velocity": 50,
              "position": 0.010416666666666666,
              "duration": 2.975
            },
            {
              "pitch": 45,
              "velocity": 50,
              "position": 3,
              "duration": 0.975
            },
            {
              "pitch": 53,
              "velocity": 50,
              "position": 3,
              "duration": 0.975
            },
            {
              "pitch": 52,
              "velocity": 50,
              "position": 4,
              "duration": 2.975
            },
            {
              "pitch": 55,
              "velocity": 50,
              "position": 4,
              "duration": 2.975
            },
            {
              "pitch": 45,
              "velocity": 50,
              "position": 7,
              "duration": 0.975
            },
            {
              "pitch": 53,
              "velocity": 50,
              "position": 7,
              "duration": 0.975
            },
            {
              "pitch": 48,
              "velocity": 50,
              "position": 0.010416666666666666,
              "duration": 7.985416666666667
            }
          ]
        },
        "7": {
          "ctab": {
            "srcChannel": 7,
            "name": "CC_Crash",
            "accType": "RHYTHM",
            "editable": false,
            "mutedNotes": [],
            "mutedChords": [
              "1+2+5",
              "sus4",
              "1+5",
              "1+8",
              "7aug",
              "Maj7aug",
              "7(#9)",
              "7(b13)",
              "7(b9)",
              "7(13)",
              "7#11",
              "7(9)",
              "7b5",
              "7sus4",
              "7th",
              "dim7",
              "dim",
              "minMaj7(9)",
              "minMaj7",
              "min7(11)",
              "min7(9)",
              "min(9)",
              "m7b5",
              "min7",
              "min6",
              "min",
              "aug",
              "Maj6(9)",
              "Maj7(9)",
              "Maj(9)",
              "Maj7#11",
              "Maj7",
              "Maj6",
              "Maj"
            ],
            "autoStart": true,
            "sourceChordNote": 0,
            "sourceChordType": "Maj",
            "ctb2Low": null,
            "ctb2Main": {
              "ntr": "ROOT_FIXED",
              "ntt": "BYPASS",
              "bassOn": false,
              "chordRootUpperLimit": 0,
              "noteLowLimit": 0,
              "noteHighLimit": 127,
              "rtr": "RETRIGGER"
            },
            "ctb2High": null
          },
          "notes": []
        },
        "8": {
          "ctab": {
            "srcChannel": 8,
            "name": "Perc",
            "accType": "SUBRHYTHM",
            "editable": false,
            "mutedNotes": [],
            "mutedChords": [],
            "autoStart": true,
            "sourceChordNote": 0,
            "sourceChordType": "Maj7",
            "ctb2Low": null,
            "ctb2Main": {
              "ntr": "ROOT_FIXED",
              "ntt": "BYPASS",
              "bassOn": false,
              "chordRootUpperLimit": 6,
              "noteLowLimit": 0,
              "noteHighLimit": 127,
              "rtr": "PITCH_SHIFT"
            },
            "ctb2High": null
          },
          "notes": []
        },
        "9": {
          "ctab": {
            "srcChannel": 9,
            "name": "Drums",
            "accType": "RHYTHM",
            "editable": false,
            "mutedNotes": [],
            "mutedChords": [],
            "autoStart": true,
            "sourceChordNote": 0,
            "sourceChordType": "Maj7",
            "ctb2Low": null,
            "ctb2Main": {
              "ntr": "ROOT_FIXED",
              "ntt": "BYPASS",
              "bassOn": false,
              "chordRootUpperLimit": 6,
              "noteLowLimit": 0,
              "noteHighLimit": 127,
              "rtr": "PITCH_SHIFT"
            },
            "ctb2High": null
          },
          "notes": [
            {
              "pitch": 35,
              "velocity": 90,
              "position": 0,
              "duration": 0.00625
            },
            {
              "pitch": 42,
              "velocity": 78,
              "position": 0,
              "duration": 0.00625
            },
            {
              "pitch": 38,
              "velocity": 15,
              "position": 0.3333333333333333,
              "duration": 0.00625
            },
            {
              "pitch": 42,
              "velocity": 18,
              "position": 0.6666666666666666,
              "duration": 0.00625
            },
            {
              "pitch": 38,
              "velocity": 100,
              "position": 1,
              "duration": 0.00625
            },
            {
              "pitch": 42,
              "velocity": 78,
              "position": 1,
              "duration": 0.00625
            },
            {
              "pitch": 54,
              "velocity": 71,
              "position": 1,
              "duration": 0.00625
            },
            {
              "pitch": 38,
              "velocity": 15,
              "position": 1.3333333333333333,
              "duration": 0.00625
            },
            {
              "pitch": 35,
              "velocity": 40,
              "position": 1.6666666666666667,
              "duration": 0.00625
            },
            {
              "pitch": 42,
              "velocity": 18,
              "position": 1.6666666666666667,
              "duration": 0.00625
            },
            {
              "pitch": 35,
              "velocity": 90,
              "position": 2,
              "duration": 0.00625
            },
            {
              "pitch": 42,
              "velocity": 78,
              "position": 2,
              "duration": 0.00625
            },
            {
              "pitch": 38,
              "velocity": 15,
              "position": 2.3333333333333335,
              "duration": 0.00625
            },
            {
              "pitch": 42,
              "velocity": 18,
              "position": 2.6666666666666665,
              "duration": 0.00625
            },
            {
              "pitch": 38,
              "velocity": 100,
              "position": 3,
              "duration": 0.00625
            },
            {
              "pitch": 42,
              "velocity": 78,
              "position": 3,
              "duration": 0.00625
            },
            {
              "pitch": 54,
              "velocity": 71,
              "position": 3,
              "duration": 0.00625
            },
            {
              "pitch": 38,
              "velocity": 15,
              "position": 3.3333333333333335,
              "duration": 0.00625
            },
            {
              "pitch": 35,
              "velocity": 40,
              "position": 3.6666666666666665,
              "duration": 0.00625
            },
            {
              "pitch": 42,
              "velocity": 18,
              "position": 3.6666666666666665,
              "duration": 0.00625
            },
            {
              "pitch": 35,
              "velocity": 90,
              "position": 4,
              "duration": 0.00625
            },
            {
              "pitch": 42,
              "velocity": 78,
              "position": 4,
              "duration": 0.00625
            },
            {
              "pitch": 38,
              "velocity": 15,
              "position": 4.333333333333333,
              "duration": 0.00625
            },
            {
              "pitch": 42,
              "velocity": 18,
              "position": 4.666666666666667,
              "duration": 0.00625
            },
            {
              "pitch": 38,
              "velocity": 100,
              "position": 5,
              "duration": 0.00625
            },
            {
              "pitch": 42,
              "velocity": 78,
              "position": 5,
              "duration": 0.00625
            },
            {
              "pitch": 54,
              "velocity": 71,
              "position": 5,
              "duration": 0.00625
            },
            {
              "pitch": 38,
              "velocity": 15,
              "position": 5.333333333333333,
              "duration": 0.00625
            },
            {
              "pitch": 35,
              "velocity": 40,
              "position": 5.666666666666667,
              "duration": 0.00625
            },
            {
              "pitch": 42,
              "velocity": 18,
              "position": 5.666666666666667,
              "duration": 0.00625
            },
            {
              "pitch": 35,
              "velocity": 90,
              "position": 6,
              "duration": 0.00625
            },
            {
              "pitch": 42,
              "velocity": 78,
              "position": 6,
              "duration": 0.00625
            },
            {
              "pitch": 38,
              "velocity": 15,
              "position": 6.333333333333333,
              "duration": 0.00625
            },
            {
              "pitch": 42,
              "velocity": 18,
              "position": 6.666666666666667,
              "duration": 0.00625
            },
            {
              "pitch": 38,
              "velocity": 100,
              "position": 7,
              "duration": 0.00625
            },
            {
              "pitch": 42,
              "velocity": 78,
              "position": 7,
              "duration": 0.00625
            },
            {
              "pitch": 54,
              "velocity": 71,
              "position": 7,
              "duration": 0.00625
            },
            {
              "pitch": 38,
              "velocity": 15,
              "position": 7.333333333333333,
              "duration": 0.00625
            },
            {
              "pitch": 35,
              "velocity": 40,
              "position": 7.666666666666667,
              "duration": 0.00625
            },
            {
              "pitch": 42,
              "velocity": 18,
              "position": 7.666666666666667,
              "duration": 0.00625
            }
          ]
        },
        "10": {
          "ctab": {
            "srcChannel": 10,
            "name": "Bass",
            "accType": "BASS",
            "editable": false,
            "mutedNotes": [],
            "mutedChords": [
              "1+2+5",
              "sus4",
              "1+5",
              "1+8",
              "7aug",
              "Maj7aug",
              "7(#9)",
              "7(b13)",
              "7(b9)",
              "7#11",
              "7b5",
              "7sus4",
              "dim",
              "minMaj7(9)",
              "minMaj7",
              "m7b5",
              "min",
              "aug",
              "Maj7#11"
            ],
            "autoStart": false,
            "sourceChordNote": 0,
            "sourceChordType": "Maj7",
            "ctb2Low": null,
            "ctb2Main": {
              "ntr": "ROOT_TRANSPOSITION",
              "ntt": "MELODY",
              "bassOn": true,
              "chordRootUpperLimit": 8,
              "noteLowLimit": 28,
              "noteHighLimit": 51,
              "rtr": "PITCH_SHIFT_TO_ROOT"
            },
            "ctb2High": null
          },
          "notes": [
            {
              "pitch": 24,
              "velocity": 74,
              "position": 0,
              "duration": 0.9854166666666667
            },
            {
              "pitch": 24,
              "velocity": 60,
              "position": 1.6666666666666667,
              "duration": 0.10416666666666667
            },
            {
              "pitch": 31,
              "velocity": 74,
              "position": 2,
              "duration": 0.9854166666666667
            },
            {
              "pitch": 31,
              "velocity": 60,
              "position": 3.6666666666666665,
              "duration": 0.10416666666666667
            },
            {
              "pitch": 24,
              "velocity": 74,
              "position": 4,
              "duration": 0.9854166666666667
            },
            {
              "pitch": 31,
              "velocity": 106,
              "position": 5.333333333333333,
              "duration": 0.10416666666666667
            },
            {
              "pitch": 31,
              "velocity": 60,
              "position": 5.666666666666667,
              "duration": 0.10416666666666667
            },
            {
              "pitch": 31,
              "velocity": 74,
              "position": 6,
              "duration": 0.9854166666666667
            },
            {
              "pitch": 31,
              "velocity": 60,
              "position": 7.666666666666667,
              "duration": 0.10416666666666667
            }
          ]
        },
        "11": {
          "ctab": {
            "srcChannel": 11,
            "name": "Gtr",
            "accType": "CHORD1",
            "editable": false,
            "mutedNotes": [],
            "mutedChords": [],
            "autoStart": false,
            "sourceChordNote": 0,
            "sourceChordType": "Maj7",
            "ctb2Low": null,
            "ctb2Main": {
              "ntr": "ROOT_TRANSPOSITION",
              "ntt": "CHORD",
              "bassOn": false,
              "chordRootUpperLimit": 7,
              "noteLowLimit": 58,
              "noteHighLimit": 69,
              "rtr": "PITCH_SHIFT"
            },
            "ctb2High": null
          },
          "notes": [
            {
              "pitch": 59,
              "velocity": 116,
              "position": 1,
              "duration": 0.21458333333333332
            },
            {
              "pitch": 64,
              "velocity": 116,
              "position": 1.0104166666666667,
              "duration": 0.21458333333333332
            },
            {
              "pitch": 67,
              "velocity": 116,
              "position": 1.0208333333333333,
              "duration": 0.21458333333333332
            },
            {
              "pitch": 59,
              "velocity": 116,
              "position": 3,
              "duration": 0.21458333333333332
            },
            {
              "pitch": 64,
              "velocity": 116,
              "position": 3.0104166666666665,
              "duration": 0.21458333333333332
            },
            {
              "pitch": 67,
              "velocity": 116,
              "position": 3.0208333333333335,
              "duration": 0.21458333333333332
            },
            {
              "pitch": 59,
              "velocity": 116,
              "position": 5,
              "duration": 0.21458333333333332
            },
            {
              "pitch": 64,
              "velocity": 116,
              "position": 5.010416666666667,
              "duration": 0.21458333333333332
            },
            {
              "pitch": 67,
              "velocity": 116,
              "position": 5.020833333333333,
              "duration": 0.21458333333333332
            },
            {
              "pitch": 59,
              "velocity": 116,
              "position": 7,
              "duration": 0.21458333333333332
            },
            {
              "pitch": 64,
              "velocity": 116,
              "position": 7.010416666666667,
              "duration": 0.21458333333333332
            },
            {
              "pitch": 67,
              "velocity": 116,
              "position": 7.020833333333333,
              "duration": 0.21458333333333332
            }
          ]
        },
        "12": {
          "ctab": {
            "srcChannel": 12,
            "name": "Pno RH",
            "accType": "CHORD2",
            "editable": false,
            "mutedNotes": [],
            "mutedChords": [
              "min7",
              "min",
              "Maj"
            ],
            "autoStart": false,
            "sourceChordNote": 0,
            "sourceChordType": "Maj7",
            "ctb2Low": null,
            "ctb2Main": {
              "ntr": "ROOT_FIXED",
              "ntt": "CHORD",
              "bassOn": false,
              "chordRootUpperLimit": 7,
              "noteLowLimit": 0,
              "noteHighLimit": 79,
              "rtr": "PITCH_SHIFT"
            },
            "ctb2High": null
          },
          "notes": [
            {
              "pitch": 55,
              "velocity": 112,
              "position": 0,
              "duration": 1.9854166666666666
            },
            {
              "pitch": 59,
              "velocity": 112,
              "position": 0,
              "duration": 1.9854166666666666
            },
            {
              "pitch": 64,
              "velocity": 112,
              "position": 0,
              "duration": 1.9854166666666666
            },
            {
              "pitch": 55,
              "velocity": 112,
              "position": 2,
              "duration": 0.9854166666666667
            },
            {
              "pitch": 59,
              "velocity": 112,
              "position": 2,
              "duration": 0.9854166666666667
            },
            {
              "pitch": 64,
              "velocity": 112,
              "position": 2,
              "duration": 0.9854166666666667
            },
            {
              "pitch": 55,
              "velocity": 112,
              "position": 3,
              "duration": 0.9854166666666667
            },
            {
              "pitch": 59,
              "velocity": 112,
              "position": 3,
              "duration": 0.9854166666666667
            },
            {
              "pitch": 64,
              "velocity": 112,
              "position": 3,
              "duration": 0.9854166666666667
            },
            {
              "pitch": 55,
              "velocity": 112,
              "position": 4,
              "duration": 2.9854166666666666
            },
            {
              "pitch": 59,
              "velocity": 112,
              "position": 4,
              "duration": 2.9854166666666666
            },
            {
              "pitch": 64,
              "velocity": 112,
              "position": 4,
              "duration": 2.9854166666666666
            },
            {
              "pitch": 55,
              "velocity": 112,
              "position": 7,
              "duration": 0.9854166666666667
            },
            {
              "pitch": 59,
              "velocity": 112,
              "position": 7,
              "duration": 0.9854166666666667
            },
            {
              "pitch": 64,
              "velocity": 112,
              "position": 7,
              "duration": 0.9854166666666667
            }
          ]
        },
        "13": {
          "ctab": {
            "srcChannel": 13,
            "name": "Pno LH",
            "accType": "CHORD2",
            "editable": false,
            "mutedNotes": [],
            "mutedChords": [],
            "autoStart": false,
            "sourceChordNote": 0,
            "sourceChordType": "Maj7",
            "ctb2Low": null,
            "ctb2Main": {
              "ntr": "ROOT_TRANSPOSITION",
              "ntt": "MELODY",
              "bassOn": true,
              "chordRootUpperLimit": 5,
              "noteLowLimit": 0,
              "noteHighLimit": 127,
              "rtr": "PITCH_SHIFT"
            },
            "ctb2High": null
          },
          "notes": [
            {
              "pitch": 36,
              "velocity": 112,
              "position": 0,
              "duration": 1.31875
            },
            {
              "pitch": 48,
              "velocity": 112,
              "position": 0,
              "duration": 1.6520833333333333
            },
            {
              "pitch": 48,
              "velocity": 94,
              "position": 1.6666666666666667,
              "duration": 0.9854166666666667
            },
            {
              "pitch": 48,
              "velocity": 77,
              "position": 2.6666666666666665,
              "duration": 0.9854166666666667
            },
            {
              "pitch": 36,
              "velocity": 77,
              "position": 1.3333333333333333,
              "duration": 2.652083333333333
            },
            {
              "pitch": 36,
              "velocity": 112,
              "position": 4,
              "duration": 1.31875
            },
            {
              "pitch": 48,
              "velocity": 77,
              "position": 3.6666666666666665,
              "duration": 1.9854166666666666
            },
            {
              "pitch": 36,
              "velocity": 77,
              "position": 5.333333333333333,
              "duration": 0.6520833333333333
            },
            {
              "pitch": 48,
              "velocity": 94,
              "position": 5.666666666666667,
              "duration": 1.31875
            },
            {
              "pitch": 36,
              "velocity": 112,
              "position": 6,
              "duration": 1.9854166666666666
            },
            {
              "pitch": 48,
              "velocity": 94,
              "position": 7,
              "duration": 0.9854166666666667
            }
          ]
        },
        "14": {
          "ctab": {
            "srcChannel": 14,
            "name": "Organ",
            "accType": "PAD",
            "editable": false,
            "mutedNotes": [],
            "mutedChords": [
              "min7",
              "min",
              "Maj"
            ],
            "autoStart": false,
            "sourceChordNote": 0,
            "sourceChordType": "Maj7",
            "ctb2Low": null,
            "ctb2Main": {
              "ntr": "ROOT_FIXED",
              "ntt": "CHORD",
              "bassOn": false,
              "chordRootUpperLimit": 7,
              "noteLowLimit": 0,
              "noteHighLimit": 79,
              "rtr": "PITCH_SHIFT"
            },
            "ctb2High": null
          },
          "notes": []
        },
        "15": {
          "ctab": {
            "srcChannel": 15,
            "name": "Choir",
            "accType": "PHRASE1",
            "editable": false,
            "mutedNotes": [],
            "mutedChords": [
              "min7",
              "min",
              "Maj"
            ],
            "autoStart": false,
            "sourceChordNote": 0,
            "sourceChordType": "Maj7",
            "ctb2Low": null,
            "ctb2Main": {
              "ntr": "ROOT_FIXED",
              "ntt": "CHORD",
              "bassOn": false,
              "chordRootUpperLimit": 7,
              "noteLowLimit": 57,
              "noteHighLimit": 79,
              "rtr": "PITCH_SHIFT"
            },
            "ctb2High": null
          },
          "notes": [
            {
              "pitch": 47,
              "velocity": 50,
              "position": 0.010416666666666666,
              "duration": 7.985416666666667
            },
            {
              "pitch": 52,
              "velocity": 50,
              "position": 0.010416666666666666,
              "duration": 7.985416666666667
            },
            {
              "pitch": 55,
              "velocity": 50,
              "position": 0.010416666666666666,
              "duration": 7.985416666666667
            }
          ]
        }
      }
    },
    "Main_B": {
      "type": "Main_B",
      "sizeInBeats": 8,
      "channels": {
        "1": {
          "ctab": {
            "srcChannel": 1,
            "name": "Bass 2",
            "accType": "BASS",
            "editable": false,
            "mutedNotes": [],
            "mutedChords": [
              "7(13)",
              "7(9)",
              "7th",
              "dim7",
              "min7(11)",
              "min7(9)",
              "min(9)",
              "min7",
              "min6",
              "Maj6(9)",
              "Maj7(9)",
              "Maj(9)",
              "Maj7",
              "Maj6",
              "Maj"
            ],
            "autoStart": false,
            "sourceChordNote": 0,
            "sourceChordType": "Maj7",
            "ctb2Low": null,
            "ctb2Main": {
              "ntr": "ROOT_TRANSPOSITION",
              "ntt": "MELODY",
              "bassOn": true,
              "chordRootUpperLimit": 8,
              "noteLowLimit": 28,
              "noteHighLimit": 51,
              "rtr": "PITCH_SHIFT_TO_ROOT"
            },
            "ctb2High": null
          },
          "notes": [
            {
              "pitch": 24,
              "velocity": 74,
              "position": 0,
              "duration": 0.6208333333333333
            },
            {
              "pitch": 24,
              "velocity": 60,
              "position": 0.6666666666666666,
              "duration": 0.1625
            },
            {
              "pitch": 24,
              "velocity": 106,
              "position": 1.6666666666666667,
              "duration": 0.10416666666666667
            },
            {
              "pitch": 31,
              "velocity": 74,
              "position": 2,
              "duration": 0.6208333333333333
            },
            {
              "pitch": 31,
              "velocity": 60,
              "position": 2.6666666666666665,
              "duration": 0.1625
            },
            {
              "pitch": 31,
              "velocity": 106,
              "position": 3.6666666666666665,
              "duration": 0.10416666666666667
            },
            {
              "pitch": 24,
              "velocity": 74,
              "position": 4,
              "duration": 0.6208333333333333
            },
            {
              "pitch": 24,
              "velocity": 60,
              "position": 4.666666666666667,
              "duration": 0.1625
            },
            {
              "pitch": 31,
              "velocity": 60,
              "position": 5.333333333333333,
              "duration": 0.08333333333333333
            },
            {
              "pitch": 31,
              "velocity": 106,
              "position": 5.666666666666667,
              "duration": 0.10416666666666667
            },
            {
              "pitch": 31,
              "velocity": 74,
              "position": 6,
              "duration": 0.6208333333333333
            },
            {
              "pitch": 31,
              "velocity": 60,
              "position": 6.666666666666667,
              "duration": 0.1625
            },
            {
              "pitch": 31,
              "velocity": 106,
              "position": 7.666666666666667,
              "duration": 0.10416666666666667
            }
          ]
        },
        "2": {
          "ctab": {
            "srcChannel": 2,
            "name": "Gt Root",
            "accType": "CHORD1",
            "editable": false,
            "mutedNotes": [],
            "mutedChords": [
              "1+2+5",
              "sus4",
              "1+5",
              "1+8",
              "Maj7aug",
              "7th",
              "dim",
              "minMaj7(9)",
              "minMaj7",
              "min6",
              "min",
              "aug",
              "Maj7(9)",
              "Maj7#11",
              "Maj7",
              "Maj6",
              "Maj"
            ],
            "autoStart": false,
            "sourceChordNote": 0,
            "sourceChordType": "Maj7",
            "ctb2Low": null,
            "ctb2Main": {
              "ntr": "ROOT_TRANSPOSITION",
              "ntt": "CHORD",
              "bassOn": false,
              "chordRootUpperLimit": 9,
              "noteLowLimit": 58,
              "noteHighLimit": 69,
              "rtr": "PITCH_SHIFT"
            },
            "ctb2High": null
          },
          "notes": [
            {
              "pitch": 60,
              "velocity": 64,
              "position": 0.3333333333333333,
              "duration": 0.027083333333333334
            },
            {
              "pitch": 60,
              "velocity": 46,
              "position": 0.6666666666666666,
              "duration": 0.027083333333333334
            },
            {
              "pitch": 60,
              "velocity": 116,
              "position": 1,
              "duration": 0.21458333333333332
            },
            {
              "pitch": 60,
              "velocity": 64,
              "position": 2.3333333333333335,
              "duration": 0.027083333333333334
            },
            {
              "pitch": 60,
              "velocity": 46,
              "position": 2.6666666666666665,
              "duration": 0.027083333333333334
            },
            {
              "pitch": 64,
              "velocity": 116,
              "position": 3,
              "duration": 0.21458333333333332
            },
            {
              "pitch": 60,
              "velocity": 64,
              "position": 4.333333333333333,
              "duration": 0.027083333333333334
            },
            {
              "pitch": 60,
              "velocity": 46,
              "position": 4.666666666666667,
              "duration": 0.027083333333333334
            },
            {
              "pitch": 60,
              "velocity": 116,
              "position": 5,
              "duration": 0.21458333333333332
            },
            {
              "pitch": 60,
              "velocity": 64,
              "position": 6.333333333333333,
              "duration": 0.027083333333333334
            },
            {
              "pitch": 60,
              "velocity": 46,
              "position": 6.666666666666667,
              "duration": 0.027083333333333334
            },
            {
              "pitch": 64,
              "velocity": 116,
              "position": 7,
              "duration": 0.6416666666666667
            },
            {
              "pitch": 64,
              "velocity": 80,
              "position": 7.666666666666667,
              "duration": 0.30833333333333335
            }
          ]
        },
        "3": {
          "ctab": {
            "srcChannel": 3,
            "name": "Pno 2",
            "accType": "CHORD2",
            "editable": false,
            "mutedNotes": [],
            "mutedChords": [
              "1+2+5",
              "sus4",
              "1+5",
              "1+8",
              "7aug",
              "Maj7aug",
              "7(#9)",
              "7(b13)",
              "7(b9)",
              "7(13)",
              "7#11",
              "7(9)",
              "7b5",
              "7sus4",
              "7th",
              "dim7",
              "dim",
              "minMaj7(9)",
              "minMaj7",
              "min7(11)",
              "min7(9)",
              "min(9)",
              "m7b5",
              "min6",
              "aug",
              "Maj6(9)",
              "Maj7(9)",
              "Maj(9)",
              "Maj7#11",
              "Maj7",
              "Maj6"
            ],
            "autoStart": false,
            "sourceChordNote": 0,
            "sourceChordType": "Maj7",
            "ctb2Low": null,
            "ctb2Main": {
              "ntr": "ROOT_TRANSPOSITION",
              "ntt": "MELODIC_MINOR",
              "bassOn": false,
              "chordRootUpperLimit": 6,
              "noteLowLimit": 54,
              "noteHighLimit": 79,
              "rtr": "PITCH_SHIFT"
            },
            "ctb2High": null
          },
          "notes": [
            {
              "pitch": 43,
              "velocity": 116,
              "position": 0,
              "duration": 0.9854166666666667
            },
            {
              "pitch": 48,
              "velocity": 116,
              "position": 0,
              "duration": 0.9854166666666667
            },
            {
              "pitch": 52,
              "velocity": 116,
              "position": 0,
              "duration": 0.9854166666666667
            },
            {
              "pitch": 43,
              "velocity": 116,
              "position": 1,
              "duration": 0.9854166666666667
            },
            {
              "pitch": 48,
              "velocity": 116,
              "position": 1,
              "duration": 0.9854166666666667
            },
            {
              "pitch": 52,
              "velocity": 116,
              "position": 1,
              "duration": 0.9854166666666667
            },
            {
              "pitch": 46,
              "velocity": 116,
              "position": 2,
              "duration": 0.9854166666666667
            },
            {
              "pitch": 48,
              "velocity": 116,
              "position": 2,
              "duration": 0.9854166666666667
            },
            {
              "pitch": 53,
              "velocity": 116,
              "position": 2,
              "duration": 0.9854166666666667
            },
            {
              "pitch": 45,
              "velocity": 116,
              "position": 3,
              "duration": 0.9854166666666667
            },
            {
              "pitch": 48,
              "velocity": 116,
              "position": 3,
              "duration": 0.9854166666666667
            },
            {
              "pitch": 53,
              "velocity": 116,
              "position": 3,
              "duration": 0.9854166666666667
            },
            {
              "pitch": 43,
              "velocity": 116,
              "position": 4,
              "duration": 0.9854166666666667
            },
            {
              "pitch": 48,
              "velocity": 116,
              "position": 4,
              "duration": 0.9854166666666667
            },
            {
              "pitch": 52,
              "velocity": 116,
              "position": 4,
              "duration": 0.9854166666666667
            },
            {
              "pitch": 43,
              "velocity": 116,
              "position": 5,
              "duration": 0.6520833333333333
            },
            {
              "pitch": 48,
              "velocity": 116,
              "position": 5,
              "duration": 0.6520833333333333
            },
            {
              "pitch": 52,
              "velocity": 116,
              "position": 5,
              "duration": 0.6520833333333333
            },
            {
              "pitch": 45,
              "velocity": 98,
              "position": 5.666666666666667,
              "duration": 0.31875
            },
            {
              "pitch": 48,
              "velocity": 98,
              "position": 5.666666666666667,
              "duration": 0.31875
            },
            {
              "pitch": 53,
              "velocity": 98,
              "position": 5.666666666666667,
              "duration": 0.31875
            },
            {
              "pitch": 43,
              "velocity": 116,
              "position": 6,
              "duration": 0.9854166666666667
            },
            {
              "pitch": 48,
              "velocity": 116,
              "position": 6,
              "duration": 0.9854166666666667
            },
            {
              "pitch": 52,
              "velocity": 116,
              "position": 6,
              "duration": 0.9854166666666667
            },
            {
              "pitch": 45,
              "velocity": 116,
              "position": 7,
              "duration": 0.9854166666666667
            },
            {
              "pitch": 48,
              "velocity": 116,
              "position": 7,
              "duration": 0.9854166666666667
            },
            {
              "pitch": 53,
              "velocity": 116,
              "position": 7,
              "duration": 0.9854166666666667
            }
          ]
        },
        "5": {
          "ctab": {
            "srcChannel": 5,
            "name": "Org 2",
            "accType": "PAD",
            "editable": false,
            "mutedNotes": [],
            "mutedChords": [
              "1+2+5",
              "sus4",
              "1+5",
              "1+8",
              "7aug",
              "Maj7aug",
              "7(#9)",
              "7(b13)",
              "7(b9)",
              "7(13)",
              "7#11",
              "7(9)",
              "7b5",
              "7sus4",
              "7th",
              "dim7",
              "dim",
              "minMaj7(9)",
              "minMaj7",
              "min7(11)",
              "min7(9)",
              "min(9)",
              "m7b5",
              "min6",
              "aug",
              "Maj6(9)",
              "Maj7(9)",
              "Maj(9)",
              "Maj7#11",
              "Maj7",
              "Maj6"
            ],
            "autoStart": false,
            "sourceChordNote": 0,
            "sourceChordType": "Maj7",
            "ctb2Low": null,
            "ctb2Main": {
              "ntr": "ROOT_TRANSPOSITION",
              "ntt": "MELODIC_MINOR",
              "bassOn": false,
              "chordRootUpperLimit": 6,
              "noteLowLimit": 57,
              "noteHighLimit": 79,
              "rtr": "PITCH_SHIFT"
            },
            "ctb2High": null
          },
          "notes": [
            {
              "pitch": 79,
              "velocity": 108,
              "position": 0.010416666666666666,
              "duration": 1.975
            },
            {
              "pitch": 84,
              "velocity": 108,
              "position": 0.010416666666666666,
              "duration": 1.975
            },
            {
              "pitch": 88,
              "velocity": 108,
              "position": 0.010416666666666666,
              "duration": 1.975
            },
            {
              "pitch": 82,
              "velocity": 108,
              "position": 2.0104166666666665,
              "duration": 0.975
            },
            {
              "pitch": 86,
              "velocity": 108,
              "position": 2.0104166666666665,
              "duration": 0.975
            },
            {
              "pitch": 81,
              "velocity": 108,
              "position": 3.0104166666666665,
              "duration": 0.975
            },
            {
              "pitch": 89,
              "velocity": 108,
              "position": 2.0104166666666665,
              "duration": 1.975
            },
            {
              "pitch": 79,
              "velocity": 108,
              "position": 4.010416666666667,
              "duration": 2.975
            },
            {
              "pitch": 88,
              "velocity": 108,
              "position": 4.010416666666667,
              "duration": 2.975
            },
            {
              "pitch": 81,
              "velocity": 108,
              "position": 7.010416666666667,
              "duration": 0.975
            },
            {
              "pitch": 89,
              "velocity": 108,
              "position": 7.010416666666667,
              "duration": 0.975
            },
            {
              "pitch": 84,
              "velocity": 108,
              "position": 3.0104166666666665,
              "duration": 4.985416666666667
            }
          ]
        },
        "6": {
          "ctab": {
            "srcChannel": 6,
            "name": "Choir 2",
            "accType": "PHRASE1",
            "editable": false,
            "mutedNotes": [],
            "mutedChords": [
              "1+2+5",
              "sus4",
              "1+5",
              "1+8",
              "7aug",
              "Maj7aug",
              "7(#9)",
              "7(b13)",
              "7(b9)",
              "7(13)",
              "7#11",
              "7(9)",
              "7b5",
              "7sus4",
              "7th",
              "dim7",
              "dim",
              "minMaj7(9)",
              "minMaj7",
              "min7(11)",
              "min7(9)",
              "min(9)",
              "m7b5",
              "min6",
              "aug",
              "Maj6(9)",
              "Maj7(9)",
              "Maj(9)",
              "Maj7#11",
              "Maj7",
              "Maj6"
            ],
            "autoStart": false,
            "sourceChordNote": 0,
            "sourceChordType": "Maj7",
            "ctb2Low": null,
            "ctb2Main": {
              "ntr": "ROOT_TRANSPOSITION",
              "ntt": "MELODIC_MINOR",
              "bassOn": false,
              "chordRootUpperLimit": 6,
              "noteLowLimit": 57,
              "noteHighLimit": 79,
              "rtr": "PITCH_SHIFT"
            },
            "ctb2High": null
          },
          "notes": [
            {
              "pitch": 48,
              "velocity": 50,
              "position": 0.010416666666666666,
              "duration": 1.975
            },
            {
              "pitch": 52,
              "velocity": 50,
              "position": 0.010416666666666666,
              "duration": 1.975
            },
            {
              "pitch": 55,
              "velocity": 50,
              "position": 0.010416666666666666,
              "duration": 1.975
            },
            {
              "pitch": 46,
              "velocity": 50,
              "position": 2,
              "duration": 0.975
            },
            {
              "pitch": 50,
              "velocity": 50,
              "position": 2,
              "duration": 0.975
            },
            {
              "pitch": 45,
              "velocity": 50,
              "position": 3,
              "duration": 0.975
            },
            {
              "pitch": 53,
              "velocity": 50,
              "position": 2,
              "duration": 1.975
            },
            {
              "pitch": 52,
              "velocity": 50,
              "position": 4,
              "duration": 2.975
            },
            {
              "pitch": 55,
              "velocity": 50,
              "position": 4,
              "duration": 2.975
            },
            {
              "pitch": 45,
              "velocity": 50,
              "position": 7,
              "duration": 0.975
            },
            {
              "pitch": 53,
              "velocity": 50,
              "position": 7,
              "duration": 0.975
            },
            {
              "pitch": 48,
              "velocity": 50,
              "position": 3,
              "duration": 4.995833333333334
            }
          ]
        },
        "7": {
          "ctab": {
            "srcChannel": 7,
            "name": "CC_Crash",
            "accType": "RHYTHM",
            "editable": false,
            "mutedNotes": [],
            "mutedChords": [
              "1+2+5",
              "sus4",
              "1+5",
              "1+8",
              "7aug",
              "Maj7aug",
              "7(#9)",
              "7(b13)",
              "7(b9)",
              "7(13)",
              "7#11",
              "7(9)",
              "7b5",
              "7sus4",
              "7th",
              "dim7",
              "dim",
              "minMaj7(9)",
              "minMaj7",
              "min7(11)",
              "min7(9)",
              "min(9)",
              "m7b5",
              "min7",
              "min6",
              "min",
              "aug",
              "Maj6(9)",
              "Maj7(9)",
              "Maj(9)",
              "Maj7#11",
              "Maj7",
              "Maj6",
              "Maj"
            ],
            "autoStart": true,
            "sourceChordNote": 0,
            "sourceChordType": "Maj",
            "ctb2Low": null,
            "ctb2Main": {
              "ntr": "ROOT_FIXED",
              "ntt": "BYPASS",
              "bassOn": false,
              "chordRootUpperLimit": 0,
              "noteLowLimit": 0,
              "noteHighLimit": 127,
              "rtr": "RETRIGGER"
            },
            "ctb2High": null
          },
          "notes": []
        },
        "8": {
          "ctab": {
            "srcChannel": 8,
            "name": "Perc",
            "accType": "SUBRHYTHM",
            "editable": false,
            "mutedNotes": [],
            "mutedChords": [],
            "autoStart": true,
            "sourceChordNote": 0,
            "sourceChordType": "Maj7",
            "ctb2Low": null,
            "ctb2Main": {
              "ntr": "ROOT_FIXED",
              "ntt": "BYPASS",
              "bassOn": false,
              "chordRootUpperLimit": 6,
              "noteLowLimit": 0,
              "noteHighLimit": 127,
              "rtr": "PITCH_SHIFT"
            },
            "ctb2High": null
          },
          "notes": []
        },
        "9": {
          "ctab": {
            "srcChannel": 9,
            "name": "Drums",
            "accType": "RHYTHM",
            "editable": false,
            "mutedNotes": [],
            "mutedChords": [],
            "autoStart": true,
            "sourceChordNote": 0,
            "sourceChordType": "Maj7",
            "ctb2Low": null,
            "ctb2Main": {
              "ntr": "ROOT_FIXED",
              "ntt": "BYPASS",
              "bassOn": false,
              "chordRootUpperLimit": 6,
              "noteLowLimit": 0,
              "noteHighLimit": 127,
              "rtr": "PITCH_SHIFT"
            },
            "ctb2High": null
          },
          "notes": [
            {
              "pitch": 35,
              "velocity": 90,
              "position": 0,
              "duration": 0.00625
            },
            {
              "pitch": 42,
              "velocity": 78,
              "position": 0,
              "duration": 0.00625
            },
            {
              "pitch": 54,
              "velocity": 52,
              "position": 0,
              "duration": 0.00625
            },
            {
              "pitch": 38,
              "velocity": 15,
              "position": 0.3333333333333333,
              "duration": 0.00625
            },
            {
              "pitch": 42,
              "velocity": 18,
              "position": 0.6666666666666666,
              "duration": 0.00625
            },
            {
              "pitch": 54,
              "velocity": 20,
              "position": 0.6666666666666666,
              "duration": 0.00625
            },
            {
              "pitch": 38,
              "velocity": 100,
              "position": 1,
              "duration": 0.00625
            },
            {
              "pitch": 46,
              "velocity": 45,
              "position": 1,
              "duration": 0.00625
            },
            {
              "pitch": 54,
              "velocity": 71,
              "position": 1,
              "duration": 0.00625
            },
            {
              "pitch": 38,
              "velocity": 15,
              "position": 1.3333333333333333,
              "duration": 0.00625
            },
            {
              "pitch": 44,
              "velocity": 1,
              "position": 1.3333333333333333,
              "duration": 0.00625
            },
            {
              "pitch": 35,
              "velocity": 40,
              "position": 1.6666666666666667,
              "duration": 0.00625
            },
            {
              "pitch": 42,
              "velocity": 18,
              "position": 1.6666666666666667,
              "duration": 0.00625
            },
            {
              "pitch": 54,
              "velocity": 13,
              "position": 1.6666666666666667,
              "duration": 0.00625
            },
            {
              "pitch": 35,
              "velocity": 90,
              "position": 2,
              "duration": 0.00625
            },
            {
              "pitch": 42,
              "velocity": 78,
              "position": 2,
              "duration": 0.00625
            },
            {
              "pitch": 54,
              "velocity": 52,
              "position": 2,
              "duration": 0.00625
            },
            {
              "pitch": 38,
              "velocity": 15,
              "position": 2.3333333333333335,
              "duration": 0.00625
            },
            {
              "pitch": 42,
              "velocity": 18,
              "position": 2.6666666666666665,
              "duration": 0.00625
            },
            {
              "pitch": 54,
              "velocity": 20,
              "position": 2.6666666666666665,
              "duration": 0.00625
            },
            {
              "pitch": 38,
              "velocity": 100,
              "position": 3,
              "duration": 0.00625
            },
            {
              "pitch": 46,
              "velocity": 45,
              "position": 3,
              "duration": 0.00625
            },
            {
              "pitch": 54,
              "velocity": 71,
              "position": 3,
              "duration": 0.00625
            },
            {
              "pitch": 38,
              "velocity": 20,
              "position": 3.3333333333333335,
              "duration": 0.00625
            },
            {
              "pitch": 44,
              "velocity": 1,
              "position": 3.3333333333333335,
              "duration": 0.00625
            },
            {
              "pitch": 35,
              "velocity": 40,
              "position": 3.6666666666666665,
              "duration": 0.00625
            },
            {
              "pitch": 42,
              "velocity": 18,
              "position": 3.6666666666666665,
              "duration": 0.00625
            },
            {
              "pitch": 54,
              "velocity": 13,
              "position": 3.6666666666666665,
              "duration": 0.00625
            },
            {
              "pitch": 35,
              "velocity": 90,
              "position": 4,
              "duration": 0.00625
            },
            {
              "pitch": 42,
              "velocity": 78,
              "position": 4,
              "duration": 0.00625
            },
            {
              "pitch": 54,
              "velocity": 52,
              "position": 4,
              "duration": 0.00625
            },
            {
              "pitch": 38,
              "velocity": 15,
              "position": 4.333333333333333,
              "duration": 0.00625
            },
            {
              "pitch": 42,
              "velocity": 18,
              "position": 4.666666666666667,
              "duration": 0.00625
            },
            {
              "pitch": 54,
              "velocity": 20,
              "position": 4.666666666666667,
              "duration": 0.00625
            },
            {
              "pitch": 38,
              "velocity": 100,
              "position": 5,
              "duration": 0.00625
            },
            {
              "pitch": 46,
              "velocity": 45,
              "position": 5,
              "duration": 0.00625
            },
            {
              "pitch": 54,
              "velocity": 71,
              "position": 5,
              "duration": 0.00625
            },
            {
              "pitch": 38,
              "velocity": 15,
              "position": 5.333333333333333,
              "duration": 0.00625
            },
            {
              "pitch": 44,
              "velocity": 1,
              "position": 5.333333333333333,
              "duration": 0.00625
            },
            {
              "pitch": 35,
              "velocity": 40,
              "position": 5.666666666666667,
              "duration": 0.00625
            },
            {
              "pitch": 42,
              "velocity": 18,
              "position": 5.666666666666667,
              "duration": 0.00625
            },
            {
              "pitch": 54,
              "velocity": 13,
              "position": 5.666666666666667,
              "duration": 0.00625
            },
            {
              "pitch": 35,
              "velocity": 90,
              "position": 6,
              "duration": 0.00625
            },
            {
              "pitch": 42,
              "velocity": 78,
              "position": 6,
              "duration": 0.00625
            },
            {
              "pitch": 54,
              "velocity": 52,
              "position": 6,
              "duration": 0.00625
            },
            {
              "pitch": 38,
              "velocity": 15,
              "position": 6.333333333333333,
              "duration": 0.00625
            },
            {
              "pitch": 42,
              "velocity": 18,
              "position": 6.666666666666667,
              "duration": 0.00625
            },
            {
              "pitch": 54,
              "velocity": 20,
              "position": 6.666666666666667,
              "duration": 0.00625
            },
            {
              "pitch": 38,
              "velocity": 100,
              "position": 7,
              "duration": 0.00625
            },
            {
              "pitch": 46,
              "velocity": 45,
              "position": 7,
              "duration": 0.00625
            },
            {
              "pitch": 54,
              "velocity": 71,
              "position": 7,
              "duration": 0.00625
            },
            {
              "pitch": 38,
              "velocity": 20,
              "position": 7.333333333333333,
              "duration": 0.00625
            },
            {
              "pitch": 44,
              "velocity": 1,
              "position": 7.333333333333333,
              "duration": 0.00625
            },
            {
              "pitch": 35,
              "velocity": 40,
              "position": 7.666666666666667,
              "duration": 0.00625
            },
            {
              "pitch": 42,
              "velocity": 18,
              "position": 7.666666666666667,
              "duration": 0.00625
            },
            {
              "pitch": 54,
              "velocity": 13,
              "position": 7.666666666666667,
              "duration": 0.00625
            }
          ]
        },
        "10": {
          "ctab": {
            "srcChannel": 10,
            "name": "Bass",
            "accType": "BASS",
            "editable": false,
            "mutedNotes": [],
            "mutedChords": [
              "1+2+5",
              "sus4",
              "1+5",
              "1+8",
              "7aug",
              "Maj7aug",
              "7(#9)",
              "7(b13)",
              "7(b9)",
              "7#11",
              "7b5",
              "7sus4",
              "dim",
              "minMaj7(9)",
              "minMaj7",
              "m7b5",
              "min",
              "aug",
              "Maj7#11"
            ],
            "autoStart": false,
            "sourceChordNote": 0,
            "sourceChordType": "Maj7",
            "ctb2Low": null,
            "ctb2Main": {
              "ntr": "ROOT_TRANSPOSITION",
              "ntt": "MELODY",
              "bassOn": true,
              "chordRootUpperLimit": 8,
              "noteLowLimit": 28,
              "noteHighLimit": 51,
              "rtr": "PITCH_SHIFT_TO_ROOT"
            },
            "ctb2High": null
          },
          "notes": [
            {
              "pitch": 24,
              "velocity": 74,
              "position": 0,
              "duration": 0.6208333333333333
            },
            {
              "pitch": 24,
              "velocity": 60,
              "position": 0.6666666666666666,
              "duration": 0.1625
            },
            {
              "pitch": 24,
              "velocity": 106,
              "position": 1.6666666666666667,
              "duration": 0.10416666666666667
            },
            {
              "pitch": 31,
              "velocity": 74,
              "position": 2,
              "duration": 0.6208333333333333
            },
            {
              "pitch": 31,
              "velocity": 60,
              "position": 2.6666666666666665,
              "duration": 0.1625
            },
            {
              "pitch": 31,
              "velocity": 106,
              "position": 3.6666666666666665,
              "duration": 0.10416666666666667
            },
            {
              "pitch": 24,
              "velocity": 74,
              "position": 4,
              "duration": 0.6208333333333333
            },
            {
              "pitch": 24,
              "velocity": 60,
              "position": 4.666666666666667,
              "duration": 0.1625
            },
            {
              "pitch": 31,
              "velocity": 60,
              "position": 5.333333333333333,
              "duration": 0.08333333333333333
            },
            {
              "pitch": 31,
              "velocity": 106,
              "position": 5.666666666666667,
              "duration": 0.10416666666666667
            },
            {
              "pitch": 31,
              "velocity": 74,
              "position": 6,
              "duration": 0.6208333333333333
            },
            {
              "pitch": 31,
              "velocity": 60,
              "position": 6.666666666666667,
              "duration": 0.1625
            },
            {
              "pitch": 31,
              "velocity": 60,
              "position": 7.666666666666667,
              "duration": 0.04791666666666667
            }
          ]
        },
        "11": {
          "ctab": {
            "srcChannel": 11,
            "name": "Gtr",
            "accType": "CHORD1",
            "editable": false,
            "mutedNotes": [],
            "mutedChords": [],
            "autoStart": false,
            "sourceChordNote": 0,
            "sourceChordType": "Maj7",
            "ctb2Low": null,
            "ctb2Main": {
              "ntr": "ROOT_TRANSPOSITION",
              "ntt": "CHORD",
              "bassOn": false,
              "chordRootUpperLimit": 7,
              "noteLowLimit": 58,
              "noteHighLimit": 69,
              "rtr": "PITCH_SHIFT"
            },
            "ctb2High": null
          },
          "notes": [
            {
              "pitch": 59,
              "velocity": 64,
              "position": 0.3333333333333333,
              "duration": 0.027083333333333334
            },
            {
              "pitch": 64,
              "velocity": 64,
              "position": 0.34375,
              "duration": 0.027083333333333334
            },
            {
              "pitch": 67,
              "velocity": 64,
              "position": 0.3541666666666667,
              "duration": 0.027083333333333334
            },
            {
              "pitch": 59,
              "velocity": 46,
              "position": 0.6666666666666666,
              "duration": 0.027083333333333334
            },
            {
              "pitch": 64,
              "velocity": 46,
              "position": 0.6770833333333334,
              "duration": 0.027083333333333334
            },
            {
              "pitch": 59,
              "velocity": 116,
              "position": 1,
              "duration": 0.21458333333333332
            },
            {
              "pitch": 64,
              "velocity": 116,
              "position": 1.0104166666666667,
              "duration": 0.21458333333333332
            },
            {
              "pitch": 67,
              "velocity": 116,
              "position": 1.0208333333333333,
              "duration": 0.21458333333333332
            },
            {
              "pitch": 59,
              "velocity": 64,
              "position": 2.3333333333333335,
              "duration": 0.027083333333333334
            },
            {
              "pitch": 64,
              "velocity": 64,
              "position": 2.34375,
              "duration": 0.027083333333333334
            },
            {
              "pitch": 67,
              "velocity": 64,
              "position": 2.3541666666666665,
              "duration": 0.027083333333333334
            },
            {
              "pitch": 59,
              "velocity": 46,
              "position": 2.6666666666666665,
              "duration": 0.027083333333333334
            },
            {
              "pitch": 64,
              "velocity": 46,
              "position": 2.6770833333333335,
              "duration": 0.027083333333333334
            },
            {
              "pitch": 60,
              "velocity": 116,
              "position": 3,
              "duration": 0.21458333333333332
            },
            {
              "pitch": 67,
              "velocity": 116,
              "position": 3.0208333333333335,
              "duration": 0.21458333333333332
            },
            {
              "pitch": 59,
              "velocity": 64,
              "position": 4.333333333333333,
              "duration": 0.027083333333333334
            },
            {
              "pitch": 64,
              "velocity": 64,
              "position": 4.34375,
              "duration": 0.027083333333333334
            },
            {
              "pitch": 67,
              "velocity": 64,
              "position": 4.354166666666667,
              "duration": 0.027083333333333334
            },
            {
              "pitch": 59,
              "velocity": 46,
              "position": 4.666666666666667,
              "duration": 0.027083333333333334
            },
            {
              "pitch": 64,
              "velocity": 46,
              "position": 4.677083333333333,
              "duration": 0.027083333333333334
            },
            {
              "pitch": 59,
              "velocity": 116,
              "position": 5,
              "duration": 0.21458333333333332
            },
            {
              "pitch": 64,
              "velocity": 116,
              "position": 5.010416666666667,
              "duration": 0.21458333333333332
            },
            {
              "pitch": 67,
              "velocity": 116,
              "position": 5.020833333333333,
              "duration": 0.21458333333333332
            },
            {
              "pitch": 59,
              "velocity": 64,
              "position": 6.333333333333333,
              "duration": 0.027083333333333334
            },
            {
              "pitch": 64,
              "velocity": 64,
              "position": 6.34375,
              "duration": 0.027083333333333334
            },
            {
              "pitch": 67,
              "velocity": 64,
              "position": 6.354166666666667,
              "duration": 0.027083333333333334
            },
            {
              "pitch": 59,
              "velocity": 46,
              "position": 6.666666666666667,
              "duration": 0.027083333333333334
            },
            {
              "pitch": 64,
              "velocity": 46,
              "position": 6.677083333333333,
              "duration": 0.027083333333333334
            },
            {
              "pitch": 60,
              "velocity": 116,
              "position": 7,
              "duration": 0.6520833333333333
            },
            {
              "pitch": 67,
              "velocity": 116,
              "position": 7.020833333333333,
              "duration": 0.63125
            },
            {
              "pitch": 60,
              "velocity": 80,
              "position": 7.666666666666667,
              "duration": 0.31875
            },
            {
              "pitch": 67,
              "velocity": 80,
              "position": 7.6875,
              "duration": 0.30833333333333335
            }
          ]
        },
        "12": {
          "ctab": {
            "srcChannel": 12,
            "name": "Pno RH",
            "accType": "CHORD2",
            "editable": false,
            "mutedNotes": [],
            "mutedChords": [
              "min7",
              "min",
              "Maj"
            ],
            "autoStart": false,
            "sourceChordNote": 0,
            "sourceChordType": "Maj7",
            "ctb2Low": null,
            "ctb2Main": {
              "ntr": "ROOT_FIXED",
              "ntt": "CHORD",
              "bassOn": false,
              "chordRootUpperLimit": 7,
              "noteLowLimit": 0,
              "noteHighLimit": 79,
              "rtr": "PITCH_SHIFT"
            },
            "ctb2High": null
          },
          "notes": [
            {
              "pitch": 55,
              "velocity": 112,
              "position": 0,
              "duration": 1.9854166666666666
            },
            {
              "pitch": 59,
              "velocity": 112,
              "position": 0,
              "duration": 1.9854166666666666
            },
            {
              "pitch": 64,
              "velocity": 112,
              "position": 0,
              "duration": 1.9854166666666666
            },
            {
              "pitch": 55,
              "velocity": 112,
              "position": 2,
              "duration": 0.9854166666666667
            },
            {
              "pitch": 59,
              "velocity": 112,
              "position": 2,
              "duration": 0.9854166666666667
            },
            {
              "pitch": 64,
              "velocity": 112,
              "position": 2,
              "duration": 0.9854166666666667
            },
            {
              "pitch": 55,
              "velocity": 112,
              "position": 3,
              "duration": 0.9854166666666667
            },
            {
              "pitch": 59,
              "velocity": 112,
              "position": 3,
              "duration": 0.9854166666666667
            },
            {
              "pitch": 64,
              "velocity": 112,
              "position": 3,
              "duration": 0.9854166666666667
            },
            {
              "pitch": 55,
              "velocity": 112,
              "position": 4,
              "duration": 1.4854166666666666
            },
            {
              "pitch": 59,
              "velocity": 112,
              "position": 4,
              "duration": 1.4854166666666666
            },
            {
              "pitch": 64,
              "velocity": 112,
              "position": 4,
              "duration": 1.4854166666666666
            },
            {
              "pitch": 55,
              "velocity": 94,
              "position": 5.666666666666667,
              "duration": 0.31875
            },
            {
              "pitch": 60,
              "velocity": 94,
              "position": 5.666666666666667,
              "duration": 0.31875
            },
            {
              "pitch": 64,
              "velocity": 94,
              "position": 5.666666666666667,
              "duration": 0.31875
            },
            {
              "pitch": 55,
              "velocity": 112,
              "position": 6,
              "duration": 0.9854166666666667
            },
            {
              "pitch": 59,
              "velocity": 112,
              "position": 6,
              "duration": 0.9854166666666667
            },
            {
              "pitch": 64,
              "velocity": 112,
              "position": 6,
              "duration": 0.9854166666666667
            },
            {
              "pitch": 55,
              "velocity": 112,
              "position": 7,
              "duration": 0.9854166666666667
            },
            {
              "pitch": 59,
              "velocity": 112,
              "position": 7,
              "duration": 0.9854166666666667
            },
            {
              "pitch": 64,
              "velocity": 112,
              "position": 7,
              "duration": 0.9854166666666667
            }
          ]
        },
        "13": {
          "ctab": {
            "srcChannel": 13,
            "name": "Pno LH",
            "accType": "CHORD2",
            "editable": false,
            "mutedNotes": [],
            "mutedChords": [],
            "autoStart": false,
            "sourceChordNote": 0,
            "sourceChordType": "Maj7",
            "ctb2Low": null,
            "ctb2Main": {
              "ntr": "ROOT_TRANSPOSITION",
              "ntt": "MELODY",
              "bassOn": true,
              "chordRootUpperLimit": 5,
              "noteLowLimit": 0,
              "noteHighLimit": 127,
              "rtr": "PITCH_SHIFT"
            },
            "ctb2High": null
          },
          "notes": [
            {
              "pitch": 36,
              "velocity": 112,
              "position": 0,
              "duration": 1.31875
            },
            {
              "pitch": 48,
              "velocity": 112,
              "position": 0,
              "duration": 1.6520833333333333
            },
            {
              "pitch": 48,
              "velocity": 94,
              "position": 1.6666666666666667,
              "duration": 0.9854166666666667
            },
            {
              "pitch": 48,
              "velocity": 77,
              "position": 2.6666666666666665,
              "duration": 0.9854166666666667
            },
            {
              "pitch": 36,
              "velocity": 77,
              "position": 1.3333333333333333,
              "duration": 2.652083333333333
            },
            {
              "pitch": 48,
              "velocity": 77,
              "position": 3.6666666666666665,
              "duration": 0.9854166666666667
            },
            {
              "pitch": 48,
              "velocity": 94,
              "position": 4.666666666666667,
              "duration": 0.6520833333333333
            },
            {
              "pitch": 36,
              "velocity": 112,
              "position": 4,
              "duration": 2.31875
            },
            {
              "pitch": 48,
              "velocity": 77,
              "position": 5.333333333333333,
              "duration": 1.31875
            },
            {
              "pitch": 36,
              "velocity": 77,
              "position": 6.333333333333333,
              "duration": 0.9854166666666667
            },
            {
              "pitch": 48,
              "velocity": 94,
              "position": 6.666666666666667,
              "duration": 0.9854166666666667
            },
            {
              "pitch": 36,
              "velocity": 77,
              "position": 7.333333333333333,
              "duration": 0.6520833333333333
            },
            {
              "pitch": 48,
              "velocity": 94,
              "position": 7.666666666666667,
              "duration": 0.32916666666666666
            }
          ]
        },
        "14": {
          "ctab": {
            "srcChannel": 14,
            "name": "Organ",
            "accType": "PAD",
            "editable": false,
            "mutedNotes": [],
            "mutedChords": [
              "min7",
              "min",
              "Maj"
            ],
            "autoStart": false,
            "sourceChordNote": 0,
            "sourceChordType": "Maj7",
            "ctb2Low": null,
            "ctb2Main": {
              "ntr": "ROOT_FIXED",
              "ntt": "CHORD",
              "bassOn": false,
              "chordRootUpperLimit": 7,
              "noteLowLimit": 0,
              "noteHighLimit": 79,
              "rtr": "PITCH_SHIFT"
            },
            "ctb2High": null
          },
          "notes": [
            {
              "pitch": 79,
              "velocity": 108,
              "position": 0.010416666666666666,
              "duration": 7.985416666666667
            },
            {
              "pitch": 83,
              "velocity": 108,
              "position": 0.010416666666666666,
              "duration": 7.985416666666667
            },
            {
              "pitch": 88,
              "velocity": 108,
              "position": 0.010416666666666666,
              "duration": 7.985416666666667
            }
          ]
        },
        "15": {
          "ctab": {
            "srcChannel": 15,
            "name": "Choir",
            "accType": "PHRASE1",
            "editable": false,
            "mutedNotes": [],
            "mutedChords": [
              "min7",
              "min",
              "Maj"
            ],
            "autoStart": false,
            "sourceChordNote": 0,
            "sourceChordType": "Maj7",
            "ctb2Low": null,
            "ctb2Main": {
              "ntr": "ROOT_FIXED",
              "ntt": "CHORD",
              "bassOn": false,
              "chordRootUpperLimit": 7,
              "noteLowLimit": 57,
              "noteHighLimit": 79,
              "rtr": "PITCH_SHIFT"
            },
            "ctb2High": null
          },
          "notes": [
            {
              "pitch": 47,
              "velocity": 50,
              "position": 0,
              "duration": 7.995833333333334
            },
            {
              "pitch": 52,
              "velocity": 50,
              "position": 0,
              "duration": 7.995833333333334
            },
            {
              "pitch": 55,
              "velocity": 50,
              "position": 0,
              "duration": 7.995833333333334
            }
          ]
        }
      }
    },
    "Main_C": {
      "type": "Main_C",
      "sizeInBeats": 8,
      "channels": {
        "1": {
          "ctab": {
            "srcChannel": 1,
            "name": "Bass 2",
            "accType": "BASS",
            "editable": false,
            "mutedNotes": [],
            "mutedChords": [
              "7(13)",
              "7(9)",
              "7th",
              "dim7",
              "min7(11)",
              "min7(9)",
              "min(9)",
              "min7",
              "min6",
              "Maj6(9)",
              "Maj7(9)",
              "Maj(9)",
              "Maj7",
              "Maj6",
              "Maj"
            ],
            "autoStart": false,
            "sourceChordNote": 0,
            "sourceChordType": "Maj7",
            "ctb2Low": null,
            "ctb2Main": {
              "ntr": "ROOT_TRANSPOSITION",
              "ntt": "MELODY",
              "bassOn": true,
              "chordRootUpperLimit": 8,
              "noteLowLimit": 28,
              "noteHighLimit": 51,
              "rtr": "PITCH_SHIFT_TO_ROOT"
            },
            "ctb2High": null
          },
          "notes": [
            {
              "pitch": 24,
              "velocity": 74,
              "position": 0,
              "duration": 0.6208333333333333
            },
            {
              "pitch": 24,
              "velocity": 57,
              "position": 0.6666666666666666,
              "duration": 0.1625
            },
            {
              "pitch": 36,
              "velocity": 106,
              "position": 1.3333333333333333,
              "duration": 0.10416666666666667
            },
            {
              "pitch": 31,
              "velocity": 60,
              "position": 1.6666666666666667,
              "duration": 0.21458333333333332
            },
            {
              "pitch": 24,
              "velocity": 74,
              "position": 2,
              "duration": 0.6208333333333333
            },
            {
              "pitch": 24,
              "velocity": 57,
              "position": 2.6666666666666665,
              "duration": 0.31875
            },
            {
              "pitch": 31,
              "velocity": 70,
              "position": 3,
              "duration": 0.31875
            },
            {
              "pitch": 28,
              "velocity": 60,
              "position": 3.3333333333333335,
              "duration": 0.12083333333333333
            },
            {
              "pitch": 31,
              "velocity": 104,
              "position": 3.6666666666666665,
              "duration": 0.10416666666666667
            },
            {
              "pitch": 24,
              "velocity": 74,
              "position": 4,
              "duration": 0.6208333333333333
            },
            {
              "pitch": 24,
              "velocity": 60,
              "position": 4.666666666666667,
              "duration": 0.1625
            },
            {
              "pitch": 28,
              "velocity": 74,
              "position": 5,
              "duration": 0.9541666666666667
            },
            {
              "pitch": 31,
              "velocity": 74,
              "position": 6,
              "duration": 0.6208333333333333
            },
            {
              "pitch": 31,
              "velocity": 60,
              "position": 6.666666666666667,
              "duration": 0.1625
            },
            {
              "pitch": 36,
              "velocity": 74,
              "position": 7,
              "duration": 0.6208333333333333
            },
            {
              "pitch": 31,
              "velocity": 60,
              "position": 7.666666666666667,
              "duration": 0.1625
            }
          ]
        },
        "2": {
          "ctab": {
            "srcChannel": 2,
            "name": "Gt Root",
            "accType": "CHORD1",
            "editable": false,
            "mutedNotes": [],
            "mutedChords": [
              "1+2+5",
              "sus4",
              "1+5",
              "1+8",
              "Maj7aug",
              "7th",
              "dim",
              "minMaj7(9)",
              "minMaj7",
              "min6",
              "min",
              "aug",
              "Maj7(9)",
              "Maj7#11",
              "Maj7",
              "Maj6",
              "Maj"
            ],
            "autoStart": false,
            "sourceChordNote": 0,
            "sourceChordType": "Maj7",
            "ctb2Low": null,
            "ctb2Main": {
              "ntr": "ROOT_TRANSPOSITION",
              "ntt": "CHORD",
              "bassOn": false,
              "chordRootUpperLimit": 9,
              "noteLowLimit": 58,
              "noteHighLimit": 69,
              "rtr": "PITCH_SHIFT"
            },
            "ctb2High": null
          },
          "notes": [
            {
              "pitch": 60,
              "velocity": 98,
              "position": 0.3333333333333333,
              "duration": 0.027083333333333334
            },
            {
              "pitch": 60,
              "velocity": 80,
              "position": 0.6666666666666666,
              "duration": 0.027083333333333334
            },
            {
              "pitch": 60,
              "velocity": 116,
              "position": 1,
              "duration": 0.6416666666666667
            },
            {
              "pitch": 60,
              "velocity": 64,
              "position": 1.6666666666666667,
              "duration": 0.30833333333333335
            },
            {
              "pitch": 60,
              "velocity": 36,
              "position": 2,
              "duration": 0.6416666666666667
            },
            {
              "pitch": 60,
              "velocity": 116,
              "position": 2.6666666666666665,
              "duration": 0.12083333333333333
            },
            {
              "pitch": 60,
              "velocity": 98,
              "position": 4.333333333333333,
              "duration": 0.027083333333333334
            },
            {
              "pitch": 60,
              "velocity": 80,
              "position": 4.666666666666667,
              "duration": 0.027083333333333334
            },
            {
              "pitch": 60,
              "velocity": 116,
              "position": 5,
              "duration": 0.6416666666666667
            },
            {
              "pitch": 60,
              "velocity": 64,
              "position": 5.666666666666667,
              "duration": 0.30833333333333335
            },
            {
              "pitch": 60,
              "velocity": 36,
              "position": 6,
              "duration": 0.6416666666666667
            },
            {
              "pitch": 60,
              "velocity": 116,
              "position": 6.666666666666667,
              "duration": 0.12083333333333333
            }
          ]
        },
        "3": {
          "ctab": {
            "srcChannel": 3,
            "name": "Pno 2",
            "accType": "CHORD2",
            "editable": false,
            "mutedNotes": [],
            "mutedChords": [
              "1+2+5",
              "sus4",
              "1+5",
              "1+8",
              "7aug",
              "Maj7aug",
              "7(#9)",
              "7(b13)",
              "7(b9)",
              "7(13)",
              "7#11",
              "7(9)",
              "7b5",
              "7sus4",
              "7th",
              "dim7",
              "dim",
              "minMaj7(9)",
              "minMaj7",
              "min7(11)",
              "min7(9)",
              "min(9)",
              "m7b5",
              "min6",
              "aug",
              "Maj6(9)",
              "Maj7(9)",
              "Maj(9)",
              "Maj7#11",
              "Maj7",
              "Maj6"
            ],
            "autoStart": false,
            "sourceChordNote": 0,
            "sourceChordType": "Maj7",
            "ctb2Low": null,
            "ctb2Main": {
              "ntr": "ROOT_TRANSPOSITION",
              "ntt": "MELODIC_MINOR",
              "bassOn": false,
              "chordRootUpperLimit": 6,
              "noteLowLimit": 54,
              "noteHighLimit": 79,
              "rtr": "PITCH_SHIFT"
            },
            "ctb2High": null
          },
          "notes": [
            {
              "pitch": 43,
              "velocity": 116,
              "position": 0,
              "duration": 0.9854166666666667
            },
            {
              "pitch": 48,
              "velocity": 116,
              "position": 0,
              "duration": 0.9854166666666667
            },
            {
              "pitch": 52,
              "velocity": 116,
              "position": 0,
              "duration": 0.9854166666666667
            },
            {
              "pitch": 43,
              "velocity": 116,
              "position": 1,
              "duration": 0.9854166666666667
            },
            {
              "pitch": 48,
              "velocity": 116,
              "position": 1,
              "duration": 0.9854166666666667
            },
            {
              "pitch": 52,
              "velocity": 116,
              "position": 1,
              "duration": 0.9854166666666667
            },
            {
              "pitch": 43,
              "velocity": 116,
              "position": 2,
              "duration": 0.6520833333333333
            },
            {
              "pitch": 48,
              "velocity": 116,
              "position": 2,
              "duration": 0.6520833333333333
            },
            {
              "pitch": 52,
              "velocity": 116,
              "position": 2,
              "duration": 0.6520833333333333
            },
            {
              "pitch": 45,
              "velocity": 107,
              "position": 2.6666666666666665,
              "duration": 0.31875
            },
            {
              "pitch": 48,
              "velocity": 107,
              "position": 2.6666666666666665,
              "duration": 0.31875
            },
            {
              "pitch": 53,
              "velocity": 107,
              "position": 2.6666666666666665,
              "duration": 0.31875
            },
            {
              "pitch": 43,
              "velocity": 116,
              "position": 3,
              "duration": 0.9854166666666667
            },
            {
              "pitch": 48,
              "velocity": 116,
              "position": 3,
              "duration": 0.9854166666666667
            },
            {
              "pitch": 52,
              "velocity": 116,
              "position": 3,
              "duration": 0.9854166666666667
            },
            {
              "pitch": 45,
              "velocity": 116,
              "position": 4,
              "duration": 0.9854166666666667
            },
            {
              "pitch": 48,
              "velocity": 116,
              "position": 4,
              "duration": 0.9854166666666667
            },
            {
              "pitch": 53,
              "velocity": 116,
              "position": 4,
              "duration": 0.9854166666666667
            },
            {
              "pitch": 43,
              "velocity": 116,
              "position": 5,
              "duration": 0.9854166666666667
            },
            {
              "pitch": 48,
              "velocity": 116,
              "position": 5,
              "duration": 0.9854166666666667
            },
            {
              "pitch": 52,
              "velocity": 116,
              "position": 5,
              "duration": 0.9854166666666667
            },
            {
              "pitch": 46,
              "velocity": 116,
              "position": 6,
              "duration": 0.9854166666666667
            },
            {
              "pitch": 50,
              "velocity": 116,
              "position": 6,
              "duration": 0.9854166666666667
            },
            {
              "pitch": 53,
              "velocity": 116,
              "position": 6,
              "duration": 0.9854166666666667
            },
            {
              "pitch": 45,
              "velocity": 116,
              "position": 7,
              "duration": 0.9854166666666667
            },
            {
              "pitch": 48,
              "velocity": 116,
              "position": 7,
              "duration": 0.9854166666666667
            },
            {
              "pitch": 53,
              "velocity": 116,
              "position": 7,
              "duration": 0.9854166666666667
            }
          ]
        },
        "5": {
          "ctab": {
            "srcChannel": 5,
            "name": "Org 2",
            "accType": "PAD",
            "editable": false,
            "mutedNotes": [],
            "mutedChords": [
              "1+2+5",
              "sus4",
              "1+5",
              "1+8",
              "7aug",
              "Maj7aug",
              "7(#9)",
              "7(b13)",
              "7(b9)",
              "7(13)",
              "7#11",
              "7(9)",
              "7b5",
              "7sus4",
              "7th",
              "dim7",
              "dim",
              "minMaj7(9)",
              "minMaj7",
              "min7(11)",
              "min7(9)",
              "min(9)",
              "m7b5",
              "min6",
              "aug",
              "Maj6(9)",
              "Maj7(9)",
              "Maj(9)",
              "Maj7#11",
              "Maj7",
              "Maj6"
            ],
            "autoStart": false,
            "sourceChordNote": 0,
            "sourceChordType": "Maj7",
            "ctb2Low": null,
            "ctb2Main": {
              "ntr": "ROOT_TRANSPOSITION",
              "ntt": "MELODIC_MINOR",
              "bassOn": false,
              "chordRootUpperLimit": 6,
              "noteLowLimit": 57,
              "noteHighLimit": 79,
              "rtr": "PITCH_SHIFT"
            },
            "ctb2High": null
          },
          "notes": [
            {
              "pitch": 55,
              "velocity": 108,
              "position": 0.010416666666666666,
              "duration": 3.975
            },
            {
              "pitch": 64,
              "velocity": 108,
              "position": 0.010416666666666666,
              "duration": 3.975
            },
            {
              "pitch": 57,
              "velocity": 108,
              "position": 4.010416666666667,
              "duration": 0.975
            },
            {
              "pitch": 65,
              "velocity": 108,
              "position": 4.010416666666667,
              "duration": 0.975
            },
            {
              "pitch": 55,
              "velocity": 108,
              "position": 5.010416666666667,
              "duration": 0.975
            },
            {
              "pitch": 60,
              "velocity": 108,
              "position": 0.010416666666666666,
              "duration": 5.975
            },
            {
              "pitch": 64,
              "velocity": 108,
              "position": 5.010416666666667,
              "duration": 0.975
            },
            {
              "pitch": 58,
              "velocity": 108,
              "position": 6.010416666666667,
              "duration": 0.975
            },
            {
              "pitch": 62,
              "velocity": 108,
              "position": 6.010416666666667,
              "duration": 0.975
            },
            {
              "pitch": 57,
              "velocity": 108,
              "position": 7.010416666666667,
              "duration": 0.975
            },
            {
              "pitch": 60,
              "velocity": 108,
              "position": 7.010416666666667,
              "duration": 0.975
            },
            {
              "pitch": 65,
              "velocity": 108,
              "position": 6.010416666666667,
              "duration": 1.975
            }
          ]
        },
        "6": {
          "ctab": {
            "srcChannel": 6,
            "name": "Choir 2",
            "accType": "PHRASE1",
            "editable": false,
            "mutedNotes": [],
            "mutedChords": [
              "1+2+5",
              "sus4",
              "1+5",
              "1+8",
              "7aug",
              "Maj7aug",
              "7(#9)",
              "7(b13)",
              "7(b9)",
              "7(13)",
              "7#11",
              "7(9)",
              "7b5",
              "7sus4",
              "7th",
              "dim7",
              "dim",
              "minMaj7(9)",
              "minMaj7",
              "min7(11)",
              "min7(9)",
              "min(9)",
              "m7b5",
              "min6",
              "aug",
              "Maj6(9)",
              "Maj7(9)",
              "Maj(9)",
              "Maj7#11",
              "Maj7",
              "Maj6"
            ],
            "autoStart": false,
            "sourceChordNote": 0,
            "sourceChordType": "Maj7",
            "ctb2Low": null,
            "ctb2Main": {
              "ntr": "ROOT_TRANSPOSITION",
              "ntt": "MELODIC_MINOR",
              "bassOn": false,
              "chordRootUpperLimit": 6,
              "noteLowLimit": 57,
              "noteHighLimit": 79,
              "rtr": "PITCH_SHIFT"
            },
            "ctb2High": null
          },
          "notes": [
            {
              "pitch": 79,
              "velocity": 50,
              "position": 0.9895833333333334,
              "duration": 0.9854166666666667
            },
            {
              "pitch": 84,
              "velocity": 50,
              "position": 0.9895833333333334,
              "duration": 0.9854166666666667
            },
            {
              "pitch": 88,
              "velocity": 50,
              "position": 0.9895833333333334,
              "duration": 0.9854166666666667
            },
            {
              "pitch": 48,
              "velocity": 50,
              "position": 0.010416666666666666,
              "duration": 5.975
            },
            {
              "pitch": 52,
              "velocity": 50,
              "position": 0.010416666666666666,
              "duration": 5.975
            },
            {
              "pitch": 55,
              "velocity": 50,
              "position": 0.010416666666666666,
              "duration": 5.975
            },
            {
              "pitch": 46,
              "velocity": 50,
              "position": 6,
              "duration": 0.975
            },
            {
              "pitch": 50,
              "velocity": 50,
              "position": 6,
              "duration": 0.975
            },
            {
              "pitch": 45,
              "velocity": 50,
              "position": 7,
              "duration": 0.975
            },
            {
              "pitch": 53,
              "velocity": 50,
              "position": 6,
              "duration": 1.975
            },
            {
              "pitch": 48,
              "velocity": 50,
              "position": 7,
              "duration": 0.9958333333333333
            }
          ]
        },
        "7": {
          "ctab": {
            "srcChannel": 7,
            "name": "CC_Crash",
            "accType": "RHYTHM",
            "editable": false,
            "mutedNotes": [],
            "mutedChords": [
              "1+2+5",
              "sus4",
              "1+5",
              "1+8",
              "7aug",
              "Maj7aug",
              "7(#9)",
              "7(b13)",
              "7(b9)",
              "7(13)",
              "7#11",
              "7(9)",
              "7b5",
              "7sus4",
              "7th",
              "dim7",
              "dim",
              "minMaj7(9)",
              "minMaj7",
              "min7(11)",
              "min7(9)",
              "min(9)",
              "m7b5",
              "min7",
              "min6",
              "min",
              "aug",
              "Maj6(9)",
              "Maj7(9)",
              "Maj(9)",
              "Maj7#11",
              "Maj7",
              "Maj6",
              "Maj"
            ],
            "autoStart": true,
            "sourceChordNote": 0,
            "sourceChordType": "Maj",
            "ctb2Low": null,
            "ctb2Main": {
              "ntr": "ROOT_FIXED",
              "ntt": "BYPASS",
              "bassOn": false,
              "chordRootUpperLimit": 0,
              "noteLowLimit": 0,
              "noteHighLimit": 127,
              "rtr": "RETRIGGER"
            },
            "ctb2High": null
          },
          "notes": []
        },
        "8": {
          "ctab": {
            "srcChannel": 8,
            "name": "Perc",
            "accType": "SUBRHYTHM",
            "editable": false,
            "mutedNotes": [],
            "mutedChords": [],
            "autoStart": true,
            "sourceChordNote": 0,
            "sourceChordType": "Maj7",
            "ctb2Low": null,
            "ctb2Main": {
              "ntr": "ROOT_FIXED",
              "ntt": "BYPASS",
              "bassOn": false,
              "chordRootUpperLimit": 6,
              "noteLowLimit": 0,
              "noteHighLimit": 127,
              "rtr": "PITCH_SHIFT"
            },
            "ctb2High": null
          },
          "notes": [
            {
              "pitch": 39,
              "velocity": 69,
              "position": 1.0416666666666667,
              "duration": 0.00625
            },
            {
              "pitch": 39,
              "velocity": 77,
              "position": 3.0208333333333335,
              "duration": 0.00625
            },
            {
              "pitch": 39,
              "velocity": 66,
              "position": 5.041666666666667,
              "duration": 0.00625
            },
            {
              "pitch": 39,
              "velocity": 65,
              "position": 6.947916666666667,
              "duration": 0.00625
            }
          ]
        },
        "9": {
          "ctab": {
            "srcChannel": 9,
            "name": "Drums",
            "accType": "RHYTHM",
            "editable": false,
            "mutedNotes": [],
            "mutedChords": [],
            "autoStart": true,
            "sourceChordNote": 0,
            "sourceChordType": "Maj7",
            "ctb2Low": null,
            "ctb2Main": {
              "ntr": "ROOT_FIXED",
              "ntt": "BYPASS",
              "bassOn": false,
              "chordRootUpperLimit": 6,
              "noteLowLimit": 0,
              "noteHighLimit": 127,
              "rtr": "PITCH_SHIFT"
            },
            "ctb2High": null
          },
          "notes": [
            {
              "pitch": 35,
              "velocity": 90,
              "position": 0,
              "duration": 0.00625
            },
            {
              "pitch": 42,
              "velocity": 78,
              "position": 0,
              "duration": 0.00625
            },
            {
              "pitch": 54,
              "velocity": 71,
              "position": 0,
              "duration": 0.00625
            },
            {
              "pitch": 38,
              "velocity": 15,
              "position": 0.3333333333333333,
              "duration": 0.00625
            },
            {
              "pitch": 54,
              "velocity": 16,
              "position": 0.3333333333333333,
              "duration": 0.00625
            },
            {
              "pitch": 35,
              "velocity": 40,
              "position": 0.6666666666666666,
              "duration": 0.00625
            },
            {
              "pitch": 46,
              "velocity": 37,
              "position": 0.6666666666666666,
              "duration": 0.00625
            },
            {
              "pitch": 54,
              "velocity": 40,
              "position": 0.6666666666666666,
              "duration": 0.00625
            },
            {
              "pitch": 39,
              "velocity": 80,
              "position": 0.9895833333333334,
              "duration": 0.00625
            },
            {
              "pitch": 38,
              "velocity": 100,
              "position": 1,
              "duration": 0.00625
            },
            {
              "pitch": 54,
              "velocity": 71,
              "position": 1,
              "duration": 0.00625
            },
            {
              "pitch": 42,
              "velocity": 20,
              "position": 1.3333333333333333,
              "duration": 0.00625
            },
            {
              "pitch": 54,
              "velocity": 16,
              "position": 1.3333333333333333,
              "duration": 0.00625
            },
            {
              "pitch": 35,
              "velocity": 40,
              "position": 1.6666666666666667,
              "duration": 0.00625
            },
            {
              "pitch": 42,
              "velocity": 20,
              "position": 1.6666666666666667,
              "duration": 0.00625
            },
            {
              "pitch": 44,
              "velocity": 24,
              "position": 1.6666666666666667,
              "duration": 0.00625
            },
            {
              "pitch": 54,
              "velocity": 40,
              "position": 1.6666666666666667,
              "duration": 0.00625
            },
            {
              "pitch": 35,
              "velocity": 90,
              "position": 2,
              "duration": 0.00625
            },
            {
              "pitch": 42,
              "velocity": 78,
              "position": 2,
              "duration": 0.00625
            },
            {
              "pitch": 54,
              "velocity": 71,
              "position": 2,
              "duration": 0.00625
            },
            {
              "pitch": 38,
              "velocity": 15,
              "position": 2.3333333333333335,
              "duration": 0.00625
            },
            {
              "pitch": 54,
              "velocity": 16,
              "position": 2.3333333333333335,
              "duration": 0.00625
            },
            {
              "pitch": 35,
              "velocity": 40,
              "position": 2.6666666666666665,
              "duration": 0.00625
            },
            {
              "pitch": 42,
              "velocity": 20,
              "position": 2.6666666666666665,
              "duration": 0.00625
            },
            {
              "pitch": 54,
              "velocity": 40,
              "position": 2.6666666666666665,
              "duration": 0.00625
            },
            {
              "pitch": 39,
              "velocity": 80,
              "position": 2.9791666666666665,
              "duration": 0.00625
            },
            {
              "pitch": 38,
              "velocity": 100,
              "position": 3,
              "duration": 0.00625
            },
            {
              "pitch": 54,
              "velocity": 71,
              "position": 3,
              "duration": 0.00625
            },
            {
              "pitch": 42,
              "velocity": 20,
              "position": 3.3333333333333335,
              "duration": 0.00625
            },
            {
              "pitch": 54,
              "velocity": 16,
              "position": 3.3333333333333335,
              "duration": 0.00625
            },
            {
              "pitch": 35,
              "velocity": 40,
              "position": 3.6666666666666665,
              "duration": 0.00625
            },
            {
              "pitch": 54,
              "velocity": 40,
              "position": 3.6666666666666665,
              "duration": 0.00625
            },
            {
              "pitch": 35,
              "velocity": 90,
              "position": 4,
              "duration": 0.00625
            },
            {
              "pitch": 42,
              "velocity": 78,
              "position": 4,
              "duration": 0.00625
            },
            {
              "pitch": 54,
              "velocity": 71,
              "position": 4,
              "duration": 0.00625
            },
            {
              "pitch": 38,
              "velocity": 15,
              "position": 4.333333333333333,
              "duration": 0.00625
            },
            {
              "pitch": 54,
              "velocity": 16,
              "position": 4.333333333333333,
              "duration": 0.00625
            },
            {
              "pitch": 35,
              "velocity": 40,
              "position": 4.666666666666667,
              "duration": 0.00625
            },
            {
              "pitch": 46,
              "velocity": 37,
              "position": 4.666666666666667,
              "duration": 0.00625
            },
            {
              "pitch": 54,
              "velocity": 40,
              "position": 4.666666666666667,
              "duration": 0.00625
            },
            {
              "pitch": 38,
              "velocity": 100,
              "position": 5,
              "duration": 0.00625
            },
            {
              "pitch": 54,
              "velocity": 71,
              "position": 5,
              "duration": 0.00625
            },
            {
              "pitch": 39,
              "velocity": 80,
              "position": 5.03125,
              "duration": 0.00625
            },
            {
              "pitch": 42,
              "velocity": 20,
              "position": 5.333333333333333,
              "duration": 0.00625
            },
            {
              "pitch": 54,
              "velocity": 16,
              "position": 5.333333333333333,
              "duration": 0.00625
            },
            {
              "pitch": 35,
              "velocity": 40,
              "position": 5.666666666666667,
              "duration": 0.00625
            },
            {
              "pitch": 42,
              "velocity": 20,
              "position": 5.666666666666667,
              "duration": 0.00625
            },
            {
              "pitch": 44,
              "velocity": 24,
              "position": 5.666666666666667,
              "duration": 0.00625
            },
            {
              "pitch": 54,
              "velocity": 40,
              "position": 5.666666666666667,
              "duration": 0.00625
            },
            {
              "pitch": 35,
              "velocity": 90,
              "position": 6,
              "duration": 0.00625
            },
            {
              "pitch": 42,
              "velocity": 78,
              "position": 6,
              "duration": 0.00625
            },
            {
              "pitch": 54,
              "velocity": 71,
              "position": 6,
              "duration": 0.00625
            },
            {
              "pitch": 38,
              "velocity": 15,
              "position": 6.333333333333333,
              "duration": 0.00625
            },
            {
              "pitch": 54,
              "velocity": 16,
              "position": 6.333333333333333,
              "duration": 0.00625
            },
            {
              "pitch": 35,
              "velocity": 40,
              "position": 6.666666666666667,
              "duration": 0.00625
            },
            {
              "pitch": 42,
              "velocity": 20,
              "position": 6.666666666666667,
              "duration": 0.00625
            },
            {
              "pitch": 54,
              "velocity": 40,
              "position": 6.666666666666667,
              "duration": 0.00625
            },
            {
              "pitch": 39,
              "velocity": 80,
              "position": 6.958333333333333,
              "duration": 0.00625
            },
            {
              "pitch": 38,
              "velocity": 100,
              "position": 7,
              "duration": 0.00625
            },
            {
              "pitch": 54,
              "velocity": 71,
              "position": 7,
              "duration": 0.00625
            },
            {
              "pitch": 42,
              "velocity": 20,
              "position": 7.333333333333333,
              "duration": 0.00625
            },
            {
              "pitch": 54,
              "velocity": 16,
              "position": 7.333333333333333,
              "duration": 0.00625
            },
            {
              "pitch": 35,
              "velocity": 40,
              "position": 7.666666666666667,
              "duration": 0.00625
            },
            {
              "pitch": 54,
              "velocity": 40,
              "position": 7.666666666666667,
              "duration": 0.00625
            }
          ]
        },
        "10": {
          "ctab": {
            "srcChannel": 10,
            "name": "Bass",
            "accType": "BASS",
            "editable": false,
            "mutedNotes": [],
            "mutedChords": [
              "1+2+5",
              "sus4",
              "1+5",
              "1+8",
              "7aug",
              "Maj7aug",
              "7(#9)",
              "7(b13)",
              "7(b9)",
              "7#11",
              "7b5",
              "7sus4",
              "dim",
              "minMaj7(9)",
              "minMaj7",
              "m7b5",
              "min",
              "aug",
              "Maj7#11"
            ],
            "autoStart": false,
            "sourceChordNote": 0,
            "sourceChordType": "Maj7",
            "ctb2Low": null,
            "ctb2Main": {
              "ntr": "ROOT_TRANSPOSITION",
              "ntt": "MELODY",
              "bassOn": true,
              "chordRootUpperLimit": 8,
              "noteLowLimit": 28,
              "noteHighLimit": 51,
              "rtr": "PITCH_SHIFT_TO_ROOT"
            },
            "ctb2High": null
          },
          "notes": [
            {
              "pitch": 24,
              "velocity": 74,
              "position": 0,
              "duration": 0.6208333333333333
            },
            {
              "pitch": 24,
              "velocity": 60,
              "position": 0.6666666666666666,
              "duration": 0.1625
            },
            {
              "pitch": 28,
              "velocity": 106,
              "position": 1.3333333333333333,
              "duration": 0.12083333333333333
            },
            {
              "pitch": 33,
              "velocity": 60,
              "position": 1.6666666666666667,
              "duration": 0.21458333333333332
            },
            {
              "pitch": 31,
              "velocity": 74,
              "position": 2,
              "duration": 0.6208333333333333
            },
            {
              "pitch": 31,
              "velocity": 58,
              "position": 2.6666666666666665,
              "duration": 0.31875
            },
            {
              "pitch": 33,
              "velocity": 70,
              "position": 3,
              "duration": 0.31875
            },
            {
              "pitch": 31,
              "velocity": 58,
              "position": 3.3333333333333335,
              "duration": 0.12083333333333333
            },
            {
              "pitch": 28,
              "velocity": 106,
              "position": 3.6666666666666665,
              "duration": 0.10416666666666667
            },
            {
              "pitch": 24,
              "velocity": 74,
              "position": 4,
              "duration": 0.6208333333333333
            },
            {
              "pitch": 24,
              "velocity": 60,
              "position": 4.666666666666667,
              "duration": 0.1625
            },
            {
              "pitch": 28,
              "velocity": 74,
              "position": 5,
              "duration": 0.9541666666666667
            },
            {
              "pitch": 31,
              "velocity": 74,
              "position": 6,
              "duration": 0.6208333333333333
            },
            {
              "pitch": 31,
              "velocity": 60,
              "position": 6.666666666666667,
              "duration": 0.1625
            },
            {
              "pitch": 33,
              "velocity": 74,
              "position": 7,
              "duration": 0.6208333333333333
            },
            {
              "pitch": 28,
              "velocity": 60,
              "position": 7.666666666666667,
              "duration": 0.1625
            }
          ]
        },
        "11": {
          "ctab": {
            "srcChannel": 11,
            "name": "Gtr",
            "accType": "CHORD1",
            "editable": false,
            "mutedNotes": [],
            "mutedChords": [],
            "autoStart": false,
            "sourceChordNote": 0,
            "sourceChordType": "Maj7",
            "ctb2Low": null,
            "ctb2Main": {
              "ntr": "ROOT_TRANSPOSITION",
              "ntt": "CHORD",
              "bassOn": false,
              "chordRootUpperLimit": 7,
              "noteLowLimit": 58,
              "noteHighLimit": 69,
              "rtr": "PITCH_SHIFT"
            },
            "ctb2High": null
          },
          "notes": [
            {
              "pitch": 59,
              "velocity": 98,
              "position": 0.3333333333333333,
              "duration": 0.027083333333333334
            },
            {
              "pitch": 64,
              "velocity": 98,
              "position": 0.34375,
              "duration": 0.027083333333333334
            },
            {
              "pitch": 67,
              "velocity": 98,
              "position": 0.3541666666666667,
              "duration": 0.027083333333333334
            },
            {
              "pitch": 59,
              "velocity": 80,
              "position": 0.6666666666666666,
              "duration": 0.027083333333333334
            },
            {
              "pitch": 64,
              "velocity": 80,
              "position": 0.6770833333333334,
              "duration": 0.027083333333333334
            },
            {
              "pitch": 59,
              "velocity": 116,
              "position": 1,
              "duration": 0.6520833333333333
            },
            {
              "pitch": 64,
              "velocity": 116,
              "position": 1.0104166666666667,
              "duration": 0.6416666666666667
            },
            {
              "pitch": 67,
              "velocity": 116,
              "position": 1.0208333333333333,
              "duration": 0.63125
            },
            {
              "pitch": 59,
              "velocity": 64,
              "position": 1.6666666666666667,
              "duration": 0.31875
            },
            {
              "pitch": 64,
              "velocity": 64,
              "position": 1.6770833333333333,
              "duration": 0.30833333333333335
            },
            {
              "pitch": 67,
              "velocity": 64,
              "position": 1.6875,
              "duration": 0.29791666666666666
            },
            {
              "pitch": 59,
              "velocity": 36,
              "position": 2,
              "duration": 0.6520833333333333
            },
            {
              "pitch": 64,
              "velocity": 36,
              "position": 2.0104166666666665,
              "duration": 0.6416666666666667
            },
            {
              "pitch": 67,
              "velocity": 36,
              "position": 2.0208333333333335,
              "duration": 0.63125
            },
            {
              "pitch": 59,
              "velocity": 116,
              "position": 2.6666666666666665,
              "duration": 0.12083333333333333
            },
            {
              "pitch": 64,
              "velocity": 116,
              "position": 2.6770833333333335,
              "duration": 0.12083333333333333
            },
            {
              "pitch": 67,
              "velocity": 116,
              "position": 2.6875,
              "duration": 0.12083333333333333
            },
            {
              "pitch": 59,
              "velocity": 98,
              "position": 4.333333333333333,
              "duration": 0.027083333333333334
            },
            {
              "pitch": 64,
              "velocity": 98,
              "position": 4.34375,
              "duration": 0.027083333333333334
            },
            {
              "pitch": 67,
              "velocity": 98,
              "position": 4.354166666666667,
              "duration": 0.027083333333333334
            },
            {
              "pitch": 59,
              "velocity": 80,
              "position": 4.666666666666667,
              "duration": 0.027083333333333334
            },
            {
              "pitch": 64,
              "velocity": 80,
              "position": 4.677083333333333,
              "duration": 0.027083333333333334
            },
            {
              "pitch": 59,
              "velocity": 116,
              "position": 5,
              "duration": 0.6520833333333333
            },
            {
              "pitch": 64,
              "velocity": 116,
              "position": 5.010416666666667,
              "duration": 0.6416666666666667
            },
            {
              "pitch": 67,
              "velocity": 116,
              "position": 5.020833333333333,
              "duration": 0.63125
            },
            {
              "pitch": 59,
              "velocity": 64,
              "position": 5.666666666666667,
              "duration": 0.31875
            },
            {
              "pitch": 64,
              "velocity": 64,
              "position": 5.677083333333333,
              "duration": 0.30833333333333335
            },
            {
              "pitch": 67,
              "velocity": 64,
              "position": 5.6875,
              "duration": 0.29791666666666666
            },
            {
              "pitch": 59,
              "velocity": 36,
              "position": 6,
              "duration": 0.6520833333333333
            },
            {
              "pitch": 64,
              "velocity": 36,
              "position": 6.010416666666667,
              "duration": 0.6416666666666667
            },
            {
              "pitch": 67,
              "velocity": 36,
              "position": 6.020833333333333,
              "duration": 0.63125
            },
            {
              "pitch": 59,
              "velocity": 116,
              "position": 6.666666666666667,
              "duration": 0.12083333333333333
            },
            {
              "pitch": 64,
              "velocity": 116,
              "position": 6.677083333333333,
              "duration": 0.12083333333333333
            },
            {
              "pitch": 67,
              "velocity": 116,
              "position": 6.6875,
              "duration": 0.12083333333333333
            }
          ]
        },
        "12": {
          "ctab": {
            "srcChannel": 12,
            "name": "Pno RH",
            "accType": "CHORD2",
            "editable": false,
            "mutedNotes": [],
            "mutedChords": [
              "min7",
              "min",
              "Maj"
            ],
            "autoStart": false,
            "sourceChordNote": 0,
            "sourceChordType": "Maj7",
            "ctb2Low": null,
            "ctb2Main": {
              "ntr": "ROOT_FIXED",
              "ntt": "CHORD",
              "bassOn": false,
              "chordRootUpperLimit": 7,
              "noteLowLimit": 0,
              "noteHighLimit": 79,
              "rtr": "PITCH_SHIFT"
            },
            "ctb2High": null
          },
          "notes": [
            {
              "pitch": 55,
              "velocity": 112,
              "position": 0,
              "duration": 0.9854166666666667
            },
            {
              "pitch": 59,
              "velocity": 112,
              "position": 0,
              "duration": 0.9854166666666667
            },
            {
              "pitch": 64,
              "velocity": 112,
              "position": 0,
              "duration": 0.9854166666666667
            },
            {
              "pitch": 55,
              "velocity": 112,
              "position": 1,
              "duration": 0.9854166666666667
            },
            {
              "pitch": 59,
              "velocity": 112,
              "position": 1,
              "duration": 0.9854166666666667
            },
            {
              "pitch": 64,
              "velocity": 112,
              "position": 1,
              "duration": 0.9854166666666667
            },
            {
              "pitch": 55,
              "velocity": 112,
              "position": 2,
              "duration": 0.6520833333333333
            },
            {
              "pitch": 59,
              "velocity": 112,
              "position": 2,
              "duration": 0.6520833333333333
            },
            {
              "pitch": 64,
              "velocity": 112,
              "position": 2,
              "duration": 0.6520833333333333
            },
            {
              "pitch": 55,
              "velocity": 103,
              "position": 2.6666666666666665,
              "duration": 0.31875
            },
            {
              "pitch": 59,
              "velocity": 103,
              "position": 2.6666666666666665,
              "duration": 0.31875
            },
            {
              "pitch": 64,
              "velocity": 103,
              "position": 2.6666666666666665,
              "duration": 0.31875
            },
            {
              "pitch": 55,
              "velocity": 112,
              "position": 3,
              "duration": 0.9854166666666667
            },
            {
              "pitch": 59,
              "velocity": 112,
              "position": 3,
              "duration": 0.9854166666666667
            },
            {
              "pitch": 64,
              "velocity": 112,
              "position": 3,
              "duration": 0.9854166666666667
            },
            {
              "pitch": 55,
              "velocity": 112,
              "position": 4,
              "duration": 0.9854166666666667
            },
            {
              "pitch": 59,
              "velocity": 112,
              "position": 4,
              "duration": 0.9854166666666667
            },
            {
              "pitch": 64,
              "velocity": 112,
              "position": 4,
              "duration": 0.9854166666666667
            },
            {
              "pitch": 55,
              "velocity": 112,
              "position": 5,
              "duration": 0.9854166666666667
            },
            {
              "pitch": 59,
              "velocity": 112,
              "position": 5,
              "duration": 0.9854166666666667
            },
            {
              "pitch": 64,
              "velocity": 112,
              "position": 5,
              "duration": 0.9854166666666667
            },
            {
              "pitch": 55,
              "velocity": 112,
              "position": 6,
              "duration": 0.9854166666666667
            },
            {
              "pitch": 59,
              "velocity": 112,
              "position": 6,
              "duration": 0.9854166666666667
            },
            {
              "pitch": 64,
              "velocity": 112,
              "position": 6,
              "duration": 0.9854166666666667
            },
            {
              "pitch": 55,
              "velocity": 112,
              "position": 7,
              "duration": 0.9854166666666667
            },
            {
              "pitch": 59,
              "velocity": 112,
              "position": 7,
              "duration": 0.9854166666666667
            },
            {
              "pitch": 64,
              "velocity": 112,
              "position": 7,
              "duration": 0.9854166666666667
            }
          ]
        },
        "13": {
          "ctab": {
            "srcChannel": 13,
            "name": "Pno LH",
            "accType": "CHORD2",
            "editable": false,
            "mutedNotes": [],
            "mutedChords": [],
            "autoStart": false,
            "sourceChordNote": 0,
            "sourceChordType": "Maj7",
            "ctb2Low": null,
            "ctb2Main": {
              "ntr": "ROOT_TRANSPOSITION",
              "ntt": "MELODY",
              "bassOn": true,
              "chordRootUpperLimit": 5,
              "noteLowLimit": 0,
              "noteHighLimit": 127,
              "rtr": "PITCH_SHIFT"
            },
            "ctb2High": null
          },
          "notes": [
            {
              "pitch": 36,
              "velocity": 112,
              "position": 0,
              "duration": 1.31875
            },
            {
              "pitch": 48,
              "velocity": 112,
              "position": 0,
              "duration": 1.6520833333333333
            },
            {
              "pitch": 36,
              "velocity": 77,
              "position": 1.3333333333333333,
              "duration": 0.6520833333333333
            },
            {
              "pitch": 36,
              "velocity": 112,
              "position": 2,
              "duration": 1.31875
            },
            {
              "pitch": 48,
              "velocity": 94,
              "position": 1.6666666666666667,
              "duration": 1.9854166666666666
            },
            {
              "pitch": 36,
              "velocity": 77,
              "position": 3.3333333333333335,
              "duration": 0.6520833333333333
            },
            {
              "pitch": 36,
              "velocity": 112,
              "position": 4,
              "duration": 1.31875
            },
            {
              "pitch": 48,
              "velocity": 94,
              "position": 3.6666666666666665,
              "duration": 1.9854166666666666
            },
            {
              "pitch": 36,
              "velocity": 77,
              "position": 5.333333333333333,
              "duration": 0.9854166666666667
            },
            {
              "pitch": 48,
              "velocity": 94,
              "position": 5.666666666666667,
              "duration": 0.9854166666666667
            },
            {
              "pitch": 36,
              "velocity": 77,
              "position": 6.333333333333333,
              "duration": 0.9854166666666667
            },
            {
              "pitch": 48,
              "velocity": 94,
              "position": 6.666666666666667,
              "duration": 0.9854166666666667
            },
            {
              "pitch": 36,
              "velocity": 77,
              "position": 7.333333333333333,
              "duration": 0.6520833333333333
            },
            {
              "pitch": 48,
              "velocity": 94,
              "position": 7.666666666666667,
              "duration": 0.32916666666666666
            }
          ]
        },
        "14": {
          "ctab": {
            "srcChannel": 14,
            "name": "Organ",
            "accType": "PAD",
            "editable": false,
            "mutedNotes": [],
            "mutedChords": [
              "min7",
              "min",
              "Maj"
            ],
            "autoStart": false,
            "sourceChordNote": 0,
            "sourceChordType": "Maj7",
            "ctb2Low": null,
            "ctb2Main": {
              "ntr": "ROOT_FIXED",
              "ntt": "CHORD",
              "bassOn": false,
              "chordRootUpperLimit": 7,
              "noteLowLimit": 0,
              "noteHighLimit": 79,
              "rtr": "PITCH_SHIFT"
            },
            "ctb2High": null
          },
          "notes": [
            {
              "pitch": 55,
              "velocity": 108,
              "position": 0.010416666666666666,
              "duration": 7.985416666666667
            },
            {
              "pitch": 59,
              "velocity": 108,
              "position": 0.010416666666666666,
              "duration": 7.985416666666667
            },
            {
              "pitch": 64,
              "velocity": 108,
              "position": 0.010416666666666666,
              "duration": 7.985416666666667
            }
          ]
        },
        "15": {
          "ctab": {
            "srcChannel": 15,
            "name": "Choir",
            "accType": "PHRASE1",
            "editable": false,
            "mutedNotes": [],
            "mutedChords": [
              "min7",
              "min",
              "Maj"
            ],
            "autoStart": false,
            "sourceChordNote": 0,
            "sourceChordType": "Maj7",
            "ctb2Low": null,
            "ctb2Main": {
              "ntr": "ROOT_FIXED",
              "ntt": "CHORD",
              "bassOn": false,
              "chordRootUpperLimit": 7,
              "noteLowLimit": 57,
              "noteHighLimit": 79,
              "rtr": "PITCH_SHIFT"
            },
            "ctb2High": null
          },
          "notes": [
            {
              "pitch": 79,
              "velocity": 50,
              "position": 0.9895833333333334,
              "duration": 0.9854166666666667
            },
            {
              "pitch": 83,
              "velocity": 50,
              "position": 0.9895833333333334,
              "duration": 0.9854166666666667
            },
            {
              "pitch": 88,
              "velocity": 50,
              "position": 0.9895833333333334,
              "duration": 0.9854166666666667
            },
            {
              "pitch": 47,
              "velocity": 50,
              "position": 0,
              "duration": 7.995833333333334
            },
            {
              "pitch": 52,
              "velocity": 50,
              "position": 0,
              "duration": 7.995833333333334
            },
            {
              "pitch": 55,
              "velocity": 50,
              "position": 0,
              "duration": 7.995833333333334
            }
          ]
        }
      }
    },
    "Main_D": {
      "type": "Main_D",
      "sizeInBeats": 32,
      "channels": {
        "1": {
          "ctab": {
            "srcChannel": 1,
            "name": "Bass 2",
            "accType": "BASS",
            "editable": false,
            "mutedNotes": [],
            "mutedChords": [
              "7(13)",
              "7(9)",
              "7th",
              "dim7",
              "min7(11)",
              "min7(9)",
              "min(9)",
              "min7",
              "min6",
              "Maj6(9)",
              "Maj7(9)",
              "Maj(9)",
              "Maj7",
              "Maj6",
              "Maj"
            ],
            "autoStart": false,
            "sourceChordNote": 0,
            "sourceChordType": "Maj7",
            "ctb2Low": null,
            "ctb2Main": {
              "ntr": "ROOT_TRANSPOSITION",
              "ntt": "MELODY",
              "bassOn": true,
              "chordRootUpperLimit": 8,
              "noteLowLimit": 28,
              "noteHighLimit": 51,
              "rtr": "PITCH_SHIFT_TO_ROOT"
            },
            "ctb2High": null
          },
          "notes": [
            {
              "pitch": 24,
              "velocity": 74,
              "position": 0,
              "duration": 0.31875
            },
            {
              "pitch": 48,
              "velocity": 110,
              "position": 0.3333333333333333,
              "duration": 0.08541666666666667
            },
            {
              "pitch": 24,
              "velocity": 110,
              "position": 0.6666666666666666,
              "duration": 0.10416666666666667
            },
            {
              "pitch": 28,
              "velocity": 74,
              "position": 1,
              "duration": 0.9854166666666667
            },
            {
              "pitch": 31,
              "velocity": 74,
              "position": 2,
              "duration": 0.5791666666666667
            },
            {
              "pitch": 31,
              "velocity": 62,
              "position": 2.6666666666666665,
              "duration": 0.07916666666666666
            },
            {
              "pitch": 28,
              "velocity": 74,
              "position": 3,
              "duration": 0.6208333333333333
            },
            {
              "pitch": 31,
              "velocity": 60,
              "position": 3.6666666666666665,
              "duration": 0.31875
            },
            {
              "pitch": 24,
              "velocity": 74,
              "position": 4,
              "duration": 0.31875
            },
            {
              "pitch": 48,
              "velocity": 110,
              "position": 4.333333333333333,
              "duration": 0.08541666666666667
            },
            {
              "pitch": 24,
              "velocity": 110,
              "position": 4.666666666666667,
              "duration": 0.10416666666666667
            },
            {
              "pitch": 28,
              "velocity": 74,
              "position": 5,
              "duration": 0.6625
            },
            {
              "pitch": 28,
              "velocity": 60,
              "position": 5.666666666666667,
              "duration": 0.31875
            },
            {
              "pitch": 31,
              "velocity": 74,
              "position": 6,
              "duration": 0.9854166666666667
            },
            {
              "pitch": 28,
              "velocity": 74,
              "position": 7,
              "duration": 0.6208333333333333
            },
            {
              "pitch": 31,
              "velocity": 60,
              "position": 7.666666666666667,
              "duration": 0.31875
            },
            {
              "pitch": 24,
              "velocity": 74,
              "position": 8,
              "duration": 0.31875
            },
            {
              "pitch": 48,
              "velocity": 110,
              "position": 8.333333333333334,
              "duration": 0.08541666666666667
            },
            {
              "pitch": 24,
              "velocity": 110,
              "position": 8.666666666666666,
              "duration": 0.10416666666666667
            },
            {
              "pitch": 28,
              "velocity": 74,
              "position": 9,
              "duration": 0.9854166666666667
            },
            {
              "pitch": 31,
              "velocity": 74,
              "position": 10,
              "duration": 0.6208333333333333
            },
            {
              "pitch": 31,
              "velocity": 62,
              "position": 10.666666666666666,
              "duration": 0.31875
            },
            {
              "pitch": 28,
              "velocity": 74,
              "position": 11,
              "duration": 0.31875
            },
            {
              "pitch": 31,
              "velocity": 57,
              "position": 11.333333333333334,
              "duration": 0.31875
            },
            {
              "pitch": 28,
              "velocity": 60,
              "position": 11.666666666666666,
              "duration": 0.31875
            },
            {
              "pitch": 24,
              "velocity": 74,
              "position": 12,
              "duration": 0.31875
            },
            {
              "pitch": 48,
              "velocity": 110,
              "position": 12.333333333333334,
              "duration": 0.08541666666666667
            },
            {
              "pitch": 24,
              "velocity": 110,
              "position": 12.666666666666666,
              "duration": 0.10416666666666667
            },
            {
              "pitch": 28,
              "velocity": 74,
              "position": 13,
              "duration": 0.32916666666666666
            },
            {
              "pitch": 31,
              "velocity": 57,
              "position": 13.333333333333334,
              "duration": 0.31875
            },
            {
              "pitch": 31,
              "velocity": 60,
              "position": 13.666666666666666,
              "duration": 0.31875
            },
            {
              "pitch": 31,
              "velocity": 74,
              "position": 14,
              "duration": 0.5791666666666667
            },
            {
              "pitch": 31,
              "velocity": 60,
              "position": 14.666666666666666,
              "duration": 0.07916666666666666
            },
            {
              "pitch": 28,
              "velocity": 74,
              "position": 15,
              "duration": 0.6208333333333333
            },
            {
              "pitch": 31,
              "velocity": 60,
              "position": 15.666666666666666,
              "duration": 0.31875
            },
            {
              "pitch": 24,
              "velocity": 74,
              "position": 16,
              "duration": 0.31875
            },
            {
              "pitch": 48,
              "velocity": 110,
              "position": 16.333333333333332,
              "duration": 0.08541666666666667
            },
            {
              "pitch": 24,
              "velocity": 110,
              "position": 16.666666666666668,
              "duration": 0.10416666666666667
            },
            {
              "pitch": 28,
              "velocity": 74,
              "position": 17,
              "duration": 0.5791666666666667
            },
            {
              "pitch": 28,
              "velocity": 106,
              "position": 17.666666666666668,
              "duration": 0.10416666666666667
            },
            {
              "pitch": 31,
              "velocity": 73,
              "position": 18,
              "duration": 0.5791666666666667
            },
            {
              "pitch": 31,
              "velocity": 62,
              "position": 18.666666666666668,
              "duration": 0.07916666666666666
            },
            {
              "pitch": 28,
              "velocity": 74,
              "position": 19,
              "duration": 0.31875
            },
            {
              "pitch": 31,
              "velocity": 42,
              "position": 19.333333333333332,
              "duration": 0.31875
            },
            {
              "pitch": 24,
              "velocity": 60,
              "position": 19.666666666666668,
              "duration": 0.6520833333333333
            },
            {
              "pitch": 48,
              "velocity": 110,
              "position": 20.333333333333332,
              "duration": 0.08541666666666667
            },
            {
              "pitch": 24,
              "velocity": 110,
              "position": 20.666666666666668,
              "duration": 0.10416666666666667
            },
            {
              "pitch": 28,
              "velocity": 74,
              "position": 21,
              "duration": 0.32916666666666666
            },
            {
              "pitch": 31,
              "velocity": 42,
              "position": 21.333333333333332,
              "duration": 0.31875
            },
            {
              "pitch": 31,
              "velocity": 60,
              "position": 21.666666666666668,
              "duration": 0.31875
            },
            {
              "pitch": 31,
              "velocity": 74,
              "position": 22,
              "duration": 0.5791666666666667
            },
            {
              "pitch": 31,
              "velocity": 62,
              "position": 22.666666666666668,
              "duration": 0.07916666666666666
            },
            {
              "pitch": 28,
              "velocity": 74,
              "position": 23,
              "duration": 0.6208333333333333
            },
            {
              "pitch": 31,
              "velocity": 60,
              "position": 23.666666666666668,
              "duration": 0.31875
            },
            {
              "pitch": 24,
              "velocity": 74,
              "position": 24,
              "duration": 0.31875
            },
            {
              "pitch": 48,
              "velocity": 110,
              "position": 24.333333333333332,
              "duration": 0.08541666666666667
            },
            {
              "pitch": 24,
              "velocity": 110,
              "position": 24.666666666666668,
              "duration": 0.10416666666666667
            },
            {
              "pitch": 28,
              "velocity": 74,
              "position": 25,
              "duration": 0.32916666666666666
            },
            {
              "pitch": 31,
              "velocity": 57,
              "position": 25.333333333333332,
              "duration": 0.31875
            },
            {
              "pitch": 31,
              "velocity": 60,
              "position": 25.666666666666668,
              "duration": 0.31875
            },
            {
              "pitch": 31,
              "velocity": 74,
              "position": 26,
              "duration": 0.6208333333333333
            },
            {
              "pitch": 31,
              "velocity": 63,
              "position": 26.666666666666668,
              "duration": 0.07916666666666666
            },
            {
              "pitch": 28,
              "velocity": 74,
              "position": 27,
              "duration": 0.6520833333333333
            },
            {
              "pitch": 31,
              "velocity": 60,
              "position": 27.666666666666668,
              "duration": 0.31875
            },
            {
              "pitch": 24,
              "velocity": 74,
              "position": 28,
              "duration": 0.31875
            },
            {
              "pitch": 48,
              "velocity": 110,
              "position": 28.333333333333332,
              "duration": 0.08541666666666667
            },
            {
              "pitch": 24,
              "velocity": 110,
              "position": 28.666666666666668,
              "duration": 0.10416666666666667
            },
            {
              "pitch": 28,
              "velocity": 74,
              "position": 29,
              "duration": 0.6520833333333333
            },
            {
              "pitch": 31,
              "velocity": 60,
              "position": 29.666666666666668,
              "duration": 0.6520833333333333
            },
            {
              "pitch": 31,
              "velocity": 110,
              "position": 30.333333333333332,
              "duration": 0.10416666666666667
            },
            {
              "pitch": 31,
              "velocity": 42,
              "position": 30.666666666666668,
              "duration": 0.31875
            },
            {
              "pitch": 28,
              "velocity": 74,
              "position": 31,
              "duration": 0.6208333333333333
            },
            {
              "pitch": 31,
              "velocity": 60,
              "position": 31.666666666666668,
              "duration": 0.31875
            }
          ]
        },
        "2": {
          "ctab": {
            "srcChannel": 2,
            "name": "Gt Root",
            "accType": "CHORD1",
            "editable": false,
            "mutedNotes": [],
            "mutedChords": [
              "1+2+5",
              "sus4",
              "1+5",
              "1+8",
              "Maj7aug",
              "7th",
              "dim",
              "minMaj7(9)",
              "minMaj7",
              "min6",
              "min",
              "aug",
              "Maj7(9)",
              "Maj7#11",
              "Maj7",
              "Maj6",
              "Maj"
            ],
            "autoStart": false,
            "sourceChordNote": 0,
            "sourceChordType": "Maj7",
            "ctb2Low": null,
            "ctb2Main": {
              "ntr": "ROOT_TRANSPOSITION",
              "ntt": "CHORD",
              "bassOn": false,
              "chordRootUpperLimit": 9,
              "noteLowLimit": 58,
              "noteHighLimit": 69,
              "rtr": "PITCH_SHIFT"
            },
            "ctb2High": null
          },
          "notes": [
            {
              "pitch": 60,
              "velocity": 98,
              "position": 0.3333333333333333,
              "duration": 0.0375
            },
            {
              "pitch": 60,
              "velocity": 63,
              "position": 0.6666666666666666,
              "duration": 0.027083333333333334
            },
            {
              "pitch": 60,
              "velocity": 89,
              "position": 1,
              "duration": 0.30833333333333335
            },
            {
              "pitch": 60,
              "velocity": 55,
              "position": 1.3333333333333333,
              "duration": 0.30833333333333335
            },
            {
              "pitch": 60,
              "velocity": 116,
              "position": 1.6666666666666667,
              "duration": 0.12083333333333333
            },
            {
              "pitch": 60,
              "velocity": 79,
              "position": 2,
              "duration": 0.027083333333333334
            },
            {
              "pitch": 60,
              "velocity": 98,
              "position": 2.3333333333333335,
              "duration": 0.0375
            },
            {
              "pitch": 60,
              "velocity": 63,
              "position": 2.6666666666666665,
              "duration": 0.027083333333333334
            },
            {
              "pitch": 60,
              "velocity": 89,
              "position": 3,
              "duration": 0.30833333333333335
            },
            {
              "pitch": 60,
              "velocity": 55,
              "position": 3.3333333333333335,
              "duration": 0.30833333333333335
            },
            {
              "pitch": 60,
              "velocity": 116,
              "position": 3.6666666666666665,
              "duration": 0.12083333333333333
            },
            {
              "pitch": 60,
              "velocity": 63,
              "position": 4,
              "duration": 0.027083333333333334
            },
            {
              "pitch": 60,
              "velocity": 98,
              "position": 4.333333333333333,
              "duration": 0.0375
            },
            {
              "pitch": 60,
              "velocity": 63,
              "position": 4.666666666666667,
              "duration": 0.027083333333333334
            },
            {
              "pitch": 60,
              "velocity": 89,
              "position": 5,
              "duration": 0.30833333333333335
            },
            {
              "pitch": 60,
              "velocity": 55,
              "position": 5.333333333333333,
              "duration": 0.30833333333333335
            },
            {
              "pitch": 60,
              "velocity": 116,
              "position": 5.666666666666667,
              "duration": 0.12083333333333333
            },
            {
              "pitch": 60,
              "velocity": 79,
              "position": 6,
              "duration": 0.027083333333333334
            },
            {
              "pitch": 60,
              "velocity": 98,
              "position": 6.333333333333333,
              "duration": 0.0375
            },
            {
              "pitch": 60,
              "velocity": 63,
              "position": 6.666666666666667,
              "duration": 0.027083333333333334
            },
            {
              "pitch": 60,
              "velocity": 89,
              "position": 7,
              "duration": 0.30833333333333335
            },
            {
              "pitch": 60,
              "velocity": 55,
              "position": 7.333333333333333,
              "duration": 0.30833333333333335
            },
            {
              "pitch": 60,
              "velocity": 116,
              "position": 7.666666666666667,
              "duration": 0.12083333333333333
            },
            {
              "pitch": 60,
              "velocity": 63,
              "position": 8,
              "duration": 0.027083333333333334
            },
            {
              "pitch": 60,
              "velocity": 98,
              "position": 8.333333333333334,
              "duration": 0.0375
            },
            {
              "pitch": 60,
              "velocity": 63,
              "position": 8.666666666666666,
              "duration": 0.027083333333333334
            },
            {
              "pitch": 60,
              "velocity": 89,
              "position": 9,
              "duration": 0.30833333333333335
            },
            {
              "pitch": 60,
              "velocity": 55,
              "position": 9.333333333333334,
              "duration": 0.30833333333333335
            },
            {
              "pitch": 60,
              "velocity": 116,
              "position": 9.666666666666666,
              "duration": 0.12083333333333333
            },
            {
              "pitch": 60,
              "velocity": 79,
              "position": 10,
              "duration": 0.027083333333333334
            },
            {
              "pitch": 60,
              "velocity": 98,
              "position": 10.333333333333334,
              "duration": 0.0375
            },
            {
              "pitch": 60,
              "velocity": 63,
              "position": 10.666666666666666,
              "duration": 0.027083333333333334
            },
            {
              "pitch": 60,
              "velocity": 89,
              "position": 11,
              "duration": 0.30833333333333335
            },
            {
              "pitch": 60,
              "velocity": 55,
              "position": 11.333333333333334,
              "duration": 0.30833333333333335
            },
            {
              "pitch": 60,
              "velocity": 116,
              "position": 11.666666666666666,
              "duration": 0.12083333333333333
            },
            {
              "pitch": 60,
              "velocity": 63,
              "position": 12,
              "duration": 0.027083333333333334
            },
            {
              "pitch": 60,
              "velocity": 98,
              "position": 12.333333333333334,
              "duration": 0.0375
            },
            {
              "pitch": 60,
              "velocity": 63,
              "position": 12.666666666666666,
              "duration": 0.027083333333333334
            },
            {
              "pitch": 60,
              "velocity": 89,
              "position": 13,
              "duration": 0.30833333333333335
            },
            {
              "pitch": 60,
              "velocity": 55,
              "position": 13.333333333333334,
              "duration": 0.30833333333333335
            },
            {
              "pitch": 60,
              "velocity": 116,
              "position": 13.666666666666666,
              "duration": 0.12083333333333333
            },
            {
              "pitch": 60,
              "velocity": 79,
              "position": 14,
              "duration": 0.027083333333333334
            },
            {
              "pitch": 60,
              "velocity": 98,
              "position": 14.333333333333334,
              "duration": 0.0375
            },
            {
              "pitch": 60,
              "velocity": 63,
              "position": 14.666666666666666,
              "duration": 0.027083333333333334
            },
            {
              "pitch": 60,
              "velocity": 89,
              "position": 15,
              "duration": 0.30833333333333335
            },
            {
              "pitch": 60,
              "velocity": 55,
              "position": 15.333333333333334,
              "duration": 0.30833333333333335
            },
            {
              "pitch": 60,
              "velocity": 116,
              "position": 15.666666666666666,
              "duration": 0.12083333333333333
            },
            {
              "pitch": 60,
              "velocity": 63,
              "position": 16,
              "duration": 0.027083333333333334
            },
            {
              "pitch": 60,
              "velocity": 98,
              "position": 16.333333333333332,
              "duration": 0.0375
            },
            {
              "pitch": 60,
              "velocity": 63,
              "position": 16.666666666666668,
              "duration": 0.027083333333333334
            },
            {
              "pitch": 60,
              "velocity": 89,
              "position": 17,
              "duration": 0.30833333333333335
            },
            {
              "pitch": 60,
              "velocity": 55,
              "position": 17.333333333333332,
              "duration": 0.30833333333333335
            },
            {
              "pitch": 60,
              "velocity": 116,
              "position": 17.666666666666668,
              "duration": 0.12083333333333333
            },
            {
              "pitch": 60,
              "velocity": 79,
              "position": 18,
              "duration": 0.027083333333333334
            },
            {
              "pitch": 60,
              "velocity": 98,
              "position": 18.333333333333332,
              "duration": 0.0375
            },
            {
              "pitch": 60,
              "velocity": 63,
              "position": 18.666666666666668,
              "duration": 0.027083333333333334
            },
            {
              "pitch": 60,
              "velocity": 89,
              "position": 19,
              "duration": 0.30833333333333335
            },
            {
              "pitch": 60,
              "velocity": 55,
              "position": 19.333333333333332,
              "duration": 0.30833333333333335
            },
            {
              "pitch": 60,
              "velocity": 116,
              "position": 19.666666666666668,
              "duration": 0.12083333333333333
            },
            {
              "pitch": 60,
              "velocity": 63,
              "position": 20,
              "duration": 0.027083333333333334
            },
            {
              "pitch": 60,
              "velocity": 98,
              "position": 20.333333333333332,
              "duration": 0.0375
            },
            {
              "pitch": 60,
              "velocity": 63,
              "position": 20.666666666666668,
              "duration": 0.027083333333333334
            },
            {
              "pitch": 60,
              "velocity": 89,
              "position": 21,
              "duration": 0.30833333333333335
            },
            {
              "pitch": 60,
              "velocity": 55,
              "position": 21.333333333333332,
              "duration": 0.30833333333333335
            },
            {
              "pitch": 60,
              "velocity": 116,
              "position": 21.666666666666668,
              "duration": 0.12083333333333333
            },
            {
              "pitch": 60,
              "velocity": 79,
              "position": 22,
              "duration": 0.027083333333333334
            },
            {
              "pitch": 60,
              "velocity": 98,
              "position": 22.333333333333332,
              "duration": 0.0375
            },
            {
              "pitch": 60,
              "velocity": 63,
              "position": 22.666666666666668,
              "duration": 0.027083333333333334
            },
            {
              "pitch": 60,
              "velocity": 89,
              "position": 23,
              "duration": 0.30833333333333335
            },
            {
              "pitch": 60,
              "velocity": 55,
              "position": 23.333333333333332,
              "duration": 0.30833333333333335
            },
            {
              "pitch": 60,
              "velocity": 116,
              "position": 23.666666666666668,
              "duration": 0.12083333333333333
            },
            {
              "pitch": 60,
              "velocity": 63,
              "position": 24,
              "duration": 0.027083333333333334
            },
            {
              "pitch": 60,
              "velocity": 98,
              "position": 24.333333333333332,
              "duration": 0.0375
            },
            {
              "pitch": 60,
              "velocity": 63,
              "position": 24.666666666666668,
              "duration": 0.027083333333333334
            },
            {
              "pitch": 60,
              "velocity": 89,
              "position": 25,
              "duration": 0.30833333333333335
            },
            {
              "pitch": 60,
              "velocity": 55,
              "position": 25.333333333333332,
              "duration": 0.30833333333333335
            },
            {
              "pitch": 60,
              "velocity": 116,
              "position": 25.666666666666668,
              "duration": 0.12083333333333333
            },
            {
              "pitch": 60,
              "velocity": 79,
              "position": 26,
              "duration": 0.027083333333333334
            },
            {
              "pitch": 60,
              "velocity": 98,
              "position": 26.333333333333332,
              "duration": 0.0375
            },
            {
              "pitch": 60,
              "velocity": 63,
              "position": 26.666666666666668,
              "duration": 0.027083333333333334
            },
            {
              "pitch": 60,
              "velocity": 89,
              "position": 27,
              "duration": 0.30833333333333335
            },
            {
              "pitch": 60,
              "velocity": 55,
              "position": 27.333333333333332,
              "duration": 0.30833333333333335
            },
            {
              "pitch": 60,
              "velocity": 116,
              "position": 27.666666666666668,
              "duration": 0.12083333333333333
            },
            {
              "pitch": 60,
              "velocity": 63,
              "position": 28,
              "duration": 0.027083333333333334
            },
            {
              "pitch": 60,
              "velocity": 98,
              "position": 28.333333333333332,
              "duration": 0.0375
            },
            {
              "pitch": 60,
              "velocity": 63,
              "position": 28.666666666666668,
              "duration": 0.027083333333333334
            },
            {
              "pitch": 60,
              "velocity": 89,
              "position": 29,
              "duration": 0.30833333333333335
            },
            {
              "pitch": 60,
              "velocity": 55,
              "position": 29.333333333333332,
              "duration": 0.30833333333333335
            },
            {
              "pitch": 60,
              "velocity": 116,
              "position": 29.666666666666668,
              "duration": 0.12083333333333333
            },
            {
              "pitch": 60,
              "velocity": 79,
              "position": 30,
              "duration": 0.027083333333333334
            },
            {
              "pitch": 60,
              "velocity": 98,
              "position": 30.333333333333332,
              "duration": 0.0375
            },
            {
              "pitch": 60,
              "velocity": 63,
              "position": 30.666666666666668,
              "duration": 0.027083333333333334
            },
            {
              "pitch": 60,
              "velocity": 89,
              "position": 31,
              "duration": 0.30833333333333335
            },
            {
              "pitch": 60,
              "velocity": 55,
              "position": 31.333333333333332,
              "duration": 0.30833333333333335
            },
            {
              "pitch": 60,
              "velocity": 116,
              "position": 31.666666666666668,
              "duration": 0.12083333333333333
            }
          ]
        },
        "3": {
          "ctab": {
            "srcChannel": 3,
            "name": "Pno 2",
            "accType": "CHORD2",
            "editable": false,
            "mutedNotes": [],
            "mutedChords": [
              "1+2+5",
              "sus4",
              "1+5",
              "1+8",
              "7aug",
              "Maj7aug",
              "7(#9)",
              "7(b13)",
              "7(b9)",
              "7(13)",
              "7#11",
              "7(9)",
              "7b5",
              "7sus4",
              "7th",
              "dim7",
              "dim",
              "minMaj7(9)",
              "minMaj7",
              "min7(11)",
              "min7(9)",
              "min(9)",
              "m7b5",
              "min6",
              "aug",
              "Maj6(9)",
              "Maj7(9)",
              "Maj(9)",
              "Maj7#11",
              "Maj7",
              "Maj6"
            ],
            "autoStart": false,
            "sourceChordNote": 0,
            "sourceChordType": "Maj7",
            "ctb2Low": null,
            "ctb2Main": {
              "ntr": "ROOT_TRANSPOSITION",
              "ntt": "MELODIC_MINOR",
              "bassOn": false,
              "chordRootUpperLimit": 6,
              "noteLowLimit": 54,
              "noteHighLimit": 79,
              "rtr": "PITCH_SHIFT"
            },
            "ctb2High": null
          },
          "notes": [
            {
              "pitch": 72,
              "velocity": 98,
              "position": 1,
              "duration": 0.21458333333333332
            },
            {
              "pitch": 78,
              "velocity": 98,
              "position": 1,
              "duration": 0.21458333333333332
            },
            {
              "pitch": 84,
              "velocity": 98,
              "position": 1,
              "duration": 0.21458333333333332
            },
            {
              "pitch": 72,
              "velocity": 80,
              "position": 1.3333333333333333,
              "duration": 0.21458333333333332
            },
            {
              "pitch": 79,
              "velocity": 80,
              "position": 1.3333333333333333,
              "duration": 0.21458333333333332
            },
            {
              "pitch": 84,
              "velocity": 80,
              "position": 1.3333333333333333,
              "duration": 0.21458333333333332
            },
            {
              "pitch": 72,
              "velocity": 98,
              "position": 1.6666666666666667,
              "duration": 0.21458333333333332
            },
            {
              "pitch": 79,
              "velocity": 98,
              "position": 1.6666666666666667,
              "duration": 0.21458333333333332
            },
            {
              "pitch": 84,
              "velocity": 98,
              "position": 1.6666666666666667,
              "duration": 0.21458333333333332
            },
            {
              "pitch": 72,
              "velocity": 98,
              "position": 2,
              "duration": 0.21458333333333332
            },
            {
              "pitch": 78,
              "velocity": 98,
              "position": 2,
              "duration": 0.21458333333333332
            },
            {
              "pitch": 84,
              "velocity": 98,
              "position": 2,
              "duration": 0.21458333333333332
            },
            {
              "pitch": 72,
              "velocity": 80,
              "position": 2.3333333333333335,
              "duration": 0.21458333333333332
            },
            {
              "pitch": 79,
              "velocity": 80,
              "position": 2.3333333333333335,
              "duration": 0.21458333333333332
            },
            {
              "pitch": 84,
              "velocity": 80,
              "position": 2.3333333333333335,
              "duration": 0.21458333333333332
            },
            {
              "pitch": 72,
              "velocity": 98,
              "position": 2.6666666666666665,
              "duration": 0.21458333333333332
            },
            {
              "pitch": 79,
              "velocity": 98,
              "position": 2.6666666666666665,
              "duration": 0.21458333333333332
            },
            {
              "pitch": 84,
              "velocity": 98,
              "position": 2.6666666666666665,
              "duration": 0.21458333333333332
            },
            {
              "pitch": 43,
              "velocity": 116,
              "position": 0,
              "duration": 2.9854166666666666
            },
            {
              "pitch": 48,
              "velocity": 116,
              "position": 0,
              "duration": 2.9854166666666666
            },
            {
              "pitch": 52,
              "velocity": 116,
              "position": 0,
              "duration": 2.9854166666666666
            },
            {
              "pitch": 72,
              "velocity": 98,
              "position": 3,
              "duration": 0.21458333333333332
            },
            {
              "pitch": 78,
              "velocity": 98,
              "position": 3,
              "duration": 0.21458333333333332
            },
            {
              "pitch": 84,
              "velocity": 98,
              "position": 3,
              "duration": 0.21458333333333332
            },
            {
              "pitch": 72,
              "velocity": 80,
              "position": 3.3333333333333335,
              "duration": 0.21458333333333332
            },
            {
              "pitch": 79,
              "velocity": 80,
              "position": 3.3333333333333335,
              "duration": 0.21458333333333332
            },
            {
              "pitch": 84,
              "velocity": 80,
              "position": 3.3333333333333335,
              "duration": 0.21458333333333332
            },
            {
              "pitch": 72,
              "velocity": 98,
              "position": 3.6666666666666665,
              "duration": 0.21458333333333332
            },
            {
              "pitch": 79,
              "velocity": 98,
              "position": 3.6666666666666665,
              "duration": 0.21458333333333332
            },
            {
              "pitch": 84,
              "velocity": 98,
              "position": 3.6666666666666665,
              "duration": 0.21458333333333332
            },
            {
              "pitch": 45,
              "velocity": 116,
              "position": 3,
              "duration": 0.9854166666666667
            },
            {
              "pitch": 48,
              "velocity": 116,
              "position": 3,
              "duration": 0.9854166666666667
            },
            {
              "pitch": 53,
              "velocity": 116,
              "position": 3,
              "duration": 0.9854166666666667
            },
            {
              "pitch": 43,
              "velocity": 116,
              "position": 4,
              "duration": 0.6520833333333333
            },
            {
              "pitch": 48,
              "velocity": 116,
              "position": 4,
              "duration": 0.6520833333333333
            },
            {
              "pitch": 52,
              "velocity": 116,
              "position": 4,
              "duration": 0.6520833333333333
            },
            {
              "pitch": 72,
              "velocity": 98,
              "position": 4,
              "duration": 0.6520833333333333
            },
            {
              "pitch": 79,
              "velocity": 98,
              "position": 4,
              "duration": 0.6520833333333333
            },
            {
              "pitch": 84,
              "velocity": 98,
              "position": 4,
              "duration": 0.6520833333333333
            },
            {
              "pitch": 46,
              "velocity": 116,
              "position": 4.666666666666667,
              "duration": 0.6520833333333333
            },
            {
              "pitch": 50,
              "velocity": 116,
              "position": 4.666666666666667,
              "duration": 0.6520833333333333
            },
            {
              "pitch": 53,
              "velocity": 116,
              "position": 4.666666666666667,
              "duration": 0.6520833333333333
            },
            {
              "pitch": 74,
              "velocity": 98,
              "position": 4.666666666666667,
              "duration": 0.6520833333333333
            },
            {
              "pitch": 77,
              "velocity": 98,
              "position": 4.666666666666667,
              "duration": 0.6520833333333333
            },
            {
              "pitch": 82,
              "velocity": 98,
              "position": 4.666666666666667,
              "duration": 0.6520833333333333
            },
            {
              "pitch": 45,
              "velocity": 116,
              "position": 5.333333333333333,
              "duration": 0.6520833333333333
            },
            {
              "pitch": 48,
              "velocity": 116,
              "position": 5.333333333333333,
              "duration": 0.6520833333333333
            },
            {
              "pitch": 53,
              "velocity": 116,
              "position": 5.333333333333333,
              "duration": 0.6520833333333333
            },
            {
              "pitch": 72,
              "velocity": 98,
              "position": 5.333333333333333,
              "duration": 0.6520833333333333
            },
            {
              "pitch": 77,
              "velocity": 98,
              "position": 5.333333333333333,
              "duration": 0.6520833333333333
            },
            {
              "pitch": 81,
              "velocity": 98,
              "position": 5.333333333333333,
              "duration": 0.6520833333333333
            },
            {
              "pitch": 46,
              "velocity": 116,
              "position": 6,
              "duration": 0.6520833333333333
            },
            {
              "pitch": 50,
              "velocity": 116,
              "position": 6,
              "duration": 0.6520833333333333
            },
            {
              "pitch": 53,
              "velocity": 116,
              "position": 6,
              "duration": 0.6520833333333333
            },
            {
              "pitch": 74,
              "velocity": 98,
              "position": 6,
              "duration": 0.6520833333333333
            },
            {
              "pitch": 79,
              "velocity": 98,
              "position": 6,
              "duration": 0.6520833333333333
            },
            {
              "pitch": 46,
              "velocity": 116,
              "position": 6.666666666666667,
              "duration": 0.6520833333333333
            },
            {
              "pitch": 50,
              "velocity": 116,
              "position": 6.666666666666667,
              "duration": 0.6520833333333333
            },
            {
              "pitch": 53,
              "velocity": 116,
              "position": 6.666666666666667,
              "duration": 0.6520833333333333
            },
            {
              "pitch": 74,
              "velocity": 98,
              "position": 6.666666666666667,
              "duration": 0.6520833333333333
            },
            {
              "pitch": 77,
              "velocity": 98,
              "position": 6.666666666666667,
              "duration": 0.6520833333333333
            },
            {
              "pitch": 45,
              "velocity": 116,
              "position": 7.333333333333333,
              "duration": 0.6520833333333333
            },
            {
              "pitch": 48,
              "velocity": 116,
              "position": 7.333333333333333,
              "duration": 0.6520833333333333
            },
            {
              "pitch": 53,
              "velocity": 116,
              "position": 7.333333333333333,
              "duration": 0.6520833333333333
            },
            {
              "pitch": 72,
              "velocity": 98,
              "position": 7.333333333333333,
              "duration": 0.6520833333333333
            },
            {
              "pitch": 77,
              "velocity": 98,
              "position": 7.333333333333333,
              "duration": 0.6520833333333333
            },
            {
              "pitch": 43,
              "velocity": 116,
              "position": 8,
              "duration": 0.6520833333333333
            },
            {
              "pitch": 48,
              "velocity": 116,
              "position": 8,
              "duration": 0.6520833333333333
            },
            {
              "pitch": 52,
              "velocity": 116,
              "position": 8,
              "duration": 0.6520833333333333
            },
            {
              "pitch": 72,
              "velocity": 98,
              "position": 8,
              "duration": 0.6520833333333333
            },
            {
              "pitch": 76,
              "velocity": 98,
              "position": 8,
              "duration": 0.6520833333333333
            },
            {
              "pitch": 43,
              "velocity": 116,
              "position": 8.666666666666666,
              "duration": 0.6520833333333333
            },
            {
              "pitch": 48,
              "velocity": 116,
              "position": 8.666666666666666,
              "duration": 0.6520833333333333
            },
            {
              "pitch": 52,
              "velocity": 116,
              "position": 8.666666666666666,
              "duration": 0.6520833333333333
            },
            {
              "pitch": 45,
              "velocity": 116,
              "position": 9.333333333333334,
              "duration": 0.6520833333333333
            },
            {
              "pitch": 48,
              "velocity": 116,
              "position": 9.333333333333334,
              "duration": 0.6520833333333333
            },
            {
              "pitch": 53,
              "velocity": 116,
              "position": 9.333333333333334,
              "duration": 0.6520833333333333
            },
            {
              "pitch": 43,
              "velocity": 116,
              "position": 10,
              "duration": 0.9854166666666667
            },
            {
              "pitch": 48,
              "velocity": 116,
              "position": 10,
              "duration": 0.9854166666666667
            },
            {
              "pitch": 52,
              "velocity": 116,
              "position": 10,
              "duration": 0.9854166666666667
            },
            {
              "pitch": 45,
              "velocity": 116,
              "position": 11,
              "duration": 0.9854166666666667
            },
            {
              "pitch": 48,
              "velocity": 116,
              "position": 11,
              "duration": 0.9854166666666667
            },
            {
              "pitch": 53,
              "velocity": 116,
              "position": 11,
              "duration": 0.9854166666666667
            },
            {
              "pitch": 43,
              "velocity": 116,
              "position": 12,
              "duration": 0.9854166666666667
            },
            {
              "pitch": 48,
              "velocity": 116,
              "position": 12,
              "duration": 0.9854166666666667
            },
            {
              "pitch": 52,
              "velocity": 116,
              "position": 12,
              "duration": 0.9854166666666667
            },
            {
              "pitch": 45,
              "velocity": 116,
              "position": 13,
              "duration": 0.9854166666666667
            },
            {
              "pitch": 48,
              "velocity": 116,
              "position": 13,
              "duration": 0.9854166666666667
            },
            {
              "pitch": 53,
              "velocity": 116,
              "position": 13,
              "duration": 0.9854166666666667
            },
            {
              "pitch": 46,
              "velocity": 116,
              "position": 14,
              "duration": 0.9854166666666667
            },
            {
              "pitch": 50,
              "velocity": 116,
              "position": 14,
              "duration": 0.9854166666666667
            },
            {
              "pitch": 53,
              "velocity": 116,
              "position": 14,
              "duration": 0.9854166666666667
            },
            {
              "pitch": 45,
              "velocity": 116,
              "position": 15,
              "duration": 0.6520833333333333
            },
            {
              "pitch": 48,
              "velocity": 116,
              "position": 15,
              "duration": 0.6520833333333333
            },
            {
              "pitch": 53,
              "velocity": 116,
              "position": 15,
              "duration": 0.6520833333333333
            },
            {
              "pitch": 43,
              "velocity": 116,
              "position": 15.666666666666666,
              "duration": 0.8395833333333333
            },
            {
              "pitch": 48,
              "velocity": 116,
              "position": 15.666666666666666,
              "duration": 0.8395833333333333
            },
            {
              "pitch": 52,
              "velocity": 116,
              "position": 15.666666666666666,
              "duration": 0.8395833333333333
            },
            {
              "pitch": 67,
              "velocity": 116,
              "position": 16.333333333333332,
              "duration": 0.17291666666666666
            },
            {
              "pitch": 72,
              "velocity": 116,
              "position": 16.333333333333332,
              "duration": 0.17291666666666666
            },
            {
              "pitch": 76,
              "velocity": 116,
              "position": 16.333333333333332,
              "duration": 0.17291666666666666
            },
            {
              "pitch": 43,
              "velocity": 98,
              "position": 16.666666666666668,
              "duration": 0.06875
            },
            {
              "pitch": 48,
              "velocity": 98,
              "position": 16.666666666666668,
              "duration": 0.06875
            },
            {
              "pitch": 52,
              "velocity": 98,
              "position": 16.666666666666668,
              "duration": 0.06875
            },
            {
              "pitch": 67,
              "velocity": 116,
              "position": 17,
              "duration": 0.9854166666666667
            },
            {
              "pitch": 72,
              "velocity": 116,
              "position": 17,
              "duration": 0.9854166666666667
            },
            {
              "pitch": 76,
              "velocity": 116,
              "position": 17,
              "duration": 0.9854166666666667
            },
            {
              "pitch": 70,
              "velocity": 116,
              "position": 18.333333333333332,
              "duration": 0.17291666666666666
            },
            {
              "pitch": 74,
              "velocity": 116,
              "position": 18.333333333333332,
              "duration": 0.17291666666666666
            },
            {
              "pitch": 77,
              "velocity": 116,
              "position": 18.333333333333332,
              "duration": 0.17291666666666666
            },
            {
              "pitch": 46,
              "velocity": 116,
              "position": 17.666666666666668,
              "duration": 0.8395833333333333
            },
            {
              "pitch": 50,
              "velocity": 116,
              "position": 17.666666666666668,
              "duration": 0.8395833333333333
            },
            {
              "pitch": 53,
              "velocity": 116,
              "position": 17.666666666666668,
              "duration": 0.8395833333333333
            },
            {
              "pitch": 45,
              "velocity": 98,
              "position": 18.666666666666668,
              "duration": 0.06875
            },
            {
              "pitch": 48,
              "velocity": 98,
              "position": 18.666666666666668,
              "duration": 0.06875
            },
            {
              "pitch": 53,
              "velocity": 98,
              "position": 18.666666666666668,
              "duration": 0.06875
            },
            {
              "pitch": 69,
              "velocity": 116,
              "position": 19,
              "duration": 0.9854166666666667
            },
            {
              "pitch": 72,
              "velocity": 116,
              "position": 19,
              "duration": 0.9854166666666667
            },
            {
              "pitch": 77,
              "velocity": 116,
              "position": 19,
              "duration": 0.9854166666666667
            },
            {
              "pitch": 72,
              "velocity": 116,
              "position": 20.333333333333332,
              "duration": 0.17291666666666666
            },
            {
              "pitch": 76,
              "velocity": 116,
              "position": 20.333333333333332,
              "duration": 0.17291666666666666
            },
            {
              "pitch": 43,
              "velocity": 116,
              "position": 19.666666666666668,
              "duration": 0.8395833333333333
            },
            {
              "pitch": 48,
              "velocity": 116,
              "position": 19.666666666666668,
              "duration": 0.8395833333333333
            },
            {
              "pitch": 52,
              "velocity": 116,
              "position": 19.666666666666668,
              "duration": 0.8395833333333333
            },
            {
              "pitch": 43,
              "velocity": 98,
              "position": 20.666666666666668,
              "duration": 0.06875
            },
            {
              "pitch": 48,
              "velocity": 98,
              "position": 20.666666666666668,
              "duration": 0.06875
            },
            {
              "pitch": 52,
              "velocity": 98,
              "position": 20.666666666666668,
              "duration": 0.06875
            },
            {
              "pitch": 69,
              "velocity": 116,
              "position": 21,
              "duration": 0.6520833333333333
            },
            {
              "pitch": 72,
              "velocity": 116,
              "position": 21,
              "duration": 0.6520833333333333
            },
            {
              "pitch": 77,
              "velocity": 116,
              "position": 21,
              "duration": 0.6520833333333333
            },
            {
              "pitch": 70,
              "velocity": 116,
              "position": 21.666666666666668,
              "duration": 0.6520833333333333
            },
            {
              "pitch": 74,
              "velocity": 116,
              "position": 21.666666666666668,
              "duration": 0.6520833333333333
            },
            {
              "pitch": 77,
              "velocity": 116,
              "position": 21.666666666666668,
              "duration": 0.6520833333333333
            },
            {
              "pitch": 46,
              "velocity": 116,
              "position": 22.333333333333332,
              "duration": 0.6520833333333333
            },
            {
              "pitch": 50,
              "velocity": 116,
              "position": 22.333333333333332,
              "duration": 0.6520833333333333
            },
            {
              "pitch": 53,
              "velocity": 116,
              "position": 22.333333333333332,
              "duration": 0.6520833333333333
            },
            {
              "pitch": 45,
              "velocity": 116,
              "position": 23,
              "duration": 0.6520833333333333
            },
            {
              "pitch": 48,
              "velocity": 116,
              "position": 23,
              "duration": 0.6520833333333333
            },
            {
              "pitch": 53,
              "velocity": 116,
              "position": 23,
              "duration": 0.6520833333333333
            },
            {
              "pitch": 43,
              "velocity": 116,
              "position": 23.666666666666668,
              "duration": 1.31875
            },
            {
              "pitch": 48,
              "velocity": 116,
              "position": 23.666666666666668,
              "duration": 1.31875
            },
            {
              "pitch": 52,
              "velocity": 116,
              "position": 23.666666666666668,
              "duration": 1.31875
            },
            {
              "pitch": 43,
              "velocity": 116,
              "position": 25,
              "duration": 0.9854166666666667
            },
            {
              "pitch": 48,
              "velocity": 116,
              "position": 25,
              "duration": 0.9854166666666667
            },
            {
              "pitch": 52,
              "velocity": 116,
              "position": 25,
              "duration": 0.9854166666666667
            },
            {
              "pitch": 43,
              "velocity": 116,
              "position": 26,
              "duration": 0.9854166666666667
            },
            {
              "pitch": 48,
              "velocity": 116,
              "position": 26,
              "duration": 0.9854166666666667
            },
            {
              "pitch": 52,
              "velocity": 116,
              "position": 26,
              "duration": 0.9854166666666667
            },
            {
              "pitch": 72,
              "velocity": 116,
              "position": 26.333333333333332,
              "duration": 0.6520833333333333
            },
            {
              "pitch": 84,
              "velocity": 116,
              "position": 26.333333333333332,
              "duration": 0.6520833333333333
            },
            {
              "pitch": 72,
              "velocity": 116,
              "position": 27,
              "duration": 0.6520833333333333
            },
            {
              "pitch": 84,
              "velocity": 116,
              "position": 27,
              "duration": 0.6520833333333333
            },
            {
              "pitch": 45,
              "velocity": 116,
              "position": 27,
              "duration": 0.9854166666666667
            },
            {
              "pitch": 48,
              "velocity": 116,
              "position": 27,
              "duration": 0.9854166666666667
            },
            {
              "pitch": 53,
              "velocity": 116,
              "position": 27,
              "duration": 0.9854166666666667
            },
            {
              "pitch": 72,
              "velocity": 116,
              "position": 27.666666666666668,
              "duration": 0.6520833333333333
            },
            {
              "pitch": 84,
              "velocity": 116,
              "position": 27.666666666666668,
              "duration": 0.6520833333333333
            },
            {
              "pitch": 43,
              "velocity": 116,
              "position": 28.333333333333332,
              "duration": 0.6520833333333333
            },
            {
              "pitch": 48,
              "velocity": 116,
              "position": 28.333333333333332,
              "duration": 0.6520833333333333
            },
            {
              "pitch": 52,
              "velocity": 116,
              "position": 28.333333333333332,
              "duration": 0.6520833333333333
            },
            {
              "pitch": 45,
              "velocity": 116,
              "position": 29,
              "duration": 0.6520833333333333
            },
            {
              "pitch": 48,
              "velocity": 116,
              "position": 29,
              "duration": 0.6520833333333333
            },
            {
              "pitch": 53,
              "velocity": 116,
              "position": 29,
              "duration": 0.6520833333333333
            },
            {
              "pitch": 46,
              "velocity": 116,
              "position": 29.666666666666668,
              "duration": 0.6520833333333333
            },
            {
              "pitch": 50,
              "velocity": 116,
              "position": 29.666666666666668,
              "duration": 0.6520833333333333
            },
            {
              "pitch": 53,
              "velocity": 116,
              "position": 29.666666666666668,
              "duration": 0.6520833333333333
            },
            {
              "pitch": 46,
              "velocity": 116,
              "position": 30.333333333333332,
              "duration": 0.6520833333333333
            },
            {
              "pitch": 50,
              "velocity": 116,
              "position": 30.333333333333332,
              "duration": 0.6520833333333333
            },
            {
              "pitch": 53,
              "velocity": 116,
              "position": 30.333333333333332,
              "duration": 0.6520833333333333
            },
            {
              "pitch": 45,
              "velocity": 116,
              "position": 31,
              "duration": 0.9854166666666667
            },
            {
              "pitch": 48,
              "velocity": 116,
              "position": 31,
              "duration": 0.9854166666666667
            },
            {
              "pitch": 53,
              "velocity": 116,
              "position": 31,
              "duration": 0.9854166666666667
            }
          ]
        },
        "5": {
          "ctab": {
            "srcChannel": 5,
            "name": "Org 2",
            "accType": "PAD",
            "editable": false,
            "mutedNotes": [],
            "mutedChords": [
              "1+2+5",
              "sus4",
              "1+5",
              "1+8",
              "7aug",
              "Maj7aug",
              "7(#9)",
              "7(b13)",
              "7(b9)",
              "7(13)",
              "7#11",
              "7(9)",
              "7b5",
              "7sus4",
              "7th",
              "dim7",
              "dim",
              "minMaj7(9)",
              "minMaj7",
              "min7(11)",
              "min7(9)",
              "min(9)",
              "m7b5",
              "min6",
              "aug",
              "Maj6(9)",
              "Maj7(9)",
              "Maj(9)",
              "Maj7#11",
              "Maj7",
              "Maj6"
            ],
            "autoStart": false,
            "sourceChordNote": 0,
            "sourceChordType": "Maj7",
            "ctb2Low": null,
            "ctb2Main": {
              "ntr": "ROOT_TRANSPOSITION",
              "ntt": "MELODIC_MINOR",
              "bassOn": false,
              "chordRootUpperLimit": 6,
              "noteLowLimit": 57,
              "noteHighLimit": 79,
              "rtr": "PITCH_SHIFT"
            },
            "ctb2High": null
          },
          "notes": [
            {
              "pitch": 55,
              "velocity": 108,
              "position": 0.010416666666666666,
              "duration": 2.9854166666666666
            },
            {
              "pitch": 64,
              "velocity": 108,
              "position": 0.010416666666666666,
              "duration": 2.9854166666666666
            },
            {
              "pitch": 57,
              "velocity": 108,
              "position": 3,
              "duration": 0.9854166666666667
            },
            {
              "pitch": 65,
              "velocity": 108,
              "position": 3,
              "duration": 0.9854166666666667
            },
            {
              "pitch": 55,
              "velocity": 108,
              "position": 4,
              "duration": 0.9854166666666667
            },
            {
              "pitch": 64,
              "velocity": 108,
              "position": 4,
              "duration": 0.9854166666666667
            },
            {
              "pitch": 57,
              "velocity": 108,
              "position": 5,
              "duration": 0.9854166666666667
            },
            {
              "pitch": 60,
              "velocity": 108,
              "position": 0.010416666666666666,
              "duration": 5.975
            },
            {
              "pitch": 58,
              "velocity": 108,
              "position": 6,
              "duration": 0.9854166666666667
            },
            {
              "pitch": 62,
              "velocity": 108,
              "position": 6,
              "duration": 0.9854166666666667
            },
            {
              "pitch": 57,
              "velocity": 108,
              "position": 7,
              "duration": 0.9854166666666667
            },
            {
              "pitch": 65,
              "velocity": 108,
              "position": 5,
              "duration": 2.9854166666666666
            },
            {
              "pitch": 55,
              "velocity": 108,
              "position": 8.010416666666666,
              "duration": 2.9854166666666666
            },
            {
              "pitch": 64,
              "velocity": 108,
              "position": 8.010416666666666,
              "duration": 2.9854166666666666
            },
            {
              "pitch": 57,
              "velocity": 108,
              "position": 11,
              "duration": 0.9854166666666667
            },
            {
              "pitch": 65,
              "velocity": 108,
              "position": 11,
              "duration": 0.9854166666666667
            },
            {
              "pitch": 55,
              "velocity": 108,
              "position": 12,
              "duration": 0.9854166666666667
            },
            {
              "pitch": 64,
              "velocity": 108,
              "position": 12,
              "duration": 0.9854166666666667
            },
            {
              "pitch": 57,
              "velocity": 108,
              "position": 13,
              "duration": 0.9854166666666667
            },
            {
              "pitch": 60,
              "velocity": 108,
              "position": 7,
              "duration": 6.985416666666667
            },
            {
              "pitch": 58,
              "velocity": 108,
              "position": 14,
              "duration": 0.9854166666666667
            },
            {
              "pitch": 62,
              "velocity": 108,
              "position": 14,
              "duration": 0.9854166666666667
            },
            {
              "pitch": 57,
              "velocity": 108,
              "position": 15,
              "duration": 0.9854166666666667
            },
            {
              "pitch": 65,
              "velocity": 108,
              "position": 13,
              "duration": 2.9854166666666666
            },
            {
              "pitch": 60,
              "velocity": 108,
              "position": 15,
              "duration": 2.9854166666666666
            },
            {
              "pitch": 55,
              "velocity": 108,
              "position": 16.010416666666668,
              "duration": 1.9854166666666666
            },
            {
              "pitch": 64,
              "velocity": 108,
              "position": 16.010416666666668,
              "duration": 1.9854166666666666
            },
            {
              "pitch": 58,
              "velocity": 108,
              "position": 18,
              "duration": 0.9854166666666667
            },
            {
              "pitch": 62,
              "velocity": 108,
              "position": 18,
              "duration": 0.9854166666666667
            },
            {
              "pitch": 57,
              "velocity": 108,
              "position": 19,
              "duration": 0.9854166666666667
            },
            {
              "pitch": 65,
              "velocity": 108,
              "position": 18,
              "duration": 1.9854166666666666
            },
            {
              "pitch": 55,
              "velocity": 108,
              "position": 20,
              "duration": 0.9854166666666667
            },
            {
              "pitch": 64,
              "velocity": 108,
              "position": 20,
              "duration": 0.9854166666666667
            },
            {
              "pitch": 57,
              "velocity": 108,
              "position": 21,
              "duration": 0.9854166666666667
            },
            {
              "pitch": 60,
              "velocity": 108,
              "position": 19,
              "duration": 2.9854166666666666
            },
            {
              "pitch": 58,
              "velocity": 108,
              "position": 22,
              "duration": 0.9854166666666667
            },
            {
              "pitch": 62,
              "velocity": 108,
              "position": 22,
              "duration": 0.9854166666666667
            },
            {
              "pitch": 57,
              "velocity": 108,
              "position": 23,
              "duration": 0.9854166666666667
            },
            {
              "pitch": 65,
              "velocity": 108,
              "position": 21,
              "duration": 2.9854166666666666
            },
            {
              "pitch": 55,
              "velocity": 108,
              "position": 24.010416666666668,
              "duration": 2.9854166666666666
            },
            {
              "pitch": 64,
              "velocity": 108,
              "position": 24.010416666666668,
              "duration": 2.9854166666666666
            },
            {
              "pitch": 57,
              "velocity": 108,
              "position": 27,
              "duration": 0.9854166666666667
            },
            {
              "pitch": 65,
              "velocity": 108,
              "position": 27,
              "duration": 0.9854166666666667
            },
            {
              "pitch": 55,
              "velocity": 108,
              "position": 28,
              "duration": 0.9854166666666667
            },
            {
              "pitch": 64,
              "velocity": 108,
              "position": 28,
              "duration": 0.9854166666666667
            },
            {
              "pitch": 57,
              "velocity": 108,
              "position": 29,
              "duration": 0.9854166666666667
            },
            {
              "pitch": 60,
              "velocity": 108,
              "position": 23,
              "duration": 6.985416666666667
            },
            {
              "pitch": 58,
              "velocity": 108,
              "position": 30,
              "duration": 0.9854166666666667
            },
            {
              "pitch": 62,
              "velocity": 108,
              "position": 30,
              "duration": 0.9854166666666667
            },
            {
              "pitch": 57,
              "velocity": 108,
              "position": 31,
              "duration": 0.9854166666666667
            },
            {
              "pitch": 60,
              "velocity": 108,
              "position": 31,
              "duration": 0.9854166666666667
            },
            {
              "pitch": 65,
              "velocity": 108,
              "position": 29,
              "duration": 2.9854166666666666
            }
          ]
        },
        "6": {
          "ctab": {
            "srcChannel": 6,
            "name": "Choir 2",
            "accType": "PHRASE1",
            "editable": false,
            "mutedNotes": [],
            "mutedChords": [
              "1+2+5",
              "sus4",
              "1+5",
              "1+8",
              "7aug",
              "Maj7aug",
              "7(#9)",
              "7(b13)",
              "7(b9)",
              "7(13)",
              "7#11",
              "7(9)",
              "7b5",
              "7sus4",
              "7th",
              "dim7",
              "dim",
              "minMaj7(9)",
              "minMaj7",
              "min7(11)",
              "min7(9)",
              "min(9)",
              "m7b5",
              "min6",
              "aug",
              "Maj6(9)",
              "Maj7(9)",
              "Maj(9)",
              "Maj7#11",
              "Maj7",
              "Maj6"
            ],
            "autoStart": false,
            "sourceChordNote": 0,
            "sourceChordType": "Maj7",
            "ctb2Low": null,
            "ctb2Main": {
              "ntr": "ROOT_TRANSPOSITION",
              "ntt": "MELODIC_MINOR",
              "bassOn": false,
              "chordRootUpperLimit": 6,
              "noteLowLimit": 57,
              "noteHighLimit": 79,
              "rtr": "PITCH_SHIFT"
            },
            "ctb2High": null
          },
          "notes": [
            {
              "pitch": 48,
              "velocity": 50,
              "position": 0.010416666666666666,
              "duration": 0.975
            },
            {
              "pitch": 52,
              "velocity": 50,
              "position": 0.010416666666666666,
              "duration": 0.975
            },
            {
              "pitch": 55,
              "velocity": 50,
              "position": 0.010416666666666666,
              "duration": 0.975
            },
            {
              "pitch": 79,
              "velocity": 50,
              "position": 1,
              "duration": 0.6520833333333333
            },
            {
              "pitch": 84,
              "velocity": 50,
              "position": 1,
              "duration": 0.6520833333333333
            },
            {
              "pitch": 88,
              "velocity": 50,
              "position": 1,
              "duration": 0.6520833333333333
            },
            {
              "pitch": 81,
              "velocity": 50,
              "position": 3,
              "duration": 0.9854166666666667
            },
            {
              "pitch": 89,
              "velocity": 50,
              "position": 3,
              "duration": 0.9854166666666667
            },
            {
              "pitch": 79,
              "velocity": 50,
              "position": 4,
              "duration": 0.31875
            },
            {
              "pitch": 84,
              "velocity": 50,
              "position": 3,
              "duration": 1.31875
            },
            {
              "pitch": 88,
              "velocity": 50,
              "position": 4,
              "duration": 0.31875
            },
            {
              "pitch": 45,
              "velocity": 50,
              "position": 5,
              "duration": 0.9854166666666667
            },
            {
              "pitch": 53,
              "velocity": 50,
              "position": 5,
              "duration": 0.9854166666666667
            },
            {
              "pitch": 46,
              "velocity": 50,
              "position": 6,
              "duration": 0.975
            },
            {
              "pitch": 55,
              "velocity": 50,
              "position": 6,
              "duration": 0.975
            },
            {
              "pitch": 45,
              "velocity": 50,
              "position": 7,
              "duration": 0.975
            },
            {
              "pitch": 53,
              "velocity": 50,
              "position": 7,
              "duration": 0.975
            },
            {
              "pitch": 52,
              "velocity": 50,
              "position": 8,
              "duration": 0.975
            },
            {
              "pitch": 55,
              "velocity": 50,
              "position": 8,
              "duration": 0.975
            },
            {
              "pitch": 48,
              "velocity": 50,
              "position": 5,
              "duration": 3.9854166666666666
            },
            {
              "pitch": 79,
              "velocity": 50,
              "position": 9,
              "duration": 1.9854166666666666
            },
            {
              "pitch": 88,
              "velocity": 50,
              "position": 9,
              "duration": 1.9854166666666666
            },
            {
              "pitch": 81,
              "velocity": 50,
              "position": 11,
              "duration": 0.9854166666666667
            },
            {
              "pitch": 89,
              "velocity": 50,
              "position": 11,
              "duration": 0.9854166666666667
            },
            {
              "pitch": 79,
              "velocity": 50,
              "position": 12,
              "duration": 0.31875
            },
            {
              "pitch": 84,
              "velocity": 50,
              "position": 9,
              "duration": 3.31875
            },
            {
              "pitch": 88,
              "velocity": 50,
              "position": 12,
              "duration": 0.31875
            },
            {
              "pitch": 45,
              "velocity": 50,
              "position": 13,
              "duration": 0.9854166666666667
            },
            {
              "pitch": 53,
              "velocity": 50,
              "position": 13,
              "duration": 0.9854166666666667
            },
            {
              "pitch": 46,
              "velocity": 50,
              "position": 14,
              "duration": 0.975
            },
            {
              "pitch": 55,
              "velocity": 50,
              "position": 14,
              "duration": 0.975
            },
            {
              "pitch": 45,
              "velocity": 50,
              "position": 15,
              "duration": 0.975
            },
            {
              "pitch": 53,
              "velocity": 50,
              "position": 15,
              "duration": 0.975
            },
            {
              "pitch": 52,
              "velocity": 50,
              "position": 16,
              "duration": 0.975
            },
            {
              "pitch": 55,
              "velocity": 50,
              "position": 16,
              "duration": 0.975
            },
            {
              "pitch": 48,
              "velocity": 50,
              "position": 13,
              "duration": 3.9854166666666666
            },
            {
              "pitch": 79,
              "velocity": 50,
              "position": 17,
              "duration": 0.6520833333333333
            },
            {
              "pitch": 84,
              "velocity": 50,
              "position": 17,
              "duration": 0.6520833333333333
            },
            {
              "pitch": 88,
              "velocity": 50,
              "position": 17,
              "duration": 0.6520833333333333
            },
            {
              "pitch": 81,
              "velocity": 50,
              "position": 19,
              "duration": 0.9854166666666667
            },
            {
              "pitch": 89,
              "velocity": 50,
              "position": 19,
              "duration": 0.9854166666666667
            },
            {
              "pitch": 79,
              "velocity": 50,
              "position": 20,
              "duration": 0.31875
            },
            {
              "pitch": 84,
              "velocity": 50,
              "position": 19,
              "duration": 1.31875
            },
            {
              "pitch": 88,
              "velocity": 50,
              "position": 20,
              "duration": 0.31875
            },
            {
              "pitch": 45,
              "velocity": 50,
              "position": 21,
              "duration": 0.9854166666666667
            },
            {
              "pitch": 53,
              "velocity": 50,
              "position": 21,
              "duration": 0.9854166666666667
            },
            {
              "pitch": 46,
              "velocity": 50,
              "position": 22,
              "duration": 0.975
            },
            {
              "pitch": 55,
              "velocity": 50,
              "position": 22,
              "duration": 0.975
            },
            {
              "pitch": 45,
              "velocity": 50,
              "position": 23,
              "duration": 0.975
            },
            {
              "pitch": 53,
              "velocity": 50,
              "position": 23,
              "duration": 0.975
            },
            {
              "pitch": 52,
              "velocity": 50,
              "position": 24,
              "duration": 0.975
            },
            {
              "pitch": 55,
              "velocity": 50,
              "position": 24,
              "duration": 0.975
            },
            {
              "pitch": 48,
              "velocity": 50,
              "position": 21,
              "duration": 3.9854166666666666
            },
            {
              "pitch": 79,
              "velocity": 50,
              "position": 25,
              "duration": 1.9854166666666666
            },
            {
              "pitch": 88,
              "velocity": 50,
              "position": 25,
              "duration": 1.9854166666666666
            },
            {
              "pitch": 81,
              "velocity": 50,
              "position": 27,
              "duration": 0.9854166666666667
            },
            {
              "pitch": 89,
              "velocity": 50,
              "position": 27,
              "duration": 0.9854166666666667
            },
            {
              "pitch": 79,
              "velocity": 50,
              "position": 28,
              "duration": 0.31875
            },
            {
              "pitch": 84,
              "velocity": 50,
              "position": 25,
              "duration": 3.31875
            },
            {
              "pitch": 88,
              "velocity": 50,
              "position": 28,
              "duration": 0.31875
            },
            {
              "pitch": 45,
              "velocity": 50,
              "position": 29,
              "duration": 0.9854166666666667
            },
            {
              "pitch": 53,
              "velocity": 50,
              "position": 29,
              "duration": 0.9854166666666667
            },
            {
              "pitch": 46,
              "velocity": 50,
              "position": 30,
              "duration": 0.975
            },
            {
              "pitch": 55,
              "velocity": 50,
              "position": 30,
              "duration": 0.975
            },
            {
              "pitch": 45,
              "velocity": 50,
              "position": 31,
              "duration": 0.975
            },
            {
              "pitch": 53,
              "velocity": 50,
              "position": 31,
              "duration": 0.975
            },
            {
              "pitch": 48,
              "velocity": 50,
              "position": 29,
              "duration": 2.9854166666666666
            }
          ]
        },
        "7": {
          "ctab": {
            "srcChannel": 7,
            "name": "CC_Crash",
            "accType": "RHYTHM",
            "editable": false,
            "mutedNotes": [],
            "mutedChords": [
              "1+2+5",
              "sus4",
              "1+5",
              "1+8",
              "7aug",
              "Maj7aug",
              "7(#9)",
              "7(b13)",
              "7(b9)",
              "7(13)",
              "7#11",
              "7(9)",
              "7b5",
              "7sus4",
              "7th",
              "dim7",
              "dim",
              "minMaj7(9)",
              "minMaj7",
              "min7(11)",
              "min7(9)",
              "min(9)",
              "m7b5",
              "min7",
              "min6",
              "min",
              "aug",
              "Maj6(9)",
              "Maj7(9)",
              "Maj(9)",
              "Maj7#11",
              "Maj7",
              "Maj6",
              "Maj"
            ],
            "autoStart": true,
            "sourceChordNote": 0,
            "sourceChordType": "Maj",
            "ctb2Low": null,
            "ctb2Main": {
              "ntr": "ROOT_FIXED",
              "ntt": "BYPASS",
              "bassOn": false,
              "chordRootUpperLimit": 0,
              "noteLowLimit": 0,
              "noteHighLimit": 127,
              "rtr": "RETRIGGER"
            },
            "ctb2High": null
          },
          "notes": []
        },
        "8": {
          "ctab": {
            "srcChannel": 8,
            "name": "Perc",
            "accType": "SUBRHYTHM",
            "editable": false,
            "mutedNotes": [],
            "mutedChords": [],
            "autoStart": true,
            "sourceChordNote": 0,
            "sourceChordType": "Maj7",
            "ctb2Low": null,
            "ctb2Main": {
              "ntr": "ROOT_FIXED",
              "ntt": "BYPASS",
              "bassOn": false,
              "chordRootUpperLimit": 6,
              "noteLowLimit": 0,
              "noteHighLimit": 127,
              "rtr": "PITCH_SHIFT"
            },
            "ctb2High": null
          },
          "notes": [
            {
              "pitch": 39,
              "velocity": 69,
              "position": 1.0416666666666667,
              "duration": 0.00625
            },
            {
              "pitch": 39,
              "velocity": 77,
              "position": 3.0208333333333335,
              "duration": 0.00625
            },
            {
              "pitch": 39,
              "velocity": 66,
              "position": 5.041666666666667,
              "duration": 0.00625
            },
            {
              "pitch": 39,
              "velocity": 65,
              "position": 6.947916666666667,
              "duration": 0.00625
            },
            {
              "pitch": 39,
              "velocity": 69,
              "position": 8.989583333333334,
              "duration": 0.00625
            },
            {
              "pitch": 39,
              "velocity": 70,
              "position": 10.979166666666666,
              "duration": 0.00625
            },
            {
              "pitch": 39,
              "velocity": 78,
              "position": 12.979166666666666,
              "duration": 0.00625
            },
            {
              "pitch": 39,
              "velocity": 70,
              "position": 15,
              "duration": 0.00625
            },
            {
              "pitch": 39,
              "velocity": 69,
              "position": 17.041666666666668,
              "duration": 0.00625
            },
            {
              "pitch": 39,
              "velocity": 77,
              "position": 19.020833333333332,
              "duration": 0.00625
            },
            {
              "pitch": 39,
              "velocity": 66,
              "position": 21.041666666666668,
              "duration": 0.00625
            },
            {
              "pitch": 39,
              "velocity": 65,
              "position": 22.947916666666668,
              "duration": 0.00625
            },
            {
              "pitch": 39,
              "velocity": 69,
              "position": 24.989583333333332,
              "duration": 0.00625
            },
            {
              "pitch": 39,
              "velocity": 70,
              "position": 26.979166666666668,
              "duration": 0.00625
            },
            {
              "pitch": 39,
              "velocity": 78,
              "position": 28.979166666666668,
              "duration": 0.00625
            },
            {
              "pitch": 39,
              "velocity": 70,
              "position": 31,
              "duration": 0.00625
            }
          ]
        },
        "9": {
          "ctab": {
            "srcChannel": 9,
            "name": "Drums",
            "accType": "RHYTHM",
            "editable": false,
            "mutedNotes": [],
            "mutedChords": [],
            "autoStart": true,
            "sourceChordNote": 0,
            "sourceChordType": "Maj7",
            "ctb2Low": null,
            "ctb2Main": {
              "ntr": "ROOT_FIXED",
              "ntt": "BYPASS",
              "bassOn": false,
              "chordRootUpperLimit": 6,
              "noteLowLimit": 0,
              "noteHighLimit": 127,
              "rtr": "PITCH_SHIFT"
            },
            "ctb2High": null
          },
          "notes": [
            {
              "pitch": 35,
              "velocity": 90,
              "position": 0,
              "duration": 0.00625
            },
            {
              "pitch": 54,
              "velocity": 71,
              "position": 0,
              "duration": 0.00625
            },
            {
              "pitch": 59,
              "velocity": 96,
              "position": 0,
              "duration": 0.00625
            },
            {
              "pitch": 38,
              "velocity": 20,
              "position": 0.3333333333333333,
              "duration": 0.00625
            },
            {
              "pitch": 54,
              "velocity": 27,
              "position": 0.3333333333333333,
              "duration": 0.00625
            },
            {
              "pitch": 35,
              "velocity": 40,
              "position": 0.6666666666666666,
              "duration": 0.00625
            },
            {
              "pitch": 44,
              "velocity": 29,
              "position": 0.6666666666666666,
              "duration": 0.00625
            },
            {
              "pitch": 54,
              "velocity": 46,
              "position": 0.6666666666666666,
              "duration": 0.00625
            },
            {
              "pitch": 39,
              "velocity": 80,
              "position": 0.9895833333333334,
              "duration": 0.00625
            },
            {
              "pitch": 38,
              "velocity": 100,
              "position": 1,
              "duration": 0.00625
            },
            {
              "pitch": 49,
              "velocity": 37,
              "position": 1,
              "duration": 0.00625
            },
            {
              "pitch": 54,
              "velocity": 71,
              "position": 1,
              "duration": 0.00625
            },
            {
              "pitch": 57,
              "velocity": 38,
              "position": 1,
              "duration": 0.00625
            },
            {
              "pitch": 38,
              "velocity": 20,
              "position": 1.3333333333333333,
              "duration": 0.00625
            },
            {
              "pitch": 54,
              "velocity": 27,
              "position": 1.3333333333333333,
              "duration": 0.00625
            },
            {
              "pitch": 35,
              "velocity": 40,
              "position": 1.6666666666666667,
              "duration": 0.00625
            },
            {
              "pitch": 44,
              "velocity": 29,
              "position": 1.6666666666666667,
              "duration": 0.00625
            },
            {
              "pitch": 54,
              "velocity": 46,
              "position": 1.6666666666666667,
              "duration": 0.00625
            },
            {
              "pitch": 35,
              "velocity": 90,
              "position": 2,
              "duration": 0.00625
            },
            {
              "pitch": 54,
              "velocity": 71,
              "position": 2,
              "duration": 0.00625
            },
            {
              "pitch": 59,
              "velocity": 96,
              "position": 2,
              "duration": 0.00625
            },
            {
              "pitch": 38,
              "velocity": 20,
              "position": 2.3333333333333335,
              "duration": 0.00625
            },
            {
              "pitch": 54,
              "velocity": 27,
              "position": 2.3333333333333335,
              "duration": 0.00625
            },
            {
              "pitch": 35,
              "velocity": 40,
              "position": 2.6666666666666665,
              "duration": 0.00625
            },
            {
              "pitch": 44,
              "velocity": 29,
              "position": 2.6666666666666665,
              "duration": 0.00625
            },
            {
              "pitch": 54,
              "velocity": 46,
              "position": 2.6666666666666665,
              "duration": 0.00625
            },
            {
              "pitch": 39,
              "velocity": 80,
              "position": 2.9791666666666665,
              "duration": 0.00625
            },
            {
              "pitch": 38,
              "velocity": 100,
              "position": 3,
              "duration": 0.00625
            },
            {
              "pitch": 49,
              "velocity": 37,
              "position": 3,
              "duration": 0.00625
            },
            {
              "pitch": 54,
              "velocity": 71,
              "position": 3,
              "duration": 0.00625
            },
            {
              "pitch": 57,
              "velocity": 38,
              "position": 3,
              "duration": 0.00625
            },
            {
              "pitch": 38,
              "velocity": 20,
              "position": 3.3333333333333335,
              "duration": 0.00625
            },
            {
              "pitch": 54,
              "velocity": 27,
              "position": 3.3333333333333335,
              "duration": 0.00625
            },
            {
              "pitch": 35,
              "velocity": 40,
              "position": 3.6666666666666665,
              "duration": 0.00625
            },
            {
              "pitch": 44,
              "velocity": 29,
              "position": 3.6666666666666665,
              "duration": 0.00625
            },
            {
              "pitch": 54,
              "velocity": 46,
              "position": 3.6666666666666665,
              "duration": 0.00625
            },
            {
              "pitch": 35,
              "velocity": 90,
              "position": 4,
              "duration": 0.00625
            },
            {
              "pitch": 54,
              "velocity": 71,
              "position": 4,
              "duration": 0.00625
            },
            {
              "pitch": 59,
              "velocity": 96,
              "position": 4,
              "duration": 0.00625
            },
            {
              "pitch": 38,
              "velocity": 20,
              "position": 4.333333333333333,
              "duration": 0.00625
            },
            {
              "pitch": 54,
              "velocity": 27,
              "position": 4.333333333333333,
              "duration": 0.00625
            },
            {
              "pitch": 35,
              "velocity": 40,
              "position": 4.666666666666667,
              "duration": 0.00625
            },
            {
              "pitch": 44,
              "velocity": 29,
              "position": 4.666666666666667,
              "duration": 0.00625
            },
            {
              "pitch": 54,
              "velocity": 46,
              "position": 4.666666666666667,
              "duration": 0.00625
            },
            {
              "pitch": 39,
              "velocity": 80,
              "position": 4.989583333333333,
              "duration": 0.00625
            },
            {
              "pitch": 38,
              "velocity": 100,
              "position": 5,
              "duration": 0.00625
            },
            {
              "pitch": 49,
              "velocity": 37,
              "position": 5,
              "duration": 0.00625
            },
            {
              "pitch": 54,
              "velocity": 71,
              "position": 5,
              "duration": 0.00625
            },
            {
              "pitch": 57,
              "velocity": 38,
              "position": 5,
              "duration": 0.00625
            },
            {
              "pitch": 38,
              "velocity": 20,
              "position": 5.333333333333333,
              "duration": 0.00625
            },
            {
              "pitch": 54,
              "velocity": 27,
              "position": 5.333333333333333,
              "duration": 0.00625
            },
            {
              "pitch": 35,
              "velocity": 40,
              "position": 5.666666666666667,
              "duration": 0.00625
            },
            {
              "pitch": 44,
              "velocity": 29,
              "position": 5.666666666666667,
              "duration": 0.00625
            },
            {
              "pitch": 54,
              "velocity": 46,
              "position": 5.666666666666667,
              "duration": 0.00625
            },
            {
              "pitch": 35,
              "velocity": 90,
              "position": 6,
              "duration": 0.00625
            },
            {
              "pitch": 54,
              "velocity": 71,
              "position": 6,
              "duration": 0.00625
            },
            {
              "pitch": 59,
              "velocity": 96,
              "position": 6,
              "duration": 0.00625
            },
            {
              "pitch": 38,
              "velocity": 20,
              "position": 6.333333333333333,
              "duration": 0.00625
            },
            {
              "pitch": 54,
              "velocity": 27,
              "position": 6.333333333333333,
              "duration": 0.00625
            },
            {
              "pitch": 35,
              "velocity": 40,
              "position": 6.666666666666667,
              "duration": 0.00625
            },
            {
              "pitch": 44,
              "velocity": 29,
              "position": 6.666666666666667,
              "duration": 0.00625
            },
            {
              "pitch": 54,
              "velocity": 46,
              "position": 6.666666666666667,
              "duration": 0.00625
            },
            {
              "pitch": 39,
              "velocity": 80,
              "position": 6.979166666666667,
              "duration": 0.00625
            },
            {
              "pitch": 38,
              "velocity": 100,
              "position": 7,
              "duration": 0.00625
            },
            {
              "pitch": 49,
              "velocity": 37,
              "position": 7,
              "duration": 0.00625
            },
            {
              "pitch": 54,
              "velocity": 71,
              "position": 7,
              "duration": 0.00625
            },
            {
              "pitch": 57,
              "velocity": 38,
              "position": 7,
              "duration": 0.00625
            },
            {
              "pitch": 38,
              "velocity": 20,
              "position": 7.333333333333333,
              "duration": 0.00625
            },
            {
              "pitch": 54,
              "velocity": 27,
              "position": 7.333333333333333,
              "duration": 0.00625
            },
            {
              "pitch": 35,
              "velocity": 40,
              "position": 7.666666666666667,
              "duration": 0.00625
            },
            {
              "pitch": 44,
              "velocity": 29,
              "position": 7.666666666666667,
              "duration": 0.00625
            },
            {
              "pitch": 54,
              "velocity": 46,
              "position": 7.666666666666667,
              "duration": 0.00625
            },
            {
              "pitch": 35,
              "velocity": 90,
              "position": 8,
              "duration": 0.00625
            },
            {
              "pitch": 54,
              "velocity": 71,
              "position": 8,
              "duration": 0.00625
            },
            {
              "pitch": 59,
              "velocity": 96,
              "position": 8,
              "duration": 0.00625
            },
            {
              "pitch": 38,
              "velocity": 20,
              "position": 8.333333333333334,
              "duration": 0.00625
            },
            {
              "pitch": 54,
              "velocity": 27,
              "position": 8.333333333333334,
              "duration": 0.00625
            },
            {
              "pitch": 35,
              "velocity": 40,
              "position": 8.666666666666666,
              "duration": 0.00625
            },
            {
              "pitch": 44,
              "velocity": 29,
              "position": 8.666666666666666,
              "duration": 0.00625
            },
            {
              "pitch": 54,
              "velocity": 46,
              "position": 8.666666666666666,
              "duration": 0.00625
            },
            {
              "pitch": 39,
              "velocity": 80,
              "position": 8.989583333333334,
              "duration": 0.00625
            },
            {
              "pitch": 38,
              "velocity": 100,
              "position": 9,
              "duration": 0.00625
            },
            {
              "pitch": 49,
              "velocity": 37,
              "position": 9,
              "duration": 0.00625
            },
            {
              "pitch": 54,
              "velocity": 71,
              "position": 9,
              "duration": 0.00625
            },
            {
              "pitch": 57,
              "velocity": 38,
              "position": 9,
              "duration": 0.00625
            },
            {
              "pitch": 38,
              "velocity": 20,
              "position": 9.333333333333334,
              "duration": 0.00625
            },
            {
              "pitch": 54,
              "velocity": 27,
              "position": 9.333333333333334,
              "duration": 0.00625
            },
            {
              "pitch": 35,
              "velocity": 40,
              "position": 9.666666666666666,
              "duration": 0.00625
            },
            {
              "pitch": 44,
              "velocity": 29,
              "position": 9.666666666666666,
              "duration": 0.00625
            },
            {
              "pitch": 54,
              "velocity": 46,
              "position": 9.666666666666666,
              "duration": 0.00625
            },
            {
              "pitch": 35,
              "velocity": 90,
              "position": 10,
              "duration": 0.00625
            },
            {
              "pitch": 54,
              "velocity": 71,
              "position": 10,
              "duration": 0.00625
            },
            {
              "pitch": 59,
              "velocity": 96,
              "position": 10,
              "duration": 0.00625
            },
            {
              "pitch": 38,
              "velocity": 20,
              "position": 10.333333333333334,
              "duration": 0.00625
            },
            {
              "pitch": 54,
              "velocity": 27,
              "position": 10.333333333333334,
              "duration": 0.00625
            },
            {
              "pitch": 35,
              "velocity": 40,
              "position": 10.666666666666666,
              "duration": 0.00625
            },
            {
              "pitch": 44,
              "velocity": 29,
              "position": 10.666666666666666,
              "duration": 0.00625
            },
            {
              "pitch": 54,
              "velocity": 46,
              "position": 10.666666666666666,
              "duration": 0.00625
            },
            {
              "pitch": 39,
              "velocity": 80,
              "position": 10.979166666666666,
              "duration": 0.00625
            },
            {
              "pitch": 38,
              "velocity": 100,
              "position": 11,
              "duration": 0.00625
            },
            {
              "pitch": 49,
              "velocity": 37,
              "position": 11,
              "duration": 0.00625
            },
            {
              "pitch": 54,
              "velocity": 71,
              "position": 11,
              "duration": 0.00625
            },
            {
              "pitch": 57,
              "velocity": 38,
              "position": 11,
              "duration": 0.00625
            },
            {
              "pitch": 38,
              "velocity": 20,
              "position": 11.333333333333334,
              "duration": 0.00625
            },
            {
              "pitch": 54,
              "velocity": 27,
              "position": 11.333333333333334,
              "duration": 0.00625
            },
            {
              "pitch": 35,
              "velocity": 40,
              "position": 11.666666666666666,
              "duration": 0.00625
            },
            {
              "pitch": 44,
              "velocity": 29,
              "position": 11.666666666666666,
              "duration": 0.00625
            },
            {
              "pitch": 54,
              "velocity": 46,
              "position": 11.666666666666666,
              "duration": 0.00625
            },
            {
              "pitch": 35,
              "velocity": 90,
              "position": 12,
              "duration": 0.00625
            },
            {
              "pitch": 54,
              "velocity": 71,
              "position": 12,
              "duration": 0.00625
            },
            {
              "pitch": 59,
              "velocity": 96,
              "position": 12,
              "duration": 0.00625
            },
            {
              "pitch": 38,
              "velocity": 20,
              "position": 12.333333333333334,
              "duration": 0.00625
            },
            {
              "pitch": 54,
              "velocity": 27,
              "position": 12.333333333333334,
              "duration": 0.00625
            },
            {
              "pitch": 35,
              "velocity": 40,
              "position": 12.666666666666666,
              "duration": 0.00625
            },
            {
              "pitch": 44,
              "velocity": 29,
              "position": 12.666666666666666,
              "duration": 0.00625
            },
            {
              "pitch": 54,
              "velocity": 46,
              "position": 12.666666666666666,
              "duration": 0.00625
            },
            {
              "pitch": 39,
              "velocity": 80,
              "position": 12.989583333333334,
              "duration": 0.00625
            },
            {
              "pitch": 38,
              "velocity": 100,
              "position": 13,
              "duration": 0.00625
            },
            {
              "pitch": 49,
              "velocity": 37,
              "position": 13,
              "duration": 0.00625
            },
            {
              "pitch": 54,
              "velocity": 71,
              "position": 13,
              "duration": 0.00625
            },
            {
              "pitch": 57,
              "velocity": 38,
              "position": 13,
              "duration": 0.00625
            },
            {
              "pitch": 38,
              "velocity": 20,
              "position": 13.333333333333334,
              "duration": 0.00625
            },
            {
              "pitch": 54,
              "velocity": 27,
              "position": 13.333333333333334,
              "duration": 0.00625
            },
            {
              "pitch": 35,
              "velocity": 40,
              "position": 13.666666666666666,
              "duration": 0.00625
            },
            {
              "pitch": 44,
              "velocity": 29,
              "position": 13.666666666666666,
              "duration": 0.00625
            },
            {
              "pitch": 54,
              "velocity": 46,
              "position": 13.666666666666666,
              "duration": 0.00625
            },
            {
              "pitch": 35,
              "velocity": 90,
              "position": 14,
              "duration": 0.00625
            },
            {
              "pitch": 54,
              "velocity": 71,
              "position": 14,
              "duration": 0.00625
            },
            {
              "pitch": 59,
              "velocity": 96,
              "position": 14,
              "duration": 0.00625
            },
            {
              "pitch": 38,
              "velocity": 20,
              "position": 14.333333333333334,
              "duration": 0.00625
            },
            {
              "pitch": 54,
              "velocity": 27,
              "position": 14.333333333333334,
              "duration": 0.00625
            },
            {
              "pitch": 35,
              "velocity": 40,
              "position": 14.666666666666666,
              "duration": 0.00625
            },
            {
              "pitch": 44,
              "velocity": 29,
              "position": 14.666666666666666,
              "duration": 0.00625
            },
            {
              "pitch": 54,
              "velocity": 46,
              "position": 14.666666666666666,
              "duration": 0.00625
            },
            {
              "pitch": 39,
              "velocity": 80,
              "position": 14.979166666666666,
              "duration": 0.00625
            },
            {
              "pitch": 38,
              "velocity": 100,
              "position": 15,
              "duration": 0.00625
            },
            {
              "pitch": 49,
              "velocity": 37,
              "position": 15,
              "duration": 0.00625
            },
            {
              "pitch": 54,
              "velocity": 71,
              "position": 15,
              "duration": 0.00625
            },
            {
              "pitch": 57,
              "velocity": 38,
              "position": 15,
              "duration": 0.00625
            },
            {
              "pitch": 38,
              "velocity": 20,
              "position": 15.333333333333334,
              "duration": 0.00625
            },
            {
              "pitch": 54,
              "velocity": 27,
              "position": 15.333333333333334,
              "duration": 0.00625
            },
            {
              "pitch": 35,
              "velocity": 40,
              "position": 15.666666666666666,
              "duration": 0.00625
            },
            {
              "pitch": 44,
              "velocity": 29,
              "position": 15.666666666666666,
              "duration": 0.00625
            },
            {
              "pitch": 54,
              "velocity": 46,
              "position": 15.666666666666666,
              "duration": 0.00625
            },
            {
              "pitch": 35,
              "velocity": 90,
              "position": 16,
              "duration": 0.00625
            },
            {
              "pitch": 54,
              "velocity": 71,
              "position": 16,
              "duration": 0.00625
            },
            {
              "pitch": 59,
              "velocity": 96,
              "position": 16,
              "duration": 0.00625
            },
            {
              "pitch": 38,
              "velocity": 20,
              "position": 16.333333333333332,
              "duration": 0.00625
            },
            {
              "pitch": 54,
              "velocity": 27,
              "position": 16.333333333333332,
              "duration": 0.00625
            },
            {
              "pitch": 35,
              "velocity": 40,
              "position": 16.666666666666668,
              "duration": 0.00625
            },
            {
              "pitch": 44,
              "velocity": 29,
              "position": 16.666666666666668,
              "duration": 0.00625
            },
            {
              "pitch": 54,
              "velocity": 46,
              "position": 16.666666666666668,
              "duration": 0.00625
            },
            {
              "pitch": 39,
              "velocity": 80,
              "position": 16.989583333333332,
              "duration": 0.00625
            },
            {
              "pitch": 38,
              "velocity": 100,
              "position": 17,
              "duration": 0.00625
            },
            {
              "pitch": 49,
              "velocity": 37,
              "position": 17,
              "duration": 0.00625
            },
            {
              "pitch": 54,
              "velocity": 71,
              "position": 17,
              "duration": 0.00625
            },
            {
              "pitch": 57,
              "velocity": 38,
              "position": 17,
              "duration": 0.00625
            },
            {
              "pitch": 38,
              "velocity": 20,
              "position": 17.333333333333332,
              "duration": 0.00625
            },
            {
              "pitch": 54,
              "velocity": 27,
              "position": 17.333333333333332,
              "duration": 0.00625
            },
            {
              "pitch": 35,
              "velocity": 40,
              "position": 17.666666666666668,
              "duration": 0.00625
            },
            {
              "pitch": 44,
              "velocity": 29,
              "position": 17.666666666666668,
              "duration": 0.00625
            },
            {
              "pitch": 54,
              "velocity": 46,
              "position": 17.666666666666668,
              "duration": 0.00625
            },
            {
              "pitch": 35,
              "velocity": 90,
              "position": 18,
              "duration": 0.00625
            },
            {
              "pitch": 54,
              "velocity": 71,
              "position": 18,
              "duration": 0.00625
            },
            {
              "pitch": 59,
              "velocity": 96,
              "position": 18,
              "duration": 0.00625
            },
            {
              "pitch": 38,
              "velocity": 20,
              "position": 18.333333333333332,
              "duration": 0.00625
            },
            {
              "pitch": 54,
              "velocity": 27,
              "position": 18.333333333333332,
              "duration": 0.00625
            },
            {
              "pitch": 35,
              "velocity": 40,
              "position": 18.666666666666668,
              "duration": 0.00625
            },
            {
              "pitch": 44,
              "velocity": 29,
              "position": 18.666666666666668,
              "duration": 0.00625
            },
            {
              "pitch": 54,
              "velocity": 46,
              "position": 18.666666666666668,
              "duration": 0.00625
            },
            {
              "pitch": 39,
              "velocity": 80,
              "position": 18.979166666666668,
              "duration": 0.00625
            },
            {
              "pitch": 38,
              "velocity": 100,
              "position": 19,
              "duration": 0.00625
            },
            {
              "pitch": 49,
              "velocity": 37,
              "position": 19,
              "duration": 0.00625
            },
            {
              "pitch": 54,
              "velocity": 71,
              "position": 19,
              "duration": 0.00625
            },
            {
              "pitch": 57,
              "velocity": 38,
              "position": 19,
              "duration": 0.00625
            },
            {
              "pitch": 38,
              "velocity": 20,
              "position": 19.333333333333332,
              "duration": 0.00625
            },
            {
              "pitch": 54,
              "velocity": 27,
              "position": 19.333333333333332,
              "duration": 0.00625
            },
            {
              "pitch": 35,
              "velocity": 40,
              "position": 19.666666666666668,
              "duration": 0.00625
            },
            {
              "pitch": 44,
              "velocity": 29,
              "position": 19.666666666666668,
              "duration": 0.00625
            },
            {
              "pitch": 54,
              "velocity": 46,
              "position": 19.666666666666668,
              "duration": 0.00625
            },
            {
              "pitch": 35,
              "velocity": 90,
              "position": 20,
              "duration": 0.00625
            },
            {
              "pitch": 54,
              "velocity": 71,
              "position": 20,
              "duration": 0.00625
            },
            {
              "pitch": 59,
              "velocity": 96,
              "position": 20,
              "duration": 0.00625
            },
            {
              "pitch": 38,
              "velocity": 20,
              "position": 20.333333333333332,
              "duration": 0.00625
            },
            {
              "pitch": 54,
              "velocity": 27,
              "position": 20.333333333333332,
              "duration": 0.00625
            },
            {
              "pitch": 35,
              "velocity": 40,
              "position": 20.666666666666668,
              "duration": 0.00625
            },
            {
              "pitch": 44,
              "velocity": 29,
              "position": 20.666666666666668,
              "duration": 0.00625
            },
            {
              "pitch": 54,
              "velocity": 46,
              "position": 20.666666666666668,
              "duration": 0.00625
            },
            {
              "pitch": 39,
              "velocity": 80,
              "position": 20.989583333333332,
              "duration": 0.00625
            },
            {
              "pitch": 38,
              "velocity": 100,
              "position": 21,
              "duration": 0.00625
            },
            {
              "pitch": 49,
              "velocity": 37,
              "position": 21,
              "duration": 0.00625
            },
            {
              "pitch": 54,
              "velocity": 71,
              "position": 21,
              "duration": 0.00625
            },
            {
              "pitch": 57,
              "velocity": 38,
              "position": 21,
              "duration": 0.00625
            },
            {
              "pitch": 38,
              "velocity": 20,
              "position": 21.333333333333332,
              "duration": 0.00625
            },
            {
              "pitch": 54,
              "velocity": 27,
              "position": 21.333333333333332,
              "duration": 0.00625
            },
            {
              "pitch": 35,
              "velocity": 40,
              "position": 21.666666666666668,
              "duration": 0.00625
            },
            {
              "pitch": 44,
              "velocity": 29,
              "position": 21.666666666666668,
              "duration": 0.00625
            },
            {
              "pitch": 54,
              "velocity": 46,
              "position": 21.666666666666668,
              "duration": 0.00625
            },
            {
              "pitch": 35,
              "velocity": 90,
              "position": 22,
              "duration": 0.00625
            },
            {
              "pitch": 54,
              "velocity": 71,
              "position": 22,
              "duration": 0.00625
            },
            {
              "pitch": 59,
              "velocity": 96,
              "position": 22,
              "duration": 0.00625
            },
            {
              "pitch": 38,
              "velocity": 20,
              "position": 22.333333333333332,
              "duration": 0.00625
            },
            {
              "pitch": 54,
              "velocity": 27,
              "position": 22.333333333333332,
              "duration": 0.00625
            },
            {
              "pitch": 35,
              "velocity": 40,
              "position": 22.666666666666668,
              "duration": 0.00625
            },
            {
              "pitch": 44,
              "velocity": 29,
              "position": 22.666666666666668,
              "duration": 0.00625
            },
            {
              "pitch": 54,
              "velocity": 46,
              "position": 22.666666666666668,
              "duration": 0.00625
            },
            {
              "pitch": 39,
              "velocity": 80,
              "position": 22.979166666666668,
              "duration": 0.00625
            },
            {
              "pitch": 38,
              "velocity": 100,
              "position": 23,
              "duration": 0.00625
            },
            {
              "pitch": 49,
              "velocity": 37,
              "position": 23,
              "duration": 0.00625
            },
            {
              "pitch": 54,
              "velocity": 71,
              "position": 23,
              "duration": 0.00625
            },
            {
              "pitch": 57,
              "velocity": 38,
              "position": 23,
              "duration": 0.00625
            },
            {
              "pitch": 38,
              "velocity": 20,
              "position": 23.333333333333332,
              "duration": 0.00625
            },
            {
              "pitch": 54,
              "velocity": 27,
              "position": 23.333333333333332,
              "duration": 0.00625
            },
            {
              "pitch": 35,
              "velocity": 40,
              "position": 23.666666666666668,
              "duration": 0.00625
            },
            {
              "pitch": 44,
              "velocity": 29,
              "position": 23.666666666666668,
              "duration": 0.00625
            },
            {
              "pitch": 54,
              "velocity": 46,
              "position": 23.666666666666668,
              "duration": 0.00625
            },
            {
              "pitch": 35,
              "velocity": 90,
              "position": 24,
              "duration": 0.00625
            },
            {
              "pitch": 54,
              "velocity": 71,
              "position": 24,
              "duration": 0.00625
            },
            {
              "pitch": 59,
              "velocity": 96,
              "position": 24,
              "duration": 0.00625
            },
            {
              "pitch": 38,
              "velocity": 20,
              "position": 24.333333333333332,
              "duration": 0.00625
            },
            {
              "pitch": 54,
              "velocity": 27,
              "position": 24.333333333333332,
              "duration": 0.00625
            },
            {
              "pitch": 35,
              "velocity": 40,
              "position": 24.666666666666668,
              "duration": 0.00625
            },
            {
              "pitch": 44,
              "velocity": 29,
              "position": 24.666666666666668,
              "duration": 0.00625
            },
            {
              "pitch": 54,
              "velocity": 46,
              "position": 24.666666666666668,
              "duration": 0.00625
            },
            {
              "pitch": 39,
              "velocity": 80,
              "position": 24.989583333333332,
              "duration": 0.00625
            },
            {
              "pitch": 38,
              "velocity": 100,
              "position": 25,
              "duration": 0.00625
            },
            {
              "pitch": 49,
              "velocity": 37,
              "position": 25,
              "duration": 0.00625
            },
            {
              "pitch": 54,
              "velocity": 71,
              "position": 25,
              "duration": 0.00625
            },
            {
              "pitch": 57,
              "velocity": 38,
              "position": 25,
              "duration": 0.00625
            },
            {
              "pitch": 38,
              "velocity": 20,
              "position": 25.333333333333332,
              "duration": 0.00625
            },
            {
              "pitch": 54,
              "velocity": 27,
              "position": 25.333333333333332,
              "duration": 0.00625
            },
            {
              "pitch": 35,
              "velocity": 40,
              "position": 25.666666666666668,
              "duration": 0.00625
            },
            {
              "pitch": 44,
              "velocity": 29,
              "position": 25.666666666666668,
              "duration": 0.00625
            },
            {
              "pitch": 54,
              "velocity": 46,
              "position": 25.666666666666668,
              "duration": 0.00625
            },
            {
              "pitch": 35,
              "velocity": 90,
              "position": 26,
              "duration": 0.00625
            },
            {
              "pitch": 54,
              "velocity": 71,
              "position": 26,
              "duration": 0.00625
            },
            {
              "pitch": 59,
              "velocity": 96,
              "position": 26,
              "duration": 0.00625
            },
            {
              "pitch": 38,
              "velocity": 20,
              "position": 26.333333333333332,
              "duration": 0.00625
            },
            {
              "pitch": 54,
              "velocity": 27,
              "position": 26.333333333333332,
              "duration": 0.00625
            },
            {
              "pitch": 35,
              "velocity": 40,
              "position": 26.666666666666668,
              "duration": 0.00625
            },
            {
              "pitch": 44,
              "velocity": 29,
              "position": 26.666666666666668,
              "duration": 0.00625
            },
            {
              "pitch": 54,
              "velocity": 46,
              "position": 26.666666666666668,
              "duration": 0.00625
            },
            {
              "pitch": 39,
              "velocity": 80,
              "position": 26.979166666666668,
              "duration": 0.00625
            },
            {
              "pitch": 38,
              "velocity": 100,
              "position": 27,
              "duration": 0.00625
            },
            {
              "pitch": 49,
              "velocity": 37,
              "position": 27,
              "duration": 0.00625
            },
            {
              "pitch": 54,
              "velocity": 71,
              "position": 27,
              "duration": 0.00625
            },
            {
              "pitch": 57,
              "velocity": 38,
              "position": 27,
              "duration": 0.00625
            },
            {
              "pitch": 38,
              "velocity": 20,
              "position": 27.333333333333332,
              "duration": 0.00625
            },
            {
              "pitch": 54,
              "velocity": 27,
              "position": 27.333333333333332,
              "duration": 0.00625
            },
            {
              "pitch": 35,
              "velocity": 40,
              "position": 27.666666666666668,
              "duration": 0.00625
            },
            {
              "pitch": 44,
              "velocity": 29,
              "position": 27.666666666666668,
              "duration": 0.00625
            },
            {
              "pitch": 54,
              "velocity": 46,
              "position": 27.666666666666668,
              "duration": 0.00625
            },
            {
              "pitch": 35,
              "velocity": 90,
              "position": 28,
              "duration": 0.00625
            },
            {
              "pitch": 54,
              "velocity": 71,
              "position": 28,
              "duration": 0.00625
            },
            {
              "pitch": 59,
              "velocity": 96,
              "position": 28,
              "duration": 0.00625
            },
            {
              "pitch": 38,
              "velocity": 20,
              "position": 28.333333333333332,
              "duration": 0.00625
            },
            {
              "pitch": 54,
              "velocity": 27,
              "position": 28.333333333333332,
              "duration": 0.00625
            },
            {
              "pitch": 35,
              "velocity": 40,
              "position": 28.666666666666668,
              "duration": 0.00625
            },
            {
              "pitch": 44,
              "velocity": 29,
              "position": 28.666666666666668,
              "duration": 0.00625
            },
            {
              "pitch": 54,
              "velocity": 46,
              "position": 28.666666666666668,
              "duration": 0.00625
            },
            {
              "pitch": 39,
              "velocity": 80,
              "position": 28.989583333333332,
              "duration": 0.00625
            },
            {
              "pitch": 38,
              "velocity": 100,
              "position": 29,
              "duration": 0.00625
            },
            {
              "pitch": 49,
              "velocity": 37,
              "position": 29,
              "duration": 0.00625
            },
            {
              "pitch": 54,
              "velocity": 71,
              "position": 29,
              "duration": 0.00625
            },
            {
              "pitch": 57,
              "velocity": 38,
              "position": 29,
              "duration": 0.00625
            },
            {
              "pitch": 38,
              "velocity": 20,
              "position": 29.333333333333332,
              "duration": 0.00625
            },
            {
              "pitch": 54,
              "velocity": 27,
              "position": 29.333333333333332,
              "duration": 0.00625
            },
            {
              "pitch": 35,
              "velocity": 40,
              "position": 29.666666666666668,
              "duration": 0.00625
            },
            {
              "pitch": 44,
              "velocity": 29,
              "position": 29.666666666666668,
              "duration": 0.00625
            },
            {
              "pitch": 54,
              "velocity": 46,
              "position": 29.666666666666668,
              "duration": 0.00625
            },
            {
              "pitch": 35,
              "velocity": 90,
              "position": 30,
              "duration": 0.00625
            },
            {
              "pitch": 54,
              "velocity": 71,
              "position": 30,
              "duration": 0.00625
            },
            {
              "pitch": 59,
              "velocity": 96,
              "position": 30,
              "duration": 0.00625
            },
            {
              "pitch": 38,
              "velocity": 20,
              "position": 30.333333333333332,
              "duration": 0.00625
            },
            {
              "pitch": 54,
              "velocity": 27,
              "position": 30.333333333333332,
              "duration": 0.00625
            },
            {
              "pitch": 35,
              "velocity": 40,
              "position": 30.666666666666668,
              "duration": 0.00625
            },
            {
              "pitch": 44,
              "velocity": 29,
              "position": 30.666666666666668,
              "duration": 0.00625
            },
            {
              "pitch": 54,
              "velocity": 46,
              "position": 30.666666666666668,
              "duration": 0.00625
            },
            {
              "pitch": 39,
              "velocity": 80,
              "position": 30.979166666666668,
              "duration": 0.00625
            },
            {
              "pitch": 38,
              "velocity": 100,
              "position": 31,
              "duration": 0.00625
            },
            {
              "pitch": 49,
              "velocity": 37,
              "position": 31,
              "duration": 0.00625
            },
            {
              "pitch": 54,
              "velocity": 71,
              "position": 31,
              "duration": 0.00625
            },
            {
              "pitch": 57,
              "velocity": 38,
              "position": 31,
              "duration": 0.00625
            },
            {
              "pitch": 38,
              "velocity": 20,
              "position": 31.333333333333332,
              "duration": 0.00625
            },
            {
              "pitch": 54,
              "velocity": 27,
              "position": 31.333333333333332,
              "duration": 0.00625
            },
            {
              "pitch": 35,
              "velocity": 40,
              "position": 31.666666666666668,
              "duration": 0.00625
            },
            {
              "pitch": 44,
              "velocity": 29,
              "position": 31.666666666666668,
              "duration": 0.00625
            },
            {
              "pitch": 54,
              "velocity": 46,
              "position": 31.666666666666668,
              "duration": 0.00625
            }
          ]
        },
        "10": {
          "ctab": {
            "srcChannel": 10,
            "name": "Bass",
            "accType": "BASS",
            "editable": false,
            "mutedNotes": [],
            "mutedChords": [
              "1+2+5",
              "sus4",
              "1+5",
              "1+8",
              "7aug",
              "Maj7aug",
              "7(#9)",
              "7(b13)",
              "7(b9)",
              "7#11",
              "7b5",
              "7sus4",
              "dim",
              "minMaj7(9)",
              "minMaj7",
              "m7b5",
              "min",
              "aug",
              "Maj7#11"
            ],
            "autoStart": false,
            "sourceChordNote": 0,
            "sourceChordType": "Maj7",
            "ctb2Low": null,
            "ctb2Main": {
              "ntr": "ROOT_TRANSPOSITION",
              "ntt": "MELODY",
              "bassOn": true,
              "chordRootUpperLimit": 8,
              "noteLowLimit": 28,
              "noteHighLimit": 51,
              "rtr": "PITCH_SHIFT_TO_ROOT"
            },
            "ctb2High": null
          },
          "notes": [
            {
              "pitch": 24,
              "velocity": 74,
              "position": 0,
              "duration": 0.31875
            },
            {
              "pitch": 48,
              "velocity": 110,
              "position": 0.3333333333333333,
              "duration": 0.08333333333333333
            },
            {
              "pitch": 24,
              "velocity": 100,
              "position": 0.6666666666666666,
              "duration": 0.11458333333333333
            },
            {
              "pitch": 28,
              "velocity": 74,
              "position": 1,
              "duration": 0.9854166666666667
            },
            {
              "pitch": 31,
              "velocity": 74,
              "position": 2,
              "duration": 0.5791666666666667
            },
            {
              "pitch": 31,
              "velocity": 62,
              "position": 2.6666666666666665,
              "duration": 0.07916666666666666
            },
            {
              "pitch": 33,
              "velocity": 74,
              "position": 3,
              "duration": 0.6208333333333333
            },
            {
              "pitch": 31,
              "velocity": 60,
              "position": 3.6666666666666665,
              "duration": 0.31875
            },
            {
              "pitch": 36,
              "velocity": 74,
              "position": 4,
              "duration": 0.31875
            },
            {
              "pitch": 48,
              "velocity": 110,
              "position": 4.333333333333333,
              "duration": 0.08333333333333333
            },
            {
              "pitch": 36,
              "velocity": 100,
              "position": 4.666666666666667,
              "duration": 0.11458333333333333
            },
            {
              "pitch": 33,
              "velocity": 74,
              "position": 5,
              "duration": 0.6625
            },
            {
              "pitch": 33,
              "velocity": 60,
              "position": 5.666666666666667,
              "duration": 0.31875
            },
            {
              "pitch": 31,
              "velocity": 74,
              "position": 6,
              "duration": 0.9854166666666667
            },
            {
              "pitch": 33,
              "velocity": 74,
              "position": 7,
              "duration": 0.6208333333333333
            },
            {
              "pitch": 31,
              "velocity": 60,
              "position": 7.666666666666667,
              "duration": 0.31875
            },
            {
              "pitch": 24,
              "velocity": 74,
              "position": 8,
              "duration": 0.31875
            },
            {
              "pitch": 48,
              "velocity": 110,
              "position": 8.333333333333334,
              "duration": 0.08333333333333333
            },
            {
              "pitch": 24,
              "velocity": 100,
              "position": 8.666666666666666,
              "duration": 0.11458333333333333
            },
            {
              "pitch": 28,
              "velocity": 74,
              "position": 9,
              "duration": 0.9854166666666667
            },
            {
              "pitch": 31,
              "velocity": 74,
              "position": 10,
              "duration": 0.6208333333333333
            },
            {
              "pitch": 28,
              "velocity": 74,
              "position": 10.666666666666666,
              "duration": 0.31875
            },
            {
              "pitch": 28,
              "velocity": 62,
              "position": 11,
              "duration": 0.31875
            },
            {
              "pitch": 31,
              "velocity": 60,
              "position": 11.333333333333334,
              "duration": 0.31875
            },
            {
              "pitch": 33,
              "velocity": 60,
              "position": 11.666666666666666,
              "duration": 0.21458333333333332
            },
            {
              "pitch": 36,
              "velocity": 74,
              "position": 12,
              "duration": 0.31875
            },
            {
              "pitch": 48,
              "velocity": 110,
              "position": 12.333333333333334,
              "duration": 0.08333333333333333
            },
            {
              "pitch": 36,
              "velocity": 100,
              "position": 12.666666666666666,
              "duration": 0.11458333333333333
            },
            {
              "pitch": 28,
              "velocity": 74,
              "position": 13,
              "duration": 0.32916666666666666
            },
            {
              "pitch": 31,
              "velocity": 60,
              "position": 13.333333333333334,
              "duration": 0.31875
            },
            {
              "pitch": 31,
              "velocity": 60,
              "position": 13.666666666666666,
              "duration": 0.31875
            },
            {
              "pitch": 31,
              "velocity": 74,
              "position": 14,
              "duration": 0.5791666666666667
            },
            {
              "pitch": 31,
              "velocity": 60,
              "position": 14.666666666666666,
              "duration": 0.07916666666666666
            },
            {
              "pitch": 28,
              "velocity": 74,
              "position": 15,
              "duration": 0.6208333333333333
            },
            {
              "pitch": 31,
              "velocity": 62,
              "position": 15.666666666666666,
              "duration": 0.31875
            },
            {
              "pitch": 24,
              "velocity": 74,
              "position": 16,
              "duration": 0.31875
            },
            {
              "pitch": 48,
              "velocity": 110,
              "position": 16.333333333333332,
              "duration": 0.08333333333333333
            },
            {
              "pitch": 24,
              "velocity": 100,
              "position": 16.666666666666668,
              "duration": 0.11458333333333333
            },
            {
              "pitch": 28,
              "velocity": 74,
              "position": 17,
              "duration": 0.5791666666666667
            },
            {
              "pitch": 28,
              "velocity": 106,
              "position": 17.666666666666668,
              "duration": 0.10416666666666667
            },
            {
              "pitch": 31,
              "velocity": 74,
              "position": 18,
              "duration": 0.5791666666666667
            },
            {
              "pitch": 31,
              "velocity": 62,
              "position": 18.666666666666668,
              "duration": 0.07916666666666666
            },
            {
              "pitch": 31,
              "velocity": 74,
              "position": 19,
              "duration": 0.31875
            },
            {
              "pitch": 33,
              "velocity": 42,
              "position": 19.333333333333332,
              "duration": 0.31875
            },
            {
              "pitch": 36,
              "velocity": 60,
              "position": 19.666666666666668,
              "duration": 0.6520833333333333
            },
            {
              "pitch": 48,
              "velocity": 110,
              "position": 20.333333333333332,
              "duration": 0.08333333333333333
            },
            {
              "pitch": 24,
              "velocity": 100,
              "position": 20.666666666666668,
              "duration": 0.11458333333333333
            },
            {
              "pitch": 28,
              "velocity": 74,
              "position": 21,
              "duration": 0.32916666666666666
            },
            {
              "pitch": 31,
              "velocity": 42,
              "position": 21.333333333333332,
              "duration": 0.31875
            },
            {
              "pitch": 31,
              "velocity": 60,
              "position": 21.666666666666668,
              "duration": 0.31875
            },
            {
              "pitch": 31,
              "velocity": 74,
              "position": 22,
              "duration": 0.5791666666666667
            },
            {
              "pitch": 31,
              "velocity": 62,
              "position": 22.666666666666668,
              "duration": 0.07916666666666666
            },
            {
              "pitch": 28,
              "velocity": 74,
              "position": 23,
              "duration": 0.6208333333333333
            },
            {
              "pitch": 31,
              "velocity": 60,
              "position": 23.666666666666668,
              "duration": 0.31875
            },
            {
              "pitch": 24,
              "velocity": 74,
              "position": 24,
              "duration": 0.31875
            },
            {
              "pitch": 48,
              "velocity": 110,
              "position": 24.333333333333332,
              "duration": 0.08333333333333333
            },
            {
              "pitch": 24,
              "velocity": 100,
              "position": 24.666666666666668,
              "duration": 0.11458333333333333
            },
            {
              "pitch": 28,
              "velocity": 74,
              "position": 25,
              "duration": 0.32916666666666666
            },
            {
              "pitch": 31,
              "velocity": 57,
              "position": 25.333333333333332,
              "duration": 0.31875
            },
            {
              "pitch": 31,
              "velocity": 60,
              "position": 25.666666666666668,
              "duration": 0.31875
            },
            {
              "pitch": 31,
              "velocity": 74,
              "position": 26,
              "duration": 0.6208333333333333
            },
            {
              "pitch": 31,
              "velocity": 62,
              "position": 26.666666666666668,
              "duration": 0.10416666666666667
            },
            {
              "pitch": 33,
              "velocity": 74,
              "position": 27,
              "duration": 0.6520833333333333
            },
            {
              "pitch": 31,
              "velocity": 60,
              "position": 27.666666666666668,
              "duration": 0.31875
            },
            {
              "pitch": 36,
              "velocity": 74,
              "position": 28,
              "duration": 0.31875
            },
            {
              "pitch": 48,
              "velocity": 110,
              "position": 28.333333333333332,
              "duration": 0.08333333333333333
            },
            {
              "pitch": 36,
              "velocity": 100,
              "position": 28.666666666666668,
              "duration": 0.11458333333333333
            },
            {
              "pitch": 33,
              "velocity": 74,
              "position": 29,
              "duration": 0.6520833333333333
            },
            {
              "pitch": 31,
              "velocity": 60,
              "position": 29.666666666666668,
              "duration": 0.6520833333333333
            },
            {
              "pitch": 31,
              "velocity": 110,
              "position": 30.333333333333332,
              "duration": 0.10416666666666667
            },
            {
              "pitch": 31,
              "velocity": 42,
              "position": 30.666666666666668,
              "duration": 0.31875
            },
            {
              "pitch": 28,
              "velocity": 74,
              "position": 31,
              "duration": 0.6208333333333333
            },
            {
              "pitch": 31,
              "velocity": 60,
              "position": 31.666666666666668,
              "duration": 0.31875
            }
          ]
        },
        "11": {
          "ctab": {
            "srcChannel": 11,
            "name": "Gtr",
            "accType": "CHORD1",
            "editable": false,
            "mutedNotes": [],
            "mutedChords": [],
            "autoStart": false,
            "sourceChordNote": 0,
            "sourceChordType": "Maj7",
            "ctb2Low": null,
            "ctb2Main": {
              "ntr": "ROOT_TRANSPOSITION",
              "ntt": "CHORD",
              "bassOn": false,
              "chordRootUpperLimit": 7,
              "noteLowLimit": 58,
              "noteHighLimit": 69,
              "rtr": "PITCH_SHIFT"
            },
            "ctb2High": null
          },
          "notes": [
            {
              "pitch": 59,
              "velocity": 98,
              "position": 0.3333333333333333,
              "duration": 0.0375
            },
            {
              "pitch": 64,
              "velocity": 98,
              "position": 0.34375,
              "duration": 0.0375
            },
            {
              "pitch": 67,
              "velocity": 98,
              "position": 0.3541666666666667,
              "duration": 0.0375
            },
            {
              "pitch": 59,
              "velocity": 63,
              "position": 0.6666666666666666,
              "duration": 0.027083333333333334
            },
            {
              "pitch": 64,
              "velocity": 63,
              "position": 0.6770833333333334,
              "duration": 0.027083333333333334
            },
            {
              "pitch": 59,
              "velocity": 89,
              "position": 1,
              "duration": 0.31875
            },
            {
              "pitch": 64,
              "velocity": 89,
              "position": 1.0104166666666667,
              "duration": 0.30833333333333335
            },
            {
              "pitch": 67,
              "velocity": 89,
              "position": 1.0208333333333333,
              "duration": 0.29791666666666666
            },
            {
              "pitch": 59,
              "velocity": 55,
              "position": 1.3333333333333333,
              "duration": 0.31875
            },
            {
              "pitch": 64,
              "velocity": 55,
              "position": 1.34375,
              "duration": 0.30833333333333335
            },
            {
              "pitch": 67,
              "velocity": 55,
              "position": 1.3541666666666667,
              "duration": 0.29791666666666666
            },
            {
              "pitch": 59,
              "velocity": 116,
              "position": 1.6666666666666667,
              "duration": 0.12083333333333333
            },
            {
              "pitch": 64,
              "velocity": 116,
              "position": 1.6770833333333333,
              "duration": 0.12083333333333333
            },
            {
              "pitch": 67,
              "velocity": 116,
              "position": 1.6875,
              "duration": 0.12083333333333333
            },
            {
              "pitch": 59,
              "velocity": 79,
              "position": 2,
              "duration": 0.027083333333333334
            },
            {
              "pitch": 64,
              "velocity": 79,
              "position": 2.0104166666666665,
              "duration": 0.027083333333333334
            },
            {
              "pitch": 59,
              "velocity": 98,
              "position": 2.3333333333333335,
              "duration": 0.0375
            },
            {
              "pitch": 64,
              "velocity": 98,
              "position": 2.34375,
              "duration": 0.0375
            },
            {
              "pitch": 67,
              "velocity": 98,
              "position": 2.3541666666666665,
              "duration": 0.0375
            },
            {
              "pitch": 59,
              "velocity": 63,
              "position": 2.6666666666666665,
              "duration": 0.027083333333333334
            },
            {
              "pitch": 64,
              "velocity": 63,
              "position": 2.6770833333333335,
              "duration": 0.027083333333333334
            },
            {
              "pitch": 59,
              "velocity": 89,
              "position": 3,
              "duration": 0.31875
            },
            {
              "pitch": 64,
              "velocity": 89,
              "position": 3.0104166666666665,
              "duration": 0.30833333333333335
            },
            {
              "pitch": 67,
              "velocity": 89,
              "position": 3.0208333333333335,
              "duration": 0.29791666666666666
            },
            {
              "pitch": 59,
              "velocity": 55,
              "position": 3.3333333333333335,
              "duration": 0.31875
            },
            {
              "pitch": 64,
              "velocity": 55,
              "position": 3.34375,
              "duration": 0.30833333333333335
            },
            {
              "pitch": 67,
              "velocity": 55,
              "position": 3.3541666666666665,
              "duration": 0.29791666666666666
            },
            {
              "pitch": 59,
              "velocity": 116,
              "position": 3.6666666666666665,
              "duration": 0.12083333333333333
            },
            {
              "pitch": 64,
              "velocity": 116,
              "position": 3.6770833333333335,
              "duration": 0.12083333333333333
            },
            {
              "pitch": 67,
              "velocity": 116,
              "position": 3.6875,
              "duration": 0.12083333333333333
            },
            {
              "pitch": 59,
              "velocity": 63,
              "position": 4,
              "duration": 0.027083333333333334
            },
            {
              "pitch": 64,
              "velocity": 63,
              "position": 4.010416666666667,
              "duration": 0.027083333333333334
            },
            {
              "pitch": 59,
              "velocity": 98,
              "position": 4.333333333333333,
              "duration": 0.0375
            },
            {
              "pitch": 64,
              "velocity": 98,
              "position": 4.34375,
              "duration": 0.0375
            },
            {
              "pitch": 67,
              "velocity": 98,
              "position": 4.354166666666667,
              "duration": 0.0375
            },
            {
              "pitch": 59,
              "velocity": 63,
              "position": 4.666666666666667,
              "duration": 0.027083333333333334
            },
            {
              "pitch": 64,
              "velocity": 63,
              "position": 4.677083333333333,
              "duration": 0.027083333333333334
            },
            {
              "pitch": 59,
              "velocity": 89,
              "position": 5,
              "duration": 0.31875
            },
            {
              "pitch": 64,
              "velocity": 89,
              "position": 5.010416666666667,
              "duration": 0.30833333333333335
            },
            {
              "pitch": 67,
              "velocity": 89,
              "position": 5.020833333333333,
              "duration": 0.29791666666666666
            },
            {
              "pitch": 59,
              "velocity": 55,
              "position": 5.333333333333333,
              "duration": 0.31875
            },
            {
              "pitch": 64,
              "velocity": 55,
              "position": 5.34375,
              "duration": 0.30833333333333335
            },
            {
              "pitch": 67,
              "velocity": 55,
              "position": 5.354166666666667,
              "duration": 0.29791666666666666
            },
            {
              "pitch": 59,
              "velocity": 116,
              "position": 5.666666666666667,
              "duration": 0.12083333333333333
            },
            {
              "pitch": 64,
              "velocity": 116,
              "position": 5.677083333333333,
              "duration": 0.12083333333333333
            },
            {
              "pitch": 67,
              "velocity": 116,
              "position": 5.6875,
              "duration": 0.12083333333333333
            },
            {
              "pitch": 59,
              "velocity": 79,
              "position": 6,
              "duration": 0.027083333333333334
            },
            {
              "pitch": 64,
              "velocity": 79,
              "position": 6.010416666666667,
              "duration": 0.027083333333333334
            },
            {
              "pitch": 59,
              "velocity": 98,
              "position": 6.333333333333333,
              "duration": 0.0375
            },
            {
              "pitch": 64,
              "velocity": 98,
              "position": 6.34375,
              "duration": 0.0375
            },
            {
              "pitch": 67,
              "velocity": 98,
              "position": 6.354166666666667,
              "duration": 0.0375
            },
            {
              "pitch": 59,
              "velocity": 63,
              "position": 6.666666666666667,
              "duration": 0.027083333333333334
            },
            {
              "pitch": 64,
              "velocity": 63,
              "position": 6.677083333333333,
              "duration": 0.027083333333333334
            },
            {
              "pitch": 59,
              "velocity": 89,
              "position": 7,
              "duration": 0.31875
            },
            {
              "pitch": 64,
              "velocity": 89,
              "position": 7.010416666666667,
              "duration": 0.30833333333333335
            },
            {
              "pitch": 67,
              "velocity": 89,
              "position": 7.020833333333333,
              "duration": 0.29791666666666666
            },
            {
              "pitch": 59,
              "velocity": 55,
              "position": 7.333333333333333,
              "duration": 0.31875
            },
            {
              "pitch": 64,
              "velocity": 55,
              "position": 7.34375,
              "duration": 0.30833333333333335
            },
            {
              "pitch": 67,
              "velocity": 55,
              "position": 7.354166666666667,
              "duration": 0.29791666666666666
            },
            {
              "pitch": 59,
              "velocity": 116,
              "position": 7.666666666666667,
              "duration": 0.12083333333333333
            },
            {
              "pitch": 64,
              "velocity": 116,
              "position": 7.677083333333333,
              "duration": 0.12083333333333333
            },
            {
              "pitch": 67,
              "velocity": 116,
              "position": 7.6875,
              "duration": 0.12083333333333333
            },
            {
              "pitch": 59,
              "velocity": 63,
              "position": 8,
              "duration": 0.027083333333333334
            },
            {
              "pitch": 64,
              "velocity": 63,
              "position": 8.010416666666666,
              "duration": 0.027083333333333334
            },
            {
              "pitch": 59,
              "velocity": 98,
              "position": 8.333333333333334,
              "duration": 0.0375
            },
            {
              "pitch": 64,
              "velocity": 98,
              "position": 8.34375,
              "duration": 0.0375
            },
            {
              "pitch": 67,
              "velocity": 98,
              "position": 8.354166666666666,
              "duration": 0.0375
            },
            {
              "pitch": 59,
              "velocity": 63,
              "position": 8.666666666666666,
              "duration": 0.027083333333333334
            },
            {
              "pitch": 64,
              "velocity": 63,
              "position": 8.677083333333334,
              "duration": 0.027083333333333334
            },
            {
              "pitch": 59,
              "velocity": 89,
              "position": 9,
              "duration": 0.31875
            },
            {
              "pitch": 64,
              "velocity": 89,
              "position": 9.010416666666666,
              "duration": 0.30833333333333335
            },
            {
              "pitch": 67,
              "velocity": 89,
              "position": 9.020833333333334,
              "duration": 0.29791666666666666
            },
            {
              "pitch": 59,
              "velocity": 55,
              "position": 9.333333333333334,
              "duration": 0.31875
            },
            {
              "pitch": 64,
              "velocity": 55,
              "position": 9.34375,
              "duration": 0.30833333333333335
            },
            {
              "pitch": 67,
              "velocity": 55,
              "position": 9.354166666666666,
              "duration": 0.29791666666666666
            },
            {
              "pitch": 59,
              "velocity": 116,
              "position": 9.666666666666666,
              "duration": 0.12083333333333333
            },
            {
              "pitch": 64,
              "velocity": 116,
              "position": 9.677083333333334,
              "duration": 0.12083333333333333
            },
            {
              "pitch": 67,
              "velocity": 116,
              "position": 9.6875,
              "duration": 0.12083333333333333
            },
            {
              "pitch": 59,
              "velocity": 79,
              "position": 10,
              "duration": 0.027083333333333334
            },
            {
              "pitch": 64,
              "velocity": 79,
              "position": 10.010416666666666,
              "duration": 0.027083333333333334
            },
            {
              "pitch": 59,
              "velocity": 98,
              "position": 10.333333333333334,
              "duration": 0.0375
            },
            {
              "pitch": 64,
              "velocity": 98,
              "position": 10.34375,
              "duration": 0.0375
            },
            {
              "pitch": 67,
              "velocity": 98,
              "position": 10.354166666666666,
              "duration": 0.0375
            },
            {
              "pitch": 59,
              "velocity": 63,
              "position": 10.666666666666666,
              "duration": 0.027083333333333334
            },
            {
              "pitch": 64,
              "velocity": 63,
              "position": 10.677083333333334,
              "duration": 0.027083333333333334
            },
            {
              "pitch": 59,
              "velocity": 89,
              "position": 11,
              "duration": 0.31875
            },
            {
              "pitch": 64,
              "velocity": 89,
              "position": 11.010416666666666,
              "duration": 0.30833333333333335
            },
            {
              "pitch": 67,
              "velocity": 89,
              "position": 11.020833333333334,
              "duration": 0.29791666666666666
            },
            {
              "pitch": 59,
              "velocity": 55,
              "position": 11.333333333333334,
              "duration": 0.31875
            },
            {
              "pitch": 64,
              "velocity": 55,
              "position": 11.34375,
              "duration": 0.30833333333333335
            },
            {
              "pitch": 67,
              "velocity": 55,
              "position": 11.354166666666666,
              "duration": 0.29791666666666666
            },
            {
              "pitch": 59,
              "velocity": 116,
              "position": 11.666666666666666,
              "duration": 0.12083333333333333
            },
            {
              "pitch": 64,
              "velocity": 116,
              "position": 11.677083333333334,
              "duration": 0.12083333333333333
            },
            {
              "pitch": 67,
              "velocity": 116,
              "position": 11.6875,
              "duration": 0.12083333333333333
            },
            {
              "pitch": 59,
              "velocity": 63,
              "position": 12,
              "duration": 0.027083333333333334
            },
            {
              "pitch": 64,
              "velocity": 63,
              "position": 12.010416666666666,
              "duration": 0.027083333333333334
            },
            {
              "pitch": 59,
              "velocity": 98,
              "position": 12.333333333333334,
              "duration": 0.0375
            },
            {
              "pitch": 64,
              "velocity": 98,
              "position": 12.34375,
              "duration": 0.0375
            },
            {
              "pitch": 67,
              "velocity": 98,
              "position": 12.354166666666666,
              "duration": 0.0375
            },
            {
              "pitch": 59,
              "velocity": 63,
              "position": 12.666666666666666,
              "duration": 0.027083333333333334
            },
            {
              "pitch": 64,
              "velocity": 63,
              "position": 12.677083333333334,
              "duration": 0.027083333333333334
            },
            {
              "pitch": 59,
              "velocity": 89,
              "position": 13,
              "duration": 0.31875
            },
            {
              "pitch": 64,
              "velocity": 89,
              "position": 13.010416666666666,
              "duration": 0.30833333333333335
            },
            {
              "pitch": 67,
              "velocity": 89,
              "position": 13.020833333333334,
              "duration": 0.29791666666666666
            },
            {
              "pitch": 59,
              "velocity": 55,
              "position": 13.333333333333334,
              "duration": 0.31875
            },
            {
              "pitch": 64,
              "velocity": 55,
              "position": 13.34375,
              "duration": 0.30833333333333335
            },
            {
              "pitch": 67,
              "velocity": 55,
              "position": 13.354166666666666,
              "duration": 0.29791666666666666
            },
            {
              "pitch": 59,
              "velocity": 116,
              "position": 13.666666666666666,
              "duration": 0.12083333333333333
            },
            {
              "pitch": 64,
              "velocity": 116,
              "position": 13.677083333333334,
              "duration": 0.12083333333333333
            },
            {
              "pitch": 67,
              "velocity": 116,
              "position": 13.6875,
              "duration": 0.12083333333333333
            },
            {
              "pitch": 59,
              "velocity": 79,
              "position": 14,
              "duration": 0.027083333333333334
            },
            {
              "pitch": 64,
              "velocity": 79,
              "position": 14.010416666666666,
              "duration": 0.027083333333333334
            },
            {
              "pitch": 59,
              "velocity": 98,
              "position": 14.333333333333334,
              "duration": 0.0375
            },
            {
              "pitch": 64,
              "velocity": 98,
              "position": 14.34375,
              "duration": 0.0375
            },
            {
              "pitch": 67,
              "velocity": 98,
              "position": 14.354166666666666,
              "duration": 0.0375
            },
            {
              "pitch": 59,
              "velocity": 63,
              "position": 14.666666666666666,
              "duration": 0.027083333333333334
            },
            {
              "pitch": 64,
              "velocity": 63,
              "position": 14.677083333333334,
              "duration": 0.027083333333333334
            },
            {
              "pitch": 59,
              "velocity": 89,
              "position": 15,
              "duration": 0.31875
            },
            {
              "pitch": 64,
              "velocity": 89,
              "position": 15.010416666666666,
              "duration": 0.30833333333333335
            },
            {
              "pitch": 67,
              "velocity": 89,
              "position": 15.020833333333334,
              "duration": 0.29791666666666666
            },
            {
              "pitch": 59,
              "velocity": 55,
              "position": 15.333333333333334,
              "duration": 0.31875
            },
            {
              "pitch": 64,
              "velocity": 55,
              "position": 15.34375,
              "duration": 0.30833333333333335
            },
            {
              "pitch": 67,
              "velocity": 55,
              "position": 15.354166666666666,
              "duration": 0.29791666666666666
            },
            {
              "pitch": 59,
              "velocity": 116,
              "position": 15.666666666666666,
              "duration": 0.12083333333333333
            },
            {
              "pitch": 64,
              "velocity": 116,
              "position": 15.677083333333334,
              "duration": 0.12083333333333333
            },
            {
              "pitch": 67,
              "velocity": 116,
              "position": 15.6875,
              "duration": 0.12083333333333333
            },
            {
              "pitch": 59,
              "velocity": 63,
              "position": 16,
              "duration": 0.027083333333333334
            },
            {
              "pitch": 64,
              "velocity": 63,
              "position": 16.010416666666668,
              "duration": 0.027083333333333334
            },
            {
              "pitch": 59,
              "velocity": 98,
              "position": 16.333333333333332,
              "duration": 0.0375
            },
            {
              "pitch": 64,
              "velocity": 98,
              "position": 16.34375,
              "duration": 0.0375
            },
            {
              "pitch": 67,
              "velocity": 98,
              "position": 16.354166666666668,
              "duration": 0.0375
            },
            {
              "pitch": 59,
              "velocity": 63,
              "position": 16.666666666666668,
              "duration": 0.027083333333333334
            },
            {
              "pitch": 64,
              "velocity": 63,
              "position": 16.677083333333332,
              "duration": 0.027083333333333334
            },
            {
              "pitch": 59,
              "velocity": 89,
              "position": 17,
              "duration": 0.31875
            },
            {
              "pitch": 64,
              "velocity": 89,
              "position": 17.010416666666668,
              "duration": 0.30833333333333335
            },
            {
              "pitch": 67,
              "velocity": 89,
              "position": 17.020833333333332,
              "duration": 0.29791666666666666
            },
            {
              "pitch": 59,
              "velocity": 55,
              "position": 17.333333333333332,
              "duration": 0.31875
            },
            {
              "pitch": 64,
              "velocity": 55,
              "position": 17.34375,
              "duration": 0.30833333333333335
            },
            {
              "pitch": 67,
              "velocity": 55,
              "position": 17.354166666666668,
              "duration": 0.29791666666666666
            },
            {
              "pitch": 59,
              "velocity": 116,
              "position": 17.666666666666668,
              "duration": 0.12083333333333333
            },
            {
              "pitch": 64,
              "velocity": 116,
              "position": 17.677083333333332,
              "duration": 0.12083333333333333
            },
            {
              "pitch": 67,
              "velocity": 116,
              "position": 17.6875,
              "duration": 0.12083333333333333
            },
            {
              "pitch": 59,
              "velocity": 79,
              "position": 18,
              "duration": 0.027083333333333334
            },
            {
              "pitch": 64,
              "velocity": 79,
              "position": 18.010416666666668,
              "duration": 0.027083333333333334
            },
            {
              "pitch": 59,
              "velocity": 98,
              "position": 18.333333333333332,
              "duration": 0.0375
            },
            {
              "pitch": 64,
              "velocity": 98,
              "position": 18.34375,
              "duration": 0.0375
            },
            {
              "pitch": 67,
              "velocity": 98,
              "position": 18.354166666666668,
              "duration": 0.0375
            },
            {
              "pitch": 59,
              "velocity": 63,
              "position": 18.666666666666668,
              "duration": 0.027083333333333334
            },
            {
              "pitch": 64,
              "velocity": 63,
              "position": 18.677083333333332,
              "duration": 0.027083333333333334
            },
            {
              "pitch": 59,
              "velocity": 89,
              "position": 19,
              "duration": 0.31875
            },
            {
              "pitch": 64,
              "velocity": 89,
              "position": 19.010416666666668,
              "duration": 0.30833333333333335
            },
            {
              "pitch": 67,
              "velocity": 89,
              "position": 19.020833333333332,
              "duration": 0.29791666666666666
            },
            {
              "pitch": 59,
              "velocity": 55,
              "position": 19.333333333333332,
              "duration": 0.31875
            },
            {
              "pitch": 64,
              "velocity": 55,
              "position": 19.34375,
              "duration": 0.30833333333333335
            },
            {
              "pitch": 67,
              "velocity": 55,
              "position": 19.354166666666668,
              "duration": 0.29791666666666666
            },
            {
              "pitch": 59,
              "velocity": 116,
              "position": 19.666666666666668,
              "duration": 0.12083333333333333
            },
            {
              "pitch": 64,
              "velocity": 116,
              "position": 19.677083333333332,
              "duration": 0.12083333333333333
            },
            {
              "pitch": 67,
              "velocity": 116,
              "position": 19.6875,
              "duration": 0.12083333333333333
            },
            {
              "pitch": 59,
              "velocity": 63,
              "position": 20,
              "duration": 0.027083333333333334
            },
            {
              "pitch": 64,
              "velocity": 63,
              "position": 20.010416666666668,
              "duration": 0.027083333333333334
            },
            {
              "pitch": 59,
              "velocity": 98,
              "position": 20.333333333333332,
              "duration": 0.0375
            },
            {
              "pitch": 64,
              "velocity": 98,
              "position": 20.34375,
              "duration": 0.0375
            },
            {
              "pitch": 67,
              "velocity": 98,
              "position": 20.354166666666668,
              "duration": 0.0375
            },
            {
              "pitch": 59,
              "velocity": 63,
              "position": 20.666666666666668,
              "duration": 0.027083333333333334
            },
            {
              "pitch": 64,
              "velocity": 63,
              "position": 20.677083333333332,
              "duration": 0.027083333333333334
            },
            {
              "pitch": 59,
              "velocity": 89,
              "position": 21,
              "duration": 0.31875
            },
            {
              "pitch": 64,
              "velocity": 89,
              "position": 21.010416666666668,
              "duration": 0.30833333333333335
            },
            {
              "pitch": 67,
              "velocity": 89,
              "position": 21.020833333333332,
              "duration": 0.29791666666666666
            },
            {
              "pitch": 59,
              "velocity": 55,
              "position": 21.333333333333332,
              "duration": 0.31875
            },
            {
              "pitch": 64,
              "velocity": 55,
              "position": 21.34375,
              "duration": 0.30833333333333335
            },
            {
              "pitch": 67,
              "velocity": 55,
              "position": 21.354166666666668,
              "duration": 0.29791666666666666
            },
            {
              "pitch": 59,
              "velocity": 116,
              "position": 21.666666666666668,
              "duration": 0.12083333333333333
            },
            {
              "pitch": 64,
              "velocity": 116,
              "position": 21.677083333333332,
              "duration": 0.12083333333333333
            },
            {
              "pitch": 67,
              "velocity": 116,
              "position": 21.6875,
              "duration": 0.12083333333333333
            },
            {
              "pitch": 59,
              "velocity": 79,
              "position": 22,
              "duration": 0.027083333333333334
            },
            {
              "pitch": 64,
              "velocity": 79,
              "position": 22.010416666666668,
              "duration": 0.027083333333333334
            },
            {
              "pitch": 59,
              "velocity": 98,
              "position": 22.333333333333332,
              "duration": 0.0375
            },
            {
              "pitch": 64,
              "velocity": 98,
              "position": 22.34375,
              "duration": 0.0375
            },
            {
              "pitch": 67,
              "velocity": 98,
              "position": 22.354166666666668,
              "duration": 0.0375
            },
            {
              "pitch": 59,
              "velocity": 63,
              "position": 22.666666666666668,
              "duration": 0.027083333333333334
            },
            {
              "pitch": 64,
              "velocity": 63,
              "position": 22.677083333333332,
              "duration": 0.027083333333333334
            },
            {
              "pitch": 59,
              "velocity": 89,
              "position": 23,
              "duration": 0.31875
            },
            {
              "pitch": 64,
              "velocity": 89,
              "position": 23.010416666666668,
              "duration": 0.30833333333333335
            },
            {
              "pitch": 67,
              "velocity": 89,
              "position": 23.020833333333332,
              "duration": 0.29791666666666666
            },
            {
              "pitch": 59,
              "velocity": 55,
              "position": 23.333333333333332,
              "duration": 0.31875
            },
            {
              "pitch": 64,
              "velocity": 55,
              "position": 23.34375,
              "duration": 0.30833333333333335
            },
            {
              "pitch": 67,
              "velocity": 55,
              "position": 23.354166666666668,
              "duration": 0.29791666666666666
            },
            {
              "pitch": 59,
              "velocity": 116,
              "position": 23.666666666666668,
              "duration": 0.12083333333333333
            },
            {
              "pitch": 64,
              "velocity": 116,
              "position": 23.677083333333332,
              "duration": 0.12083333333333333
            },
            {
              "pitch": 67,
              "velocity": 116,
              "position": 23.6875,
              "duration": 0.12083333333333333
            },
            {
              "pitch": 59,
              "velocity": 63,
              "position": 24,
              "duration": 0.027083333333333334
            },
            {
              "pitch": 64,
              "velocity": 63,
              "position": 24.010416666666668,
              "duration": 0.027083333333333334
            },
            {
              "pitch": 59,
              "velocity": 98,
              "position": 24.333333333333332,
              "duration": 0.0375
            },
            {
              "pitch": 64,
              "velocity": 98,
              "position": 24.34375,
              "duration": 0.0375
            },
            {
              "pitch": 67,
              "velocity": 98,
              "position": 24.354166666666668,
              "duration": 0.0375
            },
            {
              "pitch": 59,
              "velocity": 63,
              "position": 24.666666666666668,
              "duration": 0.027083333333333334
            },
            {
              "pitch": 64,
              "velocity": 63,
              "position": 24.677083333333332,
              "duration": 0.027083333333333334
            },
            {
              "pitch": 59,
              "velocity": 89,
              "position": 25,
              "duration": 0.31875
            },
            {
              "pitch": 64,
              "velocity": 89,
              "position": 25.010416666666668,
              "duration": 0.30833333333333335
            },
            {
              "pitch": 67,
              "velocity": 89,
              "position": 25.020833333333332,
              "duration": 0.29791666666666666
            },
            {
              "pitch": 59,
              "velocity": 55,
              "position": 25.333333333333332,
              "duration": 0.31875
            },
            {
              "pitch": 64,
              "velocity": 55,
              "position": 25.34375,
              "duration": 0.30833333333333335
            },
            {
              "pitch": 67,
              "velocity": 55,
              "position": 25.354166666666668,
              "duration": 0.29791666666666666
            },
            {
              "pitch": 59,
              "velocity": 116,
              "position": 25.666666666666668,
              "duration": 0.12083333333333333
            },
            {
              "pitch": 64,
              "velocity": 116,
              "position": 25.677083333333332,
              "duration": 0.12083333333333333
            },
            {
              "pitch": 67,
              "velocity": 116,
              "position": 25.6875,
              "duration": 0.12083333333333333
            },
            {
              "pitch": 59,
              "velocity": 79,
              "position": 26,
              "duration": 0.027083333333333334
            },
            {
              "pitch": 64,
              "velocity": 79,
              "position": 26.010416666666668,
              "duration": 0.027083333333333334
            },
            {
              "pitch": 59,
              "velocity": 98,
              "position": 26.333333333333332,
              "duration": 0.0375
            },
            {
              "pitch": 64,
              "velocity": 98,
              "position": 26.34375,
              "duration": 0.0375
            },
            {
              "pitch": 67,
              "velocity": 98,
              "position": 26.354166666666668,
              "duration": 0.0375
            },
            {
              "pitch": 59,
              "velocity": 63,
              "position": 26.666666666666668,
              "duration": 0.027083333333333334
            },
            {
              "pitch": 64,
              "velocity": 63,
              "position": 26.677083333333332,
              "duration": 0.027083333333333334
            },
            {
              "pitch": 59,
              "velocity": 89,
              "position": 27,
              "duration": 0.31875
            },
            {
              "pitch": 64,
              "velocity": 89,
              "position": 27.010416666666668,
              "duration": 0.30833333333333335
            },
            {
              "pitch": 67,
              "velocity": 89,
              "position": 27.020833333333332,
              "duration": 0.29791666666666666
            },
            {
              "pitch": 59,
              "velocity": 55,
              "position": 27.333333333333332,
              "duration": 0.31875
            },
            {
              "pitch": 64,
              "velocity": 55,
              "position": 27.34375,
              "duration": 0.30833333333333335
            },
            {
              "pitch": 67,
              "velocity": 55,
              "position": 27.354166666666668,
              "duration": 0.29791666666666666
            },
            {
              "pitch": 59,
              "velocity": 116,
              "position": 27.666666666666668,
              "duration": 0.12083333333333333
            },
            {
              "pitch": 64,
              "velocity": 116,
              "position": 27.677083333333332,
              "duration": 0.12083333333333333
            },
            {
              "pitch": 67,
              "velocity": 116,
              "position": 27.6875,
              "duration": 0.12083333333333333
            },
            {
              "pitch": 59,
              "velocity": 63,
              "position": 28,
              "duration": 0.027083333333333334
            },
            {
              "pitch": 64,
              "velocity": 63,
              "position": 28.010416666666668,
              "duration": 0.027083333333333334
            },
            {
              "pitch": 59,
              "velocity": 98,
              "position": 28.333333333333332,
              "duration": 0.0375
            },
            {
              "pitch": 64,
              "velocity": 98,
              "position": 28.34375,
              "duration": 0.0375
            },
            {
              "pitch": 67,
              "velocity": 98,
              "position": 28.354166666666668,
              "duration": 0.0375
            },
            {
              "pitch": 59,
              "velocity": 63,
              "position": 28.666666666666668,
              "duration": 0.027083333333333334
            },
            {
              "pitch": 64,
              "velocity": 63,
              "position": 28.677083333333332,
              "duration": 0.027083333333333334
            },
            {
              "pitch": 59,
              "velocity": 89,
              "position": 29,
              "duration": 0.31875
            },
            {
              "pitch": 64,
              "velocity": 89,
              "position": 29.010416666666668,
              "duration": 0.30833333333333335
            },
            {
              "pitch": 67,
              "velocity": 89,
              "position": 29.020833333333332,
              "duration": 0.29791666666666666
            },
            {
              "pitch": 59,
              "velocity": 55,
              "position": 29.333333333333332,
              "duration": 0.31875
            },
            {
              "pitch": 64,
              "velocity": 55,
              "position": 29.34375,
              "duration": 0.30833333333333335
            },
            {
              "pitch": 67,
              "velocity": 55,
              "position": 29.354166666666668,
              "duration": 0.29791666666666666
            },
            {
              "pitch": 59,
              "velocity": 116,
              "position": 29.666666666666668,
              "duration": 0.12083333333333333
            },
            {
              "pitch": 64,
              "velocity": 116,
              "position": 29.677083333333332,
              "duration": 0.12083333333333333
            },
            {
              "pitch": 67,
              "velocity": 116,
              "position": 29.6875,
              "duration": 0.12083333333333333
            },
            {
              "pitch": 59,
              "velocity": 79,
              "position": 30,
              "duration": 0.027083333333333334
            },
            {
              "pitch": 64,
              "velocity": 79,
              "position": 30.010416666666668,
              "duration": 0.027083333333333334
            },
            {
              "pitch": 59,
              "velocity": 98,
              "position": 30.333333333333332,
              "duration": 0.0375
            },
            {
              "pitch": 64,
              "velocity": 98,
              "position": 30.34375,
              "duration": 0.0375
            },
            {
              "pitch": 67,
              "velocity": 98,
              "position": 30.354166666666668,
              "duration": 0.0375
            },
            {
              "pitch": 59,
              "velocity": 63,
              "position": 30.666666666666668,
              "duration": 0.027083333333333334
            },
            {
              "pitch": 64,
              "velocity": 63,
              "position": 30.677083333333332,
              "duration": 0.027083333333333334
            },
            {
              "pitch": 59,
              "velocity": 89,
              "position": 31,
              "duration": 0.31875
            },
            {
              "pitch": 64,
              "velocity": 89,
              "position": 31.010416666666668,
              "duration": 0.30833333333333335
            },
            {
              "pitch": 67,
              "velocity": 89,
              "position": 31.020833333333332,
              "duration": 0.29791666666666666
            },
            {
              "pitch": 59,
              "velocity": 55,
              "position": 31.333333333333332,
              "duration": 0.31875
            },
            {
              "pitch": 64,
              "velocity": 55,
              "position": 31.34375,
              "duration": 0.30833333333333335
            },
            {
              "pitch": 67,
              "velocity": 55,
              "position": 31.354166666666668,
              "duration": 0.29791666666666666
            },
            {
              "pitch": 59,
              "velocity": 116,
              "position": 31.666666666666668,
              "duration": 0.12083333333333333
            },
            {
              "pitch": 64,
              "velocity": 116,
              "position": 31.677083333333332,
              "duration": 0.12083333333333333
            },
            {
              "pitch": 67,
              "velocity": 116,
              "position": 31.6875,
              "duration": 0.12083333333333333
            }
          ]
        },
        "12": {
          "ctab": {
            "srcChannel": 12,
            "name": "Pno RH",
            "accType": "CHORD2",
            "editable": false,
            "mutedNotes": [],
            "mutedChords": [
              "min7",
              "min",
              "Maj"
            ],
            "autoStart": false,
            "sourceChordNote": 0,
            "sourceChordType": "Maj7",
            "ctb2Low": null,
            "ctb2Main": {
              "ntr": "ROOT_FIXED",
              "ntt": "CHORD",
              "bassOn": false,
              "chordRootUpperLimit": 7,
              "noteLowLimit": 0,
              "noteHighLimit": 79,
              "rtr": "PITCH_SHIFT"
            },
            "ctb2High": null
          },
          "notes": [
            {
              "pitch": 55,
              "velocity": 112,
              "position": 0,
              "duration": 0.7458333333333333
            },
            {
              "pitch": 59,
              "velocity": 112,
              "position": 0,
              "duration": 0.7458333333333333
            },
            {
              "pitch": 64,
              "velocity": 112,
              "position": 0,
              "duration": 0.7458333333333333
            },
            {
              "pitch": 72,
              "velocity": 103,
              "position": 1,
              "duration": 0.31875
            },
            {
              "pitch": 79,
              "velocity": 103,
              "position": 1,
              "duration": 0.31875
            },
            {
              "pitch": 84,
              "velocity": 103,
              "position": 1,
              "duration": 0.31875
            },
            {
              "pitch": 72,
              "velocity": 103,
              "position": 1.3333333333333333,
              "duration": 0.31875
            },
            {
              "pitch": 79,
              "velocity": 103,
              "position": 1.3333333333333333,
              "duration": 0.31875
            },
            {
              "pitch": 84,
              "velocity": 103,
              "position": 1.3333333333333333,
              "duration": 0.31875
            },
            {
              "pitch": 55,
              "velocity": 99,
              "position": 1.6666666666666667,
              "duration": 0.12083333333333333
            },
            {
              "pitch": 59,
              "velocity": 99,
              "position": 1.6666666666666667,
              "duration": 0.12083333333333333
            },
            {
              "pitch": 64,
              "velocity": 99,
              "position": 1.6666666666666667,
              "duration": 0.12083333333333333
            },
            {
              "pitch": 72,
              "velocity": 103,
              "position": 1.6666666666666667,
              "duration": 0.31875
            },
            {
              "pitch": 79,
              "velocity": 103,
              "position": 1.6666666666666667,
              "duration": 0.31875
            },
            {
              "pitch": 84,
              "velocity": 103,
              "position": 1.6666666666666667,
              "duration": 0.31875
            },
            {
              "pitch": 72,
              "velocity": 103,
              "position": 2,
              "duration": 0.31875
            },
            {
              "pitch": 79,
              "velocity": 103,
              "position": 2,
              "duration": 0.31875
            },
            {
              "pitch": 84,
              "velocity": 103,
              "position": 2,
              "duration": 0.31875
            },
            {
              "pitch": 72,
              "velocity": 103,
              "position": 2.3333333333333335,
              "duration": 0.31875
            },
            {
              "pitch": 79,
              "velocity": 103,
              "position": 2.3333333333333335,
              "duration": 0.31875
            },
            {
              "pitch": 84,
              "velocity": 103,
              "position": 2.3333333333333335,
              "duration": 0.31875
            },
            {
              "pitch": 55,
              "velocity": 99,
              "position": 2.6666666666666665,
              "duration": 0.12083333333333333
            },
            {
              "pitch": 59,
              "velocity": 99,
              "position": 2.6666666666666665,
              "duration": 0.12083333333333333
            },
            {
              "pitch": 64,
              "velocity": 99,
              "position": 2.6666666666666665,
              "duration": 0.12083333333333333
            },
            {
              "pitch": 72,
              "velocity": 103,
              "position": 2.6666666666666665,
              "duration": 0.31875
            },
            {
              "pitch": 79,
              "velocity": 103,
              "position": 2.6666666666666665,
              "duration": 0.31875
            },
            {
              "pitch": 84,
              "velocity": 103,
              "position": 2.6666666666666665,
              "duration": 0.31875
            },
            {
              "pitch": 72,
              "velocity": 103,
              "position": 3,
              "duration": 0.31875
            },
            {
              "pitch": 79,
              "velocity": 103,
              "position": 3,
              "duration": 0.31875
            },
            {
              "pitch": 84,
              "velocity": 103,
              "position": 3,
              "duration": 0.31875
            },
            {
              "pitch": 72,
              "velocity": 103,
              "position": 3.3333333333333335,
              "duration": 0.31875
            },
            {
              "pitch": 79,
              "velocity": 103,
              "position": 3.3333333333333335,
              "duration": 0.31875
            },
            {
              "pitch": 84,
              "velocity": 103,
              "position": 3.3333333333333335,
              "duration": 0.31875
            },
            {
              "pitch": 55,
              "velocity": 99,
              "position": 3.6666666666666665,
              "duration": 0.12083333333333333
            },
            {
              "pitch": 59,
              "velocity": 99,
              "position": 3.6666666666666665,
              "duration": 0.12083333333333333
            },
            {
              "pitch": 64,
              "velocity": 99,
              "position": 3.6666666666666665,
              "duration": 0.12083333333333333
            },
            {
              "pitch": 72,
              "velocity": 103,
              "position": 3.6666666666666665,
              "duration": 0.31875
            },
            {
              "pitch": 79,
              "velocity": 103,
              "position": 3.6666666666666665,
              "duration": 0.31875
            },
            {
              "pitch": 84,
              "velocity": 103,
              "position": 3.6666666666666665,
              "duration": 0.31875
            },
            {
              "pitch": 55,
              "velocity": 112,
              "position": 4,
              "duration": 0.6520833333333333
            },
            {
              "pitch": 59,
              "velocity": 112,
              "position": 4,
              "duration": 0.6520833333333333
            },
            {
              "pitch": 64,
              "velocity": 112,
              "position": 4,
              "duration": 0.6520833333333333
            },
            {
              "pitch": 72,
              "velocity": 103,
              "position": 4,
              "duration": 0.6520833333333333
            },
            {
              "pitch": 79,
              "velocity": 103,
              "position": 4,
              "duration": 0.6520833333333333
            },
            {
              "pitch": 84,
              "velocity": 103,
              "position": 4,
              "duration": 0.6520833333333333
            },
            {
              "pitch": 55,
              "velocity": 112,
              "position": 4.666666666666667,
              "duration": 0.6520833333333333
            },
            {
              "pitch": 59,
              "velocity": 112,
              "position": 4.666666666666667,
              "duration": 0.6520833333333333
            },
            {
              "pitch": 64,
              "velocity": 112,
              "position": 4.666666666666667,
              "duration": 0.6520833333333333
            },
            {
              "pitch": 76,
              "velocity": 103,
              "position": 4.666666666666667,
              "duration": 0.6520833333333333
            },
            {
              "pitch": 79,
              "velocity": 103,
              "position": 4.666666666666667,
              "duration": 0.6520833333333333
            },
            {
              "pitch": 83,
              "velocity": 103,
              "position": 4.666666666666667,
              "duration": 0.6520833333333333
            },
            {
              "pitch": 55,
              "velocity": 112,
              "position": 5.333333333333333,
              "duration": 0.6520833333333333
            },
            {
              "pitch": 59,
              "velocity": 112,
              "position": 5.333333333333333,
              "duration": 0.6520833333333333
            },
            {
              "pitch": 64,
              "velocity": 112,
              "position": 5.333333333333333,
              "duration": 0.6520833333333333
            },
            {
              "pitch": 76,
              "velocity": 103,
              "position": 5.333333333333333,
              "duration": 0.6520833333333333
            },
            {
              "pitch": 79,
              "velocity": 103,
              "position": 5.333333333333333,
              "duration": 0.6520833333333333
            },
            {
              "pitch": 83,
              "velocity": 103,
              "position": 5.333333333333333,
              "duration": 0.6520833333333333
            },
            {
              "pitch": 55,
              "velocity": 112,
              "position": 6,
              "duration": 0.6520833333333333
            },
            {
              "pitch": 59,
              "velocity": 112,
              "position": 6,
              "duration": 0.6520833333333333
            },
            {
              "pitch": 64,
              "velocity": 112,
              "position": 6,
              "duration": 0.6520833333333333
            },
            {
              "pitch": 76,
              "velocity": 103,
              "position": 6,
              "duration": 0.6520833333333333
            },
            {
              "pitch": 79,
              "velocity": 103,
              "position": 6,
              "duration": 0.6520833333333333
            },
            {
              "pitch": 83,
              "velocity": 103,
              "position": 6,
              "duration": 0.6520833333333333
            },
            {
              "pitch": 55,
              "velocity": 112,
              "position": 6.666666666666667,
              "duration": 0.6520833333333333
            },
            {
              "pitch": 59,
              "velocity": 112,
              "position": 6.666666666666667,
              "duration": 0.6520833333333333
            },
            {
              "pitch": 64,
              "velocity": 112,
              "position": 6.666666666666667,
              "duration": 0.6520833333333333
            },
            {
              "pitch": 71,
              "velocity": 103,
              "position": 6.666666666666667,
              "duration": 0.6520833333333333
            },
            {
              "pitch": 76,
              "velocity": 103,
              "position": 6.666666666666667,
              "duration": 0.6520833333333333
            },
            {
              "pitch": 79,
              "velocity": 103,
              "position": 6.666666666666667,
              "duration": 0.6520833333333333
            },
            {
              "pitch": 55,
              "velocity": 112,
              "position": 7.333333333333333,
              "duration": 0.6520833333333333
            },
            {
              "pitch": 59,
              "velocity": 112,
              "position": 7.333333333333333,
              "duration": 0.6520833333333333
            },
            {
              "pitch": 64,
              "velocity": 112,
              "position": 7.333333333333333,
              "duration": 0.6520833333333333
            },
            {
              "pitch": 71,
              "velocity": 103,
              "position": 7.333333333333333,
              "duration": 0.6520833333333333
            },
            {
              "pitch": 76,
              "velocity": 103,
              "position": 7.333333333333333,
              "duration": 0.6520833333333333
            },
            {
              "pitch": 79,
              "velocity": 103,
              "position": 7.333333333333333,
              "duration": 0.6520833333333333
            },
            {
              "pitch": 55,
              "velocity": 112,
              "position": 8,
              "duration": 0.6520833333333333
            },
            {
              "pitch": 59,
              "velocity": 112,
              "position": 8,
              "duration": 0.6520833333333333
            },
            {
              "pitch": 64,
              "velocity": 112,
              "position": 8,
              "duration": 0.6520833333333333
            },
            {
              "pitch": 71,
              "velocity": 103,
              "position": 8,
              "duration": 0.6520833333333333
            },
            {
              "pitch": 76,
              "velocity": 103,
              "position": 8,
              "duration": 0.6520833333333333
            },
            {
              "pitch": 79,
              "velocity": 103,
              "position": 8,
              "duration": 0.6520833333333333
            },
            {
              "pitch": 64,
              "velocity": 112,
              "position": 8.666666666666666,
              "duration": 0.6520833333333333
            },
            {
              "pitch": 67,
              "velocity": 103,
              "position": 8.666666666666666,
              "duration": 0.6520833333333333
            },
            {
              "pitch": 71,
              "velocity": 103,
              "position": 8.666666666666666,
              "duration": 0.6520833333333333
            },
            {
              "pitch": 59,
              "velocity": 112,
              "position": 9.333333333333334,
              "duration": 0.6520833333333333
            },
            {
              "pitch": 64,
              "velocity": 112,
              "position": 9.333333333333334,
              "duration": 0.6520833333333333
            },
            {
              "pitch": 67,
              "velocity": 103,
              "position": 9.333333333333334,
              "duration": 0.6520833333333333
            },
            {
              "pitch": 55,
              "velocity": 112,
              "position": 10,
              "duration": 0.9854166666666667
            },
            {
              "pitch": 59,
              "velocity": 112,
              "position": 10,
              "duration": 0.9854166666666667
            },
            {
              "pitch": 64,
              "velocity": 112,
              "position": 10,
              "duration": 0.9854166666666667
            },
            {
              "pitch": 55,
              "velocity": 112,
              "position": 11,
              "duration": 0.9854166666666667
            },
            {
              "pitch": 59,
              "velocity": 112,
              "position": 11,
              "duration": 0.9854166666666667
            },
            {
              "pitch": 64,
              "velocity": 112,
              "position": 11,
              "duration": 0.9854166666666667
            },
            {
              "pitch": 55,
              "velocity": 112,
              "position": 12,
              "duration": 0.9854166666666667
            },
            {
              "pitch": 59,
              "velocity": 112,
              "position": 12,
              "duration": 0.9854166666666667
            },
            {
              "pitch": 64,
              "velocity": 112,
              "position": 12,
              "duration": 0.9854166666666667
            },
            {
              "pitch": 64,
              "velocity": 112,
              "position": 13,
              "duration": 0.9854166666666667
            },
            {
              "pitch": 67,
              "velocity": 116,
              "position": 13,
              "duration": 0.9854166666666667
            },
            {
              "pitch": 71,
              "velocity": 116,
              "position": 13,
              "duration": 0.9854166666666667
            },
            {
              "pitch": 59,
              "velocity": 112,
              "position": 14,
              "duration": 0.9854166666666667
            },
            {
              "pitch": 64,
              "velocity": 112,
              "position": 14,
              "duration": 0.9854166666666667
            },
            {
              "pitch": 67,
              "velocity": 116,
              "position": 14,
              "duration": 0.9854166666666667
            },
            {
              "pitch": 59,
              "velocity": 112,
              "position": 15,
              "duration": 0.6520833333333333
            },
            {
              "pitch": 64,
              "velocity": 112,
              "position": 15,
              "duration": 0.6520833333333333
            },
            {
              "pitch": 67,
              "velocity": 116,
              "position": 15,
              "duration": 0.6520833333333333
            },
            {
              "pitch": 55,
              "velocity": 112,
              "position": 15.666666666666666,
              "duration": 0.8395833333333333
            },
            {
              "pitch": 59,
              "velocity": 112,
              "position": 15.666666666666666,
              "duration": 0.8395833333333333
            },
            {
              "pitch": 64,
              "velocity": 112,
              "position": 15.666666666666666,
              "duration": 0.8395833333333333
            },
            {
              "pitch": 76,
              "velocity": 116,
              "position": 16.333333333333332,
              "duration": 0.17291666666666666
            },
            {
              "pitch": 79,
              "velocity": 116,
              "position": 16.333333333333332,
              "duration": 0.17291666666666666
            },
            {
              "pitch": 83,
              "velocity": 116,
              "position": 16.333333333333332,
              "duration": 0.17291666666666666
            },
            {
              "pitch": 55,
              "velocity": 94,
              "position": 16.666666666666668,
              "duration": 0.07916666666666666
            },
            {
              "pitch": 59,
              "velocity": 94,
              "position": 16.666666666666668,
              "duration": 0.07916666666666666
            },
            {
              "pitch": 64,
              "velocity": 94,
              "position": 16.666666666666668,
              "duration": 0.07916666666666666
            },
            {
              "pitch": 76,
              "velocity": 116,
              "position": 17,
              "duration": 0.9854166666666667
            },
            {
              "pitch": 79,
              "velocity": 116,
              "position": 17,
              "duration": 0.9854166666666667
            },
            {
              "pitch": 83,
              "velocity": 116,
              "position": 17,
              "duration": 0.9854166666666667
            },
            {
              "pitch": 76,
              "velocity": 116,
              "position": 18.333333333333332,
              "duration": 0.17291666666666666
            },
            {
              "pitch": 79,
              "velocity": 116,
              "position": 18.333333333333332,
              "duration": 0.17291666666666666
            },
            {
              "pitch": 83,
              "velocity": 116,
              "position": 18.333333333333332,
              "duration": 0.17291666666666666
            },
            {
              "pitch": 55,
              "velocity": 112,
              "position": 17.666666666666668,
              "duration": 0.8395833333333333
            },
            {
              "pitch": 59,
              "velocity": 112,
              "position": 17.666666666666668,
              "duration": 0.8395833333333333
            },
            {
              "pitch": 64,
              "velocity": 112,
              "position": 17.666666666666668,
              "duration": 0.8395833333333333
            },
            {
              "pitch": 55,
              "velocity": 94,
              "position": 18.666666666666668,
              "duration": 0.07916666666666666
            },
            {
              "pitch": 59,
              "velocity": 94,
              "position": 18.666666666666668,
              "duration": 0.07916666666666666
            },
            {
              "pitch": 64,
              "velocity": 94,
              "position": 18.666666666666668,
              "duration": 0.07916666666666666
            },
            {
              "pitch": 76,
              "velocity": 116,
              "position": 19,
              "duration": 0.9854166666666667
            },
            {
              "pitch": 79,
              "velocity": 116,
              "position": 19,
              "duration": 0.9854166666666667
            },
            {
              "pitch": 83,
              "velocity": 116,
              "position": 19,
              "duration": 0.9854166666666667
            },
            {
              "pitch": 76,
              "velocity": 116,
              "position": 20.333333333333332,
              "duration": 0.17291666666666666
            },
            {
              "pitch": 79,
              "velocity": 116,
              "position": 20.333333333333332,
              "duration": 0.17291666666666666
            },
            {
              "pitch": 83,
              "velocity": 116,
              "position": 20.333333333333332,
              "duration": 0.17291666666666666
            },
            {
              "pitch": 55,
              "velocity": 112,
              "position": 19.666666666666668,
              "duration": 0.8395833333333333
            },
            {
              "pitch": 59,
              "velocity": 112,
              "position": 19.666666666666668,
              "duration": 0.8395833333333333
            },
            {
              "pitch": 64,
              "velocity": 112,
              "position": 19.666666666666668,
              "duration": 0.8395833333333333
            },
            {
              "pitch": 55,
              "velocity": 94,
              "position": 20.666666666666668,
              "duration": 0.07916666666666666
            },
            {
              "pitch": 59,
              "velocity": 94,
              "position": 20.666666666666668,
              "duration": 0.07916666666666666
            },
            {
              "pitch": 64,
              "velocity": 94,
              "position": 20.666666666666668,
              "duration": 0.07916666666666666
            },
            {
              "pitch": 71,
              "velocity": 116,
              "position": 21,
              "duration": 0.6520833333333333
            },
            {
              "pitch": 76,
              "velocity": 116,
              "position": 21,
              "duration": 0.6520833333333333
            },
            {
              "pitch": 79,
              "velocity": 116,
              "position": 21,
              "duration": 0.6520833333333333
            },
            {
              "pitch": 71,
              "velocity": 116,
              "position": 21.666666666666668,
              "duration": 0.6520833333333333
            },
            {
              "pitch": 76,
              "velocity": 116,
              "position": 21.666666666666668,
              "duration": 0.6520833333333333
            },
            {
              "pitch": 79,
              "velocity": 116,
              "position": 21.666666666666668,
              "duration": 0.6520833333333333
            },
            {
              "pitch": 64,
              "velocity": 112,
              "position": 22.333333333333332,
              "duration": 0.6520833333333333
            },
            {
              "pitch": 67,
              "velocity": 116,
              "position": 22.333333333333332,
              "duration": 0.6520833333333333
            },
            {
              "pitch": 71,
              "velocity": 116,
              "position": 22.333333333333332,
              "duration": 0.6520833333333333
            },
            {
              "pitch": 59,
              "velocity": 112,
              "position": 23,
              "duration": 0.6520833333333333
            },
            {
              "pitch": 64,
              "velocity": 112,
              "position": 23,
              "duration": 0.6520833333333333
            },
            {
              "pitch": 67,
              "velocity": 116,
              "position": 23,
              "duration": 0.6520833333333333
            },
            {
              "pitch": 55,
              "velocity": 112,
              "position": 23.666666666666668,
              "duration": 1.31875
            },
            {
              "pitch": 59,
              "velocity": 112,
              "position": 23.666666666666668,
              "duration": 1.31875
            },
            {
              "pitch": 64,
              "velocity": 112,
              "position": 23.666666666666668,
              "duration": 1.31875
            },
            {
              "pitch": 55,
              "velocity": 112,
              "position": 25,
              "duration": 0.9854166666666667
            },
            {
              "pitch": 59,
              "velocity": 112,
              "position": 25,
              "duration": 0.9854166666666667
            },
            {
              "pitch": 64,
              "velocity": 112,
              "position": 25,
              "duration": 0.9854166666666667
            },
            {
              "pitch": 72,
              "velocity": 116,
              "position": 26.333333333333332,
              "duration": 0.6520833333333333
            },
            {
              "pitch": 84,
              "velocity": 116,
              "position": 26.333333333333332,
              "duration": 0.6520833333333333
            },
            {
              "pitch": 72,
              "velocity": 116,
              "position": 27,
              "duration": 0.6520833333333333
            },
            {
              "pitch": 84,
              "velocity": 116,
              "position": 27,
              "duration": 0.6520833333333333
            },
            {
              "pitch": 55,
              "velocity": 112,
              "position": 26,
              "duration": 1.9854166666666666
            },
            {
              "pitch": 59,
              "velocity": 112,
              "position": 26,
              "duration": 1.9854166666666666
            },
            {
              "pitch": 64,
              "velocity": 112,
              "position": 26,
              "duration": 1.9854166666666666
            },
            {
              "pitch": 72,
              "velocity": 116,
              "position": 27.666666666666668,
              "duration": 0.6520833333333333
            },
            {
              "pitch": 84,
              "velocity": 116,
              "position": 27.666666666666668,
              "duration": 0.6520833333333333
            },
            {
              "pitch": 55,
              "velocity": 112,
              "position": 28.333333333333332,
              "duration": 0.6520833333333333
            },
            {
              "pitch": 59,
              "velocity": 112,
              "position": 28.333333333333332,
              "duration": 0.6520833333333333
            },
            {
              "pitch": 64,
              "velocity": 112,
              "position": 28.333333333333332,
              "duration": 0.6520833333333333
            },
            {
              "pitch": 55,
              "velocity": 112,
              "position": 29,
              "duration": 0.6520833333333333
            },
            {
              "pitch": 59,
              "velocity": 112,
              "position": 29,
              "duration": 0.6520833333333333
            },
            {
              "pitch": 64,
              "velocity": 112,
              "position": 29,
              "duration": 0.6520833333333333
            },
            {
              "pitch": 55,
              "velocity": 112,
              "position": 29.666666666666668,
              "duration": 0.6520833333333333
            },
            {
              "pitch": 59,
              "velocity": 112,
              "position": 29.666666666666668,
              "duration": 0.6520833333333333
            },
            {
              "pitch": 64,
              "velocity": 112,
              "position": 29.666666666666668,
              "duration": 0.6520833333333333
            },
            {
              "pitch": 55,
              "velocity": 112,
              "position": 30.333333333333332,
              "duration": 0.6520833333333333
            },
            {
              "pitch": 59,
              "velocity": 112,
              "position": 30.333333333333332,
              "duration": 0.6520833333333333
            },
            {
              "pitch": 64,
              "velocity": 112,
              "position": 30.333333333333332,
              "duration": 0.6520833333333333
            },
            {
              "pitch": 55,
              "velocity": 112,
              "position": 31,
              "duration": 0.9854166666666667
            },
            {
              "pitch": 59,
              "velocity": 112,
              "position": 31,
              "duration": 0.9854166666666667
            },
            {
              "pitch": 64,
              "velocity": 112,
              "position": 31,
              "duration": 0.9854166666666667
            }
          ]
        },
        "13": {
          "ctab": {
            "srcChannel": 13,
            "name": "Pno LH",
            "accType": "CHORD2",
            "editable": false,
            "mutedNotes": [],
            "mutedChords": [],
            "autoStart": false,
            "sourceChordNote": 0,
            "sourceChordType": "Maj7",
            "ctb2Low": null,
            "ctb2Main": {
              "ntr": "ROOT_TRANSPOSITION",
              "ntt": "MELODY",
              "bassOn": true,
              "chordRootUpperLimit": 5,
              "noteLowLimit": 0,
              "noteHighLimit": 127,
              "rtr": "PITCH_SHIFT"
            },
            "ctb2High": null
          },
          "notes": [
            {
              "pitch": 36,
              "velocity": 112,
              "position": 0,
              "duration": 0.9854166666666667
            },
            {
              "pitch": 40,
              "velocity": 112,
              "position": 1,
              "duration": 0.9854166666666667
            },
            {
              "pitch": 43,
              "velocity": 112,
              "position": 2,
              "duration": 0.9854166666666667
            },
            {
              "pitch": 45,
              "velocity": 112,
              "position": 3,
              "duration": 0.9854166666666667
            },
            {
              "pitch": 48,
              "velocity": 112,
              "position": 4,
              "duration": 0.9854166666666667
            },
            {
              "pitch": 45,
              "velocity": 112,
              "position": 5,
              "duration": 0.9854166666666667
            },
            {
              "pitch": 43,
              "velocity": 112,
              "position": 6,
              "duration": 0.9854166666666667
            },
            {
              "pitch": 45,
              "velocity": 112,
              "position": 7,
              "duration": 0.9854166666666667
            },
            {
              "pitch": 36,
              "velocity": 112,
              "position": 8,
              "duration": 0.9854166666666667
            },
            {
              "pitch": 40,
              "velocity": 112,
              "position": 9,
              "duration": 0.9854166666666667
            },
            {
              "pitch": 43,
              "velocity": 112,
              "position": 10,
              "duration": 0.9854166666666667
            },
            {
              "pitch": 40,
              "velocity": 112,
              "position": 11,
              "duration": 0.9854166666666667
            },
            {
              "pitch": 48,
              "velocity": 112,
              "position": 12,
              "duration": 0.9854166666666667
            },
            {
              "pitch": 40,
              "velocity": 112,
              "position": 13,
              "duration": 0.9854166666666667
            },
            {
              "pitch": 43,
              "velocity": 112,
              "position": 14,
              "duration": 0.9854166666666667
            },
            {
              "pitch": 40,
              "velocity": 112,
              "position": 15,
              "duration": 0.9854166666666667
            },
            {
              "pitch": 36,
              "velocity": 112,
              "position": 16,
              "duration": 0.9854166666666667
            },
            {
              "pitch": 40,
              "velocity": 112,
              "position": 17,
              "duration": 0.9854166666666667
            },
            {
              "pitch": 43,
              "velocity": 112,
              "position": 18,
              "duration": 0.9854166666666667
            },
            {
              "pitch": 43,
              "velocity": 112,
              "position": 19,
              "duration": 0.9854166666666667
            },
            {
              "pitch": 36,
              "velocity": 112,
              "position": 20,
              "duration": 0.9854166666666667
            },
            {
              "pitch": 40,
              "velocity": 112,
              "position": 21,
              "duration": 0.9854166666666667
            },
            {
              "pitch": 43,
              "velocity": 112,
              "position": 22,
              "duration": 0.9854166666666667
            },
            {
              "pitch": 40,
              "velocity": 112,
              "position": 23,
              "duration": 0.9854166666666667
            },
            {
              "pitch": 36,
              "velocity": 112,
              "position": 24,
              "duration": 0.9854166666666667
            },
            {
              "pitch": 40,
              "velocity": 112,
              "position": 25,
              "duration": 0.9854166666666667
            },
            {
              "pitch": 43,
              "velocity": 112,
              "position": 26,
              "duration": 0.9854166666666667
            },
            {
              "pitch": 45,
              "velocity": 112,
              "position": 27,
              "duration": 0.9854166666666667
            },
            {
              "pitch": 48,
              "velocity": 112,
              "position": 28,
              "duration": 0.9854166666666667
            },
            {
              "pitch": 45,
              "velocity": 112,
              "position": 29,
              "duration": 0.9854166666666667
            },
            {
              "pitch": 43,
              "velocity": 112,
              "position": 30,
              "duration": 0.9854166666666667
            },
            {
              "pitch": 40,
              "velocity": 112,
              "position": 31,
              "duration": 0.9854166666666667
            }
          ]
        },
        "14": {
          "ctab": {
            "srcChannel": 14,
            "name": "Organ",
            "accType": "PAD",
            "editable": false,
            "mutedNotes": [],
            "mutedChords": [
              "min7",
              "min",
              "Maj"
            ],
            "autoStart": false,
            "sourceChordNote": 0,
            "sourceChordType": "Maj7",
            "ctb2Low": null,
            "ctb2Main": {
              "ntr": "ROOT_FIXED",
              "ntt": "CHORD",
              "bassOn": false,
              "chordRootUpperLimit": 7,
              "noteLowLimit": 0,
              "noteHighLimit": 79,
              "rtr": "PITCH_SHIFT"
            },
            "ctb2High": null
          },
          "notes": [
            {
              "pitch": 55,
              "velocity": 108,
              "position": 0.010416666666666666,
              "duration": 31.975
            },
            {
              "pitch": 59,
              "velocity": 108,
              "position": 0.010416666666666666,
              "duration": 31.975
            },
            {
              "pitch": 64,
              "velocity": 108,
              "position": 0.010416666666666666,
              "duration": 31.975
            },
            {
              "pitch": 72,
              "velocity": 108,
              "position": 0.010416666666666666,
              "duration": 31.985416666666666
            },
            {
              "pitch": 84,
              "velocity": 108,
              "position": 0.010416666666666666,
              "duration": 31.985416666666666
            }
          ]
        },
        "15": {
          "ctab": {
            "srcChannel": 15,
            "name": "Choir",
            "accType": "PHRASE1",
            "editable": false,
            "mutedNotes": [],
            "mutedChords": [
              "min7",
              "min",
              "Maj"
            ],
            "autoStart": false,
            "sourceChordNote": 0,
            "sourceChordType": "Maj7",
            "ctb2Low": null,
            "ctb2Main": {
              "ntr": "ROOT_FIXED",
              "ntt": "CHORD",
              "bassOn": false,
              "chordRootUpperLimit": 7,
              "noteLowLimit": 57,
              "noteHighLimit": 79,
              "rtr": "PITCH_SHIFT"
            },
            "ctb2High": null
          },
          "notes": [
            {
              "pitch": 47,
              "velocity": 50,
              "position": 0.010416666666666666,
              "duration": 0.975
            },
            {
              "pitch": 52,
              "velocity": 50,
              "position": 0.010416666666666666,
              "duration": 0.975
            },
            {
              "pitch": 55,
              "velocity": 50,
              "position": 0.010416666666666666,
              "duration": 0.975
            },
            {
              "pitch": 79,
              "velocity": 50,
              "position": 1,
              "duration": 0.6520833333333333
            },
            {
              "pitch": 83,
              "velocity": 50,
              "position": 1,
              "duration": 0.6520833333333333
            },
            {
              "pitch": 88,
              "velocity": 50,
              "position": 1,
              "duration": 0.6520833333333333
            },
            {
              "pitch": 79,
              "velocity": 50,
              "position": 3,
              "duration": 0.9854166666666667
            },
            {
              "pitch": 83,
              "velocity": 50,
              "position": 3,
              "duration": 0.9854166666666667
            },
            {
              "pitch": 88,
              "velocity": 50,
              "position": 3,
              "duration": 0.9854166666666667
            },
            {
              "pitch": 79,
              "velocity": 50,
              "position": 4,
              "duration": 0.31875
            },
            {
              "pitch": 83,
              "velocity": 50,
              "position": 4,
              "duration": 0.31875
            },
            {
              "pitch": 88,
              "velocity": 50,
              "position": 4,
              "duration": 0.31875
            },
            {
              "pitch": 47,
              "velocity": 50,
              "position": 5,
              "duration": 3.975
            },
            {
              "pitch": 52,
              "velocity": 50,
              "position": 5,
              "duration": 3.975
            },
            {
              "pitch": 55,
              "velocity": 50,
              "position": 5,
              "duration": 3.975
            },
            {
              "pitch": 79,
              "velocity": 50,
              "position": 9,
              "duration": 1.9854166666666666
            },
            {
              "pitch": 83,
              "velocity": 50,
              "position": 9,
              "duration": 1.9854166666666666
            },
            {
              "pitch": 88,
              "velocity": 50,
              "position": 9,
              "duration": 1.9854166666666666
            },
            {
              "pitch": 79,
              "velocity": 50,
              "position": 11,
              "duration": 0.9854166666666667
            },
            {
              "pitch": 83,
              "velocity": 50,
              "position": 11,
              "duration": 0.9854166666666667
            },
            {
              "pitch": 88,
              "velocity": 50,
              "position": 11,
              "duration": 0.9854166666666667
            },
            {
              "pitch": 79,
              "velocity": 50,
              "position": 12,
              "duration": 0.31875
            },
            {
              "pitch": 83,
              "velocity": 50,
              "position": 12,
              "duration": 0.31875
            },
            {
              "pitch": 88,
              "velocity": 50,
              "position": 12,
              "duration": 0.31875
            },
            {
              "pitch": 47,
              "velocity": 50,
              "position": 13,
              "duration": 3.975
            },
            {
              "pitch": 52,
              "velocity": 50,
              "position": 13,
              "duration": 3.975
            },
            {
              "pitch": 55,
              "velocity": 50,
              "position": 13,
              "duration": 3.975
            },
            {
              "pitch": 79,
              "velocity": 50,
              "position": 17,
              "duration": 0.6520833333333333
            },
            {
              "pitch": 83,
              "velocity": 50,
              "position": 17,
              "duration": 0.6520833333333333
            },
            {
              "pitch": 88,
              "velocity": 50,
              "position": 17,
              "duration": 0.6520833333333333
            },
            {
              "pitch": 79,
              "velocity": 50,
              "position": 19,
              "duration": 0.9854166666666667
            },
            {
              "pitch": 83,
              "velocity": 50,
              "position": 19,
              "duration": 0.9854166666666667
            },
            {
              "pitch": 88,
              "velocity": 50,
              "position": 19,
              "duration": 0.9854166666666667
            },
            {
              "pitch": 79,
              "velocity": 50,
              "position": 20,
              "duration": 0.31875
            },
            {
              "pitch": 83,
              "velocity": 50,
              "position": 20,
              "duration": 0.31875
            },
            {
              "pitch": 88,
              "velocity": 50,
              "position": 20,
              "duration": 0.31875
            },
            {
              "pitch": 47,
              "velocity": 50,
              "position": 21,
              "duration": 3.975
            },
            {
              "pitch": 52,
              "velocity": 50,
              "position": 21,
              "duration": 3.975
            },
            {
              "pitch": 55,
              "velocity": 50,
              "position": 21,
              "duration": 3.975
            },
            {
              "pitch": 79,
              "velocity": 50,
              "position": 25,
              "duration": 1.9854166666666666
            },
            {
              "pitch": 83,
              "velocity": 50,
              "position": 25,
              "duration": 1.9854166666666666
            },
            {
              "pitch": 88,
              "velocity": 50,
              "position": 25,
              "duration": 1.9854166666666666
            },
            {
              "pitch": 79,
              "velocity": 50,
              "position": 27,
              "duration": 0.9854166666666667
            },
            {
              "pitch": 83,
              "velocity": 50,
              "position": 27,
              "duration": 0.9854166666666667
            },
            {
              "pitch": 88,
              "velocity": 50,
              "position": 27,
              "duration": 0.9854166666666667
            },
            {
              "pitch": 79,
              "velocity": 50,
              "position": 28,
              "duration": 0.31875
            },
            {
              "pitch": 83,
              "velocity": 50,
              "position": 28,
              "duration": 0.31875
            },
            {
              "pitch": 88,
              "velocity": 50,
              "position": 28,
              "duration": 0.31875
            },
            {
              "pitch": 47,
              "velocity": 50,
              "position": 29,
              "duration": 2.975
            },
            {
              "pitch": 52,
              "velocity": 50,
              "position": 29,
              "duration": 2.975
            },
            {
              "pitch": 55,
              "velocity": 50,
              "position": 29,
              "duration": 2.975
            }
          ]
        }
      }
    },
    "Fill_In_CC": {
      "type": "Fill_In_CC",
      "sizeInBeats": 4,
      "channels": {
        "1": {
          "ctab": {
            "srcChannel": 1,
            "name": "Bass 2",
            "accType": "BASS",
            "editable": false,
            "mutedNotes": [],
            "mutedChords": [
              "7(13)",
              "7(9)",
              "7th",
              "dim7",
              "min7(11)",
              "min7(9)",
              "min(9)",
              "min7",
              "min6",
              "Maj6(9)",
              "Maj7(9)",
              "Maj(9)",
              "Maj7",
              "Maj6",
              "Maj"
            ],
            "autoStart": false,
            "sourceChordNote": 0,
            "sourceChordType": "Maj7",
            "ctb2Low": null,
            "ctb2Main": {
              "ntr": "ROOT_TRANSPOSITION",
              "ntt": "MELODY",
              "bassOn": true,
              "chordRootUpperLimit": 8,
              "noteLowLimit": 28,
              "noteHighLimit": 51,
              "rtr": "PITCH_SHIFT_TO_ROOT"
            },
            "ctb2High": null
          },
          "notes": [
            {
              "pitch": 24,
              "velocity": 74,
              "position": 0,
              "duration": 0.6208333333333333
            },
            {
              "pitch": 28,
              "velocity": 74,
              "position": 0.6666666666666666,
              "duration": 0.6208333333333333
            },
            {
              "pitch": 29,
              "velocity": 74,
              "position": 1.3333333333333333,
              "duration": 0.6208333333333333
            },
            {
              "pitch": 31,
              "velocity": 74,
              "position": 2,
              "duration": 0.6208333333333333
            },
            {
              "pitch": 33,
              "velocity": 74,
              "position": 2.6666666666666665,
              "duration": 0.6208333333333333
            },
            {
              "pitch": 36,
              "velocity": 74,
              "position": 3.3333333333333335,
              "duration": 0.6208333333333333
            }
          ]
        },
        "2": {
          "ctab": {
            "srcChannel": 2,
            "name": "Gt Root",
            "accType": "CHORD1",
            "editable": false,
            "mutedNotes": [],
            "mutedChords": [
              "1+2+5",
              "sus4",
              "1+5",
              "1+8",
              "Maj7aug",
              "7th",
              "dim",
              "minMaj7(9)",
              "minMaj7",
              "min6",
              "min",
              "aug",
              "Maj7(9)",
              "Maj7#11",
              "Maj7",
              "Maj6",
              "Maj"
            ],
            "autoStart": false,
            "sourceChordNote": 0,
            "sourceChordType": "Maj7",
            "ctb2Low": null,
            "ctb2Main": {
              "ntr": "ROOT_TRANSPOSITION",
              "ntt": "CHORD",
              "bassOn": false,
              "chordRootUpperLimit": 9,
              "noteLowLimit": 58,
              "noteHighLimit": 69,
              "rtr": "PITCH_SHIFT"
            },
            "ctb2High": null
          },
          "notes": [
            {
              "pitch": 60,
              "velocity": 98,
              "position": 0.3333333333333333,
              "duration": 0.027083333333333334
            },
            {
              "pitch": 60,
              "velocity": 80,
              "position": 0.6666666666666666,
              "duration": 0.027083333333333334
            },
            {
              "pitch": 60,
              "velocity": 116,
              "position": 1,
              "duration": 0.6416666666666667
            },
            {
              "pitch": 60,
              "velocity": 64,
              "position": 1.6666666666666667,
              "duration": 0.30833333333333335
            },
            {
              "pitch": 60,
              "velocity": 36,
              "position": 2,
              "duration": 0.6416666666666667
            },
            {
              "pitch": 60,
              "velocity": 116,
              "position": 2.6666666666666665,
              "duration": 0.12083333333333333
            }
          ]
        },
        "3": {
          "ctab": {
            "srcChannel": 3,
            "name": "Pno 2",
            "accType": "CHORD2",
            "editable": false,
            "mutedNotes": [],
            "mutedChords": [
              "1+2+5",
              "sus4",
              "1+5",
              "1+8",
              "7aug",
              "Maj7aug",
              "7(#9)",
              "7(b13)",
              "7(b9)",
              "7(13)",
              "7#11",
              "7(9)",
              "7b5",
              "7sus4",
              "7th",
              "dim7",
              "dim",
              "minMaj7(9)",
              "minMaj7",
              "min7(11)",
              "min7(9)",
              "min(9)",
              "m7b5",
              "min6",
              "aug",
              "Maj6(9)",
              "Maj7(9)",
              "Maj(9)",
              "Maj7#11",
              "Maj7",
              "Maj6"
            ],
            "autoStart": false,
            "sourceChordNote": 0,
            "sourceChordType": "Maj7",
            "ctb2Low": null,
            "ctb2Main": {
              "ntr": "ROOT_TRANSPOSITION",
              "ntt": "MELODIC_MINOR",
              "bassOn": false,
              "chordRootUpperLimit": 6,
              "noteLowLimit": 54,
              "noteHighLimit": 79,
              "rtr": "PITCH_SHIFT"
            },
            "ctb2High": null
          },
          "notes": [
            {
              "pitch": 43,
              "velocity": 116,
              "position": 0,
              "duration": 0.475
            },
            {
              "pitch": 48,
              "velocity": 116,
              "position": 0,
              "duration": 0.475
            },
            {
              "pitch": 52,
              "velocity": 116,
              "position": 0,
              "duration": 0.475
            },
            {
              "pitch": 72,
              "velocity": 116,
              "position": 0,
              "duration": 0.475
            },
            {
              "pitch": 84,
              "velocity": 116,
              "position": 0,
              "duration": 0.475
            },
            {
              "pitch": 74,
              "velocity": 116,
              "position": 0.6666666666666666,
              "duration": 0.475
            },
            {
              "pitch": 77,
              "velocity": 116,
              "position": 0.6666666666666666,
              "duration": 0.475
            },
            {
              "pitch": 82,
              "velocity": 116,
              "position": 0.6666666666666666,
              "duration": 0.475
            },
            {
              "pitch": 72,
              "velocity": 116,
              "position": 1.3333333333333333,
              "duration": 0.475
            },
            {
              "pitch": 77,
              "velocity": 116,
              "position": 1.3333333333333333,
              "duration": 0.475
            },
            {
              "pitch": 81,
              "velocity": 116,
              "position": 1.3333333333333333,
              "duration": 0.475
            },
            {
              "pitch": 72,
              "velocity": 116,
              "position": 2,
              "duration": 0.475
            },
            {
              "pitch": 76,
              "velocity": 116,
              "position": 2,
              "duration": 0.475
            },
            {
              "pitch": 79,
              "velocity": 116,
              "position": 2,
              "duration": 0.475
            },
            {
              "pitch": 67,
              "velocity": 116,
              "position": 2.6666666666666665,
              "duration": 0.475
            },
            {
              "pitch": 70,
              "velocity": 116,
              "position": 2.6666666666666665,
              "duration": 0.475
            },
            {
              "pitch": 75,
              "velocity": 116,
              "position": 2.6666666666666665,
              "duration": 0.475
            },
            {
              "pitch": 65,
              "velocity": 116,
              "position": 3.3333333333333335,
              "duration": 0.475
            },
            {
              "pitch": 69,
              "velocity": 116,
              "position": 3.3333333333333335,
              "duration": 0.475
            },
            {
              "pitch": 74,
              "velocity": 116,
              "position": 3.3333333333333335,
              "duration": 0.475
            }
          ]
        },
        "5": {
          "ctab": {
            "srcChannel": 5,
            "name": "Org 2",
            "accType": "PAD",
            "editable": false,
            "mutedNotes": [],
            "mutedChords": [
              "1+2+5",
              "sus4",
              "1+5",
              "1+8",
              "7aug",
              "Maj7aug",
              "7(#9)",
              "7(b13)",
              "7(b9)",
              "7(13)",
              "7#11",
              "7(9)",
              "7b5",
              "7sus4",
              "7th",
              "dim7",
              "dim",
              "minMaj7(9)",
              "minMaj7",
              "min7(11)",
              "min7(9)",
              "min(9)",
              "m7b5",
              "min6",
              "aug",
              "Maj6(9)",
              "Maj7(9)",
              "Maj(9)",
              "Maj7#11",
              "Maj7",
              "Maj6"
            ],
            "autoStart": false,
            "sourceChordNote": 0,
            "sourceChordType": "Maj7",
            "ctb2Low": null,
            "ctb2Main": {
              "ntr": "ROOT_TRANSPOSITION",
              "ntt": "MELODIC_MINOR",
              "bassOn": false,
              "chordRootUpperLimit": 6,
              "noteLowLimit": 57,
              "noteHighLimit": 79,
              "rtr": "PITCH_SHIFT"
            },
            "ctb2High": null
          },
          "notes": [
            {
              "pitch": 72,
              "velocity": 108,
              "position": 0.010416666666666666,
              "duration": 3.975
            },
            {
              "pitch": 84,
              "velocity": 108,
              "position": 0.010416666666666666,
              "duration": 3.975
            }
          ]
        },
        "6": {
          "ctab": {
            "srcChannel": 6,
            "name": "Choir 2",
            "accType": "PHRASE1",
            "editable": false,
            "mutedNotes": [],
            "mutedChords": [
              "1+2+5",
              "sus4",
              "1+5",
              "1+8",
              "7aug",
              "Maj7aug",
              "7(#9)",
              "7(b13)",
              "7(b9)",
              "7(13)",
              "7#11",
              "7(9)",
              "7b5",
              "7sus4",
              "7th",
              "dim7",
              "dim",
              "minMaj7(9)",
              "minMaj7",
              "min7(11)",
              "min7(9)",
              "min(9)",
              "m7b5",
              "min6",
              "aug",
              "Maj6(9)",
              "Maj7(9)",
              "Maj(9)",
              "Maj7#11",
              "Maj7",
              "Maj6"
            ],
            "autoStart": false,
            "sourceChordNote": 0,
            "sourceChordType": "Maj7",
            "ctb2Low": null,
            "ctb2Main": {
              "ntr": "ROOT_TRANSPOSITION",
              "ntt": "MELODIC_MINOR",
              "bassOn": false,
              "chordRootUpperLimit": 6,
              "noteLowLimit": 57,
              "noteHighLimit": 79,
              "rtr": "PITCH_SHIFT"
            },
            "ctb2High": null
          },
          "notes": [
            {
              "pitch": 62,
              "velocity": 50,
              "position": 0.6666666666666666,
              "duration": 0.6520833333333333
            },
            {
              "pitch": 65,
              "velocity": 50,
              "position": 0.6666666666666666,
              "duration": 0.6520833333333333
            },
            {
              "pitch": 70,
              "velocity": 50,
              "position": 0.6666666666666666,
              "duration": 0.6520833333333333
            },
            {
              "pitch": 60,
              "velocity": 50,
              "position": 1.3333333333333333,
              "duration": 0.6520833333333333
            },
            {
              "pitch": 65,
              "velocity": 50,
              "position": 1.3333333333333333,
              "duration": 0.6520833333333333
            },
            {
              "pitch": 69,
              "velocity": 50,
              "position": 1.3333333333333333,
              "duration": 0.6520833333333333
            },
            {
              "pitch": 60,
              "velocity": 50,
              "position": 2,
              "duration": 0.6520833333333333
            },
            {
              "pitch": 64,
              "velocity": 50,
              "position": 2,
              "duration": 0.6520833333333333
            },
            {
              "pitch": 67,
              "velocity": 50,
              "position": 2,
              "duration": 0.6520833333333333
            },
            {
              "pitch": 55,
              "velocity": 50,
              "position": 2.6666666666666665,
              "duration": 0.6520833333333333
            },
            {
              "pitch": 58,
              "velocity": 50,
              "position": 2.6666666666666665,
              "duration": 0.6520833333333333
            },
            {
              "pitch": 63,
              "velocity": 50,
              "position": 2.6666666666666665,
              "duration": 0.6520833333333333
            },
            {
              "pitch": 53,
              "velocity": 50,
              "position": 3.3333333333333335,
              "duration": 0.6520833333333333
            },
            {
              "pitch": 57,
              "velocity": 50,
              "position": 3.3333333333333335,
              "duration": 0.6520833333333333
            },
            {
              "pitch": 62,
              "velocity": 50,
              "position": 3.3333333333333335,
              "duration": 0.6520833333333333
            }
          ]
        },
        "7": {
          "ctab": {
            "srcChannel": 7,
            "name": "CC_Crash",
            "accType": "RHYTHM",
            "editable": false,
            "mutedNotes": [],
            "mutedChords": [
              "1+2+5",
              "sus4",
              "1+5",
              "1+8",
              "7aug",
              "Maj7aug",
              "7(#9)",
              "7(b13)",
              "7(b9)",
              "7(13)",
              "7#11",
              "7(9)",
              "7b5",
              "7sus4",
              "7th",
              "dim7",
              "dim",
              "minMaj7(9)",
              "minMaj7",
              "min7(11)",
              "min7(9)",
              "min(9)",
              "m7b5",
              "min7",
              "min6",
              "min",
              "aug",
              "Maj6(9)",
              "Maj7(9)",
              "Maj(9)",
              "Maj7#11",
              "Maj7",
              "Maj6",
              "Maj"
            ],
            "autoStart": true,
            "sourceChordNote": 0,
            "sourceChordType": "Maj",
            "ctb2Low": null,
            "ctb2Main": {
              "ntr": "ROOT_FIXED",
              "ntt": "BYPASS",
              "bassOn": false,
              "chordRootUpperLimit": 0,
              "noteLowLimit": 0,
              "noteHighLimit": 127,
              "rtr": "RETRIGGER"
            },
            "ctb2High": null
          },
          "notes": []
        },
        "8": {
          "ctab": {
            "srcChannel": 8,
            "name": "Perc",
            "accType": "SUBRHYTHM",
            "editable": false,
            "mutedNotes": [],
            "mutedChords": [],
            "autoStart": true,
            "sourceChordNote": 0,
            "sourceChordType": "Maj7",
            "ctb2Low": null,
            "ctb2Main": {
              "ntr": "ROOT_FIXED",
              "ntt": "BYPASS",
              "bassOn": false,
              "chordRootUpperLimit": 6,
              "noteLowLimit": 0,
              "noteHighLimit": 127,
              "rtr": "PITCH_SHIFT"
            },
            "ctb2High": null
          },
          "notes": [
            {
              "pitch": 39,
              "velocity": 78,
              "position": 0.9791666666666666,
              "duration": 0.00625
            },
            {
              "pitch": 39,
              "velocity": 70,
              "position": 3,
              "duration": 0.00625
            }
          ]
        },
        "9": {
          "ctab": {
            "srcChannel": 9,
            "name": "Drums",
            "accType": "RHYTHM",
            "editable": false,
            "mutedNotes": [],
            "mutedChords": [],
            "autoStart": true,
            "sourceChordNote": 0,
            "sourceChordType": "Maj7",
            "ctb2Low": null,
            "ctb2Main": {
              "ntr": "ROOT_FIXED",
              "ntt": "BYPASS",
              "bassOn": false,
              "chordRootUpperLimit": 6,
              "noteLowLimit": 0,
              "noteHighLimit": 127,
              "rtr": "PITCH_SHIFT"
            },
            "ctb2High": null
          },
          "notes": [
            {
              "pitch": 35,
              "velocity": 90,
              "position": 0,
              "duration": 0.00625
            },
            {
              "pitch": 42,
              "velocity": 78,
              "position": 0,
              "duration": 0.00625
            },
            {
              "pitch": 54,
              "velocity": 71,
              "position": 0,
              "duration": 0.00625
            },
            {
              "pitch": 38,
              "velocity": 15,
              "position": 0.3333333333333333,
              "duration": 0.00625
            },
            {
              "pitch": 54,
              "velocity": 16,
              "position": 0.3333333333333333,
              "duration": 0.00625
            },
            {
              "pitch": 35,
              "velocity": 40,
              "position": 0.6666666666666666,
              "duration": 0.00625
            },
            {
              "pitch": 46,
              "velocity": 37,
              "position": 0.6666666666666666,
              "duration": 0.00625
            },
            {
              "pitch": 54,
              "velocity": 40,
              "position": 0.6666666666666666,
              "duration": 0.00625
            },
            {
              "pitch": 38,
              "velocity": 100,
              "position": 1,
              "duration": 0.00625
            },
            {
              "pitch": 54,
              "velocity": 71,
              "position": 1,
              "duration": 0.00625
            },
            {
              "pitch": 39,
              "velocity": 80,
              "position": 1.0416666666666667,
              "duration": 0.00625
            },
            {
              "pitch": 42,
              "velocity": 20,
              "position": 1.3333333333333333,
              "duration": 0.00625
            },
            {
              "pitch": 49,
              "velocity": 23,
              "position": 1.3333333333333333,
              "duration": 0.00625
            },
            {
              "pitch": 54,
              "velocity": 16,
              "position": 1.3333333333333333,
              "duration": 0.00625
            },
            {
              "pitch": 57,
              "velocity": 34,
              "position": 1.3333333333333333,
              "duration": 0.00625
            },
            {
              "pitch": 35,
              "velocity": 40,
              "position": 1.6666666666666667,
              "duration": 0.00625
            },
            {
              "pitch": 42,
              "velocity": 20,
              "position": 1.6666666666666667,
              "duration": 0.00625
            },
            {
              "pitch": 44,
              "velocity": 24,
              "position": 1.6666666666666667,
              "duration": 0.00625
            },
            {
              "pitch": 54,
              "velocity": 40,
              "position": 1.6666666666666667,
              "duration": 0.00625
            },
            {
              "pitch": 35,
              "velocity": 90,
              "position": 2,
              "duration": 0.00625
            },
            {
              "pitch": 46,
              "velocity": 37,
              "position": 2,
              "duration": 0.00625
            },
            {
              "pitch": 49,
              "velocity": 43,
              "position": 2,
              "duration": 0.00625
            },
            {
              "pitch": 54,
              "velocity": 71,
              "position": 2,
              "duration": 0.00625
            },
            {
              "pitch": 38,
              "velocity": 40,
              "position": 2.3333333333333335,
              "duration": 0.00625
            },
            {
              "pitch": 54,
              "velocity": 16,
              "position": 2.3333333333333335,
              "duration": 0.00625
            },
            {
              "pitch": 35,
              "velocity": 90,
              "position": 2.6666666666666665,
              "duration": 0.00625
            },
            {
              "pitch": 38,
              "velocity": 100,
              "position": 2.6666666666666665,
              "duration": 0.00625
            },
            {
              "pitch": 46,
              "velocity": 50,
              "position": 2.6666666666666665,
              "duration": 0.00625
            },
            {
              "pitch": 54,
              "velocity": 40,
              "position": 2.6666666666666665,
              "duration": 0.00625
            },
            {
              "pitch": 39,
              "velocity": 80,
              "position": 2.9791666666666665,
              "duration": 0.00625
            },
            {
              "pitch": 38,
              "velocity": 40,
              "position": 3,
              "duration": 0.00625
            },
            {
              "pitch": 54,
              "velocity": 71,
              "position": 3,
              "duration": 0.00625
            },
            {
              "pitch": 35,
              "velocity": 90,
              "position": 3.3333333333333335,
              "duration": 0.00625
            },
            {
              "pitch": 38,
              "velocity": 57,
              "position": 3.3333333333333335,
              "duration": 0.00625
            },
            {
              "pitch": 46,
              "velocity": 71,
              "position": 3.3333333333333335,
              "duration": 0.00625
            },
            {
              "pitch": 54,
              "velocity": 16,
              "position": 3.3333333333333335,
              "duration": 0.00625
            },
            {
              "pitch": 38,
              "velocity": 100,
              "position": 3.6666666666666665,
              "duration": 0.00625
            },
            {
              "pitch": 54,
              "velocity": 40,
              "position": 3.6666666666666665,
              "duration": 0.00625
            },
            {
              "pitch": 49,
              "velocity": 57,
              "position": 3.9895833333333335,
              "duration": 0.00625
            }
          ]
        },
        "10": {
          "ctab": {
            "srcChannel": 10,
            "name": "Bass",
            "accType": "BASS",
            "editable": false,
            "mutedNotes": [],
            "mutedChords": [
              "1+2+5",
              "sus4",
              "1+5",
              "1+8",
              "7aug",
              "Maj7aug",
              "7(#9)",
              "7(b13)",
              "7(b9)",
              "7#11",
              "7b5",
              "7sus4",
              "dim",
              "minMaj7(9)",
              "minMaj7",
              "m7b5",
              "min",
              "aug",
              "Maj7#11"
            ],
            "autoStart": false,
            "sourceChordNote": 0,
            "sourceChordType": "Maj7",
            "ctb2Low": null,
            "ctb2Main": {
              "ntr": "ROOT_TRANSPOSITION",
              "ntt": "MELODY",
              "bassOn": true,
              "chordRootUpperLimit": 8,
              "noteLowLimit": 28,
              "noteHighLimit": 51,
              "rtr": "PITCH_SHIFT_TO_ROOT"
            },
            "ctb2High": null
          },
          "notes": [
            {
              "pitch": 24,
              "velocity": 74,
              "position": 0,
              "duration": 0.6208333333333333
            },
            {
              "pitch": 31,
              "velocity": 74,
              "position": 0.6666666666666666,
              "duration": 0.6208333333333333
            },
            {
              "pitch": 31,
              "velocity": 74,
              "position": 1.3333333333333333,
              "duration": 0.6208333333333333
            },
            {
              "pitch": 31,
              "velocity": 74,
              "position": 2,
              "duration": 0.6208333333333333
            },
            {
              "pitch": 33,
              "velocity": 74,
              "position": 2.6666666666666665,
              "duration": 0.6208333333333333
            },
            {
              "pitch": 36,
              "velocity": 74,
              "position": 3.3333333333333335,
              "duration": 0.6208333333333333
            }
          ]
        },
        "11": {
          "ctab": {
            "srcChannel": 11,
            "name": "Gtr",
            "accType": "CHORD1",
            "editable": false,
            "mutedNotes": [],
            "mutedChords": [],
            "autoStart": false,
            "sourceChordNote": 0,
            "sourceChordType": "Maj7",
            "ctb2Low": null,
            "ctb2Main": {
              "ntr": "ROOT_TRANSPOSITION",
              "ntt": "CHORD",
              "bassOn": false,
              "chordRootUpperLimit": 7,
              "noteLowLimit": 58,
              "noteHighLimit": 69,
              "rtr": "PITCH_SHIFT"
            },
            "ctb2High": null
          },
          "notes": [
            {
              "pitch": 59,
              "velocity": 98,
              "position": 0.3333333333333333,
              "duration": 0.027083333333333334
            },
            {
              "pitch": 64,
              "velocity": 98,
              "position": 0.34375,
              "duration": 0.027083333333333334
            },
            {
              "pitch": 67,
              "velocity": 98,
              "position": 0.3541666666666667,
              "duration": 0.027083333333333334
            },
            {
              "pitch": 59,
              "velocity": 80,
              "position": 0.6666666666666666,
              "duration": 0.027083333333333334
            },
            {
              "pitch": 64,
              "velocity": 80,
              "position": 0.6770833333333334,
              "duration": 0.027083333333333334
            },
            {
              "pitch": 59,
              "velocity": 116,
              "position": 1,
              "duration": 0.6520833333333333
            },
            {
              "pitch": 64,
              "velocity": 116,
              "position": 1.0104166666666667,
              "duration": 0.6416666666666667
            },
            {
              "pitch": 67,
              "velocity": 116,
              "position": 1.0208333333333333,
              "duration": 0.63125
            },
            {
              "pitch": 59,
              "velocity": 64,
              "position": 1.6666666666666667,
              "duration": 0.31875
            },
            {
              "pitch": 64,
              "velocity": 64,
              "position": 1.6770833333333333,
              "duration": 0.30833333333333335
            },
            {
              "pitch": 67,
              "velocity": 64,
              "position": 1.6875,
              "duration": 0.29791666666666666
            },
            {
              "pitch": 59,
              "velocity": 36,
              "position": 2,
              "duration": 0.6520833333333333
            },
            {
              "pitch": 64,
              "velocity": 36,
              "position": 2.0104166666666665,
              "duration": 0.6416666666666667
            },
            {
              "pitch": 67,
              "velocity": 36,
              "position": 2.0208333333333335,
              "duration": 0.63125
            },
            {
              "pitch": 59,
              "velocity": 116,
              "position": 2.6666666666666665,
              "duration": 0.12083333333333333
            },
            {
              "pitch": 64,
              "velocity": 116,
              "position": 2.6770833333333335,
              "duration": 0.12083333333333333
            },
            {
              "pitch": 67,
              "velocity": 116,
              "position": 2.6875,
              "duration": 0.12083333333333333
            }
          ]
        },
        "12": {
          "ctab": {
            "srcChannel": 12,
            "name": "Pno RH",
            "accType": "CHORD2",
            "editable": false,
            "mutedNotes": [],
            "mutedChords": [
              "min7",
              "min",
              "Maj"
            ],
            "autoStart": false,
            "sourceChordNote": 0,
            "sourceChordType": "Maj7",
            "ctb2Low": null,
            "ctb2Main": {
              "ntr": "ROOT_FIXED",
              "ntt": "CHORD",
              "bassOn": false,
              "chordRootUpperLimit": 7,
              "noteLowLimit": 0,
              "noteHighLimit": 79,
              "rtr": "PITCH_SHIFT"
            },
            "ctb2High": null
          },
          "notes": [
            {
              "pitch": 71,
              "velocity": 116,
              "position": 0,
              "duration": 0.45416666666666666
            },
            {
              "pitch": 83,
              "velocity": 116,
              "position": 0,
              "duration": 0.45416666666666666
            },
            {
              "pitch": 71,
              "velocity": 116,
              "position": 0.6666666666666666,
              "duration": 0.45416666666666666
            },
            {
              "pitch": 76,
              "velocity": 116,
              "position": 0.6666666666666666,
              "duration": 0.45416666666666666
            },
            {
              "pitch": 79,
              "velocity": 116,
              "position": 0.6666666666666666,
              "duration": 0.45416666666666666
            },
            {
              "pitch": 67,
              "velocity": 116,
              "position": 1.3333333333333333,
              "duration": 0.45416666666666666
            },
            {
              "pitch": 71,
              "velocity": 116,
              "position": 1.3333333333333333,
              "duration": 0.45416666666666666
            },
            {
              "pitch": 76,
              "velocity": 116,
              "position": 1.3333333333333333,
              "duration": 0.45416666666666666
            },
            {
              "pitch": 64,
              "velocity": 116,
              "position": 2,
              "duration": 0.45416666666666666
            },
            {
              "pitch": 67,
              "velocity": 116,
              "position": 2,
              "duration": 0.45416666666666666
            },
            {
              "pitch": 71,
              "velocity": 116,
              "position": 2,
              "duration": 0.45416666666666666
            },
            {
              "pitch": 59,
              "velocity": 116,
              "position": 2.6666666666666665,
              "duration": 0.45416666666666666
            },
            {
              "pitch": 64,
              "velocity": 116,
              "position": 2.6666666666666665,
              "duration": 0.45416666666666666
            },
            {
              "pitch": 67,
              "velocity": 116,
              "position": 2.6666666666666665,
              "duration": 0.45416666666666666
            },
            {
              "pitch": 55,
              "velocity": 116,
              "position": 3.3333333333333335,
              "duration": 0.45416666666666666
            },
            {
              "pitch": 59,
              "velocity": 116,
              "position": 3.3333333333333335,
              "duration": 0.45416666666666666
            },
            {
              "pitch": 64,
              "velocity": 116,
              "position": 3.3333333333333335,
              "duration": 0.45416666666666666
            }
          ]
        },
        "13": {
          "ctab": {
            "srcChannel": 13,
            "name": "Pno LH",
            "accType": "CHORD2",
            "editable": false,
            "mutedNotes": [],
            "mutedChords": [],
            "autoStart": false,
            "sourceChordNote": 0,
            "sourceChordType": "Maj7",
            "ctb2Low": null,
            "ctb2Main": {
              "ntr": "ROOT_TRANSPOSITION",
              "ntt": "MELODY",
              "bassOn": true,
              "chordRootUpperLimit": 5,
              "noteLowLimit": 0,
              "noteHighLimit": 127,
              "rtr": "PITCH_SHIFT"
            },
            "ctb2High": null
          },
          "notes": [
            {
              "pitch": 36,
              "velocity": 119,
              "position": 0,
              "duration": 0.5270833333333333
            },
            {
              "pitch": 48,
              "velocity": 119,
              "position": 0,
              "duration": 0.5270833333333333
            }
          ]
        },
        "14": {
          "ctab": {
            "srcChannel": 14,
            "name": "Organ",
            "accType": "PAD",
            "editable": false,
            "mutedNotes": [],
            "mutedChords": [
              "min7",
              "min",
              "Maj"
            ],
            "autoStart": false,
            "sourceChordNote": 0,
            "sourceChordType": "Maj7",
            "ctb2Low": null,
            "ctb2Main": {
              "ntr": "ROOT_FIXED",
              "ntt": "CHORD",
              "bassOn": false,
              "chordRootUpperLimit": 7,
              "noteLowLimit": 0,
              "noteHighLimit": 79,
              "rtr": "PITCH_SHIFT"
            },
            "ctb2High": null
          },
          "notes": [
            {
              "pitch": 55,
              "velocity": 108,
              "position": 0.010416666666666666,
              "duration": 3.975
            },
            {
              "pitch": 59,
              "velocity": 108,
              "position": 0.010416666666666666,
              "duration": 3.975
            },
            {
              "pitch": 64,
              "velocity": 108,
              "position": 0.010416666666666666,
              "duration": 3.975
            }
          ]
        },
        "15": {
          "ctab": {
            "srcChannel": 15,
            "name": "Choir",
            "accType": "PHRASE1",
            "editable": false,
            "mutedNotes": [],
            "mutedChords": [
              "min7",
              "min",
              "Maj"
            ],
            "autoStart": false,
            "sourceChordNote": 0,
            "sourceChordType": "Maj7",
            "ctb2Low": null,
            "ctb2Main": {
              "ntr": "ROOT_FIXED",
              "ntt": "CHORD",
              "bassOn": false,
              "chordRootUpperLimit": 7,
              "noteLowLimit": 57,
              "noteHighLimit": 79,
              "rtr": "PITCH_SHIFT"
            },
            "ctb2High": null
          },
          "notes": [
            {
              "pitch": 47,
              "velocity": 50,
              "position": 0.6666666666666666,
              "duration": 3.3229166666666665
            },
            {
              "pitch": 52,
              "velocity": 50,
              "position": 0.6666666666666666,
              "duration": 3.3229166666666665
            },
            {
              "pitch": 55,
              "velocity": 50,
              "position": 0.6666666666666666,
              "duration": 3.3229166666666665
            }
          ]
        }
      }
    },
    "Intro_A": {
      "type": "Intro_A",
      "sizeInBeats": 4,
      "channels": {
        "1": {
          "ctab": {
            "srcChannel": 1,
            "name": "Bass 2",
            "accType": "BASS",
            "editable": false,
            "mutedNotes": [],
            "mutedChords": [
              "7(13)",
              "7(9)",
              "7th",
              "dim7",
              "min7(11)",
              "min7(9)",
              "min(9)",
              "min7",
              "min6",
              "Maj6(9)",
              "Maj7(9)",
              "Maj(9)",
              "Maj7",
              "Maj6",
              "Maj"
            ],
            "autoStart": false,
            "sourceChordNote": 0,
            "sourceChordType": "Maj7",
            "ctb2Low": null,
            "ctb2Main": {
              "ntr": "ROOT_TRANSPOSITION",
              "ntt": "MELODY",
              "bassOn": true,
              "chordRootUpperLimit": 8,
              "noteLowLimit": 28,
              "noteHighLimit": 51,
              "rtr": "PITCH_SHIFT_TO_ROOT"
            },
            "ctb2High": null
          },
          "notes": []
        },
        "2": {
          "ctab": {
            "srcChannel": 2,
            "name": "Gt Root",
            "accType": "CHORD1",
            "editable": false,
            "mutedNotes": [],
            "mutedChords": [
              "1+2+5",
              "sus4",
              "1+5",
              "1+8",
              "Maj7aug",
              "7th",
              "dim",
              "minMaj7(9)",
              "minMaj7",
              "min6",
              "min",
              "aug",
              "Maj7(9)",
              "Maj7#11",
              "Maj7",
              "Maj6",
              "Maj"
            ],
            "autoStart": false,
            "sourceChordNote": 0,
            "sourceChordType": "Maj7",
            "ctb2Low": null,
            "ctb2Main": {
              "ntr": "ROOT_TRANSPOSITION",
              "ntt": "CHORD",
              "bassOn": false,
              "chordRootUpperLimit": 9,
              "noteLowLimit": 58,
              "noteHighLimit": 69,
              "rtr": "PITCH_SHIFT"
            },
            "ctb2High": null
          },
          "notes": []
        },
        "3": {
          "ctab": {
            "srcChannel": 3,
            "name": "Pno 2",
            "accType": "CHORD2",
            "editable": false,
            "mutedNotes": [],
            "mutedChords": [
              "1+2+5",
              "sus4",
              "1+5",
              "1+8",
              "7aug",
              "Maj7aug",
              "7(#9)",
              "7(b13)",
              "7(b9)",
              "7(13)",
              "7#11",
              "7(9)",
              "7b5",
              "7sus4",
              "7th",
              "dim7",
              "dim",
              "minMaj7(9)",
              "minMaj7",
              "min7(11)",
              "min7(9)",
              "min(9)",
              "m7b5",
              "min6",
              "aug",
              "Maj6(9)",
              "Maj7(9)",
              "Maj(9)",
              "Maj7#11",
              "Maj7",
              "Maj6"
            ],
            "autoStart": false,
            "sourceChordNote": 0,
            "sourceChordType": "Maj7",
            "ctb2Low": null,
            "ctb2Main": {
              "ntr": "ROOT_TRANSPOSITION",
              "ntt": "MELODIC_MINOR",
              "bassOn": false,
              "chordRootUpperLimit": 6,
              "noteLowLimit": 54,
              "noteHighLimit": 79,
              "rtr": "PITCH_SHIFT"
            },
            "ctb2High": null
          },
          "notes": []
        },
        "5": {
          "ctab": {
            "srcChannel": 5,
            "name": "Org 2",
            "accType": "PAD",
            "editable": false,
            "mutedNotes": [],
            "mutedChords": [
              "1+2+5",
              "sus4",
              "1+5",
              "1+8",
              "7aug",
              "Maj7aug",
              "7(#9)",
              "7(b13)",
              "7(b9)",
              "7(13)",
              "7#11",
              "7(9)",
              "7b5",
              "7sus4",
              "7th",
              "dim7",
              "dim",
              "minMaj7(9)",
              "minMaj7",
              "min7(11)",
              "min7(9)",
              "min(9)",
              "m7b5",
              "min6",
              "aug",
              "Maj6(9)",
              "Maj7(9)",
              "Maj(9)",
              "Maj7#11",
              "Maj7",
              "Maj6"
            ],
            "autoStart": false,
            "sourceChordNote": 0,
            "sourceChordType": "Maj7",
            "ctb2Low": null,
            "ctb2Main": {
              "ntr": "ROOT_TRANSPOSITION",
              "ntt": "MELODIC_MINOR",
              "bassOn": false,
              "chordRootUpperLimit": 6,
              "noteLowLimit": 57,
              "noteHighLimit": 79,
              "rtr": "PITCH_SHIFT"
            },
            "ctb2High": null
          },
          "notes": []
        },
        "6": {
          "ctab": {
            "srcChannel": 6,
            "name": "Choir 2",
            "accType": "PHRASE1",
            "editable": false,
            "mutedNotes": [],
            "mutedChords": [
              "1+2+5",
              "sus4",
              "1+5",
              "1+8",
              "7aug",
              "Maj7aug",
              "7(#9)",
              "7(b13)",
              "7(b9)",
              "7(13)",
              "7#11",
              "7(9)",
              "7b5",
              "7sus4",
              "7th",
              "dim7",
              "dim",
              "minMaj7(9)",
              "minMaj7",
              "min7(11)",
              "min7(9)",
              "min(9)",
              "m7b5",
              "min6",
              "aug",
              "Maj6(9)",
              "Maj7(9)",
              "Maj(9)",
              "Maj7#11",
              "Maj7",
              "Maj6"
            ],
            "autoStart": false,
            "sourceChordNote": 0,
            "sourceChordType": "Maj7",
            "ctb2Low": null,
            "ctb2Main": {
              "ntr": "ROOT_TRANSPOSITION",
              "ntt": "MELODIC_MINOR",
              "bassOn": false,
              "chordRootUpperLimit": 6,
              "noteLowLimit": 57,
              "noteHighLimit": 79,
              "rtr": "PITCH_SHIFT"
            },
            "ctb2High": null
          },
          "notes": []
        },
        "7": {
          "ctab": {
            "srcChannel": 7,
            "name": "CC_Crash",
            "accType": "RHYTHM",
            "editable": false,
            "mutedNotes": [],
            "mutedChords": [
              "1+2+5",
              "sus4",
              "1+5",
              "1+8",
              "7aug",
              "Maj7aug",
              "7(#9)",
              "7(b13)",
              "7(b9)",
              "7(13)",
              "7#11",
              "7(9)",
              "7b5",
              "7sus4",
              "7th",
              "dim7",
              "dim",
              "minMaj7(9)",
              "minMaj7",
              "min7(11)",
              "min7(9)",
              "min(9)",
              "m7b5",
              "min7",
              "min6",
              "min",
              "aug",
              "Maj6(9)",
              "Maj7(9)",
              "Maj(9)",
              "Maj7#11",
              "Maj7",
              "Maj6",
              "Maj"
            ],
            "autoStart": true,
            "sourceChordNote": 0,
            "sourceChordType": "Maj",
            "ctb2Low": null,
            "ctb2Main": {
              "ntr": "ROOT_FIXED",
              "ntt": "BYPASS",
              "bassOn": false,
              "chordRootUpperLimit": 0,
              "noteLowLimit": 0,
              "noteHighLimit": 127,
              "rtr": "RETRIGGER"
            },
            "ctb2High": null
          },
          "notes": []
        },
        "8": {
          "ctab": {
            "srcChannel": 8,
            "name": "Perc",
            "accType": "SUBRHYTHM",
            "editable": false,
            "mutedNotes": [],
            "mutedChords": [],
            "autoStart": true,
            "sourceChordNote": 0,
            "sourceChordType": "Maj7",
            "ctb2Low": null,
            "ctb2Main": {
              "ntr": "ROOT_FIXED",
              "ntt": "BYPASS",
              "bassOn": false,
              "chordRootUpperLimit": 6,
              "noteLowLimit": 0,
              "noteHighLimit": 127,
              "rtr": "PITCH_SHIFT"
            },
            "ctb2High": null
          },
          "notes": []
        },
        "9": {
          "ctab": {
            "srcChannel": 9,
            "name": "Drums",
            "accType": "RHYTHM",
            "editable": false,
            "mutedNotes": [],
            "mutedChords": [],
            "autoStart": true,
            "sourceChordNote": 0,
            "sourceChordType": "Maj7",
            "ctb2Low": null,
            "ctb2Main": {
              "ntr": "ROOT_FIXED",
              "ntt": "BYPASS",
              "bassOn": false,
              "chordRootUpperLimit": 6,
              "noteLowLimit": 0,
              "noteHighLimit": 127,
              "rtr": "PITCH_SHIFT"
            },
            "ctb2High": null
          },
          "notes": [
            {
              "pitch": 40,
              "velocity": 46,
              "position": 0,
              "duration": 0.00625
            },
            {
              "pitch": 46,
              "velocity": 58,
              "position": 0,
              "duration": 0.00625
            },
            {
              "pitch": 38,
              "velocity": 108,
              "position": 0.0625,
              "duration": 0.00625
            },
            {
              "pitch": 38,
              "velocity": 15,
              "position": 0.3333333333333333,
              "duration": 0.00625
            },
            {
              "pitch": 45,
              "velocity": 15,
              "position": 0.3333333333333333,
              "duration": 0.00625
            },
            {
              "pitch": 38,
              "velocity": 18,
              "position": 0.6666666666666666,
              "duration": 0.00625
            },
            {
              "pitch": 45,
              "velocity": 18,
              "position": 0.6666666666666666,
              "duration": 0.00625
            },
            {
              "pitch": 38,
              "velocity": 22,
              "position": 1,
              "duration": 0.00625
            },
            {
              "pitch": 44,
              "velocity": 40,
              "position": 1,
              "duration": 0.00625
            },
            {
              "pitch": 45,
              "velocity": 21,
              "position": 1,
              "duration": 0.00625
            },
            {
              "pitch": 38,
              "velocity": 26,
              "position": 1.3333333333333333,
              "duration": 0.00625
            },
            {
              "pitch": 45,
              "velocity": 24,
              "position": 1.3333333333333333,
              "duration": 0.00625
            },
            {
              "pitch": 38,
              "velocity": 30,
              "position": 1.6666666666666667,
              "duration": 0.00625
            },
            {
              "pitch": 45,
              "velocity": 27,
              "position": 1.6666666666666667,
              "duration": 0.00625
            },
            {
              "pitch": 35,
              "velocity": 30,
              "position": 2,
              "duration": 0.00625
            },
            {
              "pitch": 38,
              "velocity": 34,
              "position": 2,
              "duration": 0.00625
            },
            {
              "pitch": 44,
              "velocity": 40,
              "position": 2,
              "duration": 0.00625
            },
            {
              "pitch": 45,
              "velocity": 29,
              "position": 2,
              "duration": 0.00625
            },
            {
              "pitch": 38,
              "velocity": 36,
              "position": 2.3333333333333335,
              "duration": 0.00625
            },
            {
              "pitch": 43,
              "velocity": 40,
              "position": 2.3333333333333335,
              "duration": 0.00625
            },
            {
              "pitch": 38,
              "velocity": 58,
              "position": 2.6666666666666665,
              "duration": 0.00625
            },
            {
              "pitch": 43,
              "velocity": 61,
              "position": 2.6666666666666665,
              "duration": 0.00625
            },
            {
              "pitch": 35,
              "velocity": 90,
              "position": 3,
              "duration": 0.00625
            },
            {
              "pitch": 38,
              "velocity": 81,
              "position": 3,
              "duration": 0.00625
            },
            {
              "pitch": 43,
              "velocity": 83,
              "position": 3,
              "duration": 0.00625
            },
            {
              "pitch": 44,
              "velocity": 40,
              "position": 3,
              "duration": 0.00625
            },
            {
              "pitch": 38,
              "velocity": 104,
              "position": 3.3333333333333335,
              "duration": 0.00625
            },
            {
              "pitch": 43,
              "velocity": 105,
              "position": 3.3333333333333335,
              "duration": 0.00625
            },
            {
              "pitch": 38,
              "velocity": 127,
              "position": 3.6666666666666665,
              "duration": 0.00625
            },
            {
              "pitch": 43,
              "velocity": 127,
              "position": 3.6666666666666665,
              "duration": 0.00625
            },
            {
              "pitch": 49,
              "velocity": 57,
              "position": 3.9895833333333335,
              "duration": 0.00625
            }
          ]
        },
        "10": {
          "ctab": {
            "srcChannel": 10,
            "name": "Bass",
            "accType": "BASS",
            "editable": false,
            "mutedNotes": [],
            "mutedChords": [
              "1+2+5",
              "sus4",
              "1+5",
              "1+8",
              "7aug",
              "Maj7aug",
              "7(#9)",
              "7(b13)",
              "7(b9)",
              "7#11",
              "7b5",
              "7sus4",
              "dim",
              "minMaj7(9)",
              "minMaj7",
              "m7b5",
              "min",
              "aug",
              "Maj7#11"
            ],
            "autoStart": false,
            "sourceChordNote": 0,
            "sourceChordType": "Maj7",
            "ctb2Low": null,
            "ctb2Main": {
              "ntr": "ROOT_TRANSPOSITION",
              "ntt": "MELODY",
              "bassOn": true,
              "chordRootUpperLimit": 8,
              "noteLowLimit": 28,
              "noteHighLimit": 51,
              "rtr": "PITCH_SHIFT_TO_ROOT"
            },
            "ctb2High": null
          },
          "notes": []
        },
        "11": {
          "ctab": {
            "srcChannel": 11,
            "name": "Gtr",
            "accType": "CHORD1",
            "editable": false,
            "mutedNotes": [],
            "mutedChords": [],
            "autoStart": false,
            "sourceChordNote": 0,
            "sourceChordType": "Maj7",
            "ctb2Low": null,
            "ctb2Main": {
              "ntr": "ROOT_TRANSPOSITION",
              "ntt": "CHORD",
              "bassOn": false,
              "chordRootUpperLimit": 7,
              "noteLowLimit": 58,
              "noteHighLimit": 69,
              "rtr": "PITCH_SHIFT"
            },
            "ctb2High": null
          },
          "notes": []
        },
        "12": {
          "ctab": {
            "srcChannel": 12,
            "name": "Pno RH",
            "accType": "CHORD2",
            "editable": false,
            "mutedNotes": [],
            "mutedChords": [
              "min7",
              "min",
              "Maj"
            ],
            "autoStart": false,
            "sourceChordNote": 0,
            "sourceChordType": "Maj7",
            "ctb2Low": null,
            "ctb2Main": {
              "ntr": "ROOT_FIXED",
              "ntt": "CHORD",
              "bassOn": false,
              "chordRootUpperLimit": 7,
              "noteLowLimit": 0,
              "noteHighLimit": 79,
              "rtr": "PITCH_SHIFT"
            },
            "ctb2High": null
          },
          "notes": []
        },
        "13": {
          "ctab": {
            "srcChannel": 13,
            "name": "Pno LH",
            "accType": "CHORD2",
            "editable": false,
            "mutedNotes": [],
            "mutedChords": [],
            "autoStart": false,
            "sourceChordNote": 0,
            "sourceChordType": "Maj7",
            "ctb2Low": null,
            "ctb2Main": {
              "ntr": "ROOT_TRANSPOSITION",
              "ntt": "MELODY",
              "bassOn": true,
              "chordRootUpperLimit": 5,
              "noteLowLimit": 0,
              "noteHighLimit": 127,
              "rtr": "PITCH_SHIFT"
            },
            "ctb2High": null
          },
          "notes": []
        },
        "14": {
          "ctab": {
            "srcChannel": 14,
            "name": "Organ",
            "accType": "PAD",
            "editable": false,
            "mutedNotes": [],
            "mutedChords": [
              "min7",
              "min",
              "Maj"
            ],
            "autoStart": false,
            "sourceChordNote": 0,
            "sourceChordType": "Maj7",
            "ctb2Low": null,
            "ctb2Main": {
              "ntr": "ROOT_FIXED",
              "ntt": "CHORD",
              "bassOn": false,
              "chordRootUpperLimit": 7,
              "noteLowLimit": 0,
              "noteHighLimit": 79,
              "rtr": "PITCH_SHIFT"
            },
            "ctb2High": null
          },
          "notes": []
        },
        "15": {
          "ctab": {
            "srcChannel": 15,
            "name": "Choir",
            "accType": "PHRASE1",
            "editable": false,
            "mutedNotes": [],
            "mutedChords": [
              "min7",
              "min",
              "Maj"
            ],
            "autoStart": false,
            "sourceChordNote": 0,
            "sourceChordType": "Maj7",
            "ctb2Low": null,
            "ctb2Main": {
              "ntr": "ROOT_FIXED",
              "ntt": "CHORD",
              "bassOn": false,
              "chordRootUpperLimit": 7,
              "noteLowLimit": 57,
              "noteHighLimit": 79,
              "rtr": "PITCH_SHIFT"
            },
            "ctb2High": null
          },
          "notes": []
        }
      }
    },
    "Fill_In_AA": {
      "type": "Fill_In_AA",
      "sizeInBeats": 4,
      "channels": {
        "1": {
          "ctab": {
            "srcChannel": 1,
            "name": "Bass 2",
            "accType": "BASS",
            "editable": false,
            "mutedNotes": [],
            "mutedChords": [
              "1+2+5",
              "sus4",
              "1+5",
              "1+8",
              "7aug",
              "Maj7aug",
              "7(#9)",
              "7(b13)",
              "7(b9)",
              "7(13)",
              "7#11",
              "7(9)",
              "7b5",
              "7sus4",
              "7th",
              "dim7",
              "dim",
              "minMaj7(9)",
              "minMaj7",
              "min7(11)",
              "min7(9)",
              "min(9)",
              "m7b5",
              "min7",
              "min6",
              "aug",
              "Maj6(9)",
              "Maj7(9)",
              "Maj(9)",
              "Maj7#11",
              "Maj7",
              "Maj6"
            ],
            "autoStart": false,
            "sourceChordNote": 0,
            "sourceChordType": "Maj7",
            "ctb2Low": null,
            "ctb2Main": {
              "ntr": "ROOT_TRANSPOSITION",
              "ntt": "MELODY",
              "bassOn": true,
              "chordRootUpperLimit": 8,
              "noteLowLimit": 28,
              "noteHighLimit": 51,
              "rtr": "PITCH_SHIFT_TO_ROOT"
            },
            "ctb2High": null
          },
          "notes": [
            {
              "pitch": 24,
              "velocity": 74,
              "position": 0,
              "duration": 0.31875
            },
            {
              "pitch": 28,
              "velocity": 62,
              "position": 0.3333333333333333,
              "duration": 0.15833333333333333
            },
            {
              "pitch": 31,
              "velocity": 110,
              "position": 0.6666666666666666,
              "duration": 0.11041666666666666
            },
            {
              "pitch": 34,
              "velocity": 74,
              "position": 1,
              "duration": 0.6520833333333333
            },
            {
              "pitch": 34,
              "velocity": 60,
              "position": 1.6666666666666667,
              "duration": 0.31875
            },
            {
              "pitch": 34,
              "velocity": 74,
              "position": 2,
              "duration": 0.9854166666666667
            },
            {
              "pitch": 34,
              "velocity": 74,
              "position": 3,
              "duration": 0.9854166666666667
            }
          ]
        },
        "2": {
          "ctab": {
            "srcChannel": 2,
            "name": "Gt Root",
            "accType": "CHORD1",
            "editable": false,
            "mutedNotes": [],
            "mutedChords": [
              "1+2+5",
              "sus4",
              "1+5",
              "1+8",
              "Maj7aug",
              "7th",
              "dim",
              "minMaj7(9)",
              "minMaj7",
              "min6",
              "min",
              "aug",
              "Maj7(9)",
              "Maj7#11",
              "Maj7",
              "Maj6",
              "Maj"
            ],
            "autoStart": false,
            "sourceChordNote": 0,
            "sourceChordType": "Maj7",
            "ctb2Low": null,
            "ctb2Main": {
              "ntr": "ROOT_TRANSPOSITION",
              "ntt": "CHORD",
              "bassOn": false,
              "chordRootUpperLimit": 7,
              "noteLowLimit": 0,
              "noteHighLimit": 127,
              "rtr": "PITCH_SHIFT"
            },
            "ctb2High": null
          },
          "notes": [
            {
              "pitch": 60,
              "velocity": 116,
              "position": 1,
              "duration": 0.21458333333333332
            },
            {
              "pitch": 60,
              "velocity": 116,
              "position": 3,
              "duration": 0.21458333333333332
            }
          ]
        },
        "3": {
          "ctab": {
            "srcChannel": 3,
            "name": "Pno 2",
            "accType": "CHORD2",
            "editable": false,
            "mutedNotes": [],
            "mutedChords": [
              "1+2+5",
              "sus4",
              "1+5",
              "1+8",
              "7aug",
              "Maj7aug",
              "7(#9)",
              "7(b13)",
              "7(b9)",
              "7(13)",
              "7#11",
              "7(9)",
              "7b5",
              "7sus4",
              "7th",
              "dim7",
              "dim",
              "minMaj7(9)",
              "minMaj7",
              "min7(11)",
              "min7(9)",
              "min(9)",
              "m7b5",
              "min6",
              "aug",
              "Maj6(9)",
              "Maj7(9)",
              "Maj(9)",
              "Maj7#11",
              "Maj7",
              "Maj6"
            ],
            "autoStart": false,
            "sourceChordNote": 0,
            "sourceChordType": "Maj7",
            "ctb2Low": null,
            "ctb2Main": {
              "ntr": "ROOT_TRANSPOSITION",
              "ntt": "MELODIC_MINOR",
              "bassOn": false,
              "chordRootUpperLimit": 6,
              "noteLowLimit": 57,
              "noteHighLimit": 127,
              "rtr": "PITCH_SHIFT"
            },
            "ctb2High": null
          },
          "notes": [
            {
              "pitch": 43,
              "velocity": 116,
              "position": 0,
              "duration": 0.9854166666666667
            },
            {
              "pitch": 48,
              "velocity": 116,
              "position": 0,
              "duration": 0.9854166666666667
            },
            {
              "pitch": 52,
              "velocity": 116,
              "position": 0,
              "duration": 0.9854166666666667
            },
            {
              "pitch": 45,
              "velocity": 116,
              "position": 1,
              "duration": 0.9854166666666667
            },
            {
              "pitch": 48,
              "velocity": 116,
              "position": 1,
              "duration": 0.9854166666666667
            },
            {
              "pitch": 53,
              "velocity": 116,
              "position": 1,
              "duration": 0.9854166666666667
            },
            {
              "pitch": 46,
              "velocity": 116,
              "position": 2,
              "duration": 0.9854166666666667
            },
            {
              "pitch": 50,
              "velocity": 116,
              "position": 2,
              "duration": 0.9854166666666667
            },
            {
              "pitch": 53,
              "velocity": 116,
              "position": 2,
              "duration": 0.9854166666666667
            },
            {
              "pitch": 45,
              "velocity": 116,
              "position": 3,
              "duration": 0.9854166666666667
            },
            {
              "pitch": 48,
              "velocity": 116,
              "position": 3,
              "duration": 0.9854166666666667
            },
            {
              "pitch": 53,
              "velocity": 116,
              "position": 3,
              "duration": 0.9854166666666667
            }
          ]
        },
        "6": {
          "ctab": {
            "srcChannel": 6,
            "name": "Choir 2",
            "accType": "PHRASE1",
            "editable": false,
            "mutedNotes": [],
            "mutedChords": [
              "1+2+5",
              "sus4",
              "1+5",
              "1+8",
              "7aug",
              "Maj7aug",
              "7(#9)",
              "7(b13)",
              "7(b9)",
              "7(13)",
              "7#11",
              "7(9)",
              "7b5",
              "7sus4",
              "7th",
              "dim7",
              "dim",
              "minMaj7(9)",
              "minMaj7",
              "min7(11)",
              "min7(9)",
              "min(9)",
              "m7b5",
              "min6",
              "aug",
              "Maj6(9)",
              "Maj7(9)",
              "Maj(9)",
              "Maj7#11",
              "Maj7",
              "Maj6"
            ],
            "autoStart": false,
            "sourceChordNote": 0,
            "sourceChordType": "Maj7",
            "ctb2Low": null,
            "ctb2Main": {
              "ntr": "ROOT_TRANSPOSITION",
              "ntt": "MELODIC_MINOR",
              "bassOn": false,
              "chordRootUpperLimit": 6,
              "noteLowLimit": 57,
              "noteHighLimit": 79,
              "rtr": "PITCH_SHIFT"
            },
            "ctb2High": null
          },
          "notes": [
            {
              "pitch": 52,
              "velocity": 50,
              "position": 0.010416666666666666,
              "duration": 0.975
            },
            {
              "pitch": 55,
              "velocity": 50,
              "position": 0.010416666666666666,
              "duration": 0.975
            },
            {
              "pitch": 45,
              "velocity": 50,
              "position": 1,
              "duration": 0.975
            },
            {
              "pitch": 53,
              "velocity": 50,
              "position": 1,
              "duration": 0.975
            },
            {
              "pitch": 48,
              "velocity": 50,
              "position": 0.010416666666666666,
              "duration": 1.975
            },
            {
              "pitch": 46,
              "velocity": 50,
              "position": 2,
              "duration": 0.975
            },
            {
              "pitch": 50,
              "velocity": 50,
              "position": 2,
              "duration": 0.975
            },
            {
              "pitch": 55,
              "velocity": 50,
              "position": 2,
              "duration": 0.975
            },
            {
              "pitch": 45,
              "velocity": 50,
              "position": 3,
              "duration": 0.975
            },
            {
              "pitch": 48,
              "velocity": 50,
              "position": 3,
              "duration": 0.975
            },
            {
              "pitch": 53,
              "velocity": 50,
              "position": 3,
              "duration": 0.975
            }
          ]
        },
        "7": {
          "ctab": {
            "srcChannel": 7,
            "name": "CC_Crash",
            "accType": "RHYTHM",
            "editable": false,
            "mutedNotes": [],
            "mutedChords": [
              "1+2+5",
              "sus4",
              "1+5",
              "1+8",
              "7aug",
              "Maj7aug",
              "7(#9)",
              "7(b13)",
              "7(b9)",
              "7(13)",
              "7#11",
              "7(9)",
              "7b5",
              "7sus4",
              "7th",
              "dim7",
              "dim",
              "minMaj7(9)",
              "minMaj7",
              "min7(11)",
              "min7(9)",
              "min(9)",
              "m7b5",
              "min7",
              "min6",
              "min",
              "aug",
              "Maj6(9)",
              "Maj7(9)",
              "Maj(9)",
              "Maj7#11",
              "Maj7",
              "Maj6",
              "Maj"
            ],
            "autoStart": true,
            "sourceChordNote": 0,
            "sourceChordType": "Maj",
            "ctb2Low": null,
            "ctb2Main": {
              "ntr": "ROOT_FIXED",
              "ntt": "BYPASS",
              "bassOn": false,
              "chordRootUpperLimit": 0,
              "noteLowLimit": 0,
              "noteHighLimit": 127,
              "rtr": "RETRIGGER"
            },
            "ctb2High": null
          },
          "notes": []
        },
        "9": {
          "ctab": {
            "srcChannel": 9,
            "name": "Drums",
            "accType": "RHYTHM",
            "editable": false,
            "mutedNotes": [],
            "mutedChords": [],
            "autoStart": true,
            "sourceChordNote": 0,
            "sourceChordType": "Maj7",
            "ctb2Low": null,
            "ctb2Main": {
              "ntr": "ROOT_FIXED",
              "ntt": "BYPASS",
              "bassOn": false,
              "chordRootUpperLimit": 6,
              "noteLowLimit": 0,
              "noteHighLimit": 127,
              "rtr": "PITCH_SHIFT"
            },
            "ctb2High": null
          },
          "notes": [
            {
              "pitch": 35,
              "velocity": 90,
              "position": 0,
              "duration": 0.00625
            },
            {
              "pitch": 42,
              "velocity": 78,
              "position": 0,
              "duration": 0.00625
            },
            {
              "pitch": 38,
              "velocity": 15,
              "position": 0.3333333333333333,
              "duration": 0.00625
            },
            {
              "pitch": 35,
              "velocity": 61,
              "position": 0.6666666666666666,
              "duration": 0.00625
            },
            {
              "pitch": 42,
              "velocity": 18,
              "position": 0.6666666666666666,
              "duration": 0.00625
            },
            {
              "pitch": 38,
              "velocity": 100,
              "position": 1,
              "duration": 0.00625
            },
            {
              "pitch": 46,
              "velocity": 54,
              "position": 1,
              "duration": 0.00625
            },
            {
              "pitch": 54,
              "velocity": 71,
              "position": 1,
              "duration": 0.00625
            },
            {
              "pitch": 38,
              "velocity": 15,
              "position": 1.3333333333333333,
              "duration": 0.00625
            },
            {
              "pitch": 35,
              "velocity": 40,
              "position": 1.6666666666666667,
              "duration": 0.00625
            },
            {
              "pitch": 35,
              "velocity": 90,
              "position": 2,
              "duration": 0.00625
            },
            {
              "pitch": 42,
              "velocity": 78,
              "position": 2,
              "duration": 0.00625
            },
            {
              "pitch": 38,
              "velocity": 37,
              "position": 2.3333333333333335,
              "duration": 0.00625
            },
            {
              "pitch": 38,
              "velocity": 71,
              "position": 2.6666666666666665,
              "duration": 0.00625
            },
            {
              "pitch": 42,
              "velocity": 18,
              "position": 2.6666666666666665,
              "duration": 0.00625
            },
            {
              "pitch": 38,
              "velocity": 100,
              "position": 3,
              "duration": 0.00625
            },
            {
              "pitch": 42,
              "velocity": 78,
              "position": 3,
              "duration": 0.00625
            },
            {
              "pitch": 54,
              "velocity": 71,
              "position": 3,
              "duration": 0.00625
            },
            {
              "pitch": 38,
              "velocity": 37,
              "position": 3.3333333333333335,
              "duration": 0.00625
            },
            {
              "pitch": 35,
              "velocity": 40,
              "position": 3.6666666666666665,
              "duration": 0.00625
            },
            {
              "pitch": 46,
              "velocity": 21,
              "position": 3.6666666666666665,
              "duration": 0.00625
            },
            {
              "pitch": 49,
              "velocity": 57,
              "position": 3.9895833333333335,
              "duration": 0.00625
            }
          ]
        },
        "10": {
          "ctab": {
            "srcChannel": 10,
            "name": "Bass",
            "accType": "BASS",
            "editable": false,
            "mutedNotes": [],
            "mutedChords": [
              "min",
              "Maj"
            ],
            "autoStart": false,
            "sourceChordNote": 0,
            "sourceChordType": "Maj7",
            "ctb2Low": null,
            "ctb2Main": {
              "ntr": "ROOT_TRANSPOSITION",
              "ntt": "MELODY",
              "bassOn": true,
              "chordRootUpperLimit": 8,
              "noteLowLimit": 28,
              "noteHighLimit": 51,
              "rtr": "PITCH_SHIFT_TO_ROOT"
            },
            "ctb2High": null
          },
          "notes": [
            {
              "pitch": 24,
              "velocity": 74,
              "position": 0,
              "duration": 0.31875
            },
            {
              "pitch": 48,
              "velocity": 62,
              "position": 0.3333333333333333,
              "duration": 0.15833333333333333
            },
            {
              "pitch": 24,
              "velocity": 110,
              "position": 0.6666666666666666,
              "duration": 0.11041666666666666
            },
            {
              "pitch": 28,
              "velocity": 74,
              "position": 1,
              "duration": 0.6520833333333333
            },
            {
              "pitch": 28,
              "velocity": 60,
              "position": 1.6666666666666667,
              "duration": 0.31875
            },
            {
              "pitch": 31,
              "velocity": 74,
              "position": 2,
              "duration": 0.9854166666666667
            },
            {
              "pitch": 35,
              "velocity": 74,
              "position": 3,
              "duration": 0.9854166666666667
            }
          ]
        },
        "11": {
          "ctab": {
            "srcChannel": 11,
            "name": "Gtr",
            "accType": "CHORD1",
            "editable": false,
            "mutedNotes": [],
            "mutedChords": [],
            "autoStart": false,
            "sourceChordNote": 0,
            "sourceChordType": "Maj7",
            "ctb2Low": null,
            "ctb2Main": {
              "ntr": "ROOT_FIXED",
              "ntt": "CHORD",
              "bassOn": false,
              "chordRootUpperLimit": 7,
              "noteLowLimit": 0,
              "noteHighLimit": 127,
              "rtr": "PITCH_SHIFT"
            },
            "ctb2High": null
          },
          "notes": [
            {
              "pitch": 59,
              "velocity": 116,
              "position": 1,
              "duration": 0.21458333333333332
            },
            {
              "pitch": 64,
              "velocity": 116,
              "position": 1.0104166666666667,
              "duration": 0.21458333333333332
            },
            {
              "pitch": 67,
              "velocity": 116,
              "position": 1.0208333333333333,
              "duration": 0.21458333333333332
            },
            {
              "pitch": 59,
              "velocity": 116,
              "position": 3,
              "duration": 0.21458333333333332
            },
            {
              "pitch": 64,
              "velocity": 116,
              "position": 3.0104166666666665,
              "duration": 0.21458333333333332
            },
            {
              "pitch": 67,
              "velocity": 116,
              "position": 3.0208333333333335,
              "duration": 0.21458333333333332
            }
          ]
        },
        "12": {
          "ctab": {
            "srcChannel": 12,
            "name": "Pno RH",
            "accType": "CHORD2",
            "editable": false,
            "mutedNotes": [],
            "mutedChords": [
              "min7",
              "min",
              "Maj"
            ],
            "autoStart": false,
            "sourceChordNote": 0,
            "sourceChordType": "Maj7",
            "ctb2Low": null,
            "ctb2Main": {
              "ntr": "ROOT_FIXED",
              "ntt": "CHORD",
              "bassOn": false,
              "chordRootUpperLimit": 7,
              "noteLowLimit": 0,
              "noteHighLimit": 127,
              "rtr": "PITCH_SHIFT"
            },
            "ctb2High": null
          },
          "notes": [
            {
              "pitch": 55,
              "velocity": 116,
              "position": 0,
              "duration": 0.9854166666666667
            },
            {
              "pitch": 59,
              "velocity": 116,
              "position": 0,
              "duration": 0.9854166666666667
            },
            {
              "pitch": 64,
              "velocity": 116,
              "position": 0,
              "duration": 0.9854166666666667
            },
            {
              "pitch": 67,
              "velocity": 116,
              "position": 1,
              "duration": 0.9854166666666667
            },
            {
              "pitch": 71,
              "velocity": 116,
              "position": 1,
              "duration": 0.9854166666666667
            },
            {
              "pitch": 76,
              "velocity": 116,
              "position": 1,
              "duration": 0.9854166666666667
            },
            {
              "pitch": 64,
              "velocity": 116,
              "position": 2,
              "duration": 0.9854166666666667
            },
            {
              "pitch": 67,
              "velocity": 116,
              "position": 2,
              "duration": 0.9854166666666667
            },
            {
              "pitch": 71,
              "velocity": 116,
              "position": 2,
              "duration": 0.9854166666666667
            },
            {
              "pitch": 59,
              "velocity": 116,
              "position": 3,
              "duration": 0.9854166666666667
            },
            {
              "pitch": 64,
              "velocity": 116,
              "position": 3,
              "duration": 0.9854166666666667
            },
            {
              "pitch": 67,
              "velocity": 116,
              "position": 3,
              "duration": 0.9854166666666667
            }
          ]
        },
        "13": {
          "ctab": {
            "srcChannel": 13,
            "name": "Pno LH",
            "accType": "CHORD2",
            "editable": false,
            "mutedNotes": [],
            "mutedChords": [],
            "autoStart": false,
            "sourceChordNote": 0,
            "sourceChordType": "Maj7",
            "ctb2Low": null,
            "ctb2Main": {
              "ntr": "ROOT_TRANSPOSITION",
              "ntt": "MELODY",
              "bassOn": true,
              "chordRootUpperLimit": 5,
              "noteLowLimit": 0,
              "noteHighLimit": 127,
              "rtr": "PITCH_SHIFT"
            },
            "ctb2High": null
          },
          "notes": [
            {
              "pitch": 36,
              "velocity": 112,
              "position": 0,
              "duration": 1.9854166666666666
            },
            {
              "pitch": 48,
              "velocity": 94,
              "position": 1.6666666666666667,
              "duration": 0.6520833333333333
            },
            {
              "pitch": 36,
              "velocity": 112,
              "position": 2,
              "duration": 0.6520833333333333
            },
            {
              "pitch": 36,
              "velocity": 77,
              "position": 2.6666666666666665,
              "duration": 1.31875
            },
            {
              "pitch": 48,
              "velocity": 77,
              "position": 2.3333333333333335,
              "duration": 1.6520833333333333
            }
          ]
        },
        "14": {
          "ctab": {
            "srcChannel": 14,
            "name": "Organ",
            "accType": "PAD",
            "editable": false,
            "mutedNotes": [],
            "mutedChords": [],
            "autoStart": false,
            "sourceChordNote": 0,
            "sourceChordType": "Maj7",
            "ctb2Low": null,
            "ctb2Main": {
              "ntr": "ROOT_FIXED",
              "ntt": "CHORD",
              "bassOn": false,
              "chordRootUpperLimit": 7,
              "noteLowLimit": 0,
              "noteHighLimit": 79,
              "rtr": "PITCH_SHIFT"
            },
            "ctb2High": null
          },
          "notes": []
        },
        "15": {
          "ctab": {
            "srcChannel": 15,
            "name": "Choir",
            "accType": "PHRASE1",
            "editable": false,
            "mutedNotes": [],
            "mutedChords": [
              "min7",
              "min",
              "Maj"
            ],
            "autoStart": false,
            "sourceChordNote": 0,
            "sourceChordType": "Maj7",
            "ctb2Low": null,
            "ctb2Main": {
              "ntr": "ROOT_FIXED",
              "ntt": "CHORD",
              "bassOn": false,
              "chordRootUpperLimit": 7,
              "noteLowLimit": 57,
              "noteHighLimit": 79,
              "rtr": "PITCH_SHIFT"
            },
            "ctb2High": null
          },
          "notes": [
            {
              "pitch": 47,
              "velocity": 50,
              "position": 0.010416666666666666,
              "duration": 3.975
            },
            {
              "pitch": 52,
              "velocity": 50,
              "position": 0.010416666666666666,
              "duration": 3.975
            },
            {
              "pitch": 55,
              "velocity": 50,
              "position": 0.010416666666666666,
              "duration": 3.975
            }
          ]
        }
      }
    },
    "Fill_In_BA": {
      "type": "Fill_In_BA",
      "sizeInBeats": 4,
      "channels": {
        "1": {
          "ctab": {
            "srcChannel": 1,
            "name": "Bass 2",
            "accType": "BASS",
            "editable": false,
            "mutedNotes": [],
            "mutedChords": [
              "1+2+5",
              "sus4",
              "1+5",
              "1+8",
              "7aug",
              "Maj7aug",
              "7(#9)",
              "7(b13)",
              "7(b9)",
              "7(13)",
              "7#11",
              "7(9)",
              "7b5",
              "7sus4",
              "7th",
              "dim7",
              "dim",
              "minMaj7(9)",
              "minMaj7",
              "min7(11)",
              "min7(9)",
              "min(9)",
              "m7b5",
              "min7",
              "min6",
              "aug",
              "Maj6(9)",
              "Maj7(9)",
              "Maj(9)",
              "Maj7#11",
              "Maj7",
              "Maj6"
            ],
            "autoStart": false,
            "sourceChordNote": 0,
            "sourceChordType": "Maj7",
            "ctb2Low": null,
            "ctb2Main": {
              "ntr": "ROOT_TRANSPOSITION",
              "ntt": "MELODY",
              "bassOn": true,
              "chordRootUpperLimit": 8,
              "noteLowLimit": 28,
              "noteHighLimit": 51,
              "rtr": "PITCH_SHIFT_TO_ROOT"
            },
            "ctb2High": null
          },
          "notes": [
            {
              "pitch": 24,
              "velocity": 74,
              "position": 0,
              "duration": 0.6520833333333333
            },
            {
              "pitch": 24,
              "velocity": 74,
              "position": 0.6666666666666666,
              "duration": 0.27708333333333335
            }
          ]
        },
        "2": {
          "ctab": {
            "srcChannel": 2,
            "name": "Gt Root",
            "accType": "CHORD1",
            "editable": false,
            "mutedNotes": [],
            "mutedChords": [
              "1+2+5",
              "sus4",
              "1+5",
              "1+8",
              "Maj7aug",
              "7th",
              "dim",
              "minMaj7(9)",
              "minMaj7",
              "min6",
              "min",
              "aug",
              "Maj7(9)",
              "Maj7#11",
              "Maj7",
              "Maj6",
              "Maj"
            ],
            "autoStart": false,
            "sourceChordNote": 0,
            "sourceChordType": "Maj7",
            "ctb2Low": null,
            "ctb2Main": {
              "ntr": "ROOT_TRANSPOSITION",
              "ntt": "CHORD",
              "bassOn": false,
              "chordRootUpperLimit": 7,
              "noteLowLimit": 0,
              "noteHighLimit": 127,
              "rtr": "PITCH_SHIFT"
            },
            "ctb2High": null
          },
          "notes": [
            {
              "pitch": 60,
              "velocity": 116,
              "position": 0,
              "duration": 0.6416666666666667
            },
            {
              "pitch": 60,
              "velocity": 116,
              "position": 0.6666666666666666,
              "duration": 0.12083333333333333
            }
          ]
        },
        "3": {
          "ctab": {
            "srcChannel": 3,
            "name": "Pno 2",
            "accType": "CHORD2",
            "editable": false,
            "mutedNotes": [],
            "mutedChords": [
              "1+2+5",
              "sus4",
              "1+5",
              "1+8",
              "7aug",
              "Maj7aug",
              "7(#9)",
              "7(b13)",
              "7(b9)",
              "7(13)",
              "7#11",
              "7(9)",
              "7b5",
              "7sus4",
              "7th",
              "dim7",
              "dim",
              "minMaj7(9)",
              "minMaj7",
              "min7(11)",
              "min7(9)",
              "min(9)",
              "m7b5",
              "min6",
              "aug",
              "Maj6(9)",
              "Maj7(9)",
              "Maj(9)",
              "Maj7#11",
              "Maj7",
              "Maj6"
            ],
            "autoStart": false,
            "sourceChordNote": 0,
            "sourceChordType": "Maj7",
            "ctb2Low": null,
            "ctb2Main": {
              "ntr": "ROOT_TRANSPOSITION",
              "ntt": "MELODIC_MINOR",
              "bassOn": false,
              "chordRootUpperLimit": 6,
              "noteLowLimit": 57,
              "noteHighLimit": 127,
              "rtr": "PITCH_SHIFT"
            },
            "ctb2High": null
          },
          "notes": [
            {
              "pitch": 43,
              "velocity": 116,
              "position": 0,
              "duration": 0.6520833333333333
            },
            {
              "pitch": 48,
              "velocity": 116,
              "position": 0,
              "duration": 0.6520833333333333
            },
            {
              "pitch": 52,
              "velocity": 116,
              "position": 0,
              "duration": 0.6520833333333333
            },
            {
              "pitch": 43,
              "velocity": 116,
              "position": 0.6666666666666666,
              "duration": 0.14166666666666666
            },
            {
              "pitch": 48,
              "velocity": 116,
              "position": 0.6666666666666666,
              "duration": 0.14166666666666666
            },
            {
              "pitch": 52,
              "velocity": 116,
              "position": 0.6666666666666666,
              "duration": 0.14166666666666666
            }
          ]
        },
        "6": {
          "ctab": {
            "srcChannel": 6,
            "name": "Choir 2",
            "accType": "PHRASE1",
            "editable": false,
            "mutedNotes": [],
            "mutedChords": [
              "1+2+5",
              "sus4",
              "1+5",
              "1+8",
              "7aug",
              "Maj7aug",
              "7(#9)",
              "7(b13)",
              "7(b9)",
              "7(13)",
              "7#11",
              "7(9)",
              "7b5",
              "7sus4",
              "7th",
              "dim7",
              "dim",
              "minMaj7(9)",
              "minMaj7",
              "min7(11)",
              "min7(9)",
              "min(9)",
              "m7b5",
              "min6",
              "aug",
              "Maj6(9)",
              "Maj7(9)",
              "Maj(9)",
              "Maj7#11",
              "Maj7",
              "Maj6"
            ],
            "autoStart": false,
            "sourceChordNote": 0,
            "sourceChordType": "Maj7",
            "ctb2Low": null,
            "ctb2Main": {
              "ntr": "ROOT_TRANSPOSITION",
              "ntt": "MELODIC_MINOR",
              "bassOn": false,
              "chordRootUpperLimit": 6,
              "noteLowLimit": 57,
              "noteHighLimit": 79,
              "rtr": "PITCH_SHIFT"
            },
            "ctb2High": null
          },
          "notes": [
            {
              "pitch": 79,
              "velocity": 50,
              "position": 0,
              "duration": 0.9854166666666667
            },
            {
              "pitch": 84,
              "velocity": 50,
              "position": 0,
              "duration": 0.9854166666666667
            },
            {
              "pitch": 88,
              "velocity": 50,
              "position": 0,
              "duration": 0.9854166666666667
            }
          ]
        },
        "7": {
          "ctab": {
            "srcChannel": 7,
            "name": "CC_Crash",
            "accType": "RHYTHM",
            "editable": false,
            "mutedNotes": [],
            "mutedChords": [
              "1+2+5",
              "sus4",
              "1+5",
              "1+8",
              "7aug",
              "Maj7aug",
              "7(#9)",
              "7(b13)",
              "7(b9)",
              "7(13)",
              "7#11",
              "7(9)",
              "7b5",
              "7sus4",
              "7th",
              "dim7",
              "dim",
              "minMaj7(9)",
              "minMaj7",
              "min7(11)",
              "min7(9)",
              "min(9)",
              "m7b5",
              "min7",
              "min6",
              "min",
              "aug",
              "Maj6(9)",
              "Maj7(9)",
              "Maj(9)",
              "Maj7#11",
              "Maj7",
              "Maj6",
              "Maj"
            ],
            "autoStart": true,
            "sourceChordNote": 0,
            "sourceChordType": "Maj",
            "ctb2Low": null,
            "ctb2Main": {
              "ntr": "ROOT_FIXED",
              "ntt": "BYPASS",
              "bassOn": false,
              "chordRootUpperLimit": 0,
              "noteLowLimit": 0,
              "noteHighLimit": 127,
              "rtr": "RETRIGGER"
            },
            "ctb2High": null
          },
          "notes": []
        },
        "9": {
          "ctab": {
            "srcChannel": 9,
            "name": "Drums",
            "accType": "RHYTHM",
            "editable": false,
            "mutedNotes": [],
            "mutedChords": [],
            "autoStart": true,
            "sourceChordNote": 0,
            "sourceChordType": "Maj7",
            "ctb2Low": null,
            "ctb2Main": {
              "ntr": "ROOT_FIXED",
              "ntt": "BYPASS",
              "bassOn": false,
              "chordRootUpperLimit": 6,
              "noteLowLimit": 0,
              "noteHighLimit": 127,
              "rtr": "PITCH_SHIFT"
            },
            "ctb2High": null
          },
          "notes": [
            {
              "pitch": 35,
              "velocity": 90,
              "position": 0,
              "duration": 0.00625
            },
            {
              "pitch": 54,
              "velocity": 71,
              "position": 0,
              "duration": 0.00625
            },
            {
              "pitch": 59,
              "velocity": 96,
              "position": 0,
              "duration": 0.00625
            },
            {
              "pitch": 38,
              "velocity": 20,
              "position": 0.3333333333333333,
              "duration": 0.00625
            },
            {
              "pitch": 54,
              "velocity": 27,
              "position": 0.3333333333333333,
              "duration": 0.00625
            },
            {
              "pitch": 35,
              "velocity": 90,
              "position": 0.6666666666666666,
              "duration": 0.00625
            },
            {
              "pitch": 38,
              "velocity": 115,
              "position": 0.6666666666666666,
              "duration": 0.00625
            },
            {
              "pitch": 46,
              "velocity": 72,
              "position": 0.6666666666666666,
              "duration": 0.00625
            },
            {
              "pitch": 54,
              "velocity": 46,
              "position": 0.6666666666666666,
              "duration": 0.00625
            },
            {
              "pitch": 44,
              "velocity": 32,
              "position": 1,
              "duration": 0.00625
            },
            {
              "pitch": 38,
              "velocity": 16,
              "position": 1.3333333333333333,
              "duration": 0.00625
            },
            {
              "pitch": 43,
              "velocity": 21,
              "position": 1.3333333333333333,
              "duration": 0.00625
            },
            {
              "pitch": 38,
              "velocity": 22,
              "position": 1.6666666666666667,
              "duration": 0.00625
            },
            {
              "pitch": 43,
              "velocity": 22,
              "position": 1.6666666666666667,
              "duration": 0.00625
            },
            {
              "pitch": 35,
              "velocity": 30,
              "position": 2,
              "duration": 0.00625
            },
            {
              "pitch": 38,
              "velocity": 16,
              "position": 2,
              "duration": 0.00625
            },
            {
              "pitch": 43,
              "velocity": 21,
              "position": 2,
              "duration": 0.00625
            },
            {
              "pitch": 44,
              "velocity": 32,
              "position": 2,
              "duration": 0.00625
            },
            {
              "pitch": 38,
              "velocity": 36,
              "position": 2.3333333333333335,
              "duration": 0.00625
            },
            {
              "pitch": 43,
              "velocity": 32,
              "position": 2.3333333333333335,
              "duration": 0.00625
            },
            {
              "pitch": 38,
              "velocity": 56,
              "position": 2.6666666666666665,
              "duration": 0.00625
            },
            {
              "pitch": 43,
              "velocity": 42,
              "position": 2.6666666666666665,
              "duration": 0.00625
            },
            {
              "pitch": 35,
              "velocity": 90,
              "position": 3,
              "duration": 0.00625
            },
            {
              "pitch": 38,
              "velocity": 70,
              "position": 3,
              "duration": 0.00625
            },
            {
              "pitch": 43,
              "velocity": 46,
              "position": 3,
              "duration": 0.00625
            },
            {
              "pitch": 44,
              "velocity": 32,
              "position": 3,
              "duration": 0.00625
            },
            {
              "pitch": 38,
              "velocity": 96,
              "position": 3.3333333333333335,
              "duration": 0.00625
            },
            {
              "pitch": 43,
              "velocity": 63,
              "position": 3.3333333333333335,
              "duration": 0.00625
            },
            {
              "pitch": 38,
              "velocity": 116,
              "position": 3.6666666666666665,
              "duration": 0.00625
            },
            {
              "pitch": 43,
              "velocity": 72,
              "position": 3.6666666666666665,
              "duration": 0.00625
            },
            {
              "pitch": 57,
              "velocity": 75,
              "position": 3.9895833333333335,
              "duration": 0.00625
            }
          ]
        },
        "10": {
          "ctab": {
            "srcChannel": 10,
            "name": "Bass",
            "accType": "BASS",
            "editable": false,
            "mutedNotes": [],
            "mutedChords": [
              "min",
              "Maj"
            ],
            "autoStart": false,
            "sourceChordNote": 0,
            "sourceChordType": "Maj7",
            "ctb2Low": null,
            "ctb2Main": {
              "ntr": "ROOT_TRANSPOSITION",
              "ntt": "MELODY",
              "bassOn": true,
              "chordRootUpperLimit": 8,
              "noteLowLimit": 28,
              "noteHighLimit": 51,
              "rtr": "PITCH_SHIFT_TO_ROOT"
            },
            "ctb2High": null
          },
          "notes": [
            {
              "pitch": 24,
              "velocity": 74,
              "position": 0,
              "duration": 0.6520833333333333
            },
            {
              "pitch": 24,
              "velocity": 74,
              "position": 0.6666666666666666,
              "duration": 0.27708333333333335
            }
          ]
        },
        "11": {
          "ctab": {
            "srcChannel": 11,
            "name": "Gtr",
            "accType": "CHORD1",
            "editable": false,
            "mutedNotes": [],
            "mutedChords": [],
            "autoStart": false,
            "sourceChordNote": 0,
            "sourceChordType": "Maj7",
            "ctb2Low": null,
            "ctb2Main": {
              "ntr": "ROOT_FIXED",
              "ntt": "CHORD",
              "bassOn": false,
              "chordRootUpperLimit": 7,
              "noteLowLimit": 0,
              "noteHighLimit": 127,
              "rtr": "PITCH_SHIFT"
            },
            "ctb2High": null
          },
          "notes": [
            {
              "pitch": 59,
              "velocity": 116,
              "position": 0,
              "duration": 0.6520833333333333
            },
            {
              "pitch": 64,
              "velocity": 116,
              "position": 0.010416666666666666,
              "duration": 0.6416666666666667
            },
            {
              "pitch": 67,
              "velocity": 116,
              "position": 0.020833333333333332,
              "duration": 0.63125
            },
            {
              "pitch": 59,
              "velocity": 116,
              "position": 0.6666666666666666,
              "duration": 0.12083333333333333
            },
            {
              "pitch": 64,
              "velocity": 116,
              "position": 0.6770833333333334,
              "duration": 0.12083333333333333
            },
            {
              "pitch": 67,
              "velocity": 116,
              "position": 0.6875,
              "duration": 0.12083333333333333
            }
          ]
        },
        "12": {
          "ctab": {
            "srcChannel": 12,
            "name": "Pno RH",
            "accType": "CHORD2",
            "editable": false,
            "mutedNotes": [],
            "mutedChords": [
              "min7",
              "min",
              "Maj"
            ],
            "autoStart": false,
            "sourceChordNote": 0,
            "sourceChordType": "Maj7",
            "ctb2Low": null,
            "ctb2Main": {
              "ntr": "ROOT_FIXED",
              "ntt": "CHORD",
              "bassOn": false,
              "chordRootUpperLimit": 7,
              "noteLowLimit": 0,
              "noteHighLimit": 127,
              "rtr": "PITCH_SHIFT"
            },
            "ctb2High": null
          },
          "notes": [
            {
              "pitch": 55,
              "velocity": 116,
              "position": 0,
              "duration": 0.6520833333333333
            },
            {
              "pitch": 59,
              "velocity": 116,
              "position": 0,
              "duration": 0.6520833333333333
            },
            {
              "pitch": 64,
              "velocity": 116,
              "position": 0,
              "duration": 0.6520833333333333
            },
            {
              "pitch": 55,
              "velocity": 116,
              "position": 0.6666666666666666,
              "duration": 0.19375
            },
            {
              "pitch": 59,
              "velocity": 116,
              "position": 0.6666666666666666,
              "duration": 0.19375
            },
            {
              "pitch": 64,
              "velocity": 116,
              "position": 0.6666666666666666,
              "duration": 0.19375
            }
          ]
        },
        "13": {
          "ctab": {
            "srcChannel": 13,
            "name": "Pno LH",
            "accType": "CHORD2",
            "editable": false,
            "mutedNotes": [],
            "mutedChords": [],
            "autoStart": false,
            "sourceChordNote": 0,
            "sourceChordType": "Maj7",
            "ctb2Low": null,
            "ctb2Main": {
              "ntr": "ROOT_TRANSPOSITION",
              "ntt": "MELODY",
              "bassOn": true,
              "chordRootUpperLimit": 5,
              "noteLowLimit": 0,
              "noteHighLimit": 127,
              "rtr": "PITCH_SHIFT"
            },
            "ctb2High": null
          },
          "notes": []
        },
        "14": {
          "ctab": {
            "srcChannel": 14,
            "name": "Organ",
            "accType": "PAD",
            "editable": false,
            "mutedNotes": [],
            "mutedChords": [],
            "autoStart": false,
            "sourceChordNote": 0,
            "sourceChordType": "Maj7",
            "ctb2Low": null,
            "ctb2Main": {
              "ntr": "ROOT_FIXED",
              "ntt": "CHORD",
              "bassOn": false,
              "chordRootUpperLimit": 7,
              "noteLowLimit": 0,
              "noteHighLimit": 79,
              "rtr": "PITCH_SHIFT"
            },
            "ctb2High": null
          },
          "notes": [
            {
              "pitch": 55,
              "velocity": 108,
              "position": 0.010416666666666666,
              "duration": 0.975
            },
            {
              "pitch": 59,
              "velocity": 108,
              "position": 0.010416666666666666,
              "duration": 0.975
            },
            {
              "pitch": 64,
              "velocity": 108,
              "position": 0.010416666666666666,
              "duration": 0.975
            },
            {
              "pitch": 72,
              "velocity": 96,
              "position": 0.010416666666666666,
              "duration": 0.975
            },
            {
              "pitch": 84,
              "velocity": 96,
              "position": 0.010416666666666666,
              "duration": 0.975
            }
          ]
        },
        "15": {
          "ctab": {
            "srcChannel": 15,
            "name": "Choir",
            "accType": "PHRASE1",
            "editable": false,
            "mutedNotes": [],
            "mutedChords": [
              "min7",
              "min",
              "Maj"
            ],
            "autoStart": false,
            "sourceChordNote": 0,
            "sourceChordType": "Maj7",
            "ctb2Low": null,
            "ctb2Main": {
              "ntr": "ROOT_FIXED",
              "ntt": "CHORD",
              "bassOn": false,
              "chordRootUpperLimit": 7,
              "noteLowLimit": 57,
              "noteHighLimit": 79,
              "rtr": "PITCH_SHIFT"
            },
            "ctb2High": null
          },
          "notes": [
            {
              "pitch": 79,
              "velocity": 50,
              "position": 0,
              "duration": 0.9854166666666667
            },
            {
              "pitch": 83,
              "velocity": 50,
              "position": 0,
              "duration": 0.9854166666666667
            },
            {
              "pitch": 88,
              "velocity": 50,
              "position": 0,
              "duration": 0.9854166666666667
            }
          ]
        }
      }
    },
    "Fill_In_BB": {
      "type": "Fill_In_BB",
      "sizeInBeats": 4,
      "channels": {
        "0": {
          "ctab": {
            "srcChannel": 0,
            "name": "Bass Fx",
            "accType": "BASS",
            "editable": true,
            "mutedNotes": [],
            "mutedChords": [],
            "autoStart": false,
            "sourceChordNote": 0,
            "sourceChordType": "Maj7",
            "ctb2Low": null,
            "ctb2Main": {
              "ntr": "ROOT_FIXED",
              "ntt": "BYPASS",
              "bassOn": false,
              "chordRootUpperLimit": 6,
              "noteLowLimit": 0,
              "noteHighLimit": 127,
              "rtr": "PITCH_SHIFT"
            },
            "ctb2High": null
          },
          "notes": []
        },
        "1": {
          "ctab": {
            "srcChannel": 1,
            "name": "Bass",
            "accType": "BASS",
            "editable": false,
            "mutedNotes": [],
            "mutedChords": [
              "1+2+5",
              "sus4",
              "1+5",
              "7aug",
              "Maj7aug",
              "7(#9)",
              "7(b13)",
              "7(b9)",
              "7(13)",
              "7#11",
              "7(9)",
              "7b5",
              "7sus4",
              "7th",
              "dim7",
              "dim",
              "minMaj7(9)",
              "minMaj7",
              "min7(11)",
              "min7(9)",
              "min(9)",
              "m7b5",
              "min7",
              "min6",
              "min",
              "aug",
              "Maj6(9)",
              "Maj7(9)",
              "Maj(9)",
              "Maj7#11",
              "Maj7",
              "Maj6",
              "Maj"
            ],
            "autoStart": false,
            "sourceChordNote": 0,
            "sourceChordType": "Maj7",
            "ctb2Low": null,
            "ctb2Main": {
              "ntr": "ROOT_TRANSPOSITION",
              "ntt": "MELODY",
              "bassOn": true,
              "chordRootUpperLimit": 8,
              "noteLowLimit": 28,
              "noteHighLimit": 51,
              "rtr": "PITCH_SHIFT_TO_ROOT"
            },
            "ctb2High": null
          },
          "notes": [
            {
              "pitch": 24,
              "velocity": 74,
              "position": 0,
              "duration": 0.6208333333333333
            },
            {
              "pitch": 24,
              "velocity": 60,
              "position": 0.6666666666666666,
              "duration": 0.1625
            },
            {
              "pitch": 24,
              "velocity": 74,
              "position": 1,
              "duration": 0.9854166666666667
            },
            {
              "pitch": 28,
              "velocity": 74,
              "position": 2,
              "duration": 0.31875
            },
            {
              "pitch": 31,
              "velocity": 60,
              "position": 2.3333333333333335,
              "duration": 0.31875
            },
            {
              "pitch": 31,
              "velocity": 60,
              "position": 2.6666666666666665,
              "duration": 0.1625
            },
            {
              "pitch": 36,
              "velocity": 74,
              "position": 3,
              "duration": 0.31875
            },
            {
              "pitch": 31,
              "velocity": 74,
              "position": 3.3333333333333335,
              "duration": 0.31875
            },
            {
              "pitch": 36,
              "velocity": 60,
              "position": 3.6666666666666665,
              "duration": 0.31875
            }
          ]
        },
        "7": {
          "ctab": {
            "srcChannel": 7,
            "name": "CC_Crash",
            "accType": "RHYTHM",
            "editable": false,
            "mutedNotes": [],
            "mutedChords": [
              "1+2+5",
              "sus4",
              "1+5",
              "1+8",
              "7aug",
              "Maj7aug",
              "7(#9)",
              "7(b13)",
              "7(b9)",
              "7(13)",
              "7#11",
              "7(9)",
              "7b5",
              "7sus4",
              "7th",
              "dim7",
              "dim",
              "minMaj7(9)",
              "minMaj7",
              "min7(11)",
              "min7(9)",
              "min(9)",
              "m7b5",
              "min7",
              "min6",
              "min",
              "aug",
              "Maj6(9)",
              "Maj7(9)",
              "Maj(9)",
              "Maj7#11",
              "Maj7",
              "Maj6",
              "Maj"
            ],
            "autoStart": true,
            "sourceChordNote": 0,
            "sourceChordType": "Maj",
            "ctb2Low": null,
            "ctb2Main": {
              "ntr": "ROOT_FIXED",
              "ntt": "BYPASS",
              "bassOn": false,
              "chordRootUpperLimit": 0,
              "noteLowLimit": 0,
              "noteHighLimit": 127,
              "rtr": "RETRIGGER"
            },
            "ctb2High": null
          },
          "notes": []
        },
        "8": {
          "ctab": {
            "srcChannel": 8,
            "name": "Perc",
            "accType": "SUBRHYTHM",
            "editable": false,
            "mutedNotes": [],
            "mutedChords": [],
            "autoStart": true,
            "sourceChordNote": 0,
            "sourceChordType": "Maj7",
            "ctb2Low": null,
            "ctb2Main": {
              "ntr": "ROOT_FIXED",
              "ntt": "BYPASS",
              "bassOn": false,
              "chordRootUpperLimit": 6,
              "noteLowLimit": 0,
              "noteHighLimit": 127,
              "rtr": "PITCH_SHIFT"
            },
            "ctb2High": null
          },
          "notes": []
        },
        "9": {
          "ctab": {
            "srcChannel": 9,
            "name": "Drums",
            "accType": "RHYTHM",
            "editable": false,
            "mutedNotes": [],
            "mutedChords": [],
            "autoStart": true,
            "sourceChordNote": 0,
            "sourceChordType": "Maj7",
            "ctb2Low": null,
            "ctb2Main": {
              "ntr": "ROOT_FIXED",
              "ntt": "BYPASS",
              "bassOn": false,
              "chordRootUpperLimit": 6,
              "noteLowLimit": 0,
              "noteHighLimit": 127,
              "rtr": "PITCH_SHIFT"
            },
            "ctb2High": null
          },
          "notes": [
            {
              "pitch": 35,
              "velocity": 90,
              "position": 0,
              "duration": 0.00625
            },
            {
              "pitch": 42,
              "velocity": 78,
              "position": 0,
              "duration": 0.00625
            },
            {
              "pitch": 54,
              "velocity": 52,
              "position": 0,
              "duration": 0.00625
            },
            {
              "pitch": 38,
              "velocity": 15,
              "position": 0.3333333333333333,
              "duration": 0.00625
            },
            {
              "pitch": 42,
              "velocity": 18,
              "position": 0.6666666666666666,
              "duration": 0.00625
            },
            {
              "pitch": 54,
              "velocity": 20,
              "position": 0.6666666666666666,
              "duration": 0.00625
            },
            {
              "pitch": 38,
              "velocity": 100,
              "position": 1,
              "duration": 0.00625
            },
            {
              "pitch": 46,
              "velocity": 45,
              "position": 1,
              "duration": 0.00625
            },
            {
              "pitch": 54,
              "velocity": 71,
              "position": 1,
              "duration": 0.00625
            },
            {
              "pitch": 38,
              "velocity": 15,
              "position": 1.3333333333333333,
              "duration": 0.00625
            },
            {
              "pitch": 35,
              "velocity": 40,
              "position": 1.6666666666666667,
              "duration": 0.00625
            },
            {
              "pitch": 54,
              "velocity": 13,
              "position": 1.6666666666666667,
              "duration": 0.00625
            },
            {
              "pitch": 35,
              "velocity": 90,
              "position": 2,
              "duration": 0.00625
            },
            {
              "pitch": 46,
              "velocity": 45,
              "position": 2,
              "duration": 0.00625
            },
            {
              "pitch": 54,
              "velocity": 52,
              "position": 2,
              "duration": 0.00625
            },
            {
              "pitch": 38,
              "velocity": 36,
              "position": 2.3333333333333335,
              "duration": 0.00625
            },
            {
              "pitch": 45,
              "velocity": 36,
              "position": 2.3333333333333335,
              "duration": 0.00625
            },
            {
              "pitch": 38,
              "velocity": 40,
              "position": 2.6666666666666665,
              "duration": 0.00625
            },
            {
              "pitch": 45,
              "velocity": 40,
              "position": 2.6666666666666665,
              "duration": 0.00625
            },
            {
              "pitch": 54,
              "velocity": 20,
              "position": 2.6666666666666665,
              "duration": 0.00625
            },
            {
              "pitch": 35,
              "velocity": 90,
              "position": 3,
              "duration": 0.00625
            },
            {
              "pitch": 38,
              "velocity": 60,
              "position": 3,
              "duration": 0.00625
            },
            {
              "pitch": 45,
              "velocity": 60,
              "position": 3,
              "duration": 0.00625
            },
            {
              "pitch": 54,
              "velocity": 71,
              "position": 3,
              "duration": 0.00625
            },
            {
              "pitch": 38,
              "velocity": 80,
              "position": 3.3333333333333335,
              "duration": 0.00625
            },
            {
              "pitch": 43,
              "velocity": 80,
              "position": 3.3333333333333335,
              "duration": 0.00625
            },
            {
              "pitch": 38,
              "velocity": 120,
              "position": 3.6666666666666665,
              "duration": 0.00625
            },
            {
              "pitch": 43,
              "velocity": 120,
              "position": 3.6666666666666665,
              "duration": 0.00625
            },
            {
              "pitch": 49,
              "velocity": 57,
              "position": 3.6666666666666665,
              "duration": 0.00625
            },
            {
              "pitch": 54,
              "velocity": 13,
              "position": 3.6666666666666665,
              "duration": 0.00625
            },
            {
              "pitch": 49,
              "velocity": 57,
              "position": 3.9895833333333335,
              "duration": 0.00625
            }
          ]
        },
        "10": {
          "ctab": {
            "srcChannel": 10,
            "name": "Bass",
            "accType": "BASS",
            "editable": false,
            "mutedNotes": [],
            "mutedChords": [
              "1+8"
            ],
            "autoStart": false,
            "sourceChordNote": 0,
            "sourceChordType": "Maj7",
            "ctb2Low": null,
            "ctb2Main": {
              "ntr": "ROOT_TRANSPOSITION",
              "ntt": "MELODIC_MINOR",
              "bassOn": true,
              "chordRootUpperLimit": 8,
              "noteLowLimit": 28,
              "noteHighLimit": 51,
              "rtr": "PITCH_SHIFT_TO_ROOT"
            },
            "ctb2High": null
          },
          "notes": [
            {
              "pitch": 24,
              "velocity": 74,
              "position": 0,
              "duration": 0.6208333333333333
            },
            {
              "pitch": 24,
              "velocity": 60,
              "position": 0.6666666666666666,
              "duration": 0.1625
            },
            {
              "pitch": 26,
              "velocity": 74,
              "position": 1,
              "duration": 0.9854166666666667
            },
            {
              "pitch": 28,
              "velocity": 74,
              "position": 2,
              "duration": 0.31875
            },
            {
              "pitch": 31,
              "velocity": 60,
              "position": 2.3333333333333335,
              "duration": 0.31875
            },
            {
              "pitch": 33,
              "velocity": 60,
              "position": 2.6666666666666665,
              "duration": 0.1625
            },
            {
              "pitch": 36,
              "velocity": 74,
              "position": 3,
              "duration": 0.31875
            },
            {
              "pitch": 38,
              "velocity": 74,
              "position": 3.3333333333333335,
              "duration": 0.31875
            },
            {
              "pitch": 36,
              "velocity": 60,
              "position": 3.6666666666666665,
              "duration": 0.31875
            }
          ]
        },
        "11": {
          "ctab": {
            "srcChannel": 11,
            "name": "Gtr",
            "accType": "CHORD1",
            "editable": false,
            "mutedNotes": [],
            "mutedChords": [],
            "autoStart": false,
            "sourceChordNote": 0,
            "sourceChordType": "Maj7",
            "ctb2Low": null,
            "ctb2Main": {
              "ntr": "ROOT_TRANSPOSITION",
              "ntt": "MELODIC_MINOR",
              "bassOn": false,
              "chordRootUpperLimit": 7,
              "noteLowLimit": 0,
              "noteHighLimit": 127,
              "rtr": "PITCH_SHIFT"
            },
            "ctb2High": null
          },
          "notes": [
            {
              "pitch": 60,
              "velocity": 98,
              "position": 0.3333333333333333,
              "duration": 0.31875
            },
            {
              "pitch": 72,
              "velocity": 98,
              "position": 0.3541666666666667,
              "duration": 0.31875
            },
            {
              "pitch": 60,
              "velocity": 98,
              "position": 0.6666666666666666,
              "duration": 0.016666666666666666
            },
            {
              "pitch": 72,
              "velocity": 98,
              "position": 0.6875,
              "duration": 0.016666666666666666
            },
            {
              "pitch": 60,
              "velocity": 98,
              "position": 1,
              "duration": 0.32916666666666666
            },
            {
              "pitch": 60,
              "velocity": 98,
              "position": 1.3333333333333333,
              "duration": 0.016666666666666666
            },
            {
              "pitch": 72,
              "velocity": 98,
              "position": 1.0208333333333333,
              "duration": 0.32916666666666666
            },
            {
              "pitch": 72,
              "velocity": 98,
              "position": 1.3541666666666667,
              "duration": 0.016666666666666666
            },
            {
              "pitch": 60,
              "velocity": 98,
              "position": 1.6666666666666667,
              "duration": 0.32916666666666666
            },
            {
              "pitch": 55,
              "velocity": 64,
              "position": 2,
              "duration": 0.016666666666666666
            },
            {
              "pitch": 72,
              "velocity": 98,
              "position": 1.6875,
              "duration": 0.32916666666666666
            },
            {
              "pitch": 67,
              "velocity": 64,
              "position": 2,
              "duration": 0.016666666666666666
            },
            {
              "pitch": 55,
              "velocity": 116,
              "position": 2.3333333333333335,
              "duration": 0.32916666666666666
            },
            {
              "pitch": 67,
              "velocity": 116,
              "position": 2.3333333333333335,
              "duration": 0.32916666666666666
            },
            {
              "pitch": 55,
              "velocity": 90,
              "position": 2.6666666666666665,
              "duration": 0.1625
            },
            {
              "pitch": 67,
              "velocity": 90,
              "position": 2.6666666666666665,
              "duration": 0.1625
            },
            {
              "pitch": 60,
              "velocity": 116,
              "position": 3,
              "duration": 0.31875
            },
            {
              "pitch": 72,
              "velocity": 116,
              "position": 3,
              "duration": 0.31875
            },
            {
              "pitch": 60,
              "velocity": 116,
              "position": 3.3333333333333335,
              "duration": 0.31875
            },
            {
              "pitch": 72,
              "velocity": 116,
              "position": 3.3333333333333335,
              "duration": 0.31875
            },
            {
              "pitch": 60,
              "velocity": 116,
              "position": 3.6666666666666665,
              "duration": 0.31875
            },
            {
              "pitch": 72,
              "velocity": 116,
              "position": 3.6666666666666665,
              "duration": 0.31875
            }
          ]
        },
        "12": {
          "ctab": {
            "srcChannel": 12,
            "name": "Pno RH",
            "accType": "CHORD2",
            "editable": false,
            "mutedNotes": [],
            "mutedChords": [],
            "autoStart": false,
            "sourceChordNote": 0,
            "sourceChordType": "Maj7",
            "ctb2Low": null,
            "ctb2Main": {
              "ntr": "ROOT_TRANSPOSITION",
              "ntt": "MELODIC_MINOR",
              "bassOn": false,
              "chordRootUpperLimit": 6,
              "noteLowLimit": 57,
              "noteHighLimit": 79,
              "rtr": "PITCH_SHIFT"
            },
            "ctb2High": null
          },
          "notes": [
            {
              "pitch": 58,
              "velocity": 116,
              "position": 0.3333333333333333,
              "duration": 0.6520833333333333
            },
            {
              "pitch": 62,
              "velocity": 116,
              "position": 0.3333333333333333,
              "duration": 0.6520833333333333
            },
            {
              "pitch": 65,
              "velocity": 116,
              "position": 0.3333333333333333,
              "duration": 0.6520833333333333
            },
            {
              "pitch": 57,
              "velocity": 116,
              "position": 1,
              "duration": 0.6520833333333333
            },
            {
              "pitch": 60,
              "velocity": 116,
              "position": 1,
              "duration": 0.6520833333333333
            },
            {
              "pitch": 65,
              "velocity": 116,
              "position": 1,
              "duration": 0.6520833333333333
            },
            {
              "pitch": 55,
              "velocity": 116,
              "position": 1.6666666666666667,
              "duration": 0.6520833333333333
            },
            {
              "pitch": 60,
              "velocity": 116,
              "position": 1.6666666666666667,
              "duration": 0.6520833333333333
            },
            {
              "pitch": 64,
              "velocity": 116,
              "position": 1.6666666666666667,
              "duration": 0.6520833333333333
            },
            {
              "pitch": 55,
              "velocity": 116,
              "position": 2.3333333333333335,
              "duration": 0.31875
            },
            {
              "pitch": 67,
              "velocity": 116,
              "position": 2.3333333333333335,
              "duration": 0.31875
            },
            {
              "pitch": 79,
              "velocity": 116,
              "position": 2.3333333333333335,
              "duration": 0.31875
            },
            {
              "pitch": 57,
              "velocity": 116,
              "position": 2.6666666666666665,
              "duration": 0.31875
            },
            {
              "pitch": 69,
              "velocity": 116,
              "position": 2.6666666666666665,
              "duration": 0.31875
            },
            {
              "pitch": 81,
              "velocity": 116,
              "position": 2.6666666666666665,
              "duration": 0.31875
            },
            {
              "pitch": 60,
              "velocity": 116,
              "position": 3,
              "duration": 0.31875
            },
            {
              "pitch": 72,
              "velocity": 116,
              "position": 3,
              "duration": 0.31875
            },
            {
              "pitch": 84,
              "velocity": 116,
              "position": 3,
              "duration": 0.31875
            },
            {
              "pitch": 62,
              "velocity": 116,
              "position": 3.3333333333333335,
              "duration": 0.31875
            },
            {
              "pitch": 74,
              "velocity": 116,
              "position": 3.3333333333333335,
              "duration": 0.31875
            },
            {
              "pitch": 86,
              "velocity": 116,
              "position": 3.3333333333333335,
              "duration": 0.31875
            },
            {
              "pitch": 60,
              "velocity": 116,
              "position": 3.6666666666666665,
              "duration": 0.31875
            },
            {
              "pitch": 72,
              "velocity": 116,
              "position": 3.6666666666666665,
              "duration": 0.31875
            },
            {
              "pitch": 84,
              "velocity": 116,
              "position": 3.6666666666666665,
              "duration": 0.31875
            }
          ]
        },
        "13": {
          "ctab": {
            "srcChannel": 13,
            "name": "Pno LH",
            "accType": "CHORD2",
            "editable": false,
            "mutedNotes": [],
            "mutedChords": [],
            "autoStart": false,
            "sourceChordNote": 0,
            "sourceChordType": "Maj7",
            "ctb2Low": null,
            "ctb2Main": {
              "ntr": "ROOT_TRANSPOSITION",
              "ntt": "MELODIC_MINOR",
              "bassOn": false,
              "chordRootUpperLimit": 5,
              "noteLowLimit": 0,
              "noteHighLimit": 127,
              "rtr": "PITCH_SHIFT"
            },
            "ctb2High": null
          },
          "notes": [
            {
              "pitch": 36,
              "velocity": 112,
              "position": 0,
              "duration": 1.9854166666666666
            },
            {
              "pitch": 48,
              "velocity": 94,
              "position": 1.6666666666666667,
              "duration": 0.6520833333333333
            },
            {
              "pitch": 36,
              "velocity": 112,
              "position": 2,
              "duration": 0.6520833333333333
            },
            {
              "pitch": 36,
              "velocity": 94,
              "position": 2.6666666666666665,
              "duration": 0.6520833333333333
            },
            {
              "pitch": 48,
              "velocity": 94,
              "position": 2.3333333333333335,
              "duration": 1.31875
            },
            {
              "pitch": 36,
              "velocity": 77,
              "position": 3.3333333333333335,
              "duration": 0.6520833333333333
            },
            {
              "pitch": 48,
              "velocity": 94,
              "position": 3.6666666666666665,
              "duration": 0.31875
            }
          ]
        },
        "14": {
          "ctab": {
            "srcChannel": 14,
            "name": "Organ",
            "accType": "PAD",
            "editable": false,
            "mutedNotes": [],
            "mutedChords": [],
            "autoStart": false,
            "sourceChordNote": 0,
            "sourceChordType": "Maj7",
            "ctb2Low": null,
            "ctb2Main": {
              "ntr": "ROOT_TRANSPOSITION",
              "ntt": "MELODIC_MINOR",
              "bassOn": false,
              "chordRootUpperLimit": 9,
              "noteLowLimit": 0,
              "noteHighLimit": 79,
              "rtr": "PITCH_SHIFT"
            },
            "ctb2High": null
          },
          "notes": [
            {
              "pitch": 78,
              "velocity": 108,
              "position": 0.34375,
              "duration": 0.18333333333333332
            },
            {
              "pitch": 74,
              "velocity": 108,
              "position": 0.34375,
              "duration": 0.5166666666666667
            },
            {
              "pitch": 79,
              "velocity": 108,
              "position": 0.34375,
              "duration": 0.5166666666666667
            },
            {
              "pitch": 82,
              "velocity": 108,
              "position": 0.34375,
              "duration": 0.5166666666666667
            },
            {
              "pitch": 72,
              "velocity": 108,
              "position": 1.0104166666666667,
              "duration": 0.5166666666666667
            },
            {
              "pitch": 77,
              "velocity": 108,
              "position": 1.0104166666666667,
              "duration": 0.5166666666666667
            },
            {
              "pitch": 81,
              "velocity": 108,
              "position": 1.0104166666666667,
              "duration": 0.5166666666666667
            },
            {
              "pitch": 75,
              "velocity": 108,
              "position": 1.6770833333333333,
              "duration": 0.18333333333333332
            },
            {
              "pitch": 72,
              "velocity": 108,
              "position": 1.6770833333333333,
              "duration": 0.5166666666666667
            },
            {
              "pitch": 76,
              "velocity": 108,
              "position": 1.6770833333333333,
              "duration": 0.5166666666666667
            },
            {
              "pitch": 79,
              "velocity": 108,
              "position": 1.6770833333333333,
              "duration": 0.5166666666666667
            },
            {
              "pitch": 67,
              "velocity": 108,
              "position": 2.3333333333333335,
              "duration": 0.31875
            },
            {
              "pitch": 79,
              "velocity": 108,
              "position": 2.3333333333333335,
              "duration": 0.31875
            },
            {
              "pitch": 69,
              "velocity": 108,
              "position": 2.6666666666666665,
              "duration": 0.31875
            },
            {
              "pitch": 81,
              "velocity": 108,
              "position": 2.6666666666666665,
              "duration": 0.31875
            },
            {
              "pitch": 72,
              "velocity": 108,
              "position": 3,
              "duration": 0.31875
            },
            {
              "pitch": 84,
              "velocity": 108,
              "position": 3,
              "duration": 0.31875
            },
            {
              "pitch": 74,
              "velocity": 108,
              "position": 3.3333333333333335,
              "duration": 0.31875
            },
            {
              "pitch": 86,
              "velocity": 108,
              "position": 3.3333333333333335,
              "duration": 0.31875
            },
            {
              "pitch": 72,
              "velocity": 108,
              "position": 3.6666666666666665,
              "duration": 0.31875
            },
            {
              "pitch": 84,
              "velocity": 108,
              "position": 3.6666666666666665,
              "duration": 0.31875
            }
          ]
        },
        "15": {
          "ctab": {
            "srcChannel": 15,
            "name": "Choir",
            "accType": "PHRASE1",
            "editable": false,
            "mutedNotes": [],
            "mutedChords": [],
            "autoStart": false,
            "sourceChordNote": 0,
            "sourceChordType": "Maj7",
            "ctb2Low": null,
            "ctb2Main": {
              "ntr": "ROOT_TRANSPOSITION",
              "ntt": "MELODIC_MINOR",
              "bassOn": false,
              "chordRootUpperLimit": 6,
              "noteLowLimit": 57,
              "noteHighLimit": 79,
              "rtr": "PITCH_SHIFT"
            },
            "ctb2High": null
          },
          "notes": [
            {
              "pitch": 46,
              "velocity": 50,
              "position": 0.010416666666666666,
              "duration": 0.975
            },
            {
              "pitch": 50,
              "velocity": 50,
              "position": 0.010416666666666666,
              "duration": 0.975
            },
            {
              "pitch": 45,
              "velocity": 50,
              "position": 1.0104166666666667,
              "duration": 0.6416666666666667
            },
            {
              "pitch": 53,
              "velocity": 50,
              "position": 0.010416666666666666,
              "duration": 1.6416666666666666
            },
            {
              "pitch": 52,
              "velocity": 50,
              "position": 1.6666666666666667,
              "duration": 1.3083333333333333
            },
            {
              "pitch": 45,
              "velocity": 50,
              "position": 3,
              "duration": 0.975
            },
            {
              "pitch": 53,
              "velocity": 50,
              "position": 3,
              "duration": 0.975
            }
          ]
        }
      }
    },
    "Fill_In_DD": {
      "type": "Fill_In_DD",
      "sizeInBeats": 4,
      "channels": {
        "0": {
          "ctab": {
            "srcChannel": 0,
            "name": "Bass Fx",
            "accType": "BASS",
            "editable": true,
            "mutedNotes": [],
            "mutedChords": [],
            "autoStart": false,
            "sourceChordNote": 0,
            "sourceChordType": "Maj7",
            "ctb2Low": null,
            "ctb2Main": {
              "ntr": "ROOT_FIXED",
              "ntt": "BYPASS",
              "bassOn": false,
              "chordRootUpperLimit": 6,
              "noteLowLimit": 0,
              "noteHighLimit": 127,
              "rtr": "PITCH_SHIFT"
            },
            "ctb2High": null
          },
          "notes": [
            {
              "pitch": 96,
              "velocity": 116,
              "position": 3,
              "duration": 0.9895833333333334
            }
          ]
        },
        "1": {
          "ctab": {
            "srcChannel": 1,
            "name": "Bass",
            "accType": "BASS",
            "editable": false,
            "mutedNotes": [],
            "mutedChords": [
              "1+2+5",
              "sus4",
              "1+5",
              "7aug",
              "Maj7aug",
              "7(#9)",
              "7(b13)",
              "7(b9)",
              "7(13)",
              "7#11",
              "7(9)",
              "7b5",
              "7sus4",
              "7th",
              "dim7",
              "dim",
              "minMaj7(9)",
              "minMaj7",
              "min7(11)",
              "min7(9)",
              "min(9)",
              "m7b5",
              "min7",
              "min6",
              "min",
              "aug",
              "Maj6(9)",
              "Maj7(9)",
              "Maj(9)",
              "Maj7#11",
              "Maj7",
              "Maj6",
              "Maj"
            ],
            "autoStart": false,
            "sourceChordNote": 0,
            "sourceChordType": "Maj7",
            "ctb2Low": null,
            "ctb2Main": {
              "ntr": "ROOT_TRANSPOSITION",
              "ntt": "MELODY",
              "bassOn": true,
              "chordRootUpperLimit": 8,
              "noteLowLimit": 28,
              "noteHighLimit": 51,
              "rtr": "PITCH_SHIFT_TO_ROOT"
            },
            "ctb2High": null
          },
          "notes": [
            {
              "pitch": 24,
              "velocity": 74,
              "position": 0,
              "duration": 0.31875
            },
            {
              "pitch": 28,
              "velocity": 74,
              "position": 0.3333333333333333,
              "duration": 0.31875
            },
            {
              "pitch": 31,
              "velocity": 74,
              "position": 1,
              "duration": 0.31875
            },
            {
              "pitch": 31,
              "velocity": 60,
              "position": 1.6666666666666667,
              "duration": 0.31875
            },
            {
              "pitch": 36,
              "velocity": 62,
              "position": 2.3333333333333335,
              "duration": 0.36041666666666666
            }
          ]
        },
        "7": {
          "ctab": {
            "srcChannel": 7,
            "name": "CC_Crash",
            "accType": "RHYTHM",
            "editable": false,
            "mutedNotes": [],
            "mutedChords": [
              "1+2+5",
              "sus4",
              "1+5",
              "1+8",
              "7aug",
              "Maj7aug",
              "7(#9)",
              "7(b13)",
              "7(b9)",
              "7(13)",
              "7#11",
              "7(9)",
              "7b5",
              "7sus4",
              "7th",
              "dim7",
              "dim",
              "minMaj7(9)",
              "minMaj7",
              "min7(11)",
              "min7(9)",
              "min(9)",
              "m7b5",
              "min7",
              "min6",
              "min",
              "aug",
              "Maj6(9)",
              "Maj7(9)",
              "Maj(9)",
              "Maj7#11",
              "Maj7",
              "Maj6",
              "Maj"
            ],
            "autoStart": true,
            "sourceChordNote": 0,
            "sourceChordType": "Maj",
            "ctb2Low": null,
            "ctb2Main": {
              "ntr": "ROOT_FIXED",
              "ntt": "BYPASS",
              "bassOn": false,
              "chordRootUpperLimit": 0,
              "noteLowLimit": 0,
              "noteHighLimit": 127,
              "rtr": "RETRIGGER"
            },
            "ctb2High": null
          },
          "notes": []
        },
        "8": {
          "ctab": {
            "srcChannel": 8,
            "name": "Perc",
            "accType": "SUBRHYTHM",
            "editable": false,
            "mutedNotes": [],
            "mutedChords": [],
            "autoStart": true,
            "sourceChordNote": 0,
            "sourceChordType": "Maj7",
            "ctb2Low": null,
            "ctb2Main": {
              "ntr": "ROOT_FIXED",
              "ntt": "BYPASS",
              "bassOn": false,
              "chordRootUpperLimit": 6,
              "noteLowLimit": 0,
              "noteHighLimit": 127,
              "rtr": "PITCH_SHIFT"
            },
            "ctb2High": null
          },
          "notes": [
            {
              "pitch": 39,
              "velocity": 69,
              "position": 1.0416666666666667,
              "duration": 0.00625
            },
            {
              "pitch": 39,
              "velocity": 77,
              "position": 3.0208333333333335,
              "duration": 0.00625
            }
          ]
        },
        "9": {
          "ctab": {
            "srcChannel": 9,
            "name": "Drums",
            "accType": "RHYTHM",
            "editable": false,
            "mutedNotes": [],
            "mutedChords": [],
            "autoStart": true,
            "sourceChordNote": 0,
            "sourceChordType": "Maj7",
            "ctb2Low": null,
            "ctb2Main": {
              "ntr": "ROOT_FIXED",
              "ntt": "BYPASS",
              "bassOn": false,
              "chordRootUpperLimit": 6,
              "noteLowLimit": 0,
              "noteHighLimit": 127,
              "rtr": "PITCH_SHIFT"
            },
            "ctb2High": null
          },
          "notes": [
            {
              "pitch": 54,
              "velocity": 71,
              "position": 0,
              "duration": 0.00625
            },
            {
              "pitch": 59,
              "velocity": 89,
              "position": 0,
              "duration": 0.00625
            },
            {
              "pitch": 35,
              "velocity": 90,
              "position": 0.3333333333333333,
              "duration": 0.00625
            },
            {
              "pitch": 38,
              "velocity": 20,
              "position": 0.3333333333333333,
              "duration": 0.00625
            },
            {
              "pitch": 46,
              "velocity": 47,
              "position": 0.3333333333333333,
              "duration": 0.00625
            },
            {
              "pitch": 54,
              "velocity": 27,
              "position": 0.3333333333333333,
              "duration": 0.00625
            },
            {
              "pitch": 44,
              "velocity": 1,
              "position": 0.6666666666666666,
              "duration": 0.00625
            },
            {
              "pitch": 54,
              "velocity": 46,
              "position": 0.6666666666666666,
              "duration": 0.00625
            },
            {
              "pitch": 39,
              "velocity": 80,
              "position": 0.9895833333333334,
              "duration": 0.00625
            },
            {
              "pitch": 38,
              "velocity": 100,
              "position": 1,
              "duration": 0.00625
            },
            {
              "pitch": 49,
              "velocity": 39,
              "position": 1,
              "duration": 0.00625
            },
            {
              "pitch": 54,
              "velocity": 71,
              "position": 1,
              "duration": 0.00625
            },
            {
              "pitch": 38,
              "velocity": 20,
              "position": 1.3333333333333333,
              "duration": 0.00625
            },
            {
              "pitch": 54,
              "velocity": 27,
              "position": 1.3333333333333333,
              "duration": 0.00625
            },
            {
              "pitch": 35,
              "velocity": 90,
              "position": 1.6666666666666667,
              "duration": 0.00625
            },
            {
              "pitch": 46,
              "velocity": 72,
              "position": 1.6666666666666667,
              "duration": 0.00625
            },
            {
              "pitch": 54,
              "velocity": 46,
              "position": 1.6666666666666667,
              "duration": 0.00625
            },
            {
              "pitch": 44,
              "velocity": 1,
              "position": 2,
              "duration": 0.00625
            },
            {
              "pitch": 54,
              "velocity": 71,
              "position": 2,
              "duration": 0.00625
            },
            {
              "pitch": 35,
              "velocity": 90,
              "position": 2.3333333333333335,
              "duration": 0.00625
            },
            {
              "pitch": 38,
              "velocity": 20,
              "position": 2.3333333333333335,
              "duration": 0.00625
            },
            {
              "pitch": 46,
              "velocity": 72,
              "position": 2.3333333333333335,
              "duration": 0.00625
            },
            {
              "pitch": 54,
              "velocity": 27,
              "position": 2.3333333333333335,
              "duration": 0.00625
            },
            {
              "pitch": 44,
              "velocity": 1,
              "position": 2.6666666666666665,
              "duration": 0.00625
            },
            {
              "pitch": 54,
              "velocity": 46,
              "position": 2.6666666666666665,
              "duration": 0.00625
            },
            {
              "pitch": 39,
              "velocity": 80,
              "position": 2.9791666666666665,
              "duration": 0.00625
            },
            {
              "pitch": 38,
              "velocity": 100,
              "position": 3,
              "duration": 0.00625
            },
            {
              "pitch": 49,
              "velocity": 57,
              "position": 3,
              "duration": 0.00625
            },
            {
              "pitch": 54,
              "velocity": 71,
              "position": 3,
              "duration": 0.00625
            },
            {
              "pitch": 38,
              "velocity": 56,
              "position": 3.3333333333333335,
              "duration": 0.00625
            },
            {
              "pitch": 54,
              "velocity": 27,
              "position": 3.3333333333333335,
              "duration": 0.00625
            },
            {
              "pitch": 35,
              "velocity": 40,
              "position": 3.6666666666666665,
              "duration": 0.00625
            },
            {
              "pitch": 38,
              "velocity": 76,
              "position": 3.6666666666666665,
              "duration": 0.00625
            },
            {
              "pitch": 44,
              "velocity": 25,
              "position": 3.6666666666666665,
              "duration": 0.00625
            },
            {
              "pitch": 54,
              "velocity": 46,
              "position": 3.6666666666666665,
              "duration": 0.00625
            },
            {
              "pitch": 49,
              "velocity": 57,
              "position": 3.9895833333333335,
              "duration": 0.00625
            }
          ]
        },
        "10": {
          "ctab": {
            "srcChannel": 10,
            "name": "Bass",
            "accType": "BASS",
            "editable": false,
            "mutedNotes": [],
            "mutedChords": [
              "1+8"
            ],
            "autoStart": false,
            "sourceChordNote": 0,
            "sourceChordType": "Maj7",
            "ctb2Low": null,
            "ctb2Main": {
              "ntr": "ROOT_TRANSPOSITION",
              "ntt": "MELODIC_MINOR",
              "bassOn": true,
              "chordRootUpperLimit": 8,
              "noteLowLimit": 28,
              "noteHighLimit": 51,
              "rtr": "PITCH_SHIFT_TO_ROOT"
            },
            "ctb2High": null
          },
          "notes": [
            {
              "pitch": 24,
              "velocity": 74,
              "position": 0,
              "duration": 0.31875
            },
            {
              "pitch": 28,
              "velocity": 74,
              "position": 0.3333333333333333,
              "duration": 0.31875
            },
            {
              "pitch": 31,
              "velocity": 74,
              "position": 1,
              "duration": 0.31875
            },
            {
              "pitch": 31,
              "velocity": 60,
              "position": 1.6666666666666667,
              "duration": 0.31875
            },
            {
              "pitch": 36,
              "velocity": 62,
              "position": 2.3333333333333335,
              "duration": 0.36041666666666666
            }
          ]
        },
        "11": {
          "ctab": {
            "srcChannel": 11,
            "name": "Gtr",
            "accType": "CHORD1",
            "editable": false,
            "mutedNotes": [],
            "mutedChords": [],
            "autoStart": false,
            "sourceChordNote": 0,
            "sourceChordType": "Maj7",
            "ctb2Low": null,
            "ctb2Main": {
              "ntr": "ROOT_TRANSPOSITION",
              "ntt": "MELODIC_MINOR",
              "bassOn": false,
              "chordRootUpperLimit": 7,
              "noteLowLimit": 0,
              "noteHighLimit": 127,
              "rtr": "PITCH_SHIFT"
            },
            "ctb2High": null
          },
          "notes": [
            {
              "pitch": 58,
              "velocity": 116,
              "position": 0.3333333333333333,
              "duration": 0.32916666666666666
            },
            {
              "pitch": 62,
              "velocity": 116,
              "position": 0.34375,
              "duration": 0.32916666666666666
            },
            {
              "pitch": 67,
              "velocity": 116,
              "position": 0.3541666666666667,
              "duration": 0.32916666666666666
            },
            {
              "pitch": 57,
              "velocity": 116,
              "position": 1,
              "duration": 0.32916666666666666
            },
            {
              "pitch": 60,
              "velocity": 116,
              "position": 1.0104166666666667,
              "duration": 0.32916666666666666
            },
            {
              "pitch": 65,
              "velocity": 116,
              "position": 1.0208333333333333,
              "duration": 0.32916666666666666
            },
            {
              "pitch": 55,
              "velocity": 116,
              "position": 1.6666666666666667,
              "duration": 0.32916666666666666
            },
            {
              "pitch": 60,
              "velocity": 116,
              "position": 1.6770833333333333,
              "duration": 0.32916666666666666
            },
            {
              "pitch": 64,
              "velocity": 116,
              "position": 1.6875,
              "duration": 0.32916666666666666
            },
            {
              "pitch": 57,
              "velocity": 116,
              "position": 2.3333333333333335,
              "duration": 0.32916666666666666
            },
            {
              "pitch": 60,
              "velocity": 116,
              "position": 2.34375,
              "duration": 0.32916666666666666
            },
            {
              "pitch": 65,
              "velocity": 116,
              "position": 2.3541666666666665,
              "duration": 0.32916666666666666
            },
            {
              "pitch": 55,
              "velocity": 116,
              "position": 3,
              "duration": 0.32916666666666666
            },
            {
              "pitch": 60,
              "velocity": 116,
              "position": 3.0104166666666665,
              "duration": 0.32916666666666666
            },
            {
              "pitch": 64,
              "velocity": 116,
              "position": 3.0208333333333335,
              "duration": 0.32916666666666666
            }
          ]
        },
        "12": {
          "ctab": {
            "srcChannel": 12,
            "name": "Pno RH",
            "accType": "CHORD2",
            "editable": false,
            "mutedNotes": [],
            "mutedChords": [],
            "autoStart": false,
            "sourceChordNote": 0,
            "sourceChordType": "Maj7",
            "ctb2Low": null,
            "ctb2Main": {
              "ntr": "ROOT_TRANSPOSITION",
              "ntt": "MELODIC_MINOR",
              "bassOn": false,
              "chordRootUpperLimit": 6,
              "noteLowLimit": 57,
              "noteHighLimit": 79,
              "rtr": "PITCH_SHIFT"
            },
            "ctb2High": null
          },
          "notes": [
            {
              "pitch": 43,
              "velocity": 116,
              "position": 0,
              "duration": 0.31875
            },
            {
              "pitch": 48,
              "velocity": 116,
              "position": 0,
              "duration": 0.31875
            },
            {
              "pitch": 52,
              "velocity": 116,
              "position": 0,
              "duration": 0.31875
            },
            {
              "pitch": 74,
              "velocity": 116,
              "position": 0.3333333333333333,
              "duration": 0.32916666666666666
            },
            {
              "pitch": 79,
              "velocity": 116,
              "position": 0.3333333333333333,
              "duration": 0.32916666666666666
            },
            {
              "pitch": 82,
              "velocity": 116,
              "position": 0.3333333333333333,
              "duration": 0.32916666666666666
            },
            {
              "pitch": 72,
              "velocity": 116,
              "position": 1,
              "duration": 0.32916666666666666
            },
            {
              "pitch": 77,
              "velocity": 116,
              "position": 1,
              "duration": 0.32916666666666666
            },
            {
              "pitch": 81,
              "velocity": 116,
              "position": 1,
              "duration": 0.32916666666666666
            },
            {
              "pitch": 72,
              "velocity": 116,
              "position": 1.6666666666666667,
              "duration": 0.32916666666666666
            },
            {
              "pitch": 76,
              "velocity": 116,
              "position": 1.6666666666666667,
              "duration": 0.32916666666666666
            },
            {
              "pitch": 79,
              "velocity": 116,
              "position": 1.6666666666666667,
              "duration": 0.32916666666666666
            },
            {
              "pitch": 69,
              "velocity": 116,
              "position": 2.3333333333333335,
              "duration": 0.32916666666666666
            },
            {
              "pitch": 72,
              "velocity": 116,
              "position": 2.3333333333333335,
              "duration": 0.32916666666666666
            },
            {
              "pitch": 77,
              "velocity": 116,
              "position": 2.3333333333333335,
              "duration": 0.32916666666666666
            },
            {
              "pitch": 67,
              "velocity": 116,
              "position": 3,
              "duration": 0.32916666666666666
            },
            {
              "pitch": 72,
              "velocity": 116,
              "position": 3,
              "duration": 0.32916666666666666
            },
            {
              "pitch": 76,
              "velocity": 116,
              "position": 3,
              "duration": 0.32916666666666666
            },
            {
              "pitch": 67,
              "velocity": 116,
              "position": 3.6666666666666665,
              "duration": 0.31875
            },
            {
              "pitch": 72,
              "velocity": 116,
              "position": 3.6666666666666665,
              "duration": 0.31875
            },
            {
              "pitch": 76,
              "velocity": 116,
              "position": 3.6666666666666665,
              "duration": 0.31875
            }
          ]
        },
        "13": {
          "ctab": {
            "srcChannel": 13,
            "name": "Pno LH",
            "accType": "CHORD2",
            "editable": false,
            "mutedNotes": [],
            "mutedChords": [],
            "autoStart": false,
            "sourceChordNote": 0,
            "sourceChordType": "Maj7",
            "ctb2Low": null,
            "ctb2Main": {
              "ntr": "ROOT_TRANSPOSITION",
              "ntt": "MELODIC_MINOR",
              "bassOn": false,
              "chordRootUpperLimit": 5,
              "noteLowLimit": 0,
              "noteHighLimit": 127,
              "rtr": "PITCH_SHIFT"
            },
            "ctb2High": null
          },
          "notes": [
            {
              "pitch": 36,
              "velocity": 112,
              "position": 0,
              "duration": 0.31875
            },
            {
              "pitch": 48,
              "velocity": 112,
              "position": 0,
              "duration": 0.31875
            },
            {
              "pitch": 40,
              "velocity": 112,
              "position": 0.3333333333333333,
              "duration": 0.31875
            },
            {
              "pitch": 52,
              "velocity": 112,
              "position": 0.3333333333333333,
              "duration": 0.31875
            },
            {
              "pitch": 41,
              "velocity": 112,
              "position": 1,
              "duration": 0.31875
            },
            {
              "pitch": 53,
              "velocity": 112,
              "position": 1,
              "duration": 0.31875
            },
            {
              "pitch": 43,
              "velocity": 112,
              "position": 1.6666666666666667,
              "duration": 0.31875
            },
            {
              "pitch": 55,
              "velocity": 112,
              "position": 1.6666666666666667,
              "duration": 0.31875
            },
            {
              "pitch": 46,
              "velocity": 112,
              "position": 2.3333333333333335,
              "duration": 0.31875
            },
            {
              "pitch": 58,
              "velocity": 112,
              "position": 2.3333333333333335,
              "duration": 0.31875
            },
            {
              "pitch": 48,
              "velocity": 112,
              "position": 3,
              "duration": 0.31875
            },
            {
              "pitch": 60,
              "velocity": 112,
              "position": 3,
              "duration": 0.31875
            }
          ]
        },
        "14": {
          "ctab": {
            "srcChannel": 14,
            "name": "Organ",
            "accType": "PAD",
            "editable": false,
            "mutedNotes": [],
            "mutedChords": [],
            "autoStart": false,
            "sourceChordNote": 0,
            "sourceChordType": "Maj7",
            "ctb2Low": null,
            "ctb2Main": {
              "ntr": "ROOT_TRANSPOSITION",
              "ntt": "MELODIC_MINOR",
              "bassOn": false,
              "chordRootUpperLimit": 9,
              "noteLowLimit": 0,
              "noteHighLimit": 79,
              "rtr": "PITCH_SHIFT"
            },
            "ctb2High": null
          },
          "notes": [
            {
              "pitch": 26,
              "velocity": 108,
              "position": 0,
              "duration": 0.13125
            },
            {
              "pitch": 28,
              "velocity": 108,
              "position": 0.052083333333333336,
              "duration": 0.11041666666666666
            },
            {
              "pitch": 29,
              "velocity": 108,
              "position": 0.09375,
              "duration": 0.11041666666666666
            },
            {
              "pitch": 31,
              "velocity": 108,
              "position": 0.13541666666666666,
              "duration": 0.1
            },
            {
              "pitch": 33,
              "velocity": 108,
              "position": 0.17708333333333334,
              "duration": 0.08958333333333333
            },
            {
              "pitch": 35,
              "velocity": 108,
              "position": 0.20833333333333334,
              "duration": 0.1
            },
            {
              "pitch": 36,
              "velocity": 108,
              "position": 0.25,
              "duration": 0.08958333333333333
            },
            {
              "pitch": 38,
              "velocity": 108,
              "position": 0.28125,
              "duration": 0.08958333333333333
            },
            {
              "pitch": 40,
              "velocity": 108,
              "position": 0.3125,
              "duration": 0.1
            },
            {
              "pitch": 41,
              "velocity": 108,
              "position": 0.34375,
              "duration": 0.1
            },
            {
              "pitch": 43,
              "velocity": 108,
              "position": 0.3854166666666667,
              "duration": 0.08958333333333333
            },
            {
              "pitch": 45,
              "velocity": 108,
              "position": 0.4270833333333333,
              "duration": 0.07916666666666666
            },
            {
              "pitch": 47,
              "velocity": 108,
              "position": 0.4583333333333333,
              "duration": 0.07916666666666666
            },
            {
              "pitch": 48,
              "velocity": 108,
              "position": 0.4895833333333333,
              "duration": 0.07916666666666666
            },
            {
              "pitch": 50,
              "velocity": 108,
              "position": 0.5208333333333334,
              "duration": 0.08958333333333333
            },
            {
              "pitch": 52,
              "velocity": 108,
              "position": 0.5520833333333334,
              "duration": 0.07916666666666666
            },
            {
              "pitch": 53,
              "velocity": 108,
              "position": 0.5833333333333334,
              "duration": 0.08958333333333333
            },
            {
              "pitch": 55,
              "velocity": 108,
              "position": 0.625,
              "duration": 0.07916666666666666
            },
            {
              "pitch": 57,
              "velocity": 108,
              "position": 0.65625,
              "duration": 0.07916666666666666
            },
            {
              "pitch": 59,
              "velocity": 108,
              "position": 0.6875,
              "duration": 0.07916666666666666
            },
            {
              "pitch": 60,
              "velocity": 108,
              "position": 0.71875,
              "duration": 0.08958333333333333
            },
            {
              "pitch": 62,
              "velocity": 108,
              "position": 0.7604166666666666,
              "duration": 0.07916666666666666
            },
            {
              "pitch": 64,
              "velocity": 108,
              "position": 0.7916666666666666,
              "duration": 0.07916666666666666
            },
            {
              "pitch": 65,
              "velocity": 108,
              "position": 0.8125,
              "duration": 0.1
            },
            {
              "pitch": 69,
              "velocity": 108,
              "position": 0.8854166666666666,
              "duration": 0.08958333333333333
            },
            {
              "pitch": 71,
              "velocity": 108,
              "position": 0.9166666666666666,
              "duration": 0.08958333333333333
            },
            {
              "pitch": 78,
              "velocity": 108,
              "position": 1.0104166666666667,
              "duration": 0.14166666666666666
            },
            {
              "pitch": 72,
              "velocity": 108,
              "position": 1.0104166666666667,
              "duration": 0.94375
            },
            {
              "pitch": 84,
              "velocity": 108,
              "position": 1.0104166666666667,
              "duration": 0.94375
            },
            {
              "pitch": 79,
              "velocity": 108,
              "position": 1.125,
              "duration": 0.8291666666666667
            },
            {
              "pitch": 78,
              "velocity": 108,
              "position": 2.0104166666666665,
              "duration": 0.14166666666666666
            },
            {
              "pitch": 72,
              "velocity": 108,
              "position": 2,
              "duration": 0.9541666666666667
            },
            {
              "pitch": 84,
              "velocity": 108,
              "position": 2,
              "duration": 0.9541666666666667
            },
            {
              "pitch": 79,
              "velocity": 108,
              "position": 2.125,
              "duration": 0.8291666666666667
            },
            {
              "pitch": 78,
              "velocity": 108,
              "position": 3.0104166666666665,
              "duration": 0.14166666666666666
            },
            {
              "pitch": 72,
              "velocity": 108,
              "position": 3,
              "duration": 0.5166666666666667
            },
            {
              "pitch": 84,
              "velocity": 108,
              "position": 3,
              "duration": 0.5166666666666667
            },
            {
              "pitch": 79,
              "velocity": 108,
              "position": 3.125,
              "duration": 0.4125
            },
            {
              "pitch": 71,
              "velocity": 108,
              "position": 3.4895833333333335,
              "duration": 0.07916666666666666
            },
            {
              "pitch": 69,
              "velocity": 108,
              "position": 3.5208333333333335,
              "duration": 0.08958333333333333
            },
            {
              "pitch": 67,
              "velocity": 108,
              "position": 3.5520833333333335,
              "duration": 0.07916666666666666
            },
            {
              "pitch": 65,
              "velocity": 108,
              "position": 3.5833333333333335,
              "duration": 0.08958333333333333
            },
            {
              "pitch": 64,
              "velocity": 108,
              "position": 3.625,
              "duration": 0.07916666666666666
            },
            {
              "pitch": 62,
              "velocity": 108,
              "position": 3.65625,
              "duration": 0.07916666666666666
            },
            {
              "pitch": 60,
              "velocity": 108,
              "position": 3.6875,
              "duration": 0.07916666666666666
            },
            {
              "pitch": 59,
              "velocity": 108,
              "position": 3.71875,
              "duration": 0.08958333333333333
            },
            {
              "pitch": 57,
              "velocity": 108,
              "position": 3.7604166666666665,
              "duration": 0.07916666666666666
            },
            {
              "pitch": 53,
              "velocity": 108,
              "position": 3.7916666666666665,
              "duration": 0.07916666666666666
            },
            {
              "pitch": 52,
              "velocity": 108,
              "position": 3.8125,
              "duration": 0.1
            },
            {
              "pitch": 50,
              "velocity": 108,
              "position": 3.8854166666666665,
              "duration": 0.08958333333333333
            },
            {
              "pitch": 48,
              "velocity": 108,
              "position": 3.9166666666666665,
              "duration": 0.06875
            }
          ]
        },
        "15": {
          "ctab": {
            "srcChannel": 15,
            "name": "Choir",
            "accType": "PHRASE1",
            "editable": false,
            "mutedNotes": [],
            "mutedChords": [],
            "autoStart": false,
            "sourceChordNote": 0,
            "sourceChordType": "Maj7",
            "ctb2Low": null,
            "ctb2Main": {
              "ntr": "ROOT_TRANSPOSITION",
              "ntt": "MELODIC_MINOR",
              "bassOn": false,
              "chordRootUpperLimit": 6,
              "noteLowLimit": 57,
              "noteHighLimit": 79,
              "rtr": "PITCH_SHIFT"
            },
            "ctb2High": null
          },
          "notes": [
            {
              "pitch": 58,
              "velocity": 50,
              "position": 0.3333333333333333,
              "duration": 0.6520833333333333
            },
            {
              "pitch": 64,
              "velocity": 50,
              "position": 0.3333333333333333,
              "duration": 0.6520833333333333
            },
            {
              "pitch": 67,
              "velocity": 50,
              "position": 0.3333333333333333,
              "duration": 0.6520833333333333
            },
            {
              "pitch": 60,
              "velocity": 50,
              "position": 1,
              "duration": 0.6520833333333333
            },
            {
              "pitch": 65,
              "velocity": 50,
              "position": 1,
              "duration": 0.6520833333333333
            },
            {
              "pitch": 69,
              "velocity": 50,
              "position": 1,
              "duration": 0.6520833333333333
            },
            {
              "pitch": 62,
              "velocity": 50,
              "position": 1.6666666666666667,
              "duration": 0.6520833333333333
            },
            {
              "pitch": 67,
              "velocity": 50,
              "position": 1.6666666666666667,
              "duration": 0.6520833333333333
            },
            {
              "pitch": 70,
              "velocity": 50,
              "position": 1.6666666666666667,
              "duration": 0.6520833333333333
            },
            {
              "pitch": 60,
              "velocity": 50,
              "position": 2.3333333333333335,
              "duration": 0.6520833333333333
            },
            {
              "pitch": 65,
              "velocity": 50,
              "position": 2.3333333333333335,
              "duration": 0.6520833333333333
            },
            {
              "pitch": 69,
              "velocity": 50,
              "position": 2.3333333333333335,
              "duration": 0.6520833333333333
            },
            {
              "pitch": 58,
              "velocity": 50,
              "position": 3,
              "duration": 0.31875
            },
            {
              "pitch": 64,
              "velocity": 50,
              "position": 3,
              "duration": 0.31875
            },
            {
              "pitch": 67,
              "velocity": 50,
              "position": 3,
              "duration": 0.31875
            }
          ]
        }
      }
    },
    "Intro_B": {
      "type": "Intro_B",
      "sizeInBeats": 28,
      "channels": {
        "0": {
          "ctab": {
            "srcChannel": 0,
            "name": "Bass Fx",
            "accType": "BASS",
            "editable": true,
            "mutedNotes": [],
            "mutedChords": [],
            "autoStart": false,
            "sourceChordNote": 0,
            "sourceChordType": "Maj7",
            "ctb2Low": null,
            "ctb2Main": {
              "ntr": "ROOT_FIXED",
              "ntt": "BYPASS",
              "bassOn": false,
              "chordRootUpperLimit": 6,
              "noteLowLimit": 0,
              "noteHighLimit": 127,
              "rtr": "PITCH_SHIFT"
            },
            "ctb2High": null
          },
          "notes": [
            {
              "pitch": 99,
              "velocity": 114,
              "position": 26.770833333333332,
              "duration": 0.9895833333333334
            }
          ]
        },
        "1": {
          "ctab": {
            "srcChannel": 1,
            "name": "Bass",
            "accType": "BASS",
            "editable": false,
            "mutedNotes": [],
            "mutedChords": [
              "1+2+5",
              "sus4",
              "1+5",
              "1+8",
              "7aug",
              "Maj7aug",
              "7(#9)",
              "7(b13)",
              "7(b9)",
              "7(13)",
              "7#11",
              "7(9)",
              "7b5",
              "7sus4",
              "7th",
              "aug",
              "Maj6(9)",
              "Maj7(9)",
              "Maj(9)",
              "Maj7#11",
              "Maj7",
              "Maj6",
              "Maj"
            ],
            "autoStart": false,
            "sourceChordNote": 0,
            "sourceChordType": "min",
            "ctb2Low": null,
            "ctb2Main": {
              "ntr": "ROOT_TRANSPOSITION",
              "ntt": "BYPASS",
              "bassOn": false,
              "chordRootUpperLimit": 8,
              "noteLowLimit": 28,
              "noteHighLimit": 127,
              "rtr": "PITCH_SHIFT"
            },
            "ctb2High": null
          },
          "notes": [
            {
              "pitch": 36,
              "velocity": 74,
              "position": 0.010416666666666666,
              "duration": 0.9854166666666667
            },
            {
              "pitch": 35,
              "velocity": 74,
              "position": 1,
              "duration": 0.9854166666666667
            },
            {
              "pitch": 34,
              "velocity": 74,
              "position": 2,
              "duration": 0.9854166666666667
            },
            {
              "pitch": 33,
              "velocity": 74,
              "position": 3,
              "duration": 0.9854166666666667
            },
            {
              "pitch": 32,
              "velocity": 74,
              "position": 4,
              "duration": 0.9854166666666667
            },
            {
              "pitch": 31,
              "velocity": 74,
              "position": 5,
              "duration": 1.4854166666666666
            },
            {
              "pitch": 32,
              "velocity": 74,
              "position": 7,
              "duration": 0.9854166666666667
            },
            {
              "pitch": 31,
              "velocity": 74,
              "position": 8,
              "duration": 0.9854166666666667
            },
            {
              "pitch": 29,
              "velocity": 74,
              "position": 9,
              "duration": 0.9854166666666667
            },
            {
              "pitch": 27,
              "velocity": 74,
              "position": 10,
              "duration": 0.9854166666666667
            },
            {
              "pitch": 24,
              "velocity": 74,
              "position": 11,
              "duration": 0.9854166666666667
            },
            {
              "pitch": 32,
              "velocity": 74,
              "position": 12,
              "duration": 3.9854166666666666
            },
            {
              "pitch": 31,
              "velocity": 74,
              "position": 16,
              "duration": 2.31875
            },
            {
              "pitch": 42,
              "velocity": 80,
              "position": 18.333333333333332,
              "duration": 0.08333333333333333
            },
            {
              "pitch": 41,
              "velocity": 76,
              "position": 18.666666666666668,
              "duration": 0.31875
            },
            {
              "pitch": 39,
              "velocity": 60,
              "position": 19,
              "duration": 0.31875
            },
            {
              "pitch": 36,
              "velocity": 78,
              "position": 19.333333333333332,
              "duration": 0.14166666666666666
            },
            {
              "pitch": 31,
              "velocity": 72,
              "position": 19.666666666666668,
              "duration": 0.14166666666666666
            },
            {
              "pitch": 24,
              "velocity": 74,
              "position": 20,
              "duration": 0.9854166666666667
            },
            {
              "pitch": 31,
              "velocity": 110,
              "position": 21.333333333333332,
              "duration": 0.10416666666666667
            },
            {
              "pitch": 31,
              "velocity": 60,
              "position": 21.666666666666668,
              "duration": 0.31875
            },
            {
              "pitch": 31,
              "velocity": 74,
              "position": 22,
              "duration": 0.9854166666666667
            },
            {
              "pitch": 31,
              "velocity": 74,
              "position": 23,
              "duration": 0.31875
            },
            {
              "pitch": 31,
              "velocity": 110,
              "position": 23.333333333333332,
              "duration": 0.10416666666666667
            },
            {
              "pitch": 28,
              "velocity": 60,
              "position": 23.666666666666668,
              "duration": 0.31875
            },
            {
              "pitch": 24,
              "velocity": 74,
              "position": 24,
              "duration": 0.6520833333333333
            },
            {
              "pitch": 27,
              "velocity": 74,
              "position": 24.666666666666668,
              "duration": 0.31875
            },
            {
              "pitch": 29,
              "velocity": 74,
              "position": 25.333333333333332,
              "duration": 0.31875
            },
            {
              "pitch": 31,
              "velocity": 74,
              "position": 26,
              "duration": 0.7354166666666667
            }
          ]
        },
        "2": {
          "ctab": {
            "srcChannel": 2,
            "name": "Gt",
            "accType": "CHORD1",
            "editable": false,
            "mutedNotes": [],
            "mutedChords": [
              "1+2+5",
              "sus4",
              "1+5",
              "1+8",
              "7aug",
              "Maj7aug",
              "7(#9)",
              "7(b13)",
              "7(b9)",
              "7(13)",
              "7#11",
              "7(9)",
              "7b5",
              "7sus4",
              "7th",
              "aug",
              "Maj6(9)",
              "Maj7(9)",
              "Maj(9)",
              "Maj7#11",
              "Maj7",
              "Maj6",
              "Maj"
            ],
            "autoStart": false,
            "sourceChordNote": 0,
            "sourceChordType": "min",
            "ctb2Low": null,
            "ctb2Main": {
              "ntr": "ROOT_TRANSPOSITION",
              "ntt": "BYPASS",
              "bassOn": false,
              "chordRootUpperLimit": 8,
              "noteLowLimit": 58,
              "noteHighLimit": 69,
              "rtr": "PITCH_SHIFT"
            },
            "ctb2High": null
          },
          "notes": [
            {
              "pitch": 60,
              "velocity": 64,
              "position": 20.333333333333332,
              "duration": 0.027083333333333334
            },
            {
              "pitch": 63,
              "velocity": 64,
              "position": 20.34375,
              "duration": 0.027083333333333334
            },
            {
              "pitch": 67,
              "velocity": 64,
              "position": 20.354166666666668,
              "duration": 0.027083333333333334
            },
            {
              "pitch": 60,
              "velocity": 46,
              "position": 20.666666666666668,
              "duration": 0.027083333333333334
            },
            {
              "pitch": 63,
              "velocity": 46,
              "position": 20.677083333333332,
              "duration": 0.027083333333333334
            },
            {
              "pitch": 60,
              "velocity": 116,
              "position": 21,
              "duration": 0.21458333333333332
            },
            {
              "pitch": 63,
              "velocity": 116,
              "position": 21.010416666666668,
              "duration": 0.21458333333333332
            },
            {
              "pitch": 67,
              "velocity": 116,
              "position": 21.020833333333332,
              "duration": 0.21458333333333332
            },
            {
              "pitch": 60,
              "velocity": 64,
              "position": 22.333333333333332,
              "duration": 0.027083333333333334
            },
            {
              "pitch": 63,
              "velocity": 64,
              "position": 22.34375,
              "duration": 0.027083333333333334
            },
            {
              "pitch": 67,
              "velocity": 64,
              "position": 22.354166666666668,
              "duration": 0.027083333333333334
            },
            {
              "pitch": 60,
              "velocity": 46,
              "position": 22.666666666666668,
              "duration": 0.027083333333333334
            },
            {
              "pitch": 63,
              "velocity": 46,
              "position": 22.677083333333332,
              "duration": 0.027083333333333334
            },
            {
              "pitch": 60,
              "velocity": 116,
              "position": 23,
              "duration": 0.21458333333333332
            },
            {
              "pitch": 63,
              "velocity": 116,
              "position": 23,
              "duration": 0.21458333333333332
            },
            {
              "pitch": 67,
              "velocity": 116,
              "position": 23.020833333333332,
              "duration": 0.21458333333333332
            },
            {
              "pitch": 58,
              "velocity": 64,
              "position": 24.333333333333332,
              "duration": 0.027083333333333334
            },
            {
              "pitch": 63,
              "velocity": 64,
              "position": 24.34375,
              "duration": 0.027083333333333334
            },
            {
              "pitch": 67,
              "velocity": 64,
              "position": 24.354166666666668,
              "duration": 0.027083333333333334
            },
            {
              "pitch": 58,
              "velocity": 116,
              "position": 24.666666666666668,
              "duration": 0.25625
            },
            {
              "pitch": 63,
              "velocity": 116,
              "position": 24.677083333333332,
              "duration": 0.25625
            },
            {
              "pitch": 67,
              "velocity": 116,
              "position": 24.6875,
              "duration": 0.25625
            },
            {
              "pitch": 60,
              "velocity": 116,
              "position": 25.354166666666668,
              "duration": 0.25625
            },
            {
              "pitch": 65,
              "velocity": 116,
              "position": 25.354166666666668,
              "duration": 0.25625
            },
            {
              "pitch": 69,
              "velocity": 116,
              "position": 25.354166666666668,
              "duration": 0.25625
            },
            {
              "pitch": 58,
              "velocity": 116,
              "position": 26,
              "duration": 0.31875
            },
            {
              "pitch": 63,
              "velocity": 116,
              "position": 26.010416666666668,
              "duration": 0.30833333333333335
            },
            {
              "pitch": 67,
              "velocity": 116,
              "position": 26.020833333333332,
              "duration": 0.29791666666666666
            },
            {
              "pitch": 58,
              "velocity": 64,
              "position": 26.333333333333332,
              "duration": 0.027083333333333334
            },
            {
              "pitch": 63,
              "velocity": 64,
              "position": 26.34375,
              "duration": 0.027083333333333334
            },
            {
              "pitch": 67,
              "velocity": 64,
              "position": 26.354166666666668,
              "duration": 0.027083333333333334
            },
            {
              "pitch": 58,
              "velocity": 46,
              "position": 26.666666666666668,
              "duration": 0.027083333333333334
            },
            {
              "pitch": 63,
              "velocity": 46,
              "position": 26.677083333333332,
              "duration": 0.027083333333333334
            },
            {
              "pitch": 65,
              "velocity": 116,
              "position": 27,
              "duration": 0.6520833333333333
            },
            {
              "pitch": 58,
              "velocity": 116,
              "position": 27.020833333333332,
              "duration": 0.63125
            },
            {
              "pitch": 62,
              "velocity": 116,
              "position": 27.020833333333332,
              "duration": 0.63125
            },
            {
              "pitch": 65,
              "velocity": 80,
              "position": 27.666666666666668,
              "duration": 0.31875
            },
            {
              "pitch": 58,
              "velocity": 80,
              "position": 27.6875,
              "duration": 0.29791666666666666
            },
            {
              "pitch": 62,
              "velocity": 80,
              "position": 27.6875,
              "duration": 0.29791666666666666
            }
          ]
        },
        "3": {
          "ctab": {
            "srcChannel": 3,
            "name": "Pno",
            "accType": "CHORD2",
            "editable": false,
            "mutedNotes": [],
            "mutedChords": [
              "1+2+5",
              "sus4",
              "1+5",
              "1+8",
              "7aug",
              "Maj7aug",
              "7(#9)",
              "7(b13)",
              "7(b9)",
              "7(13)",
              "7#11",
              "7(9)",
              "7b5",
              "7sus4",
              "7th",
              "aug",
              "Maj6(9)",
              "Maj7(9)",
              "Maj(9)",
              "Maj7#11",
              "Maj7",
              "Maj6",
              "Maj"
            ],
            "autoStart": false,
            "sourceChordNote": 0,
            "sourceChordType": "min",
            "ctb2Low": null,
            "ctb2Main": {
              "ntr": "ROOT_TRANSPOSITION",
              "ntt": "BYPASS",
              "bassOn": false,
              "chordRootUpperLimit": 11,
              "noteLowLimit": 54,
              "noteHighLimit": 127,
              "rtr": "PITCH_SHIFT"
            },
            "ctb2High": null
          },
          "notes": [
            {
              "pitch": 58,
              "velocity": 98,
              "position": 0.010416666666666666,
              "duration": 0.9854166666666667
            },
            {
              "pitch": 57,
              "velocity": 98,
              "position": 1,
              "duration": 0.9854166666666667
            },
            {
              "pitch": 63,
              "velocity": 98,
              "position": 0.010416666666666666,
              "duration": 1.9854166666666666
            },
            {
              "pitch": 67,
              "velocity": 98,
              "position": 0.010416666666666666,
              "duration": 1.9854166666666666
            },
            {
              "pitch": 68,
              "velocity": 98,
              "position": 2,
              "duration": 0.9854166666666667
            },
            {
              "pitch": 60,
              "velocity": 98,
              "position": 2,
              "duration": 0.9958333333333333
            },
            {
              "pitch": 63,
              "velocity": 98,
              "position": 2,
              "duration": 0.9958333333333333
            },
            {
              "pitch": 55,
              "velocity": 98,
              "position": 3,
              "duration": 0.9854166666666667
            },
            {
              "pitch": 69,
              "velocity": 98,
              "position": 3,
              "duration": 0.9854166666666667
            },
            {
              "pitch": 63,
              "velocity": 98,
              "position": 3,
              "duration": 0.9958333333333333
            },
            {
              "pitch": 54,
              "velocity": 98,
              "position": 4,
              "duration": 0.9854166666666667
            },
            {
              "pitch": 60,
              "velocity": 98,
              "position": 3,
              "duration": 1.9854166666666666
            },
            {
              "pitch": 65,
              "velocity": 98,
              "position": 4,
              "duration": 0.9854166666666667
            },
            {
              "pitch": 70,
              "velocity": 98,
              "position": 4,
              "duration": 0.9854166666666667
            },
            {
              "pitch": 53,
              "velocity": 98,
              "position": 5,
              "duration": 1.4854166666666666
            },
            {
              "pitch": 59,
              "velocity": 98,
              "position": 5,
              "duration": 1.4854166666666666
            },
            {
              "pitch": 63,
              "velocity": 98,
              "position": 5,
              "duration": 1.4958333333333333
            },
            {
              "pitch": 71,
              "velocity": 98,
              "position": 5,
              "duration": 1.4958333333333333
            },
            {
              "pitch": 50,
              "velocity": 98,
              "position": 7,
              "duration": 0.9854166666666667
            },
            {
              "pitch": 56,
              "velocity": 98,
              "position": 7,
              "duration": 0.9854166666666667
            },
            {
              "pitch": 65,
              "velocity": 98,
              "position": 7,
              "duration": 0.9854166666666667
            },
            {
              "pitch": 60,
              "velocity": 98,
              "position": 7,
              "duration": 0.9958333333333333
            },
            {
              "pitch": 55,
              "velocity": 98,
              "position": 8,
              "duration": 0.9854166666666667
            },
            {
              "pitch": 63,
              "velocity": 98,
              "position": 8,
              "duration": 0.9854166666666667
            },
            {
              "pitch": 48,
              "velocity": 98,
              "position": 8,
              "duration": 0.9958333333333333
            },
            {
              "pitch": 48,
              "velocity": 98,
              "position": 9,
              "duration": 0.9854166666666667
            },
            {
              "pitch": 53,
              "velocity": 98,
              "position": 9,
              "duration": 0.9854166666666667
            },
            {
              "pitch": 56,
              "velocity": 98,
              "position": 9,
              "duration": 0.9854166666666667
            },
            {
              "pitch": 62,
              "velocity": 98,
              "position": 9,
              "duration": 0.9854166666666667
            },
            {
              "pitch": 46,
              "velocity": 98,
              "position": 10,
              "duration": 0.9854166666666667
            },
            {
              "pitch": 51,
              "velocity": 98,
              "position": 10,
              "duration": 0.9854166666666667
            },
            {
              "pitch": 55,
              "velocity": 98,
              "position": 10,
              "duration": 0.9854166666666667
            },
            {
              "pitch": 60,
              "velocity": 98,
              "position": 10,
              "duration": 0.9854166666666667
            },
            {
              "pitch": 50,
              "velocity": 98,
              "position": 11,
              "duration": 0.9854166666666667
            },
            {
              "pitch": 53,
              "velocity": 98,
              "position": 11,
              "duration": 0.9854166666666667
            },
            {
              "pitch": 56,
              "velocity": 98,
              "position": 11,
              "duration": 0.9854166666666667
            },
            {
              "pitch": 42,
              "velocity": 98,
              "position": 12,
              "duration": 3.9854166666666666
            },
            {
              "pitch": 46,
              "velocity": 98,
              "position": 12,
              "duration": 3.9854166666666666
            },
            {
              "pitch": 48,
              "velocity": 98,
              "position": 12,
              "duration": 3.9854166666666666
            },
            {
              "pitch": 53,
              "velocity": 98,
              "position": 12,
              "duration": 3.9854166666666666
            },
            {
              "pitch": 41,
              "velocity": 98,
              "position": 16,
              "duration": 3.9854166666666666
            },
            {
              "pitch": 47,
              "velocity": 98,
              "position": 16,
              "duration": 3.9854166666666666
            },
            {
              "pitch": 51,
              "velocity": 98,
              "position": 16,
              "duration": 3.9854166666666666
            },
            {
              "pitch": 55,
              "velocity": 98,
              "position": 16,
              "duration": 3.9854166666666666
            },
            {
              "pitch": 63,
              "velocity": 116,
              "position": 20.666666666666668,
              "duration": 0.15208333333333332
            },
            {
              "pitch": 60,
              "velocity": 116,
              "position": 20.666666666666668,
              "duration": 0.31875
            },
            {
              "pitch": 67,
              "velocity": 116,
              "position": 20.666666666666668,
              "duration": 0.31875
            },
            {
              "pitch": 70,
              "velocity": 116,
              "position": 20.666666666666668,
              "duration": 0.31875
            },
            {
              "pitch": 72,
              "velocity": 116,
              "position": 20.666666666666668,
              "duration": 0.31875
            },
            {
              "pitch": 60,
              "velocity": 116,
              "position": 21.333333333333332,
              "duration": 0.31875
            },
            {
              "pitch": 65,
              "velocity": 116,
              "position": 21.333333333333332,
              "duration": 0.31875
            },
            {
              "pitch": 69,
              "velocity": 116,
              "position": 21.333333333333332,
              "duration": 0.31875
            },
            {
              "pitch": 72,
              "velocity": 116,
              "position": 21.333333333333332,
              "duration": 0.31875
            },
            {
              "pitch": 63,
              "velocity": 116,
              "position": 22,
              "duration": 0.48541666666666666
            },
            {
              "pitch": 60,
              "velocity": 116,
              "position": 22,
              "duration": 0.6520833333333333
            },
            {
              "pitch": 67,
              "velocity": 116,
              "position": 22,
              "duration": 0.6520833333333333
            },
            {
              "pitch": 72,
              "velocity": 116,
              "position": 22,
              "duration": 0.6520833333333333
            },
            {
              "pitch": 63,
              "velocity": 116,
              "position": 22.666666666666668,
              "duration": 0.15208333333333332
            },
            {
              "pitch": 54,
              "velocity": 116,
              "position": 22.666666666666668,
              "duration": 0.31875
            },
            {
              "pitch": 60,
              "velocity": 116,
              "position": 22.666666666666668,
              "duration": 0.31875
            },
            {
              "pitch": 62,
              "velocity": 116,
              "position": 23.333333333333332,
              "duration": 0.15208333333333332
            },
            {
              "pitch": 53,
              "velocity": 116,
              "position": 23.333333333333332,
              "duration": 0.31875
            },
            {
              "pitch": 60,
              "velocity": 116,
              "position": 23.333333333333332,
              "duration": 0.31875
            },
            {
              "pitch": 51,
              "velocity": 116,
              "position": 24,
              "duration": 0.6520833333333333
            },
            {
              "pitch": 60,
              "velocity": 116,
              "position": 24,
              "duration": 0.6520833333333333
            },
            {
              "pitch": 63,
              "velocity": 116,
              "position": 24.666666666666668,
              "duration": 0.15208333333333332
            },
            {
              "pitch": 55,
              "velocity": 116,
              "position": 24.666666666666668,
              "duration": 0.31875
            },
            {
              "pitch": 60,
              "velocity": 116,
              "position": 24.666666666666668,
              "duration": 0.31875
            },
            {
              "pitch": 57,
              "velocity": 116,
              "position": 25.333333333333332,
              "duration": 0.31875
            },
            {
              "pitch": 60,
              "velocity": 116,
              "position": 25.333333333333332,
              "duration": 0.31875
            },
            {
              "pitch": 65,
              "velocity": 116,
              "position": 25.333333333333332,
              "duration": 0.31875
            },
            {
              "pitch": 63,
              "velocity": 116,
              "position": 26,
              "duration": 0.81875
            },
            {
              "pitch": 55,
              "velocity": 116,
              "position": 26,
              "duration": 0.9854166666666667
            },
            {
              "pitch": 58,
              "velocity": 116,
              "position": 26,
              "duration": 0.9854166666666667
            },
            {
              "pitch": 62,
              "velocity": 116,
              "position": 27,
              "duration": 0.81875
            },
            {
              "pitch": 53,
              "velocity": 116,
              "position": 27,
              "duration": 0.9854166666666667
            },
            {
              "pitch": 58,
              "velocity": 116,
              "position": 27,
              "duration": 0.9854166666666667
            }
          ]
        },
        "4": {
          "ctab": {
            "srcChannel": 4,
            "name": "Pno LH",
            "accType": "CHORD2",
            "editable": false,
            "mutedNotes": [],
            "mutedChords": [
              "1+2+5",
              "sus4",
              "1+5",
              "1+8",
              "7aug",
              "Maj7aug",
              "7(#9)",
              "7(b13)",
              "7(b9)",
              "7(13)",
              "7#11",
              "7(9)",
              "7b5",
              "7sus4",
              "7th",
              "aug",
              "Maj6(9)",
              "Maj7(9)",
              "Maj(9)",
              "Maj7#11",
              "Maj7",
              "Maj6",
              "Maj"
            ],
            "autoStart": false,
            "sourceChordNote": 0,
            "sourceChordType": "min",
            "ctb2Low": null,
            "ctb2Main": {
              "ntr": "ROOT_TRANSPOSITION",
              "ntt": "BYPASS",
              "bassOn": false,
              "chordRootUpperLimit": 8,
              "noteLowLimit": 0,
              "noteHighLimit": 127,
              "rtr": "PITCH_SHIFT"
            },
            "ctb2High": null
          },
          "notes": [
            {
              "pitch": 36,
              "velocity": 98,
              "position": 0.010416666666666666,
              "duration": 0.9854166666666667
            },
            {
              "pitch": 35,
              "velocity": 98,
              "position": 1,
              "duration": 0.9854166666666667
            },
            {
              "pitch": 34,
              "velocity": 98,
              "position": 2,
              "duration": 0.9854166666666667
            },
            {
              "pitch": 33,
              "velocity": 98,
              "position": 3,
              "duration": 0.9854166666666667
            },
            {
              "pitch": 32,
              "velocity": 98,
              "position": 4,
              "duration": 0.9854166666666667
            },
            {
              "pitch": 31,
              "velocity": 98,
              "position": 5,
              "duration": 1.4854166666666666
            },
            {
              "pitch": 44,
              "velocity": 98,
              "position": 7,
              "duration": 0.9854166666666667
            },
            {
              "pitch": 43,
              "velocity": 98,
              "position": 8,
              "duration": 0.9854166666666667
            },
            {
              "pitch": 41,
              "velocity": 98,
              "position": 9,
              "duration": 0.9854166666666667
            },
            {
              "pitch": 39,
              "velocity": 98,
              "position": 10,
              "duration": 0.9854166666666667
            },
            {
              "pitch": 36,
              "velocity": 98,
              "position": 11,
              "duration": 0.9854166666666667
            },
            {
              "pitch": 32,
              "velocity": 98,
              "position": 12,
              "duration": 3.9854166666666666
            },
            {
              "pitch": 31,
              "velocity": 98,
              "position": 16,
              "duration": 3.9854166666666666
            },
            {
              "pitch": 27,
              "velocity": 116,
              "position": 24.666666666666668,
              "duration": 0.32916666666666666
            },
            {
              "pitch": 39,
              "velocity": 116,
              "position": 24.666666666666668,
              "duration": 0.32916666666666666
            },
            {
              "pitch": 29,
              "velocity": 116,
              "position": 25.333333333333332,
              "duration": 0.32916666666666666
            },
            {
              "pitch": 41,
              "velocity": 116,
              "position": 25.333333333333332,
              "duration": 0.32916666666666666
            },
            {
              "pitch": 31,
              "velocity": 116,
              "position": 26,
              "duration": 0.9854166666666667
            },
            {
              "pitch": 31,
              "velocity": 116,
              "position": 27,
              "duration": 0.9958333333333333
            },
            {
              "pitch": 43,
              "velocity": 116,
              "position": 26,
              "duration": 1.9958333333333333
            }
          ]
        },
        "5": {
          "ctab": {
            "srcChannel": 5,
            "name": "Org",
            "accType": "PAD",
            "editable": false,
            "mutedNotes": [],
            "mutedChords": [
              "1+2+5",
              "sus4",
              "1+5",
              "1+8",
              "7aug",
              "Maj7aug",
              "7(#9)",
              "7(b13)",
              "7(b9)",
              "7(13)",
              "7#11",
              "7(9)",
              "7b5",
              "7sus4",
              "7th",
              "aug",
              "Maj6(9)",
              "Maj7(9)",
              "Maj(9)",
              "Maj7#11",
              "Maj7",
              "Maj6",
              "Maj"
            ],
            "autoStart": false,
            "sourceChordNote": 0,
            "sourceChordType": "min",
            "ctb2Low": null,
            "ctb2Main": {
              "ntr": "ROOT_TRANSPOSITION",
              "ntt": "BYPASS",
              "bassOn": false,
              "chordRootUpperLimit": 11,
              "noteLowLimit": 54,
              "noteHighLimit": 79,
              "rtr": "PITCH_SHIFT"
            },
            "ctb2High": null
          },
          "notes": [
            {
              "pitch": 46,
              "velocity": 108,
              "position": 0.010416666666666666,
              "duration": 0.9854166666666667
            },
            {
              "pitch": 45,
              "velocity": 108,
              "position": 1,
              "duration": 0.9854166666666667
            },
            {
              "pitch": 67,
              "velocity": 108,
              "position": 0.010416666666666666,
              "duration": 1.9854166666666666
            },
            {
              "pitch": 44,
              "velocity": 108,
              "position": 2,
              "duration": 0.9854166666666667
            },
            {
              "pitch": 68,
              "velocity": 108,
              "position": 2,
              "duration": 0.9854166666666667
            },
            {
              "pitch": 43,
              "velocity": 108,
              "position": 3,
              "duration": 0.9854166666666667
            },
            {
              "pitch": 69,
              "velocity": 108,
              "position": 3,
              "duration": 0.9854166666666667
            },
            {
              "pitch": 51,
              "velocity": 108,
              "position": 0.010416666666666666,
              "duration": 3.9854166666666666
            },
            {
              "pitch": 42,
              "velocity": 108,
              "position": 4,
              "duration": 0.9854166666666667
            },
            {
              "pitch": 53,
              "velocity": 108,
              "position": 4,
              "duration": 0.9854166666666667
            },
            {
              "pitch": 48,
              "velocity": 108,
              "position": 2,
              "duration": 2.9854166666666666
            },
            {
              "pitch": 70,
              "velocity": 108,
              "position": 4,
              "duration": 0.9854166666666667
            },
            {
              "pitch": 41,
              "velocity": 108,
              "position": 5,
              "duration": 1.4854166666666666
            },
            {
              "pitch": 47,
              "velocity": 108,
              "position": 5,
              "duration": 1.4854166666666666
            },
            {
              "pitch": 51,
              "velocity": 108,
              "position": 5,
              "duration": 1.4958333333333333
            },
            {
              "pitch": 71,
              "velocity": 108,
              "position": 5,
              "duration": 1.4958333333333333
            },
            {
              "pitch": 44,
              "velocity": 108,
              "position": 7,
              "duration": 0.9854166666666667
            },
            {
              "pitch": 50,
              "velocity": 108,
              "position": 7,
              "duration": 0.9854166666666667
            },
            {
              "pitch": 77,
              "velocity": 108,
              "position": 7,
              "duration": 0.9854166666666667
            },
            {
              "pitch": 43,
              "velocity": 108,
              "position": 8,
              "duration": 0.9854166666666667
            },
            {
              "pitch": 75,
              "velocity": 108,
              "position": 8,
              "duration": 0.9854166666666667
            },
            {
              "pitch": 44,
              "velocity": 108,
              "position": 9,
              "duration": 0.9854166666666667
            },
            {
              "pitch": 48,
              "velocity": 108,
              "position": 7,
              "duration": 2.9854166666666666
            },
            {
              "pitch": 53,
              "velocity": 108,
              "position": 9,
              "duration": 0.9854166666666667
            },
            {
              "pitch": 74,
              "velocity": 108,
              "position": 9,
              "duration": 0.9854166666666667
            },
            {
              "pitch": 43,
              "velocity": 108,
              "position": 10,
              "duration": 0.9854166666666667
            },
            {
              "pitch": 46,
              "velocity": 108,
              "position": 10,
              "duration": 0.9854166666666667
            },
            {
              "pitch": 51,
              "velocity": 108,
              "position": 10,
              "duration": 0.9854166666666667
            },
            {
              "pitch": 72,
              "velocity": 108,
              "position": 10,
              "duration": 0.9854166666666667
            },
            {
              "pitch": 44,
              "velocity": 108,
              "position": 11,
              "duration": 0.9854166666666667
            },
            {
              "pitch": 50,
              "velocity": 108,
              "position": 11,
              "duration": 0.9854166666666667
            },
            {
              "pitch": 53,
              "velocity": 108,
              "position": 11,
              "duration": 0.9854166666666667
            },
            {
              "pitch": 68,
              "velocity": 108,
              "position": 11,
              "duration": 0.9854166666666667
            },
            {
              "pitch": 42,
              "velocity": 108,
              "position": 12,
              "duration": 3.9854166666666666
            },
            {
              "pitch": 46,
              "velocity": 108,
              "position": 12,
              "duration": 3.9854166666666666
            },
            {
              "pitch": 48,
              "velocity": 108,
              "position": 12,
              "duration": 3.9854166666666666
            },
            {
              "pitch": 65,
              "velocity": 108,
              "position": 12,
              "duration": 3.9854166666666666
            },
            {
              "pitch": 41,
              "velocity": 108,
              "position": 16,
              "duration": 3.9854166666666666
            },
            {
              "pitch": 47,
              "velocity": 108,
              "position": 16,
              "duration": 3.9854166666666666
            },
            {
              "pitch": 51,
              "velocity": 108,
              "position": 16,
              "duration": 3.9854166666666666
            },
            {
              "pitch": 67,
              "velocity": 108,
              "position": 16,
              "duration": 3.9854166666666666
            },
            {
              "pitch": 60,
              "velocity": 108,
              "position": 20.010416666666668,
              "duration": 3.9541666666666666
            },
            {
              "pitch": 72,
              "velocity": 108,
              "position": 20.010416666666668,
              "duration": 3.9541666666666666
            },
            {
              "pitch": 84,
              "velocity": 108,
              "position": 24,
              "duration": 2.9854166666666666
            },
            {
              "pitch": 72,
              "velocity": 108,
              "position": 24,
              "duration": 3.5166666666666666
            },
            {
              "pitch": 77,
              "velocity": 108,
              "position": 27,
              "duration": 0.5166666666666667
            },
            {
              "pitch": 81,
              "velocity": 108,
              "position": 27,
              "duration": 0.5166666666666667
            },
            {
              "pitch": 71,
              "velocity": 108,
              "position": 27.489583333333332,
              "duration": 0.07916666666666666
            },
            {
              "pitch": 69,
              "velocity": 108,
              "position": 27.520833333333332,
              "duration": 0.08958333333333333
            },
            {
              "pitch": 67,
              "velocity": 108,
              "position": 27.552083333333332,
              "duration": 0.07916666666666666
            },
            {
              "pitch": 65,
              "velocity": 108,
              "position": 27.583333333333332,
              "duration": 0.08958333333333333
            },
            {
              "pitch": 64,
              "velocity": 108,
              "position": 27.625,
              "duration": 0.07916666666666666
            },
            {
              "pitch": 62,
              "velocity": 108,
              "position": 27.65625,
              "duration": 0.07916666666666666
            },
            {
              "pitch": 60,
              "velocity": 108,
              "position": 27.6875,
              "duration": 0.07916666666666666
            },
            {
              "pitch": 59,
              "velocity": 108,
              "position": 27.71875,
              "duration": 0.08958333333333333
            },
            {
              "pitch": 57,
              "velocity": 108,
              "position": 27.760416666666668,
              "duration": 0.07916666666666666
            },
            {
              "pitch": 53,
              "velocity": 108,
              "position": 27.791666666666668,
              "duration": 0.07916666666666666
            },
            {
              "pitch": 52,
              "velocity": 108,
              "position": 27.8125,
              "duration": 0.1
            },
            {
              "pitch": 50,
              "velocity": 108,
              "position": 27.885416666666668,
              "duration": 0.08958333333333333
            },
            {
              "pitch": 48,
              "velocity": 108,
              "position": 27.916666666666668,
              "duration": 0.06875
            }
          ]
        },
        "6": {
          "ctab": {
            "srcChannel": 6,
            "name": "Cho",
            "accType": "PHRASE1",
            "editable": false,
            "mutedNotes": [],
            "mutedChords": [
              "1+2+5",
              "sus4",
              "1+5",
              "1+8",
              "7aug",
              "Maj7aug",
              "7(#9)",
              "7(b13)",
              "7(b9)",
              "7(13)",
              "7#11",
              "7(9)",
              "7b5",
              "7sus4",
              "7th",
              "aug",
              "Maj6(9)",
              "Maj7(9)",
              "Maj(9)",
              "Maj7#11",
              "Maj7",
              "Maj6",
              "Maj"
            ],
            "autoStart": false,
            "sourceChordNote": 0,
            "sourceChordType": "min",
            "ctb2Low": null,
            "ctb2Main": {
              "ntr": "ROOT_TRANSPOSITION",
              "ntt": "BYPASS",
              "bassOn": false,
              "chordRootUpperLimit": 6,
              "noteLowLimit": 36,
              "noteHighLimit": 127,
              "rtr": "PITCH_SHIFT"
            },
            "ctb2High": null
          },
          "notes": [
            {
              "pitch": 36,
              "velocity": 50,
              "position": 0.010416666666666666,
              "duration": 0.9854166666666667
            },
            {
              "pitch": 58,
              "velocity": 50,
              "position": 0.010416666666666666,
              "duration": 0.9854166666666667
            },
            {
              "pitch": 35,
              "velocity": 50,
              "position": 1,
              "duration": 0.9854166666666667
            },
            {
              "pitch": 57,
              "velocity": 50,
              "position": 1,
              "duration": 0.9854166666666667
            },
            {
              "pitch": 67,
              "velocity": 50,
              "position": 0.010416666666666666,
              "duration": 1.9854166666666666
            },
            {
              "pitch": 34,
              "velocity": 50,
              "position": 2,
              "duration": 0.9854166666666667
            },
            {
              "pitch": 56,
              "velocity": 50,
              "position": 2,
              "duration": 0.9854166666666667
            },
            {
              "pitch": 68,
              "velocity": 50,
              "position": 2,
              "duration": 0.9854166666666667
            },
            {
              "pitch": 33,
              "velocity": 50,
              "position": 3,
              "duration": 0.9854166666666667
            },
            {
              "pitch": 55,
              "velocity": 50,
              "position": 3,
              "duration": 0.9854166666666667
            },
            {
              "pitch": 69,
              "velocity": 50,
              "position": 3,
              "duration": 0.9854166666666667
            },
            {
              "pitch": 63,
              "velocity": 50,
              "position": 0.010416666666666666,
              "duration": 3.9854166666666666
            },
            {
              "pitch": 32,
              "velocity": 50,
              "position": 4,
              "duration": 0.9854166666666667
            },
            {
              "pitch": 54,
              "velocity": 50,
              "position": 4,
              "duration": 0.9854166666666667
            },
            {
              "pitch": 65,
              "velocity": 50,
              "position": 4,
              "duration": 0.9854166666666667
            },
            {
              "pitch": 60,
              "velocity": 50,
              "position": 2,
              "duration": 2.9854166666666666
            },
            {
              "pitch": 70,
              "velocity": 50,
              "position": 4,
              "duration": 0.9854166666666667
            },
            {
              "pitch": 31,
              "velocity": 50,
              "position": 5,
              "duration": 1.4854166666666666
            },
            {
              "pitch": 53,
              "velocity": 50,
              "position": 5,
              "duration": 1.4854166666666666
            },
            {
              "pitch": 59,
              "velocity": 50,
              "position": 5,
              "duration": 1.4854166666666666
            },
            {
              "pitch": 63,
              "velocity": 50,
              "position": 5,
              "duration": 1.4958333333333333
            },
            {
              "pitch": 71,
              "velocity": 50,
              "position": 5,
              "duration": 1.4958333333333333
            },
            {
              "pitch": 44,
              "velocity": 50,
              "position": 7,
              "duration": 0.9854166666666667
            },
            {
              "pitch": 62,
              "velocity": 50,
              "position": 7,
              "duration": 0.9854166666666667
            },
            {
              "pitch": 68,
              "velocity": 50,
              "position": 7,
              "duration": 0.9854166666666667
            },
            {
              "pitch": 77,
              "velocity": 50,
              "position": 7,
              "duration": 0.9854166666666667
            },
            {
              "pitch": 43,
              "velocity": 50,
              "position": 8,
              "duration": 0.9854166666666667
            },
            {
              "pitch": 67,
              "velocity": 50,
              "position": 8,
              "duration": 0.9854166666666667
            },
            {
              "pitch": 72,
              "velocity": 50,
              "position": 7,
              "duration": 1.9854166666666666
            },
            {
              "pitch": 75,
              "velocity": 50,
              "position": 8,
              "duration": 0.9854166666666667
            },
            {
              "pitch": 41,
              "velocity": 50,
              "position": 9,
              "duration": 0.9854166666666667
            },
            {
              "pitch": 60,
              "velocity": 50,
              "position": 8,
              "duration": 1.9854166666666666
            },
            {
              "pitch": 65,
              "velocity": 50,
              "position": 9,
              "duration": 0.9854166666666667
            },
            {
              "pitch": 68,
              "velocity": 50,
              "position": 9,
              "duration": 0.9854166666666667
            },
            {
              "pitch": 74,
              "velocity": 50,
              "position": 9,
              "duration": 0.9854166666666667
            },
            {
              "pitch": 39,
              "velocity": 50,
              "position": 10,
              "duration": 0.9854166666666667
            },
            {
              "pitch": 58,
              "velocity": 50,
              "position": 10,
              "duration": 0.9854166666666667
            },
            {
              "pitch": 63,
              "velocity": 50,
              "position": 10,
              "duration": 0.9854166666666667
            },
            {
              "pitch": 67,
              "velocity": 50,
              "position": 10,
              "duration": 0.9854166666666667
            },
            {
              "pitch": 72,
              "velocity": 50,
              "position": 10,
              "duration": 0.9854166666666667
            },
            {
              "pitch": 36,
              "velocity": 50,
              "position": 11,
              "duration": 0.9854166666666667
            },
            {
              "pitch": 56,
              "velocity": 50,
              "position": 11,
              "duration": 0.9854166666666667
            },
            {
              "pitch": 62,
              "velocity": 50,
              "position": 11,
              "duration": 0.9854166666666667
            },
            {
              "pitch": 65,
              "velocity": 50,
              "position": 11,
              "duration": 0.9854166666666667
            },
            {
              "pitch": 68,
              "velocity": 50,
              "position": 11,
              "duration": 0.9854166666666667
            },
            {
              "pitch": 32,
              "velocity": 50,
              "position": 12,
              "duration": 3.9854166666666666
            },
            {
              "pitch": 54,
              "velocity": 50,
              "position": 12,
              "duration": 3.9854166666666666
            },
            {
              "pitch": 58,
              "velocity": 50,
              "position": 12,
              "duration": 3.9854166666666666
            },
            {
              "pitch": 60,
              "velocity": 50,
              "position": 12,
              "duration": 3.9854166666666666
            },
            {
              "pitch": 65,
              "velocity": 50,
              "position": 12,
              "duration": 3.9854166666666666
            },
            {
              "pitch": 31,
              "velocity": 50,
              "position": 16,
              "duration": 3.9854166666666666
            },
            {
              "pitch": 53,
              "velocity": 50,
              "position": 16,
              "duration": 3.9854166666666666
            },
            {
              "pitch": 59,
              "velocity": 50,
              "position": 16,
              "duration": 3.9854166666666666
            },
            {
              "pitch": 36,
              "velocity": 50,
              "position": 20,
              "duration": 4.985416666666667
            },
            {
              "pitch": 55,
              "velocity": 50,
              "position": 20,
              "duration": 4.985416666666667
            },
            {
              "pitch": 60,
              "velocity": 50,
              "position": 20,
              "duration": 4.985416666666667
            },
            {
              "pitch": 63,
              "velocity": 50,
              "position": 16,
              "duration": 8.985416666666667
            },
            {
              "pitch": 67,
              "velocity": 50,
              "position": 16,
              "duration": 8.985416666666667
            }
          ]
        },
        "9": {
          "ctab": {
            "srcChannel": 9,
            "name": "Drums",
            "accType": "RHYTHM",
            "editable": false,
            "mutedNotes": [],
            "mutedChords": [],
            "autoStart": true,
            "sourceChordNote": 0,
            "sourceChordType": "Maj7",
            "ctb2Low": null,
            "ctb2Main": {
              "ntr": "ROOT_FIXED",
              "ntt": "BYPASS",
              "bassOn": false,
              "chordRootUpperLimit": 6,
              "noteLowLimit": 0,
              "noteHighLimit": 127,
              "rtr": "PITCH_SHIFT"
            },
            "ctb2High": null
          },
          "notes": [
            {
              "pitch": 57,
              "velocity": 9,
              "position": 0.010416666666666666,
              "duration": 0.00625
            },
            {
              "pitch": 57,
              "velocity": 9,
              "position": 0.125,
              "duration": 0.00625
            },
            {
              "pitch": 57,
              "velocity": 10,
              "position": 0.25,
              "duration": 0.00625
            },
            {
              "pitch": 57,
              "velocity": 11,
              "position": 0.375,
              "duration": 0.00625
            },
            {
              "pitch": 57,
              "velocity": 13,
              "position": 0.5,
              "duration": 0.00625
            },
            {
              "pitch": 57,
              "velocity": 14,
              "position": 0.625,
              "duration": 0.00625
            },
            {
              "pitch": 57,
              "velocity": 15,
              "position": 0.75,
              "duration": 0.00625
            },
            {
              "pitch": 57,
              "velocity": 16,
              "position": 0.875,
              "duration": 0.00625
            },
            {
              "pitch": 57,
              "velocity": 18,
              "position": 1,
              "duration": 0.00625
            },
            {
              "pitch": 57,
              "velocity": 18,
              "position": 1.125,
              "duration": 0.00625
            },
            {
              "pitch": 57,
              "velocity": 19,
              "position": 1.25,
              "duration": 0.00625
            },
            {
              "pitch": 57,
              "velocity": 20,
              "position": 1.375,
              "duration": 0.00625
            },
            {
              "pitch": 57,
              "velocity": 22,
              "position": 1.5,
              "duration": 0.00625
            },
            {
              "pitch": 57,
              "velocity": 23,
              "position": 1.625,
              "duration": 0.00625
            },
            {
              "pitch": 57,
              "velocity": 24,
              "position": 1.75,
              "duration": 0.00625
            },
            {
              "pitch": 57,
              "velocity": 25,
              "position": 1.875,
              "duration": 0.00625
            },
            {
              "pitch": 57,
              "velocity": 27,
              "position": 2,
              "duration": 0.00625
            },
            {
              "pitch": 49,
              "velocity": 16,
              "position": 2.125,
              "duration": 0.00625
            },
            {
              "pitch": 49,
              "velocity": 16,
              "position": 2.25,
              "duration": 0.00625
            },
            {
              "pitch": 49,
              "velocity": 16,
              "position": 2.375,
              "duration": 0.00625
            },
            {
              "pitch": 49,
              "velocity": 16,
              "position": 2.5,
              "duration": 0.00625
            },
            {
              "pitch": 49,
              "velocity": 16,
              "position": 2.625,
              "duration": 0.00625
            },
            {
              "pitch": 49,
              "velocity": 16,
              "position": 2.75,
              "duration": 0.00625
            },
            {
              "pitch": 49,
              "velocity": 16,
              "position": 2.875,
              "duration": 0.00625
            },
            {
              "pitch": 49,
              "velocity": 16,
              "position": 3,
              "duration": 0.00625
            },
            {
              "pitch": 49,
              "velocity": 16,
              "position": 3.125,
              "duration": 0.00625
            },
            {
              "pitch": 49,
              "velocity": 16,
              "position": 3.25,
              "duration": 0.00625
            },
            {
              "pitch": 49,
              "velocity": 16,
              "position": 3.375,
              "duration": 0.00625
            },
            {
              "pitch": 49,
              "velocity": 16,
              "position": 3.5,
              "duration": 0.00625
            },
            {
              "pitch": 49,
              "velocity": 16,
              "position": 3.625,
              "duration": 0.00625
            },
            {
              "pitch": 49,
              "velocity": 16,
              "position": 3.75,
              "duration": 0.00625
            },
            {
              "pitch": 49,
              "velocity": 16,
              "position": 3.875,
              "duration": 0.00625
            },
            {
              "pitch": 57,
              "velocity": 9,
              "position": 4,
              "duration": 0.00625
            },
            {
              "pitch": 49,
              "velocity": 15,
              "position": 4.125,
              "duration": 0.00625
            },
            {
              "pitch": 57,
              "velocity": 10,
              "position": 4.25,
              "duration": 0.00625
            },
            {
              "pitch": 49,
              "velocity": 10,
              "position": 4.375,
              "duration": 0.00625
            },
            {
              "pitch": 57,
              "velocity": 12,
              "position": 4.5,
              "duration": 0.00625
            },
            {
              "pitch": 49,
              "velocity": 13,
              "position": 4.625,
              "duration": 0.00625
            },
            {
              "pitch": 57,
              "velocity": 14,
              "position": 4.75,
              "duration": 0.00625
            },
            {
              "pitch": 49,
              "velocity": 15,
              "position": 4.875,
              "duration": 0.00625
            },
            {
              "pitch": 57,
              "velocity": 16,
              "position": 5,
              "duration": 0.00625
            },
            {
              "pitch": 49,
              "velocity": 17,
              "position": 5.125,
              "duration": 0.00625
            },
            {
              "pitch": 57,
              "velocity": 18,
              "position": 5.25,
              "duration": 0.00625
            },
            {
              "pitch": 49,
              "velocity": 19,
              "position": 5.375,
              "duration": 0.00625
            },
            {
              "pitch": 57,
              "velocity": 20,
              "position": 5.5,
              "duration": 0.00625
            },
            {
              "pitch": 49,
              "velocity": 22,
              "position": 5.625,
              "duration": 0.00625
            },
            {
              "pitch": 57,
              "velocity": 22,
              "position": 5.75,
              "duration": 0.00625
            },
            {
              "pitch": 49,
              "velocity": 24,
              "position": 5.875,
              "duration": 0.00625
            },
            {
              "pitch": 57,
              "velocity": 24,
              "position": 6,
              "duration": 0.00625
            },
            {
              "pitch": 49,
              "velocity": 23,
              "position": 6.041666666666667,
              "duration": 0.00625
            },
            {
              "pitch": 57,
              "velocity": 24,
              "position": 6.083333333333333,
              "duration": 0.00625
            },
            {
              "pitch": 49,
              "velocity": 23,
              "position": 6.125,
              "duration": 0.00625
            },
            {
              "pitch": 57,
              "velocity": 24,
              "position": 6.166666666666667,
              "duration": 0.00625
            },
            {
              "pitch": 49,
              "velocity": 24,
              "position": 6.208333333333333,
              "duration": 0.00625
            },
            {
              "pitch": 57,
              "velocity": 24,
              "position": 6.25,
              "duration": 0.00625
            },
            {
              "pitch": 49,
              "velocity": 17,
              "position": 6.291666666666667,
              "duration": 0.00625
            },
            {
              "pitch": 49,
              "velocity": 17,
              "position": 6.46875,
              "duration": 0.00625
            },
            {
              "pitch": 57,
              "velocity": 16,
              "position": 6.479166666666667,
              "duration": 0.00625
            },
            {
              "pitch": 57,
              "velocity": 9,
              "position": 7,
              "duration": 0.00625
            },
            {
              "pitch": 49,
              "velocity": 15,
              "position": 7.125,
              "duration": 0.00625
            },
            {
              "pitch": 57,
              "velocity": 15,
              "position": 7.25,
              "duration": 0.00625
            },
            {
              "pitch": 49,
              "velocity": 18,
              "position": 7.375,
              "duration": 0.00625
            },
            {
              "pitch": 57,
              "velocity": 22,
              "position": 7.5,
              "duration": 0.00625
            },
            {
              "pitch": 49,
              "velocity": 17,
              "position": 7.625,
              "duration": 0.00625
            },
            {
              "pitch": 57,
              "velocity": 25,
              "position": 7.75,
              "duration": 0.00625
            },
            {
              "pitch": 49,
              "velocity": 29,
              "position": 7.875,
              "duration": 0.00625
            },
            {
              "pitch": 57,
              "velocity": 32,
              "position": 8,
              "duration": 0.00625
            },
            {
              "pitch": 49,
              "velocity": 17,
              "position": 8.125,
              "duration": 0.00625
            },
            {
              "pitch": 57,
              "velocity": 22,
              "position": 8.25,
              "duration": 0.00625
            },
            {
              "pitch": 49,
              "velocity": 19,
              "position": 8.375,
              "duration": 0.00625
            },
            {
              "pitch": 57,
              "velocity": 16,
              "position": 8.5,
              "duration": 0.00625
            },
            {
              "pitch": 49,
              "velocity": 22,
              "position": 8.625,
              "duration": 0.00625
            },
            {
              "pitch": 57,
              "velocity": 18,
              "position": 8.75,
              "duration": 0.00625
            },
            {
              "pitch": 49,
              "velocity": 24,
              "position": 8.875,
              "duration": 0.00625
            },
            {
              "pitch": 57,
              "velocity": 21,
              "position": 9,
              "duration": 0.00625
            },
            {
              "pitch": 49,
              "velocity": 26,
              "position": 9.125,
              "duration": 0.00625
            },
            {
              "pitch": 57,
              "velocity": 24,
              "position": 9.25,
              "duration": 0.00625
            },
            {
              "pitch": 49,
              "velocity": 26,
              "position": 9.375,
              "duration": 0.00625
            },
            {
              "pitch": 57,
              "velocity": 27,
              "position": 9.5,
              "duration": 0.00625
            },
            {
              "pitch": 49,
              "velocity": 29,
              "position": 9.625,
              "duration": 0.00625
            },
            {
              "pitch": 57,
              "velocity": 27,
              "position": 9.75,
              "duration": 0.00625
            },
            {
              "pitch": 49,
              "velocity": 31,
              "position": 9.875,
              "duration": 0.00625
            },
            {
              "pitch": 57,
              "velocity": 29,
              "position": 10,
              "duration": 0.00625
            },
            {
              "pitch": 49,
              "velocity": 34,
              "position": 10.125,
              "duration": 0.00625
            },
            {
              "pitch": 57,
              "velocity": 32,
              "position": 10.25,
              "duration": 0.00625
            },
            {
              "pitch": 49,
              "velocity": 35,
              "position": 10.375,
              "duration": 0.00625
            },
            {
              "pitch": 57,
              "velocity": 35,
              "position": 10.5,
              "duration": 0.00625
            },
            {
              "pitch": 49,
              "velocity": 38,
              "position": 10.625,
              "duration": 0.00625
            },
            {
              "pitch": 57,
              "velocity": 36,
              "position": 10.75,
              "duration": 0.00625
            },
            {
              "pitch": 49,
              "velocity": 36,
              "position": 10.875,
              "duration": 0.00625
            },
            {
              "pitch": 57,
              "velocity": 29,
              "position": 11,
              "duration": 0.00625
            },
            {
              "pitch": 49,
              "velocity": 32,
              "position": 11.125,
              "duration": 0.00625
            },
            {
              "pitch": 57,
              "velocity": 32,
              "position": 11.25,
              "duration": 0.00625
            },
            {
              "pitch": 49,
              "velocity": 34,
              "position": 11.375,
              "duration": 0.00625
            },
            {
              "pitch": 57,
              "velocity": 35,
              "position": 11.5,
              "duration": 0.00625
            },
            {
              "pitch": 49,
              "velocity": 36,
              "position": 11.625,
              "duration": 0.00625
            },
            {
              "pitch": 57,
              "velocity": 34,
              "position": 11.75,
              "duration": 0.00625
            },
            {
              "pitch": 49,
              "velocity": 38,
              "position": 11.875,
              "duration": 0.00625
            },
            {
              "pitch": 57,
              "velocity": 22,
              "position": 12,
              "duration": 0.00625
            },
            {
              "pitch": 57,
              "velocity": 10,
              "position": 13.458333333333334,
              "duration": 0.00625
            },
            {
              "pitch": 49,
              "velocity": 10,
              "position": 13.583333333333334,
              "duration": 0.00625
            },
            {
              "pitch": 57,
              "velocity": 12,
              "position": 13.708333333333334,
              "duration": 0.00625
            },
            {
              "pitch": 49,
              "velocity": 12,
              "position": 13.833333333333334,
              "duration": 0.00625
            },
            {
              "pitch": 57,
              "velocity": 14,
              "position": 13.958333333333334,
              "duration": 0.00625
            },
            {
              "pitch": 49,
              "velocity": 14,
              "position": 14.083333333333334,
              "duration": 0.00625
            },
            {
              "pitch": 57,
              "velocity": 16,
              "position": 14.208333333333334,
              "duration": 0.00625
            },
            {
              "pitch": 49,
              "velocity": 16,
              "position": 14.333333333333334,
              "duration": 0.00625
            },
            {
              "pitch": 57,
              "velocity": 19,
              "position": 14.458333333333334,
              "duration": 0.00625
            },
            {
              "pitch": 49,
              "velocity": 20,
              "position": 14.583333333333334,
              "duration": 0.00625
            },
            {
              "pitch": 57,
              "velocity": 23,
              "position": 14.708333333333334,
              "duration": 0.00625
            },
            {
              "pitch": 49,
              "velocity": 22,
              "position": 14.833333333333334,
              "duration": 0.00625
            },
            {
              "pitch": 57,
              "velocity": 24,
              "position": 14.958333333333334,
              "duration": 0.00625
            },
            {
              "pitch": 49,
              "velocity": 24,
              "position": 15.083333333333334,
              "duration": 0.00625
            },
            {
              "pitch": 57,
              "velocity": 26,
              "position": 15.208333333333334,
              "duration": 0.00625
            },
            {
              "pitch": 49,
              "velocity": 26,
              "position": 15.333333333333334,
              "duration": 0.00625
            },
            {
              "pitch": 57,
              "velocity": 24,
              "position": 15.458333333333334,
              "duration": 0.00625
            },
            {
              "pitch": 49,
              "velocity": 28,
              "position": 15.583333333333334,
              "duration": 0.00625
            },
            {
              "pitch": 57,
              "velocity": 32,
              "position": 15.708333333333334,
              "duration": 0.00625
            },
            {
              "pitch": 49,
              "velocity": 39,
              "position": 15.833333333333334,
              "duration": 0.00625
            },
            {
              "pitch": 57,
              "velocity": 43,
              "position": 15.958333333333334,
              "duration": 0.00625
            },
            {
              "pitch": 49,
              "velocity": 47,
              "position": 16.083333333333332,
              "duration": 0.00625
            },
            {
              "pitch": 57,
              "velocity": 45,
              "position": 16.208333333333332,
              "duration": 0.00625
            },
            {
              "pitch": 32,
              "velocity": 100,
              "position": 17,
              "duration": 0.00625
            },
            {
              "pitch": 32,
              "velocity": 100,
              "position": 18,
              "duration": 0.00625
            },
            {
              "pitch": 38,
              "velocity": 36,
              "position": 18.333333333333332,
              "duration": 0.00625
            },
            {
              "pitch": 38,
              "velocity": 76,
              "position": 18.666666666666668,
              "duration": 0.00625
            },
            {
              "pitch": 38,
              "velocity": 90,
              "position": 19,
              "duration": 0.00625
            },
            {
              "pitch": 34,
              "velocity": 110,
              "position": 19.0625,
              "duration": 0.00625
            },
            {
              "pitch": 38,
              "velocity": 70,
              "position": 19.333333333333332,
              "duration": 0.00625
            },
            {
              "pitch": 35,
              "velocity": 40,
              "position": 19.666666666666668,
              "duration": 0.00625
            },
            {
              "pitch": 47,
              "velocity": 80,
              "position": 19.666666666666668,
              "duration": 0.00625
            },
            {
              "pitch": 35,
              "velocity": 90,
              "position": 20,
              "duration": 0.00625
            },
            {
              "pitch": 57,
              "velocity": 80,
              "position": 20,
              "duration": 0.00625
            },
            {
              "pitch": 38,
              "velocity": 15,
              "position": 20.333333333333332,
              "duration": 0.00625
            },
            {
              "pitch": 42,
              "velocity": 14,
              "position": 20.666666666666668,
              "duration": 0.00625
            },
            {
              "pitch": 38,
              "velocity": 100,
              "position": 21,
              "duration": 0.00625
            },
            {
              "pitch": 46,
              "velocity": 36,
              "position": 21,
              "duration": 0.00625
            },
            {
              "pitch": 38,
              "velocity": 15,
              "position": 21.333333333333332,
              "duration": 0.00625
            },
            {
              "pitch": 44,
              "velocity": 1,
              "position": 21.333333333333332,
              "duration": 0.00625
            },
            {
              "pitch": 35,
              "velocity": 40,
              "position": 21.666666666666668,
              "duration": 0.00625
            },
            {
              "pitch": 42,
              "velocity": 14,
              "position": 21.666666666666668,
              "duration": 0.00625
            },
            {
              "pitch": 35,
              "velocity": 90,
              "position": 22,
              "duration": 0.00625
            },
            {
              "pitch": 42,
              "velocity": 78,
              "position": 22,
              "duration": 0.00625
            },
            {
              "pitch": 38,
              "velocity": 15,
              "position": 22.333333333333332,
              "duration": 0.00625
            },
            {
              "pitch": 42,
              "velocity": 14,
              "position": 22.666666666666668,
              "duration": 0.00625
            },
            {
              "pitch": 38,
              "velocity": 100,
              "position": 23,
              "duration": 0.00625
            },
            {
              "pitch": 46,
              "velocity": 36,
              "position": 23,
              "duration": 0.00625
            },
            {
              "pitch": 38,
              "velocity": 20,
              "position": 23.333333333333332,
              "duration": 0.00625
            },
            {
              "pitch": 44,
              "velocity": 1,
              "position": 23.333333333333332,
              "duration": 0.00625
            },
            {
              "pitch": 35,
              "velocity": 40,
              "position": 23.666666666666668,
              "duration": 0.00625
            },
            {
              "pitch": 42,
              "velocity": 14,
              "position": 23.666666666666668,
              "duration": 0.00625
            },
            {
              "pitch": 35,
              "velocity": 90,
              "position": 24,
              "duration": 0.00625
            },
            {
              "pitch": 42,
              "velocity": 78,
              "position": 24,
              "duration": 0.00625
            },
            {
              "pitch": 38,
              "velocity": 15,
              "position": 24.333333333333332,
              "duration": 0.00625
            },
            {
              "pitch": 35,
              "velocity": 90,
              "position": 24.666666666666668,
              "duration": 0.00625
            },
            {
              "pitch": 46,
              "velocity": 36,
              "position": 24.666666666666668,
              "duration": 0.00625
            },
            {
              "pitch": 38,
              "velocity": 100,
              "position": 25,
              "duration": 0.00625
            },
            {
              "pitch": 44,
              "velocity": 1,
              "position": 25,
              "duration": 0.00625
            },
            {
              "pitch": 35,
              "velocity": 90,
              "position": 25.333333333333332,
              "duration": 0.00625
            },
            {
              "pitch": 46,
              "velocity": 36,
              "position": 25.333333333333332,
              "duration": 0.00625
            },
            {
              "pitch": 44,
              "velocity": 1,
              "position": 25.666666666666668,
              "duration": 0.00625
            },
            {
              "pitch": 35,
              "velocity": 90,
              "position": 26,
              "duration": 0.00625
            },
            {
              "pitch": 46,
              "velocity": 36,
              "position": 26,
              "duration": 0.00625
            },
            {
              "pitch": 38,
              "velocity": 36,
              "position": 26.333333333333332,
              "duration": 0.00625
            },
            {
              "pitch": 38,
              "velocity": 76,
              "position": 26.666666666666668,
              "duration": 0.00625
            },
            {
              "pitch": 42,
              "velocity": 14,
              "position": 26.666666666666668,
              "duration": 0.00625
            },
            {
              "pitch": 38,
              "velocity": 120,
              "position": 27,
              "duration": 0.00625
            },
            {
              "pitch": 46,
              "velocity": 36,
              "position": 27,
              "duration": 0.00625
            },
            {
              "pitch": 38,
              "velocity": 50,
              "position": 27.333333333333332,
              "duration": 0.00625
            },
            {
              "pitch": 35,
              "velocity": 40,
              "position": 27.666666666666668,
              "duration": 0.00625
            },
            {
              "pitch": 46,
              "velocity": 36,
              "position": 27.666666666666668,
              "duration": 0.00625
            },
            {
              "pitch": 49,
              "velocity": 57,
              "position": 27.989583333333332,
              "duration": 0.00625
            }
          ]
        },
        "10": {
          "ctab": {
            "srcChannel": 10,
            "name": "Bass",
            "accType": "BASS",
            "editable": false,
            "mutedNotes": [],
            "mutedChords": [
              "dim7",
              "dim",
              "minMaj7(9)",
              "minMaj7",
              "min7(11)",
              "min7(9)",
              "min(9)",
              "m7b5",
              "min7",
              "min6",
              "min"
            ],
            "autoStart": false,
            "sourceChordNote": 0,
            "sourceChordType": "Maj",
            "ctb2Low": null,
            "ctb2Main": {
              "ntr": "ROOT_TRANSPOSITION",
              "ntt": "BYPASS",
              "bassOn": false,
              "chordRootUpperLimit": 8,
              "noteLowLimit": 28,
              "noteHighLimit": 127,
              "rtr": "PITCH_SHIFT"
            },
            "ctb2High": null
          },
          "notes": [
            {
              "pitch": 35,
              "velocity": 74,
              "position": 0.010416666666666666,
              "duration": 1.9854166666666666
            },
            {
              "pitch": 34,
              "velocity": 74,
              "position": 2,
              "duration": 0.9854166666666667
            },
            {
              "pitch": 33,
              "velocity": 74,
              "position": 3,
              "duration": 0.9854166666666667
            },
            {
              "pitch": 30,
              "velocity": 74,
              "position": 4,
              "duration": 0.9854166666666667
            },
            {
              "pitch": 31,
              "velocity": 74,
              "position": 5,
              "duration": 1.4854166666666666
            },
            {
              "pitch": 32,
              "velocity": 74,
              "position": 7,
              "duration": 0.9854166666666667
            },
            {
              "pitch": 31,
              "velocity": 74,
              "position": 8,
              "duration": 0.9854166666666667
            },
            {
              "pitch": 29,
              "velocity": 74,
              "position": 9,
              "duration": 0.9854166666666667
            },
            {
              "pitch": 28,
              "velocity": 74,
              "position": 10,
              "duration": 0.9854166666666667
            },
            {
              "pitch": 24,
              "velocity": 74,
              "position": 11,
              "duration": 0.9854166666666667
            },
            {
              "pitch": 29,
              "velocity": 74,
              "position": 12,
              "duration": 3.9854166666666666
            },
            {
              "pitch": 31,
              "velocity": 74,
              "position": 16,
              "duration": 1.9854166666666666
            },
            {
              "pitch": 43,
              "velocity": 80,
              "position": 18.333333333333332,
              "duration": 0.08333333333333333
            },
            {
              "pitch": 41,
              "velocity": 76,
              "position": 18.666666666666668,
              "duration": 0.31875
            },
            {
              "pitch": 40,
              "velocity": 60,
              "position": 19,
              "duration": 0.31875
            },
            {
              "pitch": 36,
              "velocity": 78,
              "position": 19.333333333333332,
              "duration": 0.14166666666666666
            },
            {
              "pitch": 33,
              "velocity": 72,
              "position": 19.666666666666668,
              "duration": 0.14166666666666666
            },
            {
              "pitch": 24,
              "velocity": 74,
              "position": 20,
              "duration": 0.9854166666666667
            },
            {
              "pitch": 31,
              "velocity": 110,
              "position": 21.333333333333332,
              "duration": 0.10416666666666667
            },
            {
              "pitch": 31,
              "velocity": 60,
              "position": 21.666666666666668,
              "duration": 0.31875
            },
            {
              "pitch": 31,
              "velocity": 74,
              "position": 22,
              "duration": 0.9854166666666667
            },
            {
              "pitch": 31,
              "velocity": 74,
              "position": 23,
              "duration": 0.31875
            },
            {
              "pitch": 31,
              "velocity": 110,
              "position": 23.333333333333332,
              "duration": 0.10416666666666667
            },
            {
              "pitch": 28,
              "velocity": 60,
              "position": 23.666666666666668,
              "duration": 0.31875
            },
            {
              "pitch": 24,
              "velocity": 74,
              "position": 24,
              "duration": 0.6520833333333333
            },
            {
              "pitch": 28,
              "velocity": 74,
              "position": 24.666666666666668,
              "duration": 0.31875
            },
            {
              "pitch": 29,
              "velocity": 74,
              "position": 25.333333333333332,
              "duration": 0.31875
            },
            {
              "pitch": 31,
              "velocity": 74,
              "position": 26,
              "duration": 0.7354166666666667
            }
          ]
        },
        "11": {
          "ctab": {
            "srcChannel": 11,
            "name": "Gt",
            "accType": "CHORD1",
            "editable": false,
            "mutedNotes": [],
            "mutedChords": [
              "dim7",
              "dim",
              "minMaj7(9)",
              "minMaj7",
              "min7(11)",
              "min7(9)",
              "min(9)",
              "m7b5",
              "min7",
              "min6",
              "min"
            ],
            "autoStart": false,
            "sourceChordNote": 0,
            "sourceChordType": "Maj",
            "ctb2Low": null,
            "ctb2Main": {
              "ntr": "ROOT_TRANSPOSITION",
              "ntt": "BYPASS",
              "bassOn": false,
              "chordRootUpperLimit": 8,
              "noteLowLimit": 58,
              "noteHighLimit": 69,
              "rtr": "PITCH_SHIFT"
            },
            "ctb2High": null
          },
          "notes": [
            {
              "pitch": 60,
              "velocity": 64,
              "position": 20.333333333333332,
              "duration": 0.027083333333333334
            },
            {
              "pitch": 64,
              "velocity": 64,
              "position": 20.34375,
              "duration": 0.027083333333333334
            },
            {
              "pitch": 67,
              "velocity": 64,
              "position": 20.354166666666668,
              "duration": 0.027083333333333334
            },
            {
              "pitch": 60,
              "velocity": 46,
              "position": 20.666666666666668,
              "duration": 0.027083333333333334
            },
            {
              "pitch": 64,
              "velocity": 46,
              "position": 20.677083333333332,
              "duration": 0.027083333333333334
            },
            {
              "pitch": 60,
              "velocity": 116,
              "position": 21,
              "duration": 0.21458333333333332
            },
            {
              "pitch": 64,
              "velocity": 116,
              "position": 21.010416666666668,
              "duration": 0.21458333333333332
            },
            {
              "pitch": 67,
              "velocity": 116,
              "position": 21.020833333333332,
              "duration": 0.21458333333333332
            },
            {
              "pitch": 60,
              "velocity": 64,
              "position": 22.333333333333332,
              "duration": 0.027083333333333334
            },
            {
              "pitch": 64,
              "velocity": 64,
              "position": 22.34375,
              "duration": 0.027083333333333334
            },
            {
              "pitch": 67,
              "velocity": 64,
              "position": 22.354166666666668,
              "duration": 0.027083333333333334
            },
            {
              "pitch": 60,
              "velocity": 46,
              "position": 22.666666666666668,
              "duration": 0.027083333333333334
            },
            {
              "pitch": 64,
              "velocity": 46,
              "position": 22.677083333333332,
              "duration": 0.027083333333333334
            },
            {
              "pitch": 60,
              "velocity": 116,
              "position": 23,
              "duration": 0.21458333333333332
            },
            {
              "pitch": 64,
              "velocity": 116,
              "position": 23,
              "duration": 0.21458333333333332
            },
            {
              "pitch": 67,
              "velocity": 116,
              "position": 23.020833333333332,
              "duration": 0.21458333333333332
            },
            {
              "pitch": 60,
              "velocity": 64,
              "position": 24.333333333333332,
              "duration": 0.027083333333333334
            },
            {
              "pitch": 64,
              "velocity": 64,
              "position": 24.34375,
              "duration": 0.027083333333333334
            },
            {
              "pitch": 67,
              "velocity": 64,
              "position": 24.354166666666668,
              "duration": 0.027083333333333334
            },
            {
              "pitch": 60,
              "velocity": 116,
              "position": 24.666666666666668,
              "duration": 0.25625
            },
            {
              "pitch": 64,
              "velocity": 116,
              "position": 24.677083333333332,
              "duration": 0.25625
            },
            {
              "pitch": 67,
              "velocity": 116,
              "position": 24.6875,
              "duration": 0.25625
            },
            {
              "pitch": 60,
              "velocity": 116,
              "position": 25.354166666666668,
              "duration": 0.25625
            },
            {
              "pitch": 65,
              "velocity": 116,
              "position": 25.354166666666668,
              "duration": 0.25625
            },
            {
              "pitch": 69,
              "velocity": 116,
              "position": 25.354166666666668,
              "duration": 0.25625
            },
            {
              "pitch": 60,
              "velocity": 116,
              "position": 26,
              "duration": 0.31875
            },
            {
              "pitch": 64,
              "velocity": 116,
              "position": 26.010416666666668,
              "duration": 0.30833333333333335
            },
            {
              "pitch": 67,
              "velocity": 116,
              "position": 26.020833333333332,
              "duration": 0.29791666666666666
            },
            {
              "pitch": 60,
              "velocity": 64,
              "position": 26.333333333333332,
              "duration": 0.027083333333333334
            },
            {
              "pitch": 64,
              "velocity": 64,
              "position": 26.34375,
              "duration": 0.027083333333333334
            },
            {
              "pitch": 67,
              "velocity": 64,
              "position": 26.354166666666668,
              "duration": 0.027083333333333334
            },
            {
              "pitch": 60,
              "velocity": 46,
              "position": 26.666666666666668,
              "duration": 0.027083333333333334
            },
            {
              "pitch": 64,
              "velocity": 46,
              "position": 26.677083333333332,
              "duration": 0.027083333333333334
            },
            {
              "pitch": 69,
              "velocity": 116,
              "position": 27,
              "duration": 0.6520833333333333
            },
            {
              "pitch": 60,
              "velocity": 116,
              "position": 27.020833333333332,
              "duration": 0.63125
            },
            {
              "pitch": 65,
              "velocity": 116,
              "position": 27.020833333333332,
              "duration": 0.63125
            },
            {
              "pitch": 69,
              "velocity": 80,
              "position": 27.666666666666668,
              "duration": 0.31875
            },
            {
              "pitch": 60,
              "velocity": 80,
              "position": 27.6875,
              "duration": 0.29791666666666666
            },
            {
              "pitch": 65,
              "velocity": 80,
              "position": 27.6875,
              "duration": 0.29791666666666666
            }
          ]
        },
        "12": {
          "ctab": {
            "srcChannel": 12,
            "name": "Pno",
            "accType": "CHORD2",
            "editable": false,
            "mutedNotes": [],
            "mutedChords": [
              "dim7",
              "dim",
              "minMaj7(9)",
              "minMaj7",
              "min7(11)",
              "min7(9)",
              "min(9)",
              "m7b5",
              "min7",
              "min6",
              "min"
            ],
            "autoStart": false,
            "sourceChordNote": 0,
            "sourceChordType": "Maj",
            "ctb2Low": null,
            "ctb2Main": {
              "ntr": "ROOT_TRANSPOSITION",
              "ntt": "BYPASS",
              "bassOn": false,
              "chordRootUpperLimit": 11,
              "noteLowLimit": 54,
              "noteHighLimit": 127,
              "rtr": "PITCH_SHIFT"
            },
            "ctb2High": null
          },
          "notes": [
            {
              "pitch": 57,
              "velocity": 98,
              "position": 0.03125,
              "duration": 1.9854166666666666
            },
            {
              "pitch": 62,
              "velocity": 98,
              "position": 0.03125,
              "duration": 1.9854166666666666
            },
            {
              "pitch": 67,
              "velocity": 98,
              "position": 0.03125,
              "duration": 1.9854166666666666
            },
            {
              "pitch": 56,
              "velocity": 98,
              "position": 2,
              "duration": 0.9854166666666667
            },
            {
              "pitch": 60,
              "velocity": 98,
              "position": 2,
              "duration": 0.9854166666666667
            },
            {
              "pitch": 64,
              "velocity": 98,
              "position": 2,
              "duration": 0.9854166666666667
            },
            {
              "pitch": 57,
              "velocity": 98,
              "position": 3,
              "duration": 0.9854166666666667
            },
            {
              "pitch": 61,
              "velocity": 98,
              "position": 3,
              "duration": 0.9854166666666667
            },
            {
              "pitch": 63,
              "velocity": 98,
              "position": 3,
              "duration": 0.9854166666666667
            },
            {
              "pitch": 67,
              "velocity": 98,
              "position": 3,
              "duration": 0.9854166666666667
            },
            {
              "pitch": 57,
              "velocity": 98,
              "position": 4,
              "duration": 0.9854166666666667
            },
            {
              "pitch": 64,
              "velocity": 98,
              "position": 4,
              "duration": 0.9854166666666667
            },
            {
              "pitch": 69,
              "velocity": 98,
              "position": 4,
              "duration": 0.9854166666666667
            },
            {
              "pitch": 60,
              "velocity": 98,
              "position": 4,
              "duration": 0.9958333333333333
            },
            {
              "pitch": 57,
              "velocity": 98,
              "position": 5,
              "duration": 0.9854166666666667
            },
            {
              "pitch": 56,
              "velocity": 71,
              "position": 6,
              "duration": 0.48541666666666666
            },
            {
              "pitch": 65,
              "velocity": 98,
              "position": 5,
              "duration": 1.4854166666666666
            },
            {
              "pitch": 72,
              "velocity": 98,
              "position": 5,
              "duration": 1.4854166666666666
            },
            {
              "pitch": 60,
              "velocity": 98,
              "position": 5,
              "duration": 1.4958333333333333
            },
            {
              "pitch": 50,
              "velocity": 98,
              "position": 7,
              "duration": 0.9854166666666667
            },
            {
              "pitch": 56,
              "velocity": 98,
              "position": 7,
              "duration": 0.9854166666666667
            },
            {
              "pitch": 60,
              "velocity": 98,
              "position": 7,
              "duration": 0.9854166666666667
            },
            {
              "pitch": 65,
              "velocity": 98,
              "position": 7,
              "duration": 0.9854166666666667
            },
            {
              "pitch": 55,
              "velocity": 98,
              "position": 8,
              "duration": 0.9854166666666667
            },
            {
              "pitch": 60,
              "velocity": 98,
              "position": 8,
              "duration": 0.9854166666666667
            },
            {
              "pitch": 64,
              "velocity": 98,
              "position": 8,
              "duration": 0.9854166666666667
            },
            {
              "pitch": 53,
              "velocity": 98,
              "position": 9,
              "duration": 0.9854166666666667
            },
            {
              "pitch": 56,
              "velocity": 98,
              "position": 9,
              "duration": 0.9854166666666667
            },
            {
              "pitch": 62,
              "velocity": 98,
              "position": 9,
              "duration": 0.9854166666666667
            },
            {
              "pitch": 50,
              "velocity": 98,
              "position": 10,
              "duration": 0.9854166666666667
            },
            {
              "pitch": 52,
              "velocity": 98,
              "position": 10,
              "duration": 0.9854166666666667
            },
            {
              "pitch": 57,
              "velocity": 98,
              "position": 10,
              "duration": 0.9854166666666667
            },
            {
              "pitch": 60,
              "velocity": 98,
              "position": 10,
              "duration": 0.9854166666666667
            },
            {
              "pitch": 48,
              "velocity": 98,
              "position": 11,
              "duration": 0.9854166666666667
            },
            {
              "pitch": 50,
              "velocity": 98,
              "position": 11,
              "duration": 0.9854166666666667
            },
            {
              "pitch": 52,
              "velocity": 98,
              "position": 11,
              "duration": 0.9854166666666667
            },
            {
              "pitch": 57,
              "velocity": 98,
              "position": 11,
              "duration": 0.9854166666666667
            },
            {
              "pitch": 45,
              "velocity": 98,
              "position": 12,
              "duration": 3.9854166666666666
            },
            {
              "pitch": 48,
              "velocity": 98,
              "position": 12,
              "duration": 3.9854166666666666
            },
            {
              "pitch": 52,
              "velocity": 98,
              "position": 12,
              "duration": 3.9854166666666666
            },
            {
              "pitch": 55,
              "velocity": 98,
              "position": 12,
              "duration": 3.9854166666666666
            },
            {
              "pitch": 45,
              "velocity": 98,
              "position": 16,
              "duration": 3.9854166666666666
            },
            {
              "pitch": 48,
              "velocity": 98,
              "position": 16,
              "duration": 3.9854166666666666
            },
            {
              "pitch": 53,
              "velocity": 98,
              "position": 16,
              "duration": 3.9854166666666666
            },
            {
              "pitch": 63,
              "velocity": 116,
              "position": 20.666666666666668,
              "duration": 0.15208333333333332
            },
            {
              "pitch": 60,
              "velocity": 116,
              "position": 20.666666666666668,
              "duration": 0.31875
            },
            {
              "pitch": 64,
              "velocity": 80,
              "position": 20.833333333333332,
              "duration": 0.15208333333333332
            },
            {
              "pitch": 67,
              "velocity": 116,
              "position": 20.666666666666668,
              "duration": 0.31875
            },
            {
              "pitch": 70,
              "velocity": 116,
              "position": 20.666666666666668,
              "duration": 0.31875
            },
            {
              "pitch": 72,
              "velocity": 116,
              "position": 20.666666666666668,
              "duration": 0.31875
            },
            {
              "pitch": 60,
              "velocity": 116,
              "position": 21.333333333333332,
              "duration": 0.31875
            },
            {
              "pitch": 65,
              "velocity": 116,
              "position": 21.333333333333332,
              "duration": 0.31875
            },
            {
              "pitch": 69,
              "velocity": 116,
              "position": 21.333333333333332,
              "duration": 0.31875
            },
            {
              "pitch": 72,
              "velocity": 116,
              "position": 21.333333333333332,
              "duration": 0.31875
            },
            {
              "pitch": 64,
              "velocity": 116,
              "position": 22,
              "duration": 0.48541666666666666
            },
            {
              "pitch": 60,
              "velocity": 116,
              "position": 22,
              "duration": 0.6520833333333333
            },
            {
              "pitch": 67,
              "velocity": 116,
              "position": 22,
              "duration": 0.6520833333333333
            },
            {
              "pitch": 72,
              "velocity": 116,
              "position": 22,
              "duration": 0.6520833333333333
            },
            {
              "pitch": 63,
              "velocity": 116,
              "position": 22.666666666666668,
              "duration": 0.15208333333333332
            },
            {
              "pitch": 54,
              "velocity": 116,
              "position": 22.666666666666668,
              "duration": 0.31875
            },
            {
              "pitch": 60,
              "velocity": 116,
              "position": 22.666666666666668,
              "duration": 0.31875
            },
            {
              "pitch": 62,
              "velocity": 116,
              "position": 23.333333333333332,
              "duration": 0.15208333333333332
            },
            {
              "pitch": 53,
              "velocity": 116,
              "position": 23.333333333333332,
              "duration": 0.31875
            },
            {
              "pitch": 60,
              "velocity": 116,
              "position": 23.333333333333332,
              "duration": 0.31875
            },
            {
              "pitch": 52,
              "velocity": 116,
              "position": 24,
              "duration": 0.6520833333333333
            },
            {
              "pitch": 60,
              "velocity": 116,
              "position": 24,
              "duration": 0.6520833333333333
            },
            {
              "pitch": 63,
              "velocity": 116,
              "position": 24.666666666666668,
              "duration": 0.15208333333333332
            },
            {
              "pitch": 55,
              "velocity": 116,
              "position": 24.666666666666668,
              "duration": 0.31875
            },
            {
              "pitch": 60,
              "velocity": 116,
              "position": 24.666666666666668,
              "duration": 0.31875
            },
            {
              "pitch": 64,
              "velocity": 80,
              "position": 24.833333333333332,
              "duration": 0.15208333333333332
            },
            {
              "pitch": 57,
              "velocity": 116,
              "position": 25.333333333333332,
              "duration": 0.31875
            },
            {
              "pitch": 60,
              "velocity": 116,
              "position": 25.333333333333332,
              "duration": 0.31875
            },
            {
              "pitch": 65,
              "velocity": 116,
              "position": 25.333333333333332,
              "duration": 0.31875
            },
            {
              "pitch": 64,
              "velocity": 116,
              "position": 26,
              "duration": 0.81875
            },
            {
              "pitch": 55,
              "velocity": 116,
              "position": 26,
              "duration": 0.9854166666666667
            },
            {
              "pitch": 60,
              "velocity": 116,
              "position": 26,
              "duration": 0.9854166666666667
            },
            {
              "pitch": 63,
              "velocity": 116,
              "position": 27,
              "duration": 0.15208333333333332
            },
            {
              "pitch": 53,
              "velocity": 116,
              "position": 27,
              "duration": 0.9854166666666667
            },
            {
              "pitch": 57,
              "velocity": 116,
              "position": 27,
              "duration": 0.9854166666666667
            },
            {
              "pitch": 60,
              "velocity": 116,
              "position": 27,
              "duration": 0.9854166666666667
            },
            {
              "pitch": 62,
              "velocity": 80,
              "position": 27.166666666666668,
              "duration": 0.81875
            }
          ]
        },
        "13": {
          "ctab": {
            "srcChannel": 13,
            "name": "Pno LH",
            "accType": "CHORD2",
            "editable": false,
            "mutedNotes": [],
            "mutedChords": [
              "dim7",
              "dim",
              "minMaj7(9)",
              "minMaj7",
              "min7(11)",
              "min7(9)",
              "min(9)",
              "m7b5",
              "min7",
              "min6",
              "min"
            ],
            "autoStart": false,
            "sourceChordNote": 0,
            "sourceChordType": "Maj",
            "ctb2Low": null,
            "ctb2Main": {
              "ntr": "ROOT_TRANSPOSITION",
              "ntt": "BYPASS",
              "bassOn": false,
              "chordRootUpperLimit": 9,
              "noteLowLimit": 0,
              "noteHighLimit": 127,
              "rtr": "PITCH_SHIFT"
            },
            "ctb2High": null
          },
          "notes": [
            {
              "pitch": 35,
              "velocity": 98,
              "position": 0.010416666666666666,
              "duration": 1.9854166666666666
            },
            {
              "pitch": 34,
              "velocity": 98,
              "position": 2,
              "duration": 0.9854166666666667
            },
            {
              "pitch": 33,
              "velocity": 98,
              "position": 3,
              "duration": 0.9854166666666667
            },
            {
              "pitch": 30,
              "velocity": 98,
              "position": 4,
              "duration": 0.9854166666666667
            },
            {
              "pitch": 31,
              "velocity": 98,
              "position": 5,
              "duration": 1.4854166666666666
            },
            {
              "pitch": 44,
              "velocity": 98,
              "position": 7,
              "duration": 0.9854166666666667
            },
            {
              "pitch": 43,
              "velocity": 98,
              "position": 8,
              "duration": 0.9854166666666667
            },
            {
              "pitch": 41,
              "velocity": 98,
              "position": 9,
              "duration": 0.9854166666666667
            },
            {
              "pitch": 40,
              "velocity": 98,
              "position": 10,
              "duration": 0.9854166666666667
            },
            {
              "pitch": 36,
              "velocity": 98,
              "position": 11,
              "duration": 0.9854166666666667
            },
            {
              "pitch": 29,
              "velocity": 98,
              "position": 12,
              "duration": 3.9854166666666666
            },
            {
              "pitch": 31,
              "velocity": 98,
              "position": 16,
              "duration": 3.9854166666666666
            },
            {
              "pitch": 28,
              "velocity": 116,
              "position": 24.666666666666668,
              "duration": 0.32916666666666666
            },
            {
              "pitch": 40,
              "velocity": 116,
              "position": 24.666666666666668,
              "duration": 0.32916666666666666
            },
            {
              "pitch": 29,
              "velocity": 116,
              "position": 25.333333333333332,
              "duration": 0.32916666666666666
            },
            {
              "pitch": 41,
              "velocity": 116,
              "position": 25.333333333333332,
              "duration": 0.32916666666666666
            },
            {
              "pitch": 31,
              "velocity": 116,
              "position": 26,
              "duration": 0.9854166666666667
            },
            {
              "pitch": 31,
              "velocity": 116,
              "position": 27,
              "duration": 0.9958333333333333
            },
            {
              "pitch": 43,
              "velocity": 116,
              "position": 26,
              "duration": 1.9958333333333333
            }
          ]
        },
        "14": {
          "ctab": {
            "srcChannel": 14,
            "name": "Org",
            "accType": "PAD",
            "editable": false,
            "mutedNotes": [],
            "mutedChords": [
              "dim7",
              "dim",
              "minMaj7(9)",
              "minMaj7",
              "min7(11)",
              "min7(9)",
              "min(9)",
              "m7b5",
              "min7",
              "min6",
              "min"
            ],
            "autoStart": false,
            "sourceChordNote": 0,
            "sourceChordType": "Maj",
            "ctb2Low": null,
            "ctb2Main": {
              "ntr": "ROOT_TRANSPOSITION",
              "ntt": "BYPASS",
              "bassOn": false,
              "chordRootUpperLimit": 11,
              "noteLowLimit": 54,
              "noteHighLimit": 79,
              "rtr": "PITCH_SHIFT"
            },
            "ctb2High": null
          },
          "notes": [
            {
              "pitch": 45,
              "velocity": 108,
              "position": 0.010416666666666666,
              "duration": 1.9854166666666666
            },
            {
              "pitch": 50,
              "velocity": 108,
              "position": 0.010416666666666666,
              "duration": 1.9854166666666666
            },
            {
              "pitch": 67,
              "velocity": 108,
              "position": 0.010416666666666666,
              "duration": 1.9854166666666666
            },
            {
              "pitch": 44,
              "velocity": 108,
              "position": 2,
              "duration": 0.9854166666666667
            },
            {
              "pitch": 48,
              "velocity": 108,
              "position": 2,
              "duration": 0.9854166666666667
            },
            {
              "pitch": 64,
              "velocity": 108,
              "position": 2,
              "duration": 0.9854166666666667
            },
            {
              "pitch": 49,
              "velocity": 108,
              "position": 3,
              "duration": 0.9854166666666667
            },
            {
              "pitch": 51,
              "velocity": 108,
              "position": 3,
              "duration": 0.9854166666666667
            },
            {
              "pitch": 67,
              "velocity": 108,
              "position": 3,
              "duration": 0.9854166666666667
            },
            {
              "pitch": 52,
              "velocity": 108,
              "position": 4,
              "duration": 0.9854166666666667
            },
            {
              "pitch": 69,
              "velocity": 108,
              "position": 4,
              "duration": 0.9854166666666667
            },
            {
              "pitch": 45,
              "velocity": 108,
              "position": 3,
              "duration": 2.9854166666666666
            },
            {
              "pitch": 44,
              "velocity": 108,
              "position": 6,
              "duration": 0.48541666666666666
            },
            {
              "pitch": 53,
              "velocity": 108,
              "position": 5,
              "duration": 1.4854166666666666
            },
            {
              "pitch": 72,
              "velocity": 108,
              "position": 5,
              "duration": 1.4854166666666666
            },
            {
              "pitch": 48,
              "velocity": 108,
              "position": 4,
              "duration": 2.495833333333333
            },
            {
              "pitch": 44,
              "velocity": 108,
              "position": 7,
              "duration": 0.9854166666666667
            },
            {
              "pitch": 50,
              "velocity": 108,
              "position": 7,
              "duration": 0.9854166666666667
            },
            {
              "pitch": 77,
              "velocity": 108,
              "position": 7,
              "duration": 0.9854166666666667
            },
            {
              "pitch": 43,
              "velocity": 108,
              "position": 8,
              "duration": 0.9854166666666667
            },
            {
              "pitch": 48,
              "velocity": 108,
              "position": 7,
              "duration": 1.9854166666666666
            },
            {
              "pitch": 52,
              "velocity": 108,
              "position": 8,
              "duration": 0.9854166666666667
            },
            {
              "pitch": 76,
              "velocity": 108,
              "position": 8,
              "duration": 0.9854166666666667
            },
            {
              "pitch": 44,
              "velocity": 108,
              "position": 9,
              "duration": 0.9854166666666667
            },
            {
              "pitch": 53,
              "velocity": 108,
              "position": 9,
              "duration": 0.9854166666666667
            },
            {
              "pitch": 74,
              "velocity": 108,
              "position": 9,
              "duration": 0.9854166666666667
            },
            {
              "pitch": 45,
              "velocity": 108,
              "position": 10,
              "duration": 0.9854166666666667
            },
            {
              "pitch": 72,
              "velocity": 108,
              "position": 10,
              "duration": 0.9854166666666667
            },
            {
              "pitch": 46,
              "velocity": 108,
              "position": 11,
              "duration": 0.9854166666666667
            },
            {
              "pitch": 50,
              "velocity": 108,
              "position": 9,
              "duration": 2.9854166666666666
            },
            {
              "pitch": 69,
              "velocity": 108,
              "position": 11,
              "duration": 0.9854166666666667
            },
            {
              "pitch": 52,
              "velocity": 108,
              "position": 10,
              "duration": 5.985416666666667
            },
            {
              "pitch": 67,
              "velocity": 108,
              "position": 12,
              "duration": 3.9854166666666666
            },
            {
              "pitch": 45,
              "velocity": 108,
              "position": 12,
              "duration": 7.985416666666667
            },
            {
              "pitch": 48,
              "velocity": 108,
              "position": 12,
              "duration": 7.985416666666667
            },
            {
              "pitch": 53,
              "velocity": 108,
              "position": 16,
              "duration": 3.9854166666666666
            },
            {
              "pitch": 72,
              "velocity": 108,
              "position": 16,
              "duration": 3.995833333333333
            },
            {
              "pitch": 60,
              "velocity": 108,
              "position": 20.010416666666668,
              "duration": 3.9541666666666666
            },
            {
              "pitch": 72,
              "velocity": 108,
              "position": 20.010416666666668,
              "duration": 3.9541666666666666
            },
            {
              "pitch": 84,
              "velocity": 108,
              "position": 24,
              "duration": 2.9854166666666666
            },
            {
              "pitch": 72,
              "velocity": 108,
              "position": 24,
              "duration": 3.5166666666666666
            },
            {
              "pitch": 77,
              "velocity": 108,
              "position": 27,
              "duration": 0.5166666666666667
            },
            {
              "pitch": 81,
              "velocity": 108,
              "position": 27,
              "duration": 0.5166666666666667
            },
            {
              "pitch": 71,
              "velocity": 108,
              "position": 27.489583333333332,
              "duration": 0.07916666666666666
            },
            {
              "pitch": 69,
              "velocity": 108,
              "position": 27.520833333333332,
              "duration": 0.08958333333333333
            },
            {
              "pitch": 67,
              "velocity": 108,
              "position": 27.552083333333332,
              "duration": 0.07916666666666666
            },
            {
              "pitch": 65,
              "velocity": 108,
              "position": 27.583333333333332,
              "duration": 0.08958333333333333
            },
            {
              "pitch": 64,
              "velocity": 108,
              "position": 27.625,
              "duration": 0.07916666666666666
            },
            {
              "pitch": 62,
              "velocity": 108,
              "position": 27.65625,
              "duration": 0.07916666666666666
            },
            {
              "pitch": 60,
              "velocity": 108,
              "position": 27.6875,
              "duration": 0.07916666666666666
            },
            {
              "pitch": 59,
              "velocity": 108,
              "position": 27.71875,
              "duration": 0.08958333333333333
            },
            {
              "pitch": 57,
              "velocity": 108,
              "position": 27.760416666666668,
              "duration": 0.07916666666666666
            },
            {
              "pitch": 53,
              "velocity": 108,
              "position": 27.791666666666668,
              "duration": 0.07916666666666666
            },
            {
              "pitch": 52,
              "velocity": 108,
              "position": 27.8125,
              "duration": 0.1
            },
            {
              "pitch": 50,
              "velocity": 108,
              "position": 27.885416666666668,
              "duration": 0.08958333333333333
            },
            {
              "pitch": 48,
              "velocity": 108,
              "position": 27.916666666666668,
              "duration": 0.06875
            }
          ]
        },
        "15": {
          "ctab": {
            "srcChannel": 15,
            "name": "Cho",
            "accType": "PHRASE1",
            "editable": false,
            "mutedNotes": [],
            "mutedChords": [
              "dim7",
              "dim",
              "minMaj7(9)",
              "minMaj7",
              "min7(11)",
              "min7(9)",
              "min(9)",
              "m7b5",
              "min7",
              "min6",
              "min"
            ],
            "autoStart": false,
            "sourceChordNote": 0,
            "sourceChordType": "Maj",
            "ctb2Low": null,
            "ctb2Main": {
              "ntr": "ROOT_TRANSPOSITION",
              "ntt": "BYPASS",
              "bassOn": false,
              "chordRootUpperLimit": 6,
              "noteLowLimit": 36,
              "noteHighLimit": 127,
              "rtr": "PITCH_SHIFT"
            },
            "ctb2High": null
          },
          "notes": [
            {
              "pitch": 35,
              "velocity": 50,
              "position": 0.010416666666666666,
              "duration": 1.9854166666666666
            },
            {
              "pitch": 57,
              "velocity": 50,
              "position": 0.03125,
              "duration": 1.9854166666666666
            },
            {
              "pitch": 62,
              "velocity": 50,
              "position": 0.03125,
              "duration": 1.9854166666666666
            },
            {
              "pitch": 67,
              "velocity": 50,
              "position": 0.03125,
              "duration": 1.9854166666666666
            },
            {
              "pitch": 34,
              "velocity": 50,
              "position": 2,
              "duration": 0.9854166666666667
            },
            {
              "pitch": 56,
              "velocity": 50,
              "position": 2,
              "duration": 0.9854166666666667
            },
            {
              "pitch": 60,
              "velocity": 50,
              "position": 2,
              "duration": 0.9854166666666667
            },
            {
              "pitch": 64,
              "velocity": 50,
              "position": 2,
              "duration": 0.9854166666666667
            },
            {
              "pitch": 33,
              "velocity": 50,
              "position": 3,
              "duration": 0.9854166666666667
            },
            {
              "pitch": 61,
              "velocity": 50,
              "position": 3,
              "duration": 0.9854166666666667
            },
            {
              "pitch": 63,
              "velocity": 50,
              "position": 3,
              "duration": 0.9854166666666667
            },
            {
              "pitch": 67,
              "velocity": 50,
              "position": 3,
              "duration": 0.9854166666666667
            },
            {
              "pitch": 30,
              "velocity": 50,
              "position": 4,
              "duration": 0.9854166666666667
            },
            {
              "pitch": 64,
              "velocity": 50,
              "position": 4,
              "duration": 0.9854166666666667
            },
            {
              "pitch": 69,
              "velocity": 50,
              "position": 4,
              "duration": 0.9854166666666667
            },
            {
              "pitch": 57,
              "velocity": 50,
              "position": 3,
              "duration": 2.9854166666666666
            },
            {
              "pitch": 31,
              "velocity": 50,
              "position": 5,
              "duration": 1.4854166666666666
            },
            {
              "pitch": 56,
              "velocity": 50,
              "position": 6,
              "duration": 0.48541666666666666
            },
            {
              "pitch": 65,
              "velocity": 50,
              "position": 5,
              "duration": 1.4854166666666666
            },
            {
              "pitch": 72,
              "velocity": 50,
              "position": 5,
              "duration": 1.4854166666666666
            },
            {
              "pitch": 60,
              "velocity": 50,
              "position": 4,
              "duration": 2.495833333333333
            },
            {
              "pitch": 44,
              "velocity": 50,
              "position": 7,
              "duration": 0.9854166666666667
            },
            {
              "pitch": 62,
              "velocity": 50,
              "position": 7,
              "duration": 0.9854166666666667
            },
            {
              "pitch": 68,
              "velocity": 50,
              "position": 7,
              "duration": 0.9854166666666667
            },
            {
              "pitch": 77,
              "velocity": 50,
              "position": 7,
              "duration": 0.9854166666666667
            },
            {
              "pitch": 43,
              "velocity": 50,
              "position": 8,
              "duration": 0.9854166666666667
            },
            {
              "pitch": 64,
              "velocity": 50,
              "position": 8,
              "duration": 0.9854166666666667
            },
            {
              "pitch": 67,
              "velocity": 50,
              "position": 8,
              "duration": 0.9854166666666667
            },
            {
              "pitch": 72,
              "velocity": 50,
              "position": 7,
              "duration": 1.9854166666666666
            },
            {
              "pitch": 76,
              "velocity": 50,
              "position": 8,
              "duration": 0.9854166666666667
            },
            {
              "pitch": 41,
              "velocity": 50,
              "position": 9,
              "duration": 0.9854166666666667
            },
            {
              "pitch": 65,
              "velocity": 50,
              "position": 9,
              "duration": 0.9854166666666667
            },
            {
              "pitch": 68,
              "velocity": 50,
              "position": 9,
              "duration": 0.9854166666666667
            },
            {
              "pitch": 74,
              "velocity": 50,
              "position": 9,
              "duration": 0.9854166666666667
            },
            {
              "pitch": 40,
              "velocity": 50,
              "position": 10,
              "duration": 0.9854166666666667
            },
            {
              "pitch": 69,
              "velocity": 50,
              "position": 10,
              "duration": 0.9854166666666667
            },
            {
              "pitch": 72,
              "velocity": 50,
              "position": 10,
              "duration": 0.9854166666666667
            },
            {
              "pitch": 36,
              "velocity": 50,
              "position": 11,
              "duration": 0.9854166666666667
            },
            {
              "pitch": 62,
              "velocity": 50,
              "position": 9,
              "duration": 2.9854166666666666
            },
            {
              "pitch": 58,
              "velocity": 50,
              "position": 11,
              "duration": 0.9854166666666667
            },
            {
              "pitch": 69,
              "velocity": 50,
              "position": 11,
              "duration": 0.9854166666666667
            },
            {
              "pitch": 29,
              "velocity": 50,
              "position": 12,
              "duration": 3.9854166666666666
            },
            {
              "pitch": 64,
              "velocity": 50,
              "position": 10,
              "duration": 5.985416666666667
            },
            {
              "pitch": 67,
              "velocity": 50,
              "position": 12,
              "duration": 3.9854166666666666
            },
            {
              "pitch": 31,
              "velocity": 50,
              "position": 16,
              "duration": 3.9854166666666666
            },
            {
              "pitch": 57,
              "velocity": 50,
              "position": 12,
              "duration": 7.985416666666667
            },
            {
              "pitch": 65,
              "velocity": 50,
              "position": 16,
              "duration": 3.9854166666666666
            },
            {
              "pitch": 60,
              "velocity": 50,
              "position": 12,
              "duration": 11.985416666666667
            },
            {
              "pitch": 36,
              "velocity": 50,
              "position": 20,
              "duration": 4.985416666666667
            },
            {
              "pitch": 55,
              "velocity": 50,
              "position": 20,
              "duration": 4.985416666666667
            },
            {
              "pitch": 64,
              "velocity": 50,
              "position": 20,
              "duration": 4.985416666666667
            },
            {
              "pitch": 72,
              "velocity": 50,
              "position": 16,
              "duration": 8.985416666666667
            }
          ]
        }
      }
    },
    "Intro_C": {
      "type": "Intro_C",
      "sizeInBeats": 32,
      "channels": {
        "1": {
          "ctab": {
            "srcChannel": 1,
            "name": "Bass",
            "accType": "BASS",
            "editable": false,
            "mutedNotes": [],
            "mutedChords": [
              "1+2+5",
              "sus4",
              "1+5",
              "1+8",
              "7aug",
              "Maj7aug",
              "7(#9)",
              "7(b13)",
              "7(b9)",
              "7(13)",
              "7#11",
              "7(9)",
              "7b5",
              "7sus4",
              "7th",
              "aug",
              "Maj6(9)",
              "Maj7(9)",
              "Maj(9)",
              "Maj7#11",
              "Maj7",
              "Maj6",
              "Maj"
            ],
            "autoStart": false,
            "sourceChordNote": 0,
            "sourceChordType": "Maj",
            "ctb2Low": null,
            "ctb2Main": {
              "ntr": "ROOT_TRANSPOSITION",
              "ntt": "BYPASS",
              "bassOn": false,
              "chordRootUpperLimit": 8,
              "noteLowLimit": 28,
              "noteHighLimit": 127,
              "rtr": "PITCH_SHIFT"
            },
            "ctb2High": null
          },
          "notes": [
            {
              "pitch": 36,
              "velocity": 74,
              "position": 14.333333333333334,
              "duration": 0.2875
            },
            {
              "pitch": 36,
              "velocity": 74,
              "position": 15,
              "duration": 0.2875
            },
            {
              "pitch": 36,
              "velocity": 62,
              "position": 15.666666666666666,
              "duration": 1.2875
            },
            {
              "pitch": 29,
              "velocity": 74,
              "position": 17,
              "duration": 0.9541666666666667
            },
            {
              "pitch": 27,
              "velocity": 74,
              "position": 18,
              "duration": 0.6208333333333333
            },
            {
              "pitch": 27,
              "velocity": 60,
              "position": 18.666666666666668,
              "duration": 0.31875
            },
            {
              "pitch": 26,
              "velocity": 74,
              "position": 19,
              "duration": 0.9541666666666667
            },
            {
              "pitch": 24,
              "velocity": 74,
              "position": 20,
              "duration": 0.6208333333333333
            },
            {
              "pitch": 24,
              "velocity": 60,
              "position": 20.666666666666668,
              "duration": 0.1625
            },
            {
              "pitch": 34,
              "velocity": 74,
              "position": 21,
              "duration": 0.9541666666666667
            },
            {
              "pitch": 33,
              "velocity": 74,
              "position": 22,
              "duration": 0.6208333333333333
            },
            {
              "pitch": 33,
              "velocity": 110,
              "position": 22.666666666666668,
              "duration": 0.10416666666666667
            },
            {
              "pitch": 32,
              "velocity": 74,
              "position": 23,
              "duration": 0.6208333333333333
            },
            {
              "pitch": 32,
              "velocity": 100,
              "position": 23.666666666666668,
              "duration": 0.10416666666666667
            },
            {
              "pitch": 31,
              "velocity": 74,
              "position": 24,
              "duration": 1.2875
            },
            {
              "pitch": 38,
              "velocity": 60,
              "position": 25.333333333333332,
              "duration": 0.13125
            },
            {
              "pitch": 38,
              "velocity": 60,
              "position": 25.666666666666668,
              "duration": 0.13125
            },
            {
              "pitch": 38,
              "velocity": 74,
              "position": 26,
              "duration": 0.6208333333333333
            },
            {
              "pitch": 36,
              "velocity": 74,
              "position": 26.666666666666668,
              "duration": 0.6208333333333333
            },
            {
              "pitch": 31,
              "velocity": 74,
              "position": 27.333333333333332,
              "duration": 0.6208333333333333
            },
            {
              "pitch": 31,
              "velocity": 74,
              "position": 28,
              "duration": 0.40208333333333335
            },
            {
              "pitch": 31,
              "velocity": 74,
              "position": 28.666666666666668,
              "duration": 0.40208333333333335
            },
            {
              "pitch": 31,
              "velocity": 74,
              "position": 29.333333333333332,
              "duration": 0.40208333333333335
            },
            {
              "pitch": 31,
              "velocity": 74,
              "position": 30,
              "duration": 0.40208333333333335
            }
          ]
        },
        "2": {
          "ctab": {
            "srcChannel": 2,
            "name": "Gt",
            "accType": "CHORD1",
            "editable": false,
            "mutedNotes": [],
            "mutedChords": [
              "1+2+5",
              "sus4",
              "1+5",
              "1+8",
              "7aug",
              "Maj7aug",
              "7(#9)",
              "7(b13)",
              "7(b9)",
              "7(13)",
              "7#11",
              "7(9)",
              "7b5",
              "7sus4",
              "7th",
              "aug",
              "Maj6(9)",
              "Maj7(9)",
              "Maj(9)",
              "Maj7#11",
              "Maj7",
              "Maj6",
              "Maj"
            ],
            "autoStart": false,
            "sourceChordNote": 0,
            "sourceChordType": "Maj",
            "ctb2Low": null,
            "ctb2Main": {
              "ntr": "ROOT_TRANSPOSITION",
              "ntt": "BYPASS",
              "bassOn": false,
              "chordRootUpperLimit": 11,
              "noteLowLimit": 54,
              "noteHighLimit": 127,
              "rtr": "PITCH_SHIFT"
            },
            "ctb2High": null
          },
          "notes": [
            {
              "pitch": 46,
              "velocity": 116,
              "position": 14.34375,
              "duration": 0.26666666666666666
            },
            {
              "pitch": 53,
              "velocity": 116,
              "position": 14.354166666666666,
              "duration": 0.26666666666666666
            },
            {
              "pitch": 47,
              "velocity": 116,
              "position": 15.010416666666666,
              "duration": 0.26666666666666666
            },
            {
              "pitch": 53,
              "velocity": 116,
              "position": 15.020833333333334,
              "duration": 0.26666666666666666
            },
            {
              "pitch": 43,
              "velocity": 116,
              "position": 15.666666666666666,
              "duration": 0.6520833333333333
            },
            {
              "pitch": 48,
              "velocity": 116,
              "position": 15.677083333333334,
              "duration": 0.6416666666666667
            },
            {
              "pitch": 51,
              "velocity": 116,
              "position": 15.6875,
              "duration": 0.63125
            },
            {
              "pitch": 43,
              "velocity": 98,
              "position": 16.333333333333332,
              "duration": 0.027083333333333334
            },
            {
              "pitch": 48,
              "velocity": 98,
              "position": 16.34375,
              "duration": 0.027083333333333334
            },
            {
              "pitch": 51,
              "velocity": 98,
              "position": 16.354166666666668,
              "duration": 0.027083333333333334
            },
            {
              "pitch": 43,
              "velocity": 80,
              "position": 16.666666666666668,
              "duration": 0.027083333333333334
            },
            {
              "pitch": 48,
              "velocity": 80,
              "position": 16.677083333333332,
              "duration": 0.027083333333333334
            },
            {
              "pitch": 45,
              "velocity": 116,
              "position": 17,
              "duration": 0.6520833333333333
            },
            {
              "pitch": 48,
              "velocity": 116,
              "position": 17.010416666666668,
              "duration": 0.6416666666666667
            },
            {
              "pitch": 53,
              "velocity": 116,
              "position": 17.020833333333332,
              "duration": 0.63125
            },
            {
              "pitch": 45,
              "velocity": 64,
              "position": 17.666666666666668,
              "duration": 0.31875
            },
            {
              "pitch": 48,
              "velocity": 64,
              "position": 17.677083333333332,
              "duration": 0.30833333333333335
            },
            {
              "pitch": 53,
              "velocity": 64,
              "position": 17.6875,
              "duration": 0.29791666666666666
            },
            {
              "pitch": 43,
              "velocity": 36,
              "position": 18,
              "duration": 0.6520833333333333
            },
            {
              "pitch": 48,
              "velocity": 36,
              "position": 18.010416666666668,
              "duration": 0.6416666666666667
            },
            {
              "pitch": 51,
              "velocity": 36,
              "position": 18.020833333333332,
              "duration": 0.63125
            },
            {
              "pitch": 43,
              "velocity": 116,
              "position": 18.666666666666668,
              "duration": 0.12083333333333333
            },
            {
              "pitch": 48,
              "velocity": 116,
              "position": 18.677083333333332,
              "duration": 0.12083333333333333
            },
            {
              "pitch": 51,
              "velocity": 116,
              "position": 18.6875,
              "duration": 0.12083333333333333
            },
            {
              "pitch": 43,
              "velocity": 98,
              "position": 20.333333333333332,
              "duration": 0.027083333333333334
            },
            {
              "pitch": 48,
              "velocity": 98,
              "position": 20.34375,
              "duration": 0.027083333333333334
            },
            {
              "pitch": 51,
              "velocity": 98,
              "position": 20.354166666666668,
              "duration": 0.027083333333333334
            },
            {
              "pitch": 43,
              "velocity": 80,
              "position": 20.666666666666668,
              "duration": 0.027083333333333334
            },
            {
              "pitch": 48,
              "velocity": 80,
              "position": 20.677083333333332,
              "duration": 0.027083333333333334
            },
            {
              "pitch": 43,
              "velocity": 116,
              "position": 21,
              "duration": 0.6520833333333333
            },
            {
              "pitch": 48,
              "velocity": 116,
              "position": 21.010416666666668,
              "duration": 0.6416666666666667
            },
            {
              "pitch": 51,
              "velocity": 116,
              "position": 21.020833333333332,
              "duration": 0.63125
            },
            {
              "pitch": 43,
              "velocity": 64,
              "position": 21.666666666666668,
              "duration": 0.31875
            },
            {
              "pitch": 48,
              "velocity": 64,
              "position": 21.677083333333332,
              "duration": 0.30833333333333335
            },
            {
              "pitch": 51,
              "velocity": 64,
              "position": 21.6875,
              "duration": 0.29791666666666666
            },
            {
              "pitch": 42,
              "velocity": 36,
              "position": 22,
              "duration": 0.6520833333333333
            },
            {
              "pitch": 48,
              "velocity": 36,
              "position": 22.010416666666668,
              "duration": 0.6416666666666667
            },
            {
              "pitch": 51,
              "velocity": 36,
              "position": 22.020833333333332,
              "duration": 0.63125
            },
            {
              "pitch": 42,
              "velocity": 116,
              "position": 22.666666666666668,
              "duration": 0.12083333333333333
            },
            {
              "pitch": 48,
              "velocity": 116,
              "position": 22.677083333333332,
              "duration": 0.12083333333333333
            },
            {
              "pitch": 51,
              "velocity": 116,
              "position": 22.6875,
              "duration": 0.12083333333333333
            },
            {
              "pitch": 55,
              "velocity": 98,
              "position": 24.333333333333332,
              "duration": 0.027083333333333334
            },
            {
              "pitch": 67,
              "velocity": 98,
              "position": 24.34375,
              "duration": 0.027083333333333334
            },
            {
              "pitch": 55,
              "velocity": 80,
              "position": 24.666666666666668,
              "duration": 0.027083333333333334
            },
            {
              "pitch": 67,
              "velocity": 80,
              "position": 24.677083333333332,
              "duration": 0.027083333333333334
            },
            {
              "pitch": 55,
              "velocity": 116,
              "position": 25,
              "duration": 0.30833333333333335
            },
            {
              "pitch": 67,
              "velocity": 116,
              "position": 25.010416666666668,
              "duration": 0.30833333333333335
            },
            {
              "pitch": 55,
              "velocity": 46,
              "position": 25.333333333333332,
              "duration": 0.30833333333333335
            },
            {
              "pitch": 67,
              "velocity": 46,
              "position": 25.34375,
              "duration": 0.30833333333333335
            },
            {
              "pitch": 55,
              "velocity": 98,
              "position": 25.666666666666668,
              "duration": 0.13125
            },
            {
              "pitch": 67,
              "velocity": 98,
              "position": 25.677083333333332,
              "duration": 0.13125
            },
            {
              "pitch": 55,
              "velocity": 80,
              "position": 26,
              "duration": 0.027083333333333334
            },
            {
              "pitch": 67,
              "velocity": 80,
              "position": 26.010416666666668,
              "duration": 0.027083333333333334
            },
            {
              "pitch": 55,
              "velocity": 116,
              "position": 26.333333333333332,
              "duration": 0.30833333333333335
            },
            {
              "pitch": 67,
              "velocity": 116,
              "position": 26.34375,
              "duration": 0.30833333333333335
            },
            {
              "pitch": 55,
              "velocity": 46,
              "position": 26.666666666666668,
              "duration": 0.30833333333333335
            },
            {
              "pitch": 67,
              "velocity": 46,
              "position": 26.677083333333332,
              "duration": 0.30833333333333335
            },
            {
              "pitch": 55,
              "velocity": 98,
              "position": 27,
              "duration": 0.31875
            },
            {
              "pitch": 67,
              "velocity": 98,
              "position": 27.010416666666668,
              "duration": 0.31875
            },
            {
              "pitch": 55,
              "velocity": 55,
              "position": 27.333333333333332,
              "duration": 0.31875
            },
            {
              "pitch": 67,
              "velocity": 55,
              "position": 27.34375,
              "duration": 0.31875
            },
            {
              "pitch": 55,
              "velocity": 98,
              "position": 27.666666666666668,
              "duration": 0.13125
            },
            {
              "pitch": 67,
              "velocity": 98,
              "position": 27.677083333333332,
              "duration": 0.13125
            },
            {
              "pitch": 55,
              "velocity": 116,
              "position": 28,
              "duration": 0.30833333333333335
            },
            {
              "pitch": 67,
              "velocity": 116,
              "position": 28.010416666666668,
              "duration": 0.30833333333333335
            },
            {
              "pitch": 55,
              "velocity": 98,
              "position": 28.666666666666668,
              "duration": 0.31875
            },
            {
              "pitch": 67,
              "velocity": 98,
              "position": 28.677083333333332,
              "duration": 0.31875
            },
            {
              "pitch": 55,
              "velocity": 98,
              "position": 29.333333333333332,
              "duration": 0.31875
            },
            {
              "pitch": 67,
              "velocity": 98,
              "position": 29.34375,
              "duration": 0.31875
            },
            {
              "pitch": 55,
              "velocity": 116,
              "position": 30,
              "duration": 0.30833333333333335
            },
            {
              "pitch": 67,
              "velocity": 116,
              "position": 30.010416666666668,
              "duration": 0.30833333333333335
            }
          ]
        },
        "3": {
          "ctab": {
            "srcChannel": 3,
            "name": "Pno",
            "accType": "CHORD2",
            "editable": false,
            "mutedNotes": [],
            "mutedChords": [
              "1+2+5",
              "sus4",
              "1+5",
              "1+8",
              "7aug",
              "Maj7aug",
              "7(#9)",
              "7(b13)",
              "7(b9)",
              "7(13)",
              "7#11",
              "7(9)",
              "7b5",
              "7sus4",
              "7th",
              "aug",
              "Maj6(9)",
              "Maj7(9)",
              "Maj(9)",
              "Maj7#11",
              "Maj7",
              "Maj6",
              "Maj"
            ],
            "autoStart": false,
            "sourceChordNote": 0,
            "sourceChordType": "Maj",
            "ctb2Low": null,
            "ctb2Main": {
              "ntr": "ROOT_TRANSPOSITION",
              "ntt": "BYPASS",
              "bassOn": false,
              "chordRootUpperLimit": 8,
              "noteLowLimit": 36,
              "noteHighLimit": 79,
              "rtr": "PITCH_SHIFT"
            },
            "ctb2High": null
          },
          "notes": [
            {
              "pitch": 63,
              "velocity": 116,
              "position": 0.6666666666666666,
              "duration": 0.15208333333333332
            },
            {
              "pitch": 60,
              "velocity": 116,
              "position": 0.6666666666666666,
              "duration": 0.31875
            },
            {
              "pitch": 67,
              "velocity": 116,
              "position": 0.6666666666666666,
              "duration": 0.31875
            },
            {
              "pitch": 72,
              "velocity": 116,
              "position": 0.6666666666666666,
              "duration": 0.31875
            },
            {
              "pitch": 60,
              "velocity": 116,
              "position": 1.3333333333333333,
              "duration": 0.31875
            },
            {
              "pitch": 65,
              "velocity": 116,
              "position": 1.3333333333333333,
              "duration": 0.31875
            },
            {
              "pitch": 69,
              "velocity": 116,
              "position": 1.3333333333333333,
              "duration": 0.31875
            },
            {
              "pitch": 72,
              "velocity": 116,
              "position": 1.3333333333333333,
              "duration": 0.31875
            },
            {
              "pitch": 63,
              "velocity": 116,
              "position": 2,
              "duration": 0.48541666666666666
            },
            {
              "pitch": 60,
              "velocity": 116,
              "position": 2,
              "duration": 0.6520833333333333
            },
            {
              "pitch": 67,
              "velocity": 116,
              "position": 2,
              "duration": 0.6520833333333333
            },
            {
              "pitch": 72,
              "velocity": 116,
              "position": 2,
              "duration": 0.6520833333333333
            },
            {
              "pitch": 55,
              "velocity": 98,
              "position": 3,
              "duration": 0.31875
            },
            {
              "pitch": 58,
              "velocity": 80,
              "position": 3.3333333333333335,
              "duration": 0.31875
            },
            {
              "pitch": 54,
              "velocity": 98,
              "position": 3.6666666666666665,
              "duration": 0.31875
            },
            {
              "pitch": 60,
              "velocity": 116,
              "position": 3.6666666666666665,
              "duration": 0.31875
            },
            {
              "pitch": 63,
              "velocity": 116,
              "position": 4.333333333333333,
              "duration": 0.20416666666666666
            },
            {
              "pitch": 54,
              "velocity": 116,
              "position": 4.333333333333333,
              "duration": 0.31875
            },
            {
              "pitch": 62,
              "velocity": 71,
              "position": 4.541666666666667,
              "duration": 0.1625
            },
            {
              "pitch": 54,
              "velocity": 116,
              "position": 5,
              "duration": 0.6520833333333333
            },
            {
              "pitch": 60,
              "velocity": 116,
              "position": 5,
              "duration": 0.6520833333333333
            },
            {
              "pitch": 53,
              "velocity": 116,
              "position": 6,
              "duration": 0.6520833333333333
            },
            {
              "pitch": 57,
              "velocity": 116,
              "position": 6,
              "duration": 0.6520833333333333
            },
            {
              "pitch": 60,
              "velocity": 116,
              "position": 6,
              "duration": 0.6520833333333333
            },
            {
              "pitch": 67,
              "velocity": 116,
              "position": 7,
              "duration": 0.31875
            },
            {
              "pitch": 79,
              "velocity": 116,
              "position": 7,
              "duration": 0.31875
            },
            {
              "pitch": 70,
              "velocity": 116,
              "position": 7.333333333333333,
              "duration": 0.31875
            },
            {
              "pitch": 82,
              "velocity": 116,
              "position": 7.333333333333333,
              "duration": 0.31875
            },
            {
              "pitch": 72,
              "velocity": 116,
              "position": 7.666666666666667,
              "duration": 0.6520833333333333
            },
            {
              "pitch": 84,
              "velocity": 116,
              "position": 7.666666666666667,
              "duration": 0.6520833333333333
            },
            {
              "pitch": 63,
              "velocity": 116,
              "position": 8.666666666666666,
              "duration": 0.15208333333333332
            },
            {
              "pitch": 60,
              "velocity": 116,
              "position": 8.666666666666666,
              "duration": 0.31875
            },
            {
              "pitch": 67,
              "velocity": 116,
              "position": 8.666666666666666,
              "duration": 0.31875
            },
            {
              "pitch": 72,
              "velocity": 116,
              "position": 8.666666666666666,
              "duration": 0.31875
            },
            {
              "pitch": 60,
              "velocity": 116,
              "position": 9.333333333333334,
              "duration": 0.31875
            },
            {
              "pitch": 65,
              "velocity": 116,
              "position": 9.333333333333334,
              "duration": 0.31875
            },
            {
              "pitch": 69,
              "velocity": 116,
              "position": 9.333333333333334,
              "duration": 0.31875
            },
            {
              "pitch": 72,
              "velocity": 116,
              "position": 9.333333333333334,
              "duration": 0.31875
            },
            {
              "pitch": 63,
              "velocity": 116,
              "position": 10,
              "duration": 0.48541666666666666
            },
            {
              "pitch": 60,
              "velocity": 116,
              "position": 10,
              "duration": 0.6520833333333333
            },
            {
              "pitch": 67,
              "velocity": 116,
              "position": 10,
              "duration": 0.6520833333333333
            },
            {
              "pitch": 72,
              "velocity": 116,
              "position": 10,
              "duration": 0.6520833333333333
            },
            {
              "pitch": 55,
              "velocity": 116,
              "position": 11,
              "duration": 0.6520833333333333
            },
            {
              "pitch": 60,
              "velocity": 116,
              "position": 11,
              "duration": 0.6520833333333333
            },
            {
              "pitch": 63,
              "velocity": 116,
              "position": 11,
              "duration": 0.6520833333333333
            },
            {
              "pitch": 67,
              "velocity": 116,
              "position": 11,
              "duration": 0.6520833333333333
            },
            {
              "pitch": 54,
              "velocity": 116,
              "position": 12.333333333333334,
              "duration": 0.31875
            },
            {
              "pitch": 60,
              "velocity": 116,
              "position": 12.333333333333334,
              "duration": 0.31875
            },
            {
              "pitch": 63,
              "velocity": 116,
              "position": 12.333333333333334,
              "duration": 0.31875
            },
            {
              "pitch": 54,
              "velocity": 116,
              "position": 13,
              "duration": 0.31875
            },
            {
              "pitch": 60,
              "velocity": 116,
              "position": 13,
              "duration": 0.31875
            },
            {
              "pitch": 63,
              "velocity": 116,
              "position": 13,
              "duration": 0.31875
            },
            {
              "pitch": 53,
              "velocity": 116,
              "position": 13.666666666666666,
              "duration": 0.31875
            },
            {
              "pitch": 57,
              "velocity": 116,
              "position": 13.666666666666666,
              "duration": 0.31875
            },
            {
              "pitch": 60,
              "velocity": 116,
              "position": 13.666666666666666,
              "duration": 0.31875
            },
            {
              "pitch": 70,
              "velocity": 116,
              "position": 14.333333333333334,
              "duration": 0.31875
            },
            {
              "pitch": 82,
              "velocity": 116,
              "position": 14.333333333333334,
              "duration": 0.31875
            },
            {
              "pitch": 71,
              "velocity": 116,
              "position": 15,
              "duration": 0.31875
            },
            {
              "pitch": 83,
              "velocity": 116,
              "position": 15,
              "duration": 0.31875
            },
            {
              "pitch": 72,
              "velocity": 116,
              "position": 15.666666666666666,
              "duration": 0.9854166666666667
            },
            {
              "pitch": 75,
              "velocity": 116,
              "position": 15.666666666666666,
              "duration": 0.9854166666666667
            },
            {
              "pitch": 79,
              "velocity": 116,
              "position": 15.666666666666666,
              "duration": 0.9854166666666667
            },
            {
              "pitch": 84,
              "velocity": 116,
              "position": 15.666666666666666,
              "duration": 0.9854166666666667
            },
            {
              "pitch": 63,
              "velocity": 116,
              "position": 16.666666666666668,
              "duration": 0.15208333333333332
            },
            {
              "pitch": 55,
              "velocity": 116,
              "position": 16.666666666666668,
              "duration": 0.31875
            },
            {
              "pitch": 60,
              "velocity": 116,
              "position": 16.666666666666668,
              "duration": 0.31875
            },
            {
              "pitch": 67,
              "velocity": 116,
              "position": 16.666666666666668,
              "duration": 0.31875
            },
            {
              "pitch": 57,
              "velocity": 116,
              "position": 17.333333333333332,
              "duration": 0.31875
            },
            {
              "pitch": 60,
              "velocity": 116,
              "position": 17.333333333333332,
              "duration": 0.31875
            },
            {
              "pitch": 65,
              "velocity": 116,
              "position": 17.333333333333332,
              "duration": 0.31875
            },
            {
              "pitch": 69,
              "velocity": 116,
              "position": 17.333333333333332,
              "duration": 0.31875
            },
            {
              "pitch": 55,
              "velocity": 116,
              "position": 18,
              "duration": 0.7875
            },
            {
              "pitch": 60,
              "velocity": 116,
              "position": 18,
              "duration": 0.7875
            },
            {
              "pitch": 63,
              "velocity": 116,
              "position": 18,
              "duration": 0.7875
            },
            {
              "pitch": 67,
              "velocity": 116,
              "position": 18,
              "duration": 0.7875
            },
            {
              "pitch": 53,
              "velocity": 116,
              "position": 19,
              "duration": 0.7875
            },
            {
              "pitch": 57,
              "velocity": 116,
              "position": 19,
              "duration": 0.7875
            },
            {
              "pitch": 60,
              "velocity": 116,
              "position": 19,
              "duration": 0.7875
            },
            {
              "pitch": 65,
              "velocity": 116,
              "position": 19,
              "duration": 0.7875
            },
            {
              "pitch": 51,
              "velocity": 116,
              "position": 20,
              "duration": 0.7875
            },
            {
              "pitch": 55,
              "velocity": 116,
              "position": 20,
              "duration": 0.7875
            },
            {
              "pitch": 60,
              "velocity": 116,
              "position": 20,
              "duration": 0.7875
            },
            {
              "pitch": 63,
              "velocity": 116,
              "position": 20,
              "duration": 0.81875
            },
            {
              "pitch": 63,
              "velocity": 116,
              "position": 21,
              "duration": 0.15208333333333332
            },
            {
              "pitch": 62,
              "velocity": 80,
              "position": 21.166666666666668,
              "duration": 0.48541666666666666
            },
            {
              "pitch": 53,
              "velocity": 116,
              "position": 21,
              "duration": 0.7875
            },
            {
              "pitch": 58,
              "velocity": 116,
              "position": 21,
              "duration": 0.7875
            },
            {
              "pitch": 54,
              "velocity": 116,
              "position": 22,
              "duration": 0.7875
            },
            {
              "pitch": 60,
              "velocity": 116,
              "position": 22,
              "duration": 0.7875
            },
            {
              "pitch": 63,
              "velocity": 116,
              "position": 22,
              "duration": 0.7875
            },
            {
              "pitch": 72,
              "velocity": 116,
              "position": 22.666666666666668,
              "duration": 0.45416666666666666
            },
            {
              "pitch": 74,
              "velocity": 116,
              "position": 22.666666666666668,
              "duration": 0.45416666666666666
            },
            {
              "pitch": 78,
              "velocity": 116,
              "position": 22.666666666666668,
              "duration": 0.45416666666666666
            },
            {
              "pitch": 84,
              "velocity": 116,
              "position": 22.666666666666668,
              "duration": 0.45416666666666666
            },
            {
              "pitch": 72,
              "velocity": 116,
              "position": 23.333333333333332,
              "duration": 0.45416666666666666
            },
            {
              "pitch": 74,
              "velocity": 116,
              "position": 23.333333333333332,
              "duration": 0.45416666666666666
            },
            {
              "pitch": 78,
              "velocity": 116,
              "position": 23.333333333333332,
              "duration": 0.45416666666666666
            },
            {
              "pitch": 84,
              "velocity": 116,
              "position": 23.333333333333332,
              "duration": 0.45416666666666666
            },
            {
              "pitch": 72,
              "velocity": 116,
              "position": 24,
              "duration": 1.1208333333333333
            },
            {
              "pitch": 75,
              "velocity": 116,
              "position": 24,
              "duration": 1.1208333333333333
            },
            {
              "pitch": 79,
              "velocity": 116,
              "position": 24,
              "duration": 1.1208333333333333
            },
            {
              "pitch": 84,
              "velocity": 116,
              "position": 24,
              "duration": 1.1208333333333333
            },
            {
              "pitch": 60,
              "velocity": 94,
              "position": 25.333333333333332,
              "duration": 0.1625
            },
            {
              "pitch": 72,
              "velocity": 94,
              "position": 25.333333333333332,
              "duration": 0.1625
            },
            {
              "pitch": 62,
              "velocity": 89,
              "position": 25.666666666666668,
              "duration": 0.1625
            },
            {
              "pitch": 74,
              "velocity": 89,
              "position": 25.666666666666668,
              "duration": 0.1625
            },
            {
              "pitch": 63,
              "velocity": 116,
              "position": 26,
              "duration": 0.5270833333333333
            },
            {
              "pitch": 67,
              "velocity": 116,
              "position": 26,
              "duration": 0.5270833333333333
            },
            {
              "pitch": 72,
              "velocity": 116,
              "position": 26,
              "duration": 0.5270833333333333
            },
            {
              "pitch": 75,
              "velocity": 116,
              "position": 26,
              "duration": 0.5270833333333333
            },
            {
              "pitch": 65,
              "velocity": 116,
              "position": 26.666666666666668,
              "duration": 0.5270833333333333
            },
            {
              "pitch": 69,
              "velocity": 116,
              "position": 26.666666666666668,
              "duration": 0.5270833333333333
            },
            {
              "pitch": 72,
              "velocity": 116,
              "position": 26.666666666666668,
              "duration": 0.5270833333333333
            },
            {
              "pitch": 77,
              "velocity": 116,
              "position": 26.666666666666668,
              "duration": 0.5270833333333333
            },
            {
              "pitch": 67,
              "velocity": 116,
              "position": 27.333333333333332,
              "duration": 0.5270833333333333
            },
            {
              "pitch": 72,
              "velocity": 116,
              "position": 27.333333333333332,
              "duration": 0.5270833333333333
            },
            {
              "pitch": 75,
              "velocity": 116,
              "position": 27.333333333333332,
              "duration": 0.5270833333333333
            },
            {
              "pitch": 79,
              "velocity": 116,
              "position": 27.333333333333332,
              "duration": 0.5270833333333333
            },
            {
              "pitch": 67,
              "velocity": 116,
              "position": 28,
              "duration": 0.33958333333333335
            },
            {
              "pitch": 69,
              "velocity": 116,
              "position": 28,
              "duration": 0.33958333333333335
            },
            {
              "pitch": 72,
              "velocity": 116,
              "position": 28,
              "duration": 0.33958333333333335
            },
            {
              "pitch": 77,
              "velocity": 116,
              "position": 28,
              "duration": 0.33958333333333335
            },
            {
              "pitch": 79,
              "velocity": 116,
              "position": 28,
              "duration": 0.33958333333333335
            },
            {
              "pitch": 67,
              "velocity": 116,
              "position": 28.666666666666668,
              "duration": 0.33958333333333335
            },
            {
              "pitch": 69,
              "velocity": 116,
              "position": 28.666666666666668,
              "duration": 0.33958333333333335
            },
            {
              "pitch": 72,
              "velocity": 116,
              "position": 28.666666666666668,
              "duration": 0.33958333333333335
            },
            {
              "pitch": 77,
              "velocity": 116,
              "position": 28.666666666666668,
              "duration": 0.33958333333333335
            },
            {
              "pitch": 79,
              "velocity": 116,
              "position": 28.666666666666668,
              "duration": 0.33958333333333335
            },
            {
              "pitch": 67,
              "velocity": 116,
              "position": 29.333333333333332,
              "duration": 0.33958333333333335
            },
            {
              "pitch": 69,
              "velocity": 116,
              "position": 29.333333333333332,
              "duration": 0.33958333333333335
            },
            {
              "pitch": 72,
              "velocity": 116,
              "position": 29.333333333333332,
              "duration": 0.33958333333333335
            },
            {
              "pitch": 77,
              "velocity": 116,
              "position": 29.333333333333332,
              "duration": 0.33958333333333335
            },
            {
              "pitch": 79,
              "velocity": 116,
              "position": 29.333333333333332,
              "duration": 0.33958333333333335
            },
            {
              "pitch": 67,
              "velocity": 116,
              "position": 30,
              "duration": 0.33958333333333335
            },
            {
              "pitch": 69,
              "velocity": 116,
              "position": 30,
              "duration": 0.33958333333333335
            },
            {
              "pitch": 72,
              "velocity": 116,
              "position": 30,
              "duration": 0.33958333333333335
            },
            {
              "pitch": 77,
              "velocity": 116,
              "position": 30,
              "duration": 0.33958333333333335
            },
            {
              "pitch": 79,
              "velocity": 116,
              "position": 30,
              "duration": 0.33958333333333335
            }
          ]
        },
        "4": {
          "ctab": {
            "srcChannel": 4,
            "name": "Pno LH",
            "accType": "CHORD2",
            "editable": false,
            "mutedNotes": [],
            "mutedChords": [
              "1+2+5",
              "sus4",
              "1+5",
              "1+8",
              "7aug",
              "Maj7aug",
              "7(#9)",
              "7(b13)",
              "7(b9)",
              "7(13)",
              "7#11",
              "7(9)",
              "7b5",
              "7sus4",
              "7th",
              "aug",
              "Maj6(9)",
              "Maj7(9)",
              "Maj(9)",
              "Maj7#11",
              "Maj7",
              "Maj6",
              "Maj"
            ],
            "autoStart": false,
            "sourceChordNote": 0,
            "sourceChordType": "Maj",
            "ctb2Low": null,
            "ctb2Main": {
              "ntr": "ROOT_TRANSPOSITION",
              "ntt": "BYPASS",
              "bassOn": false,
              "chordRootUpperLimit": 6,
              "noteLowLimit": 0,
              "noteHighLimit": 127,
              "rtr": "PITCH_SHIFT"
            },
            "ctb2High": null
          },
          "notes": [
            {
              "pitch": 36,
              "velocity": 116,
              "position": 0.010416666666666666,
              "duration": 0.975
            },
            {
              "pitch": 36,
              "velocity": 64,
              "position": 1.3333333333333333,
              "duration": 0.17291666666666666
            },
            {
              "pitch": 38,
              "velocity": 80,
              "position": 1.6666666666666667,
              "duration": 0.17291666666666666
            },
            {
              "pitch": 39,
              "velocity": 116,
              "position": 2,
              "duration": 1.31875
            },
            {
              "pitch": 40,
              "velocity": 80,
              "position": 3.6666666666666665,
              "duration": 0.17291666666666666
            },
            {
              "pitch": 38,
              "velocity": 116,
              "position": 4,
              "duration": 1.31875
            },
            {
              "pitch": 44,
              "velocity": 80,
              "position": 5.666666666666667,
              "duration": 0.17291666666666666
            },
            {
              "pitch": 38,
              "velocity": 80,
              "position": 6.333333333333333,
              "duration": 0.17291666666666666
            },
            {
              "pitch": 43,
              "velocity": 116,
              "position": 6,
              "duration": 1.9854166666666666
            },
            {
              "pitch": 31,
              "velocity": 116,
              "position": 6.666666666666667,
              "duration": 1.31875
            },
            {
              "pitch": 36,
              "velocity": 116,
              "position": 8,
              "duration": 0.9854166666666667
            },
            {
              "pitch": 38,
              "velocity": 116,
              "position": 9,
              "duration": 0.9854166666666667
            },
            {
              "pitch": 39,
              "velocity": 116,
              "position": 10,
              "duration": 0.9854166666666667
            },
            {
              "pitch": 39,
              "velocity": 116,
              "position": 11,
              "duration": 0.9854166666666667
            },
            {
              "pitch": 38,
              "velocity": 116,
              "position": 12,
              "duration": 0.6520833333333333
            },
            {
              "pitch": 38,
              "velocity": 85,
              "position": 12.666666666666666,
              "duration": 0.25625
            },
            {
              "pitch": 42,
              "velocity": 116,
              "position": 13,
              "duration": 0.31875
            },
            {
              "pitch": 43,
              "velocity": 116,
              "position": 13.666666666666666,
              "duration": 0.31875
            },
            {
              "pitch": 34,
              "velocity": 116,
              "position": 14.333333333333334,
              "duration": 0.31875
            },
            {
              "pitch": 35,
              "velocity": 116,
              "position": 15,
              "duration": 0.31875
            },
            {
              "pitch": 36,
              "velocity": 116,
              "position": 15.666666666666666,
              "duration": 0.8708333333333333
            },
            {
              "pitch": 41,
              "velocity": 116,
              "position": 17,
              "duration": 0.6520833333333333
            },
            {
              "pitch": 39,
              "velocity": 116,
              "position": 18,
              "duration": 0.7875
            },
            {
              "pitch": 38,
              "velocity": 116,
              "position": 19,
              "duration": 0.7875
            },
            {
              "pitch": 36,
              "velocity": 116,
              "position": 20,
              "duration": 0.7875
            },
            {
              "pitch": 46,
              "velocity": 116,
              "position": 21,
              "duration": 0.7875
            },
            {
              "pitch": 45,
              "velocity": 116,
              "position": 22,
              "duration": 0.7875
            },
            {
              "pitch": 44,
              "velocity": 116,
              "position": 23,
              "duration": 0.7875
            },
            {
              "pitch": 43,
              "velocity": 116,
              "position": 24,
              "duration": 3.7875
            },
            {
              "pitch": 43,
              "velocity": 116,
              "position": 28,
              "duration": 0.31875
            },
            {
              "pitch": 43,
              "velocity": 116,
              "position": 28.666666666666668,
              "duration": 0.31875
            },
            {
              "pitch": 43,
              "velocity": 116,
              "position": 29.333333333333332,
              "duration": 0.31875
            },
            {
              "pitch": 43,
              "velocity": 116,
              "position": 30,
              "duration": 0.31875
            }
          ]
        },
        "5": {
          "ctab": {
            "srcChannel": 5,
            "name": "Org",
            "accType": "PAD",
            "editable": false,
            "mutedNotes": [],
            "mutedChords": [
              "1+2+5",
              "sus4",
              "1+5",
              "1+8",
              "7aug",
              "Maj7aug",
              "7(#9)",
              "7(b13)",
              "7(b9)",
              "7(13)",
              "7#11",
              "7(9)",
              "7b5",
              "7sus4",
              "7th",
              "aug",
              "Maj6(9)",
              "Maj7(9)",
              "Maj(9)",
              "Maj7#11",
              "Maj7",
              "Maj6",
              "Maj"
            ],
            "autoStart": false,
            "sourceChordNote": 0,
            "sourceChordType": "Maj",
            "ctb2Low": null,
            "ctb2Main": {
              "ntr": "ROOT_TRANSPOSITION",
              "ntt": "BYPASS",
              "bassOn": false,
              "chordRootUpperLimit": 9,
              "noteLowLimit": 58,
              "noteHighLimit": 79,
              "rtr": "PITCH_SHIFT"
            },
            "ctb2High": null
          },
          "notes": [
            {
              "pitch": 46,
              "velocity": 100,
              "position": 14.333333333333334,
              "duration": 0.31875
            },
            {
              "pitch": 53,
              "velocity": 100,
              "position": 14.333333333333334,
              "duration": 0.31875
            },
            {
              "pitch": 47,
              "velocity": 100,
              "position": 15,
              "duration": 0.31875
            },
            {
              "pitch": 53,
              "velocity": 100,
              "position": 15,
              "duration": 0.31875
            },
            {
              "pitch": 51,
              "velocity": 100,
              "position": 15.666666666666666,
              "duration": 1.31875
            },
            {
              "pitch": 55,
              "velocity": 100,
              "position": 15.666666666666666,
              "duration": 1.31875
            },
            {
              "pitch": 53,
              "velocity": 100,
              "position": 17,
              "duration": 0.9854166666666667
            },
            {
              "pitch": 57,
              "velocity": 100,
              "position": 17,
              "duration": 0.9854166666666667
            },
            {
              "pitch": 51,
              "velocity": 100,
              "position": 18,
              "duration": 0.9854166666666667
            },
            {
              "pitch": 55,
              "velocity": 100,
              "position": 18,
              "duration": 0.9854166666666667
            },
            {
              "pitch": 53,
              "velocity": 100,
              "position": 19,
              "duration": 0.9854166666666667
            },
            {
              "pitch": 57,
              "velocity": 100,
              "position": 19,
              "duration": 0.9854166666666667
            },
            {
              "pitch": 48,
              "velocity": 100,
              "position": 15.666666666666666,
              "duration": 5.31875
            },
            {
              "pitch": 51,
              "velocity": 100,
              "position": 20,
              "duration": 0.9854166666666667
            },
            {
              "pitch": 55,
              "velocity": 100,
              "position": 20,
              "duration": 0.9854166666666667
            },
            {
              "pitch": 48,
              "velocity": 100,
              "position": 21,
              "duration": 0.9854166666666667
            },
            {
              "pitch": 51,
              "velocity": 100,
              "position": 21,
              "duration": 0.9854166666666667
            },
            {
              "pitch": 55,
              "velocity": 100,
              "position": 21,
              "duration": 0.9854166666666667
            },
            {
              "pitch": 51,
              "velocity": 100,
              "position": 22,
              "duration": 0.9854166666666667
            },
            {
              "pitch": 54,
              "velocity": 100,
              "position": 22,
              "duration": 0.9854166666666667
            },
            {
              "pitch": 60,
              "velocity": 100,
              "position": 22.927083333333332,
              "duration": 0.18333333333333332
            },
            {
              "pitch": 62,
              "velocity": 100,
              "position": 22.947916666666668,
              "duration": 0.23541666666666666
            },
            {
              "pitch": 64,
              "velocity": 100,
              "position": 23.135416666666668,
              "duration": 0.11041666666666666
            },
            {
              "pitch": 65,
              "velocity": 100,
              "position": 23.208333333333332,
              "duration": 0.11041666666666666
            },
            {
              "pitch": 67,
              "velocity": 100,
              "position": 23.28125,
              "duration": 0.08958333333333333
            },
            {
              "pitch": 69,
              "velocity": 100,
              "position": 23.34375,
              "duration": 0.08958333333333333
            },
            {
              "pitch": 71,
              "velocity": 100,
              "position": 23.395833333333332,
              "duration": 0.1
            },
            {
              "pitch": 72,
              "velocity": 100,
              "position": 23.458333333333332,
              "duration": 0.08958333333333333
            },
            {
              "pitch": 74,
              "velocity": 100,
              "position": 23.520833333333332,
              "duration": 0.1
            },
            {
              "pitch": 76,
              "velocity": 100,
              "position": 23.583333333333332,
              "duration": 0.1
            },
            {
              "pitch": 77,
              "velocity": 100,
              "position": 23.65625,
              "duration": 0.1
            },
            {
              "pitch": 79,
              "velocity": 100,
              "position": 23.729166666666668,
              "duration": 0.1
            },
            {
              "pitch": 81,
              "velocity": 100,
              "position": 23.802083333333332,
              "duration": 0.1
            },
            {
              "pitch": 48,
              "velocity": 100,
              "position": 22,
              "duration": 1.9854166666666666
            },
            {
              "pitch": 83,
              "velocity": 100,
              "position": 23.864583333333332,
              "duration": 0.14166666666666666
            },
            {
              "pitch": 51,
              "velocity": 100,
              "position": 24,
              "duration": 3.9854166666666666
            },
            {
              "pitch": 55,
              "velocity": 100,
              "position": 24,
              "duration": 3.9854166666666666
            },
            {
              "pitch": 48,
              "velocity": 100,
              "position": 24,
              "duration": 6.31875
            },
            {
              "pitch": 53,
              "velocity": 100,
              "position": 28,
              "duration": 2.31875
            },
            {
              "pitch": 57,
              "velocity": 100,
              "position": 28,
              "duration": 2.31875
            },
            {
              "pitch": 72,
              "velocity": 100,
              "position": 24,
              "duration": 6.31875
            },
            {
              "pitch": 84,
              "velocity": 100,
              "position": 24,
              "duration": 6.31875
            }
          ]
        },
        "6": {
          "ctab": {
            "srcChannel": 6,
            "name": "Cho",
            "accType": "PHRASE1",
            "editable": false,
            "mutedNotes": [],
            "mutedChords": [
              "1+2+5",
              "sus4",
              "1+5",
              "1+8",
              "7aug",
              "Maj7aug",
              "7(#9)",
              "7(b13)",
              "7(b9)",
              "7(13)",
              "7#11",
              "7(9)",
              "7b5",
              "7sus4",
              "7th",
              "aug",
              "Maj6(9)",
              "Maj7(9)",
              "Maj(9)",
              "Maj7#11",
              "Maj7",
              "Maj6",
              "Maj"
            ],
            "autoStart": false,
            "sourceChordNote": 0,
            "sourceChordType": "Maj",
            "ctb2Low": null,
            "ctb2Main": {
              "ntr": "ROOT_TRANSPOSITION",
              "ntt": "BYPASS",
              "bassOn": false,
              "chordRootUpperLimit": 6,
              "noteLowLimit": 60,
              "noteHighLimit": 127,
              "rtr": "PITCH_SHIFT"
            },
            "ctb2High": null
          },
          "notes": [
            {
              "pitch": 51,
              "velocity": 48,
              "position": 15.666666666666666,
              "duration": 1.31875
            },
            {
              "pitch": 55,
              "velocity": 48,
              "position": 15.666666666666666,
              "duration": 1.31875
            },
            {
              "pitch": 53,
              "velocity": 48,
              "position": 17,
              "duration": 0.9854166666666667
            },
            {
              "pitch": 57,
              "velocity": 48,
              "position": 17,
              "duration": 0.9854166666666667
            },
            {
              "pitch": 55,
              "velocity": 48,
              "position": 18,
              "duration": 0.9854166666666667
            },
            {
              "pitch": 63,
              "velocity": 48,
              "position": 18,
              "duration": 0.9854166666666667
            },
            {
              "pitch": 57,
              "velocity": 48,
              "position": 19,
              "duration": 0.9854166666666667
            },
            {
              "pitch": 65,
              "velocity": 48,
              "position": 19,
              "duration": 0.9854166666666667
            },
            {
              "pitch": 60,
              "velocity": 48,
              "position": 15.666666666666666,
              "duration": 5.31875
            },
            {
              "pitch": 67,
              "velocity": 48,
              "position": 20,
              "duration": 1.9854166666666666
            },
            {
              "pitch": 70,
              "velocity": 48,
              "position": 21,
              "duration": 0.9854166666666667
            },
            {
              "pitch": 63,
              "velocity": 48,
              "position": 20,
              "duration": 2.9854166666666666
            },
            {
              "pitch": 74,
              "velocity": 48,
              "position": 23,
              "duration": 0.9854166666666667
            },
            {
              "pitch": 66,
              "velocity": 48,
              "position": 22,
              "duration": 1.9854166666666666
            },
            {
              "pitch": 67,
              "velocity": 48,
              "position": 24,
              "duration": 3.9854166666666666
            },
            {
              "pitch": 75,
              "velocity": 48,
              "position": 24,
              "duration": 3.9854166666666666
            },
            {
              "pitch": 72,
              "velocity": 48,
              "position": 22,
              "duration": 6.31875
            },
            {
              "pitch": 69,
              "velocity": 48,
              "position": 28,
              "duration": 0.49583333333333335
            },
            {
              "pitch": 77,
              "velocity": 48,
              "position": 28,
              "duration": 0.49583333333333335
            },
            {
              "pitch": 69,
              "velocity": 48,
              "position": 28.666666666666668,
              "duration": 0.49583333333333335
            },
            {
              "pitch": 72,
              "velocity": 48,
              "position": 28.666666666666668,
              "duration": 0.49583333333333335
            },
            {
              "pitch": 77,
              "velocity": 48,
              "position": 28.666666666666668,
              "duration": 0.49583333333333335
            },
            {
              "pitch": 69,
              "velocity": 48,
              "position": 29.333333333333332,
              "duration": 0.49583333333333335
            },
            {
              "pitch": 72,
              "velocity": 48,
              "position": 29.333333333333332,
              "duration": 0.49583333333333335
            },
            {
              "pitch": 77,
              "velocity": 48,
              "position": 29.333333333333332,
              "duration": 0.49583333333333335
            },
            {
              "pitch": 69,
              "velocity": 48,
              "position": 30,
              "duration": 0.38125
            },
            {
              "pitch": 72,
              "velocity": 48,
              "position": 30,
              "duration": 0.38125
            },
            {
              "pitch": 77,
              "velocity": 48,
              "position": 30,
              "duration": 0.38125
            }
          ]
        },
        "8": {
          "ctab": {
            "srcChannel": 8,
            "name": "Perc",
            "accType": "SUBRHYTHM",
            "editable": false,
            "mutedNotes": [],
            "mutedChords": [],
            "autoStart": true,
            "sourceChordNote": 0,
            "sourceChordType": "Maj7",
            "ctb2Low": null,
            "ctb2Main": {
              "ntr": "ROOT_FIXED",
              "ntt": "BYPASS",
              "bassOn": false,
              "chordRootUpperLimit": 6,
              "noteLowLimit": 0,
              "noteHighLimit": 127,
              "rtr": "PITCH_SHIFT"
            },
            "ctb2High": null
          },
          "notes": [
            {
              "pitch": 39,
              "velocity": 74,
              "position": 1.0416666666666667,
              "duration": 0.00625
            },
            {
              "pitch": 39,
              "velocity": 82,
              "position": 3.0208333333333335,
              "duration": 0.00625
            },
            {
              "pitch": 39,
              "velocity": 71,
              "position": 5.041666666666667,
              "duration": 0.00625
            },
            {
              "pitch": 39,
              "velocity": 70,
              "position": 6.947916666666667,
              "duration": 0.00625
            },
            {
              "pitch": 39,
              "velocity": 74,
              "position": 8.989583333333334,
              "duration": 0.00625
            },
            {
              "pitch": 39,
              "velocity": 75,
              "position": 10.979166666666666,
              "duration": 0.00625
            },
            {
              "pitch": 39,
              "velocity": 83,
              "position": 12.979166666666666,
              "duration": 0.00625
            },
            {
              "pitch": 39,
              "velocity": 75,
              "position": 15,
              "duration": 0.00625
            },
            {
              "pitch": 39,
              "velocity": 74,
              "position": 17.041666666666668,
              "duration": 0.00625
            },
            {
              "pitch": 39,
              "velocity": 82,
              "position": 19.020833333333332,
              "duration": 0.00625
            },
            {
              "pitch": 39,
              "velocity": 71,
              "position": 21.041666666666668,
              "duration": 0.00625
            },
            {
              "pitch": 39,
              "velocity": 70,
              "position": 22.947916666666668,
              "duration": 0.00625
            },
            {
              "pitch": 39,
              "velocity": 74,
              "position": 24.989583333333332,
              "duration": 0.00625
            },
            {
              "pitch": 39,
              "velocity": 75,
              "position": 26.979166666666668,
              "duration": 0.00625
            },
            {
              "pitch": 39,
              "velocity": 74,
              "position": 31,
              "duration": 0.00625
            }
          ]
        },
        "9": {
          "ctab": {
            "srcChannel": 9,
            "name": "Drums",
            "accType": "RHYTHM",
            "editable": false,
            "mutedNotes": [],
            "mutedChords": [],
            "autoStart": true,
            "sourceChordNote": 0,
            "sourceChordType": "Maj7",
            "ctb2Low": null,
            "ctb2Main": {
              "ntr": "ROOT_FIXED",
              "ntt": "BYPASS",
              "bassOn": false,
              "chordRootUpperLimit": 6,
              "noteLowLimit": 0,
              "noteHighLimit": 127,
              "rtr": "PITCH_SHIFT"
            },
            "ctb2High": null
          },
          "notes": [
            {
              "pitch": 35,
              "velocity": 90,
              "position": 0,
              "duration": 0.00625
            },
            {
              "pitch": 42,
              "velocity": 78,
              "position": 0,
              "duration": 0.00625
            },
            {
              "pitch": 54,
              "velocity": 71,
              "position": 0,
              "duration": 0.00625
            },
            {
              "pitch": 38,
              "velocity": 15,
              "position": 0.3333333333333333,
              "duration": 0.00625
            },
            {
              "pitch": 54,
              "velocity": 16,
              "position": 0.3333333333333333,
              "duration": 0.00625
            },
            {
              "pitch": 35,
              "velocity": 40,
              "position": 0.6666666666666666,
              "duration": 0.00625
            },
            {
              "pitch": 46,
              "velocity": 37,
              "position": 0.6666666666666666,
              "duration": 0.00625
            },
            {
              "pitch": 54,
              "velocity": 40,
              "position": 0.6666666666666666,
              "duration": 0.00625
            },
            {
              "pitch": 39,
              "velocity": 80,
              "position": 0.9895833333333334,
              "duration": 0.00625
            },
            {
              "pitch": 38,
              "velocity": 100,
              "position": 1,
              "duration": 0.00625
            },
            {
              "pitch": 54,
              "velocity": 71,
              "position": 1,
              "duration": 0.00625
            },
            {
              "pitch": 42,
              "velocity": 16,
              "position": 1.3333333333333333,
              "duration": 0.00625
            },
            {
              "pitch": 54,
              "velocity": 16,
              "position": 1.3333333333333333,
              "duration": 0.00625
            },
            {
              "pitch": 35,
              "velocity": 40,
              "position": 1.6666666666666667,
              "duration": 0.00625
            },
            {
              "pitch": 44,
              "velocity": 30,
              "position": 1.6666666666666667,
              "duration": 0.00625
            },
            {
              "pitch": 54,
              "velocity": 40,
              "position": 1.6666666666666667,
              "duration": 0.00625
            },
            {
              "pitch": 35,
              "velocity": 90,
              "position": 2,
              "duration": 0.00625
            },
            {
              "pitch": 42,
              "velocity": 78,
              "position": 2,
              "duration": 0.00625
            },
            {
              "pitch": 54,
              "velocity": 71,
              "position": 2,
              "duration": 0.00625
            },
            {
              "pitch": 38,
              "velocity": 15,
              "position": 2.3333333333333335,
              "duration": 0.00625
            },
            {
              "pitch": 54,
              "velocity": 16,
              "position": 2.3333333333333335,
              "duration": 0.00625
            },
            {
              "pitch": 35,
              "velocity": 40,
              "position": 2.6666666666666665,
              "duration": 0.00625
            },
            {
              "pitch": 42,
              "velocity": 16,
              "position": 2.6666666666666665,
              "duration": 0.00625
            },
            {
              "pitch": 54,
              "velocity": 40,
              "position": 2.6666666666666665,
              "duration": 0.00625
            },
            {
              "pitch": 39,
              "velocity": 80,
              "position": 2.9791666666666665,
              "duration": 0.00625
            },
            {
              "pitch": 38,
              "velocity": 100,
              "position": 3,
              "duration": 0.00625
            },
            {
              "pitch": 54,
              "velocity": 71,
              "position": 3,
              "duration": 0.00625
            },
            {
              "pitch": 42,
              "velocity": 16,
              "position": 3.3333333333333335,
              "duration": 0.00625
            },
            {
              "pitch": 54,
              "velocity": 16,
              "position": 3.3333333333333335,
              "duration": 0.00625
            },
            {
              "pitch": 35,
              "velocity": 40,
              "position": 3.6666666666666665,
              "duration": 0.00625
            },
            {
              "pitch": 54,
              "velocity": 40,
              "position": 3.6666666666666665,
              "duration": 0.00625
            },
            {
              "pitch": 35,
              "velocity": 90,
              "position": 4,
              "duration": 0.00625
            },
            {
              "pitch": 42,
              "velocity": 78,
              "position": 4,
              "duration": 0.00625
            },
            {
              "pitch": 54,
              "velocity": 71,
              "position": 4,
              "duration": 0.00625
            },
            {
              "pitch": 38,
              "velocity": 15,
              "position": 4.333333333333333,
              "duration": 0.00625
            },
            {
              "pitch": 54,
              "velocity": 16,
              "position": 4.333333333333333,
              "duration": 0.00625
            },
            {
              "pitch": 35,
              "velocity": 40,
              "position": 4.666666666666667,
              "duration": 0.00625
            },
            {
              "pitch": 46,
              "velocity": 37,
              "position": 4.666666666666667,
              "duration": 0.00625
            },
            {
              "pitch": 54,
              "velocity": 40,
              "position": 4.666666666666667,
              "duration": 0.00625
            },
            {
              "pitch": 38,
              "velocity": 100,
              "position": 5,
              "duration": 0.00625
            },
            {
              "pitch": 54,
              "velocity": 71,
              "position": 5,
              "duration": 0.00625
            },
            {
              "pitch": 39,
              "velocity": 80,
              "position": 5.03125,
              "duration": 0.00625
            },
            {
              "pitch": 42,
              "velocity": 16,
              "position": 5.333333333333333,
              "duration": 0.00625
            },
            {
              "pitch": 54,
              "velocity": 16,
              "position": 5.333333333333333,
              "duration": 0.00625
            },
            {
              "pitch": 35,
              "velocity": 40,
              "position": 5.666666666666667,
              "duration": 0.00625
            },
            {
              "pitch": 44,
              "velocity": 30,
              "position": 5.666666666666667,
              "duration": 0.00625
            },
            {
              "pitch": 54,
              "velocity": 40,
              "position": 5.666666666666667,
              "duration": 0.00625
            },
            {
              "pitch": 35,
              "velocity": 90,
              "position": 6,
              "duration": 0.00625
            },
            {
              "pitch": 42,
              "velocity": 78,
              "position": 6,
              "duration": 0.00625
            },
            {
              "pitch": 54,
              "velocity": 71,
              "position": 6,
              "duration": 0.00625
            },
            {
              "pitch": 38,
              "velocity": 15,
              "position": 6.333333333333333,
              "duration": 0.00625
            },
            {
              "pitch": 54,
              "velocity": 16,
              "position": 6.333333333333333,
              "duration": 0.00625
            },
            {
              "pitch": 35,
              "velocity": 40,
              "position": 6.666666666666667,
              "duration": 0.00625
            },
            {
              "pitch": 42,
              "velocity": 16,
              "position": 6.666666666666667,
              "duration": 0.00625
            },
            {
              "pitch": 54,
              "velocity": 40,
              "position": 6.666666666666667,
              "duration": 0.00625
            },
            {
              "pitch": 39,
              "velocity": 80,
              "position": 6.958333333333333,
              "duration": 0.00625
            },
            {
              "pitch": 38,
              "velocity": 100,
              "position": 7,
              "duration": 0.00625
            },
            {
              "pitch": 54,
              "velocity": 71,
              "position": 7,
              "duration": 0.00625
            },
            {
              "pitch": 42,
              "velocity": 16,
              "position": 7.333333333333333,
              "duration": 0.00625
            },
            {
              "pitch": 54,
              "velocity": 16,
              "position": 7.333333333333333,
              "duration": 0.00625
            },
            {
              "pitch": 35,
              "velocity": 40,
              "position": 7.666666666666667,
              "duration": 0.00625
            },
            {
              "pitch": 54,
              "velocity": 40,
              "position": 7.666666666666667,
              "duration": 0.00625
            },
            {
              "pitch": 35,
              "velocity": 90,
              "position": 8,
              "duration": 0.00625
            },
            {
              "pitch": 42,
              "velocity": 78,
              "position": 8,
              "duration": 0.00625
            },
            {
              "pitch": 54,
              "velocity": 71,
              "position": 8,
              "duration": 0.00625
            },
            {
              "pitch": 38,
              "velocity": 15,
              "position": 8.333333333333334,
              "duration": 0.00625
            },
            {
              "pitch": 54,
              "velocity": 16,
              "position": 8.333333333333334,
              "duration": 0.00625
            },
            {
              "pitch": 35,
              "velocity": 40,
              "position": 8.666666666666666,
              "duration": 0.00625
            },
            {
              "pitch": 46,
              "velocity": 37,
              "position": 8.666666666666666,
              "duration": 0.00625
            },
            {
              "pitch": 54,
              "velocity": 40,
              "position": 8.666666666666666,
              "duration": 0.00625
            },
            {
              "pitch": 38,
              "velocity": 100,
              "position": 9,
              "duration": 0.00625
            },
            {
              "pitch": 54,
              "velocity": 71,
              "position": 9,
              "duration": 0.00625
            },
            {
              "pitch": 39,
              "velocity": 80,
              "position": 9.010416666666666,
              "duration": 0.00625
            },
            {
              "pitch": 42,
              "velocity": 16,
              "position": 9.333333333333334,
              "duration": 0.00625
            },
            {
              "pitch": 54,
              "velocity": 16,
              "position": 9.333333333333334,
              "duration": 0.00625
            },
            {
              "pitch": 35,
              "velocity": 40,
              "position": 9.666666666666666,
              "duration": 0.00625
            },
            {
              "pitch": 44,
              "velocity": 30,
              "position": 9.666666666666666,
              "duration": 0.00625
            },
            {
              "pitch": 54,
              "velocity": 40,
              "position": 9.666666666666666,
              "duration": 0.00625
            },
            {
              "pitch": 35,
              "velocity": 90,
              "position": 10,
              "duration": 0.00625
            },
            {
              "pitch": 42,
              "velocity": 78,
              "position": 10,
              "duration": 0.00625
            },
            {
              "pitch": 54,
              "velocity": 71,
              "position": 10,
              "duration": 0.00625
            },
            {
              "pitch": 38,
              "velocity": 15,
              "position": 10.333333333333334,
              "duration": 0.00625
            },
            {
              "pitch": 54,
              "velocity": 16,
              "position": 10.333333333333334,
              "duration": 0.00625
            },
            {
              "pitch": 35,
              "velocity": 40,
              "position": 10.666666666666666,
              "duration": 0.00625
            },
            {
              "pitch": 42,
              "velocity": 16,
              "position": 10.666666666666666,
              "duration": 0.00625
            },
            {
              "pitch": 54,
              "velocity": 40,
              "position": 10.666666666666666,
              "duration": 0.00625
            },
            {
              "pitch": 38,
              "velocity": 100,
              "position": 11,
              "duration": 0.00625
            },
            {
              "pitch": 54,
              "velocity": 71,
              "position": 11,
              "duration": 0.00625
            },
            {
              "pitch": 39,
              "velocity": 80,
              "position": 11.03125,
              "duration": 0.00625
            },
            {
              "pitch": 42,
              "velocity": 16,
              "position": 11.333333333333334,
              "duration": 0.00625
            },
            {
              "pitch": 54,
              "velocity": 16,
              "position": 11.333333333333334,
              "duration": 0.00625
            },
            {
              "pitch": 35,
              "velocity": 40,
              "position": 11.666666666666666,
              "duration": 0.00625
            },
            {
              "pitch": 54,
              "velocity": 40,
              "position": 11.666666666666666,
              "duration": 0.00625
            },
            {
              "pitch": 35,
              "velocity": 90,
              "position": 12,
              "duration": 0.00625
            },
            {
              "pitch": 42,
              "velocity": 78,
              "position": 12,
              "duration": 0.00625
            },
            {
              "pitch": 54,
              "velocity": 71,
              "position": 12,
              "duration": 0.00625
            },
            {
              "pitch": 38,
              "velocity": 15,
              "position": 12.333333333333334,
              "duration": 0.00625
            },
            {
              "pitch": 54,
              "velocity": 16,
              "position": 12.333333333333334,
              "duration": 0.00625
            },
            {
              "pitch": 35,
              "velocity": 40,
              "position": 12.666666666666666,
              "duration": 0.00625
            },
            {
              "pitch": 46,
              "velocity": 37,
              "position": 12.666666666666666,
              "duration": 0.00625
            },
            {
              "pitch": 54,
              "velocity": 40,
              "position": 12.666666666666666,
              "duration": 0.00625
            },
            {
              "pitch": 38,
              "velocity": 100,
              "position": 13,
              "duration": 0.00625
            },
            {
              "pitch": 54,
              "velocity": 71,
              "position": 13,
              "duration": 0.00625
            },
            {
              "pitch": 39,
              "velocity": 80,
              "position": 13.041666666666666,
              "duration": 0.00625
            },
            {
              "pitch": 42,
              "velocity": 16,
              "position": 13.333333333333334,
              "duration": 0.00625
            },
            {
              "pitch": 54,
              "velocity": 16,
              "position": 13.333333333333334,
              "duration": 0.00625
            },
            {
              "pitch": 35,
              "velocity": 40,
              "position": 13.666666666666666,
              "duration": 0.00625
            },
            {
              "pitch": 44,
              "velocity": 30,
              "position": 13.666666666666666,
              "duration": 0.00625
            },
            {
              "pitch": 54,
              "velocity": 40,
              "position": 13.666666666666666,
              "duration": 0.00625
            },
            {
              "pitch": 42,
              "velocity": 78,
              "position": 14,
              "duration": 0.00625
            },
            {
              "pitch": 54,
              "velocity": 71,
              "position": 14,
              "duration": 0.00625
            },
            {
              "pitch": 35,
              "velocity": 90,
              "position": 14.333333333333334,
              "duration": 0.00625
            },
            {
              "pitch": 46,
              "velocity": 61,
              "position": 14.333333333333334,
              "duration": 0.00625
            },
            {
              "pitch": 54,
              "velocity": 16,
              "position": 14.333333333333334,
              "duration": 0.00625
            },
            {
              "pitch": 44,
              "velocity": 1,
              "position": 14.666666666666666,
              "duration": 0.00625
            },
            {
              "pitch": 54,
              "velocity": 40,
              "position": 14.666666666666666,
              "duration": 0.00625
            },
            {
              "pitch": 39,
              "velocity": 80,
              "position": 14.979166666666666,
              "duration": 0.00625
            },
            {
              "pitch": 38,
              "velocity": 100,
              "position": 15,
              "duration": 0.00625
            },
            {
              "pitch": 46,
              "velocity": 61,
              "position": 15,
              "duration": 0.00625
            },
            {
              "pitch": 54,
              "velocity": 71,
              "position": 15,
              "duration": 0.00625
            },
            {
              "pitch": 44,
              "velocity": 1,
              "position": 15.333333333333334,
              "duration": 0.00625
            },
            {
              "pitch": 54,
              "velocity": 16,
              "position": 15.333333333333334,
              "duration": 0.00625
            },
            {
              "pitch": 35,
              "velocity": 90,
              "position": 15.666666666666666,
              "duration": 0.00625
            },
            {
              "pitch": 49,
              "velocity": 59,
              "position": 15.666666666666666,
              "duration": 0.00625
            },
            {
              "pitch": 54,
              "velocity": 40,
              "position": 15.666666666666666,
              "duration": 0.00625
            },
            {
              "pitch": 35,
              "velocity": 90,
              "position": 16,
              "duration": 0.00625
            },
            {
              "pitch": 54,
              "velocity": 71,
              "position": 16,
              "duration": 0.00625
            },
            {
              "pitch": 59,
              "velocity": 91,
              "position": 16,
              "duration": 0.00625
            },
            {
              "pitch": 38,
              "velocity": 20,
              "position": 16.333333333333332,
              "duration": 0.00625
            },
            {
              "pitch": 54,
              "velocity": 16,
              "position": 16.333333333333332,
              "duration": 0.00625
            },
            {
              "pitch": 35,
              "velocity": 40,
              "position": 16.666666666666668,
              "duration": 0.00625
            },
            {
              "pitch": 44,
              "velocity": 27,
              "position": 16.666666666666668,
              "duration": 0.00625
            },
            {
              "pitch": 54,
              "velocity": 40,
              "position": 16.666666666666668,
              "duration": 0.00625
            },
            {
              "pitch": 39,
              "velocity": 80,
              "position": 16.989583333333332,
              "duration": 0.00625
            },
            {
              "pitch": 38,
              "velocity": 100,
              "position": 17,
              "duration": 0.00625
            },
            {
              "pitch": 54,
              "velocity": 71,
              "position": 17,
              "duration": 0.00625
            },
            {
              "pitch": 59,
              "velocity": 91,
              "position": 17,
              "duration": 0.00625
            },
            {
              "pitch": 38,
              "velocity": 20,
              "position": 17.333333333333332,
              "duration": 0.00625
            },
            {
              "pitch": 54,
              "velocity": 16,
              "position": 17.333333333333332,
              "duration": 0.00625
            },
            {
              "pitch": 35,
              "velocity": 40,
              "position": 17.666666666666668,
              "duration": 0.00625
            },
            {
              "pitch": 44,
              "velocity": 27,
              "position": 17.666666666666668,
              "duration": 0.00625
            },
            {
              "pitch": 54,
              "velocity": 40,
              "position": 17.666666666666668,
              "duration": 0.00625
            },
            {
              "pitch": 35,
              "velocity": 90,
              "position": 18,
              "duration": 0.00625
            },
            {
              "pitch": 54,
              "velocity": 71,
              "position": 18,
              "duration": 0.00625
            },
            {
              "pitch": 59,
              "velocity": 91,
              "position": 18,
              "duration": 0.00625
            },
            {
              "pitch": 38,
              "velocity": 20,
              "position": 18.333333333333332,
              "duration": 0.00625
            },
            {
              "pitch": 54,
              "velocity": 16,
              "position": 18.333333333333332,
              "duration": 0.00625
            },
            {
              "pitch": 35,
              "velocity": 40,
              "position": 18.666666666666668,
              "duration": 0.00625
            },
            {
              "pitch": 44,
              "velocity": 27,
              "position": 18.666666666666668,
              "duration": 0.00625
            },
            {
              "pitch": 54,
              "velocity": 40,
              "position": 18.666666666666668,
              "duration": 0.00625
            },
            {
              "pitch": 39,
              "velocity": 80,
              "position": 18.979166666666668,
              "duration": 0.00625
            },
            {
              "pitch": 38,
              "velocity": 100,
              "position": 19,
              "duration": 0.00625
            },
            {
              "pitch": 49,
              "velocity": 61,
              "position": 19,
              "duration": 0.00625
            },
            {
              "pitch": 54,
              "velocity": 71,
              "position": 19,
              "duration": 0.00625
            },
            {
              "pitch": 38,
              "velocity": 20,
              "position": 19.333333333333332,
              "duration": 0.00625
            },
            {
              "pitch": 54,
              "velocity": 16,
              "position": 19.333333333333332,
              "duration": 0.00625
            },
            {
              "pitch": 35,
              "velocity": 40,
              "position": 19.666666666666668,
              "duration": 0.00625
            },
            {
              "pitch": 44,
              "velocity": 27,
              "position": 19.666666666666668,
              "duration": 0.00625
            },
            {
              "pitch": 54,
              "velocity": 40,
              "position": 19.666666666666668,
              "duration": 0.00625
            },
            {
              "pitch": 35,
              "velocity": 90,
              "position": 20,
              "duration": 0.00625
            },
            {
              "pitch": 54,
              "velocity": 71,
              "position": 20,
              "duration": 0.00625
            },
            {
              "pitch": 59,
              "velocity": 91,
              "position": 20,
              "duration": 0.00625
            },
            {
              "pitch": 38,
              "velocity": 20,
              "position": 20.333333333333332,
              "duration": 0.00625
            },
            {
              "pitch": 54,
              "velocity": 16,
              "position": 20.333333333333332,
              "duration": 0.00625
            },
            {
              "pitch": 35,
              "velocity": 40,
              "position": 20.666666666666668,
              "duration": 0.00625
            },
            {
              "pitch": 44,
              "velocity": 27,
              "position": 20.666666666666668,
              "duration": 0.00625
            },
            {
              "pitch": 54,
              "velocity": 40,
              "position": 20.666666666666668,
              "duration": 0.00625
            },
            {
              "pitch": 39,
              "velocity": 80,
              "position": 20.989583333333332,
              "duration": 0.00625
            },
            {
              "pitch": 38,
              "velocity": 100,
              "position": 21,
              "duration": 0.00625
            },
            {
              "pitch": 49,
              "velocity": 65,
              "position": 21,
              "duration": 0.00625
            },
            {
              "pitch": 54,
              "velocity": 71,
              "position": 21,
              "duration": 0.00625
            },
            {
              "pitch": 38,
              "velocity": 20,
              "position": 21.333333333333332,
              "duration": 0.00625
            },
            {
              "pitch": 54,
              "velocity": 16,
              "position": 21.333333333333332,
              "duration": 0.00625
            },
            {
              "pitch": 35,
              "velocity": 40,
              "position": 21.666666666666668,
              "duration": 0.00625
            },
            {
              "pitch": 44,
              "velocity": 27,
              "position": 21.666666666666668,
              "duration": 0.00625
            },
            {
              "pitch": 54,
              "velocity": 40,
              "position": 21.666666666666668,
              "duration": 0.00625
            },
            {
              "pitch": 35,
              "velocity": 90,
              "position": 22,
              "duration": 0.00625
            },
            {
              "pitch": 54,
              "velocity": 71,
              "position": 22,
              "duration": 0.00625
            },
            {
              "pitch": 57,
              "velocity": 61,
              "position": 22,
              "duration": 0.00625
            },
            {
              "pitch": 38,
              "velocity": 20,
              "position": 22.333333333333332,
              "duration": 0.00625
            },
            {
              "pitch": 54,
              "velocity": 16,
              "position": 22.333333333333332,
              "duration": 0.00625
            },
            {
              "pitch": 35,
              "velocity": 40,
              "position": 22.666666666666668,
              "duration": 0.00625
            },
            {
              "pitch": 44,
              "velocity": 27,
              "position": 22.666666666666668,
              "duration": 0.00625
            },
            {
              "pitch": 54,
              "velocity": 40,
              "position": 22.666666666666668,
              "duration": 0.00625
            },
            {
              "pitch": 39,
              "velocity": 80,
              "position": 22.979166666666668,
              "duration": 0.00625
            },
            {
              "pitch": 38,
              "velocity": 100,
              "position": 23,
              "duration": 0.00625
            },
            {
              "pitch": 49,
              "velocity": 59,
              "position": 23,
              "duration": 0.00625
            },
            {
              "pitch": 54,
              "velocity": 71,
              "position": 23,
              "duration": 0.00625
            },
            {
              "pitch": 38,
              "velocity": 20,
              "position": 23.333333333333332,
              "duration": 0.00625
            },
            {
              "pitch": 54,
              "velocity": 16,
              "position": 23.333333333333332,
              "duration": 0.00625
            },
            {
              "pitch": 35,
              "velocity": 40,
              "position": 23.666666666666668,
              "duration": 0.00625
            },
            {
              "pitch": 44,
              "velocity": 27,
              "position": 23.666666666666668,
              "duration": 0.00625
            },
            {
              "pitch": 54,
              "velocity": 40,
              "position": 23.666666666666668,
              "duration": 0.00625
            },
            {
              "pitch": 35,
              "velocity": 90,
              "position": 24,
              "duration": 0.00625
            },
            {
              "pitch": 49,
              "velocity": 67,
              "position": 24,
              "duration": 0.00625
            },
            {
              "pitch": 54,
              "velocity": 71,
              "position": 24,
              "duration": 0.00625
            },
            {
              "pitch": 38,
              "velocity": 20,
              "position": 24.333333333333332,
              "duration": 0.00625
            },
            {
              "pitch": 54,
              "velocity": 16,
              "position": 24.333333333333332,
              "duration": 0.00625
            },
            {
              "pitch": 35,
              "velocity": 40,
              "position": 24.666666666666668,
              "duration": 0.00625
            },
            {
              "pitch": 44,
              "velocity": 27,
              "position": 24.666666666666668,
              "duration": 0.00625
            },
            {
              "pitch": 53,
              "velocity": 90,
              "position": 24.666666666666668,
              "duration": 0.00625
            },
            {
              "pitch": 54,
              "velocity": 40,
              "position": 24.666666666666668,
              "duration": 0.00625
            },
            {
              "pitch": 59,
              "velocity": 62,
              "position": 24.666666666666668,
              "duration": 0.00625
            },
            {
              "pitch": 39,
              "velocity": 80,
              "position": 24.989583333333332,
              "duration": 0.00625
            },
            {
              "pitch": 38,
              "velocity": 100,
              "position": 25,
              "duration": 0.00625
            },
            {
              "pitch": 54,
              "velocity": 71,
              "position": 25,
              "duration": 0.00625
            },
            {
              "pitch": 38,
              "velocity": 20,
              "position": 25.333333333333332,
              "duration": 0.00625
            },
            {
              "pitch": 54,
              "velocity": 16,
              "position": 25.333333333333332,
              "duration": 0.00625
            },
            {
              "pitch": 59,
              "velocity": 86,
              "position": 25.333333333333332,
              "duration": 0.00625
            },
            {
              "pitch": 35,
              "velocity": 40,
              "position": 25.666666666666668,
              "duration": 0.00625
            },
            {
              "pitch": 44,
              "velocity": 27,
              "position": 25.666666666666668,
              "duration": 0.00625
            },
            {
              "pitch": 54,
              "velocity": 40,
              "position": 25.666666666666668,
              "duration": 0.00625
            },
            {
              "pitch": 35,
              "velocity": 90,
              "position": 26,
              "duration": 0.00625
            },
            {
              "pitch": 53,
              "velocity": 73,
              "position": 26,
              "duration": 0.00625
            },
            {
              "pitch": 54,
              "velocity": 71,
              "position": 26,
              "duration": 0.00625
            },
            {
              "pitch": 59,
              "velocity": 49,
              "position": 26,
              "duration": 0.00625
            },
            {
              "pitch": 38,
              "velocity": 28,
              "position": 26.333333333333332,
              "duration": 0.00625
            },
            {
              "pitch": 35,
              "velocity": 40,
              "position": 26.666666666666668,
              "duration": 0.00625
            },
            {
              "pitch": 38,
              "velocity": 53,
              "position": 26.666666666666668,
              "duration": 0.00625
            },
            {
              "pitch": 44,
              "velocity": 27,
              "position": 26.666666666666668,
              "duration": 0.00625
            },
            {
              "pitch": 39,
              "velocity": 80,
              "position": 26.979166666666668,
              "duration": 0.00625
            },
            {
              "pitch": 38,
              "velocity": 88,
              "position": 27,
              "duration": 0.00625
            },
            {
              "pitch": 38,
              "velocity": 120,
              "position": 27.052083333333332,
              "duration": 0.00625
            },
            {
              "pitch": 45,
              "velocity": 110,
              "position": 27.333333333333332,
              "duration": 0.00625
            },
            {
              "pitch": 53,
              "velocity": 62,
              "position": 27.333333333333332,
              "duration": 0.00625
            },
            {
              "pitch": 35,
              "velocity": 40,
              "position": 27.666666666666668,
              "duration": 0.00625
            },
            {
              "pitch": 44,
              "velocity": 27,
              "position": 27.666666666666668,
              "duration": 0.00625
            },
            {
              "pitch": 35,
              "velocity": 90,
              "position": 28,
              "duration": 0.00625
            },
            {
              "pitch": 46,
              "velocity": 65,
              "position": 28,
              "duration": 0.00625
            },
            {
              "pitch": 44,
              "velocity": 1,
              "position": 28.333333333333332,
              "duration": 0.00625
            },
            {
              "pitch": 35,
              "velocity": 90,
              "position": 28.666666666666668,
              "duration": 0.00625
            },
            {
              "pitch": 38,
              "velocity": 80,
              "position": 28.666666666666668,
              "duration": 0.00625
            },
            {
              "pitch": 46,
              "velocity": 65,
              "position": 28.666666666666668,
              "duration": 0.00625
            },
            {
              "pitch": 44,
              "velocity": 1,
              "position": 29,
              "duration": 0.00625
            },
            {
              "pitch": 35,
              "velocity": 90,
              "position": 29.333333333333332,
              "duration": 0.00625
            },
            {
              "pitch": 38,
              "velocity": 100,
              "position": 29.333333333333332,
              "duration": 0.00625
            },
            {
              "pitch": 46,
              "velocity": 65,
              "position": 29.333333333333332,
              "duration": 0.00625
            },
            {
              "pitch": 44,
              "velocity": 1,
              "position": 29.666666666666668,
              "duration": 0.00625
            },
            {
              "pitch": 35,
              "velocity": 90,
              "position": 30,
              "duration": 0.00625
            },
            {
              "pitch": 38,
              "velocity": 120,
              "position": 30,
              "duration": 0.00625
            },
            {
              "pitch": 46,
              "velocity": 65,
              "position": 30,
              "duration": 0.00625
            },
            {
              "pitch": 44,
              "velocity": 1,
              "position": 30.333333333333332,
              "duration": 0.00625
            },
            {
              "pitch": 35,
              "velocity": 46,
              "position": 30.666666666666668,
              "duration": 0.00625
            },
            {
              "pitch": 38,
              "velocity": 82,
              "position": 31,
              "duration": 0.00625
            },
            {
              "pitch": 38,
              "velocity": 116,
              "position": 31.0625,
              "duration": 0.00625
            },
            {
              "pitch": 35,
              "velocity": 90,
              "position": 31.333333333333332,
              "duration": 0.00625
            },
            {
              "pitch": 46,
              "velocity": 61,
              "position": 31.333333333333332,
              "duration": 0.00625
            },
            {
              "pitch": 49,
              "velocity": 57,
              "position": 31.989583333333332,
              "duration": 0.00625
            }
          ]
        },
        "10": {
          "ctab": {
            "srcChannel": 10,
            "name": "Bass",
            "accType": "BASS",
            "editable": false,
            "mutedNotes": [],
            "mutedChords": [
              "dim7",
              "dim",
              "minMaj7(9)",
              "minMaj7",
              "min7(11)",
              "min7(9)",
              "min(9)",
              "m7b5",
              "min7",
              "min6",
              "min"
            ],
            "autoStart": false,
            "sourceChordNote": 0,
            "sourceChordType": "Maj",
            "ctb2Low": null,
            "ctb2Main": {
              "ntr": "ROOT_TRANSPOSITION",
              "ntt": "BYPASS",
              "bassOn": false,
              "chordRootUpperLimit": 8,
              "noteLowLimit": 28,
              "noteHighLimit": 127,
              "rtr": "PITCH_SHIFT"
            },
            "ctb2High": null
          },
          "notes": [
            {
              "pitch": 33,
              "velocity": 74,
              "position": 14.333333333333334,
              "duration": 0.2875
            },
            {
              "pitch": 32,
              "velocity": 74,
              "position": 15,
              "duration": 0.2875
            },
            {
              "pitch": 31,
              "velocity": 62,
              "position": 15.666666666666666,
              "duration": 1.2875
            },
            {
              "pitch": 29,
              "velocity": 74,
              "position": 17,
              "duration": 0.9541666666666667
            },
            {
              "pitch": 28,
              "velocity": 74,
              "position": 18,
              "duration": 0.6208333333333333
            },
            {
              "pitch": 28,
              "velocity": 60,
              "position": 18.666666666666668,
              "duration": 0.31875
            },
            {
              "pitch": 26,
              "velocity": 74,
              "position": 19,
              "duration": 0.9541666666666667
            },
            {
              "pitch": 28,
              "velocity": 74,
              "position": 20,
              "duration": 0.6208333333333333
            },
            {
              "pitch": 28,
              "velocity": 60,
              "position": 20.666666666666668,
              "duration": 0.1625
            },
            {
              "pitch": 32,
              "velocity": 74,
              "position": 21,
              "duration": 0.9541666666666667
            },
            {
              "pitch": 33,
              "velocity": 74,
              "position": 22,
              "duration": 0.6208333333333333
            },
            {
              "pitch": 33,
              "velocity": 110,
              "position": 22.666666666666668,
              "duration": 0.10416666666666667
            },
            {
              "pitch": 32,
              "velocity": 74,
              "position": 23,
              "duration": 0.6208333333333333
            },
            {
              "pitch": 32,
              "velocity": 100,
              "position": 23.666666666666668,
              "duration": 0.10416666666666667
            },
            {
              "pitch": 31,
              "velocity": 74,
              "position": 24,
              "duration": 1.2875
            },
            {
              "pitch": 40,
              "velocity": 60,
              "position": 25.333333333333332,
              "duration": 0.13125
            },
            {
              "pitch": 40,
              "velocity": 60,
              "position": 25.666666666666668,
              "duration": 0.13125
            },
            {
              "pitch": 40,
              "velocity": 74,
              "position": 26,
              "duration": 0.6208333333333333
            },
            {
              "pitch": 36,
              "velocity": 74,
              "position": 26.666666666666668,
              "duration": 0.6208333333333333
            },
            {
              "pitch": 33,
              "velocity": 74,
              "position": 27.333333333333332,
              "duration": 0.6208333333333333
            },
            {
              "pitch": 31,
              "velocity": 74,
              "position": 28,
              "duration": 0.40208333333333335
            },
            {
              "pitch": 31,
              "velocity": 74,
              "position": 28.666666666666668,
              "duration": 0.40208333333333335
            },
            {
              "pitch": 31,
              "velocity": 74,
              "position": 29.333333333333332,
              "duration": 0.40208333333333335
            },
            {
              "pitch": 31,
              "velocity": 74,
              "position": 30,
              "duration": 0.40208333333333335
            }
          ]
        },
        "11": {
          "ctab": {
            "srcChannel": 11,
            "name": "Gt",
            "accType": "CHORD1",
            "editable": false,
            "mutedNotes": [],
            "mutedChords": [
              "dim7",
              "dim",
              "minMaj7(9)",
              "minMaj7",
              "min7(11)",
              "min7(9)",
              "min(9)",
              "m7b5",
              "min7",
              "min6",
              "min"
            ],
            "autoStart": false,
            "sourceChordNote": 0,
            "sourceChordType": "Maj",
            "ctb2Low": null,
            "ctb2Main": {
              "ntr": "ROOT_TRANSPOSITION",
              "ntt": "BYPASS",
              "bassOn": false,
              "chordRootUpperLimit": 11,
              "noteLowLimit": 54,
              "noteHighLimit": 127,
              "rtr": "PITCH_SHIFT"
            },
            "ctb2High": null
          },
          "notes": [
            {
              "pitch": 43,
              "velocity": 116,
              "position": 14.333333333333334,
              "duration": 0.26666666666666666
            },
            {
              "pitch": 48,
              "velocity": 116,
              "position": 14.34375,
              "duration": 0.26666666666666666
            },
            {
              "pitch": 52,
              "velocity": 116,
              "position": 14.354166666666666,
              "duration": 0.26666666666666666
            },
            {
              "pitch": 44,
              "velocity": 116,
              "position": 15,
              "duration": 0.26666666666666666
            },
            {
              "pitch": 48,
              "velocity": 116,
              "position": 15.010416666666666,
              "duration": 0.26666666666666666
            },
            {
              "pitch": 53,
              "velocity": 116,
              "position": 15.020833333333334,
              "duration": 0.26666666666666666
            },
            {
              "pitch": 43,
              "velocity": 116,
              "position": 15.666666666666666,
              "duration": 0.6520833333333333
            },
            {
              "pitch": 48,
              "velocity": 116,
              "position": 15.677083333333334,
              "duration": 0.6416666666666667
            },
            {
              "pitch": 52,
              "velocity": 116,
              "position": 15.6875,
              "duration": 0.63125
            },
            {
              "pitch": 43,
              "velocity": 98,
              "position": 16.333333333333332,
              "duration": 0.027083333333333334
            },
            {
              "pitch": 48,
              "velocity": 98,
              "position": 16.34375,
              "duration": 0.027083333333333334
            },
            {
              "pitch": 52,
              "velocity": 98,
              "position": 16.354166666666668,
              "duration": 0.027083333333333334
            },
            {
              "pitch": 43,
              "velocity": 80,
              "position": 16.666666666666668,
              "duration": 0.027083333333333334
            },
            {
              "pitch": 48,
              "velocity": 80,
              "position": 16.677083333333332,
              "duration": 0.027083333333333334
            },
            {
              "pitch": 45,
              "velocity": 116,
              "position": 17,
              "duration": 0.6520833333333333
            },
            {
              "pitch": 48,
              "velocity": 116,
              "position": 17.010416666666668,
              "duration": 0.6416666666666667
            },
            {
              "pitch": 53,
              "velocity": 116,
              "position": 17.020833333333332,
              "duration": 0.63125
            },
            {
              "pitch": 45,
              "velocity": 64,
              "position": 17.666666666666668,
              "duration": 0.31875
            },
            {
              "pitch": 48,
              "velocity": 64,
              "position": 17.677083333333332,
              "duration": 0.30833333333333335
            },
            {
              "pitch": 53,
              "velocity": 64,
              "position": 17.6875,
              "duration": 0.29791666666666666
            },
            {
              "pitch": 43,
              "velocity": 36,
              "position": 18,
              "duration": 0.6520833333333333
            },
            {
              "pitch": 48,
              "velocity": 36,
              "position": 18.010416666666668,
              "duration": 0.6416666666666667
            },
            {
              "pitch": 52,
              "velocity": 36,
              "position": 18.020833333333332,
              "duration": 0.63125
            },
            {
              "pitch": 43,
              "velocity": 116,
              "position": 18.666666666666668,
              "duration": 0.12083333333333333
            },
            {
              "pitch": 48,
              "velocity": 116,
              "position": 18.677083333333332,
              "duration": 0.12083333333333333
            },
            {
              "pitch": 52,
              "velocity": 116,
              "position": 18.6875,
              "duration": 0.12083333333333333
            },
            {
              "pitch": 43,
              "velocity": 98,
              "position": 20.333333333333332,
              "duration": 0.027083333333333334
            },
            {
              "pitch": 48,
              "velocity": 98,
              "position": 20.34375,
              "duration": 0.027083333333333334
            },
            {
              "pitch": 52,
              "velocity": 98,
              "position": 20.354166666666668,
              "duration": 0.027083333333333334
            },
            {
              "pitch": 43,
              "velocity": 80,
              "position": 20.666666666666668,
              "duration": 0.027083333333333334
            },
            {
              "pitch": 48,
              "velocity": 80,
              "position": 20.677083333333332,
              "duration": 0.027083333333333334
            },
            {
              "pitch": 44,
              "velocity": 116,
              "position": 21,
              "duration": 0.6520833333333333
            },
            {
              "pitch": 47,
              "velocity": 116,
              "position": 21.010416666666668,
              "duration": 0.6416666666666667
            },
            {
              "pitch": 50,
              "velocity": 116,
              "position": 21.020833333333332,
              "duration": 0.63125
            },
            {
              "pitch": 44,
              "velocity": 64,
              "position": 21.666666666666668,
              "duration": 0.31875
            },
            {
              "pitch": 47,
              "velocity": 64,
              "position": 21.677083333333332,
              "duration": 0.30833333333333335
            },
            {
              "pitch": 50,
              "velocity": 64,
              "position": 21.6875,
              "duration": 0.29791666666666666
            },
            {
              "pitch": 43,
              "velocity": 36,
              "position": 22,
              "duration": 0.6520833333333333
            },
            {
              "pitch": 48,
              "velocity": 36,
              "position": 22.010416666666668,
              "duration": 0.6416666666666667
            },
            {
              "pitch": 52,
              "velocity": 36,
              "position": 22.020833333333332,
              "duration": 0.63125
            },
            {
              "pitch": 43,
              "velocity": 116,
              "position": 22.666666666666668,
              "duration": 0.12083333333333333
            },
            {
              "pitch": 48,
              "velocity": 116,
              "position": 22.677083333333332,
              "duration": 0.12083333333333333
            },
            {
              "pitch": 52,
              "velocity": 116,
              "position": 22.6875,
              "duration": 0.12083333333333333
            },
            {
              "pitch": 55,
              "velocity": 98,
              "position": 24.333333333333332,
              "duration": 0.027083333333333334
            },
            {
              "pitch": 67,
              "velocity": 98,
              "position": 24.34375,
              "duration": 0.027083333333333334
            },
            {
              "pitch": 55,
              "velocity": 80,
              "position": 24.666666666666668,
              "duration": 0.027083333333333334
            },
            {
              "pitch": 67,
              "velocity": 80,
              "position": 24.677083333333332,
              "duration": 0.027083333333333334
            },
            {
              "pitch": 55,
              "velocity": 116,
              "position": 25,
              "duration": 0.30833333333333335
            },
            {
              "pitch": 67,
              "velocity": 116,
              "position": 25.010416666666668,
              "duration": 0.30833333333333335
            },
            {
              "pitch": 55,
              "velocity": 46,
              "position": 25.333333333333332,
              "duration": 0.30833333333333335
            },
            {
              "pitch": 67,
              "velocity": 46,
              "position": 25.34375,
              "duration": 0.30833333333333335
            },
            {
              "pitch": 55,
              "velocity": 98,
              "position": 25.666666666666668,
              "duration": 0.13125
            },
            {
              "pitch": 67,
              "velocity": 98,
              "position": 25.677083333333332,
              "duration": 0.13125
            },
            {
              "pitch": 55,
              "velocity": 80,
              "position": 26,
              "duration": 0.027083333333333334
            },
            {
              "pitch": 67,
              "velocity": 80,
              "position": 26.010416666666668,
              "duration": 0.027083333333333334
            },
            {
              "pitch": 55,
              "velocity": 116,
              "position": 26.333333333333332,
              "duration": 0.30833333333333335
            },
            {
              "pitch": 67,
              "velocity": 116,
              "position": 26.34375,
              "duration": 0.30833333333333335
            },
            {
              "pitch": 55,
              "velocity": 46,
              "position": 26.666666666666668,
              "duration": 0.30833333333333335
            },
            {
              "pitch": 67,
              "velocity": 46,
              "position": 26.677083333333332,
              "duration": 0.30833333333333335
            },
            {
              "pitch": 55,
              "velocity": 98,
              "position": 27,
              "duration": 0.31875
            },
            {
              "pitch": 67,
              "velocity": 98,
              "position": 27.010416666666668,
              "duration": 0.31875
            },
            {
              "pitch": 55,
              "velocity": 55,
              "position": 27.333333333333332,
              "duration": 0.31875
            },
            {
              "pitch": 67,
              "velocity": 55,
              "position": 27.34375,
              "duration": 0.31875
            },
            {
              "pitch": 55,
              "velocity": 98,
              "position": 27.666666666666668,
              "duration": 0.13125
            },
            {
              "pitch": 67,
              "velocity": 98,
              "position": 27.677083333333332,
              "duration": 0.13125
            },
            {
              "pitch": 55,
              "velocity": 116,
              "position": 28,
              "duration": 0.30833333333333335
            },
            {
              "pitch": 67,
              "velocity": 116,
              "position": 28.010416666666668,
              "duration": 0.30833333333333335
            },
            {
              "pitch": 55,
              "velocity": 98,
              "position": 28.666666666666668,
              "duration": 0.31875
            },
            {
              "pitch": 67,
              "velocity": 98,
              "position": 28.677083333333332,
              "duration": 0.31875
            },
            {
              "pitch": 55,
              "velocity": 98,
              "position": 29.333333333333332,
              "duration": 0.31875
            },
            {
              "pitch": 67,
              "velocity": 98,
              "position": 29.34375,
              "duration": 0.31875
            },
            {
              "pitch": 55,
              "velocity": 116,
              "position": 30,
              "duration": 0.30833333333333335
            },
            {
              "pitch": 67,
              "velocity": 116,
              "position": 30.010416666666668,
              "duration": 0.30833333333333335
            }
          ]
        },
        "12": {
          "ctab": {
            "srcChannel": 12,
            "name": "Pno",
            "accType": "CHORD2",
            "editable": false,
            "mutedNotes": [],
            "mutedChords": [
              "dim7",
              "dim",
              "minMaj7(9)",
              "minMaj7",
              "min7(11)",
              "min7(9)",
              "min(9)",
              "m7b5",
              "min7",
              "min6",
              "min"
            ],
            "autoStart": false,
            "sourceChordNote": 0,
            "sourceChordType": "Maj",
            "ctb2Low": null,
            "ctb2Main": {
              "ntr": "ROOT_TRANSPOSITION",
              "ntt": "BYPASS",
              "bassOn": false,
              "chordRootUpperLimit": 8,
              "noteLowLimit": 36,
              "noteHighLimit": 79,
              "rtr": "PITCH_SHIFT"
            },
            "ctb2High": null
          },
          "notes": [
            {
              "pitch": 63,
              "velocity": 116,
              "position": 0.6666666666666666,
              "duration": 0.15208333333333332
            },
            {
              "pitch": 60,
              "velocity": 116,
              "position": 0.6666666666666666,
              "duration": 0.31875
            },
            {
              "pitch": 64,
              "velocity": 80,
              "position": 0.8333333333333334,
              "duration": 0.15208333333333332
            },
            {
              "pitch": 67,
              "velocity": 116,
              "position": 0.6666666666666666,
              "duration": 0.31875
            },
            {
              "pitch": 72,
              "velocity": 116,
              "position": 0.6666666666666666,
              "duration": 0.31875
            },
            {
              "pitch": 60,
              "velocity": 116,
              "position": 1.3333333333333333,
              "duration": 0.31875
            },
            {
              "pitch": 65,
              "velocity": 116,
              "position": 1.3333333333333333,
              "duration": 0.31875
            },
            {
              "pitch": 69,
              "velocity": 116,
              "position": 1.3333333333333333,
              "duration": 0.31875
            },
            {
              "pitch": 72,
              "velocity": 116,
              "position": 1.3333333333333333,
              "duration": 0.31875
            },
            {
              "pitch": 63,
              "velocity": 116,
              "position": 2,
              "duration": 0.15208333333333332
            },
            {
              "pitch": 60,
              "velocity": 116,
              "position": 2,
              "duration": 0.6520833333333333
            },
            {
              "pitch": 67,
              "velocity": 116,
              "position": 2,
              "duration": 0.6520833333333333
            },
            {
              "pitch": 72,
              "velocity": 116,
              "position": 2,
              "duration": 0.6520833333333333
            },
            {
              "pitch": 64,
              "velocity": 69,
              "position": 2.1666666666666665,
              "duration": 0.56875
            },
            {
              "pitch": 55,
              "velocity": 98,
              "position": 3,
              "duration": 0.31875
            },
            {
              "pitch": 57,
              "velocity": 80,
              "position": 3.3333333333333335,
              "duration": 0.31875
            },
            {
              "pitch": 54,
              "velocity": 98,
              "position": 3.6666666666666665,
              "duration": 0.31875
            },
            {
              "pitch": 60,
              "velocity": 116,
              "position": 3.6666666666666665,
              "duration": 0.31875
            },
            {
              "pitch": 63,
              "velocity": 116,
              "position": 4.333333333333333,
              "duration": 0.20416666666666666
            },
            {
              "pitch": 53,
              "velocity": 116,
              "position": 4.333333333333333,
              "duration": 0.31875
            },
            {
              "pitch": 57,
              "velocity": 116,
              "position": 4.333333333333333,
              "duration": 0.31875
            },
            {
              "pitch": 62,
              "velocity": 71,
              "position": 4.541666666666667,
              "duration": 0.1625
            },
            {
              "pitch": 53,
              "velocity": 116,
              "position": 5,
              "duration": 0.6520833333333333
            },
            {
              "pitch": 57,
              "velocity": 116,
              "position": 5,
              "duration": 0.6520833333333333
            },
            {
              "pitch": 60,
              "velocity": 116,
              "position": 5,
              "duration": 0.6520833333333333
            },
            {
              "pitch": 53,
              "velocity": 116,
              "position": 6,
              "duration": 0.6520833333333333
            },
            {
              "pitch": 57,
              "velocity": 116,
              "position": 6,
              "duration": 0.6520833333333333
            },
            {
              "pitch": 60,
              "velocity": 116,
              "position": 6,
              "duration": 0.6520833333333333
            },
            {
              "pitch": 67,
              "velocity": 116,
              "position": 7,
              "duration": 0.31875
            },
            {
              "pitch": 79,
              "velocity": 116,
              "position": 7,
              "duration": 0.31875
            },
            {
              "pitch": 69,
              "velocity": 116,
              "position": 7.333333333333333,
              "duration": 0.31875
            },
            {
              "pitch": 81,
              "velocity": 116,
              "position": 7.333333333333333,
              "duration": 0.31875
            },
            {
              "pitch": 72,
              "velocity": 116,
              "position": 7.666666666666667,
              "duration": 0.6520833333333333
            },
            {
              "pitch": 84,
              "velocity": 116,
              "position": 7.666666666666667,
              "duration": 0.6520833333333333
            },
            {
              "pitch": 63,
              "velocity": 116,
              "position": 8.666666666666666,
              "duration": 0.15208333333333332
            },
            {
              "pitch": 60,
              "velocity": 116,
              "position": 8.666666666666666,
              "duration": 0.31875
            },
            {
              "pitch": 64,
              "velocity": 80,
              "position": 8.833333333333334,
              "duration": 0.15208333333333332
            },
            {
              "pitch": 67,
              "velocity": 116,
              "position": 8.666666666666666,
              "duration": 0.31875
            },
            {
              "pitch": 72,
              "velocity": 116,
              "position": 8.666666666666666,
              "duration": 0.31875
            },
            {
              "pitch": 60,
              "velocity": 116,
              "position": 9.333333333333334,
              "duration": 0.31875
            },
            {
              "pitch": 65,
              "velocity": 116,
              "position": 9.333333333333334,
              "duration": 0.31875
            },
            {
              "pitch": 69,
              "velocity": 116,
              "position": 9.333333333333334,
              "duration": 0.31875
            },
            {
              "pitch": 72,
              "velocity": 116,
              "position": 9.333333333333334,
              "duration": 0.31875
            },
            {
              "pitch": 63,
              "velocity": 116,
              "position": 10,
              "duration": 0.15208333333333332
            },
            {
              "pitch": 60,
              "velocity": 116,
              "position": 10,
              "duration": 0.6520833333333333
            },
            {
              "pitch": 67,
              "velocity": 116,
              "position": 10,
              "duration": 0.6520833333333333
            },
            {
              "pitch": 72,
              "velocity": 116,
              "position": 10,
              "duration": 0.6520833333333333
            },
            {
              "pitch": 64,
              "velocity": 91,
              "position": 10.166666666666666,
              "duration": 0.56875
            },
            {
              "pitch": 62,
              "velocity": 116,
              "position": 11,
              "duration": 0.6520833333333333
            },
            {
              "pitch": 65,
              "velocity": 116,
              "position": 11,
              "duration": 0.6520833333333333
            },
            {
              "pitch": 69,
              "velocity": 116,
              "position": 11,
              "duration": 0.6520833333333333
            },
            {
              "pitch": 72,
              "velocity": 116,
              "position": 11,
              "duration": 0.6520833333333333
            },
            {
              "pitch": 56,
              "velocity": 116,
              "position": 12.333333333333334,
              "duration": 0.31875
            },
            {
              "pitch": 62,
              "velocity": 116,
              "position": 12.333333333333334,
              "duration": 0.31875
            },
            {
              "pitch": 67,
              "velocity": 116,
              "position": 12.333333333333334,
              "duration": 0.31875
            },
            {
              "pitch": 56,
              "velocity": 116,
              "position": 13,
              "duration": 0.31875
            },
            {
              "pitch": 62,
              "velocity": 116,
              "position": 13,
              "duration": 0.31875
            },
            {
              "pitch": 65,
              "velocity": 116,
              "position": 13,
              "duration": 0.31875
            },
            {
              "pitch": 55,
              "velocity": 116,
              "position": 13.666666666666666,
              "duration": 0.31875
            },
            {
              "pitch": 60,
              "velocity": 116,
              "position": 13.666666666666666,
              "duration": 0.31875
            },
            {
              "pitch": 64,
              "velocity": 116,
              "position": 13.666666666666666,
              "duration": 0.31875
            },
            {
              "pitch": 55,
              "velocity": 116,
              "position": 14.333333333333334,
              "duration": 0.31875
            },
            {
              "pitch": 60,
              "velocity": 116,
              "position": 14.333333333333334,
              "duration": 0.31875
            },
            {
              "pitch": 64,
              "velocity": 116,
              "position": 14.333333333333334,
              "duration": 0.31875
            },
            {
              "pitch": 56,
              "velocity": 116,
              "position": 15,
              "duration": 0.31875
            },
            {
              "pitch": 60,
              "velocity": 116,
              "position": 15,
              "duration": 0.31875
            },
            {
              "pitch": 65,
              "velocity": 116,
              "position": 15,
              "duration": 0.31875
            },
            {
              "pitch": 60,
              "velocity": 116,
              "position": 15.666666666666666,
              "duration": 0.9854166666666667
            },
            {
              "pitch": 64,
              "velocity": 116,
              "position": 15.666666666666666,
              "duration": 0.9854166666666667
            },
            {
              "pitch": 67,
              "velocity": 116,
              "position": 15.666666666666666,
              "duration": 0.9854166666666667
            },
            {
              "pitch": 63,
              "velocity": 116,
              "position": 16.666666666666668,
              "duration": 0.15208333333333332
            },
            {
              "pitch": 55,
              "velocity": 116,
              "position": 16.666666666666668,
              "duration": 0.31875
            },
            {
              "pitch": 60,
              "velocity": 116,
              "position": 16.666666666666668,
              "duration": 0.31875
            },
            {
              "pitch": 64,
              "velocity": 80,
              "position": 16.833333333333332,
              "duration": 0.15208333333333332
            },
            {
              "pitch": 67,
              "velocity": 116,
              "position": 16.666666666666668,
              "duration": 0.31875
            },
            {
              "pitch": 57,
              "velocity": 116,
              "position": 17.333333333333332,
              "duration": 0.31875
            },
            {
              "pitch": 60,
              "velocity": 116,
              "position": 17.333333333333332,
              "duration": 0.31875
            },
            {
              "pitch": 65,
              "velocity": 116,
              "position": 17.333333333333332,
              "duration": 0.31875
            },
            {
              "pitch": 69,
              "velocity": 116,
              "position": 17.333333333333332,
              "duration": 0.31875
            },
            {
              "pitch": 55,
              "velocity": 116,
              "position": 18,
              "duration": 0.7875
            },
            {
              "pitch": 60,
              "velocity": 116,
              "position": 18,
              "duration": 0.7875
            },
            {
              "pitch": 64,
              "velocity": 116,
              "position": 18,
              "duration": 0.7875
            },
            {
              "pitch": 67,
              "velocity": 116,
              "position": 18,
              "duration": 0.7875
            },
            {
              "pitch": 53,
              "velocity": 116,
              "position": 19,
              "duration": 0.7875
            },
            {
              "pitch": 57,
              "velocity": 116,
              "position": 19,
              "duration": 0.7875
            },
            {
              "pitch": 60,
              "velocity": 116,
              "position": 19,
              "duration": 0.7875
            },
            {
              "pitch": 65,
              "velocity": 116,
              "position": 19,
              "duration": 0.7875
            },
            {
              "pitch": 52,
              "velocity": 116,
              "position": 20,
              "duration": 0.7875
            },
            {
              "pitch": 55,
              "velocity": 116,
              "position": 20,
              "duration": 0.7875
            },
            {
              "pitch": 60,
              "velocity": 116,
              "position": 20,
              "duration": 0.7875
            },
            {
              "pitch": 64,
              "velocity": 116,
              "position": 20,
              "duration": 0.81875
            },
            {
              "pitch": 63,
              "velocity": 116,
              "position": 21,
              "duration": 0.15208333333333332
            },
            {
              "pitch": 62,
              "velocity": 80,
              "position": 21.166666666666668,
              "duration": 0.48541666666666666
            },
            {
              "pitch": 52,
              "velocity": 116,
              "position": 21,
              "duration": 0.7875
            },
            {
              "pitch": 56,
              "velocity": 116,
              "position": 21,
              "duration": 0.7875
            },
            {
              "pitch": 59,
              "velocity": 116,
              "position": 21,
              "duration": 0.7875
            },
            {
              "pitch": 52,
              "velocity": 116,
              "position": 22,
              "duration": 0.7875
            },
            {
              "pitch": 55,
              "velocity": 116,
              "position": 22,
              "duration": 0.7875
            },
            {
              "pitch": 60,
              "velocity": 116,
              "position": 22,
              "duration": 0.7875
            },
            {
              "pitch": 67,
              "velocity": 116,
              "position": 22.666666666666668,
              "duration": 0.45416666666666666
            },
            {
              "pitch": 72,
              "velocity": 116,
              "position": 22.666666666666668,
              "duration": 0.45416666666666666
            },
            {
              "pitch": 76,
              "velocity": 116,
              "position": 22.666666666666668,
              "duration": 0.45416666666666666
            },
            {
              "pitch": 79,
              "velocity": 116,
              "position": 22.666666666666668,
              "duration": 0.45416666666666666
            },
            {
              "pitch": 68,
              "velocity": 116,
              "position": 23.333333333333332,
              "duration": 0.45416666666666666
            },
            {
              "pitch": 72,
              "velocity": 116,
              "position": 23.333333333333332,
              "duration": 0.45416666666666666
            },
            {
              "pitch": 77,
              "velocity": 116,
              "position": 23.333333333333332,
              "duration": 0.45416666666666666
            },
            {
              "pitch": 79,
              "velocity": 116,
              "position": 23.333333333333332,
              "duration": 0.45416666666666666
            },
            {
              "pitch": 67,
              "velocity": 116,
              "position": 24,
              "duration": 1.1208333333333333
            },
            {
              "pitch": 72,
              "velocity": 116,
              "position": 24,
              "duration": 1.1208333333333333
            },
            {
              "pitch": 76,
              "velocity": 116,
              "position": 24,
              "duration": 1.1208333333333333
            },
            {
              "pitch": 79,
              "velocity": 116,
              "position": 24,
              "duration": 1.1208333333333333
            },
            {
              "pitch": 60,
              "velocity": 94,
              "position": 25.333333333333332,
              "duration": 0.1625
            },
            {
              "pitch": 72,
              "velocity": 94,
              "position": 25.333333333333332,
              "duration": 0.1625
            },
            {
              "pitch": 62,
              "velocity": 89,
              "position": 25.666666666666668,
              "duration": 0.1625
            },
            {
              "pitch": 74,
              "velocity": 89,
              "position": 25.666666666666668,
              "duration": 0.1625
            },
            {
              "pitch": 64,
              "velocity": 116,
              "position": 26,
              "duration": 0.5270833333333333
            },
            {
              "pitch": 67,
              "velocity": 116,
              "position": 26,
              "duration": 0.5270833333333333
            },
            {
              "pitch": 72,
              "velocity": 116,
              "position": 26,
              "duration": 0.5270833333333333
            },
            {
              "pitch": 76,
              "velocity": 116,
              "position": 26,
              "duration": 0.5270833333333333
            },
            {
              "pitch": 65,
              "velocity": 116,
              "position": 26.666666666666668,
              "duration": 0.5270833333333333
            },
            {
              "pitch": 69,
              "velocity": 116,
              "position": 26.666666666666668,
              "duration": 0.5270833333333333
            },
            {
              "pitch": 74,
              "velocity": 116,
              "position": 26.666666666666668,
              "duration": 0.5270833333333333
            },
            {
              "pitch": 77,
              "velocity": 116,
              "position": 26.666666666666668,
              "duration": 0.5270833333333333
            },
            {
              "pitch": 67,
              "velocity": 116,
              "position": 27.333333333333332,
              "duration": 0.5270833333333333
            },
            {
              "pitch": 72,
              "velocity": 116,
              "position": 27.333333333333332,
              "duration": 0.5270833333333333
            },
            {
              "pitch": 76,
              "velocity": 116,
              "position": 27.333333333333332,
              "duration": 0.5270833333333333
            },
            {
              "pitch": 79,
              "velocity": 116,
              "position": 27.333333333333332,
              "duration": 0.5270833333333333
            },
            {
              "pitch": 67,
              "velocity": 116,
              "position": 28,
              "duration": 0.33958333333333335
            },
            {
              "pitch": 69,
              "velocity": 116,
              "position": 28,
              "duration": 0.33958333333333335
            },
            {
              "pitch": 72,
              "velocity": 116,
              "position": 28,
              "duration": 0.33958333333333335
            },
            {
              "pitch": 77,
              "velocity": 116,
              "position": 28,
              "duration": 0.33958333333333335
            },
            {
              "pitch": 79,
              "velocity": 116,
              "position": 28,
              "duration": 0.33958333333333335
            },
            {
              "pitch": 67,
              "velocity": 116,
              "position": 28.666666666666668,
              "duration": 0.33958333333333335
            },
            {
              "pitch": 69,
              "velocity": 116,
              "position": 28.666666666666668,
              "duration": 0.33958333333333335
            },
            {
              "pitch": 72,
              "velocity": 116,
              "position": 28.666666666666668,
              "duration": 0.33958333333333335
            },
            {
              "pitch": 77,
              "velocity": 116,
              "position": 28.666666666666668,
              "duration": 0.33958333333333335
            },
            {
              "pitch": 79,
              "velocity": 116,
              "position": 28.666666666666668,
              "duration": 0.33958333333333335
            },
            {
              "pitch": 67,
              "velocity": 116,
              "position": 29.333333333333332,
              "duration": 0.33958333333333335
            },
            {
              "pitch": 69,
              "velocity": 116,
              "position": 29.333333333333332,
              "duration": 0.33958333333333335
            },
            {
              "pitch": 72,
              "velocity": 116,
              "position": 29.333333333333332,
              "duration": 0.33958333333333335
            },
            {
              "pitch": 77,
              "velocity": 116,
              "position": 29.333333333333332,
              "duration": 0.33958333333333335
            },
            {
              "pitch": 79,
              "velocity": 116,
              "position": 29.333333333333332,
              "duration": 0.33958333333333335
            },
            {
              "pitch": 67,
              "velocity": 116,
              "position": 30,
              "duration": 0.33958333333333335
            },
            {
              "pitch": 69,
              "velocity": 116,
              "position": 30,
              "duration": 0.33958333333333335
            },
            {
              "pitch": 72,
              "velocity": 116,
              "position": 30,
              "duration": 0.33958333333333335
            },
            {
              "pitch": 77,
              "velocity": 116,
              "position": 30,
              "duration": 0.33958333333333335
            },
            {
              "pitch": 79,
              "velocity": 116,
              "position": 30,
              "duration": 0.33958333333333335
            }
          ]
        },
        "13": {
          "ctab": {
            "srcChannel": 13,
            "name": "Pno LH",
            "accType": "CHORD2",
            "editable": false,
            "mutedNotes": [],
            "mutedChords": [
              "dim7",
              "dim",
              "minMaj7(9)",
              "minMaj7",
              "min7(11)",
              "min7(9)",
              "min(9)",
              "m7b5",
              "min7",
              "min6",
              "min"
            ],
            "autoStart": false,
            "sourceChordNote": 0,
            "sourceChordType": "Maj",
            "ctb2Low": null,
            "ctb2Main": {
              "ntr": "ROOT_TRANSPOSITION",
              "ntt": "BYPASS",
              "bassOn": false,
              "chordRootUpperLimit": 6,
              "noteLowLimit": 0,
              "noteHighLimit": 127,
              "rtr": "PITCH_SHIFT"
            },
            "ctb2High": null
          },
          "notes": [
            {
              "pitch": 36,
              "velocity": 116,
              "position": 0.010416666666666666,
              "duration": 0.975
            },
            {
              "pitch": 38,
              "velocity": 64,
              "position": 1.3333333333333333,
              "duration": 0.17291666666666666
            },
            {
              "pitch": 39,
              "velocity": 80,
              "position": 1.6666666666666667,
              "duration": 0.17291666666666666
            },
            {
              "pitch": 40,
              "velocity": 116,
              "position": 2,
              "duration": 1.31875
            },
            {
              "pitch": 40,
              "velocity": 80,
              "position": 3.6666666666666665,
              "duration": 0.17291666666666666
            },
            {
              "pitch": 38,
              "velocity": 116,
              "position": 4,
              "duration": 1.31875
            },
            {
              "pitch": 44,
              "velocity": 80,
              "position": 5.666666666666667,
              "duration": 0.17291666666666666
            },
            {
              "pitch": 38,
              "velocity": 80,
              "position": 6.333333333333333,
              "duration": 0.17291666666666666
            },
            {
              "pitch": 43,
              "velocity": 116,
              "position": 6,
              "duration": 1.9854166666666666
            },
            {
              "pitch": 31,
              "velocity": 116,
              "position": 6.666666666666667,
              "duration": 1.31875
            },
            {
              "pitch": 36,
              "velocity": 116,
              "position": 8,
              "duration": 0.9854166666666667
            },
            {
              "pitch": 38,
              "velocity": 116,
              "position": 9,
              "duration": 0.9854166666666667
            },
            {
              "pitch": 40,
              "velocity": 116,
              "position": 10,
              "duration": 0.9854166666666667
            },
            {
              "pitch": 41,
              "velocity": 116,
              "position": 11,
              "duration": 0.9854166666666667
            },
            {
              "pitch": 40,
              "velocity": 116,
              "position": 12,
              "duration": 0.6520833333333333
            },
            {
              "pitch": 40,
              "velocity": 85,
              "position": 12.666666666666666,
              "duration": 0.25625
            },
            {
              "pitch": 44,
              "velocity": 116,
              "position": 13,
              "duration": 0.31875
            },
            {
              "pitch": 45,
              "velocity": 116,
              "position": 13.666666666666666,
              "duration": 0.31875
            },
            {
              "pitch": 45,
              "velocity": 116,
              "position": 14.333333333333334,
              "duration": 0.31875
            },
            {
              "pitch": 44,
              "velocity": 116,
              "position": 15,
              "duration": 0.31875
            },
            {
              "pitch": 43,
              "velocity": 116,
              "position": 15.666666666666666,
              "duration": 0.8708333333333333
            },
            {
              "pitch": 41,
              "velocity": 116,
              "position": 17,
              "duration": 0.6520833333333333
            },
            {
              "pitch": 40,
              "velocity": 116,
              "position": 18,
              "duration": 0.7875
            },
            {
              "pitch": 38,
              "velocity": 116,
              "position": 19,
              "duration": 0.7875
            },
            {
              "pitch": 40,
              "velocity": 116,
              "position": 20,
              "duration": 0.7875
            },
            {
              "pitch": 44,
              "velocity": 116,
              "position": 21,
              "duration": 0.7875
            },
            {
              "pitch": 45,
              "velocity": 116,
              "position": 22,
              "duration": 0.7875
            },
            {
              "pitch": 44,
              "velocity": 116,
              "position": 23,
              "duration": 0.7875
            },
            {
              "pitch": 43,
              "velocity": 116,
              "position": 24,
              "duration": 3.7875
            },
            {
              "pitch": 43,
              "velocity": 116,
              "position": 28,
              "duration": 0.31875
            },
            {
              "pitch": 43,
              "velocity": 116,
              "position": 28.666666666666668,
              "duration": 0.31875
            },
            {
              "pitch": 43,
              "velocity": 116,
              "position": 29.333333333333332,
              "duration": 0.31875
            },
            {
              "pitch": 43,
              "velocity": 116,
              "position": 30,
              "duration": 0.31875
            }
          ]
        },
        "14": {
          "ctab": {
            "srcChannel": 14,
            "name": "Org",
            "accType": "PAD",
            "editable": false,
            "mutedNotes": [],
            "mutedChords": [
              "dim7",
              "dim",
              "minMaj7(9)",
              "minMaj7",
              "min7(11)",
              "min7(9)",
              "min(9)",
              "m7b5",
              "min7",
              "min6",
              "min"
            ],
            "autoStart": false,
            "sourceChordNote": 0,
            "sourceChordType": "Maj",
            "ctb2Low": null,
            "ctb2Main": {
              "ntr": "ROOT_TRANSPOSITION",
              "ntt": "BYPASS",
              "bassOn": false,
              "chordRootUpperLimit": 9,
              "noteLowLimit": 58,
              "noteHighLimit": 79,
              "rtr": "PITCH_SHIFT"
            },
            "ctb2High": null
          },
          "notes": [
            {
              "pitch": 48,
              "velocity": 100,
              "position": 14.333333333333334,
              "duration": 0.31875
            },
            {
              "pitch": 52,
              "velocity": 100,
              "position": 14.333333333333334,
              "duration": 0.31875
            },
            {
              "pitch": 55,
              "velocity": 100,
              "position": 14.333333333333334,
              "duration": 0.31875
            },
            {
              "pitch": 48,
              "velocity": 100,
              "position": 15,
              "duration": 0.31875
            },
            {
              "pitch": 53,
              "velocity": 100,
              "position": 15,
              "duration": 0.31875
            },
            {
              "pitch": 56,
              "velocity": 100,
              "position": 15,
              "duration": 0.31875
            },
            {
              "pitch": 52,
              "velocity": 100,
              "position": 15.666666666666666,
              "duration": 1.31875
            },
            {
              "pitch": 55,
              "velocity": 100,
              "position": 15.666666666666666,
              "duration": 1.31875
            },
            {
              "pitch": 53,
              "velocity": 100,
              "position": 17,
              "duration": 0.9854166666666667
            },
            {
              "pitch": 57,
              "velocity": 100,
              "position": 17,
              "duration": 0.9854166666666667
            },
            {
              "pitch": 52,
              "velocity": 100,
              "position": 18,
              "duration": 0.9854166666666667
            },
            {
              "pitch": 55,
              "velocity": 100,
              "position": 18,
              "duration": 0.9854166666666667
            },
            {
              "pitch": 53,
              "velocity": 100,
              "position": 19,
              "duration": 0.9854166666666667
            },
            {
              "pitch": 57,
              "velocity": 100,
              "position": 19,
              "duration": 0.9854166666666667
            },
            {
              "pitch": 48,
              "velocity": 100,
              "position": 15.666666666666666,
              "duration": 5.31875
            },
            {
              "pitch": 52,
              "velocity": 100,
              "position": 20,
              "duration": 0.9854166666666667
            },
            {
              "pitch": 55,
              "velocity": 100,
              "position": 20,
              "duration": 0.9854166666666667
            },
            {
              "pitch": 47,
              "velocity": 100,
              "position": 21,
              "duration": 0.9854166666666667
            },
            {
              "pitch": 50,
              "velocity": 100,
              "position": 21,
              "duration": 0.9854166666666667
            },
            {
              "pitch": 56,
              "velocity": 100,
              "position": 21,
              "duration": 0.9854166666666667
            },
            {
              "pitch": 52,
              "velocity": 100,
              "position": 22,
              "duration": 0.9854166666666667
            },
            {
              "pitch": 57,
              "velocity": 100,
              "position": 22,
              "duration": 0.9854166666666667
            },
            {
              "pitch": 60,
              "velocity": 100,
              "position": 22.927083333333332,
              "duration": 0.18333333333333332
            },
            {
              "pitch": 62,
              "velocity": 100,
              "position": 22.947916666666668,
              "duration": 0.23541666666666666
            },
            {
              "pitch": 64,
              "velocity": 100,
              "position": 23.135416666666668,
              "duration": 0.11041666666666666
            },
            {
              "pitch": 65,
              "velocity": 100,
              "position": 23.208333333333332,
              "duration": 0.11041666666666666
            },
            {
              "pitch": 67,
              "velocity": 100,
              "position": 23.28125,
              "duration": 0.08958333333333333
            },
            {
              "pitch": 69,
              "velocity": 100,
              "position": 23.34375,
              "duration": 0.08958333333333333
            },
            {
              "pitch": 71,
              "velocity": 100,
              "position": 23.395833333333332,
              "duration": 0.1
            },
            {
              "pitch": 72,
              "velocity": 100,
              "position": 23.458333333333332,
              "duration": 0.08958333333333333
            },
            {
              "pitch": 74,
              "velocity": 100,
              "position": 23.520833333333332,
              "duration": 0.1
            },
            {
              "pitch": 76,
              "velocity": 100,
              "position": 23.583333333333332,
              "duration": 0.1
            },
            {
              "pitch": 77,
              "velocity": 100,
              "position": 23.65625,
              "duration": 0.1
            },
            {
              "pitch": 79,
              "velocity": 100,
              "position": 23.729166666666668,
              "duration": 0.1
            },
            {
              "pitch": 81,
              "velocity": 100,
              "position": 23.802083333333332,
              "duration": 0.1
            },
            {
              "pitch": 48,
              "velocity": 100,
              "position": 22,
              "duration": 1.9854166666666666
            },
            {
              "pitch": 83,
              "velocity": 100,
              "position": 23.864583333333332,
              "duration": 0.14166666666666666
            },
            {
              "pitch": 52,
              "velocity": 100,
              "position": 24,
              "duration": 3.9854166666666666
            },
            {
              "pitch": 55,
              "velocity": 100,
              "position": 24,
              "duration": 3.9854166666666666
            },
            {
              "pitch": 48,
              "velocity": 100,
              "position": 24,
              "duration": 6.31875
            },
            {
              "pitch": 53,
              "velocity": 100,
              "position": 28,
              "duration": 2.31875
            },
            {
              "pitch": 57,
              "velocity": 100,
              "position": 28,
              "duration": 2.31875
            },
            {
              "pitch": 72,
              "velocity": 100,
              "position": 24,
              "duration": 6.31875
            },
            {
              "pitch": 84,
              "velocity": 100,
              "position": 24,
              "duration": 6.31875
            }
          ]
        },
        "15": {
          "ctab": {
            "srcChannel": 15,
            "name": "Cho",
            "accType": "PHRASE1",
            "editable": false,
            "mutedNotes": [],
            "mutedChords": [
              "dim7",
              "dim",
              "minMaj7(9)",
              "minMaj7",
              "min7(11)",
              "min7(9)",
              "min(9)",
              "m7b5",
              "min7",
              "min6",
              "min"
            ],
            "autoStart": false,
            "sourceChordNote": 0,
            "sourceChordType": "Maj",
            "ctb2Low": null,
            "ctb2Main": {
              "ntr": "ROOT_TRANSPOSITION",
              "ntt": "BYPASS",
              "bassOn": false,
              "chordRootUpperLimit": 6,
              "noteLowLimit": 60,
              "noteHighLimit": 127,
              "rtr": "PITCH_SHIFT"
            },
            "ctb2High": null
          },
          "notes": [
            {
              "pitch": 52,
              "velocity": 48,
              "position": 15.666666666666666,
              "duration": 1.31875
            },
            {
              "pitch": 55,
              "velocity": 48,
              "position": 15.666666666666666,
              "duration": 1.31875
            },
            {
              "pitch": 53,
              "velocity": 48,
              "position": 17,
              "duration": 0.9854166666666667
            },
            {
              "pitch": 57,
              "velocity": 48,
              "position": 17,
              "duration": 0.9854166666666667
            },
            {
              "pitch": 55,
              "velocity": 48,
              "position": 18,
              "duration": 0.9854166666666667
            },
            {
              "pitch": 64,
              "velocity": 48,
              "position": 18,
              "duration": 0.9854166666666667
            },
            {
              "pitch": 60,
              "velocity": 48,
              "position": 15.666666666666666,
              "duration": 3.31875
            },
            {
              "pitch": 57,
              "velocity": 48,
              "position": 19,
              "duration": 0.9854166666666667
            },
            {
              "pitch": 62,
              "velocity": 48,
              "position": 19,
              "duration": 0.9854166666666667
            },
            {
              "pitch": 65,
              "velocity": 48,
              "position": 19,
              "duration": 0.9854166666666667
            },
            {
              "pitch": 60,
              "velocity": 48,
              "position": 20,
              "duration": 0.9854166666666667
            },
            {
              "pitch": 64,
              "velocity": 48,
              "position": 20,
              "duration": 0.9854166666666667
            },
            {
              "pitch": 67,
              "velocity": 48,
              "position": 20,
              "duration": 0.9854166666666667
            },
            {
              "pitch": 62,
              "velocity": 48,
              "position": 21,
              "duration": 0.9854166666666667
            },
            {
              "pitch": 68,
              "velocity": 48,
              "position": 21,
              "duration": 0.9854166666666667
            },
            {
              "pitch": 71,
              "velocity": 48,
              "position": 21,
              "duration": 0.9854166666666667
            },
            {
              "pitch": 64,
              "velocity": 48,
              "position": 22,
              "duration": 0.9854166666666667
            },
            {
              "pitch": 69,
              "velocity": 48,
              "position": 22,
              "duration": 0.9854166666666667
            },
            {
              "pitch": 72,
              "velocity": 48,
              "position": 22,
              "duration": 0.9854166666666667
            },
            {
              "pitch": 65,
              "velocity": 48,
              "position": 23,
              "duration": 0.9854166666666667
            },
            {
              "pitch": 68,
              "velocity": 48,
              "position": 23,
              "duration": 0.9854166666666667
            },
            {
              "pitch": 74,
              "velocity": 48,
              "position": 23,
              "duration": 0.9854166666666667
            },
            {
              "pitch": 67,
              "velocity": 48,
              "position": 24,
              "duration": 3.9854166666666666
            },
            {
              "pitch": 76,
              "velocity": 48,
              "position": 24,
              "duration": 3.9854166666666666
            },
            {
              "pitch": 69,
              "velocity": 48,
              "position": 28,
              "duration": 0.49583333333333335
            },
            {
              "pitch": 72,
              "velocity": 48,
              "position": 24,
              "duration": 4.495833333333334
            },
            {
              "pitch": 77,
              "velocity": 48,
              "position": 28,
              "duration": 0.49583333333333335
            },
            {
              "pitch": 69,
              "velocity": 48,
              "position": 28.666666666666668,
              "duration": 0.49583333333333335
            },
            {
              "pitch": 72,
              "velocity": 48,
              "position": 28.666666666666668,
              "duration": 0.49583333333333335
            },
            {
              "pitch": 77,
              "velocity": 48,
              "position": 28.666666666666668,
              "duration": 0.49583333333333335
            },
            {
              "pitch": 69,
              "velocity": 48,
              "position": 29.333333333333332,
              "duration": 0.49583333333333335
            },
            {
              "pitch": 72,
              "velocity": 48,
              "position": 29.333333333333332,
              "duration": 0.49583333333333335
            },
            {
              "pitch": 77,
              "velocity": 48,
              "position": 29.333333333333332,
              "duration": 0.49583333333333335
            },
            {
              "pitch": 69,
              "velocity": 48,
              "position": 30,
              "duration": 0.38125
            },
            {
              "pitch": 72,
              "velocity": 48,
              "position": 30,
              "duration": 0.38125
            },
            {
              "pitch": 77,
              "velocity": 48,
              "position": 30,
              "duration": 0.38125
            }
          ]
        }
      }
    },
    "Ending_C": {
      "type": "Ending_C",
      "sizeInBeats": 20,
      "channels": {
        "1": {
          "ctab": {
            "srcChannel": 1,
            "name": "Bass",
            "accType": "BASS",
            "editable": false,
            "mutedNotes": [],
            "mutedChords": [
              "1+2+5",
              "sus4",
              "1+5",
              "1+8",
              "7aug",
              "Maj7aug",
              "7(#9)",
              "7(b13)",
              "7(b9)",
              "7(13)",
              "7#11",
              "7(9)",
              "7b5",
              "7sus4",
              "7th",
              "aug",
              "Maj6(9)",
              "Maj7(9)",
              "Maj(9)",
              "Maj7#11",
              "Maj7",
              "Maj6",
              "Maj"
            ],
            "autoStart": false,
            "sourceChordNote": 0,
            "sourceChordType": "Maj",
            "ctb2Low": null,
            "ctb2Main": {
              "ntr": "ROOT_TRANSPOSITION",
              "ntt": "BYPASS",
              "bassOn": false,
              "chordRootUpperLimit": 8,
              "noteLowLimit": 28,
              "noteHighLimit": 127,
              "rtr": "PITCH_SHIFT"
            },
            "ctb2High": null
          },
          "notes": [
            {
              "pitch": 31,
              "velocity": 74,
              "position": 0,
              "duration": 1.2875
            },
            {
              "pitch": 38,
              "velocity": 57,
              "position": 1.3333333333333333,
              "duration": 0.13125
            },
            {
              "pitch": 38,
              "velocity": 60,
              "position": 1.6666666666666667,
              "duration": 0.13125
            },
            {
              "pitch": 38,
              "velocity": 74,
              "position": 2,
              "duration": 0.6208333333333333
            },
            {
              "pitch": 36,
              "velocity": 74,
              "position": 2.6666666666666665,
              "duration": 0.6208333333333333
            },
            {
              "pitch": 31,
              "velocity": 74,
              "position": 3.3333333333333335,
              "duration": 0.6208333333333333
            },
            {
              "pitch": 30,
              "velocity": 74,
              "position": 4,
              "duration": 1.2875
            },
            {
              "pitch": 48,
              "velocity": 60,
              "position": 5.333333333333333,
              "duration": 0.13125
            },
            {
              "pitch": 48,
              "velocity": 60,
              "position": 5.666666666666667,
              "duration": 0.13125
            },
            {
              "pitch": 48,
              "velocity": 74,
              "position": 6,
              "duration": 0.31875
            },
            {
              "pitch": 44,
              "velocity": 60,
              "position": 6.333333333333333,
              "duration": 0.31875
            },
            {
              "pitch": 39,
              "velocity": 42,
              "position": 6.666666666666667,
              "duration": 0.31875
            },
            {
              "pitch": 36,
              "velocity": 74,
              "position": 7,
              "duration": 0.31875
            },
            {
              "pitch": 32,
              "velocity": 60,
              "position": 7.333333333333333,
              "duration": 0.31875
            },
            {
              "pitch": 28,
              "velocity": 60,
              "position": 7.666666666666667,
              "duration": 0.31875
            },
            {
              "pitch": 28,
              "velocity": 74,
              "position": 8,
              "duration": 0.7145833333333333
            },
            {
              "pitch": 28,
              "velocity": 74,
              "position": 9,
              "duration": 0.7145833333333333
            },
            {
              "pitch": 28,
              "velocity": 74,
              "position": 10,
              "duration": 0.7145833333333333
            },
            {
              "pitch": 28,
              "velocity": 74,
              "position": 11,
              "duration": 0.7145833333333333
            },
            {
              "pitch": 31,
              "velocity": 74,
              "position": 12.333333333333334,
              "duration": 0.2875
            },
            {
              "pitch": 31,
              "velocity": 74,
              "position": 13,
              "duration": 0.2875
            },
            {
              "pitch": 31,
              "velocity": 62,
              "position": 13.666666666666666,
              "duration": 0.2875
            },
            {
              "pitch": 31,
              "velocity": 74,
              "position": 14.333333333333334,
              "duration": 1.6208333333333333
            },
            {
              "pitch": 24,
              "velocity": 74,
              "position": 16,
              "duration": 0.7145833333333333
            }
          ]
        },
        "2": {
          "ctab": {
            "srcChannel": 2,
            "name": "Gt",
            "accType": "CHORD1",
            "editable": false,
            "mutedNotes": [],
            "mutedChords": [
              "1+2+5",
              "sus4",
              "1+5",
              "1+8",
              "7aug",
              "Maj7aug",
              "7(#9)",
              "7(b13)",
              "7(b9)",
              "7(13)",
              "7#11",
              "7(9)",
              "7b5",
              "7sus4",
              "7th",
              "aug",
              "Maj6(9)",
              "Maj7(9)",
              "Maj(9)",
              "Maj7#11",
              "Maj7",
              "Maj6",
              "Maj"
            ],
            "autoStart": false,
            "sourceChordNote": 0,
            "sourceChordType": "Maj",
            "ctb2Low": null,
            "ctb2Main": {
              "ntr": "ROOT_TRANSPOSITION",
              "ntt": "BYPASS",
              "bassOn": false,
              "chordRootUpperLimit": 11,
              "noteLowLimit": 54,
              "noteHighLimit": 127,
              "rtr": "PITCH_SHIFT"
            },
            "ctb2High": null
          },
          "notes": [
            {
              "pitch": 60,
              "velocity": 98,
              "position": 0.3333333333333333,
              "duration": 0.027083333333333334
            },
            {
              "pitch": 72,
              "velocity": 98,
              "position": 0.34375,
              "duration": 0.027083333333333334
            },
            {
              "pitch": 60,
              "velocity": 80,
              "position": 0.6666666666666666,
              "duration": 0.027083333333333334
            },
            {
              "pitch": 72,
              "velocity": 80,
              "position": 0.6770833333333334,
              "duration": 0.027083333333333334
            },
            {
              "pitch": 60,
              "velocity": 116,
              "position": 1,
              "duration": 0.30833333333333335
            },
            {
              "pitch": 72,
              "velocity": 116,
              "position": 1.0104166666666667,
              "duration": 0.30833333333333335
            },
            {
              "pitch": 60,
              "velocity": 46,
              "position": 1.3333333333333333,
              "duration": 0.30833333333333335
            },
            {
              "pitch": 72,
              "velocity": 46,
              "position": 1.34375,
              "duration": 0.30833333333333335
            },
            {
              "pitch": 60,
              "velocity": 98,
              "position": 1.6666666666666667,
              "duration": 0.13125
            },
            {
              "pitch": 72,
              "velocity": 98,
              "position": 1.6770833333333333,
              "duration": 0.13125
            },
            {
              "pitch": 60,
              "velocity": 80,
              "position": 2,
              "duration": 0.027083333333333334
            },
            {
              "pitch": 72,
              "velocity": 80,
              "position": 2.0104166666666665,
              "duration": 0.027083333333333334
            },
            {
              "pitch": 60,
              "velocity": 116,
              "position": 2.3333333333333335,
              "duration": 0.30833333333333335
            },
            {
              "pitch": 72,
              "velocity": 116,
              "position": 2.34375,
              "duration": 0.30833333333333335
            },
            {
              "pitch": 60,
              "velocity": 46,
              "position": 2.6666666666666665,
              "duration": 0.30833333333333335
            },
            {
              "pitch": 72,
              "velocity": 46,
              "position": 2.6770833333333335,
              "duration": 0.30833333333333335
            },
            {
              "pitch": 60,
              "velocity": 98,
              "position": 3,
              "duration": 0.31875
            },
            {
              "pitch": 72,
              "velocity": 98,
              "position": 3.0104166666666665,
              "duration": 0.31875
            },
            {
              "pitch": 60,
              "velocity": 55,
              "position": 3.3333333333333335,
              "duration": 0.31875
            },
            {
              "pitch": 72,
              "velocity": 55,
              "position": 3.34375,
              "duration": 0.31875
            },
            {
              "pitch": 60,
              "velocity": 98,
              "position": 3.6666666666666665,
              "duration": 0.13125
            },
            {
              "pitch": 72,
              "velocity": 98,
              "position": 3.6770833333333335,
              "duration": 0.13125
            },
            {
              "pitch": 60,
              "velocity": 98,
              "position": 4.333333333333333,
              "duration": 0.027083333333333334
            },
            {
              "pitch": 72,
              "velocity": 98,
              "position": 4.34375,
              "duration": 0.027083333333333334
            },
            {
              "pitch": 60,
              "velocity": 80,
              "position": 4.666666666666667,
              "duration": 0.027083333333333334
            },
            {
              "pitch": 72,
              "velocity": 80,
              "position": 4.677083333333333,
              "duration": 0.027083333333333334
            },
            {
              "pitch": 60,
              "velocity": 116,
              "position": 5,
              "duration": 0.30833333333333335
            },
            {
              "pitch": 72,
              "velocity": 116,
              "position": 5.010416666666667,
              "duration": 0.30833333333333335
            },
            {
              "pitch": 60,
              "velocity": 46,
              "position": 5.333333333333333,
              "duration": 0.30833333333333335
            },
            {
              "pitch": 72,
              "velocity": 46,
              "position": 5.34375,
              "duration": 0.30833333333333335
            },
            {
              "pitch": 60,
              "velocity": 98,
              "position": 5.666666666666667,
              "duration": 0.13125
            },
            {
              "pitch": 72,
              "velocity": 98,
              "position": 5.677083333333333,
              "duration": 0.13125
            },
            {
              "pitch": 60,
              "velocity": 80,
              "position": 6,
              "duration": 0.027083333333333334
            },
            {
              "pitch": 72,
              "velocity": 80,
              "position": 6.010416666666667,
              "duration": 0.027083333333333334
            },
            {
              "pitch": 60,
              "velocity": 116,
              "position": 6.333333333333333,
              "duration": 0.30833333333333335
            },
            {
              "pitch": 72,
              "velocity": 116,
              "position": 6.34375,
              "duration": 0.30833333333333335
            },
            {
              "pitch": 60,
              "velocity": 46,
              "position": 6.666666666666667,
              "duration": 0.30833333333333335
            },
            {
              "pitch": 72,
              "velocity": 46,
              "position": 6.677083333333333,
              "duration": 0.30833333333333335
            },
            {
              "pitch": 60,
              "velocity": 98,
              "position": 7,
              "duration": 0.31875
            },
            {
              "pitch": 72,
              "velocity": 98,
              "position": 7.010416666666667,
              "duration": 0.31875
            },
            {
              "pitch": 60,
              "velocity": 55,
              "position": 7.333333333333333,
              "duration": 0.31875
            },
            {
              "pitch": 72,
              "velocity": 55,
              "position": 7.34375,
              "duration": 0.31875
            },
            {
              "pitch": 60,
              "velocity": 98,
              "position": 7.666666666666667,
              "duration": 0.13125
            },
            {
              "pitch": 72,
              "velocity": 98,
              "position": 7.677083333333333,
              "duration": 0.13125
            },
            {
              "pitch": 44,
              "velocity": 116,
              "position": 8.020833333333334,
              "duration": 0.63125
            },
            {
              "pitch": 48,
              "velocity": 116,
              "position": 8.020833333333334,
              "duration": 0.63125
            },
            {
              "pitch": 53,
              "velocity": 116,
              "position": 8.020833333333334,
              "duration": 0.63125
            },
            {
              "pitch": 43,
              "velocity": 116,
              "position": 9.020833333333334,
              "duration": 0.63125
            },
            {
              "pitch": 48,
              "velocity": 116,
              "position": 9.020833333333334,
              "duration": 0.63125
            },
            {
              "pitch": 51,
              "velocity": 116,
              "position": 9.020833333333334,
              "duration": 0.63125
            },
            {
              "pitch": 44,
              "velocity": 116,
              "position": 10.020833333333334,
              "duration": 0.63125
            },
            {
              "pitch": 48,
              "velocity": 116,
              "position": 10.020833333333334,
              "duration": 0.63125
            },
            {
              "pitch": 53,
              "velocity": 116,
              "position": 10.020833333333334,
              "duration": 0.63125
            },
            {
              "pitch": 44,
              "velocity": 116,
              "position": 11.020833333333334,
              "duration": 0.63125
            },
            {
              "pitch": 48,
              "velocity": 116,
              "position": 11.020833333333334,
              "duration": 0.63125
            },
            {
              "pitch": 51,
              "velocity": 116,
              "position": 11.020833333333334,
              "duration": 0.63125
            },
            {
              "pitch": 43,
              "velocity": 116,
              "position": 12.354166666666666,
              "duration": 0.29791666666666666
            },
            {
              "pitch": 48,
              "velocity": 116,
              "position": 12.354166666666666,
              "duration": 0.29791666666666666
            },
            {
              "pitch": 51,
              "velocity": 116,
              "position": 12.354166666666666,
              "duration": 0.29791666666666666
            },
            {
              "pitch": 42,
              "velocity": 116,
              "position": 13.020833333333334,
              "duration": 0.29791666666666666
            },
            {
              "pitch": 48,
              "velocity": 116,
              "position": 13.020833333333334,
              "duration": 0.29791666666666666
            },
            {
              "pitch": 50,
              "velocity": 116,
              "position": 13.020833333333334,
              "duration": 0.29791666666666666
            },
            {
              "pitch": 43,
              "velocity": 116,
              "position": 13.6875,
              "duration": 0.29791666666666666
            },
            {
              "pitch": 48,
              "velocity": 116,
              "position": 13.6875,
              "duration": 0.29791666666666666
            },
            {
              "pitch": 53,
              "velocity": 116,
              "position": 13.6875,
              "duration": 0.29791666666666666
            },
            {
              "pitch": 43,
              "velocity": 116,
              "position": 14.354166666666666,
              "duration": 0.9645833333333333
            },
            {
              "pitch": 48,
              "velocity": 116,
              "position": 14.354166666666666,
              "duration": 0.9645833333333333
            },
            {
              "pitch": 53,
              "velocity": 116,
              "position": 14.354166666666666,
              "duration": 0.9645833333333333
            },
            {
              "pitch": 55,
              "velocity": 116,
              "position": 15.34375,
              "duration": 0.30833333333333335
            },
            {
              "pitch": 58,
              "velocity": 80,
              "position": 15.666666666666666,
              "duration": 0.32916666666666666
            },
            {
              "pitch": 43,
              "velocity": 116,
              "position": 16,
              "duration": 0.63125
            },
            {
              "pitch": 51,
              "velocity": 116,
              "position": 16,
              "duration": 0.63125
            },
            {
              "pitch": 60,
              "velocity": 116,
              "position": 16.010416666666668,
              "duration": 0.6416666666666667
            }
          ]
        },
        "3": {
          "ctab": {
            "srcChannel": 3,
            "name": "Pno",
            "accType": "CHORD2",
            "editable": false,
            "mutedNotes": [],
            "mutedChords": [
              "1+2+5",
              "sus4",
              "1+5",
              "1+8",
              "7aug",
              "Maj7aug",
              "7(#9)",
              "7(b13)",
              "7(b9)",
              "7(13)",
              "7#11",
              "7(9)",
              "7b5",
              "7sus4",
              "7th",
              "aug",
              "Maj6(9)",
              "Maj7(9)",
              "Maj(9)",
              "Maj7#11",
              "Maj7",
              "Maj6",
              "Maj"
            ],
            "autoStart": false,
            "sourceChordNote": 0,
            "sourceChordType": "Maj",
            "ctb2Low": null,
            "ctb2Main": {
              "ntr": "ROOT_TRANSPOSITION",
              "ntt": "BYPASS",
              "bassOn": false,
              "chordRootUpperLimit": 8,
              "noteLowLimit": 36,
              "noteHighLimit": 79,
              "rtr": "PITCH_SHIFT"
            },
            "ctb2High": null
          },
          "notes": [
            {
              "pitch": 72,
              "velocity": 116,
              "position": 0.010416666666666666,
              "duration": 1.1
            },
            {
              "pitch": 75,
              "velocity": 116,
              "position": 0.010416666666666666,
              "duration": 1.1
            },
            {
              "pitch": 79,
              "velocity": 116,
              "position": 0.010416666666666666,
              "duration": 1.1
            },
            {
              "pitch": 84,
              "velocity": 116,
              "position": 0.010416666666666666,
              "duration": 1.1
            },
            {
              "pitch": 60,
              "velocity": 94,
              "position": 1.3333333333333333,
              "duration": 0.1625
            },
            {
              "pitch": 72,
              "velocity": 94,
              "position": 1.3333333333333333,
              "duration": 0.1625
            },
            {
              "pitch": 62,
              "velocity": 89,
              "position": 1.6666666666666667,
              "duration": 0.1625
            },
            {
              "pitch": 74,
              "velocity": 89,
              "position": 1.6666666666666667,
              "duration": 0.1625
            },
            {
              "pitch": 63,
              "velocity": 116,
              "position": 2,
              "duration": 0.5270833333333333
            },
            {
              "pitch": 67,
              "velocity": 116,
              "position": 2,
              "duration": 0.5270833333333333
            },
            {
              "pitch": 72,
              "velocity": 116,
              "position": 2,
              "duration": 0.5270833333333333
            },
            {
              "pitch": 75,
              "velocity": 116,
              "position": 2,
              "duration": 0.5270833333333333
            },
            {
              "pitch": 65,
              "velocity": 116,
              "position": 2.6666666666666665,
              "duration": 0.5270833333333333
            },
            {
              "pitch": 69,
              "velocity": 116,
              "position": 2.6666666666666665,
              "duration": 0.5270833333333333
            },
            {
              "pitch": 72,
              "velocity": 116,
              "position": 2.6666666666666665,
              "duration": 0.5270833333333333
            },
            {
              "pitch": 77,
              "velocity": 116,
              "position": 2.6666666666666665,
              "duration": 0.5270833333333333
            },
            {
              "pitch": 67,
              "velocity": 116,
              "position": 3.3333333333333335,
              "duration": 0.5270833333333333
            },
            {
              "pitch": 72,
              "velocity": 116,
              "position": 3.3333333333333335,
              "duration": 0.5270833333333333
            },
            {
              "pitch": 75,
              "velocity": 116,
              "position": 3.3333333333333335,
              "duration": 0.5270833333333333
            },
            {
              "pitch": 79,
              "velocity": 116,
              "position": 3.3333333333333335,
              "duration": 0.5270833333333333
            },
            {
              "pitch": 68,
              "velocity": 116,
              "position": 4,
              "duration": 1.19375
            },
            {
              "pitch": 72,
              "velocity": 116,
              "position": 4,
              "duration": 1.19375
            },
            {
              "pitch": 75,
              "velocity": 116,
              "position": 4,
              "duration": 1.19375
            },
            {
              "pitch": 80,
              "velocity": 116,
              "position": 4,
              "duration": 1.19375
            },
            {
              "pitch": 60,
              "velocity": 94,
              "position": 5.333333333333333,
              "duration": 0.1625
            },
            {
              "pitch": 72,
              "velocity": 94,
              "position": 5.333333333333333,
              "duration": 0.1625
            },
            {
              "pitch": 62,
              "velocity": 89,
              "position": 5.666666666666667,
              "duration": 0.1625
            },
            {
              "pitch": 74,
              "velocity": 89,
              "position": 5.666666666666667,
              "duration": 0.1625
            },
            {
              "pitch": 63,
              "velocity": 116,
              "position": 6,
              "duration": 0.5270833333333333
            },
            {
              "pitch": 68,
              "velocity": 116,
              "position": 6,
              "duration": 0.5270833333333333
            },
            {
              "pitch": 72,
              "velocity": 116,
              "position": 6,
              "duration": 0.5270833333333333
            },
            {
              "pitch": 75,
              "velocity": 116,
              "position": 6,
              "duration": 0.5270833333333333
            },
            {
              "pitch": 68,
              "velocity": 116,
              "position": 6.666666666666667,
              "duration": 0.5270833333333333
            },
            {
              "pitch": 72,
              "velocity": 116,
              "position": 6.666666666666667,
              "duration": 0.5270833333333333
            },
            {
              "pitch": 75,
              "velocity": 116,
              "position": 6.666666666666667,
              "duration": 0.5270833333333333
            },
            {
              "pitch": 80,
              "velocity": 116,
              "position": 6.666666666666667,
              "duration": 0.5270833333333333
            },
            {
              "pitch": 68,
              "velocity": 116,
              "position": 7.333333333333333,
              "duration": 0.5270833333333333
            },
            {
              "pitch": 72,
              "velocity": 116,
              "position": 7.333333333333333,
              "duration": 0.5270833333333333
            },
            {
              "pitch": 75,
              "velocity": 116,
              "position": 7.333333333333333,
              "duration": 0.5270833333333333
            },
            {
              "pitch": 80,
              "velocity": 116,
              "position": 7.333333333333333,
              "duration": 0.5270833333333333
            },
            {
              "pitch": 68,
              "velocity": 116,
              "position": 8,
              "duration": 0.7875
            },
            {
              "pitch": 72,
              "velocity": 116,
              "position": 8,
              "duration": 0.7875
            },
            {
              "pitch": 77,
              "velocity": 116,
              "position": 8,
              "duration": 0.7875
            },
            {
              "pitch": 80,
              "velocity": 116,
              "position": 8,
              "duration": 0.7875
            },
            {
              "pitch": 72,
              "velocity": 116,
              "position": 9,
              "duration": 0.7875
            },
            {
              "pitch": 75,
              "velocity": 116,
              "position": 9,
              "duration": 0.7875
            },
            {
              "pitch": 79,
              "velocity": 116,
              "position": 9,
              "duration": 0.7875
            },
            {
              "pitch": 68,
              "velocity": 116,
              "position": 10,
              "duration": 0.7875
            },
            {
              "pitch": 72,
              "velocity": 116,
              "position": 10,
              "duration": 0.7875
            },
            {
              "pitch": 77,
              "velocity": 116,
              "position": 10,
              "duration": 0.7875
            },
            {
              "pitch": 68,
              "velocity": 116,
              "position": 11,
              "duration": 0.7875
            },
            {
              "pitch": 72,
              "velocity": 116,
              "position": 11,
              "duration": 0.7875
            },
            {
              "pitch": 75,
              "velocity": 116,
              "position": 11,
              "duration": 0.7875
            },
            {
              "pitch": 67,
              "velocity": 116,
              "position": 12.333333333333334,
              "duration": 0.45416666666666666
            },
            {
              "pitch": 72,
              "velocity": 116,
              "position": 12.333333333333334,
              "duration": 0.45416666666666666
            },
            {
              "pitch": 75,
              "velocity": 116,
              "position": 12.333333333333334,
              "duration": 0.45416666666666666
            },
            {
              "pitch": 66,
              "velocity": 116,
              "position": 13,
              "duration": 0.45416666666666666
            },
            {
              "pitch": 72,
              "velocity": 116,
              "position": 13,
              "duration": 0.45416666666666666
            },
            {
              "pitch": 74,
              "velocity": 116,
              "position": 13,
              "duration": 0.45416666666666666
            },
            {
              "pitch": 65,
              "velocity": 116,
              "position": 13.666666666666666,
              "duration": 0.45416666666666666
            },
            {
              "pitch": 67,
              "velocity": 116,
              "position": 13.666666666666666,
              "duration": 0.45416666666666666
            },
            {
              "pitch": 72,
              "velocity": 116,
              "position": 13.666666666666666,
              "duration": 0.45416666666666666
            },
            {
              "pitch": 65,
              "velocity": 116,
              "position": 14.333333333333334,
              "duration": 0.7875
            },
            {
              "pitch": 67,
              "velocity": 116,
              "position": 14.333333333333334,
              "duration": 0.7875
            },
            {
              "pitch": 72,
              "velocity": 116,
              "position": 14.333333333333334,
              "duration": 0.7875
            },
            {
              "pitch": 67,
              "velocity": 116,
              "position": 15.333333333333334,
              "duration": 0.31875
            },
            {
              "pitch": 79,
              "velocity": 116,
              "position": 15.333333333333334,
              "duration": 0.31875
            },
            {
              "pitch": 70,
              "velocity": 116,
              "position": 15.666666666666666,
              "duration": 0.31875
            },
            {
              "pitch": 82,
              "velocity": 116,
              "position": 15.666666666666666,
              "duration": 0.31875
            },
            {
              "pitch": 72,
              "velocity": 116,
              "position": 16,
              "duration": 0.44375
            },
            {
              "pitch": 84,
              "velocity": 116,
              "position": 16,
              "duration": 0.44375
            },
            {
              "pitch": 55,
              "velocity": 97,
              "position": 16,
              "duration": 0.45416666666666666
            },
            {
              "pitch": 60,
              "velocity": 97,
              "position": 16,
              "duration": 0.45416666666666666
            },
            {
              "pitch": 63,
              "velocity": 97,
              "position": 16,
              "duration": 0.45416666666666666
            }
          ]
        },
        "4": {
          "ctab": {
            "srcChannel": 4,
            "name": "Pno LH",
            "accType": "CHORD2",
            "editable": false,
            "mutedNotes": [],
            "mutedChords": [
              "1+2+5",
              "sus4",
              "1+5",
              "1+8",
              "7aug",
              "Maj7aug",
              "7(#9)",
              "7(b13)",
              "7(b9)",
              "7(13)",
              "7#11",
              "7(9)",
              "7b5",
              "7sus4",
              "7th",
              "aug",
              "Maj6(9)",
              "Maj7(9)",
              "Maj(9)",
              "Maj7#11",
              "Maj7",
              "Maj6",
              "Maj"
            ],
            "autoStart": false,
            "sourceChordNote": 0,
            "sourceChordType": "Maj",
            "ctb2Low": null,
            "ctb2Main": {
              "ntr": "ROOT_TRANSPOSITION",
              "ntt": "BYPASS",
              "bassOn": false,
              "chordRootUpperLimit": 6,
              "noteLowLimit": 0,
              "noteHighLimit": 127,
              "rtr": "PITCH_SHIFT"
            },
            "ctb2High": null
          },
          "notes": [
            {
              "pitch": 43,
              "velocity": 116,
              "position": 0.010416666666666666,
              "duration": 3.7875
            },
            {
              "pitch": 42,
              "velocity": 116,
              "position": 4,
              "duration": 3.7875
            },
            {
              "pitch": 38,
              "velocity": 116,
              "position": 8,
              "duration": 0.7875
            },
            {
              "pitch": 39,
              "velocity": 116,
              "position": 9,
              "duration": 0.7875
            },
            {
              "pitch": 41,
              "velocity": 116,
              "position": 10,
              "duration": 0.7875
            },
            {
              "pitch": 42,
              "velocity": 116,
              "position": 11,
              "duration": 0.7875
            },
            {
              "pitch": 43,
              "velocity": 116,
              "position": 12.333333333333334,
              "duration": 0.12083333333333333
            },
            {
              "pitch": 44,
              "velocity": 116,
              "position": 13,
              "duration": 0.12083333333333333
            },
            {
              "pitch": 43,
              "velocity": 116,
              "position": 13.666666666666666,
              "duration": 0.12083333333333333
            },
            {
              "pitch": 43,
              "velocity": 116,
              "position": 14.333333333333334,
              "duration": 1.4541666666666666
            },
            {
              "pitch": 36,
              "velocity": 116,
              "position": 16,
              "duration": 0.45416666666666666
            }
          ]
        },
        "5": {
          "ctab": {
            "srcChannel": 5,
            "name": "Org",
            "accType": "PAD",
            "editable": false,
            "mutedNotes": [],
            "mutedChords": [
              "1+2+5",
              "sus4",
              "1+5",
              "1+8",
              "7aug",
              "Maj7aug",
              "7(#9)",
              "7(b13)",
              "7(b9)",
              "7(13)",
              "7#11",
              "7(9)",
              "7b5",
              "7sus4",
              "7th",
              "aug",
              "Maj6(9)",
              "Maj7(9)",
              "Maj(9)",
              "Maj7#11",
              "Maj7",
              "Maj6",
              "Maj"
            ],
            "autoStart": false,
            "sourceChordNote": 0,
            "sourceChordType": "Maj",
            "ctb2Low": null,
            "ctb2Main": {
              "ntr": "ROOT_TRANSPOSITION",
              "ntt": "BYPASS",
              "bassOn": false,
              "chordRootUpperLimit": 9,
              "noteLowLimit": 58,
              "noteHighLimit": 79,
              "rtr": "PITCH_SHIFT"
            },
            "ctb2High": null
          },
          "notes": [
            {
              "pitch": 55,
              "velocity": 100,
              "position": 0.010416666666666666,
              "duration": 3.975
            },
            {
              "pitch": 48,
              "velocity": 100,
              "position": 0.010416666666666666,
              "duration": 7.641666666666667
            },
            {
              "pitch": 51,
              "velocity": 100,
              "position": 0.010416666666666666,
              "duration": 7.641666666666667
            },
            {
              "pitch": 55,
              "velocity": 100,
              "position": 4,
              "duration": 3.652083333333333
            },
            {
              "pitch": 72,
              "velocity": 100,
              "position": 0.010416666666666666,
              "duration": 7.641666666666667
            },
            {
              "pitch": 84,
              "velocity": 100,
              "position": 0.010416666666666666,
              "duration": 7.641666666666667
            },
            {
              "pitch": 68,
              "velocity": 100,
              "position": 8,
              "duration": 0.7145833333333333
            },
            {
              "pitch": 72,
              "velocity": 100,
              "position": 8,
              "duration": 0.7145833333333333
            },
            {
              "pitch": 77,
              "velocity": 100,
              "position": 8,
              "duration": 0.7145833333333333
            },
            {
              "pitch": 67,
              "velocity": 100,
              "position": 9,
              "duration": 0.7145833333333333
            },
            {
              "pitch": 72,
              "velocity": 100,
              "position": 9,
              "duration": 0.7145833333333333
            },
            {
              "pitch": 75,
              "velocity": 100,
              "position": 9,
              "duration": 0.7145833333333333
            },
            {
              "pitch": 68,
              "velocity": 100,
              "position": 10,
              "duration": 0.7145833333333333
            },
            {
              "pitch": 72,
              "velocity": 100,
              "position": 10,
              "duration": 0.7145833333333333
            },
            {
              "pitch": 77,
              "velocity": 100,
              "position": 10,
              "duration": 0.7145833333333333
            },
            {
              "pitch": 68,
              "velocity": 100,
              "position": 11,
              "duration": 0.7145833333333333
            },
            {
              "pitch": 72,
              "velocity": 100,
              "position": 11,
              "duration": 0.7145833333333333
            },
            {
              "pitch": 75,
              "velocity": 100,
              "position": 11,
              "duration": 0.7145833333333333
            },
            {
              "pitch": 67,
              "velocity": 100,
              "position": 12.333333333333334,
              "duration": 0.24583333333333332
            },
            {
              "pitch": 72,
              "velocity": 100,
              "position": 12.333333333333334,
              "duration": 0.24583333333333332
            },
            {
              "pitch": 75,
              "velocity": 100,
              "position": 12.333333333333334,
              "duration": 0.24583333333333332
            },
            {
              "pitch": 66,
              "velocity": 100,
              "position": 13,
              "duration": 0.24583333333333332
            },
            {
              "pitch": 72,
              "velocity": 100,
              "position": 13,
              "duration": 0.24583333333333332
            },
            {
              "pitch": 74,
              "velocity": 100,
              "position": 13,
              "duration": 0.24583333333333332
            },
            {
              "pitch": 65,
              "velocity": 100,
              "position": 13.666666666666666,
              "duration": 0.24583333333333332
            },
            {
              "pitch": 67,
              "velocity": 100,
              "position": 13.666666666666666,
              "duration": 0.24583333333333332
            },
            {
              "pitch": 72,
              "velocity": 100,
              "position": 13.666666666666666,
              "duration": 0.24583333333333332
            },
            {
              "pitch": 65,
              "velocity": 100,
              "position": 14.333333333333334,
              "duration": 0.9125
            },
            {
              "pitch": 67,
              "velocity": 100,
              "position": 14.333333333333334,
              "duration": 0.9125
            },
            {
              "pitch": 72,
              "velocity": 100,
              "position": 14.333333333333334,
              "duration": 0.9125
            },
            {
              "pitch": 79,
              "velocity": 100,
              "position": 15.333333333333334,
              "duration": 0.24583333333333332
            },
            {
              "pitch": 82,
              "velocity": 100,
              "position": 15.666666666666666,
              "duration": 0.24583333333333332
            },
            {
              "pitch": 84,
              "velocity": 100,
              "position": 16,
              "duration": 0.7458333333333333
            },
            {
              "pitch": 51,
              "velocity": 100,
              "position": 16,
              "duration": 0.7875
            },
            {
              "pitch": 55,
              "velocity": 100,
              "position": 16,
              "duration": 0.7875
            },
            {
              "pitch": 60,
              "velocity": 100,
              "position": 16,
              "duration": 0.7875
            },
            {
              "pitch": 82,
              "velocity": 100,
              "position": 16.75,
              "duration": 0.04791666666666667
            },
            {
              "pitch": 81,
              "velocity": 100,
              "position": 16.791666666666668,
              "duration": 0.04791666666666667
            },
            {
              "pitch": 79,
              "velocity": 100,
              "position": 16.833333333333332,
              "duration": 0.04791666666666667
            },
            {
              "pitch": 77,
              "velocity": 100,
              "position": 16.875,
              "duration": 0.04791666666666667
            },
            {
              "pitch": 75,
              "velocity": 100,
              "position": 16.916666666666668,
              "duration": 0.04791666666666667
            },
            {
              "pitch": 74,
              "velocity": 100,
              "position": 16.958333333333332,
              "duration": 0.04791666666666667
            },
            {
              "pitch": 72,
              "velocity": 100,
              "position": 17,
              "duration": 0.04791666666666667
            },
            {
              "pitch": 70,
              "velocity": 100,
              "position": 17.041666666666668,
              "duration": 0.04791666666666667
            },
            {
              "pitch": 69,
              "velocity": 100,
              "position": 17.083333333333332,
              "duration": 0.04791666666666667
            },
            {
              "pitch": 67,
              "velocity": 100,
              "position": 17.125,
              "duration": 0.04791666666666667
            },
            {
              "pitch": 65,
              "velocity": 100,
              "position": 17.166666666666668,
              "duration": 0.04791666666666667
            },
            {
              "pitch": 63,
              "velocity": 100,
              "position": 17.208333333333332,
              "duration": 0.04791666666666667
            },
            {
              "pitch": 62,
              "velocity": 100,
              "position": 17.25,
              "duration": 0.04791666666666667
            },
            {
              "pitch": 60,
              "velocity": 100,
              "position": 17.291666666666668,
              "duration": 0.04791666666666667
            }
          ]
        },
        "6": {
          "ctab": {
            "srcChannel": 6,
            "name": "Cho",
            "accType": "PHRASE1",
            "editable": false,
            "mutedNotes": [],
            "mutedChords": [
              "1+2+5",
              "sus4",
              "1+5",
              "1+8",
              "7aug",
              "Maj7aug",
              "7(#9)",
              "7(b13)",
              "7(b9)",
              "7(13)",
              "7#11",
              "7(9)",
              "7b5",
              "7sus4",
              "7th",
              "aug",
              "Maj6(9)",
              "Maj7(9)",
              "Maj(9)",
              "Maj7#11",
              "Maj7",
              "Maj6",
              "Maj"
            ],
            "autoStart": false,
            "sourceChordNote": 0,
            "sourceChordType": "Maj",
            "ctb2Low": null,
            "ctb2Main": {
              "ntr": "ROOT_TRANSPOSITION",
              "ntt": "BYPASS",
              "bassOn": false,
              "chordRootUpperLimit": 6,
              "noteLowLimit": 60,
              "noteHighLimit": 127,
              "rtr": "PITCH_SHIFT"
            },
            "ctb2High": null
          },
          "notes": [
            {
              "pitch": 67,
              "velocity": 46,
              "position": 0.010416666666666666,
              "duration": 3.975
            },
            {
              "pitch": 68,
              "velocity": 46,
              "position": 4,
              "duration": 3.652083333333333
            },
            {
              "pitch": 72,
              "velocity": 46,
              "position": 0.010416666666666666,
              "duration": 7.641666666666667
            },
            {
              "pitch": 75,
              "velocity": 46,
              "position": 0.010416666666666666,
              "duration": 7.641666666666667
            },
            {
              "pitch": 68,
              "velocity": 48,
              "position": 8,
              "duration": 0.9854166666666667
            },
            {
              "pitch": 77,
              "velocity": 48,
              "position": 8,
              "duration": 0.9854166666666667
            },
            {
              "pitch": 67,
              "velocity": 48,
              "position": 9,
              "duration": 0.9854166666666667
            },
            {
              "pitch": 75,
              "velocity": 48,
              "position": 9,
              "duration": 0.9854166666666667
            },
            {
              "pitch": 77,
              "velocity": 48,
              "position": 10,
              "duration": 0.9854166666666667
            },
            {
              "pitch": 68,
              "velocity": 48,
              "position": 10,
              "duration": 1.9854166666666666
            },
            {
              "pitch": 72,
              "velocity": 48,
              "position": 8,
              "duration": 3.9854166666666666
            },
            {
              "pitch": 74,
              "velocity": 48,
              "position": 11,
              "duration": 0.9854166666666667
            },
            {
              "pitch": 67,
              "velocity": 48,
              "position": 12.333333333333334,
              "duration": 0.36041666666666666
            },
            {
              "pitch": 72,
              "velocity": 48,
              "position": 12.333333333333334,
              "duration": 0.36041666666666666
            },
            {
              "pitch": 75,
              "velocity": 48,
              "position": 12.333333333333334,
              "duration": 0.36041666666666666
            },
            {
              "pitch": 66,
              "velocity": 48,
              "position": 13,
              "duration": 0.36041666666666666
            },
            {
              "pitch": 72,
              "velocity": 48,
              "position": 13,
              "duration": 0.36041666666666666
            },
            {
              "pitch": 74,
              "velocity": 48,
              "position": 13,
              "duration": 0.36041666666666666
            },
            {
              "pitch": 65,
              "velocity": 48,
              "position": 13.666666666666666,
              "duration": 0.36041666666666666
            },
            {
              "pitch": 67,
              "velocity": 48,
              "position": 13.666666666666666,
              "duration": 0.36041666666666666
            },
            {
              "pitch": 72,
              "velocity": 48,
              "position": 13.666666666666666,
              "duration": 0.36041666666666666
            },
            {
              "pitch": 65,
              "velocity": 48,
              "position": 14.333333333333334,
              "duration": 1.4541666666666666
            },
            {
              "pitch": 67,
              "velocity": 48,
              "position": 14.333333333333334,
              "duration": 1.4541666666666666
            },
            {
              "pitch": 72,
              "velocity": 48,
              "position": 14.333333333333334,
              "duration": 1.4541666666666666
            },
            {
              "pitch": 63,
              "velocity": 48,
              "position": 16,
              "duration": 0.7875
            },
            {
              "pitch": 67,
              "velocity": 48,
              "position": 16,
              "duration": 0.7875
            },
            {
              "pitch": 72,
              "velocity": 48,
              "position": 16,
              "duration": 0.7875
            }
          ]
        },
        "8": {
          "ctab": {
            "srcChannel": 8,
            "name": "Perc",
            "accType": "SUBRHYTHM",
            "editable": false,
            "mutedNotes": [],
            "mutedChords": [],
            "autoStart": true,
            "sourceChordNote": 0,
            "sourceChordType": "Maj7",
            "ctb2Low": null,
            "ctb2Main": {
              "ntr": "ROOT_FIXED",
              "ntt": "BYPASS",
              "bassOn": false,
              "chordRootUpperLimit": 6,
              "noteLowLimit": 0,
              "noteHighLimit": 127,
              "rtr": "PITCH_SHIFT"
            },
            "ctb2High": null
          },
          "notes": [
            {
              "pitch": 39,
              "velocity": 73,
              "position": 0.9895833333333334,
              "duration": 0.00625
            },
            {
              "pitch": 39,
              "velocity": 74,
              "position": 2.9791666666666665,
              "duration": 0.00625
            },
            {
              "pitch": 39,
              "velocity": 82,
              "position": 4.979166666666667,
              "duration": 0.00625
            },
            {
              "pitch": 39,
              "velocity": 74,
              "position": 7,
              "duration": 0.00625
            },
            {
              "pitch": 39,
              "velocity": 82,
              "position": 8.979166666666666,
              "duration": 0.00625
            },
            {
              "pitch": 39,
              "velocity": 74,
              "position": 11,
              "duration": 0.00625
            },
            {
              "pitch": 39,
              "velocity": 82,
              "position": 12.979166666666666,
              "duration": 0.00625
            },
            {
              "pitch": 39,
              "velocity": 74,
              "position": 15,
              "duration": 0.00625
            }
          ]
        },
        "9": {
          "ctab": {
            "srcChannel": 9,
            "name": "Drums",
            "accType": "RHYTHM",
            "editable": false,
            "mutedNotes": [],
            "mutedChords": [],
            "autoStart": true,
            "sourceChordNote": 0,
            "sourceChordType": "Maj7",
            "ctb2Low": null,
            "ctb2Main": {
              "ntr": "ROOT_FIXED",
              "ntt": "BYPASS",
              "bassOn": false,
              "chordRootUpperLimit": 6,
              "noteLowLimit": 0,
              "noteHighLimit": 127,
              "rtr": "PITCH_SHIFT"
            },
            "ctb2High": null
          },
          "notes": [
            {
              "pitch": 35,
              "velocity": 90,
              "position": 0,
              "duration": 0.00625
            },
            {
              "pitch": 49,
              "velocity": 60,
              "position": 0,
              "duration": 0.00625
            },
            {
              "pitch": 54,
              "velocity": 71,
              "position": 0,
              "duration": 0.00625
            },
            {
              "pitch": 38,
              "velocity": 20,
              "position": 0.3333333333333333,
              "duration": 0.00625
            },
            {
              "pitch": 54,
              "velocity": 16,
              "position": 0.3333333333333333,
              "duration": 0.00625
            },
            {
              "pitch": 35,
              "velocity": 40,
              "position": 0.6666666666666666,
              "duration": 0.00625
            },
            {
              "pitch": 44,
              "velocity": 27,
              "position": 0.6666666666666666,
              "duration": 0.00625
            },
            {
              "pitch": 53,
              "velocity": 89,
              "position": 0.6666666666666666,
              "duration": 0.00625
            },
            {
              "pitch": 54,
              "velocity": 40,
              "position": 0.6666666666666666,
              "duration": 0.00625
            },
            {
              "pitch": 59,
              "velocity": 62,
              "position": 0.6666666666666666,
              "duration": 0.00625
            },
            {
              "pitch": 39,
              "velocity": 80,
              "position": 0.9895833333333334,
              "duration": 0.00625
            },
            {
              "pitch": 38,
              "velocity": 100,
              "position": 1,
              "duration": 0.00625
            },
            {
              "pitch": 54,
              "velocity": 71,
              "position": 1,
              "duration": 0.00625
            },
            {
              "pitch": 38,
              "velocity": 20,
              "position": 1.3333333333333333,
              "duration": 0.00625
            },
            {
              "pitch": 54,
              "velocity": 16,
              "position": 1.3333333333333333,
              "duration": 0.00625
            },
            {
              "pitch": 59,
              "velocity": 86,
              "position": 1.3333333333333333,
              "duration": 0.00625
            },
            {
              "pitch": 35,
              "velocity": 40,
              "position": 1.6666666666666667,
              "duration": 0.00625
            },
            {
              "pitch": 44,
              "velocity": 27,
              "position": 1.6666666666666667,
              "duration": 0.00625
            },
            {
              "pitch": 54,
              "velocity": 40,
              "position": 1.6666666666666667,
              "duration": 0.00625
            },
            {
              "pitch": 35,
              "velocity": 90,
              "position": 2,
              "duration": 0.00625
            },
            {
              "pitch": 53,
              "velocity": 72,
              "position": 2,
              "duration": 0.00625
            },
            {
              "pitch": 54,
              "velocity": 71,
              "position": 2,
              "duration": 0.00625
            },
            {
              "pitch": 59,
              "velocity": 49,
              "position": 2,
              "duration": 0.00625
            },
            {
              "pitch": 38,
              "velocity": 20,
              "position": 2.3333333333333335,
              "duration": 0.00625
            },
            {
              "pitch": 54,
              "velocity": 16,
              "position": 2.3333333333333335,
              "duration": 0.00625
            },
            {
              "pitch": 35,
              "velocity": 40,
              "position": 2.6666666666666665,
              "duration": 0.00625
            },
            {
              "pitch": 44,
              "velocity": 27,
              "position": 2.6666666666666665,
              "duration": 0.00625
            },
            {
              "pitch": 54,
              "velocity": 40,
              "position": 2.6666666666666665,
              "duration": 0.00625
            },
            {
              "pitch": 59,
              "velocity": 75,
              "position": 2.6666666666666665,
              "duration": 0.00625
            },
            {
              "pitch": 39,
              "velocity": 80,
              "position": 2.9791666666666665,
              "duration": 0.00625
            },
            {
              "pitch": 38,
              "velocity": 100,
              "position": 3,
              "duration": 0.00625
            },
            {
              "pitch": 54,
              "velocity": 71,
              "position": 3,
              "duration": 0.00625
            },
            {
              "pitch": 38,
              "velocity": 20,
              "position": 3.3333333333333335,
              "duration": 0.00625
            },
            {
              "pitch": 53,
              "velocity": 61,
              "position": 3.3333333333333335,
              "duration": 0.00625
            },
            {
              "pitch": 54,
              "velocity": 16,
              "position": 3.3333333333333335,
              "duration": 0.00625
            },
            {
              "pitch": 59,
              "velocity": 41,
              "position": 3.3333333333333335,
              "duration": 0.00625
            },
            {
              "pitch": 35,
              "velocity": 40,
              "position": 3.6666666666666665,
              "duration": 0.00625
            },
            {
              "pitch": 44,
              "velocity": 27,
              "position": 3.6666666666666665,
              "duration": 0.00625
            },
            {
              "pitch": 54,
              "velocity": 40,
              "position": 3.6666666666666665,
              "duration": 0.00625
            },
            {
              "pitch": 35,
              "velocity": 90,
              "position": 4,
              "duration": 0.00625
            },
            {
              "pitch": 54,
              "velocity": 71,
              "position": 4,
              "duration": 0.00625
            },
            {
              "pitch": 59,
              "velocity": 91,
              "position": 4,
              "duration": 0.00625
            },
            {
              "pitch": 38,
              "velocity": 20,
              "position": 4.333333333333333,
              "duration": 0.00625
            },
            {
              "pitch": 54,
              "velocity": 16,
              "position": 4.333333333333333,
              "duration": 0.00625
            },
            {
              "pitch": 35,
              "velocity": 40,
              "position": 4.666666666666667,
              "duration": 0.00625
            },
            {
              "pitch": 44,
              "velocity": 27,
              "position": 4.666666666666667,
              "duration": 0.00625
            },
            {
              "pitch": 53,
              "velocity": 81,
              "position": 4.666666666666667,
              "duration": 0.00625
            },
            {
              "pitch": 54,
              "velocity": 40,
              "position": 4.666666666666667,
              "duration": 0.00625
            },
            {
              "pitch": 59,
              "velocity": 56,
              "position": 4.666666666666667,
              "duration": 0.00625
            },
            {
              "pitch": 39,
              "velocity": 80,
              "position": 4.989583333333333,
              "duration": 0.00625
            },
            {
              "pitch": 38,
              "velocity": 100,
              "position": 5,
              "duration": 0.00625
            },
            {
              "pitch": 54,
              "velocity": 71,
              "position": 5,
              "duration": 0.00625
            },
            {
              "pitch": 38,
              "velocity": 20,
              "position": 5.333333333333333,
              "duration": 0.00625
            },
            {
              "pitch": 54,
              "velocity": 16,
              "position": 5.333333333333333,
              "duration": 0.00625
            },
            {
              "pitch": 59,
              "velocity": 91,
              "position": 5.333333333333333,
              "duration": 0.00625
            },
            {
              "pitch": 35,
              "velocity": 40,
              "position": 5.666666666666667,
              "duration": 0.00625
            },
            {
              "pitch": 44,
              "velocity": 27,
              "position": 5.666666666666667,
              "duration": 0.00625
            },
            {
              "pitch": 54,
              "velocity": 40,
              "position": 5.666666666666667,
              "duration": 0.00625
            },
            {
              "pitch": 35,
              "velocity": 90,
              "position": 6,
              "duration": 0.00625
            },
            {
              "pitch": 53,
              "velocity": 81,
              "position": 6,
              "duration": 0.00625
            },
            {
              "pitch": 54,
              "velocity": 71,
              "position": 6,
              "duration": 0.00625
            },
            {
              "pitch": 59,
              "velocity": 56,
              "position": 6,
              "duration": 0.00625
            },
            {
              "pitch": 38,
              "velocity": 20,
              "position": 6.333333333333333,
              "duration": 0.00625
            },
            {
              "pitch": 54,
              "velocity": 16,
              "position": 6.333333333333333,
              "duration": 0.00625
            },
            {
              "pitch": 35,
              "velocity": 40,
              "position": 6.666666666666667,
              "duration": 0.00625
            },
            {
              "pitch": 44,
              "velocity": 27,
              "position": 6.666666666666667,
              "duration": 0.00625
            },
            {
              "pitch": 54,
              "velocity": 40,
              "position": 6.666666666666667,
              "duration": 0.00625
            },
            {
              "pitch": 59,
              "velocity": 91,
              "position": 6.666666666666667,
              "duration": 0.00625
            },
            {
              "pitch": 39,
              "velocity": 80,
              "position": 6.979166666666667,
              "duration": 0.00625
            },
            {
              "pitch": 38,
              "velocity": 100,
              "position": 7,
              "duration": 0.00625
            },
            {
              "pitch": 54,
              "velocity": 71,
              "position": 7,
              "duration": 0.00625
            },
            {
              "pitch": 38,
              "velocity": 20,
              "position": 7.333333333333333,
              "duration": 0.00625
            },
            {
              "pitch": 53,
              "velocity": 70,
              "position": 7.333333333333333,
              "duration": 0.00625
            },
            {
              "pitch": 54,
              "velocity": 16,
              "position": 7.333333333333333,
              "duration": 0.00625
            },
            {
              "pitch": 59,
              "velocity": 48,
              "position": 7.333333333333333,
              "duration": 0.00625
            },
            {
              "pitch": 35,
              "velocity": 40,
              "position": 7.666666666666667,
              "duration": 0.00625
            },
            {
              "pitch": 44,
              "velocity": 27,
              "position": 7.666666666666667,
              "duration": 0.00625
            },
            {
              "pitch": 54,
              "velocity": 40,
              "position": 7.666666666666667,
              "duration": 0.00625
            },
            {
              "pitch": 35,
              "velocity": 90,
              "position": 8,
              "duration": 0.00625
            },
            {
              "pitch": 49,
              "velocity": 68,
              "position": 8,
              "duration": 0.00625
            },
            {
              "pitch": 54,
              "velocity": 71,
              "position": 8,
              "duration": 0.00625
            },
            {
              "pitch": 54,
              "velocity": 16,
              "position": 8.333333333333334,
              "duration": 0.00625
            },
            {
              "pitch": 44,
              "velocity": 27,
              "position": 8.666666666666666,
              "duration": 0.00625
            },
            {
              "pitch": 54,
              "velocity": 40,
              "position": 8.666666666666666,
              "duration": 0.00625
            },
            {
              "pitch": 35,
              "velocity": 90,
              "position": 9,
              "duration": 0.00625
            },
            {
              "pitch": 38,
              "velocity": 100,
              "position": 9,
              "duration": 0.00625
            },
            {
              "pitch": 52,
              "velocity": 68,
              "position": 9,
              "duration": 0.00625
            },
            {
              "pitch": 54,
              "velocity": 71,
              "position": 9,
              "duration": 0.00625
            },
            {
              "pitch": 39,
              "velocity": 80,
              "position": 9.041666666666666,
              "duration": 0.00625
            },
            {
              "pitch": 54,
              "velocity": 16,
              "position": 9.333333333333334,
              "duration": 0.00625
            },
            {
              "pitch": 44,
              "velocity": 27,
              "position": 9.666666666666666,
              "duration": 0.00625
            },
            {
              "pitch": 54,
              "velocity": 40,
              "position": 9.666666666666666,
              "duration": 0.00625
            },
            {
              "pitch": 35,
              "velocity": 90,
              "position": 10,
              "duration": 0.00625
            },
            {
              "pitch": 54,
              "velocity": 71,
              "position": 10,
              "duration": 0.00625
            },
            {
              "pitch": 57,
              "velocity": 67,
              "position": 10,
              "duration": 0.00625
            },
            {
              "pitch": 38,
              "velocity": 40,
              "position": 10.333333333333334,
              "duration": 0.00625
            },
            {
              "pitch": 54,
              "velocity": 16,
              "position": 10.333333333333334,
              "duration": 0.00625
            },
            {
              "pitch": 38,
              "velocity": 100,
              "position": 10.666666666666666,
              "duration": 0.00625
            },
            {
              "pitch": 44,
              "velocity": 27,
              "position": 10.666666666666666,
              "duration": 0.00625
            },
            {
              "pitch": 54,
              "velocity": 40,
              "position": 10.666666666666666,
              "duration": 0.00625
            },
            {
              "pitch": 39,
              "velocity": 80,
              "position": 10.979166666666666,
              "duration": 0.00625
            },
            {
              "pitch": 35,
              "velocity": 90,
              "position": 11,
              "duration": 0.00625
            },
            {
              "pitch": 52,
              "velocity": 68,
              "position": 11,
              "duration": 0.00625
            },
            {
              "pitch": 54,
              "velocity": 71,
              "position": 11,
              "duration": 0.00625
            },
            {
              "pitch": 38,
              "velocity": 40,
              "position": 11.333333333333334,
              "duration": 0.00625
            },
            {
              "pitch": 54,
              "velocity": 16,
              "position": 11.333333333333334,
              "duration": 0.00625
            },
            {
              "pitch": 38,
              "velocity": 100,
              "position": 11.666666666666666,
              "duration": 0.00625
            },
            {
              "pitch": 44,
              "velocity": 27,
              "position": 11.666666666666666,
              "duration": 0.00625
            },
            {
              "pitch": 54,
              "velocity": 40,
              "position": 11.666666666666666,
              "duration": 0.00625
            },
            {
              "pitch": 38,
              "velocity": 110,
              "position": 12,
              "duration": 0.00625
            },
            {
              "pitch": 54,
              "velocity": 71,
              "position": 12,
              "duration": 0.00625
            },
            {
              "pitch": 38,
              "velocity": 112,
              "position": 12.0625,
              "duration": 0.00625
            },
            {
              "pitch": 35,
              "velocity": 90,
              "position": 12.333333333333334,
              "duration": 0.00625
            },
            {
              "pitch": 46,
              "velocity": 69,
              "position": 12.333333333333334,
              "duration": 0.00625
            },
            {
              "pitch": 54,
              "velocity": 16,
              "position": 12.333333333333334,
              "duration": 0.00625
            },
            {
              "pitch": 38,
              "velocity": 40,
              "position": 12.666666666666666,
              "duration": 0.00625
            },
            {
              "pitch": 44,
              "velocity": 1,
              "position": 12.666666666666666,
              "duration": 0.00625
            },
            {
              "pitch": 54,
              "velocity": 40,
              "position": 12.666666666666666,
              "duration": 0.00625
            },
            {
              "pitch": 39,
              "velocity": 80,
              "position": 12.979166666666666,
              "duration": 0.00625
            },
            {
              "pitch": 35,
              "velocity": 90,
              "position": 13,
              "duration": 0.00625
            },
            {
              "pitch": 46,
              "velocity": 69,
              "position": 13,
              "duration": 0.00625
            },
            {
              "pitch": 54,
              "velocity": 71,
              "position": 13,
              "duration": 0.00625
            },
            {
              "pitch": 38,
              "velocity": 40,
              "position": 13.333333333333334,
              "duration": 0.00625
            },
            {
              "pitch": 44,
              "velocity": 1,
              "position": 13.333333333333334,
              "duration": 0.00625
            },
            {
              "pitch": 54,
              "velocity": 16,
              "position": 13.333333333333334,
              "duration": 0.00625
            },
            {
              "pitch": 35,
              "velocity": 90,
              "position": 13.666666666666666,
              "duration": 0.00625
            },
            {
              "pitch": 46,
              "velocity": 69,
              "position": 13.666666666666666,
              "duration": 0.00625
            },
            {
              "pitch": 54,
              "velocity": 40,
              "position": 13.666666666666666,
              "duration": 0.00625
            },
            {
              "pitch": 38,
              "velocity": 40,
              "position": 14,
              "duration": 0.00625
            },
            {
              "pitch": 44,
              "velocity": 1,
              "position": 14,
              "duration": 0.00625
            },
            {
              "pitch": 54,
              "velocity": 71,
              "position": 14,
              "duration": 0.00625
            },
            {
              "pitch": 35,
              "velocity": 90,
              "position": 14.333333333333334,
              "duration": 0.00625
            },
            {
              "pitch": 54,
              "velocity": 16,
              "position": 14.333333333333334,
              "duration": 0.00625
            },
            {
              "pitch": 57,
              "velocity": 80,
              "position": 14.333333333333334,
              "duration": 0.00625
            },
            {
              "pitch": 38,
              "velocity": 74,
              "position": 14.666666666666666,
              "duration": 0.00625
            },
            {
              "pitch": 44,
              "velocity": 1,
              "position": 14.666666666666666,
              "duration": 0.00625
            },
            {
              "pitch": 54,
              "velocity": 40,
              "position": 14.666666666666666,
              "duration": 0.00625
            },
            {
              "pitch": 39,
              "velocity": 80,
              "position": 14.979166666666666,
              "duration": 0.00625
            },
            {
              "pitch": 35,
              "velocity": 90,
              "position": 15,
              "duration": 0.00625
            },
            {
              "pitch": 38,
              "velocity": 74,
              "position": 15,
              "duration": 0.00625
            },
            {
              "pitch": 43,
              "velocity": 42,
              "position": 15,
              "duration": 0.00625
            },
            {
              "pitch": 54,
              "velocity": 71,
              "position": 15,
              "duration": 0.00625
            },
            {
              "pitch": 38,
              "velocity": 95,
              "position": 15.333333333333334,
              "duration": 0.00625
            },
            {
              "pitch": 43,
              "velocity": 54,
              "position": 15.333333333333334,
              "duration": 0.00625
            },
            {
              "pitch": 54,
              "velocity": 16,
              "position": 15.333333333333334,
              "duration": 0.00625
            },
            {
              "pitch": 38,
              "velocity": 120,
              "position": 15.666666666666666,
              "duration": 0.00625
            },
            {
              "pitch": 43,
              "velocity": 70,
              "position": 15.666666666666666,
              "duration": 0.00625
            },
            {
              "pitch": 44,
              "velocity": 32,
              "position": 15.666666666666666,
              "duration": 0.00625
            },
            {
              "pitch": 54,
              "velocity": 40,
              "position": 15.666666666666666,
              "duration": 0.00625
            },
            {
              "pitch": 35,
              "velocity": 90,
              "position": 16,
              "duration": 0.00625
            },
            {
              "pitch": 38,
              "velocity": 120,
              "position": 16,
              "duration": 0.00625
            },
            {
              "pitch": 43,
              "velocity": 70,
              "position": 16,
              "duration": 0.00625
            },
            {
              "pitch": 49,
              "velocity": 66,
              "position": 16,
              "duration": 0.00625
            }
          ]
        },
        "10": {
          "ctab": {
            "srcChannel": 10,
            "name": "Bass",
            "accType": "BASS",
            "editable": false,
            "mutedNotes": [],
            "mutedChords": [
              "dim7",
              "dim",
              "minMaj7(9)",
              "minMaj7",
              "min7(11)",
              "min7(9)",
              "min(9)",
              "m7b5",
              "min7",
              "min6",
              "min"
            ],
            "autoStart": false,
            "sourceChordNote": 0,
            "sourceChordType": "Maj",
            "ctb2Low": null,
            "ctb2Main": {
              "ntr": "ROOT_TRANSPOSITION",
              "ntt": "BYPASS",
              "bassOn": false,
              "chordRootUpperLimit": 8,
              "noteLowLimit": 28,
              "noteHighLimit": 127,
              "rtr": "PITCH_SHIFT"
            },
            "ctb2High": null
          },
          "notes": [
            {
              "pitch": 31,
              "velocity": 74,
              "position": 0,
              "duration": 1.2875
            },
            {
              "pitch": 40,
              "velocity": 60,
              "position": 1.3333333333333333,
              "duration": 0.13125
            },
            {
              "pitch": 40,
              "velocity": 60,
              "position": 1.6666666666666667,
              "duration": 0.13125
            },
            {
              "pitch": 40,
              "velocity": 74,
              "position": 2,
              "duration": 0.6208333333333333
            },
            {
              "pitch": 36,
              "velocity": 74,
              "position": 2.6666666666666665,
              "duration": 0.6208333333333333
            },
            {
              "pitch": 31,
              "velocity": 74,
              "position": 3.3333333333333335,
              "duration": 0.6208333333333333
            },
            {
              "pitch": 30,
              "velocity": 74,
              "position": 4,
              "duration": 1.2875
            },
            {
              "pitch": 48,
              "velocity": 60,
              "position": 5.333333333333333,
              "duration": 0.13125
            },
            {
              "pitch": 48,
              "velocity": 60,
              "position": 5.666666666666667,
              "duration": 0.13125
            },
            {
              "pitch": 48,
              "velocity": 74,
              "position": 6,
              "duration": 0.31875
            },
            {
              "pitch": 44,
              "velocity": 60,
              "position": 6.333333333333333,
              "duration": 0.31875
            },
            {
              "pitch": 40,
              "velocity": 42,
              "position": 6.666666666666667,
              "duration": 0.31875
            },
            {
              "pitch": 36,
              "velocity": 74,
              "position": 7,
              "duration": 0.31875
            },
            {
              "pitch": 28,
              "velocity": 60,
              "position": 7.333333333333333,
              "duration": 0.31875
            },
            {
              "pitch": 28,
              "velocity": 60,
              "position": 7.666666666666667,
              "duration": 0.31875
            },
            {
              "pitch": 28,
              "velocity": 74,
              "position": 8,
              "duration": 0.7145833333333333
            },
            {
              "pitch": 28,
              "velocity": 74,
              "position": 9,
              "duration": 0.7145833333333333
            },
            {
              "pitch": 28,
              "velocity": 74,
              "position": 10,
              "duration": 0.7145833333333333
            },
            {
              "pitch": 28,
              "velocity": 74,
              "position": 11,
              "duration": 0.7145833333333333
            },
            {
              "pitch": 33,
              "velocity": 74,
              "position": 12.333333333333334,
              "duration": 0.2875
            },
            {
              "pitch": 33,
              "velocity": 74,
              "position": 13,
              "duration": 0.2875
            },
            {
              "pitch": 33,
              "velocity": 62,
              "position": 13.666666666666666,
              "duration": 0.2875
            },
            {
              "pitch": 31,
              "velocity": 74,
              "position": 14.333333333333334,
              "duration": 1.6208333333333333
            },
            {
              "pitch": 24,
              "velocity": 74,
              "position": 16,
              "duration": 0.6208333333333333
            }
          ]
        },
        "11": {
          "ctab": {
            "srcChannel": 11,
            "name": "Gt",
            "accType": "CHORD1",
            "editable": false,
            "mutedNotes": [],
            "mutedChords": [
              "dim7",
              "dim",
              "minMaj7(9)",
              "minMaj7",
              "min7(11)",
              "min7(9)",
              "min(9)",
              "m7b5",
              "min7",
              "min6",
              "min"
            ],
            "autoStart": false,
            "sourceChordNote": 0,
            "sourceChordType": "Maj",
            "ctb2Low": null,
            "ctb2Main": {
              "ntr": "ROOT_TRANSPOSITION",
              "ntt": "BYPASS",
              "bassOn": false,
              "chordRootUpperLimit": 11,
              "noteLowLimit": 54,
              "noteHighLimit": 127,
              "rtr": "PITCH_SHIFT"
            },
            "ctb2High": null
          },
          "notes": [
            {
              "pitch": 60,
              "velocity": 98,
              "position": 0.3333333333333333,
              "duration": 0.027083333333333334
            },
            {
              "pitch": 72,
              "velocity": 98,
              "position": 0.34375,
              "duration": 0.027083333333333334
            },
            {
              "pitch": 60,
              "velocity": 80,
              "position": 0.6666666666666666,
              "duration": 0.027083333333333334
            },
            {
              "pitch": 72,
              "velocity": 80,
              "position": 0.6770833333333334,
              "duration": 0.027083333333333334
            },
            {
              "pitch": 60,
              "velocity": 116,
              "position": 1,
              "duration": 0.30833333333333335
            },
            {
              "pitch": 72,
              "velocity": 116,
              "position": 1.0104166666666667,
              "duration": 0.30833333333333335
            },
            {
              "pitch": 60,
              "velocity": 46,
              "position": 1.3333333333333333,
              "duration": 0.30833333333333335
            },
            {
              "pitch": 72,
              "velocity": 46,
              "position": 1.34375,
              "duration": 0.30833333333333335
            },
            {
              "pitch": 60,
              "velocity": 98,
              "position": 1.6666666666666667,
              "duration": 0.13125
            },
            {
              "pitch": 72,
              "velocity": 98,
              "position": 1.6770833333333333,
              "duration": 0.13125
            },
            {
              "pitch": 60,
              "velocity": 80,
              "position": 2,
              "duration": 0.027083333333333334
            },
            {
              "pitch": 72,
              "velocity": 80,
              "position": 2.0104166666666665,
              "duration": 0.027083333333333334
            },
            {
              "pitch": 60,
              "velocity": 116,
              "position": 2.3333333333333335,
              "duration": 0.30833333333333335
            },
            {
              "pitch": 72,
              "velocity": 116,
              "position": 2.34375,
              "duration": 0.30833333333333335
            },
            {
              "pitch": 60,
              "velocity": 46,
              "position": 2.6666666666666665,
              "duration": 0.30833333333333335
            },
            {
              "pitch": 72,
              "velocity": 46,
              "position": 2.6770833333333335,
              "duration": 0.30833333333333335
            },
            {
              "pitch": 60,
              "velocity": 98,
              "position": 3,
              "duration": 0.31875
            },
            {
              "pitch": 72,
              "velocity": 98,
              "position": 3.0104166666666665,
              "duration": 0.31875
            },
            {
              "pitch": 60,
              "velocity": 55,
              "position": 3.3333333333333335,
              "duration": 0.31875
            },
            {
              "pitch": 72,
              "velocity": 55,
              "position": 3.34375,
              "duration": 0.31875
            },
            {
              "pitch": 60,
              "velocity": 98,
              "position": 3.6666666666666665,
              "duration": 0.13125
            },
            {
              "pitch": 72,
              "velocity": 98,
              "position": 3.6770833333333335,
              "duration": 0.13125
            },
            {
              "pitch": 60,
              "velocity": 98,
              "position": 4.333333333333333,
              "duration": 0.027083333333333334
            },
            {
              "pitch": 72,
              "velocity": 98,
              "position": 4.34375,
              "duration": 0.027083333333333334
            },
            {
              "pitch": 60,
              "velocity": 80,
              "position": 4.666666666666667,
              "duration": 0.027083333333333334
            },
            {
              "pitch": 72,
              "velocity": 80,
              "position": 4.677083333333333,
              "duration": 0.027083333333333334
            },
            {
              "pitch": 60,
              "velocity": 116,
              "position": 5,
              "duration": 0.30833333333333335
            },
            {
              "pitch": 72,
              "velocity": 116,
              "position": 5.010416666666667,
              "duration": 0.30833333333333335
            },
            {
              "pitch": 60,
              "velocity": 46,
              "position": 5.333333333333333,
              "duration": 0.30833333333333335
            },
            {
              "pitch": 72,
              "velocity": 46,
              "position": 5.34375,
              "duration": 0.30833333333333335
            },
            {
              "pitch": 60,
              "velocity": 98,
              "position": 5.666666666666667,
              "duration": 0.13125
            },
            {
              "pitch": 72,
              "velocity": 98,
              "position": 5.677083333333333,
              "duration": 0.13125
            },
            {
              "pitch": 60,
              "velocity": 80,
              "position": 6,
              "duration": 0.027083333333333334
            },
            {
              "pitch": 72,
              "velocity": 80,
              "position": 6.010416666666667,
              "duration": 0.027083333333333334
            },
            {
              "pitch": 60,
              "velocity": 116,
              "position": 6.333333333333333,
              "duration": 0.30833333333333335
            },
            {
              "pitch": 72,
              "velocity": 116,
              "position": 6.34375,
              "duration": 0.30833333333333335
            },
            {
              "pitch": 60,
              "velocity": 46,
              "position": 6.666666666666667,
              "duration": 0.30833333333333335
            },
            {
              "pitch": 72,
              "velocity": 46,
              "position": 6.677083333333333,
              "duration": 0.30833333333333335
            },
            {
              "pitch": 60,
              "velocity": 98,
              "position": 7,
              "duration": 0.31875
            },
            {
              "pitch": 72,
              "velocity": 98,
              "position": 7.010416666666667,
              "duration": 0.31875
            },
            {
              "pitch": 60,
              "velocity": 55,
              "position": 7.333333333333333,
              "duration": 0.31875
            },
            {
              "pitch": 72,
              "velocity": 55,
              "position": 7.34375,
              "duration": 0.31875
            },
            {
              "pitch": 60,
              "velocity": 98,
              "position": 7.666666666666667,
              "duration": 0.13125
            },
            {
              "pitch": 72,
              "velocity": 98,
              "position": 7.677083333333333,
              "duration": 0.13125
            },
            {
              "pitch": 45,
              "velocity": 116,
              "position": 8.020833333333334,
              "duration": 0.63125
            },
            {
              "pitch": 48,
              "velocity": 116,
              "position": 8.020833333333334,
              "duration": 0.63125
            },
            {
              "pitch": 53,
              "velocity": 116,
              "position": 8.020833333333334,
              "duration": 0.63125
            },
            {
              "pitch": 43,
              "velocity": 116,
              "position": 9.020833333333334,
              "duration": 0.63125
            },
            {
              "pitch": 48,
              "velocity": 116,
              "position": 9.020833333333334,
              "duration": 0.63125
            },
            {
              "pitch": 52,
              "velocity": 116,
              "position": 9.020833333333334,
              "duration": 0.63125
            },
            {
              "pitch": 45,
              "velocity": 116,
              "position": 10.020833333333334,
              "duration": 0.63125
            },
            {
              "pitch": 48,
              "velocity": 116,
              "position": 10.020833333333334,
              "duration": 0.63125
            },
            {
              "pitch": 53,
              "velocity": 116,
              "position": 10.020833333333334,
              "duration": 0.63125
            },
            {
              "pitch": 45,
              "velocity": 116,
              "position": 11.020833333333334,
              "duration": 0.63125
            },
            {
              "pitch": 50,
              "velocity": 116,
              "position": 11.020833333333334,
              "duration": 0.63125
            },
            {
              "pitch": 54,
              "velocity": 116,
              "position": 11.020833333333334,
              "duration": 0.63125
            },
            {
              "pitch": 43,
              "velocity": 116,
              "position": 12.354166666666666,
              "duration": 0.29791666666666666
            },
            {
              "pitch": 48,
              "velocity": 116,
              "position": 12.354166666666666,
              "duration": 0.29791666666666666
            },
            {
              "pitch": 52,
              "velocity": 116,
              "position": 12.354166666666666,
              "duration": 0.29791666666666666
            },
            {
              "pitch": 44,
              "velocity": 116,
              "position": 13.020833333333334,
              "duration": 0.29791666666666666
            },
            {
              "pitch": 47,
              "velocity": 116,
              "position": 13.020833333333334,
              "duration": 0.29791666666666666
            },
            {
              "pitch": 50,
              "velocity": 116,
              "position": 13.020833333333334,
              "duration": 0.29791666666666666
            },
            {
              "pitch": 43,
              "velocity": 116,
              "position": 13.6875,
              "duration": 0.29791666666666666
            },
            {
              "pitch": 48,
              "velocity": 116,
              "position": 13.6875,
              "duration": 0.29791666666666666
            },
            {
              "pitch": 52,
              "velocity": 116,
              "position": 13.6875,
              "duration": 0.29791666666666666
            },
            {
              "pitch": 45,
              "velocity": 116,
              "position": 14.354166666666666,
              "duration": 0.975
            },
            {
              "pitch": 48,
              "velocity": 116,
              "position": 14.354166666666666,
              "duration": 0.975
            },
            {
              "pitch": 53,
              "velocity": 116,
              "position": 14.354166666666666,
              "duration": 0.975
            },
            {
              "pitch": 55,
              "velocity": 116,
              "position": 15.34375,
              "duration": 0.30833333333333335
            },
            {
              "pitch": 57,
              "velocity": 80,
              "position": 15.666666666666666,
              "duration": 0.32916666666666666
            },
            {
              "pitch": 43,
              "velocity": 116,
              "position": 16,
              "duration": 0.63125
            },
            {
              "pitch": 52,
              "velocity": 116,
              "position": 16,
              "duration": 0.63125
            },
            {
              "pitch": 60,
              "velocity": 116,
              "position": 16,
              "duration": 0.6416666666666667
            }
          ]
        },
        "12": {
          "ctab": {
            "srcChannel": 12,
            "name": "Pno",
            "accType": "CHORD2",
            "editable": false,
            "mutedNotes": [],
            "mutedChords": [
              "dim7",
              "dim",
              "minMaj7(9)",
              "minMaj7",
              "min7(11)",
              "min7(9)",
              "min(9)",
              "m7b5",
              "min7",
              "min6",
              "min"
            ],
            "autoStart": false,
            "sourceChordNote": 0,
            "sourceChordType": "Maj",
            "ctb2Low": null,
            "ctb2Main": {
              "ntr": "ROOT_TRANSPOSITION",
              "ntt": "BYPASS",
              "bassOn": false,
              "chordRootUpperLimit": 8,
              "noteLowLimit": 36,
              "noteHighLimit": 79,
              "rtr": "PITCH_SHIFT"
            },
            "ctb2High": null
          },
          "notes": [
            {
              "pitch": 67,
              "velocity": 116,
              "position": 0.010416666666666666,
              "duration": 1.1104166666666666
            },
            {
              "pitch": 72,
              "velocity": 116,
              "position": 0.010416666666666666,
              "duration": 1.1104166666666666
            },
            {
              "pitch": 76,
              "velocity": 116,
              "position": 0.010416666666666666,
              "duration": 1.1104166666666666
            },
            {
              "pitch": 79,
              "velocity": 116,
              "position": 0.010416666666666666,
              "duration": 1.1104166666666666
            },
            {
              "pitch": 60,
              "velocity": 94,
              "position": 1.3333333333333333,
              "duration": 0.1625
            },
            {
              "pitch": 72,
              "velocity": 94,
              "position": 1.3333333333333333,
              "duration": 0.1625
            },
            {
              "pitch": 62,
              "velocity": 89,
              "position": 1.6666666666666667,
              "duration": 0.1625
            },
            {
              "pitch": 74,
              "velocity": 89,
              "position": 1.6666666666666667,
              "duration": 0.1625
            },
            {
              "pitch": 64,
              "velocity": 116,
              "position": 2,
              "duration": 0.5270833333333333
            },
            {
              "pitch": 67,
              "velocity": 116,
              "position": 2,
              "duration": 0.5270833333333333
            },
            {
              "pitch": 72,
              "velocity": 116,
              "position": 2,
              "duration": 0.5270833333333333
            },
            {
              "pitch": 76,
              "velocity": 116,
              "position": 2,
              "duration": 0.5270833333333333
            },
            {
              "pitch": 65,
              "velocity": 116,
              "position": 2.6666666666666665,
              "duration": 0.5270833333333333
            },
            {
              "pitch": 69,
              "velocity": 116,
              "position": 2.6666666666666665,
              "duration": 0.5270833333333333
            },
            {
              "pitch": 74,
              "velocity": 116,
              "position": 2.6666666666666665,
              "duration": 0.5270833333333333
            },
            {
              "pitch": 77,
              "velocity": 116,
              "position": 2.6666666666666665,
              "duration": 0.5270833333333333
            },
            {
              "pitch": 67,
              "velocity": 116,
              "position": 3.3333333333333335,
              "duration": 0.5270833333333333
            },
            {
              "pitch": 72,
              "velocity": 116,
              "position": 3.3333333333333335,
              "duration": 0.5270833333333333
            },
            {
              "pitch": 76,
              "velocity": 116,
              "position": 3.3333333333333335,
              "duration": 0.5270833333333333
            },
            {
              "pitch": 79,
              "velocity": 116,
              "position": 3.3333333333333335,
              "duration": 0.5270833333333333
            },
            {
              "pitch": 68,
              "velocity": 116,
              "position": 4,
              "duration": 1.19375
            },
            {
              "pitch": 72,
              "velocity": 116,
              "position": 4,
              "duration": 1.19375
            },
            {
              "pitch": 76,
              "velocity": 116,
              "position": 4,
              "duration": 1.19375
            },
            {
              "pitch": 80,
              "velocity": 116,
              "position": 4,
              "duration": 1.19375
            },
            {
              "pitch": 60,
              "velocity": 94,
              "position": 5.333333333333333,
              "duration": 0.1625
            },
            {
              "pitch": 72,
              "velocity": 94,
              "position": 5.333333333333333,
              "duration": 0.1625
            },
            {
              "pitch": 62,
              "velocity": 89,
              "position": 5.666666666666667,
              "duration": 0.1625
            },
            {
              "pitch": 74,
              "velocity": 89,
              "position": 5.666666666666667,
              "duration": 0.1625
            },
            {
              "pitch": 64,
              "velocity": 116,
              "position": 6,
              "duration": 0.5270833333333333
            },
            {
              "pitch": 68,
              "velocity": 116,
              "position": 6,
              "duration": 0.5270833333333333
            },
            {
              "pitch": 72,
              "velocity": 116,
              "position": 6,
              "duration": 0.5270833333333333
            },
            {
              "pitch": 76,
              "velocity": 116,
              "position": 6,
              "duration": 0.5270833333333333
            },
            {
              "pitch": 66,
              "velocity": 116,
              "position": 6.666666666666667,
              "duration": 0.5270833333333333
            },
            {
              "pitch": 72,
              "velocity": 116,
              "position": 6.666666666666667,
              "duration": 0.5270833333333333
            },
            {
              "pitch": 74,
              "velocity": 116,
              "position": 6.666666666666667,
              "duration": 0.5270833333333333
            },
            {
              "pitch": 78,
              "velocity": 116,
              "position": 6.666666666666667,
              "duration": 0.5270833333333333
            },
            {
              "pitch": 68,
              "velocity": 116,
              "position": 7.333333333333333,
              "duration": 0.5270833333333333
            },
            {
              "pitch": 72,
              "velocity": 116,
              "position": 7.333333333333333,
              "duration": 0.5270833333333333
            },
            {
              "pitch": 76,
              "velocity": 116,
              "position": 7.333333333333333,
              "duration": 0.5270833333333333
            },
            {
              "pitch": 80,
              "velocity": 116,
              "position": 7.333333333333333,
              "duration": 0.5270833333333333
            },
            {
              "pitch": 69,
              "velocity": 116,
              "position": 8,
              "duration": 0.7875
            },
            {
              "pitch": 72,
              "velocity": 116,
              "position": 8,
              "duration": 0.7875
            },
            {
              "pitch": 77,
              "velocity": 116,
              "position": 8,
              "duration": 0.7875
            },
            {
              "pitch": 81,
              "velocity": 116,
              "position": 8,
              "duration": 0.7875
            },
            {
              "pitch": 72,
              "velocity": 116,
              "position": 9,
              "duration": 0.7875
            },
            {
              "pitch": 76,
              "velocity": 116,
              "position": 9,
              "duration": 0.7875
            },
            {
              "pitch": 79,
              "velocity": 116,
              "position": 9,
              "duration": 0.7875
            },
            {
              "pitch": 69,
              "velocity": 116,
              "position": 10,
              "duration": 0.7875
            },
            {
              "pitch": 72,
              "velocity": 116,
              "position": 10,
              "duration": 0.7875
            },
            {
              "pitch": 77,
              "velocity": 116,
              "position": 10,
              "duration": 0.7875
            },
            {
              "pitch": 69,
              "velocity": 116,
              "position": 11,
              "duration": 0.7875
            },
            {
              "pitch": 72,
              "velocity": 116,
              "position": 11,
              "duration": 0.7875
            },
            {
              "pitch": 74,
              "velocity": 116,
              "position": 11,
              "duration": 0.7875
            },
            {
              "pitch": 67,
              "velocity": 116,
              "position": 12.333333333333334,
              "duration": 0.45416666666666666
            },
            {
              "pitch": 72,
              "velocity": 116,
              "position": 12.333333333333334,
              "duration": 0.45416666666666666
            },
            {
              "pitch": 76,
              "velocity": 116,
              "position": 12.333333333333334,
              "duration": 0.45416666666666666
            },
            {
              "pitch": 64,
              "velocity": 116,
              "position": 13,
              "duration": 0.45416666666666666
            },
            {
              "pitch": 71,
              "velocity": 116,
              "position": 13,
              "duration": 0.45416666666666666
            },
            {
              "pitch": 74,
              "velocity": 116,
              "position": 13,
              "duration": 0.45416666666666666
            },
            {
              "pitch": 64,
              "velocity": 116,
              "position": 13.666666666666666,
              "duration": 0.45416666666666666
            },
            {
              "pitch": 69,
              "velocity": 116,
              "position": 13.666666666666666,
              "duration": 0.45416666666666666
            },
            {
              "pitch": 72,
              "velocity": 116,
              "position": 13.666666666666666,
              "duration": 0.45416666666666666
            },
            {
              "pitch": 67,
              "velocity": 116,
              "position": 15.333333333333334,
              "duration": 0.31875
            },
            {
              "pitch": 79,
              "velocity": 116,
              "position": 15.333333333333334,
              "duration": 0.31875
            },
            {
              "pitch": 53,
              "velocity": 116,
              "position": 14.333333333333334,
              "duration": 1.4541666666666666
            },
            {
              "pitch": 57,
              "velocity": 116,
              "position": 14.333333333333334,
              "duration": 1.4541666666666666
            },
            {
              "pitch": 60,
              "velocity": 116,
              "position": 14.333333333333334,
              "duration": 1.4541666666666666
            },
            {
              "pitch": 69,
              "velocity": 116,
              "position": 15.666666666666666,
              "duration": 0.31875
            },
            {
              "pitch": 81,
              "velocity": 116,
              "position": 15.666666666666666,
              "duration": 0.31875
            },
            {
              "pitch": 72,
              "velocity": 116,
              "position": 16,
              "duration": 0.6520833333333333
            },
            {
              "pitch": 84,
              "velocity": 116,
              "position": 16,
              "duration": 0.6520833333333333
            },
            {
              "pitch": 52,
              "velocity": 116,
              "position": 16,
              "duration": 0.7875
            },
            {
              "pitch": 55,
              "velocity": 116,
              "position": 16,
              "duration": 0.7875
            },
            {
              "pitch": 60,
              "velocity": 116,
              "position": 16,
              "duration": 0.7875
            }
          ]
        },
        "13": {
          "ctab": {
            "srcChannel": 13,
            "name": "Pno LH",
            "accType": "CHORD2",
            "editable": false,
            "mutedNotes": [],
            "mutedChords": [
              "dim7",
              "dim",
              "minMaj7(9)",
              "minMaj7",
              "min7(11)",
              "min7(9)",
              "min(9)",
              "m7b5",
              "min7",
              "min6",
              "min"
            ],
            "autoStart": false,
            "sourceChordNote": 0,
            "sourceChordType": "Maj",
            "ctb2Low": null,
            "ctb2Main": {
              "ntr": "ROOT_TRANSPOSITION",
              "ntt": "BYPASS",
              "bassOn": false,
              "chordRootUpperLimit": 6,
              "noteLowLimit": 0,
              "noteHighLimit": 127,
              "rtr": "PITCH_SHIFT"
            },
            "ctb2High": null
          },
          "notes": [
            {
              "pitch": 43,
              "velocity": 116,
              "position": 0.010416666666666666,
              "duration": 3.7875
            },
            {
              "pitch": 42,
              "velocity": 116,
              "position": 4,
              "duration": 3.7875
            },
            {
              "pitch": 38,
              "velocity": 116,
              "position": 8,
              "duration": 0.7875
            },
            {
              "pitch": 40,
              "velocity": 116,
              "position": 9,
              "duration": 0.7875
            },
            {
              "pitch": 41,
              "velocity": 116,
              "position": 10,
              "duration": 0.7875
            },
            {
              "pitch": 42,
              "velocity": 116,
              "position": 11,
              "duration": 0.7875
            },
            {
              "pitch": 43,
              "velocity": 116,
              "position": 12.333333333333334,
              "duration": 0.12083333333333333
            },
            {
              "pitch": 44,
              "velocity": 116,
              "position": 13,
              "duration": 0.12083333333333333
            },
            {
              "pitch": 45,
              "velocity": 116,
              "position": 13.666666666666666,
              "duration": 0.12083333333333333
            },
            {
              "pitch": 43,
              "velocity": 116,
              "position": 14.333333333333334,
              "duration": 1.4541666666666666
            },
            {
              "pitch": 36,
              "velocity": 116,
              "position": 16,
              "duration": 0.45416666666666666
            }
          ]
        },
        "14": {
          "ctab": {
            "srcChannel": 14,
            "name": "Org",
            "accType": "PAD",
            "editable": false,
            "mutedNotes": [],
            "mutedChords": [
              "dim7",
              "dim",
              "minMaj7(9)",
              "minMaj7",
              "min7(11)",
              "min7(9)",
              "min(9)",
              "m7b5",
              "min7",
              "min6",
              "min"
            ],
            "autoStart": false,
            "sourceChordNote": 0,
            "sourceChordType": "Maj",
            "ctb2Low": null,
            "ctb2Main": {
              "ntr": "ROOT_TRANSPOSITION",
              "ntt": "BYPASS",
              "bassOn": false,
              "chordRootUpperLimit": 9,
              "noteLowLimit": 58,
              "noteHighLimit": 79,
              "rtr": "PITCH_SHIFT"
            },
            "ctb2High": null
          },
          "notes": [
            {
              "pitch": 55,
              "velocity": 100,
              "position": 0.010416666666666666,
              "duration": 3.975
            },
            {
              "pitch": 48,
              "velocity": 100,
              "position": 0.010416666666666666,
              "duration": 7.641666666666667
            },
            {
              "pitch": 52,
              "velocity": 100,
              "position": 0.010416666666666666,
              "duration": 7.641666666666667
            },
            {
              "pitch": 56,
              "velocity": 100,
              "position": 4,
              "duration": 3.652083333333333
            },
            {
              "pitch": 72,
              "velocity": 100,
              "position": 0.010416666666666666,
              "duration": 7.641666666666667
            },
            {
              "pitch": 84,
              "velocity": 100,
              "position": 0.010416666666666666,
              "duration": 7.641666666666667
            },
            {
              "pitch": 69,
              "velocity": 100,
              "position": 8,
              "duration": 0.7145833333333333
            },
            {
              "pitch": 72,
              "velocity": 100,
              "position": 8,
              "duration": 0.7145833333333333
            },
            {
              "pitch": 77,
              "velocity": 100,
              "position": 8,
              "duration": 0.7145833333333333
            },
            {
              "pitch": 67,
              "velocity": 100,
              "position": 9,
              "duration": 0.7145833333333333
            },
            {
              "pitch": 72,
              "velocity": 100,
              "position": 9,
              "duration": 0.7145833333333333
            },
            {
              "pitch": 76,
              "velocity": 100,
              "position": 9,
              "duration": 0.7145833333333333
            },
            {
              "pitch": 69,
              "velocity": 100,
              "position": 10,
              "duration": 0.7145833333333333
            },
            {
              "pitch": 72,
              "velocity": 100,
              "position": 10,
              "duration": 0.7145833333333333
            },
            {
              "pitch": 77,
              "velocity": 100,
              "position": 10,
              "duration": 0.7145833333333333
            },
            {
              "pitch": 69,
              "velocity": 100,
              "position": 11,
              "duration": 0.7145833333333333
            },
            {
              "pitch": 72,
              "velocity": 100,
              "position": 11,
              "duration": 0.7145833333333333
            },
            {
              "pitch": 74,
              "velocity": 100,
              "position": 11,
              "duration": 0.7145833333333333
            },
            {
              "pitch": 67,
              "velocity": 100,
              "position": 12.333333333333334,
              "duration": 0.24583333333333332
            },
            {
              "pitch": 72,
              "velocity": 100,
              "position": 12.333333333333334,
              "duration": 0.24583333333333332
            },
            {
              "pitch": 76,
              "velocity": 100,
              "position": 12.333333333333334,
              "duration": 0.24583333333333332
            },
            {
              "pitch": 68,
              "velocity": 100,
              "position": 13,
              "duration": 0.24583333333333332
            },
            {
              "pitch": 71,
              "velocity": 100,
              "position": 13,
              "duration": 0.24583333333333332
            },
            {
              "pitch": 74,
              "velocity": 100,
              "position": 13,
              "duration": 0.24583333333333332
            },
            {
              "pitch": 64,
              "velocity": 100,
              "position": 13.666666666666666,
              "duration": 0.24583333333333332
            },
            {
              "pitch": 69,
              "velocity": 100,
              "position": 13.666666666666666,
              "duration": 0.24583333333333332
            },
            {
              "pitch": 72,
              "velocity": 100,
              "position": 13.666666666666666,
              "duration": 0.24583333333333332
            },
            {
              "pitch": 65,
              "velocity": 100,
              "position": 14.333333333333334,
              "duration": 0.9125
            },
            {
              "pitch": 69,
              "velocity": 100,
              "position": 14.333333333333334,
              "duration": 0.9125
            },
            {
              "pitch": 72,
              "velocity": 100,
              "position": 14.333333333333334,
              "duration": 0.9125
            },
            {
              "pitch": 79,
              "velocity": 100,
              "position": 15.333333333333334,
              "duration": 0.24583333333333332
            },
            {
              "pitch": 81,
              "velocity": 100,
              "position": 15.666666666666666,
              "duration": 0.24583333333333332
            },
            {
              "pitch": 84,
              "velocity": 100,
              "position": 16,
              "duration": 0.7458333333333333
            },
            {
              "pitch": 52,
              "velocity": 100,
              "position": 16,
              "duration": 0.7875
            },
            {
              "pitch": 55,
              "velocity": 100,
              "position": 16,
              "duration": 0.7875
            },
            {
              "pitch": 60,
              "velocity": 100,
              "position": 16,
              "duration": 0.7875
            },
            {
              "pitch": 83,
              "velocity": 100,
              "position": 16.75,
              "duration": 0.04791666666666667
            },
            {
              "pitch": 81,
              "velocity": 100,
              "position": 16.791666666666668,
              "duration": 0.04791666666666667
            },
            {
              "pitch": 79,
              "velocity": 100,
              "position": 16.833333333333332,
              "duration": 0.04791666666666667
            },
            {
              "pitch": 77,
              "velocity": 100,
              "position": 16.875,
              "duration": 0.04791666666666667
            },
            {
              "pitch": 76,
              "velocity": 100,
              "position": 16.916666666666668,
              "duration": 0.04791666666666667
            },
            {
              "pitch": 74,
              "velocity": 100,
              "position": 16.958333333333332,
              "duration": 0.04791666666666667
            },
            {
              "pitch": 72,
              "velocity": 100,
              "position": 17,
              "duration": 0.04791666666666667
            },
            {
              "pitch": 71,
              "velocity": 100,
              "position": 17.041666666666668,
              "duration": 0.04791666666666667
            },
            {
              "pitch": 69,
              "velocity": 100,
              "position": 17.083333333333332,
              "duration": 0.04791666666666667
            },
            {
              "pitch": 67,
              "velocity": 100,
              "position": 17.125,
              "duration": 0.04791666666666667
            },
            {
              "pitch": 65,
              "velocity": 100,
              "position": 17.166666666666668,
              "duration": 0.04791666666666667
            },
            {
              "pitch": 64,
              "velocity": 100,
              "position": 17.208333333333332,
              "duration": 0.04791666666666667
            },
            {
              "pitch": 62,
              "velocity": 100,
              "position": 17.25,
              "duration": 0.04791666666666667
            },
            {
              "pitch": 60,
              "velocity": 100,
              "position": 17.291666666666668,
              "duration": 0.04791666666666667
            }
          ]
        },
        "15": {
          "ctab": {
            "srcChannel": 15,
            "name": "Cho",
            "accType": "PHRASE1",
            "editable": false,
            "mutedNotes": [],
            "mutedChords": [
              "dim7",
              "dim",
              "minMaj7(9)",
              "minMaj7",
              "min7(11)",
              "min7(9)",
              "min(9)",
              "m7b5",
              "min7",
              "min6",
              "min"
            ],
            "autoStart": false,
            "sourceChordNote": 0,
            "sourceChordType": "Maj",
            "ctb2Low": null,
            "ctb2Main": {
              "ntr": "ROOT_TRANSPOSITION",
              "ntt": "BYPASS",
              "bassOn": false,
              "chordRootUpperLimit": 6,
              "noteLowLimit": 60,
              "noteHighLimit": 127,
              "rtr": "PITCH_SHIFT"
            },
            "ctb2High": null
          },
          "notes": [
            {
              "pitch": 67,
              "velocity": 46,
              "position": 0.010416666666666666,
              "duration": 3.975
            },
            {
              "pitch": 68,
              "velocity": 46,
              "position": 4,
              "duration": 3.652083333333333
            },
            {
              "pitch": 72,
              "velocity": 46,
              "position": 0.010416666666666666,
              "duration": 7.641666666666667
            },
            {
              "pitch": 76,
              "velocity": 46,
              "position": 0.010416666666666666,
              "duration": 7.641666666666667
            },
            {
              "pitch": 69,
              "velocity": 48,
              "position": 8,
              "duration": 0.9854166666666667
            },
            {
              "pitch": 77,
              "velocity": 48,
              "position": 8,
              "duration": 0.9854166666666667
            },
            {
              "pitch": 67,
              "velocity": 48,
              "position": 9,
              "duration": 0.9854166666666667
            },
            {
              "pitch": 76,
              "velocity": 48,
              "position": 9,
              "duration": 0.9854166666666667
            },
            {
              "pitch": 77,
              "velocity": 48,
              "position": 10,
              "duration": 0.9854166666666667
            },
            {
              "pitch": 69,
              "velocity": 48,
              "position": 10,
              "duration": 1.9854166666666666
            },
            {
              "pitch": 72,
              "velocity": 48,
              "position": 8,
              "duration": 3.9854166666666666
            },
            {
              "pitch": 74,
              "velocity": 48,
              "position": 11,
              "duration": 0.9854166666666667
            },
            {
              "pitch": 67,
              "velocity": 48,
              "position": 12.333333333333334,
              "duration": 0.45416666666666666
            },
            {
              "pitch": 72,
              "velocity": 48,
              "position": 12.333333333333334,
              "duration": 0.45416666666666666
            },
            {
              "pitch": 76,
              "velocity": 48,
              "position": 12.333333333333334,
              "duration": 0.45416666666666666
            },
            {
              "pitch": 65,
              "velocity": 48,
              "position": 13,
              "duration": 0.45416666666666666
            },
            {
              "pitch": 71,
              "velocity": 48,
              "position": 13,
              "duration": 0.45416666666666666
            },
            {
              "pitch": 74,
              "velocity": 48,
              "position": 13,
              "duration": 0.45416666666666666
            },
            {
              "pitch": 64,
              "velocity": 48,
              "position": 13.666666666666666,
              "duration": 0.45416666666666666
            },
            {
              "pitch": 69,
              "velocity": 48,
              "position": 13.666666666666666,
              "duration": 0.45416666666666666
            },
            {
              "pitch": 72,
              "velocity": 48,
              "position": 13.666666666666666,
              "duration": 0.45416666666666666
            },
            {
              "pitch": 65,
              "velocity": 48,
              "position": 14.333333333333334,
              "duration": 1.31875
            },
            {
              "pitch": 69,
              "velocity": 48,
              "position": 14.333333333333334,
              "duration": 1.31875
            },
            {
              "pitch": 72,
              "velocity": 48,
              "position": 14.333333333333334,
              "duration": 1.31875
            },
            {
              "pitch": 64,
              "velocity": 48,
              "position": 16,
              "duration": 0.7875
            },
            {
              "pitch": 67,
              "velocity": 48,
              "position": 16,
              "duration": 0.7875
            },
            {
              "pitch": 72,
              "velocity": 48,
              "position": 16,
              "duration": 0.7875
            }
          ]
        }
      }
    },
    "Ending_A": {
      "type": "Ending_A",
      "sizeInBeats": 8,
      "channels": {
        "1": {
          "ctab": {
            "srcChannel": 1,
            "name": "Bass 2",
            "accType": "BASS",
            "editable": false,
            "mutedNotes": [],
            "mutedChords": [
              "7(13)",
              "7(9)",
              "7th",
              "dim7",
              "min7(11)",
              "min7(9)",
              "min(9)",
              "min7",
              "min6",
              "Maj6(9)",
              "Maj7(9)",
              "Maj(9)",
              "Maj7",
              "Maj6",
              "Maj"
            ],
            "autoStart": false,
            "sourceChordNote": 0,
            "sourceChordType": "Maj7",
            "ctb2Low": null,
            "ctb2Main": {
              "ntr": "ROOT_TRANSPOSITION",
              "ntt": "MELODY",
              "bassOn": true,
              "chordRootUpperLimit": 8,
              "noteLowLimit": 28,
              "noteHighLimit": 51,
              "rtr": "PITCH_SHIFT_TO_ROOT"
            },
            "ctb2High": null
          },
          "notes": [
            {
              "pitch": 24,
              "velocity": 74,
              "position": 0,
              "duration": 5.995833333333334
            }
          ]
        },
        "2": {
          "ctab": {
            "srcChannel": 2,
            "name": "Gt Root",
            "accType": "CHORD1",
            "editable": false,
            "mutedNotes": [],
            "mutedChords": [
              "1+2+5",
              "sus4",
              "1+5",
              "1+8",
              "Maj7aug",
              "7th",
              "dim",
              "minMaj7(9)",
              "minMaj7",
              "min7",
              "min6",
              "min",
              "aug",
              "Maj7(9)",
              "Maj7#11",
              "Maj7",
              "Maj6",
              "Maj"
            ],
            "autoStart": false,
            "sourceChordNote": 0,
            "sourceChordType": "Maj7",
            "ctb2Low": null,
            "ctb2Main": {
              "ntr": "ROOT_TRANSPOSITION",
              "ntt": "CHORD",
              "bassOn": false,
              "chordRootUpperLimit": 9,
              "noteLowLimit": 58,
              "noteHighLimit": 69,
              "rtr": "PITCH_SHIFT"
            },
            "ctb2High": null
          },
          "notes": [
            {
              "pitch": 60,
              "velocity": 116,
              "position": 0,
              "duration": 5.995833333333334
            }
          ]
        },
        "3": {
          "ctab": {
            "srcChannel": 3,
            "name": "Pno 2",
            "accType": "CHORD2",
            "editable": false,
            "mutedNotes": [],
            "mutedChords": [
              "1+2+5",
              "sus4",
              "1+5",
              "1+8",
              "7aug",
              "Maj7aug",
              "7(#9)",
              "7(b13)",
              "7(b9)",
              "7(13)",
              "7#11",
              "7(9)",
              "7b5",
              "7sus4",
              "7th",
              "dim7",
              "dim",
              "minMaj7(9)",
              "minMaj7",
              "min7(11)",
              "min7(9)",
              "min(9)",
              "m7b5",
              "min7",
              "min6",
              "aug",
              "Maj6(9)",
              "Maj7(9)",
              "Maj(9)",
              "Maj7#11",
              "Maj7",
              "Maj6"
            ],
            "autoStart": false,
            "sourceChordNote": 0,
            "sourceChordType": "Maj7",
            "ctb2Low": null,
            "ctb2Main": {
              "ntr": "ROOT_TRANSPOSITION",
              "ntt": "MELODIC_MINOR",
              "bassOn": false,
              "chordRootUpperLimit": 6,
              "noteLowLimit": 54,
              "noteHighLimit": 127,
              "rtr": "PITCH_SHIFT"
            },
            "ctb2High": null
          },
          "notes": [
            {
              "pitch": 43,
              "velocity": 116,
              "position": 0,
              "duration": 5.995833333333334
            },
            {
              "pitch": 48,
              "velocity": 116,
              "position": 0,
              "duration": 5.995833333333334
            },
            {
              "pitch": 52,
              "velocity": 116,
              "position": 0,
              "duration": 5.995833333333334
            }
          ]
        },
        "5": {
          "ctab": {
            "srcChannel": 5,
            "name": "Org 2",
            "accType": "PAD",
            "editable": false,
            "mutedNotes": [],
            "mutedChords": [
              "1+2+5",
              "sus4",
              "1+5",
              "1+8",
              "7aug",
              "Maj7aug",
              "7(#9)",
              "7(b13)",
              "7(b9)",
              "7(13)",
              "7#11",
              "7(9)",
              "7b5",
              "7sus4",
              "7th",
              "dim7",
              "dim",
              "minMaj7(9)",
              "minMaj7",
              "min7(11)",
              "min7(9)",
              "min(9)",
              "m7b5",
              "min7",
              "min6",
              "aug",
              "Maj6(9)",
              "Maj7(9)",
              "Maj(9)",
              "Maj7#11",
              "Maj7",
              "Maj6"
            ],
            "autoStart": false,
            "sourceChordNote": 0,
            "sourceChordType": "Maj7",
            "ctb2Low": null,
            "ctb2Main": {
              "ntr": "ROOT_TRANSPOSITION",
              "ntt": "MELODIC_MINOR",
              "bassOn": false,
              "chordRootUpperLimit": 6,
              "noteLowLimit": 57,
              "noteHighLimit": 127,
              "rtr": "PITCH_SHIFT"
            },
            "ctb2High": null
          },
          "notes": [
            {
              "pitch": 60,
              "velocity": 108,
              "position": 0.010416666666666666,
              "duration": 5.985416666666667
            }
          ]
        },
        "6": {
          "ctab": {
            "srcChannel": 6,
            "name": "Choir 2",
            "accType": "PHRASE1",
            "editable": false,
            "mutedNotes": [],
            "mutedChords": [
              "1+2+5",
              "sus4",
              "1+5",
              "1+8",
              "7aug",
              "Maj7aug",
              "7(#9)",
              "7(b13)",
              "7(b9)",
              "7(13)",
              "7#11",
              "7(9)",
              "7b5",
              "7sus4",
              "7th",
              "dim7",
              "dim",
              "minMaj7(9)",
              "minMaj7",
              "min7(11)",
              "min7(9)",
              "min(9)",
              "m7b5",
              "min7",
              "min6",
              "min",
              "aug",
              "Maj6(9)",
              "Maj7(9)",
              "Maj(9)",
              "Maj7#11",
              "Maj7",
              "Maj6"
            ],
            "autoStart": false,
            "sourceChordNote": 0,
            "sourceChordType": "Maj7",
            "ctb2Low": null,
            "ctb2Main": {
              "ntr": "ROOT_TRANSPOSITION",
              "ntt": "MELODIC_MINOR",
              "bassOn": false,
              "chordRootUpperLimit": 6,
              "noteLowLimit": 57,
              "noteHighLimit": 79,
              "rtr": "PITCH_SHIFT"
            },
            "ctb2High": null
          },
          "notes": [
            {
              "pitch": 48,
              "velocity": 50,
              "position": 0,
              "duration": 5.995833333333334
            },
            {
              "pitch": 52,
              "velocity": 50,
              "position": 0,
              "duration": 5.995833333333334
            },
            {
              "pitch": 55,
              "velocity": 50,
              "position": 0,
              "duration": 5.995833333333334
            }
          ]
        },
        "7": {
          "ctab": {
            "srcChannel": 7,
            "name": "CC_Crash",
            "accType": "RHYTHM",
            "editable": false,
            "mutedNotes": [],
            "mutedChords": [
              "1+2+5",
              "sus4",
              "1+5",
              "1+8",
              "7aug",
              "Maj7aug",
              "7(#9)",
              "7(b13)",
              "7(b9)",
              "7(13)",
              "7#11",
              "7(9)",
              "7b5",
              "7sus4",
              "7th",
              "dim7",
              "dim",
              "minMaj7(9)",
              "minMaj7",
              "min7(11)",
              "min7(9)",
              "min(9)",
              "m7b5",
              "min7",
              "min6",
              "min",
              "aug",
              "Maj6(9)",
              "Maj7(9)",
              "Maj(9)",
              "Maj7#11",
              "Maj7",
              "Maj6",
              "Maj"
            ],
            "autoStart": true,
            "sourceChordNote": 0,
            "sourceChordType": "Maj",
            "ctb2Low": null,
            "ctb2Main": {
              "ntr": "ROOT_FIXED",
              "ntt": "BYPASS",
              "bassOn": false,
              "chordRootUpperLimit": 0,
              "noteLowLimit": 0,
              "noteHighLimit": 127,
              "rtr": "RETRIGGER"
            },
            "ctb2High": null
          },
          "notes": []
        },
        "9": {
          "ctab": {
            "srcChannel": 9,
            "name": "Drums",
            "accType": "RHYTHM",
            "editable": false,
            "mutedNotes": [],
            "mutedChords": [],
            "autoStart": true,
            "sourceChordNote": 0,
            "sourceChordType": "Maj7",
            "ctb2Low": null,
            "ctb2Main": {
              "ntr": "ROOT_FIXED",
              "ntt": "BYPASS",
              "bassOn": false,
              "chordRootUpperLimit": 6,
              "noteLowLimit": 0,
              "noteHighLimit": 127,
              "rtr": "PITCH_SHIFT"
            },
            "ctb2High": null
          },
          "notes": [
            {
              "pitch": 35,
              "velocity": 90,
              "position": 0,
              "duration": 0.00625
            },
            {
              "pitch": 54,
              "velocity": 71,
              "position": 0,
              "duration": 0.00625
            },
            {
              "pitch": 49,
              "velocity": 12,
              "position": 1,
              "duration": 0.00625
            },
            {
              "pitch": 49,
              "velocity": 13,
              "position": 1.125,
              "duration": 0.00625
            },
            {
              "pitch": 49,
              "velocity": 14,
              "position": 1.25,
              "duration": 0.00625
            },
            {
              "pitch": 49,
              "velocity": 16,
              "position": 1.375,
              "duration": 0.00625
            },
            {
              "pitch": 49,
              "velocity": 17,
              "position": 1.5,
              "duration": 0.00625
            },
            {
              "pitch": 49,
              "velocity": 18,
              "position": 1.625,
              "duration": 0.00625
            },
            {
              "pitch": 49,
              "velocity": 19,
              "position": 1.75,
              "duration": 0.00625
            },
            {
              "pitch": 49,
              "velocity": 20,
              "position": 1.875,
              "duration": 0.00625
            },
            {
              "pitch": 49,
              "velocity": 21,
              "position": 2,
              "duration": 0.00625
            },
            {
              "pitch": 49,
              "velocity": 22,
              "position": 2.125,
              "duration": 0.00625
            },
            {
              "pitch": 49,
              "velocity": 24,
              "position": 2.25,
              "duration": 0.00625
            },
            {
              "pitch": 49,
              "velocity": 27,
              "position": 2.375,
              "duration": 0.00625
            },
            {
              "pitch": 49,
              "velocity": 35,
              "position": 2.5,
              "duration": 0.00625
            },
            {
              "pitch": 49,
              "velocity": 40,
              "position": 2.625,
              "duration": 0.00625
            },
            {
              "pitch": 49,
              "velocity": 46,
              "position": 2.75,
              "duration": 0.00625
            },
            {
              "pitch": 49,
              "velocity": 54,
              "position": 2.875,
              "duration": 0.00625
            },
            {
              "pitch": 49,
              "velocity": 57,
              "position": 3,
              "duration": 0.00625
            },
            {
              "pitch": 38,
              "velocity": 20,
              "position": 5.583333333333333,
              "duration": 0.00625
            },
            {
              "pitch": 38,
              "velocity": 53,
              "position": 5.75,
              "duration": 0.00625
            },
            {
              "pitch": 35,
              "velocity": 90,
              "position": 5.916666666666667,
              "duration": 0.00625
            },
            {
              "pitch": 44,
              "velocity": 41,
              "position": 5.916666666666667,
              "duration": 0.00625
            }
          ]
        },
        "10": {
          "ctab": {
            "srcChannel": 10,
            "name": "Bass",
            "accType": "BASS",
            "editable": false,
            "mutedNotes": [],
            "mutedChords": [
              "1+2+5",
              "sus4",
              "1+5",
              "1+8",
              "7aug",
              "Maj7aug",
              "7(#9)",
              "7(b13)",
              "7(b9)",
              "7#11",
              "7b5",
              "7sus4",
              "dim",
              "minMaj7(9)",
              "minMaj7",
              "m7b5",
              "min",
              "aug",
              "Maj7#11"
            ],
            "autoStart": false,
            "sourceChordNote": 0,
            "sourceChordType": "Maj7",
            "ctb2Low": null,
            "ctb2Main": {
              "ntr": "ROOT_TRANSPOSITION",
              "ntt": "MELODY",
              "bassOn": true,
              "chordRootUpperLimit": 8,
              "noteLowLimit": 28,
              "noteHighLimit": 51,
              "rtr": "PITCH_SHIFT_TO_ROOT"
            },
            "ctb2High": null
          },
          "notes": [
            {
              "pitch": 24,
              "velocity": 74,
              "position": 0,
              "duration": 5.985416666666667
            }
          ]
        },
        "11": {
          "ctab": {
            "srcChannel": 11,
            "name": "Gtr",
            "accType": "CHORD1",
            "editable": false,
            "mutedNotes": [],
            "mutedChords": [],
            "autoStart": false,
            "sourceChordNote": 0,
            "sourceChordType": "Maj7",
            "ctb2Low": null,
            "ctb2Main": {
              "ntr": "ROOT_TRANSPOSITION",
              "ntt": "CHORD",
              "bassOn": false,
              "chordRootUpperLimit": 7,
              "noteLowLimit": 58,
              "noteHighLimit": 69,
              "rtr": "PITCH_SHIFT"
            },
            "ctb2High": null
          },
          "notes": [
            {
              "pitch": 59,
              "velocity": 116,
              "position": 0,
              "duration": 5.995833333333334
            },
            {
              "pitch": 64,
              "velocity": 116,
              "position": 0.010416666666666666,
              "duration": 5.985416666666667
            },
            {
              "pitch": 67,
              "velocity": 116,
              "position": 0.020833333333333332,
              "duration": 5.975
            }
          ]
        },
        "12": {
          "ctab": {
            "srcChannel": 12,
            "name": "Pno RH",
            "accType": "CHORD2",
            "editable": false,
            "mutedNotes": [],
            "mutedChords": [
              "min",
              "Maj"
            ],
            "autoStart": false,
            "sourceChordNote": 0,
            "sourceChordType": "Maj7",
            "ctb2Low": null,
            "ctb2Main": {
              "ntr": "ROOT_FIXED",
              "ntt": "CHORD",
              "bassOn": false,
              "chordRootUpperLimit": 7,
              "noteLowLimit": 0,
              "noteHighLimit": 127,
              "rtr": "PITCH_SHIFT"
            },
            "ctb2High": null
          },
          "notes": [
            {
              "pitch": 55,
              "velocity": 116,
              "position": 0,
              "duration": 5.995833333333334
            },
            {
              "pitch": 59,
              "velocity": 116,
              "position": 0,
              "duration": 5.995833333333334
            },
            {
              "pitch": 64,
              "velocity": 116,
              "position": 0,
              "duration": 5.995833333333334
            }
          ]
        },
        "13": {
          "ctab": {
            "srcChannel": 13,
            "name": "Pno LH",
            "accType": "CHORD2",
            "editable": false,
            "mutedNotes": [],
            "mutedChords": [],
            "autoStart": false,
            "sourceChordNote": 0,
            "sourceChordType": "Maj7",
            "ctb2Low": null,
            "ctb2Main": {
              "ntr": "ROOT_TRANSPOSITION",
              "ntt": "MELODY",
              "bassOn": true,
              "chordRootUpperLimit": 5,
              "noteLowLimit": 0,
              "noteHighLimit": 127,
              "rtr": "PITCH_SHIFT"
            },
            "ctb2High": null
          },
          "notes": [
            {
              "pitch": 36,
              "velocity": 112,
              "position": 0,
              "duration": 5.995833333333334
            }
          ]
        },
        "14": {
          "ctab": {
            "srcChannel": 14,
            "name": "Organ",
            "accType": "PAD",
            "editable": false,
            "mutedNotes": [],
            "mutedChords": [
              "min",
              "Maj"
            ],
            "autoStart": false,
            "sourceChordNote": 0,
            "sourceChordType": "Maj7",
            "ctb2Low": null,
            "ctb2Main": {
              "ntr": "ROOT_FIXED",
              "ntt": "CHORD",
              "bassOn": false,
              "chordRootUpperLimit": 7,
              "noteLowLimit": 0,
              "noteHighLimit": 127,
              "rtr": "PITCH_SHIFT"
            },
            "ctb2High": null
          },
          "notes": [
            {
              "pitch": 55,
              "velocity": 63,
              "position": 0.010416666666666666,
              "duration": 5.985416666666667
            },
            {
              "pitch": 59,
              "velocity": 63,
              "position": 0.010416666666666666,
              "duration": 5.985416666666667
            },
            {
              "pitch": 64,
              "velocity": 63,
              "position": 0.010416666666666666,
              "duration": 5.985416666666667
            }
          ]
        },
        "15": {
          "ctab": {
            "srcChannel": 15,
            "name": "Choir",
            "accType": "PHRASE1",
            "editable": false,
            "mutedNotes": [],
            "mutedChords": [
              "Maj"
            ],
            "autoStart": false,
            "sourceChordNote": 0,
            "sourceChordType": "Maj7",
            "ctb2Low": null,
            "ctb2Main": {
              "ntr": "ROOT_FIXED",
              "ntt": "CHORD",
              "bassOn": false,
              "chordRootUpperLimit": 7,
              "noteLowLimit": 57,
              "noteHighLimit": 79,
              "rtr": "PITCH_SHIFT"
            },
            "ctb2High": null
          },
          "notes": [
            {
              "pitch": 47,
              "velocity": 50,
              "position": 0,
              "duration": 5.995833333333334
            },
            {
              "pitch": 52,
              "velocity": 50,
              "position": 0,
              "duration": 5.995833333333334
            },
            {
              "pitch": 55,
              "velocity": 50,
              "position": 0,
              "duration": 5.995833333333334
            }
          ]
        }
      }
    },
    "Ending_B": {
      "type": "Ending_B",
      "sizeInBeats": 16,
      "channels": {
        "0": {
          "ctab": {
            "srcChannel": 0,
            "name": "Bass Fx",
            "accType": "BASS",
            "editable": true,
            "mutedNotes": [],
            "mutedChords": [],
            "autoStart": false,
            "sourceChordNote": 0,
            "sourceChordType": "Maj7",
            "ctb2Low": null,
            "ctb2Main": {
              "ntr": "ROOT_FIXED",
              "ntt": "BYPASS",
              "bassOn": false,
              "chordRootUpperLimit": 6,
              "noteLowLimit": 0,
              "noteHighLimit": 127,
              "rtr": "PITCH_SHIFT"
            },
            "ctb2High": null
          },
          "notes": [
            {
              "pitch": 99,
              "velocity": 100,
              "position": 13.697916666666666,
              "duration": 0.8333333333333334
            }
          ]
        },
        "1": {
          "ctab": {
            "srcChannel": 1,
            "name": "Bass",
            "accType": "BASS",
            "editable": false,
            "mutedNotes": [],
            "mutedChords": [
              "1+2+5",
              "sus4",
              "1+5",
              "1+8",
              "7aug",
              "Maj7aug",
              "7(#9)",
              "7(b13)",
              "7(b9)",
              "7(13)",
              "7#11",
              "7(9)",
              "7b5",
              "7sus4",
              "7th",
              "aug",
              "Maj6(9)",
              "Maj7(9)",
              "Maj(9)",
              "Maj7#11",
              "Maj7",
              "Maj6",
              "Maj"
            ],
            "autoStart": false,
            "sourceChordNote": 0,
            "sourceChordType": "min",
            "ctb2Low": null,
            "ctb2Main": {
              "ntr": "ROOT_TRANSPOSITION",
              "ntt": "BYPASS",
              "bassOn": false,
              "chordRootUpperLimit": 8,
              "noteLowLimit": 28,
              "noteHighLimit": 127,
              "rtr": "PITCH_SHIFT"
            },
            "ctb2High": null
          },
          "notes": [
            {
              "pitch": 29,
              "velocity": 74,
              "position": 0,
              "duration": 0.6208333333333333
            },
            {
              "pitch": 29,
              "velocity": 60,
              "position": 0.6666666666666666,
              "duration": 0.1625
            },
            {
              "pitch": 27,
              "velocity": 110,
              "position": 1.3333333333333333,
              "duration": 0.10416666666666667
            },
            {
              "pitch": 27,
              "velocity": 60,
              "position": 1.6666666666666667,
              "duration": 0.04791666666666667
            },
            {
              "pitch": 27,
              "velocity": 74,
              "position": 2,
              "duration": 0.6208333333333333
            },
            {
              "pitch": 27,
              "velocity": 57,
              "position": 2.6666666666666665,
              "duration": 0.1625
            },
            {
              "pitch": 27,
              "velocity": 110,
              "position": 3.6666666666666665,
              "duration": 0.10416666666666667
            },
            {
              "pitch": 26,
              "velocity": 74,
              "position": 4,
              "duration": 0.6208333333333333
            },
            {
              "pitch": 26,
              "velocity": 110,
              "position": 4.666666666666667,
              "duration": 0.10416666666666667
            },
            {
              "pitch": 26,
              "velocity": 74,
              "position": 5,
              "duration": 0.9541666666666667
            },
            {
              "pitch": 31,
              "velocity": 74,
              "position": 6,
              "duration": 0.9854166666666667
            },
            {
              "pitch": 31,
              "velocity": 74,
              "position": 7,
              "duration": 0.9854166666666667
            },
            {
              "pitch": 24,
              "velocity": 74,
              "position": 8,
              "duration": 5.697916666666667
            }
          ]
        },
        "2": {
          "ctab": {
            "srcChannel": 2,
            "name": "Gt",
            "accType": "CHORD1",
            "editable": false,
            "mutedNotes": [],
            "mutedChords": [
              "1+2+5",
              "sus4",
              "1+5",
              "1+8",
              "7aug",
              "Maj7aug",
              "7(#9)",
              "7(b13)",
              "7(b9)",
              "7(13)",
              "7#11",
              "7(9)",
              "7b5",
              "7sus4",
              "7th",
              "aug",
              "Maj6(9)",
              "Maj7(9)",
              "Maj(9)",
              "Maj7#11",
              "Maj7",
              "Maj6",
              "Maj"
            ],
            "autoStart": false,
            "sourceChordNote": 0,
            "sourceChordType": "min",
            "ctb2Low": null,
            "ctb2Main": {
              "ntr": "ROOT_TRANSPOSITION",
              "ntt": "BYPASS",
              "bassOn": false,
              "chordRootUpperLimit": 8,
              "noteLowLimit": 58,
              "noteHighLimit": 69,
              "rtr": "PITCH_SHIFT"
            },
            "ctb2High": null
          },
          "notes": [
            {
              "pitch": 60,
              "velocity": 64,
              "position": 0.3333333333333333,
              "duration": 0.027083333333333334
            },
            {
              "pitch": 65,
              "velocity": 64,
              "position": 0.34375,
              "duration": 0.027083333333333334
            },
            {
              "pitch": 68,
              "velocity": 64,
              "position": 0.3541666666666667,
              "duration": 0.027083333333333334
            },
            {
              "pitch": 60,
              "velocity": 46,
              "position": 0.6666666666666666,
              "duration": 0.027083333333333334
            },
            {
              "pitch": 65,
              "velocity": 46,
              "position": 0.6770833333333334,
              "duration": 0.027083333333333334
            },
            {
              "pitch": 60,
              "velocity": 116,
              "position": 1,
              "duration": 0.21458333333333332
            },
            {
              "pitch": 65,
              "velocity": 116,
              "position": 1.0104166666666667,
              "duration": 0.21458333333333332
            },
            {
              "pitch": 68,
              "velocity": 116,
              "position": 1.0208333333333333,
              "duration": 0.21458333333333332
            },
            {
              "pitch": 60,
              "velocity": 64,
              "position": 2.3333333333333335,
              "duration": 0.027083333333333334
            },
            {
              "pitch": 63,
              "velocity": 64,
              "position": 2.34375,
              "duration": 0.027083333333333334
            },
            {
              "pitch": 67,
              "velocity": 64,
              "position": 2.3541666666666665,
              "duration": 0.027083333333333334
            },
            {
              "pitch": 60,
              "velocity": 46,
              "position": 2.6666666666666665,
              "duration": 0.027083333333333334
            },
            {
              "pitch": 63,
              "velocity": 46,
              "position": 2.6770833333333335,
              "duration": 0.027083333333333334
            },
            {
              "pitch": 60,
              "velocity": 116,
              "position": 3,
              "duration": 0.21458333333333332
            },
            {
              "pitch": 63,
              "velocity": 116,
              "position": 3.0208333333333335,
              "duration": 0.21458333333333332
            },
            {
              "pitch": 67,
              "velocity": 116,
              "position": 3.0208333333333335,
              "duration": 0.21458333333333332
            },
            {
              "pitch": 60,
              "velocity": 64,
              "position": 4.333333333333333,
              "duration": 0.027083333333333334
            },
            {
              "pitch": 66,
              "velocity": 64,
              "position": 4.34375,
              "duration": 0.027083333333333334
            },
            {
              "pitch": 60,
              "velocity": 46,
              "position": 4.666666666666667,
              "duration": 0.027083333333333334
            },
            {
              "pitch": 66,
              "velocity": 46,
              "position": 4.677083333333333,
              "duration": 0.027083333333333334
            },
            {
              "pitch": 60,
              "velocity": 116,
              "position": 5,
              "duration": 0.21458333333333332
            },
            {
              "pitch": 66,
              "velocity": 116,
              "position": 5.010416666666667,
              "duration": 0.21458333333333332
            },
            {
              "pitch": 60,
              "velocity": 64,
              "position": 5.333333333333333,
              "duration": 0.027083333333333334
            },
            {
              "pitch": 66,
              "velocity": 64,
              "position": 5.34375,
              "duration": 0.027083333333333334
            },
            {
              "pitch": 60,
              "velocity": 46,
              "position": 5.666666666666667,
              "duration": 0.027083333333333334
            },
            {
              "pitch": 66,
              "velocity": 46,
              "position": 5.677083333333333,
              "duration": 0.027083333333333334
            },
            {
              "pitch": 59,
              "velocity": 116,
              "position": 6,
              "duration": 0.9854166666666667
            },
            {
              "pitch": 63,
              "velocity": 116,
              "position": 6.010416666666667,
              "duration": 0.975
            },
            {
              "pitch": 67,
              "velocity": 116,
              "position": 6.020833333333333,
              "duration": 0.9645833333333333
            },
            {
              "pitch": 59,
              "velocity": 116,
              "position": 7,
              "duration": 0.9854166666666667
            },
            {
              "pitch": 62,
              "velocity": 116,
              "position": 7.010416666666667,
              "duration": 0.975
            },
            {
              "pitch": 67,
              "velocity": 116,
              "position": 7.020833333333333,
              "duration": 0.9645833333333333
            },
            {
              "pitch": 60,
              "velocity": 116,
              "position": 8,
              "duration": 5.995833333333334
            },
            {
              "pitch": 63,
              "velocity": 116,
              "position": 8.010416666666666,
              "duration": 5.985416666666667
            },
            {
              "pitch": 67,
              "velocity": 116,
              "position": 8.020833333333334,
              "duration": 5.975
            }
          ]
        },
        "3": {
          "ctab": {
            "srcChannel": 3,
            "name": "Pno",
            "accType": "CHORD2",
            "editable": false,
            "mutedNotes": [],
            "mutedChords": [
              "1+2+5",
              "sus4",
              "1+5",
              "1+8",
              "7aug",
              "Maj7aug",
              "7(#9)",
              "7(b13)",
              "7(b9)",
              "7(13)",
              "7#11",
              "7(9)",
              "7b5",
              "7sus4",
              "7th",
              "aug",
              "Maj6(9)",
              "Maj7(9)",
              "Maj(9)",
              "Maj7#11",
              "Maj7",
              "Maj6",
              "Maj"
            ],
            "autoStart": false,
            "sourceChordNote": 0,
            "sourceChordType": "min",
            "ctb2Low": null,
            "ctb2Main": {
              "ntr": "ROOT_TRANSPOSITION",
              "ntt": "BYPASS",
              "bassOn": false,
              "chordRootUpperLimit": 11,
              "noteLowLimit": 54,
              "noteHighLimit": 127,
              "rtr": "PITCH_SHIFT"
            },
            "ctb2High": null
          },
          "notes": [
            {
              "pitch": 56,
              "velocity": 116,
              "position": 0.3333333333333333,
              "duration": 0.11041666666666666
            },
            {
              "pitch": 60,
              "velocity": 116,
              "position": 0.3333333333333333,
              "duration": 0.11041666666666666
            },
            {
              "pitch": 65,
              "velocity": 116,
              "position": 0.3333333333333333,
              "duration": 0.11041666666666666
            },
            {
              "pitch": 56,
              "velocity": 116,
              "position": 1,
              "duration": 0.9854166666666667
            },
            {
              "pitch": 60,
              "velocity": 116,
              "position": 1,
              "duration": 0.9854166666666667
            },
            {
              "pitch": 65,
              "velocity": 116,
              "position": 1,
              "duration": 0.9854166666666667
            },
            {
              "pitch": 55,
              "velocity": 116,
              "position": 2.3333333333333335,
              "duration": 0.11041666666666666
            },
            {
              "pitch": 60,
              "velocity": 116,
              "position": 2.3333333333333335,
              "duration": 0.11041666666666666
            },
            {
              "pitch": 63,
              "velocity": 116,
              "position": 2.3333333333333335,
              "duration": 0.11041666666666666
            },
            {
              "pitch": 55,
              "velocity": 116,
              "position": 3,
              "duration": 0.9854166666666667
            },
            {
              "pitch": 60,
              "velocity": 116,
              "position": 3,
              "duration": 0.9854166666666667
            },
            {
              "pitch": 63,
              "velocity": 116,
              "position": 3,
              "duration": 0.9854166666666667
            },
            {
              "pitch": 54,
              "velocity": 116,
              "position": 4,
              "duration": 0.9854166666666667
            },
            {
              "pitch": 60,
              "velocity": 116,
              "position": 4,
              "duration": 0.9854166666666667
            },
            {
              "pitch": 63,
              "velocity": 116,
              "position": 4,
              "duration": 0.9854166666666667
            },
            {
              "pitch": 66,
              "velocity": 116,
              "position": 5,
              "duration": 0.5166666666666667
            },
            {
              "pitch": 75,
              "velocity": 116,
              "position": 5,
              "duration": 0.5166666666666667
            },
            {
              "pitch": 72,
              "velocity": 116,
              "position": 5,
              "duration": 0.6520833333333333
            },
            {
              "pitch": 66,
              "velocity": 116,
              "position": 5.666666666666667,
              "duration": 0.23541666666666666
            },
            {
              "pitch": 72,
              "velocity": 116,
              "position": 5.666666666666667,
              "duration": 0.23541666666666666
            },
            {
              "pitch": 77,
              "velocity": 116,
              "position": 5.666666666666667,
              "duration": 0.23541666666666666
            },
            {
              "pitch": 71,
              "velocity": 116,
              "position": 6,
              "duration": 0.94375
            },
            {
              "pitch": 65,
              "velocity": 116,
              "position": 6,
              "duration": 0.9854166666666667
            },
            {
              "pitch": 75,
              "velocity": 116,
              "position": 6,
              "duration": 0.9854166666666667
            },
            {
              "pitch": 65,
              "velocity": 116,
              "position": 7,
              "duration": 0.9854166666666667
            },
            {
              "pitch": 71,
              "velocity": 116,
              "position": 7,
              "duration": 0.9854166666666667
            },
            {
              "pitch": 74,
              "velocity": 116,
              "position": 7,
              "duration": 0.9854166666666667
            },
            {
              "pitch": 63,
              "velocity": 116,
              "position": 8,
              "duration": 5.995833333333334
            },
            {
              "pitch": 67,
              "velocity": 116,
              "position": 8,
              "duration": 5.995833333333334
            },
            {
              "pitch": 72,
              "velocity": 116,
              "position": 8,
              "duration": 5.995833333333334
            }
          ]
        },
        "4": {
          "ctab": {
            "srcChannel": 4,
            "name": "Pno LH",
            "accType": "CHORD2",
            "editable": false,
            "mutedNotes": [],
            "mutedChords": [
              "1+2+5",
              "sus4",
              "1+5",
              "1+8",
              "7aug",
              "Maj7aug",
              "7(#9)",
              "7(b13)",
              "7(b9)",
              "7(13)",
              "7#11",
              "7(9)",
              "7b5",
              "7sus4",
              "7th",
              "aug",
              "Maj6(9)",
              "Maj7(9)",
              "Maj(9)",
              "Maj7#11",
              "Maj7",
              "Maj6",
              "Maj"
            ],
            "autoStart": false,
            "sourceChordNote": 0,
            "sourceChordType": "min",
            "ctb2Low": null,
            "ctb2Main": {
              "ntr": "ROOT_TRANSPOSITION",
              "ntt": "BYPASS",
              "bassOn": false,
              "chordRootUpperLimit": 9,
              "noteLowLimit": 0,
              "noteHighLimit": 127,
              "rtr": "PITCH_SHIFT"
            },
            "ctb2High": null
          },
          "notes": [
            {
              "pitch": 41,
              "velocity": 116,
              "position": 0,
              "duration": 1.31875
            },
            {
              "pitch": 53,
              "velocity": 116,
              "position": 0,
              "duration": 1.6520833333333333
            },
            {
              "pitch": 41,
              "velocity": 80,
              "position": 1.3333333333333333,
              "duration": 0.6520833333333333
            },
            {
              "pitch": 53,
              "velocity": 98,
              "position": 1.6666666666666667,
              "duration": 0.31875
            },
            {
              "pitch": 39,
              "velocity": 116,
              "position": 2,
              "duration": 1.31875
            },
            {
              "pitch": 51,
              "velocity": 116,
              "position": 2,
              "duration": 1.6520833333333333
            },
            {
              "pitch": 39,
              "velocity": 80,
              "position": 3.3333333333333335,
              "duration": 0.6520833333333333
            },
            {
              "pitch": 51,
              "velocity": 98,
              "position": 3.6666666666666665,
              "duration": 0.31875
            },
            {
              "pitch": 38,
              "velocity": 116,
              "position": 4,
              "duration": 1.31875
            },
            {
              "pitch": 50,
              "velocity": 116,
              "position": 4,
              "duration": 1.6520833333333333
            },
            {
              "pitch": 38,
              "velocity": 80,
              "position": 5.333333333333333,
              "duration": 0.6520833333333333
            },
            {
              "pitch": 50,
              "velocity": 98,
              "position": 5.666666666666667,
              "duration": 0.31875
            },
            {
              "pitch": 43,
              "velocity": 116,
              "position": 6,
              "duration": 0.9854166666666667
            },
            {
              "pitch": 43,
              "velocity": 116,
              "position": 7,
              "duration": 0.9854166666666667
            },
            {
              "pitch": 55,
              "velocity": 116,
              "position": 6,
              "duration": 1.9854166666666666
            },
            {
              "pitch": 36,
              "velocity": 116,
              "position": 8,
              "duration": 5.995833333333334
            },
            {
              "pitch": 48,
              "velocity": 116,
              "position": 8,
              "duration": 5.995833333333334
            }
          ]
        },
        "5": {
          "ctab": {
            "srcChannel": 5,
            "name": "Org",
            "accType": "PAD",
            "editable": false,
            "mutedNotes": [],
            "mutedChords": [
              "1+2+5",
              "sus4",
              "1+5",
              "1+8",
              "7aug",
              "Maj7aug",
              "7(#9)",
              "7(b13)",
              "7(b9)",
              "7(13)",
              "7#11",
              "7(9)",
              "7b5",
              "7sus4",
              "7th",
              "aug",
              "Maj6(9)",
              "Maj7(9)",
              "Maj(9)",
              "Maj7#11",
              "Maj7",
              "Maj6",
              "Maj"
            ],
            "autoStart": false,
            "sourceChordNote": 0,
            "sourceChordType": "min",
            "ctb2Low": null,
            "ctb2Main": {
              "ntr": "ROOT_TRANSPOSITION",
              "ntt": "BYPASS",
              "bassOn": false,
              "chordRootUpperLimit": 8,
              "noteLowLimit": 54,
              "noteHighLimit": 65,
              "rtr": "PITCH_SHIFT"
            },
            "ctb2High": null
          },
          "notes": [
            {
              "pitch": 68,
              "velocity": 108,
              "position": 0.010416666666666666,
              "duration": 1.975
            },
            {
              "pitch": 77,
              "velocity": 108,
              "position": 0.010416666666666666,
              "duration": 1.975
            },
            {
              "pitch": 67,
              "velocity": 108,
              "position": 2.0104166666666665,
              "duration": 1.975
            },
            {
              "pitch": 66,
              "velocity": 108,
              "position": 4.010416666666667,
              "duration": 1.975
            },
            {
              "pitch": 72,
              "velocity": 108,
              "position": 0.010416666666666666,
              "duration": 5.985416666666667
            },
            {
              "pitch": 75,
              "velocity": 108,
              "position": 2.0104166666666665,
              "duration": 4.975
            },
            {
              "pitch": 71,
              "velocity": 108,
              "position": 6.010416666666667,
              "duration": 1.9854166666666666
            },
            {
              "pitch": 74,
              "velocity": 108,
              "position": 7.010416666666667,
              "duration": 0.9854166666666667
            },
            {
              "pitch": 67,
              "velocity": 108,
              "position": 6.010416666666667,
              "duration": 7.985416666666667
            },
            {
              "pitch": 72,
              "velocity": 108,
              "position": 8.010416666666666,
              "duration": 5.985416666666667
            },
            {
              "pitch": 75,
              "velocity": 108,
              "position": 8.010416666666666,
              "duration": 5.985416666666667
            }
          ]
        },
        "6": {
          "ctab": {
            "srcChannel": 6,
            "name": "Cho",
            "accType": "PHRASE1",
            "editable": false,
            "mutedNotes": [],
            "mutedChords": [
              "1+2+5",
              "sus4",
              "1+5",
              "1+8",
              "7aug",
              "Maj7aug",
              "7(#9)",
              "7(b13)",
              "7(b9)",
              "7(13)",
              "7#11",
              "7(9)",
              "7b5",
              "7sus4",
              "7th",
              "aug",
              "Maj6(9)",
              "Maj7(9)",
              "Maj(9)",
              "Maj7#11",
              "Maj7",
              "Maj6",
              "Maj"
            ],
            "autoStart": false,
            "sourceChordNote": 0,
            "sourceChordType": "min",
            "ctb2Low": null,
            "ctb2Main": {
              "ntr": "ROOT_TRANSPOSITION",
              "ntt": "BYPASS",
              "bassOn": false,
              "chordRootUpperLimit": 6,
              "noteLowLimit": 57,
              "noteHighLimit": 79,
              "rtr": "PITCH_SHIFT"
            },
            "ctb2High": null
          },
          "notes": [
            {
              "pitch": 53,
              "velocity": 51,
              "position": 0.010416666666666666,
              "duration": 1.975
            },
            {
              "pitch": 56,
              "velocity": 51,
              "position": 0.010416666666666666,
              "duration": 1.975
            },
            {
              "pitch": 80,
              "velocity": 99,
              "position": 1.0104166666666667,
              "duration": 0.975
            },
            {
              "pitch": 84,
              "velocity": 99,
              "position": 1.0104166666666667,
              "duration": 0.975
            },
            {
              "pitch": 89,
              "velocity": 99,
              "position": 1.0104166666666667,
              "duration": 0.975
            },
            {
              "pitch": 51,
              "velocity": 51,
              "position": 2.0104166666666665,
              "duration": 1.975
            },
            {
              "pitch": 55,
              "velocity": 51,
              "position": 2.0104166666666665,
              "duration": 1.975
            },
            {
              "pitch": 79,
              "velocity": 99,
              "position": 3.0104166666666665,
              "duration": 0.975
            },
            {
              "pitch": 84,
              "velocity": 99,
              "position": 3.0104166666666665,
              "duration": 0.975
            },
            {
              "pitch": 87,
              "velocity": 99,
              "position": 3.0104166666666665,
              "duration": 0.975
            },
            {
              "pitch": 75,
              "velocity": 51,
              "position": 4.010416666666667,
              "duration": 0.975
            },
            {
              "pitch": 66,
              "velocity": 51,
              "position": 4.010416666666667,
              "duration": 1.975
            },
            {
              "pitch": 72,
              "velocity": 51,
              "position": 4.010416666666667,
              "duration": 1.975
            },
            {
              "pitch": 77,
              "velocity": 51,
              "position": 5.010416666666667,
              "duration": 0.975
            },
            {
              "pitch": 53,
              "velocity": 51,
              "position": 4.010416666666667,
              "duration": 1.9854166666666666
            },
            {
              "pitch": 57,
              "velocity": 51,
              "position": 4.010416666666667,
              "duration": 1.9854166666666666
            },
            {
              "pitch": 48,
              "velocity": 51,
              "position": 0.010416666666666666,
              "duration": 6.975
            },
            {
              "pitch": 51,
              "velocity": 51,
              "position": 6.010416666666667,
              "duration": 0.975
            },
            {
              "pitch": 67,
              "velocity": 51,
              "position": 6.010416666666667,
              "duration": 0.975
            },
            {
              "pitch": 75,
              "velocity": 51,
              "position": 6.010416666666667,
              "duration": 0.975
            },
            {
              "pitch": 47,
              "velocity": 51,
              "position": 7.010416666666667,
              "duration": 0.975
            },
            {
              "pitch": 50,
              "velocity": 51,
              "position": 7.010416666666667,
              "duration": 0.975
            },
            {
              "pitch": 65,
              "velocity": 51,
              "position": 7.010416666666667,
              "duration": 0.975
            },
            {
              "pitch": 71,
              "velocity": 51,
              "position": 6.010416666666667,
              "duration": 1.975
            },
            {
              "pitch": 74,
              "velocity": 51,
              "position": 7.010416666666667,
              "duration": 0.975
            },
            {
              "pitch": 48,
              "velocity": 51,
              "position": 8.010416666666666,
              "duration": 5.985416666666667
            },
            {
              "pitch": 51,
              "velocity": 51,
              "position": 8.010416666666666,
              "duration": 5.985416666666667
            },
            {
              "pitch": 55,
              "velocity": 51,
              "position": 6.010416666666667,
              "duration": 7.985416666666667
            },
            {
              "pitch": 63,
              "velocity": 51,
              "position": 8.010416666666666,
              "duration": 5.985416666666667
            },
            {
              "pitch": 67,
              "velocity": 51,
              "position": 8.010416666666666,
              "duration": 5.985416666666667
            },
            {
              "pitch": 72,
              "velocity": 51,
              "position": 8.010416666666666,
              "duration": 5.985416666666667
            }
          ]
        },
        "9": {
          "ctab": {
            "srcChannel": 9,
            "name": "Drums",
            "accType": "RHYTHM",
            "editable": false,
            "mutedNotes": [],
            "mutedChords": [],
            "autoStart": true,
            "sourceChordNote": 0,
            "sourceChordType": "Maj7",
            "ctb2Low": null,
            "ctb2Main": {
              "ntr": "ROOT_FIXED",
              "ntt": "BYPASS",
              "bassOn": false,
              "chordRootUpperLimit": 6,
              "noteLowLimit": 0,
              "noteHighLimit": 127,
              "rtr": "PITCH_SHIFT"
            },
            "ctb2High": null
          },
          "notes": [
            {
              "pitch": 35,
              "velocity": 90,
              "position": 0,
              "duration": 0.00625
            },
            {
              "pitch": 42,
              "velocity": 78,
              "position": 0,
              "duration": 0.00625
            },
            {
              "pitch": 54,
              "velocity": 52,
              "position": 0,
              "duration": 0.00625
            },
            {
              "pitch": 38,
              "velocity": 15,
              "position": 0.3333333333333333,
              "duration": 0.00625
            },
            {
              "pitch": 42,
              "velocity": 14,
              "position": 0.6666666666666666,
              "duration": 0.00625
            },
            {
              "pitch": 54,
              "velocity": 20,
              "position": 0.6666666666666666,
              "duration": 0.00625
            },
            {
              "pitch": 38,
              "velocity": 100,
              "position": 1,
              "duration": 0.00625
            },
            {
              "pitch": 46,
              "velocity": 36,
              "position": 1,
              "duration": 0.00625
            },
            {
              "pitch": 54,
              "velocity": 71,
              "position": 1,
              "duration": 0.00625
            },
            {
              "pitch": 38,
              "velocity": 15,
              "position": 1.3333333333333333,
              "duration": 0.00625
            },
            {
              "pitch": 35,
              "velocity": 40,
              "position": 1.6666666666666667,
              "duration": 0.00625
            },
            {
              "pitch": 54,
              "velocity": 13,
              "position": 1.6666666666666667,
              "duration": 0.00625
            },
            {
              "pitch": 35,
              "velocity": 90,
              "position": 2,
              "duration": 0.00625
            },
            {
              "pitch": 42,
              "velocity": 78,
              "position": 2,
              "duration": 0.00625
            },
            {
              "pitch": 54,
              "velocity": 52,
              "position": 2,
              "duration": 0.00625
            },
            {
              "pitch": 38,
              "velocity": 15,
              "position": 2.3333333333333335,
              "duration": 0.00625
            },
            {
              "pitch": 42,
              "velocity": 14,
              "position": 2.6666666666666665,
              "duration": 0.00625
            },
            {
              "pitch": 54,
              "velocity": 20,
              "position": 2.6666666666666665,
              "duration": 0.00625
            },
            {
              "pitch": 38,
              "velocity": 100,
              "position": 3,
              "duration": 0.00625
            },
            {
              "pitch": 46,
              "velocity": 36,
              "position": 3,
              "duration": 0.00625
            },
            {
              "pitch": 54,
              "velocity": 71,
              "position": 3,
              "duration": 0.00625
            },
            {
              "pitch": 38,
              "velocity": 20,
              "position": 3.3333333333333335,
              "duration": 0.00625
            },
            {
              "pitch": 35,
              "velocity": 40,
              "position": 3.6666666666666665,
              "duration": 0.00625
            },
            {
              "pitch": 47,
              "velocity": 90,
              "position": 3.6666666666666665,
              "duration": 0.00625
            },
            {
              "pitch": 54,
              "velocity": 13,
              "position": 3.6666666666666665,
              "duration": 0.00625
            },
            {
              "pitch": 35,
              "velocity": 90,
              "position": 4,
              "duration": 0.00625
            },
            {
              "pitch": 46,
              "velocity": 36,
              "position": 4,
              "duration": 0.00625
            },
            {
              "pitch": 54,
              "velocity": 52,
              "position": 4,
              "duration": 0.00625
            },
            {
              "pitch": 38,
              "velocity": 43,
              "position": 4.333333333333333,
              "duration": 0.00625
            },
            {
              "pitch": 38,
              "velocity": 50,
              "position": 4.666666666666667,
              "duration": 0.00625
            },
            {
              "pitch": 54,
              "velocity": 20,
              "position": 4.666666666666667,
              "duration": 0.00625
            },
            {
              "pitch": 38,
              "velocity": 100,
              "position": 5,
              "duration": 0.00625
            },
            {
              "pitch": 54,
              "velocity": 71,
              "position": 5,
              "duration": 0.00625
            },
            {
              "pitch": 38,
              "velocity": 104,
              "position": 5.0625,
              "duration": 0.00625
            },
            {
              "pitch": 38,
              "velocity": 69,
              "position": 5.333333333333333,
              "duration": 0.00625
            },
            {
              "pitch": 35,
              "velocity": 40,
              "position": 5.666666666666667,
              "duration": 0.00625
            },
            {
              "pitch": 45,
              "velocity": 77,
              "position": 5.666666666666667,
              "duration": 0.00625
            },
            {
              "pitch": 54,
              "velocity": 13,
              "position": 5.666666666666667,
              "duration": 0.00625
            },
            {
              "pitch": 35,
              "velocity": 90,
              "position": 6,
              "duration": 0.00625
            },
            {
              "pitch": 44,
              "velocity": 50,
              "position": 6,
              "duration": 0.00625
            },
            {
              "pitch": 54,
              "velocity": 52,
              "position": 6,
              "duration": 0.00625
            },
            {
              "pitch": 38,
              "velocity": 43,
              "position": 6.333333333333333,
              "duration": 0.00625
            },
            {
              "pitch": 43,
              "velocity": 43,
              "position": 6.333333333333333,
              "duration": 0.00625
            },
            {
              "pitch": 38,
              "velocity": 50,
              "position": 6.666666666666667,
              "duration": 0.00625
            },
            {
              "pitch": 43,
              "velocity": 50,
              "position": 6.666666666666667,
              "duration": 0.00625
            },
            {
              "pitch": 54,
              "velocity": 20,
              "position": 6.666666666666667,
              "duration": 0.00625
            },
            {
              "pitch": 35,
              "velocity": 90,
              "position": 7,
              "duration": 0.00625
            },
            {
              "pitch": 38,
              "velocity": 100,
              "position": 7,
              "duration": 0.00625
            },
            {
              "pitch": 43,
              "velocity": 70,
              "position": 7,
              "duration": 0.00625
            },
            {
              "pitch": 46,
              "velocity": 45,
              "position": 7,
              "duration": 0.00625
            },
            {
              "pitch": 54,
              "velocity": 71,
              "position": 7,
              "duration": 0.00625
            },
            {
              "pitch": 38,
              "velocity": 50,
              "position": 7.333333333333333,
              "duration": 0.00625
            },
            {
              "pitch": 43,
              "velocity": 50,
              "position": 7.333333333333333,
              "duration": 0.00625
            },
            {
              "pitch": 35,
              "velocity": 40,
              "position": 7.666666666666667,
              "duration": 0.00625
            },
            {
              "pitch": 38,
              "velocity": 127,
              "position": 7.666666666666667,
              "duration": 0.00625
            },
            {
              "pitch": 43,
              "velocity": 97,
              "position": 7.666666666666667,
              "duration": 0.00625
            },
            {
              "pitch": 54,
              "velocity": 13,
              "position": 7.666666666666667,
              "duration": 0.00625
            },
            {
              "pitch": 35,
              "velocity": 90,
              "position": 8,
              "duration": 0.00625
            },
            {
              "pitch": 54,
              "velocity": 52,
              "position": 8,
              "duration": 0.00625
            },
            {
              "pitch": 55,
              "velocity": 80,
              "position": 8,
              "duration": 0.00625
            },
            {
              "pitch": 49,
              "velocity": 9,
              "position": 8.583333333333334,
              "duration": 0.00625
            },
            {
              "pitch": 57,
              "velocity": 11,
              "position": 8.708333333333334,
              "duration": 0.00625
            },
            {
              "pitch": 49,
              "velocity": 11,
              "position": 8.833333333333334,
              "duration": 0.00625
            },
            {
              "pitch": 57,
              "velocity": 13,
              "position": 8.958333333333334,
              "duration": 0.00625
            },
            {
              "pitch": 49,
              "velocity": 13,
              "position": 9.083333333333334,
              "duration": 0.00625
            },
            {
              "pitch": 57,
              "velocity": 15,
              "position": 9.208333333333334,
              "duration": 0.00625
            },
            {
              "pitch": 49,
              "velocity": 15,
              "position": 9.333333333333334,
              "duration": 0.00625
            },
            {
              "pitch": 57,
              "velocity": 17,
              "position": 9.458333333333334,
              "duration": 0.00625
            },
            {
              "pitch": 49,
              "velocity": 17,
              "position": 9.583333333333334,
              "duration": 0.00625
            },
            {
              "pitch": 57,
              "velocity": 18,
              "position": 9.708333333333334,
              "duration": 0.00625
            },
            {
              "pitch": 49,
              "velocity": 18,
              "position": 9.833333333333334,
              "duration": 0.00625
            },
            {
              "pitch": 57,
              "velocity": 20,
              "position": 9.958333333333334,
              "duration": 0.00625
            },
            {
              "pitch": 49,
              "velocity": 20,
              "position": 10.083333333333334,
              "duration": 0.00625
            },
            {
              "pitch": 57,
              "velocity": 22,
              "position": 10.208333333333334,
              "duration": 0.00625
            },
            {
              "pitch": 49,
              "velocity": 22,
              "position": 10.333333333333334,
              "duration": 0.00625
            },
            {
              "pitch": 57,
              "velocity": 24,
              "position": 10.458333333333334,
              "duration": 0.00625
            },
            {
              "pitch": 49,
              "velocity": 24,
              "position": 10.583333333333334,
              "duration": 0.00625
            },
            {
              "pitch": 57,
              "velocity": 26,
              "position": 10.708333333333334,
              "duration": 0.00625
            },
            {
              "pitch": 49,
              "velocity": 26,
              "position": 10.833333333333334,
              "duration": 0.00625
            },
            {
              "pitch": 57,
              "velocity": 30,
              "position": 10.958333333333334,
              "duration": 0.00625
            },
            {
              "pitch": 49,
              "velocity": 29,
              "position": 11.083333333333334,
              "duration": 0.00625
            },
            {
              "pitch": 57,
              "velocity": 36,
              "position": 11.208333333333334,
              "duration": 0.00625
            },
            {
              "pitch": 49,
              "velocity": 40,
              "position": 11.333333333333334,
              "duration": 0.00625
            },
            {
              "pitch": 57,
              "velocity": 43,
              "position": 11.458333333333334,
              "duration": 0.00625
            },
            {
              "pitch": 49,
              "velocity": 46,
              "position": 11.583333333333334,
              "duration": 0.00625
            },
            {
              "pitch": 57,
              "velocity": 46,
              "position": 11.708333333333334,
              "duration": 0.00625
            },
            {
              "pitch": 49,
              "velocity": 49,
              "position": 11.833333333333334,
              "duration": 0.00625
            },
            {
              "pitch": 43,
              "velocity": 14,
              "position": 13.625,
              "duration": 0.00625
            },
            {
              "pitch": 43,
              "velocity": 20,
              "position": 13.75,
              "duration": 0.00625
            },
            {
              "pitch": 43,
              "velocity": 40,
              "position": 13.875,
              "duration": 0.00625
            },
            {
              "pitch": 35,
              "velocity": 94,
              "position": 14,
              "duration": 0.00625
            },
            {
              "pitch": 43,
              "velocity": 80,
              "position": 14,
              "duration": 0.00625
            },
            {
              "pitch": 44,
              "velocity": 80,
              "position": 14,
              "duration": 0.00625
            }
          ]
        },
        "10": {
          "ctab": {
            "srcChannel": 10,
            "name": "Bass",
            "accType": "BASS",
            "editable": false,
            "mutedNotes": [],
            "mutedChords": [
              "dim7",
              "dim",
              "minMaj7(9)",
              "minMaj7",
              "min7(11)",
              "min7(9)",
              "min(9)",
              "m7b5",
              "min7",
              "min6",
              "min"
            ],
            "autoStart": false,
            "sourceChordNote": 0,
            "sourceChordType": "Maj",
            "ctb2Low": null,
            "ctb2Main": {
              "ntr": "ROOT_TRANSPOSITION",
              "ntt": "BYPASS",
              "bassOn": false,
              "chordRootUpperLimit": 8,
              "noteLowLimit": 28,
              "noteHighLimit": 127,
              "rtr": "PITCH_SHIFT"
            },
            "ctb2High": null
          },
          "notes": [
            {
              "pitch": 26,
              "velocity": 74,
              "position": 0,
              "duration": 0.6208333333333333
            },
            {
              "pitch": 26,
              "velocity": 60,
              "position": 0.6666666666666666,
              "duration": 0.1625
            },
            {
              "pitch": 28,
              "velocity": 100,
              "position": 1.3333333333333333,
              "duration": 0.10416666666666667
            },
            {
              "pitch": 28,
              "velocity": 60,
              "position": 1.6666666666666667,
              "duration": 0.04791666666666667
            },
            {
              "pitch": 28,
              "velocity": 74,
              "position": 2,
              "duration": 0.6208333333333333
            },
            {
              "pitch": 28,
              "velocity": 57,
              "position": 2.6666666666666665,
              "duration": 0.1625
            },
            {
              "pitch": 28,
              "velocity": 100,
              "position": 3.6666666666666665,
              "duration": 0.10416666666666667
            },
            {
              "pitch": 29,
              "velocity": 74,
              "position": 4,
              "duration": 0.6208333333333333
            },
            {
              "pitch": 29,
              "velocity": 100,
              "position": 4.666666666666667,
              "duration": 0.10416666666666667
            },
            {
              "pitch": 29,
              "velocity": 74,
              "position": 5,
              "duration": 0.9541666666666667
            },
            {
              "pitch": 31,
              "velocity": 74,
              "position": 6,
              "duration": 0.9854166666666667
            },
            {
              "pitch": 31,
              "velocity": 74,
              "position": 7,
              "duration": 0.9854166666666667
            },
            {
              "pitch": 24,
              "velocity": 74,
              "position": 8,
              "duration": 5.697916666666667
            }
          ]
        },
        "11": {
          "ctab": {
            "srcChannel": 11,
            "name": "Gt",
            "accType": "CHORD1",
            "editable": false,
            "mutedNotes": [],
            "mutedChords": [
              "dim7",
              "dim",
              "minMaj7(9)",
              "minMaj7",
              "min7(11)",
              "min7(9)",
              "min(9)",
              "m7b5",
              "min7",
              "min6",
              "min"
            ],
            "autoStart": false,
            "sourceChordNote": 0,
            "sourceChordType": "Maj",
            "ctb2Low": null,
            "ctb2Main": {
              "ntr": "ROOT_TRANSPOSITION",
              "ntt": "BYPASS",
              "bassOn": false,
              "chordRootUpperLimit": 8,
              "noteLowLimit": 58,
              "noteHighLimit": 69,
              "rtr": "PITCH_SHIFT"
            },
            "ctb2High": null
          },
          "notes": [
            {
              "pitch": 60,
              "velocity": 64,
              "position": 0.3333333333333333,
              "duration": 0.027083333333333334
            },
            {
              "pitch": 65,
              "velocity": 64,
              "position": 0.34375,
              "duration": 0.027083333333333334
            },
            {
              "pitch": 69,
              "velocity": 64,
              "position": 0.3541666666666667,
              "duration": 0.027083333333333334
            },
            {
              "pitch": 60,
              "velocity": 46,
              "position": 0.6666666666666666,
              "duration": 0.027083333333333334
            },
            {
              "pitch": 65,
              "velocity": 46,
              "position": 0.6770833333333334,
              "duration": 0.027083333333333334
            },
            {
              "pitch": 60,
              "velocity": 116,
              "position": 1,
              "duration": 0.21458333333333332
            },
            {
              "pitch": 65,
              "velocity": 116,
              "position": 1.0104166666666667,
              "duration": 0.21458333333333332
            },
            {
              "pitch": 69,
              "velocity": 116,
              "position": 1.0208333333333333,
              "duration": 0.21458333333333332
            },
            {
              "pitch": 60,
              "velocity": 64,
              "position": 2.3333333333333335,
              "duration": 0.027083333333333334
            },
            {
              "pitch": 64,
              "velocity": 64,
              "position": 2.34375,
              "duration": 0.027083333333333334
            },
            {
              "pitch": 67,
              "velocity": 64,
              "position": 2.3541666666666665,
              "duration": 0.027083333333333334
            },
            {
              "pitch": 60,
              "velocity": 46,
              "position": 2.6666666666666665,
              "duration": 0.027083333333333334
            },
            {
              "pitch": 64,
              "velocity": 46,
              "position": 2.6770833333333335,
              "duration": 0.027083333333333334
            },
            {
              "pitch": 60,
              "velocity": 116,
              "position": 3,
              "duration": 0.21458333333333332
            },
            {
              "pitch": 67,
              "velocity": 116,
              "position": 3.0208333333333335,
              "duration": 0.21458333333333332
            },
            {
              "pitch": 60,
              "velocity": 64,
              "position": 4.333333333333333,
              "duration": 0.027083333333333334
            },
            {
              "pitch": 65,
              "velocity": 64,
              "position": 4.34375,
              "duration": 0.027083333333333334
            },
            {
              "pitch": 69,
              "velocity": 64,
              "position": 4.354166666666667,
              "duration": 0.027083333333333334
            },
            {
              "pitch": 60,
              "velocity": 46,
              "position": 4.666666666666667,
              "duration": 0.027083333333333334
            },
            {
              "pitch": 65,
              "velocity": 46,
              "position": 4.677083333333333,
              "duration": 0.027083333333333334
            },
            {
              "pitch": 60,
              "velocity": 116,
              "position": 5,
              "duration": 0.21458333333333332
            },
            {
              "pitch": 65,
              "velocity": 116,
              "position": 5.010416666666667,
              "duration": 0.21458333333333332
            },
            {
              "pitch": 69,
              "velocity": 116,
              "position": 5.020833333333333,
              "duration": 0.21458333333333332
            },
            {
              "pitch": 60,
              "velocity": 64,
              "position": 5.333333333333333,
              "duration": 0.027083333333333334
            },
            {
              "pitch": 65,
              "velocity": 64,
              "position": 5.34375,
              "duration": 0.027083333333333334
            },
            {
              "pitch": 69,
              "velocity": 64,
              "position": 5.354166666666667,
              "duration": 0.027083333333333334
            },
            {
              "pitch": 60,
              "velocity": 46,
              "position": 5.666666666666667,
              "duration": 0.027083333333333334
            },
            {
              "pitch": 65,
              "velocity": 46,
              "position": 5.677083333333333,
              "duration": 0.027083333333333334
            },
            {
              "pitch": 60,
              "velocity": 116,
              "position": 6,
              "duration": 0.9854166666666667
            },
            {
              "pitch": 65,
              "velocity": 116,
              "position": 6.010416666666667,
              "duration": 0.975
            },
            {
              "pitch": 69,
              "velocity": 116,
              "position": 6.020833333333333,
              "duration": 0.9645833333333333
            },
            {
              "pitch": 60,
              "velocity": 116,
              "position": 7,
              "duration": 0.9854166666666667
            },
            {
              "pitch": 65,
              "velocity": 116,
              "position": 7.010416666666667,
              "duration": 0.975
            },
            {
              "pitch": 69,
              "velocity": 116,
              "position": 7.020833333333333,
              "duration": 0.9645833333333333
            },
            {
              "pitch": 60,
              "velocity": 116,
              "position": 8,
              "duration": 5.995833333333334
            },
            {
              "pitch": 64,
              "velocity": 116,
              "position": 8.010416666666666,
              "duration": 5.985416666666667
            },
            {
              "pitch": 67,
              "velocity": 116,
              "position": 8.020833333333334,
              "duration": 5.975
            }
          ]
        },
        "12": {
          "ctab": {
            "srcChannel": 12,
            "name": "Pno",
            "accType": "CHORD2",
            "editable": false,
            "mutedNotes": [],
            "mutedChords": [
              "dim7",
              "dim",
              "minMaj7(9)",
              "minMaj7",
              "min7(11)",
              "min7(9)",
              "min(9)",
              "m7b5",
              "min7",
              "min6",
              "min"
            ],
            "autoStart": false,
            "sourceChordNote": 0,
            "sourceChordType": "Maj",
            "ctb2Low": null,
            "ctb2Main": {
              "ntr": "ROOT_TRANSPOSITION",
              "ntt": "BYPASS",
              "bassOn": false,
              "chordRootUpperLimit": 11,
              "noteLowLimit": 54,
              "noteHighLimit": 127,
              "rtr": "PITCH_SHIFT"
            },
            "ctb2High": null
          },
          "notes": [
            {
              "pitch": 57,
              "velocity": 116,
              "position": 0.3333333333333333,
              "duration": 0.11041666666666666
            },
            {
              "pitch": 60,
              "velocity": 116,
              "position": 0.3333333333333333,
              "duration": 0.11041666666666666
            },
            {
              "pitch": 65,
              "velocity": 116,
              "position": 0.3333333333333333,
              "duration": 0.11041666666666666
            },
            {
              "pitch": 57,
              "velocity": 116,
              "position": 1,
              "duration": 0.9854166666666667
            },
            {
              "pitch": 60,
              "velocity": 116,
              "position": 1,
              "duration": 0.9854166666666667
            },
            {
              "pitch": 65,
              "velocity": 116,
              "position": 1,
              "duration": 0.9854166666666667
            },
            {
              "pitch": 55,
              "velocity": 116,
              "position": 2.3333333333333335,
              "duration": 0.11041666666666666
            },
            {
              "pitch": 60,
              "velocity": 116,
              "position": 2.3333333333333335,
              "duration": 0.11041666666666666
            },
            {
              "pitch": 64,
              "velocity": 116,
              "position": 2.3333333333333335,
              "duration": 0.11041666666666666
            },
            {
              "pitch": 55,
              "velocity": 116,
              "position": 3,
              "duration": 0.9854166666666667
            },
            {
              "pitch": 60,
              "velocity": 116,
              "position": 3,
              "duration": 0.9854166666666667
            },
            {
              "pitch": 64,
              "velocity": 116,
              "position": 3,
              "duration": 0.9854166666666667
            },
            {
              "pitch": 57,
              "velocity": 116,
              "position": 4,
              "duration": 0.9854166666666667
            },
            {
              "pitch": 60,
              "velocity": 116,
              "position": 4,
              "duration": 0.9854166666666667
            },
            {
              "pitch": 65,
              "velocity": 116,
              "position": 4,
              "duration": 0.9854166666666667
            },
            {
              "pitch": 69,
              "velocity": 116,
              "position": 5,
              "duration": 0.5166666666666667
            },
            {
              "pitch": 79,
              "velocity": 116,
              "position": 5,
              "duration": 0.5166666666666667
            },
            {
              "pitch": 75,
              "velocity": 116,
              "position": 5,
              "duration": 0.6520833333333333
            },
            {
              "pitch": 69,
              "velocity": 116,
              "position": 5.666666666666667,
              "duration": 0.23541666666666666
            },
            {
              "pitch": 74,
              "velocity": 116,
              "position": 5.666666666666667,
              "duration": 0.23541666666666666
            },
            {
              "pitch": 77,
              "velocity": 116,
              "position": 5.666666666666667,
              "duration": 0.23541666666666666
            },
            {
              "pitch": 75,
              "velocity": 116,
              "position": 6,
              "duration": 0.31875
            },
            {
              "pitch": 76,
              "velocity": 59,
              "position": 6.208333333333333,
              "duration": 0.725
            },
            {
              "pitch": 67,
              "velocity": 116,
              "position": 6,
              "duration": 0.9854166666666667
            },
            {
              "pitch": 72,
              "velocity": 116,
              "position": 6,
              "duration": 0.9854166666666667
            },
            {
              "pitch": 65,
              "velocity": 116,
              "position": 7,
              "duration": 0.9854166666666667
            },
            {
              "pitch": 69,
              "velocity": 116,
              "position": 7,
              "duration": 0.9854166666666667
            },
            {
              "pitch": 74,
              "velocity": 116,
              "position": 7,
              "duration": 0.9854166666666667
            },
            {
              "pitch": 64,
              "velocity": 116,
              "position": 8,
              "duration": 5.995833333333334
            },
            {
              "pitch": 67,
              "velocity": 116,
              "position": 8,
              "duration": 5.995833333333334
            },
            {
              "pitch": 72,
              "velocity": 116,
              "position": 8,
              "duration": 5.995833333333334
            }
          ]
        },
        "13": {
          "ctab": {
            "srcChannel": 13,
            "name": "Pno LH",
            "accType": "CHORD2",
            "editable": false,
            "mutedNotes": [],
            "mutedChords": [
              "dim7",
              "dim",
              "minMaj7(9)",
              "minMaj7",
              "min7(11)",
              "min7(9)",
              "min(9)",
              "m7b5",
              "min7",
              "min6",
              "min"
            ],
            "autoStart": false,
            "sourceChordNote": 0,
            "sourceChordType": "Maj",
            "ctb2Low": null,
            "ctb2Main": {
              "ntr": "ROOT_TRANSPOSITION",
              "ntt": "BYPASS",
              "bassOn": false,
              "chordRootUpperLimit": 9,
              "noteLowLimit": 0,
              "noteHighLimit": 127,
              "rtr": "PITCH_SHIFT"
            },
            "ctb2High": null
          },
          "notes": [
            {
              "pitch": 38,
              "velocity": 116,
              "position": 0,
              "duration": 1.31875
            },
            {
              "pitch": 50,
              "velocity": 116,
              "position": 0,
              "duration": 1.6520833333333333
            },
            {
              "pitch": 38,
              "velocity": 80,
              "position": 1.3333333333333333,
              "duration": 0.6520833333333333
            },
            {
              "pitch": 50,
              "velocity": 98,
              "position": 1.6666666666666667,
              "duration": 0.31875
            },
            {
              "pitch": 40,
              "velocity": 116,
              "position": 2,
              "duration": 1.31875
            },
            {
              "pitch": 52,
              "velocity": 116,
              "position": 2,
              "duration": 1.6520833333333333
            },
            {
              "pitch": 40,
              "velocity": 80,
              "position": 3.3333333333333335,
              "duration": 0.6520833333333333
            },
            {
              "pitch": 52,
              "velocity": 98,
              "position": 3.6666666666666665,
              "duration": 0.31875
            },
            {
              "pitch": 41,
              "velocity": 116,
              "position": 4,
              "duration": 1.31875
            },
            {
              "pitch": 53,
              "velocity": 116,
              "position": 4,
              "duration": 1.6520833333333333
            },
            {
              "pitch": 41,
              "velocity": 80,
              "position": 5.333333333333333,
              "duration": 0.6520833333333333
            },
            {
              "pitch": 53,
              "velocity": 98,
              "position": 5.666666666666667,
              "duration": 0.31875
            },
            {
              "pitch": 43,
              "velocity": 116,
              "position": 6,
              "duration": 0.9854166666666667
            },
            {
              "pitch": 43,
              "velocity": 116,
              "position": 7,
              "duration": 0.9854166666666667
            },
            {
              "pitch": 55,
              "velocity": 116,
              "position": 6,
              "duration": 1.9854166666666666
            },
            {
              "pitch": 36,
              "velocity": 116,
              "position": 8,
              "duration": 5.995833333333334
            },
            {
              "pitch": 48,
              "velocity": 116,
              "position": 8,
              "duration": 5.995833333333334
            }
          ]
        },
        "14": {
          "ctab": {
            "srcChannel": 14,
            "name": "Org",
            "accType": "PAD",
            "editable": false,
            "mutedNotes": [],
            "mutedChords": [
              "dim7",
              "dim",
              "minMaj7(9)",
              "minMaj7",
              "min7(11)",
              "min7(9)",
              "min(9)",
              "m7b5",
              "min7",
              "min6",
              "min"
            ],
            "autoStart": false,
            "sourceChordNote": 0,
            "sourceChordType": "Maj",
            "ctb2Low": null,
            "ctb2Main": {
              "ntr": "ROOT_TRANSPOSITION",
              "ntt": "BYPASS",
              "bassOn": false,
              "chordRootUpperLimit": 8,
              "noteLowLimit": 54,
              "noteHighLimit": 65,
              "rtr": "PITCH_SHIFT"
            },
            "ctb2High": null
          },
          "notes": [
            {
              "pitch": 69,
              "velocity": 108,
              "position": 0.010416666666666666,
              "duration": 1.975
            },
            {
              "pitch": 77,
              "velocity": 108,
              "position": 0.010416666666666666,
              "duration": 1.975
            },
            {
              "pitch": 67,
              "velocity": 108,
              "position": 2.0104166666666665,
              "duration": 1.975
            },
            {
              "pitch": 76,
              "velocity": 108,
              "position": 2.0104166666666665,
              "duration": 1.975
            },
            {
              "pitch": 69,
              "velocity": 108,
              "position": 4.010416666666667,
              "duration": 3.975
            },
            {
              "pitch": 77,
              "velocity": 108,
              "position": 4.010416666666667,
              "duration": 3.975
            },
            {
              "pitch": 67,
              "velocity": 108,
              "position": 8.010416666666666,
              "duration": 5.985416666666667
            },
            {
              "pitch": 72,
              "velocity": 108,
              "position": 0.010416666666666666,
              "duration": 13.985416666666667
            },
            {
              "pitch": 76,
              "velocity": 108,
              "position": 8.010416666666666,
              "duration": 5.985416666666667
            }
          ]
        },
        "15": {
          "ctab": {
            "srcChannel": 15,
            "name": "Cho",
            "accType": "PHRASE1",
            "editable": false,
            "mutedNotes": [],
            "mutedChords": [
              "dim7",
              "dim",
              "minMaj7(9)",
              "minMaj7",
              "min7(11)",
              "min7(9)",
              "min(9)",
              "m7b5",
              "min7",
              "min6",
              "min"
            ],
            "autoStart": false,
            "sourceChordNote": 0,
            "sourceChordType": "Maj",
            "ctb2Low": null,
            "ctb2Main": {
              "ntr": "ROOT_TRANSPOSITION",
              "ntt": "BYPASS",
              "bassOn": false,
              "chordRootUpperLimit": 6,
              "noteLowLimit": 57,
              "noteHighLimit": 79,
              "rtr": "PITCH_SHIFT"
            },
            "ctb2High": null
          },
          "notes": [
            {
              "pitch": 53,
              "velocity": 51,
              "position": 0.010416666666666666,
              "duration": 1.975
            },
            {
              "pitch": 57,
              "velocity": 51,
              "position": 0.010416666666666666,
              "duration": 1.975
            },
            {
              "pitch": 81,
              "velocity": 99,
              "position": 1.0104166666666667,
              "duration": 0.975
            },
            {
              "pitch": 84,
              "velocity": 99,
              "position": 1.0104166666666667,
              "duration": 0.975
            },
            {
              "pitch": 89,
              "velocity": 99,
              "position": 1.0104166666666667,
              "duration": 0.975
            },
            {
              "pitch": 52,
              "velocity": 51,
              "position": 2.0104166666666665,
              "duration": 1.975
            },
            {
              "pitch": 55,
              "velocity": 51,
              "position": 2.0104166666666665,
              "duration": 1.975
            },
            {
              "pitch": 79,
              "velocity": 99,
              "position": 3.0104166666666665,
              "duration": 0.975
            },
            {
              "pitch": 84,
              "velocity": 99,
              "position": 3.0104166666666665,
              "duration": 0.975
            },
            {
              "pitch": 88,
              "velocity": 99,
              "position": 3.0104166666666665,
              "duration": 0.975
            },
            {
              "pitch": 67,
              "velocity": 51,
              "position": 4.010416666666667,
              "duration": 0.975
            },
            {
              "pitch": 76,
              "velocity": 51,
              "position": 4.010416666666667,
              "duration": 0.975
            },
            {
              "pitch": 69,
              "velocity": 51,
              "position": 5.010416666666667,
              "duration": 0.975
            },
            {
              "pitch": 77,
              "velocity": 51,
              "position": 5.010416666666667,
              "duration": 0.975
            },
            {
              "pitch": 67,
              "velocity": 51,
              "position": 6.010416666666667,
              "duration": 0.975
            },
            {
              "pitch": 72,
              "velocity": 51,
              "position": 4.010416666666667,
              "duration": 2.975
            },
            {
              "pitch": 76,
              "velocity": 51,
              "position": 6.010416666666667,
              "duration": 0.975
            },
            {
              "pitch": 53,
              "velocity": 51,
              "position": 4.010416666666667,
              "duration": 3.975
            },
            {
              "pitch": 57,
              "velocity": 51,
              "position": 4.010416666666667,
              "duration": 3.975
            },
            {
              "pitch": 65,
              "velocity": 51,
              "position": 7.010416666666667,
              "duration": 0.975
            },
            {
              "pitch": 69,
              "velocity": 51,
              "position": 7.010416666666667,
              "duration": 0.975
            },
            {
              "pitch": 74,
              "velocity": 51,
              "position": 7.010416666666667,
              "duration": 0.975
            },
            {
              "pitch": 48,
              "velocity": 51,
              "position": 0.010416666666666666,
              "duration": 13.985416666666667
            },
            {
              "pitch": 52,
              "velocity": 51,
              "position": 8.010416666666666,
              "duration": 5.985416666666667
            },
            {
              "pitch": 55,
              "velocity": 51,
              "position": 8.010416666666666,
              "duration": 5.985416666666667
            },
            {
              "pitch": 64,
              "velocity": 51,
              "position": 8.010416666666666,
              "duration": 5.985416666666667
            },
            {
              "pitch": 67,
              "velocity": 51,
              "position": 8.010416666666666,
              "duration": 5.985416666666667
            },
            {
              "pitch": 72,
              "velocity": 51,
              "position": 8.010416666666666,
              "duration": 5.985416666666667
            }
          ]
        }
      }
    }
  }
}