{
  "name": "UKPop.S583.prs",
  "tempo": 124,
  "timeSignature": "4/4",
  "ticksPerQuarter": 1920,
  "sffType": "SFF1",
  "division": "BINARY",
  "parts": {
    "Main_A": {
      "type": "Main_A",
      "sizeInBeats": 8,
      "channels": {
        "2": {
          "ctab": {
            "srcChannel": 2,
            "name": "Gt Root",
            "accType": "CHORD1",
            "editable": false,
            "mutedNotes": [],
            "mutedChords": [
              "1+2+5",
              "sus4",
              "1+5",
              "1+8",
              "Maj7aug",
              "dim",
              "minMaj7(9)",
              "minMaj7",
              "min6",
              "min",
              "aug",
              "Maj7(9)",
              "Maj7#11",
              "Maj7",
              "Maj6",
              "Maj"
            ],
            "autoStart": false,
            "sourceChordNote": 0,
            "sourceChordType": "Maj7",
            "ctb2Low": null,
            "ctb2Main": {
              "ntr": "ROOT_TRANSPOSITION",
              "ntt": "CHORD",
              "bassOn": false,
              "chordRootUpperLimit": 6,
              "noteLowLimit": 0,
              "noteHighLimit": 127,
              "rtr": "PITCH_SHIFT"
            },
            "ctb2High": null
          },
          "notes": [
            {
              "pitch": 60,
              "velocity": 116,
              "position": 0,
              "duration": 0.23958333333333334
            },
            {
              "pitch": 60,
              "velocity": 101,
              "position": 0.5,
              "duration": 0.041666666666666664
            },
            {
              "pitch": 60,
              "velocity": 74,
              "position": 0.75,
              "duration": 0.041666666666666664
            },
            {
              "pitch": 60,
              "velocity": 116,
              "position": 1,
              "duration": 0.23958333333333334
            },
            {
              "pitch": 60,
              "velocity": 101,
              "position": 1.25,
              "duration": 0.041666666666666664
            },
            {
              "pitch": 60,
              "velocity": 74,
              "position": 1.5,
              "duration": 0.041666666666666664
            },
            {
              "pitch": 60,
              "velocity": 116,
              "position": 1.7604166666666667,
              "duration": 0.4791666666666667
            },
            {
              "pitch": 60,
              "velocity": 74,
              "position": 2.25,
              "duration": 0.23958333333333334
            },
            {
              "pitch": 60,
              "velocity": 116,
              "position": 2.5,
              "duration": 0.23958333333333334
            },
            {
              "pitch": 60,
              "velocity": 116,
              "position": 4.5,
              "duration": 0.23958333333333334
            },
            {
              "pitch": 60,
              "velocity": 74,
              "position": 4.75,
              "duration": 0.041666666666666664
            },
            {
              "pitch": 60,
              "velocity": 116,
              "position": 5,
              "duration": 0.23958333333333334
            },
            {
              "pitch": 60,
              "velocity": 101,
              "position": 5.25,
              "duration": 0.041666666666666664
            },
            {
              "pitch": 60,
              "velocity": 74,
              "position": 5.5,
              "duration": 0.041666666666666664
            },
            {
              "pitch": 60,
              "velocity": 116,
              "position": 5.760416666666667,
              "duration": 0.4791666666666667
            },
            {
              "pitch": 60,
              "velocity": 74,
              "position": 6.25,
              "duration": 0.23958333333333334
            },
            {
              "pitch": 60,
              "velocity": 116,
              "position": 6.5,
              "duration": 0.23958333333333334
            }
          ]
        },
        "4": {
          "ctab": {
            "srcChannel": 4,
            "name": "Str Root",
            "accType": "PAD",
            "editable": false,
            "mutedNotes": [],
            "mutedChords": [
              "1+2+5",
              "sus4",
              "1+5",
              "1+8",
              "Maj7aug",
              "dim",
              "minMaj7(9)",
              "minMaj7",
              "min6",
              "min",
              "aug",
              "Maj7(9)",
              "Maj7#11",
              "Maj7",
              "Maj6",
              "Maj"
            ],
            "autoStart": false,
            "sourceChordNote": 0,
            "sourceChordType": "Maj7",
            "ctb2Low": null,
            "ctb2Main": {
              "ntr": "ROOT_TRANSPOSITION",
              "ntt": "CHORD",
              "bassOn": false,
              "chordRootUpperLimit": 6,
              "noteLowLimit": 0,
              "noteHighLimit": 127,
              "rtr": "PITCH_SHIFT"
            },
            "ctb2High": null
          },
          "notes": [
            {
              "pitch": 60,
              "velocity": 47,
              "position": 0,
              "duration": 7.989583333333333
            }
          ]
        },
        "7": {
          "ctab": {
            "srcChannel": 7,
            "name": "CC_Crash",
            "accType": "RHYTHM",
            "editable": false,
            "mutedNotes": [],
            "mutedChords": [
              "1+2+5",
              "sus4",
              "1+5",
              "1+8",
              "7aug",
              "Maj7aug",
              "7(#9)",
              "7(b13)",
              "7(b9)",
              "7(13)",
              "7#11",
              "7(9)",
              "7b5",
              "7sus4",
              "7th",
              "dim7",
              "dim",
              "minMaj7(9)",
              "minMaj7",
              "min7(11)",
              "min7(9)",
              "min(9)",
              "m7b5",
              "min7",
              "min6",
              "min",
              "aug",
              "Maj6(9)",
              "Maj7(9)",
              "Maj(9)",
              "Maj7#11",
              "Maj7",
              "Maj6",
              "Maj"
            ],
            "autoStart": true,
            "sourceChordNote": 0,
            "sourceChordType": "Maj",
            "ctb2Low": null,
            "ctb2Main": {
              "ntr": "ROOT_FIXED",
              "ntt": "BYPASS",
              "bassOn": false,
              "chordRootUpperLimit": 0,
              "noteLowLimit": 0,
              "noteHighLimit": 127,
              "rtr": "RETRIGGER"
            },
            "ctb2High": null
          },
          "notes": []
        },
        "8": {
          "ctab": {
            "srcChannel": 8,
            "name": "Perc",
            "accType": "SUBRHYTHM",
            "editable": false,
            "mutedNotes": [],
            "mutedChords": [],
            "autoStart": true,
            "sourceChordNote": 0,
            "sourceChordType": "Maj7",
            "ctb2Low": null,
            "ctb2Main": {
              "ntr": "ROOT_FIXED",
              "ntt": "BYPASS",
              "bassOn": false,
              "chordRootUpperLimit": 6,
              "noteLowLimit": 0,
              "noteHighLimit": 127,
              "rtr": "PITCH_SHIFT"
            },
            "ctb2High": null
          },
          "notes": []
        },
        "9": {
          "ctab": {
            "srcChannel": 9,
            "name": "Drums",
            "accType": "RHYTHM",
            "editable": false,
            "mutedNotes": [],
            "mutedChords": [],
            "autoStart": true,
            "sourceChordNote": 0,
            "sourceChordType": "Maj7",
            "ctb2Low": null,
            "ctb2Main": {
              "ntr": "ROOT_FIXED",
              "ntt": "BYPASS",
              "bassOn": false,
              "chordRootUpperLimit": 6,
              "noteLowLimit": 0,
              "noteHighLimit": 127,
              "rtr": "PITCH_SHIFT"
            },
            "ctb2High": null
          },
          "notes": [
            {
              "pitch": 33,
              "velocity": 88,
              "position": 0,
              "duration": 0.010416666666666666
            },
            {
              "pitch": 44,
              "velocity": 59,
              "position": 0,
              "duration": 0.010416666666666666
            },
            {
              "pitch": 42,
              "velocity": 88,
              "position": 0.5,
              "duration": 0.010416666666666666
            },
            {
              "pitch": 33,
              "velocity": 88,
              "position": 1,
              "duration": 0.010416666666666666
            },
            {
              "pitch": 39,
              "velocity": 91,
              "position": 1,
              "duration": 0.010416666666666666
            },
            {
              "pitch": 44,
              "velocity": 64,
              "position": 1,
              "duration": 0.010416666666666666
            },
            {
              "pitch": 42,
              "velocity": 88,
              "position": 1.5,
              "duration": 0.010416666666666666
            },
            {
              "pitch": 33,
              "velocity": 88,
              "position": 2,
              "duration": 0.010416666666666666
            },
            {
              "pitch": 44,
              "velocity": 64,
              "position": 2,
              "duration": 0.010416666666666666
            },
            {
              "pitch": 42,
              "velocity": 88,
              "position": 2.5,
              "duration": 0.010416666666666666
            },
            {
              "pitch": 33,
              "velocity": 88,
              "position": 3,
              "duration": 0.010416666666666666
            },
            {
              "pitch": 39,
              "velocity": 91,
              "position": 3,
              "duration": 0.010416666666666666
            },
            {
              "pitch": 44,
              "velocity": 64,
              "position": 3,
              "duration": 0.010416666666666666
            },
            {
              "pitch": 42,
              "velocity": 88,
              "position": 3.5,
              "duration": 0.010416666666666666
            },
            {
              "pitch": 33,
              "velocity": 88,
              "position": 4,
              "duration": 0.010416666666666666
            },
            {
              "pitch": 44,
              "velocity": 59,
              "position": 4,
              "duration": 0.010416666666666666
            },
            {
              "pitch": 42,
              "velocity": 88,
              "position": 4.5,
              "duration": 0.010416666666666666
            },
            {
              "pitch": 33,
              "velocity": 88,
              "position": 5,
              "duration": 0.010416666666666666
            },
            {
              "pitch": 39,
              "velocity": 91,
              "position": 5,
              "duration": 0.010416666666666666
            },
            {
              "pitch": 44,
              "velocity": 64,
              "position": 5,
              "duration": 0.010416666666666666
            },
            {
              "pitch": 42,
              "velocity": 88,
              "position": 5.5,
              "duration": 0.010416666666666666
            },
            {
              "pitch": 33,
              "velocity": 88,
              "position": 6,
              "duration": 0.010416666666666666
            },
            {
              "pitch": 44,
              "velocity": 64,
              "position": 6,
              "duration": 0.010416666666666666
            },
            {
              "pitch": 42,
              "velocity": 88,
              "position": 6.5,
              "duration": 0.010416666666666666
            },
            {
              "pitch": 33,
              "velocity": 88,
              "position": 7,
              "duration": 0.010416666666666666
            },
            {
              "pitch": 39,
              "velocity": 91,
              "position": 7,
              "duration": 0.010416666666666666
            },
            {
              "pitch": 44,
              "velocity": 64,
              "position": 7,
              "duration": 0.010416666666666666
            },
            {
              "pitch": 42,
              "velocity": 88,
              "position": 7.5,
              "duration": 0.010416666666666666
            },
            {
              "pitch": 44,
              "velocity": 59,
              "position": 7.78125,
              "duration": 0.010416666666666666
            }
          ]
        },
        "10": {
          "ctab": {
            "srcChannel": 10,
            "name": "Bass",
            "accType": "BASS",
            "editable": false,
            "mutedNotes": [],
            "mutedChords": [],
            "autoStart": false,
            "sourceChordNote": 0,
            "sourceChordType": "Maj7",
            "ctb2Low": null,
            "ctb2Main": {
              "ntr": "ROOT_TRANSPOSITION",
              "ntt": "MELODY",
              "bassOn": true,
              "chordRootUpperLimit": 5,
              "noteLowLimit": 28,
              "noteHighLimit": 127,
              "rtr": "PITCH_SHIFT_TO_ROOT"
            },
            "ctb2High": null
          },
          "notes": [
            {
              "pitch": 24,
              "velocity": 100,
              "position": 0,
              "duration": 0.4895833333333333
            },
            {
              "pitch": 24,
              "velocity": 100,
              "position": 1,
              "duration": 0.4895833333333333
            },
            {
              "pitch": 24,
              "velocity": 100,
              "position": 2,
              "duration": 0.4895833333333333
            },
            {
              "pitch": 24,
              "velocity": 100,
              "position": 3,
              "duration": 0.4895833333333333
            },
            {
              "pitch": 24,
              "velocity": 100,
              "position": 4,
              "duration": 0.4895833333333333
            },
            {
              "pitch": 24,
              "velocity": 100,
              "position": 5,
              "duration": 0.4895833333333333
            },
            {
              "pitch": 24,
              "velocity": 100,
              "position": 6,
              "duration": 0.46875
            },
            {
              "pitch": 24,
              "velocity": 100,
              "position": 7,
              "duration": 0.46875
            }
          ]
        },
        "11": {
          "ctab": {
            "srcChannel": 11,
            "name": "Gt",
            "accType": "CHORD1",
            "editable": false,
            "mutedNotes": [],
            "mutedChords": [],
            "autoStart": false,
            "sourceChordNote": 0,
            "sourceChordType": "Maj7",
            "ctb2Low": null,
            "ctb2Main": {
              "ntr": "ROOT_FIXED",
              "ntt": "CHORD",
              "bassOn": false,
              "chordRootUpperLimit": 7,
              "noteLowLimit": 0,
              "noteHighLimit": 127,
              "rtr": "PITCH_SHIFT"
            },
            "ctb2High": null
          },
          "notes": [
            {
              "pitch": 55,
              "velocity": 114,
              "position": 0,
              "duration": 0.23958333333333334
            },
            {
              "pitch": 59,
              "velocity": 114,
              "position": 0,
              "duration": 0.23958333333333334
            },
            {
              "pitch": 64,
              "velocity": 114,
              "position": 0,
              "duration": 0.23958333333333334
            },
            {
              "pitch": 55,
              "velocity": 100,
              "position": 0.5,
              "duration": 0.041666666666666664
            },
            {
              "pitch": 59,
              "velocity": 100,
              "position": 0.5,
              "duration": 0.041666666666666664
            },
            {
              "pitch": 64,
              "velocity": 100,
              "position": 0.5,
              "duration": 0.041666666666666664
            },
            {
              "pitch": 55,
              "velocity": 73,
              "position": 0.75,
              "duration": 0.041666666666666664
            },
            {
              "pitch": 59,
              "velocity": 73,
              "position": 0.75,
              "duration": 0.041666666666666664
            },
            {
              "pitch": 64,
              "velocity": 73,
              "position": 0.75,
              "duration": 0.041666666666666664
            },
            {
              "pitch": 55,
              "velocity": 114,
              "position": 1,
              "duration": 0.23958333333333334
            },
            {
              "pitch": 59,
              "velocity": 114,
              "position": 1,
              "duration": 0.23958333333333334
            },
            {
              "pitch": 64,
              "velocity": 114,
              "position": 1,
              "duration": 0.23958333333333334
            },
            {
              "pitch": 55,
              "velocity": 100,
              "position": 1.25,
              "duration": 0.041666666666666664
            },
            {
              "pitch": 59,
              "velocity": 100,
              "position": 1.25,
              "duration": 0.041666666666666664
            },
            {
              "pitch": 64,
              "velocity": 100,
              "position": 1.25,
              "duration": 0.041666666666666664
            },
            {
              "pitch": 55,
              "velocity": 73,
              "position": 1.5,
              "duration": 0.041666666666666664
            },
            {
              "pitch": 59,
              "velocity": 73,
              "position": 1.5,
              "duration": 0.041666666666666664
            },
            {
              "pitch": 64,
              "velocity": 73,
              "position": 1.5,
              "duration": 0.041666666666666664
            },
            {
              "pitch": 55,
              "velocity": 114,
              "position": 1.7604166666666667,
              "duration": 0.4791666666666667
            },
            {
              "pitch": 59,
              "velocity": 114,
              "position": 1.7604166666666667,
              "duration": 0.4791666666666667
            },
            {
              "pitch": 64,
              "velocity": 114,
              "position": 1.7604166666666667,
              "duration": 0.4791666666666667
            },
            {
              "pitch": 55,
              "velocity": 73,
              "position": 2.25,
              "duration": 0.23958333333333334
            },
            {
              "pitch": 59,
              "velocity": 73,
              "position": 2.25,
              "duration": 0.23958333333333334
            },
            {
              "pitch": 64,
              "velocity": 73,
              "position": 2.25,
              "duration": 0.23958333333333334
            },
            {
              "pitch": 55,
              "velocity": 114,
              "position": 2.5,
              "duration": 0.23958333333333334
            },
            {
              "pitch": 59,
              "velocity": 114,
              "position": 2.5,
              "duration": 0.23958333333333334
            },
            {
              "pitch": 64,
              "velocity": 114,
              "position": 2.5,
              "duration": 0.23958333333333334
            },
            {
              "pitch": 55,
              "velocity": 114,
              "position": 4.5,
              "duration": 0.23958333333333334
            },
            {
              "pitch": 59,
              "velocity": 114,
              "position": 4.5,
              "duration": 0.23958333333333334
            },
            {
              "pitch": 64,
              "velocity": 114,
              "position": 4.5,
              "duration": 0.23958333333333334
            },
            {
              "pitch": 55,
              "velocity": 73,
              "position": 4.75,
              "duration": 0.041666666666666664
            },
            {
              "pitch": 59,
              "velocity": 73,
              "position": 4.75,
              "duration": 0.041666666666666664
            },
            {
              "pitch": 64,
              "velocity": 73,
              "position": 4.75,
              "duration": 0.041666666666666664
            },
            {
              "pitch": 55,
              "velocity": 114,
              "position": 5,
              "duration": 0.23958333333333334
            },
            {
              "pitch": 59,
              "velocity": 114,
              "position": 5,
              "duration": 0.23958333333333334
            },
            {
              "pitch": 64,
              "velocity": 114,
              "position": 5,
              "duration": 0.23958333333333334
            },
            {
              "pitch": 55,
              "velocity": 100,
              "position": 5.25,
              "duration": 0.041666666666666664
            },
            {
              "pitch": 59,
              "velocity": 100,
              "position": 5.25,
              "duration": 0.041666666666666664
            },
            {
              "pitch": 64,
              "velocity": 100,
              "position": 5.25,
              "duration": 0.041666666666666664
            },
            {
              "pitch": 55,
              "velocity": 73,
              "position": 5.5,
              "duration": 0.041666666666666664
            },
            {
              "pitch": 59,
              "velocity": 73,
              "position": 5.5,
              "duration": 0.041666666666666664
            },
            {
              "pitch": 64,
              "velocity": 73,
              "position": 5.5,
              "duration": 0.041666666666666664
            },
            {
              "pitch": 55,
              "velocity": 114,
              "position": 5.760416666666667,
              "duration": 0.4791666666666667
            },
            {
              "pitch": 59,
              "velocity": 114,
              "position": 5.760416666666667,
              "duration": 0.4791666666666667
            },
            {
              "pitch": 64,
              "velocity": 114,
              "position": 5.760416666666667,
              "duration": 0.4791666666666667
            },
            {
              "pitch": 55,
              "velocity": 73,
              "position": 6.25,
              "duration": 0.23958333333333334
            },
            {
              "pitch": 59,
              "velocity": 73,
              "position": 6.25,
              "duration": 0.23958333333333334
            },
            {
              "pitch": 64,
              "velocity": 73,
              "position": 6.25,
              "duration": 0.23958333333333334
            },
            {
              "pitch": 55,
              "velocity": 114,
              "position": 6.5,
              "duration": 0.23958333333333334
            },
            {
              "pitch": 59,
              "velocity": 114,
              "position": 6.5,
              "duration": 0.23958333333333334
            },
            {
              "pitch": 64,
              "velocity": 114,
              "position": 6.5,
              "duration": 0.23958333333333334
            }
          ]
        },
        "12": {
          "ctab": {
            "srcChannel": 12,
            "name": "Pno",
            "accType": "CHORD2",
            "editable": false,
            "mutedNotes": [],
            "mutedChords": [],
            "autoStart": false,
            "sourceChordNote": 0,
            "sourceChordType": "Maj7",
            "ctb2Low": null,
            "ctb2Main": {
              "ntr": "ROOT_FIXED",
              "ntt": "CHORD",
              "bassOn": false,
              "chordRootUpperLimit": 7,
              "noteLowLimit": 0,
              "noteHighLimit": 127,
              "rtr": "PITCH_SHIFT"
            },
            "ctb2High": null
          },
          "notes": [
            {
              "pitch": 55,
              "velocity": 86,
              "position": 0,
              "duration": 0.7395833333333334
            },
            {
              "pitch": 59,
              "velocity": 77,
              "position": 0,
              "duration": 0.7395833333333334
            },
            {
              "pitch": 64,
              "velocity": 78,
              "position": 0,
              "duration": 0.7395833333333334
            },
            {
              "pitch": 55,
              "velocity": 75,
              "position": 0.75,
              "duration": 0.15
            },
            {
              "pitch": 59,
              "velocity": 75,
              "position": 0.75,
              "duration": 0.15
            },
            {
              "pitch": 64,
              "velocity": 75,
              "position": 0.75,
              "duration": 0.15
            },
            {
              "pitch": 55,
              "velocity": 66,
              "position": 2.5,
              "duration": 0.13541666666666666
            },
            {
              "pitch": 59,
              "velocity": 66,
              "position": 2.5,
              "duration": 0.13541666666666666
            },
            {
              "pitch": 64,
              "velocity": 66,
              "position": 2.5,
              "duration": 0.13541666666666666
            },
            {
              "pitch": 55,
              "velocity": 66,
              "position": 3.5,
              "duration": 0.13541666666666666
            },
            {
              "pitch": 59,
              "velocity": 66,
              "position": 3.5,
              "duration": 0.13541666666666666
            },
            {
              "pitch": 64,
              "velocity": 66,
              "position": 3.5,
              "duration": 0.13541666666666666
            },
            {
              "pitch": 55,
              "velocity": 76,
              "position": 4,
              "duration": 0.7395833333333334
            },
            {
              "pitch": 59,
              "velocity": 76,
              "position": 4,
              "duration": 0.7395833333333334
            },
            {
              "pitch": 64,
              "velocity": 76,
              "position": 4,
              "duration": 0.7395833333333334
            },
            {
              "pitch": 55,
              "velocity": 79,
              "position": 4.75,
              "duration": 0.15
            },
            {
              "pitch": 59,
              "velocity": 79,
              "position": 4.75,
              "duration": 0.15
            },
            {
              "pitch": 64,
              "velocity": 79,
              "position": 4.75,
              "duration": 0.15
            },
            {
              "pitch": 55,
              "velocity": 66,
              "position": 6.5,
              "duration": 0.13541666666666666
            },
            {
              "pitch": 59,
              "velocity": 66,
              "position": 6.5,
              "duration": 0.13541666666666666
            },
            {
              "pitch": 64,
              "velocity": 66,
              "position": 6.5,
              "duration": 0.13541666666666666
            },
            {
              "pitch": 55,
              "velocity": 66,
              "position": 7.5,
              "duration": 0.13541666666666666
            },
            {
              "pitch": 59,
              "velocity": 66,
              "position": 7.5,
              "duration": 0.13541666666666666
            },
            {
              "pitch": 64,
              "velocity": 66,
              "position": 7.5,
              "duration": 0.13541666666666666
            }
          ]
        },
        "13": {
          "ctab": {
            "srcChannel": 13,
            "name": "Str",
            "accType": "PAD",
            "editable": false,
            "mutedNotes": [],
            "mutedChords": [],
            "autoStart": false,
            "sourceChordNote": 0,
            "sourceChordType": "Maj7",
            "ctb2Low": null,
            "ctb2Main": {
              "ntr": "ROOT_FIXED",
              "ntt": "CHORD",
              "bassOn": false,
              "chordRootUpperLimit": 7,
              "noteLowLimit": 0,
              "noteHighLimit": 127,
              "rtr": "PITCH_SHIFT"
            },
            "ctb2High": null
          },
          "notes": [
            {
              "pitch": 55,
              "velocity": 50,
              "position": 0,
              "duration": 7.989583333333333
            },
            {
              "pitch": 59,
              "velocity": 50,
              "position": 0,
              "duration": 7.989583333333333
            },
            {
              "pitch": 64,
              "velocity": 50,
              "position": 0,
              "duration": 7.989583333333333
            }
          ]
        },
        "15": {
          "ctab": {
            "srcChannel": 15,
            "name": "MtGt",
            "accType": "PHRASE2",
            "editable": false,
            "mutedNotes": [],
            "mutedChords": [],
            "autoStart": false,
            "sourceChordNote": 0,
            "sourceChordType": "Maj7",
            "ctb2Low": null,
            "ctb2Main": {
              "ntr": "ROOT_TRANSPOSITION",
              "ntt": "MELODY",
              "bassOn": false,
              "chordRootUpperLimit": 6,
              "noteLowLimit": 0,
              "noteHighLimit": 127,
              "rtr": "PITCH_SHIFT"
            },
            "ctb2High": null
          },
          "notes": [
            {
              "pitch": 55,
              "velocity": 67,
              "position": 1.28125,
              "duration": 0.20833333333333334
            },
            {
              "pitch": 57,
              "velocity": 49,
              "position": 1.5,
              "duration": 0.2708333333333333
            },
            {
              "pitch": 55,
              "velocity": 38,
              "position": 1.78125,
              "duration": 0.20833333333333334
            },
            {
              "pitch": 60,
              "velocity": 65,
              "position": 2,
              "duration": 0.28125
            },
            {
              "pitch": 60,
              "velocity": 48,
              "position": 2.2916666666666665,
              "duration": 0.14583333333333334
            },
            {
              "pitch": 55,
              "velocity": 63,
              "position": 5.28125,
              "duration": 0.20833333333333334
            },
            {
              "pitch": 57,
              "velocity": 52,
              "position": 5.5,
              "duration": 0.2708333333333333
            },
            {
              "pitch": 55,
              "velocity": 34,
              "position": 5.78125,
              "duration": 0.20833333333333334
            },
            {
              "pitch": 60,
              "velocity": 67,
              "position": 6,
              "duration": 0.2708333333333333
            },
            {
              "pitch": 60,
              "velocity": 48,
              "position": 6.28125,
              "duration": 0.14583333333333334
            }
          ]
        }
      }
    },
    "Main_B": {
      "type": "Main_B",
      "sizeInBeats": 8,
      "channels": {
        "2": {
          "ctab": {
            "srcChannel": 2,
            "name": "Gt Root",
            "accType": "CHORD1",
            "editable": false,
            "mutedNotes": [],
            "mutedChords": [
              "1+2+5",
              "sus4",
              "1+5",
              "1+8",
              "Maj7aug",
              "dim",
              "minMaj7(9)",
              "minMaj7",
              "min6",
              "min",
              "aug",
              "Maj7(9)",
              "Maj7#11",
              "Maj7",
              "Maj6",
              "Maj"
            ],
            "autoStart": false,
            "sourceChordNote": 0,
            "sourceChordType": "Maj7",
            "ctb2Low": null,
            "ctb2Main": {
              "ntr": "ROOT_TRANSPOSITION",
              "ntt": "CHORD",
              "bassOn": false,
              "chordRootUpperLimit": 6,
              "noteLowLimit": 0,
              "noteHighLimit": 127,
              "rtr": "PITCH_SHIFT"
            },
            "ctb2High": null
          },
          "notes": [
            {
              "pitch": 60,
              "velocity": 116,
              "position": 0,
              "duration": 0.23958333333333334
            },
            {
              "pitch": 60,
              "velocity": 101,
              "position": 0.5,
              "duration": 0.041666666666666664
            },
            {
              "pitch": 60,
              "velocity": 74,
              "position": 0.75,
              "duration": 0.041666666666666664
            },
            {
              "pitch": 60,
              "velocity": 116,
              "position": 1,
              "duration": 0.23958333333333334
            },
            {
              "pitch": 60,
              "velocity": 101,
              "position": 1.25,
              "duration": 0.041666666666666664
            },
            {
              "pitch": 60,
              "velocity": 74,
              "position": 1.5,
              "duration": 0.041666666666666664
            },
            {
              "pitch": 60,
              "velocity": 116,
              "position": 1.7604166666666667,
              "duration": 0.4791666666666667
            },
            {
              "pitch": 60,
              "velocity": 74,
              "position": 2.25,
              "duration": 0.23958333333333334
            },
            {
              "pitch": 60,
              "velocity": 116,
              "position": 2.5,
              "duration": 0.23958333333333334
            },
            {
              "pitch": 60,
              "velocity": 116,
              "position": 3.0104166666666665,
              "duration": 0.22916666666666666
            },
            {
              "pitch": 60,
              "velocity": 116,
              "position": 4.5,
              "duration": 0.23958333333333334
            },
            {
              "pitch": 60,
              "velocity": 74,
              "position": 4.75,
              "duration": 0.041666666666666664
            },
            {
              "pitch": 60,
              "velocity": 116,
              "position": 5,
              "duration": 0.23958333333333334
            },
            {
              "pitch": 60,
              "velocity": 101,
              "position": 5.25,
              "duration": 0.041666666666666664
            },
            {
              "pitch": 60,
              "velocity": 74,
              "position": 5.5,
              "duration": 0.041666666666666664
            },
            {
              "pitch": 60,
              "velocity": 116,
              "position": 5.760416666666667,
              "duration": 0.4791666666666667
            },
            {
              "pitch": 60,
              "velocity": 74,
              "position": 6.25,
              "duration": 0.23958333333333334
            },
            {
              "pitch": 60,
              "velocity": 116,
              "position": 6.5,
              "duration": 0.23958333333333334
            },
            {
              "pitch": 60,
              "velocity": 116,
              "position": 7.010416666666667,
              "duration": 0.4791666666666667
            },
            {
              "pitch": 60,
              "velocity": 101,
              "position": 7.5,
              "duration": 0.041666666666666664
            },
            {
              "pitch": 60,
              "velocity": 74,
              "position": 7.75,
              "duration": 0.041666666666666664
            }
          ]
        },
        "4": {
          "ctab": {
            "srcChannel": 4,
            "name": "Str Root",
            "accType": "PAD",
            "editable": false,
            "mutedNotes": [],
            "mutedChords": [
              "1+2+5",
              "sus4",
              "1+5",
              "1+8",
              "Maj7aug",
              "dim",
              "minMaj7(9)",
              "minMaj7",
              "min6",
              "min",
              "aug",
              "Maj7(9)",
              "Maj7#11",
              "Maj7",
              "Maj6",
              "Maj"
            ],
            "autoStart": false,
            "sourceChordNote": 0,
            "sourceChordType": "Maj7",
            "ctb2Low": null,
            "ctb2Main": {
              "ntr": "ROOT_TRANSPOSITION",
              "ntt": "CHORD",
              "bassOn": false,
              "chordRootUpperLimit": 6,
              "noteLowLimit": 0,
              "noteHighLimit": 127,
              "rtr": "PITCH_SHIFT"
            },
            "ctb2High": null
          },
          "notes": [
            {
              "pitch": 60,
              "velocity": 50,
              "position": 0,
              "duration": 7.989583333333333
            }
          ]
        },
        "7": {
          "ctab": {
            "srcChannel": 7,
            "name": "CC_Crash",
            "accType": "RHYTHM",
            "editable": false,
            "mutedNotes": [],
            "mutedChords": [
              "1+2+5",
              "sus4",
              "1+5",
              "1+8",
              "7aug",
              "Maj7aug",
              "7(#9)",
              "7(b13)",
              "7(b9)",
              "7(13)",
              "7#11",
              "7(9)",
              "7b5",
              "7sus4",
              "7th",
              "dim7",
              "dim",
              "minMaj7(9)",
              "minMaj7",
              "min7(11)",
              "min7(9)",
              "min(9)",
              "m7b5",
              "min7",
              "min6",
              "min",
              "aug",
              "Maj6(9)",
              "Maj7(9)",
              "Maj(9)",
              "Maj7#11",
              "Maj7",
              "Maj6",
              "Maj"
            ],
            "autoStart": true,
            "sourceChordNote": 0,
            "sourceChordType": "Maj",
            "ctb2Low": null,
            "ctb2Main": {
              "ntr": "ROOT_FIXED",
              "ntt": "BYPASS",
              "bassOn": false,
              "chordRootUpperLimit": 0,
              "noteLowLimit": 0,
              "noteHighLimit": 127,
              "rtr": "RETRIGGER"
            },
            "ctb2High": null
          },
          "notes": []
        },
        "8": {
          "ctab": {
            "srcChannel": 8,
            "name": "Perc",
            "accType": "SUBRHYTHM",
            "editable": false,
            "mutedNotes": [],
            "mutedChords": [],
            "autoStart": true,
            "sourceChordNote": 0,
            "sourceChordType": "Maj7",
            "ctb2Low": null,
            "ctb2Main": {
              "ntr": "ROOT_FIXED",
              "ntt": "BYPASS",
              "bassOn": false,
              "chordRootUpperLimit": 6,
              "noteLowLimit": 0,
              "noteHighLimit": 127,
              "rtr": "PITCH_SHIFT"
            },
            "ctb2High": null
          },
          "notes": [
            {
              "pitch": 54,
              "velocity": 30,
              "position": 0,
              "duration": 0.010416666666666666
            },
            {
              "pitch": 70,
              "velocity": 50,
              "position": 0.03125,
              "duration": 0.010416666666666666
            },
            {
              "pitch": 54,
              "velocity": 30,
              "position": 0.28125,
              "duration": 0.010416666666666666
            },
            {
              "pitch": 70,
              "velocity": 50,
              "position": 0.53125,
              "duration": 0.010416666666666666
            },
            {
              "pitch": 54,
              "velocity": 30,
              "position": 0.78125,
              "duration": 0.010416666666666666
            },
            {
              "pitch": 54,
              "velocity": 30,
              "position": 1,
              "duration": 0.010416666666666666
            },
            {
              "pitch": 70,
              "velocity": 50,
              "position": 1.03125,
              "duration": 0.010416666666666666
            },
            {
              "pitch": 54,
              "velocity": 30,
              "position": 1.28125,
              "duration": 0.010416666666666666
            },
            {
              "pitch": 70,
              "velocity": 50,
              "position": 1.53125,
              "duration": 0.010416666666666666
            },
            {
              "pitch": 54,
              "velocity": 30,
              "position": 1.78125,
              "duration": 0.010416666666666666
            },
            {
              "pitch": 54,
              "velocity": 30,
              "position": 2,
              "duration": 0.010416666666666666
            },
            {
              "pitch": 70,
              "velocity": 50,
              "position": 2.03125,
              "duration": 0.010416666666666666
            },
            {
              "pitch": 54,
              "velocity": 30,
              "position": 2.28125,
              "duration": 0.010416666666666666
            },
            {
              "pitch": 70,
              "velocity": 50,
              "position": 2.53125,
              "duration": 0.010416666666666666
            },
            {
              "pitch": 54,
              "velocity": 30,
              "position": 2.78125,
              "duration": 0.010416666666666666
            },
            {
              "pitch": 54,
              "velocity": 30,
              "position": 3,
              "duration": 0.010416666666666666
            },
            {
              "pitch": 70,
              "velocity": 50,
              "position": 3.03125,
              "duration": 0.010416666666666666
            },
            {
              "pitch": 54,
              "velocity": 30,
              "position": 3.28125,
              "duration": 0.010416666666666666
            },
            {
              "pitch": 70,
              "velocity": 50,
              "position": 3.53125,
              "duration": 0.010416666666666666
            },
            {
              "pitch": 64,
              "velocity": 97,
              "position": 3.53125,
              "duration": 0.041666666666666664
            },
            {
              "pitch": 54,
              "velocity": 30,
              "position": 3.78125,
              "duration": 0.010416666666666666
            },
            {
              "pitch": 64,
              "velocity": 70,
              "position": 3.78125,
              "duration": 0.041666666666666664
            },
            {
              "pitch": 54,
              "velocity": 30,
              "position": 4,
              "duration": 0.010416666666666666
            },
            {
              "pitch": 70,
              "velocity": 50,
              "position": 4.03125,
              "duration": 0.010416666666666666
            },
            {
              "pitch": 54,
              "velocity": 30,
              "position": 4.28125,
              "duration": 0.010416666666666666
            },
            {
              "pitch": 70,
              "velocity": 50,
              "position": 4.53125,
              "duration": 0.010416666666666666
            },
            {
              "pitch": 54,
              "velocity": 30,
              "position": 4.78125,
              "duration": 0.010416666666666666
            },
            {
              "pitch": 54,
              "velocity": 30,
              "position": 5,
              "duration": 0.010416666666666666
            },
            {
              "pitch": 70,
              "velocity": 50,
              "position": 5.03125,
              "duration": 0.010416666666666666
            },
            {
              "pitch": 54,
              "velocity": 30,
              "position": 5.28125,
              "duration": 0.010416666666666666
            },
            {
              "pitch": 70,
              "velocity": 50,
              "position": 5.53125,
              "duration": 0.010416666666666666
            },
            {
              "pitch": 54,
              "velocity": 30,
              "position": 5.78125,
              "duration": 0.010416666666666666
            },
            {
              "pitch": 54,
              "velocity": 30,
              "position": 6,
              "duration": 0.010416666666666666
            },
            {
              "pitch": 70,
              "velocity": 50,
              "position": 6.03125,
              "duration": 0.010416666666666666
            },
            {
              "pitch": 54,
              "velocity": 30,
              "position": 6.28125,
              "duration": 0.010416666666666666
            },
            {
              "pitch": 70,
              "velocity": 50,
              "position": 6.53125,
              "duration": 0.010416666666666666
            },
            {
              "pitch": 54,
              "velocity": 30,
              "position": 6.78125,
              "duration": 0.010416666666666666
            },
            {
              "pitch": 54,
              "velocity": 30,
              "position": 7,
              "duration": 0.010416666666666666
            },
            {
              "pitch": 70,
              "velocity": 50,
              "position": 7.03125,
              "duration": 0.010416666666666666
            },
            {
              "pitch": 54,
              "velocity": 30,
              "position": 7.28125,
              "duration": 0.010416666666666666
            },
            {
              "pitch": 70,
              "velocity": 50,
              "position": 7.53125,
              "duration": 0.010416666666666666
            },
            {
              "pitch": 63,
              "velocity": 97,
              "position": 7.53125,
              "duration": 0.041666666666666664
            },
            {
              "pitch": 54,
              "velocity": 30,
              "position": 7.78125,
              "duration": 0.010416666666666666
            },
            {
              "pitch": 63,
              "velocity": 70,
              "position": 7.78125,
              "duration": 0.041666666666666664
            }
          ]
        },
        "9": {
          "ctab": {
            "srcChannel": 9,
            "name": "Drums",
            "accType": "RHYTHM",
            "editable": false,
            "mutedNotes": [],
            "mutedChords": [],
            "autoStart": true,
            "sourceChordNote": 0,
            "sourceChordType": "Maj7",
            "ctb2Low": null,
            "ctb2Main": {
              "ntr": "ROOT_FIXED",
              "ntt": "BYPASS",
              "bassOn": false,
              "chordRootUpperLimit": 6,
              "noteLowLimit": 0,
              "noteHighLimit": 127,
              "rtr": "PITCH_SHIFT"
            },
            "ctb2High": null
          },
          "notes": [
            {
              "pitch": 33,
              "velocity": 88,
              "position": 0,
              "duration": 0.010416666666666666
            },
            {
              "pitch": 44,
              "velocity": 59,
              "position": 0,
              "duration": 0.010416666666666666
            },
            {
              "pitch": 44,
              "velocity": 59,
              "position": 0.28125,
              "duration": 0.010416666666666666
            },
            {
              "pitch": 42,
              "velocity": 88,
              "position": 0.5,
              "duration": 0.010416666666666666
            },
            {
              "pitch": 42,
              "velocity": 28,
              "position": 0.7604166666666666,
              "duration": 0.010416666666666666
            },
            {
              "pitch": 25,
              "velocity": 114,
              "position": 1,
              "duration": 0.010416666666666666
            },
            {
              "pitch": 33,
              "velocity": 88,
              "position": 1,
              "duration": 0.010416666666666666
            },
            {
              "pitch": 39,
              "velocity": 91,
              "position": 1,
              "duration": 0.010416666666666666
            },
            {
              "pitch": 44,
              "velocity": 64,
              "position": 1,
              "duration": 0.010416666666666666
            },
            {
              "pitch": 42,
              "velocity": 88,
              "position": 1.5,
              "duration": 0.010416666666666666
            },
            {
              "pitch": 42,
              "velocity": 28,
              "position": 1.7604166666666667,
              "duration": 0.010416666666666666
            },
            {
              "pitch": 33,
              "velocity": 88,
              "position": 2,
              "duration": 0.010416666666666666
            },
            {
              "pitch": 44,
              "velocity": 64,
              "position": 2,
              "duration": 0.010416666666666666
            },
            {
              "pitch": 46,
              "velocity": 61,
              "position": 2.5,
              "duration": 0.010416666666666666
            },
            {
              "pitch": 42,
              "velocity": 58,
              "position": 2.7604166666666665,
              "duration": 0.010416666666666666
            },
            {
              "pitch": 25,
              "velocity": 114,
              "position": 3,
              "duration": 0.010416666666666666
            },
            {
              "pitch": 33,
              "velocity": 88,
              "position": 3,
              "duration": 0.010416666666666666
            },
            {
              "pitch": 39,
              "velocity": 91,
              "position": 3,
              "duration": 0.010416666666666666
            },
            {
              "pitch": 44,
              "velocity": 64,
              "position": 3,
              "duration": 0.010416666666666666
            },
            {
              "pitch": 46,
              "velocity": 61,
              "position": 3.5,
              "duration": 0.010416666666666666
            },
            {
              "pitch": 42,
              "velocity": 48,
              "position": 3.7604166666666665,
              "duration": 0.010416666666666666
            },
            {
              "pitch": 33,
              "velocity": 88,
              "position": 4,
              "duration": 0.010416666666666666
            },
            {
              "pitch": 44,
              "velocity": 59,
              "position": 4,
              "duration": 0.010416666666666666
            },
            {
              "pitch": 44,
              "velocity": 59,
              "position": 4.28125,
              "duration": 0.010416666666666666
            },
            {
              "pitch": 42,
              "velocity": 88,
              "position": 4.5,
              "duration": 0.010416666666666666
            },
            {
              "pitch": 42,
              "velocity": 28,
              "position": 4.760416666666667,
              "duration": 0.010416666666666666
            },
            {
              "pitch": 25,
              "velocity": 114,
              "position": 5,
              "duration": 0.010416666666666666
            },
            {
              "pitch": 33,
              "velocity": 88,
              "position": 5,
              "duration": 0.010416666666666666
            },
            {
              "pitch": 39,
              "velocity": 91,
              "position": 5,
              "duration": 0.010416666666666666
            },
            {
              "pitch": 44,
              "velocity": 64,
              "position": 5,
              "duration": 0.010416666666666666
            },
            {
              "pitch": 42,
              "velocity": 88,
              "position": 5.5,
              "duration": 0.010416666666666666
            },
            {
              "pitch": 42,
              "velocity": 28,
              "position": 5.760416666666667,
              "duration": 0.010416666666666666
            },
            {
              "pitch": 33,
              "velocity": 88,
              "position": 6,
              "duration": 0.010416666666666666
            },
            {
              "pitch": 44,
              "velocity": 64,
              "position": 6,
              "duration": 0.010416666666666666
            },
            {
              "pitch": 46,
              "velocity": 61,
              "position": 6.5,
              "duration": 0.010416666666666666
            },
            {
              "pitch": 42,
              "velocity": 18,
              "position": 6.760416666666667,
              "duration": 0.010416666666666666
            },
            {
              "pitch": 25,
              "velocity": 114,
              "position": 7,
              "duration": 0.010416666666666666
            },
            {
              "pitch": 33,
              "velocity": 88,
              "position": 7,
              "duration": 0.010416666666666666
            },
            {
              "pitch": 39,
              "velocity": 91,
              "position": 7,
              "duration": 0.010416666666666666
            },
            {
              "pitch": 44,
              "velocity": 64,
              "position": 7,
              "duration": 0.010416666666666666
            },
            {
              "pitch": 46,
              "velocity": 61,
              "position": 7.5,
              "duration": 0.010416666666666666
            },
            {
              "pitch": 42,
              "velocity": 48,
              "position": 7.760416666666667,
              "duration": 0.010416666666666666
            }
          ]
        },
        "10": {
          "ctab": {
            "srcChannel": 10,
            "name": "Bass",
            "accType": "BASS",
            "editable": false,
            "mutedNotes": [],
            "mutedChords": [],
            "autoStart": false,
            "sourceChordNote": 0,
            "sourceChordType": "Maj7",
            "ctb2Low": null,
            "ctb2Main": {
              "ntr": "ROOT_TRANSPOSITION",
              "ntt": "MELODY",
              "bassOn": true,
              "chordRootUpperLimit": 5,
              "noteLowLimit": 28,
              "noteHighLimit": 127,
              "rtr": "PITCH_SHIFT_TO_ROOT"
            },
            "ctb2High": null
          },
          "notes": [
            {
              "pitch": 24,
              "velocity": 100,
              "position": 0,
              "duration": 0.4895833333333333
            },
            {
              "pitch": 24,
              "velocity": 100,
              "position": 1,
              "duration": 0.4895833333333333
            },
            {
              "pitch": 24,
              "velocity": 100,
              "position": 2,
              "duration": 0.4895833333333333
            },
            {
              "pitch": 24,
              "velocity": 100,
              "position": 3,
              "duration": 0.4895833333333333
            },
            {
              "pitch": 24,
              "velocity": 39,
              "position": 3.7604166666666665,
              "duration": 0.22916666666666666
            },
            {
              "pitch": 24,
              "velocity": 100,
              "position": 4,
              "duration": 0.4895833333333333
            },
            {
              "pitch": 24,
              "velocity": 100,
              "position": 5,
              "duration": 0.4895833333333333
            },
            {
              "pitch": 24,
              "velocity": 100,
              "position": 6,
              "duration": 0.46875
            },
            {
              "pitch": 24,
              "velocity": 100,
              "position": 7,
              "duration": 0.46875
            }
          ]
        },
        "11": {
          "ctab": {
            "srcChannel": 11,
            "name": "Gt",
            "accType": "CHORD1",
            "editable": false,
            "mutedNotes": [],
            "mutedChords": [],
            "autoStart": false,
            "sourceChordNote": 0,
            "sourceChordType": "Maj7",
            "ctb2Low": null,
            "ctb2Main": {
              "ntr": "ROOT_FIXED",
              "ntt": "CHORD",
              "bassOn": false,
              "chordRootUpperLimit": 7,
              "noteLowLimit": 0,
              "noteHighLimit": 127,
              "rtr": "PITCH_SHIFT"
            },
            "ctb2High": null
          },
          "notes": [
            {
              "pitch": 55,
              "velocity": 118,
              "position": 0,
              "duration": 0.23958333333333334
            },
            {
              "pitch": 59,
              "velocity": 118,
              "position": 0,
              "duration": 0.23958333333333334
            },
            {
              "pitch": 64,
              "velocity": 118,
              "position": 0,
              "duration": 0.23958333333333334
            },
            {
              "pitch": 55,
              "velocity": 103,
              "position": 0.5,
              "duration": 0.041666666666666664
            },
            {
              "pitch": 59,
              "velocity": 103,
              "position": 0.5,
              "duration": 0.041666666666666664
            },
            {
              "pitch": 64,
              "velocity": 103,
              "position": 0.5,
              "duration": 0.041666666666666664
            },
            {
              "pitch": 55,
              "velocity": 76,
              "position": 0.75,
              "duration": 0.041666666666666664
            },
            {
              "pitch": 59,
              "velocity": 76,
              "position": 0.75,
              "duration": 0.041666666666666664
            },
            {
              "pitch": 64,
              "velocity": 76,
              "position": 0.75,
              "duration": 0.041666666666666664
            },
            {
              "pitch": 55,
              "velocity": 118,
              "position": 1,
              "duration": 0.23958333333333334
            },
            {
              "pitch": 59,
              "velocity": 118,
              "position": 1,
              "duration": 0.23958333333333334
            },
            {
              "pitch": 64,
              "velocity": 118,
              "position": 1,
              "duration": 0.23958333333333334
            },
            {
              "pitch": 55,
              "velocity": 103,
              "position": 1.25,
              "duration": 0.041666666666666664
            },
            {
              "pitch": 59,
              "velocity": 103,
              "position": 1.25,
              "duration": 0.041666666666666664
            },
            {
              "pitch": 64,
              "velocity": 103,
              "position": 1.25,
              "duration": 0.041666666666666664
            },
            {
              "pitch": 55,
              "velocity": 76,
              "position": 1.5,
              "duration": 0.041666666666666664
            },
            {
              "pitch": 59,
              "velocity": 76,
              "position": 1.5,
              "duration": 0.041666666666666664
            },
            {
              "pitch": 64,
              "velocity": 76,
              "position": 1.5,
              "duration": 0.041666666666666664
            },
            {
              "pitch": 55,
              "velocity": 118,
              "position": 1.7604166666666667,
              "duration": 0.4791666666666667
            },
            {
              "pitch": 59,
              "velocity": 118,
              "position": 1.7604166666666667,
              "duration": 0.4791666666666667
            },
            {
              "pitch": 64,
              "velocity": 118,
              "position": 1.7604166666666667,
              "duration": 0.4791666666666667
            },
            {
              "pitch": 55,
              "velocity": 76,
              "position": 2.25,
              "duration": 0.23958333333333334
            },
            {
              "pitch": 59,
              "velocity": 76,
              "position": 2.25,
              "duration": 0.23958333333333334
            },
            {
              "pitch": 64,
              "velocity": 76,
              "position": 2.25,
              "duration": 0.23958333333333334
            },
            {
              "pitch": 55,
              "velocity": 118,
              "position": 2.5,
              "duration": 0.23958333333333334
            },
            {
              "pitch": 59,
              "velocity": 118,
              "position": 2.5,
              "duration": 0.23958333333333334
            },
            {
              "pitch": 64,
              "velocity": 118,
              "position": 2.5,
              "duration": 0.23958333333333334
            },
            {
              "pitch": 55,
              "velocity": 118,
              "position": 3.0104166666666665,
              "duration": 0.22916666666666666
            },
            {
              "pitch": 59,
              "velocity": 118,
              "position": 3.0104166666666665,
              "duration": 0.22916666666666666
            },
            {
              "pitch": 64,
              "velocity": 118,
              "position": 3.0104166666666665,
              "duration": 0.22916666666666666
            },
            {
              "pitch": 55,
              "velocity": 118,
              "position": 4.5,
              "duration": 0.23958333333333334
            },
            {
              "pitch": 59,
              "velocity": 118,
              "position": 4.5,
              "duration": 0.23958333333333334
            },
            {
              "pitch": 64,
              "velocity": 118,
              "position": 4.5,
              "duration": 0.23958333333333334
            },
            {
              "pitch": 55,
              "velocity": 76,
              "position": 4.75,
              "duration": 0.041666666666666664
            },
            {
              "pitch": 59,
              "velocity": 76,
              "position": 4.75,
              "duration": 0.041666666666666664
            },
            {
              "pitch": 64,
              "velocity": 76,
              "position": 4.75,
              "duration": 0.041666666666666664
            },
            {
              "pitch": 55,
              "velocity": 118,
              "position": 5,
              "duration": 0.23958333333333334
            },
            {
              "pitch": 59,
              "velocity": 118,
              "position": 5,
              "duration": 0.23958333333333334
            },
            {
              "pitch": 64,
              "velocity": 118,
              "position": 5,
              "duration": 0.23958333333333334
            },
            {
              "pitch": 55,
              "velocity": 103,
              "position": 5.25,
              "duration": 0.041666666666666664
            },
            {
              "pitch": 59,
              "velocity": 103,
              "position": 5.25,
              "duration": 0.041666666666666664
            },
            {
              "pitch": 64,
              "velocity": 103,
              "position": 5.25,
              "duration": 0.041666666666666664
            },
            {
              "pitch": 55,
              "velocity": 76,
              "position": 5.5,
              "duration": 0.041666666666666664
            },
            {
              "pitch": 59,
              "velocity": 76,
              "position": 5.5,
              "duration": 0.041666666666666664
            },
            {
              "pitch": 64,
              "velocity": 76,
              "position": 5.5,
              "duration": 0.041666666666666664
            },
            {
              "pitch": 55,
              "velocity": 118,
              "position": 5.760416666666667,
              "duration": 0.4791666666666667
            },
            {
              "pitch": 59,
              "velocity": 118,
              "position": 5.760416666666667,
              "duration": 0.4791666666666667
            },
            {
              "pitch": 64,
              "velocity": 118,
              "position": 5.760416666666667,
              "duration": 0.4791666666666667
            },
            {
              "pitch": 55,
              "velocity": 76,
              "position": 6.25,
              "duration": 0.23958333333333334
            },
            {
              "pitch": 59,
              "velocity": 76,
              "position": 6.25,
              "duration": 0.23958333333333334
            },
            {
              "pitch": 64,
              "velocity": 76,
              "position": 6.25,
              "duration": 0.23958333333333334
            },
            {
              "pitch": 55,
              "velocity": 118,
              "position": 6.5,
              "duration": 0.23958333333333334
            },
            {
              "pitch": 59,
              "velocity": 118,
              "position": 6.5,
              "duration": 0.23958333333333334
            },
            {
              "pitch": 64,
              "velocity": 118,
              "position": 6.5,
              "duration": 0.23958333333333334
            },
            {
              "pitch": 55,
              "velocity": 118,
              "position": 7.010416666666667,
              "duration": 0.4791666666666667
            },
            {
              "pitch": 59,
              "velocity": 118,
              "position": 7.010416666666667,
              "duration": 0.4791666666666667
            },
            {
              "pitch": 64,
              "velocity": 118,
              "position": 7.010416666666667,
              "duration": 0.4791666666666667
            },
            {
              "pitch": 55,
              "velocity": 103,
              "position": 7.5,
              "duration": 0.041666666666666664
            },
            {
              "pitch": 59,
              "velocity": 103,
              "position": 7.5,
              "duration": 0.041666666666666664
            },
            {
              "pitch": 64,
              "velocity": 103,
              "position": 7.5,
              "duration": 0.041666666666666664
            },
            {
              "pitch": 55,
              "velocity": 76,
              "position": 7.75,
              "duration": 0.041666666666666664
            },
            {
              "pitch": 59,
              "velocity": 76,
              "position": 7.75,
              "duration": 0.041666666666666664
            },
            {
              "pitch": 64,
              "velocity": 76,
              "position": 7.75,
              "duration": 0.041666666666666664
            }
          ]
        },
        "12": {
          "ctab": {
            "srcChannel": 12,
            "name": "Pno",
            "accType": "CHORD2",
            "editable": false,
            "mutedNotes": [],
            "mutedChords": [],
            "autoStart": false,
            "sourceChordNote": 0,
            "sourceChordType": "Maj7",
            "ctb2Low": null,
            "ctb2Main": {
              "ntr": "ROOT_FIXED",
              "ntt": "CHORD",
              "bassOn": false,
              "chordRootUpperLimit": 7,
              "noteLowLimit": 0,
              "noteHighLimit": 127,
              "rtr": "PITCH_SHIFT"
            },
            "ctb2High": null
          },
          "notes": [
            {
              "pitch": 55,
              "velocity": 81,
              "position": 0.5,
              "duration": 0.23958333333333334
            },
            {
              "pitch": 59,
              "velocity": 81,
              "position": 0.5,
              "duration": 0.23958333333333334
            },
            {
              "pitch": 64,
              "velocity": 81,
              "position": 0.5,
              "duration": 0.23958333333333334
            },
            {
              "pitch": 55,
              "velocity": 81,
              "position": 1.75,
              "duration": 0.23958333333333334
            },
            {
              "pitch": 59,
              "velocity": 81,
              "position": 1.75,
              "duration": 0.23958333333333334
            },
            {
              "pitch": 64,
              "velocity": 81,
              "position": 1.75,
              "duration": 0.23958333333333334
            },
            {
              "pitch": 55,
              "velocity": 81,
              "position": 3,
              "duration": 0.11458333333333333
            },
            {
              "pitch": 59,
              "velocity": 81,
              "position": 3,
              "duration": 0.11458333333333333
            },
            {
              "pitch": 64,
              "velocity": 81,
              "position": 3,
              "duration": 0.11458333333333333
            },
            {
              "pitch": 55,
              "velocity": 81,
              "position": 3.5,
              "duration": 0.4479166666666667
            },
            {
              "pitch": 59,
              "velocity": 81,
              "position": 3.5,
              "duration": 0.4479166666666667
            },
            {
              "pitch": 64,
              "velocity": 81,
              "position": 3.5,
              "duration": 0.4479166666666667
            },
            {
              "pitch": 55,
              "velocity": 81,
              "position": 4.5,
              "duration": 0.23958333333333334
            },
            {
              "pitch": 59,
              "velocity": 81,
              "position": 4.5,
              "duration": 0.23958333333333334
            },
            {
              "pitch": 64,
              "velocity": 81,
              "position": 4.5,
              "duration": 0.23958333333333334
            },
            {
              "pitch": 55,
              "velocity": 81,
              "position": 5.75,
              "duration": 0.23958333333333334
            },
            {
              "pitch": 59,
              "velocity": 81,
              "position": 5.75,
              "duration": 0.23958333333333334
            },
            {
              "pitch": 64,
              "velocity": 81,
              "position": 5.75,
              "duration": 0.23958333333333334
            },
            {
              "pitch": 55,
              "velocity": 81,
              "position": 7,
              "duration": 0.11458333333333333
            },
            {
              "pitch": 59,
              "velocity": 81,
              "position": 7,
              "duration": 0.11458333333333333
            },
            {
              "pitch": 64,
              "velocity": 81,
              "position": 7,
              "duration": 0.11458333333333333
            },
            {
              "pitch": 59,
              "velocity": 81,
              "position": 7.5,
              "duration": 0.4166666666666667
            },
            {
              "pitch": 64,
              "velocity": 81,
              "position": 7.5,
              "duration": 0.4166666666666667
            },
            {
              "pitch": 55,
              "velocity": 81,
              "position": 7.5,
              "duration": 0.4375
            }
          ]
        },
        "13": {
          "ctab": {
            "srcChannel": 13,
            "name": "Str",
            "accType": "PAD",
            "editable": false,
            "mutedNotes": [],
            "mutedChords": [],
            "autoStart": false,
            "sourceChordNote": 0,
            "sourceChordType": "Maj7",
            "ctb2Low": null,
            "ctb2Main": {
              "ntr": "ROOT_FIXED",
              "ntt": "CHORD",
              "bassOn": false,
              "chordRootUpperLimit": 7,
              "noteLowLimit": 0,
              "noteHighLimit": 127,
              "rtr": "PITCH_SHIFT"
            },
            "ctb2High": null
          },
          "notes": [
            {
              "pitch": 55,
              "velocity": 53,
              "position": 0,
              "duration": 7.989583333333333
            },
            {
              "pitch": 59,
              "velocity": 53,
              "position": 0,
              "duration": 7.989583333333333
            },
            {
              "pitch": 64,
              "velocity": 53,
              "position": 0,
              "duration": 7.989583333333333
            }
          ]
        },
        "15": {
          "ctab": {
            "srcChannel": 15,
            "name": "MtGt",
            "accType": "PHRASE2",
            "editable": false,
            "mutedNotes": [],
            "mutedChords": [],
            "autoStart": false,
            "sourceChordNote": 0,
            "sourceChordType": "Maj7",
            "ctb2Low": null,
            "ctb2Main": {
              "ntr": "ROOT_TRANSPOSITION",
              "ntt": "MELODY",
              "bassOn": false,
              "chordRootUpperLimit": 6,
              "noteLowLimit": 0,
              "noteHighLimit": 127,
              "rtr": "PITCH_SHIFT"
            },
            "ctb2High": null
          },
          "notes": [
            {
              "pitch": 55,
              "velocity": 75,
              "position": 1.28125,
              "duration": 0.0625
            },
            {
              "pitch": 57,
              "velocity": 51,
              "position": 1.5,
              "duration": 0.28125
            },
            {
              "pitch": 55,
              "velocity": 75,
              "position": 1.78125,
              "duration": 0.0625
            },
            {
              "pitch": 60,
              "velocity": 69,
              "position": 2,
              "duration": 0.09375
            },
            {
              "pitch": 60,
              "velocity": 73,
              "position": 2.2916666666666665,
              "duration": 0.14583333333333334
            },
            {
              "pitch": 55,
              "velocity": 72,
              "position": 5.28125,
              "duration": 0.0625
            },
            {
              "pitch": 57,
              "velocity": 55,
              "position": 5.5,
              "duration": 0.28125
            },
            {
              "pitch": 55,
              "velocity": 71,
              "position": 5.78125,
              "duration": 0.0625
            },
            {
              "pitch": 60,
              "velocity": 75,
              "position": 6,
              "duration": 0.10416666666666667
            },
            {
              "pitch": 60,
              "velocity": 51,
              "position": 6.28125,
              "duration": 0.14583333333333334
            },
            {
              "pitch": 60,
              "velocity": 71,
              "position": 6.5,
              "duration": 0.17708333333333334
            },
            {
              "pitch": 57,
              "velocity": 71,
              "position": 6.78125,
              "duration": 0.11458333333333333
            }
          ]
        }
      }
    },
    "Main_C": {
      "type": "Main_C",
      "sizeInBeats": 16,
      "channels": {
        "2": {
          "ctab": {
            "srcChannel": 2,
            "name": "Gt Root",
            "accType": "CHORD1",
            "editable": false,
            "mutedNotes": [],
            "mutedChords": [
              "1+2+5",
              "sus4",
              "1+5",
              "1+8",
              "Maj7aug",
              "dim",
              "minMaj7(9)",
              "minMaj7",
              "min6",
              "min",
              "aug",
              "Maj7(9)",
              "Maj7#11",
              "Maj7",
              "Maj6",
              "Maj"
            ],
            "autoStart": false,
            "sourceChordNote": 0,
            "sourceChordType": "Maj7",
            "ctb2Low": null,
            "ctb2Main": {
              "ntr": "ROOT_TRANSPOSITION",
              "ntt": "CHORD",
              "bassOn": false,
              "chordRootUpperLimit": 6,
              "noteLowLimit": 0,
              "noteHighLimit": 127,
              "rtr": "PITCH_SHIFT"
            },
            "ctb2High": null
          },
          "notes": [
            {
              "pitch": 60,
              "velocity": 116,
              "position": 0,
              "duration": 0.25
            },
            {
              "pitch": 60,
              "velocity": 74,
              "position": 0.2604166666666667,
              "duration": 0.041666666666666664
            },
            {
              "pitch": 60,
              "velocity": 87,
              "position": 0.5,
              "duration": 0.052083333333333336
            },
            {
              "pitch": 60,
              "velocity": 116,
              "position": 0.7604166666666666,
              "duration": 0.23958333333333334
            },
            {
              "pitch": 60,
              "velocity": 87,
              "position": 1.0104166666666667,
              "duration": 0.052083333333333336
            },
            {
              "pitch": 60,
              "velocity": 74,
              "position": 1.25,
              "duration": 0.041666666666666664
            },
            {
              "pitch": 60,
              "velocity": 87,
              "position": 1.5,
              "duration": 0.052083333333333336
            },
            {
              "pitch": 60,
              "velocity": 116,
              "position": 1.7604166666666667,
              "duration": 0.23958333333333334
            },
            {
              "pitch": 60,
              "velocity": 74,
              "position": 2.0104166666666665,
              "duration": 0.23958333333333334
            },
            {
              "pitch": 60,
              "velocity": 74,
              "position": 2.2604166666666665,
              "duration": 0.21875
            },
            {
              "pitch": 60,
              "velocity": 116,
              "position": 2.5,
              "duration": 0.23958333333333334
            },
            {
              "pitch": 60,
              "velocity": 74,
              "position": 2.7604166666666665,
              "duration": 0.041666666666666664
            },
            {
              "pitch": 60,
              "velocity": 87,
              "position": 3,
              "duration": 0.052083333333333336
            },
            {
              "pitch": 60,
              "velocity": 74,
              "position": 3.25,
              "duration": 0.041666666666666664
            },
            {
              "pitch": 60,
              "velocity": 101,
              "position": 3.5,
              "duration": 0.052083333333333336
            },
            {
              "pitch": 60,
              "velocity": 74,
              "position": 3.7604166666666665,
              "duration": 0.041666666666666664
            },
            {
              "pitch": 60,
              "velocity": 116,
              "position": 4,
              "duration": 0.23958333333333334
            },
            {
              "pitch": 60,
              "velocity": 74,
              "position": 4.260416666666667,
              "duration": 0.041666666666666664
            },
            {
              "pitch": 60,
              "velocity": 87,
              "position": 4.5,
              "duration": 0.052083333333333336
            },
            {
              "pitch": 60,
              "velocity": 74,
              "position": 4.75,
              "duration": 0.041666666666666664
            },
            {
              "pitch": 60,
              "velocity": 87,
              "position": 5.010416666666667,
              "duration": 0.052083333333333336
            },
            {
              "pitch": 60,
              "velocity": 74,
              "position": 5.25,
              "duration": 0.041666666666666664
            },
            {
              "pitch": 60,
              "velocity": 87,
              "position": 5.5,
              "duration": 0.052083333333333336
            },
            {
              "pitch": 60,
              "velocity": 116,
              "position": 5.760416666666667,
              "duration": 0.23958333333333334
            },
            {
              "pitch": 60,
              "velocity": 74,
              "position": 6.010416666666667,
              "duration": 0.23958333333333334
            },
            {
              "pitch": 60,
              "velocity": 74,
              "position": 6.260416666666667,
              "duration": 0.22916666666666666
            },
            {
              "pitch": 60,
              "velocity": 116,
              "position": 6.5,
              "duration": 0.23958333333333334
            },
            {
              "pitch": 60,
              "velocity": 74,
              "position": 6.760416666666667,
              "duration": 0.041666666666666664
            },
            {
              "pitch": 60,
              "velocity": 87,
              "position": 7,
              "duration": 0.052083333333333336
            },
            {
              "pitch": 60,
              "velocity": 74,
              "position": 7.25,
              "duration": 0.041666666666666664
            },
            {
              "pitch": 60,
              "velocity": 87,
              "position": 7.5,
              "duration": 0.25
            },
            {
              "pitch": 60,
              "velocity": 74,
              "position": 7.760416666666667,
              "duration": 0.22916666666666666
            },
            {
              "pitch": 60,
              "velocity": 116,
              "position": 8,
              "duration": 0.25
            },
            {
              "pitch": 60,
              "velocity": 74,
              "position": 8.260416666666666,
              "duration": 0.041666666666666664
            },
            {
              "pitch": 60,
              "velocity": 87,
              "position": 8.5,
              "duration": 0.052083333333333336
            },
            {
              "pitch": 60,
              "velocity": 116,
              "position": 8.760416666666666,
              "duration": 0.23958333333333334
            },
            {
              "pitch": 60,
              "velocity": 87,
              "position": 9.010416666666666,
              "duration": 0.052083333333333336
            },
            {
              "pitch": 60,
              "velocity": 74,
              "position": 9.25,
              "duration": 0.041666666666666664
            },
            {
              "pitch": 60,
              "velocity": 87,
              "position": 9.5,
              "duration": 0.052083333333333336
            },
            {
              "pitch": 60,
              "velocity": 116,
              "position": 9.760416666666666,
              "duration": 0.23958333333333334
            },
            {
              "pitch": 60,
              "velocity": 74,
              "position": 10.010416666666666,
              "duration": 0.23958333333333334
            },
            {
              "pitch": 60,
              "velocity": 74,
              "position": 10.260416666666666,
              "duration": 0.21875
            },
            {
              "pitch": 60,
              "velocity": 116,
              "position": 10.5,
              "duration": 0.23958333333333334
            },
            {
              "pitch": 60,
              "velocity": 74,
              "position": 10.760416666666666,
              "duration": 0.041666666666666664
            },
            {
              "pitch": 60,
              "velocity": 87,
              "position": 11,
              "duration": 0.052083333333333336
            },
            {
              "pitch": 60,
              "velocity": 74,
              "position": 11.25,
              "duration": 0.041666666666666664
            },
            {
              "pitch": 60,
              "velocity": 101,
              "position": 11.5,
              "duration": 0.052083333333333336
            },
            {
              "pitch": 60,
              "velocity": 74,
              "position": 11.760416666666666,
              "duration": 0.041666666666666664
            },
            {
              "pitch": 60,
              "velocity": 116,
              "position": 12,
              "duration": 0.23958333333333334
            },
            {
              "pitch": 60,
              "velocity": 74,
              "position": 12.260416666666666,
              "duration": 0.041666666666666664
            },
            {
              "pitch": 60,
              "velocity": 87,
              "position": 12.5,
              "duration": 0.052083333333333336
            },
            {
              "pitch": 60,
              "velocity": 74,
              "position": 12.75,
              "duration": 0.041666666666666664
            },
            {
              "pitch": 60,
              "velocity": 87,
              "position": 13.010416666666666,
              "duration": 0.052083333333333336
            },
            {
              "pitch": 60,
              "velocity": 74,
              "position": 13.25,
              "duration": 0.041666666666666664
            },
            {
              "pitch": 60,
              "velocity": 87,
              "position": 13.5,
              "duration": 0.052083333333333336
            },
            {
              "pitch": 60,
              "velocity": 116,
              "position": 13.760416666666666,
              "duration": 0.23958333333333334
            },
            {
              "pitch": 60,
              "velocity": 74,
              "position": 14.010416666666666,
              "duration": 0.23958333333333334
            },
            {
              "pitch": 60,
              "velocity": 74,
              "position": 14.260416666666666,
              "duration": 0.22916666666666666
            },
            {
              "pitch": 60,
              "velocity": 116,
              "position": 14.5,
              "duration": 0.23958333333333334
            },
            {
              "pitch": 60,
              "velocity": 74,
              "position": 14.760416666666666,
              "duration": 0.041666666666666664
            },
            {
              "pitch": 60,
              "velocity": 87,
              "position": 15,
              "duration": 0.052083333333333336
            },
            {
              "pitch": 60,
              "velocity": 74,
              "position": 15.25,
              "duration": 0.041666666666666664
            },
            {
              "pitch": 60,
              "velocity": 87,
              "position": 15.5,
              "duration": 0.25
            },
            {
              "pitch": 60,
              "velocity": 74,
              "position": 15.760416666666666,
              "duration": 0.22916666666666666
            }
          ]
        },
        "4": {
          "ctab": {
            "srcChannel": 4,
            "name": "Str Root",
            "accType": "PAD",
            "editable": false,
            "mutedNotes": [],
            "mutedChords": [
              "1+2+5",
              "sus4",
              "1+5",
              "1+8",
              "Maj7aug",
              "dim",
              "minMaj7(9)",
              "minMaj7",
              "min6",
              "min",
              "aug",
              "Maj7(9)",
              "Maj7#11",
              "Maj7",
              "Maj6",
              "Maj"
            ],
            "autoStart": false,
            "sourceChordNote": 0,
            "sourceChordType": "Maj7",
            "ctb2Low": null,
            "ctb2Main": {
              "ntr": "ROOT_TRANSPOSITION",
              "ntt": "CHORD",
              "bassOn": false,
              "chordRootUpperLimit": 6,
              "noteLowLimit": 0,
              "noteHighLimit": 127,
              "rtr": "PITCH_SHIFT"
            },
            "ctb2High": null
          },
          "notes": [
            {
              "pitch": 60,
              "velocity": 50,
              "position": 0,
              "duration": 15.989583333333334
            }
          ]
        },
        "7": {
          "ctab": {
            "srcChannel": 7,
            "name": "CC_Crash",
            "accType": "RHYTHM",
            "editable": false,
            "mutedNotes": [],
            "mutedChords": [
              "1+2+5",
              "sus4",
              "1+5",
              "1+8",
              "7aug",
              "Maj7aug",
              "7(#9)",
              "7(b13)",
              "7(b9)",
              "7(13)",
              "7#11",
              "7(9)",
              "7b5",
              "7sus4",
              "7th",
              "dim7",
              "dim",
              "minMaj7(9)",
              "minMaj7",
              "min7(11)",
              "min7(9)",
              "min(9)",
              "m7b5",
              "min7",
              "min6",
              "min",
              "aug",
              "Maj6(9)",
              "Maj7(9)",
              "Maj(9)",
              "Maj7#11",
              "Maj7",
              "Maj6",
              "Maj"
            ],
            "autoStart": true,
            "sourceChordNote": 0,
            "sourceChordType": "Maj",
            "ctb2Low": null,
            "ctb2Main": {
              "ntr": "ROOT_FIXED",
              "ntt": "BYPASS",
              "bassOn": false,
              "chordRootUpperLimit": 0,
              "noteLowLimit": 0,
              "noteHighLimit": 127,
              "rtr": "RETRIGGER"
            },
            "ctb2High": null
          },
          "notes": []
        },
        "8": {
          "ctab": {
            "srcChannel": 8,
            "name": "Perc",
            "accType": "SUBRHYTHM",
            "editable": false,
            "mutedNotes": [],
            "mutedChords": [],
            "autoStart": true,
            "sourceChordNote": 0,
            "sourceChordType": "Maj7",
            "ctb2Low": null,
            "ctb2Main": {
              "ntr": "ROOT_FIXED",
              "ntt": "BYPASS",
              "bassOn": false,
              "chordRootUpperLimit": 6,
              "noteLowLimit": 0,
              "noteHighLimit": 127,
              "rtr": "PITCH_SHIFT"
            },
            "ctb2High": null
          },
          "notes": [
            {
              "pitch": 82,
              "velocity": 38,
              "position": 0,
              "duration": 0.0020833333333333333
            },
            {
              "pitch": 54,
              "velocity": 35,
              "position": 0,
              "duration": 0.010416666666666666
            },
            {
              "pitch": 82,
              "velocity": 38,
              "position": 0.2604166666666667,
              "duration": 0.0020833333333333333
            },
            {
              "pitch": 54,
              "velocity": 35,
              "position": 0.28125,
              "duration": 0.010416666666666666
            },
            {
              "pitch": 54,
              "velocity": 71,
              "position": 0.5,
              "duration": 0.010416666666666666
            },
            {
              "pitch": 62,
              "velocity": 127,
              "position": 0.5,
              "duration": 0.03125
            },
            {
              "pitch": 82,
              "velocity": 38,
              "position": 0.7604166666666666,
              "duration": 0.0020833333333333333
            },
            {
              "pitch": 54,
              "velocity": 35,
              "position": 0.78125,
              "duration": 0.010416666666666666
            },
            {
              "pitch": 82,
              "velocity": 38,
              "position": 1,
              "duration": 0.0020833333333333333
            },
            {
              "pitch": 54,
              "velocity": 35,
              "position": 1,
              "duration": 0.010416666666666666
            },
            {
              "pitch": 61,
              "velocity": 105,
              "position": 1.03125,
              "duration": 0.041666666666666664
            },
            {
              "pitch": 82,
              "velocity": 38,
              "position": 1.2604166666666667,
              "duration": 0.0020833333333333333
            },
            {
              "pitch": 54,
              "velocity": 35,
              "position": 1.28125,
              "duration": 0.010416666666666666
            },
            {
              "pitch": 54,
              "velocity": 71,
              "position": 1.5,
              "duration": 0.010416666666666666
            },
            {
              "pitch": 64,
              "velocity": 97,
              "position": 1.53125,
              "duration": 0.041666666666666664
            },
            {
              "pitch": 82,
              "velocity": 38,
              "position": 1.7604166666666667,
              "duration": 0.0020833333333333333
            },
            {
              "pitch": 54,
              "velocity": 35,
              "position": 1.78125,
              "duration": 0.010416666666666666
            },
            {
              "pitch": 64,
              "velocity": 97,
              "position": 1.78125,
              "duration": 0.041666666666666664
            },
            {
              "pitch": 82,
              "velocity": 38,
              "position": 2,
              "duration": 0.0020833333333333333
            },
            {
              "pitch": 54,
              "velocity": 35,
              "position": 2,
              "duration": 0.010416666666666666
            },
            {
              "pitch": 82,
              "velocity": 38,
              "position": 2.2604166666666665,
              "duration": 0.0020833333333333333
            },
            {
              "pitch": 54,
              "velocity": 35,
              "position": 2.28125,
              "duration": 0.010416666666666666
            },
            {
              "pitch": 54,
              "velocity": 71,
              "position": 2.5,
              "duration": 0.010416666666666666
            },
            {
              "pitch": 62,
              "velocity": 127,
              "position": 2.5,
              "duration": 0.03125
            },
            {
              "pitch": 82,
              "velocity": 38,
              "position": 2.7604166666666665,
              "duration": 0.0020833333333333333
            },
            {
              "pitch": 54,
              "velocity": 35,
              "position": 2.78125,
              "duration": 0.010416666666666666
            },
            {
              "pitch": 82,
              "velocity": 38,
              "position": 3,
              "duration": 0.0020833333333333333
            },
            {
              "pitch": 54,
              "velocity": 35,
              "position": 3,
              "duration": 0.010416666666666666
            },
            {
              "pitch": 61,
              "velocity": 105,
              "position": 3.03125,
              "duration": 0.041666666666666664
            },
            {
              "pitch": 82,
              "velocity": 38,
              "position": 3.2604166666666665,
              "duration": 0.0020833333333333333
            },
            {
              "pitch": 54,
              "velocity": 35,
              "position": 3.28125,
              "duration": 0.010416666666666666
            },
            {
              "pitch": 54,
              "velocity": 71,
              "position": 3.5,
              "duration": 0.010416666666666666
            },
            {
              "pitch": 64,
              "velocity": 97,
              "position": 3.53125,
              "duration": 0.041666666666666664
            },
            {
              "pitch": 82,
              "velocity": 38,
              "position": 3.7604166666666665,
              "duration": 0.0020833333333333333
            },
            {
              "pitch": 54,
              "velocity": 35,
              "position": 3.78125,
              "duration": 0.010416666666666666
            },
            {
              "pitch": 64,
              "velocity": 97,
              "position": 3.78125,
              "duration": 0.041666666666666664
            },
            {
              "pitch": 82,
              "velocity": 38,
              "position": 4,
              "duration": 0.0020833333333333333
            },
            {
              "pitch": 54,
              "velocity": 35,
              "position": 4,
              "duration": 0.010416666666666666
            },
            {
              "pitch": 82,
              "velocity": 38,
              "position": 4.260416666666667,
              "duration": 0.0020833333333333333
            },
            {
              "pitch": 54,
              "velocity": 35,
              "position": 4.28125,
              "duration": 0.010416666666666666
            },
            {
              "pitch": 54,
              "velocity": 71,
              "position": 4.5,
              "duration": 0.010416666666666666
            },
            {
              "pitch": 62,
              "velocity": 127,
              "position": 4.5,
              "duration": 0.03125
            },
            {
              "pitch": 82,
              "velocity": 38,
              "position": 4.760416666666667,
              "duration": 0.0020833333333333333
            },
            {
              "pitch": 54,
              "velocity": 35,
              "position": 4.78125,
              "duration": 0.010416666666666666
            },
            {
              "pitch": 82,
              "velocity": 38,
              "position": 5,
              "duration": 0.0020833333333333333
            },
            {
              "pitch": 54,
              "velocity": 35,
              "position": 5,
              "duration": 0.010416666666666666
            },
            {
              "pitch": 61,
              "velocity": 105,
              "position": 5.03125,
              "duration": 0.041666666666666664
            },
            {
              "pitch": 82,
              "velocity": 38,
              "position": 5.260416666666667,
              "duration": 0.0020833333333333333
            },
            {
              "pitch": 54,
              "velocity": 35,
              "position": 5.28125,
              "duration": 0.010416666666666666
            },
            {
              "pitch": 54,
              "velocity": 71,
              "position": 5.5,
              "duration": 0.010416666666666666
            },
            {
              "pitch": 64,
              "velocity": 97,
              "position": 5.53125,
              "duration": 0.041666666666666664
            },
            {
              "pitch": 82,
              "velocity": 38,
              "position": 5.760416666666667,
              "duration": 0.0020833333333333333
            },
            {
              "pitch": 54,
              "velocity": 35,
              "position": 5.78125,
              "duration": 0.010416666666666666
            },
            {
              "pitch": 64,
              "velocity": 97,
              "position": 5.78125,
              "duration": 0.041666666666666664
            },
            {
              "pitch": 82,
              "velocity": 38,
              "position": 6,
              "duration": 0.0020833333333333333
            },
            {
              "pitch": 54,
              "velocity": 35,
              "position": 6,
              "duration": 0.010416666666666666
            },
            {
              "pitch": 82,
              "velocity": 38,
              "position": 6.260416666666667,
              "duration": 0.0020833333333333333
            },
            {
              "pitch": 54,
              "velocity": 35,
              "position": 6.28125,
              "duration": 0.010416666666666666
            },
            {
              "pitch": 54,
              "velocity": 71,
              "position": 6.5,
              "duration": 0.010416666666666666
            },
            {
              "pitch": 62,
              "velocity": 127,
              "position": 6.5,
              "duration": 0.03125
            },
            {
              "pitch": 82,
              "velocity": 38,
              "position": 6.760416666666667,
              "duration": 0.0020833333333333333
            },
            {
              "pitch": 54,
              "velocity": 35,
              "position": 6.78125,
              "duration": 0.010416666666666666
            },
            {
              "pitch": 62,
              "velocity": 86,
              "position": 6.78125,
              "duration": 0.041666666666666664
            },
            {
              "pitch": 82,
              "velocity": 38,
              "position": 7,
              "duration": 0.0020833333333333333
            },
            {
              "pitch": 54,
              "velocity": 35,
              "position": 7,
              "duration": 0.010416666666666666
            },
            {
              "pitch": 61,
              "velocity": 105,
              "position": 7.03125,
              "duration": 0.041666666666666664
            },
            {
              "pitch": 82,
              "velocity": 38,
              "position": 7.260416666666667,
              "duration": 0.0020833333333333333
            },
            {
              "pitch": 54,
              "velocity": 35,
              "position": 7.28125,
              "duration": 0.010416666666666666
            },
            {
              "pitch": 61,
              "velocity": 67,
              "position": 7.28125,
              "duration": 0.041666666666666664
            },
            {
              "pitch": 54,
              "velocity": 71,
              "position": 7.5,
              "duration": 0.010416666666666666
            },
            {
              "pitch": 64,
              "velocity": 97,
              "position": 7.53125,
              "duration": 0.041666666666666664
            },
            {
              "pitch": 82,
              "velocity": 38,
              "position": 7.760416666666667,
              "duration": 0.0020833333333333333
            },
            {
              "pitch": 54,
              "velocity": 35,
              "position": 7.78125,
              "duration": 0.010416666666666666
            },
            {
              "pitch": 64,
              "velocity": 97,
              "position": 7.78125,
              "duration": 0.041666666666666664
            },
            {
              "pitch": 82,
              "velocity": 38,
              "position": 8,
              "duration": 0.0020833333333333333
            },
            {
              "pitch": 54,
              "velocity": 35,
              "position": 8,
              "duration": 0.010416666666666666
            },
            {
              "pitch": 82,
              "velocity": 38,
              "position": 8.260416666666666,
              "duration": 0.0020833333333333333
            },
            {
              "pitch": 54,
              "velocity": 35,
              "position": 8.28125,
              "duration": 0.010416666666666666
            },
            {
              "pitch": 54,
              "velocity": 71,
              "position": 8.5,
              "duration": 0.010416666666666666
            },
            {
              "pitch": 62,
              "velocity": 127,
              "position": 8.5,
              "duration": 0.03125
            },
            {
              "pitch": 82,
              "velocity": 38,
              "position": 8.760416666666666,
              "duration": 0.0020833333333333333
            },
            {
              "pitch": 54,
              "velocity": 35,
              "position": 8.78125,
              "duration": 0.010416666666666666
            },
            {
              "pitch": 82,
              "velocity": 38,
              "position": 9,
              "duration": 0.0020833333333333333
            },
            {
              "pitch": 54,
              "velocity": 35,
              "position": 9,
              "duration": 0.010416666666666666
            },
            {
              "pitch": 61,
              "velocity": 105,
              "position": 9.03125,
              "duration": 0.041666666666666664
            },
            {
              "pitch": 82,
              "velocity": 38,
              "position": 9.260416666666666,
              "duration": 0.0020833333333333333
            },
            {
              "pitch": 54,
              "velocity": 35,
              "position": 9.28125,
              "duration": 0.010416666666666666
            },
            {
              "pitch": 54,
              "velocity": 71,
              "position": 9.5,
              "duration": 0.010416666666666666
            },
            {
              "pitch": 64,
              "velocity": 97,
              "position": 9.53125,
              "duration": 0.041666666666666664
            },
            {
              "pitch": 82,
              "velocity": 38,
              "position": 9.760416666666666,
              "duration": 0.0020833333333333333
            },
            {
              "pitch": 54,
              "velocity": 35,
              "position": 9.78125,
              "duration": 0.010416666666666666
            },
            {
              "pitch": 64,
              "velocity": 97,
              "position": 9.78125,
              "duration": 0.041666666666666664
            },
            {
              "pitch": 82,
              "velocity": 38,
              "position": 10,
              "duration": 0.0020833333333333333
            },
            {
              "pitch": 54,
              "velocity": 35,
              "position": 10,
              "duration": 0.010416666666666666
            },
            {
              "pitch": 82,
              "velocity": 38,
              "position": 10.260416666666666,
              "duration": 0.0020833333333333333
            },
            {
              "pitch": 54,
              "velocity": 35,
              "position": 10.28125,
              "duration": 0.010416666666666666
            },
            {
              "pitch": 54,
              "velocity": 71,
              "position": 10.5,
              "duration": 0.010416666666666666
            },
            {
              "pitch": 62,
              "velocity": 127,
              "position": 10.5,
              "duration": 0.03125
            },
            {
              "pitch": 82,
              "velocity": 38,
              "position": 10.760416666666666,
              "duration": 0.0020833333333333333
            },
            {
              "pitch": 54,
              "velocity": 35,
              "position": 10.78125,
              "duration": 0.010416666666666666
            },
            {
              "pitch": 82,
              "velocity": 38,
              "position": 11,
              "duration": 0.0020833333333333333
            },
            {
              "pitch": 54,
              "velocity": 35,
              "position": 11,
              "duration": 0.010416666666666666
            },
            {
              "pitch": 61,
              "velocity": 105,
              "position": 11.03125,
              "duration": 0.041666666666666664
            },
            {
              "pitch": 82,
              "velocity": 38,
              "position": 11.260416666666666,
              "duration": 0.0020833333333333333
            },
            {
              "pitch": 54,
              "velocity": 35,
              "position": 11.28125,
              "duration": 0.010416666666666666
            },
            {
              "pitch": 54,
              "velocity": 71,
              "position": 11.5,
              "duration": 0.010416666666666666
            },
            {
              "pitch": 64,
              "velocity": 97,
              "position": 11.53125,
              "duration": 0.041666666666666664
            },
            {
              "pitch": 82,
              "velocity": 38,
              "position": 11.760416666666666,
              "duration": 0.0020833333333333333
            },
            {
              "pitch": 54,
              "velocity": 35,
              "position": 11.78125,
              "duration": 0.010416666666666666
            },
            {
              "pitch": 64,
              "velocity": 97,
              "position": 11.78125,
              "duration": 0.041666666666666664
            },
            {
              "pitch": 82,
              "velocity": 38,
              "position": 12,
              "duration": 0.0020833333333333333
            },
            {
              "pitch": 54,
              "velocity": 35,
              "position": 12,
              "duration": 0.010416666666666666
            },
            {
              "pitch": 82,
              "velocity": 38,
              "position": 12.260416666666666,
              "duration": 0.0020833333333333333
            },
            {
              "pitch": 54,
              "velocity": 35,
              "position": 12.28125,
              "duration": 0.010416666666666666
            },
            {
              "pitch": 54,
              "velocity": 71,
              "position": 12.5,
              "duration": 0.010416666666666666
            },
            {
              "pitch": 62,
              "velocity": 127,
              "position": 12.5,
              "duration": 0.03125
            },
            {
              "pitch": 82,
              "velocity": 38,
              "position": 12.760416666666666,
              "duration": 0.0020833333333333333
            },
            {
              "pitch": 54,
              "velocity": 35,
              "position": 12.78125,
              "duration": 0.010416666666666666
            },
            {
              "pitch": 82,
              "velocity": 38,
              "position": 13,
              "duration": 0.0020833333333333333
            },
            {
              "pitch": 54,
              "velocity": 35,
              "position": 13,
              "duration": 0.010416666666666666
            },
            {
              "pitch": 61,
              "velocity": 105,
              "position": 13.03125,
              "duration": 0.041666666666666664
            },
            {
              "pitch": 82,
              "velocity": 38,
              "position": 13.260416666666666,
              "duration": 0.0020833333333333333
            },
            {
              "pitch": 54,
              "velocity": 35,
              "position": 13.28125,
              "duration": 0.010416666666666666
            },
            {
              "pitch": 54,
              "velocity": 71,
              "position": 13.5,
              "duration": 0.010416666666666666
            },
            {
              "pitch": 64,
              "velocity": 97,
              "position": 13.53125,
              "duration": 0.041666666666666664
            },
            {
              "pitch": 82,
              "velocity": 38,
              "position": 13.760416666666666,
              "duration": 0.0020833333333333333
            },
            {
              "pitch": 54,
              "velocity": 35,
              "position": 13.78125,
              "duration": 0.010416666666666666
            },
            {
              "pitch": 64,
              "velocity": 97,
              "position": 13.78125,
              "duration": 0.041666666666666664
            },
            {
              "pitch": 82,
              "velocity": 38,
              "position": 14,
              "duration": 0.0020833333333333333
            },
            {
              "pitch": 54,
              "velocity": 35,
              "position": 14,
              "duration": 0.010416666666666666
            },
            {
              "pitch": 82,
              "velocity": 38,
              "position": 14.260416666666666,
              "duration": 0.0020833333333333333
            },
            {
              "pitch": 54,
              "velocity": 35,
              "position": 14.28125,
              "duration": 0.010416666666666666
            },
            {
              "pitch": 54,
              "velocity": 71,
              "position": 14.5,
              "duration": 0.010416666666666666
            },
            {
              "pitch": 62,
              "velocity": 127,
              "position": 14.5,
              "duration": 0.03125
            },
            {
              "pitch": 82,
              "velocity": 38,
              "position": 14.760416666666666,
              "duration": 0.0020833333333333333
            },
            {
              "pitch": 54,
              "velocity": 35,
              "position": 14.78125,
              "duration": 0.010416666666666666
            },
            {
              "pitch": 82,
              "velocity": 38,
              "position": 15,
              "duration": 0.0020833333333333333
            },
            {
              "pitch": 54,
              "velocity": 35,
              "position": 15,
              "duration": 0.010416666666666666
            },
            {
              "pitch": 61,
              "velocity": 105,
              "position": 15.03125,
              "duration": 0.041666666666666664
            },
            {
              "pitch": 82,
              "velocity": 38,
              "position": 15.260416666666666,
              "duration": 0.0020833333333333333
            },
            {
              "pitch": 54,
              "velocity": 35,
              "position": 15.28125,
              "duration": 0.010416666666666666
            },
            {
              "pitch": 54,
              "velocity": 71,
              "position": 15.5,
              "duration": 0.010416666666666666
            },
            {
              "pitch": 64,
              "velocity": 97,
              "position": 15.53125,
              "duration": 0.041666666666666664
            },
            {
              "pitch": 82,
              "velocity": 38,
              "position": 15.760416666666666,
              "duration": 0.0020833333333333333
            },
            {
              "pitch": 54,
              "velocity": 35,
              "position": 15.78125,
              "duration": 0.010416666666666666
            },
            {
              "pitch": 64,
              "velocity": 97,
              "position": 15.78125,
              "duration": 0.041666666666666664
            }
          ]
        },
        "9": {
          "ctab": {
            "srcChannel": 9,
            "name": "Drums",
            "accType": "RHYTHM",
            "editable": false,
            "mutedNotes": [],
            "mutedChords": [],
            "autoStart": true,
            "sourceChordNote": 0,
            "sourceChordType": "Maj7",
            "ctb2Low": null,
            "ctb2Main": {
              "ntr": "ROOT_FIXED",
              "ntt": "BYPASS",
              "bassOn": false,
              "chordRootUpperLimit": 6,
              "noteLowLimit": 0,
              "noteHighLimit": 127,
              "rtr": "PITCH_SHIFT"
            },
            "ctb2High": null
          },
          "notes": [
            {
              "pitch": 33,
              "velocity": 88,
              "position": 0,
              "duration": 0.010416666666666666
            },
            {
              "pitch": 44,
              "velocity": 59,
              "position": 0,
              "duration": 0.010416666666666666
            },
            {
              "pitch": 42,
              "velocity": 48,
              "position": 0.2604166666666667,
              "duration": 0.010416666666666666
            },
            {
              "pitch": 42,
              "velocity": 45,
              "position": 0.5,
              "duration": 0.010416666666666666
            },
            {
              "pitch": 46,
              "velocity": 64,
              "position": 0.78125,
              "duration": 0.010416666666666666
            },
            {
              "pitch": 25,
              "velocity": 114,
              "position": 1,
              "duration": 0.010416666666666666
            },
            {
              "pitch": 33,
              "velocity": 88,
              "position": 1,
              "duration": 0.010416666666666666
            },
            {
              "pitch": 39,
              "velocity": 91,
              "position": 1,
              "duration": 0.010416666666666666
            },
            {
              "pitch": 44,
              "velocity": 64,
              "position": 1,
              "duration": 0.010416666666666666
            },
            {
              "pitch": 42,
              "velocity": 48,
              "position": 1.2604166666666667,
              "duration": 0.010416666666666666
            },
            {
              "pitch": 42,
              "velocity": 45,
              "position": 1.5,
              "duration": 0.010416666666666666
            },
            {
              "pitch": 42,
              "velocity": 45,
              "position": 1.78125,
              "duration": 0.010416666666666666
            },
            {
              "pitch": 33,
              "velocity": 88,
              "position": 2,
              "duration": 0.010416666666666666
            },
            {
              "pitch": 44,
              "velocity": 64,
              "position": 2,
              "duration": 0.010416666666666666
            },
            {
              "pitch": 42,
              "velocity": 48,
              "position": 2.2604166666666665,
              "duration": 0.010416666666666666
            },
            {
              "pitch": 42,
              "velocity": 45,
              "position": 2.5,
              "duration": 0.010416666666666666
            },
            {
              "pitch": 42,
              "velocity": 45,
              "position": 2.78125,
              "duration": 0.010416666666666666
            },
            {
              "pitch": 25,
              "velocity": 114,
              "position": 3,
              "duration": 0.010416666666666666
            },
            {
              "pitch": 33,
              "velocity": 88,
              "position": 3,
              "duration": 0.010416666666666666
            },
            {
              "pitch": 39,
              "velocity": 91,
              "position": 3,
              "duration": 0.010416666666666666
            },
            {
              "pitch": 44,
              "velocity": 64,
              "position": 3,
              "duration": 0.010416666666666666
            },
            {
              "pitch": 42,
              "velocity": 48,
              "position": 3.2604166666666665,
              "duration": 0.010416666666666666
            },
            {
              "pitch": 42,
              "velocity": 45,
              "position": 3.5,
              "duration": 0.010416666666666666
            },
            {
              "pitch": 44,
              "velocity": 64,
              "position": 3.78125,
              "duration": 0.010416666666666666
            },
            {
              "pitch": 33,
              "velocity": 88,
              "position": 4,
              "duration": 0.010416666666666666
            },
            {
              "pitch": 44,
              "velocity": 59,
              "position": 4,
              "duration": 0.010416666666666666
            },
            {
              "pitch": 42,
              "velocity": 48,
              "position": 4.260416666666667,
              "duration": 0.010416666666666666
            },
            {
              "pitch": 42,
              "velocity": 45,
              "position": 4.5,
              "duration": 0.010416666666666666
            },
            {
              "pitch": 46,
              "velocity": 64,
              "position": 4.78125,
              "duration": 0.010416666666666666
            },
            {
              "pitch": 25,
              "velocity": 114,
              "position": 5,
              "duration": 0.010416666666666666
            },
            {
              "pitch": 33,
              "velocity": 88,
              "position": 5,
              "duration": 0.010416666666666666
            },
            {
              "pitch": 39,
              "velocity": 91,
              "position": 5,
              "duration": 0.010416666666666666
            },
            {
              "pitch": 44,
              "velocity": 64,
              "position": 5,
              "duration": 0.010416666666666666
            },
            {
              "pitch": 42,
              "velocity": 48,
              "position": 5.260416666666667,
              "duration": 0.010416666666666666
            },
            {
              "pitch": 42,
              "velocity": 45,
              "position": 5.5,
              "duration": 0.010416666666666666
            },
            {
              "pitch": 42,
              "velocity": 45,
              "position": 5.78125,
              "duration": 0.010416666666666666
            },
            {
              "pitch": 33,
              "velocity": 88,
              "position": 6,
              "duration": 0.010416666666666666
            },
            {
              "pitch": 44,
              "velocity": 64,
              "position": 6,
              "duration": 0.010416666666666666
            },
            {
              "pitch": 42,
              "velocity": 48,
              "position": 6.260416666666667,
              "duration": 0.010416666666666666
            },
            {
              "pitch": 42,
              "velocity": 45,
              "position": 6.5,
              "duration": 0.010416666666666666
            },
            {
              "pitch": 42,
              "velocity": 45,
              "position": 6.78125,
              "duration": 0.010416666666666666
            },
            {
              "pitch": 25,
              "velocity": 114,
              "position": 7,
              "duration": 0.010416666666666666
            },
            {
              "pitch": 33,
              "velocity": 88,
              "position": 7,
              "duration": 0.010416666666666666
            },
            {
              "pitch": 39,
              "velocity": 91,
              "position": 7,
              "duration": 0.010416666666666666
            },
            {
              "pitch": 44,
              "velocity": 64,
              "position": 7,
              "duration": 0.010416666666666666
            },
            {
              "pitch": 42,
              "velocity": 48,
              "position": 7.260416666666667,
              "duration": 0.010416666666666666
            },
            {
              "pitch": 42,
              "velocity": 45,
              "position": 7.5,
              "duration": 0.010416666666666666
            },
            {
              "pitch": 44,
              "velocity": 59,
              "position": 7.78125,
              "duration": 0.010416666666666666
            },
            {
              "pitch": 33,
              "velocity": 88,
              "position": 8,
              "duration": 0.010416666666666666
            },
            {
              "pitch": 44,
              "velocity": 59,
              "position": 8,
              "duration": 0.010416666666666666
            },
            {
              "pitch": 42,
              "velocity": 48,
              "position": 8.260416666666666,
              "duration": 0.010416666666666666
            },
            {
              "pitch": 42,
              "velocity": 45,
              "position": 8.5,
              "duration": 0.010416666666666666
            },
            {
              "pitch": 46,
              "velocity": 64,
              "position": 8.78125,
              "duration": 0.010416666666666666
            },
            {
              "pitch": 25,
              "velocity": 114,
              "position": 9,
              "duration": 0.010416666666666666
            },
            {
              "pitch": 33,
              "velocity": 88,
              "position": 9,
              "duration": 0.010416666666666666
            },
            {
              "pitch": 39,
              "velocity": 91,
              "position": 9,
              "duration": 0.010416666666666666
            },
            {
              "pitch": 44,
              "velocity": 64,
              "position": 9,
              "duration": 0.010416666666666666
            },
            {
              "pitch": 42,
              "velocity": 48,
              "position": 9.260416666666666,
              "duration": 0.010416666666666666
            },
            {
              "pitch": 42,
              "velocity": 45,
              "position": 9.5,
              "duration": 0.010416666666666666
            },
            {
              "pitch": 42,
              "velocity": 45,
              "position": 9.78125,
              "duration": 0.010416666666666666
            },
            {
              "pitch": 33,
              "velocity": 88,
              "position": 10,
              "duration": 0.010416666666666666
            },
            {
              "pitch": 44,
              "velocity": 64,
              "position": 10,
              "duration": 0.010416666666666666
            },
            {
              "pitch": 42,
              "velocity": 48,
              "position": 10.260416666666666,
              "duration": 0.010416666666666666
            },
            {
              "pitch": 42,
              "velocity": 45,
              "position": 10.5,
              "duration": 0.010416666666666666
            },
            {
              "pitch": 42,
              "velocity": 45,
              "position": 10.78125,
              "duration": 0.010416666666666666
            },
            {
              "pitch": 25,
              "velocity": 114,
              "position": 11,
              "duration": 0.010416666666666666
            },
            {
              "pitch": 33,
              "velocity": 88,
              "position": 11,
              "duration": 0.010416666666666666
            },
            {
              "pitch": 39,
              "velocity": 91,
              "position": 11,
              "duration": 0.010416666666666666
            },
            {
              "pitch": 44,
              "velocity": 64,
              "position": 11,
              "duration": 0.010416666666666666
            },
            {
              "pitch": 42,
              "velocity": 48,
              "position": 11.260416666666666,
              "duration": 0.010416666666666666
            },
            {
              "pitch": 42,
              "velocity": 45,
              "position": 11.5,
              "duration": 0.010416666666666666
            },
            {
              "pitch": 44,
              "velocity": 59,
              "position": 11.78125,
              "duration": 0.010416666666666666
            },
            {
              "pitch": 33,
              "velocity": 88,
              "position": 12,
              "duration": 0.010416666666666666
            },
            {
              "pitch": 44,
              "velocity": 59,
              "position": 12,
              "duration": 0.010416666666666666
            },
            {
              "pitch": 42,
              "velocity": 48,
              "position": 12.260416666666666,
              "duration": 0.010416666666666666
            },
            {
              "pitch": 44,
              "velocity": 59,
              "position": 12.28125,
              "duration": 0.010416666666666666
            },
            {
              "pitch": 42,
              "velocity": 45,
              "position": 12.5,
              "duration": 0.010416666666666666
            },
            {
              "pitch": 46,
              "velocity": 64,
              "position": 12.78125,
              "duration": 0.010416666666666666
            },
            {
              "pitch": 25,
              "velocity": 114,
              "position": 13,
              "duration": 0.010416666666666666
            },
            {
              "pitch": 33,
              "velocity": 88,
              "position": 13,
              "duration": 0.010416666666666666
            },
            {
              "pitch": 39,
              "velocity": 91,
              "position": 13,
              "duration": 0.010416666666666666
            },
            {
              "pitch": 44,
              "velocity": 64,
              "position": 13,
              "duration": 0.010416666666666666
            },
            {
              "pitch": 42,
              "velocity": 48,
              "position": 13.260416666666666,
              "duration": 0.010416666666666666
            },
            {
              "pitch": 42,
              "velocity": 45,
              "position": 13.5,
              "duration": 0.010416666666666666
            },
            {
              "pitch": 42,
              "velocity": 45,
              "position": 13.78125,
              "duration": 0.010416666666666666
            },
            {
              "pitch": 33,
              "velocity": 88,
              "position": 14,
              "duration": 0.010416666666666666
            },
            {
              "pitch": 44,
              "velocity": 64,
              "position": 14,
              "duration": 0.010416666666666666
            },
            {
              "pitch": 42,
              "velocity": 48,
              "position": 14.260416666666666,
              "duration": 0.010416666666666666
            },
            {
              "pitch": 42,
              "velocity": 45,
              "position": 14.5,
              "duration": 0.010416666666666666
            },
            {
              "pitch": 42,
              "velocity": 45,
              "position": 14.78125,
              "duration": 0.010416666666666666
            },
            {
              "pitch": 25,
              "velocity": 114,
              "position": 15,
              "duration": 0.010416666666666666
            },
            {
              "pitch": 33,
              "velocity": 88,
              "position": 15,
              "duration": 0.010416666666666666
            },
            {
              "pitch": 39,
              "velocity": 91,
              "position": 15,
              "duration": 0.010416666666666666
            },
            {
              "pitch": 44,
              "velocity": 64,
              "position": 15,
              "duration": 0.010416666666666666
            },
            {
              "pitch": 42,
              "velocity": 48,
              "position": 15.260416666666666,
              "duration": 0.010416666666666666
            },
            {
              "pitch": 42,
              "velocity": 45,
              "position": 15.5,
              "duration": 0.010416666666666666
            },
            {
              "pitch": 44,
              "velocity": 59,
              "position": 15.78125,
              "duration": 0.010416666666666666
            }
          ]
        },
        "10": {
          "ctab": {
            "srcChannel": 10,
            "name": "Bass",
            "accType": "BASS",
            "editable": false,
            "mutedNotes": [],
            "mutedChords": [],
            "autoStart": false,
            "sourceChordNote": 0,
            "sourceChordType": "Maj7",
            "ctb2Low": null,
            "ctb2Main": {
              "ntr": "ROOT_TRANSPOSITION",
              "ntt": "MELODY",
              "bassOn": true,
              "chordRootUpperLimit": 5,
              "noteLowLimit": 28,
              "noteHighLimit": 127,
              "rtr": "PITCH_SHIFT_TO_ROOT"
            },
            "ctb2High": null
          },
          "notes": [
            {
              "pitch": 24,
              "velocity": 100,
              "position": 0,
              "duration": 0.5
            },
            {
              "pitch": 24,
              "velocity": 100,
              "position": 1,
              "duration": 0.4895833333333333
            },
            {
              "pitch": 24,
              "velocity": 100,
              "position": 1.7604166666666667,
              "duration": 0.7291666666666666
            },
            {
              "pitch": 24,
              "velocity": 100,
              "position": 2.5,
              "duration": 0.4895833333333333
            },
            {
              "pitch": 24,
              "velocity": 100,
              "position": 3.5,
              "duration": 0.4895833333333333
            },
            {
              "pitch": 24,
              "velocity": 100,
              "position": 4,
              "duration": 0.5
            },
            {
              "pitch": 24,
              "velocity": 100,
              "position": 5,
              "duration": 0.4895833333333333
            },
            {
              "pitch": 24,
              "velocity": 100,
              "position": 5.760416666666667,
              "duration": 0.7291666666666666
            },
            {
              "pitch": 24,
              "velocity": 100,
              "position": 6.5,
              "duration": 0.4895833333333333
            },
            {
              "pitch": 24,
              "velocity": 100,
              "position": 7.5,
              "duration": 0.4895833333333333
            },
            {
              "pitch": 24,
              "velocity": 100,
              "position": 8,
              "duration": 0.5
            },
            {
              "pitch": 24,
              "velocity": 100,
              "position": 9,
              "duration": 0.4895833333333333
            },
            {
              "pitch": 24,
              "velocity": 100,
              "position": 9.760416666666666,
              "duration": 0.7291666666666666
            },
            {
              "pitch": 24,
              "velocity": 100,
              "position": 10.5,
              "duration": 0.4895833333333333
            },
            {
              "pitch": 24,
              "velocity": 100,
              "position": 11.5,
              "duration": 0.4895833333333333
            },
            {
              "pitch": 24,
              "velocity": 100,
              "position": 12,
              "duration": 0.5
            },
            {
              "pitch": 24,
              "velocity": 100,
              "position": 13,
              "duration": 0.4895833333333333
            },
            {
              "pitch": 24,
              "velocity": 100,
              "position": 13.760416666666666,
              "duration": 0.7291666666666666
            },
            {
              "pitch": 24,
              "velocity": 100,
              "position": 14.5,
              "duration": 0.4895833333333333
            },
            {
              "pitch": 24,
              "velocity": 100,
              "position": 15.5,
              "duration": 0.4895833333333333
            }
          ]
        },
        "11": {
          "ctab": {
            "srcChannel": 11,
            "name": "Gt",
            "accType": "CHORD1",
            "editable": false,
            "mutedNotes": [],
            "mutedChords": [],
            "autoStart": false,
            "sourceChordNote": 0,
            "sourceChordType": "Maj7",
            "ctb2Low": null,
            "ctb2Main": {
              "ntr": "ROOT_FIXED",
              "ntt": "CHORD",
              "bassOn": false,
              "chordRootUpperLimit": 7,
              "noteLowLimit": 0,
              "noteHighLimit": 127,
              "rtr": "PITCH_SHIFT"
            },
            "ctb2High": null
          },
          "notes": [
            {
              "pitch": 55,
              "velocity": 118,
              "position": 0,
              "duration": 0.25
            },
            {
              "pitch": 59,
              "velocity": 118,
              "position": 0,
              "duration": 0.25
            },
            {
              "pitch": 64,
              "velocity": 118,
              "position": 0,
              "duration": 0.25
            },
            {
              "pitch": 55,
              "velocity": 76,
              "position": 0.2604166666666667,
              "duration": 0.041666666666666664
            },
            {
              "pitch": 59,
              "velocity": 76,
              "position": 0.2604166666666667,
              "duration": 0.041666666666666664
            },
            {
              "pitch": 64,
              "velocity": 76,
              "position": 0.2604166666666667,
              "duration": 0.041666666666666664
            },
            {
              "pitch": 55,
              "velocity": 89,
              "position": 0.5,
              "duration": 0.052083333333333336
            },
            {
              "pitch": 59,
              "velocity": 89,
              "position": 0.5,
              "duration": 0.052083333333333336
            },
            {
              "pitch": 64,
              "velocity": 89,
              "position": 0.5,
              "duration": 0.052083333333333336
            },
            {
              "pitch": 55,
              "velocity": 118,
              "position": 0.7604166666666666,
              "duration": 0.23958333333333334
            },
            {
              "pitch": 59,
              "velocity": 118,
              "position": 0.7604166666666666,
              "duration": 0.23958333333333334
            },
            {
              "pitch": 64,
              "velocity": 118,
              "position": 0.7604166666666666,
              "duration": 0.23958333333333334
            },
            {
              "pitch": 55,
              "velocity": 89,
              "position": 1.0104166666666667,
              "duration": 0.052083333333333336
            },
            {
              "pitch": 59,
              "velocity": 89,
              "position": 1.0104166666666667,
              "duration": 0.052083333333333336
            },
            {
              "pitch": 64,
              "velocity": 89,
              "position": 1.0104166666666667,
              "duration": 0.0625
            },
            {
              "pitch": 55,
              "velocity": 76,
              "position": 1.25,
              "duration": 0.041666666666666664
            },
            {
              "pitch": 59,
              "velocity": 76,
              "position": 1.25,
              "duration": 0.041666666666666664
            },
            {
              "pitch": 64,
              "velocity": 76,
              "position": 1.25,
              "duration": 0.041666666666666664
            },
            {
              "pitch": 55,
              "velocity": 89,
              "position": 1.5,
              "duration": 0.052083333333333336
            },
            {
              "pitch": 59,
              "velocity": 89,
              "position": 1.5,
              "duration": 0.052083333333333336
            },
            {
              "pitch": 64,
              "velocity": 89,
              "position": 1.5,
              "duration": 0.052083333333333336
            },
            {
              "pitch": 55,
              "velocity": 118,
              "position": 1.7604166666666667,
              "duration": 0.23958333333333334
            },
            {
              "pitch": 59,
              "velocity": 118,
              "position": 1.7604166666666667,
              "duration": 0.23958333333333334
            },
            {
              "pitch": 64,
              "velocity": 118,
              "position": 1.7604166666666667,
              "duration": 0.23958333333333334
            },
            {
              "pitch": 55,
              "velocity": 76,
              "position": 2.0104166666666665,
              "duration": 0.23958333333333334
            },
            {
              "pitch": 59,
              "velocity": 76,
              "position": 2.0104166666666665,
              "duration": 0.23958333333333334
            },
            {
              "pitch": 64,
              "velocity": 76,
              "position": 2.0104166666666665,
              "duration": 0.23958333333333334
            },
            {
              "pitch": 55,
              "velocity": 76,
              "position": 2.2604166666666665,
              "duration": 0.21875
            },
            {
              "pitch": 59,
              "velocity": 76,
              "position": 2.2604166666666665,
              "duration": 0.21875
            },
            {
              "pitch": 64,
              "velocity": 76,
              "position": 2.2604166666666665,
              "duration": 0.21875
            },
            {
              "pitch": 55,
              "velocity": 118,
              "position": 2.5,
              "duration": 0.23958333333333334
            },
            {
              "pitch": 59,
              "velocity": 118,
              "position": 2.5,
              "duration": 0.23958333333333334
            },
            {
              "pitch": 64,
              "velocity": 118,
              "position": 2.5,
              "duration": 0.23958333333333334
            },
            {
              "pitch": 55,
              "velocity": 76,
              "position": 2.7604166666666665,
              "duration": 0.041666666666666664
            },
            {
              "pitch": 59,
              "velocity": 76,
              "position": 2.7604166666666665,
              "duration": 0.041666666666666664
            },
            {
              "pitch": 64,
              "velocity": 76,
              "position": 2.7604166666666665,
              "duration": 0.041666666666666664
            },
            {
              "pitch": 55,
              "velocity": 89,
              "position": 3,
              "duration": 0.052083333333333336
            },
            {
              "pitch": 59,
              "velocity": 89,
              "position": 3,
              "duration": 0.052083333333333336
            },
            {
              "pitch": 64,
              "velocity": 89,
              "position": 3,
              "duration": 0.052083333333333336
            },
            {
              "pitch": 55,
              "velocity": 76,
              "position": 3.25,
              "duration": 0.041666666666666664
            },
            {
              "pitch": 59,
              "velocity": 76,
              "position": 3.25,
              "duration": 0.041666666666666664
            },
            {
              "pitch": 64,
              "velocity": 76,
              "position": 3.25,
              "duration": 0.041666666666666664
            },
            {
              "pitch": 55,
              "velocity": 103,
              "position": 3.5,
              "duration": 0.052083333333333336
            },
            {
              "pitch": 59,
              "velocity": 103,
              "position": 3.5,
              "duration": 0.052083333333333336
            },
            {
              "pitch": 64,
              "velocity": 103,
              "position": 3.5,
              "duration": 0.052083333333333336
            },
            {
              "pitch": 55,
              "velocity": 76,
              "position": 3.7604166666666665,
              "duration": 0.041666666666666664
            },
            {
              "pitch": 59,
              "velocity": 76,
              "position": 3.7604166666666665,
              "duration": 0.041666666666666664
            },
            {
              "pitch": 64,
              "velocity": 76,
              "position": 3.7604166666666665,
              "duration": 0.041666666666666664
            },
            {
              "pitch": 55,
              "velocity": 118,
              "position": 4,
              "duration": 0.23958333333333334
            },
            {
              "pitch": 59,
              "velocity": 118,
              "position": 4,
              "duration": 0.23958333333333334
            },
            {
              "pitch": 64,
              "velocity": 118,
              "position": 4,
              "duration": 0.23958333333333334
            },
            {
              "pitch": 55,
              "velocity": 76,
              "position": 4.260416666666667,
              "duration": 0.041666666666666664
            },
            {
              "pitch": 59,
              "velocity": 76,
              "position": 4.260416666666667,
              "duration": 0.041666666666666664
            },
            {
              "pitch": 64,
              "velocity": 76,
              "position": 4.260416666666667,
              "duration": 0.041666666666666664
            },
            {
              "pitch": 55,
              "velocity": 89,
              "position": 4.5,
              "duration": 0.052083333333333336
            },
            {
              "pitch": 59,
              "velocity": 89,
              "position": 4.5,
              "duration": 0.052083333333333336
            },
            {
              "pitch": 64,
              "velocity": 89,
              "position": 4.5,
              "duration": 0.052083333333333336
            },
            {
              "pitch": 55,
              "velocity": 76,
              "position": 4.75,
              "duration": 0.041666666666666664
            },
            {
              "pitch": 59,
              "velocity": 76,
              "position": 4.75,
              "duration": 0.041666666666666664
            },
            {
              "pitch": 64,
              "velocity": 76,
              "position": 4.75,
              "duration": 0.041666666666666664
            },
            {
              "pitch": 55,
              "velocity": 89,
              "position": 5.010416666666667,
              "duration": 0.052083333333333336
            },
            {
              "pitch": 59,
              "velocity": 89,
              "position": 5.010416666666667,
              "duration": 0.052083333333333336
            },
            {
              "pitch": 64,
              "velocity": 89,
              "position": 5.010416666666667,
              "duration": 0.052083333333333336
            },
            {
              "pitch": 55,
              "velocity": 76,
              "position": 5.25,
              "duration": 0.041666666666666664
            },
            {
              "pitch": 59,
              "velocity": 76,
              "position": 5.25,
              "duration": 0.041666666666666664
            },
            {
              "pitch": 64,
              "velocity": 76,
              "position": 5.25,
              "duration": 0.041666666666666664
            },
            {
              "pitch": 55,
              "velocity": 89,
              "position": 5.5,
              "duration": 0.052083333333333336
            },
            {
              "pitch": 59,
              "velocity": 89,
              "position": 5.5,
              "duration": 0.052083333333333336
            },
            {
              "pitch": 64,
              "velocity": 89,
              "position": 5.5,
              "duration": 0.052083333333333336
            },
            {
              "pitch": 55,
              "velocity": 118,
              "position": 5.760416666666667,
              "duration": 0.23958333333333334
            },
            {
              "pitch": 59,
              "velocity": 118,
              "position": 5.760416666666667,
              "duration": 0.23958333333333334
            },
            {
              "pitch": 64,
              "velocity": 118,
              "position": 5.760416666666667,
              "duration": 0.23958333333333334
            },
            {
              "pitch": 55,
              "velocity": 76,
              "position": 6.010416666666667,
              "duration": 0.23958333333333334
            },
            {
              "pitch": 59,
              "velocity": 76,
              "position": 6.010416666666667,
              "duration": 0.23958333333333334
            },
            {
              "pitch": 64,
              "velocity": 76,
              "position": 6.010416666666667,
              "duration": 0.23958333333333334
            },
            {
              "pitch": 55,
              "velocity": 76,
              "position": 6.260416666666667,
              "duration": 0.22916666666666666
            },
            {
              "pitch": 59,
              "velocity": 76,
              "position": 6.260416666666667,
              "duration": 0.22916666666666666
            },
            {
              "pitch": 64,
              "velocity": 76,
              "position": 6.260416666666667,
              "duration": 0.22916666666666666
            },
            {
              "pitch": 55,
              "velocity": 118,
              "position": 6.5,
              "duration": 0.23958333333333334
            },
            {
              "pitch": 59,
              "velocity": 118,
              "position": 6.5,
              "duration": 0.23958333333333334
            },
            {
              "pitch": 64,
              "velocity": 118,
              "position": 6.5,
              "duration": 0.23958333333333334
            },
            {
              "pitch": 55,
              "velocity": 76,
              "position": 6.760416666666667,
              "duration": 0.041666666666666664
            },
            {
              "pitch": 59,
              "velocity": 76,
              "position": 6.760416666666667,
              "duration": 0.041666666666666664
            },
            {
              "pitch": 64,
              "velocity": 76,
              "position": 6.760416666666667,
              "duration": 0.041666666666666664
            },
            {
              "pitch": 55,
              "velocity": 89,
              "position": 7,
              "duration": 0.052083333333333336
            },
            {
              "pitch": 59,
              "velocity": 89,
              "position": 7,
              "duration": 0.052083333333333336
            },
            {
              "pitch": 64,
              "velocity": 89,
              "position": 7,
              "duration": 0.052083333333333336
            },
            {
              "pitch": 55,
              "velocity": 76,
              "position": 7.25,
              "duration": 0.041666666666666664
            },
            {
              "pitch": 59,
              "velocity": 76,
              "position": 7.25,
              "duration": 0.041666666666666664
            },
            {
              "pitch": 64,
              "velocity": 76,
              "position": 7.25,
              "duration": 0.041666666666666664
            },
            {
              "pitch": 55,
              "velocity": 89,
              "position": 7.5,
              "duration": 0.25
            },
            {
              "pitch": 59,
              "velocity": 89,
              "position": 7.5,
              "duration": 0.25
            },
            {
              "pitch": 64,
              "velocity": 89,
              "position": 7.5,
              "duration": 0.25
            },
            {
              "pitch": 55,
              "velocity": 76,
              "position": 7.760416666666667,
              "duration": 0.22916666666666666
            },
            {
              "pitch": 59,
              "velocity": 76,
              "position": 7.760416666666667,
              "duration": 0.22916666666666666
            },
            {
              "pitch": 64,
              "velocity": 76,
              "position": 7.760416666666667,
              "duration": 0.22916666666666666
            },
            {
              "pitch": 55,
              "velocity": 118,
              "position": 8,
              "duration": 0.25
            },
            {
              "pitch": 59,
              "velocity": 118,
              "position": 8,
              "duration": 0.25
            },
            {
              "pitch": 64,
              "velocity": 118,
              "position": 8,
              "duration": 0.25
            },
            {
              "pitch": 55,
              "velocity": 76,
              "position": 8.260416666666666,
              "duration": 0.041666666666666664
            },
            {
              "pitch": 59,
              "velocity": 76,
              "position": 8.260416666666666,
              "duration": 0.041666666666666664
            },
            {
              "pitch": 64,
              "velocity": 76,
              "position": 8.260416666666666,
              "duration": 0.041666666666666664
            },
            {
              "pitch": 55,
              "velocity": 89,
              "position": 8.5,
              "duration": 0.052083333333333336
            },
            {
              "pitch": 59,
              "velocity": 89,
              "position": 8.5,
              "duration": 0.052083333333333336
            },
            {
              "pitch": 64,
              "velocity": 89,
              "position": 8.5,
              "duration": 0.052083333333333336
            },
            {
              "pitch": 55,
              "velocity": 118,
              "position": 8.760416666666666,
              "duration": 0.23958333333333334
            },
            {
              "pitch": 59,
              "velocity": 118,
              "position": 8.760416666666666,
              "duration": 0.23958333333333334
            },
            {
              "pitch": 64,
              "velocity": 118,
              "position": 8.760416666666666,
              "duration": 0.23958333333333334
            },
            {
              "pitch": 55,
              "velocity": 89,
              "position": 9.010416666666666,
              "duration": 0.052083333333333336
            },
            {
              "pitch": 59,
              "velocity": 89,
              "position": 9.010416666666666,
              "duration": 0.052083333333333336
            },
            {
              "pitch": 64,
              "velocity": 89,
              "position": 9.010416666666666,
              "duration": 0.0625
            },
            {
              "pitch": 55,
              "velocity": 76,
              "position": 9.25,
              "duration": 0.041666666666666664
            },
            {
              "pitch": 59,
              "velocity": 76,
              "position": 9.25,
              "duration": 0.041666666666666664
            },
            {
              "pitch": 64,
              "velocity": 76,
              "position": 9.25,
              "duration": 0.041666666666666664
            },
            {
              "pitch": 55,
              "velocity": 89,
              "position": 9.5,
              "duration": 0.052083333333333336
            },
            {
              "pitch": 59,
              "velocity": 89,
              "position": 9.5,
              "duration": 0.052083333333333336
            },
            {
              "pitch": 64,
              "velocity": 89,
              "position": 9.5,
              "duration": 0.052083333333333336
            },
            {
              "pitch": 55,
              "velocity": 118,
              "position": 9.760416666666666,
              "duration": 0.23958333333333334
            },
            {
              "pitch": 59,
              "velocity": 118,
              "position": 9.760416666666666,
              "duration": 0.23958333333333334
            },
            {
              "pitch": 64,
              "velocity": 118,
              "position": 9.760416666666666,
              "duration": 0.23958333333333334
            },
            {
              "pitch": 55,
              "velocity": 76,
              "position": 10.010416666666666,
              "duration": 0.23958333333333334
            },
            {
              "pitch": 59,
              "velocity": 76,
              "position": 10.010416666666666,
              "duration": 0.23958333333333334
            },
            {
              "pitch": 64,
              "velocity": 76,
              "position": 10.010416666666666,
              "duration": 0.23958333333333334
            },
            {
              "pitch": 55,
              "velocity": 76,
              "position": 10.260416666666666,
              "duration": 0.21875
            },
            {
              "pitch": 59,
              "velocity": 76,
              "position": 10.260416666666666,
              "duration": 0.21875
            },
            {
              "pitch": 64,
              "velocity": 76,
              "position": 10.260416666666666,
              "duration": 0.21875
            },
            {
              "pitch": 55,
              "velocity": 118,
              "position": 10.5,
              "duration": 0.23958333333333334
            },
            {
              "pitch": 59,
              "velocity": 118,
              "position": 10.5,
              "duration": 0.23958333333333334
            },
            {
              "pitch": 64,
              "velocity": 118,
              "position": 10.5,
              "duration": 0.23958333333333334
            },
            {
              "pitch": 55,
              "velocity": 76,
              "position": 10.760416666666666,
              "duration": 0.041666666666666664
            },
            {
              "pitch": 59,
              "velocity": 76,
              "position": 10.760416666666666,
              "duration": 0.041666666666666664
            },
            {
              "pitch": 64,
              "velocity": 76,
              "position": 10.760416666666666,
              "duration": 0.041666666666666664
            },
            {
              "pitch": 55,
              "velocity": 89,
              "position": 11,
              "duration": 0.052083333333333336
            },
            {
              "pitch": 59,
              "velocity": 89,
              "position": 11,
              "duration": 0.052083333333333336
            },
            {
              "pitch": 64,
              "velocity": 89,
              "position": 11,
              "duration": 0.052083333333333336
            },
            {
              "pitch": 55,
              "velocity": 76,
              "position": 11.25,
              "duration": 0.041666666666666664
            },
            {
              "pitch": 59,
              "velocity": 76,
              "position": 11.25,
              "duration": 0.041666666666666664
            },
            {
              "pitch": 64,
              "velocity": 76,
              "position": 11.25,
              "duration": 0.041666666666666664
            },
            {
              "pitch": 55,
              "velocity": 103,
              "position": 11.5,
              "duration": 0.052083333333333336
            },
            {
              "pitch": 59,
              "velocity": 103,
              "position": 11.5,
              "duration": 0.052083333333333336
            },
            {
              "pitch": 64,
              "velocity": 103,
              "position": 11.5,
              "duration": 0.052083333333333336
            },
            {
              "pitch": 55,
              "velocity": 76,
              "position": 11.760416666666666,
              "duration": 0.041666666666666664
            },
            {
              "pitch": 59,
              "velocity": 76,
              "position": 11.760416666666666,
              "duration": 0.041666666666666664
            },
            {
              "pitch": 64,
              "velocity": 76,
              "position": 11.760416666666666,
              "duration": 0.041666666666666664
            },
            {
              "pitch": 55,
              "velocity": 118,
              "position": 12,
              "duration": 0.23958333333333334
            },
            {
              "pitch": 59,
              "velocity": 118,
              "position": 12,
              "duration": 0.23958333333333334
            },
            {
              "pitch": 64,
              "velocity": 118,
              "position": 12,
              "duration": 0.23958333333333334
            },
            {
              "pitch": 55,
              "velocity": 76,
              "position": 12.260416666666666,
              "duration": 0.041666666666666664
            },
            {
              "pitch": 59,
              "velocity": 76,
              "position": 12.260416666666666,
              "duration": 0.041666666666666664
            },
            {
              "pitch": 64,
              "velocity": 76,
              "position": 12.260416666666666,
              "duration": 0.041666666666666664
            },
            {
              "pitch": 55,
              "velocity": 89,
              "position": 12.5,
              "duration": 0.052083333333333336
            },
            {
              "pitch": 59,
              "velocity": 89,
              "position": 12.5,
              "duration": 0.052083333333333336
            },
            {
              "pitch": 64,
              "velocity": 89,
              "position": 12.5,
              "duration": 0.052083333333333336
            },
            {
              "pitch": 55,
              "velocity": 76,
              "position": 12.75,
              "duration": 0.041666666666666664
            },
            {
              "pitch": 59,
              "velocity": 76,
              "position": 12.75,
              "duration": 0.041666666666666664
            },
            {
              "pitch": 64,
              "velocity": 76,
              "position": 12.75,
              "duration": 0.041666666666666664
            },
            {
              "pitch": 55,
              "velocity": 89,
              "position": 13.010416666666666,
              "duration": 0.052083333333333336
            },
            {
              "pitch": 59,
              "velocity": 89,
              "position": 13.010416666666666,
              "duration": 0.052083333333333336
            },
            {
              "pitch": 64,
              "velocity": 89,
              "position": 13.010416666666666,
              "duration": 0.052083333333333336
            },
            {
              "pitch": 55,
              "velocity": 76,
              "position": 13.25,
              "duration": 0.041666666666666664
            },
            {
              "pitch": 59,
              "velocity": 76,
              "position": 13.25,
              "duration": 0.041666666666666664
            },
            {
              "pitch": 64,
              "velocity": 76,
              "position": 13.25,
              "duration": 0.041666666666666664
            },
            {
              "pitch": 55,
              "velocity": 89,
              "position": 13.5,
              "duration": 0.052083333333333336
            },
            {
              "pitch": 59,
              "velocity": 89,
              "position": 13.5,
              "duration": 0.052083333333333336
            },
            {
              "pitch": 64,
              "velocity": 89,
              "position": 13.5,
              "duration": 0.052083333333333336
            },
            {
              "pitch": 55,
              "velocity": 118,
              "position": 13.760416666666666,
              "duration": 0.23958333333333334
            },
            {
              "pitch": 59,
              "velocity": 118,
              "position": 13.760416666666666,
              "duration": 0.23958333333333334
            },
            {
              "pitch": 64,
              "velocity": 118,
              "position": 13.760416666666666,
              "duration": 0.23958333333333334
            },
            {
              "pitch": 55,
              "velocity": 76,
              "position": 14.010416666666666,
              "duration": 0.23958333333333334
            },
            {
              "pitch": 59,
              "velocity": 76,
              "position": 14.010416666666666,
              "duration": 0.23958333333333334
            },
            {
              "pitch": 64,
              "velocity": 76,
              "position": 14.010416666666666,
              "duration": 0.23958333333333334
            },
            {
              "pitch": 55,
              "velocity": 76,
              "position": 14.260416666666666,
              "duration": 0.22916666666666666
            },
            {
              "pitch": 59,
              "velocity": 76,
              "position": 14.260416666666666,
              "duration": 0.22916666666666666
            },
            {
              "pitch": 64,
              "velocity": 76,
              "position": 14.260416666666666,
              "duration": 0.22916666666666666
            },
            {
              "pitch": 55,
              "velocity": 118,
              "position": 14.5,
              "duration": 0.23958333333333334
            },
            {
              "pitch": 59,
              "velocity": 118,
              "position": 14.5,
              "duration": 0.23958333333333334
            },
            {
              "pitch": 64,
              "velocity": 118,
              "position": 14.5,
              "duration": 0.23958333333333334
            },
            {
              "pitch": 55,
              "velocity": 76,
              "position": 14.760416666666666,
              "duration": 0.041666666666666664
            },
            {
              "pitch": 59,
              "velocity": 76,
              "position": 14.760416666666666,
              "duration": 0.041666666666666664
            },
            {
              "pitch": 64,
              "velocity": 76,
              "position": 14.760416666666666,
              "duration": 0.041666666666666664
            },
            {
              "pitch": 55,
              "velocity": 89,
              "position": 15,
              "duration": 0.052083333333333336
            },
            {
              "pitch": 59,
              "velocity": 89,
              "position": 15,
              "duration": 0.052083333333333336
            },
            {
              "pitch": 64,
              "velocity": 89,
              "position": 15,
              "duration": 0.052083333333333336
            },
            {
              "pitch": 55,
              "velocity": 76,
              "position": 15.25,
              "duration": 0.041666666666666664
            },
            {
              "pitch": 59,
              "velocity": 76,
              "position": 15.25,
              "duration": 0.041666666666666664
            },
            {
              "pitch": 64,
              "velocity": 76,
              "position": 15.25,
              "duration": 0.041666666666666664
            },
            {
              "pitch": 55,
              "velocity": 89,
              "position": 15.5,
              "duration": 0.25
            },
            {
              "pitch": 59,
              "velocity": 89,
              "position": 15.5,
              "duration": 0.25
            },
            {
              "pitch": 64,
              "velocity": 89,
              "position": 15.5,
              "duration": 0.25
            },
            {
              "pitch": 55,
              "velocity": 76,
              "position": 15.760416666666666,
              "duration": 0.22916666666666666
            },
            {
              "pitch": 59,
              "velocity": 76,
              "position": 15.760416666666666,
              "duration": 0.22916666666666666
            },
            {
              "pitch": 64,
              "velocity": 76,
              "position": 15.760416666666666,
              "duration": 0.22916666666666666
            }
          ]
        },
        "12": {
          "ctab": {
            "srcChannel": 12,
            "name": "Pno",
            "accType": "CHORD2",
            "editable": false,
            "mutedNotes": [],
            "mutedChords": [],
            "autoStart": false,
            "sourceChordNote": 0,
            "sourceChordType": "Maj7",
            "ctb2Low": null,
            "ctb2Main": {
              "ntr": "ROOT_FIXED",
              "ntt": "CHORD",
              "bassOn": false,
              "chordRootUpperLimit": 7,
              "noteLowLimit": 0,
              "noteHighLimit": 127,
              "rtr": "PITCH_SHIFT"
            },
            "ctb2High": null
          },
          "notes": [
            {
              "pitch": 55,
              "velocity": 80,
              "position": 0.5,
              "duration": 0.2125
            },
            {
              "pitch": 59,
              "velocity": 80,
              "position": 0.5,
              "duration": 0.2125
            },
            {
              "pitch": 64,
              "velocity": 80,
              "position": 0.5,
              "duration": 0.2125
            },
            {
              "pitch": 55,
              "velocity": 83,
              "position": 1.25,
              "duration": 0.2125
            },
            {
              "pitch": 59,
              "velocity": 83,
              "position": 1.25,
              "duration": 0.2125
            },
            {
              "pitch": 64,
              "velocity": 83,
              "position": 1.25,
              "duration": 0.2125
            },
            {
              "pitch": 55,
              "velocity": 72,
              "position": 2,
              "duration": 0.7395833333333334
            },
            {
              "pitch": 59,
              "velocity": 72,
              "position": 2,
              "duration": 0.7395833333333334
            },
            {
              "pitch": 64,
              "velocity": 72,
              "position": 2,
              "duration": 0.7395833333333334
            },
            {
              "pitch": 55,
              "velocity": 77,
              "position": 2.75,
              "duration": 0.2125
            },
            {
              "pitch": 59,
              "velocity": 77,
              "position": 2.75,
              "duration": 0.2125
            },
            {
              "pitch": 64,
              "velocity": 77,
              "position": 2.75,
              "duration": 0.2125
            },
            {
              "pitch": 55,
              "velocity": 77,
              "position": 3.5,
              "duration": 0.2125
            },
            {
              "pitch": 59,
              "velocity": 77,
              "position": 3.5,
              "duration": 0.2125
            },
            {
              "pitch": 64,
              "velocity": 77,
              "position": 3.5,
              "duration": 0.2125
            },
            {
              "pitch": 55,
              "velocity": 78,
              "position": 4.5,
              "duration": 0.2125
            },
            {
              "pitch": 59,
              "velocity": 78,
              "position": 4.5,
              "duration": 0.2125
            },
            {
              "pitch": 64,
              "velocity": 78,
              "position": 4.5,
              "duration": 0.2125
            },
            {
              "pitch": 55,
              "velocity": 78,
              "position": 5.25,
              "duration": 0.2125
            },
            {
              "pitch": 59,
              "velocity": 78,
              "position": 5.25,
              "duration": 0.2125
            },
            {
              "pitch": 64,
              "velocity": 78,
              "position": 5.25,
              "duration": 0.2125
            },
            {
              "pitch": 55,
              "velocity": 74,
              "position": 6,
              "duration": 0.7395833333333334
            },
            {
              "pitch": 59,
              "velocity": 74,
              "position": 6,
              "duration": 0.7395833333333334
            },
            {
              "pitch": 64,
              "velocity": 74,
              "position": 6,
              "duration": 0.7395833333333334
            },
            {
              "pitch": 55,
              "velocity": 78,
              "position": 6.75,
              "duration": 0.2125
            },
            {
              "pitch": 59,
              "velocity": 78,
              "position": 6.75,
              "duration": 0.2125
            },
            {
              "pitch": 64,
              "velocity": 78,
              "position": 6.75,
              "duration": 0.2125
            },
            {
              "pitch": 55,
              "velocity": 77,
              "position": 7.5,
              "duration": 0.2125
            },
            {
              "pitch": 59,
              "velocity": 77,
              "position": 7.5,
              "duration": 0.2125
            },
            {
              "pitch": 64,
              "velocity": 77,
              "position": 7.5,
              "duration": 0.2125
            },
            {
              "pitch": 55,
              "velocity": 77,
              "position": 8.5,
              "duration": 0.2125
            },
            {
              "pitch": 59,
              "velocity": 77,
              "position": 8.5,
              "duration": 0.2125
            },
            {
              "pitch": 64,
              "velocity": 77,
              "position": 8.5,
              "duration": 0.2125
            },
            {
              "pitch": 55,
              "velocity": 79,
              "position": 9.25,
              "duration": 0.2125
            },
            {
              "pitch": 59,
              "velocity": 79,
              "position": 9.25,
              "duration": 0.2125
            },
            {
              "pitch": 64,
              "velocity": 79,
              "position": 9.25,
              "duration": 0.2125
            },
            {
              "pitch": 55,
              "velocity": 70,
              "position": 10,
              "duration": 0.7395833333333334
            },
            {
              "pitch": 59,
              "velocity": 70,
              "position": 10,
              "duration": 0.7395833333333334
            },
            {
              "pitch": 64,
              "velocity": 70,
              "position": 10,
              "duration": 0.7395833333333334
            },
            {
              "pitch": 55,
              "velocity": 79,
              "position": 10.75,
              "duration": 0.2125
            },
            {
              "pitch": 59,
              "velocity": 79,
              "position": 10.75,
              "duration": 0.2125
            },
            {
              "pitch": 64,
              "velocity": 79,
              "position": 10.75,
              "duration": 0.2125
            },
            {
              "pitch": 55,
              "velocity": 78,
              "position": 11.5,
              "duration": 0.2125
            },
            {
              "pitch": 59,
              "velocity": 78,
              "position": 11.5,
              "duration": 0.2125
            },
            {
              "pitch": 64,
              "velocity": 78,
              "position": 11.5,
              "duration": 0.2125
            },
            {
              "pitch": 55,
              "velocity": 78,
              "position": 12.5,
              "duration": 0.2125
            },
            {
              "pitch": 59,
              "velocity": 78,
              "position": 12.5,
              "duration": 0.2125
            },
            {
              "pitch": 64,
              "velocity": 78,
              "position": 12.5,
              "duration": 0.2125
            },
            {
              "pitch": 55,
              "velocity": 78,
              "position": 13.25,
              "duration": 0.2125
            },
            {
              "pitch": 59,
              "velocity": 78,
              "position": 13.25,
              "duration": 0.2125
            },
            {
              "pitch": 64,
              "velocity": 78,
              "position": 13.25,
              "duration": 0.2125
            },
            {
              "pitch": 55,
              "velocity": 73,
              "position": 14,
              "duration": 0.7395833333333334
            },
            {
              "pitch": 59,
              "velocity": 73,
              "position": 14,
              "duration": 0.7395833333333334
            },
            {
              "pitch": 64,
              "velocity": 73,
              "position": 14,
              "duration": 0.7395833333333334
            },
            {
              "pitch": 55,
              "velocity": 77,
              "position": 14.75,
              "duration": 0.2125
            },
            {
              "pitch": 59,
              "velocity": 77,
              "position": 14.75,
              "duration": 0.2125
            },
            {
              "pitch": 64,
              "velocity": 77,
              "position": 14.75,
              "duration": 0.2125
            },
            {
              "pitch": 55,
              "velocity": 80,
              "position": 15.5,
              "duration": 0.2125
            },
            {
              "pitch": 59,
              "velocity": 80,
              "position": 15.5,
              "duration": 0.2125
            },
            {
              "pitch": 64,
              "velocity": 80,
              "position": 15.5,
              "duration": 0.2125
            }
          ]
        },
        "13": {
          "ctab": {
            "srcChannel": 13,
            "name": "Str",
            "accType": "PAD",
            "editable": false,
            "mutedNotes": [],
            "mutedChords": [],
            "autoStart": false,
            "sourceChordNote": 0,
            "sourceChordType": "Maj7",
            "ctb2Low": null,
            "ctb2Main": {
              "ntr": "ROOT_FIXED",
              "ntt": "CHORD",
              "bassOn": false,
              "chordRootUpperLimit": 7,
              "noteLowLimit": 0,
              "noteHighLimit": 127,
              "rtr": "PITCH_SHIFT"
            },
            "ctb2High": null
          },
          "notes": [
            {
              "pitch": 55,
              "velocity": 53,
              "position": 0,
              "duration": 15.989583333333334
            },
            {
              "pitch": 59,
              "velocity": 53,
              "position": 0,
              "duration": 15.989583333333334
            },
            {
              "pitch": 64,
              "velocity": 53,
              "position": 0,
              "duration": 15.989583333333334
            }
          ]
        },
        "15": {
          "ctab": {
            "srcChannel": 15,
            "name": "MtGt",
            "accType": "PHRASE2",
            "editable": false,
            "mutedNotes": [],
            "mutedChords": [],
            "autoStart": false,
            "sourceChordNote": 0,
            "sourceChordType": "Maj7",
            "ctb2Low": null,
            "ctb2Main": {
              "ntr": "ROOT_TRANSPOSITION",
              "ntt": "MELODY",
              "bassOn": false,
              "chordRootUpperLimit": 6,
              "noteLowLimit": 0,
              "noteHighLimit": 127,
              "rtr": "PITCH_SHIFT"
            },
            "ctb2High": null
          },
          "notes": [
            {
              "pitch": 55,
              "velocity": 83,
              "position": 1.28125,
              "duration": 0.0625
            },
            {
              "pitch": 57,
              "velocity": 55,
              "position": 1.5,
              "duration": 0.28125
            },
            {
              "pitch": 55,
              "velocity": 83,
              "position": 1.78125,
              "duration": 0.0625
            },
            {
              "pitch": 60,
              "velocity": 81,
              "position": 2,
              "duration": 0.09375
            },
            {
              "pitch": 60,
              "velocity": 84,
              "position": 2.2916666666666665,
              "duration": 0.14583333333333334
            },
            {
              "pitch": 55,
              "velocity": 80,
              "position": 5.28125,
              "duration": 0.0625
            },
            {
              "pitch": 57,
              "velocity": 58,
              "position": 5.5,
              "duration": 0.28125
            },
            {
              "pitch": 55,
              "velocity": 79,
              "position": 5.78125,
              "duration": 0.0625
            },
            {
              "pitch": 60,
              "velocity": 83,
              "position": 6,
              "duration": 0.10416666666666667
            },
            {
              "pitch": 60,
              "velocity": 55,
              "position": 6.28125,
              "duration": 0.14583333333333334
            },
            {
              "pitch": 57,
              "velocity": 79,
              "position": 6.5,
              "duration": 0.17708333333333334
            },
            {
              "pitch": 55,
              "velocity": 83,
              "position": 9.28125,
              "duration": 0.0625
            },
            {
              "pitch": 57,
              "velocity": 55,
              "position": 9.5,
              "duration": 0.28125
            },
            {
              "pitch": 55,
              "velocity": 83,
              "position": 9.78125,
              "duration": 0.0625
            },
            {
              "pitch": 60,
              "velocity": 81,
              "position": 10,
              "duration": 0.09375
            },
            {
              "pitch": 60,
              "velocity": 84,
              "position": 10.291666666666666,
              "duration": 0.14583333333333334
            },
            {
              "pitch": 55,
              "velocity": 80,
              "position": 13.28125,
              "duration": 0.0625
            },
            {
              "pitch": 57,
              "velocity": 58,
              "position": 13.5,
              "duration": 0.28125
            },
            {
              "pitch": 55,
              "velocity": 79,
              "position": 13.78125,
              "duration": 0.0625
            },
            {
              "pitch": 60,
              "velocity": 83,
              "position": 14,
              "duration": 0.10416666666666667
            },
            {
              "pitch": 60,
              "velocity": 55,
              "position": 14.28125,
              "duration": 0.14583333333333334
            },
            {
              "pitch": 57,
              "velocity": 79,
              "position": 14.5,
              "duration": 0.17708333333333334
            }
          ]
        }
      }
    },
    "Main_D": {
      "type": "Main_D",
      "sizeInBeats": 8,
      "channels": {
        "2": {
          "ctab": {
            "srcChannel": 2,
            "name": "Gt Root",
            "accType": "CHORD1",
            "editable": false,
            "mutedNotes": [],
            "mutedChords": [
              "1+2+5",
              "sus4",
              "1+5",
              "1+8",
              "Maj7aug",
              "dim",
              "minMaj7(9)",
              "minMaj7",
              "min6",
              "min",
              "aug",
              "Maj7(9)",
              "Maj7#11",
              "Maj7",
              "Maj6",
              "Maj"
            ],
            "autoStart": false,
            "sourceChordNote": 0,
            "sourceChordType": "Maj7",
            "ctb2Low": null,
            "ctb2Main": {
              "ntr": "ROOT_TRANSPOSITION",
              "ntt": "CHORD",
              "bassOn": false,
              "chordRootUpperLimit": 6,
              "noteLowLimit": 0,
              "noteHighLimit": 127,
              "rtr": "PITCH_SHIFT"
            },
            "ctb2High": null
          },
          "notes": [
            {
              "pitch": 60,
              "velocity": 116,
              "position": 0,
              "duration": 0.25
            },
            {
              "pitch": 60,
              "velocity": 74,
              "position": 0.2604166666666667,
              "duration": 0.041666666666666664
            },
            {
              "pitch": 60,
              "velocity": 87,
              "position": 0.5,
              "duration": 0.052083333333333336
            },
            {
              "pitch": 60,
              "velocity": 116,
              "position": 0.7604166666666666,
              "duration": 0.23958333333333334
            },
            {
              "pitch": 60,
              "velocity": 87,
              "position": 1.0104166666666667,
              "duration": 0.052083333333333336
            },
            {
              "pitch": 60,
              "velocity": 74,
              "position": 1.25,
              "duration": 0.041666666666666664
            },
            {
              "pitch": 60,
              "velocity": 87,
              "position": 1.5,
              "duration": 0.052083333333333336
            },
            {
              "pitch": 60,
              "velocity": 116,
              "position": 1.7604166666666667,
              "duration": 0.23958333333333334
            },
            {
              "pitch": 60,
              "velocity": 74,
              "position": 2.0104166666666665,
              "duration": 0.23958333333333334
            },
            {
              "pitch": 60,
              "velocity": 74,
              "position": 2.2604166666666665,
              "duration": 0.21875
            },
            {
              "pitch": 60,
              "velocity": 116,
              "position": 2.5,
              "duration": 0.23958333333333334
            },
            {
              "pitch": 60,
              "velocity": 74,
              "position": 2.7604166666666665,
              "duration": 0.041666666666666664
            },
            {
              "pitch": 60,
              "velocity": 87,
              "position": 3,
              "duration": 0.052083333333333336
            },
            {
              "pitch": 60,
              "velocity": 74,
              "position": 3.25,
              "duration": 0.041666666666666664
            },
            {
              "pitch": 60,
              "velocity": 101,
              "position": 3.5,
              "duration": 0.052083333333333336
            },
            {
              "pitch": 60,
              "velocity": 74,
              "position": 3.7604166666666665,
              "duration": 0.041666666666666664
            },
            {
              "pitch": 60,
              "velocity": 116,
              "position": 4,
              "duration": 0.23958333333333334
            },
            {
              "pitch": 60,
              "velocity": 74,
              "position": 4.260416666666667,
              "duration": 0.041666666666666664
            },
            {
              "pitch": 60,
              "velocity": 87,
              "position": 4.5,
              "duration": 0.052083333333333336
            },
            {
              "pitch": 60,
              "velocity": 74,
              "position": 4.75,
              "duration": 0.041666666666666664
            },
            {
              "pitch": 60,
              "velocity": 87,
              "position": 5.010416666666667,
              "duration": 0.052083333333333336
            },
            {
              "pitch": 60,
              "velocity": 74,
              "position": 5.25,
              "duration": 0.041666666666666664
            },
            {
              "pitch": 60,
              "velocity": 87,
              "position": 5.5,
              "duration": 0.052083333333333336
            },
            {
              "pitch": 60,
              "velocity": 116,
              "position": 5.760416666666667,
              "duration": 0.23958333333333334
            },
            {
              "pitch": 60,
              "velocity": 74,
              "position": 6.010416666666667,
              "duration": 0.23958333333333334
            },
            {
              "pitch": 60,
              "velocity": 74,
              "position": 6.260416666666667,
              "duration": 0.22916666666666666
            },
            {
              "pitch": 60,
              "velocity": 116,
              "position": 6.5,
              "duration": 0.23958333333333334
            },
            {
              "pitch": 60,
              "velocity": 74,
              "position": 6.760416666666667,
              "duration": 0.041666666666666664
            },
            {
              "pitch": 60,
              "velocity": 87,
              "position": 7,
              "duration": 0.052083333333333336
            },
            {
              "pitch": 60,
              "velocity": 74,
              "position": 7.25,
              "duration": 0.041666666666666664
            },
            {
              "pitch": 60,
              "velocity": 87,
              "position": 7.5,
              "duration": 0.25
            },
            {
              "pitch": 60,
              "velocity": 74,
              "position": 7.760416666666667,
              "duration": 0.22916666666666666
            }
          ]
        },
        "4": {
          "ctab": {
            "srcChannel": 4,
            "name": "Str Root",
            "accType": "PAD",
            "editable": false,
            "mutedNotes": [],
            "mutedChords": [
              "1+2+5",
              "sus4",
              "1+5",
              "1+8",
              "Maj7aug",
              "dim",
              "minMaj7(9)",
              "minMaj7",
              "min6",
              "min",
              "aug",
              "Maj7(9)",
              "Maj7#11",
              "Maj7",
              "Maj6",
              "Maj"
            ],
            "autoStart": false,
            "sourceChordNote": 0,
            "sourceChordType": "Maj7",
            "ctb2Low": null,
            "ctb2Main": {
              "ntr": "ROOT_TRANSPOSITION",
              "ntt": "CHORD",
              "bassOn": false,
              "chordRootUpperLimit": 6,
              "noteLowLimit": 0,
              "noteHighLimit": 127,
              "rtr": "PITCH_SHIFT"
            },
            "ctb2High": null
          },
          "notes": [
            {
              "pitch": 60,
              "velocity": 66,
              "position": 0,
              "duration": 7.989583333333333
            }
          ]
        },
        "7": {
          "ctab": {
            "srcChannel": 7,
            "name": "CC_Crash",
            "accType": "RHYTHM",
            "editable": false,
            "mutedNotes": [],
            "mutedChords": [
              "1+2+5",
              "sus4",
              "1+5",
              "1+8",
              "7aug",
              "Maj7aug",
              "7(#9)",
              "7(b13)",
              "7(b9)",
              "7(13)",
              "7#11",
              "7(9)",
              "7b5",
              "7sus4",
              "7th",
              "dim7",
              "dim",
              "minMaj7(9)",
              "minMaj7",
              "min7(11)",
              "min7(9)",
              "min(9)",
              "m7b5",
              "min7",
              "min6",
              "min",
              "aug",
              "Maj6(9)",
              "Maj7(9)",
              "Maj(9)",
              "Maj7#11",
              "Maj7",
              "Maj6",
              "Maj"
            ],
            "autoStart": true,
            "sourceChordNote": 0,
            "sourceChordType": "Maj",
            "ctb2Low": null,
            "ctb2Main": {
              "ntr": "ROOT_FIXED",
              "ntt": "BYPASS",
              "bassOn": false,
              "chordRootUpperLimit": 0,
              "noteLowLimit": 0,
              "noteHighLimit": 127,
              "rtr": "RETRIGGER"
            },
            "ctb2High": null
          },
          "notes": []
        },
        "8": {
          "ctab": {
            "srcChannel": 8,
            "name": "Perc",
            "accType": "SUBRHYTHM",
            "editable": false,
            "mutedNotes": [],
            "mutedChords": [],
            "autoStart": true,
            "sourceChordNote": 0,
            "sourceChordType": "Maj7",
            "ctb2Low": null,
            "ctb2Main": {
              "ntr": "ROOT_FIXED",
              "ntt": "BYPASS",
              "bassOn": false,
              "chordRootUpperLimit": 6,
              "noteLowLimit": 0,
              "noteHighLimit": 127,
              "rtr": "PITCH_SHIFT"
            },
            "ctb2High": null
          },
          "notes": [
            {
              "pitch": 54,
              "velocity": 42,
              "position": 0,
              "duration": 0.010416666666666666
            },
            {
              "pitch": 60,
              "velocity": 117,
              "position": 0,
              "duration": 0.03125
            },
            {
              "pitch": 64,
              "velocity": 101,
              "position": 0,
              "duration": 0.03125
            },
            {
              "pitch": 60,
              "velocity": 57,
              "position": 0.2604166666666667,
              "duration": 0.03125
            },
            {
              "pitch": 64,
              "velocity": 84,
              "position": 0.2604166666666667,
              "duration": 0.03125
            },
            {
              "pitch": 54,
              "velocity": 42,
              "position": 0.28125,
              "duration": 0.010416666666666666
            },
            {
              "pitch": 54,
              "velocity": 71,
              "position": 0.5,
              "duration": 0.010416666666666666
            },
            {
              "pitch": 61,
              "velocity": 99,
              "position": 0.5,
              "duration": 0.03125
            },
            {
              "pitch": 62,
              "velocity": 102,
              "position": 0.5,
              "duration": 0.03125
            },
            {
              "pitch": 63,
              "velocity": 93,
              "position": 0.7604166666666666,
              "duration": 0.03125
            },
            {
              "pitch": 54,
              "velocity": 42,
              "position": 0.78125,
              "duration": 0.010416666666666666
            },
            {
              "pitch": 54,
              "velocity": 42,
              "position": 1,
              "duration": 0.010416666666666666
            },
            {
              "pitch": 61,
              "velocity": 106,
              "position": 1,
              "duration": 0.03125
            },
            {
              "pitch": 63,
              "velocity": 86,
              "position": 1.2604166666666667,
              "duration": 0.03125
            },
            {
              "pitch": 54,
              "velocity": 42,
              "position": 1.28125,
              "duration": 0.010416666666666666
            },
            {
              "pitch": 54,
              "velocity": 71,
              "position": 1.5,
              "duration": 0.010416666666666666
            },
            {
              "pitch": 61,
              "velocity": 119,
              "position": 1.7604166666666667,
              "duration": 0.03125
            },
            {
              "pitch": 63,
              "velocity": 95,
              "position": 1.7604166666666667,
              "duration": 0.03125
            },
            {
              "pitch": 54,
              "velocity": 42,
              "position": 1.78125,
              "duration": 0.010416666666666666
            },
            {
              "pitch": 54,
              "velocity": 42,
              "position": 2,
              "duration": 0.010416666666666666
            },
            {
              "pitch": 60,
              "velocity": 99,
              "position": 2,
              "duration": 0.03125
            },
            {
              "pitch": 60,
              "velocity": 39,
              "position": 2.2604166666666665,
              "duration": 0.03125
            },
            {
              "pitch": 64,
              "velocity": 99,
              "position": 2.2604166666666665,
              "duration": 0.03125
            },
            {
              "pitch": 54,
              "velocity": 42,
              "position": 2.28125,
              "duration": 0.010416666666666666
            },
            {
              "pitch": 54,
              "velocity": 71,
              "position": 2.5,
              "duration": 0.010416666666666666
            },
            {
              "pitch": 61,
              "velocity": 102,
              "position": 2.5,
              "duration": 0.03125
            },
            {
              "pitch": 64,
              "velocity": 85,
              "position": 2.5,
              "duration": 0.03125
            },
            {
              "pitch": 62,
              "velocity": 107,
              "position": 2.7604166666666665,
              "duration": 0.03125
            },
            {
              "pitch": 54,
              "velocity": 42,
              "position": 2.78125,
              "duration": 0.010416666666666666
            },
            {
              "pitch": 56,
              "velocity": 64,
              "position": 2.7604166666666665,
              "duration": 0.041666666666666664
            },
            {
              "pitch": 54,
              "velocity": 42,
              "position": 3,
              "duration": 0.010416666666666666
            },
            {
              "pitch": 61,
              "velocity": 120,
              "position": 3,
              "duration": 0.03125
            },
            {
              "pitch": 63,
              "velocity": 98,
              "position": 3,
              "duration": 0.03125
            },
            {
              "pitch": 54,
              "velocity": 42,
              "position": 3.28125,
              "duration": 0.010416666666666666
            },
            {
              "pitch": 54,
              "velocity": 71,
              "position": 3.5,
              "duration": 0.010416666666666666
            },
            {
              "pitch": 56,
              "velocity": 66,
              "position": 3.5,
              "duration": 0.03125
            },
            {
              "pitch": 61,
              "velocity": 127,
              "position": 3.7604166666666665,
              "duration": 0.03125
            },
            {
              "pitch": 54,
              "velocity": 42,
              "position": 3.78125,
              "duration": 0.010416666666666666
            },
            {
              "pitch": 54,
              "velocity": 42,
              "position": 4,
              "duration": 0.010416666666666666
            },
            {
              "pitch": 60,
              "velocity": 91,
              "position": 4,
              "duration": 0.03125
            },
            {
              "pitch": 64,
              "velocity": 97,
              "position": 4,
              "duration": 0.03125
            },
            {
              "pitch": 60,
              "velocity": 31,
              "position": 4.260416666666667,
              "duration": 0.03125
            },
            {
              "pitch": 64,
              "velocity": 94,
              "position": 4.260416666666667,
              "duration": 0.03125
            },
            {
              "pitch": 54,
              "velocity": 42,
              "position": 4.28125,
              "duration": 0.010416666666666666
            },
            {
              "pitch": 54,
              "velocity": 71,
              "position": 4.5,
              "duration": 0.010416666666666666
            },
            {
              "pitch": 61,
              "velocity": 110,
              "position": 4.5,
              "duration": 0.03125
            },
            {
              "pitch": 62,
              "velocity": 100,
              "position": 4.5,
              "duration": 0.03125
            },
            {
              "pitch": 63,
              "velocity": 88,
              "position": 4.760416666666667,
              "duration": 0.03125
            },
            {
              "pitch": 54,
              "velocity": 42,
              "position": 4.78125,
              "duration": 0.010416666666666666
            },
            {
              "pitch": 54,
              "velocity": 42,
              "position": 5,
              "duration": 0.010416666666666666
            },
            {
              "pitch": 61,
              "velocity": 120,
              "position": 5,
              "duration": 0.03125
            },
            {
              "pitch": 63,
              "velocity": 96,
              "position": 5.260416666666667,
              "duration": 0.03125
            },
            {
              "pitch": 54,
              "velocity": 42,
              "position": 5.28125,
              "duration": 0.010416666666666666
            },
            {
              "pitch": 54,
              "velocity": 71,
              "position": 5.5,
              "duration": 0.010416666666666666
            },
            {
              "pitch": 61,
              "velocity": 122,
              "position": 5.760416666666667,
              "duration": 0.03125
            },
            {
              "pitch": 63,
              "velocity": 99,
              "position": 5.760416666666667,
              "duration": 0.03125
            },
            {
              "pitch": 54,
              "velocity": 42,
              "position": 5.78125,
              "duration": 0.010416666666666666
            },
            {
              "pitch": 54,
              "velocity": 42,
              "position": 6,
              "duration": 0.010416666666666666
            },
            {
              "pitch": 60,
              "velocity": 113,
              "position": 6,
              "duration": 0.03125
            },
            {
              "pitch": 60,
              "velocity": 53,
              "position": 6.260416666666667,
              "duration": 0.03125
            },
            {
              "pitch": 64,
              "velocity": 99,
              "position": 6.260416666666667,
              "duration": 0.03125
            },
            {
              "pitch": 54,
              "velocity": 42,
              "position": 6.28125,
              "duration": 0.010416666666666666
            },
            {
              "pitch": 54,
              "velocity": 71,
              "position": 6.5,
              "duration": 0.010416666666666666
            },
            {
              "pitch": 56,
              "velocity": 63,
              "position": 6.5,
              "duration": 0.010416666666666666
            },
            {
              "pitch": 61,
              "velocity": 99,
              "position": 6.5,
              "duration": 0.03125
            },
            {
              "pitch": 64,
              "velocity": 89,
              "position": 6.5,
              "duration": 0.03125
            },
            {
              "pitch": 62,
              "velocity": 87,
              "position": 6.760416666666667,
              "duration": 0.03125
            },
            {
              "pitch": 54,
              "velocity": 42,
              "position": 6.78125,
              "duration": 0.010416666666666666
            },
            {
              "pitch": 56,
              "velocity": 47,
              "position": 6.760416666666667,
              "duration": 0.041666666666666664
            },
            {
              "pitch": 54,
              "velocity": 42,
              "position": 7,
              "duration": 0.010416666666666666
            },
            {
              "pitch": 60,
              "velocity": 105,
              "position": 7,
              "duration": 0.03125
            },
            {
              "pitch": 63,
              "velocity": 99,
              "position": 7,
              "duration": 0.03125
            },
            {
              "pitch": 60,
              "velocity": 45,
              "position": 7.260416666666667,
              "duration": 0.03125
            },
            {
              "pitch": 54,
              "velocity": 42,
              "position": 7.28125,
              "duration": 0.010416666666666666
            },
            {
              "pitch": 54,
              "velocity": 71,
              "position": 7.5,
              "duration": 0.010416666666666666
            },
            {
              "pitch": 56,
              "velocity": 66,
              "position": 7.5,
              "duration": 0.020833333333333332
            },
            {
              "pitch": 61,
              "velocity": 108,
              "position": 7.5,
              "duration": 0.03125
            },
            {
              "pitch": 54,
              "velocity": 42,
              "position": 7.78125,
              "duration": 0.010416666666666666
            }
          ]
        },
        "9": {
          "ctab": {
            "srcChannel": 9,
            "name": "Drums",
            "accType": "RHYTHM",
            "editable": false,
            "mutedNotes": [],
            "mutedChords": [],
            "autoStart": true,
            "sourceChordNote": 0,
            "sourceChordType": "Maj7",
            "ctb2Low": null,
            "ctb2Main": {
              "ntr": "ROOT_FIXED",
              "ntt": "BYPASS",
              "bassOn": false,
              "chordRootUpperLimit": 6,
              "noteLowLimit": 0,
              "noteHighLimit": 127,
              "rtr": "PITCH_SHIFT"
            },
            "ctb2High": null
          },
          "notes": [
            {
              "pitch": 33,
              "velocity": 88,
              "position": 0,
              "duration": 0.010416666666666666
            },
            {
              "pitch": 42,
              "velocity": 68,
              "position": 0,
              "duration": 0.010416666666666666
            },
            {
              "pitch": 42,
              "velocity": 32,
              "position": 0.2604166666666667,
              "duration": 0.010416666666666666
            },
            {
              "pitch": 46,
              "velocity": 75,
              "position": 0.5,
              "duration": 0.010416666666666666
            },
            {
              "pitch": 42,
              "velocity": 65,
              "position": 0.78125,
              "duration": 0.010416666666666666
            },
            {
              "pitch": 25,
              "velocity": 93,
              "position": 1,
              "duration": 0.010416666666666666
            },
            {
              "pitch": 33,
              "velocity": 88,
              "position": 1,
              "duration": 0.010416666666666666
            },
            {
              "pitch": 39,
              "velocity": 91,
              "position": 1,
              "duration": 0.010416666666666666
            },
            {
              "pitch": 42,
              "velocity": 88,
              "position": 1,
              "duration": 0.010416666666666666
            },
            {
              "pitch": 42,
              "velocity": 32,
              "position": 1.2604166666666667,
              "duration": 0.010416666666666666
            },
            {
              "pitch": 46,
              "velocity": 75,
              "position": 1.5,
              "duration": 0.010416666666666666
            },
            {
              "pitch": 42,
              "velocity": 58,
              "position": 1.78125,
              "duration": 0.010416666666666666
            },
            {
              "pitch": 33,
              "velocity": 88,
              "position": 2,
              "duration": 0.010416666666666666
            },
            {
              "pitch": 42,
              "velocity": 88,
              "position": 2,
              "duration": 0.010416666666666666
            },
            {
              "pitch": 42,
              "velocity": 32,
              "position": 2.2604166666666665,
              "duration": 0.010416666666666666
            },
            {
              "pitch": 46,
              "velocity": 75,
              "position": 2.5,
              "duration": 0.010416666666666666
            },
            {
              "pitch": 42,
              "velocity": 58,
              "position": 2.78125,
              "duration": 0.010416666666666666
            },
            {
              "pitch": 25,
              "velocity": 93,
              "position": 3,
              "duration": 0.010416666666666666
            },
            {
              "pitch": 33,
              "velocity": 88,
              "position": 3,
              "duration": 0.010416666666666666
            },
            {
              "pitch": 39,
              "velocity": 91,
              "position": 3,
              "duration": 0.010416666666666666
            },
            {
              "pitch": 42,
              "velocity": 88,
              "position": 3,
              "duration": 0.010416666666666666
            },
            {
              "pitch": 42,
              "velocity": 32,
              "position": 3.2604166666666665,
              "duration": 0.010416666666666666
            },
            {
              "pitch": 46,
              "velocity": 75,
              "position": 3.5,
              "duration": 0.010416666666666666
            },
            {
              "pitch": 42,
              "velocity": 88,
              "position": 3.78125,
              "duration": 0.010416666666666666
            },
            {
              "pitch": 33,
              "velocity": 88,
              "position": 4,
              "duration": 0.010416666666666666
            },
            {
              "pitch": 42,
              "velocity": 68,
              "position": 4,
              "duration": 0.010416666666666666
            },
            {
              "pitch": 42,
              "velocity": 32,
              "position": 4.260416666666667,
              "duration": 0.010416666666666666
            },
            {
              "pitch": 46,
              "velocity": 75,
              "position": 4.5,
              "duration": 0.010416666666666666
            },
            {
              "pitch": 42,
              "velocity": 38,
              "position": 4.78125,
              "duration": 0.010416666666666666
            },
            {
              "pitch": 25,
              "velocity": 93,
              "position": 5,
              "duration": 0.010416666666666666
            },
            {
              "pitch": 33,
              "velocity": 88,
              "position": 5,
              "duration": 0.010416666666666666
            },
            {
              "pitch": 39,
              "velocity": 91,
              "position": 5,
              "duration": 0.010416666666666666
            },
            {
              "pitch": 42,
              "velocity": 88,
              "position": 5,
              "duration": 0.010416666666666666
            },
            {
              "pitch": 42,
              "velocity": 32,
              "position": 5.260416666666667,
              "duration": 0.010416666666666666
            },
            {
              "pitch": 46,
              "velocity": 75,
              "position": 5.5,
              "duration": 0.010416666666666666
            },
            {
              "pitch": 42,
              "velocity": 58,
              "position": 5.78125,
              "duration": 0.010416666666666666
            },
            {
              "pitch": 33,
              "velocity": 88,
              "position": 6,
              "duration": 0.010416666666666666
            },
            {
              "pitch": 42,
              "velocity": 88,
              "position": 6,
              "duration": 0.010416666666666666
            },
            {
              "pitch": 42,
              "velocity": 32,
              "position": 6.260416666666667,
              "duration": 0.010416666666666666
            },
            {
              "pitch": 46,
              "velocity": 75,
              "position": 6.5,
              "duration": 0.010416666666666666
            },
            {
              "pitch": 42,
              "velocity": 58,
              "position": 6.78125,
              "duration": 0.010416666666666666
            },
            {
              "pitch": 25,
              "velocity": 93,
              "position": 7,
              "duration": 0.010416666666666666
            },
            {
              "pitch": 33,
              "velocity": 88,
              "position": 7,
              "duration": 0.010416666666666666
            },
            {
              "pitch": 39,
              "velocity": 91,
              "position": 7,
              "duration": 0.010416666666666666
            },
            {
              "pitch": 42,
              "velocity": 88,
              "position": 7,
              "duration": 0.010416666666666666
            },
            {
              "pitch": 42,
              "velocity": 32,
              "position": 7.260416666666667,
              "duration": 0.010416666666666666
            },
            {
              "pitch": 46,
              "velocity": 75,
              "position": 7.5,
              "duration": 0.010416666666666666
            },
            {
              "pitch": 42,
              "velocity": 68,
              "position": 7.78125,
              "duration": 0.010416666666666666
            }
          ]
        },
        "10": {
          "ctab": {
            "srcChannel": 10,
            "name": "Bass",
            "accType": "BASS",
            "editable": false,
            "mutedNotes": [],
            "mutedChords": [],
            "autoStart": false,
            "sourceChordNote": 0,
            "sourceChordType": "Maj7",
            "ctb2Low": null,
            "ctb2Main": {
              "ntr": "ROOT_TRANSPOSITION",
              "ntt": "MELODY",
              "bassOn": true,
              "chordRootUpperLimit": 5,
              "noteLowLimit": 28,
              "noteHighLimit": 127,
              "rtr": "PITCH_SHIFT_TO_ROOT"
            },
            "ctb2High": null
          },
          "notes": [
            {
              "pitch": 24,
              "velocity": 100,
              "position": 0,
              "duration": 0.4895833333333333
            },
            {
              "pitch": 24,
              "velocity": 100,
              "position": 1,
              "duration": 0.75
            },
            {
              "pitch": 35,
              "velocity": 100,
              "position": 1.7604166666666667,
              "duration": 0.7291666666666666
            },
            {
              "pitch": 36,
              "velocity": 100,
              "position": 2.5,
              "duration": 0.4895833333333333
            },
            {
              "pitch": 24,
              "velocity": 100,
              "position": 3.5,
              "duration": 0.4895833333333333
            },
            {
              "pitch": 24,
              "velocity": 100,
              "position": 4,
              "duration": 0.4895833333333333
            },
            {
              "pitch": 24,
              "velocity": 100,
              "position": 5,
              "duration": 0.75
            },
            {
              "pitch": 35,
              "velocity": 100,
              "position": 5.760416666666667,
              "duration": 0.7291666666666666
            },
            {
              "pitch": 36,
              "velocity": 100,
              "position": 6.5,
              "duration": 0.4895833333333333
            },
            {
              "pitch": 24,
              "velocity": 100,
              "position": 7.5,
              "duration": 0.4895833333333333
            }
          ]
        },
        "11": {
          "ctab": {
            "srcChannel": 11,
            "name": "Gt",
            "accType": "CHORD1",
            "editable": false,
            "mutedNotes": [],
            "mutedChords": [],
            "autoStart": false,
            "sourceChordNote": 0,
            "sourceChordType": "Maj7",
            "ctb2Low": null,
            "ctb2Main": {
              "ntr": "ROOT_FIXED",
              "ntt": "CHORD",
              "bassOn": false,
              "chordRootUpperLimit": 7,
              "noteLowLimit": 0,
              "noteHighLimit": 127,
              "rtr": "PITCH_SHIFT"
            },
            "ctb2High": null
          },
          "notes": [
            {
              "pitch": 55,
              "velocity": 118,
              "position": 0,
              "duration": 0.25
            },
            {
              "pitch": 59,
              "velocity": 118,
              "position": 0,
              "duration": 0.25
            },
            {
              "pitch": 64,
              "velocity": 118,
              "position": 0,
              "duration": 0.25
            },
            {
              "pitch": 55,
              "velocity": 76,
              "position": 0.2604166666666667,
              "duration": 0.041666666666666664
            },
            {
              "pitch": 59,
              "velocity": 76,
              "position": 0.2604166666666667,
              "duration": 0.041666666666666664
            },
            {
              "pitch": 64,
              "velocity": 76,
              "position": 0.2604166666666667,
              "duration": 0.041666666666666664
            },
            {
              "pitch": 55,
              "velocity": 89,
              "position": 0.5,
              "duration": 0.052083333333333336
            },
            {
              "pitch": 59,
              "velocity": 89,
              "position": 0.5,
              "duration": 0.052083333333333336
            },
            {
              "pitch": 64,
              "velocity": 89,
              "position": 0.5,
              "duration": 0.052083333333333336
            },
            {
              "pitch": 55,
              "velocity": 118,
              "position": 0.7604166666666666,
              "duration": 0.23958333333333334
            },
            {
              "pitch": 59,
              "velocity": 118,
              "position": 0.7604166666666666,
              "duration": 0.23958333333333334
            },
            {
              "pitch": 64,
              "velocity": 118,
              "position": 0.7604166666666666,
              "duration": 0.23958333333333334
            },
            {
              "pitch": 55,
              "velocity": 89,
              "position": 1.0104166666666667,
              "duration": 0.052083333333333336
            },
            {
              "pitch": 59,
              "velocity": 89,
              "position": 1.0104166666666667,
              "duration": 0.052083333333333336
            },
            {
              "pitch": 64,
              "velocity": 89,
              "position": 1.0104166666666667,
              "duration": 0.0625
            },
            {
              "pitch": 55,
              "velocity": 76,
              "position": 1.25,
              "duration": 0.041666666666666664
            },
            {
              "pitch": 59,
              "velocity": 76,
              "position": 1.25,
              "duration": 0.041666666666666664
            },
            {
              "pitch": 64,
              "velocity": 76,
              "position": 1.25,
              "duration": 0.041666666666666664
            },
            {
              "pitch": 55,
              "velocity": 89,
              "position": 1.5,
              "duration": 0.052083333333333336
            },
            {
              "pitch": 59,
              "velocity": 89,
              "position": 1.5,
              "duration": 0.052083333333333336
            },
            {
              "pitch": 64,
              "velocity": 89,
              "position": 1.5,
              "duration": 0.052083333333333336
            },
            {
              "pitch": 55,
              "velocity": 118,
              "position": 1.7604166666666667,
              "duration": 0.23958333333333334
            },
            {
              "pitch": 59,
              "velocity": 118,
              "position": 1.7604166666666667,
              "duration": 0.23958333333333334
            },
            {
              "pitch": 64,
              "velocity": 118,
              "position": 1.7604166666666667,
              "duration": 0.23958333333333334
            },
            {
              "pitch": 55,
              "velocity": 76,
              "position": 2.0104166666666665,
              "duration": 0.23958333333333334
            },
            {
              "pitch": 59,
              "velocity": 76,
              "position": 2.0104166666666665,
              "duration": 0.23958333333333334
            },
            {
              "pitch": 64,
              "velocity": 76,
              "position": 2.0104166666666665,
              "duration": 0.23958333333333334
            },
            {
              "pitch": 55,
              "velocity": 76,
              "position": 2.2604166666666665,
              "duration": 0.21875
            },
            {
              "pitch": 59,
              "velocity": 76,
              "position": 2.2604166666666665,
              "duration": 0.21875
            },
            {
              "pitch": 64,
              "velocity": 76,
              "position": 2.2604166666666665,
              "duration": 0.21875
            },
            {
              "pitch": 55,
              "velocity": 118,
              "position": 2.5,
              "duration": 0.23958333333333334
            },
            {
              "pitch": 59,
              "velocity": 118,
              "position": 2.5,
              "duration": 0.23958333333333334
            },
            {
              "pitch": 64,
              "velocity": 118,
              "position": 2.5,
              "duration": 0.23958333333333334
            },
            {
              "pitch": 55,
              "velocity": 76,
              "position": 2.7604166666666665,
              "duration": 0.041666666666666664
            },
            {
              "pitch": 59,
              "velocity": 76,
              "position": 2.7604166666666665,
              "duration": 0.041666666666666664
            },
            {
              "pitch": 64,
              "velocity": 76,
              "position": 2.7604166666666665,
              "duration": 0.041666666666666664
            },
            {
              "pitch": 55,
              "velocity": 89,
              "position": 3,
              "duration": 0.052083333333333336
            },
            {
              "pitch": 59,
              "velocity": 89,
              "position": 3,
              "duration": 0.052083333333333336
            },
            {
              "pitch": 64,
              "velocity": 89,
              "position": 3,
              "duration": 0.052083333333333336
            },
            {
              "pitch": 55,
              "velocity": 76,
              "position": 3.25,
              "duration": 0.041666666666666664
            },
            {
              "pitch": 59,
              "velocity": 76,
              "position": 3.25,
              "duration": 0.041666666666666664
            },
            {
              "pitch": 64,
              "velocity": 76,
              "position": 3.25,
              "duration": 0.041666666666666664
            },
            {
              "pitch": 55,
              "velocity": 103,
              "position": 3.5,
              "duration": 0.052083333333333336
            },
            {
              "pitch": 59,
              "velocity": 103,
              "position": 3.5,
              "duration": 0.052083333333333336
            },
            {
              "pitch": 64,
              "velocity": 103,
              "position": 3.5,
              "duration": 0.052083333333333336
            },
            {
              "pitch": 55,
              "velocity": 76,
              "position": 3.7604166666666665,
              "duration": 0.041666666666666664
            },
            {
              "pitch": 59,
              "velocity": 76,
              "position": 3.7604166666666665,
              "duration": 0.041666666666666664
            },
            {
              "pitch": 64,
              "velocity": 76,
              "position": 3.7604166666666665,
              "duration": 0.041666666666666664
            },
            {
              "pitch": 55,
              "velocity": 118,
              "position": 4,
              "duration": 0.23958333333333334
            },
            {
              "pitch": 59,
              "velocity": 118,
              "position": 4,
              "duration": 0.23958333333333334
            },
            {
              "pitch": 64,
              "velocity": 118,
              "position": 4,
              "duration": 0.23958333333333334
            },
            {
              "pitch": 55,
              "velocity": 76,
              "position": 4.260416666666667,
              "duration": 0.041666666666666664
            },
            {
              "pitch": 59,
              "velocity": 76,
              "position": 4.260416666666667,
              "duration": 0.041666666666666664
            },
            {
              "pitch": 64,
              "velocity": 76,
              "position": 4.260416666666667,
              "duration": 0.041666666666666664
            },
            {
              "pitch": 55,
              "velocity": 89,
              "position": 4.5,
              "duration": 0.052083333333333336
            },
            {
              "pitch": 59,
              "velocity": 89,
              "position": 4.5,
              "duration": 0.052083333333333336
            },
            {
              "pitch": 64,
              "velocity": 89,
              "position": 4.5,
              "duration": 0.052083333333333336
            },
            {
              "pitch": 55,
              "velocity": 76,
              "position": 4.75,
              "duration": 0.041666666666666664
            },
            {
              "pitch": 59,
              "velocity": 76,
              "position": 4.75,
              "duration": 0.041666666666666664
            },
            {
              "pitch": 64,
              "velocity": 76,
              "position": 4.75,
              "duration": 0.041666666666666664
            },
            {
              "pitch": 55,
              "velocity": 89,
              "position": 5.010416666666667,
              "duration": 0.052083333333333336
            },
            {
              "pitch": 59,
              "velocity": 89,
              "position": 5.010416666666667,
              "duration": 0.052083333333333336
            },
            {
              "pitch": 64,
              "velocity": 89,
              "position": 5.010416666666667,
              "duration": 0.052083333333333336
            },
            {
              "pitch": 55,
              "velocity": 76,
              "position": 5.25,
              "duration": 0.041666666666666664
            },
            {
              "pitch": 59,
              "velocity": 76,
              "position": 5.25,
              "duration": 0.041666666666666664
            },
            {
              "pitch": 64,
              "velocity": 76,
              "position": 5.25,
              "duration": 0.041666666666666664
            },
            {
              "pitch": 55,
              "velocity": 89,
              "position": 5.5,
              "duration": 0.052083333333333336
            },
            {
              "pitch": 59,
              "velocity": 89,
              "position": 5.5,
              "duration": 0.052083333333333336
            },
            {
              "pitch": 64,
              "velocity": 89,
              "position": 5.5,
              "duration": 0.052083333333333336
            },
            {
              "pitch": 55,
              "velocity": 118,
              "position": 5.760416666666667,
              "duration": 0.23958333333333334
            },
            {
              "pitch": 59,
              "velocity": 118,
              "position": 5.760416666666667,
              "duration": 0.23958333333333334
            },
            {
              "pitch": 64,
              "velocity": 118,
              "position": 5.760416666666667,
              "duration": 0.23958333333333334
            },
            {
              "pitch": 55,
              "velocity": 76,
              "position": 6.010416666666667,
              "duration": 0.23958333333333334
            },
            {
              "pitch": 59,
              "velocity": 76,
              "position": 6.010416666666667,
              "duration": 0.23958333333333334
            },
            {
              "pitch": 64,
              "velocity": 76,
              "position": 6.010416666666667,
              "duration": 0.23958333333333334
            },
            {
              "pitch": 55,
              "velocity": 76,
              "position": 6.260416666666667,
              "duration": 0.22916666666666666
            },
            {
              "pitch": 59,
              "velocity": 76,
              "position": 6.260416666666667,
              "duration": 0.22916666666666666
            },
            {
              "pitch": 64,
              "velocity": 76,
              "position": 6.260416666666667,
              "duration": 0.22916666666666666
            },
            {
              "pitch": 55,
              "velocity": 118,
              "position": 6.5,
              "duration": 0.23958333333333334
            },
            {
              "pitch": 59,
              "velocity": 118,
              "position": 6.5,
              "duration": 0.23958333333333334
            },
            {
              "pitch": 64,
              "velocity": 118,
              "position": 6.5,
              "duration": 0.23958333333333334
            },
            {
              "pitch": 55,
              "velocity": 76,
              "position": 6.760416666666667,
              "duration": 0.041666666666666664
            },
            {
              "pitch": 59,
              "velocity": 76,
              "position": 6.760416666666667,
              "duration": 0.041666666666666664
            },
            {
              "pitch": 64,
              "velocity": 76,
              "position": 6.760416666666667,
              "duration": 0.041666666666666664
            },
            {
              "pitch": 55,
              "velocity": 89,
              "position": 7,
              "duration": 0.052083333333333336
            },
            {
              "pitch": 59,
              "velocity": 89,
              "position": 7,
              "duration": 0.052083333333333336
            },
            {
              "pitch": 64,
              "velocity": 89,
              "position": 7,
              "duration": 0.052083333333333336
            },
            {
              "pitch": 55,
              "velocity": 76,
              "position": 7.25,
              "duration": 0.041666666666666664
            },
            {
              "pitch": 59,
              "velocity": 76,
              "position": 7.25,
              "duration": 0.041666666666666664
            },
            {
              "pitch": 64,
              "velocity": 76,
              "position": 7.25,
              "duration": 0.041666666666666664
            },
            {
              "pitch": 55,
              "velocity": 89,
              "position": 7.5,
              "duration": 0.25
            },
            {
              "pitch": 59,
              "velocity": 89,
              "position": 7.5,
              "duration": 0.25
            },
            {
              "pitch": 64,
              "velocity": 89,
              "position": 7.5,
              "duration": 0.25
            },
            {
              "pitch": 55,
              "velocity": 76,
              "position": 7.760416666666667,
              "duration": 0.22916666666666666
            },
            {
              "pitch": 59,
              "velocity": 76,
              "position": 7.760416666666667,
              "duration": 0.22916666666666666
            },
            {
              "pitch": 64,
              "velocity": 76,
              "position": 7.760416666666667,
              "duration": 0.22916666666666666
            }
          ]
        },
        "12": {
          "ctab": {
            "srcChannel": 12,
            "name": "Pno",
            "accType": "CHORD2",
            "editable": false,
            "mutedNotes": [],
            "mutedChords": [],
            "autoStart": false,
            "sourceChordNote": 0,
            "sourceChordType": "Maj7",
            "ctb2Low": null,
            "ctb2Main": {
              "ntr": "ROOT_FIXED",
              "ntt": "CHORD",
              "bassOn": false,
              "chordRootUpperLimit": 7,
              "noteLowLimit": 0,
              "noteHighLimit": 127,
              "rtr": "PITCH_SHIFT"
            },
            "ctb2High": null
          },
          "notes": [
            {
              "pitch": 55,
              "velocity": 81,
              "position": 0.7604166666666666,
              "duration": 0.1875
            },
            {
              "pitch": 59,
              "velocity": 81,
              "position": 0.7604166666666666,
              "duration": 0.1875
            },
            {
              "pitch": 64,
              "velocity": 81,
              "position": 0.7604166666666666,
              "duration": 0.1875
            },
            {
              "pitch": 55,
              "velocity": 64,
              "position": 1.25,
              "duration": 0.1875
            },
            {
              "pitch": 59,
              "velocity": 64,
              "position": 1.25,
              "duration": 0.1875
            },
            {
              "pitch": 64,
              "velocity": 64,
              "position": 1.25,
              "duration": 0.1875
            },
            {
              "pitch": 55,
              "velocity": 81,
              "position": 1.75,
              "duration": 0.23958333333333334
            },
            {
              "pitch": 59,
              "velocity": 81,
              "position": 1.75,
              "duration": 0.23958333333333334
            },
            {
              "pitch": 64,
              "velocity": 81,
              "position": 1.75,
              "duration": 0.23958333333333334
            },
            {
              "pitch": 55,
              "velocity": 64,
              "position": 2.25,
              "duration": 0.1875
            },
            {
              "pitch": 59,
              "velocity": 64,
              "position": 2.25,
              "duration": 0.1875
            },
            {
              "pitch": 64,
              "velocity": 64,
              "position": 2.25,
              "duration": 0.1875
            },
            {
              "pitch": 55,
              "velocity": 64,
              "position": 3,
              "duration": 0.1875
            },
            {
              "pitch": 59,
              "velocity": 64,
              "position": 3,
              "duration": 0.1875
            },
            {
              "pitch": 64,
              "velocity": 64,
              "position": 3,
              "duration": 0.1875
            },
            {
              "pitch": 55,
              "velocity": 81,
              "position": 3.5,
              "duration": 0.9479166666666666
            },
            {
              "pitch": 59,
              "velocity": 81,
              "position": 3.5,
              "duration": 0.9479166666666666
            },
            {
              "pitch": 64,
              "velocity": 81,
              "position": 3.5,
              "duration": 0.9479166666666666
            },
            {
              "pitch": 55,
              "velocity": 81,
              "position": 4.760416666666667,
              "duration": 0.1875
            },
            {
              "pitch": 59,
              "velocity": 81,
              "position": 4.760416666666667,
              "duration": 0.1875
            },
            {
              "pitch": 64,
              "velocity": 81,
              "position": 4.760416666666667,
              "duration": 0.1875
            },
            {
              "pitch": 55,
              "velocity": 64,
              "position": 5.25,
              "duration": 0.1875
            },
            {
              "pitch": 59,
              "velocity": 64,
              "position": 5.25,
              "duration": 0.1875
            },
            {
              "pitch": 64,
              "velocity": 64,
              "position": 5.25,
              "duration": 0.1875
            },
            {
              "pitch": 55,
              "velocity": 81,
              "position": 5.75,
              "duration": 0.23958333333333334
            },
            {
              "pitch": 59,
              "velocity": 81,
              "position": 5.75,
              "duration": 0.23958333333333334
            },
            {
              "pitch": 64,
              "velocity": 81,
              "position": 5.75,
              "duration": 0.23958333333333334
            },
            {
              "pitch": 55,
              "velocity": 64,
              "position": 6.25,
              "duration": 0.1875
            },
            {
              "pitch": 59,
              "velocity": 64,
              "position": 6.25,
              "duration": 0.1875
            },
            {
              "pitch": 64,
              "velocity": 64,
              "position": 6.25,
              "duration": 0.1875
            },
            {
              "pitch": 55,
              "velocity": 64,
              "position": 7,
              "duration": 0.1875
            },
            {
              "pitch": 59,
              "velocity": 64,
              "position": 7,
              "duration": 0.1875
            },
            {
              "pitch": 64,
              "velocity": 64,
              "position": 7,
              "duration": 0.1875
            }
          ]
        },
        "13": {
          "ctab": {
            "srcChannel": 13,
            "name": "Str",
            "accType": "PAD",
            "editable": false,
            "mutedNotes": [],
            "mutedChords": [],
            "autoStart": false,
            "sourceChordNote": 0,
            "sourceChordType": "Maj7",
            "ctb2Low": null,
            "ctb2Main": {
              "ntr": "ROOT_FIXED",
              "ntt": "CHORD",
              "bassOn": false,
              "chordRootUpperLimit": 7,
              "noteLowLimit": 0,
              "noteHighLimit": 127,
              "rtr": "PITCH_SHIFT"
            },
            "ctb2High": null
          },
          "notes": [
            {
              "pitch": 55,
              "velocity": 65,
              "position": 0,
              "duration": 7.989583333333333
            },
            {
              "pitch": 59,
              "velocity": 65,
              "position": 0,
              "duration": 7.989583333333333
            },
            {
              "pitch": 64,
              "velocity": 65,
              "position": 0,
              "duration": 7.989583333333333
            },
            {
              "pitch": 76,
              "velocity": 61,
              "position": 0,
              "duration": 7.989583333333333
            }
          ]
        },
        "15": {
          "ctab": {
            "srcChannel": 15,
            "name": "MtGt",
            "accType": "PHRASE2",
            "editable": false,
            "mutedNotes": [],
            "mutedChords": [],
            "autoStart": false,
            "sourceChordNote": 0,
            "sourceChordType": "Maj7",
            "ctb2Low": null,
            "ctb2Main": {
              "ntr": "ROOT_TRANSPOSITION",
              "ntt": "MELODY",
              "bassOn": false,
              "chordRootUpperLimit": 6,
              "noteLowLimit": 0,
              "noteHighLimit": 127,
              "rtr": "PITCH_SHIFT"
            },
            "ctb2High": null
          },
          "notes": [
            {
              "pitch": 55,
              "velocity": 75,
              "position": 2.28125,
              "duration": 0.0625
            },
            {
              "pitch": 57,
              "velocity": 46,
              "position": 2.5,
              "duration": 0.28125
            },
            {
              "pitch": 55,
              "velocity": 75,
              "position": 2.78125,
              "duration": 0.0625
            },
            {
              "pitch": 60,
              "velocity": 73,
              "position": 3,
              "duration": 0.09375
            },
            {
              "pitch": 60,
              "velocity": 76,
              "position": 3.2916666666666665,
              "duration": 0.14583333333333334
            },
            {
              "pitch": 55,
              "velocity": 72,
              "position": 6.28125,
              "duration": 0.0625
            },
            {
              "pitch": 57,
              "velocity": 50,
              "position": 6.5,
              "duration": 0.28125
            },
            {
              "pitch": 55,
              "velocity": 71,
              "position": 6.78125,
              "duration": 0.0625
            },
            {
              "pitch": 60,
              "velocity": 75,
              "position": 7,
              "duration": 0.10416666666666667
            },
            {
              "pitch": 60,
              "velocity": 46,
              "position": 7.28125,
              "duration": 0.14583333333333334
            },
            {
              "pitch": 60,
              "velocity": 71,
              "position": 7.5,
              "duration": 0.17708333333333334
            },
            {
              "pitch": 57,
              "velocity": 71,
              "position": 7.78125,
              "duration": 0.11458333333333333
            }
          ]
        }
      }
    },
    "Fill_In_AA": {
      "type": "Fill_In_AA",
      "sizeInBeats": 4,
      "channels": {
        "2": {
          "ctab": {
            "srcChannel": 2,
            "name": "Gt Root",
            "accType": "CHORD1",
            "editable": false,
            "mutedNotes": [],
            "mutedChords": [
              "1+2+5",
              "sus4",
              "1+5",
              "1+8",
              "Maj7aug",
              "dim",
              "minMaj7(9)",
              "minMaj7",
              "min6",
              "min",
              "aug",
              "Maj7(9)",
              "Maj7#11",
              "Maj7",
              "Maj6",
              "Maj"
            ],
            "autoStart": false,
            "sourceChordNote": 0,
            "sourceChordType": "Maj7",
            "ctb2Low": null,
            "ctb2Main": {
              "ntr": "ROOT_TRANSPOSITION",
              "ntt": "CHORD",
              "bassOn": false,
              "chordRootUpperLimit": 6,
              "noteLowLimit": 0,
              "noteHighLimit": 127,
              "rtr": "PITCH_SHIFT"
            },
            "ctb2High": null
          },
          "notes": [
            {
              "pitch": 60,
              "velocity": 116,
              "position": 0.5,
              "duration": 0.23958333333333334
            },
            {
              "pitch": 60,
              "velocity": 74,
              "position": 0.75,
              "duration": 0.041666666666666664
            },
            {
              "pitch": 60,
              "velocity": 116,
              "position": 1,
              "duration": 0.23958333333333334
            },
            {
              "pitch": 60,
              "velocity": 101,
              "position": 1.25,
              "duration": 0.041666666666666664
            },
            {
              "pitch": 60,
              "velocity": 74,
              "position": 1.5,
              "duration": 0.041666666666666664
            },
            {
              "pitch": 60,
              "velocity": 116,
              "position": 1.7604166666666667,
              "duration": 0.4791666666666667
            },
            {
              "pitch": 60,
              "velocity": 74,
              "position": 2.25,
              "duration": 0.23958333333333334
            },
            {
              "pitch": 60,
              "velocity": 116,
              "position": 2.5,
              "duration": 0.23958333333333334
            }
          ]
        },
        "4": {
          "ctab": {
            "srcChannel": 4,
            "name": "Str Root",
            "accType": "PAD",
            "editable": false,
            "mutedNotes": [],
            "mutedChords": [
              "1+2+5",
              "sus4",
              "1+5",
              "1+8",
              "Maj7aug",
              "dim",
              "minMaj7(9)",
              "minMaj7",
              "min6",
              "min",
              "aug",
              "Maj7(9)",
              "Maj7#11",
              "Maj7",
              "Maj6",
              "Maj"
            ],
            "autoStart": false,
            "sourceChordNote": 0,
            "sourceChordType": "Maj7",
            "ctb2Low": null,
            "ctb2Main": {
              "ntr": "ROOT_TRANSPOSITION",
              "ntt": "CHORD",
              "bassOn": false,
              "chordRootUpperLimit": 6,
              "noteLowLimit": 0,
              "noteHighLimit": 127,
              "rtr": "PITCH_SHIFT"
            },
            "ctb2High": null
          },
          "notes": [
            {
              "pitch": 60,
              "velocity": 47,
              "position": 0,
              "duration": 3.9895833333333335
            }
          ]
        },
        "7": {
          "ctab": {
            "srcChannel": 7,
            "name": "CC_Crash",
            "accType": "RHYTHM",
            "editable": false,
            "mutedNotes": [],
            "mutedChords": [
              "1+2+5",
              "sus4",
              "1+5",
              "1+8",
              "7aug",
              "Maj7aug",
              "7(#9)",
              "7(b13)",
              "7(b9)",
              "7(13)",
              "7#11",
              "7(9)",
              "7b5",
              "7sus4",
              "7th",
              "dim7",
              "dim",
              "minMaj7(9)",
              "minMaj7",
              "min7(11)",
              "min7(9)",
              "min(9)",
              "m7b5",
              "min7",
              "min6",
              "min",
              "aug",
              "Maj6(9)",
              "Maj7(9)",
              "Maj(9)",
              "Maj7#11",
              "Maj7",
              "Maj6",
              "Maj"
            ],
            "autoStart": true,
            "sourceChordNote": 0,
            "sourceChordType": "Maj",
            "ctb2Low": null,
            "ctb2Main": {
              "ntr": "ROOT_FIXED",
              "ntt": "BYPASS",
              "bassOn": false,
              "chordRootUpperLimit": 0,
              "noteLowLimit": 0,
              "noteHighLimit": 127,
              "rtr": "RETRIGGER"
            },
            "ctb2High": null
          },
          "notes": []
        },
        "8": {
          "ctab": {
            "srcChannel": 8,
            "name": "Perc",
            "accType": "SUBRHYTHM",
            "editable": false,
            "mutedNotes": [],
            "mutedChords": [],
            "autoStart": true,
            "sourceChordNote": 0,
            "sourceChordType": "Maj7",
            "ctb2Low": null,
            "ctb2Main": {
              "ntr": "ROOT_FIXED",
              "ntt": "BYPASS",
              "bassOn": false,
              "chordRootUpperLimit": 6,
              "noteLowLimit": 0,
              "noteHighLimit": 127,
              "rtr": "PITCH_SHIFT"
            },
            "ctb2High": null
          },
          "notes": []
        },
        "9": {
          "ctab": {
            "srcChannel": 9,
            "name": "Drums",
            "accType": "RHYTHM",
            "editable": false,
            "mutedNotes": [],
            "mutedChords": [],
            "autoStart": true,
            "sourceChordNote": 0,
            "sourceChordType": "Maj7",
            "ctb2Low": null,
            "ctb2Main": {
              "ntr": "ROOT_FIXED",
              "ntt": "BYPASS",
              "bassOn": false,
              "chordRootUpperLimit": 6,
              "noteLowLimit": 0,
              "noteHighLimit": 127,
              "rtr": "PITCH_SHIFT"
            },
            "ctb2High": null
          },
          "notes": [
            {
              "pitch": 33,
              "velocity": 88,
              "position": 0,
              "duration": 0.010416666666666666
            },
            {
              "pitch": 44,
              "velocity": 59,
              "position": 0,
              "duration": 0.010416666666666666
            },
            {
              "pitch": 44,
              "velocity": 59,
              "position": 0.28125,
              "duration": 0.010416666666666666
            },
            {
              "pitch": 42,
              "velocity": 88,
              "position": 0.5,
              "duration": 0.010416666666666666
            },
            {
              "pitch": 25,
              "velocity": 110,
              "position": 1,
              "duration": 0.010416666666666666
            },
            {
              "pitch": 33,
              "velocity": 88,
              "position": 1,
              "duration": 0.010416666666666666
            },
            {
              "pitch": 39,
              "velocity": 91,
              "position": 1,
              "duration": 0.010416666666666666
            },
            {
              "pitch": 44,
              "velocity": 64,
              "position": 1,
              "duration": 0.010416666666666666
            },
            {
              "pitch": 46,
              "velocity": 76,
              "position": 1.5,
              "duration": 0.010416666666666666
            },
            {
              "pitch": 42,
              "velocity": 88,
              "position": 1.7604166666666667,
              "duration": 0.010416666666666666
            },
            {
              "pitch": 25,
              "velocity": 110,
              "position": 1.78125,
              "duration": 0.010416666666666666
            },
            {
              "pitch": 25,
              "velocity": 110,
              "position": 2,
              "duration": 0.010416666666666666
            },
            {
              "pitch": 44,
              "velocity": 64,
              "position": 2,
              "duration": 0.010416666666666666
            },
            {
              "pitch": 33,
              "velocity": 88,
              "position": 2.5,
              "duration": 0.010416666666666666
            },
            {
              "pitch": 42,
              "velocity": 88,
              "position": 2.5,
              "duration": 0.010416666666666666
            },
            {
              "pitch": 39,
              "velocity": 54,
              "position": 2.75,
              "duration": 0.010416666666666666
            },
            {
              "pitch": 28,
              "velocity": 90,
              "position": 2,
              "duration": 0.9895833333333334
            },
            {
              "pitch": 25,
              "velocity": 110,
              "position": 3,
              "duration": 0.010416666666666666
            },
            {
              "pitch": 39,
              "velocity": 91,
              "position": 3,
              "duration": 0.010416666666666666
            },
            {
              "pitch": 44,
              "velocity": 64,
              "position": 3,
              "duration": 0.010416666666666666
            },
            {
              "pitch": 33,
              "velocity": 88,
              "position": 3.5,
              "duration": 0.010416666666666666
            },
            {
              "pitch": 42,
              "velocity": 88,
              "position": 3.5,
              "duration": 0.010416666666666666
            },
            {
              "pitch": 44,
              "velocity": 59,
              "position": 3.7604166666666665,
              "duration": 0.010416666666666666
            }
          ]
        },
        "10": {
          "ctab": {
            "srcChannel": 10,
            "name": "Bass",
            "accType": "BASS",
            "editable": false,
            "mutedNotes": [],
            "mutedChords": [],
            "autoStart": false,
            "sourceChordNote": 0,
            "sourceChordType": "Maj7",
            "ctb2Low": null,
            "ctb2Main": {
              "ntr": "ROOT_TRANSPOSITION",
              "ntt": "MELODY",
              "bassOn": true,
              "chordRootUpperLimit": 5,
              "noteLowLimit": 28,
              "noteHighLimit": 127,
              "rtr": "PITCH_SHIFT_TO_ROOT"
            },
            "ctb2High": null
          },
          "notes": [
            {
              "pitch": 24,
              "velocity": 100,
              "position": 0,
              "duration": 0.4895833333333333
            },
            {
              "pitch": 24,
              "velocity": 100,
              "position": 1,
              "duration": 0.4895833333333333
            },
            {
              "pitch": 24,
              "velocity": 100,
              "position": 2,
              "duration": 0.4895833333333333
            },
            {
              "pitch": 24,
              "velocity": 100,
              "position": 3,
              "duration": 0.4895833333333333
            }
          ]
        },
        "11": {
          "ctab": {
            "srcChannel": 11,
            "name": "Gt",
            "accType": "CHORD1",
            "editable": false,
            "mutedNotes": [],
            "mutedChords": [],
            "autoStart": false,
            "sourceChordNote": 0,
            "sourceChordType": "Maj7",
            "ctb2Low": null,
            "ctb2Main": {
              "ntr": "ROOT_FIXED",
              "ntt": "CHORD",
              "bassOn": false,
              "chordRootUpperLimit": 7,
              "noteLowLimit": 0,
              "noteHighLimit": 127,
              "rtr": "PITCH_SHIFT"
            },
            "ctb2High": null
          },
          "notes": [
            {
              "pitch": 55,
              "velocity": 114,
              "position": 0.5,
              "duration": 0.23958333333333334
            },
            {
              "pitch": 59,
              "velocity": 114,
              "position": 0.5,
              "duration": 0.23958333333333334
            },
            {
              "pitch": 64,
              "velocity": 114,
              "position": 0.5,
              "duration": 0.23958333333333334
            },
            {
              "pitch": 55,
              "velocity": 73,
              "position": 0.75,
              "duration": 0.041666666666666664
            },
            {
              "pitch": 59,
              "velocity": 73,
              "position": 0.75,
              "duration": 0.041666666666666664
            },
            {
              "pitch": 64,
              "velocity": 73,
              "position": 0.75,
              "duration": 0.041666666666666664
            },
            {
              "pitch": 55,
              "velocity": 114,
              "position": 1,
              "duration": 0.23958333333333334
            },
            {
              "pitch": 59,
              "velocity": 114,
              "position": 1,
              "duration": 0.23958333333333334
            },
            {
              "pitch": 64,
              "velocity": 114,
              "position": 1,
              "duration": 0.23958333333333334
            },
            {
              "pitch": 55,
              "velocity": 100,
              "position": 1.25,
              "duration": 0.041666666666666664
            },
            {
              "pitch": 59,
              "velocity": 100,
              "position": 1.25,
              "duration": 0.041666666666666664
            },
            {
              "pitch": 64,
              "velocity": 100,
              "position": 1.25,
              "duration": 0.041666666666666664
            },
            {
              "pitch": 55,
              "velocity": 73,
              "position": 1.5,
              "duration": 0.041666666666666664
            },
            {
              "pitch": 59,
              "velocity": 73,
              "position": 1.5,
              "duration": 0.041666666666666664
            },
            {
              "pitch": 64,
              "velocity": 73,
              "position": 1.5,
              "duration": 0.041666666666666664
            },
            {
              "pitch": 55,
              "velocity": 114,
              "position": 1.7604166666666667,
              "duration": 0.4791666666666667
            },
            {
              "pitch": 59,
              "velocity": 114,
              "position": 1.7604166666666667,
              "duration": 0.4791666666666667
            },
            {
              "pitch": 64,
              "velocity": 114,
              "position": 1.7604166666666667,
              "duration": 0.4791666666666667
            },
            {
              "pitch": 55,
              "velocity": 73,
              "position": 2.25,
              "duration": 0.23958333333333334
            },
            {
              "pitch": 59,
              "velocity": 73,
              "position": 2.25,
              "duration": 0.23958333333333334
            },
            {
              "pitch": 64,
              "velocity": 73,
              "position": 2.25,
              "duration": 0.23958333333333334
            },
            {
              "pitch": 55,
              "velocity": 114,
              "position": 2.5,
              "duration": 0.23958333333333334
            },
            {
              "pitch": 59,
              "velocity": 114,
              "position": 2.5,
              "duration": 0.23958333333333334
            },
            {
              "pitch": 64,
              "velocity": 114,
              "position": 2.5,
              "duration": 0.23958333333333334
            }
          ]
        },
        "12": {
          "ctab": {
            "srcChannel": 12,
            "name": "Pno",
            "accType": "CHORD2",
            "editable": false,
            "mutedNotes": [],
            "mutedChords": [],
            "autoStart": false,
            "sourceChordNote": 0,
            "sourceChordType": "Maj7",
            "ctb2Low": null,
            "ctb2Main": {
              "ntr": "ROOT_FIXED",
              "ntt": "CHORD",
              "bassOn": false,
              "chordRootUpperLimit": 7,
              "noteLowLimit": 0,
              "noteHighLimit": 127,
              "rtr": "PITCH_SHIFT"
            },
            "ctb2High": null
          },
          "notes": [
            {
              "pitch": 55,
              "velocity": 78,
              "position": 0.5104166666666666,
              "duration": 0.23958333333333334
            },
            {
              "pitch": 59,
              "velocity": 78,
              "position": 0.5104166666666666,
              "duration": 0.23958333333333334
            },
            {
              "pitch": 64,
              "velocity": 78,
              "position": 0.5104166666666666,
              "duration": 0.23958333333333334
            },
            {
              "pitch": 55,
              "velocity": 78,
              "position": 3,
              "duration": 0.11458333333333333
            },
            {
              "pitch": 59,
              "velocity": 78,
              "position": 3,
              "duration": 0.11458333333333333
            },
            {
              "pitch": 64,
              "velocity": 78,
              "position": 3,
              "duration": 0.11458333333333333
            },
            {
              "pitch": 55,
              "velocity": 78,
              "position": 3.5,
              "duration": 0.4895833333333333
            },
            {
              "pitch": 59,
              "velocity": 78,
              "position": 3.5,
              "duration": 0.4895833333333333
            },
            {
              "pitch": 64,
              "velocity": 78,
              "position": 3.5,
              "duration": 0.4895833333333333
            }
          ]
        },
        "13": {
          "ctab": {
            "srcChannel": 13,
            "name": "Str",
            "accType": "PAD",
            "editable": false,
            "mutedNotes": [],
            "mutedChords": [],
            "autoStart": false,
            "sourceChordNote": 0,
            "sourceChordType": "Maj7",
            "ctb2Low": null,
            "ctb2Main": {
              "ntr": "ROOT_FIXED",
              "ntt": "CHORD",
              "bassOn": false,
              "chordRootUpperLimit": 7,
              "noteLowLimit": 0,
              "noteHighLimit": 127,
              "rtr": "PITCH_SHIFT"
            },
            "ctb2High": null
          },
          "notes": [
            {
              "pitch": 55,
              "velocity": 50,
              "position": 0,
              "duration": 3.9895833333333335
            },
            {
              "pitch": 59,
              "velocity": 50,
              "position": 0,
              "duration": 3.9895833333333335
            },
            {
              "pitch": 64,
              "velocity": 50,
              "position": 0,
              "duration": 3.9895833333333335
            }
          ]
        },
        "15": {
          "ctab": {
            "srcChannel": 15,
            "name": "MtGt",
            "accType": "PHRASE2",
            "editable": false,
            "mutedNotes": [],
            "mutedChords": [],
            "autoStart": false,
            "sourceChordNote": 0,
            "sourceChordType": "Maj7",
            "ctb2Low": null,
            "ctb2Main": {
              "ntr": "ROOT_TRANSPOSITION",
              "ntt": "MELODY",
              "bassOn": false,
              "chordRootUpperLimit": 6,
              "noteLowLimit": 0,
              "noteHighLimit": 127,
              "rtr": "PITCH_SHIFT"
            },
            "ctb2High": null
          },
          "notes": [
            {
              "pitch": 55,
              "velocity": 68,
              "position": 1.28125,
              "duration": 0.20833333333333334
            },
            {
              "pitch": 57,
              "velocity": 45,
              "position": 1.5,
              "duration": 0.2708333333333333
            },
            {
              "pitch": 55,
              "velocity": 26,
              "position": 1.78125,
              "duration": 0.20833333333333334
            },
            {
              "pitch": 60,
              "velocity": 70,
              "position": 2,
              "duration": 0.2708333333333333
            },
            {
              "pitch": 60,
              "velocity": 41,
              "position": 2.28125,
              "duration": 0.14583333333333334
            }
          ]
        }
      }
    },
    "Fill_In_BB": {
      "type": "Fill_In_BB",
      "sizeInBeats": 4,
      "channels": {
        "2": {
          "ctab": {
            "srcChannel": 2,
            "name": "Gt Root",
            "accType": "CHORD1",
            "editable": false,
            "mutedNotes": [],
            "mutedChords": [
              "1+2+5",
              "sus4",
              "1+5",
              "1+8",
              "Maj7aug",
              "dim",
              "minMaj7(9)",
              "minMaj7",
              "min6",
              "min",
              "aug",
              "Maj7(9)",
              "Maj7#11",
              "Maj7",
              "Maj6",
              "Maj"
            ],
            "autoStart": false,
            "sourceChordNote": 0,
            "sourceChordType": "Maj7",
            "ctb2Low": null,
            "ctb2Main": {
              "ntr": "ROOT_TRANSPOSITION",
              "ntt": "CHORD",
              "bassOn": false,
              "chordRootUpperLimit": 6,
              "noteLowLimit": 0,
              "noteHighLimit": 127,
              "rtr": "PITCH_SHIFT"
            },
            "ctb2High": null
          },
          "notes": [
            {
              "pitch": 60,
              "velocity": 116,
              "position": 0,
              "duration": 0.23958333333333334
            },
            {
              "pitch": 60,
              "velocity": 74,
              "position": 0.25,
              "duration": 0.041666666666666664
            },
            {
              "pitch": 60,
              "velocity": 116,
              "position": 0.5,
              "duration": 0.23958333333333334
            },
            {
              "pitch": 60,
              "velocity": 101,
              "position": 0.75,
              "duration": 0.041666666666666664
            },
            {
              "pitch": 60,
              "velocity": 74,
              "position": 1,
              "duration": 0.041666666666666664
            },
            {
              "pitch": 60,
              "velocity": 116,
              "position": 1.2604166666666667,
              "duration": 0.4791666666666667
            },
            {
              "pitch": 60,
              "velocity": 74,
              "position": 1.75,
              "duration": 0.23958333333333334
            },
            {
              "pitch": 60,
              "velocity": 116,
              "position": 2,
              "duration": 0.23958333333333334
            },
            {
              "pitch": 60,
              "velocity": 116,
              "position": 2.5104166666666665,
              "duration": 0.4791666666666667
            },
            {
              "pitch": 60,
              "velocity": 101,
              "position": 3,
              "duration": 0.041666666666666664
            },
            {
              "pitch": 60,
              "velocity": 74,
              "position": 3.25,
              "duration": 0.041666666666666664
            }
          ]
        },
        "4": {
          "ctab": {
            "srcChannel": 4,
            "name": "Str Root",
            "accType": "PAD",
            "editable": false,
            "mutedNotes": [],
            "mutedChords": [
              "1+2+5",
              "sus4",
              "1+5",
              "1+8",
              "Maj7aug",
              "dim",
              "minMaj7(9)",
              "minMaj7",
              "min6",
              "min",
              "aug",
              "Maj7(9)",
              "Maj7#11",
              "Maj7",
              "Maj6",
              "Maj"
            ],
            "autoStart": false,
            "sourceChordNote": 0,
            "sourceChordType": "Maj7",
            "ctb2Low": null,
            "ctb2Main": {
              "ntr": "ROOT_TRANSPOSITION",
              "ntt": "CHORD",
              "bassOn": false,
              "chordRootUpperLimit": 6,
              "noteLowLimit": 0,
              "noteHighLimit": 127,
              "rtr": "PITCH_SHIFT"
            },
            "ctb2High": null
          },
          "notes": [
            {
              "pitch": 60,
              "velocity": 50,
              "position": 0,
              "duration": 3.9895833333333335
            }
          ]
        },
        "7": {
          "ctab": {
            "srcChannel": 7,
            "name": "CC_Crash",
            "accType": "RHYTHM",
            "editable": false,
            "mutedNotes": [],
            "mutedChords": [
              "1+2+5",
              "sus4",
              "1+5",
              "1+8",
              "7aug",
              "Maj7aug",
              "7(#9)",
              "7(b13)",
              "7(b9)",
              "7(13)",
              "7#11",
              "7(9)",
              "7b5",
              "7sus4",
              "7th",
              "dim7",
              "dim",
              "minMaj7(9)",
              "minMaj7",
              "min7(11)",
              "min7(9)",
              "min(9)",
              "m7b5",
              "min7",
              "min6",
              "min",
              "aug",
              "Maj6(9)",
              "Maj7(9)",
              "Maj(9)",
              "Maj7#11",
              "Maj7",
              "Maj6",
              "Maj"
            ],
            "autoStart": true,
            "sourceChordNote": 0,
            "sourceChordType": "Maj",
            "ctb2Low": null,
            "ctb2Main": {
              "ntr": "ROOT_FIXED",
              "ntt": "BYPASS",
              "bassOn": false,
              "chordRootUpperLimit": 0,
              "noteLowLimit": 0,
              "noteHighLimit": 127,
              "rtr": "RETRIGGER"
            },
            "ctb2High": null
          },
          "notes": []
        },
        "8": {
          "ctab": {
            "srcChannel": 8,
            "name": "Perc",
            "accType": "SUBRHYTHM",
            "editable": false,
            "mutedNotes": [],
            "mutedChords": [],
            "autoStart": true,
            "sourceChordNote": 0,
            "sourceChordType": "Maj7",
            "ctb2Low": null,
            "ctb2Main": {
              "ntr": "ROOT_FIXED",
              "ntt": "BYPASS",
              "bassOn": false,
              "chordRootUpperLimit": 6,
              "noteLowLimit": 0,
              "noteHighLimit": 127,
              "rtr": "PITCH_SHIFT"
            },
            "ctb2High": null
          },
          "notes": [
            {
              "pitch": 54,
              "velocity": 30,
              "position": 0,
              "duration": 0.010416666666666666
            },
            {
              "pitch": 60,
              "velocity": 92,
              "position": 0,
              "duration": 0.03125
            },
            {
              "pitch": 64,
              "velocity": 97,
              "position": 0,
              "duration": 0.03125
            },
            {
              "pitch": 54,
              "velocity": 30,
              "position": 0.28125,
              "duration": 0.010416666666666666
            },
            {
              "pitch": 60,
              "velocity": 32,
              "position": 0.28125,
              "duration": 0.041666666666666664
            },
            {
              "pitch": 64,
              "velocity": 94,
              "position": 0.28125,
              "duration": 0.041666666666666664
            },
            {
              "pitch": 61,
              "velocity": 92,
              "position": 0.5,
              "duration": 0.03125
            },
            {
              "pitch": 62,
              "velocity": 100,
              "position": 0.5,
              "duration": 0.03125
            },
            {
              "pitch": 54,
              "velocity": 30,
              "position": 0.78125,
              "duration": 0.010416666666666666
            },
            {
              "pitch": 63,
              "velocity": 88,
              "position": 0.78125,
              "duration": 0.041666666666666664
            },
            {
              "pitch": 54,
              "velocity": 30,
              "position": 1,
              "duration": 0.010416666666666666
            },
            {
              "pitch": 61,
              "velocity": 121,
              "position": 1,
              "duration": 0.03125
            },
            {
              "pitch": 54,
              "velocity": 30,
              "position": 1.28125,
              "duration": 0.010416666666666666
            },
            {
              "pitch": 63,
              "velocity": 96,
              "position": 1.28125,
              "duration": 0.041666666666666664
            },
            {
              "pitch": 54,
              "velocity": 30,
              "position": 1.78125,
              "duration": 0.010416666666666666
            },
            {
              "pitch": 61,
              "velocity": 106,
              "position": 1.78125,
              "duration": 0.041666666666666664
            },
            {
              "pitch": 63,
              "velocity": 99,
              "position": 1.78125,
              "duration": 0.041666666666666664
            },
            {
              "pitch": 54,
              "velocity": 30,
              "position": 2,
              "duration": 0.010416666666666666
            },
            {
              "pitch": 54,
              "velocity": 30,
              "position": 2.28125,
              "duration": 0.010416666666666666
            },
            {
              "pitch": 54,
              "velocity": 30,
              "position": 2.78125,
              "duration": 0.010416666666666666
            },
            {
              "pitch": 54,
              "velocity": 30,
              "position": 3,
              "duration": 0.010416666666666666
            },
            {
              "pitch": 54,
              "velocity": 30,
              "position": 3.28125,
              "duration": 0.010416666666666666
            },
            {
              "pitch": 54,
              "velocity": 30,
              "position": 3.78125,
              "duration": 0.010416666666666666
            }
          ]
        },
        "9": {
          "ctab": {
            "srcChannel": 9,
            "name": "Drums",
            "accType": "RHYTHM",
            "editable": false,
            "mutedNotes": [],
            "mutedChords": [],
            "autoStart": true,
            "sourceChordNote": 0,
            "sourceChordType": "Maj7",
            "ctb2Low": null,
            "ctb2Main": {
              "ntr": "ROOT_FIXED",
              "ntt": "BYPASS",
              "bassOn": false,
              "chordRootUpperLimit": 6,
              "noteLowLimit": 0,
              "noteHighLimit": 127,
              "rtr": "PITCH_SHIFT"
            },
            "ctb2High": null
          },
          "notes": [
            {
              "pitch": 33,
              "velocity": 88,
              "position": 0,
              "duration": 0.010416666666666666
            },
            {
              "pitch": 42,
              "velocity": 41,
              "position": 0,
              "duration": 0.010416666666666666
            },
            {
              "pitch": 42,
              "velocity": 41,
              "position": 0.2604166666666667,
              "duration": 0.010416666666666666
            },
            {
              "pitch": 46,
              "velocity": 76,
              "position": 0.5,
              "duration": 0.010416666666666666
            },
            {
              "pitch": 33,
              "velocity": 88,
              "position": 1,
              "duration": 0.010416666666666666
            },
            {
              "pitch": 42,
              "velocity": 71,
              "position": 1,
              "duration": 0.010416666666666666
            },
            {
              "pitch": 42,
              "velocity": 71,
              "position": 1.2604166666666667,
              "duration": 0.010416666666666666
            },
            {
              "pitch": 46,
              "velocity": 76,
              "position": 1.5,
              "duration": 0.010416666666666666
            },
            {
              "pitch": 33,
              "velocity": 88,
              "position": 2,
              "duration": 0.010416666666666666
            },
            {
              "pitch": 42,
              "velocity": 71,
              "position": 2,
              "duration": 0.010416666666666666
            },
            {
              "pitch": 42,
              "velocity": 71,
              "position": 2.2604166666666665,
              "duration": 0.010416666666666666
            },
            {
              "pitch": 33,
              "velocity": 88,
              "position": 2.5,
              "duration": 0.010416666666666666
            },
            {
              "pitch": 46,
              "velocity": 46,
              "position": 2.5,
              "duration": 0.010416666666666666
            },
            {
              "pitch": 28,
              "velocity": 107,
              "position": 2,
              "duration": 0.9895833333333334
            },
            {
              "pitch": 25,
              "velocity": 110,
              "position": 3,
              "duration": 0.010416666666666666
            },
            {
              "pitch": 33,
              "velocity": 88,
              "position": 3,
              "duration": 0.010416666666666666
            },
            {
              "pitch": 39,
              "velocity": 91,
              "position": 3,
              "duration": 0.010416666666666666
            },
            {
              "pitch": 42,
              "velocity": 71,
              "position": 3,
              "duration": 0.010416666666666666
            },
            {
              "pitch": 42,
              "velocity": 71,
              "position": 3.2604166666666665,
              "duration": 0.010416666666666666
            },
            {
              "pitch": 25,
              "velocity": 114,
              "position": 3.5,
              "duration": 0.010416666666666666
            },
            {
              "pitch": 46,
              "velocity": 76,
              "position": 3.5,
              "duration": 0.010416666666666666
            },
            {
              "pitch": 46,
              "velocity": 76,
              "position": 3.7604166666666665,
              "duration": 0.010416666666666666
            },
            {
              "pitch": 25,
              "velocity": 114,
              "position": 3.78125,
              "duration": 0.010416666666666666
            }
          ]
        },
        "10": {
          "ctab": {
            "srcChannel": 10,
            "name": "Bass",
            "accType": "BASS",
            "editable": false,
            "mutedNotes": [],
            "mutedChords": [],
            "autoStart": false,
            "sourceChordNote": 0,
            "sourceChordType": "Maj7",
            "ctb2Low": null,
            "ctb2Main": {
              "ntr": "ROOT_TRANSPOSITION",
              "ntt": "MELODY",
              "bassOn": true,
              "chordRootUpperLimit": 5,
              "noteLowLimit": 28,
              "noteHighLimit": 127,
              "rtr": "PITCH_SHIFT_TO_ROOT"
            },
            "ctb2High": null
          },
          "notes": [
            {
              "pitch": 24,
              "velocity": 100,
              "position": 0,
              "duration": 0.4895833333333333
            },
            {
              "pitch": 24,
              "velocity": 100,
              "position": 1,
              "duration": 0.4895833333333333
            },
            {
              "pitch": 24,
              "velocity": 100,
              "position": 2,
              "duration": 0.4895833333333333
            },
            {
              "pitch": 24,
              "velocity": 100,
              "position": 3,
              "duration": 0.4895833333333333
            },
            {
              "pitch": 24,
              "velocity": 39,
              "position": 3.7604166666666665,
              "duration": 0.22916666666666666
            }
          ]
        },
        "11": {
          "ctab": {
            "srcChannel": 11,
            "name": "Gt",
            "accType": "CHORD1",
            "editable": false,
            "mutedNotes": [],
            "mutedChords": [],
            "autoStart": false,
            "sourceChordNote": 0,
            "sourceChordType": "Maj7",
            "ctb2Low": null,
            "ctb2Main": {
              "ntr": "ROOT_FIXED",
              "ntt": "CHORD",
              "bassOn": false,
              "chordRootUpperLimit": 7,
              "noteLowLimit": 0,
              "noteHighLimit": 127,
              "rtr": "PITCH_SHIFT"
            },
            "ctb2High": null
          },
          "notes": [
            {
              "pitch": 55,
              "velocity": 118,
              "position": 0,
              "duration": 0.23958333333333334
            },
            {
              "pitch": 59,
              "velocity": 118,
              "position": 0,
              "duration": 0.23958333333333334
            },
            {
              "pitch": 64,
              "velocity": 118,
              "position": 0,
              "duration": 0.23958333333333334
            },
            {
              "pitch": 55,
              "velocity": 76,
              "position": 0.25,
              "duration": 0.041666666666666664
            },
            {
              "pitch": 59,
              "velocity": 76,
              "position": 0.25,
              "duration": 0.041666666666666664
            },
            {
              "pitch": 64,
              "velocity": 76,
              "position": 0.25,
              "duration": 0.041666666666666664
            },
            {
              "pitch": 55,
              "velocity": 118,
              "position": 0.5,
              "duration": 0.23958333333333334
            },
            {
              "pitch": 59,
              "velocity": 118,
              "position": 0.5,
              "duration": 0.23958333333333334
            },
            {
              "pitch": 64,
              "velocity": 118,
              "position": 0.5,
              "duration": 0.23958333333333334
            },
            {
              "pitch": 55,
              "velocity": 103,
              "position": 0.75,
              "duration": 0.041666666666666664
            },
            {
              "pitch": 59,
              "velocity": 103,
              "position": 0.75,
              "duration": 0.041666666666666664
            },
            {
              "pitch": 64,
              "velocity": 103,
              "position": 0.75,
              "duration": 0.041666666666666664
            },
            {
              "pitch": 55,
              "velocity": 76,
              "position": 1,
              "duration": 0.041666666666666664
            },
            {
              "pitch": 59,
              "velocity": 76,
              "position": 1,
              "duration": 0.041666666666666664
            },
            {
              "pitch": 64,
              "velocity": 76,
              "position": 1,
              "duration": 0.041666666666666664
            },
            {
              "pitch": 55,
              "velocity": 118,
              "position": 1.2604166666666667,
              "duration": 0.4791666666666667
            },
            {
              "pitch": 59,
              "velocity": 118,
              "position": 1.2604166666666667,
              "duration": 0.4791666666666667
            },
            {
              "pitch": 64,
              "velocity": 118,
              "position": 1.2604166666666667,
              "duration": 0.4791666666666667
            },
            {
              "pitch": 55,
              "velocity": 76,
              "position": 1.75,
              "duration": 0.23958333333333334
            },
            {
              "pitch": 59,
              "velocity": 76,
              "position": 1.75,
              "duration": 0.23958333333333334
            },
            {
              "pitch": 64,
              "velocity": 76,
              "position": 1.75,
              "duration": 0.23958333333333334
            },
            {
              "pitch": 55,
              "velocity": 118,
              "position": 2,
              "duration": 0.23958333333333334
            },
            {
              "pitch": 59,
              "velocity": 118,
              "position": 2,
              "duration": 0.23958333333333334
            },
            {
              "pitch": 64,
              "velocity": 118,
              "position": 2,
              "duration": 0.23958333333333334
            },
            {
              "pitch": 55,
              "velocity": 118,
              "position": 2.5104166666666665,
              "duration": 0.4791666666666667
            },
            {
              "pitch": 59,
              "velocity": 118,
              "position": 2.5104166666666665,
              "duration": 0.4791666666666667
            },
            {
              "pitch": 64,
              "velocity": 118,
              "position": 2.5104166666666665,
              "duration": 0.4791666666666667
            },
            {
              "pitch": 55,
              "velocity": 103,
              "position": 3,
              "duration": 0.041666666666666664
            },
            {
              "pitch": 59,
              "velocity": 103,
              "position": 3,
              "duration": 0.041666666666666664
            },
            {
              "pitch": 64,
              "velocity": 103,
              "position": 3,
              "duration": 0.041666666666666664
            },
            {
              "pitch": 55,
              "velocity": 76,
              "position": 3.25,
              "duration": 0.041666666666666664
            },
            {
              "pitch": 59,
              "velocity": 76,
              "position": 3.25,
              "duration": 0.041666666666666664
            },
            {
              "pitch": 64,
              "velocity": 76,
              "position": 3.25,
              "duration": 0.041666666666666664
            }
          ]
        },
        "12": {
          "ctab": {
            "srcChannel": 12,
            "name": "Pno",
            "accType": "CHORD2",
            "editable": false,
            "mutedNotes": [],
            "mutedChords": [],
            "autoStart": false,
            "sourceChordNote": 0,
            "sourceChordType": "Maj7",
            "ctb2Low": null,
            "ctb2Main": {
              "ntr": "ROOT_FIXED",
              "ntt": "CHORD",
              "bassOn": false,
              "chordRootUpperLimit": 7,
              "noteLowLimit": 0,
              "noteHighLimit": 127,
              "rtr": "PITCH_SHIFT"
            },
            "ctb2High": null
          },
          "notes": [
            {
              "pitch": 55,
              "velocity": 81,
              "position": 0.5,
              "duration": 0.23958333333333334
            },
            {
              "pitch": 59,
              "velocity": 81,
              "position": 0.5,
              "duration": 0.23958333333333334
            },
            {
              "pitch": 64,
              "velocity": 81,
              "position": 0.5,
              "duration": 0.23958333333333334
            },
            {
              "pitch": 55,
              "velocity": 81,
              "position": 1.75,
              "duration": 0.23958333333333334
            },
            {
              "pitch": 59,
              "velocity": 81,
              "position": 1.75,
              "duration": 0.23958333333333334
            },
            {
              "pitch": 64,
              "velocity": 81,
              "position": 1.75,
              "duration": 0.23958333333333334
            },
            {
              "pitch": 55,
              "velocity": 81,
              "position": 3,
              "duration": 0.11458333333333333
            },
            {
              "pitch": 59,
              "velocity": 81,
              "position": 3,
              "duration": 0.11458333333333333
            },
            {
              "pitch": 64,
              "velocity": 81,
              "position": 3,
              "duration": 0.11458333333333333
            },
            {
              "pitch": 59,
              "velocity": 81,
              "position": 3.5,
              "duration": 0.4166666666666667
            },
            {
              "pitch": 64,
              "velocity": 81,
              "position": 3.5,
              "duration": 0.4166666666666667
            },
            {
              "pitch": 55,
              "velocity": 81,
              "position": 3.5,
              "duration": 0.4375
            }
          ]
        },
        "13": {
          "ctab": {
            "srcChannel": 13,
            "name": "Str",
            "accType": "PAD",
            "editable": false,
            "mutedNotes": [],
            "mutedChords": [],
            "autoStart": false,
            "sourceChordNote": 0,
            "sourceChordType": "Maj7",
            "ctb2Low": null,
            "ctb2Main": {
              "ntr": "ROOT_FIXED",
              "ntt": "CHORD",
              "bassOn": false,
              "chordRootUpperLimit": 7,
              "noteLowLimit": 0,
              "noteHighLimit": 127,
              "rtr": "PITCH_SHIFT"
            },
            "ctb2High": null
          },
          "notes": [
            {
              "pitch": 55,
              "velocity": 53,
              "position": 0,
              "duration": 3.9895833333333335
            },
            {
              "pitch": 59,
              "velocity": 53,
              "position": 0,
              "duration": 3.9895833333333335
            },
            {
              "pitch": 64,
              "velocity": 53,
              "position": 0,
              "duration": 3.9895833333333335
            }
          ]
        },
        "15": {
          "ctab": {
            "srcChannel": 15,
            "name": "MtGt",
            "accType": "PHRASE2",
            "editable": false,
            "mutedNotes": [],
            "mutedChords": [],
            "autoStart": false,
            "sourceChordNote": 0,
            "sourceChordType": "Maj7",
            "ctb2Low": null,
            "ctb2Main": {
              "ntr": "ROOT_TRANSPOSITION",
              "ntt": "MELODY",
              "bassOn": false,
              "chordRootUpperLimit": 6,
              "noteLowLimit": 0,
              "noteHighLimit": 127,
              "rtr": "PITCH_SHIFT"
            },
            "ctb2High": null
          },
          "notes": [
            {
              "pitch": 55,
              "velocity": 68,
              "position": 1.28125,
              "duration": 0.0625
            },
            {
              "pitch": 57,
              "velocity": 45,
              "position": 1.5,
              "duration": 0.28125
            },
            {
              "pitch": 55,
              "velocity": 67,
              "position": 1.78125,
              "duration": 0.0625
            },
            {
              "pitch": 60,
              "velocity": 70,
              "position": 2,
              "duration": 0.10416666666666667
            },
            {
              "pitch": 60,
              "velocity": 42,
              "position": 2.28125,
              "duration": 0.14583333333333334
            },
            {
              "pitch": 60,
              "velocity": 67,
              "position": 2.5,
              "duration": 0.17708333333333334
            },
            {
              "pitch": 57,
              "velocity": 67,
              "position": 2.78125,
              "duration": 0.11458333333333333
            }
          ]
        }
      }
    },
    "Fill_In_CC": {
      "type": "Fill_In_CC",
      "sizeInBeats": 4,
      "channels": {
        "2": {
          "ctab": {
            "srcChannel": 2,
            "name": "Gt Root",
            "accType": "CHORD1",
            "editable": false,
            "mutedNotes": [],
            "mutedChords": [
              "1+2+5",
              "sus4",
              "1+5",
              "1+8",
              "Maj7aug",
              "dim",
              "minMaj7(9)",
              "minMaj7",
              "min6",
              "min",
              "aug",
              "Maj7(9)",
              "Maj7#11",
              "Maj7",
              "Maj6",
              "Maj"
            ],
            "autoStart": false,
            "sourceChordNote": 0,
            "sourceChordType": "Maj7",
            "ctb2Low": null,
            "ctb2Main": {
              "ntr": "ROOT_TRANSPOSITION",
              "ntt": "CHORD",
              "bassOn": false,
              "chordRootUpperLimit": 6,
              "noteLowLimit": 0,
              "noteHighLimit": 127,
              "rtr": "PITCH_SHIFT"
            },
            "ctb2High": null
          },
          "notes": [
            {
              "pitch": 60,
              "velocity": 116,
              "position": 0,
              "duration": 0.23958333333333334
            },
            {
              "pitch": 60,
              "velocity": 74,
              "position": 0.2604166666666667,
              "duration": 0.041666666666666664
            },
            {
              "pitch": 60,
              "velocity": 87,
              "position": 0.5,
              "duration": 0.052083333333333336
            },
            {
              "pitch": 60,
              "velocity": 74,
              "position": 0.75,
              "duration": 0.041666666666666664
            },
            {
              "pitch": 60,
              "velocity": 87,
              "position": 1.0104166666666667,
              "duration": 0.052083333333333336
            },
            {
              "pitch": 60,
              "velocity": 74,
              "position": 1.25,
              "duration": 0.041666666666666664
            },
            {
              "pitch": 60,
              "velocity": 87,
              "position": 1.5,
              "duration": 0.052083333333333336
            },
            {
              "pitch": 60,
              "velocity": 116,
              "position": 1.7604166666666667,
              "duration": 0.23958333333333334
            },
            {
              "pitch": 60,
              "velocity": 74,
              "position": 2.0104166666666665,
              "duration": 0.23958333333333334
            },
            {
              "pitch": 60,
              "velocity": 74,
              "position": 2.2604166666666665,
              "duration": 0.22916666666666666
            },
            {
              "pitch": 60,
              "velocity": 116,
              "position": 2.5,
              "duration": 0.23958333333333334
            },
            {
              "pitch": 60,
              "velocity": 74,
              "position": 2.7604166666666665,
              "duration": 0.041666666666666664
            },
            {
              "pitch": 60,
              "velocity": 87,
              "position": 3,
              "duration": 0.052083333333333336
            },
            {
              "pitch": 60,
              "velocity": 74,
              "position": 3.25,
              "duration": 0.041666666666666664
            },
            {
              "pitch": 60,
              "velocity": 87,
              "position": 3.5,
              "duration": 0.25
            },
            {
              "pitch": 60,
              "velocity": 74,
              "position": 3.7604166666666665,
              "duration": 0.22916666666666666
            }
          ]
        },
        "4": {
          "ctab": {
            "srcChannel": 4,
            "name": "Str Root",
            "accType": "PAD",
            "editable": false,
            "mutedNotes": [],
            "mutedChords": [
              "1+2+5",
              "sus4",
              "1+5",
              "1+8",
              "Maj7aug",
              "dim",
              "minMaj7(9)",
              "minMaj7",
              "min6",
              "min",
              "aug",
              "Maj7(9)",
              "Maj7#11",
              "Maj7",
              "Maj6",
              "Maj"
            ],
            "autoStart": false,
            "sourceChordNote": 0,
            "sourceChordType": "Maj7",
            "ctb2Low": null,
            "ctb2Main": {
              "ntr": "ROOT_TRANSPOSITION",
              "ntt": "CHORD",
              "bassOn": false,
              "chordRootUpperLimit": 6,
              "noteLowLimit": 0,
              "noteHighLimit": 127,
              "rtr": "PITCH_SHIFT"
            },
            "ctb2High": null
          },
          "notes": [
            {
              "pitch": 60,
              "velocity": 50,
              "position": 0,
              "duration": 3.9895833333333335
            }
          ]
        },
        "7": {
          "ctab": {
            "srcChannel": 7,
            "name": "CC_Crash",
            "accType": "RHYTHM",
            "editable": false,
            "mutedNotes": [],
            "mutedChords": [
              "1+2+5",
              "sus4",
              "1+5",
              "1+8",
              "7aug",
              "Maj7aug",
              "7(#9)",
              "7(b13)",
              "7(b9)",
              "7(13)",
              "7#11",
              "7(9)",
              "7b5",
              "7sus4",
              "7th",
              "dim7",
              "dim",
              "minMaj7(9)",
              "minMaj7",
              "min7(11)",
              "min7(9)",
              "min(9)",
              "m7b5",
              "min7",
              "min6",
              "min",
              "aug",
              "Maj6(9)",
              "Maj7(9)",
              "Maj(9)",
              "Maj7#11",
              "Maj7",
              "Maj6",
              "Maj"
            ],
            "autoStart": true,
            "sourceChordNote": 0,
            "sourceChordType": "Maj",
            "ctb2Low": null,
            "ctb2Main": {
              "ntr": "ROOT_FIXED",
              "ntt": "BYPASS",
              "bassOn": false,
              "chordRootUpperLimit": 0,
              "noteLowLimit": 0,
              "noteHighLimit": 127,
              "rtr": "RETRIGGER"
            },
            "ctb2High": null
          },
          "notes": []
        },
        "8": {
          "ctab": {
            "srcChannel": 8,
            "name": "Perc",
            "accType": "SUBRHYTHM",
            "editable": false,
            "mutedNotes": [],
            "mutedChords": [],
            "autoStart": true,
            "sourceChordNote": 0,
            "sourceChordType": "Maj7",
            "ctb2Low": null,
            "ctb2Main": {
              "ntr": "ROOT_FIXED",
              "ntt": "BYPASS",
              "bassOn": false,
              "chordRootUpperLimit": 6,
              "noteLowLimit": 0,
              "noteHighLimit": 127,
              "rtr": "PITCH_SHIFT"
            },
            "ctb2High": null
          },
          "notes": [
            {
              "pitch": 82,
              "velocity": 38,
              "position": 0,
              "duration": 0.0020833333333333333
            },
            {
              "pitch": 54,
              "velocity": 35,
              "position": 0,
              "duration": 0.010416666666666666
            },
            {
              "pitch": 44,
              "velocity": 69,
              "position": 0,
              "duration": 0.03125
            },
            {
              "pitch": 82,
              "velocity": 38,
              "position": 0.2604166666666667,
              "duration": 0.0020833333333333333
            },
            {
              "pitch": 54,
              "velocity": 35,
              "position": 0.28125,
              "duration": 0.010416666666666666
            },
            {
              "pitch": 44,
              "velocity": 69,
              "position": 0.28125,
              "duration": 0.041666666666666664
            },
            {
              "pitch": 54,
              "velocity": 71,
              "position": 0.5,
              "duration": 0.010416666666666666
            },
            {
              "pitch": 42,
              "velocity": 89,
              "position": 0.5,
              "duration": 0.03125
            },
            {
              "pitch": 62,
              "velocity": 127,
              "position": 0.5,
              "duration": 0.03125
            },
            {
              "pitch": 82,
              "velocity": 38,
              "position": 0.7604166666666666,
              "duration": 0.0020833333333333333
            },
            {
              "pitch": 54,
              "velocity": 35,
              "position": 0.78125,
              "duration": 0.010416666666666666
            },
            {
              "pitch": 42,
              "velocity": 69,
              "position": 0.78125,
              "duration": 0.041666666666666664
            },
            {
              "pitch": 82,
              "velocity": 38,
              "position": 1,
              "duration": 0.0020833333333333333
            },
            {
              "pitch": 54,
              "velocity": 35,
              "position": 1,
              "duration": 0.010416666666666666
            },
            {
              "pitch": 44,
              "velocity": 69,
              "position": 1,
              "duration": 0.03125
            },
            {
              "pitch": 61,
              "velocity": 105,
              "position": 1.03125,
              "duration": 0.041666666666666664
            },
            {
              "pitch": 82,
              "velocity": 38,
              "position": 1.2604166666666667,
              "duration": 0.0020833333333333333
            },
            {
              "pitch": 54,
              "velocity": 35,
              "position": 1.28125,
              "duration": 0.010416666666666666
            },
            {
              "pitch": 44,
              "velocity": 69,
              "position": 1.28125,
              "duration": 0.041666666666666664
            },
            {
              "pitch": 54,
              "velocity": 71,
              "position": 1.5,
              "duration": 0.010416666666666666
            },
            {
              "pitch": 42,
              "velocity": 89,
              "position": 1.5,
              "duration": 0.03125
            },
            {
              "pitch": 64,
              "velocity": 97,
              "position": 1.53125,
              "duration": 0.041666666666666664
            },
            {
              "pitch": 82,
              "velocity": 38,
              "position": 1.7604166666666667,
              "duration": 0.0020833333333333333
            },
            {
              "pitch": 54,
              "velocity": 35,
              "position": 1.78125,
              "duration": 0.010416666666666666
            },
            {
              "pitch": 42,
              "velocity": 69,
              "position": 1.78125,
              "duration": 0.041666666666666664
            },
            {
              "pitch": 64,
              "velocity": 97,
              "position": 1.78125,
              "duration": 0.041666666666666664
            },
            {
              "pitch": 82,
              "velocity": 38,
              "position": 2,
              "duration": 0.0020833333333333333
            },
            {
              "pitch": 54,
              "velocity": 35,
              "position": 2,
              "duration": 0.010416666666666666
            },
            {
              "pitch": 44,
              "velocity": 69,
              "position": 2,
              "duration": 0.03125
            },
            {
              "pitch": 82,
              "velocity": 38,
              "position": 2.2604166666666665,
              "duration": 0.0020833333333333333
            },
            {
              "pitch": 54,
              "velocity": 35,
              "position": 2.28125,
              "duration": 0.010416666666666666
            },
            {
              "pitch": 54,
              "velocity": 71,
              "position": 2.5,
              "duration": 0.010416666666666666
            },
            {
              "pitch": 62,
              "velocity": 127,
              "position": 2.5,
              "duration": 0.03125
            },
            {
              "pitch": 82,
              "velocity": 38,
              "position": 2.7604166666666665,
              "duration": 0.0020833333333333333
            },
            {
              "pitch": 54,
              "velocity": 35,
              "position": 2.78125,
              "duration": 0.010416666666666666
            },
            {
              "pitch": 82,
              "velocity": 38,
              "position": 3,
              "duration": 0.0020833333333333333
            },
            {
              "pitch": 54,
              "velocity": 35,
              "position": 3,
              "duration": 0.010416666666666666
            },
            {
              "pitch": 61,
              "velocity": 105,
              "position": 3.03125,
              "duration": 0.041666666666666664
            },
            {
              "pitch": 82,
              "velocity": 38,
              "position": 3.2604166666666665,
              "duration": 0.0020833333333333333
            },
            {
              "pitch": 54,
              "velocity": 35,
              "position": 3.28125,
              "duration": 0.010416666666666666
            },
            {
              "pitch": 54,
              "velocity": 71,
              "position": 3.5,
              "duration": 0.010416666666666666
            },
            {
              "pitch": 64,
              "velocity": 97,
              "position": 3.53125,
              "duration": 0.041666666666666664
            },
            {
              "pitch": 82,
              "velocity": 38,
              "position": 3.7604166666666665,
              "duration": 0.0020833333333333333
            },
            {
              "pitch": 54,
              "velocity": 35,
              "position": 3.78125,
              "duration": 0.010416666666666666
            },
            {
              "pitch": 64,
              "velocity": 97,
              "position": 3.78125,
              "duration": 0.041666666666666664
            }
          ]
        },
        "9": {
          "ctab": {
            "srcChannel": 9,
            "name": "Drums",
            "accType": "RHYTHM",
            "editable": false,
            "mutedNotes": [],
            "mutedChords": [],
            "autoStart": true,
            "sourceChordNote": 0,
            "sourceChordType": "Maj7",
            "ctb2Low": null,
            "ctb2Main": {
              "ntr": "ROOT_FIXED",
              "ntt": "BYPASS",
              "bassOn": false,
              "chordRootUpperLimit": 6,
              "noteLowLimit": 0,
              "noteHighLimit": 127,
              "rtr": "PITCH_SHIFT"
            },
            "ctb2High": null
          },
          "notes": [
            {
              "pitch": 33,
              "velocity": 88,
              "position": 0,
              "duration": 0.010416666666666666
            },
            {
              "pitch": 44,
              "velocity": 59,
              "position": 0,
              "duration": 0.010416666666666666
            },
            {
              "pitch": 44,
              "velocity": 59,
              "position": 0.28125,
              "duration": 0.010416666666666666
            },
            {
              "pitch": 44,
              "velocity": 59,
              "position": 0.5,
              "duration": 0.010416666666666666
            },
            {
              "pitch": 25,
              "velocity": 103,
              "position": 1,
              "duration": 0.010416666666666666
            },
            {
              "pitch": 33,
              "velocity": 88,
              "position": 1,
              "duration": 0.010416666666666666
            },
            {
              "pitch": 39,
              "velocity": 91,
              "position": 1,
              "duration": 0.010416666666666666
            },
            {
              "pitch": 44,
              "velocity": 64,
              "position": 1,
              "duration": 0.010416666666666666
            },
            {
              "pitch": 44,
              "velocity": 59,
              "position": 1.5,
              "duration": 0.010416666666666666
            },
            {
              "pitch": 33,
              "velocity": 88,
              "position": 1.78125,
              "duration": 0.010416666666666666
            },
            {
              "pitch": 33,
              "velocity": 88,
              "position": 2,
              "duration": 0.010416666666666666
            },
            {
              "pitch": 44,
              "velocity": 64,
              "position": 2,
              "duration": 0.010416666666666666
            },
            {
              "pitch": 25,
              "velocity": 114,
              "position": 2.78125,
              "duration": 0.010416666666666666
            },
            {
              "pitch": 39,
              "velocity": 91,
              "position": 2.78125,
              "duration": 0.010416666666666666
            },
            {
              "pitch": 25,
              "velocity": 103,
              "position": 3,
              "duration": 0.010416666666666666
            },
            {
              "pitch": 33,
              "velocity": 88,
              "position": 3,
              "duration": 0.010416666666666666
            },
            {
              "pitch": 39,
              "velocity": 91,
              "position": 3,
              "duration": 0.010416666666666666
            }
          ]
        },
        "10": {
          "ctab": {
            "srcChannel": 10,
            "name": "Bass",
            "accType": "BASS",
            "editable": false,
            "mutedNotes": [],
            "mutedChords": [],
            "autoStart": false,
            "sourceChordNote": 0,
            "sourceChordType": "Maj7",
            "ctb2Low": null,
            "ctb2Main": {
              "ntr": "ROOT_TRANSPOSITION",
              "ntt": "MELODY",
              "bassOn": true,
              "chordRootUpperLimit": 5,
              "noteLowLimit": 28,
              "noteHighLimit": 127,
              "rtr": "PITCH_SHIFT_TO_ROOT"
            },
            "ctb2High": null
          },
          "notes": [
            {
              "pitch": 36,
              "velocity": 100,
              "position": 0,
              "duration": 0.15625
            },
            {
              "pitch": 36,
              "velocity": 100,
              "position": 0.5,
              "duration": 0.4895833333333333
            },
            {
              "pitch": 35,
              "velocity": 100,
              "position": 1,
              "duration": 0.4895833333333333
            },
            {
              "pitch": 36,
              "velocity": 100,
              "position": 1.5,
              "duration": 0.4895833333333333
            },
            {
              "pitch": 36,
              "velocity": 100,
              "position": 2.75,
              "duration": 0.11458333333333333
            },
            {
              "pitch": 31,
              "velocity": 100,
              "position": 3,
              "duration": 0.4895833333333333
            },
            {
              "pitch": 35,
              "velocity": 100,
              "position": 3.5,
              "duration": 0.46875
            }
          ]
        },
        "11": {
          "ctab": {
            "srcChannel": 11,
            "name": "Gt",
            "accType": "CHORD1",
            "editable": false,
            "mutedNotes": [],
            "mutedChords": [],
            "autoStart": false,
            "sourceChordNote": 0,
            "sourceChordType": "Maj7",
            "ctb2Low": null,
            "ctb2Main": {
              "ntr": "ROOT_FIXED",
              "ntt": "CHORD",
              "bassOn": false,
              "chordRootUpperLimit": 7,
              "noteLowLimit": 0,
              "noteHighLimit": 127,
              "rtr": "PITCH_SHIFT"
            },
            "ctb2High": null
          },
          "notes": [
            {
              "pitch": 55,
              "velocity": 118,
              "position": 0,
              "duration": 0.23958333333333334
            },
            {
              "pitch": 59,
              "velocity": 118,
              "position": 0,
              "duration": 0.23958333333333334
            },
            {
              "pitch": 64,
              "velocity": 118,
              "position": 0,
              "duration": 0.23958333333333334
            },
            {
              "pitch": 55,
              "velocity": 76,
              "position": 0.2604166666666667,
              "duration": 0.041666666666666664
            },
            {
              "pitch": 59,
              "velocity": 76,
              "position": 0.2604166666666667,
              "duration": 0.041666666666666664
            },
            {
              "pitch": 64,
              "velocity": 76,
              "position": 0.2604166666666667,
              "duration": 0.041666666666666664
            },
            {
              "pitch": 55,
              "velocity": 89,
              "position": 0.5,
              "duration": 0.052083333333333336
            },
            {
              "pitch": 59,
              "velocity": 89,
              "position": 0.5,
              "duration": 0.052083333333333336
            },
            {
              "pitch": 64,
              "velocity": 89,
              "position": 0.5,
              "duration": 0.052083333333333336
            },
            {
              "pitch": 55,
              "velocity": 76,
              "position": 0.75,
              "duration": 0.041666666666666664
            },
            {
              "pitch": 59,
              "velocity": 76,
              "position": 0.75,
              "duration": 0.041666666666666664
            },
            {
              "pitch": 64,
              "velocity": 76,
              "position": 0.75,
              "duration": 0.041666666666666664
            },
            {
              "pitch": 55,
              "velocity": 89,
              "position": 1.0104166666666667,
              "duration": 0.052083333333333336
            },
            {
              "pitch": 59,
              "velocity": 89,
              "position": 1.0104166666666667,
              "duration": 0.052083333333333336
            },
            {
              "pitch": 64,
              "velocity": 89,
              "position": 1.0104166666666667,
              "duration": 0.052083333333333336
            },
            {
              "pitch": 55,
              "velocity": 76,
              "position": 1.25,
              "duration": 0.041666666666666664
            },
            {
              "pitch": 59,
              "velocity": 76,
              "position": 1.25,
              "duration": 0.041666666666666664
            },
            {
              "pitch": 64,
              "velocity": 76,
              "position": 1.25,
              "duration": 0.041666666666666664
            },
            {
              "pitch": 55,
              "velocity": 89,
              "position": 1.5,
              "duration": 0.052083333333333336
            },
            {
              "pitch": 59,
              "velocity": 89,
              "position": 1.5,
              "duration": 0.052083333333333336
            },
            {
              "pitch": 64,
              "velocity": 89,
              "position": 1.5,
              "duration": 0.052083333333333336
            },
            {
              "pitch": 55,
              "velocity": 118,
              "position": 1.7604166666666667,
              "duration": 0.23958333333333334
            },
            {
              "pitch": 59,
              "velocity": 118,
              "position": 1.7604166666666667,
              "duration": 0.23958333333333334
            },
            {
              "pitch": 64,
              "velocity": 118,
              "position": 1.7604166666666667,
              "duration": 0.23958333333333334
            },
            {
              "pitch": 55,
              "velocity": 76,
              "position": 2.0104166666666665,
              "duration": 0.23958333333333334
            },
            {
              "pitch": 59,
              "velocity": 76,
              "position": 2.0104166666666665,
              "duration": 0.23958333333333334
            },
            {
              "pitch": 64,
              "velocity": 76,
              "position": 2.0104166666666665,
              "duration": 0.23958333333333334
            },
            {
              "pitch": 55,
              "velocity": 76,
              "position": 2.2604166666666665,
              "duration": 0.22916666666666666
            },
            {
              "pitch": 59,
              "velocity": 76,
              "position": 2.2604166666666665,
              "duration": 0.22916666666666666
            },
            {
              "pitch": 64,
              "velocity": 76,
              "position": 2.2604166666666665,
              "duration": 0.22916666666666666
            },
            {
              "pitch": 55,
              "velocity": 118,
              "position": 2.5,
              "duration": 0.23958333333333334
            },
            {
              "pitch": 59,
              "velocity": 118,
              "position": 2.5,
              "duration": 0.23958333333333334
            },
            {
              "pitch": 64,
              "velocity": 118,
              "position": 2.5,
              "duration": 0.23958333333333334
            },
            {
              "pitch": 55,
              "velocity": 76,
              "position": 2.7604166666666665,
              "duration": 0.041666666666666664
            },
            {
              "pitch": 59,
              "velocity": 76,
              "position": 2.7604166666666665,
              "duration": 0.041666666666666664
            },
            {
              "pitch": 64,
              "velocity": 76,
              "position": 2.7604166666666665,
              "duration": 0.041666666666666664
            },
            {
              "pitch": 55,
              "velocity": 89,
              "position": 3,
              "duration": 0.052083333333333336
            },
            {
              "pitch": 59,
              "velocity": 89,
              "position": 3,
              "duration": 0.052083333333333336
            },
            {
              "pitch": 64,
              "velocity": 89,
              "position": 3,
              "duration": 0.052083333333333336
            },
            {
              "pitch": 55,
              "velocity": 76,
              "position": 3.25,
              "duration": 0.041666666666666664
            },
            {
              "pitch": 59,
              "velocity": 76,
              "position": 3.25,
              "duration": 0.041666666666666664
            },
            {
              "pitch": 64,
              "velocity": 76,
              "position": 3.25,
              "duration": 0.041666666666666664
            },
            {
              "pitch": 55,
              "velocity": 89,
              "position": 3.5,
              "duration": 0.25
            },
            {
              "pitch": 59,
              "velocity": 89,
              "position": 3.5,
              "duration": 0.25
            },
            {
              "pitch": 64,
              "velocity": 89,
              "position": 3.5,
              "duration": 0.25
            },
            {
              "pitch": 55,
              "velocity": 76,
              "position": 3.7604166666666665,
              "duration": 0.22916666666666666
            },
            {
              "pitch": 59,
              "velocity": 76,
              "position": 3.7604166666666665,
              "duration": 0.22916666666666666
            },
            {
              "pitch": 64,
              "velocity": 76,
              "position": 3.7604166666666665,
              "duration": 0.22916666666666666
            }
          ]
        },
        "12": {
          "ctab": {
            "srcChannel": 12,
            "name": "Pno",
            "accType": "CHORD2",
            "editable": false,
            "mutedNotes": [],
            "mutedChords": [],
            "autoStart": false,
            "sourceChordNote": 0,
            "sourceChordType": "Maj7",
            "ctb2Low": null,
            "ctb2Main": {
              "ntr": "ROOT_FIXED",
              "ntt": "CHORD",
              "bassOn": false,
              "chordRootUpperLimit": 7,
              "noteLowLimit": 0,
              "noteHighLimit": 127,
              "rtr": "PITCH_SHIFT"
            },
            "ctb2High": null
          },
          "notes": [
            {
              "pitch": 55,
              "velocity": 78,
              "position": 0.7604166666666666,
              "duration": 0.1875
            },
            {
              "pitch": 59,
              "velocity": 78,
              "position": 0.7604166666666666,
              "duration": 0.1875
            },
            {
              "pitch": 64,
              "velocity": 78,
              "position": 0.7604166666666666,
              "duration": 0.1875
            },
            {
              "pitch": 55,
              "velocity": 61,
              "position": 1.25,
              "duration": 0.1875
            },
            {
              "pitch": 59,
              "velocity": 61,
              "position": 1.25,
              "duration": 0.1875
            },
            {
              "pitch": 64,
              "velocity": 61,
              "position": 1.25,
              "duration": 0.1875
            },
            {
              "pitch": 55,
              "velocity": 78,
              "position": 1.75,
              "duration": 0.9479166666666666
            },
            {
              "pitch": 59,
              "velocity": 78,
              "position": 1.75,
              "duration": 0.9479166666666666
            },
            {
              "pitch": 64,
              "velocity": 78,
              "position": 1.75,
              "duration": 0.9479166666666666
            },
            {
              "pitch": 55,
              "velocity": 61,
              "position": 3,
              "duration": 0.1875
            },
            {
              "pitch": 59,
              "velocity": 61,
              "position": 3,
              "duration": 0.1875
            },
            {
              "pitch": 64,
              "velocity": 61,
              "position": 3,
              "duration": 0.1875
            },
            {
              "pitch": 55,
              "velocity": 78,
              "position": 3.5,
              "duration": 0.4895833333333333
            },
            {
              "pitch": 59,
              "velocity": 78,
              "position": 3.5,
              "duration": 0.4895833333333333
            },
            {
              "pitch": 64,
              "velocity": 78,
              "position": 3.5,
              "duration": 0.4895833333333333
            }
          ]
        },
        "13": {
          "ctab": {
            "srcChannel": 13,
            "name": "Str",
            "accType": "PAD",
            "editable": false,
            "mutedNotes": [],
            "mutedChords": [],
            "autoStart": false,
            "sourceChordNote": 0,
            "sourceChordType": "Maj7",
            "ctb2Low": null,
            "ctb2Main": {
              "ntr": "ROOT_FIXED",
              "ntt": "CHORD",
              "bassOn": false,
              "chordRootUpperLimit": 7,
              "noteLowLimit": 0,
              "noteHighLimit": 127,
              "rtr": "PITCH_SHIFT"
            },
            "ctb2High": null
          },
          "notes": [
            {
              "pitch": 55,
              "velocity": 53,
              "position": 0,
              "duration": 3.9895833333333335
            },
            {
              "pitch": 59,
              "velocity": 53,
              "position": 0,
              "duration": 3.9895833333333335
            },
            {
              "pitch": 64,
              "velocity": 53,
              "position": 0,
              "duration": 3.9895833333333335
            }
          ]
        },
        "15": {
          "ctab": {
            "srcChannel": 15,
            "name": "MtGt",
            "accType": "PHRASE2",
            "editable": false,
            "mutedNotes": [],
            "mutedChords": [],
            "autoStart": false,
            "sourceChordNote": 0,
            "sourceChordType": "Maj7",
            "ctb2Low": null,
            "ctb2Main": {
              "ntr": "ROOT_TRANSPOSITION",
              "ntt": "MELODY",
              "bassOn": false,
              "chordRootUpperLimit": 6,
              "noteLowLimit": 0,
              "noteHighLimit": 127,
              "rtr": "PITCH_SHIFT"
            },
            "ctb2High": null
          },
          "notes": [
            {
              "pitch": 55,
              "velocity": 68,
              "position": 1.28125,
              "duration": 0.0625
            },
            {
              "pitch": 57,
              "velocity": 45,
              "position": 1.5,
              "duration": 0.28125
            },
            {
              "pitch": 55,
              "velocity": 67,
              "position": 1.78125,
              "duration": 0.0625
            },
            {
              "pitch": 60,
              "velocity": 70,
              "position": 2,
              "duration": 0.10416666666666667
            },
            {
              "pitch": 60,
              "velocity": 42,
              "position": 2.28125,
              "duration": 0.14583333333333334
            },
            {
              "pitch": 57,
              "velocity": 67,
              "position": 2.5,
              "duration": 0.17708333333333334
            }
          ]
        }
      }
    },
    "Fill_In_DD": {
      "type": "Fill_In_DD",
      "sizeInBeats": 4,
      "channels": {
        "2": {
          "ctab": {
            "srcChannel": 2,
            "name": "Gt Root",
            "accType": "CHORD1",
            "editable": false,
            "mutedNotes": [],
            "mutedChords": [
              "1+2+5",
              "sus4",
              "1+5",
              "1+8",
              "Maj7aug",
              "dim",
              "minMaj7(9)",
              "minMaj7",
              "min6",
              "min",
              "aug",
              "Maj7(9)",
              "Maj7#11",
              "Maj7",
              "Maj6",
              "Maj"
            ],
            "autoStart": false,
            "sourceChordNote": 0,
            "sourceChordType": "Maj7",
            "ctb2Low": null,
            "ctb2Main": {
              "ntr": "ROOT_TRANSPOSITION",
              "ntt": "CHORD",
              "bassOn": false,
              "chordRootUpperLimit": 6,
              "noteLowLimit": 0,
              "noteHighLimit": 127,
              "rtr": "PITCH_SHIFT"
            },
            "ctb2High": null
          },
          "notes": [
            {
              "pitch": 60,
              "velocity": 116,
              "position": 0,
              "duration": 0.23958333333333334
            },
            {
              "pitch": 60,
              "velocity": 74,
              "position": 0.2604166666666667,
              "duration": 0.041666666666666664
            },
            {
              "pitch": 60,
              "velocity": 87,
              "position": 0.5,
              "duration": 0.052083333333333336
            },
            {
              "pitch": 60,
              "velocity": 74,
              "position": 0.75,
              "duration": 0.041666666666666664
            },
            {
              "pitch": 60,
              "velocity": 87,
              "position": 1.0104166666666667,
              "duration": 0.052083333333333336
            },
            {
              "pitch": 60,
              "velocity": 74,
              "position": 1.25,
              "duration": 0.041666666666666664
            },
            {
              "pitch": 60,
              "velocity": 87,
              "position": 1.5,
              "duration": 0.052083333333333336
            },
            {
              "pitch": 60,
              "velocity": 116,
              "position": 1.7604166666666667,
              "duration": 0.23958333333333334
            },
            {
              "pitch": 60,
              "velocity": 74,
              "position": 2.0104166666666665,
              "duration": 0.23958333333333334
            },
            {
              "pitch": 60,
              "velocity": 74,
              "position": 2.2604166666666665,
              "duration": 0.22916666666666666
            },
            {
              "pitch": 60,
              "velocity": 116,
              "position": 2.5,
              "duration": 0.23958333333333334
            },
            {
              "pitch": 60,
              "velocity": 74,
              "position": 2.7604166666666665,
              "duration": 0.041666666666666664
            },
            {
              "pitch": 60,
              "velocity": 87,
              "position": 3,
              "duration": 0.052083333333333336
            },
            {
              "pitch": 60,
              "velocity": 74,
              "position": 3.25,
              "duration": 0.041666666666666664
            },
            {
              "pitch": 60,
              "velocity": 87,
              "position": 3.5,
              "duration": 0.25
            },
            {
              "pitch": 60,
              "velocity": 74,
              "position": 3.7604166666666665,
              "duration": 0.22916666666666666
            }
          ]
        },
        "4": {
          "ctab": {
            "srcChannel": 4,
            "name": "Str Root",
            "accType": "PAD",
            "editable": false,
            "mutedNotes": [],
            "mutedChords": [
              "1+2+5",
              "sus4",
              "1+5",
              "1+8",
              "Maj7aug",
              "dim",
              "minMaj7(9)",
              "minMaj7",
              "min6",
              "min",
              "aug",
              "Maj7(9)",
              "Maj7#11",
              "Maj7",
              "Maj6",
              "Maj"
            ],
            "autoStart": false,
            "sourceChordNote": 0,
            "sourceChordType": "Maj7",
            "ctb2Low": null,
            "ctb2Main": {
              "ntr": "ROOT_TRANSPOSITION",
              "ntt": "CHORD",
              "bassOn": false,
              "chordRootUpperLimit": 6,
              "noteLowLimit": 0,
              "noteHighLimit": 127,
              "rtr": "PITCH_SHIFT"
            },
            "ctb2High": null
          },
          "notes": [
            {
              "pitch": 60,
              "velocity": 66,
              "position": 0,
              "duration": 3.9895833333333335
            }
          ]
        },
        "7": {
          "ctab": {
            "srcChannel": 7,
            "name": "CC_Crash",
            "accType": "RHYTHM",
            "editable": false,
            "mutedNotes": [],
            "mutedChords": [
              "1+2+5",
              "sus4",
              "1+5",
              "1+8",
              "7aug",
              "Maj7aug",
              "7(#9)",
              "7(b13)",
              "7(b9)",
              "7(13)",
              "7#11",
              "7(9)",
              "7b5",
              "7sus4",
              "7th",
              "dim7",
              "dim",
              "minMaj7(9)",
              "minMaj7",
              "min7(11)",
              "min7(9)",
              "min(9)",
              "m7b5",
              "min7",
              "min6",
              "min",
              "aug",
              "Maj6(9)",
              "Maj7(9)",
              "Maj(9)",
              "Maj7#11",
              "Maj7",
              "Maj6",
              "Maj"
            ],
            "autoStart": true,
            "sourceChordNote": 0,
            "sourceChordType": "Maj",
            "ctb2Low": null,
            "ctb2Main": {
              "ntr": "ROOT_FIXED",
              "ntt": "BYPASS",
              "bassOn": false,
              "chordRootUpperLimit": 0,
              "noteLowLimit": 0,
              "noteHighLimit": 127,
              "rtr": "RETRIGGER"
            },
            "ctb2High": null
          },
          "notes": []
        },
        "8": {
          "ctab": {
            "srcChannel": 8,
            "name": "Perc",
            "accType": "SUBRHYTHM",
            "editable": false,
            "mutedNotes": [],
            "mutedChords": [],
            "autoStart": true,
            "sourceChordNote": 0,
            "sourceChordType": "Maj7",
            "ctb2Low": null,
            "ctb2Main": {
              "ntr": "ROOT_FIXED",
              "ntt": "BYPASS",
              "bassOn": false,
              "chordRootUpperLimit": 6,
              "noteLowLimit": 0,
              "noteHighLimit": 127,
              "rtr": "PITCH_SHIFT"
            },
            "ctb2High": null
          },
          "notes": [
            {
              "pitch": 54,
              "velocity": 42,
              "position": 0,
              "duration": 0.010416666666666666
            },
            {
              "pitch": 60,
              "velocity": 79,
              "position": 0,
              "duration": 0.03125
            },
            {
              "pitch": 64,
              "velocity": 84,
              "position": 0,
              "duration": 0.03125
            },
            {
              "pitch": 54,
              "velocity": 42,
              "position": 0.28125,
              "duration": 0.010416666666666666
            },
            {
              "pitch": 60,
              "velocity": 19,
              "position": 0.28125,
              "duration": 0.041666666666666664
            },
            {
              "pitch": 64,
              "velocity": 81,
              "position": 0.28125,
              "duration": 0.041666666666666664
            },
            {
              "pitch": 54,
              "velocity": 71,
              "position": 0.5,
              "duration": 0.010416666666666666
            },
            {
              "pitch": 61,
              "velocity": 79,
              "position": 0.5,
              "duration": 0.03125
            },
            {
              "pitch": 62,
              "velocity": 87,
              "position": 0.5,
              "duration": 0.03125
            },
            {
              "pitch": 54,
              "velocity": 42,
              "position": 0.78125,
              "duration": 0.010416666666666666
            },
            {
              "pitch": 63,
              "velocity": 75,
              "position": 0.78125,
              "duration": 0.041666666666666664
            },
            {
              "pitch": 54,
              "velocity": 42,
              "position": 1,
              "duration": 0.010416666666666666
            },
            {
              "pitch": 61,
              "velocity": 108,
              "position": 1,
              "duration": 0.03125
            },
            {
              "pitch": 54,
              "velocity": 42,
              "position": 1.28125,
              "duration": 0.010416666666666666
            },
            {
              "pitch": 54,
              "velocity": 71,
              "position": 1.5,
              "duration": 0.010416666666666666
            },
            {
              "pitch": 54,
              "velocity": 42,
              "position": 1.78125,
              "duration": 0.010416666666666666
            },
            {
              "pitch": 63,
              "velocity": 86,
              "position": 1.78125,
              "duration": 0.041666666666666664
            },
            {
              "pitch": 54,
              "velocity": 42,
              "position": 2,
              "duration": 0.010416666666666666
            },
            {
              "pitch": 60,
              "velocity": 88,
              "position": 2,
              "duration": 0.03125
            },
            {
              "pitch": 54,
              "velocity": 42,
              "position": 2.28125,
              "duration": 0.010416666666666666
            },
            {
              "pitch": 60,
              "velocity": 28,
              "position": 2.28125,
              "duration": 0.041666666666666664
            },
            {
              "pitch": 64,
              "velocity": 86,
              "position": 2.28125,
              "duration": 0.041666666666666664
            },
            {
              "pitch": 54,
              "velocity": 71,
              "position": 2.5,
              "duration": 0.010416666666666666
            },
            {
              "pitch": 61,
              "velocity": 93,
              "position": 2.5,
              "duration": 0.03125
            },
            {
              "pitch": 64,
              "velocity": 76,
              "position": 2.5,
              "duration": 0.03125
            },
            {
              "pitch": 54,
              "velocity": 42,
              "position": 2.78125,
              "duration": 0.010416666666666666
            },
            {
              "pitch": 62,
              "velocity": 74,
              "position": 2.78125,
              "duration": 0.041666666666666664
            },
            {
              "pitch": 54,
              "velocity": 42,
              "position": 3,
              "duration": 0.010416666666666666
            },
            {
              "pitch": 60,
              "velocity": 81,
              "position": 3,
              "duration": 0.03125
            },
            {
              "pitch": 63,
              "velocity": 86,
              "position": 3,
              "duration": 0.03125
            },
            {
              "pitch": 54,
              "velocity": 42,
              "position": 3.28125,
              "duration": 0.010416666666666666
            },
            {
              "pitch": 60,
              "velocity": 21,
              "position": 3.28125,
              "duration": 0.041666666666666664
            },
            {
              "pitch": 54,
              "velocity": 71,
              "position": 3.5,
              "duration": 0.010416666666666666
            },
            {
              "pitch": 61,
              "velocity": 92,
              "position": 3.5,
              "duration": 0.03125
            },
            {
              "pitch": 54,
              "velocity": 42,
              "position": 3.78125,
              "duration": 0.010416666666666666
            }
          ]
        },
        "9": {
          "ctab": {
            "srcChannel": 9,
            "name": "Drums",
            "accType": "RHYTHM",
            "editable": false,
            "mutedNotes": [],
            "mutedChords": [],
            "autoStart": true,
            "sourceChordNote": 0,
            "sourceChordType": "Maj7",
            "ctb2Low": null,
            "ctb2Main": {
              "ntr": "ROOT_FIXED",
              "ntt": "BYPASS",
              "bassOn": false,
              "chordRootUpperLimit": 6,
              "noteLowLimit": 0,
              "noteHighLimit": 127,
              "rtr": "PITCH_SHIFT"
            },
            "ctb2High": null
          },
          "notes": [
            {
              "pitch": 33,
              "velocity": 88,
              "position": 0,
              "duration": 0.010416666666666666
            },
            {
              "pitch": 44,
              "velocity": 64,
              "position": 0,
              "duration": 0.010416666666666666
            },
            {
              "pitch": 44,
              "velocity": 64,
              "position": 0.28125,
              "duration": 0.010416666666666666
            },
            {
              "pitch": 46,
              "velocity": 75,
              "position": 0.5,
              "duration": 0.010416666666666666
            },
            {
              "pitch": 28,
              "velocity": 107,
              "position": 0,
              "duration": 1
            },
            {
              "pitch": 25,
              "velocity": 93,
              "position": 1,
              "duration": 0.010416666666666666
            },
            {
              "pitch": 33,
              "velocity": 88,
              "position": 1,
              "duration": 0.010416666666666666
            },
            {
              "pitch": 39,
              "velocity": 91,
              "position": 1,
              "duration": 0.010416666666666666
            },
            {
              "pitch": 44,
              "velocity": 64,
              "position": 1,
              "duration": 0.010416666666666666
            },
            {
              "pitch": 55,
              "velocity": 77,
              "position": 1,
              "duration": 0.010416666666666666
            },
            {
              "pitch": 33,
              "velocity": 88,
              "position": 2,
              "duration": 0.010416666666666666
            },
            {
              "pitch": 44,
              "velocity": 64,
              "position": 2,
              "duration": 0.010416666666666666
            },
            {
              "pitch": 46,
              "velocity": 75,
              "position": 2.5,
              "duration": 0.010416666666666666
            },
            {
              "pitch": 33,
              "velocity": 88,
              "position": 2.78125,
              "duration": 0.010416666666666666
            },
            {
              "pitch": 25,
              "velocity": 93,
              "position": 3,
              "duration": 0.010416666666666666
            },
            {
              "pitch": 33,
              "velocity": 88,
              "position": 3,
              "duration": 0.010416666666666666
            },
            {
              "pitch": 39,
              "velocity": 91,
              "position": 3,
              "duration": 0.010416666666666666
            },
            {
              "pitch": 44,
              "velocity": 64,
              "position": 3,
              "duration": 0.010416666666666666
            },
            {
              "pitch": 33,
              "velocity": 88,
              "position": 3.5,
              "duration": 0.010416666666666666
            },
            {
              "pitch": 44,
              "velocity": 64,
              "position": 3.5,
              "duration": 0.010416666666666666
            },
            {
              "pitch": 44,
              "velocity": 64,
              "position": 3.78125,
              "duration": 0.010416666666666666
            }
          ]
        },
        "10": {
          "ctab": {
            "srcChannel": 10,
            "name": "Bass",
            "accType": "BASS",
            "editable": false,
            "mutedNotes": [],
            "mutedChords": [],
            "autoStart": false,
            "sourceChordNote": 0,
            "sourceChordType": "Maj7",
            "ctb2Low": null,
            "ctb2Main": {
              "ntr": "ROOT_TRANSPOSITION",
              "ntt": "MELODY",
              "bassOn": true,
              "chordRootUpperLimit": 5,
              "noteLowLimit": 28,
              "noteHighLimit": 127,
              "rtr": "PITCH_SHIFT_TO_ROOT"
            },
            "ctb2High": null
          },
          "notes": [
            {
              "pitch": 24,
              "velocity": 100,
              "position": 0,
              "duration": 0.4895833333333333
            },
            {
              "pitch": 24,
              "velocity": 100,
              "position": 1,
              "duration": 0.75
            },
            {
              "pitch": 35,
              "velocity": 100,
              "position": 1.7604166666666667,
              "duration": 0.7291666666666666
            },
            {
              "pitch": 36,
              "velocity": 100,
              "position": 2.5,
              "duration": 0.4895833333333333
            },
            {
              "pitch": 24,
              "velocity": 100,
              "position": 3.5,
              "duration": 0.4895833333333333
            }
          ]
        },
        "11": {
          "ctab": {
            "srcChannel": 11,
            "name": "Gt",
            "accType": "CHORD1",
            "editable": false,
            "mutedNotes": [],
            "mutedChords": [],
            "autoStart": false,
            "sourceChordNote": 0,
            "sourceChordType": "Maj7",
            "ctb2Low": null,
            "ctb2Main": {
              "ntr": "ROOT_FIXED",
              "ntt": "CHORD",
              "bassOn": false,
              "chordRootUpperLimit": 7,
              "noteLowLimit": 0,
              "noteHighLimit": 127,
              "rtr": "PITCH_SHIFT"
            },
            "ctb2High": null
          },
          "notes": [
            {
              "pitch": 55,
              "velocity": 118,
              "position": 0,
              "duration": 0.23958333333333334
            },
            {
              "pitch": 59,
              "velocity": 118,
              "position": 0,
              "duration": 0.23958333333333334
            },
            {
              "pitch": 64,
              "velocity": 118,
              "position": 0,
              "duration": 0.23958333333333334
            },
            {
              "pitch": 55,
              "velocity": 76,
              "position": 0.2604166666666667,
              "duration": 0.041666666666666664
            },
            {
              "pitch": 59,
              "velocity": 76,
              "position": 0.2604166666666667,
              "duration": 0.041666666666666664
            },
            {
              "pitch": 64,
              "velocity": 76,
              "position": 0.2604166666666667,
              "duration": 0.041666666666666664
            },
            {
              "pitch": 55,
              "velocity": 89,
              "position": 0.5,
              "duration": 0.052083333333333336
            },
            {
              "pitch": 59,
              "velocity": 89,
              "position": 0.5,
              "duration": 0.052083333333333336
            },
            {
              "pitch": 64,
              "velocity": 89,
              "position": 0.5,
              "duration": 0.052083333333333336
            },
            {
              "pitch": 55,
              "velocity": 76,
              "position": 0.75,
              "duration": 0.041666666666666664
            },
            {
              "pitch": 59,
              "velocity": 76,
              "position": 0.75,
              "duration": 0.041666666666666664
            },
            {
              "pitch": 64,
              "velocity": 76,
              "position": 0.75,
              "duration": 0.041666666666666664
            },
            {
              "pitch": 55,
              "velocity": 89,
              "position": 1.0104166666666667,
              "duration": 0.052083333333333336
            },
            {
              "pitch": 59,
              "velocity": 89,
              "position": 1.0104166666666667,
              "duration": 0.052083333333333336
            },
            {
              "pitch": 64,
              "velocity": 89,
              "position": 1.0104166666666667,
              "duration": 0.052083333333333336
            },
            {
              "pitch": 55,
              "velocity": 76,
              "position": 1.25,
              "duration": 0.041666666666666664
            },
            {
              "pitch": 59,
              "velocity": 76,
              "position": 1.25,
              "duration": 0.041666666666666664
            },
            {
              "pitch": 64,
              "velocity": 76,
              "position": 1.25,
              "duration": 0.041666666666666664
            },
            {
              "pitch": 55,
              "velocity": 89,
              "position": 1.5,
              "duration": 0.052083333333333336
            },
            {
              "pitch": 59,
              "velocity": 89,
              "position": 1.5,
              "duration": 0.052083333333333336
            },
            {
              "pitch": 64,
              "velocity": 89,
              "position": 1.5,
              "duration": 0.052083333333333336
            },
            {
              "pitch": 55,
              "velocity": 118,
              "position": 1.7604166666666667,
              "duration": 0.23958333333333334
            },
            {
              "pitch": 59,
              "velocity": 118,
              "position": 1.7604166666666667,
              "duration": 0.23958333333333334
            },
            {
              "pitch": 64,
              "velocity": 118,
              "position": 1.7604166666666667,
              "duration": 0.23958333333333334
            },
            {
              "pitch": 55,
              "velocity": 76,
              "position": 2.0104166666666665,
              "duration": 0.23958333333333334
            },
            {
              "pitch": 59,
              "velocity": 76,
              "position": 2.0104166666666665,
              "duration": 0.23958333333333334
            },
            {
              "pitch": 64,
              "velocity": 76,
              "position": 2.0104166666666665,
              "duration": 0.23958333333333334
            },
            {
              "pitch": 55,
              "velocity": 76,
              "position": 2.2604166666666665,
              "duration": 0.22916666666666666
            },
            {
              "pitch": 59,
              "velocity": 76,
              "position": 2.2604166666666665,
              "duration": 0.22916666666666666
            },
            {
              "pitch": 64,
              "velocity": 76,
              "position": 2.2604166666666665,
              "duration": 0.22916666666666666
            },
            {
              "pitch": 55,
              "velocity": 118,
              "position": 2.5,
              "duration": 0.23958333333333334
            },
            {
              "pitch": 59,
              "velocity": 118,
              "position": 2.5,
              "duration": 0.23958333333333334
            },
            {
              "pitch": 64,
              "velocity": 118,
              "position": 2.5,
              "duration": 0.23958333333333334
            },
            {
              "pitch": 55,
              "velocity": 76,
              "position": 2.7604166666666665,
              "duration": 0.041666666666666664
            },
            {
              "pitch": 59,
              "velocity": 76,
              "position": 2.7604166666666665,
              "duration": 0.041666666666666664
            },
            {
              "pitch": 64,
              "velocity": 76,
              "position": 2.7604166666666665,
              "duration": 0.041666666666666664
            },
            {
              "pitch": 55,
              "velocity": 89,
              "position": 3,
              "duration": 0.052083333333333336
            },
            {
              "pitch": 59,
              "velocity": 89,
              "position": 3,
              "duration": 0.052083333333333336
            },
            {
              "pitch": 64,
              "velocity": 89,
              "position": 3,
              "duration": 0.052083333333333336
            },
            {
              "pitch": 55,
              "velocity": 76,
              "position": 3.25,
              "duration": 0.041666666666666664
            },
            {
              "pitch": 59,
              "velocity": 76,
              "position": 3.25,
              "duration": 0.041666666666666664
            },
            {
              "pitch": 64,
              "velocity": 76,
              "position": 3.25,
              "duration": 0.041666666666666664
            },
            {
              "pitch": 55,
              "velocity": 89,
              "position": 3.5,
              "duration": 0.25
            },
            {
              "pitch": 59,
              "velocity": 89,
              "position": 3.5,
              "duration": 0.25
            },
            {
              "pitch": 64,
              "velocity": 89,
              "position": 3.5,
              "duration": 0.25
            },
            {
              "pitch": 55,
              "velocity": 76,
              "position": 3.7604166666666665,
              "duration": 0.22916666666666666
            },
            {
              "pitch": 59,
              "velocity": 76,
              "position": 3.7604166666666665,
              "duration": 0.22916666666666666
            },
            {
              "pitch": 64,
              "velocity": 76,
              "position": 3.7604166666666665,
              "duration": 0.22916666666666666
            }
          ]
        },
        "12": {
          "ctab": {
            "srcChannel": 12,
            "name": "Pno",
            "accType": "CHORD2",
            "editable": false,
            "mutedNotes": [],
            "mutedChords": [],
            "autoStart": false,
            "sourceChordNote": 0,
            "sourceChordType": "Maj7",
            "ctb2Low": null,
            "ctb2Main": {
              "ntr": "ROOT_FIXED",
              "ntt": "CHORD",
              "bassOn": false,
              "chordRootUpperLimit": 7,
              "noteLowLimit": 0,
              "noteHighLimit": 127,
              "rtr": "PITCH_SHIFT"
            },
            "ctb2High": null
          },
          "notes": [
            {
              "pitch": 55,
              "velocity": 81,
              "position": 0.7604166666666666,
              "duration": 0.1875
            },
            {
              "pitch": 59,
              "velocity": 81,
              "position": 0.7604166666666666,
              "duration": 0.1875
            },
            {
              "pitch": 64,
              "velocity": 81,
              "position": 0.7604166666666666,
              "duration": 0.1875
            },
            {
              "pitch": 55,
              "velocity": 64,
              "position": 1.25,
              "duration": 0.1875
            },
            {
              "pitch": 59,
              "velocity": 64,
              "position": 1.25,
              "duration": 0.1875
            },
            {
              "pitch": 64,
              "velocity": 64,
              "position": 1.25,
              "duration": 0.1875
            },
            {
              "pitch": 55,
              "velocity": 81,
              "position": 1.75,
              "duration": 0.23958333333333334
            },
            {
              "pitch": 59,
              "velocity": 81,
              "position": 1.75,
              "duration": 0.23958333333333334
            },
            {
              "pitch": 64,
              "velocity": 81,
              "position": 1.75,
              "duration": 0.23958333333333334
            },
            {
              "pitch": 55,
              "velocity": 64,
              "position": 2.25,
              "duration": 0.1875
            },
            {
              "pitch": 59,
              "velocity": 64,
              "position": 2.25,
              "duration": 0.1875
            },
            {
              "pitch": 64,
              "velocity": 64,
              "position": 2.25,
              "duration": 0.1875
            },
            {
              "pitch": 55,
              "velocity": 64,
              "position": 3,
              "duration": 0.1875
            },
            {
              "pitch": 59,
              "velocity": 64,
              "position": 3,
              "duration": 0.1875
            },
            {
              "pitch": 64,
              "velocity": 64,
              "position": 3,
              "duration": 0.1875
            }
          ]
        },
        "13": {
          "ctab": {
            "srcChannel": 13,
            "name": "Str",
            "accType": "PAD",
            "editable": false,
            "mutedNotes": [],
            "mutedChords": [],
            "autoStart": false,
            "sourceChordNote": 0,
            "sourceChordType": "Maj7",
            "ctb2Low": null,
            "ctb2Main": {
              "ntr": "ROOT_FIXED",
              "ntt": "CHORD",
              "bassOn": false,
              "chordRootUpperLimit": 7,
              "noteLowLimit": 0,
              "noteHighLimit": 127,
              "rtr": "PITCH_SHIFT"
            },
            "ctb2High": null
          },
          "notes": [
            {
              "pitch": 55,
              "velocity": 65,
              "position": 0,
              "duration": 3.9895833333333335
            },
            {
              "pitch": 59,
              "velocity": 65,
              "position": 0,
              "duration": 3.9895833333333335
            },
            {
              "pitch": 64,
              "velocity": 65,
              "position": 0,
              "duration": 3.9895833333333335
            },
            {
              "pitch": 76,
              "velocity": 61,
              "position": 0,
              "duration": 3.9895833333333335
            }
          ]
        },
        "15": {
          "ctab": {
            "srcChannel": 15,
            "name": "MtGt",
            "accType": "PHRASE2",
            "editable": false,
            "mutedNotes": [],
            "mutedChords": [],
            "autoStart": false,
            "sourceChordNote": 0,
            "sourceChordType": "Maj7",
            "ctb2Low": null,
            "ctb2Main": {
              "ntr": "ROOT_TRANSPOSITION",
              "ntt": "MELODY",
              "bassOn": false,
              "chordRootUpperLimit": 6,
              "noteLowLimit": 0,
              "noteHighLimit": 127,
              "rtr": "PITCH_SHIFT"
            },
            "ctb2High": null
          },
          "notes": [
            {
              "pitch": 55,
              "velocity": 72,
              "position": 2.28125,
              "duration": 0.0625
            },
            {
              "pitch": 57,
              "velocity": 50,
              "position": 2.5,
              "duration": 0.28125
            },
            {
              "pitch": 55,
              "velocity": 71,
              "position": 2.78125,
              "duration": 0.0625
            },
            {
              "pitch": 60,
              "velocity": 75,
              "position": 3,
              "duration": 0.10416666666666667
            },
            {
              "pitch": 60,
              "velocity": 46,
              "position": 3.28125,
              "duration": 0.14583333333333334
            },
            {
              "pitch": 60,
              "velocity": 71,
              "position": 3.5,
              "duration": 0.17708333333333334
            },
            {
              "pitch": 57,
              "velocity": 71,
              "position": 3.78125,
              "duration": 0.11458333333333333
            }
          ]
        }
      }
    },
    "Intro_A": {
      "type": "Intro_A",
      "sizeInBeats": 4,
      "channels": {
        "2": {
          "ctab": {
            "srcChannel": 2,
            "name": "Gt Root",
            "accType": "CHORD1",
            "editable": false,
            "mutedNotes": [],
            "mutedChords": [
              "1+2+5",
              "sus4",
              "1+5",
              "1+8",
              "Maj7aug",
              "dim",
              "minMaj7(9)",
              "minMaj7",
              "min6",
              "min",
              "aug",
              "Maj7(9)",
              "Maj7#11",
              "Maj7",
              "Maj6",
              "Maj"
            ],
            "autoStart": false,
            "sourceChordNote": 0,
            "sourceChordType": "Maj7",
            "ctb2Low": null,
            "ctb2Main": {
              "ntr": "ROOT_TRANSPOSITION",
              "ntt": "CHORD",
              "bassOn": false,
              "chordRootUpperLimit": 6,
              "noteLowLimit": 0,
              "noteHighLimit": 127,
              "rtr": "PITCH_SHIFT"
            },
            "ctb2High": null
          },
          "notes": []
        },
        "4": {
          "ctab": {
            "srcChannel": 4,
            "name": "Str Root",
            "accType": "PAD",
            "editable": false,
            "mutedNotes": [],
            "mutedChords": [
              "1+2+5",
              "sus4",
              "1+5",
              "1+8",
              "Maj7aug",
              "dim",
              "minMaj7(9)",
              "minMaj7",
              "min6",
              "min",
              "aug",
              "Maj7(9)",
              "Maj7#11",
              "Maj7",
              "Maj6",
              "Maj"
            ],
            "autoStart": false,
            "sourceChordNote": 0,
            "sourceChordType": "Maj7",
            "ctb2Low": null,
            "ctb2Main": {
              "ntr": "ROOT_TRANSPOSITION",
              "ntt": "CHORD",
              "bassOn": false,
              "chordRootUpperLimit": 6,
              "noteLowLimit": 0,
              "noteHighLimit": 127,
              "rtr": "PITCH_SHIFT"
            },
            "ctb2High": null
          },
          "notes": []
        },
        "7": {
          "ctab": {
            "srcChannel": 7,
            "name": "CC_Crash",
            "accType": "RHYTHM",
            "editable": false,
            "mutedNotes": [],
            "mutedChords": [
              "1+2+5",
              "sus4",
              "1+5",
              "1+8",
              "7aug",
              "Maj7aug",
              "7(#9)",
              "7(b13)",
              "7(b9)",
              "7(13)",
              "7#11",
              "7(9)",
              "7b5",
              "7sus4",
              "7th",
              "dim7",
              "dim",
              "minMaj7(9)",
              "minMaj7",
              "min7(11)",
              "min7(9)",
              "min(9)",
              "m7b5",
              "min7",
              "min6",
              "min",
              "aug",
              "Maj6(9)",
              "Maj7(9)",
              "Maj(9)",
              "Maj7#11",
              "Maj7",
              "Maj6",
              "Maj"
            ],
            "autoStart": true,
            "sourceChordNote": 0,
            "sourceChordType": "Maj",
            "ctb2Low": null,
            "ctb2Main": {
              "ntr": "ROOT_FIXED",
              "ntt": "BYPASS",
              "bassOn": false,
              "chordRootUpperLimit": 0,
              "noteLowLimit": 0,
              "noteHighLimit": 127,
              "rtr": "RETRIGGER"
            },
            "ctb2High": null
          },
          "notes": []
        },
        "8": {
          "ctab": {
            "srcChannel": 8,
            "name": "Perc",
            "accType": "SUBRHYTHM",
            "editable": false,
            "mutedNotes": [],
            "mutedChords": [],
            "autoStart": true,
            "sourceChordNote": 0,
            "sourceChordType": "Maj7",
            "ctb2Low": null,
            "ctb2Main": {
              "ntr": "ROOT_FIXED",
              "ntt": "BYPASS",
              "bassOn": false,
              "chordRootUpperLimit": 6,
              "noteLowLimit": 0,
              "noteHighLimit": 127,
              "rtr": "PITCH_SHIFT"
            },
            "ctb2High": null
          },
          "notes": [
            {
              "pitch": 60,
              "velocity": 99,
              "position": 0,
              "duration": 0.03125
            },
            {
              "pitch": 60,
              "velocity": 59,
              "position": 0.28125,
              "duration": 0.041666666666666664
            },
            {
              "pitch": 61,
              "velocity": 127,
              "position": 1,
              "duration": 0.03125
            },
            {
              "pitch": 61,
              "velocity": 113,
              "position": 1.78125,
              "duration": 0.041666666666666664
            },
            {
              "pitch": 63,
              "velocity": 99,
              "position": 1.78125,
              "duration": 0.041666666666666664
            },
            {
              "pitch": 60,
              "velocity": 48,
              "position": 2.28125,
              "duration": 0.041666666666666664
            },
            {
              "pitch": 64,
              "velocity": 99,
              "position": 2.28125,
              "duration": 0.041666666666666664
            },
            {
              "pitch": 61,
              "velocity": 113,
              "position": 2.5,
              "duration": 0.03125
            },
            {
              "pitch": 64,
              "velocity": 89,
              "position": 2.5,
              "duration": 0.03125
            },
            {
              "pitch": 62,
              "velocity": 87,
              "position": 2.78125,
              "duration": 0.041666666666666664
            },
            {
              "pitch": 60,
              "velocity": 101,
              "position": 3,
              "duration": 0.03125
            },
            {
              "pitch": 63,
              "velocity": 99,
              "position": 3,
              "duration": 0.03125
            },
            {
              "pitch": 60,
              "velocity": 41,
              "position": 3.28125,
              "duration": 0.041666666666666664
            },
            {
              "pitch": 61,
              "velocity": 112,
              "position": 3.5,
              "duration": 0.03125
            }
          ]
        },
        "9": {
          "ctab": {
            "srcChannel": 9,
            "name": "Drums",
            "accType": "RHYTHM",
            "editable": false,
            "mutedNotes": [],
            "mutedChords": [],
            "autoStart": true,
            "sourceChordNote": 0,
            "sourceChordType": "Maj7",
            "ctb2Low": null,
            "ctb2Main": {
              "ntr": "ROOT_FIXED",
              "ntt": "BYPASS",
              "bassOn": false,
              "chordRootUpperLimit": 6,
              "noteLowLimit": 0,
              "noteHighLimit": 127,
              "rtr": "PITCH_SHIFT"
            },
            "ctb2High": null
          },
          "notes": [
            {
              "pitch": 44,
              "velocity": 45,
              "position": 0,
              "duration": 0.010416666666666666
            },
            {
              "pitch": 44,
              "velocity": 45,
              "position": 1,
              "duration": 0.010416666666666666
            },
            {
              "pitch": 44,
              "velocity": 45,
              "position": 2,
              "duration": 0.010416666666666666
            },
            {
              "pitch": 25,
              "velocity": 110,
              "position": 3,
              "duration": 0.010416666666666666
            },
            {
              "pitch": 33,
              "velocity": 88,
              "position": 3,
              "duration": 0.010416666666666666
            },
            {
              "pitch": 39,
              "velocity": 91,
              "position": 3,
              "duration": 0.010416666666666666
            },
            {
              "pitch": 44,
              "velocity": 45,
              "position": 3,
              "duration": 0.010416666666666666
            },
            {
              "pitch": 44,
              "velocity": 45,
              "position": 3.28125,
              "duration": 0.010416666666666666
            },
            {
              "pitch": 46,
              "velocity": 76,
              "position": 3.5,
              "duration": 0.010416666666666666
            }
          ]
        },
        "10": {
          "ctab": {
            "srcChannel": 10,
            "name": "Bass",
            "accType": "BASS",
            "editable": false,
            "mutedNotes": [],
            "mutedChords": [],
            "autoStart": false,
            "sourceChordNote": 0,
            "sourceChordType": "Maj7",
            "ctb2Low": null,
            "ctb2Main": {
              "ntr": "ROOT_TRANSPOSITION",
              "ntt": "MELODY",
              "bassOn": true,
              "chordRootUpperLimit": 5,
              "noteLowLimit": 28,
              "noteHighLimit": 127,
              "rtr": "PITCH_SHIFT_TO_ROOT"
            },
            "ctb2High": null
          },
          "notes": []
        },
        "11": {
          "ctab": {
            "srcChannel": 11,
            "name": "Gt",
            "accType": "CHORD1",
            "editable": false,
            "mutedNotes": [],
            "mutedChords": [],
            "autoStart": false,
            "sourceChordNote": 0,
            "sourceChordType": "Maj7",
            "ctb2Low": null,
            "ctb2Main": {
              "ntr": "ROOT_FIXED",
              "ntt": "CHORD",
              "bassOn": false,
              "chordRootUpperLimit": 7,
              "noteLowLimit": 0,
              "noteHighLimit": 127,
              "rtr": "PITCH_SHIFT"
            },
            "ctb2High": null
          },
          "notes": []
        },
        "12": {
          "ctab": {
            "srcChannel": 12,
            "name": "Pno",
            "accType": "CHORD2",
            "editable": false,
            "mutedNotes": [],
            "mutedChords": [],
            "autoStart": false,
            "sourceChordNote": 0,
            "sourceChordType": "Maj7",
            "ctb2Low": null,
            "ctb2Main": {
              "ntr": "ROOT_FIXED",
              "ntt": "CHORD",
              "bassOn": false,
              "chordRootUpperLimit": 7,
              "noteLowLimit": 0,
              "noteHighLimit": 127,
              "rtr": "PITCH_SHIFT"
            },
            "ctb2High": null
          },
          "notes": []
        },
        "13": {
          "ctab": {
            "srcChannel": 13,
            "name": "Str",
            "accType": "PAD",
            "editable": false,
            "mutedNotes": [],
            "mutedChords": [],
            "autoStart": false,
            "sourceChordNote": 0,
            "sourceChordType": "Maj7",
            "ctb2Low": null,
            "ctb2Main": {
              "ntr": "ROOT_FIXED",
              "ntt": "CHORD",
              "bassOn": false,
              "chordRootUpperLimit": 7,
              "noteLowLimit": 0,
              "noteHighLimit": 127,
              "rtr": "PITCH_SHIFT"
            },
            "ctb2High": null
          },
          "notes": []
        },
        "15": {
          "ctab": {
            "srcChannel": 15,
            "name": "MtGt",
            "accType": "PHRASE2",
            "editable": false,
            "mutedNotes": [],
            "mutedChords": [],
            "autoStart": false,
            "sourceChordNote": 0,
            "sourceChordType": "Maj7",
            "ctb2Low": null,
            "ctb2Main": {
              "ntr": "ROOT_TRANSPOSITION",
              "ntt": "MELODY",
              "bassOn": false,
              "chordRootUpperLimit": 6,
              "noteLowLimit": 0,
              "noteHighLimit": 127,
              "rtr": "PITCH_SHIFT"
            },
            "ctb2High": null
          },
          "notes": []
        }
      }
    },
    "Ending_A": {
      "type": "Ending_A",
      "sizeInBeats": 4,
      "channels": {
        "2": {
          "ctab": {
            "srcChannel": 2,
            "name": "Gt Root",
            "accType": "CHORD1",
            "editable": false,
            "mutedNotes": [],
            "mutedChords": [
              "1+2+5",
              "sus4",
              "1+5",
              "1+8",
              "Maj7aug",
              "dim",
              "minMaj7(9)",
              "minMaj7",
              "min6",
              "min",
              "aug",
              "Maj7(9)",
              "Maj7#11",
              "Maj7",
              "Maj6",
              "Maj"
            ],
            "autoStart": false,
            "sourceChordNote": 0,
            "sourceChordType": "Maj7",
            "ctb2Low": null,
            "ctb2Main": {
              "ntr": "ROOT_TRANSPOSITION",
              "ntt": "CHORD",
              "bassOn": false,
              "chordRootUpperLimit": 6,
              "noteLowLimit": 0,
              "noteHighLimit": 127,
              "rtr": "PITCH_SHIFT"
            },
            "ctb2High": null
          },
          "notes": []
        },
        "4": {
          "ctab": {
            "srcChannel": 4,
            "name": "Str Root",
            "accType": "PAD",
            "editable": false,
            "mutedNotes": [],
            "mutedChords": [
              "1+2+5",
              "sus4",
              "1+5",
              "1+8",
              "Maj7aug",
              "dim",
              "minMaj7(9)",
              "minMaj7",
              "min6",
              "min",
              "aug",
              "Maj7(9)",
              "Maj7#11",
              "Maj7",
              "Maj6",
              "Maj"
            ],
            "autoStart": false,
            "sourceChordNote": 0,
            "sourceChordType": "Maj7",
            "ctb2Low": null,
            "ctb2Main": {
              "ntr": "ROOT_TRANSPOSITION",
              "ntt": "CHORD",
              "bassOn": false,
              "chordRootUpperLimit": 6,
              "noteLowLimit": 0,
              "noteHighLimit": 127,
              "rtr": "PITCH_SHIFT"
            },
            "ctb2High": null
          },
          "notes": []
        },
        "7": {
          "ctab": {
            "srcChannel": 7,
            "name": "CC_Crash",
            "accType": "RHYTHM",
            "editable": false,
            "mutedNotes": [],
            "mutedChords": [
              "1+2+5",
              "sus4",
              "1+5",
              "1+8",
              "7aug",
              "Maj7aug",
              "7(#9)",
              "7(b13)",
              "7(b9)",
              "7(13)",
              "7#11",
              "7(9)",
              "7b5",
              "7sus4",
              "7th",
              "dim7",
              "dim",
              "minMaj7(9)",
              "minMaj7",
              "min7(11)",
              "min7(9)",
              "min(9)",
              "m7b5",
              "min7",
              "min6",
              "min",
              "aug",
              "Maj6(9)",
              "Maj7(9)",
              "Maj(9)",
              "Maj7#11",
              "Maj7",
              "Maj6",
              "Maj"
            ],
            "autoStart": true,
            "sourceChordNote": 0,
            "sourceChordType": "Maj",
            "ctb2Low": null,
            "ctb2Main": {
              "ntr": "ROOT_FIXED",
              "ntt": "BYPASS",
              "bassOn": false,
              "chordRootUpperLimit": 0,
              "noteLowLimit": 0,
              "noteHighLimit": 127,
              "rtr": "RETRIGGER"
            },
            "ctb2High": null
          },
          "notes": []
        },
        "8": {
          "ctab": {
            "srcChannel": 8,
            "name": "Perc",
            "accType": "SUBRHYTHM",
            "editable": false,
            "mutedNotes": [],
            "mutedChords": [],
            "autoStart": true,
            "sourceChordNote": 0,
            "sourceChordType": "Maj7",
            "ctb2Low": null,
            "ctb2Main": {
              "ntr": "ROOT_FIXED",
              "ntt": "BYPASS",
              "bassOn": false,
              "chordRootUpperLimit": 6,
              "noteLowLimit": 0,
              "noteHighLimit": 127,
              "rtr": "PITCH_SHIFT"
            },
            "ctb2High": null
          },
          "notes": [
            {
              "pitch": 60,
              "velocity": 90,
              "position": 0,
              "duration": 0.03125
            },
            {
              "pitch": 64,
              "velocity": 75,
              "position": 0,
              "duration": 0.03125
            }
          ]
        },
        "9": {
          "ctab": {
            "srcChannel": 9,
            "name": "Drums",
            "accType": "RHYTHM",
            "editable": false,
            "mutedNotes": [],
            "mutedChords": [],
            "autoStart": true,
            "sourceChordNote": 0,
            "sourceChordType": "Maj7",
            "ctb2Low": null,
            "ctb2Main": {
              "ntr": "ROOT_FIXED",
              "ntt": "BYPASS",
              "bassOn": false,
              "chordRootUpperLimit": 6,
              "noteLowLimit": 0,
              "noteHighLimit": 127,
              "rtr": "PITCH_SHIFT"
            },
            "ctb2High": null
          },
          "notes": [
            {
              "pitch": 33,
              "velocity": 48,
              "position": 0,
              "duration": 0.010416666666666666
            },
            {
              "pitch": 44,
              "velocity": 59,
              "position": 0,
              "duration": 0.010416666666666666
            }
          ]
        },
        "10": {
          "ctab": {
            "srcChannel": 10,
            "name": "Bass",
            "accType": "BASS",
            "editable": false,
            "mutedNotes": [],
            "mutedChords": [],
            "autoStart": false,
            "sourceChordNote": 0,
            "sourceChordType": "Maj7",
            "ctb2Low": null,
            "ctb2Main": {
              "ntr": "ROOT_TRANSPOSITION",
              "ntt": "MELODY",
              "bassOn": true,
              "chordRootUpperLimit": 5,
              "noteLowLimit": 28,
              "noteHighLimit": 127,
              "rtr": "PITCH_SHIFT_TO_ROOT"
            },
            "ctb2High": null
          },
          "notes": []
        },
        "11": {
          "ctab": {
            "srcChannel": 11,
            "name": "Gt",
            "accType": "CHORD1",
            "editable": false,
            "mutedNotes": [],
            "mutedChords": [],
            "autoStart": false,
            "sourceChordNote": 0,
            "sourceChordType": "Maj7",
            "ctb2Low": null,
            "ctb2Main": {
              "ntr": "ROOT_FIXED",
              "ntt": "CHORD",
              "bassOn": false,
              "chordRootUpperLimit": 7,
              "noteLowLimit": 0,
              "noteHighLimit": 127,
              "rtr": "PITCH_SHIFT"
            },
            "ctb2High": null
          },
          "notes": []
        },
        "12": {
          "ctab": {
            "srcChannel": 12,
            "name": "Pno",
            "accType": "CHORD2",
            "editable": false,
            "mutedNotes": [],
            "mutedChords": [],
            "autoStart": false,
            "sourceChordNote": 0,
            "sourceChordType": "Maj7",
            "ctb2Low": null,
            "ctb2Main": {
              "ntr": "ROOT_FIXED",
              "ntt": "CHORD",
              "bassOn": false,
              "chordRootUpperLimit": 7,
              "noteLowLimit": 0,
              "noteHighLimit": 127,
              "rtr": "PITCH_SHIFT"
            },
            "ctb2High": null
          },
          "notes": []
        },
        "13": {
          "ctab": {
            "srcChannel": 13,
            "name": "Str",
            "accType": "PAD",
            "editable": false,
            "mutedNotes": [],
            "mutedChords": [],
            "autoStart": false,
            "sourceChordNote": 0,
            "sourceChordType": "Maj7",
            "ctb2Low": null,
            "ctb2Main": {
              "ntr": "ROOT_FIXED",
              "ntt": "CHORD",
              "bassOn": false,
              "chordRootUpperLimit": 7,
              "noteLowLimit": 0,
              "noteHighLimit": 127,
              "rtr": "PITCH_SHIFT"
            },
            "ctb2High": null
          },
          "notes": []
        },
        "15": {
          "ctab": {
            "srcChannel": 15,
            "name": "MtGt",
            "accType": "PHRASE2",
            "editable": false,
            "mutedNotes": [],
            "mutedChords": [],
            "autoStart": false,
            "sourceChordNote": 0,
            "sourceChordType": "Maj7",
            "ctb2Low": null,
            "ctb2Main": {
              "ntr": "ROOT_TRANSPOSITION",
              "ntt": "MELODY",
              "bassOn": false,
              "chordRootUpperLimit": 6,
              "noteLowLimit": 0,
              "noteHighLimit": 127,
              "rtr": "PITCH_SHIFT"
            },
            "ctb2High": null
          },
          "notes": []
        }
      }
    },
    "Ending_B": {
      "type": "Ending_B",
      "sizeInBeats": 8,
      "channels": {
        "2": {
          "ctab": {
            "srcChannel": 2,
            "name": "Gt Root",
            "accType": "CHORD1",
            "editable": false,
            "mutedNotes": [],
            "mutedChords": [
              "1+2+5",
              "sus4",
              "1+5",
              "1+8",
              "Maj7aug",
              "dim",
              "minMaj7(9)",
              "minMaj7",
              "min6",
              "min",
              "aug",
              "Maj7(9)",
              "Maj7#11",
              "Maj7",
              "Maj6",
              "Maj"
            ],
            "autoStart": false,
            "sourceChordNote": 0,
            "sourceChordType": "Maj7",
            "ctb2Low": null,
            "ctb2Main": {
              "ntr": "ROOT_TRANSPOSITION",
              "ntt": "CHORD",
              "bassOn": false,
              "chordRootUpperLimit": 6,
              "noteLowLimit": 0,
              "noteHighLimit": 127,
              "rtr": "PITCH_SHIFT"
            },
            "ctb2High": null
          },
          "notes": [
            {
              "pitch": 60,
              "velocity": 115,
              "position": 0,
              "duration": 0.25
            },
            {
              "pitch": 60,
              "velocity": 68,
              "position": 0.2604166666666667,
              "duration": 0.041666666666666664
            },
            {
              "pitch": 60,
              "velocity": 82,
              "position": 0.5,
              "duration": 0.052083333333333336
            },
            {
              "pitch": 60,
              "velocity": 115,
              "position": 0.7604166666666666,
              "duration": 0.23958333333333334
            },
            {
              "pitch": 60,
              "velocity": 82,
              "position": 1.0104166666666667,
              "duration": 0.052083333333333336
            },
            {
              "pitch": 60,
              "velocity": 68,
              "position": 1.25,
              "duration": 0.041666666666666664
            },
            {
              "pitch": 60,
              "velocity": 82,
              "position": 1.5,
              "duration": 0.052083333333333336
            },
            {
              "pitch": 60,
              "velocity": 115,
              "position": 1.7604166666666667,
              "duration": 0.23958333333333334
            },
            {
              "pitch": 60,
              "velocity": 68,
              "position": 2.0104166666666665,
              "duration": 0.23958333333333334
            },
            {
              "pitch": 60,
              "velocity": 68,
              "position": 2.2604166666666665,
              "duration": 0.21875
            },
            {
              "pitch": 60,
              "velocity": 115,
              "position": 2.5,
              "duration": 0.23958333333333334
            },
            {
              "pitch": 60,
              "velocity": 68,
              "position": 2.7604166666666665,
              "duration": 0.041666666666666664
            },
            {
              "pitch": 60,
              "velocity": 82,
              "position": 3,
              "duration": 0.052083333333333336
            },
            {
              "pitch": 60,
              "velocity": 115,
              "position": 3.5104166666666665,
              "duration": 4.479166666666667
            }
          ]
        },
        "4": {
          "ctab": {
            "srcChannel": 4,
            "name": "Str Root",
            "accType": "PAD",
            "editable": false,
            "mutedNotes": [],
            "mutedChords": [
              "1+2+5",
              "sus4",
              "1+5",
              "1+8",
              "Maj7aug",
              "dim",
              "minMaj7(9)",
              "minMaj7",
              "min6",
              "min",
              "aug",
              "Maj7(9)",
              "Maj7#11",
              "Maj7",
              "Maj6",
              "Maj"
            ],
            "autoStart": false,
            "sourceChordNote": 0,
            "sourceChordType": "Maj7",
            "ctb2Low": null,
            "ctb2Main": {
              "ntr": "ROOT_TRANSPOSITION",
              "ntt": "CHORD",
              "bassOn": false,
              "chordRootUpperLimit": 6,
              "noteLowLimit": 0,
              "noteHighLimit": 127,
              "rtr": "PITCH_SHIFT"
            },
            "ctb2High": null
          },
          "notes": [
            {
              "pitch": 60,
              "velocity": 46,
              "position": 0,
              "duration": 7.989583333333333
            }
          ]
        },
        "7": {
          "ctab": {
            "srcChannel": 7,
            "name": "CC_Crash",
            "accType": "RHYTHM",
            "editable": false,
            "mutedNotes": [],
            "mutedChords": [
              "1+2+5",
              "sus4",
              "1+5",
              "1+8",
              "7aug",
              "Maj7aug",
              "7(#9)",
              "7(b13)",
              "7(b9)",
              "7(13)",
              "7#11",
              "7(9)",
              "7b5",
              "7sus4",
              "7th",
              "dim7",
              "dim",
              "minMaj7(9)",
              "minMaj7",
              "min7(11)",
              "min7(9)",
              "min(9)",
              "m7b5",
              "min7",
              "min6",
              "min",
              "aug",
              "Maj6(9)",
              "Maj7(9)",
              "Maj(9)",
              "Maj7#11",
              "Maj7",
              "Maj6",
              "Maj"
            ],
            "autoStart": true,
            "sourceChordNote": 0,
            "sourceChordType": "Maj",
            "ctb2Low": null,
            "ctb2Main": {
              "ntr": "ROOT_FIXED",
              "ntt": "BYPASS",
              "bassOn": false,
              "chordRootUpperLimit": 0,
              "noteLowLimit": 0,
              "noteHighLimit": 127,
              "rtr": "RETRIGGER"
            },
            "ctb2High": null
          },
          "notes": []
        },
        "8": {
          "ctab": {
            "srcChannel": 8,
            "name": "Perc",
            "accType": "SUBRHYTHM",
            "editable": false,
            "mutedNotes": [],
            "mutedChords": [],
            "autoStart": true,
            "sourceChordNote": 0,
            "sourceChordType": "Maj7",
            "ctb2Low": null,
            "ctb2Main": {
              "ntr": "ROOT_FIXED",
              "ntt": "BYPASS",
              "bassOn": false,
              "chordRootUpperLimit": 6,
              "noteLowLimit": 0,
              "noteHighLimit": 127,
              "rtr": "PITCH_SHIFT"
            },
            "ctb2High": null
          },
          "notes": [
            {
              "pitch": 82,
              "velocity": 38,
              "position": 0,
              "duration": 0.0020833333333333333
            },
            {
              "pitch": 54,
              "velocity": 35,
              "position": 0,
              "duration": 0.010416666666666666
            },
            {
              "pitch": 60,
              "velocity": 117,
              "position": 0,
              "duration": 0.03125
            },
            {
              "pitch": 64,
              "velocity": 101,
              "position": 0,
              "duration": 0.03125
            },
            {
              "pitch": 82,
              "velocity": 38,
              "position": 0.2604166666666667,
              "duration": 0.0020833333333333333
            },
            {
              "pitch": 60,
              "velocity": 57,
              "position": 0.2604166666666667,
              "duration": 0.03125
            },
            {
              "pitch": 64,
              "velocity": 84,
              "position": 0.2604166666666667,
              "duration": 0.03125
            },
            {
              "pitch": 54,
              "velocity": 35,
              "position": 0.28125,
              "duration": 0.010416666666666666
            },
            {
              "pitch": 54,
              "velocity": 71,
              "position": 0.5,
              "duration": 0.010416666666666666
            },
            {
              "pitch": 61,
              "velocity": 99,
              "position": 0.5,
              "duration": 0.03125
            },
            {
              "pitch": 62,
              "velocity": 102,
              "position": 0.5,
              "duration": 0.03125
            },
            {
              "pitch": 82,
              "velocity": 38,
              "position": 0.7604166666666666,
              "duration": 0.0020833333333333333
            },
            {
              "pitch": 63,
              "velocity": 93,
              "position": 0.7604166666666666,
              "duration": 0.03125
            },
            {
              "pitch": 54,
              "velocity": 35,
              "position": 0.78125,
              "duration": 0.010416666666666666
            },
            {
              "pitch": 82,
              "velocity": 38,
              "position": 1,
              "duration": 0.0020833333333333333
            },
            {
              "pitch": 54,
              "velocity": 35,
              "position": 1,
              "duration": 0.010416666666666666
            },
            {
              "pitch": 61,
              "velocity": 106,
              "position": 1,
              "duration": 0.03125
            },
            {
              "pitch": 82,
              "velocity": 38,
              "position": 1.2604166666666667,
              "duration": 0.0020833333333333333
            },
            {
              "pitch": 63,
              "velocity": 86,
              "position": 1.2604166666666667,
              "duration": 0.03125
            },
            {
              "pitch": 54,
              "velocity": 35,
              "position": 1.28125,
              "duration": 0.010416666666666666
            },
            {
              "pitch": 54,
              "velocity": 71,
              "position": 1.5,
              "duration": 0.010416666666666666
            },
            {
              "pitch": 82,
              "velocity": 38,
              "position": 1.7604166666666667,
              "duration": 0.0020833333333333333
            },
            {
              "pitch": 61,
              "velocity": 119,
              "position": 1.7604166666666667,
              "duration": 0.03125
            },
            {
              "pitch": 63,
              "velocity": 95,
              "position": 1.7604166666666667,
              "duration": 0.03125
            },
            {
              "pitch": 54,
              "velocity": 35,
              "position": 1.78125,
              "duration": 0.010416666666666666
            },
            {
              "pitch": 82,
              "velocity": 38,
              "position": 2,
              "duration": 0.0020833333333333333
            },
            {
              "pitch": 54,
              "velocity": 35,
              "position": 2,
              "duration": 0.010416666666666666
            },
            {
              "pitch": 60,
              "velocity": 99,
              "position": 2,
              "duration": 0.03125
            },
            {
              "pitch": 82,
              "velocity": 38,
              "position": 2.2604166666666665,
              "duration": 0.0020833333333333333
            },
            {
              "pitch": 60,
              "velocity": 39,
              "position": 2.2604166666666665,
              "duration": 0.03125
            },
            {
              "pitch": 64,
              "velocity": 99,
              "position": 2.2604166666666665,
              "duration": 0.03125
            },
            {
              "pitch": 54,
              "velocity": 35,
              "position": 2.28125,
              "duration": 0.010416666666666666
            },
            {
              "pitch": 54,
              "velocity": 71,
              "position": 2.5,
              "duration": 0.010416666666666666
            },
            {
              "pitch": 61,
              "velocity": 102,
              "position": 2.5,
              "duration": 0.03125
            },
            {
              "pitch": 64,
              "velocity": 85,
              "position": 2.5,
              "duration": 0.03125
            },
            {
              "pitch": 82,
              "velocity": 38,
              "position": 2.7604166666666665,
              "duration": 0.0020833333333333333
            },
            {
              "pitch": 62,
              "velocity": 107,
              "position": 2.7604166666666665,
              "duration": 0.03125
            },
            {
              "pitch": 54,
              "velocity": 35,
              "position": 2.78125,
              "duration": 0.010416666666666666
            },
            {
              "pitch": 82,
              "velocity": 38,
              "position": 3,
              "duration": 0.0020833333333333333
            },
            {
              "pitch": 54,
              "velocity": 35,
              "position": 3,
              "duration": 0.010416666666666666
            },
            {
              "pitch": 61,
              "velocity": 120,
              "position": 3,
              "duration": 0.03125
            },
            {
              "pitch": 63,
              "velocity": 98,
              "position": 3,
              "duration": 0.03125
            },
            {
              "pitch": 82,
              "velocity": 38,
              "position": 3.2604166666666665,
              "duration": 0.0020833333333333333
            },
            {
              "pitch": 54,
              "velocity": 35,
              "position": 3.28125,
              "duration": 0.010416666666666666
            },
            {
              "pitch": 52,
              "velocity": 99,
              "position": 3.5,
              "duration": 0.03125
            },
            {
              "pitch": 60,
              "velocity": 90,
              "position": 3.5,
              "duration": 0.03125
            },
            {
              "pitch": 64,
              "velocity": 75,
              "position": 3.5,
              "duration": 0.03125
            },
            {
              "pitch": 82,
              "velocity": 38,
              "position": 3.7604166666666665,
              "duration": 0.0020833333333333333
            }
          ]
        },
        "9": {
          "ctab": {
            "srcChannel": 9,
            "name": "Drums",
            "accType": "RHYTHM",
            "editable": false,
            "mutedNotes": [],
            "mutedChords": [],
            "autoStart": true,
            "sourceChordNote": 0,
            "sourceChordType": "Maj7",
            "ctb2Low": null,
            "ctb2Main": {
              "ntr": "ROOT_FIXED",
              "ntt": "BYPASS",
              "bassOn": false,
              "chordRootUpperLimit": 6,
              "noteLowLimit": 0,
              "noteHighLimit": 127,
              "rtr": "PITCH_SHIFT"
            },
            "ctb2High": null
          },
          "notes": [
            {
              "pitch": 33,
              "velocity": 88,
              "position": 0,
              "duration": 0.010416666666666666
            },
            {
              "pitch": 44,
              "velocity": 59,
              "position": 0,
              "duration": 0.010416666666666666
            },
            {
              "pitch": 42,
              "velocity": 47,
              "position": 0.2604166666666667,
              "duration": 0.010416666666666666
            },
            {
              "pitch": 42,
              "velocity": 44,
              "position": 0.5,
              "duration": 0.010416666666666666
            },
            {
              "pitch": 46,
              "velocity": 64,
              "position": 0.78125,
              "duration": 0.010416666666666666
            },
            {
              "pitch": 25,
              "velocity": 110,
              "position": 1,
              "duration": 0.010416666666666666
            },
            {
              "pitch": 33,
              "velocity": 88,
              "position": 1,
              "duration": 0.010416666666666666
            },
            {
              "pitch": 39,
              "velocity": 91,
              "position": 1,
              "duration": 0.010416666666666666
            },
            {
              "pitch": 44,
              "velocity": 64,
              "position": 1,
              "duration": 0.010416666666666666
            },
            {
              "pitch": 42,
              "velocity": 47,
              "position": 1.2604166666666667,
              "duration": 0.010416666666666666
            },
            {
              "pitch": 42,
              "velocity": 44,
              "position": 1.5,
              "duration": 0.010416666666666666
            },
            {
              "pitch": 42,
              "velocity": 44,
              "position": 1.78125,
              "duration": 0.010416666666666666
            },
            {
              "pitch": 33,
              "velocity": 88,
              "position": 2,
              "duration": 0.010416666666666666
            },
            {
              "pitch": 44,
              "velocity": 64,
              "position": 2,
              "duration": 0.010416666666666666
            },
            {
              "pitch": 42,
              "velocity": 47,
              "position": 2.2604166666666665,
              "duration": 0.010416666666666666
            },
            {
              "pitch": 42,
              "velocity": 44,
              "position": 2.5,
              "duration": 0.010416666666666666
            },
            {
              "pitch": 42,
              "velocity": 44,
              "position": 2.78125,
              "duration": 0.010416666666666666
            },
            {
              "pitch": 25,
              "velocity": 110,
              "position": 3,
              "duration": 0.010416666666666666
            },
            {
              "pitch": 33,
              "velocity": 88,
              "position": 3,
              "duration": 0.010416666666666666
            },
            {
              "pitch": 39,
              "velocity": 91,
              "position": 3,
              "duration": 0.010416666666666666
            },
            {
              "pitch": 44,
              "velocity": 64,
              "position": 3,
              "duration": 0.010416666666666666
            },
            {
              "pitch": 42,
              "velocity": 47,
              "position": 3.2604166666666665,
              "duration": 0.010416666666666666
            },
            {
              "pitch": 33,
              "velocity": 88,
              "position": 3.5,
              "duration": 0.010416666666666666
            },
            {
              "pitch": 44,
              "velocity": 59,
              "position": 3.5,
              "duration": 0.010416666666666666
            },
            {
              "pitch": 57,
              "velocity": 61,
              "position": 3.5,
              "duration": 0.010416666666666666
            }
          ]
        },
        "10": {
          "ctab": {
            "srcChannel": 10,
            "name": "Bass",
            "accType": "BASS",
            "editable": false,
            "mutedNotes": [],
            "mutedChords": [],
            "autoStart": false,
            "sourceChordNote": 0,
            "sourceChordType": "Maj7",
            "ctb2Low": null,
            "ctb2Main": {
              "ntr": "ROOT_TRANSPOSITION",
              "ntt": "MELODY",
              "bassOn": true,
              "chordRootUpperLimit": 5,
              "noteLowLimit": 28,
              "noteHighLimit": 127,
              "rtr": "PITCH_SHIFT_TO_ROOT"
            },
            "ctb2High": null
          },
          "notes": [
            {
              "pitch": 24,
              "velocity": 100,
              "position": 0,
              "duration": 0.15625
            },
            {
              "pitch": 24,
              "velocity": 100,
              "position": 0.5,
              "duration": 0.4895833333333333
            },
            {
              "pitch": 33,
              "velocity": 100,
              "position": 1,
              "duration": 0.4895833333333333
            },
            {
              "pitch": 36,
              "velocity": 100,
              "position": 1.5,
              "duration": 0.4895833333333333
            },
            {
              "pitch": 36,
              "velocity": 100,
              "position": 2.75,
              "duration": 0.11458333333333333
            },
            {
              "pitch": 31,
              "velocity": 100,
              "position": 3,
              "duration": 0.23958333333333334
            },
            {
              "pitch": 24,
              "velocity": 100,
              "position": 3.5,
              "duration": 4.489583333333333
            }
          ]
        },
        "11": {
          "ctab": {
            "srcChannel": 11,
            "name": "Gt",
            "accType": "CHORD1",
            "editable": false,
            "mutedNotes": [],
            "mutedChords": [],
            "autoStart": false,
            "sourceChordNote": 0,
            "sourceChordType": "Maj7",
            "ctb2Low": null,
            "ctb2Main": {
              "ntr": "ROOT_FIXED",
              "ntt": "CHORD",
              "bassOn": false,
              "chordRootUpperLimit": 7,
              "noteLowLimit": 0,
              "noteHighLimit": 127,
              "rtr": "PITCH_SHIFT"
            },
            "ctb2High": null
          },
          "notes": [
            {
              "pitch": 55,
              "velocity": 117,
              "position": 0,
              "duration": 0.25
            },
            {
              "pitch": 59,
              "velocity": 117,
              "position": 0,
              "duration": 0.25
            },
            {
              "pitch": 64,
              "velocity": 117,
              "position": 0,
              "duration": 0.25
            },
            {
              "pitch": 55,
              "velocity": 72,
              "position": 0.2604166666666667,
              "duration": 0.041666666666666664
            },
            {
              "pitch": 59,
              "velocity": 72,
              "position": 0.2604166666666667,
              "duration": 0.041666666666666664
            },
            {
              "pitch": 64,
              "velocity": 72,
              "position": 0.2604166666666667,
              "duration": 0.041666666666666664
            },
            {
              "pitch": 55,
              "velocity": 86,
              "position": 0.5,
              "duration": 0.052083333333333336
            },
            {
              "pitch": 59,
              "velocity": 86,
              "position": 0.5,
              "duration": 0.052083333333333336
            },
            {
              "pitch": 64,
              "velocity": 86,
              "position": 0.5,
              "duration": 0.052083333333333336
            },
            {
              "pitch": 55,
              "velocity": 117,
              "position": 0.7604166666666666,
              "duration": 0.23958333333333334
            },
            {
              "pitch": 59,
              "velocity": 117,
              "position": 0.7604166666666666,
              "duration": 0.23958333333333334
            },
            {
              "pitch": 64,
              "velocity": 117,
              "position": 0.7604166666666666,
              "duration": 0.23958333333333334
            },
            {
              "pitch": 55,
              "velocity": 86,
              "position": 1.0104166666666667,
              "duration": 0.052083333333333336
            },
            {
              "pitch": 59,
              "velocity": 86,
              "position": 1.0104166666666667,
              "duration": 0.052083333333333336
            },
            {
              "pitch": 64,
              "velocity": 86,
              "position": 1.0104166666666667,
              "duration": 0.0625
            },
            {
              "pitch": 55,
              "velocity": 72,
              "position": 1.25,
              "duration": 0.041666666666666664
            },
            {
              "pitch": 59,
              "velocity": 72,
              "position": 1.25,
              "duration": 0.041666666666666664
            },
            {
              "pitch": 64,
              "velocity": 72,
              "position": 1.25,
              "duration": 0.041666666666666664
            },
            {
              "pitch": 55,
              "velocity": 86,
              "position": 1.5,
              "duration": 0.052083333333333336
            },
            {
              "pitch": 59,
              "velocity": 86,
              "position": 1.5,
              "duration": 0.052083333333333336
            },
            {
              "pitch": 64,
              "velocity": 86,
              "position": 1.5,
              "duration": 0.052083333333333336
            },
            {
              "pitch": 55,
              "velocity": 117,
              "position": 1.7604166666666667,
              "duration": 0.23958333333333334
            },
            {
              "pitch": 59,
              "velocity": 117,
              "position": 1.7604166666666667,
              "duration": 0.23958333333333334
            },
            {
              "pitch": 64,
              "velocity": 117,
              "position": 1.7604166666666667,
              "duration": 0.23958333333333334
            },
            {
              "pitch": 55,
              "velocity": 72,
              "position": 2.0104166666666665,
              "duration": 0.23958333333333334
            },
            {
              "pitch": 59,
              "velocity": 72,
              "position": 2.0104166666666665,
              "duration": 0.23958333333333334
            },
            {
              "pitch": 64,
              "velocity": 72,
              "position": 2.0104166666666665,
              "duration": 0.23958333333333334
            },
            {
              "pitch": 55,
              "velocity": 72,
              "position": 2.2604166666666665,
              "duration": 0.21875
            },
            {
              "pitch": 59,
              "velocity": 72,
              "position": 2.2604166666666665,
              "duration": 0.21875
            },
            {
              "pitch": 64,
              "velocity": 72,
              "position": 2.2604166666666665,
              "duration": 0.21875
            },
            {
              "pitch": 55,
              "velocity": 117,
              "position": 2.5,
              "duration": 0.23958333333333334
            },
            {
              "pitch": 59,
              "velocity": 117,
              "position": 2.5,
              "duration": 0.23958333333333334
            },
            {
              "pitch": 64,
              "velocity": 117,
              "position": 2.5,
              "duration": 0.23958333333333334
            },
            {
              "pitch": 55,
              "velocity": 72,
              "position": 2.7604166666666665,
              "duration": 0.041666666666666664
            },
            {
              "pitch": 59,
              "velocity": 72,
              "position": 2.7604166666666665,
              "duration": 0.041666666666666664
            },
            {
              "pitch": 64,
              "velocity": 72,
              "position": 2.7604166666666665,
              "duration": 0.041666666666666664
            },
            {
              "pitch": 55,
              "velocity": 86,
              "position": 3,
              "duration": 0.052083333333333336
            },
            {
              "pitch": 59,
              "velocity": 86,
              "position": 3,
              "duration": 0.052083333333333336
            },
            {
              "pitch": 64,
              "velocity": 86,
              "position": 3,
              "duration": 0.052083333333333336
            },
            {
              "pitch": 55,
              "velocity": 117,
              "position": 3.5104166666666665,
              "duration": 4.479166666666667
            },
            {
              "pitch": 59,
              "velocity": 117,
              "position": 3.5104166666666665,
              "duration": 4.479166666666667
            },
            {
              "pitch": 64,
              "velocity": 117,
              "position": 3.5104166666666665,
              "duration": 4.479166666666667
            }
          ]
        },
        "12": {
          "ctab": {
            "srcChannel": 12,
            "name": "Pno",
            "accType": "CHORD2",
            "editable": false,
            "mutedNotes": [],
            "mutedChords": [],
            "autoStart": false,
            "sourceChordNote": 0,
            "sourceChordType": "Maj7",
            "ctb2Low": null,
            "ctb2Main": {
              "ntr": "ROOT_FIXED",
              "ntt": "CHORD",
              "bassOn": false,
              "chordRootUpperLimit": 7,
              "noteLowLimit": 0,
              "noteHighLimit": 127,
              "rtr": "PITCH_SHIFT"
            },
            "ctb2High": null
          },
          "notes": [
            {
              "pitch": 55,
              "velocity": 100,
              "position": 0.7604166666666666,
              "duration": 0.1875
            },
            {
              "pitch": 59,
              "velocity": 100,
              "position": 0.7604166666666666,
              "duration": 0.1875
            },
            {
              "pitch": 64,
              "velocity": 100,
              "position": 0.7604166666666666,
              "duration": 0.1875
            },
            {
              "pitch": 55,
              "velocity": 82,
              "position": 1.25,
              "duration": 0.1875
            },
            {
              "pitch": 59,
              "velocity": 82,
              "position": 1.25,
              "duration": 0.1875
            },
            {
              "pitch": 64,
              "velocity": 82,
              "position": 1.25,
              "duration": 0.1875
            },
            {
              "pitch": 55,
              "velocity": 100,
              "position": 1.75,
              "duration": 0.9895833333333334
            },
            {
              "pitch": 59,
              "velocity": 100,
              "position": 1.75,
              "duration": 0.9895833333333334
            },
            {
              "pitch": 64,
              "velocity": 100,
              "position": 1.75,
              "duration": 0.9895833333333334
            },
            {
              "pitch": 55,
              "velocity": 82,
              "position": 3,
              "duration": 0.1875
            },
            {
              "pitch": 59,
              "velocity": 82,
              "position": 3,
              "duration": 0.1875
            },
            {
              "pitch": 64,
              "velocity": 82,
              "position": 3,
              "duration": 0.1875
            },
            {
              "pitch": 55,
              "velocity": 100,
              "position": 3.5,
              "duration": 4.489583333333333
            },
            {
              "pitch": 59,
              "velocity": 100,
              "position": 3.5,
              "duration": 4.489583333333333
            },
            {
              "pitch": 64,
              "velocity": 100,
              "position": 3.5,
              "duration": 4.489583333333333
            }
          ]
        },
        "13": {
          "ctab": {
            "srcChannel": 13,
            "name": "Str",
            "accType": "PAD",
            "editable": false,
            "mutedNotes": [],
            "mutedChords": [],
            "autoStart": false,
            "sourceChordNote": 0,
            "sourceChordType": "Maj7",
            "ctb2Low": null,
            "ctb2Main": {
              "ntr": "ROOT_FIXED",
              "ntt": "CHORD",
              "bassOn": false,
              "chordRootUpperLimit": 7,
              "noteLowLimit": 0,
              "noteHighLimit": 127,
              "rtr": "PITCH_SHIFT"
            },
            "ctb2High": null
          },
          "notes": [
            {
              "pitch": 55,
              "velocity": 46,
              "position": 0,
              "duration": 7.989583333333333
            },
            {
              "pitch": 59,
              "velocity": 46,
              "position": 0,
              "duration": 7.989583333333333
            },
            {
              "pitch": 64,
              "velocity": 46,
              "position": 0,
              "duration": 7.989583333333333
            }
          ]
        },
        "15": {
          "ctab": {
            "srcChannel": 15,
            "name": "MtGt",
            "accType": "PHRASE2",
            "editable": false,
            "mutedNotes": [],
            "mutedChords": [],
            "autoStart": false,
            "sourceChordNote": 0,
            "sourceChordType": "Maj7",
            "ctb2Low": null,
            "ctb2Main": {
              "ntr": "ROOT_TRANSPOSITION",
              "ntt": "MELODY",
              "bassOn": false,
              "chordRootUpperLimit": 6,
              "noteLowLimit": 0,
              "noteHighLimit": 127,
              "rtr": "PITCH_SHIFT"
            },
            "ctb2High": null
          },
          "notes": [
            {
              "pitch": 55,
              "velocity": 76,
              "position": 1.28125,
              "duration": 0.0625
            },
            {
              "pitch": 57,
              "velocity": 48,
              "position": 1.5,
              "duration": 0.28125
            },
            {
              "pitch": 55,
              "velocity": 76,
              "position": 1.78125,
              "duration": 0.0625
            },
            {
              "pitch": 60,
              "velocity": 75,
              "position": 2,
              "duration": 0.09375
            },
            {
              "pitch": 60,
              "velocity": 78,
              "position": 2.2916666666666665,
              "duration": 0.14583333333333334
            }
          ]
        }
      }
    },
    "Fill_In_BA": {
      "type": "Fill_In_BA",
      "sizeInBeats": 4,
      "channels": {
        "2": {
          "ctab": {
            "srcChannel": 2,
            "name": "Gt Root",
            "accType": "CHORD1",
            "editable": false,
            "mutedNotes": [],
            "mutedChords": [
              "1+2+5",
              "sus4",
              "1+5",
              "1+8",
              "Maj7aug",
              "dim",
              "minMaj7(9)",
              "minMaj7",
              "min6",
              "min",
              "aug",
              "Maj7(9)",
              "Maj7#11",
              "Maj7",
              "Maj6",
              "Maj"
            ],
            "autoStart": false,
            "sourceChordNote": 0,
            "sourceChordType": "Maj7",
            "ctb2Low": null,
            "ctb2Main": {
              "ntr": "ROOT_TRANSPOSITION",
              "ntt": "CHORD",
              "bassOn": false,
              "chordRootUpperLimit": 6,
              "noteLowLimit": 0,
              "noteHighLimit": 127,
              "rtr": "PITCH_SHIFT"
            },
            "ctb2High": null
          },
          "notes": [
            {
              "pitch": 60,
              "velocity": 116,
              "position": 0.010416666666666666,
              "duration": 0.23958333333333334
            },
            {
              "pitch": 60,
              "velocity": 74,
              "position": 0.2604166666666667,
              "duration": 0.23958333333333334
            },
            {
              "pitch": 60,
              "velocity": 74,
              "position": 0.5104166666666666,
              "duration": 0.22916666666666666
            },
            {
              "pitch": 60,
              "velocity": 116,
              "position": 0.75,
              "duration": 0.23958333333333334
            }
          ]
        },
        "4": {
          "ctab": {
            "srcChannel": 4,
            "name": "Str Root",
            "accType": "PAD",
            "editable": false,
            "mutedNotes": [],
            "mutedChords": [
              "1+2+5",
              "sus4",
              "1+5",
              "1+8",
              "Maj7aug",
              "dim",
              "minMaj7(9)",
              "minMaj7",
              "min6",
              "min",
              "aug",
              "Maj7(9)",
              "Maj7#11",
              "Maj7",
              "Maj6",
              "Maj"
            ],
            "autoStart": false,
            "sourceChordNote": 0,
            "sourceChordType": "Maj7",
            "ctb2Low": null,
            "ctb2Main": {
              "ntr": "ROOT_TRANSPOSITION",
              "ntt": "CHORD",
              "bassOn": false,
              "chordRootUpperLimit": 6,
              "noteLowLimit": 0,
              "noteHighLimit": 127,
              "rtr": "PITCH_SHIFT"
            },
            "ctb2High": null
          },
          "notes": []
        },
        "7": {
          "ctab": {
            "srcChannel": 7,
            "name": "CC_Crash",
            "accType": "RHYTHM",
            "editable": false,
            "mutedNotes": [],
            "mutedChords": [
              "1+2+5",
              "sus4",
              "1+5",
              "1+8",
              "7aug",
              "Maj7aug",
              "7(#9)",
              "7(b13)",
              "7(b9)",
              "7(13)",
              "7#11",
              "7(9)",
              "7b5",
              "7sus4",
              "7th",
              "dim7",
              "dim",
              "minMaj7(9)",
              "minMaj7",
              "min7(11)",
              "min7(9)",
              "min(9)",
              "m7b5",
              "min7",
              "min6",
              "min",
              "aug",
              "Maj6(9)",
              "Maj7(9)",
              "Maj(9)",
              "Maj7#11",
              "Maj7",
              "Maj6",
              "Maj"
            ],
            "autoStart": true,
            "sourceChordNote": 0,
            "sourceChordType": "Maj",
            "ctb2Low": null,
            "ctb2Main": {
              "ntr": "ROOT_FIXED",
              "ntt": "BYPASS",
              "bassOn": false,
              "chordRootUpperLimit": 0,
              "noteLowLimit": 0,
              "noteHighLimit": 127,
              "rtr": "RETRIGGER"
            },
            "ctb2High": null
          },
          "notes": []
        },
        "8": {
          "ctab": {
            "srcChannel": 8,
            "name": "Perc",
            "accType": "SUBRHYTHM",
            "editable": false,
            "mutedNotes": [],
            "mutedChords": [],
            "autoStart": true,
            "sourceChordNote": 0,
            "sourceChordType": "Maj7",
            "ctb2Low": null,
            "ctb2Main": {
              "ntr": "ROOT_FIXED",
              "ntt": "BYPASS",
              "bassOn": false,
              "chordRootUpperLimit": 6,
              "noteLowLimit": 0,
              "noteHighLimit": 127,
              "rtr": "PITCH_SHIFT"
            },
            "ctb2High": null
          },
          "notes": [
            {
              "pitch": 60,
              "velocity": 90,
              "position": 0,
              "duration": 0.03125
            },
            {
              "pitch": 64,
              "velocity": 88,
              "position": 0,
              "duration": 0.03125
            },
            {
              "pitch": 60,
              "velocity": 30,
              "position": 0.28125,
              "duration": 0.041666666666666664
            },
            {
              "pitch": 64,
              "velocity": 71,
              "position": 0.28125,
              "duration": 0.041666666666666664
            },
            {
              "pitch": 61,
              "velocity": 72,
              "position": 0.5,
              "duration": 0.03125
            },
            {
              "pitch": 62,
              "velocity": 89,
              "position": 0.5,
              "duration": 0.03125
            },
            {
              "pitch": 63,
              "velocity": 94,
              "position": 0.78125,
              "duration": 0.041666666666666664
            },
            {
              "pitch": 61,
              "velocity": 79,
              "position": 1,
              "duration": 0.03125
            },
            {
              "pitch": 63,
              "velocity": 73,
              "position": 1.28125,
              "duration": 0.041666666666666664
            },
            {
              "pitch": 63,
              "velocity": 73,
              "position": 1.5,
              "duration": 0.03125
            },
            {
              "pitch": 63,
              "velocity": 42,
              "position": 1.625,
              "duration": 0.041666666666666664
            },
            {
              "pitch": 61,
              "velocity": 92,
              "position": 1.78125,
              "duration": 0.041666666666666664
            },
            {
              "pitch": 63,
              "velocity": 100,
              "position": 1.78125,
              "duration": 0.041666666666666664
            },
            {
              "pitch": 60,
              "velocity": 72,
              "position": 2,
              "duration": 0.03125
            },
            {
              "pitch": 60,
              "velocity": 12,
              "position": 2.28125,
              "duration": 0.041666666666666664
            },
            {
              "pitch": 64,
              "velocity": 86,
              "position": 2.28125,
              "duration": 0.041666666666666664
            },
            {
              "pitch": 61,
              "velocity": 75,
              "position": 2.5,
              "duration": 0.03125
            },
            {
              "pitch": 64,
              "velocity": 72,
              "position": 2.5,
              "duration": 0.03125
            },
            {
              "pitch": 62,
              "velocity": 94,
              "position": 2.78125,
              "duration": 0.041666666666666664
            },
            {
              "pitch": 61,
              "velocity": 93,
              "position": 3,
              "duration": 0.03125
            },
            {
              "pitch": 63,
              "velocity": 85,
              "position": 3,
              "duration": 0.03125
            },
            {
              "pitch": 61,
              "velocity": 105,
              "position": 3.78125,
              "duration": 0.041666666666666664
            },
            {
              "pitch": 49,
              "velocity": 97,
              "position": 3.9895833333333335,
              "duration": 0.010416666666666666
            }
          ]
        },
        "9": {
          "ctab": {
            "srcChannel": 9,
            "name": "Drums",
            "accType": "RHYTHM",
            "editable": false,
            "mutedNotes": [],
            "mutedChords": [],
            "autoStart": true,
            "sourceChordNote": 0,
            "sourceChordType": "Maj7",
            "ctb2Low": null,
            "ctb2Main": {
              "ntr": "ROOT_FIXED",
              "ntt": "BYPASS",
              "bassOn": false,
              "chordRootUpperLimit": 6,
              "noteLowLimit": 0,
              "noteHighLimit": 127,
              "rtr": "PITCH_SHIFT"
            },
            "ctb2High": null
          },
          "notes": [
            {
              "pitch": 33,
              "velocity": 88,
              "position": 0,
              "duration": 0.010416666666666666
            },
            {
              "pitch": 44,
              "velocity": 59,
              "position": 0,
              "duration": 0.010416666666666666
            },
            {
              "pitch": 27,
              "velocity": 80,
              "position": 0.5,
              "duration": 0.010416666666666666
            },
            {
              "pitch": 33,
              "velocity": 77,
              "position": 0.5,
              "duration": 0.010416666666666666
            },
            {
              "pitch": 46,
              "velocity": 76,
              "position": 0.5,
              "duration": 0.010416666666666666
            },
            {
              "pitch": 27,
              "velocity": 127,
              "position": 0.78125,
              "duration": 0.010416666666666666
            },
            {
              "pitch": 55,
              "velocity": 45,
              "position": 0.78125,
              "duration": 0.010416666666666666
            },
            {
              "pitch": 44,
              "velocity": 64,
              "position": 1,
              "duration": 0.010416666666666666
            },
            {
              "pitch": 27,
              "velocity": 59,
              "position": 1.5,
              "duration": 0.010416666666666666
            },
            {
              "pitch": 46,
              "velocity": 76,
              "position": 1.5,
              "duration": 0.010416666666666666
            },
            {
              "pitch": 27,
              "velocity": 127,
              "position": 1.78125,
              "duration": 0.010416666666666666
            },
            {
              "pitch": 27,
              "velocity": 88,
              "position": 2.28125,
              "duration": 0.010416666666666666
            },
            {
              "pitch": 27,
              "velocity": 127,
              "position": 2.5,
              "duration": 0.010416666666666666
            },
            {
              "pitch": 39,
              "velocity": 44,
              "position": 2.75,
              "duration": 0.010416666666666666
            },
            {
              "pitch": 27,
              "velocity": 77,
              "position": 2.78125,
              "duration": 0.010416666666666666
            },
            {
              "pitch": 39,
              "velocity": 91,
              "position": 3,
              "duration": 0.010416666666666666
            },
            {
              "pitch": 44,
              "velocity": 64,
              "position": 3,
              "duration": 0.010416666666666666
            },
            {
              "pitch": 27,
              "velocity": 86,
              "position": 3.28125,
              "duration": 0.010416666666666666
            },
            {
              "pitch": 27,
              "velocity": 127,
              "position": 3.5,
              "duration": 0.010416666666666666
            },
            {
              "pitch": 44,
              "velocity": 59,
              "position": 3.5,
              "duration": 0.010416666666666666
            },
            {
              "pitch": 27,
              "velocity": 67,
              "position": 3.78125,
              "duration": 0.010416666666666666
            },
            {
              "pitch": 33,
              "velocity": 33,
              "position": 3.78125,
              "duration": 0.010416666666666666
            }
          ]
        },
        "10": {
          "ctab": {
            "srcChannel": 10,
            "name": "Bass",
            "accType": "BASS",
            "editable": false,
            "mutedNotes": [],
            "mutedChords": [],
            "autoStart": false,
            "sourceChordNote": 0,
            "sourceChordType": "Maj7",
            "ctb2Low": null,
            "ctb2Main": {
              "ntr": "ROOT_TRANSPOSITION",
              "ntt": "MELODY",
              "bassOn": true,
              "chordRootUpperLimit": 5,
              "noteLowLimit": 28,
              "noteHighLimit": 127,
              "rtr": "PITCH_SHIFT_TO_ROOT"
            },
            "ctb2High": null
          },
          "notes": [
            {
              "pitch": 24,
              "velocity": 100,
              "position": 0,
              "duration": 0.6770833333333334
            },
            {
              "pitch": 24,
              "velocity": 100,
              "position": 0.7604166666666666,
              "duration": 0.3958333333333333
            }
          ]
        },
        "11": {
          "ctab": {
            "srcChannel": 11,
            "name": "Gt",
            "accType": "CHORD1",
            "editable": false,
            "mutedNotes": [],
            "mutedChords": [],
            "autoStart": false,
            "sourceChordNote": 0,
            "sourceChordType": "Maj7",
            "ctb2Low": null,
            "ctb2Main": {
              "ntr": "ROOT_FIXED",
              "ntt": "CHORD",
              "bassOn": false,
              "chordRootUpperLimit": 7,
              "noteLowLimit": 0,
              "noteHighLimit": 127,
              "rtr": "PITCH_SHIFT"
            },
            "ctb2High": null
          },
          "notes": [
            {
              "pitch": 55,
              "velocity": 118,
              "position": 0.010416666666666666,
              "duration": 0.23958333333333334
            },
            {
              "pitch": 59,
              "velocity": 118,
              "position": 0.010416666666666666,
              "duration": 0.23958333333333334
            },
            {
              "pitch": 64,
              "velocity": 118,
              "position": 0.010416666666666666,
              "duration": 0.23958333333333334
            },
            {
              "pitch": 55,
              "velocity": 76,
              "position": 0.2604166666666667,
              "duration": 0.23958333333333334
            },
            {
              "pitch": 59,
              "velocity": 76,
              "position": 0.2604166666666667,
              "duration": 0.23958333333333334
            },
            {
              "pitch": 64,
              "velocity": 76,
              "position": 0.2604166666666667,
              "duration": 0.23958333333333334
            },
            {
              "pitch": 55,
              "velocity": 76,
              "position": 0.5104166666666666,
              "duration": 0.22916666666666666
            },
            {
              "pitch": 59,
              "velocity": 76,
              "position": 0.5104166666666666,
              "duration": 0.22916666666666666
            },
            {
              "pitch": 64,
              "velocity": 76,
              "position": 0.5104166666666666,
              "duration": 0.22916666666666666
            },
            {
              "pitch": 55,
              "velocity": 118,
              "position": 0.75,
              "duration": 0.23958333333333334
            },
            {
              "pitch": 59,
              "velocity": 118,
              "position": 0.75,
              "duration": 0.23958333333333334
            },
            {
              "pitch": 64,
              "velocity": 118,
              "position": 0.75,
              "duration": 0.23958333333333334
            }
          ]
        },
        "12": {
          "ctab": {
            "srcChannel": 12,
            "name": "Pno",
            "accType": "CHORD2",
            "editable": false,
            "mutedNotes": [],
            "mutedChords": [],
            "autoStart": false,
            "sourceChordNote": 0,
            "sourceChordType": "Maj7",
            "ctb2Low": null,
            "ctb2Main": {
              "ntr": "ROOT_FIXED",
              "ntt": "CHORD",
              "bassOn": false,
              "chordRootUpperLimit": 7,
              "noteLowLimit": 0,
              "noteHighLimit": 127,
              "rtr": "PITCH_SHIFT"
            },
            "ctb2High": null
          },
          "notes": [
            {
              "pitch": 55,
              "velocity": 92,
              "position": 0,
              "duration": 0.5
            },
            {
              "pitch": 59,
              "velocity": 92,
              "position": 0,
              "duration": 0.5
            },
            {
              "pitch": 64,
              "velocity": 92,
              "position": 0,
              "duration": 0.5
            },
            {
              "pitch": 55,
              "velocity": 92,
              "position": 0.7604166666666666,
              "duration": 0.1875
            },
            {
              "pitch": 59,
              "velocity": 92,
              "position": 0.7604166666666666,
              "duration": 0.1875
            },
            {
              "pitch": 64,
              "velocity": 92,
              "position": 0.7604166666666666,
              "duration": 0.1875
            }
          ]
        },
        "13": {
          "ctab": {
            "srcChannel": 13,
            "name": "Str",
            "accType": "PAD",
            "editable": false,
            "mutedNotes": [],
            "mutedChords": [],
            "autoStart": false,
            "sourceChordNote": 0,
            "sourceChordType": "Maj7",
            "ctb2Low": null,
            "ctb2Main": {
              "ntr": "ROOT_FIXED",
              "ntt": "CHORD",
              "bassOn": false,
              "chordRootUpperLimit": 7,
              "noteLowLimit": 0,
              "noteHighLimit": 127,
              "rtr": "PITCH_SHIFT"
            },
            "ctb2High": null
          },
          "notes": []
        },
        "15": {
          "ctab": {
            "srcChannel": 15,
            "name": "MtGt",
            "accType": "PHRASE2",
            "editable": false,
            "mutedNotes": [],
            "mutedChords": [],
            "autoStart": false,
            "sourceChordNote": 0,
            "sourceChordType": "Maj7",
            "ctb2Low": null,
            "ctb2Main": {
              "ntr": "ROOT_TRANSPOSITION",
              "ntt": "MELODY",
              "bassOn": false,
              "chordRootUpperLimit": 6,
              "noteLowLimit": 0,
              "noteHighLimit": 127,
              "rtr": "PITCH_SHIFT"
            },
            "ctb2High": null
          },
          "notes": [
            {
              "pitch": 60,
              "velocity": 75,
              "position": 0,
              "duration": 0.10416666666666667
            },
            {
              "pitch": 60,
              "velocity": 46,
              "position": 0.28125,
              "duration": 0.14583333333333334
            },
            {
              "pitch": 60,
              "velocity": 71,
              "position": 0.5,
              "duration": 0.17708333333333334
            },
            {
              "pitch": 60,
              "velocity": 71,
              "position": 0.78125,
              "duration": 0.11458333333333333
            }
          ]
        }
      }
    },
    "Intro_B": {
      "type": "Intro_B",
      "sizeInBeats": 16,
      "channels": {
        "1": {
          "ctab": {
            "srcChannel": 1,
            "name": "Bass",
            "accType": "BASS",
            "editable": false,
            "mutedNotes": [],
            "mutedChords": [
              "1+2+5",
              "sus4",
              "1+5",
              "1+8",
              "7aug",
              "Maj7aug",
              "7(#9)",
              "7(b13)",
              "7(b9)",
              "7(13)",
              "7#11",
              "7(9)",
              "7b5",
              "7sus4",
              "7th",
              "aug",
              "Maj6(9)",
              "Maj7(9)",
              "Maj(9)",
              "Maj7#11",
              "Maj7",
              "Maj6",
              "Maj"
            ],
            "autoStart": false,
            "sourceChordNote": 0,
            "sourceChordType": "min",
            "ctb2Low": null,
            "ctb2Main": {
              "ntr": "ROOT_TRANSPOSITION",
              "ntt": "BYPASS",
              "bassOn": false,
              "chordRootUpperLimit": 8,
              "noteLowLimit": 28,
              "noteHighLimit": 127,
              "rtr": "PITCH_SHIFT"
            },
            "ctb2High": null
          },
          "notes": [
            {
              "pitch": 24,
              "velocity": 100,
              "position": 0.5,
              "duration": 0.5
            },
            {
              "pitch": 31,
              "velocity": 100,
              "position": 1,
              "duration": 0.4583333333333333
            },
            {
              "pitch": 24,
              "velocity": 100,
              "position": 1.5,
              "duration": 0.3541666666666667
            },
            {
              "pitch": 24,
              "velocity": 77,
              "position": 3.5,
              "duration": 0.11458333333333333
            },
            {
              "pitch": 24,
              "velocity": 77,
              "position": 3.78125,
              "duration": 0.20833333333333334
            },
            {
              "pitch": 29,
              "velocity": 100,
              "position": 4.03125,
              "duration": 0.20833333333333334
            },
            {
              "pitch": 29,
              "velocity": 100,
              "position": 4.5,
              "duration": 0.4791666666666667
            },
            {
              "pitch": 24,
              "velocity": 100,
              "position": 5,
              "duration": 0.4583333333333333
            },
            {
              "pitch": 29,
              "velocity": 100,
              "position": 5.5,
              "duration": 0.34375
            },
            {
              "pitch": 24,
              "velocity": 77,
              "position": 7.5,
              "duration": 0.09375
            },
            {
              "pitch": 24,
              "velocity": 62,
              "position": 7.71875,
              "duration": 0.14583333333333334
            },
            {
              "pitch": 24,
              "velocity": 100,
              "position": 8.03125,
              "duration": 0.20833333333333334
            },
            {
              "pitch": 24,
              "velocity": 100,
              "position": 8.5,
              "duration": 0.4791666666666667
            },
            {
              "pitch": 31,
              "velocity": 100,
              "position": 9,
              "duration": 0.4583333333333333
            },
            {
              "pitch": 24,
              "velocity": 100,
              "position": 9.5,
              "duration": 0.34375
            },
            {
              "pitch": 27,
              "velocity": 77,
              "position": 11.5,
              "duration": 0.09375
            },
            {
              "pitch": 27,
              "velocity": 77,
              "position": 11.71875,
              "duration": 0.14583333333333334
            },
            {
              "pitch": 26,
              "velocity": 100,
              "position": 12.03125,
              "duration": 0.20833333333333334
            },
            {
              "pitch": 26,
              "velocity": 100,
              "position": 12.5,
              "duration": 0.4479166666666667
            },
            {
              "pitch": 26,
              "velocity": 100,
              "position": 13,
              "duration": 0.28125
            },
            {
              "pitch": 26,
              "velocity": 100,
              "position": 13.5,
              "duration": 0.4479166666666667
            },
            {
              "pitch": 31,
              "velocity": 100,
              "position": 14,
              "duration": 0.5
            },
            {
              "pitch": 31,
              "velocity": 100,
              "position": 15,
              "duration": 0.5
            }
          ]
        },
        "2": {
          "ctab": {
            "srcChannel": 2,
            "name": "Gt",
            "accType": "CHORD1",
            "editable": false,
            "mutedNotes": [],
            "mutedChords": [
              "1+2+5",
              "sus4",
              "1+5",
              "1+8",
              "7aug",
              "Maj7aug",
              "7(#9)",
              "7(b13)",
              "7(b9)",
              "7(13)",
              "7#11",
              "7(9)",
              "7b5",
              "7sus4",
              "7th",
              "aug",
              "Maj6(9)",
              "Maj7(9)",
              "Maj(9)",
              "Maj7#11",
              "Maj7",
              "Maj6",
              "Maj"
            ],
            "autoStart": false,
            "sourceChordNote": 0,
            "sourceChordType": "min",
            "ctb2Low": null,
            "ctb2Main": {
              "ntr": "ROOT_TRANSPOSITION",
              "ntt": "BYPASS",
              "bassOn": false,
              "chordRootUpperLimit": 8,
              "noteLowLimit": 54,
              "noteHighLimit": 65,
              "rtr": "PITCH_SHIFT"
            },
            "ctb2High": null
          },
          "notes": []
        },
        "3": {
          "ctab": {
            "srcChannel": 3,
            "name": "Pno",
            "accType": "CHORD2",
            "editable": false,
            "mutedNotes": [],
            "mutedChords": [
              "1+2+5",
              "sus4",
              "1+5",
              "1+8",
              "7aug",
              "Maj7aug",
              "7(#9)",
              "7(b13)",
              "7(b9)",
              "7(13)",
              "7#11",
              "7(9)",
              "7b5",
              "7sus4",
              "7th",
              "aug",
              "Maj6(9)",
              "Maj7(9)",
              "Maj(9)",
              "Maj7#11",
              "Maj7",
              "Maj6",
              "Maj"
            ],
            "autoStart": false,
            "sourceChordNote": 0,
            "sourceChordType": "min",
            "ctb2Low": null,
            "ctb2Main": {
              "ntr": "ROOT_TRANSPOSITION",
              "ntt": "BYPASS",
              "bassOn": false,
              "chordRootUpperLimit": 8,
              "noteLowLimit": 54,
              "noteHighLimit": 65,
              "rtr": "PITCH_SHIFT"
            },
            "ctb2High": null
          },
          "notes": [
            {
              "pitch": 55,
              "velocity": 98,
              "position": 2.5,
              "duration": 0.010416666666666666
            },
            {
              "pitch": 58,
              "velocity": 98,
              "position": 2.5,
              "duration": 0.010416666666666666
            },
            {
              "pitch": 62,
              "velocity": 98,
              "position": 2.5,
              "duration": 0.010416666666666666
            },
            {
              "pitch": 63,
              "velocity": 98,
              "position": 2.5,
              "duration": 0.010416666666666666
            },
            {
              "pitch": 55,
              "velocity": 98,
              "position": 3.5,
              "duration": 4.239583333333333
            },
            {
              "pitch": 56,
              "velocity": 98,
              "position": 3.5,
              "duration": 4.239583333333333
            },
            {
              "pitch": 60,
              "velocity": 98,
              "position": 3.5,
              "duration": 4.239583333333333
            },
            {
              "pitch": 63,
              "velocity": 98,
              "position": 3.5,
              "duration": 4.239583333333333
            },
            {
              "pitch": 55,
              "velocity": 98,
              "position": 8,
              "duration": 3.28125
            },
            {
              "pitch": 58,
              "velocity": 98,
              "position": 8,
              "duration": 3.28125
            },
            {
              "pitch": 62,
              "velocity": 98,
              "position": 8,
              "duration": 3.28125
            },
            {
              "pitch": 63,
              "velocity": 98,
              "position": 8,
              "duration": 3.28125
            },
            {
              "pitch": 56,
              "velocity": 98,
              "position": 11.5,
              "duration": 2.4895833333333335
            },
            {
              "pitch": 60,
              "velocity": 98,
              "position": 11.5,
              "duration": 2.4895833333333335
            },
            {
              "pitch": 63,
              "velocity": 98,
              "position": 11.5,
              "duration": 2.4895833333333335
            },
            {
              "pitch": 65,
              "velocity": 98,
              "position": 11.5,
              "duration": 2.4895833333333335
            },
            {
              "pitch": 55,
              "velocity": 98,
              "position": 14,
              "duration": 0.4895833333333333
            },
            {
              "pitch": 59,
              "velocity": 98,
              "position": 14,
              "duration": 0.4895833333333333
            },
            {
              "pitch": 63,
              "velocity": 98,
              "position": 14,
              "duration": 0.4895833333333333
            },
            {
              "pitch": 55,
              "velocity": 98,
              "position": 15,
              "duration": 0.4895833333333333
            },
            {
              "pitch": 59,
              "velocity": 98,
              "position": 15,
              "duration": 0.4895833333333333
            },
            {
              "pitch": 63,
              "velocity": 98,
              "position": 15,
              "duration": 0.4895833333333333
            }
          ]
        },
        "4": {
          "ctab": {
            "srcChannel": 4,
            "name": "Str",
            "accType": "PAD",
            "editable": false,
            "mutedNotes": [],
            "mutedChords": [
              "1+2+5",
              "sus4",
              "1+5",
              "1+8",
              "7aug",
              "Maj7aug",
              "7(#9)",
              "7(b13)",
              "7(b9)",
              "7(13)",
              "7#11",
              "7(9)",
              "7b5",
              "7sus4",
              "7th",
              "aug",
              "Maj6(9)",
              "Maj7(9)",
              "Maj(9)",
              "Maj7#11",
              "Maj7",
              "Maj6",
              "Maj"
            ],
            "autoStart": false,
            "sourceChordNote": 0,
            "sourceChordType": "min",
            "ctb2Low": null,
            "ctb2Main": {
              "ntr": "ROOT_TRANSPOSITION",
              "ntt": "BYPASS",
              "bassOn": false,
              "chordRootUpperLimit": 8,
              "noteLowLimit": 54,
              "noteHighLimit": 77,
              "rtr": "PITCH_SHIFT"
            },
            "ctb2High": null
          },
          "notes": []
        },
        "5": {
          "ctab": {
            "srcChannel": 5,
            "name": "Brs",
            "accType": "PHRASE1",
            "editable": false,
            "mutedNotes": [],
            "mutedChords": [
              "1+2+5",
              "sus4",
              "1+5",
              "1+8",
              "7aug",
              "Maj7aug",
              "7(#9)",
              "7(b13)",
              "7(b9)",
              "7(13)",
              "7#11",
              "7(9)",
              "7b5",
              "7sus4",
              "7th",
              "aug",
              "Maj6(9)",
              "Maj7(9)",
              "Maj(9)",
              "Maj7#11",
              "Maj7",
              "Maj6",
              "Maj"
            ],
            "autoStart": false,
            "sourceChordNote": 0,
            "sourceChordType": "min",
            "ctb2Low": null,
            "ctb2Main": {
              "ntr": "ROOT_TRANSPOSITION",
              "ntt": "BYPASS",
              "bassOn": false,
              "chordRootUpperLimit": 10,
              "noteLowLimit": 43,
              "noteHighLimit": 85,
              "rtr": "PITCH_SHIFT"
            },
            "ctb2High": null
          },
          "notes": []
        },
        "6": {
          "ctab": {
            "srcChannel": 6,
            "name": "MtGt",
            "accType": "PHRASE2",
            "editable": false,
            "mutedNotes": [],
            "mutedChords": [
              "1+2+5",
              "sus4",
              "1+5",
              "1+8",
              "7aug",
              "Maj7aug",
              "7(#9)",
              "7(b13)",
              "7(b9)",
              "7(13)",
              "7#11",
              "7(9)",
              "7b5",
              "7sus4",
              "7th",
              "aug",
              "Maj6(9)",
              "Maj7(9)",
              "Maj(9)",
              "Maj7#11",
              "Maj7",
              "Maj6",
              "Maj"
            ],
            "autoStart": false,
            "sourceChordNote": 0,
            "sourceChordType": "min",
            "ctb2Low": null,
            "ctb2Main": {
              "ntr": "ROOT_TRANSPOSITION",
              "ntt": "BYPASS",
              "bassOn": false,
              "chordRootUpperLimit": 6,
              "noteLowLimit": 0,
              "noteHighLimit": 127,
              "rtr": "PITCH_SHIFT"
            },
            "ctb2High": null
          },
          "notes": [
            {
              "pitch": 58,
              "velocity": 75,
              "position": 0.010416666666666666,
              "duration": 0.10416666666666667
            },
            {
              "pitch": 58,
              "velocity": 44,
              "position": 0.2708333333333333,
              "duration": 0.13541666666666666
            },
            {
              "pitch": 60,
              "velocity": 69,
              "position": 0.5,
              "duration": 0.17708333333333334
            },
            {
              "pitch": 63,
              "velocity": 73,
              "position": 0.7708333333333334,
              "duration": 0.11458333333333333
            },
            {
              "pitch": 63,
              "velocity": 76,
              "position": 1.2708333333333333,
              "duration": 0.052083333333333336
            },
            {
              "pitch": 60,
              "velocity": 48,
              "position": 1.5,
              "duration": 0.28125
            },
            {
              "pitch": 55,
              "velocity": 76,
              "position": 1.7708333333333333,
              "duration": 0.0625
            },
            {
              "pitch": 58,
              "velocity": 75,
              "position": 2,
              "duration": 0.09375
            },
            {
              "pitch": 58,
              "velocity": 78,
              "position": 2.2708333333333335,
              "duration": 0.13541666666666666
            },
            {
              "pitch": 60,
              "velocity": 71,
              "position": 2.5,
              "duration": 0.28125
            },
            {
              "pitch": 63,
              "velocity": 71,
              "position": 2.7708333333333335,
              "duration": 0.11458333333333333
            },
            {
              "pitch": 58,
              "velocity": 78,
              "position": 3.2708333333333335,
              "duration": 0.052083333333333336
            },
            {
              "pitch": 60,
              "velocity": 56,
              "position": 3.5,
              "duration": 0.28125
            },
            {
              "pitch": 55,
              "velocity": 78,
              "position": 3.7708333333333335,
              "duration": 0.0625
            },
            {
              "pitch": 58,
              "velocity": 75,
              "position": 4,
              "duration": 0.10416666666666667
            },
            {
              "pitch": 58,
              "velocity": 44,
              "position": 4.270833333333333,
              "duration": 0.13541666666666666
            },
            {
              "pitch": 60,
              "velocity": 69,
              "position": 4.5,
              "duration": 0.17708333333333334
            },
            {
              "pitch": 63,
              "velocity": 73,
              "position": 4.770833333333333,
              "duration": 0.11458333333333333
            },
            {
              "pitch": 63,
              "velocity": 76,
              "position": 5.270833333333333,
              "duration": 0.052083333333333336
            },
            {
              "pitch": 60,
              "velocity": 48,
              "position": 5.5,
              "duration": 0.28125
            },
            {
              "pitch": 55,
              "velocity": 76,
              "position": 5.770833333333333,
              "duration": 0.0625
            },
            {
              "pitch": 58,
              "velocity": 75,
              "position": 6,
              "duration": 0.09375
            },
            {
              "pitch": 58,
              "velocity": 78,
              "position": 6.270833333333333,
              "duration": 0.13541666666666666
            },
            {
              "pitch": 60,
              "velocity": 71,
              "position": 6.5,
              "duration": 0.28125
            },
            {
              "pitch": 63,
              "velocity": 71,
              "position": 6.770833333333333,
              "duration": 0.11458333333333333
            },
            {
              "pitch": 58,
              "velocity": 78,
              "position": 7.270833333333333,
              "duration": 0.052083333333333336
            },
            {
              "pitch": 60,
              "velocity": 56,
              "position": 7.5,
              "duration": 0.28125
            },
            {
              "pitch": 55,
              "velocity": 78,
              "position": 7.770833333333333,
              "duration": 0.0625
            },
            {
              "pitch": 58,
              "velocity": 75,
              "position": 8,
              "duration": 0.10416666666666667
            },
            {
              "pitch": 58,
              "velocity": 44,
              "position": 8.270833333333334,
              "duration": 0.13541666666666666
            },
            {
              "pitch": 60,
              "velocity": 69,
              "position": 8.5,
              "duration": 0.17708333333333334
            },
            {
              "pitch": 63,
              "velocity": 73,
              "position": 8.770833333333334,
              "duration": 0.11458333333333333
            },
            {
              "pitch": 63,
              "velocity": 76,
              "position": 9.270833333333334,
              "duration": 0.052083333333333336
            },
            {
              "pitch": 60,
              "velocity": 48,
              "position": 9.5,
              "duration": 0.28125
            },
            {
              "pitch": 55,
              "velocity": 76,
              "position": 9.770833333333334,
              "duration": 0.0625
            },
            {
              "pitch": 58,
              "velocity": 75,
              "position": 10,
              "duration": 0.09375
            },
            {
              "pitch": 58,
              "velocity": 78,
              "position": 10.270833333333334,
              "duration": 0.13541666666666666
            },
            {
              "pitch": 60,
              "velocity": 71,
              "position": 10.5,
              "duration": 0.28125
            },
            {
              "pitch": 63,
              "velocity": 71,
              "position": 10.770833333333334,
              "duration": 0.11458333333333333
            },
            {
              "pitch": 58,
              "velocity": 78,
              "position": 11.270833333333334,
              "duration": 0.052083333333333336
            },
            {
              "pitch": 60,
              "velocity": 56,
              "position": 11.5,
              "duration": 0.28125
            },
            {
              "pitch": 55,
              "velocity": 78,
              "position": 11.770833333333334,
              "duration": 0.0625
            },
            {
              "pitch": 58,
              "velocity": 75,
              "position": 12,
              "duration": 0.10416666666666667
            },
            {
              "pitch": 58,
              "velocity": 44,
              "position": 12.270833333333334,
              "duration": 0.13541666666666666
            },
            {
              "pitch": 60,
              "velocity": 69,
              "position": 12.5,
              "duration": 0.17708333333333334
            },
            {
              "pitch": 63,
              "velocity": 73,
              "position": 12.770833333333334,
              "duration": 0.11458333333333333
            },
            {
              "pitch": 63,
              "velocity": 76,
              "position": 13.270833333333334,
              "duration": 0.052083333333333336
            },
            {
              "pitch": 60,
              "velocity": 48,
              "position": 13.5,
              "duration": 0.28125
            },
            {
              "pitch": 58,
              "velocity": 76,
              "position": 13.770833333333334,
              "duration": 0.0625
            },
            {
              "pitch": 63,
              "velocity": 75,
              "position": 14,
              "duration": 0.09375
            },
            {
              "pitch": 63,
              "velocity": 75,
              "position": 15,
              "duration": 0.09375
            }
          ]
        },
        "8": {
          "ctab": {
            "srcChannel": 8,
            "name": "Perc",
            "accType": "SUBRHYTHM",
            "editable": false,
            "mutedNotes": [],
            "mutedChords": [],
            "autoStart": true,
            "sourceChordNote": 0,
            "sourceChordType": "Maj7",
            "ctb2Low": null,
            "ctb2Main": {
              "ntr": "ROOT_FIXED",
              "ntt": "BYPASS",
              "bassOn": false,
              "chordRootUpperLimit": 6,
              "noteLowLimit": 0,
              "noteHighLimit": 127,
              "rtr": "PITCH_SHIFT"
            },
            "ctb2High": null
          },
          "notes": [
            {
              "pitch": 64,
              "velocity": 97,
              "position": 12,
              "duration": 0.03125
            },
            {
              "pitch": 64,
              "velocity": 94,
              "position": 12.28125,
              "duration": 0.041666666666666664
            },
            {
              "pitch": 62,
              "velocity": 100,
              "position": 12.5,
              "duration": 0.03125
            },
            {
              "pitch": 63,
              "velocity": 88,
              "position": 12.78125,
              "duration": 0.041666666666666664
            },
            {
              "pitch": 63,
              "velocity": 96,
              "position": 13.28125,
              "duration": 0.041666666666666664
            },
            {
              "pitch": 63,
              "velocity": 99,
              "position": 13.78125,
              "duration": 0.041666666666666664
            },
            {
              "pitch": 64,
              "velocity": 97,
              "position": 14,
              "duration": 0.03125
            },
            {
              "pitch": 63,
              "velocity": 99,
              "position": 15,
              "duration": 0.03125
            }
          ]
        },
        "9": {
          "ctab": {
            "srcChannel": 9,
            "name": "Drums",
            "accType": "RHYTHM",
            "editable": false,
            "mutedNotes": [],
            "mutedChords": [],
            "autoStart": true,
            "sourceChordNote": 0,
            "sourceChordType": "Maj7",
            "ctb2Low": null,
            "ctb2Main": {
              "ntr": "ROOT_FIXED",
              "ntt": "BYPASS",
              "bassOn": false,
              "chordRootUpperLimit": 6,
              "noteLowLimit": 0,
              "noteHighLimit": 127,
              "rtr": "PITCH_SHIFT"
            },
            "ctb2High": null
          },
          "notes": [
            {
              "pitch": 33,
              "velocity": 15,
              "position": 0.010416666666666666,
              "duration": 0.010416666666666666
            },
            {
              "pitch": 44,
              "velocity": 59,
              "position": 0.010416666666666666,
              "duration": 0.010416666666666666
            },
            {
              "pitch": 46,
              "velocity": 76,
              "position": 0.5,
              "duration": 0.010416666666666666
            },
            {
              "pitch": 42,
              "velocity": 41,
              "position": 0.78125,
              "duration": 0.010416666666666666
            },
            {
              "pitch": 33,
              "velocity": 19,
              "position": 1,
              "duration": 0.010416666666666666
            },
            {
              "pitch": 39,
              "velocity": 40,
              "position": 1,
              "duration": 0.010416666666666666
            },
            {
              "pitch": 42,
              "velocity": 71,
              "position": 1,
              "duration": 0.010416666666666666
            },
            {
              "pitch": 44,
              "velocity": 59,
              "position": 1.5,
              "duration": 0.010416666666666666
            },
            {
              "pitch": 42,
              "velocity": 41,
              "position": 1.78125,
              "duration": 0.010416666666666666
            },
            {
              "pitch": 33,
              "velocity": 24,
              "position": 2,
              "duration": 0.010416666666666666
            },
            {
              "pitch": 42,
              "velocity": 71,
              "position": 2,
              "duration": 0.010416666666666666
            },
            {
              "pitch": 44,
              "velocity": 59,
              "position": 2.28125,
              "duration": 0.010416666666666666
            },
            {
              "pitch": 46,
              "velocity": 76,
              "position": 2.5,
              "duration": 0.010416666666666666
            },
            {
              "pitch": 42,
              "velocity": 58,
              "position": 2.78125,
              "duration": 0.010416666666666666
            },
            {
              "pitch": 33,
              "velocity": 29,
              "position": 3,
              "duration": 0.010416666666666666
            },
            {
              "pitch": 39,
              "velocity": 54,
              "position": 3,
              "duration": 0.010416666666666666
            },
            {
              "pitch": 42,
              "velocity": 71,
              "position": 3,
              "duration": 0.010416666666666666
            },
            {
              "pitch": 44,
              "velocity": 59,
              "position": 3.5,
              "duration": 0.010416666666666666
            },
            {
              "pitch": 42,
              "velocity": 41,
              "position": 3.78125,
              "duration": 0.010416666666666666
            },
            {
              "pitch": 44,
              "velocity": 59,
              "position": 3.78125,
              "duration": 0.010416666666666666
            },
            {
              "pitch": 33,
              "velocity": 35,
              "position": 4,
              "duration": 0.010416666666666666
            },
            {
              "pitch": 44,
              "velocity": 59,
              "position": 4,
              "duration": 0.010416666666666666
            },
            {
              "pitch": 46,
              "velocity": 76,
              "position": 4.5,
              "duration": 0.010416666666666666
            },
            {
              "pitch": 42,
              "velocity": 41,
              "position": 4.78125,
              "duration": 0.010416666666666666
            },
            {
              "pitch": 33,
              "velocity": 35,
              "position": 5,
              "duration": 0.010416666666666666
            },
            {
              "pitch": 39,
              "velocity": 64,
              "position": 5,
              "duration": 0.010416666666666666
            },
            {
              "pitch": 42,
              "velocity": 71,
              "position": 5,
              "duration": 0.010416666666666666
            },
            {
              "pitch": 44,
              "velocity": 59,
              "position": 5.5,
              "duration": 0.010416666666666666
            },
            {
              "pitch": 42,
              "velocity": 41,
              "position": 5.78125,
              "duration": 0.010416666666666666
            },
            {
              "pitch": 33,
              "velocity": 44,
              "position": 6,
              "duration": 0.010416666666666666
            },
            {
              "pitch": 42,
              "velocity": 71,
              "position": 6,
              "duration": 0.010416666666666666
            },
            {
              "pitch": 44,
              "velocity": 59,
              "position": 6.28125,
              "duration": 0.010416666666666666
            },
            {
              "pitch": 33,
              "velocity": 50,
              "position": 6.5,
              "duration": 0.010416666666666666
            },
            {
              "pitch": 46,
              "velocity": 76,
              "position": 6.5,
              "duration": 0.010416666666666666
            },
            {
              "pitch": 42,
              "velocity": 58,
              "position": 6.78125,
              "duration": 0.010416666666666666
            },
            {
              "pitch": 25,
              "velocity": 110,
              "position": 7,
              "duration": 0.010416666666666666
            },
            {
              "pitch": 33,
              "velocity": 56,
              "position": 7,
              "duration": 0.010416666666666666
            },
            {
              "pitch": 39,
              "velocity": 91,
              "position": 7,
              "duration": 0.010416666666666666
            },
            {
              "pitch": 42,
              "velocity": 71,
              "position": 7,
              "duration": 0.010416666666666666
            },
            {
              "pitch": 44,
              "velocity": 59,
              "position": 7.5,
              "duration": 0.010416666666666666
            },
            {
              "pitch": 42,
              "velocity": 41,
              "position": 7.78125,
              "duration": 0.010416666666666666
            },
            {
              "pitch": 44,
              "velocity": 59,
              "position": 7.78125,
              "duration": 0.010416666666666666
            },
            {
              "pitch": 33,
              "velocity": 64,
              "position": 8,
              "duration": 0.010416666666666666
            },
            {
              "pitch": 44,
              "velocity": 59,
              "position": 8,
              "duration": 0.010416666666666666
            },
            {
              "pitch": 46,
              "velocity": 76,
              "position": 8.5,
              "duration": 0.010416666666666666
            },
            {
              "pitch": 42,
              "velocity": 41,
              "position": 8.78125,
              "duration": 0.010416666666666666
            },
            {
              "pitch": 25,
              "velocity": 110,
              "position": 9,
              "duration": 0.010416666666666666
            },
            {
              "pitch": 33,
              "velocity": 71,
              "position": 9,
              "duration": 0.010416666666666666
            },
            {
              "pitch": 39,
              "velocity": 91,
              "position": 9,
              "duration": 0.010416666666666666
            },
            {
              "pitch": 42,
              "velocity": 71,
              "position": 9,
              "duration": 0.010416666666666666
            },
            {
              "pitch": 44,
              "velocity": 59,
              "position": 9.5,
              "duration": 0.010416666666666666
            },
            {
              "pitch": 42,
              "velocity": 41,
              "position": 9.78125,
              "duration": 0.010416666666666666
            },
            {
              "pitch": 33,
              "velocity": 77,
              "position": 10,
              "duration": 0.010416666666666666
            },
            {
              "pitch": 42,
              "velocity": 71,
              "position": 10,
              "duration": 0.010416666666666666
            },
            {
              "pitch": 44,
              "velocity": 59,
              "position": 10.28125,
              "duration": 0.010416666666666666
            },
            {
              "pitch": 46,
              "velocity": 76,
              "position": 10.5,
              "duration": 0.010416666666666666
            },
            {
              "pitch": 42,
              "velocity": 58,
              "position": 10.78125,
              "duration": 0.010416666666666666
            },
            {
              "pitch": 25,
              "velocity": 110,
              "position": 11,
              "duration": 0.010416666666666666
            },
            {
              "pitch": 33,
              "velocity": 82,
              "position": 11,
              "duration": 0.010416666666666666
            },
            {
              "pitch": 39,
              "velocity": 91,
              "position": 11,
              "duration": 0.010416666666666666
            },
            {
              "pitch": 42,
              "velocity": 71,
              "position": 11,
              "duration": 0.010416666666666666
            },
            {
              "pitch": 44,
              "velocity": 59,
              "position": 11.5,
              "duration": 0.010416666666666666
            },
            {
              "pitch": 42,
              "velocity": 41,
              "position": 11.78125,
              "duration": 0.010416666666666666
            },
            {
              "pitch": 44,
              "velocity": 59,
              "position": 11.78125,
              "duration": 0.010416666666666666
            },
            {
              "pitch": 33,
              "velocity": 82,
              "position": 12,
              "duration": 0.010416666666666666
            },
            {
              "pitch": 42,
              "velocity": 41,
              "position": 12,
              "duration": 0.010416666666666666
            },
            {
              "pitch": 44,
              "velocity": 59,
              "position": 12.28125,
              "duration": 0.010416666666666666
            },
            {
              "pitch": 46,
              "velocity": 76,
              "position": 12.5,
              "duration": 0.010416666666666666
            },
            {
              "pitch": 42,
              "velocity": 41,
              "position": 12.78125,
              "duration": 0.010416666666666666
            },
            {
              "pitch": 25,
              "velocity": 110,
              "position": 13,
              "duration": 0.010416666666666666
            },
            {
              "pitch": 33,
              "velocity": 82,
              "position": 13,
              "duration": 0.010416666666666666
            },
            {
              "pitch": 39,
              "velocity": 91,
              "position": 13,
              "duration": 0.010416666666666666
            },
            {
              "pitch": 42,
              "velocity": 71,
              "position": 13,
              "duration": 0.010416666666666666
            },
            {
              "pitch": 44,
              "velocity": 59,
              "position": 13.28125,
              "duration": 0.010416666666666666
            },
            {
              "pitch": 44,
              "velocity": 59,
              "position": 13.5,
              "duration": 0.010416666666666666
            },
            {
              "pitch": 42,
              "velocity": 41,
              "position": 13.78125,
              "duration": 0.010416666666666666
            },
            {
              "pitch": 25,
              "velocity": 110,
              "position": 14,
              "duration": 0.010416666666666666
            },
            {
              "pitch": 33,
              "velocity": 82,
              "position": 14,
              "duration": 0.010416666666666666
            },
            {
              "pitch": 46,
              "velocity": 76,
              "position": 14.03125,
              "duration": 0.010416666666666666
            },
            {
              "pitch": 44,
              "velocity": 1,
              "position": 14.395833333333334,
              "duration": 0.010416666666666666
            },
            {
              "pitch": 28,
              "velocity": 80,
              "position": 13.427083333333334,
              "duration": 1.5729166666666667
            },
            {
              "pitch": 25,
              "velocity": 110,
              "position": 15,
              "duration": 0.010416666666666666
            },
            {
              "pitch": 33,
              "velocity": 88,
              "position": 15,
              "duration": 0.010416666666666666
            },
            {
              "pitch": 39,
              "velocity": 91,
              "position": 15,
              "duration": 0.010416666666666666
            },
            {
              "pitch": 46,
              "velocity": 76,
              "position": 15.03125,
              "duration": 0.010416666666666666
            },
            {
              "pitch": 44,
              "velocity": 1,
              "position": 15.395833333333334,
              "duration": 0.010416666666666666
            }
          ]
        },
        "10": {
          "ctab": {
            "srcChannel": 10,
            "name": "Bass",
            "accType": "BASS",
            "editable": false,
            "mutedNotes": [],
            "mutedChords": [
              "dim7",
              "dim",
              "minMaj7(9)",
              "minMaj7",
              "min7(11)",
              "min7(9)",
              "min(9)",
              "m7b5",
              "min7",
              "min6",
              "min"
            ],
            "autoStart": false,
            "sourceChordNote": 0,
            "sourceChordType": "Maj",
            "ctb2Low": null,
            "ctb2Main": {
              "ntr": "ROOT_TRANSPOSITION",
              "ntt": "BYPASS",
              "bassOn": false,
              "chordRootUpperLimit": 8,
              "noteLowLimit": 28,
              "noteHighLimit": 127,
              "rtr": "PITCH_SHIFT"
            },
            "ctb2High": null
          },
          "notes": [
            {
              "pitch": 24,
              "velocity": 100,
              "position": 0.5,
              "duration": 0.5
            },
            {
              "pitch": 31,
              "velocity": 100,
              "position": 1,
              "duration": 0.4583333333333333
            },
            {
              "pitch": 24,
              "velocity": 100,
              "position": 1.5,
              "duration": 0.3541666666666667
            },
            {
              "pitch": 24,
              "velocity": 100,
              "position": 3.5,
              "duration": 0.11458333333333333
            },
            {
              "pitch": 24,
              "velocity": 100,
              "position": 3.78125,
              "duration": 0.20833333333333334
            },
            {
              "pitch": 29,
              "velocity": 100,
              "position": 4.03125,
              "duration": 0.20833333333333334
            },
            {
              "pitch": 29,
              "velocity": 100,
              "position": 4.5,
              "duration": 0.4791666666666667
            },
            {
              "pitch": 24,
              "velocity": 100,
              "position": 5,
              "duration": 0.4583333333333333
            },
            {
              "pitch": 29,
              "velocity": 100,
              "position": 5.5,
              "duration": 0.34375
            },
            {
              "pitch": 29,
              "velocity": 100,
              "position": 7.5,
              "duration": 0.09375
            },
            {
              "pitch": 29,
              "velocity": 100,
              "position": 7.71875,
              "duration": 0.14583333333333334
            },
            {
              "pitch": 28,
              "velocity": 100,
              "position": 8.03125,
              "duration": 0.20833333333333334
            },
            {
              "pitch": 28,
              "velocity": 100,
              "position": 8.5,
              "duration": 0.4791666666666667
            },
            {
              "pitch": 26,
              "velocity": 100,
              "position": 9,
              "duration": 0.4583333333333333
            },
            {
              "pitch": 28,
              "velocity": 100,
              "position": 9.5,
              "duration": 0.34375
            },
            {
              "pitch": 28,
              "velocity": 100,
              "position": 11.5,
              "duration": 0.09375
            },
            {
              "pitch": 28,
              "velocity": 100,
              "position": 11.71875,
              "duration": 0.14583333333333334
            },
            {
              "pitch": 26,
              "velocity": 100,
              "position": 12.03125,
              "duration": 0.20833333333333334
            },
            {
              "pitch": 26,
              "velocity": 100,
              "position": 12.5,
              "duration": 0.4479166666666667
            },
            {
              "pitch": 26,
              "velocity": 100,
              "position": 13,
              "duration": 0.28125
            },
            {
              "pitch": 26,
              "velocity": 100,
              "position": 13.5,
              "duration": 0.4479166666666667
            },
            {
              "pitch": 31,
              "velocity": 100,
              "position": 14,
              "duration": 0.5
            },
            {
              "pitch": 31,
              "velocity": 100,
              "position": 15,
              "duration": 0.5
            }
          ]
        },
        "11": {
          "ctab": {
            "srcChannel": 11,
            "name": "Gt",
            "accType": "CHORD1",
            "editable": false,
            "mutedNotes": [],
            "mutedChords": [
              "dim7",
              "dim",
              "minMaj7(9)",
              "minMaj7",
              "min7(11)",
              "min7(9)",
              "min(9)",
              "m7b5",
              "min7",
              "min6",
              "min"
            ],
            "autoStart": false,
            "sourceChordNote": 0,
            "sourceChordType": "Maj",
            "ctb2Low": null,
            "ctb2Main": {
              "ntr": "ROOT_TRANSPOSITION",
              "ntt": "BYPASS",
              "bassOn": false,
              "chordRootUpperLimit": 8,
              "noteLowLimit": 54,
              "noteHighLimit": 65,
              "rtr": "PITCH_SHIFT"
            },
            "ctb2High": null
          },
          "notes": []
        },
        "12": {
          "ctab": {
            "srcChannel": 12,
            "name": "Pno",
            "accType": "CHORD2",
            "editable": false,
            "mutedNotes": [],
            "mutedChords": [
              "dim7",
              "dim",
              "minMaj7(9)",
              "minMaj7",
              "min7(11)",
              "min7(9)",
              "min(9)",
              "m7b5",
              "min7",
              "min6",
              "min"
            ],
            "autoStart": false,
            "sourceChordNote": 0,
            "sourceChordType": "Maj",
            "ctb2Low": null,
            "ctb2Main": {
              "ntr": "ROOT_TRANSPOSITION",
              "ntt": "BYPASS",
              "bassOn": false,
              "chordRootUpperLimit": 8,
              "noteLowLimit": 54,
              "noteHighLimit": 65,
              "rtr": "PITCH_SHIFT"
            },
            "ctb2High": null
          },
          "notes": [
            {
              "pitch": 55,
              "velocity": 98,
              "position": 2.5,
              "duration": 0.010416666666666666
            },
            {
              "pitch": 59,
              "velocity": 98,
              "position": 2.5,
              "duration": 0.010416666666666666
            },
            {
              "pitch": 60,
              "velocity": 98,
              "position": 2.5,
              "duration": 0.010416666666666666
            },
            {
              "pitch": 64,
              "velocity": 98,
              "position": 2.5,
              "duration": 0.010416666666666666
            },
            {
              "pitch": 57,
              "velocity": 98,
              "position": 3.5,
              "duration": 4.239583333333333
            },
            {
              "pitch": 60,
              "velocity": 98,
              "position": 3.5,
              "duration": 4.239583333333333
            },
            {
              "pitch": 64,
              "velocity": 98,
              "position": 3.5,
              "duration": 4.239583333333333
            },
            {
              "pitch": 55,
              "velocity": 98,
              "position": 8,
              "duration": 3.28125
            },
            {
              "pitch": 59,
              "velocity": 98,
              "position": 8,
              "duration": 3.28125
            },
            {
              "pitch": 62,
              "velocity": 98,
              "position": 8,
              "duration": 3.28125
            },
            {
              "pitch": 57,
              "velocity": 98,
              "position": 11.5,
              "duration": 2.4895833333333335
            },
            {
              "pitch": 60,
              "velocity": 98,
              "position": 11.5,
              "duration": 2.4895833333333335
            },
            {
              "pitch": 65,
              "velocity": 98,
              "position": 11.5,
              "duration": 2.4895833333333335
            },
            {
              "pitch": 57,
              "velocity": 98,
              "position": 14,
              "duration": 0.4895833333333333
            },
            {
              "pitch": 60,
              "velocity": 98,
              "position": 14,
              "duration": 0.4895833333333333
            },
            {
              "pitch": 65,
              "velocity": 98,
              "position": 14,
              "duration": 0.4895833333333333
            },
            {
              "pitch": 57,
              "velocity": 98,
              "position": 15,
              "duration": 0.4895833333333333
            },
            {
              "pitch": 60,
              "velocity": 98,
              "position": 15,
              "duration": 0.4895833333333333
            },
            {
              "pitch": 65,
              "velocity": 98,
              "position": 15,
              "duration": 0.4895833333333333
            }
          ]
        },
        "13": {
          "ctab": {
            "srcChannel": 13,
            "name": "Str",
            "accType": "PAD",
            "editable": false,
            "mutedNotes": [],
            "mutedChords": [
              "dim7",
              "dim",
              "minMaj7(9)",
              "minMaj7",
              "min7(11)",
              "min7(9)",
              "min(9)",
              "m7b5",
              "min7",
              "min6",
              "min"
            ],
            "autoStart": false,
            "sourceChordNote": 0,
            "sourceChordType": "Maj",
            "ctb2Low": null,
            "ctb2Main": {
              "ntr": "ROOT_TRANSPOSITION",
              "ntt": "BYPASS",
              "bassOn": false,
              "chordRootUpperLimit": 8,
              "noteLowLimit": 54,
              "noteHighLimit": 77,
              "rtr": "PITCH_SHIFT"
            },
            "ctb2High": null
          },
          "notes": []
        },
        "14": {
          "ctab": {
            "srcChannel": 14,
            "name": "Brs",
            "accType": "PHRASE1",
            "editable": false,
            "mutedNotes": [],
            "mutedChords": [
              "dim7",
              "dim",
              "minMaj7(9)",
              "minMaj7",
              "min7(11)",
              "min7(9)",
              "min(9)",
              "m7b5",
              "min7",
              "min6",
              "min"
            ],
            "autoStart": false,
            "sourceChordNote": 0,
            "sourceChordType": "Maj",
            "ctb2Low": null,
            "ctb2Main": {
              "ntr": "ROOT_TRANSPOSITION",
              "ntt": "BYPASS",
              "bassOn": false,
              "chordRootUpperLimit": 10,
              "noteLowLimit": 43,
              "noteHighLimit": 127,
              "rtr": "PITCH_SHIFT"
            },
            "ctb2High": null
          },
          "notes": []
        },
        "15": {
          "ctab": {
            "srcChannel": 15,
            "name": "MtGt",
            "accType": "PHRASE2",
            "editable": false,
            "mutedNotes": [],
            "mutedChords": [
              "dim7",
              "dim",
              "minMaj7(9)",
              "minMaj7",
              "min7(11)",
              "min7(9)",
              "min(9)",
              "m7b5",
              "min7",
              "min6",
              "min"
            ],
            "autoStart": false,
            "sourceChordNote": 0,
            "sourceChordType": "Maj",
            "ctb2Low": null,
            "ctb2Main": {
              "ntr": "ROOT_TRANSPOSITION",
              "ntt": "BYPASS",
              "bassOn": false,
              "chordRootUpperLimit": 6,
              "noteLowLimit": 0,
              "noteHighLimit": 127,
              "rtr": "PITCH_SHIFT"
            },
            "ctb2High": null
          },
          "notes": [
            {
              "pitch": 55,
              "velocity": 75,
              "position": 0.010416666666666666,
              "duration": 0.10416666666666667
            },
            {
              "pitch": 55,
              "velocity": 44,
              "position": 0.2708333333333333,
              "duration": 0.13541666666666666
            },
            {
              "pitch": 57,
              "velocity": 69,
              "position": 0.5,
              "duration": 0.17708333333333334
            },
            {
              "pitch": 60,
              "velocity": 73,
              "position": 0.7708333333333334,
              "duration": 0.11458333333333333
            },
            {
              "pitch": 60,
              "velocity": 76,
              "position": 1.2708333333333333,
              "duration": 0.052083333333333336
            },
            {
              "pitch": 57,
              "velocity": 48,
              "position": 1.5,
              "duration": 0.28125
            },
            {
              "pitch": 52,
              "velocity": 76,
              "position": 1.7708333333333333,
              "duration": 0.0625
            },
            {
              "pitch": 55,
              "velocity": 75,
              "position": 2,
              "duration": 0.09375
            },
            {
              "pitch": 55,
              "velocity": 78,
              "position": 2.2708333333333335,
              "duration": 0.13541666666666666
            },
            {
              "pitch": 57,
              "velocity": 71,
              "position": 2.5,
              "duration": 0.28125
            },
            {
              "pitch": 60,
              "velocity": 71,
              "position": 2.7708333333333335,
              "duration": 0.11458333333333333
            },
            {
              "pitch": 55,
              "velocity": 78,
              "position": 3.2708333333333335,
              "duration": 0.052083333333333336
            },
            {
              "pitch": 57,
              "velocity": 56,
              "position": 3.5,
              "duration": 0.28125
            },
            {
              "pitch": 52,
              "velocity": 78,
              "position": 3.7708333333333335,
              "duration": 0.0625
            },
            {
              "pitch": 55,
              "velocity": 75,
              "position": 4,
              "duration": 0.10416666666666667
            },
            {
              "pitch": 55,
              "velocity": 44,
              "position": 4.270833333333333,
              "duration": 0.13541666666666666
            },
            {
              "pitch": 57,
              "velocity": 69,
              "position": 4.5,
              "duration": 0.17708333333333334
            },
            {
              "pitch": 60,
              "velocity": 73,
              "position": 4.770833333333333,
              "duration": 0.11458333333333333
            },
            {
              "pitch": 60,
              "velocity": 76,
              "position": 5.270833333333333,
              "duration": 0.052083333333333336
            },
            {
              "pitch": 57,
              "velocity": 48,
              "position": 5.5,
              "duration": 0.28125
            },
            {
              "pitch": 52,
              "velocity": 76,
              "position": 5.770833333333333,
              "duration": 0.0625
            },
            {
              "pitch": 55,
              "velocity": 75,
              "position": 6,
              "duration": 0.09375
            },
            {
              "pitch": 55,
              "velocity": 78,
              "position": 6.270833333333333,
              "duration": 0.13541666666666666
            },
            {
              "pitch": 57,
              "velocity": 71,
              "position": 6.5,
              "duration": 0.28125
            },
            {
              "pitch": 60,
              "velocity": 71,
              "position": 6.770833333333333,
              "duration": 0.11458333333333333
            },
            {
              "pitch": 55,
              "velocity": 78,
              "position": 7.270833333333333,
              "duration": 0.052083333333333336
            },
            {
              "pitch": 57,
              "velocity": 56,
              "position": 7.5,
              "duration": 0.28125
            },
            {
              "pitch": 52,
              "velocity": 78,
              "position": 7.770833333333333,
              "duration": 0.0625
            },
            {
              "pitch": 55,
              "velocity": 75,
              "position": 8,
              "duration": 0.10416666666666667
            },
            {
              "pitch": 55,
              "velocity": 44,
              "position": 8.270833333333334,
              "duration": 0.13541666666666666
            },
            {
              "pitch": 57,
              "velocity": 69,
              "position": 8.5,
              "duration": 0.17708333333333334
            },
            {
              "pitch": 60,
              "velocity": 73,
              "position": 8.770833333333334,
              "duration": 0.11458333333333333
            },
            {
              "pitch": 60,
              "velocity": 76,
              "position": 9.270833333333334,
              "duration": 0.052083333333333336
            },
            {
              "pitch": 57,
              "velocity": 48,
              "position": 9.5,
              "duration": 0.28125
            },
            {
              "pitch": 52,
              "velocity": 76,
              "position": 9.770833333333334,
              "duration": 0.0625
            },
            {
              "pitch": 55,
              "velocity": 75,
              "position": 10,
              "duration": 0.09375
            },
            {
              "pitch": 55,
              "velocity": 78,
              "position": 10.270833333333334,
              "duration": 0.13541666666666666
            },
            {
              "pitch": 57,
              "velocity": 71,
              "position": 10.5,
              "duration": 0.28125
            },
            {
              "pitch": 60,
              "velocity": 71,
              "position": 10.770833333333334,
              "duration": 0.11458333333333333
            },
            {
              "pitch": 55,
              "velocity": 78,
              "position": 11.270833333333334,
              "duration": 0.052083333333333336
            },
            {
              "pitch": 57,
              "velocity": 56,
              "position": 11.5,
              "duration": 0.28125
            },
            {
              "pitch": 52,
              "velocity": 78,
              "position": 11.770833333333334,
              "duration": 0.0625
            },
            {
              "pitch": 55,
              "velocity": 75,
              "position": 12,
              "duration": 0.10416666666666667
            },
            {
              "pitch": 55,
              "velocity": 44,
              "position": 12.270833333333334,
              "duration": 0.13541666666666666
            },
            {
              "pitch": 57,
              "velocity": 69,
              "position": 12.5,
              "duration": 0.17708333333333334
            },
            {
              "pitch": 60,
              "velocity": 73,
              "position": 12.770833333333334,
              "duration": 0.11458333333333333
            },
            {
              "pitch": 60,
              "velocity": 76,
              "position": 13.270833333333334,
              "duration": 0.052083333333333336
            },
            {
              "pitch": 57,
              "velocity": 48,
              "position": 13.5,
              "duration": 0.28125
            },
            {
              "pitch": 55,
              "velocity": 76,
              "position": 13.770833333333334,
              "duration": 0.0625
            },
            {
              "pitch": 60,
              "velocity": 75,
              "position": 14,
              "duration": 0.09375
            }
          ]
        }
      }
    },
    "Intro_C": {
      "type": "Intro_C",
      "sizeInBeats": 32,
      "channels": {
        "1": {
          "ctab": {
            "srcChannel": 1,
            "name": "Bass",
            "accType": "BASS",
            "editable": false,
            "mutedNotes": [],
            "mutedChords": [
              "1+2+5",
              "sus4",
              "1+5",
              "1+8",
              "7aug",
              "Maj7aug",
              "7(#9)",
              "7(b13)",
              "7(b9)",
              "7(13)",
              "7#11",
              "7(9)",
              "7b5",
              "7sus4",
              "7th",
              "aug",
              "Maj6(9)",
              "Maj7(9)",
              "Maj(9)",
              "Maj7#11",
              "Maj7",
              "Maj6",
              "Maj"
            ],
            "autoStart": false,
            "sourceChordNote": 0,
            "sourceChordType": "min",
            "ctb2Low": null,
            "ctb2Main": {
              "ntr": "ROOT_TRANSPOSITION",
              "ntt": "BYPASS",
              "bassOn": false,
              "chordRootUpperLimit": 8,
              "noteLowLimit": 28,
              "noteHighLimit": 127,
              "rtr": "PITCH_SHIFT"
            },
            "ctb2High": null
          },
          "notes": [
            {
              "pitch": 24,
              "velocity": 100,
              "position": 0,
              "duration": 0.4791666666666667
            },
            {
              "pitch": 24,
              "velocity": 100,
              "position": 0.5,
              "duration": 0.020833333333333332
            },
            {
              "pitch": 24,
              "velocity": 100,
              "position": 1,
              "duration": 0.46875
            },
            {
              "pitch": 24,
              "velocity": 100,
              "position": 1.5,
              "duration": 0.020833333333333332
            },
            {
              "pitch": 24,
              "velocity": 80,
              "position": 1.7708333333333333,
              "duration": 0.21875
            },
            {
              "pitch": 27,
              "velocity": 100,
              "position": 2,
              "duration": 0.4791666666666667
            },
            {
              "pitch": 26,
              "velocity": 100,
              "position": 2.5,
              "duration": 0.4895833333333333
            },
            {
              "pitch": 24,
              "velocity": 100,
              "position": 3,
              "duration": 0.16666666666666666
            },
            {
              "pitch": 31,
              "velocity": 100,
              "position": 3.5,
              "duration": 1.4375
            },
            {
              "pitch": 31,
              "velocity": 100,
              "position": 5,
              "duration": 0.020833333333333332
            },
            {
              "pitch": 31,
              "velocity": 100,
              "position": 5.270833333333333,
              "duration": 0.010416666666666666
            },
            {
              "pitch": 31,
              "velocity": 100,
              "position": 5.5,
              "duration": 0.28125
            },
            {
              "pitch": 29,
              "velocity": 100,
              "position": 6,
              "duration": 0.4895833333333333
            },
            {
              "pitch": 31,
              "velocity": 100,
              "position": 6.5,
              "duration": 0.4895833333333333
            },
            {
              "pitch": 34,
              "velocity": 100,
              "position": 7,
              "duration": 0.4895833333333333
            },
            {
              "pitch": 36,
              "velocity": 100,
              "position": 7.5,
              "duration": 0.4895833333333333
            },
            {
              "pitch": 29,
              "velocity": 100,
              "position": 8,
              "duration": 0.46875
            },
            {
              "pitch": 29,
              "velocity": 100,
              "position": 8.5,
              "duration": 0.020833333333333332
            },
            {
              "pitch": 29,
              "velocity": 100,
              "position": 9,
              "duration": 0.46875
            },
            {
              "pitch": 29,
              "velocity": 100,
              "position": 9.5,
              "duration": 0.020833333333333332
            },
            {
              "pitch": 29,
              "velocity": 80,
              "position": 9.770833333333334,
              "duration": 0.21875
            },
            {
              "pitch": 29,
              "velocity": 100,
              "position": 10,
              "duration": 0.4479166666666667
            },
            {
              "pitch": 31,
              "velocity": 100,
              "position": 10.5,
              "duration": 0.4895833333333333
            },
            {
              "pitch": 32,
              "velocity": 100,
              "position": 11,
              "duration": 0.16666666666666666
            },
            {
              "pitch": 34,
              "velocity": 100,
              "position": 11.5,
              "duration": 0.4895833333333333
            },
            {
              "pitch": 34,
              "velocity": 100,
              "position": 12,
              "duration": 0.010416666666666666
            },
            {
              "pitch": 34,
              "velocity": 100,
              "position": 12.270833333333334,
              "duration": 0.010416666666666666
            },
            {
              "pitch": 34,
              "velocity": 100,
              "position": 12.5,
              "duration": 0.1875
            },
            {
              "pitch": 34,
              "velocity": 100,
              "position": 13,
              "duration": 0.4895833333333333
            },
            {
              "pitch": 34,
              "velocity": 100,
              "position": 13.5,
              "duration": 0.010416666666666666
            },
            {
              "pitch": 34,
              "velocity": 100,
              "position": 13.770833333333334,
              "duration": 0.010416666666666666
            },
            {
              "pitch": 34,
              "velocity": 100,
              "position": 14,
              "duration": 0.21875
            },
            {
              "pitch": 34,
              "velocity": 100,
              "position": 14.5,
              "duration": 0.4895833333333333
            },
            {
              "pitch": 35,
              "velocity": 100,
              "position": 15,
              "duration": 0.46875
            },
            {
              "pitch": 35,
              "velocity": 100,
              "position": 15.5,
              "duration": 0.4895833333333333
            },
            {
              "pitch": 24,
              "velocity": 100,
              "position": 16,
              "duration": 0.4791666666666667
            },
            {
              "pitch": 24,
              "velocity": 100,
              "position": 16.5,
              "duration": 0.020833333333333332
            },
            {
              "pitch": 24,
              "velocity": 100,
              "position": 17,
              "duration": 0.46875
            },
            {
              "pitch": 24,
              "velocity": 100,
              "position": 17.5,
              "duration": 0.020833333333333332
            },
            {
              "pitch": 24,
              "velocity": 80,
              "position": 17.770833333333332,
              "duration": 0.21875
            },
            {
              "pitch": 27,
              "velocity": 100,
              "position": 18,
              "duration": 0.4791666666666667
            },
            {
              "pitch": 26,
              "velocity": 100,
              "position": 18.5,
              "duration": 0.4895833333333333
            },
            {
              "pitch": 24,
              "velocity": 100,
              "position": 19,
              "duration": 0.16666666666666666
            },
            {
              "pitch": 31,
              "velocity": 100,
              "position": 19.5,
              "duration": 1.4375
            },
            {
              "pitch": 31,
              "velocity": 100,
              "position": 21,
              "duration": 0.020833333333333332
            },
            {
              "pitch": 31,
              "velocity": 100,
              "position": 21.270833333333332,
              "duration": 0.010416666666666666
            },
            {
              "pitch": 31,
              "velocity": 100,
              "position": 21.5,
              "duration": 0.28125
            },
            {
              "pitch": 29,
              "velocity": 100,
              "position": 22,
              "duration": 0.4895833333333333
            },
            {
              "pitch": 31,
              "velocity": 100,
              "position": 22.5,
              "duration": 0.4895833333333333
            },
            {
              "pitch": 34,
              "velocity": 100,
              "position": 23,
              "duration": 0.4895833333333333
            },
            {
              "pitch": 36,
              "velocity": 100,
              "position": 23.5,
              "duration": 0.4895833333333333
            },
            {
              "pitch": 29,
              "velocity": 100,
              "position": 24,
              "duration": 0.46875
            },
            {
              "pitch": 29,
              "velocity": 100,
              "position": 24.5,
              "duration": 0.020833333333333332
            },
            {
              "pitch": 29,
              "velocity": 100,
              "position": 25,
              "duration": 0.46875
            },
            {
              "pitch": 29,
              "velocity": 100,
              "position": 25.5,
              "duration": 0.020833333333333332
            },
            {
              "pitch": 29,
              "velocity": 80,
              "position": 25.770833333333332,
              "duration": 0.21875
            },
            {
              "pitch": 29,
              "velocity": 100,
              "position": 26,
              "duration": 0.4479166666666667
            },
            {
              "pitch": 31,
              "velocity": 100,
              "position": 26.5,
              "duration": 0.4895833333333333
            },
            {
              "pitch": 32,
              "velocity": 100,
              "position": 27,
              "duration": 0.16666666666666666
            },
            {
              "pitch": 34,
              "velocity": 100,
              "position": 27.5,
              "duration": 0.4895833333333333
            },
            {
              "pitch": 34,
              "velocity": 100,
              "position": 28,
              "duration": 0.010416666666666666
            },
            {
              "pitch": 34,
              "velocity": 100,
              "position": 28.270833333333332,
              "duration": 0.010416666666666666
            },
            {
              "pitch": 34,
              "velocity": 100,
              "position": 28.5,
              "duration": 0.1875
            },
            {
              "pitch": 34,
              "velocity": 100,
              "position": 29,
              "duration": 0.4895833333333333
            },
            {
              "pitch": 34,
              "velocity": 100,
              "position": 29.5,
              "duration": 0.010416666666666666
            },
            {
              "pitch": 34,
              "velocity": 100,
              "position": 29.770833333333332,
              "duration": 0.010416666666666666
            },
            {
              "pitch": 31,
              "velocity": 100,
              "position": 30,
              "duration": 0.4895833333333333
            },
            {
              "pitch": 31,
              "velocity": 100,
              "position": 31,
              "duration": 0.46875
            }
          ]
        },
        "2": {
          "ctab": {
            "srcChannel": 2,
            "name": "Gt",
            "accType": "CHORD1",
            "editable": false,
            "mutedNotes": [],
            "mutedChords": [
              "1+2+5",
              "sus4",
              "1+5",
              "1+8",
              "7aug",
              "Maj7aug",
              "7(#9)",
              "7(b13)",
              "7(b9)",
              "7(13)",
              "7#11",
              "7(9)",
              "7b5",
              "7sus4",
              "7th",
              "aug",
              "Maj6(9)",
              "Maj7(9)",
              "Maj(9)",
              "Maj7#11",
              "Maj7",
              "Maj6",
              "Maj"
            ],
            "autoStart": false,
            "sourceChordNote": 0,
            "sourceChordType": "min",
            "ctb2Low": null,
            "ctb2Main": {
              "ntr": "ROOT_TRANSPOSITION",
              "ntt": "BYPASS",
              "bassOn": false,
              "chordRootUpperLimit": 8,
              "noteLowLimit": 54,
              "noteHighLimit": 65,
              "rtr": "PITCH_SHIFT"
            },
            "ctb2High": null
          },
          "notes": [
            {
              "pitch": 55,
              "velocity": 115,
              "position": 0.5,
              "duration": 0.09375
            },
            {
              "pitch": 58,
              "velocity": 115,
              "position": 0.5,
              "duration": 0.09375
            },
            {
              "pitch": 63,
              "velocity": 115,
              "position": 0.5,
              "duration": 0.09375
            },
            {
              "pitch": 55,
              "velocity": 115,
              "position": 1.5,
              "duration": 0.23958333333333334
            },
            {
              "pitch": 58,
              "velocity": 115,
              "position": 1.5,
              "duration": 0.23958333333333334
            },
            {
              "pitch": 63,
              "velocity": 115,
              "position": 1.5,
              "duration": 0.23958333333333334
            },
            {
              "pitch": 55,
              "velocity": 115,
              "position": 1.7604166666666667,
              "duration": 0.09375
            },
            {
              "pitch": 58,
              "velocity": 115,
              "position": 1.7604166666666667,
              "duration": 0.09375
            },
            {
              "pitch": 63,
              "velocity": 115,
              "position": 1.7604166666666667,
              "duration": 0.09375
            },
            {
              "pitch": 55,
              "velocity": 115,
              "position": 2.5,
              "duration": 0.09375
            },
            {
              "pitch": 58,
              "velocity": 115,
              "position": 2.5,
              "duration": 0.09375
            },
            {
              "pitch": 63,
              "velocity": 115,
              "position": 2.5,
              "duration": 0.09375
            },
            {
              "pitch": 58,
              "velocity": 115,
              "position": 3.5,
              "duration": 0.09375
            },
            {
              "pitch": 62,
              "velocity": 115,
              "position": 3.5,
              "duration": 0.09375
            },
            {
              "pitch": 65,
              "velocity": 115,
              "position": 3.5,
              "duration": 0.09375
            },
            {
              "pitch": 58,
              "velocity": 115,
              "position": 4.5,
              "duration": 0.09375
            },
            {
              "pitch": 62,
              "velocity": 115,
              "position": 4.5,
              "duration": 0.09375
            },
            {
              "pitch": 65,
              "velocity": 115,
              "position": 4.5,
              "duration": 0.09375
            },
            {
              "pitch": 58,
              "velocity": 115,
              "position": 5.5,
              "duration": 0.09375
            },
            {
              "pitch": 62,
              "velocity": 115,
              "position": 5.5,
              "duration": 0.09375
            },
            {
              "pitch": 65,
              "velocity": 115,
              "position": 5.5,
              "duration": 0.09375
            },
            {
              "pitch": 58,
              "velocity": 115,
              "position": 6.5,
              "duration": 0.09375
            },
            {
              "pitch": 62,
              "velocity": 115,
              "position": 6.5,
              "duration": 0.09375
            },
            {
              "pitch": 65,
              "velocity": 115,
              "position": 6.5,
              "duration": 0.09375
            },
            {
              "pitch": 58,
              "velocity": 115,
              "position": 7.5,
              "duration": 0.09375
            },
            {
              "pitch": 62,
              "velocity": 115,
              "position": 7.5,
              "duration": 0.09375
            },
            {
              "pitch": 65,
              "velocity": 115,
              "position": 7.5,
              "duration": 0.09375
            },
            {
              "pitch": 56,
              "velocity": 115,
              "position": 8.5,
              "duration": 0.09375
            },
            {
              "pitch": 60,
              "velocity": 115,
              "position": 8.5,
              "duration": 0.09375
            },
            {
              "pitch": 63,
              "velocity": 115,
              "position": 8.5,
              "duration": 0.09375
            },
            {
              "pitch": 56,
              "velocity": 115,
              "position": 9.5,
              "duration": 0.23958333333333334
            },
            {
              "pitch": 60,
              "velocity": 115,
              "position": 9.5,
              "duration": 0.23958333333333334
            },
            {
              "pitch": 63,
              "velocity": 115,
              "position": 9.5,
              "duration": 0.23958333333333334
            },
            {
              "pitch": 56,
              "velocity": 115,
              "position": 9.760416666666666,
              "duration": 0.09375
            },
            {
              "pitch": 60,
              "velocity": 115,
              "position": 9.760416666666666,
              "duration": 0.09375
            },
            {
              "pitch": 63,
              "velocity": 115,
              "position": 9.760416666666666,
              "duration": 0.09375
            },
            {
              "pitch": 56,
              "velocity": 115,
              "position": 10.5,
              "duration": 0.09375
            },
            {
              "pitch": 60,
              "velocity": 115,
              "position": 10.5,
              "duration": 0.09375
            },
            {
              "pitch": 63,
              "velocity": 115,
              "position": 10.5,
              "duration": 0.09375
            },
            {
              "pitch": 56,
              "velocity": 115,
              "position": 11.5,
              "duration": 0.09375
            },
            {
              "pitch": 60,
              "velocity": 115,
              "position": 11.5,
              "duration": 0.09375
            },
            {
              "pitch": 63,
              "velocity": 115,
              "position": 11.5,
              "duration": 0.09375
            },
            {
              "pitch": 56,
              "velocity": 115,
              "position": 12.5,
              "duration": 0.09375
            },
            {
              "pitch": 60,
              "velocity": 115,
              "position": 12.5,
              "duration": 0.09375
            },
            {
              "pitch": 63,
              "velocity": 115,
              "position": 12.5,
              "duration": 0.09375
            },
            {
              "pitch": 56,
              "velocity": 115,
              "position": 13.5,
              "duration": 0.09375
            },
            {
              "pitch": 60,
              "velocity": 115,
              "position": 13.5,
              "duration": 0.09375
            },
            {
              "pitch": 63,
              "velocity": 115,
              "position": 13.5,
              "duration": 0.09375
            },
            {
              "pitch": 58,
              "velocity": 115,
              "position": 14.5,
              "duration": 0.09375
            },
            {
              "pitch": 62,
              "velocity": 115,
              "position": 14.5,
              "duration": 0.09375
            },
            {
              "pitch": 65,
              "velocity": 115,
              "position": 14.5,
              "duration": 0.09375
            },
            {
              "pitch": 59,
              "velocity": 115,
              "position": 15.5,
              "duration": 0.09375
            },
            {
              "pitch": 62,
              "velocity": 115,
              "position": 15.5,
              "duration": 0.09375
            },
            {
              "pitch": 65,
              "velocity": 115,
              "position": 15.5,
              "duration": 0.09375
            },
            {
              "pitch": 55,
              "velocity": 115,
              "position": 16.5,
              "duration": 0.09375
            },
            {
              "pitch": 58,
              "velocity": 115,
              "position": 16.5,
              "duration": 0.09375
            },
            {
              "pitch": 63,
              "velocity": 115,
              "position": 16.5,
              "duration": 0.09375
            },
            {
              "pitch": 55,
              "velocity": 115,
              "position": 17.5,
              "duration": 0.23958333333333334
            },
            {
              "pitch": 58,
              "velocity": 115,
              "position": 17.5,
              "duration": 0.23958333333333334
            },
            {
              "pitch": 63,
              "velocity": 115,
              "position": 17.5,
              "duration": 0.23958333333333334
            },
            {
              "pitch": 55,
              "velocity": 115,
              "position": 17.760416666666668,
              "duration": 0.09375
            },
            {
              "pitch": 58,
              "velocity": 115,
              "position": 17.760416666666668,
              "duration": 0.09375
            },
            {
              "pitch": 63,
              "velocity": 115,
              "position": 17.760416666666668,
              "duration": 0.09375
            },
            {
              "pitch": 55,
              "velocity": 115,
              "position": 18.5,
              "duration": 0.09375
            },
            {
              "pitch": 58,
              "velocity": 115,
              "position": 18.5,
              "duration": 0.09375
            },
            {
              "pitch": 63,
              "velocity": 115,
              "position": 18.5,
              "duration": 0.09375
            },
            {
              "pitch": 58,
              "velocity": 115,
              "position": 19.5,
              "duration": 0.09375
            },
            {
              "pitch": 62,
              "velocity": 115,
              "position": 19.5,
              "duration": 0.09375
            },
            {
              "pitch": 65,
              "velocity": 115,
              "position": 19.5,
              "duration": 0.09375
            },
            {
              "pitch": 58,
              "velocity": 115,
              "position": 20.5,
              "duration": 0.09375
            },
            {
              "pitch": 62,
              "velocity": 115,
              "position": 20.5,
              "duration": 0.09375
            },
            {
              "pitch": 65,
              "velocity": 115,
              "position": 20.5,
              "duration": 0.09375
            },
            {
              "pitch": 58,
              "velocity": 115,
              "position": 21.5,
              "duration": 0.09375
            },
            {
              "pitch": 62,
              "velocity": 115,
              "position": 21.5,
              "duration": 0.09375
            },
            {
              "pitch": 65,
              "velocity": 115,
              "position": 21.5,
              "duration": 0.09375
            },
            {
              "pitch": 58,
              "velocity": 115,
              "position": 22.5,
              "duration": 0.09375
            },
            {
              "pitch": 62,
              "velocity": 115,
              "position": 22.5,
              "duration": 0.09375
            },
            {
              "pitch": 65,
              "velocity": 115,
              "position": 22.5,
              "duration": 0.09375
            },
            {
              "pitch": 58,
              "velocity": 115,
              "position": 23.5,
              "duration": 0.09375
            },
            {
              "pitch": 62,
              "velocity": 115,
              "position": 23.5,
              "duration": 0.09375
            },
            {
              "pitch": 65,
              "velocity": 115,
              "position": 23.5,
              "duration": 0.09375
            },
            {
              "pitch": 56,
              "velocity": 115,
              "position": 24.5,
              "duration": 0.09375
            },
            {
              "pitch": 60,
              "velocity": 115,
              "position": 24.5,
              "duration": 0.09375
            },
            {
              "pitch": 63,
              "velocity": 115,
              "position": 24.5,
              "duration": 0.09375
            },
            {
              "pitch": 56,
              "velocity": 115,
              "position": 25.5,
              "duration": 0.23958333333333334
            },
            {
              "pitch": 60,
              "velocity": 115,
              "position": 25.5,
              "duration": 0.23958333333333334
            },
            {
              "pitch": 63,
              "velocity": 115,
              "position": 25.5,
              "duration": 0.23958333333333334
            },
            {
              "pitch": 56,
              "velocity": 115,
              "position": 25.760416666666668,
              "duration": 0.09375
            },
            {
              "pitch": 60,
              "velocity": 115,
              "position": 25.760416666666668,
              "duration": 0.09375
            },
            {
              "pitch": 63,
              "velocity": 115,
              "position": 25.760416666666668,
              "duration": 0.09375
            },
            {
              "pitch": 56,
              "velocity": 115,
              "position": 26.5,
              "duration": 0.09375
            },
            {
              "pitch": 60,
              "velocity": 115,
              "position": 26.5,
              "duration": 0.09375
            },
            {
              "pitch": 63,
              "velocity": 115,
              "position": 26.5,
              "duration": 0.09375
            },
            {
              "pitch": 56,
              "velocity": 115,
              "position": 27.5,
              "duration": 0.09375
            },
            {
              "pitch": 60,
              "velocity": 115,
              "position": 27.5,
              "duration": 0.09375
            },
            {
              "pitch": 63,
              "velocity": 115,
              "position": 27.5,
              "duration": 0.09375
            },
            {
              "pitch": 56,
              "velocity": 115,
              "position": 28.5,
              "duration": 0.09375
            },
            {
              "pitch": 60,
              "velocity": 115,
              "position": 28.5,
              "duration": 0.09375
            },
            {
              "pitch": 63,
              "velocity": 115,
              "position": 28.5,
              "duration": 0.09375
            },
            {
              "pitch": 56,
              "velocity": 115,
              "position": 29.5,
              "duration": 0.09375
            },
            {
              "pitch": 60,
              "velocity": 115,
              "position": 29.5,
              "duration": 0.09375
            },
            {
              "pitch": 63,
              "velocity": 115,
              "position": 29.5,
              "duration": 0.09375
            },
            {
              "pitch": 58,
              "velocity": 115,
              "position": 30,
              "duration": 0.09375
            },
            {
              "pitch": 62,
              "velocity": 115,
              "position": 30,
              "duration": 0.09375
            },
            {
              "pitch": 65,
              "velocity": 115,
              "position": 30,
              "duration": 0.09375
            },
            {
              "pitch": 58,
              "velocity": 115,
              "position": 31,
              "duration": 0.09375
            },
            {
              "pitch": 62,
              "velocity": 115,
              "position": 31,
              "duration": 0.09375
            },
            {
              "pitch": 65,
              "velocity": 115,
              "position": 31,
              "duration": 0.09375
            }
          ]
        },
        "3": {
          "ctab": {
            "srcChannel": 3,
            "name": "Pno",
            "accType": "CHORD2",
            "editable": false,
            "mutedNotes": [],
            "mutedChords": [
              "1+2+5",
              "sus4",
              "1+5",
              "1+8",
              "7aug",
              "Maj7aug",
              "7(#9)",
              "7(b13)",
              "7(b9)",
              "7(13)",
              "7#11",
              "7(9)",
              "7b5",
              "7sus4",
              "7th",
              "aug",
              "Maj6(9)",
              "Maj7(9)",
              "Maj(9)",
              "Maj7#11",
              "Maj7",
              "Maj6",
              "Maj"
            ],
            "autoStart": false,
            "sourceChordNote": 0,
            "sourceChordType": "min",
            "ctb2Low": null,
            "ctb2Main": {
              "ntr": "ROOT_TRANSPOSITION",
              "ntt": "BYPASS",
              "bassOn": false,
              "chordRootUpperLimit": 8,
              "noteLowLimit": 54,
              "noteHighLimit": 65,
              "rtr": "PITCH_SHIFT"
            },
            "ctb2High": null
          },
          "notes": [
            {
              "pitch": 55,
              "velocity": 94,
              "position": 0,
              "duration": 2.9895833333333335
            },
            {
              "pitch": 58,
              "velocity": 94,
              "position": 0,
              "duration": 2.9895833333333335
            },
            {
              "pitch": 60,
              "velocity": 94,
              "position": 0,
              "duration": 2.9895833333333335
            },
            {
              "pitch": 63,
              "velocity": 94,
              "position": 0,
              "duration": 2.9895833333333335
            },
            {
              "pitch": 55,
              "velocity": 94,
              "position": 3.5,
              "duration": 3.9895833333333335
            },
            {
              "pitch": 58,
              "velocity": 94,
              "position": 3.5,
              "duration": 3.9895833333333335
            },
            {
              "pitch": 62,
              "velocity": 94,
              "position": 3.5,
              "duration": 3.9895833333333335
            },
            {
              "pitch": 65,
              "velocity": 94,
              "position": 3.5,
              "duration": 3.9895833333333335
            },
            {
              "pitch": 53,
              "velocity": 94,
              "position": 8,
              "duration": 2.9895833333333335
            },
            {
              "pitch": 56,
              "velocity": 94,
              "position": 8,
              "duration": 2.9895833333333335
            },
            {
              "pitch": 60,
              "velocity": 94,
              "position": 8,
              "duration": 2.9895833333333335
            },
            {
              "pitch": 63,
              "velocity": 94,
              "position": 8,
              "duration": 2.9895833333333335
            },
            {
              "pitch": 53,
              "velocity": 94,
              "position": 11.5,
              "duration": 1.9895833333333333
            },
            {
              "pitch": 56,
              "velocity": 94,
              "position": 11.5,
              "duration": 1.9895833333333333
            },
            {
              "pitch": 60,
              "velocity": 94,
              "position": 11.5,
              "duration": 1.9895833333333333
            },
            {
              "pitch": 63,
              "velocity": 94,
              "position": 11.5,
              "duration": 1.9895833333333333
            },
            {
              "pitch": 53,
              "velocity": 94,
              "position": 14,
              "duration": 0.7395833333333334
            },
            {
              "pitch": 56,
              "velocity": 94,
              "position": 14,
              "duration": 0.7395833333333334
            },
            {
              "pitch": 60,
              "velocity": 94,
              "position": 14,
              "duration": 0.7395833333333334
            },
            {
              "pitch": 63,
              "velocity": 94,
              "position": 14,
              "duration": 0.7395833333333334
            },
            {
              "pitch": 55,
              "velocity": 94,
              "position": 15,
              "duration": 0.7395833333333334
            },
            {
              "pitch": 59,
              "velocity": 94,
              "position": 15,
              "duration": 0.7395833333333334
            },
            {
              "pitch": 62,
              "velocity": 94,
              "position": 15,
              "duration": 0.7395833333333334
            },
            {
              "pitch": 65,
              "velocity": 94,
              "position": 15,
              "duration": 0.7395833333333334
            },
            {
              "pitch": 55,
              "velocity": 94,
              "position": 16,
              "duration": 2.9895833333333335
            },
            {
              "pitch": 58,
              "velocity": 94,
              "position": 16,
              "duration": 2.9895833333333335
            },
            {
              "pitch": 60,
              "velocity": 94,
              "position": 16,
              "duration": 2.9895833333333335
            },
            {
              "pitch": 63,
              "velocity": 94,
              "position": 16,
              "duration": 2.9895833333333335
            },
            {
              "pitch": 55,
              "velocity": 94,
              "position": 19.5,
              "duration": 3.9895833333333335
            },
            {
              "pitch": 58,
              "velocity": 94,
              "position": 19.5,
              "duration": 3.9895833333333335
            },
            {
              "pitch": 62,
              "velocity": 94,
              "position": 19.5,
              "duration": 3.9895833333333335
            },
            {
              "pitch": 65,
              "velocity": 94,
              "position": 19.5,
              "duration": 3.9895833333333335
            },
            {
              "pitch": 53,
              "velocity": 94,
              "position": 24,
              "duration": 2.9895833333333335
            },
            {
              "pitch": 56,
              "velocity": 94,
              "position": 24,
              "duration": 2.9895833333333335
            },
            {
              "pitch": 60,
              "velocity": 94,
              "position": 24,
              "duration": 2.9895833333333335
            },
            {
              "pitch": 63,
              "velocity": 94,
              "position": 24,
              "duration": 2.9895833333333335
            },
            {
              "pitch": 53,
              "velocity": 94,
              "position": 27.5,
              "duration": 1.9895833333333333
            },
            {
              "pitch": 56,
              "velocity": 94,
              "position": 27.5,
              "duration": 1.9895833333333333
            },
            {
              "pitch": 60,
              "velocity": 94,
              "position": 27.5,
              "duration": 1.9895833333333333
            },
            {
              "pitch": 63,
              "velocity": 94,
              "position": 27.5,
              "duration": 1.9895833333333333
            },
            {
              "pitch": 55,
              "velocity": 94,
              "position": 30,
              "duration": 0.4895833333333333
            },
            {
              "pitch": 58,
              "velocity": 94,
              "position": 30,
              "duration": 0.4895833333333333
            },
            {
              "pitch": 62,
              "velocity": 94,
              "position": 30,
              "duration": 0.4895833333333333
            },
            {
              "pitch": 65,
              "velocity": 94,
              "position": 30,
              "duration": 0.4895833333333333
            },
            {
              "pitch": 55,
              "velocity": 94,
              "position": 31,
              "duration": 0.4895833333333333
            },
            {
              "pitch": 58,
              "velocity": 94,
              "position": 31,
              "duration": 0.4895833333333333
            },
            {
              "pitch": 62,
              "velocity": 94,
              "position": 31,
              "duration": 0.4895833333333333
            },
            {
              "pitch": 65,
              "velocity": 94,
              "position": 31,
              "duration": 0.4895833333333333
            }
          ]
        },
        "4": {
          "ctab": {
            "srcChannel": 4,
            "name": "Str",
            "accType": "PAD",
            "editable": false,
            "mutedNotes": [],
            "mutedChords": [
              "1+2+5",
              "sus4",
              "1+5",
              "1+8",
              "7aug",
              "Maj7aug",
              "7(#9)",
              "7(b13)",
              "7(b9)",
              "7(13)",
              "7#11",
              "7(9)",
              "7b5",
              "7sus4",
              "7th",
              "aug",
              "Maj6(9)",
              "Maj7(9)",
              "Maj(9)",
              "Maj7#11",
              "Maj7",
              "Maj6",
              "Maj"
            ],
            "autoStart": false,
            "sourceChordNote": 0,
            "sourceChordType": "min",
            "ctb2Low": null,
            "ctb2Main": {
              "ntr": "ROOT_TRANSPOSITION",
              "ntt": "BYPASS",
              "bassOn": false,
              "chordRootUpperLimit": 8,
              "noteLowLimit": 54,
              "noteHighLimit": 77,
              "rtr": "PITCH_SHIFT"
            },
            "ctb2High": null
          },
          "notes": [
            {
              "pitch": 79,
              "velocity": 80,
              "position": 16,
              "duration": 3.4895833333333335
            },
            {
              "pitch": 87,
              "velocity": 80,
              "position": 16,
              "duration": 3.4895833333333335
            },
            {
              "pitch": 86,
              "velocity": 80,
              "position": 19.5,
              "duration": 4.489583333333333
            },
            {
              "pitch": 82,
              "velocity": 80,
              "position": 16,
              "duration": 7.989583333333333
            },
            {
              "pitch": 89,
              "velocity": 80,
              "position": 19.5,
              "duration": 4.489583333333333
            },
            {
              "pitch": 80,
              "velocity": 80,
              "position": 24,
              "duration": 5.989583333333333
            },
            {
              "pitch": 84,
              "velocity": 80,
              "position": 24,
              "duration": 5.989583333333333
            },
            {
              "pitch": 87,
              "velocity": 80,
              "position": 24,
              "duration": 5.989583333333333
            }
          ]
        },
        "5": {
          "ctab": {
            "srcChannel": 5,
            "name": "Brs",
            "accType": "PHRASE1",
            "editable": false,
            "mutedNotes": [],
            "mutedChords": [
              "1+2+5",
              "sus4",
              "1+5",
              "1+8",
              "7aug",
              "Maj7aug",
              "7(#9)",
              "7(b13)",
              "7(b9)",
              "7(13)",
              "7#11",
              "7(9)",
              "7b5",
              "7sus4",
              "7th",
              "aug",
              "Maj6(9)",
              "Maj7(9)",
              "Maj(9)",
              "Maj7#11",
              "Maj7",
              "Maj6",
              "Maj"
            ],
            "autoStart": false,
            "sourceChordNote": 0,
            "sourceChordType": "min",
            "ctb2Low": null,
            "ctb2Main": {
              "ntr": "ROOT_TRANSPOSITION",
              "ntt": "BYPASS",
              "bassOn": false,
              "chordRootUpperLimit": 10,
              "noteLowLimit": 43,
              "noteHighLimit": 85,
              "rtr": "PITCH_SHIFT"
            },
            "ctb2High": null
          },
          "notes": [
            {
              "pitch": 63,
              "velocity": 101,
              "position": 16,
              "duration": 0.5104166666666666
            },
            {
              "pitch": 75,
              "velocity": 101,
              "position": 16,
              "duration": 0.5104166666666666
            },
            {
              "pitch": 62,
              "velocity": 101,
              "position": 16.5,
              "duration": 0.2604166666666667
            },
            {
              "pitch": 74,
              "velocity": 101,
              "position": 16.5,
              "duration": 0.2604166666666667
            },
            {
              "pitch": 58,
              "velocity": 101,
              "position": 17.5,
              "duration": 0.2604166666666667
            },
            {
              "pitch": 70,
              "velocity": 101,
              "position": 17.5,
              "duration": 0.2604166666666667
            },
            {
              "pitch": 60,
              "velocity": 101,
              "position": 18.5,
              "duration": 0.2604166666666667
            },
            {
              "pitch": 72,
              "velocity": 101,
              "position": 18.5,
              "duration": 0.2604166666666667
            },
            {
              "pitch": 55,
              "velocity": 101,
              "position": 19.5,
              "duration": 3.4895833333333335
            },
            {
              "pitch": 67,
              "velocity": 101,
              "position": 19.5,
              "duration": 3.4895833333333335
            },
            {
              "pitch": 60,
              "velocity": 101,
              "position": 23.5,
              "duration": 0.25
            },
            {
              "pitch": 72,
              "velocity": 101,
              "position": 23.5,
              "duration": 0.25
            },
            {
              "pitch": 62,
              "velocity": 82,
              "position": 23.760416666666668,
              "duration": 0.22916666666666666
            },
            {
              "pitch": 74,
              "velocity": 82,
              "position": 23.760416666666668,
              "duration": 0.22916666666666666
            },
            {
              "pitch": 63,
              "velocity": 101,
              "position": 24,
              "duration": 0.4895833333333333
            },
            {
              "pitch": 75,
              "velocity": 101,
              "position": 24,
              "duration": 0.4895833333333333
            },
            {
              "pitch": 62,
              "velocity": 101,
              "position": 24.5,
              "duration": 0.2604166666666667
            },
            {
              "pitch": 74,
              "velocity": 101,
              "position": 24.5,
              "duration": 0.2604166666666667
            },
            {
              "pitch": 60,
              "velocity": 101,
              "position": 25.5,
              "duration": 0.2604166666666667
            },
            {
              "pitch": 72,
              "velocity": 101,
              "position": 25.5,
              "duration": 0.2604166666666667
            },
            {
              "pitch": 58,
              "velocity": 101,
              "position": 26.5,
              "duration": 0.2604166666666667
            },
            {
              "pitch": 70,
              "velocity": 101,
              "position": 26.5,
              "duration": 0.2604166666666667
            },
            {
              "pitch": 60,
              "velocity": 101,
              "position": 27.5,
              "duration": 0.9895833333333334
            },
            {
              "pitch": 72,
              "velocity": 101,
              "position": 27.5,
              "duration": 0.9895833333333334
            },
            {
              "pitch": 63,
              "velocity": 101,
              "position": 28.5,
              "duration": 0.2604166666666667
            },
            {
              "pitch": 75,
              "velocity": 101,
              "position": 28.5,
              "duration": 0.2604166666666667
            },
            {
              "pitch": 55,
              "velocity": 101,
              "position": 30,
              "duration": 0.3958333333333333
            },
            {
              "pitch": 70,
              "velocity": 101,
              "position": 30,
              "duration": 0.3958333333333333
            },
            {
              "pitch": 74,
              "velocity": 101,
              "position": 30,
              "duration": 0.3958333333333333
            },
            {
              "pitch": 77,
              "velocity": 101,
              "position": 30,
              "duration": 0.3958333333333333
            },
            {
              "pitch": 55,
              "velocity": 101,
              "position": 31,
              "duration": 0.3958333333333333
            },
            {
              "pitch": 70,
              "velocity": 101,
              "position": 31,
              "duration": 0.3958333333333333
            },
            {
              "pitch": 74,
              "velocity": 101,
              "position": 31,
              "duration": 0.3958333333333333
            },
            {
              "pitch": 77,
              "velocity": 101,
              "position": 31,
              "duration": 0.3958333333333333
            }
          ]
        },
        "6": {
          "ctab": {
            "srcChannel": 6,
            "name": "MtGt",
            "accType": "PHRASE2",
            "editable": false,
            "mutedNotes": [],
            "mutedChords": [
              "1+2+5",
              "sus4",
              "1+5",
              "1+8",
              "7aug",
              "Maj7aug",
              "7(#9)",
              "7(b13)",
              "7(b9)",
              "7(13)",
              "7#11",
              "7(9)",
              "7b5",
              "7sus4",
              "7th",
              "aug",
              "Maj6(9)",
              "Maj7(9)",
              "Maj(9)",
              "Maj7#11",
              "Maj7",
              "Maj6",
              "Maj"
            ],
            "autoStart": false,
            "sourceChordNote": 0,
            "sourceChordType": "min",
            "ctb2Low": null,
            "ctb2Main": {
              "ntr": "ROOT_TRANSPOSITION",
              "ntt": "BYPASS",
              "bassOn": false,
              "chordRootUpperLimit": 6,
              "noteLowLimit": 0,
              "noteHighLimit": 127,
              "rtr": "PITCH_SHIFT"
            },
            "ctb2High": null
          },
          "notes": [
            {
              "pitch": 55,
              "velocity": 80,
              "position": 0.5,
              "duration": 0.010416666666666666
            },
            {
              "pitch": 55,
              "velocity": 80,
              "position": 1,
              "duration": 0.010416666666666666
            },
            {
              "pitch": 55,
              "velocity": 80,
              "position": 1.5,
              "duration": 0.010416666666666666
            },
            {
              "pitch": 55,
              "velocity": 80,
              "position": 2.28125,
              "duration": 0.020833333333333332
            },
            {
              "pitch": 55,
              "velocity": 77,
              "position": 2.5,
              "duration": 0.23958333333333334
            },
            {
              "pitch": 55,
              "velocity": 20,
              "position": 2.78125,
              "duration": 0.10416666666666667
            },
            {
              "pitch": 55,
              "velocity": 75,
              "position": 3,
              "duration": 0.25
            },
            {
              "pitch": 55,
              "velocity": 33,
              "position": 3.28125,
              "duration": 0.125
            },
            {
              "pitch": 55,
              "velocity": 76,
              "position": 3.5,
              "duration": 0.2604166666666667
            },
            {
              "pitch": 58,
              "velocity": 56,
              "position": 3.78125,
              "duration": 0.125
            },
            {
              "pitch": 58,
              "velocity": 25,
              "position": 4,
              "duration": 0.010416666666666666
            },
            {
              "pitch": 58,
              "velocity": 91,
              "position": 4.28125,
              "duration": 0.020833333333333332
            },
            {
              "pitch": 60,
              "velocity": 78,
              "position": 4.5,
              "duration": 0.28125
            },
            {
              "pitch": 60,
              "velocity": 80,
              "position": 8,
              "duration": 0.010416666666666666
            },
            {
              "pitch": 60,
              "velocity": 80,
              "position": 8.28125,
              "duration": 0.020833333333333332
            },
            {
              "pitch": 60,
              "velocity": 84,
              "position": 8.5,
              "duration": 0.23958333333333334
            },
            {
              "pitch": 60,
              "velocity": 25,
              "position": 8.78125,
              "duration": 0.125
            },
            {
              "pitch": 60,
              "velocity": 80,
              "position": 9.28125,
              "duration": 0.020833333333333332
            },
            {
              "pitch": 60,
              "velocity": 76,
              "position": 9.5,
              "duration": 0.22916666666666666
            },
            {
              "pitch": 60,
              "velocity": 27,
              "position": 9.78125,
              "duration": 0.1875
            },
            {
              "pitch": 60,
              "velocity": 80,
              "position": 10,
              "duration": 0.010416666666666666
            },
            {
              "pitch": 60,
              "velocity": 35,
              "position": 10.28125,
              "duration": 0.125
            },
            {
              "pitch": 60,
              "velocity": 80,
              "position": 10.5,
              "duration": 0.2604166666666667
            },
            {
              "pitch": 60,
              "velocity": 62,
              "position": 10.78125,
              "duration": 0.1875
            },
            {
              "pitch": 60,
              "velocity": 80,
              "position": 11,
              "duration": 0.25
            },
            {
              "pitch": 60,
              "velocity": 42,
              "position": 11.28125,
              "duration": 0.125
            },
            {
              "pitch": 60,
              "velocity": 83,
              "position": 11.5,
              "duration": 0.11458333333333333
            },
            {
              "pitch": 60,
              "velocity": 81,
              "position": 11.78125,
              "duration": 0.3645833333333333
            },
            {
              "pitch": 60,
              "velocity": 16,
              "position": 12.28125,
              "duration": 0.21875
            },
            {
              "pitch": 58,
              "velocity": 87,
              "position": 12.5,
              "duration": 0.25
            },
            {
              "pitch": 55,
              "velocity": 80,
              "position": 16.5,
              "duration": 0.010416666666666666
            },
            {
              "pitch": 55,
              "velocity": 80,
              "position": 17,
              "duration": 0.010416666666666666
            },
            {
              "pitch": 55,
              "velocity": 80,
              "position": 17.5,
              "duration": 0.010416666666666666
            },
            {
              "pitch": 55,
              "velocity": 80,
              "position": 18.28125,
              "duration": 0.020833333333333332
            },
            {
              "pitch": 55,
              "velocity": 77,
              "position": 18.5,
              "duration": 0.23958333333333334
            },
            {
              "pitch": 55,
              "velocity": 20,
              "position": 18.78125,
              "duration": 0.10416666666666667
            },
            {
              "pitch": 55,
              "velocity": 75,
              "position": 19,
              "duration": 0.25
            },
            {
              "pitch": 55,
              "velocity": 33,
              "position": 19.28125,
              "duration": 0.125
            },
            {
              "pitch": 55,
              "velocity": 76,
              "position": 19.5,
              "duration": 0.2604166666666667
            },
            {
              "pitch": 55,
              "velocity": 56,
              "position": 19.78125,
              "duration": 0.125
            },
            {
              "pitch": 55,
              "velocity": 25,
              "position": 20,
              "duration": 0.010416666666666666
            },
            {
              "pitch": 58,
              "velocity": 91,
              "position": 20.28125,
              "duration": 0.020833333333333332
            },
            {
              "pitch": 60,
              "velocity": 78,
              "position": 20.5,
              "duration": 0.28125
            },
            {
              "pitch": 60,
              "velocity": 80,
              "position": 24,
              "duration": 0.010416666666666666
            },
            {
              "pitch": 60,
              "velocity": 80,
              "position": 24.28125,
              "duration": 0.020833333333333332
            },
            {
              "pitch": 60,
              "velocity": 84,
              "position": 24.5,
              "duration": 0.23958333333333334
            },
            {
              "pitch": 60,
              "velocity": 25,
              "position": 24.78125,
              "duration": 0.125
            },
            {
              "pitch": 60,
              "velocity": 80,
              "position": 25.28125,
              "duration": 0.020833333333333332
            },
            {
              "pitch": 60,
              "velocity": 76,
              "position": 25.5,
              "duration": 0.22916666666666666
            },
            {
              "pitch": 60,
              "velocity": 27,
              "position": 25.78125,
              "duration": 0.1875
            },
            {
              "pitch": 60,
              "velocity": 80,
              "position": 26,
              "duration": 0.010416666666666666
            },
            {
              "pitch": 60,
              "velocity": 35,
              "position": 26.28125,
              "duration": 0.125
            },
            {
              "pitch": 60,
              "velocity": 80,
              "position": 26.5,
              "duration": 0.2604166666666667
            },
            {
              "pitch": 60,
              "velocity": 62,
              "position": 26.78125,
              "duration": 0.1875
            },
            {
              "pitch": 60,
              "velocity": 80,
              "position": 27,
              "duration": 0.25
            },
            {
              "pitch": 60,
              "velocity": 42,
              "position": 27.28125,
              "duration": 0.125
            },
            {
              "pitch": 60,
              "velocity": 83,
              "position": 27.5,
              "duration": 0.11458333333333333
            },
            {
              "pitch": 60,
              "velocity": 81,
              "position": 27.78125,
              "duration": 0.3645833333333333
            },
            {
              "pitch": 60,
              "velocity": 16,
              "position": 28.28125,
              "duration": 0.21875
            },
            {
              "pitch": 58,
              "velocity": 87,
              "position": 28.5,
              "duration": 0.25
            }
          ]
        },
        "8": {
          "ctab": {
            "srcChannel": 8,
            "name": "Perc",
            "accType": "SUBRHYTHM",
            "editable": false,
            "mutedNotes": [],
            "mutedChords": [],
            "autoStart": true,
            "sourceChordNote": 0,
            "sourceChordType": "Maj7",
            "ctb2Low": null,
            "ctb2Main": {
              "ntr": "ROOT_FIXED",
              "ntt": "BYPASS",
              "bassOn": false,
              "chordRootUpperLimit": 6,
              "noteLowLimit": 0,
              "noteHighLimit": 127,
              "rtr": "PITCH_SHIFT"
            },
            "ctb2High": null
          },
          "notes": [
            {
              "pitch": 62,
              "velocity": 96,
              "position": 16.5,
              "duration": 0.03125
            },
            {
              "pitch": 61,
              "velocity": 105,
              "position": 17.03125,
              "duration": 0.041666666666666664
            },
            {
              "pitch": 64,
              "velocity": 97,
              "position": 17.53125,
              "duration": 0.041666666666666664
            },
            {
              "pitch": 64,
              "velocity": 97,
              "position": 17.78125,
              "duration": 0.041666666666666664
            },
            {
              "pitch": 62,
              "velocity": 96,
              "position": 18.5,
              "duration": 0.03125
            },
            {
              "pitch": 61,
              "velocity": 105,
              "position": 19.03125,
              "duration": 0.041666666666666664
            },
            {
              "pitch": 64,
              "velocity": 97,
              "position": 19.53125,
              "duration": 0.041666666666666664
            },
            {
              "pitch": 64,
              "velocity": 97,
              "position": 19.78125,
              "duration": 0.041666666666666664
            },
            {
              "pitch": 62,
              "velocity": 96,
              "position": 20.5,
              "duration": 0.03125
            },
            {
              "pitch": 61,
              "velocity": 105,
              "position": 21.03125,
              "duration": 0.041666666666666664
            },
            {
              "pitch": 64,
              "velocity": 97,
              "position": 21.53125,
              "duration": 0.041666666666666664
            },
            {
              "pitch": 64,
              "velocity": 97,
              "position": 21.78125,
              "duration": 0.041666666666666664
            },
            {
              "pitch": 62,
              "velocity": 96,
              "position": 22.5,
              "duration": 0.03125
            },
            {
              "pitch": 62,
              "velocity": 55,
              "position": 22.78125,
              "duration": 0.041666666666666664
            },
            {
              "pitch": 61,
              "velocity": 105,
              "position": 23.03125,
              "duration": 0.041666666666666664
            },
            {
              "pitch": 61,
              "velocity": 67,
              "position": 23.28125,
              "duration": 0.041666666666666664
            },
            {
              "pitch": 64,
              "velocity": 97,
              "position": 23.53125,
              "duration": 0.041666666666666664
            },
            {
              "pitch": 64,
              "velocity": 97,
              "position": 23.78125,
              "duration": 0.041666666666666664
            },
            {
              "pitch": 62,
              "velocity": 96,
              "position": 24.5,
              "duration": 0.03125
            },
            {
              "pitch": 61,
              "velocity": 105,
              "position": 25.03125,
              "duration": 0.041666666666666664
            },
            {
              "pitch": 64,
              "velocity": 97,
              "position": 25.53125,
              "duration": 0.041666666666666664
            },
            {
              "pitch": 64,
              "velocity": 97,
              "position": 25.78125,
              "duration": 0.041666666666666664
            },
            {
              "pitch": 62,
              "velocity": 96,
              "position": 26.5,
              "duration": 0.03125
            },
            {
              "pitch": 61,
              "velocity": 105,
              "position": 27.03125,
              "duration": 0.041666666666666664
            },
            {
              "pitch": 64,
              "velocity": 97,
              "position": 27.53125,
              "duration": 0.041666666666666664
            },
            {
              "pitch": 64,
              "velocity": 97,
              "position": 27.78125,
              "duration": 0.041666666666666664
            },
            {
              "pitch": 62,
              "velocity": 96,
              "position": 28.5,
              "duration": 0.03125
            },
            {
              "pitch": 61,
              "velocity": 105,
              "position": 29.03125,
              "duration": 0.041666666666666664
            },
            {
              "pitch": 64,
              "velocity": 97,
              "position": 29.53125,
              "duration": 0.041666666666666664
            },
            {
              "pitch": 64,
              "velocity": 97,
              "position": 29.78125,
              "duration": 0.041666666666666664
            }
          ]
        },
        "9": {
          "ctab": {
            "srcChannel": 9,
            "name": "Drums",
            "accType": "RHYTHM",
            "editable": false,
            "mutedNotes": [],
            "mutedChords": [],
            "autoStart": true,
            "sourceChordNote": 0,
            "sourceChordType": "Maj7",
            "ctb2Low": null,
            "ctb2Main": {
              "ntr": "ROOT_FIXED",
              "ntt": "BYPASS",
              "bassOn": false,
              "chordRootUpperLimit": 6,
              "noteLowLimit": 0,
              "noteHighLimit": 127,
              "rtr": "PITCH_SHIFT"
            },
            "ctb2High": null
          },
          "notes": [
            {
              "pitch": 42,
              "velocity": 59,
              "position": 0,
              "duration": 0.010416666666666666
            },
            {
              "pitch": 42,
              "velocity": 59,
              "position": 1,
              "duration": 0.010416666666666666
            },
            {
              "pitch": 42,
              "velocity": 59,
              "position": 2,
              "duration": 0.010416666666666666
            },
            {
              "pitch": 42,
              "velocity": 59,
              "position": 3,
              "duration": 0.010416666666666666
            },
            {
              "pitch": 42,
              "velocity": 59,
              "position": 4,
              "duration": 0.010416666666666666
            },
            {
              "pitch": 42,
              "velocity": 59,
              "position": 5,
              "duration": 0.010416666666666666
            },
            {
              "pitch": 42,
              "velocity": 59,
              "position": 6,
              "duration": 0.010416666666666666
            },
            {
              "pitch": 42,
              "velocity": 59,
              "position": 7,
              "duration": 0.010416666666666666
            },
            {
              "pitch": 46,
              "velocity": 76,
              "position": 7.5,
              "duration": 0.010416666666666666
            },
            {
              "pitch": 42,
              "velocity": 59,
              "position": 8,
              "duration": 0.010416666666666666
            },
            {
              "pitch": 42,
              "velocity": 59,
              "position": 9,
              "duration": 0.010416666666666666
            },
            {
              "pitch": 42,
              "velocity": 59,
              "position": 10,
              "duration": 0.010416666666666666
            },
            {
              "pitch": 42,
              "velocity": 59,
              "position": 11,
              "duration": 0.010416666666666666
            },
            {
              "pitch": 46,
              "velocity": 76,
              "position": 11.5,
              "duration": 0.010416666666666666
            },
            {
              "pitch": 42,
              "velocity": 59,
              "position": 12.260416666666666,
              "duration": 0.010416666666666666
            },
            {
              "pitch": 42,
              "velocity": 19,
              "position": 12.760416666666666,
              "duration": 0.010416666666666666
            },
            {
              "pitch": 42,
              "velocity": 59,
              "position": 13,
              "duration": 0.010416666666666666
            },
            {
              "pitch": 42,
              "velocity": 19,
              "position": 13.5,
              "duration": 0.010416666666666666
            },
            {
              "pitch": 42,
              "velocity": 59,
              "position": 14,
              "duration": 0.010416666666666666
            },
            {
              "pitch": 25,
              "velocity": 110,
              "position": 15,
              "duration": 0.010416666666666666
            },
            {
              "pitch": 33,
              "velocity": 88,
              "position": 15,
              "duration": 0.010416666666666666
            },
            {
              "pitch": 39,
              "velocity": 91,
              "position": 15,
              "duration": 0.010416666666666666
            },
            {
              "pitch": 44,
              "velocity": 64,
              "position": 15,
              "duration": 0.010416666666666666
            },
            {
              "pitch": 44,
              "velocity": 48,
              "position": 15.5,
              "duration": 0.010416666666666666
            },
            {
              "pitch": 25,
              "velocity": 114,
              "position": 15.78125,
              "duration": 0.010416666666666666
            },
            {
              "pitch": 44,
              "velocity": 48,
              "position": 15.78125,
              "duration": 0.010416666666666666
            },
            {
              "pitch": 33,
              "velocity": 88,
              "position": 16,
              "duration": 0.010416666666666666
            },
            {
              "pitch": 42,
              "velocity": 71,
              "position": 16,
              "duration": 0.010416666666666666
            },
            {
              "pitch": 44,
              "velocity": 48,
              "position": 16,
              "duration": 0.010416666666666666
            },
            {
              "pitch": 46,
              "velocity": 76,
              "position": 16.5,
              "duration": 0.010416666666666666
            },
            {
              "pitch": 25,
              "velocity": 110,
              "position": 17,
              "duration": 0.010416666666666666
            },
            {
              "pitch": 33,
              "velocity": 88,
              "position": 17,
              "duration": 0.010416666666666666
            },
            {
              "pitch": 39,
              "velocity": 91,
              "position": 17,
              "duration": 0.010416666666666666
            },
            {
              "pitch": 44,
              "velocity": 64,
              "position": 17,
              "duration": 0.010416666666666666
            },
            {
              "pitch": 46,
              "velocity": 76,
              "position": 17.5,
              "duration": 0.010416666666666666
            },
            {
              "pitch": 25,
              "velocity": 114,
              "position": 17.78125,
              "duration": 0.010416666666666666
            },
            {
              "pitch": 33,
              "velocity": 88,
              "position": 18,
              "duration": 0.010416666666666666
            },
            {
              "pitch": 44,
              "velocity": 64,
              "position": 18,
              "duration": 0.010416666666666666
            },
            {
              "pitch": 25,
              "velocity": 114,
              "position": 18.5,
              "duration": 0.010416666666666666
            },
            {
              "pitch": 46,
              "velocity": 76,
              "position": 18.5,
              "duration": 0.010416666666666666
            },
            {
              "pitch": 25,
              "velocity": 62,
              "position": 18.78125,
              "duration": 0.010416666666666666
            },
            {
              "pitch": 25,
              "velocity": 110,
              "position": 19,
              "duration": 0.010416666666666666
            },
            {
              "pitch": 33,
              "velocity": 88,
              "position": 19,
              "duration": 0.010416666666666666
            },
            {
              "pitch": 39,
              "velocity": 91,
              "position": 19,
              "duration": 0.010416666666666666
            },
            {
              "pitch": 44,
              "velocity": 64,
              "position": 19,
              "duration": 0.010416666666666666
            },
            {
              "pitch": 44,
              "velocity": 48,
              "position": 19.5,
              "duration": 0.010416666666666666
            },
            {
              "pitch": 33,
              "velocity": 88,
              "position": 20,
              "duration": 0.010416666666666666
            },
            {
              "pitch": 44,
              "velocity": 48,
              "position": 20,
              "duration": 0.010416666666666666
            },
            {
              "pitch": 46,
              "velocity": 76,
              "position": 20.5,
              "duration": 0.010416666666666666
            },
            {
              "pitch": 25,
              "velocity": 110,
              "position": 21,
              "duration": 0.010416666666666666
            },
            {
              "pitch": 33,
              "velocity": 88,
              "position": 21,
              "duration": 0.010416666666666666
            },
            {
              "pitch": 39,
              "velocity": 91,
              "position": 21,
              "duration": 0.010416666666666666
            },
            {
              "pitch": 44,
              "velocity": 64,
              "position": 21,
              "duration": 0.010416666666666666
            },
            {
              "pitch": 46,
              "velocity": 76,
              "position": 21.5,
              "duration": 0.010416666666666666
            },
            {
              "pitch": 25,
              "velocity": 114,
              "position": 21.78125,
              "duration": 0.010416666666666666
            },
            {
              "pitch": 33,
              "velocity": 88,
              "position": 22,
              "duration": 0.010416666666666666
            },
            {
              "pitch": 44,
              "velocity": 64,
              "position": 22,
              "duration": 0.010416666666666666
            },
            {
              "pitch": 46,
              "velocity": 46,
              "position": 22.5,
              "duration": 0.010416666666666666
            },
            {
              "pitch": 25,
              "velocity": 110,
              "position": 23,
              "duration": 0.010416666666666666
            },
            {
              "pitch": 33,
              "velocity": 88,
              "position": 23,
              "duration": 0.010416666666666666
            },
            {
              "pitch": 39,
              "velocity": 91,
              "position": 23,
              "duration": 0.010416666666666666
            },
            {
              "pitch": 44,
              "velocity": 64,
              "position": 23,
              "duration": 0.010416666666666666
            },
            {
              "pitch": 44,
              "velocity": 48,
              "position": 23.5,
              "duration": 0.010416666666666666
            },
            {
              "pitch": 44,
              "velocity": 48,
              "position": 23.78125,
              "duration": 0.010416666666666666
            },
            {
              "pitch": 33,
              "velocity": 88,
              "position": 24,
              "duration": 0.010416666666666666
            },
            {
              "pitch": 44,
              "velocity": 48,
              "position": 24,
              "duration": 0.010416666666666666
            },
            {
              "pitch": 46,
              "velocity": 76,
              "position": 24.5,
              "duration": 0.010416666666666666
            },
            {
              "pitch": 25,
              "velocity": 110,
              "position": 25,
              "duration": 0.010416666666666666
            },
            {
              "pitch": 33,
              "velocity": 88,
              "position": 25,
              "duration": 0.010416666666666666
            },
            {
              "pitch": 39,
              "velocity": 91,
              "position": 25,
              "duration": 0.010416666666666666
            },
            {
              "pitch": 44,
              "velocity": 64,
              "position": 25,
              "duration": 0.010416666666666666
            },
            {
              "pitch": 46,
              "velocity": 76,
              "position": 25.5,
              "duration": 0.010416666666666666
            },
            {
              "pitch": 25,
              "velocity": 114,
              "position": 25.78125,
              "duration": 0.010416666666666666
            },
            {
              "pitch": 33,
              "velocity": 88,
              "position": 26,
              "duration": 0.010416666666666666
            },
            {
              "pitch": 44,
              "velocity": 64,
              "position": 26,
              "duration": 0.010416666666666666
            },
            {
              "pitch": 25,
              "velocity": 114,
              "position": 26.28125,
              "duration": 0.010416666666666666
            },
            {
              "pitch": 46,
              "velocity": 76,
              "position": 26.5,
              "duration": 0.010416666666666666
            },
            {
              "pitch": 25,
              "velocity": 62,
              "position": 26.78125,
              "duration": 0.010416666666666666
            },
            {
              "pitch": 25,
              "velocity": 110,
              "position": 27,
              "duration": 0.010416666666666666
            },
            {
              "pitch": 33,
              "velocity": 88,
              "position": 27,
              "duration": 0.010416666666666666
            },
            {
              "pitch": 39,
              "velocity": 91,
              "position": 27,
              "duration": 0.010416666666666666
            },
            {
              "pitch": 44,
              "velocity": 64,
              "position": 27,
              "duration": 0.010416666666666666
            },
            {
              "pitch": 44,
              "velocity": 48,
              "position": 27.5,
              "duration": 0.010416666666666666
            },
            {
              "pitch": 44,
              "velocity": 48,
              "position": 27.78125,
              "duration": 0.010416666666666666
            },
            {
              "pitch": 33,
              "velocity": 88,
              "position": 28,
              "duration": 0.010416666666666666
            },
            {
              "pitch": 44,
              "velocity": 48,
              "position": 28,
              "duration": 0.010416666666666666
            },
            {
              "pitch": 44,
              "velocity": 48,
              "position": 28.28125,
              "duration": 0.010416666666666666
            },
            {
              "pitch": 46,
              "velocity": 76,
              "position": 28.5,
              "duration": 0.010416666666666666
            },
            {
              "pitch": 33,
              "velocity": 88,
              "position": 29,
              "duration": 0.010416666666666666
            },
            {
              "pitch": 39,
              "velocity": 91,
              "position": 29,
              "duration": 0.010416666666666666
            },
            {
              "pitch": 44,
              "velocity": 64,
              "position": 29,
              "duration": 0.010416666666666666
            },
            {
              "pitch": 46,
              "velocity": 76,
              "position": 29.5,
              "duration": 0.010416666666666666
            },
            {
              "pitch": 28,
              "velocity": 90,
              "position": 28,
              "duration": 2
            },
            {
              "pitch": 33,
              "velocity": 88,
              "position": 30,
              "duration": 0.010416666666666666
            },
            {
              "pitch": 46,
              "velocity": 76,
              "position": 30,
              "duration": 0.010416666666666666
            },
            {
              "pitch": 44,
              "velocity": 1,
              "position": 30.333333333333332,
              "duration": 0.010416666666666666
            },
            {
              "pitch": 33,
              "velocity": 88,
              "position": 31,
              "duration": 0.010416666666666666
            },
            {
              "pitch": 46,
              "velocity": 76,
              "position": 31,
              "duration": 0.010416666666666666
            },
            {
              "pitch": 44,
              "velocity": 1,
              "position": 31.333333333333332,
              "duration": 0.010416666666666666
            }
          ]
        },
        "10": {
          "ctab": {
            "srcChannel": 10,
            "name": "Bass",
            "accType": "BASS",
            "editable": false,
            "mutedNotes": [],
            "mutedChords": [
              "dim7",
              "dim",
              "minMaj7(9)",
              "minMaj7",
              "min7(11)",
              "min7(9)",
              "min(9)",
              "m7b5",
              "min7",
              "min6",
              "min"
            ],
            "autoStart": false,
            "sourceChordNote": 0,
            "sourceChordType": "Maj",
            "ctb2Low": null,
            "ctb2Main": {
              "ntr": "ROOT_TRANSPOSITION",
              "ntt": "BYPASS",
              "bassOn": false,
              "chordRootUpperLimit": 8,
              "noteLowLimit": 28,
              "noteHighLimit": 127,
              "rtr": "PITCH_SHIFT"
            },
            "ctb2High": null
          },
          "notes": [
            {
              "pitch": 24,
              "velocity": 100,
              "position": 0,
              "duration": 0.4791666666666667
            },
            {
              "pitch": 24,
              "velocity": 100,
              "position": 1,
              "duration": 0.46875
            },
            {
              "pitch": 24,
              "velocity": 80,
              "position": 1.7708333333333333,
              "duration": 0.21875
            },
            {
              "pitch": 28,
              "velocity": 100,
              "position": 2,
              "duration": 0.4791666666666667
            },
            {
              "pitch": 29,
              "velocity": 100,
              "position": 2.5,
              "duration": 0.4895833333333333
            },
            {
              "pitch": 31,
              "velocity": 100,
              "position": 3,
              "duration": 0.16666666666666666
            },
            {
              "pitch": 33,
              "velocity": 100,
              "position": 3.5,
              "duration": 1.4375
            },
            {
              "pitch": 33,
              "velocity": 82,
              "position": 5,
              "duration": 0.07291666666666667
            },
            {
              "pitch": 33,
              "velocity": 82,
              "position": 5.270833333333333,
              "duration": 0.07291666666666667
            },
            {
              "pitch": 33,
              "velocity": 100,
              "position": 5.5,
              "duration": 0.28125
            },
            {
              "pitch": 31,
              "velocity": 100,
              "position": 6,
              "duration": 0.4895833333333333
            },
            {
              "pitch": 33,
              "velocity": 100,
              "position": 6.5,
              "duration": 0.4895833333333333
            },
            {
              "pitch": 28,
              "velocity": 100,
              "position": 7,
              "duration": 0.4895833333333333
            },
            {
              "pitch": 31,
              "velocity": 100,
              "position": 7.5,
              "duration": 0.4895833333333333
            },
            {
              "pitch": 26,
              "velocity": 100,
              "position": 8,
              "duration": 0.46875
            },
            {
              "pitch": 26,
              "velocity": 100,
              "position": 8.5,
              "duration": 0.020833333333333332
            },
            {
              "pitch": 26,
              "velocity": 100,
              "position": 9,
              "duration": 0.46875
            },
            {
              "pitch": 26,
              "velocity": 100,
              "position": 9.5,
              "duration": 0.020833333333333332
            },
            {
              "pitch": 26,
              "velocity": 80,
              "position": 9.770833333333334,
              "duration": 0.21875
            },
            {
              "pitch": 26,
              "velocity": 100,
              "position": 10,
              "duration": 0.4479166666666667
            },
            {
              "pitch": 28,
              "velocity": 100,
              "position": 10.5,
              "duration": 0.4895833333333333
            },
            {
              "pitch": 29,
              "velocity": 100,
              "position": 11,
              "duration": 0.16666666666666666
            },
            {
              "pitch": 31,
              "velocity": 100,
              "position": 11.5,
              "duration": 0.4895833333333333
            },
            {
              "pitch": 31,
              "velocity": 100,
              "position": 12,
              "duration": 0.010416666666666666
            },
            {
              "pitch": 31,
              "velocity": 100,
              "position": 12.270833333333334,
              "duration": 0.010416666666666666
            },
            {
              "pitch": 31,
              "velocity": 100,
              "position": 12.5,
              "duration": 0.1875
            },
            {
              "pitch": 31,
              "velocity": 100,
              "position": 13,
              "duration": 0.4895833333333333
            },
            {
              "pitch": 31,
              "velocity": 100,
              "position": 13.5,
              "duration": 0.010416666666666666
            },
            {
              "pitch": 31,
              "velocity": 100,
              "position": 13.770833333333334,
              "duration": 0.010416666666666666
            },
            {
              "pitch": 34,
              "velocity": 100,
              "position": 14,
              "duration": 0.21875
            },
            {
              "pitch": 34,
              "velocity": 100,
              "position": 14.5,
              "duration": 0.4895833333333333
            },
            {
              "pitch": 31,
              "velocity": 100,
              "position": 15,
              "duration": 0.46875
            },
            {
              "pitch": 31,
              "velocity": 100,
              "position": 15.5,
              "duration": 0.4895833333333333
            },
            {
              "pitch": 24,
              "velocity": 100,
              "position": 16,
              "duration": 0.4791666666666667
            },
            {
              "pitch": 24,
              "velocity": 100,
              "position": 16.5,
              "duration": 0.020833333333333332
            },
            {
              "pitch": 24,
              "velocity": 100,
              "position": 17,
              "duration": 0.46875
            },
            {
              "pitch": 24,
              "velocity": 100,
              "position": 17.5,
              "duration": 0.020833333333333332
            },
            {
              "pitch": 24,
              "velocity": 80,
              "position": 17.770833333333332,
              "duration": 0.21875
            },
            {
              "pitch": 28,
              "velocity": 100,
              "position": 18,
              "duration": 0.4791666666666667
            },
            {
              "pitch": 29,
              "velocity": 100,
              "position": 18.5,
              "duration": 0.4895833333333333
            },
            {
              "pitch": 31,
              "velocity": 100,
              "position": 19,
              "duration": 0.16666666666666666
            },
            {
              "pitch": 33,
              "velocity": 100,
              "position": 19.5,
              "duration": 1.4375
            },
            {
              "pitch": 33,
              "velocity": 100,
              "position": 21,
              "duration": 0.020833333333333332
            },
            {
              "pitch": 33,
              "velocity": 100,
              "position": 21.270833333333332,
              "duration": 0.010416666666666666
            },
            {
              "pitch": 33,
              "velocity": 100,
              "position": 21.5,
              "duration": 0.28125
            },
            {
              "pitch": 31,
              "velocity": 100,
              "position": 22,
              "duration": 0.4895833333333333
            },
            {
              "pitch": 33,
              "velocity": 100,
              "position": 22.5,
              "duration": 0.4895833333333333
            },
            {
              "pitch": 28,
              "velocity": 100,
              "position": 23,
              "duration": 0.4895833333333333
            },
            {
              "pitch": 31,
              "velocity": 100,
              "position": 23.5,
              "duration": 0.4895833333333333
            },
            {
              "pitch": 26,
              "velocity": 100,
              "position": 24,
              "duration": 0.46875
            },
            {
              "pitch": 26,
              "velocity": 100,
              "position": 24.5,
              "duration": 0.020833333333333332
            },
            {
              "pitch": 26,
              "velocity": 100,
              "position": 25,
              "duration": 0.46875
            },
            {
              "pitch": 26,
              "velocity": 100,
              "position": 25.5,
              "duration": 0.020833333333333332
            },
            {
              "pitch": 26,
              "velocity": 80,
              "position": 25.770833333333332,
              "duration": 0.21875
            },
            {
              "pitch": 26,
              "velocity": 100,
              "position": 26,
              "duration": 0.4479166666666667
            },
            {
              "pitch": 28,
              "velocity": 100,
              "position": 26.5,
              "duration": 0.4895833333333333
            },
            {
              "pitch": 29,
              "velocity": 100,
              "position": 27,
              "duration": 0.16666666666666666
            },
            {
              "pitch": 31,
              "velocity": 100,
              "position": 27.5,
              "duration": 0.4895833333333333
            },
            {
              "pitch": 31,
              "velocity": 100,
              "position": 28,
              "duration": 0.010416666666666666
            },
            {
              "pitch": 31,
              "velocity": 100,
              "position": 28.270833333333332,
              "duration": 0.010416666666666666
            },
            {
              "pitch": 31,
              "velocity": 100,
              "position": 28.5,
              "duration": 0.1875
            },
            {
              "pitch": 31,
              "velocity": 100,
              "position": 29,
              "duration": 0.4895833333333333
            },
            {
              "pitch": 31,
              "velocity": 100,
              "position": 29.5,
              "duration": 0.010416666666666666
            },
            {
              "pitch": 31,
              "velocity": 100,
              "position": 29.770833333333332,
              "duration": 0.010416666666666666
            },
            {
              "pitch": 31,
              "velocity": 100,
              "position": 30,
              "duration": 0.4895833333333333
            },
            {
              "pitch": 31,
              "velocity": 100,
              "position": 31,
              "duration": 0.46875
            }
          ]
        },
        "11": {
          "ctab": {
            "srcChannel": 11,
            "name": "Gt",
            "accType": "CHORD1",
            "editable": false,
            "mutedNotes": [],
            "mutedChords": [
              "dim7",
              "dim",
              "minMaj7(9)",
              "minMaj7",
              "min7(11)",
              "min7(9)",
              "min(9)",
              "m7b5",
              "min7",
              "min6",
              "min"
            ],
            "autoStart": false,
            "sourceChordNote": 0,
            "sourceChordType": "Maj",
            "ctb2Low": null,
            "ctb2Main": {
              "ntr": "ROOT_TRANSPOSITION",
              "ntt": "BYPASS",
              "bassOn": false,
              "chordRootUpperLimit": 8,
              "noteLowLimit": 54,
              "noteHighLimit": 65,
              "rtr": "PITCH_SHIFT"
            },
            "ctb2High": null
          },
          "notes": [
            {
              "pitch": 55,
              "velocity": 117,
              "position": 0.5,
              "duration": 0.09375
            },
            {
              "pitch": 59,
              "velocity": 117,
              "position": 0.5,
              "duration": 0.09375
            },
            {
              "pitch": 64,
              "velocity": 117,
              "position": 0.5,
              "duration": 0.09375
            },
            {
              "pitch": 55,
              "velocity": 117,
              "position": 1.5,
              "duration": 0.23958333333333334
            },
            {
              "pitch": 59,
              "velocity": 117,
              "position": 1.5,
              "duration": 0.23958333333333334
            },
            {
              "pitch": 64,
              "velocity": 117,
              "position": 1.5,
              "duration": 0.23958333333333334
            },
            {
              "pitch": 55,
              "velocity": 117,
              "position": 1.7604166666666667,
              "duration": 0.09375
            },
            {
              "pitch": 59,
              "velocity": 117,
              "position": 1.7604166666666667,
              "duration": 0.09375
            },
            {
              "pitch": 64,
              "velocity": 117,
              "position": 1.7604166666666667,
              "duration": 0.09375
            },
            {
              "pitch": 55,
              "velocity": 117,
              "position": 2.5,
              "duration": 0.09375
            },
            {
              "pitch": 59,
              "velocity": 117,
              "position": 2.5,
              "duration": 0.09375
            },
            {
              "pitch": 64,
              "velocity": 117,
              "position": 2.5,
              "duration": 0.09375
            },
            {
              "pitch": 55,
              "velocity": 117,
              "position": 3.5,
              "duration": 0.09375
            },
            {
              "pitch": 60,
              "velocity": 117,
              "position": 3.5,
              "duration": 0.09375
            },
            {
              "pitch": 64,
              "velocity": 117,
              "position": 3.5,
              "duration": 0.09375
            },
            {
              "pitch": 55,
              "velocity": 117,
              "position": 4.5,
              "duration": 0.09375
            },
            {
              "pitch": 60,
              "velocity": 117,
              "position": 4.5,
              "duration": 0.09375
            },
            {
              "pitch": 64,
              "velocity": 117,
              "position": 4.5,
              "duration": 0.09375
            },
            {
              "pitch": 55,
              "velocity": 117,
              "position": 5.5,
              "duration": 0.09375
            },
            {
              "pitch": 60,
              "velocity": 117,
              "position": 5.5,
              "duration": 0.09375
            },
            {
              "pitch": 64,
              "velocity": 117,
              "position": 5.5,
              "duration": 0.09375
            },
            {
              "pitch": 55,
              "velocity": 117,
              "position": 6.5,
              "duration": 0.09375
            },
            {
              "pitch": 60,
              "velocity": 117,
              "position": 6.5,
              "duration": 0.09375
            },
            {
              "pitch": 64,
              "velocity": 117,
              "position": 6.5,
              "duration": 0.09375
            },
            {
              "pitch": 55,
              "velocity": 117,
              "position": 7.5,
              "duration": 0.09375
            },
            {
              "pitch": 60,
              "velocity": 117,
              "position": 7.5,
              "duration": 0.09375
            },
            {
              "pitch": 64,
              "velocity": 117,
              "position": 7.5,
              "duration": 0.09375
            },
            {
              "pitch": 57,
              "velocity": 117,
              "position": 8.5,
              "duration": 0.09375
            },
            {
              "pitch": 60,
              "velocity": 117,
              "position": 8.5,
              "duration": 0.09375
            },
            {
              "pitch": 65,
              "velocity": 117,
              "position": 8.5,
              "duration": 0.09375
            },
            {
              "pitch": 57,
              "velocity": 117,
              "position": 9.5,
              "duration": 0.23958333333333334
            },
            {
              "pitch": 60,
              "velocity": 117,
              "position": 9.5,
              "duration": 0.23958333333333334
            },
            {
              "pitch": 65,
              "velocity": 117,
              "position": 9.5,
              "duration": 0.23958333333333334
            },
            {
              "pitch": 57,
              "velocity": 117,
              "position": 9.760416666666666,
              "duration": 0.09375
            },
            {
              "pitch": 60,
              "velocity": 117,
              "position": 9.760416666666666,
              "duration": 0.09375
            },
            {
              "pitch": 65,
              "velocity": 117,
              "position": 9.760416666666666,
              "duration": 0.09375
            },
            {
              "pitch": 57,
              "velocity": 117,
              "position": 10.5,
              "duration": 0.09375
            },
            {
              "pitch": 60,
              "velocity": 117,
              "position": 10.5,
              "duration": 0.09375
            },
            {
              "pitch": 65,
              "velocity": 117,
              "position": 10.5,
              "duration": 0.09375
            },
            {
              "pitch": 57,
              "velocity": 117,
              "position": 11.5,
              "duration": 0.09375
            },
            {
              "pitch": 60,
              "velocity": 117,
              "position": 11.5,
              "duration": 0.09375
            },
            {
              "pitch": 65,
              "velocity": 117,
              "position": 11.5,
              "duration": 0.09375
            },
            {
              "pitch": 57,
              "velocity": 117,
              "position": 12.5,
              "duration": 0.09375
            },
            {
              "pitch": 60,
              "velocity": 117,
              "position": 12.5,
              "duration": 0.09375
            },
            {
              "pitch": 65,
              "velocity": 117,
              "position": 12.5,
              "duration": 0.09375
            },
            {
              "pitch": 57,
              "velocity": 117,
              "position": 13.5,
              "duration": 0.09375
            },
            {
              "pitch": 60,
              "velocity": 117,
              "position": 13.5,
              "duration": 0.09375
            },
            {
              "pitch": 65,
              "velocity": 117,
              "position": 13.5,
              "duration": 0.09375
            },
            {
              "pitch": 56,
              "velocity": 117,
              "position": 14.5,
              "duration": 0.09375
            },
            {
              "pitch": 60,
              "velocity": 117,
              "position": 14.5,
              "duration": 0.09375
            },
            {
              "pitch": 63,
              "velocity": 117,
              "position": 14.5,
              "duration": 0.09375
            },
            {
              "pitch": 57,
              "velocity": 117,
              "position": 15.5,
              "duration": 0.09375
            },
            {
              "pitch": 60,
              "velocity": 117,
              "position": 15.5,
              "duration": 0.09375
            },
            {
              "pitch": 65,
              "velocity": 117,
              "position": 15.5,
              "duration": 0.09375
            },
            {
              "pitch": 55,
              "velocity": 117,
              "position": 16.5,
              "duration": 0.09375
            },
            {
              "pitch": 59,
              "velocity": 117,
              "position": 16.5,
              "duration": 0.09375
            },
            {
              "pitch": 64,
              "velocity": 117,
              "position": 16.5,
              "duration": 0.09375
            },
            {
              "pitch": 55,
              "velocity": 117,
              "position": 17.5,
              "duration": 0.23958333333333334
            },
            {
              "pitch": 59,
              "velocity": 117,
              "position": 17.5,
              "duration": 0.23958333333333334
            },
            {
              "pitch": 64,
              "velocity": 117,
              "position": 17.5,
              "duration": 0.23958333333333334
            },
            {
              "pitch": 55,
              "velocity": 117,
              "position": 17.760416666666668,
              "duration": 0.09375
            },
            {
              "pitch": 59,
              "velocity": 117,
              "position": 17.760416666666668,
              "duration": 0.09375
            },
            {
              "pitch": 64,
              "velocity": 117,
              "position": 17.760416666666668,
              "duration": 0.09375
            },
            {
              "pitch": 55,
              "velocity": 117,
              "position": 18.5,
              "duration": 0.09375
            },
            {
              "pitch": 59,
              "velocity": 117,
              "position": 18.5,
              "duration": 0.09375
            },
            {
              "pitch": 64,
              "velocity": 117,
              "position": 18.5,
              "duration": 0.09375
            },
            {
              "pitch": 55,
              "velocity": 117,
              "position": 19.5,
              "duration": 0.09375
            },
            {
              "pitch": 60,
              "velocity": 117,
              "position": 19.5,
              "duration": 0.09375
            },
            {
              "pitch": 64,
              "velocity": 117,
              "position": 19.5,
              "duration": 0.09375
            },
            {
              "pitch": 55,
              "velocity": 117,
              "position": 20.5,
              "duration": 0.09375
            },
            {
              "pitch": 60,
              "velocity": 117,
              "position": 20.5,
              "duration": 0.09375
            },
            {
              "pitch": 64,
              "velocity": 117,
              "position": 20.5,
              "duration": 0.09375
            },
            {
              "pitch": 55,
              "velocity": 117,
              "position": 21.5,
              "duration": 0.09375
            },
            {
              "pitch": 60,
              "velocity": 117,
              "position": 21.5,
              "duration": 0.09375
            },
            {
              "pitch": 64,
              "velocity": 117,
              "position": 21.5,
              "duration": 0.09375
            },
            {
              "pitch": 55,
              "velocity": 117,
              "position": 22.5,
              "duration": 0.09375
            },
            {
              "pitch": 60,
              "velocity": 117,
              "position": 22.5,
              "duration": 0.09375
            },
            {
              "pitch": 64,
              "velocity": 117,
              "position": 22.5,
              "duration": 0.09375
            },
            {
              "pitch": 55,
              "velocity": 117,
              "position": 23.5,
              "duration": 0.09375
            },
            {
              "pitch": 60,
              "velocity": 117,
              "position": 23.5,
              "duration": 0.09375
            },
            {
              "pitch": 64,
              "velocity": 117,
              "position": 23.5,
              "duration": 0.09375
            },
            {
              "pitch": 57,
              "velocity": 117,
              "position": 24.5,
              "duration": 0.09375
            },
            {
              "pitch": 60,
              "velocity": 117,
              "position": 24.5,
              "duration": 0.09375
            },
            {
              "pitch": 65,
              "velocity": 117,
              "position": 24.5,
              "duration": 0.09375
            },
            {
              "pitch": 57,
              "velocity": 117,
              "position": 25.5,
              "duration": 0.23958333333333334
            },
            {
              "pitch": 60,
              "velocity": 117,
              "position": 25.5,
              "duration": 0.23958333333333334
            },
            {
              "pitch": 65,
              "velocity": 117,
              "position": 25.5,
              "duration": 0.23958333333333334
            },
            {
              "pitch": 57,
              "velocity": 117,
              "position": 25.760416666666668,
              "duration": 0.09375
            },
            {
              "pitch": 60,
              "velocity": 117,
              "position": 25.760416666666668,
              "duration": 0.09375
            },
            {
              "pitch": 65,
              "velocity": 117,
              "position": 25.760416666666668,
              "duration": 0.09375
            },
            {
              "pitch": 57,
              "velocity": 117,
              "position": 26.5,
              "duration": 0.09375
            },
            {
              "pitch": 60,
              "velocity": 117,
              "position": 26.5,
              "duration": 0.09375
            },
            {
              "pitch": 65,
              "velocity": 117,
              "position": 26.5,
              "duration": 0.09375
            },
            {
              "pitch": 57,
              "velocity": 117,
              "position": 27.5,
              "duration": 0.09375
            },
            {
              "pitch": 60,
              "velocity": 117,
              "position": 27.5,
              "duration": 0.09375
            },
            {
              "pitch": 65,
              "velocity": 117,
              "position": 27.5,
              "duration": 0.09375
            },
            {
              "pitch": 57,
              "velocity": 117,
              "position": 28.5,
              "duration": 0.09375
            },
            {
              "pitch": 60,
              "velocity": 117,
              "position": 28.5,
              "duration": 0.09375
            },
            {
              "pitch": 65,
              "velocity": 117,
              "position": 28.5,
              "duration": 0.09375
            },
            {
              "pitch": 57,
              "velocity": 117,
              "position": 29.5,
              "duration": 0.09375
            },
            {
              "pitch": 60,
              "velocity": 117,
              "position": 29.5,
              "duration": 0.09375
            },
            {
              "pitch": 65,
              "velocity": 117,
              "position": 29.5,
              "duration": 0.09375
            },
            {
              "pitch": 57,
              "velocity": 117,
              "position": 30,
              "duration": 0.09375
            },
            {
              "pitch": 60,
              "velocity": 117,
              "position": 30,
              "duration": 0.09375
            },
            {
              "pitch": 65,
              "velocity": 117,
              "position": 30,
              "duration": 0.09375
            },
            {
              "pitch": 57,
              "velocity": 117,
              "position": 31,
              "duration": 0.09375
            },
            {
              "pitch": 60,
              "velocity": 117,
              "position": 31,
              "duration": 0.09375
            },
            {
              "pitch": 65,
              "velocity": 117,
              "position": 31,
              "duration": 0.09375
            }
          ]
        },
        "12": {
          "ctab": {
            "srcChannel": 12,
            "name": "Pno",
            "accType": "CHORD2",
            "editable": false,
            "mutedNotes": [],
            "mutedChords": [
              "dim7",
              "dim",
              "minMaj7(9)",
              "minMaj7",
              "min7(11)",
              "min7(9)",
              "min(9)",
              "m7b5",
              "min7",
              "min6",
              "min"
            ],
            "autoStart": false,
            "sourceChordNote": 0,
            "sourceChordType": "Maj",
            "ctb2Low": null,
            "ctb2Main": {
              "ntr": "ROOT_TRANSPOSITION",
              "ntt": "BYPASS",
              "bassOn": false,
              "chordRootUpperLimit": 8,
              "noteLowLimit": 54,
              "noteHighLimit": 65,
              "rtr": "PITCH_SHIFT"
            },
            "ctb2High": null
          },
          "notes": [
            {
              "pitch": 55,
              "velocity": 89,
              "position": 0,
              "duration": 2.9895833333333335
            },
            {
              "pitch": 59,
              "velocity": 89,
              "position": 0,
              "duration": 2.9895833333333335
            },
            {
              "pitch": 62,
              "velocity": 89,
              "position": 0,
              "duration": 2.9895833333333335
            },
            {
              "pitch": 64,
              "velocity": 89,
              "position": 0,
              "duration": 2.9895833333333335
            },
            {
              "pitch": 55,
              "velocity": 89,
              "position": 3.5,
              "duration": 3.9895833333333335
            },
            {
              "pitch": 59,
              "velocity": 89,
              "position": 3.5,
              "duration": 3.9895833333333335
            },
            {
              "pitch": 60,
              "velocity": 89,
              "position": 3.5,
              "duration": 3.9895833333333335
            },
            {
              "pitch": 64,
              "velocity": 89,
              "position": 3.5,
              "duration": 3.9895833333333335
            },
            {
              "pitch": 53,
              "velocity": 89,
              "position": 8,
              "duration": 2.9895833333333335
            },
            {
              "pitch": 57,
              "velocity": 89,
              "position": 8,
              "duration": 2.9895833333333335
            },
            {
              "pitch": 60,
              "velocity": 89,
              "position": 8,
              "duration": 2.9895833333333335
            },
            {
              "pitch": 64,
              "velocity": 89,
              "position": 8,
              "duration": 2.9895833333333335
            },
            {
              "pitch": 53,
              "velocity": 89,
              "position": 11.5,
              "duration": 1.9895833333333333
            },
            {
              "pitch": 57,
              "velocity": 89,
              "position": 11.5,
              "duration": 1.9895833333333333
            },
            {
              "pitch": 60,
              "velocity": 89,
              "position": 11.5,
              "duration": 1.9895833333333333
            },
            {
              "pitch": 64,
              "velocity": 89,
              "position": 11.5,
              "duration": 1.9895833333333333
            },
            {
              "pitch": 56,
              "velocity": 89,
              "position": 14,
              "duration": 0.9479166666666666
            },
            {
              "pitch": 60,
              "velocity": 89,
              "position": 14,
              "duration": 0.9479166666666666
            },
            {
              "pitch": 63,
              "velocity": 89,
              "position": 14,
              "duration": 0.9479166666666666
            },
            {
              "pitch": 65,
              "velocity": 89,
              "position": 14,
              "duration": 0.9479166666666666
            },
            {
              "pitch": 57,
              "velocity": 89,
              "position": 15,
              "duration": 0.9479166666666666
            },
            {
              "pitch": 60,
              "velocity": 89,
              "position": 15,
              "duration": 0.9479166666666666
            },
            {
              "pitch": 62,
              "velocity": 89,
              "position": 15,
              "duration": 0.9479166666666666
            },
            {
              "pitch": 65,
              "velocity": 89,
              "position": 15,
              "duration": 0.9479166666666666
            },
            {
              "pitch": 55,
              "velocity": 89,
              "position": 16,
              "duration": 2.9895833333333335
            },
            {
              "pitch": 59,
              "velocity": 89,
              "position": 16,
              "duration": 2.9895833333333335
            },
            {
              "pitch": 62,
              "velocity": 89,
              "position": 16,
              "duration": 2.9895833333333335
            },
            {
              "pitch": 64,
              "velocity": 89,
              "position": 16,
              "duration": 2.9895833333333335
            },
            {
              "pitch": 55,
              "velocity": 89,
              "position": 19.5,
              "duration": 3.9895833333333335
            },
            {
              "pitch": 59,
              "velocity": 89,
              "position": 19.5,
              "duration": 3.9895833333333335
            },
            {
              "pitch": 60,
              "velocity": 89,
              "position": 19.5,
              "duration": 3.9895833333333335
            },
            {
              "pitch": 64,
              "velocity": 89,
              "position": 19.5,
              "duration": 3.9895833333333335
            },
            {
              "pitch": 53,
              "velocity": 89,
              "position": 24,
              "duration": 2.9895833333333335
            },
            {
              "pitch": 57,
              "velocity": 89,
              "position": 24,
              "duration": 2.9895833333333335
            },
            {
              "pitch": 60,
              "velocity": 89,
              "position": 24,
              "duration": 2.9895833333333335
            },
            {
              "pitch": 64,
              "velocity": 89,
              "position": 24,
              "duration": 2.9895833333333335
            },
            {
              "pitch": 53,
              "velocity": 89,
              "position": 27.5,
              "duration": 1.9895833333333333
            },
            {
              "pitch": 57,
              "velocity": 89,
              "position": 27.5,
              "duration": 1.9895833333333333
            },
            {
              "pitch": 60,
              "velocity": 89,
              "position": 27.5,
              "duration": 1.9895833333333333
            },
            {
              "pitch": 64,
              "velocity": 89,
              "position": 27.5,
              "duration": 1.9895833333333333
            },
            {
              "pitch": 57,
              "velocity": 89,
              "position": 30,
              "duration": 0.4895833333333333
            },
            {
              "pitch": 60,
              "velocity": 89,
              "position": 30,
              "duration": 0.4895833333333333
            },
            {
              "pitch": 65,
              "velocity": 89,
              "position": 30,
              "duration": 0.4895833333333333
            },
            {
              "pitch": 57,
              "velocity": 89,
              "position": 31,
              "duration": 0.4895833333333333
            },
            {
              "pitch": 60,
              "velocity": 89,
              "position": 31,
              "duration": 0.4895833333333333
            },
            {
              "pitch": 65,
              "velocity": 89,
              "position": 31,
              "duration": 0.4895833333333333
            }
          ]
        },
        "13": {
          "ctab": {
            "srcChannel": 13,
            "name": "Str",
            "accType": "PAD",
            "editable": false,
            "mutedNotes": [],
            "mutedChords": [
              "dim7",
              "dim",
              "minMaj7(9)",
              "minMaj7",
              "min7(11)",
              "min7(9)",
              "min(9)",
              "m7b5",
              "min7",
              "min6",
              "min"
            ],
            "autoStart": false,
            "sourceChordNote": 0,
            "sourceChordType": "Maj",
            "ctb2Low": null,
            "ctb2Main": {
              "ntr": "ROOT_TRANSPOSITION",
              "ntt": "BYPASS",
              "bassOn": false,
              "chordRootUpperLimit": 8,
              "noteLowLimit": 54,
              "noteHighLimit": 77,
              "rtr": "PITCH_SHIFT"
            },
            "ctb2High": null
          },
          "notes": [
            {
              "pitch": 83,
              "velocity": 80,
              "position": 16,
              "duration": 3.4895833333333335
            },
            {
              "pitch": 79,
              "velocity": 80,
              "position": 16,
              "duration": 7.989583333333333
            },
            {
              "pitch": 88,
              "velocity": 80,
              "position": 16,
              "duration": 7.989583333333333
            },
            {
              "pitch": 81,
              "velocity": 80,
              "position": 24,
              "duration": 5.989583333333333
            },
            {
              "pitch": 84,
              "velocity": 80,
              "position": 19.5,
              "duration": 10.489583333333334
            },
            {
              "pitch": 89,
              "velocity": 80,
              "position": 24,
              "duration": 5.989583333333333
            }
          ]
        },
        "14": {
          "ctab": {
            "srcChannel": 14,
            "name": "Brs",
            "accType": "PHRASE1",
            "editable": false,
            "mutedNotes": [],
            "mutedChords": [
              "dim7",
              "dim",
              "minMaj7(9)",
              "minMaj7",
              "min7(11)",
              "min7(9)",
              "min(9)",
              "m7b5",
              "min7",
              "min6",
              "min"
            ],
            "autoStart": false,
            "sourceChordNote": 0,
            "sourceChordType": "Maj",
            "ctb2Low": null,
            "ctb2Main": {
              "ntr": "ROOT_TRANSPOSITION",
              "ntt": "BYPASS",
              "bassOn": false,
              "chordRootUpperLimit": 10,
              "noteLowLimit": 43,
              "noteHighLimit": 127,
              "rtr": "PITCH_SHIFT"
            },
            "ctb2High": null
          },
          "notes": [
            {
              "pitch": 60,
              "velocity": 101,
              "position": 16,
              "duration": 0.5104166666666666
            },
            {
              "pitch": 72,
              "velocity": 101,
              "position": 16,
              "duration": 0.5104166666666666
            },
            {
              "pitch": 59,
              "velocity": 101,
              "position": 16.5,
              "duration": 0.2604166666666667
            },
            {
              "pitch": 71,
              "velocity": 101,
              "position": 16.5,
              "duration": 0.2604166666666667
            },
            {
              "pitch": 57,
              "velocity": 101,
              "position": 17.5,
              "duration": 0.2604166666666667
            },
            {
              "pitch": 69,
              "velocity": 101,
              "position": 17.5,
              "duration": 0.2604166666666667
            },
            {
              "pitch": 55,
              "velocity": 101,
              "position": 18.5,
              "duration": 0.2604166666666667
            },
            {
              "pitch": 67,
              "velocity": 101,
              "position": 18.5,
              "duration": 0.2604166666666667
            },
            {
              "pitch": 57,
              "velocity": 101,
              "position": 19.5,
              "duration": 3.4895833333333335
            },
            {
              "pitch": 69,
              "velocity": 101,
              "position": 19.5,
              "duration": 3.4895833333333335
            },
            {
              "pitch": 57,
              "velocity": 101,
              "position": 23.5,
              "duration": 0.25
            },
            {
              "pitch": 69,
              "velocity": 101,
              "position": 23.5,
              "duration": 0.25
            },
            {
              "pitch": 59,
              "velocity": 82,
              "position": 23.760416666666668,
              "duration": 0.22916666666666666
            },
            {
              "pitch": 71,
              "velocity": 82,
              "position": 23.760416666666668,
              "duration": 0.22916666666666666
            },
            {
              "pitch": 60,
              "velocity": 101,
              "position": 24,
              "duration": 0.4895833333333333
            },
            {
              "pitch": 72,
              "velocity": 101,
              "position": 24,
              "duration": 0.4895833333333333
            },
            {
              "pitch": 59,
              "velocity": 101,
              "position": 24.5,
              "duration": 0.2604166666666667
            },
            {
              "pitch": 71,
              "velocity": 101,
              "position": 24.5,
              "duration": 0.2604166666666667
            },
            {
              "pitch": 57,
              "velocity": 101,
              "position": 25.5,
              "duration": 0.2604166666666667
            },
            {
              "pitch": 69,
              "velocity": 101,
              "position": 25.5,
              "duration": 0.2604166666666667
            },
            {
              "pitch": 55,
              "velocity": 101,
              "position": 26.5,
              "duration": 0.2604166666666667
            },
            {
              "pitch": 67,
              "velocity": 101,
              "position": 26.5,
              "duration": 0.2604166666666667
            },
            {
              "pitch": 57,
              "velocity": 101,
              "position": 27.5,
              "duration": 0.9895833333333334
            },
            {
              "pitch": 69,
              "velocity": 101,
              "position": 27.5,
              "duration": 0.9895833333333334
            },
            {
              "pitch": 60,
              "velocity": 101,
              "position": 28.5,
              "duration": 0.2604166666666667
            },
            {
              "pitch": 72,
              "velocity": 101,
              "position": 28.5,
              "duration": 0.2604166666666667
            },
            {
              "pitch": 31,
              "velocity": 101,
              "position": 30,
              "duration": 0.3958333333333333
            },
            {
              "pitch": 65,
              "velocity": 101,
              "position": 30,
              "duration": 0.3958333333333333
            },
            {
              "pitch": 69,
              "velocity": 101,
              "position": 30,
              "duration": 0.3958333333333333
            },
            {
              "pitch": 72,
              "velocity": 101,
              "position": 30,
              "duration": 0.3958333333333333
            },
            {
              "pitch": 31,
              "velocity": 101,
              "position": 31,
              "duration": 0.3958333333333333
            },
            {
              "pitch": 65,
              "velocity": 101,
              "position": 31,
              "duration": 0.3958333333333333
            },
            {
              "pitch": 69,
              "velocity": 101,
              "position": 31,
              "duration": 0.3958333333333333
            },
            {
              "pitch": 72,
              "velocity": 101,
              "position": 31,
              "duration": 0.3958333333333333
            }
          ]
        },
        "15": {
          "ctab": {
            "srcChannel": 15,
            "name": "MtGt",
            "accType": "PHRASE2",
            "editable": false,
            "mutedNotes": [],
            "mutedChords": [
              "dim7",
              "dim",
              "minMaj7(9)",
              "minMaj7",
              "min7(11)",
              "min7(9)",
              "min(9)",
              "m7b5",
              "min7",
              "min6",
              "min"
            ],
            "autoStart": false,
            "sourceChordNote": 0,
            "sourceChordType": "Maj",
            "ctb2Low": null,
            "ctb2Main": {
              "ntr": "ROOT_TRANSPOSITION",
              "ntt": "BYPASS",
              "bassOn": false,
              "chordRootUpperLimit": 6,
              "noteLowLimit": 0,
              "noteHighLimit": 127,
              "rtr": "PITCH_SHIFT"
            },
            "ctb2High": null
          },
          "notes": [
            {
              "pitch": 55,
              "velocity": 100,
              "position": 0.5,
              "duration": 0.010416666666666666
            },
            {
              "pitch": 55,
              "velocity": 100,
              "position": 1,
              "duration": 0.010416666666666666
            },
            {
              "pitch": 55,
              "velocity": 100,
              "position": 1.5,
              "duration": 0.010416666666666666
            },
            {
              "pitch": 55,
              "velocity": 100,
              "position": 2.28125,
              "duration": 0.020833333333333332
            },
            {
              "pitch": 55,
              "velocity": 97,
              "position": 2.5,
              "duration": 0.23958333333333334
            },
            {
              "pitch": 55,
              "velocity": 40,
              "position": 2.78125,
              "duration": 0.10416666666666667
            },
            {
              "pitch": 55,
              "velocity": 95,
              "position": 3,
              "duration": 0.25
            },
            {
              "pitch": 55,
              "velocity": 53,
              "position": 3.28125,
              "duration": 0.125
            },
            {
              "pitch": 55,
              "velocity": 96,
              "position": 3.5,
              "duration": 0.2604166666666667
            },
            {
              "pitch": 55,
              "velocity": 76,
              "position": 3.78125,
              "duration": 0.125
            },
            {
              "pitch": 55,
              "velocity": 45,
              "position": 4,
              "duration": 0.010416666666666666
            },
            {
              "pitch": 57,
              "velocity": 111,
              "position": 4.28125,
              "duration": 0.020833333333333332
            },
            {
              "pitch": 60,
              "velocity": 98,
              "position": 4.5,
              "duration": 0.28125
            },
            {
              "pitch": 55,
              "velocity": 100,
              "position": 8,
              "duration": 0.010416666666666666
            },
            {
              "pitch": 55,
              "velocity": 100,
              "position": 8.28125,
              "duration": 0.020833333333333332
            },
            {
              "pitch": 55,
              "velocity": 104,
              "position": 8.5,
              "duration": 0.23958333333333334
            },
            {
              "pitch": 55,
              "velocity": 45,
              "position": 8.78125,
              "duration": 0.125
            },
            {
              "pitch": 55,
              "velocity": 100,
              "position": 9.28125,
              "duration": 0.020833333333333332
            },
            {
              "pitch": 55,
              "velocity": 96,
              "position": 9.5,
              "duration": 0.22916666666666666
            },
            {
              "pitch": 55,
              "velocity": 47,
              "position": 9.78125,
              "duration": 0.1875
            },
            {
              "pitch": 55,
              "velocity": 100,
              "position": 10,
              "duration": 0.010416666666666666
            },
            {
              "pitch": 55,
              "velocity": 55,
              "position": 10.28125,
              "duration": 0.125
            },
            {
              "pitch": 55,
              "velocity": 100,
              "position": 10.5,
              "duration": 0.2604166666666667
            },
            {
              "pitch": 55,
              "velocity": 82,
              "position": 10.78125,
              "duration": 0.1875
            },
            {
              "pitch": 55,
              "velocity": 100,
              "position": 11,
              "duration": 0.25
            },
            {
              "pitch": 55,
              "velocity": 62,
              "position": 11.28125,
              "duration": 0.125
            },
            {
              "pitch": 57,
              "velocity": 103,
              "position": 11.5,
              "duration": 0.11458333333333333
            },
            {
              "pitch": 60,
              "velocity": 101,
              "position": 11.78125,
              "duration": 0.3645833333333333
            },
            {
              "pitch": 60,
              "velocity": 36,
              "position": 12.28125,
              "duration": 0.21875
            },
            {
              "pitch": 57,
              "velocity": 107,
              "position": 12.5,
              "duration": 0.25
            },
            {
              "pitch": 55,
              "velocity": 100,
              "position": 16.5,
              "duration": 0.010416666666666666
            },
            {
              "pitch": 55,
              "velocity": 100,
              "position": 17,
              "duration": 0.010416666666666666
            },
            {
              "pitch": 55,
              "velocity": 100,
              "position": 17.5,
              "duration": 0.010416666666666666
            },
            {
              "pitch": 55,
              "velocity": 100,
              "position": 18.28125,
              "duration": 0.020833333333333332
            },
            {
              "pitch": 55,
              "velocity": 97,
              "position": 18.5,
              "duration": 0.23958333333333334
            },
            {
              "pitch": 55,
              "velocity": 40,
              "position": 18.78125,
              "duration": 0.10416666666666667
            },
            {
              "pitch": 55,
              "velocity": 95,
              "position": 19,
              "duration": 0.25
            },
            {
              "pitch": 55,
              "velocity": 53,
              "position": 19.28125,
              "duration": 0.125
            },
            {
              "pitch": 55,
              "velocity": 96,
              "position": 19.5,
              "duration": 0.2604166666666667
            },
            {
              "pitch": 55,
              "velocity": 76,
              "position": 19.78125,
              "duration": 0.125
            },
            {
              "pitch": 55,
              "velocity": 45,
              "position": 20,
              "duration": 0.010416666666666666
            },
            {
              "pitch": 57,
              "velocity": 111,
              "position": 20.28125,
              "duration": 0.020833333333333332
            },
            {
              "pitch": 59,
              "velocity": 98,
              "position": 20.5,
              "duration": 0.28125
            },
            {
              "pitch": 55,
              "velocity": 100,
              "position": 24,
              "duration": 0.010416666666666666
            },
            {
              "pitch": 55,
              "velocity": 100,
              "position": 24.28125,
              "duration": 0.020833333333333332
            },
            {
              "pitch": 55,
              "velocity": 104,
              "position": 24.5,
              "duration": 0.23958333333333334
            },
            {
              "pitch": 55,
              "velocity": 45,
              "position": 24.78125,
              "duration": 0.125
            },
            {
              "pitch": 55,
              "velocity": 100,
              "position": 25.28125,
              "duration": 0.020833333333333332
            },
            {
              "pitch": 55,
              "velocity": 96,
              "position": 25.5,
              "duration": 0.22916666666666666
            },
            {
              "pitch": 55,
              "velocity": 47,
              "position": 25.78125,
              "duration": 0.1875
            },
            {
              "pitch": 55,
              "velocity": 100,
              "position": 26,
              "duration": 0.010416666666666666
            },
            {
              "pitch": 55,
              "velocity": 55,
              "position": 26.28125,
              "duration": 0.125
            },
            {
              "pitch": 55,
              "velocity": 100,
              "position": 26.5,
              "duration": 0.2604166666666667
            },
            {
              "pitch": 55,
              "velocity": 82,
              "position": 26.78125,
              "duration": 0.1875
            },
            {
              "pitch": 55,
              "velocity": 100,
              "position": 27,
              "duration": 0.25
            },
            {
              "pitch": 55,
              "velocity": 62,
              "position": 27.28125,
              "duration": 0.125
            },
            {
              "pitch": 57,
              "velocity": 103,
              "position": 27.5,
              "duration": 0.11458333333333333
            },
            {
              "pitch": 60,
              "velocity": 101,
              "position": 27.78125,
              "duration": 0.3645833333333333
            },
            {
              "pitch": 60,
              "velocity": 36,
              "position": 28.28125,
              "duration": 0.21875
            },
            {
              "pitch": 57,
              "velocity": 107,
              "position": 28.5,
              "duration": 0.25
            }
          ]
        }
      }
    },
    "Ending_C": {
      "type": "Ending_C",
      "sizeInBeats": 24,
      "channels": {
        "1": {
          "ctab": {
            "srcChannel": 1,
            "name": "Bass",
            "accType": "BASS",
            "editable": false,
            "mutedNotes": [],
            "mutedChords": [
              "1+2+5",
              "sus4",
              "1+5",
              "1+8",
              "7aug",
              "Maj7aug",
              "7(#9)",
              "7(b13)",
              "7(b9)",
              "7(13)",
              "7#11",
              "7(9)",
              "7b5",
              "7sus4",
              "7th",
              "aug",
              "Maj6(9)",
              "Maj7(9)",
              "Maj(9)",
              "Maj7#11",
              "Maj7",
              "Maj6",
              "Maj"
            ],
            "autoStart": false,
            "sourceChordNote": 0,
            "sourceChordType": "min",
            "ctb2Low": null,
            "ctb2Main": {
              "ntr": "ROOT_TRANSPOSITION",
              "ntt": "BYPASS",
              "bassOn": false,
              "chordRootUpperLimit": 8,
              "noteLowLimit": 28,
              "noteHighLimit": 127,
              "rtr": "PITCH_SHIFT"
            },
            "ctb2High": null
          },
          "notes": [
            {
              "pitch": 24,
              "velocity": 100,
              "position": 0,
              "duration": 0.4791666666666667
            },
            {
              "pitch": 24,
              "velocity": 100,
              "position": 0.5,
              "duration": 0.010416666666666666
            },
            {
              "pitch": 24,
              "velocity": 100,
              "position": 1,
              "duration": 0.46875
            },
            {
              "pitch": 24,
              "velocity": 100,
              "position": 1.5,
              "duration": 0.010416666666666666
            },
            {
              "pitch": 24,
              "velocity": 100,
              "position": 1.7708333333333333,
              "duration": 0.15625
            },
            {
              "pitch": 31,
              "velocity": 100,
              "position": 2.5,
              "duration": 0.46875
            },
            {
              "pitch": 31,
              "velocity": 100,
              "position": 3,
              "duration": 0.010416666666666666
            },
            {
              "pitch": 32,
              "velocity": 100,
              "position": 3.5,
              "duration": 0.4895833333333333
            },
            {
              "pitch": 32,
              "velocity": 100,
              "position": 4,
              "duration": 0.46875
            },
            {
              "pitch": 32,
              "velocity": 100,
              "position": 4.5,
              "duration": 0.010416666666666666
            },
            {
              "pitch": 32,
              "velocity": 100,
              "position": 5,
              "duration": 0.46875
            },
            {
              "pitch": 32,
              "velocity": 100,
              "position": 5.5,
              "duration": 0.010416666666666666
            },
            {
              "pitch": 32,
              "velocity": 100,
              "position": 5.770833333333333,
              "duration": 0.15625
            },
            {
              "pitch": 32,
              "velocity": 100,
              "position": 6.5,
              "duration": 0.46875
            },
            {
              "pitch": 32,
              "velocity": 100,
              "position": 7,
              "duration": 0.010416666666666666
            },
            {
              "pitch": 31,
              "velocity": 100,
              "position": 7.5,
              "duration": 0.4895833333333333
            },
            {
              "pitch": 29,
              "velocity": 100,
              "position": 8,
              "duration": 0.46875
            },
            {
              "pitch": 29,
              "velocity": 100,
              "position": 8.5,
              "duration": 0.010416666666666666
            },
            {
              "pitch": 29,
              "velocity": 100,
              "position": 9,
              "duration": 0.46875
            },
            {
              "pitch": 29,
              "velocity": 100,
              "position": 9.5,
              "duration": 0.010416666666666666
            },
            {
              "pitch": 29,
              "velocity": 100,
              "position": 9.770833333333334,
              "duration": 0.15625
            },
            {
              "pitch": 29,
              "velocity": 100,
              "position": 10.5,
              "duration": 0.46875
            },
            {
              "pitch": 29,
              "velocity": 100,
              "position": 11,
              "duration": 0.010416666666666666
            },
            {
              "pitch": 29,
              "velocity": 100,
              "position": 11.5,
              "duration": 0.4895833333333333
            },
            {
              "pitch": 34,
              "velocity": 100,
              "position": 12,
              "duration": 0.46875
            },
            {
              "pitch": 34,
              "velocity": 100,
              "position": 12.5,
              "duration": 0.010416666666666666
            },
            {
              "pitch": 34,
              "velocity": 100,
              "position": 13,
              "duration": 0.46875
            },
            {
              "pitch": 34,
              "velocity": 100,
              "position": 13.5,
              "duration": 0.010416666666666666
            },
            {
              "pitch": 34,
              "velocity": 100,
              "position": 13.770833333333334,
              "duration": 0.15625
            },
            {
              "pitch": 34,
              "velocity": 100,
              "position": 14,
              "duration": 0.46875
            },
            {
              "pitch": 35,
              "velocity": 100,
              "position": 15,
              "duration": 0.4895833333333333
            },
            {
              "pitch": 24,
              "velocity": 100,
              "position": 16,
              "duration": 6
            }
          ]
        },
        "2": {
          "ctab": {
            "srcChannel": 2,
            "name": "Gt",
            "accType": "CHORD1",
            "editable": false,
            "mutedNotes": [],
            "mutedChords": [
              "1+2+5",
              "sus4",
              "1+5",
              "1+8",
              "7aug",
              "Maj7aug",
              "7(#9)",
              "7(b13)",
              "7(b9)",
              "7(13)",
              "7#11",
              "7(9)",
              "7b5",
              "7sus4",
              "7th",
              "aug",
              "Maj6(9)",
              "Maj7(9)",
              "Maj(9)",
              "Maj7#11",
              "Maj7",
              "Maj6",
              "Maj"
            ],
            "autoStart": false,
            "sourceChordNote": 0,
            "sourceChordType": "min",
            "ctb2Low": null,
            "ctb2Main": {
              "ntr": "ROOT_TRANSPOSITION",
              "ntt": "BYPASS",
              "bassOn": false,
              "chordRootUpperLimit": 8,
              "noteLowLimit": 54,
              "noteHighLimit": 65,
              "rtr": "PITCH_SHIFT"
            },
            "ctb2High": null
          },
          "notes": []
        },
        "3": {
          "ctab": {
            "srcChannel": 3,
            "name": "Pno",
            "accType": "CHORD2",
            "editable": false,
            "mutedNotes": [],
            "mutedChords": [
              "1+2+5",
              "sus4",
              "1+5",
              "1+8",
              "7aug",
              "Maj7aug",
              "7(#9)",
              "7(b13)",
              "7(b9)",
              "7(13)",
              "7#11",
              "7(9)",
              "7b5",
              "7sus4",
              "7th",
              "aug",
              "Maj6(9)",
              "Maj7(9)",
              "Maj(9)",
              "Maj7#11",
              "Maj7",
              "Maj6",
              "Maj"
            ],
            "autoStart": false,
            "sourceChordNote": 0,
            "sourceChordType": "min",
            "ctb2Low": null,
            "ctb2Main": {
              "ntr": "ROOT_TRANSPOSITION",
              "ntt": "BYPASS",
              "bassOn": false,
              "chordRootUpperLimit": 8,
              "noteLowLimit": 54,
              "noteHighLimit": 65,
              "rtr": "PITCH_SHIFT"
            },
            "ctb2High": null
          },
          "notes": [
            {
              "pitch": 60,
              "velocity": 108,
              "position": 0,
              "duration": 2.9895833333333335
            },
            {
              "pitch": 55,
              "velocity": 108,
              "position": 0.020833333333333332,
              "duration": 2.96875
            },
            {
              "pitch": 58,
              "velocity": 108,
              "position": 0.020833333333333332,
              "duration": 3
            },
            {
              "pitch": 63,
              "velocity": 108,
              "position": 0,
              "duration": 3.0416666666666665
            },
            {
              "pitch": 55,
              "velocity": 108,
              "position": 3.5,
              "duration": 4
            },
            {
              "pitch": 58,
              "velocity": 108,
              "position": 3.5,
              "duration": 4
            },
            {
              "pitch": 60,
              "velocity": 108,
              "position": 3.5,
              "duration": 4
            },
            {
              "pitch": 63,
              "velocity": 108,
              "position": 3.5,
              "duration": 4
            },
            {
              "pitch": 55,
              "velocity": 108,
              "position": 8,
              "duration": 3.1041666666666665
            },
            {
              "pitch": 56,
              "velocity": 108,
              "position": 8,
              "duration": 3.1041666666666665
            },
            {
              "pitch": 60,
              "velocity": 108,
              "position": 8,
              "duration": 3.1041666666666665
            },
            {
              "pitch": 63,
              "velocity": 108,
              "position": 8,
              "duration": 3.1041666666666665
            },
            {
              "pitch": 53,
              "velocity": 110,
              "position": 11.5,
              "duration": 2.3541666666666665
            },
            {
              "pitch": 56,
              "velocity": 110,
              "position": 11.5,
              "duration": 2.3541666666666665
            },
            {
              "pitch": 60,
              "velocity": 110,
              "position": 11.5,
              "duration": 2.3541666666666665
            },
            {
              "pitch": 63,
              "velocity": 110,
              "position": 11.5,
              "duration": 2.3541666666666665
            },
            {
              "pitch": 53,
              "velocity": 123,
              "position": 14,
              "duration": 0.4479166666666667
            },
            {
              "pitch": 56,
              "velocity": 123,
              "position": 14,
              "duration": 0.4479166666666667
            },
            {
              "pitch": 60,
              "velocity": 123,
              "position": 14,
              "duration": 0.4479166666666667
            },
            {
              "pitch": 63,
              "velocity": 123,
              "position": 14,
              "duration": 0.4479166666666667
            },
            {
              "pitch": 53,
              "velocity": 123,
              "position": 15,
              "duration": 0.4479166666666667
            },
            {
              "pitch": 55,
              "velocity": 123,
              "position": 15,
              "duration": 0.4479166666666667
            },
            {
              "pitch": 59,
              "velocity": 123,
              "position": 15,
              "duration": 0.4479166666666667
            },
            {
              "pitch": 62,
              "velocity": 123,
              "position": 15,
              "duration": 0.4479166666666667
            },
            {
              "pitch": 60,
              "velocity": 108,
              "position": 16,
              "duration": 6.010416666666667
            },
            {
              "pitch": 58,
              "velocity": 108,
              "position": 16.010416666666668,
              "duration": 6
            },
            {
              "pitch": 63,
              "velocity": 108,
              "position": 16.010416666666668,
              "duration": 6
            },
            {
              "pitch": 55,
              "velocity": 108,
              "position": 16.020833333333332,
              "duration": 5.989583333333333
            }
          ]
        },
        "4": {
          "ctab": {
            "srcChannel": 4,
            "name": "Str",
            "accType": "PAD",
            "editable": false,
            "mutedNotes": [],
            "mutedChords": [
              "1+2+5",
              "sus4",
              "1+5",
              "1+8",
              "7aug",
              "Maj7aug",
              "7(#9)",
              "7(b13)",
              "7(b9)",
              "7(13)",
              "7#11",
              "7(9)",
              "7b5",
              "7sus4",
              "7th",
              "aug",
              "Maj6(9)",
              "Maj7(9)",
              "Maj(9)",
              "Maj7#11",
              "Maj7",
              "Maj6",
              "Maj"
            ],
            "autoStart": false,
            "sourceChordNote": 0,
            "sourceChordType": "min",
            "ctb2Low": null,
            "ctb2Main": {
              "ntr": "ROOT_TRANSPOSITION",
              "ntt": "BYPASS",
              "bassOn": false,
              "chordRootUpperLimit": 8,
              "noteLowLimit": 54,
              "noteHighLimit": 77,
              "rtr": "PITCH_SHIFT"
            },
            "ctb2High": null
          },
          "notes": [
            {
              "pitch": 82,
              "velocity": 80,
              "position": 0,
              "duration": 3.5104166666666665
            },
            {
              "pitch": 79,
              "velocity": 80,
              "position": 0,
              "duration": 8.010416666666666
            },
            {
              "pitch": 80,
              "velocity": 80,
              "position": 8,
              "duration": 5.979166666666667
            },
            {
              "pitch": 84,
              "velocity": 80,
              "position": 3.5,
              "duration": 10.479166666666666
            },
            {
              "pitch": 87,
              "velocity": 80,
              "position": 0,
              "duration": 14
            },
            {
              "pitch": 48,
              "velocity": 80,
              "position": 16,
              "duration": 6
            },
            {
              "pitch": 51,
              "velocity": 80,
              "position": 16,
              "duration": 6
            },
            {
              "pitch": 55,
              "velocity": 80,
              "position": 16,
              "duration": 6
            }
          ]
        },
        "5": {
          "ctab": {
            "srcChannel": 5,
            "name": "Brs",
            "accType": "PHRASE1",
            "editable": false,
            "mutedNotes": [],
            "mutedChords": [
              "1+2+5",
              "sus4",
              "1+5",
              "1+8",
              "7aug",
              "Maj7aug",
              "7(#9)",
              "7(b13)",
              "7(b9)",
              "7(13)",
              "7#11",
              "7(9)",
              "7b5",
              "7sus4",
              "7th",
              "aug",
              "Maj6(9)",
              "Maj7(9)",
              "Maj(9)",
              "Maj7#11",
              "Maj7",
              "Maj6",
              "Maj"
            ],
            "autoStart": false,
            "sourceChordNote": 0,
            "sourceChordType": "min",
            "ctb2Low": null,
            "ctb2Main": {
              "ntr": "ROOT_TRANSPOSITION",
              "ntt": "BYPASS",
              "bassOn": false,
              "chordRootUpperLimit": 10,
              "noteLowLimit": 43,
              "noteHighLimit": 85,
              "rtr": "PITCH_SHIFT"
            },
            "ctb2High": null
          },
          "notes": [
            {
              "pitch": 63,
              "velocity": 100,
              "position": 0,
              "duration": 0.5104166666666666
            },
            {
              "pitch": 75,
              "velocity": 100,
              "position": 0,
              "duration": 0.5104166666666666
            },
            {
              "pitch": 62,
              "velocity": 100,
              "position": 0.5,
              "duration": 0.2604166666666667
            },
            {
              "pitch": 74,
              "velocity": 100,
              "position": 0.5,
              "duration": 0.2604166666666667
            },
            {
              "pitch": 60,
              "velocity": 100,
              "position": 1.5,
              "duration": 0.2604166666666667
            },
            {
              "pitch": 72,
              "velocity": 100,
              "position": 1.5,
              "duration": 0.2604166666666667
            },
            {
              "pitch": 58,
              "velocity": 100,
              "position": 2.5,
              "duration": 0.2604166666666667
            },
            {
              "pitch": 70,
              "velocity": 100,
              "position": 2.5,
              "duration": 0.2604166666666667
            },
            {
              "pitch": 60,
              "velocity": 100,
              "position": 3.5,
              "duration": 3.4895833333333335
            },
            {
              "pitch": 72,
              "velocity": 100,
              "position": 3.5,
              "duration": 3.4895833333333335
            },
            {
              "pitch": 60,
              "velocity": 100,
              "position": 7.5,
              "duration": 0.25
            },
            {
              "pitch": 72,
              "velocity": 100,
              "position": 7.5,
              "duration": 0.25
            },
            {
              "pitch": 62,
              "velocity": 81,
              "position": 7.760416666666667,
              "duration": 0.22916666666666666
            },
            {
              "pitch": 74,
              "velocity": 81,
              "position": 7.760416666666667,
              "duration": 0.22916666666666666
            },
            {
              "pitch": 63,
              "velocity": 100,
              "position": 8,
              "duration": 0.4895833333333333
            },
            {
              "pitch": 75,
              "velocity": 100,
              "position": 8,
              "duration": 0.4895833333333333
            },
            {
              "pitch": 62,
              "velocity": 100,
              "position": 8.5,
              "duration": 0.2604166666666667
            },
            {
              "pitch": 74,
              "velocity": 100,
              "position": 8.5,
              "duration": 0.2604166666666667
            },
            {
              "pitch": 60,
              "velocity": 100,
              "position": 9.5,
              "duration": 0.2604166666666667
            },
            {
              "pitch": 72,
              "velocity": 100,
              "position": 9.5,
              "duration": 0.2604166666666667
            },
            {
              "pitch": 58,
              "velocity": 100,
              "position": 10.5,
              "duration": 0.2604166666666667
            },
            {
              "pitch": 70,
              "velocity": 100,
              "position": 10.5,
              "duration": 0.2604166666666667
            },
            {
              "pitch": 60,
              "velocity": 100,
              "position": 11.5,
              "duration": 0.9895833333333334
            },
            {
              "pitch": 72,
              "velocity": 100,
              "position": 11.5,
              "duration": 0.9895833333333334
            },
            {
              "pitch": 63,
              "velocity": 100,
              "position": 12.5,
              "duration": 0.2604166666666667
            },
            {
              "pitch": 75,
              "velocity": 100,
              "position": 12.5,
              "duration": 0.2604166666666667
            }
          ]
        },
        "6": {
          "ctab": {
            "srcChannel": 6,
            "name": "MtGt",
            "accType": "PHRASE2",
            "editable": false,
            "mutedNotes": [],
            "mutedChords": [
              "1+2+5",
              "sus4",
              "1+5",
              "1+8",
              "7aug",
              "Maj7aug",
              "7(#9)",
              "7(b13)",
              "7(b9)",
              "7(13)",
              "7#11",
              "7(9)",
              "7b5",
              "7sus4",
              "7th",
              "aug",
              "Maj6(9)",
              "Maj7(9)",
              "Maj(9)",
              "Maj7#11",
              "Maj7",
              "Maj6",
              "Maj"
            ],
            "autoStart": false,
            "sourceChordNote": 0,
            "sourceChordType": "min",
            "ctb2Low": null,
            "ctb2Main": {
              "ntr": "ROOT_TRANSPOSITION",
              "ntt": "BYPASS",
              "bassOn": false,
              "chordRootUpperLimit": 6,
              "noteLowLimit": 0,
              "noteHighLimit": 127,
              "rtr": "PITCH_SHIFT"
            },
            "ctb2High": null
          },
          "notes": [
            {
              "pitch": 58,
              "velocity": 47,
              "position": 0,
              "duration": 0.10416666666666667
            },
            {
              "pitch": 58,
              "velocity": 73,
              "position": 0.28125,
              "duration": 0.14583333333333334
            },
            {
              "pitch": 60,
              "velocity": 62,
              "position": 0.5,
              "duration": 0.17708333333333334
            },
            {
              "pitch": 63,
              "velocity": 80,
              "position": 0.78125,
              "duration": 0.11458333333333333
            },
            {
              "pitch": 60,
              "velocity": 79,
              "position": 1.28125,
              "duration": 0.0625
            },
            {
              "pitch": 58,
              "velocity": 38,
              "position": 1.5,
              "duration": 0.11458333333333333
            },
            {
              "pitch": 55,
              "velocity": 77,
              "position": 1.78125,
              "duration": 0.0625
            },
            {
              "pitch": 58,
              "velocity": 47,
              "position": 2,
              "duration": 0.10416666666666667
            },
            {
              "pitch": 58,
              "velocity": 73,
              "position": 2.28125,
              "duration": 0.14583333333333334
            },
            {
              "pitch": 60,
              "velocity": 62,
              "position": 2.5,
              "duration": 0.17708333333333334
            },
            {
              "pitch": 63,
              "velocity": 80,
              "position": 2.78125,
              "duration": 0.11458333333333333
            },
            {
              "pitch": 55,
              "velocity": 79,
              "position": 3.28125,
              "duration": 0.0625
            },
            {
              "pitch": 58,
              "velocity": 38,
              "position": 3.5,
              "duration": 0.11458333333333333
            },
            {
              "pitch": 58,
              "velocity": 47,
              "position": 4,
              "duration": 0.10416666666666667
            },
            {
              "pitch": 58,
              "velocity": 73,
              "position": 4.28125,
              "duration": 0.14583333333333334
            },
            {
              "pitch": 60,
              "velocity": 62,
              "position": 4.5,
              "duration": 0.17708333333333334
            },
            {
              "pitch": 63,
              "velocity": 80,
              "position": 4.78125,
              "duration": 0.11458333333333333
            },
            {
              "pitch": 60,
              "velocity": 79,
              "position": 5.28125,
              "duration": 0.0625
            },
            {
              "pitch": 58,
              "velocity": 38,
              "position": 5.5,
              "duration": 0.11458333333333333
            },
            {
              "pitch": 55,
              "velocity": 77,
              "position": 5.78125,
              "duration": 0.0625
            },
            {
              "pitch": 58,
              "velocity": 47,
              "position": 6,
              "duration": 0.10416666666666667
            },
            {
              "pitch": 58,
              "velocity": 73,
              "position": 6.28125,
              "duration": 0.14583333333333334
            },
            {
              "pitch": 60,
              "velocity": 62,
              "position": 6.5,
              "duration": 0.17708333333333334
            },
            {
              "pitch": 63,
              "velocity": 80,
              "position": 6.78125,
              "duration": 0.11458333333333333
            },
            {
              "pitch": 55,
              "velocity": 79,
              "position": 7.28125,
              "duration": 0.0625
            },
            {
              "pitch": 58,
              "velocity": 38,
              "position": 7.5,
              "duration": 0.11458333333333333
            },
            {
              "pitch": 58,
              "velocity": 47,
              "position": 8,
              "duration": 0.10416666666666667
            },
            {
              "pitch": 58,
              "velocity": 73,
              "position": 8.28125,
              "duration": 0.14583333333333334
            },
            {
              "pitch": 60,
              "velocity": 62,
              "position": 8.5,
              "duration": 0.17708333333333334
            },
            {
              "pitch": 63,
              "velocity": 80,
              "position": 8.78125,
              "duration": 0.11458333333333333
            },
            {
              "pitch": 60,
              "velocity": 79,
              "position": 9.28125,
              "duration": 0.0625
            },
            {
              "pitch": 58,
              "velocity": 38,
              "position": 9.5,
              "duration": 0.11458333333333333
            },
            {
              "pitch": 55,
              "velocity": 77,
              "position": 9.78125,
              "duration": 0.0625
            },
            {
              "pitch": 58,
              "velocity": 47,
              "position": 10,
              "duration": 0.10416666666666667
            },
            {
              "pitch": 58,
              "velocity": 73,
              "position": 10.28125,
              "duration": 0.14583333333333334
            },
            {
              "pitch": 60,
              "velocity": 62,
              "position": 10.5,
              "duration": 0.17708333333333334
            },
            {
              "pitch": 63,
              "velocity": 80,
              "position": 10.78125,
              "duration": 0.11458333333333333
            },
            {
              "pitch": 55,
              "velocity": 79,
              "position": 11.28125,
              "duration": 0.0625
            },
            {
              "pitch": 58,
              "velocity": 38,
              "position": 11.5,
              "duration": 0.11458333333333333
            },
            {
              "pitch": 58,
              "velocity": 47,
              "position": 12,
              "duration": 0.10416666666666667
            },
            {
              "pitch": 58,
              "velocity": 73,
              "position": 12.28125,
              "duration": 0.14583333333333334
            },
            {
              "pitch": 60,
              "velocity": 62,
              "position": 12.5,
              "duration": 0.17708333333333334
            },
            {
              "pitch": 63,
              "velocity": 80,
              "position": 12.78125,
              "duration": 0.11458333333333333
            },
            {
              "pitch": 60,
              "velocity": 79,
              "position": 13.28125,
              "duration": 0.0625
            },
            {
              "pitch": 58,
              "velocity": 38,
              "position": 13.5,
              "duration": 0.11458333333333333
            },
            {
              "pitch": 55,
              "velocity": 77,
              "position": 13.78125,
              "duration": 0.0625
            },
            {
              "pitch": 58,
              "velocity": 73,
              "position": 14.03125,
              "duration": 0.14583333333333334
            },
            {
              "pitch": 59,
              "velocity": 80,
              "position": 15.03125,
              "duration": 0.11458333333333333
            }
          ]
        },
        "8": {
          "ctab": {
            "srcChannel": 8,
            "name": "Perc",
            "accType": "SUBRHYTHM",
            "editable": false,
            "mutedNotes": [],
            "mutedChords": [],
            "autoStart": true,
            "sourceChordNote": 0,
            "sourceChordType": "Maj7",
            "ctb2Low": null,
            "ctb2Main": {
              "ntr": "ROOT_FIXED",
              "ntt": "BYPASS",
              "bassOn": false,
              "chordRootUpperLimit": 6,
              "noteLowLimit": 0,
              "noteHighLimit": 127,
              "rtr": "PITCH_SHIFT"
            },
            "ctb2High": null
          },
          "notes": [
            {
              "pitch": 54,
              "velocity": 27,
              "position": 0,
              "duration": 0.010416666666666666
            },
            {
              "pitch": 54,
              "velocity": 27,
              "position": 0.2916666666666667,
              "duration": 0.010416666666666666
            },
            {
              "pitch": 54,
              "velocity": 56,
              "position": 0.5,
              "duration": 0.010416666666666666
            },
            {
              "pitch": 62,
              "velocity": 96,
              "position": 0.5,
              "duration": 0.03125
            },
            {
              "pitch": 54,
              "velocity": 27,
              "position": 0.7916666666666666,
              "duration": 0.010416666666666666
            },
            {
              "pitch": 54,
              "velocity": 27,
              "position": 1,
              "duration": 0.010416666666666666
            },
            {
              "pitch": 61,
              "velocity": 105,
              "position": 1.03125,
              "duration": 0.041666666666666664
            },
            {
              "pitch": 54,
              "velocity": 27,
              "position": 1.2916666666666667,
              "duration": 0.010416666666666666
            },
            {
              "pitch": 54,
              "velocity": 56,
              "position": 1.5,
              "duration": 0.010416666666666666
            },
            {
              "pitch": 64,
              "velocity": 97,
              "position": 1.53125,
              "duration": 0.041666666666666664
            },
            {
              "pitch": 54,
              "velocity": 27,
              "position": 1.7916666666666667,
              "duration": 0.010416666666666666
            },
            {
              "pitch": 64,
              "velocity": 97,
              "position": 1.78125,
              "duration": 0.041666666666666664
            },
            {
              "pitch": 54,
              "velocity": 27,
              "position": 2,
              "duration": 0.010416666666666666
            },
            {
              "pitch": 54,
              "velocity": 27,
              "position": 2.2916666666666665,
              "duration": 0.010416666666666666
            },
            {
              "pitch": 54,
              "velocity": 56,
              "position": 2.5,
              "duration": 0.010416666666666666
            },
            {
              "pitch": 62,
              "velocity": 96,
              "position": 2.5,
              "duration": 0.03125
            },
            {
              "pitch": 54,
              "velocity": 27,
              "position": 2.7916666666666665,
              "duration": 0.010416666666666666
            },
            {
              "pitch": 54,
              "velocity": 27,
              "position": 3,
              "duration": 0.010416666666666666
            },
            {
              "pitch": 61,
              "velocity": 105,
              "position": 3.03125,
              "duration": 0.041666666666666664
            },
            {
              "pitch": 54,
              "velocity": 27,
              "position": 3.2916666666666665,
              "duration": 0.010416666666666666
            },
            {
              "pitch": 54,
              "velocity": 56,
              "position": 3.5,
              "duration": 0.010416666666666666
            },
            {
              "pitch": 64,
              "velocity": 97,
              "position": 3.53125,
              "duration": 0.041666666666666664
            },
            {
              "pitch": 54,
              "velocity": 27,
              "position": 3.7916666666666665,
              "duration": 0.010416666666666666
            },
            {
              "pitch": 64,
              "velocity": 97,
              "position": 3.78125,
              "duration": 0.041666666666666664
            },
            {
              "pitch": 54,
              "velocity": 27,
              "position": 4,
              "duration": 0.010416666666666666
            },
            {
              "pitch": 54,
              "velocity": 27,
              "position": 4.291666666666667,
              "duration": 0.010416666666666666
            },
            {
              "pitch": 54,
              "velocity": 56,
              "position": 4.5,
              "duration": 0.010416666666666666
            },
            {
              "pitch": 62,
              "velocity": 96,
              "position": 4.5,
              "duration": 0.03125
            },
            {
              "pitch": 54,
              "velocity": 27,
              "position": 4.791666666666667,
              "duration": 0.010416666666666666
            },
            {
              "pitch": 54,
              "velocity": 27,
              "position": 5,
              "duration": 0.010416666666666666
            },
            {
              "pitch": 61,
              "velocity": 105,
              "position": 5.03125,
              "duration": 0.041666666666666664
            },
            {
              "pitch": 54,
              "velocity": 27,
              "position": 5.291666666666667,
              "duration": 0.010416666666666666
            },
            {
              "pitch": 54,
              "velocity": 56,
              "position": 5.5,
              "duration": 0.010416666666666666
            },
            {
              "pitch": 64,
              "velocity": 97,
              "position": 5.53125,
              "duration": 0.041666666666666664
            },
            {
              "pitch": 54,
              "velocity": 27,
              "position": 5.791666666666667,
              "duration": 0.010416666666666666
            },
            {
              "pitch": 64,
              "velocity": 97,
              "position": 5.78125,
              "duration": 0.041666666666666664
            },
            {
              "pitch": 54,
              "velocity": 27,
              "position": 6,
              "duration": 0.010416666666666666
            },
            {
              "pitch": 54,
              "velocity": 27,
              "position": 6.291666666666667,
              "duration": 0.010416666666666666
            },
            {
              "pitch": 54,
              "velocity": 56,
              "position": 6.5,
              "duration": 0.010416666666666666
            },
            {
              "pitch": 62,
              "velocity": 96,
              "position": 6.5,
              "duration": 0.03125
            },
            {
              "pitch": 54,
              "velocity": 27,
              "position": 6.791666666666667,
              "duration": 0.010416666666666666
            },
            {
              "pitch": 62,
              "velocity": 55,
              "position": 6.78125,
              "duration": 0.041666666666666664
            },
            {
              "pitch": 54,
              "velocity": 27,
              "position": 7,
              "duration": 0.010416666666666666
            },
            {
              "pitch": 61,
              "velocity": 105,
              "position": 7.03125,
              "duration": 0.041666666666666664
            },
            {
              "pitch": 54,
              "velocity": 27,
              "position": 7.291666666666667,
              "duration": 0.010416666666666666
            },
            {
              "pitch": 61,
              "velocity": 67,
              "position": 7.28125,
              "duration": 0.041666666666666664
            },
            {
              "pitch": 54,
              "velocity": 56,
              "position": 7.5,
              "duration": 0.010416666666666666
            },
            {
              "pitch": 64,
              "velocity": 97,
              "position": 7.53125,
              "duration": 0.041666666666666664
            },
            {
              "pitch": 54,
              "velocity": 27,
              "position": 7.791666666666667,
              "duration": 0.010416666666666666
            },
            {
              "pitch": 64,
              "velocity": 97,
              "position": 7.78125,
              "duration": 0.041666666666666664
            },
            {
              "pitch": 54,
              "velocity": 27,
              "position": 8,
              "duration": 0.010416666666666666
            },
            {
              "pitch": 54,
              "velocity": 27,
              "position": 8.291666666666666,
              "duration": 0.010416666666666666
            },
            {
              "pitch": 54,
              "velocity": 56,
              "position": 8.5,
              "duration": 0.010416666666666666
            },
            {
              "pitch": 62,
              "velocity": 96,
              "position": 8.5,
              "duration": 0.03125
            },
            {
              "pitch": 54,
              "velocity": 27,
              "position": 8.791666666666666,
              "duration": 0.010416666666666666
            },
            {
              "pitch": 54,
              "velocity": 27,
              "position": 9,
              "duration": 0.010416666666666666
            },
            {
              "pitch": 61,
              "velocity": 105,
              "position": 9.03125,
              "duration": 0.041666666666666664
            },
            {
              "pitch": 54,
              "velocity": 27,
              "position": 9.291666666666666,
              "duration": 0.010416666666666666
            },
            {
              "pitch": 54,
              "velocity": 56,
              "position": 9.5,
              "duration": 0.010416666666666666
            },
            {
              "pitch": 64,
              "velocity": 97,
              "position": 9.53125,
              "duration": 0.041666666666666664
            },
            {
              "pitch": 54,
              "velocity": 27,
              "position": 9.791666666666666,
              "duration": 0.010416666666666666
            },
            {
              "pitch": 64,
              "velocity": 97,
              "position": 9.78125,
              "duration": 0.041666666666666664
            },
            {
              "pitch": 54,
              "velocity": 27,
              "position": 10,
              "duration": 0.010416666666666666
            },
            {
              "pitch": 54,
              "velocity": 27,
              "position": 10.291666666666666,
              "duration": 0.010416666666666666
            },
            {
              "pitch": 54,
              "velocity": 56,
              "position": 10.5,
              "duration": 0.010416666666666666
            },
            {
              "pitch": 62,
              "velocity": 96,
              "position": 10.5,
              "duration": 0.03125
            },
            {
              "pitch": 54,
              "velocity": 27,
              "position": 10.791666666666666,
              "duration": 0.010416666666666666
            },
            {
              "pitch": 54,
              "velocity": 27,
              "position": 11,
              "duration": 0.010416666666666666
            },
            {
              "pitch": 61,
              "velocity": 105,
              "position": 11.03125,
              "duration": 0.041666666666666664
            },
            {
              "pitch": 54,
              "velocity": 27,
              "position": 11.291666666666666,
              "duration": 0.010416666666666666
            },
            {
              "pitch": 54,
              "velocity": 56,
              "position": 11.5,
              "duration": 0.010416666666666666
            },
            {
              "pitch": 64,
              "velocity": 97,
              "position": 11.53125,
              "duration": 0.041666666666666664
            },
            {
              "pitch": 54,
              "velocity": 27,
              "position": 11.791666666666666,
              "duration": 0.010416666666666666
            },
            {
              "pitch": 64,
              "velocity": 97,
              "position": 11.78125,
              "duration": 0.041666666666666664
            },
            {
              "pitch": 54,
              "velocity": 27,
              "position": 12,
              "duration": 0.010416666666666666
            },
            {
              "pitch": 54,
              "velocity": 27,
              "position": 12.291666666666666,
              "duration": 0.010416666666666666
            },
            {
              "pitch": 54,
              "velocity": 56,
              "position": 12.5,
              "duration": 0.010416666666666666
            },
            {
              "pitch": 62,
              "velocity": 96,
              "position": 12.5,
              "duration": 0.03125
            },
            {
              "pitch": 54,
              "velocity": 27,
              "position": 12.791666666666666,
              "duration": 0.010416666666666666
            },
            {
              "pitch": 54,
              "velocity": 27,
              "position": 13,
              "duration": 0.010416666666666666
            },
            {
              "pitch": 61,
              "velocity": 105,
              "position": 13.03125,
              "duration": 0.041666666666666664
            },
            {
              "pitch": 54,
              "velocity": 27,
              "position": 13.291666666666666,
              "duration": 0.010416666666666666
            },
            {
              "pitch": 54,
              "velocity": 56,
              "position": 13.5,
              "duration": 0.010416666666666666
            },
            {
              "pitch": 64,
              "velocity": 97,
              "position": 13.53125,
              "duration": 0.041666666666666664
            },
            {
              "pitch": 54,
              "velocity": 27,
              "position": 13.791666666666666,
              "duration": 0.010416666666666666
            },
            {
              "pitch": 64,
              "velocity": 97,
              "position": 13.78125,
              "duration": 0.041666666666666664
            },
            {
              "pitch": 54,
              "velocity": 27,
              "position": 14,
              "duration": 0.010416666666666666
            },
            {
              "pitch": 54,
              "velocity": 27,
              "position": 14.291666666666666,
              "duration": 0.010416666666666666
            },
            {
              "pitch": 54,
              "velocity": 56,
              "position": 14.5,
              "duration": 0.010416666666666666
            },
            {
              "pitch": 62,
              "velocity": 96,
              "position": 14.5,
              "duration": 0.03125
            },
            {
              "pitch": 54,
              "velocity": 27,
              "position": 14.791666666666666,
              "duration": 0.010416666666666666
            },
            {
              "pitch": 54,
              "velocity": 27,
              "position": 15,
              "duration": 0.010416666666666666
            },
            {
              "pitch": 61,
              "velocity": 105,
              "position": 15.03125,
              "duration": 0.041666666666666664
            },
            {
              "pitch": 54,
              "velocity": 27,
              "position": 15.291666666666666,
              "duration": 0.010416666666666666
            },
            {
              "pitch": 54,
              "velocity": 56,
              "position": 15.5,
              "duration": 0.010416666666666666
            },
            {
              "pitch": 64,
              "velocity": 97,
              "position": 15.53125,
              "duration": 0.041666666666666664
            },
            {
              "pitch": 54,
              "velocity": 27,
              "position": 15.791666666666666,
              "duration": 0.010416666666666666
            },
            {
              "pitch": 54,
              "velocity": 27,
              "position": 16,
              "duration": 0.010416666666666666
            },
            {
              "pitch": 49,
              "velocity": 100,
              "position": 16,
              "duration": 0.03125
            }
          ]
        },
        "9": {
          "ctab": {
            "srcChannel": 9,
            "name": "Drums",
            "accType": "RHYTHM",
            "editable": false,
            "mutedNotes": [],
            "mutedChords": [],
            "autoStart": true,
            "sourceChordNote": 0,
            "sourceChordType": "Maj7",
            "ctb2Low": null,
            "ctb2Main": {
              "ntr": "ROOT_FIXED",
              "ntt": "BYPASS",
              "bassOn": false,
              "chordRootUpperLimit": 6,
              "noteLowLimit": 0,
              "noteHighLimit": 127,
              "rtr": "PITCH_SHIFT"
            },
            "ctb2High": null
          },
          "notes": [
            {
              "pitch": 33,
              "velocity": 88,
              "position": 0,
              "duration": 0.010416666666666666
            },
            {
              "pitch": 44,
              "velocity": 48,
              "position": 0,
              "duration": 0.010416666666666666
            },
            {
              "pitch": 46,
              "velocity": 71,
              "position": 0.5,
              "duration": 0.010416666666666666
            },
            {
              "pitch": 25,
              "velocity": 110,
              "position": 1,
              "duration": 0.010416666666666666
            },
            {
              "pitch": 33,
              "velocity": 88,
              "position": 1,
              "duration": 0.010416666666666666
            },
            {
              "pitch": 39,
              "velocity": 91,
              "position": 1,
              "duration": 0.010416666666666666
            },
            {
              "pitch": 44,
              "velocity": 64,
              "position": 1,
              "duration": 0.010416666666666666
            },
            {
              "pitch": 46,
              "velocity": 71,
              "position": 1.5,
              "duration": 0.010416666666666666
            },
            {
              "pitch": 33,
              "velocity": 88,
              "position": 2,
              "duration": 0.010416666666666666
            },
            {
              "pitch": 44,
              "velocity": 64,
              "position": 2,
              "duration": 0.010416666666666666
            },
            {
              "pitch": 46,
              "velocity": 71,
              "position": 2.5,
              "duration": 0.010416666666666666
            },
            {
              "pitch": 25,
              "velocity": 110,
              "position": 3,
              "duration": 0.010416666666666666
            },
            {
              "pitch": 33,
              "velocity": 88,
              "position": 3,
              "duration": 0.010416666666666666
            },
            {
              "pitch": 39,
              "velocity": 91,
              "position": 3,
              "duration": 0.010416666666666666
            },
            {
              "pitch": 44,
              "velocity": 64,
              "position": 3,
              "duration": 0.010416666666666666
            },
            {
              "pitch": 46,
              "velocity": 71,
              "position": 3.5,
              "duration": 0.010416666666666666
            },
            {
              "pitch": 33,
              "velocity": 88,
              "position": 4,
              "duration": 0.010416666666666666
            },
            {
              "pitch": 44,
              "velocity": 48,
              "position": 4,
              "duration": 0.010416666666666666
            },
            {
              "pitch": 46,
              "velocity": 71,
              "position": 4.5,
              "duration": 0.010416666666666666
            },
            {
              "pitch": 25,
              "velocity": 110,
              "position": 5,
              "duration": 0.010416666666666666
            },
            {
              "pitch": 33,
              "velocity": 88,
              "position": 5,
              "duration": 0.010416666666666666
            },
            {
              "pitch": 39,
              "velocity": 91,
              "position": 5,
              "duration": 0.010416666666666666
            },
            {
              "pitch": 44,
              "velocity": 64,
              "position": 5,
              "duration": 0.010416666666666666
            },
            {
              "pitch": 46,
              "velocity": 71,
              "position": 5.5,
              "duration": 0.010416666666666666
            },
            {
              "pitch": 33,
              "velocity": 88,
              "position": 6,
              "duration": 0.010416666666666666
            },
            {
              "pitch": 44,
              "velocity": 64,
              "position": 6,
              "duration": 0.010416666666666666
            },
            {
              "pitch": 46,
              "velocity": 71,
              "position": 6.5,
              "duration": 0.010416666666666666
            },
            {
              "pitch": 25,
              "velocity": 110,
              "position": 7,
              "duration": 0.010416666666666666
            },
            {
              "pitch": 33,
              "velocity": 88,
              "position": 7,
              "duration": 0.010416666666666666
            },
            {
              "pitch": 39,
              "velocity": 91,
              "position": 7,
              "duration": 0.010416666666666666
            },
            {
              "pitch": 44,
              "velocity": 64,
              "position": 7,
              "duration": 0.010416666666666666
            },
            {
              "pitch": 46,
              "velocity": 71,
              "position": 7.5,
              "duration": 0.010416666666666666
            },
            {
              "pitch": 44,
              "velocity": 48,
              "position": 7.78125,
              "duration": 0.010416666666666666
            },
            {
              "pitch": 33,
              "velocity": 88,
              "position": 8,
              "duration": 0.010416666666666666
            },
            {
              "pitch": 44,
              "velocity": 48,
              "position": 8,
              "duration": 0.010416666666666666
            },
            {
              "pitch": 46,
              "velocity": 71,
              "position": 8.5,
              "duration": 0.010416666666666666
            },
            {
              "pitch": 25,
              "velocity": 110,
              "position": 9,
              "duration": 0.010416666666666666
            },
            {
              "pitch": 33,
              "velocity": 88,
              "position": 9,
              "duration": 0.010416666666666666
            },
            {
              "pitch": 39,
              "velocity": 91,
              "position": 9,
              "duration": 0.010416666666666666
            },
            {
              "pitch": 44,
              "velocity": 64,
              "position": 9,
              "duration": 0.010416666666666666
            },
            {
              "pitch": 46,
              "velocity": 71,
              "position": 9.5,
              "duration": 0.010416666666666666
            },
            {
              "pitch": 33,
              "velocity": 88,
              "position": 10,
              "duration": 0.010416666666666666
            },
            {
              "pitch": 44,
              "velocity": 64,
              "position": 10,
              "duration": 0.010416666666666666
            },
            {
              "pitch": 46,
              "velocity": 71,
              "position": 10.5,
              "duration": 0.010416666666666666
            },
            {
              "pitch": 25,
              "velocity": 110,
              "position": 11,
              "duration": 0.010416666666666666
            },
            {
              "pitch": 33,
              "velocity": 88,
              "position": 11,
              "duration": 0.010416666666666666
            },
            {
              "pitch": 39,
              "velocity": 91,
              "position": 11,
              "duration": 0.010416666666666666
            },
            {
              "pitch": 44,
              "velocity": 64,
              "position": 11,
              "duration": 0.010416666666666666
            },
            {
              "pitch": 46,
              "velocity": 71,
              "position": 11.5,
              "duration": 0.010416666666666666
            },
            {
              "pitch": 44,
              "velocity": 48,
              "position": 11.78125,
              "duration": 0.010416666666666666
            },
            {
              "pitch": 33,
              "velocity": 88,
              "position": 12,
              "duration": 0.010416666666666666
            },
            {
              "pitch": 44,
              "velocity": 48,
              "position": 12,
              "duration": 0.010416666666666666
            },
            {
              "pitch": 44,
              "velocity": 48,
              "position": 12.28125,
              "duration": 0.010416666666666666
            },
            {
              "pitch": 46,
              "velocity": 71,
              "position": 12.5,
              "duration": 0.010416666666666666
            },
            {
              "pitch": 25,
              "velocity": 110,
              "position": 13,
              "duration": 0.010416666666666666
            },
            {
              "pitch": 33,
              "velocity": 88,
              "position": 13,
              "duration": 0.010416666666666666
            },
            {
              "pitch": 39,
              "velocity": 91,
              "position": 13,
              "duration": 0.010416666666666666
            },
            {
              "pitch": 44,
              "velocity": 64,
              "position": 13,
              "duration": 0.010416666666666666
            },
            {
              "pitch": 46,
              "velocity": 71,
              "position": 13.5,
              "duration": 0.010416666666666666
            },
            {
              "pitch": 25,
              "velocity": 110,
              "position": 13.78125,
              "duration": 0.010416666666666666
            },
            {
              "pitch": 33,
              "velocity": 88,
              "position": 14,
              "duration": 0.010416666666666666
            },
            {
              "pitch": 44,
              "velocity": 64,
              "position": 14,
              "duration": 0.010416666666666666
            },
            {
              "pitch": 25,
              "velocity": 110,
              "position": 14.28125,
              "duration": 0.010416666666666666
            },
            {
              "pitch": 25,
              "velocity": 110,
              "position": 14.5,
              "duration": 0.010416666666666666
            },
            {
              "pitch": 33,
              "velocity": 88,
              "position": 14.5,
              "duration": 0.010416666666666666
            },
            {
              "pitch": 46,
              "velocity": 71,
              "position": 14.5,
              "duration": 0.010416666666666666
            },
            {
              "pitch": 25,
              "velocity": 110,
              "position": 15,
              "duration": 0.010416666666666666
            },
            {
              "pitch": 33,
              "velocity": 88,
              "position": 15,
              "duration": 0.010416666666666666
            },
            {
              "pitch": 39,
              "velocity": 91,
              "position": 15,
              "duration": 0.010416666666666666
            },
            {
              "pitch": 44,
              "velocity": 64,
              "position": 15,
              "duration": 0.010416666666666666
            },
            {
              "pitch": 33,
              "velocity": 88,
              "position": 15.5,
              "duration": 0.010416666666666666
            },
            {
              "pitch": 46,
              "velocity": 71,
              "position": 15.5,
              "duration": 0.010416666666666666
            },
            {
              "pitch": 44,
              "velocity": 48,
              "position": 15.78125,
              "duration": 0.010416666666666666
            },
            {
              "pitch": 33,
              "velocity": 88,
              "position": 16,
              "duration": 0.010416666666666666
            }
          ]
        },
        "10": {
          "ctab": {
            "srcChannel": 10,
            "name": "Bass",
            "accType": "BASS",
            "editable": false,
            "mutedNotes": [],
            "mutedChords": [
              "dim7",
              "dim",
              "minMaj7(9)",
              "minMaj7",
              "min7(11)",
              "min7(9)",
              "min(9)",
              "m7b5",
              "min7",
              "min6",
              "min"
            ],
            "autoStart": false,
            "sourceChordNote": 0,
            "sourceChordType": "Maj",
            "ctb2Low": null,
            "ctb2Main": {
              "ntr": "ROOT_TRANSPOSITION",
              "ntt": "BYPASS",
              "bassOn": false,
              "chordRootUpperLimit": 8,
              "noteLowLimit": 28,
              "noteHighLimit": 127,
              "rtr": "PITCH_SHIFT"
            },
            "ctb2High": null
          },
          "notes": [
            {
              "pitch": 24,
              "velocity": 100,
              "position": 0,
              "duration": 0.4791666666666667
            },
            {
              "pitch": 24,
              "velocity": 100,
              "position": 0.5,
              "duration": 0.010416666666666666
            },
            {
              "pitch": 24,
              "velocity": 100,
              "position": 1,
              "duration": 0.46875
            },
            {
              "pitch": 24,
              "velocity": 100,
              "position": 1.5,
              "duration": 0.010416666666666666
            },
            {
              "pitch": 24,
              "velocity": 100,
              "position": 1.7708333333333333,
              "duration": 0.15625
            },
            {
              "pitch": 31,
              "velocity": 100,
              "position": 2.5,
              "duration": 0.46875
            },
            {
              "pitch": 31,
              "velocity": 100,
              "position": 3,
              "duration": 0.010416666666666666
            },
            {
              "pitch": 33,
              "velocity": 100,
              "position": 3.5,
              "duration": 0.4895833333333333
            },
            {
              "pitch": 33,
              "velocity": 100,
              "position": 4,
              "duration": 0.46875
            },
            {
              "pitch": 33,
              "velocity": 100,
              "position": 4.5,
              "duration": 0.010416666666666666
            },
            {
              "pitch": 33,
              "velocity": 100,
              "position": 5,
              "duration": 0.46875
            },
            {
              "pitch": 33,
              "velocity": 100,
              "position": 5.5,
              "duration": 0.010416666666666666
            },
            {
              "pitch": 33,
              "velocity": 100,
              "position": 5.770833333333333,
              "duration": 0.15625
            },
            {
              "pitch": 33,
              "velocity": 100,
              "position": 6.5,
              "duration": 0.46875
            },
            {
              "pitch": 33,
              "velocity": 100,
              "position": 7,
              "duration": 0.010416666666666666
            },
            {
              "pitch": 28,
              "velocity": 100,
              "position": 7.5,
              "duration": 0.4895833333333333
            },
            {
              "pitch": 26,
              "velocity": 100,
              "position": 8,
              "duration": 0.46875
            },
            {
              "pitch": 26,
              "velocity": 100,
              "position": 8.5,
              "duration": 0.010416666666666666
            },
            {
              "pitch": 26,
              "velocity": 100,
              "position": 9,
              "duration": 0.46875
            },
            {
              "pitch": 26,
              "velocity": 100,
              "position": 9.5,
              "duration": 0.010416666666666666
            },
            {
              "pitch": 26,
              "velocity": 100,
              "position": 9.770833333333334,
              "duration": 0.15625
            },
            {
              "pitch": 26,
              "velocity": 100,
              "position": 10.5,
              "duration": 0.46875
            },
            {
              "pitch": 26,
              "velocity": 100,
              "position": 11,
              "duration": 0.010416666666666666
            },
            {
              "pitch": 26,
              "velocity": 100,
              "position": 11.5,
              "duration": 0.4895833333333333
            },
            {
              "pitch": 31,
              "velocity": 100,
              "position": 12,
              "duration": 0.46875
            },
            {
              "pitch": 31,
              "velocity": 100,
              "position": 12.5,
              "duration": 0.010416666666666666
            },
            {
              "pitch": 31,
              "velocity": 100,
              "position": 13,
              "duration": 0.46875
            },
            {
              "pitch": 31,
              "velocity": 100,
              "position": 13.5,
              "duration": 0.010416666666666666
            },
            {
              "pitch": 31,
              "velocity": 100,
              "position": 13.770833333333334,
              "duration": 0.15625
            },
            {
              "pitch": 31,
              "velocity": 100,
              "position": 14,
              "duration": 0.46875
            },
            {
              "pitch": 31,
              "velocity": 100,
              "position": 15,
              "duration": 0.4895833333333333
            },
            {
              "pitch": 24,
              "velocity": 100,
              "position": 16,
              "duration": 6
            }
          ]
        },
        "11": {
          "ctab": {
            "srcChannel": 11,
            "name": "Gt",
            "accType": "CHORD1",
            "editable": false,
            "mutedNotes": [],
            "mutedChords": [
              "dim7",
              "dim",
              "minMaj7(9)",
              "minMaj7",
              "min7(11)",
              "min7(9)",
              "min(9)",
              "m7b5",
              "min7",
              "min6",
              "min"
            ],
            "autoStart": false,
            "sourceChordNote": 0,
            "sourceChordType": "Maj",
            "ctb2Low": null,
            "ctb2Main": {
              "ntr": "ROOT_TRANSPOSITION",
              "ntt": "BYPASS",
              "bassOn": false,
              "chordRootUpperLimit": 8,
              "noteLowLimit": 54,
              "noteHighLimit": 65,
              "rtr": "PITCH_SHIFT"
            },
            "ctb2High": null
          },
          "notes": []
        },
        "12": {
          "ctab": {
            "srcChannel": 12,
            "name": "Pno",
            "accType": "CHORD2",
            "editable": false,
            "mutedNotes": [],
            "mutedChords": [
              "dim7",
              "dim",
              "minMaj7(9)",
              "minMaj7",
              "min7(11)",
              "min7(9)",
              "min(9)",
              "m7b5",
              "min7",
              "min6",
              "min"
            ],
            "autoStart": false,
            "sourceChordNote": 0,
            "sourceChordType": "Maj",
            "ctb2Low": null,
            "ctb2Main": {
              "ntr": "ROOT_TRANSPOSITION",
              "ntt": "BYPASS",
              "bassOn": false,
              "chordRootUpperLimit": 8,
              "noteLowLimit": 54,
              "noteHighLimit": 65,
              "rtr": "PITCH_SHIFT"
            },
            "ctb2High": null
          },
          "notes": [
            {
              "pitch": 62,
              "velocity": 103,
              "position": 0,
              "duration": 2.9895833333333335
            },
            {
              "pitch": 55,
              "velocity": 103,
              "position": 0.020833333333333332,
              "duration": 2.96875
            },
            {
              "pitch": 59,
              "velocity": 103,
              "position": 0.020833333333333332,
              "duration": 3
            },
            {
              "pitch": 64,
              "velocity": 103,
              "position": 0,
              "duration": 3.0416666666666665
            },
            {
              "pitch": 55,
              "velocity": 103,
              "position": 3.5,
              "duration": 4
            },
            {
              "pitch": 59,
              "velocity": 103,
              "position": 3.5,
              "duration": 4
            },
            {
              "pitch": 60,
              "velocity": 103,
              "position": 3.5,
              "duration": 4
            },
            {
              "pitch": 64,
              "velocity": 103,
              "position": 3.5,
              "duration": 4
            },
            {
              "pitch": 53,
              "velocity": 103,
              "position": 8,
              "duration": 3.1041666666666665
            },
            {
              "pitch": 57,
              "velocity": 103,
              "position": 8,
              "duration": 3.1041666666666665
            },
            {
              "pitch": 60,
              "velocity": 103,
              "position": 8,
              "duration": 3.1041666666666665
            },
            {
              "pitch": 64,
              "velocity": 103,
              "position": 8,
              "duration": 3.1041666666666665
            },
            {
              "pitch": 53,
              "velocity": 105,
              "position": 11.5,
              "duration": 2.3541666666666665
            },
            {
              "pitch": 57,
              "velocity": 105,
              "position": 11.5,
              "duration": 2.3541666666666665
            },
            {
              "pitch": 60,
              "velocity": 105,
              "position": 11.5,
              "duration": 2.3541666666666665
            },
            {
              "pitch": 64,
              "velocity": 105,
              "position": 11.5,
              "duration": 2.3541666666666665
            },
            {
              "pitch": 57,
              "velocity": 118,
              "position": 14,
              "duration": 0.4479166666666667
            },
            {
              "pitch": 60,
              "velocity": 118,
              "position": 14,
              "duration": 0.4479166666666667
            },
            {
              "pitch": 65,
              "velocity": 118,
              "position": 14,
              "duration": 0.4479166666666667
            },
            {
              "pitch": 57,
              "velocity": 118,
              "position": 15,
              "duration": 0.4479166666666667
            },
            {
              "pitch": 60,
              "velocity": 118,
              "position": 15,
              "duration": 0.4479166666666667
            },
            {
              "pitch": 65,
              "velocity": 118,
              "position": 15,
              "duration": 0.4479166666666667
            },
            {
              "pitch": 60,
              "velocity": 103,
              "position": 16,
              "duration": 6.010416666666667
            },
            {
              "pitch": 64,
              "velocity": 103,
              "position": 16.010416666666668,
              "duration": 6
            },
            {
              "pitch": 55,
              "velocity": 103,
              "position": 16.020833333333332,
              "duration": 5.989583333333333
            }
          ]
        },
        "13": {
          "ctab": {
            "srcChannel": 13,
            "name": "Str",
            "accType": "PAD",
            "editable": false,
            "mutedNotes": [],
            "mutedChords": [
              "dim7",
              "dim",
              "minMaj7(9)",
              "minMaj7",
              "min7(11)",
              "min7(9)",
              "min(9)",
              "m7b5",
              "min7",
              "min6",
              "min"
            ],
            "autoStart": false,
            "sourceChordNote": 0,
            "sourceChordType": "Maj",
            "ctb2Low": null,
            "ctb2Main": {
              "ntr": "ROOT_TRANSPOSITION",
              "ntt": "BYPASS",
              "bassOn": false,
              "chordRootUpperLimit": 8,
              "noteLowLimit": 54,
              "noteHighLimit": 77,
              "rtr": "PITCH_SHIFT"
            },
            "ctb2High": null
          },
          "notes": [
            {
              "pitch": 83,
              "velocity": 80,
              "position": 0,
              "duration": 3.4895833333333335
            },
            {
              "pitch": 79,
              "velocity": 80,
              "position": 0,
              "duration": 7.989583333333333
            },
            {
              "pitch": 88,
              "velocity": 80,
              "position": 0,
              "duration": 7.989583333333333
            },
            {
              "pitch": 81,
              "velocity": 80,
              "position": 8,
              "duration": 5.989583333333333
            },
            {
              "pitch": 84,
              "velocity": 80,
              "position": 3.5,
              "duration": 10.489583333333334
            },
            {
              "pitch": 89,
              "velocity": 80,
              "position": 8,
              "duration": 5.989583333333333
            },
            {
              "pitch": 48,
              "velocity": 80,
              "position": 16,
              "duration": 6
            },
            {
              "pitch": 52,
              "velocity": 80,
              "position": 16,
              "duration": 6
            },
            {
              "pitch": 55,
              "velocity": 80,
              "position": 16,
              "duration": 6
            }
          ]
        },
        "14": {
          "ctab": {
            "srcChannel": 14,
            "name": "Brs",
            "accType": "PHRASE1",
            "editable": false,
            "mutedNotes": [],
            "mutedChords": [
              "dim7",
              "dim",
              "minMaj7(9)",
              "minMaj7",
              "min7(11)",
              "min7(9)",
              "min(9)",
              "m7b5",
              "min7",
              "min6",
              "min"
            ],
            "autoStart": false,
            "sourceChordNote": 0,
            "sourceChordType": "Maj",
            "ctb2Low": null,
            "ctb2Main": {
              "ntr": "ROOT_TRANSPOSITION",
              "ntt": "BYPASS",
              "bassOn": false,
              "chordRootUpperLimit": 10,
              "noteLowLimit": 43,
              "noteHighLimit": 127,
              "rtr": "PITCH_SHIFT"
            },
            "ctb2High": null
          },
          "notes": [
            {
              "pitch": 60,
              "velocity": 100,
              "position": 0,
              "duration": 0.5104166666666666
            },
            {
              "pitch": 72,
              "velocity": 100,
              "position": 0,
              "duration": 0.5104166666666666
            },
            {
              "pitch": 59,
              "velocity": 100,
              "position": 0.5,
              "duration": 0.2604166666666667
            },
            {
              "pitch": 71,
              "velocity": 100,
              "position": 0.5,
              "duration": 0.2604166666666667
            },
            {
              "pitch": 57,
              "velocity": 100,
              "position": 1.5,
              "duration": 0.2604166666666667
            },
            {
              "pitch": 69,
              "velocity": 100,
              "position": 1.5,
              "duration": 0.2604166666666667
            },
            {
              "pitch": 55,
              "velocity": 100,
              "position": 2.5,
              "duration": 0.2604166666666667
            },
            {
              "pitch": 67,
              "velocity": 100,
              "position": 2.5,
              "duration": 0.2604166666666667
            },
            {
              "pitch": 57,
              "velocity": 100,
              "position": 3.5,
              "duration": 3.4895833333333335
            },
            {
              "pitch": 69,
              "velocity": 100,
              "position": 3.5,
              "duration": 3.4895833333333335
            },
            {
              "pitch": 57,
              "velocity": 100,
              "position": 7.5,
              "duration": 0.25
            },
            {
              "pitch": 69,
              "velocity": 100,
              "position": 7.5,
              "duration": 0.25
            },
            {
              "pitch": 59,
              "velocity": 81,
              "position": 7.760416666666667,
              "duration": 0.22916666666666666
            },
            {
              "pitch": 71,
              "velocity": 81,
              "position": 7.760416666666667,
              "duration": 0.22916666666666666
            },
            {
              "pitch": 60,
              "velocity": 100,
              "position": 8,
              "duration": 0.4895833333333333
            },
            {
              "pitch": 72,
              "velocity": 100,
              "position": 8,
              "duration": 0.4895833333333333
            },
            {
              "pitch": 59,
              "velocity": 100,
              "position": 8.5,
              "duration": 0.2604166666666667
            },
            {
              "pitch": 71,
              "velocity": 100,
              "position": 8.5,
              "duration": 0.2604166666666667
            },
            {
              "pitch": 57,
              "velocity": 100,
              "position": 9.5,
              "duration": 0.2604166666666667
            },
            {
              "pitch": 69,
              "velocity": 100,
              "position": 9.5,
              "duration": 0.2604166666666667
            },
            {
              "pitch": 55,
              "velocity": 100,
              "position": 10.5,
              "duration": 0.2604166666666667
            },
            {
              "pitch": 67,
              "velocity": 100,
              "position": 10.5,
              "duration": 0.2604166666666667
            },
            {
              "pitch": 57,
              "velocity": 100,
              "position": 11.5,
              "duration": 0.9895833333333334
            },
            {
              "pitch": 69,
              "velocity": 100,
              "position": 11.5,
              "duration": 0.9895833333333334
            },
            {
              "pitch": 60,
              "velocity": 100,
              "position": 12.5,
              "duration": 0.2604166666666667
            },
            {
              "pitch": 72,
              "velocity": 100,
              "position": 12.5,
              "duration": 0.2604166666666667
            }
          ]
        },
        "15": {
          "ctab": {
            "srcChannel": 15,
            "name": "MtGt",
            "accType": "PHRASE2",
            "editable": false,
            "mutedNotes": [],
            "mutedChords": [
              "dim7",
              "dim",
              "minMaj7(9)",
              "minMaj7",
              "min7(11)",
              "min7(9)",
              "min(9)",
              "m7b5",
              "min7",
              "min6",
              "min"
            ],
            "autoStart": false,
            "sourceChordNote": 0,
            "sourceChordType": "Maj",
            "ctb2Low": null,
            "ctb2Main": {
              "ntr": "ROOT_TRANSPOSITION",
              "ntt": "BYPASS",
              "bassOn": false,
              "chordRootUpperLimit": 6,
              "noteLowLimit": 0,
              "noteHighLimit": 127,
              "rtr": "PITCH_SHIFT"
            },
            "ctb2High": null
          },
          "notes": [
            {
              "pitch": 55,
              "velocity": 47,
              "position": 0,
              "duration": 0.10416666666666667
            },
            {
              "pitch": 55,
              "velocity": 73,
              "position": 0.28125,
              "duration": 0.14583333333333334
            },
            {
              "pitch": 57,
              "velocity": 62,
              "position": 0.5,
              "duration": 0.17708333333333334
            },
            {
              "pitch": 60,
              "velocity": 80,
              "position": 0.78125,
              "duration": 0.11458333333333333
            },
            {
              "pitch": 57,
              "velocity": 79,
              "position": 1.28125,
              "duration": 0.0625
            },
            {
              "pitch": 55,
              "velocity": 38,
              "position": 1.5,
              "duration": 0.11458333333333333
            },
            {
              "pitch": 52,
              "velocity": 77,
              "position": 1.78125,
              "duration": 0.0625
            },
            {
              "pitch": 55,
              "velocity": 47,
              "position": 2,
              "duration": 0.10416666666666667
            },
            {
              "pitch": 55,
              "velocity": 73,
              "position": 2.28125,
              "duration": 0.14583333333333334
            },
            {
              "pitch": 57,
              "velocity": 62,
              "position": 2.5,
              "duration": 0.17708333333333334
            },
            {
              "pitch": 60,
              "velocity": 80,
              "position": 2.78125,
              "duration": 0.11458333333333333
            },
            {
              "pitch": 52,
              "velocity": 79,
              "position": 3.28125,
              "duration": 0.0625
            },
            {
              "pitch": 55,
              "velocity": 38,
              "position": 3.5,
              "duration": 0.11458333333333333
            },
            {
              "pitch": 55,
              "velocity": 47,
              "position": 4,
              "duration": 0.10416666666666667
            },
            {
              "pitch": 55,
              "velocity": 73,
              "position": 4.28125,
              "duration": 0.14583333333333334
            },
            {
              "pitch": 57,
              "velocity": 62,
              "position": 4.5,
              "duration": 0.17708333333333334
            },
            {
              "pitch": 60,
              "velocity": 80,
              "position": 4.78125,
              "duration": 0.11458333333333333
            },
            {
              "pitch": 57,
              "velocity": 79,
              "position": 5.28125,
              "duration": 0.0625
            },
            {
              "pitch": 55,
              "velocity": 38,
              "position": 5.5,
              "duration": 0.11458333333333333
            },
            {
              "pitch": 52,
              "velocity": 77,
              "position": 5.78125,
              "duration": 0.0625
            },
            {
              "pitch": 55,
              "velocity": 47,
              "position": 6,
              "duration": 0.10416666666666667
            },
            {
              "pitch": 55,
              "velocity": 73,
              "position": 6.28125,
              "duration": 0.14583333333333334
            },
            {
              "pitch": 57,
              "velocity": 62,
              "position": 6.5,
              "duration": 0.17708333333333334
            },
            {
              "pitch": 60,
              "velocity": 80,
              "position": 6.78125,
              "duration": 0.11458333333333333
            },
            {
              "pitch": 52,
              "velocity": 79,
              "position": 7.28125,
              "duration": 0.0625
            },
            {
              "pitch": 55,
              "velocity": 38,
              "position": 7.5,
              "duration": 0.11458333333333333
            },
            {
              "pitch": 55,
              "velocity": 47,
              "position": 8,
              "duration": 0.10416666666666667
            },
            {
              "pitch": 55,
              "velocity": 73,
              "position": 8.28125,
              "duration": 0.14583333333333334
            },
            {
              "pitch": 57,
              "velocity": 62,
              "position": 8.5,
              "duration": 0.17708333333333334
            },
            {
              "pitch": 60,
              "velocity": 80,
              "position": 8.78125,
              "duration": 0.11458333333333333
            },
            {
              "pitch": 57,
              "velocity": 79,
              "position": 9.28125,
              "duration": 0.0625
            },
            {
              "pitch": 55,
              "velocity": 38,
              "position": 9.5,
              "duration": 0.11458333333333333
            },
            {
              "pitch": 52,
              "velocity": 77,
              "position": 9.78125,
              "duration": 0.0625
            },
            {
              "pitch": 55,
              "velocity": 47,
              "position": 10,
              "duration": 0.10416666666666667
            },
            {
              "pitch": 55,
              "velocity": 73,
              "position": 10.28125,
              "duration": 0.14583333333333334
            },
            {
              "pitch": 57,
              "velocity": 62,
              "position": 10.5,
              "duration": 0.17708333333333334
            },
            {
              "pitch": 60,
              "velocity": 80,
              "position": 10.78125,
              "duration": 0.11458333333333333
            },
            {
              "pitch": 52,
              "velocity": 79,
              "position": 11.28125,
              "duration": 0.0625
            },
            {
              "pitch": 55,
              "velocity": 38,
              "position": 11.5,
              "duration": 0.11458333333333333
            },
            {
              "pitch": 55,
              "velocity": 47,
              "position": 12,
              "duration": 0.10416666666666667
            },
            {
              "pitch": 55,
              "velocity": 73,
              "position": 12.28125,
              "duration": 0.14583333333333334
            },
            {
              "pitch": 57,
              "velocity": 62,
              "position": 12.5,
              "duration": 0.17708333333333334
            },
            {
              "pitch": 60,
              "velocity": 80,
              "position": 12.78125,
              "duration": 0.11458333333333333
            },
            {
              "pitch": 57,
              "velocity": 79,
              "position": 13.28125,
              "duration": 0.0625
            },
            {
              "pitch": 55,
              "velocity": 38,
              "position": 13.5,
              "duration": 0.11458333333333333
            },
            {
              "pitch": 52,
              "velocity": 77,
              "position": 13.78125,
              "duration": 0.0625
            },
            {
              "pitch": 55,
              "velocity": 73,
              "position": 14.03125,
              "duration": 0.14583333333333334
            },
            {
              "pitch": 55,
              "velocity": 80,
              "position": 15.03125,
              "duration": 0.11458333333333333
            }
          ]
        }
      }
    }
  }
}