{
  "name": "ChartPop.S321.prs",
  "tempo": 92,
  "timeSignature": "4/4",
  "ticksPerQuarter": 1920,
  "sffType": "SFF1",
  "division": "BINARY",
  "parts": {
    "Main_A": {
      "type": "Main_A",
      "sizeInBeats": 8,
      "channels": {
        "0": {
          "ctab": {
            "srcChannel": 0,
            "name": "CC_Crash",
            "accType": "SUBRHYTHM",
            "editable": false,
            "mutedNotes": [],
            "mutedChords": [
              "1+2+5",
              "sus4",
              "1+5",
              "1+8",
              "7aug",
              "Maj7aug",
              "7(#9)",
              "7(b13)",
              "7(b9)",
              "7(13)",
              "7#11",
              "7(9)",
              "7b5",
              "7sus4",
              "7th",
              "dim7",
              "dim",
              "minMaj7(9)",
              "minMaj7",
              "min7(11)",
              "min7(9)",
              "min(9)",
              "m7b5",
              "min7",
              "min6",
              "min",
              "aug",
              "Maj6(9)",
              "Maj7(9)",
              "Maj(9)",
              "Maj7#11",
              "Maj7",
              "Maj6",
              "Maj"
            ],
            "autoStart": true,
            "sourceChordNote": 0,
            "sourceChordType": "Maj7",
            "ctb2Low": null,
            "ctb2Main": {
              "ntr": "ROOT_FIXED",
              "ntt": "BYPASS",
              "bassOn": false,
              "chordRootUpperLimit": 6,
              "noteLowLimit": 0,
              "noteHighLimit": 127,
              "rtr": "RETRIGGER"
            },
            "ctb2High": null
          },
          "notes": []
        },
        "1": {
          "ctab": {
            "srcChannel": 1,
            "name": "Steeldea",
            "accType": "PHRASE1",
            "editable": false,
            "mutedNotes": [],
            "mutedChords": [],
            "autoStart": false,
            "sourceChordNote": 0,
            "sourceChordType": "Maj7",
            "ctb2Low": null,
            "ctb2Main": {
              "ntr": "ROOT_FIXED",
              "ntt": "BYPASS",
              "bassOn": false,
              "chordRootUpperLimit": 7,
              "noteLowLimit": 0,
              "noteHighLimit": 127,
              "rtr": "PITCH_SHIFT"
            },
            "ctb2High": null
          },
          "notes": []
        },
        "3": {
          "ctab": {
            "srcChannel": 3,
            "name": "Ep Root",
            "accType": "CHORD1",
            "editable": false,
            "mutedNotes": [],
            "mutedChords": [
              "1+2+5",
              "sus4",
              "1+5",
              "1+8",
              "Maj7aug",
              "dim",
              "minMaj7(9)",
              "minMaj7",
              "min6",
              "min",
              "aug",
              "Maj7(9)",
              "Maj7#11",
              "Maj7",
              "Maj6",
              "Maj"
            ],
            "autoStart": false,
            "sourceChordNote": 0,
            "sourceChordType": "Maj7",
            "ctb2Low": null,
            "ctb2Main": {
              "ntr": "ROOT_TRANSPOSITION",
              "ntt": "MELODY",
              "bassOn": false,
              "chordRootUpperLimit": 10,
              "noteLowLimit": 0,
              "noteHighLimit": 127,
              "rtr": "PITCH_SHIFT"
            },
            "ctb2High": null
          },
          "notes": [
            {
              "pitch": 60,
              "velocity": 65,
              "position": 0,
              "duration": 0.17708333333333334
            },
            {
              "pitch": 60,
              "velocity": 65,
              "position": 0.5,
              "duration": 0.17708333333333334
            },
            {
              "pitch": 60,
              "velocity": 65,
              "position": 1,
              "duration": 0.17708333333333334
            },
            {
              "pitch": 60,
              "velocity": 65,
              "position": 1.5,
              "duration": 0.17708333333333334
            },
            {
              "pitch": 60,
              "velocity": 65,
              "position": 2,
              "duration": 0.17708333333333334
            },
            {
              "pitch": 60,
              "velocity": 65,
              "position": 2.5,
              "duration": 0.17708333333333334
            },
            {
              "pitch": 60,
              "velocity": 65,
              "position": 3,
              "duration": 0.17708333333333334
            },
            {
              "pitch": 60,
              "velocity": 65,
              "position": 3.5,
              "duration": 0.17708333333333334
            },
            {
              "pitch": 60,
              "velocity": 65,
              "position": 4,
              "duration": 0.17708333333333334
            },
            {
              "pitch": 60,
              "velocity": 65,
              "position": 4.5,
              "duration": 0.17708333333333334
            },
            {
              "pitch": 60,
              "velocity": 65,
              "position": 5,
              "duration": 0.17708333333333334
            },
            {
              "pitch": 60,
              "velocity": 65,
              "position": 5.5,
              "duration": 0.17708333333333334
            },
            {
              "pitch": 60,
              "velocity": 65,
              "position": 6,
              "duration": 0.17708333333333334
            },
            {
              "pitch": 60,
              "velocity": 65,
              "position": 6.5,
              "duration": 0.17708333333333334
            },
            {
              "pitch": 60,
              "velocity": 65,
              "position": 7,
              "duration": 0.17708333333333334
            },
            {
              "pitch": 60,
              "velocity": 65,
              "position": 7.5,
              "duration": 0.17708333333333334
            }
          ]
        },
        "5": {
          "ctab": {
            "srcChannel": 5,
            "name": "Str Root",
            "accType": "PAD",
            "editable": false,
            "mutedNotes": [],
            "mutedChords": [
              "1+2+5",
              "sus4",
              "1+5",
              "1+8",
              "Maj7aug",
              "dim",
              "minMaj7(9)",
              "minMaj7",
              "min6",
              "min",
              "aug",
              "Maj7(9)",
              "Maj7#11",
              "Maj7",
              "Maj6",
              "Maj"
            ],
            "autoStart": false,
            "sourceChordNote": 0,
            "sourceChordType": "Maj7",
            "ctb2Low": null,
            "ctb2Main": {
              "ntr": "ROOT_TRANSPOSITION",
              "ntt": "MELODY",
              "bassOn": false,
              "chordRootUpperLimit": 6,
              "noteLowLimit": 0,
              "noteHighLimit": 127,
              "rtr": "PITCH_SHIFT"
            },
            "ctb2High": null
          },
          "notes": []
        },
        "8": {
          "ctab": {
            "srcChannel": 8,
            "name": "Perc",
            "accType": "SUBRHYTHM",
            "editable": false,
            "mutedNotes": [],
            "mutedChords": [],
            "autoStart": true,
            "sourceChordNote": 0,
            "sourceChordType": "Maj7",
            "ctb2Low": null,
            "ctb2Main": {
              "ntr": "ROOT_FIXED",
              "ntt": "BYPASS",
              "bassOn": false,
              "chordRootUpperLimit": 6,
              "noteLowLimit": 0,
              "noteHighLimit": 127,
              "rtr": "PITCH_SHIFT"
            },
            "ctb2High": null
          },
          "notes": [
            {
              "pitch": 42,
              "velocity": 53,
              "position": 0,
              "duration": 0.010416666666666666
            },
            {
              "pitch": 69,
              "velocity": 44,
              "position": 0,
              "duration": 0.010416666666666666
            },
            {
              "pitch": 70,
              "velocity": 44,
              "position": 0,
              "duration": 0.010416666666666666
            },
            {
              "pitch": 42,
              "velocity": 53,
              "position": 0.5,
              "duration": 0.010416666666666666
            },
            {
              "pitch": 69,
              "velocity": 46,
              "position": 0.5,
              "duration": 0.010416666666666666
            },
            {
              "pitch": 70,
              "velocity": 54,
              "position": 0.5,
              "duration": 0.010416666666666666
            },
            {
              "pitch": 42,
              "velocity": 53,
              "position": 1,
              "duration": 0.010416666666666666
            },
            {
              "pitch": 70,
              "velocity": 44,
              "position": 1,
              "duration": 0.010416666666666666
            },
            {
              "pitch": 42,
              "velocity": 53,
              "position": 1.5,
              "duration": 0.010416666666666666
            },
            {
              "pitch": 70,
              "velocity": 54,
              "position": 1.5,
              "duration": 0.010416666666666666
            },
            {
              "pitch": 42,
              "velocity": 37,
              "position": 1.7916666666666667,
              "duration": 0.010416666666666666
            },
            {
              "pitch": 42,
              "velocity": 53,
              "position": 2,
              "duration": 0.010416666666666666
            },
            {
              "pitch": 70,
              "velocity": 44,
              "position": 2,
              "duration": 0.010416666666666666
            },
            {
              "pitch": 42,
              "velocity": 53,
              "position": 2.5,
              "duration": 0.010416666666666666
            },
            {
              "pitch": 70,
              "velocity": 54,
              "position": 2.5,
              "duration": 0.010416666666666666
            },
            {
              "pitch": 80,
              "velocity": 36,
              "position": 2.5,
              "duration": 0.010416666666666666
            },
            {
              "pitch": 42,
              "velocity": 53,
              "position": 3,
              "duration": 0.010416666666666666
            },
            {
              "pitch": 70,
              "velocity": 44,
              "position": 3,
              "duration": 0.010416666666666666
            },
            {
              "pitch": 81,
              "velocity": 30,
              "position": 3,
              "duration": 0.010416666666666666
            },
            {
              "pitch": 42,
              "velocity": 53,
              "position": 3.5,
              "duration": 0.010416666666666666
            },
            {
              "pitch": 70,
              "velocity": 54,
              "position": 3.5,
              "duration": 0.010416666666666666
            },
            {
              "pitch": 42,
              "velocity": 53,
              "position": 4,
              "duration": 0.010416666666666666
            },
            {
              "pitch": 69,
              "velocity": 44,
              "position": 4,
              "duration": 0.010416666666666666
            },
            {
              "pitch": 70,
              "velocity": 44,
              "position": 4,
              "duration": 0.010416666666666666
            },
            {
              "pitch": 42,
              "velocity": 53,
              "position": 4.5,
              "duration": 0.010416666666666666
            },
            {
              "pitch": 69,
              "velocity": 46,
              "position": 4.5,
              "duration": 0.010416666666666666
            },
            {
              "pitch": 70,
              "velocity": 54,
              "position": 4.5,
              "duration": 0.010416666666666666
            },
            {
              "pitch": 42,
              "velocity": 37,
              "position": 4.791666666666667,
              "duration": 0.010416666666666666
            },
            {
              "pitch": 42,
              "velocity": 53,
              "position": 5,
              "duration": 0.010416666666666666
            },
            {
              "pitch": 70,
              "velocity": 44,
              "position": 5,
              "duration": 0.010416666666666666
            },
            {
              "pitch": 42,
              "velocity": 53,
              "position": 5.5,
              "duration": 0.010416666666666666
            },
            {
              "pitch": 70,
              "velocity": 54,
              "position": 5.5,
              "duration": 0.010416666666666666
            },
            {
              "pitch": 42,
              "velocity": 53,
              "position": 6,
              "duration": 0.010416666666666666
            },
            {
              "pitch": 70,
              "velocity": 44,
              "position": 6,
              "duration": 0.010416666666666666
            },
            {
              "pitch": 42,
              "velocity": 53,
              "position": 6.5,
              "duration": 0.010416666666666666
            },
            {
              "pitch": 70,
              "velocity": 54,
              "position": 6.5,
              "duration": 0.010416666666666666
            },
            {
              "pitch": 42,
              "velocity": 53,
              "position": 7,
              "duration": 0.010416666666666666
            },
            {
              "pitch": 70,
              "velocity": 44,
              "position": 7,
              "duration": 0.010416666666666666
            },
            {
              "pitch": 42,
              "velocity": 53,
              "position": 7.5,
              "duration": 0.010416666666666666
            },
            {
              "pitch": 70,
              "velocity": 54,
              "position": 7.5,
              "duration": 0.010416666666666666
            }
          ]
        },
        "9": {
          "ctab": {
            "srcChannel": 9,
            "name": "Drums",
            "accType": "RHYTHM",
            "editable": false,
            "mutedNotes": [],
            "mutedChords": [],
            "autoStart": true,
            "sourceChordNote": 0,
            "sourceChordType": "Maj7",
            "ctb2Low": null,
            "ctb2Main": {
              "ntr": "ROOT_FIXED",
              "ntt": "BYPASS",
              "bassOn": false,
              "chordRootUpperLimit": 6,
              "noteLowLimit": 0,
              "noteHighLimit": 127,
              "rtr": "PITCH_SHIFT"
            },
            "ctb2High": null
          },
          "notes": [
            {
              "pitch": 36,
              "velocity": 80,
              "position": 0,
              "duration": 0.010416666666666666
            },
            {
              "pitch": 78,
              "velocity": 35,
              "position": 0.5,
              "duration": 0.23958333333333334
            },
            {
              "pitch": 34,
              "velocity": 60,
              "position": 1,
              "duration": 0.010416666666666666
            },
            {
              "pitch": 39,
              "velocity": 40,
              "position": 1,
              "duration": 0.010416666666666666
            },
            {
              "pitch": 78,
              "velocity": 35,
              "position": 1.5,
              "duration": 0.23958333333333334
            },
            {
              "pitch": 36,
              "velocity": 37,
              "position": 1.7916666666666667,
              "duration": 0.010416666666666666
            },
            {
              "pitch": 36,
              "velocity": 80,
              "position": 2,
              "duration": 0.010416666666666666
            },
            {
              "pitch": 78,
              "velocity": 35,
              "position": 2.5,
              "duration": 0.23958333333333334
            },
            {
              "pitch": 34,
              "velocity": 60,
              "position": 3,
              "duration": 0.010416666666666666
            },
            {
              "pitch": 39,
              "velocity": 40,
              "position": 3,
              "duration": 0.010416666666666666
            },
            {
              "pitch": 79,
              "velocity": 40,
              "position": 3.2916666666666665,
              "duration": 0.23958333333333334
            },
            {
              "pitch": 78,
              "velocity": 35,
              "position": 3.5,
              "duration": 0.23958333333333334
            },
            {
              "pitch": 36,
              "velocity": 80,
              "position": 4,
              "duration": 0.010416666666666666
            },
            {
              "pitch": 79,
              "velocity": 40,
              "position": 3.7916666666666665,
              "duration": 0.23958333333333334
            },
            {
              "pitch": 78,
              "velocity": 35,
              "position": 4.5,
              "duration": 0.23958333333333334
            },
            {
              "pitch": 34,
              "velocity": 60,
              "position": 5,
              "duration": 0.010416666666666666
            },
            {
              "pitch": 39,
              "velocity": 40,
              "position": 5,
              "duration": 0.010416666666666666
            },
            {
              "pitch": 78,
              "velocity": 35,
              "position": 5.5,
              "duration": 0.23958333333333334
            },
            {
              "pitch": 36,
              "velocity": 37,
              "position": 5.791666666666667,
              "duration": 0.010416666666666666
            },
            {
              "pitch": 36,
              "velocity": 80,
              "position": 6,
              "duration": 0.010416666666666666
            },
            {
              "pitch": 78,
              "velocity": 35,
              "position": 6.5,
              "duration": 0.23958333333333334
            },
            {
              "pitch": 34,
              "velocity": 60,
              "position": 7,
              "duration": 0.010416666666666666
            },
            {
              "pitch": 39,
              "velocity": 40,
              "position": 7,
              "duration": 0.010416666666666666
            },
            {
              "pitch": 58,
              "velocity": 40,
              "position": 7,
              "duration": 0.010416666666666666
            },
            {
              "pitch": 78,
              "velocity": 35,
              "position": 7.5,
              "duration": 0.23958333333333334
            }
          ]
        },
        "10": {
          "ctab": {
            "srcChannel": 10,
            "name": "Bass",
            "accType": "BASS",
            "editable": false,
            "mutedNotes": [],
            "mutedChords": [],
            "autoStart": false,
            "sourceChordNote": 0,
            "sourceChordType": "Maj7",
            "ctb2Low": null,
            "ctb2Main": {
              "ntr": "ROOT_TRANSPOSITION",
              "ntt": "MELODY",
              "bassOn": true,
              "chordRootUpperLimit": 3,
              "noteLowLimit": 28,
              "noteHighLimit": 127,
              "rtr": "PITCH_SHIFT_TO_ROOT"
            },
            "ctb2High": null
          },
          "notes": [
            {
              "pitch": 24,
              "velocity": 95,
              "position": 0,
              "duration": 0.49166666666666664
            },
            {
              "pitch": 24,
              "velocity": 95,
              "position": 1.5,
              "duration": 0.28125
            },
            {
              "pitch": 24,
              "velocity": 70,
              "position": 1.7916666666666667,
              "duration": 0.19791666666666666
            },
            {
              "pitch": 24,
              "velocity": 95,
              "position": 2,
              "duration": 0.40625
            },
            {
              "pitch": 31,
              "velocity": 95,
              "position": 3,
              "duration": 0.4895833333333333
            },
            {
              "pitch": 31,
              "velocity": 95,
              "position": 3.5,
              "duration": 0.4895833333333333
            },
            {
              "pitch": 24,
              "velocity": 95,
              "position": 4,
              "duration": 0.49166666666666664
            },
            {
              "pitch": 24,
              "velocity": 95,
              "position": 5.5,
              "duration": 0.28125
            },
            {
              "pitch": 24,
              "velocity": 70,
              "position": 5.791666666666667,
              "duration": 0.19791666666666666
            },
            {
              "pitch": 24,
              "velocity": 95,
              "position": 6,
              "duration": 0.4583333333333333
            },
            {
              "pitch": 31,
              "velocity": 95,
              "position": 7,
              "duration": 0.9895833333333334
            }
          ]
        },
        "11": {
          "ctab": {
            "srcChannel": 11,
            "name": "Ep",
            "accType": "CHORD1",
            "editable": false,
            "mutedNotes": [],
            "mutedChords": [],
            "autoStart": false,
            "sourceChordNote": 0,
            "sourceChordType": "Maj7",
            "ctb2Low": null,
            "ctb2Main": {
              "ntr": "ROOT_FIXED",
              "ntt": "CHORD",
              "bassOn": false,
              "chordRootUpperLimit": 4,
              "noteLowLimit": 0,
              "noteHighLimit": 127,
              "rtr": "PITCH_SHIFT"
            },
            "ctb2High": null
          },
          "notes": [
            {
              "pitch": 59,
              "velocity": 65,
              "position": 0,
              "duration": 0.17708333333333334
            },
            {
              "pitch": 64,
              "velocity": 65,
              "position": 0,
              "duration": 0.17708333333333334
            },
            {
              "pitch": 67,
              "velocity": 65,
              "position": 0,
              "duration": 0.17708333333333334
            },
            {
              "pitch": 59,
              "velocity": 65,
              "position": 0.5,
              "duration": 0.17708333333333334
            },
            {
              "pitch": 64,
              "velocity": 65,
              "position": 0.5,
              "duration": 0.17708333333333334
            },
            {
              "pitch": 67,
              "velocity": 65,
              "position": 0.5,
              "duration": 0.17708333333333334
            },
            {
              "pitch": 59,
              "velocity": 65,
              "position": 1,
              "duration": 0.17708333333333334
            },
            {
              "pitch": 64,
              "velocity": 65,
              "position": 1,
              "duration": 0.17708333333333334
            },
            {
              "pitch": 67,
              "velocity": 65,
              "position": 1,
              "duration": 0.17708333333333334
            },
            {
              "pitch": 59,
              "velocity": 65,
              "position": 1.5,
              "duration": 0.17708333333333334
            },
            {
              "pitch": 64,
              "velocity": 65,
              "position": 1.5,
              "duration": 0.17708333333333334
            },
            {
              "pitch": 67,
              "velocity": 65,
              "position": 1.5,
              "duration": 0.17708333333333334
            },
            {
              "pitch": 59,
              "velocity": 65,
              "position": 2,
              "duration": 0.17708333333333334
            },
            {
              "pitch": 64,
              "velocity": 65,
              "position": 2,
              "duration": 0.17708333333333334
            },
            {
              "pitch": 67,
              "velocity": 65,
              "position": 2,
              "duration": 0.17708333333333334
            },
            {
              "pitch": 59,
              "velocity": 65,
              "position": 2.5,
              "duration": 0.17708333333333334
            },
            {
              "pitch": 64,
              "velocity": 65,
              "position": 2.5,
              "duration": 0.17708333333333334
            },
            {
              "pitch": 67,
              "velocity": 65,
              "position": 2.5,
              "duration": 0.17708333333333334
            },
            {
              "pitch": 59,
              "velocity": 65,
              "position": 3,
              "duration": 0.17708333333333334
            },
            {
              "pitch": 64,
              "velocity": 65,
              "position": 3,
              "duration": 0.17708333333333334
            },
            {
              "pitch": 67,
              "velocity": 65,
              "position": 3,
              "duration": 0.17708333333333334
            },
            {
              "pitch": 59,
              "velocity": 65,
              "position": 3.5,
              "duration": 0.17708333333333334
            },
            {
              "pitch": 64,
              "velocity": 65,
              "position": 3.5,
              "duration": 0.17708333333333334
            },
            {
              "pitch": 67,
              "velocity": 65,
              "position": 3.5,
              "duration": 0.17708333333333334
            },
            {
              "pitch": 59,
              "velocity": 65,
              "position": 4,
              "duration": 0.17708333333333334
            },
            {
              "pitch": 64,
              "velocity": 65,
              "position": 4,
              "duration": 0.17708333333333334
            },
            {
              "pitch": 67,
              "velocity": 65,
              "position": 4,
              "duration": 0.17708333333333334
            },
            {
              "pitch": 59,
              "velocity": 65,
              "position": 4.5,
              "duration": 0.17708333333333334
            },
            {
              "pitch": 64,
              "velocity": 65,
              "position": 4.5,
              "duration": 0.17708333333333334
            },
            {
              "pitch": 67,
              "velocity": 65,
              "position": 4.5,
              "duration": 0.17708333333333334
            },
            {
              "pitch": 59,
              "velocity": 65,
              "position": 5,
              "duration": 0.17708333333333334
            },
            {
              "pitch": 64,
              "velocity": 65,
              "position": 5,
              "duration": 0.17708333333333334
            },
            {
              "pitch": 67,
              "velocity": 65,
              "position": 5,
              "duration": 0.17708333333333334
            },
            {
              "pitch": 59,
              "velocity": 65,
              "position": 5.5,
              "duration": 0.17708333333333334
            },
            {
              "pitch": 64,
              "velocity": 65,
              "position": 5.5,
              "duration": 0.17708333333333334
            },
            {
              "pitch": 67,
              "velocity": 65,
              "position": 5.5,
              "duration": 0.17708333333333334
            },
            {
              "pitch": 59,
              "velocity": 65,
              "position": 6,
              "duration": 0.17708333333333334
            },
            {
              "pitch": 64,
              "velocity": 65,
              "position": 6,
              "duration": 0.17708333333333334
            },
            {
              "pitch": 67,
              "velocity": 65,
              "position": 6,
              "duration": 0.17708333333333334
            },
            {
              "pitch": 59,
              "velocity": 65,
              "position": 6.5,
              "duration": 0.17708333333333334
            },
            {
              "pitch": 64,
              "velocity": 65,
              "position": 6.5,
              "duration": 0.17708333333333334
            },
            {
              "pitch": 67,
              "velocity": 65,
              "position": 6.5,
              "duration": 0.17708333333333334
            },
            {
              "pitch": 59,
              "velocity": 65,
              "position": 7,
              "duration": 0.17708333333333334
            },
            {
              "pitch": 64,
              "velocity": 65,
              "position": 7,
              "duration": 0.17708333333333334
            },
            {
              "pitch": 67,
              "velocity": 65,
              "position": 7,
              "duration": 0.17708333333333334
            },
            {
              "pitch": 59,
              "velocity": 65,
              "position": 7.5,
              "duration": 0.17708333333333334
            },
            {
              "pitch": 64,
              "velocity": 65,
              "position": 7.5,
              "duration": 0.17708333333333334
            },
            {
              "pitch": 67,
              "velocity": 65,
              "position": 7.5,
              "duration": 0.17708333333333334
            }
          ]
        },
        "12": {
          "ctab": {
            "srcChannel": 12,
            "name": "JzGtr",
            "accType": "CHORD2",
            "editable": false,
            "mutedNotes": [],
            "mutedChords": [],
            "autoStart": false,
            "sourceChordNote": 0,
            "sourceChordType": "Maj7",
            "ctb2Low": null,
            "ctb2Main": {
              "ntr": "ROOT_FIXED",
              "ntt": "CHORD",
              "bassOn": false,
              "chordRootUpperLimit": 7,
              "noteLowLimit": 0,
              "noteHighLimit": 127,
              "rtr": "PITCH_SHIFT"
            },
            "ctb2High": null
          },
          "notes": [
            {
              "pitch": 55,
              "velocity": 36,
              "position": 1.8125,
              "duration": 0.17708333333333334
            },
            {
              "pitch": 59,
              "velocity": 48,
              "position": 2,
              "duration": 0.3020833333333333
            },
            {
              "pitch": 55,
              "velocity": 29,
              "position": 2.3125,
              "duration": 0.17708333333333334
            },
            {
              "pitch": 59,
              "velocity": 42,
              "position": 2.5,
              "duration": 0.28125
            },
            {
              "pitch": 55,
              "velocity": 40,
              "position": 5.8125,
              "duration": 0.17708333333333334
            },
            {
              "pitch": 59,
              "velocity": 35,
              "position": 6,
              "duration": 0.3020833333333333
            },
            {
              "pitch": 55,
              "velocity": 31,
              "position": 6.3125,
              "duration": 0.17708333333333334
            },
            {
              "pitch": 59,
              "velocity": 32,
              "position": 6.5,
              "duration": 0.3020833333333333
            }
          ]
        },
        "13": {
          "ctab": {
            "srcChannel": 13,
            "name": "Strings",
            "accType": "PAD",
            "editable": false,
            "mutedNotes": [],
            "mutedChords": [],
            "autoStart": false,
            "sourceChordNote": 0,
            "sourceChordType": "Maj7",
            "ctb2Low": null,
            "ctb2Main": {
              "ntr": "ROOT_FIXED",
              "ntt": "CHORD",
              "bassOn": false,
              "chordRootUpperLimit": 7,
              "noteLowLimit": 0,
              "noteHighLimit": 127,
              "rtr": "PITCH_SHIFT"
            },
            "ctb2High": null
          },
          "notes": []
        },
        "14": {
          "ctab": {
            "srcChannel": 14,
            "name": "SteelMsw",
            "accType": "PHRASE1",
            "editable": false,
            "mutedNotes": [],
            "mutedChords": [],
            "autoStart": false,
            "sourceChordNote": 0,
            "sourceChordType": "Maj7",
            "ctb2Low": null,
            "ctb2Main": {
              "ntr": "ROOT_FIXED",
              "ntt": "CHORD",
              "bassOn": false,
              "chordRootUpperLimit": 7,
              "noteLowLimit": 0,
              "noteHighLimit": 127,
              "rtr": "PITCH_SHIFT"
            },
            "ctb2High": null
          },
          "notes": [
            {
              "pitch": 55,
              "velocity": 84,
              "position": 0,
              "duration": 0.3125
            },
            {
              "pitch": 59,
              "velocity": 84,
              "position": 0,
              "duration": 0.3229166666666667
            },
            {
              "pitch": 55,
              "velocity": 84,
              "position": 0.5,
              "duration": 0.18958333333333333
            },
            {
              "pitch": 59,
              "velocity": 84,
              "position": 0.5,
              "duration": 0.24166666666666667
            },
            {
              "pitch": 55,
              "velocity": 84,
              "position": 1,
              "duration": 0.1875
            },
            {
              "pitch": 59,
              "velocity": 84,
              "position": 1,
              "duration": 0.19791666666666666
            },
            {
              "pitch": 64,
              "velocity": 108,
              "position": 1.4791666666666667,
              "duration": 0.5104166666666666
            },
            {
              "pitch": 67,
              "velocity": 108,
              "position": 1.4791666666666667,
              "duration": 0.5104166666666666
            },
            {
              "pitch": 71,
              "velocity": 108,
              "position": 1.4791666666666667,
              "duration": 0.5104166666666666
            },
            {
              "pitch": 55,
              "velocity": 84,
              "position": 2,
              "duration": 0.20833333333333334
            },
            {
              "pitch": 59,
              "velocity": 84,
              "position": 2,
              "duration": 0.20833333333333334
            },
            {
              "pitch": 55,
              "velocity": 84,
              "position": 2.5,
              "duration": 0.14583333333333334
            },
            {
              "pitch": 59,
              "velocity": 84,
              "position": 2.5,
              "duration": 0.17083333333333334
            },
            {
              "pitch": 55,
              "velocity": 84,
              "position": 3,
              "duration": 0.23125
            },
            {
              "pitch": 59,
              "velocity": 84,
              "position": 3,
              "duration": 0.25
            },
            {
              "pitch": 55,
              "velocity": 84,
              "position": 3.5,
              "duration": 0.22291666666666668
            },
            {
              "pitch": 59,
              "velocity": 84,
              "position": 3.5,
              "duration": 0.22291666666666668
            },
            {
              "pitch": 55,
              "velocity": 84,
              "position": 4,
              "duration": 0.2125
            },
            {
              "pitch": 59,
              "velocity": 84,
              "position": 4,
              "duration": 0.22291666666666668
            },
            {
              "pitch": 55,
              "velocity": 84,
              "position": 4.5,
              "duration": 0.2708333333333333
            },
            {
              "pitch": 59,
              "velocity": 84,
              "position": 4.5,
              "duration": 0.29583333333333334
            },
            {
              "pitch": 59,
              "velocity": 84,
              "position": 5,
              "duration": 0.2520833333333333
            },
            {
              "pitch": 55,
              "velocity": 84,
              "position": 5,
              "duration": 0.2625
            },
            {
              "pitch": 64,
              "velocity": 108,
              "position": 5.479166666666667,
              "duration": 0.5104166666666666
            },
            {
              "pitch": 67,
              "velocity": 108,
              "position": 5.479166666666667,
              "duration": 0.5104166666666666
            },
            {
              "pitch": 71,
              "velocity": 108,
              "position": 5.479166666666667,
              "duration": 0.5104166666666666
            },
            {
              "pitch": 55,
              "velocity": 84,
              "position": 6,
              "duration": 0.21041666666666667
            },
            {
              "pitch": 59,
              "velocity": 84,
              "position": 6,
              "duration": 0.22083333333333333
            },
            {
              "pitch": 55,
              "velocity": 84,
              "position": 6.5,
              "duration": 0.22916666666666666
            },
            {
              "pitch": 59,
              "velocity": 84,
              "position": 6.5,
              "duration": 0.2604166666666667
            },
            {
              "pitch": 59,
              "velocity": 84,
              "position": 7,
              "duration": 0.4166666666666667
            },
            {
              "pitch": 55,
              "velocity": 84,
              "position": 7,
              "duration": 0.42083333333333334
            },
            {
              "pitch": 59,
              "velocity": 84,
              "position": 7.5,
              "duration": 0.17916666666666667
            },
            {
              "pitch": 55,
              "velocity": 84,
              "position": 7.5,
              "duration": 0.1875
            }
          ]
        },
        "15": {
          "ctab": {
            "srcChannel": 15,
            "name": "Flute",
            "accType": "PHRASE2",
            "editable": false,
            "mutedNotes": [],
            "mutedChords": [],
            "autoStart": false,
            "sourceChordNote": 0,
            "sourceChordType": "Maj7",
            "ctb2Low": null,
            "ctb2Main": {
              "ntr": "ROOT_FIXED",
              "ntt": "CHORD",
              "bassOn": false,
              "chordRootUpperLimit": 7,
              "noteLowLimit": 0,
              "noteHighLimit": 127,
              "rtr": "PITCH_SHIFT"
            },
            "ctb2High": null
          },
          "notes": [
            {
              "pitch": 79,
              "velocity": 25,
              "position": 2,
              "duration": 0.15625
            },
            {
              "pitch": 76,
              "velocity": 25,
              "position": 2.1666666666666665,
              "duration": 0.15625
            },
            {
              "pitch": 71,
              "velocity": 25,
              "position": 2.3333333333333335,
              "duration": 0.15625
            },
            {
              "pitch": 79,
              "velocity": 25,
              "position": 2.5,
              "duration": 0.15625
            },
            {
              "pitch": 76,
              "velocity": 25,
              "position": 2.6666666666666665,
              "duration": 0.15625
            },
            {
              "pitch": 71,
              "velocity": 25,
              "position": 2.8333333333333335,
              "duration": 0.15625
            },
            {
              "pitch": 79,
              "velocity": 25,
              "position": 3,
              "duration": 0.15625
            },
            {
              "pitch": 76,
              "velocity": 25,
              "position": 3.1666666666666665,
              "duration": 0.15625
            },
            {
              "pitch": 71,
              "velocity": 25,
              "position": 3.3333333333333335,
              "duration": 0.15625
            },
            {
              "pitch": 79,
              "velocity": 25,
              "position": 3.5,
              "duration": 0.15625
            },
            {
              "pitch": 76,
              "velocity": 25,
              "position": 3.6666666666666665,
              "duration": 0.15625
            },
            {
              "pitch": 71,
              "velocity": 25,
              "position": 3.8333333333333335,
              "duration": 0.15625
            }
          ]
        }
      }
    },
    "Main_C": {
      "type": "Main_C",
      "sizeInBeats": 16,
      "channels": {
        "0": {
          "ctab": {
            "srcChannel": 0,
            "name": "CC_Crash",
            "accType": "SUBRHYTHM",
            "editable": false,
            "mutedNotes": [],
            "mutedChords": [
              "1+2+5",
              "sus4",
              "1+5",
              "1+8",
              "7aug",
              "Maj7aug",
              "7(#9)",
              "7(b13)",
              "7(b9)",
              "7(13)",
              "7#11",
              "7(9)",
              "7b5",
              "7sus4",
              "7th",
              "dim7",
              "dim",
              "minMaj7(9)",
              "minMaj7",
              "min7(11)",
              "min7(9)",
              "min(9)",
              "m7b5",
              "min7",
              "min6",
              "min",
              "aug",
              "Maj6(9)",
              "Maj7(9)",
              "Maj(9)",
              "Maj7#11",
              "Maj7",
              "Maj6",
              "Maj"
            ],
            "autoStart": true,
            "sourceChordNote": 0,
            "sourceChordType": "Maj7",
            "ctb2Low": null,
            "ctb2Main": {
              "ntr": "ROOT_FIXED",
              "ntt": "BYPASS",
              "bassOn": false,
              "chordRootUpperLimit": 6,
              "noteLowLimit": 0,
              "noteHighLimit": 127,
              "rtr": "RETRIGGER"
            },
            "ctb2High": null
          },
          "notes": []
        },
        "1": {
          "ctab": {
            "srcChannel": 1,
            "name": "Steeldea",
            "accType": "PHRASE1",
            "editable": false,
            "mutedNotes": [],
            "mutedChords": [],
            "autoStart": false,
            "sourceChordNote": 0,
            "sourceChordType": "Maj7",
            "ctb2Low": null,
            "ctb2Main": {
              "ntr": "ROOT_FIXED",
              "ntt": "BYPASS",
              "bassOn": false,
              "chordRootUpperLimit": 7,
              "noteLowLimit": 0,
              "noteHighLimit": 127,
              "rtr": "PITCH_SHIFT"
            },
            "ctb2High": null
          },
          "notes": [
            {
              "pitch": 112,
              "velocity": 73,
              "position": 1,
              "duration": 0.23958333333333334
            },
            {
              "pitch": 111,
              "velocity": 73,
              "position": 1.2916666666666667,
              "duration": 0.17708333333333334
            },
            {
              "pitch": 110,
              "velocity": 73,
              "position": 1.5,
              "duration": 0.23958333333333334
            },
            {
              "pitch": 109,
              "velocity": 73,
              "position": 1.7916666666666667,
              "duration": 0.17708333333333334
            },
            {
              "pitch": 112,
              "velocity": 73,
              "position": 5,
              "duration": 0.23958333333333334
            },
            {
              "pitch": 111,
              "velocity": 73,
              "position": 5.291666666666667,
              "duration": 0.17708333333333334
            },
            {
              "pitch": 110,
              "velocity": 73,
              "position": 5.5,
              "duration": 0.23958333333333334
            },
            {
              "pitch": 109,
              "velocity": 73,
              "position": 5.791666666666667,
              "duration": 0.17708333333333334
            },
            {
              "pitch": 112,
              "velocity": 73,
              "position": 7.270833333333333,
              "duration": 0.17708333333333334
            },
            {
              "pitch": 111,
              "velocity": 73,
              "position": 7.479166666666667,
              "duration": 0.23958333333333334
            },
            {
              "pitch": 110,
              "velocity": 73,
              "position": 7.770833333333333,
              "duration": 0.17708333333333334
            },
            {
              "pitch": 112,
              "velocity": 73,
              "position": 9,
              "duration": 0.23958333333333334
            },
            {
              "pitch": 111,
              "velocity": 73,
              "position": 9.291666666666666,
              "duration": 0.17708333333333334
            },
            {
              "pitch": 110,
              "velocity": 73,
              "position": 9.5,
              "duration": 0.23958333333333334
            },
            {
              "pitch": 109,
              "velocity": 73,
              "position": 9.791666666666666,
              "duration": 0.17708333333333334
            },
            {
              "pitch": 112,
              "velocity": 73,
              "position": 13,
              "duration": 0.23958333333333334
            },
            {
              "pitch": 111,
              "velocity": 73,
              "position": 13.291666666666666,
              "duration": 0.17708333333333334
            },
            {
              "pitch": 110,
              "velocity": 73,
              "position": 13.5,
              "duration": 0.23958333333333334
            },
            {
              "pitch": 109,
              "velocity": 73,
              "position": 13.791666666666666,
              "duration": 0.17708333333333334
            },
            {
              "pitch": 112,
              "velocity": 73,
              "position": 15.270833333333334,
              "duration": 0.17708333333333334
            },
            {
              "pitch": 111,
              "velocity": 73,
              "position": 15.479166666666666,
              "duration": 0.23958333333333334
            },
            {
              "pitch": 110,
              "velocity": 73,
              "position": 15.770833333333334,
              "duration": 0.17708333333333334
            }
          ]
        },
        "3": {
          "ctab": {
            "srcChannel": 3,
            "name": "Ep Root",
            "accType": "CHORD1",
            "editable": false,
            "mutedNotes": [],
            "mutedChords": [
              "1+2+5",
              "sus4",
              "1+5",
              "1+8",
              "Maj7aug",
              "dim",
              "minMaj7(9)",
              "minMaj7",
              "min6",
              "min",
              "aug",
              "Maj7(9)",
              "Maj7#11",
              "Maj7",
              "Maj6",
              "Maj"
            ],
            "autoStart": false,
            "sourceChordNote": 0,
            "sourceChordType": "Maj7",
            "ctb2Low": null,
            "ctb2Main": {
              "ntr": "ROOT_TRANSPOSITION",
              "ntt": "MELODY",
              "bassOn": false,
              "chordRootUpperLimit": 10,
              "noteLowLimit": 0,
              "noteHighLimit": 127,
              "rtr": "PITCH_SHIFT"
            },
            "ctb2High": null
          },
          "notes": [
            {
              "pitch": 60,
              "velocity": 45,
              "position": 0.5,
              "duration": 0.2520833333333333
            },
            {
              "pitch": 60,
              "velocity": 46,
              "position": 1.5,
              "duration": 0.21041666666666667
            },
            {
              "pitch": 60,
              "velocity": 39,
              "position": 2.5,
              "duration": 0.3020833333333333
            },
            {
              "pitch": 60,
              "velocity": 47,
              "position": 3,
              "duration": 0.22916666666666666
            },
            {
              "pitch": 60,
              "velocity": 49,
              "position": 3.5,
              "duration": 0.2520833333333333
            },
            {
              "pitch": 60,
              "velocity": 50,
              "position": 4.5,
              "duration": 0.23125
            },
            {
              "pitch": 60,
              "velocity": 50,
              "position": 5.5,
              "duration": 0.21041666666666667
            },
            {
              "pitch": 60,
              "velocity": 47,
              "position": 6.5,
              "duration": 0.3020833333333333
            },
            {
              "pitch": 60,
              "velocity": 49,
              "position": 7,
              "duration": 0.25416666666666665
            },
            {
              "pitch": 60,
              "velocity": 48,
              "position": 7.5,
              "duration": 0.2708333333333333
            },
            {
              "pitch": 60,
              "velocity": 51,
              "position": 8.5,
              "duration": 0.29583333333333334
            },
            {
              "pitch": 60,
              "velocity": 51,
              "position": 9.5,
              "duration": 0.3020833333333333
            },
            {
              "pitch": 60,
              "velocity": 39,
              "position": 10.5,
              "duration": 0.3229166666666667
            },
            {
              "pitch": 60,
              "velocity": 39,
              "position": 11,
              "duration": 0.21875
            },
            {
              "pitch": 60,
              "velocity": 48,
              "position": 11.5,
              "duration": 0.2708333333333333
            },
            {
              "pitch": 60,
              "velocity": 49,
              "position": 12.5,
              "duration": 0.3020833333333333
            },
            {
              "pitch": 60,
              "velocity": 48,
              "position": 13.5,
              "duration": 0.2625
            },
            {
              "pitch": 60,
              "velocity": 45,
              "position": 14.5,
              "duration": 0.28125
            },
            {
              "pitch": 60,
              "velocity": 48,
              "position": 15,
              "duration": 0.25
            },
            {
              "pitch": 60,
              "velocity": 59,
              "position": 15.5,
              "duration": 0.2604166666666667
            }
          ]
        },
        "5": {
          "ctab": {
            "srcChannel": 5,
            "name": "Str Root",
            "accType": "PAD",
            "editable": false,
            "mutedNotes": [],
            "mutedChords": [
              "1+2+5",
              "sus4",
              "1+5",
              "1+8",
              "Maj7aug",
              "dim",
              "minMaj7(9)",
              "minMaj7",
              "min6",
              "min",
              "aug",
              "Maj7(9)",
              "Maj7#11",
              "Maj7",
              "Maj6",
              "Maj"
            ],
            "autoStart": false,
            "sourceChordNote": 0,
            "sourceChordType": "Maj7",
            "ctb2Low": null,
            "ctb2Main": {
              "ntr": "ROOT_TRANSPOSITION",
              "ntt": "MELODY",
              "bassOn": false,
              "chordRootUpperLimit": 6,
              "noteLowLimit": 0,
              "noteHighLimit": 127,
              "rtr": "PITCH_SHIFT"
            },
            "ctb2High": null
          },
          "notes": [
            {
              "pitch": 60,
              "velocity": 30,
              "position": 0,
              "duration": 15.979166666666666
            }
          ]
        },
        "8": {
          "ctab": {
            "srcChannel": 8,
            "name": "Perc",
            "accType": "SUBRHYTHM",
            "editable": false,
            "mutedNotes": [],
            "mutedChords": [],
            "autoStart": true,
            "sourceChordNote": 0,
            "sourceChordType": "Maj7",
            "ctb2Low": null,
            "ctb2Main": {
              "ntr": "ROOT_FIXED",
              "ntt": "BYPASS",
              "bassOn": false,
              "chordRootUpperLimit": 6,
              "noteLowLimit": 0,
              "noteHighLimit": 127,
              "rtr": "PITCH_SHIFT"
            },
            "ctb2High": null
          },
          "notes": [
            {
              "pitch": 42,
              "velocity": 54,
              "position": 0,
              "duration": 0.010416666666666666
            },
            {
              "pitch": 54,
              "velocity": 54,
              "position": 0,
              "duration": 0.010416666666666666
            },
            {
              "pitch": 69,
              "velocity": 53,
              "position": 0,
              "duration": 0.010416666666666666
            },
            {
              "pitch": 81,
              "velocity": 26,
              "position": 0,
              "duration": 0.010416666666666666
            },
            {
              "pitch": 82,
              "velocity": 70,
              "position": 0,
              "duration": 0.010416666666666666
            },
            {
              "pitch": 42,
              "velocity": 44,
              "position": 0.5,
              "duration": 0.010416666666666666
            },
            {
              "pitch": 54,
              "velocity": 52,
              "position": 0.5,
              "duration": 0.010416666666666666
            },
            {
              "pitch": 69,
              "velocity": 53,
              "position": 0.5,
              "duration": 0.010416666666666666
            },
            {
              "pitch": 82,
              "velocity": 70,
              "position": 0.5,
              "duration": 0.010416666666666666
            },
            {
              "pitch": 80,
              "velocity": 40,
              "position": 0.7916666666666666,
              "duration": 0.010416666666666666
            },
            {
              "pitch": 42,
              "velocity": 63,
              "position": 1,
              "duration": 0.010416666666666666
            },
            {
              "pitch": 54,
              "velocity": 61,
              "position": 1,
              "duration": 0.010416666666666666
            },
            {
              "pitch": 82,
              "velocity": 70,
              "position": 1,
              "duration": 0.010416666666666666
            },
            {
              "pitch": 54,
              "velocity": 49,
              "position": 1.5,
              "duration": 0.010416666666666666
            },
            {
              "pitch": 82,
              "velocity": 70,
              "position": 1.5,
              "duration": 0.010416666666666666
            },
            {
              "pitch": 54,
              "velocity": 57,
              "position": 2,
              "duration": 0.010416666666666666
            },
            {
              "pitch": 82,
              "velocity": 70,
              "position": 2,
              "duration": 0.010416666666666666
            },
            {
              "pitch": 54,
              "velocity": 44,
              "position": 2.5,
              "duration": 0.010416666666666666
            },
            {
              "pitch": 82,
              "velocity": 70,
              "position": 2.5,
              "duration": 0.010416666666666666
            },
            {
              "pitch": 42,
              "velocity": 55,
              "position": 3,
              "duration": 0.010416666666666666
            },
            {
              "pitch": 54,
              "velocity": 58,
              "position": 3,
              "duration": 0.010416666666666666
            },
            {
              "pitch": 69,
              "velocity": 51,
              "position": 3,
              "duration": 0.010416666666666666
            },
            {
              "pitch": 82,
              "velocity": 70,
              "position": 3,
              "duration": 0.010416666666666666
            },
            {
              "pitch": 81,
              "velocity": 26,
              "position": 3.2916666666666665,
              "duration": 0.010416666666666666
            },
            {
              "pitch": 42,
              "velocity": 57,
              "position": 3.5,
              "duration": 0.010416666666666666
            },
            {
              "pitch": 54,
              "velocity": 45,
              "position": 3.5,
              "duration": 0.010416666666666666
            },
            {
              "pitch": 69,
              "velocity": 49,
              "position": 3.5,
              "duration": 0.010416666666666666
            },
            {
              "pitch": 80,
              "velocity": 40,
              "position": 3.5,
              "duration": 0.010416666666666666
            },
            {
              "pitch": 82,
              "velocity": 70,
              "position": 3.5,
              "duration": 0.010416666666666666
            },
            {
              "pitch": 42,
              "velocity": 57,
              "position": 3.7916666666666665,
              "duration": 0.010416666666666666
            },
            {
              "pitch": 69,
              "velocity": 50,
              "position": 3.7916666666666665,
              "duration": 0.010416666666666666
            },
            {
              "pitch": 80,
              "velocity": 40,
              "position": 3.7916666666666665,
              "duration": 0.010416666666666666
            },
            {
              "pitch": 42,
              "velocity": 71,
              "position": 4,
              "duration": 0.010416666666666666
            },
            {
              "pitch": 54,
              "velocity": 57,
              "position": 4,
              "duration": 0.010416666666666666
            },
            {
              "pitch": 69,
              "velocity": 53,
              "position": 4,
              "duration": 0.010416666666666666
            },
            {
              "pitch": 81,
              "velocity": 26,
              "position": 4,
              "duration": 0.010416666666666666
            },
            {
              "pitch": 82,
              "velocity": 70,
              "position": 4,
              "duration": 0.010416666666666666
            },
            {
              "pitch": 42,
              "velocity": 46,
              "position": 4.5,
              "duration": 0.010416666666666666
            },
            {
              "pitch": 54,
              "velocity": 46,
              "position": 4.5,
              "duration": 0.010416666666666666
            },
            {
              "pitch": 69,
              "velocity": 53,
              "position": 4.5,
              "duration": 0.010416666666666666
            },
            {
              "pitch": 82,
              "velocity": 70,
              "position": 4.5,
              "duration": 0.010416666666666666
            },
            {
              "pitch": 42,
              "velocity": 31,
              "position": 4.791666666666667,
              "duration": 0.010416666666666666
            },
            {
              "pitch": 80,
              "velocity": 40,
              "position": 4.791666666666667,
              "duration": 0.010416666666666666
            },
            {
              "pitch": 42,
              "velocity": 54,
              "position": 5,
              "duration": 0.010416666666666666
            },
            {
              "pitch": 54,
              "velocity": 58,
              "position": 5,
              "duration": 0.010416666666666666
            },
            {
              "pitch": 82,
              "velocity": 70,
              "position": 5,
              "duration": 0.010416666666666666
            },
            {
              "pitch": 54,
              "velocity": 50,
              "position": 5.5,
              "duration": 0.010416666666666666
            },
            {
              "pitch": 82,
              "velocity": 70,
              "position": 5.5,
              "duration": 0.010416666666666666
            },
            {
              "pitch": 54,
              "velocity": 51,
              "position": 6,
              "duration": 0.010416666666666666
            },
            {
              "pitch": 82,
              "velocity": 70,
              "position": 6,
              "duration": 0.010416666666666666
            },
            {
              "pitch": 54,
              "velocity": 43,
              "position": 6.5,
              "duration": 0.010416666666666666
            },
            {
              "pitch": 82,
              "velocity": 70,
              "position": 6.5,
              "duration": 0.010416666666666666
            },
            {
              "pitch": 42,
              "velocity": 40,
              "position": 6.791666666666667,
              "duration": 0.010416666666666666
            },
            {
              "pitch": 42,
              "velocity": 37,
              "position": 7,
              "duration": 0.010416666666666666
            },
            {
              "pitch": 54,
              "velocity": 57,
              "position": 7,
              "duration": 0.010416666666666666
            },
            {
              "pitch": 69,
              "velocity": 47,
              "position": 7,
              "duration": 0.010416666666666666
            },
            {
              "pitch": 82,
              "velocity": 70,
              "position": 7,
              "duration": 0.010416666666666666
            },
            {
              "pitch": 42,
              "velocity": 30,
              "position": 7.291666666666667,
              "duration": 0.010416666666666666
            },
            {
              "pitch": 46,
              "velocity": 47,
              "position": 7.5,
              "duration": 0.010416666666666666
            },
            {
              "pitch": 54,
              "velocity": 47,
              "position": 7.5,
              "duration": 0.010416666666666666
            },
            {
              "pitch": 69,
              "velocity": 46,
              "position": 7.5,
              "duration": 0.010416666666666666
            },
            {
              "pitch": 82,
              "velocity": 70,
              "position": 7.5,
              "duration": 0.010416666666666666
            },
            {
              "pitch": 69,
              "velocity": 53,
              "position": 7.791666666666667,
              "duration": 0.010416666666666666
            },
            {
              "pitch": 42,
              "velocity": 54,
              "position": 8,
              "duration": 0.010416666666666666
            },
            {
              "pitch": 54,
              "velocity": 57,
              "position": 8,
              "duration": 0.010416666666666666
            },
            {
              "pitch": 69,
              "velocity": 53,
              "position": 8,
              "duration": 0.010416666666666666
            },
            {
              "pitch": 81,
              "velocity": 26,
              "position": 8,
              "duration": 0.010416666666666666
            },
            {
              "pitch": 82,
              "velocity": 70,
              "position": 8,
              "duration": 0.010416666666666666
            },
            {
              "pitch": 42,
              "velocity": 44,
              "position": 8.5,
              "duration": 0.010416666666666666
            },
            {
              "pitch": 54,
              "velocity": 47,
              "position": 8.5,
              "duration": 0.010416666666666666
            },
            {
              "pitch": 69,
              "velocity": 53,
              "position": 8.5,
              "duration": 0.010416666666666666
            },
            {
              "pitch": 82,
              "velocity": 70,
              "position": 8.5,
              "duration": 0.010416666666666666
            },
            {
              "pitch": 80,
              "velocity": 40,
              "position": 8.791666666666666,
              "duration": 0.010416666666666666
            },
            {
              "pitch": 42,
              "velocity": 63,
              "position": 9,
              "duration": 0.010416666666666666
            },
            {
              "pitch": 54,
              "velocity": 54,
              "position": 9,
              "duration": 0.010416666666666666
            },
            {
              "pitch": 82,
              "velocity": 70,
              "position": 9,
              "duration": 0.010416666666666666
            },
            {
              "pitch": 54,
              "velocity": 43,
              "position": 9.5,
              "duration": 0.010416666666666666
            },
            {
              "pitch": 82,
              "velocity": 70,
              "position": 9.5,
              "duration": 0.010416666666666666
            },
            {
              "pitch": 54,
              "velocity": 54,
              "position": 10,
              "duration": 0.010416666666666666
            },
            {
              "pitch": 82,
              "velocity": 70,
              "position": 10,
              "duration": 0.010416666666666666
            },
            {
              "pitch": 54,
              "velocity": 54,
              "position": 10.5,
              "duration": 0.010416666666666666
            },
            {
              "pitch": 82,
              "velocity": 70,
              "position": 10.5,
              "duration": 0.010416666666666666
            },
            {
              "pitch": 42,
              "velocity": 55,
              "position": 11,
              "duration": 0.010416666666666666
            },
            {
              "pitch": 54,
              "velocity": 58,
              "position": 11,
              "duration": 0.010416666666666666
            },
            {
              "pitch": 69,
              "velocity": 51,
              "position": 11,
              "duration": 0.010416666666666666
            },
            {
              "pitch": 82,
              "velocity": 70,
              "position": 11,
              "duration": 0.010416666666666666
            },
            {
              "pitch": 81,
              "velocity": 26,
              "position": 11.291666666666666,
              "duration": 0.010416666666666666
            },
            {
              "pitch": 42,
              "velocity": 57,
              "position": 11.5,
              "duration": 0.010416666666666666
            },
            {
              "pitch": 54,
              "velocity": 54,
              "position": 11.5,
              "duration": 0.010416666666666666
            },
            {
              "pitch": 69,
              "velocity": 49,
              "position": 11.5,
              "duration": 0.010416666666666666
            },
            {
              "pitch": 80,
              "velocity": 40,
              "position": 11.5,
              "duration": 0.010416666666666666
            },
            {
              "pitch": 82,
              "velocity": 70,
              "position": 11.5,
              "duration": 0.010416666666666666
            },
            {
              "pitch": 42,
              "velocity": 57,
              "position": 11.791666666666666,
              "duration": 0.010416666666666666
            },
            {
              "pitch": 69,
              "velocity": 50,
              "position": 11.791666666666666,
              "duration": 0.010416666666666666
            },
            {
              "pitch": 80,
              "velocity": 40,
              "position": 11.791666666666666,
              "duration": 0.010416666666666666
            },
            {
              "pitch": 42,
              "velocity": 71,
              "position": 12,
              "duration": 0.010416666666666666
            },
            {
              "pitch": 54,
              "velocity": 50,
              "position": 12,
              "duration": 0.010416666666666666
            },
            {
              "pitch": 81,
              "velocity": 26,
              "position": 12,
              "duration": 0.010416666666666666
            },
            {
              "pitch": 82,
              "velocity": 70,
              "position": 12,
              "duration": 0.010416666666666666
            },
            {
              "pitch": 42,
              "velocity": 46,
              "position": 12.5,
              "duration": 0.010416666666666666
            },
            {
              "pitch": 54,
              "velocity": 48,
              "position": 12.5,
              "duration": 0.010416666666666666
            },
            {
              "pitch": 69,
              "velocity": 42,
              "position": 12.5,
              "duration": 0.010416666666666666
            },
            {
              "pitch": 82,
              "velocity": 70,
              "position": 12.5,
              "duration": 0.010416666666666666
            },
            {
              "pitch": 42,
              "velocity": 31,
              "position": 12.791666666666666,
              "duration": 0.010416666666666666
            },
            {
              "pitch": 80,
              "velocity": 40,
              "position": 12.791666666666666,
              "duration": 0.010416666666666666
            },
            {
              "pitch": 42,
              "velocity": 54,
              "position": 13,
              "duration": 0.010416666666666666
            },
            {
              "pitch": 54,
              "velocity": 58,
              "position": 13,
              "duration": 0.010416666666666666
            },
            {
              "pitch": 82,
              "velocity": 70,
              "position": 13,
              "duration": 0.010416666666666666
            },
            {
              "pitch": 54,
              "velocity": 47,
              "position": 13.5,
              "duration": 0.010416666666666666
            },
            {
              "pitch": 69,
              "velocity": 46,
              "position": 13.5,
              "duration": 0.010416666666666666
            },
            {
              "pitch": 82,
              "velocity": 70,
              "position": 13.5,
              "duration": 0.010416666666666666
            },
            {
              "pitch": 54,
              "velocity": 57,
              "position": 14,
              "duration": 0.010416666666666666
            },
            {
              "pitch": 82,
              "velocity": 70,
              "position": 14,
              "duration": 0.010416666666666666
            },
            {
              "pitch": 54,
              "velocity": 46,
              "position": 14.5,
              "duration": 0.010416666666666666
            },
            {
              "pitch": 82,
              "velocity": 70,
              "position": 14.5,
              "duration": 0.010416666666666666
            },
            {
              "pitch": 42,
              "velocity": 40,
              "position": 14.791666666666666,
              "duration": 0.010416666666666666
            },
            {
              "pitch": 42,
              "velocity": 37,
              "position": 15,
              "duration": 0.010416666666666666
            },
            {
              "pitch": 54,
              "velocity": 57,
              "position": 15,
              "duration": 0.010416666666666666
            },
            {
              "pitch": 69,
              "velocity": 47,
              "position": 15,
              "duration": 0.010416666666666666
            },
            {
              "pitch": 82,
              "velocity": 70,
              "position": 15,
              "duration": 0.010416666666666666
            },
            {
              "pitch": 42,
              "velocity": 30,
              "position": 15.291666666666666,
              "duration": 0.010416666666666666
            },
            {
              "pitch": 46,
              "velocity": 47,
              "position": 15.5,
              "duration": 0.010416666666666666
            },
            {
              "pitch": 54,
              "velocity": 50,
              "position": 15.5,
              "duration": 0.010416666666666666
            },
            {
              "pitch": 69,
              "velocity": 46,
              "position": 15.5,
              "duration": 0.010416666666666666
            },
            {
              "pitch": 82,
              "velocity": 70,
              "position": 15.5,
              "duration": 0.010416666666666666
            },
            {
              "pitch": 69,
              "velocity": 53,
              "position": 15.791666666666666,
              "duration": 0.010416666666666666
            }
          ]
        },
        "9": {
          "ctab": {
            "srcChannel": 9,
            "name": "Drums",
            "accType": "RHYTHM",
            "editable": false,
            "mutedNotes": [],
            "mutedChords": [],
            "autoStart": true,
            "sourceChordNote": 0,
            "sourceChordType": "Maj7",
            "ctb2Low": null,
            "ctb2Main": {
              "ntr": "ROOT_FIXED",
              "ntt": "BYPASS",
              "bassOn": false,
              "chordRootUpperLimit": 6,
              "noteLowLimit": 0,
              "noteHighLimit": 127,
              "rtr": "PITCH_SHIFT"
            },
            "ctb2High": null
          },
          "notes": [
            {
              "pitch": 36,
              "velocity": 76,
              "position": 0,
              "duration": 0.010416666666666666
            },
            {
              "pitch": 44,
              "velocity": 63,
              "position": 0,
              "duration": 0.010416666666666666
            },
            {
              "pitch": 44,
              "velocity": 53,
              "position": 0.7916666666666666,
              "duration": 0.010416666666666666
            },
            {
              "pitch": 34,
              "velocity": 60,
              "position": 1,
              "duration": 0.010416666666666666
            },
            {
              "pitch": 39,
              "velocity": 72,
              "position": 1,
              "duration": 0.010416666666666666
            },
            {
              "pitch": 36,
              "velocity": 53,
              "position": 1.7916666666666667,
              "duration": 0.010416666666666666
            },
            {
              "pitch": 36,
              "velocity": 79,
              "position": 2,
              "duration": 0.010416666666666666
            },
            {
              "pitch": 79,
              "velocity": 30,
              "position": 1.7916666666666667,
              "duration": 0.23958333333333334
            },
            {
              "pitch": 78,
              "velocity": 35,
              "position": 2,
              "duration": 0.23958333333333334
            },
            {
              "pitch": 42,
              "velocity": 55,
              "position": 2.5,
              "duration": 0.010416666666666666
            },
            {
              "pitch": 79,
              "velocity": 48,
              "position": 2.2916666666666665,
              "duration": 0.23958333333333334
            },
            {
              "pitch": 78,
              "velocity": 35,
              "position": 2.5,
              "duration": 0.23958333333333334
            },
            {
              "pitch": 34,
              "velocity": 60,
              "position": 3,
              "duration": 0.010416666666666666
            },
            {
              "pitch": 39,
              "velocity": 72,
              "position": 3,
              "duration": 0.010416666666666666
            },
            {
              "pitch": 42,
              "velocity": 55,
              "position": 3.2916666666666665,
              "duration": 0.010416666666666666
            },
            {
              "pitch": 36,
              "velocity": 71,
              "position": 4,
              "duration": 0.010416666666666666
            },
            {
              "pitch": 44,
              "velocity": 54,
              "position": 4,
              "duration": 0.010416666666666666
            },
            {
              "pitch": 44,
              "velocity": 54,
              "position": 4.791666666666667,
              "duration": 0.010416666666666666
            },
            {
              "pitch": 34,
              "velocity": 60,
              "position": 5,
              "duration": 0.010416666666666666
            },
            {
              "pitch": 39,
              "velocity": 72,
              "position": 5,
              "duration": 0.010416666666666666
            },
            {
              "pitch": 36,
              "velocity": 45,
              "position": 5.791666666666667,
              "duration": 0.010416666666666666
            },
            {
              "pitch": 36,
              "velocity": 80,
              "position": 6,
              "duration": 0.010416666666666666
            },
            {
              "pitch": 79,
              "velocity": 47,
              "position": 5.791666666666667,
              "duration": 0.23958333333333334
            },
            {
              "pitch": 78,
              "velocity": 35,
              "position": 6,
              "duration": 0.23958333333333334
            },
            {
              "pitch": 42,
              "velocity": 54,
              "position": 6.5,
              "duration": 0.010416666666666666
            },
            {
              "pitch": 79,
              "velocity": 46,
              "position": 6.291666666666667,
              "duration": 0.23958333333333334
            },
            {
              "pitch": 78,
              "velocity": 35,
              "position": 6.5,
              "duration": 0.23958333333333334
            },
            {
              "pitch": 34,
              "velocity": 60,
              "position": 7,
              "duration": 0.010416666666666666
            },
            {
              "pitch": 39,
              "velocity": 72,
              "position": 7,
              "duration": 0.010416666666666666
            },
            {
              "pitch": 42,
              "velocity": 57,
              "position": 7.291666666666667,
              "duration": 0.010416666666666666
            },
            {
              "pitch": 36,
              "velocity": 79,
              "position": 8,
              "duration": 0.010416666666666666
            },
            {
              "pitch": 44,
              "velocity": 63,
              "position": 8,
              "duration": 0.010416666666666666
            },
            {
              "pitch": 44,
              "velocity": 53,
              "position": 8.791666666666666,
              "duration": 0.010416666666666666
            },
            {
              "pitch": 34,
              "velocity": 60,
              "position": 9,
              "duration": 0.010416666666666666
            },
            {
              "pitch": 39,
              "velocity": 72,
              "position": 9,
              "duration": 0.010416666666666666
            },
            {
              "pitch": 36,
              "velocity": 54,
              "position": 9.791666666666666,
              "duration": 0.010416666666666666
            },
            {
              "pitch": 36,
              "velocity": 76,
              "position": 10,
              "duration": 0.010416666666666666
            },
            {
              "pitch": 79,
              "velocity": 30,
              "position": 9.791666666666666,
              "duration": 0.23958333333333334
            },
            {
              "pitch": 78,
              "velocity": 35,
              "position": 10,
              "duration": 0.23958333333333334
            },
            {
              "pitch": 42,
              "velocity": 55,
              "position": 10.5,
              "duration": 0.010416666666666666
            },
            {
              "pitch": 79,
              "velocity": 48,
              "position": 10.291666666666666,
              "duration": 0.23958333333333334
            },
            {
              "pitch": 78,
              "velocity": 35,
              "position": 10.5,
              "duration": 0.23958333333333334
            },
            {
              "pitch": 34,
              "velocity": 60,
              "position": 11,
              "duration": 0.010416666666666666
            },
            {
              "pitch": 39,
              "velocity": 72,
              "position": 11,
              "duration": 0.010416666666666666
            },
            {
              "pitch": 42,
              "velocity": 55,
              "position": 11.291666666666666,
              "duration": 0.010416666666666666
            },
            {
              "pitch": 36,
              "velocity": 76,
              "position": 12,
              "duration": 0.010416666666666666
            },
            {
              "pitch": 44,
              "velocity": 54,
              "position": 12,
              "duration": 0.010416666666666666
            },
            {
              "pitch": 44,
              "velocity": 54,
              "position": 12.791666666666666,
              "duration": 0.010416666666666666
            },
            {
              "pitch": 34,
              "velocity": 60,
              "position": 13,
              "duration": 0.010416666666666666
            },
            {
              "pitch": 39,
              "velocity": 72,
              "position": 13,
              "duration": 0.010416666666666666
            },
            {
              "pitch": 36,
              "velocity": 38,
              "position": 13.791666666666666,
              "duration": 0.010416666666666666
            },
            {
              "pitch": 36,
              "velocity": 79,
              "position": 14,
              "duration": 0.010416666666666666
            },
            {
              "pitch": 79,
              "velocity": 47,
              "position": 13.791666666666666,
              "duration": 0.23958333333333334
            },
            {
              "pitch": 78,
              "velocity": 35,
              "position": 14,
              "duration": 0.23958333333333334
            },
            {
              "pitch": 42,
              "velocity": 54,
              "position": 14.5,
              "duration": 0.010416666666666666
            },
            {
              "pitch": 79,
              "velocity": 46,
              "position": 14.291666666666666,
              "duration": 0.23958333333333334
            },
            {
              "pitch": 78,
              "velocity": 35,
              "position": 14.5,
              "duration": 0.23958333333333334
            },
            {
              "pitch": 34,
              "velocity": 60,
              "position": 15,
              "duration": 0.010416666666666666
            },
            {
              "pitch": 39,
              "velocity": 72,
              "position": 15,
              "duration": 0.010416666666666666
            },
            {
              "pitch": 42,
              "velocity": 57,
              "position": 15.291666666666666,
              "duration": 0.010416666666666666
            }
          ]
        },
        "10": {
          "ctab": {
            "srcChannel": 10,
            "name": "Bass",
            "accType": "BASS",
            "editable": false,
            "mutedNotes": [],
            "mutedChords": [],
            "autoStart": false,
            "sourceChordNote": 0,
            "sourceChordType": "Maj7",
            "ctb2Low": null,
            "ctb2Main": {
              "ntr": "ROOT_TRANSPOSITION",
              "ntt": "MELODY",
              "bassOn": true,
              "chordRootUpperLimit": 3,
              "noteLowLimit": 28,
              "noteHighLimit": 127,
              "rtr": "PITCH_SHIFT_TO_ROOT"
            },
            "ctb2High": null
          },
          "notes": [
            {
              "pitch": 24,
              "velocity": 95,
              "position": 0,
              "duration": 0.4791666666666667
            },
            {
              "pitch": 24,
              "velocity": 95,
              "position": 1.5,
              "duration": 0.3541666666666667
            },
            {
              "pitch": 24,
              "velocity": 95,
              "position": 2,
              "duration": 0.35833333333333334
            },
            {
              "pitch": 31,
              "velocity": 95,
              "position": 3,
              "duration": 0.34375
            },
            {
              "pitch": 31,
              "velocity": 95,
              "position": 3.5,
              "duration": 0.3541666666666667
            },
            {
              "pitch": 24,
              "velocity": 95,
              "position": 4,
              "duration": 0.4
            },
            {
              "pitch": 24,
              "velocity": 95,
              "position": 5.5,
              "duration": 0.36666666666666664
            },
            {
              "pitch": 24,
              "velocity": 95,
              "position": 6,
              "duration": 0.3458333333333333
            },
            {
              "pitch": 31,
              "velocity": 95,
              "position": 7,
              "duration": 0.3229166666666667
            },
            {
              "pitch": 31,
              "velocity": 95,
              "position": 7.5,
              "duration": 0.33541666666666664
            },
            {
              "pitch": 24,
              "velocity": 95,
              "position": 8,
              "duration": 0.34375
            },
            {
              "pitch": 24,
              "velocity": 95,
              "position": 9.5,
              "duration": 0.3458333333333333
            },
            {
              "pitch": 24,
              "velocity": 95,
              "position": 10,
              "duration": 0.34375
            },
            {
              "pitch": 31,
              "velocity": 95,
              "position": 11,
              "duration": 0.2604166666666667
            },
            {
              "pitch": 31,
              "velocity": 95,
              "position": 11.5,
              "duration": 0.2125
            },
            {
              "pitch": 24,
              "velocity": 95,
              "position": 12,
              "duration": 0.34375
            },
            {
              "pitch": 24,
              "velocity": 95,
              "position": 13.5,
              "duration": 0.3458333333333333
            },
            {
              "pitch": 24,
              "velocity": 95,
              "position": 14,
              "duration": 0.34375
            },
            {
              "pitch": 31,
              "velocity": 95,
              "position": 15,
              "duration": 0.2604166666666667
            },
            {
              "pitch": 31,
              "velocity": 95,
              "position": 15.5,
              "duration": 0.2125
            }
          ]
        },
        "11": {
          "ctab": {
            "srcChannel": 11,
            "name": "Ep",
            "accType": "CHORD1",
            "editable": false,
            "mutedNotes": [],
            "mutedChords": [],
            "autoStart": false,
            "sourceChordNote": 0,
            "sourceChordType": "Maj7",
            "ctb2Low": null,
            "ctb2Main": {
              "ntr": "ROOT_FIXED",
              "ntt": "CHORD",
              "bassOn": false,
              "chordRootUpperLimit": 4,
              "noteLowLimit": 0,
              "noteHighLimit": 127,
              "rtr": "PITCH_SHIFT"
            },
            "ctb2High": null
          },
          "notes": [
            {
              "pitch": 59,
              "velocity": 45,
              "position": 0.5,
              "duration": 0.2520833333333333
            },
            {
              "pitch": 64,
              "velocity": 48,
              "position": 0.5,
              "duration": 0.28125
            },
            {
              "pitch": 67,
              "velocity": 47,
              "position": 0.5,
              "duration": 0.28125
            },
            {
              "pitch": 59,
              "velocity": 46,
              "position": 1.5,
              "duration": 0.21041666666666667
            },
            {
              "pitch": 64,
              "velocity": 49,
              "position": 1.5,
              "duration": 0.22916666666666666
            },
            {
              "pitch": 67,
              "velocity": 52,
              "position": 1.5,
              "duration": 0.25416666666666665
            },
            {
              "pitch": 59,
              "velocity": 39,
              "position": 2.5,
              "duration": 0.3020833333333333
            },
            {
              "pitch": 64,
              "velocity": 38,
              "position": 2.5,
              "duration": 0.34375
            },
            {
              "pitch": 67,
              "velocity": 44,
              "position": 2.5,
              "duration": 0.3854166666666667
            },
            {
              "pitch": 59,
              "velocity": 47,
              "position": 3,
              "duration": 0.22916666666666666
            },
            {
              "pitch": 64,
              "velocity": 54,
              "position": 3,
              "duration": 0.22916666666666666
            },
            {
              "pitch": 67,
              "velocity": 57,
              "position": 3,
              "duration": 0.28541666666666665
            },
            {
              "pitch": 59,
              "velocity": 49,
              "position": 3.5,
              "duration": 0.2520833333333333
            },
            {
              "pitch": 64,
              "velocity": 55,
              "position": 3.5,
              "duration": 0.28125
            },
            {
              "pitch": 67,
              "velocity": 58,
              "position": 3.5,
              "duration": 0.30625
            },
            {
              "pitch": 59,
              "velocity": 50,
              "position": 4.5,
              "duration": 0.23125
            },
            {
              "pitch": 64,
              "velocity": 55,
              "position": 4.5,
              "duration": 0.28541666666666665
            },
            {
              "pitch": 67,
              "velocity": 55,
              "position": 4.5,
              "duration": 0.29583333333333334
            },
            {
              "pitch": 59,
              "velocity": 50,
              "position": 5.5,
              "duration": 0.21041666666666667
            },
            {
              "pitch": 64,
              "velocity": 52,
              "position": 5.5,
              "duration": 0.2708333333333333
            },
            {
              "pitch": 67,
              "velocity": 54,
              "position": 5.5,
              "duration": 0.28125
            },
            {
              "pitch": 59,
              "velocity": 47,
              "position": 6.5,
              "duration": 0.3020833333333333
            },
            {
              "pitch": 64,
              "velocity": 45,
              "position": 6.5,
              "duration": 0.34375
            },
            {
              "pitch": 67,
              "velocity": 48,
              "position": 6.5,
              "duration": 0.375
            },
            {
              "pitch": 59,
              "velocity": 49,
              "position": 7,
              "duration": 0.25416666666666665
            },
            {
              "pitch": 64,
              "velocity": 45,
              "position": 7,
              "duration": 0.28541666666666665
            },
            {
              "pitch": 67,
              "velocity": 57,
              "position": 7,
              "duration": 0.3020833333333333
            },
            {
              "pitch": 59,
              "velocity": 48,
              "position": 7.5,
              "duration": 0.2708333333333333
            },
            {
              "pitch": 64,
              "velocity": 50,
              "position": 7.5,
              "duration": 0.28125
            },
            {
              "pitch": 67,
              "velocity": 52,
              "position": 7.5,
              "duration": 0.30625
            },
            {
              "pitch": 59,
              "velocity": 51,
              "position": 8.5,
              "duration": 0.29583333333333334
            },
            {
              "pitch": 64,
              "velocity": 52,
              "position": 8.5,
              "duration": 0.3125
            },
            {
              "pitch": 67,
              "velocity": 54,
              "position": 8.5,
              "duration": 0.3229166666666667
            },
            {
              "pitch": 59,
              "velocity": 51,
              "position": 9.5,
              "duration": 0.3020833333333333
            },
            {
              "pitch": 64,
              "velocity": 49,
              "position": 9.5,
              "duration": 0.325
            },
            {
              "pitch": 67,
              "velocity": 49,
              "position": 9.5,
              "duration": 0.33541666666666664
            },
            {
              "pitch": 59,
              "velocity": 39,
              "position": 10.5,
              "duration": 0.3229166666666667
            },
            {
              "pitch": 64,
              "velocity": 40,
              "position": 10.5,
              "duration": 0.3333333333333333
            },
            {
              "pitch": 67,
              "velocity": 40,
              "position": 10.5,
              "duration": 0.3458333333333333
            },
            {
              "pitch": 59,
              "velocity": 39,
              "position": 11,
              "duration": 0.21875
            },
            {
              "pitch": 64,
              "velocity": 49,
              "position": 11,
              "duration": 0.2604166666666667
            },
            {
              "pitch": 67,
              "velocity": 51,
              "position": 11,
              "duration": 0.2833333333333333
            },
            {
              "pitch": 59,
              "velocity": 48,
              "position": 11.5,
              "duration": 0.2708333333333333
            },
            {
              "pitch": 64,
              "velocity": 50,
              "position": 11.5,
              "duration": 0.2708333333333333
            },
            {
              "pitch": 67,
              "velocity": 48,
              "position": 11.5,
              "duration": 0.3020833333333333
            },
            {
              "pitch": 64,
              "velocity": 51,
              "position": 12.5,
              "duration": 0.2916666666666667
            },
            {
              "pitch": 59,
              "velocity": 49,
              "position": 12.5,
              "duration": 0.3020833333333333
            },
            {
              "pitch": 67,
              "velocity": 48,
              "position": 12.5,
              "duration": 0.32708333333333334
            },
            {
              "pitch": 59,
              "velocity": 48,
              "position": 13.5,
              "duration": 0.2625
            },
            {
              "pitch": 64,
              "velocity": 57,
              "position": 13.5,
              "duration": 0.27291666666666664
            },
            {
              "pitch": 67,
              "velocity": 53,
              "position": 13.5,
              "duration": 0.30625
            },
            {
              "pitch": 59,
              "velocity": 45,
              "position": 14.5,
              "duration": 0.28125
            },
            {
              "pitch": 64,
              "velocity": 48,
              "position": 14.5,
              "duration": 0.29583333333333334
            },
            {
              "pitch": 67,
              "velocity": 46,
              "position": 14.5,
              "duration": 0.3333333333333333
            },
            {
              "pitch": 64,
              "velocity": 51,
              "position": 15,
              "duration": 0.24375
            },
            {
              "pitch": 59,
              "velocity": 48,
              "position": 15,
              "duration": 0.25
            },
            {
              "pitch": 67,
              "velocity": 49,
              "position": 15,
              "duration": 0.2708333333333333
            },
            {
              "pitch": 67,
              "velocity": 57,
              "position": 15.5,
              "duration": 0.22291666666666668
            },
            {
              "pitch": 64,
              "velocity": 55,
              "position": 15.5,
              "duration": 0.22916666666666666
            },
            {
              "pitch": 59,
              "velocity": 59,
              "position": 15.5,
              "duration": 0.2604166666666667
            }
          ]
        },
        "12": {
          "ctab": {
            "srcChannel": 12,
            "name": "JzGtr",
            "accType": "CHORD2",
            "editable": false,
            "mutedNotes": [],
            "mutedChords": [],
            "autoStart": false,
            "sourceChordNote": 0,
            "sourceChordType": "Maj7",
            "ctb2Low": null,
            "ctb2Main": {
              "ntr": "ROOT_FIXED",
              "ntt": "CHORD",
              "bassOn": false,
              "chordRootUpperLimit": 7,
              "noteLowLimit": 0,
              "noteHighLimit": 127,
              "rtr": "PITCH_SHIFT"
            },
            "ctb2High": null
          },
          "notes": [
            {
              "pitch": 59,
              "velocity": 33,
              "position": 0,
              "duration": 0.2
            },
            {
              "pitch": 55,
              "velocity": 38,
              "position": 0,
              "duration": 0.22291666666666668
            },
            {
              "pitch": 64,
              "velocity": 40,
              "position": 0,
              "duration": 0.23333333333333334
            },
            {
              "pitch": 59,
              "velocity": 42,
              "position": 0.5,
              "duration": 0.24166666666666667
            },
            {
              "pitch": 55,
              "velocity": 35,
              "position": 0.5,
              "duration": 0.25
            },
            {
              "pitch": 64,
              "velocity": 42,
              "position": 0.5,
              "duration": 0.275
            },
            {
              "pitch": 59,
              "velocity": 36,
              "position": 1.5,
              "duration": 0.25
            },
            {
              "pitch": 55,
              "velocity": 31,
              "position": 1.5,
              "duration": 0.2708333333333333
            },
            {
              "pitch": 64,
              "velocity": 32,
              "position": 1.5,
              "duration": 0.275
            },
            {
              "pitch": 55,
              "velocity": 35,
              "position": 2,
              "duration": 0.25416666666666665
            },
            {
              "pitch": 59,
              "velocity": 31,
              "position": 2,
              "duration": 0.25416666666666665
            },
            {
              "pitch": 64,
              "velocity": 41,
              "position": 2,
              "duration": 0.25416666666666665
            },
            {
              "pitch": 59,
              "velocity": 40,
              "position": 2.7916666666666665,
              "duration": 0.21875
            },
            {
              "pitch": 55,
              "velocity": 37,
              "position": 2.7916666666666665,
              "duration": 0.22916666666666666
            },
            {
              "pitch": 64,
              "velocity": 43,
              "position": 2.7916666666666665,
              "duration": 0.25416666666666665
            },
            {
              "pitch": 55,
              "velocity": 30,
              "position": 3.2916666666666665,
              "duration": 0.17916666666666667
            },
            {
              "pitch": 59,
              "velocity": 43,
              "position": 3.5,
              "duration": 0.41041666666666665
            },
            {
              "pitch": 55,
              "velocity": 30,
              "position": 3.7916666666666665,
              "duration": 0.1375
            },
            {
              "pitch": 59,
              "velocity": 42,
              "position": 4,
              "duration": 0.25
            },
            {
              "pitch": 64,
              "velocity": 40,
              "position": 4,
              "duration": 0.2604166666666667
            },
            {
              "pitch": 55,
              "velocity": 40,
              "position": 4,
              "duration": 0.26458333333333334
            },
            {
              "pitch": 59,
              "velocity": 42,
              "position": 4.5,
              "duration": 0.3020833333333333
            },
            {
              "pitch": 64,
              "velocity": 40,
              "position": 4.5,
              "duration": 0.30416666666666664
            },
            {
              "pitch": 55,
              "velocity": 36,
              "position": 4.5,
              "duration": 0.3125
            },
            {
              "pitch": 55,
              "velocity": 31,
              "position": 5.5,
              "duration": 0.29583333333333334
            },
            {
              "pitch": 59,
              "velocity": 35,
              "position": 5.5,
              "duration": 0.30416666666666664
            },
            {
              "pitch": 64,
              "velocity": 37,
              "position": 5.5,
              "duration": 0.3125
            },
            {
              "pitch": 55,
              "velocity": 40,
              "position": 6,
              "duration": 0.20208333333333334
            },
            {
              "pitch": 59,
              "velocity": 35,
              "position": 6,
              "duration": 0.25
            },
            {
              "pitch": 64,
              "velocity": 40,
              "position": 6,
              "duration": 0.25416666666666665
            },
            {
              "pitch": 55,
              "velocity": 41,
              "position": 6.791666666666667,
              "duration": 0.2520833333333333
            },
            {
              "pitch": 59,
              "velocity": 41,
              "position": 6.791666666666667,
              "duration": 0.2708333333333333
            },
            {
              "pitch": 64,
              "velocity": 43,
              "position": 6.791666666666667,
              "duration": 0.275
            },
            {
              "pitch": 55,
              "velocity": 29,
              "position": 7.291666666666667,
              "duration": 0.17708333333333334
            },
            {
              "pitch": 59,
              "velocity": 40,
              "position": 7.5,
              "duration": 0.3333333333333333
            },
            {
              "pitch": 59,
              "velocity": 32,
              "position": 8,
              "duration": 0.23333333333333334
            },
            {
              "pitch": 55,
              "velocity": 34,
              "position": 8,
              "duration": 0.24166666666666667
            },
            {
              "pitch": 64,
              "velocity": 38,
              "position": 8,
              "duration": 0.2520833333333333
            },
            {
              "pitch": 59,
              "velocity": 43,
              "position": 8.5,
              "duration": 0.2833333333333333
            },
            {
              "pitch": 55,
              "velocity": 39,
              "position": 8.5,
              "duration": 0.3020833333333333
            },
            {
              "pitch": 64,
              "velocity": 43,
              "position": 8.5,
              "duration": 0.3125
            },
            {
              "pitch": 55,
              "velocity": 39,
              "position": 9.5,
              "duration": 0.2604166666666667
            },
            {
              "pitch": 59,
              "velocity": 41,
              "position": 9.5,
              "duration": 0.2604166666666667
            },
            {
              "pitch": 64,
              "velocity": 43,
              "position": 9.5,
              "duration": 0.30416666666666664
            },
            {
              "pitch": 55,
              "velocity": 43,
              "position": 10,
              "duration": 0.23958333333333334
            },
            {
              "pitch": 59,
              "velocity": 36,
              "position": 10,
              "duration": 0.26458333333333334
            },
            {
              "pitch": 64,
              "velocity": 43,
              "position": 10,
              "duration": 0.2708333333333333
            },
            {
              "pitch": 55,
              "velocity": 41,
              "position": 10.791666666666666,
              "duration": 0.20833333333333334
            },
            {
              "pitch": 59,
              "velocity": 39,
              "position": 10.791666666666666,
              "duration": 0.22916666666666666
            },
            {
              "pitch": 64,
              "velocity": 43,
              "position": 10.791666666666666,
              "duration": 0.23958333333333334
            },
            {
              "pitch": 55,
              "velocity": 37,
              "position": 11.291666666666666,
              "duration": 0.19791666666666666
            },
            {
              "pitch": 59,
              "velocity": 43,
              "position": 11.5,
              "duration": 0.3333333333333333
            },
            {
              "pitch": 55,
              "velocity": 35,
              "position": 11.791666666666666,
              "duration": 0.17916666666666667
            },
            {
              "pitch": 55,
              "velocity": 35,
              "position": 12,
              "duration": 0.19791666666666666
            },
            {
              "pitch": 59,
              "velocity": 43,
              "position": 12,
              "duration": 0.23958333333333334
            },
            {
              "pitch": 64,
              "velocity": 43,
              "position": 12,
              "duration": 0.24375
            },
            {
              "pitch": 55,
              "velocity": 43,
              "position": 12.5,
              "duration": 0.2520833333333333
            },
            {
              "pitch": 59,
              "velocity": 43,
              "position": 12.5,
              "duration": 0.2625
            },
            {
              "pitch": 64,
              "velocity": 43,
              "position": 12.5,
              "duration": 0.28125
            },
            {
              "pitch": 55,
              "velocity": 35,
              "position": 13.5,
              "duration": 0.2520833333333333
            },
            {
              "pitch": 59,
              "velocity": 36,
              "position": 13.5,
              "duration": 0.2520833333333333
            },
            {
              "pitch": 64,
              "velocity": 43,
              "position": 13.5,
              "duration": 0.28125
            },
            {
              "pitch": 64,
              "velocity": 43,
              "position": 14,
              "duration": 0.21041666666666667
            },
            {
              "pitch": 55,
              "velocity": 43,
              "position": 14,
              "duration": 0.24375
            },
            {
              "pitch": 59,
              "velocity": 40,
              "position": 14,
              "duration": 0.2625
            },
            {
              "pitch": 55,
              "velocity": 42,
              "position": 14.791666666666666,
              "duration": 0.17916666666666667
            },
            {
              "pitch": 59,
              "velocity": 38,
              "position": 14.791666666666666,
              "duration": 0.22916666666666666
            },
            {
              "pitch": 64,
              "velocity": 43,
              "position": 14.791666666666666,
              "duration": 0.2604166666666667
            },
            {
              "pitch": 55,
              "velocity": 34,
              "position": 15.291666666666666,
              "duration": 0.3229166666666667
            },
            {
              "pitch": 59,
              "velocity": 43,
              "position": 15.5,
              "duration": 0.20833333333333334
            }
          ]
        },
        "13": {
          "ctab": {
            "srcChannel": 13,
            "name": "Strings",
            "accType": "PAD",
            "editable": false,
            "mutedNotes": [],
            "mutedChords": [],
            "autoStart": false,
            "sourceChordNote": 0,
            "sourceChordType": "Maj7",
            "ctb2Low": null,
            "ctb2Main": {
              "ntr": "ROOT_FIXED",
              "ntt": "CHORD",
              "bassOn": false,
              "chordRootUpperLimit": 7,
              "noteLowLimit": 0,
              "noteHighLimit": 127,
              "rtr": "PITCH_SHIFT"
            },
            "ctb2High": null
          },
          "notes": [
            {
              "pitch": 55,
              "velocity": 30,
              "position": 0,
              "duration": 15.979166666666666
            },
            {
              "pitch": 59,
              "velocity": 30,
              "position": 0,
              "duration": 15.979166666666666
            },
            {
              "pitch": 64,
              "velocity": 30,
              "position": 0,
              "duration": 15.979166666666666
            }
          ]
        },
        "14": {
          "ctab": {
            "srcChannel": 14,
            "name": "SteelMsw",
            "accType": "PHRASE1",
            "editable": false,
            "mutedNotes": [],
            "mutedChords": [],
            "autoStart": false,
            "sourceChordNote": 0,
            "sourceChordType": "Maj7",
            "ctb2Low": null,
            "ctb2Main": {
              "ntr": "ROOT_FIXED",
              "ntt": "CHORD",
              "bassOn": false,
              "chordRootUpperLimit": 7,
              "noteLowLimit": 0,
              "noteHighLimit": 127,
              "rtr": "PITCH_SHIFT"
            },
            "ctb2High": null
          },
          "notes": [
            {
              "pitch": 55,
              "velocity": 112,
              "position": 2.75,
              "duration": 0.4895833333333333
            },
            {
              "pitch": 59,
              "velocity": 112,
              "position": 2.75,
              "duration": 0.4895833333333333
            },
            {
              "pitch": 64,
              "velocity": 112,
              "position": 2.75,
              "duration": 0.4895833333333333
            },
            {
              "pitch": 67,
              "velocity": 112,
              "position": 2.75,
              "duration": 0.4895833333333333
            },
            {
              "pitch": 71,
              "velocity": 112,
              "position": 2.75,
              "duration": 0.4895833333333333
            },
            {
              "pitch": 55,
              "velocity": 112,
              "position": 6.75,
              "duration": 0.4895833333333333
            },
            {
              "pitch": 59,
              "velocity": 112,
              "position": 6.75,
              "duration": 0.4895833333333333
            },
            {
              "pitch": 64,
              "velocity": 112,
              "position": 6.75,
              "duration": 0.4895833333333333
            },
            {
              "pitch": 67,
              "velocity": 112,
              "position": 6.75,
              "duration": 0.4895833333333333
            },
            {
              "pitch": 71,
              "velocity": 112,
              "position": 6.75,
              "duration": 0.4895833333333333
            },
            {
              "pitch": 55,
              "velocity": 112,
              "position": 10.75,
              "duration": 0.4895833333333333
            },
            {
              "pitch": 59,
              "velocity": 112,
              "position": 10.75,
              "duration": 0.4895833333333333
            },
            {
              "pitch": 64,
              "velocity": 112,
              "position": 10.75,
              "duration": 0.4895833333333333
            },
            {
              "pitch": 67,
              "velocity": 112,
              "position": 10.75,
              "duration": 0.4895833333333333
            },
            {
              "pitch": 71,
              "velocity": 112,
              "position": 10.75,
              "duration": 0.4895833333333333
            },
            {
              "pitch": 55,
              "velocity": 112,
              "position": 14.75,
              "duration": 0.4895833333333333
            },
            {
              "pitch": 59,
              "velocity": 112,
              "position": 14.75,
              "duration": 0.4895833333333333
            },
            {
              "pitch": 64,
              "velocity": 112,
              "position": 14.75,
              "duration": 0.4895833333333333
            },
            {
              "pitch": 67,
              "velocity": 112,
              "position": 14.75,
              "duration": 0.4895833333333333
            },
            {
              "pitch": 71,
              "velocity": 112,
              "position": 14.75,
              "duration": 0.4895833333333333
            }
          ]
        },
        "15": {
          "ctab": {
            "srcChannel": 15,
            "name": "Flute",
            "accType": "PHRASE2",
            "editable": false,
            "mutedNotes": [],
            "mutedChords": [],
            "autoStart": false,
            "sourceChordNote": 0,
            "sourceChordType": "Maj7",
            "ctb2Low": null,
            "ctb2Main": {
              "ntr": "ROOT_FIXED",
              "ntt": "CHORD",
              "bassOn": false,
              "chordRootUpperLimit": 7,
              "noteLowLimit": 0,
              "noteHighLimit": 127,
              "rtr": "PITCH_SHIFT"
            },
            "ctb2High": null
          },
          "notes": []
        }
      }
    },
    "Main_D": {
      "type": "Main_D",
      "sizeInBeats": 8,
      "channels": {
        "0": {
          "ctab": {
            "srcChannel": 0,
            "name": "CC_Crash",
            "accType": "SUBRHYTHM",
            "editable": false,
            "mutedNotes": [],
            "mutedChords": [
              "1+2+5",
              "sus4",
              "1+5",
              "1+8",
              "7aug",
              "Maj7aug",
              "7(#9)",
              "7(b13)",
              "7(b9)",
              "7(13)",
              "7#11",
              "7(9)",
              "7b5",
              "7sus4",
              "7th",
              "dim7",
              "dim",
              "minMaj7(9)",
              "minMaj7",
              "min7(11)",
              "min7(9)",
              "min(9)",
              "m7b5",
              "min7",
              "min6",
              "min",
              "aug",
              "Maj6(9)",
              "Maj7(9)",
              "Maj(9)",
              "Maj7#11",
              "Maj7",
              "Maj6",
              "Maj"
            ],
            "autoStart": true,
            "sourceChordNote": 0,
            "sourceChordType": "Maj7",
            "ctb2Low": null,
            "ctb2Main": {
              "ntr": "ROOT_FIXED",
              "ntt": "BYPASS",
              "bassOn": false,
              "chordRootUpperLimit": 6,
              "noteLowLimit": 0,
              "noteHighLimit": 127,
              "rtr": "RETRIGGER"
            },
            "ctb2High": null
          },
          "notes": []
        },
        "1": {
          "ctab": {
            "srcChannel": 1,
            "name": "Steeldea",
            "accType": "PHRASE1",
            "editable": false,
            "mutedNotes": [],
            "mutedChords": [],
            "autoStart": false,
            "sourceChordNote": 0,
            "sourceChordType": "Maj7",
            "ctb2Low": null,
            "ctb2Main": {
              "ntr": "ROOT_FIXED",
              "ntt": "BYPASS",
              "bassOn": false,
              "chordRootUpperLimit": 7,
              "noteLowLimit": 0,
              "noteHighLimit": 127,
              "rtr": "PITCH_SHIFT"
            },
            "ctb2High": null
          },
          "notes": [
            {
              "pitch": 110,
              "velocity": 48,
              "position": 0.5,
              "duration": 0.14583333333333334
            },
            {
              "pitch": 110,
              "velocity": 48,
              "position": 4.5,
              "duration": 0.14583333333333334
            }
          ]
        },
        "3": {
          "ctab": {
            "srcChannel": 3,
            "name": "Ep Root",
            "accType": "CHORD1",
            "editable": false,
            "mutedNotes": [],
            "mutedChords": [
              "1+2+5",
              "sus4",
              "1+5",
              "1+8",
              "Maj7aug",
              "dim",
              "minMaj7(9)",
              "minMaj7",
              "min6",
              "min",
              "aug",
              "Maj7(9)",
              "Maj7#11",
              "Maj7",
              "Maj6",
              "Maj"
            ],
            "autoStart": false,
            "sourceChordNote": 0,
            "sourceChordType": "Maj7",
            "ctb2Low": null,
            "ctb2Main": {
              "ntr": "ROOT_TRANSPOSITION",
              "ntt": "MELODY",
              "bassOn": false,
              "chordRootUpperLimit": 10,
              "noteLowLimit": 0,
              "noteHighLimit": 127,
              "rtr": "PITCH_SHIFT"
            },
            "ctb2High": null
          },
          "notes": [
            {
              "pitch": 60,
              "velocity": 37,
              "position": 0.5,
              "duration": 0.16875
            },
            {
              "pitch": 60,
              "velocity": 40,
              "position": 1.5,
              "duration": 0.15833333333333333
            },
            {
              "pitch": 60,
              "velocity": 34,
              "position": 2.5,
              "duration": 0.17083333333333334
            },
            {
              "pitch": 60,
              "velocity": 35,
              "position": 3.5,
              "duration": 0.17916666666666667
            },
            {
              "pitch": 60,
              "velocity": 33,
              "position": 4.5,
              "duration": 0.16875
            },
            {
              "pitch": 60,
              "velocity": 37,
              "position": 5.5,
              "duration": 0.21041666666666667
            },
            {
              "pitch": 60,
              "velocity": 35,
              "position": 6.5,
              "duration": 0.21041666666666667
            },
            {
              "pitch": 60,
              "velocity": 31,
              "position": 7.5,
              "duration": 0.2
            }
          ]
        },
        "5": {
          "ctab": {
            "srcChannel": 5,
            "name": "Str Root",
            "accType": "PAD",
            "editable": false,
            "mutedNotes": [],
            "mutedChords": [
              "1+2+5",
              "sus4",
              "1+5",
              "1+8",
              "Maj7aug",
              "dim",
              "minMaj7(9)",
              "minMaj7",
              "min6",
              "min",
              "aug",
              "Maj7(9)",
              "Maj7#11",
              "Maj7",
              "Maj6",
              "Maj"
            ],
            "autoStart": false,
            "sourceChordNote": 0,
            "sourceChordType": "Maj7",
            "ctb2Low": null,
            "ctb2Main": {
              "ntr": "ROOT_TRANSPOSITION",
              "ntt": "MELODY",
              "bassOn": false,
              "chordRootUpperLimit": 6,
              "noteLowLimit": 0,
              "noteHighLimit": 127,
              "rtr": "PITCH_SHIFT"
            },
            "ctb2High": null
          },
          "notes": [
            {
              "pitch": 60,
              "velocity": 30,
              "position": 0,
              "duration": 7.989583333333333
            }
          ]
        },
        "8": {
          "ctab": {
            "srcChannel": 8,
            "name": "Perc",
            "accType": "SUBRHYTHM",
            "editable": false,
            "mutedNotes": [],
            "mutedChords": [],
            "autoStart": true,
            "sourceChordNote": 0,
            "sourceChordType": "Maj7",
            "ctb2Low": null,
            "ctb2Main": {
              "ntr": "ROOT_FIXED",
              "ntt": "BYPASS",
              "bassOn": false,
              "chordRootUpperLimit": 6,
              "noteLowLimit": 0,
              "noteHighLimit": 127,
              "rtr": "PITCH_SHIFT"
            },
            "ctb2High": null
          },
          "notes": [
            {
              "pitch": 54,
              "velocity": 65,
              "position": 0,
              "duration": 0.010416666666666666
            },
            {
              "pitch": 56,
              "velocity": 50,
              "position": 0,
              "duration": 0.010416666666666666
            },
            {
              "pitch": 82,
              "velocity": 70,
              "position": 0,
              "duration": 0.010416666666666666
            },
            {
              "pitch": 54,
              "velocity": 52,
              "position": 0.5,
              "duration": 0.010416666666666666
            },
            {
              "pitch": 82,
              "velocity": 70,
              "position": 0.5,
              "duration": 0.010416666666666666
            },
            {
              "pitch": 54,
              "velocity": 55,
              "position": 1,
              "duration": 0.010416666666666666
            },
            {
              "pitch": 56,
              "velocity": 50,
              "position": 1,
              "duration": 0.010416666666666666
            },
            {
              "pitch": 82,
              "velocity": 70,
              "position": 1,
              "duration": 0.010416666666666666
            },
            {
              "pitch": 54,
              "velocity": 52,
              "position": 1.5,
              "duration": 0.010416666666666666
            },
            {
              "pitch": 82,
              "velocity": 70,
              "position": 1.5,
              "duration": 0.010416666666666666
            },
            {
              "pitch": 54,
              "velocity": 54,
              "position": 2,
              "duration": 0.010416666666666666
            },
            {
              "pitch": 56,
              "velocity": 50,
              "position": 2,
              "duration": 0.010416666666666666
            },
            {
              "pitch": 82,
              "velocity": 70,
              "position": 2,
              "duration": 0.010416666666666666
            },
            {
              "pitch": 54,
              "velocity": 46,
              "position": 2.5,
              "duration": 0.010416666666666666
            },
            {
              "pitch": 82,
              "velocity": 70,
              "position": 2.5,
              "duration": 0.010416666666666666
            },
            {
              "pitch": 54,
              "velocity": 51,
              "position": 3,
              "duration": 0.010416666666666666
            },
            {
              "pitch": 56,
              "velocity": 50,
              "position": 3,
              "duration": 0.010416666666666666
            },
            {
              "pitch": 82,
              "velocity": 70,
              "position": 3,
              "duration": 0.010416666666666666
            },
            {
              "pitch": 54,
              "velocity": 53,
              "position": 3.5,
              "duration": 0.010416666666666666
            },
            {
              "pitch": 82,
              "velocity": 70,
              "position": 3.5,
              "duration": 0.010416666666666666
            },
            {
              "pitch": 54,
              "velocity": 53,
              "position": 4,
              "duration": 0.010416666666666666
            },
            {
              "pitch": 56,
              "velocity": 50,
              "position": 4,
              "duration": 0.010416666666666666
            },
            {
              "pitch": 82,
              "velocity": 70,
              "position": 4,
              "duration": 0.010416666666666666
            },
            {
              "pitch": 54,
              "velocity": 40,
              "position": 4.5,
              "duration": 0.010416666666666666
            },
            {
              "pitch": 82,
              "velocity": 70,
              "position": 4.5,
              "duration": 0.010416666666666666
            },
            {
              "pitch": 54,
              "velocity": 51,
              "position": 5,
              "duration": 0.010416666666666666
            },
            {
              "pitch": 56,
              "velocity": 50,
              "position": 5,
              "duration": 0.010416666666666666
            },
            {
              "pitch": 82,
              "velocity": 70,
              "position": 5,
              "duration": 0.010416666666666666
            },
            {
              "pitch": 54,
              "velocity": 44,
              "position": 5.5,
              "duration": 0.010416666666666666
            },
            {
              "pitch": 82,
              "velocity": 70,
              "position": 5.5,
              "duration": 0.010416666666666666
            },
            {
              "pitch": 54,
              "velocity": 48,
              "position": 6,
              "duration": 0.010416666666666666
            },
            {
              "pitch": 56,
              "velocity": 50,
              "position": 6,
              "duration": 0.010416666666666666
            },
            {
              "pitch": 82,
              "velocity": 70,
              "position": 6,
              "duration": 0.010416666666666666
            },
            {
              "pitch": 54,
              "velocity": 36,
              "position": 6.5,
              "duration": 0.010416666666666666
            },
            {
              "pitch": 82,
              "velocity": 70,
              "position": 6.5,
              "duration": 0.010416666666666666
            },
            {
              "pitch": 54,
              "velocity": 55,
              "position": 7,
              "duration": 0.010416666666666666
            },
            {
              "pitch": 56,
              "velocity": 50,
              "position": 7,
              "duration": 0.010416666666666666
            },
            {
              "pitch": 82,
              "velocity": 70,
              "position": 7,
              "duration": 0.010416666666666666
            },
            {
              "pitch": 54,
              "velocity": 45,
              "position": 7.5,
              "duration": 0.010416666666666666
            },
            {
              "pitch": 82,
              "velocity": 70,
              "position": 7.5,
              "duration": 0.010416666666666666
            }
          ]
        },
        "9": {
          "ctab": {
            "srcChannel": 9,
            "name": "Drums",
            "accType": "RHYTHM",
            "editable": false,
            "mutedNotes": [],
            "mutedChords": [],
            "autoStart": true,
            "sourceChordNote": 0,
            "sourceChordType": "Maj7",
            "ctb2Low": null,
            "ctb2Main": {
              "ntr": "ROOT_FIXED",
              "ntt": "BYPASS",
              "bassOn": false,
              "chordRootUpperLimit": 6,
              "noteLowLimit": 0,
              "noteHighLimit": 127,
              "rtr": "PITCH_SHIFT"
            },
            "ctb2High": null
          },
          "notes": [
            {
              "pitch": 20,
              "velocity": 48,
              "position": 0,
              "duration": 0.010416666666666666
            },
            {
              "pitch": 36,
              "velocity": 77,
              "position": 0,
              "duration": 0.010416666666666666
            },
            {
              "pitch": 59,
              "velocity": 43,
              "position": 0,
              "duration": 0.010416666666666666
            },
            {
              "pitch": 20,
              "velocity": 48,
              "position": 0.7916666666666666,
              "duration": 0.010416666666666666
            },
            {
              "pitch": 36,
              "velocity": 77,
              "position": 1,
              "duration": 0.010416666666666666
            },
            {
              "pitch": 69,
              "velocity": 44,
              "position": 1,
              "duration": 0.010416666666666666
            },
            {
              "pitch": 16,
              "velocity": 38,
              "position": 1.5,
              "duration": 0.010416666666666666
            },
            {
              "pitch": 16,
              "velocity": 42,
              "position": 2,
              "duration": 0.010416666666666666
            },
            {
              "pitch": 36,
              "velocity": 77,
              "position": 2,
              "duration": 0.010416666666666666
            },
            {
              "pitch": 69,
              "velocity": 44,
              "position": 2,
              "duration": 0.010416666666666666
            },
            {
              "pitch": 20,
              "velocity": 48,
              "position": 2.2916666666666665,
              "duration": 0.010416666666666666
            },
            {
              "pitch": 16,
              "velocity": 43,
              "position": 2.7916666666666665,
              "duration": 0.010416666666666666
            },
            {
              "pitch": 34,
              "velocity": 60,
              "position": 2.7916666666666665,
              "duration": 0.010416666666666666
            },
            {
              "pitch": 20,
              "velocity": 48,
              "position": 3,
              "duration": 0.010416666666666666
            },
            {
              "pitch": 36,
              "velocity": 77,
              "position": 3.5,
              "duration": 0.010416666666666666
            },
            {
              "pitch": 20,
              "velocity": 48,
              "position": 4,
              "duration": 0.010416666666666666
            },
            {
              "pitch": 36,
              "velocity": 77,
              "position": 4,
              "duration": 0.010416666666666666
            },
            {
              "pitch": 59,
              "velocity": 43,
              "position": 4,
              "duration": 0.010416666666666666
            },
            {
              "pitch": 20,
              "velocity": 48,
              "position": 4.791666666666667,
              "duration": 0.010416666666666666
            },
            {
              "pitch": 36,
              "velocity": 77,
              "position": 5,
              "duration": 0.010416666666666666
            },
            {
              "pitch": 69,
              "velocity": 44,
              "position": 5,
              "duration": 0.010416666666666666
            },
            {
              "pitch": 16,
              "velocity": 40,
              "position": 5.5,
              "duration": 0.010416666666666666
            },
            {
              "pitch": 16,
              "velocity": 47,
              "position": 6,
              "duration": 0.010416666666666666
            },
            {
              "pitch": 36,
              "velocity": 77,
              "position": 6,
              "duration": 0.010416666666666666
            },
            {
              "pitch": 69,
              "velocity": 44,
              "position": 6,
              "duration": 0.010416666666666666
            },
            {
              "pitch": 20,
              "velocity": 48,
              "position": 6.291666666666667,
              "duration": 0.010416666666666666
            },
            {
              "pitch": 16,
              "velocity": 42,
              "position": 6.791666666666667,
              "duration": 0.010416666666666666
            },
            {
              "pitch": 34,
              "velocity": 60,
              "position": 6.791666666666667,
              "duration": 0.010416666666666666
            },
            {
              "pitch": 20,
              "velocity": 48,
              "position": 7,
              "duration": 0.010416666666666666
            },
            {
              "pitch": 34,
              "velocity": 35,
              "position": 7.5,
              "duration": 0.010416666666666666
            }
          ]
        },
        "10": {
          "ctab": {
            "srcChannel": 10,
            "name": "Bass",
            "accType": "BASS",
            "editable": false,
            "mutedNotes": [],
            "mutedChords": [],
            "autoStart": false,
            "sourceChordNote": 0,
            "sourceChordType": "Maj7",
            "ctb2Low": null,
            "ctb2Main": {
              "ntr": "ROOT_TRANSPOSITION",
              "ntt": "MELODY",
              "bassOn": true,
              "chordRootUpperLimit": 3,
              "noteLowLimit": 28,
              "noteHighLimit": 127,
              "rtr": "PITCH_SHIFT_TO_ROOT"
            },
            "ctb2High": null
          },
          "notes": [
            {
              "pitch": 24,
              "velocity": 95,
              "position": 0,
              "duration": 0.3958333333333333
            },
            {
              "pitch": 24,
              "velocity": 95,
              "position": 1,
              "duration": 0.41875
            },
            {
              "pitch": 24,
              "velocity": 95,
              "position": 2,
              "duration": 0.40625
            },
            {
              "pitch": 24,
              "velocity": 95,
              "position": 3.5,
              "duration": 0.40625
            },
            {
              "pitch": 24,
              "velocity": 92,
              "position": 4,
              "duration": 0.3375
            },
            {
              "pitch": 24,
              "velocity": 95,
              "position": 5,
              "duration": 0.3958333333333333
            },
            {
              "pitch": 24,
              "velocity": 95,
              "position": 6,
              "duration": 0.30625
            },
            {
              "pitch": 24,
              "velocity": 92,
              "position": 6.791666666666667,
              "duration": 0.3229166666666667
            },
            {
              "pitch": 24,
              "velocity": 86,
              "position": 7.5,
              "duration": 0.2604166666666667
            },
            {
              "pitch": 43,
              "velocity": 51,
              "position": 7.791666666666667,
              "duration": 0.17083333333333334
            }
          ]
        },
        "11": {
          "ctab": {
            "srcChannel": 11,
            "name": "Ep",
            "accType": "CHORD1",
            "editable": false,
            "mutedNotes": [],
            "mutedChords": [],
            "autoStart": false,
            "sourceChordNote": 0,
            "sourceChordType": "Maj7",
            "ctb2Low": null,
            "ctb2Main": {
              "ntr": "ROOT_FIXED",
              "ntt": "CHORD",
              "bassOn": false,
              "chordRootUpperLimit": 4,
              "noteLowLimit": 0,
              "noteHighLimit": 127,
              "rtr": "PITCH_SHIFT"
            },
            "ctb2High": null
          },
          "notes": [
            {
              "pitch": 59,
              "velocity": 37,
              "position": 0.5,
              "duration": 0.16875
            },
            {
              "pitch": 64,
              "velocity": 55,
              "position": 0.5,
              "duration": 0.17916666666666667
            },
            {
              "pitch": 67,
              "velocity": 46,
              "position": 0.5,
              "duration": 0.17916666666666667
            },
            {
              "pitch": 59,
              "velocity": 40,
              "position": 1.5,
              "duration": 0.15833333333333333
            },
            {
              "pitch": 67,
              "velocity": 42,
              "position": 1.5,
              "duration": 0.15833333333333333
            },
            {
              "pitch": 64,
              "velocity": 55,
              "position": 1.5,
              "duration": 0.19791666666666666
            },
            {
              "pitch": 59,
              "velocity": 34,
              "position": 2.5,
              "duration": 0.17083333333333334
            },
            {
              "pitch": 64,
              "velocity": 53,
              "position": 2.5,
              "duration": 0.18125
            },
            {
              "pitch": 67,
              "velocity": 44,
              "position": 2.5,
              "duration": 0.18125
            },
            {
              "pitch": 59,
              "velocity": 35,
              "position": 3.5,
              "duration": 0.17916666666666667
            },
            {
              "pitch": 64,
              "velocity": 53,
              "position": 3.5,
              "duration": 0.17916666666666667
            },
            {
              "pitch": 67,
              "velocity": 42,
              "position": 3.5,
              "duration": 0.17916666666666667
            },
            {
              "pitch": 59,
              "velocity": 33,
              "position": 4.5,
              "duration": 0.16875
            },
            {
              "pitch": 64,
              "velocity": 49,
              "position": 4.5,
              "duration": 0.1875
            },
            {
              "pitch": 67,
              "velocity": 40,
              "position": 4.5,
              "duration": 0.19166666666666668
            },
            {
              "pitch": 67,
              "velocity": 45,
              "position": 5.5,
              "duration": 0.2
            },
            {
              "pitch": 59,
              "velocity": 37,
              "position": 5.5,
              "duration": 0.21041666666666667
            },
            {
              "pitch": 64,
              "velocity": 52,
              "position": 5.5,
              "duration": 0.21041666666666667
            },
            {
              "pitch": 59,
              "velocity": 35,
              "position": 6.5,
              "duration": 0.21041666666666667
            },
            {
              "pitch": 64,
              "velocity": 49,
              "position": 6.5,
              "duration": 0.21041666666666667
            },
            {
              "pitch": 67,
              "velocity": 41,
              "position": 6.5,
              "duration": 0.21041666666666667
            },
            {
              "pitch": 64,
              "velocity": 45,
              "position": 7.5,
              "duration": 0.1875
            },
            {
              "pitch": 59,
              "velocity": 31,
              "position": 7.5,
              "duration": 0.2
            },
            {
              "pitch": 67,
              "velocity": 36,
              "position": 7.5,
              "duration": 0.22916666666666666
            }
          ]
        },
        "12": {
          "ctab": {
            "srcChannel": 12,
            "name": "JzGtr",
            "accType": "CHORD2",
            "editable": false,
            "mutedNotes": [],
            "mutedChords": [],
            "autoStart": false,
            "sourceChordNote": 0,
            "sourceChordType": "Maj7",
            "ctb2Low": null,
            "ctb2Main": {
              "ntr": "ROOT_FIXED",
              "ntt": "CHORD",
              "bassOn": false,
              "chordRootUpperLimit": 7,
              "noteLowLimit": 0,
              "noteHighLimit": 127,
              "rtr": "PITCH_SHIFT"
            },
            "ctb2High": null
          },
          "notes": [
            {
              "pitch": 55,
              "velocity": 35,
              "position": 0,
              "duration": 0.28125
            },
            {
              "pitch": 59,
              "velocity": 35,
              "position": 0,
              "duration": 0.28125
            },
            {
              "pitch": 64,
              "velocity": 35,
              "position": 0,
              "duration": 0.28125
            },
            {
              "pitch": 55,
              "velocity": 43,
              "position": 0.2916666666666667,
              "duration": 0.29583333333333334
            },
            {
              "pitch": 59,
              "velocity": 43,
              "position": 0.2916666666666667,
              "duration": 0.29583333333333334
            },
            {
              "pitch": 64,
              "velocity": 43,
              "position": 0.2916666666666667,
              "duration": 0.29583333333333334
            },
            {
              "pitch": 55,
              "velocity": 43,
              "position": 1,
              "duration": 0.2708333333333333
            },
            {
              "pitch": 59,
              "velocity": 43,
              "position": 1,
              "duration": 0.2708333333333333
            },
            {
              "pitch": 64,
              "velocity": 43,
              "position": 1,
              "duration": 0.2708333333333333
            },
            {
              "pitch": 55,
              "velocity": 42,
              "position": 2,
              "duration": 0.28125
            },
            {
              "pitch": 59,
              "velocity": 42,
              "position": 2,
              "duration": 0.28125
            },
            {
              "pitch": 64,
              "velocity": 42,
              "position": 2,
              "duration": 0.28125
            },
            {
              "pitch": 55,
              "velocity": 43,
              "position": 2.2916666666666665,
              "duration": 0.1875
            },
            {
              "pitch": 59,
              "velocity": 43,
              "position": 2.2916666666666665,
              "duration": 0.1875
            },
            {
              "pitch": 64,
              "velocity": 43,
              "position": 2.2916666666666665,
              "duration": 0.1875
            },
            {
              "pitch": 55,
              "velocity": 42,
              "position": 2.7916666666666665,
              "duration": 0.6979166666666666
            },
            {
              "pitch": 59,
              "velocity": 38,
              "position": 2.7916666666666665,
              "duration": 0.6979166666666666
            },
            {
              "pitch": 64,
              "velocity": 43,
              "position": 2.7916666666666665,
              "duration": 0.6979166666666666
            },
            {
              "pitch": 55,
              "velocity": 43,
              "position": 3.5,
              "duration": 0.20833333333333334
            },
            {
              "pitch": 59,
              "velocity": 43,
              "position": 3.5,
              "duration": 0.20833333333333334
            },
            {
              "pitch": 64,
              "velocity": 43,
              "position": 3.5,
              "duration": 0.20833333333333334
            },
            {
              "pitch": 55,
              "velocity": 35,
              "position": 4,
              "duration": 0.28125
            },
            {
              "pitch": 59,
              "velocity": 35,
              "position": 4,
              "duration": 0.28125
            },
            {
              "pitch": 64,
              "velocity": 35,
              "position": 4,
              "duration": 0.28125
            },
            {
              "pitch": 55,
              "velocity": 43,
              "position": 4.291666666666667,
              "duration": 0.29583333333333334
            },
            {
              "pitch": 59,
              "velocity": 43,
              "position": 4.291666666666667,
              "duration": 0.29583333333333334
            },
            {
              "pitch": 64,
              "velocity": 43,
              "position": 4.291666666666667,
              "duration": 0.29583333333333334
            },
            {
              "pitch": 55,
              "velocity": 43,
              "position": 5,
              "duration": 0.2708333333333333
            },
            {
              "pitch": 59,
              "velocity": 43,
              "position": 5,
              "duration": 0.2708333333333333
            },
            {
              "pitch": 64,
              "velocity": 43,
              "position": 5,
              "duration": 0.2708333333333333
            },
            {
              "pitch": 55,
              "velocity": 42,
              "position": 6,
              "duration": 0.28125
            },
            {
              "pitch": 59,
              "velocity": 42,
              "position": 6,
              "duration": 0.28125
            },
            {
              "pitch": 64,
              "velocity": 42,
              "position": 6,
              "duration": 0.28125
            },
            {
              "pitch": 55,
              "velocity": 43,
              "position": 6.291666666666667,
              "duration": 0.1875
            },
            {
              "pitch": 59,
              "velocity": 43,
              "position": 6.291666666666667,
              "duration": 0.1875
            },
            {
              "pitch": 64,
              "velocity": 43,
              "position": 6.291666666666667,
              "duration": 0.1875
            },
            {
              "pitch": 55,
              "velocity": 42,
              "position": 6.791666666666667,
              "duration": 0.6979166666666666
            },
            {
              "pitch": 59,
              "velocity": 38,
              "position": 6.791666666666667,
              "duration": 0.6979166666666666
            },
            {
              "pitch": 64,
              "velocity": 43,
              "position": 6.791666666666667,
              "duration": 0.6979166666666666
            },
            {
              "pitch": 55,
              "velocity": 43,
              "position": 7.5,
              "duration": 0.20833333333333334
            },
            {
              "pitch": 59,
              "velocity": 43,
              "position": 7.5,
              "duration": 0.20833333333333334
            },
            {
              "pitch": 64,
              "velocity": 43,
              "position": 7.5,
              "duration": 0.20833333333333334
            }
          ]
        },
        "13": {
          "ctab": {
            "srcChannel": 13,
            "name": "Strings",
            "accType": "PAD",
            "editable": false,
            "mutedNotes": [],
            "mutedChords": [],
            "autoStart": false,
            "sourceChordNote": 0,
            "sourceChordType": "Maj7",
            "ctb2Low": null,
            "ctb2Main": {
              "ntr": "ROOT_FIXED",
              "ntt": "CHORD",
              "bassOn": false,
              "chordRootUpperLimit": 7,
              "noteLowLimit": 0,
              "noteHighLimit": 127,
              "rtr": "PITCH_SHIFT"
            },
            "ctb2High": null
          },
          "notes": [
            {
              "pitch": 55,
              "velocity": 30,
              "position": 0,
              "duration": 7.989583333333333
            },
            {
              "pitch": 59,
              "velocity": 30,
              "position": 0,
              "duration": 7.989583333333333
            },
            {
              "pitch": 64,
              "velocity": 30,
              "position": 0,
              "duration": 7.989583333333333
            }
          ]
        },
        "14": {
          "ctab": {
            "srcChannel": 14,
            "name": "SteelMsw",
            "accType": "PHRASE1",
            "editable": false,
            "mutedNotes": [],
            "mutedChords": [],
            "autoStart": false,
            "sourceChordNote": 0,
            "sourceChordType": "Maj7",
            "ctb2Low": null,
            "ctb2Main": {
              "ntr": "ROOT_FIXED",
              "ntt": "CHORD",
              "bassOn": false,
              "chordRootUpperLimit": 7,
              "noteLowLimit": 0,
              "noteHighLimit": 127,
              "rtr": "PITCH_SHIFT"
            },
            "ctb2High": null
          },
          "notes": [
            {
              "pitch": 59,
              "velocity": 94,
              "position": 0,
              "duration": 0.5104166666666666
            },
            {
              "pitch": 64,
              "velocity": 94,
              "position": 0,
              "duration": 0.5208333333333334
            },
            {
              "pitch": 67,
              "velocity": 94,
              "position": 0,
              "duration": 0.5354166666666667
            },
            {
              "pitch": 59,
              "velocity": 94,
              "position": 0.7916666666666666,
              "duration": 0.2125
            },
            {
              "pitch": 64,
              "velocity": 94,
              "position": 0.7916666666666666,
              "duration": 0.2125
            },
            {
              "pitch": 67,
              "velocity": 94,
              "position": 0.7916666666666666,
              "duration": 0.23333333333333334
            },
            {
              "pitch": 59,
              "velocity": 94,
              "position": 4,
              "duration": 0.5104166666666666
            },
            {
              "pitch": 64,
              "velocity": 94,
              "position": 4,
              "duration": 0.5208333333333334
            },
            {
              "pitch": 67,
              "velocity": 94,
              "position": 4,
              "duration": 0.5354166666666667
            },
            {
              "pitch": 59,
              "velocity": 94,
              "position": 4.791666666666667,
              "duration": 0.2125
            },
            {
              "pitch": 64,
              "velocity": 94,
              "position": 4.791666666666667,
              "duration": 0.2125
            },
            {
              "pitch": 67,
              "velocity": 94,
              "position": 4.791666666666667,
              "duration": 0.23333333333333334
            }
          ]
        },
        "15": {
          "ctab": {
            "srcChannel": 15,
            "name": "Flute",
            "accType": "PHRASE2",
            "editable": false,
            "mutedNotes": [],
            "mutedChords": [],
            "autoStart": false,
            "sourceChordNote": 0,
            "sourceChordType": "Maj7",
            "ctb2Low": null,
            "ctb2Main": {
              "ntr": "ROOT_FIXED",
              "ntt": "CHORD",
              "bassOn": false,
              "chordRootUpperLimit": 7,
              "noteLowLimit": 0,
              "noteHighLimit": 127,
              "rtr": "PITCH_SHIFT"
            },
            "ctb2High": null
          },
          "notes": []
        }
      }
    },
    "Fill_In_AA": {
      "type": "Fill_In_AA",
      "sizeInBeats": 4,
      "channels": {
        "0": {
          "ctab": {
            "srcChannel": 0,
            "name": "CC_Crash",
            "accType": "SUBRHYTHM",
            "editable": false,
            "mutedNotes": [],
            "mutedChords": [
              "1+2+5",
              "sus4",
              "1+5",
              "1+8",
              "7aug",
              "Maj7aug",
              "7(#9)",
              "7(b13)",
              "7(b9)",
              "7(13)",
              "7#11",
              "7(9)",
              "7b5",
              "7sus4",
              "7th",
              "dim7",
              "dim",
              "minMaj7(9)",
              "minMaj7",
              "min7(11)",
              "min7(9)",
              "min(9)",
              "m7b5",
              "min7",
              "min6",
              "min",
              "aug",
              "Maj6(9)",
              "Maj7(9)",
              "Maj(9)",
              "Maj7#11",
              "Maj7",
              "Maj6",
              "Maj"
            ],
            "autoStart": true,
            "sourceChordNote": 0,
            "sourceChordType": "Maj7",
            "ctb2Low": null,
            "ctb2Main": {
              "ntr": "ROOT_FIXED",
              "ntt": "BYPASS",
              "bassOn": false,
              "chordRootUpperLimit": 6,
              "noteLowLimit": 0,
              "noteHighLimit": 127,
              "rtr": "RETRIGGER"
            },
            "ctb2High": null
          },
          "notes": []
        },
        "1": {
          "ctab": {
            "srcChannel": 1,
            "name": "Steeldea",
            "accType": "PHRASE1",
            "editable": false,
            "mutedNotes": [],
            "mutedChords": [],
            "autoStart": false,
            "sourceChordNote": 0,
            "sourceChordType": "Maj7",
            "ctb2Low": null,
            "ctb2Main": {
              "ntr": "ROOT_FIXED",
              "ntt": "BYPASS",
              "bassOn": false,
              "chordRootUpperLimit": 7,
              "noteLowLimit": 0,
              "noteHighLimit": 127,
              "rtr": "PITCH_SHIFT"
            },
            "ctb2High": null
          },
          "notes": []
        },
        "3": {
          "ctab": {
            "srcChannel": 3,
            "name": "Ep Root",
            "accType": "CHORD1",
            "editable": false,
            "mutedNotes": [],
            "mutedChords": [
              "1+2+5",
              "sus4",
              "1+5",
              "1+8",
              "Maj7aug",
              "dim",
              "minMaj7(9)",
              "minMaj7",
              "min6",
              "min",
              "aug",
              "Maj7(9)",
              "Maj7#11",
              "Maj7",
              "Maj6",
              "Maj"
            ],
            "autoStart": false,
            "sourceChordNote": 0,
            "sourceChordType": "Maj7",
            "ctb2Low": null,
            "ctb2Main": {
              "ntr": "ROOT_TRANSPOSITION",
              "ntt": "MELODY",
              "bassOn": false,
              "chordRootUpperLimit": 10,
              "noteLowLimit": 0,
              "noteHighLimit": 127,
              "rtr": "PITCH_SHIFT"
            },
            "ctb2High": null
          },
          "notes": [
            {
              "pitch": 60,
              "velocity": 65,
              "position": 0,
              "duration": 0.7395833333333334
            },
            {
              "pitch": 60,
              "velocity": 46,
              "position": 0.7708333333333334,
              "duration": 0.21875
            },
            {
              "pitch": 60,
              "velocity": 35,
              "position": 1,
              "duration": 0.7395833333333334
            },
            {
              "pitch": 60,
              "velocity": 40,
              "position": 1.7708333333333333,
              "duration": 0.21875
            },
            {
              "pitch": 60,
              "velocity": 45,
              "position": 2,
              "duration": 0.7395833333333334
            },
            {
              "pitch": 60,
              "velocity": 50,
              "position": 2.7708333333333335,
              "duration": 0.21875
            },
            {
              "pitch": 60,
              "velocity": 65,
              "position": 3,
              "duration": 0.12708333333333333
            },
            {
              "pitch": 60,
              "velocity": 65,
              "position": 3.5,
              "duration": 0.12708333333333333
            }
          ]
        },
        "5": {
          "ctab": {
            "srcChannel": 5,
            "name": "Str Root",
            "accType": "PAD",
            "editable": false,
            "mutedNotes": [],
            "mutedChords": [
              "1+2+5",
              "sus4",
              "1+5",
              "1+8",
              "Maj7aug",
              "dim",
              "minMaj7(9)",
              "minMaj7",
              "min6",
              "min",
              "aug",
              "Maj7(9)",
              "Maj7#11",
              "Maj7",
              "Maj6",
              "Maj"
            ],
            "autoStart": false,
            "sourceChordNote": 0,
            "sourceChordType": "Maj7",
            "ctb2Low": null,
            "ctb2Main": {
              "ntr": "ROOT_TRANSPOSITION",
              "ntt": "MELODY",
              "bassOn": false,
              "chordRootUpperLimit": 6,
              "noteLowLimit": 0,
              "noteHighLimit": 127,
              "rtr": "PITCH_SHIFT"
            },
            "ctb2High": null
          },
          "notes": []
        },
        "8": {
          "ctab": {
            "srcChannel": 8,
            "name": "Perc",
            "accType": "SUBRHYTHM",
            "editable": false,
            "mutedNotes": [],
            "mutedChords": [],
            "autoStart": true,
            "sourceChordNote": 0,
            "sourceChordType": "Maj7",
            "ctb2Low": null,
            "ctb2Main": {
              "ntr": "ROOT_FIXED",
              "ntt": "BYPASS",
              "bassOn": false,
              "chordRootUpperLimit": 6,
              "noteLowLimit": 0,
              "noteHighLimit": 127,
              "rtr": "PITCH_SHIFT"
            },
            "ctb2High": null
          },
          "notes": [
            {
              "pitch": 42,
              "velocity": 53,
              "position": 0,
              "duration": 0.010416666666666666
            },
            {
              "pitch": 70,
              "velocity": 44,
              "position": 0,
              "duration": 0.010416666666666666
            },
            {
              "pitch": 42,
              "velocity": 27,
              "position": 0.5,
              "duration": 0.010416666666666666
            },
            {
              "pitch": 70,
              "velocity": 18,
              "position": 0.5,
              "duration": 0.010416666666666666
            },
            {
              "pitch": 42,
              "velocity": 27,
              "position": 0.7708333333333334,
              "duration": 0.010416666666666666
            },
            {
              "pitch": 70,
              "velocity": 18,
              "position": 0.7708333333333334,
              "duration": 0.010416666666666666
            },
            {
              "pitch": 42,
              "velocity": 43,
              "position": 1,
              "duration": 0.010416666666666666
            },
            {
              "pitch": 70,
              "velocity": 34,
              "position": 1,
              "duration": 0.010416666666666666
            },
            {
              "pitch": 42,
              "velocity": 43,
              "position": 1.5,
              "duration": 0.010416666666666666
            },
            {
              "pitch": 70,
              "velocity": 44,
              "position": 1.5,
              "duration": 0.010416666666666666
            },
            {
              "pitch": 42,
              "velocity": 27,
              "position": 1.7708333333333333,
              "duration": 0.010416666666666666
            },
            {
              "pitch": 70,
              "velocity": 18,
              "position": 1.7708333333333333,
              "duration": 0.010416666666666666
            },
            {
              "pitch": 42,
              "velocity": 45,
              "position": 2,
              "duration": 0.010416666666666666
            },
            {
              "pitch": 70,
              "velocity": 36,
              "position": 2,
              "duration": 0.010416666666666666
            },
            {
              "pitch": 42,
              "velocity": 45,
              "position": 2.5,
              "duration": 0.010416666666666666
            },
            {
              "pitch": 70,
              "velocity": 46,
              "position": 2.5,
              "duration": 0.010416666666666666
            },
            {
              "pitch": 42,
              "velocity": 27,
              "position": 2.7708333333333335,
              "duration": 0.010416666666666666
            },
            {
              "pitch": 70,
              "velocity": 18,
              "position": 2.7708333333333335,
              "duration": 0.010416666666666666
            },
            {
              "pitch": 42,
              "velocity": 53,
              "position": 3,
              "duration": 0.010416666666666666
            },
            {
              "pitch": 70,
              "velocity": 44,
              "position": 3,
              "duration": 0.010416666666666666
            },
            {
              "pitch": 42,
              "velocity": 53,
              "position": 3.5,
              "duration": 0.010416666666666666
            },
            {
              "pitch": 70,
              "velocity": 54,
              "position": 3.5,
              "duration": 0.010416666666666666
            }
          ]
        },
        "9": {
          "ctab": {
            "srcChannel": 9,
            "name": "Drums",
            "accType": "RHYTHM",
            "editable": false,
            "mutedNotes": [],
            "mutedChords": [],
            "autoStart": true,
            "sourceChordNote": 0,
            "sourceChordType": "Maj7",
            "ctb2Low": null,
            "ctb2Main": {
              "ntr": "ROOT_FIXED",
              "ntt": "BYPASS",
              "bassOn": false,
              "chordRootUpperLimit": 6,
              "noteLowLimit": 0,
              "noteHighLimit": 127,
              "rtr": "PITCH_SHIFT"
            },
            "ctb2High": null
          },
          "notes": [
            {
              "pitch": 36,
              "velocity": 41,
              "position": 0,
              "duration": 0.010416666666666666
            },
            {
              "pitch": 17,
              "velocity": 44,
              "position": 0,
              "duration": 0.23958333333333334
            },
            {
              "pitch": 18,
              "velocity": 51,
              "position": 0.7604166666666666,
              "duration": 0.23958333333333334
            },
            {
              "pitch": 36,
              "velocity": 43,
              "position": 1,
              "duration": 0.010416666666666666
            },
            {
              "pitch": 17,
              "velocity": 43,
              "position": 1,
              "duration": 0.23958333333333334
            },
            {
              "pitch": 18,
              "velocity": 50,
              "position": 1.7604166666666667,
              "duration": 0.23958333333333334
            },
            {
              "pitch": 36,
              "velocity": 58,
              "position": 2,
              "duration": 0.010416666666666666
            },
            {
              "pitch": 17,
              "velocity": 42,
              "position": 2,
              "duration": 0.23958333333333334
            },
            {
              "pitch": 18,
              "velocity": 66,
              "position": 2.7604166666666665,
              "duration": 0.23958333333333334
            },
            {
              "pitch": 34,
              "velocity": 58,
              "position": 3,
              "duration": 0.010416666666666666
            },
            {
              "pitch": 36,
              "velocity": 80,
              "position": 3,
              "duration": 0.010416666666666666
            },
            {
              "pitch": 17,
              "velocity": 46,
              "position": 3,
              "duration": 0.23958333333333334
            },
            {
              "pitch": 18,
              "velocity": 70,
              "position": 3.2604166666666665,
              "duration": 0.23958333333333334
            },
            {
              "pitch": 34,
              "velocity": 61,
              "position": 3.5,
              "duration": 0.010416666666666666
            },
            {
              "pitch": 36,
              "velocity": 57,
              "position": 3.5,
              "duration": 0.010416666666666666
            },
            {
              "pitch": 17,
              "velocity": 44,
              "position": 3.5,
              "duration": 0.23958333333333334
            },
            {
              "pitch": 26,
              "velocity": 30,
              "position": 0,
              "duration": 3.9895833333333335
            }
          ]
        },
        "10": {
          "ctab": {
            "srcChannel": 10,
            "name": "Bass",
            "accType": "BASS",
            "editable": false,
            "mutedNotes": [],
            "mutedChords": [],
            "autoStart": false,
            "sourceChordNote": 0,
            "sourceChordType": "Maj7",
            "ctb2Low": null,
            "ctb2Main": {
              "ntr": "ROOT_TRANSPOSITION",
              "ntt": "MELODY",
              "bassOn": true,
              "chordRootUpperLimit": 3,
              "noteLowLimit": 28,
              "noteHighLimit": 127,
              "rtr": "PITCH_SHIFT_TO_ROOT"
            },
            "ctb2High": null
          },
          "notes": [
            {
              "pitch": 24,
              "velocity": 95,
              "position": 0,
              "duration": 0.7
            },
            {
              "pitch": 24,
              "velocity": 44,
              "position": 0.7916666666666666,
              "duration": 0.08333333333333333
            },
            {
              "pitch": 24,
              "velocity": 60,
              "position": 1,
              "duration": 0.7604166666666666
            },
            {
              "pitch": 24,
              "velocity": 44,
              "position": 1.7916666666666667,
              "duration": 0.08333333333333333
            },
            {
              "pitch": 24,
              "velocity": 70,
              "position": 2,
              "duration": 0.78125
            },
            {
              "pitch": 24,
              "velocity": 62,
              "position": 2.7916666666666665,
              "duration": 0.09791666666666667
            },
            {
              "pitch": 24,
              "velocity": 94,
              "position": 3,
              "duration": 0.26458333333333334
            },
            {
              "pitch": 24,
              "velocity": 64,
              "position": 3.2916666666666665,
              "duration": 0.10625
            },
            {
              "pitch": 24,
              "velocity": 95,
              "position": 3.5,
              "duration": 0.25
            },
            {
              "pitch": 24,
              "velocity": 78,
              "position": 3.7916666666666665,
              "duration": 0.16666666666666666
            }
          ]
        },
        "11": {
          "ctab": {
            "srcChannel": 11,
            "name": "Ep",
            "accType": "CHORD1",
            "editable": false,
            "mutedNotes": [],
            "mutedChords": [],
            "autoStart": false,
            "sourceChordNote": 0,
            "sourceChordType": "Maj7",
            "ctb2Low": null,
            "ctb2Main": {
              "ntr": "ROOT_FIXED",
              "ntt": "CHORD",
              "bassOn": false,
              "chordRootUpperLimit": 4,
              "noteLowLimit": 0,
              "noteHighLimit": 127,
              "rtr": "PITCH_SHIFT"
            },
            "ctb2High": null
          },
          "notes": [
            {
              "pitch": 59,
              "velocity": 65,
              "position": 0,
              "duration": 0.7395833333333334
            },
            {
              "pitch": 64,
              "velocity": 65,
              "position": 0,
              "duration": 0.7395833333333334
            },
            {
              "pitch": 67,
              "velocity": 65,
              "position": 0,
              "duration": 0.7395833333333334
            },
            {
              "pitch": 59,
              "velocity": 46,
              "position": 0.7708333333333334,
              "duration": 0.21875
            },
            {
              "pitch": 64,
              "velocity": 46,
              "position": 0.7708333333333334,
              "duration": 0.21875
            },
            {
              "pitch": 67,
              "velocity": 46,
              "position": 0.7708333333333334,
              "duration": 0.21875
            },
            {
              "pitch": 59,
              "velocity": 35,
              "position": 1,
              "duration": 0.7395833333333334
            },
            {
              "pitch": 64,
              "velocity": 35,
              "position": 1,
              "duration": 0.7395833333333334
            },
            {
              "pitch": 67,
              "velocity": 35,
              "position": 1,
              "duration": 0.7395833333333334
            },
            {
              "pitch": 59,
              "velocity": 40,
              "position": 1.7708333333333333,
              "duration": 0.21875
            },
            {
              "pitch": 64,
              "velocity": 40,
              "position": 1.7708333333333333,
              "duration": 0.21875
            },
            {
              "pitch": 67,
              "velocity": 40,
              "position": 1.7708333333333333,
              "duration": 0.21875
            },
            {
              "pitch": 59,
              "velocity": 45,
              "position": 2,
              "duration": 0.7395833333333334
            },
            {
              "pitch": 64,
              "velocity": 45,
              "position": 2,
              "duration": 0.7395833333333334
            },
            {
              "pitch": 67,
              "velocity": 45,
              "position": 2,
              "duration": 0.7395833333333334
            },
            {
              "pitch": 59,
              "velocity": 50,
              "position": 2.7708333333333335,
              "duration": 0.21875
            },
            {
              "pitch": 64,
              "velocity": 50,
              "position": 2.7708333333333335,
              "duration": 0.21875
            },
            {
              "pitch": 67,
              "velocity": 50,
              "position": 2.7708333333333335,
              "duration": 0.21875
            },
            {
              "pitch": 59,
              "velocity": 65,
              "position": 3,
              "duration": 0.12708333333333333
            },
            {
              "pitch": 64,
              "velocity": 65,
              "position": 3,
              "duration": 0.12708333333333333
            },
            {
              "pitch": 67,
              "velocity": 65,
              "position": 3,
              "duration": 0.12708333333333333
            },
            {
              "pitch": 59,
              "velocity": 65,
              "position": 3.5,
              "duration": 0.12708333333333333
            },
            {
              "pitch": 64,
              "velocity": 65,
              "position": 3.5,
              "duration": 0.12708333333333333
            },
            {
              "pitch": 67,
              "velocity": 65,
              "position": 3.5,
              "duration": 0.12708333333333333
            }
          ]
        },
        "12": {
          "ctab": {
            "srcChannel": 12,
            "name": "JzGtr",
            "accType": "CHORD2",
            "editable": false,
            "mutedNotes": [],
            "mutedChords": [],
            "autoStart": false,
            "sourceChordNote": 0,
            "sourceChordType": "Maj7",
            "ctb2Low": null,
            "ctb2Main": {
              "ntr": "ROOT_FIXED",
              "ntt": "CHORD",
              "bassOn": false,
              "chordRootUpperLimit": 7,
              "noteLowLimit": 0,
              "noteHighLimit": 127,
              "rtr": "PITCH_SHIFT"
            },
            "ctb2High": null
          },
          "notes": [
            {
              "pitch": 59,
              "velocity": 28,
              "position": 0,
              "duration": 0.7291666666666666
            },
            {
              "pitch": 59,
              "velocity": 29,
              "position": 0.7916666666666666,
              "duration": 0.13958333333333334
            },
            {
              "pitch": 64,
              "velocity": 30,
              "position": 0,
              "duration": 0.9895833333333334
            },
            {
              "pitch": 67,
              "velocity": 30,
              "position": 0,
              "duration": 0.9895833333333334
            },
            {
              "pitch": 59,
              "velocity": 42,
              "position": 1,
              "duration": 0.6708333333333333
            },
            {
              "pitch": 64,
              "velocity": 42,
              "position": 1,
              "duration": 0.9895833333333334
            },
            {
              "pitch": 67,
              "velocity": 42,
              "position": 1,
              "duration": 0.9895833333333334
            },
            {
              "pitch": 64,
              "velocity": 50,
              "position": 2,
              "duration": 0.6708333333333333
            },
            {
              "pitch": 67,
              "velocity": 50,
              "position": 2,
              "duration": 0.6708333333333333
            },
            {
              "pitch": 59,
              "velocity": 52,
              "position": 1.7916666666666667,
              "duration": 0.9
            },
            {
              "pitch": 59,
              "velocity": 33,
              "position": 2.7916666666666665,
              "duration": 0.12708333333333333
            },
            {
              "pitch": 64,
              "velocity": 33,
              "position": 2.7916666666666665,
              "duration": 0.12708333333333333
            },
            {
              "pitch": 67,
              "velocity": 33,
              "position": 2.7916666666666665,
              "duration": 0.12708333333333333
            },
            {
              "pitch": 59,
              "velocity": 43,
              "position": 3,
              "duration": 0.22291666666666668
            },
            {
              "pitch": 64,
              "velocity": 47,
              "position": 3,
              "duration": 0.22291666666666668
            },
            {
              "pitch": 67,
              "velocity": 47,
              "position": 3,
              "duration": 0.22291666666666668
            },
            {
              "pitch": 59,
              "velocity": 60,
              "position": 3.5,
              "duration": 0.22291666666666668
            },
            {
              "pitch": 64,
              "velocity": 68,
              "position": 3.5,
              "duration": 0.22291666666666668
            },
            {
              "pitch": 67,
              "velocity": 68,
              "position": 3.5,
              "duration": 0.22291666666666668
            }
          ]
        },
        "13": {
          "ctab": {
            "srcChannel": 13,
            "name": "Strings",
            "accType": "PAD",
            "editable": false,
            "mutedNotes": [],
            "mutedChords": [],
            "autoStart": false,
            "sourceChordNote": 0,
            "sourceChordType": "Maj7",
            "ctb2Low": null,
            "ctb2Main": {
              "ntr": "ROOT_FIXED",
              "ntt": "CHORD",
              "bassOn": false,
              "chordRootUpperLimit": 7,
              "noteLowLimit": 0,
              "noteHighLimit": 127,
              "rtr": "PITCH_SHIFT"
            },
            "ctb2High": null
          },
          "notes": []
        },
        "14": {
          "ctab": {
            "srcChannel": 14,
            "name": "SteelMsw",
            "accType": "PHRASE1",
            "editable": false,
            "mutedNotes": [],
            "mutedChords": [],
            "autoStart": false,
            "sourceChordNote": 0,
            "sourceChordType": "Maj7",
            "ctb2Low": null,
            "ctb2Main": {
              "ntr": "ROOT_FIXED",
              "ntt": "CHORD",
              "bassOn": false,
              "chordRootUpperLimit": 7,
              "noteLowLimit": 0,
              "noteHighLimit": 127,
              "rtr": "PITCH_SHIFT"
            },
            "ctb2High": null
          },
          "notes": [
            {
              "pitch": 55,
              "velocity": 76,
              "position": 0,
              "duration": 0.2125
            },
            {
              "pitch": 59,
              "velocity": 76,
              "position": 0,
              "duration": 0.22291666666666668
            },
            {
              "pitch": 55,
              "velocity": 76,
              "position": 0.5,
              "duration": 0.2708333333333333
            },
            {
              "pitch": 59,
              "velocity": 76,
              "position": 0.5,
              "duration": 0.29583333333333334
            },
            {
              "pitch": 59,
              "velocity": 77,
              "position": 1,
              "duration": 0.2520833333333333
            },
            {
              "pitch": 55,
              "velocity": 77,
              "position": 1,
              "duration": 0.2625
            },
            {
              "pitch": 55,
              "velocity": 76,
              "position": 1.5,
              "duration": 0.2708333333333333
            },
            {
              "pitch": 59,
              "velocity": 76,
              "position": 1.5,
              "duration": 0.29583333333333334
            },
            {
              "pitch": 55,
              "velocity": 84,
              "position": 2,
              "duration": 0.21041666666666667
            },
            {
              "pitch": 59,
              "velocity": 84,
              "position": 2,
              "duration": 0.22083333333333333
            },
            {
              "pitch": 55,
              "velocity": 76,
              "position": 2.5,
              "duration": 0.22916666666666666
            },
            {
              "pitch": 59,
              "velocity": 76,
              "position": 2.5,
              "duration": 0.2604166666666667
            },
            {
              "pitch": 59,
              "velocity": 84,
              "position": 3,
              "duration": 0.4166666666666667
            },
            {
              "pitch": 55,
              "velocity": 84,
              "position": 3,
              "duration": 0.42083333333333334
            },
            {
              "pitch": 59,
              "velocity": 76,
              "position": 3.5,
              "duration": 0.17916666666666667
            },
            {
              "pitch": 55,
              "velocity": 76,
              "position": 3.5,
              "duration": 0.1875
            }
          ]
        },
        "15": {
          "ctab": {
            "srcChannel": 15,
            "name": "Flute",
            "accType": "PHRASE2",
            "editable": false,
            "mutedNotes": [],
            "mutedChords": [],
            "autoStart": false,
            "sourceChordNote": 0,
            "sourceChordType": "Maj7",
            "ctb2Low": null,
            "ctb2Main": {
              "ntr": "ROOT_FIXED",
              "ntt": "CHORD",
              "bassOn": false,
              "chordRootUpperLimit": 7,
              "noteLowLimit": 0,
              "noteHighLimit": 127,
              "rtr": "PITCH_SHIFT"
            },
            "ctb2High": null
          },
          "notes": []
        }
      }
    },
    "Fill_In_CC": {
      "type": "Fill_In_CC",
      "sizeInBeats": 4,
      "channels": {
        "0": {
          "ctab": {
            "srcChannel": 0,
            "name": "CC_Crash",
            "accType": "SUBRHYTHM",
            "editable": false,
            "mutedNotes": [],
            "mutedChords": [
              "1+2+5",
              "sus4",
              "1+5",
              "1+8",
              "7aug",
              "Maj7aug",
              "7(#9)",
              "7(b13)",
              "7(b9)",
              "7(13)",
              "7#11",
              "7(9)",
              "7b5",
              "7sus4",
              "7th",
              "dim7",
              "dim",
              "minMaj7(9)",
              "minMaj7",
              "min7(11)",
              "min7(9)",
              "min(9)",
              "m7b5",
              "min7",
              "min6",
              "min",
              "aug",
              "Maj6(9)",
              "Maj7(9)",
              "Maj(9)",
              "Maj7#11",
              "Maj7",
              "Maj6",
              "Maj"
            ],
            "autoStart": true,
            "sourceChordNote": 0,
            "sourceChordType": "Maj7",
            "ctb2Low": null,
            "ctb2Main": {
              "ntr": "ROOT_FIXED",
              "ntt": "BYPASS",
              "bassOn": false,
              "chordRootUpperLimit": 6,
              "noteLowLimit": 0,
              "noteHighLimit": 127,
              "rtr": "RETRIGGER"
            },
            "ctb2High": null
          },
          "notes": []
        },
        "1": {
          "ctab": {
            "srcChannel": 1,
            "name": "Steeldea",
            "accType": "PHRASE1",
            "editable": false,
            "mutedNotes": [],
            "mutedChords": [],
            "autoStart": false,
            "sourceChordNote": 0,
            "sourceChordType": "Maj7",
            "ctb2Low": null,
            "ctb2Main": {
              "ntr": "ROOT_FIXED",
              "ntt": "BYPASS",
              "bassOn": false,
              "chordRootUpperLimit": 7,
              "noteLowLimit": 0,
              "noteHighLimit": 127,
              "rtr": "PITCH_SHIFT"
            },
            "ctb2High": null
          },
          "notes": [
            {
              "pitch": 112,
              "velocity": 73,
              "position": 0,
              "duration": 0.23958333333333334
            },
            {
              "pitch": 111,
              "velocity": 73,
              "position": 0.2916666666666667,
              "duration": 0.17708333333333334
            },
            {
              "pitch": 110,
              "velocity": 73,
              "position": 0.5,
              "duration": 0.23958333333333334
            },
            {
              "pitch": 111,
              "velocity": 73,
              "position": 0.7916666666666666,
              "duration": 0.17708333333333334
            },
            {
              "pitch": 112,
              "velocity": 73,
              "position": 1,
              "duration": 0.23958333333333334
            },
            {
              "pitch": 111,
              "velocity": 73,
              "position": 1.2916666666666667,
              "duration": 0.17708333333333334
            },
            {
              "pitch": 110,
              "velocity": 73,
              "position": 1.5,
              "duration": 0.23958333333333334
            },
            {
              "pitch": 109,
              "velocity": 73,
              "position": 1.7916666666666667,
              "duration": 0.17708333333333334
            },
            {
              "pitch": 108,
              "velocity": 73,
              "position": 2,
              "duration": 0.23958333333333334
            },
            {
              "pitch": 107,
              "velocity": 73,
              "position": 2.2916666666666665,
              "duration": 0.17708333333333334
            },
            {
              "pitch": 106,
              "velocity": 73,
              "position": 2.5,
              "duration": 0.23958333333333334
            },
            {
              "pitch": 105,
              "velocity": 73,
              "position": 2.7916666666666665,
              "duration": 0.17708333333333334
            },
            {
              "pitch": 112,
              "velocity": 73,
              "position": 3.2708333333333335,
              "duration": 0.17708333333333334
            },
            {
              "pitch": 111,
              "velocity": 73,
              "position": 3.4791666666666665,
              "duration": 0.23958333333333334
            },
            {
              "pitch": 110,
              "velocity": 73,
              "position": 3.7708333333333335,
              "duration": 0.17708333333333334
            }
          ]
        },
        "3": {
          "ctab": {
            "srcChannel": 3,
            "name": "Ep Root",
            "accType": "CHORD1",
            "editable": false,
            "mutedNotes": [],
            "mutedChords": [
              "1+2+5",
              "sus4",
              "1+5",
              "1+8",
              "Maj7aug",
              "dim",
              "minMaj7(9)",
              "minMaj7",
              "min6",
              "min",
              "aug",
              "Maj7(9)",
              "Maj7#11",
              "Maj7",
              "Maj6",
              "Maj"
            ],
            "autoStart": false,
            "sourceChordNote": 0,
            "sourceChordType": "Maj7",
            "ctb2Low": null,
            "ctb2Main": {
              "ntr": "ROOT_TRANSPOSITION",
              "ntt": "MELODY",
              "bassOn": false,
              "chordRootUpperLimit": 10,
              "noteLowLimit": 0,
              "noteHighLimit": 127,
              "rtr": "PITCH_SHIFT"
            },
            "ctb2High": null
          },
          "notes": [
            {
              "pitch": 60,
              "velocity": 45,
              "position": 0.5,
              "duration": 0.2520833333333333
            },
            {
              "pitch": 60,
              "velocity": 46,
              "position": 1.5,
              "duration": 0.21041666666666667
            },
            {
              "pitch": 60,
              "velocity": 39,
              "position": 2.5,
              "duration": 0.3020833333333333
            },
            {
              "pitch": 60,
              "velocity": 47,
              "position": 3,
              "duration": 0.22916666666666666
            },
            {
              "pitch": 60,
              "velocity": 49,
              "position": 3.5,
              "duration": 0.2520833333333333
            }
          ]
        },
        "5": {
          "ctab": {
            "srcChannel": 5,
            "name": "Str Root",
            "accType": "PAD",
            "editable": false,
            "mutedNotes": [],
            "mutedChords": [
              "1+2+5",
              "sus4",
              "1+5",
              "1+8",
              "Maj7aug",
              "dim",
              "minMaj7(9)",
              "minMaj7",
              "min6",
              "min",
              "aug",
              "Maj7(9)",
              "Maj7#11",
              "Maj7",
              "Maj6",
              "Maj"
            ],
            "autoStart": false,
            "sourceChordNote": 0,
            "sourceChordType": "Maj7",
            "ctb2Low": null,
            "ctb2Main": {
              "ntr": "ROOT_TRANSPOSITION",
              "ntt": "MELODY",
              "bassOn": false,
              "chordRootUpperLimit": 6,
              "noteLowLimit": 0,
              "noteHighLimit": 127,
              "rtr": "PITCH_SHIFT"
            },
            "ctb2High": null
          },
          "notes": []
        },
        "8": {
          "ctab": {
            "srcChannel": 8,
            "name": "Perc",
            "accType": "SUBRHYTHM",
            "editable": false,
            "mutedNotes": [],
            "mutedChords": [],
            "autoStart": true,
            "sourceChordNote": 0,
            "sourceChordType": "Maj7",
            "ctb2Low": null,
            "ctb2Main": {
              "ntr": "ROOT_FIXED",
              "ntt": "BYPASS",
              "bassOn": false,
              "chordRootUpperLimit": 6,
              "noteLowLimit": 0,
              "noteHighLimit": 127,
              "rtr": "PITCH_SHIFT"
            },
            "ctb2High": null
          },
          "notes": [
            {
              "pitch": 42,
              "velocity": 71,
              "position": 0,
              "duration": 0.010416666666666666
            },
            {
              "pitch": 46,
              "velocity": 26,
              "position": 0,
              "duration": 0.010416666666666666
            },
            {
              "pitch": 82,
              "velocity": 70,
              "position": 0,
              "duration": 0.010416666666666666
            },
            {
              "pitch": 42,
              "velocity": 46,
              "position": 0.5,
              "duration": 0.010416666666666666
            },
            {
              "pitch": 69,
              "velocity": 42,
              "position": 0.5,
              "duration": 0.010416666666666666
            },
            {
              "pitch": 82,
              "velocity": 70,
              "position": 0.5,
              "duration": 0.010416666666666666
            },
            {
              "pitch": 42,
              "velocity": 31,
              "position": 0.7916666666666666,
              "duration": 0.010416666666666666
            },
            {
              "pitch": 42,
              "velocity": 54,
              "position": 1,
              "duration": 0.010416666666666666
            },
            {
              "pitch": 46,
              "velocity": 24,
              "position": 1,
              "duration": 0.010416666666666666
            },
            {
              "pitch": 54,
              "velocity": 58,
              "position": 1,
              "duration": 0.010416666666666666
            },
            {
              "pitch": 82,
              "velocity": 70,
              "position": 1,
              "duration": 0.010416666666666666
            },
            {
              "pitch": 69,
              "velocity": 46,
              "position": 1.5,
              "duration": 0.010416666666666666
            },
            {
              "pitch": 82,
              "velocity": 70,
              "position": 1.5,
              "duration": 0.010416666666666666
            },
            {
              "pitch": 46,
              "velocity": 30,
              "position": 2,
              "duration": 0.010416666666666666
            },
            {
              "pitch": 82,
              "velocity": 70,
              "position": 2,
              "duration": 0.010416666666666666
            },
            {
              "pitch": 82,
              "velocity": 70,
              "position": 2.5,
              "duration": 0.010416666666666666
            },
            {
              "pitch": 42,
              "velocity": 40,
              "position": 2.7916666666666665,
              "duration": 0.010416666666666666
            },
            {
              "pitch": 42,
              "velocity": 37,
              "position": 3,
              "duration": 0.010416666666666666
            },
            {
              "pitch": 46,
              "velocity": 34,
              "position": 3,
              "duration": 0.010416666666666666
            },
            {
              "pitch": 54,
              "velocity": 57,
              "position": 3,
              "duration": 0.010416666666666666
            },
            {
              "pitch": 69,
              "velocity": 47,
              "position": 3,
              "duration": 0.010416666666666666
            },
            {
              "pitch": 82,
              "velocity": 70,
              "position": 3,
              "duration": 0.010416666666666666
            },
            {
              "pitch": 42,
              "velocity": 30,
              "position": 3.2916666666666665,
              "duration": 0.010416666666666666
            },
            {
              "pitch": 46,
              "velocity": 47,
              "position": 3.5,
              "duration": 0.010416666666666666
            },
            {
              "pitch": 69,
              "velocity": 46,
              "position": 3.5,
              "duration": 0.010416666666666666
            },
            {
              "pitch": 82,
              "velocity": 70,
              "position": 3.5,
              "duration": 0.010416666666666666
            },
            {
              "pitch": 69,
              "velocity": 53,
              "position": 3.7916666666666665,
              "duration": 0.010416666666666666
            }
          ]
        },
        "9": {
          "ctab": {
            "srcChannel": 9,
            "name": "Drums",
            "accType": "RHYTHM",
            "editable": false,
            "mutedNotes": [],
            "mutedChords": [],
            "autoStart": true,
            "sourceChordNote": 0,
            "sourceChordType": "Maj7",
            "ctb2Low": null,
            "ctb2Main": {
              "ntr": "ROOT_FIXED",
              "ntt": "BYPASS",
              "bassOn": false,
              "chordRootUpperLimit": 6,
              "noteLowLimit": 0,
              "noteHighLimit": 127,
              "rtr": "PITCH_SHIFT"
            },
            "ctb2High": null
          },
          "notes": [
            {
              "pitch": 36,
              "velocity": 77,
              "position": 0,
              "duration": 0.010416666666666666
            },
            {
              "pitch": 36,
              "velocity": 77,
              "position": 1,
              "duration": 0.010416666666666666
            },
            {
              "pitch": 36,
              "velocity": 77,
              "position": 2,
              "duration": 0.010416666666666666
            },
            {
              "pitch": 79,
              "velocity": 47,
              "position": 1.7916666666666667,
              "duration": 0.23958333333333334
            },
            {
              "pitch": 78,
              "velocity": 35,
              "position": 2,
              "duration": 0.23958333333333334
            },
            {
              "pitch": 79,
              "velocity": 46,
              "position": 2.2916666666666665,
              "duration": 0.23958333333333334
            },
            {
              "pitch": 78,
              "velocity": 35,
              "position": 2.5,
              "duration": 0.23958333333333334
            },
            {
              "pitch": 35,
              "velocity": 57,
              "position": 3.3125,
              "duration": 0.010416666666666666
            },
            {
              "pitch": 32,
              "velocity": 41,
              "position": 3.5,
              "duration": 0.010416666666666666
            },
            {
              "pitch": 36,
              "velocity": 77,
              "position": 3.5,
              "duration": 0.010416666666666666
            },
            {
              "pitch": 35,
              "velocity": 41,
              "position": 3.8125,
              "duration": 0.010416666666666666
            }
          ]
        },
        "10": {
          "ctab": {
            "srcChannel": 10,
            "name": "Bass",
            "accType": "BASS",
            "editable": false,
            "mutedNotes": [],
            "mutedChords": [],
            "autoStart": false,
            "sourceChordNote": 0,
            "sourceChordType": "Maj7",
            "ctb2Low": null,
            "ctb2Main": {
              "ntr": "ROOT_TRANSPOSITION",
              "ntt": "MELODY",
              "bassOn": true,
              "chordRootUpperLimit": 3,
              "noteLowLimit": 28,
              "noteHighLimit": 127,
              "rtr": "PITCH_SHIFT_TO_ROOT"
            },
            "ctb2High": null
          },
          "notes": [
            {
              "pitch": 24,
              "velocity": 95,
              "position": 0,
              "duration": 0.3958333333333333
            },
            {
              "pitch": 24,
              "velocity": 95,
              "position": 1,
              "duration": 0.41875
            },
            {
              "pitch": 24,
              "velocity": 95,
              "position": 2,
              "duration": 0.40625
            },
            {
              "pitch": 24,
              "velocity": 95,
              "position": 3.5,
              "duration": 0.40625
            }
          ]
        },
        "11": {
          "ctab": {
            "srcChannel": 11,
            "name": "Ep",
            "accType": "CHORD1",
            "editable": false,
            "mutedNotes": [],
            "mutedChords": [],
            "autoStart": false,
            "sourceChordNote": 0,
            "sourceChordType": "Maj7",
            "ctb2Low": null,
            "ctb2Main": {
              "ntr": "ROOT_FIXED",
              "ntt": "CHORD",
              "bassOn": false,
              "chordRootUpperLimit": 4,
              "noteLowLimit": 0,
              "noteHighLimit": 127,
              "rtr": "PITCH_SHIFT"
            },
            "ctb2High": null
          },
          "notes": [
            {
              "pitch": 59,
              "velocity": 45,
              "position": 0.5,
              "duration": 0.2520833333333333
            },
            {
              "pitch": 64,
              "velocity": 48,
              "position": 0.5,
              "duration": 0.28125
            },
            {
              "pitch": 67,
              "velocity": 47,
              "position": 0.5,
              "duration": 0.28125
            },
            {
              "pitch": 59,
              "velocity": 46,
              "position": 1.5,
              "duration": 0.21041666666666667
            },
            {
              "pitch": 64,
              "velocity": 49,
              "position": 1.5,
              "duration": 0.22916666666666666
            },
            {
              "pitch": 67,
              "velocity": 52,
              "position": 1.5,
              "duration": 0.25416666666666665
            },
            {
              "pitch": 59,
              "velocity": 39,
              "position": 2.5,
              "duration": 0.3020833333333333
            },
            {
              "pitch": 64,
              "velocity": 38,
              "position": 2.5,
              "duration": 0.34375
            },
            {
              "pitch": 67,
              "velocity": 44,
              "position": 2.5,
              "duration": 0.3854166666666667
            },
            {
              "pitch": 59,
              "velocity": 47,
              "position": 3,
              "duration": 0.22916666666666666
            },
            {
              "pitch": 64,
              "velocity": 54,
              "position": 3,
              "duration": 0.22916666666666666
            },
            {
              "pitch": 67,
              "velocity": 57,
              "position": 3,
              "duration": 0.28541666666666665
            },
            {
              "pitch": 59,
              "velocity": 49,
              "position": 3.5,
              "duration": 0.2520833333333333
            },
            {
              "pitch": 64,
              "velocity": 55,
              "position": 3.5,
              "duration": 0.28125
            },
            {
              "pitch": 67,
              "velocity": 58,
              "position": 3.5,
              "duration": 0.30625
            }
          ]
        },
        "12": {
          "ctab": {
            "srcChannel": 12,
            "name": "JzGtr",
            "accType": "CHORD2",
            "editable": false,
            "mutedNotes": [],
            "mutedChords": [],
            "autoStart": false,
            "sourceChordNote": 0,
            "sourceChordType": "Maj7",
            "ctb2Low": null,
            "ctb2Main": {
              "ntr": "ROOT_FIXED",
              "ntt": "CHORD",
              "bassOn": false,
              "chordRootUpperLimit": 7,
              "noteLowLimit": 0,
              "noteHighLimit": 127,
              "rtr": "PITCH_SHIFT"
            },
            "ctb2High": null
          },
          "notes": [
            {
              "pitch": 59,
              "velocity": 33,
              "position": 0,
              "duration": 0.2
            },
            {
              "pitch": 55,
              "velocity": 38,
              "position": 0,
              "duration": 0.22291666666666668
            },
            {
              "pitch": 64,
              "velocity": 40,
              "position": 0,
              "duration": 0.23333333333333334
            },
            {
              "pitch": 59,
              "velocity": 42,
              "position": 0.5,
              "duration": 0.24166666666666667
            },
            {
              "pitch": 55,
              "velocity": 35,
              "position": 0.5,
              "duration": 0.25
            },
            {
              "pitch": 64,
              "velocity": 42,
              "position": 0.5,
              "duration": 0.275
            },
            {
              "pitch": 59,
              "velocity": 36,
              "position": 1.5,
              "duration": 0.25
            },
            {
              "pitch": 55,
              "velocity": 31,
              "position": 1.5,
              "duration": 0.2708333333333333
            },
            {
              "pitch": 64,
              "velocity": 32,
              "position": 1.5,
              "duration": 0.275
            },
            {
              "pitch": 55,
              "velocity": 35,
              "position": 2,
              "duration": 0.25416666666666665
            },
            {
              "pitch": 59,
              "velocity": 31,
              "position": 2,
              "duration": 0.25416666666666665
            },
            {
              "pitch": 64,
              "velocity": 41,
              "position": 2,
              "duration": 0.25416666666666665
            },
            {
              "pitch": 59,
              "velocity": 40,
              "position": 2.7916666666666665,
              "duration": 0.21875
            },
            {
              "pitch": 55,
              "velocity": 37,
              "position": 2.7916666666666665,
              "duration": 0.22916666666666666
            },
            {
              "pitch": 64,
              "velocity": 43,
              "position": 2.7916666666666665,
              "duration": 0.25416666666666665
            },
            {
              "pitch": 55,
              "velocity": 30,
              "position": 3.2916666666666665,
              "duration": 0.17916666666666667
            },
            {
              "pitch": 59,
              "velocity": 43,
              "position": 3.5,
              "duration": 0.41041666666666665
            },
            {
              "pitch": 55,
              "velocity": 30,
              "position": 3.7916666666666665,
              "duration": 0.1375
            }
          ]
        },
        "13": {
          "ctab": {
            "srcChannel": 13,
            "name": "Strings",
            "accType": "PAD",
            "editable": false,
            "mutedNotes": [],
            "mutedChords": [],
            "autoStart": false,
            "sourceChordNote": 0,
            "sourceChordType": "Maj7",
            "ctb2Low": null,
            "ctb2Main": {
              "ntr": "ROOT_FIXED",
              "ntt": "CHORD",
              "bassOn": false,
              "chordRootUpperLimit": 7,
              "noteLowLimit": 0,
              "noteHighLimit": 127,
              "rtr": "PITCH_SHIFT"
            },
            "ctb2High": null
          },
          "notes": []
        },
        "14": {
          "ctab": {
            "srcChannel": 14,
            "name": "SteelMsw",
            "accType": "PHRASE1",
            "editable": false,
            "mutedNotes": [],
            "mutedChords": [],
            "autoStart": false,
            "sourceChordNote": 0,
            "sourceChordType": "Maj7",
            "ctb2Low": null,
            "ctb2Main": {
              "ntr": "ROOT_FIXED",
              "ntt": "CHORD",
              "bassOn": false,
              "chordRootUpperLimit": 7,
              "noteLowLimit": 0,
              "noteHighLimit": 127,
              "rtr": "PITCH_SHIFT"
            },
            "ctb2High": null
          },
          "notes": [
            {
              "pitch": 55,
              "velocity": 112,
              "position": 2.75,
              "duration": 0.4895833333333333
            },
            {
              "pitch": 59,
              "velocity": 112,
              "position": 2.75,
              "duration": 0.4895833333333333
            },
            {
              "pitch": 64,
              "velocity": 112,
              "position": 2.75,
              "duration": 0.4895833333333333
            },
            {
              "pitch": 67,
              "velocity": 112,
              "position": 2.75,
              "duration": 0.4895833333333333
            },
            {
              "pitch": 71,
              "velocity": 112,
              "position": 2.75,
              "duration": 0.4895833333333333
            }
          ]
        },
        "15": {
          "ctab": {
            "srcChannel": 15,
            "name": "Flute",
            "accType": "PHRASE2",
            "editable": false,
            "mutedNotes": [],
            "mutedChords": [],
            "autoStart": false,
            "sourceChordNote": 0,
            "sourceChordType": "Maj7",
            "ctb2Low": null,
            "ctb2Main": {
              "ntr": "ROOT_FIXED",
              "ntt": "CHORD",
              "bassOn": false,
              "chordRootUpperLimit": 7,
              "noteLowLimit": 0,
              "noteHighLimit": 127,
              "rtr": "PITCH_SHIFT"
            },
            "ctb2High": null
          },
          "notes": []
        }
      }
    },
    "Fill_In_DD": {
      "type": "Fill_In_DD",
      "sizeInBeats": 4,
      "channels": {
        "0": {
          "ctab": {
            "srcChannel": 0,
            "name": "CC_Crash",
            "accType": "SUBRHYTHM",
            "editable": false,
            "mutedNotes": [],
            "mutedChords": [
              "1+2+5",
              "sus4",
              "1+5",
              "1+8",
              "7aug",
              "Maj7aug",
              "7(#9)",
              "7(b13)",
              "7(b9)",
              "7(13)",
              "7#11",
              "7(9)",
              "7b5",
              "7sus4",
              "7th",
              "dim7",
              "dim",
              "minMaj7(9)",
              "minMaj7",
              "min7(11)",
              "min7(9)",
              "min(9)",
              "m7b5",
              "min7",
              "min6",
              "min",
              "aug",
              "Maj6(9)",
              "Maj7(9)",
              "Maj(9)",
              "Maj7#11",
              "Maj7",
              "Maj6",
              "Maj"
            ],
            "autoStart": true,
            "sourceChordNote": 0,
            "sourceChordType": "Maj7",
            "ctb2Low": null,
            "ctb2Main": {
              "ntr": "ROOT_FIXED",
              "ntt": "BYPASS",
              "bassOn": false,
              "chordRootUpperLimit": 6,
              "noteLowLimit": 0,
              "noteHighLimit": 127,
              "rtr": "RETRIGGER"
            },
            "ctb2High": null
          },
          "notes": []
        },
        "1": {
          "ctab": {
            "srcChannel": 1,
            "name": "Steeldea",
            "accType": "PHRASE1",
            "editable": false,
            "mutedNotes": [],
            "mutedChords": [],
            "autoStart": false,
            "sourceChordNote": 0,
            "sourceChordType": "Maj7",
            "ctb2Low": null,
            "ctb2Main": {
              "ntr": "ROOT_FIXED",
              "ntt": "BYPASS",
              "bassOn": false,
              "chordRootUpperLimit": 7,
              "noteLowLimit": 0,
              "noteHighLimit": 127,
              "rtr": "PITCH_SHIFT"
            },
            "ctb2High": null
          },
          "notes": [
            {
              "pitch": 110,
              "velocity": 46,
              "position": 0.5,
              "duration": 0.23958333333333334
            },
            {
              "pitch": 110,
              "velocity": 46,
              "position": 1.5,
              "duration": 0.23958333333333334
            },
            {
              "pitch": 110,
              "velocity": 46,
              "position": 2.5,
              "duration": 0.23958333333333334
            }
          ]
        },
        "3": {
          "ctab": {
            "srcChannel": 3,
            "name": "Ep Root",
            "accType": "CHORD1",
            "editable": false,
            "mutedNotes": [],
            "mutedChords": [
              "1+2+5",
              "sus4",
              "1+5",
              "1+8",
              "Maj7aug",
              "dim",
              "minMaj7(9)",
              "minMaj7",
              "min6",
              "min",
              "aug",
              "Maj7(9)",
              "Maj7#11",
              "Maj7",
              "Maj6",
              "Maj"
            ],
            "autoStart": false,
            "sourceChordNote": 0,
            "sourceChordType": "Maj7",
            "ctb2Low": null,
            "ctb2Main": {
              "ntr": "ROOT_TRANSPOSITION",
              "ntt": "MELODY",
              "bassOn": false,
              "chordRootUpperLimit": 10,
              "noteLowLimit": 0,
              "noteHighLimit": 127,
              "rtr": "PITCH_SHIFT"
            },
            "ctb2High": null
          },
          "notes": [
            {
              "pitch": 60,
              "velocity": 37,
              "position": 0.5,
              "duration": 0.16875
            },
            {
              "pitch": 60,
              "velocity": 40,
              "position": 1.5,
              "duration": 0.15833333333333333
            }
          ]
        },
        "5": {
          "ctab": {
            "srcChannel": 5,
            "name": "Str Root",
            "accType": "PAD",
            "editable": false,
            "mutedNotes": [],
            "mutedChords": [
              "1+2+5",
              "sus4",
              "1+5",
              "1+8",
              "Maj7aug",
              "dim",
              "minMaj7(9)",
              "minMaj7",
              "min6",
              "min",
              "aug",
              "Maj7(9)",
              "Maj7#11",
              "Maj7",
              "Maj6",
              "Maj"
            ],
            "autoStart": false,
            "sourceChordNote": 0,
            "sourceChordType": "Maj7",
            "ctb2Low": null,
            "ctb2Main": {
              "ntr": "ROOT_TRANSPOSITION",
              "ntt": "MELODY",
              "bassOn": false,
              "chordRootUpperLimit": 6,
              "noteLowLimit": 0,
              "noteHighLimit": 127,
              "rtr": "PITCH_SHIFT"
            },
            "ctb2High": null
          },
          "notes": []
        },
        "8": {
          "ctab": {
            "srcChannel": 8,
            "name": "Perc",
            "accType": "SUBRHYTHM",
            "editable": false,
            "mutedNotes": [],
            "mutedChords": [],
            "autoStart": true,
            "sourceChordNote": 0,
            "sourceChordType": "Maj7",
            "ctb2Low": null,
            "ctb2Main": {
              "ntr": "ROOT_FIXED",
              "ntt": "BYPASS",
              "bassOn": false,
              "chordRootUpperLimit": 6,
              "noteLowLimit": 0,
              "noteHighLimit": 127,
              "rtr": "PITCH_SHIFT"
            },
            "ctb2High": null
          },
          "notes": [
            {
              "pitch": 54,
              "velocity": 53,
              "position": 0,
              "duration": 0.010416666666666666
            },
            {
              "pitch": 56,
              "velocity": 50,
              "position": 0,
              "duration": 0.010416666666666666
            },
            {
              "pitch": 82,
              "velocity": 70,
              "position": 0,
              "duration": 0.010416666666666666
            },
            {
              "pitch": 84,
              "velocity": 50,
              "position": 0,
              "duration": 0.010416666666666666
            },
            {
              "pitch": 54,
              "velocity": 40,
              "position": 0.5,
              "duration": 0.010416666666666666
            },
            {
              "pitch": 82,
              "velocity": 70,
              "position": 0.5,
              "duration": 0.010416666666666666
            },
            {
              "pitch": 82,
              "velocity": 35,
              "position": 0.7916666666666666,
              "duration": 0.010416666666666666
            },
            {
              "pitch": 54,
              "velocity": 51,
              "position": 1,
              "duration": 0.010416666666666666
            },
            {
              "pitch": 56,
              "velocity": 50,
              "position": 1,
              "duration": 0.010416666666666666
            },
            {
              "pitch": 82,
              "velocity": 70,
              "position": 1,
              "duration": 0.010416666666666666
            },
            {
              "pitch": 54,
              "velocity": 44,
              "position": 1.5,
              "duration": 0.010416666666666666
            },
            {
              "pitch": 82,
              "velocity": 70,
              "position": 1.5,
              "duration": 0.010416666666666666
            },
            {
              "pitch": 82,
              "velocity": 35,
              "position": 1.7916666666666667,
              "duration": 0.010416666666666666
            },
            {
              "pitch": 54,
              "velocity": 48,
              "position": 2,
              "duration": 0.010416666666666666
            },
            {
              "pitch": 56,
              "velocity": 50,
              "position": 2,
              "duration": 0.010416666666666666
            },
            {
              "pitch": 82,
              "velocity": 70,
              "position": 2,
              "duration": 0.010416666666666666
            },
            {
              "pitch": 54,
              "velocity": 36,
              "position": 2.5,
              "duration": 0.010416666666666666
            },
            {
              "pitch": 82,
              "velocity": 70,
              "position": 2.5,
              "duration": 0.010416666666666666
            },
            {
              "pitch": 82,
              "velocity": 35,
              "position": 2.7916666666666665,
              "duration": 0.010416666666666666
            },
            {
              "pitch": 54,
              "velocity": 55,
              "position": 3,
              "duration": 0.010416666666666666
            },
            {
              "pitch": 56,
              "velocity": 50,
              "position": 3,
              "duration": 0.010416666666666666
            },
            {
              "pitch": 82,
              "velocity": 70,
              "position": 3,
              "duration": 0.010416666666666666
            },
            {
              "pitch": 54,
              "velocity": 45,
              "position": 3.5,
              "duration": 0.010416666666666666
            },
            {
              "pitch": 82,
              "velocity": 70,
              "position": 3.5,
              "duration": 0.010416666666666666
            }
          ]
        },
        "9": {
          "ctab": {
            "srcChannel": 9,
            "name": "Drums",
            "accType": "RHYTHM",
            "editable": false,
            "mutedNotes": [],
            "mutedChords": [],
            "autoStart": true,
            "sourceChordNote": 0,
            "sourceChordType": "Maj7",
            "ctb2Low": null,
            "ctb2Main": {
              "ntr": "ROOT_FIXED",
              "ntt": "BYPASS",
              "bassOn": false,
              "chordRootUpperLimit": 6,
              "noteLowLimit": 0,
              "noteHighLimit": 127,
              "rtr": "PITCH_SHIFT"
            },
            "ctb2High": null
          },
          "notes": [
            {
              "pitch": 17,
              "velocity": 70,
              "position": 3,
              "duration": 0.23958333333333334
            },
            {
              "pitch": 18,
              "velocity": 70,
              "position": 3.2604166666666665,
              "duration": 0.23958333333333334
            },
            {
              "pitch": 22,
              "velocity": 45,
              "position": 3.625,
              "duration": 0.010416666666666666
            },
            {
              "pitch": 17,
              "velocity": 70,
              "position": 3.5,
              "duration": 0.23958333333333334
            },
            {
              "pitch": 28,
              "velocity": 30,
              "position": 2.5,
              "duration": 1.46875
            }
          ]
        },
        "10": {
          "ctab": {
            "srcChannel": 10,
            "name": "Bass",
            "accType": "BASS",
            "editable": false,
            "mutedNotes": [],
            "mutedChords": [],
            "autoStart": false,
            "sourceChordNote": 0,
            "sourceChordType": "Maj7",
            "ctb2Low": null,
            "ctb2Main": {
              "ntr": "ROOT_TRANSPOSITION",
              "ntt": "MELODY",
              "bassOn": true,
              "chordRootUpperLimit": 3,
              "noteLowLimit": 28,
              "noteHighLimit": 127,
              "rtr": "PITCH_SHIFT_TO_ROOT"
            },
            "ctb2High": null
          },
          "notes": [
            {
              "pitch": 24,
              "velocity": 95,
              "position": 0,
              "duration": 0.3229166666666667
            },
            {
              "pitch": 24,
              "velocity": 95,
              "position": 1,
              "duration": 0.3229166666666667
            },
            {
              "pitch": 24,
              "velocity": 95,
              "position": 2,
              "duration": 0.3229166666666667
            },
            {
              "pitch": 24,
              "velocity": 53,
              "position": 2.7083333333333335,
              "duration": 0.28125
            },
            {
              "pitch": 36,
              "velocity": 95,
              "position": 3,
              "duration": 0.9791666666666666
            }
          ]
        },
        "11": {
          "ctab": {
            "srcChannel": 11,
            "name": "Ep",
            "accType": "CHORD1",
            "editable": false,
            "mutedNotes": [],
            "mutedChords": [],
            "autoStart": false,
            "sourceChordNote": 0,
            "sourceChordType": "Maj7",
            "ctb2Low": null,
            "ctb2Main": {
              "ntr": "ROOT_FIXED",
              "ntt": "CHORD",
              "bassOn": false,
              "chordRootUpperLimit": 4,
              "noteLowLimit": 0,
              "noteHighLimit": 127,
              "rtr": "PITCH_SHIFT"
            },
            "ctb2High": null
          },
          "notes": [
            {
              "pitch": 59,
              "velocity": 37,
              "position": 0.5,
              "duration": 0.16875
            },
            {
              "pitch": 64,
              "velocity": 55,
              "position": 0.5,
              "duration": 0.17916666666666667
            },
            {
              "pitch": 67,
              "velocity": 46,
              "position": 0.5,
              "duration": 0.17916666666666667
            },
            {
              "pitch": 59,
              "velocity": 40,
              "position": 1.5,
              "duration": 0.15833333333333333
            },
            {
              "pitch": 67,
              "velocity": 42,
              "position": 1.5,
              "duration": 0.15833333333333333
            },
            {
              "pitch": 64,
              "velocity": 55,
              "position": 1.5,
              "duration": 0.19791666666666666
            }
          ]
        },
        "12": {
          "ctab": {
            "srcChannel": 12,
            "name": "JzGtr",
            "accType": "CHORD2",
            "editable": false,
            "mutedNotes": [],
            "mutedChords": [],
            "autoStart": false,
            "sourceChordNote": 0,
            "sourceChordType": "Maj7",
            "ctb2Low": null,
            "ctb2Main": {
              "ntr": "ROOT_FIXED",
              "ntt": "CHORD",
              "bassOn": false,
              "chordRootUpperLimit": 7,
              "noteLowLimit": 0,
              "noteHighLimit": 127,
              "rtr": "PITCH_SHIFT"
            },
            "ctb2High": null
          },
          "notes": [
            {
              "pitch": 55,
              "velocity": 36,
              "position": 0,
              "duration": 0.2791666666666667
            },
            {
              "pitch": 59,
              "velocity": 36,
              "position": 0,
              "duration": 0.2791666666666667
            },
            {
              "pitch": 64,
              "velocity": 36,
              "position": 0,
              "duration": 0.2791666666666667
            },
            {
              "pitch": 55,
              "velocity": 57,
              "position": 1,
              "duration": 0.29583333333333334
            },
            {
              "pitch": 59,
              "velocity": 57,
              "position": 1,
              "duration": 0.29583333333333334
            },
            {
              "pitch": 64,
              "velocity": 57,
              "position": 1,
              "duration": 0.29583333333333334
            },
            {
              "pitch": 55,
              "velocity": 40,
              "position": 1.7916666666666667,
              "duration": 0.19166666666666668
            },
            {
              "pitch": 59,
              "velocity": 40,
              "position": 1.7916666666666667,
              "duration": 0.19166666666666668
            },
            {
              "pitch": 64,
              "velocity": 40,
              "position": 1.7916666666666667,
              "duration": 0.19166666666666668
            },
            {
              "pitch": 55,
              "velocity": 56,
              "position": 2,
              "duration": 0.28125
            },
            {
              "pitch": 59,
              "velocity": 56,
              "position": 2,
              "duration": 0.28125
            },
            {
              "pitch": 64,
              "velocity": 56,
              "position": 2,
              "duration": 0.28125
            },
            {
              "pitch": 55,
              "velocity": 43,
              "position": 2.7916666666666665,
              "duration": 0.6979166666666666
            },
            {
              "pitch": 59,
              "velocity": 29,
              "position": 2.7916666666666665,
              "duration": 0.6979166666666666
            },
            {
              "pitch": 64,
              "velocity": 50,
              "position": 2.7916666666666665,
              "duration": 0.6979166666666666
            },
            {
              "pitch": 55,
              "velocity": 46,
              "position": 3.5,
              "duration": 0.25416666666666665
            },
            {
              "pitch": 59,
              "velocity": 46,
              "position": 3.5,
              "duration": 0.25416666666666665
            },
            {
              "pitch": 64,
              "velocity": 46,
              "position": 3.5,
              "duration": 0.25416666666666665
            }
          ]
        },
        "13": {
          "ctab": {
            "srcChannel": 13,
            "name": "Strings",
            "accType": "PAD",
            "editable": false,
            "mutedNotes": [],
            "mutedChords": [],
            "autoStart": false,
            "sourceChordNote": 0,
            "sourceChordType": "Maj7",
            "ctb2Low": null,
            "ctb2Main": {
              "ntr": "ROOT_FIXED",
              "ntt": "CHORD",
              "bassOn": false,
              "chordRootUpperLimit": 7,
              "noteLowLimit": 0,
              "noteHighLimit": 127,
              "rtr": "PITCH_SHIFT"
            },
            "ctb2High": null
          },
          "notes": []
        },
        "14": {
          "ctab": {
            "srcChannel": 14,
            "name": "SteelMsw",
            "accType": "PHRASE1",
            "editable": false,
            "mutedNotes": [],
            "mutedChords": [],
            "autoStart": false,
            "sourceChordNote": 0,
            "sourceChordType": "Maj7",
            "ctb2Low": null,
            "ctb2Main": {
              "ntr": "ROOT_FIXED",
              "ntt": "CHORD",
              "bassOn": false,
              "chordRootUpperLimit": 7,
              "noteLowLimit": 0,
              "noteHighLimit": 127,
              "rtr": "PITCH_SHIFT"
            },
            "ctb2High": null
          },
          "notes": [
            {
              "pitch": 59,
              "velocity": 95,
              "position": 0,
              "duration": 0.53125
            },
            {
              "pitch": 64,
              "velocity": 95,
              "position": 0,
              "duration": 0.53125
            },
            {
              "pitch": 67,
              "velocity": 95,
              "position": 0,
              "duration": 0.53125
            },
            {
              "pitch": 59,
              "velocity": 94,
              "position": 0.7916666666666666,
              "duration": 0.19791666666666666
            },
            {
              "pitch": 64,
              "velocity": 94,
              "position": 0.7916666666666666,
              "duration": 0.19791666666666666
            },
            {
              "pitch": 67,
              "velocity": 94,
              "position": 0.7916666666666666,
              "duration": 0.19791666666666666
            },
            {
              "pitch": 59,
              "velocity": 94,
              "position": 1,
              "duration": 0.53125
            },
            {
              "pitch": 64,
              "velocity": 94,
              "position": 1,
              "duration": 0.53125
            },
            {
              "pitch": 67,
              "velocity": 94,
              "position": 1,
              "duration": 0.53125
            },
            {
              "pitch": 59,
              "velocity": 94,
              "position": 1.7916666666666667,
              "duration": 0.19791666666666666
            },
            {
              "pitch": 64,
              "velocity": 94,
              "position": 1.7916666666666667,
              "duration": 0.19791666666666666
            },
            {
              "pitch": 67,
              "velocity": 94,
              "position": 1.7916666666666667,
              "duration": 0.19791666666666666
            },
            {
              "pitch": 59,
              "velocity": 94,
              "position": 2,
              "duration": 0.53125
            },
            {
              "pitch": 64,
              "velocity": 94,
              "position": 2,
              "duration": 0.53125
            },
            {
              "pitch": 67,
              "velocity": 94,
              "position": 2,
              "duration": 0.53125
            },
            {
              "pitch": 59,
              "velocity": 112,
              "position": 2.7916666666666665,
              "duration": 1.1979166666666667
            },
            {
              "pitch": 64,
              "velocity": 112,
              "position": 2.7916666666666665,
              "duration": 1.1979166666666667
            },
            {
              "pitch": 67,
              "velocity": 112,
              "position": 2.7916666666666665,
              "duration": 1.1979166666666667
            }
          ]
        },
        "15": {
          "ctab": {
            "srcChannel": 15,
            "name": "Flute",
            "accType": "PHRASE2",
            "editable": false,
            "mutedNotes": [],
            "mutedChords": [],
            "autoStart": false,
            "sourceChordNote": 0,
            "sourceChordType": "Maj7",
            "ctb2Low": null,
            "ctb2Main": {
              "ntr": "ROOT_FIXED",
              "ntt": "CHORD",
              "bassOn": false,
              "chordRootUpperLimit": 7,
              "noteLowLimit": 0,
              "noteHighLimit": 127,
              "rtr": "PITCH_SHIFT"
            },
            "ctb2High": null
          },
          "notes": []
        }
      }
    },
    "Intro_A": {
      "type": "Intro_A",
      "sizeInBeats": 4,
      "channels": {
        "0": {
          "ctab": {
            "srcChannel": 0,
            "name": "CC_Crash",
            "accType": "SUBRHYTHM",
            "editable": false,
            "mutedNotes": [],
            "mutedChords": [
              "1+2+5",
              "sus4",
              "1+5",
              "1+8",
              "7aug",
              "Maj7aug",
              "7(#9)",
              "7(b13)",
              "7(b9)",
              "7(13)",
              "7#11",
              "7(9)",
              "7b5",
              "7sus4",
              "7th",
              "dim7",
              "dim",
              "minMaj7(9)",
              "minMaj7",
              "min7(11)",
              "min7(9)",
              "min(9)",
              "m7b5",
              "min7",
              "min6",
              "min",
              "aug",
              "Maj6(9)",
              "Maj7(9)",
              "Maj(9)",
              "Maj7#11",
              "Maj7",
              "Maj6",
              "Maj"
            ],
            "autoStart": true,
            "sourceChordNote": 0,
            "sourceChordType": "Maj7",
            "ctb2Low": null,
            "ctb2Main": {
              "ntr": "ROOT_FIXED",
              "ntt": "BYPASS",
              "bassOn": false,
              "chordRootUpperLimit": 6,
              "noteLowLimit": 0,
              "noteHighLimit": 127,
              "rtr": "RETRIGGER"
            },
            "ctb2High": null
          },
          "notes": []
        },
        "1": {
          "ctab": {
            "srcChannel": 1,
            "name": "Steeldea",
            "accType": "PHRASE1",
            "editable": false,
            "mutedNotes": [],
            "mutedChords": [],
            "autoStart": false,
            "sourceChordNote": 0,
            "sourceChordType": "Maj7",
            "ctb2Low": null,
            "ctb2Main": {
              "ntr": "ROOT_FIXED",
              "ntt": "BYPASS",
              "bassOn": false,
              "chordRootUpperLimit": 7,
              "noteLowLimit": 0,
              "noteHighLimit": 127,
              "rtr": "PITCH_SHIFT"
            },
            "ctb2High": null
          },
          "notes": []
        },
        "3": {
          "ctab": {
            "srcChannel": 3,
            "name": "Ep Root",
            "accType": "CHORD1",
            "editable": false,
            "mutedNotes": [],
            "mutedChords": [
              "1+2+5",
              "sus4",
              "1+5",
              "1+8",
              "Maj7aug",
              "dim",
              "minMaj7(9)",
              "minMaj7",
              "min6",
              "min",
              "aug",
              "Maj7(9)",
              "Maj7#11",
              "Maj7",
              "Maj6",
              "Maj"
            ],
            "autoStart": false,
            "sourceChordNote": 0,
            "sourceChordType": "Maj7",
            "ctb2Low": null,
            "ctb2Main": {
              "ntr": "ROOT_TRANSPOSITION",
              "ntt": "MELODY",
              "bassOn": false,
              "chordRootUpperLimit": 10,
              "noteLowLimit": 0,
              "noteHighLimit": 127,
              "rtr": "PITCH_SHIFT"
            },
            "ctb2High": null
          },
          "notes": []
        },
        "5": {
          "ctab": {
            "srcChannel": 5,
            "name": "Str Root",
            "accType": "PAD",
            "editable": false,
            "mutedNotes": [],
            "mutedChords": [
              "1+2+5",
              "sus4",
              "1+5",
              "1+8",
              "Maj7aug",
              "dim",
              "minMaj7(9)",
              "minMaj7",
              "min6",
              "min",
              "aug",
              "Maj7(9)",
              "Maj7#11",
              "Maj7",
              "Maj6",
              "Maj"
            ],
            "autoStart": false,
            "sourceChordNote": 0,
            "sourceChordType": "Maj7",
            "ctb2Low": null,
            "ctb2Main": {
              "ntr": "ROOT_TRANSPOSITION",
              "ntt": "MELODY",
              "bassOn": false,
              "chordRootUpperLimit": 6,
              "noteLowLimit": 0,
              "noteHighLimit": 127,
              "rtr": "PITCH_SHIFT"
            },
            "ctb2High": null
          },
          "notes": []
        },
        "8": {
          "ctab": {
            "srcChannel": 8,
            "name": "Perc",
            "accType": "SUBRHYTHM",
            "editable": false,
            "mutedNotes": [],
            "mutedChords": [],
            "autoStart": true,
            "sourceChordNote": 0,
            "sourceChordType": "Maj7",
            "ctb2Low": null,
            "ctb2Main": {
              "ntr": "ROOT_FIXED",
              "ntt": "BYPASS",
              "bassOn": false,
              "chordRootUpperLimit": 6,
              "noteLowLimit": 0,
              "noteHighLimit": 127,
              "rtr": "PITCH_SHIFT"
            },
            "ctb2High": null
          },
          "notes": []
        },
        "9": {
          "ctab": {
            "srcChannel": 9,
            "name": "Drums",
            "accType": "RHYTHM",
            "editable": false,
            "mutedNotes": [],
            "mutedChords": [],
            "autoStart": true,
            "sourceChordNote": 0,
            "sourceChordType": "Maj7",
            "ctb2Low": null,
            "ctb2Main": {
              "ntr": "ROOT_FIXED",
              "ntt": "BYPASS",
              "bassOn": false,
              "chordRootUpperLimit": 6,
              "noteLowLimit": 0,
              "noteHighLimit": 127,
              "rtr": "PITCH_SHIFT"
            },
            "ctb2High": null
          },
          "notes": [
            {
              "pitch": 42,
              "velocity": 58,
              "position": 0,
              "duration": 0.010416666666666666
            },
            {
              "pitch": 42,
              "velocity": 58,
              "position": 1,
              "duration": 0.010416666666666666
            },
            {
              "pitch": 42,
              "velocity": 58,
              "position": 2,
              "duration": 0.010416666666666666
            },
            {
              "pitch": 42,
              "velocity": 23,
              "position": 2.5,
              "duration": 0.010416666666666666
            },
            {
              "pitch": 34,
              "velocity": 7,
              "position": 2.625,
              "duration": 0.010416666666666666
            },
            {
              "pitch": 34,
              "velocity": 12,
              "position": 2.75,
              "duration": 0.010416666666666666
            },
            {
              "pitch": 17,
              "velocity": 28,
              "position": 2.7916666666666665,
              "duration": 0.010416666666666666
            },
            {
              "pitch": 34,
              "velocity": 13,
              "position": 2.875,
              "duration": 0.010416666666666666
            },
            {
              "pitch": 34,
              "velocity": 46,
              "position": 3,
              "duration": 0.010416666666666666
            },
            {
              "pitch": 42,
              "velocity": 58,
              "position": 3,
              "duration": 0.010416666666666666
            },
            {
              "pitch": 47,
              "velocity": 86,
              "position": 3,
              "duration": 0.010416666666666666
            },
            {
              "pitch": 17,
              "velocity": 70,
              "position": 3,
              "duration": 0.23958333333333334
            },
            {
              "pitch": 17,
              "velocity": 30,
              "position": 3.2916666666666665,
              "duration": 0.010416666666666666
            },
            {
              "pitch": 45,
              "velocity": 41,
              "position": 3.2916666666666665,
              "duration": 0.010416666666666666
            },
            {
              "pitch": 18,
              "velocity": 70,
              "position": 3.25,
              "duration": 0.23958333333333334
            },
            {
              "pitch": 34,
              "velocity": 52,
              "position": 3.5,
              "duration": 0.010416666666666666
            },
            {
              "pitch": 42,
              "velocity": 23,
              "position": 3.5,
              "duration": 0.010416666666666666
            },
            {
              "pitch": 43,
              "velocity": 42,
              "position": 3.5,
              "duration": 0.010416666666666666
            },
            {
              "pitch": 26,
              "velocity": 30,
              "position": 0,
              "duration": 3.7083333333333335
            },
            {
              "pitch": 17,
              "velocity": 70,
              "position": 3.5,
              "duration": 0.23958333333333334
            },
            {
              "pitch": 41,
              "velocity": 39,
              "position": 3.7916666666666665,
              "duration": 0.010416666666666666
            },
            {
              "pitch": 18,
              "velocity": 70,
              "position": 3.75,
              "duration": 0.23958333333333334
            }
          ]
        },
        "10": {
          "ctab": {
            "srcChannel": 10,
            "name": "Bass",
            "accType": "BASS",
            "editable": false,
            "mutedNotes": [],
            "mutedChords": [],
            "autoStart": false,
            "sourceChordNote": 0,
            "sourceChordType": "Maj7",
            "ctb2Low": null,
            "ctb2Main": {
              "ntr": "ROOT_TRANSPOSITION",
              "ntt": "MELODY",
              "bassOn": true,
              "chordRootUpperLimit": 3,
              "noteLowLimit": 28,
              "noteHighLimit": 127,
              "rtr": "PITCH_SHIFT_TO_ROOT"
            },
            "ctb2High": null
          },
          "notes": []
        },
        "11": {
          "ctab": {
            "srcChannel": 11,
            "name": "Ep",
            "accType": "CHORD1",
            "editable": false,
            "mutedNotes": [],
            "mutedChords": [],
            "autoStart": false,
            "sourceChordNote": 0,
            "sourceChordType": "Maj7",
            "ctb2Low": null,
            "ctb2Main": {
              "ntr": "ROOT_FIXED",
              "ntt": "CHORD",
              "bassOn": false,
              "chordRootUpperLimit": 4,
              "noteLowLimit": 0,
              "noteHighLimit": 127,
              "rtr": "PITCH_SHIFT"
            },
            "ctb2High": null
          },
          "notes": []
        },
        "12": {
          "ctab": {
            "srcChannel": 12,
            "name": "JzGtr",
            "accType": "CHORD2",
            "editable": false,
            "mutedNotes": [],
            "mutedChords": [],
            "autoStart": false,
            "sourceChordNote": 0,
            "sourceChordType": "Maj7",
            "ctb2Low": null,
            "ctb2Main": {
              "ntr": "ROOT_FIXED",
              "ntt": "CHORD",
              "bassOn": false,
              "chordRootUpperLimit": 7,
              "noteLowLimit": 0,
              "noteHighLimit": 127,
              "rtr": "PITCH_SHIFT"
            },
            "ctb2High": null
          },
          "notes": []
        },
        "13": {
          "ctab": {
            "srcChannel": 13,
            "name": "Strings",
            "accType": "PAD",
            "editable": false,
            "mutedNotes": [],
            "mutedChords": [],
            "autoStart": false,
            "sourceChordNote": 0,
            "sourceChordType": "Maj7",
            "ctb2Low": null,
            "ctb2Main": {
              "ntr": "ROOT_FIXED",
              "ntt": "CHORD",
              "bassOn": false,
              "chordRootUpperLimit": 7,
              "noteLowLimit": 0,
              "noteHighLimit": 127,
              "rtr": "PITCH_SHIFT"
            },
            "ctb2High": null
          },
          "notes": []
        },
        "14": {
          "ctab": {
            "srcChannel": 14,
            "name": "SteelMsw",
            "accType": "PHRASE1",
            "editable": false,
            "mutedNotes": [],
            "mutedChords": [],
            "autoStart": false,
            "sourceChordNote": 0,
            "sourceChordType": "Maj7",
            "ctb2Low": null,
            "ctb2Main": {
              "ntr": "ROOT_FIXED",
              "ntt": "CHORD",
              "bassOn": false,
              "chordRootUpperLimit": 7,
              "noteLowLimit": 0,
              "noteHighLimit": 127,
              "rtr": "PITCH_SHIFT"
            },
            "ctb2High": null
          },
          "notes": []
        },
        "15": {
          "ctab": {
            "srcChannel": 15,
            "name": "Flute",
            "accType": "PHRASE2",
            "editable": false,
            "mutedNotes": [],
            "mutedChords": [],
            "autoStart": false,
            "sourceChordNote": 0,
            "sourceChordType": "Maj7",
            "ctb2Low": null,
            "ctb2Main": {
              "ntr": "ROOT_FIXED",
              "ntt": "CHORD",
              "bassOn": false,
              "chordRootUpperLimit": 7,
              "noteLowLimit": 0,
              "noteHighLimit": 127,
              "rtr": "PITCH_SHIFT"
            },
            "ctb2High": null
          },
          "notes": []
        }
      }
    },
    "Ending_A": {
      "type": "Ending_A",
      "sizeInBeats": 4,
      "channels": {
        "0": {
          "ctab": {
            "srcChannel": 0,
            "name": "CC_Crash",
            "accType": "SUBRHYTHM",
            "editable": false,
            "mutedNotes": [],
            "mutedChords": [
              "1+2+5",
              "sus4",
              "1+5",
              "1+8",
              "7aug",
              "Maj7aug",
              "7(#9)",
              "7(b13)",
              "7(b9)",
              "7(13)",
              "7#11",
              "7(9)",
              "7b5",
              "7sus4",
              "7th",
              "dim7",
              "dim",
              "minMaj7(9)",
              "minMaj7",
              "min7(11)",
              "min7(9)",
              "min(9)",
              "m7b5",
              "min7",
              "min6",
              "min",
              "aug",
              "Maj6(9)",
              "Maj7(9)",
              "Maj(9)",
              "Maj7#11",
              "Maj7",
              "Maj6",
              "Maj"
            ],
            "autoStart": true,
            "sourceChordNote": 0,
            "sourceChordType": "Maj7",
            "ctb2Low": null,
            "ctb2Main": {
              "ntr": "ROOT_FIXED",
              "ntt": "BYPASS",
              "bassOn": false,
              "chordRootUpperLimit": 6,
              "noteLowLimit": 0,
              "noteHighLimit": 127,
              "rtr": "RETRIGGER"
            },
            "ctb2High": null
          },
          "notes": []
        },
        "1": {
          "ctab": {
            "srcChannel": 1,
            "name": "Steeldea",
            "accType": "PHRASE1",
            "editable": false,
            "mutedNotes": [],
            "mutedChords": [],
            "autoStart": false,
            "sourceChordNote": 0,
            "sourceChordType": "Maj7",
            "ctb2Low": null,
            "ctb2Main": {
              "ntr": "ROOT_FIXED",
              "ntt": "BYPASS",
              "bassOn": false,
              "chordRootUpperLimit": 7,
              "noteLowLimit": 0,
              "noteHighLimit": 127,
              "rtr": "PITCH_SHIFT"
            },
            "ctb2High": null
          },
          "notes": []
        },
        "3": {
          "ctab": {
            "srcChannel": 3,
            "name": "Ep Root",
            "accType": "CHORD1",
            "editable": false,
            "mutedNotes": [],
            "mutedChords": [
              "1+2+5",
              "sus4",
              "1+5",
              "1+8",
              "Maj7aug",
              "dim",
              "minMaj7(9)",
              "minMaj7",
              "min6",
              "min",
              "aug",
              "Maj7(9)",
              "Maj7#11",
              "Maj7",
              "Maj6",
              "Maj"
            ],
            "autoStart": false,
            "sourceChordNote": 0,
            "sourceChordType": "Maj7",
            "ctb2Low": null,
            "ctb2Main": {
              "ntr": "ROOT_TRANSPOSITION",
              "ntt": "MELODY",
              "bassOn": false,
              "chordRootUpperLimit": 10,
              "noteLowLimit": 0,
              "noteHighLimit": 127,
              "rtr": "PITCH_SHIFT"
            },
            "ctb2High": null
          },
          "notes": [
            {
              "pitch": 60,
              "velocity": 80,
              "position": 0.010416666666666666,
              "duration": 3.9791666666666665
            }
          ]
        },
        "5": {
          "ctab": {
            "srcChannel": 5,
            "name": "Str Root",
            "accType": "PAD",
            "editable": false,
            "mutedNotes": [],
            "mutedChords": [
              "1+2+5",
              "sus4",
              "1+5",
              "1+8",
              "Maj7aug",
              "dim",
              "minMaj7(9)",
              "minMaj7",
              "min6",
              "min",
              "aug",
              "Maj7(9)",
              "Maj7#11",
              "Maj7",
              "Maj6",
              "Maj"
            ],
            "autoStart": false,
            "sourceChordNote": 0,
            "sourceChordType": "Maj7",
            "ctb2Low": null,
            "ctb2Main": {
              "ntr": "ROOT_TRANSPOSITION",
              "ntt": "MELODY",
              "bassOn": false,
              "chordRootUpperLimit": 6,
              "noteLowLimit": 0,
              "noteHighLimit": 127,
              "rtr": "PITCH_SHIFT"
            },
            "ctb2High": null
          },
          "notes": [
            {
              "pitch": 60,
              "velocity": 30,
              "position": 0,
              "duration": 3.2395833333333335
            }
          ]
        },
        "8": {
          "ctab": {
            "srcChannel": 8,
            "name": "Perc",
            "accType": "SUBRHYTHM",
            "editable": false,
            "mutedNotes": [],
            "mutedChords": [],
            "autoStart": true,
            "sourceChordNote": 0,
            "sourceChordType": "Maj7",
            "ctb2Low": null,
            "ctb2Main": {
              "ntr": "ROOT_FIXED",
              "ntt": "BYPASS",
              "bassOn": false,
              "chordRootUpperLimit": 6,
              "noteLowLimit": 0,
              "noteHighLimit": 127,
              "rtr": "PITCH_SHIFT"
            },
            "ctb2High": null
          },
          "notes": [
            {
              "pitch": 84,
              "velocity": 20,
              "position": 0,
              "duration": 0.010416666666666666
            }
          ]
        },
        "9": {
          "ctab": {
            "srcChannel": 9,
            "name": "Drums",
            "accType": "RHYTHM",
            "editable": false,
            "mutedNotes": [],
            "mutedChords": [],
            "autoStart": true,
            "sourceChordNote": 0,
            "sourceChordType": "Maj7",
            "ctb2Low": null,
            "ctb2Main": {
              "ntr": "ROOT_FIXED",
              "ntt": "BYPASS",
              "bassOn": false,
              "chordRootUpperLimit": 6,
              "noteLowLimit": 0,
              "noteHighLimit": 127,
              "rtr": "PITCH_SHIFT"
            },
            "ctb2High": null
          },
          "notes": [
            {
              "pitch": 26,
              "velocity": 40,
              "position": 0,
              "duration": 3.4166666666666665
            }
          ]
        },
        "10": {
          "ctab": {
            "srcChannel": 10,
            "name": "Bass",
            "accType": "BASS",
            "editable": false,
            "mutedNotes": [],
            "mutedChords": [],
            "autoStart": false,
            "sourceChordNote": 0,
            "sourceChordType": "Maj7",
            "ctb2Low": null,
            "ctb2Main": {
              "ntr": "ROOT_TRANSPOSITION",
              "ntt": "MELODY",
              "bassOn": true,
              "chordRootUpperLimit": 3,
              "noteLowLimit": 28,
              "noteHighLimit": 127,
              "rtr": "PITCH_SHIFT_TO_ROOT"
            },
            "ctb2High": null
          },
          "notes": [
            {
              "pitch": 24,
              "velocity": 95,
              "position": 0.010416666666666666,
              "duration": 3.8041666666666667
            }
          ]
        },
        "11": {
          "ctab": {
            "srcChannel": 11,
            "name": "Ep",
            "accType": "CHORD1",
            "editable": false,
            "mutedNotes": [],
            "mutedChords": [],
            "autoStart": false,
            "sourceChordNote": 0,
            "sourceChordType": "Maj7",
            "ctb2Low": null,
            "ctb2Main": {
              "ntr": "ROOT_FIXED",
              "ntt": "CHORD",
              "bassOn": false,
              "chordRootUpperLimit": 4,
              "noteLowLimit": 0,
              "noteHighLimit": 127,
              "rtr": "PITCH_SHIFT"
            },
            "ctb2High": null
          },
          "notes": [
            {
              "pitch": 59,
              "velocity": 80,
              "position": 0.010416666666666666,
              "duration": 3.9791666666666665
            },
            {
              "pitch": 64,
              "velocity": 80,
              "position": 0.010416666666666666,
              "duration": 3.9791666666666665
            },
            {
              "pitch": 67,
              "velocity": 80,
              "position": 0.010416666666666666,
              "duration": 3.9791666666666665
            }
          ]
        },
        "12": {
          "ctab": {
            "srcChannel": 12,
            "name": "JzGtr",
            "accType": "CHORD2",
            "editable": false,
            "mutedNotes": [],
            "mutedChords": [],
            "autoStart": false,
            "sourceChordNote": 0,
            "sourceChordType": "Maj7",
            "ctb2Low": null,
            "ctb2Main": {
              "ntr": "ROOT_FIXED",
              "ntt": "CHORD",
              "bassOn": false,
              "chordRootUpperLimit": 7,
              "noteLowLimit": 0,
              "noteHighLimit": 127,
              "rtr": "PITCH_SHIFT"
            },
            "ctb2High": null
          },
          "notes": [
            {
              "pitch": 59,
              "velocity": 41,
              "position": 0,
              "duration": 3.9895833333333335
            },
            {
              "pitch": 64,
              "velocity": 43,
              "position": 0,
              "duration": 3.9895833333333335
            },
            {
              "pitch": 67,
              "velocity": 43,
              "position": 0,
              "duration": 3.9895833333333335
            }
          ]
        },
        "13": {
          "ctab": {
            "srcChannel": 13,
            "name": "Strings",
            "accType": "PAD",
            "editable": false,
            "mutedNotes": [],
            "mutedChords": [],
            "autoStart": false,
            "sourceChordNote": 0,
            "sourceChordType": "Maj7",
            "ctb2Low": null,
            "ctb2Main": {
              "ntr": "ROOT_FIXED",
              "ntt": "CHORD",
              "bassOn": false,
              "chordRootUpperLimit": 7,
              "noteLowLimit": 0,
              "noteHighLimit": 127,
              "rtr": "PITCH_SHIFT"
            },
            "ctb2High": null
          },
          "notes": [
            {
              "pitch": 55,
              "velocity": 30,
              "position": 0,
              "duration": 3.2395833333333335
            },
            {
              "pitch": 59,
              "velocity": 30,
              "position": 0,
              "duration": 3.2395833333333335
            },
            {
              "pitch": 64,
              "velocity": 30,
              "position": 0,
              "duration": 3.2395833333333335
            }
          ]
        },
        "14": {
          "ctab": {
            "srcChannel": 14,
            "name": "SteelMsw",
            "accType": "PHRASE1",
            "editable": false,
            "mutedNotes": [],
            "mutedChords": [],
            "autoStart": false,
            "sourceChordNote": 0,
            "sourceChordType": "Maj7",
            "ctb2Low": null,
            "ctb2Main": {
              "ntr": "ROOT_FIXED",
              "ntt": "CHORD",
              "bassOn": false,
              "chordRootUpperLimit": 7,
              "noteLowLimit": 0,
              "noteHighLimit": 127,
              "rtr": "PITCH_SHIFT"
            },
            "ctb2High": null
          },
          "notes": [
            {
              "pitch": 64,
              "velocity": 108,
              "position": 0,
              "duration": 3.7395833333333335
            },
            {
              "pitch": 67,
              "velocity": 108,
              "position": 0,
              "duration": 3.7395833333333335
            },
            {
              "pitch": 71,
              "velocity": 108,
              "position": 0,
              "duration": 3.7395833333333335
            }
          ]
        },
        "15": {
          "ctab": {
            "srcChannel": 15,
            "name": "Flute",
            "accType": "PHRASE2",
            "editable": false,
            "mutedNotes": [],
            "mutedChords": [],
            "autoStart": false,
            "sourceChordNote": 0,
            "sourceChordType": "Maj7",
            "ctb2Low": null,
            "ctb2Main": {
              "ntr": "ROOT_FIXED",
              "ntt": "CHORD",
              "bassOn": false,
              "chordRootUpperLimit": 7,
              "noteLowLimit": 0,
              "noteHighLimit": 127,
              "rtr": "PITCH_SHIFT"
            },
            "ctb2High": null
          },
          "notes": []
        }
      }
    },
    "Fill_In_BA": {
      "type": "Fill_In_BA",
      "sizeInBeats": 4,
      "channels": {
        "0": {
          "ctab": {
            "srcChannel": 0,
            "name": "CC_Crash",
            "accType": "SUBRHYTHM",
            "editable": false,
            "mutedNotes": [],
            "mutedChords": [
              "1+2+5",
              "sus4",
              "1+5",
              "1+8",
              "7aug",
              "Maj7aug",
              "7(#9)",
              "7(b13)",
              "7(b9)",
              "7(13)",
              "7#11",
              "7(9)",
              "7b5",
              "7sus4",
              "7th",
              "dim7",
              "dim",
              "minMaj7(9)",
              "minMaj7",
              "min7(11)",
              "min7(9)",
              "min(9)",
              "m7b5",
              "min7",
              "min6",
              "min",
              "aug",
              "Maj6(9)",
              "Maj7(9)",
              "Maj(9)",
              "Maj7#11",
              "Maj7",
              "Maj6",
              "Maj"
            ],
            "autoStart": true,
            "sourceChordNote": 0,
            "sourceChordType": "Maj7",
            "ctb2Low": null,
            "ctb2Main": {
              "ntr": "ROOT_FIXED",
              "ntt": "BYPASS",
              "bassOn": false,
              "chordRootUpperLimit": 6,
              "noteLowLimit": 0,
              "noteHighLimit": 127,
              "rtr": "RETRIGGER"
            },
            "ctb2High": null
          },
          "notes": []
        },
        "1": {
          "ctab": {
            "srcChannel": 1,
            "name": "Steeldea",
            "accType": "PHRASE1",
            "editable": false,
            "mutedNotes": [],
            "mutedChords": [],
            "autoStart": false,
            "sourceChordNote": 0,
            "sourceChordType": "Maj7",
            "ctb2Low": null,
            "ctb2Main": {
              "ntr": "ROOT_FIXED",
              "ntt": "BYPASS",
              "bassOn": false,
              "chordRootUpperLimit": 7,
              "noteLowLimit": 0,
              "noteHighLimit": 127,
              "rtr": "PITCH_SHIFT"
            },
            "ctb2High": null
          },
          "notes": [
            {
              "pitch": 113,
              "velocity": 87,
              "position": 0,
              "duration": 0.17708333333333334
            },
            {
              "pitch": 113,
              "velocity": 87,
              "position": 1,
              "duration": 0.17708333333333334
            },
            {
              "pitch": 112,
              "velocity": 73,
              "position": 3.2708333333333335,
              "duration": 0.17708333333333334
            },
            {
              "pitch": 111,
              "velocity": 73,
              "position": 3.4791666666666665,
              "duration": 0.23958333333333334
            },
            {
              "pitch": 110,
              "velocity": 73,
              "position": 3.7708333333333335,
              "duration": 0.17708333333333334
            }
          ]
        },
        "3": {
          "ctab": {
            "srcChannel": 3,
            "name": "Ep Root",
            "accType": "CHORD1",
            "editable": false,
            "mutedNotes": [],
            "mutedChords": [
              "1+2+5",
              "sus4",
              "1+5",
              "1+8",
              "Maj7aug",
              "dim",
              "minMaj7(9)",
              "minMaj7",
              "min6",
              "min",
              "aug",
              "Maj7(9)",
              "Maj7#11",
              "Maj7",
              "Maj6",
              "Maj"
            ],
            "autoStart": false,
            "sourceChordNote": 0,
            "sourceChordType": "Maj7",
            "ctb2Low": null,
            "ctb2Main": {
              "ntr": "ROOT_TRANSPOSITION",
              "ntt": "MELODY",
              "bassOn": false,
              "chordRootUpperLimit": 10,
              "noteLowLimit": 0,
              "noteHighLimit": 127,
              "rtr": "PITCH_SHIFT"
            },
            "ctb2High": null
          },
          "notes": [
            {
              "pitch": 60,
              "velocity": 80,
              "position": 0,
              "duration": 0.17708333333333334
            },
            {
              "pitch": 60,
              "velocity": 80,
              "position": 1,
              "duration": 0.17708333333333334
            }
          ]
        },
        "5": {
          "ctab": {
            "srcChannel": 5,
            "name": "Str Root",
            "accType": "PAD",
            "editable": false,
            "mutedNotes": [],
            "mutedChords": [
              "1+2+5",
              "sus4",
              "1+5",
              "1+8",
              "Maj7aug",
              "dim",
              "minMaj7(9)",
              "minMaj7",
              "min6",
              "min",
              "aug",
              "Maj7(9)",
              "Maj7#11",
              "Maj7",
              "Maj6",
              "Maj"
            ],
            "autoStart": false,
            "sourceChordNote": 0,
            "sourceChordType": "Maj7",
            "ctb2Low": null,
            "ctb2Main": {
              "ntr": "ROOT_TRANSPOSITION",
              "ntt": "MELODY",
              "bassOn": false,
              "chordRootUpperLimit": 6,
              "noteLowLimit": 0,
              "noteHighLimit": 127,
              "rtr": "PITCH_SHIFT"
            },
            "ctb2High": null
          },
          "notes": [
            {
              "pitch": 60,
              "velocity": 30,
              "position": 3,
              "duration": 0.9895833333333334
            }
          ]
        },
        "8": {
          "ctab": {
            "srcChannel": 8,
            "name": "Perc",
            "accType": "SUBRHYTHM",
            "editable": false,
            "mutedNotes": [],
            "mutedChords": [],
            "autoStart": true,
            "sourceChordNote": 0,
            "sourceChordType": "Maj7",
            "ctb2Low": null,
            "ctb2Main": {
              "ntr": "ROOT_FIXED",
              "ntt": "BYPASS",
              "bassOn": false,
              "chordRootUpperLimit": 6,
              "noteLowLimit": 0,
              "noteHighLimit": 127,
              "rtr": "PITCH_SHIFT"
            },
            "ctb2High": null
          },
          "notes": [
            {
              "pitch": 41,
              "velocity": 33,
              "position": 2.7916666666666665,
              "duration": 0.010416666666666666
            },
            {
              "pitch": 41,
              "velocity": 58,
              "position": 3,
              "duration": 0.010416666666666666
            },
            {
              "pitch": 57,
              "velocity": 55,
              "position": 3.9895833333333335,
              "duration": 0.010416666666666666
            }
          ]
        },
        "9": {
          "ctab": {
            "srcChannel": 9,
            "name": "Drums",
            "accType": "RHYTHM",
            "editable": false,
            "mutedNotes": [],
            "mutedChords": [],
            "autoStart": true,
            "sourceChordNote": 0,
            "sourceChordType": "Maj7",
            "ctb2Low": null,
            "ctb2Main": {
              "ntr": "ROOT_FIXED",
              "ntt": "BYPASS",
              "bassOn": false,
              "chordRootUpperLimit": 6,
              "noteLowLimit": 0,
              "noteHighLimit": 127,
              "rtr": "PITCH_SHIFT"
            },
            "ctb2High": null
          },
          "notes": [
            {
              "pitch": 36,
              "velocity": 77,
              "position": 0,
              "duration": 0.010416666666666666
            },
            {
              "pitch": 36,
              "velocity": 77,
              "position": 1,
              "duration": 0.010416666666666666
            },
            {
              "pitch": 79,
              "velocity": 47,
              "position": 1.7916666666666667,
              "duration": 0.23958333333333334
            },
            {
              "pitch": 78,
              "velocity": 35,
              "position": 2,
              "duration": 0.23958333333333334
            },
            {
              "pitch": 79,
              "velocity": 46,
              "position": 2.2916666666666665,
              "duration": 0.23958333333333334
            },
            {
              "pitch": 78,
              "velocity": 35,
              "position": 2.5,
              "duration": 0.23958333333333334
            },
            {
              "pitch": 34,
              "velocity": 60,
              "position": 3,
              "duration": 0.010416666666666666
            },
            {
              "pitch": 39,
              "velocity": 54,
              "position": 3,
              "duration": 0.010416666666666666
            },
            {
              "pitch": 17,
              "velocity": 70,
              "position": 3,
              "duration": 0.23958333333333334
            },
            {
              "pitch": 18,
              "velocity": 70,
              "position": 3.2916666666666665,
              "duration": 0.23958333333333334
            },
            {
              "pitch": 17,
              "velocity": 70,
              "position": 3.5,
              "duration": 0.23958333333333334
            },
            {
              "pitch": 26,
              "velocity": 54,
              "position": 0,
              "duration": 3.9166666666666665
            }
          ]
        },
        "10": {
          "ctab": {
            "srcChannel": 10,
            "name": "Bass",
            "accType": "BASS",
            "editable": false,
            "mutedNotes": [],
            "mutedChords": [],
            "autoStart": false,
            "sourceChordNote": 0,
            "sourceChordType": "Maj7",
            "ctb2Low": null,
            "ctb2Main": {
              "ntr": "ROOT_TRANSPOSITION",
              "ntt": "MELODY",
              "bassOn": true,
              "chordRootUpperLimit": 3,
              "noteLowLimit": 28,
              "noteHighLimit": 127,
              "rtr": "PITCH_SHIFT_TO_ROOT"
            },
            "ctb2High": null
          },
          "notes": [
            {
              "pitch": 24,
              "velocity": 95,
              "position": 0,
              "duration": 0.3229166666666667
            },
            {
              "pitch": 24,
              "velocity": 95,
              "position": 1,
              "duration": 0.3229166666666667
            },
            {
              "pitch": 24,
              "velocity": 53,
              "position": 2.7083333333333335,
              "duration": 0.28125
            },
            {
              "pitch": 36,
              "velocity": 95,
              "position": 3,
              "duration": 0.9791666666666666
            }
          ]
        },
        "11": {
          "ctab": {
            "srcChannel": 11,
            "name": "Ep",
            "accType": "CHORD1",
            "editable": false,
            "mutedNotes": [],
            "mutedChords": [],
            "autoStart": false,
            "sourceChordNote": 0,
            "sourceChordType": "Maj7",
            "ctb2Low": null,
            "ctb2Main": {
              "ntr": "ROOT_FIXED",
              "ntt": "CHORD",
              "bassOn": false,
              "chordRootUpperLimit": 4,
              "noteLowLimit": 0,
              "noteHighLimit": 127,
              "rtr": "PITCH_SHIFT"
            },
            "ctb2High": null
          },
          "notes": [
            {
              "pitch": 59,
              "velocity": 80,
              "position": 0,
              "duration": 0.17708333333333334
            },
            {
              "pitch": 64,
              "velocity": 80,
              "position": 0,
              "duration": 0.17708333333333334
            },
            {
              "pitch": 67,
              "velocity": 80,
              "position": 0,
              "duration": 0.17708333333333334
            },
            {
              "pitch": 59,
              "velocity": 80,
              "position": 1,
              "duration": 0.17708333333333334
            },
            {
              "pitch": 64,
              "velocity": 80,
              "position": 1,
              "duration": 0.17708333333333334
            },
            {
              "pitch": 67,
              "velocity": 80,
              "position": 1,
              "duration": 0.17708333333333334
            }
          ]
        },
        "12": {
          "ctab": {
            "srcChannel": 12,
            "name": "JzGtr",
            "accType": "CHORD2",
            "editable": false,
            "mutedNotes": [],
            "mutedChords": [],
            "autoStart": false,
            "sourceChordNote": 0,
            "sourceChordType": "Maj7",
            "ctb2Low": null,
            "ctb2Main": {
              "ntr": "ROOT_FIXED",
              "ntt": "CHORD",
              "bassOn": false,
              "chordRootUpperLimit": 7,
              "noteLowLimit": 0,
              "noteHighLimit": 127,
              "rtr": "PITCH_SHIFT"
            },
            "ctb2High": null
          },
          "notes": [
            {
              "pitch": 64,
              "velocity": 42,
              "position": 0,
              "duration": 0.20833333333333334
            },
            {
              "pitch": 67,
              "velocity": 42,
              "position": 0,
              "duration": 0.23125
            },
            {
              "pitch": 59,
              "velocity": 42,
              "position": 0,
              "duration": 0.2604166666666667
            },
            {
              "pitch": 67,
              "velocity": 42,
              "position": 1,
              "duration": 0.23958333333333334
            },
            {
              "pitch": 64,
              "velocity": 42,
              "position": 1,
              "duration": 0.25
            },
            {
              "pitch": 59,
              "velocity": 42,
              "position": 1,
              "duration": 0.26458333333333334
            }
          ]
        },
        "13": {
          "ctab": {
            "srcChannel": 13,
            "name": "Strings",
            "accType": "PAD",
            "editable": false,
            "mutedNotes": [],
            "mutedChords": [],
            "autoStart": false,
            "sourceChordNote": 0,
            "sourceChordType": "Maj7",
            "ctb2Low": null,
            "ctb2Main": {
              "ntr": "ROOT_FIXED",
              "ntt": "CHORD",
              "bassOn": false,
              "chordRootUpperLimit": 7,
              "noteLowLimit": 0,
              "noteHighLimit": 127,
              "rtr": "PITCH_SHIFT"
            },
            "ctb2High": null
          },
          "notes": [
            {
              "pitch": 55,
              "velocity": 30,
              "position": 3,
              "duration": 0.9895833333333334
            },
            {
              "pitch": 59,
              "velocity": 30,
              "position": 3,
              "duration": 0.9895833333333334
            },
            {
              "pitch": 64,
              "velocity": 30,
              "position": 3,
              "duration": 0.9895833333333334
            }
          ]
        },
        "14": {
          "ctab": {
            "srcChannel": 14,
            "name": "SteelMsw",
            "accType": "PHRASE1",
            "editable": false,
            "mutedNotes": [],
            "mutedChords": [],
            "autoStart": false,
            "sourceChordNote": 0,
            "sourceChordType": "Maj7",
            "ctb2Low": null,
            "ctb2Main": {
              "ntr": "ROOT_FIXED",
              "ntt": "CHORD",
              "bassOn": false,
              "chordRootUpperLimit": 7,
              "noteLowLimit": 0,
              "noteHighLimit": 127,
              "rtr": "PITCH_SHIFT"
            },
            "ctb2High": null
          },
          "notes": [
            {
              "pitch": 79,
              "velocity": 123,
              "position": 2.5,
              "duration": 0.3645833333333333
            },
            {
              "pitch": 71,
              "velocity": 123,
              "position": 2.8333333333333335,
              "duration": 1.0145833333333334
            },
            {
              "pitch": 76,
              "velocity": 123,
              "position": 2.6666666666666665,
              "duration": 1.1875
            },
            {
              "pitch": 67,
              "velocity": 123,
              "position": 3,
              "duration": 0.9520833333333333
            }
          ]
        },
        "15": {
          "ctab": {
            "srcChannel": 15,
            "name": "Flute",
            "accType": "PHRASE2",
            "editable": false,
            "mutedNotes": [],
            "mutedChords": [],
            "autoStart": false,
            "sourceChordNote": 0,
            "sourceChordType": "Maj7",
            "ctb2Low": null,
            "ctb2Main": {
              "ntr": "ROOT_FIXED",
              "ntt": "CHORD",
              "bassOn": false,
              "chordRootUpperLimit": 7,
              "noteLowLimit": 0,
              "noteHighLimit": 127,
              "rtr": "PITCH_SHIFT"
            },
            "ctb2High": null
          },
          "notes": []
        }
      }
    },
    "Main_B": {
      "type": "Main_B",
      "sizeInBeats": 8,
      "channels": {
        "0": {
          "ctab": {
            "srcChannel": 0,
            "name": "CC_Crash",
            "accType": "SUBRHYTHM",
            "editable": false,
            "mutedNotes": [],
            "mutedChords": [
              "1+2+5",
              "sus4",
              "1+5",
              "1+8",
              "7aug",
              "Maj7aug",
              "7(#9)",
              "7(b13)",
              "7(b9)",
              "7(13)",
              "7#11",
              "7(9)",
              "7b5",
              "7sus4",
              "7th",
              "dim7",
              "dim",
              "minMaj7(9)",
              "minMaj7",
              "min7(11)",
              "min7(9)",
              "min(9)",
              "m7b5",
              "min7",
              "min6",
              "min",
              "aug",
              "Maj6(9)",
              "Maj7(9)",
              "Maj(9)",
              "Maj7#11",
              "Maj7",
              "Maj6",
              "Maj"
            ],
            "autoStart": true,
            "sourceChordNote": 0,
            "sourceChordType": "Maj7",
            "ctb2Low": null,
            "ctb2Main": {
              "ntr": "ROOT_FIXED",
              "ntt": "BYPASS",
              "bassOn": false,
              "chordRootUpperLimit": 6,
              "noteLowLimit": 0,
              "noteHighLimit": 127,
              "rtr": "RETRIGGER"
            },
            "ctb2High": null
          },
          "notes": []
        },
        "3": {
          "ctab": {
            "srcChannel": 3,
            "name": "Ep Root",
            "accType": "CHORD1",
            "editable": false,
            "mutedNotes": [],
            "mutedChords": [
              "1+2+5",
              "sus4",
              "1+5",
              "1+8",
              "Maj7aug",
              "dim",
              "minMaj7(9)",
              "minMaj7",
              "min6",
              "min",
              "aug",
              "Maj7(9)",
              "Maj7#11",
              "Maj7",
              "Maj6",
              "Maj"
            ],
            "autoStart": false,
            "sourceChordNote": 0,
            "sourceChordType": "Maj7",
            "ctb2Low": null,
            "ctb2Main": {
              "ntr": "ROOT_TRANSPOSITION",
              "ntt": "MELODY",
              "bassOn": false,
              "chordRootUpperLimit": 10,
              "noteLowLimit": 0,
              "noteHighLimit": 127,
              "rtr": "PITCH_SHIFT"
            },
            "ctb2High": null
          },
          "notes": [
            {
              "pitch": 60,
              "velocity": 65,
              "position": 0,
              "duration": 0.17708333333333334
            },
            {
              "pitch": 60,
              "velocity": 65,
              "position": 0.5,
              "duration": 0.17708333333333334
            },
            {
              "pitch": 60,
              "velocity": 65,
              "position": 1,
              "duration": 0.17708333333333334
            },
            {
              "pitch": 60,
              "velocity": 65,
              "position": 1.5,
              "duration": 0.17708333333333334
            },
            {
              "pitch": 60,
              "velocity": 65,
              "position": 2,
              "duration": 0.17708333333333334
            },
            {
              "pitch": 60,
              "velocity": 65,
              "position": 2.5,
              "duration": 0.17708333333333334
            },
            {
              "pitch": 60,
              "velocity": 65,
              "position": 3,
              "duration": 0.17708333333333334
            },
            {
              "pitch": 60,
              "velocity": 65,
              "position": 3.5,
              "duration": 0.17708333333333334
            },
            {
              "pitch": 60,
              "velocity": 65,
              "position": 4,
              "duration": 0.17708333333333334
            },
            {
              "pitch": 60,
              "velocity": 65,
              "position": 4.5,
              "duration": 0.17708333333333334
            },
            {
              "pitch": 60,
              "velocity": 65,
              "position": 5,
              "duration": 0.17708333333333334
            },
            {
              "pitch": 60,
              "velocity": 65,
              "position": 5.5,
              "duration": 0.17708333333333334
            },
            {
              "pitch": 60,
              "velocity": 65,
              "position": 6,
              "duration": 0.17708333333333334
            },
            {
              "pitch": 60,
              "velocity": 65,
              "position": 6.5,
              "duration": 0.17708333333333334
            },
            {
              "pitch": 60,
              "velocity": 65,
              "position": 7,
              "duration": 0.17708333333333334
            },
            {
              "pitch": 60,
              "velocity": 65,
              "position": 7.5,
              "duration": 0.17708333333333334
            }
          ]
        },
        "5": {
          "ctab": {
            "srcChannel": 5,
            "name": "Str Root",
            "accType": "PAD",
            "editable": false,
            "mutedNotes": [],
            "mutedChords": [
              "1+2+5",
              "sus4",
              "1+5",
              "1+8",
              "Maj7aug",
              "dim",
              "minMaj7(9)",
              "minMaj7",
              "min6",
              "min",
              "aug",
              "Maj7(9)",
              "Maj7#11",
              "Maj7",
              "Maj6",
              "Maj"
            ],
            "autoStart": false,
            "sourceChordNote": 0,
            "sourceChordType": "Maj7",
            "ctb2Low": null,
            "ctb2Main": {
              "ntr": "ROOT_TRANSPOSITION",
              "ntt": "MELODY",
              "bassOn": false,
              "chordRootUpperLimit": 6,
              "noteLowLimit": 0,
              "noteHighLimit": 127,
              "rtr": "PITCH_SHIFT"
            },
            "ctb2High": null
          },
          "notes": [
            {
              "pitch": 60,
              "velocity": 30,
              "position": 0,
              "duration": 7.989583333333333
            }
          ]
        },
        "8": {
          "ctab": {
            "srcChannel": 8,
            "name": "Perc",
            "accType": "SUBRHYTHM",
            "editable": false,
            "mutedNotes": [],
            "mutedChords": [],
            "autoStart": true,
            "sourceChordNote": 0,
            "sourceChordType": "Maj7",
            "ctb2Low": null,
            "ctb2Main": {
              "ntr": "ROOT_FIXED",
              "ntt": "BYPASS",
              "bassOn": false,
              "chordRootUpperLimit": 6,
              "noteLowLimit": 0,
              "noteHighLimit": 127,
              "rtr": "PITCH_SHIFT"
            },
            "ctb2High": null
          },
          "notes": [
            {
              "pitch": 42,
              "velocity": 54,
              "position": 0,
              "duration": 0.010416666666666666
            },
            {
              "pitch": 82,
              "velocity": 57,
              "position": 0,
              "duration": 0.010416666666666666
            },
            {
              "pitch": 42,
              "velocity": 44,
              "position": 0.5,
              "duration": 0.010416666666666666
            },
            {
              "pitch": 69,
              "velocity": 53,
              "position": 0.5,
              "duration": 0.010416666666666666
            },
            {
              "pitch": 82,
              "velocity": 48,
              "position": 0.5,
              "duration": 0.010416666666666666
            },
            {
              "pitch": 42,
              "velocity": 63,
              "position": 1,
              "duration": 0.010416666666666666
            },
            {
              "pitch": 54,
              "velocity": 54,
              "position": 1,
              "duration": 0.010416666666666666
            },
            {
              "pitch": 82,
              "velocity": 49,
              "position": 1,
              "duration": 0.010416666666666666
            },
            {
              "pitch": 69,
              "velocity": 41,
              "position": 1.5,
              "duration": 0.010416666666666666
            },
            {
              "pitch": 82,
              "velocity": 41,
              "position": 1.5,
              "duration": 0.010416666666666666
            },
            {
              "pitch": 82,
              "velocity": 48,
              "position": 2,
              "duration": 0.010416666666666666
            },
            {
              "pitch": 82,
              "velocity": 61,
              "position": 2.5,
              "duration": 0.010416666666666666
            },
            {
              "pitch": 42,
              "velocity": 55,
              "position": 3,
              "duration": 0.010416666666666666
            },
            {
              "pitch": 54,
              "velocity": 58,
              "position": 3,
              "duration": 0.010416666666666666
            },
            {
              "pitch": 69,
              "velocity": 51,
              "position": 3,
              "duration": 0.010416666666666666
            },
            {
              "pitch": 82,
              "velocity": 41,
              "position": 3,
              "duration": 0.010416666666666666
            },
            {
              "pitch": 42,
              "velocity": 57,
              "position": 3.5,
              "duration": 0.010416666666666666
            },
            {
              "pitch": 69,
              "velocity": 49,
              "position": 3.5,
              "duration": 0.010416666666666666
            },
            {
              "pitch": 82,
              "velocity": 58,
              "position": 3.5,
              "duration": 0.010416666666666666
            },
            {
              "pitch": 42,
              "velocity": 57,
              "position": 3.7916666666666665,
              "duration": 0.010416666666666666
            },
            {
              "pitch": 69,
              "velocity": 42,
              "position": 3.7916666666666665,
              "duration": 0.010416666666666666
            },
            {
              "pitch": 42,
              "velocity": 71,
              "position": 4,
              "duration": 0.010416666666666666
            },
            {
              "pitch": 82,
              "velocity": 57,
              "position": 4,
              "duration": 0.010416666666666666
            },
            {
              "pitch": 42,
              "velocity": 46,
              "position": 4.5,
              "duration": 0.010416666666666666
            },
            {
              "pitch": 69,
              "velocity": 42,
              "position": 4.5,
              "duration": 0.010416666666666666
            },
            {
              "pitch": 82,
              "velocity": 48,
              "position": 4.5,
              "duration": 0.010416666666666666
            },
            {
              "pitch": 42,
              "velocity": 31,
              "position": 4.791666666666667,
              "duration": 0.010416666666666666
            },
            {
              "pitch": 42,
              "velocity": 54,
              "position": 5,
              "duration": 0.010416666666666666
            },
            {
              "pitch": 54,
              "velocity": 58,
              "position": 5,
              "duration": 0.010416666666666666
            },
            {
              "pitch": 82,
              "velocity": 49,
              "position": 5,
              "duration": 0.010416666666666666
            },
            {
              "pitch": 69,
              "velocity": 46,
              "position": 5.5,
              "duration": 0.010416666666666666
            },
            {
              "pitch": 82,
              "velocity": 41,
              "position": 5.5,
              "duration": 0.010416666666666666
            },
            {
              "pitch": 82,
              "velocity": 48,
              "position": 6,
              "duration": 0.010416666666666666
            },
            {
              "pitch": 82,
              "velocity": 61,
              "position": 6.5,
              "duration": 0.010416666666666666
            },
            {
              "pitch": 42,
              "velocity": 40,
              "position": 6.791666666666667,
              "duration": 0.010416666666666666
            },
            {
              "pitch": 42,
              "velocity": 37,
              "position": 7,
              "duration": 0.010416666666666666
            },
            {
              "pitch": 54,
              "velocity": 57,
              "position": 7,
              "duration": 0.010416666666666666
            },
            {
              "pitch": 69,
              "velocity": 47,
              "position": 7,
              "duration": 0.010416666666666666
            },
            {
              "pitch": 82,
              "velocity": 41,
              "position": 7,
              "duration": 0.010416666666666666
            },
            {
              "pitch": 42,
              "velocity": 30,
              "position": 7.291666666666667,
              "duration": 0.010416666666666666
            },
            {
              "pitch": 46,
              "velocity": 47,
              "position": 7.5,
              "duration": 0.010416666666666666
            },
            {
              "pitch": 69,
              "velocity": 46,
              "position": 7.5,
              "duration": 0.010416666666666666
            },
            {
              "pitch": 82,
              "velocity": 58,
              "position": 7.5,
              "duration": 0.010416666666666666
            },
            {
              "pitch": 69,
              "velocity": 53,
              "position": 7.791666666666667,
              "duration": 0.010416666666666666
            }
          ]
        },
        "9": {
          "ctab": {
            "srcChannel": 9,
            "name": "Drums",
            "accType": "RHYTHM",
            "editable": false,
            "mutedNotes": [],
            "mutedChords": [],
            "autoStart": true,
            "sourceChordNote": 0,
            "sourceChordType": "Maj7",
            "ctb2Low": null,
            "ctb2Main": {
              "ntr": "ROOT_FIXED",
              "ntt": "BYPASS",
              "bassOn": false,
              "chordRootUpperLimit": 6,
              "noteLowLimit": 0,
              "noteHighLimit": 127,
              "rtr": "PITCH_SHIFT"
            },
            "ctb2High": null
          },
          "notes": [
            {
              "pitch": 36,
              "velocity": 80,
              "position": 0,
              "duration": 0.010416666666666666
            },
            {
              "pitch": 44,
              "velocity": 63,
              "position": 0,
              "duration": 0.010416666666666666
            },
            {
              "pitch": 44,
              "velocity": 53,
              "position": 0.7916666666666666,
              "duration": 0.010416666666666666
            },
            {
              "pitch": 34,
              "velocity": 60,
              "position": 1,
              "duration": 0.010416666666666666
            },
            {
              "pitch": 39,
              "velocity": 72,
              "position": 1,
              "duration": 0.010416666666666666
            },
            {
              "pitch": 36,
              "velocity": 80,
              "position": 2,
              "duration": 0.010416666666666666
            },
            {
              "pitch": 79,
              "velocity": 30,
              "position": 1.7916666666666667,
              "duration": 0.23958333333333334
            },
            {
              "pitch": 78,
              "velocity": 35,
              "position": 2,
              "duration": 0.23958333333333334
            },
            {
              "pitch": 36,
              "velocity": 79,
              "position": 2.5,
              "duration": 0.010416666666666666
            },
            {
              "pitch": 42,
              "velocity": 55,
              "position": 2.5,
              "duration": 0.010416666666666666
            },
            {
              "pitch": 79,
              "velocity": 48,
              "position": 2.2916666666666665,
              "duration": 0.23958333333333334
            },
            {
              "pitch": 78,
              "velocity": 35,
              "position": 2.5,
              "duration": 0.23958333333333334
            },
            {
              "pitch": 34,
              "velocity": 60,
              "position": 3,
              "duration": 0.010416666666666666
            },
            {
              "pitch": 39,
              "velocity": 72,
              "position": 3,
              "duration": 0.010416666666666666
            },
            {
              "pitch": 42,
              "velocity": 55,
              "position": 3.2916666666666665,
              "duration": 0.010416666666666666
            },
            {
              "pitch": 36,
              "velocity": 80,
              "position": 4,
              "duration": 0.010416666666666666
            },
            {
              "pitch": 44,
              "velocity": 54,
              "position": 4,
              "duration": 0.010416666666666666
            },
            {
              "pitch": 44,
              "velocity": 54,
              "position": 4.791666666666667,
              "duration": 0.010416666666666666
            },
            {
              "pitch": 34,
              "velocity": 60,
              "position": 5,
              "duration": 0.010416666666666666
            },
            {
              "pitch": 39,
              "velocity": 72,
              "position": 5,
              "duration": 0.010416666666666666
            },
            {
              "pitch": 36,
              "velocity": 51,
              "position": 5.791666666666667,
              "duration": 0.010416666666666666
            },
            {
              "pitch": 36,
              "velocity": 80,
              "position": 6,
              "duration": 0.010416666666666666
            },
            {
              "pitch": 79,
              "velocity": 47,
              "position": 5.791666666666667,
              "duration": 0.23958333333333334
            },
            {
              "pitch": 78,
              "velocity": 35,
              "position": 6,
              "duration": 0.23958333333333334
            },
            {
              "pitch": 36,
              "velocity": 80,
              "position": 6.5,
              "duration": 0.010416666666666666
            },
            {
              "pitch": 42,
              "velocity": 54,
              "position": 6.5,
              "duration": 0.010416666666666666
            },
            {
              "pitch": 79,
              "velocity": 46,
              "position": 6.291666666666667,
              "duration": 0.23958333333333334
            },
            {
              "pitch": 78,
              "velocity": 35,
              "position": 6.5,
              "duration": 0.23958333333333334
            },
            {
              "pitch": 34,
              "velocity": 60,
              "position": 7,
              "duration": 0.010416666666666666
            },
            {
              "pitch": 39,
              "velocity": 72,
              "position": 7,
              "duration": 0.010416666666666666
            },
            {
              "pitch": 42,
              "velocity": 57,
              "position": 7.291666666666667,
              "duration": 0.010416666666666666
            }
          ]
        },
        "10": {
          "ctab": {
            "srcChannel": 10,
            "name": "Bass",
            "accType": "BASS",
            "editable": false,
            "mutedNotes": [],
            "mutedChords": [],
            "autoStart": false,
            "sourceChordNote": 0,
            "sourceChordType": "Maj7",
            "ctb2Low": null,
            "ctb2Main": {
              "ntr": "ROOT_TRANSPOSITION",
              "ntt": "MELODY",
              "bassOn": true,
              "chordRootUpperLimit": 3,
              "noteLowLimit": 28,
              "noteHighLimit": 127,
              "rtr": "PITCH_SHIFT_TO_ROOT"
            },
            "ctb2High": null
          },
          "notes": [
            {
              "pitch": 24,
              "velocity": 95,
              "position": 0,
              "duration": 0.4395833333333333
            },
            {
              "pitch": 24,
              "velocity": 95,
              "position": 2,
              "duration": 0.3125
            },
            {
              "pitch": 24,
              "velocity": 95,
              "position": 2.5,
              "duration": 0.375
            },
            {
              "pitch": 24,
              "velocity": 95,
              "position": 4,
              "duration": 0.3958333333333333
            },
            {
              "pitch": 24,
              "velocity": 95,
              "position": 5.791666666666667,
              "duration": 0.19791666666666666
            },
            {
              "pitch": 24,
              "velocity": 95,
              "position": 6,
              "duration": 0.3333333333333333
            },
            {
              "pitch": 24,
              "velocity": 95,
              "position": 6.5,
              "duration": 0.37916666666666665
            }
          ]
        },
        "11": {
          "ctab": {
            "srcChannel": 11,
            "name": "Ep",
            "accType": "CHORD1",
            "editable": false,
            "mutedNotes": [],
            "mutedChords": [],
            "autoStart": false,
            "sourceChordNote": 0,
            "sourceChordType": "Maj7",
            "ctb2Low": null,
            "ctb2Main": {
              "ntr": "ROOT_FIXED",
              "ntt": "CHORD",
              "bassOn": false,
              "chordRootUpperLimit": 4,
              "noteLowLimit": 0,
              "noteHighLimit": 127,
              "rtr": "PITCH_SHIFT"
            },
            "ctb2High": null
          },
          "notes": [
            {
              "pitch": 59,
              "velocity": 65,
              "position": 0,
              "duration": 0.17708333333333334
            },
            {
              "pitch": 64,
              "velocity": 65,
              "position": 0,
              "duration": 0.17708333333333334
            },
            {
              "pitch": 67,
              "velocity": 65,
              "position": 0,
              "duration": 0.17708333333333334
            },
            {
              "pitch": 59,
              "velocity": 65,
              "position": 0.5,
              "duration": 0.17708333333333334
            },
            {
              "pitch": 64,
              "velocity": 65,
              "position": 0.5,
              "duration": 0.17708333333333334
            },
            {
              "pitch": 67,
              "velocity": 65,
              "position": 0.5,
              "duration": 0.17708333333333334
            },
            {
              "pitch": 59,
              "velocity": 65,
              "position": 1,
              "duration": 0.17708333333333334
            },
            {
              "pitch": 64,
              "velocity": 65,
              "position": 1,
              "duration": 0.17708333333333334
            },
            {
              "pitch": 67,
              "velocity": 65,
              "position": 1,
              "duration": 0.17708333333333334
            },
            {
              "pitch": 59,
              "velocity": 65,
              "position": 1.5,
              "duration": 0.17708333333333334
            },
            {
              "pitch": 64,
              "velocity": 65,
              "position": 1.5,
              "duration": 0.17708333333333334
            },
            {
              "pitch": 67,
              "velocity": 65,
              "position": 1.5,
              "duration": 0.17708333333333334
            },
            {
              "pitch": 59,
              "velocity": 65,
              "position": 2,
              "duration": 0.17708333333333334
            },
            {
              "pitch": 64,
              "velocity": 65,
              "position": 2,
              "duration": 0.17708333333333334
            },
            {
              "pitch": 67,
              "velocity": 65,
              "position": 2,
              "duration": 0.17708333333333334
            },
            {
              "pitch": 59,
              "velocity": 65,
              "position": 2.5,
              "duration": 0.17708333333333334
            },
            {
              "pitch": 64,
              "velocity": 65,
              "position": 2.5,
              "duration": 0.17708333333333334
            },
            {
              "pitch": 67,
              "velocity": 65,
              "position": 2.5,
              "duration": 0.17708333333333334
            },
            {
              "pitch": 59,
              "velocity": 65,
              "position": 3,
              "duration": 0.17708333333333334
            },
            {
              "pitch": 64,
              "velocity": 65,
              "position": 3,
              "duration": 0.17708333333333334
            },
            {
              "pitch": 67,
              "velocity": 65,
              "position": 3,
              "duration": 0.17708333333333334
            },
            {
              "pitch": 59,
              "velocity": 65,
              "position": 3.5,
              "duration": 0.17708333333333334
            },
            {
              "pitch": 64,
              "velocity": 65,
              "position": 3.5,
              "duration": 0.17708333333333334
            },
            {
              "pitch": 67,
              "velocity": 65,
              "position": 3.5,
              "duration": 0.17708333333333334
            },
            {
              "pitch": 59,
              "velocity": 65,
              "position": 4,
              "duration": 0.17708333333333334
            },
            {
              "pitch": 64,
              "velocity": 65,
              "position": 4,
              "duration": 0.17708333333333334
            },
            {
              "pitch": 67,
              "velocity": 65,
              "position": 4,
              "duration": 0.17708333333333334
            },
            {
              "pitch": 59,
              "velocity": 65,
              "position": 4.5,
              "duration": 0.17708333333333334
            },
            {
              "pitch": 64,
              "velocity": 65,
              "position": 4.5,
              "duration": 0.17708333333333334
            },
            {
              "pitch": 67,
              "velocity": 65,
              "position": 4.5,
              "duration": 0.17708333333333334
            },
            {
              "pitch": 59,
              "velocity": 65,
              "position": 5,
              "duration": 0.17708333333333334
            },
            {
              "pitch": 64,
              "velocity": 65,
              "position": 5,
              "duration": 0.17708333333333334
            },
            {
              "pitch": 67,
              "velocity": 65,
              "position": 5,
              "duration": 0.17708333333333334
            },
            {
              "pitch": 59,
              "velocity": 65,
              "position": 5.5,
              "duration": 0.17708333333333334
            },
            {
              "pitch": 64,
              "velocity": 65,
              "position": 5.5,
              "duration": 0.17708333333333334
            },
            {
              "pitch": 67,
              "velocity": 65,
              "position": 5.5,
              "duration": 0.17708333333333334
            },
            {
              "pitch": 59,
              "velocity": 65,
              "position": 6,
              "duration": 0.17708333333333334
            },
            {
              "pitch": 64,
              "velocity": 65,
              "position": 6,
              "duration": 0.17708333333333334
            },
            {
              "pitch": 67,
              "velocity": 65,
              "position": 6,
              "duration": 0.17708333333333334
            },
            {
              "pitch": 59,
              "velocity": 65,
              "position": 6.5,
              "duration": 0.17708333333333334
            },
            {
              "pitch": 64,
              "velocity": 65,
              "position": 6.5,
              "duration": 0.17708333333333334
            },
            {
              "pitch": 67,
              "velocity": 65,
              "position": 6.5,
              "duration": 0.17708333333333334
            },
            {
              "pitch": 59,
              "velocity": 65,
              "position": 7,
              "duration": 0.17708333333333334
            },
            {
              "pitch": 64,
              "velocity": 65,
              "position": 7,
              "duration": 0.17708333333333334
            },
            {
              "pitch": 67,
              "velocity": 65,
              "position": 7,
              "duration": 0.17708333333333334
            },
            {
              "pitch": 59,
              "velocity": 65,
              "position": 7.5,
              "duration": 0.17708333333333334
            },
            {
              "pitch": 64,
              "velocity": 65,
              "position": 7.5,
              "duration": 0.17708333333333334
            },
            {
              "pitch": 67,
              "velocity": 65,
              "position": 7.5,
              "duration": 0.17708333333333334
            }
          ]
        },
        "12": {
          "ctab": {
            "srcChannel": 12,
            "name": "JzGtr",
            "accType": "CHORD2",
            "editable": false,
            "mutedNotes": [],
            "mutedChords": [],
            "autoStart": false,
            "sourceChordNote": 0,
            "sourceChordType": "Maj7",
            "ctb2Low": null,
            "ctb2Main": {
              "ntr": "ROOT_FIXED",
              "ntt": "CHORD",
              "bassOn": false,
              "chordRootUpperLimit": 7,
              "noteLowLimit": 0,
              "noteHighLimit": 127,
              "rtr": "PITCH_SHIFT"
            },
            "ctb2High": null
          },
          "notes": [
            {
              "pitch": 64,
              "velocity": 42,
              "position": 2.5,
              "duration": 0.36666666666666664
            },
            {
              "pitch": 67,
              "velocity": 40,
              "position": 2.7916666666666665,
              "duration": 0.38958333333333334
            },
            {
              "pitch": 64,
              "velocity": 31,
              "position": 3.2916666666666665,
              "duration": 0.17916666666666667
            },
            {
              "pitch": 71,
              "velocity": 37,
              "position": 3.5,
              "duration": 0.33541666666666664
            },
            {
              "pitch": 59,
              "velocity": 33,
              "position": 6.5,
              "duration": 1.4895833333333333
            },
            {
              "pitch": 64,
              "velocity": 33,
              "position": 6.5,
              "duration": 1.4895833333333333
            },
            {
              "pitch": 67,
              "velocity": 33,
              "position": 6.5,
              "duration": 1.4895833333333333
            }
          ]
        },
        "13": {
          "ctab": {
            "srcChannel": 13,
            "name": "Strings",
            "accType": "PAD",
            "editable": false,
            "mutedNotes": [],
            "mutedChords": [],
            "autoStart": false,
            "sourceChordNote": 0,
            "sourceChordType": "Maj7",
            "ctb2Low": null,
            "ctb2Main": {
              "ntr": "ROOT_FIXED",
              "ntt": "CHORD",
              "bassOn": false,
              "chordRootUpperLimit": 7,
              "noteLowLimit": 0,
              "noteHighLimit": 127,
              "rtr": "PITCH_SHIFT"
            },
            "ctb2High": null
          },
          "notes": [
            {
              "pitch": 55,
              "velocity": 30,
              "position": 0,
              "duration": 7.989583333333333
            },
            {
              "pitch": 59,
              "velocity": 30,
              "position": 0,
              "duration": 7.989583333333333
            },
            {
              "pitch": 64,
              "velocity": 30,
              "position": 0,
              "duration": 7.989583333333333
            }
          ]
        },
        "14": {
          "ctab": {
            "srcChannel": 14,
            "name": "SteelMsw",
            "accType": "PHRASE1",
            "editable": false,
            "mutedNotes": [],
            "mutedChords": [],
            "autoStart": false,
            "sourceChordNote": 0,
            "sourceChordType": "Maj7",
            "ctb2Low": null,
            "ctb2Main": {
              "ntr": "ROOT_TRANSPOSITION",
              "ntt": "CHORD",
              "bassOn": true,
              "chordRootUpperLimit": 7,
              "noteLowLimit": 0,
              "noteHighLimit": 127,
              "rtr": "PITCH_SHIFT"
            },
            "ctb2High": null
          },
          "notes": [
            {
              "pitch": 60,
              "velocity": 111,
              "position": 0,
              "duration": 0.375
            },
            {
              "pitch": 60,
              "velocity": 111,
              "position": 1.5,
              "duration": 0.375
            },
            {
              "pitch": 60,
              "velocity": 111,
              "position": 4,
              "duration": 0.375
            },
            {
              "pitch": 60,
              "velocity": 111,
              "position": 5.5,
              "duration": 0.375
            }
          ]
        }
      }
    },
    "Fill_In_BB": {
      "type": "Fill_In_BB",
      "sizeInBeats": 4,
      "channels": {
        "0": {
          "ctab": {
            "srcChannel": 0,
            "name": "CC_Crash",
            "accType": "SUBRHYTHM",
            "editable": false,
            "mutedNotes": [],
            "mutedChords": [
              "1+2+5",
              "sus4",
              "1+5",
              "1+8",
              "7aug",
              "Maj7aug",
              "7(#9)",
              "7(b13)",
              "7(b9)",
              "7(13)",
              "7#11",
              "7(9)",
              "7b5",
              "7sus4",
              "7th",
              "dim7",
              "dim",
              "minMaj7(9)",
              "minMaj7",
              "min7(11)",
              "min7(9)",
              "min(9)",
              "m7b5",
              "min7",
              "min6",
              "min",
              "aug",
              "Maj6(9)",
              "Maj7(9)",
              "Maj(9)",
              "Maj7#11",
              "Maj7",
              "Maj6",
              "Maj"
            ],
            "autoStart": true,
            "sourceChordNote": 0,
            "sourceChordType": "Maj7",
            "ctb2Low": null,
            "ctb2Main": {
              "ntr": "ROOT_FIXED",
              "ntt": "BYPASS",
              "bassOn": false,
              "chordRootUpperLimit": 6,
              "noteLowLimit": 0,
              "noteHighLimit": 127,
              "rtr": "RETRIGGER"
            },
            "ctb2High": null
          },
          "notes": []
        },
        "3": {
          "ctab": {
            "srcChannel": 3,
            "name": "Ep Root",
            "accType": "CHORD1",
            "editable": false,
            "mutedNotes": [],
            "mutedChords": [
              "1+2+5",
              "sus4",
              "1+5",
              "1+8",
              "Maj7aug",
              "dim",
              "minMaj7(9)",
              "minMaj7",
              "min6",
              "min",
              "aug",
              "Maj7(9)",
              "Maj7#11",
              "Maj7",
              "Maj6",
              "Maj"
            ],
            "autoStart": false,
            "sourceChordNote": 0,
            "sourceChordType": "Maj7",
            "ctb2Low": null,
            "ctb2Main": {
              "ntr": "ROOT_TRANSPOSITION",
              "ntt": "MELODY",
              "bassOn": false,
              "chordRootUpperLimit": 10,
              "noteLowLimit": 0,
              "noteHighLimit": 127,
              "rtr": "PITCH_SHIFT"
            },
            "ctb2High": null
          },
          "notes": [
            {
              "pitch": 60,
              "velocity": 65,
              "position": 0,
              "duration": 0.17708333333333334
            },
            {
              "pitch": 60,
              "velocity": 65,
              "position": 0.5,
              "duration": 0.17708333333333334
            },
            {
              "pitch": 60,
              "velocity": 65,
              "position": 1,
              "duration": 0.17708333333333334
            },
            {
              "pitch": 60,
              "velocity": 65,
              "position": 1.5,
              "duration": 0.9895833333333334
            },
            {
              "pitch": 60,
              "velocity": 65,
              "position": 2.5,
              "duration": 0.17708333333333334
            }
          ]
        },
        "5": {
          "ctab": {
            "srcChannel": 5,
            "name": "Str Root",
            "accType": "PAD",
            "editable": false,
            "mutedNotes": [],
            "mutedChords": [
              "1+2+5",
              "sus4",
              "1+5",
              "1+8",
              "Maj7aug",
              "dim",
              "minMaj7(9)",
              "minMaj7",
              "min6",
              "min",
              "aug",
              "Maj7(9)",
              "Maj7#11",
              "Maj7",
              "Maj6",
              "Maj"
            ],
            "autoStart": false,
            "sourceChordNote": 0,
            "sourceChordType": "Maj7",
            "ctb2Low": null,
            "ctb2Main": {
              "ntr": "ROOT_TRANSPOSITION",
              "ntt": "MELODY",
              "bassOn": false,
              "chordRootUpperLimit": 6,
              "noteLowLimit": 0,
              "noteHighLimit": 127,
              "rtr": "PITCH_SHIFT"
            },
            "ctb2High": null
          },
          "notes": [
            {
              "pitch": 60,
              "velocity": 30,
              "position": 0,
              "duration": 2.9895833333333335
            }
          ]
        },
        "8": {
          "ctab": {
            "srcChannel": 8,
            "name": "Perc",
            "accType": "SUBRHYTHM",
            "editable": false,
            "mutedNotes": [],
            "mutedChords": [],
            "autoStart": true,
            "sourceChordNote": 0,
            "sourceChordType": "Maj7",
            "ctb2Low": null,
            "ctb2Main": {
              "ntr": "ROOT_FIXED",
              "ntt": "BYPASS",
              "bassOn": false,
              "chordRootUpperLimit": 6,
              "noteLowLimit": 0,
              "noteHighLimit": 127,
              "rtr": "PITCH_SHIFT"
            },
            "ctb2High": null
          },
          "notes": [
            {
              "pitch": 42,
              "velocity": 46,
              "position": 0,
              "duration": 0.010416666666666666
            },
            {
              "pitch": 82,
              "velocity": 57,
              "position": 0,
              "duration": 0.010416666666666666
            },
            {
              "pitch": 42,
              "velocity": 72,
              "position": 0.5,
              "duration": 0.010416666666666666
            },
            {
              "pitch": 69,
              "velocity": 53,
              "position": 0.5,
              "duration": 0.010416666666666666
            },
            {
              "pitch": 82,
              "velocity": 48,
              "position": 0.5,
              "duration": 0.010416666666666666
            },
            {
              "pitch": 42,
              "velocity": 46,
              "position": 1,
              "duration": 0.010416666666666666
            },
            {
              "pitch": 82,
              "velocity": 49,
              "position": 1,
              "duration": 0.010416666666666666
            },
            {
              "pitch": 42,
              "velocity": 72,
              "position": 1.5,
              "duration": 0.010416666666666666
            },
            {
              "pitch": 69,
              "velocity": 53,
              "position": 1.5,
              "duration": 0.010416666666666666
            },
            {
              "pitch": 82,
              "velocity": 41,
              "position": 1.5,
              "duration": 0.010416666666666666
            },
            {
              "pitch": 40,
              "velocity": 25,
              "position": 1.7916666666666667,
              "duration": 0.010416666666666666
            },
            {
              "pitch": 46,
              "velocity": 47,
              "position": 1.8125,
              "duration": 0.010416666666666666
            },
            {
              "pitch": 42,
              "velocity": 1,
              "position": 2,
              "duration": 0.010416666666666666
            },
            {
              "pitch": 82,
              "velocity": 48,
              "position": 2,
              "duration": 0.010416666666666666
            },
            {
              "pitch": 47,
              "velocity": 63,
              "position": 2.3333333333333335,
              "duration": 0.010416666666666666
            },
            {
              "pitch": 40,
              "velocity": 15,
              "position": 2.5,
              "duration": 0.010416666666666666
            },
            {
              "pitch": 82,
              "velocity": 61,
              "position": 2.5,
              "duration": 0.010416666666666666
            },
            {
              "pitch": 40,
              "velocity": 24,
              "position": 2.625,
              "duration": 0.010416666666666666
            },
            {
              "pitch": 40,
              "velocity": 29,
              "position": 2.75,
              "duration": 0.010416666666666666
            },
            {
              "pitch": 40,
              "velocity": 48,
              "position": 2.875,
              "duration": 0.010416666666666666
            },
            {
              "pitch": 40,
              "velocity": 90,
              "position": 3,
              "duration": 0.010416666666666666
            },
            {
              "pitch": 69,
              "velocity": 51,
              "position": 3,
              "duration": 0.010416666666666666
            },
            {
              "pitch": 82,
              "velocity": 41,
              "position": 3,
              "duration": 0.010416666666666666
            },
            {
              "pitch": 69,
              "velocity": 49,
              "position": 3.5,
              "duration": 0.010416666666666666
            },
            {
              "pitch": 82,
              "velocity": 58,
              "position": 3.5,
              "duration": 0.010416666666666666
            },
            {
              "pitch": 69,
              "velocity": 50,
              "position": 3.7916666666666665,
              "duration": 0.010416666666666666
            }
          ]
        },
        "9": {
          "ctab": {
            "srcChannel": 9,
            "name": "Drums",
            "accType": "RHYTHM",
            "editable": false,
            "mutedNotes": [],
            "mutedChords": [],
            "autoStart": true,
            "sourceChordNote": 0,
            "sourceChordType": "Maj7",
            "ctb2Low": null,
            "ctb2Main": {
              "ntr": "ROOT_FIXED",
              "ntt": "BYPASS",
              "bassOn": false,
              "chordRootUpperLimit": 6,
              "noteLowLimit": 0,
              "noteHighLimit": 127,
              "rtr": "PITCH_SHIFT"
            },
            "ctb2High": null
          },
          "notes": [
            {
              "pitch": 36,
              "velocity": 80,
              "position": 0,
              "duration": 0.010416666666666666
            },
            {
              "pitch": 44,
              "velocity": 63,
              "position": 0,
              "duration": 0.010416666666666666
            },
            {
              "pitch": 44,
              "velocity": 53,
              "position": 0.7916666666666666,
              "duration": 0.010416666666666666
            },
            {
              "pitch": 36,
              "velocity": 33,
              "position": 0.8125,
              "duration": 0.010416666666666666
            },
            {
              "pitch": 34,
              "velocity": 60,
              "position": 1,
              "duration": 0.010416666666666666
            },
            {
              "pitch": 39,
              "velocity": 72,
              "position": 1,
              "duration": 0.010416666666666666
            },
            {
              "pitch": 34,
              "velocity": 60,
              "position": 1.5,
              "duration": 0.010416666666666666
            },
            {
              "pitch": 36,
              "velocity": 13,
              "position": 1.8125,
              "duration": 0.010416666666666666
            },
            {
              "pitch": 36,
              "velocity": 80,
              "position": 2,
              "duration": 0.010416666666666666
            },
            {
              "pitch": 36,
              "velocity": 80,
              "position": 2.5,
              "duration": 0.010416666666666666
            },
            {
              "pitch": 42,
              "velocity": 55,
              "position": 2.5,
              "duration": 0.010416666666666666
            },
            {
              "pitch": 17,
              "velocity": 70,
              "position": 3,
              "duration": 0.23958333333333334
            },
            {
              "pitch": 42,
              "velocity": 55,
              "position": 3.2916666666666665,
              "duration": 0.010416666666666666
            },
            {
              "pitch": 18,
              "velocity": 70,
              "position": 3.2604166666666665,
              "duration": 0.23958333333333334
            },
            {
              "pitch": 17,
              "velocity": 70,
              "position": 3.5,
              "duration": 0.23958333333333334
            }
          ]
        },
        "10": {
          "ctab": {
            "srcChannel": 10,
            "name": "Bass",
            "accType": "BASS",
            "editable": false,
            "mutedNotes": [],
            "mutedChords": [],
            "autoStart": false,
            "sourceChordNote": 0,
            "sourceChordType": "Maj7",
            "ctb2Low": null,
            "ctb2Main": {
              "ntr": "ROOT_TRANSPOSITION",
              "ntt": "MELODY",
              "bassOn": true,
              "chordRootUpperLimit": 3,
              "noteLowLimit": 28,
              "noteHighLimit": 127,
              "rtr": "PITCH_SHIFT_TO_ROOT"
            },
            "ctb2High": null
          },
          "notes": [
            {
              "pitch": 24,
              "velocity": 95,
              "position": 0,
              "duration": 0.3958333333333333
            },
            {
              "pitch": 24,
              "velocity": 95,
              "position": 1.7916666666666667,
              "duration": 0.19791666666666666
            },
            {
              "pitch": 24,
              "velocity": 95,
              "position": 2,
              "duration": 0.3333333333333333
            },
            {
              "pitch": 24,
              "velocity": 95,
              "position": 2.5,
              "duration": 0.37916666666666665
            }
          ]
        },
        "11": {
          "ctab": {
            "srcChannel": 11,
            "name": "Ep",
            "accType": "CHORD1",
            "editable": false,
            "mutedNotes": [],
            "mutedChords": [],
            "autoStart": false,
            "sourceChordNote": 0,
            "sourceChordType": "Maj7",
            "ctb2Low": null,
            "ctb2Main": {
              "ntr": "ROOT_FIXED",
              "ntt": "CHORD",
              "bassOn": false,
              "chordRootUpperLimit": 4,
              "noteLowLimit": 0,
              "noteHighLimit": 127,
              "rtr": "PITCH_SHIFT"
            },
            "ctb2High": null
          },
          "notes": [
            {
              "pitch": 59,
              "velocity": 65,
              "position": 0,
              "duration": 0.17708333333333334
            },
            {
              "pitch": 64,
              "velocity": 65,
              "position": 0,
              "duration": 0.17708333333333334
            },
            {
              "pitch": 67,
              "velocity": 65,
              "position": 0,
              "duration": 0.17708333333333334
            },
            {
              "pitch": 59,
              "velocity": 65,
              "position": 0.5,
              "duration": 0.17708333333333334
            },
            {
              "pitch": 64,
              "velocity": 65,
              "position": 0.5,
              "duration": 0.17708333333333334
            },
            {
              "pitch": 67,
              "velocity": 65,
              "position": 0.5,
              "duration": 0.17708333333333334
            },
            {
              "pitch": 59,
              "velocity": 65,
              "position": 1,
              "duration": 0.17708333333333334
            },
            {
              "pitch": 64,
              "velocity": 65,
              "position": 1,
              "duration": 0.17708333333333334
            },
            {
              "pitch": 67,
              "velocity": 65,
              "position": 1,
              "duration": 0.17708333333333334
            },
            {
              "pitch": 59,
              "velocity": 65,
              "position": 1.5,
              "duration": 0.9895833333333334
            },
            {
              "pitch": 64,
              "velocity": 65,
              "position": 1.5,
              "duration": 0.9895833333333334
            },
            {
              "pitch": 67,
              "velocity": 65,
              "position": 1.5,
              "duration": 0.9895833333333334
            },
            {
              "pitch": 59,
              "velocity": 65,
              "position": 2.5,
              "duration": 0.17708333333333334
            },
            {
              "pitch": 64,
              "velocity": 65,
              "position": 2.5,
              "duration": 0.17708333333333334
            },
            {
              "pitch": 67,
              "velocity": 65,
              "position": 2.5,
              "duration": 0.17708333333333334
            }
          ]
        },
        "12": {
          "ctab": {
            "srcChannel": 12,
            "name": "JzGtr",
            "accType": "CHORD2",
            "editable": false,
            "mutedNotes": [],
            "mutedChords": [],
            "autoStart": false,
            "sourceChordNote": 0,
            "sourceChordType": "Maj7",
            "ctb2Low": null,
            "ctb2Main": {
              "ntr": "ROOT_FIXED",
              "ntt": "CHORD",
              "bassOn": false,
              "chordRootUpperLimit": 7,
              "noteLowLimit": 0,
              "noteHighLimit": 127,
              "rtr": "PITCH_SHIFT"
            },
            "ctb2High": null
          },
          "notes": [
            {
              "pitch": 59,
              "velocity": 35,
              "position": 2.5,
              "duration": 0.4895833333333333
            },
            {
              "pitch": 64,
              "velocity": 50,
              "position": 2.5,
              "duration": 0.4895833333333333
            },
            {
              "pitch": 67,
              "velocity": 38,
              "position": 2.5,
              "duration": 0.4895833333333333
            }
          ]
        },
        "13": {
          "ctab": {
            "srcChannel": 13,
            "name": "Strings",
            "accType": "PAD",
            "editable": false,
            "mutedNotes": [],
            "mutedChords": [],
            "autoStart": false,
            "sourceChordNote": 0,
            "sourceChordType": "Maj7",
            "ctb2Low": null,
            "ctb2Main": {
              "ntr": "ROOT_FIXED",
              "ntt": "CHORD",
              "bassOn": false,
              "chordRootUpperLimit": 7,
              "noteLowLimit": 0,
              "noteHighLimit": 127,
              "rtr": "PITCH_SHIFT"
            },
            "ctb2High": null
          },
          "notes": [
            {
              "pitch": 55,
              "velocity": 30,
              "position": 0,
              "duration": 2.9895833333333335
            },
            {
              "pitch": 59,
              "velocity": 30,
              "position": 0,
              "duration": 2.9895833333333335
            },
            {
              "pitch": 64,
              "velocity": 30,
              "position": 0,
              "duration": 2.9895833333333335
            }
          ]
        },
        "14": {
          "ctab": {
            "srcChannel": 14,
            "name": "SteelMsw",
            "accType": "PHRASE1",
            "editable": false,
            "mutedNotes": [],
            "mutedChords": [],
            "autoStart": false,
            "sourceChordNote": 0,
            "sourceChordType": "Maj7",
            "ctb2Low": null,
            "ctb2Main": {
              "ntr": "ROOT_TRANSPOSITION",
              "ntt": "CHORD",
              "bassOn": true,
              "chordRootUpperLimit": 7,
              "noteLowLimit": 0,
              "noteHighLimit": 127,
              "rtr": "PITCH_SHIFT"
            },
            "ctb2High": null
          },
          "notes": [
            {
              "pitch": 60,
              "velocity": 111,
              "position": 0,
              "duration": 0.375
            },
            {
              "pitch": 60,
              "velocity": 111,
              "position": 1.5,
              "duration": 0.375
            }
          ]
        }
      }
    },
    "Intro_B": {
      "type": "Intro_B",
      "sizeInBeats": 8,
      "channels": {
        "2": {
          "ctab": {
            "srcChannel": 2,
            "name": "Bass",
            "accType": "BASS",
            "editable": false,
            "mutedNotes": [],
            "mutedChords": [
              "1+5",
              "1+8",
              "dim7",
              "dim",
              "minMaj7(9)",
              "minMaj7",
              "min7(11)",
              "min7(9)",
              "min(9)",
              "m7b5",
              "min7",
              "min6",
              "min"
            ],
            "autoStart": false,
            "sourceChordNote": 0,
            "sourceChordType": "Maj",
            "ctb2Low": null,
            "ctb2Main": {
              "ntr": "ROOT_TRANSPOSITION",
              "ntt": "BYPASS",
              "bassOn": false,
              "chordRootUpperLimit": 3,
              "noteLowLimit": 28,
              "noteHighLimit": 127,
              "rtr": "PITCH_SHIFT"
            },
            "ctb2High": null
          },
          "notes": [
            {
              "pitch": 36,
              "velocity": 87,
              "position": 0,
              "duration": 0.6770833333333334
            },
            {
              "pitch": 36,
              "velocity": 87,
              "position": 0.7916666666666666,
              "duration": 0.6979166666666666
            },
            {
              "pitch": 41,
              "velocity": 87,
              "position": 1.5,
              "duration": 0.9729166666666667
            },
            {
              "pitch": 29,
              "velocity": 87,
              "position": 2.5,
              "duration": 0.47291666666666665
            },
            {
              "pitch": 31,
              "velocity": 87,
              "position": 3,
              "duration": 0.9791666666666666
            },
            {
              "pitch": 31,
              "velocity": 87,
              "position": 4,
              "duration": 0.6041666666666666
            },
            {
              "pitch": 31,
              "velocity": 87,
              "position": 5.5,
              "duration": 1.28125
            },
            {
              "pitch": 31,
              "velocity": 87,
              "position": 6.8125,
              "duration": 0.17708333333333334
            },
            {
              "pitch": 33,
              "velocity": 87,
              "position": 7,
              "duration": 0.3020833333333333
            },
            {
              "pitch": 36,
              "velocity": 87,
              "position": 7.3125,
              "duration": 0.17708333333333334
            },
            {
              "pitch": 31,
              "velocity": 87,
              "position": 7.5,
              "duration": 0.3020833333333333
            },
            {
              "pitch": 31,
              "velocity": 87,
              "position": 7.8125,
              "duration": 0.17708333333333334
            }
          ]
        },
        "3": {
          "ctab": {
            "srcChannel": 3,
            "name": "Ep Root",
            "accType": "CHORD1",
            "editable": false,
            "mutedNotes": [],
            "mutedChords": [
              "1+5",
              "1+8",
              "dim7",
              "dim",
              "minMaj7(9)",
              "minMaj7",
              "min7(11)",
              "min7(9)",
              "min(9)",
              "m7b5",
              "min7",
              "min6",
              "min"
            ],
            "autoStart": false,
            "sourceChordNote": 0,
            "sourceChordType": "Maj",
            "ctb2Low": null,
            "ctb2Main": {
              "ntr": "ROOT_TRANSPOSITION",
              "ntt": "BYPASS",
              "bassOn": false,
              "chordRootUpperLimit": 7,
              "noteLowLimit": 0,
              "noteHighLimit": 127,
              "rtr": "PITCH_SHIFT"
            },
            "ctb2High": null
          },
          "notes": [
            {
              "pitch": 59,
              "velocity": 80,
              "position": 0,
              "duration": 0.575
            },
            {
              "pitch": 62,
              "velocity": 80,
              "position": 0,
              "duration": 0.65625
            },
            {
              "pitch": 64,
              "velocity": 80,
              "position": 0,
              "duration": 0.6666666666666666
            },
            {
              "pitch": 67,
              "velocity": 80,
              "position": 0,
              "duration": 0.68125
            },
            {
              "pitch": 65,
              "velocity": 80,
              "position": 0.7916666666666666,
              "duration": 0.21875
            },
            {
              "pitch": 64,
              "velocity": 80,
              "position": 0.7916666666666666,
              "duration": 0.25416666666666665
            },
            {
              "pitch": 69,
              "velocity": 80,
              "position": 0.7916666666666666,
              "duration": 0.26458333333333334
            },
            {
              "pitch": 72,
              "velocity": 80,
              "position": 0.7916666666666666,
              "duration": 0.28125
            },
            {
              "pitch": 69,
              "velocity": 80,
              "position": 1.5,
              "duration": 2.2083333333333335
            },
            {
              "pitch": 65,
              "velocity": 80,
              "position": 1.5,
              "duration": 2.2395833333333335
            },
            {
              "pitch": 64,
              "velocity": 80,
              "position": 1.5,
              "duration": 2.25
            },
            {
              "pitch": 60,
              "velocity": 80,
              "position": 1.5,
              "duration": 2.3020833333333335
            },
            {
              "pitch": 62,
              "velocity": 80,
              "position": 4,
              "duration": 0.28541666666666665
            },
            {
              "pitch": 59,
              "velocity": 80,
              "position": 4,
              "duration": 0.30416666666666664
            },
            {
              "pitch": 64,
              "velocity": 80,
              "position": 4,
              "duration": 0.30416666666666664
            },
            {
              "pitch": 67,
              "velocity": 80,
              "position": 4,
              "duration": 0.30416666666666664
            },
            {
              "pitch": 62,
              "velocity": 80,
              "position": 4.791666666666667,
              "duration": 0.23333333333333334
            },
            {
              "pitch": 64,
              "velocity": 80,
              "position": 4.791666666666667,
              "duration": 0.24375
            },
            {
              "pitch": 67,
              "velocity": 80,
              "position": 4.791666666666667,
              "duration": 0.2625
            },
            {
              "pitch": 59,
              "velocity": 80,
              "position": 4.791666666666667,
              "duration": 0.275
            },
            {
              "pitch": 65,
              "velocity": 80,
              "position": 5.5,
              "duration": 2.2020833333333334
            },
            {
              "pitch": 62,
              "velocity": 80,
              "position": 5.5,
              "duration": 2.2104166666666667
            },
            {
              "pitch": 60,
              "velocity": 80,
              "position": 5.5,
              "duration": 2.2125
            },
            {
              "pitch": 57,
              "velocity": 80,
              "position": 5.5,
              "duration": 2.25
            }
          ]
        },
        "4": {
          "ctab": {
            "srcChannel": 4,
            "name": "JzGtrRoo",
            "accType": "CHORD2",
            "editable": false,
            "mutedNotes": [],
            "mutedChords": [
              "1+5",
              "1+8",
              "dim7",
              "dim",
              "minMaj7(9)",
              "minMaj7",
              "min7(11)",
              "min7(9)",
              "min(9)",
              "m7b5",
              "min7",
              "min6",
              "min"
            ],
            "autoStart": false,
            "sourceChordNote": 0,
            "sourceChordType": "Maj",
            "ctb2Low": null,
            "ctb2Main": {
              "ntr": "ROOT_TRANSPOSITION",
              "ntt": "BYPASS",
              "bassOn": false,
              "chordRootUpperLimit": 8,
              "noteLowLimit": 0,
              "noteHighLimit": 127,
              "rtr": "PITCH_SHIFT"
            },
            "ctb2High": null
          },
          "notes": [
            {
              "pitch": 60,
              "velocity": 51,
              "position": 2.3125,
              "duration": 0.17708333333333334
            },
            {
              "pitch": 67,
              "velocity": 71,
              "position": 2.5,
              "duration": 0.2916666666666667
            },
            {
              "pitch": 69,
              "velocity": 58,
              "position": 2.8125,
              "duration": 0.17708333333333334
            },
            {
              "pitch": 67,
              "velocity": 58,
              "position": 3,
              "duration": 0.275
            },
            {
              "pitch": 64,
              "velocity": 47,
              "position": 3.3125,
              "duration": 0.17083333333333334
            },
            {
              "pitch": 62,
              "velocity": 55,
              "position": 3.5,
              "duration": 0.3020833333333333
            },
            {
              "pitch": 60,
              "velocity": 39,
              "position": 3.8125,
              "duration": 0.11458333333333333
            },
            {
              "pitch": 62,
              "velocity": 71,
              "position": 4,
              "duration": 0.8020833333333334
            },
            {
              "pitch": 64,
              "velocity": 71,
              "position": 4.8125,
              "duration": 0.16875
            },
            {
              "pitch": 55,
              "velocity": 59,
              "position": 5.5,
              "duration": 1.8541666666666667
            },
            {
              "pitch": 67,
              "velocity": 59,
              "position": 5.5,
              "duration": 1.8541666666666667
            }
          ]
        },
        "5": {
          "ctab": {
            "srcChannel": 5,
            "name": "Str Root",
            "accType": "PAD",
            "editable": false,
            "mutedNotes": [],
            "mutedChords": [
              "1+5",
              "1+8",
              "dim7",
              "dim",
              "minMaj7(9)",
              "minMaj7",
              "min7(11)",
              "min7(9)",
              "min(9)",
              "m7b5",
              "min7",
              "min6",
              "min"
            ],
            "autoStart": false,
            "sourceChordNote": 0,
            "sourceChordType": "Maj",
            "ctb2Low": null,
            "ctb2Main": {
              "ntr": "ROOT_TRANSPOSITION",
              "ntt": "BYPASS",
              "bassOn": false,
              "chordRootUpperLimit": 10,
              "noteLowLimit": 53,
              "noteHighLimit": 64,
              "rtr": "PITCH_SHIFT"
            },
            "ctb2High": null
          },
          "notes": [
            {
              "pitch": 59,
              "velocity": 30,
              "position": 4,
              "duration": 1.4895833333333333
            },
            {
              "pitch": 62,
              "velocity": 30,
              "position": 4,
              "duration": 1.4895833333333333
            },
            {
              "pitch": 64,
              "velocity": 30,
              "position": 4,
              "duration": 1.4895833333333333
            },
            {
              "pitch": 67,
              "velocity": 30,
              "position": 4,
              "duration": 1.4895833333333333
            },
            {
              "pitch": 57,
              "velocity": 30,
              "position": 5.5,
              "duration": 1.4895833333333333
            },
            {
              "pitch": 60,
              "velocity": 30,
              "position": 5.5,
              "duration": 1.4895833333333333
            },
            {
              "pitch": 62,
              "velocity": 30,
              "position": 5.5,
              "duration": 1.4895833333333333
            },
            {
              "pitch": 65,
              "velocity": 30,
              "position": 5.5,
              "duration": 1.4895833333333333
            }
          ]
        },
        "6": {
          "ctab": {
            "srcChannel": 6,
            "name": "SteelMsw",
            "accType": "PHRASE1",
            "editable": false,
            "mutedNotes": [],
            "mutedChords": [
              "1+5",
              "1+8",
              "dim7",
              "dim",
              "minMaj7(9)",
              "minMaj7",
              "min7(11)",
              "min7(9)",
              "min(9)",
              "m7b5",
              "min7",
              "min6",
              "min"
            ],
            "autoStart": false,
            "sourceChordNote": 0,
            "sourceChordType": "Maj",
            "ctb2Low": null,
            "ctb2Main": {
              "ntr": "ROOT_FIXED",
              "ntt": "BYPASS",
              "bassOn": false,
              "chordRootUpperLimit": 7,
              "noteLowLimit": 0,
              "noteHighLimit": 127,
              "rtr": "PITCH_SHIFT"
            },
            "ctb2High": null
          },
          "notes": [
            {
              "pitch": 112,
              "velocity": 73,
              "position": 2,
              "duration": 0.23958333333333334
            },
            {
              "pitch": 111,
              "velocity": 73,
              "position": 2.3125,
              "duration": 0.17708333333333334
            },
            {
              "pitch": 110,
              "velocity": 73,
              "position": 2.5,
              "duration": 0.23958333333333334
            },
            {
              "pitch": 111,
              "velocity": 73,
              "position": 2.8125,
              "duration": 0.17708333333333334
            },
            {
              "pitch": 112,
              "velocity": 73,
              "position": 3,
              "duration": 0.23958333333333334
            },
            {
              "pitch": 111,
              "velocity": 73,
              "position": 3.3125,
              "duration": 0.17708333333333334
            },
            {
              "pitch": 110,
              "velocity": 73,
              "position": 3.5,
              "duration": 0.23958333333333334
            },
            {
              "pitch": 109,
              "velocity": 73,
              "position": 3.8125,
              "duration": 0.17708333333333334
            },
            {
              "pitch": 108,
              "velocity": 73,
              "position": 4,
              "duration": 0.23958333333333334
            },
            {
              "pitch": 105,
              "velocity": 73,
              "position": 4.8125,
              "duration": 0.17708333333333334
            },
            {
              "pitch": 108,
              "velocity": 73,
              "position": 5,
              "duration": 0.23958333333333334
            }
          ]
        },
        "7": {
          "ctab": {
            "srcChannel": 7,
            "name": "Flute",
            "accType": "PHRASE2",
            "editable": false,
            "mutedNotes": [],
            "mutedChords": [
              "1+5",
              "1+8",
              "dim7",
              "dim",
              "minMaj7(9)",
              "minMaj7",
              "min7(11)",
              "min7(9)",
              "min(9)",
              "m7b5",
              "min7",
              "min6",
              "min"
            ],
            "autoStart": false,
            "sourceChordNote": 0,
            "sourceChordType": "Maj",
            "ctb2Low": null,
            "ctb2Main": {
              "ntr": "ROOT_TRANSPOSITION",
              "ntt": "BYPASS",
              "bassOn": false,
              "chordRootUpperLimit": 8,
              "noteLowLimit": 0,
              "noteHighLimit": 127,
              "rtr": "PITCH_SHIFT"
            },
            "ctb2High": null
          },
          "notes": []
        },
        "8": {
          "ctab": {
            "srcChannel": 8,
            "name": "Perc",
            "accType": "SUBRHYTHM",
            "editable": false,
            "mutedNotes": [],
            "mutedChords": [],
            "autoStart": true,
            "sourceChordNote": 0,
            "sourceChordType": "Maj7",
            "ctb2Low": null,
            "ctb2Main": {
              "ntr": "ROOT_FIXED",
              "ntt": "BYPASS",
              "bassOn": false,
              "chordRootUpperLimit": 6,
              "noteLowLimit": 0,
              "noteHighLimit": 127,
              "rtr": "PITCH_SHIFT"
            },
            "ctb2High": null
          },
          "notes": [
            {
              "pitch": 42,
              "velocity": 53,
              "position": 0,
              "duration": 0.010416666666666666
            },
            {
              "pitch": 70,
              "velocity": 44,
              "position": 0,
              "duration": 0.010416666666666666
            },
            {
              "pitch": 70,
              "velocity": 18,
              "position": 0.5,
              "duration": 0.010416666666666666
            },
            {
              "pitch": 70,
              "velocity": 18,
              "position": 0.8125,
              "duration": 0.010416666666666666
            },
            {
              "pitch": 42,
              "velocity": 53,
              "position": 1,
              "duration": 0.010416666666666666
            },
            {
              "pitch": 70,
              "velocity": 34,
              "position": 1,
              "duration": 0.010416666666666666
            },
            {
              "pitch": 42,
              "velocity": 34,
              "position": 1.5,
              "duration": 0.010416666666666666
            },
            {
              "pitch": 70,
              "velocity": 44,
              "position": 1.5,
              "duration": 0.010416666666666666
            },
            {
              "pitch": 70,
              "velocity": 18,
              "position": 1.8125,
              "duration": 0.010416666666666666
            },
            {
              "pitch": 42,
              "velocity": 53,
              "position": 2,
              "duration": 0.010416666666666666
            },
            {
              "pitch": 70,
              "velocity": 36,
              "position": 2,
              "duration": 0.010416666666666666
            },
            {
              "pitch": 42,
              "velocity": 34,
              "position": 2.5,
              "duration": 0.010416666666666666
            },
            {
              "pitch": 70,
              "velocity": 46,
              "position": 2.5,
              "duration": 0.010416666666666666
            },
            {
              "pitch": 70,
              "velocity": 18,
              "position": 2.8125,
              "duration": 0.010416666666666666
            },
            {
              "pitch": 42,
              "velocity": 53,
              "position": 3,
              "duration": 0.010416666666666666
            },
            {
              "pitch": 70,
              "velocity": 44,
              "position": 3,
              "duration": 0.010416666666666666
            },
            {
              "pitch": 42,
              "velocity": 53,
              "position": 3.5,
              "duration": 0.010416666666666666
            },
            {
              "pitch": 70,
              "velocity": 54,
              "position": 3.5,
              "duration": 0.010416666666666666
            },
            {
              "pitch": 42,
              "velocity": 46,
              "position": 4,
              "duration": 0.010416666666666666
            },
            {
              "pitch": 82,
              "velocity": 57,
              "position": 4,
              "duration": 0.010416666666666666
            },
            {
              "pitch": 42,
              "velocity": 48,
              "position": 4.5,
              "duration": 0.010416666666666666
            },
            {
              "pitch": 69,
              "velocity": 53,
              "position": 4.5,
              "duration": 0.010416666666666666
            },
            {
              "pitch": 82,
              "velocity": 48,
              "position": 4.5,
              "duration": 0.010416666666666666
            },
            {
              "pitch": 42,
              "velocity": 46,
              "position": 5,
              "duration": 0.010416666666666666
            },
            {
              "pitch": 82,
              "velocity": 49,
              "position": 5,
              "duration": 0.010416666666666666
            },
            {
              "pitch": 42,
              "velocity": 48,
              "position": 5.5,
              "duration": 0.010416666666666666
            },
            {
              "pitch": 69,
              "velocity": 53,
              "position": 5.5,
              "duration": 0.010416666666666666
            },
            {
              "pitch": 82,
              "velocity": 41,
              "position": 5.5,
              "duration": 0.010416666666666666
            },
            {
              "pitch": 46,
              "velocity": 41,
              "position": 5.8125,
              "duration": 0.010416666666666666
            },
            {
              "pitch": 42,
              "velocity": 1,
              "position": 6,
              "duration": 0.010416666666666666
            },
            {
              "pitch": 82,
              "velocity": 48,
              "position": 6,
              "duration": 0.010416666666666666
            },
            {
              "pitch": 82,
              "velocity": 61,
              "position": 6.5,
              "duration": 0.010416666666666666
            },
            {
              "pitch": 40,
              "velocity": 29,
              "position": 6.75,
              "duration": 0.010416666666666666
            },
            {
              "pitch": 40,
              "velocity": 48,
              "position": 6.875,
              "duration": 0.010416666666666666
            },
            {
              "pitch": 40,
              "velocity": 91,
              "position": 7,
              "duration": 0.010416666666666666
            },
            {
              "pitch": 69,
              "velocity": 51,
              "position": 7,
              "duration": 0.010416666666666666
            },
            {
              "pitch": 82,
              "velocity": 41,
              "position": 7,
              "duration": 0.010416666666666666
            },
            {
              "pitch": 69,
              "velocity": 49,
              "position": 7.5,
              "duration": 0.010416666666666666
            },
            {
              "pitch": 82,
              "velocity": 58,
              "position": 7.5,
              "duration": 0.010416666666666666
            },
            {
              "pitch": 69,
              "velocity": 50,
              "position": 7.791666666666667,
              "duration": 0.010416666666666666
            }
          ]
        },
        "9": {
          "ctab": {
            "srcChannel": 9,
            "name": "Drums",
            "accType": "RHYTHM",
            "editable": false,
            "mutedNotes": [],
            "mutedChords": [],
            "autoStart": true,
            "sourceChordNote": 0,
            "sourceChordType": "Maj7",
            "ctb2Low": null,
            "ctb2Main": {
              "ntr": "ROOT_FIXED",
              "ntt": "BYPASS",
              "bassOn": false,
              "chordRootUpperLimit": 6,
              "noteLowLimit": 0,
              "noteHighLimit": 127,
              "rtr": "PITCH_SHIFT"
            },
            "ctb2High": null
          },
          "notes": [
            {
              "pitch": 18,
              "velocity": 66,
              "position": 2.7604166666666665,
              "duration": 0.23958333333333334
            },
            {
              "pitch": 34,
              "velocity": 58,
              "position": 3,
              "duration": 0.010416666666666666
            },
            {
              "pitch": 36,
              "velocity": 61,
              "position": 3,
              "duration": 0.010416666666666666
            },
            {
              "pitch": 17,
              "velocity": 46,
              "position": 3,
              "duration": 0.23958333333333334
            },
            {
              "pitch": 18,
              "velocity": 70,
              "position": 3.2604166666666665,
              "duration": 0.23958333333333334
            },
            {
              "pitch": 34,
              "velocity": 61,
              "position": 3.5,
              "duration": 0.010416666666666666
            },
            {
              "pitch": 36,
              "velocity": 57,
              "position": 3.5,
              "duration": 0.010416666666666666
            },
            {
              "pitch": 17,
              "velocity": 44,
              "position": 3.5,
              "duration": 0.23958333333333334
            },
            {
              "pitch": 26,
              "velocity": 32,
              "position": 0,
              "duration": 3.9895833333333335
            },
            {
              "pitch": 18,
              "velocity": 70,
              "position": 3.7604166666666665,
              "duration": 0.23958333333333334
            },
            {
              "pitch": 36,
              "velocity": 80,
              "position": 4,
              "duration": 0.010416666666666666
            },
            {
              "pitch": 44,
              "velocity": 63,
              "position": 4,
              "duration": 0.010416666666666666
            },
            {
              "pitch": 44,
              "velocity": 53,
              "position": 4.791666666666667,
              "duration": 0.010416666666666666
            },
            {
              "pitch": 36,
              "velocity": 33,
              "position": 4.8125,
              "duration": 0.010416666666666666
            },
            {
              "pitch": 34,
              "velocity": 60,
              "position": 5,
              "duration": 0.010416666666666666
            },
            {
              "pitch": 39,
              "velocity": 72,
              "position": 5,
              "duration": 0.010416666666666666
            },
            {
              "pitch": 34,
              "velocity": 60,
              "position": 5.5,
              "duration": 0.010416666666666666
            },
            {
              "pitch": 36,
              "velocity": 80,
              "position": 5.5,
              "duration": 0.010416666666666666
            },
            {
              "pitch": 36,
              "velocity": 13,
              "position": 5.8125,
              "duration": 0.010416666666666666
            },
            {
              "pitch": 36,
              "velocity": 80,
              "position": 6,
              "duration": 0.010416666666666666
            },
            {
              "pitch": 42,
              "velocity": 55,
              "position": 6.5,
              "duration": 0.010416666666666666
            },
            {
              "pitch": 17,
              "velocity": 70,
              "position": 7,
              "duration": 0.23958333333333334
            },
            {
              "pitch": 42,
              "velocity": 55,
              "position": 7.291666666666667,
              "duration": 0.010416666666666666
            },
            {
              "pitch": 18,
              "velocity": 70,
              "position": 7.260416666666667,
              "duration": 0.23958333333333334
            },
            {
              "pitch": 17,
              "velocity": 70,
              "position": 7.5,
              "duration": 0.23958333333333334
            }
          ]
        },
        "10": {
          "ctab": {
            "srcChannel": 10,
            "name": "Bass",
            "accType": "BASS",
            "editable": false,
            "mutedNotes": [],
            "mutedChords": [
              "1+2+5",
              "sus4",
              "7aug",
              "Maj7aug",
              "7(#9)",
              "7(b13)",
              "7(b9)",
              "7(13)",
              "7#11",
              "7(9)",
              "7b5",
              "7sus4",
              "7th",
              "aug",
              "Maj6(9)",
              "Maj7(9)",
              "Maj(9)",
              "Maj7#11",
              "Maj7",
              "Maj6",
              "Maj"
            ],
            "autoStart": false,
            "sourceChordNote": 0,
            "sourceChordType": "min",
            "ctb2Low": null,
            "ctb2Main": {
              "ntr": "ROOT_TRANSPOSITION",
              "ntt": "BYPASS",
              "bassOn": false,
              "chordRootUpperLimit": 3,
              "noteLowLimit": 28,
              "noteHighLimit": 127,
              "rtr": "PITCH_SHIFT"
            },
            "ctb2High": null
          },
          "notes": [
            {
              "pitch": 36,
              "velocity": 87,
              "position": 0,
              "duration": 0.6770833333333334
            },
            {
              "pitch": 31,
              "velocity": 87,
              "position": 0.7916666666666666,
              "duration": 0.6979166666666666
            },
            {
              "pitch": 41,
              "velocity": 87,
              "position": 1.5,
              "duration": 1.4729166666666667
            },
            {
              "pitch": 31,
              "velocity": 87,
              "position": 3,
              "duration": 0.9791666666666666
            },
            {
              "pitch": 31,
              "velocity": 87,
              "position": 4,
              "duration": 0.6041666666666666
            },
            {
              "pitch": 31,
              "velocity": 87,
              "position": 5.5,
              "duration": 1.28125
            },
            {
              "pitch": 31,
              "velocity": 87,
              "position": 6.8125,
              "duration": 0.17708333333333334
            },
            {
              "pitch": 33,
              "velocity": 87,
              "position": 7,
              "duration": 0.3020833333333333
            },
            {
              "pitch": 36,
              "velocity": 87,
              "position": 7.3125,
              "duration": 0.17708333333333334
            },
            {
              "pitch": 31,
              "velocity": 87,
              "position": 7.5,
              "duration": 0.3020833333333333
            },
            {
              "pitch": 31,
              "velocity": 87,
              "position": 7.8125,
              "duration": 0.17708333333333334
            }
          ]
        },
        "11": {
          "ctab": {
            "srcChannel": 11,
            "name": "Ep",
            "accType": "CHORD1",
            "editable": false,
            "mutedNotes": [],
            "mutedChords": [
              "1+2+5",
              "sus4",
              "7aug",
              "Maj7aug",
              "7(#9)",
              "7(b13)",
              "7(b9)",
              "7(13)",
              "7#11",
              "7(9)",
              "7b5",
              "7sus4",
              "7th",
              "aug",
              "Maj6(9)",
              "Maj7(9)",
              "Maj(9)",
              "Maj7#11",
              "Maj7",
              "Maj6",
              "Maj"
            ],
            "autoStart": false,
            "sourceChordNote": 0,
            "sourceChordType": "min",
            "ctb2Low": null,
            "ctb2Main": {
              "ntr": "ROOT_TRANSPOSITION",
              "ntt": "BYPASS",
              "bassOn": false,
              "chordRootUpperLimit": 7,
              "noteLowLimit": 0,
              "noteHighLimit": 127,
              "rtr": "PITCH_SHIFT"
            },
            "ctb2High": null
          },
          "notes": [
            {
              "pitch": 58,
              "velocity": 81,
              "position": 0,
              "duration": 0.5416666666666666
            },
            {
              "pitch": 62,
              "velocity": 81,
              "position": 0,
              "duration": 0.5416666666666666
            },
            {
              "pitch": 63,
              "velocity": 81,
              "position": 0,
              "duration": 0.5416666666666666
            },
            {
              "pitch": 67,
              "velocity": 81,
              "position": 0,
              "duration": 0.5416666666666666
            },
            {
              "pitch": 62,
              "velocity": 81,
              "position": 0.7916666666666666,
              "duration": 0.13541666666666666
            },
            {
              "pitch": 65,
              "velocity": 81,
              "position": 0.7916666666666666,
              "duration": 0.13541666666666666
            },
            {
              "pitch": 67,
              "velocity": 81,
              "position": 0.7916666666666666,
              "duration": 0.13541666666666666
            },
            {
              "pitch": 70,
              "velocity": 81,
              "position": 0.7916666666666666,
              "duration": 0.13541666666666666
            },
            {
              "pitch": 63,
              "velocity": 81,
              "position": 1.5,
              "duration": 2.03125
            },
            {
              "pitch": 67,
              "velocity": 81,
              "position": 1.5,
              "duration": 2.03125
            },
            {
              "pitch": 68,
              "velocity": 81,
              "position": 1.5,
              "duration": 2.03125
            },
            {
              "pitch": 72,
              "velocity": 81,
              "position": 1.5,
              "duration": 2.03125
            },
            {
              "pitch": 59,
              "velocity": 81,
              "position": 4,
              "duration": 0.28125
            },
            {
              "pitch": 65,
              "velocity": 81,
              "position": 4,
              "duration": 0.28125
            },
            {
              "pitch": 70,
              "velocity": 81,
              "position": 4,
              "duration": 0.28125
            },
            {
              "pitch": 59,
              "velocity": 81,
              "position": 5.5,
              "duration": 2.4895833333333335
            },
            {
              "pitch": 65,
              "velocity": 81,
              "position": 5.5,
              "duration": 2.4895833333333335
            },
            {
              "pitch": 68,
              "velocity": 81,
              "position": 5.5,
              "duration": 2.4895833333333335
            }
          ]
        },
        "12": {
          "ctab": {
            "srcChannel": 12,
            "name": "JzGtr",
            "accType": "CHORD2",
            "editable": false,
            "mutedNotes": [],
            "mutedChords": [
              "1+2+5",
              "sus4",
              "7aug",
              "Maj7aug",
              "7(#9)",
              "7(b13)",
              "7(b9)",
              "7(13)",
              "7#11",
              "7(9)",
              "7b5",
              "7sus4",
              "7th",
              "aug",
              "Maj6(9)",
              "Maj7(9)",
              "Maj(9)",
              "Maj7#11",
              "Maj7",
              "Maj6",
              "Maj"
            ],
            "autoStart": false,
            "sourceChordNote": 0,
            "sourceChordType": "min",
            "ctb2Low": null,
            "ctb2Main": {
              "ntr": "ROOT_TRANSPOSITION",
              "ntt": "BYPASS",
              "bassOn": false,
              "chordRootUpperLimit": 8,
              "noteLowLimit": 0,
              "noteHighLimit": 127,
              "rtr": "PITCH_SHIFT"
            },
            "ctb2High": null
          },
          "notes": [
            {
              "pitch": 55,
              "velocity": 39,
              "position": 1.8125,
              "duration": 0.17916666666666667
            },
            {
              "pitch": 62,
              "velocity": 48,
              "position": 2,
              "duration": 0.3020833333333333
            },
            {
              "pitch": 63,
              "velocity": 51,
              "position": 2.3125,
              "duration": 0.17708333333333334
            },
            {
              "pitch": 62,
              "velocity": 44,
              "position": 2.5,
              "duration": 0.1875
            },
            {
              "pitch": 60,
              "velocity": 34,
              "position": 2.8125,
              "duration": 1.1770833333333333
            }
          ]
        },
        "13": {
          "ctab": {
            "srcChannel": 13,
            "name": "Strings",
            "accType": "PAD",
            "editable": false,
            "mutedNotes": [],
            "mutedChords": [
              "1+2+5",
              "sus4",
              "7aug",
              "Maj7aug",
              "7(#9)",
              "7(b13)",
              "7(b9)",
              "7(13)",
              "7#11",
              "7(9)",
              "7b5",
              "7sus4",
              "7th",
              "aug",
              "Maj6(9)",
              "Maj7(9)",
              "Maj(9)",
              "Maj7#11",
              "Maj7",
              "Maj6",
              "Maj"
            ],
            "autoStart": false,
            "sourceChordNote": 0,
            "sourceChordType": "min",
            "ctb2Low": null,
            "ctb2Main": {
              "ntr": "ROOT_TRANSPOSITION",
              "ntt": "BYPASS",
              "bassOn": false,
              "chordRootUpperLimit": 10,
              "noteLowLimit": 53,
              "noteHighLimit": 64,
              "rtr": "PITCH_SHIFT"
            },
            "ctb2High": null
          },
          "notes": [
            {
              "pitch": 70,
              "velocity": 30,
              "position": 4,
              "duration": 1.5333333333333334
            },
            {
              "pitch": 65,
              "velocity": 29,
              "position": 4,
              "duration": 3.6875
            },
            {
              "pitch": 59,
              "velocity": 20,
              "position": 4,
              "duration": 3.6979166666666665
            },
            {
              "pitch": 68,
              "velocity": 28,
              "position": 5.5,
              "duration": 2.1979166666666665
            }
          ]
        },
        "14": {
          "ctab": {
            "srcChannel": 14,
            "name": "SteelMsw",
            "accType": "PHRASE1",
            "editable": false,
            "mutedNotes": [],
            "mutedChords": [
              "1+2+5",
              "sus4",
              "7aug",
              "Maj7aug",
              "7(#9)",
              "7(b13)",
              "7(b9)",
              "7(13)",
              "7#11",
              "7(9)",
              "7b5",
              "7sus4",
              "7th",
              "aug",
              "Maj6(9)",
              "Maj7(9)",
              "Maj(9)",
              "Maj7#11",
              "Maj7",
              "Maj6",
              "Maj"
            ],
            "autoStart": false,
            "sourceChordNote": 0,
            "sourceChordType": "min",
            "ctb2Low": null,
            "ctb2Main": {
              "ntr": "ROOT_FIXED",
              "ntt": "BYPASS",
              "bassOn": false,
              "chordRootUpperLimit": 7,
              "noteLowLimit": 0,
              "noteHighLimit": 127,
              "rtr": "PITCH_SHIFT"
            },
            "ctb2High": null
          },
          "notes": [
            {
              "pitch": 112,
              "velocity": 73,
              "position": 2,
              "duration": 0.23958333333333334
            },
            {
              "pitch": 111,
              "velocity": 73,
              "position": 2.3125,
              "duration": 0.17708333333333334
            },
            {
              "pitch": 110,
              "velocity": 73,
              "position": 2.5,
              "duration": 0.23958333333333334
            },
            {
              "pitch": 111,
              "velocity": 73,
              "position": 2.8125,
              "duration": 0.17708333333333334
            },
            {
              "pitch": 112,
              "velocity": 73,
              "position": 3,
              "duration": 0.23958333333333334
            },
            {
              "pitch": 111,
              "velocity": 73,
              "position": 3.3125,
              "duration": 0.17708333333333334
            },
            {
              "pitch": 110,
              "velocity": 73,
              "position": 3.5,
              "duration": 0.23958333333333334
            },
            {
              "pitch": 109,
              "velocity": 73,
              "position": 3.8125,
              "duration": 0.17708333333333334
            },
            {
              "pitch": 108,
              "velocity": 73,
              "position": 4,
              "duration": 0.23958333333333334
            },
            {
              "pitch": 105,
              "velocity": 73,
              "position": 4.8125,
              "duration": 0.17708333333333334
            },
            {
              "pitch": 108,
              "velocity": 73,
              "position": 5,
              "duration": 0.23958333333333334
            }
          ]
        },
        "15": {
          "ctab": {
            "srcChannel": 15,
            "name": "Flute",
            "accType": "PHRASE2",
            "editable": false,
            "mutedNotes": [],
            "mutedChords": [
              "1+2+5",
              "sus4",
              "7aug",
              "Maj7aug",
              "7(#9)",
              "7(b13)",
              "7(b9)",
              "7(13)",
              "7#11",
              "7(9)",
              "7b5",
              "7sus4",
              "7th",
              "aug",
              "Maj6(9)",
              "Maj7(9)",
              "Maj(9)",
              "Maj7#11",
              "Maj7",
              "Maj6",
              "Maj"
            ],
            "autoStart": false,
            "sourceChordNote": 0,
            "sourceChordType": "min",
            "ctb2Low": null,
            "ctb2Main": {
              "ntr": "ROOT_TRANSPOSITION",
              "ntt": "BYPASS",
              "bassOn": false,
              "chordRootUpperLimit": 8,
              "noteLowLimit": 0,
              "noteHighLimit": 127,
              "rtr": "PITCH_SHIFT"
            },
            "ctb2High": null
          },
          "notes": []
        }
      }
    },
    "Intro_C": {
      "type": "Intro_C",
      "sizeInBeats": 16,
      "channels": {
        "2": {
          "ctab": {
            "srcChannel": 2,
            "name": "Bass",
            "accType": "BASS",
            "editable": false,
            "mutedNotes": [],
            "mutedChords": [
              "1+5",
              "1+8",
              "dim7",
              "dim",
              "minMaj7(9)",
              "minMaj7",
              "min7(11)",
              "min7(9)",
              "min(9)",
              "m7b5",
              "min7",
              "min6",
              "min"
            ],
            "autoStart": false,
            "sourceChordNote": 0,
            "sourceChordType": "Maj",
            "ctb2Low": null,
            "ctb2Main": {
              "ntr": "ROOT_TRANSPOSITION",
              "ntt": "BYPASS",
              "bassOn": false,
              "chordRootUpperLimit": 3,
              "noteLowLimit": 28,
              "noteHighLimit": 127,
              "rtr": "PITCH_SHIFT"
            },
            "ctb2High": null
          },
          "notes": [
            {
              "pitch": 36,
              "velocity": 95,
              "position": 0,
              "duration": 0.5104166666666666
            },
            {
              "pitch": 36,
              "velocity": 95,
              "position": 1.5,
              "duration": 0.36666666666666664
            },
            {
              "pitch": 36,
              "velocity": 95,
              "position": 2,
              "duration": 0.33541666666666664
            },
            {
              "pitch": 31,
              "velocity": 95,
              "position": 2.7916666666666665,
              "duration": 0.7395833333333334
            },
            {
              "pitch": 33,
              "velocity": 82,
              "position": 3.5,
              "duration": 0.3541666666666667
            },
            {
              "pitch": 31,
              "velocity": 69,
              "position": 3.7916666666666665,
              "duration": 0.09375
            },
            {
              "pitch": 36,
              "velocity": 95,
              "position": 4,
              "duration": 0.37916666666666665
            },
            {
              "pitch": 36,
              "velocity": 95,
              "position": 5.5,
              "duration": 0.35833333333333334
            },
            {
              "pitch": 36,
              "velocity": 95,
              "position": 6,
              "duration": 0.3333333333333333
            },
            {
              "pitch": 31,
              "velocity": 95,
              "position": 6.791666666666667,
              "duration": 0.6770833333333334
            },
            {
              "pitch": 33,
              "velocity": 84,
              "position": 7.5,
              "duration": 0.33541666666666664
            },
            {
              "pitch": 31,
              "velocity": 76,
              "position": 7.791666666666667,
              "duration": 0.0875
            },
            {
              "pitch": 36,
              "velocity": 95,
              "position": 8,
              "duration": 0.3645833333333333
            },
            {
              "pitch": 36,
              "velocity": 95,
              "position": 9.5,
              "duration": 0.3229166666666667
            },
            {
              "pitch": 36,
              "velocity": 95,
              "position": 10,
              "duration": 0.3125
            },
            {
              "pitch": 31,
              "velocity": 95,
              "position": 10.791666666666666,
              "duration": 0.7229166666666667
            },
            {
              "pitch": 33,
              "velocity": 95,
              "position": 11.5,
              "duration": 0.3229166666666667
            },
            {
              "pitch": 31,
              "velocity": 69,
              "position": 11.791666666666666,
              "duration": 0.07291666666666667
            },
            {
              "pitch": 31,
              "velocity": 95,
              "position": 12,
              "duration": 0.7395833333333334
            },
            {
              "pitch": 31,
              "velocity": 95,
              "position": 12.75,
              "duration": 0.23958333333333334
            },
            {
              "pitch": 31,
              "velocity": 95,
              "position": 13,
              "duration": 0.7395833333333334
            },
            {
              "pitch": 31,
              "velocity": 95,
              "position": 13.75,
              "duration": 0.23958333333333334
            },
            {
              "pitch": 31,
              "velocity": 95,
              "position": 14,
              "duration": 0.7395833333333334
            },
            {
              "pitch": 31,
              "velocity": 95,
              "position": 14.75,
              "duration": 0.25416666666666665
            }
          ]
        },
        "3": {
          "ctab": {
            "srcChannel": 3,
            "name": "Ep Root",
            "accType": "CHORD1",
            "editable": false,
            "mutedNotes": [],
            "mutedChords": [
              "1+5",
              "1+8",
              "dim7",
              "dim",
              "minMaj7(9)",
              "minMaj7",
              "min7(11)",
              "min7(9)",
              "min(9)",
              "m7b5",
              "min7",
              "min6",
              "min"
            ],
            "autoStart": false,
            "sourceChordNote": 0,
            "sourceChordType": "Maj",
            "ctb2Low": null,
            "ctb2Main": {
              "ntr": "ROOT_TRANSPOSITION",
              "ntt": "BYPASS",
              "bassOn": false,
              "chordRootUpperLimit": 7,
              "noteLowLimit": 0,
              "noteHighLimit": 127,
              "rtr": "PITCH_SHIFT"
            },
            "ctb2High": null
          },
          "notes": [
            {
              "pitch": 55,
              "velocity": 78,
              "position": 0,
              "duration": 0.20833333333333334
            },
            {
              "pitch": 59,
              "velocity": 78,
              "position": 0,
              "duration": 0.20833333333333334
            },
            {
              "pitch": 60,
              "velocity": 78,
              "position": 0,
              "duration": 0.20833333333333334
            },
            {
              "pitch": 64,
              "velocity": 78,
              "position": 0,
              "duration": 0.20833333333333334
            },
            {
              "pitch": 55,
              "velocity": 78,
              "position": 0.5,
              "duration": 0.20833333333333334
            },
            {
              "pitch": 59,
              "velocity": 78,
              "position": 0.5,
              "duration": 0.20833333333333334
            },
            {
              "pitch": 60,
              "velocity": 78,
              "position": 0.5,
              "duration": 0.20833333333333334
            },
            {
              "pitch": 64,
              "velocity": 78,
              "position": 0.5,
              "duration": 0.20833333333333334
            },
            {
              "pitch": 55,
              "velocity": 60,
              "position": 1,
              "duration": 0.20833333333333334
            },
            {
              "pitch": 59,
              "velocity": 60,
              "position": 1,
              "duration": 0.20833333333333334
            },
            {
              "pitch": 60,
              "velocity": 60,
              "position": 1,
              "duration": 0.20833333333333334
            },
            {
              "pitch": 64,
              "velocity": 60,
              "position": 1,
              "duration": 0.20833333333333334
            },
            {
              "pitch": 55,
              "velocity": 60,
              "position": 1.5,
              "duration": 0.20833333333333334
            },
            {
              "pitch": 59,
              "velocity": 60,
              "position": 1.5,
              "duration": 0.20833333333333334
            },
            {
              "pitch": 60,
              "velocity": 60,
              "position": 1.5,
              "duration": 0.20833333333333334
            },
            {
              "pitch": 64,
              "velocity": 60,
              "position": 1.5,
              "duration": 0.20833333333333334
            },
            {
              "pitch": 55,
              "velocity": 78,
              "position": 2,
              "duration": 0.20833333333333334
            },
            {
              "pitch": 59,
              "velocity": 78,
              "position": 2,
              "duration": 0.20833333333333334
            },
            {
              "pitch": 60,
              "velocity": 78,
              "position": 2,
              "duration": 0.20833333333333334
            },
            {
              "pitch": 64,
              "velocity": 78,
              "position": 2,
              "duration": 0.20833333333333334
            },
            {
              "pitch": 55,
              "velocity": 78,
              "position": 2.5,
              "duration": 0.20833333333333334
            },
            {
              "pitch": 59,
              "velocity": 78,
              "position": 2.5,
              "duration": 0.20833333333333334
            },
            {
              "pitch": 60,
              "velocity": 78,
              "position": 2.5,
              "duration": 0.20833333333333334
            },
            {
              "pitch": 64,
              "velocity": 78,
              "position": 2.5,
              "duration": 0.20833333333333334
            },
            {
              "pitch": 55,
              "velocity": 60,
              "position": 3,
              "duration": 0.20833333333333334
            },
            {
              "pitch": 59,
              "velocity": 60,
              "position": 3,
              "duration": 0.20833333333333334
            },
            {
              "pitch": 60,
              "velocity": 60,
              "position": 3,
              "duration": 0.20833333333333334
            },
            {
              "pitch": 64,
              "velocity": 60,
              "position": 3,
              "duration": 0.20833333333333334
            },
            {
              "pitch": 55,
              "velocity": 60,
              "position": 3.5,
              "duration": 0.20833333333333334
            },
            {
              "pitch": 59,
              "velocity": 60,
              "position": 3.5,
              "duration": 0.20833333333333334
            },
            {
              "pitch": 60,
              "velocity": 60,
              "position": 3.5,
              "duration": 0.20833333333333334
            },
            {
              "pitch": 64,
              "velocity": 60,
              "position": 3.5,
              "duration": 0.20833333333333334
            },
            {
              "pitch": 57,
              "velocity": 78,
              "position": 4,
              "duration": 0.20833333333333334
            },
            {
              "pitch": 60,
              "velocity": 78,
              "position": 4,
              "duration": 0.20833333333333334
            },
            {
              "pitch": 62,
              "velocity": 78,
              "position": 4,
              "duration": 0.20833333333333334
            },
            {
              "pitch": 65,
              "velocity": 78,
              "position": 4,
              "duration": 0.20833333333333334
            },
            {
              "pitch": 57,
              "velocity": 78,
              "position": 4.5,
              "duration": 0.20833333333333334
            },
            {
              "pitch": 60,
              "velocity": 78,
              "position": 4.5,
              "duration": 0.20833333333333334
            },
            {
              "pitch": 62,
              "velocity": 78,
              "position": 4.5,
              "duration": 0.20833333333333334
            },
            {
              "pitch": 65,
              "velocity": 78,
              "position": 4.5,
              "duration": 0.20833333333333334
            },
            {
              "pitch": 57,
              "velocity": 60,
              "position": 5,
              "duration": 0.20833333333333334
            },
            {
              "pitch": 60,
              "velocity": 60,
              "position": 5,
              "duration": 0.20833333333333334
            },
            {
              "pitch": 62,
              "velocity": 60,
              "position": 5,
              "duration": 0.20833333333333334
            },
            {
              "pitch": 65,
              "velocity": 60,
              "position": 5,
              "duration": 0.20833333333333334
            },
            {
              "pitch": 57,
              "velocity": 60,
              "position": 5.5,
              "duration": 0.20833333333333334
            },
            {
              "pitch": 60,
              "velocity": 60,
              "position": 5.5,
              "duration": 0.20833333333333334
            },
            {
              "pitch": 62,
              "velocity": 60,
              "position": 5.5,
              "duration": 0.20833333333333334
            },
            {
              "pitch": 65,
              "velocity": 60,
              "position": 5.5,
              "duration": 0.20833333333333334
            },
            {
              "pitch": 57,
              "velocity": 78,
              "position": 6,
              "duration": 0.20833333333333334
            },
            {
              "pitch": 60,
              "velocity": 78,
              "position": 6,
              "duration": 0.20833333333333334
            },
            {
              "pitch": 62,
              "velocity": 78,
              "position": 6,
              "duration": 0.20833333333333334
            },
            {
              "pitch": 65,
              "velocity": 78,
              "position": 6,
              "duration": 0.20833333333333334
            },
            {
              "pitch": 57,
              "velocity": 78,
              "position": 6.5,
              "duration": 0.20833333333333334
            },
            {
              "pitch": 60,
              "velocity": 78,
              "position": 6.5,
              "duration": 0.20833333333333334
            },
            {
              "pitch": 62,
              "velocity": 78,
              "position": 6.5,
              "duration": 0.20833333333333334
            },
            {
              "pitch": 65,
              "velocity": 78,
              "position": 6.5,
              "duration": 0.20833333333333334
            },
            {
              "pitch": 57,
              "velocity": 60,
              "position": 7,
              "duration": 0.20833333333333334
            },
            {
              "pitch": 60,
              "velocity": 60,
              "position": 7,
              "duration": 0.20833333333333334
            },
            {
              "pitch": 62,
              "velocity": 60,
              "position": 7,
              "duration": 0.20833333333333334
            },
            {
              "pitch": 65,
              "velocity": 60,
              "position": 7,
              "duration": 0.20833333333333334
            },
            {
              "pitch": 57,
              "velocity": 78,
              "position": 7.5,
              "duration": 0.20833333333333334
            },
            {
              "pitch": 60,
              "velocity": 78,
              "position": 7.5,
              "duration": 0.20833333333333334
            },
            {
              "pitch": 62,
              "velocity": 78,
              "position": 7.5,
              "duration": 0.20833333333333334
            },
            {
              "pitch": 65,
              "velocity": 78,
              "position": 7.5,
              "duration": 0.20833333333333334
            },
            {
              "pitch": 59,
              "velocity": 78,
              "position": 8,
              "duration": 0.20833333333333334
            },
            {
              "pitch": 62,
              "velocity": 78,
              "position": 8,
              "duration": 0.20833333333333334
            },
            {
              "pitch": 64,
              "velocity": 78,
              "position": 8,
              "duration": 0.20833333333333334
            },
            {
              "pitch": 67,
              "velocity": 78,
              "position": 8,
              "duration": 0.20833333333333334
            },
            {
              "pitch": 59,
              "velocity": 78,
              "position": 8.5,
              "duration": 0.20833333333333334
            },
            {
              "pitch": 62,
              "velocity": 78,
              "position": 8.5,
              "duration": 0.20833333333333334
            },
            {
              "pitch": 64,
              "velocity": 78,
              "position": 8.5,
              "duration": 0.20833333333333334
            },
            {
              "pitch": 67,
              "velocity": 78,
              "position": 8.5,
              "duration": 0.20833333333333334
            },
            {
              "pitch": 59,
              "velocity": 60,
              "position": 9,
              "duration": 0.20833333333333334
            },
            {
              "pitch": 62,
              "velocity": 60,
              "position": 9,
              "duration": 0.20833333333333334
            },
            {
              "pitch": 64,
              "velocity": 60,
              "position": 9,
              "duration": 0.20833333333333334
            },
            {
              "pitch": 67,
              "velocity": 60,
              "position": 9,
              "duration": 0.20833333333333334
            },
            {
              "pitch": 59,
              "velocity": 60,
              "position": 9.5,
              "duration": 0.20833333333333334
            },
            {
              "pitch": 62,
              "velocity": 60,
              "position": 9.5,
              "duration": 0.20833333333333334
            },
            {
              "pitch": 64,
              "velocity": 60,
              "position": 9.5,
              "duration": 0.20833333333333334
            },
            {
              "pitch": 67,
              "velocity": 60,
              "position": 9.5,
              "duration": 0.20833333333333334
            },
            {
              "pitch": 59,
              "velocity": 78,
              "position": 10,
              "duration": 0.20833333333333334
            },
            {
              "pitch": 62,
              "velocity": 78,
              "position": 10,
              "duration": 0.20833333333333334
            },
            {
              "pitch": 64,
              "velocity": 78,
              "position": 10,
              "duration": 0.20833333333333334
            },
            {
              "pitch": 67,
              "velocity": 78,
              "position": 10,
              "duration": 0.20833333333333334
            },
            {
              "pitch": 59,
              "velocity": 78,
              "position": 10.5,
              "duration": 0.20833333333333334
            },
            {
              "pitch": 62,
              "velocity": 78,
              "position": 10.5,
              "duration": 0.20833333333333334
            },
            {
              "pitch": 64,
              "velocity": 78,
              "position": 10.5,
              "duration": 0.20833333333333334
            },
            {
              "pitch": 67,
              "velocity": 78,
              "position": 10.5,
              "duration": 0.20833333333333334
            },
            {
              "pitch": 59,
              "velocity": 60,
              "position": 11,
              "duration": 0.20833333333333334
            },
            {
              "pitch": 62,
              "velocity": 60,
              "position": 11,
              "duration": 0.20833333333333334
            },
            {
              "pitch": 64,
              "velocity": 60,
              "position": 11,
              "duration": 0.20833333333333334
            },
            {
              "pitch": 67,
              "velocity": 60,
              "position": 11,
              "duration": 0.20833333333333334
            },
            {
              "pitch": 59,
              "velocity": 78,
              "position": 11.5,
              "duration": 0.20833333333333334
            },
            {
              "pitch": 62,
              "velocity": 78,
              "position": 11.5,
              "duration": 0.20833333333333334
            },
            {
              "pitch": 64,
              "velocity": 78,
              "position": 11.5,
              "duration": 0.20833333333333334
            },
            {
              "pitch": 67,
              "velocity": 78,
              "position": 11.5,
              "duration": 0.20833333333333334
            },
            {
              "pitch": 57,
              "velocity": 78,
              "position": 12,
              "duration": 0.20833333333333334
            },
            {
              "pitch": 60,
              "velocity": 78,
              "position": 12,
              "duration": 0.20833333333333334
            },
            {
              "pitch": 62,
              "velocity": 78,
              "position": 12,
              "duration": 0.20833333333333334
            },
            {
              "pitch": 65,
              "velocity": 78,
              "position": 12,
              "duration": 0.20833333333333334
            },
            {
              "pitch": 57,
              "velocity": 78,
              "position": 12.5,
              "duration": 0.20833333333333334
            },
            {
              "pitch": 60,
              "velocity": 78,
              "position": 12.5,
              "duration": 0.20833333333333334
            },
            {
              "pitch": 62,
              "velocity": 78,
              "position": 12.5,
              "duration": 0.20833333333333334
            },
            {
              "pitch": 65,
              "velocity": 78,
              "position": 12.5,
              "duration": 0.20833333333333334
            },
            {
              "pitch": 57,
              "velocity": 60,
              "position": 13,
              "duration": 0.20833333333333334
            },
            {
              "pitch": 60,
              "velocity": 60,
              "position": 13,
              "duration": 0.20833333333333334
            },
            {
              "pitch": 62,
              "velocity": 60,
              "position": 13,
              "duration": 0.20833333333333334
            },
            {
              "pitch": 65,
              "velocity": 60,
              "position": 13,
              "duration": 0.20833333333333334
            },
            {
              "pitch": 57,
              "velocity": 60,
              "position": 13.5,
              "duration": 0.20833333333333334
            },
            {
              "pitch": 60,
              "velocity": 60,
              "position": 13.5,
              "duration": 0.20833333333333334
            },
            {
              "pitch": 62,
              "velocity": 60,
              "position": 13.5,
              "duration": 0.20833333333333334
            },
            {
              "pitch": 65,
              "velocity": 60,
              "position": 13.5,
              "duration": 0.20833333333333334
            },
            {
              "pitch": 57,
              "velocity": 78,
              "position": 14,
              "duration": 0.20833333333333334
            },
            {
              "pitch": 60,
              "velocity": 78,
              "position": 14,
              "duration": 0.20833333333333334
            },
            {
              "pitch": 62,
              "velocity": 78,
              "position": 14,
              "duration": 0.20833333333333334
            },
            {
              "pitch": 65,
              "velocity": 78,
              "position": 14,
              "duration": 0.20833333333333334
            },
            {
              "pitch": 57,
              "velocity": 78,
              "position": 14.5,
              "duration": 0.20833333333333334
            },
            {
              "pitch": 60,
              "velocity": 78,
              "position": 14.5,
              "duration": 0.20833333333333334
            },
            {
              "pitch": 62,
              "velocity": 78,
              "position": 14.5,
              "duration": 0.20833333333333334
            },
            {
              "pitch": 65,
              "velocity": 78,
              "position": 14.5,
              "duration": 0.20833333333333334
            },
            {
              "pitch": 57,
              "velocity": 60,
              "position": 15,
              "duration": 0.20833333333333334
            },
            {
              "pitch": 60,
              "velocity": 60,
              "position": 15,
              "duration": 0.20833333333333334
            },
            {
              "pitch": 62,
              "velocity": 60,
              "position": 15,
              "duration": 0.20833333333333334
            },
            {
              "pitch": 65,
              "velocity": 60,
              "position": 15,
              "duration": 0.20833333333333334
            },
            {
              "pitch": 57,
              "velocity": 78,
              "position": 15.5,
              "duration": 0.20833333333333334
            },
            {
              "pitch": 60,
              "velocity": 78,
              "position": 15.5,
              "duration": 0.20833333333333334
            },
            {
              "pitch": 62,
              "velocity": 78,
              "position": 15.5,
              "duration": 0.20833333333333334
            },
            {
              "pitch": 65,
              "velocity": 78,
              "position": 15.5,
              "duration": 0.20833333333333334
            }
          ]
        },
        "4": {
          "ctab": {
            "srcChannel": 4,
            "name": "JzGtrRoo",
            "accType": "CHORD2",
            "editable": false,
            "mutedNotes": [],
            "mutedChords": [
              "1+5",
              "1+8",
              "dim7",
              "dim",
              "minMaj7(9)",
              "minMaj7",
              "min7(11)",
              "min7(9)",
              "min(9)",
              "m7b5",
              "min7",
              "min6",
              "min"
            ],
            "autoStart": false,
            "sourceChordNote": 0,
            "sourceChordType": "Maj",
            "ctb2Low": null,
            "ctb2Main": {
              "ntr": "ROOT_TRANSPOSITION",
              "ntt": "BYPASS",
              "bassOn": false,
              "chordRootUpperLimit": 8,
              "noteLowLimit": 0,
              "noteHighLimit": 127,
              "rtr": "PITCH_SHIFT"
            },
            "ctb2High": null
          },
          "notes": [
            {
              "pitch": 60,
              "velocity": 109,
              "position": 0.7916666666666666,
              "duration": 0.28125
            },
            {
              "pitch": 55,
              "velocity": 77,
              "position": 1.7916666666666667,
              "duration": 0.20833333333333334
            },
            {
              "pitch": 57,
              "velocity": 86,
              "position": 2,
              "duration": 0.47291666666666665
            },
            {
              "pitch": 60,
              "velocity": 92,
              "position": 2.5,
              "duration": 0.23333333333333334
            },
            {
              "pitch": 60,
              "velocity": 109,
              "position": 3,
              "duration": 0.59375
            },
            {
              "pitch": 57,
              "velocity": 77,
              "position": 3.5,
              "duration": 0.3645833333333333
            },
            {
              "pitch": 55,
              "velocity": 71,
              "position": 3.7916666666666665,
              "duration": 0.17083333333333334
            },
            {
              "pitch": 60,
              "velocity": 100,
              "position": 4,
              "duration": 0.3020833333333333
            },
            {
              "pitch": 60,
              "velocity": 117,
              "position": 4.791666666666667,
              "duration": 0.25
            },
            {
              "pitch": 55,
              "velocity": 65,
              "position": 5.791666666666667,
              "duration": 0.09791666666666667
            },
            {
              "pitch": 57,
              "velocity": 96,
              "position": 6,
              "duration": 0.6145833333333334
            },
            {
              "pitch": 60,
              "velocity": 79,
              "position": 6.5,
              "duration": 0.1875
            },
            {
              "pitch": 60,
              "velocity": 86,
              "position": 6.947916666666667,
              "duration": 0.11666666666666667
            },
            {
              "pitch": 62,
              "velocity": 102,
              "position": 7,
              "duration": 0.55625
            },
            {
              "pitch": 60,
              "velocity": 102,
              "position": 7.5,
              "duration": 0.38958333333333334
            },
            {
              "pitch": 60,
              "velocity": 102,
              "position": 8,
              "duration": 0.22291666666666668
            },
            {
              "pitch": 60,
              "velocity": 113,
              "position": 8.791666666666666,
              "duration": 0.24375
            },
            {
              "pitch": 55,
              "velocity": 65,
              "position": 9.791666666666666,
              "duration": 0.08333333333333333
            },
            {
              "pitch": 57,
              "velocity": 100,
              "position": 10,
              "duration": 0.44166666666666665
            },
            {
              "pitch": 60,
              "velocity": 92,
              "position": 10.5,
              "duration": 0.22916666666666666
            },
            {
              "pitch": 60,
              "velocity": 100,
              "position": 11,
              "duration": 0.20833333333333334
            },
            {
              "pitch": 57,
              "velocity": 75,
              "position": 11.5,
              "duration": 0.3333333333333333
            },
            {
              "pitch": 67,
              "velocity": 75,
              "position": 13,
              "duration": 2.6875
            },
            {
              "pitch": 62,
              "velocity": 75,
              "position": 14,
              "duration": 1.6875
            },
            {
              "pitch": 55,
              "velocity": 77,
              "position": 11.791666666666666,
              "duration": 3.9791666666666665
            },
            {
              "pitch": 60,
              "velocity": 67,
              "position": 13,
              "duration": 2.7916666666666665
            }
          ]
        },
        "5": {
          "ctab": {
            "srcChannel": 5,
            "name": "Str Root",
            "accType": "PAD",
            "editable": false,
            "mutedNotes": [],
            "mutedChords": [
              "1+5",
              "1+8",
              "dim7",
              "dim",
              "minMaj7(9)",
              "minMaj7",
              "min7(11)",
              "min7(9)",
              "min(9)",
              "m7b5",
              "min7",
              "min6",
              "min"
            ],
            "autoStart": false,
            "sourceChordNote": 0,
            "sourceChordType": "Maj",
            "ctb2Low": null,
            "ctb2Main": {
              "ntr": "ROOT_TRANSPOSITION",
              "ntt": "BYPASS",
              "bassOn": false,
              "chordRootUpperLimit": 10,
              "noteLowLimit": 53,
              "noteHighLimit": 64,
              "rtr": "PITCH_SHIFT"
            },
            "ctb2High": null
          },
          "notes": [
            {
              "pitch": 55,
              "velocity": 39,
              "position": 0,
              "duration": 3.9895833333333335
            },
            {
              "pitch": 60,
              "velocity": 39,
              "position": 0,
              "duration": 3.9895833333333335
            },
            {
              "pitch": 64,
              "velocity": 39,
              "position": 0,
              "duration": 3.9895833333333335
            },
            {
              "pitch": 57,
              "velocity": 39,
              "position": 4,
              "duration": 3.9895833333333335
            },
            {
              "pitch": 62,
              "velocity": 39,
              "position": 4,
              "duration": 3.9895833333333335
            },
            {
              "pitch": 65,
              "velocity": 39,
              "position": 4,
              "duration": 3.9895833333333335
            },
            {
              "pitch": 59,
              "velocity": 39,
              "position": 8,
              "duration": 3.9895833333333335
            },
            {
              "pitch": 64,
              "velocity": 39,
              "position": 8,
              "duration": 3.9895833333333335
            },
            {
              "pitch": 67,
              "velocity": 39,
              "position": 8,
              "duration": 3.9895833333333335
            },
            {
              "pitch": 60,
              "velocity": 39,
              "position": 12,
              "duration": 3.9895833333333335
            },
            {
              "pitch": 65,
              "velocity": 39,
              "position": 12,
              "duration": 3.9895833333333335
            },
            {
              "pitch": 69,
              "velocity": 39,
              "position": 12,
              "duration": 3.9895833333333335
            }
          ]
        },
        "6": {
          "ctab": {
            "srcChannel": 6,
            "name": "SteelMsw",
            "accType": "PHRASE1",
            "editable": false,
            "mutedNotes": [],
            "mutedChords": [
              "1+5",
              "1+8",
              "dim7",
              "dim",
              "minMaj7(9)",
              "minMaj7",
              "min7(11)",
              "min7(9)",
              "min(9)",
              "m7b5",
              "min7",
              "min6",
              "min"
            ],
            "autoStart": false,
            "sourceChordNote": 0,
            "sourceChordType": "Maj",
            "ctb2Low": null,
            "ctb2Main": {
              "ntr": "ROOT_FIXED",
              "ntt": "BYPASS",
              "bassOn": false,
              "chordRootUpperLimit": 7,
              "noteLowLimit": 0,
              "noteHighLimit": 127,
              "rtr": "PITCH_SHIFT"
            },
            "ctb2High": null
          },
          "notes": [
            {
              "pitch": 104,
              "velocity": 73,
              "position": 2,
              "duration": 0.23958333333333334
            },
            {
              "pitch": 103,
              "velocity": 73,
              "position": 2.2916666666666665,
              "duration": 0.17708333333333334
            },
            {
              "pitch": 102,
              "velocity": 73,
              "position": 2.5,
              "duration": 0.23958333333333334
            },
            {
              "pitch": 104,
              "velocity": 73,
              "position": 4,
              "duration": 0.23958333333333334
            },
            {
              "pitch": 103,
              "velocity": 73,
              "position": 4.291666666666667,
              "duration": 0.17708333333333334
            },
            {
              "pitch": 102,
              "velocity": 73,
              "position": 4.5,
              "duration": 0.23958333333333334
            },
            {
              "pitch": 104,
              "velocity": 73,
              "position": 6,
              "duration": 0.23958333333333334
            },
            {
              "pitch": 103,
              "velocity": 73,
              "position": 6.291666666666667,
              "duration": 0.17708333333333334
            },
            {
              "pitch": 102,
              "velocity": 73,
              "position": 6.5,
              "duration": 0.23958333333333334
            },
            {
              "pitch": 104,
              "velocity": 73,
              "position": 8,
              "duration": 0.23958333333333334
            },
            {
              "pitch": 103,
              "velocity": 73,
              "position": 8.291666666666666,
              "duration": 0.17708333333333334
            },
            {
              "pitch": 102,
              "velocity": 73,
              "position": 8.5,
              "duration": 0.23958333333333334
            }
          ]
        },
        "7": {
          "ctab": {
            "srcChannel": 7,
            "name": "Flute",
            "accType": "PHRASE2",
            "editable": false,
            "mutedNotes": [],
            "mutedChords": [
              "1+5",
              "1+8",
              "dim7",
              "dim",
              "minMaj7(9)",
              "minMaj7",
              "min7(11)",
              "min7(9)",
              "min(9)",
              "m7b5",
              "min7",
              "min6",
              "min"
            ],
            "autoStart": false,
            "sourceChordNote": 0,
            "sourceChordType": "Maj",
            "ctb2Low": null,
            "ctb2Main": {
              "ntr": "ROOT_TRANSPOSITION",
              "ntt": "BYPASS",
              "bassOn": false,
              "chordRootUpperLimit": 8,
              "noteLowLimit": 0,
              "noteHighLimit": 127,
              "rtr": "PITCH_SHIFT"
            },
            "ctb2High": null
          },
          "notes": [
            {
              "pitch": 79,
              "velocity": 47,
              "position": 2,
              "duration": 0.15625
            },
            {
              "pitch": 76,
              "velocity": 47,
              "position": 2.1666666666666665,
              "duration": 0.15625
            },
            {
              "pitch": 72,
              "velocity": 47,
              "position": 2.3333333333333335,
              "duration": 0.15625
            },
            {
              "pitch": 79,
              "velocity": 47,
              "position": 2.5,
              "duration": 0.15625
            },
            {
              "pitch": 76,
              "velocity": 47,
              "position": 2.6666666666666665,
              "duration": 0.15625
            },
            {
              "pitch": 72,
              "velocity": 47,
              "position": 2.8333333333333335,
              "duration": 0.15625
            },
            {
              "pitch": 79,
              "velocity": 47,
              "position": 3,
              "duration": 0.15625
            },
            {
              "pitch": 76,
              "velocity": 47,
              "position": 3.1666666666666665,
              "duration": 0.15625
            },
            {
              "pitch": 72,
              "velocity": 47,
              "position": 3.3333333333333335,
              "duration": 0.15625
            },
            {
              "pitch": 79,
              "velocity": 47,
              "position": 3.5,
              "duration": 0.15625
            },
            {
              "pitch": 76,
              "velocity": 47,
              "position": 3.6666666666666665,
              "duration": 0.15625
            },
            {
              "pitch": 72,
              "velocity": 47,
              "position": 3.8333333333333335,
              "duration": 0.15625
            },
            {
              "pitch": 79,
              "velocity": 47,
              "position": 10,
              "duration": 0.15625
            },
            {
              "pitch": 76,
              "velocity": 47,
              "position": 10.166666666666666,
              "duration": 0.15625
            },
            {
              "pitch": 72,
              "velocity": 47,
              "position": 10.333333333333334,
              "duration": 0.15625
            },
            {
              "pitch": 79,
              "velocity": 47,
              "position": 10.5,
              "duration": 0.15625
            },
            {
              "pitch": 76,
              "velocity": 47,
              "position": 10.666666666666666,
              "duration": 0.15625
            },
            {
              "pitch": 72,
              "velocity": 47,
              "position": 10.833333333333334,
              "duration": 0.15625
            },
            {
              "pitch": 79,
              "velocity": 47,
              "position": 11,
              "duration": 0.15625
            },
            {
              "pitch": 76,
              "velocity": 47,
              "position": 11.166666666666666,
              "duration": 0.15625
            },
            {
              "pitch": 72,
              "velocity": 47,
              "position": 11.333333333333334,
              "duration": 0.15625
            },
            {
              "pitch": 79,
              "velocity": 47,
              "position": 11.5,
              "duration": 0.15625
            },
            {
              "pitch": 76,
              "velocity": 47,
              "position": 11.666666666666666,
              "duration": 0.15625
            },
            {
              "pitch": 72,
              "velocity": 47,
              "position": 11.833333333333334,
              "duration": 0.15625
            }
          ]
        },
        "8": {
          "ctab": {
            "srcChannel": 8,
            "name": "Perc",
            "accType": "SUBRHYTHM",
            "editable": false,
            "mutedNotes": [],
            "mutedChords": [],
            "autoStart": true,
            "sourceChordNote": 0,
            "sourceChordType": "Maj7",
            "ctb2Low": null,
            "ctb2Main": {
              "ntr": "ROOT_FIXED",
              "ntt": "BYPASS",
              "bassOn": false,
              "chordRootUpperLimit": 6,
              "noteLowLimit": 0,
              "noteHighLimit": 127,
              "rtr": "PITCH_SHIFT"
            },
            "ctb2High": null
          },
          "notes": [
            {
              "pitch": 57,
              "velocity": 45,
              "position": 0,
              "duration": 0.010416666666666666
            },
            {
              "pitch": 69,
              "velocity": 53,
              "position": 0,
              "duration": 0.010416666666666666
            },
            {
              "pitch": 82,
              "velocity": 70,
              "position": 0,
              "duration": 0.010416666666666666
            },
            {
              "pitch": 42,
              "velocity": 44,
              "position": 0.5,
              "duration": 0.010416666666666666
            },
            {
              "pitch": 69,
              "velocity": 53,
              "position": 0.5,
              "duration": 0.010416666666666666
            },
            {
              "pitch": 82,
              "velocity": 70,
              "position": 0.5,
              "duration": 0.010416666666666666
            },
            {
              "pitch": 42,
              "velocity": 63,
              "position": 1,
              "duration": 0.010416666666666666
            },
            {
              "pitch": 54,
              "velocity": 54,
              "position": 1,
              "duration": 0.010416666666666666
            },
            {
              "pitch": 82,
              "velocity": 70,
              "position": 1,
              "duration": 0.010416666666666666
            },
            {
              "pitch": 82,
              "velocity": 70,
              "position": 1.5,
              "duration": 0.010416666666666666
            },
            {
              "pitch": 82,
              "velocity": 70,
              "position": 2,
              "duration": 0.010416666666666666
            },
            {
              "pitch": 82,
              "velocity": 70,
              "position": 2.5,
              "duration": 0.010416666666666666
            },
            {
              "pitch": 46,
              "velocity": 46,
              "position": 2.7916666666666665,
              "duration": 0.010416666666666666
            },
            {
              "pitch": 54,
              "velocity": 58,
              "position": 3,
              "duration": 0.010416666666666666
            },
            {
              "pitch": 69,
              "velocity": 51,
              "position": 3,
              "duration": 0.010416666666666666
            },
            {
              "pitch": 82,
              "velocity": 70,
              "position": 3,
              "duration": 0.010416666666666666
            },
            {
              "pitch": 69,
              "velocity": 49,
              "position": 3.5,
              "duration": 0.010416666666666666
            },
            {
              "pitch": 82,
              "velocity": 70,
              "position": 3.5,
              "duration": 0.010416666666666666
            },
            {
              "pitch": 69,
              "velocity": 50,
              "position": 3.7916666666666665,
              "duration": 0.010416666666666666
            },
            {
              "pitch": 42,
              "velocity": 71,
              "position": 4,
              "duration": 0.010416666666666666
            },
            {
              "pitch": 69,
              "velocity": 53,
              "position": 4,
              "duration": 0.010416666666666666
            },
            {
              "pitch": 82,
              "velocity": 70,
              "position": 4,
              "duration": 0.010416666666666666
            },
            {
              "pitch": 42,
              "velocity": 46,
              "position": 4.5,
              "duration": 0.010416666666666666
            },
            {
              "pitch": 69,
              "velocity": 53,
              "position": 4.5,
              "duration": 0.010416666666666666
            },
            {
              "pitch": 82,
              "velocity": 70,
              "position": 4.5,
              "duration": 0.010416666666666666
            },
            {
              "pitch": 42,
              "velocity": 31,
              "position": 4.791666666666667,
              "duration": 0.010416666666666666
            },
            {
              "pitch": 42,
              "velocity": 54,
              "position": 5,
              "duration": 0.010416666666666666
            },
            {
              "pitch": 54,
              "velocity": 58,
              "position": 5,
              "duration": 0.010416666666666666
            },
            {
              "pitch": 82,
              "velocity": 70,
              "position": 5,
              "duration": 0.010416666666666666
            },
            {
              "pitch": 82,
              "velocity": 70,
              "position": 5.5,
              "duration": 0.010416666666666666
            },
            {
              "pitch": 82,
              "velocity": 70,
              "position": 6,
              "duration": 0.010416666666666666
            },
            {
              "pitch": 82,
              "velocity": 70,
              "position": 6.5,
              "duration": 0.010416666666666666
            },
            {
              "pitch": 46,
              "velocity": 47,
              "position": 6.791666666666667,
              "duration": 0.010416666666666666
            },
            {
              "pitch": 42,
              "velocity": 37,
              "position": 7,
              "duration": 0.010416666666666666
            },
            {
              "pitch": 54,
              "velocity": 57,
              "position": 7,
              "duration": 0.010416666666666666
            },
            {
              "pitch": 69,
              "velocity": 47,
              "position": 7,
              "duration": 0.010416666666666666
            },
            {
              "pitch": 82,
              "velocity": 70,
              "position": 7,
              "duration": 0.010416666666666666
            },
            {
              "pitch": 42,
              "velocity": 30,
              "position": 7.291666666666667,
              "duration": 0.010416666666666666
            },
            {
              "pitch": 46,
              "velocity": 47,
              "position": 7.5,
              "duration": 0.010416666666666666
            },
            {
              "pitch": 69,
              "velocity": 46,
              "position": 7.5,
              "duration": 0.010416666666666666
            },
            {
              "pitch": 82,
              "velocity": 70,
              "position": 7.5,
              "duration": 0.010416666666666666
            },
            {
              "pitch": 69,
              "velocity": 53,
              "position": 7.791666666666667,
              "duration": 0.010416666666666666
            },
            {
              "pitch": 42,
              "velocity": 54,
              "position": 8,
              "duration": 0.010416666666666666
            },
            {
              "pitch": 69,
              "velocity": 53,
              "position": 8,
              "duration": 0.010416666666666666
            },
            {
              "pitch": 82,
              "velocity": 70,
              "position": 8,
              "duration": 0.010416666666666666
            },
            {
              "pitch": 42,
              "velocity": 44,
              "position": 8.5,
              "duration": 0.010416666666666666
            },
            {
              "pitch": 69,
              "velocity": 53,
              "position": 8.5,
              "duration": 0.010416666666666666
            },
            {
              "pitch": 82,
              "velocity": 70,
              "position": 8.5,
              "duration": 0.010416666666666666
            },
            {
              "pitch": 42,
              "velocity": 63,
              "position": 9,
              "duration": 0.010416666666666666
            },
            {
              "pitch": 54,
              "velocity": 54,
              "position": 9,
              "duration": 0.010416666666666666
            },
            {
              "pitch": 82,
              "velocity": 70,
              "position": 9,
              "duration": 0.010416666666666666
            },
            {
              "pitch": 82,
              "velocity": 70,
              "position": 9.5,
              "duration": 0.010416666666666666
            },
            {
              "pitch": 82,
              "velocity": 70,
              "position": 10,
              "duration": 0.010416666666666666
            },
            {
              "pitch": 82,
              "velocity": 70,
              "position": 10.5,
              "duration": 0.010416666666666666
            },
            {
              "pitch": 42,
              "velocity": 55,
              "position": 11,
              "duration": 0.010416666666666666
            },
            {
              "pitch": 54,
              "velocity": 58,
              "position": 11,
              "duration": 0.010416666666666666
            },
            {
              "pitch": 69,
              "velocity": 51,
              "position": 11,
              "duration": 0.010416666666666666
            },
            {
              "pitch": 82,
              "velocity": 70,
              "position": 11,
              "duration": 0.010416666666666666
            },
            {
              "pitch": 42,
              "velocity": 57,
              "position": 11.5,
              "duration": 0.010416666666666666
            },
            {
              "pitch": 69,
              "velocity": 49,
              "position": 11.5,
              "duration": 0.010416666666666666
            },
            {
              "pitch": 82,
              "velocity": 70,
              "position": 11.5,
              "duration": 0.010416666666666666
            },
            {
              "pitch": 42,
              "velocity": 57,
              "position": 11.791666666666666,
              "duration": 0.010416666666666666
            },
            {
              "pitch": 69,
              "velocity": 50,
              "position": 11.791666666666666,
              "duration": 0.010416666666666666
            },
            {
              "pitch": 42,
              "velocity": 53,
              "position": 12,
              "duration": 0.010416666666666666
            },
            {
              "pitch": 56,
              "velocity": 50,
              "position": 12,
              "duration": 0.010416666666666666
            },
            {
              "pitch": 70,
              "velocity": 44,
              "position": 12,
              "duration": 0.010416666666666666
            },
            {
              "pitch": 42,
              "velocity": 27,
              "position": 12.5,
              "duration": 0.010416666666666666
            },
            {
              "pitch": 70,
              "velocity": 18,
              "position": 12.5,
              "duration": 0.010416666666666666
            },
            {
              "pitch": 42,
              "velocity": 27,
              "position": 12.770833333333334,
              "duration": 0.010416666666666666
            },
            {
              "pitch": 70,
              "velocity": 18,
              "position": 12.770833333333334,
              "duration": 0.010416666666666666
            },
            {
              "pitch": 42,
              "velocity": 43,
              "position": 13,
              "duration": 0.010416666666666666
            },
            {
              "pitch": 56,
              "velocity": 50,
              "position": 13,
              "duration": 0.010416666666666666
            },
            {
              "pitch": 70,
              "velocity": 34,
              "position": 13,
              "duration": 0.010416666666666666
            },
            {
              "pitch": 42,
              "velocity": 43,
              "position": 13.5,
              "duration": 0.010416666666666666
            },
            {
              "pitch": 70,
              "velocity": 44,
              "position": 13.5,
              "duration": 0.010416666666666666
            },
            {
              "pitch": 42,
              "velocity": 27,
              "position": 13.770833333333334,
              "duration": 0.010416666666666666
            },
            {
              "pitch": 70,
              "velocity": 18,
              "position": 13.770833333333334,
              "duration": 0.010416666666666666
            },
            {
              "pitch": 42,
              "velocity": 45,
              "position": 14,
              "duration": 0.010416666666666666
            },
            {
              "pitch": 56,
              "velocity": 50,
              "position": 14,
              "duration": 0.010416666666666666
            },
            {
              "pitch": 70,
              "velocity": 36,
              "position": 14,
              "duration": 0.010416666666666666
            },
            {
              "pitch": 42,
              "velocity": 45,
              "position": 14.5,
              "duration": 0.010416666666666666
            },
            {
              "pitch": 70,
              "velocity": 46,
              "position": 14.5,
              "duration": 0.010416666666666666
            },
            {
              "pitch": 42,
              "velocity": 27,
              "position": 14.770833333333334,
              "duration": 0.010416666666666666
            },
            {
              "pitch": 70,
              "velocity": 18,
              "position": 14.770833333333334,
              "duration": 0.010416666666666666
            },
            {
              "pitch": 42,
              "velocity": 53,
              "position": 15,
              "duration": 0.010416666666666666
            },
            {
              "pitch": 56,
              "velocity": 50,
              "position": 15,
              "duration": 0.010416666666666666
            },
            {
              "pitch": 70,
              "velocity": 44,
              "position": 15,
              "duration": 0.010416666666666666
            },
            {
              "pitch": 42,
              "velocity": 53,
              "position": 15.5,
              "duration": 0.010416666666666666
            },
            {
              "pitch": 70,
              "velocity": 54,
              "position": 15.5,
              "duration": 0.010416666666666666
            }
          ]
        },
        "9": {
          "ctab": {
            "srcChannel": 9,
            "name": "Drums",
            "accType": "RHYTHM",
            "editable": false,
            "mutedNotes": [],
            "mutedChords": [],
            "autoStart": true,
            "sourceChordNote": 0,
            "sourceChordType": "Maj7",
            "ctb2Low": null,
            "ctb2Main": {
              "ntr": "ROOT_FIXED",
              "ntt": "BYPASS",
              "bassOn": false,
              "chordRootUpperLimit": 6,
              "noteLowLimit": 0,
              "noteHighLimit": 127,
              "rtr": "PITCH_SHIFT"
            },
            "ctb2High": null
          },
          "notes": [
            {
              "pitch": 36,
              "velocity": 76,
              "position": 0,
              "duration": 0.010416666666666666
            },
            {
              "pitch": 44,
              "velocity": 63,
              "position": 0,
              "duration": 0.010416666666666666
            },
            {
              "pitch": 44,
              "velocity": 53,
              "position": 0.7916666666666666,
              "duration": 0.010416666666666666
            },
            {
              "pitch": 34,
              "velocity": 60,
              "position": 1,
              "duration": 0.010416666666666666
            },
            {
              "pitch": 39,
              "velocity": 72,
              "position": 1,
              "duration": 0.010416666666666666
            },
            {
              "pitch": 36,
              "velocity": 32,
              "position": 1.7916666666666667,
              "duration": 0.010416666666666666
            },
            {
              "pitch": 36,
              "velocity": 79,
              "position": 2,
              "duration": 0.010416666666666666
            },
            {
              "pitch": 79,
              "velocity": 30,
              "position": 1.7916666666666667,
              "duration": 0.23958333333333334
            },
            {
              "pitch": 78,
              "velocity": 35,
              "position": 2,
              "duration": 0.23958333333333334
            },
            {
              "pitch": 42,
              "velocity": 55,
              "position": 2.5,
              "duration": 0.010416666666666666
            },
            {
              "pitch": 79,
              "velocity": 48,
              "position": 2.2916666666666665,
              "duration": 0.23958333333333334
            },
            {
              "pitch": 78,
              "velocity": 35,
              "position": 2.5,
              "duration": 0.23958333333333334
            },
            {
              "pitch": 34,
              "velocity": 60,
              "position": 2.7916666666666665,
              "duration": 0.010416666666666666
            },
            {
              "pitch": 39,
              "velocity": 72,
              "position": 2.7916666666666665,
              "duration": 0.010416666666666666
            },
            {
              "pitch": 42,
              "velocity": 55,
              "position": 3.2916666666666665,
              "duration": 0.010416666666666666
            },
            {
              "pitch": 36,
              "velocity": 71,
              "position": 4,
              "duration": 0.010416666666666666
            },
            {
              "pitch": 44,
              "velocity": 54,
              "position": 4,
              "duration": 0.010416666666666666
            },
            {
              "pitch": 44,
              "velocity": 54,
              "position": 4.791666666666667,
              "duration": 0.010416666666666666
            },
            {
              "pitch": 34,
              "velocity": 60,
              "position": 5,
              "duration": 0.010416666666666666
            },
            {
              "pitch": 39,
              "velocity": 72,
              "position": 5,
              "duration": 0.010416666666666666
            },
            {
              "pitch": 36,
              "velocity": 32,
              "position": 5.791666666666667,
              "duration": 0.010416666666666666
            },
            {
              "pitch": 36,
              "velocity": 80,
              "position": 6,
              "duration": 0.010416666666666666
            },
            {
              "pitch": 79,
              "velocity": 47,
              "position": 5.791666666666667,
              "duration": 0.23958333333333334
            },
            {
              "pitch": 78,
              "velocity": 35,
              "position": 6,
              "duration": 0.23958333333333334
            },
            {
              "pitch": 42,
              "velocity": 54,
              "position": 6.5,
              "duration": 0.010416666666666666
            },
            {
              "pitch": 79,
              "velocity": 46,
              "position": 6.291666666666667,
              "duration": 0.23958333333333334
            },
            {
              "pitch": 78,
              "velocity": 35,
              "position": 6.5,
              "duration": 0.23958333333333334
            },
            {
              "pitch": 34,
              "velocity": 60,
              "position": 6.791666666666667,
              "duration": 0.010416666666666666
            },
            {
              "pitch": 39,
              "velocity": 72,
              "position": 6.791666666666667,
              "duration": 0.010416666666666666
            },
            {
              "pitch": 42,
              "velocity": 57,
              "position": 7.291666666666667,
              "duration": 0.010416666666666666
            },
            {
              "pitch": 36,
              "velocity": 79,
              "position": 8,
              "duration": 0.010416666666666666
            },
            {
              "pitch": 44,
              "velocity": 63,
              "position": 8,
              "duration": 0.010416666666666666
            },
            {
              "pitch": 44,
              "velocity": 53,
              "position": 8.791666666666666,
              "duration": 0.010416666666666666
            },
            {
              "pitch": 34,
              "velocity": 60,
              "position": 9,
              "duration": 0.010416666666666666
            },
            {
              "pitch": 39,
              "velocity": 72,
              "position": 9,
              "duration": 0.010416666666666666
            },
            {
              "pitch": 36,
              "velocity": 32,
              "position": 9.791666666666666,
              "duration": 0.010416666666666666
            },
            {
              "pitch": 36,
              "velocity": 76,
              "position": 10,
              "duration": 0.010416666666666666
            },
            {
              "pitch": 79,
              "velocity": 30,
              "position": 9.791666666666666,
              "duration": 0.23958333333333334
            },
            {
              "pitch": 78,
              "velocity": 35,
              "position": 10,
              "duration": 0.23958333333333334
            },
            {
              "pitch": 42,
              "velocity": 55,
              "position": 10.5,
              "duration": 0.010416666666666666
            },
            {
              "pitch": 79,
              "velocity": 48,
              "position": 10.291666666666666,
              "duration": 0.23958333333333334
            },
            {
              "pitch": 78,
              "velocity": 35,
              "position": 10.5,
              "duration": 0.23958333333333334
            },
            {
              "pitch": 34,
              "velocity": 60,
              "position": 11,
              "duration": 0.010416666666666666
            },
            {
              "pitch": 39,
              "velocity": 72,
              "position": 11,
              "duration": 0.010416666666666666
            },
            {
              "pitch": 42,
              "velocity": 55,
              "position": 11.291666666666666,
              "duration": 0.010416666666666666
            },
            {
              "pitch": 36,
              "velocity": 41,
              "position": 12,
              "duration": 0.010416666666666666
            },
            {
              "pitch": 17,
              "velocity": 70,
              "position": 12,
              "duration": 0.23958333333333334
            },
            {
              "pitch": 18,
              "velocity": 70,
              "position": 12.760416666666666,
              "duration": 0.23958333333333334
            },
            {
              "pitch": 36,
              "velocity": 43,
              "position": 13,
              "duration": 0.010416666666666666
            },
            {
              "pitch": 17,
              "velocity": 70,
              "position": 13,
              "duration": 0.23958333333333334
            },
            {
              "pitch": 18,
              "velocity": 70,
              "position": 13.760416666666666,
              "duration": 0.23958333333333334
            },
            {
              "pitch": 36,
              "velocity": 58,
              "position": 14,
              "duration": 0.010416666666666666
            },
            {
              "pitch": 17,
              "velocity": 70,
              "position": 14,
              "duration": 0.23958333333333334
            },
            {
              "pitch": 18,
              "velocity": 70,
              "position": 14.760416666666666,
              "duration": 0.23958333333333334
            },
            {
              "pitch": 34,
              "velocity": 58,
              "position": 15,
              "duration": 0.010416666666666666
            },
            {
              "pitch": 36,
              "velocity": 61,
              "position": 15,
              "duration": 0.010416666666666666
            },
            {
              "pitch": 17,
              "velocity": 70,
              "position": 15,
              "duration": 0.23958333333333334
            },
            {
              "pitch": 18,
              "velocity": 70,
              "position": 15.260416666666666,
              "duration": 0.23958333333333334
            },
            {
              "pitch": 34,
              "velocity": 61,
              "position": 15.5,
              "duration": 0.010416666666666666
            },
            {
              "pitch": 36,
              "velocity": 57,
              "position": 15.5,
              "duration": 0.010416666666666666
            },
            {
              "pitch": 17,
              "velocity": 70,
              "position": 15.5,
              "duration": 0.23958333333333334
            },
            {
              "pitch": 26,
              "velocity": 38,
              "position": 12,
              "duration": 3.9895833333333335
            }
          ]
        },
        "10": {
          "ctab": {
            "srcChannel": 10,
            "name": "Bass",
            "accType": "BASS",
            "editable": false,
            "mutedNotes": [],
            "mutedChords": [
              "1+2+5",
              "sus4",
              "7aug",
              "Maj7aug",
              "7(#9)",
              "7(b13)",
              "7(b9)",
              "7(13)",
              "7#11",
              "7(9)",
              "7b5",
              "7sus4",
              "7th",
              "aug",
              "Maj6(9)",
              "Maj7(9)",
              "Maj(9)",
              "Maj7#11",
              "Maj7",
              "Maj6",
              "Maj"
            ],
            "autoStart": false,
            "sourceChordNote": 0,
            "sourceChordType": "min",
            "ctb2Low": null,
            "ctb2Main": {
              "ntr": "ROOT_TRANSPOSITION",
              "ntt": "BYPASS",
              "bassOn": false,
              "chordRootUpperLimit": 3,
              "noteLowLimit": 28,
              "noteHighLimit": 127,
              "rtr": "PITCH_SHIFT"
            },
            "ctb2High": null
          },
          "notes": [
            {
              "pitch": 36,
              "velocity": 95,
              "position": 0,
              "duration": 0.4
            },
            {
              "pitch": 36,
              "velocity": 50,
              "position": 1.7916666666666667,
              "duration": 0.03125
            },
            {
              "pitch": 36,
              "velocity": 95,
              "position": 2,
              "duration": 0.3541666666666667
            },
            {
              "pitch": 32,
              "velocity": 95,
              "position": 4,
              "duration": 0.43125
            },
            {
              "pitch": 32,
              "velocity": 69,
              "position": 5.791666666666667,
              "duration": 0.08333333333333333
            },
            {
              "pitch": 32,
              "velocity": 78,
              "position": 6,
              "duration": 0.3958333333333333
            },
            {
              "pitch": 29,
              "velocity": 95,
              "position": 8,
              "duration": 0.44166666666666665
            },
            {
              "pitch": 29,
              "velocity": 90,
              "position": 9.791666666666666,
              "duration": 0.0625
            },
            {
              "pitch": 29,
              "velocity": 95,
              "position": 10,
              "duration": 0.41041666666666665
            },
            {
              "pitch": 32,
              "velocity": 90,
              "position": 12,
              "duration": 1.9375
            },
            {
              "pitch": 34,
              "velocity": 90,
              "position": 14,
              "duration": 1.8770833333333334
            }
          ]
        },
        "11": {
          "ctab": {
            "srcChannel": 11,
            "name": "Ep",
            "accType": "CHORD1",
            "editable": false,
            "mutedNotes": [],
            "mutedChords": [
              "1+2+5",
              "sus4",
              "7aug",
              "Maj7aug",
              "7(#9)",
              "7(b13)",
              "7(b9)",
              "7(13)",
              "7#11",
              "7(9)",
              "7b5",
              "7sus4",
              "7th",
              "aug",
              "Maj6(9)",
              "Maj7(9)",
              "Maj(9)",
              "Maj7#11",
              "Maj7",
              "Maj6",
              "Maj"
            ],
            "autoStart": false,
            "sourceChordNote": 0,
            "sourceChordType": "min",
            "ctb2Low": null,
            "ctb2Main": {
              "ntr": "ROOT_TRANSPOSITION",
              "ntt": "BYPASS",
              "bassOn": false,
              "chordRootUpperLimit": 7,
              "noteLowLimit": 0,
              "noteHighLimit": 127,
              "rtr": "PITCH_SHIFT"
            },
            "ctb2High": null
          },
          "notes": [
            {
              "pitch": 60,
              "velocity": 80,
              "position": 0,
              "duration": 2.78125
            },
            {
              "pitch": 63,
              "velocity": 80,
              "position": 0,
              "duration": 2.78125
            },
            {
              "pitch": 67,
              "velocity": 80,
              "position": 0,
              "duration": 2.78125
            },
            {
              "pitch": 58,
              "velocity": 80,
              "position": 2.7916666666666665,
              "duration": 0.6979166666666666
            },
            {
              "pitch": 62,
              "velocity": 80,
              "position": 2.7916666666666665,
              "duration": 0.6979166666666666
            },
            {
              "pitch": 65,
              "velocity": 80,
              "position": 2.7916666666666665,
              "duration": 0.6979166666666666
            },
            {
              "pitch": 60,
              "velocity": 80,
              "position": 3.5,
              "duration": 0.18125
            },
            {
              "pitch": 63,
              "velocity": 80,
              "position": 3.5,
              "duration": 0.18125
            },
            {
              "pitch": 67,
              "velocity": 80,
              "position": 3.5,
              "duration": 0.18125
            },
            {
              "pitch": 56,
              "velocity": 80,
              "position": 4,
              "duration": 2
            },
            {
              "pitch": 58,
              "velocity": 80,
              "position": 4,
              "duration": 2
            },
            {
              "pitch": 60,
              "velocity": 80,
              "position": 4,
              "duration": 2
            },
            {
              "pitch": 63,
              "velocity": 80,
              "position": 4,
              "duration": 2
            },
            {
              "pitch": 55,
              "velocity": 80,
              "position": 6.791666666666667,
              "duration": 0.6979166666666666
            },
            {
              "pitch": 58,
              "velocity": 80,
              "position": 6.791666666666667,
              "duration": 0.6979166666666666
            },
            {
              "pitch": 62,
              "velocity": 80,
              "position": 6.791666666666667,
              "duration": 0.6979166666666666
            },
            {
              "pitch": 56,
              "velocity": 80,
              "position": 7.5,
              "duration": 0.22916666666666666
            },
            {
              "pitch": 60,
              "velocity": 80,
              "position": 7.5,
              "duration": 0.22916666666666666
            },
            {
              "pitch": 63,
              "velocity": 80,
              "position": 7.5,
              "duration": 0.22916666666666666
            },
            {
              "pitch": 53,
              "velocity": 80,
              "position": 8,
              "duration": 2.9791666666666665
            },
            {
              "pitch": 56,
              "velocity": 80,
              "position": 8,
              "duration": 2.9791666666666665
            },
            {
              "pitch": 60,
              "velocity": 80,
              "position": 8,
              "duration": 2.9791666666666665
            },
            {
              "pitch": 53,
              "velocity": 80,
              "position": 11,
              "duration": 0.22291666666666668
            },
            {
              "pitch": 56,
              "velocity": 80,
              "position": 11,
              "duration": 0.22291666666666668
            },
            {
              "pitch": 60,
              "velocity": 80,
              "position": 11,
              "duration": 0.22291666666666668
            },
            {
              "pitch": 53,
              "velocity": 69,
              "position": 11.5,
              "duration": 0.22291666666666668
            },
            {
              "pitch": 56,
              "velocity": 69,
              "position": 11.5,
              "duration": 0.22291666666666668
            },
            {
              "pitch": 60,
              "velocity": 69,
              "position": 11.5,
              "duration": 0.22291666666666668
            },
            {
              "pitch": 56,
              "velocity": 80,
              "position": 12,
              "duration": 0.22291666666666668
            },
            {
              "pitch": 58,
              "velocity": 80,
              "position": 12,
              "duration": 0.22291666666666668
            },
            {
              "pitch": 60,
              "velocity": 80,
              "position": 12,
              "duration": 0.22291666666666668
            },
            {
              "pitch": 63,
              "velocity": 80,
              "position": 12,
              "duration": 0.22291666666666668
            },
            {
              "pitch": 56,
              "velocity": 69,
              "position": 12.5,
              "duration": 0.22291666666666668
            },
            {
              "pitch": 58,
              "velocity": 69,
              "position": 12.5,
              "duration": 0.22291666666666668
            },
            {
              "pitch": 60,
              "velocity": 69,
              "position": 12.5,
              "duration": 0.22291666666666668
            },
            {
              "pitch": 63,
              "velocity": 69,
              "position": 12.5,
              "duration": 0.22291666666666668
            },
            {
              "pitch": 56,
              "velocity": 80,
              "position": 13,
              "duration": 0.22291666666666668
            },
            {
              "pitch": 58,
              "velocity": 80,
              "position": 13,
              "duration": 0.22291666666666668
            },
            {
              "pitch": 60,
              "velocity": 80,
              "position": 13,
              "duration": 0.22291666666666668
            },
            {
              "pitch": 63,
              "velocity": 80,
              "position": 13,
              "duration": 0.22291666666666668
            },
            {
              "pitch": 56,
              "velocity": 69,
              "position": 13.5,
              "duration": 0.22291666666666668
            },
            {
              "pitch": 58,
              "velocity": 69,
              "position": 13.5,
              "duration": 0.22291666666666668
            },
            {
              "pitch": 60,
              "velocity": 69,
              "position": 13.5,
              "duration": 0.22291666666666668
            },
            {
              "pitch": 63,
              "velocity": 69,
              "position": 13.5,
              "duration": 0.22291666666666668
            },
            {
              "pitch": 58,
              "velocity": 80,
              "position": 14,
              "duration": 0.22291666666666668
            },
            {
              "pitch": 60,
              "velocity": 80,
              "position": 14,
              "duration": 0.22291666666666668
            },
            {
              "pitch": 62,
              "velocity": 80,
              "position": 14,
              "duration": 0.22291666666666668
            },
            {
              "pitch": 65,
              "velocity": 80,
              "position": 14,
              "duration": 0.22291666666666668
            },
            {
              "pitch": 58,
              "velocity": 69,
              "position": 14.5,
              "duration": 0.22291666666666668
            },
            {
              "pitch": 60,
              "velocity": 69,
              "position": 14.5,
              "duration": 0.22291666666666668
            },
            {
              "pitch": 62,
              "velocity": 69,
              "position": 14.5,
              "duration": 0.22291666666666668
            },
            {
              "pitch": 65,
              "velocity": 69,
              "position": 14.5,
              "duration": 0.22291666666666668
            },
            {
              "pitch": 58,
              "velocity": 80,
              "position": 15,
              "duration": 0.22291666666666668
            },
            {
              "pitch": 60,
              "velocity": 80,
              "position": 15,
              "duration": 0.22291666666666668
            },
            {
              "pitch": 62,
              "velocity": 80,
              "position": 15,
              "duration": 0.22291666666666668
            },
            {
              "pitch": 65,
              "velocity": 80,
              "position": 15,
              "duration": 0.22291666666666668
            },
            {
              "pitch": 58,
              "velocity": 69,
              "position": 15.5,
              "duration": 0.22291666666666668
            },
            {
              "pitch": 60,
              "velocity": 69,
              "position": 15.5,
              "duration": 0.22291666666666668
            },
            {
              "pitch": 62,
              "velocity": 69,
              "position": 15.5,
              "duration": 0.22291666666666668
            },
            {
              "pitch": 65,
              "velocity": 69,
              "position": 15.5,
              "duration": 0.22291666666666668
            }
          ]
        },
        "12": {
          "ctab": {
            "srcChannel": 12,
            "name": "JzGtr",
            "accType": "CHORD2",
            "editable": false,
            "mutedNotes": [],
            "mutedChords": [
              "1+2+5",
              "sus4",
              "7aug",
              "Maj7aug",
              "7(#9)",
              "7(b13)",
              "7(b9)",
              "7(13)",
              "7#11",
              "7(9)",
              "7b5",
              "7sus4",
              "7th",
              "aug",
              "Maj6(9)",
              "Maj7(9)",
              "Maj(9)",
              "Maj7#11",
              "Maj7",
              "Maj6",
              "Maj"
            ],
            "autoStart": false,
            "sourceChordNote": 0,
            "sourceChordType": "min",
            "ctb2Low": null,
            "ctb2Main": {
              "ntr": "ROOT_TRANSPOSITION",
              "ntt": "BYPASS",
              "bassOn": false,
              "chordRootUpperLimit": 8,
              "noteLowLimit": 0,
              "noteHighLimit": 127,
              "rtr": "PITCH_SHIFT"
            },
            "ctb2High": null
          },
          "notes": [
            {
              "pitch": 60,
              "velocity": 113,
              "position": 0,
              "duration": 0.3333333333333333
            },
            {
              "pitch": 63,
              "velocity": 102,
              "position": 1,
              "duration": 0.3375
            },
            {
              "pitch": 65,
              "velocity": 107,
              "position": 1.5,
              "duration": 0.23125
            },
            {
              "pitch": 65,
              "velocity": 86,
              "position": 1.95,
              "duration": 0.16458333333333333
            },
            {
              "pitch": 67,
              "velocity": 90,
              "position": 2.0729166666666665,
              "duration": 0.6895833333333333
            },
            {
              "pitch": 70,
              "velocity": 90,
              "position": 2.7916666666666665,
              "duration": 0.29375
            },
            {
              "pitch": 60,
              "velocity": 94,
              "position": 4,
              "duration": 0.29375
            },
            {
              "pitch": 60,
              "velocity": 94,
              "position": 4.5,
              "duration": 0.24375
            },
            {
              "pitch": 63,
              "velocity": 102,
              "position": 5,
              "duration": 0.2708333333333333
            },
            {
              "pitch": 65,
              "velocity": 94,
              "position": 5.5,
              "duration": 0.22916666666666666
            },
            {
              "pitch": 67,
              "velocity": 111,
              "position": 6,
              "duration": 0.28125
            },
            {
              "pitch": 65,
              "velocity": 64,
              "position": 6.291666666666667,
              "duration": 0.19791666666666666
            },
            {
              "pitch": 67,
              "velocity": 81,
              "position": 6.5,
              "duration": 0.28125
            },
            {
              "pitch": 63,
              "velocity": 88,
              "position": 6.791666666666667,
              "duration": 0.2125
            },
            {
              "pitch": 60,
              "velocity": 94,
              "position": 8.5,
              "duration": 0.2916666666666667
            },
            {
              "pitch": 63,
              "velocity": 109,
              "position": 9,
              "duration": 0.21875
            },
            {
              "pitch": 65,
              "velocity": 94,
              "position": 9.5,
              "duration": 0.22083333333333333
            },
            {
              "pitch": 65,
              "velocity": 99,
              "position": 9.929166666666667,
              "duration": 0.17708333333333334
            },
            {
              "pitch": 67,
              "velocity": 90,
              "position": 10.05625,
              "duration": 0.7583333333333333
            },
            {
              "pitch": 70,
              "velocity": 99,
              "position": 10.791666666666666,
              "duration": 0.25
            },
            {
              "pitch": 56,
              "velocity": 90,
              "position": 12,
              "duration": 0.4895833333333333
            },
            {
              "pitch": 60,
              "velocity": 84,
              "position": 12.5,
              "duration": 0.4895833333333333
            },
            {
              "pitch": 63,
              "velocity": 94,
              "position": 13,
              "duration": 0.4895833333333333
            },
            {
              "pitch": 56,
              "velocity": 65,
              "position": 13.5,
              "duration": 0.3958333333333333
            },
            {
              "pitch": 58,
              "velocity": 82,
              "position": 14,
              "duration": 0.4895833333333333
            },
            {
              "pitch": 62,
              "velocity": 74,
              "position": 14.5,
              "duration": 0.4895833333333333
            },
            {
              "pitch": 65,
              "velocity": 99,
              "position": 15,
              "duration": 0.4895833333333333
            },
            {
              "pitch": 58,
              "velocity": 64,
              "position": 15.5,
              "duration": 0.25416666666666665
            }
          ]
        },
        "13": {
          "ctab": {
            "srcChannel": 13,
            "name": "Strings",
            "accType": "PAD",
            "editable": false,
            "mutedNotes": [],
            "mutedChords": [
              "1+2+5",
              "sus4",
              "7aug",
              "Maj7aug",
              "7(#9)",
              "7(b13)",
              "7(b9)",
              "7(13)",
              "7#11",
              "7(9)",
              "7b5",
              "7sus4",
              "7th",
              "aug",
              "Maj6(9)",
              "Maj7(9)",
              "Maj(9)",
              "Maj7#11",
              "Maj7",
              "Maj6",
              "Maj"
            ],
            "autoStart": false,
            "sourceChordNote": 0,
            "sourceChordType": "min",
            "ctb2Low": null,
            "ctb2Main": {
              "ntr": "ROOT_TRANSPOSITION",
              "ntt": "BYPASS",
              "bassOn": false,
              "chordRootUpperLimit": 10,
              "noteLowLimit": 53,
              "noteHighLimit": 64,
              "rtr": "PITCH_SHIFT"
            },
            "ctb2High": null
          },
          "notes": [
            {
              "pitch": 60,
              "velocity": 39,
              "position": 0,
              "duration": 2.78125
            },
            {
              "pitch": 63,
              "velocity": 39,
              "position": 0,
              "duration": 2.78125
            },
            {
              "pitch": 67,
              "velocity": 39,
              "position": 0,
              "duration": 2.78125
            },
            {
              "pitch": 58,
              "velocity": 39,
              "position": 2.7916666666666665,
              "duration": 0.6979166666666666
            },
            {
              "pitch": 62,
              "velocity": 39,
              "position": 2.7916666666666665,
              "duration": 0.6979166666666666
            },
            {
              "pitch": 65,
              "velocity": 39,
              "position": 2.7916666666666665,
              "duration": 0.6979166666666666
            },
            {
              "pitch": 60,
              "velocity": 39,
              "position": 3.5,
              "duration": 0.4895833333333333
            },
            {
              "pitch": 63,
              "velocity": 39,
              "position": 3.5,
              "duration": 0.4895833333333333
            },
            {
              "pitch": 67,
              "velocity": 39,
              "position": 3.5,
              "duration": 0.4895833333333333
            },
            {
              "pitch": 56,
              "velocity": 39,
              "position": 4,
              "duration": 2.78125
            },
            {
              "pitch": 60,
              "velocity": 39,
              "position": 4,
              "duration": 2.78125
            },
            {
              "pitch": 63,
              "velocity": 39,
              "position": 4,
              "duration": 2.78125
            },
            {
              "pitch": 55,
              "velocity": 39,
              "position": 6.791666666666667,
              "duration": 0.6979166666666666
            },
            {
              "pitch": 58,
              "velocity": 39,
              "position": 6.791666666666667,
              "duration": 0.6979166666666666
            },
            {
              "pitch": 62,
              "velocity": 39,
              "position": 6.791666666666667,
              "duration": 0.6979166666666666
            },
            {
              "pitch": 56,
              "velocity": 39,
              "position": 7.5,
              "duration": 0.4895833333333333
            },
            {
              "pitch": 60,
              "velocity": 39,
              "position": 7.5,
              "duration": 0.4895833333333333
            },
            {
              "pitch": 63,
              "velocity": 39,
              "position": 7.5,
              "duration": 0.4895833333333333
            },
            {
              "pitch": 53,
              "velocity": 39,
              "position": 8,
              "duration": 3.9895833333333335
            },
            {
              "pitch": 56,
              "velocity": 39,
              "position": 8,
              "duration": 3.9895833333333335
            },
            {
              "pitch": 60,
              "velocity": 39,
              "position": 8,
              "duration": 3.9895833333333335
            },
            {
              "pitch": 56,
              "velocity": 39,
              "position": 12,
              "duration": 1.9895833333333333
            },
            {
              "pitch": 60,
              "velocity": 39,
              "position": 12,
              "duration": 1.9895833333333333
            },
            {
              "pitch": 63,
              "velocity": 39,
              "position": 12,
              "duration": 1.9895833333333333
            },
            {
              "pitch": 58,
              "velocity": 39,
              "position": 14,
              "duration": 1.9895833333333333
            },
            {
              "pitch": 62,
              "velocity": 39,
              "position": 14,
              "duration": 1.9895833333333333
            },
            {
              "pitch": 65,
              "velocity": 39,
              "position": 14,
              "duration": 1.9895833333333333
            }
          ]
        },
        "14": {
          "ctab": {
            "srcChannel": 14,
            "name": "SteelMsw",
            "accType": "PHRASE1",
            "editable": false,
            "mutedNotes": [],
            "mutedChords": [
              "1+2+5",
              "sus4",
              "7aug",
              "Maj7aug",
              "7(#9)",
              "7(b13)",
              "7(b9)",
              "7(13)",
              "7#11",
              "7(9)",
              "7b5",
              "7sus4",
              "7th",
              "aug",
              "Maj6(9)",
              "Maj7(9)",
              "Maj(9)",
              "Maj7#11",
              "Maj7",
              "Maj6",
              "Maj"
            ],
            "autoStart": false,
            "sourceChordNote": 0,
            "sourceChordType": "min",
            "ctb2Low": null,
            "ctb2Main": {
              "ntr": "ROOT_FIXED",
              "ntt": "BYPASS",
              "bassOn": false,
              "chordRootUpperLimit": 7,
              "noteLowLimit": 0,
              "noteHighLimit": 127,
              "rtr": "PITCH_SHIFT"
            },
            "ctb2High": null
          },
          "notes": [
            {
              "pitch": 104,
              "velocity": 73,
              "position": 2,
              "duration": 0.23958333333333334
            },
            {
              "pitch": 103,
              "velocity": 73,
              "position": 2.2916666666666665,
              "duration": 0.17708333333333334
            },
            {
              "pitch": 102,
              "velocity": 73,
              "position": 2.5,
              "duration": 0.23958333333333334
            },
            {
              "pitch": 104,
              "velocity": 73,
              "position": 4,
              "duration": 0.23958333333333334
            },
            {
              "pitch": 103,
              "velocity": 73,
              "position": 4.291666666666667,
              "duration": 0.17708333333333334
            },
            {
              "pitch": 102,
              "velocity": 73,
              "position": 4.5,
              "duration": 0.23958333333333334
            },
            {
              "pitch": 104,
              "velocity": 73,
              "position": 6,
              "duration": 0.23958333333333334
            },
            {
              "pitch": 103,
              "velocity": 73,
              "position": 6.291666666666667,
              "duration": 0.17708333333333334
            },
            {
              "pitch": 102,
              "velocity": 73,
              "position": 6.5,
              "duration": 0.23958333333333334
            },
            {
              "pitch": 104,
              "velocity": 73,
              "position": 8,
              "duration": 0.23958333333333334
            },
            {
              "pitch": 103,
              "velocity": 73,
              "position": 8.291666666666666,
              "duration": 0.17708333333333334
            },
            {
              "pitch": 102,
              "velocity": 73,
              "position": 8.5,
              "duration": 0.23958333333333334
            }
          ]
        },
        "15": {
          "ctab": {
            "srcChannel": 15,
            "name": "Flute",
            "accType": "PHRASE2",
            "editable": false,
            "mutedNotes": [],
            "mutedChords": [
              "1+2+5",
              "sus4",
              "7aug",
              "Maj7aug",
              "7(#9)",
              "7(b13)",
              "7(b9)",
              "7(13)",
              "7#11",
              "7(9)",
              "7b5",
              "7sus4",
              "7th",
              "aug",
              "Maj6(9)",
              "Maj7(9)",
              "Maj(9)",
              "Maj7#11",
              "Maj7",
              "Maj6",
              "Maj"
            ],
            "autoStart": false,
            "sourceChordNote": 0,
            "sourceChordType": "min",
            "ctb2Low": null,
            "ctb2Main": {
              "ntr": "ROOT_TRANSPOSITION",
              "ntt": "BYPASS",
              "bassOn": false,
              "chordRootUpperLimit": 8,
              "noteLowLimit": 0,
              "noteHighLimit": 127,
              "rtr": "PITCH_SHIFT"
            },
            "ctb2High": null
          },
          "notes": [
            {
              "pitch": 79,
              "velocity": 47,
              "position": 2,
              "duration": 0.15625
            },
            {
              "pitch": 75,
              "velocity": 47,
              "position": 2.1666666666666665,
              "duration": 0.15625
            },
            {
              "pitch": 72,
              "velocity": 47,
              "position": 2.3333333333333335,
              "duration": 0.15625
            },
            {
              "pitch": 79,
              "velocity": 47,
              "position": 2.5,
              "duration": 0.15625
            },
            {
              "pitch": 75,
              "velocity": 47,
              "position": 2.6666666666666665,
              "duration": 0.15625
            },
            {
              "pitch": 72,
              "velocity": 47,
              "position": 2.8333333333333335,
              "duration": 0.15625
            },
            {
              "pitch": 79,
              "velocity": 47,
              "position": 3,
              "duration": 0.15625
            },
            {
              "pitch": 75,
              "velocity": 47,
              "position": 3.1666666666666665,
              "duration": 0.15625
            },
            {
              "pitch": 72,
              "velocity": 47,
              "position": 3.3333333333333335,
              "duration": 0.15625
            },
            {
              "pitch": 79,
              "velocity": 47,
              "position": 3.5,
              "duration": 0.15625
            },
            {
              "pitch": 75,
              "velocity": 47,
              "position": 3.6666666666666665,
              "duration": 0.15625
            },
            {
              "pitch": 72,
              "velocity": 47,
              "position": 3.8333333333333335,
              "duration": 0.15625
            },
            {
              "pitch": 79,
              "velocity": 47,
              "position": 10,
              "duration": 0.15625
            },
            {
              "pitch": 75,
              "velocity": 47,
              "position": 10.166666666666666,
              "duration": 0.15625
            },
            {
              "pitch": 72,
              "velocity": 47,
              "position": 10.333333333333334,
              "duration": 0.15625
            },
            {
              "pitch": 79,
              "velocity": 47,
              "position": 10.5,
              "duration": 0.15625
            },
            {
              "pitch": 75,
              "velocity": 47,
              "position": 10.666666666666666,
              "duration": 0.15625
            },
            {
              "pitch": 72,
              "velocity": 47,
              "position": 10.833333333333334,
              "duration": 0.15625
            },
            {
              "pitch": 79,
              "velocity": 47,
              "position": 11,
              "duration": 0.15625
            },
            {
              "pitch": 75,
              "velocity": 47,
              "position": 11.166666666666666,
              "duration": 0.15625
            },
            {
              "pitch": 72,
              "velocity": 47,
              "position": 11.333333333333334,
              "duration": 0.15625
            },
            {
              "pitch": 79,
              "velocity": 47,
              "position": 11.5,
              "duration": 0.15625
            },
            {
              "pitch": 75,
              "velocity": 47,
              "position": 11.666666666666666,
              "duration": 0.15625
            },
            {
              "pitch": 72,
              "velocity": 47,
              "position": 11.833333333333334,
              "duration": 0.15625
            }
          ]
        }
      }
    },
    "Ending_B": {
      "type": "Ending_B",
      "sizeInBeats": 8,
      "channels": {
        "2": {
          "ctab": {
            "srcChannel": 2,
            "name": "Bass",
            "accType": "BASS",
            "editable": false,
            "mutedNotes": [],
            "mutedChords": [
              "1+5",
              "1+8",
              "dim7",
              "dim",
              "minMaj7(9)",
              "minMaj7",
              "min7(11)",
              "min7(9)",
              "min(9)",
              "m7b5",
              "min7",
              "min6",
              "min"
            ],
            "autoStart": false,
            "sourceChordNote": 0,
            "sourceChordType": "Maj",
            "ctb2Low": null,
            "ctb2Main": {
              "ntr": "ROOT_TRANSPOSITION",
              "ntt": "BYPASS",
              "bassOn": false,
              "chordRootUpperLimit": 3,
              "noteLowLimit": 28,
              "noteHighLimit": 127,
              "rtr": "PITCH_SHIFT"
            },
            "ctb2High": null
          },
          "notes": [
            {
              "pitch": 36,
              "velocity": 95,
              "position": 0,
              "duration": 0.4166666666666667
            },
            {
              "pitch": 36,
              "velocity": 95,
              "position": 1,
              "duration": 0.4166666666666667
            },
            {
              "pitch": 29,
              "velocity": 95,
              "position": 1.7916666666666667,
              "duration": 0.5041666666666667
            },
            {
              "pitch": 41,
              "velocity": 95,
              "position": 2.7916666666666665,
              "duration": 0.40625
            },
            {
              "pitch": 31,
              "velocity": 95,
              "position": 3.8333333333333335,
              "duration": 0.15625
            },
            {
              "pitch": 31,
              "velocity": 95,
              "position": 4,
              "duration": 0.4895833333333333
            },
            {
              "pitch": 31,
              "velocity": 95,
              "position": 4.5,
              "duration": 0.4895833333333333
            },
            {
              "pitch": 35,
              "velocity": 95,
              "position": 5,
              "duration": 0.3020833333333333
            },
            {
              "pitch": 31,
              "velocity": 95,
              "position": 5.3125,
              "duration": 0.17708333333333334
            },
            {
              "pitch": 35,
              "velocity": 95,
              "position": 5.5,
              "duration": 0.28125
            },
            {
              "pitch": 36,
              "velocity": 95,
              "position": 5.791666666666667,
              "duration": 0.3229166666666667
            }
          ]
        },
        "3": {
          "ctab": {
            "srcChannel": 3,
            "name": "Ep Root",
            "accType": "CHORD1",
            "editable": false,
            "mutedNotes": [],
            "mutedChords": [
              "1+5",
              "1+8",
              "dim7",
              "dim",
              "minMaj7(9)",
              "minMaj7",
              "min7(11)",
              "min7(9)",
              "min(9)",
              "m7b5",
              "min7",
              "min6",
              "min"
            ],
            "autoStart": false,
            "sourceChordNote": 0,
            "sourceChordType": "Maj",
            "ctb2Low": null,
            "ctb2Main": {
              "ntr": "ROOT_TRANSPOSITION",
              "ntt": "BYPASS",
              "bassOn": false,
              "chordRootUpperLimit": 7,
              "noteLowLimit": 0,
              "noteHighLimit": 127,
              "rtr": "PITCH_SHIFT"
            },
            "ctb2High": null
          },
          "notes": [
            {
              "pitch": 62,
              "velocity": 80,
              "position": 0,
              "duration": 0.19791666666666666
            },
            {
              "pitch": 64,
              "velocity": 80,
              "position": 0,
              "duration": 0.23958333333333334
            },
            {
              "pitch": 59,
              "velocity": 80,
              "position": 0,
              "duration": 0.25
            },
            {
              "pitch": 67,
              "velocity": 80,
              "position": 0,
              "duration": 0.25416666666666665
            },
            {
              "pitch": 62,
              "velocity": 80,
              "position": 1,
              "duration": 0.21875
            },
            {
              "pitch": 67,
              "velocity": 80,
              "position": 1,
              "duration": 0.21875
            },
            {
              "pitch": 64,
              "velocity": 80,
              "position": 1,
              "duration": 0.25
            },
            {
              "pitch": 59,
              "velocity": 80,
              "position": 1,
              "duration": 0.2916666666666667
            },
            {
              "pitch": 60,
              "velocity": 80,
              "position": 1.7916666666666667,
              "duration": 0.2833333333333333
            },
            {
              "pitch": 57,
              "velocity": 80,
              "position": 1.7916666666666667,
              "duration": 0.29375
            },
            {
              "pitch": 62,
              "velocity": 80,
              "position": 1.7916666666666667,
              "duration": 0.30625
            },
            {
              "pitch": 65,
              "velocity": 80,
              "position": 1.7916666666666667,
              "duration": 0.325
            },
            {
              "pitch": 57,
              "velocity": 80,
              "position": 3.2916666666666665,
              "duration": 0.6979166666666666
            },
            {
              "pitch": 60,
              "velocity": 80,
              "position": 3.2916666666666665,
              "duration": 0.6979166666666666
            },
            {
              "pitch": 62,
              "velocity": 80,
              "position": 3.2916666666666665,
              "duration": 0.6979166666666666
            },
            {
              "pitch": 65,
              "velocity": 80,
              "position": 3.2916666666666665,
              "duration": 0.6979166666666666
            },
            {
              "pitch": 60,
              "velocity": 80,
              "position": 4,
              "duration": 0.24375
            },
            {
              "pitch": 65,
              "velocity": 80,
              "position": 4,
              "duration": 0.2520833333333333
            },
            {
              "pitch": 62,
              "velocity": 80,
              "position": 4,
              "duration": 0.25416666666666665
            },
            {
              "pitch": 56,
              "velocity": 80,
              "position": 4,
              "duration": 0.2708333333333333
            },
            {
              "pitch": 60,
              "velocity": 80,
              "position": 5,
              "duration": 0.24375
            },
            {
              "pitch": 65,
              "velocity": 80,
              "position": 5,
              "duration": 0.2520833333333333
            },
            {
              "pitch": 62,
              "velocity": 80,
              "position": 5,
              "duration": 0.25416666666666665
            },
            {
              "pitch": 56,
              "velocity": 80,
              "position": 5,
              "duration": 0.2708333333333333
            },
            {
              "pitch": 55,
              "velocity": 80,
              "position": 5.791666666666667,
              "duration": 2.1979166666666665
            },
            {
              "pitch": 59,
              "velocity": 80,
              "position": 5.791666666666667,
              "duration": 2.1979166666666665
            },
            {
              "pitch": 60,
              "velocity": 80,
              "position": 5.791666666666667,
              "duration": 2.1979166666666665
            },
            {
              "pitch": 64,
              "velocity": 80,
              "position": 5.791666666666667,
              "duration": 2.1979166666666665
            }
          ]
        },
        "4": {
          "ctab": {
            "srcChannel": 4,
            "name": "JzGtrRoo",
            "accType": "CHORD2",
            "editable": false,
            "mutedNotes": [],
            "mutedChords": [
              "1+5",
              "1+8",
              "dim7",
              "dim",
              "minMaj7(9)",
              "minMaj7",
              "min7(11)",
              "min7(9)",
              "min(9)",
              "m7b5",
              "min7",
              "min6",
              "min"
            ],
            "autoStart": false,
            "sourceChordNote": 0,
            "sourceChordType": "Maj",
            "ctb2Low": null,
            "ctb2Main": {
              "ntr": "ROOT_TRANSPOSITION",
              "ntt": "BYPASS",
              "bassOn": false,
              "chordRootUpperLimit": 8,
              "noteLowLimit": 0,
              "noteHighLimit": 127,
              "rtr": "PITCH_SHIFT"
            },
            "ctb2High": null
          },
          "notes": [
            {
              "pitch": 60,
              "velocity": 114,
              "position": 0,
              "duration": 0.23958333333333334
            },
            {
              "pitch": 60,
              "velocity": 114,
              "position": 1,
              "duration": 0.23958333333333334
            },
            {
              "pitch": 55,
              "velocity": 39,
              "position": 1.7916666666666667,
              "duration": 0.19791666666666666
            },
            {
              "pitch": 57,
              "velocity": 57,
              "position": 2,
              "duration": 0.28125
            },
            {
              "pitch": 60,
              "velocity": 69,
              "position": 2.2916666666666665,
              "duration": 0.21875
            },
            {
              "pitch": 60,
              "velocity": 99,
              "position": 2.7916666666666665,
              "duration": 0.24375
            },
            {
              "pitch": 60,
              "velocity": 84,
              "position": 4.004166666666666,
              "duration": 0.13958333333333334
            },
            {
              "pitch": 60,
              "velocity": 48,
              "position": 4.15625,
              "duration": 0.15625
            },
            {
              "pitch": 60,
              "velocity": 79,
              "position": 4.322916666666667,
              "duration": 0.15
            },
            {
              "pitch": 60,
              "velocity": 107,
              "position": 4.48125,
              "duration": 0.15625
            },
            {
              "pitch": 60,
              "velocity": 69,
              "position": 4.833333333333333,
              "duration": 0.06458333333333334
            },
            {
              "pitch": 60,
              "velocity": 59,
              "position": 5,
              "duration": 0.1875
            },
            {
              "pitch": 60,
              "velocity": 41,
              "position": 5.291666666666667,
              "duration": 0.035416666666666666
            },
            {
              "pitch": 62,
              "velocity": 92,
              "position": 5.5,
              "duration": 0.29583333333333334
            },
            {
              "pitch": 60,
              "velocity": 79,
              "position": 5.791666666666667,
              "duration": 0.2916666666666667
            }
          ]
        },
        "5": {
          "ctab": {
            "srcChannel": 5,
            "name": "Str Root",
            "accType": "PAD",
            "editable": false,
            "mutedNotes": [],
            "mutedChords": [
              "1+5",
              "1+8",
              "dim7",
              "dim",
              "minMaj7(9)",
              "minMaj7",
              "min7(11)",
              "min7(9)",
              "min(9)",
              "m7b5",
              "min7",
              "min6",
              "min"
            ],
            "autoStart": false,
            "sourceChordNote": 0,
            "sourceChordType": "Maj",
            "ctb2Low": null,
            "ctb2Main": {
              "ntr": "ROOT_TRANSPOSITION",
              "ntt": "BYPASS",
              "bassOn": false,
              "chordRootUpperLimit": 10,
              "noteLowLimit": 53,
              "noteHighLimit": 64,
              "rtr": "PITCH_SHIFT"
            },
            "ctb2High": null
          },
          "notes": []
        },
        "6": {
          "ctab": {
            "srcChannel": 6,
            "name": "SteelMsw",
            "accType": "PHRASE1",
            "editable": false,
            "mutedNotes": [],
            "mutedChords": [
              "1+5",
              "1+8",
              "dim7",
              "dim",
              "minMaj7(9)",
              "minMaj7",
              "min7(11)",
              "min7(9)",
              "min(9)",
              "m7b5",
              "min7",
              "min6",
              "min"
            ],
            "autoStart": false,
            "sourceChordNote": 0,
            "sourceChordType": "Maj",
            "ctb2Low": null,
            "ctb2Main": {
              "ntr": "ROOT_FIXED",
              "ntt": "BYPASS",
              "bassOn": false,
              "chordRootUpperLimit": 7,
              "noteLowLimit": 0,
              "noteHighLimit": 127,
              "rtr": "PITCH_SHIFT"
            },
            "ctb2High": null
          },
          "notes": [
            {
              "pitch": 111,
              "velocity": 73,
              "position": 1.2916666666666667,
              "duration": 0.17708333333333334
            },
            {
              "pitch": 110,
              "velocity": 73,
              "position": 1.5,
              "duration": 0.23958333333333334
            },
            {
              "pitch": 111,
              "velocity": 73,
              "position": 1.7916666666666667,
              "duration": 0.17708333333333334
            }
          ]
        },
        "7": {
          "ctab": {
            "srcChannel": 7,
            "name": "Flute",
            "accType": "PHRASE2",
            "editable": false,
            "mutedNotes": [],
            "mutedChords": [
              "1+5",
              "1+8",
              "dim7",
              "dim",
              "minMaj7(9)",
              "minMaj7",
              "min7(11)",
              "min7(9)",
              "min(9)",
              "m7b5",
              "min7",
              "min6",
              "min"
            ],
            "autoStart": false,
            "sourceChordNote": 0,
            "sourceChordType": "Maj",
            "ctb2Low": null,
            "ctb2Main": {
              "ntr": "ROOT_TRANSPOSITION",
              "ntt": "BYPASS",
              "bassOn": false,
              "chordRootUpperLimit": 8,
              "noteLowLimit": 0,
              "noteHighLimit": 127,
              "rtr": "PITCH_SHIFT"
            },
            "ctb2High": null
          },
          "notes": []
        },
        "8": {
          "ctab": {
            "srcChannel": 8,
            "name": "Perc",
            "accType": "SUBRHYTHM",
            "editable": false,
            "mutedNotes": [],
            "mutedChords": [],
            "autoStart": true,
            "sourceChordNote": 0,
            "sourceChordType": "Maj7",
            "ctb2Low": null,
            "ctb2Main": {
              "ntr": "ROOT_FIXED",
              "ntt": "BYPASS",
              "bassOn": false,
              "chordRootUpperLimit": 6,
              "noteLowLimit": 0,
              "noteHighLimit": 127,
              "rtr": "PITCH_SHIFT"
            },
            "ctb2High": null
          },
          "notes": [
            {
              "pitch": 42,
              "velocity": 54,
              "position": 0,
              "duration": 0.010416666666666666
            },
            {
              "pitch": 56,
              "velocity": 50,
              "position": 0,
              "duration": 0.010416666666666666
            },
            {
              "pitch": 82,
              "velocity": 57,
              "position": 0,
              "duration": 0.010416666666666666
            },
            {
              "pitch": 42,
              "velocity": 44,
              "position": 0.5,
              "duration": 0.010416666666666666
            },
            {
              "pitch": 69,
              "velocity": 53,
              "position": 0.5,
              "duration": 0.010416666666666666
            },
            {
              "pitch": 82,
              "velocity": 48,
              "position": 0.5,
              "duration": 0.010416666666666666
            },
            {
              "pitch": 42,
              "velocity": 63,
              "position": 1,
              "duration": 0.010416666666666666
            },
            {
              "pitch": 54,
              "velocity": 54,
              "position": 1,
              "duration": 0.010416666666666666
            },
            {
              "pitch": 56,
              "velocity": 50,
              "position": 1,
              "duration": 0.010416666666666666
            },
            {
              "pitch": 82,
              "velocity": 49,
              "position": 1,
              "duration": 0.010416666666666666
            },
            {
              "pitch": 69,
              "velocity": 53,
              "position": 1.5,
              "duration": 0.010416666666666666
            },
            {
              "pitch": 82,
              "velocity": 41,
              "position": 1.5,
              "duration": 0.010416666666666666
            },
            {
              "pitch": 56,
              "velocity": 50,
              "position": 2,
              "duration": 0.010416666666666666
            },
            {
              "pitch": 82,
              "velocity": 48,
              "position": 2,
              "duration": 0.010416666666666666
            },
            {
              "pitch": 82,
              "velocity": 61,
              "position": 2.5,
              "duration": 0.010416666666666666
            },
            {
              "pitch": 42,
              "velocity": 55,
              "position": 3,
              "duration": 0.010416666666666666
            },
            {
              "pitch": 54,
              "velocity": 58,
              "position": 3,
              "duration": 0.010416666666666666
            },
            {
              "pitch": 56,
              "velocity": 50,
              "position": 3,
              "duration": 0.010416666666666666
            },
            {
              "pitch": 69,
              "velocity": 51,
              "position": 3,
              "duration": 0.010416666666666666
            },
            {
              "pitch": 82,
              "velocity": 41,
              "position": 3,
              "duration": 0.010416666666666666
            },
            {
              "pitch": 42,
              "velocity": 57,
              "position": 3.5,
              "duration": 0.010416666666666666
            },
            {
              "pitch": 69,
              "velocity": 49,
              "position": 3.5,
              "duration": 0.010416666666666666
            },
            {
              "pitch": 82,
              "velocity": 58,
              "position": 3.5,
              "duration": 0.010416666666666666
            },
            {
              "pitch": 42,
              "velocity": 57,
              "position": 3.7916666666666665,
              "duration": 0.010416666666666666
            },
            {
              "pitch": 69,
              "velocity": 50,
              "position": 3.7916666666666665,
              "duration": 0.010416666666666666
            },
            {
              "pitch": 42,
              "velocity": 71,
              "position": 4,
              "duration": 0.010416666666666666
            },
            {
              "pitch": 56,
              "velocity": 50,
              "position": 4,
              "duration": 0.010416666666666666
            },
            {
              "pitch": 82,
              "velocity": 57,
              "position": 4,
              "duration": 0.010416666666666666
            },
            {
              "pitch": 69,
              "velocity": 42,
              "position": 4.5,
              "duration": 0.010416666666666666
            },
            {
              "pitch": 82,
              "velocity": 48,
              "position": 4.5,
              "duration": 0.010416666666666666
            },
            {
              "pitch": 42,
              "velocity": 31,
              "position": 4.791666666666667,
              "duration": 0.010416666666666666
            },
            {
              "pitch": 42,
              "velocity": 54,
              "position": 5,
              "duration": 0.010416666666666666
            },
            {
              "pitch": 54,
              "velocity": 58,
              "position": 5,
              "duration": 0.010416666666666666
            },
            {
              "pitch": 56,
              "velocity": 50,
              "position": 5,
              "duration": 0.010416666666666666
            },
            {
              "pitch": 82,
              "velocity": 49,
              "position": 5,
              "duration": 0.010416666666666666
            },
            {
              "pitch": 69,
              "velocity": 46,
              "position": 5.5,
              "duration": 0.010416666666666666
            },
            {
              "pitch": 82,
              "velocity": 41,
              "position": 5.5,
              "duration": 0.010416666666666666
            },
            {
              "pitch": 46,
              "velocity": 46,
              "position": 5.791666666666667,
              "duration": 0.010416666666666666
            },
            {
              "pitch": 56,
              "velocity": 50,
              "position": 5.791666666666667,
              "duration": 0.010416666666666666
            }
          ]
        },
        "9": {
          "ctab": {
            "srcChannel": 9,
            "name": "Drums",
            "accType": "RHYTHM",
            "editable": false,
            "mutedNotes": [],
            "mutedChords": [],
            "autoStart": true,
            "sourceChordNote": 0,
            "sourceChordType": "Maj7",
            "ctb2Low": null,
            "ctb2Main": {
              "ntr": "ROOT_FIXED",
              "ntt": "BYPASS",
              "bassOn": false,
              "chordRootUpperLimit": 6,
              "noteLowLimit": 0,
              "noteHighLimit": 127,
              "rtr": "PITCH_SHIFT"
            },
            "ctb2High": null
          },
          "notes": [
            {
              "pitch": 36,
              "velocity": 77,
              "position": 0,
              "duration": 0.010416666666666666
            },
            {
              "pitch": 46,
              "velocity": 63,
              "position": 0,
              "duration": 0.010416666666666666
            },
            {
              "pitch": 42,
              "velocity": 26,
              "position": 0.2916666666666667,
              "duration": 0.010416666666666666
            },
            {
              "pitch": 34,
              "velocity": 54,
              "position": 0.5,
              "duration": 0.010416666666666666
            },
            {
              "pitch": 42,
              "velocity": 63,
              "position": 0.5,
              "duration": 0.010416666666666666
            },
            {
              "pitch": 42,
              "velocity": 26,
              "position": 0.7916666666666666,
              "duration": 0.010416666666666666
            },
            {
              "pitch": 34,
              "velocity": 57,
              "position": 1,
              "duration": 0.010416666666666666
            },
            {
              "pitch": 36,
              "velocity": 77,
              "position": 1,
              "duration": 0.010416666666666666
            },
            {
              "pitch": 46,
              "velocity": 53,
              "position": 1,
              "duration": 0.010416666666666666
            },
            {
              "pitch": 35,
              "velocity": 62,
              "position": 1.7916666666666667,
              "duration": 0.010416666666666666
            },
            {
              "pitch": 79,
              "velocity": 30,
              "position": 1.7916666666666667,
              "duration": 0.23958333333333334
            },
            {
              "pitch": 78,
              "velocity": 35,
              "position": 2,
              "duration": 0.23958333333333334
            },
            {
              "pitch": 42,
              "velocity": 55,
              "position": 2.5,
              "duration": 0.010416666666666666
            },
            {
              "pitch": 79,
              "velocity": 48,
              "position": 2.2916666666666665,
              "duration": 0.23958333333333334
            },
            {
              "pitch": 78,
              "velocity": 35,
              "position": 2.5,
              "duration": 0.23958333333333334
            },
            {
              "pitch": 34,
              "velocity": 58,
              "position": 2.8125,
              "duration": 0.010416666666666666
            },
            {
              "pitch": 34,
              "velocity": 30,
              "position": 2.910416666666667,
              "duration": 0.010416666666666666
            },
            {
              "pitch": 34,
              "velocity": 17,
              "position": 2.9791666666666665,
              "duration": 0.010416666666666666
            },
            {
              "pitch": 34,
              "velocity": 14,
              "position": 3.0541666666666667,
              "duration": 0.010416666666666666
            },
            {
              "pitch": 42,
              "velocity": 55,
              "position": 3.2916666666666665,
              "duration": 0.010416666666666666
            },
            {
              "pitch": 36,
              "velocity": 35,
              "position": 3.5,
              "duration": 0.010416666666666666
            },
            {
              "pitch": 36,
              "velocity": 77,
              "position": 4,
              "duration": 0.010416666666666666
            },
            {
              "pitch": 44,
              "velocity": 54,
              "position": 4,
              "duration": 0.010416666666666666
            },
            {
              "pitch": 44,
              "velocity": 54,
              "position": 4.791666666666667,
              "duration": 0.010416666666666666
            },
            {
              "pitch": 34,
              "velocity": 53,
              "position": 5,
              "duration": 0.010416666666666666
            },
            {
              "pitch": 36,
              "velocity": 77,
              "position": 5,
              "duration": 0.010416666666666666
            },
            {
              "pitch": 34,
              "velocity": 63,
              "position": 5.791666666666667,
              "duration": 0.010416666666666666
            },
            {
              "pitch": 36,
              "velocity": 77,
              "position": 5.791666666666667,
              "duration": 0.010416666666666666
            }
          ]
        },
        "10": {
          "ctab": {
            "srcChannel": 10,
            "name": "Bass",
            "accType": "BASS",
            "editable": false,
            "mutedNotes": [],
            "mutedChords": [
              "1+2+5",
              "sus4",
              "7aug",
              "Maj7aug",
              "7(#9)",
              "7(b13)",
              "7(b9)",
              "7(13)",
              "7#11",
              "7(9)",
              "7b5",
              "7sus4",
              "7th",
              "aug",
              "Maj6(9)",
              "Maj7(9)",
              "Maj(9)",
              "Maj7#11",
              "Maj7",
              "Maj6",
              "Maj"
            ],
            "autoStart": false,
            "sourceChordNote": 0,
            "sourceChordType": "min",
            "ctb2Low": null,
            "ctb2Main": {
              "ntr": "ROOT_TRANSPOSITION",
              "ntt": "BYPASS",
              "bassOn": false,
              "chordRootUpperLimit": 3,
              "noteLowLimit": 28,
              "noteHighLimit": 127,
              "rtr": "PITCH_SHIFT"
            },
            "ctb2High": null
          },
          "notes": [
            {
              "pitch": 36,
              "velocity": 95,
              "position": 0,
              "duration": 0.4166666666666667
            },
            {
              "pitch": 36,
              "velocity": 95,
              "position": 1,
              "duration": 0.4166666666666667
            },
            {
              "pitch": 29,
              "velocity": 95,
              "position": 1.7916666666666667,
              "duration": 0.5041666666666667
            },
            {
              "pitch": 29,
              "velocity": 95,
              "position": 2.7916666666666665,
              "duration": 0.40625
            },
            {
              "pitch": 31,
              "velocity": 95,
              "position": 3.8333333333333335,
              "duration": 0.15625
            },
            {
              "pitch": 31,
              "velocity": 95,
              "position": 4,
              "duration": 0.4895833333333333
            },
            {
              "pitch": 31,
              "velocity": 95,
              "position": 4.5,
              "duration": 0.4895833333333333
            },
            {
              "pitch": 34,
              "velocity": 95,
              "position": 5,
              "duration": 0.3020833333333333
            },
            {
              "pitch": 31,
              "velocity": 95,
              "position": 5.3125,
              "duration": 0.17708333333333334
            },
            {
              "pitch": 35,
              "velocity": 95,
              "position": 5.5,
              "duration": 0.28125
            },
            {
              "pitch": 36,
              "velocity": 95,
              "position": 5.791666666666667,
              "duration": 0.3229166666666667
            }
          ]
        },
        "11": {
          "ctab": {
            "srcChannel": 11,
            "name": "Ep",
            "accType": "CHORD1",
            "editable": false,
            "mutedNotes": [],
            "mutedChords": [
              "1+2+5",
              "sus4",
              "7aug",
              "Maj7aug",
              "7(#9)",
              "7(b13)",
              "7(b9)",
              "7(13)",
              "7#11",
              "7(9)",
              "7b5",
              "7sus4",
              "7th",
              "aug",
              "Maj6(9)",
              "Maj7(9)",
              "Maj(9)",
              "Maj7#11",
              "Maj7",
              "Maj6",
              "Maj"
            ],
            "autoStart": false,
            "sourceChordNote": 0,
            "sourceChordType": "min",
            "ctb2Low": null,
            "ctb2Main": {
              "ntr": "ROOT_TRANSPOSITION",
              "ntt": "BYPASS",
              "bassOn": false,
              "chordRootUpperLimit": 7,
              "noteLowLimit": 0,
              "noteHighLimit": 127,
              "rtr": "PITCH_SHIFT"
            },
            "ctb2High": null
          },
          "notes": [
            {
              "pitch": 62,
              "velocity": 81,
              "position": 0,
              "duration": 0.22916666666666666
            },
            {
              "pitch": 58,
              "velocity": 81,
              "position": 0,
              "duration": 0.2520833333333333
            },
            {
              "pitch": 63,
              "velocity": 81,
              "position": 0,
              "duration": 0.28125
            },
            {
              "pitch": 67,
              "velocity": 81,
              "position": 0,
              "duration": 0.2916666666666667
            },
            {
              "pitch": 67,
              "velocity": 81,
              "position": 1,
              "duration": 0.25
            },
            {
              "pitch": 62,
              "velocity": 81,
              "position": 1,
              "duration": 0.2604166666666667
            },
            {
              "pitch": 63,
              "velocity": 81,
              "position": 1,
              "duration": 0.2708333333333333
            },
            {
              "pitch": 58,
              "velocity": 81,
              "position": 1,
              "duration": 0.28541666666666665
            },
            {
              "pitch": 56,
              "velocity": 81,
              "position": 1.7916666666666667,
              "duration": 0.23333333333333334
            },
            {
              "pitch": 65,
              "velocity": 81,
              "position": 1.7916666666666667,
              "duration": 0.24375
            },
            {
              "pitch": 60,
              "velocity": 81,
              "position": 1.7916666666666667,
              "duration": 0.25
            },
            {
              "pitch": 62,
              "velocity": 81,
              "position": 1.7916666666666667,
              "duration": 0.25416666666666665
            },
            {
              "pitch": 59,
              "velocity": 81,
              "position": 5,
              "duration": 0.78125
            },
            {
              "pitch": 65,
              "velocity": 81,
              "position": 5,
              "duration": 0.78125
            },
            {
              "pitch": 70,
              "velocity": 81,
              "position": 5,
              "duration": 0.78125
            },
            {
              "pitch": 63,
              "velocity": 81,
              "position": 5.791666666666667,
              "duration": 0.2125
            },
            {
              "pitch": 67,
              "velocity": 81,
              "position": 5.791666666666667,
              "duration": 0.22291666666666668
            },
            {
              "pitch": 62,
              "velocity": 81,
              "position": 5.791666666666667,
              "duration": 0.25416666666666665
            },
            {
              "pitch": 72,
              "velocity": 81,
              "position": 5.791666666666667,
              "duration": 0.2604166666666667
            }
          ]
        },
        "12": {
          "ctab": {
            "srcChannel": 12,
            "name": "JzGtr",
            "accType": "CHORD2",
            "editable": false,
            "mutedNotes": [],
            "mutedChords": [
              "1+2+5",
              "sus4",
              "7aug",
              "Maj7aug",
              "7(#9)",
              "7(b13)",
              "7(b9)",
              "7(13)",
              "7#11",
              "7(9)",
              "7b5",
              "7sus4",
              "7th",
              "aug",
              "Maj6(9)",
              "Maj7(9)",
              "Maj(9)",
              "Maj7#11",
              "Maj7",
              "Maj6",
              "Maj"
            ],
            "autoStart": false,
            "sourceChordNote": 0,
            "sourceChordType": "min",
            "ctb2Low": null,
            "ctb2Main": {
              "ntr": "ROOT_TRANSPOSITION",
              "ntt": "BYPASS",
              "bassOn": false,
              "chordRootUpperLimit": 8,
              "noteLowLimit": 0,
              "noteHighLimit": 127,
              "rtr": "PITCH_SHIFT"
            },
            "ctb2High": null
          },
          "notes": [
            {
              "pitch": 63,
              "velocity": 112,
              "position": 0,
              "duration": 0.33541666666666664
            },
            {
              "pitch": 65,
              "velocity": 84,
              "position": 0.5,
              "duration": 0.3125
            },
            {
              "pitch": 60,
              "velocity": 108,
              "position": 1,
              "duration": 0.3458333333333333
            },
            {
              "pitch": 63,
              "velocity": 79,
              "position": 1.7916666666666667,
              "duration": 0.4895833333333333
            },
            {
              "pitch": 67,
              "velocity": 79,
              "position": 1.7916666666666667,
              "duration": 0.4895833333333333
            },
            {
              "pitch": 65,
              "velocity": 101,
              "position": 2.2916666666666665,
              "duration": 0.1875
            },
            {
              "pitch": 70,
              "velocity": 101,
              "position": 2.2916666666666665,
              "duration": 0.1875
            },
            {
              "pitch": 60,
              "velocity": 105,
              "position": 2.7916666666666665,
              "duration": 0.30625
            },
            {
              "pitch": 65,
              "velocity": 105,
              "position": 2.7916666666666665,
              "duration": 0.30625
            },
            {
              "pitch": 68,
              "velocity": 105,
              "position": 2.7916666666666665,
              "duration": 0.30625
            },
            {
              "pitch": 72,
              "velocity": 105,
              "position": 2.7916666666666665,
              "duration": 0.30625
            },
            {
              "pitch": 55,
              "velocity": 82,
              "position": 3.8333333333333335,
              "duration": 0.15625
            },
            {
              "pitch": 55,
              "velocity": 80,
              "position": 4,
              "duration": 0.15625
            },
            {
              "pitch": 55,
              "velocity": 67,
              "position": 4.166666666666667,
              "duration": 0.15625
            },
            {
              "pitch": 55,
              "velocity": 100,
              "position": 4.333333333333333,
              "duration": 0.15625
            },
            {
              "pitch": 55,
              "velocity": 70,
              "position": 4.5,
              "duration": 0.19166666666666668
            },
            {
              "pitch": 55,
              "velocity": 103,
              "position": 4.833333333333333,
              "duration": 0.15625
            },
            {
              "pitch": 58,
              "velocity": 124,
              "position": 5,
              "duration": 0.3229166666666667
            },
            {
              "pitch": 55,
              "velocity": 103,
              "position": 5.333333333333333,
              "duration": 0.15625
            },
            {
              "pitch": 59,
              "velocity": 97,
              "position": 5.5,
              "duration": 0.28125
            },
            {
              "pitch": 60,
              "velocity": 120,
              "position": 5.791666666666667,
              "duration": 0.2708333333333333
            }
          ]
        },
        "13": {
          "ctab": {
            "srcChannel": 13,
            "name": "Strings",
            "accType": "PAD",
            "editable": false,
            "mutedNotes": [],
            "mutedChords": [
              "1+2+5",
              "sus4",
              "7aug",
              "Maj7aug",
              "7(#9)",
              "7(b13)",
              "7(b9)",
              "7(13)",
              "7#11",
              "7(9)",
              "7b5",
              "7sus4",
              "7th",
              "aug",
              "Maj6(9)",
              "Maj7(9)",
              "Maj(9)",
              "Maj7#11",
              "Maj7",
              "Maj6",
              "Maj"
            ],
            "autoStart": false,
            "sourceChordNote": 0,
            "sourceChordType": "min",
            "ctb2Low": null,
            "ctb2Main": {
              "ntr": "ROOT_TRANSPOSITION",
              "ntt": "BYPASS",
              "bassOn": false,
              "chordRootUpperLimit": 10,
              "noteLowLimit": 53,
              "noteHighLimit": 64,
              "rtr": "PITCH_SHIFT"
            },
            "ctb2High": null
          },
          "notes": []
        },
        "14": {
          "ctab": {
            "srcChannel": 14,
            "name": "SteelMsw",
            "accType": "PHRASE1",
            "editable": false,
            "mutedNotes": [],
            "mutedChords": [
              "1+2+5",
              "sus4",
              "7aug",
              "Maj7aug",
              "7(#9)",
              "7(b13)",
              "7(b9)",
              "7(13)",
              "7#11",
              "7(9)",
              "7b5",
              "7sus4",
              "7th",
              "aug",
              "Maj6(9)",
              "Maj7(9)",
              "Maj(9)",
              "Maj7#11",
              "Maj7",
              "Maj6",
              "Maj"
            ],
            "autoStart": false,
            "sourceChordNote": 0,
            "sourceChordType": "min",
            "ctb2Low": null,
            "ctb2Main": {
              "ntr": "ROOT_FIXED",
              "ntt": "BYPASS",
              "bassOn": false,
              "chordRootUpperLimit": 7,
              "noteLowLimit": 0,
              "noteHighLimit": 127,
              "rtr": "PITCH_SHIFT"
            },
            "ctb2High": null
          },
          "notes": [
            {
              "pitch": 111,
              "velocity": 73,
              "position": 1.2916666666666667,
              "duration": 0.17708333333333334
            },
            {
              "pitch": 110,
              "velocity": 73,
              "position": 1.5,
              "duration": 0.23958333333333334
            },
            {
              "pitch": 111,
              "velocity": 73,
              "position": 1.7916666666666667,
              "duration": 0.17708333333333334
            }
          ]
        },
        "15": {
          "ctab": {
            "srcChannel": 15,
            "name": "Flute",
            "accType": "PHRASE2",
            "editable": false,
            "mutedNotes": [],
            "mutedChords": [
              "1+2+5",
              "sus4",
              "7aug",
              "Maj7aug",
              "7(#9)",
              "7(b13)",
              "7(b9)",
              "7(13)",
              "7#11",
              "7(9)",
              "7b5",
              "7sus4",
              "7th",
              "aug",
              "Maj6(9)",
              "Maj7(9)",
              "Maj(9)",
              "Maj7#11",
              "Maj7",
              "Maj6",
              "Maj"
            ],
            "autoStart": false,
            "sourceChordNote": 0,
            "sourceChordType": "min",
            "ctb2Low": null,
            "ctb2Main": {
              "ntr": "ROOT_TRANSPOSITION",
              "ntt": "BYPASS",
              "bassOn": false,
              "chordRootUpperLimit": 8,
              "noteLowLimit": 0,
              "noteHighLimit": 127,
              "rtr": "PITCH_SHIFT"
            },
            "ctb2High": null
          },
          "notes": []
        }
      }
    },
    "Ending_C": {
      "type": "Ending_C",
      "sizeInBeats": 8,
      "channels": {
        "2": {
          "ctab": {
            "srcChannel": 2,
            "name": "Bass",
            "accType": "BASS",
            "editable": false,
            "mutedNotes": [],
            "mutedChords": [
              "1+5",
              "1+8",
              "dim7",
              "dim",
              "minMaj7(9)",
              "minMaj7",
              "min7(11)",
              "min7(9)",
              "min(9)",
              "m7b5",
              "min7",
              "min6",
              "min"
            ],
            "autoStart": false,
            "sourceChordNote": 0,
            "sourceChordType": "Maj",
            "ctb2Low": null,
            "ctb2Main": {
              "ntr": "ROOT_TRANSPOSITION",
              "ntt": "BYPASS",
              "bassOn": false,
              "chordRootUpperLimit": 3,
              "noteLowLimit": 28,
              "noteHighLimit": 127,
              "rtr": "PITCH_SHIFT"
            },
            "ctb2High": null
          },
          "notes": [
            {
              "pitch": 36,
              "velocity": 95,
              "position": 0.7916666666666666,
              "duration": 0.6458333333333334
            },
            {
              "pitch": 31,
              "velocity": 92,
              "position": 1.5,
              "duration": 0.5208333333333334
            },
            {
              "pitch": 38,
              "velocity": 95,
              "position": 2.7916666666666665,
              "duration": 0.6895833333333333
            },
            {
              "pitch": 33,
              "velocity": 90,
              "position": 3.5,
              "duration": 0.4166666666666667
            },
            {
              "pitch": 29,
              "velocity": 95,
              "position": 4.791666666666667,
              "duration": 0.7645833333333333
            },
            {
              "pitch": 31,
              "velocity": 95,
              "position": 5.5,
              "duration": 0.3854166666666667
            },
            {
              "pitch": 36,
              "velocity": 95,
              "position": 6.5,
              "duration": 0.3125
            },
            {
              "pitch": 36,
              "velocity": 95,
              "position": 7,
              "duration": 0.32708333333333334
            }
          ]
        },
        "3": {
          "ctab": {
            "srcChannel": 3,
            "name": "Ep Root",
            "accType": "CHORD1",
            "editable": false,
            "mutedNotes": [],
            "mutedChords": [
              "1+5",
              "1+8",
              "dim7",
              "dim",
              "minMaj7(9)",
              "minMaj7",
              "min7(11)",
              "min7(9)",
              "min(9)",
              "m7b5",
              "min7",
              "min6",
              "min"
            ],
            "autoStart": false,
            "sourceChordNote": 0,
            "sourceChordType": "Maj",
            "ctb2Low": null,
            "ctb2Main": {
              "ntr": "ROOT_TRANSPOSITION",
              "ntt": "BYPASS",
              "bassOn": false,
              "chordRootUpperLimit": 7,
              "noteLowLimit": 0,
              "noteHighLimit": 127,
              "rtr": "PITCH_SHIFT"
            },
            "ctb2High": null
          },
          "notes": [
            {
              "pitch": 55,
              "velocity": 78,
              "position": 0,
              "duration": 0.20833333333333334
            },
            {
              "pitch": 59,
              "velocity": 78,
              "position": 0,
              "duration": 0.20833333333333334
            },
            {
              "pitch": 60,
              "velocity": 78,
              "position": 0,
              "duration": 0.20833333333333334
            },
            {
              "pitch": 64,
              "velocity": 78,
              "position": 0,
              "duration": 0.20833333333333334
            },
            {
              "pitch": 55,
              "velocity": 78,
              "position": 0.5,
              "duration": 0.20833333333333334
            },
            {
              "pitch": 59,
              "velocity": 78,
              "position": 0.5,
              "duration": 0.20833333333333334
            },
            {
              "pitch": 60,
              "velocity": 78,
              "position": 0.5,
              "duration": 0.20833333333333334
            },
            {
              "pitch": 64,
              "velocity": 78,
              "position": 0.5,
              "duration": 0.20833333333333334
            },
            {
              "pitch": 55,
              "velocity": 78,
              "position": 1,
              "duration": 0.20833333333333334
            },
            {
              "pitch": 59,
              "velocity": 78,
              "position": 1,
              "duration": 0.20833333333333334
            },
            {
              "pitch": 60,
              "velocity": 78,
              "position": 1,
              "duration": 0.20833333333333334
            },
            {
              "pitch": 64,
              "velocity": 78,
              "position": 1,
              "duration": 0.20833333333333334
            },
            {
              "pitch": 55,
              "velocity": 78,
              "position": 1.5,
              "duration": 0.20833333333333334
            },
            {
              "pitch": 59,
              "velocity": 78,
              "position": 1.5,
              "duration": 0.20833333333333334
            },
            {
              "pitch": 60,
              "velocity": 78,
              "position": 1.5,
              "duration": 0.20833333333333334
            },
            {
              "pitch": 64,
              "velocity": 78,
              "position": 1.5,
              "duration": 0.20833333333333334
            },
            {
              "pitch": 57,
              "velocity": 78,
              "position": 2,
              "duration": 0.20833333333333334
            },
            {
              "pitch": 60,
              "velocity": 78,
              "position": 2,
              "duration": 0.20833333333333334
            },
            {
              "pitch": 62,
              "velocity": 78,
              "position": 2,
              "duration": 0.20833333333333334
            },
            {
              "pitch": 65,
              "velocity": 78,
              "position": 2,
              "duration": 0.20833333333333334
            },
            {
              "pitch": 57,
              "velocity": 78,
              "position": 2.5,
              "duration": 0.20833333333333334
            },
            {
              "pitch": 60,
              "velocity": 78,
              "position": 2.5,
              "duration": 0.20833333333333334
            },
            {
              "pitch": 62,
              "velocity": 78,
              "position": 2.5,
              "duration": 0.20833333333333334
            },
            {
              "pitch": 65,
              "velocity": 78,
              "position": 2.5,
              "duration": 0.20833333333333334
            },
            {
              "pitch": 57,
              "velocity": 78,
              "position": 3,
              "duration": 0.20833333333333334
            },
            {
              "pitch": 60,
              "velocity": 78,
              "position": 3,
              "duration": 0.20833333333333334
            },
            {
              "pitch": 62,
              "velocity": 78,
              "position": 3,
              "duration": 0.20833333333333334
            },
            {
              "pitch": 65,
              "velocity": 78,
              "position": 3,
              "duration": 0.20833333333333334
            },
            {
              "pitch": 57,
              "velocity": 78,
              "position": 3.5,
              "duration": 0.20833333333333334
            },
            {
              "pitch": 60,
              "velocity": 78,
              "position": 3.5,
              "duration": 0.20833333333333334
            },
            {
              "pitch": 62,
              "velocity": 78,
              "position": 3.5,
              "duration": 0.20833333333333334
            },
            {
              "pitch": 65,
              "velocity": 78,
              "position": 3.5,
              "duration": 0.20833333333333334
            },
            {
              "pitch": 56,
              "velocity": 78,
              "position": 4,
              "duration": 0.20833333333333334
            },
            {
              "pitch": 60,
              "velocity": 78,
              "position": 4,
              "duration": 0.20833333333333334
            },
            {
              "pitch": 62,
              "velocity": 78,
              "position": 4,
              "duration": 0.20833333333333334
            },
            {
              "pitch": 65,
              "velocity": 78,
              "position": 4,
              "duration": 0.20833333333333334
            },
            {
              "pitch": 56,
              "velocity": 78,
              "position": 4.5,
              "duration": 0.20833333333333334
            },
            {
              "pitch": 60,
              "velocity": 78,
              "position": 4.5,
              "duration": 0.20833333333333334
            },
            {
              "pitch": 62,
              "velocity": 78,
              "position": 4.5,
              "duration": 0.20833333333333334
            },
            {
              "pitch": 65,
              "velocity": 78,
              "position": 4.5,
              "duration": 0.20833333333333334
            },
            {
              "pitch": 56,
              "velocity": 78,
              "position": 5,
              "duration": 0.20833333333333334
            },
            {
              "pitch": 60,
              "velocity": 78,
              "position": 5,
              "duration": 0.20833333333333334
            },
            {
              "pitch": 62,
              "velocity": 78,
              "position": 5,
              "duration": 0.20833333333333334
            },
            {
              "pitch": 65,
              "velocity": 78,
              "position": 5,
              "duration": 0.20833333333333334
            },
            {
              "pitch": 56,
              "velocity": 78,
              "position": 5.5,
              "duration": 0.20833333333333334
            },
            {
              "pitch": 60,
              "velocity": 78,
              "position": 5.5,
              "duration": 0.20833333333333334
            },
            {
              "pitch": 62,
              "velocity": 78,
              "position": 5.5,
              "duration": 0.20833333333333334
            },
            {
              "pitch": 65,
              "velocity": 78,
              "position": 5.5,
              "duration": 0.20833333333333334
            },
            {
              "pitch": 55,
              "velocity": 82,
              "position": 6.5,
              "duration": 0.20833333333333334
            },
            {
              "pitch": 59,
              "velocity": 82,
              "position": 6.5,
              "duration": 0.20833333333333334
            },
            {
              "pitch": 60,
              "velocity": 82,
              "position": 6.5,
              "duration": 0.20833333333333334
            },
            {
              "pitch": 64,
              "velocity": 82,
              "position": 6.5,
              "duration": 0.20833333333333334
            },
            {
              "pitch": 55,
              "velocity": 82,
              "position": 7,
              "duration": 0.20833333333333334
            },
            {
              "pitch": 59,
              "velocity": 82,
              "position": 7,
              "duration": 0.20833333333333334
            },
            {
              "pitch": 60,
              "velocity": 82,
              "position": 7,
              "duration": 0.20833333333333334
            },
            {
              "pitch": 64,
              "velocity": 82,
              "position": 7,
              "duration": 0.20833333333333334
            }
          ]
        },
        "4": {
          "ctab": {
            "srcChannel": 4,
            "name": "JzGtrRoo",
            "accType": "CHORD2",
            "editable": false,
            "mutedNotes": [],
            "mutedChords": [
              "1+5",
              "1+8",
              "dim7",
              "dim",
              "minMaj7(9)",
              "minMaj7",
              "min7(11)",
              "min7(9)",
              "min(9)",
              "m7b5",
              "min7",
              "min6",
              "min"
            ],
            "autoStart": false,
            "sourceChordNote": 0,
            "sourceChordType": "Maj",
            "ctb2Low": null,
            "ctb2Main": {
              "ntr": "ROOT_TRANSPOSITION",
              "ntt": "BYPASS",
              "bassOn": false,
              "chordRootUpperLimit": 8,
              "noteLowLimit": 0,
              "noteHighLimit": 127,
              "rtr": "PITCH_SHIFT"
            },
            "ctb2High": null
          },
          "notes": [
            {
              "pitch": 60,
              "velocity": 75,
              "position": 0,
              "duration": 0.9270833333333334
            },
            {
              "pitch": 55,
              "velocity": 86,
              "position": 0.8125,
              "duration": 0.2604166666666667
            },
            {
              "pitch": 55,
              "velocity": 67,
              "position": 1.8125,
              "duration": 0.125
            },
            {
              "pitch": 67,
              "velocity": 89,
              "position": 2,
              "duration": 0.25416666666666665
            },
            {
              "pitch": 65,
              "velocity": 60,
              "position": 2.5,
              "duration": 0.28541666666666665
            },
            {
              "pitch": 64,
              "velocity": 58,
              "position": 2.8125,
              "duration": 0.16666666666666666
            },
            {
              "pitch": 60,
              "velocity": 56,
              "position": 3.8125,
              "duration": 0.12916666666666668
            },
            {
              "pitch": 62,
              "velocity": 86,
              "position": 4,
              "duration": 0.22916666666666666
            },
            {
              "pitch": 62,
              "velocity": 77,
              "position": 4.5,
              "duration": 0.2125
            },
            {
              "pitch": 62,
              "velocity": 77,
              "position": 5,
              "duration": 0.17708333333333334
            },
            {
              "pitch": 63,
              "velocity": 63,
              "position": 5.166666666666667,
              "duration": 0.16666666666666666
            },
            {
              "pitch": 62,
              "velocity": 77,
              "position": 5.333333333333333,
              "duration": 0.15625
            },
            {
              "pitch": 60,
              "velocity": 73,
              "position": 5.5,
              "duration": 0.19791666666666666
            },
            {
              "pitch": 55,
              "velocity": 77,
              "position": 6.5,
              "duration": 0.23958333333333334
            },
            {
              "pitch": 60,
              "velocity": 79,
              "position": 6.5,
              "duration": 0.2916666666666667
            },
            {
              "pitch": 60,
              "velocity": 75,
              "position": 7,
              "duration": 0.23958333333333334
            },
            {
              "pitch": 55,
              "velocity": 73,
              "position": 7,
              "duration": 0.29375
            }
          ]
        },
        "5": {
          "ctab": {
            "srcChannel": 5,
            "name": "Str Root",
            "accType": "PAD",
            "editable": false,
            "mutedNotes": [],
            "mutedChords": [
              "1+5",
              "1+8",
              "dim7",
              "dim",
              "minMaj7(9)",
              "minMaj7",
              "min7(11)",
              "min7(9)",
              "min(9)",
              "m7b5",
              "min7",
              "min6",
              "min"
            ],
            "autoStart": false,
            "sourceChordNote": 0,
            "sourceChordType": "Maj",
            "ctb2Low": null,
            "ctb2Main": {
              "ntr": "ROOT_TRANSPOSITION",
              "ntt": "BYPASS",
              "bassOn": false,
              "chordRootUpperLimit": 10,
              "noteLowLimit": 53,
              "noteHighLimit": 64,
              "rtr": "PITCH_SHIFT"
            },
            "ctb2High": null
          },
          "notes": [
            {
              "pitch": 55,
              "velocity": 39,
              "position": 0,
              "duration": 1.9895833333333333
            },
            {
              "pitch": 59,
              "velocity": 39,
              "position": 0,
              "duration": 1.9895833333333333
            },
            {
              "pitch": 60,
              "velocity": 39,
              "position": 0,
              "duration": 1.9895833333333333
            },
            {
              "pitch": 64,
              "velocity": 39,
              "position": 0,
              "duration": 1.9895833333333333
            },
            {
              "pitch": 57,
              "velocity": 39,
              "position": 2,
              "duration": 1.9895833333333333
            },
            {
              "pitch": 56,
              "velocity": 39,
              "position": 4,
              "duration": 1.9895833333333333
            },
            {
              "pitch": 60,
              "velocity": 39,
              "position": 2,
              "duration": 3.9895833333333335
            },
            {
              "pitch": 62,
              "velocity": 39,
              "position": 2,
              "duration": 3.9895833333333335
            },
            {
              "pitch": 65,
              "velocity": 39,
              "position": 2,
              "duration": 3.9895833333333335
            }
          ]
        },
        "6": {
          "ctab": {
            "srcChannel": 6,
            "name": "SteelMsw",
            "accType": "PHRASE1",
            "editable": false,
            "mutedNotes": [],
            "mutedChords": [
              "1+5",
              "1+8",
              "dim7",
              "dim",
              "minMaj7(9)",
              "minMaj7",
              "min7(11)",
              "min7(9)",
              "min(9)",
              "m7b5",
              "min7",
              "min6",
              "min"
            ],
            "autoStart": false,
            "sourceChordNote": 0,
            "sourceChordType": "Maj",
            "ctb2Low": null,
            "ctb2Main": {
              "ntr": "ROOT_FIXED",
              "ntt": "BYPASS",
              "bassOn": false,
              "chordRootUpperLimit": 7,
              "noteLowLimit": 0,
              "noteHighLimit": 127,
              "rtr": "PITCH_SHIFT"
            },
            "ctb2High": null
          },
          "notes": [
            {
              "pitch": 110,
              "velocity": 73,
              "position": 0,
              "duration": 0.23958333333333334
            },
            {
              "pitch": 111,
              "velocity": 73,
              "position": 0.2916666666666667,
              "duration": 0.17708333333333334
            },
            {
              "pitch": 110,
              "velocity": 73,
              "position": 0.5,
              "duration": 0.23958333333333334
            },
            {
              "pitch": 111,
              "velocity": 73,
              "position": 0.7916666666666666,
              "duration": 0.17708333333333334
            },
            {
              "pitch": 110,
              "velocity": 73,
              "position": 1,
              "duration": 0.23958333333333334
            },
            {
              "pitch": 111,
              "velocity": 73,
              "position": 1.2916666666666667,
              "duration": 0.17708333333333334
            },
            {
              "pitch": 110,
              "velocity": 73,
              "position": 1.5,
              "duration": 0.23958333333333334
            },
            {
              "pitch": 111,
              "velocity": 73,
              "position": 1.7916666666666667,
              "duration": 0.17708333333333334
            },
            {
              "pitch": 110,
              "velocity": 73,
              "position": 4,
              "duration": 0.23958333333333334
            },
            {
              "pitch": 111,
              "velocity": 73,
              "position": 4.291666666666667,
              "duration": 0.17708333333333334
            },
            {
              "pitch": 110,
              "velocity": 73,
              "position": 4.5,
              "duration": 0.23958333333333334
            },
            {
              "pitch": 111,
              "velocity": 73,
              "position": 4.791666666666667,
              "duration": 0.17708333333333334
            },
            {
              "pitch": 110,
              "velocity": 73,
              "position": 5,
              "duration": 0.23958333333333334
            },
            {
              "pitch": 111,
              "velocity": 73,
              "position": 5.291666666666667,
              "duration": 0.17708333333333334
            },
            {
              "pitch": 110,
              "velocity": 73,
              "position": 5.5,
              "duration": 0.23958333333333334
            },
            {
              "pitch": 111,
              "velocity": 73,
              "position": 5.791666666666667,
              "duration": 0.17708333333333334
            }
          ]
        },
        "7": {
          "ctab": {
            "srcChannel": 7,
            "name": "Flute",
            "accType": "PHRASE2",
            "editable": false,
            "mutedNotes": [],
            "mutedChords": [
              "1+5",
              "1+8",
              "dim7",
              "dim",
              "minMaj7(9)",
              "minMaj7",
              "min7(11)",
              "min7(9)",
              "min(9)",
              "m7b5",
              "min7",
              "min6",
              "min"
            ],
            "autoStart": false,
            "sourceChordNote": 0,
            "sourceChordType": "Maj",
            "ctb2Low": null,
            "ctb2Main": {
              "ntr": "ROOT_TRANSPOSITION",
              "ntt": "BYPASS",
              "bassOn": false,
              "chordRootUpperLimit": 8,
              "noteLowLimit": 0,
              "noteHighLimit": 127,
              "rtr": "PITCH_SHIFT"
            },
            "ctb2High": null
          },
          "notes": []
        },
        "8": {
          "ctab": {
            "srcChannel": 8,
            "name": "Perc",
            "accType": "SUBRHYTHM",
            "editable": false,
            "mutedNotes": [],
            "mutedChords": [],
            "autoStart": true,
            "sourceChordNote": 0,
            "sourceChordType": "Maj7",
            "ctb2Low": null,
            "ctb2Main": {
              "ntr": "ROOT_FIXED",
              "ntt": "BYPASS",
              "bassOn": false,
              "chordRootUpperLimit": 6,
              "noteLowLimit": 0,
              "noteHighLimit": 127,
              "rtr": "PITCH_SHIFT"
            },
            "ctb2High": null
          },
          "notes": [
            {
              "pitch": 49,
              "velocity": 54,
              "position": 0,
              "duration": 0.010416666666666666
            },
            {
              "pitch": 56,
              "velocity": 50,
              "position": 0,
              "duration": 0.010416666666666666
            },
            {
              "pitch": 69,
              "velocity": 53,
              "position": 0,
              "duration": 0.010416666666666666
            },
            {
              "pitch": 81,
              "velocity": 30,
              "position": 0,
              "duration": 0.010416666666666666
            },
            {
              "pitch": 82,
              "velocity": 70,
              "position": 0,
              "duration": 0.010416666666666666
            },
            {
              "pitch": 42,
              "velocity": 44,
              "position": 0.5,
              "duration": 0.010416666666666666
            },
            {
              "pitch": 69,
              "velocity": 53,
              "position": 0.5,
              "duration": 0.010416666666666666
            },
            {
              "pitch": 80,
              "velocity": 35,
              "position": 0.5,
              "duration": 0.010416666666666666
            },
            {
              "pitch": 82,
              "velocity": 70,
              "position": 0.5,
              "duration": 0.010416666666666666
            },
            {
              "pitch": 46,
              "velocity": 45,
              "position": 0.7916666666666666,
              "duration": 0.010416666666666666
            },
            {
              "pitch": 80,
              "velocity": 35,
              "position": 0.8125,
              "duration": 0.010416666666666666
            },
            {
              "pitch": 42,
              "velocity": 31,
              "position": 1,
              "duration": 0.010416666666666666
            },
            {
              "pitch": 54,
              "velocity": 54,
              "position": 1,
              "duration": 0.010416666666666666
            },
            {
              "pitch": 56,
              "velocity": 50,
              "position": 1,
              "duration": 0.010416666666666666
            },
            {
              "pitch": 81,
              "velocity": 30,
              "position": 1,
              "duration": 0.010416666666666666
            },
            {
              "pitch": 82,
              "velocity": 70,
              "position": 1,
              "duration": 0.010416666666666666
            },
            {
              "pitch": 80,
              "velocity": 35,
              "position": 1.5,
              "duration": 0.010416666666666666
            },
            {
              "pitch": 82,
              "velocity": 70,
              "position": 1.5,
              "duration": 0.010416666666666666
            },
            {
              "pitch": 80,
              "velocity": 35,
              "position": 1.8125,
              "duration": 0.010416666666666666
            },
            {
              "pitch": 56,
              "velocity": 50,
              "position": 2,
              "duration": 0.010416666666666666
            },
            {
              "pitch": 81,
              "velocity": 30,
              "position": 2,
              "duration": 0.010416666666666666
            },
            {
              "pitch": 82,
              "velocity": 70,
              "position": 2,
              "duration": 0.010416666666666666
            },
            {
              "pitch": 80,
              "velocity": 35,
              "position": 2.5,
              "duration": 0.010416666666666666
            },
            {
              "pitch": 82,
              "velocity": 70,
              "position": 2.5,
              "duration": 0.010416666666666666
            },
            {
              "pitch": 46,
              "velocity": 45,
              "position": 2.7916666666666665,
              "duration": 0.010416666666666666
            },
            {
              "pitch": 80,
              "velocity": 35,
              "position": 2.8125,
              "duration": 0.010416666666666666
            },
            {
              "pitch": 54,
              "velocity": 58,
              "position": 3,
              "duration": 0.010416666666666666
            },
            {
              "pitch": 56,
              "velocity": 50,
              "position": 3,
              "duration": 0.010416666666666666
            },
            {
              "pitch": 69,
              "velocity": 51,
              "position": 3,
              "duration": 0.010416666666666666
            },
            {
              "pitch": 81,
              "velocity": 30,
              "position": 3,
              "duration": 0.010416666666666666
            },
            {
              "pitch": 82,
              "velocity": 70,
              "position": 3,
              "duration": 0.010416666666666666
            },
            {
              "pitch": 69,
              "velocity": 49,
              "position": 3.5,
              "duration": 0.010416666666666666
            },
            {
              "pitch": 80,
              "velocity": 35,
              "position": 3.5,
              "duration": 0.010416666666666666
            },
            {
              "pitch": 82,
              "velocity": 70,
              "position": 3.5,
              "duration": 0.010416666666666666
            },
            {
              "pitch": 42,
              "velocity": 57,
              "position": 3.7916666666666665,
              "duration": 0.010416666666666666
            },
            {
              "pitch": 69,
              "velocity": 50,
              "position": 3.7916666666666665,
              "duration": 0.010416666666666666
            },
            {
              "pitch": 80,
              "velocity": 35,
              "position": 3.8125,
              "duration": 0.010416666666666666
            },
            {
              "pitch": 42,
              "velocity": 71,
              "position": 4,
              "duration": 0.010416666666666666
            },
            {
              "pitch": 56,
              "velocity": 50,
              "position": 4,
              "duration": 0.010416666666666666
            },
            {
              "pitch": 69,
              "velocity": 53,
              "position": 4,
              "duration": 0.010416666666666666
            },
            {
              "pitch": 81,
              "velocity": 30,
              "position": 4,
              "duration": 0.010416666666666666
            },
            {
              "pitch": 82,
              "velocity": 70,
              "position": 4,
              "duration": 0.010416666666666666
            },
            {
              "pitch": 42,
              "velocity": 71,
              "position": 4.5,
              "duration": 0.010416666666666666
            },
            {
              "pitch": 56,
              "velocity": 50,
              "position": 4.5,
              "duration": 0.010416666666666666
            },
            {
              "pitch": 69,
              "velocity": 53,
              "position": 4.5,
              "duration": 0.010416666666666666
            },
            {
              "pitch": 80,
              "velocity": 35,
              "position": 4.5,
              "duration": 0.010416666666666666
            },
            {
              "pitch": 82,
              "velocity": 70,
              "position": 4.5,
              "duration": 0.010416666666666666
            },
            {
              "pitch": 55,
              "velocity": 54,
              "position": 4.791666666666667,
              "duration": 0.010416666666666666
            },
            {
              "pitch": 80,
              "velocity": 35,
              "position": 4.8125,
              "duration": 0.010416666666666666
            },
            {
              "pitch": 54,
              "velocity": 58,
              "position": 5,
              "duration": 0.010416666666666666
            },
            {
              "pitch": 81,
              "velocity": 30,
              "position": 5,
              "duration": 0.010416666666666666
            },
            {
              "pitch": 82,
              "velocity": 70,
              "position": 5,
              "duration": 0.010416666666666666
            },
            {
              "pitch": 80,
              "velocity": 35,
              "position": 5.5,
              "duration": 0.010416666666666666
            },
            {
              "pitch": 82,
              "velocity": 70,
              "position": 5.5,
              "duration": 0.010416666666666666
            },
            {
              "pitch": 80,
              "velocity": 35,
              "position": 5.8125,
              "duration": 0.010416666666666666
            },
            {
              "pitch": 82,
              "velocity": 70,
              "position": 6,
              "duration": 0.010416666666666666
            },
            {
              "pitch": 46,
              "velocity": 45,
              "position": 6.5,
              "duration": 0.010416666666666666
            },
            {
              "pitch": 56,
              "velocity": 50,
              "position": 6.5,
              "duration": 0.010416666666666666
            },
            {
              "pitch": 82,
              "velocity": 70,
              "position": 6.5,
              "duration": 0.010416666666666666
            },
            {
              "pitch": 42,
              "velocity": 1,
              "position": 6.75,
              "duration": 0.010416666666666666
            },
            {
              "pitch": 46,
              "velocity": 45,
              "position": 7,
              "duration": 0.010416666666666666
            },
            {
              "pitch": 56,
              "velocity": 50,
              "position": 7,
              "duration": 0.010416666666666666
            },
            {
              "pitch": 69,
              "velocity": 47,
              "position": 7,
              "duration": 0.010416666666666666
            },
            {
              "pitch": 82,
              "velocity": 70,
              "position": 7,
              "duration": 0.010416666666666666
            },
            {
              "pitch": 42,
              "velocity": 1,
              "position": 7.25,
              "duration": 0.010416666666666666
            }
          ]
        },
        "9": {
          "ctab": {
            "srcChannel": 9,
            "name": "Drums",
            "accType": "RHYTHM",
            "editable": false,
            "mutedNotes": [],
            "mutedChords": [],
            "autoStart": true,
            "sourceChordNote": 0,
            "sourceChordType": "Maj7",
            "ctb2Low": null,
            "ctb2Main": {
              "ntr": "ROOT_FIXED",
              "ntt": "BYPASS",
              "bassOn": false,
              "chordRootUpperLimit": 6,
              "noteLowLimit": 0,
              "noteHighLimit": 127,
              "rtr": "PITCH_SHIFT"
            },
            "ctb2High": null
          },
          "notes": [
            {
              "pitch": 36,
              "velocity": 76,
              "position": 0,
              "duration": 0.010416666666666666
            },
            {
              "pitch": 44,
              "velocity": 63,
              "position": 0,
              "duration": 0.010416666666666666
            },
            {
              "pitch": 34,
              "velocity": 60,
              "position": 0.7916666666666666,
              "duration": 0.010416666666666666
            },
            {
              "pitch": 39,
              "velocity": 72,
              "position": 0.7916666666666666,
              "duration": 0.010416666666666666
            },
            {
              "pitch": 44,
              "velocity": 53,
              "position": 0.7916666666666666,
              "duration": 0.010416666666666666
            },
            {
              "pitch": 34,
              "velocity": 60,
              "position": 1.5,
              "duration": 0.010416666666666666
            },
            {
              "pitch": 39,
              "velocity": 72,
              "position": 1.5,
              "duration": 0.010416666666666666
            },
            {
              "pitch": 36,
              "velocity": 79,
              "position": 2,
              "duration": 0.010416666666666666
            },
            {
              "pitch": 79,
              "velocity": 48,
              "position": 1.7916666666666667,
              "duration": 0.23958333333333334
            },
            {
              "pitch": 78,
              "velocity": 35,
              "position": 2,
              "duration": 0.23958333333333334
            },
            {
              "pitch": 42,
              "velocity": 55,
              "position": 2.5,
              "duration": 0.010416666666666666
            },
            {
              "pitch": 79,
              "velocity": 48,
              "position": 2.2916666666666665,
              "duration": 0.23958333333333334
            },
            {
              "pitch": 34,
              "velocity": 11,
              "position": 2.5416666666666665,
              "duration": 0.010416666666666666
            },
            {
              "pitch": 34,
              "velocity": 18,
              "position": 2.6041666666666665,
              "duration": 0.010416666666666666
            },
            {
              "pitch": 34,
              "velocity": 30,
              "position": 2.6666666666666665,
              "duration": 0.010416666666666666
            },
            {
              "pitch": 34,
              "velocity": 41,
              "position": 2.7291666666666665,
              "duration": 0.010416666666666666
            },
            {
              "pitch": 78,
              "velocity": 35,
              "position": 2.5,
              "duration": 0.23958333333333334
            },
            {
              "pitch": 34,
              "velocity": 60,
              "position": 2.7916666666666665,
              "duration": 0.010416666666666666
            },
            {
              "pitch": 39,
              "velocity": 72,
              "position": 2.7916666666666665,
              "duration": 0.010416666666666666
            },
            {
              "pitch": 42,
              "velocity": 55,
              "position": 3.2916666666666665,
              "duration": 0.010416666666666666
            },
            {
              "pitch": 36,
              "velocity": 71,
              "position": 4,
              "duration": 0.010416666666666666
            },
            {
              "pitch": 44,
              "velocity": 54,
              "position": 4,
              "duration": 0.010416666666666666
            },
            {
              "pitch": 36,
              "velocity": 71,
              "position": 4.5,
              "duration": 0.010416666666666666
            },
            {
              "pitch": 34,
              "velocity": 60,
              "position": 4.791666666666667,
              "duration": 0.010416666666666666
            },
            {
              "pitch": 39,
              "velocity": 72,
              "position": 4.791666666666667,
              "duration": 0.010416666666666666
            },
            {
              "pitch": 44,
              "velocity": 54,
              "position": 4.791666666666667,
              "duration": 0.010416666666666666
            },
            {
              "pitch": 79,
              "velocity": 48,
              "position": 5.791666666666667,
              "duration": 0.23958333333333334
            },
            {
              "pitch": 78,
              "velocity": 35,
              "position": 6,
              "duration": 0.23958333333333334
            },
            {
              "pitch": 34,
              "velocity": 60,
              "position": 6.5,
              "duration": 0.010416666666666666
            },
            {
              "pitch": 39,
              "velocity": 72,
              "position": 6.5,
              "duration": 0.010416666666666666
            },
            {
              "pitch": 42,
              "velocity": 54,
              "position": 6.5,
              "duration": 0.010416666666666666
            },
            {
              "pitch": 79,
              "velocity": 48,
              "position": 6.291666666666667,
              "duration": 0.23958333333333334
            },
            {
              "pitch": 78,
              "velocity": 35,
              "position": 6.5,
              "duration": 0.23958333333333334
            },
            {
              "pitch": 34,
              "velocity": 60,
              "position": 7,
              "duration": 0.010416666666666666
            },
            {
              "pitch": 36,
              "velocity": 71,
              "position": 7,
              "duration": 0.010416666666666666
            },
            {
              "pitch": 39,
              "velocity": 72,
              "position": 7,
              "duration": 0.010416666666666666
            },
            {
              "pitch": 44,
              "velocity": 54,
              "position": 7,
              "duration": 0.010416666666666666
            },
            {
              "pitch": 79,
              "velocity": 48,
              "position": 7,
              "duration": 0.23958333333333334
            }
          ]
        },
        "10": {
          "ctab": {
            "srcChannel": 10,
            "name": "Bass",
            "accType": "BASS",
            "editable": false,
            "mutedNotes": [],
            "mutedChords": [
              "1+2+5",
              "sus4",
              "7aug",
              "Maj7aug",
              "7(#9)",
              "7(b13)",
              "7(b9)",
              "7(13)",
              "7#11",
              "7(9)",
              "7b5",
              "7sus4",
              "7th",
              "aug",
              "Maj6(9)",
              "Maj7(9)",
              "Maj(9)",
              "Maj7#11",
              "Maj7",
              "Maj6",
              "Maj"
            ],
            "autoStart": false,
            "sourceChordNote": 0,
            "sourceChordType": "min",
            "ctb2Low": null,
            "ctb2Main": {
              "ntr": "ROOT_TRANSPOSITION",
              "ntt": "BYPASS",
              "bassOn": false,
              "chordRootUpperLimit": 3,
              "noteLowLimit": 28,
              "noteHighLimit": 127,
              "rtr": "PITCH_SHIFT"
            },
            "ctb2High": null
          },
          "notes": [
            {
              "pitch": 36,
              "velocity": 95,
              "position": 0,
              "duration": 0.34375
            },
            {
              "pitch": 36,
              "velocity": 95,
              "position": 1.5,
              "duration": 0.4895833333333333
            },
            {
              "pitch": 34,
              "velocity": 95,
              "position": 2,
              "duration": 0.34375
            },
            {
              "pitch": 32,
              "velocity": 95,
              "position": 4,
              "duration": 0.41875
            },
            {
              "pitch": 32,
              "velocity": 95,
              "position": 4.791666666666667,
              "duration": 0.3958333333333333
            },
            {
              "pitch": 31,
              "velocity": 95,
              "position": 5.5,
              "duration": 0.35833333333333334
            },
            {
              "pitch": 36,
              "velocity": 95,
              "position": 6.5,
              "duration": 0.375
            },
            {
              "pitch": 36,
              "velocity": 95,
              "position": 7,
              "duration": 0.32708333333333334
            }
          ]
        },
        "11": {
          "ctab": {
            "srcChannel": 11,
            "name": "Ep",
            "accType": "CHORD1",
            "editable": false,
            "mutedNotes": [],
            "mutedChords": [
              "1+2+5",
              "sus4",
              "7aug",
              "Maj7aug",
              "7(#9)",
              "7(b13)",
              "7(b9)",
              "7(13)",
              "7#11",
              "7(9)",
              "7b5",
              "7sus4",
              "7th",
              "aug",
              "Maj6(9)",
              "Maj7(9)",
              "Maj(9)",
              "Maj7#11",
              "Maj7",
              "Maj6",
              "Maj"
            ],
            "autoStart": false,
            "sourceChordNote": 0,
            "sourceChordType": "min",
            "ctb2Low": null,
            "ctb2Main": {
              "ntr": "ROOT_TRANSPOSITION",
              "ntt": "BYPASS",
              "bassOn": false,
              "chordRootUpperLimit": 7,
              "noteLowLimit": 0,
              "noteHighLimit": 127,
              "rtr": "PITCH_SHIFT"
            },
            "ctb2High": null
          },
          "notes": [
            {
              "pitch": 58,
              "velocity": 82,
              "position": 0,
              "duration": 0.3229166666666667
            },
            {
              "pitch": 62,
              "velocity": 82,
              "position": 0,
              "duration": 0.3229166666666667
            },
            {
              "pitch": 63,
              "velocity": 82,
              "position": 0,
              "duration": 0.3229166666666667
            },
            {
              "pitch": 67,
              "velocity": 82,
              "position": 0,
              "duration": 0.3229166666666667
            },
            {
              "pitch": 58,
              "velocity": 82,
              "position": 1.5,
              "duration": 0.3229166666666667
            },
            {
              "pitch": 62,
              "velocity": 82,
              "position": 1.5,
              "duration": 0.3229166666666667
            },
            {
              "pitch": 63,
              "velocity": 82,
              "position": 1.5,
              "duration": 0.3229166666666667
            },
            {
              "pitch": 67,
              "velocity": 82,
              "position": 1.5,
              "duration": 0.3229166666666667
            },
            {
              "pitch": 58,
              "velocity": 82,
              "position": 2,
              "duration": 0.3229166666666667
            },
            {
              "pitch": 60,
              "velocity": 82,
              "position": 2,
              "duration": 0.3229166666666667
            },
            {
              "pitch": 62,
              "velocity": 82,
              "position": 2,
              "duration": 0.3229166666666667
            },
            {
              "pitch": 65,
              "velocity": 82,
              "position": 2,
              "duration": 0.3229166666666667
            },
            {
              "pitch": 56,
              "velocity": 82,
              "position": 4,
              "duration": 0.3229166666666667
            },
            {
              "pitch": 60,
              "velocity": 82,
              "position": 4,
              "duration": 0.3229166666666667
            },
            {
              "pitch": 63,
              "velocity": 82,
              "position": 4,
              "duration": 0.3229166666666667
            },
            {
              "pitch": 56,
              "velocity": 82,
              "position": 4.791666666666667,
              "duration": 0.3229166666666667
            },
            {
              "pitch": 60,
              "velocity": 82,
              "position": 4.791666666666667,
              "duration": 0.3229166666666667
            },
            {
              "pitch": 63,
              "velocity": 82,
              "position": 4.791666666666667,
              "duration": 0.3229166666666667
            },
            {
              "pitch": 53,
              "velocity": 74,
              "position": 5.291666666666667,
              "duration": 0.19791666666666666
            },
            {
              "pitch": 58,
              "velocity": 82,
              "position": 5.5,
              "duration": 0.28125
            },
            {
              "pitch": 62,
              "velocity": 82,
              "position": 5.5,
              "duration": 0.28125
            },
            {
              "pitch": 55,
              "velocity": 74,
              "position": 5.791666666666667,
              "duration": 0.07291666666666667
            },
            {
              "pitch": 51,
              "velocity": 82,
              "position": 6.5,
              "duration": 0.28125
            },
            {
              "pitch": 55,
              "velocity": 82,
              "position": 6.5,
              "duration": 0.28125
            },
            {
              "pitch": 58,
              "velocity": 82,
              "position": 6.5,
              "duration": 0.28125
            },
            {
              "pitch": 60,
              "velocity": 82,
              "position": 6.5,
              "duration": 0.28125
            },
            {
              "pitch": 51,
              "velocity": 82,
              "position": 7,
              "duration": 0.28125
            },
            {
              "pitch": 55,
              "velocity": 82,
              "position": 7,
              "duration": 0.28125
            },
            {
              "pitch": 58,
              "velocity": 82,
              "position": 7,
              "duration": 0.28125
            },
            {
              "pitch": 60,
              "velocity": 82,
              "position": 7,
              "duration": 0.28125
            }
          ]
        },
        "12": {
          "ctab": {
            "srcChannel": 12,
            "name": "JzGtr",
            "accType": "CHORD2",
            "editable": false,
            "mutedNotes": [],
            "mutedChords": [
              "1+2+5",
              "sus4",
              "7aug",
              "Maj7aug",
              "7(#9)",
              "7(b13)",
              "7(b9)",
              "7(13)",
              "7#11",
              "7(9)",
              "7b5",
              "7sus4",
              "7th",
              "aug",
              "Maj6(9)",
              "Maj7(9)",
              "Maj(9)",
              "Maj7#11",
              "Maj7",
              "Maj6",
              "Maj"
            ],
            "autoStart": false,
            "sourceChordNote": 0,
            "sourceChordType": "min",
            "ctb2Low": null,
            "ctb2Main": {
              "ntr": "ROOT_TRANSPOSITION",
              "ntt": "BYPASS",
              "bassOn": false,
              "chordRootUpperLimit": 8,
              "noteLowLimit": 0,
              "noteHighLimit": 127,
              "rtr": "PITCH_SHIFT"
            },
            "ctb2High": null
          },
          "notes": [
            {
              "pitch": 60,
              "velocity": 96,
              "position": 0,
              "duration": 0.8020833333333334
            },
            {
              "pitch": 63,
              "velocity": 100,
              "position": 0.8125,
              "duration": 0.20833333333333334
            },
            {
              "pitch": 60,
              "velocity": 52,
              "position": 1.8125,
              "duration": 0.15833333333333333
            },
            {
              "pitch": 65,
              "velocity": 86,
              "position": 2,
              "duration": 0.20208333333333334
            },
            {
              "pitch": 65,
              "velocity": 89,
              "position": 2.5,
              "duration": 0.2
            },
            {
              "pitch": 65,
              "velocity": 96,
              "position": 3,
              "duration": 0.3020833333333333
            },
            {
              "pitch": 63,
              "velocity": 59,
              "position": 3.3125,
              "duration": 0.14583333333333334
            },
            {
              "pitch": 60,
              "velocity": 71,
              "position": 3.5,
              "duration": 0.2625
            },
            {
              "pitch": 60,
              "velocity": 100,
              "position": 4,
              "duration": 0.8020833333333334
            },
            {
              "pitch": 63,
              "velocity": 81,
              "position": 4.8125,
              "duration": 0.17708333333333334
            },
            {
              "pitch": 60,
              "velocity": 109,
              "position": 6.5,
              "duration": 0.22916666666666666
            },
            {
              "pitch": 60,
              "velocity": 109,
              "position": 7,
              "duration": 0.18958333333333333
            }
          ]
        },
        "13": {
          "ctab": {
            "srcChannel": 13,
            "name": "Strings",
            "accType": "PAD",
            "editable": false,
            "mutedNotes": [],
            "mutedChords": [
              "1+2+5",
              "sus4",
              "7aug",
              "Maj7aug",
              "7(#9)",
              "7(b13)",
              "7(b9)",
              "7(13)",
              "7#11",
              "7(9)",
              "7b5",
              "7sus4",
              "7th",
              "aug",
              "Maj6(9)",
              "Maj7(9)",
              "Maj(9)",
              "Maj7#11",
              "Maj7",
              "Maj6",
              "Maj"
            ],
            "autoStart": false,
            "sourceChordNote": 0,
            "sourceChordType": "min",
            "ctb2Low": null,
            "ctb2Main": {
              "ntr": "ROOT_TRANSPOSITION",
              "ntt": "BYPASS",
              "bassOn": false,
              "chordRootUpperLimit": 10,
              "noteLowLimit": 53,
              "noteHighLimit": 64,
              "rtr": "PITCH_SHIFT"
            },
            "ctb2High": null
          },
          "notes": [
            {
              "pitch": 58,
              "velocity": 127,
              "position": 2.0104166666666665,
              "duration": 0.7729166666666667
            },
            {
              "pitch": 62,
              "velocity": 127,
              "position": 2.0104166666666665,
              "duration": 0.7729166666666667
            },
            {
              "pitch": 65,
              "velocity": 127,
              "position": 2.0104166666666665,
              "duration": 0.7729166666666667
            }
          ]
        },
        "14": {
          "ctab": {
            "srcChannel": 14,
            "name": "SteelMsw",
            "accType": "PHRASE1",
            "editable": false,
            "mutedNotes": [],
            "mutedChords": [
              "1+2+5",
              "sus4",
              "7aug",
              "Maj7aug",
              "7(#9)",
              "7(b13)",
              "7(b9)",
              "7(13)",
              "7#11",
              "7(9)",
              "7b5",
              "7sus4",
              "7th",
              "aug",
              "Maj6(9)",
              "Maj7(9)",
              "Maj(9)",
              "Maj7#11",
              "Maj7",
              "Maj6",
              "Maj"
            ],
            "autoStart": false,
            "sourceChordNote": 0,
            "sourceChordType": "min",
            "ctb2Low": null,
            "ctb2Main": {
              "ntr": "ROOT_FIXED",
              "ntt": "BYPASS",
              "bassOn": false,
              "chordRootUpperLimit": 7,
              "noteLowLimit": 0,
              "noteHighLimit": 127,
              "rtr": "PITCH_SHIFT"
            },
            "ctb2High": null
          },
          "notes": [
            {
              "pitch": 110,
              "velocity": 73,
              "position": 0,
              "duration": 0.23958333333333334
            },
            {
              "pitch": 111,
              "velocity": 73,
              "position": 0.2916666666666667,
              "duration": 0.17708333333333334
            },
            {
              "pitch": 110,
              "velocity": 73,
              "position": 0.5,
              "duration": 0.23958333333333334
            },
            {
              "pitch": 111,
              "velocity": 73,
              "position": 0.7916666666666666,
              "duration": 0.17708333333333334
            },
            {
              "pitch": 110,
              "velocity": 73,
              "position": 1,
              "duration": 0.23958333333333334
            },
            {
              "pitch": 111,
              "velocity": 73,
              "position": 1.2916666666666667,
              "duration": 0.17708333333333334
            },
            {
              "pitch": 110,
              "velocity": 73,
              "position": 1.5,
              "duration": 0.23958333333333334
            },
            {
              "pitch": 111,
              "velocity": 73,
              "position": 1.7916666666666667,
              "duration": 0.17708333333333334
            },
            {
              "pitch": 110,
              "velocity": 73,
              "position": 4,
              "duration": 0.23958333333333334
            },
            {
              "pitch": 111,
              "velocity": 73,
              "position": 4.291666666666667,
              "duration": 0.17708333333333334
            },
            {
              "pitch": 110,
              "velocity": 73,
              "position": 4.5,
              "duration": 0.23958333333333334
            },
            {
              "pitch": 111,
              "velocity": 73,
              "position": 4.791666666666667,
              "duration": 0.17708333333333334
            },
            {
              "pitch": 110,
              "velocity": 73,
              "position": 5,
              "duration": 0.23958333333333334
            },
            {
              "pitch": 111,
              "velocity": 73,
              "position": 5.291666666666667,
              "duration": 0.17708333333333334
            },
            {
              "pitch": 110,
              "velocity": 73,
              "position": 5.5,
              "duration": 0.23958333333333334
            },
            {
              "pitch": 111,
              "velocity": 73,
              "position": 5.791666666666667,
              "duration": 0.17708333333333334
            }
          ]
        },
        "15": {
          "ctab": {
            "srcChannel": 15,
            "name": "Flute",
            "accType": "PHRASE2",
            "editable": false,
            "mutedNotes": [],
            "mutedChords": [
              "1+2+5",
              "sus4",
              "7aug",
              "Maj7aug",
              "7(#9)",
              "7(b13)",
              "7(b9)",
              "7(13)",
              "7#11",
              "7(9)",
              "7b5",
              "7sus4",
              "7th",
              "aug",
              "Maj6(9)",
              "Maj7(9)",
              "Maj(9)",
              "Maj7#11",
              "Maj7",
              "Maj6",
              "Maj"
            ],
            "autoStart": false,
            "sourceChordNote": 0,
            "sourceChordType": "min",
            "ctb2Low": null,
            "ctb2Main": {
              "ntr": "ROOT_TRANSPOSITION",
              "ntt": "BYPASS",
              "bassOn": false,
              "chordRootUpperLimit": 8,
              "noteLowLimit": 0,
              "noteHighLimit": 127,
              "rtr": "PITCH_SHIFT"
            },
            "ctb2High": null
          },
          "notes": [
            {
              "pitch": 79,
              "velocity": 35,
              "position": 2.0416666666666665,
              "duration": 0.7708333333333334
            },
            {
              "pitch": 77,
              "velocity": 53,
              "position": 2.8229166666666665,
              "duration": 0.0625
            },
            {
              "pitch": 75,
              "velocity": 51,
              "position": 2.8958333333333335,
              "duration": 0.1375
            },
            {
              "pitch": 72,
              "velocity": 48,
              "position": 3.0541666666666667,
              "duration": 0.09375
            }
          ]
        }
      }
    }
  }
}