{
  "name": "RetroPop.S502.prs",
  "tempo": 128,
  "timeSignature": "4/4",
  "ticksPerQuarter": 1920,
  "sffType": "SFF1",
  "division": "BINARY",
  "parts": {
    "Main_A": {
      "type": "Main_A",
      "sizeInBeats": 8,
      "channels": {
        "1": {
          "ctab": {
            "srcChannel": 1,
            "name": "CC_Crash",
            "accType": "RHYTHM",
            "editable": false,
            "mutedNotes": [],
            "mutedChords": [
              "1+2+5",
              "sus4",
              "1+5",
              "1+8",
              "7aug",
              "Maj7aug",
              "7(#9)",
              "7(b13)",
              "7(b9)",
              "7(13)",
              "7#11",
              "7(9)",
              "7b5",
              "7sus4",
              "7th",
              "dim7",
              "dim",
              "minMaj7(9)",
              "minMaj7",
              "min7(11)",
              "min7(9)",
              "min(9)",
              "m7b5",
              "min7",
              "min6",
              "min",
              "aug",
              "Maj6(9)",
              "Maj7(9)",
              "Maj(9)",
              "Maj7#11",
              "Maj7",
              "Maj6",
              "Maj"
            ],
            "autoStart": true,
            "sourceChordNote": 0,
            "sourceChordType": "Maj",
            "ctb2Low": null,
            "ctb2Main": {
              "ntr": "ROOT_FIXED",
              "ntt": "BYPASS",
              "bassOn": false,
              "chordRootUpperLimit": 0,
              "noteLowLimit": 0,
              "noteHighLimit": 127,
              "rtr": "RETRIGGER"
            },
            "ctb2High": null
          },
          "notes": []
        },
        "5": {
          "ctab": {
            "srcChannel": 5,
            "name": "PadRoot",
            "accType": "PAD",
            "editable": false,
            "mutedNotes": [],
            "mutedChords": [
              "1+2+5",
              "sus4",
              "1+5",
              "1+8",
              "Maj7aug",
              "dim",
              "minMaj7(9)",
              "minMaj7",
              "min6",
              "min",
              "aug",
              "Maj7(9)",
              "Maj7#11",
              "Maj7",
              "Maj6",
              "Maj"
            ],
            "autoStart": false,
            "sourceChordNote": 0,
            "sourceChordType": "Maj7",
            "ctb2Low": null,
            "ctb2Main": {
              "ntr": "ROOT_TRANSPOSITION",
              "ntt": "MELODY",
              "bassOn": false,
              "chordRootUpperLimit": 6,
              "noteLowLimit": 0,
              "noteHighLimit": 127,
              "rtr": "PITCH_SHIFT"
            },
            "ctb2High": null
          },
          "notes": []
        },
        "6": {
          "ctab": {
            "srcChannel": 6,
            "name": "EpRoot",
            "accType": "PHRASE1",
            "editable": false,
            "mutedNotes": [],
            "mutedChords": [
              "1+2+5",
              "sus4",
              "1+5",
              "1+8",
              "Maj7aug",
              "dim",
              "minMaj7(9)",
              "minMaj7",
              "min6",
              "min",
              "aug",
              "Maj7(9)",
              "Maj7#11",
              "Maj7",
              "Maj6",
              "Maj"
            ],
            "autoStart": false,
            "sourceChordNote": 0,
            "sourceChordType": "Maj7",
            "ctb2Low": null,
            "ctb2Main": {
              "ntr": "ROOT_TRANSPOSITION",
              "ntt": "MELODY",
              "bassOn": false,
              "chordRootUpperLimit": 6,
              "noteLowLimit": 0,
              "noteHighLimit": 127,
              "rtr": "PITCH_SHIFT"
            },
            "ctb2High": null
          },
          "notes": []
        },
        "8": {
          "ctab": {
            "srcChannel": 8,
            "name": "Perc",
            "accType": "SUBRHYTHM",
            "editable": false,
            "mutedNotes": [],
            "mutedChords": [],
            "autoStart": true,
            "sourceChordNote": 0,
            "sourceChordType": "Maj7",
            "ctb2Low": null,
            "ctb2Main": {
              "ntr": "ROOT_FIXED",
              "ntt": "BYPASS",
              "bassOn": false,
              "chordRootUpperLimit": 6,
              "noteLowLimit": 0,
              "noteHighLimit": 127,
              "rtr": "PITCH_SHIFT"
            },
            "ctb2High": null
          },
          "notes": []
        },
        "9": {
          "ctab": {
            "srcChannel": 9,
            "name": "Drum",
            "accType": "RHYTHM",
            "editable": false,
            "mutedNotes": [],
            "mutedChords": [],
            "autoStart": true,
            "sourceChordNote": 0,
            "sourceChordType": "Maj7",
            "ctb2Low": null,
            "ctb2Main": {
              "ntr": "ROOT_FIXED",
              "ntt": "BYPASS",
              "bassOn": false,
              "chordRootUpperLimit": 6,
              "noteLowLimit": 0,
              "noteHighLimit": 127,
              "rtr": "PITCH_SHIFT"
            },
            "ctb2High": null
          },
          "notes": [
            {
              "pitch": 33,
              "velocity": 95,
              "position": 0,
              "duration": 0.010416666666666666
            },
            {
              "pitch": 42,
              "velocity": 98,
              "position": 0,
              "duration": 0.010416666666666666
            },
            {
              "pitch": 70,
              "velocity": 90,
              "position": 0,
              "duration": 0.010416666666666666
            },
            {
              "pitch": 42,
              "velocity": 54,
              "position": 0.5,
              "duration": 0.010416666666666666
            },
            {
              "pitch": 70,
              "velocity": 46,
              "position": 0.5,
              "duration": 0.010416666666666666
            },
            {
              "pitch": 33,
              "velocity": 95,
              "position": 1,
              "duration": 0.010416666666666666
            },
            {
              "pitch": 42,
              "velocity": 95,
              "position": 1,
              "duration": 0.010416666666666666
            },
            {
              "pitch": 70,
              "velocity": 87,
              "position": 1,
              "duration": 0.010416666666666666
            },
            {
              "pitch": 39,
              "velocity": 90,
              "position": 1.0208333333333333,
              "duration": 0.052083333333333336
            },
            {
              "pitch": 42,
              "velocity": 52,
              "position": 1.5,
              "duration": 0.010416666666666666
            },
            {
              "pitch": 70,
              "velocity": 44,
              "position": 1.5,
              "duration": 0.010416666666666666
            },
            {
              "pitch": 33,
              "velocity": 95,
              "position": 2,
              "duration": 0.010416666666666666
            },
            {
              "pitch": 42,
              "velocity": 98,
              "position": 2,
              "duration": 0.010416666666666666
            },
            {
              "pitch": 70,
              "velocity": 90,
              "position": 2,
              "duration": 0.010416666666666666
            },
            {
              "pitch": 42,
              "velocity": 54,
              "position": 2.5,
              "duration": 0.010416666666666666
            },
            {
              "pitch": 70,
              "velocity": 46,
              "position": 2.5,
              "duration": 0.010416666666666666
            },
            {
              "pitch": 33,
              "velocity": 95,
              "position": 3,
              "duration": 0.010416666666666666
            },
            {
              "pitch": 42,
              "velocity": 95,
              "position": 3,
              "duration": 0.010416666666666666
            },
            {
              "pitch": 70,
              "velocity": 87,
              "position": 3,
              "duration": 0.010416666666666666
            },
            {
              "pitch": 39,
              "velocity": 90,
              "position": 3.0208333333333335,
              "duration": 0.052083333333333336
            },
            {
              "pitch": 42,
              "velocity": 53,
              "position": 3.5,
              "duration": 0.010416666666666666
            },
            {
              "pitch": 70,
              "velocity": 44,
              "position": 3.5,
              "duration": 0.010416666666666666
            },
            {
              "pitch": 33,
              "velocity": 95,
              "position": 4,
              "duration": 0.010416666666666666
            },
            {
              "pitch": 42,
              "velocity": 98,
              "position": 4,
              "duration": 0.010416666666666666
            },
            {
              "pitch": 70,
              "velocity": 90,
              "position": 4,
              "duration": 0.010416666666666666
            },
            {
              "pitch": 42,
              "velocity": 53,
              "position": 4.5,
              "duration": 0.010416666666666666
            },
            {
              "pitch": 70,
              "velocity": 46,
              "position": 4.5,
              "duration": 0.010416666666666666
            },
            {
              "pitch": 33,
              "velocity": 95,
              "position": 5,
              "duration": 0.010416666666666666
            },
            {
              "pitch": 42,
              "velocity": 91,
              "position": 5,
              "duration": 0.010416666666666666
            },
            {
              "pitch": 70,
              "velocity": 87,
              "position": 5,
              "duration": 0.010416666666666666
            },
            {
              "pitch": 39,
              "velocity": 90,
              "position": 5.020833333333333,
              "duration": 0.052083333333333336
            },
            {
              "pitch": 42,
              "velocity": 51,
              "position": 5.5,
              "duration": 0.010416666666666666
            },
            {
              "pitch": 70,
              "velocity": 44,
              "position": 5.5,
              "duration": 0.010416666666666666
            },
            {
              "pitch": 33,
              "velocity": 95,
              "position": 6,
              "duration": 0.010416666666666666
            },
            {
              "pitch": 42,
              "velocity": 98,
              "position": 6,
              "duration": 0.010416666666666666
            },
            {
              "pitch": 70,
              "velocity": 90,
              "position": 6,
              "duration": 0.010416666666666666
            },
            {
              "pitch": 42,
              "velocity": 57,
              "position": 6.5,
              "duration": 0.010416666666666666
            },
            {
              "pitch": 70,
              "velocity": 46,
              "position": 6.5,
              "duration": 0.010416666666666666
            },
            {
              "pitch": 33,
              "velocity": 95,
              "position": 7,
              "duration": 0.010416666666666666
            },
            {
              "pitch": 42,
              "velocity": 95,
              "position": 7,
              "duration": 0.010416666666666666
            },
            {
              "pitch": 70,
              "velocity": 87,
              "position": 7,
              "duration": 0.010416666666666666
            },
            {
              "pitch": 39,
              "velocity": 90,
              "position": 7.020833333333333,
              "duration": 0.052083333333333336
            },
            {
              "pitch": 46,
              "velocity": 93,
              "position": 7.5,
              "duration": 0.010416666666666666
            },
            {
              "pitch": 70,
              "velocity": 44,
              "position": 7.5,
              "duration": 0.010416666666666666
            }
          ]
        },
        "10": {
          "ctab": {
            "srcChannel": 10,
            "name": "Bass",
            "accType": "BASS",
            "editable": false,
            "mutedNotes": [],
            "mutedChords": [],
            "autoStart": false,
            "sourceChordNote": 0,
            "sourceChordType": "Maj7",
            "ctb2Low": null,
            "ctb2Main": {
              "ntr": "ROOT_TRANSPOSITION",
              "ntt": "MELODY",
              "bassOn": true,
              "chordRootUpperLimit": 3,
              "noteLowLimit": 28,
              "noteHighLimit": 49,
              "rtr": "PITCH_SHIFT_TO_ROOT"
            },
            "ctb2High": null
          },
          "notes": [
            {
              "pitch": 24,
              "velocity": 100,
              "position": 0.5,
              "duration": 0.5
            },
            {
              "pitch": 24,
              "velocity": 100,
              "position": 1.5,
              "duration": 0.5
            },
            {
              "pitch": 24,
              "velocity": 100,
              "position": 2.5,
              "duration": 0.5
            },
            {
              "pitch": 24,
              "velocity": 100,
              "position": 3.5,
              "duration": 0.5
            },
            {
              "pitch": 24,
              "velocity": 100,
              "position": 4.5,
              "duration": 0.5
            },
            {
              "pitch": 24,
              "velocity": 100,
              "position": 5.5,
              "duration": 0.5
            },
            {
              "pitch": 24,
              "velocity": 100,
              "position": 6.5,
              "duration": 0.5
            }
          ]
        },
        "11": {
          "ctab": {
            "srcChannel": 11,
            "name": "Organ",
            "accType": "CHORD1",
            "editable": false,
            "mutedNotes": [],
            "mutedChords": [],
            "autoStart": false,
            "sourceChordNote": 0,
            "sourceChordType": "min7(11)",
            "ctb2Low": null,
            "ctb2Main": {
              "ntr": "ROOT_TRANSPOSITION",
              "ntt": "CHORD",
              "bassOn": false,
              "chordRootUpperLimit": 3,
              "noteLowLimit": 28,
              "noteHighLimit": 127,
              "rtr": "PITCH_SHIFT"
            },
            "ctb2High": null
          },
          "notes": [
            {
              "pitch": 60,
              "velocity": 115,
              "position": 0.5,
              "duration": 0.4166666666666667
            },
            {
              "pitch": 67,
              "velocity": 115,
              "position": 0.5,
              "duration": 0.4166666666666667
            },
            {
              "pitch": 60,
              "velocity": 115,
              "position": 1.5,
              "duration": 0.4166666666666667
            },
            {
              "pitch": 67,
              "velocity": 115,
              "position": 1.5,
              "duration": 0.4166666666666667
            },
            {
              "pitch": 60,
              "velocity": 115,
              "position": 2.5,
              "duration": 0.4166666666666667
            },
            {
              "pitch": 67,
              "velocity": 115,
              "position": 2.5,
              "duration": 0.4166666666666667
            },
            {
              "pitch": 60,
              "velocity": 115,
              "position": 3.5,
              "duration": 0.4166666666666667
            },
            {
              "pitch": 67,
              "velocity": 115,
              "position": 3.5,
              "duration": 0.4166666666666667
            },
            {
              "pitch": 60,
              "velocity": 115,
              "position": 4.5,
              "duration": 0.4166666666666667
            },
            {
              "pitch": 67,
              "velocity": 115,
              "position": 4.5,
              "duration": 0.4166666666666667
            },
            {
              "pitch": 60,
              "velocity": 115,
              "position": 5.5,
              "duration": 0.4166666666666667
            },
            {
              "pitch": 67,
              "velocity": 115,
              "position": 5.5,
              "duration": 0.4166666666666667
            },
            {
              "pitch": 60,
              "velocity": 115,
              "position": 6.5,
              "duration": 0.4166666666666667
            },
            {
              "pitch": 67,
              "velocity": 115,
              "position": 6.5,
              "duration": 0.4166666666666667
            },
            {
              "pitch": 60,
              "velocity": 115,
              "position": 7.5,
              "duration": 0.4166666666666667
            },
            {
              "pitch": 67,
              "velocity": 115,
              "position": 7.5,
              "duration": 0.4166666666666667
            }
          ]
        },
        "12": {
          "ctab": {
            "srcChannel": 12,
            "name": "SySeq",
            "accType": "CHORD2",
            "editable": false,
            "mutedNotes": [],
            "mutedChords": [],
            "autoStart": false,
            "sourceChordNote": 0,
            "sourceChordType": "Maj",
            "ctb2Low": null,
            "ctb2Main": {
              "ntr": "ROOT_FIXED",
              "ntt": "CHORD",
              "bassOn": false,
              "chordRootUpperLimit": 7,
              "noteLowLimit": 0,
              "noteHighLimit": 127,
              "rtr": "PITCH_SHIFT"
            },
            "ctb2High": null
          },
          "notes": []
        },
        "13": {
          "ctab": {
            "srcChannel": 13,
            "name": "Sweep",
            "accType": "PAD",
            "editable": false,
            "mutedNotes": [],
            "mutedChords": [],
            "autoStart": false,
            "sourceChordNote": 0,
            "sourceChordType": "Maj7",
            "ctb2Low": null,
            "ctb2Main": {
              "ntr": "ROOT_FIXED",
              "ntt": "CHORD",
              "bassOn": false,
              "chordRootUpperLimit": 7,
              "noteLowLimit": 0,
              "noteHighLimit": 127,
              "rtr": "PITCH_SHIFT"
            },
            "ctb2High": null
          },
          "notes": []
        },
        "14": {
          "ctab": {
            "srcChannel": 14,
            "name": "Ep",
            "accType": "PHRASE1",
            "editable": false,
            "mutedNotes": [],
            "mutedChords": [],
            "autoStart": false,
            "sourceChordNote": 0,
            "sourceChordType": "Maj7",
            "ctb2Low": null,
            "ctb2Main": {
              "ntr": "ROOT_FIXED",
              "ntt": "CHORD",
              "bassOn": false,
              "chordRootUpperLimit": 9,
              "noteLowLimit": 0,
              "noteHighLimit": 127,
              "rtr": "PITCH_SHIFT"
            },
            "ctb2High": null
          },
          "notes": []
        },
        "15": {
          "ctab": {
            "srcChannel": 15,
            "name": "Saw",
            "accType": "PHRASE2",
            "editable": false,
            "mutedNotes": [],
            "mutedChords": [],
            "autoStart": false,
            "sourceChordNote": 0,
            "sourceChordType": "Maj7",
            "ctb2Low": null,
            "ctb2Main": {
              "ntr": "ROOT_TRANSPOSITION",
              "ntt": "MELODY",
              "bassOn": true,
              "chordRootUpperLimit": 6,
              "noteLowLimit": 0,
              "noteHighLimit": 127,
              "rtr": "PITCH_SHIFT"
            },
            "ctb2High": null
          },
          "notes": []
        }
      }
    },
    "Main_B": {
      "type": "Main_B",
      "sizeInBeats": 16,
      "channels": {
        "1": {
          "ctab": {
            "srcChannel": 1,
            "name": "CC_Crash",
            "accType": "RHYTHM",
            "editable": false,
            "mutedNotes": [],
            "mutedChords": [
              "1+2+5",
              "sus4",
              "1+5",
              "1+8",
              "7aug",
              "Maj7aug",
              "7(#9)",
              "7(b13)",
              "7(b9)",
              "7(13)",
              "7#11",
              "7(9)",
              "7b5",
              "7sus4",
              "7th",
              "dim7",
              "dim",
              "minMaj7(9)",
              "minMaj7",
              "min7(11)",
              "min7(9)",
              "min(9)",
              "m7b5",
              "min7",
              "min6",
              "min",
              "aug",
              "Maj6(9)",
              "Maj7(9)",
              "Maj(9)",
              "Maj7#11",
              "Maj7",
              "Maj6",
              "Maj"
            ],
            "autoStart": true,
            "sourceChordNote": 0,
            "sourceChordType": "Maj",
            "ctb2Low": null,
            "ctb2Main": {
              "ntr": "ROOT_FIXED",
              "ntt": "BYPASS",
              "bassOn": false,
              "chordRootUpperLimit": 0,
              "noteLowLimit": 0,
              "noteHighLimit": 127,
              "rtr": "RETRIGGER"
            },
            "ctb2High": null
          },
          "notes": []
        },
        "5": {
          "ctab": {
            "srcChannel": 5,
            "name": "PadRoot",
            "accType": "PAD",
            "editable": false,
            "mutedNotes": [],
            "mutedChords": [
              "1+2+5",
              "sus4",
              "1+5",
              "1+8",
              "Maj7aug",
              "dim",
              "minMaj7(9)",
              "minMaj7",
              "min6",
              "min",
              "aug",
              "Maj7(9)",
              "Maj7#11",
              "Maj7",
              "Maj6",
              "Maj"
            ],
            "autoStart": false,
            "sourceChordNote": 0,
            "sourceChordType": "Maj7",
            "ctb2Low": null,
            "ctb2Main": {
              "ntr": "ROOT_TRANSPOSITION",
              "ntt": "MELODY",
              "bassOn": false,
              "chordRootUpperLimit": 6,
              "noteLowLimit": 0,
              "noteHighLimit": 127,
              "rtr": "PITCH_SHIFT"
            },
            "ctb2High": null
          },
          "notes": [
            {
              "pitch": 60,
              "velocity": 50,
              "position": 0,
              "duration": 15.989583333333334
            }
          ]
        },
        "6": {
          "ctab": {
            "srcChannel": 6,
            "name": "EpRoot",
            "accType": "PHRASE1",
            "editable": false,
            "mutedNotes": [],
            "mutedChords": [
              "1+2+5",
              "sus4",
              "1+5",
              "1+8",
              "Maj7aug",
              "dim",
              "minMaj7(9)",
              "minMaj7",
              "min6",
              "min",
              "aug",
              "Maj7(9)",
              "Maj7#11",
              "Maj7",
              "Maj6",
              "Maj"
            ],
            "autoStart": false,
            "sourceChordNote": 0,
            "sourceChordType": "Maj7",
            "ctb2Low": null,
            "ctb2Main": {
              "ntr": "ROOT_TRANSPOSITION",
              "ntt": "MELODY",
              "bassOn": false,
              "chordRootUpperLimit": 6,
              "noteLowLimit": 0,
              "noteHighLimit": 127,
              "rtr": "PITCH_SHIFT"
            },
            "ctb2High": null
          },
          "notes": [
            {
              "pitch": 60,
              "velocity": 75,
              "position": 1,
              "duration": 0.25
            },
            {
              "pitch": 60,
              "velocity": 85,
              "position": 2,
              "duration": 0.3958333333333333
            },
            {
              "pitch": 60,
              "velocity": 79,
              "position": 5,
              "duration": 0.3125
            },
            {
              "pitch": 60,
              "velocity": 82,
              "position": 6.5,
              "duration": 0.375
            },
            {
              "pitch": 60,
              "velocity": 67,
              "position": 9,
              "duration": 0.28125
            },
            {
              "pitch": 60,
              "velocity": 71,
              "position": 10,
              "duration": 0.3958333333333333
            },
            {
              "pitch": 60,
              "velocity": 85,
              "position": 13,
              "duration": 0.3229166666666667
            },
            {
              "pitch": 60,
              "velocity": 71,
              "position": 14.5,
              "duration": 0.2916666666666667
            }
          ]
        },
        "8": {
          "ctab": {
            "srcChannel": 8,
            "name": "Perc",
            "accType": "SUBRHYTHM",
            "editable": false,
            "mutedNotes": [],
            "mutedChords": [],
            "autoStart": true,
            "sourceChordNote": 0,
            "sourceChordType": "Maj7",
            "ctb2Low": null,
            "ctb2Main": {
              "ntr": "ROOT_FIXED",
              "ntt": "BYPASS",
              "bassOn": false,
              "chordRootUpperLimit": 6,
              "noteLowLimit": 0,
              "noteHighLimit": 127,
              "rtr": "PITCH_SHIFT"
            },
            "ctb2High": null
          },
          "notes": [
            {
              "pitch": 82,
              "velocity": 73,
              "position": 0.5,
              "duration": 0.010416666666666666
            },
            {
              "pitch": 82,
              "velocity": 43,
              "position": 0.75,
              "duration": 0.010416666666666666
            },
            {
              "pitch": 82,
              "velocity": 73,
              "position": 1.5,
              "duration": 0.010416666666666666
            },
            {
              "pitch": 82,
              "velocity": 43,
              "position": 1.75,
              "duration": 0.010416666666666666
            },
            {
              "pitch": 82,
              "velocity": 73,
              "position": 2.5,
              "duration": 0.010416666666666666
            },
            {
              "pitch": 82,
              "velocity": 43,
              "position": 2.75,
              "duration": 0.010416666666666666
            },
            {
              "pitch": 82,
              "velocity": 73,
              "position": 3.5,
              "duration": 0.010416666666666666
            },
            {
              "pitch": 82,
              "velocity": 43,
              "position": 3.75,
              "duration": 0.010416666666666666
            },
            {
              "pitch": 82,
              "velocity": 73,
              "position": 4.5,
              "duration": 0.010416666666666666
            },
            {
              "pitch": 82,
              "velocity": 43,
              "position": 4.75,
              "duration": 0.010416666666666666
            },
            {
              "pitch": 82,
              "velocity": 73,
              "position": 5.5,
              "duration": 0.010416666666666666
            },
            {
              "pitch": 82,
              "velocity": 43,
              "position": 5.75,
              "duration": 0.010416666666666666
            },
            {
              "pitch": 82,
              "velocity": 73,
              "position": 6.5,
              "duration": 0.010416666666666666
            },
            {
              "pitch": 82,
              "velocity": 43,
              "position": 6.75,
              "duration": 0.010416666666666666
            },
            {
              "pitch": 82,
              "velocity": 73,
              "position": 7.5,
              "duration": 0.010416666666666666
            },
            {
              "pitch": 82,
              "velocity": 43,
              "position": 7.75,
              "duration": 0.010416666666666666
            },
            {
              "pitch": 82,
              "velocity": 73,
              "position": 8.5,
              "duration": 0.010416666666666666
            },
            {
              "pitch": 82,
              "velocity": 43,
              "position": 8.75,
              "duration": 0.010416666666666666
            },
            {
              "pitch": 82,
              "velocity": 73,
              "position": 9.5,
              "duration": 0.010416666666666666
            },
            {
              "pitch": 82,
              "velocity": 43,
              "position": 9.75,
              "duration": 0.010416666666666666
            },
            {
              "pitch": 82,
              "velocity": 73,
              "position": 10.5,
              "duration": 0.010416666666666666
            },
            {
              "pitch": 82,
              "velocity": 43,
              "position": 10.75,
              "duration": 0.010416666666666666
            },
            {
              "pitch": 82,
              "velocity": 73,
              "position": 11.5,
              "duration": 0.010416666666666666
            },
            {
              "pitch": 82,
              "velocity": 43,
              "position": 11.75,
              "duration": 0.010416666666666666
            },
            {
              "pitch": 82,
              "velocity": 73,
              "position": 12.5,
              "duration": 0.010416666666666666
            },
            {
              "pitch": 82,
              "velocity": 43,
              "position": 12.75,
              "duration": 0.010416666666666666
            },
            {
              "pitch": 82,
              "velocity": 73,
              "position": 13.5,
              "duration": 0.010416666666666666
            },
            {
              "pitch": 82,
              "velocity": 43,
              "position": 13.75,
              "duration": 0.010416666666666666
            },
            {
              "pitch": 82,
              "velocity": 73,
              "position": 14.5,
              "duration": 0.010416666666666666
            },
            {
              "pitch": 82,
              "velocity": 43,
              "position": 14.75,
              "duration": 0.010416666666666666
            },
            {
              "pitch": 82,
              "velocity": 73,
              "position": 15.5,
              "duration": 0.010416666666666666
            },
            {
              "pitch": 82,
              "velocity": 43,
              "position": 15.75,
              "duration": 0.010416666666666666
            }
          ]
        },
        "9": {
          "ctab": {
            "srcChannel": 9,
            "name": "Drum",
            "accType": "RHYTHM",
            "editable": false,
            "mutedNotes": [],
            "mutedChords": [],
            "autoStart": true,
            "sourceChordNote": 0,
            "sourceChordType": "Maj7",
            "ctb2Low": null,
            "ctb2Main": {
              "ntr": "ROOT_FIXED",
              "ntt": "BYPASS",
              "bassOn": false,
              "chordRootUpperLimit": 6,
              "noteLowLimit": 0,
              "noteHighLimit": 127,
              "rtr": "PITCH_SHIFT"
            },
            "ctb2High": null
          },
          "notes": [
            {
              "pitch": 33,
              "velocity": 95,
              "position": 0,
              "duration": 0.010416666666666666
            },
            {
              "pitch": 42,
              "velocity": 98,
              "position": 0,
              "duration": 0.010416666666666666
            },
            {
              "pitch": 70,
              "velocity": 90,
              "position": 0,
              "duration": 0.010416666666666666
            },
            {
              "pitch": 42,
              "velocity": 54,
              "position": 0.5,
              "duration": 0.010416666666666666
            },
            {
              "pitch": 70,
              "velocity": 46,
              "position": 0.5,
              "duration": 0.010416666666666666
            },
            {
              "pitch": 32,
              "velocity": 73,
              "position": 1,
              "duration": 0.010416666666666666
            },
            {
              "pitch": 33,
              "velocity": 95,
              "position": 1,
              "duration": 0.010416666666666666
            },
            {
              "pitch": 42,
              "velocity": 95,
              "position": 1,
              "duration": 0.010416666666666666
            },
            {
              "pitch": 70,
              "velocity": 87,
              "position": 1,
              "duration": 0.010416666666666666
            },
            {
              "pitch": 39,
              "velocity": 90,
              "position": 1.0208333333333333,
              "duration": 0.052083333333333336
            },
            {
              "pitch": 42,
              "velocity": 52,
              "position": 1.5,
              "duration": 0.010416666666666666
            },
            {
              "pitch": 70,
              "velocity": 44,
              "position": 1.5,
              "duration": 0.010416666666666666
            },
            {
              "pitch": 33,
              "velocity": 95,
              "position": 2,
              "duration": 0.010416666666666666
            },
            {
              "pitch": 42,
              "velocity": 98,
              "position": 2,
              "duration": 0.010416666666666666
            },
            {
              "pitch": 70,
              "velocity": 90,
              "position": 2,
              "duration": 0.010416666666666666
            },
            {
              "pitch": 42,
              "velocity": 54,
              "position": 2.5,
              "duration": 0.010416666666666666
            },
            {
              "pitch": 70,
              "velocity": 46,
              "position": 2.5,
              "duration": 0.010416666666666666
            },
            {
              "pitch": 32,
              "velocity": 73,
              "position": 3,
              "duration": 0.010416666666666666
            },
            {
              "pitch": 33,
              "velocity": 95,
              "position": 3,
              "duration": 0.010416666666666666
            },
            {
              "pitch": 42,
              "velocity": 95,
              "position": 3,
              "duration": 0.010416666666666666
            },
            {
              "pitch": 70,
              "velocity": 87,
              "position": 3,
              "duration": 0.010416666666666666
            },
            {
              "pitch": 39,
              "velocity": 90,
              "position": 3.0208333333333335,
              "duration": 0.052083333333333336
            },
            {
              "pitch": 42,
              "velocity": 53,
              "position": 3.5,
              "duration": 0.010416666666666666
            },
            {
              "pitch": 70,
              "velocity": 44,
              "position": 3.5,
              "duration": 0.010416666666666666
            },
            {
              "pitch": 33,
              "velocity": 95,
              "position": 4,
              "duration": 0.010416666666666666
            },
            {
              "pitch": 42,
              "velocity": 98,
              "position": 4,
              "duration": 0.010416666666666666
            },
            {
              "pitch": 70,
              "velocity": 90,
              "position": 4,
              "duration": 0.010416666666666666
            },
            {
              "pitch": 42,
              "velocity": 53,
              "position": 4.5,
              "duration": 0.010416666666666666
            },
            {
              "pitch": 70,
              "velocity": 46,
              "position": 4.5,
              "duration": 0.010416666666666666
            },
            {
              "pitch": 32,
              "velocity": 73,
              "position": 5,
              "duration": 0.010416666666666666
            },
            {
              "pitch": 33,
              "velocity": 95,
              "position": 5,
              "duration": 0.010416666666666666
            },
            {
              "pitch": 42,
              "velocity": 91,
              "position": 5,
              "duration": 0.010416666666666666
            },
            {
              "pitch": 70,
              "velocity": 87,
              "position": 5,
              "duration": 0.010416666666666666
            },
            {
              "pitch": 39,
              "velocity": 90,
              "position": 5.020833333333333,
              "duration": 0.052083333333333336
            },
            {
              "pitch": 42,
              "velocity": 51,
              "position": 5.5,
              "duration": 0.010416666666666666
            },
            {
              "pitch": 70,
              "velocity": 44,
              "position": 5.5,
              "duration": 0.010416666666666666
            },
            {
              "pitch": 33,
              "velocity": 95,
              "position": 6,
              "duration": 0.010416666666666666
            },
            {
              "pitch": 42,
              "velocity": 98,
              "position": 6,
              "duration": 0.010416666666666666
            },
            {
              "pitch": 70,
              "velocity": 90,
              "position": 6,
              "duration": 0.010416666666666666
            },
            {
              "pitch": 42,
              "velocity": 57,
              "position": 6.5,
              "duration": 0.010416666666666666
            },
            {
              "pitch": 70,
              "velocity": 46,
              "position": 6.5,
              "duration": 0.010416666666666666
            },
            {
              "pitch": 32,
              "velocity": 73,
              "position": 7,
              "duration": 0.010416666666666666
            },
            {
              "pitch": 33,
              "velocity": 95,
              "position": 7,
              "duration": 0.010416666666666666
            },
            {
              "pitch": 42,
              "velocity": 95,
              "position": 7,
              "duration": 0.010416666666666666
            },
            {
              "pitch": 70,
              "velocity": 87,
              "position": 7,
              "duration": 0.010416666666666666
            },
            {
              "pitch": 39,
              "velocity": 90,
              "position": 7.020833333333333,
              "duration": 0.052083333333333336
            },
            {
              "pitch": 46,
              "velocity": 93,
              "position": 7.5,
              "duration": 0.010416666666666666
            },
            {
              "pitch": 70,
              "velocity": 44,
              "position": 7.5,
              "duration": 0.010416666666666666
            },
            {
              "pitch": 33,
              "velocity": 95,
              "position": 8,
              "duration": 0.010416666666666666
            },
            {
              "pitch": 42,
              "velocity": 98,
              "position": 8,
              "duration": 0.010416666666666666
            },
            {
              "pitch": 70,
              "velocity": 90,
              "position": 8,
              "duration": 0.010416666666666666
            },
            {
              "pitch": 42,
              "velocity": 54,
              "position": 8.5,
              "duration": 0.010416666666666666
            },
            {
              "pitch": 70,
              "velocity": 46,
              "position": 8.5,
              "duration": 0.010416666666666666
            },
            {
              "pitch": 32,
              "velocity": 73,
              "position": 9,
              "duration": 0.010416666666666666
            },
            {
              "pitch": 33,
              "velocity": 95,
              "position": 9,
              "duration": 0.010416666666666666
            },
            {
              "pitch": 42,
              "velocity": 95,
              "position": 9,
              "duration": 0.010416666666666666
            },
            {
              "pitch": 70,
              "velocity": 87,
              "position": 9,
              "duration": 0.010416666666666666
            },
            {
              "pitch": 39,
              "velocity": 90,
              "position": 9.020833333333334,
              "duration": 0.052083333333333336
            },
            {
              "pitch": 42,
              "velocity": 52,
              "position": 9.5,
              "duration": 0.010416666666666666
            },
            {
              "pitch": 70,
              "velocity": 44,
              "position": 9.5,
              "duration": 0.010416666666666666
            },
            {
              "pitch": 33,
              "velocity": 95,
              "position": 10,
              "duration": 0.010416666666666666
            },
            {
              "pitch": 42,
              "velocity": 98,
              "position": 10,
              "duration": 0.010416666666666666
            },
            {
              "pitch": 70,
              "velocity": 90,
              "position": 10,
              "duration": 0.010416666666666666
            },
            {
              "pitch": 42,
              "velocity": 54,
              "position": 10.5,
              "duration": 0.010416666666666666
            },
            {
              "pitch": 70,
              "velocity": 46,
              "position": 10.5,
              "duration": 0.010416666666666666
            },
            {
              "pitch": 32,
              "velocity": 73,
              "position": 11,
              "duration": 0.010416666666666666
            },
            {
              "pitch": 33,
              "velocity": 95,
              "position": 11,
              "duration": 0.010416666666666666
            },
            {
              "pitch": 42,
              "velocity": 95,
              "position": 11,
              "duration": 0.010416666666666666
            },
            {
              "pitch": 70,
              "velocity": 87,
              "position": 11,
              "duration": 0.010416666666666666
            },
            {
              "pitch": 39,
              "velocity": 90,
              "position": 11.020833333333334,
              "duration": 0.052083333333333336
            },
            {
              "pitch": 42,
              "velocity": 53,
              "position": 11.5,
              "duration": 0.010416666666666666
            },
            {
              "pitch": 70,
              "velocity": 44,
              "position": 11.5,
              "duration": 0.010416666666666666
            },
            {
              "pitch": 33,
              "velocity": 95,
              "position": 12,
              "duration": 0.010416666666666666
            },
            {
              "pitch": 42,
              "velocity": 98,
              "position": 12,
              "duration": 0.010416666666666666
            },
            {
              "pitch": 70,
              "velocity": 90,
              "position": 12,
              "duration": 0.010416666666666666
            },
            {
              "pitch": 42,
              "velocity": 53,
              "position": 12.5,
              "duration": 0.010416666666666666
            },
            {
              "pitch": 70,
              "velocity": 46,
              "position": 12.5,
              "duration": 0.010416666666666666
            },
            {
              "pitch": 32,
              "velocity": 73,
              "position": 13,
              "duration": 0.010416666666666666
            },
            {
              "pitch": 33,
              "velocity": 95,
              "position": 13,
              "duration": 0.010416666666666666
            },
            {
              "pitch": 42,
              "velocity": 91,
              "position": 13,
              "duration": 0.010416666666666666
            },
            {
              "pitch": 70,
              "velocity": 87,
              "position": 13,
              "duration": 0.010416666666666666
            },
            {
              "pitch": 39,
              "velocity": 90,
              "position": 13.020833333333334,
              "duration": 0.052083333333333336
            },
            {
              "pitch": 42,
              "velocity": 51,
              "position": 13.5,
              "duration": 0.010416666666666666
            },
            {
              "pitch": 70,
              "velocity": 44,
              "position": 13.5,
              "duration": 0.010416666666666666
            },
            {
              "pitch": 33,
              "velocity": 95,
              "position": 14,
              "duration": 0.010416666666666666
            },
            {
              "pitch": 42,
              "velocity": 98,
              "position": 14,
              "duration": 0.010416666666666666
            },
            {
              "pitch": 70,
              "velocity": 90,
              "position": 14,
              "duration": 0.010416666666666666
            },
            {
              "pitch": 42,
              "velocity": 57,
              "position": 14.5,
              "duration": 0.010416666666666666
            },
            {
              "pitch": 70,
              "velocity": 46,
              "position": 14.5,
              "duration": 0.010416666666666666
            },
            {
              "pitch": 32,
              "velocity": 73,
              "position": 15,
              "duration": 0.010416666666666666
            },
            {
              "pitch": 33,
              "velocity": 95,
              "position": 15,
              "duration": 0.010416666666666666
            },
            {
              "pitch": 42,
              "velocity": 95,
              "position": 15,
              "duration": 0.010416666666666666
            },
            {
              "pitch": 70,
              "velocity": 87,
              "position": 15,
              "duration": 0.010416666666666666
            },
            {
              "pitch": 39,
              "velocity": 90,
              "position": 15.020833333333334,
              "duration": 0.052083333333333336
            },
            {
              "pitch": 46,
              "velocity": 93,
              "position": 15.5,
              "duration": 0.010416666666666666
            },
            {
              "pitch": 70,
              "velocity": 44,
              "position": 15.5,
              "duration": 0.010416666666666666
            }
          ]
        },
        "10": {
          "ctab": {
            "srcChannel": 10,
            "name": "Bass",
            "accType": "BASS",
            "editable": false,
            "mutedNotes": [],
            "mutedChords": [],
            "autoStart": false,
            "sourceChordNote": 0,
            "sourceChordType": "Maj7",
            "ctb2Low": null,
            "ctb2Main": {
              "ntr": "ROOT_TRANSPOSITION",
              "ntt": "MELODY",
              "bassOn": true,
              "chordRootUpperLimit": 3,
              "noteLowLimit": 28,
              "noteHighLimit": 49,
              "rtr": "PITCH_SHIFT_TO_ROOT"
            },
            "ctb2High": null
          },
          "notes": [
            {
              "pitch": 24,
              "velocity": 100,
              "position": 0.5,
              "duration": 0.5
            },
            {
              "pitch": 24,
              "velocity": 100,
              "position": 1.5,
              "duration": 0.5
            },
            {
              "pitch": 24,
              "velocity": 100,
              "position": 2.5,
              "duration": 0.5
            },
            {
              "pitch": 24,
              "velocity": 100,
              "position": 3.5,
              "duration": 0.5
            },
            {
              "pitch": 24,
              "velocity": 100,
              "position": 4.5,
              "duration": 0.5
            },
            {
              "pitch": 24,
              "velocity": 100,
              "position": 5.5,
              "duration": 0.5
            },
            {
              "pitch": 24,
              "velocity": 100,
              "position": 6.5,
              "duration": 0.5
            },
            {
              "pitch": 28,
              "velocity": 100,
              "position": 7.5,
              "duration": 0.5
            },
            {
              "pitch": 24,
              "velocity": 100,
              "position": 8.5,
              "duration": 0.5
            },
            {
              "pitch": 24,
              "velocity": 100,
              "position": 9.5,
              "duration": 0.5
            },
            {
              "pitch": 24,
              "velocity": 100,
              "position": 10.5,
              "duration": 0.5
            },
            {
              "pitch": 24,
              "velocity": 100,
              "position": 11.5,
              "duration": 0.5
            },
            {
              "pitch": 24,
              "velocity": 100,
              "position": 12.5,
              "duration": 0.5
            },
            {
              "pitch": 24,
              "velocity": 100,
              "position": 13.5,
              "duration": 0.5
            },
            {
              "pitch": 24,
              "velocity": 100,
              "position": 14.5,
              "duration": 0.5
            }
          ]
        },
        "11": {
          "ctab": {
            "srcChannel": 11,
            "name": "Organ",
            "accType": "CHORD1",
            "editable": false,
            "mutedNotes": [],
            "mutedChords": [],
            "autoStart": false,
            "sourceChordNote": 0,
            "sourceChordType": "min7(11)",
            "ctb2Low": null,
            "ctb2Main": {
              "ntr": "ROOT_TRANSPOSITION",
              "ntt": "CHORD",
              "bassOn": false,
              "chordRootUpperLimit": 3,
              "noteLowLimit": 28,
              "noteHighLimit": 127,
              "rtr": "PITCH_SHIFT"
            },
            "ctb2High": null
          },
          "notes": [
            {
              "pitch": 60,
              "velocity": 115,
              "position": 0.5,
              "duration": 0.4166666666666667
            },
            {
              "pitch": 67,
              "velocity": 115,
              "position": 0.5,
              "duration": 0.4166666666666667
            },
            {
              "pitch": 60,
              "velocity": 115,
              "position": 1.5,
              "duration": 0.4166666666666667
            },
            {
              "pitch": 67,
              "velocity": 115,
              "position": 1.5,
              "duration": 0.4166666666666667
            },
            {
              "pitch": 60,
              "velocity": 115,
              "position": 2.5,
              "duration": 0.4166666666666667
            },
            {
              "pitch": 67,
              "velocity": 115,
              "position": 2.5,
              "duration": 0.4166666666666667
            },
            {
              "pitch": 60,
              "velocity": 115,
              "position": 3.5,
              "duration": 0.4166666666666667
            },
            {
              "pitch": 67,
              "velocity": 115,
              "position": 3.5,
              "duration": 0.4166666666666667
            },
            {
              "pitch": 60,
              "velocity": 115,
              "position": 4.5,
              "duration": 0.4166666666666667
            },
            {
              "pitch": 67,
              "velocity": 115,
              "position": 4.5,
              "duration": 0.4166666666666667
            },
            {
              "pitch": 60,
              "velocity": 115,
              "position": 5.5,
              "duration": 0.4166666666666667
            },
            {
              "pitch": 67,
              "velocity": 115,
              "position": 5.5,
              "duration": 0.4166666666666667
            },
            {
              "pitch": 60,
              "velocity": 115,
              "position": 6.5,
              "duration": 0.4166666666666667
            },
            {
              "pitch": 67,
              "velocity": 115,
              "position": 6.5,
              "duration": 0.4166666666666667
            },
            {
              "pitch": 60,
              "velocity": 115,
              "position": 7.5,
              "duration": 0.4166666666666667
            },
            {
              "pitch": 67,
              "velocity": 115,
              "position": 7.5,
              "duration": 0.4166666666666667
            },
            {
              "pitch": 60,
              "velocity": 115,
              "position": 8.5,
              "duration": 0.4166666666666667
            },
            {
              "pitch": 67,
              "velocity": 115,
              "position": 8.5,
              "duration": 0.4166666666666667
            },
            {
              "pitch": 60,
              "velocity": 115,
              "position": 9.5,
              "duration": 0.4166666666666667
            },
            {
              "pitch": 67,
              "velocity": 115,
              "position": 9.5,
              "duration": 0.4166666666666667
            },
            {
              "pitch": 60,
              "velocity": 115,
              "position": 10.5,
              "duration": 0.4166666666666667
            },
            {
              "pitch": 67,
              "velocity": 115,
              "position": 10.5,
              "duration": 0.4166666666666667
            },
            {
              "pitch": 60,
              "velocity": 115,
              "position": 11.5,
              "duration": 0.4166666666666667
            },
            {
              "pitch": 67,
              "velocity": 115,
              "position": 11.5,
              "duration": 0.4166666666666667
            },
            {
              "pitch": 60,
              "velocity": 115,
              "position": 12.5,
              "duration": 0.4166666666666667
            },
            {
              "pitch": 67,
              "velocity": 115,
              "position": 12.5,
              "duration": 0.4166666666666667
            },
            {
              "pitch": 60,
              "velocity": 115,
              "position": 13.5,
              "duration": 0.4166666666666667
            },
            {
              "pitch": 67,
              "velocity": 115,
              "position": 13.5,
              "duration": 0.4166666666666667
            },
            {
              "pitch": 60,
              "velocity": 115,
              "position": 14.5,
              "duration": 0.4166666666666667
            },
            {
              "pitch": 67,
              "velocity": 115,
              "position": 14.5,
              "duration": 0.4166666666666667
            },
            {
              "pitch": 60,
              "velocity": 115,
              "position": 15.5,
              "duration": 0.4166666666666667
            },
            {
              "pitch": 67,
              "velocity": 115,
              "position": 15.5,
              "duration": 0.4166666666666667
            }
          ]
        },
        "12": {
          "ctab": {
            "srcChannel": 12,
            "name": "SySeq",
            "accType": "CHORD2",
            "editable": false,
            "mutedNotes": [],
            "mutedChords": [],
            "autoStart": false,
            "sourceChordNote": 0,
            "sourceChordType": "Maj",
            "ctb2Low": null,
            "ctb2Main": {
              "ntr": "ROOT_FIXED",
              "ntt": "CHORD",
              "bassOn": false,
              "chordRootUpperLimit": 7,
              "noteLowLimit": 0,
              "noteHighLimit": 127,
              "rtr": "PITCH_SHIFT"
            },
            "ctb2High": null
          },
          "notes": [
            {
              "pitch": 60,
              "velocity": 54,
              "position": 1,
              "duration": 0.34375
            },
            {
              "pitch": 67,
              "velocity": 61,
              "position": 1,
              "duration": 0.34375
            },
            {
              "pitch": 67,
              "velocity": 61,
              "position": 2,
              "duration": 0.4791666666666667
            },
            {
              "pitch": 60,
              "velocity": 59,
              "position": 2,
              "duration": 0.5208333333333334
            },
            {
              "pitch": 60,
              "velocity": 71,
              "position": 5,
              "duration": 0.40625
            },
            {
              "pitch": 67,
              "velocity": 69,
              "position": 5,
              "duration": 0.4791666666666667
            },
            {
              "pitch": 67,
              "velocity": 61,
              "position": 6.5,
              "duration": 0.4375
            },
            {
              "pitch": 60,
              "velocity": 63,
              "position": 6.5,
              "duration": 0.4583333333333333
            },
            {
              "pitch": 60,
              "velocity": 67,
              "position": 9,
              "duration": 0.4375
            },
            {
              "pitch": 67,
              "velocity": 71,
              "position": 9,
              "duration": 0.4791666666666667
            },
            {
              "pitch": 67,
              "velocity": 69,
              "position": 10,
              "duration": 0.4791666666666667
            },
            {
              "pitch": 60,
              "velocity": 63,
              "position": 10,
              "duration": 0.53125
            },
            {
              "pitch": 67,
              "velocity": 76,
              "position": 13,
              "duration": 0.4895833333333333
            },
            {
              "pitch": 60,
              "velocity": 71,
              "position": 13,
              "duration": 0.5208333333333334
            },
            {
              "pitch": 67,
              "velocity": 67,
              "position": 14.5,
              "duration": 0.40625
            },
            {
              "pitch": 60,
              "velocity": 76,
              "position": 14.5,
              "duration": 0.4270833333333333
            }
          ]
        },
        "13": {
          "ctab": {
            "srcChannel": 13,
            "name": "Sweep",
            "accType": "PAD",
            "editable": false,
            "mutedNotes": [],
            "mutedChords": [],
            "autoStart": false,
            "sourceChordNote": 0,
            "sourceChordType": "Maj7",
            "ctb2Low": null,
            "ctb2Main": {
              "ntr": "ROOT_FIXED",
              "ntt": "CHORD",
              "bassOn": false,
              "chordRootUpperLimit": 7,
              "noteLowLimit": 0,
              "noteHighLimit": 127,
              "rtr": "PITCH_SHIFT"
            },
            "ctb2High": null
          },
          "notes": [
            {
              "pitch": 55,
              "velocity": 50,
              "position": 0,
              "duration": 15.989583333333334
            },
            {
              "pitch": 59,
              "velocity": 50,
              "position": 0,
              "duration": 15.989583333333334
            },
            {
              "pitch": 64,
              "velocity": 50,
              "position": 0,
              "duration": 15.989583333333334
            }
          ]
        },
        "14": {
          "ctab": {
            "srcChannel": 14,
            "name": "Ep",
            "accType": "PHRASE1",
            "editable": false,
            "mutedNotes": [],
            "mutedChords": [],
            "autoStart": false,
            "sourceChordNote": 0,
            "sourceChordType": "Maj7",
            "ctb2Low": null,
            "ctb2Main": {
              "ntr": "ROOT_FIXED",
              "ntt": "CHORD",
              "bassOn": false,
              "chordRootUpperLimit": 9,
              "noteLowLimit": 0,
              "noteHighLimit": 127,
              "rtr": "PITCH_SHIFT"
            },
            "ctb2High": null
          },
          "notes": [
            {
              "pitch": 55,
              "velocity": 71,
              "position": 0.5,
              "duration": 0.40625
            },
            {
              "pitch": 59,
              "velocity": 89,
              "position": 1,
              "duration": 0.25
            },
            {
              "pitch": 64,
              "velocity": 86,
              "position": 1,
              "duration": 0.2916666666666667
            },
            {
              "pitch": 64,
              "velocity": 78,
              "position": 2,
              "duration": 0.3854166666666667
            },
            {
              "pitch": 59,
              "velocity": 90,
              "position": 2,
              "duration": 0.3958333333333333
            },
            {
              "pitch": 55,
              "velocity": 78,
              "position": 2.5,
              "duration": 0.25
            },
            {
              "pitch": 55,
              "velocity": 80,
              "position": 3.5,
              "duration": 0.2916666666666667
            },
            {
              "pitch": 55,
              "velocity": 49,
              "position": 4.5,
              "duration": 0.09375
            },
            {
              "pitch": 64,
              "velocity": 80,
              "position": 5,
              "duration": 0.3020833333333333
            },
            {
              "pitch": 59,
              "velocity": 92,
              "position": 5,
              "duration": 0.3125
            },
            {
              "pitch": 59,
              "velocity": 95,
              "position": 6.5,
              "duration": 0.375
            },
            {
              "pitch": 64,
              "velocity": 86,
              "position": 6.5,
              "duration": 0.375
            },
            {
              "pitch": 55,
              "velocity": 83,
              "position": 7.5,
              "duration": 0.3541666666666667
            },
            {
              "pitch": 55,
              "velocity": 80,
              "position": 8.5,
              "duration": 0.3229166666666667
            },
            {
              "pitch": 59,
              "velocity": 83,
              "position": 9,
              "duration": 0.28125
            },
            {
              "pitch": 64,
              "velocity": 86,
              "position": 9,
              "duration": 0.3229166666666667
            },
            {
              "pitch": 64,
              "velocity": 80,
              "position": 10,
              "duration": 0.3645833333333333
            },
            {
              "pitch": 59,
              "velocity": 86,
              "position": 10,
              "duration": 0.3958333333333333
            },
            {
              "pitch": 55,
              "velocity": 83,
              "position": 10.5,
              "duration": 0.19791666666666666
            },
            {
              "pitch": 55,
              "velocity": 95,
              "position": 11.5,
              "duration": 0.2916666666666667
            },
            {
              "pitch": 55,
              "velocity": 66,
              "position": 12.5,
              "duration": 0.13541666666666666
            },
            {
              "pitch": 64,
              "velocity": 83,
              "position": 13,
              "duration": 0.3020833333333333
            },
            {
              "pitch": 59,
              "velocity": 90,
              "position": 13,
              "duration": 0.3229166666666667
            },
            {
              "pitch": 59,
              "velocity": 86,
              "position": 14.5,
              "duration": 0.2916666666666667
            },
            {
              "pitch": 64,
              "velocity": 80,
              "position": 14.5,
              "duration": 0.3020833333333333
            },
            {
              "pitch": 55,
              "velocity": 90,
              "position": 15.5,
              "duration": 0.23958333333333334
            }
          ]
        },
        "15": {
          "ctab": {
            "srcChannel": 15,
            "name": "Saw",
            "accType": "PHRASE2",
            "editable": false,
            "mutedNotes": [],
            "mutedChords": [],
            "autoStart": false,
            "sourceChordNote": 0,
            "sourceChordType": "Maj7",
            "ctb2Low": null,
            "ctb2Main": {
              "ntr": "ROOT_TRANSPOSITION",
              "ntt": "MELODY",
              "bassOn": true,
              "chordRootUpperLimit": 6,
              "noteLowLimit": 0,
              "noteHighLimit": 127,
              "rtr": "PITCH_SHIFT"
            },
            "ctb2High": null
          },
          "notes": []
        }
      }
    },
    "Main_C": {
      "type": "Main_C",
      "sizeInBeats": 8,
      "channels": {
        "1": {
          "ctab": {
            "srcChannel": 1,
            "name": "CC_Crash",
            "accType": "RHYTHM",
            "editable": false,
            "mutedNotes": [],
            "mutedChords": [
              "1+2+5",
              "sus4",
              "1+5",
              "1+8",
              "7aug",
              "Maj7aug",
              "7(#9)",
              "7(b13)",
              "7(b9)",
              "7(13)",
              "7#11",
              "7(9)",
              "7b5",
              "7sus4",
              "7th",
              "dim7",
              "dim",
              "minMaj7(9)",
              "minMaj7",
              "min7(11)",
              "min7(9)",
              "min(9)",
              "m7b5",
              "min7",
              "min6",
              "min",
              "aug",
              "Maj6(9)",
              "Maj7(9)",
              "Maj(9)",
              "Maj7#11",
              "Maj7",
              "Maj6",
              "Maj"
            ],
            "autoStart": true,
            "sourceChordNote": 0,
            "sourceChordType": "Maj",
            "ctb2Low": null,
            "ctb2Main": {
              "ntr": "ROOT_FIXED",
              "ntt": "BYPASS",
              "bassOn": false,
              "chordRootUpperLimit": 0,
              "noteLowLimit": 0,
              "noteHighLimit": 127,
              "rtr": "RETRIGGER"
            },
            "ctb2High": null
          },
          "notes": []
        },
        "5": {
          "ctab": {
            "srcChannel": 5,
            "name": "PadRoot",
            "accType": "PAD",
            "editable": false,
            "mutedNotes": [],
            "mutedChords": [
              "1+2+5",
              "sus4",
              "1+5",
              "1+8",
              "Maj7aug",
              "dim",
              "minMaj7(9)",
              "minMaj7",
              "min6",
              "min",
              "aug",
              "Maj7(9)",
              "Maj7#11",
              "Maj7",
              "Maj6",
              "Maj"
            ],
            "autoStart": false,
            "sourceChordNote": 0,
            "sourceChordType": "Maj7",
            "ctb2Low": null,
            "ctb2Main": {
              "ntr": "ROOT_TRANSPOSITION",
              "ntt": "MELODY",
              "bassOn": false,
              "chordRootUpperLimit": 6,
              "noteLowLimit": 0,
              "noteHighLimit": 127,
              "rtr": "PITCH_SHIFT"
            },
            "ctb2High": null
          },
          "notes": [
            {
              "pitch": 60,
              "velocity": 60,
              "position": 0,
              "duration": 7.979166666666667
            }
          ]
        },
        "6": {
          "ctab": {
            "srcChannel": 6,
            "name": "EpRoot",
            "accType": "PHRASE1",
            "editable": false,
            "mutedNotes": [],
            "mutedChords": [
              "1+2+5",
              "sus4",
              "1+5",
              "1+8",
              "Maj7aug",
              "dim",
              "minMaj7(9)",
              "minMaj7",
              "min6",
              "min",
              "aug",
              "Maj7(9)",
              "Maj7#11",
              "Maj7",
              "Maj6",
              "Maj"
            ],
            "autoStart": false,
            "sourceChordNote": 0,
            "sourceChordType": "Maj7",
            "ctb2Low": null,
            "ctb2Main": {
              "ntr": "ROOT_TRANSPOSITION",
              "ntt": "MELODY",
              "bassOn": false,
              "chordRootUpperLimit": 6,
              "noteLowLimit": 0,
              "noteHighLimit": 127,
              "rtr": "PITCH_SHIFT"
            },
            "ctb2High": null
          },
          "notes": [
            {
              "pitch": 60,
              "velocity": 86,
              "position": 0,
              "duration": 3.9895833333333335
            },
            {
              "pitch": 60,
              "velocity": 86,
              "position": 4,
              "duration": 3.9895833333333335
            }
          ]
        },
        "8": {
          "ctab": {
            "srcChannel": 8,
            "name": "Perc",
            "accType": "SUBRHYTHM",
            "editable": false,
            "mutedNotes": [],
            "mutedChords": [],
            "autoStart": true,
            "sourceChordNote": 0,
            "sourceChordType": "Maj7",
            "ctb2Low": null,
            "ctb2Main": {
              "ntr": "ROOT_FIXED",
              "ntt": "BYPASS",
              "bassOn": false,
              "chordRootUpperLimit": 6,
              "noteLowLimit": 0,
              "noteHighLimit": 127,
              "rtr": "PITCH_SHIFT"
            },
            "ctb2High": null
          },
          "notes": [
            {
              "pitch": 42,
              "velocity": 99,
              "position": 0,
              "duration": 0.010416666666666666
            },
            {
              "pitch": 42,
              "velocity": 69,
              "position": 0.5,
              "duration": 0.010416666666666666
            },
            {
              "pitch": 70,
              "velocity": 76,
              "position": 0.5,
              "duration": 0.010416666666666666
            },
            {
              "pitch": 82,
              "velocity": 73,
              "position": 0.5,
              "duration": 0.010416666666666666
            },
            {
              "pitch": 70,
              "velocity": 46,
              "position": 0.75,
              "duration": 0.010416666666666666
            },
            {
              "pitch": 82,
              "velocity": 43,
              "position": 0.75,
              "duration": 0.010416666666666666
            },
            {
              "pitch": 42,
              "velocity": 107,
              "position": 1,
              "duration": 0.010416666666666666
            },
            {
              "pitch": 42,
              "velocity": 67,
              "position": 1.5,
              "duration": 0.010416666666666666
            },
            {
              "pitch": 70,
              "velocity": 76,
              "position": 1.5,
              "duration": 0.010416666666666666
            },
            {
              "pitch": 82,
              "velocity": 73,
              "position": 1.5,
              "duration": 0.010416666666666666
            },
            {
              "pitch": 70,
              "velocity": 46,
              "position": 1.75,
              "duration": 0.010416666666666666
            },
            {
              "pitch": 82,
              "velocity": 43,
              "position": 1.75,
              "duration": 0.010416666666666666
            },
            {
              "pitch": 42,
              "velocity": 107,
              "position": 2,
              "duration": 0.010416666666666666
            },
            {
              "pitch": 42,
              "velocity": 74,
              "position": 2.5,
              "duration": 0.010416666666666666
            },
            {
              "pitch": 70,
              "velocity": 76,
              "position": 2.5,
              "duration": 0.010416666666666666
            },
            {
              "pitch": 82,
              "velocity": 73,
              "position": 2.5,
              "duration": 0.010416666666666666
            },
            {
              "pitch": 70,
              "velocity": 46,
              "position": 2.75,
              "duration": 0.010416666666666666
            },
            {
              "pitch": 82,
              "velocity": 43,
              "position": 2.75,
              "duration": 0.010416666666666666
            },
            {
              "pitch": 42,
              "velocity": 107,
              "position": 3,
              "duration": 0.010416666666666666
            },
            {
              "pitch": 42,
              "velocity": 71,
              "position": 3.5,
              "duration": 0.010416666666666666
            },
            {
              "pitch": 70,
              "velocity": 76,
              "position": 3.5,
              "duration": 0.010416666666666666
            },
            {
              "pitch": 82,
              "velocity": 73,
              "position": 3.5,
              "duration": 0.010416666666666666
            },
            {
              "pitch": 70,
              "velocity": 46,
              "position": 3.75,
              "duration": 0.010416666666666666
            },
            {
              "pitch": 82,
              "velocity": 43,
              "position": 3.75,
              "duration": 0.010416666666666666
            },
            {
              "pitch": 42,
              "velocity": 95,
              "position": 4,
              "duration": 0.010416666666666666
            },
            {
              "pitch": 42,
              "velocity": 53,
              "position": 4.5,
              "duration": 0.010416666666666666
            },
            {
              "pitch": 70,
              "velocity": 76,
              "position": 4.5,
              "duration": 0.010416666666666666
            },
            {
              "pitch": 82,
              "velocity": 73,
              "position": 4.5,
              "duration": 0.010416666666666666
            },
            {
              "pitch": 70,
              "velocity": 46,
              "position": 4.75,
              "duration": 0.010416666666666666
            },
            {
              "pitch": 82,
              "velocity": 43,
              "position": 4.75,
              "duration": 0.010416666666666666
            },
            {
              "pitch": 42,
              "velocity": 103,
              "position": 5,
              "duration": 0.010416666666666666
            },
            {
              "pitch": 42,
              "velocity": 84,
              "position": 5.5,
              "duration": 0.010416666666666666
            },
            {
              "pitch": 70,
              "velocity": 76,
              "position": 5.5,
              "duration": 0.010416666666666666
            },
            {
              "pitch": 82,
              "velocity": 73,
              "position": 5.5,
              "duration": 0.010416666666666666
            },
            {
              "pitch": 70,
              "velocity": 46,
              "position": 5.75,
              "duration": 0.010416666666666666
            },
            {
              "pitch": 82,
              "velocity": 43,
              "position": 5.75,
              "duration": 0.010416666666666666
            },
            {
              "pitch": 42,
              "velocity": 90,
              "position": 6,
              "duration": 0.010416666666666666
            },
            {
              "pitch": 42,
              "velocity": 58,
              "position": 6.5,
              "duration": 0.010416666666666666
            },
            {
              "pitch": 70,
              "velocity": 76,
              "position": 6.5,
              "duration": 0.010416666666666666
            },
            {
              "pitch": 82,
              "velocity": 73,
              "position": 6.5,
              "duration": 0.010416666666666666
            },
            {
              "pitch": 70,
              "velocity": 46,
              "position": 6.75,
              "duration": 0.010416666666666666
            },
            {
              "pitch": 82,
              "velocity": 43,
              "position": 6.75,
              "duration": 0.010416666666666666
            },
            {
              "pitch": 42,
              "velocity": 99,
              "position": 7,
              "duration": 0.010416666666666666
            },
            {
              "pitch": 42,
              "velocity": 88,
              "position": 7.5,
              "duration": 0.010416666666666666
            },
            {
              "pitch": 70,
              "velocity": 76,
              "position": 7.5,
              "duration": 0.010416666666666666
            },
            {
              "pitch": 82,
              "velocity": 73,
              "position": 7.5,
              "duration": 0.010416666666666666
            },
            {
              "pitch": 70,
              "velocity": 46,
              "position": 7.75,
              "duration": 0.010416666666666666
            },
            {
              "pitch": 82,
              "velocity": 43,
              "position": 7.75,
              "duration": 0.010416666666666666
            }
          ]
        },
        "9": {
          "ctab": {
            "srcChannel": 9,
            "name": "Drum",
            "accType": "RHYTHM",
            "editable": false,
            "mutedNotes": [],
            "mutedChords": [],
            "autoStart": true,
            "sourceChordNote": 0,
            "sourceChordType": "Maj7",
            "ctb2Low": null,
            "ctb2Main": {
              "ntr": "ROOT_FIXED",
              "ntt": "BYPASS",
              "bassOn": false,
              "chordRootUpperLimit": 6,
              "noteLowLimit": 0,
              "noteHighLimit": 127,
              "rtr": "PITCH_SHIFT"
            },
            "ctb2High": null
          },
          "notes": [
            {
              "pitch": 33,
              "velocity": 95,
              "position": 0,
              "duration": 0.010416666666666666
            },
            {
              "pitch": 42,
              "velocity": 98,
              "position": 0,
              "duration": 0.010416666666666666
            },
            {
              "pitch": 61,
              "velocity": 40,
              "position": 0,
              "duration": 0.010416666666666666
            },
            {
              "pitch": 70,
              "velocity": 90,
              "position": 0,
              "duration": 0.010416666666666666
            },
            {
              "pitch": 42,
              "velocity": 54,
              "position": 0.5,
              "duration": 0.010416666666666666
            },
            {
              "pitch": 61,
              "velocity": 50,
              "position": 0.5,
              "duration": 0.010416666666666666
            },
            {
              "pitch": 70,
              "velocity": 46,
              "position": 0.5,
              "duration": 0.010416666666666666
            },
            {
              "pitch": 32,
              "velocity": 70,
              "position": 1,
              "duration": 0.010416666666666666
            },
            {
              "pitch": 33,
              "velocity": 95,
              "position": 1,
              "duration": 0.010416666666666666
            },
            {
              "pitch": 42,
              "velocity": 95,
              "position": 1,
              "duration": 0.010416666666666666
            },
            {
              "pitch": 60,
              "velocity": 67,
              "position": 1,
              "duration": 0.010416666666666666
            },
            {
              "pitch": 70,
              "velocity": 87,
              "position": 1,
              "duration": 0.010416666666666666
            },
            {
              "pitch": 39,
              "velocity": 102,
              "position": 1.0208333333333333,
              "duration": 0.052083333333333336
            },
            {
              "pitch": 42,
              "velocity": 52,
              "position": 1.5,
              "duration": 0.010416666666666666
            },
            {
              "pitch": 70,
              "velocity": 44,
              "position": 1.5,
              "duration": 0.010416666666666666
            },
            {
              "pitch": 33,
              "velocity": 95,
              "position": 2,
              "duration": 0.010416666666666666
            },
            {
              "pitch": 42,
              "velocity": 98,
              "position": 2,
              "duration": 0.010416666666666666
            },
            {
              "pitch": 70,
              "velocity": 90,
              "position": 2,
              "duration": 0.010416666666666666
            },
            {
              "pitch": 42,
              "velocity": 54,
              "position": 2.5,
              "duration": 0.010416666666666666
            },
            {
              "pitch": 61,
              "velocity": 47,
              "position": 2.5,
              "duration": 0.010416666666666666
            },
            {
              "pitch": 70,
              "velocity": 46,
              "position": 2.5,
              "duration": 0.010416666666666666
            },
            {
              "pitch": 32,
              "velocity": 70,
              "position": 3,
              "duration": 0.010416666666666666
            },
            {
              "pitch": 33,
              "velocity": 95,
              "position": 3,
              "duration": 0.010416666666666666
            },
            {
              "pitch": 42,
              "velocity": 95,
              "position": 3,
              "duration": 0.010416666666666666
            },
            {
              "pitch": 70,
              "velocity": 87,
              "position": 3,
              "duration": 0.010416666666666666
            },
            {
              "pitch": 39,
              "velocity": 102,
              "position": 3.0208333333333335,
              "duration": 0.052083333333333336
            },
            {
              "pitch": 42,
              "velocity": 53,
              "position": 3.5,
              "duration": 0.010416666666666666
            },
            {
              "pitch": 61,
              "velocity": 48,
              "position": 3.5,
              "duration": 0.010416666666666666
            },
            {
              "pitch": 70,
              "velocity": 44,
              "position": 3.5,
              "duration": 0.010416666666666666
            },
            {
              "pitch": 33,
              "velocity": 95,
              "position": 4,
              "duration": 0.010416666666666666
            },
            {
              "pitch": 42,
              "velocity": 98,
              "position": 4,
              "duration": 0.010416666666666666
            },
            {
              "pitch": 70,
              "velocity": 90,
              "position": 4,
              "duration": 0.010416666666666666
            },
            {
              "pitch": 42,
              "velocity": 53,
              "position": 4.5,
              "duration": 0.010416666666666666
            },
            {
              "pitch": 61,
              "velocity": 47,
              "position": 4.5,
              "duration": 0.010416666666666666
            },
            {
              "pitch": 70,
              "velocity": 46,
              "position": 4.5,
              "duration": 0.010416666666666666
            },
            {
              "pitch": 32,
              "velocity": 70,
              "position": 5,
              "duration": 0.010416666666666666
            },
            {
              "pitch": 33,
              "velocity": 95,
              "position": 5,
              "duration": 0.010416666666666666
            },
            {
              "pitch": 42,
              "velocity": 91,
              "position": 5,
              "duration": 0.010416666666666666
            },
            {
              "pitch": 60,
              "velocity": 64,
              "position": 5,
              "duration": 0.010416666666666666
            },
            {
              "pitch": 70,
              "velocity": 87,
              "position": 5,
              "duration": 0.010416666666666666
            },
            {
              "pitch": 39,
              "velocity": 102,
              "position": 5.020833333333333,
              "duration": 0.052083333333333336
            },
            {
              "pitch": 42,
              "velocity": 51,
              "position": 5.5,
              "duration": 0.010416666666666666
            },
            {
              "pitch": 70,
              "velocity": 44,
              "position": 5.5,
              "duration": 0.010416666666666666
            },
            {
              "pitch": 33,
              "velocity": 95,
              "position": 6,
              "duration": 0.010416666666666666
            },
            {
              "pitch": 42,
              "velocity": 98,
              "position": 6,
              "duration": 0.010416666666666666
            },
            {
              "pitch": 70,
              "velocity": 90,
              "position": 6,
              "duration": 0.010416666666666666
            },
            {
              "pitch": 42,
              "velocity": 57,
              "position": 6.5,
              "duration": 0.010416666666666666
            },
            {
              "pitch": 61,
              "velocity": 50,
              "position": 6.5,
              "duration": 0.010416666666666666
            },
            {
              "pitch": 70,
              "velocity": 46,
              "position": 6.5,
              "duration": 0.010416666666666666
            },
            {
              "pitch": 32,
              "velocity": 70,
              "position": 7,
              "duration": 0.010416666666666666
            },
            {
              "pitch": 33,
              "velocity": 95,
              "position": 7,
              "duration": 0.010416666666666666
            },
            {
              "pitch": 42,
              "velocity": 95,
              "position": 7,
              "duration": 0.010416666666666666
            },
            {
              "pitch": 70,
              "velocity": 87,
              "position": 7,
              "duration": 0.010416666666666666
            },
            {
              "pitch": 39,
              "velocity": 102,
              "position": 7.020833333333333,
              "duration": 0.052083333333333336
            },
            {
              "pitch": 46,
              "velocity": 93,
              "position": 7.5,
              "duration": 0.010416666666666666
            },
            {
              "pitch": 61,
              "velocity": 48,
              "position": 7.5,
              "duration": 0.010416666666666666
            },
            {
              "pitch": 70,
              "velocity": 44,
              "position": 7.5,
              "duration": 0.010416666666666666
            }
          ]
        },
        "10": {
          "ctab": {
            "srcChannel": 10,
            "name": "Bass",
            "accType": "BASS",
            "editable": false,
            "mutedNotes": [],
            "mutedChords": [],
            "autoStart": false,
            "sourceChordNote": 0,
            "sourceChordType": "Maj7",
            "ctb2Low": null,
            "ctb2Main": {
              "ntr": "ROOT_TRANSPOSITION",
              "ntt": "MELODY",
              "bassOn": true,
              "chordRootUpperLimit": 3,
              "noteLowLimit": 28,
              "noteHighLimit": 49,
              "rtr": "PITCH_SHIFT_TO_ROOT"
            },
            "ctb2High": null
          },
          "notes": [
            {
              "pitch": 24,
              "velocity": 100,
              "position": 0.5,
              "duration": 0.5
            },
            {
              "pitch": 24,
              "velocity": 100,
              "position": 1.5,
              "duration": 0.5
            },
            {
              "pitch": 24,
              "velocity": 100,
              "position": 2.5,
              "duration": 0.5
            },
            {
              "pitch": 24,
              "velocity": 100,
              "position": 3.5,
              "duration": 0.5
            },
            {
              "pitch": 24,
              "velocity": 100,
              "position": 4.5,
              "duration": 0.5
            },
            {
              "pitch": 24,
              "velocity": 100,
              "position": 5.5,
              "duration": 0.5
            },
            {
              "pitch": 24,
              "velocity": 100,
              "position": 6.5,
              "duration": 0.5
            }
          ]
        },
        "11": {
          "ctab": {
            "srcChannel": 11,
            "name": "Organ",
            "accType": "CHORD1",
            "editable": false,
            "mutedNotes": [],
            "mutedChords": [],
            "autoStart": false,
            "sourceChordNote": 0,
            "sourceChordType": "min7(11)",
            "ctb2Low": null,
            "ctb2Main": {
              "ntr": "ROOT_TRANSPOSITION",
              "ntt": "CHORD",
              "bassOn": false,
              "chordRootUpperLimit": 3,
              "noteLowLimit": 28,
              "noteHighLimit": 127,
              "rtr": "PITCH_SHIFT"
            },
            "ctb2High": null
          },
          "notes": [
            {
              "pitch": 60,
              "velocity": 115,
              "position": 0.5,
              "duration": 0.4166666666666667
            },
            {
              "pitch": 67,
              "velocity": 115,
              "position": 0.5,
              "duration": 0.4166666666666667
            },
            {
              "pitch": 60,
              "velocity": 115,
              "position": 1.5,
              "duration": 0.4166666666666667
            },
            {
              "pitch": 67,
              "velocity": 115,
              "position": 1.5,
              "duration": 0.4166666666666667
            },
            {
              "pitch": 60,
              "velocity": 115,
              "position": 2.5,
              "duration": 0.4166666666666667
            },
            {
              "pitch": 67,
              "velocity": 115,
              "position": 2.5,
              "duration": 0.4166666666666667
            },
            {
              "pitch": 60,
              "velocity": 115,
              "position": 3.5,
              "duration": 0.4166666666666667
            },
            {
              "pitch": 67,
              "velocity": 115,
              "position": 3.5,
              "duration": 0.4166666666666667
            },
            {
              "pitch": 60,
              "velocity": 115,
              "position": 4.5,
              "duration": 0.4166666666666667
            },
            {
              "pitch": 67,
              "velocity": 115,
              "position": 4.5,
              "duration": 0.4166666666666667
            },
            {
              "pitch": 60,
              "velocity": 115,
              "position": 5.5,
              "duration": 0.4166666666666667
            },
            {
              "pitch": 67,
              "velocity": 115,
              "position": 5.5,
              "duration": 0.4166666666666667
            },
            {
              "pitch": 60,
              "velocity": 115,
              "position": 6.5,
              "duration": 0.4166666666666667
            },
            {
              "pitch": 67,
              "velocity": 115,
              "position": 6.5,
              "duration": 0.4166666666666667
            },
            {
              "pitch": 60,
              "velocity": 115,
              "position": 7.5,
              "duration": 0.4166666666666667
            },
            {
              "pitch": 67,
              "velocity": 115,
              "position": 7.5,
              "duration": 0.4166666666666667
            }
          ]
        },
        "12": {
          "ctab": {
            "srcChannel": 12,
            "name": "SySeq",
            "accType": "CHORD2",
            "editable": false,
            "mutedNotes": [],
            "mutedChords": [],
            "autoStart": false,
            "sourceChordNote": 0,
            "sourceChordType": "Maj",
            "ctb2Low": null,
            "ctb2Main": {
              "ntr": "ROOT_FIXED",
              "ntt": "CHORD",
              "bassOn": false,
              "chordRootUpperLimit": 7,
              "noteLowLimit": 0,
              "noteHighLimit": 127,
              "rtr": "PITCH_SHIFT"
            },
            "ctb2High": null
          },
          "notes": []
        },
        "13": {
          "ctab": {
            "srcChannel": 13,
            "name": "Sweep",
            "accType": "PAD",
            "editable": false,
            "mutedNotes": [],
            "mutedChords": [],
            "autoStart": false,
            "sourceChordNote": 0,
            "sourceChordType": "Maj7",
            "ctb2Low": null,
            "ctb2Main": {
              "ntr": "ROOT_FIXED",
              "ntt": "CHORD",
              "bassOn": false,
              "chordRootUpperLimit": 7,
              "noteLowLimit": 0,
              "noteHighLimit": 127,
              "rtr": "PITCH_SHIFT"
            },
            "ctb2High": null
          },
          "notes": [
            {
              "pitch": 55,
              "velocity": 60,
              "position": 0,
              "duration": 7.979166666666667
            },
            {
              "pitch": 59,
              "velocity": 60,
              "position": 0,
              "duration": 7.979166666666667
            },
            {
              "pitch": 64,
              "velocity": 60,
              "position": 0,
              "duration": 7.979166666666667
            }
          ]
        },
        "14": {
          "ctab": {
            "srcChannel": 14,
            "name": "Ep",
            "accType": "PHRASE1",
            "editable": false,
            "mutedNotes": [],
            "mutedChords": [],
            "autoStart": false,
            "sourceChordNote": 0,
            "sourceChordType": "Maj7",
            "ctb2Low": null,
            "ctb2Main": {
              "ntr": "ROOT_FIXED",
              "ntt": "CHORD",
              "bassOn": false,
              "chordRootUpperLimit": 9,
              "noteLowLimit": 0,
              "noteHighLimit": 127,
              "rtr": "PITCH_SHIFT"
            },
            "ctb2High": null
          },
          "notes": [
            {
              "pitch": 55,
              "velocity": 91,
              "position": 0,
              "duration": 3.9895833333333335
            },
            {
              "pitch": 59,
              "velocity": 91,
              "position": 0,
              "duration": 3.9895833333333335
            },
            {
              "pitch": 64,
              "velocity": 91,
              "position": 0,
              "duration": 3.9895833333333335
            },
            {
              "pitch": 55,
              "velocity": 91,
              "position": 4,
              "duration": 3.9895833333333335
            },
            {
              "pitch": 59,
              "velocity": 91,
              "position": 4,
              "duration": 3.9895833333333335
            },
            {
              "pitch": 64,
              "velocity": 91,
              "position": 4,
              "duration": 3.9895833333333335
            }
          ]
        },
        "15": {
          "ctab": {
            "srcChannel": 15,
            "name": "Saw",
            "accType": "PHRASE2",
            "editable": false,
            "mutedNotes": [],
            "mutedChords": [],
            "autoStart": false,
            "sourceChordNote": 0,
            "sourceChordType": "Maj7",
            "ctb2Low": null,
            "ctb2Main": {
              "ntr": "ROOT_TRANSPOSITION",
              "ntt": "MELODY",
              "bassOn": true,
              "chordRootUpperLimit": 6,
              "noteLowLimit": 0,
              "noteHighLimit": 127,
              "rtr": "PITCH_SHIFT"
            },
            "ctb2High": null
          },
          "notes": []
        }
      }
    },
    "Main_D": {
      "type": "Main_D",
      "sizeInBeats": 16,
      "channels": {
        "1": {
          "ctab": {
            "srcChannel": 1,
            "name": "CC_Crash",
            "accType": "RHYTHM",
            "editable": false,
            "mutedNotes": [],
            "mutedChords": [
              "1+2+5",
              "sus4",
              "1+5",
              "1+8",
              "7aug",
              "Maj7aug",
              "7(#9)",
              "7(b13)",
              "7(b9)",
              "7(13)",
              "7#11",
              "7(9)",
              "7b5",
              "7sus4",
              "7th",
              "dim7",
              "dim",
              "minMaj7(9)",
              "minMaj7",
              "min7(11)",
              "min7(9)",
              "min(9)",
              "m7b5",
              "min7",
              "min6",
              "min",
              "aug",
              "Maj6(9)",
              "Maj7(9)",
              "Maj(9)",
              "Maj7#11",
              "Maj7",
              "Maj6",
              "Maj"
            ],
            "autoStart": true,
            "sourceChordNote": 0,
            "sourceChordType": "Maj",
            "ctb2Low": null,
            "ctb2Main": {
              "ntr": "ROOT_FIXED",
              "ntt": "BYPASS",
              "bassOn": false,
              "chordRootUpperLimit": 0,
              "noteLowLimit": 0,
              "noteHighLimit": 127,
              "rtr": "RETRIGGER"
            },
            "ctb2High": null
          },
          "notes": []
        },
        "5": {
          "ctab": {
            "srcChannel": 5,
            "name": "PadRoot",
            "accType": "PAD",
            "editable": false,
            "mutedNotes": [],
            "mutedChords": [
              "1+2+5",
              "sus4",
              "1+5",
              "1+8",
              "Maj7aug",
              "dim",
              "minMaj7(9)",
              "minMaj7",
              "min6",
              "min",
              "aug",
              "Maj7(9)",
              "Maj7#11",
              "Maj7",
              "Maj6",
              "Maj"
            ],
            "autoStart": false,
            "sourceChordNote": 0,
            "sourceChordType": "Maj7",
            "ctb2Low": null,
            "ctb2Main": {
              "ntr": "ROOT_TRANSPOSITION",
              "ntt": "MELODY",
              "bassOn": false,
              "chordRootUpperLimit": 6,
              "noteLowLimit": 0,
              "noteHighLimit": 127,
              "rtr": "PITCH_SHIFT"
            },
            "ctb2High": null
          },
          "notes": [
            {
              "pitch": 60,
              "velocity": 60,
              "position": 0,
              "duration": 15.989583333333334
            }
          ]
        },
        "6": {
          "ctab": {
            "srcChannel": 6,
            "name": "EpRoot",
            "accType": "PHRASE1",
            "editable": false,
            "mutedNotes": [],
            "mutedChords": [
              "1+2+5",
              "sus4",
              "1+5",
              "1+8",
              "Maj7aug",
              "dim",
              "minMaj7(9)",
              "minMaj7",
              "min6",
              "min",
              "aug",
              "Maj7(9)",
              "Maj7#11",
              "Maj7",
              "Maj6",
              "Maj"
            ],
            "autoStart": false,
            "sourceChordNote": 0,
            "sourceChordType": "Maj7",
            "ctb2Low": null,
            "ctb2Main": {
              "ntr": "ROOT_TRANSPOSITION",
              "ntt": "MELODY",
              "bassOn": false,
              "chordRootUpperLimit": 6,
              "noteLowLimit": 0,
              "noteHighLimit": 127,
              "rtr": "PITCH_SHIFT"
            },
            "ctb2High": null
          },
          "notes": []
        },
        "8": {
          "ctab": {
            "srcChannel": 8,
            "name": "Perc",
            "accType": "SUBRHYTHM",
            "editable": false,
            "mutedNotes": [],
            "mutedChords": [],
            "autoStart": true,
            "sourceChordNote": 0,
            "sourceChordType": "Maj7",
            "ctb2Low": null,
            "ctb2Main": {
              "ntr": "ROOT_FIXED",
              "ntt": "BYPASS",
              "bassOn": false,
              "chordRootUpperLimit": 6,
              "noteLowLimit": 0,
              "noteHighLimit": 127,
              "rtr": "PITCH_SHIFT"
            },
            "ctb2High": null
          },
          "notes": [
            {
              "pitch": 42,
              "velocity": 67,
              "position": 0,
              "duration": 0.010416666666666666
            },
            {
              "pitch": 54,
              "velocity": 84,
              "position": 0,
              "duration": 0.010416666666666666
            },
            {
              "pitch": 42,
              "velocity": 79,
              "position": 0.5,
              "duration": 0.010416666666666666
            },
            {
              "pitch": 54,
              "velocity": 59,
              "position": 0.5,
              "duration": 0.010416666666666666
            },
            {
              "pitch": 70,
              "velocity": 76,
              "position": 0.5,
              "duration": 0.010416666666666666
            },
            {
              "pitch": 82,
              "velocity": 73,
              "position": 0.5,
              "duration": 0.010416666666666666
            },
            {
              "pitch": 70,
              "velocity": 46,
              "position": 0.75,
              "duration": 0.010416666666666666
            },
            {
              "pitch": 82,
              "velocity": 43,
              "position": 0.75,
              "duration": 0.010416666666666666
            },
            {
              "pitch": 42,
              "velocity": 114,
              "position": 1,
              "duration": 0.010416666666666666
            },
            {
              "pitch": 54,
              "velocity": 71,
              "position": 1,
              "duration": 0.010416666666666666
            },
            {
              "pitch": 42,
              "velocity": 90,
              "position": 1.5,
              "duration": 0.010416666666666666
            },
            {
              "pitch": 54,
              "velocity": 61,
              "position": 1.5,
              "duration": 0.010416666666666666
            },
            {
              "pitch": 70,
              "velocity": 76,
              "position": 1.5,
              "duration": 0.010416666666666666
            },
            {
              "pitch": 82,
              "velocity": 73,
              "position": 1.5,
              "duration": 0.010416666666666666
            },
            {
              "pitch": 70,
              "velocity": 46,
              "position": 1.75,
              "duration": 0.010416666666666666
            },
            {
              "pitch": 82,
              "velocity": 43,
              "position": 1.75,
              "duration": 0.010416666666666666
            },
            {
              "pitch": 42,
              "velocity": 90,
              "position": 2,
              "duration": 0.010416666666666666
            },
            {
              "pitch": 54,
              "velocity": 67,
              "position": 2,
              "duration": 0.010416666666666666
            },
            {
              "pitch": 42,
              "velocity": 71,
              "position": 2.5,
              "duration": 0.010416666666666666
            },
            {
              "pitch": 54,
              "velocity": 47,
              "position": 2.5,
              "duration": 0.010416666666666666
            },
            {
              "pitch": 70,
              "velocity": 76,
              "position": 2.5,
              "duration": 0.010416666666666666
            },
            {
              "pitch": 82,
              "velocity": 73,
              "position": 2.5,
              "duration": 0.010416666666666666
            },
            {
              "pitch": 70,
              "velocity": 46,
              "position": 2.75,
              "duration": 0.010416666666666666
            },
            {
              "pitch": 82,
              "velocity": 43,
              "position": 2.75,
              "duration": 0.010416666666666666
            },
            {
              "pitch": 42,
              "velocity": 107,
              "position": 3,
              "duration": 0.010416666666666666
            },
            {
              "pitch": 54,
              "velocity": 71,
              "position": 3,
              "duration": 0.010416666666666666
            },
            {
              "pitch": 42,
              "velocity": 71,
              "position": 3.5,
              "duration": 0.010416666666666666
            },
            {
              "pitch": 54,
              "velocity": 49,
              "position": 3.5,
              "duration": 0.010416666666666666
            },
            {
              "pitch": 70,
              "velocity": 76,
              "position": 3.5,
              "duration": 0.010416666666666666
            },
            {
              "pitch": 82,
              "velocity": 73,
              "position": 3.5,
              "duration": 0.010416666666666666
            },
            {
              "pitch": 70,
              "velocity": 46,
              "position": 3.75,
              "duration": 0.010416666666666666
            },
            {
              "pitch": 82,
              "velocity": 43,
              "position": 3.75,
              "duration": 0.010416666666666666
            },
            {
              "pitch": 42,
              "velocity": 90,
              "position": 4,
              "duration": 0.010416666666666666
            },
            {
              "pitch": 54,
              "velocity": 53,
              "position": 4,
              "duration": 0.010416666666666666
            },
            {
              "pitch": 42,
              "velocity": 84,
              "position": 4.5,
              "duration": 0.010416666666666666
            },
            {
              "pitch": 54,
              "velocity": 59,
              "position": 4.5,
              "duration": 0.010416666666666666
            },
            {
              "pitch": 70,
              "velocity": 76,
              "position": 4.5,
              "duration": 0.010416666666666666
            },
            {
              "pitch": 82,
              "velocity": 73,
              "position": 4.5,
              "duration": 0.010416666666666666
            },
            {
              "pitch": 70,
              "velocity": 46,
              "position": 4.75,
              "duration": 0.010416666666666666
            },
            {
              "pitch": 82,
              "velocity": 43,
              "position": 4.75,
              "duration": 0.010416666666666666
            },
            {
              "pitch": 42,
              "velocity": 111,
              "position": 5,
              "duration": 0.010416666666666666
            },
            {
              "pitch": 54,
              "velocity": 74,
              "position": 5,
              "duration": 0.010416666666666666
            },
            {
              "pitch": 42,
              "velocity": 76,
              "position": 5.5,
              "duration": 0.010416666666666666
            },
            {
              "pitch": 54,
              "velocity": 46,
              "position": 5.5,
              "duration": 0.010416666666666666
            },
            {
              "pitch": 70,
              "velocity": 76,
              "position": 5.5,
              "duration": 0.010416666666666666
            },
            {
              "pitch": 82,
              "velocity": 73,
              "position": 5.5,
              "duration": 0.010416666666666666
            },
            {
              "pitch": 70,
              "velocity": 46,
              "position": 5.75,
              "duration": 0.010416666666666666
            },
            {
              "pitch": 82,
              "velocity": 43,
              "position": 5.75,
              "duration": 0.010416666666666666
            },
            {
              "pitch": 42,
              "velocity": 90,
              "position": 6,
              "duration": 0.010416666666666666
            },
            {
              "pitch": 54,
              "velocity": 55,
              "position": 6,
              "duration": 0.010416666666666666
            },
            {
              "pitch": 42,
              "velocity": 84,
              "position": 6.5,
              "duration": 0.010416666666666666
            },
            {
              "pitch": 54,
              "velocity": 45,
              "position": 6.5,
              "duration": 0.010416666666666666
            },
            {
              "pitch": 70,
              "velocity": 76,
              "position": 6.5,
              "duration": 0.010416666666666666
            },
            {
              "pitch": 82,
              "velocity": 73,
              "position": 6.5,
              "duration": 0.010416666666666666
            },
            {
              "pitch": 70,
              "velocity": 46,
              "position": 6.75,
              "duration": 0.010416666666666666
            },
            {
              "pitch": 82,
              "velocity": 43,
              "position": 6.75,
              "duration": 0.010416666666666666
            },
            {
              "pitch": 42,
              "velocity": 99,
              "position": 7,
              "duration": 0.010416666666666666
            },
            {
              "pitch": 54,
              "velocity": 76,
              "position": 7,
              "duration": 0.010416666666666666
            },
            {
              "pitch": 42,
              "velocity": 65,
              "position": 7.5,
              "duration": 0.010416666666666666
            },
            {
              "pitch": 54,
              "velocity": 48,
              "position": 7.5,
              "duration": 0.010416666666666666
            },
            {
              "pitch": 70,
              "velocity": 76,
              "position": 7.5,
              "duration": 0.010416666666666666
            },
            {
              "pitch": 82,
              "velocity": 73,
              "position": 7.5,
              "duration": 0.010416666666666666
            },
            {
              "pitch": 70,
              "velocity": 46,
              "position": 7.75,
              "duration": 0.010416666666666666
            },
            {
              "pitch": 82,
              "velocity": 43,
              "position": 7.75,
              "duration": 0.010416666666666666
            },
            {
              "pitch": 42,
              "velocity": 86,
              "position": 8,
              "duration": 0.010416666666666666
            },
            {
              "pitch": 54,
              "velocity": 49,
              "position": 8,
              "duration": 0.010416666666666666
            },
            {
              "pitch": 42,
              "velocity": 76,
              "position": 8.5,
              "duration": 0.010416666666666666
            },
            {
              "pitch": 54,
              "velocity": 52,
              "position": 8.5,
              "duration": 0.010416666666666666
            },
            {
              "pitch": 70,
              "velocity": 76,
              "position": 8.5,
              "duration": 0.010416666666666666
            },
            {
              "pitch": 82,
              "velocity": 73,
              "position": 8.5,
              "duration": 0.010416666666666666
            },
            {
              "pitch": 70,
              "velocity": 46,
              "position": 8.75,
              "duration": 0.010416666666666666
            },
            {
              "pitch": 82,
              "velocity": 43,
              "position": 8.75,
              "duration": 0.010416666666666666
            },
            {
              "pitch": 42,
              "velocity": 111,
              "position": 9,
              "duration": 0.010416666666666666
            },
            {
              "pitch": 54,
              "velocity": 88,
              "position": 9,
              "duration": 0.010416666666666666
            },
            {
              "pitch": 42,
              "velocity": 76,
              "position": 9.5,
              "duration": 0.010416666666666666
            },
            {
              "pitch": 54,
              "velocity": 54,
              "position": 9.5,
              "duration": 0.010416666666666666
            },
            {
              "pitch": 70,
              "velocity": 76,
              "position": 9.5,
              "duration": 0.010416666666666666
            },
            {
              "pitch": 82,
              "velocity": 73,
              "position": 9.5,
              "duration": 0.010416666666666666
            },
            {
              "pitch": 70,
              "velocity": 46,
              "position": 9.75,
              "duration": 0.010416666666666666
            },
            {
              "pitch": 82,
              "velocity": 43,
              "position": 9.75,
              "duration": 0.010416666666666666
            },
            {
              "pitch": 42,
              "velocity": 84,
              "position": 10,
              "duration": 0.010416666666666666
            },
            {
              "pitch": 54,
              "velocity": 53,
              "position": 10,
              "duration": 0.010416666666666666
            },
            {
              "pitch": 42,
              "velocity": 71,
              "position": 10.5,
              "duration": 0.010416666666666666
            },
            {
              "pitch": 54,
              "velocity": 45,
              "position": 10.5,
              "duration": 0.010416666666666666
            },
            {
              "pitch": 70,
              "velocity": 76,
              "position": 10.5,
              "duration": 0.010416666666666666
            },
            {
              "pitch": 82,
              "velocity": 73,
              "position": 10.5,
              "duration": 0.010416666666666666
            },
            {
              "pitch": 70,
              "velocity": 46,
              "position": 10.75,
              "duration": 0.010416666666666666
            },
            {
              "pitch": 82,
              "velocity": 43,
              "position": 10.75,
              "duration": 0.010416666666666666
            },
            {
              "pitch": 42,
              "velocity": 114,
              "position": 11,
              "duration": 0.010416666666666666
            },
            {
              "pitch": 54,
              "velocity": 76,
              "position": 11,
              "duration": 0.010416666666666666
            },
            {
              "pitch": 42,
              "velocity": 69,
              "position": 11.5,
              "duration": 0.010416666666666666
            },
            {
              "pitch": 54,
              "velocity": 58,
              "position": 11.5,
              "duration": 0.010416666666666666
            },
            {
              "pitch": 70,
              "velocity": 76,
              "position": 11.5,
              "duration": 0.010416666666666666
            },
            {
              "pitch": 82,
              "velocity": 73,
              "position": 11.5,
              "duration": 0.010416666666666666
            },
            {
              "pitch": 70,
              "velocity": 46,
              "position": 11.75,
              "duration": 0.010416666666666666
            },
            {
              "pitch": 82,
              "velocity": 43,
              "position": 11.75,
              "duration": 0.010416666666666666
            },
            {
              "pitch": 42,
              "velocity": 71,
              "position": 12,
              "duration": 0.010416666666666666
            },
            {
              "pitch": 54,
              "velocity": 53,
              "position": 12,
              "duration": 0.010416666666666666
            },
            {
              "pitch": 42,
              "velocity": 84,
              "position": 12.5,
              "duration": 0.010416666666666666
            },
            {
              "pitch": 54,
              "velocity": 57,
              "position": 12.5,
              "duration": 0.010416666666666666
            },
            {
              "pitch": 70,
              "velocity": 76,
              "position": 12.5,
              "duration": 0.010416666666666666
            },
            {
              "pitch": 82,
              "velocity": 73,
              "position": 12.5,
              "duration": 0.010416666666666666
            },
            {
              "pitch": 70,
              "velocity": 46,
              "position": 12.75,
              "duration": 0.010416666666666666
            },
            {
              "pitch": 82,
              "velocity": 43,
              "position": 12.75,
              "duration": 0.010416666666666666
            },
            {
              "pitch": 42,
              "velocity": 114,
              "position": 13,
              "duration": 0.010416666666666666
            },
            {
              "pitch": 54,
              "velocity": 82,
              "position": 13,
              "duration": 0.010416666666666666
            },
            {
              "pitch": 42,
              "velocity": 76,
              "position": 13.5,
              "duration": 0.010416666666666666
            },
            {
              "pitch": 54,
              "velocity": 71,
              "position": 13.5,
              "duration": 0.010416666666666666
            },
            {
              "pitch": 70,
              "velocity": 76,
              "position": 13.5,
              "duration": 0.010416666666666666
            },
            {
              "pitch": 82,
              "velocity": 73,
              "position": 13.5,
              "duration": 0.010416666666666666
            },
            {
              "pitch": 70,
              "velocity": 46,
              "position": 13.75,
              "duration": 0.010416666666666666
            },
            {
              "pitch": 82,
              "velocity": 43,
              "position": 13.75,
              "duration": 0.010416666666666666
            },
            {
              "pitch": 42,
              "velocity": 65,
              "position": 14,
              "duration": 0.010416666666666666
            },
            {
              "pitch": 54,
              "velocity": 61,
              "position": 14,
              "duration": 0.010416666666666666
            },
            {
              "pitch": 42,
              "velocity": 55,
              "position": 14.5,
              "duration": 0.010416666666666666
            },
            {
              "pitch": 54,
              "velocity": 57,
              "position": 14.5,
              "duration": 0.010416666666666666
            },
            {
              "pitch": 70,
              "velocity": 76,
              "position": 14.5,
              "duration": 0.010416666666666666
            },
            {
              "pitch": 82,
              "velocity": 73,
              "position": 14.5,
              "duration": 0.010416666666666666
            },
            {
              "pitch": 70,
              "velocity": 46,
              "position": 14.75,
              "duration": 0.010416666666666666
            },
            {
              "pitch": 82,
              "velocity": 43,
              "position": 14.75,
              "duration": 0.010416666666666666
            },
            {
              "pitch": 42,
              "velocity": 99,
              "position": 15,
              "duration": 0.010416666666666666
            },
            {
              "pitch": 54,
              "velocity": 86,
              "position": 15,
              "duration": 0.010416666666666666
            },
            {
              "pitch": 42,
              "velocity": 74,
              "position": 15.5,
              "duration": 0.010416666666666666
            },
            {
              "pitch": 54,
              "velocity": 71,
              "position": 15.5,
              "duration": 0.010416666666666666
            },
            {
              "pitch": 70,
              "velocity": 76,
              "position": 15.5,
              "duration": 0.010416666666666666
            },
            {
              "pitch": 82,
              "velocity": 73,
              "position": 15.5,
              "duration": 0.010416666666666666
            },
            {
              "pitch": 70,
              "velocity": 46,
              "position": 15.75,
              "duration": 0.010416666666666666
            },
            {
              "pitch": 82,
              "velocity": 43,
              "position": 15.75,
              "duration": 0.010416666666666666
            }
          ]
        },
        "9": {
          "ctab": {
            "srcChannel": 9,
            "name": "Drum",
            "accType": "RHYTHM",
            "editable": false,
            "mutedNotes": [],
            "mutedChords": [],
            "autoStart": true,
            "sourceChordNote": 0,
            "sourceChordType": "Maj7",
            "ctb2Low": null,
            "ctb2Main": {
              "ntr": "ROOT_FIXED",
              "ntt": "BYPASS",
              "bassOn": false,
              "chordRootUpperLimit": 6,
              "noteLowLimit": 0,
              "noteHighLimit": 127,
              "rtr": "PITCH_SHIFT"
            },
            "ctb2High": null
          },
          "notes": [
            {
              "pitch": 33,
              "velocity": 95,
              "position": 0,
              "duration": 0.010416666666666666
            },
            {
              "pitch": 42,
              "velocity": 98,
              "position": 0,
              "duration": 0.010416666666666666
            },
            {
              "pitch": 70,
              "velocity": 90,
              "position": 0,
              "duration": 0.010416666666666666
            },
            {
              "pitch": 81,
              "velocity": 38,
              "position": 0,
              "duration": 0.010416666666666666
            },
            {
              "pitch": 82,
              "velocity": 37,
              "position": 0,
              "duration": 0.010416666666666666
            },
            {
              "pitch": 42,
              "velocity": 54,
              "position": 0.5,
              "duration": 0.010416666666666666
            },
            {
              "pitch": 61,
              "velocity": 48,
              "position": 0.5,
              "duration": 0.010416666666666666
            },
            {
              "pitch": 70,
              "velocity": 46,
              "position": 0.5,
              "duration": 0.010416666666666666
            },
            {
              "pitch": 80,
              "velocity": 28,
              "position": 0.5,
              "duration": 0.010416666666666666
            },
            {
              "pitch": 82,
              "velocity": 31,
              "position": 0.5,
              "duration": 0.010416666666666666
            },
            {
              "pitch": 32,
              "velocity": 70,
              "position": 1,
              "duration": 0.010416666666666666
            },
            {
              "pitch": 33,
              "velocity": 95,
              "position": 1,
              "duration": 0.010416666666666666
            },
            {
              "pitch": 40,
              "velocity": 61,
              "position": 1,
              "duration": 0.010416666666666666
            },
            {
              "pitch": 42,
              "velocity": 95,
              "position": 1,
              "duration": 0.010416666666666666
            },
            {
              "pitch": 60,
              "velocity": 52,
              "position": 1,
              "duration": 0.010416666666666666
            },
            {
              "pitch": 70,
              "velocity": 87,
              "position": 1,
              "duration": 0.010416666666666666
            },
            {
              "pitch": 80,
              "velocity": 36,
              "position": 1,
              "duration": 0.010416666666666666
            },
            {
              "pitch": 82,
              "velocity": 35,
              "position": 1,
              "duration": 0.010416666666666666
            },
            {
              "pitch": 39,
              "velocity": 102,
              "position": 1.0208333333333333,
              "duration": 0.052083333333333336
            },
            {
              "pitch": 42,
              "velocity": 52,
              "position": 1.5,
              "duration": 0.010416666666666666
            },
            {
              "pitch": 70,
              "velocity": 44,
              "position": 1.5,
              "duration": 0.010416666666666666
            },
            {
              "pitch": 81,
              "velocity": 38,
              "position": 1.5,
              "duration": 0.010416666666666666
            },
            {
              "pitch": 82,
              "velocity": 27,
              "position": 1.5,
              "duration": 0.010416666666666666
            },
            {
              "pitch": 33,
              "velocity": 95,
              "position": 2,
              "duration": 0.010416666666666666
            },
            {
              "pitch": 42,
              "velocity": 98,
              "position": 2,
              "duration": 0.010416666666666666
            },
            {
              "pitch": 70,
              "velocity": 90,
              "position": 2,
              "duration": 0.010416666666666666
            },
            {
              "pitch": 80,
              "velocity": 31,
              "position": 2,
              "duration": 0.010416666666666666
            },
            {
              "pitch": 82,
              "velocity": 36,
              "position": 2,
              "duration": 0.010416666666666666
            },
            {
              "pitch": 42,
              "velocity": 54,
              "position": 2.5,
              "duration": 0.010416666666666666
            },
            {
              "pitch": 61,
              "velocity": 48,
              "position": 2.5,
              "duration": 0.010416666666666666
            },
            {
              "pitch": 70,
              "velocity": 46,
              "position": 2.5,
              "duration": 0.010416666666666666
            },
            {
              "pitch": 80,
              "velocity": 38,
              "position": 2.5,
              "duration": 0.010416666666666666
            },
            {
              "pitch": 82,
              "velocity": 34,
              "position": 2.5,
              "duration": 0.010416666666666666
            },
            {
              "pitch": 32,
              "velocity": 70,
              "position": 3,
              "duration": 0.010416666666666666
            },
            {
              "pitch": 33,
              "velocity": 95,
              "position": 3,
              "duration": 0.010416666666666666
            },
            {
              "pitch": 40,
              "velocity": 61,
              "position": 3,
              "duration": 0.010416666666666666
            },
            {
              "pitch": 42,
              "velocity": 95,
              "position": 3,
              "duration": 0.010416666666666666
            },
            {
              "pitch": 70,
              "velocity": 87,
              "position": 3,
              "duration": 0.010416666666666666
            },
            {
              "pitch": 81,
              "velocity": 36,
              "position": 3,
              "duration": 0.010416666666666666
            },
            {
              "pitch": 39,
              "velocity": 102,
              "position": 3.0208333333333335,
              "duration": 0.052083333333333336
            },
            {
              "pitch": 22,
              "velocity": 25,
              "position": 2.46875,
              "duration": 0.6354166666666666
            },
            {
              "pitch": 42,
              "velocity": 53,
              "position": 3.5,
              "duration": 0.010416666666666666
            },
            {
              "pitch": 61,
              "velocity": 45,
              "position": 3.5,
              "duration": 0.010416666666666666
            },
            {
              "pitch": 70,
              "velocity": 44,
              "position": 3.5,
              "duration": 0.010416666666666666
            },
            {
              "pitch": 80,
              "velocity": 42,
              "position": 3.5,
              "duration": 0.010416666666666666
            },
            {
              "pitch": 82,
              "velocity": 42,
              "position": 3.5,
              "duration": 0.010416666666666666
            },
            {
              "pitch": 42,
              "velocity": 42,
              "position": 3.75,
              "duration": 0.010416666666666666
            },
            {
              "pitch": 62,
              "velocity": 60,
              "position": 3.75,
              "duration": 0.010416666666666666
            },
            {
              "pitch": 33,
              "velocity": 95,
              "position": 4,
              "duration": 0.010416666666666666
            },
            {
              "pitch": 42,
              "velocity": 98,
              "position": 4,
              "duration": 0.010416666666666666
            },
            {
              "pitch": 70,
              "velocity": 90,
              "position": 4,
              "duration": 0.010416666666666666
            },
            {
              "pitch": 81,
              "velocity": 40,
              "position": 4,
              "duration": 0.010416666666666666
            },
            {
              "pitch": 82,
              "velocity": 36,
              "position": 4,
              "duration": 0.010416666666666666
            },
            {
              "pitch": 42,
              "velocity": 53,
              "position": 4.5,
              "duration": 0.010416666666666666
            },
            {
              "pitch": 61,
              "velocity": 44,
              "position": 4.5,
              "duration": 0.010416666666666666
            },
            {
              "pitch": 62,
              "velocity": 79,
              "position": 4.5,
              "duration": 0.010416666666666666
            },
            {
              "pitch": 70,
              "velocity": 46,
              "position": 4.5,
              "duration": 0.010416666666666666
            },
            {
              "pitch": 80,
              "velocity": 44,
              "position": 4.5,
              "duration": 0.010416666666666666
            },
            {
              "pitch": 82,
              "velocity": 37,
              "position": 4.5,
              "duration": 0.010416666666666666
            },
            {
              "pitch": 32,
              "velocity": 70,
              "position": 5,
              "duration": 0.010416666666666666
            },
            {
              "pitch": 33,
              "velocity": 95,
              "position": 5,
              "duration": 0.010416666666666666
            },
            {
              "pitch": 40,
              "velocity": 61,
              "position": 5,
              "duration": 0.010416666666666666
            },
            {
              "pitch": 42,
              "velocity": 91,
              "position": 5,
              "duration": 0.010416666666666666
            },
            {
              "pitch": 60,
              "velocity": 52,
              "position": 5,
              "duration": 0.010416666666666666
            },
            {
              "pitch": 70,
              "velocity": 87,
              "position": 5,
              "duration": 0.010416666666666666
            },
            {
              "pitch": 80,
              "velocity": 36,
              "position": 5,
              "duration": 0.010416666666666666
            },
            {
              "pitch": 39,
              "velocity": 102,
              "position": 5.020833333333333,
              "duration": 0.052083333333333336
            },
            {
              "pitch": 42,
              "velocity": 51,
              "position": 5.5,
              "duration": 0.010416666666666666
            },
            {
              "pitch": 70,
              "velocity": 44,
              "position": 5.5,
              "duration": 0.010416666666666666
            },
            {
              "pitch": 81,
              "velocity": 44,
              "position": 5.5,
              "duration": 0.010416666666666666
            },
            {
              "pitch": 82,
              "velocity": 31,
              "position": 5.5,
              "duration": 0.010416666666666666
            },
            {
              "pitch": 33,
              "velocity": 95,
              "position": 6,
              "duration": 0.010416666666666666
            },
            {
              "pitch": 42,
              "velocity": 98,
              "position": 6,
              "duration": 0.010416666666666666
            },
            {
              "pitch": 70,
              "velocity": 90,
              "position": 6,
              "duration": 0.010416666666666666
            },
            {
              "pitch": 80,
              "velocity": 31,
              "position": 6,
              "duration": 0.010416666666666666
            },
            {
              "pitch": 82,
              "velocity": 36,
              "position": 6,
              "duration": 0.010416666666666666
            },
            {
              "pitch": 42,
              "velocity": 57,
              "position": 6.5,
              "duration": 0.010416666666666666
            },
            {
              "pitch": 61,
              "velocity": 46,
              "position": 6.5,
              "duration": 0.010416666666666666
            },
            {
              "pitch": 70,
              "velocity": 46,
              "position": 6.5,
              "duration": 0.010416666666666666
            },
            {
              "pitch": 80,
              "velocity": 36,
              "position": 6.5,
              "duration": 0.010416666666666666
            },
            {
              "pitch": 82,
              "velocity": 35,
              "position": 6.5,
              "duration": 0.010416666666666666
            },
            {
              "pitch": 32,
              "velocity": 70,
              "position": 7,
              "duration": 0.010416666666666666
            },
            {
              "pitch": 33,
              "velocity": 95,
              "position": 7,
              "duration": 0.010416666666666666
            },
            {
              "pitch": 40,
              "velocity": 61,
              "position": 7,
              "duration": 0.010416666666666666
            },
            {
              "pitch": 42,
              "velocity": 95,
              "position": 7,
              "duration": 0.010416666666666666
            },
            {
              "pitch": 70,
              "velocity": 87,
              "position": 7,
              "duration": 0.010416666666666666
            },
            {
              "pitch": 81,
              "velocity": 32,
              "position": 7,
              "duration": 0.010416666666666666
            },
            {
              "pitch": 82,
              "velocity": 35,
              "position": 7,
              "duration": 0.010416666666666666
            },
            {
              "pitch": 39,
              "velocity": 102,
              "position": 7.020833333333333,
              "duration": 0.052083333333333336
            },
            {
              "pitch": 46,
              "velocity": 93,
              "position": 7.5,
              "duration": 0.010416666666666666
            },
            {
              "pitch": 61,
              "velocity": 31,
              "position": 7.5,
              "duration": 0.010416666666666666
            },
            {
              "pitch": 70,
              "velocity": 44,
              "position": 7.5,
              "duration": 0.010416666666666666
            },
            {
              "pitch": 80,
              "velocity": 37,
              "position": 7.5,
              "duration": 0.010416666666666666
            },
            {
              "pitch": 82,
              "velocity": 35,
              "position": 7.5,
              "duration": 0.010416666666666666
            },
            {
              "pitch": 33,
              "velocity": 95,
              "position": 8,
              "duration": 0.010416666666666666
            },
            {
              "pitch": 42,
              "velocity": 98,
              "position": 8,
              "duration": 0.010416666666666666
            },
            {
              "pitch": 61,
              "velocity": 38,
              "position": 8,
              "duration": 0.010416666666666666
            },
            {
              "pitch": 70,
              "velocity": 90,
              "position": 8,
              "duration": 0.010416666666666666
            },
            {
              "pitch": 81,
              "velocity": 34,
              "position": 8,
              "duration": 0.010416666666666666
            },
            {
              "pitch": 82,
              "velocity": 39,
              "position": 8,
              "duration": 0.010416666666666666
            },
            {
              "pitch": 42,
              "velocity": 54,
              "position": 8.5,
              "duration": 0.010416666666666666
            },
            {
              "pitch": 61,
              "velocity": 48,
              "position": 8.5,
              "duration": 0.010416666666666666
            },
            {
              "pitch": 70,
              "velocity": 46,
              "position": 8.5,
              "duration": 0.010416666666666666
            },
            {
              "pitch": 80,
              "velocity": 34,
              "position": 8.5,
              "duration": 0.010416666666666666
            },
            {
              "pitch": 82,
              "velocity": 34,
              "position": 8.5,
              "duration": 0.010416666666666666
            },
            {
              "pitch": 32,
              "velocity": 70,
              "position": 9,
              "duration": 0.010416666666666666
            },
            {
              "pitch": 33,
              "velocity": 95,
              "position": 9,
              "duration": 0.010416666666666666
            },
            {
              "pitch": 40,
              "velocity": 61,
              "position": 9,
              "duration": 0.010416666666666666
            },
            {
              "pitch": 42,
              "velocity": 95,
              "position": 9,
              "duration": 0.010416666666666666
            },
            {
              "pitch": 60,
              "velocity": 65,
              "position": 9,
              "duration": 0.010416666666666666
            },
            {
              "pitch": 70,
              "velocity": 87,
              "position": 9,
              "duration": 0.010416666666666666
            },
            {
              "pitch": 80,
              "velocity": 35,
              "position": 9,
              "duration": 0.010416666666666666
            },
            {
              "pitch": 82,
              "velocity": 36,
              "position": 9,
              "duration": 0.010416666666666666
            },
            {
              "pitch": 39,
              "velocity": 102,
              "position": 9.020833333333334,
              "duration": 0.052083333333333336
            },
            {
              "pitch": 42,
              "velocity": 52,
              "position": 9.5,
              "duration": 0.010416666666666666
            },
            {
              "pitch": 70,
              "velocity": 44,
              "position": 9.5,
              "duration": 0.010416666666666666
            },
            {
              "pitch": 81,
              "velocity": 36,
              "position": 9.5,
              "duration": 0.010416666666666666
            },
            {
              "pitch": 82,
              "velocity": 32,
              "position": 9.5,
              "duration": 0.010416666666666666
            },
            {
              "pitch": 33,
              "velocity": 95,
              "position": 10,
              "duration": 0.010416666666666666
            },
            {
              "pitch": 42,
              "velocity": 98,
              "position": 10,
              "duration": 0.010416666666666666
            },
            {
              "pitch": 70,
              "velocity": 90,
              "position": 10,
              "duration": 0.010416666666666666
            },
            {
              "pitch": 80,
              "velocity": 34,
              "position": 10,
              "duration": 0.010416666666666666
            },
            {
              "pitch": 82,
              "velocity": 37,
              "position": 10,
              "duration": 0.010416666666666666
            },
            {
              "pitch": 42,
              "velocity": 54,
              "position": 10.5,
              "duration": 0.010416666666666666
            },
            {
              "pitch": 61,
              "velocity": 45,
              "position": 10.5,
              "duration": 0.010416666666666666
            },
            {
              "pitch": 70,
              "velocity": 46,
              "position": 10.5,
              "duration": 0.010416666666666666
            },
            {
              "pitch": 80,
              "velocity": 36,
              "position": 10.5,
              "duration": 0.010416666666666666
            },
            {
              "pitch": 82,
              "velocity": 47,
              "position": 10.5,
              "duration": 0.010416666666666666
            },
            {
              "pitch": 32,
              "velocity": 70,
              "position": 11,
              "duration": 0.010416666666666666
            },
            {
              "pitch": 33,
              "velocity": 95,
              "position": 11,
              "duration": 0.010416666666666666
            },
            {
              "pitch": 40,
              "velocity": 61,
              "position": 11,
              "duration": 0.010416666666666666
            },
            {
              "pitch": 42,
              "velocity": 95,
              "position": 11,
              "duration": 0.010416666666666666
            },
            {
              "pitch": 70,
              "velocity": 87,
              "position": 11,
              "duration": 0.010416666666666666
            },
            {
              "pitch": 81,
              "velocity": 43,
              "position": 11,
              "duration": 0.010416666666666666
            },
            {
              "pitch": 39,
              "velocity": 102,
              "position": 11.020833333333334,
              "duration": 0.052083333333333336
            },
            {
              "pitch": 22,
              "velocity": 25,
              "position": 10.46875,
              "duration": 0.6354166666666666
            },
            {
              "pitch": 42,
              "velocity": 53,
              "position": 11.5,
              "duration": 0.010416666666666666
            },
            {
              "pitch": 61,
              "velocity": 46,
              "position": 11.5,
              "duration": 0.010416666666666666
            },
            {
              "pitch": 70,
              "velocity": 44,
              "position": 11.5,
              "duration": 0.010416666666666666
            },
            {
              "pitch": 80,
              "velocity": 39,
              "position": 11.5,
              "duration": 0.010416666666666666
            },
            {
              "pitch": 82,
              "velocity": 43,
              "position": 11.5,
              "duration": 0.010416666666666666
            },
            {
              "pitch": 42,
              "velocity": 42,
              "position": 11.75,
              "duration": 0.010416666666666666
            },
            {
              "pitch": 62,
              "velocity": 63,
              "position": 11.75,
              "duration": 0.010416666666666666
            },
            {
              "pitch": 33,
              "velocity": 95,
              "position": 12,
              "duration": 0.010416666666666666
            },
            {
              "pitch": 42,
              "velocity": 98,
              "position": 12,
              "duration": 0.010416666666666666
            },
            {
              "pitch": 70,
              "velocity": 90,
              "position": 12,
              "duration": 0.010416666666666666
            },
            {
              "pitch": 81,
              "velocity": 33,
              "position": 12,
              "duration": 0.010416666666666666
            },
            {
              "pitch": 82,
              "velocity": 43,
              "position": 12,
              "duration": 0.010416666666666666
            },
            {
              "pitch": 42,
              "velocity": 53,
              "position": 12.5,
              "duration": 0.010416666666666666
            },
            {
              "pitch": 61,
              "velocity": 45,
              "position": 12.5,
              "duration": 0.010416666666666666
            },
            {
              "pitch": 62,
              "velocity": 81,
              "position": 12.5,
              "duration": 0.010416666666666666
            },
            {
              "pitch": 70,
              "velocity": 46,
              "position": 12.5,
              "duration": 0.010416666666666666
            },
            {
              "pitch": 80,
              "velocity": 35,
              "position": 12.5,
              "duration": 0.010416666666666666
            },
            {
              "pitch": 82,
              "velocity": 38,
              "position": 12.5,
              "duration": 0.010416666666666666
            },
            {
              "pitch": 32,
              "velocity": 70,
              "position": 13,
              "duration": 0.010416666666666666
            },
            {
              "pitch": 33,
              "velocity": 95,
              "position": 13,
              "duration": 0.010416666666666666
            },
            {
              "pitch": 40,
              "velocity": 61,
              "position": 13,
              "duration": 0.010416666666666666
            },
            {
              "pitch": 42,
              "velocity": 91,
              "position": 13,
              "duration": 0.010416666666666666
            },
            {
              "pitch": 60,
              "velocity": 62,
              "position": 13,
              "duration": 0.010416666666666666
            },
            {
              "pitch": 70,
              "velocity": 87,
              "position": 13,
              "duration": 0.010416666666666666
            },
            {
              "pitch": 80,
              "velocity": 34,
              "position": 13,
              "duration": 0.010416666666666666
            },
            {
              "pitch": 39,
              "velocity": 102,
              "position": 13.020833333333334,
              "duration": 0.052083333333333336
            },
            {
              "pitch": 42,
              "velocity": 51,
              "position": 13.5,
              "duration": 0.010416666666666666
            },
            {
              "pitch": 70,
              "velocity": 44,
              "position": 13.5,
              "duration": 0.010416666666666666
            },
            {
              "pitch": 81,
              "velocity": 37,
              "position": 13.5,
              "duration": 0.010416666666666666
            },
            {
              "pitch": 82,
              "velocity": 42,
              "position": 13.5,
              "duration": 0.010416666666666666
            },
            {
              "pitch": 33,
              "velocity": 95,
              "position": 14,
              "duration": 0.010416666666666666
            },
            {
              "pitch": 42,
              "velocity": 98,
              "position": 14,
              "duration": 0.010416666666666666
            },
            {
              "pitch": 70,
              "velocity": 90,
              "position": 14,
              "duration": 0.010416666666666666
            },
            {
              "pitch": 80,
              "velocity": 30,
              "position": 14,
              "duration": 0.010416666666666666
            },
            {
              "pitch": 82,
              "velocity": 41,
              "position": 14,
              "duration": 0.010416666666666666
            },
            {
              "pitch": 42,
              "velocity": 57,
              "position": 14.5,
              "duration": 0.010416666666666666
            },
            {
              "pitch": 61,
              "velocity": 48,
              "position": 14.5,
              "duration": 0.010416666666666666
            },
            {
              "pitch": 70,
              "velocity": 46,
              "position": 14.5,
              "duration": 0.010416666666666666
            },
            {
              "pitch": 80,
              "velocity": 38,
              "position": 14.5,
              "duration": 0.010416666666666666
            },
            {
              "pitch": 82,
              "velocity": 44,
              "position": 14.5,
              "duration": 0.010416666666666666
            },
            {
              "pitch": 32,
              "velocity": 70,
              "position": 15,
              "duration": 0.010416666666666666
            },
            {
              "pitch": 33,
              "velocity": 95,
              "position": 15,
              "duration": 0.010416666666666666
            },
            {
              "pitch": 40,
              "velocity": 61,
              "position": 15,
              "duration": 0.010416666666666666
            },
            {
              "pitch": 42,
              "velocity": 95,
              "position": 15,
              "duration": 0.010416666666666666
            },
            {
              "pitch": 70,
              "velocity": 87,
              "position": 15,
              "duration": 0.010416666666666666
            },
            {
              "pitch": 81,
              "velocity": 43,
              "position": 15,
              "duration": 0.010416666666666666
            },
            {
              "pitch": 82,
              "velocity": 37,
              "position": 15,
              "duration": 0.010416666666666666
            },
            {
              "pitch": 39,
              "velocity": 102,
              "position": 15.020833333333334,
              "duration": 0.052083333333333336
            },
            {
              "pitch": 46,
              "velocity": 93,
              "position": 15.5,
              "duration": 0.010416666666666666
            },
            {
              "pitch": 61,
              "velocity": 46,
              "position": 15.5,
              "duration": 0.010416666666666666
            },
            {
              "pitch": 70,
              "velocity": 44,
              "position": 15.5,
              "duration": 0.010416666666666666
            },
            {
              "pitch": 80,
              "velocity": 36,
              "position": 15.5,
              "duration": 0.010416666666666666
            },
            {
              "pitch": 82,
              "velocity": 39,
              "position": 15.5,
              "duration": 0.010416666666666666
            }
          ]
        },
        "10": {
          "ctab": {
            "srcChannel": 10,
            "name": "Bass",
            "accType": "BASS",
            "editable": false,
            "mutedNotes": [],
            "mutedChords": [],
            "autoStart": false,
            "sourceChordNote": 0,
            "sourceChordType": "Maj7",
            "ctb2Low": null,
            "ctb2Main": {
              "ntr": "ROOT_TRANSPOSITION",
              "ntt": "MELODY",
              "bassOn": true,
              "chordRootUpperLimit": 3,
              "noteLowLimit": 28,
              "noteHighLimit": 49,
              "rtr": "PITCH_SHIFT_TO_ROOT"
            },
            "ctb2High": null
          },
          "notes": [
            {
              "pitch": 24,
              "velocity": 100,
              "position": 0.5,
              "duration": 0.5
            },
            {
              "pitch": 24,
              "velocity": 100,
              "position": 1.5,
              "duration": 0.5
            },
            {
              "pitch": 24,
              "velocity": 100,
              "position": 2.5,
              "duration": 0.5
            },
            {
              "pitch": 24,
              "velocity": 100,
              "position": 3.5,
              "duration": 0.5
            },
            {
              "pitch": 24,
              "velocity": 100,
              "position": 4.5,
              "duration": 0.5
            },
            {
              "pitch": 24,
              "velocity": 100,
              "position": 5.5,
              "duration": 0.5
            },
            {
              "pitch": 24,
              "velocity": 100,
              "position": 6.5,
              "duration": 0.5
            },
            {
              "pitch": 24,
              "velocity": 100,
              "position": 7.5,
              "duration": 0.5
            },
            {
              "pitch": 24,
              "velocity": 100,
              "position": 8.5,
              "duration": 0.5
            },
            {
              "pitch": 24,
              "velocity": 100,
              "position": 9.5,
              "duration": 0.5
            },
            {
              "pitch": 24,
              "velocity": 100,
              "position": 10.5,
              "duration": 0.5
            },
            {
              "pitch": 24,
              "velocity": 100,
              "position": 11.5,
              "duration": 0.5
            },
            {
              "pitch": 24,
              "velocity": 100,
              "position": 12.5,
              "duration": 0.5
            },
            {
              "pitch": 24,
              "velocity": 100,
              "position": 13.5,
              "duration": 0.5
            },
            {
              "pitch": 24,
              "velocity": 100,
              "position": 14.5,
              "duration": 0.5
            }
          ]
        },
        "11": {
          "ctab": {
            "srcChannel": 11,
            "name": "Organ",
            "accType": "CHORD1",
            "editable": false,
            "mutedNotes": [],
            "mutedChords": [],
            "autoStart": false,
            "sourceChordNote": 0,
            "sourceChordType": "min7(11)",
            "ctb2Low": null,
            "ctb2Main": {
              "ntr": "ROOT_TRANSPOSITION",
              "ntt": "CHORD",
              "bassOn": false,
              "chordRootUpperLimit": 3,
              "noteLowLimit": 28,
              "noteHighLimit": 127,
              "rtr": "PITCH_SHIFT"
            },
            "ctb2High": null
          },
          "notes": [
            {
              "pitch": 60,
              "velocity": 115,
              "position": 0.5,
              "duration": 0.4166666666666667
            },
            {
              "pitch": 67,
              "velocity": 115,
              "position": 0.5,
              "duration": 0.4166666666666667
            },
            {
              "pitch": 60,
              "velocity": 115,
              "position": 1.5,
              "duration": 0.4166666666666667
            },
            {
              "pitch": 67,
              "velocity": 115,
              "position": 1.5,
              "duration": 0.4166666666666667
            },
            {
              "pitch": 60,
              "velocity": 115,
              "position": 2.5,
              "duration": 0.4166666666666667
            },
            {
              "pitch": 67,
              "velocity": 115,
              "position": 2.5,
              "duration": 0.4166666666666667
            },
            {
              "pitch": 60,
              "velocity": 115,
              "position": 3.5,
              "duration": 0.4166666666666667
            },
            {
              "pitch": 67,
              "velocity": 115,
              "position": 3.5,
              "duration": 0.4166666666666667
            },
            {
              "pitch": 60,
              "velocity": 115,
              "position": 4.5,
              "duration": 0.4166666666666667
            },
            {
              "pitch": 67,
              "velocity": 115,
              "position": 4.5,
              "duration": 0.4166666666666667
            },
            {
              "pitch": 60,
              "velocity": 115,
              "position": 5.5,
              "duration": 0.4166666666666667
            },
            {
              "pitch": 67,
              "velocity": 115,
              "position": 5.5,
              "duration": 0.4166666666666667
            },
            {
              "pitch": 60,
              "velocity": 115,
              "position": 6.5,
              "duration": 0.4166666666666667
            },
            {
              "pitch": 67,
              "velocity": 115,
              "position": 6.5,
              "duration": 0.4166666666666667
            },
            {
              "pitch": 60,
              "velocity": 115,
              "position": 7.5,
              "duration": 0.4166666666666667
            },
            {
              "pitch": 67,
              "velocity": 115,
              "position": 7.5,
              "duration": 0.4166666666666667
            },
            {
              "pitch": 60,
              "velocity": 115,
              "position": 8.5,
              "duration": 0.4166666666666667
            },
            {
              "pitch": 67,
              "velocity": 115,
              "position": 8.5,
              "duration": 0.4166666666666667
            },
            {
              "pitch": 60,
              "velocity": 115,
              "position": 9.5,
              "duration": 0.4166666666666667
            },
            {
              "pitch": 67,
              "velocity": 115,
              "position": 9.5,
              "duration": 0.4166666666666667
            },
            {
              "pitch": 60,
              "velocity": 115,
              "position": 10.5,
              "duration": 0.4166666666666667
            },
            {
              "pitch": 67,
              "velocity": 115,
              "position": 10.5,
              "duration": 0.4166666666666667
            },
            {
              "pitch": 60,
              "velocity": 115,
              "position": 11.5,
              "duration": 0.4166666666666667
            },
            {
              "pitch": 67,
              "velocity": 115,
              "position": 11.5,
              "duration": 0.4166666666666667
            },
            {
              "pitch": 60,
              "velocity": 115,
              "position": 12.5,
              "duration": 0.4166666666666667
            },
            {
              "pitch": 67,
              "velocity": 115,
              "position": 12.5,
              "duration": 0.4166666666666667
            },
            {
              "pitch": 60,
              "velocity": 115,
              "position": 13.5,
              "duration": 0.4166666666666667
            },
            {
              "pitch": 67,
              "velocity": 115,
              "position": 13.5,
              "duration": 0.4166666666666667
            },
            {
              "pitch": 60,
              "velocity": 115,
              "position": 14.5,
              "duration": 0.4166666666666667
            },
            {
              "pitch": 67,
              "velocity": 115,
              "position": 14.5,
              "duration": 0.4166666666666667
            },
            {
              "pitch": 60,
              "velocity": 115,
              "position": 15.5,
              "duration": 0.4166666666666667
            },
            {
              "pitch": 67,
              "velocity": 115,
              "position": 15.5,
              "duration": 0.4166666666666667
            }
          ]
        },
        "12": {
          "ctab": {
            "srcChannel": 12,
            "name": "SySeq",
            "accType": "CHORD2",
            "editable": false,
            "mutedNotes": [],
            "mutedChords": [],
            "autoStart": false,
            "sourceChordNote": 0,
            "sourceChordType": "Maj",
            "ctb2Low": null,
            "ctb2Main": {
              "ntr": "ROOT_FIXED",
              "ntt": "CHORD",
              "bassOn": false,
              "chordRootUpperLimit": 7,
              "noteLowLimit": 0,
              "noteHighLimit": 127,
              "rtr": "PITCH_SHIFT"
            },
            "ctb2High": null
          },
          "notes": [
            {
              "pitch": 72,
              "velocity": 52,
              "position": 3.5,
              "duration": 0.17708333333333334
            },
            {
              "pitch": 72,
              "velocity": 67,
              "position": 3.75,
              "duration": 0.17708333333333334
            },
            {
              "pitch": 72,
              "velocity": 67,
              "position": 4,
              "duration": 0.17708333333333334
            },
            {
              "pitch": 72,
              "velocity": 69,
              "position": 4.5,
              "duration": 0.17708333333333334
            },
            {
              "pitch": 72,
              "velocity": 76,
              "position": 11.5,
              "duration": 0.17708333333333334
            },
            {
              "pitch": 72,
              "velocity": 76,
              "position": 11.75,
              "duration": 0.17708333333333334
            },
            {
              "pitch": 72,
              "velocity": 90,
              "position": 12,
              "duration": 0.17708333333333334
            },
            {
              "pitch": 72,
              "velocity": 99,
              "position": 12.5,
              "duration": 0.17708333333333334
            }
          ]
        },
        "13": {
          "ctab": {
            "srcChannel": 13,
            "name": "Sweep",
            "accType": "PAD",
            "editable": false,
            "mutedNotes": [],
            "mutedChords": [],
            "autoStart": false,
            "sourceChordNote": 0,
            "sourceChordType": "Maj7",
            "ctb2Low": null,
            "ctb2Main": {
              "ntr": "ROOT_FIXED",
              "ntt": "CHORD",
              "bassOn": false,
              "chordRootUpperLimit": 7,
              "noteLowLimit": 0,
              "noteHighLimit": 127,
              "rtr": "PITCH_SHIFT"
            },
            "ctb2High": null
          },
          "notes": [
            {
              "pitch": 55,
              "velocity": 60,
              "position": 0,
              "duration": 15.989583333333334
            },
            {
              "pitch": 59,
              "velocity": 60,
              "position": 0,
              "duration": 15.989583333333334
            },
            {
              "pitch": 64,
              "velocity": 60,
              "position": 0,
              "duration": 15.989583333333334
            }
          ]
        },
        "14": {
          "ctab": {
            "srcChannel": 14,
            "name": "Ep",
            "accType": "PHRASE1",
            "editable": false,
            "mutedNotes": [],
            "mutedChords": [],
            "autoStart": false,
            "sourceChordNote": 0,
            "sourceChordType": "Maj7",
            "ctb2Low": null,
            "ctb2Main": {
              "ntr": "ROOT_FIXED",
              "ntt": "CHORD",
              "bassOn": false,
              "chordRootUpperLimit": 9,
              "noteLowLimit": 0,
              "noteHighLimit": 127,
              "rtr": "PITCH_SHIFT"
            },
            "ctb2High": null
          },
          "notes": [
            {
              "pitch": 71,
              "velocity": 111,
              "position": 2,
              "duration": 2.9895833333333335
            },
            {
              "pitch": 67,
              "velocity": 110,
              "position": 1.5,
              "duration": 3.9791666666666665
            },
            {
              "pitch": 64,
              "velocity": 111,
              "position": 1,
              "duration": 5.354166666666667
            },
            {
              "pitch": 59,
              "velocity": 109,
              "position": 0.5,
              "duration": 5.864583333333333
            },
            {
              "pitch": 67,
              "velocity": 113,
              "position": 5.5,
              "duration": 0.9895833333333334
            },
            {
              "pitch": 64,
              "velocity": 119,
              "position": 6.5,
              "duration": 0.4895833333333333
            },
            {
              "pitch": 59,
              "velocity": 111,
              "position": 7,
              "duration": 0.4895833333333333
            },
            {
              "pitch": 55,
              "velocity": 110,
              "position": 0,
              "duration": 7.864583333333333
            },
            {
              "pitch": 64,
              "velocity": 105,
              "position": 7.5,
              "duration": 0.5208333333333334
            },
            {
              "pitch": 71,
              "velocity": 105,
              "position": 10,
              "duration": 3.4270833333333335
            },
            {
              "pitch": 67,
              "velocity": 109,
              "position": 9.5,
              "duration": 3.9583333333333335
            },
            {
              "pitch": 59,
              "velocity": 104,
              "position": 8.5,
              "duration": 5.427083333333333
            },
            {
              "pitch": 64,
              "velocity": 110,
              "position": 9,
              "duration": 4.9375
            },
            {
              "pitch": 67,
              "velocity": 113,
              "position": 13.5,
              "duration": 0.9895833333333334
            },
            {
              "pitch": 64,
              "velocity": 108,
              "position": 14.5,
              "duration": 0.4895833333333333
            },
            {
              "pitch": 59,
              "velocity": 112,
              "position": 15,
              "duration": 0.4895833333333333
            },
            {
              "pitch": 55,
              "velocity": 105,
              "position": 8,
              "duration": 7.916666666666667
            },
            {
              "pitch": 64,
              "velocity": 110,
              "position": 15.5,
              "duration": 0.4583333333333333
            }
          ]
        },
        "15": {
          "ctab": {
            "srcChannel": 15,
            "name": "Saw",
            "accType": "PHRASE2",
            "editable": false,
            "mutedNotes": [],
            "mutedChords": [],
            "autoStart": false,
            "sourceChordNote": 0,
            "sourceChordType": "Maj7",
            "ctb2Low": null,
            "ctb2Main": {
              "ntr": "ROOT_TRANSPOSITION",
              "ntt": "MELODY",
              "bassOn": true,
              "chordRootUpperLimit": 6,
              "noteLowLimit": 0,
              "noteHighLimit": 127,
              "rtr": "PITCH_SHIFT"
            },
            "ctb2High": null
          },
          "notes": [
            {
              "pitch": 60,
              "velocity": 62,
              "position": 0,
              "duration": 0.4791666666666667
            },
            {
              "pitch": 60,
              "velocity": 90,
              "position": 0.5,
              "duration": 0.3958333333333333
            },
            {
              "pitch": 60,
              "velocity": 88,
              "position": 1.5,
              "duration": 0.4791666666666667
            },
            {
              "pitch": 60,
              "velocity": 62,
              "position": 2,
              "duration": 0.4791666666666667
            },
            {
              "pitch": 60,
              "velocity": 90,
              "position": 2.5,
              "duration": 0.3958333333333333
            },
            {
              "pitch": 60,
              "velocity": 88,
              "position": 3.5,
              "duration": 0.4791666666666667
            },
            {
              "pitch": 60,
              "velocity": 62,
              "position": 4,
              "duration": 0.4791666666666667
            },
            {
              "pitch": 60,
              "velocity": 90,
              "position": 4.5,
              "duration": 0.3958333333333333
            },
            {
              "pitch": 60,
              "velocity": 88,
              "position": 5.5,
              "duration": 0.4791666666666667
            },
            {
              "pitch": 60,
              "velocity": 62,
              "position": 6,
              "duration": 0.4791666666666667
            },
            {
              "pitch": 60,
              "velocity": 90,
              "position": 6.5,
              "duration": 0.3958333333333333
            },
            {
              "pitch": 60,
              "velocity": 88,
              "position": 7.5,
              "duration": 0.4791666666666667
            },
            {
              "pitch": 60,
              "velocity": 62,
              "position": 8,
              "duration": 0.4791666666666667
            },
            {
              "pitch": 60,
              "velocity": 90,
              "position": 8.5,
              "duration": 0.3958333333333333
            },
            {
              "pitch": 60,
              "velocity": 88,
              "position": 9.5,
              "duration": 0.4791666666666667
            },
            {
              "pitch": 60,
              "velocity": 62,
              "position": 10,
              "duration": 0.4791666666666667
            },
            {
              "pitch": 60,
              "velocity": 90,
              "position": 10.5,
              "duration": 0.3958333333333333
            },
            {
              "pitch": 60,
              "velocity": 88,
              "position": 11.5,
              "duration": 0.4791666666666667
            },
            {
              "pitch": 60,
              "velocity": 62,
              "position": 12,
              "duration": 0.4791666666666667
            },
            {
              "pitch": 60,
              "velocity": 90,
              "position": 12.5,
              "duration": 0.3958333333333333
            },
            {
              "pitch": 60,
              "velocity": 88,
              "position": 13.5,
              "duration": 0.4791666666666667
            },
            {
              "pitch": 60,
              "velocity": 62,
              "position": 14,
              "duration": 0.4791666666666667
            },
            {
              "pitch": 60,
              "velocity": 90,
              "position": 14.5,
              "duration": 0.3958333333333333
            },
            {
              "pitch": 60,
              "velocity": 88,
              "position": 15.5,
              "duration": 0.4791666666666667
            }
          ]
        }
      }
    },
    "Fill_In_AA": {
      "type": "Fill_In_AA",
      "sizeInBeats": 4,
      "channels": {
        "1": {
          "ctab": {
            "srcChannel": 1,
            "name": "CC_Crash",
            "accType": "RHYTHM",
            "editable": false,
            "mutedNotes": [],
            "mutedChords": [
              "1+2+5",
              "sus4",
              "1+5",
              "1+8",
              "7aug",
              "Maj7aug",
              "7(#9)",
              "7(b13)",
              "7(b9)",
              "7(13)",
              "7#11",
              "7(9)",
              "7b5",
              "7sus4",
              "7th",
              "dim7",
              "dim",
              "minMaj7(9)",
              "minMaj7",
              "min7(11)",
              "min7(9)",
              "min(9)",
              "m7b5",
              "min7",
              "min6",
              "min",
              "aug",
              "Maj6(9)",
              "Maj7(9)",
              "Maj(9)",
              "Maj7#11",
              "Maj7",
              "Maj6",
              "Maj"
            ],
            "autoStart": true,
            "sourceChordNote": 0,
            "sourceChordType": "Maj",
            "ctb2Low": null,
            "ctb2Main": {
              "ntr": "ROOT_FIXED",
              "ntt": "BYPASS",
              "bassOn": false,
              "chordRootUpperLimit": 0,
              "noteLowLimit": 0,
              "noteHighLimit": 127,
              "rtr": "RETRIGGER"
            },
            "ctb2High": null
          },
          "notes": []
        },
        "5": {
          "ctab": {
            "srcChannel": 5,
            "name": "PadRoot",
            "accType": "PAD",
            "editable": false,
            "mutedNotes": [],
            "mutedChords": [
              "1+2+5",
              "sus4",
              "1+5",
              "1+8",
              "Maj7aug",
              "dim",
              "minMaj7(9)",
              "minMaj7",
              "min6",
              "min",
              "aug",
              "Maj7(9)",
              "Maj7#11",
              "Maj7",
              "Maj6",
              "Maj"
            ],
            "autoStart": false,
            "sourceChordNote": 0,
            "sourceChordType": "Maj7",
            "ctb2Low": null,
            "ctb2Main": {
              "ntr": "ROOT_TRANSPOSITION",
              "ntt": "MELODY",
              "bassOn": false,
              "chordRootUpperLimit": 6,
              "noteLowLimit": 0,
              "noteHighLimit": 127,
              "rtr": "PITCH_SHIFT"
            },
            "ctb2High": null
          },
          "notes": []
        },
        "6": {
          "ctab": {
            "srcChannel": 6,
            "name": "EpRoot",
            "accType": "PHRASE1",
            "editable": false,
            "mutedNotes": [],
            "mutedChords": [
              "1+2+5",
              "sus4",
              "1+5",
              "1+8",
              "Maj7aug",
              "dim",
              "minMaj7(9)",
              "minMaj7",
              "min6",
              "min",
              "aug",
              "Maj7(9)",
              "Maj7#11",
              "Maj7",
              "Maj6",
              "Maj"
            ],
            "autoStart": false,
            "sourceChordNote": 0,
            "sourceChordType": "Maj7",
            "ctb2Low": null,
            "ctb2Main": {
              "ntr": "ROOT_TRANSPOSITION",
              "ntt": "MELODY",
              "bassOn": false,
              "chordRootUpperLimit": 6,
              "noteLowLimit": 0,
              "noteHighLimit": 127,
              "rtr": "PITCH_SHIFT"
            },
            "ctb2High": null
          },
          "notes": []
        },
        "8": {
          "ctab": {
            "srcChannel": 8,
            "name": "Perc",
            "accType": "SUBRHYTHM",
            "editable": false,
            "mutedNotes": [],
            "mutedChords": [],
            "autoStart": true,
            "sourceChordNote": 0,
            "sourceChordType": "Maj7",
            "ctb2Low": null,
            "ctb2Main": {
              "ntr": "ROOT_FIXED",
              "ntt": "BYPASS",
              "bassOn": false,
              "chordRootUpperLimit": 6,
              "noteLowLimit": 0,
              "noteHighLimit": 127,
              "rtr": "PITCH_SHIFT"
            },
            "ctb2High": null
          },
          "notes": []
        },
        "9": {
          "ctab": {
            "srcChannel": 9,
            "name": "Drum",
            "accType": "RHYTHM",
            "editable": false,
            "mutedNotes": [],
            "mutedChords": [],
            "autoStart": true,
            "sourceChordNote": 0,
            "sourceChordType": "Maj7",
            "ctb2Low": null,
            "ctb2Main": {
              "ntr": "ROOT_FIXED",
              "ntt": "BYPASS",
              "bassOn": false,
              "chordRootUpperLimit": 6,
              "noteLowLimit": 0,
              "noteHighLimit": 127,
              "rtr": "PITCH_SHIFT"
            },
            "ctb2High": null
          },
          "notes": [
            {
              "pitch": 33,
              "velocity": 95,
              "position": 0,
              "duration": 0.010416666666666666
            },
            {
              "pitch": 42,
              "velocity": 98,
              "position": 0,
              "duration": 0.010416666666666666
            },
            {
              "pitch": 70,
              "velocity": 90,
              "position": 0,
              "duration": 0.010416666666666666
            },
            {
              "pitch": 42,
              "velocity": 53,
              "position": 0.5,
              "duration": 0.010416666666666666
            },
            {
              "pitch": 70,
              "velocity": 46,
              "position": 0.5,
              "duration": 0.010416666666666666
            },
            {
              "pitch": 32,
              "velocity": 73,
              "position": 1,
              "duration": 0.010416666666666666
            },
            {
              "pitch": 33,
              "velocity": 95,
              "position": 1,
              "duration": 0.010416666666666666
            },
            {
              "pitch": 42,
              "velocity": 91,
              "position": 1,
              "duration": 0.010416666666666666
            },
            {
              "pitch": 70,
              "velocity": 87,
              "position": 1,
              "duration": 0.010416666666666666
            },
            {
              "pitch": 42,
              "velocity": 51,
              "position": 1.5,
              "duration": 0.010416666666666666
            },
            {
              "pitch": 70,
              "velocity": 44,
              "position": 1.5,
              "duration": 0.010416666666666666
            },
            {
              "pitch": 33,
              "velocity": 95,
              "position": 2,
              "duration": 0.010416666666666666
            },
            {
              "pitch": 42,
              "velocity": 98,
              "position": 2,
              "duration": 0.010416666666666666
            },
            {
              "pitch": 70,
              "velocity": 90,
              "position": 2,
              "duration": 0.010416666666666666
            },
            {
              "pitch": 42,
              "velocity": 57,
              "position": 2.5,
              "duration": 0.010416666666666666
            },
            {
              "pitch": 70,
              "velocity": 46,
              "position": 2.5,
              "duration": 0.010416666666666666
            },
            {
              "pitch": 39,
              "velocity": 90,
              "position": 2.5208333333333335,
              "duration": 0.052083333333333336
            },
            {
              "pitch": 33,
              "velocity": 95,
              "position": 3,
              "duration": 0.010416666666666666
            },
            {
              "pitch": 42,
              "velocity": 95,
              "position": 3,
              "duration": 0.010416666666666666
            },
            {
              "pitch": 70,
              "velocity": 87,
              "position": 3,
              "duration": 0.010416666666666666
            },
            {
              "pitch": 39,
              "velocity": 90,
              "position": 3.0208333333333335,
              "duration": 0.052083333333333336
            },
            {
              "pitch": 46,
              "velocity": 93,
              "position": 3.5,
              "duration": 0.010416666666666666
            },
            {
              "pitch": 70,
              "velocity": 44,
              "position": 3.5,
              "duration": 0.010416666666666666
            }
          ]
        },
        "10": {
          "ctab": {
            "srcChannel": 10,
            "name": "Bass",
            "accType": "BASS",
            "editable": false,
            "mutedNotes": [],
            "mutedChords": [],
            "autoStart": false,
            "sourceChordNote": 0,
            "sourceChordType": "Maj7",
            "ctb2Low": null,
            "ctb2Main": {
              "ntr": "ROOT_TRANSPOSITION",
              "ntt": "MELODY",
              "bassOn": true,
              "chordRootUpperLimit": 3,
              "noteLowLimit": 28,
              "noteHighLimit": 49,
              "rtr": "PITCH_SHIFT_TO_ROOT"
            },
            "ctb2High": null
          },
          "notes": [
            {
              "pitch": 24,
              "velocity": 100,
              "position": 0.5,
              "duration": 0.5
            },
            {
              "pitch": 24,
              "velocity": 100,
              "position": 1.5,
              "duration": 0.5
            },
            {
              "pitch": 24,
              "velocity": 100,
              "position": 2.5,
              "duration": 0.5
            }
          ]
        },
        "11": {
          "ctab": {
            "srcChannel": 11,
            "name": "Organ",
            "accType": "CHORD1",
            "editable": false,
            "mutedNotes": [],
            "mutedChords": [],
            "autoStart": false,
            "sourceChordNote": 0,
            "sourceChordType": "min7(11)",
            "ctb2Low": null,
            "ctb2Main": {
              "ntr": "ROOT_TRANSPOSITION",
              "ntt": "CHORD",
              "bassOn": false,
              "chordRootUpperLimit": 3,
              "noteLowLimit": 28,
              "noteHighLimit": 127,
              "rtr": "PITCH_SHIFT"
            },
            "ctb2High": null
          },
          "notes": [
            {
              "pitch": 60,
              "velocity": 115,
              "position": 0.5,
              "duration": 0.4166666666666667
            },
            {
              "pitch": 67,
              "velocity": 115,
              "position": 0.5,
              "duration": 0.4166666666666667
            },
            {
              "pitch": 60,
              "velocity": 115,
              "position": 1.5,
              "duration": 0.4166666666666667
            },
            {
              "pitch": 67,
              "velocity": 115,
              "position": 1.5,
              "duration": 0.4166666666666667
            },
            {
              "pitch": 60,
              "velocity": 115,
              "position": 2.5,
              "duration": 0.4166666666666667
            },
            {
              "pitch": 67,
              "velocity": 115,
              "position": 2.5,
              "duration": 0.4166666666666667
            },
            {
              "pitch": 60,
              "velocity": 115,
              "position": 3.5,
              "duration": 0.4166666666666667
            },
            {
              "pitch": 67,
              "velocity": 115,
              "position": 3.5,
              "duration": 0.4166666666666667
            }
          ]
        },
        "12": {
          "ctab": {
            "srcChannel": 12,
            "name": "SySeq",
            "accType": "CHORD2",
            "editable": false,
            "mutedNotes": [],
            "mutedChords": [],
            "autoStart": false,
            "sourceChordNote": 0,
            "sourceChordType": "Maj",
            "ctb2Low": null,
            "ctb2Main": {
              "ntr": "ROOT_FIXED",
              "ntt": "CHORD",
              "bassOn": false,
              "chordRootUpperLimit": 7,
              "noteLowLimit": 0,
              "noteHighLimit": 127,
              "rtr": "PITCH_SHIFT"
            },
            "ctb2High": null
          },
          "notes": []
        },
        "13": {
          "ctab": {
            "srcChannel": 13,
            "name": "Sweep",
            "accType": "PAD",
            "editable": false,
            "mutedNotes": [],
            "mutedChords": [],
            "autoStart": false,
            "sourceChordNote": 0,
            "sourceChordType": "Maj7",
            "ctb2Low": null,
            "ctb2Main": {
              "ntr": "ROOT_FIXED",
              "ntt": "CHORD",
              "bassOn": false,
              "chordRootUpperLimit": 7,
              "noteLowLimit": 0,
              "noteHighLimit": 127,
              "rtr": "PITCH_SHIFT"
            },
            "ctb2High": null
          },
          "notes": []
        },
        "14": {
          "ctab": {
            "srcChannel": 14,
            "name": "Ep",
            "accType": "PHRASE1",
            "editable": false,
            "mutedNotes": [],
            "mutedChords": [],
            "autoStart": false,
            "sourceChordNote": 0,
            "sourceChordType": "Maj7",
            "ctb2Low": null,
            "ctb2Main": {
              "ntr": "ROOT_FIXED",
              "ntt": "CHORD",
              "bassOn": false,
              "chordRootUpperLimit": 9,
              "noteLowLimit": 0,
              "noteHighLimit": 127,
              "rtr": "PITCH_SHIFT"
            },
            "ctb2High": null
          },
          "notes": []
        },
        "15": {
          "ctab": {
            "srcChannel": 15,
            "name": "Saw",
            "accType": "PHRASE2",
            "editable": false,
            "mutedNotes": [],
            "mutedChords": [],
            "autoStart": false,
            "sourceChordNote": 0,
            "sourceChordType": "Maj7",
            "ctb2Low": null,
            "ctb2Main": {
              "ntr": "ROOT_TRANSPOSITION",
              "ntt": "MELODY",
              "bassOn": true,
              "chordRootUpperLimit": 6,
              "noteLowLimit": 0,
              "noteHighLimit": 127,
              "rtr": "PITCH_SHIFT"
            },
            "ctb2High": null
          },
          "notes": []
        }
      }
    },
    "Fill_In_BB": {
      "type": "Fill_In_BB",
      "sizeInBeats": 4,
      "channels": {
        "1": {
          "ctab": {
            "srcChannel": 1,
            "name": "CC_Crash",
            "accType": "RHYTHM",
            "editable": false,
            "mutedNotes": [],
            "mutedChords": [
              "1+2+5",
              "sus4",
              "1+5",
              "1+8",
              "7aug",
              "Maj7aug",
              "7(#9)",
              "7(b13)",
              "7(b9)",
              "7(13)",
              "7#11",
              "7(9)",
              "7b5",
              "7sus4",
              "7th",
              "dim7",
              "dim",
              "minMaj7(9)",
              "minMaj7",
              "min7(11)",
              "min7(9)",
              "min(9)",
              "m7b5",
              "min7",
              "min6",
              "min",
              "aug",
              "Maj6(9)",
              "Maj7(9)",
              "Maj(9)",
              "Maj7#11",
              "Maj7",
              "Maj6",
              "Maj"
            ],
            "autoStart": true,
            "sourceChordNote": 0,
            "sourceChordType": "Maj",
            "ctb2Low": null,
            "ctb2Main": {
              "ntr": "ROOT_FIXED",
              "ntt": "BYPASS",
              "bassOn": false,
              "chordRootUpperLimit": 0,
              "noteLowLimit": 0,
              "noteHighLimit": 127,
              "rtr": "RETRIGGER"
            },
            "ctb2High": null
          },
          "notes": []
        },
        "5": {
          "ctab": {
            "srcChannel": 5,
            "name": "PadRoot",
            "accType": "PAD",
            "editable": false,
            "mutedNotes": [],
            "mutedChords": [
              "1+2+5",
              "sus4",
              "1+5",
              "1+8",
              "Maj7aug",
              "dim",
              "minMaj7(9)",
              "minMaj7",
              "min6",
              "min",
              "aug",
              "Maj7(9)",
              "Maj7#11",
              "Maj7",
              "Maj6",
              "Maj"
            ],
            "autoStart": false,
            "sourceChordNote": 0,
            "sourceChordType": "Maj7",
            "ctb2Low": null,
            "ctb2Main": {
              "ntr": "ROOT_TRANSPOSITION",
              "ntt": "MELODY",
              "bassOn": false,
              "chordRootUpperLimit": 6,
              "noteLowLimit": 0,
              "noteHighLimit": 127,
              "rtr": "PITCH_SHIFT"
            },
            "ctb2High": null
          },
          "notes": []
        },
        "6": {
          "ctab": {
            "srcChannel": 6,
            "name": "EpRoot",
            "accType": "PHRASE1",
            "editable": false,
            "mutedNotes": [],
            "mutedChords": [
              "1+2+5",
              "sus4",
              "1+5",
              "1+8",
              "Maj7aug",
              "dim",
              "minMaj7(9)",
              "minMaj7",
              "min6",
              "min",
              "aug",
              "Maj7(9)",
              "Maj7#11",
              "Maj7",
              "Maj6",
              "Maj"
            ],
            "autoStart": false,
            "sourceChordNote": 0,
            "sourceChordType": "Maj7",
            "ctb2Low": null,
            "ctb2Main": {
              "ntr": "ROOT_TRANSPOSITION",
              "ntt": "MELODY",
              "bassOn": false,
              "chordRootUpperLimit": 6,
              "noteLowLimit": 0,
              "noteHighLimit": 127,
              "rtr": "PITCH_SHIFT"
            },
            "ctb2High": null
          },
          "notes": [
            {
              "pitch": 60,
              "velocity": 78,
              "position": 0,
              "duration": 1.9270833333333333
            },
            {
              "pitch": 60,
              "velocity": 78,
              "position": 3,
              "duration": 0.4895833333333333
            }
          ]
        },
        "8": {
          "ctab": {
            "srcChannel": 8,
            "name": "Perc",
            "accType": "SUBRHYTHM",
            "editable": false,
            "mutedNotes": [],
            "mutedChords": [],
            "autoStart": true,
            "sourceChordNote": 0,
            "sourceChordType": "Maj7",
            "ctb2Low": null,
            "ctb2Main": {
              "ntr": "ROOT_FIXED",
              "ntt": "BYPASS",
              "bassOn": false,
              "chordRootUpperLimit": 6,
              "noteLowLimit": 0,
              "noteHighLimit": 127,
              "rtr": "PITCH_SHIFT"
            },
            "ctb2High": null
          },
          "notes": [
            {
              "pitch": 55,
              "velocity": 73,
              "position": 0,
              "duration": 0.010416666666666666
            },
            {
              "pitch": 82,
              "velocity": 73,
              "position": 0.5,
              "duration": 0.010416666666666666
            },
            {
              "pitch": 82,
              "velocity": 43,
              "position": 0.75,
              "duration": 0.010416666666666666
            },
            {
              "pitch": 82,
              "velocity": 73,
              "position": 1.5,
              "duration": 0.010416666666666666
            },
            {
              "pitch": 82,
              "velocity": 43,
              "position": 1.75,
              "duration": 0.010416666666666666
            },
            {
              "pitch": 82,
              "velocity": 73,
              "position": 2.5,
              "duration": 0.010416666666666666
            },
            {
              "pitch": 82,
              "velocity": 43,
              "position": 2.75,
              "duration": 0.010416666666666666
            },
            {
              "pitch": 82,
              "velocity": 73,
              "position": 3.5,
              "duration": 0.010416666666666666
            },
            {
              "pitch": 82,
              "velocity": 43,
              "position": 3.75,
              "duration": 0.010416666666666666
            }
          ]
        },
        "9": {
          "ctab": {
            "srcChannel": 9,
            "name": "Drum",
            "accType": "RHYTHM",
            "editable": false,
            "mutedNotes": [],
            "mutedChords": [],
            "autoStart": true,
            "sourceChordNote": 0,
            "sourceChordType": "Maj7",
            "ctb2Low": null,
            "ctb2Main": {
              "ntr": "ROOT_FIXED",
              "ntt": "BYPASS",
              "bassOn": false,
              "chordRootUpperLimit": 6,
              "noteLowLimit": 0,
              "noteHighLimit": 127,
              "rtr": "PITCH_SHIFT"
            },
            "ctb2High": null
          },
          "notes": [
            {
              "pitch": 33,
              "velocity": 95,
              "position": 0,
              "duration": 0.010416666666666666
            },
            {
              "pitch": 42,
              "velocity": 98,
              "position": 0,
              "duration": 0.010416666666666666
            },
            {
              "pitch": 70,
              "velocity": 90,
              "position": 0,
              "duration": 0.010416666666666666
            },
            {
              "pitch": 46,
              "velocity": 53,
              "position": 0.5,
              "duration": 0.010416666666666666
            },
            {
              "pitch": 70,
              "velocity": 46,
              "position": 0.5,
              "duration": 0.010416666666666666
            },
            {
              "pitch": 32,
              "velocity": 73,
              "position": 1,
              "duration": 0.010416666666666666
            },
            {
              "pitch": 33,
              "velocity": 95,
              "position": 1,
              "duration": 0.010416666666666666
            },
            {
              "pitch": 70,
              "velocity": 87,
              "position": 1,
              "duration": 0.010416666666666666
            },
            {
              "pitch": 46,
              "velocity": 51,
              "position": 1.5,
              "duration": 0.010416666666666666
            },
            {
              "pitch": 70,
              "velocity": 44,
              "position": 1.5,
              "duration": 0.010416666666666666
            },
            {
              "pitch": 39,
              "velocity": 90,
              "position": 1.5208333333333333,
              "duration": 0.052083333333333336
            },
            {
              "pitch": 33,
              "velocity": 95,
              "position": 2,
              "duration": 0.010416666666666666
            },
            {
              "pitch": 70,
              "velocity": 90,
              "position": 2,
              "duration": 0.010416666666666666
            },
            {
              "pitch": 46,
              "velocity": 57,
              "position": 2.5,
              "duration": 0.010416666666666666
            },
            {
              "pitch": 70,
              "velocity": 46,
              "position": 2.5,
              "duration": 0.010416666666666666
            },
            {
              "pitch": 22,
              "velocity": 64,
              "position": 2.5,
              "duration": 0.4270833333333333
            },
            {
              "pitch": 21,
              "velocity": 82,
              "position": 3,
              "duration": 0.010416666666666666
            },
            {
              "pitch": 32,
              "velocity": 73,
              "position": 3,
              "duration": 0.010416666666666666
            },
            {
              "pitch": 33,
              "velocity": 95,
              "position": 3,
              "duration": 0.010416666666666666
            },
            {
              "pitch": 42,
              "velocity": 95,
              "position": 3,
              "duration": 0.010416666666666666
            },
            {
              "pitch": 70,
              "velocity": 87,
              "position": 3,
              "duration": 0.010416666666666666
            },
            {
              "pitch": 46,
              "velocity": 93,
              "position": 3.5,
              "duration": 0.010416666666666666
            },
            {
              "pitch": 70,
              "velocity": 44,
              "position": 3.5,
              "duration": 0.010416666666666666
            },
            {
              "pitch": 39,
              "velocity": 90,
              "position": 3.5208333333333335,
              "duration": 0.052083333333333336
            }
          ]
        },
        "10": {
          "ctab": {
            "srcChannel": 10,
            "name": "Bass",
            "accType": "BASS",
            "editable": false,
            "mutedNotes": [],
            "mutedChords": [],
            "autoStart": false,
            "sourceChordNote": 0,
            "sourceChordType": "Maj7",
            "ctb2Low": null,
            "ctb2Main": {
              "ntr": "ROOT_TRANSPOSITION",
              "ntt": "MELODY",
              "bassOn": true,
              "chordRootUpperLimit": 3,
              "noteLowLimit": 28,
              "noteHighLimit": 49,
              "rtr": "PITCH_SHIFT_TO_ROOT"
            },
            "ctb2High": null
          },
          "notes": [
            {
              "pitch": 24,
              "velocity": 100,
              "position": 0.5,
              "duration": 0.5
            },
            {
              "pitch": 24,
              "velocity": 100,
              "position": 1.5,
              "duration": 0.5
            },
            {
              "pitch": 24,
              "velocity": 100,
              "position": 2.5,
              "duration": 0.5
            }
          ]
        },
        "11": {
          "ctab": {
            "srcChannel": 11,
            "name": "Organ",
            "accType": "CHORD1",
            "editable": false,
            "mutedNotes": [],
            "mutedChords": [],
            "autoStart": false,
            "sourceChordNote": 0,
            "sourceChordType": "min7(11)",
            "ctb2Low": null,
            "ctb2Main": {
              "ntr": "ROOT_TRANSPOSITION",
              "ntt": "CHORD",
              "bassOn": false,
              "chordRootUpperLimit": 3,
              "noteLowLimit": 28,
              "noteHighLimit": 127,
              "rtr": "PITCH_SHIFT"
            },
            "ctb2High": null
          },
          "notes": [
            {
              "pitch": 60,
              "velocity": 115,
              "position": 0.5,
              "duration": 0.4166666666666667
            },
            {
              "pitch": 67,
              "velocity": 115,
              "position": 0.5,
              "duration": 0.4166666666666667
            },
            {
              "pitch": 60,
              "velocity": 115,
              "position": 1.5,
              "duration": 0.4166666666666667
            },
            {
              "pitch": 67,
              "velocity": 115,
              "position": 1.5,
              "duration": 0.4166666666666667
            },
            {
              "pitch": 60,
              "velocity": 115,
              "position": 2.5,
              "duration": 0.4166666666666667
            },
            {
              "pitch": 67,
              "velocity": 115,
              "position": 2.5,
              "duration": 0.4166666666666667
            },
            {
              "pitch": 60,
              "velocity": 115,
              "position": 3.5,
              "duration": 0.4166666666666667
            },
            {
              "pitch": 67,
              "velocity": 115,
              "position": 3.5,
              "duration": 0.4166666666666667
            }
          ]
        },
        "12": {
          "ctab": {
            "srcChannel": 12,
            "name": "SySeq",
            "accType": "CHORD2",
            "editable": false,
            "mutedNotes": [],
            "mutedChords": [],
            "autoStart": false,
            "sourceChordNote": 0,
            "sourceChordType": "Maj",
            "ctb2Low": null,
            "ctb2Main": {
              "ntr": "ROOT_FIXED",
              "ntt": "CHORD",
              "bassOn": false,
              "chordRootUpperLimit": 7,
              "noteLowLimit": 0,
              "noteHighLimit": 127,
              "rtr": "PITCH_SHIFT"
            },
            "ctb2High": null
          },
          "notes": []
        },
        "13": {
          "ctab": {
            "srcChannel": 13,
            "name": "Sweep",
            "accType": "PAD",
            "editable": false,
            "mutedNotes": [],
            "mutedChords": [],
            "autoStart": false,
            "sourceChordNote": 0,
            "sourceChordType": "Maj7",
            "ctb2Low": null,
            "ctb2Main": {
              "ntr": "ROOT_FIXED",
              "ntt": "CHORD",
              "bassOn": false,
              "chordRootUpperLimit": 7,
              "noteLowLimit": 0,
              "noteHighLimit": 127,
              "rtr": "PITCH_SHIFT"
            },
            "ctb2High": null
          },
          "notes": []
        },
        "14": {
          "ctab": {
            "srcChannel": 14,
            "name": "Ep",
            "accType": "PHRASE1",
            "editable": false,
            "mutedNotes": [],
            "mutedChords": [],
            "autoStart": false,
            "sourceChordNote": 0,
            "sourceChordType": "Maj7",
            "ctb2Low": null,
            "ctb2Main": {
              "ntr": "ROOT_FIXED",
              "ntt": "CHORD",
              "bassOn": false,
              "chordRootUpperLimit": 9,
              "noteLowLimit": 0,
              "noteHighLimit": 127,
              "rtr": "PITCH_SHIFT"
            },
            "ctb2High": null
          },
          "notes": [
            {
              "pitch": 59,
              "velocity": 90,
              "position": 0,
              "duration": 1.9270833333333333
            },
            {
              "pitch": 64,
              "velocity": 90,
              "position": 0,
              "duration": 1.9375
            },
            {
              "pitch": 64,
              "velocity": 90,
              "position": 2.5,
              "duration": 0.4895833333333333
            },
            {
              "pitch": 59,
              "velocity": 90,
              "position": 3,
              "duration": 0.4895833333333333
            },
            {
              "pitch": 55,
              "velocity": 90,
              "position": 0,
              "duration": 3.9166666666666665
            },
            {
              "pitch": 64,
              "velocity": 90,
              "position": 3.5,
              "duration": 0.4583333333333333
            }
          ]
        },
        "15": {
          "ctab": {
            "srcChannel": 15,
            "name": "Saw",
            "accType": "PHRASE2",
            "editable": false,
            "mutedNotes": [],
            "mutedChords": [],
            "autoStart": false,
            "sourceChordNote": 0,
            "sourceChordType": "Maj7",
            "ctb2Low": null,
            "ctb2Main": {
              "ntr": "ROOT_TRANSPOSITION",
              "ntt": "MELODY",
              "bassOn": true,
              "chordRootUpperLimit": 6,
              "noteLowLimit": 0,
              "noteHighLimit": 127,
              "rtr": "PITCH_SHIFT"
            },
            "ctb2High": null
          },
          "notes": []
        }
      }
    },
    "Fill_In_CC": {
      "type": "Fill_In_CC",
      "sizeInBeats": 4,
      "channels": {
        "1": {
          "ctab": {
            "srcChannel": 1,
            "name": "CC_Crash",
            "accType": "RHYTHM",
            "editable": false,
            "mutedNotes": [],
            "mutedChords": [
              "1+2+5",
              "sus4",
              "1+5",
              "1+8",
              "7aug",
              "Maj7aug",
              "7(#9)",
              "7(b13)",
              "7(b9)",
              "7(13)",
              "7#11",
              "7(9)",
              "7b5",
              "7sus4",
              "7th",
              "dim7",
              "dim",
              "minMaj7(9)",
              "minMaj7",
              "min7(11)",
              "min7(9)",
              "min(9)",
              "m7b5",
              "min7",
              "min6",
              "min",
              "aug",
              "Maj6(9)",
              "Maj7(9)",
              "Maj(9)",
              "Maj7#11",
              "Maj7",
              "Maj6",
              "Maj"
            ],
            "autoStart": true,
            "sourceChordNote": 0,
            "sourceChordType": "Maj",
            "ctb2Low": null,
            "ctb2Main": {
              "ntr": "ROOT_FIXED",
              "ntt": "BYPASS",
              "bassOn": false,
              "chordRootUpperLimit": 0,
              "noteLowLimit": 0,
              "noteHighLimit": 127,
              "rtr": "RETRIGGER"
            },
            "ctb2High": null
          },
          "notes": []
        },
        "5": {
          "ctab": {
            "srcChannel": 5,
            "name": "PadRoot",
            "accType": "PAD",
            "editable": false,
            "mutedNotes": [],
            "mutedChords": [
              "1+2+5",
              "sus4",
              "1+5",
              "1+8",
              "Maj7aug",
              "dim",
              "minMaj7(9)",
              "minMaj7",
              "min6",
              "min",
              "aug",
              "Maj7(9)",
              "Maj7#11",
              "Maj7",
              "Maj6",
              "Maj"
            ],
            "autoStart": false,
            "sourceChordNote": 0,
            "sourceChordType": "Maj7",
            "ctb2Low": null,
            "ctb2Main": {
              "ntr": "ROOT_TRANSPOSITION",
              "ntt": "MELODY",
              "bassOn": false,
              "chordRootUpperLimit": 6,
              "noteLowLimit": 0,
              "noteHighLimit": 127,
              "rtr": "PITCH_SHIFT"
            },
            "ctb2High": null
          },
          "notes": []
        },
        "6": {
          "ctab": {
            "srcChannel": 6,
            "name": "EpRoot",
            "accType": "PHRASE1",
            "editable": false,
            "mutedNotes": [],
            "mutedChords": [
              "1+2+5",
              "sus4",
              "1+5",
              "1+8",
              "Maj7aug",
              "dim",
              "minMaj7(9)",
              "minMaj7",
              "min6",
              "min",
              "aug",
              "Maj7(9)",
              "Maj7#11",
              "Maj7",
              "Maj6",
              "Maj"
            ],
            "autoStart": false,
            "sourceChordNote": 0,
            "sourceChordType": "Maj7",
            "ctb2Low": null,
            "ctb2Main": {
              "ntr": "ROOT_TRANSPOSITION",
              "ntt": "MELODY",
              "bassOn": false,
              "chordRootUpperLimit": 6,
              "noteLowLimit": 0,
              "noteHighLimit": 127,
              "rtr": "PITCH_SHIFT"
            },
            "ctb2High": null
          },
          "notes": [
            {
              "pitch": 60,
              "velocity": 88,
              "position": 0.020833333333333332,
              "duration": 3.96875
            }
          ]
        },
        "8": {
          "ctab": {
            "srcChannel": 8,
            "name": "Perc",
            "accType": "SUBRHYTHM",
            "editable": false,
            "mutedNotes": [],
            "mutedChords": [],
            "autoStart": true,
            "sourceChordNote": 0,
            "sourceChordType": "Maj7",
            "ctb2Low": null,
            "ctb2Main": {
              "ntr": "ROOT_FIXED",
              "ntt": "BYPASS",
              "bassOn": false,
              "chordRootUpperLimit": 6,
              "noteLowLimit": 0,
              "noteHighLimit": 127,
              "rtr": "PITCH_SHIFT"
            },
            "ctb2High": null
          },
          "notes": [
            {
              "pitch": 42,
              "velocity": 99,
              "position": 0,
              "duration": 0.010416666666666666
            },
            {
              "pitch": 57,
              "velocity": 73,
              "position": 0,
              "duration": 0.010416666666666666
            },
            {
              "pitch": 42,
              "velocity": 54,
              "position": 0.5,
              "duration": 0.010416666666666666
            },
            {
              "pitch": 70,
              "velocity": 76,
              "position": 0.5,
              "duration": 0.010416666666666666
            },
            {
              "pitch": 82,
              "velocity": 73,
              "position": 0.5,
              "duration": 0.010416666666666666
            },
            {
              "pitch": 70,
              "velocity": 46,
              "position": 0.75,
              "duration": 0.010416666666666666
            },
            {
              "pitch": 82,
              "velocity": 43,
              "position": 0.75,
              "duration": 0.010416666666666666
            },
            {
              "pitch": 42,
              "velocity": 103,
              "position": 1,
              "duration": 0.010416666666666666
            },
            {
              "pitch": 42,
              "velocity": 69,
              "position": 1.5,
              "duration": 0.010416666666666666
            },
            {
              "pitch": 70,
              "velocity": 76,
              "position": 1.5,
              "duration": 0.010416666666666666
            },
            {
              "pitch": 82,
              "velocity": 73,
              "position": 1.5,
              "duration": 0.010416666666666666
            },
            {
              "pitch": 70,
              "velocity": 46,
              "position": 1.75,
              "duration": 0.010416666666666666
            },
            {
              "pitch": 82,
              "velocity": 43,
              "position": 1.75,
              "duration": 0.010416666666666666
            },
            {
              "pitch": 42,
              "velocity": 95,
              "position": 2,
              "duration": 0.010416666666666666
            },
            {
              "pitch": 42,
              "velocity": 55,
              "position": 2.5,
              "duration": 0.010416666666666666
            },
            {
              "pitch": 70,
              "velocity": 76,
              "position": 2.5,
              "duration": 0.010416666666666666
            },
            {
              "pitch": 82,
              "velocity": 73,
              "position": 2.5,
              "duration": 0.010416666666666666
            },
            {
              "pitch": 70,
              "velocity": 46,
              "position": 2.75,
              "duration": 0.010416666666666666
            },
            {
              "pitch": 82,
              "velocity": 43,
              "position": 2.75,
              "duration": 0.010416666666666666
            },
            {
              "pitch": 42,
              "velocity": 107,
              "position": 3,
              "duration": 0.010416666666666666
            },
            {
              "pitch": 42,
              "velocity": 67,
              "position": 3.5,
              "duration": 0.010416666666666666
            },
            {
              "pitch": 70,
              "velocity": 76,
              "position": 3.5,
              "duration": 0.010416666666666666
            },
            {
              "pitch": 82,
              "velocity": 73,
              "position": 3.5,
              "duration": 0.010416666666666666
            },
            {
              "pitch": 70,
              "velocity": 46,
              "position": 3.75,
              "duration": 0.010416666666666666
            },
            {
              "pitch": 82,
              "velocity": 43,
              "position": 3.75,
              "duration": 0.010416666666666666
            }
          ]
        },
        "9": {
          "ctab": {
            "srcChannel": 9,
            "name": "Drum",
            "accType": "RHYTHM",
            "editable": false,
            "mutedNotes": [],
            "mutedChords": [],
            "autoStart": true,
            "sourceChordNote": 0,
            "sourceChordType": "Maj7",
            "ctb2Low": null,
            "ctb2Main": {
              "ntr": "ROOT_FIXED",
              "ntt": "BYPASS",
              "bassOn": false,
              "chordRootUpperLimit": 6,
              "noteLowLimit": 0,
              "noteHighLimit": 127,
              "rtr": "PITCH_SHIFT"
            },
            "ctb2High": null
          },
          "notes": [
            {
              "pitch": 33,
              "velocity": 95,
              "position": 0,
              "duration": 0.010416666666666666
            },
            {
              "pitch": 42,
              "velocity": 98,
              "position": 0,
              "duration": 0.010416666666666666
            },
            {
              "pitch": 70,
              "velocity": 90,
              "position": 0,
              "duration": 0.010416666666666666
            },
            {
              "pitch": 32,
              "velocity": 70,
              "position": 0.5,
              "duration": 0.010416666666666666
            },
            {
              "pitch": 42,
              "velocity": 44,
              "position": 0.5,
              "duration": 0.010416666666666666
            },
            {
              "pitch": 61,
              "velocity": 46,
              "position": 0.5,
              "duration": 0.010416666666666666
            },
            {
              "pitch": 70,
              "velocity": 46,
              "position": 0.5,
              "duration": 0.010416666666666666
            },
            {
              "pitch": 42,
              "velocity": 34,
              "position": 0.75,
              "duration": 0.010416666666666666
            },
            {
              "pitch": 32,
              "velocity": 70,
              "position": 1,
              "duration": 0.010416666666666666
            },
            {
              "pitch": 42,
              "velocity": 95,
              "position": 1,
              "duration": 0.010416666666666666
            },
            {
              "pitch": 60,
              "velocity": 54,
              "position": 1,
              "duration": 0.010416666666666666
            },
            {
              "pitch": 70,
              "velocity": 87,
              "position": 1,
              "duration": 0.010416666666666666
            },
            {
              "pitch": 39,
              "velocity": 102,
              "position": 1.0208333333333333,
              "duration": 0.052083333333333336
            },
            {
              "pitch": 42,
              "velocity": 52,
              "position": 1.5,
              "duration": 0.010416666666666666
            },
            {
              "pitch": 70,
              "velocity": 44,
              "position": 1.5,
              "duration": 0.010416666666666666
            },
            {
              "pitch": 42,
              "velocity": 98,
              "position": 2,
              "duration": 0.010416666666666666
            },
            {
              "pitch": 70,
              "velocity": 90,
              "position": 2,
              "duration": 0.010416666666666666
            },
            {
              "pitch": 33,
              "velocity": 95,
              "position": 2.5,
              "duration": 0.010416666666666666
            },
            {
              "pitch": 42,
              "velocity": 54,
              "position": 2.5,
              "duration": 0.010416666666666666
            },
            {
              "pitch": 61,
              "velocity": 48,
              "position": 2.5,
              "duration": 0.010416666666666666
            },
            {
              "pitch": 70,
              "velocity": 46,
              "position": 2.5,
              "duration": 0.010416666666666666
            },
            {
              "pitch": 32,
              "velocity": 70,
              "position": 3,
              "duration": 0.010416666666666666
            },
            {
              "pitch": 46,
              "velocity": 95,
              "position": 3,
              "duration": 0.010416666666666666
            },
            {
              "pitch": 70,
              "velocity": 87,
              "position": 3,
              "duration": 0.010416666666666666
            },
            {
              "pitch": 39,
              "velocity": 102,
              "position": 3.0208333333333335,
              "duration": 0.052083333333333336
            },
            {
              "pitch": 33,
              "velocity": 95,
              "position": 3.5,
              "duration": 0.010416666666666666
            },
            {
              "pitch": 61,
              "velocity": 33,
              "position": 3.5,
              "duration": 0.010416666666666666
            },
            {
              "pitch": 70,
              "velocity": 44,
              "position": 3.5,
              "duration": 0.010416666666666666
            }
          ]
        },
        "10": {
          "ctab": {
            "srcChannel": 10,
            "name": "Bass",
            "accType": "BASS",
            "editable": false,
            "mutedNotes": [],
            "mutedChords": [],
            "autoStart": false,
            "sourceChordNote": 0,
            "sourceChordType": "Maj7",
            "ctb2Low": null,
            "ctb2Main": {
              "ntr": "ROOT_TRANSPOSITION",
              "ntt": "MELODY",
              "bassOn": true,
              "chordRootUpperLimit": 3,
              "noteLowLimit": 28,
              "noteHighLimit": 49,
              "rtr": "PITCH_SHIFT_TO_ROOT"
            },
            "ctb2High": null
          },
          "notes": [
            {
              "pitch": 24,
              "velocity": 100,
              "position": 1.5,
              "duration": 0.5
            },
            {
              "pitch": 24,
              "velocity": 100,
              "position": 2.5,
              "duration": 0.5
            }
          ]
        },
        "11": {
          "ctab": {
            "srcChannel": 11,
            "name": "Organ",
            "accType": "CHORD1",
            "editable": false,
            "mutedNotes": [],
            "mutedChords": [],
            "autoStart": false,
            "sourceChordNote": 0,
            "sourceChordType": "min7(11)",
            "ctb2Low": null,
            "ctb2Main": {
              "ntr": "ROOT_TRANSPOSITION",
              "ntt": "CHORD",
              "bassOn": false,
              "chordRootUpperLimit": 3,
              "noteLowLimit": 28,
              "noteHighLimit": 127,
              "rtr": "PITCH_SHIFT"
            },
            "ctb2High": null
          },
          "notes": [
            {
              "pitch": 60,
              "velocity": 115,
              "position": 0.5,
              "duration": 0.4166666666666667
            },
            {
              "pitch": 67,
              "velocity": 115,
              "position": 0.5,
              "duration": 0.4166666666666667
            },
            {
              "pitch": 60,
              "velocity": 115,
              "position": 1.5,
              "duration": 0.4166666666666667
            },
            {
              "pitch": 67,
              "velocity": 115,
              "position": 1.5,
              "duration": 0.4166666666666667
            },
            {
              "pitch": 60,
              "velocity": 115,
              "position": 2.5,
              "duration": 0.4166666666666667
            },
            {
              "pitch": 67,
              "velocity": 115,
              "position": 2.5,
              "duration": 0.4166666666666667
            }
          ]
        },
        "12": {
          "ctab": {
            "srcChannel": 12,
            "name": "SySeq",
            "accType": "CHORD2",
            "editable": false,
            "mutedNotes": [],
            "mutedChords": [],
            "autoStart": false,
            "sourceChordNote": 0,
            "sourceChordType": "Maj",
            "ctb2Low": null,
            "ctb2Main": {
              "ntr": "ROOT_FIXED",
              "ntt": "CHORD",
              "bassOn": false,
              "chordRootUpperLimit": 7,
              "noteLowLimit": 0,
              "noteHighLimit": 127,
              "rtr": "PITCH_SHIFT"
            },
            "ctb2High": null
          },
          "notes": [
            {
              "pitch": 55,
              "velocity": 106,
              "position": 0,
              "duration": 0.25
            },
            {
              "pitch": 60,
              "velocity": 106,
              "position": 0.5,
              "duration": 0.25
            },
            {
              "pitch": 64,
              "velocity": 106,
              "position": 1,
              "duration": 0.25
            },
            {
              "pitch": 64,
              "velocity": 91,
              "position": 1.5,
              "duration": 0.25
            },
            {
              "pitch": 64,
              "velocity": 94,
              "position": 2,
              "duration": 0.25
            },
            {
              "pitch": 64,
              "velocity": 81,
              "position": 2.5,
              "duration": 0.25
            },
            {
              "pitch": 64,
              "velocity": 68,
              "position": 3,
              "duration": 0.25
            },
            {
              "pitch": 64,
              "velocity": 50,
              "position": 3.5,
              "duration": 0.25
            }
          ]
        },
        "13": {
          "ctab": {
            "srcChannel": 13,
            "name": "Sweep",
            "accType": "PAD",
            "editable": false,
            "mutedNotes": [],
            "mutedChords": [],
            "autoStart": false,
            "sourceChordNote": 0,
            "sourceChordType": "Maj7",
            "ctb2Low": null,
            "ctb2Main": {
              "ntr": "ROOT_FIXED",
              "ntt": "CHORD",
              "bassOn": false,
              "chordRootUpperLimit": 7,
              "noteLowLimit": 0,
              "noteHighLimit": 127,
              "rtr": "PITCH_SHIFT"
            },
            "ctb2High": null
          },
          "notes": []
        },
        "14": {
          "ctab": {
            "srcChannel": 14,
            "name": "Ep",
            "accType": "PHRASE1",
            "editable": false,
            "mutedNotes": [],
            "mutedChords": [],
            "autoStart": false,
            "sourceChordNote": 0,
            "sourceChordType": "Maj7",
            "ctb2Low": null,
            "ctb2Main": {
              "ntr": "ROOT_FIXED",
              "ntt": "CHORD",
              "bassOn": false,
              "chordRootUpperLimit": 9,
              "noteLowLimit": 0,
              "noteHighLimit": 127,
              "rtr": "PITCH_SHIFT"
            },
            "ctb2High": null
          },
          "notes": [
            {
              "pitch": 55,
              "velocity": 91,
              "position": 0.010416666666666666,
              "duration": 3.9791666666666665
            },
            {
              "pitch": 59,
              "velocity": 91,
              "position": 0.020833333333333332,
              "duration": 3.96875
            },
            {
              "pitch": 64,
              "velocity": 91,
              "position": 0.03125,
              "duration": 3.9583333333333335
            }
          ]
        },
        "15": {
          "ctab": {
            "srcChannel": 15,
            "name": "Saw",
            "accType": "PHRASE2",
            "editable": false,
            "mutedNotes": [],
            "mutedChords": [],
            "autoStart": false,
            "sourceChordNote": 0,
            "sourceChordType": "Maj7",
            "ctb2Low": null,
            "ctb2Main": {
              "ntr": "ROOT_TRANSPOSITION",
              "ntt": "MELODY",
              "bassOn": true,
              "chordRootUpperLimit": 6,
              "noteLowLimit": 0,
              "noteHighLimit": 127,
              "rtr": "PITCH_SHIFT"
            },
            "ctb2High": null
          },
          "notes": []
        }
      }
    },
    "Fill_In_DD": {
      "type": "Fill_In_DD",
      "sizeInBeats": 4,
      "channels": {
        "1": {
          "ctab": {
            "srcChannel": 1,
            "name": "CC_Crash",
            "accType": "RHYTHM",
            "editable": false,
            "mutedNotes": [],
            "mutedChords": [
              "1+2+5",
              "sus4",
              "1+5",
              "1+8",
              "7aug",
              "Maj7aug",
              "7(#9)",
              "7(b13)",
              "7(b9)",
              "7(13)",
              "7#11",
              "7(9)",
              "7b5",
              "7sus4",
              "7th",
              "dim7",
              "dim",
              "minMaj7(9)",
              "minMaj7",
              "min7(11)",
              "min7(9)",
              "min(9)",
              "m7b5",
              "min7",
              "min6",
              "min",
              "aug",
              "Maj6(9)",
              "Maj7(9)",
              "Maj(9)",
              "Maj7#11",
              "Maj7",
              "Maj6",
              "Maj"
            ],
            "autoStart": true,
            "sourceChordNote": 0,
            "sourceChordType": "Maj",
            "ctb2Low": null,
            "ctb2Main": {
              "ntr": "ROOT_FIXED",
              "ntt": "BYPASS",
              "bassOn": false,
              "chordRootUpperLimit": 0,
              "noteLowLimit": 0,
              "noteHighLimit": 127,
              "rtr": "RETRIGGER"
            },
            "ctb2High": null
          },
          "notes": []
        },
        "5": {
          "ctab": {
            "srcChannel": 5,
            "name": "PadRoot",
            "accType": "PAD",
            "editable": false,
            "mutedNotes": [],
            "mutedChords": [
              "1+2+5",
              "sus4",
              "1+5",
              "1+8",
              "Maj7aug",
              "dim",
              "minMaj7(9)",
              "minMaj7",
              "min6",
              "min",
              "aug",
              "Maj7(9)",
              "Maj7#11",
              "Maj7",
              "Maj6",
              "Maj"
            ],
            "autoStart": false,
            "sourceChordNote": 0,
            "sourceChordType": "Maj7",
            "ctb2Low": null,
            "ctb2Main": {
              "ntr": "ROOT_TRANSPOSITION",
              "ntt": "MELODY",
              "bassOn": false,
              "chordRootUpperLimit": 6,
              "noteLowLimit": 0,
              "noteHighLimit": 127,
              "rtr": "PITCH_SHIFT"
            },
            "ctb2High": null
          },
          "notes": []
        },
        "6": {
          "ctab": {
            "srcChannel": 6,
            "name": "EpRoot",
            "accType": "PHRASE1",
            "editable": false,
            "mutedNotes": [],
            "mutedChords": [
              "1+2+5",
              "sus4",
              "1+5",
              "1+8",
              "Maj7aug",
              "dim",
              "minMaj7(9)",
              "minMaj7",
              "min6",
              "min",
              "aug",
              "Maj7(9)",
              "Maj7#11",
              "Maj7",
              "Maj6",
              "Maj"
            ],
            "autoStart": false,
            "sourceChordNote": 0,
            "sourceChordType": "Maj7",
            "ctb2Low": null,
            "ctb2Main": {
              "ntr": "ROOT_TRANSPOSITION",
              "ntt": "MELODY",
              "bassOn": false,
              "chordRootUpperLimit": 6,
              "noteLowLimit": 0,
              "noteHighLimit": 127,
              "rtr": "PITCH_SHIFT"
            },
            "ctb2High": null
          },
          "notes": [
            {
              "pitch": 60,
              "velocity": 63,
              "position": 0,
              "duration": 3.9895833333333335
            }
          ]
        },
        "8": {
          "ctab": {
            "srcChannel": 8,
            "name": "Perc",
            "accType": "SUBRHYTHM",
            "editable": false,
            "mutedNotes": [],
            "mutedChords": [],
            "autoStart": true,
            "sourceChordNote": 0,
            "sourceChordType": "Maj7",
            "ctb2Low": null,
            "ctb2Main": {
              "ntr": "ROOT_FIXED",
              "ntt": "BYPASS",
              "bassOn": false,
              "chordRootUpperLimit": 6,
              "noteLowLimit": 0,
              "noteHighLimit": 127,
              "rtr": "PITCH_SHIFT"
            },
            "ctb2High": null
          },
          "notes": [
            {
              "pitch": 42,
              "velocity": 99,
              "position": 0,
              "duration": 0.010416666666666666
            },
            {
              "pitch": 54,
              "velocity": 76,
              "position": 0,
              "duration": 0.010416666666666666
            },
            {
              "pitch": 57,
              "velocity": 73,
              "position": 0,
              "duration": 0.010416666666666666
            },
            {
              "pitch": 42,
              "velocity": 82,
              "position": 0.5,
              "duration": 0.010416666666666666
            },
            {
              "pitch": 54,
              "velocity": 55,
              "position": 0.5,
              "duration": 0.010416666666666666
            },
            {
              "pitch": 70,
              "velocity": 76,
              "position": 0.5,
              "duration": 0.010416666666666666
            },
            {
              "pitch": 82,
              "velocity": 73,
              "position": 0.5,
              "duration": 0.010416666666666666
            },
            {
              "pitch": 70,
              "velocity": 46,
              "position": 0.75,
              "duration": 0.010416666666666666
            },
            {
              "pitch": 82,
              "velocity": 43,
              "position": 0.75,
              "duration": 0.010416666666666666
            },
            {
              "pitch": 42,
              "velocity": 95,
              "position": 1,
              "duration": 0.010416666666666666
            },
            {
              "pitch": 54,
              "velocity": 71,
              "position": 1,
              "duration": 0.010416666666666666
            },
            {
              "pitch": 42,
              "velocity": 86,
              "position": 1.5,
              "duration": 0.010416666666666666
            },
            {
              "pitch": 54,
              "velocity": 53,
              "position": 1.5,
              "duration": 0.010416666666666666
            },
            {
              "pitch": 70,
              "velocity": 76,
              "position": 1.5,
              "duration": 0.010416666666666666
            },
            {
              "pitch": 82,
              "velocity": 73,
              "position": 1.5,
              "duration": 0.010416666666666666
            },
            {
              "pitch": 70,
              "velocity": 46,
              "position": 1.75,
              "duration": 0.010416666666666666
            },
            {
              "pitch": 82,
              "velocity": 43,
              "position": 1.75,
              "duration": 0.010416666666666666
            },
            {
              "pitch": 42,
              "velocity": 90,
              "position": 2,
              "duration": 0.010416666666666666
            },
            {
              "pitch": 54,
              "velocity": 74,
              "position": 2,
              "duration": 0.010416666666666666
            },
            {
              "pitch": 42,
              "velocity": 71,
              "position": 2.5,
              "duration": 0.010416666666666666
            },
            {
              "pitch": 54,
              "velocity": 45,
              "position": 2.5,
              "duration": 0.010416666666666666
            },
            {
              "pitch": 70,
              "velocity": 76,
              "position": 2.5,
              "duration": 0.010416666666666666
            },
            {
              "pitch": 82,
              "velocity": 73,
              "position": 2.5,
              "duration": 0.010416666666666666
            },
            {
              "pitch": 70,
              "velocity": 46,
              "position": 2.75,
              "duration": 0.010416666666666666
            },
            {
              "pitch": 82,
              "velocity": 43,
              "position": 2.75,
              "duration": 0.010416666666666666
            },
            {
              "pitch": 42,
              "velocity": 76,
              "position": 3,
              "duration": 0.010416666666666666
            },
            {
              "pitch": 54,
              "velocity": 79,
              "position": 3,
              "duration": 0.010416666666666666
            },
            {
              "pitch": 46,
              "velocity": 71,
              "position": 3.5,
              "duration": 0.010416666666666666
            },
            {
              "pitch": 54,
              "velocity": 55,
              "position": 3.5,
              "duration": 0.010416666666666666
            },
            {
              "pitch": 70,
              "velocity": 76,
              "position": 3.5,
              "duration": 0.010416666666666666
            },
            {
              "pitch": 82,
              "velocity": 73,
              "position": 3.5,
              "duration": 0.010416666666666666
            },
            {
              "pitch": 70,
              "velocity": 46,
              "position": 3.75,
              "duration": 0.010416666666666666
            },
            {
              "pitch": 82,
              "velocity": 43,
              "position": 3.75,
              "duration": 0.010416666666666666
            }
          ]
        },
        "9": {
          "ctab": {
            "srcChannel": 9,
            "name": "Drum",
            "accType": "RHYTHM",
            "editable": false,
            "mutedNotes": [],
            "mutedChords": [],
            "autoStart": true,
            "sourceChordNote": 0,
            "sourceChordType": "Maj7",
            "ctb2Low": null,
            "ctb2Main": {
              "ntr": "ROOT_FIXED",
              "ntt": "BYPASS",
              "bassOn": false,
              "chordRootUpperLimit": 6,
              "noteLowLimit": 0,
              "noteHighLimit": 127,
              "rtr": "PITCH_SHIFT"
            },
            "ctb2High": null
          },
          "notes": [
            {
              "pitch": 33,
              "velocity": 95,
              "position": 0,
              "duration": 0.010416666666666666
            },
            {
              "pitch": 42,
              "velocity": 98,
              "position": 0,
              "duration": 0.010416666666666666
            },
            {
              "pitch": 70,
              "velocity": 90,
              "position": 0,
              "duration": 0.010416666666666666
            },
            {
              "pitch": 81,
              "velocity": 33,
              "position": 0,
              "duration": 0.010416666666666666
            },
            {
              "pitch": 82,
              "velocity": 43,
              "position": 0,
              "duration": 0.010416666666666666
            },
            {
              "pitch": 42,
              "velocity": 53,
              "position": 0.5,
              "duration": 0.010416666666666666
            },
            {
              "pitch": 61,
              "velocity": 45,
              "position": 0.5,
              "duration": 0.010416666666666666
            },
            {
              "pitch": 62,
              "velocity": 81,
              "position": 0.5,
              "duration": 0.010416666666666666
            },
            {
              "pitch": 70,
              "velocity": 46,
              "position": 0.5,
              "duration": 0.010416666666666666
            },
            {
              "pitch": 80,
              "velocity": 35,
              "position": 0.5,
              "duration": 0.010416666666666666
            },
            {
              "pitch": 82,
              "velocity": 38,
              "position": 0.5,
              "duration": 0.010416666666666666
            },
            {
              "pitch": 40,
              "velocity": 61,
              "position": 1,
              "duration": 0.010416666666666666
            },
            {
              "pitch": 42,
              "velocity": 91,
              "position": 1,
              "duration": 0.010416666666666666
            },
            {
              "pitch": 60,
              "velocity": 62,
              "position": 1,
              "duration": 0.010416666666666666
            },
            {
              "pitch": 70,
              "velocity": 87,
              "position": 1,
              "duration": 0.010416666666666666
            },
            {
              "pitch": 80,
              "velocity": 34,
              "position": 1,
              "duration": 0.010416666666666666
            },
            {
              "pitch": 39,
              "velocity": 102,
              "position": 1.0208333333333333,
              "duration": 0.052083333333333336
            },
            {
              "pitch": 42,
              "velocity": 51,
              "position": 1.5,
              "duration": 0.010416666666666666
            },
            {
              "pitch": 70,
              "velocity": 44,
              "position": 1.5,
              "duration": 0.010416666666666666
            },
            {
              "pitch": 81,
              "velocity": 37,
              "position": 1.5,
              "duration": 0.010416666666666666
            },
            {
              "pitch": 82,
              "velocity": 42,
              "position": 1.5,
              "duration": 0.010416666666666666
            },
            {
              "pitch": 42,
              "velocity": 98,
              "position": 2,
              "duration": 0.010416666666666666
            },
            {
              "pitch": 70,
              "velocity": 90,
              "position": 2,
              "duration": 0.010416666666666666
            },
            {
              "pitch": 80,
              "velocity": 30,
              "position": 2,
              "duration": 0.010416666666666666
            },
            {
              "pitch": 82,
              "velocity": 41,
              "position": 2,
              "duration": 0.010416666666666666
            },
            {
              "pitch": 42,
              "velocity": 57,
              "position": 2.5,
              "duration": 0.010416666666666666
            },
            {
              "pitch": 61,
              "velocity": 48,
              "position": 2.5,
              "duration": 0.010416666666666666
            },
            {
              "pitch": 70,
              "velocity": 46,
              "position": 2.5,
              "duration": 0.010416666666666666
            },
            {
              "pitch": 80,
              "velocity": 38,
              "position": 2.5,
              "duration": 0.010416666666666666
            },
            {
              "pitch": 82,
              "velocity": 44,
              "position": 2.5,
              "duration": 0.010416666666666666
            },
            {
              "pitch": 32,
              "velocity": 70,
              "position": 3,
              "duration": 0.010416666666666666
            },
            {
              "pitch": 40,
              "velocity": 61,
              "position": 3,
              "duration": 0.010416666666666666
            },
            {
              "pitch": 42,
              "velocity": 95,
              "position": 3,
              "duration": 0.010416666666666666
            },
            {
              "pitch": 70,
              "velocity": 87,
              "position": 3,
              "duration": 0.010416666666666666
            },
            {
              "pitch": 81,
              "velocity": 43,
              "position": 3,
              "duration": 0.010416666666666666
            },
            {
              "pitch": 82,
              "velocity": 37,
              "position": 3,
              "duration": 0.010416666666666666
            },
            {
              "pitch": 39,
              "velocity": 102,
              "position": 3.0208333333333335,
              "duration": 0.052083333333333336
            },
            {
              "pitch": 33,
              "velocity": 95,
              "position": 3.5,
              "duration": 0.010416666666666666
            },
            {
              "pitch": 46,
              "velocity": 93,
              "position": 3.5,
              "duration": 0.010416666666666666
            },
            {
              "pitch": 61,
              "velocity": 46,
              "position": 3.5,
              "duration": 0.010416666666666666
            },
            {
              "pitch": 70,
              "velocity": 44,
              "position": 3.5,
              "duration": 0.010416666666666666
            },
            {
              "pitch": 80,
              "velocity": 36,
              "position": 3.5,
              "duration": 0.010416666666666666
            },
            {
              "pitch": 82,
              "velocity": 39,
              "position": 3.5,
              "duration": 0.010416666666666666
            }
          ]
        },
        "10": {
          "ctab": {
            "srcChannel": 10,
            "name": "Bass",
            "accType": "BASS",
            "editable": false,
            "mutedNotes": [],
            "mutedChords": [],
            "autoStart": false,
            "sourceChordNote": 0,
            "sourceChordType": "Maj7",
            "ctb2Low": null,
            "ctb2Main": {
              "ntr": "ROOT_TRANSPOSITION",
              "ntt": "MELODY",
              "bassOn": true,
              "chordRootUpperLimit": 3,
              "noteLowLimit": 28,
              "noteHighLimit": 49,
              "rtr": "PITCH_SHIFT_TO_ROOT"
            },
            "ctb2High": null
          },
          "notes": [
            {
              "pitch": 24,
              "velocity": 100,
              "position": 0.5,
              "duration": 0.5
            },
            {
              "pitch": 24,
              "velocity": 100,
              "position": 1.5,
              "duration": 0.5
            },
            {
              "pitch": 24,
              "velocity": 100,
              "position": 2.5,
              "duration": 0.5
            }
          ]
        },
        "11": {
          "ctab": {
            "srcChannel": 11,
            "name": "Organ",
            "accType": "CHORD1",
            "editable": false,
            "mutedNotes": [],
            "mutedChords": [],
            "autoStart": false,
            "sourceChordNote": 0,
            "sourceChordType": "min7(11)",
            "ctb2Low": null,
            "ctb2Main": {
              "ntr": "ROOT_TRANSPOSITION",
              "ntt": "CHORD",
              "bassOn": false,
              "chordRootUpperLimit": 3,
              "noteLowLimit": 28,
              "noteHighLimit": 127,
              "rtr": "PITCH_SHIFT"
            },
            "ctb2High": null
          },
          "notes": [
            {
              "pitch": 60,
              "velocity": 115,
              "position": 0.5,
              "duration": 0.4166666666666667
            },
            {
              "pitch": 67,
              "velocity": 115,
              "position": 0.5,
              "duration": 0.4166666666666667
            },
            {
              "pitch": 60,
              "velocity": 115,
              "position": 1.5,
              "duration": 0.4166666666666667
            },
            {
              "pitch": 67,
              "velocity": 115,
              "position": 1.5,
              "duration": 0.4166666666666667
            },
            {
              "pitch": 60,
              "velocity": 115,
              "position": 2.5,
              "duration": 0.4166666666666667
            },
            {
              "pitch": 67,
              "velocity": 115,
              "position": 2.5,
              "duration": 0.4166666666666667
            },
            {
              "pitch": 60,
              "velocity": 115,
              "position": 3.5,
              "duration": 0.4166666666666667
            },
            {
              "pitch": 67,
              "velocity": 115,
              "position": 3.5,
              "duration": 0.4166666666666667
            }
          ]
        },
        "12": {
          "ctab": {
            "srcChannel": 12,
            "name": "SySeq",
            "accType": "CHORD2",
            "editable": false,
            "mutedNotes": [],
            "mutedChords": [],
            "autoStart": false,
            "sourceChordNote": 0,
            "sourceChordType": "Maj",
            "ctb2Low": null,
            "ctb2Main": {
              "ntr": "ROOT_FIXED",
              "ntt": "CHORD",
              "bassOn": false,
              "chordRootUpperLimit": 7,
              "noteLowLimit": 0,
              "noteHighLimit": 127,
              "rtr": "PITCH_SHIFT"
            },
            "ctb2High": null
          },
          "notes": []
        },
        "13": {
          "ctab": {
            "srcChannel": 13,
            "name": "Sweep",
            "accType": "PAD",
            "editable": false,
            "mutedNotes": [],
            "mutedChords": [],
            "autoStart": false,
            "sourceChordNote": 0,
            "sourceChordType": "Maj7",
            "ctb2Low": null,
            "ctb2Main": {
              "ntr": "ROOT_FIXED",
              "ntt": "CHORD",
              "bassOn": false,
              "chordRootUpperLimit": 7,
              "noteLowLimit": 0,
              "noteHighLimit": 127,
              "rtr": "PITCH_SHIFT"
            },
            "ctb2High": null
          },
          "notes": []
        },
        "14": {
          "ctab": {
            "srcChannel": 14,
            "name": "Ep",
            "accType": "PHRASE1",
            "editable": false,
            "mutedNotes": [],
            "mutedChords": [],
            "autoStart": false,
            "sourceChordNote": 0,
            "sourceChordType": "Maj7",
            "ctb2Low": null,
            "ctb2Main": {
              "ntr": "ROOT_FIXED",
              "ntt": "CHORD",
              "bassOn": false,
              "chordRootUpperLimit": 9,
              "noteLowLimit": 0,
              "noteHighLimit": 127,
              "rtr": "PITCH_SHIFT"
            },
            "ctb2High": null
          },
          "notes": [
            {
              "pitch": 55,
              "velocity": 91,
              "position": 0,
              "duration": 3.9895833333333335
            },
            {
              "pitch": 59,
              "velocity": 80,
              "position": 0,
              "duration": 3.9895833333333335
            },
            {
              "pitch": 64,
              "velocity": 91,
              "position": 0,
              "duration": 3.9895833333333335
            }
          ]
        },
        "15": {
          "ctab": {
            "srcChannel": 15,
            "name": "Saw",
            "accType": "PHRASE2",
            "editable": false,
            "mutedNotes": [],
            "mutedChords": [],
            "autoStart": false,
            "sourceChordNote": 0,
            "sourceChordType": "Maj7",
            "ctb2Low": null,
            "ctb2Main": {
              "ntr": "ROOT_TRANSPOSITION",
              "ntt": "MELODY",
              "bassOn": true,
              "chordRootUpperLimit": 6,
              "noteLowLimit": 0,
              "noteHighLimit": 127,
              "rtr": "PITCH_SHIFT"
            },
            "ctb2High": null
          },
          "notes": [
            {
              "pitch": 60,
              "velocity": 88,
              "position": 3.5,
              "duration": 0.4791666666666667
            }
          ]
        }
      }
    },
    "Intro_A": {
      "type": "Intro_A",
      "sizeInBeats": 4,
      "channels": {
        "1": {
          "ctab": {
            "srcChannel": 1,
            "name": "CC_Crash",
            "accType": "RHYTHM",
            "editable": false,
            "mutedNotes": [],
            "mutedChords": [
              "1+2+5",
              "sus4",
              "1+5",
              "1+8",
              "7aug",
              "Maj7aug",
              "7(#9)",
              "7(b13)",
              "7(b9)",
              "7(13)",
              "7#11",
              "7(9)",
              "7b5",
              "7sus4",
              "7th",
              "dim7",
              "dim",
              "minMaj7(9)",
              "minMaj7",
              "min7(11)",
              "min7(9)",
              "min(9)",
              "m7b5",
              "min7",
              "min6",
              "min",
              "aug",
              "Maj6(9)",
              "Maj7(9)",
              "Maj(9)",
              "Maj7#11",
              "Maj7",
              "Maj6",
              "Maj"
            ],
            "autoStart": true,
            "sourceChordNote": 0,
            "sourceChordType": "Maj",
            "ctb2Low": null,
            "ctb2Main": {
              "ntr": "ROOT_FIXED",
              "ntt": "BYPASS",
              "bassOn": false,
              "chordRootUpperLimit": 0,
              "noteLowLimit": 0,
              "noteHighLimit": 127,
              "rtr": "RETRIGGER"
            },
            "ctb2High": null
          },
          "notes": []
        },
        "5": {
          "ctab": {
            "srcChannel": 5,
            "name": "PadRoot",
            "accType": "PAD",
            "editable": false,
            "mutedNotes": [],
            "mutedChords": [
              "1+2+5",
              "sus4",
              "1+5",
              "1+8",
              "Maj7aug",
              "dim",
              "minMaj7(9)",
              "minMaj7",
              "min6",
              "min",
              "aug",
              "Maj7(9)",
              "Maj7#11",
              "Maj7",
              "Maj6",
              "Maj"
            ],
            "autoStart": false,
            "sourceChordNote": 0,
            "sourceChordType": "Maj7",
            "ctb2Low": null,
            "ctb2Main": {
              "ntr": "ROOT_TRANSPOSITION",
              "ntt": "MELODY",
              "bassOn": false,
              "chordRootUpperLimit": 6,
              "noteLowLimit": 0,
              "noteHighLimit": 127,
              "rtr": "PITCH_SHIFT"
            },
            "ctb2High": null
          },
          "notes": []
        },
        "6": {
          "ctab": {
            "srcChannel": 6,
            "name": "EpRoot",
            "accType": "PHRASE1",
            "editable": false,
            "mutedNotes": [],
            "mutedChords": [
              "1+2+5",
              "sus4",
              "1+5",
              "1+8",
              "Maj7aug",
              "dim",
              "minMaj7(9)",
              "minMaj7",
              "min6",
              "min",
              "aug",
              "Maj7(9)",
              "Maj7#11",
              "Maj7",
              "Maj6",
              "Maj"
            ],
            "autoStart": false,
            "sourceChordNote": 0,
            "sourceChordType": "Maj7",
            "ctb2Low": null,
            "ctb2Main": {
              "ntr": "ROOT_TRANSPOSITION",
              "ntt": "MELODY",
              "bassOn": false,
              "chordRootUpperLimit": 6,
              "noteLowLimit": 0,
              "noteHighLimit": 127,
              "rtr": "PITCH_SHIFT"
            },
            "ctb2High": null
          },
          "notes": []
        },
        "8": {
          "ctab": {
            "srcChannel": 8,
            "name": "Perc",
            "accType": "SUBRHYTHM",
            "editable": false,
            "mutedNotes": [],
            "mutedChords": [],
            "autoStart": true,
            "sourceChordNote": 0,
            "sourceChordType": "Maj7",
            "ctb2Low": null,
            "ctb2Main": {
              "ntr": "ROOT_FIXED",
              "ntt": "BYPASS",
              "bassOn": false,
              "chordRootUpperLimit": 6,
              "noteLowLimit": 0,
              "noteHighLimit": 127,
              "rtr": "PITCH_SHIFT"
            },
            "ctb2High": null
          },
          "notes": []
        },
        "9": {
          "ctab": {
            "srcChannel": 9,
            "name": "Drum",
            "accType": "RHYTHM",
            "editable": false,
            "mutedNotes": [],
            "mutedChords": [],
            "autoStart": true,
            "sourceChordNote": 0,
            "sourceChordType": "Maj7",
            "ctb2Low": null,
            "ctb2Main": {
              "ntr": "ROOT_FIXED",
              "ntt": "BYPASS",
              "bassOn": false,
              "chordRootUpperLimit": 6,
              "noteLowLimit": 0,
              "noteHighLimit": 127,
              "rtr": "PITCH_SHIFT"
            },
            "ctb2High": null
          },
          "notes": [
            {
              "pitch": 42,
              "velocity": 90,
              "position": 0,
              "duration": 0.010416666666666666
            },
            {
              "pitch": 42,
              "velocity": 70,
              "position": 1,
              "duration": 0.010416666666666666
            },
            {
              "pitch": 42,
              "velocity": 46,
              "position": 1.5,
              "duration": 0.010416666666666666
            },
            {
              "pitch": 42,
              "velocity": 27,
              "position": 1.75,
              "duration": 0.010416666666666666
            },
            {
              "pitch": 42,
              "velocity": 70,
              "position": 2,
              "duration": 0.010416666666666666
            },
            {
              "pitch": 42,
              "velocity": 27,
              "position": 2.5,
              "duration": 0.010416666666666666
            },
            {
              "pitch": 22,
              "velocity": 64,
              "position": 2.5,
              "duration": 0.4270833333333333
            },
            {
              "pitch": 21,
              "velocity": 82,
              "position": 3,
              "duration": 0.010416666666666666
            },
            {
              "pitch": 42,
              "velocity": 70,
              "position": 3,
              "duration": 0.010416666666666666
            }
          ]
        },
        "10": {
          "ctab": {
            "srcChannel": 10,
            "name": "Bass",
            "accType": "BASS",
            "editable": false,
            "mutedNotes": [],
            "mutedChords": [],
            "autoStart": false,
            "sourceChordNote": 0,
            "sourceChordType": "Maj7",
            "ctb2Low": null,
            "ctb2Main": {
              "ntr": "ROOT_TRANSPOSITION",
              "ntt": "MELODY",
              "bassOn": true,
              "chordRootUpperLimit": 3,
              "noteLowLimit": 28,
              "noteHighLimit": 49,
              "rtr": "PITCH_SHIFT_TO_ROOT"
            },
            "ctb2High": null
          },
          "notes": []
        },
        "11": {
          "ctab": {
            "srcChannel": 11,
            "name": "Organ",
            "accType": "CHORD1",
            "editable": false,
            "mutedNotes": [],
            "mutedChords": [],
            "autoStart": false,
            "sourceChordNote": 0,
            "sourceChordType": "min7(11)",
            "ctb2Low": null,
            "ctb2Main": {
              "ntr": "ROOT_TRANSPOSITION",
              "ntt": "CHORD",
              "bassOn": false,
              "chordRootUpperLimit": 3,
              "noteLowLimit": 28,
              "noteHighLimit": 127,
              "rtr": "PITCH_SHIFT"
            },
            "ctb2High": null
          },
          "notes": []
        },
        "12": {
          "ctab": {
            "srcChannel": 12,
            "name": "SySeq",
            "accType": "CHORD2",
            "editable": false,
            "mutedNotes": [],
            "mutedChords": [],
            "autoStart": false,
            "sourceChordNote": 0,
            "sourceChordType": "Maj",
            "ctb2Low": null,
            "ctb2Main": {
              "ntr": "ROOT_FIXED",
              "ntt": "CHORD",
              "bassOn": false,
              "chordRootUpperLimit": 7,
              "noteLowLimit": 0,
              "noteHighLimit": 127,
              "rtr": "PITCH_SHIFT"
            },
            "ctb2High": null
          },
          "notes": []
        },
        "13": {
          "ctab": {
            "srcChannel": 13,
            "name": "Sweep",
            "accType": "PAD",
            "editable": false,
            "mutedNotes": [],
            "mutedChords": [],
            "autoStart": false,
            "sourceChordNote": 0,
            "sourceChordType": "Maj7",
            "ctb2Low": null,
            "ctb2Main": {
              "ntr": "ROOT_FIXED",
              "ntt": "CHORD",
              "bassOn": false,
              "chordRootUpperLimit": 7,
              "noteLowLimit": 0,
              "noteHighLimit": 127,
              "rtr": "PITCH_SHIFT"
            },
            "ctb2High": null
          },
          "notes": []
        },
        "14": {
          "ctab": {
            "srcChannel": 14,
            "name": "Ep",
            "accType": "PHRASE1",
            "editable": false,
            "mutedNotes": [],
            "mutedChords": [],
            "autoStart": false,
            "sourceChordNote": 0,
            "sourceChordType": "Maj7",
            "ctb2Low": null,
            "ctb2Main": {
              "ntr": "ROOT_FIXED",
              "ntt": "CHORD",
              "bassOn": false,
              "chordRootUpperLimit": 9,
              "noteLowLimit": 0,
              "noteHighLimit": 127,
              "rtr": "PITCH_SHIFT"
            },
            "ctb2High": null
          },
          "notes": []
        },
        "15": {
          "ctab": {
            "srcChannel": 15,
            "name": "Saw",
            "accType": "PHRASE2",
            "editable": false,
            "mutedNotes": [],
            "mutedChords": [],
            "autoStart": false,
            "sourceChordNote": 0,
            "sourceChordType": "Maj7",
            "ctb2Low": null,
            "ctb2Main": {
              "ntr": "ROOT_TRANSPOSITION",
              "ntt": "MELODY",
              "bassOn": true,
              "chordRootUpperLimit": 6,
              "noteLowLimit": 0,
              "noteHighLimit": 127,
              "rtr": "PITCH_SHIFT"
            },
            "ctb2High": null
          },
          "notes": []
        }
      }
    },
    "Ending_A": {
      "type": "Ending_A",
      "sizeInBeats": 4,
      "channels": {
        "1": {
          "ctab": {
            "srcChannel": 1,
            "name": "CC_Crash",
            "accType": "RHYTHM",
            "editable": false,
            "mutedNotes": [],
            "mutedChords": [
              "1+2+5",
              "sus4",
              "1+5",
              "1+8",
              "7aug",
              "Maj7aug",
              "7(#9)",
              "7(b13)",
              "7(b9)",
              "7(13)",
              "7#11",
              "7(9)",
              "7b5",
              "7sus4",
              "7th",
              "dim7",
              "dim",
              "minMaj7(9)",
              "minMaj7",
              "min7(11)",
              "min7(9)",
              "min(9)",
              "m7b5",
              "min7",
              "min6",
              "min",
              "aug",
              "Maj6(9)",
              "Maj7(9)",
              "Maj(9)",
              "Maj7#11",
              "Maj7",
              "Maj6",
              "Maj"
            ],
            "autoStart": true,
            "sourceChordNote": 0,
            "sourceChordType": "Maj",
            "ctb2Low": null,
            "ctb2Main": {
              "ntr": "ROOT_FIXED",
              "ntt": "BYPASS",
              "bassOn": false,
              "chordRootUpperLimit": 0,
              "noteLowLimit": 0,
              "noteHighLimit": 127,
              "rtr": "RETRIGGER"
            },
            "ctb2High": null
          },
          "notes": []
        },
        "5": {
          "ctab": {
            "srcChannel": 5,
            "name": "PadRoot",
            "accType": "PAD",
            "editable": false,
            "mutedNotes": [],
            "mutedChords": [
              "1+2+5",
              "sus4",
              "1+5",
              "1+8",
              "Maj7aug",
              "dim",
              "minMaj7(9)",
              "minMaj7",
              "min6",
              "min",
              "aug",
              "Maj7(9)",
              "Maj7#11",
              "Maj7",
              "Maj6",
              "Maj"
            ],
            "autoStart": false,
            "sourceChordNote": 0,
            "sourceChordType": "Maj7",
            "ctb2Low": null,
            "ctb2Main": {
              "ntr": "ROOT_TRANSPOSITION",
              "ntt": "MELODY",
              "bassOn": false,
              "chordRootUpperLimit": 6,
              "noteLowLimit": 0,
              "noteHighLimit": 127,
              "rtr": "PITCH_SHIFT"
            },
            "ctb2High": null
          },
          "notes": [
            {
              "pitch": 60,
              "velocity": 51,
              "position": 0,
              "duration": 3.9791666666666665
            }
          ]
        },
        "6": {
          "ctab": {
            "srcChannel": 6,
            "name": "EpRoot",
            "accType": "PHRASE1",
            "editable": false,
            "mutedNotes": [],
            "mutedChords": [
              "1+2+5",
              "sus4",
              "1+5",
              "1+8",
              "Maj7aug",
              "dim",
              "minMaj7(9)",
              "minMaj7",
              "min6",
              "min",
              "aug",
              "Maj7(9)",
              "Maj7#11",
              "Maj7",
              "Maj6",
              "Maj"
            ],
            "autoStart": false,
            "sourceChordNote": 0,
            "sourceChordType": "Maj7",
            "ctb2Low": null,
            "ctb2Main": {
              "ntr": "ROOT_TRANSPOSITION",
              "ntt": "MELODY",
              "bassOn": false,
              "chordRootUpperLimit": 6,
              "noteLowLimit": 0,
              "noteHighLimit": 127,
              "rtr": "PITCH_SHIFT"
            },
            "ctb2High": null
          },
          "notes": []
        },
        "8": {
          "ctab": {
            "srcChannel": 8,
            "name": "Perc",
            "accType": "SUBRHYTHM",
            "editable": false,
            "mutedNotes": [],
            "mutedChords": [],
            "autoStart": true,
            "sourceChordNote": 0,
            "sourceChordType": "Maj7",
            "ctb2Low": null,
            "ctb2Main": {
              "ntr": "ROOT_FIXED",
              "ntt": "BYPASS",
              "bassOn": false,
              "chordRootUpperLimit": 6,
              "noteLowLimit": 0,
              "noteHighLimit": 127,
              "rtr": "PITCH_SHIFT"
            },
            "ctb2High": null
          },
          "notes": []
        },
        "9": {
          "ctab": {
            "srcChannel": 9,
            "name": "Drum",
            "accType": "RHYTHM",
            "editable": false,
            "mutedNotes": [],
            "mutedChords": [],
            "autoStart": true,
            "sourceChordNote": 0,
            "sourceChordType": "Maj7",
            "ctb2Low": null,
            "ctb2Main": {
              "ntr": "ROOT_FIXED",
              "ntt": "BYPASS",
              "bassOn": false,
              "chordRootUpperLimit": 6,
              "noteLowLimit": 0,
              "noteHighLimit": 127,
              "rtr": "PITCH_SHIFT"
            },
            "ctb2High": null
          },
          "notes": [
            {
              "pitch": 33,
              "velocity": 95,
              "position": 0,
              "duration": 0.010416666666666666
            },
            {
              "pitch": 42,
              "velocity": 98,
              "position": 0,
              "duration": 0.010416666666666666
            }
          ]
        },
        "10": {
          "ctab": {
            "srcChannel": 10,
            "name": "Bass",
            "accType": "BASS",
            "editable": false,
            "mutedNotes": [],
            "mutedChords": [],
            "autoStart": false,
            "sourceChordNote": 0,
            "sourceChordType": "Maj7",
            "ctb2Low": null,
            "ctb2Main": {
              "ntr": "ROOT_TRANSPOSITION",
              "ntt": "MELODY",
              "bassOn": true,
              "chordRootUpperLimit": 3,
              "noteLowLimit": 28,
              "noteHighLimit": 49,
              "rtr": "PITCH_SHIFT_TO_ROOT"
            },
            "ctb2High": null
          },
          "notes": [
            {
              "pitch": 24,
              "velocity": 100,
              "position": 0,
              "duration": 3.9895833333333335
            }
          ]
        },
        "11": {
          "ctab": {
            "srcChannel": 11,
            "name": "Organ",
            "accType": "CHORD1",
            "editable": false,
            "mutedNotes": [],
            "mutedChords": [],
            "autoStart": false,
            "sourceChordNote": 0,
            "sourceChordType": "min7(11)",
            "ctb2Low": null,
            "ctb2Main": {
              "ntr": "ROOT_TRANSPOSITION",
              "ntt": "CHORD",
              "bassOn": false,
              "chordRootUpperLimit": 3,
              "noteLowLimit": 28,
              "noteHighLimit": 127,
              "rtr": "PITCH_SHIFT"
            },
            "ctb2High": null
          },
          "notes": [
            {
              "pitch": 60,
              "velocity": 114,
              "position": 0,
              "duration": 3.9895833333333335
            },
            {
              "pitch": 67,
              "velocity": 114,
              "position": 0,
              "duration": 3.9895833333333335
            }
          ]
        },
        "12": {
          "ctab": {
            "srcChannel": 12,
            "name": "SySeq",
            "accType": "CHORD2",
            "editable": false,
            "mutedNotes": [],
            "mutedChords": [],
            "autoStart": false,
            "sourceChordNote": 0,
            "sourceChordType": "Maj",
            "ctb2Low": null,
            "ctb2Main": {
              "ntr": "ROOT_FIXED",
              "ntt": "CHORD",
              "bassOn": false,
              "chordRootUpperLimit": 7,
              "noteLowLimit": 0,
              "noteHighLimit": 127,
              "rtr": "PITCH_SHIFT"
            },
            "ctb2High": null
          },
          "notes": []
        },
        "13": {
          "ctab": {
            "srcChannel": 13,
            "name": "Sweep",
            "accType": "PAD",
            "editable": false,
            "mutedNotes": [],
            "mutedChords": [],
            "autoStart": false,
            "sourceChordNote": 0,
            "sourceChordType": "Maj7",
            "ctb2Low": null,
            "ctb2Main": {
              "ntr": "ROOT_FIXED",
              "ntt": "CHORD",
              "bassOn": false,
              "chordRootUpperLimit": 7,
              "noteLowLimit": 0,
              "noteHighLimit": 127,
              "rtr": "PITCH_SHIFT"
            },
            "ctb2High": null
          },
          "notes": [
            {
              "pitch": 55,
              "velocity": 51,
              "position": 0,
              "duration": 3.9791666666666665
            },
            {
              "pitch": 59,
              "velocity": 51,
              "position": 0,
              "duration": 3.9791666666666665
            },
            {
              "pitch": 64,
              "velocity": 51,
              "position": 0,
              "duration": 3.9791666666666665
            }
          ]
        },
        "14": {
          "ctab": {
            "srcChannel": 14,
            "name": "Ep",
            "accType": "PHRASE1",
            "editable": false,
            "mutedNotes": [],
            "mutedChords": [],
            "autoStart": false,
            "sourceChordNote": 0,
            "sourceChordType": "Maj7",
            "ctb2Low": null,
            "ctb2Main": {
              "ntr": "ROOT_FIXED",
              "ntt": "CHORD",
              "bassOn": false,
              "chordRootUpperLimit": 9,
              "noteLowLimit": 0,
              "noteHighLimit": 127,
              "rtr": "PITCH_SHIFT"
            },
            "ctb2High": null
          },
          "notes": []
        },
        "15": {
          "ctab": {
            "srcChannel": 15,
            "name": "Saw",
            "accType": "PHRASE2",
            "editable": false,
            "mutedNotes": [],
            "mutedChords": [],
            "autoStart": false,
            "sourceChordNote": 0,
            "sourceChordType": "Maj7",
            "ctb2Low": null,
            "ctb2Main": {
              "ntr": "ROOT_TRANSPOSITION",
              "ntt": "MELODY",
              "bassOn": true,
              "chordRootUpperLimit": 6,
              "noteLowLimit": 0,
              "noteHighLimit": 127,
              "rtr": "PITCH_SHIFT"
            },
            "ctb2High": null
          },
          "notes": []
        }
      }
    },
    "Fill_In_BA": {
      "type": "Fill_In_BA",
      "sizeInBeats": 4,
      "channels": {
        "1": {
          "ctab": {
            "srcChannel": 1,
            "name": "CC_Crash",
            "accType": "RHYTHM",
            "editable": false,
            "mutedNotes": [],
            "mutedChords": [
              "1+2+5",
              "sus4",
              "1+5",
              "1+8",
              "7aug",
              "Maj7aug",
              "7(#9)",
              "7(b13)",
              "7(b9)",
              "7(13)",
              "7#11",
              "7(9)",
              "7b5",
              "7sus4",
              "7th",
              "dim7",
              "dim",
              "minMaj7(9)",
              "minMaj7",
              "min7(11)",
              "min7(9)",
              "min(9)",
              "m7b5",
              "min7",
              "min6",
              "min",
              "aug",
              "Maj6(9)",
              "Maj7(9)",
              "Maj(9)",
              "Maj7#11",
              "Maj7",
              "Maj6",
              "Maj"
            ],
            "autoStart": true,
            "sourceChordNote": 0,
            "sourceChordType": "Maj",
            "ctb2Low": null,
            "ctb2Main": {
              "ntr": "ROOT_FIXED",
              "ntt": "BYPASS",
              "bassOn": false,
              "chordRootUpperLimit": 0,
              "noteLowLimit": 0,
              "noteHighLimit": 127,
              "rtr": "RETRIGGER"
            },
            "ctb2High": null
          },
          "notes": []
        },
        "5": {
          "ctab": {
            "srcChannel": 5,
            "name": "PadRoot",
            "accType": "PAD",
            "editable": false,
            "mutedNotes": [],
            "mutedChords": [
              "1+2+5",
              "sus4",
              "1+5",
              "1+8",
              "Maj7aug",
              "dim",
              "minMaj7(9)",
              "minMaj7",
              "min6",
              "min",
              "aug",
              "Maj7(9)",
              "Maj7#11",
              "Maj7",
              "Maj6",
              "Maj"
            ],
            "autoStart": false,
            "sourceChordNote": 0,
            "sourceChordType": "Maj7",
            "ctb2Low": null,
            "ctb2Main": {
              "ntr": "ROOT_TRANSPOSITION",
              "ntt": "MELODY",
              "bassOn": false,
              "chordRootUpperLimit": 6,
              "noteLowLimit": 0,
              "noteHighLimit": 127,
              "rtr": "PITCH_SHIFT"
            },
            "ctb2High": null
          },
          "notes": []
        },
        "6": {
          "ctab": {
            "srcChannel": 6,
            "name": "EpRoot",
            "accType": "PHRASE1",
            "editable": false,
            "mutedNotes": [],
            "mutedChords": [
              "1+2+5",
              "sus4",
              "1+5",
              "1+8",
              "Maj7aug",
              "dim",
              "minMaj7(9)",
              "minMaj7",
              "min6",
              "min",
              "aug",
              "Maj7(9)",
              "Maj7#11",
              "Maj7",
              "Maj6",
              "Maj"
            ],
            "autoStart": false,
            "sourceChordNote": 0,
            "sourceChordType": "Maj7",
            "ctb2Low": null,
            "ctb2Main": {
              "ntr": "ROOT_TRANSPOSITION",
              "ntt": "MELODY",
              "bassOn": false,
              "chordRootUpperLimit": 6,
              "noteLowLimit": 0,
              "noteHighLimit": 127,
              "rtr": "PITCH_SHIFT"
            },
            "ctb2High": null
          },
          "notes": []
        },
        "8": {
          "ctab": {
            "srcChannel": 8,
            "name": "Perc",
            "accType": "SUBRHYTHM",
            "editable": false,
            "mutedNotes": [],
            "mutedChords": [],
            "autoStart": true,
            "sourceChordNote": 0,
            "sourceChordType": "Maj7",
            "ctb2Low": null,
            "ctb2Main": {
              "ntr": "ROOT_FIXED",
              "ntt": "BYPASS",
              "bassOn": false,
              "chordRootUpperLimit": 6,
              "noteLowLimit": 0,
              "noteHighLimit": 127,
              "rtr": "PITCH_SHIFT"
            },
            "ctb2High": null
          },
          "notes": [
            {
              "pitch": 49,
              "velocity": 73,
              "position": 0,
              "duration": 0.010416666666666666
            },
            {
              "pitch": 57,
              "velocity": 60,
              "position": 3.9895833333333335,
              "duration": 0.010416666666666666
            }
          ]
        },
        "9": {
          "ctab": {
            "srcChannel": 9,
            "name": "Drum",
            "accType": "RHYTHM",
            "editable": false,
            "mutedNotes": [],
            "mutedChords": [],
            "autoStart": true,
            "sourceChordNote": 0,
            "sourceChordType": "Maj7",
            "ctb2Low": null,
            "ctb2Main": {
              "ntr": "ROOT_FIXED",
              "ntt": "BYPASS",
              "bassOn": false,
              "chordRootUpperLimit": 6,
              "noteLowLimit": 0,
              "noteHighLimit": 127,
              "rtr": "PITCH_SHIFT"
            },
            "ctb2High": null
          },
          "notes": [
            {
              "pitch": 33,
              "velocity": 95,
              "position": 0,
              "duration": 0.010416666666666666
            },
            {
              "pitch": 42,
              "velocity": 98,
              "position": 0,
              "duration": 0.010416666666666666
            },
            {
              "pitch": 70,
              "velocity": 90,
              "position": 0,
              "duration": 0.010416666666666666
            },
            {
              "pitch": 15,
              "velocity": 43,
              "position": 0.5,
              "duration": 0.010416666666666666
            },
            {
              "pitch": 46,
              "velocity": 54,
              "position": 0.5,
              "duration": 0.010416666666666666
            },
            {
              "pitch": 70,
              "velocity": 46,
              "position": 0.5,
              "duration": 0.010416666666666666
            },
            {
              "pitch": 32,
              "velocity": 73,
              "position": 1,
              "duration": 0.010416666666666666
            },
            {
              "pitch": 33,
              "velocity": 95,
              "position": 1,
              "duration": 0.010416666666666666
            },
            {
              "pitch": 42,
              "velocity": 95,
              "position": 1,
              "duration": 0.010416666666666666
            },
            {
              "pitch": 70,
              "velocity": 87,
              "position": 1,
              "duration": 0.010416666666666666
            },
            {
              "pitch": 15,
              "velocity": 50,
              "position": 1.5,
              "duration": 0.010416666666666666
            },
            {
              "pitch": 46,
              "velocity": 52,
              "position": 1.5,
              "duration": 0.010416666666666666
            },
            {
              "pitch": 70,
              "velocity": 44,
              "position": 1.5,
              "duration": 0.010416666666666666
            },
            {
              "pitch": 33,
              "velocity": 95,
              "position": 2,
              "duration": 0.010416666666666666
            },
            {
              "pitch": 44,
              "velocity": 98,
              "position": 2,
              "duration": 0.010416666666666666
            },
            {
              "pitch": 70,
              "velocity": 90,
              "position": 2,
              "duration": 0.010416666666666666
            },
            {
              "pitch": 15,
              "velocity": 53,
              "position": 2.5,
              "duration": 0.010416666666666666
            },
            {
              "pitch": 15,
              "velocity": 54,
              "position": 2.75,
              "duration": 0.010416666666666666
            },
            {
              "pitch": 22,
              "velocity": 74,
              "position": 2.5,
              "duration": 0.4270833333333333
            },
            {
              "pitch": 28,
              "velocity": 30,
              "position": 1.5,
              "duration": 1.4583333333333333
            },
            {
              "pitch": 16,
              "velocity": 90,
              "position": 3,
              "duration": 0.010416666666666666
            },
            {
              "pitch": 21,
              "velocity": 92,
              "position": 3,
              "duration": 0.010416666666666666
            }
          ]
        },
        "10": {
          "ctab": {
            "srcChannel": 10,
            "name": "Bass",
            "accType": "BASS",
            "editable": false,
            "mutedNotes": [],
            "mutedChords": [],
            "autoStart": false,
            "sourceChordNote": 0,
            "sourceChordType": "Maj7",
            "ctb2Low": null,
            "ctb2Main": {
              "ntr": "ROOT_TRANSPOSITION",
              "ntt": "MELODY",
              "bassOn": true,
              "chordRootUpperLimit": 3,
              "noteLowLimit": 28,
              "noteHighLimit": 49,
              "rtr": "PITCH_SHIFT_TO_ROOT"
            },
            "ctb2High": null
          },
          "notes": [
            {
              "pitch": 36,
              "velocity": 100,
              "position": 0.5,
              "duration": 0.5
            },
            {
              "pitch": 36,
              "velocity": 100,
              "position": 1.5,
              "duration": 0.5
            }
          ]
        },
        "11": {
          "ctab": {
            "srcChannel": 11,
            "name": "Organ",
            "accType": "CHORD1",
            "editable": false,
            "mutedNotes": [],
            "mutedChords": [],
            "autoStart": false,
            "sourceChordNote": 0,
            "sourceChordType": "min7(11)",
            "ctb2Low": null,
            "ctb2Main": {
              "ntr": "ROOT_TRANSPOSITION",
              "ntt": "CHORD",
              "bassOn": false,
              "chordRootUpperLimit": 3,
              "noteLowLimit": 28,
              "noteHighLimit": 127,
              "rtr": "PITCH_SHIFT"
            },
            "ctb2High": null
          },
          "notes": [
            {
              "pitch": 60,
              "velocity": 115,
              "position": 0.5,
              "duration": 0.4166666666666667
            },
            {
              "pitch": 67,
              "velocity": 115,
              "position": 0.5,
              "duration": 0.4166666666666667
            },
            {
              "pitch": 60,
              "velocity": 115,
              "position": 1.5,
              "duration": 0.4166666666666667
            },
            {
              "pitch": 67,
              "velocity": 115,
              "position": 1.5,
              "duration": 0.4166666666666667
            }
          ]
        },
        "12": {
          "ctab": {
            "srcChannel": 12,
            "name": "SySeq",
            "accType": "CHORD2",
            "editable": false,
            "mutedNotes": [],
            "mutedChords": [],
            "autoStart": false,
            "sourceChordNote": 0,
            "sourceChordType": "Maj",
            "ctb2Low": null,
            "ctb2Main": {
              "ntr": "ROOT_FIXED",
              "ntt": "CHORD",
              "bassOn": false,
              "chordRootUpperLimit": 7,
              "noteLowLimit": 0,
              "noteHighLimit": 127,
              "rtr": "PITCH_SHIFT"
            },
            "ctb2High": null
          },
          "notes": []
        },
        "13": {
          "ctab": {
            "srcChannel": 13,
            "name": "Sweep",
            "accType": "PAD",
            "editable": false,
            "mutedNotes": [],
            "mutedChords": [],
            "autoStart": false,
            "sourceChordNote": 0,
            "sourceChordType": "Maj7",
            "ctb2Low": null,
            "ctb2Main": {
              "ntr": "ROOT_FIXED",
              "ntt": "CHORD",
              "bassOn": false,
              "chordRootUpperLimit": 7,
              "noteLowLimit": 0,
              "noteHighLimit": 127,
              "rtr": "PITCH_SHIFT"
            },
            "ctb2High": null
          },
          "notes": []
        },
        "14": {
          "ctab": {
            "srcChannel": 14,
            "name": "Ep",
            "accType": "PHRASE1",
            "editable": false,
            "mutedNotes": [],
            "mutedChords": [],
            "autoStart": false,
            "sourceChordNote": 0,
            "sourceChordType": "Maj7",
            "ctb2Low": null,
            "ctb2Main": {
              "ntr": "ROOT_FIXED",
              "ntt": "CHORD",
              "bassOn": false,
              "chordRootUpperLimit": 9,
              "noteLowLimit": 0,
              "noteHighLimit": 127,
              "rtr": "PITCH_SHIFT"
            },
            "ctb2High": null
          },
          "notes": []
        },
        "15": {
          "ctab": {
            "srcChannel": 15,
            "name": "Saw",
            "accType": "PHRASE2",
            "editable": false,
            "mutedNotes": [],
            "mutedChords": [],
            "autoStart": false,
            "sourceChordNote": 0,
            "sourceChordType": "Maj7",
            "ctb2Low": null,
            "ctb2Main": {
              "ntr": "ROOT_TRANSPOSITION",
              "ntt": "MELODY",
              "bassOn": true,
              "chordRootUpperLimit": 6,
              "noteLowLimit": 0,
              "noteHighLimit": 127,
              "rtr": "PITCH_SHIFT"
            },
            "ctb2High": null
          },
          "notes": []
        }
      }
    },
    "Intro_B": {
      "type": "Intro_B",
      "sizeInBeats": 16,
      "channels": {
        "8": {
          "ctab": {
            "srcChannel": 8,
            "name": "Perc",
            "accType": "SUBRHYTHM",
            "editable": false,
            "mutedNotes": [],
            "mutedChords": [],
            "autoStart": true,
            "sourceChordNote": 0,
            "sourceChordType": "Maj7",
            "ctb2Low": null,
            "ctb2Main": {
              "ntr": "ROOT_FIXED",
              "ntt": "BYPASS",
              "bassOn": false,
              "chordRootUpperLimit": 6,
              "noteLowLimit": 0,
              "noteHighLimit": 127,
              "rtr": "PITCH_SHIFT"
            },
            "ctb2High": null
          },
          "notes": [
            {
              "pitch": 82,
              "velocity": 73,
              "position": 0.5,
              "duration": 0.010416666666666666
            },
            {
              "pitch": 82,
              "velocity": 43,
              "position": 0.75,
              "duration": 0.010416666666666666
            },
            {
              "pitch": 82,
              "velocity": 73,
              "position": 1.5,
              "duration": 0.010416666666666666
            },
            {
              "pitch": 82,
              "velocity": 43,
              "position": 1.75,
              "duration": 0.010416666666666666
            },
            {
              "pitch": 82,
              "velocity": 73,
              "position": 2.5,
              "duration": 0.010416666666666666
            },
            {
              "pitch": 82,
              "velocity": 43,
              "position": 2.75,
              "duration": 0.010416666666666666
            },
            {
              "pitch": 82,
              "velocity": 73,
              "position": 3.5,
              "duration": 0.010416666666666666
            },
            {
              "pitch": 82,
              "velocity": 43,
              "position": 3.75,
              "duration": 0.010416666666666666
            },
            {
              "pitch": 82,
              "velocity": 73,
              "position": 4.5,
              "duration": 0.010416666666666666
            },
            {
              "pitch": 82,
              "velocity": 43,
              "position": 4.75,
              "duration": 0.010416666666666666
            },
            {
              "pitch": 82,
              "velocity": 73,
              "position": 5.5,
              "duration": 0.010416666666666666
            },
            {
              "pitch": 82,
              "velocity": 43,
              "position": 5.75,
              "duration": 0.010416666666666666
            },
            {
              "pitch": 82,
              "velocity": 73,
              "position": 6.5,
              "duration": 0.010416666666666666
            },
            {
              "pitch": 82,
              "velocity": 43,
              "position": 6.75,
              "duration": 0.010416666666666666
            },
            {
              "pitch": 82,
              "velocity": 73,
              "position": 7.5,
              "duration": 0.010416666666666666
            },
            {
              "pitch": 82,
              "velocity": 43,
              "position": 7.75,
              "duration": 0.010416666666666666
            },
            {
              "pitch": 82,
              "velocity": 73,
              "position": 8.5,
              "duration": 0.010416666666666666
            },
            {
              "pitch": 82,
              "velocity": 43,
              "position": 8.75,
              "duration": 0.010416666666666666
            },
            {
              "pitch": 82,
              "velocity": 73,
              "position": 9.5,
              "duration": 0.010416666666666666
            },
            {
              "pitch": 82,
              "velocity": 43,
              "position": 9.75,
              "duration": 0.010416666666666666
            },
            {
              "pitch": 82,
              "velocity": 73,
              "position": 10.5,
              "duration": 0.010416666666666666
            },
            {
              "pitch": 82,
              "velocity": 43,
              "position": 10.75,
              "duration": 0.010416666666666666
            },
            {
              "pitch": 82,
              "velocity": 73,
              "position": 11.5,
              "duration": 0.010416666666666666
            },
            {
              "pitch": 82,
              "velocity": 43,
              "position": 11.75,
              "duration": 0.010416666666666666
            },
            {
              "pitch": 82,
              "velocity": 73,
              "position": 12.5,
              "duration": 0.010416666666666666
            },
            {
              "pitch": 82,
              "velocity": 43,
              "position": 12.75,
              "duration": 0.010416666666666666
            },
            {
              "pitch": 82,
              "velocity": 73,
              "position": 13.5,
              "duration": 0.010416666666666666
            },
            {
              "pitch": 82,
              "velocity": 43,
              "position": 13.75,
              "duration": 0.010416666666666666
            },
            {
              "pitch": 82,
              "velocity": 73,
              "position": 14.5,
              "duration": 0.010416666666666666
            },
            {
              "pitch": 82,
              "velocity": 43,
              "position": 14.75,
              "duration": 0.010416666666666666
            }
          ]
        },
        "9": {
          "ctab": {
            "srcChannel": 9,
            "name": "Drums",
            "accType": "RHYTHM",
            "editable": false,
            "mutedNotes": [],
            "mutedChords": [],
            "autoStart": true,
            "sourceChordNote": 0,
            "sourceChordType": "Maj7",
            "ctb2Low": null,
            "ctb2Main": {
              "ntr": "ROOT_FIXED",
              "ntt": "BYPASS",
              "bassOn": false,
              "chordRootUpperLimit": 6,
              "noteLowLimit": 0,
              "noteHighLimit": 127,
              "rtr": "PITCH_SHIFT"
            },
            "ctb2High": null
          },
          "notes": [
            {
              "pitch": 42,
              "velocity": 98,
              "position": 0,
              "duration": 0.010416666666666666
            },
            {
              "pitch": 70,
              "velocity": 90,
              "position": 0,
              "duration": 0.010416666666666666
            },
            {
              "pitch": 42,
              "velocity": 54,
              "position": 0.5,
              "duration": 0.010416666666666666
            },
            {
              "pitch": 70,
              "velocity": 46,
              "position": 0.5,
              "duration": 0.010416666666666666
            },
            {
              "pitch": 42,
              "velocity": 95,
              "position": 1,
              "duration": 0.010416666666666666
            },
            {
              "pitch": 70,
              "velocity": 87,
              "position": 1,
              "duration": 0.010416666666666666
            },
            {
              "pitch": 42,
              "velocity": 52,
              "position": 1.5,
              "duration": 0.010416666666666666
            },
            {
              "pitch": 70,
              "velocity": 44,
              "position": 1.5,
              "duration": 0.010416666666666666
            },
            {
              "pitch": 42,
              "velocity": 98,
              "position": 2,
              "duration": 0.010416666666666666
            },
            {
              "pitch": 70,
              "velocity": 90,
              "position": 2,
              "duration": 0.010416666666666666
            },
            {
              "pitch": 42,
              "velocity": 54,
              "position": 2.5,
              "duration": 0.010416666666666666
            },
            {
              "pitch": 70,
              "velocity": 46,
              "position": 2.5,
              "duration": 0.010416666666666666
            },
            {
              "pitch": 42,
              "velocity": 95,
              "position": 3,
              "duration": 0.010416666666666666
            },
            {
              "pitch": 70,
              "velocity": 87,
              "position": 3,
              "duration": 0.010416666666666666
            },
            {
              "pitch": 42,
              "velocity": 53,
              "position": 3.5,
              "duration": 0.010416666666666666
            },
            {
              "pitch": 70,
              "velocity": 44,
              "position": 3.5,
              "duration": 0.010416666666666666
            },
            {
              "pitch": 42,
              "velocity": 98,
              "position": 4,
              "duration": 0.010416666666666666
            },
            {
              "pitch": 70,
              "velocity": 90,
              "position": 4,
              "duration": 0.010416666666666666
            },
            {
              "pitch": 42,
              "velocity": 54,
              "position": 4.5,
              "duration": 0.010416666666666666
            },
            {
              "pitch": 70,
              "velocity": 46,
              "position": 4.5,
              "duration": 0.010416666666666666
            },
            {
              "pitch": 42,
              "velocity": 95,
              "position": 5,
              "duration": 0.010416666666666666
            },
            {
              "pitch": 70,
              "velocity": 87,
              "position": 5,
              "duration": 0.010416666666666666
            },
            {
              "pitch": 42,
              "velocity": 52,
              "position": 5.5,
              "duration": 0.010416666666666666
            },
            {
              "pitch": 70,
              "velocity": 44,
              "position": 5.5,
              "duration": 0.010416666666666666
            },
            {
              "pitch": 42,
              "velocity": 98,
              "position": 6,
              "duration": 0.010416666666666666
            },
            {
              "pitch": 70,
              "velocity": 90,
              "position": 6,
              "duration": 0.010416666666666666
            },
            {
              "pitch": 42,
              "velocity": 54,
              "position": 6.5,
              "duration": 0.010416666666666666
            },
            {
              "pitch": 70,
              "velocity": 46,
              "position": 6.5,
              "duration": 0.010416666666666666
            },
            {
              "pitch": 42,
              "velocity": 95,
              "position": 7,
              "duration": 0.010416666666666666
            },
            {
              "pitch": 70,
              "velocity": 87,
              "position": 7,
              "duration": 0.010416666666666666
            },
            {
              "pitch": 42,
              "velocity": 52,
              "position": 7.5,
              "duration": 0.010416666666666666
            },
            {
              "pitch": 70,
              "velocity": 44,
              "position": 7.5,
              "duration": 0.010416666666666666
            },
            {
              "pitch": 42,
              "velocity": 36,
              "position": 7.75,
              "duration": 0.010416666666666666
            },
            {
              "pitch": 42,
              "velocity": 98,
              "position": 8,
              "duration": 0.010416666666666666
            },
            {
              "pitch": 70,
              "velocity": 90,
              "position": 8,
              "duration": 0.010416666666666666
            },
            {
              "pitch": 42,
              "velocity": 54,
              "position": 8.5,
              "duration": 0.010416666666666666
            },
            {
              "pitch": 70,
              "velocity": 46,
              "position": 8.5,
              "duration": 0.010416666666666666
            },
            {
              "pitch": 42,
              "velocity": 95,
              "position": 9,
              "duration": 0.010416666666666666
            },
            {
              "pitch": 70,
              "velocity": 87,
              "position": 9,
              "duration": 0.010416666666666666
            },
            {
              "pitch": 42,
              "velocity": 52,
              "position": 9.5,
              "duration": 0.010416666666666666
            },
            {
              "pitch": 70,
              "velocity": 44,
              "position": 9.5,
              "duration": 0.010416666666666666
            },
            {
              "pitch": 42,
              "velocity": 98,
              "position": 10,
              "duration": 0.010416666666666666
            },
            {
              "pitch": 70,
              "velocity": 90,
              "position": 10,
              "duration": 0.010416666666666666
            },
            {
              "pitch": 42,
              "velocity": 54,
              "position": 10.5,
              "duration": 0.010416666666666666
            },
            {
              "pitch": 70,
              "velocity": 46,
              "position": 10.5,
              "duration": 0.010416666666666666
            },
            {
              "pitch": 42,
              "velocity": 95,
              "position": 11,
              "duration": 0.010416666666666666
            },
            {
              "pitch": 70,
              "velocity": 87,
              "position": 11,
              "duration": 0.010416666666666666
            },
            {
              "pitch": 33,
              "velocity": 95,
              "position": 11.5,
              "duration": 0.010416666666666666
            },
            {
              "pitch": 42,
              "velocity": 53,
              "position": 11.5,
              "duration": 0.010416666666666666
            },
            {
              "pitch": 70,
              "velocity": 44,
              "position": 11.5,
              "duration": 0.010416666666666666
            },
            {
              "pitch": 70,
              "velocity": 28,
              "position": 11.75,
              "duration": 0.010416666666666666
            },
            {
              "pitch": 33,
              "velocity": 95,
              "position": 12,
              "duration": 0.010416666666666666
            },
            {
              "pitch": 42,
              "velocity": 98,
              "position": 12,
              "duration": 0.010416666666666666
            },
            {
              "pitch": 70,
              "velocity": 90,
              "position": 12,
              "duration": 0.010416666666666666
            },
            {
              "pitch": 15,
              "velocity": 43,
              "position": 12.5,
              "duration": 0.010416666666666666
            },
            {
              "pitch": 42,
              "velocity": 53,
              "position": 12.5,
              "duration": 0.010416666666666666
            },
            {
              "pitch": 70,
              "velocity": 46,
              "position": 12.5,
              "duration": 0.010416666666666666
            },
            {
              "pitch": 33,
              "velocity": 95,
              "position": 13,
              "duration": 0.010416666666666666
            },
            {
              "pitch": 42,
              "velocity": 91,
              "position": 13,
              "duration": 0.010416666666666666
            },
            {
              "pitch": 70,
              "velocity": 87,
              "position": 13,
              "duration": 0.010416666666666666
            },
            {
              "pitch": 15,
              "velocity": 50,
              "position": 13.5,
              "duration": 0.010416666666666666
            },
            {
              "pitch": 42,
              "velocity": 51,
              "position": 13.5,
              "duration": 0.010416666666666666
            },
            {
              "pitch": 70,
              "velocity": 44,
              "position": 13.5,
              "duration": 0.010416666666666666
            },
            {
              "pitch": 33,
              "velocity": 95,
              "position": 14,
              "duration": 0.010416666666666666
            },
            {
              "pitch": 42,
              "velocity": 98,
              "position": 14,
              "duration": 0.010416666666666666
            },
            {
              "pitch": 70,
              "velocity": 90,
              "position": 14,
              "duration": 0.010416666666666666
            },
            {
              "pitch": 15,
              "velocity": 53,
              "position": 14.5,
              "duration": 0.010416666666666666
            },
            {
              "pitch": 42,
              "velocity": 57,
              "position": 14.5,
              "duration": 0.010416666666666666
            },
            {
              "pitch": 70,
              "velocity": 46,
              "position": 14.5,
              "duration": 0.010416666666666666
            },
            {
              "pitch": 15,
              "velocity": 54,
              "position": 14.75,
              "duration": 0.010416666666666666
            },
            {
              "pitch": 22,
              "velocity": 74,
              "position": 14.5,
              "duration": 0.4270833333333333
            },
            {
              "pitch": 28,
              "velocity": 30,
              "position": 13.5,
              "duration": 1.4583333333333333
            },
            {
              "pitch": 16,
              "velocity": 90,
              "position": 15,
              "duration": 0.010416666666666666
            },
            {
              "pitch": 21,
              "velocity": 92,
              "position": 15,
              "duration": 0.010416666666666666
            },
            {
              "pitch": 32,
              "velocity": 73,
              "position": 15,
              "duration": 0.010416666666666666
            },
            {
              "pitch": 70,
              "velocity": 87,
              "position": 15,
              "duration": 0.010416666666666666
            },
            {
              "pitch": 39,
              "velocity": 100,
              "position": 15.020833333333334,
              "duration": 0.052083333333333336
            }
          ]
        },
        "10": {
          "ctab": {
            "srcChannel": 10,
            "name": "Bass",
            "accType": "BASS",
            "editable": false,
            "mutedNotes": [],
            "mutedChords": [],
            "autoStart": false,
            "sourceChordNote": 0,
            "sourceChordType": "min",
            "ctb2Low": null,
            "ctb2Main": {
              "ntr": "ROOT_TRANSPOSITION",
              "ntt": "HARMONIC_MINOR",
              "bassOn": false,
              "chordRootUpperLimit": 3,
              "noteLowLimit": 28,
              "noteHighLimit": 127,
              "rtr": "PITCH_SHIFT"
            },
            "ctb2High": null
          },
          "notes": [
            {
              "pitch": 24,
              "velocity": 100,
              "position": 0.5,
              "duration": 0.5
            },
            {
              "pitch": 24,
              "velocity": 100,
              "position": 1.5,
              "duration": 0.5
            },
            {
              "pitch": 24,
              "velocity": 100,
              "position": 2.5,
              "duration": 0.5
            },
            {
              "pitch": 24,
              "velocity": 100,
              "position": 3.5,
              "duration": 0.5
            },
            {
              "pitch": 24,
              "velocity": 100,
              "position": 4.5,
              "duration": 0.5
            },
            {
              "pitch": 24,
              "velocity": 100,
              "position": 5.5,
              "duration": 0.5
            },
            {
              "pitch": 24,
              "velocity": 100,
              "position": 6.5,
              "duration": 0.5
            },
            {
              "pitch": 24,
              "velocity": 100,
              "position": 7.5,
              "duration": 0.5
            },
            {
              "pitch": 31,
              "velocity": 100,
              "position": 8.5,
              "duration": 0.5
            },
            {
              "pitch": 31,
              "velocity": 100,
              "position": 9.5,
              "duration": 0.5
            },
            {
              "pitch": 31,
              "velocity": 100,
              "position": 10.5,
              "duration": 0.5
            },
            {
              "pitch": 31,
              "velocity": 100,
              "position": 11.5,
              "duration": 0.5
            },
            {
              "pitch": 31,
              "velocity": 100,
              "position": 12.5,
              "duration": 0.5
            },
            {
              "pitch": 31,
              "velocity": 100,
              "position": 13.5,
              "duration": 0.5
            },
            {
              "pitch": 31,
              "velocity": 100,
              "position": 14.5,
              "duration": 0.5
            }
          ]
        },
        "11": {
          "ctab": {
            "srcChannel": 11,
            "name": "Organ",
            "accType": "CHORD1",
            "editable": false,
            "mutedNotes": [],
            "mutedChords": [],
            "autoStart": false,
            "sourceChordNote": 0,
            "sourceChordType": "min",
            "ctb2Low": null,
            "ctb2Main": {
              "ntr": "ROOT_TRANSPOSITION",
              "ntt": "HARMONIC_MINOR",
              "bassOn": false,
              "chordRootUpperLimit": 6,
              "noteLowLimit": 0,
              "noteHighLimit": 127,
              "rtr": "PITCH_SHIFT"
            },
            "ctb2High": null
          },
          "notes": []
        },
        "12": {
          "ctab": {
            "srcChannel": 12,
            "name": "Metal",
            "accType": "CHORD2",
            "editable": false,
            "mutedNotes": [],
            "mutedChords": [],
            "autoStart": false,
            "sourceChordNote": 0,
            "sourceChordType": "min",
            "ctb2Low": null,
            "ctb2Main": {
              "ntr": "ROOT_TRANSPOSITION",
              "ntt": "HARMONIC_MINOR",
              "bassOn": false,
              "chordRootUpperLimit": 6,
              "noteLowLimit": 0,
              "noteHighLimit": 127,
              "rtr": "PITCH_SHIFT"
            },
            "ctb2High": null
          },
          "notes": []
        },
        "13": {
          "ctab": {
            "srcChannel": 13,
            "name": "SySeq",
            "accType": "PAD",
            "editable": false,
            "mutedNotes": [],
            "mutedChords": [],
            "autoStart": false,
            "sourceChordNote": 0,
            "sourceChordType": "min",
            "ctb2Low": null,
            "ctb2Main": {
              "ntr": "ROOT_TRANSPOSITION",
              "ntt": "HARMONIC_MINOR",
              "bassOn": false,
              "chordRootUpperLimit": 8,
              "noteLowLimit": 0,
              "noteHighLimit": 127,
              "rtr": "PITCH_SHIFT"
            },
            "ctb2High": null
          },
          "notes": [
            {
              "pitch": 53,
              "velocity": 80,
              "position": 0.010416666666666666,
              "duration": 7.875
            },
            {
              "pitch": 56,
              "velocity": 83,
              "position": 0.020833333333333332,
              "duration": 7.875
            },
            {
              "pitch": 60,
              "velocity": 83,
              "position": 0.03125,
              "duration": 7.875
            },
            {
              "pitch": 63,
              "velocity": 80,
              "position": 0.041666666666666664,
              "duration": 7.875
            },
            {
              "pitch": 65,
              "velocity": 87,
              "position": 8.03125,
              "duration": 3.9895833333333335
            },
            {
              "pitch": 55,
              "velocity": 87,
              "position": 8.010416666666666,
              "duration": 6.989583333333333
            },
            {
              "pitch": 60,
              "velocity": 87,
              "position": 8.020833333333334,
              "duration": 6.979166666666667
            },
            {
              "pitch": 62,
              "velocity": 87,
              "position": 8.03125,
              "duration": 6.96875
            },
            {
              "pitch": 67,
              "velocity": 87,
              "position": 12.03125,
              "duration": 2.96875
            }
          ]
        },
        "14": {
          "ctab": {
            "srcChannel": 14,
            "name": "Ep",
            "accType": "PHRASE1",
            "editable": false,
            "mutedNotes": [],
            "mutedChords": [],
            "autoStart": false,
            "sourceChordNote": 0,
            "sourceChordType": "min",
            "ctb2Low": null,
            "ctb2Main": {
              "ntr": "ROOT_TRANSPOSITION",
              "ntt": "HARMONIC_MINOR",
              "bassOn": false,
              "chordRootUpperLimit": 5,
              "noteLowLimit": 0,
              "noteHighLimit": 127,
              "rtr": "PITCH_SHIFT"
            },
            "ctb2High": null
          },
          "notes": [
            {
              "pitch": 53,
              "velocity": 102,
              "position": 0.010416666666666666,
              "duration": 7.875
            },
            {
              "pitch": 56,
              "velocity": 105,
              "position": 0.020833333333333332,
              "duration": 7.875
            },
            {
              "pitch": 60,
              "velocity": 105,
              "position": 0.03125,
              "duration": 7.875
            },
            {
              "pitch": 63,
              "velocity": 102,
              "position": 0.041666666666666664,
              "duration": 7.875
            },
            {
              "pitch": 55,
              "velocity": 109,
              "position": 8.010416666666666,
              "duration": 6.989583333333333
            },
            {
              "pitch": 60,
              "velocity": 109,
              "position": 8.020833333333334,
              "duration": 6.979166666666667
            },
            {
              "pitch": 62,
              "velocity": 109,
              "position": 8.03125,
              "duration": 6.96875
            }
          ]
        },
        "15": {
          "ctab": {
            "srcChannel": 15,
            "name": "Saw",
            "accType": "PHRASE2",
            "editable": false,
            "mutedNotes": [],
            "mutedChords": [],
            "autoStart": false,
            "sourceChordNote": 0,
            "sourceChordType": "min",
            "ctb2Low": null,
            "ctb2Main": {
              "ntr": "ROOT_TRANSPOSITION",
              "ntt": "HARMONIC_MINOR",
              "bassOn": false,
              "chordRootUpperLimit": 4,
              "noteLowLimit": 0,
              "noteHighLimit": 127,
              "rtr": "PITCH_SHIFT"
            },
            "ctb2High": null
          },
          "notes": [
            {
              "pitch": 55,
              "velocity": 85,
              "position": 3.5,
              "duration": 0.4375
            },
            {
              "pitch": 55,
              "velocity": 106,
              "position": 4,
              "duration": 0.4895833333333333
            },
            {
              "pitch": 55,
              "velocity": 86,
              "position": 4.5,
              "duration": 0.3541666666666667
            },
            {
              "pitch": 55,
              "velocity": 50,
              "position": 5.5,
              "duration": 0.4375
            },
            {
              "pitch": 55,
              "velocity": 71,
              "position": 6,
              "duration": 0.4895833333333333
            },
            {
              "pitch": 55,
              "velocity": 51,
              "position": 6.5,
              "duration": 0.3541666666666667
            },
            {
              "pitch": 55,
              "velocity": 85,
              "position": 11.5,
              "duration": 0.4375
            },
            {
              "pitch": 55,
              "velocity": 107,
              "position": 12,
              "duration": 0.4895833333333333
            },
            {
              "pitch": 55,
              "velocity": 86,
              "position": 12.5,
              "duration": 0.3541666666666667
            }
          ]
        }
      }
    },
    "Intro_C": {
      "type": "Intro_C",
      "sizeInBeats": 32,
      "channels": {
        "8": {
          "ctab": {
            "srcChannel": 8,
            "name": "Perc",
            "accType": "SUBRHYTHM",
            "editable": false,
            "mutedNotes": [],
            "mutedChords": [],
            "autoStart": true,
            "sourceChordNote": 0,
            "sourceChordType": "Maj7",
            "ctb2Low": null,
            "ctb2Main": {
              "ntr": "ROOT_FIXED",
              "ntt": "BYPASS",
              "bassOn": false,
              "chordRootUpperLimit": 6,
              "noteLowLimit": 0,
              "noteHighLimit": 127,
              "rtr": "PITCH_SHIFT"
            },
            "ctb2High": null
          },
          "notes": [
            {
              "pitch": 49,
              "velocity": 94,
              "position": 0,
              "duration": 0.010416666666666666
            },
            {
              "pitch": 55,
              "velocity": 85,
              "position": 15,
              "duration": 0.010416666666666666
            },
            {
              "pitch": 42,
              "velocity": 67,
              "position": 16,
              "duration": 0.010416666666666666
            },
            {
              "pitch": 49,
              "velocity": 85,
              "position": 16,
              "duration": 0.010416666666666666
            },
            {
              "pitch": 42,
              "velocity": 79,
              "position": 16.5,
              "duration": 0.010416666666666666
            },
            {
              "pitch": 70,
              "velocity": 73,
              "position": 16.5,
              "duration": 0.010416666666666666
            },
            {
              "pitch": 82,
              "velocity": 73,
              "position": 16.5,
              "duration": 0.010416666666666666
            },
            {
              "pitch": 70,
              "velocity": 43,
              "position": 16.75,
              "duration": 0.010416666666666666
            },
            {
              "pitch": 82,
              "velocity": 43,
              "position": 16.75,
              "duration": 0.010416666666666666
            },
            {
              "pitch": 42,
              "velocity": 114,
              "position": 17,
              "duration": 0.010416666666666666
            },
            {
              "pitch": 42,
              "velocity": 90,
              "position": 17.5,
              "duration": 0.010416666666666666
            },
            {
              "pitch": 70,
              "velocity": 73,
              "position": 17.5,
              "duration": 0.010416666666666666
            },
            {
              "pitch": 82,
              "velocity": 73,
              "position": 17.5,
              "duration": 0.010416666666666666
            },
            {
              "pitch": 70,
              "velocity": 43,
              "position": 17.75,
              "duration": 0.010416666666666666
            },
            {
              "pitch": 82,
              "velocity": 43,
              "position": 17.75,
              "duration": 0.010416666666666666
            },
            {
              "pitch": 42,
              "velocity": 90,
              "position": 18,
              "duration": 0.010416666666666666
            },
            {
              "pitch": 42,
              "velocity": 71,
              "position": 18.5,
              "duration": 0.010416666666666666
            },
            {
              "pitch": 70,
              "velocity": 73,
              "position": 18.5,
              "duration": 0.010416666666666666
            },
            {
              "pitch": 82,
              "velocity": 73,
              "position": 18.5,
              "duration": 0.010416666666666666
            },
            {
              "pitch": 70,
              "velocity": 43,
              "position": 18.75,
              "duration": 0.010416666666666666
            },
            {
              "pitch": 82,
              "velocity": 43,
              "position": 18.75,
              "duration": 0.010416666666666666
            },
            {
              "pitch": 42,
              "velocity": 107,
              "position": 19,
              "duration": 0.010416666666666666
            },
            {
              "pitch": 42,
              "velocity": 71,
              "position": 19.5,
              "duration": 0.010416666666666666
            },
            {
              "pitch": 70,
              "velocity": 73,
              "position": 19.5,
              "duration": 0.010416666666666666
            },
            {
              "pitch": 82,
              "velocity": 73,
              "position": 19.5,
              "duration": 0.010416666666666666
            },
            {
              "pitch": 70,
              "velocity": 43,
              "position": 19.75,
              "duration": 0.010416666666666666
            },
            {
              "pitch": 82,
              "velocity": 43,
              "position": 19.75,
              "duration": 0.010416666666666666
            },
            {
              "pitch": 42,
              "velocity": 90,
              "position": 20,
              "duration": 0.010416666666666666
            },
            {
              "pitch": 42,
              "velocity": 84,
              "position": 20.5,
              "duration": 0.010416666666666666
            },
            {
              "pitch": 70,
              "velocity": 73,
              "position": 20.5,
              "duration": 0.010416666666666666
            },
            {
              "pitch": 82,
              "velocity": 73,
              "position": 20.5,
              "duration": 0.010416666666666666
            },
            {
              "pitch": 70,
              "velocity": 43,
              "position": 20.75,
              "duration": 0.010416666666666666
            },
            {
              "pitch": 82,
              "velocity": 43,
              "position": 20.75,
              "duration": 0.010416666666666666
            },
            {
              "pitch": 42,
              "velocity": 111,
              "position": 21,
              "duration": 0.010416666666666666
            },
            {
              "pitch": 42,
              "velocity": 76,
              "position": 21.5,
              "duration": 0.010416666666666666
            },
            {
              "pitch": 70,
              "velocity": 73,
              "position": 21.5,
              "duration": 0.010416666666666666
            },
            {
              "pitch": 82,
              "velocity": 73,
              "position": 21.5,
              "duration": 0.010416666666666666
            },
            {
              "pitch": 70,
              "velocity": 43,
              "position": 21.75,
              "duration": 0.010416666666666666
            },
            {
              "pitch": 82,
              "velocity": 43,
              "position": 21.75,
              "duration": 0.010416666666666666
            },
            {
              "pitch": 42,
              "velocity": 90,
              "position": 22,
              "duration": 0.010416666666666666
            },
            {
              "pitch": 42,
              "velocity": 84,
              "position": 22.5,
              "duration": 0.010416666666666666
            },
            {
              "pitch": 70,
              "velocity": 73,
              "position": 22.5,
              "duration": 0.010416666666666666
            },
            {
              "pitch": 82,
              "velocity": 73,
              "position": 22.5,
              "duration": 0.010416666666666666
            },
            {
              "pitch": 70,
              "velocity": 43,
              "position": 22.75,
              "duration": 0.010416666666666666
            },
            {
              "pitch": 82,
              "velocity": 43,
              "position": 22.75,
              "duration": 0.010416666666666666
            },
            {
              "pitch": 42,
              "velocity": 99,
              "position": 23,
              "duration": 0.010416666666666666
            },
            {
              "pitch": 42,
              "velocity": 65,
              "position": 23.5,
              "duration": 0.010416666666666666
            },
            {
              "pitch": 70,
              "velocity": 73,
              "position": 23.5,
              "duration": 0.010416666666666666
            },
            {
              "pitch": 82,
              "velocity": 73,
              "position": 23.5,
              "duration": 0.010416666666666666
            },
            {
              "pitch": 70,
              "velocity": 43,
              "position": 23.75,
              "duration": 0.010416666666666666
            },
            {
              "pitch": 82,
              "velocity": 43,
              "position": 23.75,
              "duration": 0.010416666666666666
            },
            {
              "pitch": 42,
              "velocity": 86,
              "position": 24,
              "duration": 0.010416666666666666
            },
            {
              "pitch": 42,
              "velocity": 76,
              "position": 24.5,
              "duration": 0.010416666666666666
            },
            {
              "pitch": 70,
              "velocity": 73,
              "position": 24.5,
              "duration": 0.010416666666666666
            },
            {
              "pitch": 82,
              "velocity": 73,
              "position": 24.5,
              "duration": 0.010416666666666666
            },
            {
              "pitch": 70,
              "velocity": 43,
              "position": 24.75,
              "duration": 0.010416666666666666
            },
            {
              "pitch": 82,
              "velocity": 43,
              "position": 24.75,
              "duration": 0.010416666666666666
            },
            {
              "pitch": 42,
              "velocity": 111,
              "position": 25,
              "duration": 0.010416666666666666
            },
            {
              "pitch": 42,
              "velocity": 76,
              "position": 25.5,
              "duration": 0.010416666666666666
            },
            {
              "pitch": 70,
              "velocity": 73,
              "position": 25.5,
              "duration": 0.010416666666666666
            },
            {
              "pitch": 82,
              "velocity": 73,
              "position": 25.5,
              "duration": 0.010416666666666666
            },
            {
              "pitch": 70,
              "velocity": 43,
              "position": 25.75,
              "duration": 0.010416666666666666
            },
            {
              "pitch": 82,
              "velocity": 43,
              "position": 25.75,
              "duration": 0.010416666666666666
            },
            {
              "pitch": 42,
              "velocity": 84,
              "position": 26,
              "duration": 0.010416666666666666
            },
            {
              "pitch": 42,
              "velocity": 71,
              "position": 26.5,
              "duration": 0.010416666666666666
            },
            {
              "pitch": 70,
              "velocity": 73,
              "position": 26.5,
              "duration": 0.010416666666666666
            },
            {
              "pitch": 82,
              "velocity": 73,
              "position": 26.5,
              "duration": 0.010416666666666666
            },
            {
              "pitch": 70,
              "velocity": 43,
              "position": 26.75,
              "duration": 0.010416666666666666
            },
            {
              "pitch": 82,
              "velocity": 43,
              "position": 26.75,
              "duration": 0.010416666666666666
            },
            {
              "pitch": 42,
              "velocity": 114,
              "position": 27,
              "duration": 0.010416666666666666
            },
            {
              "pitch": 42,
              "velocity": 69,
              "position": 27.5,
              "duration": 0.010416666666666666
            },
            {
              "pitch": 70,
              "velocity": 73,
              "position": 27.5,
              "duration": 0.010416666666666666
            },
            {
              "pitch": 82,
              "velocity": 73,
              "position": 27.5,
              "duration": 0.010416666666666666
            },
            {
              "pitch": 70,
              "velocity": 43,
              "position": 27.75,
              "duration": 0.010416666666666666
            },
            {
              "pitch": 82,
              "velocity": 43,
              "position": 27.75,
              "duration": 0.010416666666666666
            },
            {
              "pitch": 42,
              "velocity": 71,
              "position": 28,
              "duration": 0.010416666666666666
            },
            {
              "pitch": 42,
              "velocity": 84,
              "position": 28.5,
              "duration": 0.010416666666666666
            },
            {
              "pitch": 70,
              "velocity": 73,
              "position": 28.5,
              "duration": 0.010416666666666666
            },
            {
              "pitch": 82,
              "velocity": 73,
              "position": 28.5,
              "duration": 0.010416666666666666
            },
            {
              "pitch": 70,
              "velocity": 43,
              "position": 28.75,
              "duration": 0.010416666666666666
            },
            {
              "pitch": 82,
              "velocity": 43,
              "position": 28.75,
              "duration": 0.010416666666666666
            },
            {
              "pitch": 42,
              "velocity": 114,
              "position": 29,
              "duration": 0.010416666666666666
            },
            {
              "pitch": 42,
              "velocity": 76,
              "position": 29.5,
              "duration": 0.010416666666666666
            },
            {
              "pitch": 70,
              "velocity": 73,
              "position": 29.5,
              "duration": 0.010416666666666666
            },
            {
              "pitch": 82,
              "velocity": 73,
              "position": 29.5,
              "duration": 0.010416666666666666
            },
            {
              "pitch": 70,
              "velocity": 43,
              "position": 29.75,
              "duration": 0.010416666666666666
            },
            {
              "pitch": 82,
              "velocity": 43,
              "position": 29.75,
              "duration": 0.010416666666666666
            },
            {
              "pitch": 42,
              "velocity": 65,
              "position": 30,
              "duration": 0.010416666666666666
            },
            {
              "pitch": 42,
              "velocity": 55,
              "position": 30.5,
              "duration": 0.010416666666666666
            },
            {
              "pitch": 70,
              "velocity": 73,
              "position": 30.5,
              "duration": 0.010416666666666666
            },
            {
              "pitch": 82,
              "velocity": 73,
              "position": 30.5,
              "duration": 0.010416666666666666
            },
            {
              "pitch": 70,
              "velocity": 43,
              "position": 30.75,
              "duration": 0.010416666666666666
            },
            {
              "pitch": 82,
              "velocity": 43,
              "position": 30.75,
              "duration": 0.010416666666666666
            },
            {
              "pitch": 42,
              "velocity": 99,
              "position": 31,
              "duration": 0.010416666666666666
            },
            {
              "pitch": 42,
              "velocity": 74,
              "position": 31.5,
              "duration": 0.010416666666666666
            },
            {
              "pitch": 70,
              "velocity": 73,
              "position": 31.5,
              "duration": 0.010416666666666666
            },
            {
              "pitch": 82,
              "velocity": 73,
              "position": 31.5,
              "duration": 0.010416666666666666
            },
            {
              "pitch": 70,
              "velocity": 43,
              "position": 31.75,
              "duration": 0.010416666666666666
            },
            {
              "pitch": 82,
              "velocity": 43,
              "position": 31.75,
              "duration": 0.010416666666666666
            }
          ]
        },
        "9": {
          "ctab": {
            "srcChannel": 9,
            "name": "Drums",
            "accType": "RHYTHM",
            "editable": false,
            "mutedNotes": [],
            "mutedChords": [],
            "autoStart": true,
            "sourceChordNote": 0,
            "sourceChordType": "Maj7",
            "ctb2Low": null,
            "ctb2Main": {
              "ntr": "ROOT_FIXED",
              "ntt": "BYPASS",
              "bassOn": false,
              "chordRootUpperLimit": 6,
              "noteLowLimit": 0,
              "noteHighLimit": 127,
              "rtr": "PITCH_SHIFT"
            },
            "ctb2High": null
          },
          "notes": [
            {
              "pitch": 33,
              "velocity": 95,
              "position": 0,
              "duration": 0.010416666666666666
            },
            {
              "pitch": 42,
              "velocity": 98,
              "position": 0,
              "duration": 0.010416666666666666
            },
            {
              "pitch": 70,
              "velocity": 90,
              "position": 0,
              "duration": 0.010416666666666666
            },
            {
              "pitch": 42,
              "velocity": 54,
              "position": 0.5,
              "duration": 0.010416666666666666
            },
            {
              "pitch": 70,
              "velocity": 46,
              "position": 0.5,
              "duration": 0.010416666666666666
            },
            {
              "pitch": 32,
              "velocity": 73,
              "position": 1,
              "duration": 0.010416666666666666
            },
            {
              "pitch": 33,
              "velocity": 95,
              "position": 1,
              "duration": 0.010416666666666666
            },
            {
              "pitch": 42,
              "velocity": 95,
              "position": 1,
              "duration": 0.010416666666666666
            },
            {
              "pitch": 70,
              "velocity": 87,
              "position": 1,
              "duration": 0.010416666666666666
            },
            {
              "pitch": 42,
              "velocity": 52,
              "position": 1.5,
              "duration": 0.010416666666666666
            },
            {
              "pitch": 70,
              "velocity": 44,
              "position": 1.5,
              "duration": 0.010416666666666666
            },
            {
              "pitch": 33,
              "velocity": 95,
              "position": 2,
              "duration": 0.010416666666666666
            },
            {
              "pitch": 42,
              "velocity": 98,
              "position": 2,
              "duration": 0.010416666666666666
            },
            {
              "pitch": 70,
              "velocity": 90,
              "position": 2,
              "duration": 0.010416666666666666
            },
            {
              "pitch": 42,
              "velocity": 54,
              "position": 2.5,
              "duration": 0.010416666666666666
            },
            {
              "pitch": 70,
              "velocity": 46,
              "position": 2.5,
              "duration": 0.010416666666666666
            },
            {
              "pitch": 32,
              "velocity": 73,
              "position": 3,
              "duration": 0.010416666666666666
            },
            {
              "pitch": 33,
              "velocity": 95,
              "position": 3,
              "duration": 0.010416666666666666
            },
            {
              "pitch": 42,
              "velocity": 95,
              "position": 3,
              "duration": 0.010416666666666666
            },
            {
              "pitch": 70,
              "velocity": 87,
              "position": 3,
              "duration": 0.010416666666666666
            },
            {
              "pitch": 39,
              "velocity": 100,
              "position": 3.0208333333333335,
              "duration": 0.052083333333333336
            },
            {
              "pitch": 42,
              "velocity": 59,
              "position": 3.5,
              "duration": 0.010416666666666666
            },
            {
              "pitch": 70,
              "velocity": 44,
              "position": 3.5,
              "duration": 0.010416666666666666
            },
            {
              "pitch": 42,
              "velocity": 43,
              "position": 3.75,
              "duration": 0.010416666666666666
            },
            {
              "pitch": 70,
              "velocity": 28,
              "position": 3.75,
              "duration": 0.010416666666666666
            },
            {
              "pitch": 33,
              "velocity": 95,
              "position": 4,
              "duration": 0.010416666666666666
            },
            {
              "pitch": 42,
              "velocity": 105,
              "position": 4,
              "duration": 0.010416666666666666
            },
            {
              "pitch": 70,
              "velocity": 90,
              "position": 4,
              "duration": 0.010416666666666666
            },
            {
              "pitch": 42,
              "velocity": 53,
              "position": 4.5,
              "duration": 0.010416666666666666
            },
            {
              "pitch": 70,
              "velocity": 46,
              "position": 4.5,
              "duration": 0.010416666666666666
            },
            {
              "pitch": 32,
              "velocity": 73,
              "position": 5,
              "duration": 0.010416666666666666
            },
            {
              "pitch": 33,
              "velocity": 95,
              "position": 5,
              "duration": 0.010416666666666666
            },
            {
              "pitch": 42,
              "velocity": 91,
              "position": 5,
              "duration": 0.010416666666666666
            },
            {
              "pitch": 70,
              "velocity": 87,
              "position": 5,
              "duration": 0.010416666666666666
            },
            {
              "pitch": 42,
              "velocity": 51,
              "position": 5.5,
              "duration": 0.010416666666666666
            },
            {
              "pitch": 70,
              "velocity": 44,
              "position": 5.5,
              "duration": 0.010416666666666666
            },
            {
              "pitch": 33,
              "velocity": 95,
              "position": 6,
              "duration": 0.010416666666666666
            },
            {
              "pitch": 42,
              "velocity": 98,
              "position": 6,
              "duration": 0.010416666666666666
            },
            {
              "pitch": 70,
              "velocity": 90,
              "position": 6,
              "duration": 0.010416666666666666
            },
            {
              "pitch": 42,
              "velocity": 57,
              "position": 6.5,
              "duration": 0.010416666666666666
            },
            {
              "pitch": 70,
              "velocity": 46,
              "position": 6.5,
              "duration": 0.010416666666666666
            },
            {
              "pitch": 32,
              "velocity": 73,
              "position": 7,
              "duration": 0.010416666666666666
            },
            {
              "pitch": 33,
              "velocity": 95,
              "position": 7,
              "duration": 0.010416666666666666
            },
            {
              "pitch": 42,
              "velocity": 95,
              "position": 7,
              "duration": 0.010416666666666666
            },
            {
              "pitch": 70,
              "velocity": 87,
              "position": 7,
              "duration": 0.010416666666666666
            },
            {
              "pitch": 39,
              "velocity": 100,
              "position": 7.020833333333333,
              "duration": 0.052083333333333336
            },
            {
              "pitch": 46,
              "velocity": 93,
              "position": 7.5,
              "duration": 0.010416666666666666
            },
            {
              "pitch": 70,
              "velocity": 44,
              "position": 7.5,
              "duration": 0.010416666666666666
            },
            {
              "pitch": 33,
              "velocity": 95,
              "position": 8,
              "duration": 0.010416666666666666
            },
            {
              "pitch": 42,
              "velocity": 98,
              "position": 8,
              "duration": 0.010416666666666666
            },
            {
              "pitch": 70,
              "velocity": 90,
              "position": 8,
              "duration": 0.010416666666666666
            },
            {
              "pitch": 42,
              "velocity": 54,
              "position": 8.5,
              "duration": 0.010416666666666666
            },
            {
              "pitch": 70,
              "velocity": 46,
              "position": 8.5,
              "duration": 0.010416666666666666
            },
            {
              "pitch": 32,
              "velocity": 73,
              "position": 9,
              "duration": 0.010416666666666666
            },
            {
              "pitch": 33,
              "velocity": 95,
              "position": 9,
              "duration": 0.010416666666666666
            },
            {
              "pitch": 42,
              "velocity": 95,
              "position": 9,
              "duration": 0.010416666666666666
            },
            {
              "pitch": 70,
              "velocity": 87,
              "position": 9,
              "duration": 0.010416666666666666
            },
            {
              "pitch": 42,
              "velocity": 52,
              "position": 9.5,
              "duration": 0.010416666666666666
            },
            {
              "pitch": 70,
              "velocity": 44,
              "position": 9.5,
              "duration": 0.010416666666666666
            },
            {
              "pitch": 33,
              "velocity": 95,
              "position": 10,
              "duration": 0.010416666666666666
            },
            {
              "pitch": 42,
              "velocity": 98,
              "position": 10,
              "duration": 0.010416666666666666
            },
            {
              "pitch": 70,
              "velocity": 90,
              "position": 10,
              "duration": 0.010416666666666666
            },
            {
              "pitch": 42,
              "velocity": 54,
              "position": 10.5,
              "duration": 0.010416666666666666
            },
            {
              "pitch": 70,
              "velocity": 46,
              "position": 10.5,
              "duration": 0.010416666666666666
            },
            {
              "pitch": 32,
              "velocity": 73,
              "position": 11,
              "duration": 0.010416666666666666
            },
            {
              "pitch": 33,
              "velocity": 95,
              "position": 11,
              "duration": 0.010416666666666666
            },
            {
              "pitch": 42,
              "velocity": 95,
              "position": 11,
              "duration": 0.010416666666666666
            },
            {
              "pitch": 70,
              "velocity": 87,
              "position": 11,
              "duration": 0.010416666666666666
            },
            {
              "pitch": 39,
              "velocity": 100,
              "position": 11.020833333333334,
              "duration": 0.052083333333333336
            },
            {
              "pitch": 42,
              "velocity": 53,
              "position": 11.5,
              "duration": 0.010416666666666666
            },
            {
              "pitch": 70,
              "velocity": 44,
              "position": 11.5,
              "duration": 0.010416666666666666
            },
            {
              "pitch": 33,
              "velocity": 95,
              "position": 12,
              "duration": 0.010416666666666666
            },
            {
              "pitch": 42,
              "velocity": 98,
              "position": 12,
              "duration": 0.010416666666666666
            },
            {
              "pitch": 70,
              "velocity": 90,
              "position": 12,
              "duration": 0.010416666666666666
            },
            {
              "pitch": 42,
              "velocity": 54,
              "position": 12.5,
              "duration": 0.010416666666666666
            },
            {
              "pitch": 70,
              "velocity": 46,
              "position": 12.5,
              "duration": 0.010416666666666666
            },
            {
              "pitch": 32,
              "velocity": 73,
              "position": 13,
              "duration": 0.010416666666666666
            },
            {
              "pitch": 33,
              "velocity": 95,
              "position": 13,
              "duration": 0.010416666666666666
            },
            {
              "pitch": 42,
              "velocity": 95,
              "position": 13,
              "duration": 0.010416666666666666
            },
            {
              "pitch": 70,
              "velocity": 87,
              "position": 13,
              "duration": 0.010416666666666666
            },
            {
              "pitch": 42,
              "velocity": 52,
              "position": 13.5,
              "duration": 0.010416666666666666
            },
            {
              "pitch": 70,
              "velocity": 44,
              "position": 13.5,
              "duration": 0.010416666666666666
            },
            {
              "pitch": 33,
              "velocity": 95,
              "position": 14,
              "duration": 0.010416666666666666
            },
            {
              "pitch": 42,
              "velocity": 98,
              "position": 14,
              "duration": 0.010416666666666666
            },
            {
              "pitch": 70,
              "velocity": 90,
              "position": 14,
              "duration": 0.010416666666666666
            },
            {
              "pitch": 42,
              "velocity": 54,
              "position": 14.5,
              "duration": 0.010416666666666666
            },
            {
              "pitch": 70,
              "velocity": 46,
              "position": 14.5,
              "duration": 0.010416666666666666
            },
            {
              "pitch": 32,
              "velocity": 73,
              "position": 15,
              "duration": 0.010416666666666666
            },
            {
              "pitch": 33,
              "velocity": 95,
              "position": 15,
              "duration": 0.010416666666666666
            },
            {
              "pitch": 42,
              "velocity": 95,
              "position": 15,
              "duration": 0.010416666666666666
            },
            {
              "pitch": 70,
              "velocity": 87,
              "position": 15,
              "duration": 0.010416666666666666
            },
            {
              "pitch": 39,
              "velocity": 100,
              "position": 15.020833333333334,
              "duration": 0.052083333333333336
            },
            {
              "pitch": 42,
              "velocity": 53,
              "position": 15.5,
              "duration": 0.010416666666666666
            },
            {
              "pitch": 70,
              "velocity": 44,
              "position": 15.5,
              "duration": 0.010416666666666666
            },
            {
              "pitch": 33,
              "velocity": 95,
              "position": 16,
              "duration": 0.010416666666666666
            },
            {
              "pitch": 42,
              "velocity": 98,
              "position": 16,
              "duration": 0.010416666666666666
            },
            {
              "pitch": 70,
              "velocity": 90,
              "position": 16,
              "duration": 0.010416666666666666
            },
            {
              "pitch": 42,
              "velocity": 54,
              "position": 16.5,
              "duration": 0.010416666666666666
            },
            {
              "pitch": 70,
              "velocity": 46,
              "position": 16.5,
              "duration": 0.010416666666666666
            },
            {
              "pitch": 32,
              "velocity": 73,
              "position": 17,
              "duration": 0.010416666666666666
            },
            {
              "pitch": 33,
              "velocity": 95,
              "position": 17,
              "duration": 0.010416666666666666
            },
            {
              "pitch": 42,
              "velocity": 95,
              "position": 17,
              "duration": 0.010416666666666666
            },
            {
              "pitch": 70,
              "velocity": 87,
              "position": 17,
              "duration": 0.010416666666666666
            },
            {
              "pitch": 42,
              "velocity": 52,
              "position": 17.5,
              "duration": 0.010416666666666666
            },
            {
              "pitch": 70,
              "velocity": 44,
              "position": 17.5,
              "duration": 0.010416666666666666
            },
            {
              "pitch": 33,
              "velocity": 95,
              "position": 18,
              "duration": 0.010416666666666666
            },
            {
              "pitch": 42,
              "velocity": 98,
              "position": 18,
              "duration": 0.010416666666666666
            },
            {
              "pitch": 70,
              "velocity": 90,
              "position": 18,
              "duration": 0.010416666666666666
            },
            {
              "pitch": 42,
              "velocity": 54,
              "position": 18.5,
              "duration": 0.010416666666666666
            },
            {
              "pitch": 70,
              "velocity": 46,
              "position": 18.5,
              "duration": 0.010416666666666666
            },
            {
              "pitch": 32,
              "velocity": 73,
              "position": 19,
              "duration": 0.010416666666666666
            },
            {
              "pitch": 33,
              "velocity": 95,
              "position": 19,
              "duration": 0.010416666666666666
            },
            {
              "pitch": 42,
              "velocity": 95,
              "position": 19,
              "duration": 0.010416666666666666
            },
            {
              "pitch": 70,
              "velocity": 87,
              "position": 19,
              "duration": 0.010416666666666666
            },
            {
              "pitch": 39,
              "velocity": 100,
              "position": 19.020833333333332,
              "duration": 0.052083333333333336
            },
            {
              "pitch": 42,
              "velocity": 53,
              "position": 19.5,
              "duration": 0.010416666666666666
            },
            {
              "pitch": 70,
              "velocity": 44,
              "position": 19.5,
              "duration": 0.010416666666666666
            },
            {
              "pitch": 33,
              "velocity": 95,
              "position": 20,
              "duration": 0.010416666666666666
            },
            {
              "pitch": 42,
              "velocity": 98,
              "position": 20,
              "duration": 0.010416666666666666
            },
            {
              "pitch": 70,
              "velocity": 90,
              "position": 20,
              "duration": 0.010416666666666666
            },
            {
              "pitch": 42,
              "velocity": 53,
              "position": 20.5,
              "duration": 0.010416666666666666
            },
            {
              "pitch": 70,
              "velocity": 46,
              "position": 20.5,
              "duration": 0.010416666666666666
            },
            {
              "pitch": 32,
              "velocity": 73,
              "position": 21,
              "duration": 0.010416666666666666
            },
            {
              "pitch": 33,
              "velocity": 95,
              "position": 21,
              "duration": 0.010416666666666666
            },
            {
              "pitch": 42,
              "velocity": 91,
              "position": 21,
              "duration": 0.010416666666666666
            },
            {
              "pitch": 70,
              "velocity": 87,
              "position": 21,
              "duration": 0.010416666666666666
            },
            {
              "pitch": 42,
              "velocity": 51,
              "position": 21.5,
              "duration": 0.010416666666666666
            },
            {
              "pitch": 70,
              "velocity": 44,
              "position": 21.5,
              "duration": 0.010416666666666666
            },
            {
              "pitch": 33,
              "velocity": 95,
              "position": 22,
              "duration": 0.010416666666666666
            },
            {
              "pitch": 42,
              "velocity": 98,
              "position": 22,
              "duration": 0.010416666666666666
            },
            {
              "pitch": 70,
              "velocity": 90,
              "position": 22,
              "duration": 0.010416666666666666
            },
            {
              "pitch": 42,
              "velocity": 57,
              "position": 22.5,
              "duration": 0.010416666666666666
            },
            {
              "pitch": 70,
              "velocity": 46,
              "position": 22.5,
              "duration": 0.010416666666666666
            },
            {
              "pitch": 32,
              "velocity": 73,
              "position": 23,
              "duration": 0.010416666666666666
            },
            {
              "pitch": 33,
              "velocity": 95,
              "position": 23,
              "duration": 0.010416666666666666
            },
            {
              "pitch": 42,
              "velocity": 95,
              "position": 23,
              "duration": 0.010416666666666666
            },
            {
              "pitch": 70,
              "velocity": 87,
              "position": 23,
              "duration": 0.010416666666666666
            },
            {
              "pitch": 39,
              "velocity": 100,
              "position": 23.020833333333332,
              "duration": 0.052083333333333336
            },
            {
              "pitch": 46,
              "velocity": 93,
              "position": 23.5,
              "duration": 0.010416666666666666
            },
            {
              "pitch": 70,
              "velocity": 44,
              "position": 23.5,
              "duration": 0.010416666666666666
            },
            {
              "pitch": 33,
              "velocity": 95,
              "position": 24,
              "duration": 0.010416666666666666
            },
            {
              "pitch": 42,
              "velocity": 98,
              "position": 24,
              "duration": 0.010416666666666666
            },
            {
              "pitch": 70,
              "velocity": 90,
              "position": 24,
              "duration": 0.010416666666666666
            },
            {
              "pitch": 42,
              "velocity": 54,
              "position": 24.5,
              "duration": 0.010416666666666666
            },
            {
              "pitch": 70,
              "velocity": 46,
              "position": 24.5,
              "duration": 0.010416666666666666
            },
            {
              "pitch": 32,
              "velocity": 73,
              "position": 25,
              "duration": 0.010416666666666666
            },
            {
              "pitch": 33,
              "velocity": 95,
              "position": 25,
              "duration": 0.010416666666666666
            },
            {
              "pitch": 42,
              "velocity": 95,
              "position": 25,
              "duration": 0.010416666666666666
            },
            {
              "pitch": 70,
              "velocity": 87,
              "position": 25,
              "duration": 0.010416666666666666
            },
            {
              "pitch": 42,
              "velocity": 52,
              "position": 25.5,
              "duration": 0.010416666666666666
            },
            {
              "pitch": 70,
              "velocity": 44,
              "position": 25.5,
              "duration": 0.010416666666666666
            },
            {
              "pitch": 33,
              "velocity": 95,
              "position": 26,
              "duration": 0.010416666666666666
            },
            {
              "pitch": 42,
              "velocity": 98,
              "position": 26,
              "duration": 0.010416666666666666
            },
            {
              "pitch": 70,
              "velocity": 90,
              "position": 26,
              "duration": 0.010416666666666666
            },
            {
              "pitch": 42,
              "velocity": 54,
              "position": 26.5,
              "duration": 0.010416666666666666
            },
            {
              "pitch": 70,
              "velocity": 46,
              "position": 26.5,
              "duration": 0.010416666666666666
            },
            {
              "pitch": 32,
              "velocity": 73,
              "position": 27,
              "duration": 0.010416666666666666
            },
            {
              "pitch": 33,
              "velocity": 95,
              "position": 27,
              "duration": 0.010416666666666666
            },
            {
              "pitch": 42,
              "velocity": 95,
              "position": 27,
              "duration": 0.010416666666666666
            },
            {
              "pitch": 70,
              "velocity": 87,
              "position": 27,
              "duration": 0.010416666666666666
            },
            {
              "pitch": 39,
              "velocity": 100,
              "position": 27.020833333333332,
              "duration": 0.052083333333333336
            },
            {
              "pitch": 42,
              "velocity": 53,
              "position": 27.5,
              "duration": 0.010416666666666666
            },
            {
              "pitch": 70,
              "velocity": 44,
              "position": 27.5,
              "duration": 0.010416666666666666
            },
            {
              "pitch": 33,
              "velocity": 95,
              "position": 28,
              "duration": 0.010416666666666666
            },
            {
              "pitch": 42,
              "velocity": 98,
              "position": 28,
              "duration": 0.010416666666666666
            },
            {
              "pitch": 70,
              "velocity": 90,
              "position": 28,
              "duration": 0.010416666666666666
            },
            {
              "pitch": 15,
              "velocity": 43,
              "position": 28.5,
              "duration": 0.010416666666666666
            },
            {
              "pitch": 42,
              "velocity": 53,
              "position": 28.5,
              "duration": 0.010416666666666666
            },
            {
              "pitch": 70,
              "velocity": 46,
              "position": 28.5,
              "duration": 0.010416666666666666
            },
            {
              "pitch": 32,
              "velocity": 73,
              "position": 29,
              "duration": 0.010416666666666666
            },
            {
              "pitch": 42,
              "velocity": 91,
              "position": 29,
              "duration": 0.010416666666666666
            },
            {
              "pitch": 70,
              "velocity": 87,
              "position": 29,
              "duration": 0.010416666666666666
            },
            {
              "pitch": 15,
              "velocity": 50,
              "position": 29.5,
              "duration": 0.010416666666666666
            },
            {
              "pitch": 42,
              "velocity": 51,
              "position": 29.5,
              "duration": 0.010416666666666666
            },
            {
              "pitch": 70,
              "velocity": 44,
              "position": 29.5,
              "duration": 0.010416666666666666
            },
            {
              "pitch": 42,
              "velocity": 98,
              "position": 30,
              "duration": 0.010416666666666666
            },
            {
              "pitch": 70,
              "velocity": 90,
              "position": 30,
              "duration": 0.010416666666666666
            },
            {
              "pitch": 15,
              "velocity": 53,
              "position": 30.5,
              "duration": 0.010416666666666666
            },
            {
              "pitch": 32,
              "velocity": 73,
              "position": 30.5,
              "duration": 0.010416666666666666
            },
            {
              "pitch": 42,
              "velocity": 57,
              "position": 30.5,
              "duration": 0.010416666666666666
            },
            {
              "pitch": 70,
              "velocity": 46,
              "position": 30.5,
              "duration": 0.010416666666666666
            },
            {
              "pitch": 15,
              "velocity": 54,
              "position": 30.75,
              "duration": 0.010416666666666666
            },
            {
              "pitch": 22,
              "velocity": 74,
              "position": 30.5,
              "duration": 0.4270833333333333
            },
            {
              "pitch": 28,
              "velocity": 30,
              "position": 29.5,
              "duration": 1.4583333333333333
            },
            {
              "pitch": 16,
              "velocity": 90,
              "position": 31,
              "duration": 0.010416666666666666
            },
            {
              "pitch": 21,
              "velocity": 92,
              "position": 31,
              "duration": 0.010416666666666666
            },
            {
              "pitch": 32,
              "velocity": 73,
              "position": 31,
              "duration": 0.010416666666666666
            },
            {
              "pitch": 33,
              "velocity": 95,
              "position": 31,
              "duration": 0.010416666666666666
            },
            {
              "pitch": 46,
              "velocity": 93,
              "position": 31,
              "duration": 0.010416666666666666
            },
            {
              "pitch": 70,
              "velocity": 87,
              "position": 31,
              "duration": 0.010416666666666666
            },
            {
              "pitch": 39,
              "velocity": 100,
              "position": 31.020833333333332,
              "duration": 0.052083333333333336
            },
            {
              "pitch": 70,
              "velocity": 44,
              "position": 31.5,
              "duration": 0.010416666666666666
            }
          ]
        },
        "10": {
          "ctab": {
            "srcChannel": 10,
            "name": "Bass",
            "accType": "BASS",
            "editable": false,
            "mutedNotes": [],
            "mutedChords": [],
            "autoStart": false,
            "sourceChordNote": 0,
            "sourceChordType": "min",
            "ctb2Low": null,
            "ctb2Main": {
              "ntr": "ROOT_TRANSPOSITION",
              "ntt": "HARMONIC_MINOR",
              "bassOn": false,
              "chordRootUpperLimit": 3,
              "noteLowLimit": 28,
              "noteHighLimit": 127,
              "rtr": "PITCH_SHIFT"
            },
            "ctb2High": null
          },
          "notes": [
            {
              "pitch": 36,
              "velocity": 100,
              "position": 0.5,
              "duration": 0.5
            },
            {
              "pitch": 36,
              "velocity": 100,
              "position": 1.5,
              "duration": 0.5
            },
            {
              "pitch": 36,
              "velocity": 100,
              "position": 2.5,
              "duration": 0.5
            },
            {
              "pitch": 36,
              "velocity": 100,
              "position": 3.5,
              "duration": 0.5
            },
            {
              "pitch": 36,
              "velocity": 100,
              "position": 4.5,
              "duration": 0.5
            },
            {
              "pitch": 36,
              "velocity": 100,
              "position": 5.5,
              "duration": 0.5
            },
            {
              "pitch": 36,
              "velocity": 100,
              "position": 6.5,
              "duration": 0.5
            },
            {
              "pitch": 41,
              "velocity": 100,
              "position": 7.5,
              "duration": 0.5
            },
            {
              "pitch": 43,
              "velocity": 100,
              "position": 8.5,
              "duration": 0.5
            },
            {
              "pitch": 43,
              "velocity": 100,
              "position": 9.5,
              "duration": 0.5
            },
            {
              "pitch": 38,
              "velocity": 100,
              "position": 10.5,
              "duration": 0.5
            },
            {
              "pitch": 34,
              "velocity": 100,
              "position": 11.5,
              "duration": 0.5
            },
            {
              "pitch": 31,
              "velocity": 100,
              "position": 12.5,
              "duration": 0.5
            },
            {
              "pitch": 31,
              "velocity": 100,
              "position": 13.5,
              "duration": 0.5
            },
            {
              "pitch": 31,
              "velocity": 100,
              "position": 14.5,
              "duration": 0.5
            },
            {
              "pitch": 34,
              "velocity": 100,
              "position": 15.5,
              "duration": 0.5
            },
            {
              "pitch": 36,
              "velocity": 100,
              "position": 16.5,
              "duration": 0.5
            },
            {
              "pitch": 36,
              "velocity": 100,
              "position": 17.5,
              "duration": 0.5
            },
            {
              "pitch": 36,
              "velocity": 100,
              "position": 18.5,
              "duration": 0.5
            },
            {
              "pitch": 36,
              "velocity": 100,
              "position": 19.5,
              "duration": 0.5
            },
            {
              "pitch": 36,
              "velocity": 100,
              "position": 20.5,
              "duration": 0.5
            },
            {
              "pitch": 36,
              "velocity": 100,
              "position": 21.5,
              "duration": 0.5
            },
            {
              "pitch": 36,
              "velocity": 100,
              "position": 22.5,
              "duration": 0.5
            },
            {
              "pitch": 41,
              "velocity": 100,
              "position": 23.5,
              "duration": 0.5
            },
            {
              "pitch": 43,
              "velocity": 100,
              "position": 24.5,
              "duration": 0.5
            },
            {
              "pitch": 43,
              "velocity": 100,
              "position": 25.5,
              "duration": 0.5
            },
            {
              "pitch": 38,
              "velocity": 100,
              "position": 26.5,
              "duration": 0.5
            },
            {
              "pitch": 41,
              "velocity": 100,
              "position": 27.5,
              "duration": 0.5
            },
            {
              "pitch": 31,
              "velocity": 100,
              "position": 28,
              "duration": 0.5
            }
          ]
        },
        "11": {
          "ctab": {
            "srcChannel": 11,
            "name": "Organ",
            "accType": "CHORD1",
            "editable": false,
            "mutedNotes": [],
            "mutedChords": [],
            "autoStart": false,
            "sourceChordNote": 0,
            "sourceChordType": "min",
            "ctb2Low": null,
            "ctb2Main": {
              "ntr": "ROOT_TRANSPOSITION",
              "ntt": "HARMONIC_MINOR",
              "bassOn": false,
              "chordRootUpperLimit": 6,
              "noteLowLimit": 0,
              "noteHighLimit": 127,
              "rtr": "PITCH_SHIFT"
            },
            "ctb2High": null
          },
          "notes": [
            {
              "pitch": 60,
              "velocity": 91,
              "position": 0.5,
              "duration": 0.3854166666666667
            },
            {
              "pitch": 67,
              "velocity": 113,
              "position": 0.5,
              "duration": 0.3854166666666667
            },
            {
              "pitch": 60,
              "velocity": 91,
              "position": 1.5,
              "duration": 0.3854166666666667
            },
            {
              "pitch": 67,
              "velocity": 113,
              "position": 1.5,
              "duration": 0.3854166666666667
            },
            {
              "pitch": 60,
              "velocity": 91,
              "position": 2.5,
              "duration": 0.3854166666666667
            },
            {
              "pitch": 67,
              "velocity": 113,
              "position": 2.5,
              "duration": 0.3854166666666667
            },
            {
              "pitch": 60,
              "velocity": 91,
              "position": 3.5,
              "duration": 0.3854166666666667
            },
            {
              "pitch": 67,
              "velocity": 113,
              "position": 3.5,
              "duration": 0.3854166666666667
            },
            {
              "pitch": 60,
              "velocity": 91,
              "position": 4.5,
              "duration": 0.3854166666666667
            },
            {
              "pitch": 67,
              "velocity": 113,
              "position": 4.5,
              "duration": 0.3854166666666667
            },
            {
              "pitch": 60,
              "velocity": 91,
              "position": 5.5,
              "duration": 0.3854166666666667
            },
            {
              "pitch": 67,
              "velocity": 113,
              "position": 5.5,
              "duration": 0.3854166666666667
            },
            {
              "pitch": 60,
              "velocity": 91,
              "position": 6.5,
              "duration": 0.3854166666666667
            },
            {
              "pitch": 67,
              "velocity": 113,
              "position": 6.5,
              "duration": 0.3854166666666667
            },
            {
              "pitch": 60,
              "velocity": 91,
              "position": 7.5,
              "duration": 0.3854166666666667
            },
            {
              "pitch": 67,
              "velocity": 113,
              "position": 7.5,
              "duration": 0.3854166666666667
            },
            {
              "pitch": 62,
              "velocity": 113,
              "position": 8.5,
              "duration": 0.3854166666666667
            },
            {
              "pitch": 67,
              "velocity": 91,
              "position": 8.5,
              "duration": 0.3854166666666667
            },
            {
              "pitch": 62,
              "velocity": 113,
              "position": 9.5,
              "duration": 0.3854166666666667
            },
            {
              "pitch": 67,
              "velocity": 91,
              "position": 9.5,
              "duration": 0.3854166666666667
            },
            {
              "pitch": 62,
              "velocity": 113,
              "position": 10.5,
              "duration": 0.3854166666666667
            },
            {
              "pitch": 67,
              "velocity": 91,
              "position": 10.5,
              "duration": 0.3854166666666667
            },
            {
              "pitch": 62,
              "velocity": 113,
              "position": 11.5,
              "duration": 0.3854166666666667
            },
            {
              "pitch": 67,
              "velocity": 91,
              "position": 11.5,
              "duration": 0.3854166666666667
            },
            {
              "pitch": 55,
              "velocity": 91,
              "position": 12.5,
              "duration": 0.3854166666666667
            },
            {
              "pitch": 62,
              "velocity": 113,
              "position": 12.5,
              "duration": 0.3854166666666667
            },
            {
              "pitch": 55,
              "velocity": 91,
              "position": 13.5,
              "duration": 0.3854166666666667
            },
            {
              "pitch": 62,
              "velocity": 113,
              "position": 13.5,
              "duration": 0.3854166666666667
            },
            {
              "pitch": 55,
              "velocity": 91,
              "position": 14.5,
              "duration": 0.3854166666666667
            },
            {
              "pitch": 62,
              "velocity": 113,
              "position": 14.5,
              "duration": 0.3854166666666667
            },
            {
              "pitch": 58,
              "velocity": 91,
              "position": 15.5,
              "duration": 0.3854166666666667
            },
            {
              "pitch": 65,
              "velocity": 113,
              "position": 15.5,
              "duration": 0.3854166666666667
            },
            {
              "pitch": 60,
              "velocity": 91,
              "position": 16.5,
              "duration": 0.3854166666666667
            },
            {
              "pitch": 67,
              "velocity": 113,
              "position": 16.5,
              "duration": 0.3854166666666667
            },
            {
              "pitch": 60,
              "velocity": 91,
              "position": 17.5,
              "duration": 0.3854166666666667
            },
            {
              "pitch": 67,
              "velocity": 113,
              "position": 17.5,
              "duration": 0.3854166666666667
            },
            {
              "pitch": 60,
              "velocity": 91,
              "position": 18.5,
              "duration": 0.3854166666666667
            },
            {
              "pitch": 67,
              "velocity": 113,
              "position": 18.5,
              "duration": 0.3854166666666667
            },
            {
              "pitch": 60,
              "velocity": 91,
              "position": 19.5,
              "duration": 0.3854166666666667
            },
            {
              "pitch": 67,
              "velocity": 113,
              "position": 19.5,
              "duration": 0.3854166666666667
            },
            {
              "pitch": 60,
              "velocity": 91,
              "position": 20.5,
              "duration": 0.3854166666666667
            },
            {
              "pitch": 67,
              "velocity": 113,
              "position": 20.5,
              "duration": 0.3854166666666667
            },
            {
              "pitch": 60,
              "velocity": 91,
              "position": 21.5,
              "duration": 0.3854166666666667
            },
            {
              "pitch": 67,
              "velocity": 113,
              "position": 21.5,
              "duration": 0.3854166666666667
            },
            {
              "pitch": 60,
              "velocity": 91,
              "position": 22.5,
              "duration": 0.3854166666666667
            },
            {
              "pitch": 67,
              "velocity": 113,
              "position": 22.5,
              "duration": 0.3854166666666667
            },
            {
              "pitch": 60,
              "velocity": 91,
              "position": 23.5,
              "duration": 0.3854166666666667
            },
            {
              "pitch": 67,
              "velocity": 113,
              "position": 23.5,
              "duration": 0.3854166666666667
            },
            {
              "pitch": 55,
              "velocity": 91,
              "position": 24.5,
              "duration": 0.3854166666666667
            },
            {
              "pitch": 62,
              "velocity": 113,
              "position": 24.5,
              "duration": 0.3854166666666667
            },
            {
              "pitch": 55,
              "velocity": 91,
              "position": 25.5,
              "duration": 0.3854166666666667
            },
            {
              "pitch": 62,
              "velocity": 113,
              "position": 25.5,
              "duration": 0.3854166666666667
            },
            {
              "pitch": 55,
              "velocity": 91,
              "position": 26.5,
              "duration": 0.3854166666666667
            },
            {
              "pitch": 62,
              "velocity": 113,
              "position": 26.5,
              "duration": 0.3854166666666667
            },
            {
              "pitch": 55,
              "velocity": 91,
              "position": 27.5,
              "duration": 0.4583333333333333
            },
            {
              "pitch": 65,
              "velocity": 113,
              "position": 27.5,
              "duration": 0.4583333333333333
            },
            {
              "pitch": 62,
              "velocity": 91,
              "position": 28,
              "duration": 0.3854166666666667
            },
            {
              "pitch": 67,
              "velocity": 113,
              "position": 28,
              "duration": 0.3854166666666667
            }
          ]
        },
        "12": {
          "ctab": {
            "srcChannel": 12,
            "name": "Metal",
            "accType": "CHORD2",
            "editable": false,
            "mutedNotes": [],
            "mutedChords": [],
            "autoStart": false,
            "sourceChordNote": 0,
            "sourceChordType": "min",
            "ctb2Low": null,
            "ctb2Main": {
              "ntr": "ROOT_TRANSPOSITION",
              "ntt": "HARMONIC_MINOR",
              "bassOn": false,
              "chordRootUpperLimit": 6,
              "noteLowLimit": 0,
              "noteHighLimit": 127,
              "rtr": "PITCH_SHIFT"
            },
            "ctb2High": null
          },
          "notes": [
            {
              "pitch": 63,
              "velocity": 106,
              "position": 0,
              "duration": 0.25
            },
            {
              "pitch": 58,
              "velocity": 106,
              "position": 0.5,
              "duration": 0.25
            },
            {
              "pitch": 60,
              "velocity": 106,
              "position": 1,
              "duration": 0.25
            },
            {
              "pitch": 62,
              "velocity": 106,
              "position": 1.25,
              "duration": 0.25
            },
            {
              "pitch": 63,
              "velocity": 103,
              "position": 1.5,
              "duration": 0.25
            },
            {
              "pitch": 63,
              "velocity": 106,
              "position": 2,
              "duration": 0.25
            },
            {
              "pitch": 63,
              "velocity": 93,
              "position": 2.5,
              "duration": 0.25
            },
            {
              "pitch": 63,
              "velocity": 80,
              "position": 3,
              "duration": 0.25
            },
            {
              "pitch": 63,
              "velocity": 62,
              "position": 3.5,
              "duration": 0.25
            },
            {
              "pitch": 63,
              "velocity": 60,
              "position": 4,
              "duration": 0.25
            },
            {
              "pitch": 63,
              "velocity": 42,
              "position": 4.5,
              "duration": 0.25
            },
            {
              "pitch": 67,
              "velocity": 106,
              "position": 8,
              "duration": 0.25
            },
            {
              "pitch": 62,
              "velocity": 106,
              "position": 8.5,
              "duration": 0.25
            },
            {
              "pitch": 65,
              "velocity": 106,
              "position": 8.75,
              "duration": 0.25
            },
            {
              "pitch": 67,
              "velocity": 106,
              "position": 9,
              "duration": 0.25
            },
            {
              "pitch": 55,
              "velocity": 106,
              "position": 9.5,
              "duration": 0.25
            },
            {
              "pitch": 55,
              "velocity": 106,
              "position": 10,
              "duration": 0.25
            },
            {
              "pitch": 55,
              "velocity": 106,
              "position": 10.5,
              "duration": 0.25
            },
            {
              "pitch": 55,
              "velocity": 95,
              "position": 11,
              "duration": 0.25
            },
            {
              "pitch": 55,
              "velocity": 77,
              "position": 11.5,
              "duration": 0.25
            },
            {
              "pitch": 55,
              "velocity": 75,
              "position": 12,
              "duration": 0.25
            },
            {
              "pitch": 55,
              "velocity": 57,
              "position": 12.5,
              "duration": 0.25
            },
            {
              "pitch": 63,
              "velocity": 106,
              "position": 16,
              "duration": 0.25
            },
            {
              "pitch": 58,
              "velocity": 106,
              "position": 16.5,
              "duration": 0.25
            },
            {
              "pitch": 60,
              "velocity": 106,
              "position": 17,
              "duration": 0.25
            },
            {
              "pitch": 62,
              "velocity": 106,
              "position": 17.25,
              "duration": 0.25
            },
            {
              "pitch": 63,
              "velocity": 103,
              "position": 17.5,
              "duration": 0.25
            },
            {
              "pitch": 63,
              "velocity": 106,
              "position": 18,
              "duration": 0.25
            },
            {
              "pitch": 63,
              "velocity": 93,
              "position": 18.5,
              "duration": 0.25
            },
            {
              "pitch": 63,
              "velocity": 80,
              "position": 19,
              "duration": 0.25
            },
            {
              "pitch": 63,
              "velocity": 62,
              "position": 19.5,
              "duration": 0.25
            },
            {
              "pitch": 63,
              "velocity": 60,
              "position": 20,
              "duration": 0.25
            },
            {
              "pitch": 63,
              "velocity": 42,
              "position": 20.5,
              "duration": 0.25
            },
            {
              "pitch": 67,
              "velocity": 106,
              "position": 24,
              "duration": 0.25
            },
            {
              "pitch": 62,
              "velocity": 106,
              "position": 24.5,
              "duration": 0.25
            },
            {
              "pitch": 65,
              "velocity": 106,
              "position": 24.75,
              "duration": 0.25
            },
            {
              "pitch": 67,
              "velocity": 106,
              "position": 25,
              "duration": 0.25
            },
            {
              "pitch": 55,
              "velocity": 106,
              "position": 25.5,
              "duration": 0.25
            },
            {
              "pitch": 55,
              "velocity": 106,
              "position": 26,
              "duration": 0.25
            },
            {
              "pitch": 55,
              "velocity": 106,
              "position": 26.5,
              "duration": 0.25
            },
            {
              "pitch": 55,
              "velocity": 95,
              "position": 27,
              "duration": 0.25
            },
            {
              "pitch": 58,
              "velocity": 77,
              "position": 27.5,
              "duration": 0.25
            },
            {
              "pitch": 55,
              "velocity": 75,
              "position": 28,
              "duration": 0.25
            }
          ]
        },
        "13": {
          "ctab": {
            "srcChannel": 13,
            "name": "SySeq",
            "accType": "PAD",
            "editable": false,
            "mutedNotes": [],
            "mutedChords": [],
            "autoStart": false,
            "sourceChordNote": 0,
            "sourceChordType": "min",
            "ctb2Low": null,
            "ctb2Main": {
              "ntr": "ROOT_TRANSPOSITION",
              "ntt": "HARMONIC_MINOR",
              "bassOn": false,
              "chordRootUpperLimit": 8,
              "noteLowLimit": 0,
              "noteHighLimit": 127,
              "rtr": "PITCH_SHIFT"
            },
            "ctb2High": null
          },
          "notes": []
        },
        "14": {
          "ctab": {
            "srcChannel": 14,
            "name": "Ep",
            "accType": "PHRASE1",
            "editable": false,
            "mutedNotes": [],
            "mutedChords": [],
            "autoStart": false,
            "sourceChordNote": 0,
            "sourceChordType": "min",
            "ctb2Low": null,
            "ctb2Main": {
              "ntr": "ROOT_TRANSPOSITION",
              "ntt": "HARMONIC_MINOR",
              "bassOn": false,
              "chordRootUpperLimit": 5,
              "noteLowLimit": 0,
              "noteHighLimit": 127,
              "rtr": "PITCH_SHIFT"
            },
            "ctb2High": null
          },
          "notes": []
        },
        "15": {
          "ctab": {
            "srcChannel": 15,
            "name": "Saw",
            "accType": "PHRASE2",
            "editable": false,
            "mutedNotes": [],
            "mutedChords": [],
            "autoStart": false,
            "sourceChordNote": 0,
            "sourceChordType": "min",
            "ctb2Low": null,
            "ctb2Main": {
              "ntr": "ROOT_TRANSPOSITION",
              "ntt": "HARMONIC_MINOR",
              "bassOn": false,
              "chordRootUpperLimit": 4,
              "noteLowLimit": 0,
              "noteHighLimit": 127,
              "rtr": "PITCH_SHIFT"
            },
            "ctb2High": null
          },
          "notes": []
        }
      }
    },
    "Ending_B": {
      "type": "Ending_B",
      "sizeInBeats": 8,
      "channels": {
        "8": {
          "ctab": {
            "srcChannel": 8,
            "name": "Perc",
            "accType": "SUBRHYTHM",
            "editable": false,
            "mutedNotes": [],
            "mutedChords": [],
            "autoStart": true,
            "sourceChordNote": 0,
            "sourceChordType": "Maj7",
            "ctb2Low": null,
            "ctb2Main": {
              "ntr": "ROOT_FIXED",
              "ntt": "BYPASS",
              "bassOn": false,
              "chordRootUpperLimit": 6,
              "noteLowLimit": 0,
              "noteHighLimit": 127,
              "rtr": "PITCH_SHIFT"
            },
            "ctb2High": null
          },
          "notes": []
        },
        "9": {
          "ctab": {
            "srcChannel": 9,
            "name": "Drums",
            "accType": "RHYTHM",
            "editable": false,
            "mutedNotes": [],
            "mutedChords": [],
            "autoStart": true,
            "sourceChordNote": 0,
            "sourceChordType": "Maj7",
            "ctb2Low": null,
            "ctb2Main": {
              "ntr": "ROOT_FIXED",
              "ntt": "BYPASS",
              "bassOn": false,
              "chordRootUpperLimit": 6,
              "noteLowLimit": 0,
              "noteHighLimit": 127,
              "rtr": "PITCH_SHIFT"
            },
            "ctb2High": null
          },
          "notes": [
            {
              "pitch": 33,
              "velocity": 95,
              "position": 0,
              "duration": 0.010416666666666666
            },
            {
              "pitch": 42,
              "velocity": 98,
              "position": 0,
              "duration": 0.010416666666666666
            },
            {
              "pitch": 54,
              "velocity": 40,
              "position": 0,
              "duration": 0.010416666666666666
            },
            {
              "pitch": 70,
              "velocity": 90,
              "position": 0,
              "duration": 0.010416666666666666
            },
            {
              "pitch": 24,
              "velocity": 55,
              "position": 0.5,
              "duration": 0.010416666666666666
            },
            {
              "pitch": 42,
              "velocity": 54,
              "position": 0.5,
              "duration": 0.010416666666666666
            },
            {
              "pitch": 54,
              "velocity": 25,
              "position": 0.5,
              "duration": 0.010416666666666666
            },
            {
              "pitch": 70,
              "velocity": 46,
              "position": 0.5,
              "duration": 0.010416666666666666
            },
            {
              "pitch": 15,
              "velocity": 53,
              "position": 0.75,
              "duration": 0.010416666666666666
            },
            {
              "pitch": 16,
              "velocity": 51,
              "position": 1,
              "duration": 0.010416666666666666
            },
            {
              "pitch": 32,
              "velocity": 73,
              "position": 1,
              "duration": 0.010416666666666666
            },
            {
              "pitch": 33,
              "velocity": 95,
              "position": 1,
              "duration": 0.010416666666666666
            },
            {
              "pitch": 42,
              "velocity": 95,
              "position": 1,
              "duration": 0.010416666666666666
            },
            {
              "pitch": 54,
              "velocity": 40,
              "position": 1,
              "duration": 0.010416666666666666
            },
            {
              "pitch": 70,
              "velocity": 87,
              "position": 1,
              "duration": 0.010416666666666666
            },
            {
              "pitch": 39,
              "velocity": 100,
              "position": 1.0208333333333333,
              "duration": 0.052083333333333336
            },
            {
              "pitch": 24,
              "velocity": 47,
              "position": 1.5,
              "duration": 0.010416666666666666
            },
            {
              "pitch": 42,
              "velocity": 52,
              "position": 1.5,
              "duration": 0.010416666666666666
            },
            {
              "pitch": 54,
              "velocity": 25,
              "position": 1.5,
              "duration": 0.010416666666666666
            },
            {
              "pitch": 70,
              "velocity": 44,
              "position": 1.5,
              "duration": 0.010416666666666666
            },
            {
              "pitch": 15,
              "velocity": 45,
              "position": 1.75,
              "duration": 0.010416666666666666
            },
            {
              "pitch": 42,
              "velocity": 37,
              "position": 1.75,
              "duration": 0.010416666666666666
            },
            {
              "pitch": 16,
              "velocity": 43,
              "position": 2,
              "duration": 0.010416666666666666
            },
            {
              "pitch": 33,
              "velocity": 95,
              "position": 2,
              "duration": 0.010416666666666666
            },
            {
              "pitch": 46,
              "velocity": 98,
              "position": 2,
              "duration": 0.010416666666666666
            },
            {
              "pitch": 54,
              "velocity": 40,
              "position": 2,
              "duration": 0.010416666666666666
            },
            {
              "pitch": 70,
              "velocity": 90,
              "position": 2,
              "duration": 0.010416666666666666
            },
            {
              "pitch": 24,
              "velocity": 39,
              "position": 2.5,
              "duration": 0.010416666666666666
            },
            {
              "pitch": 32,
              "velocity": 73,
              "position": 2.5,
              "duration": 0.010416666666666666
            },
            {
              "pitch": 42,
              "velocity": 54,
              "position": 2.5,
              "duration": 0.010416666666666666
            },
            {
              "pitch": 54,
              "velocity": 25,
              "position": 2.5,
              "duration": 0.010416666666666666
            },
            {
              "pitch": 70,
              "velocity": 46,
              "position": 2.5,
              "duration": 0.010416666666666666
            },
            {
              "pitch": 15,
              "velocity": 37,
              "position": 2.75,
              "duration": 0.010416666666666666
            },
            {
              "pitch": 16,
              "velocity": 35,
              "position": 3,
              "duration": 0.010416666666666666
            },
            {
              "pitch": 32,
              "velocity": 73,
              "position": 3,
              "duration": 0.010416666666666666
            },
            {
              "pitch": 33,
              "velocity": 95,
              "position": 3,
              "duration": 0.010416666666666666
            },
            {
              "pitch": 42,
              "velocity": 95,
              "position": 3,
              "duration": 0.010416666666666666
            },
            {
              "pitch": 54,
              "velocity": 40,
              "position": 3,
              "duration": 0.010416666666666666
            },
            {
              "pitch": 70,
              "velocity": 87,
              "position": 3,
              "duration": 0.010416666666666666
            },
            {
              "pitch": 39,
              "velocity": 100,
              "position": 3.0208333333333335,
              "duration": 0.052083333333333336
            },
            {
              "pitch": 24,
              "velocity": 31,
              "position": 3.5,
              "duration": 0.010416666666666666
            },
            {
              "pitch": 46,
              "velocity": 98,
              "position": 3.5,
              "duration": 0.010416666666666666
            },
            {
              "pitch": 54,
              "velocity": 25,
              "position": 3.5,
              "duration": 0.010416666666666666
            },
            {
              "pitch": 70,
              "velocity": 44,
              "position": 3.5,
              "duration": 0.010416666666666666
            },
            {
              "pitch": 15,
              "velocity": 29,
              "position": 3.75,
              "duration": 0.010416666666666666
            },
            {
              "pitch": 42,
              "velocity": 1,
              "position": 3.75,
              "duration": 0.010416666666666666
            },
            {
              "pitch": 62,
              "velocity": 58,
              "position": 3.75,
              "duration": 0.010416666666666666
            },
            {
              "pitch": 16,
              "velocity": 27,
              "position": 4,
              "duration": 0.010416666666666666
            },
            {
              "pitch": 24,
              "velocity": 23,
              "position": 4.5,
              "duration": 0.010416666666666666
            },
            {
              "pitch": 54,
              "velocity": 25,
              "position": 4.5,
              "duration": 0.010416666666666666
            },
            {
              "pitch": 62,
              "velocity": 77,
              "position": 4.5,
              "duration": 0.010416666666666666
            },
            {
              "pitch": 70,
              "velocity": 46,
              "position": 4.5,
              "duration": 0.010416666666666666
            },
            {
              "pitch": 15,
              "velocity": 21,
              "position": 4.75,
              "duration": 0.010416666666666666
            },
            {
              "pitch": 16,
              "velocity": 19,
              "position": 5,
              "duration": 0.010416666666666666
            },
            {
              "pitch": 24,
              "velocity": 15,
              "position": 5.5,
              "duration": 0.010416666666666666
            },
            {
              "pitch": 54,
              "velocity": 25,
              "position": 5.5,
              "duration": 0.010416666666666666
            },
            {
              "pitch": 62,
              "velocity": 77,
              "position": 5.5,
              "duration": 0.010416666666666666
            },
            {
              "pitch": 70,
              "velocity": 44,
              "position": 5.5,
              "duration": 0.010416666666666666
            },
            {
              "pitch": 15,
              "velocity": 13,
              "position": 5.75,
              "duration": 0.010416666666666666
            },
            {
              "pitch": 29,
              "velocity": 123,
              "position": 3.5,
              "duration": 2.4270833333333335
            },
            {
              "pitch": 16,
              "velocity": 11,
              "position": 6,
              "duration": 0.010416666666666666
            },
            {
              "pitch": 24,
              "velocity": 7,
              "position": 6.5,
              "duration": 0.010416666666666666
            },
            {
              "pitch": 15,
              "velocity": 5,
              "position": 6.75,
              "duration": 0.010416666666666666
            },
            {
              "pitch": 16,
              "velocity": 3,
              "position": 7,
              "duration": 0.010416666666666666
            }
          ]
        },
        "10": {
          "ctab": {
            "srcChannel": 10,
            "name": "Bass",
            "accType": "BASS",
            "editable": false,
            "mutedNotes": [],
            "mutedChords": [],
            "autoStart": false,
            "sourceChordNote": 0,
            "sourceChordType": "min",
            "ctb2Low": null,
            "ctb2Main": {
              "ntr": "ROOT_TRANSPOSITION",
              "ntt": "HARMONIC_MINOR",
              "bassOn": false,
              "chordRootUpperLimit": 3,
              "noteLowLimit": 28,
              "noteHighLimit": 127,
              "rtr": "PITCH_SHIFT"
            },
            "ctb2High": null
          },
          "notes": [
            {
              "pitch": 24,
              "velocity": 100,
              "position": 0.5,
              "duration": 0.5
            },
            {
              "pitch": 24,
              "velocity": 100,
              "position": 1.5,
              "duration": 0.5
            },
            {
              "pitch": 31,
              "velocity": 100,
              "position": 2.5,
              "duration": 0.5
            },
            {
              "pitch": 31,
              "velocity": 100,
              "position": 3.5,
              "duration": 0.5
            },
            {
              "pitch": 24,
              "velocity": 100,
              "position": 4.5,
              "duration": 0.5
            },
            {
              "pitch": 24,
              "velocity": 100,
              "position": 5.5,
              "duration": 0.5
            }
          ]
        },
        "11": {
          "ctab": {
            "srcChannel": 11,
            "name": "Organ",
            "accType": "CHORD1",
            "editable": false,
            "mutedNotes": [],
            "mutedChords": [],
            "autoStart": false,
            "sourceChordNote": 0,
            "sourceChordType": "min",
            "ctb2Low": null,
            "ctb2Main": {
              "ntr": "ROOT_TRANSPOSITION",
              "ntt": "HARMONIC_MINOR",
              "bassOn": false,
              "chordRootUpperLimit": 6,
              "noteLowLimit": 0,
              "noteHighLimit": 127,
              "rtr": "PITCH_SHIFT"
            },
            "ctb2High": null
          },
          "notes": [
            {
              "pitch": 60,
              "velocity": 105,
              "position": 0.5,
              "duration": 0.4166666666666667
            },
            {
              "pitch": 67,
              "velocity": 105,
              "position": 0.5,
              "duration": 0.4166666666666667
            },
            {
              "pitch": 60,
              "velocity": 105,
              "position": 1.5,
              "duration": 0.4166666666666667
            },
            {
              "pitch": 67,
              "velocity": 105,
              "position": 1.5,
              "duration": 0.4166666666666667
            },
            {
              "pitch": 62,
              "velocity": 105,
              "position": 2.5,
              "duration": 0.4166666666666667
            },
            {
              "pitch": 67,
              "velocity": 105,
              "position": 2.5,
              "duration": 0.4166666666666667
            },
            {
              "pitch": 62,
              "velocity": 105,
              "position": 3.5,
              "duration": 0.4166666666666667
            },
            {
              "pitch": 67,
              "velocity": 105,
              "position": 3.5,
              "duration": 0.4166666666666667
            },
            {
              "pitch": 60,
              "velocity": 105,
              "position": 4.5,
              "duration": 0.4166666666666667
            },
            {
              "pitch": 67,
              "velocity": 105,
              "position": 4.5,
              "duration": 0.4166666666666667
            },
            {
              "pitch": 60,
              "velocity": 105,
              "position": 5.5,
              "duration": 0.4166666666666667
            },
            {
              "pitch": 67,
              "velocity": 105,
              "position": 5.5,
              "duration": 0.4166666666666667
            }
          ]
        },
        "12": {
          "ctab": {
            "srcChannel": 12,
            "name": "Metal",
            "accType": "CHORD2",
            "editable": false,
            "mutedNotes": [],
            "mutedChords": [],
            "autoStart": false,
            "sourceChordNote": 0,
            "sourceChordType": "min",
            "ctb2Low": null,
            "ctb2Main": {
              "ntr": "ROOT_TRANSPOSITION",
              "ntt": "HARMONIC_MINOR",
              "bassOn": false,
              "chordRootUpperLimit": 6,
              "noteLowLimit": 0,
              "noteHighLimit": 127,
              "rtr": "PITCH_SHIFT"
            },
            "ctb2High": null
          },
          "notes": [
            {
              "pitch": 60,
              "velocity": 80,
              "position": 4,
              "duration": 0.25
            },
            {
              "pitch": 60,
              "velocity": 65,
              "position": 4.5,
              "duration": 0.25
            },
            {
              "pitch": 60,
              "velocity": 68,
              "position": 5,
              "duration": 0.25
            },
            {
              "pitch": 60,
              "velocity": 55,
              "position": 5.5,
              "duration": 0.25
            },
            {
              "pitch": 60,
              "velocity": 42,
              "position": 6,
              "duration": 0.25
            },
            {
              "pitch": 60,
              "velocity": 24,
              "position": 6.5,
              "duration": 0.25
            },
            {
              "pitch": 60,
              "velocity": 22,
              "position": 7,
              "duration": 0.25
            },
            {
              "pitch": 60,
              "velocity": 4,
              "position": 7.5,
              "duration": 0.25
            }
          ]
        },
        "13": {
          "ctab": {
            "srcChannel": 13,
            "name": "SySeq",
            "accType": "PAD",
            "editable": false,
            "mutedNotes": [],
            "mutedChords": [],
            "autoStart": false,
            "sourceChordNote": 0,
            "sourceChordType": "min",
            "ctb2Low": null,
            "ctb2Main": {
              "ntr": "ROOT_TRANSPOSITION",
              "ntt": "HARMONIC_MINOR",
              "bassOn": false,
              "chordRootUpperLimit": 8,
              "noteLowLimit": 0,
              "noteHighLimit": 127,
              "rtr": "PITCH_SHIFT"
            },
            "ctb2High": null
          },
          "notes": [
            {
              "pitch": 60,
              "velocity": 46,
              "position": 0,
              "duration": 2
            },
            {
              "pitch": 62,
              "velocity": 46,
              "position": 2,
              "duration": 2
            },
            {
              "pitch": 60,
              "velocity": 46,
              "position": 4,
              "duration": 1.9479166666666667
            },
            {
              "pitch": 67,
              "velocity": 46,
              "position": 0,
              "duration": 5.979166666666667
            }
          ]
        },
        "14": {
          "ctab": {
            "srcChannel": 14,
            "name": "Ep",
            "accType": "PHRASE1",
            "editable": false,
            "mutedNotes": [],
            "mutedChords": [],
            "autoStart": false,
            "sourceChordNote": 0,
            "sourceChordType": "min",
            "ctb2Low": null,
            "ctb2Main": {
              "ntr": "ROOT_TRANSPOSITION",
              "ntt": "HARMONIC_MINOR",
              "bassOn": false,
              "chordRootUpperLimit": 5,
              "noteLowLimit": 0,
              "noteHighLimit": 127,
              "rtr": "PITCH_SHIFT"
            },
            "ctb2High": null
          },
          "notes": [
            {
              "pitch": 60,
              "velocity": 98,
              "position": 0.5,
              "duration": 0.15625
            },
            {
              "pitch": 65,
              "velocity": 127,
              "position": 0.9270833333333334,
              "duration": 0.0625
            },
            {
              "pitch": 67,
              "velocity": 98,
              "position": 1,
              "duration": 0.7604166666666666
            },
            {
              "pitch": 65,
              "velocity": 127,
              "position": 1.9270833333333333,
              "duration": 0.0625
            },
            {
              "pitch": 67,
              "velocity": 98,
              "position": 2,
              "duration": 0.8958333333333334
            },
            {
              "pitch": 65,
              "velocity": 98,
              "position": 3,
              "duration": 0.4895833333333333
            },
            {
              "pitch": 67,
              "velocity": 98,
              "position": 3.5,
              "duration": 0.3854166666666667
            },
            {
              "pitch": 60,
              "velocity": 98,
              "position": 4.5,
              "duration": 0.4583333333333333
            },
            {
              "pitch": 60,
              "velocity": 98,
              "position": 5.5,
              "duration": 0.3333333333333333
            }
          ]
        },
        "15": {
          "ctab": {
            "srcChannel": 15,
            "name": "Saw",
            "accType": "PHRASE2",
            "editable": false,
            "mutedNotes": [],
            "mutedChords": [],
            "autoStart": false,
            "sourceChordNote": 0,
            "sourceChordType": "min",
            "ctb2Low": null,
            "ctb2Main": {
              "ntr": "ROOT_TRANSPOSITION",
              "ntt": "HARMONIC_MINOR",
              "bassOn": false,
              "chordRootUpperLimit": 4,
              "noteLowLimit": 0,
              "noteHighLimit": 127,
              "rtr": "PITCH_SHIFT"
            },
            "ctb2High": null
          },
          "notes": [
            {
              "pitch": 60,
              "velocity": 82,
              "position": 0,
              "duration": 0.4791666666666667
            },
            {
              "pitch": 60,
              "velocity": 110,
              "position": 0.5,
              "duration": 0.3958333333333333
            },
            {
              "pitch": 60,
              "velocity": 108,
              "position": 1.5,
              "duration": 0.4791666666666667
            },
            {
              "pitch": 62,
              "velocity": 82,
              "position": 2,
              "duration": 0.4791666666666667
            },
            {
              "pitch": 62,
              "velocity": 110,
              "position": 2.5,
              "duration": 0.3958333333333333
            },
            {
              "pitch": 62,
              "velocity": 82,
              "position": 3.5,
              "duration": 0.4791666666666667
            },
            {
              "pitch": 60,
              "velocity": 110,
              "position": 4.5,
              "duration": 0.3958333333333333
            },
            {
              "pitch": 60,
              "velocity": 82,
              "position": 5.5,
              "duration": 0.4791666666666667
            }
          ]
        }
      }
    },
    "Ending_C": {
      "type": "Ending_C",
      "sizeInBeats": 28,
      "channels": {
        "8": {
          "ctab": {
            "srcChannel": 8,
            "name": "Perc",
            "accType": "SUBRHYTHM",
            "editable": false,
            "mutedNotes": [],
            "mutedChords": [],
            "autoStart": true,
            "sourceChordNote": 0,
            "sourceChordType": "Maj7",
            "ctb2Low": null,
            "ctb2Main": {
              "ntr": "ROOT_FIXED",
              "ntt": "BYPASS",
              "bassOn": false,
              "chordRootUpperLimit": 6,
              "noteLowLimit": 0,
              "noteHighLimit": 127,
              "rtr": "PITCH_SHIFT"
            },
            "ctb2High": null
          },
          "notes": [
            {
              "pitch": 42,
              "velocity": 67,
              "position": 0,
              "duration": 0.010416666666666666
            },
            {
              "pitch": 54,
              "velocity": 84,
              "position": 0,
              "duration": 0.010416666666666666
            },
            {
              "pitch": 42,
              "velocity": 79,
              "position": 0.5,
              "duration": 0.010416666666666666
            },
            {
              "pitch": 54,
              "velocity": 59,
              "position": 0.5,
              "duration": 0.010416666666666666
            },
            {
              "pitch": 70,
              "velocity": 73,
              "position": 0.5,
              "duration": 0.010416666666666666
            },
            {
              "pitch": 82,
              "velocity": 73,
              "position": 0.5,
              "duration": 0.010416666666666666
            },
            {
              "pitch": 70,
              "velocity": 43,
              "position": 0.75,
              "duration": 0.010416666666666666
            },
            {
              "pitch": 82,
              "velocity": 43,
              "position": 0.75,
              "duration": 0.010416666666666666
            },
            {
              "pitch": 42,
              "velocity": 114,
              "position": 1,
              "duration": 0.010416666666666666
            },
            {
              "pitch": 54,
              "velocity": 71,
              "position": 1,
              "duration": 0.010416666666666666
            },
            {
              "pitch": 42,
              "velocity": 90,
              "position": 1.5,
              "duration": 0.010416666666666666
            },
            {
              "pitch": 54,
              "velocity": 61,
              "position": 1.5,
              "duration": 0.010416666666666666
            },
            {
              "pitch": 70,
              "velocity": 73,
              "position": 1.5,
              "duration": 0.010416666666666666
            },
            {
              "pitch": 82,
              "velocity": 73,
              "position": 1.5,
              "duration": 0.010416666666666666
            },
            {
              "pitch": 70,
              "velocity": 43,
              "position": 1.75,
              "duration": 0.010416666666666666
            },
            {
              "pitch": 82,
              "velocity": 43,
              "position": 1.75,
              "duration": 0.010416666666666666
            },
            {
              "pitch": 42,
              "velocity": 90,
              "position": 2,
              "duration": 0.010416666666666666
            },
            {
              "pitch": 54,
              "velocity": 67,
              "position": 2,
              "duration": 0.010416666666666666
            },
            {
              "pitch": 42,
              "velocity": 71,
              "position": 2.5,
              "duration": 0.010416666666666666
            },
            {
              "pitch": 54,
              "velocity": 47,
              "position": 2.5,
              "duration": 0.010416666666666666
            },
            {
              "pitch": 70,
              "velocity": 73,
              "position": 2.5,
              "duration": 0.010416666666666666
            },
            {
              "pitch": 82,
              "velocity": 73,
              "position": 2.5,
              "duration": 0.010416666666666666
            },
            {
              "pitch": 70,
              "velocity": 43,
              "position": 2.75,
              "duration": 0.010416666666666666
            },
            {
              "pitch": 82,
              "velocity": 43,
              "position": 2.75,
              "duration": 0.010416666666666666
            },
            {
              "pitch": 42,
              "velocity": 107,
              "position": 3,
              "duration": 0.010416666666666666
            },
            {
              "pitch": 54,
              "velocity": 71,
              "position": 3,
              "duration": 0.010416666666666666
            },
            {
              "pitch": 42,
              "velocity": 71,
              "position": 3.5,
              "duration": 0.010416666666666666
            },
            {
              "pitch": 54,
              "velocity": 49,
              "position": 3.5,
              "duration": 0.010416666666666666
            },
            {
              "pitch": 70,
              "velocity": 73,
              "position": 3.5,
              "duration": 0.010416666666666666
            },
            {
              "pitch": 82,
              "velocity": 73,
              "position": 3.5,
              "duration": 0.010416666666666666
            },
            {
              "pitch": 70,
              "velocity": 43,
              "position": 3.75,
              "duration": 0.010416666666666666
            },
            {
              "pitch": 82,
              "velocity": 43,
              "position": 3.75,
              "duration": 0.010416666666666666
            },
            {
              "pitch": 42,
              "velocity": 90,
              "position": 4,
              "duration": 0.010416666666666666
            },
            {
              "pitch": 54,
              "velocity": 53,
              "position": 4,
              "duration": 0.010416666666666666
            },
            {
              "pitch": 42,
              "velocity": 84,
              "position": 4.5,
              "duration": 0.010416666666666666
            },
            {
              "pitch": 54,
              "velocity": 59,
              "position": 4.5,
              "duration": 0.010416666666666666
            },
            {
              "pitch": 70,
              "velocity": 73,
              "position": 4.5,
              "duration": 0.010416666666666666
            },
            {
              "pitch": 82,
              "velocity": 73,
              "position": 4.5,
              "duration": 0.010416666666666666
            },
            {
              "pitch": 70,
              "velocity": 43,
              "position": 4.75,
              "duration": 0.010416666666666666
            },
            {
              "pitch": 82,
              "velocity": 43,
              "position": 4.75,
              "duration": 0.010416666666666666
            },
            {
              "pitch": 42,
              "velocity": 111,
              "position": 5,
              "duration": 0.010416666666666666
            },
            {
              "pitch": 54,
              "velocity": 74,
              "position": 5,
              "duration": 0.010416666666666666
            },
            {
              "pitch": 42,
              "velocity": 76,
              "position": 5.5,
              "duration": 0.010416666666666666
            },
            {
              "pitch": 54,
              "velocity": 46,
              "position": 5.5,
              "duration": 0.010416666666666666
            },
            {
              "pitch": 70,
              "velocity": 73,
              "position": 5.5,
              "duration": 0.010416666666666666
            },
            {
              "pitch": 82,
              "velocity": 73,
              "position": 5.5,
              "duration": 0.010416666666666666
            },
            {
              "pitch": 70,
              "velocity": 43,
              "position": 5.75,
              "duration": 0.010416666666666666
            },
            {
              "pitch": 82,
              "velocity": 43,
              "position": 5.75,
              "duration": 0.010416666666666666
            },
            {
              "pitch": 42,
              "velocity": 90,
              "position": 6,
              "duration": 0.010416666666666666
            },
            {
              "pitch": 54,
              "velocity": 55,
              "position": 6,
              "duration": 0.010416666666666666
            },
            {
              "pitch": 42,
              "velocity": 84,
              "position": 6.5,
              "duration": 0.010416666666666666
            },
            {
              "pitch": 54,
              "velocity": 45,
              "position": 6.5,
              "duration": 0.010416666666666666
            },
            {
              "pitch": 70,
              "velocity": 73,
              "position": 6.5,
              "duration": 0.010416666666666666
            },
            {
              "pitch": 82,
              "velocity": 73,
              "position": 6.5,
              "duration": 0.010416666666666666
            },
            {
              "pitch": 70,
              "velocity": 43,
              "position": 6.75,
              "duration": 0.010416666666666666
            },
            {
              "pitch": 82,
              "velocity": 43,
              "position": 6.75,
              "duration": 0.010416666666666666
            },
            {
              "pitch": 42,
              "velocity": 99,
              "position": 7,
              "duration": 0.010416666666666666
            },
            {
              "pitch": 54,
              "velocity": 76,
              "position": 7,
              "duration": 0.010416666666666666
            },
            {
              "pitch": 42,
              "velocity": 65,
              "position": 7.5,
              "duration": 0.010416666666666666
            },
            {
              "pitch": 54,
              "velocity": 48,
              "position": 7.5,
              "duration": 0.010416666666666666
            },
            {
              "pitch": 70,
              "velocity": 73,
              "position": 7.5,
              "duration": 0.010416666666666666
            },
            {
              "pitch": 82,
              "velocity": 73,
              "position": 7.5,
              "duration": 0.010416666666666666
            },
            {
              "pitch": 70,
              "velocity": 43,
              "position": 7.75,
              "duration": 0.010416666666666666
            },
            {
              "pitch": 82,
              "velocity": 43,
              "position": 7.75,
              "duration": 0.010416666666666666
            },
            {
              "pitch": 42,
              "velocity": 86,
              "position": 8,
              "duration": 0.010416666666666666
            },
            {
              "pitch": 54,
              "velocity": 49,
              "position": 8,
              "duration": 0.010416666666666666
            },
            {
              "pitch": 42,
              "velocity": 76,
              "position": 8.5,
              "duration": 0.010416666666666666
            },
            {
              "pitch": 54,
              "velocity": 52,
              "position": 8.5,
              "duration": 0.010416666666666666
            },
            {
              "pitch": 70,
              "velocity": 73,
              "position": 8.5,
              "duration": 0.010416666666666666
            },
            {
              "pitch": 82,
              "velocity": 73,
              "position": 8.5,
              "duration": 0.010416666666666666
            },
            {
              "pitch": 70,
              "velocity": 43,
              "position": 8.75,
              "duration": 0.010416666666666666
            },
            {
              "pitch": 82,
              "velocity": 43,
              "position": 8.75,
              "duration": 0.010416666666666666
            },
            {
              "pitch": 42,
              "velocity": 111,
              "position": 9,
              "duration": 0.010416666666666666
            },
            {
              "pitch": 54,
              "velocity": 88,
              "position": 9,
              "duration": 0.010416666666666666
            },
            {
              "pitch": 42,
              "velocity": 76,
              "position": 9.5,
              "duration": 0.010416666666666666
            },
            {
              "pitch": 54,
              "velocity": 54,
              "position": 9.5,
              "duration": 0.010416666666666666
            },
            {
              "pitch": 70,
              "velocity": 73,
              "position": 9.5,
              "duration": 0.010416666666666666
            },
            {
              "pitch": 82,
              "velocity": 73,
              "position": 9.5,
              "duration": 0.010416666666666666
            },
            {
              "pitch": 70,
              "velocity": 43,
              "position": 9.75,
              "duration": 0.010416666666666666
            },
            {
              "pitch": 82,
              "velocity": 43,
              "position": 9.75,
              "duration": 0.010416666666666666
            },
            {
              "pitch": 42,
              "velocity": 84,
              "position": 10,
              "duration": 0.010416666666666666
            },
            {
              "pitch": 54,
              "velocity": 53,
              "position": 10,
              "duration": 0.010416666666666666
            },
            {
              "pitch": 42,
              "velocity": 71,
              "position": 10.5,
              "duration": 0.010416666666666666
            },
            {
              "pitch": 54,
              "velocity": 45,
              "position": 10.5,
              "duration": 0.010416666666666666
            },
            {
              "pitch": 70,
              "velocity": 73,
              "position": 10.5,
              "duration": 0.010416666666666666
            },
            {
              "pitch": 82,
              "velocity": 73,
              "position": 10.5,
              "duration": 0.010416666666666666
            },
            {
              "pitch": 70,
              "velocity": 43,
              "position": 10.75,
              "duration": 0.010416666666666666
            },
            {
              "pitch": 82,
              "velocity": 43,
              "position": 10.75,
              "duration": 0.010416666666666666
            },
            {
              "pitch": 42,
              "velocity": 114,
              "position": 11,
              "duration": 0.010416666666666666
            },
            {
              "pitch": 54,
              "velocity": 76,
              "position": 11,
              "duration": 0.010416666666666666
            },
            {
              "pitch": 42,
              "velocity": 69,
              "position": 11.5,
              "duration": 0.010416666666666666
            },
            {
              "pitch": 54,
              "velocity": 58,
              "position": 11.5,
              "duration": 0.010416666666666666
            },
            {
              "pitch": 70,
              "velocity": 73,
              "position": 11.5,
              "duration": 0.010416666666666666
            },
            {
              "pitch": 82,
              "velocity": 73,
              "position": 11.5,
              "duration": 0.010416666666666666
            },
            {
              "pitch": 70,
              "velocity": 43,
              "position": 11.75,
              "duration": 0.010416666666666666
            },
            {
              "pitch": 82,
              "velocity": 43,
              "position": 11.75,
              "duration": 0.010416666666666666
            },
            {
              "pitch": 42,
              "velocity": 71,
              "position": 12,
              "duration": 0.010416666666666666
            },
            {
              "pitch": 54,
              "velocity": 53,
              "position": 12,
              "duration": 0.010416666666666666
            },
            {
              "pitch": 42,
              "velocity": 84,
              "position": 12.5,
              "duration": 0.010416666666666666
            },
            {
              "pitch": 54,
              "velocity": 57,
              "position": 12.5,
              "duration": 0.010416666666666666
            },
            {
              "pitch": 70,
              "velocity": 73,
              "position": 12.5,
              "duration": 0.010416666666666666
            },
            {
              "pitch": 82,
              "velocity": 73,
              "position": 12.5,
              "duration": 0.010416666666666666
            },
            {
              "pitch": 70,
              "velocity": 43,
              "position": 12.75,
              "duration": 0.010416666666666666
            },
            {
              "pitch": 82,
              "velocity": 43,
              "position": 12.75,
              "duration": 0.010416666666666666
            },
            {
              "pitch": 42,
              "velocity": 114,
              "position": 13,
              "duration": 0.010416666666666666
            },
            {
              "pitch": 54,
              "velocity": 82,
              "position": 13,
              "duration": 0.010416666666666666
            },
            {
              "pitch": 42,
              "velocity": 76,
              "position": 13.5,
              "duration": 0.010416666666666666
            },
            {
              "pitch": 54,
              "velocity": 71,
              "position": 13.5,
              "duration": 0.010416666666666666
            },
            {
              "pitch": 70,
              "velocity": 73,
              "position": 13.5,
              "duration": 0.010416666666666666
            },
            {
              "pitch": 82,
              "velocity": 73,
              "position": 13.5,
              "duration": 0.010416666666666666
            },
            {
              "pitch": 70,
              "velocity": 43,
              "position": 13.75,
              "duration": 0.010416666666666666
            },
            {
              "pitch": 82,
              "velocity": 43,
              "position": 13.75,
              "duration": 0.010416666666666666
            },
            {
              "pitch": 42,
              "velocity": 65,
              "position": 14,
              "duration": 0.010416666666666666
            },
            {
              "pitch": 54,
              "velocity": 61,
              "position": 14,
              "duration": 0.010416666666666666
            },
            {
              "pitch": 42,
              "velocity": 55,
              "position": 14.5,
              "duration": 0.010416666666666666
            },
            {
              "pitch": 54,
              "velocity": 57,
              "position": 14.5,
              "duration": 0.010416666666666666
            },
            {
              "pitch": 70,
              "velocity": 73,
              "position": 14.5,
              "duration": 0.010416666666666666
            },
            {
              "pitch": 82,
              "velocity": 73,
              "position": 14.5,
              "duration": 0.010416666666666666
            },
            {
              "pitch": 70,
              "velocity": 43,
              "position": 14.75,
              "duration": 0.010416666666666666
            },
            {
              "pitch": 82,
              "velocity": 43,
              "position": 14.75,
              "duration": 0.010416666666666666
            },
            {
              "pitch": 42,
              "velocity": 99,
              "position": 15,
              "duration": 0.010416666666666666
            },
            {
              "pitch": 54,
              "velocity": 86,
              "position": 15,
              "duration": 0.010416666666666666
            },
            {
              "pitch": 42,
              "velocity": 74,
              "position": 15.5,
              "duration": 0.010416666666666666
            },
            {
              "pitch": 54,
              "velocity": 71,
              "position": 15.5,
              "duration": 0.010416666666666666
            },
            {
              "pitch": 70,
              "velocity": 73,
              "position": 15.5,
              "duration": 0.010416666666666666
            },
            {
              "pitch": 82,
              "velocity": 73,
              "position": 15.5,
              "duration": 0.010416666666666666
            },
            {
              "pitch": 70,
              "velocity": 43,
              "position": 15.75,
              "duration": 0.010416666666666666
            },
            {
              "pitch": 82,
              "velocity": 43,
              "position": 15.75,
              "duration": 0.010416666666666666
            },
            {
              "pitch": 42,
              "velocity": 67,
              "position": 16,
              "duration": 0.010416666666666666
            },
            {
              "pitch": 54,
              "velocity": 84,
              "position": 16,
              "duration": 0.010416666666666666
            },
            {
              "pitch": 42,
              "velocity": 79,
              "position": 16.5,
              "duration": 0.010416666666666666
            },
            {
              "pitch": 54,
              "velocity": 59,
              "position": 16.5,
              "duration": 0.010416666666666666
            },
            {
              "pitch": 70,
              "velocity": 73,
              "position": 16.5,
              "duration": 0.010416666666666666
            },
            {
              "pitch": 82,
              "velocity": 73,
              "position": 16.5,
              "duration": 0.010416666666666666
            },
            {
              "pitch": 70,
              "velocity": 43,
              "position": 16.75,
              "duration": 0.010416666666666666
            },
            {
              "pitch": 82,
              "velocity": 43,
              "position": 16.75,
              "duration": 0.010416666666666666
            },
            {
              "pitch": 42,
              "velocity": 114,
              "position": 17,
              "duration": 0.010416666666666666
            },
            {
              "pitch": 54,
              "velocity": 71,
              "position": 17,
              "duration": 0.010416666666666666
            },
            {
              "pitch": 42,
              "velocity": 90,
              "position": 17.5,
              "duration": 0.010416666666666666
            },
            {
              "pitch": 54,
              "velocity": 61,
              "position": 17.5,
              "duration": 0.010416666666666666
            },
            {
              "pitch": 70,
              "velocity": 73,
              "position": 17.5,
              "duration": 0.010416666666666666
            },
            {
              "pitch": 82,
              "velocity": 73,
              "position": 17.5,
              "duration": 0.010416666666666666
            },
            {
              "pitch": 70,
              "velocity": 43,
              "position": 17.75,
              "duration": 0.010416666666666666
            },
            {
              "pitch": 82,
              "velocity": 43,
              "position": 17.75,
              "duration": 0.010416666666666666
            },
            {
              "pitch": 42,
              "velocity": 90,
              "position": 18,
              "duration": 0.010416666666666666
            },
            {
              "pitch": 54,
              "velocity": 67,
              "position": 18,
              "duration": 0.010416666666666666
            },
            {
              "pitch": 42,
              "velocity": 71,
              "position": 18.5,
              "duration": 0.010416666666666666
            },
            {
              "pitch": 54,
              "velocity": 47,
              "position": 18.5,
              "duration": 0.010416666666666666
            },
            {
              "pitch": 70,
              "velocity": 73,
              "position": 18.5,
              "duration": 0.010416666666666666
            },
            {
              "pitch": 82,
              "velocity": 73,
              "position": 18.5,
              "duration": 0.010416666666666666
            },
            {
              "pitch": 70,
              "velocity": 43,
              "position": 18.75,
              "duration": 0.010416666666666666
            },
            {
              "pitch": 82,
              "velocity": 43,
              "position": 18.75,
              "duration": 0.010416666666666666
            },
            {
              "pitch": 42,
              "velocity": 107,
              "position": 19,
              "duration": 0.010416666666666666
            },
            {
              "pitch": 54,
              "velocity": 71,
              "position": 19,
              "duration": 0.010416666666666666
            },
            {
              "pitch": 42,
              "velocity": 71,
              "position": 19.5,
              "duration": 0.010416666666666666
            },
            {
              "pitch": 54,
              "velocity": 49,
              "position": 19.5,
              "duration": 0.010416666666666666
            },
            {
              "pitch": 70,
              "velocity": 73,
              "position": 19.5,
              "duration": 0.010416666666666666
            },
            {
              "pitch": 82,
              "velocity": 73,
              "position": 19.5,
              "duration": 0.010416666666666666
            },
            {
              "pitch": 70,
              "velocity": 43,
              "position": 19.75,
              "duration": 0.010416666666666666
            },
            {
              "pitch": 82,
              "velocity": 43,
              "position": 19.75,
              "duration": 0.010416666666666666
            },
            {
              "pitch": 42,
              "velocity": 90,
              "position": 20,
              "duration": 0.010416666666666666
            },
            {
              "pitch": 54,
              "velocity": 53,
              "position": 20,
              "duration": 0.010416666666666666
            },
            {
              "pitch": 42,
              "velocity": 84,
              "position": 20.5,
              "duration": 0.010416666666666666
            },
            {
              "pitch": 54,
              "velocity": 59,
              "position": 20.5,
              "duration": 0.010416666666666666
            },
            {
              "pitch": 70,
              "velocity": 73,
              "position": 20.5,
              "duration": 0.010416666666666666
            },
            {
              "pitch": 82,
              "velocity": 73,
              "position": 20.5,
              "duration": 0.010416666666666666
            },
            {
              "pitch": 70,
              "velocity": 43,
              "position": 20.75,
              "duration": 0.010416666666666666
            },
            {
              "pitch": 82,
              "velocity": 43,
              "position": 20.75,
              "duration": 0.010416666666666666
            },
            {
              "pitch": 42,
              "velocity": 111,
              "position": 21,
              "duration": 0.010416666666666666
            },
            {
              "pitch": 54,
              "velocity": 74,
              "position": 21,
              "duration": 0.010416666666666666
            },
            {
              "pitch": 42,
              "velocity": 76,
              "position": 21.5,
              "duration": 0.010416666666666666
            },
            {
              "pitch": 54,
              "velocity": 46,
              "position": 21.5,
              "duration": 0.010416666666666666
            },
            {
              "pitch": 70,
              "velocity": 73,
              "position": 21.5,
              "duration": 0.010416666666666666
            },
            {
              "pitch": 82,
              "velocity": 73,
              "position": 21.5,
              "duration": 0.010416666666666666
            },
            {
              "pitch": 70,
              "velocity": 43,
              "position": 21.75,
              "duration": 0.010416666666666666
            },
            {
              "pitch": 82,
              "velocity": 43,
              "position": 21.75,
              "duration": 0.010416666666666666
            },
            {
              "pitch": 42,
              "velocity": 90,
              "position": 22,
              "duration": 0.010416666666666666
            },
            {
              "pitch": 54,
              "velocity": 55,
              "position": 22,
              "duration": 0.010416666666666666
            },
            {
              "pitch": 42,
              "velocity": 84,
              "position": 22.5,
              "duration": 0.010416666666666666
            },
            {
              "pitch": 54,
              "velocity": 45,
              "position": 22.5,
              "duration": 0.010416666666666666
            },
            {
              "pitch": 70,
              "velocity": 73,
              "position": 22.5,
              "duration": 0.010416666666666666
            },
            {
              "pitch": 82,
              "velocity": 73,
              "position": 22.5,
              "duration": 0.010416666666666666
            },
            {
              "pitch": 70,
              "velocity": 43,
              "position": 22.75,
              "duration": 0.010416666666666666
            },
            {
              "pitch": 82,
              "velocity": 43,
              "position": 22.75,
              "duration": 0.010416666666666666
            },
            {
              "pitch": 42,
              "velocity": 99,
              "position": 23,
              "duration": 0.010416666666666666
            },
            {
              "pitch": 54,
              "velocity": 76,
              "position": 23,
              "duration": 0.010416666666666666
            },
            {
              "pitch": 42,
              "velocity": 65,
              "position": 23.5,
              "duration": 0.010416666666666666
            },
            {
              "pitch": 54,
              "velocity": 48,
              "position": 23.5,
              "duration": 0.010416666666666666
            },
            {
              "pitch": 70,
              "velocity": 73,
              "position": 23.5,
              "duration": 0.010416666666666666
            },
            {
              "pitch": 82,
              "velocity": 73,
              "position": 23.5,
              "duration": 0.010416666666666666
            },
            {
              "pitch": 70,
              "velocity": 43,
              "position": 23.75,
              "duration": 0.010416666666666666
            },
            {
              "pitch": 82,
              "velocity": 43,
              "position": 23.75,
              "duration": 0.010416666666666666
            },
            {
              "pitch": 42,
              "velocity": 86,
              "position": 24,
              "duration": 0.010416666666666666
            },
            {
              "pitch": 54,
              "velocity": 49,
              "position": 24,
              "duration": 0.010416666666666666
            }
          ]
        },
        "9": {
          "ctab": {
            "srcChannel": 9,
            "name": "Drums",
            "accType": "RHYTHM",
            "editable": false,
            "mutedNotes": [],
            "mutedChords": [],
            "autoStart": true,
            "sourceChordNote": 0,
            "sourceChordType": "Maj7",
            "ctb2Low": null,
            "ctb2Main": {
              "ntr": "ROOT_FIXED",
              "ntt": "BYPASS",
              "bassOn": false,
              "chordRootUpperLimit": 6,
              "noteLowLimit": 0,
              "noteHighLimit": 127,
              "rtr": "PITCH_SHIFT"
            },
            "ctb2High": null
          },
          "notes": [
            {
              "pitch": 33,
              "velocity": 95,
              "position": 0,
              "duration": 0.010416666666666666
            },
            {
              "pitch": 42,
              "velocity": 98,
              "position": 0,
              "duration": 0.010416666666666666
            },
            {
              "pitch": 70,
              "velocity": 90,
              "position": 0,
              "duration": 0.010416666666666666
            },
            {
              "pitch": 81,
              "velocity": 42,
              "position": 0,
              "duration": 0.010416666666666666
            },
            {
              "pitch": 82,
              "velocity": 41,
              "position": 0,
              "duration": 0.010416666666666666
            },
            {
              "pitch": 42,
              "velocity": 54,
              "position": 0.5,
              "duration": 0.010416666666666666
            },
            {
              "pitch": 61,
              "velocity": 46,
              "position": 0.5,
              "duration": 0.010416666666666666
            },
            {
              "pitch": 70,
              "velocity": 46,
              "position": 0.5,
              "duration": 0.010416666666666666
            },
            {
              "pitch": 80,
              "velocity": 32,
              "position": 0.5,
              "duration": 0.010416666666666666
            },
            {
              "pitch": 82,
              "velocity": 35,
              "position": 0.5,
              "duration": 0.010416666666666666
            },
            {
              "pitch": 32,
              "velocity": 73,
              "position": 1,
              "duration": 0.010416666666666666
            },
            {
              "pitch": 33,
              "velocity": 95,
              "position": 1,
              "duration": 0.010416666666666666
            },
            {
              "pitch": 42,
              "velocity": 95,
              "position": 1,
              "duration": 0.010416666666666666
            },
            {
              "pitch": 60,
              "velocity": 50,
              "position": 1,
              "duration": 0.010416666666666666
            },
            {
              "pitch": 70,
              "velocity": 87,
              "position": 1,
              "duration": 0.010416666666666666
            },
            {
              "pitch": 80,
              "velocity": 40,
              "position": 1,
              "duration": 0.010416666666666666
            },
            {
              "pitch": 82,
              "velocity": 39,
              "position": 1,
              "duration": 0.010416666666666666
            },
            {
              "pitch": 39,
              "velocity": 100,
              "position": 1.0208333333333333,
              "duration": 0.052083333333333336
            },
            {
              "pitch": 42,
              "velocity": 52,
              "position": 1.5,
              "duration": 0.010416666666666666
            },
            {
              "pitch": 70,
              "velocity": 44,
              "position": 1.5,
              "duration": 0.010416666666666666
            },
            {
              "pitch": 81,
              "velocity": 42,
              "position": 1.5,
              "duration": 0.010416666666666666
            },
            {
              "pitch": 82,
              "velocity": 31,
              "position": 1.5,
              "duration": 0.010416666666666666
            },
            {
              "pitch": 33,
              "velocity": 95,
              "position": 2,
              "duration": 0.010416666666666666
            },
            {
              "pitch": 42,
              "velocity": 98,
              "position": 2,
              "duration": 0.010416666666666666
            },
            {
              "pitch": 70,
              "velocity": 90,
              "position": 2,
              "duration": 0.010416666666666666
            },
            {
              "pitch": 80,
              "velocity": 35,
              "position": 2,
              "duration": 0.010416666666666666
            },
            {
              "pitch": 82,
              "velocity": 40,
              "position": 2,
              "duration": 0.010416666666666666
            },
            {
              "pitch": 42,
              "velocity": 54,
              "position": 2.5,
              "duration": 0.010416666666666666
            },
            {
              "pitch": 61,
              "velocity": 46,
              "position": 2.5,
              "duration": 0.010416666666666666
            },
            {
              "pitch": 70,
              "velocity": 46,
              "position": 2.5,
              "duration": 0.010416666666666666
            },
            {
              "pitch": 80,
              "velocity": 42,
              "position": 2.5,
              "duration": 0.010416666666666666
            },
            {
              "pitch": 82,
              "velocity": 38,
              "position": 2.5,
              "duration": 0.010416666666666666
            },
            {
              "pitch": 32,
              "velocity": 73,
              "position": 3,
              "duration": 0.010416666666666666
            },
            {
              "pitch": 33,
              "velocity": 95,
              "position": 3,
              "duration": 0.010416666666666666
            },
            {
              "pitch": 42,
              "velocity": 95,
              "position": 3,
              "duration": 0.010416666666666666
            },
            {
              "pitch": 70,
              "velocity": 87,
              "position": 3,
              "duration": 0.010416666666666666
            },
            {
              "pitch": 81,
              "velocity": 40,
              "position": 3,
              "duration": 0.010416666666666666
            },
            {
              "pitch": 39,
              "velocity": 100,
              "position": 3.0208333333333335,
              "duration": 0.052083333333333336
            },
            {
              "pitch": 42,
              "velocity": 53,
              "position": 3.5,
              "duration": 0.010416666666666666
            },
            {
              "pitch": 61,
              "velocity": 43,
              "position": 3.5,
              "duration": 0.010416666666666666
            },
            {
              "pitch": 70,
              "velocity": 44,
              "position": 3.5,
              "duration": 0.010416666666666666
            },
            {
              "pitch": 80,
              "velocity": 46,
              "position": 3.5,
              "duration": 0.010416666666666666
            },
            {
              "pitch": 82,
              "velocity": 46,
              "position": 3.5,
              "duration": 0.010416666666666666
            },
            {
              "pitch": 62,
              "velocity": 58,
              "position": 3.75,
              "duration": 0.010416666666666666
            },
            {
              "pitch": 33,
              "velocity": 95,
              "position": 4,
              "duration": 0.010416666666666666
            },
            {
              "pitch": 42,
              "velocity": 98,
              "position": 4,
              "duration": 0.010416666666666666
            },
            {
              "pitch": 70,
              "velocity": 90,
              "position": 4,
              "duration": 0.010416666666666666
            },
            {
              "pitch": 81,
              "velocity": 57,
              "position": 4,
              "duration": 0.010416666666666666
            },
            {
              "pitch": 82,
              "velocity": 40,
              "position": 4,
              "duration": 0.010416666666666666
            },
            {
              "pitch": 42,
              "velocity": 53,
              "position": 4.5,
              "duration": 0.010416666666666666
            },
            {
              "pitch": 61,
              "velocity": 42,
              "position": 4.5,
              "duration": 0.010416666666666666
            },
            {
              "pitch": 62,
              "velocity": 77,
              "position": 4.5,
              "duration": 0.010416666666666666
            },
            {
              "pitch": 70,
              "velocity": 46,
              "position": 4.5,
              "duration": 0.010416666666666666
            },
            {
              "pitch": 80,
              "velocity": 48,
              "position": 4.5,
              "duration": 0.010416666666666666
            },
            {
              "pitch": 82,
              "velocity": 41,
              "position": 4.5,
              "duration": 0.010416666666666666
            },
            {
              "pitch": 32,
              "velocity": 73,
              "position": 5,
              "duration": 0.010416666666666666
            },
            {
              "pitch": 33,
              "velocity": 95,
              "position": 5,
              "duration": 0.010416666666666666
            },
            {
              "pitch": 42,
              "velocity": 91,
              "position": 5,
              "duration": 0.010416666666666666
            },
            {
              "pitch": 60,
              "velocity": 50,
              "position": 5,
              "duration": 0.010416666666666666
            },
            {
              "pitch": 70,
              "velocity": 87,
              "position": 5,
              "duration": 0.010416666666666666
            },
            {
              "pitch": 80,
              "velocity": 40,
              "position": 5,
              "duration": 0.010416666666666666
            },
            {
              "pitch": 39,
              "velocity": 100,
              "position": 5.020833333333333,
              "duration": 0.052083333333333336
            },
            {
              "pitch": 42,
              "velocity": 51,
              "position": 5.5,
              "duration": 0.010416666666666666
            },
            {
              "pitch": 70,
              "velocity": 44,
              "position": 5.5,
              "duration": 0.010416666666666666
            },
            {
              "pitch": 81,
              "velocity": 48,
              "position": 5.5,
              "duration": 0.010416666666666666
            },
            {
              "pitch": 82,
              "velocity": 35,
              "position": 5.5,
              "duration": 0.010416666666666666
            },
            {
              "pitch": 33,
              "velocity": 95,
              "position": 6,
              "duration": 0.010416666666666666
            },
            {
              "pitch": 42,
              "velocity": 98,
              "position": 6,
              "duration": 0.010416666666666666
            },
            {
              "pitch": 70,
              "velocity": 90,
              "position": 6,
              "duration": 0.010416666666666666
            },
            {
              "pitch": 80,
              "velocity": 35,
              "position": 6,
              "duration": 0.010416666666666666
            },
            {
              "pitch": 82,
              "velocity": 40,
              "position": 6,
              "duration": 0.010416666666666666
            },
            {
              "pitch": 42,
              "velocity": 57,
              "position": 6.5,
              "duration": 0.010416666666666666
            },
            {
              "pitch": 61,
              "velocity": 44,
              "position": 6.5,
              "duration": 0.010416666666666666
            },
            {
              "pitch": 70,
              "velocity": 46,
              "position": 6.5,
              "duration": 0.010416666666666666
            },
            {
              "pitch": 80,
              "velocity": 40,
              "position": 6.5,
              "duration": 0.010416666666666666
            },
            {
              "pitch": 82,
              "velocity": 39,
              "position": 6.5,
              "duration": 0.010416666666666666
            },
            {
              "pitch": 32,
              "velocity": 73,
              "position": 7,
              "duration": 0.010416666666666666
            },
            {
              "pitch": 33,
              "velocity": 95,
              "position": 7,
              "duration": 0.010416666666666666
            },
            {
              "pitch": 42,
              "velocity": 95,
              "position": 7,
              "duration": 0.010416666666666666
            },
            {
              "pitch": 70,
              "velocity": 87,
              "position": 7,
              "duration": 0.010416666666666666
            },
            {
              "pitch": 81,
              "velocity": 36,
              "position": 7,
              "duration": 0.010416666666666666
            },
            {
              "pitch": 82,
              "velocity": 39,
              "position": 7,
              "duration": 0.010416666666666666
            },
            {
              "pitch": 39,
              "velocity": 100,
              "position": 7.020833333333333,
              "duration": 0.052083333333333336
            },
            {
              "pitch": 46,
              "velocity": 93,
              "position": 7.5,
              "duration": 0.010416666666666666
            },
            {
              "pitch": 61,
              "velocity": 29,
              "position": 7.5,
              "duration": 0.010416666666666666
            },
            {
              "pitch": 70,
              "velocity": 44,
              "position": 7.5,
              "duration": 0.010416666666666666
            },
            {
              "pitch": 80,
              "velocity": 41,
              "position": 7.5,
              "duration": 0.010416666666666666
            },
            {
              "pitch": 82,
              "velocity": 39,
              "position": 7.5,
              "duration": 0.010416666666666666
            },
            {
              "pitch": 33,
              "velocity": 95,
              "position": 8,
              "duration": 0.010416666666666666
            },
            {
              "pitch": 42,
              "velocity": 98,
              "position": 8,
              "duration": 0.010416666666666666
            },
            {
              "pitch": 61,
              "velocity": 36,
              "position": 8,
              "duration": 0.010416666666666666
            },
            {
              "pitch": 70,
              "velocity": 90,
              "position": 8,
              "duration": 0.010416666666666666
            },
            {
              "pitch": 81,
              "velocity": 38,
              "position": 8,
              "duration": 0.010416666666666666
            },
            {
              "pitch": 82,
              "velocity": 43,
              "position": 8,
              "duration": 0.010416666666666666
            },
            {
              "pitch": 42,
              "velocity": 54,
              "position": 8.5,
              "duration": 0.010416666666666666
            },
            {
              "pitch": 61,
              "velocity": 46,
              "position": 8.5,
              "duration": 0.010416666666666666
            },
            {
              "pitch": 70,
              "velocity": 46,
              "position": 8.5,
              "duration": 0.010416666666666666
            },
            {
              "pitch": 80,
              "velocity": 38,
              "position": 8.5,
              "duration": 0.010416666666666666
            },
            {
              "pitch": 82,
              "velocity": 38,
              "position": 8.5,
              "duration": 0.010416666666666666
            },
            {
              "pitch": 32,
              "velocity": 73,
              "position": 9,
              "duration": 0.010416666666666666
            },
            {
              "pitch": 33,
              "velocity": 95,
              "position": 9,
              "duration": 0.010416666666666666
            },
            {
              "pitch": 42,
              "velocity": 95,
              "position": 9,
              "duration": 0.010416666666666666
            },
            {
              "pitch": 60,
              "velocity": 63,
              "position": 9,
              "duration": 0.010416666666666666
            },
            {
              "pitch": 70,
              "velocity": 87,
              "position": 9,
              "duration": 0.010416666666666666
            },
            {
              "pitch": 80,
              "velocity": 39,
              "position": 9,
              "duration": 0.010416666666666666
            },
            {
              "pitch": 82,
              "velocity": 40,
              "position": 9,
              "duration": 0.010416666666666666
            },
            {
              "pitch": 39,
              "velocity": 100,
              "position": 9.020833333333334,
              "duration": 0.052083333333333336
            },
            {
              "pitch": 42,
              "velocity": 52,
              "position": 9.5,
              "duration": 0.010416666666666666
            },
            {
              "pitch": 70,
              "velocity": 44,
              "position": 9.5,
              "duration": 0.010416666666666666
            },
            {
              "pitch": 81,
              "velocity": 40,
              "position": 9.5,
              "duration": 0.010416666666666666
            },
            {
              "pitch": 82,
              "velocity": 36,
              "position": 9.5,
              "duration": 0.010416666666666666
            },
            {
              "pitch": 33,
              "velocity": 95,
              "position": 10,
              "duration": 0.010416666666666666
            },
            {
              "pitch": 42,
              "velocity": 98,
              "position": 10,
              "duration": 0.010416666666666666
            },
            {
              "pitch": 70,
              "velocity": 90,
              "position": 10,
              "duration": 0.010416666666666666
            },
            {
              "pitch": 80,
              "velocity": 38,
              "position": 10,
              "duration": 0.010416666666666666
            },
            {
              "pitch": 82,
              "velocity": 41,
              "position": 10,
              "duration": 0.010416666666666666
            },
            {
              "pitch": 42,
              "velocity": 54,
              "position": 10.5,
              "duration": 0.010416666666666666
            },
            {
              "pitch": 61,
              "velocity": 43,
              "position": 10.5,
              "duration": 0.010416666666666666
            },
            {
              "pitch": 70,
              "velocity": 46,
              "position": 10.5,
              "duration": 0.010416666666666666
            },
            {
              "pitch": 80,
              "velocity": 40,
              "position": 10.5,
              "duration": 0.010416666666666666
            },
            {
              "pitch": 82,
              "velocity": 51,
              "position": 10.5,
              "duration": 0.010416666666666666
            },
            {
              "pitch": 32,
              "velocity": 73,
              "position": 11,
              "duration": 0.010416666666666666
            },
            {
              "pitch": 33,
              "velocity": 95,
              "position": 11,
              "duration": 0.010416666666666666
            },
            {
              "pitch": 42,
              "velocity": 95,
              "position": 11,
              "duration": 0.010416666666666666
            },
            {
              "pitch": 70,
              "velocity": 87,
              "position": 11,
              "duration": 0.010416666666666666
            },
            {
              "pitch": 81,
              "velocity": 47,
              "position": 11,
              "duration": 0.010416666666666666
            },
            {
              "pitch": 39,
              "velocity": 100,
              "position": 11.020833333333334,
              "duration": 0.052083333333333336
            },
            {
              "pitch": 42,
              "velocity": 53,
              "position": 11.5,
              "duration": 0.010416666666666666
            },
            {
              "pitch": 61,
              "velocity": 44,
              "position": 11.5,
              "duration": 0.010416666666666666
            },
            {
              "pitch": 70,
              "velocity": 44,
              "position": 11.5,
              "duration": 0.010416666666666666
            },
            {
              "pitch": 80,
              "velocity": 43,
              "position": 11.5,
              "duration": 0.010416666666666666
            },
            {
              "pitch": 82,
              "velocity": 47,
              "position": 11.5,
              "duration": 0.010416666666666666
            },
            {
              "pitch": 62,
              "velocity": 61,
              "position": 11.75,
              "duration": 0.010416666666666666
            },
            {
              "pitch": 33,
              "velocity": 95,
              "position": 12,
              "duration": 0.010416666666666666
            },
            {
              "pitch": 42,
              "velocity": 98,
              "position": 12,
              "duration": 0.010416666666666666
            },
            {
              "pitch": 70,
              "velocity": 90,
              "position": 12,
              "duration": 0.010416666666666666
            },
            {
              "pitch": 81,
              "velocity": 37,
              "position": 12,
              "duration": 0.010416666666666666
            },
            {
              "pitch": 82,
              "velocity": 47,
              "position": 12,
              "duration": 0.010416666666666666
            },
            {
              "pitch": 42,
              "velocity": 53,
              "position": 12.5,
              "duration": 0.010416666666666666
            },
            {
              "pitch": 61,
              "velocity": 43,
              "position": 12.5,
              "duration": 0.010416666666666666
            },
            {
              "pitch": 62,
              "velocity": 79,
              "position": 12.5,
              "duration": 0.010416666666666666
            },
            {
              "pitch": 70,
              "velocity": 46,
              "position": 12.5,
              "duration": 0.010416666666666666
            },
            {
              "pitch": 80,
              "velocity": 39,
              "position": 12.5,
              "duration": 0.010416666666666666
            },
            {
              "pitch": 82,
              "velocity": 42,
              "position": 12.5,
              "duration": 0.010416666666666666
            },
            {
              "pitch": 32,
              "velocity": 73,
              "position": 13,
              "duration": 0.010416666666666666
            },
            {
              "pitch": 33,
              "velocity": 95,
              "position": 13,
              "duration": 0.010416666666666666
            },
            {
              "pitch": 42,
              "velocity": 91,
              "position": 13,
              "duration": 0.010416666666666666
            },
            {
              "pitch": 60,
              "velocity": 60,
              "position": 13,
              "duration": 0.010416666666666666
            },
            {
              "pitch": 70,
              "velocity": 87,
              "position": 13,
              "duration": 0.010416666666666666
            },
            {
              "pitch": 80,
              "velocity": 38,
              "position": 13,
              "duration": 0.010416666666666666
            },
            {
              "pitch": 39,
              "velocity": 100,
              "position": 13.020833333333334,
              "duration": 0.052083333333333336
            },
            {
              "pitch": 42,
              "velocity": 51,
              "position": 13.5,
              "duration": 0.010416666666666666
            },
            {
              "pitch": 70,
              "velocity": 44,
              "position": 13.5,
              "duration": 0.010416666666666666
            },
            {
              "pitch": 81,
              "velocity": 41,
              "position": 13.5,
              "duration": 0.010416666666666666
            },
            {
              "pitch": 82,
              "velocity": 46,
              "position": 13.5,
              "duration": 0.010416666666666666
            },
            {
              "pitch": 33,
              "velocity": 95,
              "position": 14,
              "duration": 0.010416666666666666
            },
            {
              "pitch": 42,
              "velocity": 98,
              "position": 14,
              "duration": 0.010416666666666666
            },
            {
              "pitch": 70,
              "velocity": 90,
              "position": 14,
              "duration": 0.010416666666666666
            },
            {
              "pitch": 80,
              "velocity": 34,
              "position": 14,
              "duration": 0.010416666666666666
            },
            {
              "pitch": 82,
              "velocity": 45,
              "position": 14,
              "duration": 0.010416666666666666
            },
            {
              "pitch": 42,
              "velocity": 57,
              "position": 14.5,
              "duration": 0.010416666666666666
            },
            {
              "pitch": 61,
              "velocity": 46,
              "position": 14.5,
              "duration": 0.010416666666666666
            },
            {
              "pitch": 70,
              "velocity": 46,
              "position": 14.5,
              "duration": 0.010416666666666666
            },
            {
              "pitch": 80,
              "velocity": 42,
              "position": 14.5,
              "duration": 0.010416666666666666
            },
            {
              "pitch": 82,
              "velocity": 48,
              "position": 14.5,
              "duration": 0.010416666666666666
            },
            {
              "pitch": 32,
              "velocity": 73,
              "position": 15,
              "duration": 0.010416666666666666
            },
            {
              "pitch": 33,
              "velocity": 95,
              "position": 15,
              "duration": 0.010416666666666666
            },
            {
              "pitch": 42,
              "velocity": 95,
              "position": 15,
              "duration": 0.010416666666666666
            },
            {
              "pitch": 70,
              "velocity": 87,
              "position": 15,
              "duration": 0.010416666666666666
            },
            {
              "pitch": 81,
              "velocity": 47,
              "position": 15,
              "duration": 0.010416666666666666
            },
            {
              "pitch": 82,
              "velocity": 41,
              "position": 15,
              "duration": 0.010416666666666666
            },
            {
              "pitch": 39,
              "velocity": 100,
              "position": 15.020833333333334,
              "duration": 0.052083333333333336
            },
            {
              "pitch": 46,
              "velocity": 93,
              "position": 15.5,
              "duration": 0.010416666666666666
            },
            {
              "pitch": 61,
              "velocity": 44,
              "position": 15.5,
              "duration": 0.010416666666666666
            },
            {
              "pitch": 70,
              "velocity": 44,
              "position": 15.5,
              "duration": 0.010416666666666666
            },
            {
              "pitch": 80,
              "velocity": 40,
              "position": 15.5,
              "duration": 0.010416666666666666
            },
            {
              "pitch": 82,
              "velocity": 43,
              "position": 15.5,
              "duration": 0.010416666666666666
            },
            {
              "pitch": 33,
              "velocity": 95,
              "position": 16,
              "duration": 0.010416666666666666
            },
            {
              "pitch": 42,
              "velocity": 98,
              "position": 16,
              "duration": 0.010416666666666666
            },
            {
              "pitch": 70,
              "velocity": 90,
              "position": 16,
              "duration": 0.010416666666666666
            },
            {
              "pitch": 81,
              "velocity": 42,
              "position": 16,
              "duration": 0.010416666666666666
            },
            {
              "pitch": 82,
              "velocity": 41,
              "position": 16,
              "duration": 0.010416666666666666
            },
            {
              "pitch": 42,
              "velocity": 54,
              "position": 16.5,
              "duration": 0.010416666666666666
            },
            {
              "pitch": 61,
              "velocity": 46,
              "position": 16.5,
              "duration": 0.010416666666666666
            },
            {
              "pitch": 70,
              "velocity": 46,
              "position": 16.5,
              "duration": 0.010416666666666666
            },
            {
              "pitch": 80,
              "velocity": 32,
              "position": 16.5,
              "duration": 0.010416666666666666
            },
            {
              "pitch": 82,
              "velocity": 35,
              "position": 16.5,
              "duration": 0.010416666666666666
            },
            {
              "pitch": 32,
              "velocity": 73,
              "position": 17,
              "duration": 0.010416666666666666
            },
            {
              "pitch": 33,
              "velocity": 95,
              "position": 17,
              "duration": 0.010416666666666666
            },
            {
              "pitch": 42,
              "velocity": 95,
              "position": 17,
              "duration": 0.010416666666666666
            },
            {
              "pitch": 60,
              "velocity": 50,
              "position": 17,
              "duration": 0.010416666666666666
            },
            {
              "pitch": 70,
              "velocity": 87,
              "position": 17,
              "duration": 0.010416666666666666
            },
            {
              "pitch": 80,
              "velocity": 40,
              "position": 17,
              "duration": 0.010416666666666666
            },
            {
              "pitch": 82,
              "velocity": 39,
              "position": 17,
              "duration": 0.010416666666666666
            },
            {
              "pitch": 39,
              "velocity": 100,
              "position": 17.020833333333332,
              "duration": 0.052083333333333336
            },
            {
              "pitch": 42,
              "velocity": 52,
              "position": 17.5,
              "duration": 0.010416666666666666
            },
            {
              "pitch": 70,
              "velocity": 44,
              "position": 17.5,
              "duration": 0.010416666666666666
            },
            {
              "pitch": 81,
              "velocity": 42,
              "position": 17.5,
              "duration": 0.010416666666666666
            },
            {
              "pitch": 82,
              "velocity": 31,
              "position": 17.5,
              "duration": 0.010416666666666666
            },
            {
              "pitch": 33,
              "velocity": 95,
              "position": 18,
              "duration": 0.010416666666666666
            },
            {
              "pitch": 42,
              "velocity": 98,
              "position": 18,
              "duration": 0.010416666666666666
            },
            {
              "pitch": 70,
              "velocity": 90,
              "position": 18,
              "duration": 0.010416666666666666
            },
            {
              "pitch": 80,
              "velocity": 35,
              "position": 18,
              "duration": 0.010416666666666666
            },
            {
              "pitch": 82,
              "velocity": 40,
              "position": 18,
              "duration": 0.010416666666666666
            },
            {
              "pitch": 42,
              "velocity": 54,
              "position": 18.5,
              "duration": 0.010416666666666666
            },
            {
              "pitch": 61,
              "velocity": 46,
              "position": 18.5,
              "duration": 0.010416666666666666
            },
            {
              "pitch": 70,
              "velocity": 46,
              "position": 18.5,
              "duration": 0.010416666666666666
            },
            {
              "pitch": 80,
              "velocity": 42,
              "position": 18.5,
              "duration": 0.010416666666666666
            },
            {
              "pitch": 82,
              "velocity": 38,
              "position": 18.5,
              "duration": 0.010416666666666666
            },
            {
              "pitch": 32,
              "velocity": 73,
              "position": 19,
              "duration": 0.010416666666666666
            },
            {
              "pitch": 33,
              "velocity": 95,
              "position": 19,
              "duration": 0.010416666666666666
            },
            {
              "pitch": 42,
              "velocity": 95,
              "position": 19,
              "duration": 0.010416666666666666
            },
            {
              "pitch": 70,
              "velocity": 87,
              "position": 19,
              "duration": 0.010416666666666666
            },
            {
              "pitch": 81,
              "velocity": 40,
              "position": 19,
              "duration": 0.010416666666666666
            },
            {
              "pitch": 39,
              "velocity": 100,
              "position": 19.020833333333332,
              "duration": 0.052083333333333336
            },
            {
              "pitch": 42,
              "velocity": 53,
              "position": 19.5,
              "duration": 0.010416666666666666
            },
            {
              "pitch": 61,
              "velocity": 43,
              "position": 19.5,
              "duration": 0.010416666666666666
            },
            {
              "pitch": 70,
              "velocity": 44,
              "position": 19.5,
              "duration": 0.010416666666666666
            },
            {
              "pitch": 80,
              "velocity": 46,
              "position": 19.5,
              "duration": 0.010416666666666666
            },
            {
              "pitch": 82,
              "velocity": 46,
              "position": 19.5,
              "duration": 0.010416666666666666
            },
            {
              "pitch": 62,
              "velocity": 58,
              "position": 19.75,
              "duration": 0.010416666666666666
            },
            {
              "pitch": 33,
              "velocity": 95,
              "position": 20,
              "duration": 0.010416666666666666
            },
            {
              "pitch": 42,
              "velocity": 98,
              "position": 20,
              "duration": 0.010416666666666666
            },
            {
              "pitch": 70,
              "velocity": 90,
              "position": 20,
              "duration": 0.010416666666666666
            },
            {
              "pitch": 81,
              "velocity": 57,
              "position": 20,
              "duration": 0.010416666666666666
            },
            {
              "pitch": 82,
              "velocity": 40,
              "position": 20,
              "duration": 0.010416666666666666
            },
            {
              "pitch": 42,
              "velocity": 53,
              "position": 20.5,
              "duration": 0.010416666666666666
            },
            {
              "pitch": 61,
              "velocity": 42,
              "position": 20.5,
              "duration": 0.010416666666666666
            },
            {
              "pitch": 62,
              "velocity": 77,
              "position": 20.5,
              "duration": 0.010416666666666666
            },
            {
              "pitch": 70,
              "velocity": 46,
              "position": 20.5,
              "duration": 0.010416666666666666
            },
            {
              "pitch": 80,
              "velocity": 48,
              "position": 20.5,
              "duration": 0.010416666666666666
            },
            {
              "pitch": 82,
              "velocity": 41,
              "position": 20.5,
              "duration": 0.010416666666666666
            },
            {
              "pitch": 32,
              "velocity": 73,
              "position": 21,
              "duration": 0.010416666666666666
            },
            {
              "pitch": 33,
              "velocity": 95,
              "position": 21,
              "duration": 0.010416666666666666
            },
            {
              "pitch": 42,
              "velocity": 91,
              "position": 21,
              "duration": 0.010416666666666666
            },
            {
              "pitch": 60,
              "velocity": 50,
              "position": 21,
              "duration": 0.010416666666666666
            },
            {
              "pitch": 70,
              "velocity": 87,
              "position": 21,
              "duration": 0.010416666666666666
            },
            {
              "pitch": 80,
              "velocity": 40,
              "position": 21,
              "duration": 0.010416666666666666
            },
            {
              "pitch": 39,
              "velocity": 100,
              "position": 21.020833333333332,
              "duration": 0.052083333333333336
            },
            {
              "pitch": 42,
              "velocity": 51,
              "position": 21.5,
              "duration": 0.010416666666666666
            },
            {
              "pitch": 70,
              "velocity": 44,
              "position": 21.5,
              "duration": 0.010416666666666666
            },
            {
              "pitch": 81,
              "velocity": 48,
              "position": 21.5,
              "duration": 0.010416666666666666
            },
            {
              "pitch": 82,
              "velocity": 35,
              "position": 21.5,
              "duration": 0.010416666666666666
            },
            {
              "pitch": 33,
              "velocity": 95,
              "position": 22,
              "duration": 0.010416666666666666
            },
            {
              "pitch": 42,
              "velocity": 98,
              "position": 22,
              "duration": 0.010416666666666666
            },
            {
              "pitch": 70,
              "velocity": 90,
              "position": 22,
              "duration": 0.010416666666666666
            },
            {
              "pitch": 80,
              "velocity": 35,
              "position": 22,
              "duration": 0.010416666666666666
            },
            {
              "pitch": 82,
              "velocity": 40,
              "position": 22,
              "duration": 0.010416666666666666
            },
            {
              "pitch": 33,
              "velocity": 95,
              "position": 22.5,
              "duration": 0.010416666666666666
            },
            {
              "pitch": 42,
              "velocity": 91,
              "position": 22.5,
              "duration": 0.010416666666666666
            },
            {
              "pitch": 61,
              "velocity": 44,
              "position": 22.5,
              "duration": 0.010416666666666666
            },
            {
              "pitch": 70,
              "velocity": 46,
              "position": 22.5,
              "duration": 0.010416666666666666
            },
            {
              "pitch": 80,
              "velocity": 40,
              "position": 22.5,
              "duration": 0.010416666666666666
            },
            {
              "pitch": 82,
              "velocity": 39,
              "position": 22.5,
              "duration": 0.010416666666666666
            },
            {
              "pitch": 32,
              "velocity": 73,
              "position": 23,
              "duration": 0.010416666666666666
            },
            {
              "pitch": 33,
              "velocity": 95,
              "position": 23,
              "duration": 0.010416666666666666
            },
            {
              "pitch": 42,
              "velocity": 102,
              "position": 23,
              "duration": 0.010416666666666666
            },
            {
              "pitch": 70,
              "velocity": 87,
              "position": 23,
              "duration": 0.010416666666666666
            },
            {
              "pitch": 81,
              "velocity": 36,
              "position": 23,
              "duration": 0.010416666666666666
            },
            {
              "pitch": 82,
              "velocity": 39,
              "position": 23,
              "duration": 0.010416666666666666
            },
            {
              "pitch": 39,
              "velocity": 100,
              "position": 23.020833333333332,
              "duration": 0.052083333333333336
            },
            {
              "pitch": 33,
              "velocity": 95,
              "position": 23.5,
              "duration": 0.010416666666666666
            },
            {
              "pitch": 46,
              "velocity": 93,
              "position": 23.5,
              "duration": 0.010416666666666666
            },
            {
              "pitch": 61,
              "velocity": 29,
              "position": 23.5,
              "duration": 0.010416666666666666
            },
            {
              "pitch": 70,
              "velocity": 44,
              "position": 23.5,
              "duration": 0.010416666666666666
            },
            {
              "pitch": 80,
              "velocity": 41,
              "position": 23.5,
              "duration": 0.010416666666666666
            },
            {
              "pitch": 82,
              "velocity": 39,
              "position": 23.5,
              "duration": 0.010416666666666666
            },
            {
              "pitch": 33,
              "velocity": 95,
              "position": 24,
              "duration": 0.010416666666666666
            },
            {
              "pitch": 42,
              "velocity": 93,
              "position": 24,
              "duration": 0.010416666666666666
            }
          ]
        },
        "10": {
          "ctab": {
            "srcChannel": 10,
            "name": "Bass",
            "accType": "BASS",
            "editable": false,
            "mutedNotes": [],
            "mutedChords": [],
            "autoStart": false,
            "sourceChordNote": 0,
            "sourceChordType": "min",
            "ctb2Low": null,
            "ctb2Main": {
              "ntr": "ROOT_TRANSPOSITION",
              "ntt": "HARMONIC_MINOR",
              "bassOn": false,
              "chordRootUpperLimit": 3,
              "noteLowLimit": 28,
              "noteHighLimit": 127,
              "rtr": "PITCH_SHIFT"
            },
            "ctb2High": null
          },
          "notes": [
            {
              "pitch": 36,
              "velocity": 100,
              "position": 0.5,
              "duration": 0.5
            },
            {
              "pitch": 36,
              "velocity": 100,
              "position": 1.5,
              "duration": 0.5
            },
            {
              "pitch": 36,
              "velocity": 100,
              "position": 2.5,
              "duration": 0.5
            },
            {
              "pitch": 36,
              "velocity": 100,
              "position": 3.5,
              "duration": 0.5
            },
            {
              "pitch": 36,
              "velocity": 100,
              "position": 4.5,
              "duration": 0.5
            },
            {
              "pitch": 36,
              "velocity": 100,
              "position": 5.5,
              "duration": 0.5
            },
            {
              "pitch": 36,
              "velocity": 100,
              "position": 6.5,
              "duration": 0.5
            },
            {
              "pitch": 39,
              "velocity": 100,
              "position": 7.5,
              "duration": 0.5
            },
            {
              "pitch": 31,
              "velocity": 100,
              "position": 8.5,
              "duration": 0.5
            },
            {
              "pitch": 31,
              "velocity": 100,
              "position": 9.5,
              "duration": 0.5
            },
            {
              "pitch": 31,
              "velocity": 100,
              "position": 10.5,
              "duration": 0.5
            },
            {
              "pitch": 31,
              "velocity": 100,
              "position": 11.5,
              "duration": 0.5
            },
            {
              "pitch": 31,
              "velocity": 100,
              "position": 12.5,
              "duration": 0.5
            },
            {
              "pitch": 31,
              "velocity": 100,
              "position": 13.5,
              "duration": 0.5
            },
            {
              "pitch": 31,
              "velocity": 100,
              "position": 14.5,
              "duration": 0.5
            },
            {
              "pitch": 34,
              "velocity": 100,
              "position": 15.5,
              "duration": 0.5
            },
            {
              "pitch": 36,
              "velocity": 100,
              "position": 16.5,
              "duration": 0.5
            },
            {
              "pitch": 36,
              "velocity": 100,
              "position": 17.5,
              "duration": 0.5
            },
            {
              "pitch": 36,
              "velocity": 100,
              "position": 18.5,
              "duration": 0.5
            },
            {
              "pitch": 36,
              "velocity": 100,
              "position": 19.5,
              "duration": 0.5
            },
            {
              "pitch": 36,
              "velocity": 100,
              "position": 20.5,
              "duration": 0.5
            },
            {
              "pitch": 36,
              "velocity": 100,
              "position": 21.5,
              "duration": 0.5
            },
            {
              "pitch": 36,
              "velocity": 100,
              "position": 22.5,
              "duration": 0.5
            },
            {
              "pitch": 39,
              "velocity": 100,
              "position": 23.5,
              "duration": 0.5
            },
            {
              "pitch": 31,
              "velocity": 100,
              "position": 24,
              "duration": 1
            }
          ]
        },
        "11": {
          "ctab": {
            "srcChannel": 11,
            "name": "Organ",
            "accType": "CHORD1",
            "editable": false,
            "mutedNotes": [],
            "mutedChords": [],
            "autoStart": false,
            "sourceChordNote": 0,
            "sourceChordType": "min",
            "ctb2Low": null,
            "ctb2Main": {
              "ntr": "ROOT_TRANSPOSITION",
              "ntt": "HARMONIC_MINOR",
              "bassOn": false,
              "chordRootUpperLimit": 6,
              "noteLowLimit": 0,
              "noteHighLimit": 127,
              "rtr": "PITCH_SHIFT"
            },
            "ctb2High": null
          },
          "notes": [
            {
              "pitch": 60,
              "velocity": 91,
              "position": 0.5,
              "duration": 0.4166666666666667
            },
            {
              "pitch": 67,
              "velocity": 113,
              "position": 0.5,
              "duration": 0.4166666666666667
            },
            {
              "pitch": 60,
              "velocity": 91,
              "position": 1.5,
              "duration": 0.4166666666666667
            },
            {
              "pitch": 67,
              "velocity": 113,
              "position": 1.5,
              "duration": 0.4166666666666667
            },
            {
              "pitch": 60,
              "velocity": 91,
              "position": 2.5,
              "duration": 0.4166666666666667
            },
            {
              "pitch": 67,
              "velocity": 113,
              "position": 2.5,
              "duration": 0.4166666666666667
            },
            {
              "pitch": 60,
              "velocity": 91,
              "position": 3.5,
              "duration": 0.4166666666666667
            },
            {
              "pitch": 67,
              "velocity": 113,
              "position": 3.5,
              "duration": 0.4166666666666667
            },
            {
              "pitch": 60,
              "velocity": 91,
              "position": 4.5,
              "duration": 0.4166666666666667
            },
            {
              "pitch": 67,
              "velocity": 113,
              "position": 4.5,
              "duration": 0.4166666666666667
            },
            {
              "pitch": 60,
              "velocity": 91,
              "position": 5.5,
              "duration": 0.4166666666666667
            },
            {
              "pitch": 67,
              "velocity": 113,
              "position": 5.5,
              "duration": 0.4166666666666667
            },
            {
              "pitch": 60,
              "velocity": 91,
              "position": 6.5,
              "duration": 0.4166666666666667
            },
            {
              "pitch": 67,
              "velocity": 113,
              "position": 6.5,
              "duration": 0.4166666666666667
            },
            {
              "pitch": 63,
              "velocity": 91,
              "position": 7.5,
              "duration": 0.4166666666666667
            },
            {
              "pitch": 70,
              "velocity": 113,
              "position": 7.5,
              "duration": 0.4166666666666667
            },
            {
              "pitch": 55,
              "velocity": 91,
              "position": 8.5,
              "duration": 0.4166666666666667
            },
            {
              "pitch": 62,
              "velocity": 113,
              "position": 8.5,
              "duration": 0.4166666666666667
            },
            {
              "pitch": 55,
              "velocity": 91,
              "position": 9.5,
              "duration": 0.4166666666666667
            },
            {
              "pitch": 62,
              "velocity": 113,
              "position": 9.5,
              "duration": 0.4166666666666667
            },
            {
              "pitch": 55,
              "velocity": 91,
              "position": 10.5,
              "duration": 0.4166666666666667
            },
            {
              "pitch": 62,
              "velocity": 113,
              "position": 10.5,
              "duration": 0.4166666666666667
            },
            {
              "pitch": 55,
              "velocity": 91,
              "position": 11.5,
              "duration": 0.4166666666666667
            },
            {
              "pitch": 62,
              "velocity": 113,
              "position": 11.5,
              "duration": 0.4166666666666667
            },
            {
              "pitch": 55,
              "velocity": 91,
              "position": 12.5,
              "duration": 0.4166666666666667
            },
            {
              "pitch": 62,
              "velocity": 113,
              "position": 12.5,
              "duration": 0.4166666666666667
            },
            {
              "pitch": 55,
              "velocity": 91,
              "position": 13.5,
              "duration": 0.4166666666666667
            },
            {
              "pitch": 62,
              "velocity": 113,
              "position": 13.5,
              "duration": 0.4166666666666667
            },
            {
              "pitch": 55,
              "velocity": 91,
              "position": 14.5,
              "duration": 0.4166666666666667
            },
            {
              "pitch": 62,
              "velocity": 113,
              "position": 14.5,
              "duration": 0.4166666666666667
            },
            {
              "pitch": 58,
              "velocity": 91,
              "position": 15.5,
              "duration": 0.4166666666666667
            },
            {
              "pitch": 65,
              "velocity": 113,
              "position": 15.5,
              "duration": 0.4166666666666667
            },
            {
              "pitch": 60,
              "velocity": 91,
              "position": 16.5,
              "duration": 0.4166666666666667
            },
            {
              "pitch": 67,
              "velocity": 113,
              "position": 16.5,
              "duration": 0.4166666666666667
            },
            {
              "pitch": 60,
              "velocity": 91,
              "position": 17.5,
              "duration": 0.4166666666666667
            },
            {
              "pitch": 67,
              "velocity": 113,
              "position": 17.5,
              "duration": 0.4166666666666667
            },
            {
              "pitch": 60,
              "velocity": 91,
              "position": 18.5,
              "duration": 0.4166666666666667
            },
            {
              "pitch": 67,
              "velocity": 113,
              "position": 18.5,
              "duration": 0.4166666666666667
            },
            {
              "pitch": 60,
              "velocity": 91,
              "position": 19.5,
              "duration": 0.4166666666666667
            },
            {
              "pitch": 67,
              "velocity": 113,
              "position": 19.5,
              "duration": 0.4166666666666667
            },
            {
              "pitch": 60,
              "velocity": 112,
              "position": 20.5,
              "duration": 0.4166666666666667
            },
            {
              "pitch": 67,
              "velocity": 93,
              "position": 20.5,
              "duration": 0.4166666666666667
            },
            {
              "pitch": 60,
              "velocity": 112,
              "position": 21.5,
              "duration": 0.4166666666666667
            },
            {
              "pitch": 67,
              "velocity": 93,
              "position": 21.5,
              "duration": 0.4166666666666667
            },
            {
              "pitch": 60,
              "velocity": 112,
              "position": 22.5,
              "duration": 0.4166666666666667
            },
            {
              "pitch": 67,
              "velocity": 93,
              "position": 22.5,
              "duration": 0.4166666666666667
            },
            {
              "pitch": 63,
              "velocity": 112,
              "position": 23.5,
              "duration": 0.4166666666666667
            },
            {
              "pitch": 70,
              "velocity": 93,
              "position": 23.5,
              "duration": 0.4166666666666667
            }
          ]
        },
        "12": {
          "ctab": {
            "srcChannel": 12,
            "name": "Metal",
            "accType": "CHORD2",
            "editable": false,
            "mutedNotes": [],
            "mutedChords": [],
            "autoStart": false,
            "sourceChordNote": 0,
            "sourceChordType": "min",
            "ctb2Low": null,
            "ctb2Main": {
              "ntr": "ROOT_TRANSPOSITION",
              "ntt": "HARMONIC_MINOR",
              "bassOn": false,
              "chordRootUpperLimit": 6,
              "noteLowLimit": 0,
              "noteHighLimit": 127,
              "rtr": "PITCH_SHIFT"
            },
            "ctb2High": null
          },
          "notes": [
            {
              "pitch": 63,
              "velocity": 106,
              "position": 0,
              "duration": 0.25
            },
            {
              "pitch": 58,
              "velocity": 106,
              "position": 0.5,
              "duration": 0.25
            },
            {
              "pitch": 60,
              "velocity": 106,
              "position": 1,
              "duration": 0.25
            },
            {
              "pitch": 62,
              "velocity": 106,
              "position": 1.25,
              "duration": 0.25
            },
            {
              "pitch": 63,
              "velocity": 103,
              "position": 1.5,
              "duration": 0.25
            },
            {
              "pitch": 63,
              "velocity": 106,
              "position": 2,
              "duration": 0.25
            },
            {
              "pitch": 63,
              "velocity": 93,
              "position": 2.5,
              "duration": 0.25
            },
            {
              "pitch": 63,
              "velocity": 80,
              "position": 3,
              "duration": 0.25
            },
            {
              "pitch": 63,
              "velocity": 62,
              "position": 3.5,
              "duration": 0.25
            },
            {
              "pitch": 63,
              "velocity": 60,
              "position": 4,
              "duration": 0.25
            },
            {
              "pitch": 63,
              "velocity": 42,
              "position": 4.5,
              "duration": 0.25
            },
            {
              "pitch": 67,
              "velocity": 106,
              "position": 8,
              "duration": 0.25
            },
            {
              "pitch": 62,
              "velocity": 106,
              "position": 8.5,
              "duration": 0.25
            },
            {
              "pitch": 65,
              "velocity": 106,
              "position": 8.75,
              "duration": 0.25
            },
            {
              "pitch": 67,
              "velocity": 106,
              "position": 9,
              "duration": 0.25
            },
            {
              "pitch": 55,
              "velocity": 106,
              "position": 9.5,
              "duration": 0.25
            },
            {
              "pitch": 55,
              "velocity": 106,
              "position": 10,
              "duration": 0.25
            },
            {
              "pitch": 55,
              "velocity": 106,
              "position": 10.5,
              "duration": 0.25
            },
            {
              "pitch": 55,
              "velocity": 95,
              "position": 11,
              "duration": 0.25
            },
            {
              "pitch": 55,
              "velocity": 77,
              "position": 11.5,
              "duration": 0.25
            },
            {
              "pitch": 55,
              "velocity": 75,
              "position": 12,
              "duration": 0.25
            },
            {
              "pitch": 55,
              "velocity": 57,
              "position": 12.5,
              "duration": 0.25
            },
            {
              "pitch": 63,
              "velocity": 106,
              "position": 16,
              "duration": 0.25
            },
            {
              "pitch": 58,
              "velocity": 106,
              "position": 16.5,
              "duration": 0.25
            },
            {
              "pitch": 60,
              "velocity": 106,
              "position": 17,
              "duration": 0.25
            },
            {
              "pitch": 62,
              "velocity": 106,
              "position": 17.25,
              "duration": 0.25
            },
            {
              "pitch": 63,
              "velocity": 103,
              "position": 17.5,
              "duration": 0.25
            },
            {
              "pitch": 63,
              "velocity": 106,
              "position": 18,
              "duration": 0.25
            },
            {
              "pitch": 63,
              "velocity": 93,
              "position": 18.5,
              "duration": 0.25
            },
            {
              "pitch": 63,
              "velocity": 80,
              "position": 19,
              "duration": 0.25
            },
            {
              "pitch": 63,
              "velocity": 62,
              "position": 19.5,
              "duration": 0.25
            },
            {
              "pitch": 63,
              "velocity": 60,
              "position": 20,
              "duration": 0.25
            },
            {
              "pitch": 63,
              "velocity": 42,
              "position": 20.5,
              "duration": 0.25
            },
            {
              "pitch": 67,
              "velocity": 91,
              "position": 24,
              "duration": 0.25
            },
            {
              "pitch": 62,
              "velocity": 91,
              "position": 24.5,
              "duration": 0.25
            },
            {
              "pitch": 65,
              "velocity": 91,
              "position": 24.75,
              "duration": 0.25
            },
            {
              "pitch": 67,
              "velocity": 91,
              "position": 25,
              "duration": 0.25
            },
            {
              "pitch": 62,
              "velocity": 48,
              "position": 25.5,
              "duration": 0.25
            },
            {
              "pitch": 65,
              "velocity": 42,
              "position": 25.75,
              "duration": 0.25
            },
            {
              "pitch": 67,
              "velocity": 34,
              "position": 26,
              "duration": 0.25
            },
            {
              "pitch": 62,
              "velocity": 35,
              "position": 26.5,
              "duration": 0.25
            },
            {
              "pitch": 65,
              "velocity": 28,
              "position": 26.75,
              "duration": 0.25
            },
            {
              "pitch": 67,
              "velocity": 22,
              "position": 27,
              "duration": 0.25
            },
            {
              "pitch": 62,
              "velocity": 8,
              "position": 27.5,
              "duration": 0.25
            }
          ]
        },
        "13": {
          "ctab": {
            "srcChannel": 13,
            "name": "SySeq",
            "accType": "PAD",
            "editable": false,
            "mutedNotes": [],
            "mutedChords": [],
            "autoStart": false,
            "sourceChordNote": 0,
            "sourceChordType": "min",
            "ctb2Low": null,
            "ctb2Main": {
              "ntr": "ROOT_TRANSPOSITION",
              "ntt": "HARMONIC_MINOR",
              "bassOn": false,
              "chordRootUpperLimit": 8,
              "noteLowLimit": 0,
              "noteHighLimit": 127,
              "rtr": "PITCH_SHIFT"
            },
            "ctb2High": null
          },
          "notes": [
            {
              "pitch": 55,
              "velocity": 70,
              "position": 0,
              "duration": 7.989583333333333
            },
            {
              "pitch": 60,
              "velocity": 71,
              "position": 0,
              "duration": 7.989583333333333
            },
            {
              "pitch": 63,
              "velocity": 70,
              "position": 0,
              "duration": 7.989583333333333
            },
            {
              "pitch": 67,
              "velocity": 77,
              "position": 0,
              "duration": 7.989583333333333
            },
            {
              "pitch": 55,
              "velocity": 65,
              "position": 8,
              "duration": 7.989583333333333
            },
            {
              "pitch": 58,
              "velocity": 64,
              "position": 8,
              "duration": 7.989583333333333
            },
            {
              "pitch": 62,
              "velocity": 70,
              "position": 8,
              "duration": 7.989583333333333
            },
            {
              "pitch": 65,
              "velocity": 69,
              "position": 8,
              "duration": 7.989583333333333
            },
            {
              "pitch": 69,
              "velocity": 65,
              "position": 8,
              "duration": 7.989583333333333
            },
            {
              "pitch": 67,
              "velocity": 77,
              "position": 16,
              "duration": 3.9895833333333335
            },
            {
              "pitch": 70,
              "velocity": 77,
              "position": 20,
              "duration": 1.9895833333333333
            },
            {
              "pitch": 55,
              "velocity": 70,
              "position": 16,
              "duration": 7.989583333333333
            },
            {
              "pitch": 60,
              "velocity": 71,
              "position": 16,
              "duration": 7.989583333333333
            },
            {
              "pitch": 63,
              "velocity": 70,
              "position": 16,
              "duration": 7.989583333333333
            },
            {
              "pitch": 72,
              "velocity": 77,
              "position": 22,
              "duration": 1.9895833333333333
            },
            {
              "pitch": 55,
              "velocity": 65,
              "position": 24,
              "duration": 0.625
            },
            {
              "pitch": 58,
              "velocity": 64,
              "position": 24,
              "duration": 0.625
            },
            {
              "pitch": 62,
              "velocity": 70,
              "position": 24,
              "duration": 0.625
            },
            {
              "pitch": 74,
              "velocity": 70,
              "position": 24,
              "duration": 0.625
            }
          ]
        },
        "14": {
          "ctab": {
            "srcChannel": 14,
            "name": "Ep",
            "accType": "PHRASE1",
            "editable": false,
            "mutedNotes": [],
            "mutedChords": [],
            "autoStart": false,
            "sourceChordNote": 0,
            "sourceChordType": "min",
            "ctb2Low": null,
            "ctb2Main": {
              "ntr": "ROOT_TRANSPOSITION",
              "ntt": "HARMONIC_MINOR",
              "bassOn": false,
              "chordRootUpperLimit": 5,
              "noteLowLimit": 0,
              "noteHighLimit": 127,
              "rtr": "PITCH_SHIFT"
            },
            "ctb2High": null
          },
          "notes": [
            {
              "pitch": 63,
              "velocity": 104,
              "position": 1.5,
              "duration": 3.9791666666666665
            },
            {
              "pitch": 67,
              "velocity": 105,
              "position": 2,
              "duration": 3.7395833333333335
            },
            {
              "pitch": 60,
              "velocity": 105,
              "position": 1,
              "duration": 5.354166666666667
            },
            {
              "pitch": 63,
              "velocity": 107,
              "position": 5.5,
              "duration": 0.9895833333333334
            },
            {
              "pitch": 60,
              "velocity": 113,
              "position": 6.5,
              "duration": 0.4895833333333333
            },
            {
              "pitch": 55,
              "velocity": 104,
              "position": 0,
              "duration": 7.864583333333333
            },
            {
              "pitch": 60,
              "velocity": 99,
              "position": 7.5,
              "duration": 0.5208333333333334
            },
            {
              "pitch": 69,
              "velocity": 99,
              "position": 10,
              "duration": 3.4270833333333335
            },
            {
              "pitch": 65,
              "velocity": 103,
              "position": 9.5,
              "duration": 3.9583333333333335
            },
            {
              "pitch": 62,
              "velocity": 104,
              "position": 9,
              "duration": 4.9375
            },
            {
              "pitch": 65,
              "velocity": 107,
              "position": 13.5,
              "duration": 0.9895833333333334
            },
            {
              "pitch": 62,
              "velocity": 102,
              "position": 14.5,
              "duration": 0.4895833333333333
            },
            {
              "pitch": 55,
              "velocity": 99,
              "position": 8,
              "duration": 7.916666666666667
            },
            {
              "pitch": 62,
              "velocity": 104,
              "position": 15.5,
              "duration": 0.4583333333333333
            },
            {
              "pitch": 67,
              "velocity": 105,
              "position": 18,
              "duration": 3.2395833333333335
            },
            {
              "pitch": 63,
              "velocity": 104,
              "position": 17.5,
              "duration": 3.9791666666666665
            },
            {
              "pitch": 60,
              "velocity": 105,
              "position": 17,
              "duration": 5.354166666666667
            },
            {
              "pitch": 63,
              "velocity": 107,
              "position": 21.5,
              "duration": 0.9895833333333334
            },
            {
              "pitch": 60,
              "velocity": 113,
              "position": 22.5,
              "duration": 0.4895833333333333
            },
            {
              "pitch": 55,
              "velocity": 104,
              "position": 16,
              "duration": 7.864583333333333
            },
            {
              "pitch": 60,
              "velocity": 99,
              "position": 23.5,
              "duration": 0.4895833333333333
            },
            {
              "pitch": 55,
              "velocity": 99,
              "position": 24,
              "duration": 0.625
            },
            {
              "pitch": 62,
              "velocity": 104,
              "position": 24,
              "duration": 0.625
            }
          ]
        },
        "15": {
          "ctab": {
            "srcChannel": 15,
            "name": "Saw",
            "accType": "PHRASE2",
            "editable": false,
            "mutedNotes": [],
            "mutedChords": [],
            "autoStart": false,
            "sourceChordNote": 0,
            "sourceChordType": "min",
            "ctb2Low": null,
            "ctb2Main": {
              "ntr": "ROOT_TRANSPOSITION",
              "ntt": "HARMONIC_MINOR",
              "bassOn": false,
              "chordRootUpperLimit": 4,
              "noteLowLimit": 0,
              "noteHighLimit": 127,
              "rtr": "PITCH_SHIFT"
            },
            "ctb2High": null
          },
          "notes": [
            {
              "pitch": 67,
              "velocity": 84,
              "position": 0,
              "duration": 0.4895833333333333
            },
            {
              "pitch": 67,
              "velocity": 64,
              "position": 0.5,
              "duration": 0.3541666666666667
            },
            {
              "pitch": 67,
              "velocity": 63,
              "position": 1.5,
              "duration": 0.4375
            },
            {
              "pitch": 67,
              "velocity": 84,
              "position": 2,
              "duration": 0.4895833333333333
            },
            {
              "pitch": 67,
              "velocity": 64,
              "position": 2.5,
              "duration": 0.3541666666666667
            },
            {
              "pitch": 67,
              "velocity": 63,
              "position": 3.5,
              "duration": 0.4375
            },
            {
              "pitch": 67,
              "velocity": 85,
              "position": 4,
              "duration": 0.4895833333333333
            },
            {
              "pitch": 67,
              "velocity": 64,
              "position": 4.5,
              "duration": 0.3541666666666667
            },
            {
              "pitch": 67,
              "velocity": 63,
              "position": 5.5,
              "duration": 0.4375
            },
            {
              "pitch": 67,
              "velocity": 85,
              "position": 6,
              "duration": 0.4895833333333333
            },
            {
              "pitch": 67,
              "velocity": 64,
              "position": 6.5,
              "duration": 0.3541666666666667
            },
            {
              "pitch": 67,
              "velocity": 63,
              "position": 7.5,
              "duration": 0.4375
            },
            {
              "pitch": 67,
              "velocity": 84,
              "position": 8,
              "duration": 0.4895833333333333
            },
            {
              "pitch": 67,
              "velocity": 64,
              "position": 8.5,
              "duration": 0.3541666666666667
            },
            {
              "pitch": 67,
              "velocity": 63,
              "position": 9.5,
              "duration": 0.4375
            },
            {
              "pitch": 67,
              "velocity": 84,
              "position": 10,
              "duration": 0.4895833333333333
            },
            {
              "pitch": 67,
              "velocity": 64,
              "position": 10.5,
              "duration": 0.3541666666666667
            },
            {
              "pitch": 67,
              "velocity": 63,
              "position": 11.5,
              "duration": 0.4375
            },
            {
              "pitch": 67,
              "velocity": 85,
              "position": 12,
              "duration": 0.4895833333333333
            },
            {
              "pitch": 67,
              "velocity": 64,
              "position": 12.5,
              "duration": 0.3541666666666667
            },
            {
              "pitch": 67,
              "velocity": 63,
              "position": 13.5,
              "duration": 0.4375
            },
            {
              "pitch": 67,
              "velocity": 85,
              "position": 14,
              "duration": 0.4895833333333333
            },
            {
              "pitch": 67,
              "velocity": 64,
              "position": 14.5,
              "duration": 0.3541666666666667
            },
            {
              "pitch": 67,
              "velocity": 63,
              "position": 15.5,
              "duration": 0.4375
            },
            {
              "pitch": 67,
              "velocity": 84,
              "position": 16,
              "duration": 0.4895833333333333
            },
            {
              "pitch": 67,
              "velocity": 64,
              "position": 16.5,
              "duration": 0.3541666666666667
            },
            {
              "pitch": 67,
              "velocity": 63,
              "position": 17.5,
              "duration": 0.4375
            },
            {
              "pitch": 67,
              "velocity": 84,
              "position": 18,
              "duration": 0.4895833333333333
            },
            {
              "pitch": 67,
              "velocity": 64,
              "position": 18.5,
              "duration": 0.3541666666666667
            },
            {
              "pitch": 67,
              "velocity": 63,
              "position": 19.5,
              "duration": 0.4375
            },
            {
              "pitch": 67,
              "velocity": 85,
              "position": 20,
              "duration": 0.4895833333333333
            },
            {
              "pitch": 67,
              "velocity": 64,
              "position": 20.5,
              "duration": 0.3541666666666667
            },
            {
              "pitch": 67,
              "velocity": 63,
              "position": 21.5,
              "duration": 0.4375
            },
            {
              "pitch": 67,
              "velocity": 85,
              "position": 22,
              "duration": 0.4895833333333333
            },
            {
              "pitch": 67,
              "velocity": 64,
              "position": 22.5,
              "duration": 0.3541666666666667
            },
            {
              "pitch": 67,
              "velocity": 63,
              "position": 23.5,
              "duration": 0.4375
            },
            {
              "pitch": 67,
              "velocity": 84,
              "position": 24,
              "duration": 0.4895833333333333
            }
          ]
        }
      }
    }
  }
}