{
  "name": "80'sDance.S305.prs",
  "tempo": 120,
  "timeSignature": "4/4",
  "ticksPerQuarter": 1920,
  "sffType": "SFF1",
  "division": "BINARY",
  "parts": {
    "Main_A": {
      "type": "Main_A",
      "sizeInBeats": 8,
      "channels": {
        "1": {
          "ctab": {
            "srcChannel": 1,
            "name": "88NAgALL",
            "accType": "PAD",
            "editable": false,
            "mutedNotes": [],
            "mutedChords": [],
            "autoStart": false,
            "sourceChordNote": 0,
            "sourceChordType": "min7(11)",
            "ctb2Low": null,
            "ctb2Main": {
              "ntr": "ROOT_FIXED",
              "ntt": "CHORD",
              "bassOn": false,
              "chordRootUpperLimit": 6,
              "noteLowLimit": 62,
              "noteHighLimit": 127,
              "rtr": "PITCH_SHIFT"
            },
            "ctb2High": null
          },
          "notes": [
            {
              "pitch": 63,
              "velocity": 46,
              "position": 0,
              "duration": 7.989583333333333
            },
            {
              "pitch": 65,
              "velocity": 46,
              "position": 0,
              "duration": 7.989583333333333
            },
            {
              "pitch": 70,
              "velocity": 46,
              "position": 0,
              "duration": 7.989583333333333
            }
          ]
        },
        "2": {
          "ctab": {
            "srcChannel": 2,
            "name": "88NAg4Vc",
            "accType": "PAD",
            "editable": false,
            "mutedNotes": [],
            "mutedChords": [
              "1+2+5",
              "sus4",
              "1+5",
              "1+8",
              "Maj7aug",
              "dim",
              "minMaj7(9)",
              "minMaj7",
              "min6",
              "min",
              "aug",
              "Maj7(9)",
              "Maj7#11",
              "Maj7",
              "Maj6",
              "Maj"
            ],
            "autoStart": false,
            "sourceChordNote": 0,
            "sourceChordType": "Maj7",
            "ctb2Low": null,
            "ctb2Main": {
              "ntr": "ROOT_TRANSPOSITION",
              "ntt": "CHORD",
              "bassOn": false,
              "chordRootUpperLimit": 2,
              "noteLowLimit": 0,
              "noteHighLimit": 127,
              "rtr": "PITCH_SHIFT"
            },
            "ctb2High": null
          },
          "notes": [
            {
              "pitch": 72,
              "velocity": 46,
              "position": 0,
              "duration": 7.989583333333333
            }
          ]
        },
        "3": {
          "ctab": {
            "srcChannel": 3,
            "name": "Brite100",
            "accType": "PHRASE2",
            "editable": false,
            "mutedNotes": [],
            "mutedChords": [],
            "autoStart": false,
            "sourceChordNote": 0,
            "sourceChordType": "min7(11)",
            "ctb2Low": null,
            "ctb2Main": {
              "ntr": "ROOT_FIXED",
              "ntt": "CHORD",
              "bassOn": false,
              "chordRootUpperLimit": 8,
              "noteLowLimit": 0,
              "noteHighLimit": 127,
              "rtr": "PITCH_SHIFT"
            },
            "ctb2High": null
          },
          "notes": []
        },
        "7": {
          "ctab": {
            "srcChannel": 7,
            "name": "CC_Crash",
            "accType": "SUBRHYTHM",
            "editable": false,
            "mutedNotes": [],
            "mutedChords": [
              "1+2+5",
              "sus4",
              "1+5",
              "1+8",
              "7aug",
              "Maj7aug",
              "7(#9)",
              "7(b13)",
              "7(b9)",
              "7(13)",
              "7#11",
              "7(9)",
              "7b5",
              "7sus4",
              "7th",
              "dim7",
              "dim",
              "minMaj7(9)",
              "minMaj7",
              "min7(11)",
              "min7(9)",
              "min(9)",
              "m7b5",
              "min7",
              "min6",
              "min",
              "aug",
              "Maj6(9)",
              "Maj7(9)",
              "Maj(9)",
              "Maj7#11",
              "Maj7",
              "Maj6",
              "Maj"
            ],
            "autoStart": true,
            "sourceChordNote": 0,
            "sourceChordType": "Maj",
            "ctb2Low": null,
            "ctb2Main": {
              "ntr": "ROOT_FIXED",
              "ntt": "BYPASS",
              "bassOn": false,
              "chordRootUpperLimit": 0,
              "noteLowLimit": 0,
              "noteHighLimit": 127,
              "rtr": "RETRIGGER"
            },
            "ctb2High": null
          },
          "notes": []
        },
        "8": {
          "ctab": {
            "srcChannel": 8,
            "name": "Perc",
            "accType": "SUBRHYTHM",
            "editable": false,
            "mutedNotes": [],
            "mutedChords": [],
            "autoStart": true,
            "sourceChordNote": 0,
            "sourceChordType": "Maj7",
            "ctb2Low": null,
            "ctb2Main": {
              "ntr": "ROOT_FIXED",
              "ntt": "BYPASS",
              "bassOn": false,
              "chordRootUpperLimit": 6,
              "noteLowLimit": 0,
              "noteHighLimit": 127,
              "rtr": "PITCH_SHIFT"
            },
            "ctb2High": null
          },
          "notes": [
            {
              "pitch": 70,
              "velocity": 36,
              "position": 0.0020833333333333333,
              "duration": 0.07916666666666666
            },
            {
              "pitch": 70,
              "velocity": 24,
              "position": 0.5,
              "duration": 0.08333333333333333
            },
            {
              "pitch": 82,
              "velocity": 70,
              "position": 1,
              "duration": 0.08333333333333333
            },
            {
              "pitch": 70,
              "velocity": 24,
              "position": 1.5,
              "duration": 0.08333333333333333
            },
            {
              "pitch": 70,
              "velocity": 36,
              "position": 2,
              "duration": 0.08333333333333333
            },
            {
              "pitch": 70,
              "velocity": 27,
              "position": 2.5,
              "duration": 0.08333333333333333
            },
            {
              "pitch": 82,
              "velocity": 70,
              "position": 3,
              "duration": 0.08333333333333333
            },
            {
              "pitch": 70,
              "velocity": 10,
              "position": 3.5,
              "duration": 0.08333333333333333
            },
            {
              "pitch": 70,
              "velocity": 36,
              "position": 4,
              "duration": 0.08333333333333333
            },
            {
              "pitch": 70,
              "velocity": 21,
              "position": 4.5,
              "duration": 0.08333333333333333
            },
            {
              "pitch": 82,
              "velocity": 70,
              "position": 5,
              "duration": 0.08333333333333333
            },
            {
              "pitch": 70,
              "velocity": 5,
              "position": 5.5,
              "duration": 0.08333333333333333
            },
            {
              "pitch": 70,
              "velocity": 37,
              "position": 6,
              "duration": 0.08333333333333333
            },
            {
              "pitch": 70,
              "velocity": 15,
              "position": 6.5,
              "duration": 0.08333333333333333
            },
            {
              "pitch": 82,
              "velocity": 70,
              "position": 7,
              "duration": 0.08333333333333333
            },
            {
              "pitch": 70,
              "velocity": 15,
              "position": 7.5,
              "duration": 0.08333333333333333
            }
          ]
        },
        "9": {
          "ctab": {
            "srcChannel": 9,
            "name": "MainDrum",
            "accType": "RHYTHM",
            "editable": false,
            "mutedNotes": [],
            "mutedChords": [],
            "autoStart": true,
            "sourceChordNote": 0,
            "sourceChordType": "Maj7",
            "ctb2Low": null,
            "ctb2Main": {
              "ntr": "ROOT_FIXED",
              "ntt": "BYPASS",
              "bassOn": false,
              "chordRootUpperLimit": 6,
              "noteLowLimit": 0,
              "noteHighLimit": 127,
              "rtr": "PITCH_SHIFT"
            },
            "ctb2High": null
          },
          "notes": [
            {
              "pitch": 33,
              "velocity": 79,
              "position": 0.0020833333333333333,
              "duration": 0.041666666666666664
            },
            {
              "pitch": 42,
              "velocity": 48,
              "position": 0.5,
              "duration": 0.052083333333333336
            },
            {
              "pitch": 25,
              "velocity": 116,
              "position": 1,
              "duration": 0.010416666666666666
            },
            {
              "pitch": 33,
              "velocity": 79,
              "position": 1,
              "duration": 0.041666666666666664
            },
            {
              "pitch": 42,
              "velocity": 49,
              "position": 1.5,
              "duration": 0.052083333333333336
            },
            {
              "pitch": 33,
              "velocity": 79,
              "position": 2,
              "duration": 0.041666666666666664
            },
            {
              "pitch": 42,
              "velocity": 54,
              "position": 2.5,
              "duration": 0.052083333333333336
            },
            {
              "pitch": 25,
              "velocity": 116,
              "position": 3,
              "duration": 0.010416666666666666
            },
            {
              "pitch": 33,
              "velocity": 79,
              "position": 3,
              "duration": 0.041666666666666664
            },
            {
              "pitch": 42,
              "velocity": 53,
              "position": 3.5,
              "duration": 0.052083333333333336
            },
            {
              "pitch": 33,
              "velocity": 79,
              "position": 4,
              "duration": 0.041666666666666664
            },
            {
              "pitch": 42,
              "velocity": 53,
              "position": 4.5,
              "duration": 0.052083333333333336
            },
            {
              "pitch": 25,
              "velocity": 116,
              "position": 5,
              "duration": 0.010416666666666666
            },
            {
              "pitch": 33,
              "velocity": 79,
              "position": 5,
              "duration": 0.041666666666666664
            },
            {
              "pitch": 42,
              "velocity": 53,
              "position": 5.5,
              "duration": 0.052083333333333336
            },
            {
              "pitch": 33,
              "velocity": 79,
              "position": 6,
              "duration": 0.041666666666666664
            },
            {
              "pitch": 42,
              "velocity": 49,
              "position": 6.5,
              "duration": 0.052083333333333336
            },
            {
              "pitch": 25,
              "velocity": 116,
              "position": 7,
              "duration": 0.010416666666666666
            },
            {
              "pitch": 33,
              "velocity": 79,
              "position": 7,
              "duration": 0.041666666666666664
            },
            {
              "pitch": 42,
              "velocity": 52,
              "position": 7.5,
              "duration": 0.020833333333333332
            }
          ]
        },
        "11": {
          "ctab": {
            "srcChannel": 11,
            "name": "Bassmaj",
            "accType": "BASS",
            "editable": false,
            "mutedNotes": [],
            "mutedChords": [],
            "autoStart": false,
            "sourceChordNote": 0,
            "sourceChordType": "Maj7",
            "ctb2Low": null,
            "ctb2Main": {
              "ntr": "ROOT_TRANSPOSITION",
              "ntt": "MELODY",
              "bassOn": true,
              "chordRootUpperLimit": 11,
              "noteLowLimit": 28,
              "noteHighLimit": 127,
              "rtr": "PITCH_SHIFT_TO_ROOT"
            },
            "ctb2High": null
          },
          "notes": [
            {
              "pitch": 24,
              "velocity": 90,
              "position": 0,
              "duration": 0.75
            },
            {
              "pitch": 24,
              "velocity": 90,
              "position": 0.7916666666666666,
              "duration": 0.21875
            },
            {
              "pitch": 35,
              "velocity": 86,
              "position": 2.5,
              "duration": 0.20833333333333334
            },
            {
              "pitch": 31,
              "velocity": 86,
              "position": 3.5,
              "duration": 0.23125
            },
            {
              "pitch": 24,
              "velocity": 90,
              "position": 4,
              "duration": 0.75
            },
            {
              "pitch": 24,
              "velocity": 90,
              "position": 4.791666666666667,
              "duration": 0.21875
            },
            {
              "pitch": 35,
              "velocity": 86,
              "position": 6,
              "duration": 0.9583333333333334
            },
            {
              "pitch": 31,
              "velocity": 83,
              "position": 7,
              "duration": 0.9583333333333334
            }
          ]
        },
        "12": {
          "ctab": {
            "srcChannel": 12,
            "name": "Piano00",
            "accType": "CHORD1",
            "editable": false,
            "mutedNotes": [],
            "mutedChords": [],
            "autoStart": false,
            "sourceChordNote": 0,
            "sourceChordType": "min7(11)",
            "ctb2Low": null,
            "ctb2Main": {
              "ntr": "ROOT_FIXED",
              "ntt": "CHORD",
              "bassOn": false,
              "chordRootUpperLimit": 7,
              "noteLowLimit": 50,
              "noteHighLimit": 127,
              "rtr": "PITCH_SHIFT"
            },
            "ctb2High": null
          },
          "notes": [
            {
              "pitch": 53,
              "velocity": 59,
              "position": 0.0020833333333333333,
              "duration": 0.7458333333333333
            },
            {
              "pitch": 58,
              "velocity": 59,
              "position": 0.0020833333333333333,
              "duration": 0.7458333333333333
            },
            {
              "pitch": 63,
              "velocity": 59,
              "position": 0.0020833333333333333,
              "duration": 0.7458333333333333
            },
            {
              "pitch": 53,
              "velocity": 59,
              "position": 0.7916666666666666,
              "duration": 0.16666666666666666
            },
            {
              "pitch": 58,
              "velocity": 59,
              "position": 0.7916666666666666,
              "duration": 0.16666666666666666
            },
            {
              "pitch": 63,
              "velocity": 59,
              "position": 0.7916666666666666,
              "duration": 0.16666666666666666
            },
            {
              "pitch": 53,
              "velocity": 59,
              "position": 4,
              "duration": 0.75
            },
            {
              "pitch": 58,
              "velocity": 59,
              "position": 4,
              "duration": 0.75
            },
            {
              "pitch": 63,
              "velocity": 59,
              "position": 4,
              "duration": 0.75
            },
            {
              "pitch": 53,
              "velocity": 59,
              "position": 4.791666666666667,
              "duration": 0.16666666666666666
            },
            {
              "pitch": 58,
              "velocity": 59,
              "position": 4.791666666666667,
              "duration": 0.16666666666666666
            },
            {
              "pitch": 63,
              "velocity": 59,
              "position": 4.791666666666667,
              "duration": 0.16666666666666666
            },
            {
              "pitch": 53,
              "velocity": 59,
              "position": 5.5,
              "duration": 0.6666666666666666
            },
            {
              "pitch": 58,
              "velocity": 59,
              "position": 5.5,
              "duration": 0.6666666666666666
            },
            {
              "pitch": 63,
              "velocity": 59,
              "position": 5.5,
              "duration": 0.6666666666666666
            }
          ]
        },
        "13": {
          "ctab": {
            "srcChannel": 13,
            "name": "Piano00",
            "accType": "CHORD1",
            "editable": true,
            "mutedNotes": [],
            "mutedChords": [
              "1+2+5",
              "sus4",
              "1+5",
              "1+8",
              "Maj7aug",
              "dim",
              "minMaj7(9)",
              "minMaj7",
              "min6",
              "min",
              "aug",
              "Maj7(9)",
              "Maj7#11",
              "Maj7",
              "Maj6",
              "Maj"
            ],
            "autoStart": false,
            "sourceChordNote": 0,
            "sourceChordType": "min7(11)",
            "ctb2Low": null,
            "ctb2Main": {
              "ntr": "ROOT_TRANSPOSITION",
              "ntt": "CHORD",
              "bassOn": false,
              "chordRootUpperLimit": 6,
              "noteLowLimit": 0,
              "noteHighLimit": 74,
              "rtr": "PITCH_SHIFT"
            },
            "ctb2High": null
          },
          "notes": [
            {
              "pitch": 60,
              "velocity": 59,
              "position": 0.0020833333333333333,
              "duration": 0.7458333333333333
            },
            {
              "pitch": 60,
              "velocity": 59,
              "position": 0.7916666666666666,
              "duration": 0.16666666666666666
            },
            {
              "pitch": 60,
              "velocity": 59,
              "position": 4,
              "duration": 0.75
            },
            {
              "pitch": 60,
              "velocity": 59,
              "position": 4.791666666666667,
              "duration": 0.16666666666666666
            },
            {
              "pitch": 60,
              "velocity": 59,
              "position": 5.5,
              "duration": 0.6666666666666666
            }
          ]
        },
        "14": {
          "ctab": {
            "srcChannel": 14,
            "name": "MGt28",
            "accType": "PHRASE1",
            "editable": false,
            "mutedNotes": [],
            "mutedChords": [],
            "autoStart": false,
            "sourceChordNote": 0,
            "sourceChordType": "min7",
            "ctb2Low": null,
            "ctb2Main": {
              "ntr": "ROOT_TRANSPOSITION",
              "ntt": "CHORD",
              "bassOn": false,
              "chordRootUpperLimit": 11,
              "noteLowLimit": 0,
              "noteHighLimit": 67,
              "rtr": "PITCH_SHIFT"
            },
            "ctb2High": null
          },
          "notes": [
            {
              "pitch": 48,
              "velocity": 107,
              "position": 0.5,
              "duration": 0.25
            },
            {
              "pitch": 48,
              "velocity": 95,
              "position": 0.7916666666666666,
              "duration": 0.4791666666666667
            },
            {
              "pitch": 48,
              "velocity": 96,
              "position": 1.2916666666666667,
              "duration": 0.16666666666666666
            },
            {
              "pitch": 43,
              "velocity": 107,
              "position": 1.5,
              "duration": 0.20833333333333334
            },
            {
              "pitch": 46,
              "velocity": 107,
              "position": 2,
              "duration": 0.20833333333333334
            },
            {
              "pitch": 46,
              "velocity": 107,
              "position": 3,
              "duration": 0.4791666666666667
            },
            {
              "pitch": 43,
              "velocity": 107,
              "position": 3.5,
              "duration": 0.20833333333333334
            },
            {
              "pitch": 48,
              "velocity": 107,
              "position": 4.5,
              "duration": 0.25
            },
            {
              "pitch": 48,
              "velocity": 95,
              "position": 4.791666666666667,
              "duration": 0.46875
            },
            {
              "pitch": 48,
              "velocity": 96,
              "position": 5.291666666666667,
              "duration": 0.16666666666666666
            },
            {
              "pitch": 43,
              "velocity": 107,
              "position": 5.5,
              "duration": 0.20833333333333334
            },
            {
              "pitch": 46,
              "velocity": 107,
              "position": 6,
              "duration": 0.20833333333333334
            },
            {
              "pitch": 48,
              "velocity": 107,
              "position": 6.5,
              "duration": 0.20833333333333334
            },
            {
              "pitch": 46,
              "velocity": 107,
              "position": 7,
              "duration": 0.475
            }
          ]
        }
      }
    },
    "Main_B": {
      "type": "Main_B",
      "sizeInBeats": 8,
      "channels": {
        "1": {
          "ctab": {
            "srcChannel": 1,
            "name": "88NAgALL",
            "accType": "PAD",
            "editable": false,
            "mutedNotes": [],
            "mutedChords": [],
            "autoStart": false,
            "sourceChordNote": 0,
            "sourceChordType": "min7(11)",
            "ctb2Low": null,
            "ctb2Main": {
              "ntr": "ROOT_FIXED",
              "ntt": "CHORD",
              "bassOn": false,
              "chordRootUpperLimit": 6,
              "noteLowLimit": 62,
              "noteHighLimit": 127,
              "rtr": "PITCH_SHIFT"
            },
            "ctb2High": null
          },
          "notes": [
            {
              "pitch": 63,
              "velocity": 50,
              "position": 0,
              "duration": 7.989583333333333
            },
            {
              "pitch": 65,
              "velocity": 50,
              "position": 0,
              "duration": 7.989583333333333
            },
            {
              "pitch": 70,
              "velocity": 50,
              "position": 0,
              "duration": 7.989583333333333
            }
          ]
        },
        "2": {
          "ctab": {
            "srcChannel": 2,
            "name": "88NAg4Vc",
            "accType": "PAD",
            "editable": false,
            "mutedNotes": [],
            "mutedChords": [
              "1+2+5",
              "sus4",
              "1+5",
              "1+8",
              "Maj7aug",
              "dim",
              "minMaj7(9)",
              "minMaj7",
              "min6",
              "min",
              "aug",
              "Maj7(9)",
              "Maj7#11",
              "Maj7",
              "Maj6",
              "Maj"
            ],
            "autoStart": false,
            "sourceChordNote": 0,
            "sourceChordType": "Maj7",
            "ctb2Low": null,
            "ctb2Main": {
              "ntr": "ROOT_TRANSPOSITION",
              "ntt": "CHORD",
              "bassOn": false,
              "chordRootUpperLimit": 2,
              "noteLowLimit": 0,
              "noteHighLimit": 127,
              "rtr": "PITCH_SHIFT"
            },
            "ctb2High": null
          },
          "notes": [
            {
              "pitch": 72,
              "velocity": 50,
              "position": 0,
              "duration": 7.989583333333333
            }
          ]
        },
        "3": {
          "ctab": {
            "srcChannel": 3,
            "name": "Brite100",
            "accType": "PHRASE2",
            "editable": false,
            "mutedNotes": [],
            "mutedChords": [],
            "autoStart": false,
            "sourceChordNote": 0,
            "sourceChordType": "min7(11)",
            "ctb2Low": null,
            "ctb2Main": {
              "ntr": "ROOT_FIXED",
              "ntt": "CHORD",
              "bassOn": false,
              "chordRootUpperLimit": 8,
              "noteLowLimit": 0,
              "noteHighLimit": 127,
              "rtr": "PITCH_SHIFT"
            },
            "ctb2High": null
          },
          "notes": []
        },
        "7": {
          "ctab": {
            "srcChannel": 7,
            "name": "CC_Crash",
            "accType": "SUBRHYTHM",
            "editable": false,
            "mutedNotes": [],
            "mutedChords": [
              "1+2+5",
              "sus4",
              "1+5",
              "1+8",
              "7aug",
              "Maj7aug",
              "7(#9)",
              "7(b13)",
              "7(b9)",
              "7(13)",
              "7#11",
              "7(9)",
              "7b5",
              "7sus4",
              "7th",
              "dim7",
              "dim",
              "minMaj7(9)",
              "minMaj7",
              "min7(11)",
              "min7(9)",
              "min(9)",
              "m7b5",
              "min7",
              "min6",
              "min",
              "aug",
              "Maj6(9)",
              "Maj7(9)",
              "Maj(9)",
              "Maj7#11",
              "Maj7",
              "Maj6",
              "Maj"
            ],
            "autoStart": true,
            "sourceChordNote": 0,
            "sourceChordType": "Maj",
            "ctb2Low": null,
            "ctb2Main": {
              "ntr": "ROOT_FIXED",
              "ntt": "BYPASS",
              "bassOn": false,
              "chordRootUpperLimit": 0,
              "noteLowLimit": 0,
              "noteHighLimit": 127,
              "rtr": "RETRIGGER"
            },
            "ctb2High": null
          },
          "notes": []
        },
        "8": {
          "ctab": {
            "srcChannel": 8,
            "name": "Perc",
            "accType": "SUBRHYTHM",
            "editable": false,
            "mutedNotes": [],
            "mutedChords": [],
            "autoStart": true,
            "sourceChordNote": 0,
            "sourceChordType": "Maj7",
            "ctb2Low": null,
            "ctb2Main": {
              "ntr": "ROOT_FIXED",
              "ntt": "BYPASS",
              "bassOn": false,
              "chordRootUpperLimit": 6,
              "noteLowLimit": 0,
              "noteHighLimit": 127,
              "rtr": "PITCH_SHIFT"
            },
            "ctb2High": null
          },
          "notes": [
            {
              "pitch": 70,
              "velocity": 37,
              "position": 0,
              "duration": 0.08333333333333333
            },
            {
              "pitch": 70,
              "velocity": 30,
              "position": 0.5,
              "duration": 0.08333333333333333
            },
            {
              "pitch": 54,
              "velocity": 70,
              "position": 1,
              "duration": 0.08333333333333333
            },
            {
              "pitch": 82,
              "velocity": 68,
              "position": 1,
              "duration": 0.08333333333333333
            },
            {
              "pitch": 70,
              "velocity": 28,
              "position": 1.5,
              "duration": 0.08333333333333333
            },
            {
              "pitch": 70,
              "velocity": 24,
              "position": 1.7916666666666667,
              "duration": 0.08333333333333333
            },
            {
              "pitch": 70,
              "velocity": 37,
              "position": 2,
              "duration": 0.08333333333333333
            },
            {
              "pitch": 70,
              "velocity": 33,
              "position": 2.5,
              "duration": 0.08333333333333333
            },
            {
              "pitch": 54,
              "velocity": 70,
              "position": 3,
              "duration": 0.08333333333333333
            },
            {
              "pitch": 82,
              "velocity": 68,
              "position": 3,
              "duration": 0.08333333333333333
            },
            {
              "pitch": 70,
              "velocity": 16,
              "position": 3.5,
              "duration": 0.08333333333333333
            },
            {
              "pitch": 70,
              "velocity": 37,
              "position": 4,
              "duration": 0.08333333333333333
            },
            {
              "pitch": 70,
              "velocity": 27,
              "position": 4.5,
              "duration": 0.08333333333333333
            },
            {
              "pitch": 54,
              "velocity": 70,
              "position": 5,
              "duration": 0.08333333333333333
            },
            {
              "pitch": 82,
              "velocity": 68,
              "position": 5,
              "duration": 0.08333333333333333
            },
            {
              "pitch": 70,
              "velocity": 7,
              "position": 5.5,
              "duration": 0.08333333333333333
            },
            {
              "pitch": 70,
              "velocity": 31,
              "position": 5.791666666666667,
              "duration": 0.08333333333333333
            },
            {
              "pitch": 70,
              "velocity": 37,
              "position": 6,
              "duration": 0.08333333333333333
            },
            {
              "pitch": 82,
              "velocity": 46,
              "position": 6.302083333333333,
              "duration": 0.08333333333333333
            },
            {
              "pitch": 70,
              "velocity": 21,
              "position": 6.5,
              "duration": 0.08333333333333333
            },
            {
              "pitch": 54,
              "velocity": 70,
              "position": 7,
              "duration": 0.08333333333333333
            },
            {
              "pitch": 82,
              "velocity": 68,
              "position": 7,
              "duration": 0.08333333333333333
            },
            {
              "pitch": 70,
              "velocity": 21,
              "position": 7.5,
              "duration": 0.08333333333333333
            }
          ]
        },
        "9": {
          "ctab": {
            "srcChannel": 9,
            "name": "MainDrum",
            "accType": "RHYTHM",
            "editable": false,
            "mutedNotes": [],
            "mutedChords": [],
            "autoStart": true,
            "sourceChordNote": 0,
            "sourceChordType": "Maj7",
            "ctb2Low": null,
            "ctb2Main": {
              "ntr": "ROOT_FIXED",
              "ntt": "BYPASS",
              "bassOn": false,
              "chordRootUpperLimit": 6,
              "noteLowLimit": 0,
              "noteHighLimit": 127,
              "rtr": "PITCH_SHIFT"
            },
            "ctb2High": null
          },
          "notes": [
            {
              "pitch": 33,
              "velocity": 79,
              "position": 0,
              "duration": 0.041666666666666664
            },
            {
              "pitch": 42,
              "velocity": 26,
              "position": 0,
              "duration": 0.052083333333333336
            },
            {
              "pitch": 42,
              "velocity": 74,
              "position": 0.5,
              "duration": 0.052083333333333336
            },
            {
              "pitch": 25,
              "velocity": 116,
              "position": 1,
              "duration": 0.010416666666666666
            },
            {
              "pitch": 33,
              "velocity": 79,
              "position": 1,
              "duration": 0.041666666666666664
            },
            {
              "pitch": 42,
              "velocity": 27,
              "position": 1,
              "duration": 0.052083333333333336
            },
            {
              "pitch": 42,
              "velocity": 74,
              "position": 1.5,
              "duration": 0.052083333333333336
            },
            {
              "pitch": 33,
              "velocity": 79,
              "position": 2,
              "duration": 0.041666666666666664
            },
            {
              "pitch": 42,
              "velocity": 28,
              "position": 2,
              "duration": 0.052083333333333336
            },
            {
              "pitch": 42,
              "velocity": 74,
              "position": 2.5,
              "duration": 0.052083333333333336
            },
            {
              "pitch": 25,
              "velocity": 116,
              "position": 3,
              "duration": 0.010416666666666666
            },
            {
              "pitch": 33,
              "velocity": 79,
              "position": 3,
              "duration": 0.041666666666666664
            },
            {
              "pitch": 42,
              "velocity": 33,
              "position": 3,
              "duration": 0.052083333333333336
            },
            {
              "pitch": 42,
              "velocity": 74,
              "position": 3.5,
              "duration": 0.052083333333333336
            },
            {
              "pitch": 33,
              "velocity": 79,
              "position": 4,
              "duration": 0.041666666666666664
            },
            {
              "pitch": 42,
              "velocity": 32,
              "position": 4,
              "duration": 0.052083333333333336
            },
            {
              "pitch": 42,
              "velocity": 74,
              "position": 4.5,
              "duration": 0.052083333333333336
            },
            {
              "pitch": 25,
              "velocity": 116,
              "position": 5,
              "duration": 0.010416666666666666
            },
            {
              "pitch": 33,
              "velocity": 79,
              "position": 5,
              "duration": 0.041666666666666664
            },
            {
              "pitch": 42,
              "velocity": 32,
              "position": 5,
              "duration": 0.052083333333333336
            },
            {
              "pitch": 42,
              "velocity": 74,
              "position": 5.5,
              "duration": 0.052083333333333336
            },
            {
              "pitch": 25,
              "velocity": 111,
              "position": 5.791666666666667,
              "duration": 0.010416666666666666
            },
            {
              "pitch": 33,
              "velocity": 79,
              "position": 6,
              "duration": 0.041666666666666664
            },
            {
              "pitch": 42,
              "velocity": 32,
              "position": 6,
              "duration": 0.052083333333333336
            },
            {
              "pitch": 42,
              "velocity": 74,
              "position": 6.5,
              "duration": 0.052083333333333336
            },
            {
              "pitch": 25,
              "velocity": 116,
              "position": 7,
              "duration": 0.010416666666666666
            },
            {
              "pitch": 33,
              "velocity": 79,
              "position": 7,
              "duration": 0.041666666666666664
            },
            {
              "pitch": 42,
              "velocity": 28,
              "position": 7,
              "duration": 0.052083333333333336
            },
            {
              "pitch": 46,
              "velocity": 54,
              "position": 7.5,
              "duration": 0.020833333333333332
            }
          ]
        },
        "11": {
          "ctab": {
            "srcChannel": 11,
            "name": "Bassmaj",
            "accType": "BASS",
            "editable": false,
            "mutedNotes": [],
            "mutedChords": [],
            "autoStart": false,
            "sourceChordNote": 0,
            "sourceChordType": "Maj7",
            "ctb2Low": null,
            "ctb2Main": {
              "ntr": "ROOT_TRANSPOSITION",
              "ntt": "MELODY",
              "bassOn": true,
              "chordRootUpperLimit": 11,
              "noteLowLimit": 28,
              "noteHighLimit": 127,
              "rtr": "PITCH_SHIFT_TO_ROOT"
            },
            "ctb2High": null
          },
          "notes": [
            {
              "pitch": 24,
              "velocity": 90,
              "position": 0,
              "duration": 0.78125
            },
            {
              "pitch": 24,
              "velocity": 90,
              "position": 0.7916666666666666,
              "duration": 0.21875
            },
            {
              "pitch": 35,
              "velocity": 86,
              "position": 1.5,
              "duration": 0.4895833333333333
            },
            {
              "pitch": 36,
              "velocity": 82,
              "position": 2,
              "duration": 0.3416666666666667
            },
            {
              "pitch": 24,
              "velocity": 90,
              "position": 4,
              "duration": 0.78125
            },
            {
              "pitch": 24,
              "velocity": 90,
              "position": 4.791666666666667,
              "duration": 0.21875
            },
            {
              "pitch": 35,
              "velocity": 86,
              "position": 5.5,
              "duration": 0.4895833333333333
            },
            {
              "pitch": 36,
              "velocity": 82,
              "position": 6,
              "duration": 0.20833333333333334
            },
            {
              "pitch": 35,
              "velocity": 65,
              "position": 6.5,
              "duration": 0.20833333333333334
            },
            {
              "pitch": 36,
              "velocity": 82,
              "position": 7,
              "duration": 0.3416666666666667
            }
          ]
        },
        "12": {
          "ctab": {
            "srcChannel": 12,
            "name": "Piano00",
            "accType": "CHORD1",
            "editable": false,
            "mutedNotes": [],
            "mutedChords": [],
            "autoStart": false,
            "sourceChordNote": 0,
            "sourceChordType": "min7(11)",
            "ctb2Low": null,
            "ctb2Main": {
              "ntr": "ROOT_FIXED",
              "ntt": "CHORD",
              "bassOn": false,
              "chordRootUpperLimit": 7,
              "noteLowLimit": 50,
              "noteHighLimit": 127,
              "rtr": "PITCH_SHIFT"
            },
            "ctb2High": null
          },
          "notes": [
            {
              "pitch": 53,
              "velocity": 59,
              "position": 0.5,
              "duration": 0.20833333333333334
            },
            {
              "pitch": 58,
              "velocity": 59,
              "position": 0.5,
              "duration": 0.20833333333333334
            },
            {
              "pitch": 63,
              "velocity": 59,
              "position": 0.5,
              "duration": 0.20833333333333334
            },
            {
              "pitch": 53,
              "velocity": 59,
              "position": 1.5,
              "duration": 2.4583333333333335
            },
            {
              "pitch": 58,
              "velocity": 59,
              "position": 1.5,
              "duration": 2.4583333333333335
            },
            {
              "pitch": 63,
              "velocity": 59,
              "position": 1.5,
              "duration": 2.4583333333333335
            },
            {
              "pitch": 53,
              "velocity": 59,
              "position": 4.5,
              "duration": 0.20833333333333334
            },
            {
              "pitch": 58,
              "velocity": 59,
              "position": 4.5,
              "duration": 0.20833333333333334
            },
            {
              "pitch": 63,
              "velocity": 59,
              "position": 4.5,
              "duration": 0.20833333333333334
            },
            {
              "pitch": 53,
              "velocity": 59,
              "position": 5.5,
              "duration": 0.9375
            },
            {
              "pitch": 58,
              "velocity": 59,
              "position": 5.5,
              "duration": 0.9375
            },
            {
              "pitch": 63,
              "velocity": 59,
              "position": 5.5,
              "duration": 0.9375
            },
            {
              "pitch": 53,
              "velocity": 59,
              "position": 6.5,
              "duration": 0.25
            },
            {
              "pitch": 58,
              "velocity": 59,
              "position": 6.5,
              "duration": 0.25
            },
            {
              "pitch": 63,
              "velocity": 59,
              "position": 6.5,
              "duration": 0.25
            }
          ]
        },
        "13": {
          "ctab": {
            "srcChannel": 13,
            "name": "Piano00",
            "accType": "CHORD1",
            "editable": true,
            "mutedNotes": [],
            "mutedChords": [
              "1+2+5",
              "sus4",
              "1+5",
              "1+8",
              "Maj7aug",
              "dim",
              "minMaj7(9)",
              "minMaj7",
              "min6",
              "min",
              "aug",
              "Maj7(9)",
              "Maj7#11",
              "Maj7",
              "Maj6",
              "Maj"
            ],
            "autoStart": false,
            "sourceChordNote": 0,
            "sourceChordType": "min7(11)",
            "ctb2Low": null,
            "ctb2Main": {
              "ntr": "ROOT_TRANSPOSITION",
              "ntt": "CHORD",
              "bassOn": false,
              "chordRootUpperLimit": 6,
              "noteLowLimit": 0,
              "noteHighLimit": 74,
              "rtr": "PITCH_SHIFT"
            },
            "ctb2High": null
          },
          "notes": [
            {
              "pitch": 60,
              "velocity": 59,
              "position": 0.5,
              "duration": 0.20833333333333334
            },
            {
              "pitch": 60,
              "velocity": 59,
              "position": 1.5,
              "duration": 2.4583333333333335
            },
            {
              "pitch": 60,
              "velocity": 59,
              "position": 4.5,
              "duration": 0.20833333333333334
            },
            {
              "pitch": 60,
              "velocity": 59,
              "position": 5.5,
              "duration": 0.9375
            },
            {
              "pitch": 60,
              "velocity": 59,
              "position": 6.5,
              "duration": 0.25
            }
          ]
        },
        "14": {
          "ctab": {
            "srcChannel": 14,
            "name": "MGt28",
            "accType": "PHRASE1",
            "editable": false,
            "mutedNotes": [],
            "mutedChords": [],
            "autoStart": false,
            "sourceChordNote": 0,
            "sourceChordType": "min7",
            "ctb2Low": null,
            "ctb2Main": {
              "ntr": "ROOT_TRANSPOSITION",
              "ntt": "CHORD",
              "bassOn": false,
              "chordRootUpperLimit": 11,
              "noteLowLimit": 0,
              "noteHighLimit": 67,
              "rtr": "PITCH_SHIFT"
            },
            "ctb2High": null
          },
          "notes": [
            {
              "pitch": 55,
              "velocity": 84,
              "position": 0,
              "duration": 0.20833333333333334
            },
            {
              "pitch": 60,
              "velocity": 96,
              "position": 0,
              "duration": 0.20833333333333334
            },
            {
              "pitch": 48,
              "velocity": 92,
              "position": 0.5,
              "duration": 0.25
            },
            {
              "pitch": 55,
              "velocity": 80,
              "position": 0.5,
              "duration": 0.25
            },
            {
              "pitch": 58,
              "velocity": 91,
              "position": 1,
              "duration": 0.25
            },
            {
              "pitch": 60,
              "velocity": 84,
              "position": 1.2916666666666667,
              "duration": 0.10416666666666667
            },
            {
              "pitch": 48,
              "velocity": 96,
              "position": 1.5,
              "duration": 0.20833333333333334
            },
            {
              "pitch": 55,
              "velocity": 84,
              "position": 1.5,
              "duration": 0.20833333333333334
            },
            {
              "pitch": 48,
              "velocity": 86,
              "position": 2.5,
              "duration": 0.20833333333333334
            },
            {
              "pitch": 51,
              "velocity": 96,
              "position": 3,
              "duration": 0.4583333333333333
            },
            {
              "pitch": 58,
              "velocity": 96,
              "position": 3,
              "duration": 0.4583333333333333
            },
            {
              "pitch": 48,
              "velocity": 86,
              "position": 3.5,
              "duration": 0.20833333333333334
            },
            {
              "pitch": 55,
              "velocity": 84,
              "position": 4,
              "duration": 0.4583333333333333
            },
            {
              "pitch": 60,
              "velocity": 96,
              "position": 4,
              "duration": 0.4583333333333333
            },
            {
              "pitch": 48,
              "velocity": 96,
              "position": 4.5,
              "duration": 0.25
            },
            {
              "pitch": 55,
              "velocity": 84,
              "position": 4.5,
              "duration": 0.25
            },
            {
              "pitch": 55,
              "velocity": 64,
              "position": 4.791666666666667,
              "duration": 0.16666666666666666
            },
            {
              "pitch": 58,
              "velocity": 96,
              "position": 5,
              "duration": 0.25
            },
            {
              "pitch": 60,
              "velocity": 86,
              "position": 5.291666666666667,
              "duration": 0.16666666666666666
            },
            {
              "pitch": 51,
              "velocity": 96,
              "position": 5.5,
              "duration": 0.20833333333333334
            },
            {
              "pitch": 58,
              "velocity": 96,
              "position": 5.5,
              "duration": 0.20833333333333334
            },
            {
              "pitch": 48,
              "velocity": 82,
              "position": 5.791666666666667,
              "duration": 0.16666666666666666
            },
            {
              "pitch": 48,
              "velocity": 96,
              "position": 6.5,
              "duration": 0.20833333333333334
            },
            {
              "pitch": 51,
              "velocity": 96,
              "position": 7,
              "duration": 0.4583333333333333
            },
            {
              "pitch": 58,
              "velocity": 96,
              "position": 7,
              "duration": 0.4583333333333333
            },
            {
              "pitch": 55,
              "velocity": 84,
              "position": 7.5,
              "duration": 0.20833333333333334
            }
          ]
        }
      }
    },
    "Fill_In_AA": {
      "type": "Fill_In_AA",
      "sizeInBeats": 4,
      "channels": {
        "1": {
          "ctab": {
            "srcChannel": 1,
            "name": "88NAgALL",
            "accType": "PAD",
            "editable": false,
            "mutedNotes": [],
            "mutedChords": [],
            "autoStart": false,
            "sourceChordNote": 0,
            "sourceChordType": "min7(11)",
            "ctb2Low": null,
            "ctb2Main": {
              "ntr": "ROOT_FIXED",
              "ntt": "CHORD",
              "bassOn": false,
              "chordRootUpperLimit": 6,
              "noteLowLimit": 62,
              "noteHighLimit": 127,
              "rtr": "PITCH_SHIFT"
            },
            "ctb2High": null
          },
          "notes": [
            {
              "pitch": 63,
              "velocity": 46,
              "position": 0,
              "duration": 3.9895833333333335
            },
            {
              "pitch": 65,
              "velocity": 46,
              "position": 0,
              "duration": 3.9895833333333335
            },
            {
              "pitch": 70,
              "velocity": 46,
              "position": 0,
              "duration": 3.9895833333333335
            }
          ]
        },
        "2": {
          "ctab": {
            "srcChannel": 2,
            "name": "88NAg4Vc",
            "accType": "PAD",
            "editable": false,
            "mutedNotes": [],
            "mutedChords": [
              "1+2+5",
              "sus4",
              "1+5",
              "1+8",
              "Maj7aug",
              "dim",
              "minMaj7(9)",
              "minMaj7",
              "min6",
              "min",
              "aug",
              "Maj7(9)",
              "Maj7#11",
              "Maj7",
              "Maj6",
              "Maj"
            ],
            "autoStart": false,
            "sourceChordNote": 0,
            "sourceChordType": "Maj7",
            "ctb2Low": null,
            "ctb2Main": {
              "ntr": "ROOT_TRANSPOSITION",
              "ntt": "CHORD",
              "bassOn": false,
              "chordRootUpperLimit": 2,
              "noteLowLimit": 0,
              "noteHighLimit": 127,
              "rtr": "PITCH_SHIFT"
            },
            "ctb2High": null
          },
          "notes": [
            {
              "pitch": 72,
              "velocity": 46,
              "position": 0,
              "duration": 3.9895833333333335
            }
          ]
        },
        "3": {
          "ctab": {
            "srcChannel": 3,
            "name": "Brite100",
            "accType": "PHRASE2",
            "editable": false,
            "mutedNotes": [],
            "mutedChords": [],
            "autoStart": false,
            "sourceChordNote": 0,
            "sourceChordType": "min7(11)",
            "ctb2Low": null,
            "ctb2Main": {
              "ntr": "ROOT_FIXED",
              "ntt": "CHORD",
              "bassOn": false,
              "chordRootUpperLimit": 8,
              "noteLowLimit": 0,
              "noteHighLimit": 127,
              "rtr": "PITCH_SHIFT"
            },
            "ctb2High": null
          },
          "notes": []
        },
        "7": {
          "ctab": {
            "srcChannel": 7,
            "name": "CC_Crash",
            "accType": "SUBRHYTHM",
            "editable": false,
            "mutedNotes": [],
            "mutedChords": [
              "1+2+5",
              "sus4",
              "1+5",
              "1+8",
              "7aug",
              "Maj7aug",
              "7(#9)",
              "7(b13)",
              "7(b9)",
              "7(13)",
              "7#11",
              "7(9)",
              "7b5",
              "7sus4",
              "7th",
              "dim7",
              "dim",
              "minMaj7(9)",
              "minMaj7",
              "min7(11)",
              "min7(9)",
              "min(9)",
              "m7b5",
              "min7",
              "min6",
              "min",
              "aug",
              "Maj6(9)",
              "Maj7(9)",
              "Maj(9)",
              "Maj7#11",
              "Maj7",
              "Maj6",
              "Maj"
            ],
            "autoStart": true,
            "sourceChordNote": 0,
            "sourceChordType": "Maj",
            "ctb2Low": null,
            "ctb2Main": {
              "ntr": "ROOT_FIXED",
              "ntt": "BYPASS",
              "bassOn": false,
              "chordRootUpperLimit": 0,
              "noteLowLimit": 0,
              "noteHighLimit": 127,
              "rtr": "RETRIGGER"
            },
            "ctb2High": null
          },
          "notes": []
        },
        "8": {
          "ctab": {
            "srcChannel": 8,
            "name": "Perc",
            "accType": "SUBRHYTHM",
            "editable": false,
            "mutedNotes": [],
            "mutedChords": [],
            "autoStart": true,
            "sourceChordNote": 0,
            "sourceChordType": "Maj7",
            "ctb2Low": null,
            "ctb2Main": {
              "ntr": "ROOT_FIXED",
              "ntt": "BYPASS",
              "bassOn": false,
              "chordRootUpperLimit": 6,
              "noteLowLimit": 0,
              "noteHighLimit": 127,
              "rtr": "PITCH_SHIFT"
            },
            "ctb2High": null
          },
          "notes": [
            {
              "pitch": 70,
              "velocity": 37,
              "position": 0,
              "duration": 0.08333333333333333
            },
            {
              "pitch": 70,
              "velocity": 21,
              "position": 0.5,
              "duration": 0.08333333333333333
            },
            {
              "pitch": 70,
              "velocity": 21,
              "position": 0.7916666666666666,
              "duration": 0.08333333333333333
            },
            {
              "pitch": 82,
              "velocity": 68,
              "position": 1,
              "duration": 0.08333333333333333
            },
            {
              "pitch": 70,
              "velocity": 5,
              "position": 1.5,
              "duration": 0.08333333333333333
            },
            {
              "pitch": 70,
              "velocity": 21,
              "position": 1.7916666666666667,
              "duration": 0.08333333333333333
            },
            {
              "pitch": 70,
              "velocity": 37,
              "position": 2,
              "duration": 0.08333333333333333
            },
            {
              "pitch": 70,
              "velocity": 15,
              "position": 2.5,
              "duration": 0.08333333333333333
            },
            {
              "pitch": 70,
              "velocity": 21,
              "position": 2.7916666666666665,
              "duration": 0.08333333333333333
            },
            {
              "pitch": 82,
              "velocity": 68,
              "position": 3,
              "duration": 0.08333333333333333
            },
            {
              "pitch": 70,
              "velocity": 15,
              "position": 3.5,
              "duration": 0.08333333333333333
            },
            {
              "pitch": 70,
              "velocity": 21,
              "position": 3.7916666666666665,
              "duration": 0.08333333333333333
            }
          ]
        },
        "9": {
          "ctab": {
            "srcChannel": 9,
            "name": "MainDrum",
            "accType": "RHYTHM",
            "editable": false,
            "mutedNotes": [],
            "mutedChords": [],
            "autoStart": true,
            "sourceChordNote": 0,
            "sourceChordType": "Maj7",
            "ctb2Low": null,
            "ctb2Main": {
              "ntr": "ROOT_FIXED",
              "ntt": "BYPASS",
              "bassOn": false,
              "chordRootUpperLimit": 6,
              "noteLowLimit": 0,
              "noteHighLimit": 127,
              "rtr": "PITCH_SHIFT"
            },
            "ctb2High": null
          },
          "notes": [
            {
              "pitch": 33,
              "velocity": 79,
              "position": 0,
              "duration": 0.041666666666666664
            },
            {
              "pitch": 42,
              "velocity": 36,
              "position": 0.2916666666666667,
              "duration": 0.052083333333333336
            },
            {
              "pitch": 25,
              "velocity": 116,
              "position": 0.48333333333333334,
              "duration": 0.010416666666666666
            },
            {
              "pitch": 25,
              "velocity": 116,
              "position": 1,
              "duration": 0.010416666666666666
            },
            {
              "pitch": 33,
              "velocity": 79,
              "position": 1,
              "duration": 0.041666666666666664
            },
            {
              "pitch": 42,
              "velocity": 89,
              "position": 1.2916666666666667,
              "duration": 0.052083333333333336
            },
            {
              "pitch": 46,
              "velocity": 54,
              "position": 1.5,
              "duration": 0.052083333333333336
            },
            {
              "pitch": 25,
              "velocity": 108,
              "position": 1.7333333333333334,
              "duration": 0.010416666666666666
            },
            {
              "pitch": 33,
              "velocity": 79,
              "position": 2,
              "duration": 0.041666666666666664
            },
            {
              "pitch": 42,
              "velocity": 32,
              "position": 2,
              "duration": 0.052083333333333336
            },
            {
              "pitch": 46,
              "velocity": 54,
              "position": 2.5,
              "duration": 0.020833333333333332
            },
            {
              "pitch": 39,
              "velocity": 76,
              "position": 2.5,
              "duration": 0.07291666666666667
            },
            {
              "pitch": 42,
              "velocity": 35,
              "position": 3,
              "duration": 0.020833333333333332
            },
            {
              "pitch": 33,
              "velocity": 79,
              "position": 3,
              "duration": 0.041666666666666664
            },
            {
              "pitch": 39,
              "velocity": 76,
              "position": 3,
              "duration": 0.07291666666666667
            },
            {
              "pitch": 46,
              "velocity": 54,
              "position": 3.5,
              "duration": 0.020833333333333332
            }
          ]
        },
        "11": {
          "ctab": {
            "srcChannel": 11,
            "name": "Bassmaj",
            "accType": "BASS",
            "editable": false,
            "mutedNotes": [],
            "mutedChords": [],
            "autoStart": false,
            "sourceChordNote": 0,
            "sourceChordType": "Maj7",
            "ctb2Low": null,
            "ctb2Main": {
              "ntr": "ROOT_TRANSPOSITION",
              "ntt": "MELODY",
              "bassOn": true,
              "chordRootUpperLimit": 11,
              "noteLowLimit": 28,
              "noteHighLimit": 127,
              "rtr": "PITCH_SHIFT_TO_ROOT"
            },
            "ctb2High": null
          },
          "notes": [
            {
              "pitch": 24,
              "velocity": 90,
              "position": 0,
              "duration": 0.9791666666666666
            },
            {
              "pitch": 35,
              "velocity": 90,
              "position": 1,
              "duration": 0.4895833333333333
            },
            {
              "pitch": 31,
              "velocity": 86,
              "position": 2.5,
              "duration": 0.5
            },
            {
              "pitch": 28,
              "velocity": 86,
              "position": 3.5,
              "duration": 0.4583333333333333
            }
          ]
        },
        "12": {
          "ctab": {
            "srcChannel": 12,
            "name": "Piano00",
            "accType": "CHORD1",
            "editable": false,
            "mutedNotes": [],
            "mutedChords": [],
            "autoStart": false,
            "sourceChordNote": 0,
            "sourceChordType": "min7(11)",
            "ctb2Low": null,
            "ctb2Main": {
              "ntr": "ROOT_FIXED",
              "ntt": "CHORD",
              "bassOn": false,
              "chordRootUpperLimit": 7,
              "noteLowLimit": 50,
              "noteHighLimit": 127,
              "rtr": "PITCH_SHIFT"
            },
            "ctb2High": null
          },
          "notes": [
            {
              "pitch": 53,
              "velocity": 59,
              "position": 0,
              "duration": 0.96875
            },
            {
              "pitch": 58,
              "velocity": 59,
              "position": 0,
              "duration": 0.96875
            },
            {
              "pitch": 63,
              "velocity": 59,
              "position": 0,
              "duration": 0.96875
            },
            {
              "pitch": 53,
              "velocity": 59,
              "position": 1,
              "duration": 0.16666666666666666
            },
            {
              "pitch": 58,
              "velocity": 59,
              "position": 1,
              "duration": 0.16666666666666666
            },
            {
              "pitch": 63,
              "velocity": 59,
              "position": 1,
              "duration": 0.16666666666666666
            },
            {
              "pitch": 53,
              "velocity": 59,
              "position": 2.5,
              "duration": 0.16666666666666666
            },
            {
              "pitch": 58,
              "velocity": 59,
              "position": 2.5,
              "duration": 0.16666666666666666
            },
            {
              "pitch": 63,
              "velocity": 59,
              "position": 2.5,
              "duration": 0.16666666666666666
            },
            {
              "pitch": 53,
              "velocity": 59,
              "position": 3,
              "duration": 0.96875
            },
            {
              "pitch": 58,
              "velocity": 59,
              "position": 3,
              "duration": 0.96875
            },
            {
              "pitch": 63,
              "velocity": 59,
              "position": 3,
              "duration": 0.96875
            }
          ]
        },
        "13": {
          "ctab": {
            "srcChannel": 13,
            "name": "Piano00",
            "accType": "CHORD1",
            "editable": true,
            "mutedNotes": [],
            "mutedChords": [
              "1+2+5",
              "sus4",
              "1+5",
              "1+8",
              "Maj7aug",
              "dim",
              "minMaj7(9)",
              "minMaj7",
              "min6",
              "min",
              "aug",
              "Maj7(9)",
              "Maj7#11",
              "Maj7",
              "Maj6",
              "Maj"
            ],
            "autoStart": false,
            "sourceChordNote": 0,
            "sourceChordType": "min7(11)",
            "ctb2Low": null,
            "ctb2Main": {
              "ntr": "ROOT_TRANSPOSITION",
              "ntt": "CHORD",
              "bassOn": false,
              "chordRootUpperLimit": 6,
              "noteLowLimit": 0,
              "noteHighLimit": 74,
              "rtr": "PITCH_SHIFT"
            },
            "ctb2High": null
          },
          "notes": [
            {
              "pitch": 60,
              "velocity": 59,
              "position": 0,
              "duration": 0.96875
            },
            {
              "pitch": 60,
              "velocity": 59,
              "position": 1,
              "duration": 0.16666666666666666
            },
            {
              "pitch": 60,
              "velocity": 59,
              "position": 2.5,
              "duration": 0.16666666666666666
            },
            {
              "pitch": 60,
              "velocity": 59,
              "position": 3,
              "duration": 0.96875
            }
          ]
        },
        "14": {
          "ctab": {
            "srcChannel": 14,
            "name": "MGt28",
            "accType": "PHRASE1",
            "editable": false,
            "mutedNotes": [],
            "mutedChords": [],
            "autoStart": false,
            "sourceChordNote": 0,
            "sourceChordType": "min7",
            "ctb2Low": null,
            "ctb2Main": {
              "ntr": "ROOT_TRANSPOSITION",
              "ntt": "CHORD",
              "bassOn": false,
              "chordRootUpperLimit": 11,
              "noteLowLimit": 0,
              "noteHighLimit": 67,
              "rtr": "PITCH_SHIFT"
            },
            "ctb2High": null
          },
          "notes": [
            {
              "pitch": 48,
              "velocity": 107,
              "position": 0.5,
              "duration": 0.25
            },
            {
              "pitch": 60,
              "velocity": 95,
              "position": 1,
              "duration": 0.46875
            },
            {
              "pitch": 60,
              "velocity": 107,
              "position": 1.7916666666666667,
              "duration": 0.20833333333333334
            },
            {
              "pitch": 58,
              "velocity": 107,
              "position": 2,
              "duration": 0.20833333333333334
            },
            {
              "pitch": 48,
              "velocity": 107,
              "position": 2.5,
              "duration": 0.20833333333333334
            },
            {
              "pitch": 55,
              "velocity": 107,
              "position": 3,
              "duration": 0.475
            }
          ]
        }
      }
    },
    "Fill_In_BB": {
      "type": "Fill_In_BB",
      "sizeInBeats": 4,
      "channels": {
        "1": {
          "ctab": {
            "srcChannel": 1,
            "name": "88NAgALL",
            "accType": "PAD",
            "editable": false,
            "mutedNotes": [],
            "mutedChords": [],
            "autoStart": false,
            "sourceChordNote": 0,
            "sourceChordType": "min7(11)",
            "ctb2Low": null,
            "ctb2Main": {
              "ntr": "ROOT_FIXED",
              "ntt": "CHORD",
              "bassOn": false,
              "chordRootUpperLimit": 6,
              "noteLowLimit": 62,
              "noteHighLimit": 127,
              "rtr": "PITCH_SHIFT"
            },
            "ctb2High": null
          },
          "notes": [
            {
              "pitch": 63,
              "velocity": 50,
              "position": 0,
              "duration": 3.9583333333333335
            },
            {
              "pitch": 65,
              "velocity": 50,
              "position": 0,
              "duration": 3.9583333333333335
            },
            {
              "pitch": 70,
              "velocity": 50,
              "position": 0,
              "duration": 3.9583333333333335
            }
          ]
        },
        "2": {
          "ctab": {
            "srcChannel": 2,
            "name": "88NAg4Vc",
            "accType": "PAD",
            "editable": false,
            "mutedNotes": [],
            "mutedChords": [
              "1+2+5",
              "sus4",
              "1+5",
              "1+8",
              "Maj7aug",
              "dim",
              "minMaj7(9)",
              "minMaj7",
              "min6",
              "min",
              "aug",
              "Maj7(9)",
              "Maj7#11",
              "Maj7",
              "Maj6",
              "Maj"
            ],
            "autoStart": false,
            "sourceChordNote": 0,
            "sourceChordType": "Maj7",
            "ctb2Low": null,
            "ctb2Main": {
              "ntr": "ROOT_TRANSPOSITION",
              "ntt": "CHORD",
              "bassOn": false,
              "chordRootUpperLimit": 2,
              "noteLowLimit": 0,
              "noteHighLimit": 127,
              "rtr": "PITCH_SHIFT"
            },
            "ctb2High": null
          },
          "notes": [
            {
              "pitch": 72,
              "velocity": 50,
              "position": 0,
              "duration": 3.9583333333333335
            }
          ]
        },
        "3": {
          "ctab": {
            "srcChannel": 3,
            "name": "Brite100",
            "accType": "PHRASE2",
            "editable": false,
            "mutedNotes": [],
            "mutedChords": [],
            "autoStart": false,
            "sourceChordNote": 0,
            "sourceChordType": "min7(11)",
            "ctb2Low": null,
            "ctb2Main": {
              "ntr": "ROOT_FIXED",
              "ntt": "CHORD",
              "bassOn": false,
              "chordRootUpperLimit": 8,
              "noteLowLimit": 0,
              "noteHighLimit": 127,
              "rtr": "PITCH_SHIFT"
            },
            "ctb2High": null
          },
          "notes": [
            {
              "pitch": 67,
              "velocity": 64,
              "position": 0.5,
              "duration": 0.375
            },
            {
              "pitch": 60,
              "velocity": 64,
              "position": 1.5,
              "duration": 0.375
            },
            {
              "pitch": 79,
              "velocity": 64,
              "position": 2.5,
              "duration": 0.375
            },
            {
              "pitch": 72,
              "velocity": 51,
              "position": 3,
              "duration": 0.375
            }
          ]
        },
        "7": {
          "ctab": {
            "srcChannel": 7,
            "name": "CC_Crash",
            "accType": "SUBRHYTHM",
            "editable": false,
            "mutedNotes": [],
            "mutedChords": [
              "1+2+5",
              "sus4",
              "1+5",
              "1+8",
              "7aug",
              "Maj7aug",
              "7(#9)",
              "7(b13)",
              "7(b9)",
              "7(13)",
              "7#11",
              "7(9)",
              "7b5",
              "7sus4",
              "7th",
              "dim7",
              "dim",
              "minMaj7(9)",
              "minMaj7",
              "min7(11)",
              "min7(9)",
              "min(9)",
              "m7b5",
              "min7",
              "min6",
              "min",
              "aug",
              "Maj6(9)",
              "Maj7(9)",
              "Maj(9)",
              "Maj7#11",
              "Maj7",
              "Maj6",
              "Maj"
            ],
            "autoStart": true,
            "sourceChordNote": 0,
            "sourceChordType": "Maj",
            "ctb2Low": null,
            "ctb2Main": {
              "ntr": "ROOT_FIXED",
              "ntt": "BYPASS",
              "bassOn": false,
              "chordRootUpperLimit": 0,
              "noteLowLimit": 0,
              "noteHighLimit": 127,
              "rtr": "RETRIGGER"
            },
            "ctb2High": null
          },
          "notes": []
        },
        "8": {
          "ctab": {
            "srcChannel": 8,
            "name": "Perc",
            "accType": "SUBRHYTHM",
            "editable": false,
            "mutedNotes": [],
            "mutedChords": [],
            "autoStart": true,
            "sourceChordNote": 0,
            "sourceChordType": "Maj7",
            "ctb2Low": null,
            "ctb2Main": {
              "ntr": "ROOT_FIXED",
              "ntt": "BYPASS",
              "bassOn": false,
              "chordRootUpperLimit": 6,
              "noteLowLimit": 0,
              "noteHighLimit": 127,
              "rtr": "PITCH_SHIFT"
            },
            "ctb2High": null
          },
          "notes": [
            {
              "pitch": 70,
              "velocity": 37,
              "position": 0.0020833333333333333,
              "duration": 0.07916666666666666
            },
            {
              "pitch": 70,
              "velocity": 27,
              "position": 0.5,
              "duration": 0.08333333333333333
            },
            {
              "pitch": 54,
              "velocity": 70,
              "position": 1,
              "duration": 0.08333333333333333
            },
            {
              "pitch": 82,
              "velocity": 68,
              "position": 1,
              "duration": 0.08333333333333333
            },
            {
              "pitch": 70,
              "velocity": 10,
              "position": 1.25,
              "duration": 0.08333333333333333
            },
            {
              "pitch": 70,
              "velocity": 27,
              "position": 1.5,
              "duration": 0.08333333333333333
            },
            {
              "pitch": 70,
              "velocity": 24,
              "position": 1.75,
              "duration": 0.08333333333333333
            },
            {
              "pitch": 70,
              "velocity": 37,
              "position": 2,
              "duration": 0.08333333333333333
            },
            {
              "pitch": 82,
              "velocity": 52,
              "position": 2.3020833333333335,
              "duration": 0.08333333333333333
            },
            {
              "pitch": 70,
              "velocity": 21,
              "position": 2.5,
              "duration": 0.08333333333333333
            },
            {
              "pitch": 54,
              "velocity": 70,
              "position": 3,
              "duration": 0.08333333333333333
            },
            {
              "pitch": 82,
              "velocity": 68,
              "position": 3,
              "duration": 0.08333333333333333
            },
            {
              "pitch": 54,
              "velocity": 47,
              "position": 3.4791666666666665,
              "duration": 0.08333333333333333
            },
            {
              "pitch": 70,
              "velocity": 37,
              "position": 3.5,
              "duration": 0.08333333333333333
            },
            {
              "pitch": 70,
              "velocity": 21,
              "position": 3.7916666666666665,
              "duration": 0.08333333333333333
            }
          ]
        },
        "9": {
          "ctab": {
            "srcChannel": 9,
            "name": "MainDrum",
            "accType": "RHYTHM",
            "editable": false,
            "mutedNotes": [],
            "mutedChords": [],
            "autoStart": true,
            "sourceChordNote": 0,
            "sourceChordType": "Maj7",
            "ctb2Low": null,
            "ctb2Main": {
              "ntr": "ROOT_FIXED",
              "ntt": "BYPASS",
              "bassOn": false,
              "chordRootUpperLimit": 6,
              "noteLowLimit": 0,
              "noteHighLimit": 127,
              "rtr": "PITCH_SHIFT"
            },
            "ctb2High": null
          },
          "notes": [
            {
              "pitch": 33,
              "velocity": 79,
              "position": 0.0020833333333333333,
              "duration": 0.041666666666666664
            },
            {
              "pitch": 42,
              "velocity": 78,
              "position": 0.0020833333333333333,
              "duration": 0.04791666666666667
            },
            {
              "pitch": 25,
              "velocity": 116,
              "position": 0.28125,
              "duration": 0.010416666666666666
            },
            {
              "pitch": 42,
              "velocity": 52,
              "position": 0.49375,
              "duration": 0.08333333333333333
            },
            {
              "pitch": 25,
              "velocity": 116,
              "position": 1,
              "duration": 0.010416666666666666
            },
            {
              "pitch": 33,
              "velocity": 79,
              "position": 1,
              "duration": 0.041666666666666664
            },
            {
              "pitch": 42,
              "velocity": 78,
              "position": 1,
              "duration": 0.052083333333333336
            },
            {
              "pitch": 46,
              "velocity": 54,
              "position": 1.5,
              "duration": 0.020833333333333332
            },
            {
              "pitch": 25,
              "velocity": 116,
              "position": 1.775,
              "duration": 0.010416666666666666
            },
            {
              "pitch": 33,
              "velocity": 79,
              "position": 2,
              "duration": 0.041666666666666664
            },
            {
              "pitch": 25,
              "velocity": 100,
              "position": 2.4833333333333334,
              "duration": 0.010416666666666666
            },
            {
              "pitch": 25,
              "velocity": 116,
              "position": 3,
              "duration": 0.010416666666666666
            },
            {
              "pitch": 33,
              "velocity": 79,
              "position": 3,
              "duration": 0.041666666666666664
            },
            {
              "pitch": 25,
              "velocity": 116,
              "position": 3.5,
              "duration": 0.010416666666666666
            },
            {
              "pitch": 46,
              "velocity": 54,
              "position": 3.5,
              "duration": 0.020833333333333332
            },
            {
              "pitch": 25,
              "velocity": 96,
              "position": 3.7916666666666665,
              "duration": 0.010416666666666666
            }
          ]
        },
        "11": {
          "ctab": {
            "srcChannel": 11,
            "name": "Bassmaj",
            "accType": "BASS",
            "editable": false,
            "mutedNotes": [],
            "mutedChords": [],
            "autoStart": false,
            "sourceChordNote": 0,
            "sourceChordType": "Maj7",
            "ctb2Low": null,
            "ctb2Main": {
              "ntr": "ROOT_TRANSPOSITION",
              "ntt": "MELODY",
              "bassOn": true,
              "chordRootUpperLimit": 11,
              "noteLowLimit": 28,
              "noteHighLimit": 127,
              "rtr": "PITCH_SHIFT_TO_ROOT"
            },
            "ctb2High": null
          },
          "notes": [
            {
              "pitch": 24,
              "velocity": 90,
              "position": 0,
              "duration": 0.74375
            },
            {
              "pitch": 24,
              "velocity": 66,
              "position": 0.7916666666666666,
              "duration": 0.20833333333333334
            },
            {
              "pitch": 35,
              "velocity": 86,
              "position": 1.5,
              "duration": 0.4583333333333333
            },
            {
              "pitch": 36,
              "velocity": 82,
              "position": 2,
              "duration": 0.20833333333333334
            },
            {
              "pitch": 35,
              "velocity": 82,
              "position": 3,
              "duration": 0.4166666666666667
            },
            {
              "pitch": 31,
              "velocity": 86,
              "position": 3.5,
              "duration": 0.4166666666666667
            }
          ]
        },
        "12": {
          "ctab": {
            "srcChannel": 12,
            "name": "Piano00",
            "accType": "CHORD1",
            "editable": false,
            "mutedNotes": [],
            "mutedChords": [],
            "autoStart": false,
            "sourceChordNote": 0,
            "sourceChordType": "min7(11)",
            "ctb2Low": null,
            "ctb2Main": {
              "ntr": "ROOT_FIXED",
              "ntt": "CHORD",
              "bassOn": false,
              "chordRootUpperLimit": 7,
              "noteLowLimit": 50,
              "noteHighLimit": 127,
              "rtr": "PITCH_SHIFT"
            },
            "ctb2High": null
          },
          "notes": [
            {
              "pitch": 53,
              "velocity": 59,
              "position": 0.0020833333333333333,
              "duration": 0.7458333333333333
            },
            {
              "pitch": 58,
              "velocity": 59,
              "position": 0.0020833333333333333,
              "duration": 0.7458333333333333
            },
            {
              "pitch": 63,
              "velocity": 59,
              "position": 0.0020833333333333333,
              "duration": 0.7458333333333333
            },
            {
              "pitch": 53,
              "velocity": 59,
              "position": 0.7916666666666666,
              "duration": 0.16666666666666666
            },
            {
              "pitch": 58,
              "velocity": 59,
              "position": 0.7916666666666666,
              "duration": 0.16666666666666666
            },
            {
              "pitch": 63,
              "velocity": 59,
              "position": 0.7916666666666666,
              "duration": 0.16666666666666666
            },
            {
              "pitch": 53,
              "velocity": 59,
              "position": 1.5,
              "duration": 0.4583333333333333
            },
            {
              "pitch": 58,
              "velocity": 59,
              "position": 1.5,
              "duration": 0.4583333333333333
            },
            {
              "pitch": 63,
              "velocity": 59,
              "position": 1.5,
              "duration": 0.4583333333333333
            },
            {
              "pitch": 58,
              "velocity": 59,
              "position": 2.5,
              "duration": 1.4583333333333333
            },
            {
              "pitch": 63,
              "velocity": 59,
              "position": 2.5,
              "duration": 1.4583333333333333
            },
            {
              "pitch": 65,
              "velocity": 59,
              "position": 2.5,
              "duration": 1.4583333333333333
            }
          ]
        },
        "13": {
          "ctab": {
            "srcChannel": 13,
            "name": "Piano00",
            "accType": "CHORD1",
            "editable": true,
            "mutedNotes": [],
            "mutedChords": [
              "1+2+5",
              "sus4",
              "1+5",
              "1+8",
              "Maj7aug",
              "dim",
              "minMaj7(9)",
              "minMaj7",
              "min6",
              "min",
              "aug",
              "Maj7(9)",
              "Maj7#11",
              "Maj7",
              "Maj6",
              "Maj"
            ],
            "autoStart": false,
            "sourceChordNote": 0,
            "sourceChordType": "min7(11)",
            "ctb2Low": null,
            "ctb2Main": {
              "ntr": "ROOT_TRANSPOSITION",
              "ntt": "CHORD",
              "bassOn": false,
              "chordRootUpperLimit": 6,
              "noteLowLimit": 0,
              "noteHighLimit": 74,
              "rtr": "PITCH_SHIFT"
            },
            "ctb2High": null
          },
          "notes": [
            {
              "pitch": 60,
              "velocity": 59,
              "position": 0.0020833333333333333,
              "duration": 0.7458333333333333
            },
            {
              "pitch": 60,
              "velocity": 59,
              "position": 0.7916666666666666,
              "duration": 0.16666666666666666
            },
            {
              "pitch": 60,
              "velocity": 59,
              "position": 1.5,
              "duration": 0.4583333333333333
            },
            {
              "pitch": 60,
              "velocity": 59,
              "position": 2.5,
              "duration": 1.4583333333333333
            }
          ]
        },
        "14": {
          "ctab": {
            "srcChannel": 14,
            "name": "MGt28",
            "accType": "PHRASE1",
            "editable": false,
            "mutedNotes": [],
            "mutedChords": [],
            "autoStart": false,
            "sourceChordNote": 0,
            "sourceChordType": "min7",
            "ctb2Low": null,
            "ctb2Main": {
              "ntr": "ROOT_TRANSPOSITION",
              "ntt": "CHORD",
              "bassOn": false,
              "chordRootUpperLimit": 11,
              "noteLowLimit": 0,
              "noteHighLimit": 67,
              "rtr": "PITCH_SHIFT"
            },
            "ctb2High": null
          },
          "notes": [
            {
              "pitch": 60,
              "velocity": 102,
              "position": 0.0020833333333333333,
              "duration": 0.45416666666666666
            },
            {
              "pitch": 60,
              "velocity": 102,
              "position": 0.5,
              "duration": 0.25
            },
            {
              "pitch": 55,
              "velocity": 89,
              "position": 0.7916666666666666,
              "duration": 0.16666666666666666
            },
            {
              "pitch": 58,
              "velocity": 102,
              "position": 1,
              "duration": 0.25
            },
            {
              "pitch": 60,
              "velocity": 102,
              "position": 1.5,
              "duration": 0.20833333333333334
            },
            {
              "pitch": 63,
              "velocity": 91,
              "position": 2.2916666666666665,
              "duration": 0.20833333333333334
            },
            {
              "pitch": 60,
              "velocity": 102,
              "position": 2.5,
              "duration": 0.25
            },
            {
              "pitch": 58,
              "velocity": 102,
              "position": 3,
              "duration": 0.4583333333333333
            },
            {
              "pitch": 60,
              "velocity": 102,
              "position": 3.5,
              "duration": 0.20833333333333334
            }
          ]
        }
      }
    },
    "Intro_A": {
      "type": "Intro_A",
      "sizeInBeats": 4,
      "channels": {
        "1": {
          "ctab": {
            "srcChannel": 1,
            "name": "88NAgALL",
            "accType": "PAD",
            "editable": false,
            "mutedNotes": [],
            "mutedChords": [],
            "autoStart": false,
            "sourceChordNote": 0,
            "sourceChordType": "min7(11)",
            "ctb2Low": null,
            "ctb2Main": {
              "ntr": "ROOT_FIXED",
              "ntt": "CHORD",
              "bassOn": false,
              "chordRootUpperLimit": 6,
              "noteLowLimit": 62,
              "noteHighLimit": 127,
              "rtr": "PITCH_SHIFT"
            },
            "ctb2High": null
          },
          "notes": []
        },
        "2": {
          "ctab": {
            "srcChannel": 2,
            "name": "88NAg4Vc",
            "accType": "PAD",
            "editable": false,
            "mutedNotes": [],
            "mutedChords": [
              "1+2+5",
              "sus4",
              "1+5",
              "1+8",
              "Maj7aug",
              "dim",
              "minMaj7(9)",
              "minMaj7",
              "min6",
              "min",
              "aug",
              "Maj7(9)",
              "Maj7#11",
              "Maj7",
              "Maj6",
              "Maj"
            ],
            "autoStart": false,
            "sourceChordNote": 0,
            "sourceChordType": "Maj7",
            "ctb2Low": null,
            "ctb2Main": {
              "ntr": "ROOT_TRANSPOSITION",
              "ntt": "CHORD",
              "bassOn": false,
              "chordRootUpperLimit": 2,
              "noteLowLimit": 0,
              "noteHighLimit": 127,
              "rtr": "PITCH_SHIFT"
            },
            "ctb2High": null
          },
          "notes": []
        },
        "3": {
          "ctab": {
            "srcChannel": 3,
            "name": "Brite100",
            "accType": "PHRASE2",
            "editable": false,
            "mutedNotes": [],
            "mutedChords": [],
            "autoStart": false,
            "sourceChordNote": 0,
            "sourceChordType": "min7(11)",
            "ctb2Low": null,
            "ctb2Main": {
              "ntr": "ROOT_FIXED",
              "ntt": "CHORD",
              "bassOn": false,
              "chordRootUpperLimit": 8,
              "noteLowLimit": 0,
              "noteHighLimit": 127,
              "rtr": "PITCH_SHIFT"
            },
            "ctb2High": null
          },
          "notes": []
        },
        "7": {
          "ctab": {
            "srcChannel": 7,
            "name": "CC_Crash",
            "accType": "SUBRHYTHM",
            "editable": false,
            "mutedNotes": [],
            "mutedChords": [
              "1+2+5",
              "sus4",
              "1+5",
              "1+8",
              "7aug",
              "Maj7aug",
              "7(#9)",
              "7(b13)",
              "7(b9)",
              "7(13)",
              "7#11",
              "7(9)",
              "7b5",
              "7sus4",
              "7th",
              "dim7",
              "dim",
              "minMaj7(9)",
              "minMaj7",
              "min7(11)",
              "min7(9)",
              "min(9)",
              "m7b5",
              "min7",
              "min6",
              "min",
              "aug",
              "Maj6(9)",
              "Maj7(9)",
              "Maj(9)",
              "Maj7#11",
              "Maj7",
              "Maj6",
              "Maj"
            ],
            "autoStart": true,
            "sourceChordNote": 0,
            "sourceChordType": "Maj",
            "ctb2Low": null,
            "ctb2Main": {
              "ntr": "ROOT_FIXED",
              "ntt": "BYPASS",
              "bassOn": false,
              "chordRootUpperLimit": 0,
              "noteLowLimit": 0,
              "noteHighLimit": 127,
              "rtr": "RETRIGGER"
            },
            "ctb2High": null
          },
          "notes": []
        },
        "8": {
          "ctab": {
            "srcChannel": 8,
            "name": "Perc",
            "accType": "SUBRHYTHM",
            "editable": false,
            "mutedNotes": [],
            "mutedChords": [],
            "autoStart": true,
            "sourceChordNote": 0,
            "sourceChordType": "Maj7",
            "ctb2Low": null,
            "ctb2Main": {
              "ntr": "ROOT_FIXED",
              "ntt": "BYPASS",
              "bassOn": false,
              "chordRootUpperLimit": 6,
              "noteLowLimit": 0,
              "noteHighLimit": 127,
              "rtr": "PITCH_SHIFT"
            },
            "ctb2High": null
          },
          "notes": [
            {
              "pitch": 70,
              "velocity": 37,
              "position": 0,
              "duration": 0.07708333333333334
            },
            {
              "pitch": 70,
              "velocity": 16,
              "position": 0.5,
              "duration": 0.08333333333333333
            },
            {
              "pitch": 70,
              "velocity": 24,
              "position": 0.7916666666666666,
              "duration": 0.08333333333333333
            },
            {
              "pitch": 70,
              "velocity": 37,
              "position": 1,
              "duration": 0.08333333333333333
            },
            {
              "pitch": 70,
              "velocity": 16,
              "position": 1.5,
              "duration": 0.08333333333333333
            },
            {
              "pitch": 70,
              "velocity": 37,
              "position": 2,
              "duration": 0.08333333333333333
            },
            {
              "pitch": 70,
              "velocity": 16,
              "position": 2.5,
              "duration": 0.08333333333333333
            },
            {
              "pitch": 70,
              "velocity": 18,
              "position": 2.7916666666666665,
              "duration": 0.08333333333333333
            },
            {
              "pitch": 70,
              "velocity": 37,
              "position": 3,
              "duration": 0.08333333333333333
            },
            {
              "pitch": 70,
              "velocity": 18,
              "position": 3.2916666666666665,
              "duration": 0.08333333333333333
            },
            {
              "pitch": 70,
              "velocity": 16,
              "position": 3.5,
              "duration": 0.08333333333333333
            },
            {
              "pitch": 70,
              "velocity": 18,
              "position": 3.7916666666666665,
              "duration": 0.08333333333333333
            }
          ]
        },
        "9": {
          "ctab": {
            "srcChannel": 9,
            "name": "MainDrum",
            "accType": "RHYTHM",
            "editable": false,
            "mutedNotes": [],
            "mutedChords": [],
            "autoStart": true,
            "sourceChordNote": 0,
            "sourceChordType": "Maj7",
            "ctb2Low": null,
            "ctb2Main": {
              "ntr": "ROOT_FIXED",
              "ntt": "BYPASS",
              "bassOn": false,
              "chordRootUpperLimit": 6,
              "noteLowLimit": 0,
              "noteHighLimit": 127,
              "rtr": "PITCH_SHIFT"
            },
            "ctb2High": null
          },
          "notes": [
            {
              "pitch": 33,
              "velocity": 79,
              "position": 0,
              "duration": 0.041666666666666664
            },
            {
              "pitch": 33,
              "velocity": 79,
              "position": 1,
              "duration": 0.041666666666666664
            },
            {
              "pitch": 33,
              "velocity": 79,
              "position": 2,
              "duration": 0.041666666666666664
            },
            {
              "pitch": 25,
              "velocity": 98,
              "position": 2.3,
              "duration": 0.010416666666666666
            },
            {
              "pitch": 25,
              "velocity": 116,
              "position": 2.5,
              "duration": 0.010416666666666666
            },
            {
              "pitch": 25,
              "velocity": 98,
              "position": 2.8,
              "duration": 0.010416666666666666
            },
            {
              "pitch": 25,
              "velocity": 116,
              "position": 3,
              "duration": 0.010416666666666666
            },
            {
              "pitch": 33,
              "velocity": 79,
              "position": 3,
              "duration": 0.041666666666666664
            },
            {
              "pitch": 25,
              "velocity": 116,
              "position": 3.5,
              "duration": 0.010416666666666666
            },
            {
              "pitch": 25,
              "velocity": 98,
              "position": 3.8,
              "duration": 0.010416666666666666
            }
          ]
        },
        "11": {
          "ctab": {
            "srcChannel": 11,
            "name": "Bassmaj",
            "accType": "BASS",
            "editable": false,
            "mutedNotes": [],
            "mutedChords": [],
            "autoStart": false,
            "sourceChordNote": 0,
            "sourceChordType": "Maj7",
            "ctb2Low": null,
            "ctb2Main": {
              "ntr": "ROOT_TRANSPOSITION",
              "ntt": "MELODY",
              "bassOn": true,
              "chordRootUpperLimit": 11,
              "noteLowLimit": 28,
              "noteHighLimit": 127,
              "rtr": "PITCH_SHIFT_TO_ROOT"
            },
            "ctb2High": null
          },
          "notes": []
        },
        "12": {
          "ctab": {
            "srcChannel": 12,
            "name": "Piano00",
            "accType": "CHORD1",
            "editable": false,
            "mutedNotes": [],
            "mutedChords": [],
            "autoStart": false,
            "sourceChordNote": 0,
            "sourceChordType": "min7(11)",
            "ctb2Low": null,
            "ctb2Main": {
              "ntr": "ROOT_FIXED",
              "ntt": "CHORD",
              "bassOn": false,
              "chordRootUpperLimit": 7,
              "noteLowLimit": 50,
              "noteHighLimit": 127,
              "rtr": "PITCH_SHIFT"
            },
            "ctb2High": null
          },
          "notes": []
        },
        "13": {
          "ctab": {
            "srcChannel": 13,
            "name": "Piano00",
            "accType": "CHORD1",
            "editable": true,
            "mutedNotes": [],
            "mutedChords": [
              "1+2+5",
              "sus4",
              "1+5",
              "1+8",
              "Maj7aug",
              "dim",
              "minMaj7(9)",
              "minMaj7",
              "min6",
              "min",
              "aug",
              "Maj7(9)",
              "Maj7#11",
              "Maj7",
              "Maj6",
              "Maj"
            ],
            "autoStart": false,
            "sourceChordNote": 0,
            "sourceChordType": "min7(11)",
            "ctb2Low": null,
            "ctb2Main": {
              "ntr": "ROOT_TRANSPOSITION",
              "ntt": "CHORD",
              "bassOn": false,
              "chordRootUpperLimit": 6,
              "noteLowLimit": 0,
              "noteHighLimit": 74,
              "rtr": "PITCH_SHIFT"
            },
            "ctb2High": null
          },
          "notes": []
        },
        "14": {
          "ctab": {
            "srcChannel": 14,
            "name": "MGt28",
            "accType": "PHRASE1",
            "editable": false,
            "mutedNotes": [],
            "mutedChords": [],
            "autoStart": false,
            "sourceChordNote": 0,
            "sourceChordType": "min7",
            "ctb2Low": null,
            "ctb2Main": {
              "ntr": "ROOT_TRANSPOSITION",
              "ntt": "CHORD",
              "bassOn": false,
              "chordRootUpperLimit": 11,
              "noteLowLimit": 0,
              "noteHighLimit": 67,
              "rtr": "PITCH_SHIFT"
            },
            "ctb2High": null
          },
          "notes": []
        }
      }
    },
    "Intro_B": {
      "type": "Intro_B",
      "sizeInBeats": 16,
      "channels": {
        "1": {
          "ctab": {
            "srcChannel": 1,
            "name": "88NAgALL",
            "accType": "PAD",
            "editable": false,
            "mutedNotes": [],
            "mutedChords": [],
            "autoStart": false,
            "sourceChordNote": 0,
            "sourceChordType": "min7(11)",
            "ctb2Low": null,
            "ctb2Main": {
              "ntr": "ROOT_FIXED",
              "ntt": "CHORD",
              "bassOn": false,
              "chordRootUpperLimit": 6,
              "noteLowLimit": 62,
              "noteHighLimit": 127,
              "rtr": "PITCH_SHIFT"
            },
            "ctb2High": null
          },
          "notes": [
            {
              "pitch": 63,
              "velocity": 71,
              "position": 0.010416666666666666,
              "duration": 7.927083333333333
            },
            {
              "pitch": 65,
              "velocity": 71,
              "position": 0.010416666666666666,
              "duration": 7.927083333333333
            },
            {
              "pitch": 70,
              "velocity": 71,
              "position": 0.010416666666666666,
              "duration": 7.927083333333333
            },
            {
              "pitch": 63,
              "velocity": 71,
              "position": 14,
              "duration": 0.4583333333333333
            },
            {
              "pitch": 65,
              "velocity": 71,
              "position": 14,
              "duration": 0.4583333333333333
            },
            {
              "pitch": 70,
              "velocity": 71,
              "position": 14,
              "duration": 0.4583333333333333
            }
          ]
        },
        "2": {
          "ctab": {
            "srcChannel": 2,
            "name": "88NAg4Vc",
            "accType": "PAD",
            "editable": false,
            "mutedNotes": [],
            "mutedChords": [
              "1+2+5",
              "sus4",
              "1+5",
              "1+8",
              "Maj7aug",
              "dim",
              "minMaj7(9)",
              "minMaj7",
              "min6",
              "min",
              "aug",
              "Maj7(9)",
              "Maj7#11",
              "Maj7",
              "Maj6",
              "Maj"
            ],
            "autoStart": false,
            "sourceChordNote": 0,
            "sourceChordType": "Maj7",
            "ctb2Low": null,
            "ctb2Main": {
              "ntr": "ROOT_TRANSPOSITION",
              "ntt": "CHORD",
              "bassOn": false,
              "chordRootUpperLimit": 2,
              "noteLowLimit": 0,
              "noteHighLimit": 127,
              "rtr": "PITCH_SHIFT"
            },
            "ctb2High": null
          },
          "notes": [
            {
              "pitch": 72,
              "velocity": 71,
              "position": 0.010416666666666666,
              "duration": 7.927083333333333
            },
            {
              "pitch": 72,
              "velocity": 71,
              "position": 14,
              "duration": 0.4583333333333333
            }
          ]
        },
        "3": {
          "ctab": {
            "srcChannel": 3,
            "name": "Brite100",
            "accType": "PHRASE2",
            "editable": false,
            "mutedNotes": [],
            "mutedChords": [],
            "autoStart": false,
            "sourceChordNote": 0,
            "sourceChordType": "min7(11)",
            "ctb2Low": null,
            "ctb2Main": {
              "ntr": "ROOT_FIXED",
              "ntt": "CHORD",
              "bassOn": false,
              "chordRootUpperLimit": 8,
              "noteLowLimit": 0,
              "noteHighLimit": 127,
              "rtr": "PITCH_SHIFT"
            },
            "ctb2High": null
          },
          "notes": [
            {
              "pitch": 60,
              "velocity": 72,
              "position": 4.5,
              "duration": 0.375
            },
            {
              "pitch": 60,
              "velocity": 44,
              "position": 5,
              "duration": 0.375
            },
            {
              "pitch": 60,
              "velocity": 30,
              "position": 5.5,
              "duration": 0.375
            },
            {
              "pitch": 67,
              "velocity": 72,
              "position": 5.5,
              "duration": 0.375
            },
            {
              "pitch": 60,
              "velocity": 23,
              "position": 6,
              "duration": 0.375
            },
            {
              "pitch": 67,
              "velocity": 44,
              "position": 6,
              "duration": 0.375
            },
            {
              "pitch": 67,
              "velocity": 30,
              "position": 6.5,
              "duration": 0.375
            },
            {
              "pitch": 67,
              "velocity": 23,
              "position": 7,
              "duration": 0.375
            },
            {
              "pitch": 60,
              "velocity": 72,
              "position": 8.5,
              "duration": 0.375
            },
            {
              "pitch": 60,
              "velocity": 44,
              "position": 9,
              "duration": 0.375
            },
            {
              "pitch": 60,
              "velocity": 30,
              "position": 9.5,
              "duration": 0.375
            },
            {
              "pitch": 67,
              "velocity": 72,
              "position": 9.5,
              "duration": 0.375
            },
            {
              "pitch": 60,
              "velocity": 23,
              "position": 10,
              "duration": 0.375
            },
            {
              "pitch": 67,
              "velocity": 44,
              "position": 10,
              "duration": 0.375
            },
            {
              "pitch": 67,
              "velocity": 30,
              "position": 10.5,
              "duration": 0.375
            },
            {
              "pitch": 72,
              "velocity": 72,
              "position": 10.5,
              "duration": 0.375
            },
            {
              "pitch": 67,
              "velocity": 23,
              "position": 11,
              "duration": 0.375
            },
            {
              "pitch": 72,
              "velocity": 44,
              "position": 11,
              "duration": 0.375
            },
            {
              "pitch": 72,
              "velocity": 30,
              "position": 11.5,
              "duration": 0.375
            },
            {
              "pitch": 72,
              "velocity": 23,
              "position": 12,
              "duration": 0.375
            },
            {
              "pitch": 67,
              "velocity": 72,
              "position": 12.5,
              "duration": 0.375
            },
            {
              "pitch": 72,
              "velocity": 72,
              "position": 13.5,
              "duration": 0.375
            },
            {
              "pitch": 84,
              "velocity": 72,
              "position": 14.5,
              "duration": 0.375
            },
            {
              "pitch": 79,
              "velocity": 59,
              "position": 15,
              "duration": 0.375
            },
            {
              "pitch": 72,
              "velocity": 46,
              "position": 15.5,
              "duration": 0.375
            }
          ]
        },
        "7": {
          "ctab": {
            "srcChannel": 7,
            "name": "CC_Crash",
            "accType": "SUBRHYTHM",
            "editable": false,
            "mutedNotes": [],
            "mutedChords": [
              "1+2+5",
              "sus4",
              "1+5",
              "1+8",
              "7aug",
              "Maj7aug",
              "7(#9)",
              "7(b13)",
              "7(b9)",
              "7(13)",
              "7#11",
              "7(9)",
              "7b5",
              "7sus4",
              "7th",
              "dim7",
              "dim",
              "minMaj7(9)",
              "minMaj7",
              "min7(11)",
              "min7(9)",
              "min(9)",
              "m7b5",
              "min7",
              "min6",
              "min",
              "aug",
              "Maj6(9)",
              "Maj7(9)",
              "Maj(9)",
              "Maj7#11",
              "Maj7",
              "Maj6",
              "Maj"
            ],
            "autoStart": true,
            "sourceChordNote": 0,
            "sourceChordType": "Maj",
            "ctb2Low": null,
            "ctb2Main": {
              "ntr": "ROOT_FIXED",
              "ntt": "BYPASS",
              "bassOn": false,
              "chordRootUpperLimit": 0,
              "noteLowLimit": 0,
              "noteHighLimit": 127,
              "rtr": "RETRIGGER"
            },
            "ctb2High": null
          },
          "notes": []
        },
        "8": {
          "ctab": {
            "srcChannel": 8,
            "name": "Perc",
            "accType": "SUBRHYTHM",
            "editable": false,
            "mutedNotes": [],
            "mutedChords": [],
            "autoStart": true,
            "sourceChordNote": 0,
            "sourceChordType": "Maj7",
            "ctb2Low": null,
            "ctb2Main": {
              "ntr": "ROOT_FIXED",
              "ntt": "BYPASS",
              "bassOn": false,
              "chordRootUpperLimit": 6,
              "noteLowLimit": 0,
              "noteHighLimit": 127,
              "rtr": "PITCH_SHIFT"
            },
            "ctb2High": null
          },
          "notes": [
            {
              "pitch": 70,
              "velocity": 37,
              "position": 8,
              "duration": 0.08333333333333333
            },
            {
              "pitch": 70,
              "velocity": 30,
              "position": 8.5,
              "duration": 0.08333333333333333
            },
            {
              "pitch": 54,
              "velocity": 68,
              "position": 9,
              "duration": 0.08333333333333333
            },
            {
              "pitch": 82,
              "velocity": 70,
              "position": 9,
              "duration": 0.08333333333333333
            },
            {
              "pitch": 70,
              "velocity": 30,
              "position": 9.5,
              "duration": 0.08333333333333333
            },
            {
              "pitch": 70,
              "velocity": 37,
              "position": 10,
              "duration": 0.08333333333333333
            },
            {
              "pitch": 70,
              "velocity": 10,
              "position": 10.5,
              "duration": 0.08333333333333333
            },
            {
              "pitch": 54,
              "velocity": 68,
              "position": 11,
              "duration": 0.08333333333333333
            },
            {
              "pitch": 82,
              "velocity": 70,
              "position": 11,
              "duration": 0.08333333333333333
            },
            {
              "pitch": 70,
              "velocity": 16,
              "position": 11.5,
              "duration": 0.08333333333333333
            },
            {
              "pitch": 57,
              "velocity": 40,
              "position": 12,
              "duration": 0.010416666666666666
            },
            {
              "pitch": 70,
              "velocity": 37,
              "position": 12.002083333333333,
              "duration": 0.07916666666666666
            },
            {
              "pitch": 70,
              "velocity": 27,
              "position": 12.5,
              "duration": 0.08333333333333333
            },
            {
              "pitch": 57,
              "velocity": 40,
              "position": 13,
              "duration": 0.010416666666666666
            },
            {
              "pitch": 54,
              "velocity": 68,
              "position": 13,
              "duration": 0.08333333333333333
            },
            {
              "pitch": 82,
              "velocity": 70,
              "position": 13,
              "duration": 0.08333333333333333
            },
            {
              "pitch": 70,
              "velocity": 7,
              "position": 13.5,
              "duration": 0.08333333333333333
            },
            {
              "pitch": 70,
              "velocity": 27,
              "position": 13.791666666666666,
              "duration": 0.08333333333333333
            },
            {
              "pitch": 70,
              "velocity": 37,
              "position": 14,
              "duration": 0.08333333333333333
            },
            {
              "pitch": 70,
              "velocity": 29,
              "position": 14.5,
              "duration": 0.08333333333333333
            },
            {
              "pitch": 70,
              "velocity": 12,
              "position": 15.25,
              "duration": 0.08333333333333333
            },
            {
              "pitch": 70,
              "velocity": 34,
              "position": 15.5,
              "duration": 0.08333333333333333
            }
          ]
        },
        "9": {
          "ctab": {
            "srcChannel": 9,
            "name": "MainDrum",
            "accType": "RHYTHM",
            "editable": false,
            "mutedNotes": [],
            "mutedChords": [],
            "autoStart": true,
            "sourceChordNote": 0,
            "sourceChordType": "Maj7",
            "ctb2Low": null,
            "ctb2Main": {
              "ntr": "ROOT_FIXED",
              "ntt": "BYPASS",
              "bassOn": false,
              "chordRootUpperLimit": 6,
              "noteLowLimit": 0,
              "noteHighLimit": 127,
              "rtr": "PITCH_SHIFT"
            },
            "ctb2High": null
          },
          "notes": [
            {
              "pitch": 33,
              "velocity": 79,
              "position": 0.0020833333333333333,
              "duration": 0.041666666666666664
            },
            {
              "pitch": 33,
              "velocity": 79,
              "position": 1,
              "duration": 0.041666666666666664
            },
            {
              "pitch": 33,
              "velocity": 79,
              "position": 2,
              "duration": 0.041666666666666664
            },
            {
              "pitch": 33,
              "velocity": 79,
              "position": 3,
              "duration": 0.041666666666666664
            },
            {
              "pitch": 33,
              "velocity": 79,
              "position": 4,
              "duration": 0.041666666666666664
            },
            {
              "pitch": 42,
              "velocity": 36,
              "position": 4.5,
              "duration": 0.052083333333333336
            },
            {
              "pitch": 33,
              "velocity": 79,
              "position": 5,
              "duration": 0.041666666666666664
            },
            {
              "pitch": 42,
              "velocity": 36,
              "position": 5.5,
              "duration": 0.052083333333333336
            },
            {
              "pitch": 33,
              "velocity": 79,
              "position": 6,
              "duration": 0.041666666666666664
            },
            {
              "pitch": 42,
              "velocity": 32,
              "position": 6.5,
              "duration": 0.052083333333333336
            },
            {
              "pitch": 33,
              "velocity": 79,
              "position": 7,
              "duration": 0.041666666666666664
            },
            {
              "pitch": 46,
              "velocity": 54,
              "position": 7.5,
              "duration": 0.020833333333333332
            },
            {
              "pitch": 33,
              "velocity": 79,
              "position": 8,
              "duration": 0.041666666666666664
            },
            {
              "pitch": 42,
              "velocity": 36,
              "position": 8,
              "duration": 0.052083333333333336
            },
            {
              "pitch": 42,
              "velocity": 78,
              "position": 8.5,
              "duration": 0.052083333333333336
            },
            {
              "pitch": 33,
              "velocity": 79,
              "position": 9,
              "duration": 0.041666666666666664
            },
            {
              "pitch": 42,
              "velocity": 31,
              "position": 9,
              "duration": 0.052083333333333336
            },
            {
              "pitch": 42,
              "velocity": 78,
              "position": 9.5,
              "duration": 0.052083333333333336
            },
            {
              "pitch": 33,
              "velocity": 79,
              "position": 10,
              "duration": 0.041666666666666664
            },
            {
              "pitch": 42,
              "velocity": 32,
              "position": 10,
              "duration": 0.052083333333333336
            },
            {
              "pitch": 42,
              "velocity": 78,
              "position": 10.5,
              "duration": 0.052083333333333336
            },
            {
              "pitch": 33,
              "velocity": 79,
              "position": 11,
              "duration": 0.041666666666666664
            },
            {
              "pitch": 42,
              "velocity": 37,
              "position": 11,
              "duration": 0.052083333333333336
            },
            {
              "pitch": 42,
              "velocity": 78,
              "position": 11.5,
              "duration": 0.052083333333333336
            },
            {
              "pitch": 33,
              "velocity": 79,
              "position": 12,
              "duration": 0.041666666666666664
            },
            {
              "pitch": 42,
              "velocity": 36,
              "position": 12.5,
              "duration": 0.052083333333333336
            },
            {
              "pitch": 25,
              "velocity": 112,
              "position": 13,
              "duration": 0.010416666666666666
            },
            {
              "pitch": 33,
              "velocity": 79,
              "position": 13,
              "duration": 0.041666666666666664
            },
            {
              "pitch": 25,
              "velocity": 60,
              "position": 13.375,
              "duration": 0.010416666666666666
            },
            {
              "pitch": 25,
              "velocity": 68,
              "position": 13.5,
              "duration": 0.010416666666666666
            },
            {
              "pitch": 42,
              "velocity": 36,
              "position": 13.5,
              "duration": 0.052083333333333336
            },
            {
              "pitch": 25,
              "velocity": 82,
              "position": 13.625,
              "duration": 0.010416666666666666
            },
            {
              "pitch": 25,
              "velocity": 90,
              "position": 13.75,
              "duration": 0.010416666666666666
            },
            {
              "pitch": 25,
              "velocity": 107,
              "position": 13.875,
              "duration": 0.010416666666666666
            },
            {
              "pitch": 25,
              "velocity": 127,
              "position": 14,
              "duration": 0.010416666666666666
            },
            {
              "pitch": 33,
              "velocity": 79,
              "position": 14,
              "duration": 0.041666666666666664
            },
            {
              "pitch": 42,
              "velocity": 72,
              "position": 14,
              "duration": 0.052083333333333336
            },
            {
              "pitch": 25,
              "velocity": 115,
              "position": 14.5,
              "duration": 0.010416666666666666
            },
            {
              "pitch": 46,
              "velocity": 54,
              "position": 14.5,
              "duration": 0.020833333333333332
            },
            {
              "pitch": 25,
              "velocity": 108,
              "position": 15,
              "duration": 0.010416666666666666
            },
            {
              "pitch": 33,
              "velocity": 35,
              "position": 15,
              "duration": 0.010416666666666666
            },
            {
              "pitch": 42,
              "velocity": 78,
              "position": 15,
              "duration": 0.052083333333333336
            },
            {
              "pitch": 33,
              "velocity": 29,
              "position": 15.125,
              "duration": 0.010416666666666666
            },
            {
              "pitch": 33,
              "velocity": 43,
              "position": 15.25,
              "duration": 0.010416666666666666
            },
            {
              "pitch": 25,
              "velocity": 83,
              "position": 15.291666666666666,
              "duration": 0.010416666666666666
            },
            {
              "pitch": 33,
              "velocity": 35,
              "position": 15.375,
              "duration": 0.010416666666666666
            },
            {
              "pitch": 33,
              "velocity": 51,
              "position": 15.5,
              "duration": 0.010416666666666666
            },
            {
              "pitch": 46,
              "velocity": 54,
              "position": 15.5,
              "duration": 0.020833333333333332
            },
            {
              "pitch": 33,
              "velocity": 49,
              "position": 15.625,
              "duration": 0.010416666666666666
            },
            {
              "pitch": 33,
              "velocity": 59,
              "position": 15.75,
              "duration": 0.010416666666666666
            },
            {
              "pitch": 25,
              "velocity": 83,
              "position": 15.791666666666666,
              "duration": 0.010416666666666666
            },
            {
              "pitch": 33,
              "velocity": 60,
              "position": 15.875,
              "duration": 0.010416666666666666
            }
          ]
        },
        "11": {
          "ctab": {
            "srcChannel": 11,
            "name": "Bassmaj",
            "accType": "BASS",
            "editable": false,
            "mutedNotes": [],
            "mutedChords": [],
            "autoStart": false,
            "sourceChordNote": 0,
            "sourceChordType": "Maj7",
            "ctb2Low": null,
            "ctb2Main": {
              "ntr": "ROOT_TRANSPOSITION",
              "ntt": "MELODY",
              "bassOn": true,
              "chordRootUpperLimit": 11,
              "noteLowLimit": 28,
              "noteHighLimit": 127,
              "rtr": "PITCH_SHIFT_TO_ROOT"
            },
            "ctb2High": null
          },
          "notes": [
            {
              "pitch": 24,
              "velocity": 90,
              "position": 0.0020833333333333333,
              "duration": 0.75625
            },
            {
              "pitch": 24,
              "velocity": 90,
              "position": 0.7916666666666666,
              "duration": 0.21875
            },
            {
              "pitch": 24,
              "velocity": 90,
              "position": 4,
              "duration": 0.75
            },
            {
              "pitch": 24,
              "velocity": 90,
              "position": 4.791666666666667,
              "duration": 0.21875
            },
            {
              "pitch": 24,
              "velocity": 90,
              "position": 8,
              "duration": 0.75
            },
            {
              "pitch": 24,
              "velocity": 90,
              "position": 8.791666666666666,
              "duration": 0.20833333333333334
            },
            {
              "pitch": 24,
              "velocity": 86,
              "position": 12.002083333333333,
              "duration": 0.45416666666666666
            },
            {
              "pitch": 35,
              "velocity": 65,
              "position": 12.5,
              "duration": 0.20833333333333334
            },
            {
              "pitch": 36,
              "velocity": 82,
              "position": 13,
              "duration": 0.4583333333333333
            },
            {
              "pitch": 31,
              "velocity": 86,
              "position": 14,
              "duration": 0.25
            },
            {
              "pitch": 31,
              "velocity": 65,
              "position": 14.291666666666666,
              "duration": 0.16666666666666666
            },
            {
              "pitch": 36,
              "velocity": 82,
              "position": 14.791666666666666,
              "duration": 0.16666666666666666
            },
            {
              "pitch": 35,
              "velocity": 86,
              "position": 15.291666666666666,
              "duration": 0.16666666666666666
            },
            {
              "pitch": 31,
              "velocity": 65,
              "position": 15.5,
              "duration": 0.4166666666666667
            }
          ]
        },
        "12": {
          "ctab": {
            "srcChannel": 12,
            "name": "Piano00",
            "accType": "CHORD1",
            "editable": false,
            "mutedNotes": [],
            "mutedChords": [],
            "autoStart": false,
            "sourceChordNote": 0,
            "sourceChordType": "min7(11)",
            "ctb2Low": null,
            "ctb2Main": {
              "ntr": "ROOT_FIXED",
              "ntt": "CHORD",
              "bassOn": false,
              "chordRootUpperLimit": 7,
              "noteLowLimit": 50,
              "noteHighLimit": 127,
              "rtr": "PITCH_SHIFT"
            },
            "ctb2High": null
          },
          "notes": [
            {
              "pitch": 53,
              "velocity": 67,
              "position": 12,
              "duration": 0.74375
            },
            {
              "pitch": 58,
              "velocity": 67,
              "position": 12,
              "duration": 0.74375
            },
            {
              "pitch": 63,
              "velocity": 67,
              "position": 12,
              "duration": 0.74375
            },
            {
              "pitch": 53,
              "velocity": 67,
              "position": 13,
              "duration": 0.9583333333333334
            },
            {
              "pitch": 58,
              "velocity": 67,
              "position": 13,
              "duration": 0.9583333333333334
            },
            {
              "pitch": 63,
              "velocity": 67,
              "position": 13,
              "duration": 0.9583333333333334
            },
            {
              "pitch": 63,
              "velocity": 67,
              "position": 14.5,
              "duration": 0.3020833333333333
            },
            {
              "pitch": 65,
              "velocity": 67,
              "position": 14.5,
              "duration": 0.3020833333333333
            },
            {
              "pitch": 70,
              "velocity": 67,
              "position": 14.5,
              "duration": 0.3020833333333333
            },
            {
              "pitch": 63,
              "velocity": 76,
              "position": 15.291666666666666,
              "duration": 0.6729166666666667
            },
            {
              "pitch": 65,
              "velocity": 76,
              "position": 15.291666666666666,
              "duration": 0.6729166666666667
            },
            {
              "pitch": 70,
              "velocity": 76,
              "position": 15.291666666666666,
              "duration": 0.6729166666666667
            }
          ]
        },
        "13": {
          "ctab": {
            "srcChannel": 13,
            "name": "Piano00",
            "accType": "CHORD1",
            "editable": true,
            "mutedNotes": [],
            "mutedChords": [
              "1+2+5",
              "sus4",
              "1+5",
              "1+8",
              "Maj7aug",
              "dim",
              "minMaj7(9)",
              "minMaj7",
              "min6",
              "min",
              "aug",
              "Maj7(9)",
              "Maj7#11",
              "Maj7",
              "Maj6",
              "Maj"
            ],
            "autoStart": false,
            "sourceChordNote": 0,
            "sourceChordType": "min7(11)",
            "ctb2Low": null,
            "ctb2Main": {
              "ntr": "ROOT_TRANSPOSITION",
              "ntt": "CHORD",
              "bassOn": false,
              "chordRootUpperLimit": 6,
              "noteLowLimit": 0,
              "noteHighLimit": 74,
              "rtr": "PITCH_SHIFT"
            },
            "ctb2High": null
          },
          "notes": [
            {
              "pitch": 60,
              "velocity": 67,
              "position": 12,
              "duration": 0.74375
            },
            {
              "pitch": 60,
              "velocity": 67,
              "position": 13,
              "duration": 0.9583333333333334
            },
            {
              "pitch": 72,
              "velocity": 67,
              "position": 14.5,
              "duration": 0.3020833333333333
            },
            {
              "pitch": 72,
              "velocity": 76,
              "position": 15.291666666666666,
              "duration": 0.6729166666666667
            }
          ]
        },
        "14": {
          "ctab": {
            "srcChannel": 14,
            "name": "MGt28",
            "accType": "PHRASE1",
            "editable": false,
            "mutedNotes": [],
            "mutedChords": [],
            "autoStart": false,
            "sourceChordNote": 0,
            "sourceChordType": "min7",
            "ctb2Low": null,
            "ctb2Main": {
              "ntr": "ROOT_TRANSPOSITION",
              "ntt": "CHORD",
              "bassOn": false,
              "chordRootUpperLimit": 11,
              "noteLowLimit": 0,
              "noteHighLimit": 67,
              "rtr": "PITCH_SHIFT"
            },
            "ctb2High": null
          },
          "notes": []
        }
      }
    },
    "Ending_B": {
      "type": "Ending_B",
      "sizeInBeats": 8,
      "channels": {
        "1": {
          "ctab": {
            "srcChannel": 1,
            "name": "88NAgALL",
            "accType": "PAD",
            "editable": false,
            "mutedNotes": [],
            "mutedChords": [],
            "autoStart": false,
            "sourceChordNote": 0,
            "sourceChordType": "min7(11)",
            "ctb2Low": null,
            "ctb2Main": {
              "ntr": "ROOT_FIXED",
              "ntt": "CHORD",
              "bassOn": false,
              "chordRootUpperLimit": 6,
              "noteLowLimit": 62,
              "noteHighLimit": 127,
              "rtr": "PITCH_SHIFT"
            },
            "ctb2High": null
          },
          "notes": [
            {
              "pitch": 63,
              "velocity": 78,
              "position": 0,
              "duration": 6.958333333333333
            },
            {
              "pitch": 65,
              "velocity": 78,
              "position": 0,
              "duration": 6.958333333333333
            },
            {
              "pitch": 70,
              "velocity": 78,
              "position": 0,
              "duration": 6.958333333333333
            }
          ]
        },
        "2": {
          "ctab": {
            "srcChannel": 2,
            "name": "88NAg4Vc",
            "accType": "PAD",
            "editable": false,
            "mutedNotes": [],
            "mutedChords": [
              "1+2+5",
              "sus4",
              "1+5",
              "1+8",
              "Maj7aug",
              "dim",
              "minMaj7(9)",
              "minMaj7",
              "min6",
              "min",
              "aug",
              "Maj7(9)",
              "Maj7#11",
              "Maj7",
              "Maj6",
              "Maj"
            ],
            "autoStart": false,
            "sourceChordNote": 0,
            "sourceChordType": "Maj7",
            "ctb2Low": null,
            "ctb2Main": {
              "ntr": "ROOT_TRANSPOSITION",
              "ntt": "CHORD",
              "bassOn": false,
              "chordRootUpperLimit": 2,
              "noteLowLimit": 0,
              "noteHighLimit": 127,
              "rtr": "PITCH_SHIFT"
            },
            "ctb2High": null
          },
          "notes": [
            {
              "pitch": 72,
              "velocity": 72,
              "position": 0,
              "duration": 6.960416666666666
            }
          ]
        },
        "3": {
          "ctab": {
            "srcChannel": 3,
            "name": "Brite100",
            "accType": "PHRASE2",
            "editable": false,
            "mutedNotes": [],
            "mutedChords": [],
            "autoStart": false,
            "sourceChordNote": 0,
            "sourceChordType": "min7(11)",
            "ctb2Low": null,
            "ctb2Main": {
              "ntr": "ROOT_FIXED",
              "ntt": "CHORD",
              "bassOn": false,
              "chordRootUpperLimit": 8,
              "noteLowLimit": 0,
              "noteHighLimit": 127,
              "rtr": "PITCH_SHIFT"
            },
            "ctb2High": null
          },
          "notes": [
            {
              "pitch": 60,
              "velocity": 93,
              "position": 0.5,
              "duration": 0.375
            },
            {
              "pitch": 67,
              "velocity": 93,
              "position": 1,
              "duration": 0.375
            },
            {
              "pitch": 72,
              "velocity": 93,
              "position": 1.5,
              "duration": 0.375
            },
            {
              "pitch": 67,
              "velocity": 93,
              "position": 2.5,
              "duration": 0.375
            },
            {
              "pitch": 72,
              "velocity": 93,
              "position": 3.5,
              "duration": 0.375
            },
            {
              "pitch": 79,
              "velocity": 93,
              "position": 4,
              "duration": 0.375
            }
          ]
        },
        "7": {
          "ctab": {
            "srcChannel": 7,
            "name": "CC_Crash",
            "accType": "SUBRHYTHM",
            "editable": false,
            "mutedNotes": [],
            "mutedChords": [
              "1+2+5",
              "sus4",
              "1+5",
              "1+8",
              "7aug",
              "Maj7aug",
              "7(#9)",
              "7(b13)",
              "7(b9)",
              "7(13)",
              "7#11",
              "7(9)",
              "7b5",
              "7sus4",
              "7th",
              "dim7",
              "dim",
              "minMaj7(9)",
              "minMaj7",
              "min7(11)",
              "min7(9)",
              "min(9)",
              "m7b5",
              "min7",
              "min6",
              "min",
              "aug",
              "Maj6(9)",
              "Maj7(9)",
              "Maj(9)",
              "Maj7#11",
              "Maj7",
              "Maj6",
              "Maj"
            ],
            "autoStart": true,
            "sourceChordNote": 0,
            "sourceChordType": "Maj",
            "ctb2Low": null,
            "ctb2Main": {
              "ntr": "ROOT_FIXED",
              "ntt": "BYPASS",
              "bassOn": false,
              "chordRootUpperLimit": 0,
              "noteLowLimit": 0,
              "noteHighLimit": 127,
              "rtr": "RETRIGGER"
            },
            "ctb2High": null
          },
          "notes": []
        },
        "8": {
          "ctab": {
            "srcChannel": 8,
            "name": "Perc",
            "accType": "SUBRHYTHM",
            "editable": false,
            "mutedNotes": [],
            "mutedChords": [],
            "autoStart": true,
            "sourceChordNote": 0,
            "sourceChordType": "Maj7",
            "ctb2Low": null,
            "ctb2Main": {
              "ntr": "ROOT_FIXED",
              "ntt": "BYPASS",
              "bassOn": false,
              "chordRootUpperLimit": 6,
              "noteLowLimit": 0,
              "noteHighLimit": 127,
              "rtr": "PITCH_SHIFT"
            },
            "ctb2High": null
          },
          "notes": [
            {
              "pitch": 70,
              "velocity": 37,
              "position": 0,
              "duration": 0.07708333333333334
            },
            {
              "pitch": 70,
              "velocity": 30,
              "position": 0.5,
              "duration": 0.08333333333333333
            },
            {
              "pitch": 54,
              "velocity": 68,
              "position": 1,
              "duration": 0.08333333333333333
            },
            {
              "pitch": 82,
              "velocity": 70,
              "position": 1,
              "duration": 0.08333333333333333
            },
            {
              "pitch": 70,
              "velocity": 30,
              "position": 1.5,
              "duration": 0.08333333333333333
            },
            {
              "pitch": 70,
              "velocity": 4,
              "position": 1.7916666666666667,
              "duration": 0.08333333333333333
            },
            {
              "pitch": 70,
              "velocity": 37,
              "position": 2,
              "duration": 0.08333333333333333
            },
            {
              "pitch": 70,
              "velocity": 10,
              "position": 2.5,
              "duration": 0.08333333333333333
            },
            {
              "pitch": 54,
              "velocity": 68,
              "position": 3,
              "duration": 0.08333333333333333
            },
            {
              "pitch": 82,
              "velocity": 70,
              "position": 3,
              "duration": 0.08333333333333333
            },
            {
              "pitch": 70,
              "velocity": 16,
              "position": 3.5,
              "duration": 0.08333333333333333
            },
            {
              "pitch": 49,
              "velocity": 50,
              "position": 4,
              "duration": 0.010416666666666666
            },
            {
              "pitch": 54,
              "velocity": 68,
              "position": 4,
              "duration": 0.08333333333333333
            },
            {
              "pitch": 70,
              "velocity": 37,
              "position": 4,
              "duration": 0.08333333333333333
            }
          ]
        },
        "9": {
          "ctab": {
            "srcChannel": 9,
            "name": "MainDrum",
            "accType": "RHYTHM",
            "editable": false,
            "mutedNotes": [],
            "mutedChords": [],
            "autoStart": true,
            "sourceChordNote": 0,
            "sourceChordType": "Maj7",
            "ctb2Low": null,
            "ctb2Main": {
              "ntr": "ROOT_FIXED",
              "ntt": "BYPASS",
              "bassOn": false,
              "chordRootUpperLimit": 6,
              "noteLowLimit": 0,
              "noteHighLimit": 127,
              "rtr": "PITCH_SHIFT"
            },
            "ctb2High": null
          },
          "notes": [
            {
              "pitch": 33,
              "velocity": 79,
              "position": 0.0020833333333333333,
              "duration": 0.041666666666666664
            },
            {
              "pitch": 42,
              "velocity": 78,
              "position": 0.0020833333333333333,
              "duration": 0.04791666666666667
            },
            {
              "pitch": 42,
              "velocity": 31,
              "position": 0.5,
              "duration": 0.052083333333333336
            },
            {
              "pitch": 25,
              "velocity": 116,
              "position": 1,
              "duration": 0.010416666666666666
            },
            {
              "pitch": 33,
              "velocity": 79,
              "position": 1,
              "duration": 0.041666666666666664
            },
            {
              "pitch": 42,
              "velocity": 78,
              "position": 1,
              "duration": 0.052083333333333336
            },
            {
              "pitch": 42,
              "velocity": 32,
              "position": 1.5,
              "duration": 0.052083333333333336
            },
            {
              "pitch": 25,
              "velocity": 96,
              "position": 1.7916666666666667,
              "duration": 0.010416666666666666
            },
            {
              "pitch": 33,
              "velocity": 79,
              "position": 2,
              "duration": 0.041666666666666664
            },
            {
              "pitch": 42,
              "velocity": 78,
              "position": 2,
              "duration": 0.052083333333333336
            },
            {
              "pitch": 25,
              "velocity": 96,
              "position": 2.2916666666666665,
              "duration": 0.010416666666666666
            },
            {
              "pitch": 46,
              "velocity": 54,
              "position": 2.5,
              "duration": 0.020833333333333332
            },
            {
              "pitch": 25,
              "velocity": 116,
              "position": 3,
              "duration": 0.010416666666666666
            },
            {
              "pitch": 33,
              "velocity": 79,
              "position": 3,
              "duration": 0.041666666666666664
            },
            {
              "pitch": 42,
              "velocity": 78,
              "position": 3,
              "duration": 0.052083333333333336
            },
            {
              "pitch": 46,
              "velocity": 54,
              "position": 3.5,
              "duration": 0.020833333333333332
            },
            {
              "pitch": 25,
              "velocity": 116,
              "position": 3.7916666666666665,
              "duration": 0.010416666666666666
            },
            {
              "pitch": 42,
              "velocity": 64,
              "position": 4,
              "duration": 0.020833333333333332
            },
            {
              "pitch": 33,
              "velocity": 79,
              "position": 4,
              "duration": 0.041666666666666664
            }
          ]
        },
        "11": {
          "ctab": {
            "srcChannel": 11,
            "name": "Bassmaj",
            "accType": "BASS",
            "editable": false,
            "mutedNotes": [],
            "mutedChords": [],
            "autoStart": false,
            "sourceChordNote": 0,
            "sourceChordType": "Maj7",
            "ctb2Low": null,
            "ctb2Main": {
              "ntr": "ROOT_TRANSPOSITION",
              "ntt": "MELODY",
              "bassOn": true,
              "chordRootUpperLimit": 11,
              "noteLowLimit": 28,
              "noteHighLimit": 127,
              "rtr": "PITCH_SHIFT_TO_ROOT"
            },
            "ctb2High": null
          },
          "notes": [
            {
              "pitch": 24,
              "velocity": 90,
              "position": 0.0020833333333333333,
              "duration": 0.7458333333333333
            },
            {
              "pitch": 24,
              "velocity": 90,
              "position": 0.7916666666666666,
              "duration": 0.20833333333333334
            },
            {
              "pitch": 24,
              "velocity": 90,
              "position": 1.2916666666666667,
              "duration": 0.1875
            },
            {
              "pitch": 31,
              "velocity": 86,
              "position": 1.5,
              "duration": 0.4583333333333333
            },
            {
              "pitch": 35,
              "velocity": 86,
              "position": 2,
              "duration": 0.20833333333333334
            },
            {
              "pitch": 36,
              "velocity": 65,
              "position": 2.5,
              "duration": 0.20833333333333334
            },
            {
              "pitch": 35,
              "velocity": 86,
              "position": 3,
              "duration": 0.20833333333333334
            },
            {
              "pitch": 31,
              "velocity": 65,
              "position": 3.5,
              "duration": 0.4583333333333333
            },
            {
              "pitch": 24,
              "velocity": 90,
              "position": 4,
              "duration": 2.9895833333333335
            }
          ]
        },
        "12": {
          "ctab": {
            "srcChannel": 12,
            "name": "Piano00",
            "accType": "CHORD1",
            "editable": false,
            "mutedNotes": [],
            "mutedChords": [],
            "autoStart": false,
            "sourceChordNote": 0,
            "sourceChordType": "min7(11)",
            "ctb2Low": null,
            "ctb2Main": {
              "ntr": "ROOT_FIXED",
              "ntt": "CHORD",
              "bassOn": false,
              "chordRootUpperLimit": 7,
              "noteLowLimit": 50,
              "noteHighLimit": 127,
              "rtr": "PITCH_SHIFT"
            },
            "ctb2High": null
          },
          "notes": [
            {
              "pitch": 53,
              "velocity": 67,
              "position": 0.0020833333333333333,
              "duration": 0.7458333333333333
            },
            {
              "pitch": 58,
              "velocity": 67,
              "position": 0.0020833333333333333,
              "duration": 0.7458333333333333
            },
            {
              "pitch": 63,
              "velocity": 67,
              "position": 0.0020833333333333333,
              "duration": 0.7458333333333333
            },
            {
              "pitch": 53,
              "velocity": 67,
              "position": 0.7916666666666666,
              "duration": 0.16666666666666666
            },
            {
              "pitch": 58,
              "velocity": 67,
              "position": 0.7916666666666666,
              "duration": 0.16666666666666666
            },
            {
              "pitch": 63,
              "velocity": 67,
              "position": 0.7916666666666666,
              "duration": 0.16666666666666666
            },
            {
              "pitch": 58,
              "velocity": 67,
              "position": 1.5,
              "duration": 0.4583333333333333
            },
            {
              "pitch": 63,
              "velocity": 67,
              "position": 1.5,
              "duration": 0.4583333333333333
            },
            {
              "pitch": 65,
              "velocity": 67,
              "position": 1.5,
              "duration": 0.4583333333333333
            },
            {
              "pitch": 53,
              "velocity": 67,
              "position": 4,
              "duration": 2.9583333333333335
            },
            {
              "pitch": 58,
              "velocity": 67,
              "position": 4,
              "duration": 2.9583333333333335
            },
            {
              "pitch": 63,
              "velocity": 67,
              "position": 4,
              "duration": 2.9583333333333335
            }
          ]
        },
        "13": {
          "ctab": {
            "srcChannel": 13,
            "name": "Piano00",
            "accType": "CHORD1",
            "editable": true,
            "mutedNotes": [],
            "mutedChords": [
              "1+2+5",
              "sus4",
              "1+5",
              "1+8",
              "Maj7aug",
              "dim",
              "minMaj7(9)",
              "minMaj7",
              "min6",
              "min",
              "aug",
              "Maj7(9)",
              "Maj7#11",
              "Maj7",
              "Maj6",
              "Maj"
            ],
            "autoStart": false,
            "sourceChordNote": 0,
            "sourceChordType": "min7(11)",
            "ctb2Low": null,
            "ctb2Main": {
              "ntr": "ROOT_TRANSPOSITION",
              "ntt": "CHORD",
              "bassOn": false,
              "chordRootUpperLimit": 6,
              "noteLowLimit": 0,
              "noteHighLimit": 74,
              "rtr": "PITCH_SHIFT"
            },
            "ctb2High": null
          },
          "notes": [
            {
              "pitch": 60,
              "velocity": 67,
              "position": 0.0020833333333333333,
              "duration": 0.7458333333333333
            },
            {
              "pitch": 60,
              "velocity": 67,
              "position": 0.7916666666666666,
              "duration": 0.16666666666666666
            },
            {
              "pitch": 60,
              "velocity": 67,
              "position": 1.5,
              "duration": 0.4583333333333333
            },
            {
              "pitch": 60,
              "velocity": 67,
              "position": 4,
              "duration": 2.9583333333333335
            }
          ]
        },
        "14": {
          "ctab": {
            "srcChannel": 14,
            "name": "MGt28",
            "accType": "PHRASE1",
            "editable": false,
            "mutedNotes": [],
            "mutedChords": [],
            "autoStart": false,
            "sourceChordNote": 0,
            "sourceChordType": "min7",
            "ctb2Low": null,
            "ctb2Main": {
              "ntr": "ROOT_TRANSPOSITION",
              "ntt": "CHORD",
              "bassOn": false,
              "chordRootUpperLimit": 11,
              "noteLowLimit": 0,
              "noteHighLimit": 67,
              "rtr": "PITCH_SHIFT"
            },
            "ctb2High": null
          },
          "notes": [
            {
              "pitch": 48,
              "velocity": 94,
              "position": 0.0020833333333333333,
              "duration": 0.45416666666666666
            },
            {
              "pitch": 55,
              "velocity": 94,
              "position": 0.0020833333333333333,
              "duration": 0.45416666666666666
            },
            {
              "pitch": 55,
              "velocity": 90,
              "position": 0.5,
              "duration": 0.25
            },
            {
              "pitch": 60,
              "velocity": 90,
              "position": 0.5,
              "duration": 0.25
            },
            {
              "pitch": 60,
              "velocity": 82,
              "position": 0.7916666666666666,
              "duration": 0.10416666666666667
            },
            {
              "pitch": 58,
              "velocity": 89,
              "position": 1,
              "duration": 0.25
            },
            {
              "pitch": 60,
              "velocity": 82,
              "position": 1.2916666666666667,
              "duration": 0.10416666666666667
            },
            {
              "pitch": 48,
              "velocity": 94,
              "position": 1.5,
              "duration": 0.20833333333333334
            },
            {
              "pitch": 55,
              "velocity": 94,
              "position": 1.5,
              "duration": 0.20833333333333334
            },
            {
              "pitch": 48,
              "velocity": 94,
              "position": 2,
              "duration": 0.20833333333333334
            },
            {
              "pitch": 55,
              "velocity": 94,
              "position": 2,
              "duration": 0.20833333333333334
            },
            {
              "pitch": 48,
              "velocity": 84,
              "position": 2.5,
              "duration": 0.20833333333333334
            },
            {
              "pitch": 51,
              "velocity": 94,
              "position": 3,
              "duration": 0.4583333333333333
            },
            {
              "pitch": 58,
              "velocity": 94,
              "position": 3,
              "duration": 0.4583333333333333
            },
            {
              "pitch": 55,
              "velocity": 84,
              "position": 3.5,
              "duration": 0.20833333333333334
            },
            {
              "pitch": 55,
              "velocity": 94,
              "position": 4,
              "duration": 2.9583333333333335
            },
            {
              "pitch": 60,
              "velocity": 94,
              "position": 4,
              "duration": 2.9583333333333335
            }
          ]
        }
      }
    },
    "Main_C": {
      "type": "Main_C",
      "sizeInBeats": 8,
      "channels": {
        "1": {
          "ctab": {
            "srcChannel": 1,
            "name": "88NAgALL",
            "accType": "PAD",
            "editable": false,
            "mutedNotes": [],
            "mutedChords": [],
            "autoStart": false,
            "sourceChordNote": 0,
            "sourceChordType": "min7(11)",
            "ctb2Low": null,
            "ctb2Main": {
              "ntr": "ROOT_FIXED",
              "ntt": "CHORD",
              "bassOn": false,
              "chordRootUpperLimit": 6,
              "noteLowLimit": 62,
              "noteHighLimit": 127,
              "rtr": "PITCH_SHIFT"
            },
            "ctb2High": null
          },
          "notes": []
        },
        "2": {
          "ctab": {
            "srcChannel": 2,
            "name": "88NAg4Vc",
            "accType": "PAD",
            "editable": false,
            "mutedNotes": [],
            "mutedChords": [
              "1+2+5",
              "sus4",
              "1+5",
              "1+8",
              "Maj7aug",
              "dim",
              "minMaj7(9)",
              "minMaj7",
              "min6",
              "min",
              "aug",
              "Maj7(9)",
              "Maj7#11",
              "Maj7",
              "Maj6",
              "Maj"
            ],
            "autoStart": false,
            "sourceChordNote": 0,
            "sourceChordType": "Maj7",
            "ctb2Low": null,
            "ctb2Main": {
              "ntr": "ROOT_TRANSPOSITION",
              "ntt": "CHORD",
              "bassOn": false,
              "chordRootUpperLimit": 6,
              "noteLowLimit": 0,
              "noteHighLimit": 127,
              "rtr": "PITCH_SHIFT"
            },
            "ctb2High": null
          },
          "notes": [
            {
              "pitch": 72,
              "velocity": 50,
              "position": 0,
              "duration": 7.989583333333333
            }
          ]
        },
        "3": {
          "ctab": {
            "srcChannel": 3,
            "name": "Brite100",
            "accType": "PHRASE2",
            "editable": false,
            "mutedNotes": [],
            "mutedChords": [],
            "autoStart": false,
            "sourceChordNote": 0,
            "sourceChordType": "min7(11)",
            "ctb2Low": null,
            "ctb2Main": {
              "ntr": "ROOT_FIXED",
              "ntt": "CHORD",
              "bassOn": false,
              "chordRootUpperLimit": 8,
              "noteLowLimit": 62,
              "noteHighLimit": 127,
              "rtr": "PITCH_SHIFT"
            },
            "ctb2High": null
          },
          "notes": []
        },
        "4": {
          "ctab": {
            "srcChannel": 4,
            "name": "Clean27",
            "accType": "CHORD2",
            "editable": false,
            "mutedNotes": [],
            "mutedChords": [],
            "autoStart": false,
            "sourceChordNote": 0,
            "sourceChordType": "min7(11)",
            "ctb2Low": null,
            "ctb2Main": {
              "ntr": "ROOT_FIXED",
              "ntt": "CHORD",
              "bassOn": false,
              "chordRootUpperLimit": 7,
              "noteLowLimit": 0,
              "noteHighLimit": 127,
              "rtr": "PITCH_SHIFT"
            },
            "ctb2High": null
          },
          "notes": [
            {
              "pitch": 65,
              "velocity": 80,
              "position": 0.020833333333333332,
              "duration": 0.46875
            },
            {
              "pitch": 63,
              "velocity": 80,
              "position": 0.010416666666666666,
              "duration": 0.4895833333333333
            },
            {
              "pitch": 58,
              "velocity": 80,
              "position": 0.0020833333333333333,
              "duration": 0.5104166666666666
            },
            {
              "pitch": 65,
              "velocity": 87,
              "position": 0.5,
              "duration": 0.2708333333333333
            },
            {
              "pitch": 63,
              "velocity": 86,
              "position": 0.5104166666666666,
              "duration": 0.2708333333333333
            },
            {
              "pitch": 58,
              "velocity": 87,
              "position": 0.5208333333333334,
              "duration": 0.2708333333333333
            },
            {
              "pitch": 65,
              "velocity": 98,
              "position": 0.78125,
              "duration": 0.10416666666666667
            },
            {
              "pitch": 63,
              "velocity": 98,
              "position": 0.7916666666666666,
              "duration": 0.10416666666666667
            },
            {
              "pitch": 58,
              "velocity": 97,
              "position": 0.8020833333333334,
              "duration": 0.10416666666666667
            },
            {
              "pitch": 65,
              "velocity": 91,
              "position": 3.0104166666666665,
              "duration": 0.46875
            },
            {
              "pitch": 63,
              "velocity": 91,
              "position": 3,
              "duration": 0.4895833333333333
            },
            {
              "pitch": 65,
              "velocity": 87,
              "position": 3.4895833333333335,
              "duration": 0.2708333333333333
            },
            {
              "pitch": 63,
              "velocity": 86,
              "position": 3.5,
              "duration": 0.2708333333333333
            },
            {
              "pitch": 63,
              "velocity": 78,
              "position": 3.78125,
              "duration": 0.20833333333333334
            },
            {
              "pitch": 58,
              "velocity": 77,
              "position": 3.7916666666666665,
              "duration": 0.19791666666666666
            },
            {
              "pitch": 65,
              "velocity": 78,
              "position": 3.7708333333333335,
              "duration": 0.22916666666666666
            },
            {
              "pitch": 65,
              "velocity": 89,
              "position": 4.010416666666667,
              "duration": 0.46875
            },
            {
              "pitch": 63,
              "velocity": 89,
              "position": 4,
              "duration": 0.4895833333333333
            },
            {
              "pitch": 58,
              "velocity": 89,
              "position": 3.9916666666666667,
              "duration": 0.5104166666666666
            },
            {
              "pitch": 65,
              "velocity": 87,
              "position": 4.489583333333333,
              "duration": 0.2708333333333333
            },
            {
              "pitch": 63,
              "velocity": 86,
              "position": 4.5,
              "duration": 0.2708333333333333
            },
            {
              "pitch": 58,
              "velocity": 87,
              "position": 4.510416666666667,
              "duration": 0.2708333333333333
            },
            {
              "pitch": 65,
              "velocity": 98,
              "position": 4.770833333333333,
              "duration": 0.10416666666666667
            },
            {
              "pitch": 63,
              "velocity": 98,
              "position": 4.78125,
              "duration": 0.10416666666666667
            },
            {
              "pitch": 58,
              "velocity": 97,
              "position": 4.791666666666667,
              "duration": 0.10416666666666667
            },
            {
              "pitch": 65,
              "velocity": 86,
              "position": 7.020833333333333,
              "duration": 0.9270833333333334
            },
            {
              "pitch": 58,
              "velocity": 87,
              "position": 7,
              "duration": 0.9583333333333334
            },
            {
              "pitch": 63,
              "velocity": 87,
              "position": 7.010416666666667,
              "duration": 0.9583333333333334
            }
          ]
        },
        "5": {
          "ctab": {
            "srcChannel": 5,
            "name": "Clean27",
            "accType": "CHORD2",
            "editable": false,
            "mutedNotes": [],
            "mutedChords": [],
            "autoStart": false,
            "sourceChordNote": 0,
            "sourceChordType": "min7(11)",
            "ctb2Low": null,
            "ctb2Main": {
              "ntr": "ROOT_TRANSPOSITION",
              "ntt": "CHORD",
              "bassOn": false,
              "chordRootUpperLimit": 3,
              "noteLowLimit": 0,
              "noteHighLimit": 127,
              "rtr": "PITCH_SHIFT"
            },
            "ctb2High": null
          },
          "notes": []
        },
        "7": {
          "ctab": {
            "srcChannel": 7,
            "name": "CC_Crash",
            "accType": "SUBRHYTHM",
            "editable": false,
            "mutedNotes": [],
            "mutedChords": [
              "1+2+5",
              "sus4",
              "1+5",
              "1+8",
              "7aug",
              "Maj7aug",
              "7(#9)",
              "7(b13)",
              "7(b9)",
              "7(13)",
              "7#11",
              "7(9)",
              "7b5",
              "7sus4",
              "7th",
              "dim7",
              "dim",
              "minMaj7(9)",
              "minMaj7",
              "min7(11)",
              "min7(9)",
              "min(9)",
              "m7b5",
              "min7",
              "min6",
              "min",
              "aug",
              "Maj6(9)",
              "Maj7(9)",
              "Maj(9)",
              "Maj7#11",
              "Maj7",
              "Maj6",
              "Maj"
            ],
            "autoStart": true,
            "sourceChordNote": 0,
            "sourceChordType": "Maj",
            "ctb2Low": null,
            "ctb2Main": {
              "ntr": "ROOT_FIXED",
              "ntt": "BYPASS",
              "bassOn": false,
              "chordRootUpperLimit": 0,
              "noteLowLimit": 0,
              "noteHighLimit": 127,
              "rtr": "RETRIGGER"
            },
            "ctb2High": null
          },
          "notes": []
        },
        "8": {
          "ctab": {
            "srcChannel": 8,
            "name": "Perc",
            "accType": "SUBRHYTHM",
            "editable": false,
            "mutedNotes": [],
            "mutedChords": [],
            "autoStart": true,
            "sourceChordNote": 0,
            "sourceChordType": "Maj7",
            "ctb2Low": null,
            "ctb2Main": {
              "ntr": "ROOT_FIXED",
              "ntt": "BYPASS",
              "bassOn": false,
              "chordRootUpperLimit": 6,
              "noteLowLimit": 0,
              "noteHighLimit": 127,
              "rtr": "PITCH_SHIFT"
            },
            "ctb2High": null
          },
          "notes": [
            {
              "pitch": 70,
              "velocity": 37,
              "position": 0.0020833333333333333,
              "duration": 0.07916666666666666
            },
            {
              "pitch": 59,
              "velocity": 46,
              "position": 0,
              "duration": 0.08333333333333333
            },
            {
              "pitch": 54,
              "velocity": 31,
              "position": 0.4895833333333333,
              "duration": 0.08333333333333333
            },
            {
              "pitch": 70,
              "velocity": 13,
              "position": 0.49375,
              "duration": 0.08333333333333333
            },
            {
              "pitch": 70,
              "velocity": 21,
              "position": 0.7708333333333334,
              "duration": 0.08333333333333333
            },
            {
              "pitch": 70,
              "velocity": 34,
              "position": 0.99375,
              "duration": 0.08333333333333333
            },
            {
              "pitch": 59,
              "velocity": 46,
              "position": 1,
              "duration": 0.08333333333333333
            },
            {
              "pitch": 70,
              "velocity": 13,
              "position": 1.49375,
              "duration": 0.08333333333333333
            },
            {
              "pitch": 54,
              "velocity": 31,
              "position": 1.4979166666666666,
              "duration": 0.08333333333333333
            },
            {
              "pitch": 70,
              "velocity": 34,
              "position": 1.99375,
              "duration": 0.08333333333333333
            },
            {
              "pitch": 59,
              "velocity": 46,
              "position": 2,
              "duration": 0.08333333333333333
            },
            {
              "pitch": 54,
              "velocity": 31,
              "position": 2.4895833333333335,
              "duration": 0.08333333333333333
            },
            {
              "pitch": 70,
              "velocity": 13,
              "position": 2.49375,
              "duration": 0.08333333333333333
            },
            {
              "pitch": 70,
              "velocity": 15,
              "position": 2.7708333333333335,
              "duration": 0.08333333333333333
            },
            {
              "pitch": 70,
              "velocity": 34,
              "position": 2.99375,
              "duration": 0.08333333333333333
            },
            {
              "pitch": 59,
              "velocity": 46,
              "position": 3,
              "duration": 0.08333333333333333
            },
            {
              "pitch": 70,
              "velocity": 13,
              "position": 3.49375,
              "duration": 0.08333333333333333
            },
            {
              "pitch": 54,
              "velocity": 31,
              "position": 3.497916666666667,
              "duration": 0.08333333333333333
            },
            {
              "pitch": 70,
              "velocity": 34,
              "position": 3.99375,
              "duration": 0.08333333333333333
            },
            {
              "pitch": 59,
              "velocity": 46,
              "position": 4,
              "duration": 0.08333333333333333
            },
            {
              "pitch": 54,
              "velocity": 31,
              "position": 4.489583333333333,
              "duration": 0.08333333333333333
            },
            {
              "pitch": 70,
              "velocity": 13,
              "position": 4.49375,
              "duration": 0.08333333333333333
            },
            {
              "pitch": 70,
              "velocity": 34,
              "position": 4.99375,
              "duration": 0.08333333333333333
            },
            {
              "pitch": 59,
              "velocity": 46,
              "position": 5,
              "duration": 0.08333333333333333
            },
            {
              "pitch": 70,
              "velocity": 18,
              "position": 5.49375,
              "duration": 0.08333333333333333
            },
            {
              "pitch": 54,
              "velocity": 31,
              "position": 5.497916666666667,
              "duration": 0.08333333333333333
            },
            {
              "pitch": 70,
              "velocity": 13,
              "position": 5.770833333333333,
              "duration": 0.08333333333333333
            },
            {
              "pitch": 70,
              "velocity": 34,
              "position": 5.99375,
              "duration": 0.08333333333333333
            },
            {
              "pitch": 59,
              "velocity": 46,
              "position": 6,
              "duration": 0.08333333333333333
            },
            {
              "pitch": 70,
              "velocity": 21,
              "position": 6.227083333333334,
              "duration": 0.08333333333333333
            },
            {
              "pitch": 54,
              "velocity": 31,
              "position": 6.489583333333333,
              "duration": 0.08333333333333333
            },
            {
              "pitch": 70,
              "velocity": 13,
              "position": 6.49375,
              "duration": 0.08333333333333333
            },
            {
              "pitch": 70,
              "velocity": 34,
              "position": 6.99375,
              "duration": 0.08333333333333333
            },
            {
              "pitch": 59,
              "velocity": 46,
              "position": 7,
              "duration": 0.08333333333333333
            },
            {
              "pitch": 70,
              "velocity": 13,
              "position": 7.49375,
              "duration": 0.08333333333333333
            },
            {
              "pitch": 54,
              "velocity": 31,
              "position": 7.539583333333334,
              "duration": 0.08333333333333333
            }
          ]
        },
        "9": {
          "ctab": {
            "srcChannel": 9,
            "name": "MainDrum",
            "accType": "RHYTHM",
            "editable": false,
            "mutedNotes": [],
            "mutedChords": [],
            "autoStart": true,
            "sourceChordNote": 0,
            "sourceChordType": "Maj7",
            "ctb2Low": null,
            "ctb2Main": {
              "ntr": "ROOT_FIXED",
              "ntt": "BYPASS",
              "bassOn": false,
              "chordRootUpperLimit": 6,
              "noteLowLimit": 0,
              "noteHighLimit": 127,
              "rtr": "PITCH_SHIFT"
            },
            "ctb2High": null
          },
          "notes": [
            {
              "pitch": 33,
              "velocity": 79,
              "position": 0.0020833333333333333,
              "duration": 0.041666666666666664
            },
            {
              "pitch": 42,
              "velocity": 64,
              "position": 0.0020833333333333333,
              "duration": 0.04791666666666667
            },
            {
              "pitch": 42,
              "velocity": 52,
              "position": 0.2916666666666667,
              "duration": 0.08333333333333333
            },
            {
              "pitch": 42,
              "velocity": 89,
              "position": 0.48333333333333334,
              "duration": 0.020833333333333332
            },
            {
              "pitch": 25,
              "velocity": 116,
              "position": 1,
              "duration": 0.010416666666666666
            },
            {
              "pitch": 33,
              "velocity": 79,
              "position": 1,
              "duration": 0.041666666666666664
            },
            {
              "pitch": 42,
              "velocity": 78,
              "position": 1,
              "duration": 0.052083333333333336
            },
            {
              "pitch": 46,
              "velocity": 54,
              "position": 1.5,
              "duration": 0.020833333333333332
            },
            {
              "pitch": 42,
              "velocity": 43,
              "position": 1.6833333333333333,
              "duration": 0.010416666666666666
            },
            {
              "pitch": 42,
              "velocity": 60,
              "position": 1.8,
              "duration": 0.08333333333333333
            },
            {
              "pitch": 33,
              "velocity": 79,
              "position": 2,
              "duration": 0.041666666666666664
            },
            {
              "pitch": 42,
              "velocity": 78,
              "position": 2,
              "duration": 0.052083333333333336
            },
            {
              "pitch": 42,
              "velocity": 82,
              "position": 2.4833333333333334,
              "duration": 0.020833333333333332
            },
            {
              "pitch": 25,
              "velocity": 116,
              "position": 3,
              "duration": 0.010416666666666666
            },
            {
              "pitch": 33,
              "velocity": 79,
              "position": 3,
              "duration": 0.041666666666666664
            },
            {
              "pitch": 42,
              "velocity": 78,
              "position": 3,
              "duration": 0.052083333333333336
            },
            {
              "pitch": 46,
              "velocity": 54,
              "position": 3.5,
              "duration": 0.020833333333333332
            },
            {
              "pitch": 33,
              "velocity": 79,
              "position": 4,
              "duration": 0.041666666666666664
            },
            {
              "pitch": 42,
              "velocity": 72,
              "position": 4,
              "duration": 0.052083333333333336
            },
            {
              "pitch": 42,
              "velocity": 52,
              "position": 4.291666666666667,
              "duration": 0.08333333333333333
            },
            {
              "pitch": 42,
              "velocity": 84,
              "position": 4.483333333333333,
              "duration": 0.020833333333333332
            },
            {
              "pitch": 25,
              "velocity": 116,
              "position": 5,
              "duration": 0.010416666666666666
            },
            {
              "pitch": 33,
              "velocity": 79,
              "position": 5,
              "duration": 0.041666666666666664
            },
            {
              "pitch": 42,
              "velocity": 78,
              "position": 5,
              "duration": 0.052083333333333336
            },
            {
              "pitch": 46,
              "velocity": 54,
              "position": 5.5,
              "duration": 0.020833333333333332
            },
            {
              "pitch": 42,
              "velocity": 62,
              "position": 5.8,
              "duration": 0.08333333333333333
            },
            {
              "pitch": 33,
              "velocity": 79,
              "position": 6,
              "duration": 0.041666666666666664
            },
            {
              "pitch": 42,
              "velocity": 72,
              "position": 6,
              "duration": 0.052083333333333336
            },
            {
              "pitch": 42,
              "velocity": 90,
              "position": 6.483333333333333,
              "duration": 0.020833333333333332
            },
            {
              "pitch": 25,
              "velocity": 116,
              "position": 7,
              "duration": 0.010416666666666666
            },
            {
              "pitch": 33,
              "velocity": 79,
              "position": 7,
              "duration": 0.041666666666666664
            },
            {
              "pitch": 42,
              "velocity": 78,
              "position": 7,
              "duration": 0.052083333333333336
            },
            {
              "pitch": 46,
              "velocity": 54,
              "position": 7.5,
              "duration": 0.020833333333333332
            }
          ]
        },
        "11": {
          "ctab": {
            "srcChannel": 11,
            "name": "Bassmaj",
            "accType": "BASS",
            "editable": false,
            "mutedNotes": [],
            "mutedChords": [],
            "autoStart": false,
            "sourceChordNote": 0,
            "sourceChordType": "Maj7",
            "ctb2Low": null,
            "ctb2Main": {
              "ntr": "ROOT_TRANSPOSITION",
              "ntt": "MELODY",
              "bassOn": true,
              "chordRootUpperLimit": 11,
              "noteLowLimit": 28,
              "noteHighLimit": 127,
              "rtr": "PITCH_SHIFT_TO_ROOT"
            },
            "ctb2High": null
          },
          "notes": [
            {
              "pitch": 24,
              "velocity": 80,
              "position": 0.0020833333333333333,
              "duration": 0.7395833333333334
            },
            {
              "pitch": 24,
              "velocity": 93,
              "position": 0.7916666666666666,
              "duration": 0.17083333333333334
            },
            {
              "pitch": 31,
              "velocity": 71,
              "position": 1.2395833333333333,
              "duration": 0.16666666666666666
            },
            {
              "pitch": 35,
              "velocity": 82,
              "position": 1.4833333333333334,
              "duration": 0.4583333333333333
            },
            {
              "pitch": 36,
              "velocity": 86,
              "position": 2,
              "duration": 0.26875
            },
            {
              "pitch": 31,
              "velocity": 82,
              "position": 3.5,
              "duration": 0.4583333333333333
            },
            {
              "pitch": 24,
              "velocity": 80,
              "position": 4,
              "duration": 0.75
            },
            {
              "pitch": 24,
              "velocity": 93,
              "position": 4.791666666666667,
              "duration": 0.17083333333333334
            },
            {
              "pitch": 31,
              "velocity": 71,
              "position": 5.239583333333333,
              "duration": 0.16666666666666666
            },
            {
              "pitch": 35,
              "velocity": 82,
              "position": 5.483333333333333,
              "duration": 0.4583333333333333
            },
            {
              "pitch": 36,
              "velocity": 86,
              "position": 6,
              "duration": 0.23958333333333334
            },
            {
              "pitch": 35,
              "velocity": 86,
              "position": 6.5,
              "duration": 0.28125
            },
            {
              "pitch": 36,
              "velocity": 93,
              "position": 7,
              "duration": 0.24583333333333332
            }
          ]
        },
        "12": {
          "ctab": {
            "srcChannel": 12,
            "name": "Piano00",
            "accType": "CHORD1",
            "editable": false,
            "mutedNotes": [],
            "mutedChords": [],
            "autoStart": false,
            "sourceChordNote": 0,
            "sourceChordType": "min7(11)",
            "ctb2Low": null,
            "ctb2Main": {
              "ntr": "ROOT_FIXED",
              "ntt": "CHORD",
              "bassOn": false,
              "chordRootUpperLimit": 7,
              "noteLowLimit": 0,
              "noteHighLimit": 127,
              "rtr": "PITCH_SHIFT"
            },
            "ctb2High": null
          },
          "notes": [
            {
              "pitch": 58,
              "velocity": 65,
              "position": 0.7916666666666666,
              "duration": 0.16666666666666666
            },
            {
              "pitch": 63,
              "velocity": 65,
              "position": 0.7916666666666666,
              "duration": 0.16666666666666666
            },
            {
              "pitch": 65,
              "velocity": 65,
              "position": 0.7916666666666666,
              "duration": 0.16666666666666666
            },
            {
              "pitch": 58,
              "velocity": 65,
              "position": 1.5,
              "duration": 0.16666666666666666
            },
            {
              "pitch": 63,
              "velocity": 65,
              "position": 1.5,
              "duration": 0.16666666666666666
            },
            {
              "pitch": 65,
              "velocity": 65,
              "position": 1.5,
              "duration": 0.16666666666666666
            },
            {
              "pitch": 58,
              "velocity": 65,
              "position": 2.5,
              "duration": 0.16666666666666666
            },
            {
              "pitch": 63,
              "velocity": 65,
              "position": 2.5,
              "duration": 0.16666666666666666
            },
            {
              "pitch": 65,
              "velocity": 65,
              "position": 2.5,
              "duration": 0.16666666666666666
            },
            {
              "pitch": 58,
              "velocity": 65,
              "position": 3.2916666666666665,
              "duration": 0.6666666666666666
            },
            {
              "pitch": 63,
              "velocity": 65,
              "position": 3.2916666666666665,
              "duration": 0.6666666666666666
            },
            {
              "pitch": 65,
              "velocity": 65,
              "position": 3.2916666666666665,
              "duration": 0.6666666666666666
            },
            {
              "pitch": 58,
              "velocity": 65,
              "position": 4.791666666666667,
              "duration": 0.16666666666666666
            },
            {
              "pitch": 63,
              "velocity": 65,
              "position": 4.791666666666667,
              "duration": 0.16666666666666666
            },
            {
              "pitch": 65,
              "velocity": 65,
              "position": 4.791666666666667,
              "duration": 0.16666666666666666
            },
            {
              "pitch": 58,
              "velocity": 65,
              "position": 5.5,
              "duration": 0.16666666666666666
            },
            {
              "pitch": 63,
              "velocity": 65,
              "position": 5.5,
              "duration": 0.16666666666666666
            },
            {
              "pitch": 65,
              "velocity": 65,
              "position": 5.5,
              "duration": 0.16666666666666666
            },
            {
              "pitch": 58,
              "velocity": 65,
              "position": 6.5,
              "duration": 0.16666666666666666
            },
            {
              "pitch": 63,
              "velocity": 65,
              "position": 6.5,
              "duration": 0.16666666666666666
            },
            {
              "pitch": 65,
              "velocity": 65,
              "position": 6.5,
              "duration": 0.16666666666666666
            },
            {
              "pitch": 58,
              "velocity": 65,
              "position": 7.291666666666667,
              "duration": 0.6666666666666666
            },
            {
              "pitch": 63,
              "velocity": 65,
              "position": 7.291666666666667,
              "duration": 0.6666666666666666
            },
            {
              "pitch": 65,
              "velocity": 65,
              "position": 7.291666666666667,
              "duration": 0.6666666666666666
            }
          ]
        },
        "13": {
          "ctab": {
            "srcChannel": 13,
            "name": "Piano00",
            "accType": "CHORD1",
            "editable": false,
            "mutedNotes": [],
            "mutedChords": [
              "1+2+5",
              "sus4",
              "1+5",
              "1+8",
              "Maj7aug",
              "dim",
              "minMaj7(9)",
              "minMaj7",
              "min6",
              "min",
              "aug",
              "Maj7(9)",
              "Maj7#11",
              "Maj7",
              "Maj6",
              "Maj"
            ],
            "autoStart": false,
            "sourceChordNote": 0,
            "sourceChordType": "min7(11)",
            "ctb2Low": null,
            "ctb2Main": {
              "ntr": "ROOT_TRANSPOSITION",
              "ntt": "CHORD",
              "bassOn": false,
              "chordRootUpperLimit": 10,
              "noteLowLimit": 0,
              "noteHighLimit": 127,
              "rtr": "PITCH_SHIFT"
            },
            "ctb2High": null
          },
          "notes": []
        },
        "14": {
          "ctab": {
            "srcChannel": 14,
            "name": "MGt28",
            "accType": "PHRASE1",
            "editable": false,
            "mutedNotes": [],
            "mutedChords": [],
            "autoStart": false,
            "sourceChordNote": 0,
            "sourceChordType": "min7",
            "ctb2Low": null,
            "ctb2Main": {
              "ntr": "ROOT_TRANSPOSITION",
              "ntt": "CHORD",
              "bassOn": false,
              "chordRootUpperLimit": 11,
              "noteLowLimit": 0,
              "noteHighLimit": 67,
              "rtr": "PITCH_SHIFT"
            },
            "ctb2High": null
          },
          "notes": [
            {
              "pitch": 60,
              "velocity": 92,
              "position": 0.48333333333333334,
              "duration": 0.20833333333333334
            },
            {
              "pitch": 58,
              "velocity": 85,
              "position": 1,
              "duration": 0.28125
            },
            {
              "pitch": 60,
              "velocity": 104,
              "position": 1.2333333333333334,
              "duration": 0.1875
            },
            {
              "pitch": 60,
              "velocity": 92,
              "position": 2.5,
              "duration": 0.20833333333333334
            },
            {
              "pitch": 60,
              "velocity": 92,
              "position": 3.2333333333333334,
              "duration": 0.20833333333333334
            },
            {
              "pitch": 60,
              "velocity": 102,
              "position": 4.483333333333333,
              "duration": 0.16666666666666666
            },
            {
              "pitch": 58,
              "velocity": 88,
              "position": 5,
              "duration": 0.28125
            },
            {
              "pitch": 60,
              "velocity": 102,
              "position": 5.233333333333333,
              "duration": 0.17708333333333334
            },
            {
              "pitch": 60,
              "velocity": 92,
              "position": 6.5,
              "duration": 0.20833333333333334
            },
            {
              "pitch": 60,
              "velocity": 92,
              "position": 7.5,
              "duration": 0.20833333333333334
            }
          ]
        }
      }
    },
    "Main_D": {
      "type": "Main_D",
      "sizeInBeats": 8,
      "channels": {
        "1": {
          "ctab": {
            "srcChannel": 1,
            "name": "88NAgALL",
            "accType": "PAD",
            "editable": false,
            "mutedNotes": [],
            "mutedChords": [],
            "autoStart": false,
            "sourceChordNote": 0,
            "sourceChordType": "min7(11)",
            "ctb2Low": null,
            "ctb2Main": {
              "ntr": "ROOT_FIXED",
              "ntt": "CHORD",
              "bassOn": false,
              "chordRootUpperLimit": 6,
              "noteLowLimit": 62,
              "noteHighLimit": 127,
              "rtr": "PITCH_SHIFT"
            },
            "ctb2High": null
          },
          "notes": []
        },
        "2": {
          "ctab": {
            "srcChannel": 2,
            "name": "88NAg4Vc",
            "accType": "PAD",
            "editable": false,
            "mutedNotes": [],
            "mutedChords": [
              "1+2+5",
              "sus4",
              "1+5",
              "1+8",
              "Maj7aug",
              "dim",
              "minMaj7(9)",
              "minMaj7",
              "min6",
              "min",
              "aug",
              "Maj7(9)",
              "Maj7#11",
              "Maj7",
              "Maj6",
              "Maj"
            ],
            "autoStart": false,
            "sourceChordNote": 0,
            "sourceChordType": "Maj7",
            "ctb2Low": null,
            "ctb2Main": {
              "ntr": "ROOT_TRANSPOSITION",
              "ntt": "CHORD",
              "bassOn": false,
              "chordRootUpperLimit": 6,
              "noteLowLimit": 0,
              "noteHighLimit": 127,
              "rtr": "PITCH_SHIFT"
            },
            "ctb2High": null
          },
          "notes": [
            {
              "pitch": 72,
              "velocity": 50,
              "position": 0,
              "duration": 7.979166666666667
            }
          ]
        },
        "3": {
          "ctab": {
            "srcChannel": 3,
            "name": "Brite100",
            "accType": "PHRASE2",
            "editable": false,
            "mutedNotes": [],
            "mutedChords": [],
            "autoStart": false,
            "sourceChordNote": 0,
            "sourceChordType": "min7(11)",
            "ctb2Low": null,
            "ctb2Main": {
              "ntr": "ROOT_FIXED",
              "ntt": "CHORD",
              "bassOn": false,
              "chordRootUpperLimit": 8,
              "noteLowLimit": 62,
              "noteHighLimit": 127,
              "rtr": "PITCH_SHIFT"
            },
            "ctb2High": null
          },
          "notes": []
        },
        "4": {
          "ctab": {
            "srcChannel": 4,
            "name": "Clean27",
            "accType": "CHORD2",
            "editable": false,
            "mutedNotes": [],
            "mutedChords": [],
            "autoStart": false,
            "sourceChordNote": 0,
            "sourceChordType": "min7(11)",
            "ctb2Low": null,
            "ctb2Main": {
              "ntr": "ROOT_FIXED",
              "ntt": "CHORD",
              "bassOn": false,
              "chordRootUpperLimit": 7,
              "noteLowLimit": 0,
              "noteHighLimit": 127,
              "rtr": "PITCH_SHIFT"
            },
            "ctb2High": null
          },
          "notes": [
            {
              "pitch": 58,
              "velocity": 99,
              "position": 0.0020833333333333333,
              "duration": 0.48541666666666666
            },
            {
              "pitch": 63,
              "velocity": 99,
              "position": 0.010416666666666666,
              "duration": 0.4895833333333333
            },
            {
              "pitch": 65,
              "velocity": 99,
              "position": 0.020833333333333332,
              "duration": 0.4895833333333333
            },
            {
              "pitch": 65,
              "velocity": 107,
              "position": 0.5208333333333334,
              "duration": 0.25
            },
            {
              "pitch": 63,
              "velocity": 106,
              "position": 0.5104166666666666,
              "duration": 0.2708333333333333
            },
            {
              "pitch": 58,
              "velocity": 107,
              "position": 0.5,
              "duration": 0.2916666666666667
            },
            {
              "pitch": 65,
              "velocity": 81,
              "position": 0.78125,
              "duration": 0.10416666666666667
            },
            {
              "pitch": 63,
              "velocity": 81,
              "position": 0.7916666666666666,
              "duration": 0.10416666666666667
            },
            {
              "pitch": 58,
              "velocity": 80,
              "position": 0.8020833333333334,
              "duration": 0.10416666666666667
            },
            {
              "pitch": 58,
              "velocity": 99,
              "position": 1.5,
              "duration": 0.4895833333333333
            },
            {
              "pitch": 63,
              "velocity": 99,
              "position": 1.5104166666666667,
              "duration": 0.5
            },
            {
              "pitch": 65,
              "velocity": 99,
              "position": 1.5208333333333333,
              "duration": 0.5104166666666666
            },
            {
              "pitch": 58,
              "velocity": 107,
              "position": 2,
              "duration": 0.125
            },
            {
              "pitch": 63,
              "velocity": 108,
              "position": 2.0208333333333335,
              "duration": 0.125
            },
            {
              "pitch": 65,
              "velocity": 109,
              "position": 2.0416666666666665,
              "duration": 0.125
            },
            {
              "pitch": 65,
              "velocity": 99,
              "position": 4,
              "duration": 0.4583333333333333
            },
            {
              "pitch": 58,
              "velocity": 99,
              "position": 4,
              "duration": 0.4895833333333333
            },
            {
              "pitch": 63,
              "velocity": 99,
              "position": 4,
              "duration": 0.4895833333333333
            },
            {
              "pitch": 58,
              "velocity": 99,
              "position": 4.5,
              "duration": 0.25
            },
            {
              "pitch": 63,
              "velocity": 99,
              "position": 4.5,
              "duration": 0.25
            },
            {
              "pitch": 65,
              "velocity": 99,
              "position": 4.5,
              "duration": 0.25
            },
            {
              "pitch": 58,
              "velocity": 99,
              "position": 5.5,
              "duration": 0.22916666666666666
            },
            {
              "pitch": 63,
              "velocity": 99,
              "position": 5.520833333333333,
              "duration": 0.21875
            },
            {
              "pitch": 65,
              "velocity": 99,
              "position": 5.541666666666667,
              "duration": 0.21875
            },
            {
              "pitch": 65,
              "velocity": 99,
              "position": 6.020833333333333,
              "duration": 0.125
            },
            {
              "pitch": 58,
              "velocity": 99,
              "position": 6,
              "duration": 0.20833333333333334
            },
            {
              "pitch": 63,
              "velocity": 99,
              "position": 6.010416666666667,
              "duration": 0.20833333333333334
            },
            {
              "pitch": 65,
              "velocity": 97,
              "position": 7.020833333333333,
              "duration": 0.9270833333333334
            },
            {
              "pitch": 58,
              "velocity": 98,
              "position": 7,
              "duration": 0.9583333333333334
            },
            {
              "pitch": 63,
              "velocity": 98,
              "position": 7.010416666666667,
              "duration": 0.9583333333333334
            }
          ]
        },
        "5": {
          "ctab": {
            "srcChannel": 5,
            "name": "Clean27",
            "accType": "CHORD2",
            "editable": false,
            "mutedNotes": [],
            "mutedChords": [],
            "autoStart": false,
            "sourceChordNote": 0,
            "sourceChordType": "min7(11)",
            "ctb2Low": null,
            "ctb2Main": {
              "ntr": "ROOT_TRANSPOSITION",
              "ntt": "CHORD",
              "bassOn": false,
              "chordRootUpperLimit": 3,
              "noteLowLimit": 0,
              "noteHighLimit": 127,
              "rtr": "PITCH_SHIFT"
            },
            "ctb2High": null
          },
          "notes": [
            {
              "pitch": 58,
              "velocity": 93,
              "position": 1,
              "duration": 0.28125
            },
            {
              "pitch": 60,
              "velocity": 110,
              "position": 1.2916666666666667,
              "duration": 0.1875
            },
            {
              "pitch": 60,
              "velocity": 99,
              "position": 2.5,
              "duration": 0.20833333333333334
            },
            {
              "pitch": 58,
              "velocity": 118,
              "position": 3,
              "duration": 0.4583333333333333
            },
            {
              "pitch": 63,
              "velocity": 115,
              "position": 3.0104166666666665,
              "duration": 0.4583333333333333
            },
            {
              "pitch": 60,
              "velocity": 99,
              "position": 3.5,
              "duration": 0.20833333333333334
            },
            {
              "pitch": 67,
              "velocity": 108,
              "position": 4.791666666666667,
              "duration": 0.16666666666666666
            },
            {
              "pitch": 58,
              "velocity": 108,
              "position": 5,
              "duration": 0.28125
            },
            {
              "pitch": 60,
              "velocity": 108,
              "position": 5.291666666666667,
              "duration": 0.17708333333333334
            },
            {
              "pitch": 67,
              "velocity": 91,
              "position": 5.791666666666667,
              "duration": 0.16666666666666666
            },
            {
              "pitch": 60,
              "velocity": 108,
              "position": 6.5,
              "duration": 0.20833333333333334
            }
          ]
        },
        "7": {
          "ctab": {
            "srcChannel": 7,
            "name": "CC_Crash",
            "accType": "SUBRHYTHM",
            "editable": false,
            "mutedNotes": [],
            "mutedChords": [
              "1+2+5",
              "sus4",
              "1+5",
              "1+8",
              "7aug",
              "Maj7aug",
              "7(#9)",
              "7(b13)",
              "7(b9)",
              "7(13)",
              "7#11",
              "7(9)",
              "7b5",
              "7sus4",
              "7th",
              "dim7",
              "dim",
              "minMaj7(9)",
              "minMaj7",
              "min7(11)",
              "min7(9)",
              "min(9)",
              "m7b5",
              "min7",
              "min6",
              "min",
              "aug",
              "Maj6(9)",
              "Maj7(9)",
              "Maj(9)",
              "Maj7#11",
              "Maj7",
              "Maj6",
              "Maj"
            ],
            "autoStart": true,
            "sourceChordNote": 0,
            "sourceChordType": "Maj",
            "ctb2Low": null,
            "ctb2Main": {
              "ntr": "ROOT_FIXED",
              "ntt": "BYPASS",
              "bassOn": false,
              "chordRootUpperLimit": 0,
              "noteLowLimit": 0,
              "noteHighLimit": 127,
              "rtr": "RETRIGGER"
            },
            "ctb2High": null
          },
          "notes": []
        },
        "8": {
          "ctab": {
            "srcChannel": 8,
            "name": "Perc",
            "accType": "SUBRHYTHM",
            "editable": false,
            "mutedNotes": [],
            "mutedChords": [],
            "autoStart": true,
            "sourceChordNote": 0,
            "sourceChordType": "Maj7",
            "ctb2Low": null,
            "ctb2Main": {
              "ntr": "ROOT_FIXED",
              "ntt": "BYPASS",
              "bassOn": false,
              "chordRootUpperLimit": 6,
              "noteLowLimit": 0,
              "noteHighLimit": 127,
              "rtr": "PITCH_SHIFT"
            },
            "ctb2High": null
          },
          "notes": [
            {
              "pitch": 70,
              "velocity": 37,
              "position": 0.0020833333333333333,
              "duration": 0.07916666666666666
            },
            {
              "pitch": 59,
              "velocity": 46,
              "position": 0,
              "duration": 0.08333333333333333
            },
            {
              "pitch": 54,
              "velocity": 24,
              "position": 0.3,
              "duration": 0.08333333333333333
            },
            {
              "pitch": 54,
              "velocity": 55,
              "position": 0.48125,
              "duration": 0.08333333333333333
            },
            {
              "pitch": 70,
              "velocity": 16,
              "position": 0.5,
              "duration": 0.08333333333333333
            },
            {
              "pitch": 54,
              "velocity": 33,
              "position": 0.7875,
              "duration": 0.08333333333333333
            },
            {
              "pitch": 70,
              "velocity": 24,
              "position": 0.7916666666666666,
              "duration": 0.08333333333333333
            },
            {
              "pitch": 54,
              "velocity": 21,
              "position": 0.9958333333333333,
              "duration": 0.08333333333333333
            },
            {
              "pitch": 59,
              "velocity": 46,
              "position": 1,
              "duration": 0.08333333333333333
            },
            {
              "pitch": 70,
              "velocity": 37,
              "position": 1,
              "duration": 0.08333333333333333
            },
            {
              "pitch": 54,
              "velocity": 24,
              "position": 1.3,
              "duration": 0.08333333333333333
            },
            {
              "pitch": 54,
              "velocity": 51,
              "position": 1.4958333333333333,
              "duration": 0.08333333333333333
            },
            {
              "pitch": 70,
              "velocity": 16,
              "position": 1.5,
              "duration": 0.08333333333333333
            },
            {
              "pitch": 54,
              "velocity": 29,
              "position": 1.7958333333333334,
              "duration": 0.08333333333333333
            },
            {
              "pitch": 54,
              "velocity": 22,
              "position": 1.9958333333333333,
              "duration": 0.08333333333333333
            },
            {
              "pitch": 59,
              "velocity": 46,
              "position": 2,
              "duration": 0.08333333333333333
            },
            {
              "pitch": 70,
              "velocity": 37,
              "position": 2,
              "duration": 0.08333333333333333
            },
            {
              "pitch": 54,
              "velocity": 24,
              "position": 2.3,
              "duration": 0.08333333333333333
            },
            {
              "pitch": 54,
              "velocity": 49,
              "position": 2.48125,
              "duration": 0.08333333333333333
            },
            {
              "pitch": 70,
              "velocity": 16,
              "position": 2.5,
              "duration": 0.08333333333333333
            },
            {
              "pitch": 54,
              "velocity": 30,
              "position": 2.7875,
              "duration": 0.08333333333333333
            },
            {
              "pitch": 70,
              "velocity": 37,
              "position": 2.7916666666666665,
              "duration": 0.08333333333333333
            },
            {
              "pitch": 54,
              "velocity": 36,
              "position": 2.995833333333333,
              "duration": 0.08333333333333333
            },
            {
              "pitch": 59,
              "velocity": 46,
              "position": 3,
              "duration": 0.08333333333333333
            },
            {
              "pitch": 70,
              "velocity": 37,
              "position": 3,
              "duration": 0.08333333333333333
            },
            {
              "pitch": 54,
              "velocity": 24,
              "position": 3.3,
              "duration": 0.08333333333333333
            },
            {
              "pitch": 54,
              "velocity": 53,
              "position": 3.495833333333333,
              "duration": 0.08333333333333333
            },
            {
              "pitch": 70,
              "velocity": 16,
              "position": 3.5,
              "duration": 0.08333333333333333
            },
            {
              "pitch": 54,
              "velocity": 24,
              "position": 3.8,
              "duration": 0.08333333333333333
            },
            {
              "pitch": 54,
              "velocity": 28,
              "position": 3.995833333333333,
              "duration": 0.07916666666666666
            },
            {
              "pitch": 59,
              "velocity": 46,
              "position": 4,
              "duration": 0.08333333333333333
            },
            {
              "pitch": 70,
              "velocity": 37,
              "position": 4,
              "duration": 0.08333333333333333
            },
            {
              "pitch": 54,
              "velocity": 24,
              "position": 4.3,
              "duration": 0.08333333333333333
            },
            {
              "pitch": 54,
              "velocity": 55,
              "position": 4.48125,
              "duration": 0.08333333333333333
            },
            {
              "pitch": 70,
              "velocity": 16,
              "position": 4.5,
              "duration": 0.08333333333333333
            },
            {
              "pitch": 54,
              "velocity": 33,
              "position": 4.7875,
              "duration": 0.08333333333333333
            },
            {
              "pitch": 54,
              "velocity": 21,
              "position": 4.995833333333334,
              "duration": 0.08333333333333333
            },
            {
              "pitch": 59,
              "velocity": 46,
              "position": 5,
              "duration": 0.08333333333333333
            },
            {
              "pitch": 70,
              "velocity": 37,
              "position": 5,
              "duration": 0.08333333333333333
            },
            {
              "pitch": 54,
              "velocity": 24,
              "position": 5.3,
              "duration": 0.08333333333333333
            },
            {
              "pitch": 54,
              "velocity": 51,
              "position": 5.495833333333334,
              "duration": 0.08333333333333333
            },
            {
              "pitch": 70,
              "velocity": 21,
              "position": 5.5,
              "duration": 0.08333333333333333
            },
            {
              "pitch": 54,
              "velocity": 29,
              "position": 5.7875,
              "duration": 0.08333333333333333
            },
            {
              "pitch": 70,
              "velocity": 16,
              "position": 5.791666666666667,
              "duration": 0.08333333333333333
            },
            {
              "pitch": 54,
              "velocity": 22,
              "position": 5.995833333333334,
              "duration": 0.08333333333333333
            },
            {
              "pitch": 59,
              "velocity": 46,
              "position": 6,
              "duration": 0.08333333333333333
            },
            {
              "pitch": 70,
              "velocity": 37,
              "position": 6,
              "duration": 0.08333333333333333
            },
            {
              "pitch": 70,
              "velocity": 24,
              "position": 6.291666666666667,
              "duration": 0.08333333333333333
            },
            {
              "pitch": 54,
              "velocity": 24,
              "position": 6.3,
              "duration": 0.08333333333333333
            },
            {
              "pitch": 54,
              "velocity": 49,
              "position": 6.48125,
              "duration": 0.08333333333333333
            },
            {
              "pitch": 70,
              "velocity": 16,
              "position": 6.5,
              "duration": 0.08333333333333333
            },
            {
              "pitch": 54,
              "velocity": 30,
              "position": 6.7875,
              "duration": 0.08333333333333333
            },
            {
              "pitch": 54,
              "velocity": 36,
              "position": 6.995833333333334,
              "duration": 0.08333333333333333
            },
            {
              "pitch": 59,
              "velocity": 46,
              "position": 7,
              "duration": 0.08333333333333333
            },
            {
              "pitch": 70,
              "velocity": 37,
              "position": 7,
              "duration": 0.08333333333333333
            },
            {
              "pitch": 54,
              "velocity": 24,
              "position": 7.3,
              "duration": 0.08333333333333333
            },
            {
              "pitch": 54,
              "velocity": 39,
              "position": 7.495833333333334,
              "duration": 0.08333333333333333
            },
            {
              "pitch": 70,
              "velocity": 16,
              "position": 7.5,
              "duration": 0.08333333333333333
            },
            {
              "pitch": 54,
              "velocity": 25,
              "position": 7.8,
              "duration": 0.08333333333333333
            }
          ]
        },
        "9": {
          "ctab": {
            "srcChannel": 9,
            "name": "MainDrum",
            "accType": "RHYTHM",
            "editable": false,
            "mutedNotes": [],
            "mutedChords": [],
            "autoStart": true,
            "sourceChordNote": 0,
            "sourceChordType": "Maj7",
            "ctb2Low": null,
            "ctb2Main": {
              "ntr": "ROOT_FIXED",
              "ntt": "BYPASS",
              "bassOn": false,
              "chordRootUpperLimit": 6,
              "noteLowLimit": 0,
              "noteHighLimit": 127,
              "rtr": "PITCH_SHIFT"
            },
            "ctb2High": null
          },
          "notes": [
            {
              "pitch": 33,
              "velocity": 79,
              "position": 0.0020833333333333333,
              "duration": 0.041666666666666664
            },
            {
              "pitch": 42,
              "velocity": 64,
              "position": 0.0020833333333333333,
              "duration": 0.04791666666666667
            },
            {
              "pitch": 42,
              "velocity": 78,
              "position": 0.2916666666666667,
              "duration": 0.08333333333333333
            },
            {
              "pitch": 46,
              "velocity": 54,
              "position": 0.5,
              "duration": 0.020833333333333332
            },
            {
              "pitch": 25,
              "velocity": 116,
              "position": 1,
              "duration": 0.010416666666666666
            },
            {
              "pitch": 39,
              "velocity": 58,
              "position": 1,
              "duration": 0.010416666666666666
            },
            {
              "pitch": 33,
              "velocity": 79,
              "position": 1,
              "duration": 0.041666666666666664
            },
            {
              "pitch": 42,
              "velocity": 78,
              "position": 1,
              "duration": 0.052083333333333336
            },
            {
              "pitch": 46,
              "velocity": 54,
              "position": 1.5,
              "duration": 0.020833333333333332
            },
            {
              "pitch": 25,
              "velocity": 74,
              "position": 1.7916666666666667,
              "duration": 0.010416666666666666
            },
            {
              "pitch": 42,
              "velocity": 76,
              "position": 1.7916666666666667,
              "duration": 0.08333333333333333
            },
            {
              "pitch": 33,
              "velocity": 79,
              "position": 2,
              "duration": 0.041666666666666664
            },
            {
              "pitch": 42,
              "velocity": 78,
              "position": 2,
              "duration": 0.052083333333333336
            },
            {
              "pitch": 46,
              "velocity": 54,
              "position": 2.5,
              "duration": 0.020833333333333332
            },
            {
              "pitch": 25,
              "velocity": 116,
              "position": 3,
              "duration": 0.010416666666666666
            },
            {
              "pitch": 39,
              "velocity": 58,
              "position": 3,
              "duration": 0.010416666666666666
            },
            {
              "pitch": 33,
              "velocity": 79,
              "position": 3,
              "duration": 0.041666666666666664
            },
            {
              "pitch": 42,
              "velocity": 78,
              "position": 3,
              "duration": 0.052083333333333336
            },
            {
              "pitch": 46,
              "velocity": 54,
              "position": 3.5,
              "duration": 0.020833333333333332
            },
            {
              "pitch": 33,
              "velocity": 79,
              "position": 4,
              "duration": 0.041666666666666664
            },
            {
              "pitch": 42,
              "velocity": 72,
              "position": 4,
              "duration": 0.052083333333333336
            },
            {
              "pitch": 42,
              "velocity": 78,
              "position": 4.291666666666667,
              "duration": 0.08333333333333333
            },
            {
              "pitch": 46,
              "velocity": 54,
              "position": 4.5,
              "duration": 0.020833333333333332
            },
            {
              "pitch": 25,
              "velocity": 116,
              "position": 5,
              "duration": 0.010416666666666666
            },
            {
              "pitch": 39,
              "velocity": 58,
              "position": 5,
              "duration": 0.010416666666666666
            },
            {
              "pitch": 33,
              "velocity": 79,
              "position": 5,
              "duration": 0.041666666666666664
            },
            {
              "pitch": 42,
              "velocity": 78,
              "position": 5,
              "duration": 0.052083333333333336
            },
            {
              "pitch": 46,
              "velocity": 54,
              "position": 5.5,
              "duration": 0.020833333333333332
            },
            {
              "pitch": 25,
              "velocity": 74,
              "position": 5.791666666666667,
              "duration": 0.010416666666666666
            },
            {
              "pitch": 42,
              "velocity": 78,
              "position": 5.791666666666667,
              "duration": 0.08333333333333333
            },
            {
              "pitch": 33,
              "velocity": 79,
              "position": 6,
              "duration": 0.041666666666666664
            },
            {
              "pitch": 42,
              "velocity": 72,
              "position": 6,
              "duration": 0.052083333333333336
            },
            {
              "pitch": 46,
              "velocity": 54,
              "position": 6.5,
              "duration": 0.020833333333333332
            },
            {
              "pitch": 25,
              "velocity": 116,
              "position": 7,
              "duration": 0.010416666666666666
            },
            {
              "pitch": 39,
              "velocity": 58,
              "position": 7,
              "duration": 0.010416666666666666
            },
            {
              "pitch": 33,
              "velocity": 79,
              "position": 7,
              "duration": 0.041666666666666664
            },
            {
              "pitch": 42,
              "velocity": 78,
              "position": 7,
              "duration": 0.052083333333333336
            },
            {
              "pitch": 46,
              "velocity": 54,
              "position": 7.5,
              "duration": 0.020833333333333332
            }
          ]
        },
        "11": {
          "ctab": {
            "srcChannel": 11,
            "name": "Bassmaj",
            "accType": "BASS",
            "editable": false,
            "mutedNotes": [],
            "mutedChords": [],
            "autoStart": false,
            "sourceChordNote": 0,
            "sourceChordType": "Maj7",
            "ctb2Low": null,
            "ctb2Main": {
              "ntr": "ROOT_TRANSPOSITION",
              "ntt": "MELODY",
              "bassOn": true,
              "chordRootUpperLimit": 11,
              "noteLowLimit": 28,
              "noteHighLimit": 127,
              "rtr": "PITCH_SHIFT_TO_ROOT"
            },
            "ctb2High": null
          },
          "notes": [
            {
              "pitch": 24,
              "velocity": 86,
              "position": 0.0020833333333333333,
              "duration": 0.45416666666666666
            },
            {
              "pitch": 24,
              "velocity": 54,
              "position": 0.5,
              "duration": 0.25
            },
            {
              "pitch": 24,
              "velocity": 86,
              "position": 0.7916666666666666,
              "duration": 0.20833333333333334
            },
            {
              "pitch": 31,
              "velocity": 71,
              "position": 1.2916666666666667,
              "duration": 0.16666666666666666
            },
            {
              "pitch": 36,
              "velocity": 82,
              "position": 1.5,
              "duration": 0.4583333333333333
            },
            {
              "pitch": 35,
              "velocity": 82,
              "position": 2,
              "duration": 0.29583333333333334
            },
            {
              "pitch": 36,
              "velocity": 65,
              "position": 2.5,
              "duration": 0.20833333333333334
            },
            {
              "pitch": 35,
              "velocity": 82,
              "position": 3,
              "duration": 0.4583333333333333
            },
            {
              "pitch": 31,
              "velocity": 65,
              "position": 3.5,
              "duration": 0.4583333333333333
            },
            {
              "pitch": 24,
              "velocity": 86,
              "position": 4,
              "duration": 0.4583333333333333
            },
            {
              "pitch": 24,
              "velocity": 54,
              "position": 4.5,
              "duration": 0.25
            },
            {
              "pitch": 24,
              "velocity": 86,
              "position": 4.791666666666667,
              "duration": 0.20833333333333334
            },
            {
              "pitch": 31,
              "velocity": 71,
              "position": 5.291666666666667,
              "duration": 0.16666666666666666
            },
            {
              "pitch": 35,
              "velocity": 82,
              "position": 5.5,
              "duration": 0.4583333333333333
            },
            {
              "pitch": 36,
              "velocity": 82,
              "position": 6,
              "duration": 0.29583333333333334
            },
            {
              "pitch": 35,
              "velocity": 65,
              "position": 6.5,
              "duration": 0.20833333333333334
            },
            {
              "pitch": 35,
              "velocity": 82,
              "position": 7,
              "duration": 0.4583333333333333
            },
            {
              "pitch": 31,
              "velocity": 65,
              "position": 7.5,
              "duration": 0.4583333333333333
            }
          ]
        },
        "12": {
          "ctab": {
            "srcChannel": 12,
            "name": "Piano00",
            "accType": "CHORD1",
            "editable": false,
            "mutedNotes": [],
            "mutedChords": [],
            "autoStart": false,
            "sourceChordNote": 0,
            "sourceChordType": "min7(11)",
            "ctb2Low": null,
            "ctb2Main": {
              "ntr": "ROOT_FIXED",
              "ntt": "CHORD",
              "bassOn": false,
              "chordRootUpperLimit": 7,
              "noteLowLimit": 0,
              "noteHighLimit": 127,
              "rtr": "PITCH_SHIFT"
            },
            "ctb2High": null
          },
          "notes": [
            {
              "pitch": 58,
              "velocity": 60,
              "position": 0,
              "duration": 0.74375
            },
            {
              "pitch": 63,
              "velocity": 60,
              "position": 0,
              "duration": 0.74375
            },
            {
              "pitch": 65,
              "velocity": 60,
              "position": 0,
              "duration": 0.74375
            },
            {
              "pitch": 58,
              "velocity": 60,
              "position": 0.7916666666666666,
              "duration": 0.16666666666666666
            },
            {
              "pitch": 63,
              "velocity": 60,
              "position": 0.7916666666666666,
              "duration": 0.16666666666666666
            },
            {
              "pitch": 65,
              "velocity": 60,
              "position": 0.7916666666666666,
              "duration": 0.16666666666666666
            },
            {
              "pitch": 58,
              "velocity": 60,
              "position": 1.5,
              "duration": 0.16666666666666666
            },
            {
              "pitch": 63,
              "velocity": 60,
              "position": 1.5,
              "duration": 0.16666666666666666
            },
            {
              "pitch": 65,
              "velocity": 60,
              "position": 1.5,
              "duration": 0.16666666666666666
            },
            {
              "pitch": 58,
              "velocity": 60,
              "position": 2.2916666666666665,
              "duration": 0.16666666666666666
            },
            {
              "pitch": 63,
              "velocity": 60,
              "position": 2.2916666666666665,
              "duration": 0.16666666666666666
            },
            {
              "pitch": 65,
              "velocity": 60,
              "position": 2.2916666666666665,
              "duration": 0.16666666666666666
            },
            {
              "pitch": 58,
              "velocity": 60,
              "position": 3,
              "duration": 0.9166666666666666
            },
            {
              "pitch": 63,
              "velocity": 60,
              "position": 3,
              "duration": 0.9166666666666666
            },
            {
              "pitch": 65,
              "velocity": 60,
              "position": 3,
              "duration": 0.9166666666666666
            },
            {
              "pitch": 58,
              "velocity": 60,
              "position": 4,
              "duration": 0.75
            },
            {
              "pitch": 63,
              "velocity": 60,
              "position": 4,
              "duration": 0.75
            },
            {
              "pitch": 65,
              "velocity": 60,
              "position": 4,
              "duration": 0.75
            },
            {
              "pitch": 58,
              "velocity": 60,
              "position": 4.791666666666667,
              "duration": 0.16666666666666666
            },
            {
              "pitch": 63,
              "velocity": 60,
              "position": 4.791666666666667,
              "duration": 0.16666666666666666
            },
            {
              "pitch": 65,
              "velocity": 60,
              "position": 4.791666666666667,
              "duration": 0.16666666666666666
            },
            {
              "pitch": 58,
              "velocity": 60,
              "position": 5.5,
              "duration": 0.16666666666666666
            },
            {
              "pitch": 63,
              "velocity": 60,
              "position": 5.5,
              "duration": 0.16666666666666666
            },
            {
              "pitch": 65,
              "velocity": 60,
              "position": 5.5,
              "duration": 0.16666666666666666
            },
            {
              "pitch": 58,
              "velocity": 60,
              "position": 6.291666666666667,
              "duration": 0.16666666666666666
            },
            {
              "pitch": 63,
              "velocity": 60,
              "position": 6.291666666666667,
              "duration": 0.16666666666666666
            },
            {
              "pitch": 65,
              "velocity": 60,
              "position": 6.291666666666667,
              "duration": 0.16666666666666666
            },
            {
              "pitch": 58,
              "velocity": 60,
              "position": 7,
              "duration": 0.9166666666666666
            },
            {
              "pitch": 63,
              "velocity": 60,
              "position": 7,
              "duration": 0.9166666666666666
            },
            {
              "pitch": 65,
              "velocity": 60,
              "position": 7,
              "duration": 0.9166666666666666
            }
          ]
        },
        "13": {
          "ctab": {
            "srcChannel": 13,
            "name": "Piano00",
            "accType": "CHORD1",
            "editable": false,
            "mutedNotes": [],
            "mutedChords": [
              "1+2+5",
              "sus4",
              "1+5",
              "1+8",
              "Maj7aug",
              "dim",
              "minMaj7(9)",
              "minMaj7",
              "min6",
              "min",
              "aug",
              "Maj7(9)",
              "Maj7#11",
              "Maj7",
              "Maj6",
              "Maj"
            ],
            "autoStart": false,
            "sourceChordNote": 0,
            "sourceChordType": "min7(11)",
            "ctb2Low": null,
            "ctb2Main": {
              "ntr": "ROOT_TRANSPOSITION",
              "ntt": "CHORD",
              "bassOn": false,
              "chordRootUpperLimit": 10,
              "noteLowLimit": 0,
              "noteHighLimit": 127,
              "rtr": "PITCH_SHIFT"
            },
            "ctb2High": null
          },
          "notes": []
        },
        "14": {
          "ctab": {
            "srcChannel": 14,
            "name": "MGt28",
            "accType": "PHRASE1",
            "editable": false,
            "mutedNotes": [],
            "mutedChords": [],
            "autoStart": false,
            "sourceChordNote": 0,
            "sourceChordType": "min7",
            "ctb2Low": null,
            "ctb2Main": {
              "ntr": "ROOT_TRANSPOSITION",
              "ntt": "CHORD",
              "bassOn": false,
              "chordRootUpperLimit": 11,
              "noteLowLimit": 0,
              "noteHighLimit": 67,
              "rtr": "PITCH_SHIFT"
            },
            "ctb2High": null
          },
          "notes": [
            {
              "pitch": 48,
              "velocity": 85,
              "position": 0.5,
              "duration": 0.20833333333333334
            },
            {
              "pitch": 46,
              "velocity": 71,
              "position": 1,
              "duration": 0.28125
            },
            {
              "pitch": 48,
              "velocity": 97,
              "position": 1.2916666666666667,
              "duration": 0.1875
            },
            {
              "pitch": 48,
              "velocity": 85,
              "position": 2.5,
              "duration": 0.20833333333333334
            },
            {
              "pitch": 43,
              "velocity": 85,
              "position": 3.5,
              "duration": 0.20833333333333334
            },
            {
              "pitch": 48,
              "velocity": 95,
              "position": 4.5,
              "duration": 0.16666666666666666
            },
            {
              "pitch": 46,
              "velocity": 89,
              "position": 5,
              "duration": 0.28125
            },
            {
              "pitch": 48,
              "velocity": 95,
              "position": 5.291666666666667,
              "duration": 0.17708333333333334
            },
            {
              "pitch": 46,
              "velocity": 79,
              "position": 6.5,
              "duration": 0.20833333333333334
            },
            {
              "pitch": 43,
              "velocity": 85,
              "position": 7.5,
              "duration": 0.20833333333333334
            }
          ]
        }
      }
    },
    "Fill_In_CC": {
      "type": "Fill_In_CC",
      "sizeInBeats": 4,
      "channels": {
        "1": {
          "ctab": {
            "srcChannel": 1,
            "name": "88NAgALL",
            "accType": "PAD",
            "editable": false,
            "mutedNotes": [],
            "mutedChords": [],
            "autoStart": false,
            "sourceChordNote": 0,
            "sourceChordType": "min7(11)",
            "ctb2Low": null,
            "ctb2Main": {
              "ntr": "ROOT_FIXED",
              "ntt": "CHORD",
              "bassOn": false,
              "chordRootUpperLimit": 6,
              "noteLowLimit": 62,
              "noteHighLimit": 127,
              "rtr": "PITCH_SHIFT"
            },
            "ctb2High": null
          },
          "notes": [
            {
              "pitch": 65,
              "velocity": 56,
              "position": 0,
              "duration": 3.9791666666666665
            },
            {
              "pitch": 70,
              "velocity": 56,
              "position": 0,
              "duration": 3.9791666666666665
            },
            {
              "pitch": 75,
              "velocity": 56,
              "position": 0,
              "duration": 3.9791666666666665
            }
          ]
        },
        "2": {
          "ctab": {
            "srcChannel": 2,
            "name": "88NAg4Vc",
            "accType": "PAD",
            "editable": false,
            "mutedNotes": [],
            "mutedChords": [
              "1+2+5",
              "sus4",
              "1+5",
              "1+8",
              "Maj7aug",
              "dim",
              "minMaj7(9)",
              "minMaj7",
              "min6",
              "min",
              "aug",
              "Maj7(9)",
              "Maj7#11",
              "Maj7",
              "Maj6",
              "Maj"
            ],
            "autoStart": false,
            "sourceChordNote": 0,
            "sourceChordType": "Maj7",
            "ctb2Low": null,
            "ctb2Main": {
              "ntr": "ROOT_TRANSPOSITION",
              "ntt": "CHORD",
              "bassOn": false,
              "chordRootUpperLimit": 6,
              "noteLowLimit": 0,
              "noteHighLimit": 127,
              "rtr": "PITCH_SHIFT"
            },
            "ctb2High": null
          },
          "notes": [
            {
              "pitch": 72,
              "velocity": 50,
              "position": 0,
              "duration": 3.9583333333333335
            }
          ]
        },
        "3": {
          "ctab": {
            "srcChannel": 3,
            "name": "Brite100",
            "accType": "PHRASE2",
            "editable": false,
            "mutedNotes": [],
            "mutedChords": [],
            "autoStart": false,
            "sourceChordNote": 0,
            "sourceChordType": "min7(11)",
            "ctb2Low": null,
            "ctb2Main": {
              "ntr": "ROOT_FIXED",
              "ntt": "CHORD",
              "bassOn": false,
              "chordRootUpperLimit": 8,
              "noteLowLimit": 62,
              "noteHighLimit": 127,
              "rtr": "PITCH_SHIFT"
            },
            "ctb2High": null
          },
          "notes": [
            {
              "pitch": 67,
              "velocity": 64,
              "position": 0.5,
              "duration": 0.375
            },
            {
              "pitch": 72,
              "velocity": 64,
              "position": 1.5,
              "duration": 0.375
            },
            {
              "pitch": 79,
              "velocity": 64,
              "position": 2.5,
              "duration": 0.375
            },
            {
              "pitch": 84,
              "velocity": 64,
              "position": 3,
              "duration": 0.375
            }
          ]
        },
        "4": {
          "ctab": {
            "srcChannel": 4,
            "name": "Clean27",
            "accType": "CHORD2",
            "editable": false,
            "mutedNotes": [],
            "mutedChords": [],
            "autoStart": false,
            "sourceChordNote": 0,
            "sourceChordType": "min7(11)",
            "ctb2Low": null,
            "ctb2Main": {
              "ntr": "ROOT_FIXED",
              "ntt": "CHORD",
              "bassOn": false,
              "chordRootUpperLimit": 7,
              "noteLowLimit": 0,
              "noteHighLimit": 127,
              "rtr": "PITCH_SHIFT"
            },
            "ctb2High": null
          },
          "notes": [
            {
              "pitch": 65,
              "velocity": 85,
              "position": 0.020833333333333332,
              "duration": 0.46875
            },
            {
              "pitch": 63,
              "velocity": 85,
              "position": 0.010416666666666666,
              "duration": 0.4895833333333333
            },
            {
              "pitch": 58,
              "velocity": 85,
              "position": 0.0020833333333333333,
              "duration": 0.5104166666666666
            },
            {
              "pitch": 65,
              "velocity": 92,
              "position": 0.5,
              "duration": 0.2708333333333333
            },
            {
              "pitch": 63,
              "velocity": 91,
              "position": 0.5104166666666666,
              "duration": 0.2708333333333333
            },
            {
              "pitch": 58,
              "velocity": 92,
              "position": 0.5208333333333334,
              "duration": 0.2708333333333333
            },
            {
              "pitch": 65,
              "velocity": 103,
              "position": 0.78125,
              "duration": 0.10416666666666667
            },
            {
              "pitch": 63,
              "velocity": 103,
              "position": 0.7916666666666666,
              "duration": 0.10416666666666667
            },
            {
              "pitch": 58,
              "velocity": 102,
              "position": 0.8020833333333334,
              "duration": 0.10416666666666667
            },
            {
              "pitch": 65,
              "velocity": 103,
              "position": 1.5,
              "duration": 0.10416666666666667
            },
            {
              "pitch": 63,
              "velocity": 103,
              "position": 1.5104166666666667,
              "duration": 0.10416666666666667
            },
            {
              "pitch": 58,
              "velocity": 102,
              "position": 1.5208333333333333,
              "duration": 0.10416666666666667
            },
            {
              "pitch": 65,
              "velocity": 103,
              "position": 2.5,
              "duration": 0.10416666666666667
            },
            {
              "pitch": 63,
              "velocity": 103,
              "position": 2.5104166666666665,
              "duration": 0.10416666666666667
            },
            {
              "pitch": 58,
              "velocity": 102,
              "position": 2.5208333333333335,
              "duration": 0.10416666666666667
            },
            {
              "pitch": 63,
              "velocity": 117,
              "position": 2.9791666666666665,
              "duration": 0.96875
            },
            {
              "pitch": 65,
              "velocity": 117,
              "position": 3,
              "duration": 0.96875
            },
            {
              "pitch": 70,
              "velocity": 117,
              "position": 3.0208333333333335,
              "duration": 0.96875
            }
          ]
        },
        "5": {
          "ctab": {
            "srcChannel": 5,
            "name": "Clean27",
            "accType": "CHORD2",
            "editable": false,
            "mutedNotes": [],
            "mutedChords": [],
            "autoStart": false,
            "sourceChordNote": 0,
            "sourceChordType": "min7(11)",
            "ctb2Low": null,
            "ctb2Main": {
              "ntr": "ROOT_TRANSPOSITION",
              "ntt": "CHORD",
              "bassOn": false,
              "chordRootUpperLimit": 3,
              "noteLowLimit": 0,
              "noteHighLimit": 127,
              "rtr": "PITCH_SHIFT"
            },
            "ctb2High": null
          },
          "notes": []
        },
        "7": {
          "ctab": {
            "srcChannel": 7,
            "name": "CC_Crash",
            "accType": "SUBRHYTHM",
            "editable": false,
            "mutedNotes": [],
            "mutedChords": [
              "1+2+5",
              "sus4",
              "1+5",
              "1+8",
              "7aug",
              "Maj7aug",
              "7(#9)",
              "7(b13)",
              "7(b9)",
              "7(13)",
              "7#11",
              "7(9)",
              "7b5",
              "7sus4",
              "7th",
              "dim7",
              "dim",
              "minMaj7(9)",
              "minMaj7",
              "min7(11)",
              "min7(9)",
              "min(9)",
              "m7b5",
              "min7",
              "min6",
              "min",
              "aug",
              "Maj6(9)",
              "Maj7(9)",
              "Maj(9)",
              "Maj7#11",
              "Maj7",
              "Maj6",
              "Maj"
            ],
            "autoStart": true,
            "sourceChordNote": 0,
            "sourceChordType": "Maj",
            "ctb2Low": null,
            "ctb2Main": {
              "ntr": "ROOT_FIXED",
              "ntt": "BYPASS",
              "bassOn": false,
              "chordRootUpperLimit": 0,
              "noteLowLimit": 0,
              "noteHighLimit": 127,
              "rtr": "RETRIGGER"
            },
            "ctb2High": null
          },
          "notes": []
        },
        "8": {
          "ctab": {
            "srcChannel": 8,
            "name": "Perc",
            "accType": "SUBRHYTHM",
            "editable": false,
            "mutedNotes": [],
            "mutedChords": [],
            "autoStart": true,
            "sourceChordNote": 0,
            "sourceChordType": "Maj7",
            "ctb2Low": null,
            "ctb2Main": {
              "ntr": "ROOT_FIXED",
              "ntt": "BYPASS",
              "bassOn": false,
              "chordRootUpperLimit": 6,
              "noteLowLimit": 0,
              "noteHighLimit": 127,
              "rtr": "PITCH_SHIFT"
            },
            "ctb2High": null
          },
          "notes": [
            {
              "pitch": 70,
              "velocity": 37,
              "position": 0,
              "duration": 0.07708333333333334
            },
            {
              "pitch": 59,
              "velocity": 46,
              "position": 0,
              "duration": 0.08333333333333333
            },
            {
              "pitch": 54,
              "velocity": 31,
              "position": 0.4895833333333333,
              "duration": 0.08333333333333333
            },
            {
              "pitch": 70,
              "velocity": 37,
              "position": 0.5,
              "duration": 0.08333333333333333
            },
            {
              "pitch": 57,
              "velocity": 29,
              "position": 1,
              "duration": 0.010416666666666666
            },
            {
              "pitch": 59,
              "velocity": 46,
              "position": 1,
              "duration": 0.08333333333333333
            },
            {
              "pitch": 70,
              "velocity": 16,
              "position": 1,
              "duration": 0.08333333333333333
            },
            {
              "pitch": 70,
              "velocity": 37,
              "position": 1.2916666666666667,
              "duration": 0.08333333333333333
            },
            {
              "pitch": 54,
              "velocity": 31,
              "position": 1.4895833333333333,
              "duration": 0.08333333333333333
            },
            {
              "pitch": 70,
              "velocity": 37,
              "position": 1.7916666666666667,
              "duration": 0.08333333333333333
            },
            {
              "pitch": 70,
              "velocity": 37,
              "position": 2,
              "duration": 0.07708333333333334
            },
            {
              "pitch": 59,
              "velocity": 46,
              "position": 2,
              "duration": 0.08333333333333333
            },
            {
              "pitch": 54,
              "velocity": 31,
              "position": 2.4895833333333335,
              "duration": 0.08333333333333333
            },
            {
              "pitch": 70,
              "velocity": 37,
              "position": 2.5,
              "duration": 0.08333333333333333
            },
            {
              "pitch": 59,
              "velocity": 46,
              "position": 3,
              "duration": 0.08333333333333333
            },
            {
              "pitch": 70,
              "velocity": 16,
              "position": 3,
              "duration": 0.08333333333333333
            },
            {
              "pitch": 70,
              "velocity": 37,
              "position": 3.2916666666666665,
              "duration": 0.08333333333333333
            },
            {
              "pitch": 54,
              "velocity": 31,
              "position": 3.4895833333333335,
              "duration": 0.08333333333333333
            },
            {
              "pitch": 70,
              "velocity": 37,
              "position": 3.7916666666666665,
              "duration": 0.08333333333333333
            }
          ]
        },
        "9": {
          "ctab": {
            "srcChannel": 9,
            "name": "MainDrum",
            "accType": "RHYTHM",
            "editable": false,
            "mutedNotes": [],
            "mutedChords": [],
            "autoStart": true,
            "sourceChordNote": 0,
            "sourceChordType": "Maj7",
            "ctb2Low": null,
            "ctb2Main": {
              "ntr": "ROOT_FIXED",
              "ntt": "BYPASS",
              "bassOn": false,
              "chordRootUpperLimit": 6,
              "noteLowLimit": 0,
              "noteHighLimit": 127,
              "rtr": "PITCH_SHIFT"
            },
            "ctb2High": null
          },
          "notes": [
            {
              "pitch": 33,
              "velocity": 79,
              "position": 0,
              "duration": 0.041666666666666664
            },
            {
              "pitch": 42,
              "velocity": 72,
              "position": 0,
              "duration": 0.04583333333333333
            },
            {
              "pitch": 25,
              "velocity": 116,
              "position": 0.2916666666666667,
              "duration": 0.010416666666666666
            },
            {
              "pitch": 42,
              "velocity": 78,
              "position": 0.2916666666666667,
              "duration": 0.08333333333333333
            },
            {
              "pitch": 46,
              "velocity": 54,
              "position": 0.5,
              "duration": 0.020833333333333332
            },
            {
              "pitch": 25,
              "velocity": 116,
              "position": 1,
              "duration": 0.010416666666666666
            },
            {
              "pitch": 33,
              "velocity": 79,
              "position": 1,
              "duration": 0.041666666666666664
            },
            {
              "pitch": 46,
              "velocity": 54,
              "position": 1.5,
              "duration": 0.020833333333333332
            },
            {
              "pitch": 42,
              "velocity": 78,
              "position": 1.7916666666666667,
              "duration": 0.08333333333333333
            },
            {
              "pitch": 33,
              "velocity": 79,
              "position": 2,
              "duration": 0.041666666666666664
            },
            {
              "pitch": 42,
              "velocity": 76,
              "position": 2,
              "duration": 0.08333333333333333
            },
            {
              "pitch": 42,
              "velocity": 52,
              "position": 2.2916666666666665,
              "duration": 0.08333333333333333
            },
            {
              "pitch": 25,
              "velocity": 116,
              "position": 2.5,
              "duration": 0.010416666666666666
            },
            {
              "pitch": 46,
              "velocity": 54,
              "position": 2.5,
              "duration": 0.020833333333333332
            },
            {
              "pitch": 25,
              "velocity": 91,
              "position": 2.7875,
              "duration": 0.010416666666666666
            },
            {
              "pitch": 25,
              "velocity": 116,
              "position": 3,
              "duration": 0.010416666666666666
            },
            {
              "pitch": 33,
              "velocity": 79,
              "position": 3,
              "duration": 0.041666666666666664
            },
            {
              "pitch": 46,
              "velocity": 54,
              "position": 3,
              "duration": 0.052083333333333336
            },
            {
              "pitch": 25,
              "velocity": 91,
              "position": 3.3,
              "duration": 0.010416666666666666
            },
            {
              "pitch": 25,
              "velocity": 116,
              "position": 3.5,
              "duration": 0.010416666666666666
            },
            {
              "pitch": 46,
              "velocity": 54,
              "position": 3.5,
              "duration": 0.020833333333333332
            },
            {
              "pitch": 25,
              "velocity": 91,
              "position": 3.8,
              "duration": 0.010416666666666666
            }
          ]
        },
        "11": {
          "ctab": {
            "srcChannel": 11,
            "name": "Bassmaj",
            "accType": "BASS",
            "editable": false,
            "mutedNotes": [],
            "mutedChords": [],
            "autoStart": false,
            "sourceChordNote": 0,
            "sourceChordType": "Maj7",
            "ctb2Low": null,
            "ctb2Main": {
              "ntr": "ROOT_TRANSPOSITION",
              "ntt": "MELODY",
              "bassOn": true,
              "chordRootUpperLimit": 11,
              "noteLowLimit": 28,
              "noteHighLimit": 127,
              "rtr": "PITCH_SHIFT_TO_ROOT"
            },
            "ctb2High": null
          },
          "notes": [
            {
              "pitch": 24,
              "velocity": 90,
              "position": 0.0020833333333333333,
              "duration": 0.45416666666666666
            },
            {
              "pitch": 24,
              "velocity": 90,
              "position": 0.5,
              "duration": 0.25
            },
            {
              "pitch": 35,
              "velocity": 82,
              "position": 0.7916666666666666,
              "duration": 0.20833333333333334
            },
            {
              "pitch": 35,
              "velocity": 71,
              "position": 1.2916666666666667,
              "duration": 0.16666666666666666
            },
            {
              "pitch": 31,
              "velocity": 86,
              "position": 1.5,
              "duration": 0.4583333333333333
            },
            {
              "pitch": 40,
              "velocity": 82,
              "position": 2,
              "duration": 0.4583333333333333
            },
            {
              "pitch": 36,
              "velocity": 65,
              "position": 2.5,
              "duration": 0.20833333333333334
            },
            {
              "pitch": 35,
              "velocity": 82,
              "position": 3,
              "duration": 0.4583333333333333
            },
            {
              "pitch": 31,
              "velocity": 65,
              "position": 3.5,
              "duration": 0.4583333333333333
            }
          ]
        },
        "12": {
          "ctab": {
            "srcChannel": 12,
            "name": "Piano00",
            "accType": "CHORD1",
            "editable": false,
            "mutedNotes": [],
            "mutedChords": [],
            "autoStart": false,
            "sourceChordNote": 0,
            "sourceChordType": "min7(11)",
            "ctb2Low": null,
            "ctb2Main": {
              "ntr": "ROOT_FIXED",
              "ntt": "CHORD",
              "bassOn": false,
              "chordRootUpperLimit": 7,
              "noteLowLimit": 0,
              "noteHighLimit": 127,
              "rtr": "PITCH_SHIFT"
            },
            "ctb2High": null
          },
          "notes": [
            {
              "pitch": 48,
              "velocity": 67,
              "position": 0.0020833333333333333,
              "duration": 0.7458333333333333
            },
            {
              "pitch": 55,
              "velocity": 67,
              "position": 0.0020833333333333333,
              "duration": 0.7458333333333333
            },
            {
              "pitch": 48,
              "velocity": 67,
              "position": 0.7916666666666666,
              "duration": 0.16666666666666666
            },
            {
              "pitch": 55,
              "velocity": 67,
              "position": 0.7916666666666666,
              "duration": 0.16666666666666666
            },
            {
              "pitch": 48,
              "velocity": 67,
              "position": 1.5,
              "duration": 0.4166666666666667
            },
            {
              "pitch": 55,
              "velocity": 67,
              "position": 1.5,
              "duration": 0.4166666666666667
            },
            {
              "pitch": 65,
              "velocity": 74,
              "position": 2,
              "duration": 0.9583333333333334
            },
            {
              "pitch": 70,
              "velocity": 74,
              "position": 2,
              "duration": 0.9583333333333334
            },
            {
              "pitch": 75,
              "velocity": 74,
              "position": 2,
              "duration": 0.9583333333333334
            },
            {
              "pitch": 63,
              "velocity": 74,
              "position": 3,
              "duration": 0.9166666666666666
            },
            {
              "pitch": 65,
              "velocity": 74,
              "position": 3,
              "duration": 0.9166666666666666
            },
            {
              "pitch": 70,
              "velocity": 74,
              "position": 3,
              "duration": 0.9166666666666666
            }
          ]
        },
        "13": {
          "ctab": {
            "srcChannel": 13,
            "name": "Piano00",
            "accType": "CHORD1",
            "editable": false,
            "mutedNotes": [],
            "mutedChords": [
              "1+2+5",
              "sus4",
              "1+5",
              "1+8",
              "Maj7aug",
              "dim",
              "minMaj7(9)",
              "minMaj7",
              "min6",
              "min",
              "aug",
              "Maj7(9)",
              "Maj7#11",
              "Maj7",
              "Maj6",
              "Maj"
            ],
            "autoStart": false,
            "sourceChordNote": 0,
            "sourceChordType": "min7(11)",
            "ctb2Low": null,
            "ctb2Main": {
              "ntr": "ROOT_TRANSPOSITION",
              "ntt": "CHORD",
              "bassOn": false,
              "chordRootUpperLimit": 10,
              "noteLowLimit": 0,
              "noteHighLimit": 127,
              "rtr": "PITCH_SHIFT"
            },
            "ctb2High": null
          },
          "notes": []
        },
        "14": {
          "ctab": {
            "srcChannel": 14,
            "name": "MGt28",
            "accType": "PHRASE1",
            "editable": false,
            "mutedNotes": [],
            "mutedChords": [],
            "autoStart": false,
            "sourceChordNote": 0,
            "sourceChordType": "min7",
            "ctb2Low": null,
            "ctb2Main": {
              "ntr": "ROOT_TRANSPOSITION",
              "ntt": "CHORD",
              "bassOn": false,
              "chordRootUpperLimit": 11,
              "noteLowLimit": 0,
              "noteHighLimit": 67,
              "rtr": "PITCH_SHIFT"
            },
            "ctb2High": null
          },
          "notes": [
            {
              "pitch": 60,
              "velocity": 92,
              "position": 0.5,
              "duration": 0.20833333333333334
            },
            {
              "pitch": 58,
              "velocity": 85,
              "position": 1,
              "duration": 0.28125
            },
            {
              "pitch": 60,
              "velocity": 104,
              "position": 1.2916666666666667,
              "duration": 0.1875
            },
            {
              "pitch": 60,
              "velocity": 92,
              "position": 2.5,
              "duration": 0.20833333333333334
            },
            {
              "pitch": 55,
              "velocity": 92,
              "position": 3.5,
              "duration": 0.20833333333333334
            }
          ]
        }
      }
    },
    "Fill_In_DD": {
      "type": "Fill_In_DD",
      "sizeInBeats": 4,
      "channels": {
        "1": {
          "ctab": {
            "srcChannel": 1,
            "name": "88NAgALL",
            "accType": "PAD",
            "editable": false,
            "mutedNotes": [],
            "mutedChords": [],
            "autoStart": false,
            "sourceChordNote": 0,
            "sourceChordType": "min7(11)",
            "ctb2Low": null,
            "ctb2Main": {
              "ntr": "ROOT_FIXED",
              "ntt": "CHORD",
              "bassOn": false,
              "chordRootUpperLimit": 6,
              "noteLowLimit": 62,
              "noteHighLimit": 127,
              "rtr": "PITCH_SHIFT"
            },
            "ctb2High": null
          },
          "notes": []
        },
        "2": {
          "ctab": {
            "srcChannel": 2,
            "name": "88NAg4Vc",
            "accType": "PAD",
            "editable": false,
            "mutedNotes": [],
            "mutedChords": [
              "1+2+5",
              "sus4",
              "1+5",
              "1+8",
              "Maj7aug",
              "dim",
              "minMaj7(9)",
              "minMaj7",
              "min6",
              "min",
              "aug",
              "Maj7(9)",
              "Maj7#11",
              "Maj7",
              "Maj6",
              "Maj"
            ],
            "autoStart": false,
            "sourceChordNote": 0,
            "sourceChordType": "Maj7",
            "ctb2Low": null,
            "ctb2Main": {
              "ntr": "ROOT_TRANSPOSITION",
              "ntt": "CHORD",
              "bassOn": false,
              "chordRootUpperLimit": 6,
              "noteLowLimit": 0,
              "noteHighLimit": 127,
              "rtr": "PITCH_SHIFT"
            },
            "ctb2High": null
          },
          "notes": []
        },
        "3": {
          "ctab": {
            "srcChannel": 3,
            "name": "Brite100",
            "accType": "PHRASE2",
            "editable": false,
            "mutedNotes": [],
            "mutedChords": [],
            "autoStart": false,
            "sourceChordNote": 0,
            "sourceChordType": "min7(11)",
            "ctb2Low": null,
            "ctb2Main": {
              "ntr": "ROOT_FIXED",
              "ntt": "CHORD",
              "bassOn": false,
              "chordRootUpperLimit": 8,
              "noteLowLimit": 62,
              "noteHighLimit": 127,
              "rtr": "PITCH_SHIFT"
            },
            "ctb2High": null
          },
          "notes": [
            {
              "pitch": 65,
              "velocity": 64,
              "position": 0.5,
              "duration": 0.375
            },
            {
              "pitch": 70,
              "velocity": 64,
              "position": 1.5,
              "duration": 0.375
            },
            {
              "pitch": 75,
              "velocity": 64,
              "position": 2.5,
              "duration": 0.375
            },
            {
              "pitch": 72,
              "velocity": 64,
              "position": 3.5,
              "duration": 0.375
            }
          ]
        },
        "4": {
          "ctab": {
            "srcChannel": 4,
            "name": "Clean27",
            "accType": "CHORD2",
            "editable": false,
            "mutedNotes": [],
            "mutedChords": [],
            "autoStart": false,
            "sourceChordNote": 0,
            "sourceChordType": "min7(11)",
            "ctb2Low": null,
            "ctb2Main": {
              "ntr": "ROOT_FIXED",
              "ntt": "CHORD",
              "bassOn": false,
              "chordRootUpperLimit": 7,
              "noteLowLimit": 0,
              "noteHighLimit": 127,
              "rtr": "PITCH_SHIFT"
            },
            "ctb2High": null
          },
          "notes": [
            {
              "pitch": 65,
              "velocity": 99,
              "position": 0,
              "duration": 0.4583333333333333
            },
            {
              "pitch": 58,
              "velocity": 99,
              "position": 0,
              "duration": 0.4895833333333333
            },
            {
              "pitch": 63,
              "velocity": 99,
              "position": 0,
              "duration": 0.4895833333333333
            },
            {
              "pitch": 58,
              "velocity": 99,
              "position": 0.5,
              "duration": 0.25
            },
            {
              "pitch": 63,
              "velocity": 99,
              "position": 0.5,
              "duration": 0.25
            },
            {
              "pitch": 65,
              "velocity": 99,
              "position": 0.5,
              "duration": 0.25
            },
            {
              "pitch": 58,
              "velocity": 99,
              "position": 1.5,
              "duration": 0.22916666666666666
            },
            {
              "pitch": 63,
              "velocity": 99,
              "position": 1.5104166666666667,
              "duration": 0.21875
            },
            {
              "pitch": 65,
              "velocity": 99,
              "position": 1.5208333333333333,
              "duration": 0.21875
            },
            {
              "pitch": 58,
              "velocity": 99,
              "position": 2.5,
              "duration": 0.22916666666666666
            },
            {
              "pitch": 63,
              "velocity": 99,
              "position": 2.5104166666666665,
              "duration": 0.21875
            },
            {
              "pitch": 65,
              "velocity": 99,
              "position": 2.5208333333333335,
              "duration": 0.21875
            },
            {
              "pitch": 58,
              "velocity": 99,
              "position": 3.5,
              "duration": 0.4791666666666667
            },
            {
              "pitch": 63,
              "velocity": 99,
              "position": 3.5104166666666665,
              "duration": 0.46875
            },
            {
              "pitch": 65,
              "velocity": 99,
              "position": 3.5208333333333335,
              "duration": 0.46875
            }
          ]
        },
        "5": {
          "ctab": {
            "srcChannel": 5,
            "name": "Clean27",
            "accType": "CHORD2",
            "editable": false,
            "mutedNotes": [],
            "mutedChords": [],
            "autoStart": false,
            "sourceChordNote": 0,
            "sourceChordType": "min7(11)",
            "ctb2Low": null,
            "ctb2Main": {
              "ntr": "ROOT_TRANSPOSITION",
              "ntt": "CHORD",
              "bassOn": false,
              "chordRootUpperLimit": 3,
              "noteLowLimit": 0,
              "noteHighLimit": 127,
              "rtr": "PITCH_SHIFT"
            },
            "ctb2High": null
          },
          "notes": []
        },
        "7": {
          "ctab": {
            "srcChannel": 7,
            "name": "CC_Crash",
            "accType": "SUBRHYTHM",
            "editable": false,
            "mutedNotes": [],
            "mutedChords": [
              "1+2+5",
              "sus4",
              "1+5",
              "1+8",
              "7aug",
              "Maj7aug",
              "7(#9)",
              "7(b13)",
              "7(b9)",
              "7(13)",
              "7#11",
              "7(9)",
              "7b5",
              "7sus4",
              "7th",
              "dim7",
              "dim",
              "minMaj7(9)",
              "minMaj7",
              "min7(11)",
              "min7(9)",
              "min(9)",
              "m7b5",
              "min7",
              "min6",
              "min",
              "aug",
              "Maj6(9)",
              "Maj7(9)",
              "Maj(9)",
              "Maj7#11",
              "Maj7",
              "Maj6",
              "Maj"
            ],
            "autoStart": true,
            "sourceChordNote": 0,
            "sourceChordType": "Maj",
            "ctb2Low": null,
            "ctb2Main": {
              "ntr": "ROOT_FIXED",
              "ntt": "BYPASS",
              "bassOn": false,
              "chordRootUpperLimit": 0,
              "noteLowLimit": 0,
              "noteHighLimit": 127,
              "rtr": "RETRIGGER"
            },
            "ctb2High": null
          },
          "notes": []
        },
        "8": {
          "ctab": {
            "srcChannel": 8,
            "name": "Perc",
            "accType": "SUBRHYTHM",
            "editable": false,
            "mutedNotes": [],
            "mutedChords": [],
            "autoStart": true,
            "sourceChordNote": 0,
            "sourceChordType": "Maj7",
            "ctb2Low": null,
            "ctb2Main": {
              "ntr": "ROOT_FIXED",
              "ntt": "BYPASS",
              "bassOn": false,
              "chordRootUpperLimit": 6,
              "noteLowLimit": 0,
              "noteHighLimit": 127,
              "rtr": "PITCH_SHIFT"
            },
            "ctb2High": null
          },
          "notes": [
            {
              "pitch": 59,
              "velocity": 46,
              "position": 0,
              "duration": 0.08333333333333333
            },
            {
              "pitch": 70,
              "velocity": 37,
              "position": 0,
              "duration": 0.08333333333333333
            },
            {
              "pitch": 54,
              "velocity": 24,
              "position": 0.3,
              "duration": 0.08333333333333333
            },
            {
              "pitch": 54,
              "velocity": 55,
              "position": 0.48125,
              "duration": 0.08333333333333333
            },
            {
              "pitch": 70,
              "velocity": 16,
              "position": 0.5,
              "duration": 0.08333333333333333
            },
            {
              "pitch": 54,
              "velocity": 33,
              "position": 0.7875,
              "duration": 0.08333333333333333
            },
            {
              "pitch": 54,
              "velocity": 21,
              "position": 0.9958333333333333,
              "duration": 0.08333333333333333
            },
            {
              "pitch": 59,
              "velocity": 46,
              "position": 1,
              "duration": 0.08333333333333333
            },
            {
              "pitch": 70,
              "velocity": 37,
              "position": 1,
              "duration": 0.08333333333333333
            },
            {
              "pitch": 54,
              "velocity": 24,
              "position": 1.3,
              "duration": 0.08333333333333333
            },
            {
              "pitch": 54,
              "velocity": 51,
              "position": 1.4958333333333333,
              "duration": 0.08333333333333333
            },
            {
              "pitch": 70,
              "velocity": 21,
              "position": 1.5,
              "duration": 0.08333333333333333
            },
            {
              "pitch": 54,
              "velocity": 29,
              "position": 1.7875,
              "duration": 0.08333333333333333
            },
            {
              "pitch": 70,
              "velocity": 16,
              "position": 1.7916666666666667,
              "duration": 0.08333333333333333
            },
            {
              "pitch": 54,
              "velocity": 22,
              "position": 1.9958333333333333,
              "duration": 0.08333333333333333
            },
            {
              "pitch": 59,
              "velocity": 46,
              "position": 2,
              "duration": 0.08333333333333333
            },
            {
              "pitch": 70,
              "velocity": 37,
              "position": 2,
              "duration": 0.08333333333333333
            },
            {
              "pitch": 70,
              "velocity": 24,
              "position": 2.2916666666666665,
              "duration": 0.08333333333333333
            },
            {
              "pitch": 54,
              "velocity": 24,
              "position": 2.3,
              "duration": 0.08333333333333333
            },
            {
              "pitch": 54,
              "velocity": 49,
              "position": 2.48125,
              "duration": 0.08333333333333333
            },
            {
              "pitch": 70,
              "velocity": 16,
              "position": 2.5,
              "duration": 0.08333333333333333
            },
            {
              "pitch": 54,
              "velocity": 30,
              "position": 2.7875,
              "duration": 0.08333333333333333
            },
            {
              "pitch": 54,
              "velocity": 36,
              "position": 2.995833333333333,
              "duration": 0.08333333333333333
            },
            {
              "pitch": 59,
              "velocity": 46,
              "position": 3,
              "duration": 0.08333333333333333
            },
            {
              "pitch": 70,
              "velocity": 37,
              "position": 3,
              "duration": 0.08333333333333333
            },
            {
              "pitch": 54,
              "velocity": 24,
              "position": 3.3,
              "duration": 0.08333333333333333
            },
            {
              "pitch": 54,
              "velocity": 39,
              "position": 3.495833333333333,
              "duration": 0.08333333333333333
            },
            {
              "pitch": 70,
              "velocity": 16,
              "position": 3.5,
              "duration": 0.08333333333333333
            },
            {
              "pitch": 54,
              "velocity": 25,
              "position": 3.8,
              "duration": 0.08333333333333333
            }
          ]
        },
        "9": {
          "ctab": {
            "srcChannel": 9,
            "name": "MainDrum",
            "accType": "RHYTHM",
            "editable": false,
            "mutedNotes": [],
            "mutedChords": [],
            "autoStart": true,
            "sourceChordNote": 0,
            "sourceChordType": "Maj7",
            "ctb2Low": null,
            "ctb2Main": {
              "ntr": "ROOT_FIXED",
              "ntt": "BYPASS",
              "bassOn": false,
              "chordRootUpperLimit": 6,
              "noteLowLimit": 0,
              "noteHighLimit": 127,
              "rtr": "PITCH_SHIFT"
            },
            "ctb2High": null
          },
          "notes": [
            {
              "pitch": 33,
              "velocity": 79,
              "position": 0,
              "duration": 0.041666666666666664
            },
            {
              "pitch": 42,
              "velocity": 64,
              "position": 0,
              "duration": 0.04583333333333333
            },
            {
              "pitch": 25,
              "velocity": 105,
              "position": 0.2791666666666667,
              "duration": 0.010416666666666666
            },
            {
              "pitch": 46,
              "velocity": 54,
              "position": 0.4895833333333333,
              "duration": 0.020833333333333332
            },
            {
              "pitch": 25,
              "velocity": 105,
              "position": 0.7916666666666666,
              "duration": 0.010416666666666666
            },
            {
              "pitch": 25,
              "velocity": 116,
              "position": 1,
              "duration": 0.010416666666666666
            },
            {
              "pitch": 39,
              "velocity": 58,
              "position": 1,
              "duration": 0.010416666666666666
            },
            {
              "pitch": 33,
              "velocity": 79,
              "position": 1,
              "duration": 0.041666666666666664
            },
            {
              "pitch": 42,
              "velocity": 78,
              "position": 1,
              "duration": 0.052083333333333336
            },
            {
              "pitch": 46,
              "velocity": 54,
              "position": 1.4895833333333333,
              "duration": 0.020833333333333332
            },
            {
              "pitch": 25,
              "velocity": 116,
              "position": 1.5,
              "duration": 0.010416666666666666
            },
            {
              "pitch": 25,
              "velocity": 105,
              "position": 1.7791666666666666,
              "duration": 0.010416666666666666
            },
            {
              "pitch": 33,
              "velocity": 79,
              "position": 2,
              "duration": 0.041666666666666664
            },
            {
              "pitch": 42,
              "velocity": 78,
              "position": 2,
              "duration": 0.052083333333333336
            },
            {
              "pitch": 25,
              "velocity": 105,
              "position": 2.279166666666667,
              "duration": 0.010416666666666666
            },
            {
              "pitch": 46,
              "velocity": 54,
              "position": 2.4895833333333335,
              "duration": 0.020833333333333332
            },
            {
              "pitch": 25,
              "velocity": 116,
              "position": 2.5,
              "duration": 0.010416666666666666
            },
            {
              "pitch": 25,
              "velocity": 116,
              "position": 3,
              "duration": 0.010416666666666666
            },
            {
              "pitch": 39,
              "velocity": 58,
              "position": 3,
              "duration": 0.010416666666666666
            },
            {
              "pitch": 33,
              "velocity": 79,
              "position": 3,
              "duration": 0.041666666666666664
            },
            {
              "pitch": 42,
              "velocity": 78,
              "position": 3,
              "duration": 0.052083333333333336
            },
            {
              "pitch": 46,
              "velocity": 54,
              "position": 3.4895833333333335,
              "duration": 0.020833333333333332
            },
            {
              "pitch": 25,
              "velocity": 116,
              "position": 3.5,
              "duration": 0.010416666666666666
            },
            {
              "pitch": 25,
              "velocity": 105,
              "position": 3.7916666666666665,
              "duration": 0.010416666666666666
            }
          ]
        },
        "11": {
          "ctab": {
            "srcChannel": 11,
            "name": "Bassmaj",
            "accType": "BASS",
            "editable": false,
            "mutedNotes": [],
            "mutedChords": [],
            "autoStart": false,
            "sourceChordNote": 0,
            "sourceChordType": "Maj7",
            "ctb2Low": null,
            "ctb2Main": {
              "ntr": "ROOT_TRANSPOSITION",
              "ntt": "MELODY",
              "bassOn": true,
              "chordRootUpperLimit": 11,
              "noteLowLimit": 28,
              "noteHighLimit": 127,
              "rtr": "PITCH_SHIFT_TO_ROOT"
            },
            "ctb2High": null
          },
          "notes": [
            {
              "pitch": 24,
              "velocity": 86,
              "position": 0,
              "duration": 0.4583333333333333
            },
            {
              "pitch": 36,
              "velocity": 86,
              "position": 0.5,
              "duration": 0.20833333333333334
            },
            {
              "pitch": 28,
              "velocity": 86,
              "position": 1,
              "duration": 0.4583333333333333
            },
            {
              "pitch": 40,
              "velocity": 80,
              "position": 1.5,
              "duration": 0.20833333333333334
            },
            {
              "pitch": 31,
              "velocity": 86,
              "position": 2,
              "duration": 0.4583333333333333
            },
            {
              "pitch": 43,
              "velocity": 86,
              "position": 2.5,
              "duration": 0.20833333333333334
            },
            {
              "pitch": 35,
              "velocity": 82,
              "position": 3,
              "duration": 0.4583333333333333
            },
            {
              "pitch": 31,
              "velocity": 65,
              "position": 3.5,
              "duration": 0.4583333333333333
            }
          ]
        },
        "12": {
          "ctab": {
            "srcChannel": 12,
            "name": "Piano00",
            "accType": "CHORD1",
            "editable": false,
            "mutedNotes": [],
            "mutedChords": [],
            "autoStart": false,
            "sourceChordNote": 0,
            "sourceChordType": "min7(11)",
            "ctb2Low": null,
            "ctb2Main": {
              "ntr": "ROOT_FIXED",
              "ntt": "CHORD",
              "bassOn": false,
              "chordRootUpperLimit": 7,
              "noteLowLimit": 0,
              "noteHighLimit": 127,
              "rtr": "PITCH_SHIFT"
            },
            "ctb2High": null
          },
          "notes": [
            {
              "pitch": 58,
              "velocity": 60,
              "position": 0.2916666666666667,
              "duration": 0.4791666666666667
            },
            {
              "pitch": 63,
              "velocity": 60,
              "position": 0.2916666666666667,
              "duration": 0.4791666666666667
            },
            {
              "pitch": 58,
              "velocity": 60,
              "position": 1,
              "duration": 0.4791666666666667
            },
            {
              "pitch": 63,
              "velocity": 60,
              "position": 1,
              "duration": 0.4791666666666667
            },
            {
              "pitch": 65,
              "velocity": 60,
              "position": 1,
              "duration": 0.4791666666666667
            },
            {
              "pitch": 60,
              "velocity": 60,
              "position": 1.5,
              "duration": 0.2708333333333333
            },
            {
              "pitch": 63,
              "velocity": 60,
              "position": 1.7916666666666667,
              "duration": 0.4791666666666667
            },
            {
              "pitch": 65,
              "velocity": 60,
              "position": 1.7916666666666667,
              "duration": 0.4791666666666667
            },
            {
              "pitch": 70,
              "velocity": 60,
              "position": 1.7916666666666667,
              "duration": 0.4791666666666667
            },
            {
              "pitch": 60,
              "velocity": 60,
              "position": 2.2916666666666665,
              "duration": 0.1875
            },
            {
              "pitch": 67,
              "velocity": 60,
              "position": 2.2916666666666665,
              "duration": 0.1875
            },
            {
              "pitch": 65,
              "velocity": 60,
              "position": 2.5,
              "duration": 0.4791666666666667
            },
            {
              "pitch": 70,
              "velocity": 60,
              "position": 2.5,
              "duration": 0.4791666666666667
            },
            {
              "pitch": 75,
              "velocity": 60,
              "position": 2.5,
              "duration": 0.4791666666666667
            },
            {
              "pitch": 67,
              "velocity": 60,
              "position": 3,
              "duration": 0.2708333333333333
            },
            {
              "pitch": 72,
              "velocity": 60,
              "position": 3,
              "duration": 0.2708333333333333
            },
            {
              "pitch": 67,
              "velocity": 60,
              "position": 3.5,
              "duration": 0.2708333333333333
            },
            {
              "pitch": 72,
              "velocity": 60,
              "position": 3.5,
              "duration": 0.2708333333333333
            }
          ]
        },
        "13": {
          "ctab": {
            "srcChannel": 13,
            "name": "Piano00",
            "accType": "CHORD1",
            "editable": false,
            "mutedNotes": [],
            "mutedChords": [
              "1+2+5",
              "sus4",
              "1+5",
              "1+8",
              "Maj7aug",
              "dim",
              "minMaj7(9)",
              "minMaj7",
              "min6",
              "min",
              "aug",
              "Maj7(9)",
              "Maj7#11",
              "Maj7",
              "Maj6",
              "Maj"
            ],
            "autoStart": false,
            "sourceChordNote": 0,
            "sourceChordType": "min7(11)",
            "ctb2Low": null,
            "ctb2Main": {
              "ntr": "ROOT_TRANSPOSITION",
              "ntt": "CHORD",
              "bassOn": false,
              "chordRootUpperLimit": 10,
              "noteLowLimit": 0,
              "noteHighLimit": 127,
              "rtr": "PITCH_SHIFT"
            },
            "ctb2High": null
          },
          "notes": []
        },
        "14": {
          "ctab": {
            "srcChannel": 14,
            "name": "MGt28",
            "accType": "PHRASE1",
            "editable": false,
            "mutedNotes": [],
            "mutedChords": [],
            "autoStart": false,
            "sourceChordNote": 0,
            "sourceChordType": "min7",
            "ctb2Low": null,
            "ctb2Main": {
              "ntr": "ROOT_TRANSPOSITION",
              "ntt": "CHORD",
              "bassOn": false,
              "chordRootUpperLimit": 11,
              "noteLowLimit": 0,
              "noteHighLimit": 67,
              "rtr": "PITCH_SHIFT"
            },
            "ctb2High": null
          },
          "notes": [
            {
              "pitch": 48,
              "velocity": 95,
              "position": 0.5,
              "duration": 0.16666666666666666
            },
            {
              "pitch": 51,
              "velocity": 95,
              "position": 1,
              "duration": 0.28125
            },
            {
              "pitch": 51,
              "velocity": 95,
              "position": 1.2916666666666667,
              "duration": 0.17708333333333334
            },
            {
              "pitch": 55,
              "velocity": 85,
              "position": 2.5,
              "duration": 0.20833333333333334
            },
            {
              "pitch": 58,
              "velocity": 85,
              "position": 3.5,
              "duration": 0.20833333333333334
            }
          ]
        }
      }
    },
    "Ending_A": {
      "type": "Ending_A",
      "sizeInBeats": 4,
      "channels": {
        "1": {
          "ctab": {
            "srcChannel": 1,
            "name": "88NAgALL",
            "accType": "PAD",
            "editable": false,
            "mutedNotes": [],
            "mutedChords": [],
            "autoStart": false,
            "sourceChordNote": 0,
            "sourceChordType": "min7(11)",
            "ctb2Low": null,
            "ctb2Main": {
              "ntr": "ROOT_FIXED",
              "ntt": "CHORD",
              "bassOn": false,
              "chordRootUpperLimit": 6,
              "noteLowLimit": 62,
              "noteHighLimit": 127,
              "rtr": "PITCH_SHIFT"
            },
            "ctb2High": null
          },
          "notes": [
            {
              "pitch": 65,
              "velocity": 50,
              "position": 0,
              "duration": 3
            },
            {
              "pitch": 70,
              "velocity": 50,
              "position": 0,
              "duration": 3
            },
            {
              "pitch": 75,
              "velocity": 50,
              "position": 0,
              "duration": 3
            }
          ]
        },
        "2": {
          "ctab": {
            "srcChannel": 2,
            "name": "88NAg4Vc",
            "accType": "PAD",
            "editable": false,
            "mutedNotes": [],
            "mutedChords": [
              "1+2+5",
              "sus4",
              "1+5",
              "1+8",
              "Maj7aug",
              "dim",
              "minMaj7(9)",
              "minMaj7",
              "min6",
              "min",
              "aug",
              "Maj7(9)",
              "Maj7#11",
              "Maj7",
              "Maj6",
              "Maj"
            ],
            "autoStart": false,
            "sourceChordNote": 0,
            "sourceChordType": "Maj7",
            "ctb2Low": null,
            "ctb2Main": {
              "ntr": "ROOT_TRANSPOSITION",
              "ntt": "CHORD",
              "bassOn": false,
              "chordRootUpperLimit": 6,
              "noteLowLimit": 0,
              "noteHighLimit": 127,
              "rtr": "PITCH_SHIFT"
            },
            "ctb2High": null
          },
          "notes": [
            {
              "pitch": 72,
              "velocity": 50,
              "position": 0,
              "duration": 2.9791666666666665
            }
          ]
        },
        "3": {
          "ctab": {
            "srcChannel": 3,
            "name": "Brite100",
            "accType": "PHRASE2",
            "editable": false,
            "mutedNotes": [],
            "mutedChords": [],
            "autoStart": false,
            "sourceChordNote": 0,
            "sourceChordType": "min7(11)",
            "ctb2Low": null,
            "ctb2Main": {
              "ntr": "ROOT_FIXED",
              "ntt": "CHORD",
              "bassOn": false,
              "chordRootUpperLimit": 8,
              "noteLowLimit": 62,
              "noteHighLimit": 127,
              "rtr": "PITCH_SHIFT"
            },
            "ctb2High": null
          },
          "notes": [
            {
              "pitch": 60,
              "velocity": 64,
              "position": 0,
              "duration": 1.875
            }
          ]
        },
        "4": {
          "ctab": {
            "srcChannel": 4,
            "name": "Clean27",
            "accType": "CHORD2",
            "editable": false,
            "mutedNotes": [],
            "mutedChords": [],
            "autoStart": false,
            "sourceChordNote": 0,
            "sourceChordType": "min7(11)",
            "ctb2Low": null,
            "ctb2Main": {
              "ntr": "ROOT_FIXED",
              "ntt": "CHORD",
              "bassOn": false,
              "chordRootUpperLimit": 7,
              "noteLowLimit": 0,
              "noteHighLimit": 127,
              "rtr": "PITCH_SHIFT"
            },
            "ctb2High": null
          },
          "notes": [
            {
              "pitch": 58,
              "velocity": 91,
              "position": 0.0020833333333333333,
              "duration": 2.9854166666666666
            },
            {
              "pitch": 63,
              "velocity": 91,
              "position": 0.010416666666666666,
              "duration": 2.9895833333333335
            },
            {
              "pitch": 65,
              "velocity": 91,
              "position": 0.020833333333333332,
              "duration": 2.9895833333333335
            }
          ]
        },
        "5": {
          "ctab": {
            "srcChannel": 5,
            "name": "Clean27",
            "accType": "CHORD2",
            "editable": false,
            "mutedNotes": [],
            "mutedChords": [],
            "autoStart": false,
            "sourceChordNote": 0,
            "sourceChordType": "min7(11)",
            "ctb2Low": null,
            "ctb2Main": {
              "ntr": "ROOT_TRANSPOSITION",
              "ntt": "CHORD",
              "bassOn": false,
              "chordRootUpperLimit": 3,
              "noteLowLimit": 0,
              "noteHighLimit": 127,
              "rtr": "PITCH_SHIFT"
            },
            "ctb2High": null
          },
          "notes": []
        },
        "7": {
          "ctab": {
            "srcChannel": 7,
            "name": "CC_Crash",
            "accType": "SUBRHYTHM",
            "editable": false,
            "mutedNotes": [],
            "mutedChords": [
              "1+2+5",
              "sus4",
              "1+5",
              "1+8",
              "7aug",
              "Maj7aug",
              "7(#9)",
              "7(b13)",
              "7(b9)",
              "7(13)",
              "7#11",
              "7(9)",
              "7b5",
              "7sus4",
              "7th",
              "dim7",
              "dim",
              "minMaj7(9)",
              "minMaj7",
              "min7(11)",
              "min7(9)",
              "min(9)",
              "m7b5",
              "min7",
              "min6",
              "min",
              "aug",
              "Maj6(9)",
              "Maj7(9)",
              "Maj(9)",
              "Maj7#11",
              "Maj7",
              "Maj6",
              "Maj"
            ],
            "autoStart": true,
            "sourceChordNote": 0,
            "sourceChordType": "Maj",
            "ctb2Low": null,
            "ctb2Main": {
              "ntr": "ROOT_FIXED",
              "ntt": "BYPASS",
              "bassOn": false,
              "chordRootUpperLimit": 0,
              "noteLowLimit": 0,
              "noteHighLimit": 127,
              "rtr": "RETRIGGER"
            },
            "ctb2High": null
          },
          "notes": []
        },
        "8": {
          "ctab": {
            "srcChannel": 8,
            "name": "Perc",
            "accType": "SUBRHYTHM",
            "editable": false,
            "mutedNotes": [],
            "mutedChords": [],
            "autoStart": true,
            "sourceChordNote": 0,
            "sourceChordType": "Maj7",
            "ctb2Low": null,
            "ctb2Main": {
              "ntr": "ROOT_FIXED",
              "ntt": "BYPASS",
              "bassOn": false,
              "chordRootUpperLimit": 6,
              "noteLowLimit": 0,
              "noteHighLimit": 127,
              "rtr": "PITCH_SHIFT"
            },
            "ctb2High": null
          },
          "notes": []
        },
        "9": {
          "ctab": {
            "srcChannel": 9,
            "name": "MainDrum",
            "accType": "RHYTHM",
            "editable": false,
            "mutedNotes": [],
            "mutedChords": [],
            "autoStart": true,
            "sourceChordNote": 0,
            "sourceChordType": "Maj7",
            "ctb2Low": null,
            "ctb2Main": {
              "ntr": "ROOT_FIXED",
              "ntt": "BYPASS",
              "bassOn": false,
              "chordRootUpperLimit": 6,
              "noteLowLimit": 0,
              "noteHighLimit": 127,
              "rtr": "PITCH_SHIFT"
            },
            "ctb2High": null
          },
          "notes": [
            {
              "pitch": 25,
              "velocity": 116,
              "position": 0,
              "duration": 0.010416666666666666
            },
            {
              "pitch": 46,
              "velocity": 54,
              "position": 0,
              "duration": 0.020833333333333332
            },
            {
              "pitch": 33,
              "velocity": 79,
              "position": 0,
              "duration": 0.041666666666666664
            }
          ]
        },
        "11": {
          "ctab": {
            "srcChannel": 11,
            "name": "Bassmaj",
            "accType": "BASS",
            "editable": false,
            "mutedNotes": [],
            "mutedChords": [],
            "autoStart": false,
            "sourceChordNote": 0,
            "sourceChordType": "Maj7",
            "ctb2Low": null,
            "ctb2Main": {
              "ntr": "ROOT_TRANSPOSITION",
              "ntt": "MELODY",
              "bassOn": true,
              "chordRootUpperLimit": 11,
              "noteLowLimit": 28,
              "noteHighLimit": 127,
              "rtr": "PITCH_SHIFT_TO_ROOT"
            },
            "ctb2High": null
          },
          "notes": [
            {
              "pitch": 24,
              "velocity": 86,
              "position": 0,
              "duration": 3.1458333333333335
            }
          ]
        },
        "12": {
          "ctab": {
            "srcChannel": 12,
            "name": "Piano00",
            "accType": "CHORD1",
            "editable": false,
            "mutedNotes": [],
            "mutedChords": [],
            "autoStart": false,
            "sourceChordNote": 0,
            "sourceChordType": "min7(11)",
            "ctb2Low": null,
            "ctb2Main": {
              "ntr": "ROOT_FIXED",
              "ntt": "CHORD",
              "bassOn": false,
              "chordRootUpperLimit": 7,
              "noteLowLimit": 0,
              "noteHighLimit": 127,
              "rtr": "PITCH_SHIFT"
            },
            "ctb2High": null
          },
          "notes": [
            {
              "pitch": 58,
              "velocity": 67,
              "position": 0,
              "duration": 2.99375
            },
            {
              "pitch": 63,
              "velocity": 67,
              "position": 0,
              "duration": 2.99375
            },
            {
              "pitch": 65,
              "velocity": 67,
              "position": 0,
              "duration": 2.99375
            }
          ]
        },
        "13": {
          "ctab": {
            "srcChannel": 13,
            "name": "Piano00",
            "accType": "CHORD1",
            "editable": false,
            "mutedNotes": [],
            "mutedChords": [
              "1+2+5",
              "sus4",
              "1+5",
              "1+8",
              "Maj7aug",
              "dim",
              "minMaj7(9)",
              "minMaj7",
              "min6",
              "min",
              "aug",
              "Maj7(9)",
              "Maj7#11",
              "Maj7",
              "Maj6",
              "Maj"
            ],
            "autoStart": false,
            "sourceChordNote": 0,
            "sourceChordType": "min7(11)",
            "ctb2Low": null,
            "ctb2Main": {
              "ntr": "ROOT_TRANSPOSITION",
              "ntt": "CHORD",
              "bassOn": false,
              "chordRootUpperLimit": 10,
              "noteLowLimit": 0,
              "noteHighLimit": 127,
              "rtr": "PITCH_SHIFT"
            },
            "ctb2High": null
          },
          "notes": [
            {
              "pitch": 60,
              "velocity": 67,
              "position": 0,
              "duration": 2.99375
            }
          ]
        },
        "14": {
          "ctab": {
            "srcChannel": 14,
            "name": "MGt28",
            "accType": "PHRASE1",
            "editable": false,
            "mutedNotes": [],
            "mutedChords": [],
            "autoStart": false,
            "sourceChordNote": 0,
            "sourceChordType": "min7",
            "ctb2Low": null,
            "ctb2Main": {
              "ntr": "ROOT_TRANSPOSITION",
              "ntt": "CHORD",
              "bassOn": false,
              "chordRootUpperLimit": 11,
              "noteLowLimit": 0,
              "noteHighLimit": 67,
              "rtr": "PITCH_SHIFT"
            },
            "ctb2High": null
          },
          "notes": []
        }
      }
    },
    "Fill_In_BA": {
      "type": "Fill_In_BA",
      "sizeInBeats": 4,
      "channels": {
        "1": {
          "ctab": {
            "srcChannel": 1,
            "name": "88NAgALL",
            "accType": "PAD",
            "editable": false,
            "mutedNotes": [],
            "mutedChords": [],
            "autoStart": false,
            "sourceChordNote": 0,
            "sourceChordType": "min7(11)",
            "ctb2Low": null,
            "ctb2Main": {
              "ntr": "ROOT_FIXED",
              "ntt": "CHORD",
              "bassOn": false,
              "chordRootUpperLimit": 6,
              "noteLowLimit": 62,
              "noteHighLimit": 127,
              "rtr": "PITCH_SHIFT"
            },
            "ctb2High": null
          },
          "notes": [
            {
              "pitch": 65,
              "velocity": 60,
              "position": 0,
              "duration": 0.9583333333333334
            },
            {
              "pitch": 70,
              "velocity": 60,
              "position": 0,
              "duration": 0.9583333333333334
            },
            {
              "pitch": 75,
              "velocity": 60,
              "position": 0,
              "duration": 0.9583333333333334
            }
          ]
        },
        "2": {
          "ctab": {
            "srcChannel": 2,
            "name": "88NAg4Vc",
            "accType": "PAD",
            "editable": false,
            "mutedNotes": [],
            "mutedChords": [
              "1+2+5",
              "sus4",
              "1+5",
              "1+8",
              "Maj7aug",
              "dim",
              "minMaj7(9)",
              "minMaj7",
              "min6",
              "min",
              "aug",
              "Maj7(9)",
              "Maj7#11",
              "Maj7",
              "Maj6",
              "Maj"
            ],
            "autoStart": false,
            "sourceChordNote": 0,
            "sourceChordType": "Maj7",
            "ctb2Low": null,
            "ctb2Main": {
              "ntr": "ROOT_TRANSPOSITION",
              "ntt": "CHORD",
              "bassOn": false,
              "chordRootUpperLimit": 6,
              "noteLowLimit": 0,
              "noteHighLimit": 127,
              "rtr": "PITCH_SHIFT"
            },
            "ctb2High": null
          },
          "notes": [
            {
              "pitch": 72,
              "velocity": 65,
              "position": 0,
              "duration": 0.9583333333333334
            }
          ]
        },
        "3": {
          "ctab": {
            "srcChannel": 3,
            "name": "Brite100",
            "accType": "PHRASE2",
            "editable": false,
            "mutedNotes": [],
            "mutedChords": [],
            "autoStart": false,
            "sourceChordNote": 0,
            "sourceChordType": "min7(11)",
            "ctb2Low": null,
            "ctb2Main": {
              "ntr": "ROOT_FIXED",
              "ntt": "CHORD",
              "bassOn": false,
              "chordRootUpperLimit": 8,
              "noteLowLimit": 62,
              "noteHighLimit": 127,
              "rtr": "PITCH_SHIFT"
            },
            "ctb2High": null
          },
          "notes": [
            {
              "pitch": 79,
              "velocity": 64,
              "position": 0.5,
              "duration": 0.375
            },
            {
              "pitch": 84,
              "velocity": 64,
              "position": 1,
              "duration": 0.375
            }
          ]
        },
        "4": {
          "ctab": {
            "srcChannel": 4,
            "name": "Clean27",
            "accType": "CHORD2",
            "editable": false,
            "mutedNotes": [],
            "mutedChords": [],
            "autoStart": false,
            "sourceChordNote": 0,
            "sourceChordType": "min7(11)",
            "ctb2Low": null,
            "ctb2Main": {
              "ntr": "ROOT_FIXED",
              "ntt": "CHORD",
              "bassOn": false,
              "chordRootUpperLimit": 7,
              "noteLowLimit": 0,
              "noteHighLimit": 127,
              "rtr": "PITCH_SHIFT"
            },
            "ctb2High": null
          },
          "notes": [
            {
              "pitch": 65,
              "velocity": 91,
              "position": 0.020833333333333332,
              "duration": 0.9270833333333334
            },
            {
              "pitch": 58,
              "velocity": 91,
              "position": 0.0020833333333333333,
              "duration": 0.9604166666666667
            },
            {
              "pitch": 63,
              "velocity": 91,
              "position": 0.010416666666666666,
              "duration": 0.9583333333333334
            },
            {
              "pitch": 58,
              "velocity": 112,
              "position": 1,
              "duration": 0.13541666666666666
            },
            {
              "pitch": 63,
              "velocity": 111,
              "position": 1.0104166666666667,
              "duration": 0.13541666666666666
            },
            {
              "pitch": 65,
              "velocity": 112,
              "position": 1.0208333333333333,
              "duration": 0.125
            }
          ]
        },
        "5": {
          "ctab": {
            "srcChannel": 5,
            "name": "Clean27",
            "accType": "CHORD2",
            "editable": false,
            "mutedNotes": [],
            "mutedChords": [],
            "autoStart": false,
            "sourceChordNote": 0,
            "sourceChordType": "min7(11)",
            "ctb2Low": null,
            "ctb2Main": {
              "ntr": "ROOT_TRANSPOSITION",
              "ntt": "CHORD",
              "bassOn": false,
              "chordRootUpperLimit": 3,
              "noteLowLimit": 0,
              "noteHighLimit": 127,
              "rtr": "PITCH_SHIFT"
            },
            "ctb2High": null
          },
          "notes": []
        },
        "7": {
          "ctab": {
            "srcChannel": 7,
            "name": "CC_Crash",
            "accType": "SUBRHYTHM",
            "editable": false,
            "mutedNotes": [],
            "mutedChords": [
              "1+2+5",
              "sus4",
              "1+5",
              "1+8",
              "7aug",
              "Maj7aug",
              "7(#9)",
              "7(b13)",
              "7(b9)",
              "7(13)",
              "7#11",
              "7(9)",
              "7b5",
              "7sus4",
              "7th",
              "dim7",
              "dim",
              "minMaj7(9)",
              "minMaj7",
              "min7(11)",
              "min7(9)",
              "min(9)",
              "m7b5",
              "min7",
              "min6",
              "min",
              "aug",
              "Maj6(9)",
              "Maj7(9)",
              "Maj(9)",
              "Maj7#11",
              "Maj7",
              "Maj6",
              "Maj"
            ],
            "autoStart": true,
            "sourceChordNote": 0,
            "sourceChordType": "Maj",
            "ctb2Low": null,
            "ctb2Main": {
              "ntr": "ROOT_FIXED",
              "ntt": "BYPASS",
              "bassOn": false,
              "chordRootUpperLimit": 0,
              "noteLowLimit": 0,
              "noteHighLimit": 127,
              "rtr": "RETRIGGER"
            },
            "ctb2High": null
          },
          "notes": []
        },
        "8": {
          "ctab": {
            "srcChannel": 8,
            "name": "Perc",
            "accType": "SUBRHYTHM",
            "editable": false,
            "mutedNotes": [],
            "mutedChords": [],
            "autoStart": true,
            "sourceChordNote": 0,
            "sourceChordType": "Maj7",
            "ctb2Low": null,
            "ctb2Main": {
              "ntr": "ROOT_FIXED",
              "ntt": "BYPASS",
              "bassOn": false,
              "chordRootUpperLimit": 6,
              "noteLowLimit": 0,
              "noteHighLimit": 127,
              "rtr": "PITCH_SHIFT"
            },
            "ctb2High": null
          },
          "notes": [
            {
              "pitch": 70,
              "velocity": 37,
              "position": 0.0020833333333333333,
              "duration": 0.07916666666666666
            },
            {
              "pitch": 54,
              "velocity": 8,
              "position": 0.2708333333333333,
              "duration": 0.08333333333333333
            },
            {
              "pitch": 54,
              "velocity": 70,
              "position": 0.4791666666666667,
              "duration": 0.08333333333333333
            },
            {
              "pitch": 70,
              "velocity": 16,
              "position": 0.5,
              "duration": 0.08333333333333333
            },
            {
              "pitch": 54,
              "velocity": 39,
              "position": 0.7708333333333334,
              "duration": 0.08333333333333333
            },
            {
              "pitch": 70,
              "velocity": 16,
              "position": 0.7916666666666666,
              "duration": 0.08333333333333333
            },
            {
              "pitch": 49,
              "velocity": 50,
              "position": 1,
              "duration": 0.010416666666666666
            },
            {
              "pitch": 54,
              "velocity": 23,
              "position": 0.9791666666666666,
              "duration": 0.08333333333333333
            },
            {
              "pitch": 70,
              "velocity": 37,
              "position": 1,
              "duration": 0.08333333333333333
            },
            {
              "pitch": 54,
              "velocity": 65,
              "position": 3.98125,
              "duration": 0.01875
            },
            {
              "pitch": 57,
              "velocity": 60,
              "position": 3.9895833333333335,
              "duration": 0.010416666666666666
            }
          ]
        },
        "9": {
          "ctab": {
            "srcChannel": 9,
            "name": "MainDrum",
            "accType": "RHYTHM",
            "editable": false,
            "mutedNotes": [],
            "mutedChords": [],
            "autoStart": true,
            "sourceChordNote": 0,
            "sourceChordType": "Maj7",
            "ctb2Low": null,
            "ctb2Main": {
              "ntr": "ROOT_FIXED",
              "ntt": "BYPASS",
              "bassOn": false,
              "chordRootUpperLimit": 6,
              "noteLowLimit": 0,
              "noteHighLimit": 127,
              "rtr": "PITCH_SHIFT"
            },
            "ctb2High": null
          },
          "notes": [
            {
              "pitch": 33,
              "velocity": 79,
              "position": 0.0020833333333333333,
              "duration": 0.041666666666666664
            },
            {
              "pitch": 42,
              "velocity": 72,
              "position": 0.0020833333333333333,
              "duration": 0.04791666666666667
            },
            {
              "pitch": 42,
              "velocity": 78,
              "position": 0.2916666666666667,
              "duration": 0.08333333333333333
            },
            {
              "pitch": 46,
              "velocity": 54,
              "position": 0.5,
              "duration": 0.020833333333333332
            },
            {
              "pitch": 25,
              "velocity": 120,
              "position": 1,
              "duration": 0.010416666666666666
            },
            {
              "pitch": 33,
              "velocity": 79,
              "position": 1,
              "duration": 0.041666666666666664
            },
            {
              "pitch": 25,
              "velocity": 43,
              "position": 1.25,
              "duration": 0.010416666666666666
            },
            {
              "pitch": 25,
              "velocity": 43,
              "position": 1.5,
              "duration": 0.010416666666666666
            },
            {
              "pitch": 25,
              "velocity": 51,
              "position": 1.75,
              "duration": 0.010416666666666666
            },
            {
              "pitch": 25,
              "velocity": 61,
              "position": 2,
              "duration": 0.010416666666666666
            },
            {
              "pitch": 25,
              "velocity": 67,
              "position": 2.25,
              "duration": 0.010416666666666666
            },
            {
              "pitch": 25,
              "velocity": 74,
              "position": 2.5,
              "duration": 0.010416666666666666
            },
            {
              "pitch": 25,
              "velocity": 82,
              "position": 2.75,
              "duration": 0.010416666666666666
            },
            {
              "pitch": 25,
              "velocity": 68,
              "position": 3,
              "duration": 0.010416666666666666
            },
            {
              "pitch": 33,
              "velocity": 35,
              "position": 3,
              "duration": 0.010416666666666666
            },
            {
              "pitch": 25,
              "velocity": 62,
              "position": 3.125,
              "duration": 0.010416666666666666
            },
            {
              "pitch": 33,
              "velocity": 29,
              "position": 3.125,
              "duration": 0.010416666666666666
            },
            {
              "pitch": 25,
              "velocity": 76,
              "position": 3.25,
              "duration": 0.010416666666666666
            },
            {
              "pitch": 33,
              "velocity": 43,
              "position": 3.25,
              "duration": 0.010416666666666666
            },
            {
              "pitch": 25,
              "velocity": 68,
              "position": 3.375,
              "duration": 0.010416666666666666
            },
            {
              "pitch": 33,
              "velocity": 35,
              "position": 3.375,
              "duration": 0.010416666666666666
            },
            {
              "pitch": 25,
              "velocity": 84,
              "position": 3.5,
              "duration": 0.010416666666666666
            },
            {
              "pitch": 33,
              "velocity": 51,
              "position": 3.5,
              "duration": 0.010416666666666666
            },
            {
              "pitch": 25,
              "velocity": 82,
              "position": 3.625,
              "duration": 0.010416666666666666
            },
            {
              "pitch": 33,
              "velocity": 49,
              "position": 3.625,
              "duration": 0.010416666666666666
            },
            {
              "pitch": 25,
              "velocity": 92,
              "position": 3.75,
              "duration": 0.010416666666666666
            },
            {
              "pitch": 33,
              "velocity": 59,
              "position": 3.75,
              "duration": 0.010416666666666666
            },
            {
              "pitch": 25,
              "velocity": 93,
              "position": 3.875,
              "duration": 0.010416666666666666
            },
            {
              "pitch": 33,
              "velocity": 60,
              "position": 3.875,
              "duration": 0.010416666666666666
            }
          ]
        },
        "11": {
          "ctab": {
            "srcChannel": 11,
            "name": "Bassmaj",
            "accType": "BASS",
            "editable": false,
            "mutedNotes": [],
            "mutedChords": [],
            "autoStart": false,
            "sourceChordNote": 0,
            "sourceChordType": "Maj7",
            "ctb2Low": null,
            "ctb2Main": {
              "ntr": "ROOT_TRANSPOSITION",
              "ntt": "MELODY",
              "bassOn": true,
              "chordRootUpperLimit": 11,
              "noteLowLimit": 28,
              "noteHighLimit": 127,
              "rtr": "PITCH_SHIFT_TO_ROOT"
            },
            "ctb2High": null
          },
          "notes": [
            {
              "pitch": 24,
              "velocity": 86,
              "position": 0,
              "duration": 0.9583333333333334
            },
            {
              "pitch": 24,
              "velocity": 86,
              "position": 1,
              "duration": 0.20833333333333334
            }
          ]
        },
        "12": {
          "ctab": {
            "srcChannel": 12,
            "name": "Piano00",
            "accType": "CHORD1",
            "editable": false,
            "mutedNotes": [],
            "mutedChords": [],
            "autoStart": false,
            "sourceChordNote": 0,
            "sourceChordType": "min7(11)",
            "ctb2Low": null,
            "ctb2Main": {
              "ntr": "ROOT_FIXED",
              "ntt": "CHORD",
              "bassOn": false,
              "chordRootUpperLimit": 7,
              "noteLowLimit": 0,
              "noteHighLimit": 127,
              "rtr": "PITCH_SHIFT"
            },
            "ctb2High": null
          },
          "notes": [
            {
              "pitch": 58,
              "velocity": 67,
              "position": 0.0020833333333333333,
              "duration": 0.7458333333333333
            },
            {
              "pitch": 63,
              "velocity": 67,
              "position": 0.0020833333333333333,
              "duration": 0.7458333333333333
            },
            {
              "pitch": 65,
              "velocity": 67,
              "position": 0.0020833333333333333,
              "duration": 0.7458333333333333
            },
            {
              "pitch": 58,
              "velocity": 67,
              "position": 0.7916666666666666,
              "duration": 0.16666666666666666
            },
            {
              "pitch": 63,
              "velocity": 67,
              "position": 0.7916666666666666,
              "duration": 0.16666666666666666
            },
            {
              "pitch": 65,
              "velocity": 67,
              "position": 0.7916666666666666,
              "duration": 0.16666666666666666
            }
          ]
        },
        "13": {
          "ctab": {
            "srcChannel": 13,
            "name": "Piano00",
            "accType": "CHORD1",
            "editable": false,
            "mutedNotes": [],
            "mutedChords": [
              "1+2+5",
              "sus4",
              "1+5",
              "1+8",
              "Maj7aug",
              "dim",
              "minMaj7(9)",
              "minMaj7",
              "min6",
              "min",
              "aug",
              "Maj7(9)",
              "Maj7#11",
              "Maj7",
              "Maj6",
              "Maj"
            ],
            "autoStart": false,
            "sourceChordNote": 0,
            "sourceChordType": "min7(11)",
            "ctb2Low": null,
            "ctb2Main": {
              "ntr": "ROOT_TRANSPOSITION",
              "ntt": "CHORD",
              "bassOn": false,
              "chordRootUpperLimit": 10,
              "noteLowLimit": 0,
              "noteHighLimit": 127,
              "rtr": "PITCH_SHIFT"
            },
            "ctb2High": null
          },
          "notes": [
            {
              "pitch": 60,
              "velocity": 67,
              "position": 0.0020833333333333333,
              "duration": 0.7458333333333333
            },
            {
              "pitch": 60,
              "velocity": 67,
              "position": 0.7916666666666666,
              "duration": 0.16666666666666666
            }
          ]
        },
        "14": {
          "ctab": {
            "srcChannel": 14,
            "name": "MGt28",
            "accType": "PHRASE1",
            "editable": false,
            "mutedNotes": [],
            "mutedChords": [],
            "autoStart": false,
            "sourceChordNote": 0,
            "sourceChordType": "min7",
            "ctb2Low": null,
            "ctb2Main": {
              "ntr": "ROOT_TRANSPOSITION",
              "ntt": "CHORD",
              "bassOn": false,
              "chordRootUpperLimit": 11,
              "noteLowLimit": 0,
              "noteHighLimit": 67,
              "rtr": "PITCH_SHIFT"
            },
            "ctb2High": null
          },
          "notes": []
        }
      }
    },
    "Intro_C": {
      "type": "Intro_C",
      "sizeInBeats": 16,
      "channels": {
        "1": {
          "ctab": {
            "srcChannel": 1,
            "name": "88NAgMAJ",
            "accType": "PAD",
            "editable": false,
            "mutedNotes": [],
            "mutedChords": [
              "dim7",
              "dim",
              "minMaj7(9)",
              "minMaj7",
              "min7(11)",
              "min7(9)",
              "min(9)",
              "m7b5",
              "min7",
              "min6",
              "min"
            ],
            "autoStart": false,
            "sourceChordNote": 0,
            "sourceChordType": "Maj",
            "ctb2Low": null,
            "ctb2Main": {
              "ntr": "ROOT_TRANSPOSITION",
              "ntt": "BYPASS",
              "bassOn": false,
              "chordRootUpperLimit": 6,
              "noteLowLimit": 71,
              "noteHighLimit": 82,
              "rtr": "PITCH_SHIFT"
            },
            "ctb2High": null
          },
          "notes": [
            {
              "pitch": 65,
              "velocity": 95,
              "position": 0,
              "duration": 1.9375
            },
            {
              "pitch": 69,
              "velocity": 95,
              "position": 0,
              "duration": 1.9375
            },
            {
              "pitch": 74,
              "velocity": 95,
              "position": 0,
              "duration": 1.9375
            },
            {
              "pitch": 67,
              "velocity": 95,
              "position": 2,
              "duration": 1.9375
            },
            {
              "pitch": 71,
              "velocity": 95,
              "position": 2,
              "duration": 1.9375
            },
            {
              "pitch": 74,
              "velocity": 95,
              "position": 2,
              "duration": 1.9375
            },
            {
              "pitch": 67,
              "velocity": 95,
              "position": 4,
              "duration": 1.9375
            },
            {
              "pitch": 71,
              "velocity": 95,
              "position": 4,
              "duration": 1.9375
            },
            {
              "pitch": 76,
              "velocity": 95,
              "position": 4,
              "duration": 1.9375
            },
            {
              "pitch": 69,
              "velocity": 95,
              "position": 6,
              "duration": 1.9375
            },
            {
              "pitch": 72,
              "velocity": 95,
              "position": 6,
              "duration": 1.9375
            },
            {
              "pitch": 76,
              "velocity": 95,
              "position": 6,
              "duration": 1.9375
            },
            {
              "pitch": 65,
              "velocity": 95,
              "position": 8,
              "duration": 3.9375
            },
            {
              "pitch": 69,
              "velocity": 95,
              "position": 8,
              "duration": 3.9375
            },
            {
              "pitch": 72,
              "velocity": 95,
              "position": 8,
              "duration": 3.9375
            },
            {
              "pitch": 65,
              "velocity": 95,
              "position": 12,
              "duration": 1.9375
            },
            {
              "pitch": 69,
              "velocity": 95,
              "position": 12,
              "duration": 1.9375
            },
            {
              "pitch": 74,
              "velocity": 95,
              "position": 12,
              "duration": 1.9375
            },
            {
              "pitch": 67,
              "velocity": 95,
              "position": 14,
              "duration": 1.9375
            },
            {
              "pitch": 71,
              "velocity": 95,
              "position": 14,
              "duration": 1.9375
            },
            {
              "pitch": 74,
              "velocity": 95,
              "position": 14,
              "duration": 1.9375
            }
          ]
        },
        "2": {
          "ctab": {
            "srcChannel": 2,
            "name": "88NAgMIN",
            "accType": "PAD",
            "editable": false,
            "mutedNotes": [],
            "mutedChords": [
              "1+2+5",
              "sus4",
              "1+5",
              "1+8",
              "7aug",
              "Maj7aug",
              "7(#9)",
              "7(b13)",
              "7(b9)",
              "7(13)",
              "7#11",
              "7(9)",
              "7b5",
              "7sus4",
              "7th",
              "aug",
              "Maj6(9)",
              "Maj7(9)",
              "Maj(9)",
              "Maj7#11",
              "Maj7",
              "Maj6",
              "Maj"
            ],
            "autoStart": false,
            "sourceChordNote": 0,
            "sourceChordType": "min",
            "ctb2Low": null,
            "ctb2Main": {
              "ntr": "ROOT_TRANSPOSITION",
              "ntt": "BYPASS",
              "bassOn": false,
              "chordRootUpperLimit": 7,
              "noteLowLimit": 71,
              "noteHighLimit": 82,
              "rtr": "PITCH_SHIFT"
            },
            "ctb2High": null
          },
          "notes": [
            {
              "pitch": 63,
              "velocity": 101,
              "position": 0,
              "duration": 1.9583333333333333
            },
            {
              "pitch": 67,
              "velocity": 101,
              "position": 0,
              "duration": 1.9583333333333333
            },
            {
              "pitch": 72,
              "velocity": 101,
              "position": 0,
              "duration": 1.9583333333333333
            },
            {
              "pitch": 63,
              "velocity": 101,
              "position": 2,
              "duration": 1.9583333333333333
            },
            {
              "pitch": 67,
              "velocity": 101,
              "position": 2,
              "duration": 1.9583333333333333
            },
            {
              "pitch": 70,
              "velocity": 101,
              "position": 2,
              "duration": 1.9583333333333333
            },
            {
              "pitch": 65,
              "velocity": 101,
              "position": 4,
              "duration": 1.9583333333333333
            },
            {
              "pitch": 70,
              "velocity": 101,
              "position": 4,
              "duration": 1.9583333333333333
            },
            {
              "pitch": 74,
              "velocity": 101,
              "position": 4,
              "duration": 1.9583333333333333
            },
            {
              "pitch": 65,
              "velocity": 101,
              "position": 6,
              "duration": 1.9583333333333333
            },
            {
              "pitch": 68,
              "velocity": 101,
              "position": 6,
              "duration": 1.9583333333333333
            },
            {
              "pitch": 72,
              "velocity": 101,
              "position": 6,
              "duration": 1.9583333333333333
            },
            {
              "pitch": 63,
              "velocity": 101,
              "position": 8,
              "duration": 3.9583333333333335
            },
            {
              "pitch": 68,
              "velocity": 101,
              "position": 8,
              "duration": 3.9583333333333335
            },
            {
              "pitch": 72,
              "velocity": 101,
              "position": 8,
              "duration": 3.9583333333333335
            },
            {
              "pitch": 65,
              "velocity": 101,
              "position": 12,
              "duration": 1.9583333333333333
            },
            {
              "pitch": 68,
              "velocity": 101,
              "position": 12,
              "duration": 1.9583333333333333
            },
            {
              "pitch": 72,
              "velocity": 101,
              "position": 12,
              "duration": 1.9583333333333333
            },
            {
              "pitch": 72,
              "velocity": 101,
              "position": 14,
              "duration": 0.9583333333333334
            },
            {
              "pitch": 67,
              "velocity": 101,
              "position": 14,
              "duration": 1.9583333333333333
            },
            {
              "pitch": 71,
              "velocity": 101,
              "position": 15,
              "duration": 0.9583333333333334
            },
            {
              "pitch": 74,
              "velocity": 101,
              "position": 14,
              "duration": 1.9583333333333333
            }
          ]
        },
        "3": {
          "ctab": {
            "srcChannel": 3,
            "name": "BriteMAJ",
            "accType": "PHRASE2",
            "editable": false,
            "mutedNotes": [],
            "mutedChords": [
              "dim7",
              "dim",
              "minMaj7(9)",
              "minMaj7",
              "min7(11)",
              "min7(9)",
              "min(9)",
              "m7b5",
              "min7",
              "min6",
              "min"
            ],
            "autoStart": false,
            "sourceChordNote": 0,
            "sourceChordType": "Maj",
            "ctb2Low": null,
            "ctb2Main": {
              "ntr": "ROOT_TRANSPOSITION",
              "ntt": "BYPASS",
              "bassOn": false,
              "chordRootUpperLimit": 7,
              "noteLowLimit": 0,
              "noteHighLimit": 127,
              "rtr": "PITCH_SHIFT"
            },
            "ctb2High": null
          },
          "notes": [
            {
              "pitch": 72,
              "velocity": 127,
              "position": 0.5,
              "duration": 0.375
            },
            {
              "pitch": 69,
              "velocity": 127,
              "position": 1,
              "duration": 0.375
            },
            {
              "pitch": 74,
              "velocity": 127,
              "position": 1.5,
              "duration": 0.375
            },
            {
              "pitch": 79,
              "velocity": 127,
              "position": 4.5,
              "duration": 0.375
            },
            {
              "pitch": 76,
              "velocity": 127,
              "position": 5,
              "duration": 0.375
            },
            {
              "pitch": 72,
              "velocity": 127,
              "position": 5.5,
              "duration": 0.375
            },
            {
              "pitch": 69,
              "velocity": 127,
              "position": 8.5,
              "duration": 0.375
            },
            {
              "pitch": 77,
              "velocity": 127,
              "position": 9,
              "duration": 0.375
            },
            {
              "pitch": 72,
              "velocity": 127,
              "position": 9.5,
              "duration": 0.375
            },
            {
              "pitch": 69,
              "velocity": 127,
              "position": 12,
              "duration": 0.375
            },
            {
              "pitch": 65,
              "velocity": 127,
              "position": 12.5,
              "duration": 0.375
            },
            {
              "pitch": 74,
              "velocity": 127,
              "position": 13,
              "duration": 0.375
            },
            {
              "pitch": 74,
              "velocity": 127,
              "position": 13.5,
              "duration": 0.375
            },
            {
              "pitch": 67,
              "velocity": 127,
              "position": 14.5,
              "duration": 0.375
            },
            {
              "pitch": 74,
              "velocity": 127,
              "position": 15,
              "duration": 0.375
            },
            {
              "pitch": 79,
              "velocity": 127,
              "position": 15.5,
              "duration": 0.375
            }
          ]
        },
        "4": {
          "ctab": {
            "srcChannel": 4,
            "name": "CG27_MAJ",
            "accType": "CHORD2",
            "editable": false,
            "mutedNotes": [],
            "mutedChords": [
              "dim7",
              "dim",
              "minMaj7(9)",
              "minMaj7",
              "min7(11)",
              "min7(9)",
              "min(9)",
              "m7b5",
              "min7",
              "min6",
              "min"
            ],
            "autoStart": false,
            "sourceChordNote": 0,
            "sourceChordType": "Maj",
            "ctb2Low": null,
            "ctb2Main": {
              "ntr": "ROOT_TRANSPOSITION",
              "ntt": "BYPASS",
              "bassOn": false,
              "chordRootUpperLimit": 7,
              "noteLowLimit": 60,
              "noteHighLimit": 71,
              "rtr": "PITCH_SHIFT"
            },
            "ctb2High": null
          },
          "notes": [
            {
              "pitch": 62,
              "velocity": 91,
              "position": 0.0020833333333333333,
              "duration": 0.48541666666666666
            },
            {
              "pitch": 65,
              "velocity": 91,
              "position": 0.010416666666666666,
              "duration": 0.4895833333333333
            },
            {
              "pitch": 69,
              "velocity": 91,
              "position": 0.020833333333333332,
              "duration": 0.4895833333333333
            },
            {
              "pitch": 69,
              "velocity": 99,
              "position": 0.5208333333333334,
              "duration": 0.25
            },
            {
              "pitch": 65,
              "velocity": 98,
              "position": 0.5104166666666666,
              "duration": 0.2708333333333333
            },
            {
              "pitch": 62,
              "velocity": 99,
              "position": 0.5,
              "duration": 0.2916666666666667
            },
            {
              "pitch": 69,
              "velocity": 73,
              "position": 0.78125,
              "duration": 0.4791666666666667
            },
            {
              "pitch": 65,
              "velocity": 73,
              "position": 0.7916666666666666,
              "duration": 0.4791666666666667
            },
            {
              "pitch": 62,
              "velocity": 72,
              "position": 0.8020833333333334,
              "duration": 0.4791666666666667
            },
            {
              "pitch": 62,
              "velocity": 72,
              "position": 1.3020833333333333,
              "duration": 0.17708333333333334
            },
            {
              "pitch": 65,
              "velocity": 73,
              "position": 1.2916666666666667,
              "duration": 0.21875
            },
            {
              "pitch": 69,
              "velocity": 73,
              "position": 1.28125,
              "duration": 0.25
            },
            {
              "pitch": 62,
              "velocity": 99,
              "position": 1.5,
              "duration": 0.4583333333333333
            },
            {
              "pitch": 65,
              "velocity": 100,
              "position": 1.5208333333333333,
              "duration": 0.4583333333333333
            },
            {
              "pitch": 69,
              "velocity": 101,
              "position": 1.5416666666666667,
              "duration": 0.4583333333333333
            },
            {
              "pitch": 59,
              "velocity": 91,
              "position": 2,
              "duration": 0.22916666666666666
            },
            {
              "pitch": 62,
              "velocity": 91,
              "position": 2.0104166666666665,
              "duration": 0.21875
            },
            {
              "pitch": 67,
              "velocity": 91,
              "position": 2.0208333333333335,
              "duration": 0.21875
            },
            {
              "pitch": 67,
              "velocity": 91,
              "position": 2.5208333333333335,
              "duration": 0.125
            },
            {
              "pitch": 59,
              "velocity": 91,
              "position": 2.5,
              "duration": 0.20833333333333334
            },
            {
              "pitch": 62,
              "velocity": 91,
              "position": 2.5104166666666665,
              "duration": 0.20833333333333334
            },
            {
              "pitch": 59,
              "velocity": 91,
              "position": 3,
              "duration": 0.22916666666666666
            },
            {
              "pitch": 62,
              "velocity": 91,
              "position": 3.0104166666666665,
              "duration": 0.21875
            },
            {
              "pitch": 67,
              "velocity": 91,
              "position": 3.0208333333333335,
              "duration": 0.21875
            },
            {
              "pitch": 67,
              "velocity": 91,
              "position": 3.5208333333333335,
              "duration": 0.125
            },
            {
              "pitch": 59,
              "velocity": 91,
              "position": 3.5,
              "duration": 0.20833333333333334
            },
            {
              "pitch": 62,
              "velocity": 91,
              "position": 3.5104166666666665,
              "duration": 0.20833333333333334
            },
            {
              "pitch": 64,
              "velocity": 91,
              "position": 4,
              "duration": 0.4895833333333333
            },
            {
              "pitch": 67,
              "velocity": 91,
              "position": 4.010416666666667,
              "duration": 0.4895833333333333
            },
            {
              "pitch": 71,
              "velocity": 91,
              "position": 4.020833333333333,
              "duration": 0.4895833333333333
            },
            {
              "pitch": 71,
              "velocity": 99,
              "position": 4.520833333333333,
              "duration": 0.25
            },
            {
              "pitch": 67,
              "velocity": 98,
              "position": 4.510416666666667,
              "duration": 0.2708333333333333
            },
            {
              "pitch": 64,
              "velocity": 99,
              "position": 4.5,
              "duration": 0.2916666666666667
            },
            {
              "pitch": 71,
              "velocity": 73,
              "position": 4.78125,
              "duration": 0.4791666666666667
            },
            {
              "pitch": 67,
              "velocity": 73,
              "position": 4.791666666666667,
              "duration": 0.4791666666666667
            },
            {
              "pitch": 64,
              "velocity": 72,
              "position": 4.802083333333333,
              "duration": 0.4791666666666667
            },
            {
              "pitch": 64,
              "velocity": 72,
              "position": 5.302083333333333,
              "duration": 0.1875
            },
            {
              "pitch": 67,
              "velocity": 73,
              "position": 5.291666666666667,
              "duration": 0.21875
            },
            {
              "pitch": 71,
              "velocity": 73,
              "position": 5.28125,
              "duration": 0.25
            },
            {
              "pitch": 64,
              "velocity": 99,
              "position": 5.5,
              "duration": 0.4583333333333333
            },
            {
              "pitch": 67,
              "velocity": 100,
              "position": 5.520833333333333,
              "duration": 0.4583333333333333
            },
            {
              "pitch": 71,
              "velocity": 101,
              "position": 5.541666666666667,
              "duration": 0.4375
            },
            {
              "pitch": 60,
              "velocity": 91,
              "position": 6,
              "duration": 0.22916666666666666
            },
            {
              "pitch": 64,
              "velocity": 91,
              "position": 6.010416666666667,
              "duration": 0.21875
            },
            {
              "pitch": 69,
              "velocity": 91,
              "position": 6.020833333333333,
              "duration": 0.21875
            },
            {
              "pitch": 69,
              "velocity": 91,
              "position": 6.520833333333333,
              "duration": 0.125
            },
            {
              "pitch": 60,
              "velocity": 91,
              "position": 6.5,
              "duration": 0.20833333333333334
            },
            {
              "pitch": 64,
              "velocity": 91,
              "position": 6.510416666666667,
              "duration": 0.20833333333333334
            },
            {
              "pitch": 60,
              "velocity": 91,
              "position": 7,
              "duration": 0.22916666666666666
            },
            {
              "pitch": 64,
              "velocity": 91,
              "position": 7.010416666666667,
              "duration": 0.21875
            },
            {
              "pitch": 69,
              "velocity": 91,
              "position": 7.020833333333333,
              "duration": 0.21875
            },
            {
              "pitch": 69,
              "velocity": 91,
              "position": 7.520833333333333,
              "duration": 0.125
            },
            {
              "pitch": 60,
              "velocity": 91,
              "position": 7.5,
              "duration": 0.20833333333333334
            },
            {
              "pitch": 64,
              "velocity": 91,
              "position": 7.510416666666667,
              "duration": 0.20833333333333334
            },
            {
              "pitch": 65,
              "velocity": 91,
              "position": 8,
              "duration": 0.4895833333333333
            },
            {
              "pitch": 69,
              "velocity": 91,
              "position": 8.010416666666666,
              "duration": 0.4895833333333333
            },
            {
              "pitch": 72,
              "velocity": 91,
              "position": 8.020833333333334,
              "duration": 0.4895833333333333
            },
            {
              "pitch": 72,
              "velocity": 99,
              "position": 8.520833333333334,
              "duration": 0.25
            },
            {
              "pitch": 69,
              "velocity": 98,
              "position": 8.510416666666666,
              "duration": 0.2708333333333333
            },
            {
              "pitch": 65,
              "velocity": 99,
              "position": 8.5,
              "duration": 0.2916666666666667
            },
            {
              "pitch": 72,
              "velocity": 73,
              "position": 8.78125,
              "duration": 0.4791666666666667
            },
            {
              "pitch": 69,
              "velocity": 73,
              "position": 8.791666666666666,
              "duration": 0.4791666666666667
            },
            {
              "pitch": 65,
              "velocity": 72,
              "position": 8.802083333333334,
              "duration": 0.4791666666666667
            },
            {
              "pitch": 65,
              "velocity": 72,
              "position": 9.302083333333334,
              "duration": 0.1875
            },
            {
              "pitch": 69,
              "velocity": 73,
              "position": 9.291666666666666,
              "duration": 0.21875
            },
            {
              "pitch": 72,
              "velocity": 73,
              "position": 9.28125,
              "duration": 0.25
            },
            {
              "pitch": 65,
              "velocity": 99,
              "position": 9.5,
              "duration": 0.4583333333333333
            },
            {
              "pitch": 69,
              "velocity": 100,
              "position": 9.520833333333334,
              "duration": 0.4583333333333333
            },
            {
              "pitch": 72,
              "velocity": 101,
              "position": 9.541666666666666,
              "duration": 0.4375
            },
            {
              "pitch": 65,
              "velocity": 91,
              "position": 10,
              "duration": 0.4895833333333333
            },
            {
              "pitch": 69,
              "velocity": 91,
              "position": 10.010416666666666,
              "duration": 0.4895833333333333
            },
            {
              "pitch": 72,
              "velocity": 91,
              "position": 10.020833333333334,
              "duration": 0.4895833333333333
            },
            {
              "pitch": 72,
              "velocity": 99,
              "position": 10.520833333333334,
              "duration": 0.25
            },
            {
              "pitch": 69,
              "velocity": 98,
              "position": 10.510416666666666,
              "duration": 0.2708333333333333
            },
            {
              "pitch": 65,
              "velocity": 99,
              "position": 10.5,
              "duration": 0.2916666666666667
            },
            {
              "pitch": 72,
              "velocity": 73,
              "position": 10.78125,
              "duration": 0.4791666666666667
            },
            {
              "pitch": 69,
              "velocity": 73,
              "position": 10.791666666666666,
              "duration": 0.4791666666666667
            },
            {
              "pitch": 65,
              "velocity": 72,
              "position": 10.802083333333334,
              "duration": 0.4791666666666667
            },
            {
              "pitch": 65,
              "velocity": 72,
              "position": 11.302083333333334,
              "duration": 0.1875
            },
            {
              "pitch": 69,
              "velocity": 73,
              "position": 11.291666666666666,
              "duration": 0.21875
            },
            {
              "pitch": 72,
              "velocity": 73,
              "position": 11.28125,
              "duration": 0.25
            },
            {
              "pitch": 65,
              "velocity": 99,
              "position": 11.5,
              "duration": 0.4583333333333333
            },
            {
              "pitch": 69,
              "velocity": 100,
              "position": 11.520833333333334,
              "duration": 0.4583333333333333
            },
            {
              "pitch": 72,
              "velocity": 101,
              "position": 11.541666666666666,
              "duration": 0.4375
            },
            {
              "pitch": 62,
              "velocity": 91,
              "position": 12,
              "duration": 0.4895833333333333
            },
            {
              "pitch": 65,
              "velocity": 91,
              "position": 12.010416666666666,
              "duration": 0.4895833333333333
            },
            {
              "pitch": 69,
              "velocity": 91,
              "position": 12.020833333333334,
              "duration": 0.4895833333333333
            },
            {
              "pitch": 69,
              "velocity": 99,
              "position": 12.520833333333334,
              "duration": 0.25
            },
            {
              "pitch": 65,
              "velocity": 98,
              "position": 12.510416666666666,
              "duration": 0.2708333333333333
            },
            {
              "pitch": 62,
              "velocity": 99,
              "position": 12.5,
              "duration": 0.2916666666666667
            },
            {
              "pitch": 69,
              "velocity": 73,
              "position": 12.78125,
              "duration": 0.4791666666666667
            },
            {
              "pitch": 65,
              "velocity": 73,
              "position": 12.791666666666666,
              "duration": 0.4791666666666667
            },
            {
              "pitch": 62,
              "velocity": 72,
              "position": 12.802083333333334,
              "duration": 0.4791666666666667
            },
            {
              "pitch": 62,
              "velocity": 72,
              "position": 13.302083333333334,
              "duration": 0.1875
            },
            {
              "pitch": 65,
              "velocity": 73,
              "position": 13.291666666666666,
              "duration": 0.21875
            },
            {
              "pitch": 69,
              "velocity": 73,
              "position": 13.28125,
              "duration": 0.25
            },
            {
              "pitch": 62,
              "velocity": 99,
              "position": 13.5,
              "duration": 0.4583333333333333
            },
            {
              "pitch": 65,
              "velocity": 100,
              "position": 13.520833333333334,
              "duration": 0.4583333333333333
            },
            {
              "pitch": 69,
              "velocity": 101,
              "position": 13.541666666666666,
              "duration": 0.4375
            },
            {
              "pitch": 62,
              "velocity": 91,
              "position": 14,
              "duration": 0.9791666666666666
            },
            {
              "pitch": 67,
              "velocity": 91,
              "position": 14.010416666666666,
              "duration": 0.96875
            },
            {
              "pitch": 62,
              "velocity": 91,
              "position": 15,
              "duration": 0.22916666666666666
            },
            {
              "pitch": 67,
              "velocity": 91,
              "position": 15.010416666666666,
              "duration": 0.21875
            },
            {
              "pitch": 62,
              "velocity": 91,
              "position": 15.5,
              "duration": 0.20833333333333334
            },
            {
              "pitch": 67,
              "velocity": 91,
              "position": 15.510416666666666,
              "duration": 0.20833333333333334
            }
          ]
        },
        "5": {
          "ctab": {
            "srcChannel": 5,
            "name": "CG27_MIN",
            "accType": "CHORD2",
            "editable": false,
            "mutedNotes": [],
            "mutedChords": [
              "1+2+5",
              "sus4",
              "1+5",
              "1+8",
              "7aug",
              "Maj7aug",
              "7(#9)",
              "7(b13)",
              "7(b9)",
              "7(13)",
              "7#11",
              "7(9)",
              "7b5",
              "7sus4",
              "7th",
              "aug",
              "Maj6(9)",
              "Maj7(9)",
              "Maj(9)",
              "Maj7#11",
              "Maj7",
              "Maj6",
              "Maj"
            ],
            "autoStart": false,
            "sourceChordNote": 0,
            "sourceChordType": "min",
            "ctb2Low": null,
            "ctb2Main": {
              "ntr": "ROOT_TRANSPOSITION",
              "ntt": "BYPASS",
              "bassOn": false,
              "chordRootUpperLimit": 3,
              "noteLowLimit": 60,
              "noteHighLimit": 71,
              "rtr": "PITCH_SHIFT"
            },
            "ctb2High": null
          },
          "notes": [
            {
              "pitch": 60,
              "velocity": 91,
              "position": 0.0020833333333333333,
              "duration": 0.48541666666666666
            },
            {
              "pitch": 63,
              "velocity": 91,
              "position": 0.010416666666666666,
              "duration": 0.4895833333333333
            },
            {
              "pitch": 67,
              "velocity": 91,
              "position": 0.020833333333333332,
              "duration": 0.4895833333333333
            },
            {
              "pitch": 67,
              "velocity": 99,
              "position": 0.5208333333333334,
              "duration": 0.25
            },
            {
              "pitch": 63,
              "velocity": 98,
              "position": 0.5104166666666666,
              "duration": 0.2708333333333333
            },
            {
              "pitch": 60,
              "velocity": 99,
              "position": 0.5,
              "duration": 0.2916666666666667
            },
            {
              "pitch": 67,
              "velocity": 73,
              "position": 0.78125,
              "duration": 0.4791666666666667
            },
            {
              "pitch": 63,
              "velocity": 73,
              "position": 0.7916666666666666,
              "duration": 0.4791666666666667
            },
            {
              "pitch": 60,
              "velocity": 72,
              "position": 0.8020833333333334,
              "duration": 0.4791666666666667
            },
            {
              "pitch": 60,
              "velocity": 72,
              "position": 1.3020833333333333,
              "duration": 0.17708333333333334
            },
            {
              "pitch": 63,
              "velocity": 73,
              "position": 1.2916666666666667,
              "duration": 0.21875
            },
            {
              "pitch": 67,
              "velocity": 73,
              "position": 1.28125,
              "duration": 0.25
            },
            {
              "pitch": 60,
              "velocity": 99,
              "position": 1.5,
              "duration": 0.4583333333333333
            },
            {
              "pitch": 63,
              "velocity": 100,
              "position": 1.5208333333333333,
              "duration": 0.4583333333333333
            },
            {
              "pitch": 67,
              "velocity": 101,
              "position": 1.5416666666666667,
              "duration": 0.4583333333333333
            },
            {
              "pitch": 58,
              "velocity": 91,
              "position": 2,
              "duration": 0.22916666666666666
            },
            {
              "pitch": 63,
              "velocity": 91,
              "position": 2.0104166666666665,
              "duration": 0.21875
            },
            {
              "pitch": 67,
              "velocity": 91,
              "position": 2.0208333333333335,
              "duration": 0.21875
            },
            {
              "pitch": 67,
              "velocity": 91,
              "position": 2.5208333333333335,
              "duration": 0.125
            },
            {
              "pitch": 58,
              "velocity": 91,
              "position": 2.5,
              "duration": 0.20833333333333334
            },
            {
              "pitch": 63,
              "velocity": 91,
              "position": 2.5104166666666665,
              "duration": 0.20833333333333334
            },
            {
              "pitch": 58,
              "velocity": 91,
              "position": 3,
              "duration": 0.22916666666666666
            },
            {
              "pitch": 63,
              "velocity": 91,
              "position": 3.0104166666666665,
              "duration": 0.21875
            },
            {
              "pitch": 67,
              "velocity": 91,
              "position": 3.0208333333333335,
              "duration": 0.21875
            },
            {
              "pitch": 67,
              "velocity": 91,
              "position": 3.5208333333333335,
              "duration": 0.125
            },
            {
              "pitch": 58,
              "velocity": 91,
              "position": 3.5,
              "duration": 0.20833333333333334
            },
            {
              "pitch": 63,
              "velocity": 91,
              "position": 3.5104166666666665,
              "duration": 0.20833333333333334
            },
            {
              "pitch": 62,
              "velocity": 91,
              "position": 4,
              "duration": 0.4895833333333333
            },
            {
              "pitch": 65,
              "velocity": 91,
              "position": 4.010416666666667,
              "duration": 0.4895833333333333
            },
            {
              "pitch": 70,
              "velocity": 91,
              "position": 4.020833333333333,
              "duration": 0.4895833333333333
            },
            {
              "pitch": 70,
              "velocity": 99,
              "position": 4.520833333333333,
              "duration": 0.25
            },
            {
              "pitch": 65,
              "velocity": 98,
              "position": 4.510416666666667,
              "duration": 0.2708333333333333
            },
            {
              "pitch": 62,
              "velocity": 99,
              "position": 4.5,
              "duration": 0.2916666666666667
            },
            {
              "pitch": 70,
              "velocity": 73,
              "position": 4.78125,
              "duration": 0.4791666666666667
            },
            {
              "pitch": 65,
              "velocity": 73,
              "position": 4.791666666666667,
              "duration": 0.4791666666666667
            },
            {
              "pitch": 62,
              "velocity": 72,
              "position": 4.802083333333333,
              "duration": 0.4791666666666667
            },
            {
              "pitch": 62,
              "velocity": 72,
              "position": 5.302083333333333,
              "duration": 0.1875
            },
            {
              "pitch": 65,
              "velocity": 73,
              "position": 5.291666666666667,
              "duration": 0.21875
            },
            {
              "pitch": 70,
              "velocity": 73,
              "position": 5.28125,
              "duration": 0.25
            },
            {
              "pitch": 62,
              "velocity": 99,
              "position": 5.5,
              "duration": 0.4583333333333333
            },
            {
              "pitch": 65,
              "velocity": 100,
              "position": 5.520833333333333,
              "duration": 0.4583333333333333
            },
            {
              "pitch": 70,
              "velocity": 101,
              "position": 5.541666666666667,
              "duration": 0.4375
            },
            {
              "pitch": 60,
              "velocity": 91,
              "position": 6,
              "duration": 0.22916666666666666
            },
            {
              "pitch": 63,
              "velocity": 91,
              "position": 6.010416666666667,
              "duration": 0.21875
            },
            {
              "pitch": 68,
              "velocity": 91,
              "position": 6.020833333333333,
              "duration": 0.21875
            },
            {
              "pitch": 68,
              "velocity": 91,
              "position": 6.520833333333333,
              "duration": 0.125
            },
            {
              "pitch": 60,
              "velocity": 91,
              "position": 6.5,
              "duration": 0.20833333333333334
            },
            {
              "pitch": 63,
              "velocity": 91,
              "position": 6.510416666666667,
              "duration": 0.20833333333333334
            },
            {
              "pitch": 60,
              "velocity": 91,
              "position": 7,
              "duration": 0.22916666666666666
            },
            {
              "pitch": 63,
              "velocity": 91,
              "position": 7.010416666666667,
              "duration": 0.21875
            },
            {
              "pitch": 68,
              "velocity": 91,
              "position": 7.020833333333333,
              "duration": 0.21875
            },
            {
              "pitch": 68,
              "velocity": 91,
              "position": 7.520833333333333,
              "duration": 0.125
            },
            {
              "pitch": 60,
              "velocity": 91,
              "position": 7.5,
              "duration": 0.20833333333333334
            },
            {
              "pitch": 63,
              "velocity": 91,
              "position": 7.510416666666667,
              "duration": 0.20833333333333334
            },
            {
              "pitch": 63,
              "velocity": 91,
              "position": 8,
              "duration": 0.4895833333333333
            },
            {
              "pitch": 68,
              "velocity": 91,
              "position": 8.010416666666666,
              "duration": 0.4895833333333333
            },
            {
              "pitch": 72,
              "velocity": 91,
              "position": 8.020833333333334,
              "duration": 0.4895833333333333
            },
            {
              "pitch": 72,
              "velocity": 99,
              "position": 8.520833333333334,
              "duration": 0.25
            },
            {
              "pitch": 68,
              "velocity": 98,
              "position": 8.510416666666666,
              "duration": 0.2708333333333333
            },
            {
              "pitch": 63,
              "velocity": 99,
              "position": 8.5,
              "duration": 0.2916666666666667
            },
            {
              "pitch": 72,
              "velocity": 73,
              "position": 8.78125,
              "duration": 0.4791666666666667
            },
            {
              "pitch": 68,
              "velocity": 73,
              "position": 8.791666666666666,
              "duration": 0.4791666666666667
            },
            {
              "pitch": 63,
              "velocity": 72,
              "position": 8.802083333333334,
              "duration": 0.4791666666666667
            },
            {
              "pitch": 63,
              "velocity": 72,
              "position": 9.302083333333334,
              "duration": 0.1875
            },
            {
              "pitch": 68,
              "velocity": 73,
              "position": 9.291666666666666,
              "duration": 0.21875
            },
            {
              "pitch": 72,
              "velocity": 73,
              "position": 9.28125,
              "duration": 0.25
            },
            {
              "pitch": 63,
              "velocity": 99,
              "position": 9.5,
              "duration": 0.4583333333333333
            },
            {
              "pitch": 68,
              "velocity": 100,
              "position": 9.520833333333334,
              "duration": 0.4583333333333333
            },
            {
              "pitch": 72,
              "velocity": 101,
              "position": 9.541666666666666,
              "duration": 0.4375
            },
            {
              "pitch": 63,
              "velocity": 91,
              "position": 10,
              "duration": 0.4895833333333333
            },
            {
              "pitch": 68,
              "velocity": 91,
              "position": 10.010416666666666,
              "duration": 0.4895833333333333
            },
            {
              "pitch": 72,
              "velocity": 91,
              "position": 10.020833333333334,
              "duration": 0.4895833333333333
            },
            {
              "pitch": 72,
              "velocity": 99,
              "position": 10.520833333333334,
              "duration": 0.25
            },
            {
              "pitch": 68,
              "velocity": 98,
              "position": 10.510416666666666,
              "duration": 0.2708333333333333
            },
            {
              "pitch": 63,
              "velocity": 99,
              "position": 10.5,
              "duration": 0.2916666666666667
            },
            {
              "pitch": 72,
              "velocity": 73,
              "position": 10.78125,
              "duration": 0.4791666666666667
            },
            {
              "pitch": 68,
              "velocity": 73,
              "position": 10.791666666666666,
              "duration": 0.4791666666666667
            },
            {
              "pitch": 63,
              "velocity": 72,
              "position": 10.802083333333334,
              "duration": 0.4791666666666667
            },
            {
              "pitch": 63,
              "velocity": 72,
              "position": 11.302083333333334,
              "duration": 0.1875
            },
            {
              "pitch": 68,
              "velocity": 73,
              "position": 11.291666666666666,
              "duration": 0.21875
            },
            {
              "pitch": 72,
              "velocity": 73,
              "position": 11.28125,
              "duration": 0.25
            },
            {
              "pitch": 63,
              "velocity": 99,
              "position": 11.5,
              "duration": 0.4583333333333333
            },
            {
              "pitch": 68,
              "velocity": 100,
              "position": 11.520833333333334,
              "duration": 0.4583333333333333
            },
            {
              "pitch": 72,
              "velocity": 101,
              "position": 11.541666666666666,
              "duration": 0.4375
            },
            {
              "pitch": 63,
              "velocity": 91,
              "position": 12,
              "duration": 0.4895833333333333
            },
            {
              "pitch": 68,
              "velocity": 91,
              "position": 12.010416666666666,
              "duration": 0.4895833333333333
            },
            {
              "pitch": 72,
              "velocity": 91,
              "position": 12.020833333333334,
              "duration": 0.4895833333333333
            },
            {
              "pitch": 72,
              "velocity": 99,
              "position": 12.520833333333334,
              "duration": 0.25
            },
            {
              "pitch": 68,
              "velocity": 98,
              "position": 12.510416666666666,
              "duration": 0.2708333333333333
            },
            {
              "pitch": 63,
              "velocity": 99,
              "position": 12.5,
              "duration": 0.2916666666666667
            },
            {
              "pitch": 72,
              "velocity": 73,
              "position": 12.78125,
              "duration": 0.4791666666666667
            },
            {
              "pitch": 68,
              "velocity": 73,
              "position": 12.791666666666666,
              "duration": 0.4791666666666667
            },
            {
              "pitch": 63,
              "velocity": 72,
              "position": 12.802083333333334,
              "duration": 0.4791666666666667
            },
            {
              "pitch": 63,
              "velocity": 72,
              "position": 13.302083333333334,
              "duration": 0.1875
            },
            {
              "pitch": 68,
              "velocity": 73,
              "position": 13.291666666666666,
              "duration": 0.21875
            },
            {
              "pitch": 72,
              "velocity": 73,
              "position": 13.28125,
              "duration": 0.25
            },
            {
              "pitch": 63,
              "velocity": 99,
              "position": 13.5,
              "duration": 0.4583333333333333
            },
            {
              "pitch": 68,
              "velocity": 100,
              "position": 13.520833333333334,
              "duration": 0.4583333333333333
            },
            {
              "pitch": 72,
              "velocity": 101,
              "position": 13.541666666666666,
              "duration": 0.4375
            },
            {
              "pitch": 62,
              "velocity": 102,
              "position": 14,
              "duration": 0.22916666666666666
            },
            {
              "pitch": 67,
              "velocity": 100,
              "position": 14.010416666666666,
              "duration": 0.21875
            },
            {
              "pitch": 62,
              "velocity": 99,
              "position": 14.5,
              "duration": 0.20833333333333334
            },
            {
              "pitch": 67,
              "velocity": 102,
              "position": 14.510416666666666,
              "duration": 0.20833333333333334
            },
            {
              "pitch": 62,
              "velocity": 102,
              "position": 15,
              "duration": 0.22916666666666666
            },
            {
              "pitch": 67,
              "velocity": 102,
              "position": 15.010416666666666,
              "duration": 0.21875
            },
            {
              "pitch": 62,
              "velocity": 102,
              "position": 15.5,
              "duration": 0.20833333333333334
            },
            {
              "pitch": 67,
              "velocity": 102,
              "position": 15.510416666666666,
              "duration": 0.20833333333333334
            }
          ]
        },
        "6": {
          "ctab": {
            "srcChannel": 6,
            "name": "BriteMIN",
            "accType": "PHRASE2",
            "editable": false,
            "mutedNotes": [],
            "mutedChords": [
              "1+2+5",
              "sus4",
              "1+5",
              "1+8",
              "7aug",
              "Maj7aug",
              "7(#9)",
              "7(b13)",
              "7(b9)",
              "7(13)",
              "7#11",
              "7(9)",
              "7b5",
              "7sus4",
              "7th",
              "aug",
              "Maj6(9)",
              "Maj7(9)",
              "Maj(9)",
              "Maj7#11",
              "Maj7",
              "Maj6",
              "Maj"
            ],
            "autoStart": false,
            "sourceChordNote": 0,
            "sourceChordType": "min",
            "ctb2Low": null,
            "ctb2Main": {
              "ntr": "ROOT_TRANSPOSITION",
              "ntt": "BYPASS",
              "bassOn": false,
              "chordRootUpperLimit": 8,
              "noteLowLimit": 0,
              "noteHighLimit": 127,
              "rtr": "PITCH_SHIFT"
            },
            "ctb2High": null
          },
          "notes": [
            {
              "pitch": 72,
              "velocity": 127,
              "position": 0.5,
              "duration": 0.375
            },
            {
              "pitch": 67,
              "velocity": 127,
              "position": 1,
              "duration": 0.375
            },
            {
              "pitch": 75,
              "velocity": 127,
              "position": 1.5,
              "duration": 0.375
            },
            {
              "pitch": 74,
              "velocity": 127,
              "position": 4.5,
              "duration": 0.375
            },
            {
              "pitch": 82,
              "velocity": 127,
              "position": 5,
              "duration": 0.375
            },
            {
              "pitch": 77,
              "velocity": 127,
              "position": 5.5,
              "duration": 0.375
            },
            {
              "pitch": 68,
              "velocity": 127,
              "position": 8.5,
              "duration": 0.375
            },
            {
              "pitch": 75,
              "velocity": 127,
              "position": 9,
              "duration": 0.375
            },
            {
              "pitch": 72,
              "velocity": 127,
              "position": 9.5,
              "duration": 0.375
            },
            {
              "pitch": 72,
              "velocity": 127,
              "position": 12,
              "duration": 0.375
            },
            {
              "pitch": 68,
              "velocity": 127,
              "position": 12.5,
              "duration": 0.375
            },
            {
              "pitch": 75,
              "velocity": 127,
              "position": 13,
              "duration": 0.375
            },
            {
              "pitch": 74,
              "velocity": 127,
              "position": 13.5,
              "duration": 0.375
            },
            {
              "pitch": 67,
              "velocity": 127,
              "position": 14.5,
              "duration": 0.375
            },
            {
              "pitch": 74,
              "velocity": 127,
              "position": 15,
              "duration": 0.375
            },
            {
              "pitch": 79,
              "velocity": 127,
              "position": 15.5,
              "duration": 0.375
            }
          ]
        },
        "8": {
          "ctab": {
            "srcChannel": 8,
            "name": "Perc",
            "accType": "SUBRHYTHM",
            "editable": false,
            "mutedNotes": [],
            "mutedChords": [],
            "autoStart": true,
            "sourceChordNote": 0,
            "sourceChordType": "Maj7",
            "ctb2Low": null,
            "ctb2Main": {
              "ntr": "ROOT_FIXED",
              "ntt": "BYPASS",
              "bassOn": false,
              "chordRootUpperLimit": 6,
              "noteLowLimit": 0,
              "noteHighLimit": 127,
              "rtr": "PITCH_SHIFT"
            },
            "ctb2High": null
          },
          "notes": [
            {
              "pitch": 49,
              "velocity": 50,
              "position": 0,
              "duration": 0.010416666666666666
            },
            {
              "pitch": 54,
              "velocity": 29,
              "position": 0,
              "duration": 0.07916666666666666
            },
            {
              "pitch": 54,
              "velocity": 4,
              "position": 0.2708333333333333,
              "duration": 0.08333333333333333
            },
            {
              "pitch": 54,
              "velocity": 66,
              "position": 0.4791666666666667,
              "duration": 0.08333333333333333
            },
            {
              "pitch": 54,
              "velocity": 35,
              "position": 0.7708333333333334,
              "duration": 0.08333333333333333
            },
            {
              "pitch": 54,
              "velocity": 19,
              "position": 0.9791666666666666,
              "duration": 0.08333333333333333
            },
            {
              "pitch": 54,
              "velocity": 4,
              "position": 1.2708333333333333,
              "duration": 0.08333333333333333
            },
            {
              "pitch": 54,
              "velocity": 61,
              "position": 1.4791666666666667,
              "duration": 0.08333333333333333
            },
            {
              "pitch": 54,
              "velocity": 31,
              "position": 1.7708333333333333,
              "duration": 0.08333333333333333
            },
            {
              "pitch": 54,
              "velocity": 20,
              "position": 1.9791666666666667,
              "duration": 0.08333333333333333
            },
            {
              "pitch": 54,
              "velocity": 4,
              "position": 2.2708333333333335,
              "duration": 0.08333333333333333
            },
            {
              "pitch": 54,
              "velocity": 57,
              "position": 2.4791666666666665,
              "duration": 0.08333333333333333
            },
            {
              "pitch": 54,
              "velocity": 32,
              "position": 2.7708333333333335,
              "duration": 0.08333333333333333
            },
            {
              "pitch": 54,
              "velocity": 39,
              "position": 2.9791666666666665,
              "duration": 0.08333333333333333
            },
            {
              "pitch": 54,
              "velocity": 4,
              "position": 3.2708333333333335,
              "duration": 0.08333333333333333
            },
            {
              "pitch": 54,
              "velocity": 63,
              "position": 3.4791666666666665,
              "duration": 0.08333333333333333
            },
            {
              "pitch": 54,
              "velocity": 4,
              "position": 3.7708333333333335,
              "duration": 0.08333333333333333
            },
            {
              "pitch": 54,
              "velocity": 29,
              "position": 3.98125,
              "duration": 0.07916666666666666
            },
            {
              "pitch": 54,
              "velocity": 4,
              "position": 4.270833333333333,
              "duration": 0.08333333333333333
            },
            {
              "pitch": 54,
              "velocity": 66,
              "position": 4.479166666666667,
              "duration": 0.08333333333333333
            },
            {
              "pitch": 54,
              "velocity": 35,
              "position": 4.770833333333333,
              "duration": 0.08333333333333333
            },
            {
              "pitch": 54,
              "velocity": 19,
              "position": 4.979166666666667,
              "duration": 0.08333333333333333
            },
            {
              "pitch": 54,
              "velocity": 4,
              "position": 5.270833333333333,
              "duration": 0.08333333333333333
            },
            {
              "pitch": 54,
              "velocity": 61,
              "position": 5.479166666666667,
              "duration": 0.08333333333333333
            },
            {
              "pitch": 54,
              "velocity": 31,
              "position": 5.770833333333333,
              "duration": 0.08333333333333333
            },
            {
              "pitch": 54,
              "velocity": 20,
              "position": 5.979166666666667,
              "duration": 0.08333333333333333
            },
            {
              "pitch": 54,
              "velocity": 4,
              "position": 6.270833333333333,
              "duration": 0.08333333333333333
            },
            {
              "pitch": 54,
              "velocity": 57,
              "position": 6.479166666666667,
              "duration": 0.08333333333333333
            },
            {
              "pitch": 54,
              "velocity": 32,
              "position": 6.770833333333333,
              "duration": 0.08333333333333333
            },
            {
              "pitch": 54,
              "velocity": 39,
              "position": 6.979166666666667,
              "duration": 0.08333333333333333
            },
            {
              "pitch": 54,
              "velocity": 4,
              "position": 7.270833333333333,
              "duration": 0.08333333333333333
            },
            {
              "pitch": 54,
              "velocity": 63,
              "position": 7.479166666666667,
              "duration": 0.08333333333333333
            },
            {
              "pitch": 54,
              "velocity": 4,
              "position": 7.770833333333333,
              "duration": 0.08333333333333333
            },
            {
              "pitch": 54,
              "velocity": 29,
              "position": 7.98125,
              "duration": 0.07916666666666666
            },
            {
              "pitch": 70,
              "velocity": 37,
              "position": 8,
              "duration": 0.08333333333333333
            },
            {
              "pitch": 54,
              "velocity": 4,
              "position": 8.270833333333334,
              "duration": 0.08333333333333333
            },
            {
              "pitch": 54,
              "velocity": 66,
              "position": 8.479166666666666,
              "duration": 0.08333333333333333
            },
            {
              "pitch": 70,
              "velocity": 12,
              "position": 8.5,
              "duration": 0.08333333333333333
            },
            {
              "pitch": 54,
              "velocity": 35,
              "position": 8.770833333333334,
              "duration": 0.08333333333333333
            },
            {
              "pitch": 70,
              "velocity": 20,
              "position": 8.791666666666666,
              "duration": 0.08333333333333333
            },
            {
              "pitch": 54,
              "velocity": 19,
              "position": 8.979166666666666,
              "duration": 0.08333333333333333
            },
            {
              "pitch": 70,
              "velocity": 37,
              "position": 9,
              "duration": 0.08333333333333333
            },
            {
              "pitch": 54,
              "velocity": 4,
              "position": 9.270833333333334,
              "duration": 0.08333333333333333
            },
            {
              "pitch": 54,
              "velocity": 61,
              "position": 9.479166666666666,
              "duration": 0.08333333333333333
            },
            {
              "pitch": 70,
              "velocity": 12,
              "position": 9.5,
              "duration": 0.08333333333333333
            },
            {
              "pitch": 54,
              "velocity": 31,
              "position": 9.770833333333334,
              "duration": 0.08333333333333333
            },
            {
              "pitch": 54,
              "velocity": 20,
              "position": 9.979166666666666,
              "duration": 0.08333333333333333
            },
            {
              "pitch": 70,
              "velocity": 37,
              "position": 10,
              "duration": 0.08333333333333333
            },
            {
              "pitch": 54,
              "velocity": 4,
              "position": 10.270833333333334,
              "duration": 0.08333333333333333
            },
            {
              "pitch": 54,
              "velocity": 57,
              "position": 10.479166666666666,
              "duration": 0.08333333333333333
            },
            {
              "pitch": 70,
              "velocity": 12,
              "position": 10.5,
              "duration": 0.08333333333333333
            },
            {
              "pitch": 54,
              "velocity": 32,
              "position": 10.770833333333334,
              "duration": 0.08333333333333333
            },
            {
              "pitch": 70,
              "velocity": 14,
              "position": 10.791666666666666,
              "duration": 0.08333333333333333
            },
            {
              "pitch": 54,
              "velocity": 39,
              "position": 10.979166666666666,
              "duration": 0.08333333333333333
            },
            {
              "pitch": 70,
              "velocity": 37,
              "position": 11,
              "duration": 0.08333333333333333
            },
            {
              "pitch": 54,
              "velocity": 4,
              "position": 11.270833333333334,
              "duration": 0.08333333333333333
            },
            {
              "pitch": 54,
              "velocity": 63,
              "position": 11.479166666666666,
              "duration": 0.08333333333333333
            },
            {
              "pitch": 70,
              "velocity": 12,
              "position": 11.5,
              "duration": 0.08333333333333333
            },
            {
              "pitch": 54,
              "velocity": 4,
              "position": 11.770833333333334,
              "duration": 0.08333333333333333
            },
            {
              "pitch": 54,
              "velocity": 29,
              "position": 11.98125,
              "duration": 0.07916666666666666
            },
            {
              "pitch": 70,
              "velocity": 37,
              "position": 12,
              "duration": 0.08333333333333333
            },
            {
              "pitch": 54,
              "velocity": 4,
              "position": 12.270833333333334,
              "duration": 0.08333333333333333
            },
            {
              "pitch": 54,
              "velocity": 66,
              "position": 12.479166666666666,
              "duration": 0.08333333333333333
            },
            {
              "pitch": 70,
              "velocity": 12,
              "position": 12.5,
              "duration": 0.08333333333333333
            },
            {
              "pitch": 54,
              "velocity": 35,
              "position": 12.770833333333334,
              "duration": 0.08333333333333333
            },
            {
              "pitch": 54,
              "velocity": 19,
              "position": 12.979166666666666,
              "duration": 0.08333333333333333
            },
            {
              "pitch": 55,
              "velocity": 87,
              "position": 13,
              "duration": 0.08333333333333333
            },
            {
              "pitch": 70,
              "velocity": 37,
              "position": 13,
              "duration": 0.08333333333333333
            },
            {
              "pitch": 54,
              "velocity": 4,
              "position": 13.270833333333334,
              "duration": 0.08333333333333333
            },
            {
              "pitch": 54,
              "velocity": 61,
              "position": 13.479166666666666,
              "duration": 0.08333333333333333
            },
            {
              "pitch": 70,
              "velocity": 17,
              "position": 13.5,
              "duration": 0.08333333333333333
            },
            {
              "pitch": 54,
              "velocity": 31,
              "position": 13.770833333333334,
              "duration": 0.08333333333333333
            },
            {
              "pitch": 70,
              "velocity": 12,
              "position": 13.791666666666666,
              "duration": 0.08333333333333333
            },
            {
              "pitch": 57,
              "velocity": 40,
              "position": 14,
              "duration": 0.010416666666666666
            },
            {
              "pitch": 54,
              "velocity": 20,
              "position": 13.979166666666666,
              "duration": 0.08333333333333333
            },
            {
              "pitch": 70,
              "velocity": 37,
              "position": 14,
              "duration": 0.08333333333333333
            },
            {
              "pitch": 54,
              "velocity": 4,
              "position": 14.270833333333334,
              "duration": 0.08333333333333333
            },
            {
              "pitch": 70,
              "velocity": 20,
              "position": 14.291666666666666,
              "duration": 0.08333333333333333
            },
            {
              "pitch": 54,
              "velocity": 57,
              "position": 14.479166666666666,
              "duration": 0.08333333333333333
            },
            {
              "pitch": 70,
              "velocity": 12,
              "position": 14.5,
              "duration": 0.08333333333333333
            },
            {
              "pitch": 54,
              "velocity": 32,
              "position": 14.770833333333334,
              "duration": 0.08333333333333333
            },
            {
              "pitch": 57,
              "velocity": 40,
              "position": 15,
              "duration": 0.010416666666666666
            },
            {
              "pitch": 54,
              "velocity": 39,
              "position": 14.979166666666666,
              "duration": 0.08333333333333333
            },
            {
              "pitch": 70,
              "velocity": 37,
              "position": 15,
              "duration": 0.08333333333333333
            },
            {
              "pitch": 54,
              "velocity": 4,
              "position": 15.270833333333334,
              "duration": 0.08333333333333333
            },
            {
              "pitch": 54,
              "velocity": 63,
              "position": 15.479166666666666,
              "duration": 0.08333333333333333
            },
            {
              "pitch": 70,
              "velocity": 12,
              "position": 15.5,
              "duration": 0.08333333333333333
            },
            {
              "pitch": 54,
              "velocity": 4,
              "position": 15.770833333333334,
              "duration": 0.08333333333333333
            }
          ]
        },
        "9": {
          "ctab": {
            "srcChannel": 9,
            "name": "MainDrum",
            "accType": "RHYTHM",
            "editable": false,
            "mutedNotes": [],
            "mutedChords": [],
            "autoStart": true,
            "sourceChordNote": 0,
            "sourceChordType": "Maj7",
            "ctb2Low": null,
            "ctb2Main": {
              "ntr": "ROOT_FIXED",
              "ntt": "BYPASS",
              "bassOn": false,
              "chordRootUpperLimit": 6,
              "noteLowLimit": 0,
              "noteHighLimit": 127,
              "rtr": "PITCH_SHIFT"
            },
            "ctb2High": null
          },
          "notes": [
            {
              "pitch": 33,
              "velocity": 79,
              "position": 0.0020833333333333333,
              "duration": 0.041666666666666664
            },
            {
              "pitch": 42,
              "velocity": 64,
              "position": 0.0020833333333333333,
              "duration": 0.04791666666666667
            },
            {
              "pitch": 42,
              "velocity": 78,
              "position": 0.2916666666666667,
              "duration": 0.08333333333333333
            },
            {
              "pitch": 46,
              "velocity": 54,
              "position": 0.5,
              "duration": 0.020833333333333332
            },
            {
              "pitch": 33,
              "velocity": 79,
              "position": 1,
              "duration": 0.041666666666666664
            },
            {
              "pitch": 42,
              "velocity": 78,
              "position": 1,
              "duration": 0.052083333333333336
            },
            {
              "pitch": 46,
              "velocity": 54,
              "position": 1.5,
              "duration": 0.020833333333333332
            },
            {
              "pitch": 42,
              "velocity": 76,
              "position": 1.7916666666666667,
              "duration": 0.08333333333333333
            },
            {
              "pitch": 33,
              "velocity": 79,
              "position": 2,
              "duration": 0.041666666666666664
            },
            {
              "pitch": 42,
              "velocity": 78,
              "position": 2,
              "duration": 0.052083333333333336
            },
            {
              "pitch": 46,
              "velocity": 54,
              "position": 2.5,
              "duration": 0.020833333333333332
            },
            {
              "pitch": 33,
              "velocity": 79,
              "position": 3,
              "duration": 0.041666666666666664
            },
            {
              "pitch": 42,
              "velocity": 78,
              "position": 3,
              "duration": 0.052083333333333336
            },
            {
              "pitch": 46,
              "velocity": 54,
              "position": 3.5,
              "duration": 0.020833333333333332
            },
            {
              "pitch": 33,
              "velocity": 79,
              "position": 4,
              "duration": 0.041666666666666664
            },
            {
              "pitch": 42,
              "velocity": 72,
              "position": 4,
              "duration": 0.052083333333333336
            },
            {
              "pitch": 42,
              "velocity": 78,
              "position": 4.291666666666667,
              "duration": 0.08333333333333333
            },
            {
              "pitch": 46,
              "velocity": 54,
              "position": 4.5,
              "duration": 0.020833333333333332
            },
            {
              "pitch": 33,
              "velocity": 79,
              "position": 5,
              "duration": 0.041666666666666664
            },
            {
              "pitch": 42,
              "velocity": 78,
              "position": 5,
              "duration": 0.052083333333333336
            },
            {
              "pitch": 46,
              "velocity": 54,
              "position": 5.5,
              "duration": 0.020833333333333332
            },
            {
              "pitch": 42,
              "velocity": 78,
              "position": 5.791666666666667,
              "duration": 0.08333333333333333
            },
            {
              "pitch": 33,
              "velocity": 79,
              "position": 6,
              "duration": 0.041666666666666664
            },
            {
              "pitch": 42,
              "velocity": 72,
              "position": 6,
              "duration": 0.052083333333333336
            },
            {
              "pitch": 46,
              "velocity": 54,
              "position": 6.5,
              "duration": 0.020833333333333332
            },
            {
              "pitch": 33,
              "velocity": 79,
              "position": 7,
              "duration": 0.041666666666666664
            },
            {
              "pitch": 42,
              "velocity": 78,
              "position": 7,
              "duration": 0.052083333333333336
            },
            {
              "pitch": 46,
              "velocity": 54,
              "position": 7.5,
              "duration": 0.020833333333333332
            },
            {
              "pitch": 33,
              "velocity": 79,
              "position": 8,
              "duration": 0.041666666666666664
            },
            {
              "pitch": 42,
              "velocity": 64,
              "position": 8,
              "duration": 0.052083333333333336
            },
            {
              "pitch": 42,
              "velocity": 78,
              "position": 8.291666666666666,
              "duration": 0.08333333333333333
            },
            {
              "pitch": 46,
              "velocity": 54,
              "position": 8.5,
              "duration": 0.020833333333333332
            },
            {
              "pitch": 33,
              "velocity": 79,
              "position": 9,
              "duration": 0.041666666666666664
            },
            {
              "pitch": 42,
              "velocity": 78,
              "position": 9,
              "duration": 0.052083333333333336
            },
            {
              "pitch": 46,
              "velocity": 54,
              "position": 9.5,
              "duration": 0.020833333333333332
            },
            {
              "pitch": 25,
              "velocity": 73,
              "position": 9.791666666666666,
              "duration": 0.010416666666666666
            },
            {
              "pitch": 42,
              "velocity": 76,
              "position": 9.791666666666666,
              "duration": 0.08333333333333333
            },
            {
              "pitch": 33,
              "velocity": 79,
              "position": 10,
              "duration": 0.041666666666666664
            },
            {
              "pitch": 42,
              "velocity": 78,
              "position": 10,
              "duration": 0.052083333333333336
            },
            {
              "pitch": 46,
              "velocity": 54,
              "position": 10.5,
              "duration": 0.020833333333333332
            },
            {
              "pitch": 25,
              "velocity": 124,
              "position": 11,
              "duration": 0.010416666666666666
            },
            {
              "pitch": 33,
              "velocity": 79,
              "position": 11,
              "duration": 0.041666666666666664
            },
            {
              "pitch": 25,
              "velocity": 124,
              "position": 11.5,
              "duration": 0.010416666666666666
            },
            {
              "pitch": 46,
              "velocity": 54,
              "position": 11.5,
              "duration": 0.020833333333333332
            },
            {
              "pitch": 25,
              "velocity": 86,
              "position": 11.791666666666666,
              "duration": 0.010416666666666666
            },
            {
              "pitch": 33,
              "velocity": 79,
              "position": 12,
              "duration": 0.041666666666666664
            },
            {
              "pitch": 42,
              "velocity": 72,
              "position": 12,
              "duration": 0.052083333333333336
            },
            {
              "pitch": 25,
              "velocity": 103,
              "position": 12.291666666666666,
              "duration": 0.010416666666666666
            },
            {
              "pitch": 42,
              "velocity": 78,
              "position": 12.291666666666666,
              "duration": 0.08333333333333333
            },
            {
              "pitch": 46,
              "velocity": 54,
              "position": 12.5,
              "duration": 0.020833333333333332
            },
            {
              "pitch": 25,
              "velocity": 112,
              "position": 13,
              "duration": 0.010416666666666666
            },
            {
              "pitch": 33,
              "velocity": 79,
              "position": 13,
              "duration": 0.041666666666666664
            },
            {
              "pitch": 25,
              "velocity": 116,
              "position": 13.5,
              "duration": 0.010416666666666666
            },
            {
              "pitch": 46,
              "velocity": 54,
              "position": 13.5,
              "duration": 0.020833333333333332
            },
            {
              "pitch": 25,
              "velocity": 104,
              "position": 13.795833333333333,
              "duration": 0.010416666666666666
            },
            {
              "pitch": 25,
              "velocity": 116,
              "position": 14,
              "duration": 0.010416666666666666
            },
            {
              "pitch": 33,
              "velocity": 79,
              "position": 14,
              "duration": 0.041666666666666664
            },
            {
              "pitch": 25,
              "velocity": 104,
              "position": 14.295833333333333,
              "duration": 0.010416666666666666
            },
            {
              "pitch": 25,
              "velocity": 116,
              "position": 14.5,
              "duration": 0.010416666666666666
            },
            {
              "pitch": 25,
              "velocity": 104,
              "position": 14.795833333333333,
              "duration": 0.010416666666666666
            },
            {
              "pitch": 25,
              "velocity": 116,
              "position": 15,
              "duration": 0.010416666666666666
            },
            {
              "pitch": 33,
              "velocity": 79,
              "position": 15,
              "duration": 0.041666666666666664
            },
            {
              "pitch": 25,
              "velocity": 104,
              "position": 15.295833333333333,
              "duration": 0.010416666666666666
            },
            {
              "pitch": 25,
              "velocity": 116,
              "position": 15.5,
              "duration": 0.010416666666666666
            },
            {
              "pitch": 25,
              "velocity": 104,
              "position": 15.795833333333333,
              "duration": 0.010416666666666666
            }
          ]
        },
        "10": {
          "ctab": {
            "srcChannel": 10,
            "name": "Bassmin",
            "accType": "BASS",
            "editable": false,
            "mutedNotes": [],
            "mutedChords": [
              "1+2+5",
              "sus4",
              "1+5",
              "1+8",
              "7aug",
              "Maj7aug",
              "7(#9)",
              "7(b13)",
              "7(b9)",
              "7(13)",
              "7#11",
              "7(9)",
              "7b5",
              "7sus4",
              "7th",
              "aug",
              "Maj6(9)",
              "Maj7(9)",
              "Maj(9)",
              "Maj7#11",
              "Maj7",
              "Maj6",
              "Maj"
            ],
            "autoStart": false,
            "sourceChordNote": 0,
            "sourceChordType": "min",
            "ctb2Low": null,
            "ctb2Main": {
              "ntr": "ROOT_TRANSPOSITION",
              "ntt": "BYPASS",
              "bassOn": false,
              "chordRootUpperLimit": 11,
              "noteLowLimit": 28,
              "noteHighLimit": 127,
              "rtr": "PITCH_SHIFT"
            },
            "ctb2High": null
          },
          "notes": [
            {
              "pitch": 24,
              "velocity": 90,
              "position": 0.5,
              "duration": 0.4375
            },
            {
              "pitch": 24,
              "velocity": 90,
              "position": 1.5,
              "duration": 0.4375
            },
            {
              "pitch": 27,
              "velocity": 90,
              "position": 2.5,
              "duration": 0.4375
            },
            {
              "pitch": 27,
              "velocity": 90,
              "position": 3.5,
              "duration": 0.4375
            },
            {
              "pitch": 34,
              "velocity": 90,
              "position": 4.5,
              "duration": 0.4375
            },
            {
              "pitch": 34,
              "velocity": 90,
              "position": 5.5,
              "duration": 0.4375
            },
            {
              "pitch": 29,
              "velocity": 90,
              "position": 6.5,
              "duration": 0.4375
            },
            {
              "pitch": 29,
              "velocity": 90,
              "position": 7.5,
              "duration": 0.4375
            },
            {
              "pitch": 32,
              "velocity": 90,
              "position": 8.5,
              "duration": 0.4375
            },
            {
              "pitch": 32,
              "velocity": 90,
              "position": 9.5,
              "duration": 0.4375
            },
            {
              "pitch": 32,
              "velocity": 90,
              "position": 10,
              "duration": 0.4583333333333333
            },
            {
              "pitch": 32,
              "velocity": 69,
              "position": 10.5,
              "duration": 0.20833333333333334
            },
            {
              "pitch": 32,
              "velocity": 90,
              "position": 11,
              "duration": 0.4583333333333333
            },
            {
              "pitch": 32,
              "velocity": 69,
              "position": 11.5,
              "duration": 0.4583333333333333
            },
            {
              "pitch": 29,
              "velocity": 90,
              "position": 12,
              "duration": 0.4583333333333333
            },
            {
              "pitch": 29,
              "velocity": 75,
              "position": 12.5,
              "duration": 0.25
            },
            {
              "pitch": 29,
              "velocity": 90,
              "position": 12.791666666666666,
              "duration": 0.20833333333333334
            },
            {
              "pitch": 29,
              "velocity": 75,
              "position": 13.291666666666666,
              "duration": 0.16666666666666666
            },
            {
              "pitch": 29,
              "velocity": 90,
              "position": 13.5,
              "duration": 0.4583333333333333
            },
            {
              "pitch": 31,
              "velocity": 90,
              "position": 14,
              "duration": 0.4583333333333333
            },
            {
              "pitch": 31,
              "velocity": 69,
              "position": 14.5,
              "duration": 0.20833333333333334
            },
            {
              "pitch": 31,
              "velocity": 90,
              "position": 15,
              "duration": 0.9583333333333334
            }
          ]
        },
        "11": {
          "ctab": {
            "srcChannel": 11,
            "name": "Bassmaj",
            "accType": "BASS",
            "editable": false,
            "mutedNotes": [],
            "mutedChords": [
              "dim7",
              "dim",
              "minMaj7(9)",
              "minMaj7",
              "min7(11)",
              "min7(9)",
              "min(9)",
              "m7b5",
              "min7",
              "min6",
              "min"
            ],
            "autoStart": false,
            "sourceChordNote": 0,
            "sourceChordType": "Maj",
            "ctb2Low": null,
            "ctb2Main": {
              "ntr": "ROOT_TRANSPOSITION",
              "ntt": "BYPASS",
              "bassOn": false,
              "chordRootUpperLimit": 11,
              "noteLowLimit": 28,
              "noteHighLimit": 127,
              "rtr": "PITCH_SHIFT"
            },
            "ctb2High": null
          },
          "notes": [
            {
              "pitch": 26,
              "velocity": 71,
              "position": 0.5,
              "duration": 0.25
            },
            {
              "pitch": 26,
              "velocity": 86,
              "position": 0.7916666666666666,
              "duration": 0.20833333333333334
            },
            {
              "pitch": 26,
              "velocity": 71,
              "position": 1.2916666666666667,
              "duration": 0.16666666666666666
            },
            {
              "pitch": 26,
              "velocity": 86,
              "position": 1.5,
              "duration": 0.4583333333333333
            },
            {
              "pitch": 31,
              "velocity": 86,
              "position": 2,
              "duration": 0.4583333333333333
            },
            {
              "pitch": 28,
              "velocity": 71,
              "position": 4.5,
              "duration": 0.25
            },
            {
              "pitch": 28,
              "velocity": 86,
              "position": 4.791666666666667,
              "duration": 0.20833333333333334
            },
            {
              "pitch": 28,
              "velocity": 71,
              "position": 5.291666666666667,
              "duration": 0.16666666666666666
            },
            {
              "pitch": 28,
              "velocity": 86,
              "position": 5.5,
              "duration": 0.4583333333333333
            },
            {
              "pitch": 33,
              "velocity": 86,
              "position": 6,
              "duration": 0.4583333333333333
            },
            {
              "pitch": 29,
              "velocity": 71,
              "position": 8.5,
              "duration": 0.25
            },
            {
              "pitch": 29,
              "velocity": 86,
              "position": 8.791666666666666,
              "duration": 0.20833333333333334
            },
            {
              "pitch": 29,
              "velocity": 71,
              "position": 9.291666666666666,
              "duration": 0.16666666666666666
            },
            {
              "pitch": 29,
              "velocity": 86,
              "position": 9.5,
              "duration": 0.4583333333333333
            },
            {
              "pitch": 29,
              "velocity": 86,
              "position": 10,
              "duration": 0.4583333333333333
            },
            {
              "pitch": 29,
              "velocity": 65,
              "position": 10.5,
              "duration": 0.20833333333333334
            },
            {
              "pitch": 29,
              "velocity": 86,
              "position": 11,
              "duration": 0.4583333333333333
            },
            {
              "pitch": 29,
              "velocity": 65,
              "position": 11.5,
              "duration": 0.4583333333333333
            },
            {
              "pitch": 26,
              "velocity": 86,
              "position": 12,
              "duration": 0.4583333333333333
            },
            {
              "pitch": 26,
              "velocity": 71,
              "position": 12.5,
              "duration": 0.25
            },
            {
              "pitch": 26,
              "velocity": 86,
              "position": 12.791666666666666,
              "duration": 0.20833333333333334
            },
            {
              "pitch": 26,
              "velocity": 71,
              "position": 13.291666666666666,
              "duration": 0.16666666666666666
            },
            {
              "pitch": 26,
              "velocity": 86,
              "position": 13.5,
              "duration": 0.4583333333333333
            },
            {
              "pitch": 31,
              "velocity": 86,
              "position": 14,
              "duration": 0.4583333333333333
            },
            {
              "pitch": 31,
              "velocity": 65,
              "position": 14.5,
              "duration": 0.20833333333333334
            },
            {
              "pitch": 31,
              "velocity": 86,
              "position": 15,
              "duration": 0.9583333333333334
            }
          ]
        },
        "12": {
          "ctab": {
            "srcChannel": 12,
            "name": "Pno_MAJ",
            "accType": "CHORD1",
            "editable": false,
            "mutedNotes": [],
            "mutedChords": [
              "dim7",
              "dim",
              "minMaj7(9)",
              "minMaj7",
              "min7(11)",
              "min7(9)",
              "min(9)",
              "m7b5",
              "min7",
              "min6",
              "min"
            ],
            "autoStart": false,
            "sourceChordNote": 0,
            "sourceChordType": "Maj",
            "ctb2Low": null,
            "ctb2Main": {
              "ntr": "ROOT_TRANSPOSITION",
              "ntt": "BYPASS",
              "bassOn": false,
              "chordRootUpperLimit": 7,
              "noteLowLimit": 61,
              "noteHighLimit": 72,
              "rtr": "PITCH_SHIFT"
            },
            "ctb2High": null
          },
          "notes": [
            {
              "pitch": 62,
              "velocity": 90,
              "position": 0.0020833333333333333,
              "duration": 0.7395833333333334
            },
            {
              "pitch": 65,
              "velocity": 90,
              "position": 0.0020833333333333333,
              "duration": 0.7395833333333334
            },
            {
              "pitch": 69,
              "velocity": 90,
              "position": 0.0020833333333333333,
              "duration": 0.7395833333333334
            },
            {
              "pitch": 62,
              "velocity": 90,
              "position": 0.7916666666666666,
              "duration": 0.16666666666666666
            },
            {
              "pitch": 65,
              "velocity": 90,
              "position": 0.7916666666666666,
              "duration": 0.16666666666666666
            },
            {
              "pitch": 69,
              "velocity": 90,
              "position": 0.7916666666666666,
              "duration": 0.16666666666666666
            },
            {
              "pitch": 62,
              "velocity": 90,
              "position": 1.5,
              "duration": 0.3020833333333333
            },
            {
              "pitch": 65,
              "velocity": 90,
              "position": 1.5,
              "duration": 0.3020833333333333
            },
            {
              "pitch": 69,
              "velocity": 90,
              "position": 1.5,
              "duration": 0.3020833333333333
            },
            {
              "pitch": 59,
              "velocity": 90,
              "position": 2.5,
              "duration": 0.16666666666666666
            },
            {
              "pitch": 62,
              "velocity": 90,
              "position": 2.5,
              "duration": 0.16666666666666666
            },
            {
              "pitch": 67,
              "velocity": 90,
              "position": 2.5,
              "duration": 0.16666666666666666
            },
            {
              "pitch": 59,
              "velocity": 90,
              "position": 3.2916666666666665,
              "duration": 0.6666666666666666
            },
            {
              "pitch": 62,
              "velocity": 90,
              "position": 3.2916666666666665,
              "duration": 0.6666666666666666
            },
            {
              "pitch": 67,
              "velocity": 90,
              "position": 3.2916666666666665,
              "duration": 0.6666666666666666
            },
            {
              "pitch": 64,
              "velocity": 90,
              "position": 4,
              "duration": 0.75
            },
            {
              "pitch": 67,
              "velocity": 90,
              "position": 4,
              "duration": 0.75
            },
            {
              "pitch": 71,
              "velocity": 90,
              "position": 4,
              "duration": 0.75
            },
            {
              "pitch": 64,
              "velocity": 90,
              "position": 4.791666666666667,
              "duration": 0.16666666666666666
            },
            {
              "pitch": 67,
              "velocity": 90,
              "position": 4.791666666666667,
              "duration": 0.16666666666666666
            },
            {
              "pitch": 71,
              "velocity": 90,
              "position": 4.791666666666667,
              "duration": 0.16666666666666666
            },
            {
              "pitch": 64,
              "velocity": 90,
              "position": 5.5,
              "duration": 0.3125
            },
            {
              "pitch": 67,
              "velocity": 90,
              "position": 5.5,
              "duration": 0.3125
            },
            {
              "pitch": 71,
              "velocity": 90,
              "position": 5.5,
              "duration": 0.3125
            },
            {
              "pitch": 60,
              "velocity": 90,
              "position": 6.5,
              "duration": 0.16666666666666666
            },
            {
              "pitch": 64,
              "velocity": 90,
              "position": 6.5,
              "duration": 0.16666666666666666
            },
            {
              "pitch": 69,
              "velocity": 90,
              "position": 6.5,
              "duration": 0.16666666666666666
            },
            {
              "pitch": 60,
              "velocity": 90,
              "position": 7,
              "duration": 0.9166666666666666
            },
            {
              "pitch": 64,
              "velocity": 90,
              "position": 7,
              "duration": 0.9166666666666666
            },
            {
              "pitch": 69,
              "velocity": 90,
              "position": 7,
              "duration": 0.9166666666666666
            },
            {
              "pitch": 60,
              "velocity": 90,
              "position": 8,
              "duration": 0.75
            },
            {
              "pitch": 65,
              "velocity": 90,
              "position": 8,
              "duration": 0.75
            },
            {
              "pitch": 69,
              "velocity": 90,
              "position": 8,
              "duration": 0.75
            },
            {
              "pitch": 60,
              "velocity": 90,
              "position": 8.791666666666666,
              "duration": 0.16666666666666666
            },
            {
              "pitch": 65,
              "velocity": 90,
              "position": 8.791666666666666,
              "duration": 0.16666666666666666
            },
            {
              "pitch": 69,
              "velocity": 90,
              "position": 8.791666666666666,
              "duration": 0.16666666666666666
            },
            {
              "pitch": 60,
              "velocity": 90,
              "position": 9.5,
              "duration": 0.3229166666666667
            },
            {
              "pitch": 65,
              "velocity": 90,
              "position": 9.5,
              "duration": 0.3229166666666667
            },
            {
              "pitch": 69,
              "velocity": 90,
              "position": 9.5,
              "duration": 0.3229166666666667
            },
            {
              "pitch": 60,
              "velocity": 90,
              "position": 10.5,
              "duration": 0.16666666666666666
            },
            {
              "pitch": 65,
              "velocity": 90,
              "position": 10.5,
              "duration": 0.16666666666666666
            },
            {
              "pitch": 69,
              "velocity": 90,
              "position": 10.5,
              "duration": 0.16666666666666666
            },
            {
              "pitch": 60,
              "velocity": 90,
              "position": 11.291666666666666,
              "duration": 0.6666666666666666
            },
            {
              "pitch": 65,
              "velocity": 90,
              "position": 11.291666666666666,
              "duration": 0.6666666666666666
            },
            {
              "pitch": 69,
              "velocity": 90,
              "position": 11.291666666666666,
              "duration": 0.6666666666666666
            },
            {
              "pitch": 57,
              "velocity": 90,
              "position": 12,
              "duration": 0.75
            },
            {
              "pitch": 62,
              "velocity": 90,
              "position": 12,
              "duration": 0.75
            },
            {
              "pitch": 65,
              "velocity": 90,
              "position": 12,
              "duration": 0.75
            },
            {
              "pitch": 57,
              "velocity": 90,
              "position": 12.791666666666666,
              "duration": 0.16666666666666666
            },
            {
              "pitch": 62,
              "velocity": 90,
              "position": 12.791666666666666,
              "duration": 0.16666666666666666
            },
            {
              "pitch": 65,
              "velocity": 90,
              "position": 12.791666666666666,
              "duration": 0.16666666666666666
            },
            {
              "pitch": 57,
              "velocity": 90,
              "position": 13.5,
              "duration": 0.2916666666666667
            },
            {
              "pitch": 62,
              "velocity": 90,
              "position": 13.5,
              "duration": 0.2916666666666667
            },
            {
              "pitch": 65,
              "velocity": 90,
              "position": 13.5,
              "duration": 0.2916666666666667
            },
            {
              "pitch": 59,
              "velocity": 90,
              "position": 14,
              "duration": 0.20833333333333334
            },
            {
              "pitch": 62,
              "velocity": 90,
              "position": 14,
              "duration": 0.20833333333333334
            },
            {
              "pitch": 67,
              "velocity": 90,
              "position": 14,
              "duration": 0.20833333333333334
            },
            {
              "pitch": 59,
              "velocity": 90,
              "position": 14.5,
              "duration": 0.20833333333333334
            },
            {
              "pitch": 62,
              "velocity": 90,
              "position": 14.5,
              "duration": 0.20833333333333334
            },
            {
              "pitch": 67,
              "velocity": 90,
              "position": 14.5,
              "duration": 0.20833333333333334
            },
            {
              "pitch": 59,
              "velocity": 90,
              "position": 15,
              "duration": 0.20833333333333334
            },
            {
              "pitch": 62,
              "velocity": 90,
              "position": 15,
              "duration": 0.20833333333333334
            },
            {
              "pitch": 67,
              "velocity": 90,
              "position": 15,
              "duration": 0.20833333333333334
            },
            {
              "pitch": 59,
              "velocity": 90,
              "position": 15.5,
              "duration": 0.20833333333333334
            },
            {
              "pitch": 62,
              "velocity": 90,
              "position": 15.5,
              "duration": 0.20833333333333334
            },
            {
              "pitch": 67,
              "velocity": 90,
              "position": 15.5,
              "duration": 0.20833333333333334
            }
          ]
        },
        "13": {
          "ctab": {
            "srcChannel": 13,
            "name": "PnoMIN",
            "accType": "CHORD1",
            "editable": false,
            "mutedNotes": [],
            "mutedChords": [
              "1+2+5",
              "sus4",
              "1+5",
              "1+8",
              "7aug",
              "Maj7aug",
              "7(#9)",
              "7(b13)",
              "7(b9)",
              "7(13)",
              "7#11",
              "7(9)",
              "7b5",
              "7sus4",
              "7th",
              "aug",
              "Maj6(9)",
              "Maj7(9)",
              "Maj(9)",
              "Maj7#11",
              "Maj7",
              "Maj6",
              "Maj"
            ],
            "autoStart": false,
            "sourceChordNote": 0,
            "sourceChordType": "min",
            "ctb2Low": null,
            "ctb2Main": {
              "ntr": "ROOT_TRANSPOSITION",
              "ntt": "BYPASS",
              "bassOn": false,
              "chordRootUpperLimit": 7,
              "noteLowLimit": 61,
              "noteHighLimit": 72,
              "rtr": "PITCH_SHIFT"
            },
            "ctb2High": null
          },
          "notes": [
            {
              "pitch": 60,
              "velocity": 90,
              "position": 0.0020833333333333333,
              "duration": 0.7395833333333334
            },
            {
              "pitch": 63,
              "velocity": 90,
              "position": 0.0020833333333333333,
              "duration": 0.7395833333333334
            },
            {
              "pitch": 67,
              "velocity": 90,
              "position": 0.0020833333333333333,
              "duration": 0.7395833333333334
            },
            {
              "pitch": 60,
              "velocity": 90,
              "position": 0.7916666666666666,
              "duration": 0.16666666666666666
            },
            {
              "pitch": 63,
              "velocity": 90,
              "position": 0.7916666666666666,
              "duration": 0.16666666666666666
            },
            {
              "pitch": 67,
              "velocity": 90,
              "position": 0.7916666666666666,
              "duration": 0.16666666666666666
            },
            {
              "pitch": 60,
              "velocity": 90,
              "position": 1.5,
              "duration": 0.3229166666666667
            },
            {
              "pitch": 63,
              "velocity": 90,
              "position": 1.5,
              "duration": 0.3229166666666667
            },
            {
              "pitch": 67,
              "velocity": 90,
              "position": 1.5,
              "duration": 0.3229166666666667
            },
            {
              "pitch": 58,
              "velocity": 90,
              "position": 2.5,
              "duration": 0.16666666666666666
            },
            {
              "pitch": 63,
              "velocity": 90,
              "position": 2.5,
              "duration": 0.16666666666666666
            },
            {
              "pitch": 67,
              "velocity": 90,
              "position": 2.5,
              "duration": 0.16666666666666666
            },
            {
              "pitch": 58,
              "velocity": 90,
              "position": 3,
              "duration": 0.6666666666666666
            },
            {
              "pitch": 63,
              "velocity": 90,
              "position": 3,
              "duration": 0.6666666666666666
            },
            {
              "pitch": 67,
              "velocity": 90,
              "position": 3,
              "duration": 0.6666666666666666
            },
            {
              "pitch": 62,
              "velocity": 90,
              "position": 4,
              "duration": 0.75
            },
            {
              "pitch": 65,
              "velocity": 90,
              "position": 4,
              "duration": 0.75
            },
            {
              "pitch": 70,
              "velocity": 90,
              "position": 4,
              "duration": 0.75
            },
            {
              "pitch": 62,
              "velocity": 90,
              "position": 4.791666666666667,
              "duration": 0.16666666666666666
            },
            {
              "pitch": 65,
              "velocity": 90,
              "position": 4.791666666666667,
              "duration": 0.16666666666666666
            },
            {
              "pitch": 70,
              "velocity": 90,
              "position": 4.791666666666667,
              "duration": 0.16666666666666666
            },
            {
              "pitch": 62,
              "velocity": 90,
              "position": 5.5,
              "duration": 0.3229166666666667
            },
            {
              "pitch": 65,
              "velocity": 90,
              "position": 5.5,
              "duration": 0.3229166666666667
            },
            {
              "pitch": 70,
              "velocity": 90,
              "position": 5.5,
              "duration": 0.3229166666666667
            },
            {
              "pitch": 65,
              "velocity": 90,
              "position": 6.5,
              "duration": 0.16666666666666666
            },
            {
              "pitch": 68,
              "velocity": 90,
              "position": 6.5,
              "duration": 0.16666666666666666
            },
            {
              "pitch": 72,
              "velocity": 90,
              "position": 6.5,
              "duration": 0.16666666666666666
            },
            {
              "pitch": 65,
              "velocity": 90,
              "position": 7,
              "duration": 0.6666666666666666
            },
            {
              "pitch": 68,
              "velocity": 90,
              "position": 7,
              "duration": 0.6666666666666666
            },
            {
              "pitch": 72,
              "velocity": 90,
              "position": 7,
              "duration": 0.6666666666666666
            },
            {
              "pitch": 60,
              "velocity": 90,
              "position": 8,
              "duration": 0.75
            },
            {
              "pitch": 63,
              "velocity": 90,
              "position": 8,
              "duration": 0.75
            },
            {
              "pitch": 68,
              "velocity": 90,
              "position": 8,
              "duration": 0.75
            },
            {
              "pitch": 60,
              "velocity": 90,
              "position": 8.791666666666666,
              "duration": 0.16666666666666666
            },
            {
              "pitch": 63,
              "velocity": 90,
              "position": 8.791666666666666,
              "duration": 0.16666666666666666
            },
            {
              "pitch": 68,
              "velocity": 90,
              "position": 8.791666666666666,
              "duration": 0.16666666666666666
            },
            {
              "pitch": 60,
              "velocity": 90,
              "position": 9.5,
              "duration": 0.34375
            },
            {
              "pitch": 63,
              "velocity": 90,
              "position": 9.5,
              "duration": 0.34375
            },
            {
              "pitch": 68,
              "velocity": 90,
              "position": 9.5,
              "duration": 0.34375
            },
            {
              "pitch": 60,
              "velocity": 90,
              "position": 10.5,
              "duration": 0.16666666666666666
            },
            {
              "pitch": 63,
              "velocity": 90,
              "position": 10.5,
              "duration": 0.16666666666666666
            },
            {
              "pitch": 68,
              "velocity": 90,
              "position": 10.5,
              "duration": 0.16666666666666666
            },
            {
              "pitch": 60,
              "velocity": 90,
              "position": 11.25,
              "duration": 0.6666666666666666
            },
            {
              "pitch": 63,
              "velocity": 90,
              "position": 11.25,
              "duration": 0.6666666666666666
            },
            {
              "pitch": 68,
              "velocity": 90,
              "position": 11.25,
              "duration": 0.6666666666666666
            },
            {
              "pitch": 60,
              "velocity": 90,
              "position": 12,
              "duration": 0.75
            },
            {
              "pitch": 65,
              "velocity": 90,
              "position": 12,
              "duration": 0.75
            },
            {
              "pitch": 68,
              "velocity": 90,
              "position": 12,
              "duration": 0.75
            },
            {
              "pitch": 60,
              "velocity": 90,
              "position": 12.791666666666666,
              "duration": 0.16666666666666666
            },
            {
              "pitch": 65,
              "velocity": 90,
              "position": 12.791666666666666,
              "duration": 0.16666666666666666
            },
            {
              "pitch": 68,
              "velocity": 90,
              "position": 12.791666666666666,
              "duration": 0.16666666666666666
            },
            {
              "pitch": 60,
              "velocity": 90,
              "position": 13.5,
              "duration": 0.2708333333333333
            },
            {
              "pitch": 65,
              "velocity": 90,
              "position": 13.5,
              "duration": 0.2708333333333333
            },
            {
              "pitch": 68,
              "velocity": 90,
              "position": 13.5,
              "duration": 0.2708333333333333
            },
            {
              "pitch": 60,
              "velocity": 90,
              "position": 14,
              "duration": 0.16666666666666666
            },
            {
              "pitch": 62,
              "velocity": 90,
              "position": 14,
              "duration": 0.16666666666666666
            },
            {
              "pitch": 67,
              "velocity": 90,
              "position": 14,
              "duration": 0.16666666666666666
            },
            {
              "pitch": 60,
              "velocity": 90,
              "position": 14.5,
              "duration": 0.16666666666666666
            },
            {
              "pitch": 62,
              "velocity": 90,
              "position": 14.5,
              "duration": 0.16666666666666666
            },
            {
              "pitch": 67,
              "velocity": 90,
              "position": 14.5,
              "duration": 0.16666666666666666
            },
            {
              "pitch": 60,
              "velocity": 90,
              "position": 15,
              "duration": 0.4166666666666667
            },
            {
              "pitch": 62,
              "velocity": 90,
              "position": 15,
              "duration": 0.4166666666666667
            },
            {
              "pitch": 67,
              "velocity": 90,
              "position": 15,
              "duration": 0.4166666666666667
            },
            {
              "pitch": 59,
              "velocity": 90,
              "position": 15.5,
              "duration": 0.16666666666666666
            },
            {
              "pitch": 62,
              "velocity": 90,
              "position": 15.5,
              "duration": 0.16666666666666666
            },
            {
              "pitch": 67,
              "velocity": 90,
              "position": 15.5,
              "duration": 0.16666666666666666
            }
          ]
        }
      }
    },
    "Ending_C": {
      "type": "Ending_C",
      "sizeInBeats": 8,
      "channels": {
        "1": {
          "ctab": {
            "srcChannel": 1,
            "name": "88NAgMAJ",
            "accType": "PAD",
            "editable": false,
            "mutedNotes": [],
            "mutedChords": [
              "dim7",
              "dim",
              "minMaj7(9)",
              "minMaj7",
              "min7(11)",
              "min7(9)",
              "min(9)",
              "m7b5",
              "min7",
              "min6",
              "min"
            ],
            "autoStart": false,
            "sourceChordNote": 0,
            "sourceChordType": "Maj",
            "ctb2Low": null,
            "ctb2Main": {
              "ntr": "ROOT_TRANSPOSITION",
              "ntt": "BYPASS",
              "bassOn": false,
              "chordRootUpperLimit": 6,
              "noteLowLimit": 71,
              "noteHighLimit": 82,
              "rtr": "PITCH_SHIFT"
            },
            "ctb2High": null
          },
          "notes": [
            {
              "pitch": 67,
              "velocity": 83,
              "position": 0,
              "duration": 1.4583333333333333
            },
            {
              "pitch": 72,
              "velocity": 83,
              "position": 0,
              "duration": 1.4583333333333333
            },
            {
              "pitch": 76,
              "velocity": 83,
              "position": 0,
              "duration": 1.4583333333333333
            },
            {
              "pitch": 65,
              "velocity": 83,
              "position": 1.5,
              "duration": 2.4583333333333335
            },
            {
              "pitch": 70,
              "velocity": 83,
              "position": 1.5,
              "duration": 2.4583333333333335
            },
            {
              "pitch": 74,
              "velocity": 83,
              "position": 1.5,
              "duration": 2.4583333333333335
            },
            {
              "pitch": 67,
              "velocity": 83,
              "position": 4,
              "duration": 1.9583333333333333
            },
            {
              "pitch": 72,
              "velocity": 83,
              "position": 4,
              "duration": 1.9583333333333333
            },
            {
              "pitch": 76,
              "velocity": 83,
              "position": 4,
              "duration": 1.9583333333333333
            }
          ]
        },
        "2": {
          "ctab": {
            "srcChannel": 2,
            "name": "88NAgMIN",
            "accType": "PAD",
            "editable": false,
            "mutedNotes": [],
            "mutedChords": [
              "1+2+5",
              "sus4",
              "1+5",
              "1+8",
              "7aug",
              "Maj7aug",
              "7(#9)",
              "7(b13)",
              "7(b9)",
              "7(13)",
              "7#11",
              "7(9)",
              "7b5",
              "7sus4",
              "7th",
              "aug",
              "Maj6(9)",
              "Maj7(9)",
              "Maj(9)",
              "Maj7#11",
              "Maj7",
              "Maj6",
              "Maj"
            ],
            "autoStart": false,
            "sourceChordNote": 0,
            "sourceChordType": "min",
            "ctb2Low": null,
            "ctb2Main": {
              "ntr": "ROOT_TRANSPOSITION",
              "ntt": "BYPASS",
              "bassOn": false,
              "chordRootUpperLimit": 7,
              "noteLowLimit": 71,
              "noteHighLimit": 82,
              "rtr": "PITCH_SHIFT"
            },
            "ctb2High": null
          },
          "notes": [
            {
              "pitch": 67,
              "velocity": 83,
              "position": 0,
              "duration": 1.4583333333333333
            },
            {
              "pitch": 72,
              "velocity": 83,
              "position": 0,
              "duration": 1.4583333333333333
            },
            {
              "pitch": 75,
              "velocity": 83,
              "position": 0,
              "duration": 1.4583333333333333
            },
            {
              "pitch": 68,
              "velocity": 83,
              "position": 1.5,
              "duration": 2.4583333333333335
            },
            {
              "pitch": 72,
              "velocity": 83,
              "position": 1.5,
              "duration": 2.4583333333333335
            },
            {
              "pitch": 77,
              "velocity": 83,
              "position": 1.5,
              "duration": 2.4583333333333335
            },
            {
              "pitch": 67,
              "velocity": 83,
              "position": 4,
              "duration": 1.9583333333333333
            },
            {
              "pitch": 72,
              "velocity": 83,
              "position": 4,
              "duration": 1.9583333333333333
            },
            {
              "pitch": 75,
              "velocity": 83,
              "position": 4,
              "duration": 1.9583333333333333
            }
          ]
        },
        "3": {
          "ctab": {
            "srcChannel": 3,
            "name": "BriteMAJ",
            "accType": "PHRASE2",
            "editable": false,
            "mutedNotes": [],
            "mutedChords": [
              "dim7",
              "dim",
              "minMaj7(9)",
              "minMaj7",
              "min7(11)",
              "min7(9)",
              "min(9)",
              "m7b5",
              "min7",
              "min6",
              "min"
            ],
            "autoStart": false,
            "sourceChordNote": 0,
            "sourceChordType": "Maj",
            "ctb2Low": null,
            "ctb2Main": {
              "ntr": "ROOT_TRANSPOSITION",
              "ntt": "BYPASS",
              "bassOn": false,
              "chordRootUpperLimit": 7,
              "noteLowLimit": 0,
              "noteHighLimit": 127,
              "rtr": "PITCH_SHIFT"
            },
            "ctb2High": null
          },
          "notes": [
            {
              "pitch": 60,
              "velocity": 127,
              "position": 0.5,
              "duration": 0.375
            },
            {
              "pitch": 67,
              "velocity": 127,
              "position": 1,
              "duration": 0.375
            },
            {
              "pitch": 72,
              "velocity": 127,
              "position": 1.5,
              "duration": 0.375
            },
            {
              "pitch": 81,
              "velocity": 127,
              "position": 2.5,
              "duration": 0.375
            },
            {
              "pitch": 77,
              "velocity": 127,
              "position": 3,
              "duration": 0.375
            },
            {
              "pitch": 74,
              "velocity": 127,
              "position": 3.5,
              "duration": 0.375
            },
            {
              "pitch": 79,
              "velocity": 127,
              "position": 4,
              "duration": 0.375
            },
            {
              "pitch": 84,
              "velocity": 127,
              "position": 7,
              "duration": 0.375
            }
          ]
        },
        "4": {
          "ctab": {
            "srcChannel": 4,
            "name": "CG27_MAJ",
            "accType": "CHORD2",
            "editable": false,
            "mutedNotes": [],
            "mutedChords": [
              "dim7",
              "dim",
              "minMaj7(9)",
              "minMaj7",
              "min7(11)",
              "min7(9)",
              "min(9)",
              "m7b5",
              "min7",
              "min6",
              "min"
            ],
            "autoStart": false,
            "sourceChordNote": 0,
            "sourceChordType": "Maj",
            "ctb2Low": null,
            "ctb2Main": {
              "ntr": "ROOT_TRANSPOSITION",
              "ntt": "BYPASS",
              "bassOn": false,
              "chordRootUpperLimit": 7,
              "noteLowLimit": 60,
              "noteHighLimit": 71,
              "rtr": "PITCH_SHIFT"
            },
            "ctb2High": null
          },
          "notes": [
            {
              "pitch": 60,
              "velocity": 91,
              "position": 0.0020833333333333333,
              "duration": 0.48541666666666666
            },
            {
              "pitch": 64,
              "velocity": 91,
              "position": 0.010416666666666666,
              "duration": 0.4895833333333333
            },
            {
              "pitch": 67,
              "velocity": 91,
              "position": 0.020833333333333332,
              "duration": 0.4895833333333333
            },
            {
              "pitch": 67,
              "velocity": 99,
              "position": 0.5208333333333334,
              "duration": 0.25
            },
            {
              "pitch": 64,
              "velocity": 98,
              "position": 0.5104166666666666,
              "duration": 0.2708333333333333
            },
            {
              "pitch": 60,
              "velocity": 99,
              "position": 0.5,
              "duration": 0.2916666666666667
            },
            {
              "pitch": 67,
              "velocity": 73,
              "position": 0.78125,
              "duration": 0.4791666666666667
            },
            {
              "pitch": 64,
              "velocity": 73,
              "position": 0.7916666666666666,
              "duration": 0.4791666666666667
            },
            {
              "pitch": 60,
              "velocity": 72,
              "position": 0.8020833333333334,
              "duration": 0.4791666666666667
            },
            {
              "pitch": 60,
              "velocity": 72,
              "position": 1.3020833333333333,
              "duration": 0.17708333333333334
            },
            {
              "pitch": 64,
              "velocity": 73,
              "position": 1.2916666666666667,
              "duration": 0.21875
            },
            {
              "pitch": 67,
              "velocity": 73,
              "position": 1.28125,
              "duration": 0.25
            },
            {
              "pitch": 58,
              "velocity": 99,
              "position": 1.5,
              "duration": 0.4583333333333333
            },
            {
              "pitch": 62,
              "velocity": 100,
              "position": 1.5208333333333333,
              "duration": 0.4583333333333333
            },
            {
              "pitch": 65,
              "velocity": 101,
              "position": 1.5416666666666667,
              "duration": 0.4583333333333333
            },
            {
              "pitch": 58,
              "velocity": 91,
              "position": 2,
              "duration": 0.22916666666666666
            },
            {
              "pitch": 62,
              "velocity": 91,
              "position": 2.0104166666666665,
              "duration": 0.21875
            },
            {
              "pitch": 65,
              "velocity": 91,
              "position": 2.0208333333333335,
              "duration": 0.21875
            },
            {
              "pitch": 65,
              "velocity": 91,
              "position": 2.5208333333333335,
              "duration": 0.125
            },
            {
              "pitch": 58,
              "velocity": 91,
              "position": 2.5,
              "duration": 0.20833333333333334
            },
            {
              "pitch": 62,
              "velocity": 91,
              "position": 2.5104166666666665,
              "duration": 0.20833333333333334
            },
            {
              "pitch": 58,
              "velocity": 91,
              "position": 3,
              "duration": 0.22916666666666666
            },
            {
              "pitch": 62,
              "velocity": 91,
              "position": 3.0104166666666665,
              "duration": 0.21875
            },
            {
              "pitch": 65,
              "velocity": 91,
              "position": 3.0208333333333335,
              "duration": 0.21875
            },
            {
              "pitch": 65,
              "velocity": 91,
              "position": 3.5208333333333335,
              "duration": 0.125
            },
            {
              "pitch": 58,
              "velocity": 91,
              "position": 3.5,
              "duration": 0.20833333333333334
            },
            {
              "pitch": 62,
              "velocity": 91,
              "position": 3.5104166666666665,
              "duration": 0.20833333333333334
            },
            {
              "pitch": 60,
              "velocity": 91,
              "position": 4,
              "duration": 0.4895833333333333
            },
            {
              "pitch": 64,
              "velocity": 91,
              "position": 4.010416666666667,
              "duration": 0.4895833333333333
            },
            {
              "pitch": 67,
              "velocity": 91,
              "position": 4.020833333333333,
              "duration": 0.4895833333333333
            },
            {
              "pitch": 60,
              "velocity": 88,
              "position": 4.5,
              "duration": 0.2916666666666667
            },
            {
              "pitch": 60,
              "velocity": 62,
              "position": 4.802083333333333,
              "duration": 0.4791666666666667
            },
            {
              "pitch": 60,
              "velocity": 62,
              "position": 5.302083333333333,
              "duration": 0.1875
            },
            {
              "pitch": 60,
              "velocity": 89,
              "position": 5.5,
              "duration": 0.4583333333333333
            },
            {
              "pitch": 60,
              "velocity": 81,
              "position": 6,
              "duration": 0.22916666666666666
            },
            {
              "pitch": 60,
              "velocity": 81,
              "position": 6.5,
              "duration": 0.4895833333333333
            },
            {
              "pitch": 67,
              "velocity": 103,
              "position": 7.020833333333333,
              "duration": 0.125
            },
            {
              "pitch": 60,
              "velocity": 102,
              "position": 7,
              "duration": 0.20833333333333334
            },
            {
              "pitch": 64,
              "velocity": 103,
              "position": 7.010416666666667,
              "duration": 0.20833333333333334
            }
          ]
        },
        "5": {
          "ctab": {
            "srcChannel": 5,
            "name": "CG27_MIN",
            "accType": "CHORD2",
            "editable": false,
            "mutedNotes": [],
            "mutedChords": [
              "1+2+5",
              "sus4",
              "1+5",
              "1+8",
              "7aug",
              "Maj7aug",
              "7(#9)",
              "7(b13)",
              "7(b9)",
              "7(13)",
              "7#11",
              "7(9)",
              "7b5",
              "7sus4",
              "7th",
              "aug",
              "Maj6(9)",
              "Maj7(9)",
              "Maj(9)",
              "Maj7#11",
              "Maj7",
              "Maj6",
              "Maj"
            ],
            "autoStart": false,
            "sourceChordNote": 0,
            "sourceChordType": "min",
            "ctb2Low": null,
            "ctb2Main": {
              "ntr": "ROOT_TRANSPOSITION",
              "ntt": "BYPASS",
              "bassOn": false,
              "chordRootUpperLimit": 3,
              "noteLowLimit": 60,
              "noteHighLimit": 71,
              "rtr": "PITCH_SHIFT"
            },
            "ctb2High": null
          },
          "notes": [
            {
              "pitch": 60,
              "velocity": 91,
              "position": 0.0020833333333333333,
              "duration": 0.48541666666666666
            },
            {
              "pitch": 63,
              "velocity": 91,
              "position": 0.010416666666666666,
              "duration": 0.4895833333333333
            },
            {
              "pitch": 67,
              "velocity": 91,
              "position": 0.020833333333333332,
              "duration": 0.4895833333333333
            },
            {
              "pitch": 67,
              "velocity": 99,
              "position": 0.5208333333333334,
              "duration": 0.25
            },
            {
              "pitch": 63,
              "velocity": 98,
              "position": 0.5104166666666666,
              "duration": 0.2708333333333333
            },
            {
              "pitch": 60,
              "velocity": 99,
              "position": 0.5,
              "duration": 0.2916666666666667
            },
            {
              "pitch": 67,
              "velocity": 73,
              "position": 0.78125,
              "duration": 0.4791666666666667
            },
            {
              "pitch": 63,
              "velocity": 73,
              "position": 0.7916666666666666,
              "duration": 0.4791666666666667
            },
            {
              "pitch": 60,
              "velocity": 72,
              "position": 0.8020833333333334,
              "duration": 0.4791666666666667
            },
            {
              "pitch": 60,
              "velocity": 72,
              "position": 1.3020833333333333,
              "duration": 0.17708333333333334
            },
            {
              "pitch": 63,
              "velocity": 73,
              "position": 1.2916666666666667,
              "duration": 0.21875
            },
            {
              "pitch": 67,
              "velocity": 73,
              "position": 1.28125,
              "duration": 0.25
            },
            {
              "pitch": 56,
              "velocity": 99,
              "position": 1.5,
              "duration": 0.4583333333333333
            },
            {
              "pitch": 60,
              "velocity": 100,
              "position": 1.5208333333333333,
              "duration": 0.4583333333333333
            },
            {
              "pitch": 63,
              "velocity": 101,
              "position": 1.5416666666666667,
              "duration": 0.4583333333333333
            },
            {
              "pitch": 56,
              "velocity": 91,
              "position": 2,
              "duration": 0.22916666666666666
            },
            {
              "pitch": 60,
              "velocity": 91,
              "position": 2.0104166666666665,
              "duration": 0.21875
            },
            {
              "pitch": 63,
              "velocity": 91,
              "position": 2.0208333333333335,
              "duration": 0.21875
            },
            {
              "pitch": 63,
              "velocity": 91,
              "position": 2.5208333333333335,
              "duration": 0.125
            },
            {
              "pitch": 56,
              "velocity": 91,
              "position": 2.5,
              "duration": 0.20833333333333334
            },
            {
              "pitch": 60,
              "velocity": 91,
              "position": 2.5104166666666665,
              "duration": 0.20833333333333334
            },
            {
              "pitch": 56,
              "velocity": 91,
              "position": 3,
              "duration": 0.22916666666666666
            },
            {
              "pitch": 60,
              "velocity": 91,
              "position": 3.0104166666666665,
              "duration": 0.21875
            },
            {
              "pitch": 63,
              "velocity": 91,
              "position": 3.0208333333333335,
              "duration": 0.21875
            },
            {
              "pitch": 63,
              "velocity": 91,
              "position": 3.5208333333333335,
              "duration": 0.125
            },
            {
              "pitch": 56,
              "velocity": 91,
              "position": 3.5,
              "duration": 0.20833333333333334
            },
            {
              "pitch": 60,
              "velocity": 91,
              "position": 3.5104166666666665,
              "duration": 0.20833333333333334
            },
            {
              "pitch": 60,
              "velocity": 91,
              "position": 4,
              "duration": 0.4895833333333333
            },
            {
              "pitch": 63,
              "velocity": 91,
              "position": 4.010416666666667,
              "duration": 0.4895833333333333
            },
            {
              "pitch": 67,
              "velocity": 91,
              "position": 4.020833333333333,
              "duration": 0.4895833333333333
            },
            {
              "pitch": 60,
              "velocity": 88,
              "position": 4.5,
              "duration": 0.2916666666666667
            },
            {
              "pitch": 60,
              "velocity": 62,
              "position": 4.802083333333333,
              "duration": 0.4791666666666667
            },
            {
              "pitch": 60,
              "velocity": 62,
              "position": 5.302083333333333,
              "duration": 0.1875
            },
            {
              "pitch": 60,
              "velocity": 89,
              "position": 5.5,
              "duration": 0.4583333333333333
            },
            {
              "pitch": 60,
              "velocity": 81,
              "position": 6,
              "duration": 0.22916666666666666
            },
            {
              "pitch": 60,
              "velocity": 81,
              "position": 6.5,
              "duration": 0.4895833333333333
            },
            {
              "pitch": 67,
              "velocity": 103,
              "position": 7.020833333333333,
              "duration": 0.125
            },
            {
              "pitch": 60,
              "velocity": 102,
              "position": 7,
              "duration": 0.20833333333333334
            },
            {
              "pitch": 63,
              "velocity": 103,
              "position": 7.010416666666667,
              "duration": 0.20833333333333334
            }
          ]
        },
        "6": {
          "ctab": {
            "srcChannel": 6,
            "name": "BriteMIN",
            "accType": "PHRASE2",
            "editable": false,
            "mutedNotes": [],
            "mutedChords": [
              "1+2+5",
              "sus4",
              "1+5",
              "1+8",
              "7aug",
              "Maj7aug",
              "7(#9)",
              "7(b13)",
              "7(b9)",
              "7(13)",
              "7#11",
              "7(9)",
              "7b5",
              "7sus4",
              "7th",
              "aug",
              "Maj6(9)",
              "Maj7(9)",
              "Maj(9)",
              "Maj7#11",
              "Maj7",
              "Maj6",
              "Maj"
            ],
            "autoStart": false,
            "sourceChordNote": 0,
            "sourceChordType": "min",
            "ctb2Low": null,
            "ctb2Main": {
              "ntr": "ROOT_TRANSPOSITION",
              "ntt": "BYPASS",
              "bassOn": false,
              "chordRootUpperLimit": 8,
              "noteLowLimit": 0,
              "noteHighLimit": 127,
              "rtr": "PITCH_SHIFT"
            },
            "ctb2High": null
          },
          "notes": [
            {
              "pitch": 60,
              "velocity": 127,
              "position": 0.5,
              "duration": 0.375
            },
            {
              "pitch": 67,
              "velocity": 127,
              "position": 1,
              "duration": 0.375
            },
            {
              "pitch": 72,
              "velocity": 127,
              "position": 1.5,
              "duration": 0.375
            },
            {
              "pitch": 72,
              "velocity": 127,
              "position": 2.5,
              "duration": 0.375
            },
            {
              "pitch": 68,
              "velocity": 127,
              "position": 3,
              "duration": 0.375
            },
            {
              "pitch": 75,
              "velocity": 127,
              "position": 3.5,
              "duration": 0.375
            },
            {
              "pitch": 72,
              "velocity": 127,
              "position": 4,
              "duration": 0.375
            },
            {
              "pitch": 84,
              "velocity": 127,
              "position": 7,
              "duration": 0.375
            }
          ]
        },
        "8": {
          "ctab": {
            "srcChannel": 8,
            "name": "Perc",
            "accType": "SUBRHYTHM",
            "editable": false,
            "mutedNotes": [],
            "mutedChords": [],
            "autoStart": true,
            "sourceChordNote": 0,
            "sourceChordType": "Maj7",
            "ctb2Low": null,
            "ctb2Main": {
              "ntr": "ROOT_FIXED",
              "ntt": "BYPASS",
              "bassOn": false,
              "chordRootUpperLimit": 6,
              "noteLowLimit": 0,
              "noteHighLimit": 127,
              "rtr": "PITCH_SHIFT"
            },
            "ctb2High": null
          },
          "notes": [
            {
              "pitch": 70,
              "velocity": 37,
              "position": 0.0020833333333333333,
              "duration": 0.07916666666666666
            },
            {
              "pitch": 54,
              "velocity": 4,
              "position": 0.2708333333333333,
              "duration": 0.08333333333333333
            },
            {
              "pitch": 54,
              "velocity": 66,
              "position": 0.4791666666666667,
              "duration": 0.08333333333333333
            },
            {
              "pitch": 70,
              "velocity": 12,
              "position": 0.5,
              "duration": 0.08333333333333333
            },
            {
              "pitch": 54,
              "velocity": 35,
              "position": 0.7708333333333334,
              "duration": 0.08333333333333333
            },
            {
              "pitch": 70,
              "velocity": 20,
              "position": 0.7916666666666666,
              "duration": 0.08333333333333333
            },
            {
              "pitch": 54,
              "velocity": 19,
              "position": 0.9791666666666666,
              "duration": 0.08333333333333333
            },
            {
              "pitch": 70,
              "velocity": 37,
              "position": 1,
              "duration": 0.08333333333333333
            },
            {
              "pitch": 54,
              "velocity": 4,
              "position": 1.2708333333333333,
              "duration": 0.08333333333333333
            },
            {
              "pitch": 54,
              "velocity": 61,
              "position": 1.4791666666666667,
              "duration": 0.08333333333333333
            },
            {
              "pitch": 70,
              "velocity": 12,
              "position": 1.5,
              "duration": 0.08333333333333333
            },
            {
              "pitch": 54,
              "velocity": 31,
              "position": 1.7708333333333333,
              "duration": 0.08333333333333333
            },
            {
              "pitch": 54,
              "velocity": 20,
              "position": 1.9791666666666667,
              "duration": 0.08333333333333333
            },
            {
              "pitch": 70,
              "velocity": 37,
              "position": 2,
              "duration": 0.08333333333333333
            },
            {
              "pitch": 54,
              "velocity": 4,
              "position": 2.2708333333333335,
              "duration": 0.08333333333333333
            },
            {
              "pitch": 54,
              "velocity": 57,
              "position": 2.4791666666666665,
              "duration": 0.08333333333333333
            },
            {
              "pitch": 70,
              "velocity": 12,
              "position": 2.5,
              "duration": 0.08333333333333333
            },
            {
              "pitch": 54,
              "velocity": 32,
              "position": 2.7708333333333335,
              "duration": 0.08333333333333333
            },
            {
              "pitch": 70,
              "velocity": 14,
              "position": 2.7916666666666665,
              "duration": 0.08333333333333333
            },
            {
              "pitch": 54,
              "velocity": 39,
              "position": 2.9791666666666665,
              "duration": 0.08333333333333333
            },
            {
              "pitch": 70,
              "velocity": 37,
              "position": 3,
              "duration": 0.08333333333333333
            },
            {
              "pitch": 54,
              "velocity": 4,
              "position": 3.2708333333333335,
              "duration": 0.08333333333333333
            },
            {
              "pitch": 54,
              "velocity": 63,
              "position": 3.4791666666666665,
              "duration": 0.08333333333333333
            },
            {
              "pitch": 70,
              "velocity": 12,
              "position": 3.5,
              "duration": 0.08333333333333333
            },
            {
              "pitch": 54,
              "velocity": 4,
              "position": 3.7708333333333335,
              "duration": 0.08333333333333333
            },
            {
              "pitch": 54,
              "velocity": 29,
              "position": 3.98125,
              "duration": 0.07916666666666666
            },
            {
              "pitch": 70,
              "velocity": 37,
              "position": 4,
              "duration": 0.08333333333333333
            },
            {
              "pitch": 57,
              "velocity": 40,
              "position": 7,
              "duration": 0.010416666666666666
            }
          ]
        },
        "9": {
          "ctab": {
            "srcChannel": 9,
            "name": "MainDrum",
            "accType": "RHYTHM",
            "editable": false,
            "mutedNotes": [],
            "mutedChords": [],
            "autoStart": true,
            "sourceChordNote": 0,
            "sourceChordType": "Maj7",
            "ctb2Low": null,
            "ctb2Main": {
              "ntr": "ROOT_FIXED",
              "ntt": "BYPASS",
              "bassOn": false,
              "chordRootUpperLimit": 6,
              "noteLowLimit": 0,
              "noteHighLimit": 127,
              "rtr": "PITCH_SHIFT"
            },
            "ctb2High": null
          },
          "notes": [
            {
              "pitch": 33,
              "velocity": 79,
              "position": 0.0020833333333333333,
              "duration": 0.041666666666666664
            },
            {
              "pitch": 42,
              "velocity": 64,
              "position": 0.0020833333333333333,
              "duration": 0.04791666666666667
            },
            {
              "pitch": 42,
              "velocity": 78,
              "position": 0.2916666666666667,
              "duration": 0.08333333333333333
            },
            {
              "pitch": 46,
              "velocity": 54,
              "position": 0.5,
              "duration": 0.020833333333333332
            },
            {
              "pitch": 25,
              "velocity": 116,
              "position": 1,
              "duration": 0.010416666666666666
            },
            {
              "pitch": 33,
              "velocity": 79,
              "position": 1,
              "duration": 0.041666666666666664
            },
            {
              "pitch": 42,
              "velocity": 78,
              "position": 1,
              "duration": 0.052083333333333336
            },
            {
              "pitch": 46,
              "velocity": 54,
              "position": 1.5,
              "duration": 0.020833333333333332
            },
            {
              "pitch": 25,
              "velocity": 73,
              "position": 1.7916666666666667,
              "duration": 0.010416666666666666
            },
            {
              "pitch": 42,
              "velocity": 76,
              "position": 1.7916666666666667,
              "duration": 0.08333333333333333
            },
            {
              "pitch": 33,
              "velocity": 79,
              "position": 2,
              "duration": 0.041666666666666664
            },
            {
              "pitch": 42,
              "velocity": 78,
              "position": 2,
              "duration": 0.052083333333333336
            },
            {
              "pitch": 46,
              "velocity": 54,
              "position": 2.5,
              "duration": 0.020833333333333332
            },
            {
              "pitch": 25,
              "velocity": 116,
              "position": 3,
              "duration": 0.010416666666666666
            },
            {
              "pitch": 33,
              "velocity": 79,
              "position": 3,
              "duration": 0.041666666666666664
            },
            {
              "pitch": 42,
              "velocity": 78,
              "position": 3,
              "duration": 0.052083333333333336
            },
            {
              "pitch": 46,
              "velocity": 54,
              "position": 3.5,
              "duration": 0.020833333333333332
            },
            {
              "pitch": 33,
              "velocity": 64,
              "position": 4,
              "duration": 0.041666666666666664
            },
            {
              "pitch": 42,
              "velocity": 72,
              "position": 4,
              "duration": 0.052083333333333336
            },
            {
              "pitch": 25,
              "velocity": 43,
              "position": 4.25,
              "duration": 0.010416666666666666
            },
            {
              "pitch": 25,
              "velocity": 48,
              "position": 4.5,
              "duration": 0.010416666666666666
            },
            {
              "pitch": 25,
              "velocity": 48,
              "position": 4.75,
              "duration": 0.010416666666666666
            },
            {
              "pitch": 25,
              "velocity": 53,
              "position": 5,
              "duration": 0.010416666666666666
            },
            {
              "pitch": 25,
              "velocity": 55,
              "position": 5.25,
              "duration": 0.010416666666666666
            },
            {
              "pitch": 25,
              "velocity": 60,
              "position": 5.5,
              "duration": 0.010416666666666666
            },
            {
              "pitch": 25,
              "velocity": 68,
              "position": 5.75,
              "duration": 0.010416666666666666
            },
            {
              "pitch": 25,
              "velocity": 71,
              "position": 6,
              "duration": 0.010416666666666666
            },
            {
              "pitch": 25,
              "velocity": 80,
              "position": 6.25,
              "duration": 0.010416666666666666
            },
            {
              "pitch": 25,
              "velocity": 88,
              "position": 6.5,
              "duration": 0.010416666666666666
            },
            {
              "pitch": 25,
              "velocity": 100,
              "position": 6.75,
              "duration": 0.010416666666666666
            },
            {
              "pitch": 25,
              "velocity": 120,
              "position": 7,
              "duration": 0.010416666666666666
            },
            {
              "pitch": 33,
              "velocity": 79,
              "position": 7,
              "duration": 0.041666666666666664
            }
          ]
        },
        "10": {
          "ctab": {
            "srcChannel": 10,
            "name": "Bassmin",
            "accType": "BASS",
            "editable": false,
            "mutedNotes": [],
            "mutedChords": [
              "1+2+5",
              "sus4",
              "1+5",
              "1+8",
              "7aug",
              "Maj7aug",
              "7(#9)",
              "7(b13)",
              "7(b9)",
              "7(13)",
              "7#11",
              "7(9)",
              "7b5",
              "7sus4",
              "7th",
              "aug",
              "Maj6(9)",
              "Maj7(9)",
              "Maj(9)",
              "Maj7#11",
              "Maj7",
              "Maj6",
              "Maj"
            ],
            "autoStart": false,
            "sourceChordNote": 0,
            "sourceChordType": "min",
            "ctb2Low": null,
            "ctb2Main": {
              "ntr": "ROOT_TRANSPOSITION",
              "ntt": "BYPASS",
              "bassOn": false,
              "chordRootUpperLimit": 11,
              "noteLowLimit": 28,
              "noteHighLimit": 127,
              "rtr": "PITCH_SHIFT"
            },
            "ctb2High": null
          },
          "notes": [
            {
              "pitch": 24,
              "velocity": 90,
              "position": 0.0020833333333333333,
              "duration": 0.7583333333333333
            },
            {
              "pitch": 24,
              "velocity": 90,
              "position": 0.7916666666666666,
              "duration": 0.20833333333333334
            },
            {
              "pitch": 29,
              "velocity": 86,
              "position": 1.5,
              "duration": 0.9583333333333334
            },
            {
              "pitch": 29,
              "velocity": 90,
              "position": 3,
              "duration": 0.4583333333333333
            },
            {
              "pitch": 24,
              "velocity": 90,
              "position": 4,
              "duration": 2.71875
            },
            {
              "pitch": 24,
              "velocity": 90,
              "position": 7,
              "duration": 0.40625
            }
          ]
        },
        "11": {
          "ctab": {
            "srcChannel": 11,
            "name": "Bassmaj",
            "accType": "BASS",
            "editable": false,
            "mutedNotes": [],
            "mutedChords": [
              "dim7",
              "dim",
              "minMaj7(9)",
              "minMaj7",
              "min7(11)",
              "min7(9)",
              "min(9)",
              "m7b5",
              "min7",
              "min6",
              "min"
            ],
            "autoStart": false,
            "sourceChordNote": 0,
            "sourceChordType": "Maj",
            "ctb2Low": null,
            "ctb2Main": {
              "ntr": "ROOT_TRANSPOSITION",
              "ntt": "BYPASS",
              "bassOn": false,
              "chordRootUpperLimit": 11,
              "noteLowLimit": 28,
              "noteHighLimit": 127,
              "rtr": "PITCH_SHIFT"
            },
            "ctb2High": null
          },
          "notes": [
            {
              "pitch": 24,
              "velocity": 86,
              "position": 0,
              "duration": 0.7395833333333334
            },
            {
              "pitch": 24,
              "velocity": 71,
              "position": 0.7916666666666666,
              "duration": 0.25
            },
            {
              "pitch": 36,
              "velocity": 82,
              "position": 1.5,
              "duration": 1.4583333333333333
            },
            {
              "pitch": 36,
              "velocity": 82,
              "position": 3,
              "duration": 0.4583333333333333
            },
            {
              "pitch": 24,
              "velocity": 86,
              "position": 4,
              "duration": 2.96875
            },
            {
              "pitch": 24,
              "velocity": 87,
              "position": 7,
              "duration": 0.40625
            }
          ]
        },
        "12": {
          "ctab": {
            "srcChannel": 12,
            "name": "Pno_MAJ",
            "accType": "CHORD1",
            "editable": false,
            "mutedNotes": [],
            "mutedChords": [
              "dim7",
              "dim",
              "minMaj7(9)",
              "minMaj7",
              "min7(11)",
              "min7(9)",
              "min(9)",
              "m7b5",
              "min7",
              "min6",
              "min"
            ],
            "autoStart": false,
            "sourceChordNote": 0,
            "sourceChordType": "Maj",
            "ctb2Low": null,
            "ctb2Main": {
              "ntr": "ROOT_TRANSPOSITION",
              "ntt": "BYPASS",
              "bassOn": false,
              "chordRootUpperLimit": 7,
              "noteLowLimit": 61,
              "noteHighLimit": 72,
              "rtr": "PITCH_SHIFT"
            },
            "ctb2High": null
          },
          "notes": [
            {
              "pitch": 60,
              "velocity": 90,
              "position": 0.0020833333333333333,
              "duration": 0.7395833333333334
            },
            {
              "pitch": 64,
              "velocity": 90,
              "position": 0.0020833333333333333,
              "duration": 0.7395833333333334
            },
            {
              "pitch": 67,
              "velocity": 90,
              "position": 0.0020833333333333333,
              "duration": 0.7395833333333334
            },
            {
              "pitch": 60,
              "velocity": 90,
              "position": 0.7916666666666666,
              "duration": 0.16666666666666666
            },
            {
              "pitch": 64,
              "velocity": 90,
              "position": 0.7916666666666666,
              "duration": 0.16666666666666666
            },
            {
              "pitch": 67,
              "velocity": 90,
              "position": 0.7916666666666666,
              "duration": 0.16666666666666666
            },
            {
              "pitch": 58,
              "velocity": 90,
              "position": 1.5,
              "duration": 0.3229166666666667
            },
            {
              "pitch": 62,
              "velocity": 90,
              "position": 1.5,
              "duration": 0.3229166666666667
            },
            {
              "pitch": 65,
              "velocity": 90,
              "position": 1.5,
              "duration": 0.3229166666666667
            },
            {
              "pitch": 58,
              "velocity": 90,
              "position": 2.5,
              "duration": 0.16666666666666666
            },
            {
              "pitch": 62,
              "velocity": 90,
              "position": 2.5,
              "duration": 0.16666666666666666
            },
            {
              "pitch": 65,
              "velocity": 90,
              "position": 2.5,
              "duration": 0.16666666666666666
            },
            {
              "pitch": 58,
              "velocity": 90,
              "position": 3.2916666666666665,
              "duration": 0.6666666666666666
            },
            {
              "pitch": 62,
              "velocity": 90,
              "position": 3.2916666666666665,
              "duration": 0.6666666666666666
            },
            {
              "pitch": 65,
              "velocity": 90,
              "position": 3.2916666666666665,
              "duration": 0.6666666666666666
            },
            {
              "pitch": 60,
              "velocity": 90,
              "position": 4,
              "duration": 2.9583333333333335
            },
            {
              "pitch": 64,
              "velocity": 90,
              "position": 4,
              "duration": 2.9583333333333335
            },
            {
              "pitch": 67,
              "velocity": 90,
              "position": 4,
              "duration": 2.9583333333333335
            },
            {
              "pitch": 60,
              "velocity": 90,
              "position": 7,
              "duration": 0.4166666666666667
            },
            {
              "pitch": 64,
              "velocity": 90,
              "position": 7,
              "duration": 0.4166666666666667
            },
            {
              "pitch": 67,
              "velocity": 90,
              "position": 7,
              "duration": 0.4166666666666667
            }
          ]
        },
        "13": {
          "ctab": {
            "srcChannel": 13,
            "name": "PnoMIN",
            "accType": "CHORD1",
            "editable": false,
            "mutedNotes": [],
            "mutedChords": [
              "1+2+5",
              "sus4",
              "1+5",
              "1+8",
              "7aug",
              "Maj7aug",
              "7(#9)",
              "7(b13)",
              "7(b9)",
              "7(13)",
              "7#11",
              "7(9)",
              "7b5",
              "7sus4",
              "7th",
              "aug",
              "Maj6(9)",
              "Maj7(9)",
              "Maj(9)",
              "Maj7#11",
              "Maj7",
              "Maj6",
              "Maj"
            ],
            "autoStart": false,
            "sourceChordNote": 0,
            "sourceChordType": "min",
            "ctb2Low": null,
            "ctb2Main": {
              "ntr": "ROOT_TRANSPOSITION",
              "ntt": "BYPASS",
              "bassOn": false,
              "chordRootUpperLimit": 7,
              "noteLowLimit": 61,
              "noteHighLimit": 72,
              "rtr": "PITCH_SHIFT"
            },
            "ctb2High": null
          },
          "notes": [
            {
              "pitch": 60,
              "velocity": 90,
              "position": 0.0020833333333333333,
              "duration": 0.7395833333333334
            },
            {
              "pitch": 63,
              "velocity": 90,
              "position": 0.0020833333333333333,
              "duration": 0.7395833333333334
            },
            {
              "pitch": 67,
              "velocity": 90,
              "position": 0.0020833333333333333,
              "duration": 0.7395833333333334
            },
            {
              "pitch": 60,
              "velocity": 90,
              "position": 0.7916666666666666,
              "duration": 0.16666666666666666
            },
            {
              "pitch": 63,
              "velocity": 90,
              "position": 0.7916666666666666,
              "duration": 0.16666666666666666
            },
            {
              "pitch": 67,
              "velocity": 90,
              "position": 0.7916666666666666,
              "duration": 0.16666666666666666
            },
            {
              "pitch": 60,
              "velocity": 90,
              "position": 1.5,
              "duration": 0.2916666666666667
            },
            {
              "pitch": 63,
              "velocity": 90,
              "position": 1.5,
              "duration": 0.2916666666666667
            },
            {
              "pitch": 68,
              "velocity": 90,
              "position": 1.5,
              "duration": 0.2916666666666667
            },
            {
              "pitch": 60,
              "velocity": 90,
              "position": 2.5,
              "duration": 0.16666666666666666
            },
            {
              "pitch": 63,
              "velocity": 90,
              "position": 2.5,
              "duration": 0.16666666666666666
            },
            {
              "pitch": 68,
              "velocity": 90,
              "position": 2.5,
              "duration": 0.16666666666666666
            },
            {
              "pitch": 60,
              "velocity": 90,
              "position": 3.2916666666666665,
              "duration": 0.6666666666666666
            },
            {
              "pitch": 63,
              "velocity": 90,
              "position": 3.2916666666666665,
              "duration": 0.6666666666666666
            },
            {
              "pitch": 68,
              "velocity": 90,
              "position": 3.2916666666666665,
              "duration": 0.6666666666666666
            },
            {
              "pitch": 60,
              "velocity": 90,
              "position": 4,
              "duration": 2.9583333333333335
            },
            {
              "pitch": 63,
              "velocity": 90,
              "position": 4,
              "duration": 2.9583333333333335
            },
            {
              "pitch": 67,
              "velocity": 90,
              "position": 4,
              "duration": 2.9583333333333335
            },
            {
              "pitch": 60,
              "velocity": 92,
              "position": 7,
              "duration": 0.4166666666666667
            },
            {
              "pitch": 63,
              "velocity": 92,
              "position": 7,
              "duration": 0.4166666666666667
            },
            {
              "pitch": 67,
              "velocity": 92,
              "position": 7,
              "duration": 0.4166666666666667
            }
          ]
        }
      }
    }
  }
}