{
  "name": "HipHopPop.S585.prs",
  "tempo": 104,
  "timeSignature": "4/4",
  "ticksPerQuarter": 1920,
  "sffType": "SFF1",
  "division": "BINARY",
  "parts": {
    "Main_A": {
      "type": "Main_A",
      "sizeInBeats": 8,
      "channels": {
        "1": {
          "ctab": {
            "srcChannel": 1,
            "name": "CC_Crash",
            "accType": "SUBRHYTHM",
            "editable": false,
            "mutedNotes": [],
            "mutedChords": [
              "1+2+5",
              "sus4",
              "1+5",
              "1+8",
              "7aug",
              "Maj7aug",
              "7(#9)",
              "7(b13)",
              "7(b9)",
              "7(13)",
              "7#11",
              "7(9)",
              "7b5",
              "7sus4",
              "7th",
              "dim7",
              "dim",
              "minMaj7(9)",
              "minMaj7",
              "min7(11)",
              "min7(9)",
              "min(9)",
              "m7b5",
              "min7",
              "min6",
              "min",
              "aug",
              "Maj6(9)",
              "Maj7(9)",
              "Maj(9)",
              "Maj7#11",
              "Maj7",
              "Maj6",
              "Maj"
            ],
            "autoStart": true,
            "sourceChordNote": 0,
            "sourceChordType": "Maj",
            "ctb2Low": null,
            "ctb2Main": {
              "ntr": "ROOT_FIXED",
              "ntt": "BYPASS",
              "bassOn": false,
              "chordRootUpperLimit": 0,
              "noteLowLimit": 0,
              "noteHighLimit": 127,
              "rtr": "RETRIGGER"
            },
            "ctb2High": null
          },
          "notes": []
        },
        "4": {
          "ctab": {
            "srcChannel": 4,
            "name": "ElecPno",
            "accType": "CHORD1",
            "editable": true,
            "mutedNotes": [],
            "mutedChords": [
              "1+2+5",
              "sus4",
              "1+5",
              "1+8",
              "Maj7aug",
              "dim",
              "minMaj7(9)",
              "minMaj7",
              "min6",
              "min",
              "aug",
              "Maj7(9)",
              "Maj7#11",
              "Maj7",
              "Maj6",
              "Maj"
            ],
            "autoStart": false,
            "sourceChordNote": 0,
            "sourceChordType": "Maj7",
            "ctb2Low": null,
            "ctb2Main": {
              "ntr": "ROOT_TRANSPOSITION",
              "ntt": "CHORD",
              "bassOn": false,
              "chordRootUpperLimit": 10,
              "noteLowLimit": 0,
              "noteHighLimit": 127,
              "rtr": "PITCH_SHIFT"
            },
            "ctb2High": null
          },
          "notes": [
            {
              "pitch": 60,
              "velocity": 76,
              "position": 0,
              "duration": 0.1875
            },
            {
              "pitch": 60,
              "velocity": 76,
              "position": 0.5,
              "duration": 0.19791666666666666
            },
            {
              "pitch": 60,
              "velocity": 73,
              "position": 1,
              "duration": 0.1875
            },
            {
              "pitch": 60,
              "velocity": 73,
              "position": 1.5,
              "duration": 0.19791666666666666
            },
            {
              "pitch": 60,
              "velocity": 71,
              "position": 2,
              "duration": 0.19791666666666666
            },
            {
              "pitch": 60,
              "velocity": 68,
              "position": 2.5,
              "duration": 0.1875
            },
            {
              "pitch": 60,
              "velocity": 73,
              "position": 3,
              "duration": 0.1875
            },
            {
              "pitch": 60,
              "velocity": 75,
              "position": 3.5,
              "duration": 0.1875
            },
            {
              "pitch": 60,
              "velocity": 71,
              "position": 4,
              "duration": 0.1875
            },
            {
              "pitch": 60,
              "velocity": 71,
              "position": 4.5,
              "duration": 0.19791666666666666
            },
            {
              "pitch": 60,
              "velocity": 73,
              "position": 5,
              "duration": 0.19791666666666666
            },
            {
              "pitch": 60,
              "velocity": 68,
              "position": 5.5,
              "duration": 0.1875
            },
            {
              "pitch": 60,
              "velocity": 68,
              "position": 6,
              "duration": 0.19791666666666666
            },
            {
              "pitch": 60,
              "velocity": 67,
              "position": 6.5,
              "duration": 0.19791666666666666
            },
            {
              "pitch": 60,
              "velocity": 69,
              "position": 7,
              "duration": 0.1875
            },
            {
              "pitch": 60,
              "velocity": 73,
              "position": 7.5,
              "duration": 0.19791666666666666
            }
          ]
        },
        "5": {
          "ctab": {
            "srcChannel": 5,
            "name": "Strings",
            "accType": "PAD",
            "editable": false,
            "mutedNotes": [],
            "mutedChords": [
              "1+2+5",
              "sus4",
              "1+5",
              "1+8",
              "Maj7aug",
              "dim",
              "minMaj7(9)",
              "minMaj7",
              "min6",
              "min",
              "aug",
              "Maj7(9)",
              "Maj7#11",
              "Maj7",
              "Maj6",
              "Maj"
            ],
            "autoStart": false,
            "sourceChordNote": 0,
            "sourceChordType": "Maj7",
            "ctb2Low": null,
            "ctb2Main": {
              "ntr": "ROOT_TRANSPOSITION",
              "ntt": "CHORD",
              "bassOn": false,
              "chordRootUpperLimit": 6,
              "noteLowLimit": 0,
              "noteHighLimit": 70,
              "rtr": "PITCH_SHIFT"
            },
            "ctb2High": null
          },
          "notes": [
            {
              "pitch": 60,
              "velocity": 54,
              "position": 0,
              "duration": 7.989583333333333
            }
          ]
        },
        "8": {
          "ctab": {
            "srcChannel": 8,
            "name": "Perc",
            "accType": "SUBRHYTHM",
            "editable": false,
            "mutedNotes": [],
            "mutedChords": [],
            "autoStart": true,
            "sourceChordNote": 0,
            "sourceChordType": "Maj7",
            "ctb2Low": null,
            "ctb2Main": {
              "ntr": "ROOT_FIXED",
              "ntt": "BYPASS",
              "bassOn": false,
              "chordRootUpperLimit": 6,
              "noteLowLimit": 0,
              "noteHighLimit": 127,
              "rtr": "PITCH_SHIFT"
            },
            "ctb2High": null
          },
          "notes": [
            {
              "pitch": 54,
              "velocity": 36,
              "position": 0,
              "duration": 0.10416666666666667
            },
            {
              "pitch": 54,
              "velocity": 8,
              "position": 0.3229166666666667,
              "duration": 0.10416666666666667
            },
            {
              "pitch": 54,
              "velocity": 39,
              "position": 0.5,
              "duration": 0.10416666666666667
            },
            {
              "pitch": 54,
              "velocity": 15,
              "position": 0.8229166666666666,
              "duration": 0.10416666666666667
            },
            {
              "pitch": 54,
              "velocity": 35,
              "position": 1,
              "duration": 0.10416666666666667
            },
            {
              "pitch": 54,
              "velocity": 5,
              "position": 1.3229166666666667,
              "duration": 0.10416666666666667
            },
            {
              "pitch": 54,
              "velocity": 38,
              "position": 1.5,
              "duration": 0.10416666666666667
            },
            {
              "pitch": 54,
              "velocity": 12,
              "position": 1.8229166666666667,
              "duration": 0.10416666666666667
            },
            {
              "pitch": 54,
              "velocity": 35,
              "position": 2,
              "duration": 0.10416666666666667
            },
            {
              "pitch": 54,
              "velocity": 5,
              "position": 2.3229166666666665,
              "duration": 0.10416666666666667
            },
            {
              "pitch": 54,
              "velocity": 38,
              "position": 2.5,
              "duration": 0.10416666666666667
            },
            {
              "pitch": 54,
              "velocity": 16,
              "position": 2.8229166666666665,
              "duration": 0.10416666666666667
            },
            {
              "pitch": 54,
              "velocity": 35,
              "position": 3,
              "duration": 0.10416666666666667
            },
            {
              "pitch": 54,
              "velocity": 4,
              "position": 3.3229166666666665,
              "duration": 0.10416666666666667
            },
            {
              "pitch": 54,
              "velocity": 38,
              "position": 3.5,
              "duration": 0.10416666666666667
            },
            {
              "pitch": 54,
              "velocity": 16,
              "position": 3.8229166666666665,
              "duration": 0.10416666666666667
            },
            {
              "pitch": 54,
              "velocity": 36,
              "position": 4,
              "duration": 0.10416666666666667
            },
            {
              "pitch": 54,
              "velocity": 8,
              "position": 4.322916666666667,
              "duration": 0.10416666666666667
            },
            {
              "pitch": 54,
              "velocity": 39,
              "position": 4.5,
              "duration": 0.10416666666666667
            },
            {
              "pitch": 54,
              "velocity": 15,
              "position": 4.822916666666667,
              "duration": 0.10416666666666667
            },
            {
              "pitch": 54,
              "velocity": 35,
              "position": 5,
              "duration": 0.10416666666666667
            },
            {
              "pitch": 54,
              "velocity": 5,
              "position": 5.322916666666667,
              "duration": 0.10416666666666667
            },
            {
              "pitch": 54,
              "velocity": 38,
              "position": 5.5,
              "duration": 0.10416666666666667
            },
            {
              "pitch": 54,
              "velocity": 16,
              "position": 5.822916666666667,
              "duration": 0.10416666666666667
            },
            {
              "pitch": 54,
              "velocity": 35,
              "position": 6,
              "duration": 0.10416666666666667
            },
            {
              "pitch": 54,
              "velocity": 5,
              "position": 6.322916666666667,
              "duration": 0.10416666666666667
            },
            {
              "pitch": 54,
              "velocity": 38,
              "position": 6.5,
              "duration": 0.10416666666666667
            },
            {
              "pitch": 54,
              "velocity": 16,
              "position": 6.822916666666667,
              "duration": 0.10416666666666667
            },
            {
              "pitch": 54,
              "velocity": 35,
              "position": 7,
              "duration": 0.10416666666666667
            },
            {
              "pitch": 54,
              "velocity": 4,
              "position": 7.322916666666667,
              "duration": 0.10416666666666667
            },
            {
              "pitch": 54,
              "velocity": 38,
              "position": 7.5,
              "duration": 0.10416666666666667
            },
            {
              "pitch": 54,
              "velocity": 16,
              "position": 7.822916666666667,
              "duration": 0.10416666666666667
            }
          ]
        },
        "9": {
          "ctab": {
            "srcChannel": 9,
            "name": "Drum",
            "accType": "RHYTHM",
            "editable": false,
            "mutedNotes": [],
            "mutedChords": [],
            "autoStart": true,
            "sourceChordNote": 0,
            "sourceChordType": "Maj7",
            "ctb2Low": null,
            "ctb2Main": {
              "ntr": "ROOT_FIXED",
              "ntt": "BYPASS",
              "bassOn": false,
              "chordRootUpperLimit": 6,
              "noteLowLimit": 0,
              "noteHighLimit": 127,
              "rtr": "PITCH_SHIFT"
            },
            "ctb2High": null
          },
          "notes": [
            {
              "pitch": 36,
              "velocity": 88,
              "position": 0,
              "duration": 0.10416666666666667
            },
            {
              "pitch": 42,
              "velocity": 87,
              "position": 0,
              "duration": 0.10416666666666667
            },
            {
              "pitch": 42,
              "velocity": 64,
              "position": 0.5,
              "duration": 0.10416666666666667
            },
            {
              "pitch": 34,
              "velocity": 64,
              "position": 1,
              "duration": 0.10416666666666667
            },
            {
              "pitch": 42,
              "velocity": 89,
              "position": 1,
              "duration": 0.10416666666666667
            },
            {
              "pitch": 42,
              "velocity": 71,
              "position": 1.5,
              "duration": 0.10416666666666667
            },
            {
              "pitch": 36,
              "velocity": 33,
              "position": 1.84375,
              "duration": 0.10416666666666667
            },
            {
              "pitch": 36,
              "velocity": 84,
              "position": 2,
              "duration": 0.10416666666666667
            },
            {
              "pitch": 42,
              "velocity": 86,
              "position": 2,
              "duration": 0.10416666666666667
            },
            {
              "pitch": 42,
              "velocity": 62,
              "position": 2.5,
              "duration": 0.10416666666666667
            },
            {
              "pitch": 34,
              "velocity": 64,
              "position": 3,
              "duration": 0.10416666666666667
            },
            {
              "pitch": 42,
              "velocity": 83,
              "position": 3,
              "duration": 0.10416666666666667
            },
            {
              "pitch": 42,
              "velocity": 71,
              "position": 3.5,
              "duration": 0.10416666666666667
            },
            {
              "pitch": 42,
              "velocity": 25,
              "position": 3.8125,
              "duration": 0.10416666666666667
            },
            {
              "pitch": 36,
              "velocity": 88,
              "position": 4,
              "duration": 0.10416666666666667
            },
            {
              "pitch": 42,
              "velocity": 88,
              "position": 4,
              "duration": 0.10416666666666667
            },
            {
              "pitch": 42,
              "velocity": 66,
              "position": 4.5,
              "duration": 0.10416666666666667
            },
            {
              "pitch": 34,
              "velocity": 64,
              "position": 5,
              "duration": 0.10416666666666667
            },
            {
              "pitch": 42,
              "velocity": 88,
              "position": 5,
              "duration": 0.10416666666666667
            },
            {
              "pitch": 42,
              "velocity": 88,
              "position": 5.5,
              "duration": 0.10416666666666667
            },
            {
              "pitch": 36,
              "velocity": 41,
              "position": 5.822916666666667,
              "duration": 0.10416666666666667
            },
            {
              "pitch": 36,
              "velocity": 84,
              "position": 6,
              "duration": 0.10416666666666667
            },
            {
              "pitch": 42,
              "velocity": 73,
              "position": 6,
              "duration": 0.10416666666666667
            },
            {
              "pitch": 42,
              "velocity": 62,
              "position": 6.5,
              "duration": 0.10416666666666667
            },
            {
              "pitch": 34,
              "velocity": 64,
              "position": 7,
              "duration": 0.10416666666666667
            },
            {
              "pitch": 42,
              "velocity": 88,
              "position": 7,
              "duration": 0.10416666666666667
            },
            {
              "pitch": 42,
              "velocity": 95,
              "position": 7.5,
              "duration": 0.10416666666666667
            },
            {
              "pitch": 42,
              "velocity": 33,
              "position": 7.8125,
              "duration": 0.10416666666666667
            }
          ]
        },
        "10": {
          "ctab": {
            "srcChannel": 10,
            "name": "SynBass",
            "accType": "BASS",
            "editable": false,
            "mutedNotes": [],
            "mutedChords": [],
            "autoStart": false,
            "sourceChordNote": 0,
            "sourceChordType": "Maj7",
            "ctb2Low": null,
            "ctb2Main": {
              "ntr": "ROOT_TRANSPOSITION",
              "ntt": "MELODY",
              "bassOn": true,
              "chordRootUpperLimit": 5,
              "noteLowLimit": 28,
              "noteHighLimit": 49,
              "rtr": "PITCH_SHIFT_TO_ROOT"
            },
            "ctb2High": null
          },
          "notes": [
            {
              "pitch": 24,
              "velocity": 100,
              "position": 0,
              "duration": 0.53125
            },
            {
              "pitch": 23,
              "velocity": 100,
              "position": 1.84375,
              "duration": 0.17708333333333334
            },
            {
              "pitch": 24,
              "velocity": 100,
              "position": 2,
              "duration": 0.4895833333333333
            },
            {
              "pitch": 24,
              "velocity": 100,
              "position": 4,
              "duration": 0.4895833333333333
            },
            {
              "pitch": 23,
              "velocity": 100,
              "position": 5.84375,
              "duration": 0.17708333333333334
            },
            {
              "pitch": 24,
              "velocity": 100,
              "position": 6,
              "duration": 0.4895833333333333
            },
            {
              "pitch": 23,
              "velocity": 100,
              "position": 7.5,
              "duration": 0.3125
            },
            {
              "pitch": 31,
              "velocity": 100,
              "position": 7.833333333333333,
              "duration": 0.13541666666666666
            }
          ]
        },
        "11": {
          "ctab": {
            "srcChannel": 11,
            "name": "Clavi",
            "accType": "CHORD2",
            "editable": false,
            "mutedNotes": [],
            "mutedChords": [],
            "autoStart": false,
            "sourceChordNote": 0,
            "sourceChordType": "Maj7",
            "ctb2Low": null,
            "ctb2Main": {
              "ntr": "ROOT_TRANSPOSITION",
              "ntt": "CHORD",
              "bassOn": false,
              "chordRootUpperLimit": 10,
              "noteLowLimit": 0,
              "noteHighLimit": 127,
              "rtr": "PITCH_SHIFT"
            },
            "ctb2High": null
          },
          "notes": []
        },
        "12": {
          "ctab": {
            "srcChannel": 12,
            "name": "ElecPno",
            "accType": "CHORD1",
            "editable": false,
            "mutedNotes": [],
            "mutedChords": [],
            "autoStart": false,
            "sourceChordNote": 0,
            "sourceChordType": "Maj7",
            "ctb2Low": null,
            "ctb2Main": {
              "ntr": "ROOT_FIXED",
              "ntt": "CHORD",
              "bassOn": false,
              "chordRootUpperLimit": 7,
              "noteLowLimit": 0,
              "noteHighLimit": 127,
              "rtr": "PITCH_SHIFT"
            },
            "ctb2High": null
          },
          "notes": [
            {
              "pitch": 64,
              "velocity": 76,
              "position": 0,
              "duration": 0.1875
            },
            {
              "pitch": 59,
              "velocity": 76,
              "position": 0,
              "duration": 0.19791666666666666
            },
            {
              "pitch": 67,
              "velocity": 73,
              "position": 0,
              "duration": 0.19791666666666666
            },
            {
              "pitch": 59,
              "velocity": 73,
              "position": 0.5,
              "duration": 0.19791666666666666
            },
            {
              "pitch": 64,
              "velocity": 76,
              "position": 0.5,
              "duration": 0.19791666666666666
            },
            {
              "pitch": 67,
              "velocity": 73,
              "position": 0.5,
              "duration": 0.19791666666666666
            },
            {
              "pitch": 59,
              "velocity": 78,
              "position": 1,
              "duration": 0.1875
            },
            {
              "pitch": 64,
              "velocity": 73,
              "position": 1,
              "duration": 0.1875
            },
            {
              "pitch": 67,
              "velocity": 74,
              "position": 1,
              "duration": 0.1875
            },
            {
              "pitch": 59,
              "velocity": 76,
              "position": 1.5,
              "duration": 0.1875
            },
            {
              "pitch": 67,
              "velocity": 76,
              "position": 1.5,
              "duration": 0.1875
            },
            {
              "pitch": 64,
              "velocity": 73,
              "position": 1.5,
              "duration": 0.19791666666666666
            },
            {
              "pitch": 59,
              "velocity": 73,
              "position": 2,
              "duration": 0.19791666666666666
            },
            {
              "pitch": 64,
              "velocity": 71,
              "position": 2,
              "duration": 0.19791666666666666
            },
            {
              "pitch": 67,
              "velocity": 69,
              "position": 2,
              "duration": 0.19791666666666666
            },
            {
              "pitch": 59,
              "velocity": 74,
              "position": 2.5,
              "duration": 0.1875
            },
            {
              "pitch": 64,
              "velocity": 68,
              "position": 2.5,
              "duration": 0.1875
            },
            {
              "pitch": 67,
              "velocity": 72,
              "position": 2.5,
              "duration": 0.1875
            },
            {
              "pitch": 64,
              "velocity": 73,
              "position": 3,
              "duration": 0.1875
            },
            {
              "pitch": 59,
              "velocity": 76,
              "position": 3,
              "duration": 0.19791666666666666
            },
            {
              "pitch": 67,
              "velocity": 67,
              "position": 3,
              "duration": 0.19791666666666666
            },
            {
              "pitch": 59,
              "velocity": 73,
              "position": 3.5,
              "duration": 0.1875
            },
            {
              "pitch": 64,
              "velocity": 75,
              "position": 3.5,
              "duration": 0.1875
            },
            {
              "pitch": 67,
              "velocity": 73,
              "position": 3.5,
              "duration": 0.1875
            },
            {
              "pitch": 64,
              "velocity": 71,
              "position": 4,
              "duration": 0.1875
            },
            {
              "pitch": 59,
              "velocity": 73,
              "position": 4,
              "duration": 0.19791666666666666
            },
            {
              "pitch": 67,
              "velocity": 73,
              "position": 4,
              "duration": 0.19791666666666666
            },
            {
              "pitch": 59,
              "velocity": 73,
              "position": 4.5,
              "duration": 0.1875
            },
            {
              "pitch": 67,
              "velocity": 69,
              "position": 4.5,
              "duration": 0.1875
            },
            {
              "pitch": 64,
              "velocity": 71,
              "position": 4.5,
              "duration": 0.19791666666666666
            },
            {
              "pitch": 59,
              "velocity": 67,
              "position": 5,
              "duration": 0.19791666666666666
            },
            {
              "pitch": 64,
              "velocity": 73,
              "position": 5,
              "duration": 0.19791666666666666
            },
            {
              "pitch": 67,
              "velocity": 72,
              "position": 5,
              "duration": 0.19791666666666666
            },
            {
              "pitch": 64,
              "velocity": 68,
              "position": 5.5,
              "duration": 0.1875
            },
            {
              "pitch": 59,
              "velocity": 74,
              "position": 5.5,
              "duration": 0.19791666666666666
            },
            {
              "pitch": 67,
              "velocity": 75,
              "position": 5.5,
              "duration": 0.19791666666666666
            },
            {
              "pitch": 67,
              "velocity": 73,
              "position": 6,
              "duration": 0.1875
            },
            {
              "pitch": 59,
              "velocity": 72,
              "position": 6,
              "duration": 0.19791666666666666
            },
            {
              "pitch": 64,
              "velocity": 68,
              "position": 6,
              "duration": 0.19791666666666666
            },
            {
              "pitch": 67,
              "velocity": 73,
              "position": 6.5,
              "duration": 0.1875
            },
            {
              "pitch": 59,
              "velocity": 73,
              "position": 6.5,
              "duration": 0.19791666666666666
            },
            {
              "pitch": 64,
              "velocity": 67,
              "position": 6.5,
              "duration": 0.19791666666666666
            },
            {
              "pitch": 59,
              "velocity": 75,
              "position": 7,
              "duration": 0.1875
            },
            {
              "pitch": 64,
              "velocity": 69,
              "position": 7,
              "duration": 0.1875
            },
            {
              "pitch": 67,
              "velocity": 72,
              "position": 7,
              "duration": 0.1875
            },
            {
              "pitch": 59,
              "velocity": 76,
              "position": 7.5,
              "duration": 0.19791666666666666
            },
            {
              "pitch": 64,
              "velocity": 73,
              "position": 7.5,
              "duration": 0.19791666666666666
            },
            {
              "pitch": 67,
              "velocity": 73,
              "position": 7.5,
              "duration": 0.19791666666666666
            }
          ]
        },
        "13": {
          "ctab": {
            "srcChannel": 13,
            "name": "Strings",
            "accType": "PAD",
            "editable": false,
            "mutedNotes": [],
            "mutedChords": [],
            "autoStart": false,
            "sourceChordNote": 0,
            "sourceChordType": "Maj7",
            "ctb2Low": null,
            "ctb2Main": {
              "ntr": "ROOT_FIXED",
              "ntt": "CHORD",
              "bassOn": false,
              "chordRootUpperLimit": 7,
              "noteLowLimit": 0,
              "noteHighLimit": 127,
              "rtr": "PITCH_SHIFT"
            },
            "ctb2High": null
          },
          "notes": [
            {
              "pitch": 55,
              "velocity": 54,
              "position": 0,
              "duration": 7.989583333333333
            },
            {
              "pitch": 59,
              "velocity": 54,
              "position": 0,
              "duration": 7.989583333333333
            },
            {
              "pitch": 64,
              "velocity": 54,
              "position": 0,
              "duration": 7.989583333333333
            }
          ]
        },
        "14": {
          "ctab": {
            "srcChannel": 14,
            "name": "Brass",
            "accType": "PHRASE1",
            "editable": false,
            "mutedNotes": [],
            "mutedChords": [],
            "autoStart": false,
            "sourceChordNote": 0,
            "sourceChordType": "Maj7",
            "ctb2Low": null,
            "ctb2Main": {
              "ntr": "ROOT_TRANSPOSITION",
              "ntt": "MELODY",
              "bassOn": false,
              "chordRootUpperLimit": 6,
              "noteLowLimit": 0,
              "noteHighLimit": 127,
              "rtr": "PITCH_SHIFT"
            },
            "ctb2High": null
          },
          "notes": []
        }
      }
    },
    "Main_B": {
      "type": "Main_B",
      "sizeInBeats": 8,
      "channels": {
        "1": {
          "ctab": {
            "srcChannel": 1,
            "name": "CC_Crash",
            "accType": "SUBRHYTHM",
            "editable": false,
            "mutedNotes": [],
            "mutedChords": [
              "1+2+5",
              "sus4",
              "1+5",
              "1+8",
              "7aug",
              "Maj7aug",
              "7(#9)",
              "7(b13)",
              "7(b9)",
              "7(13)",
              "7#11",
              "7(9)",
              "7b5",
              "7sus4",
              "7th",
              "dim7",
              "dim",
              "minMaj7(9)",
              "minMaj7",
              "min7(11)",
              "min7(9)",
              "min(9)",
              "m7b5",
              "min7",
              "min6",
              "min",
              "aug",
              "Maj6(9)",
              "Maj7(9)",
              "Maj(9)",
              "Maj7#11",
              "Maj7",
              "Maj6",
              "Maj"
            ],
            "autoStart": true,
            "sourceChordNote": 0,
            "sourceChordType": "Maj",
            "ctb2Low": null,
            "ctb2Main": {
              "ntr": "ROOT_FIXED",
              "ntt": "BYPASS",
              "bassOn": false,
              "chordRootUpperLimit": 0,
              "noteLowLimit": 0,
              "noteHighLimit": 127,
              "rtr": "RETRIGGER"
            },
            "ctb2High": null
          },
          "notes": []
        },
        "4": {
          "ctab": {
            "srcChannel": 4,
            "name": "ElecPno",
            "accType": "CHORD1",
            "editable": true,
            "mutedNotes": [],
            "mutedChords": [
              "1+2+5",
              "sus4",
              "1+5",
              "1+8",
              "Maj7aug",
              "dim",
              "minMaj7(9)",
              "minMaj7",
              "min6",
              "min",
              "aug",
              "Maj7(9)",
              "Maj7#11",
              "Maj7",
              "Maj6",
              "Maj"
            ],
            "autoStart": false,
            "sourceChordNote": 0,
            "sourceChordType": "Maj7",
            "ctb2Low": null,
            "ctb2Main": {
              "ntr": "ROOT_TRANSPOSITION",
              "ntt": "CHORD",
              "bassOn": false,
              "chordRootUpperLimit": 10,
              "noteLowLimit": 0,
              "noteHighLimit": 127,
              "rtr": "PITCH_SHIFT"
            },
            "ctb2High": null
          },
          "notes": [
            {
              "pitch": 60,
              "velocity": 80,
              "position": 0,
              "duration": 0.1875
            },
            {
              "pitch": 60,
              "velocity": 80,
              "position": 0.5,
              "duration": 0.19791666666666666
            },
            {
              "pitch": 60,
              "velocity": 77,
              "position": 1,
              "duration": 0.1875
            },
            {
              "pitch": 60,
              "velocity": 77,
              "position": 1.5,
              "duration": 0.19791666666666666
            },
            {
              "pitch": 60,
              "velocity": 75,
              "position": 2,
              "duration": 0.19791666666666666
            },
            {
              "pitch": 60,
              "velocity": 72,
              "position": 2.5,
              "duration": 0.1875
            },
            {
              "pitch": 60,
              "velocity": 77,
              "position": 3,
              "duration": 0.1875
            },
            {
              "pitch": 60,
              "velocity": 79,
              "position": 3.5,
              "duration": 0.1875
            },
            {
              "pitch": 60,
              "velocity": 75,
              "position": 4,
              "duration": 0.1875
            },
            {
              "pitch": 60,
              "velocity": 75,
              "position": 4.5,
              "duration": 0.19791666666666666
            },
            {
              "pitch": 60,
              "velocity": 77,
              "position": 5,
              "duration": 0.19791666666666666
            },
            {
              "pitch": 60,
              "velocity": 72,
              "position": 5.5,
              "duration": 0.1875
            },
            {
              "pitch": 60,
              "velocity": 72,
              "position": 6,
              "duration": 0.19791666666666666
            },
            {
              "pitch": 60,
              "velocity": 71,
              "position": 6.5,
              "duration": 0.19791666666666666
            },
            {
              "pitch": 60,
              "velocity": 73,
              "position": 7,
              "duration": 0.1875
            },
            {
              "pitch": 60,
              "velocity": 77,
              "position": 7.5,
              "duration": 0.19791666666666666
            }
          ]
        },
        "5": {
          "ctab": {
            "srcChannel": 5,
            "name": "Strings",
            "accType": "PAD",
            "editable": false,
            "mutedNotes": [],
            "mutedChords": [
              "1+2+5",
              "sus4",
              "1+5",
              "1+8",
              "Maj7aug",
              "dim",
              "minMaj7(9)",
              "minMaj7",
              "min6",
              "min",
              "aug",
              "Maj7(9)",
              "Maj7#11",
              "Maj7",
              "Maj6",
              "Maj"
            ],
            "autoStart": false,
            "sourceChordNote": 0,
            "sourceChordType": "Maj7",
            "ctb2Low": null,
            "ctb2Main": {
              "ntr": "ROOT_TRANSPOSITION",
              "ntt": "CHORD",
              "bassOn": false,
              "chordRootUpperLimit": 6,
              "noteLowLimit": 0,
              "noteHighLimit": 70,
              "rtr": "PITCH_SHIFT"
            },
            "ctb2High": null
          },
          "notes": [
            {
              "pitch": 60,
              "velocity": 54,
              "position": 0,
              "duration": 7.989583333333333
            }
          ]
        },
        "8": {
          "ctab": {
            "srcChannel": 8,
            "name": "Perc",
            "accType": "SUBRHYTHM",
            "editable": false,
            "mutedNotes": [],
            "mutedChords": [],
            "autoStart": true,
            "sourceChordNote": 0,
            "sourceChordType": "Maj7",
            "ctb2Low": null,
            "ctb2Main": {
              "ntr": "ROOT_FIXED",
              "ntt": "BYPASS",
              "bassOn": false,
              "chordRootUpperLimit": 6,
              "noteLowLimit": 0,
              "noteHighLimit": 127,
              "rtr": "PITCH_SHIFT"
            },
            "ctb2High": null
          },
          "notes": [
            {
              "pitch": 80,
              "velocity": 35,
              "position": 0,
              "duration": 0.020833333333333332
            },
            {
              "pitch": 54,
              "velocity": 36,
              "position": 0,
              "duration": 0.10416666666666667
            },
            {
              "pitch": 54,
              "velocity": 16,
              "position": 0.3229166666666667,
              "duration": 0.10416666666666667
            },
            {
              "pitch": 54,
              "velocity": 39,
              "position": 0.5,
              "duration": 0.10416666666666667
            },
            {
              "pitch": 54,
              "velocity": 24,
              "position": 0.8229166666666666,
              "duration": 0.10416666666666667
            },
            {
              "pitch": 54,
              "velocity": 35,
              "position": 1,
              "duration": 0.10416666666666667
            },
            {
              "pitch": 54,
              "velocity": 13,
              "position": 1.3229166666666667,
              "duration": 0.10416666666666667
            },
            {
              "pitch": 54,
              "velocity": 38,
              "position": 1.5,
              "duration": 0.10416666666666667
            },
            {
              "pitch": 54,
              "velocity": 26,
              "position": 1.8229166666666667,
              "duration": 0.10416666666666667
            },
            {
              "pitch": 54,
              "velocity": 35,
              "position": 2,
              "duration": 0.10416666666666667
            },
            {
              "pitch": 54,
              "velocity": 13,
              "position": 2.3229166666666665,
              "duration": 0.10416666666666667
            },
            {
              "pitch": 54,
              "velocity": 38,
              "position": 2.5,
              "duration": 0.10416666666666667
            },
            {
              "pitch": 54,
              "velocity": 23,
              "position": 2.8229166666666665,
              "duration": 0.10416666666666667
            },
            {
              "pitch": 80,
              "velocity": 35,
              "position": 3,
              "duration": 0.020833333333333332
            },
            {
              "pitch": 54,
              "velocity": 35,
              "position": 3,
              "duration": 0.10416666666666667
            },
            {
              "pitch": 80,
              "velocity": 35,
              "position": 3.3229166666666665,
              "duration": 0.020833333333333332
            },
            {
              "pitch": 54,
              "velocity": 12,
              "position": 3.3229166666666665,
              "duration": 0.10416666666666667
            },
            {
              "pitch": 54,
              "velocity": 38,
              "position": 3.5,
              "duration": 0.10416666666666667
            },
            {
              "pitch": 81,
              "velocity": 36,
              "position": 3.5,
              "duration": 0.10416666666666667
            },
            {
              "pitch": 54,
              "velocity": 23,
              "position": 3.8229166666666665,
              "duration": 0.10416666666666667
            },
            {
              "pitch": 80,
              "velocity": 35,
              "position": 4,
              "duration": 0.020833333333333332
            },
            {
              "pitch": 54,
              "velocity": 36,
              "position": 4,
              "duration": 0.10416666666666667
            },
            {
              "pitch": 54,
              "velocity": 16,
              "position": 4.322916666666667,
              "duration": 0.10416666666666667
            },
            {
              "pitch": 54,
              "velocity": 39,
              "position": 4.5,
              "duration": 0.10416666666666667
            },
            {
              "pitch": 54,
              "velocity": 24,
              "position": 4.822916666666667,
              "duration": 0.10416666666666667
            },
            {
              "pitch": 54,
              "velocity": 35,
              "position": 5,
              "duration": 0.10416666666666667
            },
            {
              "pitch": 54,
              "velocity": 13,
              "position": 5.322916666666667,
              "duration": 0.10416666666666667
            },
            {
              "pitch": 54,
              "velocity": 38,
              "position": 5.5,
              "duration": 0.10416666666666667
            },
            {
              "pitch": 54,
              "velocity": 26,
              "position": 5.822916666666667,
              "duration": 0.10416666666666667
            },
            {
              "pitch": 54,
              "velocity": 35,
              "position": 6,
              "duration": 0.10416666666666667
            },
            {
              "pitch": 54,
              "velocity": 13,
              "position": 6.322916666666667,
              "duration": 0.10416666666666667
            },
            {
              "pitch": 54,
              "velocity": 38,
              "position": 6.5,
              "duration": 0.10416666666666667
            },
            {
              "pitch": 54,
              "velocity": 23,
              "position": 6.822916666666667,
              "duration": 0.10416666666666667
            },
            {
              "pitch": 81,
              "velocity": 33,
              "position": 6.822916666666667,
              "duration": 0.10416666666666667
            },
            {
              "pitch": 80,
              "velocity": 35,
              "position": 7,
              "duration": 0.020833333333333332
            },
            {
              "pitch": 54,
              "velocity": 35,
              "position": 7,
              "duration": 0.10416666666666667
            },
            {
              "pitch": 80,
              "velocity": 35,
              "position": 7.322916666666667,
              "duration": 0.020833333333333332
            },
            {
              "pitch": 54,
              "velocity": 12,
              "position": 7.322916666666667,
              "duration": 0.10416666666666667
            },
            {
              "pitch": 54,
              "velocity": 38,
              "position": 7.5,
              "duration": 0.10416666666666667
            },
            {
              "pitch": 81,
              "velocity": 36,
              "position": 7.5,
              "duration": 0.10416666666666667
            },
            {
              "pitch": 54,
              "velocity": 23,
              "position": 7.822916666666667,
              "duration": 0.10416666666666667
            }
          ]
        },
        "9": {
          "ctab": {
            "srcChannel": 9,
            "name": "Drum",
            "accType": "RHYTHM",
            "editable": false,
            "mutedNotes": [],
            "mutedChords": [],
            "autoStart": true,
            "sourceChordNote": 0,
            "sourceChordType": "Maj7",
            "ctb2Low": null,
            "ctb2Main": {
              "ntr": "ROOT_FIXED",
              "ntt": "BYPASS",
              "bassOn": false,
              "chordRootUpperLimit": 6,
              "noteLowLimit": 0,
              "noteHighLimit": 127,
              "rtr": "PITCH_SHIFT"
            },
            "ctb2High": null
          },
          "notes": [
            {
              "pitch": 36,
              "velocity": 88,
              "position": 0,
              "duration": 0.10416666666666667
            },
            {
              "pitch": 42,
              "velocity": 87,
              "position": 0,
              "duration": 0.10416666666666667
            },
            {
              "pitch": 46,
              "velocity": 54,
              "position": 0.5,
              "duration": 0.10416666666666667
            },
            {
              "pitch": 34,
              "velocity": 64,
              "position": 1,
              "duration": 0.10416666666666667
            },
            {
              "pitch": 42,
              "velocity": 89,
              "position": 1,
              "duration": 0.10416666666666667
            },
            {
              "pitch": 42,
              "velocity": 71,
              "position": 1.5,
              "duration": 0.10416666666666667
            },
            {
              "pitch": 36,
              "velocity": 52,
              "position": 1.84375,
              "duration": 0.10416666666666667
            },
            {
              "pitch": 36,
              "velocity": 84,
              "position": 2,
              "duration": 0.10416666666666667
            },
            {
              "pitch": 42,
              "velocity": 86,
              "position": 2,
              "duration": 0.10416666666666667
            },
            {
              "pitch": 42,
              "velocity": 62,
              "position": 2.5,
              "duration": 0.10416666666666667
            },
            {
              "pitch": 34,
              "velocity": 64,
              "position": 3,
              "duration": 0.10416666666666667
            },
            {
              "pitch": 42,
              "velocity": 83,
              "position": 3,
              "duration": 0.10416666666666667
            },
            {
              "pitch": 42,
              "velocity": 71,
              "position": 3.5,
              "duration": 0.10416666666666667
            },
            {
              "pitch": 42,
              "velocity": 25,
              "position": 3.8125,
              "duration": 0.10416666666666667
            },
            {
              "pitch": 36,
              "velocity": 88,
              "position": 4,
              "duration": 0.10416666666666667
            },
            {
              "pitch": 42,
              "velocity": 88,
              "position": 4,
              "duration": 0.10416666666666667
            },
            {
              "pitch": 46,
              "velocity": 54,
              "position": 4.5,
              "duration": 0.10416666666666667
            },
            {
              "pitch": 34,
              "velocity": 64,
              "position": 5,
              "duration": 0.10416666666666667
            },
            {
              "pitch": 42,
              "velocity": 88,
              "position": 5,
              "duration": 0.10416666666666667
            },
            {
              "pitch": 42,
              "velocity": 88,
              "position": 5.5,
              "duration": 0.10416666666666667
            },
            {
              "pitch": 42,
              "velocity": 33,
              "position": 5.8125,
              "duration": 0.10416666666666667
            },
            {
              "pitch": 36,
              "velocity": 47,
              "position": 5.822916666666667,
              "duration": 0.10416666666666667
            },
            {
              "pitch": 36,
              "velocity": 84,
              "position": 6,
              "duration": 0.10416666666666667
            },
            {
              "pitch": 42,
              "velocity": 73,
              "position": 6,
              "duration": 0.10416666666666667
            },
            {
              "pitch": 42,
              "velocity": 33,
              "position": 6.3125,
              "duration": 0.10416666666666667
            },
            {
              "pitch": 36,
              "velocity": 88,
              "position": 6.5,
              "duration": 0.10416666666666667
            },
            {
              "pitch": 42,
              "velocity": 62,
              "position": 6.5,
              "duration": 0.10416666666666667
            },
            {
              "pitch": 34,
              "velocity": 64,
              "position": 7,
              "duration": 0.10416666666666667
            },
            {
              "pitch": 42,
              "velocity": 88,
              "position": 7,
              "duration": 0.10416666666666667
            },
            {
              "pitch": 36,
              "velocity": 87,
              "position": 7.5,
              "duration": 0.10416666666666667
            },
            {
              "pitch": 42,
              "velocity": 95,
              "position": 7.5,
              "duration": 0.10416666666666667
            },
            {
              "pitch": 42,
              "velocity": 33,
              "position": 7.8125,
              "duration": 0.10416666666666667
            }
          ]
        },
        "10": {
          "ctab": {
            "srcChannel": 10,
            "name": "SynBass",
            "accType": "BASS",
            "editable": false,
            "mutedNotes": [],
            "mutedChords": [],
            "autoStart": false,
            "sourceChordNote": 0,
            "sourceChordType": "Maj7",
            "ctb2Low": null,
            "ctb2Main": {
              "ntr": "ROOT_TRANSPOSITION",
              "ntt": "MELODY",
              "bassOn": true,
              "chordRootUpperLimit": 5,
              "noteLowLimit": 28,
              "noteHighLimit": 49,
              "rtr": "PITCH_SHIFT_TO_ROOT"
            },
            "ctb2High": null
          },
          "notes": [
            {
              "pitch": 24,
              "velocity": 100,
              "position": 0,
              "duration": 0.53125
            },
            {
              "pitch": 23,
              "velocity": 100,
              "position": 1.7916666666666667,
              "duration": 0.17708333333333334
            },
            {
              "pitch": 24,
              "velocity": 100,
              "position": 2,
              "duration": 0.4895833333333333
            },
            {
              "pitch": 23,
              "velocity": 100,
              "position": 3,
              "duration": 0.8333333333333334
            },
            {
              "pitch": 31,
              "velocity": 100,
              "position": 3.8125,
              "duration": 0.16666666666666666
            },
            {
              "pitch": 24,
              "velocity": 100,
              "position": 4,
              "duration": 0.4895833333333333
            },
            {
              "pitch": 24,
              "velocity": 100,
              "position": 5.8125,
              "duration": 0.2708333333333333
            },
            {
              "pitch": 31,
              "velocity": 100,
              "position": 6,
              "duration": 0.1875
            },
            {
              "pitch": 31,
              "velocity": 100,
              "position": 6.5,
              "duration": 0.23958333333333334
            },
            {
              "pitch": 23,
              "velocity": 100,
              "position": 7,
              "duration": 0.4583333333333333
            },
            {
              "pitch": 31,
              "velocity": 100,
              "position": 7.5,
              "duration": 0.4583333333333333
            }
          ]
        },
        "11": {
          "ctab": {
            "srcChannel": 11,
            "name": "Clavi",
            "accType": "CHORD2",
            "editable": false,
            "mutedNotes": [],
            "mutedChords": [],
            "autoStart": false,
            "sourceChordNote": 0,
            "sourceChordType": "Maj7",
            "ctb2Low": null,
            "ctb2Main": {
              "ntr": "ROOT_TRANSPOSITION",
              "ntt": "CHORD",
              "bassOn": false,
              "chordRootUpperLimit": 10,
              "noteLowLimit": 0,
              "noteHighLimit": 127,
              "rtr": "PITCH_SHIFT"
            },
            "ctb2High": null
          },
          "notes": [
            {
              "pitch": 43,
              "velocity": 87,
              "position": 0,
              "duration": 0.5
            },
            {
              "pitch": 52,
              "velocity": 80,
              "position": 0.5,
              "duration": 0.2604166666666667
            },
            {
              "pitch": 47,
              "velocity": 83,
              "position": 0.5,
              "duration": 0.28125
            },
            {
              "pitch": 43,
              "velocity": 83,
              "position": 0.8125,
              "duration": 0.17708333333333334
            },
            {
              "pitch": 47,
              "velocity": 79,
              "position": 1,
              "duration": 0.17708333333333334
            },
            {
              "pitch": 52,
              "velocity": 83,
              "position": 1,
              "duration": 0.19791666666666666
            },
            {
              "pitch": 52,
              "velocity": 80,
              "position": 1.5,
              "duration": 0.2708333333333333
            },
            {
              "pitch": 47,
              "velocity": 79,
              "position": 1.5,
              "duration": 0.28125
            },
            {
              "pitch": 43,
              "velocity": 83,
              "position": 1.8125,
              "duration": 0.08333333333333333
            },
            {
              "pitch": 48,
              "velocity": 92,
              "position": 2,
              "duration": 0.3541666666666667
            },
            {
              "pitch": 43,
              "velocity": 83,
              "position": 2.8125,
              "duration": 0.09375
            },
            {
              "pitch": 47,
              "velocity": 84,
              "position": 3,
              "duration": 0.28125
            },
            {
              "pitch": 48,
              "velocity": 87,
              "position": 3.3125,
              "duration": 0.1875
            },
            {
              "pitch": 43,
              "velocity": 83,
              "position": 3.5,
              "duration": 0.09375
            },
            {
              "pitch": 52,
              "velocity": 92,
              "position": 3.8125,
              "duration": 0.20833333333333334
            },
            {
              "pitch": 43,
              "velocity": 88,
              "position": 4,
              "duration": 0.4270833333333333
            },
            {
              "pitch": 52,
              "velocity": 84,
              "position": 4.5,
              "duration": 0.23958333333333334
            },
            {
              "pitch": 47,
              "velocity": 88,
              "position": 4.5,
              "duration": 0.2604166666666667
            },
            {
              "pitch": 43,
              "velocity": 84,
              "position": 4.8125,
              "duration": 0.16666666666666666
            },
            {
              "pitch": 47,
              "velocity": 79,
              "position": 5,
              "duration": 0.22916666666666666
            },
            {
              "pitch": 52,
              "velocity": 80,
              "position": 5,
              "duration": 0.22916666666666666
            },
            {
              "pitch": 47,
              "velocity": 76,
              "position": 5.5,
              "duration": 0.23958333333333334
            },
            {
              "pitch": 52,
              "velocity": 74,
              "position": 5.5,
              "duration": 0.23958333333333334
            },
            {
              "pitch": 43,
              "velocity": 83,
              "position": 5.8125,
              "duration": 0.08333333333333333
            },
            {
              "pitch": 48,
              "velocity": 96,
              "position": 6,
              "duration": 0.21875
            },
            {
              "pitch": 48,
              "velocity": 90,
              "position": 6.5,
              "duration": 0.20833333333333334
            },
            {
              "pitch": 43,
              "velocity": 83,
              "position": 6.8125,
              "duration": 0.09375
            },
            {
              "pitch": 47,
              "velocity": 84,
              "position": 7,
              "duration": 0.28125
            },
            {
              "pitch": 48,
              "velocity": 87,
              "position": 7.3125,
              "duration": 0.1875
            },
            {
              "pitch": 43,
              "velocity": 83,
              "position": 7.5,
              "duration": 0.09375
            },
            {
              "pitch": 52,
              "velocity": 92,
              "position": 7.8125,
              "duration": 0.17708333333333334
            }
          ]
        },
        "12": {
          "ctab": {
            "srcChannel": 12,
            "name": "ElecPno",
            "accType": "CHORD1",
            "editable": false,
            "mutedNotes": [],
            "mutedChords": [],
            "autoStart": false,
            "sourceChordNote": 0,
            "sourceChordType": "Maj7",
            "ctb2Low": null,
            "ctb2Main": {
              "ntr": "ROOT_FIXED",
              "ntt": "CHORD",
              "bassOn": false,
              "chordRootUpperLimit": 7,
              "noteLowLimit": 0,
              "noteHighLimit": 127,
              "rtr": "PITCH_SHIFT"
            },
            "ctb2High": null
          },
          "notes": [
            {
              "pitch": 64,
              "velocity": 80,
              "position": 0,
              "duration": 0.1875
            },
            {
              "pitch": 59,
              "velocity": 80,
              "position": 0,
              "duration": 0.19791666666666666
            },
            {
              "pitch": 67,
              "velocity": 77,
              "position": 0,
              "duration": 0.19791666666666666
            },
            {
              "pitch": 59,
              "velocity": 77,
              "position": 0.5,
              "duration": 0.19791666666666666
            },
            {
              "pitch": 64,
              "velocity": 80,
              "position": 0.5,
              "duration": 0.19791666666666666
            },
            {
              "pitch": 67,
              "velocity": 77,
              "position": 0.5,
              "duration": 0.19791666666666666
            },
            {
              "pitch": 59,
              "velocity": 83,
              "position": 1,
              "duration": 0.1875
            },
            {
              "pitch": 64,
              "velocity": 77,
              "position": 1,
              "duration": 0.1875
            },
            {
              "pitch": 67,
              "velocity": 78,
              "position": 1,
              "duration": 0.1875
            },
            {
              "pitch": 59,
              "velocity": 80,
              "position": 1.5,
              "duration": 0.1875
            },
            {
              "pitch": 67,
              "velocity": 80,
              "position": 1.5,
              "duration": 0.1875
            },
            {
              "pitch": 64,
              "velocity": 77,
              "position": 1.5,
              "duration": 0.19791666666666666
            },
            {
              "pitch": 59,
              "velocity": 77,
              "position": 2,
              "duration": 0.19791666666666666
            },
            {
              "pitch": 64,
              "velocity": 75,
              "position": 2,
              "duration": 0.19791666666666666
            },
            {
              "pitch": 67,
              "velocity": 73,
              "position": 2,
              "duration": 0.19791666666666666
            },
            {
              "pitch": 59,
              "velocity": 78,
              "position": 2.5,
              "duration": 0.1875
            },
            {
              "pitch": 64,
              "velocity": 72,
              "position": 2.5,
              "duration": 0.1875
            },
            {
              "pitch": 67,
              "velocity": 76,
              "position": 2.5,
              "duration": 0.1875
            },
            {
              "pitch": 64,
              "velocity": 77,
              "position": 3,
              "duration": 0.1875
            },
            {
              "pitch": 59,
              "velocity": 80,
              "position": 3,
              "duration": 0.19791666666666666
            },
            {
              "pitch": 67,
              "velocity": 71,
              "position": 3,
              "duration": 0.19791666666666666
            },
            {
              "pitch": 59,
              "velocity": 77,
              "position": 3.5,
              "duration": 0.1875
            },
            {
              "pitch": 64,
              "velocity": 79,
              "position": 3.5,
              "duration": 0.1875
            },
            {
              "pitch": 67,
              "velocity": 77,
              "position": 3.5,
              "duration": 0.1875
            },
            {
              "pitch": 64,
              "velocity": 75,
              "position": 4,
              "duration": 0.1875
            },
            {
              "pitch": 59,
              "velocity": 77,
              "position": 4,
              "duration": 0.19791666666666666
            },
            {
              "pitch": 67,
              "velocity": 77,
              "position": 4,
              "duration": 0.19791666666666666
            },
            {
              "pitch": 59,
              "velocity": 77,
              "position": 4.5,
              "duration": 0.1875
            },
            {
              "pitch": 67,
              "velocity": 73,
              "position": 4.5,
              "duration": 0.1875
            },
            {
              "pitch": 64,
              "velocity": 75,
              "position": 4.5,
              "duration": 0.19791666666666666
            },
            {
              "pitch": 59,
              "velocity": 71,
              "position": 5,
              "duration": 0.19791666666666666
            },
            {
              "pitch": 64,
              "velocity": 77,
              "position": 5,
              "duration": 0.19791666666666666
            },
            {
              "pitch": 67,
              "velocity": 76,
              "position": 5,
              "duration": 0.19791666666666666
            },
            {
              "pitch": 64,
              "velocity": 72,
              "position": 5.5,
              "duration": 0.1875
            },
            {
              "pitch": 59,
              "velocity": 78,
              "position": 5.5,
              "duration": 0.19791666666666666
            },
            {
              "pitch": 67,
              "velocity": 79,
              "position": 5.5,
              "duration": 0.19791666666666666
            },
            {
              "pitch": 67,
              "velocity": 77,
              "position": 6,
              "duration": 0.1875
            },
            {
              "pitch": 59,
              "velocity": 76,
              "position": 6,
              "duration": 0.19791666666666666
            },
            {
              "pitch": 64,
              "velocity": 72,
              "position": 6,
              "duration": 0.19791666666666666
            },
            {
              "pitch": 67,
              "velocity": 77,
              "position": 6.5,
              "duration": 0.1875
            },
            {
              "pitch": 59,
              "velocity": 77,
              "position": 6.5,
              "duration": 0.19791666666666666
            },
            {
              "pitch": 64,
              "velocity": 71,
              "position": 6.5,
              "duration": 0.19791666666666666
            },
            {
              "pitch": 59,
              "velocity": 79,
              "position": 7,
              "duration": 0.1875
            },
            {
              "pitch": 64,
              "velocity": 73,
              "position": 7,
              "duration": 0.1875
            },
            {
              "pitch": 67,
              "velocity": 76,
              "position": 7,
              "duration": 0.1875
            },
            {
              "pitch": 59,
              "velocity": 80,
              "position": 7.5,
              "duration": 0.19791666666666666
            },
            {
              "pitch": 64,
              "velocity": 77,
              "position": 7.5,
              "duration": 0.19791666666666666
            },
            {
              "pitch": 67,
              "velocity": 77,
              "position": 7.5,
              "duration": 0.19791666666666666
            }
          ]
        },
        "13": {
          "ctab": {
            "srcChannel": 13,
            "name": "Strings",
            "accType": "PAD",
            "editable": false,
            "mutedNotes": [],
            "mutedChords": [],
            "autoStart": false,
            "sourceChordNote": 0,
            "sourceChordType": "Maj7",
            "ctb2Low": null,
            "ctb2Main": {
              "ntr": "ROOT_FIXED",
              "ntt": "CHORD",
              "bassOn": false,
              "chordRootUpperLimit": 7,
              "noteLowLimit": 0,
              "noteHighLimit": 127,
              "rtr": "PITCH_SHIFT"
            },
            "ctb2High": null
          },
          "notes": [
            {
              "pitch": 55,
              "velocity": 54,
              "position": 0,
              "duration": 7.989583333333333
            },
            {
              "pitch": 59,
              "velocity": 54,
              "position": 0,
              "duration": 7.989583333333333
            },
            {
              "pitch": 64,
              "velocity": 53,
              "position": 0,
              "duration": 7.989583333333333
            }
          ]
        },
        "14": {
          "ctab": {
            "srcChannel": 14,
            "name": "Brass",
            "accType": "PHRASE1",
            "editable": false,
            "mutedNotes": [],
            "mutedChords": [],
            "autoStart": false,
            "sourceChordNote": 0,
            "sourceChordType": "Maj7",
            "ctb2Low": null,
            "ctb2Main": {
              "ntr": "ROOT_TRANSPOSITION",
              "ntt": "MELODY",
              "bassOn": false,
              "chordRootUpperLimit": 6,
              "noteLowLimit": 0,
              "noteHighLimit": 127,
              "rtr": "PITCH_SHIFT"
            },
            "ctb2High": null
          },
          "notes": []
        }
      }
    },
    "Fill_In_AA": {
      "type": "Fill_In_AA",
      "sizeInBeats": 4,
      "channels": {
        "1": {
          "ctab": {
            "srcChannel": 1,
            "name": "CC_Crash",
            "accType": "SUBRHYTHM",
            "editable": false,
            "mutedNotes": [],
            "mutedChords": [
              "1+2+5",
              "sus4",
              "1+5",
              "1+8",
              "7aug",
              "Maj7aug",
              "7(#9)",
              "7(b13)",
              "7(b9)",
              "7(13)",
              "7#11",
              "7(9)",
              "7b5",
              "7sus4",
              "7th",
              "dim7",
              "dim",
              "minMaj7(9)",
              "minMaj7",
              "min7(11)",
              "min7(9)",
              "min(9)",
              "m7b5",
              "min7",
              "min6",
              "min",
              "aug",
              "Maj6(9)",
              "Maj7(9)",
              "Maj(9)",
              "Maj7#11",
              "Maj7",
              "Maj6",
              "Maj"
            ],
            "autoStart": true,
            "sourceChordNote": 0,
            "sourceChordType": "Maj",
            "ctb2Low": null,
            "ctb2Main": {
              "ntr": "ROOT_FIXED",
              "ntt": "BYPASS",
              "bassOn": false,
              "chordRootUpperLimit": 0,
              "noteLowLimit": 0,
              "noteHighLimit": 127,
              "rtr": "RETRIGGER"
            },
            "ctb2High": null
          },
          "notes": []
        },
        "4": {
          "ctab": {
            "srcChannel": 4,
            "name": "ElecPno",
            "accType": "CHORD1",
            "editable": true,
            "mutedNotes": [],
            "mutedChords": [
              "1+2+5",
              "sus4",
              "1+5",
              "1+8",
              "Maj7aug",
              "dim",
              "minMaj7(9)",
              "minMaj7",
              "min6",
              "min",
              "aug",
              "Maj7(9)",
              "Maj7#11",
              "Maj7",
              "Maj6",
              "Maj"
            ],
            "autoStart": false,
            "sourceChordNote": 0,
            "sourceChordType": "Maj7",
            "ctb2Low": null,
            "ctb2Main": {
              "ntr": "ROOT_TRANSPOSITION",
              "ntt": "CHORD",
              "bassOn": false,
              "chordRootUpperLimit": 10,
              "noteLowLimit": 0,
              "noteHighLimit": 127,
              "rtr": "PITCH_SHIFT"
            },
            "ctb2High": null
          },
          "notes": [
            {
              "pitch": 60,
              "velocity": 71,
              "position": 0,
              "duration": 0.1875
            },
            {
              "pitch": 60,
              "velocity": 71,
              "position": 0.5,
              "duration": 0.19791666666666666
            },
            {
              "pitch": 60,
              "velocity": 73,
              "position": 1,
              "duration": 0.19791666666666666
            },
            {
              "pitch": 60,
              "velocity": 68,
              "position": 1.5,
              "duration": 0.1875
            },
            {
              "pitch": 60,
              "velocity": 68,
              "position": 2,
              "duration": 0.19791666666666666
            },
            {
              "pitch": 60,
              "velocity": 67,
              "position": 2.5,
              "duration": 0.19791666666666666
            },
            {
              "pitch": 60,
              "velocity": 69,
              "position": 3,
              "duration": 0.1875
            },
            {
              "pitch": 60,
              "velocity": 73,
              "position": 3.5,
              "duration": 0.19791666666666666
            }
          ]
        },
        "5": {
          "ctab": {
            "srcChannel": 5,
            "name": "Strings",
            "accType": "PAD",
            "editable": false,
            "mutedNotes": [],
            "mutedChords": [
              "1+2+5",
              "sus4",
              "1+5",
              "1+8",
              "Maj7aug",
              "dim",
              "minMaj7(9)",
              "minMaj7",
              "min6",
              "min",
              "aug",
              "Maj7(9)",
              "Maj7#11",
              "Maj7",
              "Maj6",
              "Maj"
            ],
            "autoStart": false,
            "sourceChordNote": 0,
            "sourceChordType": "Maj7",
            "ctb2Low": null,
            "ctb2Main": {
              "ntr": "ROOT_TRANSPOSITION",
              "ntt": "CHORD",
              "bassOn": false,
              "chordRootUpperLimit": 6,
              "noteLowLimit": 0,
              "noteHighLimit": 70,
              "rtr": "PITCH_SHIFT"
            },
            "ctb2High": null
          },
          "notes": [
            {
              "pitch": 60,
              "velocity": 54,
              "position": 0,
              "duration": 3.9895833333333335
            }
          ]
        },
        "8": {
          "ctab": {
            "srcChannel": 8,
            "name": "Perc",
            "accType": "SUBRHYTHM",
            "editable": false,
            "mutedNotes": [],
            "mutedChords": [],
            "autoStart": true,
            "sourceChordNote": 0,
            "sourceChordType": "Maj7",
            "ctb2Low": null,
            "ctb2Main": {
              "ntr": "ROOT_FIXED",
              "ntt": "BYPASS",
              "bassOn": false,
              "chordRootUpperLimit": 6,
              "noteLowLimit": 0,
              "noteHighLimit": 127,
              "rtr": "PITCH_SHIFT"
            },
            "ctb2High": null
          },
          "notes": [
            {
              "pitch": 80,
              "velocity": 35,
              "position": 0,
              "duration": 0.020833333333333332
            },
            {
              "pitch": 54,
              "velocity": 36,
              "position": 0,
              "duration": 0.10416666666666667
            },
            {
              "pitch": 54,
              "velocity": 8,
              "position": 0.3229166666666667,
              "duration": 0.10416666666666667
            },
            {
              "pitch": 54,
              "velocity": 39,
              "position": 0.5,
              "duration": 0.10416666666666667
            },
            {
              "pitch": 54,
              "velocity": 15,
              "position": 0.8229166666666666,
              "duration": 0.10416666666666667
            },
            {
              "pitch": 54,
              "velocity": 35,
              "position": 1,
              "duration": 0.10416666666666667
            },
            {
              "pitch": 54,
              "velocity": 5,
              "position": 1.3229166666666667,
              "duration": 0.10416666666666667
            },
            {
              "pitch": 54,
              "velocity": 38,
              "position": 1.5,
              "duration": 0.10416666666666667
            },
            {
              "pitch": 54,
              "velocity": 16,
              "position": 1.8229166666666667,
              "duration": 0.10416666666666667
            },
            {
              "pitch": 54,
              "velocity": 35,
              "position": 2,
              "duration": 0.10416666666666667
            },
            {
              "pitch": 54,
              "velocity": 5,
              "position": 2.3229166666666665,
              "duration": 0.10416666666666667
            },
            {
              "pitch": 54,
              "velocity": 38,
              "position": 2.5,
              "duration": 0.10416666666666667
            },
            {
              "pitch": 54,
              "velocity": 16,
              "position": 2.8229166666666665,
              "duration": 0.10416666666666667
            },
            {
              "pitch": 81,
              "velocity": 33,
              "position": 2.8229166666666665,
              "duration": 0.10416666666666667
            },
            {
              "pitch": 80,
              "velocity": 35,
              "position": 3,
              "duration": 0.020833333333333332
            },
            {
              "pitch": 54,
              "velocity": 35,
              "position": 3,
              "duration": 0.10416666666666667
            },
            {
              "pitch": 80,
              "velocity": 35,
              "position": 3.3229166666666665,
              "duration": 0.020833333333333332
            },
            {
              "pitch": 54,
              "velocity": 4,
              "position": 3.3229166666666665,
              "duration": 0.10416666666666667
            },
            {
              "pitch": 54,
              "velocity": 38,
              "position": 3.5,
              "duration": 0.10416666666666667
            },
            {
              "pitch": 81,
              "velocity": 36,
              "position": 3.5,
              "duration": 0.10416666666666667
            },
            {
              "pitch": 54,
              "velocity": 16,
              "position": 3.8229166666666665,
              "duration": 0.10416666666666667
            }
          ]
        },
        "9": {
          "ctab": {
            "srcChannel": 9,
            "name": "Drum",
            "accType": "RHYTHM",
            "editable": false,
            "mutedNotes": [],
            "mutedChords": [],
            "autoStart": true,
            "sourceChordNote": 0,
            "sourceChordType": "Maj7",
            "ctb2Low": null,
            "ctb2Main": {
              "ntr": "ROOT_FIXED",
              "ntt": "BYPASS",
              "bassOn": false,
              "chordRootUpperLimit": 6,
              "noteLowLimit": 0,
              "noteHighLimit": 127,
              "rtr": "PITCH_SHIFT"
            },
            "ctb2High": null
          },
          "notes": [
            {
              "pitch": 36,
              "velocity": 88,
              "position": 0,
              "duration": 0.10416666666666667
            },
            {
              "pitch": 42,
              "velocity": 88,
              "position": 0,
              "duration": 0.10416666666666667
            },
            {
              "pitch": 42,
              "velocity": 69,
              "position": 0.5,
              "duration": 0.10416666666666667
            },
            {
              "pitch": 34,
              "velocity": 64,
              "position": 1,
              "duration": 0.10416666666666667
            },
            {
              "pitch": 42,
              "velocity": 88,
              "position": 1,
              "duration": 0.10416666666666667
            },
            {
              "pitch": 42,
              "velocity": 88,
              "position": 1.5,
              "duration": 0.10416666666666667
            },
            {
              "pitch": 42,
              "velocity": 49,
              "position": 1.8125,
              "duration": 0.10416666666666667
            },
            {
              "pitch": 36,
              "velocity": 40,
              "position": 1.84375,
              "duration": 0.10416666666666667
            },
            {
              "pitch": 36,
              "velocity": 84,
              "position": 2,
              "duration": 0.10416666666666667
            },
            {
              "pitch": 42,
              "velocity": 73,
              "position": 2,
              "duration": 0.10416666666666667
            },
            {
              "pitch": 42,
              "velocity": 33,
              "position": 2.3125,
              "duration": 0.10416666666666667
            },
            {
              "pitch": 34,
              "velocity": 64,
              "position": 2.3229166666666665,
              "duration": 0.10416666666666667
            },
            {
              "pitch": 36,
              "velocity": 88,
              "position": 2.5,
              "duration": 0.10416666666666667
            },
            {
              "pitch": 46,
              "velocity": 54,
              "position": 2.5,
              "duration": 0.10416666666666667
            },
            {
              "pitch": 34,
              "velocity": 64,
              "position": 3,
              "duration": 0.10416666666666667
            },
            {
              "pitch": 42,
              "velocity": 88,
              "position": 3,
              "duration": 0.10416666666666667
            },
            {
              "pitch": 34,
              "velocity": 64,
              "position": 3.5,
              "duration": 0.10416666666666667
            },
            {
              "pitch": 36,
              "velocity": 87,
              "position": 3.5,
              "duration": 0.10416666666666667
            },
            {
              "pitch": 42,
              "velocity": 95,
              "position": 3.5,
              "duration": 0.10416666666666667
            },
            {
              "pitch": 42,
              "velocity": 33,
              "position": 3.8125,
              "duration": 0.10416666666666667
            },
            {
              "pitch": 34,
              "velocity": 64,
              "position": 3.8229166666666665,
              "duration": 0.10416666666666667
            }
          ]
        },
        "10": {
          "ctab": {
            "srcChannel": 10,
            "name": "SynBass",
            "accType": "BASS",
            "editable": false,
            "mutedNotes": [],
            "mutedChords": [],
            "autoStart": false,
            "sourceChordNote": 0,
            "sourceChordType": "Maj7",
            "ctb2Low": null,
            "ctb2Main": {
              "ntr": "ROOT_TRANSPOSITION",
              "ntt": "MELODY",
              "bassOn": true,
              "chordRootUpperLimit": 5,
              "noteLowLimit": 28,
              "noteHighLimit": 49,
              "rtr": "PITCH_SHIFT_TO_ROOT"
            },
            "ctb2High": null
          },
          "notes": [
            {
              "pitch": 24,
              "velocity": 100,
              "position": 0,
              "duration": 0.4895833333333333
            },
            {
              "pitch": 23,
              "velocity": 100,
              "position": 1.7916666666666667,
              "duration": 0.17708333333333334
            },
            {
              "pitch": 24,
              "velocity": 100,
              "position": 2,
              "duration": 0.2916666666666667
            },
            {
              "pitch": 23,
              "velocity": 100,
              "position": 2.3333333333333335,
              "duration": 0.13541666666666666
            },
            {
              "pitch": 24,
              "velocity": 100,
              "position": 2.5,
              "duration": 0.28125
            },
            {
              "pitch": 23,
              "velocity": 100,
              "position": 3.5,
              "duration": 0.28125
            },
            {
              "pitch": 31,
              "velocity": 100,
              "position": 3.8229166666666665,
              "duration": 0.15625
            }
          ]
        },
        "11": {
          "ctab": {
            "srcChannel": 11,
            "name": "Clavi",
            "accType": "CHORD2",
            "editable": false,
            "mutedNotes": [],
            "mutedChords": [],
            "autoStart": false,
            "sourceChordNote": 0,
            "sourceChordType": "Maj7",
            "ctb2Low": null,
            "ctb2Main": {
              "ntr": "ROOT_TRANSPOSITION",
              "ntt": "CHORD",
              "bassOn": false,
              "chordRootUpperLimit": 10,
              "noteLowLimit": 0,
              "noteHighLimit": 127,
              "rtr": "PITCH_SHIFT"
            },
            "ctb2High": null
          },
          "notes": []
        },
        "12": {
          "ctab": {
            "srcChannel": 12,
            "name": "ElecPno",
            "accType": "CHORD1",
            "editable": false,
            "mutedNotes": [],
            "mutedChords": [],
            "autoStart": false,
            "sourceChordNote": 0,
            "sourceChordType": "Maj7",
            "ctb2Low": null,
            "ctb2Main": {
              "ntr": "ROOT_FIXED",
              "ntt": "CHORD",
              "bassOn": false,
              "chordRootUpperLimit": 7,
              "noteLowLimit": 0,
              "noteHighLimit": 127,
              "rtr": "PITCH_SHIFT"
            },
            "ctb2High": null
          },
          "notes": [
            {
              "pitch": 64,
              "velocity": 71,
              "position": 0,
              "duration": 0.1875
            },
            {
              "pitch": 59,
              "velocity": 73,
              "position": 0,
              "duration": 0.19791666666666666
            },
            {
              "pitch": 67,
              "velocity": 73,
              "position": 0,
              "duration": 0.19791666666666666
            },
            {
              "pitch": 59,
              "velocity": 73,
              "position": 0.5,
              "duration": 0.1875
            },
            {
              "pitch": 67,
              "velocity": 69,
              "position": 0.5,
              "duration": 0.1875
            },
            {
              "pitch": 64,
              "velocity": 71,
              "position": 0.5,
              "duration": 0.19791666666666666
            },
            {
              "pitch": 59,
              "velocity": 67,
              "position": 1,
              "duration": 0.19791666666666666
            },
            {
              "pitch": 64,
              "velocity": 73,
              "position": 1,
              "duration": 0.19791666666666666
            },
            {
              "pitch": 67,
              "velocity": 72,
              "position": 1,
              "duration": 0.19791666666666666
            },
            {
              "pitch": 64,
              "velocity": 68,
              "position": 1.5,
              "duration": 0.1875
            },
            {
              "pitch": 59,
              "velocity": 74,
              "position": 1.5,
              "duration": 0.19791666666666666
            },
            {
              "pitch": 67,
              "velocity": 75,
              "position": 1.5,
              "duration": 0.19791666666666666
            },
            {
              "pitch": 67,
              "velocity": 73,
              "position": 2,
              "duration": 0.1875
            },
            {
              "pitch": 59,
              "velocity": 72,
              "position": 2,
              "duration": 0.19791666666666666
            },
            {
              "pitch": 64,
              "velocity": 68,
              "position": 2,
              "duration": 0.19791666666666666
            },
            {
              "pitch": 67,
              "velocity": 73,
              "position": 2.5,
              "duration": 0.1875
            },
            {
              "pitch": 59,
              "velocity": 73,
              "position": 2.5,
              "duration": 0.19791666666666666
            },
            {
              "pitch": 64,
              "velocity": 67,
              "position": 2.5,
              "duration": 0.19791666666666666
            },
            {
              "pitch": 59,
              "velocity": 75,
              "position": 3,
              "duration": 0.1875
            },
            {
              "pitch": 64,
              "velocity": 69,
              "position": 3,
              "duration": 0.1875
            },
            {
              "pitch": 67,
              "velocity": 72,
              "position": 3,
              "duration": 0.1875
            },
            {
              "pitch": 59,
              "velocity": 76,
              "position": 3.5,
              "duration": 0.19791666666666666
            },
            {
              "pitch": 64,
              "velocity": 73,
              "position": 3.5,
              "duration": 0.19791666666666666
            },
            {
              "pitch": 67,
              "velocity": 73,
              "position": 3.5,
              "duration": 0.19791666666666666
            }
          ]
        },
        "13": {
          "ctab": {
            "srcChannel": 13,
            "name": "Strings",
            "accType": "PAD",
            "editable": false,
            "mutedNotes": [],
            "mutedChords": [],
            "autoStart": false,
            "sourceChordNote": 0,
            "sourceChordType": "Maj7",
            "ctb2Low": null,
            "ctb2Main": {
              "ntr": "ROOT_FIXED",
              "ntt": "CHORD",
              "bassOn": false,
              "chordRootUpperLimit": 7,
              "noteLowLimit": 0,
              "noteHighLimit": 127,
              "rtr": "PITCH_SHIFT"
            },
            "ctb2High": null
          },
          "notes": [
            {
              "pitch": 55,
              "velocity": 54,
              "position": 0,
              "duration": 3.9895833333333335
            },
            {
              "pitch": 59,
              "velocity": 54,
              "position": 0,
              "duration": 3.9895833333333335
            },
            {
              "pitch": 64,
              "velocity": 54,
              "position": 0,
              "duration": 3.9895833333333335
            }
          ]
        },
        "14": {
          "ctab": {
            "srcChannel": 14,
            "name": "Brass",
            "accType": "PHRASE1",
            "editable": false,
            "mutedNotes": [],
            "mutedChords": [],
            "autoStart": false,
            "sourceChordNote": 0,
            "sourceChordType": "Maj7",
            "ctb2Low": null,
            "ctb2Main": {
              "ntr": "ROOT_TRANSPOSITION",
              "ntt": "MELODY",
              "bassOn": false,
              "chordRootUpperLimit": 6,
              "noteLowLimit": 0,
              "noteHighLimit": 127,
              "rtr": "PITCH_SHIFT"
            },
            "ctb2High": null
          },
          "notes": []
        }
      }
    },
    "Fill_In_BB": {
      "type": "Fill_In_BB",
      "sizeInBeats": 4,
      "channels": {
        "1": {
          "ctab": {
            "srcChannel": 1,
            "name": "CC_Crash",
            "accType": "SUBRHYTHM",
            "editable": false,
            "mutedNotes": [],
            "mutedChords": [
              "1+2+5",
              "sus4",
              "1+5",
              "1+8",
              "7aug",
              "Maj7aug",
              "7(#9)",
              "7(b13)",
              "7(b9)",
              "7(13)",
              "7#11",
              "7(9)",
              "7b5",
              "7sus4",
              "7th",
              "dim7",
              "dim",
              "minMaj7(9)",
              "minMaj7",
              "min7(11)",
              "min7(9)",
              "min(9)",
              "m7b5",
              "min7",
              "min6",
              "min",
              "aug",
              "Maj6(9)",
              "Maj7(9)",
              "Maj(9)",
              "Maj7#11",
              "Maj7",
              "Maj6",
              "Maj"
            ],
            "autoStart": true,
            "sourceChordNote": 0,
            "sourceChordType": "Maj",
            "ctb2Low": null,
            "ctb2Main": {
              "ntr": "ROOT_FIXED",
              "ntt": "BYPASS",
              "bassOn": false,
              "chordRootUpperLimit": 0,
              "noteLowLimit": 0,
              "noteHighLimit": 127,
              "rtr": "RETRIGGER"
            },
            "ctb2High": null
          },
          "notes": []
        },
        "4": {
          "ctab": {
            "srcChannel": 4,
            "name": "ElecPno",
            "accType": "CHORD1",
            "editable": true,
            "mutedNotes": [],
            "mutedChords": [
              "1+2+5",
              "sus4",
              "1+5",
              "1+8",
              "Maj7aug",
              "dim",
              "minMaj7(9)",
              "minMaj7",
              "min6",
              "min",
              "aug",
              "Maj7(9)",
              "Maj7#11",
              "Maj7",
              "Maj6",
              "Maj"
            ],
            "autoStart": false,
            "sourceChordNote": 0,
            "sourceChordType": "Maj7",
            "ctb2Low": null,
            "ctb2Main": {
              "ntr": "ROOT_TRANSPOSITION",
              "ntt": "CHORD",
              "bassOn": false,
              "chordRootUpperLimit": 10,
              "noteLowLimit": 0,
              "noteHighLimit": 127,
              "rtr": "PITCH_SHIFT"
            },
            "ctb2High": null
          },
          "notes": [
            {
              "pitch": 60,
              "velocity": 75,
              "position": 0,
              "duration": 0.1875
            },
            {
              "pitch": 60,
              "velocity": 75,
              "position": 0.5,
              "duration": 0.19791666666666666
            },
            {
              "pitch": 60,
              "velocity": 77,
              "position": 1,
              "duration": 0.19791666666666666
            },
            {
              "pitch": 60,
              "velocity": 72,
              "position": 1.5,
              "duration": 0.1875
            },
            {
              "pitch": 60,
              "velocity": 72,
              "position": 2,
              "duration": 0.19791666666666666
            },
            {
              "pitch": 60,
              "velocity": 71,
              "position": 2.5,
              "duration": 0.19791666666666666
            },
            {
              "pitch": 60,
              "velocity": 73,
              "position": 3,
              "duration": 0.1875
            },
            {
              "pitch": 60,
              "velocity": 77,
              "position": 3.5,
              "duration": 0.19791666666666666
            }
          ]
        },
        "5": {
          "ctab": {
            "srcChannel": 5,
            "name": "Strings",
            "accType": "PAD",
            "editable": false,
            "mutedNotes": [],
            "mutedChords": [
              "1+2+5",
              "sus4",
              "1+5",
              "1+8",
              "Maj7aug",
              "dim",
              "minMaj7(9)",
              "minMaj7",
              "min6",
              "min",
              "aug",
              "Maj7(9)",
              "Maj7#11",
              "Maj7",
              "Maj6",
              "Maj"
            ],
            "autoStart": false,
            "sourceChordNote": 0,
            "sourceChordType": "Maj7",
            "ctb2Low": null,
            "ctb2Main": {
              "ntr": "ROOT_TRANSPOSITION",
              "ntt": "CHORD",
              "bassOn": false,
              "chordRootUpperLimit": 6,
              "noteLowLimit": 0,
              "noteHighLimit": 70,
              "rtr": "PITCH_SHIFT"
            },
            "ctb2High": null
          },
          "notes": [
            {
              "pitch": 60,
              "velocity": 54,
              "position": 0,
              "duration": 3.9895833333333335
            }
          ]
        },
        "8": {
          "ctab": {
            "srcChannel": 8,
            "name": "Perc",
            "accType": "SUBRHYTHM",
            "editable": false,
            "mutedNotes": [],
            "mutedChords": [],
            "autoStart": true,
            "sourceChordNote": 0,
            "sourceChordType": "Maj7",
            "ctb2Low": null,
            "ctb2Main": {
              "ntr": "ROOT_FIXED",
              "ntt": "BYPASS",
              "bassOn": false,
              "chordRootUpperLimit": 6,
              "noteLowLimit": 0,
              "noteHighLimit": 127,
              "rtr": "PITCH_SHIFT"
            },
            "ctb2High": null
          },
          "notes": [
            {
              "pitch": 80,
              "velocity": 35,
              "position": 0,
              "duration": 0.020833333333333332
            },
            {
              "pitch": 54,
              "velocity": 36,
              "position": 0,
              "duration": 0.10416666666666667
            },
            {
              "pitch": 54,
              "velocity": 16,
              "position": 0.3229166666666667,
              "duration": 0.10416666666666667
            },
            {
              "pitch": 54,
              "velocity": 39,
              "position": 0.5,
              "duration": 0.10416666666666667
            },
            {
              "pitch": 54,
              "velocity": 24,
              "position": 0.8229166666666666,
              "duration": 0.10416666666666667
            },
            {
              "pitch": 54,
              "velocity": 35,
              "position": 1,
              "duration": 0.10416666666666667
            },
            {
              "pitch": 54,
              "velocity": 13,
              "position": 1.3229166666666667,
              "duration": 0.10416666666666667
            },
            {
              "pitch": 54,
              "velocity": 38,
              "position": 1.5,
              "duration": 0.10416666666666667
            },
            {
              "pitch": 54,
              "velocity": 26,
              "position": 1.8229166666666667,
              "duration": 0.10416666666666667
            },
            {
              "pitch": 54,
              "velocity": 35,
              "position": 2,
              "duration": 0.10416666666666667
            },
            {
              "pitch": 54,
              "velocity": 13,
              "position": 2.3229166666666665,
              "duration": 0.10416666666666667
            },
            {
              "pitch": 54,
              "velocity": 38,
              "position": 2.5,
              "duration": 0.10416666666666667
            },
            {
              "pitch": 54,
              "velocity": 23,
              "position": 2.8229166666666665,
              "duration": 0.10416666666666667
            },
            {
              "pitch": 81,
              "velocity": 33,
              "position": 2.8229166666666665,
              "duration": 0.10416666666666667
            },
            {
              "pitch": 80,
              "velocity": 35,
              "position": 3,
              "duration": 0.020833333333333332
            },
            {
              "pitch": 54,
              "velocity": 35,
              "position": 3,
              "duration": 0.10416666666666667
            },
            {
              "pitch": 80,
              "velocity": 35,
              "position": 3.3229166666666665,
              "duration": 0.020833333333333332
            },
            {
              "pitch": 54,
              "velocity": 12,
              "position": 3.3229166666666665,
              "duration": 0.10416666666666667
            },
            {
              "pitch": 54,
              "velocity": 38,
              "position": 3.5,
              "duration": 0.10416666666666667
            },
            {
              "pitch": 81,
              "velocity": 36,
              "position": 3.5,
              "duration": 0.10416666666666667
            },
            {
              "pitch": 54,
              "velocity": 23,
              "position": 3.8229166666666665,
              "duration": 0.10416666666666667
            }
          ]
        },
        "9": {
          "ctab": {
            "srcChannel": 9,
            "name": "Drum",
            "accType": "RHYTHM",
            "editable": false,
            "mutedNotes": [],
            "mutedChords": [],
            "autoStart": true,
            "sourceChordNote": 0,
            "sourceChordType": "Maj7",
            "ctb2Low": null,
            "ctb2Main": {
              "ntr": "ROOT_FIXED",
              "ntt": "BYPASS",
              "bassOn": false,
              "chordRootUpperLimit": 6,
              "noteLowLimit": 0,
              "noteHighLimit": 127,
              "rtr": "PITCH_SHIFT"
            },
            "ctb2High": null
          },
          "notes": [
            {
              "pitch": 36,
              "velocity": 88,
              "position": 0,
              "duration": 0.10416666666666667
            },
            {
              "pitch": 42,
              "velocity": 88,
              "position": 0,
              "duration": 0.10416666666666667
            },
            {
              "pitch": 46,
              "velocity": 54,
              "position": 0.5,
              "duration": 0.10416666666666667
            },
            {
              "pitch": 34,
              "velocity": 64,
              "position": 1,
              "duration": 0.10416666666666667
            },
            {
              "pitch": 42,
              "velocity": 88,
              "position": 1,
              "duration": 0.10416666666666667
            },
            {
              "pitch": 34,
              "velocity": 64,
              "position": 1.5,
              "duration": 0.10416666666666667
            },
            {
              "pitch": 42,
              "velocity": 88,
              "position": 1.5,
              "duration": 0.10416666666666667
            },
            {
              "pitch": 42,
              "velocity": 33,
              "position": 1.8125,
              "duration": 0.10416666666666667
            },
            {
              "pitch": 34,
              "velocity": 64,
              "position": 1.8229166666666667,
              "duration": 0.10416666666666667
            },
            {
              "pitch": 36,
              "velocity": 48,
              "position": 1.8229166666666667,
              "duration": 0.10416666666666667
            },
            {
              "pitch": 36,
              "velocity": 84,
              "position": 2,
              "duration": 0.10416666666666667
            },
            {
              "pitch": 42,
              "velocity": 73,
              "position": 2,
              "duration": 0.10416666666666667
            },
            {
              "pitch": 42,
              "velocity": 33,
              "position": 2.3125,
              "duration": 0.10416666666666667
            },
            {
              "pitch": 34,
              "velocity": 64,
              "position": 2.3229166666666665,
              "duration": 0.10416666666666667
            },
            {
              "pitch": 36,
              "velocity": 88,
              "position": 2.5,
              "duration": 0.10416666666666667
            },
            {
              "pitch": 46,
              "velocity": 54,
              "position": 2.5,
              "duration": 0.10416666666666667
            },
            {
              "pitch": 34,
              "velocity": 64,
              "position": 3,
              "duration": 0.10416666666666667
            },
            {
              "pitch": 42,
              "velocity": 88,
              "position": 3,
              "duration": 0.10416666666666667
            },
            {
              "pitch": 42,
              "velocity": 49,
              "position": 3.1666666666666665,
              "duration": 0.10416666666666667
            },
            {
              "pitch": 42,
              "velocity": 67,
              "position": 3.3333333333333335,
              "duration": 0.10416666666666667
            },
            {
              "pitch": 34,
              "velocity": 64,
              "position": 3.5,
              "duration": 0.10416666666666667
            },
            {
              "pitch": 36,
              "velocity": 87,
              "position": 3.5,
              "duration": 0.10416666666666667
            },
            {
              "pitch": 42,
              "velocity": 95,
              "position": 3.5,
              "duration": 0.10416666666666667
            },
            {
              "pitch": 46,
              "velocity": 54,
              "position": 3.8125,
              "duration": 0.10416666666666667
            }
          ]
        },
        "10": {
          "ctab": {
            "srcChannel": 10,
            "name": "SynBass",
            "accType": "BASS",
            "editable": false,
            "mutedNotes": [],
            "mutedChords": [],
            "autoStart": false,
            "sourceChordNote": 0,
            "sourceChordType": "Maj7",
            "ctb2Low": null,
            "ctb2Main": {
              "ntr": "ROOT_TRANSPOSITION",
              "ntt": "MELODY",
              "bassOn": true,
              "chordRootUpperLimit": 5,
              "noteLowLimit": 28,
              "noteHighLimit": 49,
              "rtr": "PITCH_SHIFT_TO_ROOT"
            },
            "ctb2High": null
          },
          "notes": [
            {
              "pitch": 24,
              "velocity": 100,
              "position": 0,
              "duration": 0.53125
            },
            {
              "pitch": 35,
              "velocity": 100,
              "position": 1.8333333333333333,
              "duration": 0.13541666666666666
            },
            {
              "pitch": 24,
              "velocity": 100,
              "position": 2,
              "duration": 0.3125
            },
            {
              "pitch": 31,
              "velocity": 100,
              "position": 2.3333333333333335,
              "duration": 0.13541666666666666
            },
            {
              "pitch": 35,
              "velocity": 100,
              "position": 2.5,
              "duration": 0.3125
            },
            {
              "pitch": 31,
              "velocity": 100,
              "position": 2.8333333333333335,
              "duration": 0.13541666666666666
            },
            {
              "pitch": 24,
              "velocity": 100,
              "position": 3,
              "duration": 0.3125
            },
            {
              "pitch": 40,
              "velocity": 100,
              "position": 3.3229166666666665,
              "duration": 0.15625
            },
            {
              "pitch": 31,
              "velocity": 100,
              "position": 3.5,
              "duration": 0.4791666666666667
            }
          ]
        },
        "11": {
          "ctab": {
            "srcChannel": 11,
            "name": "Clavi",
            "accType": "CHORD2",
            "editable": false,
            "mutedNotes": [],
            "mutedChords": [],
            "autoStart": false,
            "sourceChordNote": 0,
            "sourceChordType": "Maj7",
            "ctb2Low": null,
            "ctb2Main": {
              "ntr": "ROOT_TRANSPOSITION",
              "ntt": "CHORD",
              "bassOn": false,
              "chordRootUpperLimit": 10,
              "noteLowLimit": 0,
              "noteHighLimit": 127,
              "rtr": "PITCH_SHIFT"
            },
            "ctb2High": null
          },
          "notes": [
            {
              "pitch": 43,
              "velocity": 76,
              "position": 0,
              "duration": 0.23958333333333334
            },
            {
              "pitch": 47,
              "velocity": 82,
              "position": 0.3229166666666667,
              "duration": 0.08333333333333333
            },
            {
              "pitch": 52,
              "velocity": 77,
              "position": 0.3229166666666667,
              "duration": 0.125
            },
            {
              "pitch": 43,
              "velocity": 78,
              "position": 0.5,
              "duration": 0.08333333333333333
            },
            {
              "pitch": 47,
              "velocity": 86,
              "position": 1,
              "duration": 0.2916666666666667
            },
            {
              "pitch": 52,
              "velocity": 85,
              "position": 1,
              "duration": 0.2916666666666667
            },
            {
              "pitch": 43,
              "velocity": 78,
              "position": 1.3333333333333333,
              "duration": 0.08333333333333333
            },
            {
              "pitch": 43,
              "velocity": 83,
              "position": 1.8125,
              "duration": 0.08333333333333333
            },
            {
              "pitch": 48,
              "velocity": 96,
              "position": 2,
              "duration": 0.21875
            },
            {
              "pitch": 48,
              "velocity": 90,
              "position": 2.5,
              "duration": 0.20833333333333334
            },
            {
              "pitch": 43,
              "velocity": 83,
              "position": 2.8125,
              "duration": 0.09375
            },
            {
              "pitch": 47,
              "velocity": 84,
              "position": 3,
              "duration": 0.28125
            },
            {
              "pitch": 48,
              "velocity": 87,
              "position": 3.3125,
              "duration": 0.1875
            },
            {
              "pitch": 43,
              "velocity": 83,
              "position": 3.5,
              "duration": 0.09375
            },
            {
              "pitch": 52,
              "velocity": 92,
              "position": 3.8125,
              "duration": 0.17708333333333334
            }
          ]
        },
        "12": {
          "ctab": {
            "srcChannel": 12,
            "name": "ElecPno",
            "accType": "CHORD1",
            "editable": false,
            "mutedNotes": [],
            "mutedChords": [],
            "autoStart": false,
            "sourceChordNote": 0,
            "sourceChordType": "Maj7",
            "ctb2Low": null,
            "ctb2Main": {
              "ntr": "ROOT_FIXED",
              "ntt": "CHORD",
              "bassOn": false,
              "chordRootUpperLimit": 7,
              "noteLowLimit": 0,
              "noteHighLimit": 127,
              "rtr": "PITCH_SHIFT"
            },
            "ctb2High": null
          },
          "notes": [
            {
              "pitch": 64,
              "velocity": 75,
              "position": 0,
              "duration": 0.1875
            },
            {
              "pitch": 59,
              "velocity": 77,
              "position": 0,
              "duration": 0.19791666666666666
            },
            {
              "pitch": 67,
              "velocity": 77,
              "position": 0,
              "duration": 0.19791666666666666
            },
            {
              "pitch": 59,
              "velocity": 77,
              "position": 0.5,
              "duration": 0.1875
            },
            {
              "pitch": 67,
              "velocity": 73,
              "position": 0.5,
              "duration": 0.1875
            },
            {
              "pitch": 64,
              "velocity": 75,
              "position": 0.5,
              "duration": 0.19791666666666666
            },
            {
              "pitch": 59,
              "velocity": 71,
              "position": 1,
              "duration": 0.19791666666666666
            },
            {
              "pitch": 64,
              "velocity": 77,
              "position": 1,
              "duration": 0.19791666666666666
            },
            {
              "pitch": 67,
              "velocity": 76,
              "position": 1,
              "duration": 0.19791666666666666
            },
            {
              "pitch": 64,
              "velocity": 72,
              "position": 1.5,
              "duration": 0.1875
            },
            {
              "pitch": 59,
              "velocity": 78,
              "position": 1.5,
              "duration": 0.19791666666666666
            },
            {
              "pitch": 67,
              "velocity": 79,
              "position": 1.5,
              "duration": 0.19791666666666666
            },
            {
              "pitch": 67,
              "velocity": 77,
              "position": 2,
              "duration": 0.1875
            },
            {
              "pitch": 59,
              "velocity": 76,
              "position": 2,
              "duration": 0.19791666666666666
            },
            {
              "pitch": 64,
              "velocity": 72,
              "position": 2,
              "duration": 0.19791666666666666
            },
            {
              "pitch": 67,
              "velocity": 77,
              "position": 2.5,
              "duration": 0.1875
            },
            {
              "pitch": 59,
              "velocity": 77,
              "position": 2.5,
              "duration": 0.19791666666666666
            },
            {
              "pitch": 64,
              "velocity": 71,
              "position": 2.5,
              "duration": 0.19791666666666666
            },
            {
              "pitch": 59,
              "velocity": 79,
              "position": 3,
              "duration": 0.1875
            },
            {
              "pitch": 64,
              "velocity": 73,
              "position": 3,
              "duration": 0.1875
            },
            {
              "pitch": 67,
              "velocity": 76,
              "position": 3,
              "duration": 0.1875
            },
            {
              "pitch": 59,
              "velocity": 80,
              "position": 3.5,
              "duration": 0.19791666666666666
            },
            {
              "pitch": 64,
              "velocity": 77,
              "position": 3.5,
              "duration": 0.19791666666666666
            },
            {
              "pitch": 67,
              "velocity": 77,
              "position": 3.5,
              "duration": 0.19791666666666666
            }
          ]
        },
        "13": {
          "ctab": {
            "srcChannel": 13,
            "name": "Strings",
            "accType": "PAD",
            "editable": false,
            "mutedNotes": [],
            "mutedChords": [],
            "autoStart": false,
            "sourceChordNote": 0,
            "sourceChordType": "Maj7",
            "ctb2Low": null,
            "ctb2Main": {
              "ntr": "ROOT_FIXED",
              "ntt": "CHORD",
              "bassOn": false,
              "chordRootUpperLimit": 7,
              "noteLowLimit": 0,
              "noteHighLimit": 127,
              "rtr": "PITCH_SHIFT"
            },
            "ctb2High": null
          },
          "notes": [
            {
              "pitch": 55,
              "velocity": 54,
              "position": 0,
              "duration": 3.9895833333333335
            },
            {
              "pitch": 59,
              "velocity": 54,
              "position": 0,
              "duration": 3.9895833333333335
            },
            {
              "pitch": 64,
              "velocity": 54,
              "position": 0,
              "duration": 3.9895833333333335
            }
          ]
        },
        "14": {
          "ctab": {
            "srcChannel": 14,
            "name": "Brass",
            "accType": "PHRASE1",
            "editable": false,
            "mutedNotes": [],
            "mutedChords": [],
            "autoStart": false,
            "sourceChordNote": 0,
            "sourceChordType": "Maj7",
            "ctb2Low": null,
            "ctb2Main": {
              "ntr": "ROOT_TRANSPOSITION",
              "ntt": "MELODY",
              "bassOn": false,
              "chordRootUpperLimit": 6,
              "noteLowLimit": 0,
              "noteHighLimit": 127,
              "rtr": "PITCH_SHIFT"
            },
            "ctb2High": null
          },
          "notes": []
        }
      }
    },
    "Intro_A": {
      "type": "Intro_A",
      "sizeInBeats": 4,
      "channels": {
        "1": {
          "ctab": {
            "srcChannel": 1,
            "name": "CC_Crash",
            "accType": "SUBRHYTHM",
            "editable": false,
            "mutedNotes": [],
            "mutedChords": [
              "1+2+5",
              "sus4",
              "1+5",
              "1+8",
              "7aug",
              "Maj7aug",
              "7(#9)",
              "7(b13)",
              "7(b9)",
              "7(13)",
              "7#11",
              "7(9)",
              "7b5",
              "7sus4",
              "7th",
              "dim7",
              "dim",
              "minMaj7(9)",
              "minMaj7",
              "min7(11)",
              "min7(9)",
              "min(9)",
              "m7b5",
              "min7",
              "min6",
              "min",
              "aug",
              "Maj6(9)",
              "Maj7(9)",
              "Maj(9)",
              "Maj7#11",
              "Maj7",
              "Maj6",
              "Maj"
            ],
            "autoStart": true,
            "sourceChordNote": 0,
            "sourceChordType": "Maj",
            "ctb2Low": null,
            "ctb2Main": {
              "ntr": "ROOT_FIXED",
              "ntt": "BYPASS",
              "bassOn": false,
              "chordRootUpperLimit": 0,
              "noteLowLimit": 0,
              "noteHighLimit": 127,
              "rtr": "RETRIGGER"
            },
            "ctb2High": null
          },
          "notes": []
        },
        "4": {
          "ctab": {
            "srcChannel": 4,
            "name": "ElecPno",
            "accType": "CHORD1",
            "editable": true,
            "mutedNotes": [],
            "mutedChords": [
              "1+2+5",
              "sus4",
              "1+5",
              "1+8",
              "Maj7aug",
              "dim",
              "minMaj7(9)",
              "minMaj7",
              "min6",
              "min",
              "aug",
              "Maj7(9)",
              "Maj7#11",
              "Maj7",
              "Maj6",
              "Maj"
            ],
            "autoStart": false,
            "sourceChordNote": 0,
            "sourceChordType": "Maj7",
            "ctb2Low": null,
            "ctb2Main": {
              "ntr": "ROOT_TRANSPOSITION",
              "ntt": "CHORD",
              "bassOn": false,
              "chordRootUpperLimit": 10,
              "noteLowLimit": 0,
              "noteHighLimit": 127,
              "rtr": "PITCH_SHIFT"
            },
            "ctb2High": null
          },
          "notes": []
        },
        "5": {
          "ctab": {
            "srcChannel": 5,
            "name": "Strings",
            "accType": "PAD",
            "editable": false,
            "mutedNotes": [],
            "mutedChords": [
              "1+2+5",
              "sus4",
              "1+5",
              "1+8",
              "Maj7aug",
              "dim",
              "minMaj7(9)",
              "minMaj7",
              "min6",
              "min",
              "aug",
              "Maj7(9)",
              "Maj7#11",
              "Maj7",
              "Maj6",
              "Maj"
            ],
            "autoStart": false,
            "sourceChordNote": 0,
            "sourceChordType": "Maj7",
            "ctb2Low": null,
            "ctb2Main": {
              "ntr": "ROOT_TRANSPOSITION",
              "ntt": "CHORD",
              "bassOn": false,
              "chordRootUpperLimit": 6,
              "noteLowLimit": 0,
              "noteHighLimit": 70,
              "rtr": "PITCH_SHIFT"
            },
            "ctb2High": null
          },
          "notes": []
        },
        "8": {
          "ctab": {
            "srcChannel": 8,
            "name": "Perc",
            "accType": "SUBRHYTHM",
            "editable": false,
            "mutedNotes": [],
            "mutedChords": [],
            "autoStart": true,
            "sourceChordNote": 0,
            "sourceChordType": "Maj7",
            "ctb2Low": null,
            "ctb2Main": {
              "ntr": "ROOT_FIXED",
              "ntt": "BYPASS",
              "bassOn": false,
              "chordRootUpperLimit": 6,
              "noteLowLimit": 0,
              "noteHighLimit": 127,
              "rtr": "PITCH_SHIFT"
            },
            "ctb2High": null
          },
          "notes": [
            {
              "pitch": 32,
              "velocity": 90,
              "position": 0,
              "duration": 0.10416666666666667
            },
            {
              "pitch": 32,
              "velocity": 88,
              "position": 1,
              "duration": 0.10416666666666667
            },
            {
              "pitch": 32,
              "velocity": 12,
              "position": 1.5,
              "duration": 0.10416666666666667
            },
            {
              "pitch": 32,
              "velocity": 90,
              "position": 2,
              "duration": 0.10416666666666667
            },
            {
              "pitch": 39,
              "velocity": 64,
              "position": 3,
              "duration": 0.10416666666666667
            }
          ]
        },
        "9": {
          "ctab": {
            "srcChannel": 9,
            "name": "Drum",
            "accType": "RHYTHM",
            "editable": false,
            "mutedNotes": [],
            "mutedChords": [],
            "autoStart": true,
            "sourceChordNote": 0,
            "sourceChordType": "Maj7",
            "ctb2Low": null,
            "ctb2Main": {
              "ntr": "ROOT_FIXED",
              "ntt": "BYPASS",
              "bassOn": false,
              "chordRootUpperLimit": 6,
              "noteLowLimit": 0,
              "noteHighLimit": 127,
              "rtr": "PITCH_SHIFT"
            },
            "ctb2High": null
          },
          "notes": [
            {
              "pitch": 46,
              "velocity": 54,
              "position": 2.5,
              "duration": 0.10416666666666667
            },
            {
              "pitch": 34,
              "velocity": 18,
              "position": 2.75,
              "duration": 0.10416666666666667
            },
            {
              "pitch": 34,
              "velocity": 48,
              "position": 2.875,
              "duration": 0.10416666666666667
            },
            {
              "pitch": 34,
              "velocity": 64,
              "position": 3,
              "duration": 0.10416666666666667
            },
            {
              "pitch": 42,
              "velocity": 27,
              "position": 3,
              "duration": 0.10416666666666667
            },
            {
              "pitch": 36,
              "velocity": 43,
              "position": 3.3229166666666665,
              "duration": 0.10416666666666667
            },
            {
              "pitch": 34,
              "velocity": 64,
              "position": 3.5,
              "duration": 0.10416666666666667
            },
            {
              "pitch": 34,
              "velocity": 64,
              "position": 3.8229166666666665,
              "duration": 0.10416666666666667
            }
          ]
        },
        "10": {
          "ctab": {
            "srcChannel": 10,
            "name": "SynBass",
            "accType": "BASS",
            "editable": false,
            "mutedNotes": [],
            "mutedChords": [],
            "autoStart": false,
            "sourceChordNote": 0,
            "sourceChordType": "Maj7",
            "ctb2Low": null,
            "ctb2Main": {
              "ntr": "ROOT_TRANSPOSITION",
              "ntt": "MELODY",
              "bassOn": true,
              "chordRootUpperLimit": 5,
              "noteLowLimit": 28,
              "noteHighLimit": 49,
              "rtr": "PITCH_SHIFT_TO_ROOT"
            },
            "ctb2High": null
          },
          "notes": []
        },
        "11": {
          "ctab": {
            "srcChannel": 11,
            "name": "Clavi",
            "accType": "CHORD2",
            "editable": false,
            "mutedNotes": [],
            "mutedChords": [],
            "autoStart": false,
            "sourceChordNote": 0,
            "sourceChordType": "Maj7",
            "ctb2Low": null,
            "ctb2Main": {
              "ntr": "ROOT_TRANSPOSITION",
              "ntt": "CHORD",
              "bassOn": false,
              "chordRootUpperLimit": 10,
              "noteLowLimit": 0,
              "noteHighLimit": 127,
              "rtr": "PITCH_SHIFT"
            },
            "ctb2High": null
          },
          "notes": []
        },
        "12": {
          "ctab": {
            "srcChannel": 12,
            "name": "ElecPno",
            "accType": "CHORD1",
            "editable": false,
            "mutedNotes": [],
            "mutedChords": [],
            "autoStart": false,
            "sourceChordNote": 0,
            "sourceChordType": "Maj7",
            "ctb2Low": null,
            "ctb2Main": {
              "ntr": "ROOT_FIXED",
              "ntt": "CHORD",
              "bassOn": false,
              "chordRootUpperLimit": 7,
              "noteLowLimit": 0,
              "noteHighLimit": 127,
              "rtr": "PITCH_SHIFT"
            },
            "ctb2High": null
          },
          "notes": []
        },
        "13": {
          "ctab": {
            "srcChannel": 13,
            "name": "Strings",
            "accType": "PAD",
            "editable": false,
            "mutedNotes": [],
            "mutedChords": [],
            "autoStart": false,
            "sourceChordNote": 0,
            "sourceChordType": "Maj7",
            "ctb2Low": null,
            "ctb2Main": {
              "ntr": "ROOT_FIXED",
              "ntt": "CHORD",
              "bassOn": false,
              "chordRootUpperLimit": 7,
              "noteLowLimit": 0,
              "noteHighLimit": 127,
              "rtr": "PITCH_SHIFT"
            },
            "ctb2High": null
          },
          "notes": []
        },
        "14": {
          "ctab": {
            "srcChannel": 14,
            "name": "Brass",
            "accType": "PHRASE1",
            "editable": false,
            "mutedNotes": [],
            "mutedChords": [],
            "autoStart": false,
            "sourceChordNote": 0,
            "sourceChordType": "Maj7",
            "ctb2Low": null,
            "ctb2Main": {
              "ntr": "ROOT_TRANSPOSITION",
              "ntt": "MELODY",
              "bassOn": false,
              "chordRootUpperLimit": 6,
              "noteLowLimit": 0,
              "noteHighLimit": 127,
              "rtr": "PITCH_SHIFT"
            },
            "ctb2High": null
          },
          "notes": []
        }
      }
    },
    "Intro_B": {
      "type": "Intro_B",
      "sizeInBeats": 8,
      "channels": {
        "1": {
          "ctab": {
            "srcChannel": 1,
            "name": "CC_Crash",
            "accType": "SUBRHYTHM",
            "editable": false,
            "mutedNotes": [],
            "mutedChords": [
              "1+2+5",
              "sus4",
              "1+5",
              "1+8",
              "7aug",
              "Maj7aug",
              "7(#9)",
              "7(b13)",
              "7(b9)",
              "7(13)",
              "7#11",
              "7(9)",
              "7b5",
              "7sus4",
              "7th",
              "dim7",
              "dim",
              "minMaj7(9)",
              "minMaj7",
              "min7(11)",
              "min7(9)",
              "min(9)",
              "m7b5",
              "min7",
              "min6",
              "min",
              "aug",
              "Maj6(9)",
              "Maj7(9)",
              "Maj(9)",
              "Maj7#11",
              "Maj7",
              "Maj6",
              "Maj"
            ],
            "autoStart": true,
            "sourceChordNote": 0,
            "sourceChordType": "Maj",
            "ctb2Low": null,
            "ctb2Main": {
              "ntr": "ROOT_FIXED",
              "ntt": "BYPASS",
              "bassOn": false,
              "chordRootUpperLimit": 0,
              "noteLowLimit": 0,
              "noteHighLimit": 127,
              "rtr": "RETRIGGER"
            },
            "ctb2High": null
          },
          "notes": []
        },
        "4": {
          "ctab": {
            "srcChannel": 4,
            "name": "ElecPno",
            "accType": "CHORD1",
            "editable": true,
            "mutedNotes": [],
            "mutedChords": [
              "1+2+5",
              "sus4",
              "1+5",
              "1+8",
              "Maj7aug",
              "dim",
              "minMaj7(9)",
              "minMaj7",
              "min6",
              "min",
              "aug",
              "Maj7(9)",
              "Maj7#11",
              "Maj7",
              "Maj6",
              "Maj"
            ],
            "autoStart": false,
            "sourceChordNote": 0,
            "sourceChordType": "Maj7",
            "ctb2Low": null,
            "ctb2Main": {
              "ntr": "ROOT_TRANSPOSITION",
              "ntt": "CHORD",
              "bassOn": false,
              "chordRootUpperLimit": 10,
              "noteLowLimit": 0,
              "noteHighLimit": 127,
              "rtr": "PITCH_SHIFT"
            },
            "ctb2High": null
          },
          "notes": [
            {
              "pitch": 60,
              "velocity": 84,
              "position": 0,
              "duration": 0.21875
            },
            {
              "pitch": 60,
              "velocity": 84,
              "position": 0.5,
              "duration": 0.22916666666666666
            },
            {
              "pitch": 60,
              "velocity": 81,
              "position": 1,
              "duration": 0.21875
            },
            {
              "pitch": 60,
              "velocity": 82,
              "position": 1.5,
              "duration": 0.22916666666666666
            },
            {
              "pitch": 60,
              "velocity": 79,
              "position": 2,
              "duration": 0.22916666666666666
            },
            {
              "pitch": 60,
              "velocity": 76,
              "position": 2.5,
              "duration": 0.21875
            },
            {
              "pitch": 60,
              "velocity": 82,
              "position": 3,
              "duration": 0.21875
            },
            {
              "pitch": 60,
              "velocity": 83,
              "position": 3.5,
              "duration": 0.21875
            },
            {
              "pitch": 60,
              "velocity": 84,
              "position": 4,
              "duration": 0.21875
            },
            {
              "pitch": 60,
              "velocity": 84,
              "position": 4.354166666666667,
              "duration": 0.16666666666666666
            },
            {
              "pitch": 60,
              "velocity": 82,
              "position": 5.5,
              "duration": 0.22916666666666666
            },
            {
              "pitch": 60,
              "velocity": 79,
              "position": 5.854166666666667,
              "duration": 0.16666666666666666
            }
          ]
        },
        "5": {
          "ctab": {
            "srcChannel": 5,
            "name": "Strings",
            "accType": "PAD",
            "editable": false,
            "mutedNotes": [],
            "mutedChords": [
              "1+2+5",
              "sus4",
              "1+5",
              "1+8",
              "Maj7aug",
              "dim",
              "minMaj7(9)",
              "minMaj7",
              "min6",
              "min",
              "aug",
              "Maj7(9)",
              "Maj7#11",
              "Maj7",
              "Maj6",
              "Maj"
            ],
            "autoStart": false,
            "sourceChordNote": 0,
            "sourceChordType": "Maj7",
            "ctb2Low": null,
            "ctb2Main": {
              "ntr": "ROOT_TRANSPOSITION",
              "ntt": "CHORD",
              "bassOn": false,
              "chordRootUpperLimit": 6,
              "noteLowLimit": 0,
              "noteHighLimit": 70,
              "rtr": "PITCH_SHIFT"
            },
            "ctb2High": null
          },
          "notes": [
            {
              "pitch": 72,
              "velocity": 95,
              "position": 4,
              "duration": 0.3541666666666667
            },
            {
              "pitch": 72,
              "velocity": 95,
              "position": 5.5,
              "duration": 0.3541666666666667
            }
          ]
        },
        "8": {
          "ctab": {
            "srcChannel": 8,
            "name": "Perc",
            "accType": "SUBRHYTHM",
            "editable": false,
            "mutedNotes": [],
            "mutedChords": [],
            "autoStart": true,
            "sourceChordNote": 0,
            "sourceChordType": "Maj7",
            "ctb2Low": null,
            "ctb2Main": {
              "ntr": "ROOT_FIXED",
              "ntt": "BYPASS",
              "bassOn": false,
              "chordRootUpperLimit": 6,
              "noteLowLimit": 0,
              "noteHighLimit": 127,
              "rtr": "PITCH_SHIFT"
            },
            "ctb2High": null
          },
          "notes": [
            {
              "pitch": 80,
              "velocity": 35,
              "position": 0,
              "duration": 0.020833333333333332
            },
            {
              "pitch": 54,
              "velocity": 41,
              "position": 0,
              "duration": 0.10416666666666667
            },
            {
              "pitch": 54,
              "velocity": 28,
              "position": 0.3229166666666667,
              "duration": 0.10416666666666667
            },
            {
              "pitch": 54,
              "velocity": 49,
              "position": 0.5,
              "duration": 0.10416666666666667
            },
            {
              "pitch": 54,
              "velocity": 36,
              "position": 0.8229166666666666,
              "duration": 0.10416666666666667
            },
            {
              "pitch": 39,
              "velocity": 81,
              "position": 1,
              "duration": 0.10416666666666667
            },
            {
              "pitch": 54,
              "velocity": 40,
              "position": 1,
              "duration": 0.10416666666666667
            },
            {
              "pitch": 54,
              "velocity": 25,
              "position": 1.3229166666666667,
              "duration": 0.10416666666666667
            },
            {
              "pitch": 54,
              "velocity": 48,
              "position": 1.5,
              "duration": 0.10416666666666667
            },
            {
              "pitch": 54,
              "velocity": 38,
              "position": 1.8229166666666667,
              "duration": 0.10416666666666667
            },
            {
              "pitch": 54,
              "velocity": 40,
              "position": 2,
              "duration": 0.10416666666666667
            },
            {
              "pitch": 54,
              "velocity": 25,
              "position": 2.3229166666666665,
              "duration": 0.10416666666666667
            },
            {
              "pitch": 54,
              "velocity": 48,
              "position": 2.5,
              "duration": 0.10416666666666667
            },
            {
              "pitch": 54,
              "velocity": 35,
              "position": 2.8229166666666665,
              "duration": 0.10416666666666667
            },
            {
              "pitch": 80,
              "velocity": 35,
              "position": 3,
              "duration": 0.020833333333333332
            },
            {
              "pitch": 39,
              "velocity": 75,
              "position": 3,
              "duration": 0.10416666666666667
            },
            {
              "pitch": 54,
              "velocity": 40,
              "position": 3,
              "duration": 0.10416666666666667
            },
            {
              "pitch": 80,
              "velocity": 35,
              "position": 3.3229166666666665,
              "duration": 0.020833333333333332
            },
            {
              "pitch": 54,
              "velocity": 24,
              "position": 3.3229166666666665,
              "duration": 0.10416666666666667
            },
            {
              "pitch": 54,
              "velocity": 48,
              "position": 3.5,
              "duration": 0.10416666666666667
            },
            {
              "pitch": 81,
              "velocity": 36,
              "position": 3.5,
              "duration": 0.10416666666666667
            },
            {
              "pitch": 54,
              "velocity": 35,
              "position": 3.8229166666666665,
              "duration": 0.10416666666666667
            },
            {
              "pitch": 57,
              "velocity": 51,
              "position": 4,
              "duration": 0.010416666666666666
            },
            {
              "pitch": 80,
              "velocity": 35,
              "position": 4,
              "duration": 0.020833333333333332
            },
            {
              "pitch": 54,
              "velocity": 50,
              "position": 4,
              "duration": 0.10416666666666667
            },
            {
              "pitch": 54,
              "velocity": 40,
              "position": 4.322916666666667,
              "duration": 0.10416666666666667
            },
            {
              "pitch": 54,
              "velocity": 5,
              "position": 4.5,
              "duration": 0.10416666666666667
            },
            {
              "pitch": 54,
              "velocity": 19,
              "position": 4.822916666666667,
              "duration": 0.10416666666666667
            },
            {
              "pitch": 39,
              "velocity": 81,
              "position": 5,
              "duration": 0.10416666666666667
            },
            {
              "pitch": 54,
              "velocity": 37,
              "position": 5,
              "duration": 0.10416666666666667
            },
            {
              "pitch": 54,
              "velocity": 28,
              "position": 5.322916666666667,
              "duration": 0.0625
            },
            {
              "pitch": 54,
              "velocity": 22,
              "position": 5.416666666666667,
              "duration": 0.0625
            },
            {
              "pitch": 54,
              "velocity": 52,
              "position": 5.5,
              "duration": 0.10416666666666667
            },
            {
              "pitch": 54,
              "velocity": 50,
              "position": 5.822916666666667,
              "duration": 0.10416666666666667
            },
            {
              "pitch": 80,
              "velocity": 35,
              "position": 7,
              "duration": 0.020833333333333332
            },
            {
              "pitch": 39,
              "velocity": 75,
              "position": 7,
              "duration": 0.10416666666666667
            },
            {
              "pitch": 80,
              "velocity": 35,
              "position": 7.322916666666667,
              "duration": 0.020833333333333332
            },
            {
              "pitch": 55,
              "velocity": 51,
              "position": 7.5,
              "duration": 0.010416666666666666
            },
            {
              "pitch": 81,
              "velocity": 36,
              "position": 7.5,
              "duration": 0.10416666666666667
            }
          ]
        },
        "9": {
          "ctab": {
            "srcChannel": 9,
            "name": "Drum",
            "accType": "RHYTHM",
            "editable": false,
            "mutedNotes": [],
            "mutedChords": [],
            "autoStart": true,
            "sourceChordNote": 0,
            "sourceChordType": "Maj7",
            "ctb2Low": null,
            "ctb2Main": {
              "ntr": "ROOT_FIXED",
              "ntt": "BYPASS",
              "bassOn": false,
              "chordRootUpperLimit": 6,
              "noteLowLimit": 0,
              "noteHighLimit": 127,
              "rtr": "PITCH_SHIFT"
            },
            "ctb2High": null
          },
          "notes": [
            {
              "pitch": 36,
              "velocity": 88,
              "position": 0,
              "duration": 0.10416666666666667
            },
            {
              "pitch": 42,
              "velocity": 87,
              "position": 0,
              "duration": 0.10416666666666667
            },
            {
              "pitch": 42,
              "velocity": 60,
              "position": 0.5,
              "duration": 0.10416666666666667
            },
            {
              "pitch": 34,
              "velocity": 64,
              "position": 1,
              "duration": 0.10416666666666667
            },
            {
              "pitch": 42,
              "velocity": 89,
              "position": 1,
              "duration": 0.10416666666666667
            },
            {
              "pitch": 42,
              "velocity": 71,
              "position": 1.5,
              "duration": 0.10416666666666667
            },
            {
              "pitch": 36,
              "velocity": 52,
              "position": 1.84375,
              "duration": 0.10416666666666667
            },
            {
              "pitch": 36,
              "velocity": 84,
              "position": 2,
              "duration": 0.10416666666666667
            },
            {
              "pitch": 42,
              "velocity": 86,
              "position": 2,
              "duration": 0.10416666666666667
            },
            {
              "pitch": 36,
              "velocity": 73,
              "position": 2.5,
              "duration": 0.10416666666666667
            },
            {
              "pitch": 46,
              "velocity": 54,
              "position": 2.5,
              "duration": 0.10416666666666667
            },
            {
              "pitch": 34,
              "velocity": 64,
              "position": 3,
              "duration": 0.10416666666666667
            },
            {
              "pitch": 42,
              "velocity": 83,
              "position": 3,
              "duration": 0.10416666666666667
            },
            {
              "pitch": 46,
              "velocity": 54,
              "position": 3.5,
              "duration": 0.10416666666666667
            },
            {
              "pitch": 34,
              "velocity": 18,
              "position": 3.75,
              "duration": 0.10416666666666667
            },
            {
              "pitch": 34,
              "velocity": 48,
              "position": 3.875,
              "duration": 0.10416666666666667
            },
            {
              "pitch": 34,
              "velocity": 64,
              "position": 4,
              "duration": 0.10416666666666667
            },
            {
              "pitch": 36,
              "velocity": 80,
              "position": 4,
              "duration": 0.10416666666666667
            },
            {
              "pitch": 42,
              "velocity": 88,
              "position": 4,
              "duration": 0.10416666666666667
            },
            {
              "pitch": 34,
              "velocity": 64,
              "position": 4.322916666666667,
              "duration": 0.10416666666666667
            },
            {
              "pitch": 42,
              "velocity": 83,
              "position": 4.5,
              "duration": 0.10416666666666667
            },
            {
              "pitch": 36,
              "velocity": 52,
              "position": 5,
              "duration": 0.10416666666666667
            },
            {
              "pitch": 42,
              "velocity": 88,
              "position": 5,
              "duration": 0.10416666666666667
            },
            {
              "pitch": 34,
              "velocity": 18,
              "position": 5.25,
              "duration": 0.10416666666666667
            },
            {
              "pitch": 36,
              "velocity": 62,
              "position": 5.322916666666667,
              "duration": 0.10416666666666667
            },
            {
              "pitch": 34,
              "velocity": 48,
              "position": 5.375,
              "duration": 0.10416666666666667
            },
            {
              "pitch": 34,
              "velocity": 64,
              "position": 5.5,
              "duration": 0.10416666666666667
            },
            {
              "pitch": 42,
              "velocity": 88,
              "position": 5.5,
              "duration": 0.10416666666666667
            },
            {
              "pitch": 46,
              "velocity": 54,
              "position": 5.8125,
              "duration": 0.10416666666666667
            },
            {
              "pitch": 34,
              "velocity": 64,
              "position": 5.822916666666667,
              "duration": 0.10416666666666667
            },
            {
              "pitch": 42,
              "velocity": 73,
              "position": 6,
              "duration": 0.10416666666666667
            },
            {
              "pitch": 36,
              "velocity": 43,
              "position": 6.322916666666667,
              "duration": 0.10416666666666667
            },
            {
              "pitch": 34,
              "velocity": 64,
              "position": 6.5,
              "duration": 0.10416666666666667
            },
            {
              "pitch": 34,
              "velocity": 64,
              "position": 7,
              "duration": 0.10416666666666667
            },
            {
              "pitch": 42,
              "velocity": 88,
              "position": 7,
              "duration": 0.10416666666666667
            },
            {
              "pitch": 34,
              "velocity": 64,
              "position": 7.5,
              "duration": 0.10416666666666667
            },
            {
              "pitch": 36,
              "velocity": 87,
              "position": 7.5,
              "duration": 0.10416666666666667
            },
            {
              "pitch": 42,
              "velocity": 95,
              "position": 7.5,
              "duration": 0.10416666666666667
            },
            {
              "pitch": 42,
              "velocity": 33,
              "position": 7.8125,
              "duration": 0.10416666666666667
            },
            {
              "pitch": 34,
              "velocity": 64,
              "position": 7.822916666666667,
              "duration": 0.10416666666666667
            }
          ]
        },
        "10": {
          "ctab": {
            "srcChannel": 10,
            "name": "SynBass",
            "accType": "BASS",
            "editable": false,
            "mutedNotes": [],
            "mutedChords": [],
            "autoStart": false,
            "sourceChordNote": 0,
            "sourceChordType": "Maj7",
            "ctb2Low": null,
            "ctb2Main": {
              "ntr": "ROOT_TRANSPOSITION",
              "ntt": "MELODY",
              "bassOn": true,
              "chordRootUpperLimit": 5,
              "noteLowLimit": 28,
              "noteHighLimit": 49,
              "rtr": "PITCH_SHIFT_TO_ROOT"
            },
            "ctb2High": null
          },
          "notes": [
            {
              "pitch": 24,
              "velocity": 100,
              "position": 0,
              "duration": 0.53125
            },
            {
              "pitch": 35,
              "velocity": 100,
              "position": 1.7916666666666667,
              "duration": 0.17708333333333334
            },
            {
              "pitch": 24,
              "velocity": 100,
              "position": 2.0104166666666665,
              "duration": 0.16666666666666666
            },
            {
              "pitch": 24,
              "velocity": 100,
              "position": 2.5,
              "duration": 0.19791666666666666
            },
            {
              "pitch": 35,
              "velocity": 100,
              "position": 3,
              "duration": 0.5416666666666666
            },
            {
              "pitch": 31,
              "velocity": 100,
              "position": 3.5104166666666665,
              "duration": 0.4791666666666667
            },
            {
              "pitch": 24,
              "velocity": 100,
              "position": 4,
              "duration": 0.23958333333333334
            },
            {
              "pitch": 24,
              "velocity": 100,
              "position": 4.3125,
              "duration": 0.16666666666666666
            },
            {
              "pitch": 24,
              "velocity": 100,
              "position": 5.5,
              "duration": 0.23958333333333334
            },
            {
              "pitch": 24,
              "velocity": 100,
              "position": 5.8125,
              "duration": 0.16666666666666666
            },
            {
              "pitch": 35,
              "velocity": 100,
              "position": 7,
              "duration": 0.3020833333333333
            },
            {
              "pitch": 40,
              "velocity": 100,
              "position": 7.322916666666667,
              "duration": 0.20833333333333334
            },
            {
              "pitch": 31,
              "velocity": 100,
              "position": 7.5,
              "duration": 0.4479166666666667
            }
          ]
        },
        "11": {
          "ctab": {
            "srcChannel": 11,
            "name": "Clavi",
            "accType": "CHORD2",
            "editable": false,
            "mutedNotes": [],
            "mutedChords": [],
            "autoStart": false,
            "sourceChordNote": 0,
            "sourceChordType": "Maj7",
            "ctb2Low": null,
            "ctb2Main": {
              "ntr": "ROOT_TRANSPOSITION",
              "ntt": "CHORD",
              "bassOn": false,
              "chordRootUpperLimit": 10,
              "noteLowLimit": 0,
              "noteHighLimit": 127,
              "rtr": "PITCH_SHIFT"
            },
            "ctb2High": null
          },
          "notes": [
            {
              "pitch": 43,
              "velocity": 76,
              "position": 0,
              "duration": 0.23958333333333334
            },
            {
              "pitch": 47,
              "velocity": 82,
              "position": 0.3229166666666667,
              "duration": 0.08333333333333333
            },
            {
              "pitch": 52,
              "velocity": 77,
              "position": 0.3229166666666667,
              "duration": 0.125
            },
            {
              "pitch": 43,
              "velocity": 78,
              "position": 0.5,
              "duration": 0.08333333333333333
            },
            {
              "pitch": 47,
              "velocity": 86,
              "position": 1,
              "duration": 0.2916666666666667
            },
            {
              "pitch": 52,
              "velocity": 85,
              "position": 1,
              "duration": 0.2916666666666667
            },
            {
              "pitch": 43,
              "velocity": 78,
              "position": 1.3333333333333333,
              "duration": 0.08333333333333333
            },
            {
              "pitch": 43,
              "velocity": 83,
              "position": 1.8125,
              "duration": 0.17708333333333334
            },
            {
              "pitch": 48,
              "velocity": 91,
              "position": 2.3125,
              "duration": 0.14583333333333334
            },
            {
              "pitch": 43,
              "velocity": 76,
              "position": 2.5,
              "duration": 0.07291666666666667
            },
            {
              "pitch": 48,
              "velocity": 99,
              "position": 2.8229166666666665,
              "duration": 0.11458333333333333
            },
            {
              "pitch": 43,
              "velocity": 87,
              "position": 3.3125,
              "duration": 0.1875
            },
            {
              "pitch": 47,
              "velocity": 83,
              "position": 3.5,
              "duration": 0.375
            },
            {
              "pitch": 43,
              "velocity": 92,
              "position": 3.8229166666666665,
              "duration": 0.20833333333333334
            },
            {
              "pitch": 52,
              "velocity": 85,
              "position": 4,
              "duration": 0.2708333333333333
            },
            {
              "pitch": 47,
              "velocity": 86,
              "position": 4,
              "duration": 0.28125
            },
            {
              "pitch": 47,
              "velocity": 82,
              "position": 4.322916666666667,
              "duration": 0.08333333333333333
            },
            {
              "pitch": 52,
              "velocity": 77,
              "position": 4.322916666666667,
              "duration": 0.125
            },
            {
              "pitch": 43,
              "velocity": 78,
              "position": 5.333333333333333,
              "duration": 0.08333333333333333
            },
            {
              "pitch": 52,
              "velocity": 85,
              "position": 5.5,
              "duration": 0.2708333333333333
            },
            {
              "pitch": 47,
              "velocity": 86,
              "position": 5.5,
              "duration": 0.28125
            },
            {
              "pitch": 47,
              "velocity": 82,
              "position": 5.822916666666667,
              "duration": 0.08333333333333333
            },
            {
              "pitch": 52,
              "velocity": 77,
              "position": 5.822916666666667,
              "duration": 0.125
            },
            {
              "pitch": 48,
              "velocity": 76,
              "position": 7.322916666666667,
              "duration": 0.08333333333333333
            },
            {
              "pitch": 40,
              "velocity": 80,
              "position": 7.489583333333333,
              "duration": 0.0625
            },
            {
              "pitch": 43,
              "velocity": 87,
              "position": 7.822916666666667,
              "duration": 0.14583333333333334
            }
          ]
        },
        "12": {
          "ctab": {
            "srcChannel": 12,
            "name": "ElecPno",
            "accType": "CHORD1",
            "editable": false,
            "mutedNotes": [],
            "mutedChords": [],
            "autoStart": false,
            "sourceChordNote": 0,
            "sourceChordType": "Maj7",
            "ctb2Low": null,
            "ctb2Main": {
              "ntr": "ROOT_FIXED",
              "ntt": "CHORD",
              "bassOn": false,
              "chordRootUpperLimit": 7,
              "noteLowLimit": 0,
              "noteHighLimit": 127,
              "rtr": "PITCH_SHIFT"
            },
            "ctb2High": null
          },
          "notes": [
            {
              "pitch": 64,
              "velocity": 84,
              "position": 0,
              "duration": 0.21875
            },
            {
              "pitch": 59,
              "velocity": 84,
              "position": 0,
              "duration": 0.22916666666666666
            },
            {
              "pitch": 67,
              "velocity": 81,
              "position": 0,
              "duration": 0.22916666666666666
            },
            {
              "pitch": 59,
              "velocity": 81,
              "position": 0.5,
              "duration": 0.22916666666666666
            },
            {
              "pitch": 64,
              "velocity": 84,
              "position": 0.5,
              "duration": 0.22916666666666666
            },
            {
              "pitch": 67,
              "velocity": 82,
              "position": 0.5,
              "duration": 0.22916666666666666
            },
            {
              "pitch": 59,
              "velocity": 85,
              "position": 1,
              "duration": 0.21875
            },
            {
              "pitch": 64,
              "velocity": 81,
              "position": 1,
              "duration": 0.21875
            },
            {
              "pitch": 67,
              "velocity": 83,
              "position": 1,
              "duration": 0.21875
            },
            {
              "pitch": 59,
              "velocity": 84,
              "position": 1.5,
              "duration": 0.21875
            },
            {
              "pitch": 67,
              "velocity": 84,
              "position": 1.5,
              "duration": 0.21875
            },
            {
              "pitch": 64,
              "velocity": 82,
              "position": 1.5,
              "duration": 0.22916666666666666
            },
            {
              "pitch": 59,
              "velocity": 81,
              "position": 2,
              "duration": 0.22916666666666666
            },
            {
              "pitch": 64,
              "velocity": 79,
              "position": 2,
              "duration": 0.22916666666666666
            },
            {
              "pitch": 67,
              "velocity": 77,
              "position": 2,
              "duration": 0.22916666666666666
            },
            {
              "pitch": 59,
              "velocity": 83,
              "position": 2.5,
              "duration": 0.21875
            },
            {
              "pitch": 64,
              "velocity": 76,
              "position": 2.5,
              "duration": 0.21875
            },
            {
              "pitch": 67,
              "velocity": 80,
              "position": 2.5,
              "duration": 0.21875
            },
            {
              "pitch": 64,
              "velocity": 82,
              "position": 3,
              "duration": 0.21875
            },
            {
              "pitch": 59,
              "velocity": 84,
              "position": 3,
              "duration": 0.22916666666666666
            },
            {
              "pitch": 67,
              "velocity": 75,
              "position": 3,
              "duration": 0.22916666666666666
            },
            {
              "pitch": 59,
              "velocity": 81,
              "position": 3.5,
              "duration": 0.21875
            },
            {
              "pitch": 64,
              "velocity": 83,
              "position": 3.5,
              "duration": 0.21875
            },
            {
              "pitch": 67,
              "velocity": 81,
              "position": 3.5,
              "duration": 0.21875
            },
            {
              "pitch": 64,
              "velocity": 84,
              "position": 4,
              "duration": 0.21875
            },
            {
              "pitch": 59,
              "velocity": 84,
              "position": 4,
              "duration": 0.22916666666666666
            },
            {
              "pitch": 67,
              "velocity": 81,
              "position": 4,
              "duration": 0.22916666666666666
            },
            {
              "pitch": 59,
              "velocity": 81,
              "position": 4.354166666666667,
              "duration": 0.16666666666666666
            },
            {
              "pitch": 64,
              "velocity": 84,
              "position": 4.354166666666667,
              "duration": 0.16666666666666666
            },
            {
              "pitch": 67,
              "velocity": 82,
              "position": 4.354166666666667,
              "duration": 0.16666666666666666
            },
            {
              "pitch": 59,
              "velocity": 84,
              "position": 5.5,
              "duration": 0.21875
            },
            {
              "pitch": 67,
              "velocity": 84,
              "position": 5.5,
              "duration": 0.21875
            },
            {
              "pitch": 64,
              "velocity": 82,
              "position": 5.5,
              "duration": 0.22916666666666666
            },
            {
              "pitch": 59,
              "velocity": 81,
              "position": 5.854166666666667,
              "duration": 0.16666666666666666
            },
            {
              "pitch": 64,
              "velocity": 79,
              "position": 5.854166666666667,
              "duration": 0.16666666666666666
            },
            {
              "pitch": 67,
              "velocity": 77,
              "position": 5.854166666666667,
              "duration": 0.16666666666666666
            }
          ]
        },
        "13": {
          "ctab": {
            "srcChannel": 13,
            "name": "Strings",
            "accType": "PAD",
            "editable": false,
            "mutedNotes": [],
            "mutedChords": [],
            "autoStart": false,
            "sourceChordNote": 0,
            "sourceChordType": "Maj7",
            "ctb2Low": null,
            "ctb2Main": {
              "ntr": "ROOT_FIXED",
              "ntt": "CHORD",
              "bassOn": false,
              "chordRootUpperLimit": 7,
              "noteLowLimit": 0,
              "noteHighLimit": 127,
              "rtr": "PITCH_SHIFT"
            },
            "ctb2High": null
          },
          "notes": [
            {
              "pitch": 55,
              "velocity": 85,
              "position": 1,
              "duration": 1.9895833333333333
            },
            {
              "pitch": 48,
              "velocity": 83,
              "position": 0,
              "duration": 3.9895833333333335
            },
            {
              "pitch": 67,
              "velocity": 88,
              "position": 3,
              "duration": 0.9895833333333334
            },
            {
              "pitch": 64,
              "velocity": 85,
              "position": 2,
              "duration": 1.9895833333333333
            },
            {
              "pitch": 59,
              "velocity": 95,
              "position": 4,
              "duration": 0.3541666666666667
            },
            {
              "pitch": 64,
              "velocity": 95,
              "position": 4,
              "duration": 0.3541666666666667
            },
            {
              "pitch": 67,
              "velocity": 95,
              "position": 4,
              "duration": 0.3541666666666667
            },
            {
              "pitch": 59,
              "velocity": 95,
              "position": 5.5,
              "duration": 0.3541666666666667
            },
            {
              "pitch": 64,
              "velocity": 95,
              "position": 5.5,
              "duration": 0.3541666666666667
            },
            {
              "pitch": 67,
              "velocity": 95,
              "position": 5.5,
              "duration": 0.3541666666666667
            }
          ]
        },
        "14": {
          "ctab": {
            "srcChannel": 14,
            "name": "Brass",
            "accType": "PHRASE1",
            "editable": false,
            "mutedNotes": [],
            "mutedChords": [],
            "autoStart": false,
            "sourceChordNote": 0,
            "sourceChordType": "Maj7",
            "ctb2Low": null,
            "ctb2Main": {
              "ntr": "ROOT_TRANSPOSITION",
              "ntt": "MELODY",
              "bassOn": false,
              "chordRootUpperLimit": 6,
              "noteLowLimit": 0,
              "noteHighLimit": 127,
              "rtr": "PITCH_SHIFT"
            },
            "ctb2High": null
          },
          "notes": [
            {
              "pitch": 60,
              "velocity": 83,
              "position": 2.8020833333333335,
              "duration": 0.17708333333333334
            },
            {
              "pitch": 64,
              "velocity": 88,
              "position": 3,
              "duration": 0.3229166666666667
            },
            {
              "pitch": 60,
              "velocity": 74,
              "position": 3.3020833333333335,
              "duration": 0.17708333333333334
            },
            {
              "pitch": 64,
              "velocity": 90,
              "position": 3.5,
              "duration": 0.3229166666666667
            },
            {
              "pitch": 67,
              "velocity": 98,
              "position": 3.8125,
              "duration": 0.14583333333333334
            },
            {
              "pitch": 72,
              "velocity": 110,
              "position": 4,
              "duration": 0.2604166666666667
            },
            {
              "pitch": 67,
              "velocity": 101,
              "position": 4,
              "duration": 0.2708333333333333
            },
            {
              "pitch": 72,
              "velocity": 104,
              "position": 4.3125,
              "duration": 0.17708333333333334
            },
            {
              "pitch": 67,
              "velocity": 99,
              "position": 4.3125,
              "duration": 0.1875
            },
            {
              "pitch": 72,
              "velocity": 110,
              "position": 5.5,
              "duration": 0.2604166666666667
            },
            {
              "pitch": 67,
              "velocity": 103,
              "position": 5.5,
              "duration": 0.2708333333333333
            },
            {
              "pitch": 72,
              "velocity": 101,
              "position": 5.8125,
              "duration": 0.17708333333333334
            },
            {
              "pitch": 67,
              "velocity": 98,
              "position": 5.8125,
              "duration": 0.1875
            }
          ]
        }
      }
    },
    "Ending_B": {
      "type": "Ending_B",
      "sizeInBeats": 12,
      "channels": {
        "1": {
          "ctab": {
            "srcChannel": 1,
            "name": "CC_Crash",
            "accType": "SUBRHYTHM",
            "editable": false,
            "mutedNotes": [],
            "mutedChords": [
              "1+2+5",
              "sus4",
              "1+5",
              "1+8",
              "7aug",
              "Maj7aug",
              "7(#9)",
              "7(b13)",
              "7(b9)",
              "7(13)",
              "7#11",
              "7(9)",
              "7b5",
              "7sus4",
              "7th",
              "dim7",
              "dim",
              "minMaj7(9)",
              "minMaj7",
              "min7(11)",
              "min7(9)",
              "min(9)",
              "m7b5",
              "min7",
              "min6",
              "min",
              "aug",
              "Maj6(9)",
              "Maj7(9)",
              "Maj(9)",
              "Maj7#11",
              "Maj7",
              "Maj6",
              "Maj"
            ],
            "autoStart": true,
            "sourceChordNote": 0,
            "sourceChordType": "Maj",
            "ctb2Low": null,
            "ctb2Main": {
              "ntr": "ROOT_FIXED",
              "ntt": "BYPASS",
              "bassOn": false,
              "chordRootUpperLimit": 0,
              "noteLowLimit": 0,
              "noteHighLimit": 127,
              "rtr": "RETRIGGER"
            },
            "ctb2High": null
          },
          "notes": []
        },
        "4": {
          "ctab": {
            "srcChannel": 4,
            "name": "ElecPno",
            "accType": "CHORD1",
            "editable": true,
            "mutedNotes": [],
            "mutedChords": [
              "1+2+5",
              "sus4",
              "1+5",
              "1+8",
              "Maj7aug",
              "dim",
              "minMaj7(9)",
              "minMaj7",
              "min6",
              "min",
              "aug",
              "Maj7(9)",
              "Maj7#11",
              "Maj7",
              "Maj6",
              "Maj"
            ],
            "autoStart": false,
            "sourceChordNote": 0,
            "sourceChordType": "Maj7",
            "ctb2Low": null,
            "ctb2Main": {
              "ntr": "ROOT_TRANSPOSITION",
              "ntt": "CHORD",
              "bassOn": false,
              "chordRootUpperLimit": 10,
              "noteLowLimit": 0,
              "noteHighLimit": 127,
              "rtr": "PITCH_SHIFT"
            },
            "ctb2High": null
          },
          "notes": [
            {
              "pitch": 60,
              "velocity": 84,
              "position": 0,
              "duration": 0.21875
            },
            {
              "pitch": 60,
              "velocity": 84,
              "position": 0.5,
              "duration": 0.22916666666666666
            },
            {
              "pitch": 60,
              "velocity": 81,
              "position": 1,
              "duration": 0.21875
            },
            {
              "pitch": 60,
              "velocity": 82,
              "position": 1.5,
              "duration": 0.22916666666666666
            },
            {
              "pitch": 60,
              "velocity": 79,
              "position": 2,
              "duration": 0.22916666666666666
            },
            {
              "pitch": 60,
              "velocity": 76,
              "position": 2.5,
              "duration": 0.21875
            },
            {
              "pitch": 60,
              "velocity": 82,
              "position": 3,
              "duration": 0.21875
            },
            {
              "pitch": 60,
              "velocity": 83,
              "position": 3.5,
              "duration": 0.21875
            },
            {
              "pitch": 60,
              "velocity": 79,
              "position": 4,
              "duration": 0.21875
            },
            {
              "pitch": 60,
              "velocity": 79,
              "position": 4.5,
              "duration": 0.22916666666666666
            },
            {
              "pitch": 60,
              "velocity": 81,
              "position": 5,
              "duration": 0.22916666666666666
            },
            {
              "pitch": 60,
              "velocity": 76,
              "position": 5.5,
              "duration": 0.21875
            },
            {
              "pitch": 60,
              "velocity": 76,
              "position": 6,
              "duration": 0.22916666666666666
            },
            {
              "pitch": 60,
              "velocity": 75,
              "position": 6.5,
              "duration": 0.22916666666666666
            },
            {
              "pitch": 60,
              "velocity": 77,
              "position": 7,
              "duration": 0.21875
            },
            {
              "pitch": 60,
              "velocity": 81,
              "position": 7.5,
              "duration": 0.22916666666666666
            },
            {
              "pitch": 60,
              "velocity": 79,
              "position": 8,
              "duration": 3.9791666666666665
            }
          ]
        },
        "5": {
          "ctab": {
            "srcChannel": 5,
            "name": "Strings",
            "accType": "PAD",
            "editable": false,
            "mutedNotes": [],
            "mutedChords": [
              "1+2+5",
              "sus4",
              "1+5",
              "1+8",
              "Maj7aug",
              "dim",
              "minMaj7(9)",
              "minMaj7",
              "min6",
              "min",
              "aug",
              "Maj7(9)",
              "Maj7#11",
              "Maj7",
              "Maj6",
              "Maj"
            ],
            "autoStart": false,
            "sourceChordNote": 0,
            "sourceChordType": "Maj7",
            "ctb2Low": null,
            "ctb2Main": {
              "ntr": "ROOT_TRANSPOSITION",
              "ntt": "CHORD",
              "bassOn": false,
              "chordRootUpperLimit": 6,
              "noteLowLimit": 0,
              "noteHighLimit": 70,
              "rtr": "PITCH_SHIFT"
            },
            "ctb2High": null
          },
          "notes": [
            {
              "pitch": 72,
              "velocity": 77,
              "position": 0,
              "duration": 3.9895833333333335
            },
            {
              "pitch": 72,
              "velocity": 77,
              "position": 4,
              "duration": 3.9895833333333335
            },
            {
              "pitch": 72,
              "velocity": 82,
              "position": 8,
              "duration": 3.9895833333333335
            }
          ]
        },
        "8": {
          "ctab": {
            "srcChannel": 8,
            "name": "Perc",
            "accType": "SUBRHYTHM",
            "editable": false,
            "mutedNotes": [],
            "mutedChords": [],
            "autoStart": true,
            "sourceChordNote": 0,
            "sourceChordType": "Maj7",
            "ctb2Low": null,
            "ctb2Main": {
              "ntr": "ROOT_FIXED",
              "ntt": "BYPASS",
              "bassOn": false,
              "chordRootUpperLimit": 6,
              "noteLowLimit": 0,
              "noteHighLimit": 127,
              "rtr": "PITCH_SHIFT"
            },
            "ctb2High": null
          },
          "notes": [
            {
              "pitch": 80,
              "velocity": 35,
              "position": 0,
              "duration": 0.020833333333333332
            },
            {
              "pitch": 54,
              "velocity": 36,
              "position": 0,
              "duration": 0.10416666666666667
            },
            {
              "pitch": 54,
              "velocity": 23,
              "position": 0.3229166666666667,
              "duration": 0.10416666666666667
            },
            {
              "pitch": 54,
              "velocity": 44,
              "position": 0.5,
              "duration": 0.10416666666666667
            },
            {
              "pitch": 54,
              "velocity": 32,
              "position": 0.8229166666666666,
              "duration": 0.10416666666666667
            },
            {
              "pitch": 55,
              "velocity": 51,
              "position": 1,
              "duration": 0.010416666666666666
            },
            {
              "pitch": 39,
              "velocity": 66,
              "position": 1,
              "duration": 0.10416666666666667
            },
            {
              "pitch": 54,
              "velocity": 35,
              "position": 1,
              "duration": 0.10416666666666667
            },
            {
              "pitch": 54,
              "velocity": 20,
              "position": 1.3229166666666667,
              "duration": 0.10416666666666667
            },
            {
              "pitch": 54,
              "velocity": 43,
              "position": 1.5,
              "duration": 0.10416666666666667
            },
            {
              "pitch": 54,
              "velocity": 34,
              "position": 1.8229166666666667,
              "duration": 0.10416666666666667
            },
            {
              "pitch": 54,
              "velocity": 35,
              "position": 2,
              "duration": 0.10416666666666667
            },
            {
              "pitch": 54,
              "velocity": 20,
              "position": 2.3229166666666665,
              "duration": 0.10416666666666667
            },
            {
              "pitch": 54,
              "velocity": 43,
              "position": 2.5,
              "duration": 0.10416666666666667
            },
            {
              "pitch": 54,
              "velocity": 31,
              "position": 2.8229166666666665,
              "duration": 0.10416666666666667
            },
            {
              "pitch": 80,
              "velocity": 35,
              "position": 3,
              "duration": 0.020833333333333332
            },
            {
              "pitch": 39,
              "velocity": 60,
              "position": 3,
              "duration": 0.10416666666666667
            },
            {
              "pitch": 54,
              "velocity": 35,
              "position": 3,
              "duration": 0.10416666666666667
            },
            {
              "pitch": 80,
              "velocity": 35,
              "position": 3.3229166666666665,
              "duration": 0.020833333333333332
            },
            {
              "pitch": 54,
              "velocity": 19,
              "position": 3.3229166666666665,
              "duration": 0.10416666666666667
            },
            {
              "pitch": 54,
              "velocity": 43,
              "position": 3.5,
              "duration": 0.10416666666666667
            },
            {
              "pitch": 81,
              "velocity": 36,
              "position": 3.5,
              "duration": 0.10416666666666667
            },
            {
              "pitch": 54,
              "velocity": 31,
              "position": 3.8229166666666665,
              "duration": 0.10416666666666667
            },
            {
              "pitch": 55,
              "velocity": 51,
              "position": 4,
              "duration": 0.010416666666666666
            },
            {
              "pitch": 80,
              "velocity": 35,
              "position": 4,
              "duration": 0.020833333333333332
            },
            {
              "pitch": 54,
              "velocity": 36,
              "position": 4,
              "duration": 0.10416666666666667
            },
            {
              "pitch": 54,
              "velocity": 23,
              "position": 4.322916666666667,
              "duration": 0.10416666666666667
            },
            {
              "pitch": 54,
              "velocity": 44,
              "position": 4.5,
              "duration": 0.10416666666666667
            },
            {
              "pitch": 54,
              "velocity": 32,
              "position": 4.822916666666667,
              "duration": 0.10416666666666667
            },
            {
              "pitch": 57,
              "velocity": 51,
              "position": 5,
              "duration": 0.010416666666666666
            },
            {
              "pitch": 39,
              "velocity": 65,
              "position": 5,
              "duration": 0.10416666666666667
            },
            {
              "pitch": 54,
              "velocity": 35,
              "position": 5,
              "duration": 0.10416666666666667
            },
            {
              "pitch": 54,
              "velocity": 20,
              "position": 5.322916666666667,
              "duration": 0.10416666666666667
            },
            {
              "pitch": 54,
              "velocity": 43,
              "position": 5.5,
              "duration": 0.10416666666666667
            },
            {
              "pitch": 54,
              "velocity": 34,
              "position": 5.822916666666667,
              "duration": 0.10416666666666667
            },
            {
              "pitch": 81,
              "velocity": 33,
              "position": 5.822916666666667,
              "duration": 0.10416666666666667
            },
            {
              "pitch": 80,
              "velocity": 35,
              "position": 6,
              "duration": 0.020833333333333332
            },
            {
              "pitch": 54,
              "velocity": 35,
              "position": 6,
              "duration": 0.10416666666666667
            },
            {
              "pitch": 80,
              "velocity": 35,
              "position": 6.322916666666667,
              "duration": 0.020833333333333332
            },
            {
              "pitch": 54,
              "velocity": 20,
              "position": 6.322916666666667,
              "duration": 0.10416666666666667
            },
            {
              "pitch": 39,
              "velocity": 64,
              "position": 6.5,
              "duration": 0.10416666666666667
            },
            {
              "pitch": 54,
              "velocity": 43,
              "position": 6.5,
              "duration": 0.10416666666666667
            },
            {
              "pitch": 81,
              "velocity": 36,
              "position": 6.5,
              "duration": 0.10416666666666667
            },
            {
              "pitch": 54,
              "velocity": 31,
              "position": 6.822916666666667,
              "duration": 0.10416666666666667
            },
            {
              "pitch": 52,
              "velocity": 52,
              "position": 7,
              "duration": 0.010416666666666666
            },
            {
              "pitch": 80,
              "velocity": 35,
              "position": 7,
              "duration": 0.020833333333333332
            },
            {
              "pitch": 39,
              "velocity": 64,
              "position": 7,
              "duration": 0.10416666666666667
            },
            {
              "pitch": 54,
              "velocity": 35,
              "position": 7,
              "duration": 0.10416666666666667
            },
            {
              "pitch": 55,
              "velocity": 51,
              "position": 7.322916666666667,
              "duration": 0.010416666666666666
            },
            {
              "pitch": 80,
              "velocity": 35,
              "position": 7.322916666666667,
              "duration": 0.020833333333333332
            },
            {
              "pitch": 54,
              "velocity": 19,
              "position": 7.322916666666667,
              "duration": 0.10416666666666667
            },
            {
              "pitch": 54,
              "velocity": 43,
              "position": 7.5,
              "duration": 0.10416666666666667
            },
            {
              "pitch": 81,
              "velocity": 36,
              "position": 7.5,
              "duration": 0.10416666666666667
            },
            {
              "pitch": 54,
              "velocity": 31,
              "position": 7.822916666666667,
              "duration": 0.10416666666666667
            },
            {
              "pitch": 57,
              "velocity": 51,
              "position": 7.989583333333333,
              "duration": 0.010416666666666666
            }
          ]
        },
        "9": {
          "ctab": {
            "srcChannel": 9,
            "name": "Drum",
            "accType": "RHYTHM",
            "editable": false,
            "mutedNotes": [],
            "mutedChords": [],
            "autoStart": true,
            "sourceChordNote": 0,
            "sourceChordType": "Maj7",
            "ctb2Low": null,
            "ctb2Main": {
              "ntr": "ROOT_FIXED",
              "ntt": "BYPASS",
              "bassOn": false,
              "chordRootUpperLimit": 6,
              "noteLowLimit": 0,
              "noteHighLimit": 127,
              "rtr": "PITCH_SHIFT"
            },
            "ctb2High": null
          },
          "notes": [
            {
              "pitch": 36,
              "velocity": 88,
              "position": 0,
              "duration": 0.10416666666666667
            },
            {
              "pitch": 42,
              "velocity": 87,
              "position": 0,
              "duration": 0.10416666666666667
            },
            {
              "pitch": 34,
              "velocity": 64,
              "position": 0.5,
              "duration": 0.10416666666666667
            },
            {
              "pitch": 46,
              "velocity": 54,
              "position": 0.5,
              "duration": 0.10416666666666667
            },
            {
              "pitch": 34,
              "velocity": 64,
              "position": 1,
              "duration": 0.10416666666666667
            },
            {
              "pitch": 42,
              "velocity": 89,
              "position": 1,
              "duration": 0.10416666666666667
            },
            {
              "pitch": 36,
              "velocity": 84,
              "position": 1.5,
              "duration": 0.10416666666666667
            },
            {
              "pitch": 46,
              "velocity": 54,
              "position": 1.5,
              "duration": 0.10416666666666667
            },
            {
              "pitch": 36,
              "velocity": 73,
              "position": 1.8229166666666667,
              "duration": 0.10416666666666667
            },
            {
              "pitch": 34,
              "velocity": 64,
              "position": 2,
              "duration": 0.10416666666666667
            },
            {
              "pitch": 42,
              "velocity": 86,
              "position": 2,
              "duration": 0.10416666666666667
            },
            {
              "pitch": 34,
              "velocity": 64,
              "position": 2.3229166666666665,
              "duration": 0.10416666666666667
            },
            {
              "pitch": 36,
              "velocity": 88,
              "position": 2.5,
              "duration": 0.10416666666666667
            },
            {
              "pitch": 46,
              "velocity": 54,
              "position": 2.5,
              "duration": 0.10416666666666667
            },
            {
              "pitch": 34,
              "velocity": 64,
              "position": 3,
              "duration": 0.10416666666666667
            },
            {
              "pitch": 42,
              "velocity": 83,
              "position": 3,
              "duration": 0.10416666666666667
            },
            {
              "pitch": 36,
              "velocity": 84,
              "position": 3.5,
              "duration": 0.10416666666666667
            },
            {
              "pitch": 46,
              "velocity": 54,
              "position": 3.5,
              "duration": 0.10416666666666667
            },
            {
              "pitch": 34,
              "velocity": 18,
              "position": 3.75,
              "duration": 0.10416666666666667
            },
            {
              "pitch": 36,
              "velocity": 47,
              "position": 3.8229166666666665,
              "duration": 0.10416666666666667
            },
            {
              "pitch": 34,
              "velocity": 48,
              "position": 3.875,
              "duration": 0.10416666666666667
            },
            {
              "pitch": 34,
              "velocity": 64,
              "position": 4,
              "duration": 0.10416666666666667
            },
            {
              "pitch": 36,
              "velocity": 88,
              "position": 4,
              "duration": 0.10416666666666667
            },
            {
              "pitch": 42,
              "velocity": 88,
              "position": 4,
              "duration": 0.10416666666666667
            },
            {
              "pitch": 34,
              "velocity": 64,
              "position": 4.5,
              "duration": 0.10416666666666667
            },
            {
              "pitch": 46,
              "velocity": 54,
              "position": 4.5,
              "duration": 0.10416666666666667
            },
            {
              "pitch": 36,
              "velocity": 61,
              "position": 4.822916666666667,
              "duration": 0.10416666666666667
            },
            {
              "pitch": 34,
              "velocity": 64,
              "position": 5,
              "duration": 0.10416666666666667
            },
            {
              "pitch": 42,
              "velocity": 88,
              "position": 5,
              "duration": 0.10416666666666667
            },
            {
              "pitch": 34,
              "velocity": 64,
              "position": 5.5,
              "duration": 0.10416666666666667
            },
            {
              "pitch": 46,
              "velocity": 54,
              "position": 5.5,
              "duration": 0.10416666666666667
            },
            {
              "pitch": 34,
              "velocity": 18,
              "position": 5.75,
              "duration": 0.10416666666666667
            },
            {
              "pitch": 36,
              "velocity": 73,
              "position": 5.822916666666667,
              "duration": 0.10416666666666667
            },
            {
              "pitch": 34,
              "velocity": 48,
              "position": 5.875,
              "duration": 0.10416666666666667
            },
            {
              "pitch": 34,
              "velocity": 64,
              "position": 6,
              "duration": 0.10416666666666667
            },
            {
              "pitch": 42,
              "velocity": 73,
              "position": 6,
              "duration": 0.10416666666666667
            },
            {
              "pitch": 42,
              "velocity": 33,
              "position": 6.3125,
              "duration": 0.10416666666666667
            },
            {
              "pitch": 34,
              "velocity": 64,
              "position": 6.5,
              "duration": 0.10416666666666667
            },
            {
              "pitch": 36,
              "velocity": 88,
              "position": 6.5,
              "duration": 0.10416666666666667
            },
            {
              "pitch": 46,
              "velocity": 54,
              "position": 6.5,
              "duration": 0.10416666666666667
            },
            {
              "pitch": 34,
              "velocity": 64,
              "position": 7,
              "duration": 0.10416666666666667
            },
            {
              "pitch": 42,
              "velocity": 88,
              "position": 7,
              "duration": 0.10416666666666667
            },
            {
              "pitch": 36,
              "velocity": 61,
              "position": 7.322916666666667,
              "duration": 0.10416666666666667
            },
            {
              "pitch": 34,
              "velocity": 71,
              "position": 7.5,
              "duration": 0.10416666666666667
            },
            {
              "pitch": 42,
              "velocity": 95,
              "position": 7.5,
              "duration": 0.10416666666666667
            },
            {
              "pitch": 46,
              "velocity": 54,
              "position": 7.5,
              "duration": 0.10416666666666667
            },
            {
              "pitch": 42,
              "velocity": 33,
              "position": 7.8125,
              "duration": 0.10416666666666667
            },
            {
              "pitch": 34,
              "velocity": 64,
              "position": 7.822916666666667,
              "duration": 0.10416666666666667
            },
            {
              "pitch": 36,
              "velocity": 88,
              "position": 8,
              "duration": 0.10416666666666667
            }
          ]
        },
        "10": {
          "ctab": {
            "srcChannel": 10,
            "name": "SynBass",
            "accType": "BASS",
            "editable": false,
            "mutedNotes": [],
            "mutedChords": [],
            "autoStart": false,
            "sourceChordNote": 0,
            "sourceChordType": "Maj7",
            "ctb2Low": null,
            "ctb2Main": {
              "ntr": "ROOT_TRANSPOSITION",
              "ntt": "MELODY",
              "bassOn": true,
              "chordRootUpperLimit": 5,
              "noteLowLimit": 28,
              "noteHighLimit": 49,
              "rtr": "PITCH_SHIFT_TO_ROOT"
            },
            "ctb2High": null
          },
          "notes": [
            {
              "pitch": 24,
              "velocity": 100,
              "position": 0,
              "duration": 0.4166666666666667
            },
            {
              "pitch": 35,
              "velocity": 100,
              "position": 0.5,
              "duration": 0.4895833333333333
            },
            {
              "pitch": 24,
              "velocity": 100,
              "position": 1,
              "duration": 0.4166666666666667
            },
            {
              "pitch": 35,
              "velocity": 100,
              "position": 1.8229166666666667,
              "duration": 0.13541666666666666
            },
            {
              "pitch": 24,
              "velocity": 100,
              "position": 2,
              "duration": 0.3229166666666667
            },
            {
              "pitch": 35,
              "velocity": 100,
              "position": 2.3229166666666665,
              "duration": 0.13541666666666666
            },
            {
              "pitch": 24,
              "velocity": 100,
              "position": 2.5,
              "duration": 0.4479166666666667
            },
            {
              "pitch": 35,
              "velocity": 100,
              "position": 3.5,
              "duration": 0.3125
            },
            {
              "pitch": 31,
              "velocity": 100,
              "position": 3.8125,
              "duration": 0.16666666666666666
            },
            {
              "pitch": 24,
              "velocity": 100,
              "position": 4,
              "duration": 0.22916666666666666
            },
            {
              "pitch": 24,
              "velocity": 100,
              "position": 4.5,
              "duration": 0.22916666666666666
            },
            {
              "pitch": 24,
              "velocity": 100,
              "position": 5,
              "duration": 0.25
            },
            {
              "pitch": 24,
              "velocity": 100,
              "position": 5.5,
              "duration": 0.23958333333333334
            },
            {
              "pitch": 31,
              "velocity": 100,
              "position": 5.822916666666667,
              "duration": 0.13541666666666666
            },
            {
              "pitch": 43,
              "velocity": 100,
              "position": 6,
              "duration": 0.28125
            },
            {
              "pitch": 24,
              "velocity": 100,
              "position": 6.322916666666667,
              "duration": 0.13541666666666666
            },
            {
              "pitch": 40,
              "velocity": 100,
              "position": 6.5,
              "duration": 0.28125
            },
            {
              "pitch": 24,
              "velocity": 100,
              "position": 7,
              "duration": 0.3125
            },
            {
              "pitch": 40,
              "velocity": 100,
              "position": 7.333333333333333,
              "duration": 0.22916666666666666
            },
            {
              "pitch": 31,
              "velocity": 100,
              "position": 7.5,
              "duration": 0.4895833333333333
            },
            {
              "pitch": 24,
              "velocity": 100,
              "position": 8,
              "duration": 3.9895833333333335
            }
          ]
        },
        "11": {
          "ctab": {
            "srcChannel": 11,
            "name": "Clavi",
            "accType": "CHORD2",
            "editable": false,
            "mutedNotes": [],
            "mutedChords": [],
            "autoStart": false,
            "sourceChordNote": 0,
            "sourceChordType": "Maj7",
            "ctb2Low": null,
            "ctb2Main": {
              "ntr": "ROOT_TRANSPOSITION",
              "ntt": "CHORD",
              "bassOn": false,
              "chordRootUpperLimit": 10,
              "noteLowLimit": 0,
              "noteHighLimit": 127,
              "rtr": "PITCH_SHIFT"
            },
            "ctb2High": null
          },
          "notes": [
            {
              "pitch": 43,
              "velocity": 87,
              "position": 0,
              "duration": 0.5
            },
            {
              "pitch": 52,
              "velocity": 80,
              "position": 0.5,
              "duration": 0.2604166666666667
            },
            {
              "pitch": 47,
              "velocity": 83,
              "position": 0.5,
              "duration": 0.28125
            },
            {
              "pitch": 43,
              "velocity": 83,
              "position": 0.8125,
              "duration": 0.17708333333333334
            },
            {
              "pitch": 47,
              "velocity": 79,
              "position": 1,
              "duration": 0.17708333333333334
            },
            {
              "pitch": 52,
              "velocity": 83,
              "position": 1,
              "duration": 0.19791666666666666
            },
            {
              "pitch": 52,
              "velocity": 80,
              "position": 1.5,
              "duration": 0.2708333333333333
            },
            {
              "pitch": 47,
              "velocity": 79,
              "position": 1.5,
              "duration": 0.28125
            },
            {
              "pitch": 43,
              "velocity": 83,
              "position": 1.8125,
              "duration": 0.08333333333333333
            },
            {
              "pitch": 48,
              "velocity": 92,
              "position": 2,
              "duration": 0.3541666666666667
            },
            {
              "pitch": 43,
              "velocity": 83,
              "position": 2.8125,
              "duration": 0.09375
            },
            {
              "pitch": 47,
              "velocity": 84,
              "position": 3,
              "duration": 0.28125
            },
            {
              "pitch": 43,
              "velocity": 83,
              "position": 3.3125,
              "duration": 0.09375
            },
            {
              "pitch": 47,
              "velocity": 83,
              "position": 3.5,
              "duration": 0.3020833333333333
            },
            {
              "pitch": 52,
              "velocity": 92,
              "position": 3.8125,
              "duration": 0.20833333333333334
            },
            {
              "pitch": 43,
              "velocity": 88,
              "position": 4,
              "duration": 0.4270833333333333
            },
            {
              "pitch": 52,
              "velocity": 84,
              "position": 4.5,
              "duration": 0.23958333333333334
            },
            {
              "pitch": 47,
              "velocity": 88,
              "position": 4.5,
              "duration": 0.2604166666666667
            },
            {
              "pitch": 43,
              "velocity": 84,
              "position": 4.8125,
              "duration": 0.16666666666666666
            },
            {
              "pitch": 47,
              "velocity": 79,
              "position": 5,
              "duration": 0.22916666666666666
            },
            {
              "pitch": 52,
              "velocity": 80,
              "position": 5,
              "duration": 0.22916666666666666
            },
            {
              "pitch": 47,
              "velocity": 76,
              "position": 5.5,
              "duration": 0.23958333333333334
            },
            {
              "pitch": 52,
              "velocity": 74,
              "position": 5.5,
              "duration": 0.23958333333333334
            },
            {
              "pitch": 43,
              "velocity": 83,
              "position": 5.8125,
              "duration": 0.08333333333333333
            },
            {
              "pitch": 47,
              "velocity": 76,
              "position": 6,
              "duration": 0.23958333333333334
            },
            {
              "pitch": 52,
              "velocity": 74,
              "position": 6,
              "duration": 0.23958333333333334
            },
            {
              "pitch": 43,
              "velocity": 83,
              "position": 6.3125,
              "duration": 0.08333333333333333
            },
            {
              "pitch": 47,
              "velocity": 76,
              "position": 6.5,
              "duration": 0.23958333333333334
            },
            {
              "pitch": 52,
              "velocity": 74,
              "position": 6.5,
              "duration": 0.23958333333333334
            },
            {
              "pitch": 43,
              "velocity": 83,
              "position": 6.8125,
              "duration": 0.09375
            },
            {
              "pitch": 47,
              "velocity": 84,
              "position": 7,
              "duration": 0.28125
            },
            {
              "pitch": 48,
              "velocity": 87,
              "position": 7.3125,
              "duration": 0.1875
            },
            {
              "pitch": 43,
              "velocity": 83,
              "position": 7.5,
              "duration": 0.09375
            },
            {
              "pitch": 52,
              "velocity": 92,
              "position": 7.8125,
              "duration": 0.19791666666666666
            },
            {
              "pitch": 43,
              "velocity": 75,
              "position": 8,
              "duration": 3.9895833333333335
            }
          ]
        },
        "12": {
          "ctab": {
            "srcChannel": 12,
            "name": "ElecPno",
            "accType": "CHORD1",
            "editable": false,
            "mutedNotes": [],
            "mutedChords": [],
            "autoStart": false,
            "sourceChordNote": 0,
            "sourceChordType": "Maj7",
            "ctb2Low": null,
            "ctb2Main": {
              "ntr": "ROOT_FIXED",
              "ntt": "CHORD",
              "bassOn": false,
              "chordRootUpperLimit": 7,
              "noteLowLimit": 0,
              "noteHighLimit": 127,
              "rtr": "PITCH_SHIFT"
            },
            "ctb2High": null
          },
          "notes": [
            {
              "pitch": 64,
              "velocity": 84,
              "position": 0,
              "duration": 0.21875
            },
            {
              "pitch": 59,
              "velocity": 84,
              "position": 0,
              "duration": 0.22916666666666666
            },
            {
              "pitch": 67,
              "velocity": 81,
              "position": 0,
              "duration": 0.22916666666666666
            },
            {
              "pitch": 59,
              "velocity": 81,
              "position": 0.5,
              "duration": 0.22916666666666666
            },
            {
              "pitch": 64,
              "velocity": 84,
              "position": 0.5,
              "duration": 0.22916666666666666
            },
            {
              "pitch": 67,
              "velocity": 82,
              "position": 0.5,
              "duration": 0.22916666666666666
            },
            {
              "pitch": 59,
              "velocity": 85,
              "position": 1,
              "duration": 0.21875
            },
            {
              "pitch": 64,
              "velocity": 81,
              "position": 1,
              "duration": 0.21875
            },
            {
              "pitch": 67,
              "velocity": 83,
              "position": 1,
              "duration": 0.21875
            },
            {
              "pitch": 59,
              "velocity": 84,
              "position": 1.5,
              "duration": 0.21875
            },
            {
              "pitch": 67,
              "velocity": 84,
              "position": 1.5,
              "duration": 0.21875
            },
            {
              "pitch": 64,
              "velocity": 82,
              "position": 1.5,
              "duration": 0.22916666666666666
            },
            {
              "pitch": 59,
              "velocity": 81,
              "position": 2,
              "duration": 0.22916666666666666
            },
            {
              "pitch": 64,
              "velocity": 79,
              "position": 2,
              "duration": 0.22916666666666666
            },
            {
              "pitch": 67,
              "velocity": 77,
              "position": 2,
              "duration": 0.22916666666666666
            },
            {
              "pitch": 59,
              "velocity": 83,
              "position": 2.5,
              "duration": 0.21875
            },
            {
              "pitch": 64,
              "velocity": 76,
              "position": 2.5,
              "duration": 0.21875
            },
            {
              "pitch": 67,
              "velocity": 80,
              "position": 2.5,
              "duration": 0.21875
            },
            {
              "pitch": 64,
              "velocity": 82,
              "position": 3,
              "duration": 0.21875
            },
            {
              "pitch": 59,
              "velocity": 84,
              "position": 3,
              "duration": 0.22916666666666666
            },
            {
              "pitch": 67,
              "velocity": 75,
              "position": 3,
              "duration": 0.22916666666666666
            },
            {
              "pitch": 59,
              "velocity": 81,
              "position": 3.5,
              "duration": 0.21875
            },
            {
              "pitch": 64,
              "velocity": 83,
              "position": 3.5,
              "duration": 0.21875
            },
            {
              "pitch": 67,
              "velocity": 81,
              "position": 3.5,
              "duration": 0.21875
            },
            {
              "pitch": 64,
              "velocity": 79,
              "position": 4,
              "duration": 0.21875
            },
            {
              "pitch": 59,
              "velocity": 81,
              "position": 4,
              "duration": 0.22916666666666666
            },
            {
              "pitch": 67,
              "velocity": 82,
              "position": 4,
              "duration": 0.22916666666666666
            },
            {
              "pitch": 59,
              "velocity": 81,
              "position": 4.5,
              "duration": 0.21875
            },
            {
              "pitch": 67,
              "velocity": 77,
              "position": 4.5,
              "duration": 0.21875
            },
            {
              "pitch": 64,
              "velocity": 79,
              "position": 4.5,
              "duration": 0.22916666666666666
            },
            {
              "pitch": 59,
              "velocity": 75,
              "position": 5,
              "duration": 0.22916666666666666
            },
            {
              "pitch": 64,
              "velocity": 81,
              "position": 5,
              "duration": 0.22916666666666666
            },
            {
              "pitch": 67,
              "velocity": 80,
              "position": 5,
              "duration": 0.22916666666666666
            },
            {
              "pitch": 64,
              "velocity": 76,
              "position": 5.5,
              "duration": 0.21875
            },
            {
              "pitch": 59,
              "velocity": 83,
              "position": 5.5,
              "duration": 0.22916666666666666
            },
            {
              "pitch": 67,
              "velocity": 83,
              "position": 5.5,
              "duration": 0.22916666666666666
            },
            {
              "pitch": 67,
              "velocity": 82,
              "position": 6,
              "duration": 0.21875
            },
            {
              "pitch": 59,
              "velocity": 80,
              "position": 6,
              "duration": 0.22916666666666666
            },
            {
              "pitch": 64,
              "velocity": 76,
              "position": 6,
              "duration": 0.22916666666666666
            },
            {
              "pitch": 67,
              "velocity": 82,
              "position": 6.5,
              "duration": 0.21875
            },
            {
              "pitch": 59,
              "velocity": 82,
              "position": 6.5,
              "duration": 0.22916666666666666
            },
            {
              "pitch": 64,
              "velocity": 75,
              "position": 6.5,
              "duration": 0.22916666666666666
            },
            {
              "pitch": 59,
              "velocity": 83,
              "position": 7,
              "duration": 0.21875
            },
            {
              "pitch": 64,
              "velocity": 77,
              "position": 7,
              "duration": 0.21875
            },
            {
              "pitch": 67,
              "velocity": 80,
              "position": 7,
              "duration": 0.21875
            },
            {
              "pitch": 59,
              "velocity": 84,
              "position": 7.5,
              "duration": 0.22916666666666666
            },
            {
              "pitch": 64,
              "velocity": 81,
              "position": 7.5,
              "duration": 0.22916666666666666
            },
            {
              "pitch": 67,
              "velocity": 82,
              "position": 7.5,
              "duration": 0.22916666666666666
            },
            {
              "pitch": 59,
              "velocity": 81,
              "position": 8,
              "duration": 3.9791666666666665
            },
            {
              "pitch": 64,
              "velocity": 79,
              "position": 8,
              "duration": 3.9791666666666665
            },
            {
              "pitch": 67,
              "velocity": 82,
              "position": 8,
              "duration": 3.9791666666666665
            }
          ]
        },
        "13": {
          "ctab": {
            "srcChannel": 13,
            "name": "Strings",
            "accType": "PAD",
            "editable": false,
            "mutedNotes": [],
            "mutedChords": [],
            "autoStart": false,
            "sourceChordNote": 0,
            "sourceChordType": "Maj7",
            "ctb2Low": null,
            "ctb2Main": {
              "ntr": "ROOT_FIXED",
              "ntt": "CHORD",
              "bassOn": false,
              "chordRootUpperLimit": 7,
              "noteLowLimit": 0,
              "noteHighLimit": 127,
              "rtr": "PITCH_SHIFT"
            },
            "ctb2High": null
          },
          "notes": [
            {
              "pitch": 59,
              "velocity": 73,
              "position": 0,
              "duration": 3.9895833333333335
            },
            {
              "pitch": 64,
              "velocity": 73,
              "position": 0,
              "duration": 3.9895833333333335
            },
            {
              "pitch": 67,
              "velocity": 73,
              "position": 0,
              "duration": 3.9895833333333335
            },
            {
              "pitch": 59,
              "velocity": 73,
              "position": 4,
              "duration": 3.9895833333333335
            },
            {
              "pitch": 64,
              "velocity": 73,
              "position": 4,
              "duration": 3.9895833333333335
            },
            {
              "pitch": 67,
              "velocity": 73,
              "position": 4,
              "duration": 3.9895833333333335
            },
            {
              "pitch": 59,
              "velocity": 77,
              "position": 8,
              "duration": 3.9895833333333335
            },
            {
              "pitch": 64,
              "velocity": 77,
              "position": 8,
              "duration": 3.9895833333333335
            },
            {
              "pitch": 67,
              "velocity": 77,
              "position": 8,
              "duration": 3.9895833333333335
            }
          ]
        },
        "14": {
          "ctab": {
            "srcChannel": 14,
            "name": "Brass",
            "accType": "PHRASE1",
            "editable": false,
            "mutedNotes": [],
            "mutedChords": [],
            "autoStart": false,
            "sourceChordNote": 0,
            "sourceChordType": "Maj7",
            "ctb2Low": null,
            "ctb2Main": {
              "ntr": "ROOT_TRANSPOSITION",
              "ntt": "MELODY",
              "bassOn": false,
              "chordRootUpperLimit": 6,
              "noteLowLimit": 0,
              "noteHighLimit": 127,
              "rtr": "PITCH_SHIFT"
            },
            "ctb2High": null
          },
          "notes": [
            {
              "pitch": 67,
              "velocity": 116,
              "position": 0,
              "duration": 0.16666666666666666
            },
            {
              "pitch": 72,
              "velocity": 116,
              "position": 0,
              "duration": 0.16666666666666666
            },
            {
              "pitch": 71,
              "velocity": 114,
              "position": 0.5,
              "duration": 0.28125
            },
            {
              "pitch": 67,
              "velocity": 112,
              "position": 0.5,
              "duration": 0.4375
            },
            {
              "pitch": 72,
              "velocity": 110,
              "position": 0.7916666666666666,
              "duration": 0.14583333333333334
            },
            {
              "pitch": 64,
              "velocity": 112,
              "position": 2.5,
              "duration": 0.14583333333333334
            },
            {
              "pitch": 67,
              "velocity": 121,
              "position": 3,
              "duration": 0.4791666666666667
            },
            {
              "pitch": 71,
              "velocity": 109,
              "position": 3.5,
              "duration": 0.10416666666666667
            },
            {
              "pitch": 67,
              "velocity": 111,
              "position": 4,
              "duration": 0.125
            },
            {
              "pitch": 72,
              "velocity": 116,
              "position": 4,
              "duration": 0.13541666666666666
            },
            {
              "pitch": 67,
              "velocity": 111,
              "position": 4.5,
              "duration": 0.125
            },
            {
              "pitch": 72,
              "velocity": 116,
              "position": 4.5,
              "duration": 0.13541666666666666
            },
            {
              "pitch": 67,
              "velocity": 111,
              "position": 5,
              "duration": 0.125
            },
            {
              "pitch": 72,
              "velocity": 116,
              "position": 5,
              "duration": 0.13541666666666666
            },
            {
              "pitch": 67,
              "velocity": 111,
              "position": 5.5,
              "duration": 0.125
            },
            {
              "pitch": 72,
              "velocity": 116,
              "position": 5.5,
              "duration": 0.13541666666666666
            },
            {
              "pitch": 67,
              "velocity": 111,
              "position": 6,
              "duration": 0.125
            },
            {
              "pitch": 72,
              "velocity": 116,
              "position": 6,
              "duration": 0.13541666666666666
            },
            {
              "pitch": 67,
              "velocity": 111,
              "position": 6.5,
              "duration": 0.125
            },
            {
              "pitch": 72,
              "velocity": 116,
              "position": 6.5,
              "duration": 0.13541666666666666
            },
            {
              "pitch": 67,
              "velocity": 111,
              "position": 7,
              "duration": 0.125
            },
            {
              "pitch": 72,
              "velocity": 116,
              "position": 7,
              "duration": 0.13541666666666666
            },
            {
              "pitch": 67,
              "velocity": 111,
              "position": 7.5,
              "duration": 0.125
            },
            {
              "pitch": 72,
              "velocity": 116,
              "position": 7.5,
              "duration": 0.13541666666666666
            },
            {
              "pitch": 67,
              "velocity": 97,
              "position": 8,
              "duration": 3.65625
            },
            {
              "pitch": 72,
              "velocity": 102,
              "position": 8,
              "duration": 3.65625
            }
          ]
        }
      }
    },
    "Fill_In_BA": {
      "type": "Fill_In_BA",
      "sizeInBeats": 4,
      "channels": {
        "1": {
          "ctab": {
            "srcChannel": 1,
            "name": "CC_Crash",
            "accType": "SUBRHYTHM",
            "editable": false,
            "mutedNotes": [],
            "mutedChords": [
              "1+2+5",
              "sus4",
              "1+5",
              "1+8",
              "7aug",
              "Maj7aug",
              "7(#9)",
              "7(b13)",
              "7(b9)",
              "7(13)",
              "7#11",
              "7(9)",
              "7b5",
              "7sus4",
              "7th",
              "dim7",
              "dim",
              "minMaj7(9)",
              "minMaj7",
              "min7(11)",
              "min7(9)",
              "min(9)",
              "m7b5",
              "min7",
              "min6",
              "min",
              "aug",
              "Maj6(9)",
              "Maj7(9)",
              "Maj(9)",
              "Maj7#11",
              "Maj7",
              "Maj6",
              "Maj"
            ],
            "autoStart": true,
            "sourceChordNote": 0,
            "sourceChordType": "Maj",
            "ctb2Low": null,
            "ctb2Main": {
              "ntr": "ROOT_FIXED",
              "ntt": "BYPASS",
              "bassOn": false,
              "chordRootUpperLimit": 0,
              "noteLowLimit": 0,
              "noteHighLimit": 127,
              "rtr": "RETRIGGER"
            },
            "ctb2High": null
          },
          "notes": []
        },
        "4": {
          "ctab": {
            "srcChannel": 4,
            "name": "ElecPno",
            "accType": "CHORD1",
            "editable": true,
            "mutedNotes": [],
            "mutedChords": [
              "1+2+5",
              "sus4",
              "1+5",
              "1+8",
              "Maj7aug",
              "dim",
              "minMaj7(9)",
              "minMaj7",
              "min6",
              "min",
              "aug",
              "Maj7(9)",
              "Maj7#11",
              "Maj7",
              "Maj6",
              "Maj"
            ],
            "autoStart": false,
            "sourceChordNote": 0,
            "sourceChordType": "Maj7",
            "ctb2Low": null,
            "ctb2Main": {
              "ntr": "ROOT_TRANSPOSITION",
              "ntt": "CHORD",
              "bassOn": false,
              "chordRootUpperLimit": 10,
              "noteLowLimit": 0,
              "noteHighLimit": 127,
              "rtr": "PITCH_SHIFT"
            },
            "ctb2High": null
          },
          "notes": [
            {
              "pitch": 60,
              "velocity": 79,
              "position": 0,
              "duration": 0.21875
            }
          ]
        },
        "5": {
          "ctab": {
            "srcChannel": 5,
            "name": "Strings",
            "accType": "PAD",
            "editable": false,
            "mutedNotes": [],
            "mutedChords": [
              "1+2+5",
              "sus4",
              "1+5",
              "1+8",
              "Maj7aug",
              "dim",
              "minMaj7(9)",
              "minMaj7",
              "min6",
              "min",
              "aug",
              "Maj7(9)",
              "Maj7#11",
              "Maj7",
              "Maj6",
              "Maj"
            ],
            "autoStart": false,
            "sourceChordNote": 0,
            "sourceChordType": "Maj7",
            "ctb2Low": null,
            "ctb2Main": {
              "ntr": "ROOT_TRANSPOSITION",
              "ntt": "CHORD",
              "bassOn": false,
              "chordRootUpperLimit": 6,
              "noteLowLimit": 0,
              "noteHighLimit": 70,
              "rtr": "PITCH_SHIFT"
            },
            "ctb2High": null
          },
          "notes": [
            {
              "pitch": 72,
              "velocity": 69,
              "position": 0,
              "duration": 0.3541666666666667
            }
          ]
        },
        "8": {
          "ctab": {
            "srcChannel": 8,
            "name": "Perc",
            "accType": "SUBRHYTHM",
            "editable": false,
            "mutedNotes": [],
            "mutedChords": [],
            "autoStart": true,
            "sourceChordNote": 0,
            "sourceChordType": "Maj7",
            "ctb2Low": null,
            "ctb2Main": {
              "ntr": "ROOT_FIXED",
              "ntt": "BYPASS",
              "bassOn": false,
              "chordRootUpperLimit": 6,
              "noteLowLimit": 0,
              "noteHighLimit": 127,
              "rtr": "PITCH_SHIFT"
            },
            "ctb2High": null
          },
          "notes": [
            {
              "pitch": 54,
              "velocity": 38,
              "position": 0,
              "duration": 0.10416666666666667
            },
            {
              "pitch": 54,
              "velocity": 25,
              "position": 0.3229166666666667,
              "duration": 0.10416666666666667
            },
            {
              "pitch": 54,
              "velocity": 46,
              "position": 0.5,
              "duration": 0.10416666666666667
            },
            {
              "pitch": 54,
              "velocity": 34,
              "position": 0.8229166666666666,
              "duration": 0.10416666666666667
            },
            {
              "pitch": 54,
              "velocity": 37,
              "position": 1,
              "duration": 0.10416666666666667
            },
            {
              "pitch": 54,
              "velocity": 22,
              "position": 1.3229166666666667,
              "duration": 0.10416666666666667
            },
            {
              "pitch": 54,
              "velocity": 45,
              "position": 1.5,
              "duration": 0.10416666666666667
            },
            {
              "pitch": 54,
              "velocity": 35,
              "position": 1.8229166666666667,
              "duration": 0.10416666666666667
            },
            {
              "pitch": 81,
              "velocity": 33,
              "position": 1.8229166666666667,
              "duration": 0.10416666666666667
            },
            {
              "pitch": 80,
              "velocity": 35,
              "position": 2,
              "duration": 0.020833333333333332
            },
            {
              "pitch": 54,
              "velocity": 37,
              "position": 2,
              "duration": 0.10416666666666667
            },
            {
              "pitch": 80,
              "velocity": 35,
              "position": 2.3229166666666665,
              "duration": 0.020833333333333332
            },
            {
              "pitch": 54,
              "velocity": 22,
              "position": 2.3229166666666665,
              "duration": 0.10416666666666667
            },
            {
              "pitch": 54,
              "velocity": 45,
              "position": 2.5,
              "duration": 0.10416666666666667
            },
            {
              "pitch": 81,
              "velocity": 36,
              "position": 2.5,
              "duration": 0.10416666666666667
            },
            {
              "pitch": 54,
              "velocity": 33,
              "position": 2.8229166666666665,
              "duration": 0.10416666666666667
            },
            {
              "pitch": 80,
              "velocity": 35,
              "position": 3,
              "duration": 0.020833333333333332
            },
            {
              "pitch": 39,
              "velocity": 79,
              "position": 3,
              "duration": 0.10416666666666667
            },
            {
              "pitch": 54,
              "velocity": 37,
              "position": 3,
              "duration": 0.10416666666666667
            },
            {
              "pitch": 80,
              "velocity": 35,
              "position": 3.3229166666666665,
              "duration": 0.020833333333333332
            },
            {
              "pitch": 81,
              "velocity": 36,
              "position": 3.5,
              "duration": 0.10416666666666667
            },
            {
              "pitch": 57,
              "velocity": 51,
              "position": 3.9895833333333335,
              "duration": 0.010416666666666666
            }
          ]
        },
        "9": {
          "ctab": {
            "srcChannel": 9,
            "name": "Drum",
            "accType": "RHYTHM",
            "editable": false,
            "mutedNotes": [],
            "mutedChords": [],
            "autoStart": true,
            "sourceChordNote": 0,
            "sourceChordType": "Maj7",
            "ctb2Low": null,
            "ctb2Main": {
              "ntr": "ROOT_FIXED",
              "ntt": "BYPASS",
              "bassOn": false,
              "chordRootUpperLimit": 6,
              "noteLowLimit": 0,
              "noteHighLimit": 127,
              "rtr": "PITCH_SHIFT"
            },
            "ctb2High": null
          },
          "notes": [
            {
              "pitch": 36,
              "velocity": 88,
              "position": 0,
              "duration": 0.10416666666666667
            },
            {
              "pitch": 42,
              "velocity": 95,
              "position": 0,
              "duration": 0.10416666666666667
            },
            {
              "pitch": 42,
              "velocity": 46,
              "position": 2.3125,
              "duration": 0.10416666666666667
            },
            {
              "pitch": 46,
              "velocity": 54,
              "position": 2.5,
              "duration": 0.10416666666666667
            },
            {
              "pitch": 34,
              "velocity": 18,
              "position": 2.75,
              "duration": 0.10416666666666667
            },
            {
              "pitch": 34,
              "velocity": 48,
              "position": 2.875,
              "duration": 0.10416666666666667
            },
            {
              "pitch": 34,
              "velocity": 64,
              "position": 3,
              "duration": 0.10416666666666667
            },
            {
              "pitch": 42,
              "velocity": 88,
              "position": 3,
              "duration": 0.10416666666666667
            },
            {
              "pitch": 36,
              "velocity": 62,
              "position": 3.3229166666666665,
              "duration": 0.10416666666666667
            },
            {
              "pitch": 34,
              "velocity": 64,
              "position": 3.5,
              "duration": 0.10416666666666667
            },
            {
              "pitch": 36,
              "velocity": 58,
              "position": 3.5,
              "duration": 0.10416666666666667
            },
            {
              "pitch": 34,
              "velocity": 64,
              "position": 3.8229166666666665,
              "duration": 0.10416666666666667
            }
          ]
        },
        "10": {
          "ctab": {
            "srcChannel": 10,
            "name": "SynBass",
            "accType": "BASS",
            "editable": false,
            "mutedNotes": [],
            "mutedChords": [],
            "autoStart": false,
            "sourceChordNote": 0,
            "sourceChordType": "Maj7",
            "ctb2Low": null,
            "ctb2Main": {
              "ntr": "ROOT_TRANSPOSITION",
              "ntt": "MELODY",
              "bassOn": true,
              "chordRootUpperLimit": 5,
              "noteLowLimit": 28,
              "noteHighLimit": 49,
              "rtr": "PITCH_SHIFT_TO_ROOT"
            },
            "ctb2High": null
          },
          "notes": [
            {
              "pitch": 24,
              "velocity": 100,
              "position": 0,
              "duration": 0.4166666666666667
            }
          ]
        },
        "11": {
          "ctab": {
            "srcChannel": 11,
            "name": "Clavi",
            "accType": "CHORD2",
            "editable": false,
            "mutedNotes": [],
            "mutedChords": [],
            "autoStart": false,
            "sourceChordNote": 0,
            "sourceChordType": "Maj7",
            "ctb2Low": null,
            "ctb2Main": {
              "ntr": "ROOT_TRANSPOSITION",
              "ntt": "CHORD",
              "bassOn": false,
              "chordRootUpperLimit": 10,
              "noteLowLimit": 0,
              "noteHighLimit": 127,
              "rtr": "PITCH_SHIFT"
            },
            "ctb2High": null
          },
          "notes": [
            {
              "pitch": 48,
              "velocity": 88,
              "position": 0,
              "duration": 0.22916666666666666
            },
            {
              "pitch": 48,
              "velocity": 80,
              "position": 2.3125,
              "duration": 0.17708333333333334
            },
            {
              "pitch": 43,
              "velocity": 74,
              "position": 2.5,
              "duration": 0.07291666666666667
            },
            {
              "pitch": 43,
              "velocity": 73,
              "position": 2.8125,
              "duration": 0.07291666666666667
            },
            {
              "pitch": 47,
              "velocity": 84,
              "position": 3,
              "duration": 0.3125
            },
            {
              "pitch": 43,
              "velocity": 72,
              "position": 3.3125,
              "duration": 0.0625
            },
            {
              "pitch": 52,
              "velocity": 91,
              "position": 3.8125,
              "duration": 0.07291666666666667
            },
            {
              "pitch": 47,
              "velocity": 79,
              "position": 3.5,
              "duration": 0.40625
            }
          ]
        },
        "12": {
          "ctab": {
            "srcChannel": 12,
            "name": "ElecPno",
            "accType": "CHORD1",
            "editable": false,
            "mutedNotes": [],
            "mutedChords": [],
            "autoStart": false,
            "sourceChordNote": 0,
            "sourceChordType": "Maj7",
            "ctb2Low": null,
            "ctb2Main": {
              "ntr": "ROOT_FIXED",
              "ntt": "CHORD",
              "bassOn": false,
              "chordRootUpperLimit": 7,
              "noteLowLimit": 0,
              "noteHighLimit": 127,
              "rtr": "PITCH_SHIFT"
            },
            "ctb2High": null
          },
          "notes": [
            {
              "pitch": 64,
              "velocity": 79,
              "position": 0,
              "duration": 0.21875
            },
            {
              "pitch": 59,
              "velocity": 81,
              "position": 0,
              "duration": 0.22916666666666666
            },
            {
              "pitch": 67,
              "velocity": 82,
              "position": 0,
              "duration": 0.22916666666666666
            }
          ]
        },
        "13": {
          "ctab": {
            "srcChannel": 13,
            "name": "Strings",
            "accType": "PAD",
            "editable": false,
            "mutedNotes": [],
            "mutedChords": [],
            "autoStart": false,
            "sourceChordNote": 0,
            "sourceChordType": "Maj7",
            "ctb2Low": null,
            "ctb2Main": {
              "ntr": "ROOT_FIXED",
              "ntt": "CHORD",
              "bassOn": false,
              "chordRootUpperLimit": 7,
              "noteLowLimit": 0,
              "noteHighLimit": 127,
              "rtr": "PITCH_SHIFT"
            },
            "ctb2High": null
          },
          "notes": [
            {
              "pitch": 59,
              "velocity": 69,
              "position": 0,
              "duration": 0.3541666666666667
            },
            {
              "pitch": 64,
              "velocity": 69,
              "position": 0,
              "duration": 0.3541666666666667
            },
            {
              "pitch": 67,
              "velocity": 69,
              "position": 0,
              "duration": 0.3541666666666667
            }
          ]
        },
        "14": {
          "ctab": {
            "srcChannel": 14,
            "name": "Brass",
            "accType": "PHRASE1",
            "editable": false,
            "mutedNotes": [],
            "mutedChords": [],
            "autoStart": false,
            "sourceChordNote": 0,
            "sourceChordType": "Maj7",
            "ctb2Low": null,
            "ctb2Main": {
              "ntr": "ROOT_TRANSPOSITION",
              "ntt": "MELODY",
              "bassOn": false,
              "chordRootUpperLimit": 6,
              "noteLowLimit": 0,
              "noteHighLimit": 127,
              "rtr": "PITCH_SHIFT"
            },
            "ctb2High": null
          },
          "notes": [
            {
              "pitch": 67,
              "velocity": 88,
              "position": 0,
              "duration": 0.1875
            },
            {
              "pitch": 72,
              "velocity": 91,
              "position": 0,
              "duration": 0.1875
            }
          ]
        }
      }
    },
    "Main_C": {
      "type": "Main_C",
      "sizeInBeats": 8,
      "channels": {
        "1": {
          "ctab": {
            "srcChannel": 1,
            "name": "CC_Crash",
            "accType": "SUBRHYTHM",
            "editable": false,
            "mutedNotes": [],
            "mutedChords": [
              "1+2+5",
              "sus4",
              "1+5",
              "1+8",
              "7aug",
              "Maj7aug",
              "7(#9)",
              "7(b13)",
              "7(b9)",
              "7(13)",
              "7#11",
              "7(9)",
              "7b5",
              "7sus4",
              "7th",
              "dim7",
              "dim",
              "minMaj7(9)",
              "minMaj7",
              "min7(11)",
              "min7(9)",
              "min(9)",
              "m7b5",
              "min7",
              "min6",
              "min",
              "aug",
              "Maj6(9)",
              "Maj7(9)",
              "Maj(9)",
              "Maj7#11",
              "Maj7",
              "Maj6",
              "Maj"
            ],
            "autoStart": true,
            "sourceChordNote": 0,
            "sourceChordType": "Maj",
            "ctb2Low": null,
            "ctb2Main": {
              "ntr": "ROOT_FIXED",
              "ntt": "BYPASS",
              "bassOn": false,
              "chordRootUpperLimit": 0,
              "noteLowLimit": 0,
              "noteHighLimit": 127,
              "rtr": "RETRIGGER"
            },
            "ctb2High": null
          },
          "notes": []
        },
        "4": {
          "ctab": {
            "srcChannel": 4,
            "name": "ElecPno",
            "accType": "CHORD1",
            "editable": true,
            "mutedNotes": [],
            "mutedChords": [
              "1+2+5",
              "sus4",
              "1+5",
              "1+8",
              "Maj7aug",
              "dim",
              "minMaj7(9)",
              "minMaj7",
              "min6",
              "min",
              "aug",
              "Maj7(9)",
              "Maj7#11",
              "Maj7",
              "Maj6",
              "Maj"
            ],
            "autoStart": false,
            "sourceChordNote": 0,
            "sourceChordType": "Maj7",
            "ctb2Low": null,
            "ctb2Main": {
              "ntr": "ROOT_TRANSPOSITION",
              "ntt": "CHORD",
              "bassOn": false,
              "chordRootUpperLimit": 10,
              "noteLowLimit": 0,
              "noteHighLimit": 127,
              "rtr": "PITCH_SHIFT"
            },
            "ctb2High": null
          },
          "notes": [
            {
              "pitch": 60,
              "velocity": 85,
              "position": 0,
              "duration": 0.20833333333333334
            },
            {
              "pitch": 60,
              "velocity": 85,
              "position": 0.5,
              "duration": 0.20833333333333334
            },
            {
              "pitch": 60,
              "velocity": 69,
              "position": 1,
              "duration": 0.20833333333333334
            },
            {
              "pitch": 60,
              "velocity": 85,
              "position": 1.5,
              "duration": 0.20833333333333334
            },
            {
              "pitch": 60,
              "velocity": 85,
              "position": 2,
              "duration": 0.20833333333333334
            },
            {
              "pitch": 60,
              "velocity": 85,
              "position": 2.5,
              "duration": 0.20833333333333334
            },
            {
              "pitch": 60,
              "velocity": 69,
              "position": 3,
              "duration": 0.20833333333333334
            },
            {
              "pitch": 60,
              "velocity": 85,
              "position": 3.5,
              "duration": 0.20833333333333334
            },
            {
              "pitch": 60,
              "velocity": 85,
              "position": 4,
              "duration": 0.20833333333333334
            },
            {
              "pitch": 60,
              "velocity": 85,
              "position": 4.5,
              "duration": 0.20833333333333334
            },
            {
              "pitch": 60,
              "velocity": 69,
              "position": 5,
              "duration": 0.20833333333333334
            },
            {
              "pitch": 60,
              "velocity": 85,
              "position": 5.5,
              "duration": 0.20833333333333334
            },
            {
              "pitch": 60,
              "velocity": 85,
              "position": 6,
              "duration": 0.20833333333333334
            },
            {
              "pitch": 60,
              "velocity": 85,
              "position": 6.5,
              "duration": 0.20833333333333334
            },
            {
              "pitch": 60,
              "velocity": 69,
              "position": 7,
              "duration": 0.20833333333333334
            },
            {
              "pitch": 60,
              "velocity": 85,
              "position": 7.5,
              "duration": 0.20833333333333334
            }
          ]
        },
        "5": {
          "ctab": {
            "srcChannel": 5,
            "name": "Strings",
            "accType": "PAD",
            "editable": false,
            "mutedNotes": [],
            "mutedChords": [
              "1+2+5",
              "sus4",
              "1+5",
              "1+8",
              "Maj7aug",
              "dim",
              "minMaj7(9)",
              "minMaj7",
              "min6",
              "min",
              "aug",
              "Maj7(9)",
              "Maj7#11",
              "Maj7",
              "Maj6",
              "Maj"
            ],
            "autoStart": false,
            "sourceChordNote": 0,
            "sourceChordType": "Maj7",
            "ctb2Low": null,
            "ctb2Main": {
              "ntr": "ROOT_TRANSPOSITION",
              "ntt": "CHORD",
              "bassOn": false,
              "chordRootUpperLimit": 2,
              "noteLowLimit": 0,
              "noteHighLimit": 127,
              "rtr": "PITCH_SHIFT"
            },
            "ctb2High": null
          },
          "notes": [
            {
              "pitch": 72,
              "velocity": 64,
              "position": 0,
              "duration": 7.989583333333333
            }
          ]
        },
        "8": {
          "ctab": {
            "srcChannel": 8,
            "name": "Perc",
            "accType": "SUBRHYTHM",
            "editable": false,
            "mutedNotes": [],
            "mutedChords": [],
            "autoStart": true,
            "sourceChordNote": 0,
            "sourceChordType": "Maj7",
            "ctb2Low": null,
            "ctb2Main": {
              "ntr": "ROOT_FIXED",
              "ntt": "BYPASS",
              "bassOn": false,
              "chordRootUpperLimit": 6,
              "noteLowLimit": 0,
              "noteHighLimit": 127,
              "rtr": "PITCH_SHIFT"
            },
            "ctb2High": null
          },
          "notes": [
            {
              "pitch": 80,
              "velocity": 35,
              "position": 0,
              "duration": 0.020833333333333332
            },
            {
              "pitch": 54,
              "velocity": 41,
              "position": 0,
              "duration": 0.10416666666666667
            },
            {
              "pitch": 54,
              "velocity": 28,
              "position": 0.3229166666666667,
              "duration": 0.10416666666666667
            },
            {
              "pitch": 54,
              "velocity": 49,
              "position": 0.5,
              "duration": 0.10416666666666667
            },
            {
              "pitch": 54,
              "velocity": 36,
              "position": 0.8229166666666666,
              "duration": 0.10416666666666667
            },
            {
              "pitch": 39,
              "velocity": 81,
              "position": 1,
              "duration": 0.10416666666666667
            },
            {
              "pitch": 54,
              "velocity": 40,
              "position": 1,
              "duration": 0.10416666666666667
            },
            {
              "pitch": 54,
              "velocity": 25,
              "position": 1.3229166666666667,
              "duration": 0.10416666666666667
            },
            {
              "pitch": 54,
              "velocity": 48,
              "position": 1.5,
              "duration": 0.10416666666666667
            },
            {
              "pitch": 54,
              "velocity": 38,
              "position": 1.8229166666666667,
              "duration": 0.10416666666666667
            },
            {
              "pitch": 54,
              "velocity": 40,
              "position": 2,
              "duration": 0.10416666666666667
            },
            {
              "pitch": 54,
              "velocity": 25,
              "position": 2.3229166666666665,
              "duration": 0.10416666666666667
            },
            {
              "pitch": 54,
              "velocity": 48,
              "position": 2.5,
              "duration": 0.10416666666666667
            },
            {
              "pitch": 54,
              "velocity": 35,
              "position": 2.8229166666666665,
              "duration": 0.10416666666666667
            },
            {
              "pitch": 80,
              "velocity": 35,
              "position": 3,
              "duration": 0.020833333333333332
            },
            {
              "pitch": 39,
              "velocity": 75,
              "position": 3,
              "duration": 0.10416666666666667
            },
            {
              "pitch": 54,
              "velocity": 40,
              "position": 3,
              "duration": 0.10416666666666667
            },
            {
              "pitch": 80,
              "velocity": 35,
              "position": 3.3229166666666665,
              "duration": 0.020833333333333332
            },
            {
              "pitch": 54,
              "velocity": 24,
              "position": 3.3229166666666665,
              "duration": 0.10416666666666667
            },
            {
              "pitch": 54,
              "velocity": 48,
              "position": 3.5,
              "duration": 0.10416666666666667
            },
            {
              "pitch": 81,
              "velocity": 36,
              "position": 3.5,
              "duration": 0.10416666666666667
            },
            {
              "pitch": 54,
              "velocity": 35,
              "position": 3.8229166666666665,
              "duration": 0.10416666666666667
            },
            {
              "pitch": 80,
              "velocity": 35,
              "position": 4,
              "duration": 0.020833333333333332
            },
            {
              "pitch": 54,
              "velocity": 41,
              "position": 4,
              "duration": 0.10416666666666667
            },
            {
              "pitch": 54,
              "velocity": 28,
              "position": 4.322916666666667,
              "duration": 0.10416666666666667
            },
            {
              "pitch": 54,
              "velocity": 49,
              "position": 4.5,
              "duration": 0.10416666666666667
            },
            {
              "pitch": 54,
              "velocity": 36,
              "position": 4.822916666666667,
              "duration": 0.10416666666666667
            },
            {
              "pitch": 39,
              "velocity": 80,
              "position": 5,
              "duration": 0.10416666666666667
            },
            {
              "pitch": 54,
              "velocity": 40,
              "position": 5,
              "duration": 0.10416666666666667
            },
            {
              "pitch": 54,
              "velocity": 25,
              "position": 5.322916666666667,
              "duration": 0.10416666666666667
            },
            {
              "pitch": 54,
              "velocity": 48,
              "position": 5.5,
              "duration": 0.10416666666666667
            },
            {
              "pitch": 54,
              "velocity": 38,
              "position": 5.822916666666667,
              "duration": 0.10416666666666667
            },
            {
              "pitch": 81,
              "velocity": 33,
              "position": 5.822916666666667,
              "duration": 0.10416666666666667
            },
            {
              "pitch": 80,
              "velocity": 35,
              "position": 6,
              "duration": 0.020833333333333332
            },
            {
              "pitch": 54,
              "velocity": 40,
              "position": 6,
              "duration": 0.10416666666666667
            },
            {
              "pitch": 80,
              "velocity": 35,
              "position": 6.322916666666667,
              "duration": 0.020833333333333332
            },
            {
              "pitch": 54,
              "velocity": 25,
              "position": 6.322916666666667,
              "duration": 0.10416666666666667
            },
            {
              "pitch": 54,
              "velocity": 48,
              "position": 6.5,
              "duration": 0.10416666666666667
            },
            {
              "pitch": 81,
              "velocity": 36,
              "position": 6.5,
              "duration": 0.10416666666666667
            },
            {
              "pitch": 54,
              "velocity": 35,
              "position": 6.822916666666667,
              "duration": 0.10416666666666667
            },
            {
              "pitch": 80,
              "velocity": 35,
              "position": 7,
              "duration": 0.020833333333333332
            },
            {
              "pitch": 39,
              "velocity": 79,
              "position": 7,
              "duration": 0.10416666666666667
            },
            {
              "pitch": 54,
              "velocity": 40,
              "position": 7,
              "duration": 0.10416666666666667
            },
            {
              "pitch": 80,
              "velocity": 35,
              "position": 7.322916666666667,
              "duration": 0.020833333333333332
            },
            {
              "pitch": 54,
              "velocity": 24,
              "position": 7.322916666666667,
              "duration": 0.10416666666666667
            },
            {
              "pitch": 54,
              "velocity": 48,
              "position": 7.5,
              "duration": 0.10416666666666667
            },
            {
              "pitch": 81,
              "velocity": 36,
              "position": 7.5,
              "duration": 0.10416666666666667
            },
            {
              "pitch": 54,
              "velocity": 35,
              "position": 7.822916666666667,
              "duration": 0.10416666666666667
            }
          ]
        },
        "9": {
          "ctab": {
            "srcChannel": 9,
            "name": "Drum",
            "accType": "RHYTHM",
            "editable": false,
            "mutedNotes": [],
            "mutedChords": [],
            "autoStart": true,
            "sourceChordNote": 0,
            "sourceChordType": "Maj7",
            "ctb2Low": null,
            "ctb2Main": {
              "ntr": "ROOT_FIXED",
              "ntt": "BYPASS",
              "bassOn": false,
              "chordRootUpperLimit": 6,
              "noteLowLimit": 0,
              "noteHighLimit": 127,
              "rtr": "PITCH_SHIFT"
            },
            "ctb2High": null
          },
          "notes": [
            {
              "pitch": 36,
              "velocity": 88,
              "position": 0,
              "duration": 0.10416666666666667
            },
            {
              "pitch": 42,
              "velocity": 87,
              "position": 0,
              "duration": 0.10416666666666667
            },
            {
              "pitch": 46,
              "velocity": 54,
              "position": 0.5,
              "duration": 0.10416666666666667
            },
            {
              "pitch": 34,
              "velocity": 64,
              "position": 1,
              "duration": 0.10416666666666667
            },
            {
              "pitch": 42,
              "velocity": 89,
              "position": 1,
              "duration": 0.10416666666666667
            },
            {
              "pitch": 42,
              "velocity": 71,
              "position": 1.5,
              "duration": 0.10416666666666667
            },
            {
              "pitch": 42,
              "velocity": 33,
              "position": 1.8125,
              "duration": 0.10416666666666667
            },
            {
              "pitch": 36,
              "velocity": 34,
              "position": 1.84375,
              "duration": 0.10416666666666667
            },
            {
              "pitch": 36,
              "velocity": 84,
              "position": 2,
              "duration": 0.10416666666666667
            },
            {
              "pitch": 42,
              "velocity": 86,
              "position": 2,
              "duration": 0.10416666666666667
            },
            {
              "pitch": 36,
              "velocity": 88,
              "position": 2.5,
              "duration": 0.10416666666666667
            },
            {
              "pitch": 46,
              "velocity": 54,
              "position": 2.5,
              "duration": 0.10416666666666667
            },
            {
              "pitch": 34,
              "velocity": 64,
              "position": 3,
              "duration": 0.10416666666666667
            },
            {
              "pitch": 42,
              "velocity": 83,
              "position": 3,
              "duration": 0.10416666666666667
            },
            {
              "pitch": 36,
              "velocity": 79,
              "position": 3.5,
              "duration": 0.10416666666666667
            },
            {
              "pitch": 42,
              "velocity": 71,
              "position": 3.5,
              "duration": 0.10416666666666667
            },
            {
              "pitch": 42,
              "velocity": 33,
              "position": 3.8125,
              "duration": 0.10416666666666667
            },
            {
              "pitch": 36,
              "velocity": 88,
              "position": 4,
              "duration": 0.10416666666666667
            },
            {
              "pitch": 42,
              "velocity": 88,
              "position": 4,
              "duration": 0.10416666666666667
            },
            {
              "pitch": 46,
              "velocity": 54,
              "position": 4.5,
              "duration": 0.10416666666666667
            },
            {
              "pitch": 34,
              "velocity": 64,
              "position": 5,
              "duration": 0.10416666666666667
            },
            {
              "pitch": 42,
              "velocity": 88,
              "position": 5,
              "duration": 0.10416666666666667
            },
            {
              "pitch": 42,
              "velocity": 88,
              "position": 5.5,
              "duration": 0.10416666666666667
            },
            {
              "pitch": 42,
              "velocity": 33,
              "position": 5.8125,
              "duration": 0.10416666666666667
            },
            {
              "pitch": 36,
              "velocity": 34,
              "position": 5.822916666666667,
              "duration": 0.10416666666666667
            },
            {
              "pitch": 36,
              "velocity": 84,
              "position": 6,
              "duration": 0.10416666666666667
            },
            {
              "pitch": 42,
              "velocity": 73,
              "position": 6,
              "duration": 0.10416666666666667
            },
            {
              "pitch": 42,
              "velocity": 33,
              "position": 6.3125,
              "duration": 0.10416666666666667
            },
            {
              "pitch": 36,
              "velocity": 88,
              "position": 6.5,
              "duration": 0.10416666666666667
            },
            {
              "pitch": 46,
              "velocity": 54,
              "position": 6.5,
              "duration": 0.10416666666666667
            },
            {
              "pitch": 34,
              "velocity": 64,
              "position": 7,
              "duration": 0.10416666666666667
            },
            {
              "pitch": 42,
              "velocity": 88,
              "position": 7,
              "duration": 0.10416666666666667
            },
            {
              "pitch": 36,
              "velocity": 87,
              "position": 7.5,
              "duration": 0.10416666666666667
            },
            {
              "pitch": 42,
              "velocity": 95,
              "position": 7.5,
              "duration": 0.10416666666666667
            },
            {
              "pitch": 42,
              "velocity": 33,
              "position": 7.8125,
              "duration": 0.10416666666666667
            }
          ]
        },
        "10": {
          "ctab": {
            "srcChannel": 10,
            "name": "SynBass",
            "accType": "BASS",
            "editable": false,
            "mutedNotes": [],
            "mutedChords": [],
            "autoStart": false,
            "sourceChordNote": 0,
            "sourceChordType": "Maj7",
            "ctb2Low": null,
            "ctb2Main": {
              "ntr": "ROOT_TRANSPOSITION",
              "ntt": "MELODY",
              "bassOn": true,
              "chordRootUpperLimit": 5,
              "noteLowLimit": 28,
              "noteHighLimit": 49,
              "rtr": "PITCH_SHIFT_TO_ROOT"
            },
            "ctb2High": null
          },
          "notes": [
            {
              "pitch": 24,
              "velocity": 100,
              "position": 0,
              "duration": 0.53125
            },
            {
              "pitch": 31,
              "velocity": 100,
              "position": 1.7916666666666667,
              "duration": 0.17708333333333334
            },
            {
              "pitch": 24,
              "velocity": 100,
              "position": 2,
              "duration": 0.13541666666666666
            },
            {
              "pitch": 24,
              "velocity": 100,
              "position": 2.5,
              "duration": 0.22916666666666666
            },
            {
              "pitch": 31,
              "velocity": 100,
              "position": 3,
              "duration": 0.4791666666666667
            },
            {
              "pitch": 35,
              "velocity": 100,
              "position": 3.5,
              "duration": 0.3125
            },
            {
              "pitch": 31,
              "velocity": 100,
              "position": 3.8125,
              "duration": 0.16666666666666666
            },
            {
              "pitch": 24,
              "velocity": 100,
              "position": 4,
              "duration": 0.4895833333333333
            },
            {
              "pitch": 31,
              "velocity": 100,
              "position": 5.791666666666667,
              "duration": 0.17708333333333334
            },
            {
              "pitch": 24,
              "velocity": 100,
              "position": 6,
              "duration": 0.3125
            },
            {
              "pitch": 31,
              "velocity": 100,
              "position": 6.3125,
              "duration": 0.16666666666666666
            },
            {
              "pitch": 24,
              "velocity": 100,
              "position": 6.5,
              "duration": 0.23958333333333334
            },
            {
              "pitch": 35,
              "velocity": 100,
              "position": 7,
              "duration": 0.19791666666666666
            },
            {
              "pitch": 35,
              "velocity": 100,
              "position": 7.5,
              "duration": 0.3125
            },
            {
              "pitch": 31,
              "velocity": 100,
              "position": 7.8125,
              "duration": 0.16666666666666666
            }
          ]
        },
        "11": {
          "ctab": {
            "srcChannel": 11,
            "name": "Clavi",
            "accType": "CHORD2",
            "editable": false,
            "mutedNotes": [],
            "mutedChords": [],
            "autoStart": false,
            "sourceChordNote": 0,
            "sourceChordType": "Maj7",
            "ctb2Low": null,
            "ctb2Main": {
              "ntr": "ROOT_TRANSPOSITION",
              "ntt": "CHORD",
              "bassOn": false,
              "chordRootUpperLimit": 10,
              "noteLowLimit": 0,
              "noteHighLimit": 127,
              "rtr": "PITCH_SHIFT"
            },
            "ctb2High": null
          },
          "notes": [
            {
              "pitch": 43,
              "velocity": 87,
              "position": 0,
              "duration": 0.5
            },
            {
              "pitch": 52,
              "velocity": 80,
              "position": 0.5,
              "duration": 0.2604166666666667
            },
            {
              "pitch": 47,
              "velocity": 83,
              "position": 0.5,
              "duration": 0.28125
            },
            {
              "pitch": 43,
              "velocity": 83,
              "position": 0.8125,
              "duration": 0.17708333333333334
            },
            {
              "pitch": 47,
              "velocity": 84,
              "position": 1,
              "duration": 0.28125
            },
            {
              "pitch": 52,
              "velocity": 83,
              "position": 1,
              "duration": 0.28125
            },
            {
              "pitch": 43,
              "velocity": 83,
              "position": 1.3125,
              "duration": 0.08333333333333333
            },
            {
              "pitch": 43,
              "velocity": 83,
              "position": 1.8125,
              "duration": 0.17708333333333334
            },
            {
              "pitch": 48,
              "velocity": 91,
              "position": 2.3125,
              "duration": 0.14583333333333334
            },
            {
              "pitch": 43,
              "velocity": 76,
              "position": 2.5,
              "duration": 0.07291666666666667
            },
            {
              "pitch": 48,
              "velocity": 99,
              "position": 2.8229166666666665,
              "duration": 0.11458333333333333
            },
            {
              "pitch": 43,
              "velocity": 87,
              "position": 3.3125,
              "duration": 0.1875
            },
            {
              "pitch": 47,
              "velocity": 83,
              "position": 3.5,
              "duration": 0.375
            },
            {
              "pitch": 52,
              "velocity": 92,
              "position": 3.8229166666666665,
              "duration": 0.20833333333333334
            },
            {
              "pitch": 43,
              "velocity": 76,
              "position": 4,
              "duration": 0.23958333333333334
            },
            {
              "pitch": 47,
              "velocity": 82,
              "position": 4.322916666666667,
              "duration": 0.08333333333333333
            },
            {
              "pitch": 52,
              "velocity": 77,
              "position": 4.322916666666667,
              "duration": 0.125
            },
            {
              "pitch": 43,
              "velocity": 78,
              "position": 4.5,
              "duration": 0.08333333333333333
            },
            {
              "pitch": 47,
              "velocity": 86,
              "position": 5,
              "duration": 0.2916666666666667
            },
            {
              "pitch": 52,
              "velocity": 85,
              "position": 5,
              "duration": 0.2916666666666667
            },
            {
              "pitch": 43,
              "velocity": 78,
              "position": 5.333333333333333,
              "duration": 0.08333333333333333
            },
            {
              "pitch": 43,
              "velocity": 83,
              "position": 5.822916666666667,
              "duration": 0.08333333333333333
            },
            {
              "pitch": 48,
              "velocity": 91,
              "position": 6.3125,
              "duration": 0.14583333333333334
            },
            {
              "pitch": 43,
              "velocity": 74,
              "position": 6.5,
              "duration": 0.15625
            },
            {
              "pitch": 48,
              "velocity": 99,
              "position": 6.822916666666667,
              "duration": 0.11458333333333333
            },
            {
              "pitch": 48,
              "velocity": 87,
              "position": 7.3125,
              "duration": 0.1875
            },
            {
              "pitch": 43,
              "velocity": 83,
              "position": 7.5,
              "duration": 0.09375
            },
            {
              "pitch": 52,
              "velocity": 92,
              "position": 7.8125,
              "duration": 0.17708333333333334
            }
          ]
        },
        "12": {
          "ctab": {
            "srcChannel": 12,
            "name": "ElecPno",
            "accType": "CHORD1",
            "editable": false,
            "mutedNotes": [],
            "mutedChords": [],
            "autoStart": false,
            "sourceChordNote": 0,
            "sourceChordType": "Maj7",
            "ctb2Low": null,
            "ctb2Main": {
              "ntr": "ROOT_FIXED",
              "ntt": "CHORD",
              "bassOn": false,
              "chordRootUpperLimit": 7,
              "noteLowLimit": 0,
              "noteHighLimit": 127,
              "rtr": "PITCH_SHIFT"
            },
            "ctb2High": null
          },
          "notes": [
            {
              "pitch": 59,
              "velocity": 85,
              "position": 0,
              "duration": 0.20833333333333334
            },
            {
              "pitch": 64,
              "velocity": 85,
              "position": 0,
              "duration": 0.20833333333333334
            },
            {
              "pitch": 67,
              "velocity": 85,
              "position": 0,
              "duration": 0.20833333333333334
            },
            {
              "pitch": 59,
              "velocity": 85,
              "position": 0.5,
              "duration": 0.20833333333333334
            },
            {
              "pitch": 64,
              "velocity": 85,
              "position": 0.5,
              "duration": 0.20833333333333334
            },
            {
              "pitch": 67,
              "velocity": 85,
              "position": 0.5,
              "duration": 0.20833333333333334
            },
            {
              "pitch": 59,
              "velocity": 69,
              "position": 1,
              "duration": 0.20833333333333334
            },
            {
              "pitch": 64,
              "velocity": 69,
              "position": 1,
              "duration": 0.20833333333333334
            },
            {
              "pitch": 67,
              "velocity": 69,
              "position": 1,
              "duration": 0.20833333333333334
            },
            {
              "pitch": 59,
              "velocity": 85,
              "position": 1.5,
              "duration": 0.20833333333333334
            },
            {
              "pitch": 64,
              "velocity": 85,
              "position": 1.5,
              "duration": 0.20833333333333334
            },
            {
              "pitch": 67,
              "velocity": 85,
              "position": 1.5,
              "duration": 0.20833333333333334
            },
            {
              "pitch": 59,
              "velocity": 85,
              "position": 2,
              "duration": 0.20833333333333334
            },
            {
              "pitch": 64,
              "velocity": 85,
              "position": 2,
              "duration": 0.20833333333333334
            },
            {
              "pitch": 67,
              "velocity": 85,
              "position": 2,
              "duration": 0.20833333333333334
            },
            {
              "pitch": 59,
              "velocity": 85,
              "position": 2.5,
              "duration": 0.20833333333333334
            },
            {
              "pitch": 64,
              "velocity": 85,
              "position": 2.5,
              "duration": 0.20833333333333334
            },
            {
              "pitch": 67,
              "velocity": 85,
              "position": 2.5,
              "duration": 0.20833333333333334
            },
            {
              "pitch": 59,
              "velocity": 69,
              "position": 3,
              "duration": 0.20833333333333334
            },
            {
              "pitch": 64,
              "velocity": 69,
              "position": 3,
              "duration": 0.20833333333333334
            },
            {
              "pitch": 67,
              "velocity": 69,
              "position": 3,
              "duration": 0.20833333333333334
            },
            {
              "pitch": 59,
              "velocity": 85,
              "position": 3.5,
              "duration": 0.20833333333333334
            },
            {
              "pitch": 64,
              "velocity": 85,
              "position": 3.5,
              "duration": 0.20833333333333334
            },
            {
              "pitch": 67,
              "velocity": 85,
              "position": 3.5,
              "duration": 0.20833333333333334
            },
            {
              "pitch": 59,
              "velocity": 85,
              "position": 4,
              "duration": 0.20833333333333334
            },
            {
              "pitch": 64,
              "velocity": 85,
              "position": 4,
              "duration": 0.20833333333333334
            },
            {
              "pitch": 67,
              "velocity": 85,
              "position": 4,
              "duration": 0.20833333333333334
            },
            {
              "pitch": 59,
              "velocity": 85,
              "position": 4.5,
              "duration": 0.20833333333333334
            },
            {
              "pitch": 64,
              "velocity": 85,
              "position": 4.5,
              "duration": 0.20833333333333334
            },
            {
              "pitch": 67,
              "velocity": 85,
              "position": 4.5,
              "duration": 0.20833333333333334
            },
            {
              "pitch": 59,
              "velocity": 69,
              "position": 5,
              "duration": 0.20833333333333334
            },
            {
              "pitch": 64,
              "velocity": 69,
              "position": 5,
              "duration": 0.20833333333333334
            },
            {
              "pitch": 67,
              "velocity": 69,
              "position": 5,
              "duration": 0.20833333333333334
            },
            {
              "pitch": 59,
              "velocity": 85,
              "position": 5.5,
              "duration": 0.20833333333333334
            },
            {
              "pitch": 64,
              "velocity": 85,
              "position": 5.5,
              "duration": 0.20833333333333334
            },
            {
              "pitch": 67,
              "velocity": 85,
              "position": 5.5,
              "duration": 0.20833333333333334
            },
            {
              "pitch": 59,
              "velocity": 85,
              "position": 6,
              "duration": 0.20833333333333334
            },
            {
              "pitch": 64,
              "velocity": 85,
              "position": 6,
              "duration": 0.20833333333333334
            },
            {
              "pitch": 67,
              "velocity": 85,
              "position": 6,
              "duration": 0.20833333333333334
            },
            {
              "pitch": 59,
              "velocity": 85,
              "position": 6.5,
              "duration": 0.20833333333333334
            },
            {
              "pitch": 64,
              "velocity": 85,
              "position": 6.5,
              "duration": 0.20833333333333334
            },
            {
              "pitch": 67,
              "velocity": 85,
              "position": 6.5,
              "duration": 0.20833333333333334
            },
            {
              "pitch": 59,
              "velocity": 69,
              "position": 7,
              "duration": 0.20833333333333334
            },
            {
              "pitch": 64,
              "velocity": 69,
              "position": 7,
              "duration": 0.20833333333333334
            },
            {
              "pitch": 67,
              "velocity": 69,
              "position": 7,
              "duration": 0.20833333333333334
            },
            {
              "pitch": 59,
              "velocity": 85,
              "position": 7.5,
              "duration": 0.20833333333333334
            },
            {
              "pitch": 64,
              "velocity": 85,
              "position": 7.5,
              "duration": 0.20833333333333334
            },
            {
              "pitch": 67,
              "velocity": 85,
              "position": 7.5,
              "duration": 0.20833333333333334
            }
          ]
        },
        "13": {
          "ctab": {
            "srcChannel": 13,
            "name": "Strings",
            "accType": "PAD",
            "editable": false,
            "mutedNotes": [],
            "mutedChords": [],
            "autoStart": false,
            "sourceChordNote": 0,
            "sourceChordType": "Maj7",
            "ctb2Low": null,
            "ctb2Main": {
              "ntr": "ROOT_FIXED",
              "ntt": "CHORD",
              "bassOn": false,
              "chordRootUpperLimit": 7,
              "noteLowLimit": 0,
              "noteHighLimit": 79,
              "rtr": "PITCH_SHIFT"
            },
            "ctb2High": null
          },
          "notes": [
            {
              "pitch": 64,
              "velocity": 64,
              "position": 0,
              "duration": 7.989583333333333
            },
            {
              "pitch": 67,
              "velocity": 64,
              "position": 0,
              "duration": 7.989583333333333
            },
            {
              "pitch": 71,
              "velocity": 64,
              "position": 0,
              "duration": 7.989583333333333
            }
          ]
        },
        "14": {
          "ctab": {
            "srcChannel": 14,
            "name": "Brass",
            "accType": "PHRASE1",
            "editable": false,
            "mutedNotes": [],
            "mutedChords": [],
            "autoStart": false,
            "sourceChordNote": 0,
            "sourceChordType": "Maj7",
            "ctb2Low": null,
            "ctb2Main": {
              "ntr": "ROOT_TRANSPOSITION",
              "ntt": "MELODY",
              "bassOn": false,
              "chordRootUpperLimit": 6,
              "noteLowLimit": 0,
              "noteHighLimit": 127,
              "rtr": "PITCH_SHIFT"
            },
            "ctb2High": null
          },
          "notes": [
            {
              "pitch": 67,
              "velocity": 85,
              "position": 0,
              "duration": 0.125
            },
            {
              "pitch": 72,
              "velocity": 90,
              "position": 0,
              "duration": 0.13541666666666666
            },
            {
              "pitch": 71,
              "velocity": 88,
              "position": 0.5,
              "duration": 0.28125
            },
            {
              "pitch": 67,
              "velocity": 86,
              "position": 0.5,
              "duration": 0.4375
            },
            {
              "pitch": 72,
              "velocity": 84,
              "position": 0.7916666666666666,
              "duration": 0.14583333333333334
            },
            {
              "pitch": 71,
              "velocity": 57,
              "position": 1.5,
              "duration": 0.28125
            },
            {
              "pitch": 67,
              "velocity": 55,
              "position": 1.5,
              "duration": 0.4375
            },
            {
              "pitch": 72,
              "velocity": 53,
              "position": 1.7916666666666667,
              "duration": 0.14583333333333334
            },
            {
              "pitch": 71,
              "velocity": 44,
              "position": 2.5,
              "duration": 0.28125
            },
            {
              "pitch": 67,
              "velocity": 42,
              "position": 2.5,
              "duration": 0.4375
            },
            {
              "pitch": 72,
              "velocity": 40,
              "position": 2.7916666666666665,
              "duration": 0.14583333333333334
            },
            {
              "pitch": 67,
              "velocity": 88,
              "position": 4,
              "duration": 0.125
            },
            {
              "pitch": 72,
              "velocity": 91,
              "position": 4,
              "duration": 0.13541666666666666
            },
            {
              "pitch": 67,
              "velocity": 91,
              "position": 4.791666666666667,
              "duration": 0.125
            },
            {
              "pitch": 72,
              "velocity": 88,
              "position": 4.791666666666667,
              "duration": 0.13541666666666666
            },
            {
              "pitch": 64,
              "velocity": 86,
              "position": 6.5,
              "duration": 0.14583333333333334
            },
            {
              "pitch": 67,
              "velocity": 94,
              "position": 7,
              "duration": 0.4791666666666667
            },
            {
              "pitch": 64,
              "velocity": 83,
              "position": 7.5,
              "duration": 0.10416666666666667
            }
          ]
        }
      }
    },
    "Main_D": {
      "type": "Main_D",
      "sizeInBeats": 8,
      "channels": {
        "1": {
          "ctab": {
            "srcChannel": 1,
            "name": "CC_Crash",
            "accType": "SUBRHYTHM",
            "editable": false,
            "mutedNotes": [],
            "mutedChords": [
              "1+2+5",
              "sus4",
              "1+5",
              "1+8",
              "7aug",
              "Maj7aug",
              "7(#9)",
              "7(b13)",
              "7(b9)",
              "7(13)",
              "7#11",
              "7(9)",
              "7b5",
              "7sus4",
              "7th",
              "dim7",
              "dim",
              "minMaj7(9)",
              "minMaj7",
              "min7(11)",
              "min7(9)",
              "min(9)",
              "m7b5",
              "min7",
              "min6",
              "min",
              "aug",
              "Maj6(9)",
              "Maj7(9)",
              "Maj(9)",
              "Maj7#11",
              "Maj7",
              "Maj6",
              "Maj"
            ],
            "autoStart": true,
            "sourceChordNote": 0,
            "sourceChordType": "Maj",
            "ctb2Low": null,
            "ctb2Main": {
              "ntr": "ROOT_FIXED",
              "ntt": "BYPASS",
              "bassOn": false,
              "chordRootUpperLimit": 0,
              "noteLowLimit": 0,
              "noteHighLimit": 127,
              "rtr": "RETRIGGER"
            },
            "ctb2High": null
          },
          "notes": []
        },
        "4": {
          "ctab": {
            "srcChannel": 4,
            "name": "ElecPno",
            "accType": "CHORD1",
            "editable": true,
            "mutedNotes": [],
            "mutedChords": [
              "1+2+5",
              "sus4",
              "1+5",
              "1+8",
              "Maj7aug",
              "dim",
              "minMaj7(9)",
              "minMaj7",
              "min6",
              "min",
              "aug",
              "Maj7(9)",
              "Maj7#11",
              "Maj7",
              "Maj6",
              "Maj"
            ],
            "autoStart": false,
            "sourceChordNote": 0,
            "sourceChordType": "Maj7",
            "ctb2Low": null,
            "ctb2Main": {
              "ntr": "ROOT_TRANSPOSITION",
              "ntt": "CHORD",
              "bassOn": false,
              "chordRootUpperLimit": 10,
              "noteLowLimit": 0,
              "noteHighLimit": 127,
              "rtr": "PITCH_SHIFT"
            },
            "ctb2High": null
          },
          "notes": [
            {
              "pitch": 60,
              "velocity": 85,
              "position": 0,
              "duration": 3.9895833333333335
            },
            {
              "pitch": 60,
              "velocity": 85,
              "position": 4,
              "duration": 3.9895833333333335
            }
          ]
        },
        "5": {
          "ctab": {
            "srcChannel": 5,
            "name": "Strings",
            "accType": "PAD",
            "editable": false,
            "mutedNotes": [],
            "mutedChords": [
              "1+2+5",
              "sus4",
              "1+5",
              "1+8",
              "Maj7aug",
              "dim",
              "minMaj7(9)",
              "minMaj7",
              "min6",
              "min",
              "aug",
              "Maj7(9)",
              "Maj7#11",
              "Maj7",
              "Maj6",
              "Maj"
            ],
            "autoStart": false,
            "sourceChordNote": 0,
            "sourceChordType": "Maj7",
            "ctb2Low": null,
            "ctb2Main": {
              "ntr": "ROOT_TRANSPOSITION",
              "ntt": "CHORD",
              "bassOn": false,
              "chordRootUpperLimit": 2,
              "noteLowLimit": 0,
              "noteHighLimit": 127,
              "rtr": "PITCH_SHIFT"
            },
            "ctb2High": null
          },
          "notes": []
        },
        "8": {
          "ctab": {
            "srcChannel": 8,
            "name": "Perc",
            "accType": "SUBRHYTHM",
            "editable": false,
            "mutedNotes": [],
            "mutedChords": [],
            "autoStart": true,
            "sourceChordNote": 0,
            "sourceChordType": "Maj7",
            "ctb2Low": null,
            "ctb2Main": {
              "ntr": "ROOT_FIXED",
              "ntt": "BYPASS",
              "bassOn": false,
              "chordRootUpperLimit": 6,
              "noteLowLimit": 0,
              "noteHighLimit": 127,
              "rtr": "PITCH_SHIFT"
            },
            "ctb2High": null
          },
          "notes": [
            {
              "pitch": 80,
              "velocity": 35,
              "position": 0,
              "duration": 0.020833333333333332
            },
            {
              "pitch": 54,
              "velocity": 41,
              "position": 0,
              "duration": 0.10416666666666667
            },
            {
              "pitch": 54,
              "velocity": 28,
              "position": 0.3229166666666667,
              "duration": 0.10416666666666667
            },
            {
              "pitch": 54,
              "velocity": 49,
              "position": 0.5,
              "duration": 0.10416666666666667
            },
            {
              "pitch": 54,
              "velocity": 36,
              "position": 0.8229166666666666,
              "duration": 0.10416666666666667
            },
            {
              "pitch": 39,
              "velocity": 81,
              "position": 1,
              "duration": 0.10416666666666667
            },
            {
              "pitch": 54,
              "velocity": 40,
              "position": 1,
              "duration": 0.10416666666666667
            },
            {
              "pitch": 54,
              "velocity": 25,
              "position": 1.3229166666666667,
              "duration": 0.10416666666666667
            },
            {
              "pitch": 54,
              "velocity": 48,
              "position": 1.5,
              "duration": 0.10416666666666667
            },
            {
              "pitch": 54,
              "velocity": 38,
              "position": 1.8229166666666667,
              "duration": 0.10416666666666667
            },
            {
              "pitch": 54,
              "velocity": 40,
              "position": 2,
              "duration": 0.10416666666666667
            },
            {
              "pitch": 54,
              "velocity": 25,
              "position": 2.3229166666666665,
              "duration": 0.10416666666666667
            },
            {
              "pitch": 54,
              "velocity": 48,
              "position": 2.5,
              "duration": 0.10416666666666667
            },
            {
              "pitch": 54,
              "velocity": 35,
              "position": 2.8229166666666665,
              "duration": 0.10416666666666667
            },
            {
              "pitch": 80,
              "velocity": 35,
              "position": 3,
              "duration": 0.020833333333333332
            },
            {
              "pitch": 39,
              "velocity": 75,
              "position": 3,
              "duration": 0.10416666666666667
            },
            {
              "pitch": 54,
              "velocity": 40,
              "position": 3,
              "duration": 0.10416666666666667
            },
            {
              "pitch": 80,
              "velocity": 35,
              "position": 3.3229166666666665,
              "duration": 0.020833333333333332
            },
            {
              "pitch": 54,
              "velocity": 24,
              "position": 3.3229166666666665,
              "duration": 0.10416666666666667
            },
            {
              "pitch": 54,
              "velocity": 48,
              "position": 3.5,
              "duration": 0.10416666666666667
            },
            {
              "pitch": 81,
              "velocity": 36,
              "position": 3.5,
              "duration": 0.10416666666666667
            },
            {
              "pitch": 54,
              "velocity": 35,
              "position": 3.8229166666666665,
              "duration": 0.10416666666666667
            },
            {
              "pitch": 80,
              "velocity": 35,
              "position": 4,
              "duration": 0.020833333333333332
            },
            {
              "pitch": 54,
              "velocity": 41,
              "position": 4,
              "duration": 0.10416666666666667
            },
            {
              "pitch": 54,
              "velocity": 28,
              "position": 4.322916666666667,
              "duration": 0.10416666666666667
            },
            {
              "pitch": 54,
              "velocity": 49,
              "position": 4.5,
              "duration": 0.10416666666666667
            },
            {
              "pitch": 54,
              "velocity": 36,
              "position": 4.822916666666667,
              "duration": 0.10416666666666667
            },
            {
              "pitch": 39,
              "velocity": 80,
              "position": 5,
              "duration": 0.10416666666666667
            },
            {
              "pitch": 54,
              "velocity": 40,
              "position": 5,
              "duration": 0.10416666666666667
            },
            {
              "pitch": 54,
              "velocity": 25,
              "position": 5.322916666666667,
              "duration": 0.10416666666666667
            },
            {
              "pitch": 54,
              "velocity": 48,
              "position": 5.5,
              "duration": 0.10416666666666667
            },
            {
              "pitch": 54,
              "velocity": 38,
              "position": 5.822916666666667,
              "duration": 0.10416666666666667
            },
            {
              "pitch": 81,
              "velocity": 33,
              "position": 5.822916666666667,
              "duration": 0.10416666666666667
            },
            {
              "pitch": 80,
              "velocity": 35,
              "position": 6,
              "duration": 0.020833333333333332
            },
            {
              "pitch": 54,
              "velocity": 40,
              "position": 6,
              "duration": 0.10416666666666667
            },
            {
              "pitch": 80,
              "velocity": 35,
              "position": 6.322916666666667,
              "duration": 0.020833333333333332
            },
            {
              "pitch": 54,
              "velocity": 25,
              "position": 6.322916666666667,
              "duration": 0.10416666666666667
            },
            {
              "pitch": 54,
              "velocity": 48,
              "position": 6.5,
              "duration": 0.10416666666666667
            },
            {
              "pitch": 81,
              "velocity": 36,
              "position": 6.5,
              "duration": 0.10416666666666667
            },
            {
              "pitch": 54,
              "velocity": 35,
              "position": 6.822916666666667,
              "duration": 0.10416666666666667
            },
            {
              "pitch": 80,
              "velocity": 35,
              "position": 7,
              "duration": 0.020833333333333332
            },
            {
              "pitch": 39,
              "velocity": 79,
              "position": 7,
              "duration": 0.10416666666666667
            },
            {
              "pitch": 54,
              "velocity": 40,
              "position": 7,
              "duration": 0.10416666666666667
            },
            {
              "pitch": 80,
              "velocity": 35,
              "position": 7.322916666666667,
              "duration": 0.020833333333333332
            },
            {
              "pitch": 54,
              "velocity": 24,
              "position": 7.322916666666667,
              "duration": 0.10416666666666667
            },
            {
              "pitch": 54,
              "velocity": 48,
              "position": 7.5,
              "duration": 0.10416666666666667
            },
            {
              "pitch": 81,
              "velocity": 36,
              "position": 7.5,
              "duration": 0.10416666666666667
            },
            {
              "pitch": 54,
              "velocity": 35,
              "position": 7.822916666666667,
              "duration": 0.10416666666666667
            }
          ]
        },
        "9": {
          "ctab": {
            "srcChannel": 9,
            "name": "Drum",
            "accType": "RHYTHM",
            "editable": false,
            "mutedNotes": [],
            "mutedChords": [],
            "autoStart": true,
            "sourceChordNote": 0,
            "sourceChordType": "Maj7",
            "ctb2Low": null,
            "ctb2Main": {
              "ntr": "ROOT_FIXED",
              "ntt": "BYPASS",
              "bassOn": false,
              "chordRootUpperLimit": 6,
              "noteLowLimit": 0,
              "noteHighLimit": 127,
              "rtr": "PITCH_SHIFT"
            },
            "ctb2High": null
          },
          "notes": [
            {
              "pitch": 36,
              "velocity": 88,
              "position": 0,
              "duration": 0.10416666666666667
            },
            {
              "pitch": 42,
              "velocity": 87,
              "position": 0,
              "duration": 0.10416666666666667
            },
            {
              "pitch": 46,
              "velocity": 54,
              "position": 0.5,
              "duration": 0.10416666666666667
            },
            {
              "pitch": 34,
              "velocity": 64,
              "position": 1,
              "duration": 0.10416666666666667
            },
            {
              "pitch": 42,
              "velocity": 89,
              "position": 1,
              "duration": 0.10416666666666667
            },
            {
              "pitch": 42,
              "velocity": 71,
              "position": 1.5,
              "duration": 0.10416666666666667
            },
            {
              "pitch": 42,
              "velocity": 33,
              "position": 1.8125,
              "duration": 0.10416666666666667
            },
            {
              "pitch": 36,
              "velocity": 43,
              "position": 1.84375,
              "duration": 0.10416666666666667
            },
            {
              "pitch": 36,
              "velocity": 84,
              "position": 2,
              "duration": 0.10416666666666667
            },
            {
              "pitch": 42,
              "velocity": 86,
              "position": 2,
              "duration": 0.10416666666666667
            },
            {
              "pitch": 42,
              "velocity": 62,
              "position": 2.5,
              "duration": 0.10416666666666667
            },
            {
              "pitch": 42,
              "velocity": 33,
              "position": 2.8125,
              "duration": 0.10416666666666667
            },
            {
              "pitch": 34,
              "velocity": 64,
              "position": 3,
              "duration": 0.10416666666666667
            },
            {
              "pitch": 42,
              "velocity": 83,
              "position": 3,
              "duration": 0.10416666666666667
            },
            {
              "pitch": 42,
              "velocity": 71,
              "position": 3.5,
              "duration": 0.10416666666666667
            },
            {
              "pitch": 42,
              "velocity": 33,
              "position": 3.8125,
              "duration": 0.10416666666666667
            },
            {
              "pitch": 36,
              "velocity": 52,
              "position": 3.84375,
              "duration": 0.10416666666666667
            },
            {
              "pitch": 36,
              "velocity": 88,
              "position": 4,
              "duration": 0.10416666666666667
            },
            {
              "pitch": 42,
              "velocity": 88,
              "position": 4,
              "duration": 0.10416666666666667
            },
            {
              "pitch": 46,
              "velocity": 54,
              "position": 4.5,
              "duration": 0.10416666666666667
            },
            {
              "pitch": 34,
              "velocity": 64,
              "position": 5,
              "duration": 0.10416666666666667
            },
            {
              "pitch": 42,
              "velocity": 88,
              "position": 5,
              "duration": 0.10416666666666667
            },
            {
              "pitch": 42,
              "velocity": 88,
              "position": 5.5,
              "duration": 0.10416666666666667
            },
            {
              "pitch": 42,
              "velocity": 33,
              "position": 5.8125,
              "duration": 0.10416666666666667
            },
            {
              "pitch": 36,
              "velocity": 73,
              "position": 5.822916666666667,
              "duration": 0.10416666666666667
            },
            {
              "pitch": 36,
              "velocity": 84,
              "position": 6,
              "duration": 0.10416666666666667
            },
            {
              "pitch": 42,
              "velocity": 73,
              "position": 6,
              "duration": 0.10416666666666667
            },
            {
              "pitch": 42,
              "velocity": 33,
              "position": 6.3125,
              "duration": 0.10416666666666667
            },
            {
              "pitch": 36,
              "velocity": 88,
              "position": 6.5,
              "duration": 0.10416666666666667
            },
            {
              "pitch": 42,
              "velocity": 62,
              "position": 6.5,
              "duration": 0.10416666666666667
            },
            {
              "pitch": 42,
              "velocity": 33,
              "position": 6.8125,
              "duration": 0.10416666666666667
            },
            {
              "pitch": 34,
              "velocity": 64,
              "position": 7,
              "duration": 0.10416666666666667
            },
            {
              "pitch": 42,
              "velocity": 88,
              "position": 7,
              "duration": 0.10416666666666667
            },
            {
              "pitch": 36,
              "velocity": 87,
              "position": 7.5,
              "duration": 0.10416666666666667
            },
            {
              "pitch": 42,
              "velocity": 95,
              "position": 7.5,
              "duration": 0.10416666666666667
            },
            {
              "pitch": 42,
              "velocity": 33,
              "position": 7.8125,
              "duration": 0.10416666666666667
            }
          ]
        },
        "10": {
          "ctab": {
            "srcChannel": 10,
            "name": "SynBass",
            "accType": "BASS",
            "editable": false,
            "mutedNotes": [],
            "mutedChords": [],
            "autoStart": false,
            "sourceChordNote": 0,
            "sourceChordType": "Maj7",
            "ctb2Low": null,
            "ctb2Main": {
              "ntr": "ROOT_TRANSPOSITION",
              "ntt": "MELODY",
              "bassOn": true,
              "chordRootUpperLimit": 5,
              "noteLowLimit": 28,
              "noteHighLimit": 49,
              "rtr": "PITCH_SHIFT_TO_ROOT"
            },
            "ctb2High": null
          },
          "notes": [
            {
              "pitch": 24,
              "velocity": 100,
              "position": 0,
              "duration": 0.53125
            },
            {
              "pitch": 35,
              "velocity": 100,
              "position": 3.8125,
              "duration": 0.16666666666666666
            },
            {
              "pitch": 24,
              "velocity": 100,
              "position": 4,
              "duration": 0.4895833333333333
            },
            {
              "pitch": 24,
              "velocity": 100,
              "position": 6.5,
              "duration": 0.28125
            },
            {
              "pitch": 31,
              "velocity": 100,
              "position": 6.8125,
              "duration": 0.15625
            },
            {
              "pitch": 35,
              "velocity": 100,
              "position": 7.3125,
              "duration": 0.20833333333333334
            },
            {
              "pitch": 31,
              "velocity": 100,
              "position": 7.5,
              "duration": 0.4583333333333333
            }
          ]
        },
        "11": {
          "ctab": {
            "srcChannel": 11,
            "name": "Clavi",
            "accType": "CHORD2",
            "editable": false,
            "mutedNotes": [],
            "mutedChords": [],
            "autoStart": false,
            "sourceChordNote": 0,
            "sourceChordType": "Maj7",
            "ctb2Low": null,
            "ctb2Main": {
              "ntr": "ROOT_TRANSPOSITION",
              "ntt": "CHORD",
              "bassOn": false,
              "chordRootUpperLimit": 10,
              "noteLowLimit": 0,
              "noteHighLimit": 127,
              "rtr": "PITCH_SHIFT"
            },
            "ctb2High": null
          },
          "notes": [
            {
              "pitch": 48,
              "velocity": 91,
              "position": 0,
              "duration": 0.2604166666666667
            },
            {
              "pitch": 48,
              "velocity": 91,
              "position": 0.5,
              "duration": 0.25
            },
            {
              "pitch": 48,
              "velocity": 92,
              "position": 1,
              "duration": 0.25
            },
            {
              "pitch": 48,
              "velocity": 89,
              "position": 1.5,
              "duration": 0.2916666666666667
            },
            {
              "pitch": 55,
              "velocity": 79,
              "position": 1.5,
              "duration": 0.34375
            },
            {
              "pitch": 52,
              "velocity": 69,
              "position": 1.8125,
              "duration": 0.17708333333333334
            },
            {
              "pitch": 48,
              "velocity": 89,
              "position": 2,
              "duration": 0.25
            },
            {
              "pitch": 48,
              "velocity": 91,
              "position": 2.5,
              "duration": 0.2708333333333333
            },
            {
              "pitch": 52,
              "velocity": 76,
              "position": 2.8125,
              "duration": 0.08333333333333333
            },
            {
              "pitch": 48,
              "velocity": 91,
              "position": 3,
              "duration": 0.25
            },
            {
              "pitch": 52,
              "velocity": 76,
              "position": 3.3125,
              "duration": 0.10416666666666667
            },
            {
              "pitch": 48,
              "velocity": 90,
              "position": 3.5,
              "duration": 0.25
            },
            {
              "pitch": 48,
              "velocity": 88,
              "position": 4,
              "duration": 0.22916666666666666
            },
            {
              "pitch": 48,
              "velocity": 87,
              "position": 4.5,
              "duration": 0.23958333333333334
            },
            {
              "pitch": 55,
              "velocity": 69,
              "position": 4.8125,
              "duration": 0.08333333333333333
            },
            {
              "pitch": 48,
              "velocity": 88,
              "position": 5,
              "duration": 0.25
            },
            {
              "pitch": 55,
              "velocity": 69,
              "position": 5.3125,
              "duration": 0.08333333333333333
            },
            {
              "pitch": 48,
              "velocity": 89,
              "position": 5.5,
              "duration": 0.21875
            },
            {
              "pitch": 48,
              "velocity": 91,
              "position": 6,
              "duration": 0.2604166666666667
            },
            {
              "pitch": 52,
              "velocity": 76,
              "position": 6,
              "duration": 0.3333333333333333
            },
            {
              "pitch": 55,
              "velocity": 85,
              "position": 6.3125,
              "duration": 0.08333333333333333
            },
            {
              "pitch": 48,
              "velocity": 91,
              "position": 6.5,
              "duration": 0.22916666666666666
            },
            {
              "pitch": 48,
              "velocity": 91,
              "position": 7,
              "duration": 0.21875
            },
            {
              "pitch": 48,
              "velocity": 92,
              "position": 7.5,
              "duration": 0.2604166666666667
            },
            {
              "pitch": 52,
              "velocity": 85,
              "position": 7.8125,
              "duration": 0.08333333333333333
            }
          ]
        },
        "12": {
          "ctab": {
            "srcChannel": 12,
            "name": "ElecPno",
            "accType": "CHORD1",
            "editable": false,
            "mutedNotes": [],
            "mutedChords": [],
            "autoStart": false,
            "sourceChordNote": 0,
            "sourceChordType": "Maj7",
            "ctb2Low": null,
            "ctb2Main": {
              "ntr": "ROOT_FIXED",
              "ntt": "CHORD",
              "bassOn": false,
              "chordRootUpperLimit": 7,
              "noteLowLimit": 0,
              "noteHighLimit": 127,
              "rtr": "PITCH_SHIFT"
            },
            "ctb2High": null
          },
          "notes": [
            {
              "pitch": 59,
              "velocity": 74,
              "position": 0,
              "duration": 3.9895833333333335
            },
            {
              "pitch": 64,
              "velocity": 74,
              "position": 0,
              "duration": 3.9895833333333335
            },
            {
              "pitch": 67,
              "velocity": 74,
              "position": 0,
              "duration": 3.9895833333333335
            },
            {
              "pitch": 67,
              "velocity": 74,
              "position": 4,
              "duration": 2.4895833333333335
            },
            {
              "pitch": 64,
              "velocity": 74,
              "position": 4,
              "duration": 3.28125
            },
            {
              "pitch": 64,
              "velocity": 74,
              "position": 7.291666666666667,
              "duration": 0.6875
            },
            {
              "pitch": 59,
              "velocity": 74,
              "position": 4,
              "duration": 3.9895833333333335
            },
            {
              "pitch": 67,
              "velocity": 74,
              "position": 6.510416666666667,
              "duration": 1.4791666666666667
            }
          ]
        },
        "13": {
          "ctab": {
            "srcChannel": 13,
            "name": "Strings",
            "accType": "PAD",
            "editable": false,
            "mutedNotes": [],
            "mutedChords": [],
            "autoStart": false,
            "sourceChordNote": 0,
            "sourceChordType": "Maj7",
            "ctb2Low": null,
            "ctb2Main": {
              "ntr": "ROOT_FIXED",
              "ntt": "CHORD",
              "bassOn": false,
              "chordRootUpperLimit": 7,
              "noteLowLimit": 0,
              "noteHighLimit": 79,
              "rtr": "PITCH_SHIFT"
            },
            "ctb2High": null
          },
          "notes": [
            {
              "pitch": 72,
              "velocity": 100,
              "position": 0.010416666666666666,
              "duration": 0.21875
            },
            {
              "pitch": 84,
              "velocity": 100,
              "position": 0.010416666666666666,
              "duration": 0.21875
            },
            {
              "pitch": 72,
              "velocity": 100,
              "position": 0.9895833333333334,
              "duration": 0.21875
            },
            {
              "pitch": 84,
              "velocity": 100,
              "position": 0.9895833333333334,
              "duration": 0.21875
            },
            {
              "pitch": 72,
              "velocity": 100,
              "position": 1.9895833333333333,
              "duration": 0.21875
            },
            {
              "pitch": 84,
              "velocity": 100,
              "position": 1.9895833333333333,
              "duration": 0.21875
            },
            {
              "pitch": 72,
              "velocity": 100,
              "position": 2.9895833333333335,
              "duration": 0.21875
            },
            {
              "pitch": 84,
              "velocity": 100,
              "position": 2.9895833333333335,
              "duration": 0.21875
            },
            {
              "pitch": 72,
              "velocity": 100,
              "position": 3.9895833333333335,
              "duration": 0.21875
            },
            {
              "pitch": 84,
              "velocity": 100,
              "position": 3.9895833333333335,
              "duration": 0.21875
            },
            {
              "pitch": 72,
              "velocity": 100,
              "position": 4.989583333333333,
              "duration": 0.21875
            },
            {
              "pitch": 84,
              "velocity": 100,
              "position": 4.989583333333333,
              "duration": 0.21875
            },
            {
              "pitch": 72,
              "velocity": 100,
              "position": 5.989583333333333,
              "duration": 0.21875
            },
            {
              "pitch": 84,
              "velocity": 100,
              "position": 5.989583333333333,
              "duration": 0.21875
            },
            {
              "pitch": 72,
              "velocity": 100,
              "position": 6.989583333333333,
              "duration": 0.21875
            },
            {
              "pitch": 84,
              "velocity": 100,
              "position": 6.989583333333333,
              "duration": 0.21875
            }
          ]
        },
        "14": {
          "ctab": {
            "srcChannel": 14,
            "name": "Brass",
            "accType": "PHRASE1",
            "editable": false,
            "mutedNotes": [],
            "mutedChords": [],
            "autoStart": false,
            "sourceChordNote": 0,
            "sourceChordType": "Maj7",
            "ctb2Low": null,
            "ctb2Main": {
              "ntr": "ROOT_TRANSPOSITION",
              "ntt": "MELODY",
              "bassOn": false,
              "chordRootUpperLimit": 6,
              "noteLowLimit": 0,
              "noteHighLimit": 127,
              "rtr": "PITCH_SHIFT"
            },
            "ctb2High": null
          },
          "notes": [
            {
              "pitch": 67,
              "velocity": 80,
              "position": 0,
              "duration": 0.28125
            },
            {
              "pitch": 72,
              "velocity": 80,
              "position": 0,
              "duration": 0.28125
            },
            {
              "pitch": 67,
              "velocity": 80,
              "position": 0.7916666666666666,
              "duration": 0.1875
            },
            {
              "pitch": 72,
              "velocity": 80,
              "position": 0.7916666666666666,
              "duration": 0.1875
            },
            {
              "pitch": 64,
              "velocity": 74,
              "position": 6.5,
              "duration": 0.15625
            },
            {
              "pitch": 67,
              "velocity": 79,
              "position": 7,
              "duration": 0.46875
            },
            {
              "pitch": 71,
              "velocity": 73,
              "position": 7.5,
              "duration": 0.16666666666666666
            }
          ]
        }
      }
    },
    "Fill_In_CC": {
      "type": "Fill_In_CC",
      "sizeInBeats": 4,
      "channels": {
        "1": {
          "ctab": {
            "srcChannel": 1,
            "name": "CC_Crash",
            "accType": "SUBRHYTHM",
            "editable": false,
            "mutedNotes": [],
            "mutedChords": [
              "1+2+5",
              "sus4",
              "1+5",
              "1+8",
              "7aug",
              "Maj7aug",
              "7(#9)",
              "7(b13)",
              "7(b9)",
              "7(13)",
              "7#11",
              "7(9)",
              "7b5",
              "7sus4",
              "7th",
              "dim7",
              "dim",
              "minMaj7(9)",
              "minMaj7",
              "min7(11)",
              "min7(9)",
              "min(9)",
              "m7b5",
              "min7",
              "min6",
              "min",
              "aug",
              "Maj6(9)",
              "Maj7(9)",
              "Maj(9)",
              "Maj7#11",
              "Maj7",
              "Maj6",
              "Maj"
            ],
            "autoStart": true,
            "sourceChordNote": 0,
            "sourceChordType": "Maj",
            "ctb2Low": null,
            "ctb2Main": {
              "ntr": "ROOT_FIXED",
              "ntt": "BYPASS",
              "bassOn": false,
              "chordRootUpperLimit": 0,
              "noteLowLimit": 0,
              "noteHighLimit": 127,
              "rtr": "RETRIGGER"
            },
            "ctb2High": null
          },
          "notes": []
        },
        "4": {
          "ctab": {
            "srcChannel": 4,
            "name": "ElecPno",
            "accType": "CHORD1",
            "editable": true,
            "mutedNotes": [],
            "mutedChords": [
              "1+2+5",
              "sus4",
              "1+5",
              "1+8",
              "Maj7aug",
              "dim",
              "minMaj7(9)",
              "minMaj7",
              "min6",
              "min",
              "aug",
              "Maj7(9)",
              "Maj7#11",
              "Maj7",
              "Maj6",
              "Maj"
            ],
            "autoStart": false,
            "sourceChordNote": 0,
            "sourceChordType": "Maj7",
            "ctb2Low": null,
            "ctb2Main": {
              "ntr": "ROOT_TRANSPOSITION",
              "ntt": "CHORD",
              "bassOn": false,
              "chordRootUpperLimit": 10,
              "noteLowLimit": 0,
              "noteHighLimit": 127,
              "rtr": "PITCH_SHIFT"
            },
            "ctb2High": null
          },
          "notes": [
            {
              "pitch": 60,
              "velocity": 85,
              "position": 0,
              "duration": 0.20833333333333334
            },
            {
              "pitch": 60,
              "velocity": 85,
              "position": 0.5,
              "duration": 0.20833333333333334
            },
            {
              "pitch": 60,
              "velocity": 69,
              "position": 1,
              "duration": 0.20833333333333334
            },
            {
              "pitch": 60,
              "velocity": 85,
              "position": 1.5,
              "duration": 0.20833333333333334
            },
            {
              "pitch": 60,
              "velocity": 85,
              "position": 2,
              "duration": 0.20833333333333334
            },
            {
              "pitch": 60,
              "velocity": 85,
              "position": 2.5,
              "duration": 0.20833333333333334
            },
            {
              "pitch": 60,
              "velocity": 69,
              "position": 3,
              "duration": 0.20833333333333334
            },
            {
              "pitch": 60,
              "velocity": 85,
              "position": 3.5,
              "duration": 0.20833333333333334
            }
          ]
        },
        "5": {
          "ctab": {
            "srcChannel": 5,
            "name": "Strings",
            "accType": "PAD",
            "editable": false,
            "mutedNotes": [],
            "mutedChords": [
              "1+2+5",
              "sus4",
              "1+5",
              "1+8",
              "Maj7aug",
              "dim",
              "minMaj7(9)",
              "minMaj7",
              "min6",
              "min",
              "aug",
              "Maj7(9)",
              "Maj7#11",
              "Maj7",
              "Maj6",
              "Maj"
            ],
            "autoStart": false,
            "sourceChordNote": 0,
            "sourceChordType": "Maj7",
            "ctb2Low": null,
            "ctb2Main": {
              "ntr": "ROOT_TRANSPOSITION",
              "ntt": "CHORD",
              "bassOn": false,
              "chordRootUpperLimit": 2,
              "noteLowLimit": 0,
              "noteHighLimit": 127,
              "rtr": "PITCH_SHIFT"
            },
            "ctb2High": null
          },
          "notes": [
            {
              "pitch": 72,
              "velocity": 64,
              "position": 0,
              "duration": 3.9895833333333335
            }
          ]
        },
        "8": {
          "ctab": {
            "srcChannel": 8,
            "name": "Perc",
            "accType": "SUBRHYTHM",
            "editable": false,
            "mutedNotes": [],
            "mutedChords": [],
            "autoStart": true,
            "sourceChordNote": 0,
            "sourceChordType": "Maj7",
            "ctb2Low": null,
            "ctb2Main": {
              "ntr": "ROOT_FIXED",
              "ntt": "BYPASS",
              "bassOn": false,
              "chordRootUpperLimit": 6,
              "noteLowLimit": 0,
              "noteHighLimit": 127,
              "rtr": "PITCH_SHIFT"
            },
            "ctb2High": null
          },
          "notes": [
            {
              "pitch": 80,
              "velocity": 35,
              "position": 0,
              "duration": 0.020833333333333332
            },
            {
              "pitch": 54,
              "velocity": 41,
              "position": 0,
              "duration": 0.10416666666666667
            },
            {
              "pitch": 54,
              "velocity": 28,
              "position": 0.3229166666666667,
              "duration": 0.10416666666666667
            },
            {
              "pitch": 54,
              "velocity": 49,
              "position": 0.5,
              "duration": 0.10416666666666667
            },
            {
              "pitch": 54,
              "velocity": 36,
              "position": 0.8229166666666666,
              "duration": 0.10416666666666667
            },
            {
              "pitch": 39,
              "velocity": 80,
              "position": 1,
              "duration": 0.10416666666666667
            },
            {
              "pitch": 54,
              "velocity": 40,
              "position": 1,
              "duration": 0.10416666666666667
            },
            {
              "pitch": 54,
              "velocity": 25,
              "position": 1.3229166666666667,
              "duration": 0.10416666666666667
            },
            {
              "pitch": 54,
              "velocity": 48,
              "position": 1.5,
              "duration": 0.10416666666666667
            },
            {
              "pitch": 54,
              "velocity": 38,
              "position": 1.8229166666666667,
              "duration": 0.10416666666666667
            },
            {
              "pitch": 81,
              "velocity": 33,
              "position": 1.8229166666666667,
              "duration": 0.10416666666666667
            },
            {
              "pitch": 80,
              "velocity": 35,
              "position": 2,
              "duration": 0.020833333333333332
            },
            {
              "pitch": 54,
              "velocity": 40,
              "position": 2,
              "duration": 0.10416666666666667
            },
            {
              "pitch": 80,
              "velocity": 35,
              "position": 2.3229166666666665,
              "duration": 0.020833333333333332
            },
            {
              "pitch": 54,
              "velocity": 25,
              "position": 2.3229166666666665,
              "duration": 0.10416666666666667
            },
            {
              "pitch": 55,
              "velocity": 51,
              "position": 2.5,
              "duration": 0.010416666666666666
            },
            {
              "pitch": 54,
              "velocity": 48,
              "position": 2.5,
              "duration": 0.10416666666666667
            },
            {
              "pitch": 81,
              "velocity": 36,
              "position": 2.5,
              "duration": 0.10416666666666667
            },
            {
              "pitch": 54,
              "velocity": 35,
              "position": 2.8229166666666665,
              "duration": 0.10416666666666667
            },
            {
              "pitch": 80,
              "velocity": 35,
              "position": 3,
              "duration": 0.020833333333333332
            },
            {
              "pitch": 39,
              "velocity": 79,
              "position": 3,
              "duration": 0.10416666666666667
            },
            {
              "pitch": 54,
              "velocity": 40,
              "position": 3,
              "duration": 0.10416666666666667
            },
            {
              "pitch": 80,
              "velocity": 35,
              "position": 3.3229166666666665,
              "duration": 0.020833333333333332
            },
            {
              "pitch": 54,
              "velocity": 24,
              "position": 3.3229166666666665,
              "duration": 0.10416666666666667
            },
            {
              "pitch": 54,
              "velocity": 48,
              "position": 3.5,
              "duration": 0.10416666666666667
            },
            {
              "pitch": 81,
              "velocity": 36,
              "position": 3.5,
              "duration": 0.10416666666666667
            },
            {
              "pitch": 54,
              "velocity": 35,
              "position": 3.8229166666666665,
              "duration": 0.10416666666666667
            }
          ]
        },
        "9": {
          "ctab": {
            "srcChannel": 9,
            "name": "Drum",
            "accType": "RHYTHM",
            "editable": false,
            "mutedNotes": [],
            "mutedChords": [],
            "autoStart": true,
            "sourceChordNote": 0,
            "sourceChordType": "Maj7",
            "ctb2Low": null,
            "ctb2Main": {
              "ntr": "ROOT_FIXED",
              "ntt": "BYPASS",
              "bassOn": false,
              "chordRootUpperLimit": 6,
              "noteLowLimit": 0,
              "noteHighLimit": 127,
              "rtr": "PITCH_SHIFT"
            },
            "ctb2High": null
          },
          "notes": [
            {
              "pitch": 36,
              "velocity": 88,
              "position": 0,
              "duration": 0.10416666666666667
            },
            {
              "pitch": 42,
              "velocity": 88,
              "position": 0,
              "duration": 0.10416666666666667
            },
            {
              "pitch": 34,
              "velocity": 61,
              "position": 0.5,
              "duration": 0.10416666666666667
            },
            {
              "pitch": 46,
              "velocity": 54,
              "position": 0.5,
              "duration": 0.10416666666666667
            },
            {
              "pitch": 36,
              "velocity": 61,
              "position": 0.8229166666666666,
              "duration": 0.10416666666666667
            },
            {
              "pitch": 34,
              "velocity": 64,
              "position": 1,
              "duration": 0.10416666666666667
            },
            {
              "pitch": 42,
              "velocity": 88,
              "position": 1,
              "duration": 0.10416666666666667
            },
            {
              "pitch": 42,
              "velocity": 88,
              "position": 1.5,
              "duration": 0.10416666666666667
            },
            {
              "pitch": 34,
              "velocity": 18,
              "position": 1.75,
              "duration": 0.10416666666666667
            },
            {
              "pitch": 42,
              "velocity": 33,
              "position": 1.8125,
              "duration": 0.10416666666666667
            },
            {
              "pitch": 34,
              "velocity": 48,
              "position": 1.875,
              "duration": 0.10416666666666667
            },
            {
              "pitch": 34,
              "velocity": 64,
              "position": 2,
              "duration": 0.10416666666666667
            },
            {
              "pitch": 42,
              "velocity": 73,
              "position": 2,
              "duration": 0.10416666666666667
            },
            {
              "pitch": 42,
              "velocity": 33,
              "position": 2.3125,
              "duration": 0.10416666666666667
            },
            {
              "pitch": 34,
              "velocity": 64,
              "position": 2.5,
              "duration": 0.10416666666666667
            },
            {
              "pitch": 36,
              "velocity": 88,
              "position": 2.5,
              "duration": 0.10416666666666667
            },
            {
              "pitch": 46,
              "velocity": 54,
              "position": 2.5,
              "duration": 0.10416666666666667
            },
            {
              "pitch": 34,
              "velocity": 64,
              "position": 3,
              "duration": 0.10416666666666667
            },
            {
              "pitch": 42,
              "velocity": 88,
              "position": 3,
              "duration": 0.10416666666666667
            },
            {
              "pitch": 34,
              "velocity": 61,
              "position": 3.5,
              "duration": 0.10416666666666667
            },
            {
              "pitch": 36,
              "velocity": 81,
              "position": 3.5,
              "duration": 0.10416666666666667
            },
            {
              "pitch": 46,
              "velocity": 54,
              "position": 3.5,
              "duration": 0.10416666666666667
            },
            {
              "pitch": 34,
              "velocity": 64,
              "position": 3.8229166666666665,
              "duration": 0.10416666666666667
            }
          ]
        },
        "10": {
          "ctab": {
            "srcChannel": 10,
            "name": "SynBass",
            "accType": "BASS",
            "editable": false,
            "mutedNotes": [],
            "mutedChords": [],
            "autoStart": false,
            "sourceChordNote": 0,
            "sourceChordType": "Maj7",
            "ctb2Low": null,
            "ctb2Main": {
              "ntr": "ROOT_TRANSPOSITION",
              "ntt": "MELODY",
              "bassOn": true,
              "chordRootUpperLimit": 5,
              "noteLowLimit": 28,
              "noteHighLimit": 49,
              "rtr": "PITCH_SHIFT_TO_ROOT"
            },
            "ctb2High": null
          },
          "notes": [
            {
              "pitch": 24,
              "velocity": 100,
              "position": 0,
              "duration": 0.25
            },
            {
              "pitch": 24,
              "velocity": 100,
              "position": 0.5,
              "duration": 0.25
            },
            {
              "pitch": 24,
              "velocity": 100,
              "position": 1,
              "duration": 0.2708333333333333
            },
            {
              "pitch": 24,
              "velocity": 100,
              "position": 1.5,
              "duration": 0.3229166666666667
            },
            {
              "pitch": 31,
              "velocity": 100,
              "position": 1.8229166666666667,
              "duration": 0.25
            },
            {
              "pitch": 35,
              "velocity": 100,
              "position": 2,
              "duration": 0.3125
            },
            {
              "pitch": 31,
              "velocity": 100,
              "position": 2.3229166666666665,
              "duration": 0.14583333333333334
            },
            {
              "pitch": 40,
              "velocity": 100,
              "position": 2.5,
              "duration": 0.3125
            },
            {
              "pitch": 31,
              "velocity": 100,
              "position": 3,
              "duration": 0.3125
            },
            {
              "pitch": 24,
              "velocity": 100,
              "position": 3.3229166666666665,
              "duration": 0.15625
            },
            {
              "pitch": 23,
              "velocity": 100,
              "position": 3.5,
              "duration": 0.4479166666666667
            }
          ]
        },
        "11": {
          "ctab": {
            "srcChannel": 11,
            "name": "Clavi",
            "accType": "CHORD2",
            "editable": false,
            "mutedNotes": [],
            "mutedChords": [],
            "autoStart": false,
            "sourceChordNote": 0,
            "sourceChordType": "Maj7",
            "ctb2Low": null,
            "ctb2Main": {
              "ntr": "ROOT_TRANSPOSITION",
              "ntt": "CHORD",
              "bassOn": false,
              "chordRootUpperLimit": 10,
              "noteLowLimit": 0,
              "noteHighLimit": 127,
              "rtr": "PITCH_SHIFT"
            },
            "ctb2High": null
          },
          "notes": [
            {
              "pitch": 43,
              "velocity": 88,
              "position": 0,
              "duration": 0.4270833333333333
            },
            {
              "pitch": 52,
              "velocity": 84,
              "position": 0.5,
              "duration": 0.23958333333333334
            },
            {
              "pitch": 47,
              "velocity": 88,
              "position": 0.5,
              "duration": 0.2604166666666667
            },
            {
              "pitch": 43,
              "velocity": 84,
              "position": 0.8125,
              "duration": 0.16666666666666666
            },
            {
              "pitch": 47,
              "velocity": 79,
              "position": 1,
              "duration": 0.22916666666666666
            },
            {
              "pitch": 52,
              "velocity": 80,
              "position": 1,
              "duration": 0.22916666666666666
            },
            {
              "pitch": 47,
              "velocity": 76,
              "position": 1.5,
              "duration": 0.23958333333333334
            },
            {
              "pitch": 52,
              "velocity": 74,
              "position": 1.5,
              "duration": 0.23958333333333334
            },
            {
              "pitch": 43,
              "velocity": 83,
              "position": 1.8125,
              "duration": 0.08333333333333333
            },
            {
              "pitch": 47,
              "velocity": 76,
              "position": 2,
              "duration": 0.23958333333333334
            },
            {
              "pitch": 52,
              "velocity": 74,
              "position": 2,
              "duration": 0.23958333333333334
            },
            {
              "pitch": 43,
              "velocity": 83,
              "position": 2.3125,
              "duration": 0.08333333333333333
            },
            {
              "pitch": 47,
              "velocity": 76,
              "position": 2.5,
              "duration": 0.23958333333333334
            },
            {
              "pitch": 52,
              "velocity": 74,
              "position": 2.5,
              "duration": 0.23958333333333334
            },
            {
              "pitch": 43,
              "velocity": 83,
              "position": 2.8125,
              "duration": 0.09375
            },
            {
              "pitch": 47,
              "velocity": 84,
              "position": 3,
              "duration": 0.28125
            },
            {
              "pitch": 48,
              "velocity": 87,
              "position": 3.3125,
              "duration": 0.1875
            },
            {
              "pitch": 43,
              "velocity": 83,
              "position": 3.5,
              "duration": 0.09375
            },
            {
              "pitch": 52,
              "velocity": 92,
              "position": 3.8125,
              "duration": 0.17708333333333334
            }
          ]
        },
        "12": {
          "ctab": {
            "srcChannel": 12,
            "name": "ElecPno",
            "accType": "CHORD1",
            "editable": false,
            "mutedNotes": [],
            "mutedChords": [],
            "autoStart": false,
            "sourceChordNote": 0,
            "sourceChordType": "Maj7",
            "ctb2Low": null,
            "ctb2Main": {
              "ntr": "ROOT_FIXED",
              "ntt": "CHORD",
              "bassOn": false,
              "chordRootUpperLimit": 7,
              "noteLowLimit": 0,
              "noteHighLimit": 127,
              "rtr": "PITCH_SHIFT"
            },
            "ctb2High": null
          },
          "notes": [
            {
              "pitch": 59,
              "velocity": 85,
              "position": 0,
              "duration": 0.20833333333333334
            },
            {
              "pitch": 64,
              "velocity": 85,
              "position": 0,
              "duration": 0.20833333333333334
            },
            {
              "pitch": 67,
              "velocity": 85,
              "position": 0,
              "duration": 0.20833333333333334
            },
            {
              "pitch": 59,
              "velocity": 85,
              "position": 0.5,
              "duration": 0.20833333333333334
            },
            {
              "pitch": 64,
              "velocity": 85,
              "position": 0.5,
              "duration": 0.20833333333333334
            },
            {
              "pitch": 67,
              "velocity": 85,
              "position": 0.5,
              "duration": 0.20833333333333334
            },
            {
              "pitch": 59,
              "velocity": 69,
              "position": 1,
              "duration": 0.20833333333333334
            },
            {
              "pitch": 64,
              "velocity": 69,
              "position": 1,
              "duration": 0.20833333333333334
            },
            {
              "pitch": 67,
              "velocity": 69,
              "position": 1,
              "duration": 0.20833333333333334
            },
            {
              "pitch": 59,
              "velocity": 85,
              "position": 1.5,
              "duration": 0.20833333333333334
            },
            {
              "pitch": 64,
              "velocity": 85,
              "position": 1.5,
              "duration": 0.20833333333333334
            },
            {
              "pitch": 67,
              "velocity": 85,
              "position": 1.5,
              "duration": 0.20833333333333334
            },
            {
              "pitch": 59,
              "velocity": 85,
              "position": 2,
              "duration": 0.20833333333333334
            },
            {
              "pitch": 64,
              "velocity": 85,
              "position": 2,
              "duration": 0.20833333333333334
            },
            {
              "pitch": 67,
              "velocity": 85,
              "position": 2,
              "duration": 0.20833333333333334
            },
            {
              "pitch": 59,
              "velocity": 85,
              "position": 2.5,
              "duration": 0.20833333333333334
            },
            {
              "pitch": 64,
              "velocity": 85,
              "position": 2.5,
              "duration": 0.20833333333333334
            },
            {
              "pitch": 67,
              "velocity": 85,
              "position": 2.5,
              "duration": 0.20833333333333334
            },
            {
              "pitch": 59,
              "velocity": 69,
              "position": 3,
              "duration": 0.20833333333333334
            },
            {
              "pitch": 64,
              "velocity": 69,
              "position": 3,
              "duration": 0.20833333333333334
            },
            {
              "pitch": 67,
              "velocity": 69,
              "position": 3,
              "duration": 0.20833333333333334
            },
            {
              "pitch": 59,
              "velocity": 85,
              "position": 3.5,
              "duration": 0.20833333333333334
            },
            {
              "pitch": 64,
              "velocity": 85,
              "position": 3.5,
              "duration": 0.20833333333333334
            },
            {
              "pitch": 67,
              "velocity": 85,
              "position": 3.5,
              "duration": 0.20833333333333334
            }
          ]
        },
        "13": {
          "ctab": {
            "srcChannel": 13,
            "name": "Strings",
            "accType": "PAD",
            "editable": false,
            "mutedNotes": [],
            "mutedChords": [],
            "autoStart": false,
            "sourceChordNote": 0,
            "sourceChordType": "Maj7",
            "ctb2Low": null,
            "ctb2Main": {
              "ntr": "ROOT_FIXED",
              "ntt": "CHORD",
              "bassOn": false,
              "chordRootUpperLimit": 7,
              "noteLowLimit": 0,
              "noteHighLimit": 79,
              "rtr": "PITCH_SHIFT"
            },
            "ctb2High": null
          },
          "notes": [
            {
              "pitch": 64,
              "velocity": 64,
              "position": 0,
              "duration": 3.9895833333333335
            },
            {
              "pitch": 67,
              "velocity": 64,
              "position": 0,
              "duration": 3.9895833333333335
            },
            {
              "pitch": 71,
              "velocity": 64,
              "position": 0,
              "duration": 3.9895833333333335
            }
          ]
        },
        "14": {
          "ctab": {
            "srcChannel": 14,
            "name": "Brass",
            "accType": "PHRASE1",
            "editable": false,
            "mutedNotes": [],
            "mutedChords": [],
            "autoStart": false,
            "sourceChordNote": 0,
            "sourceChordType": "Maj7",
            "ctb2Low": null,
            "ctb2Main": {
              "ntr": "ROOT_TRANSPOSITION",
              "ntt": "MELODY",
              "bassOn": false,
              "chordRootUpperLimit": 6,
              "noteLowLimit": 0,
              "noteHighLimit": 127,
              "rtr": "PITCH_SHIFT"
            },
            "ctb2High": null
          },
          "notes": [
            {
              "pitch": 67,
              "velocity": 85,
              "position": 0,
              "duration": 0.125
            },
            {
              "pitch": 72,
              "velocity": 90,
              "position": 0,
              "duration": 0.13541666666666666
            },
            {
              "pitch": 67,
              "velocity": 85,
              "position": 0.5,
              "duration": 0.125
            },
            {
              "pitch": 72,
              "velocity": 90,
              "position": 0.5,
              "duration": 0.13541666666666666
            },
            {
              "pitch": 67,
              "velocity": 85,
              "position": 1,
              "duration": 0.125
            },
            {
              "pitch": 72,
              "velocity": 90,
              "position": 1,
              "duration": 0.13541666666666666
            },
            {
              "pitch": 67,
              "velocity": 85,
              "position": 1.5,
              "duration": 0.125
            },
            {
              "pitch": 72,
              "velocity": 90,
              "position": 1.5,
              "duration": 0.13541666666666666
            },
            {
              "pitch": 67,
              "velocity": 85,
              "position": 2,
              "duration": 0.125
            },
            {
              "pitch": 72,
              "velocity": 90,
              "position": 2,
              "duration": 0.13541666666666666
            },
            {
              "pitch": 64,
              "velocity": 86,
              "position": 2.5,
              "duration": 0.14583333333333334
            },
            {
              "pitch": 67,
              "velocity": 94,
              "position": 3,
              "duration": 0.4791666666666667
            },
            {
              "pitch": 71,
              "velocity": 83,
              "position": 3.5,
              "duration": 0.10416666666666667
            }
          ]
        }
      }
    },
    "Fill_In_DD": {
      "type": "Fill_In_DD",
      "sizeInBeats": 4,
      "channels": {
        "1": {
          "ctab": {
            "srcChannel": 1,
            "name": "CC_Crash",
            "accType": "SUBRHYTHM",
            "editable": false,
            "mutedNotes": [],
            "mutedChords": [
              "1+2+5",
              "sus4",
              "1+5",
              "1+8",
              "7aug",
              "Maj7aug",
              "7(#9)",
              "7(b13)",
              "7(b9)",
              "7(13)",
              "7#11",
              "7(9)",
              "7b5",
              "7sus4",
              "7th",
              "dim7",
              "dim",
              "minMaj7(9)",
              "minMaj7",
              "min7(11)",
              "min7(9)",
              "min(9)",
              "m7b5",
              "min7",
              "min6",
              "min",
              "aug",
              "Maj6(9)",
              "Maj7(9)",
              "Maj(9)",
              "Maj7#11",
              "Maj7",
              "Maj6",
              "Maj"
            ],
            "autoStart": true,
            "sourceChordNote": 0,
            "sourceChordType": "Maj",
            "ctb2Low": null,
            "ctb2Main": {
              "ntr": "ROOT_FIXED",
              "ntt": "BYPASS",
              "bassOn": false,
              "chordRootUpperLimit": 0,
              "noteLowLimit": 0,
              "noteHighLimit": 127,
              "rtr": "RETRIGGER"
            },
            "ctb2High": null
          },
          "notes": []
        },
        "4": {
          "ctab": {
            "srcChannel": 4,
            "name": "ElecPno",
            "accType": "CHORD1",
            "editable": true,
            "mutedNotes": [],
            "mutedChords": [
              "1+2+5",
              "sus4",
              "1+5",
              "1+8",
              "Maj7aug",
              "dim",
              "minMaj7(9)",
              "minMaj7",
              "min6",
              "min",
              "aug",
              "Maj7(9)",
              "Maj7#11",
              "Maj7",
              "Maj6",
              "Maj"
            ],
            "autoStart": false,
            "sourceChordNote": 0,
            "sourceChordType": "Maj7",
            "ctb2Low": null,
            "ctb2Main": {
              "ntr": "ROOT_TRANSPOSITION",
              "ntt": "CHORD",
              "bassOn": false,
              "chordRootUpperLimit": 10,
              "noteLowLimit": 0,
              "noteHighLimit": 127,
              "rtr": "PITCH_SHIFT"
            },
            "ctb2High": null
          },
          "notes": [
            {
              "pitch": 60,
              "velocity": 84,
              "position": 0,
              "duration": 2.0416666666666665
            },
            {
              "pitch": 60,
              "velocity": 82,
              "position": 2.5104166666666665,
              "duration": 0.08333333333333333
            },
            {
              "pitch": 60,
              "velocity": 83,
              "position": 3.3020833333333335,
              "duration": 0.6770833333333334
            }
          ]
        },
        "5": {
          "ctab": {
            "srcChannel": 5,
            "name": "Strings",
            "accType": "PAD",
            "editable": false,
            "mutedNotes": [],
            "mutedChords": [
              "1+2+5",
              "sus4",
              "1+5",
              "1+8",
              "Maj7aug",
              "dim",
              "minMaj7(9)",
              "minMaj7",
              "min6",
              "min",
              "aug",
              "Maj7(9)",
              "Maj7#11",
              "Maj7",
              "Maj6",
              "Maj"
            ],
            "autoStart": false,
            "sourceChordNote": 0,
            "sourceChordType": "Maj7",
            "ctb2Low": null,
            "ctb2Main": {
              "ntr": "ROOT_TRANSPOSITION",
              "ntt": "CHORD",
              "bassOn": false,
              "chordRootUpperLimit": 2,
              "noteLowLimit": 0,
              "noteHighLimit": 127,
              "rtr": "PITCH_SHIFT"
            },
            "ctb2High": null
          },
          "notes": []
        },
        "8": {
          "ctab": {
            "srcChannel": 8,
            "name": "Perc",
            "accType": "SUBRHYTHM",
            "editable": false,
            "mutedNotes": [],
            "mutedChords": [],
            "autoStart": true,
            "sourceChordNote": 0,
            "sourceChordType": "Maj7",
            "ctb2Low": null,
            "ctb2Main": {
              "ntr": "ROOT_FIXED",
              "ntt": "BYPASS",
              "bassOn": false,
              "chordRootUpperLimit": 6,
              "noteLowLimit": 0,
              "noteHighLimit": 127,
              "rtr": "PITCH_SHIFT"
            },
            "ctb2High": null
          },
          "notes": [
            {
              "pitch": 80,
              "velocity": 35,
              "position": 0,
              "duration": 0.020833333333333332
            },
            {
              "pitch": 54,
              "velocity": 41,
              "position": 0,
              "duration": 0.10416666666666667
            },
            {
              "pitch": 54,
              "velocity": 28,
              "position": 0.3229166666666667,
              "duration": 0.10416666666666667
            },
            {
              "pitch": 54,
              "velocity": 49,
              "position": 0.5,
              "duration": 0.10416666666666667
            },
            {
              "pitch": 54,
              "velocity": 36,
              "position": 0.8229166666666666,
              "duration": 0.10416666666666667
            },
            {
              "pitch": 52,
              "velocity": 63,
              "position": 1,
              "duration": 0.010416666666666666
            },
            {
              "pitch": 39,
              "velocity": 80,
              "position": 1,
              "duration": 0.10416666666666667
            },
            {
              "pitch": 54,
              "velocity": 40,
              "position": 1,
              "duration": 0.10416666666666667
            },
            {
              "pitch": 54,
              "velocity": 25,
              "position": 1.3229166666666667,
              "duration": 0.10416666666666667
            },
            {
              "pitch": 54,
              "velocity": 48,
              "position": 1.5,
              "duration": 0.10416666666666667
            },
            {
              "pitch": 54,
              "velocity": 38,
              "position": 1.8229166666666667,
              "duration": 0.10416666666666667
            },
            {
              "pitch": 81,
              "velocity": 33,
              "position": 1.8229166666666667,
              "duration": 0.10416666666666667
            },
            {
              "pitch": 80,
              "velocity": 35,
              "position": 2,
              "duration": 0.020833333333333332
            },
            {
              "pitch": 54,
              "velocity": 40,
              "position": 2,
              "duration": 0.10416666666666667
            },
            {
              "pitch": 80,
              "velocity": 35,
              "position": 2.3229166666666665,
              "duration": 0.020833333333333332
            },
            {
              "pitch": 54,
              "velocity": 25,
              "position": 2.3229166666666665,
              "duration": 0.10416666666666667
            },
            {
              "pitch": 54,
              "velocity": 48,
              "position": 2.5,
              "duration": 0.10416666666666667
            },
            {
              "pitch": 81,
              "velocity": 36,
              "position": 2.5,
              "duration": 0.10416666666666667
            },
            {
              "pitch": 54,
              "velocity": 35,
              "position": 2.8229166666666665,
              "duration": 0.10416666666666667
            },
            {
              "pitch": 80,
              "velocity": 35,
              "position": 3,
              "duration": 0.020833333333333332
            },
            {
              "pitch": 39,
              "velocity": 79,
              "position": 3,
              "duration": 0.10416666666666667
            },
            {
              "pitch": 54,
              "velocity": 40,
              "position": 3,
              "duration": 0.10416666666666667
            },
            {
              "pitch": 80,
              "velocity": 35,
              "position": 3.3229166666666665,
              "duration": 0.020833333333333332
            },
            {
              "pitch": 54,
              "velocity": 24,
              "position": 3.3229166666666665,
              "duration": 0.10416666666666667
            },
            {
              "pitch": 55,
              "velocity": 51,
              "position": 3.4895833333333335,
              "duration": 0.010416666666666666
            },
            {
              "pitch": 54,
              "velocity": 48,
              "position": 3.5,
              "duration": 0.10416666666666667
            },
            {
              "pitch": 81,
              "velocity": 36,
              "position": 3.5,
              "duration": 0.10416666666666667
            },
            {
              "pitch": 54,
              "velocity": 35,
              "position": 3.8229166666666665,
              "duration": 0.10416666666666667
            }
          ]
        },
        "9": {
          "ctab": {
            "srcChannel": 9,
            "name": "Drum",
            "accType": "RHYTHM",
            "editable": false,
            "mutedNotes": [],
            "mutedChords": [],
            "autoStart": true,
            "sourceChordNote": 0,
            "sourceChordType": "Maj7",
            "ctb2Low": null,
            "ctb2Main": {
              "ntr": "ROOT_FIXED",
              "ntt": "BYPASS",
              "bassOn": false,
              "chordRootUpperLimit": 6,
              "noteLowLimit": 0,
              "noteHighLimit": 127,
              "rtr": "PITCH_SHIFT"
            },
            "ctb2High": null
          },
          "notes": [
            {
              "pitch": 36,
              "velocity": 88,
              "position": 0,
              "duration": 0.10416666666666667
            },
            {
              "pitch": 42,
              "velocity": 88,
              "position": 0,
              "duration": 0.10416666666666667
            },
            {
              "pitch": 42,
              "velocity": 33,
              "position": 0.3125,
              "duration": 0.10416666666666667
            },
            {
              "pitch": 34,
              "velocity": 64,
              "position": 0.3229166666666667,
              "duration": 0.10416666666666667
            },
            {
              "pitch": 36,
              "velocity": 50,
              "position": 0.5,
              "duration": 0.10416666666666667
            },
            {
              "pitch": 46,
              "velocity": 54,
              "position": 0.5,
              "duration": 0.10416666666666667
            },
            {
              "pitch": 36,
              "velocity": 55,
              "position": 0.8229166666666666,
              "duration": 0.10416666666666667
            },
            {
              "pitch": 34,
              "velocity": 64,
              "position": 1,
              "duration": 0.10416666666666667
            },
            {
              "pitch": 42,
              "velocity": 88,
              "position": 1,
              "duration": 0.10416666666666667
            },
            {
              "pitch": 46,
              "velocity": 54,
              "position": 1.5,
              "duration": 0.10416666666666667
            },
            {
              "pitch": 34,
              "velocity": 18,
              "position": 1.75,
              "duration": 0.10416666666666667
            },
            {
              "pitch": 36,
              "velocity": 73,
              "position": 1.8229166666666667,
              "duration": 0.10416666666666667
            },
            {
              "pitch": 34,
              "velocity": 48,
              "position": 1.875,
              "duration": 0.10416666666666667
            },
            {
              "pitch": 34,
              "velocity": 64,
              "position": 2,
              "duration": 0.10416666666666667
            },
            {
              "pitch": 36,
              "velocity": 84,
              "position": 2,
              "duration": 0.10416666666666667
            },
            {
              "pitch": 42,
              "velocity": 73,
              "position": 2,
              "duration": 0.10416666666666667
            },
            {
              "pitch": 42,
              "velocity": 33,
              "position": 2.3125,
              "duration": 0.10416666666666667
            },
            {
              "pitch": 34,
              "velocity": 64,
              "position": 2.3229166666666665,
              "duration": 0.10416666666666667
            },
            {
              "pitch": 36,
              "velocity": 88,
              "position": 2.5,
              "duration": 0.10416666666666667
            },
            {
              "pitch": 46,
              "velocity": 54,
              "position": 2.5,
              "duration": 0.10416666666666667
            },
            {
              "pitch": 34,
              "velocity": 64,
              "position": 3,
              "duration": 0.10416666666666667
            },
            {
              "pitch": 42,
              "velocity": 88,
              "position": 3,
              "duration": 0.10416666666666667
            },
            {
              "pitch": 34,
              "velocity": 61,
              "position": 3.5,
              "duration": 0.10416666666666667
            },
            {
              "pitch": 36,
              "velocity": 87,
              "position": 3.5,
              "duration": 0.10416666666666667
            },
            {
              "pitch": 42,
              "velocity": 95,
              "position": 3.5,
              "duration": 0.10416666666666667
            },
            {
              "pitch": 42,
              "velocity": 33,
              "position": 3.8125,
              "duration": 0.10416666666666667
            },
            {
              "pitch": 34,
              "velocity": 64,
              "position": 3.8229166666666665,
              "duration": 0.10416666666666667
            }
          ]
        },
        "10": {
          "ctab": {
            "srcChannel": 10,
            "name": "SynBass",
            "accType": "BASS",
            "editable": false,
            "mutedNotes": [],
            "mutedChords": [],
            "autoStart": false,
            "sourceChordNote": 0,
            "sourceChordType": "Maj7",
            "ctb2Low": null,
            "ctb2Main": {
              "ntr": "ROOT_TRANSPOSITION",
              "ntt": "MELODY",
              "bassOn": true,
              "chordRootUpperLimit": 5,
              "noteLowLimit": 28,
              "noteHighLimit": 49,
              "rtr": "PITCH_SHIFT_TO_ROOT"
            },
            "ctb2High": null
          },
          "notes": [
            {
              "pitch": 24,
              "velocity": 100,
              "position": 0,
              "duration": 0.53125
            },
            {
              "pitch": 31,
              "velocity": 100,
              "position": 1.5,
              "duration": 0.3020833333333333
            },
            {
              "pitch": 24,
              "velocity": 100,
              "position": 1.8333333333333333,
              "duration": 0.13541666666666666
            },
            {
              "pitch": 31,
              "velocity": 100,
              "position": 2.3229166666666665,
              "duration": 0.13541666666666666
            },
            {
              "pitch": 35,
              "velocity": 100,
              "position": 2.5,
              "duration": 0.28125
            },
            {
              "pitch": 35,
              "velocity": 100,
              "position": 3,
              "duration": 0.3125
            },
            {
              "pitch": 24,
              "velocity": 100,
              "position": 3.3333333333333335,
              "duration": 0.22916666666666666
            },
            {
              "pitch": 31,
              "velocity": 100,
              "position": 3.5,
              "duration": 0.4895833333333333
            }
          ]
        },
        "11": {
          "ctab": {
            "srcChannel": 11,
            "name": "Clavi",
            "accType": "CHORD2",
            "editable": false,
            "mutedNotes": [],
            "mutedChords": [],
            "autoStart": false,
            "sourceChordNote": 0,
            "sourceChordType": "Maj7",
            "ctb2Low": null,
            "ctb2Main": {
              "ntr": "ROOT_TRANSPOSITION",
              "ntt": "CHORD",
              "bassOn": false,
              "chordRootUpperLimit": 10,
              "noteLowLimit": 0,
              "noteHighLimit": 127,
              "rtr": "PITCH_SHIFT"
            },
            "ctb2High": null
          },
          "notes": [
            {
              "pitch": 48,
              "velocity": 91,
              "position": 0,
              "duration": 0.22916666666666666
            },
            {
              "pitch": 48,
              "velocity": 91,
              "position": 0.5,
              "duration": 0.23958333333333334
            },
            {
              "pitch": 55,
              "velocity": 69,
              "position": 0.8125,
              "duration": 0.08333333333333333
            },
            {
              "pitch": 48,
              "velocity": 91,
              "position": 1,
              "duration": 0.25
            },
            {
              "pitch": 55,
              "velocity": 69,
              "position": 1.3125,
              "duration": 0.08333333333333333
            },
            {
              "pitch": 48,
              "velocity": 90,
              "position": 1.5,
              "duration": 0.21875
            },
            {
              "pitch": 48,
              "velocity": 90,
              "position": 2,
              "duration": 0.2604166666666667
            },
            {
              "pitch": 52,
              "velocity": 76,
              "position": 2,
              "duration": 0.3333333333333333
            },
            {
              "pitch": 55,
              "velocity": 85,
              "position": 2.3125,
              "duration": 0.08333333333333333
            },
            {
              "pitch": 48,
              "velocity": 91,
              "position": 2.5,
              "duration": 0.22916666666666666
            },
            {
              "pitch": 55,
              "velocity": 82,
              "position": 2.8125,
              "duration": 0.08333333333333333
            },
            {
              "pitch": 48,
              "velocity": 91,
              "position": 3,
              "duration": 0.21875
            },
            {
              "pitch": 55,
              "velocity": 82,
              "position": 3.3125,
              "duration": 0.08333333333333333
            },
            {
              "pitch": 48,
              "velocity": 90,
              "position": 3.5,
              "duration": 0.2604166666666667
            },
            {
              "pitch": 52,
              "velocity": 85,
              "position": 3.8125,
              "duration": 0.08333333333333333
            }
          ]
        },
        "12": {
          "ctab": {
            "srcChannel": 12,
            "name": "ElecPno",
            "accType": "CHORD1",
            "editable": false,
            "mutedNotes": [],
            "mutedChords": [],
            "autoStart": false,
            "sourceChordNote": 0,
            "sourceChordType": "Maj7",
            "ctb2Low": null,
            "ctb2Main": {
              "ntr": "ROOT_FIXED",
              "ntt": "CHORD",
              "bassOn": false,
              "chordRootUpperLimit": 7,
              "noteLowLimit": 0,
              "noteHighLimit": 127,
              "rtr": "PITCH_SHIFT"
            },
            "ctb2High": null
          },
          "notes": [
            {
              "pitch": 67,
              "velocity": 74,
              "position": 0,
              "duration": 2.0208333333333335
            },
            {
              "pitch": 59,
              "velocity": 74,
              "position": 0,
              "duration": 2.0416666666666665
            },
            {
              "pitch": 64,
              "velocity": 74,
              "position": 0,
              "duration": 2.0416666666666665
            },
            {
              "pitch": 64,
              "velocity": 74,
              "position": 2.5104166666666665,
              "duration": 0.07291666666666667
            },
            {
              "pitch": 67,
              "velocity": 74,
              "position": 2.5208333333333335,
              "duration": 0.0625
            },
            {
              "pitch": 59,
              "velocity": 74,
              "position": 2.5104166666666665,
              "duration": 0.08333333333333333
            },
            {
              "pitch": 59,
              "velocity": 74,
              "position": 3.3020833333333335,
              "duration": 0.6770833333333334
            },
            {
              "pitch": 67,
              "velocity": 74,
              "position": 3.3125,
              "duration": 0.6666666666666666
            },
            {
              "pitch": 64,
              "velocity": 74,
              "position": 3.3125,
              "duration": 0.6770833333333334
            }
          ]
        },
        "13": {
          "ctab": {
            "srcChannel": 13,
            "name": "Strings",
            "accType": "PAD",
            "editable": false,
            "mutedNotes": [],
            "mutedChords": [],
            "autoStart": false,
            "sourceChordNote": 0,
            "sourceChordType": "Maj7",
            "ctb2Low": null,
            "ctb2Main": {
              "ntr": "ROOT_FIXED",
              "ntt": "CHORD",
              "bassOn": false,
              "chordRootUpperLimit": 7,
              "noteLowLimit": 0,
              "noteHighLimit": 79,
              "rtr": "PITCH_SHIFT"
            },
            "ctb2High": null
          },
          "notes": [
            {
              "pitch": 72,
              "velocity": 89,
              "position": 0.010416666666666666,
              "duration": 0.21875
            },
            {
              "pitch": 84,
              "velocity": 89,
              "position": 0.010416666666666666,
              "duration": 0.21875
            },
            {
              "pitch": 67,
              "velocity": 64,
              "position": 1,
              "duration": 2.96875
            },
            {
              "pitch": 71,
              "velocity": 64,
              "position": 2,
              "duration": 1.96875
            },
            {
              "pitch": 76,
              "velocity": 64,
              "position": 3,
              "duration": 0.96875
            },
            {
              "pitch": 64,
              "velocity": 64,
              "position": 0.010416666666666666,
              "duration": 3.96875
            }
          ]
        },
        "14": {
          "ctab": {
            "srcChannel": 14,
            "name": "Brass",
            "accType": "PHRASE1",
            "editable": false,
            "mutedNotes": [],
            "mutedChords": [],
            "autoStart": false,
            "sourceChordNote": 0,
            "sourceChordType": "Maj7",
            "ctb2Low": null,
            "ctb2Main": {
              "ntr": "ROOT_TRANSPOSITION",
              "ntt": "MELODY",
              "bassOn": false,
              "chordRootUpperLimit": 6,
              "noteLowLimit": 0,
              "noteHighLimit": 127,
              "rtr": "PITCH_SHIFT"
            },
            "ctb2High": null
          },
          "notes": [
            {
              "pitch": 67,
              "velocity": 80,
              "position": 0,
              "duration": 0.28125
            },
            {
              "pitch": 72,
              "velocity": 80,
              "position": 0,
              "duration": 0.28125
            },
            {
              "pitch": 67,
              "velocity": 80,
              "position": 0.7916666666666666,
              "duration": 0.1875
            },
            {
              "pitch": 72,
              "velocity": 80,
              "position": 0.7916666666666666,
              "duration": 0.1875
            },
            {
              "pitch": 64,
              "velocity": 74,
              "position": 2.5,
              "duration": 0.15625
            },
            {
              "pitch": 67,
              "velocity": 79,
              "position": 3,
              "duration": 0.46875
            },
            {
              "pitch": 71,
              "velocity": 73,
              "position": 3.5,
              "duration": 0.16666666666666666
            }
          ]
        }
      }
    },
    "Ending_A": {
      "type": "Ending_A",
      "sizeInBeats": 4,
      "channels": {
        "1": {
          "ctab": {
            "srcChannel": 1,
            "name": "CC_Crash",
            "accType": "SUBRHYTHM",
            "editable": false,
            "mutedNotes": [],
            "mutedChords": [
              "1+2+5",
              "sus4",
              "1+5",
              "1+8",
              "7aug",
              "Maj7aug",
              "7(#9)",
              "7(b13)",
              "7(b9)",
              "7(13)",
              "7#11",
              "7(9)",
              "7b5",
              "7sus4",
              "7th",
              "dim7",
              "dim",
              "minMaj7(9)",
              "minMaj7",
              "min7(11)",
              "min7(9)",
              "min(9)",
              "m7b5",
              "min7",
              "min6",
              "min",
              "aug",
              "Maj6(9)",
              "Maj7(9)",
              "Maj(9)",
              "Maj7#11",
              "Maj7",
              "Maj6",
              "Maj"
            ],
            "autoStart": true,
            "sourceChordNote": 0,
            "sourceChordType": "Maj",
            "ctb2Low": null,
            "ctb2Main": {
              "ntr": "ROOT_FIXED",
              "ntt": "BYPASS",
              "bassOn": false,
              "chordRootUpperLimit": 0,
              "noteLowLimit": 0,
              "noteHighLimit": 127,
              "rtr": "RETRIGGER"
            },
            "ctb2High": null
          },
          "notes": []
        },
        "4": {
          "ctab": {
            "srcChannel": 4,
            "name": "ElecPno",
            "accType": "CHORD1",
            "editable": true,
            "mutedNotes": [],
            "mutedChords": [
              "1+2+5",
              "sus4",
              "1+5",
              "1+8",
              "Maj7aug",
              "dim",
              "minMaj7(9)",
              "minMaj7",
              "min6",
              "min",
              "aug",
              "Maj7(9)",
              "Maj7#11",
              "Maj7",
              "Maj6",
              "Maj"
            ],
            "autoStart": false,
            "sourceChordNote": 0,
            "sourceChordType": "Maj7",
            "ctb2Low": null,
            "ctb2Main": {
              "ntr": "ROOT_TRANSPOSITION",
              "ntt": "CHORD",
              "bassOn": false,
              "chordRootUpperLimit": 10,
              "noteLowLimit": 0,
              "noteHighLimit": 127,
              "rtr": "PITCH_SHIFT"
            },
            "ctb2High": null
          },
          "notes": [
            {
              "pitch": 60,
              "velocity": 79,
              "position": 0,
              "duration": 3.9791666666666665
            }
          ]
        },
        "5": {
          "ctab": {
            "srcChannel": 5,
            "name": "Strings",
            "accType": "PAD",
            "editable": false,
            "mutedNotes": [],
            "mutedChords": [
              "1+2+5",
              "sus4",
              "1+5",
              "1+8",
              "Maj7aug",
              "dim",
              "minMaj7(9)",
              "minMaj7",
              "min6",
              "min",
              "aug",
              "Maj7(9)",
              "Maj7#11",
              "Maj7",
              "Maj6",
              "Maj"
            ],
            "autoStart": false,
            "sourceChordNote": 0,
            "sourceChordType": "Maj7",
            "ctb2Low": null,
            "ctb2Main": {
              "ntr": "ROOT_TRANSPOSITION",
              "ntt": "CHORD",
              "bassOn": false,
              "chordRootUpperLimit": 2,
              "noteLowLimit": 0,
              "noteHighLimit": 127,
              "rtr": "PITCH_SHIFT"
            },
            "ctb2High": null
          },
          "notes": [
            {
              "pitch": 72,
              "velocity": 54,
              "position": 0,
              "duration": 3.9895833333333335
            }
          ]
        },
        "8": {
          "ctab": {
            "srcChannel": 8,
            "name": "Perc",
            "accType": "SUBRHYTHM",
            "editable": false,
            "mutedNotes": [],
            "mutedChords": [],
            "autoStart": true,
            "sourceChordNote": 0,
            "sourceChordType": "Maj7",
            "ctb2Low": null,
            "ctb2Main": {
              "ntr": "ROOT_FIXED",
              "ntt": "BYPASS",
              "bassOn": false,
              "chordRootUpperLimit": 6,
              "noteLowLimit": 0,
              "noteHighLimit": 127,
              "rtr": "PITCH_SHIFT"
            },
            "ctb2High": null
          },
          "notes": []
        },
        "9": {
          "ctab": {
            "srcChannel": 9,
            "name": "Drum",
            "accType": "RHYTHM",
            "editable": false,
            "mutedNotes": [],
            "mutedChords": [],
            "autoStart": true,
            "sourceChordNote": 0,
            "sourceChordType": "Maj7",
            "ctb2Low": null,
            "ctb2Main": {
              "ntr": "ROOT_FIXED",
              "ntt": "BYPASS",
              "bassOn": false,
              "chordRootUpperLimit": 6,
              "noteLowLimit": 0,
              "noteHighLimit": 127,
              "rtr": "PITCH_SHIFT"
            },
            "ctb2High": null
          },
          "notes": [
            {
              "pitch": 36,
              "velocity": 88,
              "position": 0,
              "duration": 0.10416666666666667
            }
          ]
        },
        "10": {
          "ctab": {
            "srcChannel": 10,
            "name": "SynBass",
            "accType": "BASS",
            "editable": false,
            "mutedNotes": [],
            "mutedChords": [],
            "autoStart": false,
            "sourceChordNote": 0,
            "sourceChordType": "Maj7",
            "ctb2Low": null,
            "ctb2Main": {
              "ntr": "ROOT_TRANSPOSITION",
              "ntt": "MELODY",
              "bassOn": true,
              "chordRootUpperLimit": 5,
              "noteLowLimit": 28,
              "noteHighLimit": 49,
              "rtr": "PITCH_SHIFT_TO_ROOT"
            },
            "ctb2High": null
          },
          "notes": [
            {
              "pitch": 24,
              "velocity": 100,
              "position": 0,
              "duration": 3.9895833333333335
            }
          ]
        },
        "11": {
          "ctab": {
            "srcChannel": 11,
            "name": "Clavi",
            "accType": "CHORD2",
            "editable": false,
            "mutedNotes": [],
            "mutedChords": [],
            "autoStart": false,
            "sourceChordNote": 0,
            "sourceChordType": "Maj7",
            "ctb2Low": null,
            "ctb2Main": {
              "ntr": "ROOT_TRANSPOSITION",
              "ntt": "CHORD",
              "bassOn": false,
              "chordRootUpperLimit": 10,
              "noteLowLimit": 0,
              "noteHighLimit": 127,
              "rtr": "PITCH_SHIFT"
            },
            "ctb2High": null
          },
          "notes": [
            {
              "pitch": 43,
              "velocity": 75,
              "position": 0,
              "duration": 3.9895833333333335
            }
          ]
        },
        "12": {
          "ctab": {
            "srcChannel": 12,
            "name": "ElecPno",
            "accType": "CHORD1",
            "editable": false,
            "mutedNotes": [],
            "mutedChords": [],
            "autoStart": false,
            "sourceChordNote": 0,
            "sourceChordType": "Maj7",
            "ctb2Low": null,
            "ctb2Main": {
              "ntr": "ROOT_FIXED",
              "ntt": "CHORD",
              "bassOn": false,
              "chordRootUpperLimit": 7,
              "noteLowLimit": 0,
              "noteHighLimit": 127,
              "rtr": "PITCH_SHIFT"
            },
            "ctb2High": null
          },
          "notes": [
            {
              "pitch": 59,
              "velocity": 78,
              "position": 0,
              "duration": 3.9791666666666665
            },
            {
              "pitch": 64,
              "velocity": 78,
              "position": 0,
              "duration": 3.9791666666666665
            },
            {
              "pitch": 67,
              "velocity": 78,
              "position": 0,
              "duration": 3.9791666666666665
            }
          ]
        },
        "13": {
          "ctab": {
            "srcChannel": 13,
            "name": "Strings",
            "accType": "PAD",
            "editable": false,
            "mutedNotes": [],
            "mutedChords": [],
            "autoStart": false,
            "sourceChordNote": 0,
            "sourceChordType": "Maj7",
            "ctb2Low": null,
            "ctb2Main": {
              "ntr": "ROOT_FIXED",
              "ntt": "CHORD",
              "bassOn": false,
              "chordRootUpperLimit": 7,
              "noteLowLimit": 0,
              "noteHighLimit": 79,
              "rtr": "PITCH_SHIFT"
            },
            "ctb2High": null
          },
          "notes": [
            {
              "pitch": 64,
              "velocity": 54,
              "position": 0,
              "duration": 3.9895833333333335
            },
            {
              "pitch": 67,
              "velocity": 54,
              "position": 0,
              "duration": 3.9895833333333335
            },
            {
              "pitch": 71,
              "velocity": 54,
              "position": 0,
              "duration": 3.9895833333333335
            }
          ]
        },
        "14": {
          "ctab": {
            "srcChannel": 14,
            "name": "Brass",
            "accType": "PHRASE1",
            "editable": false,
            "mutedNotes": [],
            "mutedChords": [],
            "autoStart": false,
            "sourceChordNote": 0,
            "sourceChordType": "Maj7",
            "ctb2Low": null,
            "ctb2Main": {
              "ntr": "ROOT_TRANSPOSITION",
              "ntt": "MELODY",
              "bassOn": false,
              "chordRootUpperLimit": 6,
              "noteLowLimit": 0,
              "noteHighLimit": 127,
              "rtr": "PITCH_SHIFT"
            },
            "ctb2High": null
          },
          "notes": [
            {
              "pitch": 67,
              "velocity": 52,
              "position": 0,
              "duration": 3.8020833333333335
            },
            {
              "pitch": 72,
              "velocity": 57,
              "position": 0,
              "duration": 3.8020833333333335
            }
          ]
        }
      }
    },
    "Intro_C": {
      "type": "Intro_C",
      "sizeInBeats": 16,
      "channels": {
        "2": {
          "ctab": {
            "srcChannel": 2,
            "name": "SynBass",
            "accType": "BASS",
            "editable": false,
            "mutedNotes": [],
            "mutedChords": [
              "1+2+5",
              "sus4",
              "1+5",
              "1+8",
              "7aug",
              "Maj7aug",
              "7(#9)",
              "7(b13)",
              "7(b9)",
              "7(13)",
              "7#11",
              "7(9)",
              "7b5",
              "7sus4",
              "7th",
              "aug",
              "Maj6(9)",
              "Maj7(9)",
              "Maj(9)",
              "Maj7#11",
              "Maj7",
              "Maj6",
              "Maj"
            ],
            "autoStart": false,
            "sourceChordNote": 0,
            "sourceChordType": "Maj7",
            "ctb2Low": null,
            "ctb2Main": {
              "ntr": "ROOT_TRANSPOSITION",
              "ntt": "BYPASS",
              "bassOn": false,
              "chordRootUpperLimit": 6,
              "noteLowLimit": 28,
              "noteHighLimit": 127,
              "rtr": "PITCH_SHIFT"
            },
            "ctb2High": null
          },
          "notes": [
            {
              "pitch": 24,
              "velocity": 100,
              "position": 0,
              "duration": 0.4895833333333333
            },
            {
              "pitch": 36,
              "velocity": 100,
              "position": 1.7916666666666667,
              "duration": 0.17708333333333334
            },
            {
              "pitch": 34,
              "velocity": 100,
              "position": 2,
              "duration": 0.4895833333333333
            },
            {
              "pitch": 34,
              "velocity": 100,
              "position": 3.5,
              "duration": 0.28125
            },
            {
              "pitch": 31,
              "velocity": 100,
              "position": 3.8229166666666665,
              "duration": 0.22916666666666666
            },
            {
              "pitch": 32,
              "velocity": 100,
              "position": 4,
              "duration": 0.4895833333333333
            },
            {
              "pitch": 31,
              "velocity": 100,
              "position": 5.822916666666667,
              "duration": 0.13541666666666666
            },
            {
              "pitch": 32,
              "velocity": 100,
              "position": 6,
              "duration": 0.28125
            },
            {
              "pitch": 31,
              "velocity": 100,
              "position": 6.322916666666667,
              "duration": 0.13541666666666666
            },
            {
              "pitch": 32,
              "velocity": 100,
              "position": 6.5,
              "duration": 0.3854166666666667
            },
            {
              "pitch": 31,
              "velocity": 100,
              "position": 7,
              "duration": 0.28125
            },
            {
              "pitch": 31,
              "velocity": 100,
              "position": 7.5,
              "duration": 0.3020833333333333
            },
            {
              "pitch": 29,
              "velocity": 100,
              "position": 8,
              "duration": 0.4895833333333333
            },
            {
              "pitch": 28,
              "velocity": 100,
              "position": 9.791666666666666,
              "duration": 0.17708333333333334
            },
            {
              "pitch": 29,
              "velocity": 100,
              "position": 10,
              "duration": 0.4895833333333333
            },
            {
              "pitch": 29,
              "velocity": 100,
              "position": 11.5,
              "duration": 0.28125
            },
            {
              "pitch": 30,
              "velocity": 100,
              "position": 11.822916666666666,
              "duration": 0.22916666666666666
            },
            {
              "pitch": 31,
              "velocity": 100,
              "position": 12,
              "duration": 0.23958333333333334
            },
            {
              "pitch": 31,
              "velocity": 100,
              "position": 12.5,
              "duration": 0.25
            },
            {
              "pitch": 31,
              "velocity": 100,
              "position": 13,
              "duration": 0.2604166666666667
            },
            {
              "pitch": 43,
              "velocity": 100,
              "position": 13.822916666666666,
              "duration": 0.0625
            },
            {
              "pitch": 41,
              "velocity": 100,
              "position": 14,
              "duration": 0.5104166666666666
            },
            {
              "pitch": 39,
              "velocity": 100,
              "position": 14.5,
              "duration": 0.11458333333333333
            },
            {
              "pitch": 36,
              "velocity": 100,
              "position": 15,
              "duration": 0.4479166666666667
            },
            {
              "pitch": 34,
              "velocity": 100,
              "position": 15.5,
              "duration": 0.4270833333333333
            }
          ]
        },
        "3": {
          "ctab": {
            "srcChannel": 3,
            "name": "Clavi",
            "accType": "CHORD2",
            "editable": false,
            "mutedNotes": [],
            "mutedChords": [
              "1+2+5",
              "sus4",
              "1+5",
              "1+8",
              "7aug",
              "Maj7aug",
              "7(#9)",
              "7(b13)",
              "7(b9)",
              "7(13)",
              "7#11",
              "7(9)",
              "7b5",
              "7sus4",
              "7th",
              "aug",
              "Maj6(9)",
              "Maj7(9)",
              "Maj(9)",
              "Maj7#11",
              "Maj7",
              "Maj6",
              "Maj"
            ],
            "autoStart": false,
            "sourceChordNote": 0,
            "sourceChordType": "Maj7",
            "ctb2Low": null,
            "ctb2Main": {
              "ntr": "ROOT_TRANSPOSITION",
              "ntt": "BYPASS",
              "bassOn": false,
              "chordRootUpperLimit": 10,
              "noteLowLimit": 0,
              "noteHighLimit": 127,
              "rtr": "PITCH_SHIFT"
            },
            "ctb2High": null
          },
          "notes": [
            {
              "pitch": 43,
              "velocity": 87,
              "position": 0,
              "duration": 0.5
            },
            {
              "pitch": 51,
              "velocity": 80,
              "position": 0.5,
              "duration": 0.2604166666666667
            },
            {
              "pitch": 46,
              "velocity": 83,
              "position": 0.5,
              "duration": 0.28125
            },
            {
              "pitch": 43,
              "velocity": 83,
              "position": 0.7916666666666666,
              "duration": 0.17708333333333334
            },
            {
              "pitch": 46,
              "velocity": 79,
              "position": 1,
              "duration": 0.17708333333333334
            },
            {
              "pitch": 51,
              "velocity": 83,
              "position": 1,
              "duration": 0.19791666666666666
            },
            {
              "pitch": 51,
              "velocity": 80,
              "position": 1.5,
              "duration": 0.2708333333333333
            },
            {
              "pitch": 46,
              "velocity": 79,
              "position": 1.5,
              "duration": 0.28125
            },
            {
              "pitch": 43,
              "velocity": 83,
              "position": 1.7916666666666667,
              "duration": 0.08333333333333333
            },
            {
              "pitch": 48,
              "velocity": 92,
              "position": 2,
              "duration": 0.3541666666666667
            },
            {
              "pitch": 43,
              "velocity": 83,
              "position": 2.7916666666666665,
              "duration": 0.09375
            },
            {
              "pitch": 46,
              "velocity": 84,
              "position": 3,
              "duration": 0.28125
            },
            {
              "pitch": 48,
              "velocity": 87,
              "position": 3.2916666666666665,
              "duration": 0.1875
            },
            {
              "pitch": 43,
              "velocity": 83,
              "position": 3.5,
              "duration": 0.09375
            },
            {
              "pitch": 51,
              "velocity": 92,
              "position": 3.7916666666666665,
              "duration": 0.20833333333333334
            },
            {
              "pitch": 43,
              "velocity": 88,
              "position": 4,
              "duration": 0.4270833333333333
            },
            {
              "pitch": 51,
              "velocity": 84,
              "position": 4.5,
              "duration": 0.23958333333333334
            },
            {
              "pitch": 46,
              "velocity": 88,
              "position": 4.5,
              "duration": 0.2604166666666667
            },
            {
              "pitch": 43,
              "velocity": 84,
              "position": 4.791666666666667,
              "duration": 0.16666666666666666
            },
            {
              "pitch": 46,
              "velocity": 79,
              "position": 5,
              "duration": 0.22916666666666666
            },
            {
              "pitch": 51,
              "velocity": 80,
              "position": 5,
              "duration": 0.22916666666666666
            },
            {
              "pitch": 46,
              "velocity": 76,
              "position": 5.5,
              "duration": 0.23958333333333334
            },
            {
              "pitch": 51,
              "velocity": 74,
              "position": 5.5,
              "duration": 0.23958333333333334
            },
            {
              "pitch": 43,
              "velocity": 83,
              "position": 5.791666666666667,
              "duration": 0.08333333333333333
            },
            {
              "pitch": 48,
              "velocity": 96,
              "position": 6,
              "duration": 0.21875
            },
            {
              "pitch": 48,
              "velocity": 90,
              "position": 6.5,
              "duration": 0.20833333333333334
            },
            {
              "pitch": 43,
              "velocity": 83,
              "position": 6.791666666666667,
              "duration": 0.09375
            },
            {
              "pitch": 46,
              "velocity": 84,
              "position": 7,
              "duration": 0.28125
            },
            {
              "pitch": 48,
              "velocity": 87,
              "position": 7.291666666666667,
              "duration": 0.1875
            },
            {
              "pitch": 43,
              "velocity": 83,
              "position": 7.5,
              "duration": 0.09375
            },
            {
              "pitch": 51,
              "velocity": 92,
              "position": 7.791666666666667,
              "duration": 0.19791666666666666
            },
            {
              "pitch": 43,
              "velocity": 87,
              "position": 8,
              "duration": 0.5
            },
            {
              "pitch": 51,
              "velocity": 80,
              "position": 8.5,
              "duration": 0.2604166666666667
            },
            {
              "pitch": 46,
              "velocity": 83,
              "position": 8.5,
              "duration": 0.28125
            },
            {
              "pitch": 43,
              "velocity": 83,
              "position": 8.791666666666666,
              "duration": 0.17708333333333334
            },
            {
              "pitch": 46,
              "velocity": 79,
              "position": 9,
              "duration": 0.17708333333333334
            },
            {
              "pitch": 51,
              "velocity": 83,
              "position": 9,
              "duration": 0.19791666666666666
            },
            {
              "pitch": 51,
              "velocity": 80,
              "position": 9.5,
              "duration": 0.2708333333333333
            },
            {
              "pitch": 46,
              "velocity": 79,
              "position": 9.5,
              "duration": 0.28125
            },
            {
              "pitch": 43,
              "velocity": 83,
              "position": 9.791666666666666,
              "duration": 0.08333333333333333
            },
            {
              "pitch": 48,
              "velocity": 92,
              "position": 10,
              "duration": 0.3541666666666667
            },
            {
              "pitch": 43,
              "velocity": 83,
              "position": 10.791666666666666,
              "duration": 0.09375
            },
            {
              "pitch": 46,
              "velocity": 84,
              "position": 11,
              "duration": 0.28125
            },
            {
              "pitch": 48,
              "velocity": 87,
              "position": 11.291666666666666,
              "duration": 0.1875
            },
            {
              "pitch": 43,
              "velocity": 83,
              "position": 11.5,
              "duration": 0.09375
            },
            {
              "pitch": 51,
              "velocity": 92,
              "position": 11.791666666666666,
              "duration": 0.20833333333333334
            },
            {
              "pitch": 43,
              "velocity": 88,
              "position": 12,
              "duration": 0.4270833333333333
            },
            {
              "pitch": 51,
              "velocity": 84,
              "position": 12.5,
              "duration": 0.23958333333333334
            },
            {
              "pitch": 46,
              "velocity": 88,
              "position": 12.5,
              "duration": 0.2604166666666667
            },
            {
              "pitch": 43,
              "velocity": 84,
              "position": 12.791666666666666,
              "duration": 0.16666666666666666
            },
            {
              "pitch": 46,
              "velocity": 79,
              "position": 13,
              "duration": 0.22916666666666666
            },
            {
              "pitch": 51,
              "velocity": 80,
              "position": 13,
              "duration": 0.22916666666666666
            },
            {
              "pitch": 46,
              "velocity": 76,
              "position": 13.5,
              "duration": 0.23958333333333334
            },
            {
              "pitch": 51,
              "velocity": 74,
              "position": 13.5,
              "duration": 0.23958333333333334
            },
            {
              "pitch": 43,
              "velocity": 83,
              "position": 13.791666666666666,
              "duration": 0.08333333333333333
            },
            {
              "pitch": 46,
              "velocity": 76,
              "position": 14,
              "duration": 0.23958333333333334
            },
            {
              "pitch": 51,
              "velocity": 74,
              "position": 14,
              "duration": 0.23958333333333334
            },
            {
              "pitch": 43,
              "velocity": 83,
              "position": 14.291666666666666,
              "duration": 0.08333333333333333
            },
            {
              "pitch": 46,
              "velocity": 76,
              "position": 14.5,
              "duration": 0.23958333333333334
            },
            {
              "pitch": 51,
              "velocity": 74,
              "position": 14.5,
              "duration": 0.23958333333333334
            },
            {
              "pitch": 43,
              "velocity": 83,
              "position": 14.791666666666666,
              "duration": 0.09375
            },
            {
              "pitch": 46,
              "velocity": 84,
              "position": 15,
              "duration": 0.28125
            },
            {
              "pitch": 48,
              "velocity": 87,
              "position": 15.291666666666666,
              "duration": 0.1875
            },
            {
              "pitch": 43,
              "velocity": 83,
              "position": 15.5,
              "duration": 0.09375
            },
            {
              "pitch": 51,
              "velocity": 92,
              "position": 15.791666666666666,
              "duration": 0.19791666666666666
            }
          ]
        },
        "4": {
          "ctab": {
            "srcChannel": 4,
            "name": "ElecPno",
            "accType": "CHORD1",
            "editable": false,
            "mutedNotes": [],
            "mutedChords": [
              "1+2+5",
              "sus4",
              "1+5",
              "1+8",
              "7aug",
              "Maj7aug",
              "7(#9)",
              "7(b13)",
              "7(b9)",
              "7(13)",
              "7#11",
              "7(9)",
              "7b5",
              "7sus4",
              "7th",
              "aug",
              "Maj6(9)",
              "Maj7(9)",
              "Maj(9)",
              "Maj7#11",
              "Maj7",
              "Maj6",
              "Maj"
            ],
            "autoStart": false,
            "sourceChordNote": 0,
            "sourceChordType": "Maj7",
            "ctb2Low": null,
            "ctb2Main": {
              "ntr": "ROOT_TRANSPOSITION",
              "ntt": "BYPASS",
              "bassOn": false,
              "chordRootUpperLimit": 8,
              "noteLowLimit": 0,
              "noteHighLimit": 127,
              "rtr": "PITCH_SHIFT"
            },
            "ctb2High": null
          },
          "notes": [
            {
              "pitch": 58,
              "velocity": 85,
              "position": 0,
              "duration": 0.21875
            },
            {
              "pitch": 67,
              "velocity": 85,
              "position": 0,
              "duration": 0.21875
            },
            {
              "pitch": 60,
              "velocity": 85,
              "position": 0,
              "duration": 0.22916666666666666
            },
            {
              "pitch": 63,
              "velocity": 85,
              "position": 0,
              "duration": 0.22916666666666666
            },
            {
              "pitch": 58,
              "velocity": 85,
              "position": 0.5,
              "duration": 0.21875
            },
            {
              "pitch": 67,
              "velocity": 85,
              "position": 0.5,
              "duration": 0.21875
            },
            {
              "pitch": 60,
              "velocity": 85,
              "position": 0.5,
              "duration": 0.22916666666666666
            },
            {
              "pitch": 63,
              "velocity": 85,
              "position": 0.5,
              "duration": 0.22916666666666666
            },
            {
              "pitch": 58,
              "velocity": 85,
              "position": 1,
              "duration": 0.21875
            },
            {
              "pitch": 67,
              "velocity": 85,
              "position": 1,
              "duration": 0.21875
            },
            {
              "pitch": 60,
              "velocity": 85,
              "position": 1,
              "duration": 0.22916666666666666
            },
            {
              "pitch": 63,
              "velocity": 85,
              "position": 1,
              "duration": 0.22916666666666666
            },
            {
              "pitch": 55,
              "velocity": 85,
              "position": 1.5,
              "duration": 0.22916666666666666
            },
            {
              "pitch": 58,
              "velocity": 85,
              "position": 1.5,
              "duration": 0.22916666666666666
            },
            {
              "pitch": 62,
              "velocity": 85,
              "position": 1.5,
              "duration": 0.22916666666666666
            },
            {
              "pitch": 65,
              "velocity": 85,
              "position": 1.5,
              "duration": 0.22916666666666666
            },
            {
              "pitch": 55,
              "velocity": 85,
              "position": 2,
              "duration": 0.22916666666666666
            },
            {
              "pitch": 58,
              "velocity": 85,
              "position": 2,
              "duration": 0.22916666666666666
            },
            {
              "pitch": 62,
              "velocity": 85,
              "position": 2,
              "duration": 0.22916666666666666
            },
            {
              "pitch": 65,
              "velocity": 85,
              "position": 2,
              "duration": 0.22916666666666666
            },
            {
              "pitch": 55,
              "velocity": 85,
              "position": 2.5,
              "duration": 0.22916666666666666
            },
            {
              "pitch": 58,
              "velocity": 85,
              "position": 2.5,
              "duration": 0.22916666666666666
            },
            {
              "pitch": 62,
              "velocity": 85,
              "position": 2.5,
              "duration": 0.22916666666666666
            },
            {
              "pitch": 65,
              "velocity": 85,
              "position": 2.5,
              "duration": 0.22916666666666666
            },
            {
              "pitch": 55,
              "velocity": 85,
              "position": 3,
              "duration": 0.22916666666666666
            },
            {
              "pitch": 58,
              "velocity": 85,
              "position": 3,
              "duration": 0.22916666666666666
            },
            {
              "pitch": 62,
              "velocity": 85,
              "position": 3,
              "duration": 0.22916666666666666
            },
            {
              "pitch": 65,
              "velocity": 85,
              "position": 3,
              "duration": 0.22916666666666666
            },
            {
              "pitch": 56,
              "velocity": 85,
              "position": 3.5,
              "duration": 0.21875
            },
            {
              "pitch": 60,
              "velocity": 85,
              "position": 3.5,
              "duration": 0.21875
            },
            {
              "pitch": 63,
              "velocity": 85,
              "position": 3.5,
              "duration": 0.21875
            },
            {
              "pitch": 67,
              "velocity": 85,
              "position": 3.5,
              "duration": 0.22916666666666666
            },
            {
              "pitch": 56,
              "velocity": 85,
              "position": 4,
              "duration": 0.21875
            },
            {
              "pitch": 60,
              "velocity": 85,
              "position": 4,
              "duration": 0.21875
            },
            {
              "pitch": 63,
              "velocity": 85,
              "position": 4,
              "duration": 0.21875
            },
            {
              "pitch": 67,
              "velocity": 85,
              "position": 4,
              "duration": 0.22916666666666666
            },
            {
              "pitch": 56,
              "velocity": 85,
              "position": 4.5,
              "duration": 0.21875
            },
            {
              "pitch": 60,
              "velocity": 85,
              "position": 4.5,
              "duration": 0.21875
            },
            {
              "pitch": 63,
              "velocity": 85,
              "position": 4.5,
              "duration": 0.21875
            },
            {
              "pitch": 67,
              "velocity": 85,
              "position": 4.5,
              "duration": 0.22916666666666666
            },
            {
              "pitch": 56,
              "velocity": 85,
              "position": 5,
              "duration": 0.21875
            },
            {
              "pitch": 60,
              "velocity": 85,
              "position": 5,
              "duration": 0.21875
            },
            {
              "pitch": 63,
              "velocity": 85,
              "position": 5,
              "duration": 0.21875
            },
            {
              "pitch": 67,
              "velocity": 85,
              "position": 5,
              "duration": 0.22916666666666666
            },
            {
              "pitch": 56,
              "velocity": 85,
              "position": 5.5,
              "duration": 0.21875
            },
            {
              "pitch": 60,
              "velocity": 85,
              "position": 5.5,
              "duration": 0.21875
            },
            {
              "pitch": 63,
              "velocity": 85,
              "position": 5.5,
              "duration": 0.21875
            },
            {
              "pitch": 67,
              "velocity": 85,
              "position": 5.5,
              "duration": 0.22916666666666666
            },
            {
              "pitch": 56,
              "velocity": 85,
              "position": 6,
              "duration": 0.21875
            },
            {
              "pitch": 60,
              "velocity": 85,
              "position": 6,
              "duration": 0.21875
            },
            {
              "pitch": 63,
              "velocity": 85,
              "position": 6,
              "duration": 0.21875
            },
            {
              "pitch": 67,
              "velocity": 85,
              "position": 6,
              "duration": 0.22916666666666666
            },
            {
              "pitch": 56,
              "velocity": 85,
              "position": 6.5,
              "duration": 0.21875
            },
            {
              "pitch": 60,
              "velocity": 85,
              "position": 6.5,
              "duration": 0.21875
            },
            {
              "pitch": 63,
              "velocity": 85,
              "position": 6.5,
              "duration": 0.21875
            },
            {
              "pitch": 67,
              "velocity": 85,
              "position": 6.5,
              "duration": 0.22916666666666666
            },
            {
              "pitch": 56,
              "velocity": 85,
              "position": 7,
              "duration": 0.21875
            },
            {
              "pitch": 60,
              "velocity": 85,
              "position": 7,
              "duration": 0.21875
            },
            {
              "pitch": 63,
              "velocity": 85,
              "position": 7,
              "duration": 0.21875
            },
            {
              "pitch": 67,
              "velocity": 85,
              "position": 7,
              "duration": 0.22916666666666666
            },
            {
              "pitch": 56,
              "velocity": 85,
              "position": 7.5,
              "duration": 0.21875
            },
            {
              "pitch": 60,
              "velocity": 85,
              "position": 7.5,
              "duration": 0.21875
            },
            {
              "pitch": 63,
              "velocity": 85,
              "position": 7.5,
              "duration": 0.21875
            },
            {
              "pitch": 67,
              "velocity": 85,
              "position": 7.5,
              "duration": 0.22916666666666666
            },
            {
              "pitch": 56,
              "velocity": 85,
              "position": 8,
              "duration": 0.21875
            },
            {
              "pitch": 60,
              "velocity": 85,
              "position": 8,
              "duration": 0.22916666666666666
            },
            {
              "pitch": 63,
              "velocity": 85,
              "position": 8,
              "duration": 0.22916666666666666
            },
            {
              "pitch": 65,
              "velocity": 85,
              "position": 8,
              "duration": 0.22916666666666666
            },
            {
              "pitch": 56,
              "velocity": 85,
              "position": 8.5,
              "duration": 0.21875
            },
            {
              "pitch": 60,
              "velocity": 85,
              "position": 8.5,
              "duration": 0.22916666666666666
            },
            {
              "pitch": 63,
              "velocity": 85,
              "position": 8.5,
              "duration": 0.22916666666666666
            },
            {
              "pitch": 65,
              "velocity": 85,
              "position": 8.5,
              "duration": 0.22916666666666666
            },
            {
              "pitch": 56,
              "velocity": 85,
              "position": 9,
              "duration": 0.21875
            },
            {
              "pitch": 60,
              "velocity": 85,
              "position": 9,
              "duration": 0.22916666666666666
            },
            {
              "pitch": 63,
              "velocity": 85,
              "position": 9,
              "duration": 0.22916666666666666
            },
            {
              "pitch": 65,
              "velocity": 85,
              "position": 9,
              "duration": 0.22916666666666666
            },
            {
              "pitch": 56,
              "velocity": 85,
              "position": 9.5,
              "duration": 0.21875
            },
            {
              "pitch": 60,
              "velocity": 85,
              "position": 9.5,
              "duration": 0.22916666666666666
            },
            {
              "pitch": 63,
              "velocity": 85,
              "position": 9.5,
              "duration": 0.22916666666666666
            },
            {
              "pitch": 65,
              "velocity": 85,
              "position": 9.5,
              "duration": 0.22916666666666666
            },
            {
              "pitch": 56,
              "velocity": 85,
              "position": 10,
              "duration": 0.21875
            },
            {
              "pitch": 60,
              "velocity": 85,
              "position": 10,
              "duration": 0.22916666666666666
            },
            {
              "pitch": 63,
              "velocity": 85,
              "position": 10,
              "duration": 0.22916666666666666
            },
            {
              "pitch": 65,
              "velocity": 85,
              "position": 10,
              "duration": 0.22916666666666666
            },
            {
              "pitch": 56,
              "velocity": 85,
              "position": 10.5,
              "duration": 0.21875
            },
            {
              "pitch": 60,
              "velocity": 85,
              "position": 10.5,
              "duration": 0.22916666666666666
            },
            {
              "pitch": 63,
              "velocity": 85,
              "position": 10.5,
              "duration": 0.22916666666666666
            },
            {
              "pitch": 65,
              "velocity": 85,
              "position": 10.5,
              "duration": 0.22916666666666666
            },
            {
              "pitch": 56,
              "velocity": 85,
              "position": 11,
              "duration": 0.21875
            },
            {
              "pitch": 60,
              "velocity": 85,
              "position": 11,
              "duration": 0.22916666666666666
            },
            {
              "pitch": 63,
              "velocity": 85,
              "position": 11,
              "duration": 0.22916666666666666
            },
            {
              "pitch": 65,
              "velocity": 85,
              "position": 11,
              "duration": 0.22916666666666666
            },
            {
              "pitch": 56,
              "velocity": 85,
              "position": 11.5,
              "duration": 0.21875
            },
            {
              "pitch": 60,
              "velocity": 85,
              "position": 11.5,
              "duration": 0.22916666666666666
            },
            {
              "pitch": 63,
              "velocity": 85,
              "position": 11.5,
              "duration": 0.22916666666666666
            },
            {
              "pitch": 65,
              "velocity": 85,
              "position": 11.5,
              "duration": 0.22916666666666666
            },
            {
              "pitch": 53,
              "velocity": 85,
              "position": 12,
              "duration": 0.25
            },
            {
              "pitch": 55,
              "velocity": 85,
              "position": 12,
              "duration": 0.25
            },
            {
              "pitch": 58,
              "velocity": 85,
              "position": 12,
              "duration": 0.2604166666666667
            },
            {
              "pitch": 62,
              "velocity": 85,
              "position": 12,
              "duration": 0.2708333333333333
            },
            {
              "pitch": 53,
              "velocity": 85,
              "position": 12.5,
              "duration": 0.25
            },
            {
              "pitch": 58,
              "velocity": 85,
              "position": 12.5,
              "duration": 0.25
            },
            {
              "pitch": 55,
              "velocity": 85,
              "position": 12.5,
              "duration": 0.28125
            },
            {
              "pitch": 62,
              "velocity": 85,
              "position": 12.5,
              "duration": 0.28125
            },
            {
              "pitch": 58,
              "velocity": 85,
              "position": 13,
              "duration": 0.25
            },
            {
              "pitch": 55,
              "velocity": 85,
              "position": 13,
              "duration": 0.2604166666666667
            },
            {
              "pitch": 53,
              "velocity": 85,
              "position": 13,
              "duration": 0.2708333333333333
            },
            {
              "pitch": 62,
              "velocity": 85,
              "position": 13,
              "duration": 0.2708333333333333
            },
            {
              "pitch": 65,
              "velocity": 100,
              "position": 13.979166666666666,
              "duration": 0.125
            },
            {
              "pitch": 66,
              "velocity": 100,
              "position": 14.020833333333334,
              "duration": 0.20833333333333334
            },
            {
              "pitch": 67,
              "velocity": 100,
              "position": 14.0625,
              "duration": 0.28125
            },
            {
              "pitch": 70,
              "velocity": 100,
              "position": 14.354166666666666,
              "duration": 0.11458333333333333
            },
            {
              "pitch": 67,
              "velocity": 100,
              "position": 14.802083333333334,
              "duration": 0.0625
            },
            {
              "pitch": 65,
              "velocity": 100,
              "position": 15.03125,
              "duration": 0.10416666666666667
            },
            {
              "pitch": 63,
              "velocity": 100,
              "position": 15.1875,
              "duration": 0.17708333333333334
            },
            {
              "pitch": 60,
              "velocity": 100,
              "position": 15.354166666666666,
              "duration": 0.125
            },
            {
              "pitch": 58,
              "velocity": 100,
              "position": 15.552083333333334,
              "duration": 0.4375
            }
          ]
        },
        "5": {
          "ctab": {
            "srcChannel": 5,
            "name": "Strings",
            "accType": "PAD",
            "editable": false,
            "mutedNotes": [],
            "mutedChords": [
              "1+2+5",
              "sus4",
              "1+5",
              "1+8",
              "7aug",
              "Maj7aug",
              "7(#9)",
              "7(b13)",
              "7(b9)",
              "7(13)",
              "7#11",
              "7(9)",
              "7b5",
              "7sus4",
              "7th",
              "aug",
              "Maj6(9)",
              "Maj7(9)",
              "Maj(9)",
              "Maj7#11",
              "Maj7",
              "Maj6",
              "Maj"
            ],
            "autoStart": false,
            "sourceChordNote": 0,
            "sourceChordType": "Maj7",
            "ctb2Low": null,
            "ctb2Main": {
              "ntr": "ROOT_TRANSPOSITION",
              "ntt": "BYPASS",
              "bassOn": false,
              "chordRootUpperLimit": 8,
              "noteLowLimit": 0,
              "noteHighLimit": 127,
              "rtr": "PITCH_SHIFT"
            },
            "ctb2High": null
          },
          "notes": [
            {
              "pitch": 58,
              "velocity": 80,
              "position": 0,
              "duration": 1.4895833333333333
            },
            {
              "pitch": 63,
              "velocity": 80,
              "position": 0,
              "duration": 1.4895833333333333
            },
            {
              "pitch": 67,
              "velocity": 80,
              "position": 0,
              "duration": 1.4895833333333333
            },
            {
              "pitch": 58,
              "velocity": 80,
              "position": 1.5,
              "duration": 1.9895833333333333
            },
            {
              "pitch": 62,
              "velocity": 80,
              "position": 1.5,
              "duration": 1.9895833333333333
            },
            {
              "pitch": 65,
              "velocity": 80,
              "position": 1.5,
              "duration": 1.9895833333333333
            },
            {
              "pitch": 56,
              "velocity": 80,
              "position": 3.5,
              "duration": 4.489583333333333
            },
            {
              "pitch": 60,
              "velocity": 80,
              "position": 3.5,
              "duration": 4.489583333333333
            },
            {
              "pitch": 63,
              "velocity": 80,
              "position": 3.5,
              "duration": 4.489583333333333
            },
            {
              "pitch": 67,
              "velocity": 80,
              "position": 3.5,
              "duration": 4.489583333333333
            },
            {
              "pitch": 56,
              "velocity": 80,
              "position": 8,
              "duration": 3.9895833333333335
            },
            {
              "pitch": 60,
              "velocity": 80,
              "position": 8,
              "duration": 3.9895833333333335
            },
            {
              "pitch": 63,
              "velocity": 80,
              "position": 8,
              "duration": 3.9895833333333335
            },
            {
              "pitch": 65,
              "velocity": 80,
              "position": 8,
              "duration": 3.9895833333333335
            },
            {
              "pitch": 55,
              "velocity": 80,
              "position": 12,
              "duration": 3.9895833333333335
            },
            {
              "pitch": 58,
              "velocity": 80,
              "position": 12,
              "duration": 3.9895833333333335
            },
            {
              "pitch": 62,
              "velocity": 80,
              "position": 12,
              "duration": 3.9895833333333335
            },
            {
              "pitch": 65,
              "velocity": 80,
              "position": 12,
              "duration": 3.9895833333333335
            }
          ]
        },
        "6": {
          "ctab": {
            "srcChannel": 6,
            "name": "Brass",
            "accType": "PHRASE1",
            "editable": false,
            "mutedNotes": [],
            "mutedChords": [
              "1+2+5",
              "sus4",
              "1+5",
              "1+8",
              "7aug",
              "Maj7aug",
              "7(#9)",
              "7(b13)",
              "7(b9)",
              "7(13)",
              "7#11",
              "7(9)",
              "7b5",
              "7sus4",
              "7th",
              "aug",
              "Maj6(9)",
              "Maj7(9)",
              "Maj(9)",
              "Maj7#11",
              "Maj7",
              "Maj6",
              "Maj"
            ],
            "autoStart": false,
            "sourceChordNote": 0,
            "sourceChordType": "Maj7",
            "ctb2Low": null,
            "ctb2Main": {
              "ntr": "ROOT_TRANSPOSITION",
              "ntt": "BYPASS",
              "bassOn": false,
              "chordRootUpperLimit": 6,
              "noteLowLimit": 0,
              "noteHighLimit": 127,
              "rtr": "PITCH_SHIFT"
            },
            "ctb2High": null
          },
          "notes": [
            {
              "pitch": 67,
              "velocity": 111,
              "position": 0.010416666666666666,
              "duration": 0.125
            },
            {
              "pitch": 72,
              "velocity": 116,
              "position": 0.010416666666666666,
              "duration": 0.13541666666666666
            },
            {
              "pitch": 70,
              "velocity": 114,
              "position": 0.5,
              "duration": 0.28125
            },
            {
              "pitch": 67,
              "velocity": 112,
              "position": 0.5,
              "duration": 0.4375
            },
            {
              "pitch": 72,
              "velocity": 110,
              "position": 0.7916666666666666,
              "duration": 0.14583333333333334
            },
            {
              "pitch": 70,
              "velocity": 64,
              "position": 1.5,
              "duration": 0.28125
            },
            {
              "pitch": 67,
              "velocity": 62,
              "position": 1.5,
              "duration": 0.4375
            },
            {
              "pitch": 72,
              "velocity": 60,
              "position": 1.7916666666666667,
              "duration": 0.14583333333333334
            },
            {
              "pitch": 70,
              "velocity": 54,
              "position": 2.5,
              "duration": 0.28125
            },
            {
              "pitch": 67,
              "velocity": 52,
              "position": 2.5,
              "duration": 0.4375
            },
            {
              "pitch": 72,
              "velocity": 50,
              "position": 2.7916666666666665,
              "duration": 0.14583333333333334
            },
            {
              "pitch": 67,
              "velocity": 114,
              "position": 4,
              "duration": 0.125
            },
            {
              "pitch": 72,
              "velocity": 118,
              "position": 4,
              "duration": 0.13541666666666666
            },
            {
              "pitch": 67,
              "velocity": 118,
              "position": 4.791666666666667,
              "duration": 0.125
            },
            {
              "pitch": 72,
              "velocity": 114,
              "position": 4.791666666666667,
              "duration": 0.13541666666666666
            },
            {
              "pitch": 65,
              "velocity": 112,
              "position": 6.5,
              "duration": 0.14583333333333334
            },
            {
              "pitch": 67,
              "velocity": 121,
              "position": 7,
              "duration": 0.4791666666666667
            },
            {
              "pitch": 70,
              "velocity": 109,
              "position": 7.5,
              "duration": 0.10416666666666667
            },
            {
              "pitch": 67,
              "velocity": 111,
              "position": 8,
              "duration": 0.125
            },
            {
              "pitch": 72,
              "velocity": 116,
              "position": 8,
              "duration": 0.13541666666666666
            },
            {
              "pitch": 70,
              "velocity": 114,
              "position": 8.5,
              "duration": 0.28125
            },
            {
              "pitch": 67,
              "velocity": 112,
              "position": 8.5,
              "duration": 0.4375
            },
            {
              "pitch": 72,
              "velocity": 110,
              "position": 8.791666666666666,
              "duration": 0.14583333333333334
            },
            {
              "pitch": 70,
              "velocity": 64,
              "position": 9.5,
              "duration": 0.28125
            },
            {
              "pitch": 67,
              "velocity": 62,
              "position": 9.5,
              "duration": 0.4375
            },
            {
              "pitch": 72,
              "velocity": 60,
              "position": 9.791666666666666,
              "duration": 0.14583333333333334
            },
            {
              "pitch": 70,
              "velocity": 54,
              "position": 10.5,
              "duration": 0.28125
            },
            {
              "pitch": 67,
              "velocity": 52,
              "position": 10.5,
              "duration": 0.4375
            },
            {
              "pitch": 72,
              "velocity": 50,
              "position": 10.791666666666666,
              "duration": 0.14583333333333334
            },
            {
              "pitch": 63,
              "velocity": 114,
              "position": 11.5,
              "duration": 0.28125
            },
            {
              "pitch": 65,
              "velocity": 110,
              "position": 11.791666666666666,
              "duration": 0.14583333333333334
            },
            {
              "pitch": 67,
              "velocity": 115,
              "position": 12,
              "duration": 0.13541666666666666
            },
            {
              "pitch": 74,
              "velocity": 117,
              "position": 11.989583333333334,
              "duration": 0.17708333333333334
            },
            {
              "pitch": 67,
              "velocity": 114,
              "position": 12.5,
              "duration": 0.14583333333333334
            },
            {
              "pitch": 74,
              "velocity": 113,
              "position": 12.5,
              "duration": 0.17708333333333334
            },
            {
              "pitch": 67,
              "velocity": 117,
              "position": 13,
              "duration": 0.14583333333333334
            },
            {
              "pitch": 74,
              "velocity": 113,
              "position": 13,
              "duration": 0.15625
            }
          ]
        },
        "7": {
          "ctab": {
            "srcChannel": 7,
            "name": "Lead",
            "accType": "PHRASE2",
            "editable": false,
            "mutedNotes": [],
            "mutedChords": [
              "1+2+5",
              "sus4",
              "1+5",
              "1+8",
              "7aug",
              "Maj7aug",
              "7(#9)",
              "7(b13)",
              "7(b9)",
              "7(13)",
              "7#11",
              "7(9)",
              "7b5",
              "7sus4",
              "7th",
              "aug",
              "Maj6(9)",
              "Maj7(9)",
              "Maj(9)",
              "Maj7#11",
              "Maj7",
              "Maj6",
              "Maj"
            ],
            "autoStart": false,
            "sourceChordNote": 0,
            "sourceChordType": "Maj7",
            "ctb2Low": null,
            "ctb2Main": {
              "ntr": "ROOT_TRANSPOSITION",
              "ntt": "BYPASS",
              "bassOn": false,
              "chordRootUpperLimit": 2,
              "noteLowLimit": 0,
              "noteHighLimit": 127,
              "rtr": "PITCH_SHIFT"
            },
            "ctb2High": null
          },
          "notes": [
            {
              "pitch": 84,
              "velocity": 71,
              "position": 1,
              "duration": 0.9791666666666666
            },
            {
              "pitch": 79,
              "velocity": 70,
              "position": 2,
              "duration": 0.9791666666666666
            },
            {
              "pitch": 82,
              "velocity": 70,
              "position": 3,
              "duration": 0.4791666666666667
            },
            {
              "pitch": 80,
              "velocity": 70,
              "position": 3.5,
              "duration": 3.4791666666666665
            },
            {
              "pitch": 79,
              "velocity": 70,
              "position": 7,
              "duration": 0.4791666666666667
            },
            {
              "pitch": 77,
              "velocity": 70,
              "position": 7.5,
              "duration": 2.9791666666666665
            },
            {
              "pitch": 75,
              "velocity": 70,
              "position": 10.5,
              "duration": 0.4791666666666667
            },
            {
              "pitch": 77,
              "velocity": 70,
              "position": 11,
              "duration": 0.4791666666666667
            },
            {
              "pitch": 74,
              "velocity": 70,
              "position": 11.5,
              "duration": 4.125
            }
          ]
        },
        "8": {
          "ctab": {
            "srcChannel": 8,
            "name": "Perc",
            "accType": "SUBRHYTHM",
            "editable": false,
            "mutedNotes": [],
            "mutedChords": [],
            "autoStart": true,
            "sourceChordNote": 0,
            "sourceChordType": "Maj7",
            "ctb2Low": null,
            "ctb2Main": {
              "ntr": "ROOT_FIXED",
              "ntt": "BYPASS",
              "bassOn": false,
              "chordRootUpperLimit": 6,
              "noteLowLimit": 0,
              "noteHighLimit": 127,
              "rtr": "PITCH_SHIFT"
            },
            "ctb2High": null
          },
          "notes": [
            {
              "pitch": 49,
              "velocity": 49,
              "position": 0,
              "duration": 0.010416666666666666
            },
            {
              "pitch": 80,
              "velocity": 35,
              "position": 0,
              "duration": 0.020833333333333332
            },
            {
              "pitch": 54,
              "velocity": 41,
              "position": 0,
              "duration": 0.10416666666666667
            },
            {
              "pitch": 54,
              "velocity": 28,
              "position": 0.3229166666666667,
              "duration": 0.10416666666666667
            },
            {
              "pitch": 54,
              "velocity": 49,
              "position": 0.5,
              "duration": 0.10416666666666667
            },
            {
              "pitch": 54,
              "velocity": 36,
              "position": 0.8229166666666666,
              "duration": 0.10416666666666667
            },
            {
              "pitch": 39,
              "velocity": 81,
              "position": 1,
              "duration": 0.10416666666666667
            },
            {
              "pitch": 54,
              "velocity": 40,
              "position": 1,
              "duration": 0.10416666666666667
            },
            {
              "pitch": 54,
              "velocity": 25,
              "position": 1.3229166666666667,
              "duration": 0.10416666666666667
            },
            {
              "pitch": 54,
              "velocity": 48,
              "position": 1.5,
              "duration": 0.10416666666666667
            },
            {
              "pitch": 54,
              "velocity": 38,
              "position": 1.8229166666666667,
              "duration": 0.10416666666666667
            },
            {
              "pitch": 54,
              "velocity": 40,
              "position": 2,
              "duration": 0.10416666666666667
            },
            {
              "pitch": 54,
              "velocity": 25,
              "position": 2.3229166666666665,
              "duration": 0.10416666666666667
            },
            {
              "pitch": 54,
              "velocity": 48,
              "position": 2.5,
              "duration": 0.10416666666666667
            },
            {
              "pitch": 54,
              "velocity": 35,
              "position": 2.8229166666666665,
              "duration": 0.10416666666666667
            },
            {
              "pitch": 80,
              "velocity": 35,
              "position": 3,
              "duration": 0.020833333333333332
            },
            {
              "pitch": 39,
              "velocity": 75,
              "position": 3,
              "duration": 0.10416666666666667
            },
            {
              "pitch": 54,
              "velocity": 40,
              "position": 3,
              "duration": 0.10416666666666667
            },
            {
              "pitch": 80,
              "velocity": 35,
              "position": 3.3229166666666665,
              "duration": 0.020833333333333332
            },
            {
              "pitch": 54,
              "velocity": 24,
              "position": 3.3229166666666665,
              "duration": 0.10416666666666667
            },
            {
              "pitch": 54,
              "velocity": 48,
              "position": 3.5,
              "duration": 0.10416666666666667
            },
            {
              "pitch": 81,
              "velocity": 36,
              "position": 3.5,
              "duration": 0.10416666666666667
            },
            {
              "pitch": 54,
              "velocity": 35,
              "position": 3.8229166666666665,
              "duration": 0.10416666666666667
            },
            {
              "pitch": 80,
              "velocity": 35,
              "position": 4,
              "duration": 0.020833333333333332
            },
            {
              "pitch": 54,
              "velocity": 41,
              "position": 4,
              "duration": 0.10416666666666667
            },
            {
              "pitch": 54,
              "velocity": 28,
              "position": 4.322916666666667,
              "duration": 0.10416666666666667
            },
            {
              "pitch": 54,
              "velocity": 49,
              "position": 4.5,
              "duration": 0.10416666666666667
            },
            {
              "pitch": 54,
              "velocity": 36,
              "position": 4.822916666666667,
              "duration": 0.10416666666666667
            },
            {
              "pitch": 39,
              "velocity": 80,
              "position": 5,
              "duration": 0.10416666666666667
            },
            {
              "pitch": 54,
              "velocity": 40,
              "position": 5,
              "duration": 0.10416666666666667
            },
            {
              "pitch": 54,
              "velocity": 25,
              "position": 5.322916666666667,
              "duration": 0.10416666666666667
            },
            {
              "pitch": 54,
              "velocity": 48,
              "position": 5.5,
              "duration": 0.10416666666666667
            },
            {
              "pitch": 54,
              "velocity": 38,
              "position": 5.822916666666667,
              "duration": 0.10416666666666667
            },
            {
              "pitch": 81,
              "velocity": 33,
              "position": 5.822916666666667,
              "duration": 0.10416666666666667
            },
            {
              "pitch": 80,
              "velocity": 35,
              "position": 6,
              "duration": 0.020833333333333332
            },
            {
              "pitch": 54,
              "velocity": 40,
              "position": 6,
              "duration": 0.10416666666666667
            },
            {
              "pitch": 80,
              "velocity": 35,
              "position": 6.322916666666667,
              "duration": 0.020833333333333332
            },
            {
              "pitch": 54,
              "velocity": 25,
              "position": 6.322916666666667,
              "duration": 0.10416666666666667
            },
            {
              "pitch": 54,
              "velocity": 48,
              "position": 6.5,
              "duration": 0.10416666666666667
            },
            {
              "pitch": 81,
              "velocity": 36,
              "position": 6.5,
              "duration": 0.10416666666666667
            },
            {
              "pitch": 54,
              "velocity": 35,
              "position": 6.822916666666667,
              "duration": 0.10416666666666667
            },
            {
              "pitch": 80,
              "velocity": 35,
              "position": 7,
              "duration": 0.020833333333333332
            },
            {
              "pitch": 39,
              "velocity": 79,
              "position": 7,
              "duration": 0.10416666666666667
            },
            {
              "pitch": 54,
              "velocity": 40,
              "position": 7,
              "duration": 0.10416666666666667
            },
            {
              "pitch": 80,
              "velocity": 35,
              "position": 7.322916666666667,
              "duration": 0.020833333333333332
            },
            {
              "pitch": 54,
              "velocity": 24,
              "position": 7.322916666666667,
              "duration": 0.10416666666666667
            },
            {
              "pitch": 54,
              "velocity": 48,
              "position": 7.5,
              "duration": 0.10416666666666667
            },
            {
              "pitch": 81,
              "velocity": 36,
              "position": 7.5,
              "duration": 0.10416666666666667
            },
            {
              "pitch": 54,
              "velocity": 35,
              "position": 7.822916666666667,
              "duration": 0.10416666666666667
            },
            {
              "pitch": 57,
              "velocity": 51,
              "position": 7.989583333333333,
              "duration": 0.010416666666666666
            },
            {
              "pitch": 80,
              "velocity": 35,
              "position": 8,
              "duration": 0.020833333333333332
            },
            {
              "pitch": 54,
              "velocity": 41,
              "position": 8,
              "duration": 0.10416666666666667
            },
            {
              "pitch": 54,
              "velocity": 28,
              "position": 8.322916666666666,
              "duration": 0.10416666666666667
            },
            {
              "pitch": 54,
              "velocity": 49,
              "position": 8.5,
              "duration": 0.10416666666666667
            },
            {
              "pitch": 54,
              "velocity": 36,
              "position": 8.822916666666666,
              "duration": 0.10416666666666667
            },
            {
              "pitch": 39,
              "velocity": 81,
              "position": 9,
              "duration": 0.10416666666666667
            },
            {
              "pitch": 54,
              "velocity": 40,
              "position": 9,
              "duration": 0.10416666666666667
            },
            {
              "pitch": 54,
              "velocity": 25,
              "position": 9.322916666666666,
              "duration": 0.10416666666666667
            },
            {
              "pitch": 54,
              "velocity": 48,
              "position": 9.5,
              "duration": 0.10416666666666667
            },
            {
              "pitch": 54,
              "velocity": 38,
              "position": 9.822916666666666,
              "duration": 0.10416666666666667
            },
            {
              "pitch": 54,
              "velocity": 40,
              "position": 10,
              "duration": 0.10416666666666667
            },
            {
              "pitch": 54,
              "velocity": 25,
              "position": 10.322916666666666,
              "duration": 0.10416666666666667
            },
            {
              "pitch": 54,
              "velocity": 48,
              "position": 10.5,
              "duration": 0.10416666666666667
            },
            {
              "pitch": 54,
              "velocity": 35,
              "position": 10.822916666666666,
              "duration": 0.10416666666666667
            },
            {
              "pitch": 80,
              "velocity": 35,
              "position": 11,
              "duration": 0.020833333333333332
            },
            {
              "pitch": 39,
              "velocity": 75,
              "position": 11,
              "duration": 0.10416666666666667
            },
            {
              "pitch": 54,
              "velocity": 40,
              "position": 11,
              "duration": 0.10416666666666667
            },
            {
              "pitch": 80,
              "velocity": 35,
              "position": 11.322916666666666,
              "duration": 0.020833333333333332
            },
            {
              "pitch": 54,
              "velocity": 24,
              "position": 11.322916666666666,
              "duration": 0.10416666666666667
            },
            {
              "pitch": 54,
              "velocity": 48,
              "position": 11.5,
              "duration": 0.10416666666666667
            },
            {
              "pitch": 81,
              "velocity": 36,
              "position": 11.5,
              "duration": 0.10416666666666667
            },
            {
              "pitch": 54,
              "velocity": 35,
              "position": 11.822916666666666,
              "duration": 0.10416666666666667
            },
            {
              "pitch": 55,
              "velocity": 51,
              "position": 12,
              "duration": 0.010416666666666666
            },
            {
              "pitch": 80,
              "velocity": 35,
              "position": 12,
              "duration": 0.020833333333333332
            },
            {
              "pitch": 54,
              "velocity": 41,
              "position": 12,
              "duration": 0.10416666666666667
            },
            {
              "pitch": 54,
              "velocity": 28,
              "position": 12.322916666666666,
              "duration": 0.10416666666666667
            },
            {
              "pitch": 55,
              "velocity": 51,
              "position": 12.5,
              "duration": 0.010416666666666666
            },
            {
              "pitch": 54,
              "velocity": 49,
              "position": 12.5,
              "duration": 0.10416666666666667
            },
            {
              "pitch": 54,
              "velocity": 36,
              "position": 12.822916666666666,
              "duration": 0.10416666666666667
            },
            {
              "pitch": 55,
              "velocity": 51,
              "position": 13,
              "duration": 0.010416666666666666
            },
            {
              "pitch": 39,
              "velocity": 80,
              "position": 13,
              "duration": 0.10416666666666667
            },
            {
              "pitch": 54,
              "velocity": 40,
              "position": 13,
              "duration": 0.10416666666666667
            },
            {
              "pitch": 54,
              "velocity": 25,
              "position": 13.322916666666666,
              "duration": 0.10416666666666667
            },
            {
              "pitch": 54,
              "velocity": 48,
              "position": 13.5,
              "duration": 0.10416666666666667
            },
            {
              "pitch": 54,
              "velocity": 38,
              "position": 13.822916666666666,
              "duration": 0.10416666666666667
            },
            {
              "pitch": 81,
              "velocity": 33,
              "position": 13.822916666666666,
              "duration": 0.10416666666666667
            },
            {
              "pitch": 80,
              "velocity": 35,
              "position": 14,
              "duration": 0.020833333333333332
            },
            {
              "pitch": 54,
              "velocity": 40,
              "position": 14,
              "duration": 0.10416666666666667
            },
            {
              "pitch": 80,
              "velocity": 35,
              "position": 14.322916666666666,
              "duration": 0.020833333333333332
            },
            {
              "pitch": 54,
              "velocity": 25,
              "position": 14.322916666666666,
              "duration": 0.10416666666666667
            },
            {
              "pitch": 54,
              "velocity": 48,
              "position": 14.5,
              "duration": 0.10416666666666667
            },
            {
              "pitch": 81,
              "velocity": 36,
              "position": 14.5,
              "duration": 0.10416666666666667
            },
            {
              "pitch": 54,
              "velocity": 35,
              "position": 14.822916666666666,
              "duration": 0.10416666666666667
            },
            {
              "pitch": 80,
              "velocity": 35,
              "position": 15,
              "duration": 0.020833333333333332
            },
            {
              "pitch": 39,
              "velocity": 79,
              "position": 15,
              "duration": 0.10416666666666667
            },
            {
              "pitch": 54,
              "velocity": 40,
              "position": 15,
              "duration": 0.10416666666666667
            },
            {
              "pitch": 80,
              "velocity": 35,
              "position": 15.322916666666666,
              "duration": 0.020833333333333332
            },
            {
              "pitch": 54,
              "velocity": 24,
              "position": 15.322916666666666,
              "duration": 0.10416666666666667
            },
            {
              "pitch": 54,
              "velocity": 48,
              "position": 15.5,
              "duration": 0.10416666666666667
            },
            {
              "pitch": 81,
              "velocity": 36,
              "position": 15.5,
              "duration": 0.10416666666666667
            },
            {
              "pitch": 54,
              "velocity": 35,
              "position": 15.822916666666666,
              "duration": 0.10416666666666667
            }
          ]
        },
        "9": {
          "ctab": {
            "srcChannel": 9,
            "name": "Drums",
            "accType": "RHYTHM",
            "editable": false,
            "mutedNotes": [],
            "mutedChords": [],
            "autoStart": true,
            "sourceChordNote": 0,
            "sourceChordType": "Maj7",
            "ctb2Low": null,
            "ctb2Main": {
              "ntr": "ROOT_FIXED",
              "ntt": "BYPASS",
              "bassOn": false,
              "chordRootUpperLimit": 6,
              "noteLowLimit": 0,
              "noteHighLimit": 127,
              "rtr": "PITCH_SHIFT"
            },
            "ctb2High": null
          },
          "notes": [
            {
              "pitch": 36,
              "velocity": 88,
              "position": 0,
              "duration": 0.10416666666666667
            },
            {
              "pitch": 42,
              "velocity": 87,
              "position": 0,
              "duration": 0.10416666666666667
            },
            {
              "pitch": 46,
              "velocity": 54,
              "position": 0.5,
              "duration": 0.10416666666666667
            },
            {
              "pitch": 34,
              "velocity": 64,
              "position": 1,
              "duration": 0.10416666666666667
            },
            {
              "pitch": 42,
              "velocity": 89,
              "position": 1,
              "duration": 0.10416666666666667
            },
            {
              "pitch": 42,
              "velocity": 71,
              "position": 1.5,
              "duration": 0.10416666666666667
            },
            {
              "pitch": 42,
              "velocity": 33,
              "position": 1.8125,
              "duration": 0.10416666666666667
            },
            {
              "pitch": 36,
              "velocity": 52,
              "position": 1.84375,
              "duration": 0.10416666666666667
            },
            {
              "pitch": 36,
              "velocity": 84,
              "position": 2,
              "duration": 0.10416666666666667
            },
            {
              "pitch": 42,
              "velocity": 86,
              "position": 2,
              "duration": 0.10416666666666667
            },
            {
              "pitch": 42,
              "velocity": 62,
              "position": 2.5,
              "duration": 0.10416666666666667
            },
            {
              "pitch": 42,
              "velocity": 33,
              "position": 2.8125,
              "duration": 0.10416666666666667
            },
            {
              "pitch": 34,
              "velocity": 64,
              "position": 3,
              "duration": 0.10416666666666667
            },
            {
              "pitch": 42,
              "velocity": 83,
              "position": 3,
              "duration": 0.10416666666666667
            },
            {
              "pitch": 42,
              "velocity": 71,
              "position": 3.5,
              "duration": 0.10416666666666667
            },
            {
              "pitch": 42,
              "velocity": 33,
              "position": 3.8125,
              "duration": 0.10416666666666667
            },
            {
              "pitch": 36,
              "velocity": 88,
              "position": 4,
              "duration": 0.10416666666666667
            },
            {
              "pitch": 42,
              "velocity": 88,
              "position": 4,
              "duration": 0.10416666666666667
            },
            {
              "pitch": 46,
              "velocity": 54,
              "position": 4.5,
              "duration": 0.10416666666666667
            },
            {
              "pitch": 34,
              "velocity": 64,
              "position": 5,
              "duration": 0.10416666666666667
            },
            {
              "pitch": 42,
              "velocity": 88,
              "position": 5,
              "duration": 0.10416666666666667
            },
            {
              "pitch": 42,
              "velocity": 88,
              "position": 5.5,
              "duration": 0.10416666666666667
            },
            {
              "pitch": 42,
              "velocity": 33,
              "position": 5.8125,
              "duration": 0.10416666666666667
            },
            {
              "pitch": 36,
              "velocity": 73,
              "position": 5.822916666666667,
              "duration": 0.10416666666666667
            },
            {
              "pitch": 36,
              "velocity": 84,
              "position": 6,
              "duration": 0.10416666666666667
            },
            {
              "pitch": 42,
              "velocity": 73,
              "position": 6,
              "duration": 0.10416666666666667
            },
            {
              "pitch": 42,
              "velocity": 33,
              "position": 6.3125,
              "duration": 0.10416666666666667
            },
            {
              "pitch": 36,
              "velocity": 88,
              "position": 6.5,
              "duration": 0.10416666666666667
            },
            {
              "pitch": 42,
              "velocity": 62,
              "position": 6.5,
              "duration": 0.10416666666666667
            },
            {
              "pitch": 42,
              "velocity": 33,
              "position": 6.8125,
              "duration": 0.10416666666666667
            },
            {
              "pitch": 34,
              "velocity": 64,
              "position": 7,
              "duration": 0.10416666666666667
            },
            {
              "pitch": 42,
              "velocity": 88,
              "position": 7,
              "duration": 0.10416666666666667
            },
            {
              "pitch": 36,
              "velocity": 87,
              "position": 7.5,
              "duration": 0.10416666666666667
            },
            {
              "pitch": 42,
              "velocity": 95,
              "position": 7.5,
              "duration": 0.10416666666666667
            },
            {
              "pitch": 42,
              "velocity": 33,
              "position": 7.8125,
              "duration": 0.10416666666666667
            },
            {
              "pitch": 34,
              "velocity": 64,
              "position": 7.822916666666667,
              "duration": 0.10416666666666667
            },
            {
              "pitch": 36,
              "velocity": 88,
              "position": 8,
              "duration": 0.10416666666666667
            },
            {
              "pitch": 42,
              "velocity": 87,
              "position": 8,
              "duration": 0.10416666666666667
            },
            {
              "pitch": 46,
              "velocity": 54,
              "position": 8.5,
              "duration": 0.10416666666666667
            },
            {
              "pitch": 34,
              "velocity": 64,
              "position": 9,
              "duration": 0.10416666666666667
            },
            {
              "pitch": 42,
              "velocity": 89,
              "position": 9,
              "duration": 0.10416666666666667
            },
            {
              "pitch": 42,
              "velocity": 71,
              "position": 9.5,
              "duration": 0.10416666666666667
            },
            {
              "pitch": 42,
              "velocity": 33,
              "position": 9.8125,
              "duration": 0.10416666666666667
            },
            {
              "pitch": 36,
              "velocity": 52,
              "position": 9.84375,
              "duration": 0.10416666666666667
            },
            {
              "pitch": 36,
              "velocity": 84,
              "position": 10,
              "duration": 0.10416666666666667
            },
            {
              "pitch": 42,
              "velocity": 86,
              "position": 10,
              "duration": 0.10416666666666667
            },
            {
              "pitch": 42,
              "velocity": 62,
              "position": 10.5,
              "duration": 0.10416666666666667
            },
            {
              "pitch": 42,
              "velocity": 33,
              "position": 10.8125,
              "duration": 0.10416666666666667
            },
            {
              "pitch": 34,
              "velocity": 64,
              "position": 11,
              "duration": 0.10416666666666667
            },
            {
              "pitch": 42,
              "velocity": 83,
              "position": 11,
              "duration": 0.10416666666666667
            },
            {
              "pitch": 36,
              "velocity": 70,
              "position": 11.5,
              "duration": 0.10416666666666667
            },
            {
              "pitch": 46,
              "velocity": 54,
              "position": 11.5,
              "duration": 0.10416666666666667
            },
            {
              "pitch": 34,
              "velocity": 18,
              "position": 11.75,
              "duration": 0.10416666666666667
            },
            {
              "pitch": 34,
              "velocity": 48,
              "position": 11.875,
              "duration": 0.10416666666666667
            },
            {
              "pitch": 34,
              "velocity": 64,
              "position": 12,
              "duration": 0.10416666666666667
            },
            {
              "pitch": 36,
              "velocity": 88,
              "position": 12,
              "duration": 0.10416666666666667
            },
            {
              "pitch": 42,
              "velocity": 88,
              "position": 12,
              "duration": 0.10416666666666667
            },
            {
              "pitch": 34,
              "velocity": 64,
              "position": 12.5,
              "duration": 0.10416666666666667
            },
            {
              "pitch": 42,
              "velocity": 83,
              "position": 12.5,
              "duration": 0.10416666666666667
            },
            {
              "pitch": 42,
              "velocity": 33,
              "position": 12.8125,
              "duration": 0.10416666666666667
            },
            {
              "pitch": 36,
              "velocity": 65,
              "position": 12.822916666666666,
              "duration": 0.10416666666666667
            },
            {
              "pitch": 34,
              "velocity": 64,
              "position": 13,
              "duration": 0.10416666666666667
            },
            {
              "pitch": 42,
              "velocity": 88,
              "position": 13,
              "duration": 0.10416666666666667
            },
            {
              "pitch": 34,
              "velocity": 64,
              "position": 13.5,
              "duration": 0.10416666666666667
            },
            {
              "pitch": 42,
              "velocity": 88,
              "position": 13.5,
              "duration": 0.10416666666666667
            },
            {
              "pitch": 42,
              "velocity": 33,
              "position": 13.8125,
              "duration": 0.10416666666666667
            },
            {
              "pitch": 36,
              "velocity": 65,
              "position": 13.822916666666666,
              "duration": 0.10416666666666667
            },
            {
              "pitch": 34,
              "velocity": 64,
              "position": 14,
              "duration": 0.10416666666666667
            },
            {
              "pitch": 42,
              "velocity": 73,
              "position": 14,
              "duration": 0.10416666666666667
            },
            {
              "pitch": 46,
              "velocity": 54,
              "position": 14.3125,
              "duration": 0.10416666666666667
            },
            {
              "pitch": 36,
              "velocity": 84,
              "position": 14.322916666666666,
              "duration": 0.10416666666666667
            },
            {
              "pitch": 42,
              "velocity": 36,
              "position": 14.583333333333334,
              "duration": 0.10416666666666667
            },
            {
              "pitch": 36,
              "velocity": 84,
              "position": 14.822916666666666,
              "duration": 0.10416666666666667
            },
            {
              "pitch": 34,
              "velocity": 64,
              "position": 15,
              "duration": 0.10416666666666667
            },
            {
              "pitch": 42,
              "velocity": 88,
              "position": 15,
              "duration": 0.10416666666666667
            },
            {
              "pitch": 34,
              "velocity": 64,
              "position": 15.5,
              "duration": 0.10416666666666667
            },
            {
              "pitch": 36,
              "velocity": 87,
              "position": 15.5,
              "duration": 0.10416666666666667
            },
            {
              "pitch": 42,
              "velocity": 95,
              "position": 15.5,
              "duration": 0.10416666666666667
            },
            {
              "pitch": 42,
              "velocity": 33,
              "position": 15.8125,
              "duration": 0.10416666666666667
            },
            {
              "pitch": 34,
              "velocity": 64,
              "position": 15.822916666666666,
              "duration": 0.10416666666666667
            }
          ]
        },
        "10": {
          "ctab": {
            "srcChannel": 10,
            "name": "SynBass",
            "accType": "BASS",
            "editable": false,
            "mutedNotes": [],
            "mutedChords": [
              "dim7",
              "dim",
              "minMaj7(9)",
              "minMaj7",
              "min7(11)",
              "min7(9)",
              "min(9)",
              "m7b5",
              "min7",
              "min6",
              "min"
            ],
            "autoStart": false,
            "sourceChordNote": 0,
            "sourceChordType": "Maj7",
            "ctb2Low": null,
            "ctb2Main": {
              "ntr": "ROOT_TRANSPOSITION",
              "ntt": "BYPASS",
              "bassOn": false,
              "chordRootUpperLimit": 6,
              "noteLowLimit": 28,
              "noteHighLimit": 127,
              "rtr": "PITCH_SHIFT"
            },
            "ctb2High": null
          },
          "notes": [
            {
              "pitch": 24,
              "velocity": 100,
              "position": 0,
              "duration": 0.4895833333333333
            },
            {
              "pitch": 36,
              "velocity": 100,
              "position": 1.7916666666666667,
              "duration": 0.17708333333333334
            },
            {
              "pitch": 35,
              "velocity": 100,
              "position": 2,
              "duration": 0.4895833333333333
            },
            {
              "pitch": 35,
              "velocity": 100,
              "position": 3.5,
              "duration": 0.28125
            },
            {
              "pitch": 31,
              "velocity": 100,
              "position": 3.8229166666666665,
              "duration": 0.22916666666666666
            },
            {
              "pitch": 33,
              "velocity": 100,
              "position": 4,
              "duration": 0.4895833333333333
            },
            {
              "pitch": 31,
              "velocity": 100,
              "position": 5.822916666666667,
              "duration": 0.13541666666666666
            },
            {
              "pitch": 33,
              "velocity": 100,
              "position": 6,
              "duration": 0.28125
            },
            {
              "pitch": 31,
              "velocity": 100,
              "position": 6.322916666666667,
              "duration": 0.13541666666666666
            },
            {
              "pitch": 33,
              "velocity": 100,
              "position": 6.5,
              "duration": 0.3854166666666667
            },
            {
              "pitch": 31,
              "velocity": 100,
              "position": 7,
              "duration": 0.28125
            },
            {
              "pitch": 31,
              "velocity": 100,
              "position": 7.5,
              "duration": 0.3020833333333333
            },
            {
              "pitch": 29,
              "velocity": 100,
              "position": 8,
              "duration": 0.4895833333333333
            },
            {
              "pitch": 28,
              "velocity": 100,
              "position": 9.791666666666666,
              "duration": 0.17708333333333334
            },
            {
              "pitch": 29,
              "velocity": 100,
              "position": 10,
              "duration": 0.4895833333333333
            },
            {
              "pitch": 29,
              "velocity": 100,
              "position": 11.5,
              "duration": 0.28125
            },
            {
              "pitch": 30,
              "velocity": 100,
              "position": 11.822916666666666,
              "duration": 0.22916666666666666
            },
            {
              "pitch": 31,
              "velocity": 100,
              "position": 12,
              "duration": 0.23958333333333334
            },
            {
              "pitch": 31,
              "velocity": 100,
              "position": 12.5,
              "duration": 0.25
            },
            {
              "pitch": 31,
              "velocity": 100,
              "position": 13,
              "duration": 0.2604166666666667
            },
            {
              "pitch": 43,
              "velocity": 100,
              "position": 13.822916666666666,
              "duration": 0.0625
            },
            {
              "pitch": 41,
              "velocity": 100,
              "position": 14,
              "duration": 0.5104166666666666
            },
            {
              "pitch": 40,
              "velocity": 100,
              "position": 14.5,
              "duration": 0.11458333333333333
            },
            {
              "pitch": 38,
              "velocity": 100,
              "position": 15,
              "duration": 0.4479166666666667
            },
            {
              "pitch": 35,
              "velocity": 100,
              "position": 15.5,
              "duration": 0.4270833333333333
            }
          ]
        },
        "11": {
          "ctab": {
            "srcChannel": 11,
            "name": "Clavi",
            "accType": "CHORD2",
            "editable": false,
            "mutedNotes": [],
            "mutedChords": [
              "dim7",
              "dim",
              "minMaj7(9)",
              "minMaj7",
              "min7(11)",
              "min7(9)",
              "min(9)",
              "m7b5",
              "min7",
              "min6",
              "min"
            ],
            "autoStart": false,
            "sourceChordNote": 0,
            "sourceChordType": "Maj7",
            "ctb2Low": null,
            "ctb2Main": {
              "ntr": "ROOT_TRANSPOSITION",
              "ntt": "BYPASS",
              "bassOn": false,
              "chordRootUpperLimit": 10,
              "noteLowLimit": 0,
              "noteHighLimit": 127,
              "rtr": "PITCH_SHIFT"
            },
            "ctb2High": null
          },
          "notes": [
            {
              "pitch": 43,
              "velocity": 87,
              "position": 0,
              "duration": 0.5
            },
            {
              "pitch": 52,
              "velocity": 80,
              "position": 0.5,
              "duration": 0.2604166666666667
            },
            {
              "pitch": 47,
              "velocity": 83,
              "position": 0.5,
              "duration": 0.28125
            },
            {
              "pitch": 43,
              "velocity": 83,
              "position": 0.8125,
              "duration": 0.17708333333333334
            },
            {
              "pitch": 47,
              "velocity": 79,
              "position": 1,
              "duration": 0.17708333333333334
            },
            {
              "pitch": 52,
              "velocity": 83,
              "position": 1,
              "duration": 0.19791666666666666
            },
            {
              "pitch": 52,
              "velocity": 80,
              "position": 1.5,
              "duration": 0.2708333333333333
            },
            {
              "pitch": 47,
              "velocity": 79,
              "position": 1.5,
              "duration": 0.28125
            },
            {
              "pitch": 43,
              "velocity": 83,
              "position": 1.8125,
              "duration": 0.08333333333333333
            },
            {
              "pitch": 48,
              "velocity": 92,
              "position": 2,
              "duration": 0.3541666666666667
            },
            {
              "pitch": 43,
              "velocity": 83,
              "position": 2.8125,
              "duration": 0.09375
            },
            {
              "pitch": 47,
              "velocity": 84,
              "position": 3,
              "duration": 0.28125
            },
            {
              "pitch": 48,
              "velocity": 87,
              "position": 3.3125,
              "duration": 0.1875
            },
            {
              "pitch": 43,
              "velocity": 83,
              "position": 3.5,
              "duration": 0.09375
            },
            {
              "pitch": 52,
              "velocity": 92,
              "position": 3.8125,
              "duration": 0.20833333333333334
            },
            {
              "pitch": 43,
              "velocity": 88,
              "position": 4,
              "duration": 0.4270833333333333
            },
            {
              "pitch": 52,
              "velocity": 84,
              "position": 4.5,
              "duration": 0.23958333333333334
            },
            {
              "pitch": 47,
              "velocity": 88,
              "position": 4.5,
              "duration": 0.2604166666666667
            },
            {
              "pitch": 43,
              "velocity": 84,
              "position": 4.8125,
              "duration": 0.16666666666666666
            },
            {
              "pitch": 47,
              "velocity": 79,
              "position": 5,
              "duration": 0.22916666666666666
            },
            {
              "pitch": 52,
              "velocity": 80,
              "position": 5,
              "duration": 0.22916666666666666
            },
            {
              "pitch": 47,
              "velocity": 76,
              "position": 5.5,
              "duration": 0.23958333333333334
            },
            {
              "pitch": 52,
              "velocity": 74,
              "position": 5.5,
              "duration": 0.23958333333333334
            },
            {
              "pitch": 43,
              "velocity": 83,
              "position": 5.8125,
              "duration": 0.08333333333333333
            },
            {
              "pitch": 48,
              "velocity": 96,
              "position": 6,
              "duration": 0.21875
            },
            {
              "pitch": 48,
              "velocity": 90,
              "position": 6.5,
              "duration": 0.20833333333333334
            },
            {
              "pitch": 43,
              "velocity": 83,
              "position": 6.8125,
              "duration": 0.09375
            },
            {
              "pitch": 47,
              "velocity": 84,
              "position": 7,
              "duration": 0.28125
            },
            {
              "pitch": 48,
              "velocity": 87,
              "position": 7.3125,
              "duration": 0.1875
            },
            {
              "pitch": 43,
              "velocity": 83,
              "position": 7.5,
              "duration": 0.09375
            },
            {
              "pitch": 52,
              "velocity": 92,
              "position": 7.8125,
              "duration": 0.19791666666666666
            },
            {
              "pitch": 43,
              "velocity": 87,
              "position": 8,
              "duration": 0.5
            },
            {
              "pitch": 52,
              "velocity": 80,
              "position": 8.5,
              "duration": 0.2604166666666667
            },
            {
              "pitch": 47,
              "velocity": 83,
              "position": 8.5,
              "duration": 0.28125
            },
            {
              "pitch": 43,
              "velocity": 83,
              "position": 8.8125,
              "duration": 0.17708333333333334
            },
            {
              "pitch": 47,
              "velocity": 79,
              "position": 9,
              "duration": 0.17708333333333334
            },
            {
              "pitch": 52,
              "velocity": 83,
              "position": 9,
              "duration": 0.19791666666666666
            },
            {
              "pitch": 52,
              "velocity": 80,
              "position": 9.5,
              "duration": 0.2708333333333333
            },
            {
              "pitch": 47,
              "velocity": 79,
              "position": 9.5,
              "duration": 0.28125
            },
            {
              "pitch": 43,
              "velocity": 83,
              "position": 9.8125,
              "duration": 0.08333333333333333
            },
            {
              "pitch": 48,
              "velocity": 92,
              "position": 10,
              "duration": 0.3541666666666667
            },
            {
              "pitch": 43,
              "velocity": 83,
              "position": 10.8125,
              "duration": 0.09375
            },
            {
              "pitch": 47,
              "velocity": 84,
              "position": 11,
              "duration": 0.28125
            },
            {
              "pitch": 48,
              "velocity": 87,
              "position": 11.3125,
              "duration": 0.1875
            },
            {
              "pitch": 43,
              "velocity": 83,
              "position": 11.5,
              "duration": 0.09375
            },
            {
              "pitch": 52,
              "velocity": 92,
              "position": 11.8125,
              "duration": 0.20833333333333334
            },
            {
              "pitch": 43,
              "velocity": 88,
              "position": 12,
              "duration": 0.4270833333333333
            },
            {
              "pitch": 52,
              "velocity": 84,
              "position": 12.5,
              "duration": 0.23958333333333334
            },
            {
              "pitch": 47,
              "velocity": 88,
              "position": 12.5,
              "duration": 0.2604166666666667
            },
            {
              "pitch": 43,
              "velocity": 84,
              "position": 12.8125,
              "duration": 0.16666666666666666
            },
            {
              "pitch": 47,
              "velocity": 79,
              "position": 13,
              "duration": 0.22916666666666666
            },
            {
              "pitch": 52,
              "velocity": 80,
              "position": 13,
              "duration": 0.22916666666666666
            },
            {
              "pitch": 47,
              "velocity": 76,
              "position": 13.5,
              "duration": 0.23958333333333334
            },
            {
              "pitch": 52,
              "velocity": 74,
              "position": 13.5,
              "duration": 0.23958333333333334
            },
            {
              "pitch": 43,
              "velocity": 83,
              "position": 13.8125,
              "duration": 0.08333333333333333
            },
            {
              "pitch": 47,
              "velocity": 76,
              "position": 14,
              "duration": 0.23958333333333334
            },
            {
              "pitch": 52,
              "velocity": 74,
              "position": 14,
              "duration": 0.23958333333333334
            },
            {
              "pitch": 43,
              "velocity": 83,
              "position": 14.3125,
              "duration": 0.08333333333333333
            },
            {
              "pitch": 47,
              "velocity": 76,
              "position": 14.5,
              "duration": 0.23958333333333334
            },
            {
              "pitch": 52,
              "velocity": 74,
              "position": 14.5,
              "duration": 0.23958333333333334
            },
            {
              "pitch": 43,
              "velocity": 83,
              "position": 14.8125,
              "duration": 0.09375
            },
            {
              "pitch": 47,
              "velocity": 84,
              "position": 15,
              "duration": 0.28125
            },
            {
              "pitch": 48,
              "velocity": 87,
              "position": 15.3125,
              "duration": 0.1875
            },
            {
              "pitch": 43,
              "velocity": 83,
              "position": 15.5,
              "duration": 0.09375
            },
            {
              "pitch": 52,
              "velocity": 92,
              "position": 15.8125,
              "duration": 0.17708333333333334
            }
          ]
        },
        "12": {
          "ctab": {
            "srcChannel": 12,
            "name": "ElecPno",
            "accType": "CHORD1",
            "editable": false,
            "mutedNotes": [],
            "mutedChords": [
              "dim7",
              "dim",
              "minMaj7(9)",
              "minMaj7",
              "min7(11)",
              "min7(9)",
              "min(9)",
              "m7b5",
              "min7",
              "min6",
              "min"
            ],
            "autoStart": false,
            "sourceChordNote": 0,
            "sourceChordType": "Maj7",
            "ctb2Low": null,
            "ctb2Main": {
              "ntr": "ROOT_TRANSPOSITION",
              "ntt": "BYPASS",
              "bassOn": false,
              "chordRootUpperLimit": 8,
              "noteLowLimit": 0,
              "noteHighLimit": 127,
              "rtr": "PITCH_SHIFT"
            },
            "ctb2High": null
          },
          "notes": [
            {
              "pitch": 62,
              "velocity": 80,
              "position": 0,
              "duration": 0.21875
            },
            {
              "pitch": 64,
              "velocity": 80,
              "position": 0,
              "duration": 0.21875
            },
            {
              "pitch": 60,
              "velocity": 80,
              "position": 0,
              "duration": 0.22916666666666666
            },
            {
              "pitch": 67,
              "velocity": 80,
              "position": 0,
              "duration": 0.22916666666666666
            },
            {
              "pitch": 60,
              "velocity": 80,
              "position": 0.5,
              "duration": 0.22916666666666666
            },
            {
              "pitch": 62,
              "velocity": 80,
              "position": 0.5,
              "duration": 0.22916666666666666
            },
            {
              "pitch": 64,
              "velocity": 80,
              "position": 0.5,
              "duration": 0.22916666666666666
            },
            {
              "pitch": 67,
              "velocity": 80,
              "position": 0.5,
              "duration": 0.22916666666666666
            },
            {
              "pitch": 60,
              "velocity": 80,
              "position": 1,
              "duration": 0.21875
            },
            {
              "pitch": 62,
              "velocity": 80,
              "position": 1,
              "duration": 0.21875
            },
            {
              "pitch": 64,
              "velocity": 80,
              "position": 1,
              "duration": 0.21875
            },
            {
              "pitch": 67,
              "velocity": 80,
              "position": 1,
              "duration": 0.21875
            },
            {
              "pitch": 59,
              "velocity": 80,
              "position": 1.5,
              "duration": 0.22916666666666666
            },
            {
              "pitch": 62,
              "velocity": 80,
              "position": 1.5,
              "duration": 0.22916666666666666
            },
            {
              "pitch": 64,
              "velocity": 80,
              "position": 1.5,
              "duration": 0.22916666666666666
            },
            {
              "pitch": 67,
              "velocity": 80,
              "position": 1.5,
              "duration": 0.22916666666666666
            },
            {
              "pitch": 59,
              "velocity": 80,
              "position": 2,
              "duration": 0.22916666666666666
            },
            {
              "pitch": 62,
              "velocity": 80,
              "position": 2,
              "duration": 0.22916666666666666
            },
            {
              "pitch": 64,
              "velocity": 80,
              "position": 2,
              "duration": 0.22916666666666666
            },
            {
              "pitch": 67,
              "velocity": 80,
              "position": 2,
              "duration": 0.22916666666666666
            },
            {
              "pitch": 59,
              "velocity": 80,
              "position": 2.5,
              "duration": 0.22916666666666666
            },
            {
              "pitch": 62,
              "velocity": 80,
              "position": 2.5,
              "duration": 0.22916666666666666
            },
            {
              "pitch": 64,
              "velocity": 80,
              "position": 2.5,
              "duration": 0.22916666666666666
            },
            {
              "pitch": 67,
              "velocity": 80,
              "position": 2.5,
              "duration": 0.22916666666666666
            },
            {
              "pitch": 59,
              "velocity": 80,
              "position": 3,
              "duration": 0.22916666666666666
            },
            {
              "pitch": 62,
              "velocity": 80,
              "position": 3,
              "duration": 0.22916666666666666
            },
            {
              "pitch": 64,
              "velocity": 80,
              "position": 3,
              "duration": 0.22916666666666666
            },
            {
              "pitch": 67,
              "velocity": 80,
              "position": 3,
              "duration": 0.22916666666666666
            },
            {
              "pitch": 57,
              "velocity": 80,
              "position": 3.5,
              "duration": 0.22916666666666666
            },
            {
              "pitch": 60,
              "velocity": 80,
              "position": 3.5,
              "duration": 0.22916666666666666
            },
            {
              "pitch": 64,
              "velocity": 80,
              "position": 3.5,
              "duration": 0.22916666666666666
            },
            {
              "pitch": 67,
              "velocity": 80,
              "position": 3.5,
              "duration": 0.22916666666666666
            },
            {
              "pitch": 57,
              "velocity": 80,
              "position": 4,
              "duration": 0.22916666666666666
            },
            {
              "pitch": 60,
              "velocity": 80,
              "position": 4,
              "duration": 0.22916666666666666
            },
            {
              "pitch": 64,
              "velocity": 80,
              "position": 4,
              "duration": 0.22916666666666666
            },
            {
              "pitch": 67,
              "velocity": 80,
              "position": 4,
              "duration": 0.22916666666666666
            },
            {
              "pitch": 57,
              "velocity": 80,
              "position": 4.5,
              "duration": 0.22916666666666666
            },
            {
              "pitch": 60,
              "velocity": 80,
              "position": 4.5,
              "duration": 0.22916666666666666
            },
            {
              "pitch": 64,
              "velocity": 80,
              "position": 4.5,
              "duration": 0.22916666666666666
            },
            {
              "pitch": 67,
              "velocity": 80,
              "position": 4.5,
              "duration": 0.22916666666666666
            },
            {
              "pitch": 57,
              "velocity": 80,
              "position": 5,
              "duration": 0.22916666666666666
            },
            {
              "pitch": 60,
              "velocity": 80,
              "position": 5,
              "duration": 0.22916666666666666
            },
            {
              "pitch": 64,
              "velocity": 80,
              "position": 5,
              "duration": 0.22916666666666666
            },
            {
              "pitch": 67,
              "velocity": 80,
              "position": 5,
              "duration": 0.22916666666666666
            },
            {
              "pitch": 57,
              "velocity": 80,
              "position": 5.5,
              "duration": 0.22916666666666666
            },
            {
              "pitch": 60,
              "velocity": 80,
              "position": 5.5,
              "duration": 0.22916666666666666
            },
            {
              "pitch": 64,
              "velocity": 80,
              "position": 5.5,
              "duration": 0.22916666666666666
            },
            {
              "pitch": 67,
              "velocity": 80,
              "position": 5.5,
              "duration": 0.22916666666666666
            },
            {
              "pitch": 57,
              "velocity": 80,
              "position": 6,
              "duration": 0.22916666666666666
            },
            {
              "pitch": 60,
              "velocity": 80,
              "position": 6,
              "duration": 0.22916666666666666
            },
            {
              "pitch": 64,
              "velocity": 80,
              "position": 6,
              "duration": 0.22916666666666666
            },
            {
              "pitch": 67,
              "velocity": 80,
              "position": 6,
              "duration": 0.22916666666666666
            },
            {
              "pitch": 57,
              "velocity": 80,
              "position": 6.5,
              "duration": 0.22916666666666666
            },
            {
              "pitch": 60,
              "velocity": 80,
              "position": 6.5,
              "duration": 0.22916666666666666
            },
            {
              "pitch": 64,
              "velocity": 80,
              "position": 6.5,
              "duration": 0.22916666666666666
            },
            {
              "pitch": 67,
              "velocity": 80,
              "position": 6.5,
              "duration": 0.22916666666666666
            },
            {
              "pitch": 57,
              "velocity": 80,
              "position": 7,
              "duration": 0.22916666666666666
            },
            {
              "pitch": 60,
              "velocity": 80,
              "position": 7,
              "duration": 0.22916666666666666
            },
            {
              "pitch": 64,
              "velocity": 80,
              "position": 7,
              "duration": 0.22916666666666666
            },
            {
              "pitch": 67,
              "velocity": 80,
              "position": 7,
              "duration": 0.22916666666666666
            },
            {
              "pitch": 57,
              "velocity": 80,
              "position": 7.5,
              "duration": 0.22916666666666666
            },
            {
              "pitch": 60,
              "velocity": 80,
              "position": 7.5,
              "duration": 0.22916666666666666
            },
            {
              "pitch": 64,
              "velocity": 80,
              "position": 7.5,
              "duration": 0.22916666666666666
            },
            {
              "pitch": 67,
              "velocity": 80,
              "position": 7.5,
              "duration": 0.22916666666666666
            },
            {
              "pitch": 57,
              "velocity": 80,
              "position": 8,
              "duration": 0.22916666666666666
            },
            {
              "pitch": 60,
              "velocity": 80,
              "position": 8,
              "duration": 0.22916666666666666
            },
            {
              "pitch": 64,
              "velocity": 80,
              "position": 8,
              "duration": 0.22916666666666666
            },
            {
              "pitch": 65,
              "velocity": 80,
              "position": 8,
              "duration": 0.22916666666666666
            },
            {
              "pitch": 57,
              "velocity": 80,
              "position": 8.5,
              "duration": 0.22916666666666666
            },
            {
              "pitch": 60,
              "velocity": 80,
              "position": 8.5,
              "duration": 0.22916666666666666
            },
            {
              "pitch": 64,
              "velocity": 80,
              "position": 8.5,
              "duration": 0.22916666666666666
            },
            {
              "pitch": 65,
              "velocity": 80,
              "position": 8.5,
              "duration": 0.22916666666666666
            },
            {
              "pitch": 57,
              "velocity": 80,
              "position": 9,
              "duration": 0.22916666666666666
            },
            {
              "pitch": 60,
              "velocity": 80,
              "position": 9,
              "duration": 0.22916666666666666
            },
            {
              "pitch": 64,
              "velocity": 80,
              "position": 9,
              "duration": 0.22916666666666666
            },
            {
              "pitch": 65,
              "velocity": 80,
              "position": 9,
              "duration": 0.22916666666666666
            },
            {
              "pitch": 57,
              "velocity": 80,
              "position": 9.5,
              "duration": 0.22916666666666666
            },
            {
              "pitch": 60,
              "velocity": 80,
              "position": 9.5,
              "duration": 0.22916666666666666
            },
            {
              "pitch": 64,
              "velocity": 80,
              "position": 9.5,
              "duration": 0.22916666666666666
            },
            {
              "pitch": 65,
              "velocity": 80,
              "position": 9.5,
              "duration": 0.22916666666666666
            },
            {
              "pitch": 57,
              "velocity": 80,
              "position": 10,
              "duration": 0.22916666666666666
            },
            {
              "pitch": 60,
              "velocity": 80,
              "position": 10,
              "duration": 0.22916666666666666
            },
            {
              "pitch": 64,
              "velocity": 80,
              "position": 10,
              "duration": 0.22916666666666666
            },
            {
              "pitch": 65,
              "velocity": 80,
              "position": 10,
              "duration": 0.22916666666666666
            },
            {
              "pitch": 57,
              "velocity": 80,
              "position": 10.5,
              "duration": 0.22916666666666666
            },
            {
              "pitch": 60,
              "velocity": 80,
              "position": 10.5,
              "duration": 0.22916666666666666
            },
            {
              "pitch": 64,
              "velocity": 80,
              "position": 10.5,
              "duration": 0.22916666666666666
            },
            {
              "pitch": 65,
              "velocity": 80,
              "position": 10.5,
              "duration": 0.22916666666666666
            },
            {
              "pitch": 57,
              "velocity": 80,
              "position": 11,
              "duration": 0.22916666666666666
            },
            {
              "pitch": 60,
              "velocity": 80,
              "position": 11,
              "duration": 0.22916666666666666
            },
            {
              "pitch": 64,
              "velocity": 80,
              "position": 11,
              "duration": 0.22916666666666666
            },
            {
              "pitch": 65,
              "velocity": 80,
              "position": 11,
              "duration": 0.22916666666666666
            },
            {
              "pitch": 57,
              "velocity": 80,
              "position": 11.5,
              "duration": 0.22916666666666666
            },
            {
              "pitch": 60,
              "velocity": 80,
              "position": 11.5,
              "duration": 0.22916666666666666
            },
            {
              "pitch": 64,
              "velocity": 80,
              "position": 11.5,
              "duration": 0.22916666666666666
            },
            {
              "pitch": 65,
              "velocity": 80,
              "position": 11.5,
              "duration": 0.22916666666666666
            },
            {
              "pitch": 59,
              "velocity": 80,
              "position": 12,
              "duration": 0.25
            },
            {
              "pitch": 64,
              "velocity": 80,
              "position": 12,
              "duration": 0.25
            },
            {
              "pitch": 62,
              "velocity": 80,
              "position": 12,
              "duration": 0.2604166666666667
            },
            {
              "pitch": 67,
              "velocity": 80,
              "position": 12,
              "duration": 0.2708333333333333
            },
            {
              "pitch": 62,
              "velocity": 80,
              "position": 12.5,
              "duration": 0.25
            },
            {
              "pitch": 64,
              "velocity": 80,
              "position": 12.5,
              "duration": 0.25
            },
            {
              "pitch": 59,
              "velocity": 80,
              "position": 12.5,
              "duration": 0.28125
            },
            {
              "pitch": 67,
              "velocity": 80,
              "position": 12.5,
              "duration": 0.28125
            },
            {
              "pitch": 62,
              "velocity": 80,
              "position": 13,
              "duration": 0.25
            },
            {
              "pitch": 59,
              "velocity": 80,
              "position": 13,
              "duration": 0.2604166666666667
            },
            {
              "pitch": 64,
              "velocity": 80,
              "position": 13,
              "duration": 0.2708333333333333
            },
            {
              "pitch": 67,
              "velocity": 80,
              "position": 13,
              "duration": 0.2708333333333333
            },
            {
              "pitch": 62,
              "velocity": 101,
              "position": 14.010416666666666,
              "duration": 0.08333333333333333
            },
            {
              "pitch": 63,
              "velocity": 101,
              "position": 14.03125,
              "duration": 0.25
            },
            {
              "pitch": 64,
              "velocity": 101,
              "position": 14.09375,
              "duration": 0.2604166666666667
            },
            {
              "pitch": 67,
              "velocity": 101,
              "position": 14.34375,
              "duration": 0.052083333333333336
            },
            {
              "pitch": 68,
              "velocity": 101,
              "position": 14.802083333333334,
              "duration": 0.09375
            },
            {
              "pitch": 69,
              "velocity": 101,
              "position": 14.84375,
              "duration": 0.125
            },
            {
              "pitch": 64,
              "velocity": 101,
              "position": 15.03125,
              "duration": 0.25
            },
            {
              "pitch": 63,
              "velocity": 101,
              "position": 15.177083333333334,
              "duration": 0.22916666666666666
            },
            {
              "pitch": 62,
              "velocity": 101,
              "position": 15.34375,
              "duration": 0.14583333333333334
            },
            {
              "pitch": 59,
              "velocity": 85,
              "position": 15.541666666666666,
              "duration": 0.3958333333333333
            }
          ]
        },
        "13": {
          "ctab": {
            "srcChannel": 13,
            "name": "Strings",
            "accType": "PAD",
            "editable": false,
            "mutedNotes": [],
            "mutedChords": [
              "dim7",
              "dim",
              "minMaj7(9)",
              "minMaj7",
              "min7(11)",
              "min7(9)",
              "min(9)",
              "m7b5",
              "min7",
              "min6",
              "min"
            ],
            "autoStart": false,
            "sourceChordNote": 0,
            "sourceChordType": "Maj7",
            "ctb2Low": null,
            "ctb2Main": {
              "ntr": "ROOT_TRANSPOSITION",
              "ntt": "BYPASS",
              "bassOn": false,
              "chordRootUpperLimit": 8,
              "noteLowLimit": 0,
              "noteHighLimit": 127,
              "rtr": "PITCH_SHIFT"
            },
            "ctb2High": null
          },
          "notes": [
            {
              "pitch": 60,
              "velocity": 80,
              "position": 0,
              "duration": 1.4895833333333333
            },
            {
              "pitch": 64,
              "velocity": 80,
              "position": 0,
              "duration": 1.4895833333333333
            },
            {
              "pitch": 67,
              "velocity": 80,
              "position": 0,
              "duration": 1.4895833333333333
            },
            {
              "pitch": 59,
              "velocity": 80,
              "position": 1.5,
              "duration": 1.9895833333333333
            },
            {
              "pitch": 64,
              "velocity": 80,
              "position": 1.5,
              "duration": 1.9895833333333333
            },
            {
              "pitch": 67,
              "velocity": 80,
              "position": 1.5,
              "duration": 1.9895833333333333
            },
            {
              "pitch": 57,
              "velocity": 80,
              "position": 3.5,
              "duration": 4.489583333333333
            },
            {
              "pitch": 60,
              "velocity": 80,
              "position": 3.5,
              "duration": 4.489583333333333
            },
            {
              "pitch": 64,
              "velocity": 80,
              "position": 3.5,
              "duration": 4.489583333333333
            },
            {
              "pitch": 67,
              "velocity": 80,
              "position": 3.5,
              "duration": 4.489583333333333
            },
            {
              "pitch": 53,
              "velocity": 80,
              "position": 8,
              "duration": 3.9895833333333335
            },
            {
              "pitch": 57,
              "velocity": 80,
              "position": 8,
              "duration": 3.9895833333333335
            },
            {
              "pitch": 60,
              "velocity": 80,
              "position": 8,
              "duration": 3.9895833333333335
            },
            {
              "pitch": 64,
              "velocity": 80,
              "position": 8,
              "duration": 3.9895833333333335
            },
            {
              "pitch": 59,
              "velocity": 80,
              "position": 12,
              "duration": 3.9895833333333335
            },
            {
              "pitch": 62,
              "velocity": 80,
              "position": 12,
              "duration": 3.9895833333333335
            },
            {
              "pitch": 64,
              "velocity": 80,
              "position": 12,
              "duration": 3.9895833333333335
            },
            {
              "pitch": 67,
              "velocity": 80,
              "position": 12,
              "duration": 3.9895833333333335
            }
          ]
        },
        "14": {
          "ctab": {
            "srcChannel": 14,
            "name": "Brass",
            "accType": "PHRASE1",
            "editable": false,
            "mutedNotes": [],
            "mutedChords": [
              "dim7",
              "dim",
              "minMaj7(9)",
              "minMaj7",
              "min7(11)",
              "min7(9)",
              "min(9)",
              "m7b5",
              "min7",
              "min6",
              "min"
            ],
            "autoStart": false,
            "sourceChordNote": 0,
            "sourceChordType": "Maj7",
            "ctb2Low": null,
            "ctb2Main": {
              "ntr": "ROOT_TRANSPOSITION",
              "ntt": "BYPASS",
              "bassOn": false,
              "chordRootUpperLimit": 6,
              "noteLowLimit": 0,
              "noteHighLimit": 127,
              "rtr": "PITCH_SHIFT"
            },
            "ctb2High": null
          },
          "notes": [
            {
              "pitch": 67,
              "velocity": 111,
              "position": 0.010416666666666666,
              "duration": 0.15625
            },
            {
              "pitch": 72,
              "velocity": 116,
              "position": 0.010416666666666666,
              "duration": 0.15625
            },
            {
              "pitch": 71,
              "velocity": 114,
              "position": 0.5,
              "duration": 0.28125
            },
            {
              "pitch": 67,
              "velocity": 112,
              "position": 0.5,
              "duration": 0.4375
            },
            {
              "pitch": 72,
              "velocity": 110,
              "position": 0.7916666666666666,
              "duration": 0.14583333333333334
            },
            {
              "pitch": 71,
              "velocity": 60,
              "position": 1.5,
              "duration": 0.28125
            },
            {
              "pitch": 67,
              "velocity": 58,
              "position": 1.5,
              "duration": 0.4375
            },
            {
              "pitch": 72,
              "velocity": 56,
              "position": 1.7916666666666667,
              "duration": 0.14583333333333334
            },
            {
              "pitch": 71,
              "velocity": 40,
              "position": 2.5,
              "duration": 0.28125
            },
            {
              "pitch": 67,
              "velocity": 38,
              "position": 2.5,
              "duration": 0.4375
            },
            {
              "pitch": 72,
              "velocity": 36,
              "position": 2.7916666666666665,
              "duration": 0.14583333333333334
            },
            {
              "pitch": 67,
              "velocity": 114,
              "position": 4,
              "duration": 0.125
            },
            {
              "pitch": 72,
              "velocity": 118,
              "position": 4,
              "duration": 0.13541666666666666
            },
            {
              "pitch": 67,
              "velocity": 118,
              "position": 4.791666666666667,
              "duration": 0.125
            },
            {
              "pitch": 72,
              "velocity": 114,
              "position": 4.791666666666667,
              "duration": 0.13541666666666666
            },
            {
              "pitch": 64,
              "velocity": 112,
              "position": 6.5,
              "duration": 0.14583333333333334
            },
            {
              "pitch": 67,
              "velocity": 121,
              "position": 7,
              "duration": 0.4791666666666667
            },
            {
              "pitch": 64,
              "velocity": 109,
              "position": 7.5,
              "duration": 0.10416666666666667
            },
            {
              "pitch": 67,
              "velocity": 111,
              "position": 8,
              "duration": 0.125
            },
            {
              "pitch": 72,
              "velocity": 116,
              "position": 8,
              "duration": 0.13541666666666666
            },
            {
              "pitch": 71,
              "velocity": 114,
              "position": 8.5,
              "duration": 0.28125
            },
            {
              "pitch": 67,
              "velocity": 112,
              "position": 8.5,
              "duration": 0.4375
            },
            {
              "pitch": 72,
              "velocity": 110,
              "position": 8.791666666666666,
              "duration": 0.14583333333333334
            },
            {
              "pitch": 71,
              "velocity": 60,
              "position": 9.5,
              "duration": 0.28125
            },
            {
              "pitch": 67,
              "velocity": 58,
              "position": 9.5,
              "duration": 0.4375
            },
            {
              "pitch": 72,
              "velocity": 56,
              "position": 9.791666666666666,
              "duration": 0.14583333333333334
            },
            {
              "pitch": 71,
              "velocity": 40,
              "position": 10.5,
              "duration": 0.28125
            },
            {
              "pitch": 67,
              "velocity": 38,
              "position": 10.5,
              "duration": 0.4375
            },
            {
              "pitch": 72,
              "velocity": 36,
              "position": 10.791666666666666,
              "duration": 0.14583333333333334
            },
            {
              "pitch": 64,
              "velocity": 114,
              "position": 11.5,
              "duration": 0.28125
            },
            {
              "pitch": 65,
              "velocity": 110,
              "position": 11.791666666666666,
              "duration": 0.14583333333333334
            },
            {
              "pitch": 67,
              "velocity": 115,
              "position": 12,
              "duration": 0.13541666666666666
            },
            {
              "pitch": 74,
              "velocity": 117,
              "position": 11.989583333333334,
              "duration": 0.17708333333333334
            },
            {
              "pitch": 67,
              "velocity": 114,
              "position": 12.5,
              "duration": 0.14583333333333334
            },
            {
              "pitch": 74,
              "velocity": 113,
              "position": 12.5,
              "duration": 0.17708333333333334
            },
            {
              "pitch": 67,
              "velocity": 117,
              "position": 13,
              "duration": 0.14583333333333334
            },
            {
              "pitch": 74,
              "velocity": 113,
              "position": 13,
              "duration": 0.15625
            }
          ]
        },
        "15": {
          "ctab": {
            "srcChannel": 15,
            "name": "Lead",
            "accType": "PHRASE2",
            "editable": false,
            "mutedNotes": [],
            "mutedChords": [
              "dim7",
              "dim",
              "minMaj7(9)",
              "minMaj7",
              "min7(11)",
              "min7(9)",
              "min(9)",
              "m7b5",
              "min7",
              "min6",
              "min"
            ],
            "autoStart": false,
            "sourceChordNote": 0,
            "sourceChordType": "Maj7",
            "ctb2Low": null,
            "ctb2Main": {
              "ntr": "ROOT_TRANSPOSITION",
              "ntt": "BYPASS",
              "bassOn": false,
              "chordRootUpperLimit": 2,
              "noteLowLimit": 0,
              "noteHighLimit": 127,
              "rtr": "PITCH_SHIFT"
            },
            "ctb2High": null
          },
          "notes": [
            {
              "pitch": 84,
              "velocity": 70,
              "position": 1,
              "duration": 0.9791666666666666
            },
            {
              "pitch": 79,
              "velocity": 70,
              "position": 2,
              "duration": 0.9791666666666666
            },
            {
              "pitch": 83,
              "velocity": 70,
              "position": 3,
              "duration": 0.4791666666666667
            },
            {
              "pitch": 81,
              "velocity": 70,
              "position": 3.5,
              "duration": 3.4791666666666665
            },
            {
              "pitch": 79,
              "velocity": 70,
              "position": 7,
              "duration": 0.4791666666666667
            },
            {
              "pitch": 76,
              "velocity": 70,
              "position": 7.5,
              "duration": 1.4791666666666667
            },
            {
              "pitch": 74,
              "velocity": 70,
              "position": 9,
              "duration": 0.4791666666666667
            },
            {
              "pitch": 72,
              "velocity": 70,
              "position": 9.5,
              "duration": 0.9791666666666666
            },
            {
              "pitch": 74,
              "velocity": 70,
              "position": 10.5,
              "duration": 0.4791666666666667
            },
            {
              "pitch": 76,
              "velocity": 70,
              "position": 11,
              "duration": 0.4791666666666667
            },
            {
              "pitch": 71,
              "velocity": 70,
              "position": 11.5,
              "duration": 3.9583333333333335
            }
          ]
        }
      }
    },
    "Ending_C": {
      "type": "Ending_C",
      "sizeInBeats": 16,
      "channels": {
        "2": {
          "ctab": {
            "srcChannel": 2,
            "name": "SynBass",
            "accType": "BASS",
            "editable": false,
            "mutedNotes": [],
            "mutedChords": [
              "1+2+5",
              "sus4",
              "1+5",
              "1+8",
              "7aug",
              "Maj7aug",
              "7(#9)",
              "7(b13)",
              "7(b9)",
              "7(13)",
              "7#11",
              "7(9)",
              "7b5",
              "7sus4",
              "7th",
              "aug",
              "Maj6(9)",
              "Maj7(9)",
              "Maj(9)",
              "Maj7#11",
              "Maj7",
              "Maj6",
              "Maj"
            ],
            "autoStart": false,
            "sourceChordNote": 0,
            "sourceChordType": "Maj7",
            "ctb2Low": null,
            "ctb2Main": {
              "ntr": "ROOT_TRANSPOSITION",
              "ntt": "BYPASS",
              "bassOn": false,
              "chordRootUpperLimit": 6,
              "noteLowLimit": 28,
              "noteHighLimit": 127,
              "rtr": "PITCH_SHIFT"
            },
            "ctb2High": null
          },
          "notes": [
            {
              "pitch": 24,
              "velocity": 100,
              "position": 0,
              "duration": 0.53125
            },
            {
              "pitch": 35,
              "velocity": 100,
              "position": 1.8125,
              "duration": 0.17708333333333334
            },
            {
              "pitch": 36,
              "velocity": 100,
              "position": 2,
              "duration": 0.20833333333333334
            },
            {
              "pitch": 36,
              "velocity": 100,
              "position": 2.5,
              "duration": 0.25
            },
            {
              "pitch": 38,
              "velocity": 100,
              "position": 3.0104166666666665,
              "duration": 0.14583333333333334
            },
            {
              "pitch": 39,
              "velocity": 100,
              "position": 4,
              "duration": 0.020833333333333332
            },
            {
              "pitch": 39,
              "velocity": 100,
              "position": 5.8125,
              "duration": 0.17708333333333334
            },
            {
              "pitch": 31,
              "velocity": 100,
              "position": 6,
              "duration": 0.20833333333333334
            },
            {
              "pitch": 31,
              "velocity": 100,
              "position": 6.5,
              "duration": 0.25
            },
            {
              "pitch": 31,
              "velocity": 100,
              "position": 6.989583333333333,
              "duration": 0.3854166666666667
            },
            {
              "pitch": 30,
              "velocity": 100,
              "position": 7.489583333333333,
              "duration": 0.3229166666666667
            },
            {
              "pitch": 29,
              "velocity": 100,
              "position": 8,
              "duration": 0.46875
            },
            {
              "pitch": 27,
              "velocity": 100,
              "position": 8.5,
              "duration": 0.14583333333333334
            },
            {
              "pitch": 29,
              "velocity": 100,
              "position": 9.010416666666666,
              "duration": 0.46875
            },
            {
              "pitch": 41,
              "velocity": 100,
              "position": 9.489583333333334,
              "duration": 0.21875
            },
            {
              "pitch": 39,
              "velocity": 100,
              "position": 9.822916666666666,
              "duration": 0.7083333333333334
            },
            {
              "pitch": 38,
              "velocity": 100,
              "position": 10.5,
              "duration": 0.14583333333333334
            },
            {
              "pitch": 36,
              "velocity": 100,
              "position": 11,
              "duration": 0.53125
            },
            {
              "pitch": 34,
              "velocity": 100,
              "position": 11.510416666666666,
              "duration": 0.20833333333333334
            },
            {
              "pitch": 24,
              "velocity": 100,
              "position": 12,
              "duration": 3.9895833333333335
            }
          ]
        },
        "3": {
          "ctab": {
            "srcChannel": 3,
            "name": "Clavi",
            "accType": "CHORD2",
            "editable": false,
            "mutedNotes": [],
            "mutedChords": [
              "1+2+5",
              "sus4",
              "1+5",
              "1+8",
              "7aug",
              "Maj7aug",
              "7(#9)",
              "7(b13)",
              "7(b9)",
              "7(13)",
              "7#11",
              "7(9)",
              "7b5",
              "7sus4",
              "7th",
              "aug",
              "Maj6(9)",
              "Maj7(9)",
              "Maj(9)",
              "Maj7#11",
              "Maj7",
              "Maj6",
              "Maj"
            ],
            "autoStart": false,
            "sourceChordNote": 0,
            "sourceChordType": "Maj7",
            "ctb2Low": null,
            "ctb2Main": {
              "ntr": "ROOT_TRANSPOSITION",
              "ntt": "BYPASS",
              "bassOn": false,
              "chordRootUpperLimit": 10,
              "noteLowLimit": 0,
              "noteHighLimit": 127,
              "rtr": "PITCH_SHIFT"
            },
            "ctb2High": null
          },
          "notes": [
            {
              "pitch": 43,
              "velocity": 90,
              "position": 0.010416666666666666,
              "duration": 0.3125
            },
            {
              "pitch": 48,
              "velocity": 90,
              "position": 0.3125,
              "duration": 0.07291666666666667
            },
            {
              "pitch": 43,
              "velocity": 35,
              "position": 0.5,
              "duration": 0.052083333333333336
            },
            {
              "pitch": 48,
              "velocity": 90,
              "position": 0.8125,
              "duration": 0.052083333333333336
            },
            {
              "pitch": 43,
              "velocity": 77,
              "position": 1.7916666666666667,
              "duration": 0.07291666666666667
            },
            {
              "pitch": 48,
              "velocity": 98,
              "position": 1.9895833333333333,
              "duration": 0.23958333333333334
            },
            {
              "pitch": 43,
              "velocity": 73,
              "position": 2.3020833333333335,
              "duration": 0.0625
            },
            {
              "pitch": 46,
              "velocity": 90,
              "position": 2.5,
              "duration": 0.2604166666666667
            },
            {
              "pitch": 43,
              "velocity": 80,
              "position": 2.8020833333333335,
              "duration": 0.08333333333333333
            },
            {
              "pitch": 48,
              "velocity": 88,
              "position": 3.0104166666666665,
              "duration": 0.2708333333333333
            },
            {
              "pitch": 50,
              "velocity": 84,
              "position": 3.5,
              "duration": 0.3645833333333333
            },
            {
              "pitch": 46,
              "velocity": 92,
              "position": 3.8125,
              "duration": 0.19791666666666666
            },
            {
              "pitch": 43,
              "velocity": 90,
              "position": 4,
              "duration": 0.3125
            },
            {
              "pitch": 48,
              "velocity": 90,
              "position": 4.3125,
              "duration": 0.07291666666666667
            },
            {
              "pitch": 48,
              "velocity": 90,
              "position": 4.8125,
              "duration": 0.052083333333333336
            },
            {
              "pitch": 43,
              "velocity": 59,
              "position": 5.802083333333333,
              "duration": 0.07291666666666667
            },
            {
              "pitch": 51,
              "velocity": 90,
              "position": 5.989583333333333,
              "duration": 0.20833333333333334
            },
            {
              "pitch": 43,
              "velocity": 59,
              "position": 6.322916666666667,
              "duration": 0.0625
            },
            {
              "pitch": 50,
              "velocity": 84,
              "position": 6.489583333333333,
              "duration": 0.28125
            },
            {
              "pitch": 48,
              "velocity": 81,
              "position": 6.989583333333333,
              "duration": 0.23958333333333334
            },
            {
              "pitch": 43,
              "velocity": 64,
              "position": 7.34375,
              "duration": 0.07291666666666667
            },
            {
              "pitch": 46,
              "velocity": 90,
              "position": 7.5,
              "duration": 0.20833333333333334
            },
            {
              "pitch": 51,
              "velocity": 91,
              "position": 8,
              "duration": 0.22916666666666666
            },
            {
              "pitch": 50,
              "velocity": 82,
              "position": 8.302083333333334,
              "duration": 0.08333333333333333
            },
            {
              "pitch": 51,
              "velocity": 94,
              "position": 8.5,
              "duration": 0.08333333333333333
            },
            {
              "pitch": 43,
              "velocity": 76,
              "position": 9.8125,
              "duration": 0.07291666666666667
            },
            {
              "pitch": 55,
              "velocity": 92,
              "position": 10,
              "duration": 0.2916666666666667
            },
            {
              "pitch": 43,
              "velocity": 79,
              "position": 10.302083333333334,
              "duration": 0.0625
            },
            {
              "pitch": 53,
              "velocity": 98,
              "position": 10.5,
              "duration": 0.3333333333333333
            },
            {
              "pitch": 43,
              "velocity": 70,
              "position": 10.791666666666666,
              "duration": 0.07291666666666667
            },
            {
              "pitch": 43,
              "velocity": 54,
              "position": 11.291666666666666,
              "duration": 0.0625
            },
            {
              "pitch": 51,
              "velocity": 88,
              "position": 11,
              "duration": 0.4166666666666667
            },
            {
              "pitch": 46,
              "velocity": 86,
              "position": 11.510416666666666,
              "duration": 0.25
            },
            {
              "pitch": 43,
              "velocity": 64,
              "position": 11.84375,
              "duration": 0.07291666666666667
            },
            {
              "pitch": 48,
              "velocity": 75,
              "position": 12,
              "duration": 3.9895833333333335
            }
          ]
        },
        "4": {
          "ctab": {
            "srcChannel": 4,
            "name": "ElecPno",
            "accType": "CHORD1",
            "editable": false,
            "mutedNotes": [],
            "mutedChords": [
              "1+2+5",
              "sus4",
              "1+5",
              "1+8",
              "7aug",
              "Maj7aug",
              "7(#9)",
              "7(b13)",
              "7(b9)",
              "7(13)",
              "7#11",
              "7(9)",
              "7b5",
              "7sus4",
              "7th",
              "aug",
              "Maj6(9)",
              "Maj7(9)",
              "Maj(9)",
              "Maj7#11",
              "Maj7",
              "Maj6",
              "Maj"
            ],
            "autoStart": false,
            "sourceChordNote": 0,
            "sourceChordType": "Maj7",
            "ctb2Low": null,
            "ctb2Main": {
              "ntr": "ROOT_TRANSPOSITION",
              "ntt": "BYPASS",
              "bassOn": false,
              "chordRootUpperLimit": 6,
              "noteLowLimit": 0,
              "noteHighLimit": 127,
              "rtr": "PITCH_SHIFT"
            },
            "ctb2High": null
          },
          "notes": [
            {
              "pitch": 60,
              "velocity": 85,
              "position": 0,
              "duration": 0.22916666666666666
            },
            {
              "pitch": 63,
              "velocity": 85,
              "position": 0,
              "duration": 0.22916666666666666
            },
            {
              "pitch": 67,
              "velocity": 85,
              "position": 0,
              "duration": 0.22916666666666666
            },
            {
              "pitch": 70,
              "velocity": 85,
              "position": 0,
              "duration": 0.23958333333333334
            },
            {
              "pitch": 63,
              "velocity": 85,
              "position": 0.5,
              "duration": 0.22916666666666666
            },
            {
              "pitch": 60,
              "velocity": 85,
              "position": 0.5,
              "duration": 0.23958333333333334
            },
            {
              "pitch": 67,
              "velocity": 85,
              "position": 0.5,
              "duration": 0.23958333333333334
            },
            {
              "pitch": 70,
              "velocity": 85,
              "position": 0.5,
              "duration": 0.23958333333333334
            },
            {
              "pitch": 60,
              "velocity": 85,
              "position": 1,
              "duration": 0.22916666666666666
            },
            {
              "pitch": 70,
              "velocity": 85,
              "position": 1,
              "duration": 0.22916666666666666
            },
            {
              "pitch": 63,
              "velocity": 85,
              "position": 1,
              "duration": 0.23958333333333334
            },
            {
              "pitch": 67,
              "velocity": 85,
              "position": 1,
              "duration": 0.23958333333333334
            },
            {
              "pitch": 60,
              "velocity": 85,
              "position": 1.5,
              "duration": 0.22916666666666666
            },
            {
              "pitch": 63,
              "velocity": 85,
              "position": 1.5,
              "duration": 0.22916666666666666
            },
            {
              "pitch": 67,
              "velocity": 85,
              "position": 1.5,
              "duration": 0.22916666666666666
            },
            {
              "pitch": 70,
              "velocity": 85,
              "position": 1.5,
              "duration": 0.22916666666666666
            },
            {
              "pitch": 63,
              "velocity": 85,
              "position": 2,
              "duration": 0.22916666666666666
            },
            {
              "pitch": 67,
              "velocity": 85,
              "position": 2,
              "duration": 0.22916666666666666
            },
            {
              "pitch": 70,
              "velocity": 85,
              "position": 2,
              "duration": 0.22916666666666666
            },
            {
              "pitch": 60,
              "velocity": 85,
              "position": 2,
              "duration": 0.23958333333333334
            },
            {
              "pitch": 67,
              "velocity": 85,
              "position": 2.5,
              "duration": 0.22916666666666666
            },
            {
              "pitch": 70,
              "velocity": 85,
              "position": 2.5,
              "duration": 0.22916666666666666
            },
            {
              "pitch": 62,
              "velocity": 85,
              "position": 2.5,
              "duration": 0.23958333333333334
            },
            {
              "pitch": 65,
              "velocity": 85,
              "position": 2.5,
              "duration": 0.23958333333333334
            },
            {
              "pitch": 67,
              "velocity": 85,
              "position": 3,
              "duration": 0.22916666666666666
            },
            {
              "pitch": 70,
              "velocity": 85,
              "position": 3,
              "duration": 0.22916666666666666
            },
            {
              "pitch": 62,
              "velocity": 85,
              "position": 3,
              "duration": 0.23958333333333334
            },
            {
              "pitch": 65,
              "velocity": 85,
              "position": 3,
              "duration": 0.23958333333333334
            },
            {
              "pitch": 60,
              "velocity": 85,
              "position": 3.5,
              "duration": 0.23958333333333334
            },
            {
              "pitch": 63,
              "velocity": 85,
              "position": 3.5,
              "duration": 0.23958333333333334
            },
            {
              "pitch": 67,
              "velocity": 85,
              "position": 3.5,
              "duration": 0.23958333333333334
            },
            {
              "pitch": 70,
              "velocity": 85,
              "position": 3.5,
              "duration": 0.23958333333333334
            },
            {
              "pitch": 60,
              "velocity": 83,
              "position": 4,
              "duration": 0.22916666666666666
            },
            {
              "pitch": 63,
              "velocity": 80,
              "position": 4,
              "duration": 0.22916666666666666
            },
            {
              "pitch": 67,
              "velocity": 83,
              "position": 4,
              "duration": 0.22916666666666666
            },
            {
              "pitch": 70,
              "velocity": 79,
              "position": 4,
              "duration": 0.22916666666666666
            },
            {
              "pitch": 70,
              "velocity": 85,
              "position": 4.5,
              "duration": 0.22916666666666666
            },
            {
              "pitch": 60,
              "velocity": 85,
              "position": 4.5,
              "duration": 0.23958333333333334
            },
            {
              "pitch": 63,
              "velocity": 84,
              "position": 4.5,
              "duration": 0.23958333333333334
            },
            {
              "pitch": 67,
              "velocity": 85,
              "position": 4.5,
              "duration": 0.23958333333333334
            },
            {
              "pitch": 60,
              "velocity": 85,
              "position": 5,
              "duration": 0.22916666666666666
            },
            {
              "pitch": 63,
              "velocity": 83,
              "position": 5,
              "duration": 0.22916666666666666
            },
            {
              "pitch": 67,
              "velocity": 85,
              "position": 5,
              "duration": 0.22916666666666666
            },
            {
              "pitch": 70,
              "velocity": 85,
              "position": 5,
              "duration": 0.23958333333333334
            },
            {
              "pitch": 63,
              "velocity": 85,
              "position": 5.5,
              "duration": 0.22916666666666666
            },
            {
              "pitch": 70,
              "velocity": 85,
              "position": 5.5,
              "duration": 0.22916666666666666
            },
            {
              "pitch": 60,
              "velocity": 85,
              "position": 5.5,
              "duration": 0.23958333333333334
            },
            {
              "pitch": 67,
              "velocity": 85,
              "position": 5.5,
              "duration": 0.23958333333333334
            },
            {
              "pitch": 63,
              "velocity": 85,
              "position": 6,
              "duration": 0.22916666666666666
            },
            {
              "pitch": 67,
              "velocity": 85,
              "position": 6,
              "duration": 0.22916666666666666
            },
            {
              "pitch": 70,
              "velocity": 85,
              "position": 6,
              "duration": 0.22916666666666666
            },
            {
              "pitch": 60,
              "velocity": 85,
              "position": 6,
              "duration": 0.23958333333333334
            },
            {
              "pitch": 70,
              "velocity": 85,
              "position": 6.5,
              "duration": 0.22916666666666666
            },
            {
              "pitch": 60,
              "velocity": 85,
              "position": 6.5,
              "duration": 0.23958333333333334
            },
            {
              "pitch": 63,
              "velocity": 85,
              "position": 6.5,
              "duration": 0.23958333333333334
            },
            {
              "pitch": 67,
              "velocity": 85,
              "position": 6.5,
              "duration": 0.23958333333333334
            },
            {
              "pitch": 60,
              "velocity": 85,
              "position": 7,
              "duration": 0.22916666666666666
            },
            {
              "pitch": 67,
              "velocity": 85,
              "position": 7,
              "duration": 0.22916666666666666
            },
            {
              "pitch": 70,
              "velocity": 85,
              "position": 7,
              "duration": 0.22916666666666666
            },
            {
              "pitch": 63,
              "velocity": 85,
              "position": 7,
              "duration": 0.23958333333333334
            },
            {
              "pitch": 70,
              "velocity": 85,
              "position": 7.5,
              "duration": 0.22916666666666666
            },
            {
              "pitch": 60,
              "velocity": 85,
              "position": 7.5,
              "duration": 0.23958333333333334
            },
            {
              "pitch": 63,
              "velocity": 85,
              "position": 7.5,
              "duration": 0.23958333333333334
            },
            {
              "pitch": 67,
              "velocity": 85,
              "position": 7.5,
              "duration": 0.23958333333333334
            },
            {
              "pitch": 65,
              "velocity": 85,
              "position": 8,
              "duration": 0.22916666666666666
            },
            {
              "pitch": 60,
              "velocity": 85,
              "position": 8,
              "duration": 0.23958333333333334
            },
            {
              "pitch": 63,
              "velocity": 85,
              "position": 8,
              "duration": 0.23958333333333334
            },
            {
              "pitch": 68,
              "velocity": 85,
              "position": 8,
              "duration": 0.23958333333333334
            },
            {
              "pitch": 60,
              "velocity": 85,
              "position": 8.5,
              "duration": 0.22916666666666666
            },
            {
              "pitch": 65,
              "velocity": 85,
              "position": 8.5,
              "duration": 0.22916666666666666
            },
            {
              "pitch": 63,
              "velocity": 85,
              "position": 8.5,
              "duration": 0.23958333333333334
            },
            {
              "pitch": 68,
              "velocity": 85,
              "position": 8.5,
              "duration": 0.23958333333333334
            },
            {
              "pitch": 65,
              "velocity": 85,
              "position": 9,
              "duration": 0.22916666666666666
            },
            {
              "pitch": 60,
              "velocity": 85,
              "position": 9,
              "duration": 0.23958333333333334
            },
            {
              "pitch": 63,
              "velocity": 85,
              "position": 9,
              "duration": 0.23958333333333334
            },
            {
              "pitch": 68,
              "velocity": 85,
              "position": 9,
              "duration": 0.23958333333333334
            },
            {
              "pitch": 63,
              "velocity": 85,
              "position": 9.5,
              "duration": 0.22916666666666666
            },
            {
              "pitch": 60,
              "velocity": 85,
              "position": 9.5,
              "duration": 0.23958333333333334
            },
            {
              "pitch": 65,
              "velocity": 85,
              "position": 9.5,
              "duration": 0.23958333333333334
            },
            {
              "pitch": 68,
              "velocity": 85,
              "position": 9.5,
              "duration": 0.23958333333333334
            },
            {
              "pitch": 70,
              "velocity": 85,
              "position": 10,
              "duration": 0.22916666666666666
            },
            {
              "pitch": 62,
              "velocity": 85,
              "position": 10,
              "duration": 0.23958333333333334
            },
            {
              "pitch": 65,
              "velocity": 85,
              "position": 10,
              "duration": 0.23958333333333334
            },
            {
              "pitch": 67,
              "velocity": 85,
              "position": 10,
              "duration": 0.23958333333333334
            },
            {
              "pitch": 67,
              "velocity": 85,
              "position": 10.5,
              "duration": 0.22916666666666666
            },
            {
              "pitch": 62,
              "velocity": 85,
              "position": 10.5,
              "duration": 0.23958333333333334
            },
            {
              "pitch": 65,
              "velocity": 85,
              "position": 10.5,
              "duration": 0.23958333333333334
            },
            {
              "pitch": 70,
              "velocity": 85,
              "position": 10.5,
              "duration": 0.23958333333333334
            },
            {
              "pitch": 65,
              "velocity": 85,
              "position": 11,
              "duration": 0.22916666666666666
            },
            {
              "pitch": 70,
              "velocity": 85,
              "position": 11,
              "duration": 0.22916666666666666
            },
            {
              "pitch": 62,
              "velocity": 85,
              "position": 11,
              "duration": 0.23958333333333334
            },
            {
              "pitch": 67,
              "velocity": 85,
              "position": 11,
              "duration": 0.23958333333333334
            },
            {
              "pitch": 62,
              "velocity": 85,
              "position": 11.5,
              "duration": 0.23958333333333334
            },
            {
              "pitch": 65,
              "velocity": 85,
              "position": 11.5,
              "duration": 0.23958333333333334
            },
            {
              "pitch": 67,
              "velocity": 85,
              "position": 11.5,
              "duration": 0.23958333333333334
            },
            {
              "pitch": 70,
              "velocity": 85,
              "position": 11.5,
              "duration": 0.23958333333333334
            },
            {
              "pitch": 58,
              "velocity": 85,
              "position": 12,
              "duration": 3.9791666666666665
            },
            {
              "pitch": 60,
              "velocity": 85,
              "position": 12,
              "duration": 3.9791666666666665
            },
            {
              "pitch": 63,
              "velocity": 85,
              "position": 12,
              "duration": 3.9791666666666665
            },
            {
              "pitch": 67,
              "velocity": 85,
              "position": 12,
              "duration": 3.9791666666666665
            }
          ]
        },
        "5": {
          "ctab": {
            "srcChannel": 5,
            "name": "Strings",
            "accType": "PAD",
            "editable": false,
            "mutedNotes": [],
            "mutedChords": [
              "1+2+5",
              "sus4",
              "1+5",
              "1+8",
              "7aug",
              "Maj7aug",
              "7(#9)",
              "7(b13)",
              "7(b9)",
              "7(13)",
              "7#11",
              "7(9)",
              "7b5",
              "7sus4",
              "7th",
              "aug",
              "Maj6(9)",
              "Maj7(9)",
              "Maj(9)",
              "Maj7#11",
              "Maj7",
              "Maj6",
              "Maj"
            ],
            "autoStart": false,
            "sourceChordNote": 0,
            "sourceChordType": "Maj7",
            "ctb2Low": null,
            "ctb2Main": {
              "ntr": "ROOT_TRANSPOSITION",
              "ntt": "BYPASS",
              "bassOn": false,
              "chordRootUpperLimit": 8,
              "noteLowLimit": 0,
              "noteHighLimit": 127,
              "rtr": "PITCH_SHIFT"
            },
            "ctb2High": null
          },
          "notes": [
            {
              "pitch": 58,
              "velocity": 80,
              "position": 0,
              "duration": 2.4895833333333335
            },
            {
              "pitch": 60,
              "velocity": 80,
              "position": 0,
              "duration": 2.4895833333333335
            },
            {
              "pitch": 63,
              "velocity": 80,
              "position": 0,
              "duration": 2.4895833333333335
            },
            {
              "pitch": 67,
              "velocity": 80,
              "position": 0,
              "duration": 2.4895833333333335
            },
            {
              "pitch": 58,
              "velocity": 80,
              "position": 2.5,
              "duration": 0.9895833333333334
            },
            {
              "pitch": 62,
              "velocity": 80,
              "position": 2.5,
              "duration": 0.9895833333333334
            },
            {
              "pitch": 65,
              "velocity": 80,
              "position": 2.5,
              "duration": 0.9895833333333334
            },
            {
              "pitch": 67,
              "velocity": 80,
              "position": 2.5,
              "duration": 0.9895833333333334
            },
            {
              "pitch": 58,
              "velocity": 80,
              "position": 3.5,
              "duration": 4.489583333333333
            },
            {
              "pitch": 60,
              "velocity": 80,
              "position": 3.5,
              "duration": 4.489583333333333
            },
            {
              "pitch": 63,
              "velocity": 80,
              "position": 3.5,
              "duration": 4.489583333333333
            },
            {
              "pitch": 67,
              "velocity": 80,
              "position": 3.5,
              "duration": 4.489583333333333
            },
            {
              "pitch": 56,
              "velocity": 80,
              "position": 8,
              "duration": 0.23958333333333334
            },
            {
              "pitch": 60,
              "velocity": 80,
              "position": 8,
              "duration": 0.23958333333333334
            },
            {
              "pitch": 65,
              "velocity": 80,
              "position": 8,
              "duration": 0.23958333333333334
            },
            {
              "pitch": 55,
              "velocity": 54,
              "position": 9.5,
              "duration": 2.4895833333333335
            },
            {
              "pitch": 58,
              "velocity": 67,
              "position": 10,
              "duration": 1.9895833333333333
            },
            {
              "pitch": 62,
              "velocity": 81,
              "position": 11,
              "duration": 0.9895833333333334
            },
            {
              "pitch": 58,
              "velocity": 80,
              "position": 12,
              "duration": 3.9895833333333335
            },
            {
              "pitch": 60,
              "velocity": 80,
              "position": 12,
              "duration": 3.9895833333333335
            },
            {
              "pitch": 63,
              "velocity": 80,
              "position": 12,
              "duration": 3.9895833333333335
            },
            {
              "pitch": 67,
              "velocity": 80,
              "position": 12,
              "duration": 3.9895833333333335
            }
          ]
        },
        "6": {
          "ctab": {
            "srcChannel": 6,
            "name": "Brass",
            "accType": "PHRASE1",
            "editable": false,
            "mutedNotes": [],
            "mutedChords": [
              "1+2+5",
              "sus4",
              "1+5",
              "1+8",
              "7aug",
              "Maj7aug",
              "7(#9)",
              "7(b13)",
              "7(b9)",
              "7(13)",
              "7#11",
              "7(9)",
              "7b5",
              "7sus4",
              "7th",
              "aug",
              "Maj6(9)",
              "Maj7(9)",
              "Maj(9)",
              "Maj7#11",
              "Maj7",
              "Maj6",
              "Maj"
            ],
            "autoStart": false,
            "sourceChordNote": 0,
            "sourceChordType": "Maj7",
            "ctb2Low": null,
            "ctb2Main": {
              "ntr": "ROOT_TRANSPOSITION",
              "ntt": "BYPASS",
              "bassOn": false,
              "chordRootUpperLimit": 6,
              "noteLowLimit": 0,
              "noteHighLimit": 127,
              "rtr": "PITCH_SHIFT"
            },
            "ctb2High": null
          },
          "notes": [
            {
              "pitch": 70,
              "velocity": 114,
              "position": 0.010416666666666666,
              "duration": 0.28125
            },
            {
              "pitch": 72,
              "velocity": 110,
              "position": 0.2916666666666667,
              "duration": 0.14583333333333334
            },
            {
              "pitch": 67,
              "velocity": 112,
              "position": 0.010416666666666666,
              "duration": 0.4375
            },
            {
              "pitch": 67,
              "velocity": 110,
              "position": 0.7916666666666666,
              "duration": 0.14583333333333334
            },
            {
              "pitch": 72,
              "velocity": 110,
              "position": 0.7916666666666666,
              "duration": 0.14583333333333334
            },
            {
              "pitch": 70,
              "velocity": 64,
              "position": 1.5,
              "duration": 0.28125
            },
            {
              "pitch": 67,
              "velocity": 62,
              "position": 1.5,
              "duration": 0.4375
            },
            {
              "pitch": 72,
              "velocity": 60,
              "position": 1.7916666666666667,
              "duration": 0.14583333333333334
            },
            {
              "pitch": 70,
              "velocity": 54,
              "position": 2.5,
              "duration": 0.28125
            },
            {
              "pitch": 67,
              "velocity": 52,
              "position": 2.5,
              "duration": 0.4375
            },
            {
              "pitch": 72,
              "velocity": 50,
              "position": 2.7916666666666665,
              "duration": 0.14583333333333334
            },
            {
              "pitch": 67,
              "velocity": 111,
              "position": 3.5,
              "duration": 0.125
            },
            {
              "pitch": 74,
              "velocity": 116,
              "position": 3.5,
              "duration": 0.13541666666666666
            },
            {
              "pitch": 75,
              "velocity": 114,
              "position": 4,
              "duration": 0.28125
            },
            {
              "pitch": 67,
              "velocity": 112,
              "position": 4,
              "duration": 0.4375
            },
            {
              "pitch": 70,
              "velocity": 110,
              "position": 4.291666666666667,
              "duration": 0.14583333333333334
            },
            {
              "pitch": 74,
              "velocity": 62,
              "position": 4.5,
              "duration": 0.13541666666666666
            },
            {
              "pitch": 67,
              "velocity": 110,
              "position": 4.791666666666667,
              "duration": 0.14583333333333334
            },
            {
              "pitch": 70,
              "velocity": 110,
              "position": 4.791666666666667,
              "duration": 0.14583333333333334
            },
            {
              "pitch": 75,
              "velocity": 60,
              "position": 5,
              "duration": 0.28125
            },
            {
              "pitch": 74,
              "velocity": 46,
              "position": 5.5,
              "duration": 0.13541666666666666
            },
            {
              "pitch": 67,
              "velocity": 61,
              "position": 5.541666666666667,
              "duration": 0.14583333333333334
            },
            {
              "pitch": 70,
              "velocity": 61,
              "position": 5.541666666666667,
              "duration": 0.14583333333333334
            },
            {
              "pitch": 75,
              "velocity": 44,
              "position": 6,
              "duration": 0.28125
            },
            {
              "pitch": 67,
              "velocity": 48,
              "position": 6.291666666666667,
              "duration": 0.14583333333333334
            },
            {
              "pitch": 70,
              "velocity": 48,
              "position": 6.291666666666667,
              "duration": 0.14583333333333334
            },
            {
              "pitch": 74,
              "velocity": 40,
              "position": 6.5,
              "duration": 0.13541666666666666
            },
            {
              "pitch": 67,
              "velocity": 36,
              "position": 7.041666666666667,
              "duration": 0.14583333333333334
            },
            {
              "pitch": 70,
              "velocity": 36,
              "position": 7.041666666666667,
              "duration": 0.14583333333333334
            },
            {
              "pitch": 75,
              "velocity": 38,
              "position": 7,
              "duration": 0.28125
            },
            {
              "pitch": 72,
              "velocity": 110,
              "position": 8,
              "duration": 0.2604166666666667
            },
            {
              "pitch": 65,
              "velocity": 99,
              "position": 8,
              "duration": 0.2708333333333333
            },
            {
              "pitch": 77,
              "velocity": 92,
              "position": 8,
              "duration": 0.2708333333333333
            },
            {
              "pitch": 72,
              "velocity": 99,
              "position": 8.3125,
              "duration": 0.17708333333333334
            },
            {
              "pitch": 65,
              "velocity": 98,
              "position": 8.302083333333334,
              "duration": 0.19791666666666666
            },
            {
              "pitch": 77,
              "velocity": 94,
              "position": 8.3125,
              "duration": 0.1875
            },
            {
              "pitch": 72,
              "velocity": 59,
              "position": 9,
              "duration": 0.2604166666666667
            },
            {
              "pitch": 65,
              "velocity": 48,
              "position": 9,
              "duration": 0.2708333333333333
            },
            {
              "pitch": 77,
              "velocity": 41,
              "position": 9,
              "duration": 0.2708333333333333
            },
            {
              "pitch": 72,
              "velocity": 48,
              "position": 9.3125,
              "duration": 0.17708333333333334
            },
            {
              "pitch": 65,
              "velocity": 47,
              "position": 9.302083333333334,
              "duration": 0.19791666666666666
            },
            {
              "pitch": 77,
              "velocity": 43,
              "position": 9.3125,
              "duration": 0.1875
            },
            {
              "pitch": 74,
              "velocity": 101,
              "position": 10.5,
              "duration": 0.13541666666666666
            },
            {
              "pitch": 79,
              "velocity": 101,
              "position": 10.5,
              "duration": 0.15625
            },
            {
              "pitch": 67,
              "velocity": 101,
              "position": 10.510416666666666,
              "duration": 0.16666666666666666
            },
            {
              "pitch": 67,
              "velocity": 101,
              "position": 11.291666666666666,
              "duration": 0.13541666666666666
            },
            {
              "pitch": 74,
              "velocity": 101,
              "position": 11.291666666666666,
              "duration": 0.13541666666666666
            },
            {
              "pitch": 79,
              "velocity": 101,
              "position": 11.291666666666666,
              "duration": 0.14583333333333334
            },
            {
              "pitch": 67,
              "velocity": 98,
              "position": 12,
              "duration": 3.75
            },
            {
              "pitch": 72,
              "velocity": 98,
              "position": 12,
              "duration": 3.75
            }
          ]
        },
        "7": {
          "ctab": {
            "srcChannel": 7,
            "name": "Lead",
            "accType": "PHRASE2",
            "editable": false,
            "mutedNotes": [],
            "mutedChords": [
              "1+2+5",
              "sus4",
              "1+5",
              "1+8",
              "7aug",
              "Maj7aug",
              "7(#9)",
              "7(b13)",
              "7(b9)",
              "7(13)",
              "7#11",
              "7(9)",
              "7b5",
              "7sus4",
              "7th",
              "aug",
              "Maj6(9)",
              "Maj7(9)",
              "Maj(9)",
              "Maj7#11",
              "Maj7",
              "Maj6",
              "Maj"
            ],
            "autoStart": false,
            "sourceChordNote": 0,
            "sourceChordType": "Maj7",
            "ctb2Low": null,
            "ctb2Main": {
              "ntr": "ROOT_TRANSPOSITION",
              "ntt": "BYPASS",
              "bassOn": false,
              "chordRootUpperLimit": 2,
              "noteLowLimit": 0,
              "noteHighLimit": 127,
              "rtr": "PITCH_SHIFT"
            },
            "ctb2High": null
          },
          "notes": [
            {
              "pitch": 60,
              "velocity": 46,
              "position": 9,
              "duration": 0.4895833333333333
            },
            {
              "pitch": 67,
              "velocity": 46,
              "position": 9.5,
              "duration": 0.9895833333333334
            },
            {
              "pitch": 65,
              "velocity": 46,
              "position": 10.5,
              "duration": 0.4895833333333333
            },
            {
              "pitch": 67,
              "velocity": 46,
              "position": 11,
              "duration": 0.4895833333333333
            },
            {
              "pitch": 70,
              "velocity": 46,
              "position": 11.5,
              "duration": 0.4895833333333333
            },
            {
              "pitch": 67,
              "velocity": 46,
              "position": 12,
              "duration": 3.9895833333333335
            }
          ]
        },
        "8": {
          "ctab": {
            "srcChannel": 8,
            "name": "Perc",
            "accType": "SUBRHYTHM",
            "editable": false,
            "mutedNotes": [],
            "mutedChords": [],
            "autoStart": true,
            "sourceChordNote": 0,
            "sourceChordType": "Maj7",
            "ctb2Low": null,
            "ctb2Main": {
              "ntr": "ROOT_FIXED",
              "ntt": "BYPASS",
              "bassOn": false,
              "chordRootUpperLimit": 6,
              "noteLowLimit": 0,
              "noteHighLimit": 127,
              "rtr": "PITCH_SHIFT"
            },
            "ctb2High": null
          },
          "notes": [
            {
              "pitch": 80,
              "velocity": 35,
              "position": 0,
              "duration": 0.020833333333333332
            },
            {
              "pitch": 54,
              "velocity": 36,
              "position": 0,
              "duration": 0.10416666666666667
            },
            {
              "pitch": 54,
              "velocity": 23,
              "position": 0.3229166666666667,
              "duration": 0.10416666666666667
            },
            {
              "pitch": 54,
              "velocity": 44,
              "position": 0.5,
              "duration": 0.10416666666666667
            },
            {
              "pitch": 54,
              "velocity": 32,
              "position": 0.8229166666666666,
              "duration": 0.10416666666666667
            },
            {
              "pitch": 39,
              "velocity": 66,
              "position": 1,
              "duration": 0.10416666666666667
            },
            {
              "pitch": 54,
              "velocity": 35,
              "position": 1,
              "duration": 0.10416666666666667
            },
            {
              "pitch": 54,
              "velocity": 20,
              "position": 1.3229166666666667,
              "duration": 0.10416666666666667
            },
            {
              "pitch": 54,
              "velocity": 43,
              "position": 1.5,
              "duration": 0.10416666666666667
            },
            {
              "pitch": 54,
              "velocity": 34,
              "position": 1.8229166666666667,
              "duration": 0.10416666666666667
            },
            {
              "pitch": 54,
              "velocity": 35,
              "position": 2,
              "duration": 0.10416666666666667
            },
            {
              "pitch": 54,
              "velocity": 20,
              "position": 2.3229166666666665,
              "duration": 0.10416666666666667
            },
            {
              "pitch": 54,
              "velocity": 43,
              "position": 2.5,
              "duration": 0.10416666666666667
            },
            {
              "pitch": 54,
              "velocity": 31,
              "position": 2.8229166666666665,
              "duration": 0.10416666666666667
            },
            {
              "pitch": 80,
              "velocity": 35,
              "position": 3,
              "duration": 0.020833333333333332
            },
            {
              "pitch": 39,
              "velocity": 60,
              "position": 3,
              "duration": 0.10416666666666667
            },
            {
              "pitch": 54,
              "velocity": 35,
              "position": 3,
              "duration": 0.10416666666666667
            },
            {
              "pitch": 80,
              "velocity": 35,
              "position": 3.3229166666666665,
              "duration": 0.020833333333333332
            },
            {
              "pitch": 54,
              "velocity": 19,
              "position": 3.3229166666666665,
              "duration": 0.10416666666666667
            },
            {
              "pitch": 57,
              "velocity": 51,
              "position": 3.5,
              "duration": 0.010416666666666666
            },
            {
              "pitch": 54,
              "velocity": 43,
              "position": 3.5,
              "duration": 0.10416666666666667
            },
            {
              "pitch": 81,
              "velocity": 36,
              "position": 3.5,
              "duration": 0.10416666666666667
            },
            {
              "pitch": 54,
              "velocity": 31,
              "position": 3.8229166666666665,
              "duration": 0.10416666666666667
            },
            {
              "pitch": 80,
              "velocity": 35,
              "position": 4,
              "duration": 0.020833333333333332
            },
            {
              "pitch": 54,
              "velocity": 36,
              "position": 4,
              "duration": 0.10416666666666667
            },
            {
              "pitch": 54,
              "velocity": 23,
              "position": 4.322916666666667,
              "duration": 0.10416666666666667
            },
            {
              "pitch": 54,
              "velocity": 44,
              "position": 4.5,
              "duration": 0.10416666666666667
            },
            {
              "pitch": 54,
              "velocity": 32,
              "position": 4.822916666666667,
              "duration": 0.10416666666666667
            },
            {
              "pitch": 39,
              "velocity": 66,
              "position": 5,
              "duration": 0.10416666666666667
            },
            {
              "pitch": 54,
              "velocity": 35,
              "position": 5,
              "duration": 0.10416666666666667
            },
            {
              "pitch": 54,
              "velocity": 20,
              "position": 5.322916666666667,
              "duration": 0.10416666666666667
            },
            {
              "pitch": 54,
              "velocity": 43,
              "position": 5.5,
              "duration": 0.10416666666666667
            },
            {
              "pitch": 54,
              "velocity": 34,
              "position": 5.822916666666667,
              "duration": 0.10416666666666667
            },
            {
              "pitch": 54,
              "velocity": 35,
              "position": 6,
              "duration": 0.10416666666666667
            },
            {
              "pitch": 54,
              "velocity": 20,
              "position": 6.322916666666667,
              "duration": 0.10416666666666667
            },
            {
              "pitch": 54,
              "velocity": 43,
              "position": 6.5,
              "duration": 0.10416666666666667
            },
            {
              "pitch": 54,
              "velocity": 31,
              "position": 6.822916666666667,
              "duration": 0.10416666666666667
            },
            {
              "pitch": 81,
              "velocity": 33,
              "position": 6.822916666666667,
              "duration": 0.10416666666666667
            },
            {
              "pitch": 80,
              "velocity": 35,
              "position": 7,
              "duration": 0.020833333333333332
            },
            {
              "pitch": 39,
              "velocity": 60,
              "position": 7,
              "duration": 0.10416666666666667
            },
            {
              "pitch": 54,
              "velocity": 35,
              "position": 7,
              "duration": 0.10416666666666667
            },
            {
              "pitch": 80,
              "velocity": 35,
              "position": 7.322916666666667,
              "duration": 0.020833333333333332
            },
            {
              "pitch": 54,
              "velocity": 19,
              "position": 7.322916666666667,
              "duration": 0.10416666666666667
            },
            {
              "pitch": 54,
              "velocity": 43,
              "position": 7.5,
              "duration": 0.10416666666666667
            },
            {
              "pitch": 81,
              "velocity": 36,
              "position": 7.5,
              "duration": 0.10416666666666667
            },
            {
              "pitch": 54,
              "velocity": 31,
              "position": 7.822916666666667,
              "duration": 0.10416666666666667
            },
            {
              "pitch": 57,
              "velocity": 51,
              "position": 8,
              "duration": 0.010416666666666666
            },
            {
              "pitch": 80,
              "velocity": 35,
              "position": 8,
              "duration": 0.020833333333333332
            },
            {
              "pitch": 54,
              "velocity": 36,
              "position": 8,
              "duration": 0.10416666666666667
            },
            {
              "pitch": 80,
              "velocity": 35,
              "position": 8.322916666666666,
              "duration": 0.020833333333333332
            },
            {
              "pitch": 54,
              "velocity": 23,
              "position": 8.322916666666666,
              "duration": 0.10416666666666667
            },
            {
              "pitch": 54,
              "velocity": 44,
              "position": 8.5,
              "duration": 0.10416666666666667
            },
            {
              "pitch": 81,
              "velocity": 36,
              "position": 8.5,
              "duration": 0.10416666666666667
            },
            {
              "pitch": 80,
              "velocity": 35,
              "position": 9,
              "duration": 0.020833333333333332
            },
            {
              "pitch": 39,
              "velocity": 65,
              "position": 9,
              "duration": 0.10416666666666667
            },
            {
              "pitch": 54,
              "velocity": 35,
              "position": 9,
              "duration": 0.10416666666666667
            },
            {
              "pitch": 80,
              "velocity": 35,
              "position": 9.322916666666666,
              "duration": 0.020833333333333332
            },
            {
              "pitch": 54,
              "velocity": 43,
              "position": 9.5,
              "duration": 0.10416666666666667
            },
            {
              "pitch": 81,
              "velocity": 36,
              "position": 9.5,
              "duration": 0.10416666666666667
            },
            {
              "pitch": 80,
              "velocity": 35,
              "position": 10,
              "duration": 0.020833333333333332
            },
            {
              "pitch": 54,
              "velocity": 35,
              "position": 10,
              "duration": 0.10416666666666667
            },
            {
              "pitch": 80,
              "velocity": 35,
              "position": 10.322916666666666,
              "duration": 0.020833333333333332
            },
            {
              "pitch": 39,
              "velocity": 64,
              "position": 10.5,
              "duration": 0.10416666666666667
            },
            {
              "pitch": 54,
              "velocity": 43,
              "position": 10.5,
              "duration": 0.10416666666666667
            },
            {
              "pitch": 81,
              "velocity": 36,
              "position": 10.5,
              "duration": 0.10416666666666667
            },
            {
              "pitch": 52,
              "velocity": 62,
              "position": 11,
              "duration": 0.010416666666666666
            },
            {
              "pitch": 80,
              "velocity": 35,
              "position": 11,
              "duration": 0.020833333333333332
            },
            {
              "pitch": 39,
              "velocity": 64,
              "position": 11,
              "duration": 0.10416666666666667
            },
            {
              "pitch": 54,
              "velocity": 35,
              "position": 11,
              "duration": 0.10416666666666667
            },
            {
              "pitch": 80,
              "velocity": 35,
              "position": 11.322916666666666,
              "duration": 0.020833333333333332
            },
            {
              "pitch": 54,
              "velocity": 19,
              "position": 11.322916666666666,
              "duration": 0.10416666666666667
            },
            {
              "pitch": 55,
              "velocity": 51,
              "position": 11.5,
              "duration": 0.010416666666666666
            },
            {
              "pitch": 54,
              "velocity": 43,
              "position": 11.5,
              "duration": 0.10416666666666667
            },
            {
              "pitch": 81,
              "velocity": 36,
              "position": 11.5,
              "duration": 0.10416666666666667
            },
            {
              "pitch": 54,
              "velocity": 31,
              "position": 11.822916666666666,
              "duration": 0.10416666666666667
            },
            {
              "pitch": 57,
              "velocity": 51,
              "position": 12,
              "duration": 0.010416666666666666
            },
            {
              "pitch": 54,
              "velocity": 36,
              "position": 12,
              "duration": 0.10416666666666667
            }
          ]
        },
        "9": {
          "ctab": {
            "srcChannel": 9,
            "name": "Drums",
            "accType": "RHYTHM",
            "editable": false,
            "mutedNotes": [],
            "mutedChords": [],
            "autoStart": true,
            "sourceChordNote": 0,
            "sourceChordType": "Maj7",
            "ctb2Low": null,
            "ctb2Main": {
              "ntr": "ROOT_FIXED",
              "ntt": "BYPASS",
              "bassOn": false,
              "chordRootUpperLimit": 6,
              "noteLowLimit": 0,
              "noteHighLimit": 127,
              "rtr": "PITCH_SHIFT"
            },
            "ctb2High": null
          },
          "notes": [
            {
              "pitch": 36,
              "velocity": 88,
              "position": 0,
              "duration": 0.10416666666666667
            },
            {
              "pitch": 42,
              "velocity": 87,
              "position": 0,
              "duration": 0.10416666666666667
            },
            {
              "pitch": 46,
              "velocity": 54,
              "position": 0.5,
              "duration": 0.10416666666666667
            },
            {
              "pitch": 34,
              "velocity": 64,
              "position": 1,
              "duration": 0.10416666666666667
            },
            {
              "pitch": 42,
              "velocity": 89,
              "position": 1,
              "duration": 0.10416666666666667
            },
            {
              "pitch": 42,
              "velocity": 71,
              "position": 1.5,
              "duration": 0.10416666666666667
            },
            {
              "pitch": 42,
              "velocity": 33,
              "position": 1.8125,
              "duration": 0.10416666666666667
            },
            {
              "pitch": 36,
              "velocity": 86,
              "position": 1.8229166666666667,
              "duration": 0.10416666666666667
            },
            {
              "pitch": 36,
              "velocity": 73,
              "position": 2,
              "duration": 0.10416666666666667
            },
            {
              "pitch": 42,
              "velocity": 86,
              "position": 2,
              "duration": 0.10416666666666667
            },
            {
              "pitch": 36,
              "velocity": 88,
              "position": 2.5,
              "duration": 0.10416666666666667
            },
            {
              "pitch": 46,
              "velocity": 54,
              "position": 2.5,
              "duration": 0.10416666666666667
            },
            {
              "pitch": 34,
              "velocity": 64,
              "position": 3,
              "duration": 0.10416666666666667
            },
            {
              "pitch": 42,
              "velocity": 83,
              "position": 3,
              "duration": 0.10416666666666667
            },
            {
              "pitch": 36,
              "velocity": 87,
              "position": 3.5,
              "duration": 0.10416666666666667
            },
            {
              "pitch": 42,
              "velocity": 71,
              "position": 3.5,
              "duration": 0.10416666666666667
            },
            {
              "pitch": 42,
              "velocity": 33,
              "position": 3.8125,
              "duration": 0.10416666666666667
            },
            {
              "pitch": 36,
              "velocity": 88,
              "position": 4,
              "duration": 0.10416666666666667
            },
            {
              "pitch": 42,
              "velocity": 87,
              "position": 4,
              "duration": 0.10416666666666667
            },
            {
              "pitch": 46,
              "velocity": 54,
              "position": 4.5,
              "duration": 0.10416666666666667
            },
            {
              "pitch": 34,
              "velocity": 64,
              "position": 5,
              "duration": 0.10416666666666667
            },
            {
              "pitch": 42,
              "velocity": 89,
              "position": 5,
              "duration": 0.10416666666666667
            },
            {
              "pitch": 42,
              "velocity": 71,
              "position": 5.5,
              "duration": 0.10416666666666667
            },
            {
              "pitch": 42,
              "velocity": 33,
              "position": 5.8125,
              "duration": 0.10416666666666667
            },
            {
              "pitch": 36,
              "velocity": 86,
              "position": 5.822916666666667,
              "duration": 0.10416666666666667
            },
            {
              "pitch": 36,
              "velocity": 73,
              "position": 6,
              "duration": 0.10416666666666667
            },
            {
              "pitch": 42,
              "velocity": 86,
              "position": 6,
              "duration": 0.10416666666666667
            },
            {
              "pitch": 34,
              "velocity": 64,
              "position": 6.322916666666667,
              "duration": 0.10416666666666667
            },
            {
              "pitch": 36,
              "velocity": 88,
              "position": 6.5,
              "duration": 0.10416666666666667
            },
            {
              "pitch": 46,
              "velocity": 54,
              "position": 6.5,
              "duration": 0.10416666666666667
            },
            {
              "pitch": 34,
              "velocity": 64,
              "position": 7,
              "duration": 0.10416666666666667
            },
            {
              "pitch": 42,
              "velocity": 83,
              "position": 7,
              "duration": 0.10416666666666667
            },
            {
              "pitch": 36,
              "velocity": 87,
              "position": 7.5,
              "duration": 0.10416666666666667
            },
            {
              "pitch": 46,
              "velocity": 54,
              "position": 7.5,
              "duration": 0.10416666666666667
            },
            {
              "pitch": 34,
              "velocity": 18,
              "position": 7.75,
              "duration": 0.10416666666666667
            },
            {
              "pitch": 34,
              "velocity": 48,
              "position": 7.875,
              "duration": 0.10416666666666667
            },
            {
              "pitch": 34,
              "velocity": 64,
              "position": 8,
              "duration": 0.10416666666666667
            },
            {
              "pitch": 36,
              "velocity": 88,
              "position": 8,
              "duration": 0.10416666666666667
            },
            {
              "pitch": 42,
              "velocity": 88,
              "position": 8,
              "duration": 0.10416666666666667
            },
            {
              "pitch": 46,
              "velocity": 54,
              "position": 8.3125,
              "duration": 0.10416666666666667
            },
            {
              "pitch": 34,
              "velocity": 64,
              "position": 8.322916666666666,
              "duration": 0.10416666666666667
            },
            {
              "pitch": 42,
              "velocity": 45,
              "position": 8.5,
              "duration": 0.10416666666666667
            },
            {
              "pitch": 36,
              "velocity": 61,
              "position": 8.822916666666666,
              "duration": 0.10416666666666667
            },
            {
              "pitch": 36,
              "velocity": 63,
              "position": 9.5,
              "duration": 0.10416666666666667
            },
            {
              "pitch": 34,
              "velocity": 18,
              "position": 9.75,
              "duration": 0.10416666666666667
            },
            {
              "pitch": 36,
              "velocity": 88,
              "position": 9.822916666666666,
              "duration": 0.10416666666666667
            },
            {
              "pitch": 34,
              "velocity": 48,
              "position": 9.875,
              "duration": 0.10416666666666667
            },
            {
              "pitch": 34,
              "velocity": 64,
              "position": 10,
              "duration": 0.10416666666666667
            },
            {
              "pitch": 36,
              "velocity": 57,
              "position": 10.322916666666666,
              "duration": 0.10416666666666667
            },
            {
              "pitch": 36,
              "velocity": 53,
              "position": 10.822916666666666,
              "duration": 0.10416666666666667
            },
            {
              "pitch": 34,
              "velocity": 64,
              "position": 11,
              "duration": 0.10416666666666667
            },
            {
              "pitch": 42,
              "velocity": 88,
              "position": 11,
              "duration": 0.10416666666666667
            },
            {
              "pitch": 36,
              "velocity": 81,
              "position": 11.5,
              "duration": 0.10416666666666667
            },
            {
              "pitch": 36,
              "velocity": 88,
              "position": 12,
              "duration": 0.10416666666666667
            }
          ]
        },
        "10": {
          "ctab": {
            "srcChannel": 10,
            "name": "SynBass",
            "accType": "BASS",
            "editable": false,
            "mutedNotes": [],
            "mutedChords": [
              "dim7",
              "dim",
              "minMaj7(9)",
              "minMaj7",
              "min7(11)",
              "min7(9)",
              "min(9)",
              "m7b5",
              "min7",
              "min6",
              "min"
            ],
            "autoStart": false,
            "sourceChordNote": 0,
            "sourceChordType": "Maj7",
            "ctb2Low": null,
            "ctb2Main": {
              "ntr": "ROOT_TRANSPOSITION",
              "ntt": "BYPASS",
              "bassOn": false,
              "chordRootUpperLimit": 6,
              "noteLowLimit": 28,
              "noteHighLimit": 127,
              "rtr": "PITCH_SHIFT"
            },
            "ctb2High": null
          },
          "notes": [
            {
              "pitch": 24,
              "velocity": 100,
              "position": 0,
              "duration": 0.53125
            },
            {
              "pitch": 35,
              "velocity": 100,
              "position": 1.8125,
              "duration": 0.17708333333333334
            },
            {
              "pitch": 36,
              "velocity": 100,
              "position": 2,
              "duration": 0.20833333333333334
            },
            {
              "pitch": 36,
              "velocity": 100,
              "position": 2.5,
              "duration": 0.25
            },
            {
              "pitch": 38,
              "velocity": 100,
              "position": 3.0104166666666665,
              "duration": 0.14583333333333334
            },
            {
              "pitch": 40,
              "velocity": 100,
              "position": 3.5104166666666665,
              "duration": 0.5104166666666666
            },
            {
              "pitch": 28,
              "velocity": 100,
              "position": 4,
              "duration": 0.5104166666666666
            },
            {
              "pitch": 30,
              "velocity": 100,
              "position": 5.8125,
              "duration": 0.17708333333333334
            },
            {
              "pitch": 31,
              "velocity": 100,
              "position": 6,
              "duration": 0.20833333333333334
            },
            {
              "pitch": 31,
              "velocity": 100,
              "position": 6.5,
              "duration": 0.25
            },
            {
              "pitch": 31,
              "velocity": 100,
              "position": 6.989583333333333,
              "duration": 0.3854166666666667
            },
            {
              "pitch": 28,
              "velocity": 100,
              "position": 7.489583333333333,
              "duration": 0.3229166666666667
            },
            {
              "pitch": 29,
              "velocity": 100,
              "position": 8,
              "duration": 0.3020833333333333
            },
            {
              "pitch": 29,
              "velocity": 100,
              "position": 8.322916666666666,
              "duration": 0.14583333333333334
            },
            {
              "pitch": 45,
              "velocity": 100,
              "position": 9.8125,
              "duration": 0.09375
            },
            {
              "pitch": 43,
              "velocity": 100,
              "position": 10.020833333333334,
              "duration": 0.40625
            },
            {
              "pitch": 41,
              "velocity": 100,
              "position": 10.5,
              "duration": 0.14583333333333334
            },
            {
              "pitch": 38,
              "velocity": 100,
              "position": 11,
              "duration": 0.53125
            },
            {
              "pitch": 35,
              "velocity": 100,
              "position": 11.510416666666666,
              "duration": 0.20833333333333334
            },
            {
              "pitch": 24,
              "velocity": 100,
              "position": 12,
              "duration": 3.9895833333333335
            }
          ]
        },
        "11": {
          "ctab": {
            "srcChannel": 11,
            "name": "Clavi",
            "accType": "CHORD2",
            "editable": false,
            "mutedNotes": [],
            "mutedChords": [
              "dim7",
              "dim",
              "minMaj7(9)",
              "minMaj7",
              "min7(11)",
              "min7(9)",
              "min(9)",
              "m7b5",
              "min7",
              "min6",
              "min"
            ],
            "autoStart": false,
            "sourceChordNote": 0,
            "sourceChordType": "Maj7",
            "ctb2Low": null,
            "ctb2Main": {
              "ntr": "ROOT_TRANSPOSITION",
              "ntt": "BYPASS",
              "bassOn": false,
              "chordRootUpperLimit": 10,
              "noteLowLimit": 0,
              "noteHighLimit": 127,
              "rtr": "PITCH_SHIFT"
            },
            "ctb2High": null
          },
          "notes": [
            {
              "pitch": 43,
              "velocity": 90,
              "position": 0.010416666666666666,
              "duration": 0.3125
            },
            {
              "pitch": 48,
              "velocity": 90,
              "position": 0.3229166666666667,
              "duration": 0.07291666666666667
            },
            {
              "pitch": 43,
              "velocity": 35,
              "position": 0.5,
              "duration": 0.052083333333333336
            },
            {
              "pitch": 48,
              "velocity": 90,
              "position": 0.8229166666666666,
              "duration": 0.052083333333333336
            },
            {
              "pitch": 43,
              "velocity": 77,
              "position": 1.8125,
              "duration": 0.07291666666666667
            },
            {
              "pitch": 48,
              "velocity": 98,
              "position": 1.9895833333333333,
              "duration": 0.23958333333333334
            },
            {
              "pitch": 43,
              "velocity": 73,
              "position": 2.3229166666666665,
              "duration": 0.0625
            },
            {
              "pitch": 47,
              "velocity": 90,
              "position": 2.5,
              "duration": 0.2604166666666667
            },
            {
              "pitch": 43,
              "velocity": 80,
              "position": 2.8125,
              "duration": 0.08333333333333333
            },
            {
              "pitch": 48,
              "velocity": 88,
              "position": 3,
              "duration": 0.2708333333333333
            },
            {
              "pitch": 47,
              "velocity": 84,
              "position": 3.5,
              "duration": 0.3645833333333333
            },
            {
              "pitch": 50,
              "velocity": 92,
              "position": 3.8229166666666665,
              "duration": 0.19791666666666666
            },
            {
              "pitch": 43,
              "velocity": 90,
              "position": 4,
              "duration": 0.3125
            },
            {
              "pitch": 52,
              "velocity": 90,
              "position": 4.322916666666667,
              "duration": 0.07291666666666667
            },
            {
              "pitch": 52,
              "velocity": 90,
              "position": 4.822916666666667,
              "duration": 0.052083333333333336
            },
            {
              "pitch": 43,
              "velocity": 59,
              "position": 5.8125,
              "duration": 0.07291666666666667
            },
            {
              "pitch": 52,
              "velocity": 90,
              "position": 5.989583333333333,
              "duration": 0.20833333333333334
            },
            {
              "pitch": 43,
              "velocity": 59,
              "position": 6.322916666666667,
              "duration": 0.0625
            },
            {
              "pitch": 50,
              "velocity": 84,
              "position": 6.489583333333333,
              "duration": 0.28125
            },
            {
              "pitch": 48,
              "velocity": 81,
              "position": 7,
              "duration": 0.23958333333333334
            },
            {
              "pitch": 43,
              "velocity": 64,
              "position": 7.322916666666667,
              "duration": 0.07291666666666667
            },
            {
              "pitch": 47,
              "velocity": 90,
              "position": 7.5,
              "duration": 0.20833333333333334
            },
            {
              "pitch": 53,
              "velocity": 91,
              "position": 8,
              "duration": 0.22916666666666666
            },
            {
              "pitch": 52,
              "velocity": 82,
              "position": 8.3125,
              "duration": 0.08333333333333333
            },
            {
              "pitch": 53,
              "velocity": 94,
              "position": 8.5,
              "duration": 0.08333333333333333
            },
            {
              "pitch": 43,
              "velocity": 76,
              "position": 9.822916666666666,
              "duration": 0.07291666666666667
            },
            {
              "pitch": 55,
              "velocity": 92,
              "position": 10,
              "duration": 0.2916666666666667
            },
            {
              "pitch": 43,
              "velocity": 79,
              "position": 10.3125,
              "duration": 0.0625
            },
            {
              "pitch": 53,
              "velocity": 98,
              "position": 10.5,
              "duration": 0.3333333333333333
            },
            {
              "pitch": 43,
              "velocity": 70,
              "position": 10.8125,
              "duration": 0.07291666666666667
            },
            {
              "pitch": 43,
              "velocity": 54,
              "position": 11.3125,
              "duration": 0.0625
            },
            {
              "pitch": 52,
              "velocity": 88,
              "position": 11,
              "duration": 0.4166666666666667
            },
            {
              "pitch": 47,
              "velocity": 86,
              "position": 11.5,
              "duration": 0.22916666666666666
            },
            {
              "pitch": 43,
              "velocity": 68,
              "position": 11.822916666666666,
              "duration": 0.0625
            },
            {
              "pitch": 48,
              "velocity": 75,
              "position": 12,
              "duration": 3.9895833333333335
            }
          ]
        },
        "12": {
          "ctab": {
            "srcChannel": 12,
            "name": "ElecPno",
            "accType": "CHORD1",
            "editable": false,
            "mutedNotes": [],
            "mutedChords": [
              "dim7",
              "dim",
              "minMaj7(9)",
              "minMaj7",
              "min7(11)",
              "min7(9)",
              "min(9)",
              "m7b5",
              "min7",
              "min6",
              "min"
            ],
            "autoStart": false,
            "sourceChordNote": 0,
            "sourceChordType": "Maj7",
            "ctb2Low": null,
            "ctb2Main": {
              "ntr": "ROOT_TRANSPOSITION",
              "ntt": "BYPASS",
              "bassOn": false,
              "chordRootUpperLimit": 6,
              "noteLowLimit": 0,
              "noteHighLimit": 127,
              "rtr": "PITCH_SHIFT"
            },
            "ctb2High": null
          },
          "notes": [
            {
              "pitch": 60,
              "velocity": 85,
              "position": 0,
              "duration": 0.22916666666666666
            },
            {
              "pitch": 67,
              "velocity": 85,
              "position": 0,
              "duration": 0.22916666666666666
            },
            {
              "pitch": 71,
              "velocity": 85,
              "position": 0,
              "duration": 0.22916666666666666
            },
            {
              "pitch": 64,
              "velocity": 85,
              "position": 0,
              "duration": 0.23958333333333334
            },
            {
              "pitch": 71,
              "velocity": 83,
              "position": 0.5,
              "duration": 0.22916666666666666
            },
            {
              "pitch": 60,
              "velocity": 85,
              "position": 0.5,
              "duration": 0.23958333333333334
            },
            {
              "pitch": 64,
              "velocity": 85,
              "position": 0.5,
              "duration": 0.23958333333333334
            },
            {
              "pitch": 67,
              "velocity": 85,
              "position": 0.5,
              "duration": 0.23958333333333334
            },
            {
              "pitch": 64,
              "velocity": 85,
              "position": 1,
              "duration": 0.22916666666666666
            },
            {
              "pitch": 67,
              "velocity": 85,
              "position": 1,
              "duration": 0.22916666666666666
            },
            {
              "pitch": 60,
              "velocity": 85,
              "position": 1,
              "duration": 0.23958333333333334
            },
            {
              "pitch": 71,
              "velocity": 85,
              "position": 1,
              "duration": 0.23958333333333334
            },
            {
              "pitch": 60,
              "velocity": 85,
              "position": 1.5,
              "duration": 0.22916666666666666
            },
            {
              "pitch": 64,
              "velocity": 85,
              "position": 1.5,
              "duration": 0.22916666666666666
            },
            {
              "pitch": 67,
              "velocity": 85,
              "position": 1.5,
              "duration": 0.22916666666666666
            },
            {
              "pitch": 71,
              "velocity": 85,
              "position": 1.5,
              "duration": 0.22916666666666666
            },
            {
              "pitch": 60,
              "velocity": 85,
              "position": 2,
              "duration": 0.22916666666666666
            },
            {
              "pitch": 64,
              "velocity": 85,
              "position": 2,
              "duration": 0.22916666666666666
            },
            {
              "pitch": 71,
              "velocity": 85,
              "position": 2,
              "duration": 0.22916666666666666
            },
            {
              "pitch": 67,
              "velocity": 85,
              "position": 2,
              "duration": 0.23958333333333334
            },
            {
              "pitch": 64,
              "velocity": 85,
              "position": 2.5,
              "duration": 0.22916666666666666
            },
            {
              "pitch": 67,
              "velocity": 85,
              "position": 2.5,
              "duration": 0.22916666666666666
            },
            {
              "pitch": 62,
              "velocity": 85,
              "position": 2.5,
              "duration": 0.23958333333333334
            },
            {
              "pitch": 71,
              "velocity": 85,
              "position": 2.5,
              "duration": 0.23958333333333334
            },
            {
              "pitch": 67,
              "velocity": 85,
              "position": 3,
              "duration": 0.22916666666666666
            },
            {
              "pitch": 62,
              "velocity": 85,
              "position": 3,
              "duration": 0.23958333333333334
            },
            {
              "pitch": 64,
              "velocity": 85,
              "position": 3,
              "duration": 0.23958333333333334
            },
            {
              "pitch": 71,
              "velocity": 85,
              "position": 3,
              "duration": 0.23958333333333334
            },
            {
              "pitch": 62,
              "velocity": 85,
              "position": 3.5,
              "duration": 0.23958333333333334
            },
            {
              "pitch": 64,
              "velocity": 85,
              "position": 3.5,
              "duration": 0.23958333333333334
            },
            {
              "pitch": 67,
              "velocity": 85,
              "position": 3.5,
              "duration": 0.23958333333333334
            },
            {
              "pitch": 71,
              "velocity": 85,
              "position": 3.5,
              "duration": 0.23958333333333334
            },
            {
              "pitch": 62,
              "velocity": 84,
              "position": 4,
              "duration": 0.22916666666666666
            },
            {
              "pitch": 64,
              "velocity": 85,
              "position": 4,
              "duration": 0.22916666666666666
            },
            {
              "pitch": 67,
              "velocity": 85,
              "position": 4,
              "duration": 0.22916666666666666
            },
            {
              "pitch": 71,
              "velocity": 83,
              "position": 4,
              "duration": 0.22916666666666666
            },
            {
              "pitch": 71,
              "velocity": 85,
              "position": 4.5,
              "duration": 0.22916666666666666
            },
            {
              "pitch": 62,
              "velocity": 83,
              "position": 4.5,
              "duration": 0.23958333333333334
            },
            {
              "pitch": 64,
              "velocity": 82,
              "position": 4.5,
              "duration": 0.23958333333333334
            },
            {
              "pitch": 67,
              "velocity": 85,
              "position": 4.5,
              "duration": 0.23958333333333334
            },
            {
              "pitch": 62,
              "velocity": 82,
              "position": 5,
              "duration": 0.22916666666666666
            },
            {
              "pitch": 64,
              "velocity": 81,
              "position": 5,
              "duration": 0.22916666666666666
            },
            {
              "pitch": 67,
              "velocity": 83,
              "position": 5,
              "duration": 0.22916666666666666
            },
            {
              "pitch": 71,
              "velocity": 85,
              "position": 5,
              "duration": 0.23958333333333334
            },
            {
              "pitch": 62,
              "velocity": 84,
              "position": 5.5,
              "duration": 0.22916666666666666
            },
            {
              "pitch": 71,
              "velocity": 85,
              "position": 5.5,
              "duration": 0.22916666666666666
            },
            {
              "pitch": 64,
              "velocity": 84,
              "position": 5.5,
              "duration": 0.23958333333333334
            },
            {
              "pitch": 67,
              "velocity": 85,
              "position": 5.5,
              "duration": 0.23958333333333334
            },
            {
              "pitch": 62,
              "velocity": 83,
              "position": 6,
              "duration": 0.22916666666666666
            },
            {
              "pitch": 64,
              "velocity": 85,
              "position": 6,
              "duration": 0.22916666666666666
            },
            {
              "pitch": 71,
              "velocity": 85,
              "position": 6,
              "duration": 0.22916666666666666
            },
            {
              "pitch": 67,
              "velocity": 85,
              "position": 6,
              "duration": 0.23958333333333334
            },
            {
              "pitch": 71,
              "velocity": 85,
              "position": 6.5,
              "duration": 0.22916666666666666
            },
            {
              "pitch": 62,
              "velocity": 85,
              "position": 6.5,
              "duration": 0.23958333333333334
            },
            {
              "pitch": 64,
              "velocity": 85,
              "position": 6.5,
              "duration": 0.23958333333333334
            },
            {
              "pitch": 67,
              "velocity": 85,
              "position": 6.5,
              "duration": 0.23958333333333334
            },
            {
              "pitch": 64,
              "velocity": 85,
              "position": 7,
              "duration": 0.22916666666666666
            },
            {
              "pitch": 67,
              "velocity": 85,
              "position": 7,
              "duration": 0.22916666666666666
            },
            {
              "pitch": 71,
              "velocity": 85,
              "position": 7,
              "duration": 0.22916666666666666
            },
            {
              "pitch": 62,
              "velocity": 85,
              "position": 7,
              "duration": 0.23958333333333334
            },
            {
              "pitch": 71,
              "velocity": 85,
              "position": 7.5,
              "duration": 0.22916666666666666
            },
            {
              "pitch": 62,
              "velocity": 85,
              "position": 7.5,
              "duration": 0.23958333333333334
            },
            {
              "pitch": 64,
              "velocity": 84,
              "position": 7.5,
              "duration": 0.23958333333333334
            },
            {
              "pitch": 67,
              "velocity": 85,
              "position": 7.5,
              "duration": 0.23958333333333334
            },
            {
              "pitch": 62,
              "velocity": 85,
              "position": 8,
              "duration": 0.22916666666666666
            },
            {
              "pitch": 60,
              "velocity": 85,
              "position": 8,
              "duration": 0.23958333333333334
            },
            {
              "pitch": 65,
              "velocity": 85,
              "position": 8,
              "duration": 0.23958333333333334
            },
            {
              "pitch": 69,
              "velocity": 85,
              "position": 8,
              "duration": 0.23958333333333334
            },
            {
              "pitch": 62,
              "velocity": 85,
              "position": 8.5,
              "duration": 0.22916666666666666
            },
            {
              "pitch": 65,
              "velocity": 85,
              "position": 8.5,
              "duration": 0.22916666666666666
            },
            {
              "pitch": 60,
              "velocity": 85,
              "position": 8.5,
              "duration": 0.23958333333333334
            },
            {
              "pitch": 69,
              "velocity": 85,
              "position": 8.5,
              "duration": 0.23958333333333334
            },
            {
              "pitch": 62,
              "velocity": 85,
              "position": 9,
              "duration": 0.22916666666666666
            },
            {
              "pitch": 60,
              "velocity": 85,
              "position": 9,
              "duration": 0.23958333333333334
            },
            {
              "pitch": 65,
              "velocity": 85,
              "position": 9,
              "duration": 0.23958333333333334
            },
            {
              "pitch": 69,
              "velocity": 85,
              "position": 9,
              "duration": 0.23958333333333334
            },
            {
              "pitch": 69,
              "velocity": 85,
              "position": 9.5,
              "duration": 0.22916666666666666
            },
            {
              "pitch": 60,
              "velocity": 85,
              "position": 9.5,
              "duration": 0.23958333333333334
            },
            {
              "pitch": 62,
              "velocity": 85,
              "position": 9.5,
              "duration": 0.23958333333333334
            },
            {
              "pitch": 65,
              "velocity": 85,
              "position": 9.5,
              "duration": 0.23958333333333334
            },
            {
              "pitch": 67,
              "velocity": 85,
              "position": 10,
              "duration": 0.22916666666666666
            },
            {
              "pitch": 62,
              "velocity": 85,
              "position": 10,
              "duration": 0.23958333333333334
            },
            {
              "pitch": 64,
              "velocity": 85,
              "position": 10,
              "duration": 0.23958333333333334
            },
            {
              "pitch": 71,
              "velocity": 85,
              "position": 10,
              "duration": 0.23958333333333334
            },
            {
              "pitch": 64,
              "velocity": 85,
              "position": 10.5,
              "duration": 0.22916666666666666
            },
            {
              "pitch": 62,
              "velocity": 84,
              "position": 10.5,
              "duration": 0.23958333333333334
            },
            {
              "pitch": 67,
              "velocity": 85,
              "position": 10.5,
              "duration": 0.23958333333333334
            },
            {
              "pitch": 71,
              "velocity": 85,
              "position": 10.5,
              "duration": 0.23958333333333334
            },
            {
              "pitch": 62,
              "velocity": 85,
              "position": 11,
              "duration": 0.22916666666666666
            },
            {
              "pitch": 67,
              "velocity": 85,
              "position": 11,
              "duration": 0.22916666666666666
            },
            {
              "pitch": 64,
              "velocity": 85,
              "position": 11,
              "duration": 0.23958333333333334
            },
            {
              "pitch": 71,
              "velocity": 85,
              "position": 11,
              "duration": 0.23958333333333334
            },
            {
              "pitch": 62,
              "velocity": 85,
              "position": 11.5,
              "duration": 0.23958333333333334
            },
            {
              "pitch": 64,
              "velocity": 85,
              "position": 11.5,
              "duration": 0.23958333333333334
            },
            {
              "pitch": 67,
              "velocity": 85,
              "position": 11.5,
              "duration": 0.23958333333333334
            },
            {
              "pitch": 71,
              "velocity": 85,
              "position": 11.5,
              "duration": 0.23958333333333334
            },
            {
              "pitch": 60,
              "velocity": 85,
              "position": 12,
              "duration": 3.9791666666666665
            },
            {
              "pitch": 62,
              "velocity": 85,
              "position": 12,
              "duration": 3.9791666666666665
            },
            {
              "pitch": 64,
              "velocity": 85,
              "position": 12,
              "duration": 3.9791666666666665
            },
            {
              "pitch": 67,
              "velocity": 85,
              "position": 12,
              "duration": 3.9791666666666665
            }
          ]
        },
        "13": {
          "ctab": {
            "srcChannel": 13,
            "name": "Strings",
            "accType": "PAD",
            "editable": false,
            "mutedNotes": [],
            "mutedChords": [
              "dim7",
              "dim",
              "minMaj7(9)",
              "minMaj7",
              "min7(11)",
              "min7(9)",
              "min(9)",
              "m7b5",
              "min7",
              "min6",
              "min"
            ],
            "autoStart": false,
            "sourceChordNote": 0,
            "sourceChordType": "Maj7",
            "ctb2Low": null,
            "ctb2Main": {
              "ntr": "ROOT_TRANSPOSITION",
              "ntt": "BYPASS",
              "bassOn": false,
              "chordRootUpperLimit": 8,
              "noteLowLimit": 0,
              "noteHighLimit": 127,
              "rtr": "PITCH_SHIFT"
            },
            "ctb2High": null
          },
          "notes": [
            {
              "pitch": 60,
              "velocity": 76,
              "position": 0,
              "duration": 3.4895833333333335
            },
            {
              "pitch": 62,
              "velocity": 76,
              "position": 0,
              "duration": 3.4895833333333335
            },
            {
              "pitch": 64,
              "velocity": 76,
              "position": 0,
              "duration": 3.4895833333333335
            },
            {
              "pitch": 67,
              "velocity": 76,
              "position": 0,
              "duration": 3.4895833333333335
            },
            {
              "pitch": 59,
              "velocity": 76,
              "position": 3.5,
              "duration": 4.489583333333333
            },
            {
              "pitch": 62,
              "velocity": 76,
              "position": 3.5,
              "duration": 4.489583333333333
            },
            {
              "pitch": 64,
              "velocity": 76,
              "position": 3.5,
              "duration": 4.489583333333333
            },
            {
              "pitch": 67,
              "velocity": 76,
              "position": 3.5,
              "duration": 4.489583333333333
            },
            {
              "pitch": 57,
              "velocity": 76,
              "position": 8,
              "duration": 0.23958333333333334
            },
            {
              "pitch": 60,
              "velocity": 76,
              "position": 8,
              "duration": 0.23958333333333334
            },
            {
              "pitch": 65,
              "velocity": 76,
              "position": 8,
              "duration": 0.23958333333333334
            },
            {
              "pitch": 55,
              "velocity": 50,
              "position": 9.5,
              "duration": 2.4895833333333335
            },
            {
              "pitch": 59,
              "velocity": 63,
              "position": 10,
              "duration": 1.9895833333333333
            },
            {
              "pitch": 62,
              "velocity": 77,
              "position": 11,
              "duration": 0.9895833333333334
            },
            {
              "pitch": 59,
              "velocity": 76,
              "position": 12,
              "duration": 3.9895833333333335
            },
            {
              "pitch": 62,
              "velocity": 76,
              "position": 12,
              "duration": 3.9895833333333335
            },
            {
              "pitch": 64,
              "velocity": 76,
              "position": 12,
              "duration": 3.9895833333333335
            },
            {
              "pitch": 67,
              "velocity": 76,
              "position": 12,
              "duration": 3.9895833333333335
            }
          ]
        },
        "14": {
          "ctab": {
            "srcChannel": 14,
            "name": "Brass",
            "accType": "PHRASE1",
            "editable": false,
            "mutedNotes": [],
            "mutedChords": [
              "dim7",
              "dim",
              "minMaj7(9)",
              "minMaj7",
              "min7(11)",
              "min7(9)",
              "min(9)",
              "m7b5",
              "min7",
              "min6",
              "min"
            ],
            "autoStart": false,
            "sourceChordNote": 0,
            "sourceChordType": "Maj7",
            "ctb2Low": null,
            "ctb2Main": {
              "ntr": "ROOT_TRANSPOSITION",
              "ntt": "BYPASS",
              "bassOn": false,
              "chordRootUpperLimit": 6,
              "noteLowLimit": 0,
              "noteHighLimit": 127,
              "rtr": "PITCH_SHIFT"
            },
            "ctb2High": null
          },
          "notes": [
            {
              "pitch": 71,
              "velocity": 114,
              "position": 0.010416666666666666,
              "duration": 0.28125
            },
            {
              "pitch": 72,
              "velocity": 110,
              "position": 0.2916666666666667,
              "duration": 0.14583333333333334
            },
            {
              "pitch": 67,
              "velocity": 112,
              "position": 0.010416666666666666,
              "duration": 0.4375
            },
            {
              "pitch": 67,
              "velocity": 110,
              "position": 0.7916666666666666,
              "duration": 0.14583333333333334
            },
            {
              "pitch": 72,
              "velocity": 110,
              "position": 0.7916666666666666,
              "duration": 0.14583333333333334
            },
            {
              "pitch": 71,
              "velocity": 60,
              "position": 1.5,
              "duration": 0.28125
            },
            {
              "pitch": 67,
              "velocity": 58,
              "position": 1.5,
              "duration": 0.4375
            },
            {
              "pitch": 72,
              "velocity": 56,
              "position": 1.7916666666666667,
              "duration": 0.14583333333333334
            },
            {
              "pitch": 71,
              "velocity": 40,
              "position": 2.5,
              "duration": 0.28125
            },
            {
              "pitch": 67,
              "velocity": 38,
              "position": 2.5,
              "duration": 0.4375
            },
            {
              "pitch": 72,
              "velocity": 36,
              "position": 2.7916666666666665,
              "duration": 0.14583333333333334
            },
            {
              "pitch": 67,
              "velocity": 111,
              "position": 3.5,
              "duration": 0.125
            },
            {
              "pitch": 72,
              "velocity": 116,
              "position": 3.5,
              "duration": 0.13541666666666666
            },
            {
              "pitch": 76,
              "velocity": 114,
              "position": 4,
              "duration": 0.28125
            },
            {
              "pitch": 67,
              "velocity": 112,
              "position": 4,
              "duration": 0.4375
            },
            {
              "pitch": 71,
              "velocity": 110,
              "position": 4.291666666666667,
              "duration": 0.14583333333333334
            },
            {
              "pitch": 67,
              "velocity": 110,
              "position": 4.791666666666667,
              "duration": 0.14583333333333334
            },
            {
              "pitch": 71,
              "velocity": 110,
              "position": 4.791666666666667,
              "duration": 0.14583333333333334
            },
            {
              "pitch": 76,
              "velocity": 68,
              "position": 5,
              "duration": 0.28125
            },
            {
              "pitch": 67,
              "velocity": 66,
              "position": 5,
              "duration": 0.4375
            },
            {
              "pitch": 71,
              "velocity": 64,
              "position": 5.291666666666667,
              "duration": 0.14583333333333334
            },
            {
              "pitch": 67,
              "velocity": 64,
              "position": 5.791666666666667,
              "duration": 0.14583333333333334
            },
            {
              "pitch": 71,
              "velocity": 64,
              "position": 5.791666666666667,
              "duration": 0.14583333333333334
            },
            {
              "pitch": 76,
              "velocity": 44,
              "position": 6,
              "duration": 0.28125
            },
            {
              "pitch": 67,
              "velocity": 42,
              "position": 6,
              "duration": 0.4375
            },
            {
              "pitch": 71,
              "velocity": 40,
              "position": 6.291666666666667,
              "duration": 0.14583333333333334
            },
            {
              "pitch": 67,
              "velocity": 40,
              "position": 6.791666666666667,
              "duration": 0.14583333333333334
            },
            {
              "pitch": 71,
              "velocity": 40,
              "position": 6.791666666666667,
              "duration": 0.14583333333333334
            },
            {
              "pitch": 72,
              "velocity": 110,
              "position": 8,
              "duration": 0.2604166666666667
            },
            {
              "pitch": 65,
              "velocity": 99,
              "position": 8,
              "duration": 0.2708333333333333
            },
            {
              "pitch": 77,
              "velocity": 92,
              "position": 8,
              "duration": 0.2708333333333333
            },
            {
              "pitch": 72,
              "velocity": 99,
              "position": 8.3125,
              "duration": 0.17708333333333334
            },
            {
              "pitch": 65,
              "velocity": 98,
              "position": 8.302083333333334,
              "duration": 0.19791666666666666
            },
            {
              "pitch": 77,
              "velocity": 94,
              "position": 8.3125,
              "duration": 0.1875
            },
            {
              "pitch": 72,
              "velocity": 61,
              "position": 9,
              "duration": 0.2604166666666667
            },
            {
              "pitch": 65,
              "velocity": 50,
              "position": 9,
              "duration": 0.2708333333333333
            },
            {
              "pitch": 77,
              "velocity": 43,
              "position": 9,
              "duration": 0.2708333333333333
            },
            {
              "pitch": 72,
              "velocity": 50,
              "position": 9.3125,
              "duration": 0.17708333333333334
            },
            {
              "pitch": 65,
              "velocity": 49,
              "position": 9.302083333333334,
              "duration": 0.19791666666666666
            },
            {
              "pitch": 77,
              "velocity": 45,
              "position": 9.3125,
              "duration": 0.1875
            },
            {
              "pitch": 74,
              "velocity": 101,
              "position": 10.5,
              "duration": 0.13541666666666666
            },
            {
              "pitch": 79,
              "velocity": 101,
              "position": 10.5,
              "duration": 0.15625
            },
            {
              "pitch": 67,
              "velocity": 101,
              "position": 10.510416666666666,
              "duration": 0.16666666666666666
            },
            {
              "pitch": 67,
              "velocity": 101,
              "position": 11.291666666666666,
              "duration": 0.13541666666666666
            },
            {
              "pitch": 74,
              "velocity": 101,
              "position": 11.291666666666666,
              "duration": 0.13541666666666666
            },
            {
              "pitch": 79,
              "velocity": 101,
              "position": 11.291666666666666,
              "duration": 0.14583333333333334
            },
            {
              "pitch": 72,
              "velocity": 98,
              "position": 12,
              "duration": 3.6875
            },
            {
              "pitch": 67,
              "velocity": 98,
              "position": 12.010416666666666,
              "duration": 3.6875
            }
          ]
        },
        "15": {
          "ctab": {
            "srcChannel": 15,
            "name": "Lead",
            "accType": "PHRASE2",
            "editable": false,
            "mutedNotes": [],
            "mutedChords": [
              "dim7",
              "dim",
              "minMaj7(9)",
              "minMaj7",
              "min7(11)",
              "min7(9)",
              "min(9)",
              "m7b5",
              "min7",
              "min6",
              "min"
            ],
            "autoStart": false,
            "sourceChordNote": 0,
            "sourceChordType": "Maj7",
            "ctb2Low": null,
            "ctb2Main": {
              "ntr": "ROOT_TRANSPOSITION",
              "ntt": "BYPASS",
              "bassOn": false,
              "chordRootUpperLimit": 2,
              "noteLowLimit": 0,
              "noteHighLimit": 127,
              "rtr": "PITCH_SHIFT"
            },
            "ctb2High": null
          },
          "notes": [
            {
              "pitch": 62,
              "velocity": 46,
              "position": 9,
              "duration": 0.4895833333333333
            },
            {
              "pitch": 67,
              "velocity": 46,
              "position": 9.5,
              "duration": 0.9895833333333334
            },
            {
              "pitch": 65,
              "velocity": 46,
              "position": 10.5,
              "duration": 0.4895833333333333
            },
            {
              "pitch": 67,
              "velocity": 46,
              "position": 11,
              "duration": 0.4895833333333333
            },
            {
              "pitch": 71,
              "velocity": 46,
              "position": 11.5,
              "duration": 0.4895833333333333
            },
            {
              "pitch": 67,
              "velocity": 46,
              "position": 12,
              "duration": 3.9895833333333335
            }
          ]
        }
      }
    }
  }
}