{
  "name": "BritRockPop7.T310.STY",
  "tempo": 124,
  "timeSignature": "4/4",
  "ticksPerQuarter": 1920,
  "sffType": "SFF2",
  "division": "BINARY",
  "parts": {
    "Main_A": {
      "type": "Main_A",
      "sizeInBeats": 16,
      "channels": {
        "5": {
          "ctab": {
            "srcChannel": 5,
            "name": "Str rt",
            "accType": "PAD",
            "editable": false,
            "mutedNotes": [],
            "mutedChords": [
              "1+2+5",
              "sus4",
              "1+5",
              "1+8",
              "Maj7aug",
              "dim",
              "minMaj7(9)",
              "minMaj7",
              "min6",
              "min",
              "aug",
              "Maj7(9)",
              "Maj7#11",
              "Maj7",
              "Maj6",
              "Maj"
            ],
            "autoStart": false,
            "sourceChordNote": 0,
            "sourceChordType": "Maj7",
            "ctb2Low": null,
            "ctb2Main": {
              "ntr": "ROOT_TRANSPOSITION",
              "ntt": "MELODY",
              "bassOn": false,
              "chordRootUpperLimit": 2,
              "noteLowLimit": 0,
              "noteHighLimit": 127,
              "rtr": "PITCH_SHIFT"
            },
            "ctb2High": null,
            "ctb2MiddleLowPitch": 0,
            "ctb2MiddleHighPitch": 127
          },
          "notes": [
            {
              "pitch": 60,
              "velocity": 27,
              "position": 0,
              "duration": 15.98125
            }
          ]
        },
        "6": {
          "ctab": {
            "srcChannel": 6,
            "name": "Organ rt",
            "accType": "PHRASE1",
            "editable": false,
            "mutedNotes": [],
            "mutedChords": [
              "1+2+5",
              "sus4",
              "1+5",
              "1+8",
              "Maj7aug",
              "dim",
              "minMaj7(9)",
              "minMaj7",
              "min6",
              "min",
              "aug",
              "Maj7(9)",
              "Maj7#11",
              "Maj7",
              "Maj6",
              "Maj"
            ],
            "autoStart": false,
            "sourceChordNote": 0,
            "sourceChordType": "Maj7",
            "ctb2Low": null,
            "ctb2Main": {
              "ntr": "ROOT_TRANSPOSITION",
              "ntt": "MELODY",
              "bassOn": false,
              "chordRootUpperLimit": 6,
              "noteLowLimit": 0,
              "noteHighLimit": 127,
              "rtr": "PITCH_SHIFT"
            },
            "ctb2High": null,
            "ctb2MiddleLowPitch": 0,
            "ctb2MiddleHighPitch": 127
          },
          "notes": [
            {
              "pitch": 60,
              "velocity": 40,
              "position": 0.010416666666666666,
              "duration": 15.970833333333333
            }
          ]
        },
        "9": {
          "ctab": {
            "srcChannel": 9,
            "name": "MainDrum",
            "accType": "RHYTHM",
            "editable": false,
            "mutedNotes": [],
            "mutedChords": [],
            "autoStart": true,
            "sourceChordNote": 0,
            "sourceChordType": "Maj7",
            "ctb2Low": null,
            "ctb2Main": {
              "ntr": "ROOT_FIXED",
              "ntt": "BYPASS",
              "bassOn": false,
              "chordRootUpperLimit": 6,
              "noteLowLimit": 0,
              "noteHighLimit": 127,
              "rtr": "PITCH_SHIFT"
            },
            "ctb2High": null,
            "ctb2MiddleLowPitch": 0,
            "ctb2MiddleHighPitch": 127
          },
          "notes": [
            {
              "pitch": 38,
              "velocity": 77,
              "position": 0,
              "duration": 0.00625
            },
            {
              "pitch": 42,
              "velocity": 48,
              "position": 0,
              "duration": 0.00625
            },
            {
              "pitch": 33,
              "velocity": 32,
              "position": 0.5,
              "duration": 0.00625
            },
            {
              "pitch": 42,
              "velocity": 19,
              "position": 0.5,
              "duration": 0.00625
            },
            {
              "pitch": 33,
              "velocity": 64,
              "position": 1,
              "duration": 0.00625
            },
            {
              "pitch": 42,
              "velocity": 48,
              "position": 1,
              "duration": 0.00625
            },
            {
              "pitch": 38,
              "velocity": 71,
              "position": 1.5,
              "duration": 0.00625
            },
            {
              "pitch": 42,
              "velocity": 19,
              "position": 1.5,
              "duration": 0.00625
            },
            {
              "pitch": 33,
              "velocity": 32,
              "position": 2,
              "duration": 0.00625
            },
            {
              "pitch": 42,
              "velocity": 19,
              "position": 2,
              "duration": 0.00625
            },
            {
              "pitch": 33,
              "velocity": 56,
              "position": 2.5,
              "duration": 0.00625
            },
            {
              "pitch": 42,
              "velocity": 48,
              "position": 2.5,
              "duration": 0.00625
            },
            {
              "pitch": 38,
              "velocity": 77,
              "position": 3,
              "duration": 0.00625
            },
            {
              "pitch": 42,
              "velocity": 19,
              "position": 3,
              "duration": 0.00625
            },
            {
              "pitch": 33,
              "velocity": 50,
              "position": 3.5,
              "duration": 0.00625
            },
            {
              "pitch": 42,
              "velocity": 19,
              "position": 3.5,
              "duration": 0.00625
            },
            {
              "pitch": 38,
              "velocity": 77,
              "position": 4,
              "duration": 0.00625
            },
            {
              "pitch": 42,
              "velocity": 48,
              "position": 4,
              "duration": 0.00625
            },
            {
              "pitch": 33,
              "velocity": 32,
              "position": 4.5,
              "duration": 0.00625
            },
            {
              "pitch": 42,
              "velocity": 19,
              "position": 4.5,
              "duration": 0.00625
            },
            {
              "pitch": 33,
              "velocity": 64,
              "position": 5,
              "duration": 0.00625
            },
            {
              "pitch": 42,
              "velocity": 48,
              "position": 5,
              "duration": 0.00625
            },
            {
              "pitch": 38,
              "velocity": 70,
              "position": 5.5,
              "duration": 0.00625
            },
            {
              "pitch": 42,
              "velocity": 19,
              "position": 5.5,
              "duration": 0.00625
            },
            {
              "pitch": 33,
              "velocity": 32,
              "position": 6,
              "duration": 0.00625
            },
            {
              "pitch": 42,
              "velocity": 19,
              "position": 6,
              "duration": 0.00625
            },
            {
              "pitch": 33,
              "velocity": 51,
              "position": 6.5,
              "duration": 0.00625
            },
            {
              "pitch": 42,
              "velocity": 48,
              "position": 6.5,
              "duration": 0.00625
            },
            {
              "pitch": 38,
              "velocity": 77,
              "position": 7,
              "duration": 0.00625
            },
            {
              "pitch": 42,
              "velocity": 19,
              "position": 7,
              "duration": 0.00625
            },
            {
              "pitch": 33,
              "velocity": 53,
              "position": 7.5,
              "duration": 0.00625
            },
            {
              "pitch": 42,
              "velocity": 19,
              "position": 7.5,
              "duration": 0.00625
            },
            {
              "pitch": 38,
              "velocity": 77,
              "position": 8,
              "duration": 0.00625
            },
            {
              "pitch": 42,
              "velocity": 48,
              "position": 8,
              "duration": 0.00625
            },
            {
              "pitch": 33,
              "velocity": 32,
              "position": 8.5,
              "duration": 0.00625
            },
            {
              "pitch": 42,
              "velocity": 19,
              "position": 8.5,
              "duration": 0.00625
            },
            {
              "pitch": 33,
              "velocity": 64,
              "position": 9,
              "duration": 0.00625
            },
            {
              "pitch": 42,
              "velocity": 48,
              "position": 9,
              "duration": 0.00625
            },
            {
              "pitch": 38,
              "velocity": 70,
              "position": 9.5,
              "duration": 0.00625
            },
            {
              "pitch": 42,
              "velocity": 19,
              "position": 9.5,
              "duration": 0.00625
            },
            {
              "pitch": 33,
              "velocity": 32,
              "position": 10,
              "duration": 0.00625
            },
            {
              "pitch": 42,
              "velocity": 19,
              "position": 10,
              "duration": 0.00625
            },
            {
              "pitch": 33,
              "velocity": 56,
              "position": 10.5,
              "duration": 0.00625
            },
            {
              "pitch": 42,
              "velocity": 48,
              "position": 10.5,
              "duration": 0.00625
            },
            {
              "pitch": 38,
              "velocity": 77,
              "position": 11,
              "duration": 0.00625
            },
            {
              "pitch": 42,
              "velocity": 19,
              "position": 11,
              "duration": 0.00625
            },
            {
              "pitch": 33,
              "velocity": 50,
              "position": 11.5,
              "duration": 0.00625
            },
            {
              "pitch": 42,
              "velocity": 19,
              "position": 11.5,
              "duration": 0.00625
            },
            {
              "pitch": 38,
              "velocity": 77,
              "position": 12,
              "duration": 0.00625
            },
            {
              "pitch": 42,
              "velocity": 48,
              "position": 12,
              "duration": 0.00625
            },
            {
              "pitch": 33,
              "velocity": 32,
              "position": 12.5,
              "duration": 0.00625
            },
            {
              "pitch": 42,
              "velocity": 19,
              "position": 12.5,
              "duration": 0.00625
            },
            {
              "pitch": 33,
              "velocity": 64,
              "position": 13,
              "duration": 0.00625
            },
            {
              "pitch": 42,
              "velocity": 48,
              "position": 13,
              "duration": 0.00625
            },
            {
              "pitch": 38,
              "velocity": 71,
              "position": 13.5,
              "duration": 0.00625
            },
            {
              "pitch": 42,
              "velocity": 19,
              "position": 13.5,
              "duration": 0.00625
            },
            {
              "pitch": 33,
              "velocity": 32,
              "position": 14,
              "duration": 0.00625
            },
            {
              "pitch": 42,
              "velocity": 19,
              "position": 14,
              "duration": 0.00625
            },
            {
              "pitch": 33,
              "velocity": 51,
              "position": 14.5,
              "duration": 0.00625
            },
            {
              "pitch": 42,
              "velocity": 48,
              "position": 14.5,
              "duration": 0.00625
            },
            {
              "pitch": 38,
              "velocity": 77,
              "position": 15,
              "duration": 0.00625
            },
            {
              "pitch": 42,
              "velocity": 19,
              "position": 15,
              "duration": 0.00625
            },
            {
              "pitch": 33,
              "velocity": 39,
              "position": 15.5,
              "duration": 0.00625
            },
            {
              "pitch": 42,
              "velocity": 19,
              "position": 15.5,
              "duration": 0.00625
            }
          ]
        },
        "10": {
          "ctab": {
            "srcChannel": 10,
            "name": "Bass",
            "accType": "BASS",
            "editable": false,
            "mutedNotes": [],
            "mutedChords": [],
            "autoStart": false,
            "sourceChordNote": 0,
            "sourceChordType": "Maj7",
            "ctb2Low": null,
            "ctb2Main": {
              "ntr": "ROOT_TRANSPOSITION",
              "ntt": "MELODY",
              "bassOn": true,
              "chordRootUpperLimit": 8,
              "noteLowLimit": 28,
              "noteHighLimit": 127,
              "rtr": "PITCH_SHIFT_TO_ROOT"
            },
            "ctb2High": {
              "ntr": "ROOT_FIXED",
              "ntt": "BYPASS",
              "bassOn": false,
              "chordRootUpperLimit": 8,
              "noteLowLimit": 28,
              "noteHighLimit": 127,
              "rtr": "PITCH_SHIFT"
            },
            "ctb2MiddleLowPitch": 0,
            "ctb2MiddleHighPitch": 95
          },
          "notes": [
            {
              "pitch": 24,
              "velocity": 64,
              "position": 0,
              "duration": 0.36666666666666664
            },
            {
              "pitch": 24,
              "velocity": 51,
              "position": 0.5,
              "duration": 0.36666666666666664
            },
            {
              "pitch": 24,
              "velocity": 51,
              "position": 1,
              "duration": 0.36666666666666664
            },
            {
              "pitch": 24,
              "velocity": 55,
              "position": 1.5,
              "duration": 0.48125
            },
            {
              "pitch": 24,
              "velocity": 51,
              "position": 2,
              "duration": 0.36666666666666664
            },
            {
              "pitch": 24,
              "velocity": 51,
              "position": 2.5,
              "duration": 0.36666666666666664
            },
            {
              "pitch": 24,
              "velocity": 62,
              "position": 3,
              "duration": 0.48125
            },
            {
              "pitch": 24,
              "velocity": 51,
              "position": 3.5,
              "duration": 0.36666666666666664
            },
            {
              "pitch": 24,
              "velocity": 64,
              "position": 4,
              "duration": 0.36666666666666664
            },
            {
              "pitch": 24,
              "velocity": 51,
              "position": 4.5,
              "duration": 0.36666666666666664
            },
            {
              "pitch": 24,
              "velocity": 51,
              "position": 5,
              "duration": 0.36666666666666664
            },
            {
              "pitch": 24,
              "velocity": 55,
              "position": 5.5,
              "duration": 0.48125
            },
            {
              "pitch": 24,
              "velocity": 51,
              "position": 6,
              "duration": 0.36666666666666664
            },
            {
              "pitch": 24,
              "velocity": 51,
              "position": 6.5,
              "duration": 0.36666666666666664
            },
            {
              "pitch": 24,
              "velocity": 62,
              "position": 7,
              "duration": 0.48125
            },
            {
              "pitch": 24,
              "velocity": 51,
              "position": 7.5,
              "duration": 0.23125
            },
            {
              "pitch": 24,
              "velocity": 52,
              "position": 7.75,
              "duration": 0.23125
            },
            {
              "pitch": 24,
              "velocity": 64,
              "position": 8,
              "duration": 0.36666666666666664
            },
            {
              "pitch": 24,
              "velocity": 51,
              "position": 8.5,
              "duration": 0.36666666666666664
            },
            {
              "pitch": 24,
              "velocity": 51,
              "position": 9,
              "duration": 0.36666666666666664
            },
            {
              "pitch": 24,
              "velocity": 55,
              "position": 9.5,
              "duration": 0.48125
            },
            {
              "pitch": 24,
              "velocity": 51,
              "position": 10,
              "duration": 0.36666666666666664
            },
            {
              "pitch": 24,
              "velocity": 51,
              "position": 10.5,
              "duration": 0.36666666666666664
            },
            {
              "pitch": 24,
              "velocity": 62,
              "position": 11,
              "duration": 0.36666666666666664
            },
            {
              "pitch": 24,
              "velocity": 51,
              "position": 11.5,
              "duration": 0.36666666666666664
            },
            {
              "pitch": 24,
              "velocity": 64,
              "position": 12,
              "duration": 0.36666666666666664
            },
            {
              "pitch": 24,
              "velocity": 51,
              "position": 12.5,
              "duration": 0.36666666666666664
            },
            {
              "pitch": 24,
              "velocity": 51,
              "position": 13,
              "duration": 0.36666666666666664
            },
            {
              "pitch": 24,
              "velocity": 55,
              "position": 13.5,
              "duration": 0.48125
            },
            {
              "pitch": 24,
              "velocity": 51,
              "position": 14,
              "duration": 0.36666666666666664
            },
            {
              "pitch": 24,
              "velocity": 51,
              "position": 14.5,
              "duration": 0.36666666666666664
            },
            {
              "pitch": 24,
              "velocity": 62,
              "position": 15,
              "duration": 0.36666666666666664
            },
            {
              "pitch": 24,
              "velocity": 51,
              "position": 15.5,
              "duration": 0.23125
            },
            {
              "pitch": 24,
              "velocity": 52,
              "position": 15.75,
              "duration": 0.23125
            }
          ]
        },
        "11": {
          "ctab": {
            "srcChannel": 11,
            "name": "Guitar1",
            "accType": "CHORD1",
            "editable": false,
            "mutedNotes": [],
            "mutedChords": [],
            "autoStart": false,
            "sourceChordNote": 0,
            "sourceChordType": "Maj7",
            "ctb2Low": null,
            "ctb2Main": {
              "ntr": "ROOT_TRANSPOSITION",
              "ntt": "MELODY",
              "bassOn": true,
              "chordRootUpperLimit": 8,
              "noteLowLimit": 40,
              "noteHighLimit": 127,
              "rtr": "PITCH_SHIFT_TO_ROOT"
            },
            "ctb2High": null,
            "ctb2MiddleLowPitch": 0,
            "ctb2MiddleHighPitch": 127
          },
          "notes": [
            {
              "pitch": 48,
              "velocity": 82,
              "position": 0.010416666666666666,
              "duration": 0.47291666666666665
            },
            {
              "pitch": 48,
              "velocity": 81,
              "position": 0.4979166666666667,
              "duration": 0.4791666666666667
            },
            {
              "pitch": 48,
              "velocity": 81,
              "position": 0.9895833333333334,
              "duration": 0.4791666666666667
            },
            {
              "pitch": 48,
              "velocity": 81,
              "position": 1.49375,
              "duration": 0.4791666666666667
            },
            {
              "pitch": 48,
              "velocity": 81,
              "position": 2.00625,
              "duration": 0.47291666666666665
            },
            {
              "pitch": 48,
              "velocity": 81,
              "position": 2.4895833333333335,
              "duration": 0.4791666666666667
            },
            {
              "pitch": 48,
              "velocity": 81,
              "position": 3.002083333333333,
              "duration": 0.4791666666666667
            },
            {
              "pitch": 48,
              "velocity": 81,
              "position": 3.4916666666666667,
              "duration": 0.4791666666666667
            },
            {
              "pitch": 48,
              "velocity": 81,
              "position": 3.9916666666666667,
              "duration": 0.4791666666666667
            },
            {
              "pitch": 48,
              "velocity": 81,
              "position": 4.502083333333333,
              "duration": 0.4791666666666667
            },
            {
              "pitch": 48,
              "velocity": 81,
              "position": 4.997916666666667,
              "duration": 0.4791666666666667
            },
            {
              "pitch": 48,
              "velocity": 81,
              "position": 5.495833333333334,
              "duration": 0.4791666666666667
            },
            {
              "pitch": 48,
              "velocity": 81,
              "position": 6,
              "duration": 0.4791666666666667
            },
            {
              "pitch": 48,
              "velocity": 81,
              "position": 6.497916666666667,
              "duration": 0.4791666666666667
            },
            {
              "pitch": 48,
              "velocity": 81,
              "position": 7.008333333333334,
              "duration": 0.4791666666666667
            },
            {
              "pitch": 48,
              "velocity": 81,
              "position": 7.508333333333334,
              "duration": 0.4791666666666667
            },
            {
              "pitch": 48,
              "velocity": 81,
              "position": 8.01875,
              "duration": 0.4666666666666667
            },
            {
              "pitch": 48,
              "velocity": 81,
              "position": 8.495833333333334,
              "duration": 0.4791666666666667
            },
            {
              "pitch": 48,
              "velocity": 81,
              "position": 9,
              "duration": 0.4791666666666667
            },
            {
              "pitch": 48,
              "velocity": 81,
              "position": 9.50625,
              "duration": 0.4791666666666667
            },
            {
              "pitch": 48,
              "velocity": 81,
              "position": 10.008333333333333,
              "duration": 0.4791666666666667
            },
            {
              "pitch": 48,
              "velocity": 81,
              "position": 10.502083333333333,
              "duration": 0.4791666666666667
            },
            {
              "pitch": 48,
              "velocity": 81,
              "position": 11.008333333333333,
              "duration": 0.4791666666666667
            },
            {
              "pitch": 48,
              "velocity": 81,
              "position": 11.497916666666667,
              "duration": 0.4791666666666667
            },
            {
              "pitch": 48,
              "velocity": 81,
              "position": 12.008333333333333,
              "duration": 0.47708333333333336
            },
            {
              "pitch": 48,
              "velocity": 81,
              "position": 12.495833333333334,
              "duration": 0.4791666666666667
            },
            {
              "pitch": 48,
              "velocity": 81,
              "position": 13.002083333333333,
              "duration": 0.4791666666666667
            },
            {
              "pitch": 48,
              "velocity": 81,
              "position": 13.504166666666666,
              "duration": 0.4791666666666667
            },
            {
              "pitch": 48,
              "velocity": 81,
              "position": 14,
              "duration": 0.4791666666666667
            },
            {
              "pitch": 48,
              "velocity": 81,
              "position": 14.502083333333333,
              "duration": 0.4791666666666667
            },
            {
              "pitch": 48,
              "velocity": 81,
              "position": 14.997916666666667,
              "duration": 0.4791666666666667
            },
            {
              "pitch": 48,
              "velocity": 81,
              "position": 15.5,
              "duration": 0.48125
            }
          ]
        },
        "12": {
          "ctab": {
            "srcChannel": 12,
            "name": "Piano",
            "accType": "CHORD2",
            "editable": false,
            "mutedNotes": [],
            "mutedChords": [],
            "autoStart": false,
            "sourceChordNote": 0,
            "sourceChordType": "Maj7",
            "ctb2Low": null,
            "ctb2Main": {
              "ntr": "ROOT_FIXED",
              "ntt": "CHORD",
              "bassOn": false,
              "chordRootUpperLimit": 7,
              "noteLowLimit": 0,
              "noteHighLimit": 127,
              "rtr": "PITCH_SHIFT"
            },
            "ctb2High": null,
            "ctb2MiddleLowPitch": 0,
            "ctb2MiddleHighPitch": 127
          },
          "notes": [
            {
              "pitch": 64,
              "velocity": 76,
              "position": 0.0020833333333333333,
              "duration": 1.48125
            },
            {
              "pitch": 76,
              "velocity": 76,
              "position": 0.0020833333333333333,
              "duration": 1.48125
            },
            {
              "pitch": 59,
              "velocity": 55,
              "position": 0.5,
              "duration": 1.48125
            },
            {
              "pitch": 71,
              "velocity": 61,
              "position": 0.5,
              "duration": 1.48125
            },
            {
              "pitch": 55,
              "velocity": 63,
              "position": 1,
              "duration": 1.48125
            },
            {
              "pitch": 67,
              "velocity": 74,
              "position": 1,
              "duration": 1.48125
            },
            {
              "pitch": 64,
              "velocity": 60,
              "position": 1.5,
              "duration": 1.48125
            },
            {
              "pitch": 76,
              "velocity": 76,
              "position": 1.5,
              "duration": 1.48125
            },
            {
              "pitch": 59,
              "velocity": 53,
              "position": 2,
              "duration": 1.48125
            },
            {
              "pitch": 71,
              "velocity": 65,
              "position": 2,
              "duration": 1.48125
            },
            {
              "pitch": 64,
              "velocity": 62,
              "position": 3,
              "duration": 0.98125
            },
            {
              "pitch": 76,
              "velocity": 76,
              "position": 3,
              "duration": 0.98125
            },
            {
              "pitch": 59,
              "velocity": 53,
              "position": 3.5,
              "duration": 0.98125
            },
            {
              "pitch": 71,
              "velocity": 67,
              "position": 3.5,
              "duration": 0.98125
            },
            {
              "pitch": 55,
              "velocity": 60,
              "position": 2.5,
              "duration": 2.48125
            },
            {
              "pitch": 67,
              "velocity": 67,
              "position": 2.5,
              "duration": 2.48125
            },
            {
              "pitch": 64,
              "velocity": 76,
              "position": 4,
              "duration": 1.48125
            },
            {
              "pitch": 76,
              "velocity": 76,
              "position": 4,
              "duration": 1.48125
            },
            {
              "pitch": 59,
              "velocity": 63,
              "position": 4.5,
              "duration": 1.48125
            },
            {
              "pitch": 71,
              "velocity": 70,
              "position": 4.5,
              "duration": 1.48125
            },
            {
              "pitch": 55,
              "velocity": 57,
              "position": 5,
              "duration": 1.48125
            },
            {
              "pitch": 67,
              "velocity": 65,
              "position": 5,
              "duration": 1.48125
            },
            {
              "pitch": 64,
              "velocity": 63,
              "position": 5.5,
              "duration": 1.48125
            },
            {
              "pitch": 76,
              "velocity": 76,
              "position": 5.5,
              "duration": 1.48125
            },
            {
              "pitch": 59,
              "velocity": 56,
              "position": 6,
              "duration": 1.48125
            },
            {
              "pitch": 71,
              "velocity": 65,
              "position": 6,
              "duration": 1.48125
            },
            {
              "pitch": 64,
              "velocity": 57,
              "position": 7,
              "duration": 0.9916666666666667
            },
            {
              "pitch": 76,
              "velocity": 76,
              "position": 7,
              "duration": 0.9916666666666667
            },
            {
              "pitch": 59,
              "velocity": 53,
              "position": 7.5,
              "duration": 0.98125
            },
            {
              "pitch": 71,
              "velocity": 67,
              "position": 7.5,
              "duration": 0.98125
            },
            {
              "pitch": 55,
              "velocity": 61,
              "position": 6.5,
              "duration": 2.48125
            },
            {
              "pitch": 67,
              "velocity": 67,
              "position": 6.5,
              "duration": 2.48125
            },
            {
              "pitch": 64,
              "velocity": 76,
              "position": 8,
              "duration": 1.48125
            },
            {
              "pitch": 76,
              "velocity": 76,
              "position": 8,
              "duration": 1.48125
            },
            {
              "pitch": 59,
              "velocity": 55,
              "position": 8.5,
              "duration": 1.48125
            },
            {
              "pitch": 71,
              "velocity": 61,
              "position": 8.5,
              "duration": 1.48125
            },
            {
              "pitch": 55,
              "velocity": 63,
              "position": 9,
              "duration": 1.48125
            },
            {
              "pitch": 67,
              "velocity": 74,
              "position": 9,
              "duration": 1.48125
            },
            {
              "pitch": 64,
              "velocity": 60,
              "position": 9.5,
              "duration": 1.48125
            },
            {
              "pitch": 76,
              "velocity": 76,
              "position": 9.5,
              "duration": 1.48125
            },
            {
              "pitch": 59,
              "velocity": 53,
              "position": 10,
              "duration": 1.48125
            },
            {
              "pitch": 71,
              "velocity": 65,
              "position": 10,
              "duration": 1.48125
            },
            {
              "pitch": 64,
              "velocity": 62,
              "position": 11,
              "duration": 0.98125
            },
            {
              "pitch": 76,
              "velocity": 76,
              "position": 11,
              "duration": 0.98125
            },
            {
              "pitch": 59,
              "velocity": 53,
              "position": 11.5,
              "duration": 0.98125
            },
            {
              "pitch": 71,
              "velocity": 67,
              "position": 11.5,
              "duration": 0.98125
            },
            {
              "pitch": 55,
              "velocity": 60,
              "position": 10.5,
              "duration": 2.48125
            },
            {
              "pitch": 67,
              "velocity": 67,
              "position": 10.5,
              "duration": 2.48125
            },
            {
              "pitch": 64,
              "velocity": 76,
              "position": 12,
              "duration": 1.48125
            },
            {
              "pitch": 76,
              "velocity": 76,
              "position": 12,
              "duration": 1.48125
            },
            {
              "pitch": 59,
              "velocity": 63,
              "position": 12.5,
              "duration": 1.48125
            },
            {
              "pitch": 71,
              "velocity": 70,
              "position": 12.5,
              "duration": 1.48125
            },
            {
              "pitch": 55,
              "velocity": 57,
              "position": 13,
              "duration": 1.48125
            },
            {
              "pitch": 67,
              "velocity": 65,
              "position": 13,
              "duration": 1.48125
            },
            {
              "pitch": 64,
              "velocity": 63,
              "position": 13.5,
              "duration": 1.48125
            },
            {
              "pitch": 76,
              "velocity": 76,
              "position": 13.5,
              "duration": 1.48125
            },
            {
              "pitch": 59,
              "velocity": 56,
              "position": 14,
              "duration": 1.48125
            },
            {
              "pitch": 71,
              "velocity": 65,
              "position": 14,
              "duration": 1.48125
            },
            {
              "pitch": 55,
              "velocity": 61,
              "position": 14.5,
              "duration": 1.4916666666666667
            },
            {
              "pitch": 59,
              "velocity": 53,
              "position": 15.5,
              "duration": 0.49166666666666664
            },
            {
              "pitch": 64,
              "velocity": 57,
              "position": 15,
              "duration": 0.9916666666666667
            },
            {
              "pitch": 67,
              "velocity": 67,
              "position": 14.5,
              "duration": 1.4916666666666667
            },
            {
              "pitch": 71,
              "velocity": 61,
              "position": 15.5,
              "duration": 0.49166666666666664
            },
            {
              "pitch": 76,
              "velocity": 76,
              "position": 15,
              "duration": 0.9916666666666667
            }
          ]
        },
        "13": {
          "ctab": {
            "srcChannel": 13,
            "name": "Strings",
            "accType": "PAD",
            "editable": false,
            "mutedNotes": [],
            "mutedChords": [],
            "autoStart": false,
            "sourceChordNote": 0,
            "sourceChordType": "Maj7",
            "ctb2Low": null,
            "ctb2Main": {
              "ntr": "ROOT_FIXED",
              "ntt": "CHORD",
              "bassOn": false,
              "chordRootUpperLimit": 7,
              "noteLowLimit": 0,
              "noteHighLimit": 127,
              "rtr": "PITCH_SHIFT"
            },
            "ctb2High": null,
            "ctb2MiddleLowPitch": 0,
            "ctb2MiddleHighPitch": 127
          },
          "notes": [
            {
              "pitch": 52,
              "velocity": 27,
              "position": 0,
              "duration": 15.98125
            },
            {
              "pitch": 55,
              "velocity": 27,
              "position": 0,
              "duration": 15.98125
            },
            {
              "pitch": 59,
              "velocity": 27,
              "position": 0,
              "duration": 15.98125
            }
          ]
        },
        "14": {
          "ctab": {
            "srcChannel": 14,
            "name": "Organ",
            "accType": "PHRASE1",
            "editable": false,
            "mutedNotes": [],
            "mutedChords": [],
            "autoStart": false,
            "sourceChordNote": 0,
            "sourceChordType": "Maj7",
            "ctb2Low": null,
            "ctb2Main": {
              "ntr": "ROOT_FIXED",
              "ntt": "CHORD",
              "bassOn": false,
              "chordRootUpperLimit": 7,
              "noteLowLimit": 0,
              "noteHighLimit": 127,
              "rtr": "PITCH_SHIFT"
            },
            "ctb2High": null,
            "ctb2MiddleLowPitch": 0,
            "ctb2MiddleHighPitch": 127
          },
          "notes": [
            {
              "pitch": 55,
              "velocity": 40,
              "position": 0.010416666666666666,
              "duration": 15.970833333333333
            },
            {
              "pitch": 59,
              "velocity": 40,
              "position": 0.010416666666666666,
              "duration": 15.970833333333333
            },
            {
              "pitch": 64,
              "velocity": 40,
              "position": 0.010416666666666666,
              "duration": 15.970833333333333
            }
          ]
        },
        "15": {
          "ctab": {
            "srcChannel": 15,
            "name": "Guitar2",
            "accType": "PHRASE2",
            "editable": false,
            "mutedNotes": [],
            "mutedChords": [],
            "autoStart": false,
            "sourceChordNote": 0,
            "sourceChordType": "Maj7",
            "ctb2Low": null,
            "ctb2Main": {
              "ntr": "ROOT_TRANSPOSITION",
              "ntt": "MELODY",
              "bassOn": true,
              "chordRootUpperLimit": 8,
              "noteLowLimit": 40,
              "noteHighLimit": 127,
              "rtr": "PITCH_SHIFT_TO_ROOT"
            },
            "ctb2High": {
              "ntr": "ROOT_FIXED",
              "ntt": "BYPASS",
              "bassOn": false,
              "chordRootUpperLimit": 7,
              "noteLowLimit": 0,
              "noteHighLimit": 127,
              "rtr": "PITCH_SHIFT"
            },
            "ctb2MiddleLowPitch": 0,
            "ctb2MiddleHighPitch": 95
          },
          "notes": [
            {
              "pitch": 111,
              "velocity": 80,
              "position": 0.010416666666666666,
              "duration": 0.2
            },
            {
              "pitch": 48,
              "velocity": 87,
              "position": 0.010416666666666666,
              "duration": 0.4083333333333333
            },
            {
              "pitch": 111,
              "velocity": 71,
              "position": 0.5,
              "duration": 0.2
            },
            {
              "pitch": 48,
              "velocity": 78,
              "position": 0.5,
              "duration": 0.4083333333333333
            },
            {
              "pitch": 111,
              "velocity": 71,
              "position": 1,
              "duration": 0.2
            },
            {
              "pitch": 48,
              "velocity": 78,
              "position": 1,
              "duration": 0.4083333333333333
            },
            {
              "pitch": 111,
              "velocity": 80,
              "position": 1.5,
              "duration": 0.2
            },
            {
              "pitch": 48,
              "velocity": 87,
              "position": 1.5,
              "duration": 0.4083333333333333
            },
            {
              "pitch": 111,
              "velocity": 70,
              "position": 2,
              "duration": 0.2
            },
            {
              "pitch": 48,
              "velocity": 77,
              "position": 2,
              "duration": 0.4083333333333333
            },
            {
              "pitch": 111,
              "velocity": 70,
              "position": 2.5,
              "duration": 0.2
            },
            {
              "pitch": 48,
              "velocity": 77,
              "position": 2.5,
              "duration": 0.4083333333333333
            },
            {
              "pitch": 111,
              "velocity": 80,
              "position": 3,
              "duration": 0.2
            },
            {
              "pitch": 48,
              "velocity": 87,
              "position": 3,
              "duration": 0.4083333333333333
            },
            {
              "pitch": 111,
              "velocity": 73,
              "position": 3.5,
              "duration": 0.2
            },
            {
              "pitch": 48,
              "velocity": 80,
              "position": 3.5,
              "duration": 0.4083333333333333
            },
            {
              "pitch": 111,
              "velocity": 80,
              "position": 4,
              "duration": 0.2
            },
            {
              "pitch": 48,
              "velocity": 87,
              "position": 4,
              "duration": 0.4083333333333333
            },
            {
              "pitch": 111,
              "velocity": 71,
              "position": 4.5,
              "duration": 0.2
            },
            {
              "pitch": 48,
              "velocity": 78,
              "position": 4.5,
              "duration": 0.4083333333333333
            },
            {
              "pitch": 111,
              "velocity": 71,
              "position": 5,
              "duration": 0.2
            },
            {
              "pitch": 48,
              "velocity": 78,
              "position": 5,
              "duration": 0.4083333333333333
            },
            {
              "pitch": 111,
              "velocity": 80,
              "position": 5.5,
              "duration": 0.2
            },
            {
              "pitch": 48,
              "velocity": 87,
              "position": 5.5,
              "duration": 0.4083333333333333
            },
            {
              "pitch": 111,
              "velocity": 70,
              "position": 6,
              "duration": 0.2
            },
            {
              "pitch": 48,
              "velocity": 77,
              "position": 6,
              "duration": 0.4083333333333333
            },
            {
              "pitch": 111,
              "velocity": 70,
              "position": 6.5,
              "duration": 0.2
            },
            {
              "pitch": 48,
              "velocity": 77,
              "position": 6.5,
              "duration": 0.4083333333333333
            },
            {
              "pitch": 111,
              "velocity": 80,
              "position": 7,
              "duration": 0.2
            },
            {
              "pitch": 48,
              "velocity": 87,
              "position": 7,
              "duration": 0.4083333333333333
            },
            {
              "pitch": 111,
              "velocity": 73,
              "position": 7.5,
              "duration": 0.2
            },
            {
              "pitch": 48,
              "velocity": 80,
              "position": 7.5,
              "duration": 0.4083333333333333
            },
            {
              "pitch": 111,
              "velocity": 80,
              "position": 8,
              "duration": 0.2
            },
            {
              "pitch": 48,
              "velocity": 87,
              "position": 8,
              "duration": 0.4083333333333333
            },
            {
              "pitch": 111,
              "velocity": 71,
              "position": 8.5,
              "duration": 0.2
            },
            {
              "pitch": 48,
              "velocity": 78,
              "position": 8.5,
              "duration": 0.4083333333333333
            },
            {
              "pitch": 111,
              "velocity": 71,
              "position": 9,
              "duration": 0.2
            },
            {
              "pitch": 48,
              "velocity": 78,
              "position": 9,
              "duration": 0.4083333333333333
            },
            {
              "pitch": 111,
              "velocity": 80,
              "position": 9.5,
              "duration": 0.2
            },
            {
              "pitch": 48,
              "velocity": 87,
              "position": 9.5,
              "duration": 0.4083333333333333
            },
            {
              "pitch": 111,
              "velocity": 70,
              "position": 10,
              "duration": 0.2
            },
            {
              "pitch": 48,
              "velocity": 77,
              "position": 10,
              "duration": 0.4083333333333333
            },
            {
              "pitch": 111,
              "velocity": 70,
              "position": 10.5,
              "duration": 0.2
            },
            {
              "pitch": 48,
              "velocity": 77,
              "position": 10.5,
              "duration": 0.4083333333333333
            },
            {
              "pitch": 111,
              "velocity": 80,
              "position": 11,
              "duration": 0.2
            },
            {
              "pitch": 48,
              "velocity": 87,
              "position": 11,
              "duration": 0.4083333333333333
            },
            {
              "pitch": 111,
              "velocity": 73,
              "position": 11.5,
              "duration": 0.2
            },
            {
              "pitch": 48,
              "velocity": 80,
              "position": 11.5,
              "duration": 0.4083333333333333
            },
            {
              "pitch": 111,
              "velocity": 80,
              "position": 12,
              "duration": 0.2
            },
            {
              "pitch": 48,
              "velocity": 87,
              "position": 12,
              "duration": 0.4083333333333333
            },
            {
              "pitch": 111,
              "velocity": 71,
              "position": 12.5,
              "duration": 0.2
            },
            {
              "pitch": 48,
              "velocity": 78,
              "position": 12.5,
              "duration": 0.4083333333333333
            },
            {
              "pitch": 111,
              "velocity": 71,
              "position": 13,
              "duration": 0.2
            },
            {
              "pitch": 48,
              "velocity": 78,
              "position": 13,
              "duration": 0.4083333333333333
            },
            {
              "pitch": 111,
              "velocity": 80,
              "position": 13.5,
              "duration": 0.2
            },
            {
              "pitch": 48,
              "velocity": 87,
              "position": 13.5,
              "duration": 0.4083333333333333
            },
            {
              "pitch": 111,
              "velocity": 70,
              "position": 14,
              "duration": 0.2
            },
            {
              "pitch": 48,
              "velocity": 77,
              "position": 14,
              "duration": 0.4083333333333333
            },
            {
              "pitch": 111,
              "velocity": 70,
              "position": 14.5,
              "duration": 0.2
            },
            {
              "pitch": 48,
              "velocity": 77,
              "position": 14.5,
              "duration": 0.4083333333333333
            },
            {
              "pitch": 111,
              "velocity": 80,
              "position": 15,
              "duration": 0.2
            },
            {
              "pitch": 48,
              "velocity": 87,
              "position": 15,
              "duration": 0.4083333333333333
            },
            {
              "pitch": 111,
              "velocity": 73,
              "position": 15.5,
              "duration": 0.2
            },
            {
              "pitch": 48,
              "velocity": 80,
              "position": 15.5,
              "duration": 0.4083333333333333
            }
          ]
        }
      }
    },
    "Fill_In_AA": {
      "type": "Fill_In_AA",
      "sizeInBeats": 4,
      "channels": {
        "5": {
          "ctab": {
            "srcChannel": 5,
            "name": "Str rt",
            "accType": "PAD",
            "editable": false,
            "mutedNotes": [],
            "mutedChords": [
              "1+2+5",
              "sus4",
              "1+5",
              "1+8",
              "Maj7aug",
              "dim",
              "minMaj7(9)",
              "minMaj7",
              "min6",
              "min",
              "aug",
              "Maj7(9)",
              "Maj7#11",
              "Maj7",
              "Maj6",
              "Maj"
            ],
            "autoStart": false,
            "sourceChordNote": 0,
            "sourceChordType": "Maj7",
            "ctb2Low": null,
            "ctb2Main": {
              "ntr": "ROOT_TRANSPOSITION",
              "ntt": "MELODY",
              "bassOn": false,
              "chordRootUpperLimit": 2,
              "noteLowLimit": 0,
              "noteHighLimit": 127,
              "rtr": "PITCH_SHIFT"
            },
            "ctb2High": null,
            "ctb2MiddleLowPitch": 0,
            "ctb2MiddleHighPitch": 127
          },
          "notes": [
            {
              "pitch": 60,
              "velocity": 27,
              "position": 0,
              "duration": 3.98125
            }
          ]
        },
        "6": {
          "ctab": {
            "srcChannel": 6,
            "name": "Organ rt",
            "accType": "PHRASE1",
            "editable": false,
            "mutedNotes": [],
            "mutedChords": [
              "1+2+5",
              "sus4",
              "1+5",
              "1+8",
              "Maj7aug",
              "dim",
              "minMaj7(9)",
              "minMaj7",
              "min6",
              "min",
              "aug",
              "Maj7(9)",
              "Maj7#11",
              "Maj7",
              "Maj6",
              "Maj"
            ],
            "autoStart": false,
            "sourceChordNote": 0,
            "sourceChordType": "Maj7",
            "ctb2Low": null,
            "ctb2Main": {
              "ntr": "ROOT_TRANSPOSITION",
              "ntt": "MELODY",
              "bassOn": false,
              "chordRootUpperLimit": 6,
              "noteLowLimit": 0,
              "noteHighLimit": 127,
              "rtr": "PITCH_SHIFT"
            },
            "ctb2High": null,
            "ctb2MiddleLowPitch": 0,
            "ctb2MiddleHighPitch": 127
          },
          "notes": [
            {
              "pitch": 60,
              "velocity": 40,
              "position": 0,
              "duration": 3.98125
            }
          ]
        },
        "9": {
          "ctab": {
            "srcChannel": 9,
            "name": "MainDrum",
            "accType": "RHYTHM",
            "editable": false,
            "mutedNotes": [],
            "mutedChords": [],
            "autoStart": true,
            "sourceChordNote": 0,
            "sourceChordType": "Maj7",
            "ctb2Low": null,
            "ctb2Main": {
              "ntr": "ROOT_FIXED",
              "ntt": "BYPASS",
              "bassOn": false,
              "chordRootUpperLimit": 6,
              "noteLowLimit": 0,
              "noteHighLimit": 127,
              "rtr": "PITCH_SHIFT"
            },
            "ctb2High": null,
            "ctb2MiddleLowPitch": 0,
            "ctb2MiddleHighPitch": 127
          },
          "notes": [
            {
              "pitch": 38,
              "velocity": 78,
              "position": 0,
              "duration": 0.00625
            },
            {
              "pitch": 42,
              "velocity": 48,
              "position": 0,
              "duration": 0.00625
            },
            {
              "pitch": 55,
              "velocity": 70,
              "position": 0,
              "duration": 0.00625
            },
            {
              "pitch": 33,
              "velocity": 32,
              "position": 0.5,
              "duration": 0.00625
            },
            {
              "pitch": 42,
              "velocity": 19,
              "position": 0.5,
              "duration": 0.00625
            },
            {
              "pitch": 33,
              "velocity": 64,
              "position": 1,
              "duration": 0.00625
            },
            {
              "pitch": 42,
              "velocity": 48,
              "position": 1,
              "duration": 0.00625
            },
            {
              "pitch": 38,
              "velocity": 72,
              "position": 1.5,
              "duration": 0.00625
            },
            {
              "pitch": 42,
              "velocity": 19,
              "position": 1.5,
              "duration": 0.00625
            },
            {
              "pitch": 42,
              "velocity": 19,
              "position": 2,
              "duration": 0.00625
            },
            {
              "pitch": 33,
              "velocity": 51,
              "position": 2.5,
              "duration": 0.00625
            },
            {
              "pitch": 42,
              "velocity": 48,
              "position": 2.5,
              "duration": 0.00625
            },
            {
              "pitch": 33,
              "velocity": 32,
              "position": 2.75,
              "duration": 0.00625
            },
            {
              "pitch": 38,
              "velocity": 78,
              "position": 3,
              "duration": 0.00625
            },
            {
              "pitch": 42,
              "velocity": 19,
              "position": 3,
              "duration": 0.00625
            },
            {
              "pitch": 49,
              "velocity": 70,
              "position": 3,
              "duration": 0.00625
            },
            {
              "pitch": 33,
              "velocity": 39,
              "position": 3.5,
              "duration": 0.00625
            },
            {
              "pitch": 42,
              "velocity": 19,
              "position": 3.5,
              "duration": 0.00625
            },
            {
              "pitch": 57,
              "velocity": 73,
              "position": 3.9895833333333335,
              "duration": 0.00625
            }
          ]
        },
        "10": {
          "ctab": {
            "srcChannel": 10,
            "name": "Bass",
            "accType": "BASS",
            "editable": false,
            "mutedNotes": [],
            "mutedChords": [],
            "autoStart": false,
            "sourceChordNote": 0,
            "sourceChordType": "Maj7",
            "ctb2Low": null,
            "ctb2Main": {
              "ntr": "ROOT_TRANSPOSITION",
              "ntt": "MELODY",
              "bassOn": true,
              "chordRootUpperLimit": 8,
              "noteLowLimit": 28,
              "noteHighLimit": 127,
              "rtr": "PITCH_SHIFT_TO_ROOT"
            },
            "ctb2High": {
              "ntr": "ROOT_FIXED",
              "ntt": "BYPASS",
              "bassOn": false,
              "chordRootUpperLimit": 8,
              "noteLowLimit": 28,
              "noteHighLimit": 127,
              "rtr": "PITCH_SHIFT"
            },
            "ctb2MiddleLowPitch": 0,
            "ctb2MiddleHighPitch": 95
          },
          "notes": [
            {
              "pitch": 24,
              "velocity": 64,
              "position": 0,
              "duration": 0.36666666666666664
            },
            {
              "pitch": 24,
              "velocity": 51,
              "position": 0.5,
              "duration": 0.36666666666666664
            },
            {
              "pitch": 24,
              "velocity": 51,
              "position": 1,
              "duration": 0.36666666666666664
            },
            {
              "pitch": 24,
              "velocity": 66,
              "position": 1.5,
              "duration": 1.48125
            },
            {
              "pitch": 24,
              "velocity": 62,
              "position": 3,
              "duration": 0.9604166666666667
            }
          ]
        },
        "11": {
          "ctab": {
            "srcChannel": 11,
            "name": "Guitar1",
            "accType": "CHORD1",
            "editable": false,
            "mutedNotes": [],
            "mutedChords": [],
            "autoStart": false,
            "sourceChordNote": 0,
            "sourceChordType": "Maj7",
            "ctb2Low": null,
            "ctb2Main": {
              "ntr": "ROOT_TRANSPOSITION",
              "ntt": "MELODY",
              "bassOn": true,
              "chordRootUpperLimit": 8,
              "noteLowLimit": 40,
              "noteHighLimit": 127,
              "rtr": "PITCH_SHIFT_TO_ROOT"
            },
            "ctb2High": null,
            "ctb2MiddleLowPitch": 0,
            "ctb2MiddleHighPitch": 127
          },
          "notes": [
            {
              "pitch": 48,
              "velocity": 81,
              "position": 0.0020833333333333333,
              "duration": 0.48125
            },
            {
              "pitch": 48,
              "velocity": 81,
              "position": 0.5,
              "duration": 0.4791666666666667
            },
            {
              "pitch": 48,
              "velocity": 81,
              "position": 0.9958333333333333,
              "duration": 0.4791666666666667
            },
            {
              "pitch": 48,
              "velocity": 81,
              "position": 1.5041666666666667,
              "duration": 0.4791666666666667
            },
            {
              "pitch": 48,
              "velocity": 81,
              "position": 2,
              "duration": 0.4791666666666667
            },
            {
              "pitch": 48,
              "velocity": 81,
              "position": 2.50625,
              "duration": 0.4791666666666667
            },
            {
              "pitch": 48,
              "velocity": 81,
              "position": 3.0083333333333333,
              "duration": 0.475
            },
            {
              "pitch": 48,
              "velocity": 81,
              "position": 3.49375,
              "duration": 0.4791666666666667
            }
          ]
        },
        "12": {
          "ctab": {
            "srcChannel": 12,
            "name": "Piano",
            "accType": "CHORD2",
            "editable": false,
            "mutedNotes": [],
            "mutedChords": [],
            "autoStart": false,
            "sourceChordNote": 0,
            "sourceChordType": "Maj7",
            "ctb2Low": null,
            "ctb2Main": {
              "ntr": "ROOT_FIXED",
              "ntt": "CHORD",
              "bassOn": false,
              "chordRootUpperLimit": 7,
              "noteLowLimit": 0,
              "noteHighLimit": 127,
              "rtr": "PITCH_SHIFT"
            },
            "ctb2High": null,
            "ctb2MiddleLowPitch": 0,
            "ctb2MiddleHighPitch": 127
          },
          "notes": [
            {
              "pitch": 59,
              "velocity": 53,
              "position": 0.0020833333333333333,
              "duration": 0.48125
            },
            {
              "pitch": 71,
              "velocity": 67,
              "position": 0.0020833333333333333,
              "duration": 0.48125
            },
            {
              "pitch": 55,
              "velocity": 60,
              "position": 0.0020833333333333333,
              "duration": 0.98125
            },
            {
              "pitch": 67,
              "velocity": 67,
              "position": 0.0020833333333333333,
              "duration": 0.98125
            },
            {
              "pitch": 64,
              "velocity": 76,
              "position": 0.0020833333333333333,
              "duration": 1.48125
            },
            {
              "pitch": 76,
              "velocity": 76,
              "position": 0.0020833333333333333,
              "duration": 1.48125
            },
            {
              "pitch": 59,
              "velocity": 63,
              "position": 0.5,
              "duration": 1.48125
            },
            {
              "pitch": 71,
              "velocity": 70,
              "position": 0.5,
              "duration": 1.48125
            },
            {
              "pitch": 55,
              "velocity": 57,
              "position": 1,
              "duration": 1.48125
            },
            {
              "pitch": 67,
              "velocity": 65,
              "position": 1,
              "duration": 1.48125
            },
            {
              "pitch": 76,
              "velocity": 76,
              "position": 1.5,
              "duration": 1.48125
            },
            {
              "pitch": 59,
              "velocity": 56,
              "position": 2,
              "duration": 1.98125
            },
            {
              "pitch": 64,
              "velocity": 63,
              "position": 1.5,
              "duration": 2.48125
            },
            {
              "pitch": 71,
              "velocity": 65,
              "position": 2,
              "duration": 1.98125
            },
            {
              "pitch": 55,
              "velocity": 61,
              "position": 2.5,
              "duration": 1.4916666666666667
            },
            {
              "pitch": 67,
              "velocity": 67,
              "position": 2.5,
              "duration": 1.4916666666666667
            },
            {
              "pitch": 76,
              "velocity": 76,
              "position": 3,
              "duration": 0.9916666666666667
            }
          ]
        },
        "13": {
          "ctab": {
            "srcChannel": 13,
            "name": "Strings",
            "accType": "PAD",
            "editable": false,
            "mutedNotes": [],
            "mutedChords": [],
            "autoStart": false,
            "sourceChordNote": 0,
            "sourceChordType": "Maj7",
            "ctb2Low": null,
            "ctb2Main": {
              "ntr": "ROOT_FIXED",
              "ntt": "CHORD",
              "bassOn": false,
              "chordRootUpperLimit": 7,
              "noteLowLimit": 0,
              "noteHighLimit": 127,
              "rtr": "PITCH_SHIFT"
            },
            "ctb2High": null,
            "ctb2MiddleLowPitch": 0,
            "ctb2MiddleHighPitch": 127
          },
          "notes": [
            {
              "pitch": 52,
              "velocity": 27,
              "position": 0.0020833333333333333,
              "duration": 3.98125
            },
            {
              "pitch": 55,
              "velocity": 27,
              "position": 0.0020833333333333333,
              "duration": 3.98125
            },
            {
              "pitch": 59,
              "velocity": 27,
              "position": 0.0020833333333333333,
              "duration": 3.98125
            }
          ]
        },
        "14": {
          "ctab": {
            "srcChannel": 14,
            "name": "Organ",
            "accType": "PHRASE1",
            "editable": false,
            "mutedNotes": [],
            "mutedChords": [],
            "autoStart": false,
            "sourceChordNote": 0,
            "sourceChordType": "Maj7",
            "ctb2Low": null,
            "ctb2Main": {
              "ntr": "ROOT_FIXED",
              "ntt": "CHORD",
              "bassOn": false,
              "chordRootUpperLimit": 7,
              "noteLowLimit": 0,
              "noteHighLimit": 127,
              "rtr": "PITCH_SHIFT"
            },
            "ctb2High": null,
            "ctb2MiddleLowPitch": 0,
            "ctb2MiddleHighPitch": 127
          },
          "notes": [
            {
              "pitch": 55,
              "velocity": 40,
              "position": 0,
              "duration": 3.98125
            },
            {
              "pitch": 59,
              "velocity": 40,
              "position": 0,
              "duration": 3.98125
            },
            {
              "pitch": 64,
              "velocity": 40,
              "position": 0,
              "duration": 3.98125
            }
          ]
        },
        "15": {
          "ctab": {
            "srcChannel": 15,
            "name": "Guitar2",
            "accType": "PHRASE2",
            "editable": false,
            "mutedNotes": [],
            "mutedChords": [],
            "autoStart": false,
            "sourceChordNote": 0,
            "sourceChordType": "Maj7",
            "ctb2Low": null,
            "ctb2Main": {
              "ntr": "ROOT_TRANSPOSITION",
              "ntt": "MELODY",
              "bassOn": true,
              "chordRootUpperLimit": 8,
              "noteLowLimit": 40,
              "noteHighLimit": 127,
              "rtr": "PITCH_SHIFT_TO_ROOT"
            },
            "ctb2High": {
              "ntr": "ROOT_FIXED",
              "ntt": "BYPASS",
              "bassOn": false,
              "chordRootUpperLimit": 7,
              "noteLowLimit": 0,
              "noteHighLimit": 127,
              "rtr": "PITCH_SHIFT"
            },
            "ctb2MiddleLowPitch": 0,
            "ctb2MiddleHighPitch": 95
          },
          "notes": [
            {
              "pitch": 111,
              "velocity": 80,
              "position": 0,
              "duration": 0.2
            },
            {
              "pitch": 48,
              "velocity": 87,
              "position": 0,
              "duration": 0.4083333333333333
            },
            {
              "pitch": 111,
              "velocity": 71,
              "position": 0.5,
              "duration": 0.2
            },
            {
              "pitch": 48,
              "velocity": 78,
              "position": 0.5,
              "duration": 0.4083333333333333
            },
            {
              "pitch": 111,
              "velocity": 71,
              "position": 1,
              "duration": 0.2
            },
            {
              "pitch": 48,
              "velocity": 78,
              "position": 1,
              "duration": 0.4083333333333333
            },
            {
              "pitch": 111,
              "velocity": 80,
              "position": 1.5,
              "duration": 0.2
            },
            {
              "pitch": 48,
              "velocity": 87,
              "position": 1.5,
              "duration": 0.4083333333333333
            },
            {
              "pitch": 111,
              "velocity": 70,
              "position": 2,
              "duration": 0.2
            },
            {
              "pitch": 48,
              "velocity": 77,
              "position": 2,
              "duration": 0.4083333333333333
            },
            {
              "pitch": 111,
              "velocity": 70,
              "position": 2.5,
              "duration": 0.2
            },
            {
              "pitch": 48,
              "velocity": 77,
              "position": 2.5,
              "duration": 0.4083333333333333
            },
            {
              "pitch": 111,
              "velocity": 80,
              "position": 3,
              "duration": 0.2
            },
            {
              "pitch": 48,
              "velocity": 87,
              "position": 3,
              "duration": 0.4083333333333333
            },
            {
              "pitch": 111,
              "velocity": 73,
              "position": 3.5,
              "duration": 0.2
            },
            {
              "pitch": 48,
              "velocity": 80,
              "position": 3.5,
              "duration": 0.4083333333333333
            }
          ]
        }
      }
    },
    "Intro_A": {
      "type": "Intro_A",
      "sizeInBeats": 4,
      "channels": {
        "5": {
          "ctab": {
            "srcChannel": 5,
            "name": "Str rt",
            "accType": "PAD",
            "editable": false,
            "mutedNotes": [],
            "mutedChords": [
              "1+2+5",
              "sus4",
              "1+5",
              "1+8",
              "Maj7aug",
              "dim",
              "minMaj7(9)",
              "minMaj7",
              "min6",
              "min",
              "aug",
              "Maj7(9)",
              "Maj7#11",
              "Maj7",
              "Maj6",
              "Maj"
            ],
            "autoStart": false,
            "sourceChordNote": 0,
            "sourceChordType": "Maj7",
            "ctb2Low": null,
            "ctb2Main": {
              "ntr": "ROOT_TRANSPOSITION",
              "ntt": "MELODY",
              "bassOn": false,
              "chordRootUpperLimit": 2,
              "noteLowLimit": 0,
              "noteHighLimit": 127,
              "rtr": "PITCH_SHIFT"
            },
            "ctb2High": null,
            "ctb2MiddleLowPitch": 0,
            "ctb2MiddleHighPitch": 127
          },
          "notes": []
        },
        "6": {
          "ctab": {
            "srcChannel": 6,
            "name": "Organ rt",
            "accType": "PHRASE1",
            "editable": false,
            "mutedNotes": [],
            "mutedChords": [
              "1+2+5",
              "sus4",
              "1+5",
              "1+8",
              "Maj7aug",
              "dim",
              "minMaj7(9)",
              "minMaj7",
              "min6",
              "min",
              "aug",
              "Maj7(9)",
              "Maj7#11",
              "Maj7",
              "Maj6",
              "Maj"
            ],
            "autoStart": false,
            "sourceChordNote": 0,
            "sourceChordType": "Maj7",
            "ctb2Low": null,
            "ctb2Main": {
              "ntr": "ROOT_TRANSPOSITION",
              "ntt": "MELODY",
              "bassOn": false,
              "chordRootUpperLimit": 6,
              "noteLowLimit": 0,
              "noteHighLimit": 127,
              "rtr": "PITCH_SHIFT"
            },
            "ctb2High": null,
            "ctb2MiddleLowPitch": 0,
            "ctb2MiddleHighPitch": 127
          },
          "notes": []
        },
        "9": {
          "ctab": {
            "srcChannel": 9,
            "name": "MainDrum",
            "accType": "RHYTHM",
            "editable": false,
            "mutedNotes": [],
            "mutedChords": [],
            "autoStart": true,
            "sourceChordNote": 0,
            "sourceChordType": "Maj7",
            "ctb2Low": null,
            "ctb2Main": {
              "ntr": "ROOT_FIXED",
              "ntt": "BYPASS",
              "bassOn": false,
              "chordRootUpperLimit": 6,
              "noteLowLimit": 0,
              "noteHighLimit": 127,
              "rtr": "PITCH_SHIFT"
            },
            "ctb2High": null,
            "ctb2MiddleLowPitch": 0,
            "ctb2MiddleHighPitch": 127
          },
          "notes": [
            {
              "pitch": 42,
              "velocity": 70,
              "position": 0,
              "duration": 0.00625
            },
            {
              "pitch": 42,
              "velocity": 24,
              "position": 0.25,
              "duration": 0.00625
            },
            {
              "pitch": 42,
              "velocity": 39,
              "position": 0.5,
              "duration": 0.00625
            },
            {
              "pitch": 42,
              "velocity": 24,
              "position": 0.75,
              "duration": 0.00625
            },
            {
              "pitch": 42,
              "velocity": 77,
              "position": 1,
              "duration": 0.00625
            },
            {
              "pitch": 42,
              "velocity": 43,
              "position": 1.5,
              "duration": 0.00625
            },
            {
              "pitch": 42,
              "velocity": 24,
              "position": 2,
              "duration": 0.00625
            },
            {
              "pitch": 42,
              "velocity": 64,
              "position": 2.5,
              "duration": 0.00625
            },
            {
              "pitch": 42,
              "velocity": 15,
              "position": 3,
              "duration": 0.00625
            },
            {
              "pitch": 42,
              "velocity": 67,
              "position": 3.5,
              "duration": 0.00625
            },
            {
              "pitch": 49,
              "velocity": 71,
              "position": 3.9895833333333335,
              "duration": 0.00625
            }
          ]
        },
        "10": {
          "ctab": {
            "srcChannel": 10,
            "name": "Bass",
            "accType": "BASS",
            "editable": false,
            "mutedNotes": [],
            "mutedChords": [],
            "autoStart": false,
            "sourceChordNote": 0,
            "sourceChordType": "Maj7",
            "ctb2Low": null,
            "ctb2Main": {
              "ntr": "ROOT_TRANSPOSITION",
              "ntt": "MELODY",
              "bassOn": true,
              "chordRootUpperLimit": 8,
              "noteLowLimit": 28,
              "noteHighLimit": 127,
              "rtr": "PITCH_SHIFT_TO_ROOT"
            },
            "ctb2High": {
              "ntr": "ROOT_FIXED",
              "ntt": "BYPASS",
              "bassOn": false,
              "chordRootUpperLimit": 8,
              "noteLowLimit": 28,
              "noteHighLimit": 127,
              "rtr": "PITCH_SHIFT"
            },
            "ctb2MiddleLowPitch": 0,
            "ctb2MiddleHighPitch": 95
          },
          "notes": []
        },
        "11": {
          "ctab": {
            "srcChannel": 11,
            "name": "Guitar1",
            "accType": "CHORD1",
            "editable": false,
            "mutedNotes": [],
            "mutedChords": [],
            "autoStart": false,
            "sourceChordNote": 0,
            "sourceChordType": "Maj7",
            "ctb2Low": null,
            "ctb2Main": {
              "ntr": "ROOT_TRANSPOSITION",
              "ntt": "MELODY",
              "bassOn": true,
              "chordRootUpperLimit": 8,
              "noteLowLimit": 40,
              "noteHighLimit": 127,
              "rtr": "PITCH_SHIFT_TO_ROOT"
            },
            "ctb2High": null,
            "ctb2MiddleLowPitch": 0,
            "ctb2MiddleHighPitch": 127
          },
          "notes": []
        },
        "12": {
          "ctab": {
            "srcChannel": 12,
            "name": "Piano",
            "accType": "CHORD2",
            "editable": false,
            "mutedNotes": [],
            "mutedChords": [],
            "autoStart": false,
            "sourceChordNote": 0,
            "sourceChordType": "Maj7",
            "ctb2Low": null,
            "ctb2Main": {
              "ntr": "ROOT_FIXED",
              "ntt": "CHORD",
              "bassOn": false,
              "chordRootUpperLimit": 7,
              "noteLowLimit": 0,
              "noteHighLimit": 127,
              "rtr": "PITCH_SHIFT"
            },
            "ctb2High": null,
            "ctb2MiddleLowPitch": 0,
            "ctb2MiddleHighPitch": 127
          },
          "notes": []
        },
        "13": {
          "ctab": {
            "srcChannel": 13,
            "name": "Strings",
            "accType": "PAD",
            "editable": false,
            "mutedNotes": [],
            "mutedChords": [],
            "autoStart": false,
            "sourceChordNote": 0,
            "sourceChordType": "Maj7",
            "ctb2Low": null,
            "ctb2Main": {
              "ntr": "ROOT_FIXED",
              "ntt": "CHORD",
              "bassOn": false,
              "chordRootUpperLimit": 7,
              "noteLowLimit": 0,
              "noteHighLimit": 127,
              "rtr": "PITCH_SHIFT"
            },
            "ctb2High": null,
            "ctb2MiddleLowPitch": 0,
            "ctb2MiddleHighPitch": 127
          },
          "notes": []
        },
        "14": {
          "ctab": {
            "srcChannel": 14,
            "name": "Organ",
            "accType": "PHRASE1",
            "editable": false,
            "mutedNotes": [],
            "mutedChords": [],
            "autoStart": false,
            "sourceChordNote": 0,
            "sourceChordType": "Maj7",
            "ctb2Low": null,
            "ctb2Main": {
              "ntr": "ROOT_FIXED",
              "ntt": "CHORD",
              "bassOn": false,
              "chordRootUpperLimit": 7,
              "noteLowLimit": 0,
              "noteHighLimit": 127,
              "rtr": "PITCH_SHIFT"
            },
            "ctb2High": null,
            "ctb2MiddleLowPitch": 0,
            "ctb2MiddleHighPitch": 127
          },
          "notes": []
        },
        "15": {
          "ctab": {
            "srcChannel": 15,
            "name": "Guitar2",
            "accType": "PHRASE2",
            "editable": false,
            "mutedNotes": [],
            "mutedChords": [],
            "autoStart": false,
            "sourceChordNote": 0,
            "sourceChordType": "Maj7",
            "ctb2Low": null,
            "ctb2Main": {
              "ntr": "ROOT_TRANSPOSITION",
              "ntt": "MELODY",
              "bassOn": true,
              "chordRootUpperLimit": 8,
              "noteLowLimit": 40,
              "noteHighLimit": 127,
              "rtr": "PITCH_SHIFT_TO_ROOT"
            },
            "ctb2High": {
              "ntr": "ROOT_FIXED",
              "ntt": "BYPASS",
              "bassOn": false,
              "chordRootUpperLimit": 7,
              "noteLowLimit": 0,
              "noteHighLimit": 127,
              "rtr": "PITCH_SHIFT"
            },
            "ctb2MiddleLowPitch": 0,
            "ctb2MiddleHighPitch": 95
          },
          "notes": []
        }
      }
    },
    "Ending_A": {
      "type": "Ending_A",
      "sizeInBeats": 8,
      "channels": {
        "5": {
          "ctab": {
            "srcChannel": 5,
            "name": "Str rt",
            "accType": "PAD",
            "editable": false,
            "mutedNotes": [],
            "mutedChords": [
              "1+2+5",
              "sus4",
              "1+5",
              "1+8",
              "Maj7aug",
              "dim",
              "minMaj7(9)",
              "minMaj7",
              "min6",
              "min",
              "aug",
              "Maj7(9)",
              "Maj7#11",
              "Maj7",
              "Maj6",
              "Maj"
            ],
            "autoStart": false,
            "sourceChordNote": 0,
            "sourceChordType": "Maj7",
            "ctb2Low": null,
            "ctb2Main": {
              "ntr": "ROOT_TRANSPOSITION",
              "ntt": "MELODY",
              "bassOn": false,
              "chordRootUpperLimit": 2,
              "noteLowLimit": 0,
              "noteHighLimit": 127,
              "rtr": "PITCH_SHIFT"
            },
            "ctb2High": null,
            "ctb2MiddleLowPitch": 0,
            "ctb2MiddleHighPitch": 127
          },
          "notes": [
            {
              "pitch": 60,
              "velocity": 34,
              "position": 0.0020833333333333333,
              "duration": 7.995833333333334
            }
          ]
        },
        "6": {
          "ctab": {
            "srcChannel": 6,
            "name": "Organ rt",
            "accType": "PHRASE1",
            "editable": false,
            "mutedNotes": [],
            "mutedChords": [
              "1+2+5",
              "sus4",
              "1+5",
              "1+8",
              "Maj7aug",
              "dim",
              "minMaj7(9)",
              "minMaj7",
              "min6",
              "min",
              "aug",
              "Maj7(9)",
              "Maj7#11",
              "Maj7",
              "Maj6",
              "Maj"
            ],
            "autoStart": false,
            "sourceChordNote": 0,
            "sourceChordType": "Maj7",
            "ctb2Low": null,
            "ctb2Main": {
              "ntr": "ROOT_TRANSPOSITION",
              "ntt": "MELODY",
              "bassOn": false,
              "chordRootUpperLimit": 6,
              "noteLowLimit": 0,
              "noteHighLimit": 127,
              "rtr": "PITCH_SHIFT"
            },
            "ctb2High": null,
            "ctb2MiddleLowPitch": 0,
            "ctb2MiddleHighPitch": 127
          },
          "notes": [
            {
              "pitch": 60,
              "velocity": 40,
              "position": 0,
              "duration": 7.995833333333334
            }
          ]
        },
        "9": {
          "ctab": {
            "srcChannel": 9,
            "name": "MainDrum",
            "accType": "RHYTHM",
            "editable": false,
            "mutedNotes": [],
            "mutedChords": [],
            "autoStart": true,
            "sourceChordNote": 0,
            "sourceChordType": "Maj7",
            "ctb2Low": null,
            "ctb2Main": {
              "ntr": "ROOT_FIXED",
              "ntt": "BYPASS",
              "bassOn": false,
              "chordRootUpperLimit": 6,
              "noteLowLimit": 0,
              "noteHighLimit": 127,
              "rtr": "PITCH_SHIFT"
            },
            "ctb2High": null,
            "ctb2MiddleLowPitch": 0,
            "ctb2MiddleHighPitch": 127
          },
          "notes": [
            {
              "pitch": 38,
              "velocity": 65,
              "position": 0,
              "duration": 0.00625
            },
            {
              "pitch": 55,
              "velocity": 70,
              "position": 0,
              "duration": 0.00625
            }
          ]
        },
        "10": {
          "ctab": {
            "srcChannel": 10,
            "name": "Bass",
            "accType": "BASS",
            "editable": false,
            "mutedNotes": [],
            "mutedChords": [],
            "autoStart": false,
            "sourceChordNote": 0,
            "sourceChordType": "Maj7",
            "ctb2Low": null,
            "ctb2Main": {
              "ntr": "ROOT_TRANSPOSITION",
              "ntt": "MELODY",
              "bassOn": true,
              "chordRootUpperLimit": 8,
              "noteLowLimit": 28,
              "noteHighLimit": 127,
              "rtr": "PITCH_SHIFT_TO_ROOT"
            },
            "ctb2High": {
              "ntr": "ROOT_FIXED",
              "ntt": "BYPASS",
              "bassOn": false,
              "chordRootUpperLimit": 8,
              "noteLowLimit": 28,
              "noteHighLimit": 127,
              "rtr": "PITCH_SHIFT"
            },
            "ctb2MiddleLowPitch": 0,
            "ctb2MiddleHighPitch": 95
          },
          "notes": [
            {
              "pitch": 24,
              "velocity": 64,
              "position": 0,
              "duration": 7.995833333333334
            }
          ]
        },
        "11": {
          "ctab": {
            "srcChannel": 11,
            "name": "Guitar1",
            "accType": "CHORD1",
            "editable": false,
            "mutedNotes": [],
            "mutedChords": [],
            "autoStart": false,
            "sourceChordNote": 0,
            "sourceChordType": "Maj7",
            "ctb2Low": null,
            "ctb2Main": {
              "ntr": "ROOT_TRANSPOSITION",
              "ntt": "MELODY",
              "bassOn": true,
              "chordRootUpperLimit": 8,
              "noteLowLimit": 40,
              "noteHighLimit": 127,
              "rtr": "PITCH_SHIFT_TO_ROOT"
            },
            "ctb2High": null,
            "ctb2MiddleLowPitch": 0,
            "ctb2MiddleHighPitch": 127
          },
          "notes": [
            {
              "pitch": 48,
              "velocity": 46,
              "position": 0.0020833333333333333,
              "duration": 7.995833333333334
            }
          ]
        },
        "12": {
          "ctab": {
            "srcChannel": 12,
            "name": "Piano",
            "accType": "CHORD2",
            "editable": false,
            "mutedNotes": [],
            "mutedChords": [],
            "autoStart": false,
            "sourceChordNote": 0,
            "sourceChordType": "Maj7",
            "ctb2Low": null,
            "ctb2Main": {
              "ntr": "ROOT_FIXED",
              "ntt": "CHORD",
              "bassOn": false,
              "chordRootUpperLimit": 7,
              "noteLowLimit": 0,
              "noteHighLimit": 127,
              "rtr": "PITCH_SHIFT"
            },
            "ctb2High": null,
            "ctb2MiddleLowPitch": 0,
            "ctb2MiddleHighPitch": 127
          },
          "notes": [
            {
              "pitch": 64,
              "velocity": 86,
              "position": 0.0020833333333333333,
              "duration": 7.99375
            },
            {
              "pitch": 67,
              "velocity": 66,
              "position": 0.0020833333333333333,
              "duration": 7.99375
            },
            {
              "pitch": 71,
              "velocity": 65,
              "position": 0.0020833333333333333,
              "duration": 7.99375
            }
          ]
        },
        "13": {
          "ctab": {
            "srcChannel": 13,
            "name": "Strings",
            "accType": "PAD",
            "editable": false,
            "mutedNotes": [],
            "mutedChords": [],
            "autoStart": false,
            "sourceChordNote": 0,
            "sourceChordType": "Maj7",
            "ctb2Low": null,
            "ctb2Main": {
              "ntr": "ROOT_FIXED",
              "ntt": "CHORD",
              "bassOn": false,
              "chordRootUpperLimit": 7,
              "noteLowLimit": 0,
              "noteHighLimit": 127,
              "rtr": "PITCH_SHIFT"
            },
            "ctb2High": null,
            "ctb2MiddleLowPitch": 0,
            "ctb2MiddleHighPitch": 127
          },
          "notes": [
            {
              "pitch": 52,
              "velocity": 34,
              "position": 0.0020833333333333333,
              "duration": 7.99375
            },
            {
              "pitch": 55,
              "velocity": 34,
              "position": 0.0020833333333333333,
              "duration": 7.99375
            },
            {
              "pitch": 59,
              "velocity": 34,
              "position": 0.0020833333333333333,
              "duration": 7.99375
            }
          ]
        },
        "14": {
          "ctab": {
            "srcChannel": 14,
            "name": "Organ",
            "accType": "PHRASE1",
            "editable": false,
            "mutedNotes": [],
            "mutedChords": [],
            "autoStart": false,
            "sourceChordNote": 0,
            "sourceChordType": "Maj7",
            "ctb2Low": null,
            "ctb2Main": {
              "ntr": "ROOT_FIXED",
              "ntt": "CHORD",
              "bassOn": false,
              "chordRootUpperLimit": 7,
              "noteLowLimit": 0,
              "noteHighLimit": 127,
              "rtr": "PITCH_SHIFT"
            },
            "ctb2High": null,
            "ctb2MiddleLowPitch": 0,
            "ctb2MiddleHighPitch": 127
          },
          "notes": [
            {
              "pitch": 55,
              "velocity": 40,
              "position": 0.0020833333333333333,
              "duration": 7.995833333333334
            },
            {
              "pitch": 59,
              "velocity": 40,
              "position": 0.0020833333333333333,
              "duration": 7.995833333333334
            },
            {
              "pitch": 64,
              "velocity": 40,
              "position": 0.0020833333333333333,
              "duration": 7.995833333333334
            }
          ]
        },
        "15": {
          "ctab": {
            "srcChannel": 15,
            "name": "Guitar2",
            "accType": "PHRASE2",
            "editable": false,
            "mutedNotes": [],
            "mutedChords": [],
            "autoStart": false,
            "sourceChordNote": 0,
            "sourceChordType": "Maj7",
            "ctb2Low": null,
            "ctb2Main": {
              "ntr": "ROOT_TRANSPOSITION",
              "ntt": "MELODY",
              "bassOn": true,
              "chordRootUpperLimit": 8,
              "noteLowLimit": 40,
              "noteHighLimit": 127,
              "rtr": "PITCH_SHIFT_TO_ROOT"
            },
            "ctb2High": {
              "ntr": "ROOT_FIXED",
              "ntt": "BYPASS",
              "bassOn": false,
              "chordRootUpperLimit": 7,
              "noteLowLimit": 0,
              "noteHighLimit": 127,
              "rtr": "PITCH_SHIFT"
            },
            "ctb2MiddleLowPitch": 0,
            "ctb2MiddleHighPitch": 95
          },
          "notes": [
            {
              "pitch": 48,
              "velocity": 38,
              "position": 0,
              "duration": 7.995833333333334
            }
          ]
        }
      }
    },
    "Fill_In_BA": {
      "type": "Fill_In_BA",
      "sizeInBeats": 4,
      "channels": {
        "5": {
          "ctab": {
            "srcChannel": 5,
            "name": "Str rt",
            "accType": "PAD",
            "editable": false,
            "mutedNotes": [],
            "mutedChords": [
              "1+2+5",
              "sus4",
              "1+5",
              "1+8",
              "Maj7aug",
              "dim",
              "minMaj7(9)",
              "minMaj7",
              "min6",
              "min",
              "aug",
              "Maj7(9)",
              "Maj7#11",
              "Maj7",
              "Maj6",
              "Maj"
            ],
            "autoStart": false,
            "sourceChordNote": 0,
            "sourceChordType": "Maj7",
            "ctb2Low": null,
            "ctb2Main": {
              "ntr": "ROOT_TRANSPOSITION",
              "ntt": "MELODY",
              "bassOn": false,
              "chordRootUpperLimit": 2,
              "noteLowLimit": 0,
              "noteHighLimit": 127,
              "rtr": "PITCH_SHIFT"
            },
            "ctb2High": null,
            "ctb2MiddleLowPitch": 0,
            "ctb2MiddleHighPitch": 127
          },
          "notes": [
            {
              "pitch": 60,
              "velocity": 34,
              "position": 0.010416666666666666,
              "duration": 3.970833333333333
            }
          ]
        },
        "6": {
          "ctab": {
            "srcChannel": 6,
            "name": "Organ rt",
            "accType": "PHRASE1",
            "editable": false,
            "mutedNotes": [],
            "mutedChords": [
              "1+2+5",
              "sus4",
              "1+5",
              "1+8",
              "Maj7aug",
              "dim",
              "minMaj7(9)",
              "minMaj7",
              "min6",
              "min",
              "aug",
              "Maj7(9)",
              "Maj7#11",
              "Maj7",
              "Maj6",
              "Maj"
            ],
            "autoStart": false,
            "sourceChordNote": 0,
            "sourceChordType": "Maj7",
            "ctb2Low": null,
            "ctb2Main": {
              "ntr": "ROOT_TRANSPOSITION",
              "ntt": "MELODY",
              "bassOn": false,
              "chordRootUpperLimit": 6,
              "noteLowLimit": 0,
              "noteHighLimit": 127,
              "rtr": "PITCH_SHIFT"
            },
            "ctb2High": null,
            "ctb2MiddleLowPitch": 0,
            "ctb2MiddleHighPitch": 127
          },
          "notes": [
            {
              "pitch": 60,
              "velocity": 40,
              "position": 0,
              "duration": 0.98125
            }
          ]
        },
        "9": {
          "ctab": {
            "srcChannel": 9,
            "name": "MainDrum",
            "accType": "RHYTHM",
            "editable": false,
            "mutedNotes": [],
            "mutedChords": [],
            "autoStart": true,
            "sourceChordNote": 0,
            "sourceChordType": "Maj7",
            "ctb2Low": null,
            "ctb2Main": {
              "ntr": "ROOT_FIXED",
              "ntt": "BYPASS",
              "bassOn": false,
              "chordRootUpperLimit": 6,
              "noteLowLimit": 0,
              "noteHighLimit": 127,
              "rtr": "PITCH_SHIFT"
            },
            "ctb2High": null,
            "ctb2MiddleLowPitch": 0,
            "ctb2MiddleHighPitch": 127
          },
          "notes": [
            {
              "pitch": 33,
              "velocity": 71,
              "position": 0,
              "duration": 0.00625
            },
            {
              "pitch": 55,
              "velocity": 52,
              "position": 0,
              "duration": 0.00625
            },
            {
              "pitch": 38,
              "velocity": 79,
              "position": 0.5,
              "duration": 0.00625
            },
            {
              "pitch": 49,
              "velocity": 79,
              "position": 0.5,
              "duration": 0.00625
            },
            {
              "pitch": 38,
              "velocity": 85,
              "position": 3,
              "duration": 0.00625
            },
            {
              "pitch": 55,
              "velocity": 53,
              "position": 3,
              "duration": 0.00625
            },
            {
              "pitch": 33,
              "velocity": 59,
              "position": 3.5,
              "duration": 0.00625
            },
            {
              "pitch": 57,
              "velocity": 73,
              "position": 3.9895833333333335,
              "duration": 0.00625
            }
          ]
        },
        "10": {
          "ctab": {
            "srcChannel": 10,
            "name": "Bass",
            "accType": "BASS",
            "editable": false,
            "mutedNotes": [],
            "mutedChords": [],
            "autoStart": false,
            "sourceChordNote": 0,
            "sourceChordType": "Maj7",
            "ctb2Low": null,
            "ctb2Main": {
              "ntr": "ROOT_TRANSPOSITION",
              "ntt": "MELODY",
              "bassOn": true,
              "chordRootUpperLimit": 8,
              "noteLowLimit": 28,
              "noteHighLimit": 127,
              "rtr": "PITCH_SHIFT_TO_ROOT"
            },
            "ctb2High": {
              "ntr": "ROOT_FIXED",
              "ntt": "BYPASS",
              "bassOn": false,
              "chordRootUpperLimit": 8,
              "noteLowLimit": 28,
              "noteHighLimit": 127,
              "rtr": "PITCH_SHIFT"
            },
            "ctb2MiddleLowPitch": 0,
            "ctb2MiddleHighPitch": 95
          },
          "notes": [
            {
              "pitch": 24,
              "velocity": 66,
              "position": 0,
              "duration": 0.4395833333333333
            },
            {
              "pitch": 24,
              "velocity": 65,
              "position": 0.5,
              "duration": 0.4395833333333333
            },
            {
              "pitch": 97,
              "velocity": 84,
              "position": 2.5,
              "duration": 1.48125
            }
          ]
        },
        "11": {
          "ctab": {
            "srcChannel": 11,
            "name": "Guitar1",
            "accType": "CHORD1",
            "editable": false,
            "mutedNotes": [],
            "mutedChords": [],
            "autoStart": false,
            "sourceChordNote": 0,
            "sourceChordType": "Maj7",
            "ctb2Low": null,
            "ctb2Main": {
              "ntr": "ROOT_TRANSPOSITION",
              "ntt": "MELODY",
              "bassOn": true,
              "chordRootUpperLimit": 8,
              "noteLowLimit": 40,
              "noteHighLimit": 127,
              "rtr": "PITCH_SHIFT_TO_ROOT"
            },
            "ctb2High": null,
            "ctb2MiddleLowPitch": 0,
            "ctb2MiddleHighPitch": 127
          },
          "notes": [
            {
              "pitch": 60,
              "velocity": 49,
              "position": 0,
              "duration": 0.48125
            },
            {
              "pitch": 67,
              "velocity": 49,
              "position": 0,
              "duration": 0.48125
            },
            {
              "pitch": 60,
              "velocity": 41,
              "position": 0.5,
              "duration": 0.36666666666666664
            },
            {
              "pitch": 67,
              "velocity": 41,
              "position": 0.5,
              "duration": 0.36666666666666664
            }
          ]
        },
        "12": {
          "ctab": {
            "srcChannel": 12,
            "name": "Piano",
            "accType": "CHORD2",
            "editable": false,
            "mutedNotes": [],
            "mutedChords": [],
            "autoStart": false,
            "sourceChordNote": 0,
            "sourceChordType": "Maj7",
            "ctb2Low": null,
            "ctb2Main": {
              "ntr": "ROOT_FIXED",
              "ntt": "CHORD",
              "bassOn": false,
              "chordRootUpperLimit": 7,
              "noteLowLimit": 0,
              "noteHighLimit": 127,
              "rtr": "PITCH_SHIFT"
            },
            "ctb2High": null,
            "ctb2MiddleLowPitch": 0,
            "ctb2MiddleHighPitch": 127
          },
          "notes": [
            {
              "pitch": 55,
              "velocity": 72,
              "position": 0,
              "duration": 0.4
            },
            {
              "pitch": 59,
              "velocity": 71,
              "position": 0,
              "duration": 0.4
            },
            {
              "pitch": 64,
              "velocity": 84,
              "position": 0,
              "duration": 0.4
            },
            {
              "pitch": 67,
              "velocity": 72,
              "position": 0,
              "duration": 0.4
            },
            {
              "pitch": 71,
              "velocity": 71,
              "position": 0,
              "duration": 0.4
            },
            {
              "pitch": 76,
              "velocity": 86,
              "position": 0,
              "duration": 0.4
            },
            {
              "pitch": 55,
              "velocity": 72,
              "position": 0.5,
              "duration": 0.38125
            },
            {
              "pitch": 59,
              "velocity": 71,
              "position": 0.5,
              "duration": 0.38125
            },
            {
              "pitch": 64,
              "velocity": 84,
              "position": 0.5,
              "duration": 0.38125
            },
            {
              "pitch": 67,
              "velocity": 72,
              "position": 0.5,
              "duration": 0.38125
            },
            {
              "pitch": 71,
              "velocity": 71,
              "position": 0.5,
              "duration": 0.38125
            },
            {
              "pitch": 76,
              "velocity": 86,
              "position": 0.5,
              "duration": 0.38125
            }
          ]
        },
        "13": {
          "ctab": {
            "srcChannel": 13,
            "name": "Strings",
            "accType": "PAD",
            "editable": false,
            "mutedNotes": [],
            "mutedChords": [],
            "autoStart": false,
            "sourceChordNote": 0,
            "sourceChordType": "Maj7",
            "ctb2Low": null,
            "ctb2Main": {
              "ntr": "ROOT_FIXED",
              "ntt": "CHORD",
              "bassOn": false,
              "chordRootUpperLimit": 7,
              "noteLowLimit": 0,
              "noteHighLimit": 127,
              "rtr": "PITCH_SHIFT"
            },
            "ctb2High": null,
            "ctb2MiddleLowPitch": 0,
            "ctb2MiddleHighPitch": 127
          },
          "notes": [
            {
              "pitch": 52,
              "velocity": 34,
              "position": 0.010416666666666666,
              "duration": 3.970833333333333
            },
            {
              "pitch": 55,
              "velocity": 34,
              "position": 0.010416666666666666,
              "duration": 3.970833333333333
            },
            {
              "pitch": 59,
              "velocity": 34,
              "position": 0.010416666666666666,
              "duration": 3.970833333333333
            }
          ]
        },
        "14": {
          "ctab": {
            "srcChannel": 14,
            "name": "Organ",
            "accType": "PHRASE1",
            "editable": false,
            "mutedNotes": [],
            "mutedChords": [],
            "autoStart": false,
            "sourceChordNote": 0,
            "sourceChordType": "Maj7",
            "ctb2Low": null,
            "ctb2Main": {
              "ntr": "ROOT_FIXED",
              "ntt": "CHORD",
              "bassOn": false,
              "chordRootUpperLimit": 7,
              "noteLowLimit": 0,
              "noteHighLimit": 127,
              "rtr": "PITCH_SHIFT"
            },
            "ctb2High": null,
            "ctb2MiddleLowPitch": 0,
            "ctb2MiddleHighPitch": 127
          },
          "notes": [
            {
              "pitch": 55,
              "velocity": 40,
              "position": 0,
              "duration": 0.98125
            },
            {
              "pitch": 59,
              "velocity": 40,
              "position": 0,
              "duration": 0.98125
            },
            {
              "pitch": 64,
              "velocity": 40,
              "position": 0,
              "duration": 0.98125
            }
          ]
        },
        "15": {
          "ctab": {
            "srcChannel": 15,
            "name": "Guitar2",
            "accType": "PHRASE2",
            "editable": false,
            "mutedNotes": [],
            "mutedChords": [],
            "autoStart": false,
            "sourceChordNote": 0,
            "sourceChordType": "Maj7",
            "ctb2Low": null,
            "ctb2Main": {
              "ntr": "ROOT_TRANSPOSITION",
              "ntt": "MELODY",
              "bassOn": true,
              "chordRootUpperLimit": 8,
              "noteLowLimit": 40,
              "noteHighLimit": 127,
              "rtr": "PITCH_SHIFT_TO_ROOT"
            },
            "ctb2High": {
              "ntr": "ROOT_FIXED",
              "ntt": "BYPASS",
              "bassOn": false,
              "chordRootUpperLimit": 7,
              "noteLowLimit": 0,
              "noteHighLimit": 127,
              "rtr": "PITCH_SHIFT"
            },
            "ctb2MiddleLowPitch": 0,
            "ctb2MiddleHighPitch": 95
          },
          "notes": [
            {
              "pitch": 48,
              "velocity": 83,
              "position": 0.010416666666666666,
              "duration": 0.4708333333333333
            },
            {
              "pitch": 55,
              "velocity": 83,
              "position": 0.010416666666666666,
              "duration": 0.4708333333333333
            },
            {
              "pitch": 111,
              "velocity": 83,
              "position": 0.010416666666666666,
              "duration": 0.4708333333333333
            },
            {
              "pitch": 48,
              "velocity": 79,
              "position": 0.5,
              "duration": 0.4083333333333333
            },
            {
              "pitch": 55,
              "velocity": 79,
              "position": 0.5,
              "duration": 0.4083333333333333
            },
            {
              "pitch": 111,
              "velocity": 79,
              "position": 0.5,
              "duration": 0.4083333333333333
            },
            {
              "pitch": 123,
              "velocity": 40,
              "position": 0.7604166666666666,
              "duration": 2.5708333333333333
            }
          ]
        }
      }
    },
    "Main_B": {
      "type": "Main_B",
      "sizeInBeats": 16,
      "channels": {
        "4": {
          "ctab": {
            "srcChannel": 4,
            "name": "Pf  rt",
            "accType": "CHORD2",
            "editable": false,
            "mutedNotes": [],
            "mutedChords": [
              "1+2+5",
              "sus4",
              "1+5",
              "1+8",
              "Maj7aug",
              "dim",
              "minMaj7(9)",
              "minMaj7",
              "min6",
              "min",
              "aug",
              "Maj7(9)",
              "Maj7#11",
              "Maj7",
              "Maj6",
              "Maj"
            ],
            "autoStart": false,
            "sourceChordNote": 0,
            "sourceChordType": "Maj7",
            "ctb2Low": null,
            "ctb2Main": {
              "ntr": "ROOT_TRANSPOSITION",
              "ntt": "MELODY",
              "bassOn": false,
              "chordRootUpperLimit": 10,
              "noteLowLimit": 0,
              "noteHighLimit": 127,
              "rtr": "PITCH_SHIFT"
            },
            "ctb2High": null,
            "ctb2MiddleLowPitch": 0,
            "ctb2MiddleHighPitch": 127
          },
          "notes": []
        },
        "5": {
          "ctab": {
            "srcChannel": 5,
            "name": "Str rt",
            "accType": "PAD",
            "editable": false,
            "mutedNotes": [],
            "mutedChords": [
              "1+2+5",
              "sus4",
              "1+5",
              "1+8",
              "Maj7aug",
              "dim",
              "minMaj7(9)",
              "minMaj7",
              "min6",
              "min",
              "aug",
              "Maj7(9)",
              "Maj7#11",
              "Maj7",
              "Maj6",
              "Maj"
            ],
            "autoStart": false,
            "sourceChordNote": 0,
            "sourceChordType": "Maj7",
            "ctb2Low": null,
            "ctb2Main": {
              "ntr": "ROOT_TRANSPOSITION",
              "ntt": "MELODY",
              "bassOn": false,
              "chordRootUpperLimit": 6,
              "noteLowLimit": 51,
              "noteHighLimit": 127,
              "rtr": "PITCH_SHIFT"
            },
            "ctb2High": null,
            "ctb2MiddleLowPitch": 0,
            "ctb2MiddleHighPitch": 127
          },
          "notes": [
            {
              "pitch": 48,
              "velocity": 27,
              "position": 0,
              "duration": 15.98125
            }
          ]
        },
        "6": {
          "ctab": {
            "srcChannel": 6,
            "name": "Organ rt",
            "accType": "PHRASE1",
            "editable": false,
            "mutedNotes": [],
            "mutedChords": [
              "1+2+5",
              "sus4",
              "1+5",
              "1+8",
              "Maj7aug",
              "dim",
              "minMaj7(9)",
              "minMaj7",
              "min6",
              "min",
              "aug",
              "Maj7(9)",
              "Maj7#11",
              "Maj7",
              "Maj6",
              "Maj"
            ],
            "autoStart": false,
            "sourceChordNote": 0,
            "sourceChordType": "Maj7",
            "ctb2Low": null,
            "ctb2Main": {
              "ntr": "ROOT_TRANSPOSITION",
              "ntt": "MELODY",
              "bassOn": false,
              "chordRootUpperLimit": 6,
              "noteLowLimit": 0,
              "noteHighLimit": 127,
              "rtr": "PITCH_SHIFT"
            },
            "ctb2High": null,
            "ctb2MiddleLowPitch": 0,
            "ctb2MiddleHighPitch": 127
          },
          "notes": [
            {
              "pitch": 60,
              "velocity": 40,
              "position": 0,
              "duration": 15.98125
            }
          ]
        },
        "8": {
          "ctab": {
            "srcChannel": 8,
            "name": "AddDrum",
            "accType": "SUBRHYTHM",
            "editable": false,
            "mutedNotes": [],
            "mutedChords": [],
            "autoStart": true,
            "sourceChordNote": 0,
            "sourceChordType": "Maj7",
            "ctb2Low": null,
            "ctb2Main": {
              "ntr": "ROOT_FIXED",
              "ntt": "BYPASS",
              "bassOn": false,
              "chordRootUpperLimit": 6,
              "noteLowLimit": 0,
              "noteHighLimit": 127,
              "rtr": "PITCH_SHIFT"
            },
            "ctb2High": null,
            "ctb2MiddleLowPitch": 0,
            "ctb2MiddleHighPitch": 127
          },
          "notes": []
        },
        "9": {
          "ctab": {
            "srcChannel": 9,
            "name": "MainDrum",
            "accType": "RHYTHM",
            "editable": false,
            "mutedNotes": [],
            "mutedChords": [],
            "autoStart": true,
            "sourceChordNote": 0,
            "sourceChordType": "Maj7",
            "ctb2Low": null,
            "ctb2Main": {
              "ntr": "ROOT_FIXED",
              "ntt": "BYPASS",
              "bassOn": false,
              "chordRootUpperLimit": 6,
              "noteLowLimit": 0,
              "noteHighLimit": 127,
              "rtr": "PITCH_SHIFT"
            },
            "ctb2High": null,
            "ctb2MiddleLowPitch": 0,
            "ctb2MiddleHighPitch": 127
          },
          "notes": [
            {
              "pitch": 33,
              "velocity": 70,
              "position": 0,
              "duration": 0.00625
            },
            {
              "pitch": 38,
              "velocity": 51,
              "position": 0,
              "duration": 0.00625
            },
            {
              "pitch": 42,
              "velocity": 48,
              "position": 0,
              "duration": 0.00625
            },
            {
              "pitch": 33,
              "velocity": 40,
              "position": 0.5,
              "duration": 0.00625
            },
            {
              "pitch": 42,
              "velocity": 19,
              "position": 0.5,
              "duration": 0.00625
            },
            {
              "pitch": 38,
              "velocity": 84,
              "position": 1,
              "duration": 0.00625
            },
            {
              "pitch": 42,
              "velocity": 68,
              "position": 1,
              "duration": 0.00625
            },
            {
              "pitch": 33,
              "velocity": 46,
              "position": 1.5,
              "duration": 0.00625
            },
            {
              "pitch": 42,
              "velocity": 19,
              "position": 1.5,
              "duration": 0.00625
            },
            {
              "pitch": 33,
              "velocity": 54,
              "position": 2,
              "duration": 0.00625
            },
            {
              "pitch": 42,
              "velocity": 19,
              "position": 2,
              "duration": 0.00625
            },
            {
              "pitch": 38,
              "velocity": 84,
              "position": 2.5,
              "duration": 0.00625
            },
            {
              "pitch": 42,
              "velocity": 68,
              "position": 2.5,
              "duration": 0.00625
            },
            {
              "pitch": 33,
              "velocity": 49,
              "position": 3,
              "duration": 0.00625
            },
            {
              "pitch": 42,
              "velocity": 19,
              "position": 3,
              "duration": 0.00625
            },
            {
              "pitch": 33,
              "velocity": 59,
              "position": 3.5,
              "duration": 0.00625
            },
            {
              "pitch": 42,
              "velocity": 19,
              "position": 3.5,
              "duration": 0.00625
            },
            {
              "pitch": 33,
              "velocity": 71,
              "position": 4,
              "duration": 0.00625
            },
            {
              "pitch": 42,
              "velocity": 48,
              "position": 4,
              "duration": 0.00625
            },
            {
              "pitch": 33,
              "velocity": 40,
              "position": 4.5,
              "duration": 0.00625
            },
            {
              "pitch": 42,
              "velocity": 19,
              "position": 4.5,
              "duration": 0.00625
            },
            {
              "pitch": 38,
              "velocity": 84,
              "position": 5,
              "duration": 0.00625
            },
            {
              "pitch": 42,
              "velocity": 68,
              "position": 5,
              "duration": 0.00625
            },
            {
              "pitch": 33,
              "velocity": 46,
              "position": 5.5,
              "duration": 0.00625
            },
            {
              "pitch": 42,
              "velocity": 19,
              "position": 5.5,
              "duration": 0.00625
            },
            {
              "pitch": 33,
              "velocity": 54,
              "position": 6,
              "duration": 0.00625
            },
            {
              "pitch": 42,
              "velocity": 19,
              "position": 6,
              "duration": 0.00625
            },
            {
              "pitch": 38,
              "velocity": 84,
              "position": 6.5,
              "duration": 0.00625
            },
            {
              "pitch": 42,
              "velocity": 68,
              "position": 6.5,
              "duration": 0.00625
            },
            {
              "pitch": 33,
              "velocity": 49,
              "position": 7,
              "duration": 0.00625
            },
            {
              "pitch": 42,
              "velocity": 19,
              "position": 7,
              "duration": 0.00625
            },
            {
              "pitch": 33,
              "velocity": 59,
              "position": 7.5,
              "duration": 0.00625
            },
            {
              "pitch": 42,
              "velocity": 19,
              "position": 7.5,
              "duration": 0.00625
            },
            {
              "pitch": 33,
              "velocity": 70,
              "position": 8,
              "duration": 0.00625
            },
            {
              "pitch": 38,
              "velocity": 51,
              "position": 8,
              "duration": 0.00625
            },
            {
              "pitch": 42,
              "velocity": 48,
              "position": 8,
              "duration": 0.00625
            },
            {
              "pitch": 33,
              "velocity": 40,
              "position": 8.5,
              "duration": 0.00625
            },
            {
              "pitch": 42,
              "velocity": 19,
              "position": 8.5,
              "duration": 0.00625
            },
            {
              "pitch": 38,
              "velocity": 84,
              "position": 9,
              "duration": 0.00625
            },
            {
              "pitch": 42,
              "velocity": 68,
              "position": 9,
              "duration": 0.00625
            },
            {
              "pitch": 33,
              "velocity": 46,
              "position": 9.5,
              "duration": 0.00625
            },
            {
              "pitch": 42,
              "velocity": 19,
              "position": 9.5,
              "duration": 0.00625
            },
            {
              "pitch": 33,
              "velocity": 54,
              "position": 10,
              "duration": 0.00625
            },
            {
              "pitch": 42,
              "velocity": 19,
              "position": 10,
              "duration": 0.00625
            },
            {
              "pitch": 38,
              "velocity": 84,
              "position": 10.5,
              "duration": 0.00625
            },
            {
              "pitch": 42,
              "velocity": 68,
              "position": 10.5,
              "duration": 0.00625
            },
            {
              "pitch": 33,
              "velocity": 49,
              "position": 11,
              "duration": 0.00625
            },
            {
              "pitch": 42,
              "velocity": 19,
              "position": 11,
              "duration": 0.00625
            },
            {
              "pitch": 33,
              "velocity": 59,
              "position": 11.5,
              "duration": 0.00625
            },
            {
              "pitch": 42,
              "velocity": 19,
              "position": 11.5,
              "duration": 0.00625
            },
            {
              "pitch": 33,
              "velocity": 71,
              "position": 12,
              "duration": 0.00625
            },
            {
              "pitch": 42,
              "velocity": 48,
              "position": 12,
              "duration": 0.00625
            },
            {
              "pitch": 33,
              "velocity": 40,
              "position": 12.5,
              "duration": 0.00625
            },
            {
              "pitch": 42,
              "velocity": 19,
              "position": 12.5,
              "duration": 0.00625
            },
            {
              "pitch": 38,
              "velocity": 84,
              "position": 13,
              "duration": 0.00625
            },
            {
              "pitch": 42,
              "velocity": 68,
              "position": 13,
              "duration": 0.00625
            },
            {
              "pitch": 33,
              "velocity": 46,
              "position": 13.5,
              "duration": 0.00625
            },
            {
              "pitch": 42,
              "velocity": 19,
              "position": 13.5,
              "duration": 0.00625
            },
            {
              "pitch": 33,
              "velocity": 54,
              "position": 14,
              "duration": 0.00625
            },
            {
              "pitch": 42,
              "velocity": 19,
              "position": 14,
              "duration": 0.00625
            },
            {
              "pitch": 38,
              "velocity": 84,
              "position": 14.5,
              "duration": 0.00625
            },
            {
              "pitch": 42,
              "velocity": 68,
              "position": 14.5,
              "duration": 0.00625
            },
            {
              "pitch": 33,
              "velocity": 49,
              "position": 15,
              "duration": 0.00625
            },
            {
              "pitch": 42,
              "velocity": 19,
              "position": 15,
              "duration": 0.00625
            },
            {
              "pitch": 33,
              "velocity": 59,
              "position": 15.5,
              "duration": 0.00625
            },
            {
              "pitch": 42,
              "velocity": 19,
              "position": 15.5,
              "duration": 0.00625
            }
          ]
        },
        "10": {
          "ctab": {
            "srcChannel": 10,
            "name": "Bass",
            "accType": "BASS",
            "editable": false,
            "mutedNotes": [],
            "mutedChords": [],
            "autoStart": false,
            "sourceChordNote": 0,
            "sourceChordType": "Maj7",
            "ctb2Low": null,
            "ctb2Main": {
              "ntr": "ROOT_TRANSPOSITION",
              "ntt": "MELODY",
              "bassOn": true,
              "chordRootUpperLimit": 8,
              "noteLowLimit": 28,
              "noteHighLimit": 127,
              "rtr": "PITCH_SHIFT_TO_ROOT"
            },
            "ctb2High": null,
            "ctb2MiddleLowPitch": 0,
            "ctb2MiddleHighPitch": 127
          },
          "notes": [
            {
              "pitch": 24,
              "velocity": 59,
              "position": 0,
              "duration": 0.4395833333333333
            },
            {
              "pitch": 24,
              "velocity": 60,
              "position": 0.5,
              "duration": 0.4395833333333333
            },
            {
              "pitch": 24,
              "velocity": 59,
              "position": 1,
              "duration": 0.4395833333333333
            },
            {
              "pitch": 24,
              "velocity": 59,
              "position": 1.5,
              "duration": 0.4395833333333333
            },
            {
              "pitch": 24,
              "velocity": 59,
              "position": 2,
              "duration": 0.4395833333333333
            },
            {
              "pitch": 24,
              "velocity": 59,
              "position": 2.5,
              "duration": 0.4395833333333333
            },
            {
              "pitch": 24,
              "velocity": 59,
              "position": 3,
              "duration": 0.4395833333333333
            },
            {
              "pitch": 24,
              "velocity": 59,
              "position": 3.5,
              "duration": 0.4395833333333333
            },
            {
              "pitch": 24,
              "velocity": 59,
              "position": 4,
              "duration": 0.4395833333333333
            },
            {
              "pitch": 24,
              "velocity": 59,
              "position": 4.5,
              "duration": 0.4395833333333333
            },
            {
              "pitch": 24,
              "velocity": 59,
              "position": 5,
              "duration": 0.4395833333333333
            },
            {
              "pitch": 24,
              "velocity": 59,
              "position": 5.5,
              "duration": 0.4395833333333333
            },
            {
              "pitch": 24,
              "velocity": 59,
              "position": 6,
              "duration": 0.4395833333333333
            },
            {
              "pitch": 24,
              "velocity": 59,
              "position": 6.5,
              "duration": 0.4395833333333333
            },
            {
              "pitch": 24,
              "velocity": 59,
              "position": 7,
              "duration": 0.4395833333333333
            },
            {
              "pitch": 24,
              "velocity": 59,
              "position": 7.5,
              "duration": 0.4395833333333333
            },
            {
              "pitch": 24,
              "velocity": 59,
              "position": 8,
              "duration": 0.4395833333333333
            },
            {
              "pitch": 24,
              "velocity": 59,
              "position": 8.5,
              "duration": 0.4395833333333333
            },
            {
              "pitch": 24,
              "velocity": 59,
              "position": 9,
              "duration": 0.4395833333333333
            },
            {
              "pitch": 24,
              "velocity": 59,
              "position": 9.5,
              "duration": 0.4395833333333333
            },
            {
              "pitch": 24,
              "velocity": 59,
              "position": 10,
              "duration": 0.4395833333333333
            },
            {
              "pitch": 24,
              "velocity": 59,
              "position": 10.5,
              "duration": 0.4395833333333333
            },
            {
              "pitch": 24,
              "velocity": 59,
              "position": 11,
              "duration": 0.4395833333333333
            },
            {
              "pitch": 24,
              "velocity": 59,
              "position": 11.5,
              "duration": 0.4395833333333333
            },
            {
              "pitch": 24,
              "velocity": 59,
              "position": 12,
              "duration": 0.4395833333333333
            },
            {
              "pitch": 24,
              "velocity": 59,
              "position": 12.5,
              "duration": 0.4395833333333333
            },
            {
              "pitch": 24,
              "velocity": 59,
              "position": 13,
              "duration": 0.4395833333333333
            },
            {
              "pitch": 24,
              "velocity": 59,
              "position": 13.5,
              "duration": 0.4395833333333333
            },
            {
              "pitch": 24,
              "velocity": 59,
              "position": 14,
              "duration": 0.4395833333333333
            },
            {
              "pitch": 24,
              "velocity": 59,
              "position": 14.5,
              "duration": 0.4395833333333333
            },
            {
              "pitch": 24,
              "velocity": 59,
              "position": 15,
              "duration": 0.4395833333333333
            },
            {
              "pitch": 24,
              "velocity": 59,
              "position": 15.5,
              "duration": 0.4395833333333333
            }
          ]
        },
        "11": {
          "ctab": {
            "srcChannel": 11,
            "name": "Guitar1",
            "accType": "CHORD1",
            "editable": false,
            "mutedNotes": [],
            "mutedChords": [],
            "autoStart": false,
            "sourceChordNote": 0,
            "sourceChordType": "min7(11)",
            "ctb2Low": null,
            "ctb2Main": {
              "ntr": "ROOT_FIXED",
              "ntt": "CHORD",
              "bassOn": false,
              "chordRootUpperLimit": 7,
              "noteLowLimit": 0,
              "noteHighLimit": 127,
              "rtr": "PITCH_SHIFT"
            },
            "ctb2High": null,
            "ctb2MiddleLowPitch": 0,
            "ctb2MiddleHighPitch": 127
          },
          "notes": [
            {
              "pitch": 60,
              "velocity": 52,
              "position": 0,
              "duration": 0.98125
            },
            {
              "pitch": 60,
              "velocity": 41,
              "position": 1,
              "duration": 1.48125
            },
            {
              "pitch": 60,
              "velocity": 40,
              "position": 2.5,
              "duration": 0.98125
            },
            {
              "pitch": 67,
              "velocity": 41,
              "position": 1.5,
              "duration": 2.98125
            },
            {
              "pitch": 60,
              "velocity": 40,
              "position": 3.5,
              "duration": 1.98125
            },
            {
              "pitch": 67,
              "velocity": 40,
              "position": 4.5,
              "duration": 1.98125
            },
            {
              "pitch": 60,
              "velocity": 40,
              "position": 5.5,
              "duration": 1.4833333333333334
            },
            {
              "pitch": 67,
              "velocity": 40,
              "position": 6.5,
              "duration": 0.9833333333333333
            },
            {
              "pitch": 60,
              "velocity": 40,
              "position": 7,
              "duration": 1.98125
            },
            {
              "pitch": 67,
              "velocity": 40,
              "position": 7.5,
              "duration": 1.9708333333333334
            },
            {
              "pitch": 60,
              "velocity": 41,
              "position": 9,
              "duration": 1.48125
            },
            {
              "pitch": 60,
              "velocity": 40,
              "position": 10.5,
              "duration": 0.98125
            },
            {
              "pitch": 67,
              "velocity": 41,
              "position": 9.5,
              "duration": 2.98125
            },
            {
              "pitch": 60,
              "velocity": 40,
              "position": 11.5,
              "duration": 1.98125
            },
            {
              "pitch": 67,
              "velocity": 40,
              "position": 12.5,
              "duration": 1.98125
            },
            {
              "pitch": 60,
              "velocity": 40,
              "position": 13.5,
              "duration": 2.45
            },
            {
              "pitch": 67,
              "velocity": 40,
              "position": 14.5,
              "duration": 1.4708333333333334
            }
          ]
        },
        "12": {
          "ctab": {
            "srcChannel": 12,
            "name": "Piano",
            "accType": "CHORD2",
            "editable": false,
            "mutedNotes": [],
            "mutedChords": [],
            "autoStart": false,
            "sourceChordNote": 0,
            "sourceChordType": "Maj7",
            "ctb2Low": {
              "ntr": "ROOT_TRANSPOSITION",
              "ntt": "MELODY",
              "bassOn": true,
              "chordRootUpperLimit": 3,
              "noteLowLimit": 0,
              "noteHighLimit": 127,
              "rtr": "PITCH_SHIFT"
            },
            "ctb2Main": {
              "ntr": "ROOT_FIXED",
              "ntt": "CHORD",
              "bassOn": false,
              "chordRootUpperLimit": 7,
              "noteLowLimit": 0,
              "noteHighLimit": 127,
              "rtr": "PITCH_SHIFT"
            },
            "ctb2High": null,
            "ctb2MiddleLowPitch": 50,
            "ctb2MiddleHighPitch": 127
          },
          "notes": [
            {
              "pitch": 64,
              "velocity": 93,
              "position": 0,
              "duration": 1.48125
            },
            {
              "pitch": 76,
              "velocity": 98,
              "position": 0,
              "duration": 1.48125
            },
            {
              "pitch": 59,
              "velocity": 55,
              "position": 0.5,
              "duration": 1.48125
            },
            {
              "pitch": 71,
              "velocity": 55,
              "position": 0.5,
              "duration": 1.48125
            },
            {
              "pitch": 48,
              "velocity": 79,
              "position": 0,
              "duration": 2.48125
            },
            {
              "pitch": 55,
              "velocity": 68,
              "position": 1,
              "duration": 1.48125
            },
            {
              "pitch": 67,
              "velocity": 68,
              "position": 1,
              "duration": 1.48125
            },
            {
              "pitch": 64,
              "velocity": 80,
              "position": 1.5,
              "duration": 1.48125
            },
            {
              "pitch": 76,
              "velocity": 88,
              "position": 1.5,
              "duration": 1.48125
            },
            {
              "pitch": 59,
              "velocity": 58,
              "position": 2,
              "duration": 1.48125
            },
            {
              "pitch": 71,
              "velocity": 58,
              "position": 2,
              "duration": 1.48125
            },
            {
              "pitch": 48,
              "velocity": 65,
              "position": 2.5,
              "duration": 1.48125
            },
            {
              "pitch": 64,
              "velocity": 85,
              "position": 3,
              "duration": 0.98125
            },
            {
              "pitch": 76,
              "velocity": 85,
              "position": 3,
              "duration": 0.98125
            },
            {
              "pitch": 59,
              "velocity": 60,
              "position": 3.5,
              "duration": 0.98125
            },
            {
              "pitch": 71,
              "velocity": 60,
              "position": 3.5,
              "duration": 0.98125
            },
            {
              "pitch": 55,
              "velocity": 60,
              "position": 2.5,
              "duration": 2.48125
            },
            {
              "pitch": 67,
              "velocity": 60,
              "position": 2.5,
              "duration": 2.48125
            },
            {
              "pitch": 64,
              "velocity": 80,
              "position": 4,
              "duration": 1.48125
            },
            {
              "pitch": 76,
              "velocity": 80,
              "position": 4,
              "duration": 1.48125
            },
            {
              "pitch": 59,
              "velocity": 63,
              "position": 4.5,
              "duration": 1.48125
            },
            {
              "pitch": 71,
              "velocity": 63,
              "position": 4.5,
              "duration": 1.48125
            },
            {
              "pitch": 48,
              "velocity": 59,
              "position": 4,
              "duration": 2.48125
            },
            {
              "pitch": 55,
              "velocity": 58,
              "position": 5,
              "duration": 1.48125
            },
            {
              "pitch": 67,
              "velocity": 58,
              "position": 5,
              "duration": 1.48125
            },
            {
              "pitch": 64,
              "velocity": 89,
              "position": 5.5,
              "duration": 1.48125
            },
            {
              "pitch": 76,
              "velocity": 89,
              "position": 5.5,
              "duration": 1.48125
            },
            {
              "pitch": 59,
              "velocity": 58,
              "position": 6,
              "duration": 1.48125
            },
            {
              "pitch": 71,
              "velocity": 58,
              "position": 6,
              "duration": 1.48125
            },
            {
              "pitch": 36,
              "velocity": 64,
              "position": 5,
              "duration": 2.825
            },
            {
              "pitch": 48,
              "velocity": 64,
              "position": 6.5,
              "duration": 1.48125
            },
            {
              "pitch": 64,
              "velocity": 84,
              "position": 7,
              "duration": 0.9916666666666667
            },
            {
              "pitch": 76,
              "velocity": 84,
              "position": 7,
              "duration": 0.9916666666666667
            },
            {
              "pitch": 59,
              "velocity": 60,
              "position": 7.5,
              "duration": 0.98125
            },
            {
              "pitch": 71,
              "velocity": 60,
              "position": 7.5,
              "duration": 0.98125
            },
            {
              "pitch": 55,
              "velocity": 60,
              "position": 6.5,
              "duration": 2.48125
            },
            {
              "pitch": 67,
              "velocity": 60,
              "position": 6.5,
              "duration": 2.48125
            },
            {
              "pitch": 64,
              "velocity": 96,
              "position": 8,
              "duration": 1.48125
            },
            {
              "pitch": 76,
              "velocity": 92,
              "position": 8,
              "duration": 1.48125
            },
            {
              "pitch": 59,
              "velocity": 55,
              "position": 8.5,
              "duration": 1.48125
            },
            {
              "pitch": 71,
              "velocity": 55,
              "position": 8.5,
              "duration": 1.48125
            },
            {
              "pitch": 48,
              "velocity": 79,
              "position": 8,
              "duration": 2.48125
            },
            {
              "pitch": 55,
              "velocity": 68,
              "position": 9,
              "duration": 1.48125
            },
            {
              "pitch": 67,
              "velocity": 68,
              "position": 9,
              "duration": 1.48125
            },
            {
              "pitch": 64,
              "velocity": 82,
              "position": 9.5,
              "duration": 1.48125
            },
            {
              "pitch": 76,
              "velocity": 84,
              "position": 9.5,
              "duration": 1.48125
            },
            {
              "pitch": 59,
              "velocity": 58,
              "position": 10,
              "duration": 1.48125
            },
            {
              "pitch": 71,
              "velocity": 58,
              "position": 10,
              "duration": 1.48125
            },
            {
              "pitch": 48,
              "velocity": 65,
              "position": 10.5,
              "duration": 1.48125
            },
            {
              "pitch": 64,
              "velocity": 85,
              "position": 11,
              "duration": 0.98125
            },
            {
              "pitch": 76,
              "velocity": 85,
              "position": 11,
              "duration": 0.98125
            },
            {
              "pitch": 59,
              "velocity": 60,
              "position": 11.5,
              "duration": 0.98125
            },
            {
              "pitch": 71,
              "velocity": 60,
              "position": 11.5,
              "duration": 0.98125
            },
            {
              "pitch": 55,
              "velocity": 60,
              "position": 10.5,
              "duration": 2.48125
            },
            {
              "pitch": 67,
              "velocity": 60,
              "position": 10.5,
              "duration": 2.48125
            },
            {
              "pitch": 64,
              "velocity": 72,
              "position": 12,
              "duration": 1.48125
            },
            {
              "pitch": 76,
              "velocity": 74,
              "position": 12,
              "duration": 1.48125
            },
            {
              "pitch": 59,
              "velocity": 63,
              "position": 12.5,
              "duration": 1.48125
            },
            {
              "pitch": 71,
              "velocity": 63,
              "position": 12.5,
              "duration": 1.48125
            },
            {
              "pitch": 48,
              "velocity": 59,
              "position": 12,
              "duration": 2.48125
            },
            {
              "pitch": 55,
              "velocity": 58,
              "position": 13,
              "duration": 1.48125
            },
            {
              "pitch": 67,
              "velocity": 58,
              "position": 13,
              "duration": 1.48125
            },
            {
              "pitch": 64,
              "velocity": 89,
              "position": 13.5,
              "duration": 1.48125
            },
            {
              "pitch": 76,
              "velocity": 89,
              "position": 13.5,
              "duration": 1.48125
            },
            {
              "pitch": 59,
              "velocity": 58,
              "position": 14,
              "duration": 1.48125
            },
            {
              "pitch": 71,
              "velocity": 58,
              "position": 14,
              "duration": 1.48125
            },
            {
              "pitch": 36,
              "velocity": 64,
              "position": 13,
              "duration": 2.825
            },
            {
              "pitch": 48,
              "velocity": 64,
              "position": 14.5,
              "duration": 1.3354166666666667
            },
            {
              "pitch": 55,
              "velocity": 60,
              "position": 14.5,
              "duration": 1.4916666666666667
            },
            {
              "pitch": 59,
              "velocity": 60,
              "position": 15.5,
              "duration": 0.49166666666666664
            },
            {
              "pitch": 64,
              "velocity": 84,
              "position": 15,
              "duration": 0.9916666666666667
            },
            {
              "pitch": 67,
              "velocity": 60,
              "position": 14.5,
              "duration": 1.4916666666666667
            },
            {
              "pitch": 71,
              "velocity": 60,
              "position": 15.5,
              "duration": 0.49166666666666664
            },
            {
              "pitch": 76,
              "velocity": 84,
              "position": 15,
              "duration": 0.9916666666666667
            }
          ]
        },
        "13": {
          "ctab": {
            "srcChannel": 13,
            "name": "Strings",
            "accType": "PAD",
            "editable": false,
            "mutedNotes": [],
            "mutedChords": [],
            "autoStart": false,
            "sourceChordNote": 0,
            "sourceChordType": "Maj7",
            "ctb2Low": null,
            "ctb2Main": {
              "ntr": "ROOT_FIXED",
              "ntt": "CHORD",
              "bassOn": false,
              "chordRootUpperLimit": 7,
              "noteLowLimit": 0,
              "noteHighLimit": 127,
              "rtr": "PITCH_SHIFT"
            },
            "ctb2High": null,
            "ctb2MiddleLowPitch": 0,
            "ctb2MiddleHighPitch": 127
          },
          "notes": [
            {
              "pitch": 52,
              "velocity": 27,
              "position": 0,
              "duration": 15.98125
            },
            {
              "pitch": 55,
              "velocity": 27,
              "position": 0,
              "duration": 15.98125
            },
            {
              "pitch": 59,
              "velocity": 27,
              "position": 0,
              "duration": 15.98125
            }
          ]
        },
        "14": {
          "ctab": {
            "srcChannel": 14,
            "name": "Organ",
            "accType": "PHRASE1",
            "editable": false,
            "mutedNotes": [],
            "mutedChords": [],
            "autoStart": false,
            "sourceChordNote": 0,
            "sourceChordType": "Maj7",
            "ctb2Low": null,
            "ctb2Main": {
              "ntr": "ROOT_FIXED",
              "ntt": "CHORD",
              "bassOn": false,
              "chordRootUpperLimit": 7,
              "noteLowLimit": 0,
              "noteHighLimit": 127,
              "rtr": "PITCH_SHIFT"
            },
            "ctb2High": null,
            "ctb2MiddleLowPitch": 0,
            "ctb2MiddleHighPitch": 127
          },
          "notes": [
            {
              "pitch": 55,
              "velocity": 40,
              "position": 0,
              "duration": 15.98125
            },
            {
              "pitch": 59,
              "velocity": 40,
              "position": 0,
              "duration": 15.98125
            },
            {
              "pitch": 64,
              "velocity": 40,
              "position": 0,
              "duration": 15.98125
            }
          ]
        },
        "15": {
          "ctab": {
            "srcChannel": 15,
            "name": "Guitar2",
            "accType": "PHRASE2",
            "editable": false,
            "mutedNotes": [],
            "mutedChords": [],
            "autoStart": false,
            "sourceChordNote": 0,
            "sourceChordType": "min7(11)",
            "ctb2Low": null,
            "ctb2Main": {
              "ntr": "ROOT_FIXED",
              "ntt": "CHORD",
              "bassOn": false,
              "chordRootUpperLimit": 7,
              "noteLowLimit": 0,
              "noteHighLimit": 127,
              "rtr": "PITCH_SHIFT"
            },
            "ctb2High": {
              "ntr": "ROOT_FIXED",
              "ntt": "BYPASS",
              "bassOn": false,
              "chordRootUpperLimit": 7,
              "noteLowLimit": 0,
              "noteHighLimit": 127,
              "rtr": "PITCH_SHIFT"
            },
            "ctb2MiddleLowPitch": 0,
            "ctb2MiddleHighPitch": 95
          },
          "notes": [
            {
              "pitch": 111,
              "velocity": 75,
              "position": 0.010416666666666666,
              "duration": 0.2
            },
            {
              "pitch": 48,
              "velocity": 83,
              "position": 0.010416666666666666,
              "duration": 0.4708333333333333
            },
            {
              "pitch": 55,
              "velocity": 83,
              "position": 0.010416666666666666,
              "duration": 0.4708333333333333
            },
            {
              "pitch": 111,
              "velocity": 71,
              "position": 0.5,
              "duration": 0.2
            },
            {
              "pitch": 48,
              "velocity": 79,
              "position": 0.5,
              "duration": 0.4083333333333333
            },
            {
              "pitch": 55,
              "velocity": 79,
              "position": 0.5,
              "duration": 0.4083333333333333
            },
            {
              "pitch": 111,
              "velocity": 71,
              "position": 1,
              "duration": 0.2
            },
            {
              "pitch": 48,
              "velocity": 79,
              "position": 1,
              "duration": 0.4083333333333333
            },
            {
              "pitch": 55,
              "velocity": 79,
              "position": 1,
              "duration": 0.4083333333333333
            },
            {
              "pitch": 111,
              "velocity": 75,
              "position": 1.5,
              "duration": 0.2
            },
            {
              "pitch": 48,
              "velocity": 83,
              "position": 1.5,
              "duration": 0.4083333333333333
            },
            {
              "pitch": 55,
              "velocity": 83,
              "position": 1.5,
              "duration": 0.4083333333333333
            },
            {
              "pitch": 111,
              "velocity": 71,
              "position": 2,
              "duration": 0.2
            },
            {
              "pitch": 48,
              "velocity": 79,
              "position": 2,
              "duration": 0.4083333333333333
            },
            {
              "pitch": 55,
              "velocity": 79,
              "position": 2,
              "duration": 0.4083333333333333
            },
            {
              "pitch": 111,
              "velocity": 71,
              "position": 2.5,
              "duration": 0.2
            },
            {
              "pitch": 48,
              "velocity": 79,
              "position": 2.5,
              "duration": 0.4083333333333333
            },
            {
              "pitch": 55,
              "velocity": 79,
              "position": 2.5,
              "duration": 0.4083333333333333
            },
            {
              "pitch": 111,
              "velocity": 76,
              "position": 3,
              "duration": 0.2
            },
            {
              "pitch": 48,
              "velocity": 84,
              "position": 3,
              "duration": 0.4083333333333333
            },
            {
              "pitch": 55,
              "velocity": 84,
              "position": 3,
              "duration": 0.4083333333333333
            },
            {
              "pitch": 111,
              "velocity": 71,
              "position": 3.5,
              "duration": 0.2
            },
            {
              "pitch": 48,
              "velocity": 79,
              "position": 3.5,
              "duration": 0.4083333333333333
            },
            {
              "pitch": 55,
              "velocity": 79,
              "position": 3.5,
              "duration": 0.4083333333333333
            },
            {
              "pitch": 111,
              "velocity": 75,
              "position": 4.010416666666667,
              "duration": 0.2
            },
            {
              "pitch": 48,
              "velocity": 83,
              "position": 4.010416666666667,
              "duration": 0.4708333333333333
            },
            {
              "pitch": 55,
              "velocity": 83,
              "position": 4.010416666666667,
              "duration": 0.4708333333333333
            },
            {
              "pitch": 111,
              "velocity": 71,
              "position": 4.5,
              "duration": 0.2
            },
            {
              "pitch": 48,
              "velocity": 79,
              "position": 4.5,
              "duration": 0.4083333333333333
            },
            {
              "pitch": 55,
              "velocity": 79,
              "position": 4.5,
              "duration": 0.4083333333333333
            },
            {
              "pitch": 111,
              "velocity": 71,
              "position": 5,
              "duration": 0.2
            },
            {
              "pitch": 48,
              "velocity": 79,
              "position": 5,
              "duration": 0.4083333333333333
            },
            {
              "pitch": 55,
              "velocity": 79,
              "position": 5,
              "duration": 0.4083333333333333
            },
            {
              "pitch": 111,
              "velocity": 75,
              "position": 5.5,
              "duration": 0.2
            },
            {
              "pitch": 48,
              "velocity": 83,
              "position": 5.5,
              "duration": 0.4083333333333333
            },
            {
              "pitch": 55,
              "velocity": 83,
              "position": 5.5,
              "duration": 0.4083333333333333
            },
            {
              "pitch": 111,
              "velocity": 71,
              "position": 6,
              "duration": 0.2
            },
            {
              "pitch": 48,
              "velocity": 79,
              "position": 6,
              "duration": 0.4083333333333333
            },
            {
              "pitch": 55,
              "velocity": 79,
              "position": 6,
              "duration": 0.4083333333333333
            },
            {
              "pitch": 111,
              "velocity": 71,
              "position": 6.5,
              "duration": 0.2
            },
            {
              "pitch": 48,
              "velocity": 79,
              "position": 6.5,
              "duration": 0.4083333333333333
            },
            {
              "pitch": 55,
              "velocity": 79,
              "position": 6.5,
              "duration": 0.4083333333333333
            },
            {
              "pitch": 111,
              "velocity": 76,
              "position": 7,
              "duration": 0.2
            },
            {
              "pitch": 48,
              "velocity": 84,
              "position": 7,
              "duration": 0.4083333333333333
            },
            {
              "pitch": 55,
              "velocity": 84,
              "position": 7,
              "duration": 0.4083333333333333
            },
            {
              "pitch": 111,
              "velocity": 71,
              "position": 7.5,
              "duration": 0.2
            },
            {
              "pitch": 48,
              "velocity": 79,
              "position": 7.5,
              "duration": 0.4083333333333333
            },
            {
              "pitch": 55,
              "velocity": 79,
              "position": 7.5,
              "duration": 0.4083333333333333
            },
            {
              "pitch": 111,
              "velocity": 75,
              "position": 8.010416666666666,
              "duration": 0.2
            },
            {
              "pitch": 48,
              "velocity": 83,
              "position": 8.010416666666666,
              "duration": 0.4708333333333333
            },
            {
              "pitch": 55,
              "velocity": 83,
              "position": 8.010416666666666,
              "duration": 0.4708333333333333
            },
            {
              "pitch": 111,
              "velocity": 71,
              "position": 8.5,
              "duration": 0.2
            },
            {
              "pitch": 48,
              "velocity": 79,
              "position": 8.5,
              "duration": 0.4083333333333333
            },
            {
              "pitch": 55,
              "velocity": 79,
              "position": 8.5,
              "duration": 0.4083333333333333
            },
            {
              "pitch": 111,
              "velocity": 71,
              "position": 9,
              "duration": 0.2
            },
            {
              "pitch": 48,
              "velocity": 79,
              "position": 9,
              "duration": 0.4083333333333333
            },
            {
              "pitch": 55,
              "velocity": 79,
              "position": 9,
              "duration": 0.4083333333333333
            },
            {
              "pitch": 111,
              "velocity": 75,
              "position": 9.5,
              "duration": 0.2
            },
            {
              "pitch": 48,
              "velocity": 83,
              "position": 9.5,
              "duration": 0.4083333333333333
            },
            {
              "pitch": 55,
              "velocity": 83,
              "position": 9.5,
              "duration": 0.4083333333333333
            },
            {
              "pitch": 111,
              "velocity": 71,
              "position": 10,
              "duration": 0.2
            },
            {
              "pitch": 48,
              "velocity": 79,
              "position": 10,
              "duration": 0.4083333333333333
            },
            {
              "pitch": 55,
              "velocity": 79,
              "position": 10,
              "duration": 0.4083333333333333
            },
            {
              "pitch": 111,
              "velocity": 71,
              "position": 10.5,
              "duration": 0.2
            },
            {
              "pitch": 48,
              "velocity": 79,
              "position": 10.5,
              "duration": 0.4083333333333333
            },
            {
              "pitch": 55,
              "velocity": 79,
              "position": 10.5,
              "duration": 0.4083333333333333
            },
            {
              "pitch": 111,
              "velocity": 76,
              "position": 11,
              "duration": 0.2
            },
            {
              "pitch": 48,
              "velocity": 84,
              "position": 11,
              "duration": 0.4083333333333333
            },
            {
              "pitch": 55,
              "velocity": 84,
              "position": 11,
              "duration": 0.4083333333333333
            },
            {
              "pitch": 111,
              "velocity": 71,
              "position": 11.5,
              "duration": 0.2
            },
            {
              "pitch": 48,
              "velocity": 79,
              "position": 11.5,
              "duration": 0.4083333333333333
            },
            {
              "pitch": 55,
              "velocity": 79,
              "position": 11.5,
              "duration": 0.4083333333333333
            },
            {
              "pitch": 111,
              "velocity": 75,
              "position": 12.010416666666666,
              "duration": 0.2
            },
            {
              "pitch": 48,
              "velocity": 83,
              "position": 12.010416666666666,
              "duration": 0.4708333333333333
            },
            {
              "pitch": 55,
              "velocity": 83,
              "position": 12.010416666666666,
              "duration": 0.4708333333333333
            },
            {
              "pitch": 111,
              "velocity": 71,
              "position": 12.5,
              "duration": 0.2
            },
            {
              "pitch": 48,
              "velocity": 79,
              "position": 12.5,
              "duration": 0.4083333333333333
            },
            {
              "pitch": 55,
              "velocity": 79,
              "position": 12.5,
              "duration": 0.4083333333333333
            },
            {
              "pitch": 111,
              "velocity": 71,
              "position": 13,
              "duration": 0.2
            },
            {
              "pitch": 48,
              "velocity": 79,
              "position": 13,
              "duration": 0.4083333333333333
            },
            {
              "pitch": 55,
              "velocity": 79,
              "position": 13,
              "duration": 0.4083333333333333
            },
            {
              "pitch": 111,
              "velocity": 75,
              "position": 13.5,
              "duration": 0.2
            },
            {
              "pitch": 48,
              "velocity": 83,
              "position": 13.5,
              "duration": 0.4083333333333333
            },
            {
              "pitch": 55,
              "velocity": 83,
              "position": 13.5,
              "duration": 0.4083333333333333
            },
            {
              "pitch": 111,
              "velocity": 71,
              "position": 14,
              "duration": 0.2
            },
            {
              "pitch": 48,
              "velocity": 79,
              "position": 14,
              "duration": 0.4083333333333333
            },
            {
              "pitch": 55,
              "velocity": 79,
              "position": 14,
              "duration": 0.4083333333333333
            },
            {
              "pitch": 111,
              "velocity": 71,
              "position": 14.5,
              "duration": 0.2
            },
            {
              "pitch": 48,
              "velocity": 79,
              "position": 14.5,
              "duration": 0.4083333333333333
            },
            {
              "pitch": 55,
              "velocity": 79,
              "position": 14.5,
              "duration": 0.4083333333333333
            },
            {
              "pitch": 111,
              "velocity": 76,
              "position": 15,
              "duration": 0.2
            },
            {
              "pitch": 48,
              "velocity": 84,
              "position": 15,
              "duration": 0.4083333333333333
            },
            {
              "pitch": 55,
              "velocity": 84,
              "position": 15,
              "duration": 0.4083333333333333
            },
            {
              "pitch": 111,
              "velocity": 71,
              "position": 15.5,
              "duration": 0.2
            },
            {
              "pitch": 48,
              "velocity": 79,
              "position": 15.5,
              "duration": 0.4083333333333333
            },
            {
              "pitch": 55,
              "velocity": 79,
              "position": 15.5,
              "duration": 0.4083333333333333
            }
          ]
        }
      }
    },
    "Main_C": {
      "type": "Main_C",
      "sizeInBeats": 16,
      "channels": {
        "4": {
          "ctab": {
            "srcChannel": 4,
            "name": "Pf  rt",
            "accType": "CHORD2",
            "editable": false,
            "mutedNotes": [],
            "mutedChords": [
              "1+2+5",
              "sus4",
              "1+5",
              "1+8",
              "Maj7aug",
              "dim",
              "minMaj7(9)",
              "minMaj7",
              "min6",
              "min",
              "aug",
              "Maj7(9)",
              "Maj7#11",
              "Maj7",
              "Maj6",
              "Maj"
            ],
            "autoStart": false,
            "sourceChordNote": 0,
            "sourceChordType": "Maj7",
            "ctb2Low": null,
            "ctb2Main": {
              "ntr": "ROOT_TRANSPOSITION",
              "ntt": "MELODY",
              "bassOn": false,
              "chordRootUpperLimit": 10,
              "noteLowLimit": 0,
              "noteHighLimit": 127,
              "rtr": "PITCH_SHIFT"
            },
            "ctb2High": null,
            "ctb2MiddleLowPitch": 0,
            "ctb2MiddleHighPitch": 127
          },
          "notes": [
            {
              "pitch": 60,
              "velocity": 86,
              "position": 0.0020833333333333333,
              "duration": 3.9791666666666665
            },
            {
              "pitch": 60,
              "velocity": 86,
              "position": 4,
              "duration": 3.9791666666666665
            },
            {
              "pitch": 60,
              "velocity": 86,
              "position": 8,
              "duration": 3.9791666666666665
            },
            {
              "pitch": 60,
              "velocity": 86,
              "position": 12,
              "duration": 3.9791666666666665
            }
          ]
        },
        "5": {
          "ctab": {
            "srcChannel": 5,
            "name": "Str rt",
            "accType": "PAD",
            "editable": false,
            "mutedNotes": [],
            "mutedChords": [
              "1+2+5",
              "sus4",
              "1+5",
              "1+8",
              "Maj7aug",
              "dim",
              "minMaj7(9)",
              "minMaj7",
              "min6",
              "min",
              "aug",
              "Maj7(9)",
              "Maj7#11",
              "Maj7",
              "Maj6",
              "Maj"
            ],
            "autoStart": false,
            "sourceChordNote": 0,
            "sourceChordType": "Maj7",
            "ctb2Low": null,
            "ctb2Main": {
              "ntr": "ROOT_TRANSPOSITION",
              "ntt": "MELODY",
              "bassOn": false,
              "chordRootUpperLimit": 6,
              "noteLowLimit": 51,
              "noteHighLimit": 127,
              "rtr": "PITCH_SHIFT"
            },
            "ctb2High": null,
            "ctb2MiddleLowPitch": 0,
            "ctb2MiddleHighPitch": 127
          },
          "notes": [
            {
              "pitch": 60,
              "velocity": 27,
              "position": 0,
              "duration": 15.98125
            }
          ]
        },
        "6": {
          "ctab": {
            "srcChannel": 6,
            "name": "Organ rt",
            "accType": "PHRASE1",
            "editable": false,
            "mutedNotes": [],
            "mutedChords": [
              "1+2+5",
              "sus4",
              "1+5",
              "1+8",
              "Maj7aug",
              "dim",
              "minMaj7(9)",
              "minMaj7",
              "min6",
              "min",
              "aug",
              "Maj7(9)",
              "Maj7#11",
              "Maj7",
              "Maj6",
              "Maj"
            ],
            "autoStart": false,
            "sourceChordNote": 0,
            "sourceChordType": "Maj7",
            "ctb2Low": null,
            "ctb2Main": {
              "ntr": "ROOT_TRANSPOSITION",
              "ntt": "MELODY",
              "bassOn": false,
              "chordRootUpperLimit": 6,
              "noteLowLimit": 0,
              "noteHighLimit": 127,
              "rtr": "PITCH_SHIFT"
            },
            "ctb2High": null,
            "ctb2MiddleLowPitch": 0,
            "ctb2MiddleHighPitch": 127
          },
          "notes": [
            {
              "pitch": 60,
              "velocity": 40,
              "position": 0,
              "duration": 15.98125
            }
          ]
        },
        "8": {
          "ctab": {
            "srcChannel": 8,
            "name": "AddDrum",
            "accType": "SUBRHYTHM",
            "editable": false,
            "mutedNotes": [],
            "mutedChords": [],
            "autoStart": true,
            "sourceChordNote": 0,
            "sourceChordType": "Maj7",
            "ctb2Low": null,
            "ctb2Main": {
              "ntr": "ROOT_FIXED",
              "ntt": "BYPASS",
              "bassOn": false,
              "chordRootUpperLimit": 6,
              "noteLowLimit": 0,
              "noteHighLimit": 127,
              "rtr": "PITCH_SHIFT"
            },
            "ctb2High": null,
            "ctb2MiddleLowPitch": 0,
            "ctb2MiddleHighPitch": 127
          },
          "notes": [
            {
              "pitch": 54,
              "velocity": 44,
              "position": 1,
              "duration": 0.00625
            },
            {
              "pitch": 54,
              "velocity": 44,
              "position": 5,
              "duration": 0.00625
            },
            {
              "pitch": 54,
              "velocity": 44,
              "position": 9,
              "duration": 0.00625
            },
            {
              "pitch": 54,
              "velocity": 44,
              "position": 13,
              "duration": 0.00625
            }
          ]
        },
        "9": {
          "ctab": {
            "srcChannel": 9,
            "name": "MainDrum",
            "accType": "RHYTHM",
            "editable": false,
            "mutedNotes": [],
            "mutedChords": [],
            "autoStart": true,
            "sourceChordNote": 0,
            "sourceChordType": "Maj7",
            "ctb2Low": null,
            "ctb2Main": {
              "ntr": "ROOT_FIXED",
              "ntt": "BYPASS",
              "bassOn": false,
              "chordRootUpperLimit": 6,
              "noteLowLimit": 0,
              "noteHighLimit": 127,
              "rtr": "PITCH_SHIFT"
            },
            "ctb2High": null,
            "ctb2MiddleLowPitch": 0,
            "ctb2MiddleHighPitch": 127
          },
          "notes": [
            {
              "pitch": 33,
              "velocity": 74,
              "position": 0,
              "duration": 0.00625
            },
            {
              "pitch": 42,
              "velocity": 70,
              "position": 0,
              "duration": 0.00625
            },
            {
              "pitch": 42,
              "velocity": 20,
              "position": 0.25,
              "duration": 0.00625
            },
            {
              "pitch": 33,
              "velocity": 50,
              "position": 0.5,
              "duration": 0.00625
            },
            {
              "pitch": 42,
              "velocity": 39,
              "position": 0.5,
              "duration": 0.00625
            },
            {
              "pitch": 42,
              "velocity": 20,
              "position": 0.75,
              "duration": 0.00625
            },
            {
              "pitch": 33,
              "velocity": 64,
              "position": 1,
              "duration": 0.00625
            },
            {
              "pitch": 38,
              "velocity": 88,
              "position": 1,
              "duration": 0.00625
            },
            {
              "pitch": 42,
              "velocity": 84,
              "position": 1,
              "duration": 0.00625
            },
            {
              "pitch": 42,
              "velocity": 43,
              "position": 1.5,
              "duration": 0.00625
            },
            {
              "pitch": 33,
              "velocity": 65,
              "position": 2,
              "duration": 0.00625
            },
            {
              "pitch": 42,
              "velocity": 24,
              "position": 2,
              "duration": 0.00625
            },
            {
              "pitch": 38,
              "velocity": 88,
              "position": 2.5,
              "duration": 0.00625
            },
            {
              "pitch": 42,
              "velocity": 70,
              "position": 2.5,
              "duration": 0.00625
            },
            {
              "pitch": 42,
              "velocity": 44,
              "position": 3,
              "duration": 0.00625
            },
            {
              "pitch": 33,
              "velocity": 65,
              "position": 3.5,
              "duration": 0.00625
            },
            {
              "pitch": 42,
              "velocity": 33,
              "position": 3.5,
              "duration": 0.00625
            },
            {
              "pitch": 33,
              "velocity": 75,
              "position": 4,
              "duration": 0.00625
            },
            {
              "pitch": 42,
              "velocity": 70,
              "position": 4,
              "duration": 0.00625
            },
            {
              "pitch": 33,
              "velocity": 50,
              "position": 4.5,
              "duration": 0.00625
            },
            {
              "pitch": 42,
              "velocity": 31,
              "position": 4.5,
              "duration": 0.00625
            },
            {
              "pitch": 33,
              "velocity": 64,
              "position": 5,
              "duration": 0.00625
            },
            {
              "pitch": 38,
              "velocity": 88,
              "position": 5,
              "duration": 0.00625
            },
            {
              "pitch": 42,
              "velocity": 84,
              "position": 5,
              "duration": 0.00625
            },
            {
              "pitch": 42,
              "velocity": 38,
              "position": 5.5,
              "duration": 0.00625
            },
            {
              "pitch": 33,
              "velocity": 65,
              "position": 6,
              "duration": 0.00625
            },
            {
              "pitch": 42,
              "velocity": 27,
              "position": 6,
              "duration": 0.00625
            },
            {
              "pitch": 38,
              "velocity": 88,
              "position": 6.5,
              "duration": 0.00625
            },
            {
              "pitch": 42,
              "velocity": 70,
              "position": 6.5,
              "duration": 0.00625
            },
            {
              "pitch": 42,
              "velocity": 30,
              "position": 7,
              "duration": 0.00625
            },
            {
              "pitch": 33,
              "velocity": 65,
              "position": 7.5,
              "duration": 0.00625
            },
            {
              "pitch": 42,
              "velocity": 39,
              "position": 7.5,
              "duration": 0.00625
            },
            {
              "pitch": 42,
              "velocity": 20,
              "position": 7.75,
              "duration": 0.00625
            },
            {
              "pitch": 33,
              "velocity": 74,
              "position": 8,
              "duration": 0.00625
            },
            {
              "pitch": 42,
              "velocity": 70,
              "position": 8,
              "duration": 0.00625
            },
            {
              "pitch": 42,
              "velocity": 20,
              "position": 8.25,
              "duration": 0.00625
            },
            {
              "pitch": 33,
              "velocity": 50,
              "position": 8.5,
              "duration": 0.00625
            },
            {
              "pitch": 42,
              "velocity": 39,
              "position": 8.5,
              "duration": 0.00625
            },
            {
              "pitch": 42,
              "velocity": 20,
              "position": 8.75,
              "duration": 0.00625
            },
            {
              "pitch": 33,
              "velocity": 64,
              "position": 9,
              "duration": 0.00625
            },
            {
              "pitch": 38,
              "velocity": 88,
              "position": 9,
              "duration": 0.00625
            },
            {
              "pitch": 42,
              "velocity": 84,
              "position": 9,
              "duration": 0.00625
            },
            {
              "pitch": 42,
              "velocity": 43,
              "position": 9.5,
              "duration": 0.00625
            },
            {
              "pitch": 33,
              "velocity": 65,
              "position": 10,
              "duration": 0.00625
            },
            {
              "pitch": 42,
              "velocity": 24,
              "position": 10,
              "duration": 0.00625
            },
            {
              "pitch": 38,
              "velocity": 88,
              "position": 10.5,
              "duration": 0.00625
            },
            {
              "pitch": 42,
              "velocity": 70,
              "position": 10.5,
              "duration": 0.00625
            },
            {
              "pitch": 42,
              "velocity": 44,
              "position": 11,
              "duration": 0.00625
            },
            {
              "pitch": 33,
              "velocity": 65,
              "position": 11.5,
              "duration": 0.00625
            },
            {
              "pitch": 42,
              "velocity": 28,
              "position": 11.5,
              "duration": 0.00625
            },
            {
              "pitch": 33,
              "velocity": 75,
              "position": 12,
              "duration": 0.00625
            },
            {
              "pitch": 42,
              "velocity": 70,
              "position": 12,
              "duration": 0.00625
            },
            {
              "pitch": 33,
              "velocity": 50,
              "position": 12.5,
              "duration": 0.00625
            },
            {
              "pitch": 42,
              "velocity": 31,
              "position": 12.5,
              "duration": 0.00625
            },
            {
              "pitch": 33,
              "velocity": 64,
              "position": 13,
              "duration": 0.00625
            },
            {
              "pitch": 38,
              "velocity": 88,
              "position": 13,
              "duration": 0.00625
            },
            {
              "pitch": 42,
              "velocity": 84,
              "position": 13,
              "duration": 0.00625
            },
            {
              "pitch": 42,
              "velocity": 38,
              "position": 13.5,
              "duration": 0.00625
            },
            {
              "pitch": 33,
              "velocity": 65,
              "position": 14,
              "duration": 0.00625
            },
            {
              "pitch": 42,
              "velocity": 24,
              "position": 14,
              "duration": 0.00625
            },
            {
              "pitch": 38,
              "velocity": 88,
              "position": 14.5,
              "duration": 0.00625
            },
            {
              "pitch": 42,
              "velocity": 70,
              "position": 14.5,
              "duration": 0.00625
            },
            {
              "pitch": 42,
              "velocity": 30,
              "position": 15,
              "duration": 0.00625
            },
            {
              "pitch": 33,
              "velocity": 65,
              "position": 15.5,
              "duration": 0.00625
            },
            {
              "pitch": 42,
              "velocity": 39,
              "position": 15.5,
              "duration": 0.00625
            },
            {
              "pitch": 42,
              "velocity": 20,
              "position": 15.75,
              "duration": 0.00625
            }
          ]
        },
        "10": {
          "ctab": {
            "srcChannel": 10,
            "name": "Bass",
            "accType": "BASS",
            "editable": false,
            "mutedNotes": [],
            "mutedChords": [],
            "autoStart": false,
            "sourceChordNote": 0,
            "sourceChordType": "Maj7",
            "ctb2Low": null,
            "ctb2Main": {
              "ntr": "ROOT_TRANSPOSITION",
              "ntt": "MELODY",
              "bassOn": true,
              "chordRootUpperLimit": 8,
              "noteLowLimit": 28,
              "noteHighLimit": 127,
              "rtr": "PITCH_SHIFT_TO_ROOT"
            },
            "ctb2High": null,
            "ctb2MiddleLowPitch": 0,
            "ctb2MiddleHighPitch": 127
          },
          "notes": [
            {
              "pitch": 24,
              "velocity": 61,
              "position": 0,
              "duration": 0.4395833333333333
            },
            {
              "pitch": 24,
              "velocity": 60,
              "position": 0.5,
              "duration": 0.4395833333333333
            },
            {
              "pitch": 24,
              "velocity": 61,
              "position": 1,
              "duration": 0.4395833333333333
            },
            {
              "pitch": 24,
              "velocity": 60,
              "position": 1.5,
              "duration": 0.4395833333333333
            },
            {
              "pitch": 24,
              "velocity": 61,
              "position": 2,
              "duration": 0.4395833333333333
            },
            {
              "pitch": 24,
              "velocity": 60,
              "position": 2.5,
              "duration": 0.4395833333333333
            },
            {
              "pitch": 24,
              "velocity": 61,
              "position": 3,
              "duration": 0.4395833333333333
            },
            {
              "pitch": 24,
              "velocity": 60,
              "position": 3.5,
              "duration": 0.4395833333333333
            },
            {
              "pitch": 24,
              "velocity": 61,
              "position": 4,
              "duration": 0.4395833333333333
            },
            {
              "pitch": 24,
              "velocity": 60,
              "position": 4.5,
              "duration": 0.4395833333333333
            },
            {
              "pitch": 24,
              "velocity": 61,
              "position": 5,
              "duration": 0.4395833333333333
            },
            {
              "pitch": 24,
              "velocity": 60,
              "position": 5.5,
              "duration": 0.4395833333333333
            },
            {
              "pitch": 24,
              "velocity": 61,
              "position": 6,
              "duration": 0.4395833333333333
            },
            {
              "pitch": 24,
              "velocity": 60,
              "position": 6.5,
              "duration": 0.4395833333333333
            },
            {
              "pitch": 24,
              "velocity": 61,
              "position": 7,
              "duration": 0.4395833333333333
            },
            {
              "pitch": 24,
              "velocity": 60,
              "position": 7.5,
              "duration": 0.4395833333333333
            },
            {
              "pitch": 24,
              "velocity": 61,
              "position": 8,
              "duration": 0.4395833333333333
            },
            {
              "pitch": 24,
              "velocity": 60,
              "position": 8.5,
              "duration": 0.4395833333333333
            },
            {
              "pitch": 24,
              "velocity": 61,
              "position": 9,
              "duration": 0.4395833333333333
            },
            {
              "pitch": 24,
              "velocity": 60,
              "position": 9.5,
              "duration": 0.4395833333333333
            },
            {
              "pitch": 24,
              "velocity": 61,
              "position": 10,
              "duration": 0.4395833333333333
            },
            {
              "pitch": 24,
              "velocity": 60,
              "position": 10.5,
              "duration": 0.4395833333333333
            },
            {
              "pitch": 24,
              "velocity": 61,
              "position": 11,
              "duration": 0.4395833333333333
            },
            {
              "pitch": 24,
              "velocity": 60,
              "position": 11.5,
              "duration": 0.4395833333333333
            },
            {
              "pitch": 24,
              "velocity": 61,
              "position": 12,
              "duration": 0.4395833333333333
            },
            {
              "pitch": 24,
              "velocity": 60,
              "position": 12.5,
              "duration": 0.4395833333333333
            },
            {
              "pitch": 24,
              "velocity": 61,
              "position": 13,
              "duration": 0.4395833333333333
            },
            {
              "pitch": 24,
              "velocity": 60,
              "position": 13.5,
              "duration": 0.4395833333333333
            },
            {
              "pitch": 24,
              "velocity": 61,
              "position": 14,
              "duration": 0.4395833333333333
            },
            {
              "pitch": 24,
              "velocity": 60,
              "position": 14.5,
              "duration": 0.4395833333333333
            },
            {
              "pitch": 24,
              "velocity": 61,
              "position": 15,
              "duration": 0.4395833333333333
            },
            {
              "pitch": 24,
              "velocity": 60,
              "position": 15.5,
              "duration": 0.4395833333333333
            }
          ]
        },
        "11": {
          "ctab": {
            "srcChannel": 11,
            "name": "Guitar1",
            "accType": "CHORD1",
            "editable": false,
            "mutedNotes": [],
            "mutedChords": [],
            "autoStart": false,
            "sourceChordNote": 0,
            "sourceChordType": "min7(11)",
            "ctb2Low": null,
            "ctb2Main": {
              "ntr": "ROOT_FIXED",
              "ntt": "CHORD",
              "bassOn": false,
              "chordRootUpperLimit": 7,
              "noteLowLimit": 0,
              "noteHighLimit": 127,
              "rtr": "PITCH_SHIFT"
            },
            "ctb2High": null,
            "ctb2MiddleLowPitch": 0,
            "ctb2MiddleHighPitch": 127
          },
          "notes": [
            {
              "pitch": 60,
              "velocity": 52,
              "position": 0,
              "duration": 0.98125
            },
            {
              "pitch": 67,
              "velocity": 40,
              "position": 0.5,
              "duration": 0.98125
            },
            {
              "pitch": 60,
              "velocity": 41,
              "position": 1,
              "duration": 0.98125
            },
            {
              "pitch": 67,
              "velocity": 46,
              "position": 1.5,
              "duration": 0.98125
            },
            {
              "pitch": 60,
              "velocity": 40,
              "position": 2,
              "duration": 0.98125
            },
            {
              "pitch": 67,
              "velocity": 40,
              "position": 2.5,
              "duration": 0.98125
            },
            {
              "pitch": 60,
              "velocity": 40,
              "position": 3,
              "duration": 0.98125
            },
            {
              "pitch": 67,
              "velocity": 40,
              "position": 3.5,
              "duration": 0.98125
            },
            {
              "pitch": 60,
              "velocity": 49,
              "position": 4,
              "duration": 0.98125
            },
            {
              "pitch": 67,
              "velocity": 40,
              "position": 4.5,
              "duration": 0.98125
            },
            {
              "pitch": 60,
              "velocity": 40,
              "position": 5,
              "duration": 0.98125
            },
            {
              "pitch": 67,
              "velocity": 46,
              "position": 5.5,
              "duration": 0.98125
            },
            {
              "pitch": 60,
              "velocity": 40,
              "position": 6,
              "duration": 0.98125
            },
            {
              "pitch": 67,
              "velocity": 40,
              "position": 6.5,
              "duration": 0.98125
            },
            {
              "pitch": 60,
              "velocity": 40,
              "position": 7,
              "duration": 0.95
            },
            {
              "pitch": 67,
              "velocity": 40,
              "position": 7.5,
              "duration": 0.98125
            },
            {
              "pitch": 60,
              "velocity": 52,
              "position": 8,
              "duration": 0.98125
            },
            {
              "pitch": 67,
              "velocity": 40,
              "position": 8.5,
              "duration": 0.98125
            },
            {
              "pitch": 60,
              "velocity": 41,
              "position": 9,
              "duration": 0.98125
            },
            {
              "pitch": 67,
              "velocity": 46,
              "position": 9.5,
              "duration": 0.98125
            },
            {
              "pitch": 60,
              "velocity": 40,
              "position": 10,
              "duration": 0.98125
            },
            {
              "pitch": 67,
              "velocity": 40,
              "position": 10.5,
              "duration": 0.98125
            },
            {
              "pitch": 72,
              "velocity": 31,
              "position": 5.5,
              "duration": 6.45
            },
            {
              "pitch": 60,
              "velocity": 40,
              "position": 11,
              "duration": 0.98125
            },
            {
              "pitch": 67,
              "velocity": 40,
              "position": 11.5,
              "duration": 0.98125
            },
            {
              "pitch": 60,
              "velocity": 49,
              "position": 12,
              "duration": 0.98125
            },
            {
              "pitch": 67,
              "velocity": 40,
              "position": 12.5,
              "duration": 0.98125
            },
            {
              "pitch": 60,
              "velocity": 40,
              "position": 13,
              "duration": 0.98125
            },
            {
              "pitch": 67,
              "velocity": 46,
              "position": 13.5,
              "duration": 0.98125
            },
            {
              "pitch": 60,
              "velocity": 40,
              "position": 14,
              "duration": 0.98125
            },
            {
              "pitch": 67,
              "velocity": 40,
              "position": 14.5,
              "duration": 0.98125
            },
            {
              "pitch": 60,
              "velocity": 40,
              "position": 15,
              "duration": 0.95
            },
            {
              "pitch": 67,
              "velocity": 40,
              "position": 15.5,
              "duration": 0.48125
            }
          ]
        },
        "12": {
          "ctab": {
            "srcChannel": 12,
            "name": "Piano",
            "accType": "CHORD2",
            "editable": false,
            "mutedNotes": [],
            "mutedChords": [],
            "autoStart": false,
            "sourceChordNote": 0,
            "sourceChordType": "Maj7",
            "ctb2Low": {
              "ntr": "ROOT_TRANSPOSITION",
              "ntt": "MELODY",
              "bassOn": true,
              "chordRootUpperLimit": 3,
              "noteLowLimit": 0,
              "noteHighLimit": 127,
              "rtr": "PITCH_SHIFT"
            },
            "ctb2Main": {
              "ntr": "ROOT_FIXED",
              "ntt": "CHORD",
              "bassOn": false,
              "chordRootUpperLimit": 7,
              "noteLowLimit": 0,
              "noteHighLimit": 127,
              "rtr": "PITCH_SHIFT"
            },
            "ctb2High": null,
            "ctb2MiddleLowPitch": 50,
            "ctb2MiddleHighPitch": 127
          },
          "notes": [
            {
              "pitch": 36,
              "velocity": 74,
              "position": 0.0020833333333333333,
              "duration": 3.9791666666666665
            },
            {
              "pitch": 48,
              "velocity": 81,
              "position": 0.0020833333333333333,
              "duration": 3.9791666666666665
            },
            {
              "pitch": 55,
              "velocity": 82,
              "position": 0.0020833333333333333,
              "duration": 3.9791666666666665
            },
            {
              "pitch": 59,
              "velocity": 86,
              "position": 0.0020833333333333333,
              "duration": 3.9791666666666665
            },
            {
              "pitch": 64,
              "velocity": 83,
              "position": 0.0020833333333333333,
              "duration": 3.9791666666666665
            },
            {
              "pitch": 67,
              "velocity": 85,
              "position": 0.0020833333333333333,
              "duration": 3.9791666666666665
            },
            {
              "pitch": 36,
              "velocity": 74,
              "position": 4,
              "duration": 3.9791666666666665
            },
            {
              "pitch": 48,
              "velocity": 72,
              "position": 4,
              "duration": 3.9791666666666665
            },
            {
              "pitch": 55,
              "velocity": 72,
              "position": 4,
              "duration": 3.9791666666666665
            },
            {
              "pitch": 59,
              "velocity": 72,
              "position": 4,
              "duration": 3.9791666666666665
            },
            {
              "pitch": 64,
              "velocity": 72,
              "position": 4,
              "duration": 3.9791666666666665
            },
            {
              "pitch": 67,
              "velocity": 72,
              "position": 4,
              "duration": 3.9791666666666665
            },
            {
              "pitch": 36,
              "velocity": 74,
              "position": 8,
              "duration": 3.9791666666666665
            },
            {
              "pitch": 48,
              "velocity": 81,
              "position": 8,
              "duration": 3.9791666666666665
            },
            {
              "pitch": 55,
              "velocity": 82,
              "position": 8,
              "duration": 3.9791666666666665
            },
            {
              "pitch": 59,
              "velocity": 86,
              "position": 8,
              "duration": 3.9791666666666665
            },
            {
              "pitch": 64,
              "velocity": 83,
              "position": 8,
              "duration": 3.9791666666666665
            },
            {
              "pitch": 67,
              "velocity": 85,
              "position": 8,
              "duration": 3.9791666666666665
            },
            {
              "pitch": 36,
              "velocity": 74,
              "position": 12,
              "duration": 3.9791666666666665
            },
            {
              "pitch": 48,
              "velocity": 72,
              "position": 12,
              "duration": 3.9791666666666665
            },
            {
              "pitch": 55,
              "velocity": 72,
              "position": 12,
              "duration": 3.9791666666666665
            },
            {
              "pitch": 59,
              "velocity": 72,
              "position": 12,
              "duration": 3.9791666666666665
            },
            {
              "pitch": 64,
              "velocity": 72,
              "position": 12,
              "duration": 3.9791666666666665
            },
            {
              "pitch": 67,
              "velocity": 72,
              "position": 12,
              "duration": 3.9791666666666665
            }
          ]
        },
        "13": {
          "ctab": {
            "srcChannel": 13,
            "name": "Strings",
            "accType": "PAD",
            "editable": false,
            "mutedNotes": [],
            "mutedChords": [],
            "autoStart": false,
            "sourceChordNote": 0,
            "sourceChordType": "Maj7",
            "ctb2Low": null,
            "ctb2Main": {
              "ntr": "ROOT_FIXED",
              "ntt": "CHORD",
              "bassOn": false,
              "chordRootUpperLimit": 7,
              "noteLowLimit": 0,
              "noteHighLimit": 127,
              "rtr": "PITCH_SHIFT"
            },
            "ctb2High": null,
            "ctb2MiddleLowPitch": 0,
            "ctb2MiddleHighPitch": 127
          },
          "notes": [
            {
              "pitch": 55,
              "velocity": 27,
              "position": 0,
              "duration": 15.98125
            },
            {
              "pitch": 59,
              "velocity": 27,
              "position": 0,
              "duration": 15.98125
            },
            {
              "pitch": 64,
              "velocity": 27,
              "position": 0,
              "duration": 15.98125
            }
          ]
        },
        "14": {
          "ctab": {
            "srcChannel": 14,
            "name": "Organ",
            "accType": "PHRASE1",
            "editable": false,
            "mutedNotes": [],
            "mutedChords": [],
            "autoStart": false,
            "sourceChordNote": 0,
            "sourceChordType": "Maj7",
            "ctb2Low": null,
            "ctb2Main": {
              "ntr": "ROOT_FIXED",
              "ntt": "CHORD",
              "bassOn": false,
              "chordRootUpperLimit": 7,
              "noteLowLimit": 0,
              "noteHighLimit": 127,
              "rtr": "PITCH_SHIFT"
            },
            "ctb2High": null,
            "ctb2MiddleLowPitch": 0,
            "ctb2MiddleHighPitch": 127
          },
          "notes": [
            {
              "pitch": 55,
              "velocity": 40,
              "position": 0,
              "duration": 15.98125
            },
            {
              "pitch": 59,
              "velocity": 40,
              "position": 0,
              "duration": 15.98125
            },
            {
              "pitch": 64,
              "velocity": 40,
              "position": 0,
              "duration": 15.98125
            }
          ]
        },
        "15": {
          "ctab": {
            "srcChannel": 15,
            "name": "Guitar2",
            "accType": "PHRASE2",
            "editable": false,
            "mutedNotes": [],
            "mutedChords": [],
            "autoStart": false,
            "sourceChordNote": 0,
            "sourceChordType": "min7(11)",
            "ctb2Low": null,
            "ctb2Main": {
              "ntr": "ROOT_FIXED",
              "ntt": "CHORD",
              "bassOn": false,
              "chordRootUpperLimit": 7,
              "noteLowLimit": 0,
              "noteHighLimit": 127,
              "rtr": "PITCH_SHIFT"
            },
            "ctb2High": {
              "ntr": "ROOT_FIXED",
              "ntt": "BYPASS",
              "bassOn": false,
              "chordRootUpperLimit": 7,
              "noteLowLimit": 0,
              "noteHighLimit": 127,
              "rtr": "PITCH_SHIFT"
            },
            "ctb2MiddleLowPitch": 0,
            "ctb2MiddleHighPitch": 95
          },
          "notes": [
            {
              "pitch": 111,
              "velocity": 75,
              "position": 0.010416666666666666,
              "duration": 0.2
            },
            {
              "pitch": 48,
              "velocity": 83,
              "position": 0.010416666666666666,
              "duration": 0.4708333333333333
            },
            {
              "pitch": 55,
              "velocity": 83,
              "position": 0.010416666666666666,
              "duration": 0.4708333333333333
            },
            {
              "pitch": 111,
              "velocity": 71,
              "position": 0.5,
              "duration": 0.2
            },
            {
              "pitch": 48,
              "velocity": 79,
              "position": 0.5,
              "duration": 0.4083333333333333
            },
            {
              "pitch": 55,
              "velocity": 79,
              "position": 0.5,
              "duration": 0.4083333333333333
            },
            {
              "pitch": 111,
              "velocity": 71,
              "position": 1,
              "duration": 0.2
            },
            {
              "pitch": 48,
              "velocity": 79,
              "position": 1,
              "duration": 0.4083333333333333
            },
            {
              "pitch": 55,
              "velocity": 79,
              "position": 1,
              "duration": 0.4083333333333333
            },
            {
              "pitch": 111,
              "velocity": 75,
              "position": 1.5,
              "duration": 0.2
            },
            {
              "pitch": 48,
              "velocity": 83,
              "position": 1.5,
              "duration": 0.4083333333333333
            },
            {
              "pitch": 55,
              "velocity": 83,
              "position": 1.5,
              "duration": 0.4083333333333333
            },
            {
              "pitch": 111,
              "velocity": 71,
              "position": 2,
              "duration": 0.2
            },
            {
              "pitch": 48,
              "velocity": 79,
              "position": 2,
              "duration": 0.4083333333333333
            },
            {
              "pitch": 55,
              "velocity": 79,
              "position": 2,
              "duration": 0.4083333333333333
            },
            {
              "pitch": 111,
              "velocity": 71,
              "position": 2.5,
              "duration": 0.2
            },
            {
              "pitch": 48,
              "velocity": 79,
              "position": 2.5,
              "duration": 0.4083333333333333
            },
            {
              "pitch": 55,
              "velocity": 79,
              "position": 2.5,
              "duration": 0.4083333333333333
            },
            {
              "pitch": 111,
              "velocity": 76,
              "position": 3,
              "duration": 0.2
            },
            {
              "pitch": 48,
              "velocity": 84,
              "position": 3,
              "duration": 0.4083333333333333
            },
            {
              "pitch": 55,
              "velocity": 84,
              "position": 3,
              "duration": 0.4083333333333333
            },
            {
              "pitch": 111,
              "velocity": 71,
              "position": 3.5,
              "duration": 0.2
            },
            {
              "pitch": 48,
              "velocity": 79,
              "position": 3.5,
              "duration": 0.4083333333333333
            },
            {
              "pitch": 55,
              "velocity": 79,
              "position": 3.5,
              "duration": 0.4083333333333333
            },
            {
              "pitch": 111,
              "velocity": 75,
              "position": 4.010416666666667,
              "duration": 0.2
            },
            {
              "pitch": 48,
              "velocity": 83,
              "position": 4.010416666666667,
              "duration": 0.4708333333333333
            },
            {
              "pitch": 55,
              "velocity": 83,
              "position": 4.010416666666667,
              "duration": 0.4708333333333333
            },
            {
              "pitch": 111,
              "velocity": 71,
              "position": 4.5,
              "duration": 0.2
            },
            {
              "pitch": 48,
              "velocity": 79,
              "position": 4.5,
              "duration": 0.4083333333333333
            },
            {
              "pitch": 55,
              "velocity": 79,
              "position": 4.5,
              "duration": 0.4083333333333333
            },
            {
              "pitch": 111,
              "velocity": 71,
              "position": 5,
              "duration": 0.2
            },
            {
              "pitch": 48,
              "velocity": 79,
              "position": 5,
              "duration": 0.4083333333333333
            },
            {
              "pitch": 55,
              "velocity": 79,
              "position": 5,
              "duration": 0.4083333333333333
            },
            {
              "pitch": 111,
              "velocity": 75,
              "position": 5.5,
              "duration": 0.2
            },
            {
              "pitch": 48,
              "velocity": 83,
              "position": 5.5,
              "duration": 0.4083333333333333
            },
            {
              "pitch": 55,
              "velocity": 83,
              "position": 5.5,
              "duration": 0.4083333333333333
            },
            {
              "pitch": 111,
              "velocity": 71,
              "position": 6,
              "duration": 0.2
            },
            {
              "pitch": 48,
              "velocity": 79,
              "position": 6,
              "duration": 0.4083333333333333
            },
            {
              "pitch": 55,
              "velocity": 79,
              "position": 6,
              "duration": 0.4083333333333333
            },
            {
              "pitch": 111,
              "velocity": 71,
              "position": 6.5,
              "duration": 0.2
            },
            {
              "pitch": 48,
              "velocity": 79,
              "position": 6.5,
              "duration": 0.4083333333333333
            },
            {
              "pitch": 55,
              "velocity": 79,
              "position": 6.5,
              "duration": 0.4083333333333333
            },
            {
              "pitch": 111,
              "velocity": 76,
              "position": 7,
              "duration": 0.2
            },
            {
              "pitch": 48,
              "velocity": 84,
              "position": 7,
              "duration": 0.4083333333333333
            },
            {
              "pitch": 55,
              "velocity": 84,
              "position": 7,
              "duration": 0.4083333333333333
            },
            {
              "pitch": 111,
              "velocity": 71,
              "position": 7.5,
              "duration": 0.2
            },
            {
              "pitch": 48,
              "velocity": 79,
              "position": 7.5,
              "duration": 0.4083333333333333
            },
            {
              "pitch": 55,
              "velocity": 79,
              "position": 7.5,
              "duration": 0.4083333333333333
            },
            {
              "pitch": 111,
              "velocity": 75,
              "position": 8.010416666666666,
              "duration": 0.2
            },
            {
              "pitch": 48,
              "velocity": 83,
              "position": 8.010416666666666,
              "duration": 0.4708333333333333
            },
            {
              "pitch": 55,
              "velocity": 83,
              "position": 8.010416666666666,
              "duration": 0.4708333333333333
            },
            {
              "pitch": 111,
              "velocity": 71,
              "position": 8.5,
              "duration": 0.2
            },
            {
              "pitch": 48,
              "velocity": 79,
              "position": 8.5,
              "duration": 0.4083333333333333
            },
            {
              "pitch": 55,
              "velocity": 79,
              "position": 8.5,
              "duration": 0.4083333333333333
            },
            {
              "pitch": 111,
              "velocity": 71,
              "position": 9,
              "duration": 0.2
            },
            {
              "pitch": 48,
              "velocity": 79,
              "position": 9,
              "duration": 0.4083333333333333
            },
            {
              "pitch": 55,
              "velocity": 79,
              "position": 9,
              "duration": 0.4083333333333333
            },
            {
              "pitch": 111,
              "velocity": 75,
              "position": 9.5,
              "duration": 0.2
            },
            {
              "pitch": 48,
              "velocity": 83,
              "position": 9.5,
              "duration": 0.4083333333333333
            },
            {
              "pitch": 55,
              "velocity": 83,
              "position": 9.5,
              "duration": 0.4083333333333333
            },
            {
              "pitch": 111,
              "velocity": 71,
              "position": 10,
              "duration": 0.2
            },
            {
              "pitch": 48,
              "velocity": 79,
              "position": 10,
              "duration": 0.4083333333333333
            },
            {
              "pitch": 55,
              "velocity": 79,
              "position": 10,
              "duration": 0.4083333333333333
            },
            {
              "pitch": 111,
              "velocity": 71,
              "position": 10.5,
              "duration": 0.2
            },
            {
              "pitch": 48,
              "velocity": 79,
              "position": 10.5,
              "duration": 0.4083333333333333
            },
            {
              "pitch": 55,
              "velocity": 79,
              "position": 10.5,
              "duration": 0.4083333333333333
            },
            {
              "pitch": 111,
              "velocity": 76,
              "position": 11,
              "duration": 0.2
            },
            {
              "pitch": 48,
              "velocity": 84,
              "position": 11,
              "duration": 0.4083333333333333
            },
            {
              "pitch": 55,
              "velocity": 84,
              "position": 11,
              "duration": 0.4083333333333333
            },
            {
              "pitch": 111,
              "velocity": 71,
              "position": 11.5,
              "duration": 0.2
            },
            {
              "pitch": 48,
              "velocity": 79,
              "position": 11.5,
              "duration": 0.4083333333333333
            },
            {
              "pitch": 55,
              "velocity": 79,
              "position": 11.5,
              "duration": 0.4083333333333333
            },
            {
              "pitch": 111,
              "velocity": 75,
              "position": 12.010416666666666,
              "duration": 0.2
            },
            {
              "pitch": 48,
              "velocity": 83,
              "position": 12.010416666666666,
              "duration": 0.4708333333333333
            },
            {
              "pitch": 55,
              "velocity": 83,
              "position": 12.010416666666666,
              "duration": 0.4708333333333333
            },
            {
              "pitch": 111,
              "velocity": 71,
              "position": 12.5,
              "duration": 0.2
            },
            {
              "pitch": 48,
              "velocity": 79,
              "position": 12.5,
              "duration": 0.4083333333333333
            },
            {
              "pitch": 55,
              "velocity": 79,
              "position": 12.5,
              "duration": 0.4083333333333333
            },
            {
              "pitch": 111,
              "velocity": 71,
              "position": 13,
              "duration": 0.2
            },
            {
              "pitch": 48,
              "velocity": 79,
              "position": 13,
              "duration": 0.4083333333333333
            },
            {
              "pitch": 55,
              "velocity": 79,
              "position": 13,
              "duration": 0.4083333333333333
            },
            {
              "pitch": 111,
              "velocity": 75,
              "position": 13.5,
              "duration": 0.2
            },
            {
              "pitch": 48,
              "velocity": 83,
              "position": 13.5,
              "duration": 0.4083333333333333
            },
            {
              "pitch": 55,
              "velocity": 83,
              "position": 13.5,
              "duration": 0.4083333333333333
            },
            {
              "pitch": 111,
              "velocity": 71,
              "position": 14,
              "duration": 0.2
            },
            {
              "pitch": 48,
              "velocity": 79,
              "position": 14,
              "duration": 0.4083333333333333
            },
            {
              "pitch": 55,
              "velocity": 79,
              "position": 14,
              "duration": 0.4083333333333333
            },
            {
              "pitch": 111,
              "velocity": 71,
              "position": 14.5,
              "duration": 0.2
            },
            {
              "pitch": 48,
              "velocity": 79,
              "position": 14.5,
              "duration": 0.4083333333333333
            },
            {
              "pitch": 55,
              "velocity": 79,
              "position": 14.5,
              "duration": 0.4083333333333333
            },
            {
              "pitch": 111,
              "velocity": 76,
              "position": 15,
              "duration": 0.2
            },
            {
              "pitch": 48,
              "velocity": 84,
              "position": 15,
              "duration": 0.4083333333333333
            },
            {
              "pitch": 55,
              "velocity": 84,
              "position": 15,
              "duration": 0.4083333333333333
            },
            {
              "pitch": 111,
              "velocity": 71,
              "position": 15.5,
              "duration": 0.2
            },
            {
              "pitch": 48,
              "velocity": 79,
              "position": 15.5,
              "duration": 0.4083333333333333
            },
            {
              "pitch": 55,
              "velocity": 79,
              "position": 15.5,
              "duration": 0.4083333333333333
            }
          ]
        }
      }
    },
    "Fill_In_BB": {
      "type": "Fill_In_BB",
      "sizeInBeats": 4,
      "channels": {
        "4": {
          "ctab": {
            "srcChannel": 4,
            "name": "Pf  rt",
            "accType": "CHORD2",
            "editable": false,
            "mutedNotes": [],
            "mutedChords": [
              "1+2+5",
              "sus4",
              "1+5",
              "1+8",
              "Maj7aug",
              "dim",
              "minMaj7(9)",
              "minMaj7",
              "min6",
              "min",
              "aug",
              "Maj7(9)",
              "Maj7#11",
              "Maj7",
              "Maj6",
              "Maj"
            ],
            "autoStart": false,
            "sourceChordNote": 0,
            "sourceChordType": "Maj7",
            "ctb2Low": null,
            "ctb2Main": {
              "ntr": "ROOT_TRANSPOSITION",
              "ntt": "MELODY",
              "bassOn": false,
              "chordRootUpperLimit": 10,
              "noteLowLimit": 0,
              "noteHighLimit": 127,
              "rtr": "PITCH_SHIFT"
            },
            "ctb2High": null,
            "ctb2MiddleLowPitch": 0,
            "ctb2MiddleHighPitch": 127
          },
          "notes": []
        },
        "5": {
          "ctab": {
            "srcChannel": 5,
            "name": "Str rt",
            "accType": "PAD",
            "editable": false,
            "mutedNotes": [],
            "mutedChords": [
              "1+2+5",
              "sus4",
              "1+5",
              "1+8",
              "Maj7aug",
              "dim",
              "minMaj7(9)",
              "minMaj7",
              "min6",
              "min",
              "aug",
              "Maj7(9)",
              "Maj7#11",
              "Maj7",
              "Maj6",
              "Maj"
            ],
            "autoStart": false,
            "sourceChordNote": 0,
            "sourceChordType": "Maj7",
            "ctb2Low": null,
            "ctb2Main": {
              "ntr": "ROOT_TRANSPOSITION",
              "ntt": "MELODY",
              "bassOn": false,
              "chordRootUpperLimit": 6,
              "noteLowLimit": 51,
              "noteHighLimit": 127,
              "rtr": "PITCH_SHIFT"
            },
            "ctb2High": null,
            "ctb2MiddleLowPitch": 0,
            "ctb2MiddleHighPitch": 127
          },
          "notes": [
            {
              "pitch": 48,
              "velocity": 27,
              "position": 0,
              "duration": 3.98125
            }
          ]
        },
        "6": {
          "ctab": {
            "srcChannel": 6,
            "name": "Organ rt",
            "accType": "PHRASE1",
            "editable": false,
            "mutedNotes": [],
            "mutedChords": [
              "1+2+5",
              "sus4",
              "1+5",
              "1+8",
              "Maj7aug",
              "dim",
              "minMaj7(9)",
              "minMaj7",
              "min6",
              "min",
              "aug",
              "Maj7(9)",
              "Maj7#11",
              "Maj7",
              "Maj6",
              "Maj"
            ],
            "autoStart": false,
            "sourceChordNote": 0,
            "sourceChordType": "Maj7",
            "ctb2Low": null,
            "ctb2Main": {
              "ntr": "ROOT_TRANSPOSITION",
              "ntt": "MELODY",
              "bassOn": false,
              "chordRootUpperLimit": 6,
              "noteLowLimit": 0,
              "noteHighLimit": 127,
              "rtr": "PITCH_SHIFT"
            },
            "ctb2High": null,
            "ctb2MiddleLowPitch": 0,
            "ctb2MiddleHighPitch": 127
          },
          "notes": [
            {
              "pitch": 60,
              "velocity": 40,
              "position": 0,
              "duration": 3.98125
            }
          ]
        },
        "8": {
          "ctab": {
            "srcChannel": 8,
            "name": "AddDrum",
            "accType": "SUBRHYTHM",
            "editable": false,
            "mutedNotes": [],
            "mutedChords": [],
            "autoStart": true,
            "sourceChordNote": 0,
            "sourceChordType": "Maj7",
            "ctb2Low": null,
            "ctb2Main": {
              "ntr": "ROOT_FIXED",
              "ntt": "BYPASS",
              "bassOn": false,
              "chordRootUpperLimit": 6,
              "noteLowLimit": 0,
              "noteHighLimit": 127,
              "rtr": "PITCH_SHIFT"
            },
            "ctb2High": null,
            "ctb2MiddleLowPitch": 0,
            "ctb2MiddleHighPitch": 127
          },
          "notes": []
        },
        "9": {
          "ctab": {
            "srcChannel": 9,
            "name": "MainDrum",
            "accType": "RHYTHM",
            "editable": false,
            "mutedNotes": [],
            "mutedChords": [],
            "autoStart": true,
            "sourceChordNote": 0,
            "sourceChordType": "Maj7",
            "ctb2Low": null,
            "ctb2Main": {
              "ntr": "ROOT_FIXED",
              "ntt": "BYPASS",
              "bassOn": false,
              "chordRootUpperLimit": 6,
              "noteLowLimit": 0,
              "noteHighLimit": 127,
              "rtr": "PITCH_SHIFT"
            },
            "ctb2High": null,
            "ctb2MiddleLowPitch": 0,
            "ctb2MiddleHighPitch": 127
          },
          "notes": [
            {
              "pitch": 33,
              "velocity": 71,
              "position": 0,
              "duration": 0.00625
            },
            {
              "pitch": 46,
              "velocity": 52,
              "position": 0,
              "duration": 0.00625
            },
            {
              "pitch": 33,
              "velocity": 40,
              "position": 0.5,
              "duration": 0.00625
            },
            {
              "pitch": 38,
              "velocity": 79,
              "position": 1,
              "duration": 0.00625
            },
            {
              "pitch": 55,
              "velocity": 79,
              "position": 1,
              "duration": 0.00625
            },
            {
              "pitch": 33,
              "velocity": 46,
              "position": 1.5,
              "duration": 0.00625
            },
            {
              "pitch": 42,
              "velocity": 19,
              "position": 1.5,
              "duration": 0.00625
            },
            {
              "pitch": 33,
              "velocity": 54,
              "position": 2,
              "duration": 0.00625
            },
            {
              "pitch": 42,
              "velocity": 19,
              "position": 2,
              "duration": 0.00625
            },
            {
              "pitch": 38,
              "velocity": 84,
              "position": 2.5,
              "duration": 0.00625
            },
            {
              "pitch": 42,
              "velocity": 68,
              "position": 2.5,
              "duration": 0.00625
            },
            {
              "pitch": 49,
              "velocity": 79,
              "position": 2.5,
              "duration": 0.00625
            },
            {
              "pitch": 33,
              "velocity": 49,
              "position": 3,
              "duration": 0.00625
            },
            {
              "pitch": 38,
              "velocity": 84,
              "position": 3,
              "duration": 0.00625
            },
            {
              "pitch": 46,
              "velocity": 53,
              "position": 3,
              "duration": 0.00625
            },
            {
              "pitch": 33,
              "velocity": 59,
              "position": 3.5,
              "duration": 0.00625
            },
            {
              "pitch": 57,
              "velocity": 73,
              "position": 3.9895833333333335,
              "duration": 0.00625
            }
          ]
        },
        "10": {
          "ctab": {
            "srcChannel": 10,
            "name": "Bass",
            "accType": "BASS",
            "editable": false,
            "mutedNotes": [],
            "mutedChords": [],
            "autoStart": false,
            "sourceChordNote": 0,
            "sourceChordType": "Maj7",
            "ctb2Low": null,
            "ctb2Main": {
              "ntr": "ROOT_TRANSPOSITION",
              "ntt": "MELODY",
              "bassOn": true,
              "chordRootUpperLimit": 8,
              "noteLowLimit": 28,
              "noteHighLimit": 127,
              "rtr": "PITCH_SHIFT_TO_ROOT"
            },
            "ctb2High": null,
            "ctb2MiddleLowPitch": 0,
            "ctb2MiddleHighPitch": 127
          },
          "notes": [
            {
              "pitch": 24,
              "velocity": 59,
              "position": 0,
              "duration": 0.4395833333333333
            },
            {
              "pitch": 24,
              "velocity": 59,
              "position": 0.5,
              "duration": 0.4395833333333333
            },
            {
              "pitch": 24,
              "velocity": 59,
              "position": 1,
              "duration": 0.4395833333333333
            },
            {
              "pitch": 24,
              "velocity": 59,
              "position": 1.5,
              "duration": 0.4395833333333333
            },
            {
              "pitch": 24,
              "velocity": 59,
              "position": 2,
              "duration": 0.4395833333333333
            },
            {
              "pitch": 24,
              "velocity": 59,
              "position": 2.5,
              "duration": 0.4395833333333333
            },
            {
              "pitch": 19,
              "velocity": 59,
              "position": 3,
              "duration": 0.4395833333333333
            },
            {
              "pitch": 23,
              "velocity": 59,
              "position": 3.5,
              "duration": 0.4395833333333333
            }
          ]
        },
        "11": {
          "ctab": {
            "srcChannel": 11,
            "name": "Guitar1",
            "accType": "CHORD1",
            "editable": false,
            "mutedNotes": [],
            "mutedChords": [],
            "autoStart": false,
            "sourceChordNote": 0,
            "sourceChordType": "min7(11)",
            "ctb2Low": null,
            "ctb2Main": {
              "ntr": "ROOT_FIXED",
              "ntt": "CHORD",
              "bassOn": false,
              "chordRootUpperLimit": 7,
              "noteLowLimit": 0,
              "noteHighLimit": 127,
              "rtr": "PITCH_SHIFT"
            },
            "ctb2High": null,
            "ctb2MiddleLowPitch": 0,
            "ctb2MiddleHighPitch": 127
          },
          "notes": [
            {
              "pitch": 67,
              "velocity": 50,
              "position": 0,
              "duration": 0.48125
            },
            {
              "pitch": 67,
              "velocity": 40,
              "position": 0.5,
              "duration": 0.48333333333333334
            },
            {
              "pitch": 60,
              "velocity": 40,
              "position": 0,
              "duration": 1.48125
            },
            {
              "pitch": 67,
              "velocity": 32,
              "position": 1,
              "duration": 0.48333333333333334
            },
            {
              "pitch": 67,
              "velocity": 40,
              "position": 1.5,
              "duration": 0.98125
            },
            {
              "pitch": 72,
              "velocity": 50,
              "position": 1.5,
              "duration": 0.9833333333333333
            },
            {
              "pitch": 67,
              "velocity": 40,
              "position": 2.5,
              "duration": 0.48333333333333334
            },
            {
              "pitch": 72,
              "velocity": 45,
              "position": 2.5,
              "duration": 0.48333333333333334
            },
            {
              "pitch": 67,
              "velocity": 30,
              "position": 3,
              "duration": 0.48333333333333334
            },
            {
              "pitch": 72,
              "velocity": 35,
              "position": 3,
              "duration": 0.95
            },
            {
              "pitch": 67,
              "velocity": 40,
              "position": 3.5,
              "duration": 0.4708333333333333
            }
          ]
        },
        "12": {
          "ctab": {
            "srcChannel": 12,
            "name": "Piano",
            "accType": "CHORD2",
            "editable": false,
            "mutedNotes": [],
            "mutedChords": [],
            "autoStart": false,
            "sourceChordNote": 0,
            "sourceChordType": "Maj7",
            "ctb2Low": {
              "ntr": "ROOT_TRANSPOSITION",
              "ntt": "MELODY",
              "bassOn": true,
              "chordRootUpperLimit": 3,
              "noteLowLimit": 0,
              "noteHighLimit": 127,
              "rtr": "PITCH_SHIFT"
            },
            "ctb2Main": {
              "ntr": "ROOT_FIXED",
              "ntt": "CHORD",
              "bassOn": false,
              "chordRootUpperLimit": 7,
              "noteLowLimit": 0,
              "noteHighLimit": 127,
              "rtr": "PITCH_SHIFT"
            },
            "ctb2High": null,
            "ctb2MiddleLowPitch": 50,
            "ctb2MiddleHighPitch": 127
          },
          "notes": [
            {
              "pitch": 59,
              "velocity": 60,
              "position": 0,
              "duration": 0.48125
            },
            {
              "pitch": 71,
              "velocity": 60,
              "position": 0,
              "duration": 0.48125
            },
            {
              "pitch": 55,
              "velocity": 60,
              "position": 0,
              "duration": 0.98125
            },
            {
              "pitch": 67,
              "velocity": 60,
              "position": 0,
              "duration": 0.98125
            },
            {
              "pitch": 64,
              "velocity": 72,
              "position": 0,
              "duration": 1.48125
            },
            {
              "pitch": 76,
              "velocity": 74,
              "position": 0,
              "duration": 1.48125
            },
            {
              "pitch": 59,
              "velocity": 63,
              "position": 0.5,
              "duration": 1.48125
            },
            {
              "pitch": 71,
              "velocity": 63,
              "position": 0.5,
              "duration": 1.48125
            },
            {
              "pitch": 48,
              "velocity": 59,
              "position": 0,
              "duration": 2.48125
            },
            {
              "pitch": 55,
              "velocity": 58,
              "position": 1,
              "duration": 1.48125
            },
            {
              "pitch": 67,
              "velocity": 58,
              "position": 1,
              "duration": 1.48125
            },
            {
              "pitch": 64,
              "velocity": 89,
              "position": 1.5,
              "duration": 1.48125
            },
            {
              "pitch": 76,
              "velocity": 89,
              "position": 1.5,
              "duration": 1.48125
            },
            {
              "pitch": 59,
              "velocity": 58,
              "position": 2,
              "duration": 1.48125
            },
            {
              "pitch": 71,
              "velocity": 58,
              "position": 2,
              "duration": 1.48125
            },
            {
              "pitch": 36,
              "velocity": 64,
              "position": 1,
              "duration": 2.825
            },
            {
              "pitch": 48,
              "velocity": 64,
              "position": 2.5,
              "duration": 1.3354166666666667
            },
            {
              "pitch": 55,
              "velocity": 60,
              "position": 2.5,
              "duration": 1.4916666666666667
            },
            {
              "pitch": 59,
              "velocity": 60,
              "position": 3.5,
              "duration": 0.49166666666666664
            },
            {
              "pitch": 64,
              "velocity": 84,
              "position": 3,
              "duration": 0.9916666666666667
            },
            {
              "pitch": 67,
              "velocity": 60,
              "position": 2.5,
              "duration": 1.4916666666666667
            },
            {
              "pitch": 71,
              "velocity": 60,
              "position": 3.5,
              "duration": 0.49166666666666664
            },
            {
              "pitch": 76,
              "velocity": 84,
              "position": 3,
              "duration": 0.9916666666666667
            }
          ]
        },
        "13": {
          "ctab": {
            "srcChannel": 13,
            "name": "Strings",
            "accType": "PAD",
            "editable": false,
            "mutedNotes": [],
            "mutedChords": [],
            "autoStart": false,
            "sourceChordNote": 0,
            "sourceChordType": "Maj7",
            "ctb2Low": null,
            "ctb2Main": {
              "ntr": "ROOT_FIXED",
              "ntt": "CHORD",
              "bassOn": false,
              "chordRootUpperLimit": 7,
              "noteLowLimit": 0,
              "noteHighLimit": 127,
              "rtr": "PITCH_SHIFT"
            },
            "ctb2High": null,
            "ctb2MiddleLowPitch": 0,
            "ctb2MiddleHighPitch": 127
          },
          "notes": [
            {
              "pitch": 52,
              "velocity": 27,
              "position": 0,
              "duration": 3.98125
            },
            {
              "pitch": 55,
              "velocity": 27,
              "position": 0,
              "duration": 3.98125
            },
            {
              "pitch": 59,
              "velocity": 27,
              "position": 0,
              "duration": 3.98125
            }
          ]
        },
        "14": {
          "ctab": {
            "srcChannel": 14,
            "name": "Organ",
            "accType": "PHRASE1",
            "editable": false,
            "mutedNotes": [],
            "mutedChords": [],
            "autoStart": false,
            "sourceChordNote": 0,
            "sourceChordType": "Maj7",
            "ctb2Low": null,
            "ctb2Main": {
              "ntr": "ROOT_FIXED",
              "ntt": "CHORD",
              "bassOn": false,
              "chordRootUpperLimit": 7,
              "noteLowLimit": 0,
              "noteHighLimit": 127,
              "rtr": "PITCH_SHIFT"
            },
            "ctb2High": null,
            "ctb2MiddleLowPitch": 0,
            "ctb2MiddleHighPitch": 127
          },
          "notes": [
            {
              "pitch": 55,
              "velocity": 40,
              "position": 0,
              "duration": 3.98125
            },
            {
              "pitch": 59,
              "velocity": 40,
              "position": 0,
              "duration": 3.98125
            },
            {
              "pitch": 64,
              "velocity": 40,
              "position": 0,
              "duration": 3.98125
            }
          ]
        },
        "15": {
          "ctab": {
            "srcChannel": 15,
            "name": "Guitar2",
            "accType": "PHRASE2",
            "editable": false,
            "mutedNotes": [],
            "mutedChords": [],
            "autoStart": false,
            "sourceChordNote": 0,
            "sourceChordType": "min7(11)",
            "ctb2Low": null,
            "ctb2Main": {
              "ntr": "ROOT_FIXED",
              "ntt": "CHORD",
              "bassOn": false,
              "chordRootUpperLimit": 7,
              "noteLowLimit": 0,
              "noteHighLimit": 127,
              "rtr": "PITCH_SHIFT"
            },
            "ctb2High": {
              "ntr": "ROOT_FIXED",
              "ntt": "BYPASS",
              "bassOn": false,
              "chordRootUpperLimit": 7,
              "noteLowLimit": 0,
              "noteHighLimit": 127,
              "rtr": "PITCH_SHIFT"
            },
            "ctb2MiddleLowPitch": 0,
            "ctb2MiddleHighPitch": 95
          },
          "notes": [
            {
              "pitch": 111,
              "velocity": 75,
              "position": 0.010416666666666666,
              "duration": 0.2
            },
            {
              "pitch": 48,
              "velocity": 83,
              "position": 0.010416666666666666,
              "duration": 0.4708333333333333
            },
            {
              "pitch": 55,
              "velocity": 83,
              "position": 0.010416666666666666,
              "duration": 0.4708333333333333
            },
            {
              "pitch": 111,
              "velocity": 71,
              "position": 0.5,
              "duration": 0.2
            },
            {
              "pitch": 48,
              "velocity": 79,
              "position": 0.5,
              "duration": 0.4083333333333333
            },
            {
              "pitch": 55,
              "velocity": 79,
              "position": 0.5,
              "duration": 0.4083333333333333
            },
            {
              "pitch": 111,
              "velocity": 71,
              "position": 1,
              "duration": 0.2
            },
            {
              "pitch": 48,
              "velocity": 79,
              "position": 1,
              "duration": 0.4083333333333333
            },
            {
              "pitch": 55,
              "velocity": 79,
              "position": 1,
              "duration": 0.4083333333333333
            },
            {
              "pitch": 111,
              "velocity": 75,
              "position": 1.5,
              "duration": 0.2
            },
            {
              "pitch": 48,
              "velocity": 83,
              "position": 1.5,
              "duration": 0.4083333333333333
            },
            {
              "pitch": 55,
              "velocity": 83,
              "position": 1.5,
              "duration": 0.4083333333333333
            },
            {
              "pitch": 111,
              "velocity": 71,
              "position": 2,
              "duration": 0.2
            },
            {
              "pitch": 48,
              "velocity": 79,
              "position": 2,
              "duration": 0.4083333333333333
            },
            {
              "pitch": 55,
              "velocity": 79,
              "position": 2,
              "duration": 0.4083333333333333
            },
            {
              "pitch": 111,
              "velocity": 71,
              "position": 2.5,
              "duration": 0.2
            },
            {
              "pitch": 48,
              "velocity": 79,
              "position": 2.5,
              "duration": 0.4083333333333333
            },
            {
              "pitch": 55,
              "velocity": 79,
              "position": 2.5,
              "duration": 0.4083333333333333
            },
            {
              "pitch": 111,
              "velocity": 76,
              "position": 3,
              "duration": 0.2
            },
            {
              "pitch": 48,
              "velocity": 84,
              "position": 3,
              "duration": 0.4083333333333333
            },
            {
              "pitch": 55,
              "velocity": 84,
              "position": 3,
              "duration": 0.4083333333333333
            },
            {
              "pitch": 111,
              "velocity": 71,
              "position": 3.5,
              "duration": 0.2
            },
            {
              "pitch": 48,
              "velocity": 79,
              "position": 3.5,
              "duration": 0.4083333333333333
            },
            {
              "pitch": 55,
              "velocity": 79,
              "position": 3.5,
              "duration": 0.4083333333333333
            }
          ]
        }
      }
    },
    "Fill_In_CC": {
      "type": "Fill_In_CC",
      "sizeInBeats": 4,
      "channels": {
        "4": {
          "ctab": {
            "srcChannel": 4,
            "name": "Pf  rt",
            "accType": "CHORD2",
            "editable": false,
            "mutedNotes": [],
            "mutedChords": [
              "1+2+5",
              "sus4",
              "1+5",
              "1+8",
              "Maj7aug",
              "dim",
              "minMaj7(9)",
              "minMaj7",
              "min6",
              "min",
              "aug",
              "Maj7(9)",
              "Maj7#11",
              "Maj7",
              "Maj6",
              "Maj"
            ],
            "autoStart": false,
            "sourceChordNote": 0,
            "sourceChordType": "Maj7",
            "ctb2Low": null,
            "ctb2Main": {
              "ntr": "ROOT_TRANSPOSITION",
              "ntt": "MELODY",
              "bassOn": false,
              "chordRootUpperLimit": 10,
              "noteLowLimit": 0,
              "noteHighLimit": 127,
              "rtr": "PITCH_SHIFT"
            },
            "ctb2High": null,
            "ctb2MiddleLowPitch": 0,
            "ctb2MiddleHighPitch": 127
          },
          "notes": [
            {
              "pitch": 60,
              "velocity": 86,
              "position": 0.0020833333333333333,
              "duration": 3.9791666666666665
            }
          ]
        },
        "5": {
          "ctab": {
            "srcChannel": 5,
            "name": "Str rt",
            "accType": "PAD",
            "editable": false,
            "mutedNotes": [],
            "mutedChords": [
              "1+2+5",
              "sus4",
              "1+5",
              "1+8",
              "Maj7aug",
              "dim",
              "minMaj7(9)",
              "minMaj7",
              "min6",
              "min",
              "aug",
              "Maj7(9)",
              "Maj7#11",
              "Maj7",
              "Maj6",
              "Maj"
            ],
            "autoStart": false,
            "sourceChordNote": 0,
            "sourceChordType": "Maj7",
            "ctb2Low": null,
            "ctb2Main": {
              "ntr": "ROOT_TRANSPOSITION",
              "ntt": "MELODY",
              "bassOn": false,
              "chordRootUpperLimit": 6,
              "noteLowLimit": 51,
              "noteHighLimit": 127,
              "rtr": "PITCH_SHIFT"
            },
            "ctb2High": null,
            "ctb2MiddleLowPitch": 0,
            "ctb2MiddleHighPitch": 127
          },
          "notes": [
            {
              "pitch": 60,
              "velocity": 27,
              "position": 0,
              "duration": 3.98125
            }
          ]
        },
        "6": {
          "ctab": {
            "srcChannel": 6,
            "name": "Organ rt",
            "accType": "PHRASE1",
            "editable": false,
            "mutedNotes": [],
            "mutedChords": [
              "1+2+5",
              "sus4",
              "1+5",
              "1+8",
              "Maj7aug",
              "dim",
              "minMaj7(9)",
              "minMaj7",
              "min6",
              "min",
              "aug",
              "Maj7(9)",
              "Maj7#11",
              "Maj7",
              "Maj6",
              "Maj"
            ],
            "autoStart": false,
            "sourceChordNote": 0,
            "sourceChordType": "Maj7",
            "ctb2Low": null,
            "ctb2Main": {
              "ntr": "ROOT_TRANSPOSITION",
              "ntt": "MELODY",
              "bassOn": false,
              "chordRootUpperLimit": 6,
              "noteLowLimit": 0,
              "noteHighLimit": 127,
              "rtr": "PITCH_SHIFT"
            },
            "ctb2High": null,
            "ctb2MiddleLowPitch": 0,
            "ctb2MiddleHighPitch": 127
          },
          "notes": [
            {
              "pitch": 60,
              "velocity": 40,
              "position": 0,
              "duration": 3.98125
            }
          ]
        },
        "8": {
          "ctab": {
            "srcChannel": 8,
            "name": "AddDrum",
            "accType": "SUBRHYTHM",
            "editable": false,
            "mutedNotes": [],
            "mutedChords": [],
            "autoStart": true,
            "sourceChordNote": 0,
            "sourceChordType": "Maj7",
            "ctb2Low": null,
            "ctb2Main": {
              "ntr": "ROOT_FIXED",
              "ntt": "BYPASS",
              "bassOn": false,
              "chordRootUpperLimit": 6,
              "noteLowLimit": 0,
              "noteHighLimit": 127,
              "rtr": "PITCH_SHIFT"
            },
            "ctb2High": null,
            "ctb2MiddleLowPitch": 0,
            "ctb2MiddleHighPitch": 127
          },
          "notes": [
            {
              "pitch": 54,
              "velocity": 33,
              "position": 1,
              "duration": 0.00625
            }
          ]
        },
        "9": {
          "ctab": {
            "srcChannel": 9,
            "name": "MainDrum",
            "accType": "RHYTHM",
            "editable": false,
            "mutedNotes": [],
            "mutedChords": [],
            "autoStart": true,
            "sourceChordNote": 0,
            "sourceChordType": "Maj7",
            "ctb2Low": null,
            "ctb2Main": {
              "ntr": "ROOT_FIXED",
              "ntt": "BYPASS",
              "bassOn": false,
              "chordRootUpperLimit": 6,
              "noteLowLimit": 0,
              "noteHighLimit": 127,
              "rtr": "PITCH_SHIFT"
            },
            "ctb2High": null,
            "ctb2MiddleLowPitch": 0,
            "ctb2MiddleHighPitch": 127
          },
          "notes": [
            {
              "pitch": 33,
              "velocity": 74,
              "position": 0,
              "duration": 0.00625
            },
            {
              "pitch": 42,
              "velocity": 24,
              "position": 0,
              "duration": 0.00625
            },
            {
              "pitch": 33,
              "velocity": 64,
              "position": 0.5,
              "duration": 0.00625
            },
            {
              "pitch": 38,
              "velocity": 86,
              "position": 0.5,
              "duration": 0.00625
            },
            {
              "pitch": 42,
              "velocity": 70,
              "position": 0.5,
              "duration": 0.00625
            },
            {
              "pitch": 42,
              "velocity": 44,
              "position": 1,
              "duration": 0.00625
            },
            {
              "pitch": 33,
              "velocity": 63,
              "position": 1.5,
              "duration": 0.00625
            },
            {
              "pitch": 42,
              "velocity": 39,
              "position": 1.5,
              "duration": 0.00625
            },
            {
              "pitch": 42,
              "velocity": 20,
              "position": 1.75,
              "duration": 0.00625
            },
            {
              "pitch": 33,
              "velocity": 63,
              "position": 2,
              "duration": 0.00625
            },
            {
              "pitch": 38,
              "velocity": 86,
              "position": 2,
              "duration": 0.00625
            },
            {
              "pitch": 42,
              "velocity": 24,
              "position": 2,
              "duration": 0.00625
            },
            {
              "pitch": 33,
              "velocity": 73,
              "position": 2.5,
              "duration": 0.00625
            },
            {
              "pitch": 44,
              "velocity": 45,
              "position": 2.5,
              "duration": 0.00625
            },
            {
              "pitch": 38,
              "velocity": 34,
              "position": 2.75,
              "duration": 0.00625
            },
            {
              "pitch": 38,
              "velocity": 94,
              "position": 3,
              "duration": 0.00625
            },
            {
              "pitch": 44,
              "velocity": 50,
              "position": 3,
              "duration": 0.00625
            },
            {
              "pitch": 38,
              "velocity": 50,
              "position": 3.25,
              "duration": 0.00625
            },
            {
              "pitch": 33,
              "velocity": 63,
              "position": 3.5,
              "duration": 0.00625
            },
            {
              "pitch": 43,
              "velocity": 76,
              "position": 3.5,
              "duration": 0.00625
            },
            {
              "pitch": 44,
              "velocity": 45,
              "position": 3.5,
              "duration": 0.00625
            },
            {
              "pitch": 49,
              "velocity": 73,
              "position": 3.9895833333333335,
              "duration": 0.00625
            }
          ]
        },
        "10": {
          "ctab": {
            "srcChannel": 10,
            "name": "Bass",
            "accType": "BASS",
            "editable": false,
            "mutedNotes": [],
            "mutedChords": [],
            "autoStart": false,
            "sourceChordNote": 0,
            "sourceChordType": "Maj7",
            "ctb2Low": null,
            "ctb2Main": {
              "ntr": "ROOT_TRANSPOSITION",
              "ntt": "MELODY",
              "bassOn": true,
              "chordRootUpperLimit": 8,
              "noteLowLimit": 28,
              "noteHighLimit": 127,
              "rtr": "PITCH_SHIFT_TO_ROOT"
            },
            "ctb2High": null,
            "ctb2MiddleLowPitch": 0,
            "ctb2MiddleHighPitch": 127
          },
          "notes": [
            {
              "pitch": 24,
              "velocity": 61,
              "position": 0,
              "duration": 0.4395833333333333
            },
            {
              "pitch": 24,
              "velocity": 60,
              "position": 0.5,
              "duration": 0.4395833333333333
            },
            {
              "pitch": 24,
              "velocity": 61,
              "position": 1,
              "duration": 0.4395833333333333
            },
            {
              "pitch": 24,
              "velocity": 60,
              "position": 1.5,
              "duration": 0.4395833333333333
            },
            {
              "pitch": 24,
              "velocity": 61,
              "position": 2,
              "duration": 0.4395833333333333
            },
            {
              "pitch": 24,
              "velocity": 60,
              "position": 2.5,
              "duration": 0.4395833333333333
            },
            {
              "pitch": 24,
              "velocity": 61,
              "position": 3,
              "duration": 0.4395833333333333
            },
            {
              "pitch": 24,
              "velocity": 60,
              "position": 3.5,
              "duration": 0.4395833333333333
            }
          ]
        },
        "11": {
          "ctab": {
            "srcChannel": 11,
            "name": "Guitar1",
            "accType": "CHORD1",
            "editable": false,
            "mutedNotes": [],
            "mutedChords": [],
            "autoStart": false,
            "sourceChordNote": 0,
            "sourceChordType": "min7(11)",
            "ctb2Low": null,
            "ctb2Main": {
              "ntr": "ROOT_FIXED",
              "ntt": "CHORD",
              "bassOn": false,
              "chordRootUpperLimit": 7,
              "noteLowLimit": 0,
              "noteHighLimit": 127,
              "rtr": "PITCH_SHIFT"
            },
            "ctb2High": null,
            "ctb2MiddleLowPitch": 0,
            "ctb2MiddleHighPitch": 127
          },
          "notes": [
            {
              "pitch": 60,
              "velocity": 58,
              "position": 0,
              "duration": 0.48125
            },
            {
              "pitch": 67,
              "velocity": 51,
              "position": 0,
              "duration": 0.48125
            },
            {
              "pitch": 60,
              "velocity": 31,
              "position": 0.5,
              "duration": 0.48125
            },
            {
              "pitch": 67,
              "velocity": 46,
              "position": 0.5,
              "duration": 0.48125
            },
            {
              "pitch": 67,
              "velocity": 51,
              "position": 1,
              "duration": 0.48125
            },
            {
              "pitch": 67,
              "velocity": 51,
              "position": 1.5,
              "duration": 0.48333333333333334
            },
            {
              "pitch": 60,
              "velocity": 51,
              "position": 1,
              "duration": 0.9916666666666667
            },
            {
              "pitch": 67,
              "velocity": 51,
              "position": 2,
              "duration": 0.48125
            },
            {
              "pitch": 72,
              "velocity": 57,
              "position": 2,
              "duration": 0.48125
            },
            {
              "pitch": 67,
              "velocity": 46,
              "position": 2.5,
              "duration": 0.48125
            },
            {
              "pitch": 72,
              "velocity": 43,
              "position": 2.5,
              "duration": 0.48125
            },
            {
              "pitch": 67,
              "velocity": 51,
              "position": 3,
              "duration": 0.48125
            },
            {
              "pitch": 72,
              "velocity": 55,
              "position": 3,
              "duration": 0.98125
            },
            {
              "pitch": 67,
              "velocity": 51,
              "position": 3.5,
              "duration": 0.49166666666666664
            }
          ]
        },
        "12": {
          "ctab": {
            "srcChannel": 12,
            "name": "Piano",
            "accType": "CHORD2",
            "editable": false,
            "mutedNotes": [],
            "mutedChords": [],
            "autoStart": false,
            "sourceChordNote": 0,
            "sourceChordType": "Maj7",
            "ctb2Low": {
              "ntr": "ROOT_TRANSPOSITION",
              "ntt": "MELODY",
              "bassOn": true,
              "chordRootUpperLimit": 3,
              "noteLowLimit": 0,
              "noteHighLimit": 127,
              "rtr": "PITCH_SHIFT"
            },
            "ctb2Main": {
              "ntr": "ROOT_FIXED",
              "ntt": "CHORD",
              "bassOn": false,
              "chordRootUpperLimit": 7,
              "noteLowLimit": 0,
              "noteHighLimit": 127,
              "rtr": "PITCH_SHIFT"
            },
            "ctb2High": null,
            "ctb2MiddleLowPitch": 50,
            "ctb2MiddleHighPitch": 127
          },
          "notes": [
            {
              "pitch": 36,
              "velocity": 74,
              "position": 0.0020833333333333333,
              "duration": 3.9791666666666665
            },
            {
              "pitch": 48,
              "velocity": 81,
              "position": 0.0020833333333333333,
              "duration": 3.9791666666666665
            },
            {
              "pitch": 55,
              "velocity": 82,
              "position": 0.0020833333333333333,
              "duration": 3.9791666666666665
            },
            {
              "pitch": 59,
              "velocity": 86,
              "position": 0.0020833333333333333,
              "duration": 3.9791666666666665
            },
            {
              "pitch": 64,
              "velocity": 83,
              "position": 0.0020833333333333333,
              "duration": 3.9791666666666665
            },
            {
              "pitch": 67,
              "velocity": 85,
              "position": 0.0020833333333333333,
              "duration": 3.9791666666666665
            }
          ]
        },
        "13": {
          "ctab": {
            "srcChannel": 13,
            "name": "Strings",
            "accType": "PAD",
            "editable": false,
            "mutedNotes": [],
            "mutedChords": [],
            "autoStart": false,
            "sourceChordNote": 0,
            "sourceChordType": "Maj7",
            "ctb2Low": null,
            "ctb2Main": {
              "ntr": "ROOT_FIXED",
              "ntt": "CHORD",
              "bassOn": false,
              "chordRootUpperLimit": 7,
              "noteLowLimit": 0,
              "noteHighLimit": 127,
              "rtr": "PITCH_SHIFT"
            },
            "ctb2High": null,
            "ctb2MiddleLowPitch": 0,
            "ctb2MiddleHighPitch": 127
          },
          "notes": [
            {
              "pitch": 55,
              "velocity": 27,
              "position": 0,
              "duration": 3.98125
            },
            {
              "pitch": 59,
              "velocity": 27,
              "position": 0,
              "duration": 3.98125
            },
            {
              "pitch": 64,
              "velocity": 27,
              "position": 0,
              "duration": 3.98125
            }
          ]
        },
        "14": {
          "ctab": {
            "srcChannel": 14,
            "name": "Organ",
            "accType": "PHRASE1",
            "editable": false,
            "mutedNotes": [],
            "mutedChords": [],
            "autoStart": false,
            "sourceChordNote": 0,
            "sourceChordType": "Maj7",
            "ctb2Low": null,
            "ctb2Main": {
              "ntr": "ROOT_FIXED",
              "ntt": "CHORD",
              "bassOn": false,
              "chordRootUpperLimit": 7,
              "noteLowLimit": 0,
              "noteHighLimit": 127,
              "rtr": "PITCH_SHIFT"
            },
            "ctb2High": null,
            "ctb2MiddleLowPitch": 0,
            "ctb2MiddleHighPitch": 127
          },
          "notes": [
            {
              "pitch": 55,
              "velocity": 40,
              "position": 0,
              "duration": 3.98125
            },
            {
              "pitch": 59,
              "velocity": 40,
              "position": 0,
              "duration": 3.98125
            },
            {
              "pitch": 64,
              "velocity": 40,
              "position": 0,
              "duration": 3.98125
            }
          ]
        },
        "15": {
          "ctab": {
            "srcChannel": 15,
            "name": "Guitar2",
            "accType": "PHRASE2",
            "editable": false,
            "mutedNotes": [],
            "mutedChords": [],
            "autoStart": false,
            "sourceChordNote": 0,
            "sourceChordType": "min7(11)",
            "ctb2Low": null,
            "ctb2Main": {
              "ntr": "ROOT_FIXED",
              "ntt": "CHORD",
              "bassOn": false,
              "chordRootUpperLimit": 7,
              "noteLowLimit": 0,
              "noteHighLimit": 127,
              "rtr": "PITCH_SHIFT"
            },
            "ctb2High": {
              "ntr": "ROOT_FIXED",
              "ntt": "BYPASS",
              "bassOn": false,
              "chordRootUpperLimit": 7,
              "noteLowLimit": 0,
              "noteHighLimit": 127,
              "rtr": "PITCH_SHIFT"
            },
            "ctb2MiddleLowPitch": 0,
            "ctb2MiddleHighPitch": 95
          },
          "notes": [
            {
              "pitch": 111,
              "velocity": 75,
              "position": 0.010416666666666666,
              "duration": 0.2
            },
            {
              "pitch": 48,
              "velocity": 83,
              "position": 0.010416666666666666,
              "duration": 0.4708333333333333
            },
            {
              "pitch": 55,
              "velocity": 83,
              "position": 0.010416666666666666,
              "duration": 0.4708333333333333
            },
            {
              "pitch": 111,
              "velocity": 71,
              "position": 0.5,
              "duration": 0.2
            },
            {
              "pitch": 48,
              "velocity": 79,
              "position": 0.5,
              "duration": 0.4083333333333333
            },
            {
              "pitch": 55,
              "velocity": 79,
              "position": 0.5,
              "duration": 0.4083333333333333
            },
            {
              "pitch": 111,
              "velocity": 71,
              "position": 1,
              "duration": 0.2
            },
            {
              "pitch": 48,
              "velocity": 79,
              "position": 1,
              "duration": 0.4083333333333333
            },
            {
              "pitch": 55,
              "velocity": 79,
              "position": 1,
              "duration": 0.4083333333333333
            },
            {
              "pitch": 111,
              "velocity": 75,
              "position": 1.5,
              "duration": 0.2
            },
            {
              "pitch": 48,
              "velocity": 83,
              "position": 1.5,
              "duration": 0.4083333333333333
            },
            {
              "pitch": 55,
              "velocity": 83,
              "position": 1.5,
              "duration": 0.4083333333333333
            },
            {
              "pitch": 111,
              "velocity": 71,
              "position": 2,
              "duration": 0.2
            },
            {
              "pitch": 48,
              "velocity": 79,
              "position": 2,
              "duration": 0.4083333333333333
            },
            {
              "pitch": 55,
              "velocity": 79,
              "position": 2,
              "duration": 0.4083333333333333
            },
            {
              "pitch": 111,
              "velocity": 71,
              "position": 2.5,
              "duration": 0.2
            },
            {
              "pitch": 48,
              "velocity": 79,
              "position": 2.5,
              "duration": 0.4083333333333333
            },
            {
              "pitch": 55,
              "velocity": 79,
              "position": 2.5,
              "duration": 0.4083333333333333
            },
            {
              "pitch": 111,
              "velocity": 76,
              "position": 3,
              "duration": 0.2
            },
            {
              "pitch": 48,
              "velocity": 84,
              "position": 3,
              "duration": 0.4083333333333333
            },
            {
              "pitch": 55,
              "velocity": 84,
              "position": 3,
              "duration": 0.4083333333333333
            },
            {
              "pitch": 111,
              "velocity": 71,
              "position": 3.5,
              "duration": 0.2
            },
            {
              "pitch": 48,
              "velocity": 79,
              "position": 3.5,
              "duration": 0.4083333333333333
            },
            {
              "pitch": 55,
              "velocity": 79,
              "position": 3.5,
              "duration": 0.4083333333333333
            }
          ]
        }
      }
    },
    "Main_D": {
      "type": "Main_D",
      "sizeInBeats": 16,
      "channels": {
        "4": {
          "ctab": {
            "srcChannel": 4,
            "name": "Pf  rt",
            "accType": "CHORD2",
            "editable": false,
            "mutedNotes": [],
            "mutedChords": [
              "1+2+5",
              "sus4",
              "1+5",
              "1+8",
              "Maj7aug",
              "dim",
              "minMaj7(9)",
              "minMaj7",
              "min6",
              "min",
              "aug",
              "Maj7(9)",
              "Maj7#11",
              "Maj7",
              "Maj6",
              "Maj"
            ],
            "autoStart": false,
            "sourceChordNote": 0,
            "sourceChordType": "Maj7",
            "ctb2Low": null,
            "ctb2Main": {
              "ntr": "ROOT_TRANSPOSITION",
              "ntt": "MELODY",
              "bassOn": false,
              "chordRootUpperLimit": 10,
              "noteLowLimit": 0,
              "noteHighLimit": 127,
              "rtr": "PITCH_SHIFT"
            },
            "ctb2High": null,
            "ctb2MiddleLowPitch": 0,
            "ctb2MiddleHighPitch": 127
          },
          "notes": [
            {
              "pitch": 60,
              "velocity": 86,
              "position": 0.0020833333333333333,
              "duration": 1.4791666666666667
            },
            {
              "pitch": 60,
              "velocity": 75,
              "position": 1.5,
              "duration": 1.4791666666666667
            },
            {
              "pitch": 60,
              "velocity": 86,
              "position": 3,
              "duration": 0.9791666666666666
            },
            {
              "pitch": 60,
              "velocity": 86,
              "position": 4,
              "duration": 2.9791666666666665
            },
            {
              "pitch": 60,
              "velocity": 80,
              "position": 7,
              "duration": 0.9791666666666666
            },
            {
              "pitch": 60,
              "velocity": 77,
              "position": 8,
              "duration": 2.9791666666666665
            },
            {
              "pitch": 60,
              "velocity": 74,
              "position": 11,
              "duration": 0.9791666666666666
            },
            {
              "pitch": 60,
              "velocity": 80,
              "position": 12,
              "duration": 2.9791666666666665
            },
            {
              "pitch": 60,
              "velocity": 69,
              "position": 15,
              "duration": 0.9791666666666666
            }
          ]
        },
        "5": {
          "ctab": {
            "srcChannel": 5,
            "name": "Str rt",
            "accType": "PAD",
            "editable": false,
            "mutedNotes": [],
            "mutedChords": [
              "1+2+5",
              "sus4",
              "1+5",
              "1+8",
              "Maj7aug",
              "dim",
              "minMaj7(9)",
              "minMaj7",
              "min6",
              "min",
              "aug",
              "Maj7(9)",
              "Maj7#11",
              "Maj7",
              "Maj6",
              "Maj"
            ],
            "autoStart": false,
            "sourceChordNote": 0,
            "sourceChordType": "Maj7",
            "ctb2Low": null,
            "ctb2Main": {
              "ntr": "ROOT_TRANSPOSITION",
              "ntt": "MELODY",
              "bassOn": false,
              "chordRootUpperLimit": 6,
              "noteLowLimit": 0,
              "noteHighLimit": 127,
              "rtr": "PITCH_SHIFT"
            },
            "ctb2High": null,
            "ctb2MiddleLowPitch": 0,
            "ctb2MiddleHighPitch": 127
          },
          "notes": [
            {
              "pitch": 72,
              "velocity": 55,
              "position": 0,
              "duration": 5.98125
            },
            {
              "pitch": 72,
              "velocity": 55,
              "position": 6,
              "duration": 1.98125
            },
            {
              "pitch": 72,
              "velocity": 55,
              "position": 8,
              "duration": 5.98125
            },
            {
              "pitch": 72,
              "velocity": 55,
              "position": 14,
              "duration": 1.98125
            }
          ]
        },
        "6": {
          "ctab": {
            "srcChannel": 6,
            "name": "Organ rt",
            "accType": "PHRASE1",
            "editable": false,
            "mutedNotes": [],
            "mutedChords": [
              "1+2+5",
              "sus4",
              "1+5",
              "1+8",
              "Maj7aug",
              "dim",
              "minMaj7(9)",
              "minMaj7",
              "min6",
              "min",
              "aug",
              "Maj7(9)",
              "Maj7#11",
              "Maj7",
              "Maj6",
              "Maj"
            ],
            "autoStart": false,
            "sourceChordNote": 0,
            "sourceChordType": "Maj7",
            "ctb2Low": null,
            "ctb2Main": {
              "ntr": "ROOT_TRANSPOSITION",
              "ntt": "MELODY",
              "bassOn": false,
              "chordRootUpperLimit": 6,
              "noteLowLimit": 0,
              "noteHighLimit": 127,
              "rtr": "PITCH_SHIFT"
            },
            "ctb2High": null,
            "ctb2MiddleLowPitch": 0,
            "ctb2MiddleHighPitch": 127
          },
          "notes": [
            {
              "pitch": 72,
              "velocity": 44,
              "position": 0,
              "duration": 15.98125
            }
          ]
        },
        "8": {
          "ctab": {
            "srcChannel": 8,
            "name": "AddDrum",
            "accType": "SUBRHYTHM",
            "editable": false,
            "mutedNotes": [],
            "mutedChords": [],
            "autoStart": true,
            "sourceChordNote": 0,
            "sourceChordType": "Maj7",
            "ctb2Low": null,
            "ctb2Main": {
              "ntr": "ROOT_FIXED",
              "ntt": "BYPASS",
              "bassOn": false,
              "chordRootUpperLimit": 6,
              "noteLowLimit": 0,
              "noteHighLimit": 127,
              "rtr": "PITCH_SHIFT"
            },
            "ctb2High": null,
            "ctb2MiddleLowPitch": 0,
            "ctb2MiddleHighPitch": 127
          },
          "notes": [
            {
              "pitch": 54,
              "velocity": 80,
              "position": 0,
              "duration": 0.00625
            },
            {
              "pitch": 54,
              "velocity": 21,
              "position": 0.25,
              "duration": 0.00625
            },
            {
              "pitch": 54,
              "velocity": 36,
              "position": 0.5,
              "duration": 0.00625
            },
            {
              "pitch": 54,
              "velocity": 21,
              "position": 0.75,
              "duration": 0.00625
            },
            {
              "pitch": 54,
              "velocity": 80,
              "position": 1,
              "duration": 0.00625
            },
            {
              "pitch": 54,
              "velocity": 23,
              "position": 1.25,
              "duration": 0.00625
            },
            {
              "pitch": 54,
              "velocity": 34,
              "position": 1.5,
              "duration": 0.00625
            },
            {
              "pitch": 54,
              "velocity": 25,
              "position": 1.75,
              "duration": 0.00625
            },
            {
              "pitch": 54,
              "velocity": 80,
              "position": 2,
              "duration": 0.00625
            },
            {
              "pitch": 54,
              "velocity": 27,
              "position": 2.25,
              "duration": 0.00625
            },
            {
              "pitch": 54,
              "velocity": 37,
              "position": 2.5,
              "duration": 0.00625
            },
            {
              "pitch": 54,
              "velocity": 25,
              "position": 2.75,
              "duration": 0.00625
            },
            {
              "pitch": 54,
              "velocity": 80,
              "position": 3,
              "duration": 0.00625
            },
            {
              "pitch": 54,
              "velocity": 33,
              "position": 3.25,
              "duration": 0.00625
            },
            {
              "pitch": 54,
              "velocity": 24,
              "position": 3.5,
              "duration": 0.00625
            },
            {
              "pitch": 54,
              "velocity": 33,
              "position": 3.75,
              "duration": 0.00625
            },
            {
              "pitch": 54,
              "velocity": 80,
              "position": 4,
              "duration": 0.00625
            },
            {
              "pitch": 54,
              "velocity": 27,
              "position": 4.25,
              "duration": 0.00625
            },
            {
              "pitch": 54,
              "velocity": 37,
              "position": 4.5,
              "duration": 0.00625
            },
            {
              "pitch": 54,
              "velocity": 25,
              "position": 4.75,
              "duration": 0.00625
            },
            {
              "pitch": 54,
              "velocity": 80,
              "position": 5,
              "duration": 0.00625
            },
            {
              "pitch": 54,
              "velocity": 33,
              "position": 5.25,
              "duration": 0.00625
            },
            {
              "pitch": 54,
              "velocity": 24,
              "position": 5.5,
              "duration": 0.00625
            },
            {
              "pitch": 54,
              "velocity": 33,
              "position": 5.75,
              "duration": 0.00625
            },
            {
              "pitch": 54,
              "velocity": 80,
              "position": 6,
              "duration": 0.00625
            },
            {
              "pitch": 54,
              "velocity": 27,
              "position": 6.25,
              "duration": 0.00625
            },
            {
              "pitch": 54,
              "velocity": 37,
              "position": 6.5,
              "duration": 0.00625
            },
            {
              "pitch": 54,
              "velocity": 25,
              "position": 6.75,
              "duration": 0.00625
            },
            {
              "pitch": 54,
              "velocity": 80,
              "position": 7,
              "duration": 0.00625
            },
            {
              "pitch": 54,
              "velocity": 33,
              "position": 7.25,
              "duration": 0.00625
            },
            {
              "pitch": 54,
              "velocity": 24,
              "position": 7.5,
              "duration": 0.00625
            },
            {
              "pitch": 54,
              "velocity": 33,
              "position": 7.75,
              "duration": 0.00625
            },
            {
              "pitch": 54,
              "velocity": 80,
              "position": 8,
              "duration": 0.00625
            },
            {
              "pitch": 54,
              "velocity": 21,
              "position": 8.25,
              "duration": 0.00625
            },
            {
              "pitch": 54,
              "velocity": 36,
              "position": 8.5,
              "duration": 0.00625
            },
            {
              "pitch": 54,
              "velocity": 21,
              "position": 8.75,
              "duration": 0.00625
            },
            {
              "pitch": 54,
              "velocity": 80,
              "position": 9,
              "duration": 0.00625
            },
            {
              "pitch": 54,
              "velocity": 23,
              "position": 9.25,
              "duration": 0.00625
            },
            {
              "pitch": 54,
              "velocity": 34,
              "position": 9.5,
              "duration": 0.00625
            },
            {
              "pitch": 54,
              "velocity": 25,
              "position": 9.75,
              "duration": 0.00625
            },
            {
              "pitch": 54,
              "velocity": 80,
              "position": 10,
              "duration": 0.00625
            },
            {
              "pitch": 54,
              "velocity": 27,
              "position": 10.25,
              "duration": 0.00625
            },
            {
              "pitch": 54,
              "velocity": 37,
              "position": 10.5,
              "duration": 0.00625
            },
            {
              "pitch": 54,
              "velocity": 25,
              "position": 10.75,
              "duration": 0.00625
            },
            {
              "pitch": 54,
              "velocity": 80,
              "position": 11,
              "duration": 0.00625
            },
            {
              "pitch": 54,
              "velocity": 33,
              "position": 11.25,
              "duration": 0.00625
            },
            {
              "pitch": 54,
              "velocity": 24,
              "position": 11.5,
              "duration": 0.00625
            },
            {
              "pitch": 54,
              "velocity": 33,
              "position": 11.75,
              "duration": 0.00625
            },
            {
              "pitch": 54,
              "velocity": 80,
              "position": 12,
              "duration": 0.00625
            },
            {
              "pitch": 54,
              "velocity": 27,
              "position": 12.25,
              "duration": 0.00625
            },
            {
              "pitch": 54,
              "velocity": 37,
              "position": 12.5,
              "duration": 0.00625
            },
            {
              "pitch": 54,
              "velocity": 25,
              "position": 12.75,
              "duration": 0.00625
            },
            {
              "pitch": 54,
              "velocity": 80,
              "position": 13,
              "duration": 0.00625
            },
            {
              "pitch": 54,
              "velocity": 33,
              "position": 13.25,
              "duration": 0.00625
            },
            {
              "pitch": 54,
              "velocity": 24,
              "position": 13.5,
              "duration": 0.00625
            },
            {
              "pitch": 54,
              "velocity": 33,
              "position": 13.75,
              "duration": 0.00625
            },
            {
              "pitch": 54,
              "velocity": 80,
              "position": 14,
              "duration": 0.00625
            },
            {
              "pitch": 54,
              "velocity": 27,
              "position": 14.25,
              "duration": 0.00625
            },
            {
              "pitch": 54,
              "velocity": 37,
              "position": 14.5,
              "duration": 0.00625
            },
            {
              "pitch": 54,
              "velocity": 25,
              "position": 14.75,
              "duration": 0.00625
            },
            {
              "pitch": 54,
              "velocity": 80,
              "position": 15,
              "duration": 0.00625
            },
            {
              "pitch": 54,
              "velocity": 33,
              "position": 15.25,
              "duration": 0.00625
            },
            {
              "pitch": 54,
              "velocity": 24,
              "position": 15.5,
              "duration": 0.00625
            },
            {
              "pitch": 54,
              "velocity": 33,
              "position": 15.75,
              "duration": 0.00625
            }
          ]
        },
        "9": {
          "ctab": {
            "srcChannel": 9,
            "name": "MainDrum",
            "accType": "RHYTHM",
            "editable": false,
            "mutedNotes": [],
            "mutedChords": [],
            "autoStart": true,
            "sourceChordNote": 0,
            "sourceChordType": "Maj7",
            "ctb2Low": null,
            "ctb2Main": {
              "ntr": "ROOT_FIXED",
              "ntt": "BYPASS",
              "bassOn": false,
              "chordRootUpperLimit": 6,
              "noteLowLimit": 0,
              "noteHighLimit": 127,
              "rtr": "PITCH_SHIFT"
            },
            "ctb2High": null,
            "ctb2MiddleLowPitch": 0,
            "ctb2MiddleHighPitch": 127
          },
          "notes": [
            {
              "pitch": 33,
              "velocity": 75,
              "position": 0,
              "duration": 0.00625
            },
            {
              "pitch": 44,
              "velocity": 70,
              "position": 0,
              "duration": 0.00625
            },
            {
              "pitch": 51,
              "velocity": 70,
              "position": 0,
              "duration": 0.00625
            },
            {
              "pitch": 53,
              "velocity": 73,
              "position": 0.49375,
              "duration": 0.00625
            },
            {
              "pitch": 38,
              "velocity": 100,
              "position": 1,
              "duration": 0.00625
            },
            {
              "pitch": 44,
              "velocity": 70,
              "position": 1,
              "duration": 0.00625
            },
            {
              "pitch": 51,
              "velocity": 65,
              "position": 1,
              "duration": 0.00625
            },
            {
              "pitch": 53,
              "velocity": 73,
              "position": 1.49375,
              "duration": 0.00625
            },
            {
              "pitch": 33,
              "velocity": 75,
              "position": 2,
              "duration": 0.00625
            },
            {
              "pitch": 44,
              "velocity": 70,
              "position": 2,
              "duration": 0.00625
            },
            {
              "pitch": 51,
              "velocity": 70,
              "position": 2,
              "duration": 0.00625
            },
            {
              "pitch": 53,
              "velocity": 78,
              "position": 2.49375,
              "duration": 0.00625
            },
            {
              "pitch": 38,
              "velocity": 100,
              "position": 3,
              "duration": 0.00625
            },
            {
              "pitch": 44,
              "velocity": 70,
              "position": 3,
              "duration": 0.00625
            },
            {
              "pitch": 51,
              "velocity": 65,
              "position": 3,
              "duration": 0.00625
            },
            {
              "pitch": 53,
              "velocity": 73,
              "position": 3.49375,
              "duration": 0.00625
            },
            {
              "pitch": 33,
              "velocity": 75,
              "position": 4,
              "duration": 0.00625
            },
            {
              "pitch": 44,
              "velocity": 70,
              "position": 4,
              "duration": 0.00625
            },
            {
              "pitch": 51,
              "velocity": 70,
              "position": 4,
              "duration": 0.00625
            },
            {
              "pitch": 53,
              "velocity": 73,
              "position": 4.49375,
              "duration": 0.00625
            },
            {
              "pitch": 38,
              "velocity": 100,
              "position": 5,
              "duration": 0.00625
            },
            {
              "pitch": 44,
              "velocity": 70,
              "position": 5,
              "duration": 0.00625
            },
            {
              "pitch": 51,
              "velocity": 70,
              "position": 5,
              "duration": 0.00625
            },
            {
              "pitch": 53,
              "velocity": 80,
              "position": 5.49375,
              "duration": 0.00625
            },
            {
              "pitch": 33,
              "velocity": 75,
              "position": 6,
              "duration": 0.00625
            },
            {
              "pitch": 44,
              "velocity": 70,
              "position": 6,
              "duration": 0.00625
            },
            {
              "pitch": 51,
              "velocity": 70,
              "position": 6,
              "duration": 0.00625
            },
            {
              "pitch": 53,
              "velocity": 73,
              "position": 6.49375,
              "duration": 0.00625
            },
            {
              "pitch": 33,
              "velocity": 75,
              "position": 6.5,
              "duration": 0.00625
            },
            {
              "pitch": 38,
              "velocity": 100,
              "position": 7,
              "duration": 0.00625
            },
            {
              "pitch": 44,
              "velocity": 70,
              "position": 7,
              "duration": 0.00625
            },
            {
              "pitch": 51,
              "velocity": 70,
              "position": 7,
              "duration": 0.00625
            },
            {
              "pitch": 53,
              "velocity": 73,
              "position": 7.49375,
              "duration": 0.00625
            },
            {
              "pitch": 33,
              "velocity": 75,
              "position": 8,
              "duration": 0.00625
            },
            {
              "pitch": 44,
              "velocity": 70,
              "position": 8,
              "duration": 0.00625
            },
            {
              "pitch": 51,
              "velocity": 70,
              "position": 8,
              "duration": 0.00625
            },
            {
              "pitch": 53,
              "velocity": 73,
              "position": 8.49375,
              "duration": 0.00625
            },
            {
              "pitch": 38,
              "velocity": 100,
              "position": 9,
              "duration": 0.00625
            },
            {
              "pitch": 44,
              "velocity": 70,
              "position": 9,
              "duration": 0.00625
            },
            {
              "pitch": 51,
              "velocity": 70,
              "position": 9,
              "duration": 0.00625
            },
            {
              "pitch": 53,
              "velocity": 73,
              "position": 9.49375,
              "duration": 0.00625
            },
            {
              "pitch": 33,
              "velocity": 75,
              "position": 10,
              "duration": 0.00625
            },
            {
              "pitch": 44,
              "velocity": 70,
              "position": 10,
              "duration": 0.00625
            },
            {
              "pitch": 51,
              "velocity": 70,
              "position": 10,
              "duration": 0.00625
            },
            {
              "pitch": 53,
              "velocity": 73,
              "position": 10.49375,
              "duration": 0.00625
            },
            {
              "pitch": 38,
              "velocity": 100,
              "position": 11,
              "duration": 0.00625
            },
            {
              "pitch": 44,
              "velocity": 70,
              "position": 11,
              "duration": 0.00625
            },
            {
              "pitch": 51,
              "velocity": 70,
              "position": 11,
              "duration": 0.00625
            },
            {
              "pitch": 53,
              "velocity": 73,
              "position": 11.49375,
              "duration": 0.00625
            },
            {
              "pitch": 33,
              "velocity": 75,
              "position": 12,
              "duration": 0.00625
            },
            {
              "pitch": 44,
              "velocity": 70,
              "position": 12,
              "duration": 0.00625
            },
            {
              "pitch": 51,
              "velocity": 70,
              "position": 12,
              "duration": 0.00625
            },
            {
              "pitch": 53,
              "velocity": 73,
              "position": 12.49375,
              "duration": 0.00625
            },
            {
              "pitch": 38,
              "velocity": 100,
              "position": 13,
              "duration": 0.00625
            },
            {
              "pitch": 44,
              "velocity": 70,
              "position": 13,
              "duration": 0.00625
            },
            {
              "pitch": 51,
              "velocity": 70,
              "position": 13,
              "duration": 0.00625
            },
            {
              "pitch": 53,
              "velocity": 73,
              "position": 13.49375,
              "duration": 0.00625
            },
            {
              "pitch": 33,
              "velocity": 75,
              "position": 14,
              "duration": 0.00625
            },
            {
              "pitch": 44,
              "velocity": 70,
              "position": 14,
              "duration": 0.00625
            },
            {
              "pitch": 51,
              "velocity": 70,
              "position": 14,
              "duration": 0.00625
            },
            {
              "pitch": 53,
              "velocity": 73,
              "position": 14.49375,
              "duration": 0.00625
            },
            {
              "pitch": 33,
              "velocity": 75,
              "position": 14.5,
              "duration": 0.00625
            },
            {
              "pitch": 38,
              "velocity": 100,
              "position": 15,
              "duration": 0.00625
            },
            {
              "pitch": 44,
              "velocity": 70,
              "position": 15,
              "duration": 0.00625
            },
            {
              "pitch": 51,
              "velocity": 70,
              "position": 15,
              "duration": 0.00625
            },
            {
              "pitch": 53,
              "velocity": 73,
              "position": 15.49375,
              "duration": 0.00625
            }
          ]
        },
        "10": {
          "ctab": {
            "srcChannel": 10,
            "name": "Bass",
            "accType": "BASS",
            "editable": false,
            "mutedNotes": [],
            "mutedChords": [],
            "autoStart": false,
            "sourceChordNote": 0,
            "sourceChordType": "Maj7",
            "ctb2Low": null,
            "ctb2Main": {
              "ntr": "ROOT_TRANSPOSITION",
              "ntt": "MELODY",
              "bassOn": true,
              "chordRootUpperLimit": 8,
              "noteLowLimit": 28,
              "noteHighLimit": 127,
              "rtr": "PITCH_SHIFT_TO_ROOT"
            },
            "ctb2High": null,
            "ctb2MiddleLowPitch": 0,
            "ctb2MiddleHighPitch": 127
          },
          "notes": [
            {
              "pitch": 24,
              "velocity": 62,
              "position": 0,
              "duration": 0.4395833333333333
            },
            {
              "pitch": 24,
              "velocity": 55,
              "position": 0.5,
              "duration": 0.4395833333333333
            },
            {
              "pitch": 24,
              "velocity": 62,
              "position": 1,
              "duration": 0.4395833333333333
            },
            {
              "pitch": 24,
              "velocity": 55,
              "position": 1.5,
              "duration": 0.4395833333333333
            },
            {
              "pitch": 24,
              "velocity": 62,
              "position": 2,
              "duration": 0.4395833333333333
            },
            {
              "pitch": 24,
              "velocity": 55,
              "position": 2.5,
              "duration": 0.4395833333333333
            },
            {
              "pitch": 24,
              "velocity": 62,
              "position": 3,
              "duration": 0.4395833333333333
            },
            {
              "pitch": 24,
              "velocity": 55,
              "position": 3.5,
              "duration": 0.4395833333333333
            },
            {
              "pitch": 24,
              "velocity": 62,
              "position": 4,
              "duration": 0.4395833333333333
            },
            {
              "pitch": 24,
              "velocity": 55,
              "position": 4.5,
              "duration": 0.4395833333333333
            },
            {
              "pitch": 24,
              "velocity": 62,
              "position": 5,
              "duration": 0.4395833333333333
            },
            {
              "pitch": 24,
              "velocity": 55,
              "position": 5.5,
              "duration": 0.4395833333333333
            },
            {
              "pitch": 24,
              "velocity": 62,
              "position": 6,
              "duration": 0.4395833333333333
            },
            {
              "pitch": 24,
              "velocity": 55,
              "position": 6.5,
              "duration": 0.4395833333333333
            },
            {
              "pitch": 24,
              "velocity": 62,
              "position": 7,
              "duration": 0.4395833333333333
            },
            {
              "pitch": 24,
              "velocity": 55,
              "position": 7.5,
              "duration": 0.4395833333333333
            },
            {
              "pitch": 24,
              "velocity": 62,
              "position": 8,
              "duration": 0.4395833333333333
            },
            {
              "pitch": 24,
              "velocity": 55,
              "position": 8.5,
              "duration": 0.4395833333333333
            },
            {
              "pitch": 24,
              "velocity": 62,
              "position": 9,
              "duration": 0.4395833333333333
            },
            {
              "pitch": 24,
              "velocity": 55,
              "position": 9.5,
              "duration": 0.4395833333333333
            },
            {
              "pitch": 24,
              "velocity": 62,
              "position": 10,
              "duration": 0.4395833333333333
            },
            {
              "pitch": 24,
              "velocity": 55,
              "position": 10.5,
              "duration": 0.4395833333333333
            },
            {
              "pitch": 24,
              "velocity": 62,
              "position": 11,
              "duration": 0.4395833333333333
            },
            {
              "pitch": 24,
              "velocity": 55,
              "position": 11.5,
              "duration": 0.4395833333333333
            },
            {
              "pitch": 24,
              "velocity": 62,
              "position": 12,
              "duration": 0.4395833333333333
            },
            {
              "pitch": 24,
              "velocity": 55,
              "position": 12.5,
              "duration": 0.4395833333333333
            },
            {
              "pitch": 24,
              "velocity": 62,
              "position": 13,
              "duration": 0.4395833333333333
            },
            {
              "pitch": 24,
              "velocity": 55,
              "position": 13.5,
              "duration": 0.4395833333333333
            },
            {
              "pitch": 24,
              "velocity": 62,
              "position": 14,
              "duration": 0.4395833333333333
            },
            {
              "pitch": 24,
              "velocity": 55,
              "position": 14.5,
              "duration": 0.4395833333333333
            },
            {
              "pitch": 24,
              "velocity": 62,
              "position": 15,
              "duration": 0.4395833333333333
            },
            {
              "pitch": 24,
              "velocity": 55,
              "position": 15.5,
              "duration": 0.4395833333333333
            }
          ]
        },
        "11": {
          "ctab": {
            "srcChannel": 11,
            "name": "Guitar1",
            "accType": "CHORD1",
            "editable": false,
            "mutedNotes": [],
            "mutedChords": [],
            "autoStart": false,
            "sourceChordNote": 0,
            "sourceChordType": "Maj7",
            "ctb2Low": null,
            "ctb2Main": {
              "ntr": "GUITAR",
              "ntt": "ARPEGGIO",
              "bassOn": false,
              "chordRootUpperLimit": 7,
              "noteLowLimit": 0,
              "noteHighLimit": 127,
              "rtr": "PITCH_SHIFT"
            },
            "ctb2High": null,
            "ctb2MiddleLowPitch": 0,
            "ctb2MiddleHighPitch": 127
          },
          "notes": [
            {
              "pitch": 55,
              "velocity": 39,
              "position": 0.5,
              "duration": 0.8145833333333333
            },
            {
              "pitch": 59,
              "velocity": 48,
              "position": 0,
              "duration": 1.8145833333333334
            },
            {
              "pitch": 55,
              "velocity": 39,
              "position": 1.5,
              "duration": 0.8145833333333333
            },
            {
              "pitch": 57,
              "velocity": 39,
              "position": 1,
              "duration": 1.8145833333333334
            },
            {
              "pitch": 55,
              "velocity": 39,
              "position": 2.5,
              "duration": 0.8145833333333333
            },
            {
              "pitch": 59,
              "velocity": 39,
              "position": 2,
              "duration": 1.8145833333333334
            },
            {
              "pitch": 55,
              "velocity": 39,
              "position": 3.5,
              "duration": 0.8145833333333333
            },
            {
              "pitch": 57,
              "velocity": 39,
              "position": 3,
              "duration": 1.8145833333333334
            },
            {
              "pitch": 55,
              "velocity": 39,
              "position": 4.5,
              "duration": 0.8145833333333333
            },
            {
              "pitch": 59,
              "velocity": 39,
              "position": 4,
              "duration": 1.8145833333333334
            },
            {
              "pitch": 55,
              "velocity": 39,
              "position": 5.5,
              "duration": 0.8145833333333333
            },
            {
              "pitch": 57,
              "velocity": 39,
              "position": 5,
              "duration": 1.8145833333333334
            },
            {
              "pitch": 55,
              "velocity": 39,
              "position": 6.5,
              "duration": 0.8145833333333333
            },
            {
              "pitch": 59,
              "velocity": 52,
              "position": 6,
              "duration": 1.8145833333333334
            },
            {
              "pitch": 55,
              "velocity": 39,
              "position": 7.5,
              "duration": 0.8145833333333333
            },
            {
              "pitch": 57,
              "velocity": 39,
              "position": 7,
              "duration": 1.8145833333333334
            },
            {
              "pitch": 55,
              "velocity": 39,
              "position": 8.5,
              "duration": 0.8145833333333333
            },
            {
              "pitch": 59,
              "velocity": 39,
              "position": 8,
              "duration": 1.8145833333333334
            },
            {
              "pitch": 55,
              "velocity": 39,
              "position": 9.5,
              "duration": 0.8145833333333333
            },
            {
              "pitch": 57,
              "velocity": 39,
              "position": 9,
              "duration": 1.8145833333333334
            },
            {
              "pitch": 55,
              "velocity": 39,
              "position": 10.5,
              "duration": 0.8145833333333333
            },
            {
              "pitch": 59,
              "velocity": 53,
              "position": 10,
              "duration": 1.8145833333333334
            },
            {
              "pitch": 55,
              "velocity": 39,
              "position": 11.5,
              "duration": 0.8145833333333333
            },
            {
              "pitch": 57,
              "velocity": 39,
              "position": 11,
              "duration": 1.8145833333333334
            },
            {
              "pitch": 55,
              "velocity": 39,
              "position": 12.5,
              "duration": 0.8145833333333333
            },
            {
              "pitch": 59,
              "velocity": 39,
              "position": 12,
              "duration": 1.8145833333333334
            },
            {
              "pitch": 55,
              "velocity": 39,
              "position": 13.5,
              "duration": 0.8145833333333333
            },
            {
              "pitch": 57,
              "velocity": 39,
              "position": 13,
              "duration": 1.8145833333333334
            },
            {
              "pitch": 55,
              "velocity": 39,
              "position": 14.5,
              "duration": 0.8145833333333333
            },
            {
              "pitch": 55,
              "velocity": 39,
              "position": 15.5,
              "duration": 0.4395833333333333
            },
            {
              "pitch": 59,
              "velocity": 39,
              "position": 14,
              "duration": 1.9479166666666667
            },
            {
              "pitch": 57,
              "velocity": 39,
              "position": 15,
              "duration": 0.9645833333333333
            }
          ]
        },
        "12": {
          "ctab": {
            "srcChannel": 12,
            "name": "Piano",
            "accType": "CHORD2",
            "editable": false,
            "mutedNotes": [],
            "mutedChords": [],
            "autoStart": false,
            "sourceChordNote": 0,
            "sourceChordType": "Maj7",
            "ctb2Low": {
              "ntr": "ROOT_TRANSPOSITION",
              "ntt": "MELODY",
              "bassOn": true,
              "chordRootUpperLimit": 3,
              "noteLowLimit": 0,
              "noteHighLimit": 127,
              "rtr": "PITCH_SHIFT"
            },
            "ctb2Main": {
              "ntr": "ROOT_FIXED",
              "ntt": "CHORD",
              "bassOn": false,
              "chordRootUpperLimit": 7,
              "noteLowLimit": 0,
              "noteHighLimit": 127,
              "rtr": "PITCH_SHIFT"
            },
            "ctb2High": null,
            "ctb2MiddleLowPitch": 50,
            "ctb2MiddleHighPitch": 127
          },
          "notes": [
            {
              "pitch": 59,
              "velocity": 86,
              "position": 0.0020833333333333333,
              "duration": 1.4791666666666667
            },
            {
              "pitch": 64,
              "velocity": 83,
              "position": 0.0020833333333333333,
              "duration": 1.4791666666666667
            },
            {
              "pitch": 67,
              "velocity": 85,
              "position": 0.0020833333333333333,
              "duration": 1.4791666666666667
            },
            {
              "pitch": 71,
              "velocity": 82,
              "position": 0.0020833333333333333,
              "duration": 1.4791666666666667
            },
            {
              "pitch": 59,
              "velocity": 75,
              "position": 1.5,
              "duration": 1.4791666666666667
            },
            {
              "pitch": 64,
              "velocity": 71,
              "position": 1.5,
              "duration": 1.4791666666666667
            },
            {
              "pitch": 67,
              "velocity": 74,
              "position": 1.5,
              "duration": 1.4791666666666667
            },
            {
              "pitch": 71,
              "velocity": 70,
              "position": 1.5,
              "duration": 1.4791666666666667
            },
            {
              "pitch": 59,
              "velocity": 86,
              "position": 3,
              "duration": 0.9791666666666666
            },
            {
              "pitch": 64,
              "velocity": 83,
              "position": 3,
              "duration": 0.9791666666666666
            },
            {
              "pitch": 67,
              "velocity": 85,
              "position": 3,
              "duration": 0.9791666666666666
            },
            {
              "pitch": 71,
              "velocity": 82,
              "position": 3,
              "duration": 0.9791666666666666
            },
            {
              "pitch": 36,
              "velocity": 74,
              "position": 0.0020833333333333333,
              "duration": 3.9791666666666665
            },
            {
              "pitch": 48,
              "velocity": 81,
              "position": 0.0020833333333333333,
              "duration": 3.9791666666666665
            },
            {
              "pitch": 59,
              "velocity": 86,
              "position": 4,
              "duration": 2.9791666666666665
            },
            {
              "pitch": 64,
              "velocity": 83,
              "position": 4,
              "duration": 2.9791666666666665
            },
            {
              "pitch": 67,
              "velocity": 85,
              "position": 4,
              "duration": 2.9791666666666665
            },
            {
              "pitch": 71,
              "velocity": 82,
              "position": 4,
              "duration": 2.9791666666666665
            },
            {
              "pitch": 36,
              "velocity": 74,
              "position": 4,
              "duration": 3.9791666666666665
            },
            {
              "pitch": 48,
              "velocity": 81,
              "position": 4,
              "duration": 3.9791666666666665
            },
            {
              "pitch": 59,
              "velocity": 80,
              "position": 7,
              "duration": 0.9791666666666666
            },
            {
              "pitch": 64,
              "velocity": 76,
              "position": 7,
              "duration": 0.9791666666666666
            },
            {
              "pitch": 67,
              "velocity": 79,
              "position": 7,
              "duration": 0.9791666666666666
            },
            {
              "pitch": 71,
              "velocity": 75,
              "position": 7,
              "duration": 0.9791666666666666
            },
            {
              "pitch": 59,
              "velocity": 77,
              "position": 8,
              "duration": 2.9791666666666665
            },
            {
              "pitch": 64,
              "velocity": 73,
              "position": 8,
              "duration": 2.9791666666666665
            },
            {
              "pitch": 67,
              "velocity": 76,
              "position": 8,
              "duration": 2.9791666666666665
            },
            {
              "pitch": 71,
              "velocity": 72,
              "position": 8,
              "duration": 2.9791666666666665
            },
            {
              "pitch": 36,
              "velocity": 74,
              "position": 8,
              "duration": 3.9791666666666665
            },
            {
              "pitch": 48,
              "velocity": 81,
              "position": 8,
              "duration": 3.9791666666666665
            },
            {
              "pitch": 59,
              "velocity": 74,
              "position": 11,
              "duration": 0.9791666666666666
            },
            {
              "pitch": 64,
              "velocity": 70,
              "position": 11,
              "duration": 0.9791666666666666
            },
            {
              "pitch": 67,
              "velocity": 73,
              "position": 11,
              "duration": 0.9791666666666666
            },
            {
              "pitch": 71,
              "velocity": 70,
              "position": 11,
              "duration": 0.9791666666666666
            },
            {
              "pitch": 59,
              "velocity": 80,
              "position": 12,
              "duration": 2.9791666666666665
            },
            {
              "pitch": 64,
              "velocity": 76,
              "position": 12,
              "duration": 2.9791666666666665
            },
            {
              "pitch": 67,
              "velocity": 79,
              "position": 12,
              "duration": 2.9791666666666665
            },
            {
              "pitch": 71,
              "velocity": 75,
              "position": 12,
              "duration": 2.9791666666666665
            },
            {
              "pitch": 36,
              "velocity": 74,
              "position": 12,
              "duration": 3.9791666666666665
            },
            {
              "pitch": 48,
              "velocity": 81,
              "position": 12,
              "duration": 3.9791666666666665
            },
            {
              "pitch": 59,
              "velocity": 69,
              "position": 15,
              "duration": 0.9791666666666666
            },
            {
              "pitch": 64,
              "velocity": 65,
              "position": 15,
              "duration": 0.9791666666666666
            },
            {
              "pitch": 67,
              "velocity": 68,
              "position": 15,
              "duration": 0.9791666666666666
            },
            {
              "pitch": 71,
              "velocity": 64,
              "position": 15,
              "duration": 0.9791666666666666
            }
          ]
        },
        "13": {
          "ctab": {
            "srcChannel": 13,
            "name": "Strings",
            "accType": "PAD",
            "editable": false,
            "mutedNotes": [],
            "mutedChords": [],
            "autoStart": false,
            "sourceChordNote": 0,
            "sourceChordType": "Maj7",
            "ctb2Low": null,
            "ctb2Main": {
              "ntr": "ROOT_FIXED",
              "ntt": "CHORD",
              "bassOn": false,
              "chordRootUpperLimit": 7,
              "noteLowLimit": 0,
              "noteHighLimit": 127,
              "rtr": "PITCH_SHIFT"
            },
            "ctb2High": null,
            "ctb2MiddleLowPitch": 0,
            "ctb2MiddleHighPitch": 127
          },
          "notes": [
            {
              "pitch": 55,
              "velocity": 45,
              "position": 0.0020833333333333333,
              "duration": 5.98125
            },
            {
              "pitch": 59,
              "velocity": 45,
              "position": 0.0020833333333333333,
              "duration": 5.98125
            },
            {
              "pitch": 64,
              "velocity": 45,
              "position": 0.0020833333333333333,
              "duration": 5.98125
            },
            {
              "pitch": 55,
              "velocity": 45,
              "position": 6,
              "duration": 1.98125
            },
            {
              "pitch": 59,
              "velocity": 45,
              "position": 6,
              "duration": 1.98125
            },
            {
              "pitch": 64,
              "velocity": 45,
              "position": 6,
              "duration": 1.98125
            },
            {
              "pitch": 55,
              "velocity": 45,
              "position": 8,
              "duration": 5.98125
            },
            {
              "pitch": 59,
              "velocity": 45,
              "position": 8,
              "duration": 5.98125
            },
            {
              "pitch": 64,
              "velocity": 45,
              "position": 8,
              "duration": 5.98125
            },
            {
              "pitch": 55,
              "velocity": 45,
              "position": 14,
              "duration": 1.98125
            },
            {
              "pitch": 59,
              "velocity": 45,
              "position": 14,
              "duration": 1.98125
            },
            {
              "pitch": 64,
              "velocity": 45,
              "position": 14,
              "duration": 1.98125
            }
          ]
        },
        "14": {
          "ctab": {
            "srcChannel": 14,
            "name": "Organ",
            "accType": "PHRASE1",
            "editable": false,
            "mutedNotes": [],
            "mutedChords": [],
            "autoStart": false,
            "sourceChordNote": 0,
            "sourceChordType": "Maj7",
            "ctb2Low": null,
            "ctb2Main": {
              "ntr": "ROOT_FIXED",
              "ntt": "CHORD",
              "bassOn": false,
              "chordRootUpperLimit": 7,
              "noteLowLimit": 0,
              "noteHighLimit": 127,
              "rtr": "PITCH_SHIFT"
            },
            "ctb2High": null,
            "ctb2MiddleLowPitch": 0,
            "ctb2MiddleHighPitch": 127
          },
          "notes": [
            {
              "pitch": 67,
              "velocity": 44,
              "position": 0,
              "duration": 15.98125
            },
            {
              "pitch": 71,
              "velocity": 44,
              "position": 0,
              "duration": 15.98125
            },
            {
              "pitch": 76,
              "velocity": 44,
              "position": 0,
              "duration": 15.98125
            }
          ]
        },
        "15": {
          "ctab": {
            "srcChannel": 15,
            "name": "Guitar2",
            "accType": "PHRASE2",
            "editable": false,
            "mutedNotes": [],
            "mutedChords": [],
            "autoStart": false,
            "sourceChordNote": 0,
            "sourceChordType": "Maj7",
            "ctb2Low": null,
            "ctb2Main": {
              "ntr": "GUITAR",
              "ntt": "ARPEGGIO",
              "bassOn": true,
              "chordRootUpperLimit": 7,
              "noteLowLimit": 0,
              "noteHighLimit": 127,
              "rtr": "PITCH_SHIFT"
            },
            "ctb2High": null,
            "ctb2MiddleLowPitch": 0,
            "ctb2MiddleHighPitch": 127
          },
          "notes": [
            {
              "pitch": 55,
              "velocity": 35,
              "position": 0.5,
              "duration": 0.7833333333333333
            },
            {
              "pitch": 55,
              "velocity": 33,
              "position": 1.5,
              "duration": 0.7833333333333333
            },
            {
              "pitch": 57,
              "velocity": 36,
              "position": 1,
              "duration": 1.5125
            },
            {
              "pitch": 55,
              "velocity": 30,
              "position": 2.5,
              "duration": 0.7833333333333333
            },
            {
              "pitch": 59,
              "velocity": 44,
              "position": 2,
              "duration": 1.98125
            },
            {
              "pitch": 55,
              "velocity": 28,
              "position": 3.5,
              "duration": 0.7833333333333333
            },
            {
              "pitch": 57,
              "velocity": 30,
              "position": 3,
              "duration": 1.5125
            },
            {
              "pitch": 55,
              "velocity": 35,
              "position": 4.5,
              "duration": 0.7833333333333333
            },
            {
              "pitch": 59,
              "velocity": 35,
              "position": 4,
              "duration": 1.7416666666666667
            },
            {
              "pitch": 55,
              "velocity": 27,
              "position": 5.5,
              "duration": 0.7833333333333333
            },
            {
              "pitch": 57,
              "velocity": 35,
              "position": 5,
              "duration": 1.5125
            },
            {
              "pitch": 48,
              "velocity": 37,
              "position": 0.010416666666666666,
              "duration": 6.970833333333333
            },
            {
              "pitch": 55,
              "velocity": 28,
              "position": 6.5,
              "duration": 0.7833333333333333
            },
            {
              "pitch": 48,
              "velocity": 37,
              "position": 7,
              "duration": 0.9166666666666666
            },
            {
              "pitch": 55,
              "velocity": 14,
              "position": 7.5,
              "duration": 0.7833333333333333
            },
            {
              "pitch": 57,
              "velocity": 20,
              "position": 7,
              "duration": 1.5125
            },
            {
              "pitch": 55,
              "velocity": 35,
              "position": 8.5,
              "duration": 0.7833333333333333
            },
            {
              "pitch": 59,
              "velocity": 26,
              "position": 6,
              "duration": 3.6166666666666667
            },
            {
              "pitch": 55,
              "velocity": 25,
              "position": 9.5,
              "duration": 0.7833333333333333
            },
            {
              "pitch": 57,
              "velocity": 35,
              "position": 9,
              "duration": 1.5125
            },
            {
              "pitch": 55,
              "velocity": 35,
              "position": 10.5,
              "duration": 0.7833333333333333
            },
            {
              "pitch": 59,
              "velocity": 23,
              "position": 10,
              "duration": 1.7416666666666667
            },
            {
              "pitch": 55,
              "velocity": 26,
              "position": 11.5,
              "duration": 0.7833333333333333
            },
            {
              "pitch": 57,
              "velocity": 22,
              "position": 11,
              "duration": 1.5125
            },
            {
              "pitch": 55,
              "velocity": 31,
              "position": 12.5,
              "duration": 0.7833333333333333
            },
            {
              "pitch": 59,
              "velocity": 35,
              "position": 12,
              "duration": 1.7416666666666667
            },
            {
              "pitch": 55,
              "velocity": 20,
              "position": 13.5,
              "duration": 0.7833333333333333
            },
            {
              "pitch": 57,
              "velocity": 29,
              "position": 13,
              "duration": 1.5125
            },
            {
              "pitch": 55,
              "velocity": 35,
              "position": 14.5,
              "duration": 0.7833333333333333
            },
            {
              "pitch": 59,
              "velocity": 35,
              "position": 14,
              "duration": 1.7416666666666667
            },
            {
              "pitch": 48,
              "velocity": 37,
              "position": 8,
              "duration": 7.916666666666667
            },
            {
              "pitch": 57,
              "velocity": 22,
              "position": 15,
              "duration": 0.9458333333333333
            },
            {
              "pitch": 55,
              "velocity": 35,
              "position": 15.5,
              "duration": 0.475
            }
          ]
        }
      }
    },
    "Fill_In_DD": {
      "type": "Fill_In_DD",
      "sizeInBeats": 4,
      "channels": {
        "4": {
          "ctab": {
            "srcChannel": 4,
            "name": "Pf  rt",
            "accType": "CHORD2",
            "editable": false,
            "mutedNotes": [],
            "mutedChords": [
              "1+2+5",
              "sus4",
              "1+5",
              "1+8",
              "Maj7aug",
              "dim",
              "minMaj7(9)",
              "minMaj7",
              "min6",
              "min",
              "aug",
              "Maj7(9)",
              "Maj7#11",
              "Maj7",
              "Maj6",
              "Maj"
            ],
            "autoStart": false,
            "sourceChordNote": 0,
            "sourceChordType": "Maj7",
            "ctb2Low": null,
            "ctb2Main": {
              "ntr": "ROOT_TRANSPOSITION",
              "ntt": "MELODY",
              "bassOn": false,
              "chordRootUpperLimit": 10,
              "noteLowLimit": 0,
              "noteHighLimit": 127,
              "rtr": "PITCH_SHIFT"
            },
            "ctb2High": null,
            "ctb2MiddleLowPitch": 0,
            "ctb2MiddleHighPitch": 127
          },
          "notes": [
            {
              "pitch": 60,
              "velocity": 86,
              "position": 0.0020833333333333333,
              "duration": 1.4791666666666667
            },
            {
              "pitch": 60,
              "velocity": 75,
              "position": 1.5,
              "duration": 1.4791666666666667
            },
            {
              "pitch": 60,
              "velocity": 72,
              "position": 3,
              "duration": 0.9791666666666666
            }
          ]
        },
        "5": {
          "ctab": {
            "srcChannel": 5,
            "name": "Str rt",
            "accType": "PAD",
            "editable": false,
            "mutedNotes": [],
            "mutedChords": [
              "1+2+5",
              "sus4",
              "1+5",
              "1+8",
              "Maj7aug",
              "dim",
              "minMaj7(9)",
              "minMaj7",
              "min6",
              "min",
              "aug",
              "Maj7(9)",
              "Maj7#11",
              "Maj7",
              "Maj6",
              "Maj"
            ],
            "autoStart": false,
            "sourceChordNote": 0,
            "sourceChordType": "Maj7",
            "ctb2Low": null,
            "ctb2Main": {
              "ntr": "ROOT_TRANSPOSITION",
              "ntt": "MELODY",
              "bassOn": false,
              "chordRootUpperLimit": 6,
              "noteLowLimit": 0,
              "noteHighLimit": 127,
              "rtr": "PITCH_SHIFT"
            },
            "ctb2High": null,
            "ctb2MiddleLowPitch": 0,
            "ctb2MiddleHighPitch": 127
          },
          "notes": [
            {
              "pitch": 72,
              "velocity": 55,
              "position": 0,
              "duration": 1.98125
            },
            {
              "pitch": 72,
              "velocity": 55,
              "position": 2,
              "duration": 1.98125
            }
          ]
        },
        "6": {
          "ctab": {
            "srcChannel": 6,
            "name": "Organ rt",
            "accType": "PHRASE1",
            "editable": false,
            "mutedNotes": [],
            "mutedChords": [
              "1+2+5",
              "sus4",
              "1+5",
              "1+8",
              "Maj7aug",
              "dim",
              "minMaj7(9)",
              "minMaj7",
              "min6",
              "min",
              "aug",
              "Maj7(9)",
              "Maj7#11",
              "Maj7",
              "Maj6",
              "Maj"
            ],
            "autoStart": false,
            "sourceChordNote": 0,
            "sourceChordType": "Maj7",
            "ctb2Low": null,
            "ctb2Main": {
              "ntr": "ROOT_TRANSPOSITION",
              "ntt": "MELODY",
              "bassOn": false,
              "chordRootUpperLimit": 6,
              "noteLowLimit": 0,
              "noteHighLimit": 127,
              "rtr": "PITCH_SHIFT"
            },
            "ctb2High": null,
            "ctb2MiddleLowPitch": 0,
            "ctb2MiddleHighPitch": 127
          },
          "notes": [
            {
              "pitch": 72,
              "velocity": 44,
              "position": 0,
              "duration": 3.98125
            }
          ]
        },
        "8": {
          "ctab": {
            "srcChannel": 8,
            "name": "AddDrum",
            "accType": "SUBRHYTHM",
            "editable": false,
            "mutedNotes": [],
            "mutedChords": [],
            "autoStart": true,
            "sourceChordNote": 0,
            "sourceChordType": "Maj7",
            "ctb2Low": null,
            "ctb2Main": {
              "ntr": "ROOT_FIXED",
              "ntt": "BYPASS",
              "bassOn": false,
              "chordRootUpperLimit": 6,
              "noteLowLimit": 0,
              "noteHighLimit": 127,
              "rtr": "PITCH_SHIFT"
            },
            "ctb2High": null,
            "ctb2MiddleLowPitch": 0,
            "ctb2MiddleHighPitch": 127
          },
          "notes": [
            {
              "pitch": 54,
              "velocity": 80,
              "position": 0,
              "duration": 0.00625
            },
            {
              "pitch": 54,
              "velocity": 24,
              "position": 0.25,
              "duration": 0.00625
            },
            {
              "pitch": 54,
              "velocity": 32,
              "position": 0.5,
              "duration": 0.00625
            },
            {
              "pitch": 54,
              "velocity": 19,
              "position": 0.75,
              "duration": 0.00625
            },
            {
              "pitch": 54,
              "velocity": 80,
              "position": 1,
              "duration": 0.00625
            },
            {
              "pitch": 54,
              "velocity": 33,
              "position": 1.25,
              "duration": 0.00625
            },
            {
              "pitch": 54,
              "velocity": 25,
              "position": 1.5,
              "duration": 0.00625
            },
            {
              "pitch": 54,
              "velocity": 30,
              "position": 1.75,
              "duration": 0.00625
            },
            {
              "pitch": 54,
              "velocity": 80,
              "position": 2,
              "duration": 0.00625
            },
            {
              "pitch": 54,
              "velocity": 26,
              "position": 2.25,
              "duration": 0.00625
            },
            {
              "pitch": 54,
              "velocity": 22,
              "position": 2.5,
              "duration": 0.00625
            },
            {
              "pitch": 54,
              "velocity": 19,
              "position": 2.75,
              "duration": 0.00625
            },
            {
              "pitch": 54,
              "velocity": 80,
              "position": 3,
              "duration": 0.00625
            },
            {
              "pitch": 54,
              "velocity": 22,
              "position": 3.25,
              "duration": 0.00625
            },
            {
              "pitch": 54,
              "velocity": 36,
              "position": 3.5,
              "duration": 0.00625
            },
            {
              "pitch": 54,
              "velocity": 17,
              "position": 3.75,
              "duration": 0.00625
            }
          ]
        },
        "9": {
          "ctab": {
            "srcChannel": 9,
            "name": "MainDrum",
            "accType": "RHYTHM",
            "editable": false,
            "mutedNotes": [],
            "mutedChords": [],
            "autoStart": true,
            "sourceChordNote": 0,
            "sourceChordType": "Maj7",
            "ctb2Low": null,
            "ctb2Main": {
              "ntr": "ROOT_FIXED",
              "ntt": "BYPASS",
              "bassOn": false,
              "chordRootUpperLimit": 6,
              "noteLowLimit": 0,
              "noteHighLimit": 127,
              "rtr": "PITCH_SHIFT"
            },
            "ctb2High": null,
            "ctb2MiddleLowPitch": 0,
            "ctb2MiddleHighPitch": 127
          },
          "notes": [
            {
              "pitch": 33,
              "velocity": 75,
              "position": 0,
              "duration": 0.00625
            },
            {
              "pitch": 49,
              "velocity": 72,
              "position": 0,
              "duration": 0.00625
            },
            {
              "pitch": 53,
              "velocity": 77,
              "position": 0.5,
              "duration": 0.00625
            },
            {
              "pitch": 38,
              "velocity": 100,
              "position": 1,
              "duration": 0.00625
            },
            {
              "pitch": 44,
              "velocity": 70,
              "position": 1,
              "duration": 0.00625
            },
            {
              "pitch": 51,
              "velocity": 70,
              "position": 1,
              "duration": 0.00625
            },
            {
              "pitch": 53,
              "velocity": 77,
              "position": 1.5,
              "duration": 0.00625
            },
            {
              "pitch": 33,
              "velocity": 75,
              "position": 2,
              "duration": 0.00625
            },
            {
              "pitch": 44,
              "velocity": 70,
              "position": 2,
              "duration": 0.00625
            },
            {
              "pitch": 51,
              "velocity": 70,
              "position": 2,
              "duration": 0.00625
            },
            {
              "pitch": 38,
              "velocity": 40,
              "position": 2.125,
              "duration": 0.00625
            },
            {
              "pitch": 38,
              "velocity": 56,
              "position": 2.25,
              "duration": 0.00625
            },
            {
              "pitch": 38,
              "velocity": 75,
              "position": 2.375,
              "duration": 0.00625
            },
            {
              "pitch": 38,
              "velocity": 100,
              "position": 2.5,
              "duration": 0.00625
            },
            {
              "pitch": 38,
              "velocity": 75,
              "position": 2.75,
              "duration": 0.00625
            },
            {
              "pitch": 38,
              "velocity": 75,
              "position": 3,
              "duration": 0.00625
            },
            {
              "pitch": 44,
              "velocity": 70,
              "position": 3,
              "duration": 0.00625
            },
            {
              "pitch": 38,
              "velocity": 75,
              "position": 3.25,
              "duration": 0.00625
            },
            {
              "pitch": 38,
              "velocity": 100,
              "position": 3.5,
              "duration": 0.00625
            },
            {
              "pitch": 38,
              "velocity": 75,
              "position": 3.75,
              "duration": 0.00625
            },
            {
              "pitch": 57,
              "velocity": 73,
              "position": 3.9895833333333335,
              "duration": 0.00625
            }
          ]
        },
        "10": {
          "ctab": {
            "srcChannel": 10,
            "name": "Bass",
            "accType": "BASS",
            "editable": false,
            "mutedNotes": [],
            "mutedChords": [],
            "autoStart": false,
            "sourceChordNote": 0,
            "sourceChordType": "Maj7",
            "ctb2Low": null,
            "ctb2Main": {
              "ntr": "ROOT_TRANSPOSITION",
              "ntt": "MELODY",
              "bassOn": true,
              "chordRootUpperLimit": 8,
              "noteLowLimit": 28,
              "noteHighLimit": 127,
              "rtr": "PITCH_SHIFT_TO_ROOT"
            },
            "ctb2High": null,
            "ctb2MiddleLowPitch": 0,
            "ctb2MiddleHighPitch": 127
          },
          "notes": [
            {
              "pitch": 24,
              "velocity": 62,
              "position": 0,
              "duration": 0.4395833333333333
            },
            {
              "pitch": 24,
              "velocity": 55,
              "position": 0.5,
              "duration": 0.4395833333333333
            },
            {
              "pitch": 24,
              "velocity": 62,
              "position": 1,
              "duration": 0.4395833333333333
            },
            {
              "pitch": 24,
              "velocity": 55,
              "position": 1.5,
              "duration": 0.4395833333333333
            },
            {
              "pitch": 24,
              "velocity": 62,
              "position": 2,
              "duration": 0.4395833333333333
            },
            {
              "pitch": 24,
              "velocity": 55,
              "position": 2.5,
              "duration": 0.4395833333333333
            },
            {
              "pitch": 24,
              "velocity": 62,
              "position": 3,
              "duration": 0.4395833333333333
            },
            {
              "pitch": 24,
              "velocity": 55,
              "position": 3.5,
              "duration": 0.4395833333333333
            }
          ]
        },
        "11": {
          "ctab": {
            "srcChannel": 11,
            "name": "Guitar1",
            "accType": "CHORD1",
            "editable": false,
            "mutedNotes": [],
            "mutedChords": [],
            "autoStart": false,
            "sourceChordNote": 0,
            "sourceChordType": "Maj7",
            "ctb2Low": null,
            "ctb2Main": {
              "ntr": "GUITAR",
              "ntt": "ARPEGGIO",
              "bassOn": false,
              "chordRootUpperLimit": 7,
              "noteLowLimit": 0,
              "noteHighLimit": 127,
              "rtr": "PITCH_SHIFT"
            },
            "ctb2High": null,
            "ctb2MiddleLowPitch": 0,
            "ctb2MiddleHighPitch": 127
          },
          "notes": [
            {
              "pitch": 55,
              "velocity": 39,
              "position": 0.5,
              "duration": 0.8145833333333333
            },
            {
              "pitch": 59,
              "velocity": 46,
              "position": 0,
              "duration": 1.8145833333333334
            },
            {
              "pitch": 55,
              "velocity": 47,
              "position": 1.5,
              "duration": 0.8145833333333333
            },
            {
              "pitch": 57,
              "velocity": 39,
              "position": 1,
              "duration": 1.8145833333333334
            },
            {
              "pitch": 55,
              "velocity": 39,
              "position": 2.5,
              "duration": 0.8145833333333333
            },
            {
              "pitch": 55,
              "velocity": 39,
              "position": 3.5,
              "duration": 0.4791666666666667
            },
            {
              "pitch": 57,
              "velocity": 39,
              "position": 3,
              "duration": 0.9791666666666666
            },
            {
              "pitch": 59,
              "velocity": 39,
              "position": 2,
              "duration": 1.9791666666666667
            }
          ]
        },
        "12": {
          "ctab": {
            "srcChannel": 12,
            "name": "Piano",
            "accType": "CHORD2",
            "editable": false,
            "mutedNotes": [],
            "mutedChords": [],
            "autoStart": false,
            "sourceChordNote": 0,
            "sourceChordType": "Maj7",
            "ctb2Low": {
              "ntr": "ROOT_TRANSPOSITION",
              "ntt": "MELODY",
              "bassOn": true,
              "chordRootUpperLimit": 3,
              "noteLowLimit": 0,
              "noteHighLimit": 127,
              "rtr": "PITCH_SHIFT"
            },
            "ctb2Main": {
              "ntr": "ROOT_FIXED",
              "ntt": "CHORD",
              "bassOn": false,
              "chordRootUpperLimit": 7,
              "noteLowLimit": 0,
              "noteHighLimit": 127,
              "rtr": "PITCH_SHIFT"
            },
            "ctb2High": null,
            "ctb2MiddleLowPitch": 50,
            "ctb2MiddleHighPitch": 127
          },
          "notes": [
            {
              "pitch": 59,
              "velocity": 86,
              "position": 0.0020833333333333333,
              "duration": 1.4791666666666667
            },
            {
              "pitch": 64,
              "velocity": 83,
              "position": 0.0020833333333333333,
              "duration": 1.4791666666666667
            },
            {
              "pitch": 67,
              "velocity": 85,
              "position": 0.0020833333333333333,
              "duration": 1.4791666666666667
            },
            {
              "pitch": 71,
              "velocity": 82,
              "position": 0.0020833333333333333,
              "duration": 1.4791666666666667
            },
            {
              "pitch": 59,
              "velocity": 75,
              "position": 1.5,
              "duration": 1.4791666666666667
            },
            {
              "pitch": 64,
              "velocity": 71,
              "position": 1.5,
              "duration": 1.4791666666666667
            },
            {
              "pitch": 67,
              "velocity": 74,
              "position": 1.5,
              "duration": 1.4791666666666667
            },
            {
              "pitch": 71,
              "velocity": 70,
              "position": 1.5,
              "duration": 1.4791666666666667
            },
            {
              "pitch": 59,
              "velocity": 72,
              "position": 3,
              "duration": 0.9791666666666666
            },
            {
              "pitch": 64,
              "velocity": 69,
              "position": 3,
              "duration": 0.9791666666666666
            },
            {
              "pitch": 67,
              "velocity": 71,
              "position": 3,
              "duration": 0.9791666666666666
            },
            {
              "pitch": 71,
              "velocity": 68,
              "position": 3,
              "duration": 0.9791666666666666
            },
            {
              "pitch": 36,
              "velocity": 74,
              "position": 0.0020833333333333333,
              "duration": 3.9791666666666665
            },
            {
              "pitch": 48,
              "velocity": 81,
              "position": 0.0020833333333333333,
              "duration": 3.9791666666666665
            }
          ]
        },
        "13": {
          "ctab": {
            "srcChannel": 13,
            "name": "Strings",
            "accType": "PAD",
            "editable": false,
            "mutedNotes": [],
            "mutedChords": [],
            "autoStart": false,
            "sourceChordNote": 0,
            "sourceChordType": "Maj7",
            "ctb2Low": null,
            "ctb2Main": {
              "ntr": "ROOT_FIXED",
              "ntt": "CHORD",
              "bassOn": false,
              "chordRootUpperLimit": 7,
              "noteLowLimit": 0,
              "noteHighLimit": 127,
              "rtr": "PITCH_SHIFT"
            },
            "ctb2High": null,
            "ctb2MiddleLowPitch": 0,
            "ctb2MiddleHighPitch": 127
          },
          "notes": [
            {
              "pitch": 55,
              "velocity": 45,
              "position": 0.0020833333333333333,
              "duration": 1.98125
            },
            {
              "pitch": 59,
              "velocity": 45,
              "position": 0.0020833333333333333,
              "duration": 1.98125
            },
            {
              "pitch": 64,
              "velocity": 45,
              "position": 0.0020833333333333333,
              "duration": 1.98125
            },
            {
              "pitch": 55,
              "velocity": 45,
              "position": 2,
              "duration": 1.98125
            },
            {
              "pitch": 59,
              "velocity": 45,
              "position": 2,
              "duration": 1.98125
            },
            {
              "pitch": 64,
              "velocity": 45,
              "position": 2,
              "duration": 1.98125
            }
          ]
        },
        "14": {
          "ctab": {
            "srcChannel": 14,
            "name": "Organ",
            "accType": "PHRASE1",
            "editable": false,
            "mutedNotes": [],
            "mutedChords": [],
            "autoStart": false,
            "sourceChordNote": 0,
            "sourceChordType": "Maj7",
            "ctb2Low": null,
            "ctb2Main": {
              "ntr": "ROOT_FIXED",
              "ntt": "CHORD",
              "bassOn": false,
              "chordRootUpperLimit": 7,
              "noteLowLimit": 0,
              "noteHighLimit": 127,
              "rtr": "PITCH_SHIFT"
            },
            "ctb2High": null,
            "ctb2MiddleLowPitch": 0,
            "ctb2MiddleHighPitch": 127
          },
          "notes": [
            {
              "pitch": 67,
              "velocity": 44,
              "position": 0,
              "duration": 3.98125
            },
            {
              "pitch": 71,
              "velocity": 44,
              "position": 0,
              "duration": 3.98125
            },
            {
              "pitch": 76,
              "velocity": 44,
              "position": 0,
              "duration": 3.98125
            }
          ]
        },
        "15": {
          "ctab": {
            "srcChannel": 15,
            "name": "Guitar2",
            "accType": "PHRASE2",
            "editable": false,
            "mutedNotes": [],
            "mutedChords": [],
            "autoStart": false,
            "sourceChordNote": 0,
            "sourceChordType": "Maj7",
            "ctb2Low": null,
            "ctb2Main": {
              "ntr": "GUITAR",
              "ntt": "ARPEGGIO",
              "bassOn": true,
              "chordRootUpperLimit": 7,
              "noteLowLimit": 0,
              "noteHighLimit": 127,
              "rtr": "PITCH_SHIFT"
            },
            "ctb2High": null,
            "ctb2MiddleLowPitch": 0,
            "ctb2MiddleHighPitch": 127
          },
          "notes": [
            {
              "pitch": 55,
              "velocity": 33,
              "position": 0.5,
              "duration": 0.9833333333333333
            },
            {
              "pitch": 59,
              "velocity": 37,
              "position": 0.010416666666666666,
              "duration": 1.9708333333333334
            },
            {
              "pitch": 55,
              "velocity": 22,
              "position": 1.5,
              "duration": 0.9833333333333333
            },
            {
              "pitch": 57,
              "velocity": 31,
              "position": 1,
              "duration": 1.9833333333333334
            },
            {
              "pitch": 55,
              "velocity": 37,
              "position": 2.5,
              "duration": 0.9833333333333333
            },
            {
              "pitch": 59,
              "velocity": 37,
              "position": 2,
              "duration": 1.925
            },
            {
              "pitch": 57,
              "velocity": 24,
              "position": 3,
              "duration": 0.9458333333333333
            },
            {
              "pitch": 55,
              "velocity": 37,
              "position": 3.5,
              "duration": 0.47291666666666665
            },
            {
              "pitch": 48,
              "velocity": 37,
              "position": 0.010416666666666666,
              "duration": 3.970833333333333
            }
          ]
        }
      }
    },
    "Intro_B": {
      "type": "Intro_B",
      "sizeInBeats": 16,
      "channels": {
        "2": {
          "ctab": {
            "srcChannel": 2,
            "name": "Bass",
            "accType": "BASS",
            "editable": false,
            "mutedNotes": [],
            "mutedChords": [
              "1+2+5",
              "sus4",
              "1+5",
              "1+8",
              "7aug",
              "Maj7aug",
              "7(#9)",
              "7(b13)",
              "7(b9)",
              "7(13)",
              "7#11",
              "7(9)",
              "7b5",
              "7sus4",
              "7th",
              "aug",
              "Maj6(9)",
              "Maj7(9)",
              "Maj(9)",
              "Maj7#11",
              "Maj7",
              "Maj6",
              "Maj"
            ],
            "autoStart": false,
            "sourceChordNote": 0,
            "sourceChordType": "min",
            "ctb2Low": null,
            "ctb2Main": {
              "ntr": "ROOT_TRANSPOSITION",
              "ntt": "BYPASS",
              "bassOn": false,
              "chordRootUpperLimit": 3,
              "noteLowLimit": 28,
              "noteHighLimit": 95,
              "rtr": "PITCH_SHIFT"
            },
            "ctb2High": {
              "ntr": "ROOT_FIXED",
              "ntt": "BYPASS",
              "bassOn": false,
              "chordRootUpperLimit": 3,
              "noteLowLimit": 0,
              "noteHighLimit": 127,
              "rtr": "PITCH_SHIFT"
            },
            "ctb2MiddleLowPitch": 0,
            "ctb2MiddleHighPitch": 95
          },
          "notes": [
            {
              "pitch": 24,
              "velocity": 64,
              "position": 0,
              "duration": 3.49375
            },
            {
              "pitch": 24,
              "velocity": 51,
              "position": 3.5,
              "duration": 0.49375
            },
            {
              "pitch": 26,
              "velocity": 64,
              "position": 4,
              "duration": 3.49375
            },
            {
              "pitch": 24,
              "velocity": 51,
              "position": 7.5,
              "duration": 0.24375
            },
            {
              "pitch": 26,
              "velocity": 52,
              "position": 7.75,
              "duration": 0.24375
            },
            {
              "pitch": 27,
              "velocity": 64,
              "position": 8,
              "duration": 0.36666666666666664
            },
            {
              "pitch": 27,
              "velocity": 51,
              "position": 8.5,
              "duration": 0.36666666666666664
            },
            {
              "pitch": 27,
              "velocity": 51,
              "position": 9,
              "duration": 0.36666666666666664
            },
            {
              "pitch": 27,
              "velocity": 55,
              "position": 9.5,
              "duration": 0.48125
            },
            {
              "pitch": 27,
              "velocity": 51,
              "position": 10,
              "duration": 0.36666666666666664
            },
            {
              "pitch": 27,
              "velocity": 51,
              "position": 10.5,
              "duration": 0.36666666666666664
            },
            {
              "pitch": 27,
              "velocity": 62,
              "position": 11,
              "duration": 0.36666666666666664
            },
            {
              "pitch": 27,
              "velocity": 51,
              "position": 11.5,
              "duration": 0.36666666666666664
            },
            {
              "pitch": 29,
              "velocity": 64,
              "position": 12,
              "duration": 0.36666666666666664
            },
            {
              "pitch": 29,
              "velocity": 51,
              "position": 12.5,
              "duration": 0.36666666666666664
            },
            {
              "pitch": 29,
              "velocity": 51,
              "position": 13,
              "duration": 0.36666666666666664
            },
            {
              "pitch": 29,
              "velocity": 55,
              "position": 13.5,
              "duration": 0.48125
            },
            {
              "pitch": 29,
              "velocity": 51,
              "position": 14,
              "duration": 0.36666666666666664
            },
            {
              "pitch": 29,
              "velocity": 51,
              "position": 14.5,
              "duration": 0.36666666666666664
            },
            {
              "pitch": 29,
              "velocity": 62,
              "position": 15,
              "duration": 0.36666666666666664
            },
            {
              "pitch": 29,
              "velocity": 51,
              "position": 15.5,
              "duration": 0.23125
            },
            {
              "pitch": 29,
              "velocity": 52,
              "position": 15.75,
              "duration": 0.23125
            }
          ]
        },
        "3": {
          "ctab": {
            "srcChannel": 3,
            "name": "Guitar1",
            "accType": "CHORD1",
            "editable": false,
            "mutedNotes": [],
            "mutedChords": [
              "1+2+5",
              "sus4",
              "1+5",
              "1+8",
              "7aug",
              "Maj7aug",
              "7(#9)",
              "7(b13)",
              "7(b9)",
              "7(13)",
              "7#11",
              "7(9)",
              "7b5",
              "7sus4",
              "7th",
              "aug",
              "Maj6(9)",
              "Maj7(9)",
              "Maj(9)",
              "Maj7#11",
              "Maj7",
              "Maj6",
              "Maj"
            ],
            "autoStart": false,
            "sourceChordNote": 0,
            "sourceChordType": "min",
            "ctb2Low": null,
            "ctb2Main": {
              "ntr": "ROOT_TRANSPOSITION",
              "ntt": "BYPASS",
              "bassOn": false,
              "chordRootUpperLimit": 8,
              "noteLowLimit": 40,
              "noteHighLimit": 95,
              "rtr": "PITCH_SHIFT"
            },
            "ctb2High": {
              "ntr": "ROOT_FIXED",
              "ntt": "BYPASS",
              "bassOn": false,
              "chordRootUpperLimit": 7,
              "noteLowLimit": 0,
              "noteHighLimit": 127,
              "rtr": "PITCH_SHIFT"
            },
            "ctb2MiddleLowPitch": 0,
            "ctb2MiddleHighPitch": 95
          },
          "notes": [
            {
              "pitch": 60,
              "velocity": 40,
              "position": 0,
              "duration": 1.9958333333333333
            },
            {
              "pitch": 72,
              "velocity": 42,
              "position": 0.5,
              "duration": 1.9958333333333333
            },
            {
              "pitch": 67,
              "velocity": 42,
              "position": 1,
              "duration": 1.9958333333333333
            },
            {
              "pitch": 60,
              "velocity": 40,
              "position": 2,
              "duration": 1.4958333333333333
            },
            {
              "pitch": 72,
              "velocity": 42,
              "position": 2.5,
              "duration": 1.9958333333333333
            },
            {
              "pitch": 67,
              "velocity": 40,
              "position": 3,
              "duration": 1.9958333333333333
            },
            {
              "pitch": 60,
              "velocity": 40,
              "position": 3.5,
              "duration": 2.495833333333333
            },
            {
              "pitch": 72,
              "velocity": 42,
              "position": 4.5,
              "duration": 1.9958333333333333
            },
            {
              "pitch": 67,
              "velocity": 42,
              "position": 5,
              "duration": 1.9958333333333333
            },
            {
              "pitch": 60,
              "velocity": 40,
              "position": 6,
              "duration": 1.4958333333333333
            },
            {
              "pitch": 72,
              "velocity": 42,
              "position": 6.5,
              "duration": 1.9958333333333333
            },
            {
              "pitch": 67,
              "velocity": 42,
              "position": 7,
              "duration": 1.9958333333333333
            },
            {
              "pitch": 60,
              "velocity": 40,
              "position": 7.5,
              "duration": 2.495833333333333
            },
            {
              "pitch": 72,
              "velocity": 42,
              "position": 8.5,
              "duration": 1.9958333333333333
            },
            {
              "pitch": 67,
              "velocity": 42,
              "position": 9,
              "duration": 1.9958333333333333
            },
            {
              "pitch": 60,
              "velocity": 40,
              "position": 10,
              "duration": 1.4958333333333333
            },
            {
              "pitch": 72,
              "velocity": 42,
              "position": 10.5,
              "duration": 1.9958333333333333
            },
            {
              "pitch": 67,
              "velocity": 40,
              "position": 11,
              "duration": 1.9958333333333333
            },
            {
              "pitch": 60,
              "velocity": 40,
              "position": 11.5,
              "duration": 2.495833333333333
            },
            {
              "pitch": 72,
              "velocity": 42,
              "position": 12.5,
              "duration": 1.9958333333333333
            },
            {
              "pitch": 67,
              "velocity": 42,
              "position": 13,
              "duration": 1.9958333333333333
            },
            {
              "pitch": 60,
              "velocity": 40,
              "position": 14,
              "duration": 1.4958333333333333
            },
            {
              "pitch": 60,
              "velocity": 40,
              "position": 15.5,
              "duration": 0.49583333333333335
            },
            {
              "pitch": 67,
              "velocity": 42,
              "position": 15,
              "duration": 0.9958333333333333
            },
            {
              "pitch": 72,
              "velocity": 42,
              "position": 14.5,
              "duration": 1.4958333333333333
            }
          ]
        },
        "4": {
          "ctab": {
            "srcChannel": 4,
            "name": "Piano",
            "accType": "CHORD2",
            "editable": false,
            "mutedNotes": [],
            "mutedChords": [
              "1+2+5",
              "sus4",
              "1+5",
              "1+8",
              "7aug",
              "Maj7aug",
              "7(#9)",
              "7(b13)",
              "7(b9)",
              "7(13)",
              "7#11",
              "7(9)",
              "7b5",
              "7sus4",
              "7th",
              "aug",
              "Maj6(9)",
              "Maj7(9)",
              "Maj(9)",
              "Maj7#11",
              "Maj7",
              "Maj6",
              "Maj"
            ],
            "autoStart": false,
            "sourceChordNote": 0,
            "sourceChordType": "min",
            "ctb2Low": null,
            "ctb2Main": {
              "ntr": "ROOT_TRANSPOSITION",
              "ntt": "BYPASS",
              "bassOn": false,
              "chordRootUpperLimit": 10,
              "noteLowLimit": 0,
              "noteHighLimit": 79,
              "rtr": "PITCH_SHIFT"
            },
            "ctb2High": null,
            "ctb2MiddleLowPitch": 0,
            "ctb2MiddleHighPitch": 127
          },
          "notes": [
            {
              "pitch": 48,
              "velocity": 96,
              "position": 0.0020833333333333333,
              "duration": 1.49375
            },
            {
              "pitch": 72,
              "velocity": 105,
              "position": 0.0020833333333333333,
              "duration": 1.49375
            },
            {
              "pitch": 84,
              "velocity": 105,
              "position": 0.0020833333333333333,
              "duration": 1.49375
            },
            {
              "pitch": 51,
              "velocity": 67,
              "position": 0.5,
              "duration": 1.4958333333333333
            },
            {
              "pitch": 55,
              "velocity": 63,
              "position": 1,
              "duration": 0.9958333333333333
            },
            {
              "pitch": 63,
              "velocity": 63,
              "position": 1,
              "duration": 0.9958333333333333
            },
            {
              "pitch": 67,
              "velocity": 82,
              "position": 0.5,
              "duration": 1.4958333333333333
            },
            {
              "pitch": 75,
              "velocity": 63,
              "position": 1,
              "duration": 0.9958333333333333
            },
            {
              "pitch": 79,
              "velocity": 82,
              "position": 0.5,
              "duration": 1.4958333333333333
            },
            {
              "pitch": 48,
              "velocity": 94,
              "position": 1.5,
              "duration": 1.4958333333333333
            },
            {
              "pitch": 72,
              "velocity": 98,
              "position": 1.5,
              "duration": 1.4958333333333333
            },
            {
              "pitch": 84,
              "velocity": 98,
              "position": 1.5,
              "duration": 1.4958333333333333
            },
            {
              "pitch": 51,
              "velocity": 56,
              "position": 2,
              "duration": 1.4958333333333333
            },
            {
              "pitch": 55,
              "velocity": 70,
              "position": 2.5,
              "duration": 0.9958333333333333
            },
            {
              "pitch": 63,
              "velocity": 74,
              "position": 2.5,
              "duration": 0.9958333333333333
            },
            {
              "pitch": 67,
              "velocity": 63,
              "position": 2,
              "duration": 1.4958333333333333
            },
            {
              "pitch": 75,
              "velocity": 74,
              "position": 2.5,
              "duration": 0.9958333333333333
            },
            {
              "pitch": 79,
              "velocity": 63,
              "position": 2,
              "duration": 1.4958333333333333
            },
            {
              "pitch": 51,
              "velocity": 38,
              "position": 3.5,
              "duration": 0.49166666666666664
            },
            {
              "pitch": 48,
              "velocity": 91,
              "position": 3,
              "duration": 0.9958333333333333
            },
            {
              "pitch": 72,
              "velocity": 105,
              "position": 3,
              "duration": 0.9958333333333333
            },
            {
              "pitch": 84,
              "velocity": 105,
              "position": 3,
              "duration": 0.9958333333333333
            },
            {
              "pitch": 55,
              "velocity": 63,
              "position": 3.5,
              "duration": 0.9958333333333333
            },
            {
              "pitch": 67,
              "velocity": 84,
              "position": 3.5,
              "duration": 0.9958333333333333
            },
            {
              "pitch": 79,
              "velocity": 84,
              "position": 3.5,
              "duration": 0.9958333333333333
            },
            {
              "pitch": 72,
              "velocity": 107,
              "position": 4,
              "duration": 1.4916666666666667
            },
            {
              "pitch": 84,
              "velocity": 107,
              "position": 4,
              "duration": 1.4916666666666667
            },
            {
              "pitch": 50,
              "velocity": 89,
              "position": 4,
              "duration": 1.4958333333333333
            },
            {
              "pitch": 53,
              "velocity": 64,
              "position": 4.5,
              "duration": 1.4958333333333333
            },
            {
              "pitch": 58,
              "velocity": 84,
              "position": 5,
              "duration": 0.9958333333333333
            },
            {
              "pitch": 62,
              "velocity": 64,
              "position": 5,
              "duration": 0.9958333333333333
            },
            {
              "pitch": 65,
              "velocity": 70,
              "position": 4.5,
              "duration": 1.4958333333333333
            },
            {
              "pitch": 74,
              "velocity": 64,
              "position": 5,
              "duration": 0.9958333333333333
            },
            {
              "pitch": 77,
              "velocity": 70,
              "position": 4.5,
              "duration": 1.4958333333333333
            },
            {
              "pitch": 50,
              "velocity": 76,
              "position": 5.5,
              "duration": 1.4958333333333333
            },
            {
              "pitch": 53,
              "velocity": 71,
              "position": 6,
              "duration": 0.9958333333333333
            },
            {
              "pitch": 58,
              "velocity": 96,
              "position": 6.5,
              "duration": 0.9958333333333333
            },
            {
              "pitch": 62,
              "velocity": 84,
              "position": 6,
              "duration": 1.4958333333333333
            },
            {
              "pitch": 74,
              "velocity": 84,
              "position": 6,
              "duration": 1.4958333333333333
            },
            {
              "pitch": 82,
              "velocity": 107,
              "position": 5.5,
              "duration": 2.2625
            },
            {
              "pitch": 70,
              "velocity": 107,
              "position": 5.5,
              "duration": 2.3958333333333335
            },
            {
              "pitch": 50,
              "velocity": 76,
              "position": 7,
              "duration": 0.9958333333333333
            },
            {
              "pitch": 53,
              "velocity": 65,
              "position": 7,
              "duration": 1.4958333333333333
            },
            {
              "pitch": 58,
              "velocity": 71,
              "position": 7.5,
              "duration": 0.9958333333333333
            },
            {
              "pitch": 62,
              "velocity": 81,
              "position": 7.5,
              "duration": 0.9958333333333333
            },
            {
              "pitch": 74,
              "velocity": 81,
              "position": 7.5,
              "duration": 0.9958333333333333
            },
            {
              "pitch": 51,
              "velocity": 96,
              "position": 8,
              "duration": 1.4958333333333333
            },
            {
              "pitch": 70,
              "velocity": 96,
              "position": 8,
              "duration": 1.4958333333333333
            },
            {
              "pitch": 82,
              "velocity": 96,
              "position": 8,
              "duration": 1.4958333333333333
            },
            {
              "pitch": 55,
              "velocity": 58,
              "position": 8.5,
              "duration": 1.4958333333333333
            },
            {
              "pitch": 58,
              "velocity": 84,
              "position": 9,
              "duration": 0.9958333333333333
            },
            {
              "pitch": 63,
              "velocity": 94,
              "position": 9,
              "duration": 0.9958333333333333
            },
            {
              "pitch": 65,
              "velocity": 47,
              "position": 8.5,
              "duration": 1.4958333333333333
            },
            {
              "pitch": 75,
              "velocity": 94,
              "position": 9,
              "duration": 0.9958333333333333
            },
            {
              "pitch": 77,
              "velocity": 47,
              "position": 8.5,
              "duration": 1.4958333333333333
            },
            {
              "pitch": 51,
              "velocity": 98,
              "position": 9.5,
              "duration": 1.4958333333333333
            },
            {
              "pitch": 70,
              "velocity": 102,
              "position": 9.5,
              "duration": 1.4958333333333333
            },
            {
              "pitch": 82,
              "velocity": 102,
              "position": 9.5,
              "duration": 1.4958333333333333
            },
            {
              "pitch": 55,
              "velocity": 56,
              "position": 10,
              "duration": 1.4958333333333333
            },
            {
              "pitch": 58,
              "velocity": 86,
              "position": 10.5,
              "duration": 0.9958333333333333
            },
            {
              "pitch": 63,
              "velocity": 81,
              "position": 10.5,
              "duration": 0.9958333333333333
            },
            {
              "pitch": 75,
              "velocity": 81,
              "position": 10.5,
              "duration": 0.9958333333333333
            },
            {
              "pitch": 55,
              "velocity": 55,
              "position": 11.5,
              "duration": 0.49166666666666664
            },
            {
              "pitch": 51,
              "velocity": 89,
              "position": 11,
              "duration": 0.9958333333333333
            },
            {
              "pitch": 70,
              "velocity": 84,
              "position": 11,
              "duration": 0.9958333333333333
            },
            {
              "pitch": 82,
              "velocity": 84,
              "position": 11,
              "duration": 0.9958333333333333
            },
            {
              "pitch": 58,
              "velocity": 70,
              "position": 11.5,
              "duration": 0.9958333333333333
            },
            {
              "pitch": 63,
              "velocity": 86,
              "position": 11.5,
              "duration": 0.9958333333333333
            },
            {
              "pitch": 65,
              "velocity": 53,
              "position": 10,
              "duration": 2.495833333333333
            },
            {
              "pitch": 75,
              "velocity": 86,
              "position": 11.5,
              "duration": 0.9958333333333333
            },
            {
              "pitch": 77,
              "velocity": 53,
              "position": 10,
              "duration": 2.495833333333333
            },
            {
              "pitch": 70,
              "velocity": 102,
              "position": 12,
              "duration": 0.9916666666666667
            },
            {
              "pitch": 58,
              "velocity": 82,
              "position": 12.5,
              "duration": 0.49583333333333335
            },
            {
              "pitch": 53,
              "velocity": 81,
              "position": 12,
              "duration": 1.4958333333333333
            },
            {
              "pitch": 82,
              "velocity": 102,
              "position": 12,
              "duration": 1.4958333333333333
            },
            {
              "pitch": 58,
              "velocity": 63,
              "position": 13,
              "duration": 0.9958333333333333
            },
            {
              "pitch": 65,
              "velocity": 61,
              "position": 12.5,
              "duration": 1.4958333333333333
            },
            {
              "pitch": 77,
              "velocity": 61,
              "position": 12.5,
              "duration": 1.4958333333333333
            },
            {
              "pitch": 57,
              "velocity": 81,
              "position": 14,
              "duration": 0.49583333333333335
            },
            {
              "pitch": 60,
              "velocity": 94,
              "position": 13,
              "duration": 1.4958333333333333
            },
            {
              "pitch": 72,
              "velocity": 94,
              "position": 13,
              "duration": 1.4958333333333333
            },
            {
              "pitch": 57,
              "velocity": 61,
              "position": 14.5,
              "duration": 0.49583333333333335
            },
            {
              "pitch": 65,
              "velocity": 64,
              "position": 14,
              "duration": 0.9958333333333333
            },
            {
              "pitch": 77,
              "velocity": 64,
              "position": 14,
              "duration": 0.9958333333333333
            },
            {
              "pitch": 69,
              "velocity": 98,
              "position": 13.5,
              "duration": 1.9958333333333333
            },
            {
              "pitch": 81,
              "velocity": 98,
              "position": 13.5,
              "duration": 1.9958333333333333
            },
            {
              "pitch": 53,
              "velocity": 89,
              "position": 13.5,
              "duration": 2.495833333333333
            },
            {
              "pitch": 57,
              "velocity": 61,
              "position": 15,
              "duration": 0.9958333333333333
            },
            {
              "pitch": 60,
              "velocity": 89,
              "position": 14.5,
              "duration": 1.4958333333333333
            },
            {
              "pitch": 65,
              "velocity": 98,
              "position": 15,
              "duration": 0.9958333333333333
            },
            {
              "pitch": 72,
              "velocity": 89,
              "position": 14.5,
              "duration": 1.4958333333333333
            },
            {
              "pitch": 77,
              "velocity": 98,
              "position": 15,
              "duration": 0.9958333333333333
            }
          ]
        },
        "5": {
          "ctab": {
            "srcChannel": 5,
            "name": "Strings",
            "accType": "PAD",
            "editable": false,
            "mutedNotes": [],
            "mutedChords": [
              "1+2+5",
              "sus4",
              "1+5",
              "1+8",
              "7aug",
              "Maj7aug",
              "7(#9)",
              "7(b13)",
              "7(b9)",
              "7(13)",
              "7#11",
              "7(9)",
              "7b5",
              "7sus4",
              "7th",
              "aug",
              "Maj6(9)",
              "Maj7(9)",
              "Maj(9)",
              "Maj7#11",
              "Maj7",
              "Maj6",
              "Maj"
            ],
            "autoStart": false,
            "sourceChordNote": 0,
            "sourceChordType": "min",
            "ctb2Low": null,
            "ctb2Main": {
              "ntr": "ROOT_TRANSPOSITION",
              "ntt": "BYPASS",
              "bassOn": false,
              "chordRootUpperLimit": 5,
              "noteLowLimit": 57,
              "noteHighLimit": 68,
              "rtr": "PITCH_SHIFT"
            },
            "ctb2High": null,
            "ctb2MiddleLowPitch": 0,
            "ctb2MiddleHighPitch": 127
          },
          "notes": [
            {
              "pitch": 55,
              "velocity": 80,
              "position": 0,
              "duration": 3.995833333333333
            },
            {
              "pitch": 63,
              "velocity": 80,
              "position": 0,
              "duration": 3.995833333333333
            },
            {
              "pitch": 58,
              "velocity": 80,
              "position": 4,
              "duration": 3.995833333333333
            },
            {
              "pitch": 60,
              "velocity": 80,
              "position": 0,
              "duration": 7.995833333333334
            },
            {
              "pitch": 65,
              "velocity": 80,
              "position": 4,
              "duration": 3.995833333333333
            },
            {
              "pitch": 58,
              "velocity": 80,
              "position": 8,
              "duration": 3.995833333333333
            },
            {
              "pitch": 63,
              "velocity": 80,
              "position": 8,
              "duration": 3.995833333333333
            },
            {
              "pitch": 57,
              "velocity": 80,
              "position": 12,
              "duration": 3.995833333333333
            },
            {
              "pitch": 60,
              "velocity": 80,
              "position": 12,
              "duration": 3.995833333333333
            },
            {
              "pitch": 65,
              "velocity": 80,
              "position": 12,
              "duration": 3.995833333333333
            },
            {
              "pitch": 67,
              "velocity": 80,
              "position": 8,
              "duration": 7.995833333333334
            }
          ]
        },
        "7": {
          "ctab": {
            "srcChannel": 7,
            "name": "Guitar2",
            "accType": "PHRASE2",
            "editable": false,
            "mutedNotes": [],
            "mutedChords": [
              "1+2+5",
              "sus4",
              "1+5",
              "1+8",
              "7aug",
              "Maj7aug",
              "7(#9)",
              "7(b13)",
              "7(b9)",
              "7(13)",
              "7#11",
              "7(9)",
              "7b5",
              "7sus4",
              "7th",
              "aug",
              "Maj6(9)",
              "Maj7(9)",
              "Maj(9)",
              "Maj7#11",
              "Maj7",
              "Maj6",
              "Maj"
            ],
            "autoStart": false,
            "sourceChordNote": 0,
            "sourceChordType": "min",
            "ctb2Low": null,
            "ctb2Main": {
              "ntr": "ROOT_TRANSPOSITION",
              "ntt": "BYPASS",
              "bassOn": false,
              "chordRootUpperLimit": 3,
              "noteLowLimit": 48,
              "noteHighLimit": 95,
              "rtr": "PITCH_SHIFT"
            },
            "ctb2High": {
              "ntr": "ROOT_FIXED",
              "ntt": "BYPASS",
              "bassOn": false,
              "chordRootUpperLimit": 7,
              "noteLowLimit": 0,
              "noteHighLimit": 127,
              "rtr": "PITCH_SHIFT"
            },
            "ctb2MiddleLowPitch": 0,
            "ctb2MiddleHighPitch": 95
          },
          "notes": [
            {
              "pitch": 63,
              "velocity": 30,
              "position": 0.010416666666666666,
              "duration": 3.9854166666666666
            },
            {
              "pitch": 65,
              "velocity": 30,
              "position": 4.00625,
              "duration": 3.9875
            },
            {
              "pitch": 67,
              "velocity": 30,
              "position": 8.00625,
              "duration": 3.9875
            },
            {
              "pitch": 65,
              "velocity": 30,
              "position": 12.00625,
              "duration": 3.9875
            }
          ]
        },
        "9": {
          "ctab": {
            "srcChannel": 9,
            "name": "MainDrum",
            "accType": "RHYTHM",
            "editable": false,
            "mutedNotes": [],
            "mutedChords": [],
            "autoStart": true,
            "sourceChordNote": 0,
            "sourceChordType": "Maj7",
            "ctb2Low": null,
            "ctb2Main": {
              "ntr": "ROOT_FIXED",
              "ntt": "BYPASS",
              "bassOn": false,
              "chordRootUpperLimit": 6,
              "noteLowLimit": 0,
              "noteHighLimit": 127,
              "rtr": "PITCH_SHIFT"
            },
            "ctb2High": null,
            "ctb2MiddleLowPitch": 0,
            "ctb2MiddleHighPitch": 127
          },
          "notes": [
            {
              "pitch": 33,
              "velocity": 70,
              "position": 0,
              "duration": 0.00625
            },
            {
              "pitch": 38,
              "velocity": 38,
              "position": 0,
              "duration": 0.00625
            },
            {
              "pitch": 42,
              "velocity": 70,
              "position": 0,
              "duration": 0.00625
            },
            {
              "pitch": 33,
              "velocity": 40,
              "position": 0.5,
              "duration": 0.00625
            },
            {
              "pitch": 42,
              "velocity": 39,
              "position": 0.5,
              "duration": 0.00625
            },
            {
              "pitch": 42,
              "velocity": 20,
              "position": 0.75,
              "duration": 0.00625
            },
            {
              "pitch": 38,
              "velocity": 67,
              "position": 1,
              "duration": 0.00625
            },
            {
              "pitch": 44,
              "velocity": 55,
              "position": 1,
              "duration": 0.00625
            },
            {
              "pitch": 50,
              "velocity": 63,
              "position": 1.0208333333333333,
              "duration": 0.00625
            },
            {
              "pitch": 33,
              "velocity": 46,
              "position": 1.5,
              "duration": 0.00625
            },
            {
              "pitch": 42,
              "velocity": 43,
              "position": 1.5,
              "duration": 0.00625
            },
            {
              "pitch": 33,
              "velocity": 54,
              "position": 2,
              "duration": 0.00625
            },
            {
              "pitch": 42,
              "velocity": 24,
              "position": 2,
              "duration": 0.00625
            },
            {
              "pitch": 38,
              "velocity": 79,
              "position": 2.5,
              "duration": 0.00625
            },
            {
              "pitch": 44,
              "velocity": 55,
              "position": 2.5,
              "duration": 0.00625
            },
            {
              "pitch": 47,
              "velocity": 67,
              "position": 2.5208333333333335,
              "duration": 0.00625
            },
            {
              "pitch": 33,
              "velocity": 49,
              "position": 3,
              "duration": 0.00625
            },
            {
              "pitch": 42,
              "velocity": 44,
              "position": 3,
              "duration": 0.00625
            },
            {
              "pitch": 33,
              "velocity": 59,
              "position": 3.5,
              "duration": 0.00625
            },
            {
              "pitch": 42,
              "velocity": 39,
              "position": 3.5,
              "duration": 0.00625
            },
            {
              "pitch": 33,
              "velocity": 71,
              "position": 4,
              "duration": 0.00625
            },
            {
              "pitch": 42,
              "velocity": 70,
              "position": 4,
              "duration": 0.00625
            },
            {
              "pitch": 33,
              "velocity": 40,
              "position": 4.5,
              "duration": 0.00625
            },
            {
              "pitch": 42,
              "velocity": 39,
              "position": 4.5,
              "duration": 0.00625
            },
            {
              "pitch": 38,
              "velocity": 79,
              "position": 5,
              "duration": 0.00625
            },
            {
              "pitch": 44,
              "velocity": 55,
              "position": 5,
              "duration": 0.00625
            },
            {
              "pitch": 45,
              "velocity": 67,
              "position": 5.020833333333333,
              "duration": 0.00625
            },
            {
              "pitch": 33,
              "velocity": 46,
              "position": 5.5,
              "duration": 0.00625
            },
            {
              "pitch": 42,
              "velocity": 44,
              "position": 5.5,
              "duration": 0.00625
            },
            {
              "pitch": 33,
              "velocity": 54,
              "position": 6,
              "duration": 0.00625
            },
            {
              "pitch": 42,
              "velocity": 24,
              "position": 6,
              "duration": 0.00625
            },
            {
              "pitch": 38,
              "velocity": 85,
              "position": 6.5,
              "duration": 0.00625
            },
            {
              "pitch": 43,
              "velocity": 64,
              "position": 6.5,
              "duration": 0.00625
            },
            {
              "pitch": 44,
              "velocity": 55,
              "position": 6.5,
              "duration": 0.00625
            },
            {
              "pitch": 33,
              "velocity": 49,
              "position": 7,
              "duration": 0.00625
            },
            {
              "pitch": 42,
              "velocity": 44,
              "position": 7,
              "duration": 0.00625
            },
            {
              "pitch": 33,
              "velocity": 59,
              "position": 7.5,
              "duration": 0.00625
            },
            {
              "pitch": 42,
              "velocity": 39,
              "position": 7.5,
              "duration": 0.00625
            },
            {
              "pitch": 42,
              "velocity": 20,
              "position": 7.75,
              "duration": 0.00625
            },
            {
              "pitch": 33,
              "velocity": 70,
              "position": 8,
              "duration": 0.00625
            },
            {
              "pitch": 38,
              "velocity": 38,
              "position": 8,
              "duration": 0.00625
            },
            {
              "pitch": 42,
              "velocity": 70,
              "position": 8,
              "duration": 0.00625
            },
            {
              "pitch": 33,
              "velocity": 40,
              "position": 8.5,
              "duration": 0.00625
            },
            {
              "pitch": 42,
              "velocity": 39,
              "position": 8.5,
              "duration": 0.00625
            },
            {
              "pitch": 42,
              "velocity": 20,
              "position": 8.75,
              "duration": 0.00625
            },
            {
              "pitch": 38,
              "velocity": 67,
              "position": 9,
              "duration": 0.00625
            },
            {
              "pitch": 44,
              "velocity": 55,
              "position": 9,
              "duration": 0.00625
            },
            {
              "pitch": 50,
              "velocity": 86,
              "position": 9.020833333333334,
              "duration": 0.00625
            },
            {
              "pitch": 33,
              "velocity": 46,
              "position": 9.5,
              "duration": 0.00625
            },
            {
              "pitch": 42,
              "velocity": 43,
              "position": 9.5,
              "duration": 0.00625
            },
            {
              "pitch": 33,
              "velocity": 54,
              "position": 10,
              "duration": 0.00625
            },
            {
              "pitch": 42,
              "velocity": 24,
              "position": 10,
              "duration": 0.00625
            },
            {
              "pitch": 38,
              "velocity": 79,
              "position": 10.5,
              "duration": 0.00625
            },
            {
              "pitch": 44,
              "velocity": 55,
              "position": 10.5,
              "duration": 0.00625
            },
            {
              "pitch": 47,
              "velocity": 95,
              "position": 10.520833333333334,
              "duration": 0.00625
            },
            {
              "pitch": 33,
              "velocity": 49,
              "position": 11,
              "duration": 0.00625
            },
            {
              "pitch": 42,
              "velocity": 44,
              "position": 11,
              "duration": 0.00625
            },
            {
              "pitch": 33,
              "velocity": 59,
              "position": 11.5,
              "duration": 0.00625
            },
            {
              "pitch": 42,
              "velocity": 39,
              "position": 11.5,
              "duration": 0.00625
            },
            {
              "pitch": 38,
              "velocity": 75,
              "position": 11.989583333333334,
              "duration": 0.00625
            },
            {
              "pitch": 44,
              "velocity": 55,
              "position": 12,
              "duration": 0.00625
            },
            {
              "pitch": 38,
              "velocity": 97,
              "position": 12.041666666666666,
              "duration": 0.00625
            },
            {
              "pitch": 33,
              "velocity": 75,
              "position": 12.5,
              "duration": 0.00625
            },
            {
              "pitch": 33,
              "velocity": 60,
              "position": 13,
              "duration": 0.00625
            },
            {
              "pitch": 44,
              "velocity": 55,
              "position": 13,
              "duration": 0.00625
            },
            {
              "pitch": 38,
              "velocity": 75,
              "position": 13.489583333333334,
              "duration": 0.00625
            },
            {
              "pitch": 38,
              "velocity": 101,
              "position": 13.541666666666666,
              "duration": 0.00625
            },
            {
              "pitch": 33,
              "velocity": 63,
              "position": 14,
              "duration": 0.00625
            },
            {
              "pitch": 44,
              "velocity": 55,
              "position": 14,
              "duration": 0.00625
            },
            {
              "pitch": 33,
              "velocity": 75,
              "position": 14.5,
              "duration": 0.00625
            },
            {
              "pitch": 33,
              "velocity": 63,
              "position": 14.75,
              "duration": 0.00625
            },
            {
              "pitch": 38,
              "velocity": 75,
              "position": 14.989583333333334,
              "duration": 0.00625
            },
            {
              "pitch": 44,
              "velocity": 55,
              "position": 15,
              "duration": 0.00625
            },
            {
              "pitch": 57,
              "velocity": 74,
              "position": 15,
              "duration": 0.00625
            },
            {
              "pitch": 38,
              "velocity": 101,
              "position": 15.041666666666666,
              "duration": 0.00625
            },
            {
              "pitch": 57,
              "velocity": 73,
              "position": 15.989583333333334,
              "duration": 0.00625
            }
          ]
        },
        "10": {
          "ctab": {
            "srcChannel": 10,
            "name": "Bass",
            "accType": "BASS",
            "editable": false,
            "mutedNotes": [],
            "mutedChords": [
              "dim7",
              "dim",
              "minMaj7(9)",
              "minMaj7",
              "min7(11)",
              "min7(9)",
              "min(9)",
              "m7b5",
              "min7",
              "min6",
              "min"
            ],
            "autoStart": false,
            "sourceChordNote": 0,
            "sourceChordType": "Maj",
            "ctb2Low": null,
            "ctb2Main": {
              "ntr": "ROOT_TRANSPOSITION",
              "ntt": "BYPASS",
              "bassOn": false,
              "chordRootUpperLimit": 3,
              "noteLowLimit": 28,
              "noteHighLimit": 127,
              "rtr": "PITCH_SHIFT"
            },
            "ctb2High": {
              "ntr": "ROOT_FIXED",
              "ntt": "BYPASS",
              "bassOn": false,
              "chordRootUpperLimit": 3,
              "noteLowLimit": 0,
              "noteHighLimit": 127,
              "rtr": "PITCH_SHIFT"
            },
            "ctb2MiddleLowPitch": 0,
            "ctb2MiddleHighPitch": 95
          },
          "notes": [
            {
              "pitch": 24,
              "velocity": 64,
              "position": 0,
              "duration": 3.49375
            },
            {
              "pitch": 24,
              "velocity": 51,
              "position": 3.5,
              "duration": 0.49375
            },
            {
              "pitch": 26,
              "velocity": 64,
              "position": 4,
              "duration": 3.49375
            },
            {
              "pitch": 24,
              "velocity": 51,
              "position": 7.5,
              "duration": 0.24375
            },
            {
              "pitch": 26,
              "velocity": 52,
              "position": 7.75,
              "duration": 0.24375
            },
            {
              "pitch": 27,
              "velocity": 64,
              "position": 8,
              "duration": 0.36666666666666664
            },
            {
              "pitch": 27,
              "velocity": 51,
              "position": 8.5,
              "duration": 0.36666666666666664
            },
            {
              "pitch": 27,
              "velocity": 51,
              "position": 9,
              "duration": 0.36666666666666664
            },
            {
              "pitch": 27,
              "velocity": 55,
              "position": 9.5,
              "duration": 0.48125
            },
            {
              "pitch": 27,
              "velocity": 51,
              "position": 10,
              "duration": 0.36666666666666664
            },
            {
              "pitch": 27,
              "velocity": 51,
              "position": 10.5,
              "duration": 0.36666666666666664
            },
            {
              "pitch": 27,
              "velocity": 62,
              "position": 11,
              "duration": 0.36666666666666664
            },
            {
              "pitch": 27,
              "velocity": 51,
              "position": 11.5,
              "duration": 0.36666666666666664
            },
            {
              "pitch": 29,
              "velocity": 64,
              "position": 12,
              "duration": 0.36666666666666664
            },
            {
              "pitch": 29,
              "velocity": 51,
              "position": 12.5,
              "duration": 0.36666666666666664
            },
            {
              "pitch": 29,
              "velocity": 51,
              "position": 13,
              "duration": 0.36666666666666664
            },
            {
              "pitch": 29,
              "velocity": 55,
              "position": 13.5,
              "duration": 0.48125
            },
            {
              "pitch": 29,
              "velocity": 51,
              "position": 14,
              "duration": 0.36666666666666664
            },
            {
              "pitch": 29,
              "velocity": 51,
              "position": 14.5,
              "duration": 0.36666666666666664
            },
            {
              "pitch": 29,
              "velocity": 62,
              "position": 15,
              "duration": 0.36666666666666664
            },
            {
              "pitch": 29,
              "velocity": 51,
              "position": 15.5,
              "duration": 0.23125
            },
            {
              "pitch": 29,
              "velocity": 52,
              "position": 15.75,
              "duration": 0.23125
            }
          ]
        },
        "11": {
          "ctab": {
            "srcChannel": 11,
            "name": "Guitar1",
            "accType": "CHORD1",
            "editable": false,
            "mutedNotes": [],
            "mutedChords": [
              "dim7",
              "dim",
              "minMaj7(9)",
              "minMaj7",
              "min7(11)",
              "min7(9)",
              "min(9)",
              "m7b5",
              "min7",
              "min6",
              "min"
            ],
            "autoStart": false,
            "sourceChordNote": 0,
            "sourceChordType": "Maj",
            "ctb2Low": null,
            "ctb2Main": {
              "ntr": "ROOT_TRANSPOSITION",
              "ntt": "BYPASS",
              "bassOn": false,
              "chordRootUpperLimit": 8,
              "noteLowLimit": 0,
              "noteHighLimit": 127,
              "rtr": "PITCH_SHIFT"
            },
            "ctb2High": {
              "ntr": "ROOT_FIXED",
              "ntt": "BYPASS",
              "bassOn": false,
              "chordRootUpperLimit": 7,
              "noteLowLimit": 0,
              "noteHighLimit": 127,
              "rtr": "PITCH_SHIFT"
            },
            "ctb2MiddleLowPitch": 0,
            "ctb2MiddleHighPitch": 95
          },
          "notes": [
            {
              "pitch": 60,
              "velocity": 40,
              "position": 0,
              "duration": 1.9958333333333333
            },
            {
              "pitch": 72,
              "velocity": 42,
              "position": 0.5,
              "duration": 1.9958333333333333
            },
            {
              "pitch": 67,
              "velocity": 42,
              "position": 1,
              "duration": 1.9958333333333333
            },
            {
              "pitch": 60,
              "velocity": 40,
              "position": 2,
              "duration": 1.4958333333333333
            },
            {
              "pitch": 72,
              "velocity": 42,
              "position": 2.5,
              "duration": 1.9958333333333333
            },
            {
              "pitch": 67,
              "velocity": 38,
              "position": 3,
              "duration": 1.9958333333333333
            },
            {
              "pitch": 60,
              "velocity": 40,
              "position": 3.5,
              "duration": 2.495833333333333
            },
            {
              "pitch": 72,
              "velocity": 42,
              "position": 4.5,
              "duration": 1.9958333333333333
            },
            {
              "pitch": 67,
              "velocity": 42,
              "position": 5,
              "duration": 1.9958333333333333
            },
            {
              "pitch": 60,
              "velocity": 40,
              "position": 6,
              "duration": 1.4958333333333333
            },
            {
              "pitch": 72,
              "velocity": 42,
              "position": 6.5,
              "duration": 1.9958333333333333
            },
            {
              "pitch": 67,
              "velocity": 42,
              "position": 7,
              "duration": 1.9958333333333333
            },
            {
              "pitch": 60,
              "velocity": 40,
              "position": 7.5,
              "duration": 2.495833333333333
            },
            {
              "pitch": 72,
              "velocity": 42,
              "position": 8.5,
              "duration": 1.9958333333333333
            },
            {
              "pitch": 67,
              "velocity": 42,
              "position": 9,
              "duration": 1.9958333333333333
            },
            {
              "pitch": 60,
              "velocity": 40,
              "position": 10,
              "duration": 1.4958333333333333
            },
            {
              "pitch": 72,
              "velocity": 42,
              "position": 10.5,
              "duration": 1.9958333333333333
            },
            {
              "pitch": 67,
              "velocity": 38,
              "position": 11,
              "duration": 1.9958333333333333
            },
            {
              "pitch": 60,
              "velocity": 40,
              "position": 11.5,
              "duration": 2.495833333333333
            },
            {
              "pitch": 72,
              "velocity": 42,
              "position": 12.5,
              "duration": 1.9958333333333333
            },
            {
              "pitch": 67,
              "velocity": 42,
              "position": 13,
              "duration": 1.9958333333333333
            },
            {
              "pitch": 60,
              "velocity": 40,
              "position": 14,
              "duration": 1.4958333333333333
            },
            {
              "pitch": 60,
              "velocity": 40,
              "position": 15.5,
              "duration": 0.49583333333333335
            },
            {
              "pitch": 67,
              "velocity": 42,
              "position": 15,
              "duration": 0.9958333333333333
            },
            {
              "pitch": 72,
              "velocity": 42,
              "position": 14.5,
              "duration": 1.4958333333333333
            }
          ]
        },
        "12": {
          "ctab": {
            "srcChannel": 12,
            "name": "Piano",
            "accType": "CHORD2",
            "editable": false,
            "mutedNotes": [],
            "mutedChords": [
              "dim7",
              "dim",
              "minMaj7(9)",
              "minMaj7",
              "min7(11)",
              "min7(9)",
              "min(9)",
              "m7b5",
              "min7",
              "min6",
              "min"
            ],
            "autoStart": false,
            "sourceChordNote": 0,
            "sourceChordType": "Maj",
            "ctb2Low": null,
            "ctb2Main": {
              "ntr": "ROOT_TRANSPOSITION",
              "ntt": "BYPASS",
              "bassOn": false,
              "chordRootUpperLimit": 10,
              "noteLowLimit": 0,
              "noteHighLimit": 79,
              "rtr": "PITCH_SHIFT"
            },
            "ctb2High": null,
            "ctb2MiddleLowPitch": 0,
            "ctb2MiddleHighPitch": 127
          },
          "notes": [
            {
              "pitch": 48,
              "velocity": 96,
              "position": 0.0020833333333333333,
              "duration": 1.4958333333333333
            },
            {
              "pitch": 72,
              "velocity": 105,
              "position": 0.0020833333333333333,
              "duration": 1.4958333333333333
            },
            {
              "pitch": 84,
              "velocity": 105,
              "position": 0.0020833333333333333,
              "duration": 1.4958333333333333
            },
            {
              "pitch": 52,
              "velocity": 67,
              "position": 0.5,
              "duration": 1.4958333333333333
            },
            {
              "pitch": 55,
              "velocity": 63,
              "position": 1,
              "duration": 0.9958333333333333
            },
            {
              "pitch": 64,
              "velocity": 63,
              "position": 1,
              "duration": 0.9958333333333333
            },
            {
              "pitch": 67,
              "velocity": 82,
              "position": 0.5,
              "duration": 1.4958333333333333
            },
            {
              "pitch": 76,
              "velocity": 63,
              "position": 1,
              "duration": 0.9958333333333333
            },
            {
              "pitch": 79,
              "velocity": 82,
              "position": 0.5,
              "duration": 1.4958333333333333
            },
            {
              "pitch": 48,
              "velocity": 94,
              "position": 1.5,
              "duration": 1.4958333333333333
            },
            {
              "pitch": 72,
              "velocity": 98,
              "position": 1.5,
              "duration": 1.4958333333333333
            },
            {
              "pitch": 84,
              "velocity": 98,
              "position": 1.5,
              "duration": 1.4958333333333333
            },
            {
              "pitch": 52,
              "velocity": 56,
              "position": 2,
              "duration": 1.4958333333333333
            },
            {
              "pitch": 55,
              "velocity": 70,
              "position": 2.5,
              "duration": 0.9958333333333333
            },
            {
              "pitch": 64,
              "velocity": 74,
              "position": 2.5,
              "duration": 0.9958333333333333
            },
            {
              "pitch": 67,
              "velocity": 63,
              "position": 2,
              "duration": 1.4958333333333333
            },
            {
              "pitch": 76,
              "velocity": 74,
              "position": 2.5,
              "duration": 0.9958333333333333
            },
            {
              "pitch": 79,
              "velocity": 63,
              "position": 2,
              "duration": 1.4958333333333333
            },
            {
              "pitch": 48,
              "velocity": 91,
              "position": 3,
              "duration": 0.9958333333333333
            },
            {
              "pitch": 72,
              "velocity": 105,
              "position": 3,
              "duration": 0.9958333333333333
            },
            {
              "pitch": 84,
              "velocity": 105,
              "position": 3,
              "duration": 0.9958333333333333
            },
            {
              "pitch": 52,
              "velocity": 38,
              "position": 3.5,
              "duration": 0.9958333333333333
            },
            {
              "pitch": 55,
              "velocity": 63,
              "position": 3.5,
              "duration": 0.9958333333333333
            },
            {
              "pitch": 67,
              "velocity": 84,
              "position": 3.5,
              "duration": 0.9958333333333333
            },
            {
              "pitch": 79,
              "velocity": 84,
              "position": 3.5,
              "duration": 0.9958333333333333
            },
            {
              "pitch": 50,
              "velocity": 89,
              "position": 4,
              "duration": 1.4958333333333333
            },
            {
              "pitch": 53,
              "velocity": 64,
              "position": 4.5,
              "duration": 1.4958333333333333
            },
            {
              "pitch": 58,
              "velocity": 84,
              "position": 5,
              "duration": 0.9958333333333333
            },
            {
              "pitch": 62,
              "velocity": 64,
              "position": 5,
              "duration": 0.9958333333333333
            },
            {
              "pitch": 65,
              "velocity": 70,
              "position": 4.5,
              "duration": 1.4958333333333333
            },
            {
              "pitch": 72,
              "velocity": 107,
              "position": 4,
              "duration": 1.9958333333333333
            },
            {
              "pitch": 74,
              "velocity": 64,
              "position": 5,
              "duration": 0.9958333333333333
            },
            {
              "pitch": 77,
              "velocity": 70,
              "position": 4.5,
              "duration": 1.4958333333333333
            },
            {
              "pitch": 84,
              "velocity": 107,
              "position": 4,
              "duration": 1.9958333333333333
            },
            {
              "pitch": 50,
              "velocity": 76,
              "position": 5.5,
              "duration": 1.4958333333333333
            },
            {
              "pitch": 53,
              "velocity": 71,
              "position": 6,
              "duration": 0.9958333333333333
            },
            {
              "pitch": 70,
              "velocity": 107,
              "position": 5.5,
              "duration": 1.4958333333333333
            },
            {
              "pitch": 82,
              "velocity": 107,
              "position": 5.5,
              "duration": 1.4958333333333333
            },
            {
              "pitch": 58,
              "velocity": 96,
              "position": 6.5,
              "duration": 0.9958333333333333
            },
            {
              "pitch": 62,
              "velocity": 84,
              "position": 6,
              "duration": 1.4958333333333333
            },
            {
              "pitch": 74,
              "velocity": 84,
              "position": 6,
              "duration": 1.4958333333333333
            },
            {
              "pitch": 50,
              "velocity": 76,
              "position": 7,
              "duration": 0.9958333333333333
            },
            {
              "pitch": 69,
              "velocity": 98,
              "position": 7,
              "duration": 0.9958333333333333
            },
            {
              "pitch": 81,
              "velocity": 98,
              "position": 7,
              "duration": 0.9958333333333333
            },
            {
              "pitch": 53,
              "velocity": 65,
              "position": 7,
              "duration": 1.4958333333333333
            },
            {
              "pitch": 58,
              "velocity": 71,
              "position": 7.5,
              "duration": 0.9958333333333333
            },
            {
              "pitch": 62,
              "velocity": 81,
              "position": 7.5,
              "duration": 0.9958333333333333
            },
            {
              "pitch": 74,
              "velocity": 81,
              "position": 7.5,
              "duration": 0.9958333333333333
            },
            {
              "pitch": 51,
              "velocity": 96,
              "position": 8,
              "duration": 1.4958333333333333
            },
            {
              "pitch": 70,
              "velocity": 96,
              "position": 8,
              "duration": 1.4958333333333333
            },
            {
              "pitch": 82,
              "velocity": 96,
              "position": 8,
              "duration": 1.4958333333333333
            },
            {
              "pitch": 55,
              "velocity": 58,
              "position": 8.5,
              "duration": 1.4958333333333333
            },
            {
              "pitch": 58,
              "velocity": 84,
              "position": 9,
              "duration": 0.9958333333333333
            },
            {
              "pitch": 63,
              "velocity": 94,
              "position": 9,
              "duration": 0.9958333333333333
            },
            {
              "pitch": 65,
              "velocity": 47,
              "position": 8.5,
              "duration": 1.4958333333333333
            },
            {
              "pitch": 75,
              "velocity": 94,
              "position": 9,
              "duration": 0.9958333333333333
            },
            {
              "pitch": 77,
              "velocity": 47,
              "position": 8.5,
              "duration": 1.4958333333333333
            },
            {
              "pitch": 51,
              "velocity": 98,
              "position": 9.5,
              "duration": 1.4958333333333333
            },
            {
              "pitch": 70,
              "velocity": 102,
              "position": 9.5,
              "duration": 1.4958333333333333
            },
            {
              "pitch": 82,
              "velocity": 102,
              "position": 9.5,
              "duration": 1.4958333333333333
            },
            {
              "pitch": 55,
              "velocity": 56,
              "position": 10,
              "duration": 1.4958333333333333
            },
            {
              "pitch": 58,
              "velocity": 86,
              "position": 10.5,
              "duration": 0.9958333333333333
            },
            {
              "pitch": 63,
              "velocity": 81,
              "position": 10.5,
              "duration": 0.9958333333333333
            },
            {
              "pitch": 75,
              "velocity": 81,
              "position": 10.5,
              "duration": 0.9958333333333333
            },
            {
              "pitch": 51,
              "velocity": 89,
              "position": 11,
              "duration": 0.9958333333333333
            },
            {
              "pitch": 70,
              "velocity": 84,
              "position": 11,
              "duration": 0.9958333333333333
            },
            {
              "pitch": 82,
              "velocity": 84,
              "position": 11,
              "duration": 0.9958333333333333
            },
            {
              "pitch": 55,
              "velocity": 55,
              "position": 11.5,
              "duration": 0.9958333333333333
            },
            {
              "pitch": 58,
              "velocity": 70,
              "position": 11.5,
              "duration": 0.9958333333333333
            },
            {
              "pitch": 63,
              "velocity": 86,
              "position": 11.5,
              "duration": 0.9958333333333333
            },
            {
              "pitch": 65,
              "velocity": 53,
              "position": 10,
              "duration": 2.495833333333333
            },
            {
              "pitch": 75,
              "velocity": 86,
              "position": 11.5,
              "duration": 0.9958333333333333
            },
            {
              "pitch": 77,
              "velocity": 53,
              "position": 10,
              "duration": 2.495833333333333
            },
            {
              "pitch": 58,
              "velocity": 82,
              "position": 12.5,
              "duration": 0.49583333333333335
            },
            {
              "pitch": 53,
              "velocity": 81,
              "position": 12,
              "duration": 1.4958333333333333
            },
            {
              "pitch": 70,
              "velocity": 102,
              "position": 12,
              "duration": 1.4958333333333333
            },
            {
              "pitch": 82,
              "velocity": 102,
              "position": 12,
              "duration": 1.4958333333333333
            },
            {
              "pitch": 58,
              "velocity": 63,
              "position": 13,
              "duration": 0.9958333333333333
            },
            {
              "pitch": 65,
              "velocity": 61,
              "position": 12.5,
              "duration": 1.4958333333333333
            },
            {
              "pitch": 77,
              "velocity": 61,
              "position": 12.5,
              "duration": 1.4958333333333333
            },
            {
              "pitch": 57,
              "velocity": 81,
              "position": 14,
              "duration": 0.49583333333333335
            },
            {
              "pitch": 60,
              "velocity": 94,
              "position": 13,
              "duration": 1.4958333333333333
            },
            {
              "pitch": 72,
              "velocity": 94,
              "position": 13,
              "duration": 1.4958333333333333
            },
            {
              "pitch": 57,
              "velocity": 61,
              "position": 14.5,
              "duration": 0.49583333333333335
            },
            {
              "pitch": 65,
              "velocity": 64,
              "position": 14,
              "duration": 0.9958333333333333
            },
            {
              "pitch": 77,
              "velocity": 64,
              "position": 14,
              "duration": 0.9958333333333333
            },
            {
              "pitch": 69,
              "velocity": 98,
              "position": 13.5,
              "duration": 1.9958333333333333
            },
            {
              "pitch": 81,
              "velocity": 98,
              "position": 13.5,
              "duration": 1.9958333333333333
            },
            {
              "pitch": 53,
              "velocity": 89,
              "position": 13.5,
              "duration": 2.495833333333333
            },
            {
              "pitch": 57,
              "velocity": 61,
              "position": 15,
              "duration": 0.9958333333333333
            },
            {
              "pitch": 60,
              "velocity": 89,
              "position": 14.5,
              "duration": 1.4958333333333333
            },
            {
              "pitch": 65,
              "velocity": 98,
              "position": 15,
              "duration": 0.9958333333333333
            },
            {
              "pitch": 72,
              "velocity": 89,
              "position": 14.5,
              "duration": 1.4958333333333333
            },
            {
              "pitch": 77,
              "velocity": 98,
              "position": 15,
              "duration": 0.9958333333333333
            }
          ]
        },
        "13": {
          "ctab": {
            "srcChannel": 13,
            "name": "Strings",
            "accType": "PAD",
            "editable": false,
            "mutedNotes": [],
            "mutedChords": [
              "dim7",
              "dim",
              "minMaj7(9)",
              "minMaj7",
              "min7(11)",
              "min7(9)",
              "min(9)",
              "m7b5",
              "min7",
              "min6",
              "min"
            ],
            "autoStart": false,
            "sourceChordNote": 0,
            "sourceChordType": "Maj",
            "ctb2Low": null,
            "ctb2Main": {
              "ntr": "ROOT_TRANSPOSITION",
              "ntt": "BYPASS",
              "bassOn": false,
              "chordRootUpperLimit": 5,
              "noteLowLimit": 57,
              "noteHighLimit": 68,
              "rtr": "PITCH_SHIFT"
            },
            "ctb2High": null,
            "ctb2MiddleLowPitch": 0,
            "ctb2MiddleHighPitch": 127
          },
          "notes": [
            {
              "pitch": 55,
              "velocity": 80,
              "position": 0,
              "duration": 3.995833333333333
            },
            {
              "pitch": 64,
              "velocity": 80,
              "position": 0,
              "duration": 3.995833333333333
            },
            {
              "pitch": 57,
              "velocity": 80,
              "position": 4,
              "duration": 3.995833333333333
            },
            {
              "pitch": 65,
              "velocity": 80,
              "position": 4,
              "duration": 3.995833333333333
            },
            {
              "pitch": 58,
              "velocity": 80,
              "position": 8,
              "duration": 3.995833333333333
            },
            {
              "pitch": 63,
              "velocity": 80,
              "position": 8,
              "duration": 3.995833333333333
            },
            {
              "pitch": 57,
              "velocity": 80,
              "position": 12,
              "duration": 3.995833333333333
            },
            {
              "pitch": 60,
              "velocity": 80,
              "position": 0,
              "duration": 15.995833333333334
            },
            {
              "pitch": 65,
              "velocity": 80,
              "position": 12,
              "duration": 3.995833333333333
            },
            {
              "pitch": 67,
              "velocity": 80,
              "position": 8,
              "duration": 7.995833333333334
            }
          ]
        },
        "15": {
          "ctab": {
            "srcChannel": 15,
            "name": "Guitar2",
            "accType": "PHRASE2",
            "editable": false,
            "mutedNotes": [],
            "mutedChords": [
              "dim7",
              "dim",
              "minMaj7(9)",
              "minMaj7",
              "min7(11)",
              "min7(9)",
              "min(9)",
              "m7b5",
              "min7",
              "min6",
              "min"
            ],
            "autoStart": false,
            "sourceChordNote": 0,
            "sourceChordType": "Maj",
            "ctb2Low": null,
            "ctb2Main": {
              "ntr": "ROOT_TRANSPOSITION",
              "ntt": "BYPASS",
              "bassOn": false,
              "chordRootUpperLimit": 3,
              "noteLowLimit": 48,
              "noteHighLimit": 95,
              "rtr": "PITCH_SHIFT"
            },
            "ctb2High": {
              "ntr": "ROOT_FIXED",
              "ntt": "BYPASS",
              "bassOn": false,
              "chordRootUpperLimit": 7,
              "noteLowLimit": 0,
              "noteHighLimit": 127,
              "rtr": "PITCH_SHIFT"
            },
            "ctb2MiddleLowPitch": 0,
            "ctb2MiddleHighPitch": 95
          },
          "notes": [
            {
              "pitch": 64,
              "velocity": 30,
              "position": 0.016666666666666666,
              "duration": 3.9875
            },
            {
              "pitch": 65,
              "velocity": 30,
              "position": 4.004166666666666,
              "duration": 3.9895833333333335
            },
            {
              "pitch": 67,
              "velocity": 30,
              "position": 8.00625,
              "duration": 3.9875
            },
            {
              "pitch": 65,
              "velocity": 30,
              "position": 12.00625,
              "duration": 3.9875
            }
          ]
        }
      }
    },
    "Ending_B": {
      "type": "Ending_B",
      "sizeInBeats": 28,
      "channels": {
        "2": {
          "ctab": {
            "srcChannel": 2,
            "name": "Bass",
            "accType": "BASS",
            "editable": false,
            "mutedNotes": [],
            "mutedChords": [
              "1+2+5",
              "sus4",
              "1+5",
              "1+8",
              "7aug",
              "Maj7aug",
              "7(#9)",
              "7(b13)",
              "7(b9)",
              "7(13)",
              "7#11",
              "7(9)",
              "7b5",
              "7sus4",
              "7th",
              "aug",
              "Maj6(9)",
              "Maj7(9)",
              "Maj(9)",
              "Maj7#11",
              "Maj7",
              "Maj6",
              "Maj"
            ],
            "autoStart": false,
            "sourceChordNote": 0,
            "sourceChordType": "min",
            "ctb2Low": null,
            "ctb2Main": {
              "ntr": "ROOT_TRANSPOSITION",
              "ntt": "BYPASS",
              "bassOn": false,
              "chordRootUpperLimit": 3,
              "noteLowLimit": 28,
              "noteHighLimit": 95,
              "rtr": "PITCH_SHIFT"
            },
            "ctb2High": {
              "ntr": "ROOT_FIXED",
              "ntt": "BYPASS",
              "bassOn": false,
              "chordRootUpperLimit": 3,
              "noteLowLimit": 0,
              "noteHighLimit": 127,
              "rtr": "PITCH_SHIFT"
            },
            "ctb2MiddleLowPitch": 0,
            "ctb2MiddleHighPitch": 95
          },
          "notes": [
            {
              "pitch": 24,
              "velocity": 64,
              "position": 0,
              "duration": 0.36666666666666664
            },
            {
              "pitch": 24,
              "velocity": 51,
              "position": 0.5,
              "duration": 0.36666666666666664
            },
            {
              "pitch": 24,
              "velocity": 51,
              "position": 1,
              "duration": 0.36666666666666664
            },
            {
              "pitch": 24,
              "velocity": 55,
              "position": 1.5,
              "duration": 0.48125
            },
            {
              "pitch": 24,
              "velocity": 51,
              "position": 2,
              "duration": 0.36666666666666664
            },
            {
              "pitch": 24,
              "velocity": 51,
              "position": 2.5,
              "duration": 0.36666666666666664
            },
            {
              "pitch": 24,
              "velocity": 62,
              "position": 3,
              "duration": 0.48125
            },
            {
              "pitch": 24,
              "velocity": 51,
              "position": 3.5,
              "duration": 0.36666666666666664
            },
            {
              "pitch": 26,
              "velocity": 64,
              "position": 4,
              "duration": 0.36666666666666664
            },
            {
              "pitch": 26,
              "velocity": 51,
              "position": 4.5,
              "duration": 0.36666666666666664
            },
            {
              "pitch": 26,
              "velocity": 51,
              "position": 5,
              "duration": 0.36666666666666664
            },
            {
              "pitch": 26,
              "velocity": 55,
              "position": 5.5,
              "duration": 0.48125
            },
            {
              "pitch": 26,
              "velocity": 51,
              "position": 6,
              "duration": 0.36666666666666664
            },
            {
              "pitch": 26,
              "velocity": 51,
              "position": 6.5,
              "duration": 0.36666666666666664
            },
            {
              "pitch": 26,
              "velocity": 62,
              "position": 7,
              "duration": 0.48125
            },
            {
              "pitch": 26,
              "velocity": 51,
              "position": 7.5,
              "duration": 0.23125
            },
            {
              "pitch": 26,
              "velocity": 52,
              "position": 7.75,
              "duration": 0.23125
            },
            {
              "pitch": 27,
              "velocity": 64,
              "position": 8,
              "duration": 0.36666666666666664
            },
            {
              "pitch": 27,
              "velocity": 51,
              "position": 8.5,
              "duration": 0.36666666666666664
            },
            {
              "pitch": 27,
              "velocity": 51,
              "position": 9,
              "duration": 0.36666666666666664
            },
            {
              "pitch": 27,
              "velocity": 55,
              "position": 9.5,
              "duration": 0.48125
            },
            {
              "pitch": 27,
              "velocity": 51,
              "position": 10,
              "duration": 0.36666666666666664
            },
            {
              "pitch": 27,
              "velocity": 51,
              "position": 10.5,
              "duration": 0.36666666666666664
            },
            {
              "pitch": 27,
              "velocity": 62,
              "position": 11,
              "duration": 0.36666666666666664
            },
            {
              "pitch": 27,
              "velocity": 51,
              "position": 11.5,
              "duration": 0.36666666666666664
            },
            {
              "pitch": 29,
              "velocity": 64,
              "position": 12,
              "duration": 0.36666666666666664
            },
            {
              "pitch": 29,
              "velocity": 51,
              "position": 12.5,
              "duration": 0.36666666666666664
            },
            {
              "pitch": 29,
              "velocity": 51,
              "position": 13,
              "duration": 0.36666666666666664
            },
            {
              "pitch": 29,
              "velocity": 55,
              "position": 13.5,
              "duration": 0.48125
            },
            {
              "pitch": 29,
              "velocity": 51,
              "position": 14,
              "duration": 0.36666666666666664
            },
            {
              "pitch": 29,
              "velocity": 51,
              "position": 14.5,
              "duration": 0.36666666666666664
            },
            {
              "pitch": 29,
              "velocity": 62,
              "position": 15,
              "duration": 0.36666666666666664
            },
            {
              "pitch": 29,
              "velocity": 51,
              "position": 15.5,
              "duration": 0.23125
            },
            {
              "pitch": 29,
              "velocity": 52,
              "position": 15.75,
              "duration": 0.23125
            },
            {
              "pitch": 24,
              "velocity": 64,
              "position": 16,
              "duration": 6.995833333333334
            }
          ]
        },
        "3": {
          "ctab": {
            "srcChannel": 3,
            "name": "Guitar1",
            "accType": "CHORD1",
            "editable": false,
            "mutedNotes": [],
            "mutedChords": [
              "1+2+5",
              "sus4",
              "1+5",
              "1+8",
              "7aug",
              "Maj7aug",
              "7(#9)",
              "7(b13)",
              "7(b9)",
              "7(13)",
              "7#11",
              "7(9)",
              "7b5",
              "7sus4",
              "7th",
              "aug",
              "Maj6(9)",
              "Maj7(9)",
              "Maj(9)",
              "Maj7#11",
              "Maj7",
              "Maj6",
              "Maj"
            ],
            "autoStart": false,
            "sourceChordNote": 0,
            "sourceChordType": "min",
            "ctb2Low": null,
            "ctb2Main": {
              "ntr": "ROOT_TRANSPOSITION",
              "ntt": "BYPASS",
              "bassOn": false,
              "chordRootUpperLimit": 8,
              "noteLowLimit": 40,
              "noteHighLimit": 95,
              "rtr": "PITCH_SHIFT"
            },
            "ctb2High": {
              "ntr": "ROOT_FIXED",
              "ntt": "BYPASS",
              "bassOn": false,
              "chordRootUpperLimit": 7,
              "noteLowLimit": 0,
              "noteHighLimit": 127,
              "rtr": "PITCH_SHIFT"
            },
            "ctb2MiddleLowPitch": 0,
            "ctb2MiddleHighPitch": 95
          },
          "notes": [
            {
              "pitch": 60,
              "velocity": 40,
              "position": 0,
              "duration": 1.9958333333333333
            },
            {
              "pitch": 72,
              "velocity": 42,
              "position": 0.5,
              "duration": 1.9958333333333333
            },
            {
              "pitch": 67,
              "velocity": 42,
              "position": 1,
              "duration": 1.9958333333333333
            },
            {
              "pitch": 60,
              "velocity": 40,
              "position": 2,
              "duration": 1.4958333333333333
            },
            {
              "pitch": 72,
              "velocity": 42,
              "position": 2.5,
              "duration": 1.9958333333333333
            },
            {
              "pitch": 67,
              "velocity": 40,
              "position": 3,
              "duration": 1.9958333333333333
            },
            {
              "pitch": 60,
              "velocity": 40,
              "position": 3.5,
              "duration": 2.495833333333333
            },
            {
              "pitch": 72,
              "velocity": 42,
              "position": 4.5,
              "duration": 1.9958333333333333
            },
            {
              "pitch": 67,
              "velocity": 42,
              "position": 5,
              "duration": 1.9958333333333333
            },
            {
              "pitch": 60,
              "velocity": 40,
              "position": 6,
              "duration": 1.4958333333333333
            },
            {
              "pitch": 72,
              "velocity": 42,
              "position": 6.5,
              "duration": 1.9958333333333333
            },
            {
              "pitch": 67,
              "velocity": 42,
              "position": 7,
              "duration": 1.9958333333333333
            },
            {
              "pitch": 60,
              "velocity": 40,
              "position": 7.5,
              "duration": 2.495833333333333
            },
            {
              "pitch": 72,
              "velocity": 42,
              "position": 8.5,
              "duration": 1.9958333333333333
            },
            {
              "pitch": 67,
              "velocity": 42,
              "position": 9,
              "duration": 1.9958333333333333
            },
            {
              "pitch": 60,
              "velocity": 40,
              "position": 10,
              "duration": 1.4958333333333333
            },
            {
              "pitch": 72,
              "velocity": 42,
              "position": 10.5,
              "duration": 1.9958333333333333
            },
            {
              "pitch": 67,
              "velocity": 40,
              "position": 11,
              "duration": 1.9958333333333333
            },
            {
              "pitch": 60,
              "velocity": 40,
              "position": 11.5,
              "duration": 2.495833333333333
            },
            {
              "pitch": 72,
              "velocity": 42,
              "position": 12.5,
              "duration": 1.9958333333333333
            },
            {
              "pitch": 67,
              "velocity": 42,
              "position": 13,
              "duration": 1.9958333333333333
            },
            {
              "pitch": 60,
              "velocity": 40,
              "position": 14,
              "duration": 1.4958333333333333
            },
            {
              "pitch": 60,
              "velocity": 40,
              "position": 15.5,
              "duration": 0.32916666666666666
            },
            {
              "pitch": 67,
              "velocity": 42,
              "position": 15,
              "duration": 0.8291666666666667
            },
            {
              "pitch": 72,
              "velocity": 42,
              "position": 14.5,
              "duration": 1.3291666666666666
            },
            {
              "pitch": 55,
              "velocity": 40,
              "position": 15.833333333333334,
              "duration": 7.245833333333334
            },
            {
              "pitch": 60,
              "velocity": 40,
              "position": 15.916666666666666,
              "duration": 7.245833333333334
            },
            {
              "pitch": 63,
              "velocity": 40,
              "position": 16,
              "duration": 7.245833333333334
            }
          ]
        },
        "4": {
          "ctab": {
            "srcChannel": 4,
            "name": "Piano",
            "accType": "CHORD2",
            "editable": false,
            "mutedNotes": [],
            "mutedChords": [
              "1+2+5",
              "sus4",
              "1+5",
              "1+8",
              "7aug",
              "Maj7aug",
              "7(#9)",
              "7(b13)",
              "7(b9)",
              "7(13)",
              "7#11",
              "7(9)",
              "7b5",
              "7sus4",
              "7th",
              "aug",
              "Maj6(9)",
              "Maj7(9)",
              "Maj(9)",
              "Maj7#11",
              "Maj7",
              "Maj6",
              "Maj"
            ],
            "autoStart": false,
            "sourceChordNote": 0,
            "sourceChordType": "min",
            "ctb2Low": null,
            "ctb2Main": {
              "ntr": "ROOT_TRANSPOSITION",
              "ntt": "BYPASS",
              "bassOn": false,
              "chordRootUpperLimit": 10,
              "noteLowLimit": 0,
              "noteHighLimit": 79,
              "rtr": "PITCH_SHIFT"
            },
            "ctb2High": null,
            "ctb2MiddleLowPitch": 0,
            "ctb2MiddleHighPitch": 127
          },
          "notes": [
            {
              "pitch": 48,
              "velocity": 96,
              "position": 0.0020833333333333333,
              "duration": 1.49375
            },
            {
              "pitch": 72,
              "velocity": 105,
              "position": 0.0020833333333333333,
              "duration": 1.49375
            },
            {
              "pitch": 84,
              "velocity": 105,
              "position": 0.0020833333333333333,
              "duration": 1.49375
            },
            {
              "pitch": 51,
              "velocity": 67,
              "position": 0.5,
              "duration": 1.4958333333333333
            },
            {
              "pitch": 55,
              "velocity": 63,
              "position": 1,
              "duration": 0.9958333333333333
            },
            {
              "pitch": 63,
              "velocity": 63,
              "position": 1,
              "duration": 0.9958333333333333
            },
            {
              "pitch": 67,
              "velocity": 82,
              "position": 0.5,
              "duration": 1.4958333333333333
            },
            {
              "pitch": 75,
              "velocity": 63,
              "position": 1,
              "duration": 0.9958333333333333
            },
            {
              "pitch": 79,
              "velocity": 82,
              "position": 0.5,
              "duration": 1.4958333333333333
            },
            {
              "pitch": 48,
              "velocity": 94,
              "position": 1.5,
              "duration": 1.4958333333333333
            },
            {
              "pitch": 72,
              "velocity": 98,
              "position": 1.5,
              "duration": 1.4958333333333333
            },
            {
              "pitch": 84,
              "velocity": 98,
              "position": 1.5,
              "duration": 1.4958333333333333
            },
            {
              "pitch": 51,
              "velocity": 56,
              "position": 2,
              "duration": 1.4958333333333333
            },
            {
              "pitch": 55,
              "velocity": 70,
              "position": 2.5,
              "duration": 0.9958333333333333
            },
            {
              "pitch": 63,
              "velocity": 74,
              "position": 2.5,
              "duration": 0.9958333333333333
            },
            {
              "pitch": 67,
              "velocity": 63,
              "position": 2,
              "duration": 1.4958333333333333
            },
            {
              "pitch": 75,
              "velocity": 74,
              "position": 2.5,
              "duration": 0.9958333333333333
            },
            {
              "pitch": 79,
              "velocity": 63,
              "position": 2,
              "duration": 1.4958333333333333
            },
            {
              "pitch": 51,
              "velocity": 38,
              "position": 3.5,
              "duration": 0.49166666666666664
            },
            {
              "pitch": 48,
              "velocity": 91,
              "position": 3,
              "duration": 0.9958333333333333
            },
            {
              "pitch": 72,
              "velocity": 105,
              "position": 3,
              "duration": 0.9958333333333333
            },
            {
              "pitch": 84,
              "velocity": 105,
              "position": 3,
              "duration": 0.9958333333333333
            },
            {
              "pitch": 55,
              "velocity": 63,
              "position": 3.5,
              "duration": 0.9958333333333333
            },
            {
              "pitch": 67,
              "velocity": 84,
              "position": 3.5,
              "duration": 0.9958333333333333
            },
            {
              "pitch": 79,
              "velocity": 84,
              "position": 3.5,
              "duration": 0.9958333333333333
            },
            {
              "pitch": 72,
              "velocity": 107,
              "position": 4,
              "duration": 1.4916666666666667
            },
            {
              "pitch": 84,
              "velocity": 107,
              "position": 4,
              "duration": 1.4916666666666667
            },
            {
              "pitch": 50,
              "velocity": 89,
              "position": 4,
              "duration": 1.4958333333333333
            },
            {
              "pitch": 53,
              "velocity": 64,
              "position": 4.5,
              "duration": 1.4958333333333333
            },
            {
              "pitch": 58,
              "velocity": 84,
              "position": 5,
              "duration": 0.9958333333333333
            },
            {
              "pitch": 62,
              "velocity": 64,
              "position": 5,
              "duration": 0.9958333333333333
            },
            {
              "pitch": 65,
              "velocity": 70,
              "position": 4.5,
              "duration": 1.4958333333333333
            },
            {
              "pitch": 74,
              "velocity": 64,
              "position": 5,
              "duration": 0.9958333333333333
            },
            {
              "pitch": 77,
              "velocity": 70,
              "position": 4.5,
              "duration": 1.4958333333333333
            },
            {
              "pitch": 50,
              "velocity": 76,
              "position": 5.5,
              "duration": 1.4958333333333333
            },
            {
              "pitch": 53,
              "velocity": 71,
              "position": 6,
              "duration": 0.9958333333333333
            },
            {
              "pitch": 58,
              "velocity": 96,
              "position": 6.5,
              "duration": 0.9958333333333333
            },
            {
              "pitch": 62,
              "velocity": 84,
              "position": 6,
              "duration": 1.4958333333333333
            },
            {
              "pitch": 74,
              "velocity": 84,
              "position": 6,
              "duration": 1.4958333333333333
            },
            {
              "pitch": 53,
              "velocity": 65,
              "position": 7,
              "duration": 0.9916666666666667
            },
            {
              "pitch": 70,
              "velocity": 107,
              "position": 5.5,
              "duration": 2.4916666666666667
            },
            {
              "pitch": 82,
              "velocity": 107,
              "position": 5.5,
              "duration": 2.4916666666666667
            },
            {
              "pitch": 50,
              "velocity": 76,
              "position": 7,
              "duration": 0.9958333333333333
            },
            {
              "pitch": 58,
              "velocity": 71,
              "position": 7.5,
              "duration": 0.9958333333333333
            },
            {
              "pitch": 62,
              "velocity": 81,
              "position": 7.5,
              "duration": 0.9958333333333333
            },
            {
              "pitch": 74,
              "velocity": 81,
              "position": 7.5,
              "duration": 0.9958333333333333
            },
            {
              "pitch": 51,
              "velocity": 96,
              "position": 8,
              "duration": 1.4958333333333333
            },
            {
              "pitch": 70,
              "velocity": 96,
              "position": 8,
              "duration": 1.4958333333333333
            },
            {
              "pitch": 82,
              "velocity": 96,
              "position": 8,
              "duration": 1.4958333333333333
            },
            {
              "pitch": 55,
              "velocity": 58,
              "position": 8.5,
              "duration": 1.4958333333333333
            },
            {
              "pitch": 58,
              "velocity": 84,
              "position": 9,
              "duration": 0.9958333333333333
            },
            {
              "pitch": 63,
              "velocity": 94,
              "position": 9,
              "duration": 0.9958333333333333
            },
            {
              "pitch": 65,
              "velocity": 47,
              "position": 8.5,
              "duration": 1.4958333333333333
            },
            {
              "pitch": 75,
              "velocity": 94,
              "position": 9,
              "duration": 0.9958333333333333
            },
            {
              "pitch": 77,
              "velocity": 47,
              "position": 8.5,
              "duration": 1.4958333333333333
            },
            {
              "pitch": 51,
              "velocity": 98,
              "position": 9.5,
              "duration": 1.4958333333333333
            },
            {
              "pitch": 70,
              "velocity": 102,
              "position": 9.5,
              "duration": 1.4958333333333333
            },
            {
              "pitch": 82,
              "velocity": 102,
              "position": 9.5,
              "duration": 1.4958333333333333
            },
            {
              "pitch": 55,
              "velocity": 56,
              "position": 10,
              "duration": 1.4958333333333333
            },
            {
              "pitch": 58,
              "velocity": 86,
              "position": 10.5,
              "duration": 0.9958333333333333
            },
            {
              "pitch": 63,
              "velocity": 81,
              "position": 10.5,
              "duration": 0.9958333333333333
            },
            {
              "pitch": 75,
              "velocity": 81,
              "position": 10.5,
              "duration": 0.9958333333333333
            },
            {
              "pitch": 55,
              "velocity": 55,
              "position": 11.5,
              "duration": 0.49166666666666664
            },
            {
              "pitch": 51,
              "velocity": 89,
              "position": 11,
              "duration": 0.9958333333333333
            },
            {
              "pitch": 70,
              "velocity": 84,
              "position": 11,
              "duration": 0.9958333333333333
            },
            {
              "pitch": 82,
              "velocity": 84,
              "position": 11,
              "duration": 0.9958333333333333
            },
            {
              "pitch": 58,
              "velocity": 70,
              "position": 11.5,
              "duration": 0.9958333333333333
            },
            {
              "pitch": 63,
              "velocity": 86,
              "position": 11.5,
              "duration": 0.9958333333333333
            },
            {
              "pitch": 65,
              "velocity": 53,
              "position": 10,
              "duration": 2.495833333333333
            },
            {
              "pitch": 75,
              "velocity": 86,
              "position": 11.5,
              "duration": 0.9958333333333333
            },
            {
              "pitch": 77,
              "velocity": 53,
              "position": 10,
              "duration": 2.495833333333333
            },
            {
              "pitch": 58,
              "velocity": 82,
              "position": 12.5,
              "duration": 0.49583333333333335
            },
            {
              "pitch": 53,
              "velocity": 81,
              "position": 12,
              "duration": 1.4958333333333333
            },
            {
              "pitch": 70,
              "velocity": 102,
              "position": 12,
              "duration": 1.4958333333333333
            },
            {
              "pitch": 82,
              "velocity": 102,
              "position": 12,
              "duration": 1.4958333333333333
            },
            {
              "pitch": 58,
              "velocity": 63,
              "position": 13,
              "duration": 0.9958333333333333
            },
            {
              "pitch": 65,
              "velocity": 61,
              "position": 12.5,
              "duration": 1.4958333333333333
            },
            {
              "pitch": 77,
              "velocity": 61,
              "position": 12.5,
              "duration": 1.4958333333333333
            },
            {
              "pitch": 57,
              "velocity": 81,
              "position": 14,
              "duration": 0.49583333333333335
            },
            {
              "pitch": 60,
              "velocity": 94,
              "position": 13,
              "duration": 1.4958333333333333
            },
            {
              "pitch": 72,
              "velocity": 94,
              "position": 13,
              "duration": 1.4958333333333333
            },
            {
              "pitch": 57,
              "velocity": 61,
              "position": 14.5,
              "duration": 0.49583333333333335
            },
            {
              "pitch": 65,
              "velocity": 64,
              "position": 14,
              "duration": 0.9958333333333333
            },
            {
              "pitch": 77,
              "velocity": 64,
              "position": 14,
              "duration": 0.9958333333333333
            },
            {
              "pitch": 69,
              "velocity": 98,
              "position": 13.5,
              "duration": 1.9958333333333333
            },
            {
              "pitch": 81,
              "velocity": 98,
              "position": 13.5,
              "duration": 1.9958333333333333
            },
            {
              "pitch": 53,
              "velocity": 89,
              "position": 13.5,
              "duration": 2.495833333333333
            },
            {
              "pitch": 57,
              "velocity": 61,
              "position": 15,
              "duration": 0.9958333333333333
            },
            {
              "pitch": 60,
              "velocity": 89,
              "position": 14.5,
              "duration": 1.4958333333333333
            },
            {
              "pitch": 65,
              "velocity": 98,
              "position": 15,
              "duration": 0.9958333333333333
            },
            {
              "pitch": 72,
              "velocity": 89,
              "position": 14.5,
              "duration": 1.4958333333333333
            },
            {
              "pitch": 77,
              "velocity": 98,
              "position": 15,
              "duration": 0.9958333333333333
            },
            {
              "pitch": 48,
              "velocity": 96,
              "position": 16,
              "duration": 6.995833333333334
            },
            {
              "pitch": 55,
              "velocity": 80,
              "position": 16,
              "duration": 6.995833333333334
            },
            {
              "pitch": 63,
              "velocity": 105,
              "position": 16,
              "duration": 6.995833333333334
            },
            {
              "pitch": 72,
              "velocity": 80,
              "position": 16,
              "duration": 6.995833333333334
            },
            {
              "pitch": 75,
              "velocity": 105,
              "position": 16,
              "duration": 6.995833333333334
            }
          ]
        },
        "5": {
          "ctab": {
            "srcChannel": 5,
            "name": "Strings",
            "accType": "PAD",
            "editable": false,
            "mutedNotes": [],
            "mutedChords": [
              "1+2+5",
              "sus4",
              "1+5",
              "1+8",
              "7aug",
              "Maj7aug",
              "7(#9)",
              "7(b13)",
              "7(b9)",
              "7(13)",
              "7#11",
              "7(9)",
              "7b5",
              "7sus4",
              "7th",
              "aug",
              "Maj6(9)",
              "Maj7(9)",
              "Maj(9)",
              "Maj7#11",
              "Maj7",
              "Maj6",
              "Maj"
            ],
            "autoStart": false,
            "sourceChordNote": 0,
            "sourceChordType": "min",
            "ctb2Low": null,
            "ctb2Main": {
              "ntr": "ROOT_TRANSPOSITION",
              "ntt": "BYPASS",
              "bassOn": false,
              "chordRootUpperLimit": 5,
              "noteLowLimit": 57,
              "noteHighLimit": 68,
              "rtr": "PITCH_SHIFT"
            },
            "ctb2High": null,
            "ctb2MiddleLowPitch": 0,
            "ctb2MiddleHighPitch": 127
          },
          "notes": [
            {
              "pitch": 55,
              "velocity": 80,
              "position": 0,
              "duration": 3.995833333333333
            },
            {
              "pitch": 63,
              "velocity": 80,
              "position": 0,
              "duration": 3.995833333333333
            },
            {
              "pitch": 58,
              "velocity": 80,
              "position": 4,
              "duration": 3.995833333333333
            },
            {
              "pitch": 60,
              "velocity": 80,
              "position": 0,
              "duration": 7.995833333333334
            },
            {
              "pitch": 65,
              "velocity": 80,
              "position": 4,
              "duration": 3.995833333333333
            },
            {
              "pitch": 58,
              "velocity": 80,
              "position": 8,
              "duration": 3.995833333333333
            },
            {
              "pitch": 63,
              "velocity": 80,
              "position": 8,
              "duration": 3.995833333333333
            },
            {
              "pitch": 57,
              "velocity": 80,
              "position": 12,
              "duration": 3.995833333333333
            },
            {
              "pitch": 60,
              "velocity": 80,
              "position": 12,
              "duration": 3.995833333333333
            },
            {
              "pitch": 65,
              "velocity": 80,
              "position": 12,
              "duration": 3.995833333333333
            },
            {
              "pitch": 67,
              "velocity": 80,
              "position": 8,
              "duration": 7.995833333333334
            },
            {
              "pitch": 55,
              "velocity": 80,
              "position": 16,
              "duration": 6.995833333333334
            },
            {
              "pitch": 60,
              "velocity": 80,
              "position": 16,
              "duration": 6.995833333333334
            },
            {
              "pitch": 63,
              "velocity": 80,
              "position": 16,
              "duration": 6.995833333333334
            }
          ]
        },
        "7": {
          "ctab": {
            "srcChannel": 7,
            "name": "Guitar2",
            "accType": "PHRASE2",
            "editable": false,
            "mutedNotes": [],
            "mutedChords": [
              "1+2+5",
              "sus4",
              "1+5",
              "1+8",
              "7aug",
              "Maj7aug",
              "7(#9)",
              "7(b13)",
              "7(b9)",
              "7(13)",
              "7#11",
              "7(9)",
              "7b5",
              "7sus4",
              "7th",
              "aug",
              "Maj6(9)",
              "Maj7(9)",
              "Maj(9)",
              "Maj7#11",
              "Maj7",
              "Maj6",
              "Maj"
            ],
            "autoStart": false,
            "sourceChordNote": 0,
            "sourceChordType": "min",
            "ctb2Low": null,
            "ctb2Main": {
              "ntr": "ROOT_TRANSPOSITION",
              "ntt": "BYPASS",
              "bassOn": false,
              "chordRootUpperLimit": 3,
              "noteLowLimit": 48,
              "noteHighLimit": 95,
              "rtr": "PITCH_SHIFT"
            },
            "ctb2High": {
              "ntr": "ROOT_FIXED",
              "ntt": "BYPASS",
              "bassOn": false,
              "chordRootUpperLimit": 7,
              "noteLowLimit": 0,
              "noteHighLimit": 127,
              "rtr": "PITCH_SHIFT"
            },
            "ctb2MiddleLowPitch": 0,
            "ctb2MiddleHighPitch": 95
          },
          "notes": [
            {
              "pitch": 63,
              "velocity": 30,
              "position": 0.008333333333333333,
              "duration": 3.9875
            },
            {
              "pitch": 65,
              "velocity": 30,
              "position": 4.00625,
              "duration": 3.9875
            },
            {
              "pitch": 67,
              "velocity": 30,
              "position": 8.00625,
              "duration": 3.9875
            },
            {
              "pitch": 65,
              "velocity": 30,
              "position": 12.00625,
              "duration": 3.9875
            },
            {
              "pitch": 63,
              "velocity": 30,
              "position": 16.004166666666666,
              "duration": 6.9875
            }
          ]
        },
        "9": {
          "ctab": {
            "srcChannel": 9,
            "name": "MainDrum",
            "accType": "RHYTHM",
            "editable": false,
            "mutedNotes": [],
            "mutedChords": [],
            "autoStart": true,
            "sourceChordNote": 0,
            "sourceChordType": "Maj7",
            "ctb2Low": null,
            "ctb2Main": {
              "ntr": "ROOT_FIXED",
              "ntt": "BYPASS",
              "bassOn": false,
              "chordRootUpperLimit": 6,
              "noteLowLimit": 0,
              "noteHighLimit": 127,
              "rtr": "PITCH_SHIFT"
            },
            "ctb2High": null,
            "ctb2MiddleLowPitch": 0,
            "ctb2MiddleHighPitch": 127
          },
          "notes": [
            {
              "pitch": 33,
              "velocity": 70,
              "position": 0,
              "duration": 0.00625
            },
            {
              "pitch": 38,
              "velocity": 38,
              "position": 0,
              "duration": 0.00625
            },
            {
              "pitch": 46,
              "velocity": 76,
              "position": 0,
              "duration": 0.00625
            },
            {
              "pitch": 33,
              "velocity": 40,
              "position": 0.5,
              "duration": 0.00625
            },
            {
              "pitch": 46,
              "velocity": 48,
              "position": 0.5041666666666667,
              "duration": 0.00625
            },
            {
              "pitch": 38,
              "velocity": 90,
              "position": 1,
              "duration": 0.00625
            },
            {
              "pitch": 46,
              "velocity": 76,
              "position": 1.0041666666666667,
              "duration": 0.00625
            },
            {
              "pitch": 46,
              "velocity": 48,
              "position": 1.4958333333333333,
              "duration": 0.00625
            },
            {
              "pitch": 33,
              "velocity": 46,
              "position": 1.5,
              "duration": 0.00625
            },
            {
              "pitch": 33,
              "velocity": 54,
              "position": 2,
              "duration": 0.00625
            },
            {
              "pitch": 46,
              "velocity": 57,
              "position": 2.002083333333333,
              "duration": 0.00625
            },
            {
              "pitch": 38,
              "velocity": 90,
              "position": 2.5,
              "duration": 0.00625
            },
            {
              "pitch": 46,
              "velocity": 71,
              "position": 2.502083333333333,
              "duration": 0.00625
            },
            {
              "pitch": 46,
              "velocity": 49,
              "position": 2.99375,
              "duration": 0.00625
            },
            {
              "pitch": 33,
              "velocity": 49,
              "position": 3,
              "duration": 0.00625
            },
            {
              "pitch": 46,
              "velocity": 48,
              "position": 3.497916666666667,
              "duration": 0.00625
            },
            {
              "pitch": 33,
              "velocity": 59,
              "position": 3.5,
              "duration": 0.00625
            },
            {
              "pitch": 33,
              "velocity": 70,
              "position": 4,
              "duration": 0.00625
            },
            {
              "pitch": 46,
              "velocity": 78,
              "position": 4,
              "duration": 0.00625
            },
            {
              "pitch": 33,
              "velocity": 40,
              "position": 4.5,
              "duration": 0.00625
            },
            {
              "pitch": 46,
              "velocity": 48,
              "position": 4.5,
              "duration": 0.00625
            },
            {
              "pitch": 46,
              "velocity": 76,
              "position": 4.995833333333334,
              "duration": 0.00625
            },
            {
              "pitch": 38,
              "velocity": 90,
              "position": 5,
              "duration": 0.00625
            },
            {
              "pitch": 33,
              "velocity": 46,
              "position": 5.5,
              "duration": 0.00625
            },
            {
              "pitch": 46,
              "velocity": 48,
              "position": 5.502083333333333,
              "duration": 0.00625
            },
            {
              "pitch": 33,
              "velocity": 54,
              "position": 6,
              "duration": 0.00625
            },
            {
              "pitch": 46,
              "velocity": 61,
              "position": 6,
              "duration": 0.00625
            },
            {
              "pitch": 38,
              "velocity": 90,
              "position": 6.5,
              "duration": 0.00625
            },
            {
              "pitch": 46,
              "velocity": 60,
              "position": 6.504166666666666,
              "duration": 0.00625
            },
            {
              "pitch": 46,
              "velocity": 61,
              "position": 6.995833333333334,
              "duration": 0.00625
            },
            {
              "pitch": 33,
              "velocity": 49,
              "position": 7,
              "duration": 0.00625
            },
            {
              "pitch": 33,
              "velocity": 59,
              "position": 7.5,
              "duration": 0.00625
            },
            {
              "pitch": 46,
              "velocity": 43,
              "position": 7.5,
              "duration": 0.00625
            },
            {
              "pitch": 33,
              "velocity": 70,
              "position": 8,
              "duration": 0.00625
            },
            {
              "pitch": 38,
              "velocity": 38,
              "position": 8,
              "duration": 0.00625
            },
            {
              "pitch": 46,
              "velocity": 76,
              "position": 8,
              "duration": 0.00625
            },
            {
              "pitch": 33,
              "velocity": 40,
              "position": 8.5,
              "duration": 0.00625
            },
            {
              "pitch": 46,
              "velocity": 48,
              "position": 8.5,
              "duration": 0.00625
            },
            {
              "pitch": 38,
              "velocity": 90,
              "position": 9,
              "duration": 0.00625
            },
            {
              "pitch": 55,
              "velocity": 74,
              "position": 9,
              "duration": 0.00625
            },
            {
              "pitch": 33,
              "velocity": 46,
              "position": 9.5,
              "duration": 0.00625
            },
            {
              "pitch": 46,
              "velocity": 48,
              "position": 9.5,
              "duration": 0.00625
            },
            {
              "pitch": 33,
              "velocity": 54,
              "position": 10,
              "duration": 0.00625
            },
            {
              "pitch": 46,
              "velocity": 57,
              "position": 10,
              "duration": 0.00625
            },
            {
              "pitch": 38,
              "velocity": 90,
              "position": 10.5,
              "duration": 0.00625
            },
            {
              "pitch": 57,
              "velocity": 76,
              "position": 10.5,
              "duration": 0.00625
            },
            {
              "pitch": 33,
              "velocity": 49,
              "position": 11,
              "duration": 0.00625
            },
            {
              "pitch": 46,
              "velocity": 57,
              "position": 11,
              "duration": 0.00625
            },
            {
              "pitch": 33,
              "velocity": 59,
              "position": 11.5,
              "duration": 0.00625
            },
            {
              "pitch": 46,
              "velocity": 48,
              "position": 11.5,
              "duration": 0.00625
            },
            {
              "pitch": 38,
              "velocity": 70,
              "position": 11.989583333333334,
              "duration": 0.00625
            },
            {
              "pitch": 38,
              "velocity": 92,
              "position": 12.041666666666666,
              "duration": 0.00625
            },
            {
              "pitch": 33,
              "velocity": 70,
              "position": 12.5,
              "duration": 0.00625
            },
            {
              "pitch": 46,
              "velocity": 48,
              "position": 12.5,
              "duration": 0.00625
            },
            {
              "pitch": 33,
              "velocity": 41,
              "position": 13,
              "duration": 0.00625
            },
            {
              "pitch": 46,
              "velocity": 57,
              "position": 13,
              "duration": 0.00625
            },
            {
              "pitch": 38,
              "velocity": 70,
              "position": 13.460416666666667,
              "duration": 0.00625
            },
            {
              "pitch": 38,
              "velocity": 101,
              "position": 13.541666666666666,
              "duration": 0.00625
            },
            {
              "pitch": 33,
              "velocity": 44,
              "position": 14,
              "duration": 0.00625
            },
            {
              "pitch": 46,
              "velocity": 57,
              "position": 14,
              "duration": 0.00625
            },
            {
              "pitch": 33,
              "velocity": 70,
              "position": 14.5,
              "duration": 0.00625
            },
            {
              "pitch": 46,
              "velocity": 48,
              "position": 14.5,
              "duration": 0.00625
            },
            {
              "pitch": 33,
              "velocity": 44,
              "position": 14.75,
              "duration": 0.00625
            },
            {
              "pitch": 38,
              "velocity": 70,
              "position": 14.972916666666666,
              "duration": 0.00625
            },
            {
              "pitch": 57,
              "velocity": 70,
              "position": 15,
              "duration": 0.00625
            },
            {
              "pitch": 38,
              "velocity": 101,
              "position": 15.041666666666666,
              "duration": 0.00625
            },
            {
              "pitch": 46,
              "velocity": 48,
              "position": 15.5,
              "duration": 0.00625
            },
            {
              "pitch": 33,
              "velocity": 70,
              "position": 16,
              "duration": 0.00625
            },
            {
              "pitch": 49,
              "velocity": 75,
              "position": 16,
              "duration": 0.00625
            },
            {
              "pitch": 57,
              "velocity": 42,
              "position": 16.229166666666668,
              "duration": 0.00625
            },
            {
              "pitch": 49,
              "velocity": 32,
              "position": 16.364583333333332,
              "duration": 0.00625
            },
            {
              "pitch": 57,
              "velocity": 40,
              "position": 16.625,
              "duration": 0.00625
            },
            {
              "pitch": 49,
              "velocity": 32,
              "position": 16.791666666666668,
              "duration": 0.00625
            },
            {
              "pitch": 57,
              "velocity": 43,
              "position": 16.979166666666668,
              "duration": 0.00625
            },
            {
              "pitch": 49,
              "velocity": 24,
              "position": 17.135416666666668,
              "duration": 0.00625
            },
            {
              "pitch": 57,
              "velocity": 47,
              "position": 17.3125,
              "duration": 0.00625
            },
            {
              "pitch": 49,
              "velocity": 41,
              "position": 17.479166666666668,
              "duration": 0.00625
            },
            {
              "pitch": 57,
              "velocity": 47,
              "position": 17.635416666666668,
              "duration": 0.00625
            },
            {
              "pitch": 49,
              "velocity": 42,
              "position": 17.822916666666668,
              "duration": 0.00625
            },
            {
              "pitch": 57,
              "velocity": 49,
              "position": 18,
              "duration": 0.00625
            },
            {
              "pitch": 49,
              "velocity": 49,
              "position": 18.166666666666668,
              "duration": 0.00625
            },
            {
              "pitch": 57,
              "velocity": 62,
              "position": 18.333333333333332,
              "duration": 0.00625
            },
            {
              "pitch": 49,
              "velocity": 53,
              "position": 18.5,
              "duration": 0.00625
            },
            {
              "pitch": 57,
              "velocity": 69,
              "position": 18.666666666666668,
              "duration": 0.00625
            },
            {
              "pitch": 49,
              "velocity": 69,
              "position": 18.84375,
              "duration": 0.00625
            },
            {
              "pitch": 57,
              "velocity": 70,
              "position": 19.020833333333332,
              "duration": 0.00625
            },
            {
              "pitch": 49,
              "velocity": 39,
              "position": 19.166666666666668,
              "duration": 0.00625
            },
            {
              "pitch": 57,
              "velocity": 61,
              "position": 19.395833333333332,
              "duration": 0.00625
            },
            {
              "pitch": 49,
              "velocity": 34,
              "position": 19.541666666666668,
              "duration": 0.00625
            },
            {
              "pitch": 57,
              "velocity": 61,
              "position": 19.760416666666668,
              "duration": 0.00625
            },
            {
              "pitch": 49,
              "velocity": 33,
              "position": 19.916666666666668,
              "duration": 0.00625
            },
            {
              "pitch": 57,
              "velocity": 53,
              "position": 20.145833333333332,
              "duration": 0.00625
            },
            {
              "pitch": 49,
              "velocity": 32,
              "position": 20.302083333333332,
              "duration": 0.00625
            },
            {
              "pitch": 57,
              "velocity": 48,
              "position": 20.583333333333332,
              "duration": 0.00625
            },
            {
              "pitch": 49,
              "velocity": 32,
              "position": 20.739583333333332,
              "duration": 0.00625
            },
            {
              "pitch": 57,
              "velocity": 36,
              "position": 21.03125,
              "duration": 0.00625
            },
            {
              "pitch": 49,
              "velocity": 23,
              "position": 21.1875,
              "duration": 0.00625
            },
            {
              "pitch": 57,
              "velocity": 30,
              "position": 21.489583333333332,
              "duration": 0.00625
            },
            {
              "pitch": 49,
              "velocity": 19,
              "position": 21.635416666666668,
              "duration": 0.00625
            },
            {
              "pitch": 57,
              "velocity": 28,
              "position": 21.96875,
              "duration": 0.00625
            },
            {
              "pitch": 49,
              "velocity": 21,
              "position": 22.145833333333332,
              "duration": 0.00625
            },
            {
              "pitch": 47,
              "velocity": 71,
              "position": 22.652083333333334,
              "duration": 0.00625
            },
            {
              "pitch": 45,
              "velocity": 71,
              "position": 22.791666666666668,
              "duration": 0.00625
            },
            {
              "pitch": 43,
              "velocity": 71,
              "position": 22.916666666666668,
              "duration": 0.00625
            },
            {
              "pitch": 38,
              "velocity": 51,
              "position": 22.989583333333332,
              "duration": 0.00625
            },
            {
              "pitch": 38,
              "velocity": 98,
              "position": 23.052083333333332,
              "duration": 0.00625
            }
          ]
        },
        "10": {
          "ctab": {
            "srcChannel": 10,
            "name": "Bass",
            "accType": "BASS",
            "editable": false,
            "mutedNotes": [],
            "mutedChords": [
              "dim7",
              "dim",
              "minMaj7(9)",
              "minMaj7",
              "min7(11)",
              "min7(9)",
              "min(9)",
              "m7b5",
              "min7",
              "min6",
              "min"
            ],
            "autoStart": false,
            "sourceChordNote": 0,
            "sourceChordType": "Maj",
            "ctb2Low": null,
            "ctb2Main": {
              "ntr": "ROOT_TRANSPOSITION",
              "ntt": "BYPASS",
              "bassOn": false,
              "chordRootUpperLimit": 3,
              "noteLowLimit": 28,
              "noteHighLimit": 127,
              "rtr": "PITCH_SHIFT"
            },
            "ctb2High": {
              "ntr": "ROOT_FIXED",
              "ntt": "BYPASS",
              "bassOn": false,
              "chordRootUpperLimit": 3,
              "noteLowLimit": 0,
              "noteHighLimit": 127,
              "rtr": "PITCH_SHIFT"
            },
            "ctb2MiddleLowPitch": 0,
            "ctb2MiddleHighPitch": 95
          },
          "notes": [
            {
              "pitch": 24,
              "velocity": 64,
              "position": 0,
              "duration": 0.36666666666666664
            },
            {
              "pitch": 24,
              "velocity": 51,
              "position": 0.5,
              "duration": 0.36666666666666664
            },
            {
              "pitch": 24,
              "velocity": 51,
              "position": 1,
              "duration": 0.36666666666666664
            },
            {
              "pitch": 24,
              "velocity": 55,
              "position": 1.5,
              "duration": 0.48125
            },
            {
              "pitch": 24,
              "velocity": 51,
              "position": 2,
              "duration": 0.36666666666666664
            },
            {
              "pitch": 24,
              "velocity": 51,
              "position": 2.5,
              "duration": 0.36666666666666664
            },
            {
              "pitch": 24,
              "velocity": 62,
              "position": 3,
              "duration": 0.48125
            },
            {
              "pitch": 24,
              "velocity": 51,
              "position": 3.5,
              "duration": 0.36666666666666664
            },
            {
              "pitch": 26,
              "velocity": 64,
              "position": 4,
              "duration": 0.36666666666666664
            },
            {
              "pitch": 26,
              "velocity": 51,
              "position": 4.5,
              "duration": 0.36666666666666664
            },
            {
              "pitch": 26,
              "velocity": 51,
              "position": 5,
              "duration": 0.36666666666666664
            },
            {
              "pitch": 26,
              "velocity": 55,
              "position": 5.5,
              "duration": 0.48125
            },
            {
              "pitch": 26,
              "velocity": 51,
              "position": 6,
              "duration": 0.36666666666666664
            },
            {
              "pitch": 26,
              "velocity": 51,
              "position": 6.5,
              "duration": 0.36666666666666664
            },
            {
              "pitch": 26,
              "velocity": 62,
              "position": 7,
              "duration": 0.48125
            },
            {
              "pitch": 26,
              "velocity": 51,
              "position": 7.5,
              "duration": 0.23125
            },
            {
              "pitch": 26,
              "velocity": 52,
              "position": 7.75,
              "duration": 0.23125
            },
            {
              "pitch": 27,
              "velocity": 64,
              "position": 8,
              "duration": 0.36666666666666664
            },
            {
              "pitch": 27,
              "velocity": 51,
              "position": 8.5,
              "duration": 0.36666666666666664
            },
            {
              "pitch": 27,
              "velocity": 51,
              "position": 9,
              "duration": 0.36666666666666664
            },
            {
              "pitch": 27,
              "velocity": 55,
              "position": 9.5,
              "duration": 0.48125
            },
            {
              "pitch": 27,
              "velocity": 51,
              "position": 10,
              "duration": 0.36666666666666664
            },
            {
              "pitch": 27,
              "velocity": 51,
              "position": 10.5,
              "duration": 0.36666666666666664
            },
            {
              "pitch": 27,
              "velocity": 62,
              "position": 11,
              "duration": 0.36666666666666664
            },
            {
              "pitch": 27,
              "velocity": 51,
              "position": 11.5,
              "duration": 0.36666666666666664
            },
            {
              "pitch": 29,
              "velocity": 64,
              "position": 12,
              "duration": 0.36666666666666664
            },
            {
              "pitch": 29,
              "velocity": 51,
              "position": 12.5,
              "duration": 0.36666666666666664
            },
            {
              "pitch": 29,
              "velocity": 51,
              "position": 13,
              "duration": 0.36666666666666664
            },
            {
              "pitch": 29,
              "velocity": 55,
              "position": 13.5,
              "duration": 0.48125
            },
            {
              "pitch": 29,
              "velocity": 51,
              "position": 14,
              "duration": 0.36666666666666664
            },
            {
              "pitch": 29,
              "velocity": 51,
              "position": 14.5,
              "duration": 0.36666666666666664
            },
            {
              "pitch": 29,
              "velocity": 62,
              "position": 15,
              "duration": 0.36666666666666664
            },
            {
              "pitch": 29,
              "velocity": 51,
              "position": 15.5,
              "duration": 0.23125
            },
            {
              "pitch": 29,
              "velocity": 52,
              "position": 15.75,
              "duration": 0.23125
            },
            {
              "pitch": 24,
              "velocity": 64,
              "position": 16,
              "duration": 6.995833333333334
            }
          ]
        },
        "11": {
          "ctab": {
            "srcChannel": 11,
            "name": "Guitar1",
            "accType": "CHORD1",
            "editable": false,
            "mutedNotes": [],
            "mutedChords": [
              "dim7",
              "dim",
              "minMaj7(9)",
              "minMaj7",
              "min7(11)",
              "min7(9)",
              "min(9)",
              "m7b5",
              "min7",
              "min6",
              "min"
            ],
            "autoStart": false,
            "sourceChordNote": 0,
            "sourceChordType": "Maj",
            "ctb2Low": null,
            "ctb2Main": {
              "ntr": "ROOT_TRANSPOSITION",
              "ntt": "BYPASS",
              "bassOn": false,
              "chordRootUpperLimit": 8,
              "noteLowLimit": 0,
              "noteHighLimit": 127,
              "rtr": "PITCH_SHIFT"
            },
            "ctb2High": {
              "ntr": "ROOT_FIXED",
              "ntt": "BYPASS",
              "bassOn": false,
              "chordRootUpperLimit": 7,
              "noteLowLimit": 0,
              "noteHighLimit": 127,
              "rtr": "PITCH_SHIFT"
            },
            "ctb2MiddleLowPitch": 0,
            "ctb2MiddleHighPitch": 95
          },
          "notes": [
            {
              "pitch": 60,
              "velocity": 40,
              "position": 0,
              "duration": 1.9958333333333333
            },
            {
              "pitch": 72,
              "velocity": 42,
              "position": 0.5,
              "duration": 1.9958333333333333
            },
            {
              "pitch": 67,
              "velocity": 42,
              "position": 1,
              "duration": 1.9958333333333333
            },
            {
              "pitch": 60,
              "velocity": 40,
              "position": 2,
              "duration": 1.4958333333333333
            },
            {
              "pitch": 72,
              "velocity": 42,
              "position": 2.5,
              "duration": 1.9958333333333333
            },
            {
              "pitch": 67,
              "velocity": 38,
              "position": 3,
              "duration": 1.9958333333333333
            },
            {
              "pitch": 60,
              "velocity": 40,
              "position": 3.5,
              "duration": 2.495833333333333
            },
            {
              "pitch": 72,
              "velocity": 42,
              "position": 4.5,
              "duration": 1.9958333333333333
            },
            {
              "pitch": 67,
              "velocity": 42,
              "position": 5,
              "duration": 1.9958333333333333
            },
            {
              "pitch": 60,
              "velocity": 40,
              "position": 6,
              "duration": 1.4958333333333333
            },
            {
              "pitch": 72,
              "velocity": 42,
              "position": 6.5,
              "duration": 1.9958333333333333
            },
            {
              "pitch": 67,
              "velocity": 42,
              "position": 7,
              "duration": 1.9958333333333333
            },
            {
              "pitch": 60,
              "velocity": 40,
              "position": 7.5,
              "duration": 2.495833333333333
            },
            {
              "pitch": 72,
              "velocity": 42,
              "position": 8.5,
              "duration": 1.9958333333333333
            },
            {
              "pitch": 67,
              "velocity": 42,
              "position": 9,
              "duration": 1.9958333333333333
            },
            {
              "pitch": 60,
              "velocity": 40,
              "position": 10,
              "duration": 1.4958333333333333
            },
            {
              "pitch": 72,
              "velocity": 42,
              "position": 10.5,
              "duration": 1.9958333333333333
            },
            {
              "pitch": 67,
              "velocity": 38,
              "position": 11,
              "duration": 1.9958333333333333
            },
            {
              "pitch": 60,
              "velocity": 40,
              "position": 11.5,
              "duration": 2.495833333333333
            },
            {
              "pitch": 72,
              "velocity": 42,
              "position": 12.5,
              "duration": 1.9958333333333333
            },
            {
              "pitch": 67,
              "velocity": 42,
              "position": 13,
              "duration": 1.9958333333333333
            },
            {
              "pitch": 60,
              "velocity": 40,
              "position": 14,
              "duration": 1.4958333333333333
            },
            {
              "pitch": 60,
              "velocity": 40,
              "position": 15.5,
              "duration": 0.32916666666666666
            },
            {
              "pitch": 67,
              "velocity": 42,
              "position": 15,
              "duration": 0.8291666666666667
            },
            {
              "pitch": 72,
              "velocity": 42,
              "position": 14.5,
              "duration": 1.3291666666666666
            },
            {
              "pitch": 55,
              "velocity": 40,
              "position": 15.833333333333334,
              "duration": 7.166666666666667
            },
            {
              "pitch": 60,
              "velocity": 40,
              "position": 15.916666666666666,
              "duration": 7.083333333333333
            },
            {
              "pitch": 64,
              "velocity": 40,
              "position": 16,
              "duration": 7
            }
          ]
        },
        "12": {
          "ctab": {
            "srcChannel": 12,
            "name": "Piano",
            "accType": "CHORD2",
            "editable": false,
            "mutedNotes": [],
            "mutedChords": [
              "dim7",
              "dim",
              "minMaj7(9)",
              "minMaj7",
              "min7(11)",
              "min7(9)",
              "min(9)",
              "m7b5",
              "min7",
              "min6",
              "min"
            ],
            "autoStart": false,
            "sourceChordNote": 0,
            "sourceChordType": "Maj",
            "ctb2Low": null,
            "ctb2Main": {
              "ntr": "ROOT_TRANSPOSITION",
              "ntt": "BYPASS",
              "bassOn": false,
              "chordRootUpperLimit": 10,
              "noteLowLimit": 0,
              "noteHighLimit": 79,
              "rtr": "PITCH_SHIFT"
            },
            "ctb2High": null,
            "ctb2MiddleLowPitch": 0,
            "ctb2MiddleHighPitch": 127
          },
          "notes": [
            {
              "pitch": 48,
              "velocity": 96,
              "position": 0.0020833333333333333,
              "duration": 1.49375
            },
            {
              "pitch": 72,
              "velocity": 105,
              "position": 0.0020833333333333333,
              "duration": 1.49375
            },
            {
              "pitch": 84,
              "velocity": 105,
              "position": 0.0020833333333333333,
              "duration": 1.49375
            },
            {
              "pitch": 52,
              "velocity": 67,
              "position": 0.5,
              "duration": 1.4958333333333333
            },
            {
              "pitch": 55,
              "velocity": 63,
              "position": 1,
              "duration": 0.9958333333333333
            },
            {
              "pitch": 64,
              "velocity": 63,
              "position": 1,
              "duration": 0.9958333333333333
            },
            {
              "pitch": 67,
              "velocity": 82,
              "position": 0.5,
              "duration": 1.4958333333333333
            },
            {
              "pitch": 76,
              "velocity": 63,
              "position": 1,
              "duration": 0.9958333333333333
            },
            {
              "pitch": 79,
              "velocity": 82,
              "position": 0.5,
              "duration": 1.4958333333333333
            },
            {
              "pitch": 48,
              "velocity": 94,
              "position": 1.5,
              "duration": 1.4958333333333333
            },
            {
              "pitch": 72,
              "velocity": 98,
              "position": 1.5,
              "duration": 1.4958333333333333
            },
            {
              "pitch": 84,
              "velocity": 98,
              "position": 1.5,
              "duration": 1.4958333333333333
            },
            {
              "pitch": 52,
              "velocity": 56,
              "position": 2,
              "duration": 1.4958333333333333
            },
            {
              "pitch": 55,
              "velocity": 70,
              "position": 2.5,
              "duration": 0.9958333333333333
            },
            {
              "pitch": 64,
              "velocity": 74,
              "position": 2.5,
              "duration": 0.9958333333333333
            },
            {
              "pitch": 67,
              "velocity": 63,
              "position": 2,
              "duration": 1.4958333333333333
            },
            {
              "pitch": 76,
              "velocity": 74,
              "position": 2.5,
              "duration": 0.9958333333333333
            },
            {
              "pitch": 79,
              "velocity": 63,
              "position": 2,
              "duration": 1.4958333333333333
            },
            {
              "pitch": 48,
              "velocity": 91,
              "position": 3,
              "duration": 0.9958333333333333
            },
            {
              "pitch": 72,
              "velocity": 105,
              "position": 3,
              "duration": 0.9958333333333333
            },
            {
              "pitch": 84,
              "velocity": 105,
              "position": 3,
              "duration": 0.9958333333333333
            },
            {
              "pitch": 52,
              "velocity": 38,
              "position": 3.5,
              "duration": 0.9958333333333333
            },
            {
              "pitch": 55,
              "velocity": 63,
              "position": 3.5,
              "duration": 0.9958333333333333
            },
            {
              "pitch": 67,
              "velocity": 84,
              "position": 3.5,
              "duration": 0.9958333333333333
            },
            {
              "pitch": 79,
              "velocity": 84,
              "position": 3.5,
              "duration": 0.9958333333333333
            },
            {
              "pitch": 50,
              "velocity": 89,
              "position": 4,
              "duration": 1.4958333333333333
            },
            {
              "pitch": 53,
              "velocity": 64,
              "position": 4.5,
              "duration": 1.4958333333333333
            },
            {
              "pitch": 58,
              "velocity": 84,
              "position": 5,
              "duration": 0.9958333333333333
            },
            {
              "pitch": 62,
              "velocity": 64,
              "position": 5,
              "duration": 0.9958333333333333
            },
            {
              "pitch": 65,
              "velocity": 70,
              "position": 4.5,
              "duration": 1.4958333333333333
            },
            {
              "pitch": 72,
              "velocity": 107,
              "position": 4,
              "duration": 1.9958333333333333
            },
            {
              "pitch": 74,
              "velocity": 64,
              "position": 5,
              "duration": 0.9958333333333333
            },
            {
              "pitch": 77,
              "velocity": 70,
              "position": 4.5,
              "duration": 1.4958333333333333
            },
            {
              "pitch": 84,
              "velocity": 107,
              "position": 4,
              "duration": 1.9958333333333333
            },
            {
              "pitch": 50,
              "velocity": 76,
              "position": 5.5,
              "duration": 1.4958333333333333
            },
            {
              "pitch": 53,
              "velocity": 71,
              "position": 6,
              "duration": 0.9958333333333333
            },
            {
              "pitch": 70,
              "velocity": 107,
              "position": 5.5,
              "duration": 1.4958333333333333
            },
            {
              "pitch": 82,
              "velocity": 107,
              "position": 5.5,
              "duration": 1.4958333333333333
            },
            {
              "pitch": 58,
              "velocity": 96,
              "position": 6.5,
              "duration": 0.9958333333333333
            },
            {
              "pitch": 62,
              "velocity": 84,
              "position": 6,
              "duration": 1.4958333333333333
            },
            {
              "pitch": 74,
              "velocity": 84,
              "position": 6,
              "duration": 1.4958333333333333
            },
            {
              "pitch": 50,
              "velocity": 76,
              "position": 7,
              "duration": 0.9958333333333333
            },
            {
              "pitch": 69,
              "velocity": 98,
              "position": 7,
              "duration": 0.9958333333333333
            },
            {
              "pitch": 81,
              "velocity": 98,
              "position": 7,
              "duration": 0.9958333333333333
            },
            {
              "pitch": 53,
              "velocity": 65,
              "position": 7,
              "duration": 1.4958333333333333
            },
            {
              "pitch": 58,
              "velocity": 71,
              "position": 7.5,
              "duration": 0.9958333333333333
            },
            {
              "pitch": 62,
              "velocity": 81,
              "position": 7.5,
              "duration": 0.9958333333333333
            },
            {
              "pitch": 74,
              "velocity": 81,
              "position": 7.5,
              "duration": 0.9958333333333333
            },
            {
              "pitch": 51,
              "velocity": 96,
              "position": 8,
              "duration": 1.4958333333333333
            },
            {
              "pitch": 70,
              "velocity": 96,
              "position": 8,
              "duration": 1.4958333333333333
            },
            {
              "pitch": 82,
              "velocity": 96,
              "position": 8,
              "duration": 1.4958333333333333
            },
            {
              "pitch": 55,
              "velocity": 58,
              "position": 8.5,
              "duration": 1.4958333333333333
            },
            {
              "pitch": 58,
              "velocity": 84,
              "position": 9,
              "duration": 0.9958333333333333
            },
            {
              "pitch": 63,
              "velocity": 94,
              "position": 9,
              "duration": 0.9958333333333333
            },
            {
              "pitch": 65,
              "velocity": 47,
              "position": 8.5,
              "duration": 1.4958333333333333
            },
            {
              "pitch": 75,
              "velocity": 94,
              "position": 9,
              "duration": 0.9958333333333333
            },
            {
              "pitch": 77,
              "velocity": 47,
              "position": 8.5,
              "duration": 1.4958333333333333
            },
            {
              "pitch": 51,
              "velocity": 98,
              "position": 9.5,
              "duration": 1.4958333333333333
            },
            {
              "pitch": 70,
              "velocity": 102,
              "position": 9.5,
              "duration": 1.4958333333333333
            },
            {
              "pitch": 82,
              "velocity": 102,
              "position": 9.5,
              "duration": 1.4958333333333333
            },
            {
              "pitch": 55,
              "velocity": 56,
              "position": 10,
              "duration": 1.4958333333333333
            },
            {
              "pitch": 58,
              "velocity": 86,
              "position": 10.5,
              "duration": 0.9958333333333333
            },
            {
              "pitch": 63,
              "velocity": 81,
              "position": 10.5,
              "duration": 0.9958333333333333
            },
            {
              "pitch": 75,
              "velocity": 81,
              "position": 10.5,
              "duration": 0.9958333333333333
            },
            {
              "pitch": 51,
              "velocity": 89,
              "position": 11,
              "duration": 0.9958333333333333
            },
            {
              "pitch": 70,
              "velocity": 84,
              "position": 11,
              "duration": 0.9958333333333333
            },
            {
              "pitch": 82,
              "velocity": 84,
              "position": 11,
              "duration": 0.9958333333333333
            },
            {
              "pitch": 55,
              "velocity": 55,
              "position": 11.5,
              "duration": 0.9958333333333333
            },
            {
              "pitch": 58,
              "velocity": 70,
              "position": 11.5,
              "duration": 0.9958333333333333
            },
            {
              "pitch": 63,
              "velocity": 86,
              "position": 11.5,
              "duration": 0.9958333333333333
            },
            {
              "pitch": 65,
              "velocity": 53,
              "position": 10,
              "duration": 2.495833333333333
            },
            {
              "pitch": 75,
              "velocity": 86,
              "position": 11.5,
              "duration": 0.9958333333333333
            },
            {
              "pitch": 77,
              "velocity": 53,
              "position": 10,
              "duration": 2.495833333333333
            },
            {
              "pitch": 58,
              "velocity": 82,
              "position": 12.5,
              "duration": 0.49583333333333335
            },
            {
              "pitch": 53,
              "velocity": 81,
              "position": 12,
              "duration": 1.4958333333333333
            },
            {
              "pitch": 70,
              "velocity": 102,
              "position": 12,
              "duration": 1.4958333333333333
            },
            {
              "pitch": 82,
              "velocity": 102,
              "position": 12,
              "duration": 1.4958333333333333
            },
            {
              "pitch": 58,
              "velocity": 63,
              "position": 13,
              "duration": 0.9958333333333333
            },
            {
              "pitch": 65,
              "velocity": 61,
              "position": 12.5,
              "duration": 1.4958333333333333
            },
            {
              "pitch": 77,
              "velocity": 61,
              "position": 12.5,
              "duration": 1.4958333333333333
            },
            {
              "pitch": 57,
              "velocity": 81,
              "position": 14,
              "duration": 0.49583333333333335
            },
            {
              "pitch": 60,
              "velocity": 94,
              "position": 13,
              "duration": 1.4958333333333333
            },
            {
              "pitch": 72,
              "velocity": 94,
              "position": 13,
              "duration": 1.4958333333333333
            },
            {
              "pitch": 57,
              "velocity": 61,
              "position": 14.5,
              "duration": 0.49583333333333335
            },
            {
              "pitch": 65,
              "velocity": 64,
              "position": 14,
              "duration": 0.9958333333333333
            },
            {
              "pitch": 77,
              "velocity": 64,
              "position": 14,
              "duration": 0.9958333333333333
            },
            {
              "pitch": 69,
              "velocity": 98,
              "position": 13.5,
              "duration": 1.9958333333333333
            },
            {
              "pitch": 81,
              "velocity": 98,
              "position": 13.5,
              "duration": 1.9958333333333333
            },
            {
              "pitch": 53,
              "velocity": 89,
              "position": 13.5,
              "duration": 2.495833333333333
            },
            {
              "pitch": 57,
              "velocity": 61,
              "position": 15,
              "duration": 0.9958333333333333
            },
            {
              "pitch": 60,
              "velocity": 89,
              "position": 14.5,
              "duration": 1.4958333333333333
            },
            {
              "pitch": 65,
              "velocity": 98,
              "position": 15,
              "duration": 0.9958333333333333
            },
            {
              "pitch": 72,
              "velocity": 89,
              "position": 14.5,
              "duration": 1.4958333333333333
            },
            {
              "pitch": 77,
              "velocity": 98,
              "position": 15,
              "duration": 0.9958333333333333
            },
            {
              "pitch": 48,
              "velocity": 96,
              "position": 16,
              "duration": 6.995833333333334
            },
            {
              "pitch": 55,
              "velocity": 80,
              "position": 16,
              "duration": 6.995833333333334
            },
            {
              "pitch": 64,
              "velocity": 105,
              "position": 16,
              "duration": 6.995833333333334
            },
            {
              "pitch": 72,
              "velocity": 80,
              "position": 16,
              "duration": 6.995833333333334
            },
            {
              "pitch": 76,
              "velocity": 105,
              "position": 16,
              "duration": 6.995833333333334
            }
          ]
        },
        "13": {
          "ctab": {
            "srcChannel": 13,
            "name": "Strings",
            "accType": "PAD",
            "editable": false,
            "mutedNotes": [],
            "mutedChords": [
              "dim7",
              "dim",
              "minMaj7(9)",
              "minMaj7",
              "min7(11)",
              "min7(9)",
              "min(9)",
              "m7b5",
              "min7",
              "min6",
              "min"
            ],
            "autoStart": false,
            "sourceChordNote": 0,
            "sourceChordType": "Maj",
            "ctb2Low": null,
            "ctb2Main": {
              "ntr": "ROOT_TRANSPOSITION",
              "ntt": "BYPASS",
              "bassOn": false,
              "chordRootUpperLimit": 5,
              "noteLowLimit": 57,
              "noteHighLimit": 68,
              "rtr": "PITCH_SHIFT"
            },
            "ctb2High": null,
            "ctb2MiddleLowPitch": 0,
            "ctb2MiddleHighPitch": 127
          },
          "notes": [
            {
              "pitch": 55,
              "velocity": 80,
              "position": 0.0020833333333333333,
              "duration": 3.99375
            },
            {
              "pitch": 64,
              "velocity": 80,
              "position": 0.0020833333333333333,
              "duration": 3.99375
            },
            {
              "pitch": 57,
              "velocity": 80,
              "position": 4,
              "duration": 3.995833333333333
            },
            {
              "pitch": 65,
              "velocity": 80,
              "position": 4,
              "duration": 3.995833333333333
            },
            {
              "pitch": 58,
              "velocity": 80,
              "position": 8,
              "duration": 3.995833333333333
            },
            {
              "pitch": 63,
              "velocity": 80,
              "position": 8,
              "duration": 3.995833333333333
            },
            {
              "pitch": 57,
              "velocity": 80,
              "position": 12,
              "duration": 3.995833333333333
            },
            {
              "pitch": 60,
              "velocity": 80,
              "position": 0.0020833333333333333,
              "duration": 15.99375
            },
            {
              "pitch": 65,
              "velocity": 80,
              "position": 12,
              "duration": 3.995833333333333
            },
            {
              "pitch": 67,
              "velocity": 80,
              "position": 8,
              "duration": 7.995833333333334
            },
            {
              "pitch": 55,
              "velocity": 80,
              "position": 16,
              "duration": 6.995833333333334
            },
            {
              "pitch": 60,
              "velocity": 80,
              "position": 16,
              "duration": 6.995833333333334
            },
            {
              "pitch": 64,
              "velocity": 80,
              "position": 16,
              "duration": 6.995833333333334
            }
          ]
        },
        "15": {
          "ctab": {
            "srcChannel": 15,
            "name": "Guitar2",
            "accType": "PHRASE2",
            "editable": false,
            "mutedNotes": [],
            "mutedChords": [
              "dim7",
              "dim",
              "minMaj7(9)",
              "minMaj7",
              "min7(11)",
              "min7(9)",
              "min(9)",
              "m7b5",
              "min7",
              "min6",
              "min"
            ],
            "autoStart": false,
            "sourceChordNote": 0,
            "sourceChordType": "Maj",
            "ctb2Low": null,
            "ctb2Main": {
              "ntr": "ROOT_TRANSPOSITION",
              "ntt": "BYPASS",
              "bassOn": false,
              "chordRootUpperLimit": 3,
              "noteLowLimit": 48,
              "noteHighLimit": 95,
              "rtr": "PITCH_SHIFT"
            },
            "ctb2High": {
              "ntr": "ROOT_FIXED",
              "ntt": "BYPASS",
              "bassOn": false,
              "chordRootUpperLimit": 7,
              "noteLowLimit": 0,
              "noteHighLimit": 127,
              "rtr": "PITCH_SHIFT"
            },
            "ctb2MiddleLowPitch": 0,
            "ctb2MiddleHighPitch": 95
          },
          "notes": [
            {
              "pitch": 64,
              "velocity": 30,
              "position": 0.010416666666666666,
              "duration": 3.9875
            },
            {
              "pitch": 65,
              "velocity": 30,
              "position": 4.00625,
              "duration": 3.9875
            },
            {
              "pitch": 67,
              "velocity": 30,
              "position": 8.00625,
              "duration": 3.9875
            },
            {
              "pitch": 65,
              "velocity": 30,
              "position": 12.00625,
              "duration": 3.9875
            },
            {
              "pitch": 64,
              "velocity": 30,
              "position": 16.004166666666666,
              "duration": 6.9875
            }
          ]
        }
      }
    },
    "Intro_C": {
      "type": "Intro_C",
      "sizeInBeats": 36,
      "channels": {
        "2": {
          "ctab": {
            "srcChannel": 2,
            "name": "Bass",
            "accType": "BASS",
            "editable": false,
            "mutedNotes": [],
            "mutedChords": [
              "1+2+5",
              "sus4",
              "1+5",
              "1+8",
              "7aug",
              "Maj7aug",
              "7(#9)",
              "7(b13)",
              "7(b9)",
              "7(13)",
              "7#11",
              "7(9)",
              "7b5",
              "7sus4",
              "7th",
              "aug",
              "Maj6(9)",
              "Maj7(9)",
              "Maj(9)",
              "Maj7#11",
              "Maj7",
              "Maj6",
              "Maj"
            ],
            "autoStart": false,
            "sourceChordNote": 0,
            "sourceChordType": "min",
            "ctb2Low": null,
            "ctb2Main": {
              "ntr": "ROOT_TRANSPOSITION",
              "ntt": "BYPASS",
              "bassOn": false,
              "chordRootUpperLimit": 3,
              "noteLowLimit": 28,
              "noteHighLimit": 95,
              "rtr": "PITCH_SHIFT"
            },
            "ctb2High": {
              "ntr": "ROOT_FIXED",
              "ntt": "BYPASS",
              "bassOn": false,
              "chordRootUpperLimit": 3,
              "noteLowLimit": 0,
              "noteHighLimit": 127,
              "rtr": "PITCH_SHIFT"
            },
            "ctb2MiddleLowPitch": 0,
            "ctb2MiddleHighPitch": 95
          },
          "notes": [
            {
              "pitch": 24,
              "velocity": 61,
              "position": 4,
              "duration": 0.4395833333333333
            },
            {
              "pitch": 24,
              "velocity": 60,
              "position": 4.5,
              "duration": 0.4395833333333333
            },
            {
              "pitch": 24,
              "velocity": 61,
              "position": 5,
              "duration": 0.4395833333333333
            },
            {
              "pitch": 24,
              "velocity": 60,
              "position": 5.5,
              "duration": 0.4395833333333333
            },
            {
              "pitch": 24,
              "velocity": 61,
              "position": 6,
              "duration": 0.4395833333333333
            },
            {
              "pitch": 24,
              "velocity": 60,
              "position": 6.5,
              "duration": 0.4395833333333333
            },
            {
              "pitch": 24,
              "velocity": 61,
              "position": 7,
              "duration": 0.4395833333333333
            },
            {
              "pitch": 24,
              "velocity": 60,
              "position": 7.5,
              "duration": 0.4395833333333333
            },
            {
              "pitch": 31,
              "velocity": 61,
              "position": 8,
              "duration": 0.4395833333333333
            },
            {
              "pitch": 31,
              "velocity": 60,
              "position": 8.5,
              "duration": 0.4395833333333333
            },
            {
              "pitch": 31,
              "velocity": 61,
              "position": 9,
              "duration": 0.4395833333333333
            },
            {
              "pitch": 31,
              "velocity": 60,
              "position": 9.5,
              "duration": 0.4395833333333333
            },
            {
              "pitch": 31,
              "velocity": 61,
              "position": 10,
              "duration": 0.4395833333333333
            },
            {
              "pitch": 31,
              "velocity": 60,
              "position": 10.5,
              "duration": 0.4395833333333333
            },
            {
              "pitch": 31,
              "velocity": 61,
              "position": 11,
              "duration": 0.4395833333333333
            },
            {
              "pitch": 31,
              "velocity": 60,
              "position": 11.5,
              "duration": 0.4395833333333333
            },
            {
              "pitch": 34,
              "velocity": 61,
              "position": 12,
              "duration": 0.4395833333333333
            },
            {
              "pitch": 34,
              "velocity": 60,
              "position": 12.5,
              "duration": 0.4395833333333333
            },
            {
              "pitch": 34,
              "velocity": 61,
              "position": 13,
              "duration": 0.4395833333333333
            },
            {
              "pitch": 34,
              "velocity": 60,
              "position": 13.5,
              "duration": 0.4395833333333333
            },
            {
              "pitch": 34,
              "velocity": 61,
              "position": 14,
              "duration": 0.4395833333333333
            },
            {
              "pitch": 34,
              "velocity": 60,
              "position": 14.5,
              "duration": 0.4395833333333333
            },
            {
              "pitch": 34,
              "velocity": 61,
              "position": 15,
              "duration": 0.4395833333333333
            },
            {
              "pitch": 34,
              "velocity": 60,
              "position": 15.5,
              "duration": 0.4395833333333333
            },
            {
              "pitch": 29,
              "velocity": 61,
              "position": 16,
              "duration": 0.4395833333333333
            },
            {
              "pitch": 29,
              "velocity": 60,
              "position": 16.5,
              "duration": 0.4395833333333333
            },
            {
              "pitch": 29,
              "velocity": 61,
              "position": 17,
              "duration": 0.4395833333333333
            },
            {
              "pitch": 29,
              "velocity": 60,
              "position": 17.5,
              "duration": 0.4395833333333333
            },
            {
              "pitch": 29,
              "velocity": 61,
              "position": 18,
              "duration": 0.4395833333333333
            },
            {
              "pitch": 29,
              "velocity": 60,
              "position": 18.5,
              "duration": 0.4395833333333333
            },
            {
              "pitch": 29,
              "velocity": 61,
              "position": 19,
              "duration": 0.4395833333333333
            },
            {
              "pitch": 29,
              "velocity": 60,
              "position": 19.5,
              "duration": 0.4395833333333333
            },
            {
              "pitch": 24,
              "velocity": 61,
              "position": 20,
              "duration": 0.4395833333333333
            },
            {
              "pitch": 24,
              "velocity": 60,
              "position": 20.5,
              "duration": 0.4395833333333333
            },
            {
              "pitch": 24,
              "velocity": 61,
              "position": 21,
              "duration": 0.4395833333333333
            },
            {
              "pitch": 24,
              "velocity": 60,
              "position": 21.5,
              "duration": 0.4395833333333333
            },
            {
              "pitch": 24,
              "velocity": 61,
              "position": 22,
              "duration": 0.4395833333333333
            },
            {
              "pitch": 24,
              "velocity": 60,
              "position": 22.5,
              "duration": 0.4395833333333333
            },
            {
              "pitch": 24,
              "velocity": 61,
              "position": 23,
              "duration": 0.4395833333333333
            },
            {
              "pitch": 24,
              "velocity": 60,
              "position": 23.5,
              "duration": 0.4395833333333333
            },
            {
              "pitch": 31,
              "velocity": 61,
              "position": 24,
              "duration": 0.4395833333333333
            },
            {
              "pitch": 31,
              "velocity": 60,
              "position": 24.5,
              "duration": 0.4395833333333333
            },
            {
              "pitch": 31,
              "velocity": 61,
              "position": 25,
              "duration": 0.4395833333333333
            },
            {
              "pitch": 31,
              "velocity": 60,
              "position": 25.5,
              "duration": 0.4395833333333333
            },
            {
              "pitch": 31,
              "velocity": 61,
              "position": 26,
              "duration": 0.4395833333333333
            },
            {
              "pitch": 31,
              "velocity": 60,
              "position": 26.5,
              "duration": 0.4395833333333333
            },
            {
              "pitch": 31,
              "velocity": 61,
              "position": 27,
              "duration": 0.4395833333333333
            },
            {
              "pitch": 31,
              "velocity": 60,
              "position": 27.5,
              "duration": 0.4395833333333333
            },
            {
              "pitch": 34,
              "velocity": 61,
              "position": 28,
              "duration": 0.4395833333333333
            },
            {
              "pitch": 34,
              "velocity": 60,
              "position": 28.5,
              "duration": 0.4395833333333333
            },
            {
              "pitch": 34,
              "velocity": 61,
              "position": 29,
              "duration": 0.4395833333333333
            },
            {
              "pitch": 34,
              "velocity": 60,
              "position": 29.5,
              "duration": 0.4395833333333333
            },
            {
              "pitch": 34,
              "velocity": 61,
              "position": 30,
              "duration": 0.4395833333333333
            },
            {
              "pitch": 34,
              "velocity": 60,
              "position": 30.5,
              "duration": 0.4395833333333333
            },
            {
              "pitch": 34,
              "velocity": 61,
              "position": 31,
              "duration": 0.4395833333333333
            },
            {
              "pitch": 34,
              "velocity": 60,
              "position": 31.5,
              "duration": 0.4395833333333333
            },
            {
              "pitch": 29,
              "velocity": 61,
              "position": 32,
              "duration": 0.4395833333333333
            },
            {
              "pitch": 29,
              "velocity": 60,
              "position": 32.5,
              "duration": 0.4395833333333333
            },
            {
              "pitch": 29,
              "velocity": 61,
              "position": 33,
              "duration": 0.4395833333333333
            },
            {
              "pitch": 29,
              "velocity": 60,
              "position": 33.5,
              "duration": 0.4395833333333333
            },
            {
              "pitch": 29,
              "velocity": 61,
              "position": 34,
              "duration": 0.4395833333333333
            },
            {
              "pitch": 29,
              "velocity": 60,
              "position": 34.5,
              "duration": 0.4395833333333333
            },
            {
              "pitch": 29,
              "velocity": 61,
              "position": 35,
              "duration": 0.4395833333333333
            },
            {
              "pitch": 29,
              "velocity": 60,
              "position": 35.5,
              "duration": 0.4395833333333333
            }
          ]
        },
        "3": {
          "ctab": {
            "srcChannel": 3,
            "name": "Guitar1",
            "accType": "CHORD1",
            "editable": false,
            "mutedNotes": [],
            "mutedChords": [
              "1+2+5",
              "sus4",
              "1+5",
              "1+8",
              "7aug",
              "Maj7aug",
              "7(#9)",
              "7(b13)",
              "7(b9)",
              "7(13)",
              "7#11",
              "7(9)",
              "7b5",
              "7sus4",
              "7th",
              "aug",
              "Maj6(9)",
              "Maj7(9)",
              "Maj(9)",
              "Maj7#11",
              "Maj7",
              "Maj6",
              "Maj"
            ],
            "autoStart": false,
            "sourceChordNote": 0,
            "sourceChordType": "min",
            "ctb2Low": null,
            "ctb2Main": {
              "ntr": "ROOT_TRANSPOSITION",
              "ntt": "BYPASS",
              "bassOn": false,
              "chordRootUpperLimit": 8,
              "noteLowLimit": 40,
              "noteHighLimit": 95,
              "rtr": "PITCH_SHIFT"
            },
            "ctb2High": {
              "ntr": "ROOT_FIXED",
              "ntt": "BYPASS",
              "bassOn": false,
              "chordRootUpperLimit": 7,
              "noteLowLimit": 0,
              "noteHighLimit": 127,
              "rtr": "PITCH_SHIFT"
            },
            "ctb2MiddleLowPitch": 0,
            "ctb2MiddleHighPitch": 95
          },
          "notes": [
            {
              "pitch": 67,
              "velocity": 45,
              "position": 1.5,
              "duration": 0.49583333333333335
            },
            {
              "pitch": 65,
              "velocity": 46,
              "position": 2,
              "duration": 0.49583333333333335
            },
            {
              "pitch": 63,
              "velocity": 98,
              "position": 2.5,
              "duration": 1.4958333333333333
            },
            {
              "pitch": 60,
              "velocity": 46,
              "position": 3.5,
              "duration": 1.4958333333333333
            },
            {
              "pitch": 67,
              "velocity": 45,
              "position": 5.5,
              "duration": 0.49583333333333335
            },
            {
              "pitch": 65,
              "velocity": 46,
              "position": 6,
              "duration": 0.49583333333333335
            },
            {
              "pitch": 60,
              "velocity": 40,
              "position": 5,
              "duration": 2.495833333333333
            },
            {
              "pitch": 63,
              "velocity": 98,
              "position": 6.5,
              "duration": 1.4958333333333333
            },
            {
              "pitch": 58,
              "velocity": 46,
              "position": 7.5,
              "duration": 1.4958333333333333
            },
            {
              "pitch": 65,
              "velocity": 45,
              "position": 9.5,
              "duration": 0.49583333333333335
            },
            {
              "pitch": 63,
              "velocity": 46,
              "position": 10,
              "duration": 0.49583333333333335
            },
            {
              "pitch": 58,
              "velocity": 40,
              "position": 9,
              "duration": 2.495833333333333
            },
            {
              "pitch": 62,
              "velocity": 98,
              "position": 10.5,
              "duration": 1.4958333333333333
            },
            {
              "pitch": 58,
              "velocity": 46,
              "position": 11.5,
              "duration": 1.4958333333333333
            },
            {
              "pitch": 65,
              "velocity": 45,
              "position": 13.5,
              "duration": 0.49583333333333335
            },
            {
              "pitch": 63,
              "velocity": 46,
              "position": 14,
              "duration": 0.49583333333333335
            },
            {
              "pitch": 58,
              "velocity": 40,
              "position": 13,
              "duration": 2.495833333333333
            },
            {
              "pitch": 62,
              "velocity": 98,
              "position": 14.5,
              "duration": 1.4958333333333333
            },
            {
              "pitch": 57,
              "velocity": 46,
              "position": 15.5,
              "duration": 1.4958333333333333
            },
            {
              "pitch": 67,
              "velocity": 45,
              "position": 17.5,
              "duration": 0.49583333333333335
            },
            {
              "pitch": 65,
              "velocity": 46,
              "position": 18,
              "duration": 0.49583333333333335
            },
            {
              "pitch": 57,
              "velocity": 40,
              "position": 17,
              "duration": 2.495833333333333
            },
            {
              "pitch": 63,
              "velocity": 98,
              "position": 18.5,
              "duration": 1.4958333333333333
            },
            {
              "pitch": 60,
              "velocity": 46,
              "position": 19.5,
              "duration": 1.4958333333333333
            },
            {
              "pitch": 67,
              "velocity": 45,
              "position": 21.5,
              "duration": 0.49583333333333335
            },
            {
              "pitch": 65,
              "velocity": 46,
              "position": 22,
              "duration": 0.49583333333333335
            },
            {
              "pitch": 60,
              "velocity": 40,
              "position": 21,
              "duration": 2.495833333333333
            },
            {
              "pitch": 63,
              "velocity": 98,
              "position": 22.5,
              "duration": 1.4958333333333333
            },
            {
              "pitch": 58,
              "velocity": 46,
              "position": 23.5,
              "duration": 1.4958333333333333
            },
            {
              "pitch": 65,
              "velocity": 45,
              "position": 25.5,
              "duration": 0.49583333333333335
            },
            {
              "pitch": 63,
              "velocity": 46,
              "position": 26,
              "duration": 0.49583333333333335
            },
            {
              "pitch": 58,
              "velocity": 40,
              "position": 25,
              "duration": 2.495833333333333
            },
            {
              "pitch": 62,
              "velocity": 98,
              "position": 26.5,
              "duration": 1.4958333333333333
            },
            {
              "pitch": 58,
              "velocity": 46,
              "position": 27.5,
              "duration": 1.4958333333333333
            },
            {
              "pitch": 65,
              "velocity": 45,
              "position": 29.5,
              "duration": 0.49583333333333335
            },
            {
              "pitch": 63,
              "velocity": 46,
              "position": 30,
              "duration": 0.49583333333333335
            },
            {
              "pitch": 58,
              "velocity": 40,
              "position": 29,
              "duration": 2.495833333333333
            },
            {
              "pitch": 62,
              "velocity": 98,
              "position": 30.5,
              "duration": 1.4958333333333333
            },
            {
              "pitch": 57,
              "velocity": 46,
              "position": 31.5,
              "duration": 1.4958333333333333
            },
            {
              "pitch": 57,
              "velocity": 40,
              "position": 33,
              "duration": 2.495833333333333
            }
          ]
        },
        "4": {
          "ctab": {
            "srcChannel": 4,
            "name": "Piano",
            "accType": "CHORD2",
            "editable": false,
            "mutedNotes": [],
            "mutedChords": [
              "1+2+5",
              "sus4",
              "1+5",
              "1+8",
              "7aug",
              "Maj7aug",
              "7(#9)",
              "7(b13)",
              "7(b9)",
              "7(13)",
              "7#11",
              "7(9)",
              "7b5",
              "7sus4",
              "7th",
              "aug",
              "Maj6(9)",
              "Maj7(9)",
              "Maj(9)",
              "Maj7#11",
              "Maj7",
              "Maj6",
              "Maj"
            ],
            "autoStart": false,
            "sourceChordNote": 0,
            "sourceChordType": "min",
            "ctb2Low": null,
            "ctb2Main": {
              "ntr": "ROOT_TRANSPOSITION",
              "ntt": "BYPASS",
              "bassOn": false,
              "chordRootUpperLimit": 10,
              "noteLowLimit": 0,
              "noteHighLimit": 127,
              "rtr": "PITCH_SHIFT"
            },
            "ctb2High": null,
            "ctb2MiddleLowPitch": 0,
            "ctb2MiddleHighPitch": 127
          },
          "notes": [
            {
              "pitch": 67,
              "velocity": 80,
              "position": 1.5,
              "duration": 0.9958333333333333
            },
            {
              "pitch": 79,
              "velocity": 58,
              "position": 1.5,
              "duration": 0.9958333333333333
            },
            {
              "pitch": 65,
              "velocity": 119,
              "position": 2,
              "duration": 0.9958333333333333
            },
            {
              "pitch": 77,
              "velocity": 97,
              "position": 2,
              "duration": 0.9958333333333333
            },
            {
              "pitch": 63,
              "velocity": 94,
              "position": 2.5,
              "duration": 1.4958333333333333
            },
            {
              "pitch": 75,
              "velocity": 72,
              "position": 2.5,
              "duration": 1.4958333333333333
            },
            {
              "pitch": 60,
              "velocity": 117,
              "position": 3.5,
              "duration": 1.49375
            },
            {
              "pitch": 72,
              "velocity": 95,
              "position": 3.5,
              "duration": 1.49375
            },
            {
              "pitch": 60,
              "velocity": 94,
              "position": 5,
              "duration": 1.4958333333333333
            },
            {
              "pitch": 67,
              "velocity": 80,
              "position": 5.5,
              "duration": 0.9958333333333333
            },
            {
              "pitch": 72,
              "velocity": 72,
              "position": 5,
              "duration": 1.4958333333333333
            },
            {
              "pitch": 79,
              "velocity": 58,
              "position": 5.5,
              "duration": 0.9958333333333333
            },
            {
              "pitch": 65,
              "velocity": 107,
              "position": 6,
              "duration": 0.9958333333333333
            },
            {
              "pitch": 77,
              "velocity": 85,
              "position": 6,
              "duration": 0.9958333333333333
            },
            {
              "pitch": 63,
              "velocity": 98,
              "position": 6.5,
              "duration": 1.4958333333333333
            },
            {
              "pitch": 75,
              "velocity": 76,
              "position": 6.5,
              "duration": 1.4958333333333333
            },
            {
              "pitch": 58,
              "velocity": 107,
              "position": 7.5,
              "duration": 1.49375
            },
            {
              "pitch": 70,
              "velocity": 85,
              "position": 7.5,
              "duration": 1.49375
            },
            {
              "pitch": 58,
              "velocity": 94,
              "position": 9,
              "duration": 1.4958333333333333
            },
            {
              "pitch": 65,
              "velocity": 80,
              "position": 9.5,
              "duration": 0.9958333333333333
            },
            {
              "pitch": 70,
              "velocity": 72,
              "position": 9,
              "duration": 1.4958333333333333
            },
            {
              "pitch": 77,
              "velocity": 58,
              "position": 9.5,
              "duration": 0.9958333333333333
            },
            {
              "pitch": 63,
              "velocity": 107,
              "position": 10,
              "duration": 0.9958333333333333
            },
            {
              "pitch": 75,
              "velocity": 85,
              "position": 10,
              "duration": 0.9958333333333333
            },
            {
              "pitch": 62,
              "velocity": 84,
              "position": 10.5,
              "duration": 1.4958333333333333
            },
            {
              "pitch": 74,
              "velocity": 62,
              "position": 10.5,
              "duration": 1.4958333333333333
            },
            {
              "pitch": 58,
              "velocity": 105,
              "position": 11.5,
              "duration": 1.49375
            },
            {
              "pitch": 70,
              "velocity": 83,
              "position": 11.5,
              "duration": 1.49375
            },
            {
              "pitch": 58,
              "velocity": 105,
              "position": 13,
              "duration": 1.4958333333333333
            },
            {
              "pitch": 65,
              "velocity": 80,
              "position": 13.5,
              "duration": 0.9958333333333333
            },
            {
              "pitch": 70,
              "velocity": 83,
              "position": 13,
              "duration": 1.4958333333333333
            },
            {
              "pitch": 77,
              "velocity": 58,
              "position": 13.5,
              "duration": 0.9958333333333333
            },
            {
              "pitch": 63,
              "velocity": 107,
              "position": 14,
              "duration": 0.9958333333333333
            },
            {
              "pitch": 75,
              "velocity": 85,
              "position": 14,
              "duration": 0.9958333333333333
            },
            {
              "pitch": 62,
              "velocity": 102,
              "position": 14.5,
              "duration": 1.4958333333333333
            },
            {
              "pitch": 74,
              "velocity": 80,
              "position": 14.5,
              "duration": 1.4958333333333333
            },
            {
              "pitch": 57,
              "velocity": 111,
              "position": 15.5,
              "duration": 1.49375
            },
            {
              "pitch": 69,
              "velocity": 89,
              "position": 15.5,
              "duration": 1.49375
            },
            {
              "pitch": 57,
              "velocity": 107,
              "position": 17,
              "duration": 1.4958333333333333
            },
            {
              "pitch": 67,
              "velocity": 80,
              "position": 17.5,
              "duration": 0.9958333333333333
            },
            {
              "pitch": 69,
              "velocity": 85,
              "position": 17,
              "duration": 1.4958333333333333
            },
            {
              "pitch": 79,
              "velocity": 96,
              "position": 17.5,
              "duration": 0.9958333333333333
            },
            {
              "pitch": 65,
              "velocity": 98,
              "position": 18,
              "duration": 0.9958333333333333
            },
            {
              "pitch": 77,
              "velocity": 114,
              "position": 18,
              "duration": 0.9958333333333333
            },
            {
              "pitch": 63,
              "velocity": 96,
              "position": 18.5,
              "duration": 1.4958333333333333
            },
            {
              "pitch": 75,
              "velocity": 112,
              "position": 18.5,
              "duration": 1.4958333333333333
            },
            {
              "pitch": 60,
              "velocity": 107,
              "position": 19.5,
              "duration": 1.49375
            },
            {
              "pitch": 72,
              "velocity": 123,
              "position": 19.5,
              "duration": 1.49375
            },
            {
              "pitch": 60,
              "velocity": 102,
              "position": 21,
              "duration": 1.4958333333333333
            },
            {
              "pitch": 67,
              "velocity": 80,
              "position": 21.5,
              "duration": 0.9958333333333333
            },
            {
              "pitch": 72,
              "velocity": 118,
              "position": 21,
              "duration": 1.4958333333333333
            },
            {
              "pitch": 79,
              "velocity": 96,
              "position": 21.5,
              "duration": 0.9958333333333333
            },
            {
              "pitch": 65,
              "velocity": 107,
              "position": 22,
              "duration": 0.9958333333333333
            },
            {
              "pitch": 77,
              "velocity": 123,
              "position": 22,
              "duration": 0.9958333333333333
            },
            {
              "pitch": 63,
              "velocity": 94,
              "position": 22.5,
              "duration": 1.4958333333333333
            },
            {
              "pitch": 75,
              "velocity": 110,
              "position": 22.5,
              "duration": 1.4958333333333333
            },
            {
              "pitch": 58,
              "velocity": 102,
              "position": 23.5,
              "duration": 1.49375
            },
            {
              "pitch": 70,
              "velocity": 118,
              "position": 23.5,
              "duration": 1.49375
            },
            {
              "pitch": 58,
              "velocity": 107,
              "position": 25,
              "duration": 1.4958333333333333
            },
            {
              "pitch": 65,
              "velocity": 102,
              "position": 25.5,
              "duration": 0.9958333333333333
            },
            {
              "pitch": 70,
              "velocity": 123,
              "position": 25,
              "duration": 1.4958333333333333
            },
            {
              "pitch": 77,
              "velocity": 118,
              "position": 25.5,
              "duration": 0.9958333333333333
            },
            {
              "pitch": 63,
              "velocity": 96,
              "position": 26,
              "duration": 0.9958333333333333
            },
            {
              "pitch": 75,
              "velocity": 112,
              "position": 26,
              "duration": 0.9958333333333333
            },
            {
              "pitch": 62,
              "velocity": 107,
              "position": 26.5,
              "duration": 1.4958333333333333
            },
            {
              "pitch": 74,
              "velocity": 123,
              "position": 26.5,
              "duration": 1.4958333333333333
            },
            {
              "pitch": 58,
              "velocity": 107,
              "position": 27.5,
              "duration": 1.49375
            },
            {
              "pitch": 70,
              "velocity": 123,
              "position": 27.5,
              "duration": 1.49375
            },
            {
              "pitch": 58,
              "velocity": 96,
              "position": 29,
              "duration": 1.4958333333333333
            },
            {
              "pitch": 65,
              "velocity": 80,
              "position": 29.5,
              "duration": 0.9958333333333333
            },
            {
              "pitch": 70,
              "velocity": 112,
              "position": 29,
              "duration": 1.4958333333333333
            },
            {
              "pitch": 77,
              "velocity": 96,
              "position": 29.5,
              "duration": 0.9958333333333333
            },
            {
              "pitch": 63,
              "velocity": 98,
              "position": 30,
              "duration": 0.9958333333333333
            },
            {
              "pitch": 75,
              "velocity": 114,
              "position": 30,
              "duration": 0.9958333333333333
            },
            {
              "pitch": 62,
              "velocity": 94,
              "position": 30.5,
              "duration": 1.4958333333333333
            },
            {
              "pitch": 74,
              "velocity": 110,
              "position": 30.5,
              "duration": 1.4958333333333333
            },
            {
              "pitch": 57,
              "velocity": 107,
              "position": 31.5,
              "duration": 4.495833333333334
            },
            {
              "pitch": 69,
              "velocity": 123,
              "position": 31.5,
              "duration": 4.495833333333334
            }
          ]
        },
        "5": {
          "ctab": {
            "srcChannel": 5,
            "name": "Strings",
            "accType": "PAD",
            "editable": false,
            "mutedNotes": [],
            "mutedChords": [
              "1+2+5",
              "sus4",
              "1+5",
              "1+8",
              "7aug",
              "Maj7aug",
              "7(#9)",
              "7(b13)",
              "7(b9)",
              "7(13)",
              "7#11",
              "7(9)",
              "7b5",
              "7sus4",
              "7th",
              "aug",
              "Maj6(9)",
              "Maj7(9)",
              "Maj(9)",
              "Maj7#11",
              "Maj7",
              "Maj6",
              "Maj"
            ],
            "autoStart": false,
            "sourceChordNote": 0,
            "sourceChordType": "min",
            "ctb2Low": null,
            "ctb2Main": {
              "ntr": "ROOT_TRANSPOSITION",
              "ntt": "BYPASS",
              "bassOn": false,
              "chordRootUpperLimit": 5,
              "noteLowLimit": 57,
              "noteHighLimit": 68,
              "rtr": "PITCH_SHIFT"
            },
            "ctb2High": null,
            "ctb2MiddleLowPitch": 0,
            "ctb2MiddleHighPitch": 127
          },
          "notes": [
            {
              "pitch": 60,
              "velocity": 50,
              "position": 0.010416666666666666,
              "duration": 3.9854166666666666
            },
            {
              "pitch": 62,
              "velocity": 50,
              "position": 0.010416666666666666,
              "duration": 3.9854166666666666
            },
            {
              "pitch": 67,
              "velocity": 50,
              "position": 0.010416666666666666,
              "duration": 3.9854166666666666
            },
            {
              "pitch": 60,
              "velocity": 50,
              "position": 4,
              "duration": 3.995833333333333
            },
            {
              "pitch": 63,
              "velocity": 50,
              "position": 4,
              "duration": 3.995833333333333
            },
            {
              "pitch": 67,
              "velocity": 50,
              "position": 4,
              "duration": 3.995833333333333
            },
            {
              "pitch": 58,
              "velocity": 50,
              "position": 8,
              "duration": 3.995833333333333
            },
            {
              "pitch": 62,
              "velocity": 50,
              "position": 8,
              "duration": 3.995833333333333
            },
            {
              "pitch": 67,
              "velocity": 50,
              "position": 8,
              "duration": 3.995833333333333
            },
            {
              "pitch": 58,
              "velocity": 50,
              "position": 12,
              "duration": 3.995833333333333
            },
            {
              "pitch": 62,
              "velocity": 50,
              "position": 12,
              "duration": 3.995833333333333
            },
            {
              "pitch": 57,
              "velocity": 50,
              "position": 16,
              "duration": 3.995833333333333
            },
            {
              "pitch": 60,
              "velocity": 50,
              "position": 16,
              "duration": 3.995833333333333
            },
            {
              "pitch": 65,
              "velocity": 50,
              "position": 12,
              "duration": 7.995833333333334
            },
            {
              "pitch": 60,
              "velocity": 50,
              "position": 20,
              "duration": 3.995833333333333
            },
            {
              "pitch": 63,
              "velocity": 50,
              "position": 20,
              "duration": 3.995833333333333
            },
            {
              "pitch": 67,
              "velocity": 50,
              "position": 20,
              "duration": 3.995833333333333
            },
            {
              "pitch": 58,
              "velocity": 50,
              "position": 24,
              "duration": 3.995833333333333
            },
            {
              "pitch": 62,
              "velocity": 50,
              "position": 24,
              "duration": 3.995833333333333
            },
            {
              "pitch": 67,
              "velocity": 50,
              "position": 24,
              "duration": 3.995833333333333
            },
            {
              "pitch": 58,
              "velocity": 50,
              "position": 28,
              "duration": 3.995833333333333
            },
            {
              "pitch": 62,
              "velocity": 50,
              "position": 28,
              "duration": 3.995833333333333
            },
            {
              "pitch": 57,
              "velocity": 50,
              "position": 32,
              "duration": 3.995833333333333
            },
            {
              "pitch": 60,
              "velocity": 50,
              "position": 32,
              "duration": 3.995833333333333
            },
            {
              "pitch": 65,
              "velocity": 50,
              "position": 28,
              "duration": 7.995833333333334
            }
          ]
        },
        "6": {
          "ctab": {
            "srcChannel": 6,
            "name": "Organ",
            "accType": "PHRASE1",
            "editable": false,
            "mutedNotes": [],
            "mutedChords": [
              "1+2+5",
              "sus4",
              "1+5",
              "1+8",
              "7aug",
              "Maj7aug",
              "7(#9)",
              "7(b13)",
              "7(b9)",
              "7(13)",
              "7#11",
              "7(9)",
              "7b5",
              "7sus4",
              "7th",
              "aug",
              "Maj6(9)",
              "Maj7(9)",
              "Maj(9)",
              "Maj7#11",
              "Maj7",
              "Maj6",
              "Maj"
            ],
            "autoStart": false,
            "sourceChordNote": 0,
            "sourceChordType": "min",
            "ctb2Low": null,
            "ctb2Main": {
              "ntr": "ROOT_TRANSPOSITION",
              "ntt": "BYPASS",
              "bassOn": false,
              "chordRootUpperLimit": 4,
              "noteLowLimit": 57,
              "noteHighLimit": 68,
              "rtr": "PITCH_SHIFT"
            },
            "ctb2High": null,
            "ctb2MiddleLowPitch": 0,
            "ctb2MiddleHighPitch": 127
          },
          "notes": [
            {
              "pitch": 60,
              "velocity": 88,
              "position": 4,
              "duration": 3.995833333333333
            },
            {
              "pitch": 63,
              "velocity": 88,
              "position": 4,
              "duration": 3.995833333333333
            },
            {
              "pitch": 67,
              "velocity": 88,
              "position": 4,
              "duration": 3.995833333333333
            },
            {
              "pitch": 58,
              "velocity": 88,
              "position": 8,
              "duration": 3.995833333333333
            },
            {
              "pitch": 62,
              "velocity": 88,
              "position": 8,
              "duration": 3.995833333333333
            },
            {
              "pitch": 67,
              "velocity": 88,
              "position": 8,
              "duration": 3.995833333333333
            },
            {
              "pitch": 58,
              "velocity": 88,
              "position": 12,
              "duration": 3.995833333333333
            },
            {
              "pitch": 62,
              "velocity": 88,
              "position": 12,
              "duration": 3.995833333333333
            },
            {
              "pitch": 57,
              "velocity": 88,
              "position": 16,
              "duration": 3.995833333333333
            },
            {
              "pitch": 60,
              "velocity": 88,
              "position": 16,
              "duration": 3.995833333333333
            },
            {
              "pitch": 65,
              "velocity": 88,
              "position": 12,
              "duration": 7.995833333333334
            },
            {
              "pitch": 60,
              "velocity": 88,
              "position": 20,
              "duration": 3.995833333333333
            },
            {
              "pitch": 63,
              "velocity": 88,
              "position": 20,
              "duration": 3.995833333333333
            },
            {
              "pitch": 67,
              "velocity": 88,
              "position": 20,
              "duration": 3.995833333333333
            },
            {
              "pitch": 58,
              "velocity": 88,
              "position": 24,
              "duration": 3.995833333333333
            },
            {
              "pitch": 62,
              "velocity": 88,
              "position": 24,
              "duration": 3.995833333333333
            },
            {
              "pitch": 67,
              "velocity": 88,
              "position": 24,
              "duration": 3.995833333333333
            },
            {
              "pitch": 58,
              "velocity": 88,
              "position": 28,
              "duration": 3.995833333333333
            },
            {
              "pitch": 62,
              "velocity": 88,
              "position": 28,
              "duration": 3.995833333333333
            },
            {
              "pitch": 57,
              "velocity": 88,
              "position": 32,
              "duration": 3.995833333333333
            },
            {
              "pitch": 60,
              "velocity": 88,
              "position": 32,
              "duration": 3.995833333333333
            },
            {
              "pitch": 65,
              "velocity": 88,
              "position": 28,
              "duration": 7.995833333333334
            }
          ]
        },
        "7": {
          "ctab": {
            "srcChannel": 7,
            "name": "Guitar2",
            "accType": "PHRASE2",
            "editable": false,
            "mutedNotes": [],
            "mutedChords": [
              "1+2+5",
              "sus4",
              "1+5",
              "1+8",
              "7aug",
              "Maj7aug",
              "7(#9)",
              "7(b13)",
              "7(b9)",
              "7(13)",
              "7#11",
              "7(9)",
              "7b5",
              "7sus4",
              "7th",
              "aug",
              "Maj6(9)",
              "Maj7(9)",
              "Maj(9)",
              "Maj7#11",
              "Maj7",
              "Maj6",
              "Maj"
            ],
            "autoStart": false,
            "sourceChordNote": 0,
            "sourceChordType": "min",
            "ctb2Low": null,
            "ctb2Main": {
              "ntr": "ROOT_TRANSPOSITION",
              "ntt": "BYPASS",
              "bassOn": false,
              "chordRootUpperLimit": 3,
              "noteLowLimit": 48,
              "noteHighLimit": 59,
              "rtr": "PITCH_SHIFT"
            },
            "ctb2High": {
              "ntr": "ROOT_FIXED",
              "ntt": "BYPASS",
              "bassOn": false,
              "chordRootUpperLimit": 7,
              "noteLowLimit": 0,
              "noteHighLimit": 127,
              "rtr": "PITCH_SHIFT"
            },
            "ctb2MiddleLowPitch": 0,
            "ctb2MiddleHighPitch": 95
          },
          "notes": [
            {
              "pitch": 48,
              "velocity": 83,
              "position": 4,
              "duration": 0.4708333333333333
            },
            {
              "pitch": 55,
              "velocity": 83,
              "position": 4,
              "duration": 0.4708333333333333
            },
            {
              "pitch": 48,
              "velocity": 79,
              "position": 4.489583333333333,
              "duration": 0.4083333333333333
            },
            {
              "pitch": 55,
              "velocity": 79,
              "position": 4.489583333333333,
              "duration": 0.4083333333333333
            },
            {
              "pitch": 48,
              "velocity": 79,
              "position": 4.989583333333333,
              "duration": 0.4083333333333333
            },
            {
              "pitch": 55,
              "velocity": 79,
              "position": 4.989583333333333,
              "duration": 0.4083333333333333
            },
            {
              "pitch": 48,
              "velocity": 83,
              "position": 5.489583333333333,
              "duration": 0.4083333333333333
            },
            {
              "pitch": 55,
              "velocity": 83,
              "position": 5.489583333333333,
              "duration": 0.4083333333333333
            },
            {
              "pitch": 48,
              "velocity": 79,
              "position": 5.989583333333333,
              "duration": 0.4083333333333333
            },
            {
              "pitch": 55,
              "velocity": 79,
              "position": 5.989583333333333,
              "duration": 0.4083333333333333
            },
            {
              "pitch": 48,
              "velocity": 79,
              "position": 6.489583333333333,
              "duration": 0.4083333333333333
            },
            {
              "pitch": 55,
              "velocity": 79,
              "position": 6.489583333333333,
              "duration": 0.4083333333333333
            },
            {
              "pitch": 48,
              "velocity": 84,
              "position": 6.989583333333333,
              "duration": 0.4083333333333333
            },
            {
              "pitch": 55,
              "velocity": 84,
              "position": 6.989583333333333,
              "duration": 0.4083333333333333
            },
            {
              "pitch": 48,
              "velocity": 79,
              "position": 7.489583333333333,
              "duration": 0.4083333333333333
            },
            {
              "pitch": 55,
              "velocity": 79,
              "position": 7.489583333333333,
              "duration": 0.4083333333333333
            },
            {
              "pitch": 50,
              "velocity": 83,
              "position": 8,
              "duration": 0.4708333333333333
            },
            {
              "pitch": 55,
              "velocity": 83,
              "position": 8,
              "duration": 0.4708333333333333
            },
            {
              "pitch": 50,
              "velocity": 79,
              "position": 8.489583333333334,
              "duration": 0.4083333333333333
            },
            {
              "pitch": 55,
              "velocity": 79,
              "position": 8.489583333333334,
              "duration": 0.4083333333333333
            },
            {
              "pitch": 50,
              "velocity": 79,
              "position": 8.989583333333334,
              "duration": 0.4083333333333333
            },
            {
              "pitch": 55,
              "velocity": 79,
              "position": 8.989583333333334,
              "duration": 0.4083333333333333
            },
            {
              "pitch": 50,
              "velocity": 83,
              "position": 9.489583333333334,
              "duration": 0.4083333333333333
            },
            {
              "pitch": 55,
              "velocity": 83,
              "position": 9.489583333333334,
              "duration": 0.4083333333333333
            },
            {
              "pitch": 50,
              "velocity": 79,
              "position": 9.989583333333334,
              "duration": 0.4083333333333333
            },
            {
              "pitch": 55,
              "velocity": 79,
              "position": 9.989583333333334,
              "duration": 0.4083333333333333
            },
            {
              "pitch": 50,
              "velocity": 79,
              "position": 10.489583333333334,
              "duration": 0.4083333333333333
            },
            {
              "pitch": 55,
              "velocity": 79,
              "position": 10.489583333333334,
              "duration": 0.4083333333333333
            },
            {
              "pitch": 50,
              "velocity": 84,
              "position": 10.989583333333334,
              "duration": 0.4083333333333333
            },
            {
              "pitch": 55,
              "velocity": 84,
              "position": 10.989583333333334,
              "duration": 0.4083333333333333
            },
            {
              "pitch": 50,
              "velocity": 79,
              "position": 11.489583333333334,
              "duration": 0.4083333333333333
            },
            {
              "pitch": 55,
              "velocity": 79,
              "position": 11.489583333333334,
              "duration": 0.4083333333333333
            },
            {
              "pitch": 53,
              "velocity": 83,
              "position": 12,
              "duration": 0.4708333333333333
            },
            {
              "pitch": 58,
              "velocity": 83,
              "position": 12,
              "duration": 0.4708333333333333
            },
            {
              "pitch": 53,
              "velocity": 79,
              "position": 12.489583333333334,
              "duration": 0.4083333333333333
            },
            {
              "pitch": 58,
              "velocity": 79,
              "position": 12.489583333333334,
              "duration": 0.4083333333333333
            },
            {
              "pitch": 53,
              "velocity": 79,
              "position": 12.989583333333334,
              "duration": 0.4083333333333333
            },
            {
              "pitch": 58,
              "velocity": 79,
              "position": 12.989583333333334,
              "duration": 0.4083333333333333
            },
            {
              "pitch": 53,
              "velocity": 83,
              "position": 13.489583333333334,
              "duration": 0.4083333333333333
            },
            {
              "pitch": 58,
              "velocity": 83,
              "position": 13.489583333333334,
              "duration": 0.4083333333333333
            },
            {
              "pitch": 53,
              "velocity": 79,
              "position": 13.989583333333334,
              "duration": 0.4083333333333333
            },
            {
              "pitch": 58,
              "velocity": 79,
              "position": 13.989583333333334,
              "duration": 0.4083333333333333
            },
            {
              "pitch": 53,
              "velocity": 79,
              "position": 14.489583333333334,
              "duration": 0.4083333333333333
            },
            {
              "pitch": 58,
              "velocity": 79,
              "position": 14.489583333333334,
              "duration": 0.4083333333333333
            },
            {
              "pitch": 53,
              "velocity": 84,
              "position": 14.989583333333334,
              "duration": 0.4083333333333333
            },
            {
              "pitch": 58,
              "velocity": 84,
              "position": 14.989583333333334,
              "duration": 0.4083333333333333
            },
            {
              "pitch": 53,
              "velocity": 79,
              "position": 15.489583333333334,
              "duration": 0.4083333333333333
            },
            {
              "pitch": 58,
              "velocity": 79,
              "position": 15.489583333333334,
              "duration": 0.4083333333333333
            },
            {
              "pitch": 53,
              "velocity": 83,
              "position": 16,
              "duration": 0.4708333333333333
            },
            {
              "pitch": 57,
              "velocity": 83,
              "position": 16,
              "duration": 0.4708333333333333
            },
            {
              "pitch": 53,
              "velocity": 79,
              "position": 16.489583333333332,
              "duration": 0.4083333333333333
            },
            {
              "pitch": 57,
              "velocity": 79,
              "position": 16.489583333333332,
              "duration": 0.4083333333333333
            },
            {
              "pitch": 53,
              "velocity": 79,
              "position": 16.989583333333332,
              "duration": 0.4083333333333333
            },
            {
              "pitch": 57,
              "velocity": 79,
              "position": 16.989583333333332,
              "duration": 0.4083333333333333
            },
            {
              "pitch": 53,
              "velocity": 83,
              "position": 17.489583333333332,
              "duration": 0.4083333333333333
            },
            {
              "pitch": 57,
              "velocity": 83,
              "position": 17.489583333333332,
              "duration": 0.4083333333333333
            },
            {
              "pitch": 53,
              "velocity": 79,
              "position": 17.989583333333332,
              "duration": 0.4083333333333333
            },
            {
              "pitch": 57,
              "velocity": 79,
              "position": 17.989583333333332,
              "duration": 0.4083333333333333
            },
            {
              "pitch": 53,
              "velocity": 79,
              "position": 18.489583333333332,
              "duration": 0.4083333333333333
            },
            {
              "pitch": 57,
              "velocity": 79,
              "position": 18.489583333333332,
              "duration": 0.4083333333333333
            },
            {
              "pitch": 53,
              "velocity": 84,
              "position": 18.989583333333332,
              "duration": 0.4083333333333333
            },
            {
              "pitch": 57,
              "velocity": 84,
              "position": 18.989583333333332,
              "duration": 0.4083333333333333
            },
            {
              "pitch": 53,
              "velocity": 79,
              "position": 19.489583333333332,
              "duration": 0.4083333333333333
            },
            {
              "pitch": 57,
              "velocity": 79,
              "position": 19.489583333333332,
              "duration": 0.4083333333333333
            },
            {
              "pitch": 48,
              "velocity": 83,
              "position": 20,
              "duration": 0.4708333333333333
            },
            {
              "pitch": 55,
              "velocity": 83,
              "position": 20,
              "duration": 0.4708333333333333
            },
            {
              "pitch": 48,
              "velocity": 79,
              "position": 20.489583333333332,
              "duration": 0.4083333333333333
            },
            {
              "pitch": 55,
              "velocity": 79,
              "position": 20.489583333333332,
              "duration": 0.4083333333333333
            },
            {
              "pitch": 48,
              "velocity": 79,
              "position": 20.989583333333332,
              "duration": 0.4083333333333333
            },
            {
              "pitch": 55,
              "velocity": 79,
              "position": 20.989583333333332,
              "duration": 0.4083333333333333
            },
            {
              "pitch": 48,
              "velocity": 83,
              "position": 21.489583333333332,
              "duration": 0.4083333333333333
            },
            {
              "pitch": 55,
              "velocity": 83,
              "position": 21.489583333333332,
              "duration": 0.4083333333333333
            },
            {
              "pitch": 48,
              "velocity": 79,
              "position": 21.989583333333332,
              "duration": 0.4083333333333333
            },
            {
              "pitch": 55,
              "velocity": 79,
              "position": 21.989583333333332,
              "duration": 0.4083333333333333
            },
            {
              "pitch": 48,
              "velocity": 79,
              "position": 22.489583333333332,
              "duration": 0.4083333333333333
            },
            {
              "pitch": 55,
              "velocity": 79,
              "position": 22.489583333333332,
              "duration": 0.4083333333333333
            },
            {
              "pitch": 48,
              "velocity": 84,
              "position": 22.989583333333332,
              "duration": 0.4083333333333333
            },
            {
              "pitch": 55,
              "velocity": 84,
              "position": 22.989583333333332,
              "duration": 0.4083333333333333
            },
            {
              "pitch": 48,
              "velocity": 79,
              "position": 23.489583333333332,
              "duration": 0.4083333333333333
            },
            {
              "pitch": 55,
              "velocity": 79,
              "position": 23.489583333333332,
              "duration": 0.4083333333333333
            },
            {
              "pitch": 50,
              "velocity": 83,
              "position": 24,
              "duration": 0.4708333333333333
            },
            {
              "pitch": 55,
              "velocity": 83,
              "position": 24,
              "duration": 0.4708333333333333
            },
            {
              "pitch": 50,
              "velocity": 79,
              "position": 24.489583333333332,
              "duration": 0.4083333333333333
            },
            {
              "pitch": 55,
              "velocity": 79,
              "position": 24.489583333333332,
              "duration": 0.4083333333333333
            },
            {
              "pitch": 50,
              "velocity": 79,
              "position": 24.989583333333332,
              "duration": 0.4083333333333333
            },
            {
              "pitch": 55,
              "velocity": 79,
              "position": 24.989583333333332,
              "duration": 0.4083333333333333
            },
            {
              "pitch": 50,
              "velocity": 83,
              "position": 25.489583333333332,
              "duration": 0.4083333333333333
            },
            {
              "pitch": 55,
              "velocity": 83,
              "position": 25.489583333333332,
              "duration": 0.4083333333333333
            },
            {
              "pitch": 50,
              "velocity": 79,
              "position": 25.989583333333332,
              "duration": 0.4083333333333333
            },
            {
              "pitch": 55,
              "velocity": 79,
              "position": 25.989583333333332,
              "duration": 0.4083333333333333
            },
            {
              "pitch": 50,
              "velocity": 79,
              "position": 26.489583333333332,
              "duration": 0.4083333333333333
            },
            {
              "pitch": 55,
              "velocity": 79,
              "position": 26.489583333333332,
              "duration": 0.4083333333333333
            },
            {
              "pitch": 50,
              "velocity": 84,
              "position": 26.989583333333332,
              "duration": 0.4083333333333333
            },
            {
              "pitch": 55,
              "velocity": 84,
              "position": 26.989583333333332,
              "duration": 0.4083333333333333
            },
            {
              "pitch": 50,
              "velocity": 79,
              "position": 27.489583333333332,
              "duration": 0.4083333333333333
            },
            {
              "pitch": 55,
              "velocity": 79,
              "position": 27.489583333333332,
              "duration": 0.4083333333333333
            },
            {
              "pitch": 53,
              "velocity": 83,
              "position": 28,
              "duration": 0.4708333333333333
            },
            {
              "pitch": 58,
              "velocity": 83,
              "position": 28,
              "duration": 0.4708333333333333
            },
            {
              "pitch": 53,
              "velocity": 79,
              "position": 28.489583333333332,
              "duration": 0.4083333333333333
            },
            {
              "pitch": 58,
              "velocity": 79,
              "position": 28.489583333333332,
              "duration": 0.4083333333333333
            },
            {
              "pitch": 53,
              "velocity": 79,
              "position": 28.989583333333332,
              "duration": 0.4083333333333333
            },
            {
              "pitch": 58,
              "velocity": 79,
              "position": 28.989583333333332,
              "duration": 0.4083333333333333
            },
            {
              "pitch": 53,
              "velocity": 83,
              "position": 29.489583333333332,
              "duration": 0.4083333333333333
            },
            {
              "pitch": 58,
              "velocity": 83,
              "position": 29.489583333333332,
              "duration": 0.4083333333333333
            },
            {
              "pitch": 53,
              "velocity": 79,
              "position": 29.989583333333332,
              "duration": 0.4083333333333333
            },
            {
              "pitch": 58,
              "velocity": 79,
              "position": 29.989583333333332,
              "duration": 0.4083333333333333
            },
            {
              "pitch": 53,
              "velocity": 79,
              "position": 30.489583333333332,
              "duration": 0.4083333333333333
            },
            {
              "pitch": 58,
              "velocity": 79,
              "position": 30.489583333333332,
              "duration": 0.4083333333333333
            },
            {
              "pitch": 53,
              "velocity": 84,
              "position": 30.989583333333332,
              "duration": 0.4083333333333333
            },
            {
              "pitch": 58,
              "velocity": 84,
              "position": 30.989583333333332,
              "duration": 0.4083333333333333
            },
            {
              "pitch": 53,
              "velocity": 79,
              "position": 31.489583333333332,
              "duration": 0.4083333333333333
            },
            {
              "pitch": 58,
              "velocity": 79,
              "position": 31.489583333333332,
              "duration": 0.4083333333333333
            },
            {
              "pitch": 53,
              "velocity": 83,
              "position": 32,
              "duration": 0.4708333333333333
            },
            {
              "pitch": 57,
              "velocity": 83,
              "position": 32,
              "duration": 0.4708333333333333
            },
            {
              "pitch": 53,
              "velocity": 79,
              "position": 32.489583333333336,
              "duration": 0.4083333333333333
            },
            {
              "pitch": 57,
              "velocity": 79,
              "position": 32.489583333333336,
              "duration": 0.4083333333333333
            },
            {
              "pitch": 53,
              "velocity": 79,
              "position": 32.989583333333336,
              "duration": 0.4083333333333333
            },
            {
              "pitch": 57,
              "velocity": 79,
              "position": 32.989583333333336,
              "duration": 0.4083333333333333
            },
            {
              "pitch": 53,
              "velocity": 83,
              "position": 33.489583333333336,
              "duration": 0.4083333333333333
            },
            {
              "pitch": 57,
              "velocity": 83,
              "position": 33.489583333333336,
              "duration": 0.4083333333333333
            },
            {
              "pitch": 53,
              "velocity": 79,
              "position": 33.989583333333336,
              "duration": 0.4083333333333333
            },
            {
              "pitch": 57,
              "velocity": 79,
              "position": 33.989583333333336,
              "duration": 0.4083333333333333
            },
            {
              "pitch": 53,
              "velocity": 79,
              "position": 34.489583333333336,
              "duration": 0.4083333333333333
            },
            {
              "pitch": 57,
              "velocity": 79,
              "position": 34.489583333333336,
              "duration": 0.4083333333333333
            },
            {
              "pitch": 53,
              "velocity": 84,
              "position": 34.989583333333336,
              "duration": 0.4083333333333333
            },
            {
              "pitch": 57,
              "velocity": 84,
              "position": 34.989583333333336,
              "duration": 0.4083333333333333
            },
            {
              "pitch": 53,
              "velocity": 79,
              "position": 35.489583333333336,
              "duration": 0.4083333333333333
            },
            {
              "pitch": 57,
              "velocity": 79,
              "position": 35.489583333333336,
              "duration": 0.4083333333333333
            }
          ]
        },
        "8": {
          "ctab": {
            "srcChannel": 8,
            "name": "AddDrum",
            "accType": "SUBRHYTHM",
            "editable": false,
            "mutedNotes": [],
            "mutedChords": [],
            "autoStart": true,
            "sourceChordNote": 0,
            "sourceChordType": "Maj7",
            "ctb2Low": null,
            "ctb2Main": {
              "ntr": "ROOT_FIXED",
              "ntt": "BYPASS",
              "bassOn": false,
              "chordRootUpperLimit": 6,
              "noteLowLimit": 0,
              "noteHighLimit": 127,
              "rtr": "PITCH_SHIFT"
            },
            "ctb2High": null,
            "ctb2MiddleLowPitch": 0,
            "ctb2MiddleHighPitch": 127
          },
          "notes": []
        },
        "9": {
          "ctab": {
            "srcChannel": 9,
            "name": "MainDrum",
            "accType": "RHYTHM",
            "editable": false,
            "mutedNotes": [],
            "mutedChords": [],
            "autoStart": true,
            "sourceChordNote": 0,
            "sourceChordType": "Maj7",
            "ctb2Low": null,
            "ctb2Main": {
              "ntr": "ROOT_FIXED",
              "ntt": "BYPASS",
              "bassOn": false,
              "chordRootUpperLimit": 6,
              "noteLowLimit": 0,
              "noteHighLimit": 127,
              "rtr": "PITCH_SHIFT"
            },
            "ctb2High": null,
            "ctb2MiddleLowPitch": 0,
            "ctb2MiddleHighPitch": 127
          },
          "notes": [
            {
              "pitch": 32,
              "velocity": 78,
              "position": 0,
              "duration": 0.00625
            },
            {
              "pitch": 32,
              "velocity": 78,
              "position": 1,
              "duration": 0.00625
            },
            {
              "pitch": 32,
              "velocity": 78,
              "position": 2,
              "duration": 0.00625
            },
            {
              "pitch": 33,
              "velocity": 65,
              "position": 2.5,
              "duration": 0.00625
            },
            {
              "pitch": 33,
              "velocity": 40,
              "position": 2.75,
              "duration": 0.00625
            },
            {
              "pitch": 38,
              "velocity": 62,
              "position": 2.96875,
              "duration": 0.00625
            },
            {
              "pitch": 55,
              "velocity": 70,
              "position": 3,
              "duration": 0.00625
            },
            {
              "pitch": 38,
              "velocity": 94,
              "position": 3.0104166666666665,
              "duration": 0.00625
            },
            {
              "pitch": 33,
              "velocity": 76,
              "position": 4,
              "duration": 0.00625
            },
            {
              "pitch": 42,
              "velocity": 70,
              "position": 4,
              "duration": 0.00625
            },
            {
              "pitch": 33,
              "velocity": 50,
              "position": 4.5,
              "duration": 0.00625
            },
            {
              "pitch": 42,
              "velocity": 39,
              "position": 4.5,
              "duration": 0.00625
            },
            {
              "pitch": 42,
              "velocity": 20,
              "position": 4.75,
              "duration": 0.00625
            },
            {
              "pitch": 33,
              "velocity": 64,
              "position": 5,
              "duration": 0.00625
            },
            {
              "pitch": 38,
              "velocity": 90,
              "position": 5,
              "duration": 0.00625
            },
            {
              "pitch": 42,
              "velocity": 105,
              "position": 5,
              "duration": 0.00625
            },
            {
              "pitch": 33,
              "velocity": 65,
              "position": 5.5,
              "duration": 0.00625
            },
            {
              "pitch": 42,
              "velocity": 43,
              "position": 5.5,
              "duration": 0.00625
            },
            {
              "pitch": 42,
              "velocity": 24,
              "position": 6,
              "duration": 0.00625
            },
            {
              "pitch": 38,
              "velocity": 90,
              "position": 6.5,
              "duration": 0.00625
            },
            {
              "pitch": 42,
              "velocity": 70,
              "position": 6.5,
              "duration": 0.00625
            },
            {
              "pitch": 42,
              "velocity": 44,
              "position": 7,
              "duration": 0.00625
            },
            {
              "pitch": 33,
              "velocity": 65,
              "position": 7.5,
              "duration": 0.00625
            },
            {
              "pitch": 42,
              "velocity": 28,
              "position": 7.5,
              "duration": 0.00625
            },
            {
              "pitch": 33,
              "velocity": 76,
              "position": 8,
              "duration": 0.00625
            },
            {
              "pitch": 42,
              "velocity": 70,
              "position": 8,
              "duration": 0.00625
            },
            {
              "pitch": 33,
              "velocity": 50,
              "position": 8.5,
              "duration": 0.00625
            },
            {
              "pitch": 42,
              "velocity": 31,
              "position": 8.5,
              "duration": 0.00625
            },
            {
              "pitch": 33,
              "velocity": 64,
              "position": 9,
              "duration": 0.00625
            },
            {
              "pitch": 38,
              "velocity": 90,
              "position": 9,
              "duration": 0.00625
            },
            {
              "pitch": 42,
              "velocity": 90,
              "position": 9,
              "duration": 0.00625
            },
            {
              "pitch": 42,
              "velocity": 38,
              "position": 9.5,
              "duration": 0.00625
            },
            {
              "pitch": 33,
              "velocity": 65,
              "position": 10,
              "duration": 0.00625
            },
            {
              "pitch": 42,
              "velocity": 24,
              "position": 10,
              "duration": 0.00625
            },
            {
              "pitch": 38,
              "velocity": 90,
              "position": 10.5,
              "duration": 0.00625
            },
            {
              "pitch": 42,
              "velocity": 70,
              "position": 10.5,
              "duration": 0.00625
            },
            {
              "pitch": 42,
              "velocity": 30,
              "position": 11,
              "duration": 0.00625
            },
            {
              "pitch": 33,
              "velocity": 65,
              "position": 11.5,
              "duration": 0.00625
            },
            {
              "pitch": 42,
              "velocity": 39,
              "position": 11.5,
              "duration": 0.00625
            },
            {
              "pitch": 42,
              "velocity": 20,
              "position": 11.75,
              "duration": 0.00625
            },
            {
              "pitch": 33,
              "velocity": 76,
              "position": 12,
              "duration": 0.00625
            },
            {
              "pitch": 42,
              "velocity": 70,
              "position": 12,
              "duration": 0.00625
            },
            {
              "pitch": 33,
              "velocity": 50,
              "position": 12.5,
              "duration": 0.00625
            },
            {
              "pitch": 38,
              "velocity": 9,
              "position": 12.5,
              "duration": 0.00625
            },
            {
              "pitch": 42,
              "velocity": 39,
              "position": 12.5,
              "duration": 0.00625
            },
            {
              "pitch": 38,
              "velocity": 25,
              "position": 12.75,
              "duration": 0.00625
            },
            {
              "pitch": 42,
              "velocity": 20,
              "position": 12.75,
              "duration": 0.00625
            },
            {
              "pitch": 33,
              "velocity": 64,
              "position": 13,
              "duration": 0.00625
            },
            {
              "pitch": 38,
              "velocity": 90,
              "position": 13,
              "duration": 0.00625
            },
            {
              "pitch": 42,
              "velocity": 90,
              "position": 13,
              "duration": 0.00625
            },
            {
              "pitch": 33,
              "velocity": 65,
              "position": 13.5,
              "duration": 0.00625
            },
            {
              "pitch": 42,
              "velocity": 43,
              "position": 13.5,
              "duration": 0.00625
            },
            {
              "pitch": 42,
              "velocity": 24,
              "position": 14,
              "duration": 0.00625
            },
            {
              "pitch": 38,
              "velocity": 90,
              "position": 14.5,
              "duration": 0.00625
            },
            {
              "pitch": 42,
              "velocity": 70,
              "position": 14.5,
              "duration": 0.00625
            },
            {
              "pitch": 42,
              "velocity": 44,
              "position": 15,
              "duration": 0.00625
            },
            {
              "pitch": 33,
              "velocity": 65,
              "position": 15.5,
              "duration": 0.00625
            },
            {
              "pitch": 42,
              "velocity": 28,
              "position": 15.5,
              "duration": 0.00625
            },
            {
              "pitch": 33,
              "velocity": 76,
              "position": 16,
              "duration": 0.00625
            },
            {
              "pitch": 42,
              "velocity": 70,
              "position": 16,
              "duration": 0.00625
            },
            {
              "pitch": 33,
              "velocity": 50,
              "position": 16.5,
              "duration": 0.00625
            },
            {
              "pitch": 42,
              "velocity": 31,
              "position": 16.5,
              "duration": 0.00625
            },
            {
              "pitch": 33,
              "velocity": 64,
              "position": 17,
              "duration": 0.00625
            },
            {
              "pitch": 38,
              "velocity": 90,
              "position": 17,
              "duration": 0.00625
            },
            {
              "pitch": 42,
              "velocity": 107,
              "position": 17,
              "duration": 0.00625
            },
            {
              "pitch": 42,
              "velocity": 38,
              "position": 17.5,
              "duration": 0.00625
            },
            {
              "pitch": 33,
              "velocity": 65,
              "position": 18,
              "duration": 0.00625
            },
            {
              "pitch": 42,
              "velocity": 24,
              "position": 18,
              "duration": 0.00625
            },
            {
              "pitch": 38,
              "velocity": 90,
              "position": 18.5,
              "duration": 0.00625
            },
            {
              "pitch": 42,
              "velocity": 70,
              "position": 18.5,
              "duration": 0.00625
            },
            {
              "pitch": 38,
              "velocity": 71,
              "position": 19,
              "duration": 0.00625
            },
            {
              "pitch": 42,
              "velocity": 30,
              "position": 19,
              "duration": 0.00625
            },
            {
              "pitch": 47,
              "velocity": 54,
              "position": 19.25,
              "duration": 0.00625
            },
            {
              "pitch": 33,
              "velocity": 65,
              "position": 19.5,
              "duration": 0.00625
            },
            {
              "pitch": 42,
              "velocity": 39,
              "position": 19.5,
              "duration": 0.00625
            },
            {
              "pitch": 47,
              "velocity": 74,
              "position": 19.5,
              "duration": 0.00625
            },
            {
              "pitch": 42,
              "velocity": 20,
              "position": 19.75,
              "duration": 0.00625
            },
            {
              "pitch": 45,
              "velocity": 60,
              "position": 19.75,
              "duration": 0.00625
            },
            {
              "pitch": 33,
              "velocity": 76,
              "position": 20,
              "duration": 0.00625
            },
            {
              "pitch": 42,
              "velocity": 70,
              "position": 20,
              "duration": 0.00625
            },
            {
              "pitch": 33,
              "velocity": 50,
              "position": 20.5,
              "duration": 0.00625
            },
            {
              "pitch": 38,
              "velocity": 9,
              "position": 20.5,
              "duration": 0.00625
            },
            {
              "pitch": 42,
              "velocity": 39,
              "position": 20.5,
              "duration": 0.00625
            },
            {
              "pitch": 38,
              "velocity": 20,
              "position": 20.75,
              "duration": 0.00625
            },
            {
              "pitch": 42,
              "velocity": 20,
              "position": 20.75,
              "duration": 0.00625
            },
            {
              "pitch": 33,
              "velocity": 64,
              "position": 21,
              "duration": 0.00625
            },
            {
              "pitch": 38,
              "velocity": 90,
              "position": 21,
              "duration": 0.00625
            },
            {
              "pitch": 55,
              "velocity": 82,
              "position": 21,
              "duration": 0.00625
            },
            {
              "pitch": 33,
              "velocity": 65,
              "position": 21.5,
              "duration": 0.00625
            },
            {
              "pitch": 42,
              "velocity": 43,
              "position": 21.5,
              "duration": 0.00625
            },
            {
              "pitch": 42,
              "velocity": 24,
              "position": 22,
              "duration": 0.00625
            },
            {
              "pitch": 38,
              "velocity": 90,
              "position": 22.5,
              "duration": 0.00625
            },
            {
              "pitch": 42,
              "velocity": 70,
              "position": 22.5,
              "duration": 0.00625
            },
            {
              "pitch": 42,
              "velocity": 44,
              "position": 23,
              "duration": 0.00625
            },
            {
              "pitch": 33,
              "velocity": 65,
              "position": 23.5,
              "duration": 0.00625
            },
            {
              "pitch": 42,
              "velocity": 28,
              "position": 23.5,
              "duration": 0.00625
            },
            {
              "pitch": 33,
              "velocity": 76,
              "position": 24,
              "duration": 0.00625
            },
            {
              "pitch": 42,
              "velocity": 70,
              "position": 24,
              "duration": 0.00625
            },
            {
              "pitch": 33,
              "velocity": 50,
              "position": 24.5,
              "duration": 0.00625
            },
            {
              "pitch": 42,
              "velocity": 31,
              "position": 24.5,
              "duration": 0.00625
            },
            {
              "pitch": 33,
              "velocity": 64,
              "position": 25,
              "duration": 0.00625
            },
            {
              "pitch": 38,
              "velocity": 90,
              "position": 25,
              "duration": 0.00625
            },
            {
              "pitch": 42,
              "velocity": 90,
              "position": 25,
              "duration": 0.00625
            },
            {
              "pitch": 42,
              "velocity": 38,
              "position": 25.5,
              "duration": 0.00625
            },
            {
              "pitch": 33,
              "velocity": 65,
              "position": 26,
              "duration": 0.00625
            },
            {
              "pitch": 42,
              "velocity": 24,
              "position": 26,
              "duration": 0.00625
            },
            {
              "pitch": 38,
              "velocity": 90,
              "position": 26.5,
              "duration": 0.00625
            },
            {
              "pitch": 42,
              "velocity": 70,
              "position": 26.5,
              "duration": 0.00625
            },
            {
              "pitch": 42,
              "velocity": 30,
              "position": 27,
              "duration": 0.00625
            },
            {
              "pitch": 33,
              "velocity": 65,
              "position": 27.5,
              "duration": 0.00625
            },
            {
              "pitch": 42,
              "velocity": 39,
              "position": 27.5,
              "duration": 0.00625
            },
            {
              "pitch": 42,
              "velocity": 20,
              "position": 27.75,
              "duration": 0.00625
            },
            {
              "pitch": 33,
              "velocity": 76,
              "position": 28,
              "duration": 0.00625
            },
            {
              "pitch": 42,
              "velocity": 70,
              "position": 28,
              "duration": 0.00625
            },
            {
              "pitch": 33,
              "velocity": 50,
              "position": 28.5,
              "duration": 0.00625
            },
            {
              "pitch": 42,
              "velocity": 39,
              "position": 28.5,
              "duration": 0.00625
            },
            {
              "pitch": 42,
              "velocity": 20,
              "position": 28.75,
              "duration": 0.00625
            },
            {
              "pitch": 33,
              "velocity": 64,
              "position": 29,
              "duration": 0.00625
            },
            {
              "pitch": 38,
              "velocity": 90,
              "position": 29,
              "duration": 0.00625
            },
            {
              "pitch": 57,
              "velocity": 81,
              "position": 29,
              "duration": 0.00625
            },
            {
              "pitch": 33,
              "velocity": 65,
              "position": 29.5,
              "duration": 0.00625
            },
            {
              "pitch": 42,
              "velocity": 43,
              "position": 29.5,
              "duration": 0.00625
            },
            {
              "pitch": 42,
              "velocity": 24,
              "position": 30,
              "duration": 0.00625
            },
            {
              "pitch": 38,
              "velocity": 90,
              "position": 30.5,
              "duration": 0.00625
            },
            {
              "pitch": 42,
              "velocity": 70,
              "position": 30.5,
              "duration": 0.00625
            },
            {
              "pitch": 42,
              "velocity": 44,
              "position": 31,
              "duration": 0.00625
            },
            {
              "pitch": 33,
              "velocity": 65,
              "position": 31.5,
              "duration": 0.00625
            },
            {
              "pitch": 46,
              "velocity": 61,
              "position": 31.5,
              "duration": 0.00625
            },
            {
              "pitch": 33,
              "velocity": 76,
              "position": 32,
              "duration": 0.00625
            },
            {
              "pitch": 42,
              "velocity": 70,
              "position": 32,
              "duration": 0.00625
            },
            {
              "pitch": 33,
              "velocity": 50,
              "position": 32.5,
              "duration": 0.00625
            },
            {
              "pitch": 38,
              "velocity": 21,
              "position": 32.5,
              "duration": 0.00625
            },
            {
              "pitch": 42,
              "velocity": 31,
              "position": 32.5,
              "duration": 0.00625
            },
            {
              "pitch": 38,
              "velocity": 48,
              "position": 32.75,
              "duration": 0.00625
            },
            {
              "pitch": 38,
              "velocity": 23,
              "position": 32.875,
              "duration": 0.00625
            },
            {
              "pitch": 33,
              "velocity": 64,
              "position": 33,
              "duration": 0.00625
            },
            {
              "pitch": 38,
              "velocity": 90,
              "position": 33,
              "duration": 0.00625
            },
            {
              "pitch": 46,
              "velocity": 76,
              "position": 33,
              "duration": 0.00625
            },
            {
              "pitch": 38,
              "velocity": 23,
              "position": 33.125,
              "duration": 0.00625
            },
            {
              "pitch": 38,
              "velocity": 67,
              "position": 33.25,
              "duration": 0.00625
            },
            {
              "pitch": 38,
              "velocity": 23,
              "position": 33.375,
              "duration": 0.00625
            },
            {
              "pitch": 38,
              "velocity": 40,
              "position": 33.5,
              "duration": 0.00625
            },
            {
              "pitch": 38,
              "velocity": 23,
              "position": 33.625,
              "duration": 0.00625
            },
            {
              "pitch": 38,
              "velocity": 85,
              "position": 33.75,
              "duration": 0.00625
            },
            {
              "pitch": 38,
              "velocity": 23,
              "position": 33.875,
              "duration": 0.00625
            },
            {
              "pitch": 33,
              "velocity": 65,
              "position": 34,
              "duration": 0.00625
            },
            {
              "pitch": 38,
              "velocity": 94,
              "position": 34,
              "duration": 0.00625
            },
            {
              "pitch": 46,
              "velocity": 76,
              "position": 34,
              "duration": 0.00625
            },
            {
              "pitch": 38,
              "velocity": 57,
              "position": 34.25,
              "duration": 0.00625
            },
            {
              "pitch": 38,
              "velocity": 85,
              "position": 34.5,
              "duration": 0.00625
            },
            {
              "pitch": 43,
              "velocity": 34,
              "position": 34.833333333333336,
              "duration": 0.00625
            },
            {
              "pitch": 43,
              "velocity": 54,
              "position": 34.916666666666664,
              "duration": 0.00625
            },
            {
              "pitch": 43,
              "velocity": 88,
              "position": 35,
              "duration": 0.00625
            },
            {
              "pitch": 33,
              "velocity": 65,
              "position": 35.5,
              "duration": 0.00625
            },
            {
              "pitch": 41,
              "velocity": 86,
              "position": 35.5,
              "duration": 0.00625
            },
            {
              "pitch": 55,
              "velocity": 71,
              "position": 35.5,
              "duration": 0.00625
            },
            {
              "pitch": 49,
              "velocity": 73,
              "position": 35.989583333333336,
              "duration": 0.00625
            }
          ]
        },
        "10": {
          "ctab": {
            "srcChannel": 10,
            "name": "Bass",
            "accType": "BASS",
            "editable": false,
            "mutedNotes": [],
            "mutedChords": [
              "dim7",
              "dim",
              "minMaj7(9)",
              "minMaj7",
              "min7(11)",
              "min7(9)",
              "min(9)",
              "m7b5",
              "min7",
              "min6",
              "min"
            ],
            "autoStart": false,
            "sourceChordNote": 0,
            "sourceChordType": "Maj",
            "ctb2Low": null,
            "ctb2Main": {
              "ntr": "ROOT_TRANSPOSITION",
              "ntt": "BYPASS",
              "bassOn": false,
              "chordRootUpperLimit": 3,
              "noteLowLimit": 28,
              "noteHighLimit": 127,
              "rtr": "PITCH_SHIFT"
            },
            "ctb2High": {
              "ntr": "ROOT_FIXED",
              "ntt": "BYPASS",
              "bassOn": false,
              "chordRootUpperLimit": 3,
              "noteLowLimit": 0,
              "noteHighLimit": 127,
              "rtr": "PITCH_SHIFT"
            },
            "ctb2MiddleLowPitch": 0,
            "ctb2MiddleHighPitch": 95
          },
          "notes": [
            {
              "pitch": 24,
              "velocity": 61,
              "position": 4,
              "duration": 0.4395833333333333
            },
            {
              "pitch": 24,
              "velocity": 60,
              "position": 4.5,
              "duration": 0.4395833333333333
            },
            {
              "pitch": 24,
              "velocity": 61,
              "position": 5,
              "duration": 0.4395833333333333
            },
            {
              "pitch": 24,
              "velocity": 60,
              "position": 5.5,
              "duration": 0.4395833333333333
            },
            {
              "pitch": 24,
              "velocity": 61,
              "position": 6,
              "duration": 0.4395833333333333
            },
            {
              "pitch": 24,
              "velocity": 60,
              "position": 6.5,
              "duration": 0.4395833333333333
            },
            {
              "pitch": 24,
              "velocity": 61,
              "position": 7,
              "duration": 0.4395833333333333
            },
            {
              "pitch": 24,
              "velocity": 60,
              "position": 7.5,
              "duration": 0.4395833333333333
            },
            {
              "pitch": 31,
              "velocity": 61,
              "position": 8,
              "duration": 0.4395833333333333
            },
            {
              "pitch": 31,
              "velocity": 60,
              "position": 8.5,
              "duration": 0.4395833333333333
            },
            {
              "pitch": 31,
              "velocity": 61,
              "position": 9,
              "duration": 0.4395833333333333
            },
            {
              "pitch": 31,
              "velocity": 60,
              "position": 9.5,
              "duration": 0.4395833333333333
            },
            {
              "pitch": 31,
              "velocity": 61,
              "position": 10,
              "duration": 0.4395833333333333
            },
            {
              "pitch": 31,
              "velocity": 60,
              "position": 10.5,
              "duration": 0.4395833333333333
            },
            {
              "pitch": 31,
              "velocity": 61,
              "position": 11,
              "duration": 0.4395833333333333
            },
            {
              "pitch": 31,
              "velocity": 60,
              "position": 11.5,
              "duration": 0.4395833333333333
            },
            {
              "pitch": 29,
              "velocity": 61,
              "position": 12,
              "duration": 0.4395833333333333
            },
            {
              "pitch": 29,
              "velocity": 60,
              "position": 12.5,
              "duration": 0.4395833333333333
            },
            {
              "pitch": 29,
              "velocity": 61,
              "position": 13,
              "duration": 0.4395833333333333
            },
            {
              "pitch": 29,
              "velocity": 60,
              "position": 13.5,
              "duration": 0.4395833333333333
            },
            {
              "pitch": 29,
              "velocity": 61,
              "position": 14,
              "duration": 0.4395833333333333
            },
            {
              "pitch": 29,
              "velocity": 60,
              "position": 14.5,
              "duration": 0.4395833333333333
            },
            {
              "pitch": 29,
              "velocity": 61,
              "position": 15,
              "duration": 0.4395833333333333
            },
            {
              "pitch": 29,
              "velocity": 60,
              "position": 15.5,
              "duration": 0.4395833333333333
            },
            {
              "pitch": 26,
              "velocity": 61,
              "position": 16,
              "duration": 0.4395833333333333
            },
            {
              "pitch": 26,
              "velocity": 60,
              "position": 16.5,
              "duration": 0.4395833333333333
            },
            {
              "pitch": 26,
              "velocity": 61,
              "position": 17,
              "duration": 0.4395833333333333
            },
            {
              "pitch": 26,
              "velocity": 60,
              "position": 17.5,
              "duration": 0.4395833333333333
            },
            {
              "pitch": 26,
              "velocity": 61,
              "position": 18,
              "duration": 0.4395833333333333
            },
            {
              "pitch": 26,
              "velocity": 60,
              "position": 18.5,
              "duration": 0.4395833333333333
            },
            {
              "pitch": 26,
              "velocity": 61,
              "position": 19,
              "duration": 0.4395833333333333
            },
            {
              "pitch": 26,
              "velocity": 60,
              "position": 19.5,
              "duration": 0.4395833333333333
            },
            {
              "pitch": 24,
              "velocity": 61,
              "position": 20,
              "duration": 0.4395833333333333
            },
            {
              "pitch": 24,
              "velocity": 60,
              "position": 20.5,
              "duration": 0.4395833333333333
            },
            {
              "pitch": 24,
              "velocity": 61,
              "position": 21,
              "duration": 0.4395833333333333
            },
            {
              "pitch": 24,
              "velocity": 60,
              "position": 21.5,
              "duration": 0.4395833333333333
            },
            {
              "pitch": 24,
              "velocity": 61,
              "position": 22,
              "duration": 0.4395833333333333
            },
            {
              "pitch": 24,
              "velocity": 60,
              "position": 22.5,
              "duration": 0.4395833333333333
            },
            {
              "pitch": 24,
              "velocity": 61,
              "position": 23,
              "duration": 0.4395833333333333
            },
            {
              "pitch": 24,
              "velocity": 60,
              "position": 23.5,
              "duration": 0.4395833333333333
            },
            {
              "pitch": 31,
              "velocity": 61,
              "position": 24,
              "duration": 0.4395833333333333
            },
            {
              "pitch": 31,
              "velocity": 60,
              "position": 24.5,
              "duration": 0.4395833333333333
            },
            {
              "pitch": 31,
              "velocity": 61,
              "position": 25,
              "duration": 0.4395833333333333
            },
            {
              "pitch": 31,
              "velocity": 60,
              "position": 25.5,
              "duration": 0.4395833333333333
            },
            {
              "pitch": 31,
              "velocity": 61,
              "position": 26,
              "duration": 0.4395833333333333
            },
            {
              "pitch": 31,
              "velocity": 60,
              "position": 26.5,
              "duration": 0.4395833333333333
            },
            {
              "pitch": 31,
              "velocity": 61,
              "position": 27,
              "duration": 0.4395833333333333
            },
            {
              "pitch": 31,
              "velocity": 60,
              "position": 27.5,
              "duration": 0.4395833333333333
            },
            {
              "pitch": 29,
              "velocity": 61,
              "position": 28,
              "duration": 0.4395833333333333
            },
            {
              "pitch": 29,
              "velocity": 60,
              "position": 28.5,
              "duration": 0.4395833333333333
            },
            {
              "pitch": 29,
              "velocity": 61,
              "position": 29,
              "duration": 0.4395833333333333
            },
            {
              "pitch": 29,
              "velocity": 60,
              "position": 29.5,
              "duration": 0.4395833333333333
            },
            {
              "pitch": 29,
              "velocity": 61,
              "position": 30,
              "duration": 0.4395833333333333
            },
            {
              "pitch": 29,
              "velocity": 60,
              "position": 30.5,
              "duration": 0.4395833333333333
            },
            {
              "pitch": 29,
              "velocity": 61,
              "position": 31,
              "duration": 0.4395833333333333
            },
            {
              "pitch": 29,
              "velocity": 60,
              "position": 31.5,
              "duration": 0.4395833333333333
            },
            {
              "pitch": 26,
              "velocity": 61,
              "position": 32,
              "duration": 0.4395833333333333
            },
            {
              "pitch": 26,
              "velocity": 60,
              "position": 32.5,
              "duration": 0.4395833333333333
            },
            {
              "pitch": 26,
              "velocity": 61,
              "position": 33,
              "duration": 0.4395833333333333
            },
            {
              "pitch": 26,
              "velocity": 60,
              "position": 33.5,
              "duration": 0.4395833333333333
            },
            {
              "pitch": 26,
              "velocity": 61,
              "position": 34,
              "duration": 0.4395833333333333
            },
            {
              "pitch": 26,
              "velocity": 60,
              "position": 34.5,
              "duration": 0.4395833333333333
            },
            {
              "pitch": 26,
              "velocity": 61,
              "position": 35,
              "duration": 0.4395833333333333
            },
            {
              "pitch": 26,
              "velocity": 60,
              "position": 35.5,
              "duration": 0.4395833333333333
            }
          ]
        },
        "11": {
          "ctab": {
            "srcChannel": 11,
            "name": "Guitar1",
            "accType": "CHORD1",
            "editable": false,
            "mutedNotes": [],
            "mutedChords": [
              "dim7",
              "dim",
              "minMaj7(9)",
              "minMaj7",
              "min7(11)",
              "min7(9)",
              "min(9)",
              "m7b5",
              "min7",
              "min6",
              "min"
            ],
            "autoStart": false,
            "sourceChordNote": 0,
            "sourceChordType": "Maj",
            "ctb2Low": null,
            "ctb2Main": {
              "ntr": "ROOT_TRANSPOSITION",
              "ntt": "BYPASS",
              "bassOn": false,
              "chordRootUpperLimit": 8,
              "noteLowLimit": 0,
              "noteHighLimit": 127,
              "rtr": "PITCH_SHIFT"
            },
            "ctb2High": {
              "ntr": "ROOT_FIXED",
              "ntt": "BYPASS",
              "bassOn": false,
              "chordRootUpperLimit": 7,
              "noteLowLimit": 0,
              "noteHighLimit": 127,
              "rtr": "PITCH_SHIFT"
            },
            "ctb2MiddleLowPitch": 0,
            "ctb2MiddleHighPitch": 95
          },
          "notes": [
            {
              "pitch": 67,
              "velocity": 45,
              "position": 1.5,
              "duration": 0.49583333333333335
            },
            {
              "pitch": 65,
              "velocity": 46,
              "position": 2,
              "duration": 0.49583333333333335
            },
            {
              "pitch": 64,
              "velocity": 98,
              "position": 2.5,
              "duration": 1.4958333333333333
            },
            {
              "pitch": 60,
              "velocity": 46,
              "position": 3.5,
              "duration": 1.4958333333333333
            },
            {
              "pitch": 67,
              "velocity": 45,
              "position": 5.5,
              "duration": 0.49583333333333335
            },
            {
              "pitch": 65,
              "velocity": 46,
              "position": 6,
              "duration": 0.49583333333333335
            },
            {
              "pitch": 60,
              "velocity": 40,
              "position": 5,
              "duration": 2.495833333333333
            },
            {
              "pitch": 64,
              "velocity": 98,
              "position": 6.5,
              "duration": 1.4958333333333333
            },
            {
              "pitch": 58,
              "velocity": 46,
              "position": 7.5,
              "duration": 1.4958333333333333
            },
            {
              "pitch": 67,
              "velocity": 45,
              "position": 9.5,
              "duration": 0.49583333333333335
            },
            {
              "pitch": 65,
              "velocity": 46,
              "position": 10,
              "duration": 0.49583333333333335
            },
            {
              "pitch": 58,
              "velocity": 40,
              "position": 9,
              "duration": 2.495833333333333
            },
            {
              "pitch": 64,
              "velocity": 98,
              "position": 10.5,
              "duration": 1.4958333333333333
            },
            {
              "pitch": 57,
              "velocity": 46,
              "position": 11.5,
              "duration": 1.4958333333333333
            },
            {
              "pitch": 67,
              "velocity": 45,
              "position": 13.5,
              "duration": 0.49583333333333335
            },
            {
              "pitch": 65,
              "velocity": 46,
              "position": 14,
              "duration": 0.49583333333333335
            },
            {
              "pitch": 57,
              "velocity": 40,
              "position": 13,
              "duration": 2.495833333333333
            },
            {
              "pitch": 64,
              "velocity": 98,
              "position": 14.5,
              "duration": 1.4958333333333333
            },
            {
              "pitch": 57,
              "velocity": 46,
              "position": 15.5,
              "duration": 1.4958333333333333
            },
            {
              "pitch": 67,
              "velocity": 45,
              "position": 17.5,
              "duration": 0.49583333333333335
            },
            {
              "pitch": 65,
              "velocity": 46,
              "position": 18,
              "duration": 0.49583333333333335
            },
            {
              "pitch": 57,
              "velocity": 40,
              "position": 17,
              "duration": 2.495833333333333
            },
            {
              "pitch": 64,
              "velocity": 98,
              "position": 18.5,
              "duration": 1.4958333333333333
            },
            {
              "pitch": 60,
              "velocity": 46,
              "position": 19.5,
              "duration": 1.4958333333333333
            },
            {
              "pitch": 67,
              "velocity": 45,
              "position": 21.5,
              "duration": 0.49583333333333335
            },
            {
              "pitch": 65,
              "velocity": 46,
              "position": 22,
              "duration": 0.49583333333333335
            },
            {
              "pitch": 60,
              "velocity": 40,
              "position": 21,
              "duration": 2.495833333333333
            },
            {
              "pitch": 64,
              "velocity": 98,
              "position": 22.5,
              "duration": 1.4958333333333333
            },
            {
              "pitch": 58,
              "velocity": 46,
              "position": 23.5,
              "duration": 1.4958333333333333
            },
            {
              "pitch": 67,
              "velocity": 45,
              "position": 25.5,
              "duration": 0.49583333333333335
            },
            {
              "pitch": 65,
              "velocity": 46,
              "position": 26,
              "duration": 0.49583333333333335
            },
            {
              "pitch": 58,
              "velocity": 40,
              "position": 25,
              "duration": 2.495833333333333
            },
            {
              "pitch": 64,
              "velocity": 98,
              "position": 26.5,
              "duration": 1.4958333333333333
            },
            {
              "pitch": 57,
              "velocity": 46,
              "position": 27.5,
              "duration": 1.4958333333333333
            },
            {
              "pitch": 67,
              "velocity": 45,
              "position": 29.5,
              "duration": 0.49583333333333335
            },
            {
              "pitch": 65,
              "velocity": 46,
              "position": 30,
              "duration": 0.49583333333333335
            },
            {
              "pitch": 57,
              "velocity": 40,
              "position": 29,
              "duration": 2.495833333333333
            },
            {
              "pitch": 64,
              "velocity": 98,
              "position": 30.5,
              "duration": 1.4958333333333333
            },
            {
              "pitch": 57,
              "velocity": 46,
              "position": 31.5,
              "duration": 1.4958333333333333
            },
            {
              "pitch": 57,
              "velocity": 40,
              "position": 33,
              "duration": 2.495833333333333
            }
          ]
        },
        "12": {
          "ctab": {
            "srcChannel": 12,
            "name": "Piano",
            "accType": "CHORD2",
            "editable": false,
            "mutedNotes": [],
            "mutedChords": [
              "dim7",
              "dim",
              "minMaj7(9)",
              "minMaj7",
              "min7(11)",
              "min7(9)",
              "min(9)",
              "m7b5",
              "min7",
              "min6",
              "min"
            ],
            "autoStart": false,
            "sourceChordNote": 0,
            "sourceChordType": "Maj",
            "ctb2Low": null,
            "ctb2Main": {
              "ntr": "ROOT_TRANSPOSITION",
              "ntt": "BYPASS",
              "bassOn": false,
              "chordRootUpperLimit": 10,
              "noteLowLimit": 0,
              "noteHighLimit": 127,
              "rtr": "PITCH_SHIFT"
            },
            "ctb2High": null,
            "ctb2MiddleLowPitch": 0,
            "ctb2MiddleHighPitch": 127
          },
          "notes": [
            {
              "pitch": 67,
              "velocity": 80,
              "position": 1.5,
              "duration": 0.9958333333333333
            },
            {
              "pitch": 79,
              "velocity": 84,
              "position": 1.5,
              "duration": 0.9958333333333333
            },
            {
              "pitch": 65,
              "velocity": 119,
              "position": 2,
              "duration": 0.9958333333333333
            },
            {
              "pitch": 77,
              "velocity": 123,
              "position": 2,
              "duration": 0.9958333333333333
            },
            {
              "pitch": 64,
              "velocity": 94,
              "position": 2.5,
              "duration": 1.4958333333333333
            },
            {
              "pitch": 76,
              "velocity": 98,
              "position": 2.5,
              "duration": 1.4958333333333333
            },
            {
              "pitch": 60,
              "velocity": 117,
              "position": 3.5,
              "duration": 1.49375
            },
            {
              "pitch": 72,
              "velocity": 95,
              "position": 3.5,
              "duration": 1.49375
            },
            {
              "pitch": 60,
              "velocity": 94,
              "position": 5,
              "duration": 1.4958333333333333
            },
            {
              "pitch": 67,
              "velocity": 80,
              "position": 5.5,
              "duration": 0.9958333333333333
            },
            {
              "pitch": 72,
              "velocity": 72,
              "position": 5,
              "duration": 1.4958333333333333
            },
            {
              "pitch": 79,
              "velocity": 84,
              "position": 5.5,
              "duration": 0.9958333333333333
            },
            {
              "pitch": 65,
              "velocity": 107,
              "position": 6,
              "duration": 0.9958333333333333
            },
            {
              "pitch": 77,
              "velocity": 111,
              "position": 6,
              "duration": 0.9958333333333333
            },
            {
              "pitch": 64,
              "velocity": 98,
              "position": 6.5,
              "duration": 1.4958333333333333
            },
            {
              "pitch": 76,
              "velocity": 102,
              "position": 6.5,
              "duration": 1.4958333333333333
            },
            {
              "pitch": 58,
              "velocity": 107,
              "position": 7.5,
              "duration": 1.49375
            },
            {
              "pitch": 70,
              "velocity": 85,
              "position": 7.5,
              "duration": 1.49375
            },
            {
              "pitch": 58,
              "velocity": 94,
              "position": 9,
              "duration": 1.4958333333333333
            },
            {
              "pitch": 67,
              "velocity": 80,
              "position": 9.5,
              "duration": 0.9958333333333333
            },
            {
              "pitch": 70,
              "velocity": 72,
              "position": 9,
              "duration": 1.4958333333333333
            },
            {
              "pitch": 79,
              "velocity": 84,
              "position": 9.5,
              "duration": 0.9958333333333333
            },
            {
              "pitch": 65,
              "velocity": 107,
              "position": 10,
              "duration": 0.9958333333333333
            },
            {
              "pitch": 77,
              "velocity": 111,
              "position": 10,
              "duration": 0.9958333333333333
            },
            {
              "pitch": 64,
              "velocity": 84,
              "position": 10.5,
              "duration": 1.4958333333333333
            },
            {
              "pitch": 76,
              "velocity": 88,
              "position": 10.5,
              "duration": 1.4958333333333333
            },
            {
              "pitch": 57,
              "velocity": 105,
              "position": 11.5,
              "duration": 1.49375
            },
            {
              "pitch": 69,
              "velocity": 83,
              "position": 11.5,
              "duration": 1.49375
            },
            {
              "pitch": 57,
              "velocity": 105,
              "position": 13,
              "duration": 1.4958333333333333
            },
            {
              "pitch": 67,
              "velocity": 80,
              "position": 13.5,
              "duration": 0.9958333333333333
            },
            {
              "pitch": 69,
              "velocity": 83,
              "position": 13,
              "duration": 1.4958333333333333
            },
            {
              "pitch": 79,
              "velocity": 84,
              "position": 13.5,
              "duration": 0.9958333333333333
            },
            {
              "pitch": 65,
              "velocity": 107,
              "position": 14,
              "duration": 0.9958333333333333
            },
            {
              "pitch": 77,
              "velocity": 111,
              "position": 14,
              "duration": 0.9958333333333333
            },
            {
              "pitch": 64,
              "velocity": 102,
              "position": 14.5,
              "duration": 1.4958333333333333
            },
            {
              "pitch": 76,
              "velocity": 106,
              "position": 14.5,
              "duration": 1.4958333333333333
            },
            {
              "pitch": 57,
              "velocity": 111,
              "position": 15.5,
              "duration": 1.49375
            },
            {
              "pitch": 69,
              "velocity": 89,
              "position": 15.5,
              "duration": 1.49375
            },
            {
              "pitch": 57,
              "velocity": 107,
              "position": 17,
              "duration": 1.4958333333333333
            },
            {
              "pitch": 67,
              "velocity": 80,
              "position": 17.5,
              "duration": 0.9958333333333333
            },
            {
              "pitch": 69,
              "velocity": 85,
              "position": 17,
              "duration": 1.4958333333333333
            },
            {
              "pitch": 79,
              "velocity": 96,
              "position": 17.5,
              "duration": 0.9958333333333333
            },
            {
              "pitch": 65,
              "velocity": 98,
              "position": 18,
              "duration": 0.9958333333333333
            },
            {
              "pitch": 77,
              "velocity": 114,
              "position": 18,
              "duration": 0.9958333333333333
            },
            {
              "pitch": 64,
              "velocity": 96,
              "position": 18.5,
              "duration": 1.4958333333333333
            },
            {
              "pitch": 76,
              "velocity": 112,
              "position": 18.5,
              "duration": 1.4958333333333333
            },
            {
              "pitch": 60,
              "velocity": 107,
              "position": 19.5,
              "duration": 1.49375
            },
            {
              "pitch": 72,
              "velocity": 123,
              "position": 19.5,
              "duration": 1.49375
            },
            {
              "pitch": 60,
              "velocity": 102,
              "position": 21,
              "duration": 1.4958333333333333
            },
            {
              "pitch": 67,
              "velocity": 80,
              "position": 21.5,
              "duration": 0.9958333333333333
            },
            {
              "pitch": 72,
              "velocity": 118,
              "position": 21,
              "duration": 1.4958333333333333
            },
            {
              "pitch": 79,
              "velocity": 96,
              "position": 21.5,
              "duration": 0.9958333333333333
            },
            {
              "pitch": 65,
              "velocity": 107,
              "position": 22,
              "duration": 0.9958333333333333
            },
            {
              "pitch": 77,
              "velocity": 123,
              "position": 22,
              "duration": 0.9958333333333333
            },
            {
              "pitch": 64,
              "velocity": 94,
              "position": 22.5,
              "duration": 1.4958333333333333
            },
            {
              "pitch": 76,
              "velocity": 110,
              "position": 22.5,
              "duration": 1.4958333333333333
            },
            {
              "pitch": 58,
              "velocity": 102,
              "position": 23.5,
              "duration": 1.49375
            },
            {
              "pitch": 70,
              "velocity": 118,
              "position": 23.5,
              "duration": 1.49375
            },
            {
              "pitch": 58,
              "velocity": 107,
              "position": 25,
              "duration": 1.4958333333333333
            },
            {
              "pitch": 67,
              "velocity": 102,
              "position": 25.5,
              "duration": 0.9958333333333333
            },
            {
              "pitch": 70,
              "velocity": 123,
              "position": 25,
              "duration": 1.4958333333333333
            },
            {
              "pitch": 79,
              "velocity": 118,
              "position": 25.5,
              "duration": 0.9958333333333333
            },
            {
              "pitch": 65,
              "velocity": 96,
              "position": 26,
              "duration": 0.9958333333333333
            },
            {
              "pitch": 77,
              "velocity": 112,
              "position": 26,
              "duration": 0.9958333333333333
            },
            {
              "pitch": 64,
              "velocity": 107,
              "position": 26.5,
              "duration": 1.4958333333333333
            },
            {
              "pitch": 76,
              "velocity": 123,
              "position": 26.5,
              "duration": 1.4958333333333333
            },
            {
              "pitch": 57,
              "velocity": 107,
              "position": 27.5,
              "duration": 1.49375
            },
            {
              "pitch": 69,
              "velocity": 123,
              "position": 27.5,
              "duration": 1.49375
            },
            {
              "pitch": 57,
              "velocity": 96,
              "position": 29,
              "duration": 1.4958333333333333
            },
            {
              "pitch": 67,
              "velocity": 80,
              "position": 29.5,
              "duration": 0.9958333333333333
            },
            {
              "pitch": 69,
              "velocity": 112,
              "position": 29,
              "duration": 1.4958333333333333
            },
            {
              "pitch": 79,
              "velocity": 96,
              "position": 29.5,
              "duration": 0.9958333333333333
            },
            {
              "pitch": 65,
              "velocity": 98,
              "position": 30,
              "duration": 0.9958333333333333
            },
            {
              "pitch": 77,
              "velocity": 114,
              "position": 30,
              "duration": 0.9958333333333333
            },
            {
              "pitch": 64,
              "velocity": 94,
              "position": 30.5,
              "duration": 1.4958333333333333
            },
            {
              "pitch": 76,
              "velocity": 110,
              "position": 30.5,
              "duration": 1.4958333333333333
            },
            {
              "pitch": 57,
              "velocity": 107,
              "position": 31.5,
              "duration": 4.495833333333334
            },
            {
              "pitch": 69,
              "velocity": 123,
              "position": 31.5,
              "duration": 4.495833333333334
            }
          ]
        },
        "13": {
          "ctab": {
            "srcChannel": 13,
            "name": "Strings",
            "accType": "PAD",
            "editable": false,
            "mutedNotes": [],
            "mutedChords": [
              "dim7",
              "dim",
              "minMaj7(9)",
              "minMaj7",
              "min7(11)",
              "min7(9)",
              "min(9)",
              "m7b5",
              "min7",
              "min6",
              "min"
            ],
            "autoStart": false,
            "sourceChordNote": 0,
            "sourceChordType": "Maj",
            "ctb2Low": null,
            "ctb2Main": {
              "ntr": "ROOT_TRANSPOSITION",
              "ntt": "BYPASS",
              "bassOn": false,
              "chordRootUpperLimit": 5,
              "noteLowLimit": 57,
              "noteHighLimit": 68,
              "rtr": "PITCH_SHIFT"
            },
            "ctb2High": null,
            "ctb2MiddleLowPitch": 0,
            "ctb2MiddleHighPitch": 127
          },
          "notes": [
            {
              "pitch": 60,
              "velocity": 50,
              "position": 0.010416666666666666,
              "duration": 3.9854166666666666
            },
            {
              "pitch": 62,
              "velocity": 50,
              "position": 0.010416666666666666,
              "duration": 3.9854166666666666
            },
            {
              "pitch": 67,
              "velocity": 50,
              "position": 0.010416666666666666,
              "duration": 3.9854166666666666
            },
            {
              "pitch": 60,
              "velocity": 50,
              "position": 4,
              "duration": 3.995833333333333
            },
            {
              "pitch": 64,
              "velocity": 50,
              "position": 4,
              "duration": 3.995833333333333
            },
            {
              "pitch": 67,
              "velocity": 50,
              "position": 4,
              "duration": 3.995833333333333
            },
            {
              "pitch": 58,
              "velocity": 50,
              "position": 8,
              "duration": 3.995833333333333
            },
            {
              "pitch": 65,
              "velocity": 50,
              "position": 8,
              "duration": 3.995833333333333
            },
            {
              "pitch": 67,
              "velocity": 50,
              "position": 8,
              "duration": 3.995833333333333
            },
            {
              "pitch": 60,
              "velocity": 50,
              "position": 12,
              "duration": 3.995833333333333
            },
            {
              "pitch": 57,
              "velocity": 50,
              "position": 12,
              "duration": 7.995833333333334
            },
            {
              "pitch": 62,
              "velocity": 50,
              "position": 16,
              "duration": 3.995833333333333
            },
            {
              "pitch": 65,
              "velocity": 50,
              "position": 12,
              "duration": 7.995833333333334
            },
            {
              "pitch": 60,
              "velocity": 50,
              "position": 20,
              "duration": 3.995833333333333
            },
            {
              "pitch": 64,
              "velocity": 50,
              "position": 20,
              "duration": 3.995833333333333
            },
            {
              "pitch": 67,
              "velocity": 50,
              "position": 20,
              "duration": 3.995833333333333
            },
            {
              "pitch": 58,
              "velocity": 50,
              "position": 24,
              "duration": 3.995833333333333
            },
            {
              "pitch": 65,
              "velocity": 50,
              "position": 24,
              "duration": 3.995833333333333
            },
            {
              "pitch": 67,
              "velocity": 50,
              "position": 24,
              "duration": 3.995833333333333
            },
            {
              "pitch": 60,
              "velocity": 50,
              "position": 28,
              "duration": 3.995833333333333
            },
            {
              "pitch": 57,
              "velocity": 50,
              "position": 28,
              "duration": 7.995833333333334
            },
            {
              "pitch": 62,
              "velocity": 50,
              "position": 32,
              "duration": 3.995833333333333
            },
            {
              "pitch": 65,
              "velocity": 50,
              "position": 28,
              "duration": 7.995833333333334
            }
          ]
        },
        "14": {
          "ctab": {
            "srcChannel": 14,
            "name": "Organ",
            "accType": "PHRASE1",
            "editable": false,
            "mutedNotes": [],
            "mutedChords": [
              "dim7",
              "dim",
              "minMaj7(9)",
              "minMaj7",
              "min7(11)",
              "min7(9)",
              "min(9)",
              "m7b5",
              "min7",
              "min6",
              "min"
            ],
            "autoStart": false,
            "sourceChordNote": 0,
            "sourceChordType": "Maj",
            "ctb2Low": null,
            "ctb2Main": {
              "ntr": "ROOT_TRANSPOSITION",
              "ntt": "BYPASS",
              "bassOn": false,
              "chordRootUpperLimit": 4,
              "noteLowLimit": 57,
              "noteHighLimit": 68,
              "rtr": "PITCH_SHIFT"
            },
            "ctb2High": null,
            "ctb2MiddleLowPitch": 0,
            "ctb2MiddleHighPitch": 127
          },
          "notes": [
            {
              "pitch": 60,
              "velocity": 88,
              "position": 4,
              "duration": 3.995833333333333
            },
            {
              "pitch": 64,
              "velocity": 88,
              "position": 4,
              "duration": 3.995833333333333
            },
            {
              "pitch": 67,
              "velocity": 88,
              "position": 4,
              "duration": 3.995833333333333
            },
            {
              "pitch": 58,
              "velocity": 88,
              "position": 8,
              "duration": 3.995833333333333
            },
            {
              "pitch": 65,
              "velocity": 88,
              "position": 8,
              "duration": 3.995833333333333
            },
            {
              "pitch": 67,
              "velocity": 88,
              "position": 8,
              "duration": 3.995833333333333
            },
            {
              "pitch": 60,
              "velocity": 88,
              "position": 12,
              "duration": 3.995833333333333
            },
            {
              "pitch": 57,
              "velocity": 88,
              "position": 12,
              "duration": 7.995833333333334
            },
            {
              "pitch": 62,
              "velocity": 88,
              "position": 16,
              "duration": 3.995833333333333
            },
            {
              "pitch": 65,
              "velocity": 88,
              "position": 12,
              "duration": 7.995833333333334
            },
            {
              "pitch": 60,
              "velocity": 88,
              "position": 20,
              "duration": 3.995833333333333
            },
            {
              "pitch": 64,
              "velocity": 88,
              "position": 20,
              "duration": 3.995833333333333
            },
            {
              "pitch": 67,
              "velocity": 88,
              "position": 20,
              "duration": 3.995833333333333
            },
            {
              "pitch": 58,
              "velocity": 88,
              "position": 24,
              "duration": 3.995833333333333
            },
            {
              "pitch": 65,
              "velocity": 88,
              "position": 24,
              "duration": 3.995833333333333
            },
            {
              "pitch": 67,
              "velocity": 88,
              "position": 24,
              "duration": 3.995833333333333
            },
            {
              "pitch": 60,
              "velocity": 88,
              "position": 28,
              "duration": 3.995833333333333
            },
            {
              "pitch": 57,
              "velocity": 88,
              "position": 28,
              "duration": 7.995833333333334
            },
            {
              "pitch": 62,
              "velocity": 88,
              "position": 32,
              "duration": 3.995833333333333
            },
            {
              "pitch": 65,
              "velocity": 88,
              "position": 28,
              "duration": 7.995833333333334
            }
          ]
        },
        "15": {
          "ctab": {
            "srcChannel": 15,
            "name": "Guitar2",
            "accType": "PHRASE2",
            "editable": false,
            "mutedNotes": [],
            "mutedChords": [
              "dim7",
              "dim",
              "minMaj7(9)",
              "minMaj7",
              "min7(11)",
              "min7(9)",
              "min(9)",
              "m7b5",
              "min7",
              "min6",
              "min"
            ],
            "autoStart": false,
            "sourceChordNote": 0,
            "sourceChordType": "Maj",
            "ctb2Low": null,
            "ctb2Main": {
              "ntr": "ROOT_TRANSPOSITION",
              "ntt": "BYPASS",
              "bassOn": false,
              "chordRootUpperLimit": 3,
              "noteLowLimit": 48,
              "noteHighLimit": 59,
              "rtr": "PITCH_SHIFT"
            },
            "ctb2High": {
              "ntr": "ROOT_FIXED",
              "ntt": "BYPASS",
              "bassOn": false,
              "chordRootUpperLimit": 7,
              "noteLowLimit": 0,
              "noteHighLimit": 127,
              "rtr": "PITCH_SHIFT"
            },
            "ctb2MiddleLowPitch": 0,
            "ctb2MiddleHighPitch": 95
          },
          "notes": [
            {
              "pitch": 48,
              "velocity": 83,
              "position": 4,
              "duration": 0.4708333333333333
            },
            {
              "pitch": 55,
              "velocity": 83,
              "position": 4,
              "duration": 0.4708333333333333
            },
            {
              "pitch": 48,
              "velocity": 79,
              "position": 4.489583333333333,
              "duration": 0.4083333333333333
            },
            {
              "pitch": 55,
              "velocity": 79,
              "position": 4.489583333333333,
              "duration": 0.4083333333333333
            },
            {
              "pitch": 48,
              "velocity": 79,
              "position": 4.989583333333333,
              "duration": 0.4083333333333333
            },
            {
              "pitch": 55,
              "velocity": 79,
              "position": 4.989583333333333,
              "duration": 0.4083333333333333
            },
            {
              "pitch": 48,
              "velocity": 83,
              "position": 5.489583333333333,
              "duration": 0.4083333333333333
            },
            {
              "pitch": 55,
              "velocity": 83,
              "position": 5.489583333333333,
              "duration": 0.4083333333333333
            },
            {
              "pitch": 48,
              "velocity": 79,
              "position": 5.989583333333333,
              "duration": 0.4083333333333333
            },
            {
              "pitch": 55,
              "velocity": 79,
              "position": 5.989583333333333,
              "duration": 0.4083333333333333
            },
            {
              "pitch": 48,
              "velocity": 79,
              "position": 6.489583333333333,
              "duration": 0.4083333333333333
            },
            {
              "pitch": 55,
              "velocity": 79,
              "position": 6.489583333333333,
              "duration": 0.4083333333333333
            },
            {
              "pitch": 48,
              "velocity": 84,
              "position": 6.989583333333333,
              "duration": 0.4083333333333333
            },
            {
              "pitch": 55,
              "velocity": 84,
              "position": 6.989583333333333,
              "duration": 0.4083333333333333
            },
            {
              "pitch": 48,
              "velocity": 79,
              "position": 7.489583333333333,
              "duration": 0.4083333333333333
            },
            {
              "pitch": 55,
              "velocity": 79,
              "position": 7.489583333333333,
              "duration": 0.4083333333333333
            },
            {
              "pitch": 50,
              "velocity": 83,
              "position": 8,
              "duration": 0.4708333333333333
            },
            {
              "pitch": 55,
              "velocity": 83,
              "position": 8,
              "duration": 0.4708333333333333
            },
            {
              "pitch": 50,
              "velocity": 79,
              "position": 8.489583333333334,
              "duration": 0.4083333333333333
            },
            {
              "pitch": 55,
              "velocity": 79,
              "position": 8.489583333333334,
              "duration": 0.4083333333333333
            },
            {
              "pitch": 50,
              "velocity": 79,
              "position": 8.989583333333334,
              "duration": 0.4083333333333333
            },
            {
              "pitch": 55,
              "velocity": 79,
              "position": 8.989583333333334,
              "duration": 0.4083333333333333
            },
            {
              "pitch": 50,
              "velocity": 83,
              "position": 9.489583333333334,
              "duration": 0.4083333333333333
            },
            {
              "pitch": 55,
              "velocity": 83,
              "position": 9.489583333333334,
              "duration": 0.4083333333333333
            },
            {
              "pitch": 50,
              "velocity": 79,
              "position": 9.989583333333334,
              "duration": 0.4083333333333333
            },
            {
              "pitch": 55,
              "velocity": 79,
              "position": 9.989583333333334,
              "duration": 0.4083333333333333
            },
            {
              "pitch": 50,
              "velocity": 79,
              "position": 10.489583333333334,
              "duration": 0.4083333333333333
            },
            {
              "pitch": 55,
              "velocity": 79,
              "position": 10.489583333333334,
              "duration": 0.4083333333333333
            },
            {
              "pitch": 50,
              "velocity": 84,
              "position": 10.989583333333334,
              "duration": 0.4083333333333333
            },
            {
              "pitch": 55,
              "velocity": 84,
              "position": 10.989583333333334,
              "duration": 0.4083333333333333
            },
            {
              "pitch": 50,
              "velocity": 79,
              "position": 11.489583333333334,
              "duration": 0.4083333333333333
            },
            {
              "pitch": 55,
              "velocity": 79,
              "position": 11.489583333333334,
              "duration": 0.4083333333333333
            },
            {
              "pitch": 48,
              "velocity": 83,
              "position": 12,
              "duration": 0.4708333333333333
            },
            {
              "pitch": 53,
              "velocity": 83,
              "position": 12,
              "duration": 0.4708333333333333
            },
            {
              "pitch": 48,
              "velocity": 79,
              "position": 12.489583333333334,
              "duration": 0.4083333333333333
            },
            {
              "pitch": 53,
              "velocity": 79,
              "position": 12.489583333333334,
              "duration": 0.4083333333333333
            },
            {
              "pitch": 48,
              "velocity": 79,
              "position": 12.989583333333334,
              "duration": 0.4083333333333333
            },
            {
              "pitch": 53,
              "velocity": 79,
              "position": 12.989583333333334,
              "duration": 0.4083333333333333
            },
            {
              "pitch": 48,
              "velocity": 83,
              "position": 13.489583333333334,
              "duration": 0.4083333333333333
            },
            {
              "pitch": 53,
              "velocity": 83,
              "position": 13.489583333333334,
              "duration": 0.4083333333333333
            },
            {
              "pitch": 48,
              "velocity": 79,
              "position": 13.989583333333334,
              "duration": 0.4083333333333333
            },
            {
              "pitch": 53,
              "velocity": 79,
              "position": 13.989583333333334,
              "duration": 0.4083333333333333
            },
            {
              "pitch": 48,
              "velocity": 79,
              "position": 14.489583333333334,
              "duration": 0.4083333333333333
            },
            {
              "pitch": 53,
              "velocity": 79,
              "position": 14.489583333333334,
              "duration": 0.4083333333333333
            },
            {
              "pitch": 48,
              "velocity": 84,
              "position": 14.989583333333334,
              "duration": 0.4083333333333333
            },
            {
              "pitch": 53,
              "velocity": 84,
              "position": 14.989583333333334,
              "duration": 0.4083333333333333
            },
            {
              "pitch": 48,
              "velocity": 79,
              "position": 15.489583333333334,
              "duration": 0.4083333333333333
            },
            {
              "pitch": 53,
              "velocity": 79,
              "position": 15.489583333333334,
              "duration": 0.4083333333333333
            },
            {
              "pitch": 50,
              "velocity": 83,
              "position": 16,
              "duration": 0.4708333333333333
            },
            {
              "pitch": 53,
              "velocity": 83,
              "position": 16,
              "duration": 0.4708333333333333
            },
            {
              "pitch": 50,
              "velocity": 79,
              "position": 16.489583333333332,
              "duration": 0.4083333333333333
            },
            {
              "pitch": 53,
              "velocity": 79,
              "position": 16.489583333333332,
              "duration": 0.4083333333333333
            },
            {
              "pitch": 50,
              "velocity": 79,
              "position": 16.989583333333332,
              "duration": 0.4083333333333333
            },
            {
              "pitch": 53,
              "velocity": 79,
              "position": 16.989583333333332,
              "duration": 0.4083333333333333
            },
            {
              "pitch": 50,
              "velocity": 83,
              "position": 17.489583333333332,
              "duration": 0.4083333333333333
            },
            {
              "pitch": 53,
              "velocity": 83,
              "position": 17.489583333333332,
              "duration": 0.4083333333333333
            },
            {
              "pitch": 50,
              "velocity": 79,
              "position": 17.989583333333332,
              "duration": 0.4083333333333333
            },
            {
              "pitch": 53,
              "velocity": 79,
              "position": 17.989583333333332,
              "duration": 0.4083333333333333
            },
            {
              "pitch": 50,
              "velocity": 79,
              "position": 18.489583333333332,
              "duration": 0.4083333333333333
            },
            {
              "pitch": 53,
              "velocity": 79,
              "position": 18.489583333333332,
              "duration": 0.4083333333333333
            },
            {
              "pitch": 50,
              "velocity": 84,
              "position": 18.989583333333332,
              "duration": 0.4083333333333333
            },
            {
              "pitch": 53,
              "velocity": 84,
              "position": 18.989583333333332,
              "duration": 0.4083333333333333
            },
            {
              "pitch": 50,
              "velocity": 79,
              "position": 19.489583333333332,
              "duration": 0.4083333333333333
            },
            {
              "pitch": 53,
              "velocity": 79,
              "position": 19.489583333333332,
              "duration": 0.4083333333333333
            },
            {
              "pitch": 48,
              "velocity": 83,
              "position": 20,
              "duration": 0.4708333333333333
            },
            {
              "pitch": 55,
              "velocity": 83,
              "position": 20,
              "duration": 0.4708333333333333
            },
            {
              "pitch": 48,
              "velocity": 79,
              "position": 20.489583333333332,
              "duration": 0.4083333333333333
            },
            {
              "pitch": 55,
              "velocity": 79,
              "position": 20.489583333333332,
              "duration": 0.4083333333333333
            },
            {
              "pitch": 48,
              "velocity": 79,
              "position": 20.989583333333332,
              "duration": 0.4083333333333333
            },
            {
              "pitch": 55,
              "velocity": 79,
              "position": 20.989583333333332,
              "duration": 0.4083333333333333
            },
            {
              "pitch": 48,
              "velocity": 83,
              "position": 21.489583333333332,
              "duration": 0.4083333333333333
            },
            {
              "pitch": 55,
              "velocity": 83,
              "position": 21.489583333333332,
              "duration": 0.4083333333333333
            },
            {
              "pitch": 48,
              "velocity": 79,
              "position": 21.989583333333332,
              "duration": 0.4083333333333333
            },
            {
              "pitch": 55,
              "velocity": 79,
              "position": 21.989583333333332,
              "duration": 0.4083333333333333
            },
            {
              "pitch": 48,
              "velocity": 79,
              "position": 22.489583333333332,
              "duration": 0.4083333333333333
            },
            {
              "pitch": 55,
              "velocity": 79,
              "position": 22.489583333333332,
              "duration": 0.4083333333333333
            },
            {
              "pitch": 48,
              "velocity": 84,
              "position": 22.989583333333332,
              "duration": 0.4083333333333333
            },
            {
              "pitch": 55,
              "velocity": 84,
              "position": 22.989583333333332,
              "duration": 0.4083333333333333
            },
            {
              "pitch": 48,
              "velocity": 79,
              "position": 23.489583333333332,
              "duration": 0.4083333333333333
            },
            {
              "pitch": 55,
              "velocity": 79,
              "position": 23.489583333333332,
              "duration": 0.4083333333333333
            },
            {
              "pitch": 50,
              "velocity": 83,
              "position": 24,
              "duration": 0.4708333333333333
            },
            {
              "pitch": 55,
              "velocity": 83,
              "position": 24,
              "duration": 0.4708333333333333
            },
            {
              "pitch": 50,
              "velocity": 79,
              "position": 24.489583333333332,
              "duration": 0.4083333333333333
            },
            {
              "pitch": 55,
              "velocity": 79,
              "position": 24.489583333333332,
              "duration": 0.4083333333333333
            },
            {
              "pitch": 50,
              "velocity": 79,
              "position": 24.989583333333332,
              "duration": 0.4083333333333333
            },
            {
              "pitch": 55,
              "velocity": 79,
              "position": 24.989583333333332,
              "duration": 0.4083333333333333
            },
            {
              "pitch": 50,
              "velocity": 83,
              "position": 25.489583333333332,
              "duration": 0.4083333333333333
            },
            {
              "pitch": 55,
              "velocity": 83,
              "position": 25.489583333333332,
              "duration": 0.4083333333333333
            },
            {
              "pitch": 50,
              "velocity": 79,
              "position": 25.989583333333332,
              "duration": 0.4083333333333333
            },
            {
              "pitch": 55,
              "velocity": 79,
              "position": 25.989583333333332,
              "duration": 0.4083333333333333
            },
            {
              "pitch": 50,
              "velocity": 79,
              "position": 26.489583333333332,
              "duration": 0.4083333333333333
            },
            {
              "pitch": 55,
              "velocity": 79,
              "position": 26.489583333333332,
              "duration": 0.4083333333333333
            },
            {
              "pitch": 50,
              "velocity": 84,
              "position": 26.989583333333332,
              "duration": 0.4083333333333333
            },
            {
              "pitch": 55,
              "velocity": 84,
              "position": 26.989583333333332,
              "duration": 0.4083333333333333
            },
            {
              "pitch": 50,
              "velocity": 79,
              "position": 27.489583333333332,
              "duration": 0.4083333333333333
            },
            {
              "pitch": 55,
              "velocity": 79,
              "position": 27.489583333333332,
              "duration": 0.4083333333333333
            },
            {
              "pitch": 48,
              "velocity": 83,
              "position": 28,
              "duration": 0.4708333333333333
            },
            {
              "pitch": 53,
              "velocity": 83,
              "position": 28,
              "duration": 0.4708333333333333
            },
            {
              "pitch": 48,
              "velocity": 79,
              "position": 28.489583333333332,
              "duration": 0.4083333333333333
            },
            {
              "pitch": 53,
              "velocity": 79,
              "position": 28.489583333333332,
              "duration": 0.4083333333333333
            },
            {
              "pitch": 48,
              "velocity": 79,
              "position": 28.989583333333332,
              "duration": 0.4083333333333333
            },
            {
              "pitch": 53,
              "velocity": 79,
              "position": 28.989583333333332,
              "duration": 0.4083333333333333
            },
            {
              "pitch": 48,
              "velocity": 83,
              "position": 29.489583333333332,
              "duration": 0.4083333333333333
            },
            {
              "pitch": 53,
              "velocity": 83,
              "position": 29.489583333333332,
              "duration": 0.4083333333333333
            },
            {
              "pitch": 48,
              "velocity": 79,
              "position": 29.989583333333332,
              "duration": 0.4083333333333333
            },
            {
              "pitch": 53,
              "velocity": 79,
              "position": 29.989583333333332,
              "duration": 0.4083333333333333
            },
            {
              "pitch": 48,
              "velocity": 79,
              "position": 30.489583333333332,
              "duration": 0.4083333333333333
            },
            {
              "pitch": 53,
              "velocity": 79,
              "position": 30.489583333333332,
              "duration": 0.4083333333333333
            },
            {
              "pitch": 48,
              "velocity": 84,
              "position": 30.989583333333332,
              "duration": 0.4083333333333333
            },
            {
              "pitch": 53,
              "velocity": 84,
              "position": 30.989583333333332,
              "duration": 0.4083333333333333
            },
            {
              "pitch": 48,
              "velocity": 79,
              "position": 31.489583333333332,
              "duration": 0.4083333333333333
            },
            {
              "pitch": 53,
              "velocity": 79,
              "position": 31.489583333333332,
              "duration": 0.4083333333333333
            },
            {
              "pitch": 50,
              "velocity": 83,
              "position": 32,
              "duration": 0.4708333333333333
            },
            {
              "pitch": 53,
              "velocity": 83,
              "position": 32,
              "duration": 0.4708333333333333
            },
            {
              "pitch": 50,
              "velocity": 79,
              "position": 32.489583333333336,
              "duration": 0.4083333333333333
            },
            {
              "pitch": 53,
              "velocity": 79,
              "position": 32.489583333333336,
              "duration": 0.4083333333333333
            },
            {
              "pitch": 50,
              "velocity": 79,
              "position": 32.989583333333336,
              "duration": 0.4083333333333333
            },
            {
              "pitch": 53,
              "velocity": 79,
              "position": 32.989583333333336,
              "duration": 0.4083333333333333
            },
            {
              "pitch": 50,
              "velocity": 83,
              "position": 33.489583333333336,
              "duration": 0.4083333333333333
            },
            {
              "pitch": 53,
              "velocity": 83,
              "position": 33.489583333333336,
              "duration": 0.4083333333333333
            },
            {
              "pitch": 50,
              "velocity": 79,
              "position": 33.989583333333336,
              "duration": 0.4083333333333333
            },
            {
              "pitch": 53,
              "velocity": 79,
              "position": 33.989583333333336,
              "duration": 0.4083333333333333
            },
            {
              "pitch": 50,
              "velocity": 79,
              "position": 34.489583333333336,
              "duration": 0.4083333333333333
            },
            {
              "pitch": 53,
              "velocity": 79,
              "position": 34.489583333333336,
              "duration": 0.4083333333333333
            },
            {
              "pitch": 50,
              "velocity": 84,
              "position": 34.989583333333336,
              "duration": 0.4083333333333333
            },
            {
              "pitch": 53,
              "velocity": 84,
              "position": 34.989583333333336,
              "duration": 0.4083333333333333
            },
            {
              "pitch": 50,
              "velocity": 79,
              "position": 35.489583333333336,
              "duration": 0.4083333333333333
            },
            {
              "pitch": 53,
              "velocity": 79,
              "position": 35.489583333333336,
              "duration": 0.4083333333333333
            }
          ]
        }
      }
    },
    "Ending_C": {
      "type": "Ending_C",
      "sizeInBeats": 36,
      "channels": {
        "2": {
          "ctab": {
            "srcChannel": 2,
            "name": "Bass",
            "accType": "BASS",
            "editable": false,
            "mutedNotes": [],
            "mutedChords": [
              "1+2+5",
              "sus4",
              "1+5",
              "1+8",
              "7aug",
              "Maj7aug",
              "7(#9)",
              "7(b13)",
              "7(b9)",
              "7(13)",
              "7#11",
              "7(9)",
              "7b5",
              "7sus4",
              "7th",
              "aug",
              "Maj6(9)",
              "Maj7(9)",
              "Maj(9)",
              "Maj7#11",
              "Maj7",
              "Maj6",
              "Maj"
            ],
            "autoStart": false,
            "sourceChordNote": 0,
            "sourceChordType": "min",
            "ctb2Low": null,
            "ctb2Main": {
              "ntr": "ROOT_TRANSPOSITION",
              "ntt": "BYPASS",
              "bassOn": false,
              "chordRootUpperLimit": 3,
              "noteLowLimit": 28,
              "noteHighLimit": 95,
              "rtr": "PITCH_SHIFT"
            },
            "ctb2High": {
              "ntr": "ROOT_FIXED",
              "ntt": "BYPASS",
              "bassOn": false,
              "chordRootUpperLimit": 3,
              "noteLowLimit": 0,
              "noteHighLimit": 127,
              "rtr": "PITCH_SHIFT"
            },
            "ctb2MiddleLowPitch": 0,
            "ctb2MiddleHighPitch": 95
          },
          "notes": [
            {
              "pitch": 24,
              "velocity": 61,
              "position": 0,
              "duration": 0.4395833333333333
            },
            {
              "pitch": 24,
              "velocity": 60,
              "position": 0.5,
              "duration": 0.4395833333333333
            },
            {
              "pitch": 24,
              "velocity": 61,
              "position": 1,
              "duration": 0.4395833333333333
            },
            {
              "pitch": 24,
              "velocity": 60,
              "position": 1.5,
              "duration": 0.4395833333333333
            },
            {
              "pitch": 24,
              "velocity": 61,
              "position": 2,
              "duration": 0.4395833333333333
            },
            {
              "pitch": 24,
              "velocity": 60,
              "position": 2.5,
              "duration": 0.4395833333333333
            },
            {
              "pitch": 24,
              "velocity": 61,
              "position": 3,
              "duration": 0.4395833333333333
            },
            {
              "pitch": 24,
              "velocity": 60,
              "position": 3.5,
              "duration": 0.4395833333333333
            },
            {
              "pitch": 31,
              "velocity": 61,
              "position": 4,
              "duration": 0.4395833333333333
            },
            {
              "pitch": 31,
              "velocity": 60,
              "position": 4.5,
              "duration": 0.4395833333333333
            },
            {
              "pitch": 31,
              "velocity": 61,
              "position": 5,
              "duration": 0.4395833333333333
            },
            {
              "pitch": 31,
              "velocity": 60,
              "position": 5.5,
              "duration": 0.4395833333333333
            },
            {
              "pitch": 31,
              "velocity": 61,
              "position": 6,
              "duration": 0.4395833333333333
            },
            {
              "pitch": 31,
              "velocity": 60,
              "position": 6.5,
              "duration": 0.4395833333333333
            },
            {
              "pitch": 31,
              "velocity": 61,
              "position": 7,
              "duration": 0.4395833333333333
            },
            {
              "pitch": 31,
              "velocity": 60,
              "position": 7.5,
              "duration": 0.4395833333333333
            },
            {
              "pitch": 34,
              "velocity": 61,
              "position": 8,
              "duration": 0.4395833333333333
            },
            {
              "pitch": 34,
              "velocity": 60,
              "position": 8.5,
              "duration": 0.4395833333333333
            },
            {
              "pitch": 34,
              "velocity": 61,
              "position": 9,
              "duration": 0.4395833333333333
            },
            {
              "pitch": 34,
              "velocity": 60,
              "position": 9.5,
              "duration": 0.4395833333333333
            },
            {
              "pitch": 34,
              "velocity": 61,
              "position": 10,
              "duration": 0.4395833333333333
            },
            {
              "pitch": 34,
              "velocity": 60,
              "position": 10.5,
              "duration": 0.4395833333333333
            },
            {
              "pitch": 34,
              "velocity": 61,
              "position": 11,
              "duration": 0.4395833333333333
            },
            {
              "pitch": 34,
              "velocity": 60,
              "position": 11.5,
              "duration": 0.4395833333333333
            },
            {
              "pitch": 29,
              "velocity": 61,
              "position": 12,
              "duration": 0.4395833333333333
            },
            {
              "pitch": 29,
              "velocity": 60,
              "position": 12.5,
              "duration": 0.4395833333333333
            },
            {
              "pitch": 29,
              "velocity": 61,
              "position": 13,
              "duration": 0.4395833333333333
            },
            {
              "pitch": 29,
              "velocity": 60,
              "position": 13.5,
              "duration": 0.4395833333333333
            },
            {
              "pitch": 29,
              "velocity": 61,
              "position": 14,
              "duration": 0.4395833333333333
            },
            {
              "pitch": 29,
              "velocity": 60,
              "position": 14.5,
              "duration": 0.4395833333333333
            },
            {
              "pitch": 29,
              "velocity": 61,
              "position": 15,
              "duration": 0.4395833333333333
            },
            {
              "pitch": 29,
              "velocity": 60,
              "position": 15.5,
              "duration": 0.4395833333333333
            },
            {
              "pitch": 24,
              "velocity": 61,
              "position": 16,
              "duration": 0.4395833333333333
            },
            {
              "pitch": 24,
              "velocity": 60,
              "position": 16.5,
              "duration": 0.4395833333333333
            },
            {
              "pitch": 24,
              "velocity": 61,
              "position": 17,
              "duration": 0.4395833333333333
            },
            {
              "pitch": 24,
              "velocity": 60,
              "position": 17.5,
              "duration": 0.4395833333333333
            },
            {
              "pitch": 24,
              "velocity": 61,
              "position": 18,
              "duration": 0.4395833333333333
            },
            {
              "pitch": 24,
              "velocity": 60,
              "position": 18.5,
              "duration": 0.4395833333333333
            },
            {
              "pitch": 24,
              "velocity": 61,
              "position": 19,
              "duration": 0.4395833333333333
            },
            {
              "pitch": 24,
              "velocity": 60,
              "position": 19.5,
              "duration": 0.4395833333333333
            },
            {
              "pitch": 31,
              "velocity": 61,
              "position": 20,
              "duration": 0.4395833333333333
            },
            {
              "pitch": 31,
              "velocity": 60,
              "position": 20.5,
              "duration": 0.4395833333333333
            },
            {
              "pitch": 31,
              "velocity": 61,
              "position": 21,
              "duration": 0.4395833333333333
            },
            {
              "pitch": 31,
              "velocity": 60,
              "position": 21.5,
              "duration": 0.4395833333333333
            },
            {
              "pitch": 31,
              "velocity": 61,
              "position": 22,
              "duration": 0.4395833333333333
            },
            {
              "pitch": 31,
              "velocity": 60,
              "position": 22.5,
              "duration": 0.4395833333333333
            },
            {
              "pitch": 31,
              "velocity": 61,
              "position": 23,
              "duration": 0.4395833333333333
            },
            {
              "pitch": 31,
              "velocity": 60,
              "position": 23.5,
              "duration": 0.4395833333333333
            },
            {
              "pitch": 29,
              "velocity": 61,
              "position": 24,
              "duration": 10.995833333333334
            }
          ]
        },
        "3": {
          "ctab": {
            "srcChannel": 3,
            "name": "Guitar1",
            "accType": "CHORD1",
            "editable": false,
            "mutedNotes": [],
            "mutedChords": [
              "1+2+5",
              "sus4",
              "1+5",
              "1+8",
              "7aug",
              "Maj7aug",
              "7(#9)",
              "7(b13)",
              "7(b9)",
              "7(13)",
              "7#11",
              "7(9)",
              "7b5",
              "7sus4",
              "7th",
              "aug",
              "Maj6(9)",
              "Maj7(9)",
              "Maj(9)",
              "Maj7#11",
              "Maj7",
              "Maj6",
              "Maj"
            ],
            "autoStart": false,
            "sourceChordNote": 0,
            "sourceChordType": "min",
            "ctb2Low": null,
            "ctb2Main": {
              "ntr": "ROOT_TRANSPOSITION",
              "ntt": "BYPASS",
              "bassOn": false,
              "chordRootUpperLimit": 8,
              "noteLowLimit": 40,
              "noteHighLimit": 95,
              "rtr": "PITCH_SHIFT"
            },
            "ctb2High": {
              "ntr": "ROOT_FIXED",
              "ntt": "BYPASS",
              "bassOn": false,
              "chordRootUpperLimit": 7,
              "noteLowLimit": 0,
              "noteHighLimit": 127,
              "rtr": "PITCH_SHIFT"
            },
            "ctb2MiddleLowPitch": 0,
            "ctb2MiddleHighPitch": 95
          },
          "notes": [
            {
              "pitch": 60,
              "velocity": 45,
              "position": 0,
              "duration": 0.99375
            },
            {
              "pitch": 67,
              "velocity": 45,
              "position": 1.5,
              "duration": 0.49583333333333335
            },
            {
              "pitch": 65,
              "velocity": 46,
              "position": 2,
              "duration": 0.49583333333333335
            },
            {
              "pitch": 60,
              "velocity": 40,
              "position": 1,
              "duration": 2.495833333333333
            },
            {
              "pitch": 63,
              "velocity": 98,
              "position": 2.5,
              "duration": 1.4958333333333333
            },
            {
              "pitch": 58,
              "velocity": 46,
              "position": 3.5,
              "duration": 1.4958333333333333
            },
            {
              "pitch": 65,
              "velocity": 45,
              "position": 5.5,
              "duration": 0.49583333333333335
            },
            {
              "pitch": 63,
              "velocity": 46,
              "position": 6,
              "duration": 0.49583333333333335
            },
            {
              "pitch": 58,
              "velocity": 40,
              "position": 5,
              "duration": 2.495833333333333
            },
            {
              "pitch": 62,
              "velocity": 98,
              "position": 6.5,
              "duration": 1.4958333333333333
            },
            {
              "pitch": 58,
              "velocity": 46,
              "position": 7.5,
              "duration": 1.4958333333333333
            },
            {
              "pitch": 65,
              "velocity": 45,
              "position": 9.5,
              "duration": 0.49583333333333335
            },
            {
              "pitch": 63,
              "velocity": 46,
              "position": 10,
              "duration": 0.49583333333333335
            },
            {
              "pitch": 58,
              "velocity": 40,
              "position": 9,
              "duration": 2.495833333333333
            },
            {
              "pitch": 62,
              "velocity": 98,
              "position": 10.5,
              "duration": 1.4958333333333333
            },
            {
              "pitch": 57,
              "velocity": 46,
              "position": 11.5,
              "duration": 1.4958333333333333
            },
            {
              "pitch": 67,
              "velocity": 45,
              "position": 13.5,
              "duration": 0.49583333333333335
            },
            {
              "pitch": 65,
              "velocity": 46,
              "position": 14,
              "duration": 0.49583333333333335
            },
            {
              "pitch": 57,
              "velocity": 40,
              "position": 13,
              "duration": 2.495833333333333
            },
            {
              "pitch": 63,
              "velocity": 98,
              "position": 14.5,
              "duration": 1.4958333333333333
            },
            {
              "pitch": 60,
              "velocity": 46,
              "position": 15.5,
              "duration": 1.4958333333333333
            },
            {
              "pitch": 67,
              "velocity": 45,
              "position": 17.5,
              "duration": 0.49583333333333335
            },
            {
              "pitch": 65,
              "velocity": 46,
              "position": 18,
              "duration": 0.49583333333333335
            },
            {
              "pitch": 60,
              "velocity": 40,
              "position": 17,
              "duration": 2.495833333333333
            },
            {
              "pitch": 63,
              "velocity": 98,
              "position": 18.5,
              "duration": 1.4958333333333333
            },
            {
              "pitch": 58,
              "velocity": 46,
              "position": 19.5,
              "duration": 1.4958333333333333
            },
            {
              "pitch": 65,
              "velocity": 45,
              "position": 21.5,
              "duration": 0.49583333333333335
            },
            {
              "pitch": 63,
              "velocity": 41,
              "position": 22,
              "duration": 0.9958333333333333
            },
            {
              "pitch": 58,
              "velocity": 40,
              "position": 21,
              "duration": 2.495833333333333
            },
            {
              "pitch": 62,
              "velocity": 98,
              "position": 23,
              "duration": 1.4958333333333333
            },
            {
              "pitch": 57,
              "velocity": 46,
              "position": 24,
              "duration": 10.995833333333334
            }
          ]
        },
        "4": {
          "ctab": {
            "srcChannel": 4,
            "name": "Piano",
            "accType": "CHORD2",
            "editable": false,
            "mutedNotes": [],
            "mutedChords": [
              "1+2+5",
              "sus4",
              "1+5",
              "1+8",
              "7aug",
              "Maj7aug",
              "7(#9)",
              "7(b13)",
              "7(b9)",
              "7(13)",
              "7#11",
              "7(9)",
              "7b5",
              "7sus4",
              "7th",
              "aug",
              "Maj6(9)",
              "Maj7(9)",
              "Maj(9)",
              "Maj7#11",
              "Maj7",
              "Maj6",
              "Maj"
            ],
            "autoStart": false,
            "sourceChordNote": 0,
            "sourceChordType": "min",
            "ctb2Low": null,
            "ctb2Main": {
              "ntr": "ROOT_TRANSPOSITION",
              "ntt": "BYPASS",
              "bassOn": false,
              "chordRootUpperLimit": 10,
              "noteLowLimit": 0,
              "noteHighLimit": 127,
              "rtr": "PITCH_SHIFT"
            },
            "ctb2High": null,
            "ctb2MiddleLowPitch": 0,
            "ctb2MiddleHighPitch": 127
          },
          "notes": [
            {
              "pitch": 60,
              "velocity": 107,
              "position": 0.0020833333333333333,
              "duration": 0.99375
            },
            {
              "pitch": 72,
              "velocity": 123,
              "position": 0.0020833333333333333,
              "duration": 0.99375
            },
            {
              "pitch": 60,
              "velocity": 94,
              "position": 1,
              "duration": 1.4958333333333333
            },
            {
              "pitch": 67,
              "velocity": 80,
              "position": 1.5,
              "duration": 0.9958333333333333
            },
            {
              "pitch": 72,
              "velocity": 72,
              "position": 1,
              "duration": 1.4958333333333333
            },
            {
              "pitch": 79,
              "velocity": 58,
              "position": 1.5,
              "duration": 0.9958333333333333
            },
            {
              "pitch": 65,
              "velocity": 107,
              "position": 2,
              "duration": 0.9958333333333333
            },
            {
              "pitch": 77,
              "velocity": 85,
              "position": 2,
              "duration": 0.9958333333333333
            },
            {
              "pitch": 63,
              "velocity": 98,
              "position": 2.5,
              "duration": 1.4958333333333333
            },
            {
              "pitch": 75,
              "velocity": 76,
              "position": 2.5,
              "duration": 1.4958333333333333
            },
            {
              "pitch": 58,
              "velocity": 107,
              "position": 3.5,
              "duration": 1.49375
            },
            {
              "pitch": 70,
              "velocity": 85,
              "position": 3.5,
              "duration": 1.49375
            },
            {
              "pitch": 58,
              "velocity": 94,
              "position": 5,
              "duration": 1.4958333333333333
            },
            {
              "pitch": 65,
              "velocity": 80,
              "position": 5.5,
              "duration": 0.9958333333333333
            },
            {
              "pitch": 70,
              "velocity": 72,
              "position": 5,
              "duration": 1.4958333333333333
            },
            {
              "pitch": 77,
              "velocity": 58,
              "position": 5.5,
              "duration": 0.9958333333333333
            },
            {
              "pitch": 63,
              "velocity": 107,
              "position": 6,
              "duration": 0.9958333333333333
            },
            {
              "pitch": 75,
              "velocity": 85,
              "position": 6,
              "duration": 0.9958333333333333
            },
            {
              "pitch": 62,
              "velocity": 84,
              "position": 6.5,
              "duration": 1.4958333333333333
            },
            {
              "pitch": 74,
              "velocity": 62,
              "position": 6.5,
              "duration": 1.4958333333333333
            },
            {
              "pitch": 58,
              "velocity": 105,
              "position": 7.5,
              "duration": 1.49375
            },
            {
              "pitch": 70,
              "velocity": 83,
              "position": 7.5,
              "duration": 1.49375
            },
            {
              "pitch": 58,
              "velocity": 105,
              "position": 9,
              "duration": 1.4958333333333333
            },
            {
              "pitch": 65,
              "velocity": 80,
              "position": 9.5,
              "duration": 0.9958333333333333
            },
            {
              "pitch": 70,
              "velocity": 83,
              "position": 9,
              "duration": 1.4958333333333333
            },
            {
              "pitch": 77,
              "velocity": 58,
              "position": 9.5,
              "duration": 0.9958333333333333
            },
            {
              "pitch": 63,
              "velocity": 107,
              "position": 10,
              "duration": 0.9958333333333333
            },
            {
              "pitch": 75,
              "velocity": 85,
              "position": 10,
              "duration": 0.9958333333333333
            },
            {
              "pitch": 62,
              "velocity": 102,
              "position": 10.5,
              "duration": 1.4958333333333333
            },
            {
              "pitch": 74,
              "velocity": 80,
              "position": 10.5,
              "duration": 1.4958333333333333
            },
            {
              "pitch": 57,
              "velocity": 111,
              "position": 11.5,
              "duration": 1.49375
            },
            {
              "pitch": 69,
              "velocity": 89,
              "position": 11.5,
              "duration": 1.49375
            },
            {
              "pitch": 57,
              "velocity": 107,
              "position": 13,
              "duration": 1.4958333333333333
            },
            {
              "pitch": 67,
              "velocity": 80,
              "position": 13.5,
              "duration": 0.9958333333333333
            },
            {
              "pitch": 69,
              "velocity": 85,
              "position": 13,
              "duration": 1.4958333333333333
            },
            {
              "pitch": 79,
              "velocity": 96,
              "position": 13.5,
              "duration": 0.9958333333333333
            },
            {
              "pitch": 65,
              "velocity": 98,
              "position": 14,
              "duration": 0.9958333333333333
            },
            {
              "pitch": 77,
              "velocity": 114,
              "position": 14,
              "duration": 0.9958333333333333
            },
            {
              "pitch": 63,
              "velocity": 96,
              "position": 14.5,
              "duration": 1.4958333333333333
            },
            {
              "pitch": 75,
              "velocity": 112,
              "position": 14.5,
              "duration": 1.4958333333333333
            },
            {
              "pitch": 60,
              "velocity": 107,
              "position": 15.5,
              "duration": 1.49375
            },
            {
              "pitch": 72,
              "velocity": 123,
              "position": 15.5,
              "duration": 1.49375
            },
            {
              "pitch": 60,
              "velocity": 102,
              "position": 17,
              "duration": 1.4958333333333333
            },
            {
              "pitch": 67,
              "velocity": 80,
              "position": 17.5,
              "duration": 0.9958333333333333
            },
            {
              "pitch": 72,
              "velocity": 118,
              "position": 17,
              "duration": 1.4958333333333333
            },
            {
              "pitch": 79,
              "velocity": 96,
              "position": 17.5,
              "duration": 0.9958333333333333
            },
            {
              "pitch": 65,
              "velocity": 107,
              "position": 18,
              "duration": 0.9958333333333333
            },
            {
              "pitch": 77,
              "velocity": 123,
              "position": 18,
              "duration": 0.9958333333333333
            },
            {
              "pitch": 63,
              "velocity": 94,
              "position": 18.5,
              "duration": 1.4958333333333333
            },
            {
              "pitch": 75,
              "velocity": 110,
              "position": 18.5,
              "duration": 1.4958333333333333
            },
            {
              "pitch": 58,
              "velocity": 102,
              "position": 19.5,
              "duration": 1.49375
            },
            {
              "pitch": 70,
              "velocity": 118,
              "position": 19.5,
              "duration": 1.49375
            },
            {
              "pitch": 58,
              "velocity": 107,
              "position": 21,
              "duration": 1.4958333333333333
            },
            {
              "pitch": 65,
              "velocity": 102,
              "position": 21.5,
              "duration": 0.9958333333333333
            },
            {
              "pitch": 70,
              "velocity": 123,
              "position": 21,
              "duration": 1.4958333333333333
            },
            {
              "pitch": 77,
              "velocity": 118,
              "position": 21.5,
              "duration": 0.9958333333333333
            },
            {
              "pitch": 63,
              "velocity": 96,
              "position": 22,
              "duration": 0.9958333333333333
            },
            {
              "pitch": 75,
              "velocity": 112,
              "position": 22,
              "duration": 0.9958333333333333
            },
            {
              "pitch": 62,
              "velocity": 107,
              "position": 23,
              "duration": 1.4958333333333333
            },
            {
              "pitch": 74,
              "velocity": 123,
              "position": 23,
              "duration": 1.4958333333333333
            },
            {
              "pitch": 57,
              "velocity": 100,
              "position": 24,
              "duration": 10.995833333333334
            },
            {
              "pitch": 69,
              "velocity": 116,
              "position": 24.077083333333334,
              "duration": 10.995833333333334
            }
          ]
        },
        "5": {
          "ctab": {
            "srcChannel": 5,
            "name": "Strings",
            "accType": "PAD",
            "editable": false,
            "mutedNotes": [],
            "mutedChords": [
              "1+2+5",
              "sus4",
              "1+5",
              "1+8",
              "7aug",
              "Maj7aug",
              "7(#9)",
              "7(b13)",
              "7(b9)",
              "7(13)",
              "7#11",
              "7(9)",
              "7b5",
              "7sus4",
              "7th",
              "aug",
              "Maj6(9)",
              "Maj7(9)",
              "Maj(9)",
              "Maj7#11",
              "Maj7",
              "Maj6",
              "Maj"
            ],
            "autoStart": false,
            "sourceChordNote": 0,
            "sourceChordType": "min",
            "ctb2Low": null,
            "ctb2Main": {
              "ntr": "ROOT_TRANSPOSITION",
              "ntt": "BYPASS",
              "bassOn": false,
              "chordRootUpperLimit": 5,
              "noteLowLimit": 57,
              "noteHighLimit": 68,
              "rtr": "PITCH_SHIFT"
            },
            "ctb2High": null,
            "ctb2MiddleLowPitch": 0,
            "ctb2MiddleHighPitch": 127
          },
          "notes": [
            {
              "pitch": 60,
              "velocity": 50,
              "position": 0.0020833333333333333,
              "duration": 3.995833333333333
            },
            {
              "pitch": 63,
              "velocity": 50,
              "position": 0.0020833333333333333,
              "duration": 3.995833333333333
            },
            {
              "pitch": 67,
              "velocity": 50,
              "position": 0.0020833333333333333,
              "duration": 3.995833333333333
            },
            {
              "pitch": 58,
              "velocity": 50,
              "position": 4,
              "duration": 3.995833333333333
            },
            {
              "pitch": 62,
              "velocity": 50,
              "position": 4,
              "duration": 3.995833333333333
            },
            {
              "pitch": 67,
              "velocity": 50,
              "position": 4,
              "duration": 3.995833333333333
            },
            {
              "pitch": 58,
              "velocity": 50,
              "position": 8,
              "duration": 3.995833333333333
            },
            {
              "pitch": 62,
              "velocity": 50,
              "position": 8,
              "duration": 3.995833333333333
            },
            {
              "pitch": 57,
              "velocity": 50,
              "position": 12,
              "duration": 3.995833333333333
            },
            {
              "pitch": 60,
              "velocity": 50,
              "position": 12,
              "duration": 3.995833333333333
            },
            {
              "pitch": 65,
              "velocity": 50,
              "position": 8,
              "duration": 7.995833333333334
            },
            {
              "pitch": 60,
              "velocity": 50,
              "position": 16,
              "duration": 3.995833333333333
            },
            {
              "pitch": 63,
              "velocity": 50,
              "position": 16,
              "duration": 3.995833333333333
            },
            {
              "pitch": 67,
              "velocity": 50,
              "position": 16,
              "duration": 3.995833333333333
            },
            {
              "pitch": 58,
              "velocity": 50,
              "position": 20,
              "duration": 3.995833333333333
            },
            {
              "pitch": 62,
              "velocity": 50,
              "position": 20,
              "duration": 3.995833333333333
            },
            {
              "pitch": 67,
              "velocity": 50,
              "position": 20,
              "duration": 3.995833333333333
            },
            {
              "pitch": 57,
              "velocity": 50,
              "position": 24,
              "duration": 10.995833333333334
            },
            {
              "pitch": 60,
              "velocity": 50,
              "position": 24,
              "duration": 10.995833333333334
            },
            {
              "pitch": 65,
              "velocity": 50,
              "position": 24,
              "duration": 10.995833333333334
            }
          ]
        },
        "6": {
          "ctab": {
            "srcChannel": 6,
            "name": "Organ",
            "accType": "PHRASE1",
            "editable": false,
            "mutedNotes": [],
            "mutedChords": [
              "1+2+5",
              "sus4",
              "1+5",
              "1+8",
              "7aug",
              "Maj7aug",
              "7(#9)",
              "7(b13)",
              "7(b9)",
              "7(13)",
              "7#11",
              "7(9)",
              "7b5",
              "7sus4",
              "7th",
              "aug",
              "Maj6(9)",
              "Maj7(9)",
              "Maj(9)",
              "Maj7#11",
              "Maj7",
              "Maj6",
              "Maj"
            ],
            "autoStart": false,
            "sourceChordNote": 0,
            "sourceChordType": "min",
            "ctb2Low": null,
            "ctb2Main": {
              "ntr": "ROOT_TRANSPOSITION",
              "ntt": "BYPASS",
              "bassOn": false,
              "chordRootUpperLimit": 4,
              "noteLowLimit": 57,
              "noteHighLimit": 68,
              "rtr": "PITCH_SHIFT"
            },
            "ctb2High": null,
            "ctb2MiddleLowPitch": 0,
            "ctb2MiddleHighPitch": 127
          },
          "notes": [
            {
              "pitch": 60,
              "velocity": 88,
              "position": 0,
              "duration": 3.995833333333333
            },
            {
              "pitch": 63,
              "velocity": 88,
              "position": 0,
              "duration": 3.995833333333333
            },
            {
              "pitch": 67,
              "velocity": 88,
              "position": 0,
              "duration": 3.995833333333333
            },
            {
              "pitch": 58,
              "velocity": 88,
              "position": 4,
              "duration": 3.995833333333333
            },
            {
              "pitch": 62,
              "velocity": 88,
              "position": 4,
              "duration": 3.995833333333333
            },
            {
              "pitch": 67,
              "velocity": 88,
              "position": 4,
              "duration": 3.995833333333333
            },
            {
              "pitch": 58,
              "velocity": 88,
              "position": 8,
              "duration": 3.995833333333333
            },
            {
              "pitch": 62,
              "velocity": 88,
              "position": 8,
              "duration": 3.995833333333333
            },
            {
              "pitch": 57,
              "velocity": 88,
              "position": 12,
              "duration": 3.995833333333333
            },
            {
              "pitch": 60,
              "velocity": 88,
              "position": 12,
              "duration": 3.995833333333333
            },
            {
              "pitch": 65,
              "velocity": 88,
              "position": 8,
              "duration": 7.995833333333334
            },
            {
              "pitch": 60,
              "velocity": 88,
              "position": 16,
              "duration": 3.995833333333333
            },
            {
              "pitch": 63,
              "velocity": 88,
              "position": 16,
              "duration": 3.995833333333333
            },
            {
              "pitch": 67,
              "velocity": 88,
              "position": 16,
              "duration": 3.995833333333333
            },
            {
              "pitch": 58,
              "velocity": 88,
              "position": 20,
              "duration": 3.995833333333333
            },
            {
              "pitch": 62,
              "velocity": 88,
              "position": 20,
              "duration": 3.995833333333333
            },
            {
              "pitch": 67,
              "velocity": 88,
              "position": 20,
              "duration": 3.995833333333333
            },
            {
              "pitch": 57,
              "velocity": 88,
              "position": 24,
              "duration": 10.995833333333334
            },
            {
              "pitch": 60,
              "velocity": 88,
              "position": 24,
              "duration": 10.995833333333334
            },
            {
              "pitch": 65,
              "velocity": 88,
              "position": 24,
              "duration": 10.995833333333334
            }
          ]
        },
        "7": {
          "ctab": {
            "srcChannel": 7,
            "name": "Guitar2",
            "accType": "PHRASE2",
            "editable": false,
            "mutedNotes": [],
            "mutedChords": [
              "1+2+5",
              "sus4",
              "1+5",
              "1+8",
              "7aug",
              "Maj7aug",
              "7(#9)",
              "7(b13)",
              "7(b9)",
              "7(13)",
              "7#11",
              "7(9)",
              "7b5",
              "7sus4",
              "7th",
              "aug",
              "Maj6(9)",
              "Maj7(9)",
              "Maj(9)",
              "Maj7#11",
              "Maj7",
              "Maj6",
              "Maj"
            ],
            "autoStart": false,
            "sourceChordNote": 0,
            "sourceChordType": "min",
            "ctb2Low": null,
            "ctb2Main": {
              "ntr": "ROOT_TRANSPOSITION",
              "ntt": "BYPASS",
              "bassOn": false,
              "chordRootUpperLimit": 3,
              "noteLowLimit": 48,
              "noteHighLimit": 59,
              "rtr": "PITCH_SHIFT"
            },
            "ctb2High": {
              "ntr": "ROOT_FIXED",
              "ntt": "BYPASS",
              "bassOn": false,
              "chordRootUpperLimit": 7,
              "noteLowLimit": 0,
              "noteHighLimit": 127,
              "rtr": "PITCH_SHIFT"
            },
            "ctb2MiddleLowPitch": 0,
            "ctb2MiddleHighPitch": 95
          },
          "notes": [
            {
              "pitch": 48,
              "velocity": 83,
              "position": 0,
              "duration": 0.4708333333333333
            },
            {
              "pitch": 55,
              "velocity": 83,
              "position": 0,
              "duration": 0.4708333333333333
            },
            {
              "pitch": 48,
              "velocity": 79,
              "position": 0.4895833333333333,
              "duration": 0.4083333333333333
            },
            {
              "pitch": 55,
              "velocity": 79,
              "position": 0.4895833333333333,
              "duration": 0.4083333333333333
            },
            {
              "pitch": 48,
              "velocity": 79,
              "position": 0.9895833333333334,
              "duration": 0.4083333333333333
            },
            {
              "pitch": 55,
              "velocity": 79,
              "position": 0.9895833333333334,
              "duration": 0.4083333333333333
            },
            {
              "pitch": 48,
              "velocity": 83,
              "position": 1.4895833333333333,
              "duration": 0.4083333333333333
            },
            {
              "pitch": 55,
              "velocity": 83,
              "position": 1.4895833333333333,
              "duration": 0.4083333333333333
            },
            {
              "pitch": 48,
              "velocity": 79,
              "position": 1.9895833333333333,
              "duration": 0.4083333333333333
            },
            {
              "pitch": 55,
              "velocity": 79,
              "position": 1.9895833333333333,
              "duration": 0.4083333333333333
            },
            {
              "pitch": 48,
              "velocity": 79,
              "position": 2.4895833333333335,
              "duration": 0.4083333333333333
            },
            {
              "pitch": 55,
              "velocity": 79,
              "position": 2.4895833333333335,
              "duration": 0.4083333333333333
            },
            {
              "pitch": 48,
              "velocity": 84,
              "position": 2.9895833333333335,
              "duration": 0.4083333333333333
            },
            {
              "pitch": 55,
              "velocity": 84,
              "position": 2.9895833333333335,
              "duration": 0.4083333333333333
            },
            {
              "pitch": 48,
              "velocity": 79,
              "position": 3.4895833333333335,
              "duration": 0.4083333333333333
            },
            {
              "pitch": 55,
              "velocity": 79,
              "position": 3.4895833333333335,
              "duration": 0.4083333333333333
            },
            {
              "pitch": 50,
              "velocity": 83,
              "position": 4,
              "duration": 0.4708333333333333
            },
            {
              "pitch": 55,
              "velocity": 83,
              "position": 4,
              "duration": 0.4708333333333333
            },
            {
              "pitch": 50,
              "velocity": 79,
              "position": 4.489583333333333,
              "duration": 0.4083333333333333
            },
            {
              "pitch": 55,
              "velocity": 79,
              "position": 4.489583333333333,
              "duration": 0.4083333333333333
            },
            {
              "pitch": 50,
              "velocity": 79,
              "position": 4.989583333333333,
              "duration": 0.4083333333333333
            },
            {
              "pitch": 55,
              "velocity": 79,
              "position": 4.989583333333333,
              "duration": 0.4083333333333333
            },
            {
              "pitch": 50,
              "velocity": 83,
              "position": 5.489583333333333,
              "duration": 0.4083333333333333
            },
            {
              "pitch": 55,
              "velocity": 83,
              "position": 5.489583333333333,
              "duration": 0.4083333333333333
            },
            {
              "pitch": 50,
              "velocity": 79,
              "position": 5.989583333333333,
              "duration": 0.4083333333333333
            },
            {
              "pitch": 55,
              "velocity": 79,
              "position": 5.989583333333333,
              "duration": 0.4083333333333333
            },
            {
              "pitch": 50,
              "velocity": 79,
              "position": 6.489583333333333,
              "duration": 0.4083333333333333
            },
            {
              "pitch": 55,
              "velocity": 79,
              "position": 6.489583333333333,
              "duration": 0.4083333333333333
            },
            {
              "pitch": 50,
              "velocity": 84,
              "position": 6.989583333333333,
              "duration": 0.4083333333333333
            },
            {
              "pitch": 55,
              "velocity": 84,
              "position": 6.989583333333333,
              "duration": 0.4083333333333333
            },
            {
              "pitch": 50,
              "velocity": 79,
              "position": 7.489583333333333,
              "duration": 0.4083333333333333
            },
            {
              "pitch": 55,
              "velocity": 79,
              "position": 7.489583333333333,
              "duration": 0.4083333333333333
            },
            {
              "pitch": 53,
              "velocity": 83,
              "position": 8,
              "duration": 0.4708333333333333
            },
            {
              "pitch": 58,
              "velocity": 83,
              "position": 8,
              "duration": 0.4708333333333333
            },
            {
              "pitch": 53,
              "velocity": 79,
              "position": 8.489583333333334,
              "duration": 0.4083333333333333
            },
            {
              "pitch": 58,
              "velocity": 79,
              "position": 8.489583333333334,
              "duration": 0.4083333333333333
            },
            {
              "pitch": 53,
              "velocity": 79,
              "position": 8.989583333333334,
              "duration": 0.4083333333333333
            },
            {
              "pitch": 58,
              "velocity": 79,
              "position": 8.989583333333334,
              "duration": 0.4083333333333333
            },
            {
              "pitch": 53,
              "velocity": 83,
              "position": 9.489583333333334,
              "duration": 0.4083333333333333
            },
            {
              "pitch": 58,
              "velocity": 83,
              "position": 9.489583333333334,
              "duration": 0.4083333333333333
            },
            {
              "pitch": 53,
              "velocity": 79,
              "position": 9.989583333333334,
              "duration": 0.4083333333333333
            },
            {
              "pitch": 58,
              "velocity": 79,
              "position": 9.989583333333334,
              "duration": 0.4083333333333333
            },
            {
              "pitch": 53,
              "velocity": 79,
              "position": 10.489583333333334,
              "duration": 0.4083333333333333
            },
            {
              "pitch": 58,
              "velocity": 79,
              "position": 10.489583333333334,
              "duration": 0.4083333333333333
            },
            {
              "pitch": 53,
              "velocity": 84,
              "position": 10.989583333333334,
              "duration": 0.4083333333333333
            },
            {
              "pitch": 58,
              "velocity": 84,
              "position": 10.989583333333334,
              "duration": 0.4083333333333333
            },
            {
              "pitch": 53,
              "velocity": 79,
              "position": 11.489583333333334,
              "duration": 0.4083333333333333
            },
            {
              "pitch": 58,
              "velocity": 79,
              "position": 11.489583333333334,
              "duration": 0.4083333333333333
            },
            {
              "pitch": 53,
              "velocity": 83,
              "position": 12,
              "duration": 0.4708333333333333
            },
            {
              "pitch": 57,
              "velocity": 83,
              "position": 12,
              "duration": 0.4708333333333333
            },
            {
              "pitch": 53,
              "velocity": 79,
              "position": 12.489583333333334,
              "duration": 0.4083333333333333
            },
            {
              "pitch": 57,
              "velocity": 79,
              "position": 12.489583333333334,
              "duration": 0.4083333333333333
            },
            {
              "pitch": 53,
              "velocity": 79,
              "position": 12.989583333333334,
              "duration": 0.4083333333333333
            },
            {
              "pitch": 57,
              "velocity": 79,
              "position": 12.989583333333334,
              "duration": 0.4083333333333333
            },
            {
              "pitch": 53,
              "velocity": 83,
              "position": 13.489583333333334,
              "duration": 0.4083333333333333
            },
            {
              "pitch": 57,
              "velocity": 83,
              "position": 13.489583333333334,
              "duration": 0.4083333333333333
            },
            {
              "pitch": 53,
              "velocity": 79,
              "position": 13.989583333333334,
              "duration": 0.4083333333333333
            },
            {
              "pitch": 57,
              "velocity": 79,
              "position": 13.989583333333334,
              "duration": 0.4083333333333333
            },
            {
              "pitch": 53,
              "velocity": 79,
              "position": 14.489583333333334,
              "duration": 0.4083333333333333
            },
            {
              "pitch": 57,
              "velocity": 79,
              "position": 14.489583333333334,
              "duration": 0.4083333333333333
            },
            {
              "pitch": 53,
              "velocity": 84,
              "position": 14.989583333333334,
              "duration": 0.4083333333333333
            },
            {
              "pitch": 57,
              "velocity": 84,
              "position": 14.989583333333334,
              "duration": 0.4083333333333333
            },
            {
              "pitch": 53,
              "velocity": 79,
              "position": 15.489583333333334,
              "duration": 0.4083333333333333
            },
            {
              "pitch": 57,
              "velocity": 79,
              "position": 15.489583333333334,
              "duration": 0.4083333333333333
            },
            {
              "pitch": 48,
              "velocity": 83,
              "position": 16,
              "duration": 0.4708333333333333
            },
            {
              "pitch": 55,
              "velocity": 83,
              "position": 16,
              "duration": 0.4708333333333333
            },
            {
              "pitch": 48,
              "velocity": 79,
              "position": 16.489583333333332,
              "duration": 0.4083333333333333
            },
            {
              "pitch": 55,
              "velocity": 79,
              "position": 16.489583333333332,
              "duration": 0.4083333333333333
            },
            {
              "pitch": 48,
              "velocity": 79,
              "position": 16.989583333333332,
              "duration": 0.4083333333333333
            },
            {
              "pitch": 55,
              "velocity": 79,
              "position": 16.989583333333332,
              "duration": 0.4083333333333333
            },
            {
              "pitch": 48,
              "velocity": 83,
              "position": 17.489583333333332,
              "duration": 0.4083333333333333
            },
            {
              "pitch": 55,
              "velocity": 83,
              "position": 17.489583333333332,
              "duration": 0.4083333333333333
            },
            {
              "pitch": 48,
              "velocity": 79,
              "position": 17.989583333333332,
              "duration": 0.4083333333333333
            },
            {
              "pitch": 55,
              "velocity": 79,
              "position": 17.989583333333332,
              "duration": 0.4083333333333333
            },
            {
              "pitch": 48,
              "velocity": 79,
              "position": 18.489583333333332,
              "duration": 0.4083333333333333
            },
            {
              "pitch": 55,
              "velocity": 79,
              "position": 18.489583333333332,
              "duration": 0.4083333333333333
            },
            {
              "pitch": 48,
              "velocity": 84,
              "position": 18.989583333333332,
              "duration": 0.4083333333333333
            },
            {
              "pitch": 55,
              "velocity": 84,
              "position": 18.989583333333332,
              "duration": 0.4083333333333333
            },
            {
              "pitch": 48,
              "velocity": 79,
              "position": 19.489583333333332,
              "duration": 0.4083333333333333
            },
            {
              "pitch": 55,
              "velocity": 79,
              "position": 19.489583333333332,
              "duration": 0.4083333333333333
            },
            {
              "pitch": 50,
              "velocity": 83,
              "position": 20,
              "duration": 0.4708333333333333
            },
            {
              "pitch": 55,
              "velocity": 83,
              "position": 20,
              "duration": 0.4708333333333333
            },
            {
              "pitch": 50,
              "velocity": 79,
              "position": 20.489583333333332,
              "duration": 0.4083333333333333
            },
            {
              "pitch": 55,
              "velocity": 79,
              "position": 20.489583333333332,
              "duration": 0.4083333333333333
            },
            {
              "pitch": 50,
              "velocity": 79,
              "position": 20.989583333333332,
              "duration": 0.4083333333333333
            },
            {
              "pitch": 55,
              "velocity": 79,
              "position": 20.989583333333332,
              "duration": 0.4083333333333333
            },
            {
              "pitch": 50,
              "velocity": 83,
              "position": 21.489583333333332,
              "duration": 0.4083333333333333
            },
            {
              "pitch": 55,
              "velocity": 83,
              "position": 21.489583333333332,
              "duration": 0.4083333333333333
            },
            {
              "pitch": 50,
              "velocity": 79,
              "position": 21.989583333333332,
              "duration": 0.4083333333333333
            },
            {
              "pitch": 55,
              "velocity": 79,
              "position": 21.989583333333332,
              "duration": 0.4083333333333333
            },
            {
              "pitch": 50,
              "velocity": 79,
              "position": 22.489583333333332,
              "duration": 0.4083333333333333
            },
            {
              "pitch": 55,
              "velocity": 79,
              "position": 22.489583333333332,
              "duration": 0.4083333333333333
            },
            {
              "pitch": 50,
              "velocity": 84,
              "position": 22.989583333333332,
              "duration": 0.4083333333333333
            },
            {
              "pitch": 55,
              "velocity": 84,
              "position": 22.989583333333332,
              "duration": 0.4083333333333333
            },
            {
              "pitch": 50,
              "velocity": 79,
              "position": 23.489583333333332,
              "duration": 0.4083333333333333
            },
            {
              "pitch": 55,
              "velocity": 79,
              "position": 23.489583333333332,
              "duration": 0.4083333333333333
            },
            {
              "pitch": 48,
              "velocity": 30,
              "position": 24,
              "duration": 10.995833333333334
            },
            {
              "pitch": 53,
              "velocity": 30,
              "position": 24,
              "duration": 10.995833333333334
            }
          ]
        },
        "8": {
          "ctab": {
            "srcChannel": 8,
            "name": "AddDrum",
            "accType": "SUBRHYTHM",
            "editable": false,
            "mutedNotes": [],
            "mutedChords": [],
            "autoStart": true,
            "sourceChordNote": 0,
            "sourceChordType": "Maj7",
            "ctb2Low": null,
            "ctb2Main": {
              "ntr": "ROOT_FIXED",
              "ntt": "BYPASS",
              "bassOn": false,
              "chordRootUpperLimit": 6,
              "noteLowLimit": 0,
              "noteHighLimit": 127,
              "rtr": "PITCH_SHIFT"
            },
            "ctb2High": null,
            "ctb2MiddleLowPitch": 0,
            "ctb2MiddleHighPitch": 127
          },
          "notes": [
            {
              "pitch": 54,
              "velocity": 80,
              "position": 0,
              "duration": 0.00625
            },
            {
              "pitch": 54,
              "velocity": 21,
              "position": 0.25,
              "duration": 0.00625
            },
            {
              "pitch": 54,
              "velocity": 36,
              "position": 0.5,
              "duration": 0.00625
            },
            {
              "pitch": 54,
              "velocity": 21,
              "position": 0.75,
              "duration": 0.00625
            },
            {
              "pitch": 54,
              "velocity": 80,
              "position": 1,
              "duration": 0.00625
            },
            {
              "pitch": 54,
              "velocity": 23,
              "position": 1.25,
              "duration": 0.00625
            },
            {
              "pitch": 54,
              "velocity": 34,
              "position": 1.5,
              "duration": 0.00625
            },
            {
              "pitch": 54,
              "velocity": 25,
              "position": 1.75,
              "duration": 0.00625
            },
            {
              "pitch": 54,
              "velocity": 80,
              "position": 2,
              "duration": 0.00625
            },
            {
              "pitch": 54,
              "velocity": 27,
              "position": 2.25,
              "duration": 0.00625
            },
            {
              "pitch": 54,
              "velocity": 37,
              "position": 2.5,
              "duration": 0.00625
            },
            {
              "pitch": 54,
              "velocity": 25,
              "position": 2.75,
              "duration": 0.00625
            },
            {
              "pitch": 54,
              "velocity": 80,
              "position": 3,
              "duration": 0.00625
            },
            {
              "pitch": 54,
              "velocity": 33,
              "position": 3.25,
              "duration": 0.00625
            },
            {
              "pitch": 54,
              "velocity": 24,
              "position": 3.5,
              "duration": 0.00625
            },
            {
              "pitch": 54,
              "velocity": 33,
              "position": 3.75,
              "duration": 0.00625
            },
            {
              "pitch": 54,
              "velocity": 80,
              "position": 4,
              "duration": 0.00625
            },
            {
              "pitch": 54,
              "velocity": 27,
              "position": 4.25,
              "duration": 0.00625
            },
            {
              "pitch": 54,
              "velocity": 37,
              "position": 4.5,
              "duration": 0.00625
            },
            {
              "pitch": 54,
              "velocity": 25,
              "position": 4.75,
              "duration": 0.00625
            },
            {
              "pitch": 54,
              "velocity": 80,
              "position": 5,
              "duration": 0.00625
            },
            {
              "pitch": 54,
              "velocity": 33,
              "position": 5.25,
              "duration": 0.00625
            },
            {
              "pitch": 54,
              "velocity": 24,
              "position": 5.5,
              "duration": 0.00625
            },
            {
              "pitch": 54,
              "velocity": 33,
              "position": 5.75,
              "duration": 0.00625
            },
            {
              "pitch": 54,
              "velocity": 80,
              "position": 6,
              "duration": 0.00625
            },
            {
              "pitch": 54,
              "velocity": 27,
              "position": 6.25,
              "duration": 0.00625
            },
            {
              "pitch": 54,
              "velocity": 37,
              "position": 6.5,
              "duration": 0.00625
            },
            {
              "pitch": 54,
              "velocity": 25,
              "position": 6.75,
              "duration": 0.00625
            },
            {
              "pitch": 54,
              "velocity": 80,
              "position": 7,
              "duration": 0.00625
            },
            {
              "pitch": 54,
              "velocity": 33,
              "position": 7.25,
              "duration": 0.00625
            },
            {
              "pitch": 54,
              "velocity": 24,
              "position": 7.5,
              "duration": 0.00625
            },
            {
              "pitch": 54,
              "velocity": 33,
              "position": 7.75,
              "duration": 0.00625
            },
            {
              "pitch": 54,
              "velocity": 80,
              "position": 8,
              "duration": 0.00625
            },
            {
              "pitch": 54,
              "velocity": 21,
              "position": 8.25,
              "duration": 0.00625
            },
            {
              "pitch": 54,
              "velocity": 36,
              "position": 8.5,
              "duration": 0.00625
            },
            {
              "pitch": 54,
              "velocity": 21,
              "position": 8.75,
              "duration": 0.00625
            },
            {
              "pitch": 54,
              "velocity": 80,
              "position": 9,
              "duration": 0.00625
            },
            {
              "pitch": 54,
              "velocity": 23,
              "position": 9.25,
              "duration": 0.00625
            },
            {
              "pitch": 54,
              "velocity": 34,
              "position": 9.5,
              "duration": 0.00625
            },
            {
              "pitch": 54,
              "velocity": 25,
              "position": 9.75,
              "duration": 0.00625
            },
            {
              "pitch": 54,
              "velocity": 80,
              "position": 10,
              "duration": 0.00625
            },
            {
              "pitch": 54,
              "velocity": 27,
              "position": 10.25,
              "duration": 0.00625
            },
            {
              "pitch": 54,
              "velocity": 37,
              "position": 10.5,
              "duration": 0.00625
            },
            {
              "pitch": 54,
              "velocity": 25,
              "position": 10.75,
              "duration": 0.00625
            },
            {
              "pitch": 54,
              "velocity": 80,
              "position": 11,
              "duration": 0.00625
            },
            {
              "pitch": 54,
              "velocity": 33,
              "position": 11.25,
              "duration": 0.00625
            },
            {
              "pitch": 54,
              "velocity": 24,
              "position": 11.5,
              "duration": 0.00625
            },
            {
              "pitch": 54,
              "velocity": 33,
              "position": 11.75,
              "duration": 0.00625
            },
            {
              "pitch": 54,
              "velocity": 80,
              "position": 12,
              "duration": 0.00625
            },
            {
              "pitch": 54,
              "velocity": 27,
              "position": 12.25,
              "duration": 0.00625
            },
            {
              "pitch": 54,
              "velocity": 37,
              "position": 12.5,
              "duration": 0.00625
            },
            {
              "pitch": 54,
              "velocity": 25,
              "position": 12.75,
              "duration": 0.00625
            },
            {
              "pitch": 54,
              "velocity": 80,
              "position": 13,
              "duration": 0.00625
            },
            {
              "pitch": 54,
              "velocity": 33,
              "position": 13.25,
              "duration": 0.00625
            },
            {
              "pitch": 54,
              "velocity": 24,
              "position": 13.5,
              "duration": 0.00625
            },
            {
              "pitch": 54,
              "velocity": 33,
              "position": 13.75,
              "duration": 0.00625
            },
            {
              "pitch": 54,
              "velocity": 80,
              "position": 14,
              "duration": 0.00625
            },
            {
              "pitch": 54,
              "velocity": 27,
              "position": 14.25,
              "duration": 0.00625
            },
            {
              "pitch": 54,
              "velocity": 37,
              "position": 14.5,
              "duration": 0.00625
            },
            {
              "pitch": 54,
              "velocity": 25,
              "position": 14.75,
              "duration": 0.00625
            },
            {
              "pitch": 54,
              "velocity": 80,
              "position": 15,
              "duration": 0.00625
            },
            {
              "pitch": 54,
              "velocity": 33,
              "position": 15.25,
              "duration": 0.00625
            },
            {
              "pitch": 54,
              "velocity": 24,
              "position": 15.5,
              "duration": 0.00625
            },
            {
              "pitch": 54,
              "velocity": 33,
              "position": 15.75,
              "duration": 0.00625
            },
            {
              "pitch": 54,
              "velocity": 80,
              "position": 16,
              "duration": 0.00625
            },
            {
              "pitch": 54,
              "velocity": 21,
              "position": 16.25,
              "duration": 0.00625
            },
            {
              "pitch": 54,
              "velocity": 36,
              "position": 16.5,
              "duration": 0.00625
            },
            {
              "pitch": 54,
              "velocity": 21,
              "position": 16.75,
              "duration": 0.00625
            },
            {
              "pitch": 54,
              "velocity": 80,
              "position": 17,
              "duration": 0.00625
            },
            {
              "pitch": 54,
              "velocity": 23,
              "position": 17.25,
              "duration": 0.00625
            },
            {
              "pitch": 54,
              "velocity": 34,
              "position": 17.5,
              "duration": 0.00625
            },
            {
              "pitch": 54,
              "velocity": 25,
              "position": 17.75,
              "duration": 0.00625
            },
            {
              "pitch": 54,
              "velocity": 80,
              "position": 18,
              "duration": 0.00625
            },
            {
              "pitch": 54,
              "velocity": 27,
              "position": 18.25,
              "duration": 0.00625
            },
            {
              "pitch": 54,
              "velocity": 37,
              "position": 18.5,
              "duration": 0.00625
            },
            {
              "pitch": 54,
              "velocity": 25,
              "position": 18.75,
              "duration": 0.00625
            },
            {
              "pitch": 54,
              "velocity": 80,
              "position": 19,
              "duration": 0.00625
            },
            {
              "pitch": 54,
              "velocity": 33,
              "position": 19.25,
              "duration": 0.00625
            },
            {
              "pitch": 54,
              "velocity": 24,
              "position": 19.5,
              "duration": 0.00625
            },
            {
              "pitch": 54,
              "velocity": 33,
              "position": 19.75,
              "duration": 0.00625
            },
            {
              "pitch": 54,
              "velocity": 80,
              "position": 20,
              "duration": 0.00625
            },
            {
              "pitch": 54,
              "velocity": 27,
              "position": 20.25,
              "duration": 0.00625
            },
            {
              "pitch": 54,
              "velocity": 37,
              "position": 20.5,
              "duration": 0.00625
            },
            {
              "pitch": 54,
              "velocity": 25,
              "position": 20.75,
              "duration": 0.00625
            },
            {
              "pitch": 54,
              "velocity": 80,
              "position": 21,
              "duration": 0.00625
            },
            {
              "pitch": 54,
              "velocity": 33,
              "position": 21.25,
              "duration": 0.00625
            },
            {
              "pitch": 54,
              "velocity": 24,
              "position": 21.5,
              "duration": 0.00625
            },
            {
              "pitch": 54,
              "velocity": 33,
              "position": 21.75,
              "duration": 0.00625
            },
            {
              "pitch": 54,
              "velocity": 80,
              "position": 22,
              "duration": 0.00625
            },
            {
              "pitch": 54,
              "velocity": 27,
              "position": 22.25,
              "duration": 0.00625
            },
            {
              "pitch": 54,
              "velocity": 37,
              "position": 22.5,
              "duration": 0.00625
            },
            {
              "pitch": 54,
              "velocity": 25,
              "position": 22.75,
              "duration": 0.00625
            },
            {
              "pitch": 54,
              "velocity": 80,
              "position": 23,
              "duration": 0.00625
            },
            {
              "pitch": 54,
              "velocity": 33,
              "position": 23.25,
              "duration": 0.00625
            },
            {
              "pitch": 54,
              "velocity": 24,
              "position": 23.5,
              "duration": 0.00625
            },
            {
              "pitch": 54,
              "velocity": 33,
              "position": 23.75,
              "duration": 0.00625
            }
          ]
        },
        "9": {
          "ctab": {
            "srcChannel": 9,
            "name": "MainDrum",
            "accType": "RHYTHM",
            "editable": false,
            "mutedNotes": [],
            "mutedChords": [],
            "autoStart": true,
            "sourceChordNote": 0,
            "sourceChordType": "Maj7",
            "ctb2Low": null,
            "ctb2Main": {
              "ntr": "ROOT_FIXED",
              "ntt": "BYPASS",
              "bassOn": false,
              "chordRootUpperLimit": 6,
              "noteLowLimit": 0,
              "noteHighLimit": 127,
              "rtr": "PITCH_SHIFT"
            },
            "ctb2High": null,
            "ctb2MiddleLowPitch": 0,
            "ctb2MiddleHighPitch": 127
          },
          "notes": [
            {
              "pitch": 33,
              "velocity": 75,
              "position": 0,
              "duration": 0.00625
            },
            {
              "pitch": 44,
              "velocity": 70,
              "position": 0,
              "duration": 0.00625
            },
            {
              "pitch": 57,
              "velocity": 90,
              "position": 0,
              "duration": 0.00625
            },
            {
              "pitch": 38,
              "velocity": 26,
              "position": 0.25,
              "duration": 0.00625
            },
            {
              "pitch": 53,
              "velocity": 92,
              "position": 0.5,
              "duration": 0.00625
            },
            {
              "pitch": 38,
              "velocity": 100,
              "position": 1,
              "duration": 0.00625
            },
            {
              "pitch": 44,
              "velocity": 70,
              "position": 1,
              "duration": 0.00625
            },
            {
              "pitch": 51,
              "velocity": 62,
              "position": 1,
              "duration": 0.00625
            },
            {
              "pitch": 33,
              "velocity": 49,
              "position": 1.5,
              "duration": 0.00625
            },
            {
              "pitch": 53,
              "velocity": 92,
              "position": 1.5,
              "duration": 0.00625
            },
            {
              "pitch": 33,
              "velocity": 75,
              "position": 2,
              "duration": 0.00625
            },
            {
              "pitch": 44,
              "velocity": 70,
              "position": 2,
              "duration": 0.00625
            },
            {
              "pitch": 51,
              "velocity": 67,
              "position": 2,
              "duration": 0.00625
            },
            {
              "pitch": 38,
              "velocity": 100,
              "position": 2.5,
              "duration": 0.00625
            },
            {
              "pitch": 53,
              "velocity": 97,
              "position": 2.5,
              "duration": 0.00625
            },
            {
              "pitch": 44,
              "velocity": 70,
              "position": 3,
              "duration": 0.00625
            },
            {
              "pitch": 51,
              "velocity": 62,
              "position": 3,
              "duration": 0.00625
            },
            {
              "pitch": 33,
              "velocity": 49,
              "position": 3.5,
              "duration": 0.00625
            },
            {
              "pitch": 53,
              "velocity": 92,
              "position": 3.5,
              "duration": 0.00625
            },
            {
              "pitch": 33,
              "velocity": 75,
              "position": 4,
              "duration": 0.00625
            },
            {
              "pitch": 44,
              "velocity": 70,
              "position": 4,
              "duration": 0.00625
            },
            {
              "pitch": 51,
              "velocity": 67,
              "position": 4,
              "duration": 0.00625
            },
            {
              "pitch": 53,
              "velocity": 92,
              "position": 4.5,
              "duration": 0.00625
            },
            {
              "pitch": 38,
              "velocity": 100,
              "position": 5,
              "duration": 0.00625
            },
            {
              "pitch": 44,
              "velocity": 70,
              "position": 5,
              "duration": 0.00625
            },
            {
              "pitch": 51,
              "velocity": 67,
              "position": 5,
              "duration": 0.00625
            },
            {
              "pitch": 53,
              "velocity": 99,
              "position": 5.5,
              "duration": 0.00625
            },
            {
              "pitch": 33,
              "velocity": 75,
              "position": 6,
              "duration": 0.00625
            },
            {
              "pitch": 44,
              "velocity": 70,
              "position": 6,
              "duration": 0.00625
            },
            {
              "pitch": 51,
              "velocity": 67,
              "position": 6,
              "duration": 0.00625
            },
            {
              "pitch": 33,
              "velocity": 75,
              "position": 6.5,
              "duration": 0.00625
            },
            {
              "pitch": 38,
              "velocity": 90,
              "position": 6.5,
              "duration": 0.00625
            },
            {
              "pitch": 53,
              "velocity": 92,
              "position": 6.5,
              "duration": 0.00625
            },
            {
              "pitch": 38,
              "velocity": 101,
              "position": 7,
              "duration": 0.00625
            },
            {
              "pitch": 44,
              "velocity": 70,
              "position": 7,
              "duration": 0.00625
            },
            {
              "pitch": 51,
              "velocity": 67,
              "position": 7,
              "duration": 0.00625
            },
            {
              "pitch": 33,
              "velocity": 49,
              "position": 7.5,
              "duration": 0.00625
            },
            {
              "pitch": 53,
              "velocity": 92,
              "position": 7.5,
              "duration": 0.00625
            },
            {
              "pitch": 33,
              "velocity": 75,
              "position": 8,
              "duration": 0.00625
            },
            {
              "pitch": 44,
              "velocity": 70,
              "position": 8,
              "duration": 0.00625
            },
            {
              "pitch": 51,
              "velocity": 67,
              "position": 8,
              "duration": 0.00625
            },
            {
              "pitch": 38,
              "velocity": 26,
              "position": 8.25,
              "duration": 0.00625
            },
            {
              "pitch": 53,
              "velocity": 92,
              "position": 8.5,
              "duration": 0.00625
            },
            {
              "pitch": 38,
              "velocity": 100,
              "position": 9,
              "duration": 0.00625
            },
            {
              "pitch": 44,
              "velocity": 70,
              "position": 9,
              "duration": 0.00625
            },
            {
              "pitch": 51,
              "velocity": 67,
              "position": 9,
              "duration": 0.00625
            },
            {
              "pitch": 33,
              "velocity": 49,
              "position": 9.5,
              "duration": 0.00625
            },
            {
              "pitch": 53,
              "velocity": 92,
              "position": 9.5,
              "duration": 0.00625
            },
            {
              "pitch": 33,
              "velocity": 75,
              "position": 10,
              "duration": 0.00625
            },
            {
              "pitch": 44,
              "velocity": 70,
              "position": 10,
              "duration": 0.00625
            },
            {
              "pitch": 51,
              "velocity": 67,
              "position": 10,
              "duration": 0.00625
            },
            {
              "pitch": 38,
              "velocity": 100,
              "position": 10.5,
              "duration": 0.00625
            },
            {
              "pitch": 53,
              "velocity": 92,
              "position": 10.5,
              "duration": 0.00625
            },
            {
              "pitch": 44,
              "velocity": 70,
              "position": 11,
              "duration": 0.00625
            },
            {
              "pitch": 51,
              "velocity": 67,
              "position": 11,
              "duration": 0.00625
            },
            {
              "pitch": 33,
              "velocity": 49,
              "position": 11.5,
              "duration": 0.00625
            },
            {
              "pitch": 53,
              "velocity": 92,
              "position": 11.5,
              "duration": 0.00625
            },
            {
              "pitch": 33,
              "velocity": 75,
              "position": 12,
              "duration": 0.00625
            },
            {
              "pitch": 44,
              "velocity": 70,
              "position": 12,
              "duration": 0.00625
            },
            {
              "pitch": 51,
              "velocity": 67,
              "position": 12,
              "duration": 0.00625
            },
            {
              "pitch": 53,
              "velocity": 92,
              "position": 12.5,
              "duration": 0.00625
            },
            {
              "pitch": 38,
              "velocity": 100,
              "position": 13,
              "duration": 0.00625
            },
            {
              "pitch": 44,
              "velocity": 70,
              "position": 13,
              "duration": 0.00625
            },
            {
              "pitch": 51,
              "velocity": 67,
              "position": 13,
              "duration": 0.00625
            },
            {
              "pitch": 53,
              "velocity": 92,
              "position": 13.5,
              "duration": 0.00625
            },
            {
              "pitch": 33,
              "velocity": 75,
              "position": 14,
              "duration": 0.00625
            },
            {
              "pitch": 44,
              "velocity": 70,
              "position": 14,
              "duration": 0.00625
            },
            {
              "pitch": 51,
              "velocity": 67,
              "position": 14,
              "duration": 0.00625
            },
            {
              "pitch": 38,
              "velocity": 44,
              "position": 14.25,
              "duration": 0.00625
            },
            {
              "pitch": 33,
              "velocity": 75,
              "position": 14.5,
              "duration": 0.00625
            },
            {
              "pitch": 38,
              "velocity": 73,
              "position": 14.5,
              "duration": 0.00625
            },
            {
              "pitch": 53,
              "velocity": 92,
              "position": 14.5,
              "duration": 0.00625
            },
            {
              "pitch": 38,
              "velocity": 65,
              "position": 14.75,
              "duration": 0.00625
            },
            {
              "pitch": 38,
              "velocity": 100,
              "position": 15,
              "duration": 0.00625
            },
            {
              "pitch": 44,
              "velocity": 70,
              "position": 15,
              "duration": 0.00625
            },
            {
              "pitch": 51,
              "velocity": 67,
              "position": 15,
              "duration": 0.00625
            },
            {
              "pitch": 38,
              "velocity": 65,
              "position": 15.25,
              "duration": 0.00625
            },
            {
              "pitch": 33,
              "velocity": 49,
              "position": 15.5,
              "duration": 0.00625
            },
            {
              "pitch": 38,
              "velocity": 100,
              "position": 15.5,
              "duration": 0.00625
            },
            {
              "pitch": 53,
              "velocity": 92,
              "position": 15.5,
              "duration": 0.00625
            },
            {
              "pitch": 44,
              "velocity": 70,
              "position": 16,
              "duration": 0.00625
            },
            {
              "pitch": 33,
              "velocity": 75,
              "position": 16.5,
              "duration": 0.00625
            },
            {
              "pitch": 38,
              "velocity": 110,
              "position": 17,
              "duration": 0.00625
            },
            {
              "pitch": 44,
              "velocity": 70,
              "position": 17,
              "duration": 0.00625
            },
            {
              "pitch": 57,
              "velocity": 105,
              "position": 17,
              "duration": 0.00625
            },
            {
              "pitch": 33,
              "velocity": 49,
              "position": 17.5,
              "duration": 0.00625
            },
            {
              "pitch": 53,
              "velocity": 92,
              "position": 17.5,
              "duration": 0.00625
            },
            {
              "pitch": 33,
              "velocity": 75,
              "position": 18,
              "duration": 0.00625
            },
            {
              "pitch": 44,
              "velocity": 70,
              "position": 18,
              "duration": 0.00625
            },
            {
              "pitch": 51,
              "velocity": 67,
              "position": 18,
              "duration": 0.00625
            },
            {
              "pitch": 38,
              "velocity": 100,
              "position": 18.5,
              "duration": 0.00625
            },
            {
              "pitch": 53,
              "velocity": 97,
              "position": 18.5,
              "duration": 0.00625
            },
            {
              "pitch": 44,
              "velocity": 70,
              "position": 19,
              "duration": 0.00625
            },
            {
              "pitch": 51,
              "velocity": 62,
              "position": 19,
              "duration": 0.00625
            },
            {
              "pitch": 33,
              "velocity": 49,
              "position": 19.5,
              "duration": 0.00625
            },
            {
              "pitch": 53,
              "velocity": 92,
              "position": 19.5,
              "duration": 0.00625
            },
            {
              "pitch": 33,
              "velocity": 75,
              "position": 20,
              "duration": 0.00625
            },
            {
              "pitch": 44,
              "velocity": 70,
              "position": 20,
              "duration": 0.00625
            },
            {
              "pitch": 51,
              "velocity": 67,
              "position": 20,
              "duration": 0.00625
            },
            {
              "pitch": 53,
              "velocity": 92,
              "position": 20.5,
              "duration": 0.00625
            },
            {
              "pitch": 38,
              "velocity": 100,
              "position": 21,
              "duration": 0.00625
            },
            {
              "pitch": 44,
              "velocity": 70,
              "position": 21,
              "duration": 0.00625
            },
            {
              "pitch": 51,
              "velocity": 67,
              "position": 21,
              "duration": 0.00625
            },
            {
              "pitch": 53,
              "velocity": 99,
              "position": 21.5,
              "duration": 0.00625
            },
            {
              "pitch": 33,
              "velocity": 75,
              "position": 22,
              "duration": 0.00625
            },
            {
              "pitch": 44,
              "velocity": 70,
              "position": 22,
              "duration": 0.00625
            },
            {
              "pitch": 51,
              "velocity": 67,
              "position": 22,
              "duration": 0.00625
            },
            {
              "pitch": 33,
              "velocity": 75,
              "position": 22.5,
              "duration": 0.00625
            },
            {
              "pitch": 53,
              "velocity": 92,
              "position": 22.5,
              "duration": 0.00625
            },
            {
              "pitch": 38,
              "velocity": 100,
              "position": 23,
              "duration": 0.00625
            },
            {
              "pitch": 44,
              "velocity": 70,
              "position": 23,
              "duration": 0.00625
            },
            {
              "pitch": 51,
              "velocity": 67,
              "position": 23,
              "duration": 0.00625
            },
            {
              "pitch": 33,
              "velocity": 49,
              "position": 23.5,
              "duration": 0.00625
            },
            {
              "pitch": 53,
              "velocity": 92,
              "position": 23.5,
              "duration": 0.00625
            },
            {
              "pitch": 33,
              "velocity": 55,
              "position": 24,
              "duration": 0.00625
            },
            {
              "pitch": 49,
              "velocity": 100,
              "position": 24,
              "duration": 0.00625
            },
            {
              "pitch": 57,
              "velocity": 100,
              "position": 24,
              "duration": 0.00625
            }
          ]
        },
        "10": {
          "ctab": {
            "srcChannel": 10,
            "name": "Bass",
            "accType": "BASS",
            "editable": false,
            "mutedNotes": [],
            "mutedChords": [
              "dim7",
              "dim",
              "minMaj7(9)",
              "minMaj7",
              "min7(11)",
              "min7(9)",
              "min(9)",
              "m7b5",
              "min7",
              "min6",
              "min"
            ],
            "autoStart": false,
            "sourceChordNote": 0,
            "sourceChordType": "Maj",
            "ctb2Low": null,
            "ctb2Main": {
              "ntr": "ROOT_TRANSPOSITION",
              "ntt": "BYPASS",
              "bassOn": false,
              "chordRootUpperLimit": 3,
              "noteLowLimit": 28,
              "noteHighLimit": 127,
              "rtr": "PITCH_SHIFT"
            },
            "ctb2High": {
              "ntr": "ROOT_FIXED",
              "ntt": "BYPASS",
              "bassOn": false,
              "chordRootUpperLimit": 3,
              "noteLowLimit": 0,
              "noteHighLimit": 127,
              "rtr": "PITCH_SHIFT"
            },
            "ctb2MiddleLowPitch": 0,
            "ctb2MiddleHighPitch": 95
          },
          "notes": [
            {
              "pitch": 24,
              "velocity": 61,
              "position": 0,
              "duration": 0.4395833333333333
            },
            {
              "pitch": 24,
              "velocity": 60,
              "position": 0.5,
              "duration": 0.4395833333333333
            },
            {
              "pitch": 24,
              "velocity": 61,
              "position": 1,
              "duration": 0.4395833333333333
            },
            {
              "pitch": 24,
              "velocity": 60,
              "position": 1.5,
              "duration": 0.4395833333333333
            },
            {
              "pitch": 24,
              "velocity": 61,
              "position": 2,
              "duration": 0.4395833333333333
            },
            {
              "pitch": 24,
              "velocity": 60,
              "position": 2.5,
              "duration": 0.4395833333333333
            },
            {
              "pitch": 24,
              "velocity": 61,
              "position": 3,
              "duration": 0.4395833333333333
            },
            {
              "pitch": 24,
              "velocity": 60,
              "position": 3.5,
              "duration": 0.4395833333333333
            },
            {
              "pitch": 31,
              "velocity": 61,
              "position": 4,
              "duration": 0.4395833333333333
            },
            {
              "pitch": 31,
              "velocity": 60,
              "position": 4.5,
              "duration": 0.4395833333333333
            },
            {
              "pitch": 31,
              "velocity": 61,
              "position": 5,
              "duration": 0.4395833333333333
            },
            {
              "pitch": 31,
              "velocity": 60,
              "position": 5.5,
              "duration": 0.4395833333333333
            },
            {
              "pitch": 31,
              "velocity": 61,
              "position": 6,
              "duration": 0.4395833333333333
            },
            {
              "pitch": 31,
              "velocity": 60,
              "position": 6.5,
              "duration": 0.4395833333333333
            },
            {
              "pitch": 31,
              "velocity": 61,
              "position": 7,
              "duration": 0.4395833333333333
            },
            {
              "pitch": 31,
              "velocity": 60,
              "position": 7.5,
              "duration": 0.4395833333333333
            },
            {
              "pitch": 29,
              "velocity": 61,
              "position": 8,
              "duration": 0.4395833333333333
            },
            {
              "pitch": 29,
              "velocity": 60,
              "position": 8.5,
              "duration": 0.4395833333333333
            },
            {
              "pitch": 29,
              "velocity": 61,
              "position": 9,
              "duration": 0.4395833333333333
            },
            {
              "pitch": 29,
              "velocity": 60,
              "position": 9.5,
              "duration": 0.4395833333333333
            },
            {
              "pitch": 29,
              "velocity": 61,
              "position": 10,
              "duration": 0.4395833333333333
            },
            {
              "pitch": 29,
              "velocity": 60,
              "position": 10.5,
              "duration": 0.4395833333333333
            },
            {
              "pitch": 29,
              "velocity": 61,
              "position": 11,
              "duration": 0.4395833333333333
            },
            {
              "pitch": 29,
              "velocity": 60,
              "position": 11.5,
              "duration": 0.4395833333333333
            },
            {
              "pitch": 26,
              "velocity": 61,
              "position": 12,
              "duration": 0.4395833333333333
            },
            {
              "pitch": 26,
              "velocity": 60,
              "position": 12.5,
              "duration": 0.4395833333333333
            },
            {
              "pitch": 26,
              "velocity": 61,
              "position": 13,
              "duration": 0.4395833333333333
            },
            {
              "pitch": 26,
              "velocity": 60,
              "position": 13.5,
              "duration": 0.4395833333333333
            },
            {
              "pitch": 26,
              "velocity": 61,
              "position": 14,
              "duration": 0.4395833333333333
            },
            {
              "pitch": 26,
              "velocity": 60,
              "position": 14.5,
              "duration": 0.4395833333333333
            },
            {
              "pitch": 26,
              "velocity": 61,
              "position": 15,
              "duration": 0.4395833333333333
            },
            {
              "pitch": 26,
              "velocity": 60,
              "position": 15.5,
              "duration": 0.4395833333333333
            },
            {
              "pitch": 24,
              "velocity": 61,
              "position": 16,
              "duration": 0.4395833333333333
            },
            {
              "pitch": 24,
              "velocity": 60,
              "position": 16.5,
              "duration": 0.4395833333333333
            },
            {
              "pitch": 24,
              "velocity": 61,
              "position": 17,
              "duration": 0.4395833333333333
            },
            {
              "pitch": 24,
              "velocity": 60,
              "position": 17.5,
              "duration": 0.4395833333333333
            },
            {
              "pitch": 24,
              "velocity": 61,
              "position": 18,
              "duration": 0.4395833333333333
            },
            {
              "pitch": 24,
              "velocity": 60,
              "position": 18.5,
              "duration": 0.4395833333333333
            },
            {
              "pitch": 24,
              "velocity": 61,
              "position": 19,
              "duration": 0.4395833333333333
            },
            {
              "pitch": 24,
              "velocity": 60,
              "position": 19.5,
              "duration": 0.4395833333333333
            },
            {
              "pitch": 31,
              "velocity": 61,
              "position": 20,
              "duration": 0.4395833333333333
            },
            {
              "pitch": 31,
              "velocity": 60,
              "position": 20.5,
              "duration": 0.4395833333333333
            },
            {
              "pitch": 31,
              "velocity": 61,
              "position": 21,
              "duration": 0.4395833333333333
            },
            {
              "pitch": 31,
              "velocity": 60,
              "position": 21.5,
              "duration": 0.4395833333333333
            },
            {
              "pitch": 31,
              "velocity": 61,
              "position": 22,
              "duration": 0.4395833333333333
            },
            {
              "pitch": 31,
              "velocity": 60,
              "position": 22.5,
              "duration": 0.4395833333333333
            },
            {
              "pitch": 31,
              "velocity": 61,
              "position": 23,
              "duration": 0.4395833333333333
            },
            {
              "pitch": 31,
              "velocity": 60,
              "position": 23.5,
              "duration": 0.4395833333333333
            },
            {
              "pitch": 29,
              "velocity": 61,
              "position": 24,
              "duration": 10.995833333333334
            }
          ]
        },
        "11": {
          "ctab": {
            "srcChannel": 11,
            "name": "Guitar1",
            "accType": "CHORD1",
            "editable": false,
            "mutedNotes": [],
            "mutedChords": [
              "dim7",
              "dim",
              "minMaj7(9)",
              "minMaj7",
              "min7(11)",
              "min7(9)",
              "min(9)",
              "m7b5",
              "min7",
              "min6",
              "min"
            ],
            "autoStart": false,
            "sourceChordNote": 0,
            "sourceChordType": "Maj",
            "ctb2Low": null,
            "ctb2Main": {
              "ntr": "ROOT_TRANSPOSITION",
              "ntt": "BYPASS",
              "bassOn": false,
              "chordRootUpperLimit": 8,
              "noteLowLimit": 0,
              "noteHighLimit": 127,
              "rtr": "PITCH_SHIFT"
            },
            "ctb2High": {
              "ntr": "ROOT_FIXED",
              "ntt": "BYPASS",
              "bassOn": false,
              "chordRootUpperLimit": 7,
              "noteLowLimit": 0,
              "noteHighLimit": 127,
              "rtr": "PITCH_SHIFT"
            },
            "ctb2MiddleLowPitch": 0,
            "ctb2MiddleHighPitch": 95
          },
          "notes": [
            {
              "pitch": 60,
              "velocity": 45,
              "position": 0,
              "duration": 0.99375
            },
            {
              "pitch": 67,
              "velocity": 45,
              "position": 1.5,
              "duration": 0.49583333333333335
            },
            {
              "pitch": 65,
              "velocity": 46,
              "position": 2,
              "duration": 0.49583333333333335
            },
            {
              "pitch": 60,
              "velocity": 40,
              "position": 1,
              "duration": 2.495833333333333
            },
            {
              "pitch": 64,
              "velocity": 98,
              "position": 2.5,
              "duration": 1.4958333333333333
            },
            {
              "pitch": 58,
              "velocity": 46,
              "position": 3.5,
              "duration": 1.4958333333333333
            },
            {
              "pitch": 67,
              "velocity": 45,
              "position": 5.5,
              "duration": 0.49583333333333335
            },
            {
              "pitch": 65,
              "velocity": 46,
              "position": 6,
              "duration": 0.49583333333333335
            },
            {
              "pitch": 58,
              "velocity": 40,
              "position": 5,
              "duration": 2.495833333333333
            },
            {
              "pitch": 64,
              "velocity": 98,
              "position": 6.5,
              "duration": 1.4958333333333333
            },
            {
              "pitch": 57,
              "velocity": 46,
              "position": 7.5,
              "duration": 1.4958333333333333
            },
            {
              "pitch": 67,
              "velocity": 45,
              "position": 9.5,
              "duration": 0.49583333333333335
            },
            {
              "pitch": 65,
              "velocity": 46,
              "position": 10,
              "duration": 0.49583333333333335
            },
            {
              "pitch": 57,
              "velocity": 40,
              "position": 9,
              "duration": 2.495833333333333
            },
            {
              "pitch": 64,
              "velocity": 98,
              "position": 10.5,
              "duration": 1.4958333333333333
            },
            {
              "pitch": 57,
              "velocity": 46,
              "position": 11.5,
              "duration": 1.4958333333333333
            },
            {
              "pitch": 67,
              "velocity": 45,
              "position": 13.5,
              "duration": 0.49583333333333335
            },
            {
              "pitch": 65,
              "velocity": 46,
              "position": 14,
              "duration": 0.49583333333333335
            },
            {
              "pitch": 57,
              "velocity": 40,
              "position": 13,
              "duration": 2.495833333333333
            },
            {
              "pitch": 64,
              "velocity": 98,
              "position": 14.5,
              "duration": 1.4958333333333333
            },
            {
              "pitch": 60,
              "velocity": 46,
              "position": 15.5,
              "duration": 1.4958333333333333
            },
            {
              "pitch": 67,
              "velocity": 45,
              "position": 17.5,
              "duration": 0.49583333333333335
            },
            {
              "pitch": 65,
              "velocity": 46,
              "position": 18,
              "duration": 0.49583333333333335
            },
            {
              "pitch": 60,
              "velocity": 40,
              "position": 17,
              "duration": 2.495833333333333
            },
            {
              "pitch": 64,
              "velocity": 98,
              "position": 18.5,
              "duration": 1.4958333333333333
            },
            {
              "pitch": 58,
              "velocity": 46,
              "position": 19.5,
              "duration": 1.4958333333333333
            },
            {
              "pitch": 67,
              "velocity": 45,
              "position": 21.5,
              "duration": 0.49583333333333335
            },
            {
              "pitch": 65,
              "velocity": 46,
              "position": 22,
              "duration": 0.9958333333333333
            },
            {
              "pitch": 58,
              "velocity": 40,
              "position": 21,
              "duration": 2.495833333333333
            },
            {
              "pitch": 64,
              "velocity": 98,
              "position": 23,
              "duration": 1.4958333333333333
            },
            {
              "pitch": 57,
              "velocity": 46,
              "position": 24,
              "duration": 10.995833333333334
            }
          ]
        },
        "12": {
          "ctab": {
            "srcChannel": 12,
            "name": "Piano",
            "accType": "CHORD2",
            "editable": false,
            "mutedNotes": [],
            "mutedChords": [
              "dim7",
              "dim",
              "minMaj7(9)",
              "minMaj7",
              "min7(11)",
              "min7(9)",
              "min(9)",
              "m7b5",
              "min7",
              "min6",
              "min"
            ],
            "autoStart": false,
            "sourceChordNote": 0,
            "sourceChordType": "Maj",
            "ctb2Low": null,
            "ctb2Main": {
              "ntr": "ROOT_TRANSPOSITION",
              "ntt": "BYPASS",
              "bassOn": false,
              "chordRootUpperLimit": 10,
              "noteLowLimit": 0,
              "noteHighLimit": 127,
              "rtr": "PITCH_SHIFT"
            },
            "ctb2High": null,
            "ctb2MiddleLowPitch": 0,
            "ctb2MiddleHighPitch": 127
          },
          "notes": [
            {
              "pitch": 60,
              "velocity": 107,
              "position": 0.0020833333333333333,
              "duration": 0.99375
            },
            {
              "pitch": 72,
              "velocity": 123,
              "position": 0.0020833333333333333,
              "duration": 0.99375
            },
            {
              "pitch": 60,
              "velocity": 94,
              "position": 1,
              "duration": 1.4958333333333333
            },
            {
              "pitch": 67,
              "velocity": 80,
              "position": 1.5,
              "duration": 0.9958333333333333
            },
            {
              "pitch": 72,
              "velocity": 72,
              "position": 1,
              "duration": 1.4958333333333333
            },
            {
              "pitch": 79,
              "velocity": 84,
              "position": 1.5,
              "duration": 0.9958333333333333
            },
            {
              "pitch": 65,
              "velocity": 107,
              "position": 2,
              "duration": 0.9958333333333333
            },
            {
              "pitch": 77,
              "velocity": 111,
              "position": 2,
              "duration": 0.9958333333333333
            },
            {
              "pitch": 64,
              "velocity": 98,
              "position": 2.5,
              "duration": 1.4958333333333333
            },
            {
              "pitch": 76,
              "velocity": 102,
              "position": 2.5,
              "duration": 1.4958333333333333
            },
            {
              "pitch": 58,
              "velocity": 107,
              "position": 3.5,
              "duration": 1.49375
            },
            {
              "pitch": 70,
              "velocity": 85,
              "position": 3.5,
              "duration": 1.49375
            },
            {
              "pitch": 58,
              "velocity": 94,
              "position": 5,
              "duration": 1.4958333333333333
            },
            {
              "pitch": 67,
              "velocity": 80,
              "position": 5.5,
              "duration": 0.9958333333333333
            },
            {
              "pitch": 70,
              "velocity": 72,
              "position": 5,
              "duration": 1.4958333333333333
            },
            {
              "pitch": 79,
              "velocity": 84,
              "position": 5.5,
              "duration": 0.9958333333333333
            },
            {
              "pitch": 65,
              "velocity": 107,
              "position": 6,
              "duration": 0.9958333333333333
            },
            {
              "pitch": 77,
              "velocity": 111,
              "position": 6,
              "duration": 0.9958333333333333
            },
            {
              "pitch": 64,
              "velocity": 84,
              "position": 6.5,
              "duration": 1.4958333333333333
            },
            {
              "pitch": 76,
              "velocity": 88,
              "position": 6.5,
              "duration": 1.4958333333333333
            },
            {
              "pitch": 57,
              "velocity": 105,
              "position": 7.5,
              "duration": 1.49375
            },
            {
              "pitch": 69,
              "velocity": 83,
              "position": 7.5,
              "duration": 1.49375
            },
            {
              "pitch": 57,
              "velocity": 105,
              "position": 9,
              "duration": 1.4958333333333333
            },
            {
              "pitch": 67,
              "velocity": 80,
              "position": 9.5,
              "duration": 0.9958333333333333
            },
            {
              "pitch": 69,
              "velocity": 83,
              "position": 9,
              "duration": 1.4958333333333333
            },
            {
              "pitch": 79,
              "velocity": 84,
              "position": 9.5,
              "duration": 0.9958333333333333
            },
            {
              "pitch": 65,
              "velocity": 107,
              "position": 10,
              "duration": 0.9958333333333333
            },
            {
              "pitch": 77,
              "velocity": 111,
              "position": 10,
              "duration": 0.9958333333333333
            },
            {
              "pitch": 64,
              "velocity": 102,
              "position": 10.5,
              "duration": 1.4958333333333333
            },
            {
              "pitch": 76,
              "velocity": 106,
              "position": 10.5,
              "duration": 1.4958333333333333
            },
            {
              "pitch": 57,
              "velocity": 111,
              "position": 11.5,
              "duration": 1.49375
            },
            {
              "pitch": 69,
              "velocity": 89,
              "position": 11.5,
              "duration": 1.49375
            },
            {
              "pitch": 57,
              "velocity": 107,
              "position": 13,
              "duration": 1.4958333333333333
            },
            {
              "pitch": 67,
              "velocity": 80,
              "position": 13.5,
              "duration": 0.9958333333333333
            },
            {
              "pitch": 69,
              "velocity": 85,
              "position": 13,
              "duration": 1.4958333333333333
            },
            {
              "pitch": 79,
              "velocity": 96,
              "position": 13.5,
              "duration": 0.9958333333333333
            },
            {
              "pitch": 65,
              "velocity": 98,
              "position": 14,
              "duration": 0.9958333333333333
            },
            {
              "pitch": 77,
              "velocity": 114,
              "position": 14,
              "duration": 0.9958333333333333
            },
            {
              "pitch": 64,
              "velocity": 96,
              "position": 14.5,
              "duration": 1.4958333333333333
            },
            {
              "pitch": 76,
              "velocity": 112,
              "position": 14.5,
              "duration": 1.4958333333333333
            },
            {
              "pitch": 60,
              "velocity": 107,
              "position": 15.5,
              "duration": 1.49375
            },
            {
              "pitch": 72,
              "velocity": 123,
              "position": 15.5,
              "duration": 1.49375
            },
            {
              "pitch": 60,
              "velocity": 102,
              "position": 17,
              "duration": 1.4958333333333333
            },
            {
              "pitch": 67,
              "velocity": 80,
              "position": 17.5,
              "duration": 0.9958333333333333
            },
            {
              "pitch": 72,
              "velocity": 118,
              "position": 17,
              "duration": 1.4958333333333333
            },
            {
              "pitch": 79,
              "velocity": 96,
              "position": 17.5,
              "duration": 0.9958333333333333
            },
            {
              "pitch": 65,
              "velocity": 107,
              "position": 18,
              "duration": 0.9958333333333333
            },
            {
              "pitch": 77,
              "velocity": 123,
              "position": 18,
              "duration": 0.9958333333333333
            },
            {
              "pitch": 64,
              "velocity": 94,
              "position": 18.5,
              "duration": 1.4958333333333333
            },
            {
              "pitch": 76,
              "velocity": 110,
              "position": 18.5,
              "duration": 1.4958333333333333
            },
            {
              "pitch": 58,
              "velocity": 102,
              "position": 19.5,
              "duration": 1.49375
            },
            {
              "pitch": 70,
              "velocity": 118,
              "position": 19.5,
              "duration": 1.49375
            },
            {
              "pitch": 58,
              "velocity": 107,
              "position": 21,
              "duration": 1.4958333333333333
            },
            {
              "pitch": 67,
              "velocity": 102,
              "position": 21.5,
              "duration": 0.9958333333333333
            },
            {
              "pitch": 70,
              "velocity": 123,
              "position": 21,
              "duration": 1.4958333333333333
            },
            {
              "pitch": 79,
              "velocity": 118,
              "position": 21.5,
              "duration": 0.9958333333333333
            },
            {
              "pitch": 65,
              "velocity": 96,
              "position": 22,
              "duration": 0.9958333333333333
            },
            {
              "pitch": 77,
              "velocity": 112,
              "position": 22,
              "duration": 0.9958333333333333
            },
            {
              "pitch": 64,
              "velocity": 107,
              "position": 23,
              "duration": 1.4958333333333333
            },
            {
              "pitch": 76,
              "velocity": 123,
              "position": 23,
              "duration": 1.4958333333333333
            },
            {
              "pitch": 57,
              "velocity": 100,
              "position": 24,
              "duration": 10.995833333333334
            },
            {
              "pitch": 69,
              "velocity": 116,
              "position": 24.077083333333334,
              "duration": 10.995833333333334
            }
          ]
        },
        "13": {
          "ctab": {
            "srcChannel": 13,
            "name": "Strings",
            "accType": "PAD",
            "editable": false,
            "mutedNotes": [],
            "mutedChords": [
              "dim7",
              "dim",
              "minMaj7(9)",
              "minMaj7",
              "min7(11)",
              "min7(9)",
              "min(9)",
              "m7b5",
              "min7",
              "min6",
              "min"
            ],
            "autoStart": false,
            "sourceChordNote": 0,
            "sourceChordType": "Maj",
            "ctb2Low": null,
            "ctb2Main": {
              "ntr": "ROOT_TRANSPOSITION",
              "ntt": "BYPASS",
              "bassOn": false,
              "chordRootUpperLimit": 5,
              "noteLowLimit": 57,
              "noteHighLimit": 68,
              "rtr": "PITCH_SHIFT"
            },
            "ctb2High": null,
            "ctb2MiddleLowPitch": 0,
            "ctb2MiddleHighPitch": 127
          },
          "notes": [
            {
              "pitch": 60,
              "velocity": 50,
              "position": 0.0020833333333333333,
              "duration": 3.995833333333333
            },
            {
              "pitch": 64,
              "velocity": 50,
              "position": 0.0020833333333333333,
              "duration": 3.995833333333333
            },
            {
              "pitch": 67,
              "velocity": 50,
              "position": 0.0020833333333333333,
              "duration": 3.995833333333333
            },
            {
              "pitch": 58,
              "velocity": 50,
              "position": 4,
              "duration": 3.995833333333333
            },
            {
              "pitch": 65,
              "velocity": 50,
              "position": 4,
              "duration": 3.995833333333333
            },
            {
              "pitch": 67,
              "velocity": 50,
              "position": 4,
              "duration": 3.995833333333333
            },
            {
              "pitch": 60,
              "velocity": 50,
              "position": 8,
              "duration": 3.995833333333333
            },
            {
              "pitch": 57,
              "velocity": 50,
              "position": 8,
              "duration": 7.995833333333334
            },
            {
              "pitch": 62,
              "velocity": 50,
              "position": 12,
              "duration": 3.995833333333333
            },
            {
              "pitch": 65,
              "velocity": 50,
              "position": 8,
              "duration": 7.995833333333334
            },
            {
              "pitch": 60,
              "velocity": 50,
              "position": 16,
              "duration": 3.995833333333333
            },
            {
              "pitch": 64,
              "velocity": 50,
              "position": 16,
              "duration": 3.995833333333333
            },
            {
              "pitch": 67,
              "velocity": 50,
              "position": 16,
              "duration": 3.995833333333333
            },
            {
              "pitch": 58,
              "velocity": 50,
              "position": 20,
              "duration": 3.995833333333333
            },
            {
              "pitch": 65,
              "velocity": 50,
              "position": 20,
              "duration": 3.995833333333333
            },
            {
              "pitch": 67,
              "velocity": 50,
              "position": 20,
              "duration": 3.995833333333333
            },
            {
              "pitch": 57,
              "velocity": 50,
              "position": 24,
              "duration": 10.995833333333334
            },
            {
              "pitch": 60,
              "velocity": 50,
              "position": 24,
              "duration": 10.995833333333334
            },
            {
              "pitch": 65,
              "velocity": 50,
              "position": 24,
              "duration": 10.995833333333334
            }
          ]
        },
        "14": {
          "ctab": {
            "srcChannel": 14,
            "name": "Organ",
            "accType": "PHRASE1",
            "editable": false,
            "mutedNotes": [],
            "mutedChords": [
              "dim7",
              "dim",
              "minMaj7(9)",
              "minMaj7",
              "min7(11)",
              "min7(9)",
              "min(9)",
              "m7b5",
              "min7",
              "min6",
              "min"
            ],
            "autoStart": false,
            "sourceChordNote": 0,
            "sourceChordType": "Maj",
            "ctb2Low": null,
            "ctb2Main": {
              "ntr": "ROOT_TRANSPOSITION",
              "ntt": "BYPASS",
              "bassOn": false,
              "chordRootUpperLimit": 4,
              "noteLowLimit": 57,
              "noteHighLimit": 68,
              "rtr": "PITCH_SHIFT"
            },
            "ctb2High": null,
            "ctb2MiddleLowPitch": 0,
            "ctb2MiddleHighPitch": 127
          },
          "notes": [
            {
              "pitch": 60,
              "velocity": 88,
              "position": 0,
              "duration": 3.995833333333333
            },
            {
              "pitch": 64,
              "velocity": 88,
              "position": 0,
              "duration": 3.995833333333333
            },
            {
              "pitch": 67,
              "velocity": 88,
              "position": 0,
              "duration": 3.995833333333333
            },
            {
              "pitch": 58,
              "velocity": 88,
              "position": 4,
              "duration": 3.995833333333333
            },
            {
              "pitch": 65,
              "velocity": 88,
              "position": 4,
              "duration": 3.995833333333333
            },
            {
              "pitch": 67,
              "velocity": 88,
              "position": 4,
              "duration": 3.995833333333333
            },
            {
              "pitch": 60,
              "velocity": 88,
              "position": 8,
              "duration": 3.995833333333333
            },
            {
              "pitch": 57,
              "velocity": 88,
              "position": 8,
              "duration": 7.995833333333334
            },
            {
              "pitch": 62,
              "velocity": 88,
              "position": 12,
              "duration": 3.995833333333333
            },
            {
              "pitch": 65,
              "velocity": 88,
              "position": 8,
              "duration": 7.995833333333334
            },
            {
              "pitch": 60,
              "velocity": 88,
              "position": 16,
              "duration": 3.995833333333333
            },
            {
              "pitch": 64,
              "velocity": 88,
              "position": 16,
              "duration": 3.995833333333333
            },
            {
              "pitch": 67,
              "velocity": 88,
              "position": 16,
              "duration": 3.995833333333333
            },
            {
              "pitch": 58,
              "velocity": 88,
              "position": 20,
              "duration": 3.995833333333333
            },
            {
              "pitch": 65,
              "velocity": 88,
              "position": 20,
              "duration": 3.995833333333333
            },
            {
              "pitch": 67,
              "velocity": 88,
              "position": 20,
              "duration": 3.995833333333333
            },
            {
              "pitch": 57,
              "velocity": 88,
              "position": 24,
              "duration": 10.995833333333334
            },
            {
              "pitch": 60,
              "velocity": 88,
              "position": 24,
              "duration": 10.995833333333334
            },
            {
              "pitch": 65,
              "velocity": 88,
              "position": 24,
              "duration": 10.995833333333334
            }
          ]
        },
        "15": {
          "ctab": {
            "srcChannel": 15,
            "name": "Guitar2",
            "accType": "PHRASE2",
            "editable": false,
            "mutedNotes": [],
            "mutedChords": [
              "dim7",
              "dim",
              "minMaj7(9)",
              "minMaj7",
              "min7(11)",
              "min7(9)",
              "min(9)",
              "m7b5",
              "min7",
              "min6",
              "min"
            ],
            "autoStart": false,
            "sourceChordNote": 0,
            "sourceChordType": "Maj",
            "ctb2Low": null,
            "ctb2Main": {
              "ntr": "ROOT_TRANSPOSITION",
              "ntt": "BYPASS",
              "bassOn": false,
              "chordRootUpperLimit": 3,
              "noteLowLimit": 48,
              "noteHighLimit": 59,
              "rtr": "PITCH_SHIFT"
            },
            "ctb2High": {
              "ntr": "ROOT_FIXED",
              "ntt": "BYPASS",
              "bassOn": false,
              "chordRootUpperLimit": 7,
              "noteLowLimit": 0,
              "noteHighLimit": 127,
              "rtr": "PITCH_SHIFT"
            },
            "ctb2MiddleLowPitch": 0,
            "ctb2MiddleHighPitch": 95
          },
          "notes": [
            {
              "pitch": 48,
              "velocity": 83,
              "position": 0,
              "duration": 0.4708333333333333
            },
            {
              "pitch": 55,
              "velocity": 83,
              "position": 0,
              "duration": 0.4708333333333333
            },
            {
              "pitch": 48,
              "velocity": 79,
              "position": 0.4895833333333333,
              "duration": 0.4083333333333333
            },
            {
              "pitch": 55,
              "velocity": 79,
              "position": 0.4895833333333333,
              "duration": 0.4083333333333333
            },
            {
              "pitch": 48,
              "velocity": 79,
              "position": 0.9895833333333334,
              "duration": 0.4083333333333333
            },
            {
              "pitch": 55,
              "velocity": 79,
              "position": 0.9895833333333334,
              "duration": 0.4083333333333333
            },
            {
              "pitch": 48,
              "velocity": 83,
              "position": 1.4895833333333333,
              "duration": 0.4083333333333333
            },
            {
              "pitch": 55,
              "velocity": 83,
              "position": 1.4895833333333333,
              "duration": 0.4083333333333333
            },
            {
              "pitch": 48,
              "velocity": 79,
              "position": 1.9895833333333333,
              "duration": 0.4083333333333333
            },
            {
              "pitch": 55,
              "velocity": 79,
              "position": 1.9895833333333333,
              "duration": 0.4083333333333333
            },
            {
              "pitch": 48,
              "velocity": 79,
              "position": 2.4895833333333335,
              "duration": 0.4083333333333333
            },
            {
              "pitch": 55,
              "velocity": 79,
              "position": 2.4895833333333335,
              "duration": 0.4083333333333333
            },
            {
              "pitch": 48,
              "velocity": 84,
              "position": 2.9895833333333335,
              "duration": 0.4083333333333333
            },
            {
              "pitch": 55,
              "velocity": 84,
              "position": 2.9895833333333335,
              "duration": 0.4083333333333333
            },
            {
              "pitch": 48,
              "velocity": 79,
              "position": 3.4895833333333335,
              "duration": 0.4083333333333333
            },
            {
              "pitch": 55,
              "velocity": 79,
              "position": 3.4895833333333335,
              "duration": 0.4083333333333333
            },
            {
              "pitch": 50,
              "velocity": 83,
              "position": 4,
              "duration": 0.4708333333333333
            },
            {
              "pitch": 55,
              "velocity": 83,
              "position": 4,
              "duration": 0.4708333333333333
            },
            {
              "pitch": 50,
              "velocity": 79,
              "position": 4.489583333333333,
              "duration": 0.4083333333333333
            },
            {
              "pitch": 55,
              "velocity": 79,
              "position": 4.489583333333333,
              "duration": 0.4083333333333333
            },
            {
              "pitch": 50,
              "velocity": 79,
              "position": 4.989583333333333,
              "duration": 0.4083333333333333
            },
            {
              "pitch": 55,
              "velocity": 79,
              "position": 4.989583333333333,
              "duration": 0.4083333333333333
            },
            {
              "pitch": 50,
              "velocity": 83,
              "position": 5.489583333333333,
              "duration": 0.4083333333333333
            },
            {
              "pitch": 55,
              "velocity": 83,
              "position": 5.489583333333333,
              "duration": 0.4083333333333333
            },
            {
              "pitch": 50,
              "velocity": 79,
              "position": 5.989583333333333,
              "duration": 0.4083333333333333
            },
            {
              "pitch": 55,
              "velocity": 79,
              "position": 5.989583333333333,
              "duration": 0.4083333333333333
            },
            {
              "pitch": 50,
              "velocity": 79,
              "position": 6.489583333333333,
              "duration": 0.4083333333333333
            },
            {
              "pitch": 55,
              "velocity": 79,
              "position": 6.489583333333333,
              "duration": 0.4083333333333333
            },
            {
              "pitch": 50,
              "velocity": 84,
              "position": 6.989583333333333,
              "duration": 0.4083333333333333
            },
            {
              "pitch": 55,
              "velocity": 84,
              "position": 6.989583333333333,
              "duration": 0.4083333333333333
            },
            {
              "pitch": 50,
              "velocity": 79,
              "position": 7.489583333333333,
              "duration": 0.4083333333333333
            },
            {
              "pitch": 55,
              "velocity": 79,
              "position": 7.489583333333333,
              "duration": 0.4083333333333333
            },
            {
              "pitch": 48,
              "velocity": 83,
              "position": 8,
              "duration": 0.4708333333333333
            },
            {
              "pitch": 53,
              "velocity": 83,
              "position": 8,
              "duration": 0.4708333333333333
            },
            {
              "pitch": 48,
              "velocity": 79,
              "position": 8.489583333333334,
              "duration": 0.4083333333333333
            },
            {
              "pitch": 53,
              "velocity": 79,
              "position": 8.489583333333334,
              "duration": 0.4083333333333333
            },
            {
              "pitch": 48,
              "velocity": 79,
              "position": 8.989583333333334,
              "duration": 0.4083333333333333
            },
            {
              "pitch": 53,
              "velocity": 79,
              "position": 8.989583333333334,
              "duration": 0.4083333333333333
            },
            {
              "pitch": 48,
              "velocity": 83,
              "position": 9.489583333333334,
              "duration": 0.4083333333333333
            },
            {
              "pitch": 53,
              "velocity": 83,
              "position": 9.489583333333334,
              "duration": 0.4083333333333333
            },
            {
              "pitch": 48,
              "velocity": 79,
              "position": 9.989583333333334,
              "duration": 0.4083333333333333
            },
            {
              "pitch": 53,
              "velocity": 79,
              "position": 9.989583333333334,
              "duration": 0.4083333333333333
            },
            {
              "pitch": 48,
              "velocity": 79,
              "position": 10.489583333333334,
              "duration": 0.4083333333333333
            },
            {
              "pitch": 53,
              "velocity": 79,
              "position": 10.489583333333334,
              "duration": 0.4083333333333333
            },
            {
              "pitch": 48,
              "velocity": 84,
              "position": 10.989583333333334,
              "duration": 0.4083333333333333
            },
            {
              "pitch": 53,
              "velocity": 84,
              "position": 10.989583333333334,
              "duration": 0.4083333333333333
            },
            {
              "pitch": 48,
              "velocity": 79,
              "position": 11.489583333333334,
              "duration": 0.4083333333333333
            },
            {
              "pitch": 53,
              "velocity": 79,
              "position": 11.489583333333334,
              "duration": 0.4083333333333333
            },
            {
              "pitch": 50,
              "velocity": 83,
              "position": 12,
              "duration": 0.4708333333333333
            },
            {
              "pitch": 53,
              "velocity": 83,
              "position": 12,
              "duration": 0.4708333333333333
            },
            {
              "pitch": 50,
              "velocity": 79,
              "position": 12.489583333333334,
              "duration": 0.4083333333333333
            },
            {
              "pitch": 53,
              "velocity": 79,
              "position": 12.489583333333334,
              "duration": 0.4083333333333333
            },
            {
              "pitch": 50,
              "velocity": 79,
              "position": 12.989583333333334,
              "duration": 0.4083333333333333
            },
            {
              "pitch": 53,
              "velocity": 79,
              "position": 12.989583333333334,
              "duration": 0.4083333333333333
            },
            {
              "pitch": 50,
              "velocity": 83,
              "position": 13.489583333333334,
              "duration": 0.4083333333333333
            },
            {
              "pitch": 53,
              "velocity": 83,
              "position": 13.489583333333334,
              "duration": 0.4083333333333333
            },
            {
              "pitch": 50,
              "velocity": 79,
              "position": 13.989583333333334,
              "duration": 0.4083333333333333
            },
            {
              "pitch": 53,
              "velocity": 79,
              "position": 13.989583333333334,
              "duration": 0.4083333333333333
            },
            {
              "pitch": 50,
              "velocity": 79,
              "position": 14.489583333333334,
              "duration": 0.4083333333333333
            },
            {
              "pitch": 53,
              "velocity": 79,
              "position": 14.489583333333334,
              "duration": 0.4083333333333333
            },
            {
              "pitch": 50,
              "velocity": 84,
              "position": 14.989583333333334,
              "duration": 0.4083333333333333
            },
            {
              "pitch": 53,
              "velocity": 84,
              "position": 14.989583333333334,
              "duration": 0.4083333333333333
            },
            {
              "pitch": 50,
              "velocity": 79,
              "position": 15.489583333333334,
              "duration": 0.4083333333333333
            },
            {
              "pitch": 53,
              "velocity": 79,
              "position": 15.489583333333334,
              "duration": 0.4083333333333333
            },
            {
              "pitch": 48,
              "velocity": 83,
              "position": 16,
              "duration": 0.4708333333333333
            },
            {
              "pitch": 55,
              "velocity": 83,
              "position": 16,
              "duration": 0.4708333333333333
            },
            {
              "pitch": 48,
              "velocity": 79,
              "position": 16.489583333333332,
              "duration": 0.4083333333333333
            },
            {
              "pitch": 55,
              "velocity": 79,
              "position": 16.489583333333332,
              "duration": 0.4083333333333333
            },
            {
              "pitch": 48,
              "velocity": 79,
              "position": 16.989583333333332,
              "duration": 0.4083333333333333
            },
            {
              "pitch": 55,
              "velocity": 79,
              "position": 16.989583333333332,
              "duration": 0.4083333333333333
            },
            {
              "pitch": 48,
              "velocity": 83,
              "position": 17.489583333333332,
              "duration": 0.4083333333333333
            },
            {
              "pitch": 55,
              "velocity": 83,
              "position": 17.489583333333332,
              "duration": 0.4083333333333333
            },
            {
              "pitch": 48,
              "velocity": 79,
              "position": 17.989583333333332,
              "duration": 0.4083333333333333
            },
            {
              "pitch": 55,
              "velocity": 79,
              "position": 17.989583333333332,
              "duration": 0.4083333333333333
            },
            {
              "pitch": 48,
              "velocity": 79,
              "position": 18.489583333333332,
              "duration": 0.4083333333333333
            },
            {
              "pitch": 55,
              "velocity": 79,
              "position": 18.489583333333332,
              "duration": 0.4083333333333333
            },
            {
              "pitch": 48,
              "velocity": 84,
              "position": 18.989583333333332,
              "duration": 0.4083333333333333
            },
            {
              "pitch": 55,
              "velocity": 84,
              "position": 18.989583333333332,
              "duration": 0.4083333333333333
            },
            {
              "pitch": 48,
              "velocity": 79,
              "position": 19.489583333333332,
              "duration": 0.4083333333333333
            },
            {
              "pitch": 55,
              "velocity": 79,
              "position": 19.489583333333332,
              "duration": 0.4083333333333333
            },
            {
              "pitch": 50,
              "velocity": 83,
              "position": 20,
              "duration": 0.4708333333333333
            },
            {
              "pitch": 55,
              "velocity": 83,
              "position": 20,
              "duration": 0.4708333333333333
            },
            {
              "pitch": 50,
              "velocity": 79,
              "position": 20.489583333333332,
              "duration": 0.4083333333333333
            },
            {
              "pitch": 55,
              "velocity": 79,
              "position": 20.489583333333332,
              "duration": 0.4083333333333333
            },
            {
              "pitch": 50,
              "velocity": 79,
              "position": 20.989583333333332,
              "duration": 0.4083333333333333
            },
            {
              "pitch": 55,
              "velocity": 79,
              "position": 20.989583333333332,
              "duration": 0.4083333333333333
            },
            {
              "pitch": 50,
              "velocity": 83,
              "position": 21.489583333333332,
              "duration": 0.4083333333333333
            },
            {
              "pitch": 55,
              "velocity": 83,
              "position": 21.489583333333332,
              "duration": 0.4083333333333333
            },
            {
              "pitch": 50,
              "velocity": 79,
              "position": 21.989583333333332,
              "duration": 0.4083333333333333
            },
            {
              "pitch": 55,
              "velocity": 79,
              "position": 21.989583333333332,
              "duration": 0.4083333333333333
            },
            {
              "pitch": 50,
              "velocity": 79,
              "position": 22.489583333333332,
              "duration": 0.4083333333333333
            },
            {
              "pitch": 55,
              "velocity": 79,
              "position": 22.489583333333332,
              "duration": 0.4083333333333333
            },
            {
              "pitch": 50,
              "velocity": 84,
              "position": 22.989583333333332,
              "duration": 0.4083333333333333
            },
            {
              "pitch": 55,
              "velocity": 84,
              "position": 22.989583333333332,
              "duration": 0.4083333333333333
            },
            {
              "pitch": 50,
              "velocity": 79,
              "position": 23.489583333333332,
              "duration": 0.4083333333333333
            },
            {
              "pitch": 55,
              "velocity": 79,
              "position": 23.489583333333332,
              "duration": 0.4083333333333333
            },
            {
              "pitch": 48,
              "velocity": 30,
              "position": 24,
              "duration": 10.995833333333334
            },
            {
              "pitch": 53,
              "velocity": 30,
              "position": 24,
              "duration": 10.995833333333334
            }
          ]
        }
      }
    }
  }
}