{
  "name": "FunkPopRock.S693.STY",
  "tempo": 95,
  "timeSignature": "4/4",
  "ticksPerQuarter": 1920,
  "sffType": "SFF1",
  "division": "BINARY",
  "parts": {
    "Main_A": {
      "type": "Main_A",
      "sizeInBeats": 16,
      "channels": {
        "1": {
          "ctab": {
            "srcChannel": 1,
            "name": "Bass B",
            "accType": "BASS",
            "editable": false,
            "mutedNotes": [],
            "mutedChords": [
              "1+2+5",
              "1+5",
              "1+8",
              "7(#9)",
              "7(b13)",
              "7(b9)",
              "7(13)",
              "7#11",
              "7(9)",
              "7b5",
              "7sus4",
              "7th",
              "dim7",
              "dim",
              "min7(11)",
              "min7(9)",
              "m7b5",
              "min7",
              "min6",
              "Maj6(9)",
              "Maj7(9)",
              "Maj(9)",
              "Maj7#11",
              "Maj7",
              "Maj6",
              "Maj"
            ],
            "autoStart": false,
            "sourceChordNote": 0,
            "sourceChordType": "Maj7",
            "ctb2Low": null,
            "ctb2Main": {
              "ntr": "ROOT_TRANSPOSITION",
              "ntt": "MELODY",
              "bassOn": true,
              "chordRootUpperLimit": 3,
              "noteLowLimit": 28,
              "noteHighLimit": 127,
              "rtr": "PITCH_SHIFT_TO_ROOT"
            },
            "ctb2High": null
          },
          "notes": [
            {
              "pitch": 36,
              "velocity": 69,
              "position": 0.014583333333333334,
              "duration": 0.4875
            },
            {
              "pitch": 36,
              "velocity": 110,
              "position": 1.7541666666666667,
              "duration": 0.21666666666666667
            },
            {
              "pitch": 36,
              "velocity": 66,
              "position": 2.0104166666666665,
              "duration": 0.29791666666666666
            },
            {
              "pitch": 36,
              "velocity": 68,
              "position": 2.4895833333333335,
              "duration": 0.29791666666666666
            },
            {
              "pitch": 36,
              "velocity": 68,
              "position": 3.5104166666666665,
              "duration": 0.3104166666666667
            },
            {
              "pitch": 36,
              "velocity": 72,
              "position": 4,
              "duration": 0.48541666666666666
            },
            {
              "pitch": 36,
              "velocity": 110,
              "position": 5.75,
              "duration": 0.21458333333333332
            },
            {
              "pitch": 36,
              "velocity": 68,
              "position": 5.991666666666666,
              "duration": 0.3
            },
            {
              "pitch": 36,
              "velocity": 71,
              "position": 6.491666666666666,
              "duration": 0.3
            },
            {
              "pitch": 36,
              "velocity": 74,
              "position": 7.49375,
              "duration": 0.3104166666666667
            },
            {
              "pitch": 36,
              "velocity": 72,
              "position": 8.0125,
              "duration": 0.4875
            },
            {
              "pitch": 36,
              "velocity": 110,
              "position": 9.752083333333333,
              "duration": 0.21666666666666667
            },
            {
              "pitch": 36,
              "velocity": 69,
              "position": 10,
              "duration": 0.29791666666666666
            },
            {
              "pitch": 36,
              "velocity": 70,
              "position": 10.5,
              "duration": 0.29791666666666666
            },
            {
              "pitch": 36,
              "velocity": 71,
              "position": 11.491666666666667,
              "duration": 0.30833333333333335
            },
            {
              "pitch": 36,
              "velocity": 70,
              "position": 12,
              "duration": 0.48541666666666666
            },
            {
              "pitch": 36,
              "velocity": 110,
              "position": 13.760416666666666,
              "duration": 0.21041666666666667
            },
            {
              "pitch": 36,
              "velocity": 70,
              "position": 13.983333333333333,
              "duration": 0.3
            },
            {
              "pitch": 36,
              "velocity": 74,
              "position": 14.5,
              "duration": 0.29791666666666666
            },
            {
              "pitch": 36,
              "velocity": 70,
              "position": 15.5,
              "duration": 0.30833333333333335
            }
          ]
        },
        "4": {
          "ctab": {
            "srcChannel": 4,
            "name": "Organ rt",
            "accType": "PAD",
            "editable": false,
            "mutedNotes": [],
            "mutedChords": [
              "1+2+5",
              "sus4",
              "1+5",
              "1+8",
              "Maj7aug",
              "dim",
              "minMaj7(9)",
              "minMaj7",
              "min6",
              "min",
              "aug",
              "Maj7(9)",
              "Maj7#11",
              "Maj7",
              "Maj6",
              "Maj"
            ],
            "autoStart": false,
            "sourceChordNote": 0,
            "sourceChordType": "Maj7",
            "ctb2Low": null,
            "ctb2Main": {
              "ntr": "ROOT_TRANSPOSITION",
              "ntt": "MELODY",
              "bassOn": false,
              "chordRootUpperLimit": 10,
              "noteLowLimit": 0,
              "noteHighLimit": 127,
              "rtr": "PITCH_SHIFT"
            },
            "ctb2High": null
          },
          "notes": []
        },
        "8": {
          "ctab": {
            "srcChannel": 8,
            "name": "AddDrum",
            "accType": "SUBRHYTHM",
            "editable": false,
            "mutedNotes": [],
            "mutedChords": [],
            "autoStart": true,
            "sourceChordNote": 0,
            "sourceChordType": "Maj7",
            "ctb2Low": null,
            "ctb2Main": {
              "ntr": "ROOT_FIXED",
              "ntt": "BYPASS",
              "bassOn": false,
              "chordRootUpperLimit": 6,
              "noteLowLimit": 0,
              "noteHighLimit": 127,
              "rtr": "PITCH_SHIFT"
            },
            "ctb2High": null
          },
          "notes": [
            {
              "pitch": 42,
              "velocity": 120,
              "position": 0,
              "duration": 0.00625
            },
            {
              "pitch": 42,
              "velocity": 40,
              "position": 0.5,
              "duration": 0.00625
            },
            {
              "pitch": 32,
              "velocity": 106,
              "position": 1,
              "duration": 0.00625
            },
            {
              "pitch": 42,
              "velocity": 120,
              "position": 1,
              "duration": 0.00625
            },
            {
              "pitch": 42,
              "velocity": 40,
              "position": 1.5,
              "duration": 0.00625
            },
            {
              "pitch": 32,
              "velocity": 24,
              "position": 1.7708333333333333,
              "duration": 0.00625
            },
            {
              "pitch": 42,
              "velocity": 120,
              "position": 2,
              "duration": 0.00625
            },
            {
              "pitch": 32,
              "velocity": 24,
              "position": 2.2708333333333335,
              "duration": 0.00625
            },
            {
              "pitch": 42,
              "velocity": 40,
              "position": 2.5,
              "duration": 0.00625
            },
            {
              "pitch": 32,
              "velocity": 106,
              "position": 3,
              "duration": 0.00625
            },
            {
              "pitch": 42,
              "velocity": 120,
              "position": 3,
              "duration": 0.00625
            },
            {
              "pitch": 42,
              "velocity": 40,
              "position": 3.5,
              "duration": 0.00625
            },
            {
              "pitch": 42,
              "velocity": 120,
              "position": 4,
              "duration": 0.00625
            },
            {
              "pitch": 42,
              "velocity": 40,
              "position": 4.5,
              "duration": 0.00625
            },
            {
              "pitch": 32,
              "velocity": 106,
              "position": 5,
              "duration": 0.00625
            },
            {
              "pitch": 42,
              "velocity": 120,
              "position": 5,
              "duration": 0.00625
            },
            {
              "pitch": 42,
              "velocity": 40,
              "position": 5.5,
              "duration": 0.00625
            },
            {
              "pitch": 32,
              "velocity": 24,
              "position": 5.770833333333333,
              "duration": 0.00625
            },
            {
              "pitch": 42,
              "velocity": 120,
              "position": 6,
              "duration": 0.00625
            },
            {
              "pitch": 32,
              "velocity": 24,
              "position": 6.270833333333333,
              "duration": 0.00625
            },
            {
              "pitch": 42,
              "velocity": 40,
              "position": 6.5,
              "duration": 0.00625
            },
            {
              "pitch": 32,
              "velocity": 106,
              "position": 7,
              "duration": 0.00625
            },
            {
              "pitch": 42,
              "velocity": 120,
              "position": 7,
              "duration": 0.00625
            },
            {
              "pitch": 46,
              "velocity": 60,
              "position": 7.5,
              "duration": 0.00625
            },
            {
              "pitch": 26,
              "velocity": 50,
              "position": 0,
              "duration": 7.985416666666667
            },
            {
              "pitch": 42,
              "velocity": 120,
              "position": 8,
              "duration": 0.00625
            },
            {
              "pitch": 42,
              "velocity": 40,
              "position": 8.5,
              "duration": 0.00625
            },
            {
              "pitch": 32,
              "velocity": 106,
              "position": 9,
              "duration": 0.00625
            },
            {
              "pitch": 42,
              "velocity": 120,
              "position": 9,
              "duration": 0.00625
            },
            {
              "pitch": 42,
              "velocity": 40,
              "position": 9.5,
              "duration": 0.00625
            },
            {
              "pitch": 32,
              "velocity": 24,
              "position": 9.770833333333334,
              "duration": 0.00625
            },
            {
              "pitch": 42,
              "velocity": 120,
              "position": 10,
              "duration": 0.00625
            },
            {
              "pitch": 32,
              "velocity": 24,
              "position": 10.270833333333334,
              "duration": 0.00625
            },
            {
              "pitch": 42,
              "velocity": 40,
              "position": 10.5,
              "duration": 0.00625
            },
            {
              "pitch": 32,
              "velocity": 106,
              "position": 11,
              "duration": 0.00625
            },
            {
              "pitch": 42,
              "velocity": 120,
              "position": 11,
              "duration": 0.00625
            },
            {
              "pitch": 42,
              "velocity": 40,
              "position": 11.5,
              "duration": 0.00625
            },
            {
              "pitch": 42,
              "velocity": 120,
              "position": 12,
              "duration": 0.00625
            },
            {
              "pitch": 42,
              "velocity": 40,
              "position": 12.5,
              "duration": 0.00625
            },
            {
              "pitch": 32,
              "velocity": 106,
              "position": 13,
              "duration": 0.00625
            },
            {
              "pitch": 42,
              "velocity": 120,
              "position": 13,
              "duration": 0.00625
            },
            {
              "pitch": 42,
              "velocity": 40,
              "position": 13.5,
              "duration": 0.00625
            },
            {
              "pitch": 32,
              "velocity": 24,
              "position": 13.770833333333334,
              "duration": 0.00625
            },
            {
              "pitch": 42,
              "velocity": 120,
              "position": 14,
              "duration": 0.00625
            },
            {
              "pitch": 32,
              "velocity": 24,
              "position": 14.270833333333334,
              "duration": 0.00625
            },
            {
              "pitch": 42,
              "velocity": 40,
              "position": 14.5,
              "duration": 0.00625
            },
            {
              "pitch": 32,
              "velocity": 106,
              "position": 15,
              "duration": 0.00625
            },
            {
              "pitch": 42,
              "velocity": 120,
              "position": 15,
              "duration": 0.00625
            },
            {
              "pitch": 18,
              "velocity": 81,
              "position": 14.666666666666666,
              "duration": 0.4875
            },
            {
              "pitch": 17,
              "velocity": 127,
              "position": 15,
              "duration": 0.48541666666666666
            },
            {
              "pitch": 46,
              "velocity": 60,
              "position": 15.5,
              "duration": 0.00625
            },
            {
              "pitch": 18,
              "velocity": 81,
              "position": 15.166666666666666,
              "duration": 0.4875
            },
            {
              "pitch": 17,
              "velocity": 127,
              "position": 15.5,
              "duration": 0.48541666666666666
            },
            {
              "pitch": 26,
              "velocity": 50,
              "position": 8,
              "duration": 7.985416666666667
            }
          ]
        },
        "9": {
          "ctab": {
            "srcChannel": 9,
            "name": "MainDrum",
            "accType": "RHYTHM",
            "editable": false,
            "mutedNotes": [],
            "mutedChords": [],
            "autoStart": true,
            "sourceChordNote": 0,
            "sourceChordType": "Maj7",
            "ctb2Low": null,
            "ctb2Main": {
              "ntr": "ROOT_FIXED",
              "ntt": "BYPASS",
              "bassOn": false,
              "chordRootUpperLimit": 6,
              "noteLowLimit": 0,
              "noteHighLimit": 127,
              "rtr": "PITCH_SHIFT"
            },
            "ctb2High": null
          },
          "notes": [
            {
              "pitch": 35,
              "velocity": 100,
              "position": 0,
              "duration": 0.00625
            },
            {
              "pitch": 42,
              "velocity": 98,
              "position": 0,
              "duration": 0.00625
            },
            {
              "pitch": 42,
              "velocity": 46,
              "position": 0.5020833333333333,
              "duration": 0.00625
            },
            {
              "pitch": 38,
              "velocity": 104,
              "position": 1,
              "duration": 0.00625
            },
            {
              "pitch": 42,
              "velocity": 99,
              "position": 1,
              "duration": 0.00625
            },
            {
              "pitch": 42,
              "velocity": 37,
              "position": 1.5,
              "duration": 0.00625
            },
            {
              "pitch": 35,
              "velocity": 60,
              "position": 1.7708333333333333,
              "duration": 0.00625
            },
            {
              "pitch": 35,
              "velocity": 100,
              "position": 2,
              "duration": 0.00625
            },
            {
              "pitch": 42,
              "velocity": 84,
              "position": 2,
              "duration": 0.00625
            },
            {
              "pitch": 42,
              "velocity": 39,
              "position": 2.4895833333333335,
              "duration": 0.00625
            },
            {
              "pitch": 35,
              "velocity": 100,
              "position": 2.5,
              "duration": 0.00625
            },
            {
              "pitch": 38,
              "velocity": 104,
              "position": 3,
              "duration": 0.00625
            },
            {
              "pitch": 42,
              "velocity": 89,
              "position": 3,
              "duration": 0.00625
            },
            {
              "pitch": 42,
              "velocity": 33,
              "position": 3.4895833333333335,
              "duration": 0.00625
            },
            {
              "pitch": 35,
              "velocity": 80,
              "position": 3.5,
              "duration": 0.00625
            },
            {
              "pitch": 35,
              "velocity": 100,
              "position": 4,
              "duration": 0.00625
            },
            {
              "pitch": 42,
              "velocity": 95,
              "position": 4.004166666666666,
              "duration": 0.00625
            },
            {
              "pitch": 42,
              "velocity": 39,
              "position": 4.489583333333333,
              "duration": 0.00625
            },
            {
              "pitch": 38,
              "velocity": 104,
              "position": 5,
              "duration": 0.00625
            },
            {
              "pitch": 42,
              "velocity": 86,
              "position": 5,
              "duration": 0.00625
            },
            {
              "pitch": 42,
              "velocity": 37,
              "position": 5.491666666666666,
              "duration": 0.00625
            },
            {
              "pitch": 35,
              "velocity": 60,
              "position": 5.770833333333333,
              "duration": 0.00625
            },
            {
              "pitch": 42,
              "velocity": 96,
              "position": 5.989583333333333,
              "duration": 0.00625
            },
            {
              "pitch": 35,
              "velocity": 100,
              "position": 6,
              "duration": 0.00625
            },
            {
              "pitch": 35,
              "velocity": 100,
              "position": 6.5,
              "duration": 0.00625
            },
            {
              "pitch": 42,
              "velocity": 45,
              "position": 6.5,
              "duration": 0.00625
            },
            {
              "pitch": 38,
              "velocity": 104,
              "position": 7,
              "duration": 0.00625
            },
            {
              "pitch": 42,
              "velocity": 90,
              "position": 7,
              "duration": 0.00625
            },
            {
              "pitch": 35,
              "velocity": 80,
              "position": 7.5,
              "duration": 0.00625
            },
            {
              "pitch": 46,
              "velocity": 54,
              "position": 7.5,
              "duration": 0.00625
            },
            {
              "pitch": 35,
              "velocity": 100,
              "position": 8,
              "duration": 0.00625
            },
            {
              "pitch": 42,
              "velocity": 94,
              "position": 8,
              "duration": 0.00625
            },
            {
              "pitch": 42,
              "velocity": 36,
              "position": 8.502083333333333,
              "duration": 0.00625
            },
            {
              "pitch": 38,
              "velocity": 104,
              "position": 9,
              "duration": 0.00625
            },
            {
              "pitch": 42,
              "velocity": 89,
              "position": 9,
              "duration": 0.00625
            },
            {
              "pitch": 42,
              "velocity": 33,
              "position": 9.489583333333334,
              "duration": 0.00625
            },
            {
              "pitch": 35,
              "velocity": 60,
              "position": 9.770833333333334,
              "duration": 0.00625
            },
            {
              "pitch": 35,
              "velocity": 100,
              "position": 10,
              "duration": 0.00625
            },
            {
              "pitch": 42,
              "velocity": 93,
              "position": 10,
              "duration": 0.00625
            },
            {
              "pitch": 42,
              "velocity": 50,
              "position": 10.491666666666667,
              "duration": 0.00625
            },
            {
              "pitch": 35,
              "velocity": 100,
              "position": 10.5,
              "duration": 0.00625
            },
            {
              "pitch": 38,
              "velocity": 104,
              "position": 11,
              "duration": 0.00625
            },
            {
              "pitch": 42,
              "velocity": 90,
              "position": 11,
              "duration": 0.00625
            },
            {
              "pitch": 35,
              "velocity": 80,
              "position": 11.5,
              "duration": 0.00625
            },
            {
              "pitch": 42,
              "velocity": 51,
              "position": 11.504166666666666,
              "duration": 0.00625
            },
            {
              "pitch": 35,
              "velocity": 100,
              "position": 12,
              "duration": 0.00625
            },
            {
              "pitch": 42,
              "velocity": 99,
              "position": 12,
              "duration": 0.00625
            },
            {
              "pitch": 42,
              "velocity": 34,
              "position": 12.491666666666667,
              "duration": 0.00625
            },
            {
              "pitch": 38,
              "velocity": 104,
              "position": 13,
              "duration": 0.00625
            },
            {
              "pitch": 42,
              "velocity": 99,
              "position": 13,
              "duration": 0.00625
            },
            {
              "pitch": 42,
              "velocity": 38,
              "position": 13.491666666666667,
              "duration": 0.00625
            },
            {
              "pitch": 35,
              "velocity": 60,
              "position": 13.770833333333334,
              "duration": 0.00625
            },
            {
              "pitch": 42,
              "velocity": 92,
              "position": 13.99375,
              "duration": 0.00625
            },
            {
              "pitch": 35,
              "velocity": 100,
              "position": 14,
              "duration": 0.00625
            },
            {
              "pitch": 35,
              "velocity": 100,
              "position": 14.5,
              "duration": 0.00625
            },
            {
              "pitch": 42,
              "velocity": 43,
              "position": 14.504166666666666,
              "duration": 0.00625
            },
            {
              "pitch": 38,
              "velocity": 104,
              "position": 15,
              "duration": 0.00625
            },
            {
              "pitch": 42,
              "velocity": 96,
              "position": 15,
              "duration": 0.00625
            },
            {
              "pitch": 35,
              "velocity": 80,
              "position": 15.5,
              "duration": 0.00625
            },
            {
              "pitch": 46,
              "velocity": 54,
              "position": 15.5,
              "duration": 0.00625
            }
          ]
        },
        "10": {
          "ctab": {
            "srcChannel": 10,
            "name": "Bass A",
            "accType": "BASS",
            "editable": false,
            "mutedNotes": [],
            "mutedChords": [
              "sus4",
              "7aug",
              "Maj7aug",
              "minMaj7(9)",
              "minMaj7",
              "min(9)",
              "min",
              "aug"
            ],
            "autoStart": false,
            "sourceChordNote": 0,
            "sourceChordType": "Maj7",
            "ctb2Low": null,
            "ctb2Main": {
              "ntr": "ROOT_TRANSPOSITION",
              "ntt": "MELODY",
              "bassOn": true,
              "chordRootUpperLimit": 3,
              "noteLowLimit": 28,
              "noteHighLimit": 127,
              "rtr": "PITCH_SHIFT_TO_ROOT"
            },
            "ctb2High": null
          },
          "notes": [
            {
              "pitch": 36,
              "velocity": 69,
              "position": 0.014583333333333334,
              "duration": 0.4875
            },
            {
              "pitch": 36,
              "velocity": 110,
              "position": 1.7541666666666667,
              "duration": 0.21666666666666667
            },
            {
              "pitch": 36,
              "velocity": 66,
              "position": 2.0104166666666665,
              "duration": 0.29791666666666666
            },
            {
              "pitch": 36,
              "velocity": 68,
              "position": 2.4895833333333335,
              "duration": 0.29791666666666666
            },
            {
              "pitch": 36,
              "velocity": 68,
              "position": 3.5104166666666665,
              "duration": 0.3104166666666667
            },
            {
              "pitch": 36,
              "velocity": 72,
              "position": 4,
              "duration": 0.48541666666666666
            },
            {
              "pitch": 36,
              "velocity": 110,
              "position": 5.75,
              "duration": 0.21458333333333332
            },
            {
              "pitch": 36,
              "velocity": 68,
              "position": 5.991666666666666,
              "duration": 0.3
            },
            {
              "pitch": 36,
              "velocity": 71,
              "position": 6.491666666666666,
              "duration": 0.3
            },
            {
              "pitch": 36,
              "velocity": 74,
              "position": 7.49375,
              "duration": 0.3104166666666667
            },
            {
              "pitch": 36,
              "velocity": 72,
              "position": 8.0125,
              "duration": 0.4875
            },
            {
              "pitch": 36,
              "velocity": 110,
              "position": 9.752083333333333,
              "duration": 0.21666666666666667
            },
            {
              "pitch": 36,
              "velocity": 69,
              "position": 10,
              "duration": 0.29791666666666666
            },
            {
              "pitch": 36,
              "velocity": 70,
              "position": 10.5,
              "duration": 0.29791666666666666
            },
            {
              "pitch": 36,
              "velocity": 71,
              "position": 11.491666666666667,
              "duration": 0.30833333333333335
            },
            {
              "pitch": 36,
              "velocity": 70,
              "position": 12,
              "duration": 0.48541666666666666
            },
            {
              "pitch": 36,
              "velocity": 110,
              "position": 13.760416666666666,
              "duration": 0.21041666666666667
            },
            {
              "pitch": 36,
              "velocity": 70,
              "position": 13.983333333333333,
              "duration": 0.3
            },
            {
              "pitch": 36,
              "velocity": 74,
              "position": 14.5,
              "duration": 0.29791666666666666
            },
            {
              "pitch": 36,
              "velocity": 70,
              "position": 15.5,
              "duration": 0.30833333333333335
            }
          ]
        },
        "11": {
          "ctab": {
            "srcChannel": 11,
            "name": "Strat",
            "accType": "CHORD1",
            "editable": false,
            "mutedNotes": [],
            "mutedChords": [],
            "autoStart": false,
            "sourceChordNote": 0,
            "sourceChordType": "Maj7",
            "ctb2Low": null,
            "ctb2Main": {
              "ntr": "ROOT_TRANSPOSITION",
              "ntt": "MELODY",
              "bassOn": false,
              "chordRootUpperLimit": 7,
              "noteLowLimit": 0,
              "noteHighLimit": 127,
              "rtr": "PITCH_SHIFT"
            },
            "ctb2High": null
          },
          "notes": [
            {
              "pitch": 55,
              "velocity": 41,
              "position": 0.5,
              "duration": 0.20416666666666666
            },
            {
              "pitch": 59,
              "velocity": 41,
              "position": 0.5,
              "duration": 0.20416666666666666
            },
            {
              "pitch": 60,
              "velocity": 36,
              "position": 0.5,
              "duration": 0.20416666666666666
            },
            {
              "pitch": 64,
              "velocity": 38,
              "position": 0.5104166666666666,
              "duration": 0.20416666666666666
            },
            {
              "pitch": 60,
              "velocity": 49,
              "position": 1.28125,
              "duration": 0.20416666666666666
            },
            {
              "pitch": 64,
              "velocity": 41,
              "position": 1.28125,
              "duration": 0.20416666666666666
            },
            {
              "pitch": 55,
              "velocity": 42,
              "position": 1.2916666666666667,
              "duration": 0.20416666666666666
            },
            {
              "pitch": 59,
              "velocity": 42,
              "position": 1.2916666666666667,
              "duration": 0.20416666666666666
            },
            {
              "pitch": 55,
              "velocity": 41,
              "position": 2,
              "duration": 0.20416666666666666
            },
            {
              "pitch": 59,
              "velocity": 41,
              "position": 2,
              "duration": 0.20416666666666666
            },
            {
              "pitch": 60,
              "velocity": 43,
              "position": 2,
              "duration": 0.20416666666666666
            },
            {
              "pitch": 64,
              "velocity": 36,
              "position": 2.0104166666666665,
              "duration": 0.20416666666666666
            },
            {
              "pitch": 55,
              "velocity": 40,
              "position": 4.5,
              "duration": 0.20416666666666666
            },
            {
              "pitch": 59,
              "velocity": 40,
              "position": 4.5,
              "duration": 0.20416666666666666
            },
            {
              "pitch": 60,
              "velocity": 36,
              "position": 4.5,
              "duration": 0.20416666666666666
            },
            {
              "pitch": 64,
              "velocity": 41,
              "position": 4.510416666666667,
              "duration": 0.20416666666666666
            },
            {
              "pitch": 60,
              "velocity": 43,
              "position": 5.28125,
              "duration": 0.20416666666666666
            },
            {
              "pitch": 64,
              "velocity": 40,
              "position": 5.28125,
              "duration": 0.20416666666666666
            },
            {
              "pitch": 55,
              "velocity": 50,
              "position": 5.291666666666667,
              "duration": 0.20416666666666666
            },
            {
              "pitch": 59,
              "velocity": 50,
              "position": 5.291666666666667,
              "duration": 0.20416666666666666
            },
            {
              "pitch": 55,
              "velocity": 40,
              "position": 6,
              "duration": 0.20416666666666666
            },
            {
              "pitch": 59,
              "velocity": 40,
              "position": 6,
              "duration": 0.20416666666666666
            },
            {
              "pitch": 60,
              "velocity": 47,
              "position": 6,
              "duration": 0.20416666666666666
            },
            {
              "pitch": 64,
              "velocity": 49,
              "position": 6.010416666666667,
              "duration": 0.20416666666666666
            },
            {
              "pitch": 55,
              "velocity": 47,
              "position": 8.5,
              "duration": 0.20416666666666666
            },
            {
              "pitch": 59,
              "velocity": 47,
              "position": 8.5,
              "duration": 0.20416666666666666
            },
            {
              "pitch": 60,
              "velocity": 37,
              "position": 8.5,
              "duration": 0.20416666666666666
            },
            {
              "pitch": 64,
              "velocity": 35,
              "position": 8.510416666666666,
              "duration": 0.20416666666666666
            },
            {
              "pitch": 60,
              "velocity": 34,
              "position": 9.28125,
              "duration": 0.20416666666666666
            },
            {
              "pitch": 64,
              "velocity": 42,
              "position": 9.28125,
              "duration": 0.20416666666666666
            },
            {
              "pitch": 55,
              "velocity": 39,
              "position": 9.291666666666666,
              "duration": 0.20416666666666666
            },
            {
              "pitch": 59,
              "velocity": 39,
              "position": 9.291666666666666,
              "duration": 0.20416666666666666
            },
            {
              "pitch": 55,
              "velocity": 45,
              "position": 10,
              "duration": 0.20416666666666666
            },
            {
              "pitch": 59,
              "velocity": 45,
              "position": 10,
              "duration": 0.20416666666666666
            },
            {
              "pitch": 60,
              "velocity": 37,
              "position": 10,
              "duration": 0.20416666666666666
            },
            {
              "pitch": 64,
              "velocity": 32,
              "position": 10.010416666666666,
              "duration": 0.20416666666666666
            },
            {
              "pitch": 55,
              "velocity": 43,
              "position": 12.5,
              "duration": 0.20416666666666666
            },
            {
              "pitch": 59,
              "velocity": 43,
              "position": 12.5,
              "duration": 0.20416666666666666
            },
            {
              "pitch": 60,
              "velocity": 45,
              "position": 12.5,
              "duration": 0.20416666666666666
            },
            {
              "pitch": 64,
              "velocity": 40,
              "position": 12.510416666666666,
              "duration": 0.20416666666666666
            },
            {
              "pitch": 60,
              "velocity": 40,
              "position": 13.28125,
              "duration": 0.20416666666666666
            },
            {
              "pitch": 64,
              "velocity": 31,
              "position": 13.28125,
              "duration": 0.20416666666666666
            },
            {
              "pitch": 55,
              "velocity": 37,
              "position": 13.291666666666666,
              "duration": 0.20416666666666666
            },
            {
              "pitch": 59,
              "velocity": 37,
              "position": 13.291666666666666,
              "duration": 0.20416666666666666
            },
            {
              "pitch": 55,
              "velocity": 44,
              "position": 14,
              "duration": 0.20416666666666666
            },
            {
              "pitch": 59,
              "velocity": 44,
              "position": 14,
              "duration": 0.20416666666666666
            },
            {
              "pitch": 60,
              "velocity": 36,
              "position": 14,
              "duration": 0.20416666666666666
            },
            {
              "pitch": 64,
              "velocity": 32,
              "position": 14.010416666666666,
              "duration": 0.20416666666666666
            }
          ]
        },
        "12": {
          "ctab": {
            "srcChannel": 12,
            "name": "Piano",
            "accType": "CHORD2",
            "editable": false,
            "mutedNotes": [],
            "mutedChords": [],
            "autoStart": false,
            "sourceChordNote": 0,
            "sourceChordType": "Maj7",
            "ctb2Low": null,
            "ctb2Main": {
              "ntr": "ROOT_FIXED",
              "ntt": "CHORD",
              "bassOn": false,
              "chordRootUpperLimit": 7,
              "noteLowLimit": 0,
              "noteHighLimit": 127,
              "rtr": "PITCH_SHIFT"
            },
            "ctb2High": null
          },
          "notes": [
            {
              "pitch": 59,
              "velocity": 118,
              "position": 0,
              "duration": 0.26666666666666666
            },
            {
              "pitch": 55,
              "velocity": 105,
              "position": 0.0020833333333333333,
              "duration": 0.2708333333333333
            },
            {
              "pitch": 64,
              "velocity": 101,
              "position": 0.004166666666666667,
              "duration": 0.29791666666666666
            },
            {
              "pitch": 24,
              "velocity": 104,
              "position": 0,
              "duration": 0.43333333333333335
            },
            {
              "pitch": 36,
              "velocity": 104,
              "position": 0,
              "duration": 0.43333333333333335
            },
            {
              "pitch": 59,
              "velocity": 106,
              "position": 1,
              "duration": 0.3125
            },
            {
              "pitch": 64,
              "velocity": 115,
              "position": 1,
              "duration": 0.3125
            },
            {
              "pitch": 55,
              "velocity": 108,
              "position": 0.99375,
              "duration": 0.33125
            },
            {
              "pitch": 59,
              "velocity": 104,
              "position": 2,
              "duration": 0.27708333333333335
            },
            {
              "pitch": 64,
              "velocity": 105,
              "position": 2,
              "duration": 0.27708333333333335
            },
            {
              "pitch": 24,
              "velocity": 104,
              "position": 2,
              "duration": 0.29791666666666666
            },
            {
              "pitch": 36,
              "velocity": 104,
              "position": 2,
              "duration": 0.29791666666666666
            },
            {
              "pitch": 55,
              "velocity": 107,
              "position": 2.002083333333333,
              "duration": 0.3416666666666667
            },
            {
              "pitch": 24,
              "velocity": 104,
              "position": 2.5,
              "duration": 0.29791666666666666
            },
            {
              "pitch": 36,
              "velocity": 104,
              "position": 2.5,
              "duration": 0.29791666666666666
            },
            {
              "pitch": 55,
              "velocity": 112,
              "position": 3,
              "duration": 0.27291666666666664
            },
            {
              "pitch": 64,
              "velocity": 117,
              "position": 3,
              "duration": 0.30833333333333335
            },
            {
              "pitch": 59,
              "velocity": 101,
              "position": 2.9916666666666667,
              "duration": 0.3416666666666667
            },
            {
              "pitch": 24,
              "velocity": 104,
              "position": 3.5,
              "duration": 0.30833333333333335
            },
            {
              "pitch": 36,
              "velocity": 104,
              "position": 3.5,
              "duration": 0.30833333333333335
            },
            {
              "pitch": 59,
              "velocity": 103,
              "position": 4,
              "duration": 0.29791666666666666
            },
            {
              "pitch": 64,
              "velocity": 110,
              "position": 4,
              "duration": 0.30416666666666664
            },
            {
              "pitch": 55,
              "velocity": 119,
              "position": 3.9895833333333335,
              "duration": 0.33541666666666664
            },
            {
              "pitch": 24,
              "velocity": 104,
              "position": 4,
              "duration": 0.43333333333333335
            },
            {
              "pitch": 36,
              "velocity": 104,
              "position": 4,
              "duration": 0.43333333333333335
            },
            {
              "pitch": 64,
              "velocity": 112,
              "position": 4.991666666666666,
              "duration": 0.3104166666666667
            },
            {
              "pitch": 55,
              "velocity": 118,
              "position": 4.99375,
              "duration": 0.3416666666666667
            },
            {
              "pitch": 59,
              "velocity": 117,
              "position": 5.004166666666666,
              "duration": 0.3375
            },
            {
              "pitch": 64,
              "velocity": 117,
              "position": 5.99375,
              "duration": 0.3
            },
            {
              "pitch": 24,
              "velocity": 104,
              "position": 6,
              "duration": 0.29791666666666666
            },
            {
              "pitch": 36,
              "velocity": 104,
              "position": 6,
              "duration": 0.29791666666666666
            },
            {
              "pitch": 59,
              "velocity": 114,
              "position": 5.989583333333333,
              "duration": 0.32916666666666666
            },
            {
              "pitch": 55,
              "velocity": 105,
              "position": 5.989583333333333,
              "duration": 0.33958333333333335
            },
            {
              "pitch": 24,
              "velocity": 104,
              "position": 6.5,
              "duration": 0.29791666666666666
            },
            {
              "pitch": 36,
              "velocity": 104,
              "position": 6.5,
              "duration": 0.29791666666666666
            },
            {
              "pitch": 55,
              "velocity": 108,
              "position": 6.989583333333333,
              "duration": 0.29791666666666666
            },
            {
              "pitch": 59,
              "velocity": 118,
              "position": 7,
              "duration": 0.3020833333333333
            },
            {
              "pitch": 64,
              "velocity": 118,
              "position": 6.99375,
              "duration": 0.32083333333333336
            },
            {
              "pitch": 24,
              "velocity": 104,
              "position": 7.5,
              "duration": 0.30833333333333335
            },
            {
              "pitch": 36,
              "velocity": 104,
              "position": 7.5,
              "duration": 0.30833333333333335
            },
            {
              "pitch": 55,
              "velocity": 101,
              "position": 8,
              "duration": 0.26666666666666666
            },
            {
              "pitch": 59,
              "velocity": 119,
              "position": 8,
              "duration": 0.2916666666666667
            },
            {
              "pitch": 64,
              "velocity": 108,
              "position": 8,
              "duration": 0.34375
            },
            {
              "pitch": 24,
              "velocity": 104,
              "position": 8,
              "duration": 0.43333333333333335
            },
            {
              "pitch": 36,
              "velocity": 104,
              "position": 8,
              "duration": 0.43333333333333335
            },
            {
              "pitch": 55,
              "velocity": 117,
              "position": 9,
              "duration": 0.30416666666666664
            },
            {
              "pitch": 59,
              "velocity": 103,
              "position": 8.989583333333334,
              "duration": 0.32916666666666666
            },
            {
              "pitch": 64,
              "velocity": 116,
              "position": 9.004166666666666,
              "duration": 0.33541666666666664
            },
            {
              "pitch": 64,
              "velocity": 118,
              "position": 10,
              "duration": 0.26666666666666666
            },
            {
              "pitch": 59,
              "velocity": 117,
              "position": 10,
              "duration": 0.2708333333333333
            },
            {
              "pitch": 55,
              "velocity": 110,
              "position": 9.991666666666667,
              "duration": 0.28958333333333336
            },
            {
              "pitch": 24,
              "velocity": 104,
              "position": 10,
              "duration": 0.29791666666666666
            },
            {
              "pitch": 36,
              "velocity": 104,
              "position": 10,
              "duration": 0.29791666666666666
            },
            {
              "pitch": 24,
              "velocity": 104,
              "position": 10.5,
              "duration": 0.29791666666666666
            },
            {
              "pitch": 36,
              "velocity": 104,
              "position": 10.5,
              "duration": 0.29791666666666666
            },
            {
              "pitch": 55,
              "velocity": 110,
              "position": 10.991666666666667,
              "duration": 0.275
            },
            {
              "pitch": 64,
              "velocity": 107,
              "position": 11,
              "duration": 0.27708333333333335
            },
            {
              "pitch": 59,
              "velocity": 110,
              "position": 11.004166666666666,
              "duration": 0.325
            },
            {
              "pitch": 24,
              "velocity": 104,
              "position": 11.5,
              "duration": 0.30833333333333335
            },
            {
              "pitch": 36,
              "velocity": 104,
              "position": 11.5,
              "duration": 0.30833333333333335
            },
            {
              "pitch": 55,
              "velocity": 110,
              "position": 12,
              "duration": 0.3125
            },
            {
              "pitch": 64,
              "velocity": 112,
              "position": 11.989583333333334,
              "duration": 0.32916666666666666
            },
            {
              "pitch": 59,
              "velocity": 109,
              "position": 11.991666666666667,
              "duration": 0.34791666666666665
            },
            {
              "pitch": 24,
              "velocity": 104,
              "position": 12,
              "duration": 0.43333333333333335
            },
            {
              "pitch": 36,
              "velocity": 104,
              "position": 12,
              "duration": 0.43333333333333335
            },
            {
              "pitch": 59,
              "velocity": 101,
              "position": 12.989583333333334,
              "duration": 0.2916666666666667
            },
            {
              "pitch": 55,
              "velocity": 104,
              "position": 13,
              "duration": 0.2916666666666667
            },
            {
              "pitch": 64,
              "velocity": 109,
              "position": 13,
              "duration": 0.30833333333333335
            },
            {
              "pitch": 55,
              "velocity": 103,
              "position": 13.99375,
              "duration": 0.26666666666666666
            },
            {
              "pitch": 59,
              "velocity": 112,
              "position": 14.002083333333333,
              "duration": 0.26875
            },
            {
              "pitch": 64,
              "velocity": 108,
              "position": 14.002083333333333,
              "duration": 0.2708333333333333
            },
            {
              "pitch": 24,
              "velocity": 104,
              "position": 14,
              "duration": 0.29791666666666666
            },
            {
              "pitch": 36,
              "velocity": 104,
              "position": 14,
              "duration": 0.29791666666666666
            },
            {
              "pitch": 24,
              "velocity": 104,
              "position": 14.5,
              "duration": 0.29791666666666666
            },
            {
              "pitch": 36,
              "velocity": 104,
              "position": 14.5,
              "duration": 0.29791666666666666
            },
            {
              "pitch": 64,
              "velocity": 102,
              "position": 14.991666666666667,
              "duration": 0.26666666666666666
            },
            {
              "pitch": 55,
              "velocity": 119,
              "position": 14.99375,
              "duration": 0.2833333333333333
            },
            {
              "pitch": 59,
              "velocity": 113,
              "position": 15.002083333333333,
              "duration": 0.3104166666666667
            },
            {
              "pitch": 24,
              "velocity": 104,
              "position": 15.5,
              "duration": 0.30833333333333335
            },
            {
              "pitch": 36,
              "velocity": 104,
              "position": 15.5,
              "duration": 0.30833333333333335
            }
          ]
        },
        "13": {
          "ctab": {
            "srcChannel": 13,
            "name": "Organ",
            "accType": "PAD",
            "editable": false,
            "mutedNotes": [],
            "mutedChords": [],
            "autoStart": false,
            "sourceChordNote": 0,
            "sourceChordType": "Maj7",
            "ctb2Low": null,
            "ctb2Main": {
              "ntr": "ROOT_FIXED",
              "ntt": "CHORD",
              "bassOn": false,
              "chordRootUpperLimit": 7,
              "noteLowLimit": 0,
              "noteHighLimit": 127,
              "rtr": "PITCH_SHIFT"
            },
            "ctb2High": null
          },
          "notes": []
        },
        "14": {
          "ctab": {
            "srcChannel": 14,
            "name": "Tele",
            "accType": "PHRASE1",
            "editable": false,
            "mutedNotes": [],
            "mutedChords": [],
            "autoStart": false,
            "sourceChordNote": 0,
            "sourceChordType": "Maj7",
            "ctb2Low": null,
            "ctb2Main": {
              "ntr": "ROOT_TRANSPOSITION",
              "ntt": "MELODY",
              "bassOn": false,
              "chordRootUpperLimit": 7,
              "noteLowLimit": 0,
              "noteHighLimit": 127,
              "rtr": "PITCH_SHIFT"
            },
            "ctb2High": null
          },
          "notes": []
        }
      }
    },
    "Main_B": {
      "type": "Main_B",
      "sizeInBeats": 16,
      "channels": {
        "1": {
          "ctab": {
            "srcChannel": 1,
            "name": "Bass B",
            "accType": "BASS",
            "editable": false,
            "mutedNotes": [],
            "mutedChords": [
              "1+2+5",
              "1+5",
              "1+8",
              "7(#9)",
              "7(b13)",
              "7(b9)",
              "7(13)",
              "7#11",
              "7(9)",
              "7b5",
              "7sus4",
              "7th",
              "dim7",
              "dim",
              "min7(11)",
              "min7(9)",
              "m7b5",
              "min7",
              "min6",
              "Maj6(9)",
              "Maj7(9)",
              "Maj(9)",
              "Maj7#11",
              "Maj7",
              "Maj6",
              "Maj"
            ],
            "autoStart": false,
            "sourceChordNote": 0,
            "sourceChordType": "Maj7",
            "ctb2Low": null,
            "ctb2Main": {
              "ntr": "ROOT_TRANSPOSITION",
              "ntt": "MELODY",
              "bassOn": true,
              "chordRootUpperLimit": 3,
              "noteLowLimit": 28,
              "noteHighLimit": 127,
              "rtr": "PITCH_SHIFT_TO_ROOT"
            },
            "ctb2High": null
          },
          "notes": [
            {
              "pitch": 36,
              "velocity": 74,
              "position": 0.010416666666666666,
              "duration": 0.48541666666666666
            },
            {
              "pitch": 36,
              "velocity": 110,
              "position": 1.7708333333333333,
              "duration": 0.20416666666666666
            },
            {
              "pitch": 36,
              "velocity": 70,
              "position": 1.9833333333333334,
              "duration": 0.3
            },
            {
              "pitch": 36,
              "velocity": 66,
              "position": 2.4833333333333334,
              "duration": 0.36041666666666666
            },
            {
              "pitch": 36,
              "velocity": 73,
              "position": 3.28125,
              "duration": 0.7041666666666667
            },
            {
              "pitch": 36,
              "velocity": 70,
              "position": 4,
              "duration": 0.48541666666666666
            },
            {
              "pitch": 36,
              "velocity": 110,
              "position": 5.770833333333333,
              "duration": 0.21041666666666667
            },
            {
              "pitch": 36,
              "velocity": 74,
              "position": 5.99375,
              "duration": 0.29791666666666666
            },
            {
              "pitch": 36,
              "velocity": 66,
              "position": 6.5,
              "duration": 0.36041666666666666
            },
            {
              "pitch": 36,
              "velocity": 70,
              "position": 7.25,
              "duration": 0.7145833333333333
            },
            {
              "pitch": 36,
              "velocity": 66,
              "position": 8,
              "duration": 0.48541666666666666
            },
            {
              "pitch": 36,
              "velocity": 110,
              "position": 9.760416666666666,
              "duration": 0.21458333333333332
            },
            {
              "pitch": 36,
              "velocity": 71,
              "position": 10.010416666666666,
              "duration": 0.29791666666666666
            },
            {
              "pitch": 36,
              "velocity": 74,
              "position": 10.489583333333334,
              "duration": 0.36041666666666666
            },
            {
              "pitch": 36,
              "velocity": 73,
              "position": 11.252083333333333,
              "duration": 0.7166666666666667
            },
            {
              "pitch": 36,
              "velocity": 73,
              "position": 12.010416666666666,
              "duration": 0.48541666666666666
            },
            {
              "pitch": 36,
              "velocity": 110,
              "position": 13.772916666666667,
              "duration": 0.19166666666666668
            },
            {
              "pitch": 36,
              "velocity": 73,
              "position": 13.979166666666666,
              "duration": 0.29791666666666666
            },
            {
              "pitch": 36,
              "velocity": 66,
              "position": 14.489583333333334,
              "duration": 0.3625
            },
            {
              "pitch": 36,
              "velocity": 73,
              "position": 15.285416666666666,
              "duration": 0.7020833333333333
            }
          ]
        },
        "4": {
          "ctab": {
            "srcChannel": 4,
            "name": "Organ rt",
            "accType": "PAD",
            "editable": false,
            "mutedNotes": [],
            "mutedChords": [
              "1+2+5",
              "sus4",
              "1+5",
              "1+8",
              "Maj7aug",
              "dim",
              "minMaj7(9)",
              "minMaj7",
              "min6",
              "min",
              "aug",
              "Maj7(9)",
              "Maj7#11",
              "Maj7",
              "Maj6",
              "Maj"
            ],
            "autoStart": false,
            "sourceChordNote": 0,
            "sourceChordType": "Maj7",
            "ctb2Low": null,
            "ctb2Main": {
              "ntr": "ROOT_TRANSPOSITION",
              "ntt": "MELODY",
              "bassOn": false,
              "chordRootUpperLimit": 10,
              "noteLowLimit": 0,
              "noteHighLimit": 127,
              "rtr": "PITCH_SHIFT"
            },
            "ctb2High": null
          },
          "notes": [
            {
              "pitch": 60,
              "velocity": 50,
              "position": 0.010416666666666666,
              "duration": 0.48541666666666666
            },
            {
              "pitch": 60,
              "velocity": 50,
              "position": 2.4833333333333334,
              "duration": 0.36041666666666666
            },
            {
              "pitch": 60,
              "velocity": 50,
              "position": 3.28125,
              "duration": 0.7
            },
            {
              "pitch": 60,
              "velocity": 50,
              "position": 4,
              "duration": 0.48541666666666666
            },
            {
              "pitch": 60,
              "velocity": 50,
              "position": 6.5,
              "duration": 0.36041666666666666
            },
            {
              "pitch": 60,
              "velocity": 50,
              "position": 7.25,
              "duration": 0.7145833333333333
            },
            {
              "pitch": 60,
              "velocity": 50,
              "position": 8,
              "duration": 0.48541666666666666
            },
            {
              "pitch": 60,
              "velocity": 50,
              "position": 10.489583333333334,
              "duration": 0.36041666666666666
            },
            {
              "pitch": 60,
              "velocity": 50,
              "position": 11.252083333333333,
              "duration": 0.7166666666666667
            },
            {
              "pitch": 60,
              "velocity": 50,
              "position": 12.010416666666666,
              "duration": 0.48541666666666666
            },
            {
              "pitch": 60,
              "velocity": 50,
              "position": 14.489583333333334,
              "duration": 0.3625
            },
            {
              "pitch": 60,
              "velocity": 50,
              "position": 15.285416666666666,
              "duration": 0.6958333333333333
            }
          ]
        },
        "8": {
          "ctab": {
            "srcChannel": 8,
            "name": "AddDrum",
            "accType": "SUBRHYTHM",
            "editable": false,
            "mutedNotes": [],
            "mutedChords": [],
            "autoStart": true,
            "sourceChordNote": 0,
            "sourceChordType": "Maj7",
            "ctb2Low": null,
            "ctb2Main": {
              "ntr": "ROOT_FIXED",
              "ntt": "BYPASS",
              "bassOn": false,
              "chordRootUpperLimit": 6,
              "noteLowLimit": 0,
              "noteHighLimit": 127,
              "rtr": "PITCH_SHIFT"
            },
            "ctb2High": null
          },
          "notes": [
            {
              "pitch": 42,
              "velocity": 120,
              "position": 0,
              "duration": 0.00625
            },
            {
              "pitch": 42,
              "velocity": 40,
              "position": 0.5,
              "duration": 0.00625
            },
            {
              "pitch": 32,
              "velocity": 106,
              "position": 1,
              "duration": 0.00625
            },
            {
              "pitch": 42,
              "velocity": 120,
              "position": 1,
              "duration": 0.00625
            },
            {
              "pitch": 42,
              "velocity": 40,
              "position": 1.5,
              "duration": 0.00625
            },
            {
              "pitch": 32,
              "velocity": 24,
              "position": 1.7708333333333333,
              "duration": 0.00625
            },
            {
              "pitch": 42,
              "velocity": 120,
              "position": 2,
              "duration": 0.00625
            },
            {
              "pitch": 32,
              "velocity": 24,
              "position": 2.2708333333333335,
              "duration": 0.00625
            },
            {
              "pitch": 42,
              "velocity": 40,
              "position": 2.5,
              "duration": 0.00625
            },
            {
              "pitch": 32,
              "velocity": 106,
              "position": 3,
              "duration": 0.00625
            },
            {
              "pitch": 42,
              "velocity": 120,
              "position": 3,
              "duration": 0.00625
            },
            {
              "pitch": 42,
              "velocity": 40,
              "position": 3.5,
              "duration": 0.00625
            },
            {
              "pitch": 42,
              "velocity": 120,
              "position": 4,
              "duration": 0.00625
            },
            {
              "pitch": 42,
              "velocity": 40,
              "position": 4.5,
              "duration": 0.00625
            },
            {
              "pitch": 32,
              "velocity": 106,
              "position": 5,
              "duration": 0.00625
            },
            {
              "pitch": 42,
              "velocity": 120,
              "position": 5,
              "duration": 0.00625
            },
            {
              "pitch": 42,
              "velocity": 40,
              "position": 5.5,
              "duration": 0.00625
            },
            {
              "pitch": 32,
              "velocity": 24,
              "position": 5.770833333333333,
              "duration": 0.00625
            },
            {
              "pitch": 42,
              "velocity": 120,
              "position": 6,
              "duration": 0.00625
            },
            {
              "pitch": 32,
              "velocity": 24,
              "position": 6.270833333333333,
              "duration": 0.00625
            },
            {
              "pitch": 42,
              "velocity": 40,
              "position": 6.5,
              "duration": 0.00625
            },
            {
              "pitch": 32,
              "velocity": 106,
              "position": 7,
              "duration": 0.00625
            },
            {
              "pitch": 42,
              "velocity": 120,
              "position": 7,
              "duration": 0.00625
            },
            {
              "pitch": 46,
              "velocity": 60,
              "position": 7.5,
              "duration": 0.00625
            },
            {
              "pitch": 26,
              "velocity": 50,
              "position": 0,
              "duration": 7.985416666666667
            },
            {
              "pitch": 42,
              "velocity": 120,
              "position": 8,
              "duration": 0.00625
            },
            {
              "pitch": 42,
              "velocity": 40,
              "position": 8.5,
              "duration": 0.00625
            },
            {
              "pitch": 32,
              "velocity": 106,
              "position": 9,
              "duration": 0.00625
            },
            {
              "pitch": 42,
              "velocity": 120,
              "position": 9,
              "duration": 0.00625
            },
            {
              "pitch": 42,
              "velocity": 40,
              "position": 9.5,
              "duration": 0.00625
            },
            {
              "pitch": 32,
              "velocity": 24,
              "position": 9.770833333333334,
              "duration": 0.00625
            },
            {
              "pitch": 42,
              "velocity": 120,
              "position": 10,
              "duration": 0.00625
            },
            {
              "pitch": 32,
              "velocity": 24,
              "position": 10.270833333333334,
              "duration": 0.00625
            },
            {
              "pitch": 42,
              "velocity": 40,
              "position": 10.5,
              "duration": 0.00625
            },
            {
              "pitch": 32,
              "velocity": 106,
              "position": 11,
              "duration": 0.00625
            },
            {
              "pitch": 42,
              "velocity": 120,
              "position": 11,
              "duration": 0.00625
            },
            {
              "pitch": 42,
              "velocity": 40,
              "position": 11.5,
              "duration": 0.00625
            },
            {
              "pitch": 42,
              "velocity": 120,
              "position": 12,
              "duration": 0.00625
            },
            {
              "pitch": 42,
              "velocity": 40,
              "position": 12.5,
              "duration": 0.00625
            },
            {
              "pitch": 32,
              "velocity": 106,
              "position": 13,
              "duration": 0.00625
            },
            {
              "pitch": 42,
              "velocity": 120,
              "position": 13,
              "duration": 0.00625
            },
            {
              "pitch": 42,
              "velocity": 40,
              "position": 13.5,
              "duration": 0.00625
            },
            {
              "pitch": 32,
              "velocity": 24,
              "position": 13.770833333333334,
              "duration": 0.00625
            },
            {
              "pitch": 42,
              "velocity": 120,
              "position": 14,
              "duration": 0.00625
            },
            {
              "pitch": 32,
              "velocity": 24,
              "position": 14.270833333333334,
              "duration": 0.00625
            },
            {
              "pitch": 42,
              "velocity": 40,
              "position": 14.5,
              "duration": 0.00625
            },
            {
              "pitch": 32,
              "velocity": 106,
              "position": 15,
              "duration": 0.00625
            },
            {
              "pitch": 42,
              "velocity": 120,
              "position": 15,
              "duration": 0.00625
            },
            {
              "pitch": 18,
              "velocity": 81,
              "position": 14.666666666666666,
              "duration": 0.4875
            },
            {
              "pitch": 17,
              "velocity": 127,
              "position": 15,
              "duration": 0.48541666666666666
            },
            {
              "pitch": 46,
              "velocity": 60,
              "position": 15.5,
              "duration": 0.00625
            },
            {
              "pitch": 18,
              "velocity": 81,
              "position": 15.166666666666666,
              "duration": 0.4875
            },
            {
              "pitch": 17,
              "velocity": 127,
              "position": 15.5,
              "duration": 0.48541666666666666
            },
            {
              "pitch": 26,
              "velocity": 50,
              "position": 8,
              "duration": 7.985416666666667
            }
          ]
        },
        "9": {
          "ctab": {
            "srcChannel": 9,
            "name": "MainDrum",
            "accType": "RHYTHM",
            "editable": false,
            "mutedNotes": [],
            "mutedChords": [],
            "autoStart": true,
            "sourceChordNote": 0,
            "sourceChordType": "Maj7",
            "ctb2Low": null,
            "ctb2Main": {
              "ntr": "ROOT_FIXED",
              "ntt": "BYPASS",
              "bassOn": false,
              "chordRootUpperLimit": 6,
              "noteLowLimit": 0,
              "noteHighLimit": 127,
              "rtr": "PITCH_SHIFT"
            },
            "ctb2High": null
          },
          "notes": [
            {
              "pitch": 35,
              "velocity": 100,
              "position": 0,
              "duration": 0.00625
            },
            {
              "pitch": 42,
              "velocity": 110,
              "position": 0,
              "duration": 0.00625
            },
            {
              "pitch": 54,
              "velocity": 103,
              "position": 0,
              "duration": 0.00625
            },
            {
              "pitch": 38,
              "velocity": 23,
              "position": 0.2625,
              "duration": 0.00625
            },
            {
              "pitch": 42,
              "velocity": 54,
              "position": 0.4895833333333333,
              "duration": 0.00625
            },
            {
              "pitch": 54,
              "velocity": 32,
              "position": 0.5,
              "duration": 0.00625
            },
            {
              "pitch": 54,
              "velocity": 92,
              "position": 0.99375,
              "duration": 0.00625
            },
            {
              "pitch": 38,
              "velocity": 104,
              "position": 1,
              "duration": 0.00625
            },
            {
              "pitch": 42,
              "velocity": 106,
              "position": 1,
              "duration": 0.00625
            },
            {
              "pitch": 42,
              "velocity": 58,
              "position": 1.4895833333333333,
              "duration": 0.00625
            },
            {
              "pitch": 54,
              "velocity": 43,
              "position": 1.5,
              "duration": 0.00625
            },
            {
              "pitch": 35,
              "velocity": 60,
              "position": 1.7708333333333333,
              "duration": 0.00625
            },
            {
              "pitch": 54,
              "velocity": 107,
              "position": 1.9916666666666667,
              "duration": 0.00625
            },
            {
              "pitch": 35,
              "velocity": 100,
              "position": 2,
              "duration": 0.00625
            },
            {
              "pitch": 42,
              "velocity": 110,
              "position": 2.004166666666667,
              "duration": 0.00625
            },
            {
              "pitch": 38,
              "velocity": 35,
              "position": 2.2625,
              "duration": 0.00625
            },
            {
              "pitch": 54,
              "velocity": 43,
              "position": 2.4916666666666667,
              "duration": 0.00625
            },
            {
              "pitch": 35,
              "velocity": 100,
              "position": 2.5,
              "duration": 0.00625
            },
            {
              "pitch": 42,
              "velocity": 52,
              "position": 2.5,
              "duration": 0.00625
            },
            {
              "pitch": 38,
              "velocity": 104,
              "position": 3,
              "duration": 0.00625
            },
            {
              "pitch": 42,
              "velocity": 110,
              "position": 3,
              "duration": 0.00625
            },
            {
              "pitch": 54,
              "velocity": 91,
              "position": 3,
              "duration": 0.00625
            },
            {
              "pitch": 35,
              "velocity": 100,
              "position": 3.2708333333333335,
              "duration": 0.00625
            },
            {
              "pitch": 42,
              "velocity": 52,
              "position": 3.5,
              "duration": 0.00625
            },
            {
              "pitch": 54,
              "velocity": 31,
              "position": 3.5,
              "duration": 0.00625
            },
            {
              "pitch": 38,
              "velocity": 28,
              "position": 3.7604166666666665,
              "duration": 0.00625
            },
            {
              "pitch": 35,
              "velocity": 100,
              "position": 4,
              "duration": 0.00625
            },
            {
              "pitch": 42,
              "velocity": 110,
              "position": 4,
              "duration": 0.00625
            },
            {
              "pitch": 54,
              "velocity": 101,
              "position": 4,
              "duration": 0.00625
            },
            {
              "pitch": 38,
              "velocity": 24,
              "position": 4.2625,
              "duration": 0.00625
            },
            {
              "pitch": 42,
              "velocity": 59,
              "position": 4.49375,
              "duration": 0.00625
            },
            {
              "pitch": 54,
              "velocity": 44,
              "position": 4.5,
              "duration": 0.00625
            },
            {
              "pitch": 38,
              "velocity": 104,
              "position": 5,
              "duration": 0.00625
            },
            {
              "pitch": 42,
              "velocity": 107,
              "position": 5,
              "duration": 0.00625
            },
            {
              "pitch": 54,
              "velocity": 100,
              "position": 5.002083333333333,
              "duration": 0.00625
            },
            {
              "pitch": 42,
              "velocity": 54,
              "position": 5.502083333333333,
              "duration": 0.00625
            },
            {
              "pitch": 54,
              "velocity": 46,
              "position": 5.504166666666666,
              "duration": 0.00625
            },
            {
              "pitch": 35,
              "velocity": 60,
              "position": 5.770833333333333,
              "duration": 0.00625
            },
            {
              "pitch": 35,
              "velocity": 100,
              "position": 6,
              "duration": 0.00625
            },
            {
              "pitch": 54,
              "velocity": 105,
              "position": 6,
              "duration": 0.00625
            },
            {
              "pitch": 42,
              "velocity": 105,
              "position": 6.004166666666666,
              "duration": 0.00625
            },
            {
              "pitch": 38,
              "velocity": 35,
              "position": 6.260416666666667,
              "duration": 0.00625
            },
            {
              "pitch": 35,
              "velocity": 100,
              "position": 6.5,
              "duration": 0.00625
            },
            {
              "pitch": 54,
              "velocity": 37,
              "position": 6.5,
              "duration": 0.00625
            },
            {
              "pitch": 42,
              "velocity": 57,
              "position": 6.502083333333333,
              "duration": 0.00625
            },
            {
              "pitch": 38,
              "velocity": 104,
              "position": 7,
              "duration": 0.00625
            },
            {
              "pitch": 42,
              "velocity": 110,
              "position": 7,
              "duration": 0.00625
            },
            {
              "pitch": 54,
              "velocity": 99,
              "position": 7,
              "duration": 0.00625
            },
            {
              "pitch": 35,
              "velocity": 100,
              "position": 7.270833333333333,
              "duration": 0.00625
            },
            {
              "pitch": 54,
              "velocity": 34,
              "position": 7.491666666666666,
              "duration": 0.00625
            },
            {
              "pitch": 42,
              "velocity": 48,
              "position": 7.49375,
              "duration": 0.00625
            },
            {
              "pitch": 38,
              "velocity": 24,
              "position": 7.775,
              "duration": 0.00625
            },
            {
              "pitch": 35,
              "velocity": 100,
              "position": 8,
              "duration": 0.00625
            },
            {
              "pitch": 42,
              "velocity": 106,
              "position": 8,
              "duration": 0.00625
            },
            {
              "pitch": 54,
              "velocity": 100,
              "position": 8.004166666666666,
              "duration": 0.00625
            },
            {
              "pitch": 38,
              "velocity": 21,
              "position": 8.260416666666666,
              "duration": 0.00625
            },
            {
              "pitch": 54,
              "velocity": 38,
              "position": 8.491666666666667,
              "duration": 0.00625
            },
            {
              "pitch": 42,
              "velocity": 46,
              "position": 8.5,
              "duration": 0.00625
            },
            {
              "pitch": 38,
              "velocity": 104,
              "position": 9,
              "duration": 0.00625
            },
            {
              "pitch": 42,
              "velocity": 107,
              "position": 9,
              "duration": 0.00625
            },
            {
              "pitch": 54,
              "velocity": 108,
              "position": 9,
              "duration": 0.00625
            },
            {
              "pitch": 42,
              "velocity": 51,
              "position": 9.5,
              "duration": 0.00625
            },
            {
              "pitch": 54,
              "velocity": 31,
              "position": 9.504166666666666,
              "duration": 0.00625
            },
            {
              "pitch": 35,
              "velocity": 60,
              "position": 9.770833333333334,
              "duration": 0.00625
            },
            {
              "pitch": 42,
              "velocity": 110,
              "position": 9.989583333333334,
              "duration": 0.00625
            },
            {
              "pitch": 54,
              "velocity": 103,
              "position": 9.991666666666667,
              "duration": 0.00625
            },
            {
              "pitch": 35,
              "velocity": 100,
              "position": 10,
              "duration": 0.00625
            },
            {
              "pitch": 38,
              "velocity": 37,
              "position": 10.2625,
              "duration": 0.00625
            },
            {
              "pitch": 42,
              "velocity": 63,
              "position": 10.489583333333334,
              "duration": 0.00625
            },
            {
              "pitch": 35,
              "velocity": 100,
              "position": 10.5,
              "duration": 0.00625
            },
            {
              "pitch": 54,
              "velocity": 49,
              "position": 10.5,
              "duration": 0.00625
            },
            {
              "pitch": 38,
              "velocity": 104,
              "position": 11,
              "duration": 0.00625
            },
            {
              "pitch": 42,
              "velocity": 110,
              "position": 11,
              "duration": 0.00625
            },
            {
              "pitch": 54,
              "velocity": 107,
              "position": 11,
              "duration": 0.00625
            },
            {
              "pitch": 35,
              "velocity": 100,
              "position": 11.270833333333334,
              "duration": 0.00625
            },
            {
              "pitch": 42,
              "velocity": 63,
              "position": 11.489583333333334,
              "duration": 0.00625
            },
            {
              "pitch": 54,
              "velocity": 37,
              "position": 11.5,
              "duration": 0.00625
            },
            {
              "pitch": 38,
              "velocity": 21,
              "position": 11.770833333333334,
              "duration": 0.00625
            },
            {
              "pitch": 35,
              "velocity": 100,
              "position": 12,
              "duration": 0.00625
            },
            {
              "pitch": 42,
              "velocity": 110,
              "position": 12,
              "duration": 0.00625
            },
            {
              "pitch": 54,
              "velocity": 99,
              "position": 12.002083333333333,
              "duration": 0.00625
            },
            {
              "pitch": 38,
              "velocity": 22,
              "position": 12.2625,
              "duration": 0.00625
            },
            {
              "pitch": 54,
              "velocity": 32,
              "position": 12.5,
              "duration": 0.00625
            },
            {
              "pitch": 42,
              "velocity": 51,
              "position": 12.504166666666666,
              "duration": 0.00625
            },
            {
              "pitch": 38,
              "velocity": 104,
              "position": 13,
              "duration": 0.00625
            },
            {
              "pitch": 42,
              "velocity": 108,
              "position": 13,
              "duration": 0.00625
            },
            {
              "pitch": 54,
              "velocity": 97,
              "position": 13.004166666666666,
              "duration": 0.00625
            },
            {
              "pitch": 42,
              "velocity": 47,
              "position": 13.49375,
              "duration": 0.00625
            },
            {
              "pitch": 54,
              "velocity": 34,
              "position": 13.5,
              "duration": 0.00625
            },
            {
              "pitch": 35,
              "velocity": 60,
              "position": 13.770833333333334,
              "duration": 0.00625
            },
            {
              "pitch": 42,
              "velocity": 107,
              "position": 13.989583333333334,
              "duration": 0.00625
            },
            {
              "pitch": 54,
              "velocity": 102,
              "position": 13.99375,
              "duration": 0.00625
            },
            {
              "pitch": 35,
              "velocity": 100,
              "position": 14,
              "duration": 0.00625
            },
            {
              "pitch": 38,
              "velocity": 37,
              "position": 14.275,
              "duration": 0.00625
            },
            {
              "pitch": 54,
              "velocity": 42,
              "position": 14.489583333333334,
              "duration": 0.00625
            },
            {
              "pitch": 42,
              "velocity": 49,
              "position": 14.49375,
              "duration": 0.00625
            },
            {
              "pitch": 35,
              "velocity": 100,
              "position": 14.5,
              "duration": 0.00625
            },
            {
              "pitch": 38,
              "velocity": 104,
              "position": 15,
              "duration": 0.00625
            },
            {
              "pitch": 42,
              "velocity": 110,
              "position": 15,
              "duration": 0.00625
            },
            {
              "pitch": 54,
              "velocity": 96,
              "position": 15.004166666666666,
              "duration": 0.00625
            },
            {
              "pitch": 35,
              "velocity": 100,
              "position": 15.270833333333334,
              "duration": 0.00625
            },
            {
              "pitch": 54,
              "velocity": 40,
              "position": 15.5,
              "duration": 0.00625
            },
            {
              "pitch": 42,
              "velocity": 59,
              "position": 15.504166666666666,
              "duration": 0.00625
            },
            {
              "pitch": 38,
              "velocity": 18,
              "position": 15.775,
              "duration": 0.00625
            }
          ]
        },
        "10": {
          "ctab": {
            "srcChannel": 10,
            "name": "Bass A",
            "accType": "BASS",
            "editable": false,
            "mutedNotes": [],
            "mutedChords": [
              "sus4",
              "7aug",
              "Maj7aug",
              "minMaj7(9)",
              "minMaj7",
              "min(9)",
              "min",
              "aug"
            ],
            "autoStart": false,
            "sourceChordNote": 0,
            "sourceChordType": "Maj7",
            "ctb2Low": null,
            "ctb2Main": {
              "ntr": "ROOT_TRANSPOSITION",
              "ntt": "MELODY",
              "bassOn": true,
              "chordRootUpperLimit": 3,
              "noteLowLimit": 28,
              "noteHighLimit": 127,
              "rtr": "PITCH_SHIFT_TO_ROOT"
            },
            "ctb2High": null
          },
          "notes": [
            {
              "pitch": 36,
              "velocity": 74,
              "position": 0.010416666666666666,
              "duration": 0.48541666666666666
            },
            {
              "pitch": 36,
              "velocity": 110,
              "position": 1.7708333333333333,
              "duration": 0.20416666666666666
            },
            {
              "pitch": 36,
              "velocity": 70,
              "position": 1.9833333333333334,
              "duration": 0.3
            },
            {
              "pitch": 36,
              "velocity": 66,
              "position": 2.4833333333333334,
              "duration": 0.36041666666666666
            },
            {
              "pitch": 36,
              "velocity": 73,
              "position": 3.28125,
              "duration": 0.7041666666666667
            },
            {
              "pitch": 36,
              "velocity": 70,
              "position": 4,
              "duration": 0.48541666666666666
            },
            {
              "pitch": 36,
              "velocity": 110,
              "position": 5.770833333333333,
              "duration": 0.21041666666666667
            },
            {
              "pitch": 36,
              "velocity": 74,
              "position": 5.99375,
              "duration": 0.29791666666666666
            },
            {
              "pitch": 36,
              "velocity": 66,
              "position": 6.5,
              "duration": 0.36041666666666666
            },
            {
              "pitch": 36,
              "velocity": 70,
              "position": 7.25,
              "duration": 0.7145833333333333
            },
            {
              "pitch": 36,
              "velocity": 66,
              "position": 8,
              "duration": 0.48541666666666666
            },
            {
              "pitch": 36,
              "velocity": 110,
              "position": 9.760416666666666,
              "duration": 0.21458333333333332
            },
            {
              "pitch": 36,
              "velocity": 71,
              "position": 10.010416666666666,
              "duration": 0.29791666666666666
            },
            {
              "pitch": 36,
              "velocity": 74,
              "position": 10.489583333333334,
              "duration": 0.36041666666666666
            },
            {
              "pitch": 36,
              "velocity": 73,
              "position": 11.252083333333333,
              "duration": 0.7166666666666667
            },
            {
              "pitch": 36,
              "velocity": 73,
              "position": 12.010416666666666,
              "duration": 0.48541666666666666
            },
            {
              "pitch": 36,
              "velocity": 110,
              "position": 13.772916666666667,
              "duration": 0.19166666666666668
            },
            {
              "pitch": 36,
              "velocity": 73,
              "position": 13.979166666666666,
              "duration": 0.29791666666666666
            },
            {
              "pitch": 36,
              "velocity": 66,
              "position": 14.489583333333334,
              "duration": 0.3625
            },
            {
              "pitch": 36,
              "velocity": 73,
              "position": 15.285416666666666,
              "duration": 0.6958333333333333
            }
          ]
        },
        "11": {
          "ctab": {
            "srcChannel": 11,
            "name": "Strat",
            "accType": "CHORD1",
            "editable": false,
            "mutedNotes": [],
            "mutedChords": [],
            "autoStart": false,
            "sourceChordNote": 0,
            "sourceChordType": "Maj7",
            "ctb2Low": null,
            "ctb2Main": {
              "ntr": "ROOT_TRANSPOSITION",
              "ntt": "MELODY",
              "bassOn": false,
              "chordRootUpperLimit": 7,
              "noteLowLimit": 0,
              "noteHighLimit": 127,
              "rtr": "PITCH_SHIFT"
            },
            "ctb2High": null
          },
          "notes": [
            {
              "pitch": 60,
              "velocity": 34,
              "position": 0.5,
              "duration": 0.25833333333333336
            },
            {
              "pitch": 55,
              "velocity": 51,
              "position": 0.5,
              "duration": 0.26666666666666666
            },
            {
              "pitch": 59,
              "velocity": 51,
              "position": 0.5,
              "duration": 0.26666666666666666
            },
            {
              "pitch": 55,
              "velocity": 29,
              "position": 0.78125,
              "duration": 0.20416666666666666
            },
            {
              "pitch": 59,
              "velocity": 29,
              "position": 0.78125,
              "duration": 0.20416666666666666
            },
            {
              "pitch": 60,
              "velocity": 7,
              "position": 0.7708333333333334,
              "duration": 0.21666666666666667
            },
            {
              "pitch": 64,
              "velocity": 33,
              "position": 0.5104166666666666,
              "duration": 0.48541666666666666
            },
            {
              "pitch": 64,
              "velocity": 34,
              "position": 1.0104166666666667,
              "duration": 0.25625
            },
            {
              "pitch": 60,
              "velocity": 38,
              "position": 1,
              "duration": 0.26875
            },
            {
              "pitch": 55,
              "velocity": 36,
              "position": 1,
              "duration": 0.27708333333333335
            },
            {
              "pitch": 59,
              "velocity": 36,
              "position": 1,
              "duration": 0.27708333333333335
            },
            {
              "pitch": 60,
              "velocity": 45,
              "position": 1.28125,
              "duration": 0.20416666666666666
            },
            {
              "pitch": 64,
              "velocity": 46,
              "position": 1.28125,
              "duration": 0.20416666666666666
            },
            {
              "pitch": 55,
              "velocity": 54,
              "position": 1.2916666666666667,
              "duration": 0.20416666666666666
            },
            {
              "pitch": 59,
              "velocity": 54,
              "position": 1.2916666666666667,
              "duration": 0.20416666666666666
            },
            {
              "pitch": 55,
              "velocity": 44,
              "position": 2,
              "duration": 0.20416666666666666
            },
            {
              "pitch": 59,
              "velocity": 44,
              "position": 2,
              "duration": 0.20416666666666666
            },
            {
              "pitch": 60,
              "velocity": 40,
              "position": 2,
              "duration": 0.20416666666666666
            },
            {
              "pitch": 64,
              "velocity": 49,
              "position": 2.0104166666666665,
              "duration": 0.20416666666666666
            },
            {
              "pitch": 64,
              "velocity": 48,
              "position": 3.5104166666666665,
              "duration": 0.24791666666666667
            },
            {
              "pitch": 60,
              "velocity": 38,
              "position": 3.5,
              "duration": 0.2625
            },
            {
              "pitch": 55,
              "velocity": 45,
              "position": 3.5,
              "duration": 0.26875
            },
            {
              "pitch": 59,
              "velocity": 45,
              "position": 3.5,
              "duration": 0.26875
            },
            {
              "pitch": 64,
              "velocity": 31,
              "position": 3.7708333333333335,
              "duration": 0.2375
            },
            {
              "pitch": 60,
              "velocity": 28,
              "position": 3.78125,
              "duration": 0.23541666666666666
            },
            {
              "pitch": 55,
              "velocity": 44,
              "position": 3.78125,
              "duration": 0.2375
            },
            {
              "pitch": 59,
              "velocity": 44,
              "position": 3.78125,
              "duration": 0.2375
            },
            {
              "pitch": 60,
              "velocity": 33,
              "position": 4.5,
              "duration": 0.25833333333333336
            },
            {
              "pitch": 55,
              "velocity": 37,
              "position": 4.5,
              "duration": 0.26666666666666666
            },
            {
              "pitch": 59,
              "velocity": 37,
              "position": 4.5,
              "duration": 0.26666666666666666
            },
            {
              "pitch": 55,
              "velocity": 27,
              "position": 4.78125,
              "duration": 0.20416666666666666
            },
            {
              "pitch": 59,
              "velocity": 27,
              "position": 4.78125,
              "duration": 0.20416666666666666
            },
            {
              "pitch": 60,
              "velocity": 14,
              "position": 4.770833333333333,
              "duration": 0.21666666666666667
            },
            {
              "pitch": 64,
              "velocity": 47,
              "position": 4.510416666666667,
              "duration": 0.48541666666666666
            },
            {
              "pitch": 64,
              "velocity": 32,
              "position": 5.010416666666667,
              "duration": 0.25625
            },
            {
              "pitch": 60,
              "velocity": 34,
              "position": 5,
              "duration": 0.26875
            },
            {
              "pitch": 55,
              "velocity": 42,
              "position": 5,
              "duration": 0.27708333333333335
            },
            {
              "pitch": 59,
              "velocity": 42,
              "position": 5,
              "duration": 0.27708333333333335
            },
            {
              "pitch": 60,
              "velocity": 40,
              "position": 5.28125,
              "duration": 0.20416666666666666
            },
            {
              "pitch": 64,
              "velocity": 37,
              "position": 5.28125,
              "duration": 0.20416666666666666
            },
            {
              "pitch": 55,
              "velocity": 52,
              "position": 5.291666666666667,
              "duration": 0.20416666666666666
            },
            {
              "pitch": 59,
              "velocity": 52,
              "position": 5.291666666666667,
              "duration": 0.20416666666666666
            },
            {
              "pitch": 55,
              "velocity": 51,
              "position": 6,
              "duration": 0.20416666666666666
            },
            {
              "pitch": 59,
              "velocity": 51,
              "position": 6,
              "duration": 0.20416666666666666
            },
            {
              "pitch": 60,
              "velocity": 41,
              "position": 6,
              "duration": 0.20416666666666666
            },
            {
              "pitch": 64,
              "velocity": 41,
              "position": 6.010416666666667,
              "duration": 0.20416666666666666
            },
            {
              "pitch": 64,
              "velocity": 33,
              "position": 7.510416666666667,
              "duration": 0.24791666666666667
            },
            {
              "pitch": 60,
              "velocity": 32,
              "position": 7.5,
              "duration": 0.2625
            },
            {
              "pitch": 55,
              "velocity": 36,
              "position": 7.5,
              "duration": 0.26875
            },
            {
              "pitch": 59,
              "velocity": 36,
              "position": 7.5,
              "duration": 0.26875
            },
            {
              "pitch": 64,
              "velocity": 37,
              "position": 7.770833333333333,
              "duration": 0.2375
            },
            {
              "pitch": 60,
              "velocity": 31,
              "position": 7.78125,
              "duration": 0.23541666666666666
            },
            {
              "pitch": 55,
              "velocity": 31,
              "position": 7.78125,
              "duration": 0.2375
            },
            {
              "pitch": 59,
              "velocity": 31,
              "position": 7.78125,
              "duration": 0.2375
            },
            {
              "pitch": 60,
              "velocity": 48,
              "position": 8.5,
              "duration": 0.25833333333333336
            },
            {
              "pitch": 55,
              "velocity": 41,
              "position": 8.5,
              "duration": 0.26666666666666666
            },
            {
              "pitch": 59,
              "velocity": 41,
              "position": 8.5,
              "duration": 0.26666666666666666
            },
            {
              "pitch": 55,
              "velocity": 17,
              "position": 8.78125,
              "duration": 0.20416666666666666
            },
            {
              "pitch": 59,
              "velocity": 17,
              "position": 8.78125,
              "duration": 0.20416666666666666
            },
            {
              "pitch": 60,
              "velocity": 7,
              "position": 8.770833333333334,
              "duration": 0.21666666666666667
            },
            {
              "pitch": 64,
              "velocity": 38,
              "position": 8.510416666666666,
              "duration": 0.48541666666666666
            },
            {
              "pitch": 64,
              "velocity": 37,
              "position": 9.010416666666666,
              "duration": 0.25625
            },
            {
              "pitch": 60,
              "velocity": 37,
              "position": 9,
              "duration": 0.26875
            },
            {
              "pitch": 55,
              "velocity": 43,
              "position": 9,
              "duration": 0.27708333333333335
            },
            {
              "pitch": 59,
              "velocity": 43,
              "position": 9,
              "duration": 0.27708333333333335
            },
            {
              "pitch": 60,
              "velocity": 40,
              "position": 9.28125,
              "duration": 0.20416666666666666
            },
            {
              "pitch": 64,
              "velocity": 42,
              "position": 9.28125,
              "duration": 0.20416666666666666
            },
            {
              "pitch": 55,
              "velocity": 45,
              "position": 9.291666666666666,
              "duration": 0.20416666666666666
            },
            {
              "pitch": 59,
              "velocity": 45,
              "position": 9.291666666666666,
              "duration": 0.20416666666666666
            },
            {
              "pitch": 55,
              "velocity": 44,
              "position": 10,
              "duration": 0.20416666666666666
            },
            {
              "pitch": 59,
              "velocity": 44,
              "position": 10,
              "duration": 0.20416666666666666
            },
            {
              "pitch": 60,
              "velocity": 42,
              "position": 10,
              "duration": 0.20416666666666666
            },
            {
              "pitch": 64,
              "velocity": 35,
              "position": 10.010416666666666,
              "duration": 0.20416666666666666
            },
            {
              "pitch": 64,
              "velocity": 39,
              "position": 11.510416666666666,
              "duration": 0.24791666666666667
            },
            {
              "pitch": 60,
              "velocity": 47,
              "position": 11.5,
              "duration": 0.2625
            },
            {
              "pitch": 55,
              "velocity": 48,
              "position": 11.5,
              "duration": 0.26875
            },
            {
              "pitch": 59,
              "velocity": 48,
              "position": 11.5,
              "duration": 0.26875
            },
            {
              "pitch": 64,
              "velocity": 40,
              "position": 11.770833333333334,
              "duration": 0.2375
            },
            {
              "pitch": 60,
              "velocity": 24,
              "position": 11.78125,
              "duration": 0.23541666666666666
            },
            {
              "pitch": 55,
              "velocity": 31,
              "position": 11.78125,
              "duration": 0.2375
            },
            {
              "pitch": 59,
              "velocity": 31,
              "position": 11.78125,
              "duration": 0.2375
            },
            {
              "pitch": 60,
              "velocity": 39,
              "position": 12.5,
              "duration": 0.25833333333333336
            },
            {
              "pitch": 55,
              "velocity": 50,
              "position": 12.5,
              "duration": 0.26666666666666666
            },
            {
              "pitch": 59,
              "velocity": 50,
              "position": 12.5,
              "duration": 0.26666666666666666
            },
            {
              "pitch": 55,
              "velocity": 19,
              "position": 12.78125,
              "duration": 0.20416666666666666
            },
            {
              "pitch": 59,
              "velocity": 19,
              "position": 12.78125,
              "duration": 0.20416666666666666
            },
            {
              "pitch": 60,
              "velocity": 19,
              "position": 12.770833333333334,
              "duration": 0.21666666666666667
            },
            {
              "pitch": 64,
              "velocity": 32,
              "position": 12.510416666666666,
              "duration": 0.48541666666666666
            },
            {
              "pitch": 64,
              "velocity": 29,
              "position": 13.010416666666666,
              "duration": 0.25625
            },
            {
              "pitch": 60,
              "velocity": 31,
              "position": 13,
              "duration": 0.26875
            },
            {
              "pitch": 55,
              "velocity": 31,
              "position": 13,
              "duration": 0.27708333333333335
            },
            {
              "pitch": 59,
              "velocity": 31,
              "position": 13,
              "duration": 0.27708333333333335
            },
            {
              "pitch": 60,
              "velocity": 42,
              "position": 13.28125,
              "duration": 0.20416666666666666
            },
            {
              "pitch": 64,
              "velocity": 33,
              "position": 13.28125,
              "duration": 0.20416666666666666
            },
            {
              "pitch": 55,
              "velocity": 50,
              "position": 13.291666666666666,
              "duration": 0.20416666666666666
            },
            {
              "pitch": 59,
              "velocity": 50,
              "position": 13.291666666666666,
              "duration": 0.20416666666666666
            },
            {
              "pitch": 55,
              "velocity": 49,
              "position": 14,
              "duration": 0.20416666666666666
            },
            {
              "pitch": 59,
              "velocity": 49,
              "position": 14,
              "duration": 0.20416666666666666
            },
            {
              "pitch": 60,
              "velocity": 44,
              "position": 14,
              "duration": 0.20416666666666666
            },
            {
              "pitch": 64,
              "velocity": 40,
              "position": 14.010416666666666,
              "duration": 0.20416666666666666
            },
            {
              "pitch": 64,
              "velocity": 38,
              "position": 15.510416666666666,
              "duration": 0.24791666666666667
            },
            {
              "pitch": 60,
              "velocity": 33,
              "position": 15.5,
              "duration": 0.2625
            },
            {
              "pitch": 55,
              "velocity": 37,
              "position": 15.5,
              "duration": 0.26875
            },
            {
              "pitch": 59,
              "velocity": 37,
              "position": 15.5,
              "duration": 0.26875
            },
            {
              "pitch": 55,
              "velocity": 35,
              "position": 15.78125,
              "duration": 0.2
            },
            {
              "pitch": 59,
              "velocity": 35,
              "position": 15.78125,
              "duration": 0.2
            },
            {
              "pitch": 64,
              "velocity": 38,
              "position": 15.770833333333334,
              "duration": 0.21041666666666667
            },
            {
              "pitch": 60,
              "velocity": 33,
              "position": 15.78125,
              "duration": 0.20416666666666666
            }
          ]
        },
        "12": {
          "ctab": {
            "srcChannel": 12,
            "name": "Piano",
            "accType": "CHORD2",
            "editable": false,
            "mutedNotes": [],
            "mutedChords": [],
            "autoStart": false,
            "sourceChordNote": 0,
            "sourceChordType": "Maj7",
            "ctb2Low": null,
            "ctb2Main": {
              "ntr": "ROOT_FIXED",
              "ntt": "CHORD",
              "bassOn": false,
              "chordRootUpperLimit": 7,
              "noteLowLimit": 0,
              "noteHighLimit": 127,
              "rtr": "PITCH_SHIFT"
            },
            "ctb2High": null
          },
          "notes": [
            {
              "pitch": 55,
              "velocity": 105,
              "position": 0.004166666666666667,
              "duration": 0.12083333333333333
            },
            {
              "pitch": 59,
              "velocity": 118,
              "position": 0.0125,
              "duration": 0.11875
            },
            {
              "pitch": 64,
              "velocity": 101,
              "position": 0,
              "duration": 0.14375
            },
            {
              "pitch": 24,
              "velocity": 104,
              "position": 0,
              "duration": 0.43333333333333335
            },
            {
              "pitch": 36,
              "velocity": 110,
              "position": 0,
              "duration": 0.43333333333333335
            },
            {
              "pitch": 55,
              "velocity": 76,
              "position": 0.5,
              "duration": 0.14166666666666666
            },
            {
              "pitch": 59,
              "velocity": 62,
              "position": 0.4895833333333333,
              "duration": 0.16875
            },
            {
              "pitch": 64,
              "velocity": 66,
              "position": 0.5041666666666667,
              "duration": 0.15416666666666667
            },
            {
              "pitch": 64,
              "velocity": 115,
              "position": 0.9895833333333334,
              "duration": 0.16666666666666666
            },
            {
              "pitch": 55,
              "velocity": 108,
              "position": 0.9916666666666667,
              "duration": 0.17708333333333334
            },
            {
              "pitch": 59,
              "velocity": 106,
              "position": 1.0041666666666667,
              "duration": 0.16458333333333333
            },
            {
              "pitch": 59,
              "velocity": 63,
              "position": 1.5,
              "duration": 0.11666666666666667
            },
            {
              "pitch": 64,
              "velocity": 72,
              "position": 1.5,
              "duration": 0.14166666666666666
            },
            {
              "pitch": 55,
              "velocity": 61,
              "position": 1.4895833333333333,
              "duration": 0.18333333333333332
            },
            {
              "pitch": 64,
              "velocity": 105,
              "position": 1.9895833333333333,
              "duration": 0.12291666666666666
            },
            {
              "pitch": 59,
              "velocity": 104,
              "position": 1.99375,
              "duration": 0.12708333333333333
            },
            {
              "pitch": 55,
              "velocity": 107,
              "position": 2.004166666666667,
              "duration": 0.19166666666666668
            },
            {
              "pitch": 64,
              "velocity": 75,
              "position": 2.5,
              "duration": 0.14166666666666666
            },
            {
              "pitch": 55,
              "velocity": 77,
              "position": 2.502083333333333,
              "duration": 0.15
            },
            {
              "pitch": 59,
              "velocity": 73,
              "position": 2.5,
              "duration": 0.15625
            },
            {
              "pitch": 24,
              "velocity": 104,
              "position": 2.5,
              "duration": 0.32916666666666666
            },
            {
              "pitch": 36,
              "velocity": 110,
              "position": 2.5,
              "duration": 0.32916666666666666
            },
            {
              "pitch": 55,
              "velocity": 112,
              "position": 2.9916666666666667,
              "duration": 0.12083333333333333
            },
            {
              "pitch": 64,
              "velocity": 117,
              "position": 2.9895833333333335,
              "duration": 0.15833333333333333
            },
            {
              "pitch": 59,
              "velocity": 101,
              "position": 3,
              "duration": 0.1875
            },
            {
              "pitch": 55,
              "velocity": 74,
              "position": 3.4916666666666667,
              "duration": 0.14583333333333334
            },
            {
              "pitch": 64,
              "velocity": 62,
              "position": 3.502083333333333,
              "duration": 0.18333333333333332
            },
            {
              "pitch": 59,
              "velocity": 68,
              "position": 3.502083333333333,
              "duration": 0.18541666666666667
            },
            {
              "pitch": 24,
              "velocity": 102,
              "position": 3.2708333333333335,
              "duration": 0.63125
            },
            {
              "pitch": 36,
              "velocity": 108,
              "position": 3.2708333333333335,
              "duration": 0.63125
            },
            {
              "pitch": 59,
              "velocity": 103,
              "position": 4.004166666666666,
              "duration": 0.14791666666666667
            },
            {
              "pitch": 64,
              "velocity": 110,
              "position": 4,
              "duration": 0.15416666666666667
            },
            {
              "pitch": 55,
              "velocity": 119,
              "position": 4,
              "duration": 0.18541666666666667
            },
            {
              "pitch": 24,
              "velocity": 104,
              "position": 4,
              "duration": 0.43333333333333335
            },
            {
              "pitch": 36,
              "velocity": 110,
              "position": 4,
              "duration": 0.43333333333333335
            },
            {
              "pitch": 55,
              "velocity": 61,
              "position": 4.491666666666666,
              "duration": 0.12916666666666668
            },
            {
              "pitch": 64,
              "velocity": 78,
              "position": 4.5,
              "duration": 0.1375
            },
            {
              "pitch": 59,
              "velocity": 77,
              "position": 4.5,
              "duration": 0.15625
            },
            {
              "pitch": 64,
              "velocity": 112,
              "position": 5,
              "duration": 0.15625
            },
            {
              "pitch": 59,
              "velocity": 117,
              "position": 5,
              "duration": 0.18541666666666667
            },
            {
              "pitch": 55,
              "velocity": 118,
              "position": 5.004166666666666,
              "duration": 0.19375
            },
            {
              "pitch": 55,
              "velocity": 63,
              "position": 5.489583333333333,
              "duration": 0.125
            },
            {
              "pitch": 64,
              "velocity": 73,
              "position": 5.504166666666666,
              "duration": 0.11875
            },
            {
              "pitch": 59,
              "velocity": 74,
              "position": 5.502083333333333,
              "duration": 0.13541666666666666
            },
            {
              "pitch": 64,
              "velocity": 117,
              "position": 5.99375,
              "duration": 0.15
            },
            {
              "pitch": 59,
              "velocity": 114,
              "position": 5.991666666666666,
              "duration": 0.18125
            },
            {
              "pitch": 55,
              "velocity": 105,
              "position": 6,
              "duration": 0.1875
            },
            {
              "pitch": 64,
              "velocity": 74,
              "position": 6.491666666666666,
              "duration": 0.15
            },
            {
              "pitch": 55,
              "velocity": 67,
              "position": 6.489583333333333,
              "duration": 0.15833333333333333
            },
            {
              "pitch": 59,
              "velocity": 72,
              "position": 6.5,
              "duration": 0.1625
            },
            {
              "pitch": 24,
              "velocity": 104,
              "position": 6.5,
              "duration": 0.3229166666666667
            },
            {
              "pitch": 36,
              "velocity": 110,
              "position": 6.5,
              "duration": 0.3229166666666667
            },
            {
              "pitch": 55,
              "velocity": 108,
              "position": 6.989583333333333,
              "duration": 0.14791666666666667
            },
            {
              "pitch": 59,
              "velocity": 118,
              "position": 7,
              "duration": 0.15208333333333332
            },
            {
              "pitch": 64,
              "velocity": 118,
              "position": 6.989583333333333,
              "duration": 0.16875
            },
            {
              "pitch": 59,
              "velocity": 64,
              "position": 7.5,
              "duration": 0.13125
            },
            {
              "pitch": 64,
              "velocity": 69,
              "position": 7.489583333333333,
              "duration": 0.18541666666666667
            },
            {
              "pitch": 55,
              "velocity": 63,
              "position": 7.5,
              "duration": 0.19375
            },
            {
              "pitch": 24,
              "velocity": 102,
              "position": 7.270833333333333,
              "duration": 0.63125
            },
            {
              "pitch": 36,
              "velocity": 108,
              "position": 7.270833333333333,
              "duration": 0.63125
            },
            {
              "pitch": 55,
              "velocity": 101,
              "position": 7.99375,
              "duration": 0.11875
            },
            {
              "pitch": 59,
              "velocity": 119,
              "position": 7.99375,
              "duration": 0.14375
            },
            {
              "pitch": 64,
              "velocity": 108,
              "position": 8,
              "duration": 0.1875
            },
            {
              "pitch": 24,
              "velocity": 104,
              "position": 8,
              "duration": 0.43333333333333335
            },
            {
              "pitch": 36,
              "velocity": 110,
              "position": 8,
              "duration": 0.43333333333333335
            },
            {
              "pitch": 55,
              "velocity": 76,
              "position": 8.5,
              "duration": 0.16666666666666666
            },
            {
              "pitch": 64,
              "velocity": 64,
              "position": 8.5,
              "duration": 0.17291666666666666
            },
            {
              "pitch": 59,
              "velocity": 61,
              "position": 8.502083333333333,
              "duration": 0.17708333333333334
            },
            {
              "pitch": 55,
              "velocity": 117,
              "position": 8.989583333333334,
              "duration": 0.15208333333333332
            },
            {
              "pitch": 59,
              "velocity": 103,
              "position": 9,
              "duration": 0.17916666666666667
            },
            {
              "pitch": 64,
              "velocity": 116,
              "position": 9.004166666666666,
              "duration": 0.18541666666666667
            },
            {
              "pitch": 64,
              "velocity": 67,
              "position": 9.5,
              "duration": 0.14166666666666666
            },
            {
              "pitch": 55,
              "velocity": 76,
              "position": 9.489583333333334,
              "duration": 0.19583333333333333
            },
            {
              "pitch": 59,
              "velocity": 74,
              "position": 9.502083333333333,
              "duration": 0.18333333333333332
            },
            {
              "pitch": 64,
              "velocity": 118,
              "position": 10,
              "duration": 0.12083333333333333
            },
            {
              "pitch": 59,
              "velocity": 117,
              "position": 10.002083333333333,
              "duration": 0.125
            },
            {
              "pitch": 55,
              "velocity": 110,
              "position": 10,
              "duration": 0.13541666666666666
            },
            {
              "pitch": 64,
              "velocity": 67,
              "position": 10.502083333333333,
              "duration": 0.12916666666666668
            },
            {
              "pitch": 55,
              "velocity": 70,
              "position": 10.5,
              "duration": 0.14375
            },
            {
              "pitch": 24,
              "velocity": 104,
              "position": 10.5,
              "duration": 0.33125
            },
            {
              "pitch": 36,
              "velocity": 110,
              "position": 10.5,
              "duration": 0.33125
            },
            {
              "pitch": 59,
              "velocity": 79,
              "position": 10.5,
              "duration": 0.3333333333333333
            },
            {
              "pitch": 55,
              "velocity": 110,
              "position": 11,
              "duration": 0.125
            },
            {
              "pitch": 64,
              "velocity": 107,
              "position": 11,
              "duration": 0.12708333333333333
            },
            {
              "pitch": 59,
              "velocity": 110,
              "position": 11,
              "duration": 0.17291666666666666
            },
            {
              "pitch": 59,
              "velocity": 68,
              "position": 11.5,
              "duration": 0.11666666666666667
            },
            {
              "pitch": 55,
              "velocity": 64,
              "position": 11.502083333333333,
              "duration": 0.125
            },
            {
              "pitch": 64,
              "velocity": 69,
              "position": 11.502083333333333,
              "duration": 0.15625
            },
            {
              "pitch": 24,
              "velocity": 102,
              "position": 11.270833333333334,
              "duration": 0.63125
            },
            {
              "pitch": 36,
              "velocity": 108,
              "position": 11.270833333333334,
              "duration": 0.63125
            },
            {
              "pitch": 55,
              "velocity": 110,
              "position": 12.004166666666666,
              "duration": 0.16458333333333333
            },
            {
              "pitch": 64,
              "velocity": 112,
              "position": 12,
              "duration": 0.17916666666666667
            },
            {
              "pitch": 59,
              "velocity": 109,
              "position": 12.002083333333333,
              "duration": 0.19791666666666666
            },
            {
              "pitch": 24,
              "velocity": 104,
              "position": 12,
              "duration": 0.43333333333333335
            },
            {
              "pitch": 36,
              "velocity": 110,
              "position": 12,
              "duration": 0.43333333333333335
            },
            {
              "pitch": 59,
              "velocity": 70,
              "position": 12.491666666666667,
              "duration": 0.14583333333333334
            },
            {
              "pitch": 55,
              "velocity": 66,
              "position": 12.5,
              "duration": 0.17291666666666666
            },
            {
              "pitch": 64,
              "velocity": 62,
              "position": 12.5,
              "duration": 0.175
            },
            {
              "pitch": 59,
              "velocity": 101,
              "position": 12.989583333333334,
              "duration": 0.14166666666666666
            },
            {
              "pitch": 55,
              "velocity": 104,
              "position": 13.004166666666666,
              "duration": 0.14791666666666667
            },
            {
              "pitch": 64,
              "velocity": 109,
              "position": 13,
              "duration": 0.15833333333333333
            },
            {
              "pitch": 64,
              "velocity": 72,
              "position": 13.502083333333333,
              "duration": 0.14166666666666666
            },
            {
              "pitch": 55,
              "velocity": 63,
              "position": 13.5,
              "duration": 0.15416666666666667
            },
            {
              "pitch": 59,
              "velocity": 63,
              "position": 13.502083333333333,
              "duration": 0.18125
            },
            {
              "pitch": 55,
              "velocity": 103,
              "position": 13.989583333333334,
              "duration": 0.11666666666666667
            },
            {
              "pitch": 64,
              "velocity": 108,
              "position": 13.989583333333334,
              "duration": 0.12291666666666666
            },
            {
              "pitch": 59,
              "velocity": 112,
              "position": 14,
              "duration": 0.11666666666666667
            },
            {
              "pitch": 64,
              "velocity": 70,
              "position": 14.502083333333333,
              "duration": 0.15625
            },
            {
              "pitch": 55,
              "velocity": 65,
              "position": 14.49375,
              "duration": 0.175
            },
            {
              "pitch": 59,
              "velocity": 73,
              "position": 14.489583333333334,
              "duration": 0.18541666666666667
            },
            {
              "pitch": 24,
              "velocity": 104,
              "position": 14.5,
              "duration": 0.3333333333333333
            },
            {
              "pitch": 36,
              "velocity": 110,
              "position": 14.5,
              "duration": 0.3333333333333333
            },
            {
              "pitch": 64,
              "velocity": 102,
              "position": 15.002083333333333,
              "duration": 0.11458333333333333
            },
            {
              "pitch": 55,
              "velocity": 119,
              "position": 14.99375,
              "duration": 0.13333333333333333
            },
            {
              "pitch": 59,
              "velocity": 113,
              "position": 15,
              "duration": 0.15833333333333333
            },
            {
              "pitch": 59,
              "velocity": 78,
              "position": 15.489583333333334,
              "duration": 0.13125
            },
            {
              "pitch": 64,
              "velocity": 61,
              "position": 15.5,
              "duration": 0.175
            },
            {
              "pitch": 55,
              "velocity": 76,
              "position": 15.5,
              "duration": 0.1875
            },
            {
              "pitch": 24,
              "velocity": 102,
              "position": 15.270833333333334,
              "duration": 0.63125
            },
            {
              "pitch": 36,
              "velocity": 108,
              "position": 15.270833333333334,
              "duration": 0.63125
            }
          ]
        },
        "13": {
          "ctab": {
            "srcChannel": 13,
            "name": "Organ",
            "accType": "PAD",
            "editable": false,
            "mutedNotes": [],
            "mutedChords": [],
            "autoStart": false,
            "sourceChordNote": 0,
            "sourceChordType": "Maj7",
            "ctb2Low": null,
            "ctb2Main": {
              "ntr": "ROOT_FIXED",
              "ntt": "CHORD",
              "bassOn": false,
              "chordRootUpperLimit": 7,
              "noteLowLimit": 0,
              "noteHighLimit": 127,
              "rtr": "PITCH_SHIFT"
            },
            "ctb2High": null
          },
          "notes": [
            {
              "pitch": 59,
              "velocity": 50,
              "position": 0.010416666666666666,
              "duration": 0.48541666666666666
            },
            {
              "pitch": 64,
              "velocity": 50,
              "position": 0.010416666666666666,
              "duration": 0.48541666666666666
            },
            {
              "pitch": 67,
              "velocity": 50,
              "position": 0.010416666666666666,
              "duration": 0.48541666666666666
            },
            {
              "pitch": 59,
              "velocity": 50,
              "position": 2.4833333333333334,
              "duration": 0.36041666666666666
            },
            {
              "pitch": 64,
              "velocity": 50,
              "position": 2.4833333333333334,
              "duration": 0.36041666666666666
            },
            {
              "pitch": 67,
              "velocity": 50,
              "position": 2.4833333333333334,
              "duration": 0.36041666666666666
            },
            {
              "pitch": 59,
              "velocity": 50,
              "position": 3.28125,
              "duration": 0.7041666666666667
            },
            {
              "pitch": 64,
              "velocity": 50,
              "position": 3.28125,
              "duration": 0.7041666666666667
            },
            {
              "pitch": 67,
              "velocity": 50,
              "position": 3.28125,
              "duration": 0.7041666666666667
            },
            {
              "pitch": 59,
              "velocity": 50,
              "position": 4,
              "duration": 0.48541666666666666
            },
            {
              "pitch": 64,
              "velocity": 50,
              "position": 4,
              "duration": 0.48541666666666666
            },
            {
              "pitch": 67,
              "velocity": 50,
              "position": 4,
              "duration": 0.48541666666666666
            },
            {
              "pitch": 59,
              "velocity": 50,
              "position": 6.5,
              "duration": 0.36041666666666666
            },
            {
              "pitch": 64,
              "velocity": 50,
              "position": 6.5,
              "duration": 0.36041666666666666
            },
            {
              "pitch": 67,
              "velocity": 50,
              "position": 6.5,
              "duration": 0.36041666666666666
            },
            {
              "pitch": 59,
              "velocity": 50,
              "position": 7.25,
              "duration": 0.7145833333333333
            },
            {
              "pitch": 64,
              "velocity": 50,
              "position": 7.25,
              "duration": 0.7145833333333333
            },
            {
              "pitch": 67,
              "velocity": 50,
              "position": 7.25,
              "duration": 0.7145833333333333
            },
            {
              "pitch": 59,
              "velocity": 50,
              "position": 8,
              "duration": 0.48541666666666666
            },
            {
              "pitch": 64,
              "velocity": 50,
              "position": 8,
              "duration": 0.48541666666666666
            },
            {
              "pitch": 67,
              "velocity": 50,
              "position": 8,
              "duration": 0.48541666666666666
            },
            {
              "pitch": 59,
              "velocity": 50,
              "position": 10.489583333333334,
              "duration": 0.36041666666666666
            },
            {
              "pitch": 64,
              "velocity": 50,
              "position": 10.489583333333334,
              "duration": 0.36041666666666666
            },
            {
              "pitch": 67,
              "velocity": 50,
              "position": 10.489583333333334,
              "duration": 0.36041666666666666
            },
            {
              "pitch": 59,
              "velocity": 50,
              "position": 11.252083333333333,
              "duration": 0.7166666666666667
            },
            {
              "pitch": 64,
              "velocity": 50,
              "position": 11.252083333333333,
              "duration": 0.7166666666666667
            },
            {
              "pitch": 67,
              "velocity": 50,
              "position": 11.252083333333333,
              "duration": 0.7166666666666667
            },
            {
              "pitch": 59,
              "velocity": 50,
              "position": 12.010416666666666,
              "duration": 0.48541666666666666
            },
            {
              "pitch": 64,
              "velocity": 50,
              "position": 12.010416666666666,
              "duration": 0.48541666666666666
            },
            {
              "pitch": 67,
              "velocity": 50,
              "position": 12.010416666666666,
              "duration": 0.48541666666666666
            },
            {
              "pitch": 59,
              "velocity": 50,
              "position": 14.489583333333334,
              "duration": 0.3625
            },
            {
              "pitch": 64,
              "velocity": 50,
              "position": 14.489583333333334,
              "duration": 0.3625
            },
            {
              "pitch": 67,
              "velocity": 50,
              "position": 14.489583333333334,
              "duration": 0.3625
            },
            {
              "pitch": 59,
              "velocity": 50,
              "position": 15.285416666666666,
              "duration": 0.6958333333333333
            },
            {
              "pitch": 64,
              "velocity": 50,
              "position": 15.285416666666666,
              "duration": 0.6958333333333333
            },
            {
              "pitch": 67,
              "velocity": 50,
              "position": 15.285416666666666,
              "duration": 0.6958333333333333
            }
          ]
        },
        "14": {
          "ctab": {
            "srcChannel": 14,
            "name": "Tele",
            "accType": "PHRASE1",
            "editable": false,
            "mutedNotes": [],
            "mutedChords": [],
            "autoStart": false,
            "sourceChordNote": 0,
            "sourceChordType": "Maj7",
            "ctb2Low": null,
            "ctb2Main": {
              "ntr": "ROOT_TRANSPOSITION",
              "ntt": "MELODY",
              "bassOn": false,
              "chordRootUpperLimit": 7,
              "noteLowLimit": 0,
              "noteHighLimit": 127,
              "rtr": "PITCH_SHIFT"
            },
            "ctb2High": null
          },
          "notes": []
        }
      }
    },
    "Main_C": {
      "type": "Main_C",
      "sizeInBeats": 16,
      "channels": {
        "1": {
          "ctab": {
            "srcChannel": 1,
            "name": "Bass B",
            "accType": "BASS",
            "editable": false,
            "mutedNotes": [],
            "mutedChords": [
              "1+2+5",
              "1+5",
              "1+8",
              "7(#9)",
              "7(b13)",
              "7(b9)",
              "7(13)",
              "7#11",
              "7(9)",
              "7b5",
              "7sus4",
              "7th",
              "dim7",
              "dim",
              "min7(11)",
              "min7(9)",
              "m7b5",
              "min7",
              "min6",
              "Maj6(9)",
              "Maj7(9)",
              "Maj(9)",
              "Maj7#11",
              "Maj7",
              "Maj6",
              "Maj"
            ],
            "autoStart": false,
            "sourceChordNote": 0,
            "sourceChordType": "Maj7",
            "ctb2Low": null,
            "ctb2Main": {
              "ntr": "ROOT_TRANSPOSITION",
              "ntt": "MELODY",
              "bassOn": true,
              "chordRootUpperLimit": 3,
              "noteLowLimit": 28,
              "noteHighLimit": 127,
              "rtr": "PITCH_SHIFT_TO_ROOT"
            },
            "ctb2High": null
          },
          "notes": [
            {
              "pitch": 36,
              "velocity": 74,
              "position": 0,
              "duration": 0.29791666666666666
            },
            {
              "pitch": 36,
              "velocity": 74,
              "position": 0.5,
              "duration": 0.36041666666666666
            },
            {
              "pitch": 36,
              "velocity": 110,
              "position": 1.7541666666666667,
              "duration": 0.21666666666666667
            },
            {
              "pitch": 36,
              "velocity": 68,
              "position": 2.004166666666667,
              "duration": 0.29791666666666666
            },
            {
              "pitch": 36,
              "velocity": 72,
              "position": 2.4895833333333335,
              "duration": 0.3625
            },
            {
              "pitch": 43,
              "velocity": 70,
              "position": 3.5,
              "duration": 0.23541666666666666
            },
            {
              "pitch": 48,
              "velocity": 60,
              "position": 3.7729166666666667,
              "duration": 0.20833333333333334
            },
            {
              "pitch": 36,
              "velocity": 74,
              "position": 4,
              "duration": 0.29791666666666666
            },
            {
              "pitch": 36,
              "velocity": 73,
              "position": 4.48125,
              "duration": 0.3625
            },
            {
              "pitch": 36,
              "velocity": 110,
              "position": 5.760416666666667,
              "duration": 0.21458333333333332
            },
            {
              "pitch": 36,
              "velocity": 72,
              "position": 6.010416666666667,
              "duration": 0.29791666666666666
            },
            {
              "pitch": 36,
              "velocity": 67,
              "position": 6.479166666666667,
              "duration": 0.36041666666666666
            },
            {
              "pitch": 36,
              "velocity": 110,
              "position": 7.270833333333333,
              "duration": 0.21458333333333332
            },
            {
              "pitch": 43,
              "velocity": 73,
              "position": 7.5,
              "duration": 0.23541666666666666
            },
            {
              "pitch": 48,
              "velocity": 60,
              "position": 7.770833333333333,
              "duration": 0.21458333333333332
            },
            {
              "pitch": 36,
              "velocity": 71,
              "position": 8.004166666666666,
              "duration": 0.3
            },
            {
              "pitch": 36,
              "velocity": 67,
              "position": 8.5,
              "duration": 0.36041666666666666
            },
            {
              "pitch": 36,
              "velocity": 110,
              "position": 9.770833333333334,
              "duration": 0.21458333333333332
            },
            {
              "pitch": 36,
              "velocity": 70,
              "position": 10.010416666666666,
              "duration": 0.29791666666666666
            },
            {
              "pitch": 36,
              "velocity": 70,
              "position": 10.514583333333333,
              "duration": 0.3625
            },
            {
              "pitch": 43,
              "velocity": 69,
              "position": 11.489583333333334,
              "duration": 0.23541666666666666
            },
            {
              "pitch": 48,
              "velocity": 61,
              "position": 11.75,
              "duration": 0.21666666666666667
            },
            {
              "pitch": 36,
              "velocity": 73,
              "position": 12.010416666666666,
              "duration": 0.29791666666666666
            },
            {
              "pitch": 36,
              "velocity": 72,
              "position": 12.510416666666666,
              "duration": 0.36041666666666666
            },
            {
              "pitch": 36,
              "velocity": 74,
              "position": 13.270833333333334,
              "duration": 0.07916666666666666
            },
            {
              "pitch": 36,
              "velocity": 110,
              "position": 13.760416666666666,
              "duration": 0.21458333333333332
            },
            {
              "pitch": 36,
              "velocity": 71,
              "position": 13.99375,
              "duration": 0.29791666666666666
            },
            {
              "pitch": 36,
              "velocity": 70,
              "position": 14.489583333333334,
              "duration": 0.3625
            },
            {
              "pitch": 36,
              "velocity": 58,
              "position": 15.264583333333333,
              "duration": 0.20208333333333334
            },
            {
              "pitch": 43,
              "velocity": 76,
              "position": 15.479166666666666,
              "duration": 0.2375
            },
            {
              "pitch": 48,
              "velocity": 63,
              "position": 15.772916666666667,
              "duration": 0.21458333333333332
            }
          ]
        },
        "4": {
          "ctab": {
            "srcChannel": 4,
            "name": "Organ rt",
            "accType": "PAD",
            "editable": false,
            "mutedNotes": [],
            "mutedChords": [
              "1+2+5",
              "sus4",
              "1+5",
              "1+8",
              "Maj7aug",
              "dim",
              "minMaj7(9)",
              "minMaj7",
              "min6",
              "min",
              "aug",
              "Maj7(9)",
              "Maj7#11",
              "Maj7",
              "Maj6",
              "Maj"
            ],
            "autoStart": false,
            "sourceChordNote": 0,
            "sourceChordType": "Maj7",
            "ctb2Low": null,
            "ctb2Main": {
              "ntr": "ROOT_TRANSPOSITION",
              "ntt": "MELODY",
              "bassOn": false,
              "chordRootUpperLimit": 10,
              "noteLowLimit": 0,
              "noteHighLimit": 127,
              "rtr": "PITCH_SHIFT"
            },
            "ctb2High": null
          },
          "notes": [
            {
              "pitch": 60,
              "velocity": 50,
              "position": 0.010416666666666666,
              "duration": 2.870833333333333
            },
            {
              "pitch": 60,
              "velocity": 50,
              "position": 3.0104166666666665,
              "duration": 0.975
            },
            {
              "pitch": 60,
              "velocity": 50,
              "position": 4,
              "duration": 3.870833333333333
            },
            {
              "pitch": 60,
              "velocity": 50,
              "position": 8,
              "duration": 2.870833333333333
            },
            {
              "pitch": 60,
              "velocity": 50,
              "position": 11,
              "duration": 0.9958333333333333
            },
            {
              "pitch": 60,
              "velocity": 50,
              "position": 12.010416666666666,
              "duration": 3.8541666666666665
            }
          ]
        },
        "8": {
          "ctab": {
            "srcChannel": 8,
            "name": "AddDrum",
            "accType": "SUBRHYTHM",
            "editable": false,
            "mutedNotes": [],
            "mutedChords": [],
            "autoStart": true,
            "sourceChordNote": 0,
            "sourceChordType": "Maj7",
            "ctb2Low": null,
            "ctb2Main": {
              "ntr": "ROOT_FIXED",
              "ntt": "BYPASS",
              "bassOn": false,
              "chordRootUpperLimit": 6,
              "noteLowLimit": 0,
              "noteHighLimit": 127,
              "rtr": "PITCH_SHIFT"
            },
            "ctb2High": null
          },
          "notes": [
            {
              "pitch": 42,
              "velocity": 120,
              "position": 0,
              "duration": 0.00625
            },
            {
              "pitch": 32,
              "velocity": 34,
              "position": 0.2708333333333333,
              "duration": 0.00625
            },
            {
              "pitch": 46,
              "velocity": 60,
              "position": 0.5,
              "duration": 0.00625
            },
            {
              "pitch": 32,
              "velocity": 106,
              "position": 1,
              "duration": 0.00625
            },
            {
              "pitch": 42,
              "velocity": 120,
              "position": 1,
              "duration": 0.00625
            },
            {
              "pitch": 42,
              "velocity": 40,
              "position": 1.5,
              "duration": 0.00625
            },
            {
              "pitch": 32,
              "velocity": 24,
              "position": 1.7708333333333333,
              "duration": 0.00625
            },
            {
              "pitch": 42,
              "velocity": 120,
              "position": 2,
              "duration": 0.00625
            },
            {
              "pitch": 32,
              "velocity": 24,
              "position": 2.2708333333333335,
              "duration": 0.00625
            },
            {
              "pitch": 42,
              "velocity": 40,
              "position": 2.5,
              "duration": 0.00625
            },
            {
              "pitch": 32,
              "velocity": 106,
              "position": 3,
              "duration": 0.00625
            },
            {
              "pitch": 42,
              "velocity": 120,
              "position": 3,
              "duration": 0.00625
            },
            {
              "pitch": 46,
              "velocity": 60,
              "position": 3.5,
              "duration": 0.00625
            },
            {
              "pitch": 32,
              "velocity": 34,
              "position": 3.7708333333333335,
              "duration": 0.00625
            },
            {
              "pitch": 26,
              "velocity": 50,
              "position": 0,
              "duration": 3.9854166666666666
            },
            {
              "pitch": 42,
              "velocity": 120,
              "position": 4,
              "duration": 0.00625
            },
            {
              "pitch": 32,
              "velocity": 34,
              "position": 4.270833333333333,
              "duration": 0.00625
            },
            {
              "pitch": 46,
              "velocity": 60,
              "position": 4.5,
              "duration": 0.00625
            },
            {
              "pitch": 32,
              "velocity": 106,
              "position": 5,
              "duration": 0.00625
            },
            {
              "pitch": 42,
              "velocity": 120,
              "position": 5,
              "duration": 0.00625
            },
            {
              "pitch": 42,
              "velocity": 40,
              "position": 5.5,
              "duration": 0.00625
            },
            {
              "pitch": 32,
              "velocity": 24,
              "position": 5.770833333333333,
              "duration": 0.00625
            },
            {
              "pitch": 42,
              "velocity": 120,
              "position": 6,
              "duration": 0.00625
            },
            {
              "pitch": 32,
              "velocity": 24,
              "position": 6.270833333333333,
              "duration": 0.00625
            },
            {
              "pitch": 42,
              "velocity": 40,
              "position": 6.5,
              "duration": 0.00625
            },
            {
              "pitch": 32,
              "velocity": 106,
              "position": 7,
              "duration": 0.00625
            },
            {
              "pitch": 42,
              "velocity": 120,
              "position": 7,
              "duration": 0.00625
            },
            {
              "pitch": 46,
              "velocity": 60,
              "position": 7.5,
              "duration": 0.00625
            },
            {
              "pitch": 32,
              "velocity": 34,
              "position": 7.770833333333333,
              "duration": 0.00625
            },
            {
              "pitch": 26,
              "velocity": 50,
              "position": 4,
              "duration": 3.9854166666666666
            },
            {
              "pitch": 42,
              "velocity": 120,
              "position": 8,
              "duration": 0.00625
            },
            {
              "pitch": 32,
              "velocity": 34,
              "position": 8.270833333333334,
              "duration": 0.00625
            },
            {
              "pitch": 46,
              "velocity": 60,
              "position": 8.5,
              "duration": 0.00625
            },
            {
              "pitch": 32,
              "velocity": 106,
              "position": 9,
              "duration": 0.00625
            },
            {
              "pitch": 42,
              "velocity": 120,
              "position": 9,
              "duration": 0.00625
            },
            {
              "pitch": 42,
              "velocity": 40,
              "position": 9.5,
              "duration": 0.00625
            },
            {
              "pitch": 32,
              "velocity": 24,
              "position": 9.770833333333334,
              "duration": 0.00625
            },
            {
              "pitch": 42,
              "velocity": 120,
              "position": 10,
              "duration": 0.00625
            },
            {
              "pitch": 32,
              "velocity": 24,
              "position": 10.270833333333334,
              "duration": 0.00625
            },
            {
              "pitch": 42,
              "velocity": 40,
              "position": 10.5,
              "duration": 0.00625
            },
            {
              "pitch": 32,
              "velocity": 106,
              "position": 11,
              "duration": 0.00625
            },
            {
              "pitch": 42,
              "velocity": 120,
              "position": 11,
              "duration": 0.00625
            },
            {
              "pitch": 46,
              "velocity": 60,
              "position": 11.5,
              "duration": 0.00625
            },
            {
              "pitch": 32,
              "velocity": 34,
              "position": 11.770833333333334,
              "duration": 0.00625
            },
            {
              "pitch": 26,
              "velocity": 50,
              "position": 8,
              "duration": 3.9854166666666666
            },
            {
              "pitch": 42,
              "velocity": 120,
              "position": 12,
              "duration": 0.00625
            },
            {
              "pitch": 32,
              "velocity": 34,
              "position": 12.270833333333334,
              "duration": 0.00625
            },
            {
              "pitch": 46,
              "velocity": 60,
              "position": 12.5,
              "duration": 0.00625
            },
            {
              "pitch": 32,
              "velocity": 106,
              "position": 13,
              "duration": 0.00625
            },
            {
              "pitch": 42,
              "velocity": 120,
              "position": 13,
              "duration": 0.00625
            },
            {
              "pitch": 42,
              "velocity": 40,
              "position": 13.5,
              "duration": 0.00625
            },
            {
              "pitch": 32,
              "velocity": 24,
              "position": 13.770833333333334,
              "duration": 0.00625
            },
            {
              "pitch": 42,
              "velocity": 120,
              "position": 14,
              "duration": 0.00625
            },
            {
              "pitch": 32,
              "velocity": 24,
              "position": 14.270833333333334,
              "duration": 0.00625
            },
            {
              "pitch": 42,
              "velocity": 40,
              "position": 14.5,
              "duration": 0.00625
            },
            {
              "pitch": 32,
              "velocity": 106,
              "position": 15,
              "duration": 0.00625
            },
            {
              "pitch": 42,
              "velocity": 120,
              "position": 15,
              "duration": 0.00625
            },
            {
              "pitch": 18,
              "velocity": 81,
              "position": 14.666666666666666,
              "duration": 0.4875
            },
            {
              "pitch": 17,
              "velocity": 127,
              "position": 15,
              "duration": 0.48541666666666666
            },
            {
              "pitch": 46,
              "velocity": 60,
              "position": 15.5,
              "duration": 0.00625
            },
            {
              "pitch": 18,
              "velocity": 81,
              "position": 15.166666666666666,
              "duration": 0.4875
            },
            {
              "pitch": 32,
              "velocity": 34,
              "position": 15.770833333333334,
              "duration": 0.00625
            },
            {
              "pitch": 17,
              "velocity": 127,
              "position": 15.5,
              "duration": 0.48541666666666666
            },
            {
              "pitch": 26,
              "velocity": 50,
              "position": 12,
              "duration": 3.9854166666666666
            }
          ]
        },
        "9": {
          "ctab": {
            "srcChannel": 9,
            "name": "MainDrum",
            "accType": "RHYTHM",
            "editable": false,
            "mutedNotes": [],
            "mutedChords": [],
            "autoStart": true,
            "sourceChordNote": 0,
            "sourceChordType": "Maj7",
            "ctb2Low": null,
            "ctb2Main": {
              "ntr": "ROOT_FIXED",
              "ntt": "BYPASS",
              "bassOn": false,
              "chordRootUpperLimit": 6,
              "noteLowLimit": 0,
              "noteHighLimit": 127,
              "rtr": "PITCH_SHIFT"
            },
            "ctb2High": null
          },
          "notes": [
            {
              "pitch": 35,
              "velocity": 100,
              "position": 0,
              "duration": 0.00625
            },
            {
              "pitch": 42,
              "velocity": 107,
              "position": 0,
              "duration": 0.00625
            },
            {
              "pitch": 54,
              "velocity": 97,
              "position": 0,
              "duration": 0.00625
            },
            {
              "pitch": 54,
              "velocity": 24,
              "position": 0.26458333333333334,
              "duration": 0.00625
            },
            {
              "pitch": 38,
              "velocity": 25,
              "position": 0.2708333333333333,
              "duration": 0.00625
            },
            {
              "pitch": 35,
              "velocity": 100,
              "position": 0.5,
              "duration": 0.00625
            },
            {
              "pitch": 46,
              "velocity": 60,
              "position": 0.5,
              "duration": 0.00625
            },
            {
              "pitch": 54,
              "velocity": 35,
              "position": 0.5,
              "duration": 0.00625
            },
            {
              "pitch": 54,
              "velocity": 34,
              "position": 0.7729166666666667,
              "duration": 0.00625
            },
            {
              "pitch": 38,
              "velocity": 104,
              "position": 1,
              "duration": 0.00625
            },
            {
              "pitch": 42,
              "velocity": 110,
              "position": 1,
              "duration": 0.00625
            },
            {
              "pitch": 54,
              "velocity": 97,
              "position": 1.0020833333333334,
              "duration": 0.00625
            },
            {
              "pitch": 54,
              "velocity": 20,
              "position": 1.2645833333333334,
              "duration": 0.00625
            },
            {
              "pitch": 42,
              "velocity": 54,
              "position": 1.5,
              "duration": 0.00625
            },
            {
              "pitch": 54,
              "velocity": 40,
              "position": 1.5,
              "duration": 0.00625
            },
            {
              "pitch": 38,
              "velocity": 45,
              "position": 1.7604166666666667,
              "duration": 0.00625
            },
            {
              "pitch": 54,
              "velocity": 33,
              "position": 1.7625,
              "duration": 0.00625
            },
            {
              "pitch": 35,
              "velocity": 100,
              "position": 2,
              "duration": 0.00625
            },
            {
              "pitch": 42,
              "velocity": 110,
              "position": 2,
              "duration": 0.00625
            },
            {
              "pitch": 54,
              "velocity": 83,
              "position": 2,
              "duration": 0.00625
            },
            {
              "pitch": 38,
              "velocity": 48,
              "position": 2.2625,
              "duration": 0.00625
            },
            {
              "pitch": 54,
              "velocity": 15,
              "position": 2.275,
              "duration": 0.00625
            },
            {
              "pitch": 35,
              "velocity": 100,
              "position": 2.5,
              "duration": 0.00625
            },
            {
              "pitch": 42,
              "velocity": 62,
              "position": 2.5,
              "duration": 0.00625
            },
            {
              "pitch": 54,
              "velocity": 36,
              "position": 2.5,
              "duration": 0.00625
            },
            {
              "pitch": 54,
              "velocity": 23,
              "position": 2.7708333333333335,
              "duration": 0.00625
            },
            {
              "pitch": 38,
              "velocity": 104,
              "position": 3,
              "duration": 0.00625
            },
            {
              "pitch": 42,
              "velocity": 110,
              "position": 3,
              "duration": 0.00625
            },
            {
              "pitch": 54,
              "velocity": 100,
              "position": 3,
              "duration": 0.00625
            },
            {
              "pitch": 54,
              "velocity": 19,
              "position": 3.2604166666666665,
              "duration": 0.00625
            },
            {
              "pitch": 35,
              "velocity": 80,
              "position": 3.5,
              "duration": 0.00625
            },
            {
              "pitch": 46,
              "velocity": 60,
              "position": 3.5,
              "duration": 0.00625
            },
            {
              "pitch": 54,
              "velocity": 46,
              "position": 3.502083333333333,
              "duration": 0.00625
            },
            {
              "pitch": 38,
              "velocity": 45,
              "position": 3.7604166666666665,
              "duration": 0.00625
            },
            {
              "pitch": 54,
              "velocity": 39,
              "position": 3.7708333333333335,
              "duration": 0.00625
            },
            {
              "pitch": 38,
              "velocity": 36,
              "position": 3.8645833333333335,
              "duration": 0.00625
            },
            {
              "pitch": 35,
              "velocity": 100,
              "position": 4,
              "duration": 0.00625
            },
            {
              "pitch": 42,
              "velocity": 110,
              "position": 4,
              "duration": 0.00625
            },
            {
              "pitch": 54,
              "velocity": 77,
              "position": 4,
              "duration": 0.00625
            },
            {
              "pitch": 54,
              "velocity": 26,
              "position": 4.260416666666667,
              "duration": 0.00625
            },
            {
              "pitch": 38,
              "velocity": 26,
              "position": 4.272916666666666,
              "duration": 0.00625
            },
            {
              "pitch": 35,
              "velocity": 100,
              "position": 4.5,
              "duration": 0.00625
            },
            {
              "pitch": 46,
              "velocity": 60,
              "position": 4.5,
              "duration": 0.00625
            },
            {
              "pitch": 54,
              "velocity": 35,
              "position": 4.502083333333333,
              "duration": 0.00625
            },
            {
              "pitch": 38,
              "velocity": 24,
              "position": 4.7625,
              "duration": 0.00625
            },
            {
              "pitch": 54,
              "velocity": 23,
              "position": 4.7625,
              "duration": 0.00625
            },
            {
              "pitch": 38,
              "velocity": 104,
              "position": 5,
              "duration": 0.00625
            },
            {
              "pitch": 42,
              "velocity": 109,
              "position": 5,
              "duration": 0.00625
            },
            {
              "pitch": 54,
              "velocity": 76,
              "position": 5.002083333333333,
              "duration": 0.00625
            },
            {
              "pitch": 38,
              "velocity": 26,
              "position": 5.260416666666667,
              "duration": 0.00625
            },
            {
              "pitch": 54,
              "velocity": 21,
              "position": 5.270833333333333,
              "duration": 0.00625
            },
            {
              "pitch": 54,
              "velocity": 43,
              "position": 5.49375,
              "duration": 0.00625
            },
            {
              "pitch": 42,
              "velocity": 54,
              "position": 5.5,
              "duration": 0.00625
            },
            {
              "pitch": 54,
              "velocity": 28,
              "position": 5.7625,
              "duration": 0.00625
            },
            {
              "pitch": 35,
              "velocity": 60,
              "position": 5.770833333333333,
              "duration": 0.00625
            },
            {
              "pitch": 42,
              "velocity": 107,
              "position": 5.989583333333333,
              "duration": 0.00625
            },
            {
              "pitch": 54,
              "velocity": 81,
              "position": 5.989583333333333,
              "duration": 0.00625
            },
            {
              "pitch": 35,
              "velocity": 100,
              "position": 6,
              "duration": 0.00625
            },
            {
              "pitch": 38,
              "velocity": 48,
              "position": 6.270833333333333,
              "duration": 0.00625
            },
            {
              "pitch": 54,
              "velocity": 20,
              "position": 6.272916666666666,
              "duration": 0.00625
            },
            {
              "pitch": 42,
              "velocity": 47,
              "position": 6.491666666666666,
              "duration": 0.00625
            },
            {
              "pitch": 35,
              "velocity": 100,
              "position": 6.5,
              "duration": 0.00625
            },
            {
              "pitch": 54,
              "velocity": 49,
              "position": 6.5,
              "duration": 0.00625
            },
            {
              "pitch": 54,
              "velocity": 22,
              "position": 6.770833333333333,
              "duration": 0.00625
            },
            {
              "pitch": 54,
              "velocity": 104,
              "position": 6.99375,
              "duration": 0.00625
            },
            {
              "pitch": 38,
              "velocity": 104,
              "position": 7,
              "duration": 0.00625
            },
            {
              "pitch": 42,
              "velocity": 110,
              "position": 7,
              "duration": 0.00625
            },
            {
              "pitch": 35,
              "velocity": 50,
              "position": 7.270833333333333,
              "duration": 0.00625
            },
            {
              "pitch": 54,
              "velocity": 29,
              "position": 7.270833333333333,
              "duration": 0.00625
            },
            {
              "pitch": 54,
              "velocity": 36,
              "position": 7.491666666666666,
              "duration": 0.00625
            },
            {
              "pitch": 35,
              "velocity": 100,
              "position": 7.5,
              "duration": 0.00625
            },
            {
              "pitch": 46,
              "velocity": 60,
              "position": 7.5,
              "duration": 0.00625
            },
            {
              "pitch": 54,
              "velocity": 36,
              "position": 7.772916666666666,
              "duration": 0.00625
            },
            {
              "pitch": 38,
              "velocity": 56,
              "position": 7.775,
              "duration": 0.00625
            },
            {
              "pitch": 35,
              "velocity": 100,
              "position": 8,
              "duration": 0.00625
            },
            {
              "pitch": 42,
              "velocity": 110,
              "position": 8,
              "duration": 0.00625
            },
            {
              "pitch": 54,
              "velocity": 96,
              "position": 8.002083333333333,
              "duration": 0.00625
            },
            {
              "pitch": 54,
              "velocity": 17,
              "position": 8.260416666666666,
              "duration": 0.00625
            },
            {
              "pitch": 38,
              "velocity": 18,
              "position": 8.270833333333334,
              "duration": 0.00625
            },
            {
              "pitch": 35,
              "velocity": 100,
              "position": 8.5,
              "duration": 0.00625
            },
            {
              "pitch": 46,
              "velocity": 60,
              "position": 8.5,
              "duration": 0.00625
            },
            {
              "pitch": 54,
              "velocity": 42,
              "position": 8.5,
              "duration": 0.00625
            },
            {
              "pitch": 54,
              "velocity": 38,
              "position": 8.7625,
              "duration": 0.00625
            },
            {
              "pitch": 54,
              "velocity": 77,
              "position": 8.99375,
              "duration": 0.00625
            },
            {
              "pitch": 38,
              "velocity": 104,
              "position": 9,
              "duration": 0.00625
            },
            {
              "pitch": 42,
              "velocity": 110,
              "position": 9,
              "duration": 0.00625
            },
            {
              "pitch": 54,
              "velocity": 29,
              "position": 9.264583333333333,
              "duration": 0.00625
            },
            {
              "pitch": 42,
              "velocity": 59,
              "position": 9.491666666666667,
              "duration": 0.00625
            },
            {
              "pitch": 54,
              "velocity": 38,
              "position": 9.5,
              "duration": 0.00625
            },
            {
              "pitch": 38,
              "velocity": 68,
              "position": 9.764583333333333,
              "duration": 0.014583333333333334
            },
            {
              "pitch": 54,
              "velocity": 28,
              "position": 9.775,
              "duration": 0.00625
            },
            {
              "pitch": 38,
              "velocity": 33,
              "position": 9.835416666666667,
              "duration": 0.004166666666666667
            },
            {
              "pitch": 42,
              "velocity": 106,
              "position": 9.989583333333334,
              "duration": 0.00625
            },
            {
              "pitch": 54,
              "velocity": 86,
              "position": 9.989583333333334,
              "duration": 0.00625
            },
            {
              "pitch": 35,
              "velocity": 100,
              "position": 10,
              "duration": 0.00625
            },
            {
              "pitch": 38,
              "velocity": 37,
              "position": 10.260416666666666,
              "duration": 0.00625
            },
            {
              "pitch": 54,
              "velocity": 14,
              "position": 10.260416666666666,
              "duration": 0.00625
            },
            {
              "pitch": 54,
              "velocity": 42,
              "position": 10.489583333333334,
              "duration": 0.00625
            },
            {
              "pitch": 35,
              "velocity": 100,
              "position": 10.5,
              "duration": 0.00625
            },
            {
              "pitch": 42,
              "velocity": 57,
              "position": 10.5,
              "duration": 0.00625
            },
            {
              "pitch": 54,
              "velocity": 27,
              "position": 10.770833333333334,
              "duration": 0.00625
            },
            {
              "pitch": 38,
              "velocity": 104,
              "position": 11,
              "duration": 0.00625
            },
            {
              "pitch": 42,
              "velocity": 110,
              "position": 11,
              "duration": 0.00625
            },
            {
              "pitch": 54,
              "velocity": 97,
              "position": 11,
              "duration": 0.00625
            },
            {
              "pitch": 54,
              "velocity": 27,
              "position": 11.270833333333334,
              "duration": 0.00625
            },
            {
              "pitch": 54,
              "velocity": 32,
              "position": 11.491666666666667,
              "duration": 0.00625
            },
            {
              "pitch": 35,
              "velocity": 80,
              "position": 11.5,
              "duration": 0.00625
            },
            {
              "pitch": 46,
              "velocity": 60,
              "position": 11.5,
              "duration": 0.00625
            },
            {
              "pitch": 54,
              "velocity": 21,
              "position": 11.770833333333334,
              "duration": 0.00625
            },
            {
              "pitch": 38,
              "velocity": 54,
              "position": 11.770833333333334,
              "duration": 0.010416666666666666
            },
            {
              "pitch": 38,
              "velocity": 36,
              "position": 11.8375,
              "duration": 0.00625
            },
            {
              "pitch": 35,
              "velocity": 100,
              "position": 12,
              "duration": 0.00625
            },
            {
              "pitch": 42,
              "velocity": 110,
              "position": 12,
              "duration": 0.00625
            },
            {
              "pitch": 54,
              "velocity": 86,
              "position": 12,
              "duration": 0.00625
            },
            {
              "pitch": 38,
              "velocity": 19,
              "position": 12.2625,
              "duration": 0.00625
            },
            {
              "pitch": 54,
              "velocity": 14,
              "position": 12.272916666666667,
              "duration": 0.00625
            },
            {
              "pitch": 54,
              "velocity": 38,
              "position": 12.489583333333334,
              "duration": 0.00625
            },
            {
              "pitch": 35,
              "velocity": 100,
              "position": 12.5,
              "duration": 0.00625
            },
            {
              "pitch": 46,
              "velocity": 60,
              "position": 12.5,
              "duration": 0.00625
            },
            {
              "pitch": 54,
              "velocity": 22,
              "position": 12.770833333333334,
              "duration": 0.00625
            },
            {
              "pitch": 38,
              "velocity": 26,
              "position": 12.775,
              "duration": 0.00625
            },
            {
              "pitch": 54,
              "velocity": 102,
              "position": 12.99375,
              "duration": 0.00625
            },
            {
              "pitch": 38,
              "velocity": 104,
              "position": 13,
              "duration": 0.00625
            },
            {
              "pitch": 42,
              "velocity": 110,
              "position": 13,
              "duration": 0.00625
            },
            {
              "pitch": 35,
              "velocity": 60,
              "position": 13.270833333333334,
              "duration": 0.00625
            },
            {
              "pitch": 54,
              "velocity": 25,
              "position": 13.270833333333334,
              "duration": 0.00625
            },
            {
              "pitch": 54,
              "velocity": 38,
              "position": 13.491666666666667,
              "duration": 0.00625
            },
            {
              "pitch": 42,
              "velocity": 54,
              "position": 13.5,
              "duration": 0.00625
            },
            {
              "pitch": 35,
              "velocity": 60,
              "position": 13.770833333333334,
              "duration": 0.00625
            },
            {
              "pitch": 54,
              "velocity": 36,
              "position": 13.775,
              "duration": 0.00625
            },
            {
              "pitch": 54,
              "velocity": 104,
              "position": 13.99375,
              "duration": 0.00625
            },
            {
              "pitch": 35,
              "velocity": 100,
              "position": 14,
              "duration": 0.00625
            },
            {
              "pitch": 42,
              "velocity": 110,
              "position": 14.002083333333333,
              "duration": 0.00625
            },
            {
              "pitch": 54,
              "velocity": 15,
              "position": 14.260416666666666,
              "duration": 0.00625
            },
            {
              "pitch": 38,
              "velocity": 41,
              "position": 14.270833333333334,
              "duration": 0.00625
            },
            {
              "pitch": 54,
              "velocity": 37,
              "position": 14.489583333333334,
              "duration": 0.00625
            },
            {
              "pitch": 35,
              "velocity": 100,
              "position": 14.5,
              "duration": 0.00625
            },
            {
              "pitch": 42,
              "velocity": 56,
              "position": 14.5,
              "duration": 0.00625
            },
            {
              "pitch": 38,
              "velocity": 30,
              "position": 14.760416666666666,
              "duration": 0.00625
            },
            {
              "pitch": 54,
              "velocity": 21,
              "position": 14.764583333333333,
              "duration": 0.00625
            },
            {
              "pitch": 38,
              "velocity": 104,
              "position": 15,
              "duration": 0.00625
            },
            {
              "pitch": 42,
              "velocity": 110,
              "position": 15,
              "duration": 0.00625
            },
            {
              "pitch": 54,
              "velocity": 96,
              "position": 15,
              "duration": 0.00625
            },
            {
              "pitch": 54,
              "velocity": 14,
              "position": 15.260416666666666,
              "duration": 0.00625
            },
            {
              "pitch": 35,
              "velocity": 100,
              "position": 15.270833333333334,
              "duration": 0.00625
            },
            {
              "pitch": 46,
              "velocity": 60,
              "position": 15.5,
              "duration": 0.00625
            },
            {
              "pitch": 54,
              "velocity": 36,
              "position": 15.5,
              "duration": 0.00625
            },
            {
              "pitch": 38,
              "velocity": 67,
              "position": 15.7625,
              "duration": 0.00625
            },
            {
              "pitch": 54,
              "velocity": 32,
              "position": 15.775,
              "duration": 0.00625
            }
          ]
        },
        "10": {
          "ctab": {
            "srcChannel": 10,
            "name": "Bass A",
            "accType": "BASS",
            "editable": false,
            "mutedNotes": [],
            "mutedChords": [
              "sus4",
              "7aug",
              "Maj7aug",
              "minMaj7(9)",
              "minMaj7",
              "min(9)",
              "min",
              "aug"
            ],
            "autoStart": false,
            "sourceChordNote": 0,
            "sourceChordType": "Maj7",
            "ctb2Low": null,
            "ctb2Main": {
              "ntr": "ROOT_TRANSPOSITION",
              "ntt": "MELODY",
              "bassOn": true,
              "chordRootUpperLimit": 3,
              "noteLowLimit": 28,
              "noteHighLimit": 127,
              "rtr": "PITCH_SHIFT_TO_ROOT"
            },
            "ctb2High": null
          },
          "notes": [
            {
              "pitch": 36,
              "velocity": 74,
              "position": 0,
              "duration": 0.29791666666666666
            },
            {
              "pitch": 36,
              "velocity": 74,
              "position": 0.5,
              "duration": 0.36041666666666666
            },
            {
              "pitch": 36,
              "velocity": 110,
              "position": 1.7541666666666667,
              "duration": 0.21666666666666667
            },
            {
              "pitch": 36,
              "velocity": 68,
              "position": 2.004166666666667,
              "duration": 0.29791666666666666
            },
            {
              "pitch": 36,
              "velocity": 72,
              "position": 2.4895833333333335,
              "duration": 0.3625
            },
            {
              "pitch": 45,
              "velocity": 70,
              "position": 3.5,
              "duration": 0.23541666666666666
            },
            {
              "pitch": 48,
              "velocity": 60,
              "position": 3.7729166666666667,
              "duration": 0.20833333333333334
            },
            {
              "pitch": 36,
              "velocity": 74,
              "position": 4,
              "duration": 0.29791666666666666
            },
            {
              "pitch": 36,
              "velocity": 73,
              "position": 4.48125,
              "duration": 0.3625
            },
            {
              "pitch": 36,
              "velocity": 110,
              "position": 5.760416666666667,
              "duration": 0.21458333333333332
            },
            {
              "pitch": 36,
              "velocity": 72,
              "position": 6.010416666666667,
              "duration": 0.29791666666666666
            },
            {
              "pitch": 36,
              "velocity": 67,
              "position": 6.479166666666667,
              "duration": 0.36041666666666666
            },
            {
              "pitch": 36,
              "velocity": 110,
              "position": 7.270833333333333,
              "duration": 0.21458333333333332
            },
            {
              "pitch": 45,
              "velocity": 73,
              "position": 7.5,
              "duration": 0.23541666666666666
            },
            {
              "pitch": 48,
              "velocity": 60,
              "position": 7.770833333333333,
              "duration": 0.21458333333333332
            },
            {
              "pitch": 36,
              "velocity": 71,
              "position": 8.004166666666666,
              "duration": 0.3
            },
            {
              "pitch": 36,
              "velocity": 67,
              "position": 8.5,
              "duration": 0.36041666666666666
            },
            {
              "pitch": 36,
              "velocity": 110,
              "position": 9.770833333333334,
              "duration": 0.21458333333333332
            },
            {
              "pitch": 36,
              "velocity": 70,
              "position": 10.010416666666666,
              "duration": 0.29791666666666666
            },
            {
              "pitch": 36,
              "velocity": 70,
              "position": 10.514583333333333,
              "duration": 0.3625
            },
            {
              "pitch": 45,
              "velocity": 69,
              "position": 11.489583333333334,
              "duration": 0.23541666666666666
            },
            {
              "pitch": 48,
              "velocity": 61,
              "position": 11.75,
              "duration": 0.21666666666666667
            },
            {
              "pitch": 36,
              "velocity": 73,
              "position": 12.010416666666666,
              "duration": 0.29791666666666666
            },
            {
              "pitch": 36,
              "velocity": 72,
              "position": 12.510416666666666,
              "duration": 0.36041666666666666
            },
            {
              "pitch": 36,
              "velocity": 74,
              "position": 13.270833333333334,
              "duration": 0.07916666666666666
            },
            {
              "pitch": 36,
              "velocity": 110,
              "position": 13.760416666666666,
              "duration": 0.21458333333333332
            },
            {
              "pitch": 36,
              "velocity": 71,
              "position": 13.99375,
              "duration": 0.29791666666666666
            },
            {
              "pitch": 36,
              "velocity": 70,
              "position": 14.489583333333334,
              "duration": 0.3625
            },
            {
              "pitch": 43,
              "velocity": 58,
              "position": 15.264583333333333,
              "duration": 0.20208333333333334
            },
            {
              "pitch": 45,
              "velocity": 76,
              "position": 15.479166666666666,
              "duration": 0.2375
            },
            {
              "pitch": 48,
              "velocity": 63,
              "position": 15.772916666666667,
              "duration": 0.21458333333333332
            }
          ]
        },
        "11": {
          "ctab": {
            "srcChannel": 11,
            "name": "Strat",
            "accType": "CHORD1",
            "editable": false,
            "mutedNotes": [],
            "mutedChords": [],
            "autoStart": false,
            "sourceChordNote": 0,
            "sourceChordType": "Maj7",
            "ctb2Low": null,
            "ctb2Main": {
              "ntr": "ROOT_TRANSPOSITION",
              "ntt": "MELODY",
              "bassOn": false,
              "chordRootUpperLimit": 7,
              "noteLowLimit": 0,
              "noteHighLimit": 127,
              "rtr": "PITCH_SHIFT"
            },
            "ctb2High": null
          },
          "notes": [
            {
              "pitch": 60,
              "velocity": 39,
              "position": 0,
              "duration": 0.25833333333333336
            },
            {
              "pitch": 55,
              "velocity": 48,
              "position": 0,
              "duration": 0.26666666666666666
            },
            {
              "pitch": 59,
              "velocity": 48,
              "position": 0,
              "duration": 0.26666666666666666
            },
            {
              "pitch": 55,
              "velocity": 30,
              "position": 0.28125,
              "duration": 0.20416666666666666
            },
            {
              "pitch": 59,
              "velocity": 30,
              "position": 0.28125,
              "duration": 0.20416666666666666
            },
            {
              "pitch": 60,
              "velocity": 24,
              "position": 0.2708333333333333,
              "duration": 0.21666666666666667
            },
            {
              "pitch": 64,
              "velocity": 41,
              "position": 0.010416666666666666,
              "duration": 0.48541666666666666
            },
            {
              "pitch": 64,
              "velocity": 39,
              "position": 0.5104166666666666,
              "duration": 0.25625
            },
            {
              "pitch": 60,
              "velocity": 25,
              "position": 0.5,
              "duration": 0.26875
            },
            {
              "pitch": 55,
              "velocity": 39,
              "position": 0.5,
              "duration": 0.27708333333333335
            },
            {
              "pitch": 59,
              "velocity": 39,
              "position": 0.5,
              "duration": 0.27708333333333335
            },
            {
              "pitch": 60,
              "velocity": 49,
              "position": 0.78125,
              "duration": 0.20416666666666666
            },
            {
              "pitch": 64,
              "velocity": 39,
              "position": 0.78125,
              "duration": 0.20416666666666666
            },
            {
              "pitch": 55,
              "velocity": 41,
              "position": 0.7916666666666666,
              "duration": 0.20416666666666666
            },
            {
              "pitch": 59,
              "velocity": 41,
              "position": 0.7916666666666666,
              "duration": 0.20416666666666666
            },
            {
              "pitch": 60,
              "velocity": 45,
              "position": 1.5,
              "duration": 0.25833333333333336
            },
            {
              "pitch": 55,
              "velocity": 43,
              "position": 1.5,
              "duration": 0.26666666666666666
            },
            {
              "pitch": 59,
              "velocity": 43,
              "position": 1.5,
              "duration": 0.26666666666666666
            },
            {
              "pitch": 55,
              "velocity": 24,
              "position": 1.78125,
              "duration": 0.20416666666666666
            },
            {
              "pitch": 59,
              "velocity": 24,
              "position": 1.78125,
              "duration": 0.20416666666666666
            },
            {
              "pitch": 60,
              "velocity": 15,
              "position": 1.7708333333333333,
              "duration": 0.21666666666666667
            },
            {
              "pitch": 64,
              "velocity": 42,
              "position": 1.5104166666666667,
              "duration": 0.48541666666666666
            },
            {
              "pitch": 64,
              "velocity": 39,
              "position": 2.0104166666666665,
              "duration": 0.25625
            },
            {
              "pitch": 60,
              "velocity": 35,
              "position": 2,
              "duration": 0.26875
            },
            {
              "pitch": 55,
              "velocity": 41,
              "position": 2,
              "duration": 0.27708333333333335
            },
            {
              "pitch": 59,
              "velocity": 41,
              "position": 2,
              "duration": 0.27708333333333335
            },
            {
              "pitch": 60,
              "velocity": 44,
              "position": 2.28125,
              "duration": 0.20416666666666666
            },
            {
              "pitch": 64,
              "velocity": 49,
              "position": 2.28125,
              "duration": 0.20416666666666666
            },
            {
              "pitch": 55,
              "velocity": 38,
              "position": 2.2916666666666665,
              "duration": 0.20416666666666666
            },
            {
              "pitch": 59,
              "velocity": 38,
              "position": 2.2916666666666665,
              "duration": 0.20416666666666666
            },
            {
              "pitch": 64,
              "velocity": 34,
              "position": 3.0104166666666665,
              "duration": 0.24791666666666667
            },
            {
              "pitch": 60,
              "velocity": 39,
              "position": 3,
              "duration": 0.2625
            },
            {
              "pitch": 55,
              "velocity": 37,
              "position": 3,
              "duration": 0.26875
            },
            {
              "pitch": 59,
              "velocity": 37,
              "position": 3,
              "duration": 0.26875
            },
            {
              "pitch": 64,
              "velocity": 27,
              "position": 3.2708333333333335,
              "duration": 0.2375
            },
            {
              "pitch": 60,
              "velocity": 32,
              "position": 3.28125,
              "duration": 0.23541666666666666
            },
            {
              "pitch": 55,
              "velocity": 34,
              "position": 3.28125,
              "duration": 0.2375
            },
            {
              "pitch": 59,
              "velocity": 34,
              "position": 3.28125,
              "duration": 0.2375
            },
            {
              "pitch": 60,
              "velocity": 49,
              "position": 4,
              "duration": 0.25833333333333336
            },
            {
              "pitch": 55,
              "velocity": 54,
              "position": 4,
              "duration": 0.26666666666666666
            },
            {
              "pitch": 59,
              "velocity": 54,
              "position": 4,
              "duration": 0.26666666666666666
            },
            {
              "pitch": 55,
              "velocity": 20,
              "position": 4.28125,
              "duration": 0.20416666666666666
            },
            {
              "pitch": 59,
              "velocity": 20,
              "position": 4.28125,
              "duration": 0.20416666666666666
            },
            {
              "pitch": 60,
              "velocity": 23,
              "position": 4.270833333333333,
              "duration": 0.21666666666666667
            },
            {
              "pitch": 64,
              "velocity": 40,
              "position": 4.010416666666667,
              "duration": 0.48541666666666666
            },
            {
              "pitch": 64,
              "velocity": 30,
              "position": 4.510416666666667,
              "duration": 0.25625
            },
            {
              "pitch": 60,
              "velocity": 32,
              "position": 4.5,
              "duration": 0.26875
            },
            {
              "pitch": 55,
              "velocity": 36,
              "position": 4.5,
              "duration": 0.27708333333333335
            },
            {
              "pitch": 59,
              "velocity": 36,
              "position": 4.5,
              "duration": 0.27708333333333335
            },
            {
              "pitch": 60,
              "velocity": 34,
              "position": 4.78125,
              "duration": 0.20416666666666666
            },
            {
              "pitch": 64,
              "velocity": 31,
              "position": 4.78125,
              "duration": 0.20416666666666666
            },
            {
              "pitch": 55,
              "velocity": 38,
              "position": 4.791666666666667,
              "duration": 0.20416666666666666
            },
            {
              "pitch": 59,
              "velocity": 38,
              "position": 4.791666666666667,
              "duration": 0.20416666666666666
            },
            {
              "pitch": 60,
              "velocity": 40,
              "position": 5.5,
              "duration": 0.25833333333333336
            },
            {
              "pitch": 55,
              "velocity": 48,
              "position": 5.5,
              "duration": 0.26666666666666666
            },
            {
              "pitch": 59,
              "velocity": 48,
              "position": 5.5,
              "duration": 0.26666666666666666
            },
            {
              "pitch": 55,
              "velocity": 15,
              "position": 5.78125,
              "duration": 0.20416666666666666
            },
            {
              "pitch": 59,
              "velocity": 15,
              "position": 5.78125,
              "duration": 0.20416666666666666
            },
            {
              "pitch": 60,
              "velocity": 20,
              "position": 5.770833333333333,
              "duration": 0.21666666666666667
            },
            {
              "pitch": 64,
              "velocity": 36,
              "position": 5.510416666666667,
              "duration": 0.48541666666666666
            },
            {
              "pitch": 64,
              "velocity": 36,
              "position": 6.010416666666667,
              "duration": 0.25625
            },
            {
              "pitch": 60,
              "velocity": 32,
              "position": 6,
              "duration": 0.26875
            },
            {
              "pitch": 55,
              "velocity": 43,
              "position": 6,
              "duration": 0.27708333333333335
            },
            {
              "pitch": 59,
              "velocity": 43,
              "position": 6,
              "duration": 0.27708333333333335
            },
            {
              "pitch": 60,
              "velocity": 40,
              "position": 6.28125,
              "duration": 0.20416666666666666
            },
            {
              "pitch": 64,
              "velocity": 38,
              "position": 6.28125,
              "duration": 0.20416666666666666
            },
            {
              "pitch": 55,
              "velocity": 36,
              "position": 6.291666666666667,
              "duration": 0.20416666666666666
            },
            {
              "pitch": 59,
              "velocity": 36,
              "position": 6.291666666666667,
              "duration": 0.20416666666666666
            },
            {
              "pitch": 64,
              "velocity": 40,
              "position": 7.010416666666667,
              "duration": 0.24791666666666667
            },
            {
              "pitch": 60,
              "velocity": 44,
              "position": 7,
              "duration": 0.2625
            },
            {
              "pitch": 55,
              "velocity": 41,
              "position": 7,
              "duration": 0.26875
            },
            {
              "pitch": 59,
              "velocity": 41,
              "position": 7,
              "duration": 0.26875
            },
            {
              "pitch": 64,
              "velocity": 38,
              "position": 7.270833333333333,
              "duration": 0.2375
            },
            {
              "pitch": 60,
              "velocity": 31,
              "position": 7.28125,
              "duration": 0.23541666666666666
            },
            {
              "pitch": 55,
              "velocity": 32,
              "position": 7.28125,
              "duration": 0.2375
            },
            {
              "pitch": 59,
              "velocity": 32,
              "position": 7.28125,
              "duration": 0.2375
            },
            {
              "pitch": 60,
              "velocity": 31,
              "position": 8,
              "duration": 0.25833333333333336
            },
            {
              "pitch": 55,
              "velocity": 51,
              "position": 8,
              "duration": 0.26666666666666666
            },
            {
              "pitch": 59,
              "velocity": 51,
              "position": 8,
              "duration": 0.26666666666666666
            },
            {
              "pitch": 55,
              "velocity": 16,
              "position": 8.28125,
              "duration": 0.20416666666666666
            },
            {
              "pitch": 59,
              "velocity": 16,
              "position": 8.28125,
              "duration": 0.20416666666666666
            },
            {
              "pitch": 60,
              "velocity": 12,
              "position": 8.270833333333334,
              "duration": 0.21666666666666667
            },
            {
              "pitch": 64,
              "velocity": 40,
              "position": 8.010416666666666,
              "duration": 0.48541666666666666
            },
            {
              "pitch": 64,
              "velocity": 25,
              "position": 8.510416666666666,
              "duration": 0.25625
            },
            {
              "pitch": 60,
              "velocity": 34,
              "position": 8.5,
              "duration": 0.26875
            },
            {
              "pitch": 55,
              "velocity": 39,
              "position": 8.5,
              "duration": 0.27708333333333335
            },
            {
              "pitch": 59,
              "velocity": 39,
              "position": 8.5,
              "duration": 0.27708333333333335
            },
            {
              "pitch": 60,
              "velocity": 33,
              "position": 8.78125,
              "duration": 0.20416666666666666
            },
            {
              "pitch": 64,
              "velocity": 32,
              "position": 8.78125,
              "duration": 0.20416666666666666
            },
            {
              "pitch": 55,
              "velocity": 44,
              "position": 8.791666666666666,
              "duration": 0.20416666666666666
            },
            {
              "pitch": 59,
              "velocity": 44,
              "position": 8.791666666666666,
              "duration": 0.20416666666666666
            },
            {
              "pitch": 60,
              "velocity": 45,
              "position": 9.5,
              "duration": 0.25833333333333336
            },
            {
              "pitch": 55,
              "velocity": 53,
              "position": 9.5,
              "duration": 0.26666666666666666
            },
            {
              "pitch": 59,
              "velocity": 53,
              "position": 9.5,
              "duration": 0.26666666666666666
            },
            {
              "pitch": 55,
              "velocity": 18,
              "position": 9.78125,
              "duration": 0.20416666666666666
            },
            {
              "pitch": 59,
              "velocity": 18,
              "position": 9.78125,
              "duration": 0.20416666666666666
            },
            {
              "pitch": 60,
              "velocity": 19,
              "position": 9.770833333333334,
              "duration": 0.21666666666666667
            },
            {
              "pitch": 64,
              "velocity": 43,
              "position": 9.510416666666666,
              "duration": 0.48541666666666666
            },
            {
              "pitch": 64,
              "velocity": 38,
              "position": 10.010416666666666,
              "duration": 0.25625
            },
            {
              "pitch": 60,
              "velocity": 32,
              "position": 10,
              "duration": 0.26875
            },
            {
              "pitch": 55,
              "velocity": 40,
              "position": 10,
              "duration": 0.27708333333333335
            },
            {
              "pitch": 59,
              "velocity": 40,
              "position": 10,
              "duration": 0.27708333333333335
            },
            {
              "pitch": 60,
              "velocity": 35,
              "position": 10.28125,
              "duration": 0.20416666666666666
            },
            {
              "pitch": 64,
              "velocity": 34,
              "position": 10.28125,
              "duration": 0.20416666666666666
            },
            {
              "pitch": 55,
              "velocity": 45,
              "position": 10.291666666666666,
              "duration": 0.20416666666666666
            },
            {
              "pitch": 59,
              "velocity": 45,
              "position": 10.291666666666666,
              "duration": 0.20416666666666666
            },
            {
              "pitch": 64,
              "velocity": 40,
              "position": 11.010416666666666,
              "duration": 0.24791666666666667
            },
            {
              "pitch": 60,
              "velocity": 35,
              "position": 11,
              "duration": 0.2625
            },
            {
              "pitch": 55,
              "velocity": 50,
              "position": 11,
              "duration": 0.26875
            },
            {
              "pitch": 59,
              "velocity": 50,
              "position": 11,
              "duration": 0.26875
            },
            {
              "pitch": 64,
              "velocity": 23,
              "position": 11.270833333333334,
              "duration": 0.2375
            },
            {
              "pitch": 60,
              "velocity": 24,
              "position": 11.28125,
              "duration": 0.23541666666666666
            },
            {
              "pitch": 55,
              "velocity": 29,
              "position": 11.28125,
              "duration": 0.2375
            },
            {
              "pitch": 59,
              "velocity": 29,
              "position": 11.28125,
              "duration": 0.2375
            },
            {
              "pitch": 60,
              "velocity": 48,
              "position": 12,
              "duration": 0.25833333333333336
            },
            {
              "pitch": 55,
              "velocity": 54,
              "position": 12,
              "duration": 0.26666666666666666
            },
            {
              "pitch": 59,
              "velocity": 54,
              "position": 12,
              "duration": 0.26666666666666666
            },
            {
              "pitch": 55,
              "velocity": 27,
              "position": 12.28125,
              "duration": 0.20416666666666666
            },
            {
              "pitch": 59,
              "velocity": 27,
              "position": 12.28125,
              "duration": 0.20416666666666666
            },
            {
              "pitch": 60,
              "velocity": 16,
              "position": 12.270833333333334,
              "duration": 0.21666666666666667
            },
            {
              "pitch": 64,
              "velocity": 43,
              "position": 12.010416666666666,
              "duration": 0.48541666666666666
            },
            {
              "pitch": 64,
              "velocity": 41,
              "position": 12.510416666666666,
              "duration": 0.25625
            },
            {
              "pitch": 60,
              "velocity": 38,
              "position": 12.5,
              "duration": 0.26875
            },
            {
              "pitch": 55,
              "velocity": 34,
              "position": 12.5,
              "duration": 0.27708333333333335
            },
            {
              "pitch": 59,
              "velocity": 34,
              "position": 12.5,
              "duration": 0.27708333333333335
            },
            {
              "pitch": 60,
              "velocity": 47,
              "position": 12.78125,
              "duration": 0.20416666666666666
            },
            {
              "pitch": 64,
              "velocity": 32,
              "position": 12.78125,
              "duration": 0.20416666666666666
            },
            {
              "pitch": 55,
              "velocity": 49,
              "position": 12.791666666666666,
              "duration": 0.20416666666666666
            },
            {
              "pitch": 59,
              "velocity": 49,
              "position": 12.791666666666666,
              "duration": 0.20416666666666666
            },
            {
              "pitch": 60,
              "velocity": 31,
              "position": 13.5,
              "duration": 0.25833333333333336
            },
            {
              "pitch": 55,
              "velocity": 50,
              "position": 13.5,
              "duration": 0.26666666666666666
            },
            {
              "pitch": 59,
              "velocity": 50,
              "position": 13.5,
              "duration": 0.26666666666666666
            },
            {
              "pitch": 55,
              "velocity": 29,
              "position": 13.78125,
              "duration": 0.20416666666666666
            },
            {
              "pitch": 59,
              "velocity": 29,
              "position": 13.78125,
              "duration": 0.20416666666666666
            },
            {
              "pitch": 60,
              "velocity": 20,
              "position": 13.770833333333334,
              "duration": 0.21666666666666667
            },
            {
              "pitch": 64,
              "velocity": 37,
              "position": 13.510416666666666,
              "duration": 0.48541666666666666
            },
            {
              "pitch": 64,
              "velocity": 26,
              "position": 14.010416666666666,
              "duration": 0.25625
            },
            {
              "pitch": 60,
              "velocity": 40,
              "position": 14,
              "duration": 0.26875
            },
            {
              "pitch": 55,
              "velocity": 41,
              "position": 14,
              "duration": 0.27708333333333335
            },
            {
              "pitch": 59,
              "velocity": 41,
              "position": 14,
              "duration": 0.27708333333333335
            },
            {
              "pitch": 60,
              "velocity": 33,
              "position": 14.28125,
              "duration": 0.20416666666666666
            },
            {
              "pitch": 64,
              "velocity": 44,
              "position": 14.28125,
              "duration": 0.20416666666666666
            },
            {
              "pitch": 55,
              "velocity": 47,
              "position": 14.291666666666666,
              "duration": 0.20416666666666666
            },
            {
              "pitch": 59,
              "velocity": 47,
              "position": 14.291666666666666,
              "duration": 0.20416666666666666
            },
            {
              "pitch": 64,
              "velocity": 49,
              "position": 15.010416666666666,
              "duration": 0.24791666666666667
            },
            {
              "pitch": 60,
              "velocity": 34,
              "position": 15,
              "duration": 0.2625
            },
            {
              "pitch": 55,
              "velocity": 45,
              "position": 15,
              "duration": 0.26875
            },
            {
              "pitch": 59,
              "velocity": 45,
              "position": 15,
              "duration": 0.26875
            },
            {
              "pitch": 64,
              "velocity": 40,
              "position": 15.270833333333334,
              "duration": 0.2375
            },
            {
              "pitch": 60,
              "velocity": 34,
              "position": 15.28125,
              "duration": 0.23541666666666666
            },
            {
              "pitch": 55,
              "velocity": 43,
              "position": 15.28125,
              "duration": 0.2375
            },
            {
              "pitch": 59,
              "velocity": 43,
              "position": 15.28125,
              "duration": 0.2375
            }
          ]
        },
        "12": {
          "ctab": {
            "srcChannel": 12,
            "name": "Piano",
            "accType": "CHORD2",
            "editable": false,
            "mutedNotes": [],
            "mutedChords": [],
            "autoStart": false,
            "sourceChordNote": 0,
            "sourceChordType": "Maj7",
            "ctb2Low": null,
            "ctb2Main": {
              "ntr": "ROOT_FIXED",
              "ntt": "CHORD",
              "bassOn": false,
              "chordRootUpperLimit": 7,
              "noteLowLimit": 0,
              "noteHighLimit": 127,
              "rtr": "PITCH_SHIFT"
            },
            "ctb2High": null
          },
          "notes": [
            {
              "pitch": 24,
              "velocity": 104,
              "position": 0,
              "duration": 0.24583333333333332
            },
            {
              "pitch": 36,
              "velocity": 104,
              "position": 0,
              "duration": 0.24583333333333332
            },
            {
              "pitch": 24,
              "velocity": 104,
              "position": 0.5,
              "duration": 0.36041666666666666
            },
            {
              "pitch": 36,
              "velocity": 104,
              "position": 0.5,
              "duration": 0.36041666666666666
            },
            {
              "pitch": 64,
              "velocity": 115,
              "position": 0.9895833333333334,
              "duration": 0.6
            },
            {
              "pitch": 59,
              "velocity": 106,
              "position": 0.99375,
              "duration": 0.6
            },
            {
              "pitch": 55,
              "velocity": 108,
              "position": 1.0041666666666667,
              "duration": 0.6125
            },
            {
              "pitch": 59,
              "velocity": 95,
              "position": 1.7604166666666667,
              "duration": 0.09375
            },
            {
              "pitch": 64,
              "velocity": 104,
              "position": 1.7625,
              "duration": 0.12083333333333333
            },
            {
              "pitch": 55,
              "velocity": 93,
              "position": 1.7708333333333333,
              "duration": 0.1625
            },
            {
              "pitch": 24,
              "velocity": 104,
              "position": 2,
              "duration": 0.29791666666666666
            },
            {
              "pitch": 36,
              "velocity": 104,
              "position": 2,
              "duration": 0.29791666666666666
            },
            {
              "pitch": 55,
              "velocity": 93,
              "position": 2.2604166666666665,
              "duration": 0.12708333333333333
            },
            {
              "pitch": 64,
              "velocity": 91,
              "position": 2.2708333333333335,
              "duration": 0.12083333333333333
            },
            {
              "pitch": 59,
              "velocity": 89,
              "position": 2.2729166666666667,
              "duration": 0.13958333333333334
            },
            {
              "pitch": 24,
              "velocity": 104,
              "position": 2.5,
              "duration": 0.36041666666666666
            },
            {
              "pitch": 36,
              "velocity": 104,
              "position": 2.5,
              "duration": 0.36041666666666666
            },
            {
              "pitch": 55,
              "velocity": 112,
              "position": 2.9895833333333335,
              "duration": 0.8708333333333333
            },
            {
              "pitch": 64,
              "velocity": 117,
              "position": 3,
              "duration": 0.9083333333333333
            },
            {
              "pitch": 59,
              "velocity": 101,
              "position": 3.002083333333333,
              "duration": 0.9416666666666667
            },
            {
              "pitch": 24,
              "velocity": 104,
              "position": 4,
              "duration": 0.24583333333333332
            },
            {
              "pitch": 36,
              "velocity": 104,
              "position": 4,
              "duration": 0.24583333333333332
            },
            {
              "pitch": 24,
              "velocity": 104,
              "position": 4.5,
              "duration": 0.36041666666666666
            },
            {
              "pitch": 36,
              "velocity": 104,
              "position": 4.5,
              "duration": 0.36041666666666666
            },
            {
              "pitch": 64,
              "velocity": 112,
              "position": 5.004166666666666,
              "duration": 0.5916666666666667
            },
            {
              "pitch": 55,
              "velocity": 118,
              "position": 4.989583333333333,
              "duration": 0.625
            },
            {
              "pitch": 59,
              "velocity": 117,
              "position": 4.99375,
              "duration": 0.6229166666666667
            },
            {
              "pitch": 64,
              "velocity": 105,
              "position": 5.770833333333333,
              "duration": 0.09375
            },
            {
              "pitch": 55,
              "velocity": 95,
              "position": 5.770833333333333,
              "duration": 0.1
            },
            {
              "pitch": 59,
              "velocity": 106,
              "position": 5.770833333333333,
              "duration": 0.11458333333333333
            },
            {
              "pitch": 24,
              "velocity": 104,
              "position": 6,
              "duration": 0.29791666666666666
            },
            {
              "pitch": 36,
              "velocity": 104,
              "position": 6,
              "duration": 0.29791666666666666
            },
            {
              "pitch": 64,
              "velocity": 90,
              "position": 6.270833333333333,
              "duration": 0.125
            },
            {
              "pitch": 55,
              "velocity": 83,
              "position": 6.2625,
              "duration": 0.14166666666666666
            },
            {
              "pitch": 59,
              "velocity": 88,
              "position": 6.264583333333333,
              "duration": 0.14375
            },
            {
              "pitch": 24,
              "velocity": 104,
              "position": 6.5,
              "duration": 0.36041666666666666
            },
            {
              "pitch": 36,
              "velocity": 104,
              "position": 6.5,
              "duration": 0.36041666666666666
            },
            {
              "pitch": 55,
              "velocity": 108,
              "position": 7.002083333333333,
              "duration": 0.9
            },
            {
              "pitch": 59,
              "velocity": 118,
              "position": 7,
              "duration": 0.9041666666666667
            },
            {
              "pitch": 64,
              "velocity": 118,
              "position": 7.002083333333333,
              "duration": 0.9166666666666666
            },
            {
              "pitch": 24,
              "velocity": 104,
              "position": 8,
              "duration": 0.24583333333333332
            },
            {
              "pitch": 36,
              "velocity": 104,
              "position": 8,
              "duration": 0.24583333333333332
            },
            {
              "pitch": 24,
              "velocity": 104,
              "position": 8.5,
              "duration": 0.36041666666666666
            },
            {
              "pitch": 36,
              "velocity": 104,
              "position": 8.5,
              "duration": 0.36041666666666666
            },
            {
              "pitch": 55,
              "velocity": 117,
              "position": 9,
              "duration": 0.5854166666666667
            },
            {
              "pitch": 59,
              "velocity": 103,
              "position": 9.002083333333333,
              "duration": 0.6125
            },
            {
              "pitch": 64,
              "velocity": 116,
              "position": 9,
              "duration": 0.6166666666666667
            },
            {
              "pitch": 64,
              "velocity": 99,
              "position": 9.7625,
              "duration": 0.125
            },
            {
              "pitch": 55,
              "velocity": 108,
              "position": 9.760416666666666,
              "duration": 0.17291666666666666
            },
            {
              "pitch": 59,
              "velocity": 106,
              "position": 9.770833333333334,
              "duration": 0.1625
            },
            {
              "pitch": 24,
              "velocity": 104,
              "position": 10,
              "duration": 0.29791666666666666
            },
            {
              "pitch": 36,
              "velocity": 104,
              "position": 10,
              "duration": 0.29791666666666666
            },
            {
              "pitch": 64,
              "velocity": 83,
              "position": 10.260416666666666,
              "duration": 0.10625
            },
            {
              "pitch": 55,
              "velocity": 86,
              "position": 10.270833333333334,
              "duration": 0.12291666666666666
            },
            {
              "pitch": 59,
              "velocity": 95,
              "position": 10.264583333333333,
              "duration": 0.19166666666666668
            },
            {
              "pitch": 24,
              "velocity": 104,
              "position": 10.5,
              "duration": 0.36041666666666666
            },
            {
              "pitch": 36,
              "velocity": 104,
              "position": 10.5,
              "duration": 0.36041666666666666
            },
            {
              "pitch": 55,
              "velocity": 110,
              "position": 10.989583333333334,
              "duration": 0.875
            },
            {
              "pitch": 64,
              "velocity": 107,
              "position": 11.002083333333333,
              "duration": 0.8791666666666667
            },
            {
              "pitch": 59,
              "velocity": 110,
              "position": 10.989583333333334,
              "duration": 0.925
            },
            {
              "pitch": 24,
              "velocity": 104,
              "position": 12,
              "duration": 0.24583333333333332
            },
            {
              "pitch": 36,
              "velocity": 104,
              "position": 12,
              "duration": 0.24583333333333332
            },
            {
              "pitch": 24,
              "velocity": 104,
              "position": 12.5,
              "duration": 0.36041666666666666
            },
            {
              "pitch": 36,
              "velocity": 104,
              "position": 12.5,
              "duration": 0.36041666666666666
            },
            {
              "pitch": 59,
              "velocity": 101,
              "position": 13,
              "duration": 0.5729166666666666
            },
            {
              "pitch": 55,
              "velocity": 104,
              "position": 13,
              "duration": 0.5791666666666667
            },
            {
              "pitch": 64,
              "velocity": 109,
              "position": 12.989583333333334,
              "duration": 0.5916666666666667
            },
            {
              "pitch": 64,
              "velocity": 104,
              "position": 13.764583333333333,
              "duration": 0.12083333333333333
            },
            {
              "pitch": 55,
              "velocity": 95,
              "position": 13.770833333333334,
              "duration": 0.13333333333333333
            },
            {
              "pitch": 59,
              "velocity": 95,
              "position": 13.760416666666666,
              "duration": 0.15833333333333333
            },
            {
              "pitch": 24,
              "velocity": 104,
              "position": 14,
              "duration": 0.29791666666666666
            },
            {
              "pitch": 36,
              "velocity": 104,
              "position": 14,
              "duration": 0.29791666666666666
            },
            {
              "pitch": 64,
              "velocity": 86,
              "position": 14.270833333333334,
              "duration": 0.13333333333333333
            },
            {
              "pitch": 55,
              "velocity": 81,
              "position": 14.270833333333334,
              "duration": 0.15208333333333332
            },
            {
              "pitch": 59,
              "velocity": 89,
              "position": 14.272916666666667,
              "duration": 0.16458333333333333
            },
            {
              "pitch": 24,
              "velocity": 104,
              "position": 14.5,
              "duration": 0.36041666666666666
            },
            {
              "pitch": 36,
              "velocity": 104,
              "position": 14.5,
              "duration": 0.36041666666666666
            },
            {
              "pitch": 64,
              "velocity": 102,
              "position": 15.002083333333333,
              "duration": 0.8645833333333334
            },
            {
              "pitch": 55,
              "velocity": 119,
              "position": 15.002083333333333,
              "duration": 0.8833333333333333
            },
            {
              "pitch": 59,
              "velocity": 113,
              "position": 15,
              "duration": 0.90625
            }
          ]
        },
        "13": {
          "ctab": {
            "srcChannel": 13,
            "name": "Organ",
            "accType": "PAD",
            "editable": false,
            "mutedNotes": [],
            "mutedChords": [],
            "autoStart": false,
            "sourceChordNote": 0,
            "sourceChordType": "Maj7",
            "ctb2Low": null,
            "ctb2Main": {
              "ntr": "ROOT_FIXED",
              "ntt": "CHORD",
              "bassOn": false,
              "chordRootUpperLimit": 7,
              "noteLowLimit": 0,
              "noteHighLimit": 127,
              "rtr": "PITCH_SHIFT"
            },
            "ctb2High": null
          },
          "notes": [
            {
              "pitch": 59,
              "velocity": 50,
              "position": 0.010416666666666666,
              "duration": 2.870833333333333
            },
            {
              "pitch": 64,
              "velocity": 50,
              "position": 0.010416666666666666,
              "duration": 2.870833333333333
            },
            {
              "pitch": 67,
              "velocity": 50,
              "position": 0.010416666666666666,
              "duration": 2.870833333333333
            },
            {
              "pitch": 59,
              "velocity": 50,
              "position": 3.0104166666666665,
              "duration": 0.975
            },
            {
              "pitch": 64,
              "velocity": 50,
              "position": 3.0104166666666665,
              "duration": 0.975
            },
            {
              "pitch": 67,
              "velocity": 50,
              "position": 3.0104166666666665,
              "duration": 0.975
            },
            {
              "pitch": 59,
              "velocity": 50,
              "position": 4,
              "duration": 3.870833333333333
            },
            {
              "pitch": 64,
              "velocity": 50,
              "position": 4,
              "duration": 3.870833333333333
            },
            {
              "pitch": 67,
              "velocity": 50,
              "position": 4,
              "duration": 3.870833333333333
            },
            {
              "pitch": 59,
              "velocity": 50,
              "position": 8,
              "duration": 2.870833333333333
            },
            {
              "pitch": 64,
              "velocity": 50,
              "position": 8,
              "duration": 2.870833333333333
            },
            {
              "pitch": 67,
              "velocity": 50,
              "position": 8,
              "duration": 2.870833333333333
            },
            {
              "pitch": 59,
              "velocity": 50,
              "position": 11,
              "duration": 0.9958333333333333
            },
            {
              "pitch": 64,
              "velocity": 50,
              "position": 11,
              "duration": 0.9958333333333333
            },
            {
              "pitch": 67,
              "velocity": 50,
              "position": 11,
              "duration": 0.9958333333333333
            },
            {
              "pitch": 59,
              "velocity": 50,
              "position": 12.010416666666666,
              "duration": 3.8541666666666665
            },
            {
              "pitch": 64,
              "velocity": 50,
              "position": 12.010416666666666,
              "duration": 3.8541666666666665
            },
            {
              "pitch": 67,
              "velocity": 50,
              "position": 12.010416666666666,
              "duration": 3.8541666666666665
            }
          ]
        },
        "14": {
          "ctab": {
            "srcChannel": 14,
            "name": "Tele",
            "accType": "PHRASE1",
            "editable": false,
            "mutedNotes": [],
            "mutedChords": [],
            "autoStart": false,
            "sourceChordNote": 0,
            "sourceChordType": "Maj7",
            "ctb2Low": null,
            "ctb2Main": {
              "ntr": "ROOT_TRANSPOSITION",
              "ntt": "MELODY",
              "bassOn": false,
              "chordRootUpperLimit": 7,
              "noteLowLimit": 0,
              "noteHighLimit": 127,
              "rtr": "PITCH_SHIFT"
            },
            "ctb2High": null
          },
          "notes": [
            {
              "pitch": 55,
              "velocity": 45,
              "position": 1,
              "duration": 0.7354166666666667
            },
            {
              "pitch": 59,
              "velocity": 45,
              "position": 1,
              "duration": 0.7354166666666667
            },
            {
              "pitch": 60,
              "velocity": 60,
              "position": 1,
              "duration": 0.7375
            },
            {
              "pitch": 64,
              "velocity": 60,
              "position": 1.0104166666666667,
              "duration": 0.7354166666666667
            },
            {
              "pitch": 67,
              "velocity": 60,
              "position": 1.0104166666666667,
              "duration": 0.7375
            },
            {
              "pitch": 71,
              "velocity": 60,
              "position": 1.0104166666666667,
              "duration": 0.7375
            },
            {
              "pitch": 67,
              "velocity": 60,
              "position": 1.7729166666666667,
              "duration": 0.2375
            },
            {
              "pitch": 71,
              "velocity": 60,
              "position": 1.7729166666666667,
              "duration": 0.2375
            },
            {
              "pitch": 64,
              "velocity": 60,
              "position": 1.78125,
              "duration": 0.23541666666666666
            },
            {
              "pitch": 60,
              "velocity": 60,
              "position": 1.7854166666666667,
              "duration": 0.2375
            },
            {
              "pitch": 55,
              "velocity": 45,
              "position": 1.7916666666666667,
              "duration": 0.2375
            },
            {
              "pitch": 59,
              "velocity": 45,
              "position": 1.7916666666666667,
              "duration": 0.2375
            },
            {
              "pitch": 55,
              "velocity": 45,
              "position": 3,
              "duration": 0.24583333333333332
            },
            {
              "pitch": 59,
              "velocity": 45,
              "position": 3,
              "duration": 0.24583333333333332
            },
            {
              "pitch": 60,
              "velocity": 60,
              "position": 3,
              "duration": 0.24583333333333332
            },
            {
              "pitch": 55,
              "velocity": 30,
              "position": 3.28125,
              "duration": 0.20625
            },
            {
              "pitch": 59,
              "velocity": 30,
              "position": 3.28125,
              "duration": 0.20625
            },
            {
              "pitch": 60,
              "velocity": 45,
              "position": 3.2729166666666667,
              "duration": 0.21875
            },
            {
              "pitch": 64,
              "velocity": 60,
              "position": 3.0104166666666665,
              "duration": 0.4875
            },
            {
              "pitch": 55,
              "velocity": 38,
              "position": 3.5,
              "duration": 0.23541666666666666
            },
            {
              "pitch": 59,
              "velocity": 38,
              "position": 3.5,
              "duration": 0.23541666666666666
            },
            {
              "pitch": 60,
              "velocity": 53,
              "position": 3.5,
              "duration": 0.2375
            },
            {
              "pitch": 64,
              "velocity": 53,
              "position": 3.5104166666666665,
              "duration": 0.23541666666666666
            },
            {
              "pitch": 67,
              "velocity": 60,
              "position": 3.0104166666666665,
              "duration": 0.7375
            },
            {
              "pitch": 71,
              "velocity": 60,
              "position": 3.0104166666666665,
              "duration": 0.7375
            },
            {
              "pitch": 67,
              "velocity": 60,
              "position": 3.7729166666666667,
              "duration": 0.2375
            },
            {
              "pitch": 71,
              "velocity": 60,
              "position": 3.7729166666666667,
              "duration": 0.2375
            },
            {
              "pitch": 64,
              "velocity": 60,
              "position": 3.78125,
              "duration": 0.23541666666666666
            },
            {
              "pitch": 60,
              "velocity": 60,
              "position": 3.785416666666667,
              "duration": 0.2375
            },
            {
              "pitch": 55,
              "velocity": 45,
              "position": 3.7916666666666665,
              "duration": 0.2375
            },
            {
              "pitch": 59,
              "velocity": 45,
              "position": 3.7916666666666665,
              "duration": 0.2375
            },
            {
              "pitch": 55,
              "velocity": 45,
              "position": 5,
              "duration": 0.7354166666666667
            },
            {
              "pitch": 59,
              "velocity": 45,
              "position": 5,
              "duration": 0.7354166666666667
            },
            {
              "pitch": 60,
              "velocity": 60,
              "position": 5,
              "duration": 0.7375
            },
            {
              "pitch": 64,
              "velocity": 60,
              "position": 5.010416666666667,
              "duration": 0.7354166666666667
            },
            {
              "pitch": 67,
              "velocity": 60,
              "position": 5.010416666666667,
              "duration": 0.7375
            },
            {
              "pitch": 71,
              "velocity": 60,
              "position": 5.010416666666667,
              "duration": 0.7375
            },
            {
              "pitch": 67,
              "velocity": 60,
              "position": 5.772916666666666,
              "duration": 0.2375
            },
            {
              "pitch": 71,
              "velocity": 60,
              "position": 5.772916666666666,
              "duration": 0.2375
            },
            {
              "pitch": 64,
              "velocity": 60,
              "position": 5.78125,
              "duration": 0.23541666666666666
            },
            {
              "pitch": 60,
              "velocity": 60,
              "position": 5.785416666666666,
              "duration": 0.2375
            },
            {
              "pitch": 55,
              "velocity": 45,
              "position": 5.791666666666667,
              "duration": 0.2375
            },
            {
              "pitch": 59,
              "velocity": 45,
              "position": 5.791666666666667,
              "duration": 0.2375
            },
            {
              "pitch": 55,
              "velocity": 45,
              "position": 7,
              "duration": 0.24583333333333332
            },
            {
              "pitch": 59,
              "velocity": 45,
              "position": 7,
              "duration": 0.24583333333333332
            },
            {
              "pitch": 60,
              "velocity": 60,
              "position": 7,
              "duration": 0.24583333333333332
            },
            {
              "pitch": 60,
              "velocity": 45,
              "position": 7.272916666666666,
              "duration": 0.21458333333333332
            },
            {
              "pitch": 55,
              "velocity": 30,
              "position": 7.28125,
              "duration": 0.20833333333333334
            },
            {
              "pitch": 59,
              "velocity": 30,
              "position": 7.28125,
              "duration": 0.20833333333333334
            },
            {
              "pitch": 64,
              "velocity": 60,
              "position": 7.010416666666667,
              "duration": 0.4875
            },
            {
              "pitch": 55,
              "velocity": 38,
              "position": 7.5,
              "duration": 0.23541666666666666
            },
            {
              "pitch": 59,
              "velocity": 38,
              "position": 7.5,
              "duration": 0.23541666666666666
            },
            {
              "pitch": 60,
              "velocity": 53,
              "position": 7.5,
              "duration": 0.2375
            },
            {
              "pitch": 64,
              "velocity": 53,
              "position": 7.510416666666667,
              "duration": 0.23541666666666666
            },
            {
              "pitch": 67,
              "velocity": 60,
              "position": 7.010416666666667,
              "duration": 0.7375
            },
            {
              "pitch": 71,
              "velocity": 60,
              "position": 7.010416666666667,
              "duration": 0.7375
            },
            {
              "pitch": 67,
              "velocity": 60,
              "position": 7.772916666666666,
              "duration": 0.2375
            },
            {
              "pitch": 71,
              "velocity": 60,
              "position": 7.772916666666666,
              "duration": 0.2375
            },
            {
              "pitch": 64,
              "velocity": 60,
              "position": 7.78125,
              "duration": 0.23541666666666666
            },
            {
              "pitch": 60,
              "velocity": 60,
              "position": 7.785416666666666,
              "duration": 0.2375
            },
            {
              "pitch": 55,
              "velocity": 45,
              "position": 7.791666666666667,
              "duration": 0.2375
            },
            {
              "pitch": 59,
              "velocity": 45,
              "position": 7.791666666666667,
              "duration": 0.2375
            },
            {
              "pitch": 55,
              "velocity": 45,
              "position": 9,
              "duration": 0.7354166666666667
            },
            {
              "pitch": 59,
              "velocity": 45,
              "position": 9,
              "duration": 0.7354166666666667
            },
            {
              "pitch": 60,
              "velocity": 60,
              "position": 9,
              "duration": 0.7375
            },
            {
              "pitch": 64,
              "velocity": 60,
              "position": 9.010416666666666,
              "duration": 0.7354166666666667
            },
            {
              "pitch": 67,
              "velocity": 60,
              "position": 9.010416666666666,
              "duration": 0.7375
            },
            {
              "pitch": 71,
              "velocity": 60,
              "position": 9.010416666666666,
              "duration": 0.7375
            },
            {
              "pitch": 67,
              "velocity": 60,
              "position": 9.772916666666667,
              "duration": 0.2375
            },
            {
              "pitch": 71,
              "velocity": 60,
              "position": 9.772916666666667,
              "duration": 0.2375
            },
            {
              "pitch": 64,
              "velocity": 60,
              "position": 9.78125,
              "duration": 0.23541666666666666
            },
            {
              "pitch": 60,
              "velocity": 60,
              "position": 9.785416666666666,
              "duration": 0.2375
            },
            {
              "pitch": 55,
              "velocity": 45,
              "position": 9.791666666666666,
              "duration": 0.2375
            },
            {
              "pitch": 59,
              "velocity": 45,
              "position": 9.791666666666666,
              "duration": 0.2375
            },
            {
              "pitch": 55,
              "velocity": 45,
              "position": 11,
              "duration": 0.24583333333333332
            },
            {
              "pitch": 59,
              "velocity": 45,
              "position": 11,
              "duration": 0.24583333333333332
            },
            {
              "pitch": 60,
              "velocity": 60,
              "position": 11,
              "duration": 0.24583333333333332
            },
            {
              "pitch": 55,
              "velocity": 30,
              "position": 11.28125,
              "duration": 0.20833333333333334
            },
            {
              "pitch": 59,
              "velocity": 30,
              "position": 11.28125,
              "duration": 0.20833333333333334
            },
            {
              "pitch": 60,
              "velocity": 45,
              "position": 11.272916666666667,
              "duration": 0.21875
            },
            {
              "pitch": 64,
              "velocity": 60,
              "position": 11.010416666666666,
              "duration": 0.4875
            },
            {
              "pitch": 55,
              "velocity": 38,
              "position": 11.5,
              "duration": 0.23541666666666666
            },
            {
              "pitch": 59,
              "velocity": 38,
              "position": 11.5,
              "duration": 0.23541666666666666
            },
            {
              "pitch": 60,
              "velocity": 53,
              "position": 11.5,
              "duration": 0.2375
            },
            {
              "pitch": 64,
              "velocity": 53,
              "position": 11.510416666666666,
              "duration": 0.23541666666666666
            },
            {
              "pitch": 67,
              "velocity": 60,
              "position": 11.010416666666666,
              "duration": 0.7375
            },
            {
              "pitch": 71,
              "velocity": 60,
              "position": 11.010416666666666,
              "duration": 0.7375
            },
            {
              "pitch": 67,
              "velocity": 60,
              "position": 11.772916666666667,
              "duration": 0.2375
            },
            {
              "pitch": 71,
              "velocity": 60,
              "position": 11.772916666666667,
              "duration": 0.2375
            },
            {
              "pitch": 64,
              "velocity": 60,
              "position": 11.78125,
              "duration": 0.23541666666666666
            },
            {
              "pitch": 60,
              "velocity": 60,
              "position": 11.785416666666666,
              "duration": 0.2375
            },
            {
              "pitch": 55,
              "velocity": 45,
              "position": 11.791666666666666,
              "duration": 0.2375
            },
            {
              "pitch": 59,
              "velocity": 45,
              "position": 11.791666666666666,
              "duration": 0.2375
            },
            {
              "pitch": 55,
              "velocity": 45,
              "position": 13,
              "duration": 0.7354166666666667
            },
            {
              "pitch": 59,
              "velocity": 45,
              "position": 13,
              "duration": 0.7354166666666667
            },
            {
              "pitch": 60,
              "velocity": 60,
              "position": 13,
              "duration": 0.7375
            },
            {
              "pitch": 64,
              "velocity": 60,
              "position": 13.010416666666666,
              "duration": 0.7354166666666667
            },
            {
              "pitch": 67,
              "velocity": 60,
              "position": 13.010416666666666,
              "duration": 0.7375
            },
            {
              "pitch": 71,
              "velocity": 60,
              "position": 13.010416666666666,
              "duration": 0.7375
            },
            {
              "pitch": 67,
              "velocity": 60,
              "position": 13.772916666666667,
              "duration": 0.2375
            },
            {
              "pitch": 71,
              "velocity": 60,
              "position": 13.772916666666667,
              "duration": 0.2375
            },
            {
              "pitch": 64,
              "velocity": 60,
              "position": 13.78125,
              "duration": 0.23541666666666666
            },
            {
              "pitch": 60,
              "velocity": 60,
              "position": 13.785416666666666,
              "duration": 0.2375
            },
            {
              "pitch": 55,
              "velocity": 45,
              "position": 13.791666666666666,
              "duration": 0.2375
            },
            {
              "pitch": 59,
              "velocity": 45,
              "position": 13.791666666666666,
              "duration": 0.2375
            },
            {
              "pitch": 55,
              "velocity": 45,
              "position": 15,
              "duration": 0.24583333333333332
            },
            {
              "pitch": 59,
              "velocity": 45,
              "position": 15,
              "duration": 0.24583333333333332
            },
            {
              "pitch": 60,
              "velocity": 60,
              "position": 15,
              "duration": 0.24583333333333332
            },
            {
              "pitch": 55,
              "velocity": 30,
              "position": 15.28125,
              "duration": 0.20833333333333334
            },
            {
              "pitch": 59,
              "velocity": 30,
              "position": 15.28125,
              "duration": 0.20833333333333334
            },
            {
              "pitch": 60,
              "velocity": 45,
              "position": 15.272916666666667,
              "duration": 0.21875
            },
            {
              "pitch": 64,
              "velocity": 60,
              "position": 15.010416666666666,
              "duration": 0.4875
            },
            {
              "pitch": 55,
              "velocity": 38,
              "position": 15.5,
              "duration": 0.23541666666666666
            },
            {
              "pitch": 59,
              "velocity": 38,
              "position": 15.5,
              "duration": 0.23541666666666666
            },
            {
              "pitch": 60,
              "velocity": 53,
              "position": 15.5,
              "duration": 0.2375
            },
            {
              "pitch": 64,
              "velocity": 53,
              "position": 15.510416666666666,
              "duration": 0.23541666666666666
            },
            {
              "pitch": 67,
              "velocity": 60,
              "position": 15.010416666666666,
              "duration": 0.7375
            },
            {
              "pitch": 71,
              "velocity": 60,
              "position": 15.010416666666666,
              "duration": 0.7375
            },
            {
              "pitch": 55,
              "velocity": 45,
              "position": 15.791666666666666,
              "duration": 0.19583333333333333
            },
            {
              "pitch": 59,
              "velocity": 45,
              "position": 15.791666666666666,
              "duration": 0.19583333333333333
            },
            {
              "pitch": 60,
              "velocity": 60,
              "position": 15.785416666666666,
              "duration": 0.20208333333333334
            },
            {
              "pitch": 64,
              "velocity": 60,
              "position": 15.78125,
              "duration": 0.20625
            },
            {
              "pitch": 67,
              "velocity": 60,
              "position": 15.772916666666667,
              "duration": 0.21458333333333332
            },
            {
              "pitch": 71,
              "velocity": 60,
              "position": 15.772916666666667,
              "duration": 0.21458333333333332
            }
          ]
        }
      }
    },
    "Main_D": {
      "type": "Main_D",
      "sizeInBeats": 16,
      "channels": {
        "1": {
          "ctab": {
            "srcChannel": 1,
            "name": "Bass B",
            "accType": "BASS",
            "editable": false,
            "mutedNotes": [],
            "mutedChords": [
              "1+2+5",
              "1+5",
              "1+8",
              "7(#9)",
              "7(b13)",
              "7(b9)",
              "7(13)",
              "7#11",
              "7(9)",
              "7b5",
              "7sus4",
              "7th",
              "dim7",
              "dim",
              "min7(11)",
              "min7(9)",
              "m7b5",
              "min7",
              "min6",
              "Maj6(9)",
              "Maj7(9)",
              "Maj(9)",
              "Maj7#11",
              "Maj7",
              "Maj6",
              "Maj"
            ],
            "autoStart": false,
            "sourceChordNote": 0,
            "sourceChordType": "Maj7",
            "ctb2Low": null,
            "ctb2Main": {
              "ntr": "ROOT_TRANSPOSITION",
              "ntt": "MELODY",
              "bassOn": true,
              "chordRootUpperLimit": 3,
              "noteLowLimit": 28,
              "noteHighLimit": 127,
              "rtr": "PITCH_SHIFT_TO_ROOT"
            },
            "ctb2High": null
          },
          "notes": [
            {
              "pitch": 36,
              "velocity": 70,
              "position": 0,
              "duration": 0.29791666666666666
            },
            {
              "pitch": 36,
              "velocity": 69,
              "position": 0.4791666666666667,
              "duration": 0.6104166666666667
            },
            {
              "pitch": 36,
              "velocity": 110,
              "position": 1.2708333333333333,
              "duration": 0.21458333333333332
            },
            {
              "pitch": 48,
              "velocity": 69,
              "position": 1.5,
              "duration": 0.19375
            },
            {
              "pitch": 43,
              "velocity": 63,
              "position": 1.7604166666666667,
              "duration": 0.19375
            },
            {
              "pitch": 36,
              "velocity": 66,
              "position": 1.98125,
              "duration": 0.3
            },
            {
              "pitch": 36,
              "velocity": 71,
              "position": 2.5,
              "duration": 0.6104166666666667
            },
            {
              "pitch": 36,
              "velocity": 110,
              "position": 3.285416666666667,
              "duration": 0.20208333333333334
            },
            {
              "pitch": 43,
              "velocity": 70,
              "position": 3.5,
              "duration": 0.19583333333333333
            },
            {
              "pitch": 48,
              "velocity": 57,
              "position": 3.785416666666667,
              "duration": 0.19583333333333333
            },
            {
              "pitch": 36,
              "velocity": 70,
              "position": 4,
              "duration": 0.29791666666666666
            },
            {
              "pitch": 36,
              "velocity": 70,
              "position": 4.479166666666667,
              "duration": 0.6104166666666667
            },
            {
              "pitch": 36,
              "velocity": 110,
              "position": 5.270833333333333,
              "duration": 0.20625
            },
            {
              "pitch": 48,
              "velocity": 71,
              "position": 5.489583333333333,
              "duration": 0.2
            },
            {
              "pitch": 43,
              "velocity": 64,
              "position": 5.770833333333333,
              "duration": 0.2
            },
            {
              "pitch": 36,
              "velocity": 68,
              "position": 6.010416666666667,
              "duration": 0.29791666666666666
            },
            {
              "pitch": 36,
              "velocity": 68,
              "position": 6.489583333333333,
              "duration": 0.50625
            },
            {
              "pitch": 36,
              "velocity": 110,
              "position": 7.0125,
              "duration": 0.2375
            },
            {
              "pitch": 36,
              "velocity": 71,
              "position": 7.270833333333333,
              "duration": 0.66875
            },
            {
              "pitch": 36,
              "velocity": 68,
              "position": 8,
              "duration": 0.29791666666666666
            },
            {
              "pitch": 36,
              "velocity": 67,
              "position": 8.5,
              "duration": 0.6104166666666667
            },
            {
              "pitch": 36,
              "velocity": 110,
              "position": 9.25,
              "duration": 0.21458333333333332
            },
            {
              "pitch": 48,
              "velocity": 71,
              "position": 9.48125,
              "duration": 0.19791666666666666
            },
            {
              "pitch": 43,
              "velocity": 62,
              "position": 9.752083333333333,
              "duration": 0.19791666666666666
            },
            {
              "pitch": 36,
              "velocity": 69,
              "position": 9.991666666666667,
              "duration": 0.3
            },
            {
              "pitch": 36,
              "velocity": 68,
              "position": 10.489583333333334,
              "duration": 0.6125
            },
            {
              "pitch": 36,
              "velocity": 110,
              "position": 11.260416666666666,
              "duration": 0.21666666666666667
            },
            {
              "pitch": 43,
              "velocity": 70,
              "position": 11.504166666666666,
              "duration": 0.2375
            },
            {
              "pitch": 48,
              "velocity": 64,
              "position": 11.783333333333333,
              "duration": 0.19791666666666666
            },
            {
              "pitch": 36,
              "velocity": 68,
              "position": 12,
              "duration": 0.29791666666666666
            },
            {
              "pitch": 36,
              "velocity": 74,
              "position": 12.48125,
              "duration": 0.6125
            },
            {
              "pitch": 36,
              "velocity": 110,
              "position": 13.285416666666666,
              "duration": 0.17916666666666667
            },
            {
              "pitch": 48,
              "velocity": 66,
              "position": 13.479166666666666,
              "duration": 0.19583333333333333
            },
            {
              "pitch": 43,
              "velocity": 61,
              "position": 13.78125,
              "duration": 0.19583333333333333
            },
            {
              "pitch": 36,
              "velocity": 67,
              "position": 14,
              "duration": 0.29791666666666666
            },
            {
              "pitch": 36,
              "velocity": 67,
              "position": 14.510416666666666,
              "duration": 0.50625
            },
            {
              "pitch": 36,
              "velocity": 110,
              "position": 15.03125,
              "duration": 0.23541666666666666
            },
            {
              "pitch": 36,
              "velocity": 69,
              "position": 15.285416666666666,
              "duration": 0.6708333333333333
            }
          ]
        },
        "4": {
          "ctab": {
            "srcChannel": 4,
            "name": "Organ rt",
            "accType": "PAD",
            "editable": false,
            "mutedNotes": [],
            "mutedChords": [
              "1+2+5",
              "sus4",
              "1+5",
              "1+8",
              "Maj7aug",
              "dim",
              "minMaj7(9)",
              "minMaj7",
              "min6",
              "min",
              "aug",
              "Maj7(9)",
              "Maj7#11",
              "Maj7",
              "Maj6",
              "Maj"
            ],
            "autoStart": false,
            "sourceChordNote": 0,
            "sourceChordType": "Maj7",
            "ctb2Low": null,
            "ctb2Main": {
              "ntr": "ROOT_TRANSPOSITION",
              "ntt": "MELODY",
              "bassOn": false,
              "chordRootUpperLimit": 10,
              "noteLowLimit": 0,
              "noteHighLimit": 127,
              "rtr": "PITCH_SHIFT"
            },
            "ctb2High": null
          },
          "notes": [
            {
              "pitch": 60,
              "velocity": 48,
              "position": 0,
              "duration": 15.985416666666667
            }
          ]
        },
        "8": {
          "ctab": {
            "srcChannel": 8,
            "name": "AddDrum",
            "accType": "SUBRHYTHM",
            "editable": false,
            "mutedNotes": [],
            "mutedChords": [],
            "autoStart": true,
            "sourceChordNote": 0,
            "sourceChordType": "Maj7",
            "ctb2Low": null,
            "ctb2Main": {
              "ntr": "ROOT_FIXED",
              "ntt": "BYPASS",
              "bassOn": false,
              "chordRootUpperLimit": 6,
              "noteLowLimit": 0,
              "noteHighLimit": 127,
              "rtr": "PITCH_SHIFT"
            },
            "ctb2High": null
          },
          "notes": [
            {
              "pitch": 42,
              "velocity": 120,
              "position": 0,
              "duration": 0.00625
            },
            {
              "pitch": 32,
              "velocity": 34,
              "position": 0.2708333333333333,
              "duration": 0.00625
            },
            {
              "pitch": 46,
              "velocity": 60,
              "position": 0.5,
              "duration": 0.00625
            },
            {
              "pitch": 32,
              "velocity": 104,
              "position": 1,
              "duration": 0.00625
            },
            {
              "pitch": 42,
              "velocity": 120,
              "position": 1,
              "duration": 0.00625
            },
            {
              "pitch": 46,
              "velocity": 40,
              "position": 1.5,
              "duration": 0.00625
            },
            {
              "pitch": 32,
              "velocity": 24,
              "position": 1.7708333333333333,
              "duration": 0.00625
            },
            {
              "pitch": 26,
              "velocity": 50,
              "position": 0,
              "duration": 1.9854166666666666
            },
            {
              "pitch": 42,
              "velocity": 120,
              "position": 2,
              "duration": 0.00625
            },
            {
              "pitch": 32,
              "velocity": 24,
              "position": 2.2708333333333335,
              "duration": 0.00625
            },
            {
              "pitch": 46,
              "velocity": 40,
              "position": 2.5,
              "duration": 0.00625
            },
            {
              "pitch": 32,
              "velocity": 104,
              "position": 3,
              "duration": 0.00625
            },
            {
              "pitch": 42,
              "velocity": 120,
              "position": 3,
              "duration": 0.00625
            },
            {
              "pitch": 46,
              "velocity": 60,
              "position": 3.5,
              "duration": 0.00625
            },
            {
              "pitch": 32,
              "velocity": 34,
              "position": 3.7708333333333335,
              "duration": 0.00625
            },
            {
              "pitch": 26,
              "velocity": 50,
              "position": 2,
              "duration": 1.9854166666666666
            },
            {
              "pitch": 42,
              "velocity": 120,
              "position": 4,
              "duration": 0.00625
            },
            {
              "pitch": 32,
              "velocity": 34,
              "position": 4.270833333333333,
              "duration": 0.00625
            },
            {
              "pitch": 46,
              "velocity": 60,
              "position": 4.5,
              "duration": 0.00625
            },
            {
              "pitch": 32,
              "velocity": 104,
              "position": 5,
              "duration": 0.00625
            },
            {
              "pitch": 42,
              "velocity": 120,
              "position": 5,
              "duration": 0.00625
            },
            {
              "pitch": 46,
              "velocity": 40,
              "position": 5.5,
              "duration": 0.00625
            },
            {
              "pitch": 32,
              "velocity": 24,
              "position": 5.770833333333333,
              "duration": 0.00625
            },
            {
              "pitch": 26,
              "velocity": 50,
              "position": 4,
              "duration": 1.9854166666666666
            },
            {
              "pitch": 42,
              "velocity": 120,
              "position": 6,
              "duration": 0.00625
            },
            {
              "pitch": 32,
              "velocity": 24,
              "position": 6.270833333333333,
              "duration": 0.00625
            },
            {
              "pitch": 46,
              "velocity": 40,
              "position": 6.5,
              "duration": 0.00625
            },
            {
              "pitch": 32,
              "velocity": 104,
              "position": 7,
              "duration": 0.00625
            },
            {
              "pitch": 42,
              "velocity": 120,
              "position": 7,
              "duration": 0.00625
            },
            {
              "pitch": 46,
              "velocity": 60,
              "position": 7.5,
              "duration": 0.00625
            },
            {
              "pitch": 32,
              "velocity": 34,
              "position": 7.770833333333333,
              "duration": 0.00625
            },
            {
              "pitch": 26,
              "velocity": 50,
              "position": 6,
              "duration": 1.9854166666666666
            },
            {
              "pitch": 42,
              "velocity": 120,
              "position": 8,
              "duration": 0.00625
            },
            {
              "pitch": 32,
              "velocity": 34,
              "position": 8.270833333333334,
              "duration": 0.00625
            },
            {
              "pitch": 46,
              "velocity": 60,
              "position": 8.5,
              "duration": 0.00625
            },
            {
              "pitch": 32,
              "velocity": 104,
              "position": 9,
              "duration": 0.00625
            },
            {
              "pitch": 42,
              "velocity": 120,
              "position": 9,
              "duration": 0.00625
            },
            {
              "pitch": 46,
              "velocity": 40,
              "position": 9.5,
              "duration": 0.00625
            },
            {
              "pitch": 32,
              "velocity": 24,
              "position": 9.770833333333334,
              "duration": 0.00625
            },
            {
              "pitch": 26,
              "velocity": 50,
              "position": 8,
              "duration": 1.9854166666666666
            },
            {
              "pitch": 42,
              "velocity": 120,
              "position": 10,
              "duration": 0.00625
            },
            {
              "pitch": 32,
              "velocity": 24,
              "position": 10.270833333333334,
              "duration": 0.00625
            },
            {
              "pitch": 46,
              "velocity": 40,
              "position": 10.5,
              "duration": 0.00625
            },
            {
              "pitch": 32,
              "velocity": 104,
              "position": 11,
              "duration": 0.00625
            },
            {
              "pitch": 42,
              "velocity": 120,
              "position": 11,
              "duration": 0.00625
            },
            {
              "pitch": 46,
              "velocity": 60,
              "position": 11.5,
              "duration": 0.00625
            },
            {
              "pitch": 32,
              "velocity": 34,
              "position": 11.770833333333334,
              "duration": 0.00625
            },
            {
              "pitch": 26,
              "velocity": 50,
              "position": 10,
              "duration": 1.9854166666666666
            },
            {
              "pitch": 42,
              "velocity": 120,
              "position": 12,
              "duration": 0.00625
            },
            {
              "pitch": 32,
              "velocity": 34,
              "position": 12.270833333333334,
              "duration": 0.00625
            },
            {
              "pitch": 46,
              "velocity": 60,
              "position": 12.5,
              "duration": 0.00625
            },
            {
              "pitch": 32,
              "velocity": 104,
              "position": 13,
              "duration": 0.00625
            },
            {
              "pitch": 42,
              "velocity": 120,
              "position": 13,
              "duration": 0.00625
            },
            {
              "pitch": 46,
              "velocity": 40,
              "position": 13.5,
              "duration": 0.00625
            },
            {
              "pitch": 32,
              "velocity": 24,
              "position": 13.770833333333334,
              "duration": 0.00625
            },
            {
              "pitch": 26,
              "velocity": 50,
              "position": 12,
              "duration": 1.9854166666666666
            },
            {
              "pitch": 42,
              "velocity": 120,
              "position": 14,
              "duration": 0.00625
            },
            {
              "pitch": 32,
              "velocity": 24,
              "position": 14.270833333333334,
              "duration": 0.00625
            },
            {
              "pitch": 46,
              "velocity": 40,
              "position": 14.5,
              "duration": 0.00625
            },
            {
              "pitch": 32,
              "velocity": 104,
              "position": 15,
              "duration": 0.00625
            },
            {
              "pitch": 42,
              "velocity": 120,
              "position": 15,
              "duration": 0.00625
            },
            {
              "pitch": 18,
              "velocity": 81,
              "position": 14.666666666666666,
              "duration": 0.4875
            },
            {
              "pitch": 17,
              "velocity": 127,
              "position": 15,
              "duration": 0.48541666666666666
            },
            {
              "pitch": 46,
              "velocity": 60,
              "position": 15.5,
              "duration": 0.00625
            },
            {
              "pitch": 18,
              "velocity": 81,
              "position": 15.166666666666666,
              "duration": 0.4875
            },
            {
              "pitch": 32,
              "velocity": 34,
              "position": 15.770833333333334,
              "duration": 0.00625
            },
            {
              "pitch": 17,
              "velocity": 127,
              "position": 15.5,
              "duration": 0.48541666666666666
            },
            {
              "pitch": 26,
              "velocity": 50,
              "position": 14,
              "duration": 1.9854166666666666
            }
          ]
        },
        "9": {
          "ctab": {
            "srcChannel": 9,
            "name": "MainDrum",
            "accType": "RHYTHM",
            "editable": false,
            "mutedNotes": [],
            "mutedChords": [],
            "autoStart": true,
            "sourceChordNote": 0,
            "sourceChordType": "Maj7",
            "ctb2Low": null,
            "ctb2Main": {
              "ntr": "ROOT_FIXED",
              "ntt": "BYPASS",
              "bassOn": false,
              "chordRootUpperLimit": 6,
              "noteLowLimit": 0,
              "noteHighLimit": 127,
              "rtr": "PITCH_SHIFT"
            },
            "ctb2High": null
          },
          "notes": [
            {
              "pitch": 35,
              "velocity": 100,
              "position": 0,
              "duration": 0.00625
            },
            {
              "pitch": 53,
              "velocity": 102,
              "position": 0,
              "duration": 0.00625
            },
            {
              "pitch": 54,
              "velocity": 38,
              "position": 0.0020833333333333333,
              "duration": 0.00625
            },
            {
              "pitch": 54,
              "velocity": 48,
              "position": 0.2708333333333333,
              "duration": 0.00625
            },
            {
              "pitch": 38,
              "velocity": 16,
              "position": 0.27291666666666664,
              "duration": 0.00625
            },
            {
              "pitch": 35,
              "velocity": 100,
              "position": 0.5,
              "duration": 0.00625
            },
            {
              "pitch": 44,
              "velocity": 60,
              "position": 0.5,
              "duration": 0.00625
            },
            {
              "pitch": 53,
              "velocity": 70,
              "position": 0.5,
              "duration": 0.00625
            },
            {
              "pitch": 54,
              "velocity": 49,
              "position": 0.5041666666666667,
              "duration": 0.00625
            },
            {
              "pitch": 54,
              "velocity": 26,
              "position": 0.7645833333333333,
              "duration": 0.00625
            },
            {
              "pitch": 38,
              "velocity": 13,
              "position": 0.775,
              "duration": 0.00625
            },
            {
              "pitch": 38,
              "velocity": 110,
              "position": 1,
              "duration": 0.00625
            },
            {
              "pitch": 53,
              "velocity": 102,
              "position": 1,
              "duration": 0.00625
            },
            {
              "pitch": 54,
              "velocity": 91,
              "position": 1,
              "duration": 0.00625
            },
            {
              "pitch": 38,
              "velocity": 26,
              "position": 1.2604166666666667,
              "duration": 0.00625
            },
            {
              "pitch": 54,
              "velocity": 22,
              "position": 1.2708333333333333,
              "duration": 0.00625
            },
            {
              "pitch": 54,
              "velocity": 46,
              "position": 1.4916666666666667,
              "duration": 0.00625
            },
            {
              "pitch": 35,
              "velocity": 60,
              "position": 1.5,
              "duration": 0.00625
            },
            {
              "pitch": 44,
              "velocity": 60,
              "position": 1.5,
              "duration": 0.00625
            },
            {
              "pitch": 53,
              "velocity": 70,
              "position": 1.5,
              "duration": 0.00625
            },
            {
              "pitch": 38,
              "velocity": 72,
              "position": 1.7708333333333333,
              "duration": 0.00625
            },
            {
              "pitch": 54,
              "velocity": 37,
              "position": 1.7708333333333333,
              "duration": 0.00625
            },
            {
              "pitch": 38,
              "velocity": 37,
              "position": 1.8770833333333334,
              "duration": 0.00625
            },
            {
              "pitch": 35,
              "velocity": 100,
              "position": 2,
              "duration": 0.00625
            },
            {
              "pitch": 53,
              "velocity": 102,
              "position": 2,
              "duration": 0.00625
            },
            {
              "pitch": 54,
              "velocity": 45,
              "position": 2.002083333333333,
              "duration": 0.00625
            },
            {
              "pitch": 38,
              "velocity": 41,
              "position": 2.2625,
              "duration": 0.00625
            },
            {
              "pitch": 54,
              "velocity": 45,
              "position": 2.2708333333333335,
              "duration": 0.00625
            },
            {
              "pitch": 35,
              "velocity": 100,
              "position": 2.5,
              "duration": 0.00625
            },
            {
              "pitch": 44,
              "velocity": 60,
              "position": 2.5,
              "duration": 0.00625
            },
            {
              "pitch": 53,
              "velocity": 70,
              "position": 2.5,
              "duration": 0.00625
            },
            {
              "pitch": 54,
              "velocity": 46,
              "position": 2.5,
              "duration": 0.00625
            },
            {
              "pitch": 54,
              "velocity": 30,
              "position": 2.7604166666666665,
              "duration": 0.00625
            },
            {
              "pitch": 38,
              "velocity": 13,
              "position": 2.7625,
              "duration": 0.00625
            },
            {
              "pitch": 38,
              "velocity": 110,
              "position": 3,
              "duration": 0.00625
            },
            {
              "pitch": 53,
              "velocity": 102,
              "position": 3,
              "duration": 0.00625
            },
            {
              "pitch": 54,
              "velocity": 50,
              "position": 3,
              "duration": 0.00625
            },
            {
              "pitch": 38,
              "velocity": 24,
              "position": 3.2625,
              "duration": 0.00625
            },
            {
              "pitch": 54,
              "velocity": 35,
              "position": 3.2708333333333335,
              "duration": 0.00625
            },
            {
              "pitch": 54,
              "velocity": 46,
              "position": 3.4916666666666667,
              "duration": 0.00625
            },
            {
              "pitch": 35,
              "velocity": 80,
              "position": 3.5,
              "duration": 0.00625
            },
            {
              "pitch": 44,
              "velocity": 60,
              "position": 3.5,
              "duration": 0.00625
            },
            {
              "pitch": 53,
              "velocity": 70,
              "position": 3.5,
              "duration": 0.00625
            },
            {
              "pitch": 38,
              "velocity": 58,
              "position": 3.7708333333333335,
              "duration": 0.00625
            },
            {
              "pitch": 54,
              "velocity": 52,
              "position": 3.7708333333333335,
              "duration": 0.00625
            },
            {
              "pitch": 38,
              "velocity": 39,
              "position": 3.86875,
              "duration": 0.00625
            },
            {
              "pitch": 35,
              "velocity": 100,
              "position": 4,
              "duration": 0.00625
            },
            {
              "pitch": 53,
              "velocity": 102,
              "position": 4,
              "duration": 0.00625
            },
            {
              "pitch": 54,
              "velocity": 96,
              "position": 4,
              "duration": 0.00625
            },
            {
              "pitch": 54,
              "velocity": 13,
              "position": 4.260416666666667,
              "duration": 0.00625
            },
            {
              "pitch": 38,
              "velocity": 26,
              "position": 4.2625,
              "duration": 0.00625
            },
            {
              "pitch": 35,
              "velocity": 100,
              "position": 4.5,
              "duration": 0.00625
            },
            {
              "pitch": 44,
              "velocity": 60,
              "position": 4.5,
              "duration": 0.00625
            },
            {
              "pitch": 53,
              "velocity": 70,
              "position": 4.5,
              "duration": 0.00625
            },
            {
              "pitch": 54,
              "velocity": 35,
              "position": 4.504166666666666,
              "duration": 0.00625
            },
            {
              "pitch": 54,
              "velocity": 62,
              "position": 4.770833333333333,
              "duration": 0.00625
            },
            {
              "pitch": 54,
              "velocity": 43,
              "position": 4.989583333333333,
              "duration": 0.00625
            },
            {
              "pitch": 38,
              "velocity": 110,
              "position": 5,
              "duration": 0.00625
            },
            {
              "pitch": 53,
              "velocity": 102,
              "position": 5,
              "duration": 0.00625
            },
            {
              "pitch": 35,
              "velocity": 80,
              "position": 5.270833333333333,
              "duration": 0.00625
            },
            {
              "pitch": 54,
              "velocity": 40,
              "position": 5.270833333333333,
              "duration": 0.00625
            },
            {
              "pitch": 44,
              "velocity": 60,
              "position": 5.5,
              "duration": 0.00625
            },
            {
              "pitch": 53,
              "velocity": 70,
              "position": 5.5,
              "duration": 0.00625
            },
            {
              "pitch": 54,
              "velocity": 43,
              "position": 5.5,
              "duration": 0.00625
            },
            {
              "pitch": 54,
              "velocity": 24,
              "position": 5.764583333333333,
              "duration": 0.00625
            },
            {
              "pitch": 38,
              "velocity": 85,
              "position": 5.770833333333333,
              "duration": 0.00625
            },
            {
              "pitch": 38,
              "velocity": 36,
              "position": 5.875,
              "duration": 0.00625
            },
            {
              "pitch": 35,
              "velocity": 100,
              "position": 6,
              "duration": 0.00625
            },
            {
              "pitch": 53,
              "velocity": 102,
              "position": 6,
              "duration": 0.00625
            },
            {
              "pitch": 54,
              "velocity": 38,
              "position": 6.004166666666666,
              "duration": 0.00625
            },
            {
              "pitch": 38,
              "velocity": 43,
              "position": 6.260416666666667,
              "duration": 0.00625
            },
            {
              "pitch": 54,
              "velocity": 20,
              "position": 6.2625,
              "duration": 0.00625
            },
            {
              "pitch": 35,
              "velocity": 100,
              "position": 6.5,
              "duration": 0.00625
            },
            {
              "pitch": 44,
              "velocity": 60,
              "position": 6.5,
              "duration": 0.00625
            },
            {
              "pitch": 53,
              "velocity": 70,
              "position": 6.5,
              "duration": 0.00625
            },
            {
              "pitch": 54,
              "velocity": 49,
              "position": 6.5,
              "duration": 0.00625
            },
            {
              "pitch": 54,
              "velocity": 35,
              "position": 6.770833333333333,
              "duration": 0.00625
            },
            {
              "pitch": 38,
              "velocity": 28,
              "position": 6.772916666666666,
              "duration": 0.00625
            },
            {
              "pitch": 54,
              "velocity": 31,
              "position": 6.989583333333333,
              "duration": 0.00625
            },
            {
              "pitch": 38,
              "velocity": 110,
              "position": 7,
              "duration": 0.00625
            },
            {
              "pitch": 53,
              "velocity": 102,
              "position": 7,
              "duration": 0.00625
            },
            {
              "pitch": 54,
              "velocity": 38,
              "position": 7.260416666666667,
              "duration": 0.00625
            },
            {
              "pitch": 35,
              "velocity": 100,
              "position": 7.270833333333333,
              "duration": 0.00625
            },
            {
              "pitch": 54,
              "velocity": 41,
              "position": 7.49375,
              "duration": 0.00625
            },
            {
              "pitch": 44,
              "velocity": 60,
              "position": 7.5,
              "duration": 0.00625
            },
            {
              "pitch": 53,
              "velocity": 70,
              "position": 7.5,
              "duration": 0.00625
            },
            {
              "pitch": 38,
              "velocity": 44,
              "position": 7.770833333333333,
              "duration": 0.00625
            },
            {
              "pitch": 54,
              "velocity": 55,
              "position": 7.770833333333333,
              "duration": 0.00625
            },
            {
              "pitch": 38,
              "velocity": 30,
              "position": 7.875,
              "duration": 0.00625
            },
            {
              "pitch": 35,
              "velocity": 100,
              "position": 8,
              "duration": 0.00625
            },
            {
              "pitch": 53,
              "velocity": 102,
              "position": 8,
              "duration": 0.00625
            },
            {
              "pitch": 54,
              "velocity": 43,
              "position": 8,
              "duration": 0.00625
            },
            {
              "pitch": 54,
              "velocity": 34,
              "position": 8.260416666666666,
              "duration": 0.00625
            },
            {
              "pitch": 38,
              "velocity": 16,
              "position": 8.2625,
              "duration": 0.00625
            },
            {
              "pitch": 35,
              "velocity": 100,
              "position": 8.5,
              "duration": 0.00625
            },
            {
              "pitch": 44,
              "velocity": 60,
              "position": 8.5,
              "duration": 0.00625
            },
            {
              "pitch": 53,
              "velocity": 70,
              "position": 8.5,
              "duration": 0.00625
            },
            {
              "pitch": 54,
              "velocity": 36,
              "position": 8.5,
              "duration": 0.00625
            },
            {
              "pitch": 38,
              "velocity": 18,
              "position": 8.760416666666666,
              "duration": 0.00625
            },
            {
              "pitch": 54,
              "velocity": 38,
              "position": 8.764583333333333,
              "duration": 0.00625
            },
            {
              "pitch": 38,
              "velocity": 110,
              "position": 9,
              "duration": 0.00625
            },
            {
              "pitch": 53,
              "velocity": 102,
              "position": 9,
              "duration": 0.00625
            },
            {
              "pitch": 54,
              "velocity": 98,
              "position": 9,
              "duration": 0.00625
            },
            {
              "pitch": 54,
              "velocity": 29,
              "position": 9.260416666666666,
              "duration": 0.00625
            },
            {
              "pitch": 35,
              "velocity": 60,
              "position": 9.270833333333334,
              "duration": 0.00625
            },
            {
              "pitch": 35,
              "velocity": 80,
              "position": 9.5,
              "duration": 0.00625
            },
            {
              "pitch": 44,
              "velocity": 60,
              "position": 9.5,
              "duration": 0.00625
            },
            {
              "pitch": 53,
              "velocity": 70,
              "position": 9.5,
              "duration": 0.00625
            },
            {
              "pitch": 54,
              "velocity": 48,
              "position": 9.5,
              "duration": 0.00625
            },
            {
              "pitch": 38,
              "velocity": 89,
              "position": 9.760416666666666,
              "duration": 0.00625
            },
            {
              "pitch": 54,
              "velocity": 57,
              "position": 9.770833333333334,
              "duration": 0.00625
            },
            {
              "pitch": 38,
              "velocity": 45,
              "position": 9.864583333333334,
              "duration": 0.00625
            },
            {
              "pitch": 35,
              "velocity": 100,
              "position": 10,
              "duration": 0.00625
            },
            {
              "pitch": 53,
              "velocity": 102,
              "position": 10,
              "duration": 0.00625
            },
            {
              "pitch": 54,
              "velocity": 105,
              "position": 10,
              "duration": 0.00625
            },
            {
              "pitch": 38,
              "velocity": 36,
              "position": 10.260416666666666,
              "duration": 0.00625
            },
            {
              "pitch": 54,
              "velocity": 32,
              "position": 10.270833333333334,
              "duration": 0.00625
            },
            {
              "pitch": 35,
              "velocity": 100,
              "position": 10.5,
              "duration": 0.00625
            },
            {
              "pitch": 44,
              "velocity": 60,
              "position": 10.5,
              "duration": 0.00625
            },
            {
              "pitch": 53,
              "velocity": 70,
              "position": 10.5,
              "duration": 0.00625
            },
            {
              "pitch": 54,
              "velocity": 34,
              "position": 10.5,
              "duration": 0.00625
            },
            {
              "pitch": 54,
              "velocity": 39,
              "position": 10.770833333333334,
              "duration": 0.00625
            },
            {
              "pitch": 38,
              "velocity": 26,
              "position": 10.772916666666667,
              "duration": 0.00625
            },
            {
              "pitch": 54,
              "velocity": 43,
              "position": 10.989583333333334,
              "duration": 0.00625
            },
            {
              "pitch": 38,
              "velocity": 110,
              "position": 11,
              "duration": 0.00625
            },
            {
              "pitch": 53,
              "velocity": 102,
              "position": 11,
              "duration": 0.00625
            },
            {
              "pitch": 35,
              "velocity": 80,
              "position": 11.270833333333334,
              "duration": 0.00625
            },
            {
              "pitch": 54,
              "velocity": 16,
              "position": 11.275,
              "duration": 0.00625
            },
            {
              "pitch": 54,
              "velocity": 33,
              "position": 11.489583333333334,
              "duration": 0.00625
            },
            {
              "pitch": 44,
              "velocity": 60,
              "position": 11.5,
              "duration": 0.00625
            },
            {
              "pitch": 53,
              "velocity": 70,
              "position": 11.5,
              "duration": 0.00625
            },
            {
              "pitch": 38,
              "velocity": 43,
              "position": 11.764583333333333,
              "duration": 0.00625
            },
            {
              "pitch": 54,
              "velocity": 58,
              "position": 11.764583333333333,
              "duration": 0.00625
            },
            {
              "pitch": 38,
              "velocity": 34,
              "position": 11.866666666666667,
              "duration": 0.00625
            },
            {
              "pitch": 35,
              "velocity": 100,
              "position": 12,
              "duration": 0.00625
            },
            {
              "pitch": 53,
              "velocity": 102,
              "position": 12,
              "duration": 0.00625
            },
            {
              "pitch": 54,
              "velocity": 119,
              "position": 12,
              "duration": 0.00625
            },
            {
              "pitch": 38,
              "velocity": 22,
              "position": 12.270833333333334,
              "duration": 0.00625
            },
            {
              "pitch": 54,
              "velocity": 37,
              "position": 12.270833333333334,
              "duration": 0.00625
            },
            {
              "pitch": 35,
              "velocity": 100,
              "position": 12.5,
              "duration": 0.00625
            },
            {
              "pitch": 44,
              "velocity": 60,
              "position": 12.5,
              "duration": 0.00625
            },
            {
              "pitch": 53,
              "velocity": 70,
              "position": 12.5,
              "duration": 0.00625
            },
            {
              "pitch": 54,
              "velocity": 41,
              "position": 12.5,
              "duration": 0.00625
            },
            {
              "pitch": 54,
              "velocity": 68,
              "position": 12.770833333333334,
              "duration": 0.00625
            },
            {
              "pitch": 54,
              "velocity": 49,
              "position": 12.989583333333334,
              "duration": 0.00625
            },
            {
              "pitch": 38,
              "velocity": 110,
              "position": 13,
              "duration": 0.00625
            },
            {
              "pitch": 53,
              "velocity": 102,
              "position": 13,
              "duration": 0.00625
            },
            {
              "pitch": 54,
              "velocity": 46,
              "position": 13.2625,
              "duration": 0.00625
            },
            {
              "pitch": 35,
              "velocity": 80,
              "position": 13.270833333333334,
              "duration": 0.00625
            },
            {
              "pitch": 44,
              "velocity": 60,
              "position": 13.5,
              "duration": 0.00625
            },
            {
              "pitch": 53,
              "velocity": 70,
              "position": 13.5,
              "duration": 0.00625
            },
            {
              "pitch": 54,
              "velocity": 41,
              "position": 13.504166666666666,
              "duration": 0.00625
            },
            {
              "pitch": 38,
              "velocity": 78,
              "position": 13.7625,
              "duration": 0.00625
            },
            {
              "pitch": 35,
              "velocity": 50,
              "position": 13.770833333333334,
              "duration": 0.00625
            },
            {
              "pitch": 54,
              "velocity": 30,
              "position": 13.770833333333334,
              "duration": 0.00625
            },
            {
              "pitch": 38,
              "velocity": 41,
              "position": 13.866666666666667,
              "duration": 0.00625
            },
            {
              "pitch": 35,
              "velocity": 100,
              "position": 14,
              "duration": 0.00625
            },
            {
              "pitch": 53,
              "velocity": 102,
              "position": 14,
              "duration": 0.00625
            },
            {
              "pitch": 54,
              "velocity": 54,
              "position": 14,
              "duration": 0.00625
            },
            {
              "pitch": 38,
              "velocity": 33,
              "position": 14.260416666666666,
              "duration": 0.00625
            },
            {
              "pitch": 54,
              "velocity": 25,
              "position": 14.260416666666666,
              "duration": 0.00625
            },
            {
              "pitch": 35,
              "velocity": 100,
              "position": 14.5,
              "duration": 0.00625
            },
            {
              "pitch": 44,
              "velocity": 60,
              "position": 14.5,
              "duration": 0.00625
            },
            {
              "pitch": 53,
              "velocity": 70,
              "position": 14.5,
              "duration": 0.00625
            },
            {
              "pitch": 54,
              "velocity": 37,
              "position": 14.5,
              "duration": 0.00625
            },
            {
              "pitch": 54,
              "velocity": 51,
              "position": 14.7625,
              "duration": 0.00625
            },
            {
              "pitch": 38,
              "velocity": 27,
              "position": 14.775,
              "duration": 0.00625
            },
            {
              "pitch": 38,
              "velocity": 110,
              "position": 15,
              "duration": 0.00625
            },
            {
              "pitch": 53,
              "velocity": 102,
              "position": 15,
              "duration": 0.00625
            },
            {
              "pitch": 54,
              "velocity": 106,
              "position": 15,
              "duration": 0.00625
            },
            {
              "pitch": 54,
              "velocity": 50,
              "position": 15.2625,
              "duration": 0.00625
            },
            {
              "pitch": 35,
              "velocity": 100,
              "position": 15.270833333333334,
              "duration": 0.00625
            },
            {
              "pitch": 54,
              "velocity": 47,
              "position": 15.489583333333334,
              "duration": 0.00625
            },
            {
              "pitch": 44,
              "velocity": 60,
              "position": 15.5,
              "duration": 0.00625
            },
            {
              "pitch": 53,
              "velocity": 70,
              "position": 15.5,
              "duration": 0.00625
            },
            {
              "pitch": 38,
              "velocity": 58,
              "position": 15.764583333333333,
              "duration": 0.00625
            },
            {
              "pitch": 35,
              "velocity": 80,
              "position": 15.770833333333334,
              "duration": 0.00625
            },
            {
              "pitch": 54,
              "velocity": 67,
              "position": 15.770833333333334,
              "duration": 0.00625
            },
            {
              "pitch": 38,
              "velocity": 42,
              "position": 15.875,
              "duration": 0.00625
            }
          ]
        },
        "10": {
          "ctab": {
            "srcChannel": 10,
            "name": "Bass A",
            "accType": "BASS",
            "editable": false,
            "mutedNotes": [],
            "mutedChords": [
              "sus4",
              "7aug",
              "Maj7aug",
              "minMaj7(9)",
              "minMaj7",
              "min(9)",
              "min",
              "aug"
            ],
            "autoStart": false,
            "sourceChordNote": 0,
            "sourceChordType": "Maj7",
            "ctb2Low": null,
            "ctb2Main": {
              "ntr": "ROOT_TRANSPOSITION",
              "ntt": "MELODY",
              "bassOn": true,
              "chordRootUpperLimit": 3,
              "noteLowLimit": 28,
              "noteHighLimit": 127,
              "rtr": "PITCH_SHIFT_TO_ROOT"
            },
            "ctb2High": null
          },
          "notes": [
            {
              "pitch": 36,
              "velocity": 70,
              "position": 0,
              "duration": 0.29791666666666666
            },
            {
              "pitch": 36,
              "velocity": 69,
              "position": 0.4791666666666667,
              "duration": 0.6104166666666667
            },
            {
              "pitch": 36,
              "velocity": 110,
              "position": 1.2708333333333333,
              "duration": 0.21458333333333332
            },
            {
              "pitch": 48,
              "velocity": 69,
              "position": 1.5,
              "duration": 0.19375
            },
            {
              "pitch": 43,
              "velocity": 63,
              "position": 1.7604166666666667,
              "duration": 0.19375
            },
            {
              "pitch": 36,
              "velocity": 66,
              "position": 1.98125,
              "duration": 0.3
            },
            {
              "pitch": 36,
              "velocity": 71,
              "position": 2.5,
              "duration": 0.6104166666666667
            },
            {
              "pitch": 36,
              "velocity": 110,
              "position": 3.285416666666667,
              "duration": 0.20208333333333334
            },
            {
              "pitch": 43,
              "velocity": 70,
              "position": 3.5,
              "duration": 0.19583333333333333
            },
            {
              "pitch": 48,
              "velocity": 57,
              "position": 3.785416666666667,
              "duration": 0.19583333333333333
            },
            {
              "pitch": 36,
              "velocity": 70,
              "position": 4,
              "duration": 0.29791666666666666
            },
            {
              "pitch": 36,
              "velocity": 70,
              "position": 4.479166666666667,
              "duration": 0.6104166666666667
            },
            {
              "pitch": 36,
              "velocity": 110,
              "position": 5.270833333333333,
              "duration": 0.20625
            },
            {
              "pitch": 48,
              "velocity": 71,
              "position": 5.489583333333333,
              "duration": 0.2
            },
            {
              "pitch": 43,
              "velocity": 64,
              "position": 5.770833333333333,
              "duration": 0.2
            },
            {
              "pitch": 36,
              "velocity": 68,
              "position": 6.010416666666667,
              "duration": 0.29791666666666666
            },
            {
              "pitch": 36,
              "velocity": 68,
              "position": 6.489583333333333,
              "duration": 0.50625
            },
            {
              "pitch": 36,
              "velocity": 110,
              "position": 7.0125,
              "duration": 0.2375
            },
            {
              "pitch": 36,
              "velocity": 71,
              "position": 7.270833333333333,
              "duration": 0.66875
            },
            {
              "pitch": 36,
              "velocity": 68,
              "position": 8,
              "duration": 0.29791666666666666
            },
            {
              "pitch": 36,
              "velocity": 67,
              "position": 8.5,
              "duration": 0.6104166666666667
            },
            {
              "pitch": 36,
              "velocity": 110,
              "position": 9.25,
              "duration": 0.21458333333333332
            },
            {
              "pitch": 48,
              "velocity": 71,
              "position": 9.48125,
              "duration": 0.19791666666666666
            },
            {
              "pitch": 43,
              "velocity": 62,
              "position": 9.752083333333333,
              "duration": 0.19791666666666666
            },
            {
              "pitch": 36,
              "velocity": 69,
              "position": 9.991666666666667,
              "duration": 0.3
            },
            {
              "pitch": 36,
              "velocity": 68,
              "position": 10.489583333333334,
              "duration": 0.6125
            },
            {
              "pitch": 36,
              "velocity": 110,
              "position": 11.260416666666666,
              "duration": 0.21666666666666667
            },
            {
              "pitch": 43,
              "velocity": 70,
              "position": 11.504166666666666,
              "duration": 0.2375
            },
            {
              "pitch": 48,
              "velocity": 64,
              "position": 11.783333333333333,
              "duration": 0.19791666666666666
            },
            {
              "pitch": 36,
              "velocity": 68,
              "position": 12,
              "duration": 0.29791666666666666
            },
            {
              "pitch": 36,
              "velocity": 74,
              "position": 12.48125,
              "duration": 0.6125
            },
            {
              "pitch": 36,
              "velocity": 110,
              "position": 13.285416666666666,
              "duration": 0.17916666666666667
            },
            {
              "pitch": 48,
              "velocity": 66,
              "position": 13.479166666666666,
              "duration": 0.19583333333333333
            },
            {
              "pitch": 43,
              "velocity": 61,
              "position": 13.78125,
              "duration": 0.19583333333333333
            },
            {
              "pitch": 36,
              "velocity": 67,
              "position": 14,
              "duration": 0.29791666666666666
            },
            {
              "pitch": 36,
              "velocity": 67,
              "position": 14.510416666666666,
              "duration": 0.50625
            },
            {
              "pitch": 36,
              "velocity": 110,
              "position": 15.03125,
              "duration": 0.23541666666666666
            },
            {
              "pitch": 36,
              "velocity": 69,
              "position": 15.285416666666666,
              "duration": 0.6708333333333333
            }
          ]
        },
        "11": {
          "ctab": {
            "srcChannel": 11,
            "name": "Strat",
            "accType": "CHORD1",
            "editable": false,
            "mutedNotes": [],
            "mutedChords": [],
            "autoStart": false,
            "sourceChordNote": 0,
            "sourceChordType": "Maj7",
            "ctb2Low": null,
            "ctb2Main": {
              "ntr": "ROOT_TRANSPOSITION",
              "ntt": "MELODY",
              "bassOn": false,
              "chordRootUpperLimit": 7,
              "noteLowLimit": 0,
              "noteHighLimit": 127,
              "rtr": "PITCH_SHIFT"
            },
            "ctb2High": null
          },
          "notes": [
            {
              "pitch": 55,
              "velocity": 53,
              "position": 0.5,
              "duration": 0.23541666666666666
            },
            {
              "pitch": 59,
              "velocity": 53,
              "position": 0.5,
              "duration": 0.23541666666666666
            },
            {
              "pitch": 60,
              "velocity": 39,
              "position": 0.5,
              "duration": 0.2375
            },
            {
              "pitch": 64,
              "velocity": 47,
              "position": 0.5104166666666666,
              "duration": 0.23541666666666666
            },
            {
              "pitch": 64,
              "velocity": 22,
              "position": 1.0104166666666667,
              "duration": 0.25625
            },
            {
              "pitch": 60,
              "velocity": 26,
              "position": 1,
              "duration": 0.26875
            },
            {
              "pitch": 55,
              "velocity": 38,
              "position": 1,
              "duration": 0.27708333333333335
            },
            {
              "pitch": 59,
              "velocity": 38,
              "position": 1,
              "duration": 0.27708333333333335
            },
            {
              "pitch": 64,
              "velocity": 31,
              "position": 1.28125,
              "duration": 0.23541666666666666
            },
            {
              "pitch": 60,
              "velocity": 42,
              "position": 1.28125,
              "duration": 0.2375
            },
            {
              "pitch": 55,
              "velocity": 39,
              "position": 1.2916666666666667,
              "duration": 0.23541666666666666
            },
            {
              "pitch": 59,
              "velocity": 39,
              "position": 1.2916666666666667,
              "duration": 0.23541666666666666
            },
            {
              "pitch": 60,
              "velocity": 47,
              "position": 2,
              "duration": 0.25833333333333336
            },
            {
              "pitch": 55,
              "velocity": 52,
              "position": 2,
              "duration": 0.26666666666666666
            },
            {
              "pitch": 59,
              "velocity": 52,
              "position": 2,
              "duration": 0.26666666666666666
            },
            {
              "pitch": 55,
              "velocity": 19,
              "position": 2.28125,
              "duration": 0.20416666666666666
            },
            {
              "pitch": 59,
              "velocity": 19,
              "position": 2.28125,
              "duration": 0.20416666666666666
            },
            {
              "pitch": 60,
              "velocity": 16,
              "position": 2.2708333333333335,
              "duration": 0.21666666666666667
            },
            {
              "pitch": 64,
              "velocity": 40,
              "position": 2.0104166666666665,
              "duration": 0.48541666666666666
            },
            {
              "pitch": 64,
              "velocity": 25,
              "position": 2.5104166666666665,
              "duration": 0.25625
            },
            {
              "pitch": 60,
              "velocity": 41,
              "position": 2.5,
              "duration": 0.26875
            },
            {
              "pitch": 55,
              "velocity": 37,
              "position": 2.5,
              "duration": 0.27708333333333335
            },
            {
              "pitch": 59,
              "velocity": 37,
              "position": 2.5,
              "duration": 0.27708333333333335
            },
            {
              "pitch": 60,
              "velocity": 42,
              "position": 2.78125,
              "duration": 0.20416666666666666
            },
            {
              "pitch": 64,
              "velocity": 38,
              "position": 2.78125,
              "duration": 0.20416666666666666
            },
            {
              "pitch": 55,
              "velocity": 47,
              "position": 2.7916666666666665,
              "duration": 0.20416666666666666
            },
            {
              "pitch": 59,
              "velocity": 47,
              "position": 2.7916666666666665,
              "duration": 0.20416666666666666
            },
            {
              "pitch": 64,
              "velocity": 36,
              "position": 3.5104166666666665,
              "duration": 0.25625
            },
            {
              "pitch": 60,
              "velocity": 35,
              "position": 3.5,
              "duration": 0.26875
            },
            {
              "pitch": 55,
              "velocity": 41,
              "position": 3.5,
              "duration": 0.48541666666666666
            },
            {
              "pitch": 59,
              "velocity": 41,
              "position": 3.5,
              "duration": 0.48541666666666666
            },
            {
              "pitch": 64,
              "velocity": 27,
              "position": 3.78125,
              "duration": 0.23541666666666666
            },
            {
              "pitch": 60,
              "velocity": 36,
              "position": 3.78125,
              "duration": 0.2375
            },
            {
              "pitch": 55,
              "velocity": 36,
              "position": 4.5,
              "duration": 0.23541666666666666
            },
            {
              "pitch": 59,
              "velocity": 36,
              "position": 4.5,
              "duration": 0.23541666666666666
            },
            {
              "pitch": 60,
              "velocity": 39,
              "position": 4.5,
              "duration": 0.2375
            },
            {
              "pitch": 64,
              "velocity": 36,
              "position": 4.510416666666667,
              "duration": 0.23541666666666666
            },
            {
              "pitch": 64,
              "velocity": 29,
              "position": 5.010416666666667,
              "duration": 0.25625
            },
            {
              "pitch": 60,
              "velocity": 27,
              "position": 5,
              "duration": 0.26875
            },
            {
              "pitch": 55,
              "velocity": 25,
              "position": 5,
              "duration": 0.27708333333333335
            },
            {
              "pitch": 59,
              "velocity": 25,
              "position": 5,
              "duration": 0.27708333333333335
            },
            {
              "pitch": 64,
              "velocity": 42,
              "position": 5.28125,
              "duration": 0.23541666666666666
            },
            {
              "pitch": 60,
              "velocity": 31,
              "position": 5.28125,
              "duration": 0.2375
            },
            {
              "pitch": 55,
              "velocity": 44,
              "position": 5.291666666666667,
              "duration": 0.23541666666666666
            },
            {
              "pitch": 59,
              "velocity": 44,
              "position": 5.291666666666667,
              "duration": 0.23541666666666666
            },
            {
              "pitch": 60,
              "velocity": 35,
              "position": 6,
              "duration": 0.25833333333333336
            },
            {
              "pitch": 55,
              "velocity": 40,
              "position": 6,
              "duration": 0.26666666666666666
            },
            {
              "pitch": 59,
              "velocity": 40,
              "position": 6,
              "duration": 0.26666666666666666
            },
            {
              "pitch": 55,
              "velocity": 28,
              "position": 6.28125,
              "duration": 0.20416666666666666
            },
            {
              "pitch": 59,
              "velocity": 28,
              "position": 6.28125,
              "duration": 0.20416666666666666
            },
            {
              "pitch": 60,
              "velocity": 17,
              "position": 6.270833333333333,
              "duration": 0.21666666666666667
            },
            {
              "pitch": 64,
              "velocity": 49,
              "position": 6.010416666666667,
              "duration": 0.48541666666666666
            },
            {
              "pitch": 64,
              "velocity": 28,
              "position": 6.510416666666667,
              "duration": 0.25625
            },
            {
              "pitch": 60,
              "velocity": 34,
              "position": 6.5,
              "duration": 0.26875
            },
            {
              "pitch": 55,
              "velocity": 41,
              "position": 6.5,
              "duration": 0.27708333333333335
            },
            {
              "pitch": 59,
              "velocity": 41,
              "position": 6.5,
              "duration": 0.27708333333333335
            },
            {
              "pitch": 60,
              "velocity": 41,
              "position": 6.78125,
              "duration": 0.20416666666666666
            },
            {
              "pitch": 64,
              "velocity": 32,
              "position": 6.78125,
              "duration": 0.20416666666666666
            },
            {
              "pitch": 55,
              "velocity": 52,
              "position": 6.791666666666667,
              "duration": 0.20416666666666666
            },
            {
              "pitch": 59,
              "velocity": 52,
              "position": 6.791666666666667,
              "duration": 0.20416666666666666
            },
            {
              "pitch": 64,
              "velocity": 48,
              "position": 7.510416666666667,
              "duration": 0.25625
            },
            {
              "pitch": 60,
              "velocity": 47,
              "position": 7.5,
              "duration": 0.26875
            },
            {
              "pitch": 55,
              "velocity": 46,
              "position": 7.5,
              "duration": 0.48541666666666666
            },
            {
              "pitch": 59,
              "velocity": 46,
              "position": 7.5,
              "duration": 0.48541666666666666
            },
            {
              "pitch": 64,
              "velocity": 29,
              "position": 7.78125,
              "duration": 0.23541666666666666
            },
            {
              "pitch": 60,
              "velocity": 38,
              "position": 7.78125,
              "duration": 0.2375
            },
            {
              "pitch": 55,
              "velocity": 40,
              "position": 8.5,
              "duration": 0.23541666666666666
            },
            {
              "pitch": 59,
              "velocity": 40,
              "position": 8.5,
              "duration": 0.23541666666666666
            },
            {
              "pitch": 60,
              "velocity": 48,
              "position": 8.5,
              "duration": 0.2375
            },
            {
              "pitch": 64,
              "velocity": 39,
              "position": 8.510416666666666,
              "duration": 0.23541666666666666
            },
            {
              "pitch": 64,
              "velocity": 31,
              "position": 9.010416666666666,
              "duration": 0.25625
            },
            {
              "pitch": 60,
              "velocity": 24,
              "position": 9,
              "duration": 0.26875
            },
            {
              "pitch": 55,
              "velocity": 22,
              "position": 9,
              "duration": 0.27708333333333335
            },
            {
              "pitch": 59,
              "velocity": 22,
              "position": 9,
              "duration": 0.27708333333333335
            },
            {
              "pitch": 64,
              "velocity": 37,
              "position": 9.28125,
              "duration": 0.23541666666666666
            },
            {
              "pitch": 60,
              "velocity": 40,
              "position": 9.28125,
              "duration": 0.2375
            },
            {
              "pitch": 55,
              "velocity": 43,
              "position": 9.291666666666666,
              "duration": 0.23541666666666666
            },
            {
              "pitch": 59,
              "velocity": 43,
              "position": 9.291666666666666,
              "duration": 0.23541666666666666
            },
            {
              "pitch": 60,
              "velocity": 44,
              "position": 10,
              "duration": 0.25833333333333336
            },
            {
              "pitch": 55,
              "velocity": 46,
              "position": 10,
              "duration": 0.26666666666666666
            },
            {
              "pitch": 59,
              "velocity": 46,
              "position": 10,
              "duration": 0.26666666666666666
            },
            {
              "pitch": 55,
              "velocity": 27,
              "position": 10.28125,
              "duration": 0.20416666666666666
            },
            {
              "pitch": 59,
              "velocity": 27,
              "position": 10.28125,
              "duration": 0.20416666666666666
            },
            {
              "pitch": 60,
              "velocity": 17,
              "position": 10.270833333333334,
              "duration": 0.21666666666666667
            },
            {
              "pitch": 64,
              "velocity": 32,
              "position": 10.010416666666666,
              "duration": 0.48541666666666666
            },
            {
              "pitch": 64,
              "velocity": 27,
              "position": 10.510416666666666,
              "duration": 0.25625
            },
            {
              "pitch": 60,
              "velocity": 32,
              "position": 10.5,
              "duration": 0.26875
            },
            {
              "pitch": 55,
              "velocity": 34,
              "position": 10.5,
              "duration": 0.27708333333333335
            },
            {
              "pitch": 59,
              "velocity": 34,
              "position": 10.5,
              "duration": 0.27708333333333335
            },
            {
              "pitch": 60,
              "velocity": 44,
              "position": 10.78125,
              "duration": 0.20416666666666666
            },
            {
              "pitch": 64,
              "velocity": 31,
              "position": 10.78125,
              "duration": 0.20416666666666666
            },
            {
              "pitch": 55,
              "velocity": 48,
              "position": 10.791666666666666,
              "duration": 0.20416666666666666
            },
            {
              "pitch": 59,
              "velocity": 48,
              "position": 10.791666666666666,
              "duration": 0.20416666666666666
            },
            {
              "pitch": 64,
              "velocity": 31,
              "position": 11.510416666666666,
              "duration": 0.25625
            },
            {
              "pitch": 60,
              "velocity": 38,
              "position": 11.5,
              "duration": 0.26875
            },
            {
              "pitch": 55,
              "velocity": 36,
              "position": 11.5,
              "duration": 0.48541666666666666
            },
            {
              "pitch": 59,
              "velocity": 36,
              "position": 11.5,
              "duration": 0.48541666666666666
            },
            {
              "pitch": 64,
              "velocity": 24,
              "position": 11.78125,
              "duration": 0.23541666666666666
            },
            {
              "pitch": 60,
              "velocity": 36,
              "position": 11.78125,
              "duration": 0.2375
            },
            {
              "pitch": 55,
              "velocity": 52,
              "position": 12.5,
              "duration": 0.23541666666666666
            },
            {
              "pitch": 59,
              "velocity": 52,
              "position": 12.5,
              "duration": 0.23541666666666666
            },
            {
              "pitch": 60,
              "velocity": 43,
              "position": 12.5,
              "duration": 0.2375
            },
            {
              "pitch": 64,
              "velocity": 37,
              "position": 12.510416666666666,
              "duration": 0.23541666666666666
            },
            {
              "pitch": 64,
              "velocity": 19,
              "position": 13.010416666666666,
              "duration": 0.25625
            },
            {
              "pitch": 60,
              "velocity": 28,
              "position": 13,
              "duration": 0.26875
            },
            {
              "pitch": 55,
              "velocity": 31,
              "position": 13,
              "duration": 0.27708333333333335
            },
            {
              "pitch": 59,
              "velocity": 31,
              "position": 13,
              "duration": 0.27708333333333335
            },
            {
              "pitch": 64,
              "velocity": 33,
              "position": 13.28125,
              "duration": 0.23541666666666666
            },
            {
              "pitch": 60,
              "velocity": 33,
              "position": 13.28125,
              "duration": 0.2375
            },
            {
              "pitch": 55,
              "velocity": 46,
              "position": 13.291666666666666,
              "duration": 0.23541666666666666
            },
            {
              "pitch": 59,
              "velocity": 46,
              "position": 13.291666666666666,
              "duration": 0.23541666666666666
            },
            {
              "pitch": 60,
              "velocity": 40,
              "position": 14,
              "duration": 0.25833333333333336
            },
            {
              "pitch": 55,
              "velocity": 51,
              "position": 14,
              "duration": 0.26666666666666666
            },
            {
              "pitch": 59,
              "velocity": 51,
              "position": 14,
              "duration": 0.26666666666666666
            },
            {
              "pitch": 55,
              "velocity": 20,
              "position": 14.28125,
              "duration": 0.20416666666666666
            },
            {
              "pitch": 59,
              "velocity": 20,
              "position": 14.28125,
              "duration": 0.20416666666666666
            },
            {
              "pitch": 60,
              "velocity": 24,
              "position": 14.270833333333334,
              "duration": 0.21666666666666667
            },
            {
              "pitch": 64,
              "velocity": 44,
              "position": 14.010416666666666,
              "duration": 0.48541666666666666
            },
            {
              "pitch": 64,
              "velocity": 36,
              "position": 14.510416666666666,
              "duration": 0.25625
            },
            {
              "pitch": 60,
              "velocity": 41,
              "position": 14.5,
              "duration": 0.26875
            },
            {
              "pitch": 55,
              "velocity": 36,
              "position": 14.5,
              "duration": 0.27708333333333335
            },
            {
              "pitch": 59,
              "velocity": 36,
              "position": 14.5,
              "duration": 0.27708333333333335
            },
            {
              "pitch": 60,
              "velocity": 35,
              "position": 14.78125,
              "duration": 0.20416666666666666
            },
            {
              "pitch": 64,
              "velocity": 32,
              "position": 14.78125,
              "duration": 0.20416666666666666
            },
            {
              "pitch": 55,
              "velocity": 43,
              "position": 14.791666666666666,
              "duration": 0.20416666666666666
            },
            {
              "pitch": 59,
              "velocity": 43,
              "position": 14.791666666666666,
              "duration": 0.20416666666666666
            },
            {
              "pitch": 64,
              "velocity": 43,
              "position": 15.510416666666666,
              "duration": 0.25625
            },
            {
              "pitch": 60,
              "velocity": 41,
              "position": 15.5,
              "duration": 0.26875
            },
            {
              "pitch": 55,
              "velocity": 52,
              "position": 15.5,
              "duration": 0.48541666666666666
            },
            {
              "pitch": 59,
              "velocity": 52,
              "position": 15.5,
              "duration": 0.48541666666666666
            },
            {
              "pitch": 60,
              "velocity": 38,
              "position": 15.78125,
              "duration": 0.20625
            },
            {
              "pitch": 64,
              "velocity": 39,
              "position": 15.78125,
              "duration": 0.20625
            }
          ]
        },
        "12": {
          "ctab": {
            "srcChannel": 12,
            "name": "Piano",
            "accType": "CHORD2",
            "editable": false,
            "mutedNotes": [],
            "mutedChords": [],
            "autoStart": false,
            "sourceChordNote": 0,
            "sourceChordType": "Maj7",
            "ctb2Low": null,
            "ctb2Main": {
              "ntr": "ROOT_FIXED",
              "ntt": "CHORD",
              "bassOn": false,
              "chordRootUpperLimit": 7,
              "noteLowLimit": 0,
              "noteHighLimit": 127,
              "rtr": "PITCH_SHIFT"
            },
            "ctb2High": null
          },
          "notes": [
            {
              "pitch": 24,
              "velocity": 104,
              "position": 0,
              "duration": 0.1625
            },
            {
              "pitch": 36,
              "velocity": 104,
              "position": 0,
              "duration": 0.1625
            },
            {
              "pitch": 59,
              "velocity": 106,
              "position": 0,
              "duration": 0.6
            },
            {
              "pitch": 55,
              "velocity": 108,
              "position": 0,
              "duration": 0.6104166666666667
            },
            {
              "pitch": 64,
              "velocity": 115,
              "position": 0.010416666666666666,
              "duration": 0.6
            },
            {
              "pitch": 24,
              "velocity": 104,
              "position": 0.5,
              "duration": 0.6104166666666667
            },
            {
              "pitch": 36,
              "velocity": 104,
              "position": 0.5,
              "duration": 0.6104166666666667
            },
            {
              "pitch": 59,
              "velocity": 106,
              "position": 1,
              "duration": 0.6
            },
            {
              "pitch": 55,
              "velocity": 108,
              "position": 0.9916666666666667,
              "duration": 0.6125
            },
            {
              "pitch": 64,
              "velocity": 115,
              "position": 1.0041666666666667,
              "duration": 0.6
            },
            {
              "pitch": 59,
              "velocity": 108,
              "position": 1.7625,
              "duration": 0.17291666666666666
            },
            {
              "pitch": 64,
              "velocity": 117,
              "position": 1.7708333333333333,
              "duration": 0.19583333333333333
            },
            {
              "pitch": 55,
              "velocity": 106,
              "position": 1.7625,
              "duration": 0.23958333333333334
            },
            {
              "pitch": 24,
              "velocity": 104,
              "position": 2,
              "duration": 0.21458333333333332
            },
            {
              "pitch": 36,
              "velocity": 104,
              "position": 2,
              "duration": 0.21458333333333332
            },
            {
              "pitch": 55,
              "velocity": 93,
              "position": 2.2645833333333334,
              "duration": 0.12916666666666668
            },
            {
              "pitch": 64,
              "velocity": 91,
              "position": 2.275,
              "duration": 0.12083333333333333
            },
            {
              "pitch": 59,
              "velocity": 89,
              "position": 2.2729166666666667,
              "duration": 0.14166666666666666
            },
            {
              "pitch": 24,
              "velocity": 104,
              "position": 2.5,
              "duration": 0.6104166666666667
            },
            {
              "pitch": 36,
              "velocity": 104,
              "position": 2.5,
              "duration": 0.6104166666666667
            },
            {
              "pitch": 55,
              "velocity": 112,
              "position": 2.9895833333333335,
              "duration": 0.8708333333333333
            },
            {
              "pitch": 64,
              "velocity": 117,
              "position": 2.99375,
              "duration": 0.9104166666666667
            },
            {
              "pitch": 59,
              "velocity": 101,
              "position": 3.004166666666667,
              "duration": 0.9416666666666667
            },
            {
              "pitch": 24,
              "velocity": 104,
              "position": 4,
              "duration": 0.1625
            },
            {
              "pitch": 36,
              "velocity": 104,
              "position": 4,
              "duration": 0.1625
            },
            {
              "pitch": 64,
              "velocity": 112,
              "position": 4,
              "duration": 0.59375
            },
            {
              "pitch": 59,
              "velocity": 117,
              "position": 4,
              "duration": 0.6208333333333333
            },
            {
              "pitch": 55,
              "velocity": 118,
              "position": 4,
              "duration": 0.6229166666666667
            },
            {
              "pitch": 24,
              "velocity": 104,
              "position": 4.5,
              "duration": 0.6104166666666667
            },
            {
              "pitch": 36,
              "velocity": 104,
              "position": 4.5,
              "duration": 0.6104166666666667
            },
            {
              "pitch": 64,
              "velocity": 112,
              "position": 4.991666666666666,
              "duration": 0.59375
            },
            {
              "pitch": 55,
              "velocity": 118,
              "position": 5,
              "duration": 0.6208333333333333
            },
            {
              "pitch": 59,
              "velocity": 117,
              "position": 5,
              "duration": 0.6208333333333333
            },
            {
              "pitch": 64,
              "velocity": 118,
              "position": 5.764583333333333,
              "duration": 0.17083333333333334
            },
            {
              "pitch": 55,
              "velocity": 108,
              "position": 5.772916666666666,
              "duration": 0.17708333333333334
            },
            {
              "pitch": 59,
              "velocity": 119,
              "position": 5.772916666666666,
              "duration": 0.19166666666666668
            },
            {
              "pitch": 24,
              "velocity": 104,
              "position": 6,
              "duration": 0.21458333333333332
            },
            {
              "pitch": 36,
              "velocity": 104,
              "position": 6,
              "duration": 0.21458333333333332
            },
            {
              "pitch": 64,
              "velocity": 90,
              "position": 6.270833333333333,
              "duration": 0.13125
            },
            {
              "pitch": 55,
              "velocity": 88,
              "position": 6.264583333333333,
              "duration": 0.14375
            },
            {
              "pitch": 59,
              "velocity": 83,
              "position": 6.272916666666666,
              "duration": 0.14166666666666666
            },
            {
              "pitch": 24,
              "velocity": 104,
              "position": 6.5,
              "duration": 0.36041666666666666
            },
            {
              "pitch": 36,
              "velocity": 104,
              "position": 6.5,
              "duration": 0.36041666666666666
            },
            {
              "pitch": 24,
              "velocity": 102,
              "position": 7.270833333333333,
              "duration": 0.6104166666666667
            },
            {
              "pitch": 36,
              "velocity": 102,
              "position": 7.270833333333333,
              "duration": 0.6104166666666667
            },
            {
              "pitch": 55,
              "velocity": 118,
              "position": 6.991666666666666,
              "duration": 0.90625
            },
            {
              "pitch": 59,
              "velocity": 108,
              "position": 7,
              "duration": 0.8979166666666667
            },
            {
              "pitch": 64,
              "velocity": 118,
              "position": 7,
              "duration": 0.91875
            },
            {
              "pitch": 24,
              "velocity": 104,
              "position": 8,
              "duration": 0.1625
            },
            {
              "pitch": 36,
              "velocity": 104,
              "position": 8,
              "duration": 0.1625
            },
            {
              "pitch": 64,
              "velocity": 115,
              "position": 8,
              "duration": 0.6
            },
            {
              "pitch": 59,
              "velocity": 106,
              "position": 8.004166666666666,
              "duration": 0.6
            },
            {
              "pitch": 55,
              "velocity": 108,
              "position": 8.002083333333333,
              "duration": 0.6145833333333334
            },
            {
              "pitch": 24,
              "velocity": 104,
              "position": 8.5,
              "duration": 0.6104166666666667
            },
            {
              "pitch": 36,
              "velocity": 104,
              "position": 8.5,
              "duration": 0.6104166666666667
            },
            {
              "pitch": 59,
              "velocity": 106,
              "position": 8.989583333333334,
              "duration": 0.6
            },
            {
              "pitch": 64,
              "velocity": 115,
              "position": 8.99375,
              "duration": 0.6
            },
            {
              "pitch": 55,
              "velocity": 108,
              "position": 8.991666666666667,
              "duration": 0.6125
            },
            {
              "pitch": 59,
              "velocity": 108,
              "position": 9.760416666666666,
              "duration": 0.17291666666666666
            },
            {
              "pitch": 64,
              "velocity": 117,
              "position": 9.7625,
              "duration": 0.19583333333333333
            },
            {
              "pitch": 55,
              "velocity": 106,
              "position": 9.772916666666667,
              "duration": 0.23958333333333334
            },
            {
              "pitch": 24,
              "velocity": 104,
              "position": 10,
              "duration": 0.21458333333333332
            },
            {
              "pitch": 36,
              "velocity": 104,
              "position": 10,
              "duration": 0.21458333333333332
            },
            {
              "pitch": 64,
              "velocity": 91,
              "position": 10.260416666666666,
              "duration": 0.12083333333333333
            },
            {
              "pitch": 55,
              "velocity": 93,
              "position": 10.260416666666666,
              "duration": 0.12708333333333333
            },
            {
              "pitch": 59,
              "velocity": 89,
              "position": 10.270833333333334,
              "duration": 0.14166666666666666
            },
            {
              "pitch": 24,
              "velocity": 104,
              "position": 10.5,
              "duration": 0.6104166666666667
            },
            {
              "pitch": 36,
              "velocity": 104,
              "position": 10.5,
              "duration": 0.6104166666666667
            },
            {
              "pitch": 55,
              "velocity": 112,
              "position": 11.004166666666666,
              "duration": 0.8708333333333333
            },
            {
              "pitch": 64,
              "velocity": 117,
              "position": 10.991666666666667,
              "duration": 0.9104166666666667
            },
            {
              "pitch": 59,
              "velocity": 101,
              "position": 11.004166666666666,
              "duration": 0.9416666666666667
            },
            {
              "pitch": 24,
              "velocity": 104,
              "position": 12,
              "duration": 0.1625
            },
            {
              "pitch": 36,
              "velocity": 104,
              "position": 12,
              "duration": 0.1625
            },
            {
              "pitch": 64,
              "velocity": 112,
              "position": 12,
              "duration": 0.5895833333333333
            },
            {
              "pitch": 55,
              "velocity": 118,
              "position": 12.004166666666666,
              "duration": 0.6229166666666667
            },
            {
              "pitch": 59,
              "velocity": 117,
              "position": 12.010416666666666,
              "duration": 0.6208333333333333
            },
            {
              "pitch": 24,
              "velocity": 104,
              "position": 12.5,
              "duration": 0.6104166666666667
            },
            {
              "pitch": 36,
              "velocity": 104,
              "position": 12.5,
              "duration": 0.6104166666666667
            },
            {
              "pitch": 64,
              "velocity": 112,
              "position": 13,
              "duration": 0.5895833333333333
            },
            {
              "pitch": 59,
              "velocity": 117,
              "position": 13,
              "duration": 0.6208333333333333
            },
            {
              "pitch": 55,
              "velocity": 118,
              "position": 13,
              "duration": 0.6229166666666667
            },
            {
              "pitch": 64,
              "velocity": 118,
              "position": 13.770833333333334,
              "duration": 0.16666666666666666
            },
            {
              "pitch": 59,
              "velocity": 108,
              "position": 13.770833333333334,
              "duration": 0.17291666666666666
            },
            {
              "pitch": 55,
              "velocity": 119,
              "position": 13.760416666666666,
              "duration": 0.18958333333333333
            },
            {
              "pitch": 24,
              "velocity": 104,
              "position": 14,
              "duration": 0.21458333333333332
            },
            {
              "pitch": 36,
              "velocity": 104,
              "position": 14,
              "duration": 0.21458333333333332
            },
            {
              "pitch": 55,
              "velocity": 83,
              "position": 14.2625,
              "duration": 0.13958333333333334
            },
            {
              "pitch": 64,
              "velocity": 90,
              "position": 14.275,
              "duration": 0.13125
            },
            {
              "pitch": 59,
              "velocity": 88,
              "position": 14.264583333333333,
              "duration": 0.14375
            },
            {
              "pitch": 24,
              "velocity": 104,
              "position": 14.5,
              "duration": 0.36041666666666666
            },
            {
              "pitch": 36,
              "velocity": 104,
              "position": 14.5,
              "duration": 0.36041666666666666
            },
            {
              "pitch": 24,
              "velocity": 102,
              "position": 15.270833333333334,
              "duration": 0.6104166666666667
            },
            {
              "pitch": 36,
              "velocity": 102,
              "position": 15.270833333333334,
              "duration": 0.6104166666666667
            },
            {
              "pitch": 55,
              "velocity": 108,
              "position": 15,
              "duration": 0.8958333333333334
            },
            {
              "pitch": 59,
              "velocity": 118,
              "position": 15.002083333333333,
              "duration": 0.90625
            },
            {
              "pitch": 64,
              "velocity": 118,
              "position": 15.004166666666666,
              "duration": 0.91875
            }
          ]
        },
        "13": {
          "ctab": {
            "srcChannel": 13,
            "name": "Organ",
            "accType": "PAD",
            "editable": false,
            "mutedNotes": [],
            "mutedChords": [],
            "autoStart": false,
            "sourceChordNote": 0,
            "sourceChordType": "Maj7",
            "ctb2Low": null,
            "ctb2Main": {
              "ntr": "ROOT_FIXED",
              "ntt": "CHORD",
              "bassOn": false,
              "chordRootUpperLimit": 7,
              "noteLowLimit": 0,
              "noteHighLimit": 127,
              "rtr": "PITCH_SHIFT"
            },
            "ctb2High": null
          },
          "notes": [
            {
              "pitch": 59,
              "velocity": 48,
              "position": 0,
              "duration": 15.985416666666667
            },
            {
              "pitch": 64,
              "velocity": 48,
              "position": 0,
              "duration": 15.985416666666667
            },
            {
              "pitch": 67,
              "velocity": 48,
              "position": 0,
              "duration": 15.985416666666667
            }
          ]
        },
        "14": {
          "ctab": {
            "srcChannel": 14,
            "name": "Tele",
            "accType": "PHRASE1",
            "editable": false,
            "mutedNotes": [],
            "mutedChords": [],
            "autoStart": false,
            "sourceChordNote": 0,
            "sourceChordType": "Maj7",
            "ctb2Low": null,
            "ctb2Main": {
              "ntr": "ROOT_TRANSPOSITION",
              "ntt": "MELODY",
              "bassOn": false,
              "chordRootUpperLimit": 7,
              "noteLowLimit": 0,
              "noteHighLimit": 127,
              "rtr": "PITCH_SHIFT"
            },
            "ctb2High": null
          },
          "notes": [
            {
              "pitch": 55,
              "velocity": 45,
              "position": 0.5,
              "duration": 0.23541666666666666
            },
            {
              "pitch": 59,
              "velocity": 45,
              "position": 0.5,
              "duration": 0.23541666666666666
            },
            {
              "pitch": 60,
              "velocity": 59,
              "position": 0.5,
              "duration": 0.2375
            },
            {
              "pitch": 64,
              "velocity": 60,
              "position": 0.5104166666666666,
              "duration": 0.23541666666666666
            },
            {
              "pitch": 67,
              "velocity": 56,
              "position": 0.5104166666666666,
              "duration": 0.2375
            },
            {
              "pitch": 71,
              "velocity": 56,
              "position": 0.5104166666666666,
              "duration": 0.2375
            },
            {
              "pitch": 67,
              "velocity": 56,
              "position": 1.2729166666666667,
              "duration": 0.2375
            },
            {
              "pitch": 71,
              "velocity": 56,
              "position": 1.2729166666666667,
              "duration": 0.2375
            },
            {
              "pitch": 64,
              "velocity": 51,
              "position": 1.28125,
              "duration": 0.23541666666666666
            },
            {
              "pitch": 60,
              "velocity": 60,
              "position": 1.2854166666666667,
              "duration": 0.2375
            },
            {
              "pitch": 55,
              "velocity": 39,
              "position": 1.2916666666666667,
              "duration": 0.2375
            },
            {
              "pitch": 59,
              "velocity": 39,
              "position": 1.2916666666666667,
              "duration": 0.2375
            },
            {
              "pitch": 55,
              "velocity": 45,
              "position": 2,
              "duration": 0.23541666666666666
            },
            {
              "pitch": 59,
              "velocity": 45,
              "position": 2,
              "duration": 0.23541666666666666
            },
            {
              "pitch": 60,
              "velocity": 60,
              "position": 2,
              "duration": 0.2375
            },
            {
              "pitch": 64,
              "velocity": 60,
              "position": 2.0104166666666665,
              "duration": 0.23541666666666666
            },
            {
              "pitch": 67,
              "velocity": 52,
              "position": 2.0104166666666665,
              "duration": 0.2375
            },
            {
              "pitch": 71,
              "velocity": 52,
              "position": 2.0104166666666665,
              "duration": 0.2375
            },
            {
              "pitch": 67,
              "velocity": 52,
              "position": 2.7729166666666667,
              "duration": 0.2375
            },
            {
              "pitch": 71,
              "velocity": 52,
              "position": 2.7729166666666667,
              "duration": 0.2375
            },
            {
              "pitch": 64,
              "velocity": 58,
              "position": 2.78125,
              "duration": 0.23541666666666666
            },
            {
              "pitch": 60,
              "velocity": 60,
              "position": 2.785416666666667,
              "duration": 0.2375
            },
            {
              "pitch": 55,
              "velocity": 45,
              "position": 2.7916666666666665,
              "duration": 0.2375
            },
            {
              "pitch": 59,
              "velocity": 45,
              "position": 2.7916666666666665,
              "duration": 0.2375
            },
            {
              "pitch": 55,
              "velocity": 36,
              "position": 3.285416666666667,
              "duration": 0.2
            },
            {
              "pitch": 59,
              "velocity": 36,
              "position": 3.285416666666667,
              "duration": 0.2
            },
            {
              "pitch": 60,
              "velocity": 42,
              "position": 3.28125,
              "duration": 0.20833333333333334
            },
            {
              "pitch": 64,
              "velocity": 40,
              "position": 3.2729166666666667,
              "duration": 0.21875
            },
            {
              "pitch": 67,
              "velocity": 60,
              "position": 3.5104166666666665,
              "duration": 0.24791666666666667
            },
            {
              "pitch": 71,
              "velocity": 60,
              "position": 3.5104166666666665,
              "duration": 0.24791666666666667
            },
            {
              "pitch": 64,
              "velocity": 56,
              "position": 3.5104166666666665,
              "duration": 0.25625
            },
            {
              "pitch": 60,
              "velocity": 55,
              "position": 3.5,
              "duration": 0.26875
            },
            {
              "pitch": 55,
              "velocity": 41,
              "position": 3.5,
              "duration": 0.48541666666666666
            },
            {
              "pitch": 59,
              "velocity": 41,
              "position": 3.5,
              "duration": 0.48541666666666666
            },
            {
              "pitch": 67,
              "velocity": 40,
              "position": 3.7729166666666667,
              "duration": 0.2375
            },
            {
              "pitch": 71,
              "velocity": 40,
              "position": 3.7729166666666667,
              "duration": 0.2375
            },
            {
              "pitch": 64,
              "velocity": 42,
              "position": 3.78125,
              "duration": 0.23541666666666666
            },
            {
              "pitch": 60,
              "velocity": 51,
              "position": 3.785416666666667,
              "duration": 0.2375
            },
            {
              "pitch": 55,
              "velocity": 36,
              "position": 4.5,
              "duration": 0.23541666666666666
            },
            {
              "pitch": 59,
              "velocity": 36,
              "position": 4.5,
              "duration": 0.23541666666666666
            },
            {
              "pitch": 60,
              "velocity": 59,
              "position": 4.5,
              "duration": 0.2375
            },
            {
              "pitch": 64,
              "velocity": 56,
              "position": 4.510416666666667,
              "duration": 0.23541666666666666
            },
            {
              "pitch": 67,
              "velocity": 59,
              "position": 4.510416666666667,
              "duration": 0.2375
            },
            {
              "pitch": 71,
              "velocity": 59,
              "position": 4.510416666666667,
              "duration": 0.2375
            },
            {
              "pitch": 67,
              "velocity": 60,
              "position": 5.272916666666666,
              "duration": 0.2375
            },
            {
              "pitch": 71,
              "velocity": 60,
              "position": 5.272916666666666,
              "duration": 0.2375
            },
            {
              "pitch": 64,
              "velocity": 60,
              "position": 5.28125,
              "duration": 0.23541666666666666
            },
            {
              "pitch": 60,
              "velocity": 51,
              "position": 5.285416666666666,
              "duration": 0.2375
            },
            {
              "pitch": 55,
              "velocity": 44,
              "position": 5.291666666666667,
              "duration": 0.2375
            },
            {
              "pitch": 59,
              "velocity": 44,
              "position": 5.291666666666667,
              "duration": 0.2375
            },
            {
              "pitch": 55,
              "velocity": 40,
              "position": 6,
              "duration": 0.23541666666666666
            },
            {
              "pitch": 59,
              "velocity": 40,
              "position": 6,
              "duration": 0.23541666666666666
            },
            {
              "pitch": 60,
              "velocity": 55,
              "position": 6,
              "duration": 0.2375
            },
            {
              "pitch": 64,
              "velocity": 60,
              "position": 6.010416666666667,
              "duration": 0.23541666666666666
            },
            {
              "pitch": 67,
              "velocity": 57,
              "position": 6.010416666666667,
              "duration": 0.2375
            },
            {
              "pitch": 71,
              "velocity": 57,
              "position": 6.010416666666667,
              "duration": 0.2375
            },
            {
              "pitch": 67,
              "velocity": 60,
              "position": 6.772916666666666,
              "duration": 0.2375
            },
            {
              "pitch": 71,
              "velocity": 60,
              "position": 6.772916666666666,
              "duration": 0.2375
            },
            {
              "pitch": 64,
              "velocity": 52,
              "position": 6.78125,
              "duration": 0.23541666666666666
            },
            {
              "pitch": 60,
              "velocity": 60,
              "position": 6.785416666666666,
              "duration": 0.2375
            },
            {
              "pitch": 55,
              "velocity": 45,
              "position": 6.791666666666667,
              "duration": 0.2375
            },
            {
              "pitch": 59,
              "velocity": 45,
              "position": 6.791666666666667,
              "duration": 0.2375
            },
            {
              "pitch": 55,
              "velocity": 38,
              "position": 7.285416666666666,
              "duration": 0.2
            },
            {
              "pitch": 59,
              "velocity": 38,
              "position": 7.285416666666666,
              "duration": 0.2
            },
            {
              "pitch": 60,
              "velocity": 44,
              "position": 7.28125,
              "duration": 0.20833333333333334
            },
            {
              "pitch": 64,
              "velocity": 38,
              "position": 7.272916666666666,
              "duration": 0.21875
            },
            {
              "pitch": 67,
              "velocity": 60,
              "position": 7.510416666666667,
              "duration": 0.24791666666666667
            },
            {
              "pitch": 71,
              "velocity": 60,
              "position": 7.510416666666667,
              "duration": 0.24791666666666667
            },
            {
              "pitch": 64,
              "velocity": 60,
              "position": 7.510416666666667,
              "duration": 0.25625
            },
            {
              "pitch": 60,
              "velocity": 60,
              "position": 7.5,
              "duration": 0.26875
            },
            {
              "pitch": 55,
              "velocity": 45,
              "position": 7.5,
              "duration": 0.48541666666666666
            },
            {
              "pitch": 59,
              "velocity": 45,
              "position": 7.5,
              "duration": 0.48541666666666666
            },
            {
              "pitch": 67,
              "velocity": 38,
              "position": 7.772916666666666,
              "duration": 0.2375
            },
            {
              "pitch": 71,
              "velocity": 38,
              "position": 7.772916666666666,
              "duration": 0.2375
            },
            {
              "pitch": 64,
              "velocity": 44,
              "position": 7.78125,
              "duration": 0.23541666666666666
            },
            {
              "pitch": 60,
              "velocity": 53,
              "position": 7.785416666666666,
              "duration": 0.2375
            },
            {
              "pitch": 55,
              "velocity": 40,
              "position": 8.5,
              "duration": 0.23541666666666666
            },
            {
              "pitch": 59,
              "velocity": 40,
              "position": 8.5,
              "duration": 0.23541666666666666
            },
            {
              "pitch": 60,
              "velocity": 60,
              "position": 8.5,
              "duration": 0.2375
            },
            {
              "pitch": 64,
              "velocity": 59,
              "position": 8.510416666666666,
              "duration": 0.23541666666666666
            },
            {
              "pitch": 67,
              "velocity": 60,
              "position": 8.510416666666666,
              "duration": 0.2375
            },
            {
              "pitch": 71,
              "velocity": 60,
              "position": 8.510416666666666,
              "duration": 0.2375
            },
            {
              "pitch": 67,
              "velocity": 54,
              "position": 9.272916666666667,
              "duration": 0.2375
            },
            {
              "pitch": 71,
              "velocity": 54,
              "position": 9.272916666666667,
              "duration": 0.2375
            },
            {
              "pitch": 64,
              "velocity": 57,
              "position": 9.28125,
              "duration": 0.23541666666666666
            },
            {
              "pitch": 60,
              "velocity": 60,
              "position": 9.285416666666666,
              "duration": 0.2375
            },
            {
              "pitch": 55,
              "velocity": 43,
              "position": 9.291666666666666,
              "duration": 0.2375
            },
            {
              "pitch": 59,
              "velocity": 43,
              "position": 9.291666666666666,
              "duration": 0.2375
            },
            {
              "pitch": 55,
              "velocity": 45,
              "position": 10,
              "duration": 0.23541666666666666
            },
            {
              "pitch": 59,
              "velocity": 45,
              "position": 10,
              "duration": 0.23541666666666666
            },
            {
              "pitch": 60,
              "velocity": 60,
              "position": 10,
              "duration": 0.2375
            },
            {
              "pitch": 64,
              "velocity": 52,
              "position": 10.010416666666666,
              "duration": 0.23541666666666666
            },
            {
              "pitch": 67,
              "velocity": 60,
              "position": 10.010416666666666,
              "duration": 0.2375
            },
            {
              "pitch": 71,
              "velocity": 60,
              "position": 10.010416666666666,
              "duration": 0.2375
            },
            {
              "pitch": 67,
              "velocity": 51,
              "position": 10.772916666666667,
              "duration": 0.2375
            },
            {
              "pitch": 71,
              "velocity": 51,
              "position": 10.772916666666667,
              "duration": 0.2375
            },
            {
              "pitch": 64,
              "velocity": 51,
              "position": 10.78125,
              "duration": 0.23541666666666666
            },
            {
              "pitch": 60,
              "velocity": 60,
              "position": 10.785416666666666,
              "duration": 0.2375
            },
            {
              "pitch": 55,
              "velocity": 45,
              "position": 10.791666666666666,
              "duration": 0.2375
            },
            {
              "pitch": 59,
              "velocity": 45,
              "position": 10.791666666666666,
              "duration": 0.2375
            },
            {
              "pitch": 55,
              "velocity": 36,
              "position": 11.285416666666666,
              "duration": 0.2
            },
            {
              "pitch": 59,
              "velocity": 36,
              "position": 11.285416666666666,
              "duration": 0.2
            },
            {
              "pitch": 60,
              "velocity": 39,
              "position": 11.28125,
              "duration": 0.20833333333333334
            },
            {
              "pitch": 64,
              "velocity": 46,
              "position": 11.272916666666667,
              "duration": 0.21875
            },
            {
              "pitch": 67,
              "velocity": 53,
              "position": 11.510416666666666,
              "duration": 0.24791666666666667
            },
            {
              "pitch": 71,
              "velocity": 53,
              "position": 11.510416666666666,
              "duration": 0.24791666666666667
            },
            {
              "pitch": 64,
              "velocity": 51,
              "position": 11.510416666666666,
              "duration": 0.25625
            },
            {
              "pitch": 60,
              "velocity": 58,
              "position": 11.5,
              "duration": 0.26875
            },
            {
              "pitch": 55,
              "velocity": 36,
              "position": 11.5,
              "duration": 0.48541666666666666
            },
            {
              "pitch": 59,
              "velocity": 36,
              "position": 11.5,
              "duration": 0.48541666666666666
            },
            {
              "pitch": 67,
              "velocity": 46,
              "position": 11.772916666666667,
              "duration": 0.2375
            },
            {
              "pitch": 71,
              "velocity": 46,
              "position": 11.772916666666667,
              "duration": 0.2375
            },
            {
              "pitch": 64,
              "velocity": 39,
              "position": 11.78125,
              "duration": 0.23541666666666666
            },
            {
              "pitch": 60,
              "velocity": 51,
              "position": 11.785416666666666,
              "duration": 0.2375
            },
            {
              "pitch": 55,
              "velocity": 45,
              "position": 12.5,
              "duration": 0.23541666666666666
            },
            {
              "pitch": 59,
              "velocity": 45,
              "position": 12.5,
              "duration": 0.23541666666666666
            },
            {
              "pitch": 60,
              "velocity": 60,
              "position": 12.5,
              "duration": 0.2375
            },
            {
              "pitch": 64,
              "velocity": 57,
              "position": 12.510416666666666,
              "duration": 0.23541666666666666
            },
            {
              "pitch": 67,
              "velocity": 60,
              "position": 12.510416666666666,
              "duration": 0.2375
            },
            {
              "pitch": 71,
              "velocity": 60,
              "position": 12.510416666666666,
              "duration": 0.2375
            },
            {
              "pitch": 67,
              "velocity": 53,
              "position": 13.272916666666667,
              "duration": 0.2375
            },
            {
              "pitch": 71,
              "velocity": 53,
              "position": 13.272916666666667,
              "duration": 0.2375
            },
            {
              "pitch": 64,
              "velocity": 53,
              "position": 13.28125,
              "duration": 0.23541666666666666
            },
            {
              "pitch": 60,
              "velocity": 53,
              "position": 13.285416666666666,
              "duration": 0.2375
            },
            {
              "pitch": 55,
              "velocity": 45,
              "position": 13.291666666666666,
              "duration": 0.2375
            },
            {
              "pitch": 59,
              "velocity": 45,
              "position": 13.291666666666666,
              "duration": 0.2375
            },
            {
              "pitch": 55,
              "velocity": 45,
              "position": 14,
              "duration": 0.23541666666666666
            },
            {
              "pitch": 59,
              "velocity": 45,
              "position": 14,
              "duration": 0.23541666666666666
            },
            {
              "pitch": 60,
              "velocity": 60,
              "position": 14,
              "duration": 0.2375
            },
            {
              "pitch": 64,
              "velocity": 60,
              "position": 14.010416666666666,
              "duration": 0.23541666666666666
            },
            {
              "pitch": 67,
              "velocity": 59,
              "position": 14.010416666666666,
              "duration": 0.2375
            },
            {
              "pitch": 71,
              "velocity": 59,
              "position": 14.010416666666666,
              "duration": 0.2375
            },
            {
              "pitch": 67,
              "velocity": 51,
              "position": 14.772916666666667,
              "duration": 0.2375
            },
            {
              "pitch": 71,
              "velocity": 51,
              "position": 14.772916666666667,
              "duration": 0.2375
            },
            {
              "pitch": 64,
              "velocity": 52,
              "position": 14.78125,
              "duration": 0.23541666666666666
            },
            {
              "pitch": 60,
              "velocity": 55,
              "position": 14.785416666666666,
              "duration": 0.2375
            },
            {
              "pitch": 55,
              "velocity": 43,
              "position": 14.791666666666666,
              "duration": 0.2375
            },
            {
              "pitch": 59,
              "velocity": 43,
              "position": 14.791666666666666,
              "duration": 0.2375
            },
            {
              "pitch": 55,
              "velocity": 29,
              "position": 15.285416666666666,
              "duration": 0.20208333333333334
            },
            {
              "pitch": 59,
              "velocity": 29,
              "position": 15.285416666666666,
              "duration": 0.20208333333333334
            },
            {
              "pitch": 60,
              "velocity": 45,
              "position": 15.28125,
              "duration": 0.20833333333333334
            },
            {
              "pitch": 64,
              "velocity": 43,
              "position": 15.272916666666667,
              "duration": 0.21875
            },
            {
              "pitch": 67,
              "velocity": 60,
              "position": 15.510416666666666,
              "duration": 0.24791666666666667
            },
            {
              "pitch": 71,
              "velocity": 60,
              "position": 15.510416666666666,
              "duration": 0.24791666666666667
            },
            {
              "pitch": 64,
              "velocity": 60,
              "position": 15.510416666666666,
              "duration": 0.25625
            },
            {
              "pitch": 60,
              "velocity": 60,
              "position": 15.5,
              "duration": 0.26875
            },
            {
              "pitch": 55,
              "velocity": 36,
              "position": 15.5,
              "duration": 0.48541666666666666
            },
            {
              "pitch": 59,
              "velocity": 36,
              "position": 15.5,
              "duration": 0.48541666666666666
            },
            {
              "pitch": 60,
              "velocity": 44,
              "position": 15.785416666666666,
              "duration": 0.20208333333333334
            },
            {
              "pitch": 64,
              "velocity": 45,
              "position": 15.78125,
              "duration": 0.20625
            },
            {
              "pitch": 67,
              "velocity": 43,
              "position": 15.772916666666667,
              "duration": 0.21458333333333332
            },
            {
              "pitch": 71,
              "velocity": 43,
              "position": 15.772916666666667,
              "duration": 0.21458333333333332
            }
          ]
        }
      }
    },
    "Fill_In_AA": {
      "type": "Fill_In_AA",
      "sizeInBeats": 4,
      "channels": {
        "1": {
          "ctab": {
            "srcChannel": 1,
            "name": "Bass B",
            "accType": "BASS",
            "editable": false,
            "mutedNotes": [],
            "mutedChords": [
              "1+2+5",
              "1+5",
              "1+8",
              "7(#9)",
              "7(b13)",
              "7(b9)",
              "7(13)",
              "7#11",
              "7(9)",
              "7b5",
              "7sus4",
              "7th",
              "dim7",
              "dim",
              "min7(11)",
              "min7(9)",
              "m7b5",
              "min7",
              "min6",
              "Maj6(9)",
              "Maj7(9)",
              "Maj(9)",
              "Maj7#11",
              "Maj7",
              "Maj6",
              "Maj"
            ],
            "autoStart": false,
            "sourceChordNote": 0,
            "sourceChordType": "Maj7",
            "ctb2Low": null,
            "ctb2Main": {
              "ntr": "ROOT_TRANSPOSITION",
              "ntt": "MELODY",
              "bassOn": true,
              "chordRootUpperLimit": 3,
              "noteLowLimit": 28,
              "noteHighLimit": 127,
              "rtr": "PITCH_SHIFT_TO_ROOT"
            },
            "ctb2High": null
          },
          "notes": [
            {
              "pitch": 36,
              "velocity": 70,
              "position": 0,
              "duration": 0.48541666666666666
            },
            {
              "pitch": 36,
              "velocity": 110,
              "position": 1.7604166666666667,
              "duration": 0.21041666666666667
            },
            {
              "pitch": 36,
              "velocity": 70,
              "position": 1.9833333333333334,
              "duration": 0.3
            },
            {
              "pitch": 36,
              "velocity": 74,
              "position": 2.5,
              "duration": 0.475
            },
            {
              "pitch": 43,
              "velocity": 70,
              "position": 2.9833333333333334,
              "duration": 0.5020833333333333
            },
            {
              "pitch": 48,
              "velocity": 70,
              "position": 3.5,
              "duration": 0.48541666666666666
            }
          ]
        },
        "4": {
          "ctab": {
            "srcChannel": 4,
            "name": "Organ rt",
            "accType": "PAD",
            "editable": false,
            "mutedNotes": [],
            "mutedChords": [
              "1+2+5",
              "sus4",
              "1+5",
              "1+8",
              "Maj7aug",
              "dim",
              "minMaj7(9)",
              "minMaj7",
              "min6",
              "min",
              "aug",
              "Maj7(9)",
              "Maj7#11",
              "Maj7",
              "Maj6",
              "Maj"
            ],
            "autoStart": false,
            "sourceChordNote": 0,
            "sourceChordType": "Maj7",
            "ctb2Low": null,
            "ctb2Main": {
              "ntr": "ROOT_TRANSPOSITION",
              "ntt": "MELODY",
              "bassOn": false,
              "chordRootUpperLimit": 10,
              "noteLowLimit": 0,
              "noteHighLimit": 127,
              "rtr": "PITCH_SHIFT"
            },
            "ctb2High": null
          },
          "notes": []
        },
        "8": {
          "ctab": {
            "srcChannel": 8,
            "name": "AddDrum",
            "accType": "SUBRHYTHM",
            "editable": false,
            "mutedNotes": [],
            "mutedChords": [],
            "autoStart": true,
            "sourceChordNote": 0,
            "sourceChordType": "Maj7",
            "ctb2Low": null,
            "ctb2Main": {
              "ntr": "ROOT_FIXED",
              "ntt": "BYPASS",
              "bassOn": false,
              "chordRootUpperLimit": 6,
              "noteLowLimit": 0,
              "noteHighLimit": 127,
              "rtr": "PITCH_SHIFT"
            },
            "ctb2High": null
          },
          "notes": [
            {
              "pitch": 42,
              "velocity": 120,
              "position": 0,
              "duration": 0.00625
            },
            {
              "pitch": 42,
              "velocity": 40,
              "position": 0.5,
              "duration": 0.00625
            },
            {
              "pitch": 32,
              "velocity": 106,
              "position": 1,
              "duration": 0.00625
            },
            {
              "pitch": 42,
              "velocity": 120,
              "position": 1,
              "duration": 0.00625
            },
            {
              "pitch": 42,
              "velocity": 40,
              "position": 1.5,
              "duration": 0.00625
            },
            {
              "pitch": 32,
              "velocity": 24,
              "position": 1.7708333333333333,
              "duration": 0.00625
            },
            {
              "pitch": 42,
              "velocity": 120,
              "position": 2,
              "duration": 0.00625
            },
            {
              "pitch": 32,
              "velocity": 24,
              "position": 2.2708333333333335,
              "duration": 0.00625
            },
            {
              "pitch": 42,
              "velocity": 40,
              "position": 2.5,
              "duration": 0.00625
            },
            {
              "pitch": 32,
              "velocity": 106,
              "position": 3,
              "duration": 0.00625
            },
            {
              "pitch": 42,
              "velocity": 120,
              "position": 3,
              "duration": 0.00625
            },
            {
              "pitch": 18,
              "velocity": 81,
              "position": 2.6666666666666665,
              "duration": 0.4875
            },
            {
              "pitch": 17,
              "velocity": 127,
              "position": 3,
              "duration": 0.48541666666666666
            },
            {
              "pitch": 46,
              "velocity": 60,
              "position": 3.5,
              "duration": 0.00625
            },
            {
              "pitch": 18,
              "velocity": 81,
              "position": 3.1666666666666665,
              "duration": 0.4875
            },
            {
              "pitch": 17,
              "velocity": 127,
              "position": 3.5,
              "duration": 0.48541666666666666
            },
            {
              "pitch": 26,
              "velocity": 50,
              "position": 0,
              "duration": 3.9854166666666666
            }
          ]
        },
        "9": {
          "ctab": {
            "srcChannel": 9,
            "name": "MainDrum",
            "accType": "RHYTHM",
            "editable": false,
            "mutedNotes": [],
            "mutedChords": [],
            "autoStart": true,
            "sourceChordNote": 0,
            "sourceChordType": "Maj7",
            "ctb2Low": null,
            "ctb2Main": {
              "ntr": "ROOT_FIXED",
              "ntt": "BYPASS",
              "bassOn": false,
              "chordRootUpperLimit": 6,
              "noteLowLimit": 0,
              "noteHighLimit": 127,
              "rtr": "PITCH_SHIFT"
            },
            "ctb2High": null
          },
          "notes": [
            {
              "pitch": 35,
              "velocity": 100,
              "position": 0,
              "duration": 0.00625
            },
            {
              "pitch": 42,
              "velocity": 99,
              "position": 0,
              "duration": 0.00625
            },
            {
              "pitch": 42,
              "velocity": 34,
              "position": 0.49166666666666664,
              "duration": 0.00625
            },
            {
              "pitch": 38,
              "velocity": 104,
              "position": 1,
              "duration": 0.00625
            },
            {
              "pitch": 42,
              "velocity": 99,
              "position": 1,
              "duration": 0.00625
            },
            {
              "pitch": 42,
              "velocity": 38,
              "position": 1.4916666666666667,
              "duration": 0.00625
            },
            {
              "pitch": 38,
              "velocity": 85,
              "position": 1.7708333333333333,
              "duration": 0.00625
            },
            {
              "pitch": 42,
              "velocity": 92,
              "position": 1.99375,
              "duration": 0.00625
            },
            {
              "pitch": 35,
              "velocity": 100,
              "position": 2,
              "duration": 0.00625
            },
            {
              "pitch": 38,
              "velocity": 41,
              "position": 2.2708333333333335,
              "duration": 0.00625
            },
            {
              "pitch": 35,
              "velocity": 100,
              "position": 2.5,
              "duration": 0.00625
            },
            {
              "pitch": 42,
              "velocity": 43,
              "position": 2.504166666666667,
              "duration": 0.00625
            },
            {
              "pitch": 38,
              "velocity": 15,
              "position": 2.7708333333333335,
              "duration": 0.00625
            },
            {
              "pitch": 38,
              "velocity": 41,
              "position": 2.8958333333333335,
              "duration": 0.00625
            },
            {
              "pitch": 38,
              "velocity": 104,
              "position": 3,
              "duration": 0.00625
            },
            {
              "pitch": 42,
              "velocity": 96,
              "position": 3,
              "duration": 0.00625
            },
            {
              "pitch": 38,
              "velocity": 85,
              "position": 3.2708333333333335,
              "duration": 0.00625
            },
            {
              "pitch": 35,
              "velocity": 80,
              "position": 3.5,
              "duration": 0.00625
            },
            {
              "pitch": 46,
              "velocity": 54,
              "position": 3.5,
              "duration": 0.00625
            },
            {
              "pitch": 49,
              "velocity": 80,
              "position": 3.9895833333333335,
              "duration": 0.00625
            }
          ]
        },
        "10": {
          "ctab": {
            "srcChannel": 10,
            "name": "Bass A",
            "accType": "BASS",
            "editable": false,
            "mutedNotes": [],
            "mutedChords": [
              "sus4",
              "7aug",
              "Maj7aug",
              "minMaj7(9)",
              "minMaj7",
              "min(9)",
              "min",
              "aug"
            ],
            "autoStart": false,
            "sourceChordNote": 0,
            "sourceChordType": "Maj7",
            "ctb2Low": null,
            "ctb2Main": {
              "ntr": "ROOT_TRANSPOSITION",
              "ntt": "MELODY",
              "bassOn": true,
              "chordRootUpperLimit": 3,
              "noteLowLimit": 28,
              "noteHighLimit": 127,
              "rtr": "PITCH_SHIFT_TO_ROOT"
            },
            "ctb2High": null
          },
          "notes": [
            {
              "pitch": 36,
              "velocity": 70,
              "position": 0,
              "duration": 0.48541666666666666
            },
            {
              "pitch": 36,
              "velocity": 110,
              "position": 1.7604166666666667,
              "duration": 0.21041666666666667
            },
            {
              "pitch": 36,
              "velocity": 70,
              "position": 1.9833333333333334,
              "duration": 0.3
            },
            {
              "pitch": 36,
              "velocity": 74,
              "position": 2.5,
              "duration": 0.475
            },
            {
              "pitch": 43,
              "velocity": 70,
              "position": 2.9833333333333334,
              "duration": 0.5020833333333333
            },
            {
              "pitch": 48,
              "velocity": 70,
              "position": 3.5,
              "duration": 0.48541666666666666
            }
          ]
        },
        "11": {
          "ctab": {
            "srcChannel": 11,
            "name": "Strat",
            "accType": "CHORD1",
            "editable": false,
            "mutedNotes": [],
            "mutedChords": [],
            "autoStart": false,
            "sourceChordNote": 0,
            "sourceChordType": "Maj7",
            "ctb2Low": null,
            "ctb2Main": {
              "ntr": "ROOT_TRANSPOSITION",
              "ntt": "MELODY",
              "bassOn": false,
              "chordRootUpperLimit": 7,
              "noteLowLimit": 0,
              "noteHighLimit": 127,
              "rtr": "PITCH_SHIFT"
            },
            "ctb2High": null
          },
          "notes": [
            {
              "pitch": 55,
              "velocity": 40,
              "position": 0.5,
              "duration": 0.20416666666666666
            },
            {
              "pitch": 59,
              "velocity": 40,
              "position": 0.5,
              "duration": 0.20416666666666666
            },
            {
              "pitch": 60,
              "velocity": 36,
              "position": 0.5,
              "duration": 0.20416666666666666
            },
            {
              "pitch": 64,
              "velocity": 41,
              "position": 0.5104166666666666,
              "duration": 0.20416666666666666
            },
            {
              "pitch": 60,
              "velocity": 43,
              "position": 1.28125,
              "duration": 0.20416666666666666
            },
            {
              "pitch": 64,
              "velocity": 40,
              "position": 1.28125,
              "duration": 0.20416666666666666
            },
            {
              "pitch": 55,
              "velocity": 50,
              "position": 1.2916666666666667,
              "duration": 0.20416666666666666
            },
            {
              "pitch": 59,
              "velocity": 50,
              "position": 1.2916666666666667,
              "duration": 0.20416666666666666
            },
            {
              "pitch": 55,
              "velocity": 40,
              "position": 2,
              "duration": 0.20416666666666666
            },
            {
              "pitch": 59,
              "velocity": 40,
              "position": 2,
              "duration": 0.20416666666666666
            },
            {
              "pitch": 60,
              "velocity": 47,
              "position": 2,
              "duration": 0.20416666666666666
            },
            {
              "pitch": 64,
              "velocity": 49,
              "position": 2.0104166666666665,
              "duration": 0.20416666666666666
            },
            {
              "pitch": 55,
              "velocity": 42,
              "position": 2.7916666666666665,
              "duration": 0.19375
            },
            {
              "pitch": 59,
              "velocity": 42,
              "position": 2.7916666666666665,
              "duration": 0.19375
            },
            {
              "pitch": 60,
              "velocity": 49,
              "position": 2.78125,
              "duration": 0.20625
            },
            {
              "pitch": 64,
              "velocity": 41,
              "position": 2.78125,
              "duration": 0.47708333333333336
            },
            {
              "pitch": 60,
              "velocity": 38,
              "position": 3,
              "duration": 0.2625
            },
            {
              "pitch": 55,
              "velocity": 45,
              "position": 3,
              "duration": 0.26875
            },
            {
              "pitch": 59,
              "velocity": 45,
              "position": 3,
              "duration": 0.26875
            },
            {
              "pitch": 55,
              "velocity": 44,
              "position": 3.28125,
              "duration": 0.2
            },
            {
              "pitch": 59,
              "velocity": 44,
              "position": 3.28125,
              "duration": 0.2
            },
            {
              "pitch": 60,
              "velocity": 28,
              "position": 3.28125,
              "duration": 0.20625
            },
            {
              "pitch": 64,
              "velocity": 31,
              "position": 3.2708333333333335,
              "duration": 0.22083333333333333
            },
            {
              "pitch": 64,
              "velocity": 48,
              "position": 3.5104166666666665,
              "duration": 0.24791666666666667
            },
            {
              "pitch": 60,
              "velocity": 38,
              "position": 3.5,
              "duration": 0.2625
            },
            {
              "pitch": 55,
              "velocity": 45,
              "position": 3.5,
              "duration": 0.26875
            },
            {
              "pitch": 59,
              "velocity": 45,
              "position": 3.5,
              "duration": 0.26875
            },
            {
              "pitch": 64,
              "velocity": 31,
              "position": 3.7708333333333335,
              "duration": 0.20625
            },
            {
              "pitch": 55,
              "velocity": 44,
              "position": 3.78125,
              "duration": 0.2
            },
            {
              "pitch": 59,
              "velocity": 44,
              "position": 3.78125,
              "duration": 0.2
            },
            {
              "pitch": 60,
              "velocity": 28,
              "position": 3.78125,
              "duration": 0.20416666666666666
            }
          ]
        },
        "12": {
          "ctab": {
            "srcChannel": 12,
            "name": "Piano",
            "accType": "CHORD2",
            "editable": false,
            "mutedNotes": [],
            "mutedChords": [],
            "autoStart": false,
            "sourceChordNote": 0,
            "sourceChordType": "Maj7",
            "ctb2Low": null,
            "ctb2Main": {
              "ntr": "ROOT_FIXED",
              "ntt": "CHORD",
              "bassOn": false,
              "chordRootUpperLimit": 7,
              "noteLowLimit": 0,
              "noteHighLimit": 127,
              "rtr": "PITCH_SHIFT"
            },
            "ctb2High": null
          },
          "notes": [
            {
              "pitch": 55,
              "velocity": 110,
              "position": 0.0020833333333333333,
              "duration": 0.3125
            },
            {
              "pitch": 64,
              "velocity": 112,
              "position": 0,
              "duration": 0.32916666666666666
            },
            {
              "pitch": 59,
              "velocity": 109,
              "position": 0,
              "duration": 0.34375
            },
            {
              "pitch": 24,
              "velocity": 104,
              "position": 0,
              "duration": 0.43333333333333335
            },
            {
              "pitch": 36,
              "velocity": 104,
              "position": 0,
              "duration": 0.43333333333333335
            },
            {
              "pitch": 59,
              "velocity": 101,
              "position": 0.9895833333333334,
              "duration": 0.2916666666666667
            },
            {
              "pitch": 55,
              "velocity": 104,
              "position": 1,
              "duration": 0.2916666666666667
            },
            {
              "pitch": 64,
              "velocity": 109,
              "position": 1,
              "duration": 0.30833333333333335
            },
            {
              "pitch": 55,
              "velocity": 103,
              "position": 1.99375,
              "duration": 0.26666666666666666
            },
            {
              "pitch": 59,
              "velocity": 112,
              "position": 2.002083333333333,
              "duration": 0.26875
            },
            {
              "pitch": 64,
              "velocity": 108,
              "position": 2.002083333333333,
              "duration": 0.2708333333333333
            },
            {
              "pitch": 24,
              "velocity": 104,
              "position": 2,
              "duration": 0.29791666666666666
            },
            {
              "pitch": 36,
              "velocity": 104,
              "position": 2,
              "duration": 0.29791666666666666
            },
            {
              "pitch": 24,
              "velocity": 104,
              "position": 2.5,
              "duration": 0.29791666666666666
            },
            {
              "pitch": 36,
              "velocity": 104,
              "position": 2.5,
              "duration": 0.29791666666666666
            },
            {
              "pitch": 64,
              "velocity": 102,
              "position": 2.9916666666666667,
              "duration": 0.26666666666666666
            },
            {
              "pitch": 55,
              "velocity": 119,
              "position": 2.99375,
              "duration": 0.2833333333333333
            },
            {
              "pitch": 59,
              "velocity": 113,
              "position": 3.002083333333333,
              "duration": 0.3104166666666667
            },
            {
              "pitch": 24,
              "velocity": 104,
              "position": 3.5,
              "duration": 0.30833333333333335
            },
            {
              "pitch": 36,
              "velocity": 104,
              "position": 3.5,
              "duration": 0.30833333333333335
            }
          ]
        },
        "13": {
          "ctab": {
            "srcChannel": 13,
            "name": "Organ",
            "accType": "PAD",
            "editable": false,
            "mutedNotes": [],
            "mutedChords": [],
            "autoStart": false,
            "sourceChordNote": 0,
            "sourceChordType": "Maj7",
            "ctb2Low": null,
            "ctb2Main": {
              "ntr": "ROOT_FIXED",
              "ntt": "CHORD",
              "bassOn": false,
              "chordRootUpperLimit": 7,
              "noteLowLimit": 0,
              "noteHighLimit": 127,
              "rtr": "PITCH_SHIFT"
            },
            "ctb2High": null
          },
          "notes": []
        },
        "14": {
          "ctab": {
            "srcChannel": 14,
            "name": "Tele",
            "accType": "PHRASE1",
            "editable": false,
            "mutedNotes": [],
            "mutedChords": [],
            "autoStart": false,
            "sourceChordNote": 0,
            "sourceChordType": "Maj7",
            "ctb2Low": null,
            "ctb2Main": {
              "ntr": "ROOT_TRANSPOSITION",
              "ntt": "MELODY",
              "bassOn": false,
              "chordRootUpperLimit": 7,
              "noteLowLimit": 0,
              "noteHighLimit": 127,
              "rtr": "PITCH_SHIFT"
            },
            "ctb2High": null
          },
          "notes": []
        }
      }
    },
    "Fill_In_BB": {
      "type": "Fill_In_BB",
      "sizeInBeats": 4,
      "channels": {
        "1": {
          "ctab": {
            "srcChannel": 1,
            "name": "Bass B",
            "accType": "BASS",
            "editable": false,
            "mutedNotes": [],
            "mutedChords": [
              "1+2+5",
              "1+5",
              "1+8",
              "7(#9)",
              "7(b13)",
              "7(b9)",
              "7(13)",
              "7#11",
              "7(9)",
              "7b5",
              "7sus4",
              "7th",
              "dim7",
              "dim",
              "min7(11)",
              "min7(9)",
              "m7b5",
              "min7",
              "min6",
              "Maj6(9)",
              "Maj7(9)",
              "Maj(9)",
              "Maj7#11",
              "Maj7",
              "Maj6",
              "Maj"
            ],
            "autoStart": false,
            "sourceChordNote": 0,
            "sourceChordType": "Maj7",
            "ctb2Low": null,
            "ctb2Main": {
              "ntr": "ROOT_TRANSPOSITION",
              "ntt": "MELODY",
              "bassOn": true,
              "chordRootUpperLimit": 3,
              "noteLowLimit": 28,
              "noteHighLimit": 127,
              "rtr": "PITCH_SHIFT_TO_ROOT"
            },
            "ctb2High": null
          },
          "notes": [
            {
              "pitch": 36,
              "velocity": 74,
              "position": 0.010416666666666666,
              "duration": 0.48541666666666666
            },
            {
              "pitch": 36,
              "velocity": 110,
              "position": 1.7708333333333333,
              "duration": 0.20416666666666666
            },
            {
              "pitch": 36,
              "velocity": 70,
              "position": 1.9833333333333334,
              "duration": 0.3
            },
            {
              "pitch": 36,
              "velocity": 66,
              "position": 2.4833333333333334,
              "duration": 0.36041666666666666
            },
            {
              "pitch": 36,
              "velocity": 110,
              "position": 3.2708333333333335,
              "duration": 0.20416666666666666
            },
            {
              "pitch": 36,
              "velocity": 70,
              "position": 3.4833333333333334,
              "duration": 0.3
            }
          ]
        },
        "4": {
          "ctab": {
            "srcChannel": 4,
            "name": "Organ rt",
            "accType": "PAD",
            "editable": false,
            "mutedNotes": [],
            "mutedChords": [
              "1+2+5",
              "sus4",
              "1+5",
              "1+8",
              "Maj7aug",
              "dim",
              "minMaj7(9)",
              "minMaj7",
              "min6",
              "min",
              "aug",
              "Maj7(9)",
              "Maj7#11",
              "Maj7",
              "Maj6",
              "Maj"
            ],
            "autoStart": false,
            "sourceChordNote": 0,
            "sourceChordType": "Maj7",
            "ctb2Low": null,
            "ctb2Main": {
              "ntr": "ROOT_TRANSPOSITION",
              "ntt": "MELODY",
              "bassOn": false,
              "chordRootUpperLimit": 10,
              "noteLowLimit": 0,
              "noteHighLimit": 127,
              "rtr": "PITCH_SHIFT"
            },
            "ctb2High": null
          },
          "notes": [
            {
              "pitch": 60,
              "velocity": 50,
              "position": 0.010416666666666666,
              "duration": 2.1104166666666666
            },
            {
              "pitch": 60,
              "velocity": 50,
              "position": 2.4895833333333335,
              "duration": 0.3625
            },
            {
              "pitch": 60,
              "velocity": 50,
              "position": 3.285416666666667,
              "duration": 0.6958333333333333
            }
          ]
        },
        "8": {
          "ctab": {
            "srcChannel": 8,
            "name": "AddDrum",
            "accType": "SUBRHYTHM",
            "editable": false,
            "mutedNotes": [],
            "mutedChords": [],
            "autoStart": true,
            "sourceChordNote": 0,
            "sourceChordType": "Maj7",
            "ctb2Low": null,
            "ctb2Main": {
              "ntr": "ROOT_FIXED",
              "ntt": "BYPASS",
              "bassOn": false,
              "chordRootUpperLimit": 6,
              "noteLowLimit": 0,
              "noteHighLimit": 127,
              "rtr": "PITCH_SHIFT"
            },
            "ctb2High": null
          },
          "notes": [
            {
              "pitch": 42,
              "velocity": 120,
              "position": 0,
              "duration": 0.00625
            },
            {
              "pitch": 42,
              "velocity": 40,
              "position": 0.5,
              "duration": 0.00625
            },
            {
              "pitch": 32,
              "velocity": 106,
              "position": 1,
              "duration": 0.00625
            },
            {
              "pitch": 42,
              "velocity": 120,
              "position": 1,
              "duration": 0.00625
            },
            {
              "pitch": 42,
              "velocity": 40,
              "position": 1.5,
              "duration": 0.00625
            },
            {
              "pitch": 32,
              "velocity": 24,
              "position": 1.7708333333333333,
              "duration": 0.00625
            },
            {
              "pitch": 42,
              "velocity": 120,
              "position": 2,
              "duration": 0.00625
            },
            {
              "pitch": 32,
              "velocity": 24,
              "position": 2.2708333333333335,
              "duration": 0.00625
            },
            {
              "pitch": 42,
              "velocity": 40,
              "position": 2.5,
              "duration": 0.00625
            },
            {
              "pitch": 32,
              "velocity": 106,
              "position": 3,
              "duration": 0.00625
            },
            {
              "pitch": 42,
              "velocity": 120,
              "position": 3,
              "duration": 0.00625
            },
            {
              "pitch": 18,
              "velocity": 81,
              "position": 2.6666666666666665,
              "duration": 0.4875
            },
            {
              "pitch": 17,
              "velocity": 127,
              "position": 3,
              "duration": 0.48541666666666666
            },
            {
              "pitch": 46,
              "velocity": 60,
              "position": 3.5,
              "duration": 0.00625
            },
            {
              "pitch": 18,
              "velocity": 81,
              "position": 3.1666666666666665,
              "duration": 0.4875
            },
            {
              "pitch": 17,
              "velocity": 127,
              "position": 3.5,
              "duration": 0.48541666666666666
            },
            {
              "pitch": 26,
              "velocity": 50,
              "position": 0,
              "duration": 3.9854166666666666
            }
          ]
        },
        "9": {
          "ctab": {
            "srcChannel": 9,
            "name": "MainDrum",
            "accType": "RHYTHM",
            "editable": false,
            "mutedNotes": [],
            "mutedChords": [],
            "autoStart": true,
            "sourceChordNote": 0,
            "sourceChordType": "Maj7",
            "ctb2Low": null,
            "ctb2Main": {
              "ntr": "ROOT_FIXED",
              "ntt": "BYPASS",
              "bassOn": false,
              "chordRootUpperLimit": 6,
              "noteLowLimit": 0,
              "noteHighLimit": 127,
              "rtr": "PITCH_SHIFT"
            },
            "ctb2High": null
          },
          "notes": [
            {
              "pitch": 35,
              "velocity": 100,
              "position": 0,
              "duration": 0.00625
            },
            {
              "pitch": 42,
              "velocity": 110,
              "position": 0,
              "duration": 0.00625
            },
            {
              "pitch": 54,
              "velocity": 99,
              "position": 0.0020833333333333333,
              "duration": 0.00625
            },
            {
              "pitch": 38,
              "velocity": 104,
              "position": 0.5,
              "duration": 0.00625
            },
            {
              "pitch": 54,
              "velocity": 32,
              "position": 0.5,
              "duration": 0.00625
            },
            {
              "pitch": 42,
              "velocity": 51,
              "position": 0.5041666666666667,
              "duration": 0.00625
            },
            {
              "pitch": 38,
              "velocity": 104,
              "position": 1,
              "duration": 0.00625
            },
            {
              "pitch": 46,
              "velocity": 57,
              "position": 1,
              "duration": 0.00625
            },
            {
              "pitch": 54,
              "velocity": 97,
              "position": 1.0041666666666667,
              "duration": 0.00625
            },
            {
              "pitch": 44,
              "velocity": 53,
              "position": 1.49375,
              "duration": 0.00625
            },
            {
              "pitch": 54,
              "velocity": 34,
              "position": 1.5,
              "duration": 0.00625
            },
            {
              "pitch": 35,
              "velocity": 60,
              "position": 1.7708333333333333,
              "duration": 0.00625
            },
            {
              "pitch": 38,
              "velocity": 81,
              "position": 1.7708333333333333,
              "duration": 0.00625
            },
            {
              "pitch": 42,
              "velocity": 107,
              "position": 1.9895833333333333,
              "duration": 0.00625
            },
            {
              "pitch": 54,
              "velocity": 102,
              "position": 1.99375,
              "duration": 0.00625
            },
            {
              "pitch": 35,
              "velocity": 100,
              "position": 2,
              "duration": 0.00625
            },
            {
              "pitch": 38,
              "velocity": 18,
              "position": 2.275,
              "duration": 0.00625
            },
            {
              "pitch": 38,
              "velocity": 37,
              "position": 2.4,
              "duration": 0.00625
            },
            {
              "pitch": 54,
              "velocity": 42,
              "position": 2.4895833333333335,
              "duration": 0.00625
            },
            {
              "pitch": 42,
              "velocity": 49,
              "position": 2.49375,
              "duration": 0.00625
            },
            {
              "pitch": 35,
              "velocity": 100,
              "position": 2.5,
              "duration": 0.00625
            },
            {
              "pitch": 38,
              "velocity": 104,
              "position": 2.5,
              "duration": 0.00625
            },
            {
              "pitch": 38,
              "velocity": 104,
              "position": 3,
              "duration": 0.00625
            },
            {
              "pitch": 42,
              "velocity": 110,
              "position": 3,
              "duration": 0.00625
            },
            {
              "pitch": 54,
              "velocity": 96,
              "position": 3.004166666666667,
              "duration": 0.00625
            },
            {
              "pitch": 38,
              "velocity": 81,
              "position": 3.2708333333333335,
              "duration": 0.00625
            },
            {
              "pitch": 35,
              "velocity": 100,
              "position": 3.5,
              "duration": 0.00625
            },
            {
              "pitch": 54,
              "velocity": 40,
              "position": 3.5,
              "duration": 0.00625
            },
            {
              "pitch": 42,
              "velocity": 59,
              "position": 3.504166666666667,
              "duration": 0.00625
            },
            {
              "pitch": 38,
              "velocity": 18,
              "position": 3.775,
              "duration": 0.00625
            },
            {
              "pitch": 49,
              "velocity": 80,
              "position": 3.9895833333333335,
              "duration": 0.00625
            }
          ]
        },
        "10": {
          "ctab": {
            "srcChannel": 10,
            "name": "Bass A",
            "accType": "BASS",
            "editable": false,
            "mutedNotes": [],
            "mutedChords": [
              "sus4",
              "7aug",
              "Maj7aug",
              "minMaj7(9)",
              "minMaj7",
              "min(9)",
              "min",
              "aug"
            ],
            "autoStart": false,
            "sourceChordNote": 0,
            "sourceChordType": "Maj7",
            "ctb2Low": null,
            "ctb2Main": {
              "ntr": "ROOT_TRANSPOSITION",
              "ntt": "MELODY",
              "bassOn": true,
              "chordRootUpperLimit": 3,
              "noteLowLimit": 28,
              "noteHighLimit": 127,
              "rtr": "PITCH_SHIFT_TO_ROOT"
            },
            "ctb2High": null
          },
          "notes": [
            {
              "pitch": 36,
              "velocity": 74,
              "position": 0.010416666666666666,
              "duration": 0.48541666666666666
            },
            {
              "pitch": 36,
              "velocity": 110,
              "position": 1.7708333333333333,
              "duration": 0.20416666666666666
            },
            {
              "pitch": 36,
              "velocity": 70,
              "position": 1.9833333333333334,
              "duration": 0.3
            },
            {
              "pitch": 36,
              "velocity": 66,
              "position": 2.4833333333333334,
              "duration": 0.36041666666666666
            },
            {
              "pitch": 36,
              "velocity": 110,
              "position": 3.2708333333333335,
              "duration": 0.20416666666666666
            },
            {
              "pitch": 36,
              "velocity": 70,
              "position": 3.4833333333333334,
              "duration": 0.3
            }
          ]
        },
        "11": {
          "ctab": {
            "srcChannel": 11,
            "name": "Strat",
            "accType": "CHORD1",
            "editable": false,
            "mutedNotes": [],
            "mutedChords": [],
            "autoStart": false,
            "sourceChordNote": 0,
            "sourceChordType": "Maj7",
            "ctb2Low": null,
            "ctb2Main": {
              "ntr": "ROOT_TRANSPOSITION",
              "ntt": "MELODY",
              "bassOn": false,
              "chordRootUpperLimit": 7,
              "noteLowLimit": 0,
              "noteHighLimit": 127,
              "rtr": "PITCH_SHIFT"
            },
            "ctb2High": null
          },
          "notes": [
            {
              "pitch": 60,
              "velocity": 39,
              "position": 0.5,
              "duration": 0.25833333333333336
            },
            {
              "pitch": 55,
              "velocity": 50,
              "position": 0.5,
              "duration": 0.26666666666666666
            },
            {
              "pitch": 59,
              "velocity": 50,
              "position": 0.5,
              "duration": 0.26666666666666666
            },
            {
              "pitch": 55,
              "velocity": 19,
              "position": 0.78125,
              "duration": 0.20416666666666666
            },
            {
              "pitch": 59,
              "velocity": 19,
              "position": 0.78125,
              "duration": 0.20416666666666666
            },
            {
              "pitch": 60,
              "velocity": 19,
              "position": 0.7708333333333334,
              "duration": 0.21666666666666667
            },
            {
              "pitch": 64,
              "velocity": 32,
              "position": 0.5104166666666666,
              "duration": 0.48541666666666666
            },
            {
              "pitch": 64,
              "velocity": 29,
              "position": 1.0104166666666667,
              "duration": 0.25625
            },
            {
              "pitch": 60,
              "velocity": 31,
              "position": 1,
              "duration": 0.26875
            },
            {
              "pitch": 55,
              "velocity": 31,
              "position": 1,
              "duration": 0.27708333333333335
            },
            {
              "pitch": 59,
              "velocity": 31,
              "position": 1,
              "duration": 0.27708333333333335
            },
            {
              "pitch": 60,
              "velocity": 42,
              "position": 1.28125,
              "duration": 0.20416666666666666
            },
            {
              "pitch": 64,
              "velocity": 33,
              "position": 1.28125,
              "duration": 0.20416666666666666
            },
            {
              "pitch": 55,
              "velocity": 50,
              "position": 1.2916666666666667,
              "duration": 0.20416666666666666
            },
            {
              "pitch": 59,
              "velocity": 50,
              "position": 1.2916666666666667,
              "duration": 0.20416666666666666
            },
            {
              "pitch": 60,
              "velocity": 39,
              "position": 2,
              "duration": 0.25833333333333336
            },
            {
              "pitch": 55,
              "velocity": 50,
              "position": 2,
              "duration": 0.26666666666666666
            },
            {
              "pitch": 59,
              "velocity": 50,
              "position": 2,
              "duration": 0.26666666666666666
            },
            {
              "pitch": 55,
              "velocity": 19,
              "position": 2.28125,
              "duration": 0.20416666666666666
            },
            {
              "pitch": 59,
              "velocity": 19,
              "position": 2.28125,
              "duration": 0.20416666666666666
            },
            {
              "pitch": 60,
              "velocity": 19,
              "position": 2.2708333333333335,
              "duration": 0.21666666666666667
            },
            {
              "pitch": 64,
              "velocity": 32,
              "position": 2.0104166666666665,
              "duration": 0.48541666666666666
            },
            {
              "pitch": 64,
              "velocity": 29,
              "position": 2.5104166666666665,
              "duration": 0.25625
            },
            {
              "pitch": 60,
              "velocity": 31,
              "position": 2.5,
              "duration": 0.26875
            },
            {
              "pitch": 55,
              "velocity": 31,
              "position": 2.5,
              "duration": 0.27708333333333335
            },
            {
              "pitch": 59,
              "velocity": 31,
              "position": 2.5,
              "duration": 0.27708333333333335
            },
            {
              "pitch": 60,
              "velocity": 42,
              "position": 2.78125,
              "duration": 0.20416666666666666
            },
            {
              "pitch": 64,
              "velocity": 33,
              "position": 2.78125,
              "duration": 0.20416666666666666
            },
            {
              "pitch": 55,
              "velocity": 50,
              "position": 2.7916666666666665,
              "duration": 0.20416666666666666
            },
            {
              "pitch": 59,
              "velocity": 50,
              "position": 2.7916666666666665,
              "duration": 0.20416666666666666
            },
            {
              "pitch": 64,
              "velocity": 38,
              "position": 3.5104166666666665,
              "duration": 0.24791666666666667
            },
            {
              "pitch": 60,
              "velocity": 33,
              "position": 3.5,
              "duration": 0.2625
            },
            {
              "pitch": 55,
              "velocity": 37,
              "position": 3.5,
              "duration": 0.26875
            },
            {
              "pitch": 59,
              "velocity": 37,
              "position": 3.5,
              "duration": 0.26875
            },
            {
              "pitch": 55,
              "velocity": 35,
              "position": 3.78125,
              "duration": 0.2
            },
            {
              "pitch": 59,
              "velocity": 35,
              "position": 3.78125,
              "duration": 0.2
            },
            {
              "pitch": 64,
              "velocity": 38,
              "position": 3.7708333333333335,
              "duration": 0.21041666666666667
            },
            {
              "pitch": 60,
              "velocity": 33,
              "position": 3.78125,
              "duration": 0.20416666666666666
            }
          ]
        },
        "12": {
          "ctab": {
            "srcChannel": 12,
            "name": "Piano",
            "accType": "CHORD2",
            "editable": false,
            "mutedNotes": [],
            "mutedChords": [],
            "autoStart": false,
            "sourceChordNote": 0,
            "sourceChordType": "Maj7",
            "ctb2Low": null,
            "ctb2Main": {
              "ntr": "ROOT_FIXED",
              "ntt": "CHORD",
              "bassOn": false,
              "chordRootUpperLimit": 7,
              "noteLowLimit": 0,
              "noteHighLimit": 127,
              "rtr": "PITCH_SHIFT"
            },
            "ctb2High": null
          },
          "notes": [
            {
              "pitch": 55,
              "velocity": 110,
              "position": 0.0125,
              "duration": 0.16458333333333333
            },
            {
              "pitch": 64,
              "velocity": 112,
              "position": 0.010416666666666666,
              "duration": 0.17708333333333334
            },
            {
              "pitch": 59,
              "velocity": 109,
              "position": 0.010416666666666666,
              "duration": 0.19791666666666666
            },
            {
              "pitch": 24,
              "velocity": 104,
              "position": 0,
              "duration": 0.43333333333333335
            },
            {
              "pitch": 36,
              "velocity": 110,
              "position": 0,
              "duration": 0.43333333333333335
            },
            {
              "pitch": 59,
              "velocity": 70,
              "position": 0.49166666666666664,
              "duration": 0.14583333333333334
            },
            {
              "pitch": 55,
              "velocity": 66,
              "position": 0.5,
              "duration": 0.17291666666666666
            },
            {
              "pitch": 64,
              "velocity": 62,
              "position": 0.5,
              "duration": 0.175
            },
            {
              "pitch": 59,
              "velocity": 101,
              "position": 0.9895833333333334,
              "duration": 0.14166666666666666
            },
            {
              "pitch": 55,
              "velocity": 104,
              "position": 1.0041666666666667,
              "duration": 0.14791666666666667
            },
            {
              "pitch": 64,
              "velocity": 109,
              "position": 1,
              "duration": 0.15833333333333333
            },
            {
              "pitch": 64,
              "velocity": 72,
              "position": 1.5020833333333334,
              "duration": 0.14166666666666666
            },
            {
              "pitch": 55,
              "velocity": 63,
              "position": 1.5,
              "duration": 0.15416666666666667
            },
            {
              "pitch": 59,
              "velocity": 63,
              "position": 1.5020833333333334,
              "duration": 0.18125
            },
            {
              "pitch": 55,
              "velocity": 103,
              "position": 1.9895833333333333,
              "duration": 0.11666666666666667
            },
            {
              "pitch": 64,
              "velocity": 108,
              "position": 1.9895833333333333,
              "duration": 0.12291666666666666
            },
            {
              "pitch": 59,
              "velocity": 112,
              "position": 2,
              "duration": 0.11666666666666667
            },
            {
              "pitch": 64,
              "velocity": 70,
              "position": 2.502083333333333,
              "duration": 0.15625
            },
            {
              "pitch": 55,
              "velocity": 65,
              "position": 2.49375,
              "duration": 0.175
            },
            {
              "pitch": 59,
              "velocity": 73,
              "position": 2.4895833333333335,
              "duration": 0.18541666666666667
            },
            {
              "pitch": 24,
              "velocity": 104,
              "position": 2.5,
              "duration": 0.3333333333333333
            },
            {
              "pitch": 36,
              "velocity": 110,
              "position": 2.5,
              "duration": 0.3333333333333333
            },
            {
              "pitch": 64,
              "velocity": 102,
              "position": 3.002083333333333,
              "duration": 0.11458333333333333
            },
            {
              "pitch": 55,
              "velocity": 119,
              "position": 2.99375,
              "duration": 0.13333333333333333
            },
            {
              "pitch": 59,
              "velocity": 113,
              "position": 3,
              "duration": 0.15833333333333333
            },
            {
              "pitch": 59,
              "velocity": 78,
              "position": 3.4895833333333335,
              "duration": 0.13125
            },
            {
              "pitch": 64,
              "velocity": 61,
              "position": 3.5,
              "duration": 0.175
            },
            {
              "pitch": 55,
              "velocity": 76,
              "position": 3.5,
              "duration": 0.1875
            },
            {
              "pitch": 24,
              "velocity": 102,
              "position": 3.2708333333333335,
              "duration": 0.63125
            },
            {
              "pitch": 36,
              "velocity": 108,
              "position": 3.2708333333333335,
              "duration": 0.63125
            }
          ]
        },
        "13": {
          "ctab": {
            "srcChannel": 13,
            "name": "Organ",
            "accType": "PAD",
            "editable": false,
            "mutedNotes": [],
            "mutedChords": [],
            "autoStart": false,
            "sourceChordNote": 0,
            "sourceChordType": "Maj7",
            "ctb2Low": null,
            "ctb2Main": {
              "ntr": "ROOT_FIXED",
              "ntt": "CHORD",
              "bassOn": false,
              "chordRootUpperLimit": 7,
              "noteLowLimit": 0,
              "noteHighLimit": 127,
              "rtr": "PITCH_SHIFT"
            },
            "ctb2High": null
          },
          "notes": [
            {
              "pitch": 59,
              "velocity": 50,
              "position": 0.010416666666666666,
              "duration": 2.1104166666666666
            },
            {
              "pitch": 64,
              "velocity": 50,
              "position": 0.010416666666666666,
              "duration": 2.1104166666666666
            },
            {
              "pitch": 67,
              "velocity": 50,
              "position": 0.010416666666666666,
              "duration": 2.1104166666666666
            },
            {
              "pitch": 59,
              "velocity": 50,
              "position": 2.4895833333333335,
              "duration": 0.3625
            },
            {
              "pitch": 64,
              "velocity": 50,
              "position": 2.4895833333333335,
              "duration": 0.3625
            },
            {
              "pitch": 67,
              "velocity": 50,
              "position": 2.4895833333333335,
              "duration": 0.3625
            },
            {
              "pitch": 59,
              "velocity": 50,
              "position": 3.285416666666667,
              "duration": 0.6958333333333333
            },
            {
              "pitch": 64,
              "velocity": 50,
              "position": 3.285416666666667,
              "duration": 0.6958333333333333
            },
            {
              "pitch": 67,
              "velocity": 50,
              "position": 3.285416666666667,
              "duration": 0.6958333333333333
            }
          ]
        },
        "14": {
          "ctab": {
            "srcChannel": 14,
            "name": "Tele",
            "accType": "PHRASE1",
            "editable": false,
            "mutedNotes": [],
            "mutedChords": [],
            "autoStart": false,
            "sourceChordNote": 0,
            "sourceChordType": "Maj7",
            "ctb2Low": null,
            "ctb2Main": {
              "ntr": "ROOT_TRANSPOSITION",
              "ntt": "MELODY",
              "bassOn": false,
              "chordRootUpperLimit": 7,
              "noteLowLimit": 0,
              "noteHighLimit": 127,
              "rtr": "PITCH_SHIFT"
            },
            "ctb2High": null
          },
          "notes": []
        }
      }
    },
    "Fill_In_CC": {
      "type": "Fill_In_CC",
      "sizeInBeats": 4,
      "channels": {
        "1": {
          "ctab": {
            "srcChannel": 1,
            "name": "Bass B",
            "accType": "BASS",
            "editable": false,
            "mutedNotes": [],
            "mutedChords": [
              "1+2+5",
              "1+5",
              "1+8",
              "7(#9)",
              "7(b13)",
              "7(b9)",
              "7(13)",
              "7#11",
              "7(9)",
              "7b5",
              "7sus4",
              "7th",
              "dim7",
              "dim",
              "min7(11)",
              "min7(9)",
              "m7b5",
              "min7",
              "min6",
              "Maj6(9)",
              "Maj7(9)",
              "Maj(9)",
              "Maj7#11",
              "Maj7",
              "Maj6",
              "Maj"
            ],
            "autoStart": false,
            "sourceChordNote": 0,
            "sourceChordType": "Maj7",
            "ctb2Low": null,
            "ctb2Main": {
              "ntr": "ROOT_TRANSPOSITION",
              "ntt": "MELODY",
              "bassOn": true,
              "chordRootUpperLimit": 3,
              "noteLowLimit": 28,
              "noteHighLimit": 127,
              "rtr": "PITCH_SHIFT_TO_ROOT"
            },
            "ctb2High": null
          },
          "notes": [
            {
              "pitch": 36,
              "velocity": 73,
              "position": 0.010416666666666666,
              "duration": 0.29791666666666666
            },
            {
              "pitch": 36,
              "velocity": 72,
              "position": 0.5104166666666666,
              "duration": 0.9854166666666667
            },
            {
              "pitch": 48,
              "velocity": 70,
              "position": 1.7729166666666667,
              "duration": 0.09791666666666667
            },
            {
              "pitch": 36,
              "velocity": 110,
              "position": 2.2604166666666665,
              "duration": 0.21458333333333332
            },
            {
              "pitch": 36,
              "velocity": 70,
              "position": 2.4895833333333335,
              "duration": 0.3625
            },
            {
              "pitch": 36,
              "velocity": 58,
              "position": 3.2645833333333334,
              "duration": 0.20208333333333334
            },
            {
              "pitch": 43,
              "velocity": 76,
              "position": 3.4791666666666665,
              "duration": 0.2375
            },
            {
              "pitch": 48,
              "velocity": 63,
              "position": 3.7729166666666667,
              "duration": 0.2125
            }
          ]
        },
        "4": {
          "ctab": {
            "srcChannel": 4,
            "name": "Organ rt",
            "accType": "PAD",
            "editable": false,
            "mutedNotes": [],
            "mutedChords": [
              "1+2+5",
              "sus4",
              "1+5",
              "1+8",
              "Maj7aug",
              "dim",
              "minMaj7(9)",
              "minMaj7",
              "min6",
              "min",
              "aug",
              "Maj7(9)",
              "Maj7#11",
              "Maj7",
              "Maj6",
              "Maj"
            ],
            "autoStart": false,
            "sourceChordNote": 0,
            "sourceChordType": "Maj7",
            "ctb2Low": null,
            "ctb2Main": {
              "ntr": "ROOT_TRANSPOSITION",
              "ntt": "MELODY",
              "bassOn": false,
              "chordRootUpperLimit": 10,
              "noteLowLimit": 0,
              "noteHighLimit": 127,
              "rtr": "PITCH_SHIFT"
            },
            "ctb2High": null
          },
          "notes": [
            {
              "pitch": 60,
              "velocity": 50,
              "position": 0.010416666666666666,
              "duration": 3.8541666666666665
            }
          ]
        },
        "8": {
          "ctab": {
            "srcChannel": 8,
            "name": "AddDrum",
            "accType": "SUBRHYTHM",
            "editable": false,
            "mutedNotes": [],
            "mutedChords": [],
            "autoStart": true,
            "sourceChordNote": 0,
            "sourceChordType": "Maj7",
            "ctb2Low": null,
            "ctb2Main": {
              "ntr": "ROOT_FIXED",
              "ntt": "BYPASS",
              "bassOn": false,
              "chordRootUpperLimit": 6,
              "noteLowLimit": 0,
              "noteHighLimit": 127,
              "rtr": "PITCH_SHIFT"
            },
            "ctb2High": null
          },
          "notes": [
            {
              "pitch": 42,
              "velocity": 120,
              "position": 0,
              "duration": 0.00625
            },
            {
              "pitch": 32,
              "velocity": 34,
              "position": 0.2708333333333333,
              "duration": 0.00625
            },
            {
              "pitch": 46,
              "velocity": 60,
              "position": 0.5,
              "duration": 0.00625
            },
            {
              "pitch": 32,
              "velocity": 106,
              "position": 1,
              "duration": 0.00625
            },
            {
              "pitch": 42,
              "velocity": 120,
              "position": 1,
              "duration": 0.00625
            },
            {
              "pitch": 42,
              "velocity": 40,
              "position": 1.5,
              "duration": 0.00625
            },
            {
              "pitch": 32,
              "velocity": 24,
              "position": 1.7708333333333333,
              "duration": 0.00625
            },
            {
              "pitch": 42,
              "velocity": 120,
              "position": 2,
              "duration": 0.00625
            },
            {
              "pitch": 32,
              "velocity": 24,
              "position": 2.2708333333333335,
              "duration": 0.00625
            },
            {
              "pitch": 42,
              "velocity": 40,
              "position": 2.5,
              "duration": 0.00625
            },
            {
              "pitch": 32,
              "velocity": 106,
              "position": 3,
              "duration": 0.00625
            },
            {
              "pitch": 42,
              "velocity": 120,
              "position": 3,
              "duration": 0.00625
            },
            {
              "pitch": 18,
              "velocity": 81,
              "position": 2.6666666666666665,
              "duration": 0.4875
            },
            {
              "pitch": 17,
              "velocity": 127,
              "position": 3,
              "duration": 0.48541666666666666
            },
            {
              "pitch": 46,
              "velocity": 60,
              "position": 3.5,
              "duration": 0.00625
            },
            {
              "pitch": 18,
              "velocity": 81,
              "position": 3.1666666666666665,
              "duration": 0.4875
            },
            {
              "pitch": 32,
              "velocity": 34,
              "position": 3.7708333333333335,
              "duration": 0.00625
            },
            {
              "pitch": 17,
              "velocity": 127,
              "position": 3.5,
              "duration": 0.48541666666666666
            },
            {
              "pitch": 26,
              "velocity": 50,
              "position": 0,
              "duration": 3.9854166666666666
            }
          ]
        },
        "9": {
          "ctab": {
            "srcChannel": 9,
            "name": "MainDrum",
            "accType": "RHYTHM",
            "editable": false,
            "mutedNotes": [],
            "mutedChords": [],
            "autoStart": true,
            "sourceChordNote": 0,
            "sourceChordType": "Maj7",
            "ctb2Low": null,
            "ctb2Main": {
              "ntr": "ROOT_FIXED",
              "ntt": "BYPASS",
              "bassOn": false,
              "chordRootUpperLimit": 6,
              "noteLowLimit": 0,
              "noteHighLimit": 127,
              "rtr": "PITCH_SHIFT"
            },
            "ctb2High": null
          },
          "notes": [
            {
              "pitch": 35,
              "velocity": 100,
              "position": 0,
              "duration": 0.00625
            },
            {
              "pitch": 42,
              "velocity": 110,
              "position": 0,
              "duration": 0.00625
            },
            {
              "pitch": 54,
              "velocity": 86,
              "position": 0,
              "duration": 0.00625
            },
            {
              "pitch": 38,
              "velocity": 22,
              "position": 0.2625,
              "duration": 0.00625
            },
            {
              "pitch": 54,
              "velocity": 14,
              "position": 0.27291666666666664,
              "duration": 0.00625
            },
            {
              "pitch": 54,
              "velocity": 38,
              "position": 0.4895833333333333,
              "duration": 0.00625
            },
            {
              "pitch": 35,
              "velocity": 100,
              "position": 0.5,
              "duration": 0.00625
            },
            {
              "pitch": 46,
              "velocity": 60,
              "position": 0.5,
              "duration": 0.00625
            },
            {
              "pitch": 54,
              "velocity": 22,
              "position": 0.7708333333333334,
              "duration": 0.00625
            },
            {
              "pitch": 38,
              "velocity": 26,
              "position": 0.775,
              "duration": 0.00625
            },
            {
              "pitch": 54,
              "velocity": 102,
              "position": 0.99375,
              "duration": 0.00625
            },
            {
              "pitch": 38,
              "velocity": 104,
              "position": 1,
              "duration": 0.00625
            },
            {
              "pitch": 42,
              "velocity": 110,
              "position": 1,
              "duration": 0.00625
            },
            {
              "pitch": 35,
              "velocity": 60,
              "position": 1.2708333333333333,
              "duration": 0.00625
            },
            {
              "pitch": 54,
              "velocity": 25,
              "position": 1.2708333333333333,
              "duration": 0.00625
            },
            {
              "pitch": 54,
              "velocity": 38,
              "position": 1.4916666666666667,
              "duration": 0.00625
            },
            {
              "pitch": 42,
              "velocity": 54,
              "position": 1.5,
              "duration": 0.00625
            },
            {
              "pitch": 38,
              "velocity": 107,
              "position": 1.7708333333333333,
              "duration": 0.00625
            },
            {
              "pitch": 54,
              "velocity": 36,
              "position": 1.775,
              "duration": 0.00625
            },
            {
              "pitch": 40,
              "velocity": 68,
              "position": 1.8333333333333333,
              "duration": 0.00625
            },
            {
              "pitch": 54,
              "velocity": 104,
              "position": 1.99375,
              "duration": 0.00625
            },
            {
              "pitch": 35,
              "velocity": 100,
              "position": 2,
              "duration": 0.00625
            },
            {
              "pitch": 42,
              "velocity": 110,
              "position": 2.002083333333333,
              "duration": 0.00625
            },
            {
              "pitch": 54,
              "velocity": 15,
              "position": 2.2604166666666665,
              "duration": 0.00625
            },
            {
              "pitch": 38,
              "velocity": 41,
              "position": 2.2708333333333335,
              "duration": 0.00625
            },
            {
              "pitch": 54,
              "velocity": 37,
              "position": 2.4895833333333335,
              "duration": 0.00625
            },
            {
              "pitch": 35,
              "velocity": 100,
              "position": 2.5,
              "duration": 0.00625
            },
            {
              "pitch": 42,
              "velocity": 56,
              "position": 2.5,
              "duration": 0.00625
            },
            {
              "pitch": 38,
              "velocity": 69,
              "position": 2.7604166666666665,
              "duration": 0.00625
            },
            {
              "pitch": 54,
              "velocity": 21,
              "position": 2.7645833333333334,
              "duration": 0.00625
            },
            {
              "pitch": 38,
              "velocity": 104,
              "position": 3,
              "duration": 0.00625
            },
            {
              "pitch": 42,
              "velocity": 110,
              "position": 3,
              "duration": 0.00625
            },
            {
              "pitch": 54,
              "velocity": 96,
              "position": 3,
              "duration": 0.00625
            },
            {
              "pitch": 47,
              "velocity": 80,
              "position": 3.2604166666666665,
              "duration": 0.00625
            },
            {
              "pitch": 54,
              "velocity": 14,
              "position": 3.2604166666666665,
              "duration": 0.00625
            },
            {
              "pitch": 45,
              "velocity": 100,
              "position": 3.5,
              "duration": 0.00625
            },
            {
              "pitch": 46,
              "velocity": 60,
              "position": 3.5,
              "duration": 0.00625
            },
            {
              "pitch": 54,
              "velocity": 36,
              "position": 3.5,
              "duration": 0.00625
            },
            {
              "pitch": 40,
              "velocity": 45,
              "position": 3.7645833333333334,
              "duration": 0.004166666666666667
            },
            {
              "pitch": 38,
              "velocity": 67,
              "position": 3.7625,
              "duration": 0.008333333333333333
            },
            {
              "pitch": 35,
              "velocity": 100,
              "position": 3.7708333333333335,
              "duration": 0.00625
            },
            {
              "pitch": 54,
              "velocity": 32,
              "position": 3.775,
              "duration": 0.00625
            },
            {
              "pitch": 49,
              "velocity": 80,
              "position": 3.9895833333333335,
              "duration": 0.00625
            }
          ]
        },
        "10": {
          "ctab": {
            "srcChannel": 10,
            "name": "Bass A",
            "accType": "BASS",
            "editable": false,
            "mutedNotes": [],
            "mutedChords": [
              "sus4",
              "7aug",
              "Maj7aug",
              "minMaj7(9)",
              "minMaj7",
              "min(9)",
              "min",
              "aug"
            ],
            "autoStart": false,
            "sourceChordNote": 0,
            "sourceChordType": "Maj7",
            "ctb2Low": null,
            "ctb2Main": {
              "ntr": "ROOT_TRANSPOSITION",
              "ntt": "MELODY",
              "bassOn": true,
              "chordRootUpperLimit": 3,
              "noteLowLimit": 28,
              "noteHighLimit": 127,
              "rtr": "PITCH_SHIFT_TO_ROOT"
            },
            "ctb2High": null
          },
          "notes": [
            {
              "pitch": 36,
              "velocity": 73,
              "position": 0.010416666666666666,
              "duration": 0.29791666666666666
            },
            {
              "pitch": 36,
              "velocity": 72,
              "position": 0.5104166666666666,
              "duration": 0.9854166666666667
            },
            {
              "pitch": 48,
              "velocity": 70,
              "position": 1.7729166666666667,
              "duration": 0.09791666666666667
            },
            {
              "pitch": 36,
              "velocity": 110,
              "position": 2.2604166666666665,
              "duration": 0.21458333333333332
            },
            {
              "pitch": 36,
              "velocity": 70,
              "position": 2.4895833333333335,
              "duration": 0.3625
            },
            {
              "pitch": 43,
              "velocity": 58,
              "position": 3.2645833333333334,
              "duration": 0.20208333333333334
            },
            {
              "pitch": 45,
              "velocity": 76,
              "position": 3.4791666666666665,
              "duration": 0.2375
            },
            {
              "pitch": 48,
              "velocity": 63,
              "position": 3.7729166666666667,
              "duration": 0.20625
            }
          ]
        },
        "11": {
          "ctab": {
            "srcChannel": 11,
            "name": "Strat",
            "accType": "CHORD1",
            "editable": false,
            "mutedNotes": [],
            "mutedChords": [],
            "autoStart": false,
            "sourceChordNote": 0,
            "sourceChordType": "Maj7",
            "ctb2Low": null,
            "ctb2Main": {
              "ntr": "ROOT_TRANSPOSITION",
              "ntt": "MELODY",
              "bassOn": false,
              "chordRootUpperLimit": 7,
              "noteLowLimit": 0,
              "noteHighLimit": 127,
              "rtr": "PITCH_SHIFT"
            },
            "ctb2High": null
          },
          "notes": [
            {
              "pitch": 60,
              "velocity": 48,
              "position": 0,
              "duration": 0.25833333333333336
            },
            {
              "pitch": 55,
              "velocity": 54,
              "position": 0,
              "duration": 0.26666666666666666
            },
            {
              "pitch": 59,
              "velocity": 54,
              "position": 0,
              "duration": 0.26666666666666666
            },
            {
              "pitch": 55,
              "velocity": 27,
              "position": 0.28125,
              "duration": 0.20416666666666666
            },
            {
              "pitch": 59,
              "velocity": 27,
              "position": 0.28125,
              "duration": 0.20416666666666666
            },
            {
              "pitch": 60,
              "velocity": 16,
              "position": 0.2708333333333333,
              "duration": 0.21666666666666667
            },
            {
              "pitch": 64,
              "velocity": 43,
              "position": 0.010416666666666666,
              "duration": 0.48541666666666666
            },
            {
              "pitch": 64,
              "velocity": 41,
              "position": 0.5104166666666666,
              "duration": 0.25625
            },
            {
              "pitch": 60,
              "velocity": 38,
              "position": 0.5,
              "duration": 0.26875
            },
            {
              "pitch": 55,
              "velocity": 34,
              "position": 0.5,
              "duration": 0.27708333333333335
            },
            {
              "pitch": 59,
              "velocity": 34,
              "position": 0.5,
              "duration": 0.27708333333333335
            },
            {
              "pitch": 60,
              "velocity": 47,
              "position": 0.78125,
              "duration": 0.20416666666666666
            },
            {
              "pitch": 64,
              "velocity": 32,
              "position": 0.78125,
              "duration": 0.20416666666666666
            },
            {
              "pitch": 55,
              "velocity": 49,
              "position": 0.7916666666666666,
              "duration": 0.20416666666666666
            },
            {
              "pitch": 59,
              "velocity": 49,
              "position": 0.7916666666666666,
              "duration": 0.20416666666666666
            },
            {
              "pitch": 60,
              "velocity": 31,
              "position": 1.5,
              "duration": 0.25833333333333336
            },
            {
              "pitch": 55,
              "velocity": 50,
              "position": 1.5,
              "duration": 0.26666666666666666
            },
            {
              "pitch": 59,
              "velocity": 50,
              "position": 1.5,
              "duration": 0.26666666666666666
            },
            {
              "pitch": 55,
              "velocity": 29,
              "position": 1.78125,
              "duration": 0.20416666666666666
            },
            {
              "pitch": 59,
              "velocity": 29,
              "position": 1.78125,
              "duration": 0.20416666666666666
            },
            {
              "pitch": 60,
              "velocity": 20,
              "position": 1.7708333333333333,
              "duration": 0.21666666666666667
            },
            {
              "pitch": 64,
              "velocity": 37,
              "position": 1.5104166666666667,
              "duration": 0.48541666666666666
            },
            {
              "pitch": 64,
              "velocity": 26,
              "position": 2.0104166666666665,
              "duration": 0.25625
            },
            {
              "pitch": 60,
              "velocity": 40,
              "position": 2,
              "duration": 0.26875
            },
            {
              "pitch": 55,
              "velocity": 41,
              "position": 2,
              "duration": 0.27708333333333335
            },
            {
              "pitch": 59,
              "velocity": 41,
              "position": 2,
              "duration": 0.27708333333333335
            },
            {
              "pitch": 60,
              "velocity": 33,
              "position": 2.28125,
              "duration": 0.20416666666666666
            },
            {
              "pitch": 64,
              "velocity": 44,
              "position": 2.28125,
              "duration": 0.20416666666666666
            },
            {
              "pitch": 55,
              "velocity": 47,
              "position": 2.2916666666666665,
              "duration": 0.20416666666666666
            },
            {
              "pitch": 59,
              "velocity": 47,
              "position": 2.2916666666666665,
              "duration": 0.20416666666666666
            },
            {
              "pitch": 64,
              "velocity": 49,
              "position": 3.0104166666666665,
              "duration": 0.24791666666666667
            },
            {
              "pitch": 60,
              "velocity": 34,
              "position": 3,
              "duration": 0.2625
            },
            {
              "pitch": 55,
              "velocity": 45,
              "position": 3,
              "duration": 0.26875
            },
            {
              "pitch": 59,
              "velocity": 45,
              "position": 3,
              "duration": 0.26875
            },
            {
              "pitch": 64,
              "velocity": 40,
              "position": 3.2708333333333335,
              "duration": 0.2375
            },
            {
              "pitch": 60,
              "velocity": 34,
              "position": 3.28125,
              "duration": 0.23541666666666666
            },
            {
              "pitch": 55,
              "velocity": 43,
              "position": 3.28125,
              "duration": 0.2375
            },
            {
              "pitch": 59,
              "velocity": 43,
              "position": 3.28125,
              "duration": 0.2375
            }
          ]
        },
        "12": {
          "ctab": {
            "srcChannel": 12,
            "name": "Piano",
            "accType": "CHORD2",
            "editable": false,
            "mutedNotes": [],
            "mutedChords": [],
            "autoStart": false,
            "sourceChordNote": 0,
            "sourceChordType": "Maj7",
            "ctb2Low": null,
            "ctb2Main": {
              "ntr": "ROOT_FIXED",
              "ntt": "CHORD",
              "bassOn": false,
              "chordRootUpperLimit": 7,
              "noteLowLimit": 0,
              "noteHighLimit": 127,
              "rtr": "PITCH_SHIFT"
            },
            "ctb2High": null
          },
          "notes": [
            {
              "pitch": 24,
              "velocity": 104,
              "position": 0,
              "duration": 0.24583333333333332
            },
            {
              "pitch": 36,
              "velocity": 104,
              "position": 0,
              "duration": 0.24583333333333332
            },
            {
              "pitch": 24,
              "velocity": 104,
              "position": 0.5,
              "duration": 0.36041666666666666
            },
            {
              "pitch": 36,
              "velocity": 104,
              "position": 0.5,
              "duration": 0.36041666666666666
            },
            {
              "pitch": 59,
              "velocity": 101,
              "position": 1,
              "duration": 0.5729166666666666
            },
            {
              "pitch": 55,
              "velocity": 104,
              "position": 1,
              "duration": 0.5791666666666667
            },
            {
              "pitch": 64,
              "velocity": 109,
              "position": 0.9895833333333334,
              "duration": 0.5916666666666667
            },
            {
              "pitch": 64,
              "velocity": 104,
              "position": 1.7645833333333334,
              "duration": 0.12083333333333333
            },
            {
              "pitch": 55,
              "velocity": 95,
              "position": 1.7708333333333333,
              "duration": 0.13333333333333333
            },
            {
              "pitch": 59,
              "velocity": 95,
              "position": 1.7604166666666667,
              "duration": 0.15833333333333333
            },
            {
              "pitch": 24,
              "velocity": 104,
              "position": 2,
              "duration": 0.29791666666666666
            },
            {
              "pitch": 36,
              "velocity": 104,
              "position": 2,
              "duration": 0.29791666666666666
            },
            {
              "pitch": 64,
              "velocity": 86,
              "position": 2.2708333333333335,
              "duration": 0.13333333333333333
            },
            {
              "pitch": 55,
              "velocity": 81,
              "position": 2.2708333333333335,
              "duration": 0.15208333333333332
            },
            {
              "pitch": 59,
              "velocity": 89,
              "position": 2.2729166666666667,
              "duration": 0.16458333333333333
            },
            {
              "pitch": 24,
              "velocity": 104,
              "position": 2.5,
              "duration": 0.36041666666666666
            },
            {
              "pitch": 36,
              "velocity": 104,
              "position": 2.5,
              "duration": 0.36041666666666666
            },
            {
              "pitch": 59,
              "velocity": 101,
              "position": 3,
              "duration": 0.5729166666666666
            },
            {
              "pitch": 55,
              "velocity": 104,
              "position": 3,
              "duration": 0.5791666666666667
            },
            {
              "pitch": 64,
              "velocity": 109,
              "position": 2.9895833333333335,
              "duration": 0.5916666666666667
            },
            {
              "pitch": 64,
              "velocity": 104,
              "position": 3.7645833333333334,
              "duration": 0.12083333333333333
            },
            {
              "pitch": 55,
              "velocity": 95,
              "position": 3.7708333333333335,
              "duration": 0.13333333333333333
            },
            {
              "pitch": 59,
              "velocity": 95,
              "position": 3.7604166666666665,
              "duration": 0.15833333333333333
            }
          ]
        },
        "13": {
          "ctab": {
            "srcChannel": 13,
            "name": "Organ",
            "accType": "PAD",
            "editable": false,
            "mutedNotes": [],
            "mutedChords": [],
            "autoStart": false,
            "sourceChordNote": 0,
            "sourceChordType": "Maj7",
            "ctb2Low": null,
            "ctb2Main": {
              "ntr": "ROOT_FIXED",
              "ntt": "CHORD",
              "bassOn": false,
              "chordRootUpperLimit": 7,
              "noteLowLimit": 0,
              "noteHighLimit": 127,
              "rtr": "PITCH_SHIFT"
            },
            "ctb2High": null
          },
          "notes": [
            {
              "pitch": 59,
              "velocity": 50,
              "position": 0.010416666666666666,
              "duration": 3.8541666666666665
            },
            {
              "pitch": 64,
              "velocity": 50,
              "position": 0.010416666666666666,
              "duration": 3.8541666666666665
            },
            {
              "pitch": 67,
              "velocity": 50,
              "position": 0.010416666666666666,
              "duration": 3.8541666666666665
            }
          ]
        },
        "14": {
          "ctab": {
            "srcChannel": 14,
            "name": "Tele",
            "accType": "PHRASE1",
            "editable": false,
            "mutedNotes": [],
            "mutedChords": [],
            "autoStart": false,
            "sourceChordNote": 0,
            "sourceChordType": "Maj7",
            "ctb2Low": null,
            "ctb2Main": {
              "ntr": "ROOT_TRANSPOSITION",
              "ntt": "MELODY",
              "bassOn": false,
              "chordRootUpperLimit": 7,
              "noteLowLimit": 0,
              "noteHighLimit": 127,
              "rtr": "PITCH_SHIFT"
            },
            "ctb2High": null
          },
          "notes": [
            {
              "pitch": 55,
              "velocity": 45,
              "position": 1,
              "duration": 0.7354166666666667
            },
            {
              "pitch": 59,
              "velocity": 45,
              "position": 1,
              "duration": 0.7354166666666667
            },
            {
              "pitch": 60,
              "velocity": 60,
              "position": 1,
              "duration": 0.7375
            },
            {
              "pitch": 64,
              "velocity": 60,
              "position": 1.0104166666666667,
              "duration": 0.7354166666666667
            },
            {
              "pitch": 67,
              "velocity": 60,
              "position": 1.0104166666666667,
              "duration": 0.7375
            },
            {
              "pitch": 71,
              "velocity": 60,
              "position": 1.0104166666666667,
              "duration": 0.7375
            },
            {
              "pitch": 67,
              "velocity": 60,
              "position": 1.7729166666666667,
              "duration": 0.2375
            },
            {
              "pitch": 71,
              "velocity": 60,
              "position": 1.7729166666666667,
              "duration": 0.2375
            },
            {
              "pitch": 64,
              "velocity": 60,
              "position": 1.78125,
              "duration": 0.23541666666666666
            },
            {
              "pitch": 60,
              "velocity": 60,
              "position": 1.7854166666666667,
              "duration": 0.2375
            },
            {
              "pitch": 55,
              "velocity": 45,
              "position": 1.7916666666666667,
              "duration": 0.2375
            },
            {
              "pitch": 59,
              "velocity": 45,
              "position": 1.7916666666666667,
              "duration": 0.2375
            },
            {
              "pitch": 55,
              "velocity": 45,
              "position": 3,
              "duration": 0.24583333333333332
            },
            {
              "pitch": 59,
              "velocity": 45,
              "position": 3,
              "duration": 0.24583333333333332
            },
            {
              "pitch": 60,
              "velocity": 60,
              "position": 3,
              "duration": 0.24583333333333332
            },
            {
              "pitch": 55,
              "velocity": 30,
              "position": 3.28125,
              "duration": 0.20833333333333334
            },
            {
              "pitch": 59,
              "velocity": 30,
              "position": 3.28125,
              "duration": 0.20833333333333334
            },
            {
              "pitch": 60,
              "velocity": 45,
              "position": 3.2729166666666667,
              "duration": 0.21875
            },
            {
              "pitch": 64,
              "velocity": 60,
              "position": 3.0104166666666665,
              "duration": 0.4875
            },
            {
              "pitch": 55,
              "velocity": 38,
              "position": 3.5,
              "duration": 0.23541666666666666
            },
            {
              "pitch": 59,
              "velocity": 38,
              "position": 3.5,
              "duration": 0.23541666666666666
            },
            {
              "pitch": 60,
              "velocity": 53,
              "position": 3.5,
              "duration": 0.2375
            },
            {
              "pitch": 64,
              "velocity": 53,
              "position": 3.5104166666666665,
              "duration": 0.23541666666666666
            },
            {
              "pitch": 67,
              "velocity": 60,
              "position": 3.0104166666666665,
              "duration": 0.7375
            },
            {
              "pitch": 71,
              "velocity": 60,
              "position": 3.0104166666666665,
              "duration": 0.7375
            },
            {
              "pitch": 60,
              "velocity": 60,
              "position": 3.785416666666667,
              "duration": 0.19375
            },
            {
              "pitch": 67,
              "velocity": 60,
              "position": 3.7729166666666667,
              "duration": 0.20833333333333334
            },
            {
              "pitch": 71,
              "velocity": 60,
              "position": 3.7729166666666667,
              "duration": 0.20833333333333334
            },
            {
              "pitch": 55,
              "velocity": 45,
              "position": 3.7916666666666665,
              "duration": 0.19375
            },
            {
              "pitch": 59,
              "velocity": 45,
              "position": 3.7916666666666665,
              "duration": 0.19375
            },
            {
              "pitch": 64,
              "velocity": 60,
              "position": 3.78125,
              "duration": 0.20833333333333334
            }
          ]
        }
      }
    },
    "Fill_In_DD": {
      "type": "Fill_In_DD",
      "sizeInBeats": 4,
      "channels": {
        "1": {
          "ctab": {
            "srcChannel": 1,
            "name": "Bass B",
            "accType": "BASS",
            "editable": false,
            "mutedNotes": [],
            "mutedChords": [
              "1+2+5",
              "1+5",
              "1+8",
              "7(#9)",
              "7(b13)",
              "7(b9)",
              "7(13)",
              "7#11",
              "7(9)",
              "7b5",
              "7sus4",
              "7th",
              "dim7",
              "dim",
              "min7(11)",
              "min7(9)",
              "m7b5",
              "min7",
              "min6",
              "Maj6(9)",
              "Maj7(9)",
              "Maj(9)",
              "Maj7#11",
              "Maj7",
              "Maj6",
              "Maj"
            ],
            "autoStart": false,
            "sourceChordNote": 0,
            "sourceChordType": "Maj7",
            "ctb2Low": null,
            "ctb2Main": {
              "ntr": "ROOT_TRANSPOSITION",
              "ntt": "MELODY",
              "bassOn": true,
              "chordRootUpperLimit": 3,
              "noteLowLimit": 28,
              "noteHighLimit": 127,
              "rtr": "PITCH_SHIFT_TO_ROOT"
            },
            "ctb2High": null
          },
          "notes": [
            {
              "pitch": 36,
              "velocity": 68,
              "position": 0,
              "duration": 0.29791666666666666
            },
            {
              "pitch": 36,
              "velocity": 74,
              "position": 0.48125,
              "duration": 0.6125
            },
            {
              "pitch": 36,
              "velocity": 110,
              "position": 1.2854166666666667,
              "duration": 0.17916666666666667
            },
            {
              "pitch": 48,
              "velocity": 66,
              "position": 1.4791666666666667,
              "duration": 0.19583333333333333
            },
            {
              "pitch": 43,
              "velocity": 61,
              "position": 1.78125,
              "duration": 0.19583333333333333
            },
            {
              "pitch": 36,
              "velocity": 67,
              "position": 2,
              "duration": 0.29791666666666666
            },
            {
              "pitch": 36,
              "velocity": 67,
              "position": 2.5104166666666665,
              "duration": 0.50625
            },
            {
              "pitch": 36,
              "velocity": 110,
              "position": 3.03125,
              "duration": 0.23541666666666666
            },
            {
              "pitch": 36,
              "velocity": 69,
              "position": 3.285416666666667,
              "duration": 0.6708333333333333
            }
          ]
        },
        "4": {
          "ctab": {
            "srcChannel": 4,
            "name": "Organ rt",
            "accType": "PAD",
            "editable": false,
            "mutedNotes": [],
            "mutedChords": [
              "1+2+5",
              "sus4",
              "1+5",
              "1+8",
              "Maj7aug",
              "dim",
              "minMaj7(9)",
              "minMaj7",
              "min6",
              "min",
              "aug",
              "Maj7(9)",
              "Maj7#11",
              "Maj7",
              "Maj6",
              "Maj"
            ],
            "autoStart": false,
            "sourceChordNote": 0,
            "sourceChordType": "Maj7",
            "ctb2Low": null,
            "ctb2Main": {
              "ntr": "ROOT_TRANSPOSITION",
              "ntt": "MELODY",
              "bassOn": false,
              "chordRootUpperLimit": 10,
              "noteLowLimit": 0,
              "noteHighLimit": 127,
              "rtr": "PITCH_SHIFT"
            },
            "ctb2High": null
          },
          "notes": [
            {
              "pitch": 60,
              "velocity": 48,
              "position": 0,
              "duration": 3.9854166666666666
            }
          ]
        },
        "8": {
          "ctab": {
            "srcChannel": 8,
            "name": "AddDrum",
            "accType": "SUBRHYTHM",
            "editable": false,
            "mutedNotes": [],
            "mutedChords": [],
            "autoStart": true,
            "sourceChordNote": 0,
            "sourceChordType": "Maj7",
            "ctb2Low": null,
            "ctb2Main": {
              "ntr": "ROOT_FIXED",
              "ntt": "BYPASS",
              "bassOn": false,
              "chordRootUpperLimit": 6,
              "noteLowLimit": 0,
              "noteHighLimit": 127,
              "rtr": "PITCH_SHIFT"
            },
            "ctb2High": null
          },
          "notes": [
            {
              "pitch": 42,
              "velocity": 120,
              "position": 0,
              "duration": 0.00625
            },
            {
              "pitch": 32,
              "velocity": 34,
              "position": 0.2708333333333333,
              "duration": 0.00625
            },
            {
              "pitch": 46,
              "velocity": 60,
              "position": 0.5,
              "duration": 0.00625
            },
            {
              "pitch": 32,
              "velocity": 104,
              "position": 1,
              "duration": 0.00625
            },
            {
              "pitch": 42,
              "velocity": 120,
              "position": 1,
              "duration": 0.00625
            },
            {
              "pitch": 46,
              "velocity": 40,
              "position": 1.5,
              "duration": 0.00625
            },
            {
              "pitch": 32,
              "velocity": 24,
              "position": 1.7708333333333333,
              "duration": 0.00625
            },
            {
              "pitch": 26,
              "velocity": 50,
              "position": 0,
              "duration": 1.9854166666666666
            },
            {
              "pitch": 42,
              "velocity": 120,
              "position": 2,
              "duration": 0.00625
            },
            {
              "pitch": 32,
              "velocity": 24,
              "position": 2.2708333333333335,
              "duration": 0.00625
            },
            {
              "pitch": 46,
              "velocity": 40,
              "position": 2.5,
              "duration": 0.00625
            },
            {
              "pitch": 32,
              "velocity": 104,
              "position": 3,
              "duration": 0.00625
            },
            {
              "pitch": 42,
              "velocity": 120,
              "position": 3,
              "duration": 0.00625
            },
            {
              "pitch": 18,
              "velocity": 81,
              "position": 2.6666666666666665,
              "duration": 0.4875
            },
            {
              "pitch": 17,
              "velocity": 127,
              "position": 3,
              "duration": 0.48541666666666666
            },
            {
              "pitch": 46,
              "velocity": 60,
              "position": 3.5,
              "duration": 0.00625
            },
            {
              "pitch": 18,
              "velocity": 81,
              "position": 3.1666666666666665,
              "duration": 0.4875
            },
            {
              "pitch": 32,
              "velocity": 34,
              "position": 3.7708333333333335,
              "duration": 0.00625
            },
            {
              "pitch": 17,
              "velocity": 127,
              "position": 3.5,
              "duration": 0.48541666666666666
            },
            {
              "pitch": 26,
              "velocity": 50,
              "position": 2,
              "duration": 1.9854166666666666
            }
          ]
        },
        "9": {
          "ctab": {
            "srcChannel": 9,
            "name": "MainDrum",
            "accType": "RHYTHM",
            "editable": false,
            "mutedNotes": [],
            "mutedChords": [],
            "autoStart": true,
            "sourceChordNote": 0,
            "sourceChordType": "Maj7",
            "ctb2Low": null,
            "ctb2Main": {
              "ntr": "ROOT_FIXED",
              "ntt": "BYPASS",
              "bassOn": false,
              "chordRootUpperLimit": 6,
              "noteLowLimit": 0,
              "noteHighLimit": 127,
              "rtr": "PITCH_SHIFT"
            },
            "ctb2High": null
          },
          "notes": [
            {
              "pitch": 35,
              "velocity": 100,
              "position": 0,
              "duration": 0.00625
            },
            {
              "pitch": 53,
              "velocity": 102,
              "position": 0,
              "duration": 0.00625
            },
            {
              "pitch": 54,
              "velocity": 119,
              "position": 0,
              "duration": 0.00625
            },
            {
              "pitch": 38,
              "velocity": 22,
              "position": 0.2708333333333333,
              "duration": 0.00625
            },
            {
              "pitch": 54,
              "velocity": 37,
              "position": 0.2708333333333333,
              "duration": 0.00625
            },
            {
              "pitch": 38,
              "velocity": 78,
              "position": 0.3875,
              "duration": 0.00625
            },
            {
              "pitch": 35,
              "velocity": 100,
              "position": 0.5,
              "duration": 0.00625
            },
            {
              "pitch": 38,
              "velocity": 110,
              "position": 0.5,
              "duration": 0.00625
            },
            {
              "pitch": 44,
              "velocity": 60,
              "position": 0.5,
              "duration": 0.00625
            },
            {
              "pitch": 53,
              "velocity": 70,
              "position": 0.5,
              "duration": 0.00625
            },
            {
              "pitch": 54,
              "velocity": 41,
              "position": 0.5,
              "duration": 0.00625
            },
            {
              "pitch": 38,
              "velocity": 58,
              "position": 0.7604166666666666,
              "duration": 0.00625
            },
            {
              "pitch": 54,
              "velocity": 68,
              "position": 0.7708333333333334,
              "duration": 0.00625
            },
            {
              "pitch": 54,
              "velocity": 49,
              "position": 0.9895833333333334,
              "duration": 0.00625
            },
            {
              "pitch": 38,
              "velocity": 110,
              "position": 1,
              "duration": 0.00625
            },
            {
              "pitch": 53,
              "velocity": 102,
              "position": 1,
              "duration": 0.00625
            },
            {
              "pitch": 38,
              "velocity": 58,
              "position": 1.2604166666666667,
              "duration": 0.00625
            },
            {
              "pitch": 54,
              "velocity": 46,
              "position": 1.2625,
              "duration": 0.00625
            },
            {
              "pitch": 35,
              "velocity": 80,
              "position": 1.2708333333333333,
              "duration": 0.00625
            },
            {
              "pitch": 38,
              "velocity": 81,
              "position": 1.5,
              "duration": 0.00625
            },
            {
              "pitch": 44,
              "velocity": 60,
              "position": 1.5,
              "duration": 0.00625
            },
            {
              "pitch": 53,
              "velocity": 70,
              "position": 1.5,
              "duration": 0.00625
            },
            {
              "pitch": 54,
              "velocity": 41,
              "position": 1.5041666666666667,
              "duration": 0.00625
            },
            {
              "pitch": 35,
              "velocity": 50,
              "position": 1.7708333333333333,
              "duration": 0.00625
            },
            {
              "pitch": 38,
              "velocity": 110,
              "position": 1.7708333333333333,
              "duration": 0.00625
            },
            {
              "pitch": 54,
              "velocity": 30,
              "position": 1.7708333333333333,
              "duration": 0.00625
            },
            {
              "pitch": 35,
              "velocity": 100,
              "position": 2,
              "duration": 0.00625
            },
            {
              "pitch": 54,
              "velocity": 54,
              "position": 2,
              "duration": 0.00625
            },
            {
              "pitch": 57,
              "velocity": 85,
              "position": 2,
              "duration": 0.00625
            },
            {
              "pitch": 54,
              "velocity": 25,
              "position": 2.2604166666666665,
              "duration": 0.00625
            },
            {
              "pitch": 47,
              "velocity": 72,
              "position": 2.2708333333333335,
              "duration": 0.00625
            },
            {
              "pitch": 35,
              "velocity": 100,
              "position": 2.5,
              "duration": 0.00625
            },
            {
              "pitch": 44,
              "velocity": 60,
              "position": 2.5,
              "duration": 0.00625
            },
            {
              "pitch": 47,
              "velocity": 102,
              "position": 2.5,
              "duration": 0.00625
            },
            {
              "pitch": 53,
              "velocity": 70,
              "position": 2.5,
              "duration": 0.00625
            },
            {
              "pitch": 54,
              "velocity": 37,
              "position": 2.5,
              "duration": 0.00625
            },
            {
              "pitch": 54,
              "velocity": 51,
              "position": 2.7625,
              "duration": 0.00625
            },
            {
              "pitch": 45,
              "velocity": 70,
              "position": 2.7708333333333335,
              "duration": 0.00625
            },
            {
              "pitch": 45,
              "velocity": 94,
              "position": 3,
              "duration": 0.00625
            },
            {
              "pitch": 53,
              "velocity": 102,
              "position": 3,
              "duration": 0.00625
            },
            {
              "pitch": 54,
              "velocity": 106,
              "position": 3,
              "duration": 0.00625
            },
            {
              "pitch": 54,
              "velocity": 50,
              "position": 3.2625,
              "duration": 0.00625
            },
            {
              "pitch": 35,
              "velocity": 100,
              "position": 3.2708333333333335,
              "duration": 0.00625
            },
            {
              "pitch": 43,
              "velocity": 70,
              "position": 3.2708333333333335,
              "duration": 0.00625
            },
            {
              "pitch": 54,
              "velocity": 47,
              "position": 3.4895833333333335,
              "duration": 0.00625
            },
            {
              "pitch": 43,
              "velocity": 94,
              "position": 3.5,
              "duration": 0.00625
            },
            {
              "pitch": 44,
              "velocity": 60,
              "position": 3.5,
              "duration": 0.00625
            },
            {
              "pitch": 53,
              "velocity": 70,
              "position": 3.5,
              "duration": 0.00625
            },
            {
              "pitch": 35,
              "velocity": 80,
              "position": 3.7708333333333335,
              "duration": 0.00625
            },
            {
              "pitch": 38,
              "velocity": 110,
              "position": 3.7708333333333335,
              "duration": 0.00625
            },
            {
              "pitch": 54,
              "velocity": 67,
              "position": 3.7708333333333335,
              "duration": 0.00625
            },
            {
              "pitch": 49,
              "velocity": 80,
              "position": 3.9895833333333335,
              "duration": 0.00625
            }
          ]
        },
        "10": {
          "ctab": {
            "srcChannel": 10,
            "name": "Bass A",
            "accType": "BASS",
            "editable": false,
            "mutedNotes": [],
            "mutedChords": [
              "sus4",
              "7aug",
              "Maj7aug",
              "minMaj7(9)",
              "minMaj7",
              "min(9)",
              "min",
              "aug"
            ],
            "autoStart": false,
            "sourceChordNote": 0,
            "sourceChordType": "Maj7",
            "ctb2Low": null,
            "ctb2Main": {
              "ntr": "ROOT_TRANSPOSITION",
              "ntt": "MELODY",
              "bassOn": true,
              "chordRootUpperLimit": 3,
              "noteLowLimit": 28,
              "noteHighLimit": 127,
              "rtr": "PITCH_SHIFT_TO_ROOT"
            },
            "ctb2High": null
          },
          "notes": [
            {
              "pitch": 36,
              "velocity": 68,
              "position": 0,
              "duration": 0.29791666666666666
            },
            {
              "pitch": 36,
              "velocity": 74,
              "position": 0.48125,
              "duration": 0.6125
            },
            {
              "pitch": 36,
              "velocity": 110,
              "position": 1.2854166666666667,
              "duration": 0.17916666666666667
            },
            {
              "pitch": 48,
              "velocity": 66,
              "position": 1.4791666666666667,
              "duration": 0.19583333333333333
            },
            {
              "pitch": 43,
              "velocity": 61,
              "position": 1.78125,
              "duration": 0.19583333333333333
            },
            {
              "pitch": 36,
              "velocity": 67,
              "position": 2,
              "duration": 0.29791666666666666
            },
            {
              "pitch": 36,
              "velocity": 67,
              "position": 2.5104166666666665,
              "duration": 0.50625
            },
            {
              "pitch": 36,
              "velocity": 110,
              "position": 3.03125,
              "duration": 0.23541666666666666
            },
            {
              "pitch": 36,
              "velocity": 69,
              "position": 3.285416666666667,
              "duration": 0.6708333333333333
            }
          ]
        },
        "11": {
          "ctab": {
            "srcChannel": 11,
            "name": "Strat",
            "accType": "CHORD1",
            "editable": false,
            "mutedNotes": [],
            "mutedChords": [],
            "autoStart": false,
            "sourceChordNote": 0,
            "sourceChordType": "Maj7",
            "ctb2Low": null,
            "ctb2Main": {
              "ntr": "ROOT_TRANSPOSITION",
              "ntt": "MELODY",
              "bassOn": false,
              "chordRootUpperLimit": 7,
              "noteLowLimit": 0,
              "noteHighLimit": 127,
              "rtr": "PITCH_SHIFT"
            },
            "ctb2High": null
          },
          "notes": [
            {
              "pitch": 55,
              "velocity": 52,
              "position": 0.5,
              "duration": 0.23541666666666666
            },
            {
              "pitch": 59,
              "velocity": 52,
              "position": 0.5,
              "duration": 0.23541666666666666
            },
            {
              "pitch": 60,
              "velocity": 43,
              "position": 0.5,
              "duration": 0.2375
            },
            {
              "pitch": 64,
              "velocity": 37,
              "position": 0.5104166666666666,
              "duration": 0.23541666666666666
            },
            {
              "pitch": 64,
              "velocity": 19,
              "position": 1.0104166666666667,
              "duration": 0.25625
            },
            {
              "pitch": 60,
              "velocity": 28,
              "position": 1,
              "duration": 0.26875
            },
            {
              "pitch": 55,
              "velocity": 31,
              "position": 1,
              "duration": 0.27708333333333335
            },
            {
              "pitch": 59,
              "velocity": 31,
              "position": 1,
              "duration": 0.27708333333333335
            },
            {
              "pitch": 64,
              "velocity": 33,
              "position": 1.28125,
              "duration": 0.23541666666666666
            },
            {
              "pitch": 60,
              "velocity": 33,
              "position": 1.28125,
              "duration": 0.2375
            },
            {
              "pitch": 55,
              "velocity": 46,
              "position": 1.2916666666666667,
              "duration": 0.23541666666666666
            },
            {
              "pitch": 59,
              "velocity": 46,
              "position": 1.2916666666666667,
              "duration": 0.23541666666666666
            },
            {
              "pitch": 60,
              "velocity": 40,
              "position": 2,
              "duration": 0.25833333333333336
            },
            {
              "pitch": 55,
              "velocity": 51,
              "position": 2,
              "duration": 0.26666666666666666
            },
            {
              "pitch": 59,
              "velocity": 51,
              "position": 2,
              "duration": 0.26666666666666666
            },
            {
              "pitch": 55,
              "velocity": 20,
              "position": 2.28125,
              "duration": 0.20416666666666666
            },
            {
              "pitch": 59,
              "velocity": 20,
              "position": 2.28125,
              "duration": 0.20416666666666666
            },
            {
              "pitch": 60,
              "velocity": 24,
              "position": 2.2708333333333335,
              "duration": 0.21666666666666667
            },
            {
              "pitch": 64,
              "velocity": 44,
              "position": 2.0104166666666665,
              "duration": 0.48541666666666666
            },
            {
              "pitch": 64,
              "velocity": 36,
              "position": 2.5104166666666665,
              "duration": 0.25625
            },
            {
              "pitch": 60,
              "velocity": 41,
              "position": 2.5,
              "duration": 0.26875
            },
            {
              "pitch": 55,
              "velocity": 36,
              "position": 2.5,
              "duration": 0.27708333333333335
            },
            {
              "pitch": 59,
              "velocity": 36,
              "position": 2.5,
              "duration": 0.27708333333333335
            },
            {
              "pitch": 60,
              "velocity": 35,
              "position": 2.78125,
              "duration": 0.20416666666666666
            },
            {
              "pitch": 64,
              "velocity": 32,
              "position": 2.78125,
              "duration": 0.20416666666666666
            },
            {
              "pitch": 55,
              "velocity": 43,
              "position": 2.7916666666666665,
              "duration": 0.20416666666666666
            },
            {
              "pitch": 59,
              "velocity": 43,
              "position": 2.7916666666666665,
              "duration": 0.20416666666666666
            },
            {
              "pitch": 64,
              "velocity": 43,
              "position": 3.5104166666666665,
              "duration": 0.25625
            },
            {
              "pitch": 60,
              "velocity": 41,
              "position": 3.5,
              "duration": 0.26875
            },
            {
              "pitch": 55,
              "velocity": 52,
              "position": 3.5,
              "duration": 0.48541666666666666
            },
            {
              "pitch": 59,
              "velocity": 52,
              "position": 3.5,
              "duration": 0.48541666666666666
            },
            {
              "pitch": 60,
              "velocity": 38,
              "position": 3.78125,
              "duration": 0.20625
            },
            {
              "pitch": 64,
              "velocity": 39,
              "position": 3.78125,
              "duration": 0.20625
            }
          ]
        },
        "12": {
          "ctab": {
            "srcChannel": 12,
            "name": "Piano",
            "accType": "CHORD2",
            "editable": false,
            "mutedNotes": [],
            "mutedChords": [],
            "autoStart": false,
            "sourceChordNote": 0,
            "sourceChordType": "Maj7",
            "ctb2Low": null,
            "ctb2Main": {
              "ntr": "ROOT_FIXED",
              "ntt": "CHORD",
              "bassOn": false,
              "chordRootUpperLimit": 7,
              "noteLowLimit": 0,
              "noteHighLimit": 127,
              "rtr": "PITCH_SHIFT"
            },
            "ctb2High": null
          },
          "notes": [
            {
              "pitch": 24,
              "velocity": 104,
              "position": 0,
              "duration": 0.1625
            },
            {
              "pitch": 36,
              "velocity": 104,
              "position": 0,
              "duration": 0.1625
            },
            {
              "pitch": 55,
              "velocity": 83,
              "position": 0.2625,
              "duration": 0.13958333333333334
            },
            {
              "pitch": 64,
              "velocity": 90,
              "position": 0.275,
              "duration": 0.13125
            },
            {
              "pitch": 59,
              "velocity": 88,
              "position": 0.26458333333333334,
              "duration": 0.14375
            },
            {
              "pitch": 24,
              "velocity": 104,
              "position": 0.5,
              "duration": 0.36041666666666666
            },
            {
              "pitch": 36,
              "velocity": 104,
              "position": 0.5,
              "duration": 0.36041666666666666
            },
            {
              "pitch": 55,
              "velocity": 108,
              "position": 1,
              "duration": 0.5208333333333334
            },
            {
              "pitch": 59,
              "velocity": 118,
              "position": 1.0020833333333334,
              "duration": 0.53125
            },
            {
              "pitch": 64,
              "velocity": 118,
              "position": 1.0041666666666667,
              "duration": 0.54375
            },
            {
              "pitch": 24,
              "velocity": 104,
              "position": 1.2708333333333333,
              "duration": 0.6104166666666667
            },
            {
              "pitch": 36,
              "velocity": 104,
              "position": 1.2708333333333333,
              "duration": 0.6104166666666667
            },
            {
              "pitch": 59,
              "velocity": 108,
              "position": 1.7625,
              "duration": 0.17291666666666666
            },
            {
              "pitch": 64,
              "velocity": 117,
              "position": 1.7708333333333333,
              "duration": 0.19583333333333333
            },
            {
              "pitch": 55,
              "velocity": 106,
              "position": 1.7625,
              "duration": 0.23958333333333334
            },
            {
              "pitch": 24,
              "velocity": 104,
              "position": 2,
              "duration": 0.21458333333333332
            },
            {
              "pitch": 36,
              "velocity": 104,
              "position": 2,
              "duration": 0.21458333333333332
            },
            {
              "pitch": 55,
              "velocity": 83,
              "position": 2.2625,
              "duration": 0.13958333333333334
            },
            {
              "pitch": 64,
              "velocity": 90,
              "position": 2.275,
              "duration": 0.13125
            },
            {
              "pitch": 59,
              "velocity": 88,
              "position": 2.2645833333333334,
              "duration": 0.14375
            },
            {
              "pitch": 24,
              "velocity": 104,
              "position": 2.5,
              "duration": 0.36041666666666666
            },
            {
              "pitch": 36,
              "velocity": 104,
              "position": 2.5,
              "duration": 0.36041666666666666
            },
            {
              "pitch": 24,
              "velocity": 102,
              "position": 3.2708333333333335,
              "duration": 0.6104166666666667
            },
            {
              "pitch": 36,
              "velocity": 102,
              "position": 3.2708333333333335,
              "duration": 0.6104166666666667
            },
            {
              "pitch": 55,
              "velocity": 108,
              "position": 3,
              "duration": 0.8958333333333334
            },
            {
              "pitch": 59,
              "velocity": 118,
              "position": 3.002083333333333,
              "duration": 0.90625
            },
            {
              "pitch": 64,
              "velocity": 118,
              "position": 3.004166666666667,
              "duration": 0.91875
            }
          ]
        },
        "13": {
          "ctab": {
            "srcChannel": 13,
            "name": "Organ",
            "accType": "PAD",
            "editable": false,
            "mutedNotes": [],
            "mutedChords": [],
            "autoStart": false,
            "sourceChordNote": 0,
            "sourceChordType": "Maj7",
            "ctb2Low": null,
            "ctb2Main": {
              "ntr": "ROOT_FIXED",
              "ntt": "CHORD",
              "bassOn": false,
              "chordRootUpperLimit": 7,
              "noteLowLimit": 0,
              "noteHighLimit": 127,
              "rtr": "PITCH_SHIFT"
            },
            "ctb2High": null
          },
          "notes": [
            {
              "pitch": 59,
              "velocity": 48,
              "position": 0,
              "duration": 3.9854166666666666
            },
            {
              "pitch": 64,
              "velocity": 48,
              "position": 0,
              "duration": 3.9854166666666666
            },
            {
              "pitch": 67,
              "velocity": 48,
              "position": 0,
              "duration": 3.9854166666666666
            }
          ]
        },
        "14": {
          "ctab": {
            "srcChannel": 14,
            "name": "Tele",
            "accType": "PHRASE1",
            "editable": false,
            "mutedNotes": [],
            "mutedChords": [],
            "autoStart": false,
            "sourceChordNote": 0,
            "sourceChordType": "Maj7",
            "ctb2Low": null,
            "ctb2Main": {
              "ntr": "ROOT_TRANSPOSITION",
              "ntt": "MELODY",
              "bassOn": false,
              "chordRootUpperLimit": 7,
              "noteLowLimit": 0,
              "noteHighLimit": 127,
              "rtr": "PITCH_SHIFT"
            },
            "ctb2High": null
          },
          "notes": [
            {
              "pitch": 55,
              "velocity": 45,
              "position": 0.5,
              "duration": 0.23541666666666666
            },
            {
              "pitch": 59,
              "velocity": 45,
              "position": 0.5,
              "duration": 0.23541666666666666
            },
            {
              "pitch": 60,
              "velocity": 60,
              "position": 0.5,
              "duration": 0.2375
            },
            {
              "pitch": 64,
              "velocity": 57,
              "position": 0.5104166666666666,
              "duration": 0.23541666666666666
            },
            {
              "pitch": 67,
              "velocity": 60,
              "position": 0.5104166666666666,
              "duration": 0.2375
            },
            {
              "pitch": 71,
              "velocity": 60,
              "position": 0.5104166666666666,
              "duration": 0.2375
            },
            {
              "pitch": 67,
              "velocity": 53,
              "position": 1.2729166666666667,
              "duration": 0.2375
            },
            {
              "pitch": 71,
              "velocity": 53,
              "position": 1.2729166666666667,
              "duration": 0.2375
            },
            {
              "pitch": 64,
              "velocity": 53,
              "position": 1.28125,
              "duration": 0.23541666666666666
            },
            {
              "pitch": 60,
              "velocity": 53,
              "position": 1.2854166666666667,
              "duration": 0.2375
            },
            {
              "pitch": 55,
              "velocity": 45,
              "position": 1.2916666666666667,
              "duration": 0.2375
            },
            {
              "pitch": 59,
              "velocity": 45,
              "position": 1.2916666666666667,
              "duration": 0.2375
            },
            {
              "pitch": 55,
              "velocity": 45,
              "position": 2,
              "duration": 0.23541666666666666
            },
            {
              "pitch": 59,
              "velocity": 45,
              "position": 2,
              "duration": 0.23541666666666666
            },
            {
              "pitch": 60,
              "velocity": 60,
              "position": 2,
              "duration": 0.2375
            },
            {
              "pitch": 64,
              "velocity": 60,
              "position": 2.0104166666666665,
              "duration": 0.23541666666666666
            },
            {
              "pitch": 67,
              "velocity": 59,
              "position": 2.0104166666666665,
              "duration": 0.2375
            },
            {
              "pitch": 71,
              "velocity": 59,
              "position": 2.0104166666666665,
              "duration": 0.2375
            },
            {
              "pitch": 67,
              "velocity": 51,
              "position": 2.7729166666666667,
              "duration": 0.2375
            },
            {
              "pitch": 71,
              "velocity": 51,
              "position": 2.7729166666666667,
              "duration": 0.2375
            },
            {
              "pitch": 64,
              "velocity": 52,
              "position": 2.78125,
              "duration": 0.23541666666666666
            },
            {
              "pitch": 60,
              "velocity": 55,
              "position": 2.785416666666667,
              "duration": 0.2375
            },
            {
              "pitch": 55,
              "velocity": 43,
              "position": 2.7916666666666665,
              "duration": 0.2375
            },
            {
              "pitch": 59,
              "velocity": 43,
              "position": 2.7916666666666665,
              "duration": 0.2375
            },
            {
              "pitch": 55,
              "velocity": 29,
              "position": 3.285416666666667,
              "duration": 0.20416666666666666
            },
            {
              "pitch": 59,
              "velocity": 29,
              "position": 3.285416666666667,
              "duration": 0.20416666666666666
            },
            {
              "pitch": 60,
              "velocity": 45,
              "position": 3.28125,
              "duration": 0.20833333333333334
            },
            {
              "pitch": 64,
              "velocity": 43,
              "position": 3.2729166666666667,
              "duration": 0.21875
            },
            {
              "pitch": 67,
              "velocity": 60,
              "position": 3.5104166666666665,
              "duration": 0.24791666666666667
            },
            {
              "pitch": 71,
              "velocity": 60,
              "position": 3.5104166666666665,
              "duration": 0.24791666666666667
            },
            {
              "pitch": 64,
              "velocity": 60,
              "position": 3.5104166666666665,
              "duration": 0.25625
            },
            {
              "pitch": 60,
              "velocity": 60,
              "position": 3.5,
              "duration": 0.26875
            },
            {
              "pitch": 55,
              "velocity": 36,
              "position": 3.5,
              "duration": 0.48541666666666666
            },
            {
              "pitch": 59,
              "velocity": 36,
              "position": 3.5,
              "duration": 0.48541666666666666
            },
            {
              "pitch": 60,
              "velocity": 44,
              "position": 3.785416666666667,
              "duration": 0.20416666666666666
            },
            {
              "pitch": 64,
              "velocity": 45,
              "position": 3.78125,
              "duration": 0.20833333333333334
            },
            {
              "pitch": 67,
              "velocity": 43,
              "position": 3.7729166666666667,
              "duration": 0.21666666666666667
            },
            {
              "pitch": 71,
              "velocity": 43,
              "position": 3.7729166666666667,
              "duration": 0.21666666666666667
            }
          ]
        }
      }
    },
    "Intro_A": {
      "type": "Intro_A",
      "sizeInBeats": 4,
      "channels": {
        "1": {
          "ctab": {
            "srcChannel": 1,
            "name": "Bass B",
            "accType": "BASS",
            "editable": false,
            "mutedNotes": [],
            "mutedChords": [
              "1+2+5",
              "1+5",
              "1+8",
              "7(#9)",
              "7(b13)",
              "7(b9)",
              "7(13)",
              "7#11",
              "7(9)",
              "7b5",
              "7sus4",
              "7th",
              "dim7",
              "dim",
              "min7(11)",
              "min7(9)",
              "m7b5",
              "min7",
              "min6",
              "Maj6(9)",
              "Maj7(9)",
              "Maj(9)",
              "Maj7#11",
              "Maj7",
              "Maj6",
              "Maj"
            ],
            "autoStart": false,
            "sourceChordNote": 0,
            "sourceChordType": "Maj7",
            "ctb2Low": null,
            "ctb2Main": {
              "ntr": "ROOT_TRANSPOSITION",
              "ntt": "MELODY",
              "bassOn": true,
              "chordRootUpperLimit": 3,
              "noteLowLimit": 28,
              "noteHighLimit": 127,
              "rtr": "PITCH_SHIFT_TO_ROOT"
            },
            "ctb2High": null
          },
          "notes": []
        },
        "4": {
          "ctab": {
            "srcChannel": 4,
            "name": "Organ rt",
            "accType": "PAD",
            "editable": false,
            "mutedNotes": [],
            "mutedChords": [
              "1+2+5",
              "sus4",
              "1+5",
              "1+8",
              "Maj7aug",
              "dim",
              "minMaj7(9)",
              "minMaj7",
              "min6",
              "min",
              "aug",
              "Maj7(9)",
              "Maj7#11",
              "Maj7",
              "Maj6",
              "Maj"
            ],
            "autoStart": false,
            "sourceChordNote": 0,
            "sourceChordType": "Maj7",
            "ctb2Low": null,
            "ctb2Main": {
              "ntr": "ROOT_TRANSPOSITION",
              "ntt": "MELODY",
              "bassOn": false,
              "chordRootUpperLimit": 10,
              "noteLowLimit": 0,
              "noteHighLimit": 127,
              "rtr": "PITCH_SHIFT"
            },
            "ctb2High": null
          },
          "notes": []
        },
        "8": {
          "ctab": {
            "srcChannel": 8,
            "name": "AddDrum",
            "accType": "SUBRHYTHM",
            "editable": false,
            "mutedNotes": [],
            "mutedChords": [],
            "autoStart": true,
            "sourceChordNote": 0,
            "sourceChordType": "Maj7",
            "ctb2Low": null,
            "ctb2Main": {
              "ntr": "ROOT_FIXED",
              "ntt": "BYPASS",
              "bassOn": false,
              "chordRootUpperLimit": 6,
              "noteLowLimit": 0,
              "noteHighLimit": 127,
              "rtr": "PITCH_SHIFT"
            },
            "ctb2High": null
          },
          "notes": []
        },
        "9": {
          "ctab": {
            "srcChannel": 9,
            "name": "MainDrum",
            "accType": "RHYTHM",
            "editable": false,
            "mutedNotes": [],
            "mutedChords": [],
            "autoStart": true,
            "sourceChordNote": 0,
            "sourceChordType": "Maj7",
            "ctb2Low": null,
            "ctb2Main": {
              "ntr": "ROOT_FIXED",
              "ntt": "BYPASS",
              "bassOn": false,
              "chordRootUpperLimit": 6,
              "noteLowLimit": 0,
              "noteHighLimit": 127,
              "rtr": "PITCH_SHIFT"
            },
            "ctb2High": null
          },
          "notes": [
            {
              "pitch": 32,
              "velocity": 80,
              "position": 0,
              "duration": 0.00625
            },
            {
              "pitch": 44,
              "velocity": 40,
              "position": 0,
              "duration": 0.00625
            },
            {
              "pitch": 32,
              "velocity": 80,
              "position": 1,
              "duration": 0.00625
            },
            {
              "pitch": 44,
              "velocity": 40,
              "position": 1,
              "duration": 0.00625
            },
            {
              "pitch": 38,
              "velocity": 15,
              "position": 1.7708333333333333,
              "duration": 0.00625
            },
            {
              "pitch": 38,
              "velocity": 41,
              "position": 1.8958333333333333,
              "duration": 0.00625
            },
            {
              "pitch": 38,
              "velocity": 104,
              "position": 2,
              "duration": 0.00625
            },
            {
              "pitch": 44,
              "velocity": 40,
              "position": 2,
              "duration": 0.00625
            },
            {
              "pitch": 45,
              "velocity": 81,
              "position": 2.2708333333333335,
              "duration": 0.00625
            },
            {
              "pitch": 35,
              "velocity": 80,
              "position": 2.5,
              "duration": 0.00625
            },
            {
              "pitch": 38,
              "velocity": 97,
              "position": 2.7708333333333335,
              "duration": 0.00625
            },
            {
              "pitch": 35,
              "velocity": 85,
              "position": 3,
              "duration": 0.00625
            },
            {
              "pitch": 44,
              "velocity": 40,
              "position": 3,
              "duration": 0.00625
            },
            {
              "pitch": 38,
              "velocity": 48,
              "position": 3.25,
              "duration": 0.00625
            },
            {
              "pitch": 43,
              "velocity": 76,
              "position": 3.5,
              "duration": 0.00625
            },
            {
              "pitch": 44,
              "velocity": 40,
              "position": 3.5,
              "duration": 0.00625
            },
            {
              "pitch": 49,
              "velocity": 80,
              "position": 3.9895833333333335,
              "duration": 0.00625
            }
          ]
        },
        "10": {
          "ctab": {
            "srcChannel": 10,
            "name": "Bass A",
            "accType": "BASS",
            "editable": false,
            "mutedNotes": [],
            "mutedChords": [
              "sus4",
              "7aug",
              "Maj7aug",
              "minMaj7(9)",
              "minMaj7",
              "min(9)",
              "min",
              "aug"
            ],
            "autoStart": false,
            "sourceChordNote": 0,
            "sourceChordType": "Maj7",
            "ctb2Low": null,
            "ctb2Main": {
              "ntr": "ROOT_TRANSPOSITION",
              "ntt": "MELODY",
              "bassOn": true,
              "chordRootUpperLimit": 3,
              "noteLowLimit": 28,
              "noteHighLimit": 127,
              "rtr": "PITCH_SHIFT_TO_ROOT"
            },
            "ctb2High": null
          },
          "notes": []
        },
        "11": {
          "ctab": {
            "srcChannel": 11,
            "name": "Strat",
            "accType": "CHORD1",
            "editable": false,
            "mutedNotes": [],
            "mutedChords": [],
            "autoStart": false,
            "sourceChordNote": 0,
            "sourceChordType": "Maj7",
            "ctb2Low": null,
            "ctb2Main": {
              "ntr": "ROOT_TRANSPOSITION",
              "ntt": "MELODY",
              "bassOn": false,
              "chordRootUpperLimit": 7,
              "noteLowLimit": 0,
              "noteHighLimit": 127,
              "rtr": "PITCH_SHIFT"
            },
            "ctb2High": null
          },
          "notes": []
        },
        "12": {
          "ctab": {
            "srcChannel": 12,
            "name": "Piano",
            "accType": "CHORD2",
            "editable": false,
            "mutedNotes": [],
            "mutedChords": [],
            "autoStart": false,
            "sourceChordNote": 0,
            "sourceChordType": "Maj7",
            "ctb2Low": null,
            "ctb2Main": {
              "ntr": "ROOT_FIXED",
              "ntt": "CHORD",
              "bassOn": false,
              "chordRootUpperLimit": 7,
              "noteLowLimit": 0,
              "noteHighLimit": 127,
              "rtr": "PITCH_SHIFT"
            },
            "ctb2High": null
          },
          "notes": []
        },
        "13": {
          "ctab": {
            "srcChannel": 13,
            "name": "Organ",
            "accType": "PAD",
            "editable": false,
            "mutedNotes": [],
            "mutedChords": [],
            "autoStart": false,
            "sourceChordNote": 0,
            "sourceChordType": "Maj7",
            "ctb2Low": null,
            "ctb2Main": {
              "ntr": "ROOT_FIXED",
              "ntt": "CHORD",
              "bassOn": false,
              "chordRootUpperLimit": 7,
              "noteLowLimit": 0,
              "noteHighLimit": 127,
              "rtr": "PITCH_SHIFT"
            },
            "ctb2High": null
          },
          "notes": []
        },
        "14": {
          "ctab": {
            "srcChannel": 14,
            "name": "Tele",
            "accType": "PHRASE1",
            "editable": false,
            "mutedNotes": [],
            "mutedChords": [],
            "autoStart": false,
            "sourceChordNote": 0,
            "sourceChordType": "Maj7",
            "ctb2Low": null,
            "ctb2Main": {
              "ntr": "ROOT_TRANSPOSITION",
              "ntt": "MELODY",
              "bassOn": false,
              "chordRootUpperLimit": 7,
              "noteLowLimit": 0,
              "noteHighLimit": 127,
              "rtr": "PITCH_SHIFT"
            },
            "ctb2High": null
          },
          "notes": []
        }
      }
    },
    "Ending_A": {
      "type": "Ending_A",
      "sizeInBeats": 8,
      "channels": {
        "1": {
          "ctab": {
            "srcChannel": 1,
            "name": "Bass B",
            "accType": "BASS",
            "editable": false,
            "mutedNotes": [],
            "mutedChords": [
              "1+2+5",
              "1+5",
              "1+8",
              "7(#9)",
              "7(b13)",
              "7(b9)",
              "7(13)",
              "7#11",
              "7(9)",
              "7b5",
              "7sus4",
              "7th",
              "dim7",
              "dim",
              "min7(11)",
              "min7(9)",
              "m7b5",
              "min7",
              "min6",
              "Maj6(9)",
              "Maj7(9)",
              "Maj(9)",
              "Maj7#11",
              "Maj7",
              "Maj6",
              "Maj"
            ],
            "autoStart": false,
            "sourceChordNote": 0,
            "sourceChordType": "Maj7",
            "ctb2Low": null,
            "ctb2Main": {
              "ntr": "ROOT_TRANSPOSITION",
              "ntt": "MELODY",
              "bassOn": true,
              "chordRootUpperLimit": 3,
              "noteLowLimit": 28,
              "noteHighLimit": 127,
              "rtr": "PITCH_SHIFT_TO_ROOT"
            },
            "ctb2High": null
          },
          "notes": [
            {
              "pitch": 36,
              "velocity": 68,
              "position": 0,
              "duration": 6.995833333333334
            }
          ]
        },
        "4": {
          "ctab": {
            "srcChannel": 4,
            "name": "Organ rt",
            "accType": "PAD",
            "editable": false,
            "mutedNotes": [],
            "mutedChords": [
              "1+2+5",
              "sus4",
              "1+5",
              "1+8",
              "Maj7aug",
              "dim",
              "minMaj7(9)",
              "minMaj7",
              "min6",
              "min",
              "aug",
              "Maj7(9)",
              "Maj7#11",
              "Maj7",
              "Maj6",
              "Maj"
            ],
            "autoStart": false,
            "sourceChordNote": 0,
            "sourceChordType": "Maj7",
            "ctb2Low": null,
            "ctb2Main": {
              "ntr": "ROOT_TRANSPOSITION",
              "ntt": "MELODY",
              "bassOn": false,
              "chordRootUpperLimit": 10,
              "noteLowLimit": 0,
              "noteHighLimit": 127,
              "rtr": "PITCH_SHIFT"
            },
            "ctb2High": null
          },
          "notes": [
            {
              "pitch": 60,
              "velocity": 50,
              "position": 0,
              "duration": 6.995833333333334
            }
          ]
        },
        "8": {
          "ctab": {
            "srcChannel": 8,
            "name": "AddDrum",
            "accType": "SUBRHYTHM",
            "editable": false,
            "mutedNotes": [],
            "mutedChords": [],
            "autoStart": true,
            "sourceChordNote": 0,
            "sourceChordType": "Maj7",
            "ctb2Low": null,
            "ctb2Main": {
              "ntr": "ROOT_FIXED",
              "ntt": "BYPASS",
              "bassOn": false,
              "chordRootUpperLimit": 6,
              "noteLowLimit": 0,
              "noteHighLimit": 127,
              "rtr": "PITCH_SHIFT"
            },
            "ctb2High": null
          },
          "notes": [
            {
              "pitch": 42,
              "velocity": 120,
              "position": 0,
              "duration": 0.00625
            }
          ]
        },
        "9": {
          "ctab": {
            "srcChannel": 9,
            "name": "MainDrum",
            "accType": "RHYTHM",
            "editable": false,
            "mutedNotes": [],
            "mutedChords": [],
            "autoStart": true,
            "sourceChordNote": 0,
            "sourceChordType": "Maj7",
            "ctb2Low": null,
            "ctb2Main": {
              "ntr": "ROOT_FIXED",
              "ntt": "BYPASS",
              "bassOn": false,
              "chordRootUpperLimit": 6,
              "noteLowLimit": 0,
              "noteHighLimit": 127,
              "rtr": "PITCH_SHIFT"
            },
            "ctb2High": null
          },
          "notes": [
            {
              "pitch": 35,
              "velocity": 100,
              "position": 0,
              "duration": 0.00625
            },
            {
              "pitch": 42,
              "velocity": 110,
              "position": 0,
              "duration": 0.00625
            }
          ]
        },
        "10": {
          "ctab": {
            "srcChannel": 10,
            "name": "Bass A",
            "accType": "BASS",
            "editable": false,
            "mutedNotes": [],
            "mutedChords": [
              "sus4",
              "7aug",
              "Maj7aug",
              "minMaj7(9)",
              "minMaj7",
              "min(9)",
              "min",
              "aug"
            ],
            "autoStart": false,
            "sourceChordNote": 0,
            "sourceChordType": "Maj7",
            "ctb2Low": null,
            "ctb2Main": {
              "ntr": "ROOT_TRANSPOSITION",
              "ntt": "MELODY",
              "bassOn": true,
              "chordRootUpperLimit": 3,
              "noteLowLimit": 28,
              "noteHighLimit": 127,
              "rtr": "PITCH_SHIFT_TO_ROOT"
            },
            "ctb2High": null
          },
          "notes": [
            {
              "pitch": 36,
              "velocity": 68,
              "position": 0,
              "duration": 6.995833333333334
            }
          ]
        },
        "11": {
          "ctab": {
            "srcChannel": 11,
            "name": "Strat",
            "accType": "CHORD1",
            "editable": false,
            "mutedNotes": [],
            "mutedChords": [],
            "autoStart": false,
            "sourceChordNote": 0,
            "sourceChordType": "Maj7",
            "ctb2Low": null,
            "ctb2Main": {
              "ntr": "ROOT_TRANSPOSITION",
              "ntt": "MELODY",
              "bassOn": false,
              "chordRootUpperLimit": 7,
              "noteLowLimit": 0,
              "noteHighLimit": 127,
              "rtr": "PITCH_SHIFT"
            },
            "ctb2High": null
          },
          "notes": [
            {
              "pitch": 60,
              "velocity": 48,
              "position": 0,
              "duration": 6.991666666666666
            },
            {
              "pitch": 55,
              "velocity": 54,
              "position": 0,
              "duration": 6.995833333333334
            },
            {
              "pitch": 59,
              "velocity": 54,
              "position": 0,
              "duration": 6.995833333333334
            },
            {
              "pitch": 64,
              "velocity": 43,
              "position": 0.010416666666666666,
              "duration": 6.985416666666667
            }
          ]
        },
        "12": {
          "ctab": {
            "srcChannel": 12,
            "name": "Piano",
            "accType": "CHORD2",
            "editable": false,
            "mutedNotes": [],
            "mutedChords": [],
            "autoStart": false,
            "sourceChordNote": 0,
            "sourceChordType": "Maj7",
            "ctb2Low": null,
            "ctb2Main": {
              "ntr": "ROOT_FIXED",
              "ntt": "CHORD",
              "bassOn": false,
              "chordRootUpperLimit": 7,
              "noteLowLimit": 0,
              "noteHighLimit": 127,
              "rtr": "PITCH_SHIFT"
            },
            "ctb2High": null
          },
          "notes": [
            {
              "pitch": 24,
              "velocity": 104,
              "position": 0,
              "duration": 6.94375
            },
            {
              "pitch": 36,
              "velocity": 104,
              "position": 0,
              "duration": 6.94375
            },
            {
              "pitch": 55,
              "velocity": 118,
              "position": 0.004166666666666667,
              "duration": 6.9875
            },
            {
              "pitch": 59,
              "velocity": 117,
              "position": 0.010416666666666666,
              "duration": 6.985416666666667
            },
            {
              "pitch": 64,
              "velocity": 112,
              "position": 0,
              "duration": 6.995833333333334
            }
          ]
        },
        "13": {
          "ctab": {
            "srcChannel": 13,
            "name": "Organ",
            "accType": "PAD",
            "editable": false,
            "mutedNotes": [],
            "mutedChords": [],
            "autoStart": false,
            "sourceChordNote": 0,
            "sourceChordType": "Maj7",
            "ctb2Low": null,
            "ctb2Main": {
              "ntr": "ROOT_FIXED",
              "ntt": "CHORD",
              "bassOn": false,
              "chordRootUpperLimit": 7,
              "noteLowLimit": 0,
              "noteHighLimit": 127,
              "rtr": "PITCH_SHIFT"
            },
            "ctb2High": null
          },
          "notes": [
            {
              "pitch": 59,
              "velocity": 50,
              "position": 0,
              "duration": 6.995833333333334
            },
            {
              "pitch": 64,
              "velocity": 50,
              "position": 0,
              "duration": 6.995833333333334
            },
            {
              "pitch": 67,
              "velocity": 50,
              "position": 0,
              "duration": 6.995833333333334
            }
          ]
        },
        "14": {
          "ctab": {
            "srcChannel": 14,
            "name": "Tele",
            "accType": "PHRASE1",
            "editable": false,
            "mutedNotes": [],
            "mutedChords": [],
            "autoStart": false,
            "sourceChordNote": 0,
            "sourceChordType": "Maj7",
            "ctb2Low": null,
            "ctb2Main": {
              "ntr": "ROOT_TRANSPOSITION",
              "ntt": "MELODY",
              "bassOn": false,
              "chordRootUpperLimit": 7,
              "noteLowLimit": 0,
              "noteHighLimit": 127,
              "rtr": "PITCH_SHIFT"
            },
            "ctb2High": null
          },
          "notes": [
            {
              "pitch": 60,
              "velocity": 60,
              "position": 0,
              "duration": 6.991666666666666
            },
            {
              "pitch": 67,
              "velocity": 60,
              "position": 0.010416666666666666,
              "duration": 6.98125
            },
            {
              "pitch": 71,
              "velocity": 60,
              "position": 0.010416666666666666,
              "duration": 6.98125
            },
            {
              "pitch": 55,
              "velocity": 45,
              "position": 0,
              "duration": 6.995833333333334
            },
            {
              "pitch": 59,
              "velocity": 45,
              "position": 0,
              "duration": 6.995833333333334
            },
            {
              "pitch": 64,
              "velocity": 57,
              "position": 0.010416666666666666,
              "duration": 6.985416666666667
            }
          ]
        }
      }
    },
    "Fill_In_BA": {
      "type": "Fill_In_BA",
      "sizeInBeats": 4,
      "channels": {
        "1": {
          "ctab": {
            "srcChannel": 1,
            "name": "Bass B",
            "accType": "BASS",
            "editable": false,
            "mutedNotes": [],
            "mutedChords": [
              "1+2+5",
              "1+5",
              "1+8",
              "7(#9)",
              "7(b13)",
              "7(b9)",
              "7(13)",
              "7#11",
              "7(9)",
              "7b5",
              "7sus4",
              "7th",
              "dim7",
              "dim",
              "min7(11)",
              "min7(9)",
              "m7b5",
              "min7",
              "min6",
              "Maj6(9)",
              "Maj7(9)",
              "Maj(9)",
              "Maj7#11",
              "Maj7",
              "Maj6",
              "Maj"
            ],
            "autoStart": false,
            "sourceChordNote": 0,
            "sourceChordType": "Maj7",
            "ctb2Low": null,
            "ctb2Main": {
              "ntr": "ROOT_TRANSPOSITION",
              "ntt": "MELODY",
              "bassOn": true,
              "chordRootUpperLimit": 3,
              "noteLowLimit": 28,
              "noteHighLimit": 127,
              "rtr": "PITCH_SHIFT_TO_ROOT"
            },
            "ctb2High": null
          },
          "notes": [
            {
              "pitch": 36,
              "velocity": 68,
              "position": 0,
              "duration": 0.29791666666666666
            },
            {
              "pitch": 36,
              "velocity": 74,
              "position": 0.48125,
              "duration": 0.6125
            }
          ]
        },
        "4": {
          "ctab": {
            "srcChannel": 4,
            "name": "Organ rt",
            "accType": "PAD",
            "editable": false,
            "mutedNotes": [],
            "mutedChords": [
              "1+2+5",
              "sus4",
              "1+5",
              "1+8",
              "Maj7aug",
              "dim",
              "minMaj7(9)",
              "minMaj7",
              "min6",
              "min",
              "aug",
              "Maj7(9)",
              "Maj7#11",
              "Maj7",
              "Maj6",
              "Maj"
            ],
            "autoStart": false,
            "sourceChordNote": 0,
            "sourceChordType": "Maj7",
            "ctb2Low": null,
            "ctb2Main": {
              "ntr": "ROOT_TRANSPOSITION",
              "ntt": "MELODY",
              "bassOn": false,
              "chordRootUpperLimit": 10,
              "noteLowLimit": 0,
              "noteHighLimit": 127,
              "rtr": "PITCH_SHIFT"
            },
            "ctb2High": null
          },
          "notes": [
            {
              "pitch": 60,
              "velocity": 50,
              "position": 0,
              "duration": 0.9958333333333333
            }
          ]
        },
        "8": {
          "ctab": {
            "srcChannel": 8,
            "name": "AddDrum",
            "accType": "SUBRHYTHM",
            "editable": false,
            "mutedNotes": [],
            "mutedChords": [],
            "autoStart": true,
            "sourceChordNote": 0,
            "sourceChordType": "Maj7",
            "ctb2Low": null,
            "ctb2Main": {
              "ntr": "ROOT_FIXED",
              "ntt": "BYPASS",
              "bassOn": false,
              "chordRootUpperLimit": 6,
              "noteLowLimit": 0,
              "noteHighLimit": 127,
              "rtr": "PITCH_SHIFT"
            },
            "ctb2High": null
          },
          "notes": [
            {
              "pitch": 42,
              "velocity": 120,
              "position": 0,
              "duration": 0.00625
            },
            {
              "pitch": 32,
              "velocity": 34,
              "position": 0.2708333333333333,
              "duration": 0.00625
            },
            {
              "pitch": 46,
              "velocity": 60,
              "position": 0.5,
              "duration": 0.00625
            },
            {
              "pitch": 32,
              "velocity": 106,
              "position": 1,
              "duration": 0.00625
            },
            {
              "pitch": 42,
              "velocity": 120,
              "position": 1,
              "duration": 0.00625
            },
            {
              "pitch": 42,
              "velocity": 40,
              "position": 1.5,
              "duration": 0.00625
            },
            {
              "pitch": 32,
              "velocity": 24,
              "position": 1.7708333333333333,
              "duration": 0.00625
            },
            {
              "pitch": 42,
              "velocity": 120,
              "position": 2,
              "duration": 0.00625
            },
            {
              "pitch": 32,
              "velocity": 24,
              "position": 2.2708333333333335,
              "duration": 0.00625
            },
            {
              "pitch": 17,
              "velocity": 127,
              "position": 2,
              "duration": 0.48541666666666666
            },
            {
              "pitch": 42,
              "velocity": 40,
              "position": 2.5,
              "duration": 0.00625
            },
            {
              "pitch": 18,
              "velocity": 81,
              "position": 2.1666666666666665,
              "duration": 0.4875
            },
            {
              "pitch": 17,
              "velocity": 127,
              "position": 2.5,
              "duration": 0.48541666666666666
            },
            {
              "pitch": 32,
              "velocity": 106,
              "position": 3,
              "duration": 0.00625
            },
            {
              "pitch": 42,
              "velocity": 120,
              "position": 3,
              "duration": 0.00625
            },
            {
              "pitch": 18,
              "velocity": 81,
              "position": 2.6666666666666665,
              "duration": 0.4875
            },
            {
              "pitch": 17,
              "velocity": 127,
              "position": 3,
              "duration": 0.48541666666666666
            },
            {
              "pitch": 46,
              "velocity": 60,
              "position": 3.5,
              "duration": 0.00625
            },
            {
              "pitch": 18,
              "velocity": 81,
              "position": 3.1666666666666665,
              "duration": 0.4875
            },
            {
              "pitch": 17,
              "velocity": 127,
              "position": 3.5,
              "duration": 0.48541666666666666
            },
            {
              "pitch": 26,
              "velocity": 50,
              "position": 0,
              "duration": 3.9854166666666666
            }
          ]
        },
        "9": {
          "ctab": {
            "srcChannel": 9,
            "name": "MainDrum",
            "accType": "RHYTHM",
            "editable": false,
            "mutedNotes": [],
            "mutedChords": [],
            "autoStart": true,
            "sourceChordNote": 0,
            "sourceChordType": "Maj7",
            "ctb2Low": null,
            "ctb2Main": {
              "ntr": "ROOT_FIXED",
              "ntt": "BYPASS",
              "bassOn": false,
              "chordRootUpperLimit": 6,
              "noteLowLimit": 0,
              "noteHighLimit": 127,
              "rtr": "PITCH_SHIFT"
            },
            "ctb2High": null
          },
          "notes": [
            {
              "pitch": 35,
              "velocity": 100,
              "position": 0,
              "duration": 0.00625
            },
            {
              "pitch": 42,
              "velocity": 110,
              "position": 0,
              "duration": 0.00625
            },
            {
              "pitch": 54,
              "velocity": 96,
              "position": 0.0020833333333333333,
              "duration": 0.00625
            },
            {
              "pitch": 54,
              "velocity": 17,
              "position": 0.2604166666666667,
              "duration": 0.00625
            },
            {
              "pitch": 38,
              "velocity": 20,
              "position": 0.2708333333333333,
              "duration": 0.00625
            },
            {
              "pitch": 35,
              "velocity": 100,
              "position": 0.5,
              "duration": 0.00625
            },
            {
              "pitch": 46,
              "velocity": 60,
              "position": 0.5,
              "duration": 0.00625
            },
            {
              "pitch": 54,
              "velocity": 42,
              "position": 0.5,
              "duration": 0.00625
            },
            {
              "pitch": 54,
              "velocity": 38,
              "position": 0.7625,
              "duration": 0.00625
            },
            {
              "pitch": 44,
              "velocity": 1,
              "position": 1,
              "duration": 0.00625
            },
            {
              "pitch": 49,
              "velocity": 80,
              "position": 3.9895833333333335,
              "duration": 0.00625
            }
          ]
        },
        "10": {
          "ctab": {
            "srcChannel": 10,
            "name": "Bass A",
            "accType": "BASS",
            "editable": false,
            "mutedNotes": [],
            "mutedChords": [
              "sus4",
              "7aug",
              "Maj7aug",
              "minMaj7(9)",
              "minMaj7",
              "min(9)",
              "min",
              "aug"
            ],
            "autoStart": false,
            "sourceChordNote": 0,
            "sourceChordType": "Maj7",
            "ctb2Low": null,
            "ctb2Main": {
              "ntr": "ROOT_TRANSPOSITION",
              "ntt": "MELODY",
              "bassOn": true,
              "chordRootUpperLimit": 3,
              "noteLowLimit": 28,
              "noteHighLimit": 127,
              "rtr": "PITCH_SHIFT_TO_ROOT"
            },
            "ctb2High": null
          },
          "notes": [
            {
              "pitch": 36,
              "velocity": 68,
              "position": 0,
              "duration": 0.29791666666666666
            },
            {
              "pitch": 36,
              "velocity": 74,
              "position": 0.48125,
              "duration": 0.6125
            }
          ]
        },
        "11": {
          "ctab": {
            "srcChannel": 11,
            "name": "Strat",
            "accType": "CHORD1",
            "editable": false,
            "mutedNotes": [],
            "mutedChords": [],
            "autoStart": false,
            "sourceChordNote": 0,
            "sourceChordType": "Maj7",
            "ctb2Low": null,
            "ctb2Main": {
              "ntr": "ROOT_TRANSPOSITION",
              "ntt": "MELODY",
              "bassOn": false,
              "chordRootUpperLimit": 7,
              "noteLowLimit": 0,
              "noteHighLimit": 127,
              "rtr": "PITCH_SHIFT"
            },
            "ctb2High": null
          },
          "notes": [
            {
              "pitch": 60,
              "velocity": 48,
              "position": 0,
              "duration": 0.25833333333333336
            },
            {
              "pitch": 55,
              "velocity": 54,
              "position": 0,
              "duration": 0.26666666666666666
            },
            {
              "pitch": 59,
              "velocity": 54,
              "position": 0,
              "duration": 0.26666666666666666
            },
            {
              "pitch": 55,
              "velocity": 27,
              "position": 0.28125,
              "duration": 0.20416666666666666
            },
            {
              "pitch": 59,
              "velocity": 27,
              "position": 0.28125,
              "duration": 0.20416666666666666
            },
            {
              "pitch": 60,
              "velocity": 16,
              "position": 0.2708333333333333,
              "duration": 0.21666666666666667
            },
            {
              "pitch": 64,
              "velocity": 43,
              "position": 0.010416666666666666,
              "duration": 0.48541666666666666
            },
            {
              "pitch": 64,
              "velocity": 41,
              "position": 0.5104166666666666,
              "duration": 0.25625
            },
            {
              "pitch": 60,
              "velocity": 38,
              "position": 0.5,
              "duration": 0.26875
            },
            {
              "pitch": 55,
              "velocity": 34,
              "position": 0.5,
              "duration": 0.27708333333333335
            },
            {
              "pitch": 59,
              "velocity": 34,
              "position": 0.5,
              "duration": 0.27708333333333335
            },
            {
              "pitch": 60,
              "velocity": 47,
              "position": 0.78125,
              "duration": 0.20416666666666666
            },
            {
              "pitch": 64,
              "velocity": 32,
              "position": 0.78125,
              "duration": 0.20416666666666666
            },
            {
              "pitch": 55,
              "velocity": 49,
              "position": 0.7916666666666666,
              "duration": 0.20416666666666666
            },
            {
              "pitch": 59,
              "velocity": 49,
              "position": 0.7916666666666666,
              "duration": 0.20416666666666666
            }
          ]
        },
        "12": {
          "ctab": {
            "srcChannel": 12,
            "name": "Piano",
            "accType": "CHORD2",
            "editable": false,
            "mutedNotes": [],
            "mutedChords": [],
            "autoStart": false,
            "sourceChordNote": 0,
            "sourceChordType": "Maj7",
            "ctb2Low": null,
            "ctb2Main": {
              "ntr": "ROOT_FIXED",
              "ntt": "CHORD",
              "bassOn": false,
              "chordRootUpperLimit": 7,
              "noteLowLimit": 0,
              "noteHighLimit": 127,
              "rtr": "PITCH_SHIFT"
            },
            "ctb2High": null
          },
          "notes": [
            {
              "pitch": 24,
              "velocity": 104,
              "position": 0,
              "duration": 0.1625
            },
            {
              "pitch": 36,
              "velocity": 104,
              "position": 0,
              "duration": 0.1625
            },
            {
              "pitch": 64,
              "velocity": 112,
              "position": 0,
              "duration": 0.9645833333333333
            },
            {
              "pitch": 55,
              "velocity": 118,
              "position": 0.004166666666666667,
              "duration": 0.9979166666666667
            },
            {
              "pitch": 59,
              "velocity": 117,
              "position": 0.010416666666666666,
              "duration": 0.9958333333333333
            },
            {
              "pitch": 24,
              "velocity": 104,
              "position": 0.5,
              "duration": 0.6104166666666667
            },
            {
              "pitch": 36,
              "velocity": 104,
              "position": 0.5,
              "duration": 0.6104166666666667
            }
          ]
        },
        "13": {
          "ctab": {
            "srcChannel": 13,
            "name": "Organ",
            "accType": "PAD",
            "editable": false,
            "mutedNotes": [],
            "mutedChords": [],
            "autoStart": false,
            "sourceChordNote": 0,
            "sourceChordType": "Maj7",
            "ctb2Low": null,
            "ctb2Main": {
              "ntr": "ROOT_FIXED",
              "ntt": "CHORD",
              "bassOn": false,
              "chordRootUpperLimit": 7,
              "noteLowLimit": 0,
              "noteHighLimit": 127,
              "rtr": "PITCH_SHIFT"
            },
            "ctb2High": null
          },
          "notes": [
            {
              "pitch": 59,
              "velocity": 50,
              "position": 0,
              "duration": 0.9958333333333333
            },
            {
              "pitch": 64,
              "velocity": 50,
              "position": 0,
              "duration": 0.9958333333333333
            },
            {
              "pitch": 67,
              "velocity": 50,
              "position": 0,
              "duration": 0.9958333333333333
            }
          ]
        },
        "14": {
          "ctab": {
            "srcChannel": 14,
            "name": "Tele",
            "accType": "PHRASE1",
            "editable": false,
            "mutedNotes": [],
            "mutedChords": [],
            "autoStart": false,
            "sourceChordNote": 0,
            "sourceChordType": "Maj7",
            "ctb2Low": null,
            "ctb2Main": {
              "ntr": "ROOT_TRANSPOSITION",
              "ntt": "MELODY",
              "bassOn": false,
              "chordRootUpperLimit": 7,
              "noteLowLimit": 0,
              "noteHighLimit": 127,
              "rtr": "PITCH_SHIFT"
            },
            "ctb2High": null
          },
          "notes": []
        }
      }
    },
    "Intro_B": {
      "type": "Intro_B",
      "sizeInBeats": 32,
      "channels": {
        "1": {
          "ctab": {
            "srcChannel": 1,
            "name": "Bass",
            "accType": "BASS",
            "editable": false,
            "mutedNotes": [],
            "mutedChords": [
              "1+2+5",
              "sus4",
              "1+5",
              "1+8",
              "7aug",
              "Maj7aug",
              "7(#9)",
              "7(b13)",
              "7(b9)",
              "7(13)",
              "7#11",
              "7(9)",
              "7b5",
              "7sus4",
              "7th",
              "aug",
              "Maj6(9)",
              "Maj7(9)",
              "Maj(9)",
              "Maj7#11",
              "Maj7",
              "Maj6",
              "Maj"
            ],
            "autoStart": false,
            "sourceChordNote": 0,
            "sourceChordType": "min",
            "ctb2Low": null,
            "ctb2Main": {
              "ntr": "ROOT_TRANSPOSITION",
              "ntt": "BYPASS",
              "bassOn": false,
              "chordRootUpperLimit": 8,
              "noteLowLimit": 28,
              "noteHighLimit": 127,
              "rtr": "PITCH_SHIFT"
            },
            "ctb2High": null
          },
          "notes": [
            {
              "pitch": 24,
              "velocity": 74,
              "position": 16.010416666666668,
              "duration": 0.48541666666666666
            },
            {
              "pitch": 24,
              "velocity": 114,
              "position": 17.760416666666668,
              "duration": 0.21458333333333332
            },
            {
              "pitch": 24,
              "velocity": 76,
              "position": 18.010416666666668,
              "duration": 0.29791666666666666
            },
            {
              "pitch": 25,
              "velocity": 70,
              "position": 18.483333333333334,
              "duration": 0.36041666666666666
            },
            {
              "pitch": 26,
              "velocity": 70,
              "position": 19,
              "duration": 0.36041666666666666
            },
            {
              "pitch": 27,
              "velocity": 74,
              "position": 19.5,
              "duration": 0.48541666666666666
            },
            {
              "pitch": 27,
              "velocity": 114,
              "position": 21.760416666666668,
              "duration": 0.21458333333333332
            },
            {
              "pitch": 27,
              "velocity": 76,
              "position": 22.010416666666668,
              "duration": 0.29791666666666666
            },
            {
              "pitch": 30,
              "velocity": 70,
              "position": 22.5,
              "duration": 0.36041666666666666
            },
            {
              "pitch": 31,
              "velocity": 70,
              "position": 23,
              "duration": 0.36041666666666666
            },
            {
              "pitch": 32,
              "velocity": 70,
              "position": 23.5,
              "duration": 0.48541666666666666
            },
            {
              "pitch": 32,
              "velocity": 114,
              "position": 25.760416666666668,
              "duration": 0.21458333333333332
            },
            {
              "pitch": 32,
              "velocity": 76,
              "position": 26.010416666666668,
              "duration": 0.29791666666666666
            },
            {
              "pitch": 34,
              "velocity": 78,
              "position": 26.489583333333332,
              "duration": 0.36041666666666666
            },
            {
              "pitch": 36,
              "velocity": 78,
              "position": 27,
              "duration": 0.36041666666666666
            },
            {
              "pitch": 31,
              "velocity": 77,
              "position": 27.5,
              "duration": 1.2354166666666666
            },
            {
              "pitch": 31,
              "velocity": 70,
              "position": 29.489583333333332,
              "duration": 2.4916666666666667
            }
          ]
        },
        "2": {
          "ctab": {
            "srcChannel": 2,
            "name": "Strat",
            "accType": "CHORD1",
            "editable": false,
            "mutedNotes": [],
            "mutedChords": [
              "1+2+5",
              "sus4",
              "1+5",
              "1+8",
              "7aug",
              "Maj7aug",
              "7(#9)",
              "7(b13)",
              "7(b9)",
              "7(13)",
              "7#11",
              "7(9)",
              "7b5",
              "7sus4",
              "7th",
              "aug",
              "Maj6(9)",
              "Maj7(9)",
              "Maj(9)",
              "Maj7#11",
              "Maj7",
              "Maj6",
              "Maj"
            ],
            "autoStart": false,
            "sourceChordNote": 0,
            "sourceChordType": "min",
            "ctb2Low": null,
            "ctb2Main": {
              "ntr": "ROOT_TRANSPOSITION",
              "ntt": "BYPASS",
              "bassOn": false,
              "chordRootUpperLimit": 8,
              "noteLowLimit": 54,
              "noteHighLimit": 72,
              "rtr": "PITCH_SHIFT"
            },
            "ctb2High": null
          },
          "notes": [
            {
              "pitch": 106,
              "velocity": 97,
              "position": 16,
              "duration": 0.23541666666666666
            },
            {
              "pitch": 108,
              "velocity": 114,
              "position": 16.5,
              "duration": 0.23541666666666666
            },
            {
              "pitch": 51,
              "velocity": 45,
              "position": 16.5,
              "duration": 0.25833333333333336
            },
            {
              "pitch": 48,
              "velocity": 57,
              "position": 16.5,
              "duration": 0.26666666666666666
            },
            {
              "pitch": 48,
              "velocity": 35,
              "position": 16.78125,
              "duration": 0.20416666666666666
            },
            {
              "pitch": 51,
              "velocity": 18,
              "position": 16.770833333333332,
              "duration": 0.21666666666666667
            },
            {
              "pitch": 79,
              "velocity": 44,
              "position": 16.510416666666668,
              "duration": 0.48541666666666666
            },
            {
              "pitch": 105,
              "velocity": 77,
              "position": 16.770833333333332,
              "duration": 0.23541666666666666
            },
            {
              "pitch": 106,
              "velocity": 89,
              "position": 17,
              "duration": 0.23541666666666666
            },
            {
              "pitch": 84,
              "velocity": 44,
              "position": 16.510416666666668,
              "duration": 0.7479166666666667
            },
            {
              "pitch": 79,
              "velocity": 45,
              "position": 17.010416666666668,
              "duration": 0.25625
            },
            {
              "pitch": 51,
              "velocity": 49,
              "position": 17,
              "duration": 0.26875
            },
            {
              "pitch": 48,
              "velocity": 42,
              "position": 17,
              "duration": 0.27708333333333335
            },
            {
              "pitch": 84,
              "velocity": 51,
              "position": 17.270833333333332,
              "duration": 0.20416666666666666
            },
            {
              "pitch": 107,
              "velocity": 125,
              "position": 17.270833333333332,
              "duration": 0.20416666666666666
            },
            {
              "pitch": 51,
              "velocity": 56,
              "position": 17.28125,
              "duration": 0.20416666666666666
            },
            {
              "pitch": 79,
              "velocity": 57,
              "position": 17.28125,
              "duration": 0.20416666666666666
            },
            {
              "pitch": 48,
              "velocity": 60,
              "position": 17.291666666666668,
              "duration": 0.20416666666666666
            },
            {
              "pitch": 108,
              "velocity": 127,
              "position": 17.5,
              "duration": 0.23541666666666666
            },
            {
              "pitch": 105,
              "velocity": 84,
              "position": 17.770833333333332,
              "duration": 0.23541666666666666
            },
            {
              "pitch": 48,
              "velocity": 50,
              "position": 18,
              "duration": 0.20416666666666666
            },
            {
              "pitch": 51,
              "velocity": 51,
              "position": 18,
              "duration": 0.20416666666666666
            },
            {
              "pitch": 106,
              "velocity": 114,
              "position": 18,
              "duration": 0.20416666666666666
            },
            {
              "pitch": 79,
              "velocity": 60,
              "position": 18.010416666666668,
              "duration": 0.20416666666666666
            },
            {
              "pitch": 84,
              "velocity": 47,
              "position": 18.010416666666668,
              "duration": 0.20416666666666666
            },
            {
              "pitch": 107,
              "velocity": 76,
              "position": 18.270833333333332,
              "duration": 0.20416666666666666
            },
            {
              "pitch": 108,
              "velocity": 55,
              "position": 18.5,
              "duration": 0.23541666666666666
            },
            {
              "pitch": 98,
              "velocity": 97,
              "position": 18.770833333333332,
              "duration": 0.23541666666666666
            },
            {
              "pitch": 106,
              "velocity": 23,
              "position": 19,
              "duration": 0.23541666666666666
            },
            {
              "pitch": 107,
              "velocity": 126,
              "position": 19.270833333333332,
              "duration": 0.20416666666666666
            },
            {
              "pitch": 108,
              "velocity": 127,
              "position": 19.5,
              "duration": 0.23541666666666666
            },
            {
              "pitch": 79,
              "velocity": 59,
              "position": 19.510416666666668,
              "duration": 0.24791666666666667
            },
            {
              "pitch": 51,
              "velocity": 49,
              "position": 19.5,
              "duration": 0.2625
            },
            {
              "pitch": 84,
              "velocity": 60,
              "position": 19.510416666666668,
              "duration": 0.4875
            },
            {
              "pitch": 105,
              "velocity": 80,
              "position": 19.770833333333332,
              "duration": 0.23541666666666666
            },
            {
              "pitch": 79,
              "velocity": 42,
              "position": 19.770833333333332,
              "duration": 0.2375
            },
            {
              "pitch": 51,
              "velocity": 39,
              "position": 19.78125,
              "duration": 0.23541666666666666
            },
            {
              "pitch": 106,
              "velocity": 88,
              "position": 20,
              "duration": 0.23541666666666666
            },
            {
              "pitch": 107,
              "velocity": 118,
              "position": 20.270833333333332,
              "duration": 0.20416666666666666
            },
            {
              "pitch": 108,
              "velocity": 127,
              "position": 20.5,
              "duration": 0.23541666666666666
            },
            {
              "pitch": 51,
              "velocity": 44,
              "position": 20.5,
              "duration": 0.25833333333333336
            },
            {
              "pitch": 51,
              "velocity": 25,
              "position": 20.770833333333332,
              "duration": 0.21666666666666667
            },
            {
              "pitch": 79,
              "velocity": 58,
              "position": 20.510416666666668,
              "duration": 0.48541666666666666
            },
            {
              "pitch": 105,
              "velocity": 87,
              "position": 20.770833333333332,
              "duration": 0.23541666666666666
            },
            {
              "pitch": 106,
              "velocity": 99,
              "position": 21,
              "duration": 0.23541666666666666
            },
            {
              "pitch": 84,
              "velocity": 56,
              "position": 20.510416666666668,
              "duration": 0.7479166666666667
            },
            {
              "pitch": 79,
              "velocity": 43,
              "position": 21.010416666666668,
              "duration": 0.25625
            },
            {
              "pitch": 51,
              "velocity": 45,
              "position": 21,
              "duration": 0.26875
            },
            {
              "pitch": 84,
              "velocity": 59,
              "position": 21.270833333333332,
              "duration": 0.20416666666666666
            },
            {
              "pitch": 107,
              "velocity": 116,
              "position": 21.270833333333332,
              "duration": 0.20416666666666666
            },
            {
              "pitch": 51,
              "velocity": 51,
              "position": 21.28125,
              "duration": 0.20416666666666666
            },
            {
              "pitch": 79,
              "velocity": 48,
              "position": 21.28125,
              "duration": 0.20416666666666666
            },
            {
              "pitch": 108,
              "velocity": 123,
              "position": 21.5,
              "duration": 0.23541666666666666
            },
            {
              "pitch": 105,
              "velocity": 127,
              "position": 21.770833333333332,
              "duration": 0.23541666666666666
            },
            {
              "pitch": 51,
              "velocity": 52,
              "position": 22,
              "duration": 0.20416666666666666
            },
            {
              "pitch": 106,
              "velocity": 120,
              "position": 22,
              "duration": 0.20416666666666666
            },
            {
              "pitch": 79,
              "velocity": 52,
              "position": 22.010416666666668,
              "duration": 0.20416666666666666
            },
            {
              "pitch": 84,
              "velocity": 58,
              "position": 22.010416666666668,
              "duration": 0.20416666666666666
            },
            {
              "pitch": 107,
              "velocity": 69,
              "position": 22.270833333333332,
              "duration": 0.20416666666666666
            },
            {
              "pitch": 108,
              "velocity": 65,
              "position": 22.5,
              "duration": 0.23541666666666666
            },
            {
              "pitch": 98,
              "velocity": 99,
              "position": 22.770833333333332,
              "duration": 0.23541666666666666
            },
            {
              "pitch": 106,
              "velocity": 28,
              "position": 23,
              "duration": 0.23541666666666666
            },
            {
              "pitch": 107,
              "velocity": 127,
              "position": 23.270833333333332,
              "duration": 0.20416666666666666
            },
            {
              "pitch": 108,
              "velocity": 121,
              "position": 23.5,
              "duration": 0.23541666666666666
            },
            {
              "pitch": 78,
              "velocity": 44,
              "position": 23.510416666666668,
              "duration": 0.24791666666666667
            },
            {
              "pitch": 51,
              "velocity": 43,
              "position": 23.5,
              "duration": 0.2625
            },
            {
              "pitch": 44,
              "velocity": 42,
              "position": 23.5,
              "duration": 0.26875
            },
            {
              "pitch": 84,
              "velocity": 55,
              "position": 23.510416666666668,
              "duration": 0.4875
            },
            {
              "pitch": 105,
              "velocity": 86,
              "position": 23.770833333333332,
              "duration": 0.23541666666666666
            },
            {
              "pitch": 78,
              "velocity": 48,
              "position": 23.770833333333332,
              "duration": 0.2375
            },
            {
              "pitch": 51,
              "velocity": 42,
              "position": 23.78125,
              "duration": 0.23541666666666666
            },
            {
              "pitch": 44,
              "velocity": 37,
              "position": 23.78125,
              "duration": 0.2375
            },
            {
              "pitch": 106,
              "velocity": 104,
              "position": 24,
              "duration": 0.23541666666666666
            },
            {
              "pitch": 108,
              "velocity": 127,
              "position": 24.5,
              "duration": 0.23541666666666666
            },
            {
              "pitch": 51,
              "velocity": 59,
              "position": 24.5,
              "duration": 0.25833333333333336
            },
            {
              "pitch": 44,
              "velocity": 47,
              "position": 24.5,
              "duration": 0.26666666666666666
            },
            {
              "pitch": 44,
              "velocity": 23,
              "position": 24.78125,
              "duration": 0.20416666666666666
            },
            {
              "pitch": 51,
              "velocity": 18,
              "position": 24.770833333333332,
              "duration": 0.21666666666666667
            },
            {
              "pitch": 78,
              "velocity": 49,
              "position": 24.510416666666668,
              "duration": 0.48541666666666666
            },
            {
              "pitch": 105,
              "velocity": 77,
              "position": 24.770833333333332,
              "duration": 0.23541666666666666
            },
            {
              "pitch": 106,
              "velocity": 88,
              "position": 25,
              "duration": 0.23541666666666666
            },
            {
              "pitch": 84,
              "velocity": 47,
              "position": 24.510416666666668,
              "duration": 0.7479166666666667
            },
            {
              "pitch": 78,
              "velocity": 48,
              "position": 25.010416666666668,
              "duration": 0.25625
            },
            {
              "pitch": 51,
              "velocity": 48,
              "position": 25,
              "duration": 0.26875
            },
            {
              "pitch": 44,
              "velocity": 49,
              "position": 25,
              "duration": 0.27708333333333335
            },
            {
              "pitch": 84,
              "velocity": 50,
              "position": 25.270833333333332,
              "duration": 0.20416666666666666
            },
            {
              "pitch": 107,
              "velocity": 127,
              "position": 25.270833333333332,
              "duration": 0.20416666666666666
            },
            {
              "pitch": 51,
              "velocity": 51,
              "position": 25.28125,
              "duration": 0.20416666666666666
            },
            {
              "pitch": 78,
              "velocity": 53,
              "position": 25.28125,
              "duration": 0.20416666666666666
            },
            {
              "pitch": 44,
              "velocity": 51,
              "position": 25.291666666666668,
              "duration": 0.20416666666666666
            },
            {
              "pitch": 108,
              "velocity": 119,
              "position": 25.5,
              "duration": 0.23541666666666666
            },
            {
              "pitch": 105,
              "velocity": 80,
              "position": 25.770833333333332,
              "duration": 0.23541666666666666
            },
            {
              "pitch": 44,
              "velocity": 50,
              "position": 26,
              "duration": 0.20416666666666666
            },
            {
              "pitch": 51,
              "velocity": 53,
              "position": 26,
              "duration": 0.20416666666666666
            },
            {
              "pitch": 106,
              "velocity": 115,
              "position": 26,
              "duration": 0.20416666666666666
            },
            {
              "pitch": 78,
              "velocity": 46,
              "position": 26.010416666666668,
              "duration": 0.20416666666666666
            },
            {
              "pitch": 84,
              "velocity": 52,
              "position": 26.010416666666668,
              "duration": 0.20416666666666666
            },
            {
              "pitch": 107,
              "velocity": 67,
              "position": 26.270833333333332,
              "duration": 0.20416666666666666
            },
            {
              "pitch": 108,
              "velocity": 58,
              "position": 26.5,
              "duration": 0.23541666666666666
            },
            {
              "pitch": 98,
              "velocity": 100,
              "position": 26.770833333333332,
              "duration": 0.23541666666666666
            },
            {
              "pitch": 106,
              "velocity": 28,
              "position": 27,
              "duration": 0.23541666666666666
            },
            {
              "pitch": 107,
              "velocity": 115,
              "position": 27.270833333333332,
              "duration": 0.20416666666666666
            },
            {
              "pitch": 108,
              "velocity": 115,
              "position": 27.5,
              "duration": 0.23541666666666666
            },
            {
              "pitch": 80,
              "velocity": 50,
              "position": 27.510416666666668,
              "duration": 0.24791666666666667
            },
            {
              "pitch": 50,
              "velocity": 58,
              "position": 27.5,
              "duration": 0.2625
            },
            {
              "pitch": 41,
              "velocity": 54,
              "position": 27.5,
              "duration": 0.26875
            },
            {
              "pitch": 84,
              "velocity": 55,
              "position": 27.510416666666668,
              "duration": 0.4875
            },
            {
              "pitch": 105,
              "velocity": 83,
              "position": 27.770833333333332,
              "duration": 0.23541666666666666
            },
            {
              "pitch": 80,
              "velocity": 51,
              "position": 27.770833333333332,
              "duration": 0.2375
            },
            {
              "pitch": 50,
              "velocity": 35,
              "position": 27.78125,
              "duration": 0.23541666666666666
            },
            {
              "pitch": 41,
              "velocity": 37,
              "position": 27.78125,
              "duration": 0.2375
            },
            {
              "pitch": 106,
              "velocity": 98,
              "position": 28,
              "duration": 0.23541666666666666
            },
            {
              "pitch": 107,
              "velocity": 121,
              "position": 28.270833333333332,
              "duration": 0.20416666666666666
            },
            {
              "pitch": 108,
              "velocity": 117,
              "position": 28.5,
              "duration": 0.23541666666666666
            },
            {
              "pitch": 50,
              "velocity": 50,
              "position": 28.5,
              "duration": 0.25833333333333336
            },
            {
              "pitch": 41,
              "velocity": 56,
              "position": 28.5,
              "duration": 0.26666666666666666
            },
            {
              "pitch": 41,
              "velocity": 25,
              "position": 28.78125,
              "duration": 0.20416666666666666
            },
            {
              "pitch": 50,
              "velocity": 30,
              "position": 28.770833333333332,
              "duration": 0.21666666666666667
            },
            {
              "pitch": 80,
              "velocity": 43,
              "position": 28.510416666666668,
              "duration": 0.48541666666666666
            },
            {
              "pitch": 105,
              "velocity": 88,
              "position": 28.770833333333332,
              "duration": 0.23541666666666666
            },
            {
              "pitch": 84,
              "velocity": 48,
              "position": 28.510416666666668,
              "duration": 0.4979166666666667
            },
            {
              "pitch": 106,
              "velocity": 91,
              "position": 29,
              "duration": 0.23541666666666666
            },
            {
              "pitch": 107,
              "velocity": 127,
              "position": 29.270833333333332,
              "duration": 0.20416666666666666
            },
            {
              "pitch": 108,
              "velocity": 114,
              "position": 29.5,
              "duration": 0.23541666666666666
            },
            {
              "pitch": 47,
              "velocity": 55,
              "position": 29.5,
              "duration": 2.48125
            },
            {
              "pitch": 79,
              "velocity": 59,
              "position": 29.510416666666668,
              "duration": 2.470833333333333
            },
            {
              "pitch": 41,
              "velocity": 55,
              "position": 29.5,
              "duration": 2.4854166666666666
            },
            {
              "pitch": 74,
              "velocity": 51,
              "position": 29.510416666666668,
              "duration": 2.475
            }
          ]
        },
        "3": {
          "ctab": {
            "srcChannel": 3,
            "name": "Piano",
            "accType": "CHORD2",
            "editable": false,
            "mutedNotes": [],
            "mutedChords": [
              "1+2+5",
              "sus4",
              "1+5",
              "1+8",
              "7aug",
              "Maj7aug",
              "7(#9)",
              "7(b13)",
              "7(b9)",
              "7(13)",
              "7#11",
              "7(9)",
              "7b5",
              "7sus4",
              "7th",
              "aug",
              "Maj6(9)",
              "Maj7(9)",
              "Maj(9)",
              "Maj7#11",
              "Maj7",
              "Maj6",
              "Maj"
            ],
            "autoStart": false,
            "sourceChordNote": 0,
            "sourceChordType": "min",
            "ctb2Low": null,
            "ctb2Main": {
              "ntr": "ROOT_TRANSPOSITION",
              "ntt": "BYPASS",
              "bassOn": false,
              "chordRootUpperLimit": 11,
              "noteLowLimit": 0,
              "noteHighLimit": 65,
              "rtr": "PITCH_SHIFT"
            },
            "ctb2High": null
          },
          "notes": [
            {
              "pitch": 67,
              "velocity": 96,
              "position": 0.010416666666666666,
              "duration": 0.16666666666666666
            },
            {
              "pitch": 36,
              "velocity": 104,
              "position": 0.010416666666666666,
              "duration": 0.20416666666666666
            },
            {
              "pitch": 24,
              "velocity": 121,
              "position": 0.010416666666666666,
              "duration": 0.24583333333333332
            },
            {
              "pitch": 75,
              "velocity": 119,
              "position": 0.010416666666666666,
              "duration": 0.2625
            },
            {
              "pitch": 72,
              "velocity": 126,
              "position": 0.010416666666666666,
              "duration": 0.26666666666666666
            },
            {
              "pitch": 67,
              "velocity": 77,
              "position": 0.5,
              "duration": 0.20416666666666666
            },
            {
              "pitch": 75,
              "velocity": 81,
              "position": 0.5,
              "duration": 0.20416666666666666
            },
            {
              "pitch": 72,
              "velocity": 81,
              "position": 0.5,
              "duration": 0.2875
            },
            {
              "pitch": 67,
              "velocity": 92,
              "position": 1,
              "duration": 0.21458333333333332
            },
            {
              "pitch": 75,
              "velocity": 107,
              "position": 1,
              "duration": 0.24583333333333332
            },
            {
              "pitch": 72,
              "velocity": 99,
              "position": 1,
              "duration": 0.27291666666666664
            },
            {
              "pitch": 67,
              "velocity": 92,
              "position": 1.5,
              "duration": 0.13125
            },
            {
              "pitch": 75,
              "velocity": 80,
              "position": 1.5,
              "duration": 0.21458333333333332
            },
            {
              "pitch": 72,
              "velocity": 88,
              "position": 1.5,
              "duration": 0.2375
            },
            {
              "pitch": 67,
              "velocity": 92,
              "position": 2,
              "duration": 0.1875
            },
            {
              "pitch": 75,
              "velocity": 98,
              "position": 2,
              "duration": 0.21666666666666667
            },
            {
              "pitch": 72,
              "velocity": 102,
              "position": 2,
              "duration": 0.2708333333333333
            },
            {
              "pitch": 36,
              "velocity": 104,
              "position": 1.8333333333333333,
              "duration": 0.48541666666666666
            },
            {
              "pitch": 24,
              "velocity": 126,
              "position": 2,
              "duration": 0.48541666666666666
            },
            {
              "pitch": 67,
              "velocity": 88,
              "position": 2.5,
              "duration": 0.18333333333333332
            },
            {
              "pitch": 75,
              "velocity": 80,
              "position": 2.5,
              "duration": 0.23125
            },
            {
              "pitch": 25,
              "velocity": 124,
              "position": 2.5,
              "duration": 0.23541666666666666
            },
            {
              "pitch": 37,
              "velocity": 109,
              "position": 2.5,
              "duration": 0.23541666666666666
            },
            {
              "pitch": 72,
              "velocity": 93,
              "position": 2.5,
              "duration": 0.24166666666666667
            },
            {
              "pitch": 75,
              "velocity": 90,
              "position": 3,
              "duration": 0.20416666666666666
            },
            {
              "pitch": 26,
              "velocity": 121,
              "position": 3,
              "duration": 0.23541666666666666
            },
            {
              "pitch": 38,
              "velocity": 121,
              "position": 3,
              "duration": 0.23541666666666666
            },
            {
              "pitch": 67,
              "velocity": 92,
              "position": 3,
              "duration": 0.24166666666666667
            },
            {
              "pitch": 72,
              "velocity": 78,
              "position": 3,
              "duration": 0.24583333333333332
            },
            {
              "pitch": 77,
              "velocity": 103,
              "position": 3.5,
              "duration": 0.22083333333333333
            },
            {
              "pitch": 27,
              "velocity": 127,
              "position": 3.5,
              "duration": 0.23541666666666666
            },
            {
              "pitch": 39,
              "velocity": 117,
              "position": 3.5,
              "duration": 0.23541666666666666
            },
            {
              "pitch": 67,
              "velocity": 108,
              "position": 3.5,
              "duration": 0.24583333333333332
            },
            {
              "pitch": 70,
              "velocity": 112,
              "position": 3.5,
              "duration": 0.24583333333333332
            },
            {
              "pitch": 73,
              "velocity": 98,
              "position": 3.5,
              "duration": 0.2604166666666667
            },
            {
              "pitch": 73,
              "velocity": 65,
              "position": 4,
              "duration": 0.17291666666666666
            },
            {
              "pitch": 67,
              "velocity": 83,
              "position": 4,
              "duration": 0.18333333333333332
            },
            {
              "pitch": 77,
              "velocity": 56,
              "position": 4,
              "duration": 0.18333333333333332
            },
            {
              "pitch": 70,
              "velocity": 61,
              "position": 4,
              "duration": 0.20416666666666666
            },
            {
              "pitch": 70,
              "velocity": 50,
              "position": 4.5,
              "duration": 0.15833333333333333
            },
            {
              "pitch": 77,
              "velocity": 71,
              "position": 4.5,
              "duration": 0.175
            },
            {
              "pitch": 67,
              "velocity": 81,
              "position": 4.5,
              "duration": 0.19375
            },
            {
              "pitch": 73,
              "velocity": 75,
              "position": 4.5,
              "duration": 0.19583333333333333
            },
            {
              "pitch": 70,
              "velocity": 77,
              "position": 5,
              "duration": 0.225
            },
            {
              "pitch": 77,
              "velocity": 77,
              "position": 5,
              "duration": 0.225
            },
            {
              "pitch": 67,
              "velocity": 96,
              "position": 5,
              "duration": 0.2375
            },
            {
              "pitch": 73,
              "velocity": 85,
              "position": 5,
              "duration": 0.25
            },
            {
              "pitch": 77,
              "velocity": 67,
              "position": 5.5,
              "duration": 0.14583333333333334
            },
            {
              "pitch": 70,
              "velocity": 88,
              "position": 5.5,
              "duration": 0.175
            },
            {
              "pitch": 67,
              "velocity": 102,
              "position": 5.5,
              "duration": 0.1875
            },
            {
              "pitch": 73,
              "velocity": 60,
              "position": 5.5,
              "duration": 0.20416666666666666
            },
            {
              "pitch": 77,
              "velocity": 85,
              "position": 6,
              "duration": 0.2625
            },
            {
              "pitch": 67,
              "velocity": 114,
              "position": 6,
              "duration": 0.30833333333333335
            },
            {
              "pitch": 73,
              "velocity": 92,
              "position": 6,
              "duration": 0.31875
            },
            {
              "pitch": 70,
              "velocity": 107,
              "position": 6,
              "duration": 0.32916666666666666
            },
            {
              "pitch": 27,
              "velocity": 124,
              "position": 6,
              "duration": 0.48541666666666666
            },
            {
              "pitch": 39,
              "velocity": 112,
              "position": 6,
              "duration": 0.48541666666666666
            },
            {
              "pitch": 77,
              "velocity": 83,
              "position": 6.5,
              "duration": 0.18958333333333333
            },
            {
              "pitch": 67,
              "velocity": 102,
              "position": 6.5,
              "duration": 0.20416666666666666
            },
            {
              "pitch": 70,
              "velocity": 92,
              "position": 6.5,
              "duration": 0.21458333333333332
            },
            {
              "pitch": 73,
              "velocity": 86,
              "position": 6.5,
              "duration": 0.22708333333333333
            },
            {
              "pitch": 30,
              "velocity": 114,
              "position": 6.5,
              "duration": 0.23541666666666666
            },
            {
              "pitch": 42,
              "velocity": 85,
              "position": 6.5,
              "duration": 0.23541666666666666
            },
            {
              "pitch": 31,
              "velocity": 127,
              "position": 7,
              "duration": 0.23541666666666666
            },
            {
              "pitch": 43,
              "velocity": 85,
              "position": 7,
              "duration": 0.23541666666666666
            },
            {
              "pitch": 77,
              "velocity": 83,
              "position": 7,
              "duration": 0.25625
            },
            {
              "pitch": 70,
              "velocity": 89,
              "position": 7,
              "duration": 0.2791666666666667
            },
            {
              "pitch": 67,
              "velocity": 102,
              "position": 7,
              "duration": 0.30833333333333335
            },
            {
              "pitch": 73,
              "velocity": 80,
              "position": 7,
              "duration": 0.33125
            },
            {
              "pitch": 32,
              "velocity": 117,
              "position": 7.5,
              "duration": 0.23541666666666666
            },
            {
              "pitch": 44,
              "velocity": 126,
              "position": 7.5,
              "duration": 0.23541666666666666
            },
            {
              "pitch": 75,
              "velocity": 109,
              "position": 7.5,
              "duration": 0.2375
            },
            {
              "pitch": 72,
              "velocity": 117,
              "position": 7.5,
              "duration": 0.25625
            },
            {
              "pitch": 68,
              "velocity": 119,
              "position": 7.5,
              "duration": 0.25833333333333336
            },
            {
              "pitch": 78,
              "velocity": 119,
              "position": 7.5,
              "duration": 0.25833333333333336
            },
            {
              "pitch": 78,
              "velocity": 81,
              "position": 8,
              "duration": 0.16666666666666666
            },
            {
              "pitch": 75,
              "velocity": 78,
              "position": 8,
              "duration": 0.17708333333333334
            },
            {
              "pitch": 72,
              "velocity": 73,
              "position": 8,
              "duration": 0.18333333333333332
            },
            {
              "pitch": 68,
              "velocity": 83,
              "position": 8,
              "duration": 0.21458333333333332
            },
            {
              "pitch": 78,
              "velocity": 70,
              "position": 8.5,
              "duration": 0.1875
            },
            {
              "pitch": 68,
              "velocity": 61,
              "position": 8.5,
              "duration": 0.20416666666666666
            },
            {
              "pitch": 72,
              "velocity": 80,
              "position": 8.5,
              "duration": 0.21458333333333332
            },
            {
              "pitch": 75,
              "velocity": 75,
              "position": 8.5,
              "duration": 0.21458333333333332
            },
            {
              "pitch": 78,
              "velocity": 92,
              "position": 9,
              "duration": 0.16458333333333333
            },
            {
              "pitch": 68,
              "velocity": 85,
              "position": 9,
              "duration": 0.19791666666666666
            },
            {
              "pitch": 72,
              "velocity": 88,
              "position": 9,
              "duration": 0.225
            },
            {
              "pitch": 75,
              "velocity": 86,
              "position": 9,
              "duration": 0.23541666666666666
            },
            {
              "pitch": 68,
              "velocity": 92,
              "position": 9.5,
              "duration": 0.15208333333333332
            },
            {
              "pitch": 78,
              "velocity": 89,
              "position": 9.5,
              "duration": 0.15208333333333332
            },
            {
              "pitch": 72,
              "velocity": 85,
              "position": 9.5,
              "duration": 0.17708333333333334
            },
            {
              "pitch": 75,
              "velocity": 88,
              "position": 9.5,
              "duration": 0.20416666666666666
            },
            {
              "pitch": 78,
              "velocity": 112,
              "position": 10,
              "duration": 0.23541666666666666
            },
            {
              "pitch": 32,
              "velocity": 124,
              "position": 10,
              "duration": 0.24583333333333332
            },
            {
              "pitch": 44,
              "velocity": 117,
              "position": 10,
              "duration": 0.24583333333333332
            },
            {
              "pitch": 75,
              "velocity": 107,
              "position": 10,
              "duration": 0.25833333333333336
            },
            {
              "pitch": 72,
              "velocity": 104,
              "position": 10,
              "duration": 0.2708333333333333
            },
            {
              "pitch": 68,
              "velocity": 96,
              "position": 10,
              "duration": 0.2833333333333333
            },
            {
              "pitch": 78,
              "velocity": 98,
              "position": 10.5,
              "duration": 0.15416666666666667
            },
            {
              "pitch": 75,
              "velocity": 99,
              "position": 10.5,
              "duration": 0.20416666666666666
            },
            {
              "pitch": 68,
              "velocity": 92,
              "position": 10.5,
              "duration": 0.20625
            },
            {
              "pitch": 72,
              "velocity": 107,
              "position": 10.5,
              "duration": 0.21666666666666667
            },
            {
              "pitch": 29,
              "velocity": 112,
              "position": 10.5,
              "duration": 0.24583333333333332
            },
            {
              "pitch": 41,
              "velocity": 107,
              "position": 10.5,
              "duration": 0.24583333333333332
            },
            {
              "pitch": 78,
              "velocity": 98,
              "position": 11,
              "duration": 0.16458333333333333
            },
            {
              "pitch": 75,
              "velocity": 93,
              "position": 11,
              "duration": 0.175
            },
            {
              "pitch": 27,
              "velocity": 92,
              "position": 11,
              "duration": 0.24583333333333332
            },
            {
              "pitch": 39,
              "velocity": 127,
              "position": 11,
              "duration": 0.24583333333333332
            },
            {
              "pitch": 72,
              "velocity": 96,
              "position": 11,
              "duration": 0.2625
            },
            {
              "pitch": 68,
              "velocity": 89,
              "position": 11,
              "duration": 0.2791666666666667
            },
            {
              "pitch": 75,
              "velocity": 112,
              "position": 11.5,
              "duration": 0.2375
            },
            {
              "pitch": 72,
              "velocity": 88,
              "position": 11.5,
              "duration": 0.29791666666666666
            },
            {
              "pitch": 69,
              "velocity": 104,
              "position": 11.5,
              "duration": 0.3020833333333333
            },
            {
              "pitch": 78,
              "velocity": 104,
              "position": 11.5,
              "duration": 0.3020833333333333
            },
            {
              "pitch": 75,
              "velocity": 77,
              "position": 12,
              "duration": 0.19375
            },
            {
              "pitch": 72,
              "velocity": 83,
              "position": 12,
              "duration": 0.24583333333333332
            },
            {
              "pitch": 69,
              "velocity": 61,
              "position": 12,
              "duration": 0.25625
            },
            {
              "pitch": 78,
              "velocity": 61,
              "position": 12,
              "duration": 0.25625
            },
            {
              "pitch": 26,
              "velocity": 126,
              "position": 11.5,
              "duration": 0.9958333333333333
            },
            {
              "pitch": 38,
              "velocity": 114,
              "position": 11.5,
              "duration": 0.9958333333333333
            },
            {
              "pitch": 75,
              "velocity": 77,
              "position": 12.5,
              "duration": 0.23541666666666666
            },
            {
              "pitch": 72,
              "velocity": 81,
              "position": 12.5,
              "duration": 0.26666666666666666
            },
            {
              "pitch": 69,
              "velocity": 85,
              "position": 12.5,
              "duration": 0.3104166666666667
            },
            {
              "pitch": 78,
              "velocity": 85,
              "position": 12.5,
              "duration": 0.3104166666666667
            },
            {
              "pitch": 75,
              "velocity": 76,
              "position": 13,
              "duration": 0.14166666666666666
            },
            {
              "pitch": 69,
              "velocity": 74,
              "position": 13,
              "duration": 0.17291666666666666
            },
            {
              "pitch": 72,
              "velocity": 101,
              "position": 13,
              "duration": 0.17291666666666666
            },
            {
              "pitch": 78,
              "velocity": 74,
              "position": 13,
              "duration": 0.17291666666666666
            },
            {
              "pitch": 32,
              "velocity": 117,
              "position": 13,
              "duration": 0.23541666666666666
            },
            {
              "pitch": 44,
              "velocity": 92,
              "position": 13,
              "duration": 0.23541666666666666
            },
            {
              "pitch": 77,
              "velocity": 92,
              "position": 13.5,
              "duration": 0.18333333333333332
            },
            {
              "pitch": 74,
              "velocity": 117,
              "position": 13.5,
              "duration": 0.2708333333333333
            },
            {
              "pitch": 71,
              "velocity": 109,
              "position": 13.5,
              "duration": 0.3229166666666667
            },
            {
              "pitch": 67,
              "velocity": 93,
              "position": 13.5,
              "duration": 0.37083333333333335
            },
            {
              "pitch": 77,
              "velocity": 34,
              "position": 14,
              "duration": 0.12083333333333333
            },
            {
              "pitch": 74,
              "velocity": 80,
              "position": 14,
              "duration": 0.19375
            },
            {
              "pitch": 71,
              "velocity": 67,
              "position": 14,
              "duration": 0.2375
            },
            {
              "pitch": 67,
              "velocity": 73,
              "position": 14,
              "duration": 0.25
            },
            {
              "pitch": 77,
              "velocity": 80,
              "position": 14.5,
              "duration": 0.1625
            },
            {
              "pitch": 71,
              "velocity": 99,
              "position": 14.5,
              "duration": 0.21875
            },
            {
              "pitch": 31,
              "velocity": 126,
              "position": 13.5,
              "duration": 1.2354166666666666
            },
            {
              "pitch": 43,
              "velocity": 104,
              "position": 13.5,
              "duration": 1.2354166666666666
            },
            {
              "pitch": 67,
              "velocity": 92,
              "position": 14.5,
              "duration": 0.23541666666666666
            },
            {
              "pitch": 74,
              "velocity": 109,
              "position": 14.5,
              "duration": 0.24791666666666667
            },
            {
              "pitch": 77,
              "velocity": 93,
              "position": 15,
              "duration": 0.21458333333333332
            },
            {
              "pitch": 31,
              "velocity": 119,
              "position": 15,
              "duration": 0.23541666666666666
            },
            {
              "pitch": 43,
              "velocity": 96,
              "position": 15,
              "duration": 0.23541666666666666
            },
            {
              "pitch": 71,
              "velocity": 99,
              "position": 15,
              "duration": 0.27708333333333335
            },
            {
              "pitch": 74,
              "velocity": 117,
              "position": 15,
              "duration": 0.27708333333333335
            },
            {
              "pitch": 67,
              "velocity": 99,
              "position": 15,
              "duration": 0.3020833333333333
            },
            {
              "pitch": 77,
              "velocity": 67,
              "position": 15.5,
              "duration": 0.225
            },
            {
              "pitch": 71,
              "velocity": 83,
              "position": 15.5,
              "duration": 0.2708333333333333
            },
            {
              "pitch": 67,
              "velocity": 61,
              "position": 15.5,
              "duration": 0.3229166666666667
            },
            {
              "pitch": 74,
              "velocity": 78,
              "position": 15.5,
              "duration": 0.43333333333333335
            },
            {
              "pitch": 31,
              "velocity": 81,
              "position": 15.75,
              "duration": 0.23541666666666666
            },
            {
              "pitch": 67,
              "velocity": 101,
              "position": 16,
              "duration": 0.20416666666666666
            },
            {
              "pitch": 24,
              "velocity": 125,
              "position": 16,
              "duration": 0.23541666666666666
            },
            {
              "pitch": 36,
              "velocity": 96,
              "position": 16,
              "duration": 0.23541666666666666
            },
            {
              "pitch": 72,
              "velocity": 104,
              "position": 16,
              "duration": 0.23541666666666666
            },
            {
              "pitch": 75,
              "velocity": 111,
              "position": 16,
              "duration": 0.25
            },
            {
              "pitch": 67,
              "velocity": 72,
              "position": 16.5,
              "duration": 0.17291666666666666
            },
            {
              "pitch": 75,
              "velocity": 81,
              "position": 16.5,
              "duration": 0.225
            },
            {
              "pitch": 72,
              "velocity": 70,
              "position": 16.5,
              "duration": 0.23125
            },
            {
              "pitch": 67,
              "velocity": 99,
              "position": 17,
              "duration": 0.15416666666666667
            },
            {
              "pitch": 72,
              "velocity": 111,
              "position": 17,
              "duration": 0.20833333333333334
            },
            {
              "pitch": 75,
              "velocity": 101,
              "position": 17,
              "duration": 0.23125
            },
            {
              "pitch": 67,
              "velocity": 85,
              "position": 17.5,
              "duration": 0.175
            },
            {
              "pitch": 72,
              "velocity": 72,
              "position": 17.5,
              "duration": 0.21458333333333332
            },
            {
              "pitch": 75,
              "velocity": 80,
              "position": 17.5,
              "duration": 0.21875
            },
            {
              "pitch": 67,
              "velocity": 99,
              "position": 18,
              "duration": 0.175
            },
            {
              "pitch": 24,
              "velocity": 118,
              "position": 18,
              "duration": 0.23541666666666666
            },
            {
              "pitch": 36,
              "velocity": 90,
              "position": 18,
              "duration": 0.23541666666666666
            },
            {
              "pitch": 75,
              "velocity": 96,
              "position": 18,
              "duration": 0.23541666666666666
            },
            {
              "pitch": 72,
              "velocity": 96,
              "position": 18,
              "duration": 0.23958333333333334
            },
            {
              "pitch": 67,
              "velocity": 91,
              "position": 18.5,
              "duration": 0.18958333333333333
            },
            {
              "pitch": 75,
              "velocity": 77,
              "position": 18.5,
              "duration": 0.19375
            },
            {
              "pitch": 25,
              "velocity": 113,
              "position": 18.5,
              "duration": 0.23541666666666666
            },
            {
              "pitch": 37,
              "velocity": 88,
              "position": 18.5,
              "duration": 0.23541666666666666
            },
            {
              "pitch": 72,
              "velocity": 72,
              "position": 18.5,
              "duration": 0.23541666666666666
            },
            {
              "pitch": 26,
              "velocity": 96,
              "position": 19,
              "duration": 0.23541666666666666
            },
            {
              "pitch": 38,
              "velocity": 127,
              "position": 19,
              "duration": 0.23541666666666666
            },
            {
              "pitch": 67,
              "velocity": 96,
              "position": 19,
              "duration": 0.25833333333333336
            },
            {
              "pitch": 72,
              "velocity": 78,
              "position": 19,
              "duration": 0.2708333333333333
            },
            {
              "pitch": 75,
              "velocity": 90,
              "position": 19,
              "duration": 0.2875
            },
            {
              "pitch": 27,
              "velocity": 122,
              "position": 19.5,
              "duration": 0.23541666666666666
            },
            {
              "pitch": 39,
              "velocity": 127,
              "position": 19.5,
              "duration": 0.23541666666666666
            },
            {
              "pitch": 77,
              "velocity": 94,
              "position": 19.5,
              "duration": 0.25625
            },
            {
              "pitch": 67,
              "velocity": 106,
              "position": 19.5,
              "duration": 0.27708333333333335
            },
            {
              "pitch": 73,
              "velocity": 91,
              "position": 19.5,
              "duration": 0.30833333333333335
            },
            {
              "pitch": 70,
              "velocity": 109,
              "position": 19.5,
              "duration": 0.32083333333333336
            },
            {
              "pitch": 77,
              "velocity": 64,
              "position": 20,
              "duration": 0.17291666666666666
            },
            {
              "pitch": 67,
              "velocity": 78,
              "position": 20,
              "duration": 0.1875
            },
            {
              "pitch": 73,
              "velocity": 49,
              "position": 20,
              "duration": 0.23541666666666666
            },
            {
              "pitch": 70,
              "velocity": 73,
              "position": 20,
              "duration": 0.23958333333333334
            },
            {
              "pitch": 77,
              "velocity": 67,
              "position": 20.5,
              "duration": 0.18333333333333332
            },
            {
              "pitch": 70,
              "velocity": 69,
              "position": 20.5,
              "duration": 0.18958333333333333
            },
            {
              "pitch": 67,
              "velocity": 94,
              "position": 20.5,
              "duration": 0.19375
            },
            {
              "pitch": 73,
              "velocity": 72,
              "position": 20.5,
              "duration": 0.23541666666666666
            },
            {
              "pitch": 77,
              "velocity": 99,
              "position": 21,
              "duration": 0.2375
            },
            {
              "pitch": 70,
              "velocity": 99,
              "position": 21,
              "duration": 0.25625
            },
            {
              "pitch": 67,
              "velocity": 106,
              "position": 21,
              "duration": 0.2708333333333333
            },
            {
              "pitch": 73,
              "velocity": 96,
              "position": 21,
              "duration": 0.27708333333333335
            },
            {
              "pitch": 77,
              "velocity": 80,
              "position": 21.5,
              "duration": 0.21458333333333332
            },
            {
              "pitch": 67,
              "velocity": 122,
              "position": 21.5,
              "duration": 0.25625
            },
            {
              "pitch": 70,
              "velocity": 94,
              "position": 21.5,
              "duration": 0.25833333333333336
            },
            {
              "pitch": 73,
              "velocity": 81,
              "position": 21.5,
              "duration": 0.26875
            },
            {
              "pitch": 27,
              "velocity": 127,
              "position": 22,
              "duration": 0.23541666666666666
            },
            {
              "pitch": 39,
              "velocity": 109,
              "position": 21.75,
              "duration": 0.48541666666666666
            },
            {
              "pitch": 77,
              "velocity": 94,
              "position": 22,
              "duration": 0.28125
            },
            {
              "pitch": 67,
              "velocity": 96,
              "position": 22,
              "duration": 0.2833333333333333
            },
            {
              "pitch": 70,
              "velocity": 106,
              "position": 22,
              "duration": 0.33958333333333335
            },
            {
              "pitch": 73,
              "velocity": 104,
              "position": 22,
              "duration": 0.3416666666666667
            },
            {
              "pitch": 77,
              "velocity": 101,
              "position": 22.5,
              "duration": 0.22083333333333333
            },
            {
              "pitch": 30,
              "velocity": 80,
              "position": 22.5,
              "duration": 0.23541666666666666
            },
            {
              "pitch": 42,
              "velocity": 90,
              "position": 22.5,
              "duration": 0.23541666666666666
            },
            {
              "pitch": 67,
              "velocity": 122,
              "position": 22.5,
              "duration": 0.2625
            },
            {
              "pitch": 70,
              "velocity": 99,
              "position": 22.5,
              "duration": 0.30833333333333335
            },
            {
              "pitch": 73,
              "velocity": 85,
              "position": 22.5,
              "duration": 0.31875
            },
            {
              "pitch": 70,
              "velocity": 90,
              "position": 23,
              "duration": 0.21458333333333332
            },
            {
              "pitch": 77,
              "velocity": 84,
              "position": 23,
              "duration": 0.21458333333333332
            },
            {
              "pitch": 31,
              "velocity": 122,
              "position": 23,
              "duration": 0.23541666666666666
            },
            {
              "pitch": 43,
              "velocity": 88,
              "position": 23,
              "duration": 0.23541666666666666
            },
            {
              "pitch": 67,
              "velocity": 113,
              "position": 23,
              "duration": 0.2916666666666667
            },
            {
              "pitch": 73,
              "velocity": 99,
              "position": 23,
              "duration": 0.32083333333333336
            },
            {
              "pitch": 32,
              "velocity": 127,
              "position": 23.5,
              "duration": 0.23541666666666666
            },
            {
              "pitch": 78,
              "velocity": 99,
              "position": 23.5,
              "duration": 0.2604166666666667
            },
            {
              "pitch": 72,
              "velocity": 111,
              "position": 23.5,
              "duration": 0.27708333333333335
            },
            {
              "pitch": 75,
              "velocity": 113,
              "position": 23.5,
              "duration": 0.27708333333333335
            },
            {
              "pitch": 68,
              "velocity": 106,
              "position": 23.5,
              "duration": 0.33958333333333335
            },
            {
              "pitch": 44,
              "velocity": 125,
              "position": 23.5,
              "duration": 0.48541666666666666
            },
            {
              "pitch": 78,
              "velocity": 70,
              "position": 24,
              "duration": 0.2
            },
            {
              "pitch": 72,
              "velocity": 72,
              "position": 24,
              "duration": 0.22708333333333333
            },
            {
              "pitch": 75,
              "velocity": 80,
              "position": 24,
              "duration": 0.23958333333333334
            },
            {
              "pitch": 68,
              "velocity": 77,
              "position": 24,
              "duration": 0.26666666666666666
            },
            {
              "pitch": 78,
              "velocity": 85,
              "position": 24.5,
              "duration": 0.1625
            },
            {
              "pitch": 72,
              "velocity": 85,
              "position": 24.5,
              "duration": 0.22916666666666666
            },
            {
              "pitch": 68,
              "velocity": 90,
              "position": 24.5,
              "duration": 0.23125
            },
            {
              "pitch": 75,
              "velocity": 99,
              "position": 24.5,
              "duration": 0.25
            },
            {
              "pitch": 78,
              "velocity": 91,
              "position": 25,
              "duration": 0.1625
            },
            {
              "pitch": 75,
              "velocity": 88,
              "position": 25,
              "duration": 0.21458333333333332
            },
            {
              "pitch": 72,
              "velocity": 85,
              "position": 25,
              "duration": 0.24583333333333332
            },
            {
              "pitch": 68,
              "velocity": 90,
              "position": 25,
              "duration": 0.27708333333333335
            },
            {
              "pitch": 78,
              "velocity": 90,
              "position": 25.5,
              "duration": 0.21458333333333332
            },
            {
              "pitch": 75,
              "velocity": 91,
              "position": 25.5,
              "duration": 0.25833333333333336
            },
            {
              "pitch": 72,
              "velocity": 80,
              "position": 25.5,
              "duration": 0.30833333333333335
            },
            {
              "pitch": 68,
              "velocity": 85,
              "position": 25.5,
              "duration": 0.37083333333333335
            },
            {
              "pitch": 39,
              "velocity": 113,
              "position": 25.75,
              "duration": 0.23541666666666666
            },
            {
              "pitch": 32,
              "velocity": 118,
              "position": 26,
              "duration": 0.23541666666666666
            },
            {
              "pitch": 44,
              "velocity": 101,
              "position": 26,
              "duration": 0.23541666666666666
            },
            {
              "pitch": 75,
              "velocity": 104,
              "position": 26,
              "duration": 0.32083333333333336
            },
            {
              "pitch": 72,
              "velocity": 96,
              "position": 26,
              "duration": 0.35208333333333336
            },
            {
              "pitch": 78,
              "velocity": 96,
              "position": 26,
              "duration": 0.35208333333333336
            },
            {
              "pitch": 68,
              "velocity": 57,
              "position": 26,
              "duration": 0.38125
            },
            {
              "pitch": 34,
              "velocity": 125,
              "position": 26.5,
              "duration": 0.23541666666666666
            },
            {
              "pitch": 46,
              "velocity": 106,
              "position": 26.5,
              "duration": 0.23541666666666666
            },
            {
              "pitch": 75,
              "velocity": 96,
              "position": 26.5,
              "duration": 0.24791666666666667
            },
            {
              "pitch": 72,
              "velocity": 81,
              "position": 26.5,
              "duration": 0.3125
            },
            {
              "pitch": 78,
              "velocity": 81,
              "position": 26.5,
              "duration": 0.3125
            },
            {
              "pitch": 68,
              "velocity": 84,
              "position": 26.5,
              "duration": 0.3333333333333333
            },
            {
              "pitch": 36,
              "velocity": 122,
              "position": 27,
              "duration": 0.23541666666666666
            },
            {
              "pitch": 48,
              "velocity": 122,
              "position": 27,
              "duration": 0.23541666666666666
            },
            {
              "pitch": 75,
              "velocity": 90,
              "position": 27,
              "duration": 0.25625
            },
            {
              "pitch": 72,
              "velocity": 78,
              "position": 27,
              "duration": 0.28125
            },
            {
              "pitch": 78,
              "velocity": 78,
              "position": 27,
              "duration": 0.28125
            },
            {
              "pitch": 68,
              "velocity": 63,
              "position": 27,
              "duration": 0.2916666666666667
            },
            {
              "pitch": 77,
              "velocity": 109,
              "position": 27.5,
              "duration": 0.6416666666666667
            },
            {
              "pitch": 74,
              "velocity": 101,
              "position": 27.5,
              "duration": 0.6833333333333333
            },
            {
              "pitch": 68,
              "velocity": 116,
              "position": 27.5,
              "duration": 0.70625
            },
            {
              "pitch": 72,
              "velocity": 125,
              "position": 27.5,
              "duration": 0.7145833333333333
            },
            {
              "pitch": 31,
              "velocity": 122,
              "position": 27.5,
              "duration": 0.7354166666666667
            },
            {
              "pitch": 43,
              "velocity": 111,
              "position": 27.5,
              "duration": 0.7354166666666667
            },
            {
              "pitch": 77,
              "velocity": 67,
              "position": 28.5,
              "duration": 0.13125
            },
            {
              "pitch": 72,
              "velocity": 90,
              "position": 28.5,
              "duration": 0.18333333333333332
            },
            {
              "pitch": 74,
              "velocity": 91,
              "position": 28.5,
              "duration": 0.18333333333333332
            },
            {
              "pitch": 68,
              "velocity": 88,
              "position": 28.5,
              "duration": 0.1875
            },
            {
              "pitch": 77,
              "velocity": 72,
              "position": 29,
              "duration": 0.14166666666666666
            },
            {
              "pitch": 72,
              "velocity": 75,
              "position": 29,
              "duration": 0.175
            },
            {
              "pitch": 68,
              "velocity": 70,
              "position": 29,
              "duration": 0.18333333333333332
            },
            {
              "pitch": 74,
              "velocity": 104,
              "position": 29,
              "duration": 0.21666666666666667
            },
            {
              "pitch": 31,
              "velocity": 104,
              "position": 29.5,
              "duration": 2.4854166666666666
            },
            {
              "pitch": 43,
              "velocity": 104,
              "position": 29.5,
              "duration": 2.4854166666666666
            },
            {
              "pitch": 67,
              "velocity": 99,
              "position": 29.5,
              "duration": 2.4854166666666666
            },
            {
              "pitch": 71,
              "velocity": 111,
              "position": 29.5,
              "duration": 2.4854166666666666
            },
            {
              "pitch": 74,
              "velocity": 122,
              "position": 29.5,
              "duration": 2.4854166666666666
            },
            {
              "pitch": 77,
              "velocity": 104,
              "position": 29.5,
              "duration": 2.4854166666666666
            }
          ]
        },
        "4": {
          "ctab": {
            "srcChannel": 4,
            "name": "Organ",
            "accType": "PAD",
            "editable": false,
            "mutedNotes": [],
            "mutedChords": [
              "1+2+5",
              "sus4",
              "1+5",
              "1+8",
              "7aug",
              "Maj7aug",
              "7(#9)",
              "7(b13)",
              "7(b9)",
              "7(13)",
              "7#11",
              "7(9)",
              "7b5",
              "7sus4",
              "7th",
              "aug",
              "Maj6(9)",
              "Maj7(9)",
              "Maj(9)",
              "Maj7#11",
              "Maj7",
              "Maj6",
              "Maj"
            ],
            "autoStart": false,
            "sourceChordNote": 0,
            "sourceChordType": "min",
            "ctb2Low": null,
            "ctb2Main": {
              "ntr": "ROOT_TRANSPOSITION",
              "ntt": "BYPASS",
              "bassOn": false,
              "chordRootUpperLimit": 8,
              "noteLowLimit": 58,
              "noteHighLimit": 69,
              "rtr": "PITCH_SHIFT"
            },
            "ctb2High": null
          },
          "notes": [
            {
              "pitch": 60,
              "velocity": 60,
              "position": 16.010416666666668,
              "duration": 0.48541666666666666
            },
            {
              "pitch": 63,
              "velocity": 60,
              "position": 16.010416666666668,
              "duration": 0.48541666666666666
            },
            {
              "pitch": 67,
              "velocity": 60,
              "position": 16.010416666666668,
              "duration": 0.48541666666666666
            },
            {
              "pitch": 60,
              "velocity": 60,
              "position": 18.483333333333334,
              "duration": 0.36041666666666666
            },
            {
              "pitch": 63,
              "velocity": 60,
              "position": 18.483333333333334,
              "duration": 0.36041666666666666
            },
            {
              "pitch": 67,
              "velocity": 60,
              "position": 18.483333333333334,
              "duration": 0.36041666666666666
            },
            {
              "pitch": 60,
              "velocity": 60,
              "position": 19.03125,
              "duration": 0.45416666666666666
            },
            {
              "pitch": 67,
              "velocity": 60,
              "position": 19.03125,
              "duration": 0.4583333333333333
            },
            {
              "pitch": 58,
              "velocity": 60,
              "position": 19.5,
              "duration": 0.45416666666666666
            },
            {
              "pitch": 61,
              "velocity": 60,
              "position": 19.5,
              "duration": 0.48541666666666666
            },
            {
              "pitch": 63,
              "velocity": 60,
              "position": 19.03125,
              "duration": 0.9541666666666667
            },
            {
              "pitch": 67,
              "velocity": 60,
              "position": 19.5,
              "duration": 0.48541666666666666
            },
            {
              "pitch": 58,
              "velocity": 60,
              "position": 22.5,
              "duration": 0.36041666666666666
            },
            {
              "pitch": 61,
              "velocity": 60,
              "position": 22.5,
              "duration": 0.36041666666666666
            },
            {
              "pitch": 63,
              "velocity": 60,
              "position": 22.5,
              "duration": 0.36041666666666666
            },
            {
              "pitch": 67,
              "velocity": 60,
              "position": 22.5,
              "duration": 0.36041666666666666
            },
            {
              "pitch": 58,
              "velocity": 60,
              "position": 23,
              "duration": 0.46458333333333335
            },
            {
              "pitch": 61,
              "velocity": 60,
              "position": 23,
              "duration": 0.46458333333333335
            },
            {
              "pitch": 63,
              "velocity": 60,
              "position": 23,
              "duration": 0.46458333333333335
            },
            {
              "pitch": 67,
              "velocity": 60,
              "position": 23,
              "duration": 0.46458333333333335
            },
            {
              "pitch": 60,
              "velocity": 60,
              "position": 23.5,
              "duration": 0.48541666666666666
            },
            {
              "pitch": 63,
              "velocity": 60,
              "position": 23.5,
              "duration": 0.48541666666666666
            },
            {
              "pitch": 66,
              "velocity": 60,
              "position": 23.5,
              "duration": 0.48541666666666666
            },
            {
              "pitch": 68,
              "velocity": 60,
              "position": 23.5,
              "duration": 0.48541666666666666
            },
            {
              "pitch": 60,
              "velocity": 60,
              "position": 26.489583333333332,
              "duration": 0.36041666666666666
            },
            {
              "pitch": 63,
              "velocity": 60,
              "position": 26.489583333333332,
              "duration": 0.36041666666666666
            },
            {
              "pitch": 66,
              "velocity": 60,
              "position": 26.489583333333332,
              "duration": 0.36041666666666666
            },
            {
              "pitch": 68,
              "velocity": 60,
              "position": 26.489583333333332,
              "duration": 0.36041666666666666
            },
            {
              "pitch": 60,
              "velocity": 60,
              "position": 27.002083333333335,
              "duration": 0.4666666666666667
            },
            {
              "pitch": 63,
              "velocity": 60,
              "position": 27.002083333333335,
              "duration": 0.4666666666666667
            },
            {
              "pitch": 66,
              "velocity": 60,
              "position": 27.002083333333335,
              "duration": 0.4666666666666667
            },
            {
              "pitch": 68,
              "velocity": 60,
              "position": 27.002083333333335,
              "duration": 0.4666666666666667
            },
            {
              "pitch": 60,
              "velocity": 60,
              "position": 27.510416666666668,
              "duration": 0.9854166666666667
            },
            {
              "pitch": 62,
              "velocity": 60,
              "position": 27.510416666666668,
              "duration": 0.9854166666666667
            },
            {
              "pitch": 65,
              "velocity": 60,
              "position": 27.510416666666668,
              "duration": 0.9854166666666667
            },
            {
              "pitch": 68,
              "velocity": 60,
              "position": 27.510416666666668,
              "duration": 0.9854166666666667
            },
            {
              "pitch": 59,
              "velocity": 60,
              "position": 29.489583333333332,
              "duration": 2.4916666666666667
            },
            {
              "pitch": 62,
              "velocity": 60,
              "position": 29.489583333333332,
              "duration": 2.4916666666666667
            },
            {
              "pitch": 65,
              "velocity": 60,
              "position": 29.489583333333332,
              "duration": 2.4916666666666667
            },
            {
              "pitch": 67,
              "velocity": 60,
              "position": 29.489583333333332,
              "duration": 2.4916666666666667
            }
          ]
        },
        "8": {
          "ctab": {
            "srcChannel": 8,
            "name": "AddDrum",
            "accType": "SUBRHYTHM",
            "editable": false,
            "mutedNotes": [],
            "mutedChords": [],
            "autoStart": true,
            "sourceChordNote": 0,
            "sourceChordType": "Maj7",
            "ctb2Low": null,
            "ctb2Main": {
              "ntr": "ROOT_FIXED",
              "ntt": "BYPASS",
              "bassOn": false,
              "chordRootUpperLimit": 6,
              "noteLowLimit": 0,
              "noteHighLimit": 127,
              "rtr": "PITCH_SHIFT"
            },
            "ctb2High": null
          },
          "notes": [
            {
              "pitch": 18,
              "velocity": 81,
              "position": 13.666666666666666,
              "duration": 0.4875
            },
            {
              "pitch": 17,
              "velocity": 127,
              "position": 14,
              "duration": 0.48541666666666666
            },
            {
              "pitch": 18,
              "velocity": 81,
              "position": 14.166666666666666,
              "duration": 0.4875
            },
            {
              "pitch": 17,
              "velocity": 127,
              "position": 14.5,
              "duration": 0.48541666666666666
            },
            {
              "pitch": 32,
              "velocity": 106,
              "position": 15,
              "duration": 0.00625
            },
            {
              "pitch": 18,
              "velocity": 81,
              "position": 14.666666666666666,
              "duration": 0.4875
            },
            {
              "pitch": 26,
              "velocity": 76,
              "position": 0,
              "duration": 15.964583333333334
            },
            {
              "pitch": 42,
              "velocity": 120,
              "position": 16,
              "duration": 0.00625
            },
            {
              "pitch": 42,
              "velocity": 40,
              "position": 16.5,
              "duration": 0.00625
            },
            {
              "pitch": 32,
              "velocity": 106,
              "position": 17,
              "duration": 0.00625
            },
            {
              "pitch": 42,
              "velocity": 120,
              "position": 17,
              "duration": 0.00625
            },
            {
              "pitch": 42,
              "velocity": 40,
              "position": 17.5,
              "duration": 0.00625
            },
            {
              "pitch": 32,
              "velocity": 24,
              "position": 17.770833333333332,
              "duration": 0.00625
            },
            {
              "pitch": 42,
              "velocity": 120,
              "position": 18,
              "duration": 0.00625
            },
            {
              "pitch": 32,
              "velocity": 24,
              "position": 18.270833333333332,
              "duration": 0.00625
            },
            {
              "pitch": 42,
              "velocity": 40,
              "position": 18.5,
              "duration": 0.00625
            },
            {
              "pitch": 32,
              "velocity": 106,
              "position": 19,
              "duration": 0.00625
            },
            {
              "pitch": 42,
              "velocity": 120,
              "position": 19,
              "duration": 0.00625
            },
            {
              "pitch": 42,
              "velocity": 40,
              "position": 19.5,
              "duration": 0.00625
            },
            {
              "pitch": 42,
              "velocity": 120,
              "position": 20,
              "duration": 0.00625
            },
            {
              "pitch": 42,
              "velocity": 40,
              "position": 20.5,
              "duration": 0.00625
            },
            {
              "pitch": 32,
              "velocity": 106,
              "position": 21,
              "duration": 0.00625
            },
            {
              "pitch": 42,
              "velocity": 120,
              "position": 21,
              "duration": 0.00625
            },
            {
              "pitch": 42,
              "velocity": 40,
              "position": 21.5,
              "duration": 0.00625
            },
            {
              "pitch": 32,
              "velocity": 24,
              "position": 21.770833333333332,
              "duration": 0.00625
            },
            {
              "pitch": 42,
              "velocity": 120,
              "position": 22,
              "duration": 0.00625
            },
            {
              "pitch": 32,
              "velocity": 24,
              "position": 22.270833333333332,
              "duration": 0.00625
            },
            {
              "pitch": 42,
              "velocity": 40,
              "position": 22.5,
              "duration": 0.00625
            },
            {
              "pitch": 32,
              "velocity": 106,
              "position": 23,
              "duration": 0.00625
            },
            {
              "pitch": 42,
              "velocity": 120,
              "position": 23,
              "duration": 0.00625
            },
            {
              "pitch": 46,
              "velocity": 60,
              "position": 23.5,
              "duration": 0.00625
            },
            {
              "pitch": 26,
              "velocity": 50,
              "position": 16,
              "duration": 7.985416666666667
            },
            {
              "pitch": 42,
              "velocity": 120,
              "position": 24,
              "duration": 0.00625
            },
            {
              "pitch": 42,
              "velocity": 40,
              "position": 24.5,
              "duration": 0.00625
            },
            {
              "pitch": 32,
              "velocity": 106,
              "position": 25,
              "duration": 0.00625
            },
            {
              "pitch": 42,
              "velocity": 120,
              "position": 25,
              "duration": 0.00625
            },
            {
              "pitch": 42,
              "velocity": 40,
              "position": 25.5,
              "duration": 0.00625
            },
            {
              "pitch": 32,
              "velocity": 24,
              "position": 25.770833333333332,
              "duration": 0.00625
            },
            {
              "pitch": 42,
              "velocity": 120,
              "position": 26,
              "duration": 0.00625
            },
            {
              "pitch": 32,
              "velocity": 24,
              "position": 26.270833333333332,
              "duration": 0.00625
            },
            {
              "pitch": 42,
              "velocity": 40,
              "position": 26.5,
              "duration": 0.00625
            },
            {
              "pitch": 32,
              "velocity": 106,
              "position": 27,
              "duration": 0.00625
            },
            {
              "pitch": 42,
              "velocity": 120,
              "position": 27,
              "duration": 0.00625
            },
            {
              "pitch": 42,
              "velocity": 40,
              "position": 27.5,
              "duration": 0.00625
            },
            {
              "pitch": 42,
              "velocity": 120,
              "position": 28,
              "duration": 0.00625
            },
            {
              "pitch": 42,
              "velocity": 40,
              "position": 28.5,
              "duration": 0.00625
            },
            {
              "pitch": 32,
              "velocity": 106,
              "position": 29,
              "duration": 0.00625
            },
            {
              "pitch": 42,
              "velocity": 120,
              "position": 29,
              "duration": 0.00625
            },
            {
              "pitch": 42,
              "velocity": 40,
              "position": 29.5,
              "duration": 0.00625
            },
            {
              "pitch": 32,
              "velocity": 24,
              "position": 29.770833333333332,
              "duration": 0.00625
            },
            {
              "pitch": 42,
              "velocity": 120,
              "position": 30,
              "duration": 0.00625
            },
            {
              "pitch": 32,
              "velocity": 24,
              "position": 30.270833333333332,
              "duration": 0.00625
            },
            {
              "pitch": 42,
              "velocity": 40,
              "position": 30.5,
              "duration": 0.00625
            },
            {
              "pitch": 32,
              "velocity": 106,
              "position": 31,
              "duration": 0.00625
            },
            {
              "pitch": 42,
              "velocity": 120,
              "position": 31,
              "duration": 0.00625
            },
            {
              "pitch": 18,
              "velocity": 81,
              "position": 30.666666666666668,
              "duration": 0.4875
            },
            {
              "pitch": 17,
              "velocity": 127,
              "position": 31,
              "duration": 0.48541666666666666
            },
            {
              "pitch": 46,
              "velocity": 60,
              "position": 31.5,
              "duration": 0.00625
            },
            {
              "pitch": 18,
              "velocity": 81,
              "position": 31.166666666666668,
              "duration": 0.4875
            },
            {
              "pitch": 17,
              "velocity": 127,
              "position": 31.5,
              "duration": 0.48541666666666666
            },
            {
              "pitch": 26,
              "velocity": 50,
              "position": 24,
              "duration": 7.985416666666667
            }
          ]
        },
        "9": {
          "ctab": {
            "srcChannel": 9,
            "name": "MainDrum",
            "accType": "RHYTHM",
            "editable": false,
            "mutedNotes": [],
            "mutedChords": [],
            "autoStart": true,
            "sourceChordNote": 0,
            "sourceChordType": "Maj7",
            "ctb2Low": null,
            "ctb2Main": {
              "ntr": "ROOT_FIXED",
              "ntt": "BYPASS",
              "bassOn": false,
              "chordRootUpperLimit": 6,
              "noteLowLimit": 0,
              "noteHighLimit": 127,
              "rtr": "PITCH_SHIFT"
            },
            "ctb2High": null
          },
          "notes": [
            {
              "pitch": 38,
              "velocity": 28,
              "position": 14.760416666666666,
              "duration": 0.00625
            },
            {
              "pitch": 38,
              "velocity": 35,
              "position": 14.895833333333334,
              "duration": 0.00625
            },
            {
              "pitch": 38,
              "velocity": 110,
              "position": 15,
              "duration": 0.00625
            },
            {
              "pitch": 35,
              "velocity": 100,
              "position": 15.25,
              "duration": 0.00625
            },
            {
              "pitch": 46,
              "velocity": 66,
              "position": 15.25,
              "duration": 0.00625
            },
            {
              "pitch": 35,
              "velocity": 100,
              "position": 16,
              "duration": 0.00625
            },
            {
              "pitch": 42,
              "velocity": 110,
              "position": 16,
              "duration": 0.00625
            },
            {
              "pitch": 54,
              "velocity": 103,
              "position": 16,
              "duration": 0.00625
            },
            {
              "pitch": 38,
              "velocity": 23,
              "position": 16.2625,
              "duration": 0.00625
            },
            {
              "pitch": 42,
              "velocity": 54,
              "position": 16.489583333333332,
              "duration": 0.00625
            },
            {
              "pitch": 54,
              "velocity": 32,
              "position": 16.5,
              "duration": 0.00625
            },
            {
              "pitch": 54,
              "velocity": 92,
              "position": 16.99375,
              "duration": 0.00625
            },
            {
              "pitch": 38,
              "velocity": 104,
              "position": 17,
              "duration": 0.00625
            },
            {
              "pitch": 42,
              "velocity": 106,
              "position": 17,
              "duration": 0.00625
            },
            {
              "pitch": 42,
              "velocity": 58,
              "position": 17.489583333333332,
              "duration": 0.00625
            },
            {
              "pitch": 54,
              "velocity": 43,
              "position": 17.5,
              "duration": 0.00625
            },
            {
              "pitch": 35,
              "velocity": 60,
              "position": 17.770833333333332,
              "duration": 0.00625
            },
            {
              "pitch": 54,
              "velocity": 107,
              "position": 17.991666666666667,
              "duration": 0.00625
            },
            {
              "pitch": 35,
              "velocity": 100,
              "position": 18,
              "duration": 0.00625
            },
            {
              "pitch": 42,
              "velocity": 110,
              "position": 18.004166666666666,
              "duration": 0.00625
            },
            {
              "pitch": 38,
              "velocity": 35,
              "position": 18.2625,
              "duration": 0.00625
            },
            {
              "pitch": 54,
              "velocity": 43,
              "position": 18.491666666666667,
              "duration": 0.00625
            },
            {
              "pitch": 35,
              "velocity": 100,
              "position": 18.5,
              "duration": 0.00625
            },
            {
              "pitch": 42,
              "velocity": 52,
              "position": 18.5,
              "duration": 0.00625
            },
            {
              "pitch": 38,
              "velocity": 104,
              "position": 19,
              "duration": 0.00625
            },
            {
              "pitch": 42,
              "velocity": 110,
              "position": 19,
              "duration": 0.00625
            },
            {
              "pitch": 54,
              "velocity": 91,
              "position": 19,
              "duration": 0.00625
            },
            {
              "pitch": 35,
              "velocity": 100,
              "position": 19.270833333333332,
              "duration": 0.00625
            },
            {
              "pitch": 42,
              "velocity": 52,
              "position": 19.5,
              "duration": 0.00625
            },
            {
              "pitch": 54,
              "velocity": 31,
              "position": 19.5,
              "duration": 0.00625
            },
            {
              "pitch": 38,
              "velocity": 28,
              "position": 19.760416666666668,
              "duration": 0.00625
            },
            {
              "pitch": 35,
              "velocity": 100,
              "position": 20,
              "duration": 0.00625
            },
            {
              "pitch": 42,
              "velocity": 110,
              "position": 20,
              "duration": 0.00625
            },
            {
              "pitch": 54,
              "velocity": 101,
              "position": 20,
              "duration": 0.00625
            },
            {
              "pitch": 38,
              "velocity": 24,
              "position": 20.2625,
              "duration": 0.00625
            },
            {
              "pitch": 42,
              "velocity": 59,
              "position": 20.49375,
              "duration": 0.00625
            },
            {
              "pitch": 54,
              "velocity": 44,
              "position": 20.5,
              "duration": 0.00625
            },
            {
              "pitch": 38,
              "velocity": 104,
              "position": 21,
              "duration": 0.00625
            },
            {
              "pitch": 42,
              "velocity": 107,
              "position": 21,
              "duration": 0.00625
            },
            {
              "pitch": 54,
              "velocity": 100,
              "position": 21.002083333333335,
              "duration": 0.00625
            },
            {
              "pitch": 42,
              "velocity": 54,
              "position": 21.502083333333335,
              "duration": 0.00625
            },
            {
              "pitch": 54,
              "velocity": 46,
              "position": 21.504166666666666,
              "duration": 0.00625
            },
            {
              "pitch": 35,
              "velocity": 60,
              "position": 21.770833333333332,
              "duration": 0.00625
            },
            {
              "pitch": 35,
              "velocity": 100,
              "position": 22,
              "duration": 0.00625
            },
            {
              "pitch": 54,
              "velocity": 105,
              "position": 22,
              "duration": 0.00625
            },
            {
              "pitch": 42,
              "velocity": 105,
              "position": 22.004166666666666,
              "duration": 0.00625
            },
            {
              "pitch": 38,
              "velocity": 35,
              "position": 22.260416666666668,
              "duration": 0.00625
            },
            {
              "pitch": 35,
              "velocity": 100,
              "position": 22.5,
              "duration": 0.00625
            },
            {
              "pitch": 54,
              "velocity": 37,
              "position": 22.5,
              "duration": 0.00625
            },
            {
              "pitch": 42,
              "velocity": 57,
              "position": 22.502083333333335,
              "duration": 0.00625
            },
            {
              "pitch": 38,
              "velocity": 104,
              "position": 23,
              "duration": 0.00625
            },
            {
              "pitch": 42,
              "velocity": 110,
              "position": 23,
              "duration": 0.00625
            },
            {
              "pitch": 54,
              "velocity": 99,
              "position": 23,
              "duration": 0.00625
            },
            {
              "pitch": 35,
              "velocity": 100,
              "position": 23.270833333333332,
              "duration": 0.00625
            },
            {
              "pitch": 54,
              "velocity": 34,
              "position": 23.491666666666667,
              "duration": 0.00625
            },
            {
              "pitch": 42,
              "velocity": 48,
              "position": 23.49375,
              "duration": 0.00625
            },
            {
              "pitch": 38,
              "velocity": 24,
              "position": 23.775,
              "duration": 0.00625
            },
            {
              "pitch": 35,
              "velocity": 100,
              "position": 24,
              "duration": 0.00625
            },
            {
              "pitch": 42,
              "velocity": 106,
              "position": 24,
              "duration": 0.00625
            },
            {
              "pitch": 54,
              "velocity": 100,
              "position": 24.004166666666666,
              "duration": 0.00625
            },
            {
              "pitch": 38,
              "velocity": 15,
              "position": 24.260416666666668,
              "duration": 0.00625
            },
            {
              "pitch": 54,
              "velocity": 38,
              "position": 24.491666666666667,
              "duration": 0.00625
            },
            {
              "pitch": 42,
              "velocity": 46,
              "position": 24.5,
              "duration": 0.00625
            },
            {
              "pitch": 38,
              "velocity": 104,
              "position": 25,
              "duration": 0.00625
            },
            {
              "pitch": 42,
              "velocity": 107,
              "position": 25,
              "duration": 0.00625
            },
            {
              "pitch": 54,
              "velocity": 108,
              "position": 25,
              "duration": 0.00625
            },
            {
              "pitch": 42,
              "velocity": 51,
              "position": 25.5,
              "duration": 0.00625
            },
            {
              "pitch": 54,
              "velocity": 31,
              "position": 25.504166666666666,
              "duration": 0.00625
            },
            {
              "pitch": 35,
              "velocity": 60,
              "position": 25.770833333333332,
              "duration": 0.00625
            },
            {
              "pitch": 42,
              "velocity": 110,
              "position": 25.989583333333332,
              "duration": 0.00625
            },
            {
              "pitch": 54,
              "velocity": 103,
              "position": 25.991666666666667,
              "duration": 0.00625
            },
            {
              "pitch": 35,
              "velocity": 100,
              "position": 26,
              "duration": 0.00625
            },
            {
              "pitch": 38,
              "velocity": 37,
              "position": 26.2625,
              "duration": 0.00625
            },
            {
              "pitch": 42,
              "velocity": 63,
              "position": 26.489583333333332,
              "duration": 0.00625
            },
            {
              "pitch": 35,
              "velocity": 100,
              "position": 26.5,
              "duration": 0.00625
            },
            {
              "pitch": 54,
              "velocity": 49,
              "position": 26.5,
              "duration": 0.00625
            },
            {
              "pitch": 38,
              "velocity": 104,
              "position": 27,
              "duration": 0.00625
            },
            {
              "pitch": 42,
              "velocity": 110,
              "position": 27,
              "duration": 0.00625
            },
            {
              "pitch": 54,
              "velocity": 107,
              "position": 27,
              "duration": 0.00625
            },
            {
              "pitch": 35,
              "velocity": 100,
              "position": 27.270833333333332,
              "duration": 0.00625
            },
            {
              "pitch": 42,
              "velocity": 63,
              "position": 27.489583333333332,
              "duration": 0.00625
            },
            {
              "pitch": 54,
              "velocity": 37,
              "position": 27.5,
              "duration": 0.00625
            },
            {
              "pitch": 38,
              "velocity": 16,
              "position": 27.770833333333332,
              "duration": 0.00625
            },
            {
              "pitch": 35,
              "velocity": 100,
              "position": 28,
              "duration": 0.00625
            },
            {
              "pitch": 42,
              "velocity": 110,
              "position": 28,
              "duration": 0.00625
            },
            {
              "pitch": 54,
              "velocity": 99,
              "position": 28.002083333333335,
              "duration": 0.00625
            },
            {
              "pitch": 38,
              "velocity": 12,
              "position": 28.2625,
              "duration": 0.00625
            },
            {
              "pitch": 54,
              "velocity": 32,
              "position": 28.5,
              "duration": 0.00625
            },
            {
              "pitch": 42,
              "velocity": 51,
              "position": 28.504166666666666,
              "duration": 0.00625
            },
            {
              "pitch": 38,
              "velocity": 104,
              "position": 29,
              "duration": 0.00625
            },
            {
              "pitch": 42,
              "velocity": 108,
              "position": 29,
              "duration": 0.00625
            },
            {
              "pitch": 54,
              "velocity": 97,
              "position": 29.004166666666666,
              "duration": 0.00625
            },
            {
              "pitch": 57,
              "velocity": 86,
              "position": 29.49375,
              "duration": 0.00625
            },
            {
              "pitch": 35,
              "velocity": 100,
              "position": 29.5,
              "duration": 0.00625
            },
            {
              "pitch": 54,
              "velocity": 34,
              "position": 29.5,
              "duration": 0.00625
            },
            {
              "pitch": 35,
              "velocity": 100,
              "position": 30.5,
              "duration": 0.00625
            },
            {
              "pitch": 38,
              "velocity": 106,
              "position": 31,
              "duration": 0.00625
            },
            {
              "pitch": 35,
              "velocity": 100,
              "position": 31.270833333333332,
              "duration": 0.00625
            },
            {
              "pitch": 46,
              "velocity": 65,
              "position": 31.504166666666666,
              "duration": 0.00625
            },
            {
              "pitch": 38,
              "velocity": 18,
              "position": 31.775,
              "duration": 0.00625
            },
            {
              "pitch": 49,
              "velocity": 80,
              "position": 31.989583333333332,
              "duration": 0.00625
            }
          ]
        },
        "10": {
          "ctab": {
            "srcChannel": 10,
            "name": "Bass",
            "accType": "BASS",
            "editable": false,
            "mutedNotes": [],
            "mutedChords": [
              "dim7",
              "dim",
              "minMaj7(9)",
              "minMaj7",
              "min7(11)",
              "min7(9)",
              "min(9)",
              "m7b5",
              "min7",
              "min6",
              "min"
            ],
            "autoStart": false,
            "sourceChordNote": 0,
            "sourceChordType": "Maj",
            "ctb2Low": null,
            "ctb2Main": {
              "ntr": "ROOT_TRANSPOSITION",
              "ntt": "BYPASS",
              "bassOn": false,
              "chordRootUpperLimit": 8,
              "noteLowLimit": 28,
              "noteHighLimit": 127,
              "rtr": "PITCH_SHIFT"
            },
            "ctb2High": null
          },
          "notes": [
            {
              "pitch": 24,
              "velocity": 74,
              "position": 16.010416666666668,
              "duration": 0.48541666666666666
            },
            {
              "pitch": 24,
              "velocity": 114,
              "position": 17.760416666666668,
              "duration": 0.21458333333333332
            },
            {
              "pitch": 24,
              "velocity": 76,
              "position": 18.010416666666668,
              "duration": 0.29791666666666666
            },
            {
              "pitch": 26,
              "velocity": 70,
              "position": 18.483333333333334,
              "duration": 0.36041666666666666
            },
            {
              "pitch": 27,
              "velocity": 70,
              "position": 19,
              "duration": 0.36041666666666666
            },
            {
              "pitch": 28,
              "velocity": 74,
              "position": 19.5,
              "duration": 0.48541666666666666
            },
            {
              "pitch": 28,
              "velocity": 114,
              "position": 21.760416666666668,
              "duration": 0.21458333333333332
            },
            {
              "pitch": 28,
              "velocity": 76,
              "position": 22.010416666666668,
              "duration": 0.29791666666666666
            },
            {
              "pitch": 31,
              "velocity": 70,
              "position": 22.5,
              "duration": 0.36041666666666666
            },
            {
              "pitch": 32,
              "velocity": 70,
              "position": 23,
              "duration": 0.36041666666666666
            },
            {
              "pitch": 33,
              "velocity": 74,
              "position": 23.5,
              "duration": 0.48541666666666666
            },
            {
              "pitch": 26,
              "velocity": 114,
              "position": 25.760416666666668,
              "duration": 0.21458333333333332
            },
            {
              "pitch": 26,
              "velocity": 76,
              "position": 26.010416666666668,
              "duration": 0.29791666666666666
            },
            {
              "pitch": 28,
              "velocity": 78,
              "position": 26.489583333333332,
              "duration": 0.36041666666666666
            },
            {
              "pitch": 30,
              "velocity": 78,
              "position": 27,
              "duration": 0.36041666666666666
            },
            {
              "pitch": 31,
              "velocity": 77,
              "position": 27.5,
              "duration": 0.48541666666666666
            },
            {
              "pitch": 31,
              "velocity": 70,
              "position": 29.489583333333332,
              "duration": 2.4916666666666667
            }
          ]
        },
        "11": {
          "ctab": {
            "srcChannel": 11,
            "name": "Strat",
            "accType": "CHORD1",
            "editable": false,
            "mutedNotes": [],
            "mutedChords": [
              "dim7",
              "dim",
              "minMaj7(9)",
              "minMaj7",
              "min7(11)",
              "min7(9)",
              "min(9)",
              "m7b5",
              "min7",
              "min6",
              "min"
            ],
            "autoStart": false,
            "sourceChordNote": 0,
            "sourceChordType": "Maj",
            "ctb2Low": null,
            "ctb2Main": {
              "ntr": "ROOT_TRANSPOSITION",
              "ntt": "BYPASS",
              "bassOn": false,
              "chordRootUpperLimit": 8,
              "noteLowLimit": 54,
              "noteHighLimit": 72,
              "rtr": "PITCH_SHIFT"
            },
            "ctb2High": null
          },
          "notes": [
            {
              "pitch": 106,
              "velocity": 97,
              "position": 16,
              "duration": 0.23541666666666666
            },
            {
              "pitch": 108,
              "velocity": 114,
              "position": 16.5,
              "duration": 0.23541666666666666
            },
            {
              "pitch": 52,
              "velocity": 45,
              "position": 16.5,
              "duration": 0.25833333333333336
            },
            {
              "pitch": 48,
              "velocity": 57,
              "position": 16.5,
              "duration": 0.26666666666666666
            },
            {
              "pitch": 48,
              "velocity": 35,
              "position": 16.78125,
              "duration": 0.20416666666666666
            },
            {
              "pitch": 52,
              "velocity": 18,
              "position": 16.770833333333332,
              "duration": 0.21666666666666667
            },
            {
              "pitch": 79,
              "velocity": 44,
              "position": 16.510416666666668,
              "duration": 0.48541666666666666
            },
            {
              "pitch": 105,
              "velocity": 77,
              "position": 16.770833333333332,
              "duration": 0.23541666666666666
            },
            {
              "pitch": 106,
              "velocity": 89,
              "position": 17,
              "duration": 0.23541666666666666
            },
            {
              "pitch": 84,
              "velocity": 44,
              "position": 16.510416666666668,
              "duration": 0.7479166666666667
            },
            {
              "pitch": 79,
              "velocity": 45,
              "position": 17.010416666666668,
              "duration": 0.25625
            },
            {
              "pitch": 52,
              "velocity": 49,
              "position": 17,
              "duration": 0.26875
            },
            {
              "pitch": 48,
              "velocity": 42,
              "position": 17,
              "duration": 0.27708333333333335
            },
            {
              "pitch": 84,
              "velocity": 51,
              "position": 17.270833333333332,
              "duration": 0.20416666666666666
            },
            {
              "pitch": 107,
              "velocity": 125,
              "position": 17.270833333333332,
              "duration": 0.20416666666666666
            },
            {
              "pitch": 52,
              "velocity": 56,
              "position": 17.28125,
              "duration": 0.20416666666666666
            },
            {
              "pitch": 79,
              "velocity": 57,
              "position": 17.28125,
              "duration": 0.20416666666666666
            },
            {
              "pitch": 48,
              "velocity": 60,
              "position": 17.291666666666668,
              "duration": 0.20416666666666666
            },
            {
              "pitch": 108,
              "velocity": 127,
              "position": 17.5,
              "duration": 0.23541666666666666
            },
            {
              "pitch": 105,
              "velocity": 84,
              "position": 17.770833333333332,
              "duration": 0.23541666666666666
            },
            {
              "pitch": 48,
              "velocity": 50,
              "position": 18,
              "duration": 0.20416666666666666
            },
            {
              "pitch": 52,
              "velocity": 51,
              "position": 18,
              "duration": 0.20416666666666666
            },
            {
              "pitch": 106,
              "velocity": 114,
              "position": 18,
              "duration": 0.20416666666666666
            },
            {
              "pitch": 79,
              "velocity": 60,
              "position": 18.010416666666668,
              "duration": 0.20416666666666666
            },
            {
              "pitch": 84,
              "velocity": 47,
              "position": 18.010416666666668,
              "duration": 0.20416666666666666
            },
            {
              "pitch": 107,
              "velocity": 76,
              "position": 18.270833333333332,
              "duration": 0.20416666666666666
            },
            {
              "pitch": 108,
              "velocity": 55,
              "position": 18.5,
              "duration": 0.23541666666666666
            },
            {
              "pitch": 98,
              "velocity": 97,
              "position": 18.770833333333332,
              "duration": 0.23541666666666666
            },
            {
              "pitch": 106,
              "velocity": 23,
              "position": 19,
              "duration": 0.23541666666666666
            },
            {
              "pitch": 107,
              "velocity": 126,
              "position": 19.270833333333332,
              "duration": 0.20416666666666666
            },
            {
              "pitch": 108,
              "velocity": 127,
              "position": 19.5,
              "duration": 0.23541666666666666
            },
            {
              "pitch": 76,
              "velocity": 59,
              "position": 19.510416666666668,
              "duration": 0.24791666666666667
            },
            {
              "pitch": 50,
              "velocity": 49,
              "position": 19.5,
              "duration": 0.2625
            },
            {
              "pitch": 44,
              "velocity": 51,
              "position": 19.5,
              "duration": 0.26875
            },
            {
              "pitch": 83,
              "velocity": 60,
              "position": 19.510416666666668,
              "duration": 0.4875
            },
            {
              "pitch": 105,
              "velocity": 80,
              "position": 19.770833333333332,
              "duration": 0.23541666666666666
            },
            {
              "pitch": 76,
              "velocity": 42,
              "position": 19.770833333333332,
              "duration": 0.2375
            },
            {
              "pitch": 50,
              "velocity": 39,
              "position": 19.78125,
              "duration": 0.23541666666666666
            },
            {
              "pitch": 44,
              "velocity": 50,
              "position": 19.78125,
              "duration": 0.2375
            },
            {
              "pitch": 106,
              "velocity": 88,
              "position": 20,
              "duration": 0.23541666666666666
            },
            {
              "pitch": 107,
              "velocity": 118,
              "position": 20.270833333333332,
              "duration": 0.20416666666666666
            },
            {
              "pitch": 108,
              "velocity": 127,
              "position": 20.5,
              "duration": 0.23541666666666666
            },
            {
              "pitch": 50,
              "velocity": 44,
              "position": 20.5,
              "duration": 0.25833333333333336
            },
            {
              "pitch": 44,
              "velocity": 43,
              "position": 20.5,
              "duration": 0.26666666666666666
            },
            {
              "pitch": 44,
              "velocity": 33,
              "position": 20.78125,
              "duration": 0.20416666666666666
            },
            {
              "pitch": 50,
              "velocity": 25,
              "position": 20.770833333333332,
              "duration": 0.21666666666666667
            },
            {
              "pitch": 76,
              "velocity": 58,
              "position": 20.510416666666668,
              "duration": 0.48541666666666666
            },
            {
              "pitch": 105,
              "velocity": 87,
              "position": 20.770833333333332,
              "duration": 0.23541666666666666
            },
            {
              "pitch": 106,
              "velocity": 99,
              "position": 21,
              "duration": 0.23541666666666666
            },
            {
              "pitch": 83,
              "velocity": 56,
              "position": 20.510416666666668,
              "duration": 0.7479166666666667
            },
            {
              "pitch": 76,
              "velocity": 43,
              "position": 21.010416666666668,
              "duration": 0.25625
            },
            {
              "pitch": 50,
              "velocity": 45,
              "position": 21,
              "duration": 0.26875
            },
            {
              "pitch": 44,
              "velocity": 48,
              "position": 21,
              "duration": 0.27708333333333335
            },
            {
              "pitch": 83,
              "velocity": 59,
              "position": 21.270833333333332,
              "duration": 0.20416666666666666
            },
            {
              "pitch": 107,
              "velocity": 116,
              "position": 21.270833333333332,
              "duration": 0.20416666666666666
            },
            {
              "pitch": 50,
              "velocity": 51,
              "position": 21.28125,
              "duration": 0.20416666666666666
            },
            {
              "pitch": 76,
              "velocity": 48,
              "position": 21.28125,
              "duration": 0.20416666666666666
            },
            {
              "pitch": 44,
              "velocity": 58,
              "position": 21.291666666666668,
              "duration": 0.20416666666666666
            },
            {
              "pitch": 108,
              "velocity": 123,
              "position": 21.5,
              "duration": 0.23541666666666666
            },
            {
              "pitch": 105,
              "velocity": 127,
              "position": 21.770833333333332,
              "duration": 0.23541666666666666
            },
            {
              "pitch": 44,
              "velocity": 57,
              "position": 22,
              "duration": 0.20416666666666666
            },
            {
              "pitch": 50,
              "velocity": 52,
              "position": 22,
              "duration": 0.20416666666666666
            },
            {
              "pitch": 106,
              "velocity": 120,
              "position": 22,
              "duration": 0.20416666666666666
            },
            {
              "pitch": 76,
              "velocity": 52,
              "position": 22.010416666666668,
              "duration": 0.20416666666666666
            },
            {
              "pitch": 83,
              "velocity": 58,
              "position": 22.010416666666668,
              "duration": 0.20416666666666666
            },
            {
              "pitch": 107,
              "velocity": 69,
              "position": 22.270833333333332,
              "duration": 0.20416666666666666
            },
            {
              "pitch": 108,
              "velocity": 65,
              "position": 22.5,
              "duration": 0.23541666666666666
            },
            {
              "pitch": 98,
              "velocity": 99,
              "position": 22.770833333333332,
              "duration": 0.23541666666666666
            },
            {
              "pitch": 106,
              "velocity": 28,
              "position": 23,
              "duration": 0.23541666666666666
            },
            {
              "pitch": 107,
              "velocity": 127,
              "position": 23.270833333333332,
              "duration": 0.20416666666666666
            },
            {
              "pitch": 108,
              "velocity": 121,
              "position": 23.5,
              "duration": 0.23541666666666666
            },
            {
              "pitch": 76,
              "velocity": 44,
              "position": 23.510416666666668,
              "duration": 0.24791666666666667
            },
            {
              "pitch": 48,
              "velocity": 43,
              "position": 23.5,
              "duration": 0.2625
            },
            {
              "pitch": 43,
              "velocity": 42,
              "position": 23.5,
              "duration": 0.26875
            },
            {
              "pitch": 81,
              "velocity": 55,
              "position": 23.510416666666668,
              "duration": 0.4875
            },
            {
              "pitch": 105,
              "velocity": 86,
              "position": 23.770833333333332,
              "duration": 0.23541666666666666
            },
            {
              "pitch": 76,
              "velocity": 48,
              "position": 23.770833333333332,
              "duration": 0.2375
            },
            {
              "pitch": 48,
              "velocity": 42,
              "position": 23.78125,
              "duration": 0.23541666666666666
            },
            {
              "pitch": 43,
              "velocity": 37,
              "position": 23.78125,
              "duration": 0.2375
            },
            {
              "pitch": 106,
              "velocity": 104,
              "position": 24,
              "duration": 0.23541666666666666
            },
            {
              "pitch": 108,
              "velocity": 127,
              "position": 24.5,
              "duration": 0.23541666666666666
            },
            {
              "pitch": 48,
              "velocity": 59,
              "position": 24.5,
              "duration": 0.25833333333333336
            },
            {
              "pitch": 43,
              "velocity": 47,
              "position": 24.5,
              "duration": 0.26666666666666666
            },
            {
              "pitch": 43,
              "velocity": 23,
              "position": 24.78125,
              "duration": 0.20416666666666666
            },
            {
              "pitch": 48,
              "velocity": 18,
              "position": 24.770833333333332,
              "duration": 0.21666666666666667
            },
            {
              "pitch": 76,
              "velocity": 49,
              "position": 24.510416666666668,
              "duration": 0.48541666666666666
            },
            {
              "pitch": 105,
              "velocity": 77,
              "position": 24.770833333333332,
              "duration": 0.23541666666666666
            },
            {
              "pitch": 106,
              "velocity": 88,
              "position": 25,
              "duration": 0.23541666666666666
            },
            {
              "pitch": 81,
              "velocity": 47,
              "position": 24.510416666666668,
              "duration": 0.7479166666666667
            },
            {
              "pitch": 76,
              "velocity": 48,
              "position": 25.010416666666668,
              "duration": 0.25625
            },
            {
              "pitch": 48,
              "velocity": 48,
              "position": 25,
              "duration": 0.26875
            },
            {
              "pitch": 43,
              "velocity": 49,
              "position": 25,
              "duration": 0.27708333333333335
            },
            {
              "pitch": 81,
              "velocity": 50,
              "position": 25.270833333333332,
              "duration": 0.20416666666666666
            },
            {
              "pitch": 107,
              "velocity": 127,
              "position": 25.270833333333332,
              "duration": 0.20416666666666666
            },
            {
              "pitch": 48,
              "velocity": 51,
              "position": 25.28125,
              "duration": 0.20416666666666666
            },
            {
              "pitch": 76,
              "velocity": 53,
              "position": 25.28125,
              "duration": 0.20416666666666666
            },
            {
              "pitch": 43,
              "velocity": 51,
              "position": 25.291666666666668,
              "duration": 0.20416666666666666
            },
            {
              "pitch": 108,
              "velocity": 119,
              "position": 25.5,
              "duration": 0.23541666666666666
            },
            {
              "pitch": 105,
              "velocity": 80,
              "position": 25.770833333333332,
              "duration": 0.23541666666666666
            },
            {
              "pitch": 42,
              "velocity": 50,
              "position": 26,
              "duration": 0.20416666666666666
            },
            {
              "pitch": 48,
              "velocity": 53,
              "position": 26,
              "duration": 0.20416666666666666
            },
            {
              "pitch": 106,
              "velocity": 115,
              "position": 26,
              "duration": 0.20416666666666666
            },
            {
              "pitch": 74,
              "velocity": 46,
              "position": 26.010416666666668,
              "duration": 0.20416666666666666
            },
            {
              "pitch": 81,
              "velocity": 52,
              "position": 26.010416666666668,
              "duration": 0.20416666666666666
            },
            {
              "pitch": 107,
              "velocity": 67,
              "position": 26.270833333333332,
              "duration": 0.20416666666666666
            },
            {
              "pitch": 108,
              "velocity": 58,
              "position": 26.5,
              "duration": 0.23541666666666666
            },
            {
              "pitch": 98,
              "velocity": 100,
              "position": 26.770833333333332,
              "duration": 0.23541666666666666
            },
            {
              "pitch": 106,
              "velocity": 28,
              "position": 27,
              "duration": 0.23541666666666666
            },
            {
              "pitch": 107,
              "velocity": 115,
              "position": 27.270833333333332,
              "duration": 0.20416666666666666
            },
            {
              "pitch": 108,
              "velocity": 115,
              "position": 27.5,
              "duration": 0.23541666666666666
            },
            {
              "pitch": 74,
              "velocity": 50,
              "position": 27.510416666666668,
              "duration": 0.24791666666666667
            },
            {
              "pitch": 48,
              "velocity": 58,
              "position": 27.5,
              "duration": 0.2625
            },
            {
              "pitch": 41,
              "velocity": 54,
              "position": 27.5,
              "duration": 0.26875
            },
            {
              "pitch": 81,
              "velocity": 55,
              "position": 27.510416666666668,
              "duration": 0.4875
            },
            {
              "pitch": 105,
              "velocity": 83,
              "position": 27.770833333333332,
              "duration": 0.23541666666666666
            },
            {
              "pitch": 106,
              "velocity": 98,
              "position": 28,
              "duration": 0.23541666666666666
            },
            {
              "pitch": 107,
              "velocity": 121,
              "position": 28.270833333333332,
              "duration": 0.20416666666666666
            },
            {
              "pitch": 108,
              "velocity": 117,
              "position": 28.5,
              "duration": 0.23541666666666666
            },
            {
              "pitch": 48,
              "velocity": 50,
              "position": 28.5,
              "duration": 0.25833333333333336
            },
            {
              "pitch": 41,
              "velocity": 56,
              "position": 28.5,
              "duration": 0.26666666666666666
            },
            {
              "pitch": 41,
              "velocity": 25,
              "position": 28.78125,
              "duration": 0.20416666666666666
            },
            {
              "pitch": 48,
              "velocity": 30,
              "position": 28.770833333333332,
              "duration": 0.21666666666666667
            },
            {
              "pitch": 74,
              "velocity": 43,
              "position": 28.510416666666668,
              "duration": 0.48541666666666666
            },
            {
              "pitch": 105,
              "velocity": 88,
              "position": 28.770833333333332,
              "duration": 0.23541666666666666
            },
            {
              "pitch": 81,
              "velocity": 48,
              "position": 28.510416666666668,
              "duration": 0.4979166666666667
            },
            {
              "pitch": 106,
              "velocity": 91,
              "position": 29,
              "duration": 0.23541666666666666
            },
            {
              "pitch": 107,
              "velocity": 127,
              "position": 29.270833333333332,
              "duration": 0.20416666666666666
            },
            {
              "pitch": 108,
              "velocity": 114,
              "position": 29.5,
              "duration": 0.23541666666666666
            },
            {
              "pitch": 48,
              "velocity": 55,
              "position": 29.5,
              "duration": 2.48125
            },
            {
              "pitch": 81,
              "velocity": 59,
              "position": 29.510416666666668,
              "duration": 2.470833333333333
            },
            {
              "pitch": 41,
              "velocity": 55,
              "position": 29.5,
              "duration": 2.4854166666666666
            },
            {
              "pitch": 74,
              "velocity": 51,
              "position": 29.510416666666668,
              "duration": 2.475
            }
          ]
        },
        "12": {
          "ctab": {
            "srcChannel": 12,
            "name": "Piano",
            "accType": "CHORD2",
            "editable": false,
            "mutedNotes": [],
            "mutedChords": [
              "dim7",
              "dim",
              "minMaj7(9)",
              "minMaj7",
              "min7(11)",
              "min7(9)",
              "min(9)",
              "m7b5",
              "min7",
              "min6",
              "min"
            ],
            "autoStart": false,
            "sourceChordNote": 0,
            "sourceChordType": "Maj",
            "ctb2Low": null,
            "ctb2Main": {
              "ntr": "ROOT_TRANSPOSITION",
              "ntt": "BYPASS",
              "bassOn": false,
              "chordRootUpperLimit": 11,
              "noteLowLimit": 0,
              "noteHighLimit": 65,
              "rtr": "PITCH_SHIFT"
            },
            "ctb2High": null
          },
          "notes": [
            {
              "pitch": 67,
              "velocity": 96,
              "position": 0.010416666666666666,
              "duration": 0.16666666666666666
            },
            {
              "pitch": 36,
              "velocity": 104,
              "position": 0.010416666666666666,
              "duration": 0.20416666666666666
            },
            {
              "pitch": 24,
              "velocity": 121,
              "position": 0.010416666666666666,
              "duration": 0.24583333333333332
            },
            {
              "pitch": 76,
              "velocity": 119,
              "position": 0.010416666666666666,
              "duration": 0.2625
            },
            {
              "pitch": 72,
              "velocity": 126,
              "position": 0.010416666666666666,
              "duration": 0.26666666666666666
            },
            {
              "pitch": 67,
              "velocity": 77,
              "position": 0.5,
              "duration": 0.20416666666666666
            },
            {
              "pitch": 76,
              "velocity": 81,
              "position": 0.5,
              "duration": 0.20416666666666666
            },
            {
              "pitch": 72,
              "velocity": 81,
              "position": 0.5,
              "duration": 0.2875
            },
            {
              "pitch": 67,
              "velocity": 92,
              "position": 1,
              "duration": 0.21458333333333332
            },
            {
              "pitch": 76,
              "velocity": 107,
              "position": 1,
              "duration": 0.24583333333333332
            },
            {
              "pitch": 72,
              "velocity": 99,
              "position": 1,
              "duration": 0.27291666666666664
            },
            {
              "pitch": 67,
              "velocity": 92,
              "position": 1.5,
              "duration": 0.13125
            },
            {
              "pitch": 76,
              "velocity": 80,
              "position": 1.5,
              "duration": 0.21458333333333332
            },
            {
              "pitch": 72,
              "velocity": 88,
              "position": 1.5,
              "duration": 0.2375
            },
            {
              "pitch": 67,
              "velocity": 92,
              "position": 2,
              "duration": 0.1875
            },
            {
              "pitch": 24,
              "velocity": 126,
              "position": 2,
              "duration": 0.19791666666666666
            },
            {
              "pitch": 36,
              "velocity": 104,
              "position": 2,
              "duration": 0.20416666666666666
            },
            {
              "pitch": 76,
              "velocity": 98,
              "position": 2,
              "duration": 0.21666666666666667
            },
            {
              "pitch": 72,
              "velocity": 102,
              "position": 2,
              "duration": 0.2708333333333333
            },
            {
              "pitch": 38,
              "velocity": 109,
              "position": 2.5,
              "duration": 0.15416666666666667
            },
            {
              "pitch": 26,
              "velocity": 124,
              "position": 2.5,
              "duration": 0.16666666666666666
            },
            {
              "pitch": 67,
              "velocity": 88,
              "position": 2.5,
              "duration": 0.18333333333333332
            },
            {
              "pitch": 76,
              "velocity": 80,
              "position": 2.5,
              "duration": 0.23125
            },
            {
              "pitch": 72,
              "velocity": 93,
              "position": 2.5,
              "duration": 0.24166666666666667
            },
            {
              "pitch": 76,
              "velocity": 90,
              "position": 3,
              "duration": 0.20416666666666666
            },
            {
              "pitch": 67,
              "velocity": 92,
              "position": 3,
              "duration": 0.24166666666666667
            },
            {
              "pitch": 72,
              "velocity": 78,
              "position": 3,
              "duration": 0.24583333333333332
            },
            {
              "pitch": 39,
              "velocity": 121,
              "position": 3,
              "duration": 0.27708333333333335
            },
            {
              "pitch": 27,
              "velocity": 121,
              "position": 3,
              "duration": 0.28125
            },
            {
              "pitch": 28,
              "velocity": 127,
              "position": 3.5,
              "duration": 0.21458333333333332
            },
            {
              "pitch": 76,
              "velocity": 103,
              "position": 3.5,
              "duration": 0.22083333333333333
            },
            {
              "pitch": 40,
              "velocity": 117,
              "position": 3.5,
              "duration": 0.225
            },
            {
              "pitch": 68,
              "velocity": 108,
              "position": 3.5,
              "duration": 0.24583333333333332
            },
            {
              "pitch": 71,
              "velocity": 112,
              "position": 3.5,
              "duration": 0.24583333333333332
            },
            {
              "pitch": 74,
              "velocity": 98,
              "position": 3.5,
              "duration": 0.2604166666666667
            },
            {
              "pitch": 74,
              "velocity": 65,
              "position": 4,
              "duration": 0.17291666666666666
            },
            {
              "pitch": 68,
              "velocity": 83,
              "position": 4,
              "duration": 0.18333333333333332
            },
            {
              "pitch": 76,
              "velocity": 56,
              "position": 4,
              "duration": 0.18333333333333332
            },
            {
              "pitch": 71,
              "velocity": 61,
              "position": 4,
              "duration": 0.20416666666666666
            },
            {
              "pitch": 71,
              "velocity": 50,
              "position": 4.5,
              "duration": 0.15833333333333333
            },
            {
              "pitch": 76,
              "velocity": 71,
              "position": 4.5,
              "duration": 0.175
            },
            {
              "pitch": 68,
              "velocity": 81,
              "position": 4.5,
              "duration": 0.19375
            },
            {
              "pitch": 74,
              "velocity": 75,
              "position": 4.5,
              "duration": 0.19583333333333333
            },
            {
              "pitch": 71,
              "velocity": 77,
              "position": 5,
              "duration": 0.225
            },
            {
              "pitch": 76,
              "velocity": 77,
              "position": 5,
              "duration": 0.225
            },
            {
              "pitch": 68,
              "velocity": 96,
              "position": 5,
              "duration": 0.2375
            },
            {
              "pitch": 74,
              "velocity": 85,
              "position": 5,
              "duration": 0.25
            },
            {
              "pitch": 76,
              "velocity": 67,
              "position": 5.5,
              "duration": 0.14583333333333334
            },
            {
              "pitch": 71,
              "velocity": 88,
              "position": 5.5,
              "duration": 0.175
            },
            {
              "pitch": 68,
              "velocity": 102,
              "position": 5.5,
              "duration": 0.1875
            },
            {
              "pitch": 74,
              "velocity": 60,
              "position": 5.5,
              "duration": 0.20416666666666666
            },
            {
              "pitch": 28,
              "velocity": 124,
              "position": 6,
              "duration": 0.23125
            },
            {
              "pitch": 40,
              "velocity": 112,
              "position": 6,
              "duration": 0.2604166666666667
            },
            {
              "pitch": 76,
              "velocity": 85,
              "position": 6,
              "duration": 0.2625
            },
            {
              "pitch": 68,
              "velocity": 114,
              "position": 6,
              "duration": 0.30833333333333335
            },
            {
              "pitch": 74,
              "velocity": 92,
              "position": 6,
              "duration": 0.31875
            },
            {
              "pitch": 71,
              "velocity": 107,
              "position": 6,
              "duration": 0.32916666666666666
            },
            {
              "pitch": 76,
              "velocity": 83,
              "position": 6.5,
              "duration": 0.18958333333333333
            },
            {
              "pitch": 31,
              "velocity": 114,
              "position": 6.5,
              "duration": 0.19375
            },
            {
              "pitch": 43,
              "velocity": 85,
              "position": 6.5,
              "duration": 0.20416666666666666
            },
            {
              "pitch": 68,
              "velocity": 102,
              "position": 6.5,
              "duration": 0.20416666666666666
            },
            {
              "pitch": 71,
              "velocity": 92,
              "position": 6.5,
              "duration": 0.21458333333333332
            },
            {
              "pitch": 74,
              "velocity": 86,
              "position": 6.5,
              "duration": 0.22708333333333333
            },
            {
              "pitch": 76,
              "velocity": 83,
              "position": 7,
              "duration": 0.25625
            },
            {
              "pitch": 71,
              "velocity": 89,
              "position": 7,
              "duration": 0.2791666666666667
            },
            {
              "pitch": 32,
              "velocity": 127,
              "position": 7,
              "duration": 0.29791666666666666
            },
            {
              "pitch": 68,
              "velocity": 102,
              "position": 7,
              "duration": 0.30833333333333335
            },
            {
              "pitch": 74,
              "velocity": 80,
              "position": 7,
              "duration": 0.33125
            },
            {
              "pitch": 44,
              "velocity": 85,
              "position": 7,
              "duration": 0.3458333333333333
            },
            {
              "pitch": 45,
              "velocity": 126,
              "position": 7.5,
              "duration": 0.1875
            },
            {
              "pitch": 33,
              "velocity": 117,
              "position": 7.5,
              "duration": 0.21875
            },
            {
              "pitch": 76,
              "velocity": 109,
              "position": 7.5,
              "duration": 0.2375
            },
            {
              "pitch": 72,
              "velocity": 117,
              "position": 7.5,
              "duration": 0.25625
            },
            {
              "pitch": 67,
              "velocity": 119,
              "position": 7.5,
              "duration": 0.25833333333333336
            },
            {
              "pitch": 69,
              "velocity": 119,
              "position": 7.5,
              "duration": 0.25833333333333336
            },
            {
              "pitch": 67,
              "velocity": 81,
              "position": 8,
              "duration": 0.16666666666666666
            },
            {
              "pitch": 76,
              "velocity": 78,
              "position": 8,
              "duration": 0.17708333333333334
            },
            {
              "pitch": 72,
              "velocity": 73,
              "position": 8,
              "duration": 0.18333333333333332
            },
            {
              "pitch": 69,
              "velocity": 83,
              "position": 8,
              "duration": 0.21458333333333332
            },
            {
              "pitch": 67,
              "velocity": 70,
              "position": 8.5,
              "duration": 0.1875
            },
            {
              "pitch": 69,
              "velocity": 61,
              "position": 8.5,
              "duration": 0.20416666666666666
            },
            {
              "pitch": 72,
              "velocity": 80,
              "position": 8.5,
              "duration": 0.21458333333333332
            },
            {
              "pitch": 76,
              "velocity": 75,
              "position": 8.5,
              "duration": 0.21458333333333332
            },
            {
              "pitch": 67,
              "velocity": 92,
              "position": 9,
              "duration": 0.16458333333333333
            },
            {
              "pitch": 69,
              "velocity": 85,
              "position": 9,
              "duration": 0.19791666666666666
            },
            {
              "pitch": 72,
              "velocity": 88,
              "position": 9,
              "duration": 0.225
            },
            {
              "pitch": 76,
              "velocity": 86,
              "position": 9,
              "duration": 0.23541666666666666
            },
            {
              "pitch": 67,
              "velocity": 89,
              "position": 9.5,
              "duration": 0.15208333333333332
            },
            {
              "pitch": 69,
              "velocity": 92,
              "position": 9.5,
              "duration": 0.15208333333333332
            },
            {
              "pitch": 72,
              "velocity": 85,
              "position": 9.5,
              "duration": 0.17708333333333334
            },
            {
              "pitch": 76,
              "velocity": 88,
              "position": 9.5,
              "duration": 0.20416666666666666
            },
            {
              "pitch": 33,
              "velocity": 124,
              "position": 10,
              "duration": 0.15208333333333332
            },
            {
              "pitch": 45,
              "velocity": 117,
              "position": 10,
              "duration": 0.16666666666666666
            },
            {
              "pitch": 67,
              "velocity": 112,
              "position": 10,
              "duration": 0.23541666666666666
            },
            {
              "pitch": 76,
              "velocity": 107,
              "position": 10,
              "duration": 0.25833333333333336
            },
            {
              "pitch": 72,
              "velocity": 104,
              "position": 10,
              "duration": 0.2708333333333333
            },
            {
              "pitch": 69,
              "velocity": 96,
              "position": 10,
              "duration": 0.2833333333333333
            },
            {
              "pitch": 40,
              "velocity": 107,
              "position": 10.5,
              "duration": 0.11041666666666666
            },
            {
              "pitch": 28,
              "velocity": 112,
              "position": 10.5,
              "duration": 0.14166666666666666
            },
            {
              "pitch": 67,
              "velocity": 98,
              "position": 10.5,
              "duration": 0.15416666666666667
            },
            {
              "pitch": 76,
              "velocity": 99,
              "position": 10.5,
              "duration": 0.20416666666666666
            },
            {
              "pitch": 69,
              "velocity": 92,
              "position": 10.5,
              "duration": 0.20625
            },
            {
              "pitch": 72,
              "velocity": 107,
              "position": 10.5,
              "duration": 0.21666666666666667
            },
            {
              "pitch": 67,
              "velocity": 98,
              "position": 11,
              "duration": 0.16458333333333333
            },
            {
              "pitch": 76,
              "velocity": 93,
              "position": 11,
              "duration": 0.175
            },
            {
              "pitch": 39,
              "velocity": 127,
              "position": 11,
              "duration": 0.20833333333333334
            },
            {
              "pitch": 72,
              "velocity": 96,
              "position": 11,
              "duration": 0.2625
            },
            {
              "pitch": 69,
              "velocity": 89,
              "position": 11,
              "duration": 0.2791666666666667
            },
            {
              "pitch": 27,
              "velocity": 92,
              "position": 11,
              "duration": 0.28958333333333336
            },
            {
              "pitch": 76,
              "velocity": 112,
              "position": 11.5,
              "duration": 0.2375
            },
            {
              "pitch": 72,
              "velocity": 88,
              "position": 11.5,
              "duration": 0.29791666666666666
            },
            {
              "pitch": 69,
              "velocity": 104,
              "position": 11.5,
              "duration": 0.3020833333333333
            },
            {
              "pitch": 78,
              "velocity": 104,
              "position": 11.5,
              "duration": 0.3020833333333333
            },
            {
              "pitch": 76,
              "velocity": 77,
              "position": 12,
              "duration": 0.19375
            },
            {
              "pitch": 72,
              "velocity": 83,
              "position": 12,
              "duration": 0.24583333333333332
            },
            {
              "pitch": 69,
              "velocity": 61,
              "position": 12,
              "duration": 0.25625
            },
            {
              "pitch": 78,
              "velocity": 61,
              "position": 12,
              "duration": 0.25625
            },
            {
              "pitch": 38,
              "velocity": 114,
              "position": 11.5,
              "duration": 0.88125
            },
            {
              "pitch": 26,
              "velocity": 126,
              "position": 11.5,
              "duration": 0.9854166666666667
            },
            {
              "pitch": 76,
              "velocity": 77,
              "position": 12.5,
              "duration": 0.23541666666666666
            },
            {
              "pitch": 72,
              "velocity": 81,
              "position": 12.5,
              "duration": 0.26666666666666666
            },
            {
              "pitch": 69,
              "velocity": 85,
              "position": 12.5,
              "duration": 0.3104166666666667
            },
            {
              "pitch": 78,
              "velocity": 85,
              "position": 12.5,
              "duration": 0.3104166666666667
            },
            {
              "pitch": 45,
              "velocity": 92,
              "position": 13,
              "duration": 0.14166666666666666
            },
            {
              "pitch": 76,
              "velocity": 76,
              "position": 13,
              "duration": 0.14166666666666666
            },
            {
              "pitch": 33,
              "velocity": 117,
              "position": 13,
              "duration": 0.17291666666666666
            },
            {
              "pitch": 69,
              "velocity": 74,
              "position": 13,
              "duration": 0.17291666666666666
            },
            {
              "pitch": 72,
              "velocity": 101,
              "position": 13,
              "duration": 0.17291666666666666
            },
            {
              "pitch": 78,
              "velocity": 74,
              "position": 13,
              "duration": 0.17291666666666666
            },
            {
              "pitch": 77,
              "velocity": 92,
              "position": 13.5,
              "duration": 0.18333333333333332
            },
            {
              "pitch": 76,
              "velocity": 117,
              "position": 13.5,
              "duration": 0.2708333333333333
            },
            {
              "pitch": 72,
              "velocity": 109,
              "position": 13.5,
              "duration": 0.3229166666666667
            },
            {
              "pitch": 69,
              "velocity": 93,
              "position": 13.5,
              "duration": 0.37083333333333335
            },
            {
              "pitch": 77,
              "velocity": 34,
              "position": 14,
              "duration": 0.12083333333333333
            },
            {
              "pitch": 76,
              "velocity": 80,
              "position": 14,
              "duration": 0.19375
            },
            {
              "pitch": 72,
              "velocity": 67,
              "position": 14,
              "duration": 0.2375
            },
            {
              "pitch": 69,
              "velocity": 73,
              "position": 14,
              "duration": 0.25
            },
            {
              "pitch": 31,
              "velocity": 126,
              "position": 13.5,
              "duration": 1.1520833333333333
            },
            {
              "pitch": 77,
              "velocity": 80,
              "position": 14.5,
              "duration": 0.1625
            },
            {
              "pitch": 72,
              "velocity": 99,
              "position": 14.5,
              "duration": 0.21875
            },
            {
              "pitch": 43,
              "velocity": 104,
              "position": 13.5,
              "duration": 1.2270833333333333
            },
            {
              "pitch": 69,
              "velocity": 92,
              "position": 14.5,
              "duration": 0.23541666666666666
            },
            {
              "pitch": 76,
              "velocity": 109,
              "position": 14.5,
              "duration": 0.24791666666666667
            },
            {
              "pitch": 43,
              "velocity": 96,
              "position": 15,
              "duration": 0.21041666666666667
            },
            {
              "pitch": 77,
              "velocity": 93,
              "position": 15,
              "duration": 0.21458333333333332
            },
            {
              "pitch": 71,
              "velocity": 99,
              "position": 15,
              "duration": 0.27708333333333335
            },
            {
              "pitch": 74,
              "velocity": 117,
              "position": 15,
              "duration": 0.27708333333333335
            },
            {
              "pitch": 69,
              "velocity": 99,
              "position": 15,
              "duration": 0.3020833333333333
            },
            {
              "pitch": 31,
              "velocity": 119,
              "position": 15,
              "duration": 0.31875
            },
            {
              "pitch": 77,
              "velocity": 67,
              "position": 15.5,
              "duration": 0.225
            },
            {
              "pitch": 71,
              "velocity": 83,
              "position": 15.5,
              "duration": 0.2708333333333333
            },
            {
              "pitch": 69,
              "velocity": 61,
              "position": 15.5,
              "duration": 0.3229166666666667
            },
            {
              "pitch": 74,
              "velocity": 78,
              "position": 15.5,
              "duration": 0.43333333333333335
            },
            {
              "pitch": 31,
              "velocity": 73,
              "position": 15.75,
              "duration": 0.3541666666666667
            },
            {
              "pitch": 67,
              "velocity": 101,
              "position": 16,
              "duration": 0.20416666666666666
            },
            {
              "pitch": 72,
              "velocity": 104,
              "position": 16,
              "duration": 0.23541666666666666
            },
            {
              "pitch": 76,
              "velocity": 111,
              "position": 16,
              "duration": 0.25
            },
            {
              "pitch": 36,
              "velocity": 96,
              "position": 16,
              "duration": 0.3
            },
            {
              "pitch": 24,
              "velocity": 125,
              "position": 16,
              "duration": 0.32916666666666666
            },
            {
              "pitch": 67,
              "velocity": 72,
              "position": 16.5,
              "duration": 0.17291666666666666
            },
            {
              "pitch": 76,
              "velocity": 81,
              "position": 16.5,
              "duration": 0.225
            },
            {
              "pitch": 72,
              "velocity": 70,
              "position": 16.5,
              "duration": 0.23125
            },
            {
              "pitch": 67,
              "velocity": 99,
              "position": 17,
              "duration": 0.15416666666666667
            },
            {
              "pitch": 72,
              "velocity": 111,
              "position": 17,
              "duration": 0.20833333333333334
            },
            {
              "pitch": 76,
              "velocity": 101,
              "position": 17,
              "duration": 0.23125
            },
            {
              "pitch": 67,
              "velocity": 85,
              "position": 17.5,
              "duration": 0.175
            },
            {
              "pitch": 72,
              "velocity": 72,
              "position": 17.5,
              "duration": 0.21458333333333332
            },
            {
              "pitch": 76,
              "velocity": 80,
              "position": 17.5,
              "duration": 0.21875
            },
            {
              "pitch": 67,
              "velocity": 99,
              "position": 18,
              "duration": 0.175
            },
            {
              "pitch": 36,
              "velocity": 90,
              "position": 18,
              "duration": 0.21041666666666667
            },
            {
              "pitch": 24,
              "velocity": 118,
              "position": 18,
              "duration": 0.225
            },
            {
              "pitch": 76,
              "velocity": 96,
              "position": 18,
              "duration": 0.23541666666666666
            },
            {
              "pitch": 72,
              "velocity": 96,
              "position": 18,
              "duration": 0.23958333333333334
            },
            {
              "pitch": 38,
              "velocity": 88,
              "position": 18.5,
              "duration": 0.14375
            },
            {
              "pitch": 26,
              "velocity": 113,
              "position": 18.5,
              "duration": 0.16875
            },
            {
              "pitch": 67,
              "velocity": 91,
              "position": 18.5,
              "duration": 0.18958333333333333
            },
            {
              "pitch": 76,
              "velocity": 77,
              "position": 18.5,
              "duration": 0.19375
            },
            {
              "pitch": 72,
              "velocity": 72,
              "position": 18.5,
              "duration": 0.23541666666666666
            },
            {
              "pitch": 67,
              "velocity": 96,
              "position": 19,
              "duration": 0.25833333333333336
            },
            {
              "pitch": 39,
              "velocity": 127,
              "position": 19,
              "duration": 0.2708333333333333
            },
            {
              "pitch": 72,
              "velocity": 78,
              "position": 19,
              "duration": 0.2708333333333333
            },
            {
              "pitch": 76,
              "velocity": 90,
              "position": 19,
              "duration": 0.2875
            },
            {
              "pitch": 27,
              "velocity": 96,
              "position": 19,
              "duration": 0.3020833333333333
            },
            {
              "pitch": 76,
              "velocity": 94,
              "position": 19.5,
              "duration": 0.25625
            },
            {
              "pitch": 68,
              "velocity": 106,
              "position": 19.5,
              "duration": 0.27708333333333335
            },
            {
              "pitch": 28,
              "velocity": 122,
              "position": 19.5,
              "duration": 0.2875
            },
            {
              "pitch": 40,
              "velocity": 127,
              "position": 19.5,
              "duration": 0.2916666666666667
            },
            {
              "pitch": 74,
              "velocity": 91,
              "position": 19.5,
              "duration": 0.30833333333333335
            },
            {
              "pitch": 71,
              "velocity": 109,
              "position": 19.5,
              "duration": 0.32083333333333336
            },
            {
              "pitch": 76,
              "velocity": 64,
              "position": 20,
              "duration": 0.17291666666666666
            },
            {
              "pitch": 68,
              "velocity": 78,
              "position": 20,
              "duration": 0.1875
            },
            {
              "pitch": 74,
              "velocity": 49,
              "position": 20,
              "duration": 0.23541666666666666
            },
            {
              "pitch": 71,
              "velocity": 73,
              "position": 20,
              "duration": 0.23958333333333334
            },
            {
              "pitch": 76,
              "velocity": 67,
              "position": 20.5,
              "duration": 0.18333333333333332
            },
            {
              "pitch": 71,
              "velocity": 69,
              "position": 20.5,
              "duration": 0.18958333333333333
            },
            {
              "pitch": 68,
              "velocity": 94,
              "position": 20.5,
              "duration": 0.19375
            },
            {
              "pitch": 74,
              "velocity": 72,
              "position": 20.5,
              "duration": 0.23541666666666666
            },
            {
              "pitch": 76,
              "velocity": 99,
              "position": 21,
              "duration": 0.2375
            },
            {
              "pitch": 71,
              "velocity": 99,
              "position": 21,
              "duration": 0.25625
            },
            {
              "pitch": 68,
              "velocity": 106,
              "position": 21,
              "duration": 0.2708333333333333
            },
            {
              "pitch": 74,
              "velocity": 96,
              "position": 21,
              "duration": 0.27708333333333335
            },
            {
              "pitch": 76,
              "velocity": 80,
              "position": 21.5,
              "duration": 0.21458333333333332
            },
            {
              "pitch": 68,
              "velocity": 122,
              "position": 21.5,
              "duration": 0.25625
            },
            {
              "pitch": 71,
              "velocity": 94,
              "position": 21.5,
              "duration": 0.25833333333333336
            },
            {
              "pitch": 74,
              "velocity": 81,
              "position": 21.5,
              "duration": 0.26875
            },
            {
              "pitch": 28,
              "velocity": 127,
              "position": 22,
              "duration": 0.24583333333333332
            },
            {
              "pitch": 40,
              "velocity": 109,
              "position": 21.75,
              "duration": 0.5166666666666667
            },
            {
              "pitch": 76,
              "velocity": 94,
              "position": 22,
              "duration": 0.28125
            },
            {
              "pitch": 68,
              "velocity": 96,
              "position": 22,
              "duration": 0.2833333333333333
            },
            {
              "pitch": 71,
              "velocity": 106,
              "position": 22,
              "duration": 0.33958333333333335
            },
            {
              "pitch": 74,
              "velocity": 104,
              "position": 22,
              "duration": 0.3416666666666667
            },
            {
              "pitch": 76,
              "velocity": 101,
              "position": 22.5,
              "duration": 0.22083333333333333
            },
            {
              "pitch": 31,
              "velocity": 80,
              "position": 22.5,
              "duration": 0.23125
            },
            {
              "pitch": 43,
              "velocity": 90,
              "position": 22.5,
              "duration": 0.24583333333333332
            },
            {
              "pitch": 68,
              "velocity": 122,
              "position": 22.5,
              "duration": 0.2625
            },
            {
              "pitch": 71,
              "velocity": 99,
              "position": 22.5,
              "duration": 0.30833333333333335
            },
            {
              "pitch": 74,
              "velocity": 85,
              "position": 22.5,
              "duration": 0.31875
            },
            {
              "pitch": 71,
              "velocity": 90,
              "position": 23,
              "duration": 0.21458333333333332
            },
            {
              "pitch": 76,
              "velocity": 84,
              "position": 23,
              "duration": 0.21458333333333332
            },
            {
              "pitch": 32,
              "velocity": 122,
              "position": 23,
              "duration": 0.22916666666666666
            },
            {
              "pitch": 68,
              "velocity": 113,
              "position": 23,
              "duration": 0.2916666666666667
            },
            {
              "pitch": 44,
              "velocity": 88,
              "position": 23,
              "duration": 0.29791666666666666
            },
            {
              "pitch": 74,
              "velocity": 99,
              "position": 23,
              "duration": 0.32083333333333336
            },
            {
              "pitch": 67,
              "velocity": 99,
              "position": 23.5,
              "duration": 0.2604166666666667
            },
            {
              "pitch": 72,
              "velocity": 111,
              "position": 23.5,
              "duration": 0.27708333333333335
            },
            {
              "pitch": 76,
              "velocity": 113,
              "position": 23.5,
              "duration": 0.27708333333333335
            },
            {
              "pitch": 69,
              "velocity": 106,
              "position": 23.5,
              "duration": 0.33958333333333335
            },
            {
              "pitch": 33,
              "velocity": 127,
              "position": 23.5,
              "duration": 0.3541666666666667
            },
            {
              "pitch": 45,
              "velocity": 125,
              "position": 23.5,
              "duration": 0.37083333333333335
            },
            {
              "pitch": 67,
              "velocity": 70,
              "position": 24,
              "duration": 0.2
            },
            {
              "pitch": 72,
              "velocity": 72,
              "position": 24,
              "duration": 0.22708333333333333
            },
            {
              "pitch": 76,
              "velocity": 80,
              "position": 24,
              "duration": 0.23958333333333334
            },
            {
              "pitch": 69,
              "velocity": 77,
              "position": 24,
              "duration": 0.26666666666666666
            },
            {
              "pitch": 67,
              "velocity": 85,
              "position": 24.5,
              "duration": 0.1625
            },
            {
              "pitch": 72,
              "velocity": 85,
              "position": 24.5,
              "duration": 0.22916666666666666
            },
            {
              "pitch": 69,
              "velocity": 90,
              "position": 24.5,
              "duration": 0.23125
            },
            {
              "pitch": 76,
              "velocity": 99,
              "position": 24.5,
              "duration": 0.25
            },
            {
              "pitch": 67,
              "velocity": 91,
              "position": 25,
              "duration": 0.1625
            },
            {
              "pitch": 76,
              "velocity": 88,
              "position": 25,
              "duration": 0.21458333333333332
            },
            {
              "pitch": 72,
              "velocity": 85,
              "position": 25,
              "duration": 0.24583333333333332
            },
            {
              "pitch": 69,
              "velocity": 90,
              "position": 25,
              "duration": 0.27708333333333335
            },
            {
              "pitch": 67,
              "velocity": 90,
              "position": 25.5,
              "duration": 0.21458333333333332
            },
            {
              "pitch": 76,
              "velocity": 91,
              "position": 25.5,
              "duration": 0.25833333333333336
            },
            {
              "pitch": 72,
              "velocity": 80,
              "position": 25.5,
              "duration": 0.30833333333333335
            },
            {
              "pitch": 69,
              "velocity": 85,
              "position": 25.5,
              "duration": 0.37083333333333335
            },
            {
              "pitch": 33,
              "velocity": 113,
              "position": 25.75,
              "duration": 0.30416666666666664
            },
            {
              "pitch": 26,
              "velocity": 118,
              "position": 26,
              "duration": 0.10625
            },
            {
              "pitch": 38,
              "velocity": 101,
              "position": 26,
              "duration": 0.21875
            },
            {
              "pitch": 76,
              "velocity": 104,
              "position": 26,
              "duration": 0.32083333333333336
            },
            {
              "pitch": 72,
              "velocity": 96,
              "position": 26,
              "duration": 0.35208333333333336
            },
            {
              "pitch": 78,
              "velocity": 96,
              "position": 26,
              "duration": 0.35208333333333336
            },
            {
              "pitch": 69,
              "velocity": 57,
              "position": 26,
              "duration": 0.38125
            },
            {
              "pitch": 40,
              "velocity": 106,
              "position": 26.5,
              "duration": 0.1625
            },
            {
              "pitch": 28,
              "velocity": 125,
              "position": 26.5,
              "duration": 0.17291666666666666
            },
            {
              "pitch": 76,
              "velocity": 96,
              "position": 26.5,
              "duration": 0.24791666666666667
            },
            {
              "pitch": 72,
              "velocity": 81,
              "position": 26.5,
              "duration": 0.3125
            },
            {
              "pitch": 78,
              "velocity": 81,
              "position": 26.5,
              "duration": 0.3125
            },
            {
              "pitch": 69,
              "velocity": 84,
              "position": 26.5,
              "duration": 0.3333333333333333
            },
            {
              "pitch": 30,
              "velocity": 122,
              "position": 27,
              "duration": 0.2375
            },
            {
              "pitch": 76,
              "velocity": 90,
              "position": 27,
              "duration": 0.25625
            },
            {
              "pitch": 72,
              "velocity": 78,
              "position": 27,
              "duration": 0.28125
            },
            {
              "pitch": 78,
              "velocity": 78,
              "position": 27,
              "duration": 0.28125
            },
            {
              "pitch": 69,
              "velocity": 63,
              "position": 27,
              "duration": 0.2916666666666667
            },
            {
              "pitch": 42,
              "velocity": 122,
              "position": 27,
              "duration": 0.29791666666666666
            },
            {
              "pitch": 77,
              "velocity": 109,
              "position": 27.5,
              "duration": 0.6416666666666667
            },
            {
              "pitch": 76,
              "velocity": 101,
              "position": 27.5,
              "duration": 0.6833333333333333
            },
            {
              "pitch": 69,
              "velocity": 116,
              "position": 27.5,
              "duration": 0.70625
            },
            {
              "pitch": 72,
              "velocity": 125,
              "position": 27.5,
              "duration": 0.7145833333333333
            },
            {
              "pitch": 31,
              "velocity": 122,
              "position": 27.5,
              "duration": 0.71875
            },
            {
              "pitch": 43,
              "velocity": 111,
              "position": 27.5,
              "duration": 0.7416666666666667
            },
            {
              "pitch": 77,
              "velocity": 67,
              "position": 28.5,
              "duration": 0.13125
            },
            {
              "pitch": 72,
              "velocity": 90,
              "position": 28.5,
              "duration": 0.18333333333333332
            },
            {
              "pitch": 76,
              "velocity": 91,
              "position": 28.5,
              "duration": 0.18333333333333332
            },
            {
              "pitch": 69,
              "velocity": 88,
              "position": 28.5,
              "duration": 0.1875
            },
            {
              "pitch": 77,
              "velocity": 72,
              "position": 29,
              "duration": 0.14166666666666666
            },
            {
              "pitch": 72,
              "velocity": 75,
              "position": 29,
              "duration": 0.175
            },
            {
              "pitch": 69,
              "velocity": 70,
              "position": 29,
              "duration": 0.18333333333333332
            },
            {
              "pitch": 76,
              "velocity": 104,
              "position": 29,
              "duration": 0.21666666666666667
            },
            {
              "pitch": 31,
              "velocity": 104,
              "position": 29.5,
              "duration": 2.4854166666666666
            },
            {
              "pitch": 43,
              "velocity": 104,
              "position": 29.5,
              "duration": 2.4854166666666666
            },
            {
              "pitch": 69,
              "velocity": 99,
              "position": 29.5,
              "duration": 2.4854166666666666
            },
            {
              "pitch": 72,
              "velocity": 111,
              "position": 29.5,
              "duration": 2.4854166666666666
            },
            {
              "pitch": 74,
              "velocity": 122,
              "position": 29.5,
              "duration": 2.4854166666666666
            },
            {
              "pitch": 77,
              "velocity": 104,
              "position": 29.5,
              "duration": 2.4854166666666666
            }
          ]
        },
        "13": {
          "ctab": {
            "srcChannel": 13,
            "name": "Organ",
            "accType": "PAD",
            "editable": false,
            "mutedNotes": [],
            "mutedChords": [
              "dim7",
              "dim",
              "minMaj7(9)",
              "minMaj7",
              "min7(11)",
              "min7(9)",
              "min(9)",
              "m7b5",
              "min7",
              "min6",
              "min"
            ],
            "autoStart": false,
            "sourceChordNote": 0,
            "sourceChordType": "Maj",
            "ctb2Low": null,
            "ctb2Main": {
              "ntr": "ROOT_TRANSPOSITION",
              "ntt": "BYPASS",
              "bassOn": false,
              "chordRootUpperLimit": 8,
              "noteLowLimit": 58,
              "noteHighLimit": 69,
              "rtr": "PITCH_SHIFT"
            },
            "ctb2High": null
          },
          "notes": [
            {
              "pitch": 60,
              "velocity": 60,
              "position": 16.010416666666668,
              "duration": 0.48541666666666666
            },
            {
              "pitch": 64,
              "velocity": 60,
              "position": 16.010416666666668,
              "duration": 0.48541666666666666
            },
            {
              "pitch": 67,
              "velocity": 60,
              "position": 16.010416666666668,
              "duration": 0.48541666666666666
            },
            {
              "pitch": 60,
              "velocity": 60,
              "position": 18.483333333333334,
              "duration": 0.36041666666666666
            },
            {
              "pitch": 64,
              "velocity": 60,
              "position": 18.483333333333334,
              "duration": 0.36041666666666666
            },
            {
              "pitch": 67,
              "velocity": 60,
              "position": 18.483333333333334,
              "duration": 0.36041666666666666
            },
            {
              "pitch": 64,
              "velocity": 60,
              "position": 19.53125,
              "duration": 0.4583333333333333
            },
            {
              "pitch": 59,
              "velocity": 60,
              "position": 19.53125,
              "duration": 0.9541666666666667
            },
            {
              "pitch": 62,
              "velocity": 60,
              "position": 19.53125,
              "duration": 0.9541666666666667
            },
            {
              "pitch": 64,
              "velocity": 60,
              "position": 20,
              "duration": 0.48541666666666666
            },
            {
              "pitch": 68,
              "velocity": 60,
              "position": 19.53125,
              "duration": 0.9541666666666667
            },
            {
              "pitch": 59,
              "velocity": 60,
              "position": 22.5,
              "duration": 0.36041666666666666
            },
            {
              "pitch": 62,
              "velocity": 60,
              "position": 22.5,
              "duration": 0.36041666666666666
            },
            {
              "pitch": 64,
              "velocity": 60,
              "position": 22.5,
              "duration": 0.36041666666666666
            },
            {
              "pitch": 68,
              "velocity": 60,
              "position": 22.5,
              "duration": 0.36041666666666666
            },
            {
              "pitch": 57,
              "velocity": 60,
              "position": 23.5,
              "duration": 0.9645833333333333
            },
            {
              "pitch": 60,
              "velocity": 60,
              "position": 23.5,
              "duration": 0.9645833333333333
            },
            {
              "pitch": 64,
              "velocity": 60,
              "position": 23.5,
              "duration": 0.9645833333333333
            },
            {
              "pitch": 67,
              "velocity": 60,
              "position": 23.5,
              "duration": 0.9645833333333333
            },
            {
              "pitch": 60,
              "velocity": 60,
              "position": 26.489583333333332,
              "duration": 0.36041666666666666
            },
            {
              "pitch": 62,
              "velocity": 60,
              "position": 26.489583333333332,
              "duration": 0.36041666666666666
            },
            {
              "pitch": 66,
              "velocity": 60,
              "position": 26.489583333333332,
              "duration": 0.36041666666666666
            },
            {
              "pitch": 69,
              "velocity": 60,
              "position": 26.489583333333332,
              "duration": 0.36041666666666666
            },
            {
              "pitch": 60,
              "velocity": 60,
              "position": 27.502083333333335,
              "duration": 0.9666666666666667
            },
            {
              "pitch": 62,
              "velocity": 60,
              "position": 27.502083333333335,
              "duration": 0.9666666666666667
            },
            {
              "pitch": 65,
              "velocity": 60,
              "position": 27.502083333333335,
              "duration": 0.9666666666666667
            },
            {
              "pitch": 69,
              "velocity": 60,
              "position": 27.502083333333335,
              "duration": 0.9666666666666667
            },
            {
              "pitch": 60,
              "velocity": 60,
              "position": 29.489583333333332,
              "duration": 2.4916666666666667
            },
            {
              "pitch": 62,
              "velocity": 60,
              "position": 29.489583333333332,
              "duration": 2.4916666666666667
            },
            {
              "pitch": 65,
              "velocity": 60,
              "position": 29.489583333333332,
              "duration": 2.4916666666666667
            },
            {
              "pitch": 69,
              "velocity": 60,
              "position": 29.489583333333332,
              "duration": 2.4916666666666667
            }
          ]
        }
      }
    },
    "Ending_B": {
      "type": "Ending_B",
      "sizeInBeats": 16,
      "channels": {
        "1": {
          "ctab": {
            "srcChannel": 1,
            "name": "Bass",
            "accType": "BASS",
            "editable": false,
            "mutedNotes": [],
            "mutedChords": [
              "1+2+5",
              "sus4",
              "1+5",
              "1+8",
              "7aug",
              "Maj7aug",
              "7(#9)",
              "7(b13)",
              "7(b9)",
              "7(13)",
              "7#11",
              "7(9)",
              "7b5",
              "7sus4",
              "7th",
              "aug",
              "Maj6(9)",
              "Maj7(9)",
              "Maj(9)",
              "Maj7#11",
              "Maj7",
              "Maj6",
              "Maj"
            ],
            "autoStart": false,
            "sourceChordNote": 0,
            "sourceChordType": "min",
            "ctb2Low": null,
            "ctb2Main": {
              "ntr": "ROOT_TRANSPOSITION",
              "ntt": "BYPASS",
              "bassOn": false,
              "chordRootUpperLimit": 8,
              "noteLowLimit": 28,
              "noteHighLimit": 127,
              "rtr": "PITCH_SHIFT"
            },
            "ctb2High": null
          },
          "notes": [
            {
              "pitch": 24,
              "velocity": 74,
              "position": 0.010416666666666666,
              "duration": 0.48541666666666666
            },
            {
              "pitch": 36,
              "velocity": 110,
              "position": 1.7708333333333333,
              "duration": 0.20416666666666666
            },
            {
              "pitch": 36,
              "velocity": 70,
              "position": 1.9833333333333334,
              "duration": 0.3
            },
            {
              "pitch": 34,
              "velocity": 66,
              "position": 2.4833333333333334,
              "duration": 0.36041666666666666
            },
            {
              "pitch": 33,
              "velocity": 73,
              "position": 3,
              "duration": 0.4479166666666667
            },
            {
              "pitch": 32,
              "velocity": 70,
              "position": 3.5,
              "duration": 0.48541666666666666
            },
            {
              "pitch": 32,
              "velocity": 110,
              "position": 5.25,
              "duration": 0.20833333333333334
            },
            {
              "pitch": 32,
              "velocity": 74,
              "position": 5.470833333333333,
              "duration": 0.29791666666666666
            },
            {
              "pitch": 31,
              "velocity": 66,
              "position": 6,
              "duration": 0.36041666666666666
            },
            {
              "pitch": 31,
              "velocity": 66,
              "position": 6.5,
              "duration": 0.36041666666666666
            },
            {
              "pitch": 31,
              "velocity": 70,
              "position": 7.25,
              "duration": 0.5895833333333333
            },
            {
              "pitch": 24,
              "velocity": 66,
              "position": 8,
              "duration": 6.985416666666667
            }
          ]
        },
        "2": {
          "ctab": {
            "srcChannel": 2,
            "name": "Strat",
            "accType": "CHORD1",
            "editable": false,
            "mutedNotes": [],
            "mutedChords": [
              "1+2+5",
              "sus4",
              "1+5",
              "1+8",
              "7aug",
              "Maj7aug",
              "7(#9)",
              "7(b13)",
              "7(b9)",
              "7(13)",
              "7#11",
              "7(9)",
              "7b5",
              "7sus4",
              "7th",
              "aug",
              "Maj6(9)",
              "Maj7(9)",
              "Maj(9)",
              "Maj7#11",
              "Maj7",
              "Maj6",
              "Maj"
            ],
            "autoStart": false,
            "sourceChordNote": 0,
            "sourceChordType": "min",
            "ctb2Low": null,
            "ctb2Main": {
              "ntr": "ROOT_TRANSPOSITION",
              "ntt": "BYPASS",
              "bassOn": false,
              "chordRootUpperLimit": 8,
              "noteLowLimit": 54,
              "noteHighLimit": 72,
              "rtr": "PITCH_SHIFT"
            },
            "ctb2High": null
          },
          "notes": [
            {
              "pitch": 106,
              "velocity": 97,
              "position": 0,
              "duration": 0.23541666666666666
            },
            {
              "pitch": 108,
              "velocity": 114,
              "position": 0.5,
              "duration": 0.23541666666666666
            },
            {
              "pitch": 51,
              "velocity": 42,
              "position": 0.5,
              "duration": 0.25833333333333336
            },
            {
              "pitch": 48,
              "velocity": 54,
              "position": 0.5,
              "duration": 0.26666666666666666
            },
            {
              "pitch": 48,
              "velocity": 32,
              "position": 0.78125,
              "duration": 0.20416666666666666
            },
            {
              "pitch": 51,
              "velocity": 15,
              "position": 0.7708333333333334,
              "duration": 0.21666666666666667
            },
            {
              "pitch": 79,
              "velocity": 41,
              "position": 0.5104166666666666,
              "duration": 0.48541666666666666
            },
            {
              "pitch": 105,
              "velocity": 77,
              "position": 0.7708333333333334,
              "duration": 0.23541666666666666
            },
            {
              "pitch": 106,
              "velocity": 89,
              "position": 1,
              "duration": 0.23541666666666666
            },
            {
              "pitch": 84,
              "velocity": 41,
              "position": 0.5104166666666666,
              "duration": 0.7479166666666667
            },
            {
              "pitch": 79,
              "velocity": 42,
              "position": 1.0104166666666667,
              "duration": 0.25625
            },
            {
              "pitch": 51,
              "velocity": 46,
              "position": 1,
              "duration": 0.26875
            },
            {
              "pitch": 48,
              "velocity": 39,
              "position": 1,
              "duration": 0.27708333333333335
            },
            {
              "pitch": 84,
              "velocity": 48,
              "position": 1.2708333333333333,
              "duration": 0.20416666666666666
            },
            {
              "pitch": 107,
              "velocity": 125,
              "position": 1.2708333333333333,
              "duration": 0.20416666666666666
            },
            {
              "pitch": 51,
              "velocity": 53,
              "position": 1.28125,
              "duration": 0.20416666666666666
            },
            {
              "pitch": 79,
              "velocity": 54,
              "position": 1.28125,
              "duration": 0.20416666666666666
            },
            {
              "pitch": 48,
              "velocity": 57,
              "position": 1.2916666666666667,
              "duration": 0.20416666666666666
            },
            {
              "pitch": 108,
              "velocity": 127,
              "position": 1.5,
              "duration": 0.23541666666666666
            },
            {
              "pitch": 105,
              "velocity": 84,
              "position": 1.7708333333333333,
              "duration": 0.23541666666666666
            },
            {
              "pitch": 46,
              "velocity": 47,
              "position": 2,
              "duration": 0.20416666666666666
            },
            {
              "pitch": 51,
              "velocity": 48,
              "position": 2,
              "duration": 0.20416666666666666
            },
            {
              "pitch": 106,
              "velocity": 114,
              "position": 2,
              "duration": 0.20416666666666666
            },
            {
              "pitch": 79,
              "velocity": 57,
              "position": 2.0104166666666665,
              "duration": 0.20416666666666666
            },
            {
              "pitch": 84,
              "velocity": 44,
              "position": 2.0104166666666665,
              "duration": 0.20416666666666666
            },
            {
              "pitch": 107,
              "velocity": 76,
              "position": 2.2708333333333335,
              "duration": 0.20416666666666666
            },
            {
              "pitch": 108,
              "velocity": 55,
              "position": 2.5,
              "duration": 0.23541666666666666
            },
            {
              "pitch": 98,
              "velocity": 97,
              "position": 2.7708333333333335,
              "duration": 0.23541666666666666
            },
            {
              "pitch": 106,
              "velocity": 23,
              "position": 3,
              "duration": 0.23541666666666666
            },
            {
              "pitch": 107,
              "velocity": 126,
              "position": 3.2708333333333335,
              "duration": 0.20416666666666666
            },
            {
              "pitch": 108,
              "velocity": 127,
              "position": 3.5,
              "duration": 0.23541666666666666
            },
            {
              "pitch": 79,
              "velocity": 56,
              "position": 3.5104166666666665,
              "duration": 0.24791666666666667
            },
            {
              "pitch": 51,
              "velocity": 46,
              "position": 3.5,
              "duration": 0.2625
            },
            {
              "pitch": 46,
              "velocity": 48,
              "position": 3.5,
              "duration": 0.26875
            },
            {
              "pitch": 84,
              "velocity": 57,
              "position": 3.5104166666666665,
              "duration": 0.4875
            },
            {
              "pitch": 105,
              "velocity": 80,
              "position": 3.7708333333333335,
              "duration": 0.23541666666666666
            },
            {
              "pitch": 79,
              "velocity": 39,
              "position": 3.7708333333333335,
              "duration": 0.2375
            },
            {
              "pitch": 51,
              "velocity": 36,
              "position": 3.78125,
              "duration": 0.23541666666666666
            },
            {
              "pitch": 46,
              "velocity": 47,
              "position": 3.78125,
              "duration": 0.2375
            },
            {
              "pitch": 106,
              "velocity": 88,
              "position": 4,
              "duration": 0.23541666666666666
            },
            {
              "pitch": 107,
              "velocity": 118,
              "position": 4.270833333333333,
              "duration": 0.20416666666666666
            },
            {
              "pitch": 108,
              "velocity": 127,
              "position": 4.5,
              "duration": 0.23541666666666666
            },
            {
              "pitch": 48,
              "velocity": 41,
              "position": 4.5,
              "duration": 0.25833333333333336
            },
            {
              "pitch": 42,
              "velocity": 40,
              "position": 4.5,
              "duration": 0.26666666666666666
            },
            {
              "pitch": 42,
              "velocity": 30,
              "position": 4.78125,
              "duration": 0.20416666666666666
            },
            {
              "pitch": 48,
              "velocity": 22,
              "position": 4.770833333333333,
              "duration": 0.21666666666666667
            },
            {
              "pitch": 75,
              "velocity": 55,
              "position": 4.510416666666667,
              "duration": 0.48541666666666666
            },
            {
              "pitch": 105,
              "velocity": 87,
              "position": 4.770833333333333,
              "duration": 0.23541666666666666
            },
            {
              "pitch": 106,
              "velocity": 99,
              "position": 5,
              "duration": 0.23541666666666666
            },
            {
              "pitch": 80,
              "velocity": 53,
              "position": 4.510416666666667,
              "duration": 0.7479166666666667
            },
            {
              "pitch": 75,
              "velocity": 40,
              "position": 5.010416666666667,
              "duration": 0.25625
            },
            {
              "pitch": 48,
              "velocity": 42,
              "position": 5,
              "duration": 0.26875
            },
            {
              "pitch": 42,
              "velocity": 45,
              "position": 5,
              "duration": 0.27708333333333335
            },
            {
              "pitch": 80,
              "velocity": 56,
              "position": 5.270833333333333,
              "duration": 0.20416666666666666
            },
            {
              "pitch": 107,
              "velocity": 116,
              "position": 5.270833333333333,
              "duration": 0.20416666666666666
            },
            {
              "pitch": 48,
              "velocity": 48,
              "position": 5.28125,
              "duration": 0.20416666666666666
            },
            {
              "pitch": 75,
              "velocity": 45,
              "position": 5.28125,
              "duration": 0.20416666666666666
            },
            {
              "pitch": 42,
              "velocity": 55,
              "position": 5.291666666666667,
              "duration": 0.20416666666666666
            },
            {
              "pitch": 108,
              "velocity": 123,
              "position": 5.5,
              "duration": 0.23541666666666666
            },
            {
              "pitch": 105,
              "velocity": 127,
              "position": 5.770833333333333,
              "duration": 0.23541666666666666
            },
            {
              "pitch": 41,
              "velocity": 54,
              "position": 6,
              "duration": 0.20416666666666666
            },
            {
              "pitch": 47,
              "velocity": 49,
              "position": 6,
              "duration": 0.20416666666666666
            },
            {
              "pitch": 106,
              "velocity": 120,
              "position": 6,
              "duration": 0.20416666666666666
            },
            {
              "pitch": 75,
              "velocity": 49,
              "position": 6.010416666666667,
              "duration": 0.20416666666666666
            },
            {
              "pitch": 79,
              "velocity": 55,
              "position": 6.010416666666667,
              "duration": 0.20416666666666666
            },
            {
              "pitch": 107,
              "velocity": 69,
              "position": 6.270833333333333,
              "duration": 0.20416666666666666
            },
            {
              "pitch": 41,
              "velocity": 54,
              "position": 6.5,
              "duration": 0.20416666666666666
            },
            {
              "pitch": 47,
              "velocity": 49,
              "position": 6.5,
              "duration": 0.20416666666666666
            },
            {
              "pitch": 75,
              "velocity": 49,
              "position": 6.510416666666667,
              "duration": 0.20416666666666666
            },
            {
              "pitch": 79,
              "velocity": 55,
              "position": 6.510416666666667,
              "duration": 0.20416666666666666
            },
            {
              "pitch": 108,
              "velocity": 65,
              "position": 6.5,
              "duration": 0.23541666666666666
            },
            {
              "pitch": 98,
              "velocity": 99,
              "position": 6.770833333333333,
              "duration": 0.23541666666666666
            },
            {
              "pitch": 106,
              "velocity": 28,
              "position": 7,
              "duration": 0.23541666666666666
            },
            {
              "pitch": 79,
              "velocity": 56,
              "position": 7.270833333333333,
              "duration": 0.20416666666666666
            },
            {
              "pitch": 107,
              "velocity": 127,
              "position": 7.270833333333333,
              "duration": 0.20416666666666666
            },
            {
              "pitch": 47,
              "velocity": 48,
              "position": 7.28125,
              "duration": 0.20416666666666666
            },
            {
              "pitch": 74,
              "velocity": 45,
              "position": 7.28125,
              "duration": 0.20416666666666666
            },
            {
              "pitch": 41,
              "velocity": 55,
              "position": 7.291666666666667,
              "duration": 0.20416666666666666
            },
            {
              "pitch": 106,
              "velocity": 104,
              "position": 8,
              "duration": 0.23541666666666666
            },
            {
              "pitch": 51,
              "velocity": 56,
              "position": 8,
              "duration": 6.98125
            },
            {
              "pitch": 84,
              "velocity": 44,
              "position": 8.010416666666666,
              "duration": 6.970833333333333
            },
            {
              "pitch": 48,
              "velocity": 44,
              "position": 8,
              "duration": 6.985416666666667
            },
            {
              "pitch": 79,
              "velocity": 46,
              "position": 8.010416666666666,
              "duration": 6.975
            }
          ]
        },
        "3": {
          "ctab": {
            "srcChannel": 3,
            "name": "Piano",
            "accType": "CHORD2",
            "editable": false,
            "mutedNotes": [],
            "mutedChords": [
              "1+2+5",
              "sus4",
              "1+5",
              "1+8",
              "7aug",
              "Maj7aug",
              "7(#9)",
              "7(b13)",
              "7(b9)",
              "7(13)",
              "7#11",
              "7(9)",
              "7b5",
              "7sus4",
              "7th",
              "aug",
              "Maj6(9)",
              "Maj7(9)",
              "Maj(9)",
              "Maj7#11",
              "Maj7",
              "Maj6",
              "Maj"
            ],
            "autoStart": false,
            "sourceChordNote": 0,
            "sourceChordType": "min",
            "ctb2Low": null,
            "ctb2Main": {
              "ntr": "ROOT_TRANSPOSITION",
              "ntt": "BYPASS",
              "bassOn": false,
              "chordRootUpperLimit": 11,
              "noteLowLimit": 0,
              "noteHighLimit": 65,
              "rtr": "PITCH_SHIFT"
            },
            "ctb2High": null
          },
          "notes": [
            {
              "pitch": 67,
              "velocity": 85,
              "position": 0.010416666666666666,
              "duration": 0.14791666666666667
            },
            {
              "pitch": 72,
              "velocity": 95,
              "position": 0.010416666666666666,
              "duration": 0.17708333333333334
            },
            {
              "pitch": 70,
              "velocity": 99,
              "position": 0.010416666666666666,
              "duration": 0.19375
            },
            {
              "pitch": 75,
              "velocity": 76,
              "position": 0.010416666666666666,
              "duration": 0.24583333333333332
            },
            {
              "pitch": 36,
              "velocity": 110,
              "position": 0.010416666666666666,
              "duration": 0.35
            },
            {
              "pitch": 24,
              "velocity": 100,
              "position": 0.010416666666666666,
              "duration": 0.36041666666666666
            },
            {
              "pitch": 67,
              "velocity": 70,
              "position": 0.5,
              "duration": 0.12083333333333333
            },
            {
              "pitch": 72,
              "velocity": 64,
              "position": 0.5,
              "duration": 0.13125
            },
            {
              "pitch": 70,
              "velocity": 64,
              "position": 0.5,
              "duration": 0.14166666666666666
            },
            {
              "pitch": 75,
              "velocity": 74,
              "position": 0.5,
              "duration": 0.19375
            },
            {
              "pitch": 67,
              "velocity": 80,
              "position": 1,
              "duration": 0.13333333333333333
            },
            {
              "pitch": 72,
              "velocity": 87,
              "position": 1,
              "duration": 0.15833333333333333
            },
            {
              "pitch": 70,
              "velocity": 80,
              "position": 1,
              "duration": 0.1625
            },
            {
              "pitch": 75,
              "velocity": 92,
              "position": 1,
              "duration": 0.19791666666666666
            },
            {
              "pitch": 67,
              "velocity": 82,
              "position": 1.5,
              "duration": 0.11666666666666667
            },
            {
              "pitch": 72,
              "velocity": 67,
              "position": 1.5,
              "duration": 0.14166666666666666
            },
            {
              "pitch": 70,
              "velocity": 80,
              "position": 1.5,
              "duration": 0.1625
            },
            {
              "pitch": 75,
              "velocity": 66,
              "position": 1.5,
              "duration": 0.19791666666666666
            },
            {
              "pitch": 43,
              "velocity": 84,
              "position": 1.75,
              "duration": 0.30833333333333335
            },
            {
              "pitch": 67,
              "velocity": 85,
              "position": 2,
              "duration": 0.15833333333333333
            },
            {
              "pitch": 48,
              "velocity": 116,
              "position": 2,
              "duration": 0.18541666666666667
            },
            {
              "pitch": 72,
              "velocity": 92,
              "position": 2,
              "duration": 0.21666666666666667
            },
            {
              "pitch": 70,
              "velocity": 108,
              "position": 2,
              "duration": 0.2520833333333333
            },
            {
              "pitch": 36,
              "velocity": 100,
              "position": 2,
              "duration": 0.25625
            },
            {
              "pitch": 75,
              "velocity": 92,
              "position": 2,
              "duration": 0.2708333333333333
            },
            {
              "pitch": 67,
              "velocity": 90,
              "position": 2.5,
              "duration": 0.12291666666666666
            },
            {
              "pitch": 46,
              "velocity": 85,
              "position": 2.5,
              "duration": 0.14166666666666666
            },
            {
              "pitch": 72,
              "velocity": 82,
              "position": 2.5,
              "duration": 0.17291666666666666
            },
            {
              "pitch": 70,
              "velocity": 99,
              "position": 2.5,
              "duration": 0.18541666666666667
            },
            {
              "pitch": 34,
              "velocity": 119,
              "position": 2.5,
              "duration": 0.19375
            },
            {
              "pitch": 75,
              "velocity": 99,
              "position": 2.5,
              "duration": 0.21666666666666667
            },
            {
              "pitch": 45,
              "velocity": 95,
              "position": 3,
              "duration": 0.1375
            },
            {
              "pitch": 33,
              "velocity": 116,
              "position": 3,
              "duration": 0.1625
            },
            {
              "pitch": 67,
              "velocity": 87,
              "position": 3,
              "duration": 0.16875
            },
            {
              "pitch": 70,
              "velocity": 87,
              "position": 3,
              "duration": 0.25625
            },
            {
              "pitch": 72,
              "velocity": 74,
              "position": 3,
              "duration": 0.25833333333333336
            },
            {
              "pitch": 75,
              "velocity": 74,
              "position": 3,
              "duration": 0.27708333333333335
            },
            {
              "pitch": 78,
              "velocity": 64,
              "position": 3.5,
              "duration": 0.24583333333333332
            },
            {
              "pitch": 72,
              "velocity": 95,
              "position": 3.5,
              "duration": 0.2708333333333333
            },
            {
              "pitch": 70,
              "velocity": 76,
              "position": 3.5,
              "duration": 0.2916666666666667
            },
            {
              "pitch": 75,
              "velocity": 87,
              "position": 3.5,
              "duration": 0.29791666666666666
            },
            {
              "pitch": 44,
              "velocity": 95,
              "position": 3.5,
              "duration": 0.38125
            },
            {
              "pitch": 32,
              "velocity": 122,
              "position": 3.5,
              "duration": 0.39375
            },
            {
              "pitch": 78,
              "velocity": 84,
              "position": 4,
              "duration": 0.12083333333333333
            },
            {
              "pitch": 70,
              "velocity": 74,
              "position": 4,
              "duration": 0.21041666666666667
            },
            {
              "pitch": 72,
              "velocity": 66,
              "position": 4,
              "duration": 0.21666666666666667
            },
            {
              "pitch": 75,
              "velocity": 70,
              "position": 4,
              "duration": 0.23541666666666666
            },
            {
              "pitch": 75,
              "velocity": 82,
              "position": 4.5,
              "duration": 0.18541666666666667
            },
            {
              "pitch": 70,
              "velocity": 85,
              "position": 4.5,
              "duration": 0.1875
            },
            {
              "pitch": 72,
              "velocity": 85,
              "position": 4.5,
              "duration": 0.19791666666666666
            },
            {
              "pitch": 78,
              "velocity": 74,
              "position": 4.5,
              "duration": 0.28958333333333336
            },
            {
              "pitch": 78,
              "velocity": 84,
              "position": 5,
              "duration": 0.12083333333333333
            },
            {
              "pitch": 70,
              "velocity": 80,
              "position": 5,
              "duration": 0.225
            },
            {
              "pitch": 75,
              "velocity": 80,
              "position": 5,
              "duration": 0.24583333333333332
            },
            {
              "pitch": 72,
              "velocity": 80,
              "position": 5,
              "duration": 0.2625
            },
            {
              "pitch": 78,
              "velocity": 74,
              "position": 5.5,
              "duration": 0.28958333333333336
            },
            {
              "pitch": 72,
              "velocity": 74,
              "position": 5.5,
              "duration": 0.37083333333333335
            },
            {
              "pitch": 70,
              "velocity": 70,
              "position": 5.5,
              "duration": 0.38333333333333336
            },
            {
              "pitch": 75,
              "velocity": 71,
              "position": 5.5,
              "duration": 0.40208333333333335
            },
            {
              "pitch": 67,
              "velocity": 64,
              "position": 6,
              "duration": 0.19791666666666666
            },
            {
              "pitch": 77,
              "velocity": 102,
              "position": 6,
              "duration": 0.2375
            },
            {
              "pitch": 71,
              "velocity": 97,
              "position": 6,
              "duration": 0.2791666666666667
            },
            {
              "pitch": 74,
              "velocity": 59,
              "position": 6,
              "duration": 0.30833333333333335
            },
            {
              "pitch": 67,
              "velocity": 64,
              "position": 6.5,
              "duration": 0.13125
            },
            {
              "pitch": 71,
              "velocity": 87,
              "position": 6.5,
              "duration": 0.18541666666666667
            },
            {
              "pitch": 77,
              "velocity": 48,
              "position": 6.5,
              "duration": 0.18541666666666667
            },
            {
              "pitch": 74,
              "velocity": 66,
              "position": 6.5,
              "duration": 0.22916666666666666
            },
            {
              "pitch": 43,
              "velocity": 95,
              "position": 6.5,
              "duration": 0.3333333333333333
            },
            {
              "pitch": 31,
              "velocity": 75,
              "position": 6.5,
              "duration": 0.3416666666666667
            },
            {
              "pitch": 43,
              "velocity": 84,
              "position": 7.25,
              "duration": 0.42291666666666666
            },
            {
              "pitch": 67,
              "velocity": 85,
              "position": 7.25,
              "duration": 0.5291666666666667
            },
            {
              "pitch": 31,
              "velocity": 112,
              "position": 7.25,
              "duration": 0.53125
            },
            {
              "pitch": 74,
              "velocity": 53,
              "position": 7.25,
              "duration": 0.5833333333333334
            },
            {
              "pitch": 71,
              "velocity": 87,
              "position": 7.25,
              "duration": 0.625
            },
            {
              "pitch": 77,
              "velocity": 85,
              "position": 7.25,
              "duration": 0.6375
            },
            {
              "pitch": 24,
              "velocity": 116,
              "position": 8,
              "duration": 6.995833333333334
            },
            {
              "pitch": 36,
              "velocity": 66,
              "position": 8,
              "duration": 6.995833333333334
            },
            {
              "pitch": 67,
              "velocity": 87,
              "position": 8,
              "duration": 6.995833333333334
            },
            {
              "pitch": 70,
              "velocity": 99,
              "position": 8,
              "duration": 6.995833333333334
            },
            {
              "pitch": 72,
              "velocity": 104,
              "position": 8,
              "duration": 6.995833333333334
            },
            {
              "pitch": 75,
              "velocity": 82,
              "position": 8,
              "duration": 6.995833333333334
            }
          ]
        },
        "4": {
          "ctab": {
            "srcChannel": 4,
            "name": "Organ",
            "accType": "PAD",
            "editable": false,
            "mutedNotes": [],
            "mutedChords": [
              "1+2+5",
              "sus4",
              "1+5",
              "1+8",
              "7aug",
              "Maj7aug",
              "7(#9)",
              "7(b13)",
              "7(b9)",
              "7(13)",
              "7#11",
              "7(9)",
              "7b5",
              "7sus4",
              "7th",
              "aug",
              "Maj6(9)",
              "Maj7(9)",
              "Maj(9)",
              "Maj7#11",
              "Maj7",
              "Maj6",
              "Maj"
            ],
            "autoStart": false,
            "sourceChordNote": 0,
            "sourceChordType": "min",
            "ctb2Low": null,
            "ctb2Main": {
              "ntr": "ROOT_TRANSPOSITION",
              "ntt": "BYPASS",
              "bassOn": false,
              "chordRootUpperLimit": 8,
              "noteLowLimit": 58,
              "noteHighLimit": 69,
              "rtr": "PITCH_SHIFT"
            },
            "ctb2High": null
          },
          "notes": [
            {
              "pitch": 60,
              "velocity": 60,
              "position": 0.010416666666666666,
              "duration": 0.48541666666666666
            },
            {
              "pitch": 63,
              "velocity": 60,
              "position": 0.010416666666666666,
              "duration": 0.48541666666666666
            },
            {
              "pitch": 67,
              "velocity": 60,
              "position": 0.010416666666666666,
              "duration": 0.48541666666666666
            },
            {
              "pitch": 60,
              "velocity": 60,
              "position": 2.4833333333333334,
              "duration": 0.36041666666666666
            },
            {
              "pitch": 63,
              "velocity": 60,
              "position": 2.4833333333333334,
              "duration": 0.36041666666666666
            },
            {
              "pitch": 67,
              "velocity": 60,
              "position": 2.4833333333333334,
              "duration": 0.36041666666666666
            },
            {
              "pitch": 70,
              "velocity": 60,
              "position": 2.4833333333333334,
              "duration": 0.36041666666666666
            },
            {
              "pitch": 67,
              "velocity": 60,
              "position": 3.03125,
              "duration": 0.46458333333333335
            },
            {
              "pitch": 70,
              "velocity": 60,
              "position": 3.03125,
              "duration": 0.46458333333333335
            },
            {
              "pitch": 60,
              "velocity": 60,
              "position": 3.03125,
              "duration": 0.95
            },
            {
              "pitch": 63,
              "velocity": 60,
              "position": 3.03125,
              "duration": 0.95
            },
            {
              "pitch": 66,
              "velocity": 60,
              "position": 3.5,
              "duration": 0.48541666666666666
            },
            {
              "pitch": 68,
              "velocity": 60,
              "position": 3.5,
              "duration": 0.48541666666666666
            },
            {
              "pitch": 60,
              "velocity": 60,
              "position": 4,
              "duration": 0.004166666666666667
            },
            {
              "pitch": 63,
              "velocity": 60,
              "position": 4,
              "duration": 0.004166666666666667
            },
            {
              "pitch": 59,
              "velocity": 60,
              "position": 6.5,
              "duration": 0.36041666666666666
            },
            {
              "pitch": 63,
              "velocity": 60,
              "position": 6.5,
              "duration": 0.36041666666666666
            },
            {
              "pitch": 65,
              "velocity": 60,
              "position": 6.5,
              "duration": 0.36041666666666666
            },
            {
              "pitch": 67,
              "velocity": 60,
              "position": 6.5,
              "duration": 0.36041666666666666
            },
            {
              "pitch": 59,
              "velocity": 60,
              "position": 7.25,
              "duration": 0.33958333333333335
            },
            {
              "pitch": 62,
              "velocity": 60,
              "position": 7.25,
              "duration": 0.33958333333333335
            },
            {
              "pitch": 65,
              "velocity": 60,
              "position": 7.25,
              "duration": 0.33958333333333335
            },
            {
              "pitch": 67,
              "velocity": 60,
              "position": 7.25,
              "duration": 0.33958333333333335
            },
            {
              "pitch": 60,
              "velocity": 50,
              "position": 8,
              "duration": 6.985416666666667
            },
            {
              "pitch": 63,
              "velocity": 50,
              "position": 8,
              "duration": 6.985416666666667
            },
            {
              "pitch": 67,
              "velocity": 50,
              "position": 8,
              "duration": 6.985416666666667
            }
          ]
        },
        "8": {
          "ctab": {
            "srcChannel": 8,
            "name": "AddDrum",
            "accType": "SUBRHYTHM",
            "editable": false,
            "mutedNotes": [],
            "mutedChords": [],
            "autoStart": true,
            "sourceChordNote": 0,
            "sourceChordType": "Maj7",
            "ctb2Low": null,
            "ctb2Main": {
              "ntr": "ROOT_FIXED",
              "ntt": "BYPASS",
              "bassOn": false,
              "chordRootUpperLimit": 6,
              "noteLowLimit": 0,
              "noteHighLimit": 127,
              "rtr": "PITCH_SHIFT"
            },
            "ctb2High": null
          },
          "notes": [
            {
              "pitch": 42,
              "velocity": 120,
              "position": 0,
              "duration": 0.00625
            },
            {
              "pitch": 42,
              "velocity": 40,
              "position": 0.5,
              "duration": 0.00625
            },
            {
              "pitch": 32,
              "velocity": 106,
              "position": 1,
              "duration": 0.00625
            },
            {
              "pitch": 42,
              "velocity": 120,
              "position": 1,
              "duration": 0.00625
            },
            {
              "pitch": 42,
              "velocity": 40,
              "position": 1.5,
              "duration": 0.00625
            },
            {
              "pitch": 32,
              "velocity": 24,
              "position": 1.7708333333333333,
              "duration": 0.00625
            },
            {
              "pitch": 42,
              "velocity": 120,
              "position": 2,
              "duration": 0.00625
            },
            {
              "pitch": 32,
              "velocity": 24,
              "position": 2.2708333333333335,
              "duration": 0.00625
            },
            {
              "pitch": 42,
              "velocity": 40,
              "position": 2.5,
              "duration": 0.00625
            },
            {
              "pitch": 32,
              "velocity": 106,
              "position": 3,
              "duration": 0.00625
            },
            {
              "pitch": 42,
              "velocity": 120,
              "position": 3,
              "duration": 0.00625
            },
            {
              "pitch": 42,
              "velocity": 40,
              "position": 3.5,
              "duration": 0.00625
            },
            {
              "pitch": 42,
              "velocity": 120,
              "position": 4,
              "duration": 0.00625
            },
            {
              "pitch": 42,
              "velocity": 40,
              "position": 4.5,
              "duration": 0.00625
            },
            {
              "pitch": 32,
              "velocity": 106,
              "position": 5,
              "duration": 0.00625
            },
            {
              "pitch": 42,
              "velocity": 120,
              "position": 5,
              "duration": 0.00625
            },
            {
              "pitch": 42,
              "velocity": 40,
              "position": 5.5,
              "duration": 0.00625
            },
            {
              "pitch": 32,
              "velocity": 24,
              "position": 5.770833333333333,
              "duration": 0.00625
            },
            {
              "pitch": 42,
              "velocity": 120,
              "position": 6,
              "duration": 0.00625
            },
            {
              "pitch": 18,
              "velocity": 81,
              "position": 5.666666666666667,
              "duration": 0.4875
            },
            {
              "pitch": 32,
              "velocity": 24,
              "position": 6.270833333333333,
              "duration": 0.00625
            },
            {
              "pitch": 17,
              "velocity": 127,
              "position": 6,
              "duration": 0.48541666666666666
            },
            {
              "pitch": 42,
              "velocity": 40,
              "position": 6.5,
              "duration": 0.00625
            },
            {
              "pitch": 18,
              "velocity": 81,
              "position": 6.166666666666667,
              "duration": 0.4875
            },
            {
              "pitch": 17,
              "velocity": 127,
              "position": 6.5,
              "duration": 0.48541666666666666
            },
            {
              "pitch": 26,
              "velocity": 50,
              "position": 0,
              "duration": 6.985416666666667
            },
            {
              "pitch": 32,
              "velocity": 106,
              "position": 7,
              "duration": 0.00625
            },
            {
              "pitch": 42,
              "velocity": 120,
              "position": 7,
              "duration": 0.00625
            },
            {
              "pitch": 42,
              "velocity": 120,
              "position": 8,
              "duration": 0.00625
            }
          ]
        },
        "9": {
          "ctab": {
            "srcChannel": 9,
            "name": "MainDrum",
            "accType": "RHYTHM",
            "editable": false,
            "mutedNotes": [],
            "mutedChords": [],
            "autoStart": true,
            "sourceChordNote": 0,
            "sourceChordType": "Maj7",
            "ctb2Low": null,
            "ctb2Main": {
              "ntr": "ROOT_FIXED",
              "ntt": "BYPASS",
              "bassOn": false,
              "chordRootUpperLimit": 6,
              "noteLowLimit": 0,
              "noteHighLimit": 127,
              "rtr": "PITCH_SHIFT"
            },
            "ctb2High": null
          },
          "notes": [
            {
              "pitch": 35,
              "velocity": 100,
              "position": 0,
              "duration": 0.00625
            },
            {
              "pitch": 42,
              "velocity": 110,
              "position": 0,
              "duration": 0.00625
            },
            {
              "pitch": 54,
              "velocity": 103,
              "position": 0,
              "duration": 0.00625
            },
            {
              "pitch": 38,
              "velocity": 23,
              "position": 0.2625,
              "duration": 0.00625
            },
            {
              "pitch": 42,
              "velocity": 54,
              "position": 0.4895833333333333,
              "duration": 0.00625
            },
            {
              "pitch": 54,
              "velocity": 32,
              "position": 0.5,
              "duration": 0.00625
            },
            {
              "pitch": 54,
              "velocity": 92,
              "position": 0.99375,
              "duration": 0.00625
            },
            {
              "pitch": 38,
              "velocity": 104,
              "position": 1,
              "duration": 0.00625
            },
            {
              "pitch": 42,
              "velocity": 106,
              "position": 1,
              "duration": 0.00625
            },
            {
              "pitch": 42,
              "velocity": 58,
              "position": 1.4895833333333333,
              "duration": 0.00625
            },
            {
              "pitch": 54,
              "velocity": 43,
              "position": 1.5,
              "duration": 0.00625
            },
            {
              "pitch": 35,
              "velocity": 60,
              "position": 1.7708333333333333,
              "duration": 0.00625
            },
            {
              "pitch": 54,
              "velocity": 107,
              "position": 1.9916666666666667,
              "duration": 0.00625
            },
            {
              "pitch": 35,
              "velocity": 100,
              "position": 2,
              "duration": 0.00625
            },
            {
              "pitch": 42,
              "velocity": 110,
              "position": 2.004166666666667,
              "duration": 0.00625
            },
            {
              "pitch": 38,
              "velocity": 35,
              "position": 2.2625,
              "duration": 0.00625
            },
            {
              "pitch": 54,
              "velocity": 43,
              "position": 2.4916666666666667,
              "duration": 0.00625
            },
            {
              "pitch": 35,
              "velocity": 100,
              "position": 2.5,
              "duration": 0.00625
            },
            {
              "pitch": 42,
              "velocity": 52,
              "position": 2.5,
              "duration": 0.00625
            },
            {
              "pitch": 38,
              "velocity": 104,
              "position": 3,
              "duration": 0.00625
            },
            {
              "pitch": 42,
              "velocity": 110,
              "position": 3,
              "duration": 0.00625
            },
            {
              "pitch": 54,
              "velocity": 91,
              "position": 3,
              "duration": 0.00625
            },
            {
              "pitch": 35,
              "velocity": 57,
              "position": 3.2708333333333335,
              "duration": 0.00625
            },
            {
              "pitch": 35,
              "velocity": 100,
              "position": 3.5,
              "duration": 0.00625
            },
            {
              "pitch": 54,
              "velocity": 31,
              "position": 3.5,
              "duration": 0.00625
            },
            {
              "pitch": 46,
              "velocity": 80,
              "position": 3.5,
              "duration": 0.24583333333333332
            },
            {
              "pitch": 38,
              "velocity": 28,
              "position": 3.7604166666666665,
              "duration": 0.00625
            },
            {
              "pitch": 42,
              "velocity": 110,
              "position": 4,
              "duration": 0.00625
            },
            {
              "pitch": 54,
              "velocity": 101,
              "position": 4,
              "duration": 0.00625
            },
            {
              "pitch": 38,
              "velocity": 24,
              "position": 4.2625,
              "duration": 0.00625
            },
            {
              "pitch": 42,
              "velocity": 59,
              "position": 4.49375,
              "duration": 0.00625
            },
            {
              "pitch": 54,
              "velocity": 44,
              "position": 4.5,
              "duration": 0.00625
            },
            {
              "pitch": 38,
              "velocity": 104,
              "position": 5,
              "duration": 0.00625
            },
            {
              "pitch": 42,
              "velocity": 107,
              "position": 5,
              "duration": 0.00625
            },
            {
              "pitch": 54,
              "velocity": 100,
              "position": 5.002083333333333,
              "duration": 0.00625
            },
            {
              "pitch": 42,
              "velocity": 54,
              "position": 5.502083333333333,
              "duration": 0.00625
            },
            {
              "pitch": 54,
              "velocity": 46,
              "position": 5.504166666666666,
              "duration": 0.00625
            },
            {
              "pitch": 38,
              "velocity": 60,
              "position": 5.75,
              "duration": 0.00625
            },
            {
              "pitch": 38,
              "velocity": 110,
              "position": 6,
              "duration": 0.00625
            },
            {
              "pitch": 54,
              "velocity": 105,
              "position": 6,
              "duration": 0.00625
            },
            {
              "pitch": 42,
              "velocity": 105,
              "position": 6.004166666666666,
              "duration": 0.00625
            },
            {
              "pitch": 38,
              "velocity": 35,
              "position": 6.260416666666667,
              "duration": 0.00625
            },
            {
              "pitch": 35,
              "velocity": 100,
              "position": 6.5,
              "duration": 0.00625
            },
            {
              "pitch": 54,
              "velocity": 37,
              "position": 6.5,
              "duration": 0.00625
            },
            {
              "pitch": 42,
              "velocity": 57,
              "position": 6.502083333333333,
              "duration": 0.00625
            },
            {
              "pitch": 38,
              "velocity": 104,
              "position": 7,
              "duration": 0.00625
            },
            {
              "pitch": 42,
              "velocity": 110,
              "position": 7,
              "duration": 0.00625
            },
            {
              "pitch": 54,
              "velocity": 99,
              "position": 7,
              "duration": 0.00625
            },
            {
              "pitch": 35,
              "velocity": 100,
              "position": 7.270833333333333,
              "duration": 0.00625
            },
            {
              "pitch": 46,
              "velocity": 80,
              "position": 7.270833333333333,
              "duration": 0.00625
            },
            {
              "pitch": 44,
              "velocity": 1,
              "position": 7.502083333333333,
              "duration": 0.00625
            },
            {
              "pitch": 35,
              "velocity": 100,
              "position": 8,
              "duration": 0.00625
            },
            {
              "pitch": 42,
              "velocity": 106,
              "position": 8,
              "duration": 0.00625
            },
            {
              "pitch": 57,
              "velocity": 80,
              "position": 8,
              "duration": 0.00625
            }
          ]
        },
        "10": {
          "ctab": {
            "srcChannel": 10,
            "name": "Bass",
            "accType": "BASS",
            "editable": false,
            "mutedNotes": [],
            "mutedChords": [
              "dim7",
              "dim",
              "minMaj7(9)",
              "minMaj7",
              "min7(11)",
              "min7(9)",
              "min(9)",
              "m7b5",
              "min7",
              "min6",
              "min"
            ],
            "autoStart": false,
            "sourceChordNote": 0,
            "sourceChordType": "Maj",
            "ctb2Low": null,
            "ctb2Main": {
              "ntr": "ROOT_TRANSPOSITION",
              "ntt": "BYPASS",
              "bassOn": false,
              "chordRootUpperLimit": 8,
              "noteLowLimit": 28,
              "noteHighLimit": 127,
              "rtr": "PITCH_SHIFT"
            },
            "ctb2High": null
          },
          "notes": [
            {
              "pitch": 24,
              "velocity": 74,
              "position": 0.010416666666666666,
              "duration": 0.48541666666666666
            },
            {
              "pitch": 24,
              "velocity": 110,
              "position": 1.7708333333333333,
              "duration": 0.20416666666666666
            },
            {
              "pitch": 24,
              "velocity": 70,
              "position": 1.9833333333333334,
              "duration": 0.3
            },
            {
              "pitch": 28,
              "velocity": 66,
              "position": 2.4833333333333334,
              "duration": 0.36041666666666666
            },
            {
              "pitch": 28,
              "velocity": 73,
              "position": 3.03125,
              "duration": 0.45
            },
            {
              "pitch": 29,
              "velocity": 70,
              "position": 3.5,
              "duration": 0.48541666666666666
            },
            {
              "pitch": 29,
              "velocity": 110,
              "position": 5.264583333333333,
              "duration": 0.2125
            },
            {
              "pitch": 29,
              "velocity": 74,
              "position": 5.489583333333333,
              "duration": 0.29791666666666666
            },
            {
              "pitch": 31,
              "velocity": 66,
              "position": 6.5,
              "duration": 0.36041666666666666
            },
            {
              "pitch": 31,
              "velocity": 70,
              "position": 7.25,
              "duration": 0.33958333333333335
            },
            {
              "pitch": 24,
              "velocity": 66,
              "position": 8,
              "duration": 6.985416666666667
            }
          ]
        },
        "11": {
          "ctab": {
            "srcChannel": 11,
            "name": "Strat",
            "accType": "CHORD1",
            "editable": false,
            "mutedNotes": [],
            "mutedChords": [
              "dim7",
              "dim",
              "minMaj7(9)",
              "minMaj7",
              "min7(11)",
              "min7(9)",
              "min(9)",
              "m7b5",
              "min7",
              "min6",
              "min"
            ],
            "autoStart": false,
            "sourceChordNote": 0,
            "sourceChordType": "Maj",
            "ctb2Low": null,
            "ctb2Main": {
              "ntr": "ROOT_TRANSPOSITION",
              "ntt": "BYPASS",
              "bassOn": false,
              "chordRootUpperLimit": 8,
              "noteLowLimit": 54,
              "noteHighLimit": 72,
              "rtr": "PITCH_SHIFT"
            },
            "ctb2High": null
          },
          "notes": [
            {
              "pitch": 106,
              "velocity": 97,
              "position": 0,
              "duration": 0.23541666666666666
            },
            {
              "pitch": 108,
              "velocity": 114,
              "position": 0.5,
              "duration": 0.23541666666666666
            },
            {
              "pitch": 52,
              "velocity": 42,
              "position": 0.5,
              "duration": 0.25833333333333336
            },
            {
              "pitch": 48,
              "velocity": 54,
              "position": 0.5,
              "duration": 0.26666666666666666
            },
            {
              "pitch": 48,
              "velocity": 32,
              "position": 0.78125,
              "duration": 0.20416666666666666
            },
            {
              "pitch": 52,
              "velocity": 15,
              "position": 0.7708333333333334,
              "duration": 0.21666666666666667
            },
            {
              "pitch": 79,
              "velocity": 41,
              "position": 0.5104166666666666,
              "duration": 0.48541666666666666
            },
            {
              "pitch": 105,
              "velocity": 77,
              "position": 0.7708333333333334,
              "duration": 0.23541666666666666
            },
            {
              "pitch": 106,
              "velocity": 89,
              "position": 1,
              "duration": 0.23541666666666666
            },
            {
              "pitch": 84,
              "velocity": 41,
              "position": 0.5104166666666666,
              "duration": 0.7479166666666667
            },
            {
              "pitch": 79,
              "velocity": 42,
              "position": 1.0104166666666667,
              "duration": 0.25625
            },
            {
              "pitch": 52,
              "velocity": 46,
              "position": 1,
              "duration": 0.26875
            },
            {
              "pitch": 48,
              "velocity": 39,
              "position": 1,
              "duration": 0.27708333333333335
            },
            {
              "pitch": 84,
              "velocity": 48,
              "position": 1.2708333333333333,
              "duration": 0.20416666666666666
            },
            {
              "pitch": 107,
              "velocity": 125,
              "position": 1.2708333333333333,
              "duration": 0.20416666666666666
            },
            {
              "pitch": 52,
              "velocity": 53,
              "position": 1.28125,
              "duration": 0.20416666666666666
            },
            {
              "pitch": 79,
              "velocity": 54,
              "position": 1.28125,
              "duration": 0.20416666666666666
            },
            {
              "pitch": 48,
              "velocity": 57,
              "position": 1.2916666666666667,
              "duration": 0.20416666666666666
            },
            {
              "pitch": 108,
              "velocity": 127,
              "position": 1.5,
              "duration": 0.23541666666666666
            },
            {
              "pitch": 105,
              "velocity": 84,
              "position": 1.7708333333333333,
              "duration": 0.23541666666666666
            },
            {
              "pitch": 43,
              "velocity": 47,
              "position": 2,
              "duration": 0.20416666666666666
            },
            {
              "pitch": 48,
              "velocity": 48,
              "position": 2,
              "duration": 0.20416666666666666
            },
            {
              "pitch": 106,
              "velocity": 114,
              "position": 2,
              "duration": 0.20416666666666666
            },
            {
              "pitch": 76,
              "velocity": 57,
              "position": 2.0104166666666665,
              "duration": 0.20416666666666666
            },
            {
              "pitch": 82,
              "velocity": 44,
              "position": 2.0104166666666665,
              "duration": 0.20416666666666666
            },
            {
              "pitch": 107,
              "velocity": 76,
              "position": 2.2708333333333335,
              "duration": 0.20416666666666666
            },
            {
              "pitch": 108,
              "velocity": 55,
              "position": 2.5,
              "duration": 0.23541666666666666
            },
            {
              "pitch": 98,
              "velocity": 97,
              "position": 2.7708333333333335,
              "duration": 0.23541666666666666
            },
            {
              "pitch": 106,
              "velocity": 23,
              "position": 3,
              "duration": 0.23541666666666666
            },
            {
              "pitch": 107,
              "velocity": 126,
              "position": 3.2708333333333335,
              "duration": 0.20416666666666666
            },
            {
              "pitch": 108,
              "velocity": 127,
              "position": 3.5,
              "duration": 0.23541666666666666
            },
            {
              "pitch": 75,
              "velocity": 56,
              "position": 3.5104166666666665,
              "duration": 0.24791666666666667
            },
            {
              "pitch": 48,
              "velocity": 46,
              "position": 3.5,
              "duration": 0.2625
            },
            {
              "pitch": 41,
              "velocity": 48,
              "position": 3.5,
              "duration": 0.26875
            },
            {
              "pitch": 81,
              "velocity": 57,
              "position": 3.5104166666666665,
              "duration": 0.4875
            },
            {
              "pitch": 105,
              "velocity": 80,
              "position": 3.7708333333333335,
              "duration": 0.23541666666666666
            },
            {
              "pitch": 75,
              "velocity": 39,
              "position": 3.7708333333333335,
              "duration": 0.2375
            },
            {
              "pitch": 48,
              "velocity": 36,
              "position": 3.78125,
              "duration": 0.23541666666666666
            },
            {
              "pitch": 41,
              "velocity": 47,
              "position": 3.78125,
              "duration": 0.2375
            },
            {
              "pitch": 106,
              "velocity": 88,
              "position": 4,
              "duration": 0.23541666666666666
            },
            {
              "pitch": 107,
              "velocity": 118,
              "position": 4.270833333333333,
              "duration": 0.20416666666666666
            },
            {
              "pitch": 108,
              "velocity": 127,
              "position": 4.5,
              "duration": 0.23541666666666666
            },
            {
              "pitch": 48,
              "velocity": 41,
              "position": 4.5,
              "duration": 0.25833333333333336
            },
            {
              "pitch": 41,
              "velocity": 40,
              "position": 4.5,
              "duration": 0.26666666666666666
            },
            {
              "pitch": 41,
              "velocity": 30,
              "position": 4.78125,
              "duration": 0.20416666666666666
            },
            {
              "pitch": 48,
              "velocity": 22,
              "position": 4.770833333333333,
              "duration": 0.21666666666666667
            },
            {
              "pitch": 75,
              "velocity": 55,
              "position": 4.510416666666667,
              "duration": 0.48541666666666666
            },
            {
              "pitch": 105,
              "velocity": 87,
              "position": 4.770833333333333,
              "duration": 0.23541666666666666
            },
            {
              "pitch": 106,
              "velocity": 99,
              "position": 5,
              "duration": 0.23541666666666666
            },
            {
              "pitch": 81,
              "velocity": 53,
              "position": 4.510416666666667,
              "duration": 0.7479166666666667
            },
            {
              "pitch": 75,
              "velocity": 40,
              "position": 5.010416666666667,
              "duration": 0.25625
            },
            {
              "pitch": 48,
              "velocity": 42,
              "position": 5,
              "duration": 0.26875
            },
            {
              "pitch": 41,
              "velocity": 45,
              "position": 5,
              "duration": 0.27708333333333335
            },
            {
              "pitch": 81,
              "velocity": 56,
              "position": 5.270833333333333,
              "duration": 0.20416666666666666
            },
            {
              "pitch": 107,
              "velocity": 116,
              "position": 5.270833333333333,
              "duration": 0.20416666666666666
            },
            {
              "pitch": 48,
              "velocity": 48,
              "position": 5.28125,
              "duration": 0.20416666666666666
            },
            {
              "pitch": 75,
              "velocity": 45,
              "position": 5.28125,
              "duration": 0.20416666666666666
            },
            {
              "pitch": 41,
              "velocity": 55,
              "position": 5.291666666666667,
              "duration": 0.20416666666666666
            },
            {
              "pitch": 108,
              "velocity": 123,
              "position": 5.5,
              "duration": 0.23541666666666666
            },
            {
              "pitch": 105,
              "velocity": 127,
              "position": 5.770833333333333,
              "duration": 0.23541666666666666
            },
            {
              "pitch": 41,
              "velocity": 54,
              "position": 6,
              "duration": 0.20416666666666666
            },
            {
              "pitch": 48,
              "velocity": 49,
              "position": 6,
              "duration": 0.20416666666666666
            },
            {
              "pitch": 106,
              "velocity": 120,
              "position": 6,
              "duration": 0.20416666666666666
            },
            {
              "pitch": 74,
              "velocity": 49,
              "position": 6.010416666666667,
              "duration": 0.20416666666666666
            },
            {
              "pitch": 81,
              "velocity": 55,
              "position": 6.010416666666667,
              "duration": 0.20416666666666666
            },
            {
              "pitch": 107,
              "velocity": 69,
              "position": 6.270833333333333,
              "duration": 0.20416666666666666
            },
            {
              "pitch": 41,
              "velocity": 54,
              "position": 6.5,
              "duration": 0.20416666666666666
            },
            {
              "pitch": 48,
              "velocity": 49,
              "position": 6.5,
              "duration": 0.20416666666666666
            },
            {
              "pitch": 74,
              "velocity": 49,
              "position": 6.510416666666667,
              "duration": 0.20416666666666666
            },
            {
              "pitch": 81,
              "velocity": 55,
              "position": 6.510416666666667,
              "duration": 0.20416666666666666
            },
            {
              "pitch": 108,
              "velocity": 65,
              "position": 6.5,
              "duration": 0.23541666666666666
            },
            {
              "pitch": 98,
              "velocity": 99,
              "position": 6.770833333333333,
              "duration": 0.23541666666666666
            },
            {
              "pitch": 106,
              "velocity": 28,
              "position": 7,
              "duration": 0.23541666666666666
            },
            {
              "pitch": 81,
              "velocity": 56,
              "position": 7.270833333333333,
              "duration": 0.20416666666666666
            },
            {
              "pitch": 107,
              "velocity": 127,
              "position": 7.270833333333333,
              "duration": 0.20416666666666666
            },
            {
              "pitch": 48,
              "velocity": 48,
              "position": 7.28125,
              "duration": 0.20416666666666666
            },
            {
              "pitch": 74,
              "velocity": 45,
              "position": 7.28125,
              "duration": 0.20416666666666666
            },
            {
              "pitch": 41,
              "velocity": 55,
              "position": 7.291666666666667,
              "duration": 0.20416666666666666
            },
            {
              "pitch": 106,
              "velocity": 104,
              "position": 8,
              "duration": 0.23541666666666666
            },
            {
              "pitch": 52,
              "velocity": 56,
              "position": 8,
              "duration": 6.98125
            },
            {
              "pitch": 84,
              "velocity": 44,
              "position": 8.010416666666666,
              "duration": 6.970833333333333
            },
            {
              "pitch": 48,
              "velocity": 44,
              "position": 8,
              "duration": 6.985416666666667
            },
            {
              "pitch": 79,
              "velocity": 46,
              "position": 8.010416666666666,
              "duration": 6.975
            }
          ]
        },
        "12": {
          "ctab": {
            "srcChannel": 12,
            "name": "Piano",
            "accType": "CHORD2",
            "editable": false,
            "mutedNotes": [],
            "mutedChords": [
              "dim7",
              "dim",
              "minMaj7(9)",
              "minMaj7",
              "min7(11)",
              "min7(9)",
              "min(9)",
              "m7b5",
              "min7",
              "min6",
              "min"
            ],
            "autoStart": false,
            "sourceChordNote": 0,
            "sourceChordType": "Maj",
            "ctb2Low": null,
            "ctb2Main": {
              "ntr": "ROOT_TRANSPOSITION",
              "ntt": "BYPASS",
              "bassOn": false,
              "chordRootUpperLimit": 11,
              "noteLowLimit": 0,
              "noteHighLimit": 65,
              "rtr": "PITCH_SHIFT"
            },
            "ctb2High": null
          },
          "notes": [
            {
              "pitch": 67,
              "velocity": 85,
              "position": 0.010416666666666666,
              "duration": 0.14791666666666667
            },
            {
              "pitch": 72,
              "velocity": 95,
              "position": 0.010416666666666666,
              "duration": 0.17708333333333334
            },
            {
              "pitch": 70,
              "velocity": 99,
              "position": 0.010416666666666666,
              "duration": 0.19375
            },
            {
              "pitch": 76,
              "velocity": 76,
              "position": 0.010416666666666666,
              "duration": 0.24583333333333332
            },
            {
              "pitch": 36,
              "velocity": 110,
              "position": 0.010416666666666666,
              "duration": 0.35
            },
            {
              "pitch": 24,
              "velocity": 100,
              "position": 0.010416666666666666,
              "duration": 0.36041666666666666
            },
            {
              "pitch": 67,
              "velocity": 70,
              "position": 0.5,
              "duration": 0.12083333333333333
            },
            {
              "pitch": 72,
              "velocity": 64,
              "position": 0.5,
              "duration": 0.13125
            },
            {
              "pitch": 70,
              "velocity": 64,
              "position": 0.5,
              "duration": 0.14166666666666666
            },
            {
              "pitch": 76,
              "velocity": 74,
              "position": 0.5,
              "duration": 0.19375
            },
            {
              "pitch": 67,
              "velocity": 80,
              "position": 1,
              "duration": 0.13333333333333333
            },
            {
              "pitch": 72,
              "velocity": 87,
              "position": 1,
              "duration": 0.15833333333333333
            },
            {
              "pitch": 70,
              "velocity": 80,
              "position": 1,
              "duration": 0.1625
            },
            {
              "pitch": 76,
              "velocity": 92,
              "position": 1,
              "duration": 0.19791666666666666
            },
            {
              "pitch": 67,
              "velocity": 82,
              "position": 1.5,
              "duration": 0.11666666666666667
            },
            {
              "pitch": 72,
              "velocity": 67,
              "position": 1.5,
              "duration": 0.14166666666666666
            },
            {
              "pitch": 70,
              "velocity": 80,
              "position": 1.5,
              "duration": 0.1625
            },
            {
              "pitch": 76,
              "velocity": 66,
              "position": 1.5,
              "duration": 0.19791666666666666
            },
            {
              "pitch": 31,
              "velocity": 84,
              "position": 1.75,
              "duration": 0.30833333333333335
            },
            {
              "pitch": 67,
              "velocity": 85,
              "position": 2,
              "duration": 0.15833333333333333
            },
            {
              "pitch": 36,
              "velocity": 116,
              "position": 2,
              "duration": 0.18541666666666667
            },
            {
              "pitch": 72,
              "velocity": 92,
              "position": 2,
              "duration": 0.21666666666666667
            },
            {
              "pitch": 70,
              "velocity": 108,
              "position": 2,
              "duration": 0.2520833333333333
            },
            {
              "pitch": 24,
              "velocity": 100,
              "position": 2,
              "duration": 0.25625
            },
            {
              "pitch": 76,
              "velocity": 92,
              "position": 2,
              "duration": 0.2708333333333333
            },
            {
              "pitch": 67,
              "velocity": 90,
              "position": 2.5,
              "duration": 0.12291666666666666
            },
            {
              "pitch": 38,
              "velocity": 85,
              "position": 2.5,
              "duration": 0.14166666666666666
            },
            {
              "pitch": 72,
              "velocity": 82,
              "position": 2.5,
              "duration": 0.17291666666666666
            },
            {
              "pitch": 70,
              "velocity": 99,
              "position": 2.5,
              "duration": 0.18541666666666667
            },
            {
              "pitch": 26,
              "velocity": 119,
              "position": 2.5,
              "duration": 0.19375
            },
            {
              "pitch": 76,
              "velocity": 99,
              "position": 2.5,
              "duration": 0.21666666666666667
            },
            {
              "pitch": 40,
              "velocity": 95,
              "position": 3,
              "duration": 0.1375
            },
            {
              "pitch": 28,
              "velocity": 116,
              "position": 3,
              "duration": 0.1625
            },
            {
              "pitch": 67,
              "velocity": 87,
              "position": 3,
              "duration": 0.16875
            },
            {
              "pitch": 70,
              "velocity": 87,
              "position": 3,
              "duration": 0.25625
            },
            {
              "pitch": 72,
              "velocity": 74,
              "position": 3,
              "duration": 0.25833333333333336
            },
            {
              "pitch": 76,
              "velocity": 74,
              "position": 3,
              "duration": 0.27708333333333335
            },
            {
              "pitch": 77,
              "velocity": 64,
              "position": 3.5,
              "duration": 0.24583333333333332
            },
            {
              "pitch": 72,
              "velocity": 95,
              "position": 3.5,
              "duration": 0.2708333333333333
            },
            {
              "pitch": 69,
              "velocity": 76,
              "position": 3.5,
              "duration": 0.2916666666666667
            },
            {
              "pitch": 75,
              "velocity": 87,
              "position": 3.5,
              "duration": 0.29791666666666666
            },
            {
              "pitch": 41,
              "velocity": 95,
              "position": 3.5,
              "duration": 0.38125
            },
            {
              "pitch": 29,
              "velocity": 122,
              "position": 3.5,
              "duration": 0.39375
            },
            {
              "pitch": 77,
              "velocity": 84,
              "position": 4,
              "duration": 0.12083333333333333
            },
            {
              "pitch": 69,
              "velocity": 74,
              "position": 4,
              "duration": 0.21041666666666667
            },
            {
              "pitch": 72,
              "velocity": 66,
              "position": 4,
              "duration": 0.21666666666666667
            },
            {
              "pitch": 75,
              "velocity": 70,
              "position": 4,
              "duration": 0.23541666666666666
            },
            {
              "pitch": 75,
              "velocity": 82,
              "position": 4.5,
              "duration": 0.18541666666666667
            },
            {
              "pitch": 69,
              "velocity": 85,
              "position": 4.5,
              "duration": 0.1875
            },
            {
              "pitch": 72,
              "velocity": 85,
              "position": 4.5,
              "duration": 0.19791666666666666
            },
            {
              "pitch": 77,
              "velocity": 74,
              "position": 4.5,
              "duration": 0.28958333333333336
            },
            {
              "pitch": 77,
              "velocity": 84,
              "position": 5,
              "duration": 0.12083333333333333
            },
            {
              "pitch": 69,
              "velocity": 80,
              "position": 5,
              "duration": 0.225
            },
            {
              "pitch": 75,
              "velocity": 80,
              "position": 5,
              "duration": 0.24583333333333332
            },
            {
              "pitch": 72,
              "velocity": 80,
              "position": 5,
              "duration": 0.2625
            },
            {
              "pitch": 77,
              "velocity": 74,
              "position": 5.5,
              "duration": 0.28958333333333336
            },
            {
              "pitch": 72,
              "velocity": 74,
              "position": 5.5,
              "duration": 0.37083333333333335
            },
            {
              "pitch": 69,
              "velocity": 70,
              "position": 5.5,
              "duration": 0.38333333333333336
            },
            {
              "pitch": 75,
              "velocity": 71,
              "position": 5.5,
              "duration": 0.40208333333333335
            },
            {
              "pitch": 69,
              "velocity": 64,
              "position": 6,
              "duration": 0.19791666666666666
            },
            {
              "pitch": 77,
              "velocity": 102,
              "position": 6,
              "duration": 0.2375
            },
            {
              "pitch": 72,
              "velocity": 97,
              "position": 6,
              "duration": 0.2791666666666667
            },
            {
              "pitch": 74,
              "velocity": 59,
              "position": 6,
              "duration": 0.30833333333333335
            },
            {
              "pitch": 69,
              "velocity": 64,
              "position": 6.5,
              "duration": 0.13125
            },
            {
              "pitch": 72,
              "velocity": 87,
              "position": 6.5,
              "duration": 0.18541666666666667
            },
            {
              "pitch": 77,
              "velocity": 48,
              "position": 6.5,
              "duration": 0.18541666666666667
            },
            {
              "pitch": 74,
              "velocity": 66,
              "position": 6.5,
              "duration": 0.22916666666666666
            },
            {
              "pitch": 43,
              "velocity": 95,
              "position": 6.5,
              "duration": 0.3333333333333333
            },
            {
              "pitch": 31,
              "velocity": 75,
              "position": 6.5,
              "duration": 0.3416666666666667
            },
            {
              "pitch": 43,
              "velocity": 84,
              "position": 7.25,
              "duration": 0.42291666666666666
            },
            {
              "pitch": 69,
              "velocity": 85,
              "position": 7.25,
              "duration": 0.5291666666666667
            },
            {
              "pitch": 31,
              "velocity": 112,
              "position": 7.25,
              "duration": 0.53125
            },
            {
              "pitch": 74,
              "velocity": 53,
              "position": 7.25,
              "duration": 0.5833333333333334
            },
            {
              "pitch": 72,
              "velocity": 87,
              "position": 7.25,
              "duration": 0.625
            },
            {
              "pitch": 77,
              "velocity": 85,
              "position": 7.25,
              "duration": 0.6375
            },
            {
              "pitch": 24,
              "velocity": 116,
              "position": 8,
              "duration": 6.995833333333334
            },
            {
              "pitch": 36,
              "velocity": 76,
              "position": 8,
              "duration": 6.995833333333334
            },
            {
              "pitch": 67,
              "velocity": 87,
              "position": 8,
              "duration": 6.995833333333334
            },
            {
              "pitch": 72,
              "velocity": 104,
              "position": 8,
              "duration": 6.995833333333334
            },
            {
              "pitch": 76,
              "velocity": 82,
              "position": 8,
              "duration": 6.995833333333334
            }
          ]
        },
        "13": {
          "ctab": {
            "srcChannel": 13,
            "name": "Organ",
            "accType": "PAD",
            "editable": false,
            "mutedNotes": [],
            "mutedChords": [
              "dim7",
              "dim",
              "minMaj7(9)",
              "minMaj7",
              "min7(11)",
              "min7(9)",
              "min(9)",
              "m7b5",
              "min7",
              "min6",
              "min"
            ],
            "autoStart": false,
            "sourceChordNote": 0,
            "sourceChordType": "Maj",
            "ctb2Low": null,
            "ctb2Main": {
              "ntr": "ROOT_TRANSPOSITION",
              "ntt": "BYPASS",
              "bassOn": false,
              "chordRootUpperLimit": 8,
              "noteLowLimit": 58,
              "noteHighLimit": 69,
              "rtr": "PITCH_SHIFT"
            },
            "ctb2High": null
          },
          "notes": [
            {
              "pitch": 60,
              "velocity": 60,
              "position": 0.010416666666666666,
              "duration": 0.48541666666666666
            },
            {
              "pitch": 64,
              "velocity": 60,
              "position": 0.010416666666666666,
              "duration": 0.48541666666666666
            },
            {
              "pitch": 67,
              "velocity": 60,
              "position": 0.010416666666666666,
              "duration": 0.48541666666666666
            },
            {
              "pitch": 60,
              "velocity": 60,
              "position": 2.4833333333333334,
              "duration": 0.36041666666666666
            },
            {
              "pitch": 64,
              "velocity": 60,
              "position": 2.4833333333333334,
              "duration": 0.36041666666666666
            },
            {
              "pitch": 67,
              "velocity": 60,
              "position": 2.4833333333333334,
              "duration": 0.36041666666666666
            },
            {
              "pitch": 70,
              "velocity": 60,
              "position": 2.4833333333333334,
              "duration": 0.36041666666666666
            },
            {
              "pitch": 64,
              "velocity": 60,
              "position": 3.03125,
              "duration": 0.46458333333333335
            },
            {
              "pitch": 67,
              "velocity": 60,
              "position": 3.03125,
              "duration": 0.46458333333333335
            },
            {
              "pitch": 70,
              "velocity": 60,
              "position": 3.03125,
              "duration": 0.46458333333333335
            },
            {
              "pitch": 60,
              "velocity": 60,
              "position": 3.03125,
              "duration": 0.95
            },
            {
              "pitch": 63,
              "velocity": 60,
              "position": 3.5,
              "duration": 0.48541666666666666
            },
            {
              "pitch": 65,
              "velocity": 60,
              "position": 3.5,
              "duration": 0.48541666666666666
            },
            {
              "pitch": 69,
              "velocity": 60,
              "position": 3.5,
              "duration": 0.48541666666666666
            },
            {
              "pitch": 60,
              "velocity": 60,
              "position": 4,
              "duration": 0.004166666666666667
            },
            {
              "pitch": 60,
              "velocity": 60,
              "position": 6.5,
              "duration": 0.36041666666666666
            },
            {
              "pitch": 62,
              "velocity": 60,
              "position": 6.5,
              "duration": 0.36041666666666666
            },
            {
              "pitch": 65,
              "velocity": 60,
              "position": 6.5,
              "duration": 0.36041666666666666
            },
            {
              "pitch": 69,
              "velocity": 60,
              "position": 6.5,
              "duration": 0.36041666666666666
            },
            {
              "pitch": 60,
              "velocity": 60,
              "position": 7.25,
              "duration": 0.33958333333333335
            },
            {
              "pitch": 62,
              "velocity": 60,
              "position": 7.25,
              "duration": 0.33958333333333335
            },
            {
              "pitch": 65,
              "velocity": 60,
              "position": 7.25,
              "duration": 0.33958333333333335
            },
            {
              "pitch": 69,
              "velocity": 60,
              "position": 7.25,
              "duration": 0.33958333333333335
            },
            {
              "pitch": 60,
              "velocity": 50,
              "position": 8,
              "duration": 6.985416666666667
            },
            {
              "pitch": 64,
              "velocity": 50,
              "position": 8,
              "duration": 6.985416666666667
            },
            {
              "pitch": 67,
              "velocity": 50,
              "position": 8,
              "duration": 6.985416666666667
            }
          ]
        }
      }
    },
    "Intro_C": {
      "type": "Intro_C",
      "sizeInBeats": 16,
      "channels": {
        "1": {
          "ctab": {
            "srcChannel": 1,
            "name": "Bass",
            "accType": "BASS",
            "editable": false,
            "mutedNotes": [],
            "mutedChords": [
              "1+2+5",
              "sus4",
              "1+5",
              "1+8",
              "7aug",
              "Maj7aug",
              "7(#9)",
              "7(b13)",
              "7(b9)",
              "7(13)",
              "7#11",
              "7(9)",
              "7b5",
              "7sus4",
              "7th",
              "aug",
              "Maj6(9)",
              "Maj7(9)",
              "Maj(9)",
              "Maj7#11",
              "Maj7",
              "Maj6",
              "Maj"
            ],
            "autoStart": false,
            "sourceChordNote": 0,
            "sourceChordType": "min",
            "ctb2Low": null,
            "ctb2Main": {
              "ntr": "ROOT_TRANSPOSITION",
              "ntt": "BYPASS",
              "bassOn": false,
              "chordRootUpperLimit": 8,
              "noteLowLimit": 28,
              "noteHighLimit": 127,
              "rtr": "PITCH_SHIFT"
            },
            "ctb2High": null
          },
          "notes": [
            {
              "pitch": 24,
              "velocity": 70,
              "position": 0,
              "duration": 0.29791666666666666
            },
            {
              "pitch": 24,
              "velocity": 69,
              "position": 0.4791666666666667,
              "duration": 0.6104166666666667
            },
            {
              "pitch": 24,
              "velocity": 110,
              "position": 1.2708333333333333,
              "duration": 0.21458333333333332
            },
            {
              "pitch": 29,
              "velocity": 69,
              "position": 1.5,
              "duration": 0.19375
            },
            {
              "pitch": 29,
              "velocity": 63,
              "position": 1.7604166666666667,
              "duration": 0.19375
            },
            {
              "pitch": 29,
              "velocity": 66,
              "position": 1.98125,
              "duration": 0.3
            },
            {
              "pitch": 29,
              "velocity": 71,
              "position": 2.5,
              "duration": 0.6104166666666667
            },
            {
              "pitch": 29,
              "velocity": 110,
              "position": 3.285416666666667,
              "duration": 0.20208333333333334
            },
            {
              "pitch": 34,
              "velocity": 70,
              "position": 3.5,
              "duration": 0.19583333333333333
            },
            {
              "pitch": 34,
              "velocity": 57,
              "position": 3.785416666666667,
              "duration": 0.19583333333333333
            },
            {
              "pitch": 34,
              "velocity": 70,
              "position": 4,
              "duration": 0.29791666666666666
            },
            {
              "pitch": 34,
              "velocity": 70,
              "position": 4.479166666666667,
              "duration": 0.6104166666666667
            },
            {
              "pitch": 34,
              "velocity": 110,
              "position": 5.270833333333333,
              "duration": 0.20625
            },
            {
              "pitch": 34,
              "velocity": 71,
              "position": 5.489583333333333,
              "duration": 0.48125
            },
            {
              "pitch": 36,
              "velocity": 68,
              "position": 6.010416666666667,
              "duration": 0.29791666666666666
            },
            {
              "pitch": 36,
              "velocity": 68,
              "position": 6.489583333333333,
              "duration": 0.50625
            },
            {
              "pitch": 36,
              "velocity": 110,
              "position": 7.0125,
              "duration": 0.2375
            },
            {
              "pitch": 31,
              "velocity": 71,
              "position": 7.270833333333333,
              "duration": 0.66875
            },
            {
              "pitch": 24,
              "velocity": 68,
              "position": 8,
              "duration": 0.29791666666666666
            },
            {
              "pitch": 24,
              "velocity": 67,
              "position": 8.5,
              "duration": 0.6104166666666667
            },
            {
              "pitch": 24,
              "velocity": 110,
              "position": 9.25,
              "duration": 0.21458333333333332
            },
            {
              "pitch": 29,
              "velocity": 71,
              "position": 9.48125,
              "duration": 0.19791666666666666
            },
            {
              "pitch": 29,
              "velocity": 62,
              "position": 9.752083333333333,
              "duration": 0.19791666666666666
            },
            {
              "pitch": 29,
              "velocity": 69,
              "position": 9.991666666666667,
              "duration": 0.3
            },
            {
              "pitch": 29,
              "velocity": 68,
              "position": 10.489583333333334,
              "duration": 0.6125
            },
            {
              "pitch": 29,
              "velocity": 110,
              "position": 11.260416666666666,
              "duration": 0.21666666666666667
            },
            {
              "pitch": 29,
              "velocity": 70,
              "position": 11.504166666666666,
              "duration": 0.2375
            },
            {
              "pitch": 29,
              "velocity": 64,
              "position": 11.783333333333333,
              "duration": 0.19791666666666666
            },
            {
              "pitch": 29,
              "velocity": 68,
              "position": 12,
              "duration": 0.29791666666666666
            },
            {
              "pitch": 29,
              "velocity": 74,
              "position": 12.48125,
              "duration": 0.3625
            },
            {
              "pitch": 29,
              "velocity": 69,
              "position": 13.285416666666666,
              "duration": 0.42083333333333334
            },
            {
              "pitch": 29,
              "velocity": 67,
              "position": 14,
              "duration": 1.9854166666666666
            }
          ]
        },
        "2": {
          "ctab": {
            "srcChannel": 2,
            "name": "Strat",
            "accType": "CHORD1",
            "editable": false,
            "mutedNotes": [],
            "mutedChords": [
              "1+2+5",
              "sus4",
              "1+5",
              "1+8",
              "7aug",
              "Maj7aug",
              "7(#9)",
              "7(b13)",
              "7(b9)",
              "7(13)",
              "7#11",
              "7(9)",
              "7b5",
              "7sus4",
              "7th",
              "aug",
              "Maj6(9)",
              "Maj7(9)",
              "Maj(9)",
              "Maj7#11",
              "Maj7",
              "Maj6",
              "Maj"
            ],
            "autoStart": false,
            "sourceChordNote": 0,
            "sourceChordType": "min",
            "ctb2Low": null,
            "ctb2Main": {
              "ntr": "ROOT_TRANSPOSITION",
              "ntt": "BYPASS",
              "bassOn": false,
              "chordRootUpperLimit": 8,
              "noteLowLimit": 54,
              "noteHighLimit": 72,
              "rtr": "PITCH_SHIFT"
            },
            "ctb2High": null
          },
          "notes": [
            {
              "pitch": 106,
              "velocity": 127,
              "position": 0.010416666666666666,
              "duration": 0.23541666666666666
            },
            {
              "pitch": 107,
              "velocity": 82,
              "position": 0.2708333333333333,
              "duration": 0.23541666666666666
            },
            {
              "pitch": 46,
              "velocity": 57,
              "position": 0.5,
              "duration": 0.23541666666666666
            },
            {
              "pitch": 108,
              "velocity": 121,
              "position": 0.5,
              "duration": 0.23541666666666666
            },
            {
              "pitch": 51,
              "velocity": 48,
              "position": 0.5,
              "duration": 0.2375
            },
            {
              "pitch": 79,
              "velocity": 56,
              "position": 0.5104166666666666,
              "duration": 0.23541666666666666
            },
            {
              "pitch": 84,
              "velocity": 45,
              "position": 0.5104166666666666,
              "duration": 0.2375
            },
            {
              "pitch": 105,
              "velocity": 81,
              "position": 0.7708333333333334,
              "duration": 0.23541666666666666
            },
            {
              "pitch": 106,
              "velocity": 103,
              "position": 1,
              "duration": 0.23541666666666666
            },
            {
              "pitch": 79,
              "velocity": 31,
              "position": 1.0104166666666667,
              "duration": 0.25625
            },
            {
              "pitch": 51,
              "velocity": 35,
              "position": 1,
              "duration": 0.26875
            },
            {
              "pitch": 46,
              "velocity": 42,
              "position": 1,
              "duration": 0.27708333333333335
            },
            {
              "pitch": 107,
              "velocity": 123,
              "position": 1.2708333333333333,
              "duration": 0.20416666666666666
            },
            {
              "pitch": 84,
              "velocity": 45,
              "position": 1.2708333333333333,
              "duration": 0.2375
            },
            {
              "pitch": 79,
              "velocity": 40,
              "position": 1.28125,
              "duration": 0.23541666666666666
            },
            {
              "pitch": 51,
              "velocity": 51,
              "position": 1.28125,
              "duration": 0.2375
            },
            {
              "pitch": 46,
              "velocity": 43,
              "position": 1.2916666666666667,
              "duration": 0.23541666666666666
            },
            {
              "pitch": 108,
              "velocity": 118,
              "position": 1.5,
              "duration": 0.23541666666666666
            },
            {
              "pitch": 105,
              "velocity": 75,
              "position": 1.7708333333333333,
              "duration": 0.23541666666666666
            },
            {
              "pitch": 106,
              "velocity": 125,
              "position": 2,
              "duration": 0.23541666666666666
            },
            {
              "pitch": 51,
              "velocity": 56,
              "position": 2,
              "duration": 0.25833333333333336
            },
            {
              "pitch": 45,
              "velocity": 56,
              "position": 2,
              "duration": 0.26666666666666666
            },
            {
              "pitch": 45,
              "velocity": 23,
              "position": 2.28125,
              "duration": 0.20416666666666666
            },
            {
              "pitch": 51,
              "velocity": 25,
              "position": 2.2708333333333335,
              "duration": 0.21666666666666667
            },
            {
              "pitch": 77,
              "velocity": 49,
              "position": 2.0104166666666665,
              "duration": 0.48541666666666666
            },
            {
              "pitch": 107,
              "velocity": 80,
              "position": 2.2708333333333335,
              "duration": 0.23541666666666666
            },
            {
              "pitch": 108,
              "velocity": 97,
              "position": 2.5,
              "duration": 0.23541666666666666
            },
            {
              "pitch": 84,
              "velocity": 41,
              "position": 2.0104166666666665,
              "duration": 0.7479166666666667
            },
            {
              "pitch": 77,
              "velocity": 34,
              "position": 2.5104166666666665,
              "duration": 0.25625
            },
            {
              "pitch": 51,
              "velocity": 50,
              "position": 2.5,
              "duration": 0.26875
            },
            {
              "pitch": 45,
              "velocity": 41,
              "position": 2.5,
              "duration": 0.27708333333333335
            },
            {
              "pitch": 84,
              "velocity": 41,
              "position": 2.7708333333333335,
              "duration": 0.20416666666666666
            },
            {
              "pitch": 105,
              "velocity": 127,
              "position": 2.7708333333333335,
              "duration": 0.20416666666666666
            },
            {
              "pitch": 51,
              "velocity": 51,
              "position": 2.78125,
              "duration": 0.20416666666666666
            },
            {
              "pitch": 77,
              "velocity": 47,
              "position": 2.78125,
              "duration": 0.20416666666666666
            },
            {
              "pitch": 45,
              "velocity": 51,
              "position": 2.7916666666666665,
              "duration": 0.20416666666666666
            },
            {
              "pitch": 106,
              "velocity": 96,
              "position": 3,
              "duration": 0.23541666666666666
            },
            {
              "pitch": 107,
              "velocity": 120,
              "position": 3.2708333333333335,
              "duration": 0.20416666666666666
            },
            {
              "pitch": 108,
              "velocity": 115,
              "position": 3.5,
              "duration": 0.23541666666666666
            },
            {
              "pitch": 84,
              "velocity": 56,
              "position": 3.5104166666666665,
              "duration": 0.24791666666666667
            },
            {
              "pitch": 77,
              "velocity": 45,
              "position": 3.5104166666666665,
              "duration": 0.25625
            },
            {
              "pitch": 51,
              "velocity": 44,
              "position": 3.5,
              "duration": 0.26875
            },
            {
              "pitch": 45,
              "velocity": 45,
              "position": 3.5,
              "duration": 0.48541666666666666
            },
            {
              "pitch": 105,
              "velocity": 79,
              "position": 3.7708333333333335,
              "duration": 0.23541666666666666
            },
            {
              "pitch": 84,
              "velocity": 34,
              "position": 3.7708333333333335,
              "duration": 0.2375
            },
            {
              "pitch": 77,
              "velocity": 36,
              "position": 3.78125,
              "duration": 0.23541666666666666
            },
            {
              "pitch": 51,
              "velocity": 45,
              "position": 3.78125,
              "duration": 0.2375
            },
            {
              "pitch": 106,
              "velocity": 122,
              "position": 4,
              "duration": 0.23541666666666666
            },
            {
              "pitch": 107,
              "velocity": 76,
              "position": 4.270833333333333,
              "duration": 0.23541666666666666
            },
            {
              "pitch": 44,
              "velocity": 40,
              "position": 4.5,
              "duration": 0.23541666666666666
            },
            {
              "pitch": 108,
              "velocity": 124,
              "position": 4.5,
              "duration": 0.23541666666666666
            },
            {
              "pitch": 48,
              "velocity": 48,
              "position": 4.5,
              "duration": 0.2375
            },
            {
              "pitch": 80,
              "velocity": 45,
              "position": 4.510416666666667,
              "duration": 0.23541666666666666
            },
            {
              "pitch": 87,
              "velocity": 48,
              "position": 4.510416666666667,
              "duration": 0.2375
            },
            {
              "pitch": 105,
              "velocity": 89,
              "position": 4.770833333333333,
              "duration": 0.23541666666666666
            },
            {
              "pitch": 106,
              "velocity": 90,
              "position": 5,
              "duration": 0.23541666666666666
            },
            {
              "pitch": 80,
              "velocity": 38,
              "position": 5.010416666666667,
              "duration": 0.25625
            },
            {
              "pitch": 48,
              "velocity": 36,
              "position": 5,
              "duration": 0.26875
            },
            {
              "pitch": 44,
              "velocity": 29,
              "position": 5,
              "duration": 0.27708333333333335
            },
            {
              "pitch": 107,
              "velocity": 127,
              "position": 5.270833333333333,
              "duration": 0.20416666666666666
            },
            {
              "pitch": 87,
              "velocity": 56,
              "position": 5.270833333333333,
              "duration": 0.2375
            },
            {
              "pitch": 80,
              "velocity": 51,
              "position": 5.28125,
              "duration": 0.23541666666666666
            },
            {
              "pitch": 48,
              "velocity": 40,
              "position": 5.28125,
              "duration": 0.2375
            },
            {
              "pitch": 44,
              "velocity": 48,
              "position": 5.291666666666667,
              "duration": 0.23541666666666666
            },
            {
              "pitch": 108,
              "velocity": 122,
              "position": 5.5,
              "duration": 0.23541666666666666
            },
            {
              "pitch": 105,
              "velocity": 74,
              "position": 5.770833333333333,
              "duration": 0.23541666666666666
            },
            {
              "pitch": 106,
              "velocity": 117,
              "position": 6,
              "duration": 0.23541666666666666
            },
            {
              "pitch": 51,
              "velocity": 44,
              "position": 6,
              "duration": 0.25833333333333336
            },
            {
              "pitch": 46,
              "velocity": 44,
              "position": 6,
              "duration": 0.26666666666666666
            },
            {
              "pitch": 46,
              "velocity": 32,
              "position": 6.28125,
              "duration": 0.20416666666666666
            },
            {
              "pitch": 51,
              "velocity": 26,
              "position": 6.270833333333333,
              "duration": 0.21666666666666667
            },
            {
              "pitch": 79,
              "velocity": 58,
              "position": 6.010416666666667,
              "duration": 0.48541666666666666
            },
            {
              "pitch": 107,
              "velocity": 74,
              "position": 6.270833333333333,
              "duration": 0.23541666666666666
            },
            {
              "pitch": 108,
              "velocity": 99,
              "position": 6.5,
              "duration": 0.23541666666666666
            },
            {
              "pitch": 84,
              "velocity": 46,
              "position": 6.010416666666667,
              "duration": 0.7479166666666667
            },
            {
              "pitch": 79,
              "velocity": 37,
              "position": 6.510416666666667,
              "duration": 0.25625
            },
            {
              "pitch": 51,
              "velocity": 43,
              "position": 6.5,
              "duration": 0.26875
            },
            {
              "pitch": 46,
              "velocity": 45,
              "position": 6.5,
              "duration": 0.27708333333333335
            },
            {
              "pitch": 84,
              "velocity": 54,
              "position": 6.770833333333333,
              "duration": 0.20416666666666666
            },
            {
              "pitch": 105,
              "velocity": 124,
              "position": 6.770833333333333,
              "duration": 0.20416666666666666
            },
            {
              "pitch": 51,
              "velocity": 50,
              "position": 6.78125,
              "duration": 0.20416666666666666
            },
            {
              "pitch": 79,
              "velocity": 41,
              "position": 6.78125,
              "duration": 0.20416666666666666
            },
            {
              "pitch": 46,
              "velocity": 56,
              "position": 6.791666666666667,
              "duration": 0.20416666666666666
            },
            {
              "pitch": 106,
              "velocity": 100,
              "position": 7,
              "duration": 0.23541666666666666
            },
            {
              "pitch": 107,
              "velocity": 127,
              "position": 7.270833333333333,
              "duration": 0.20416666666666666
            },
            {
              "pitch": 108,
              "velocity": 114,
              "position": 7.5,
              "duration": 0.23541666666666666
            },
            {
              "pitch": 86,
              "velocity": 58,
              "position": 7.510416666666667,
              "duration": 0.24791666666666667
            },
            {
              "pitch": 79,
              "velocity": 57,
              "position": 7.510416666666667,
              "duration": 0.25625
            },
            {
              "pitch": 46,
              "velocity": 56,
              "position": 7.5,
              "duration": 0.26875
            },
            {
              "pitch": 41,
              "velocity": 50,
              "position": 7.5,
              "duration": 0.48541666666666666
            },
            {
              "pitch": 105,
              "velocity": 74,
              "position": 7.770833333333333,
              "duration": 0.23541666666666666
            },
            {
              "pitch": 86,
              "velocity": 32,
              "position": 7.770833333333333,
              "duration": 0.2375
            },
            {
              "pitch": 79,
              "velocity": 38,
              "position": 7.78125,
              "duration": 0.23541666666666666
            },
            {
              "pitch": 46,
              "velocity": 47,
              "position": 7.78125,
              "duration": 0.2375
            },
            {
              "pitch": 106,
              "velocity": 120,
              "position": 8,
              "duration": 0.23541666666666666
            },
            {
              "pitch": 107,
              "velocity": 88,
              "position": 8.270833333333334,
              "duration": 0.23541666666666666
            },
            {
              "pitch": 46,
              "velocity": 44,
              "position": 8.5,
              "duration": 0.23541666666666666
            },
            {
              "pitch": 108,
              "velocity": 123,
              "position": 8.5,
              "duration": 0.23541666666666666
            },
            {
              "pitch": 51,
              "velocity": 57,
              "position": 8.5,
              "duration": 0.2375
            },
            {
              "pitch": 79,
              "velocity": 48,
              "position": 8.510416666666666,
              "duration": 0.23541666666666666
            },
            {
              "pitch": 84,
              "velocity": 51,
              "position": 8.510416666666666,
              "duration": 0.2375
            },
            {
              "pitch": 105,
              "velocity": 78,
              "position": 8.770833333333334,
              "duration": 0.23541666666666666
            },
            {
              "pitch": 106,
              "velocity": 96,
              "position": 9,
              "duration": 0.23541666666666666
            },
            {
              "pitch": 79,
              "velocity": 40,
              "position": 9.010416666666666,
              "duration": 0.25625
            },
            {
              "pitch": 51,
              "velocity": 33,
              "position": 9,
              "duration": 0.26875
            },
            {
              "pitch": 46,
              "velocity": 26,
              "position": 9,
              "duration": 0.27708333333333335
            },
            {
              "pitch": 107,
              "velocity": 119,
              "position": 9.270833333333334,
              "duration": 0.20416666666666666
            },
            {
              "pitch": 84,
              "velocity": 43,
              "position": 9.270833333333334,
              "duration": 0.2375
            },
            {
              "pitch": 79,
              "velocity": 46,
              "position": 9.28125,
              "duration": 0.23541666666666666
            },
            {
              "pitch": 51,
              "velocity": 49,
              "position": 9.28125,
              "duration": 0.2375
            },
            {
              "pitch": 46,
              "velocity": 47,
              "position": 9.291666666666666,
              "duration": 0.23541666666666666
            },
            {
              "pitch": 108,
              "velocity": 127,
              "position": 9.5,
              "duration": 0.23541666666666666
            },
            {
              "pitch": 105,
              "velocity": 87,
              "position": 9.770833333333334,
              "duration": 0.23541666666666666
            },
            {
              "pitch": 106,
              "velocity": 125,
              "position": 10,
              "duration": 0.23541666666666666
            },
            {
              "pitch": 51,
              "velocity": 53,
              "position": 10,
              "duration": 0.25833333333333336
            },
            {
              "pitch": 45,
              "velocity": 50,
              "position": 10,
              "duration": 0.26666666666666666
            },
            {
              "pitch": 45,
              "velocity": 31,
              "position": 10.28125,
              "duration": 0.20416666666666666
            },
            {
              "pitch": 51,
              "velocity": 26,
              "position": 10.270833333333334,
              "duration": 0.21666666666666667
            },
            {
              "pitch": 77,
              "velocity": 41,
              "position": 10.010416666666666,
              "duration": 0.48541666666666666
            },
            {
              "pitch": 107,
              "velocity": 76,
              "position": 10.270833333333334,
              "duration": 0.23541666666666666
            },
            {
              "pitch": 108,
              "velocity": 89,
              "position": 10.5,
              "duration": 0.23541666666666666
            },
            {
              "pitch": 84,
              "velocity": 49,
              "position": 10.010416666666666,
              "duration": 0.7479166666666667
            },
            {
              "pitch": 77,
              "velocity": 36,
              "position": 10.510416666666666,
              "duration": 0.25625
            },
            {
              "pitch": 51,
              "velocity": 41,
              "position": 10.5,
              "duration": 0.26875
            },
            {
              "pitch": 45,
              "velocity": 38,
              "position": 10.5,
              "duration": 0.27708333333333335
            },
            {
              "pitch": 84,
              "velocity": 40,
              "position": 10.770833333333334,
              "duration": 0.20416666666666666
            },
            {
              "pitch": 105,
              "velocity": 127,
              "position": 10.770833333333334,
              "duration": 0.20416666666666666
            },
            {
              "pitch": 51,
              "velocity": 53,
              "position": 10.78125,
              "duration": 0.20416666666666666
            },
            {
              "pitch": 77,
              "velocity": 40,
              "position": 10.78125,
              "duration": 0.20416666666666666
            },
            {
              "pitch": 45,
              "velocity": 52,
              "position": 10.791666666666666,
              "duration": 0.20416666666666666
            },
            {
              "pitch": 106,
              "velocity": 98,
              "position": 11,
              "duration": 0.23541666666666666
            },
            {
              "pitch": 107,
              "velocity": 114,
              "position": 11.270833333333334,
              "duration": 0.20416666666666666
            },
            {
              "pitch": 108,
              "velocity": 116,
              "position": 11.5,
              "duration": 0.23541666666666666
            },
            {
              "pitch": 84,
              "velocity": 42,
              "position": 11.510416666666666,
              "duration": 0.24791666666666667
            },
            {
              "pitch": 77,
              "velocity": 40,
              "position": 11.510416666666666,
              "duration": 0.25625
            },
            {
              "pitch": 51,
              "velocity": 47,
              "position": 11.5,
              "duration": 0.26875
            },
            {
              "pitch": 45,
              "velocity": 40,
              "position": 11.5,
              "duration": 0.48541666666666666
            },
            {
              "pitch": 105,
              "velocity": 78,
              "position": 11.770833333333334,
              "duration": 0.23541666666666666
            },
            {
              "pitch": 84,
              "velocity": 40,
              "position": 11.770833333333334,
              "duration": 0.2375
            },
            {
              "pitch": 77,
              "velocity": 33,
              "position": 11.78125,
              "duration": 0.23541666666666666
            },
            {
              "pitch": 51,
              "velocity": 45,
              "position": 11.78125,
              "duration": 0.2375
            },
            {
              "pitch": 106,
              "velocity": 126,
              "position": 12,
              "duration": 0.23541666666666666
            },
            {
              "pitch": 107,
              "velocity": 83,
              "position": 12.270833333333334,
              "duration": 0.23541666666666666
            },
            {
              "pitch": 41,
              "velocity": 56,
              "position": 12.5,
              "duration": 0.23541666666666666
            },
            {
              "pitch": 108,
              "velocity": 123,
              "position": 12.5,
              "duration": 0.23541666666666666
            },
            {
              "pitch": 48,
              "velocity": 52,
              "position": 12.5,
              "duration": 0.2375
            },
            {
              "pitch": 79,
              "velocity": 46,
              "position": 12.510416666666666,
              "duration": 0.23541666666666666
            },
            {
              "pitch": 86,
              "velocity": 57,
              "position": 12.510416666666666,
              "duration": 0.2375
            },
            {
              "pitch": 105,
              "velocity": 72,
              "position": 12.770833333333334,
              "duration": 0.23541666666666666
            },
            {
              "pitch": 106,
              "velocity": 97,
              "position": 13,
              "duration": 0.23541666666666666
            },
            {
              "pitch": 79,
              "velocity": 28,
              "position": 13.010416666666666,
              "duration": 0.25625
            },
            {
              "pitch": 48,
              "velocity": 37,
              "position": 13,
              "duration": 0.26875
            },
            {
              "pitch": 41,
              "velocity": 35,
              "position": 13,
              "duration": 0.27708333333333335
            },
            {
              "pitch": 107,
              "velocity": 118,
              "position": 13.270833333333334,
              "duration": 0.20416666666666666
            },
            {
              "pitch": 86,
              "velocity": 42,
              "position": 13.270833333333334,
              "duration": 0.2375
            },
            {
              "pitch": 79,
              "velocity": 42,
              "position": 13.28125,
              "duration": 0.23541666666666666
            },
            {
              "pitch": 48,
              "velocity": 42,
              "position": 13.28125,
              "duration": 0.2375
            },
            {
              "pitch": 41,
              "velocity": 50,
              "position": 13.291666666666666,
              "duration": 0.23541666666666666
            },
            {
              "pitch": 108,
              "velocity": 116,
              "position": 13.5,
              "duration": 0.23541666666666666
            },
            {
              "pitch": 105,
              "velocity": 74,
              "position": 13.770833333333334,
              "duration": 0.23541666666666666
            },
            {
              "pitch": 106,
              "velocity": 124,
              "position": 14,
              "duration": 0.23541666666666666
            },
            {
              "pitch": 47,
              "velocity": 49,
              "position": 14,
              "duration": 1.98125
            },
            {
              "pitch": 86,
              "velocity": 48,
              "position": 14.010416666666666,
              "duration": 1.9708333333333334
            },
            {
              "pitch": 41,
              "velocity": 55,
              "position": 14,
              "duration": 1.9854166666666666
            },
            {
              "pitch": 79,
              "velocity": 53,
              "position": 14.010416666666666,
              "duration": 1.975
            }
          ]
        },
        "3": {
          "ctab": {
            "srcChannel": 3,
            "name": "Piano",
            "accType": "CHORD2",
            "editable": false,
            "mutedNotes": [],
            "mutedChords": [
              "1+2+5",
              "sus4",
              "1+5",
              "1+8",
              "7aug",
              "Maj7aug",
              "7(#9)",
              "7(b13)",
              "7(b9)",
              "7(13)",
              "7#11",
              "7(9)",
              "7b5",
              "7sus4",
              "7th",
              "aug",
              "Maj6(9)",
              "Maj7(9)",
              "Maj(9)",
              "Maj7#11",
              "Maj7",
              "Maj6",
              "Maj"
            ],
            "autoStart": false,
            "sourceChordNote": 0,
            "sourceChordType": "min",
            "ctb2Low": null,
            "ctb2Main": {
              "ntr": "ROOT_TRANSPOSITION",
              "ntt": "BYPASS",
              "bassOn": false,
              "chordRootUpperLimit": 11,
              "noteLowLimit": 0,
              "noteHighLimit": 69,
              "rtr": "PITCH_SHIFT"
            },
            "ctb2High": null
          },
          "notes": [
            {
              "pitch": 24,
              "velocity": 98,
              "position": 0.010416666666666666,
              "duration": 0.21458333333333332
            },
            {
              "pitch": 36,
              "velocity": 98,
              "position": 0.010416666666666666,
              "duration": 0.21458333333333332
            },
            {
              "pitch": 70,
              "velocity": 110,
              "position": 0.010416666666666666,
              "duration": 0.6
            },
            {
              "pitch": 72,
              "velocity": 110,
              "position": 0.010416666666666666,
              "duration": 0.6
            },
            {
              "pitch": 75,
              "velocity": 119,
              "position": 0.010416666666666666,
              "duration": 0.6
            },
            {
              "pitch": 67,
              "velocity": 112,
              "position": 0.010416666666666666,
              "duration": 0.6104166666666667
            },
            {
              "pitch": 24,
              "velocity": 98,
              "position": 0.5,
              "duration": 0.6104166666666667
            },
            {
              "pitch": 36,
              "velocity": 98,
              "position": 0.5,
              "duration": 0.6104166666666667
            },
            {
              "pitch": 70,
              "velocity": 110,
              "position": 1,
              "duration": 0.6
            },
            {
              "pitch": 72,
              "velocity": 110,
              "position": 1,
              "duration": 0.6
            },
            {
              "pitch": 67,
              "velocity": 112,
              "position": 0.9916666666666667,
              "duration": 0.6125
            },
            {
              "pitch": 75,
              "velocity": 119,
              "position": 1.0041666666666667,
              "duration": 0.6
            },
            {
              "pitch": 72,
              "velocity": 112,
              "position": 1.7625,
              "duration": 0.17291666666666666
            },
            {
              "pitch": 75,
              "velocity": 121,
              "position": 1.7708333333333333,
              "duration": 0.19583333333333333
            },
            {
              "pitch": 65,
              "velocity": 110,
              "position": 1.7625,
              "duration": 0.23958333333333334
            },
            {
              "pitch": 69,
              "velocity": 110,
              "position": 1.7625,
              "duration": 0.23958333333333334
            },
            {
              "pitch": 29,
              "velocity": 98,
              "position": 2,
              "duration": 0.21458333333333332
            },
            {
              "pitch": 41,
              "velocity": 98,
              "position": 2,
              "duration": 0.21458333333333332
            },
            {
              "pitch": 65,
              "velocity": 97,
              "position": 2.2645833333333334,
              "duration": 0.12916666666666668
            },
            {
              "pitch": 69,
              "velocity": 97,
              "position": 2.2645833333333334,
              "duration": 0.12916666666666668
            },
            {
              "pitch": 75,
              "velocity": 95,
              "position": 2.275,
              "duration": 0.12083333333333333
            },
            {
              "pitch": 72,
              "velocity": 93,
              "position": 2.2729166666666667,
              "duration": 0.14166666666666666
            },
            {
              "pitch": 29,
              "velocity": 98,
              "position": 2.5,
              "duration": 0.6104166666666667
            },
            {
              "pitch": 41,
              "velocity": 98,
              "position": 2.5,
              "duration": 0.6104166666666667
            },
            {
              "pitch": 65,
              "velocity": 116,
              "position": 2.9895833333333335,
              "duration": 0.8708333333333333
            },
            {
              "pitch": 69,
              "velocity": 116,
              "position": 2.9895833333333335,
              "duration": 0.8708333333333333
            },
            {
              "pitch": 75,
              "velocity": 121,
              "position": 2.99375,
              "duration": 0.9104166666666667
            },
            {
              "pitch": 72,
              "velocity": 105,
              "position": 3.004166666666667,
              "duration": 0.9416666666666667
            },
            {
              "pitch": 22,
              "velocity": 98,
              "position": 4,
              "duration": 0.21458333333333332
            },
            {
              "pitch": 34,
              "velocity": 98,
              "position": 4,
              "duration": 0.21458333333333332
            },
            {
              "pitch": 75,
              "velocity": 116,
              "position": 4,
              "duration": 0.59375
            },
            {
              "pitch": 68,
              "velocity": 121,
              "position": 4,
              "duration": 0.6208333333333333
            },
            {
              "pitch": 72,
              "velocity": 121,
              "position": 4,
              "duration": 0.6208333333333333
            },
            {
              "pitch": 70,
              "velocity": 122,
              "position": 4,
              "duration": 0.6229166666666667
            },
            {
              "pitch": 22,
              "velocity": 98,
              "position": 4.5,
              "duration": 0.6104166666666667
            },
            {
              "pitch": 34,
              "velocity": 98,
              "position": 4.5,
              "duration": 0.6104166666666667
            },
            {
              "pitch": 75,
              "velocity": 116,
              "position": 4.991666666666666,
              "duration": 0.59375
            },
            {
              "pitch": 68,
              "velocity": 121,
              "position": 5,
              "duration": 0.6208333333333333
            },
            {
              "pitch": 70,
              "velocity": 122,
              "position": 5,
              "duration": 0.6208333333333333
            },
            {
              "pitch": 72,
              "velocity": 121,
              "position": 5,
              "duration": 0.6208333333333333
            },
            {
              "pitch": 75,
              "velocity": 122,
              "position": 5.764583333333333,
              "duration": 0.17083333333333334
            },
            {
              "pitch": 67,
              "velocity": 112,
              "position": 5.772916666666666,
              "duration": 0.17708333333333334
            },
            {
              "pitch": 70,
              "velocity": 112,
              "position": 5.772916666666666,
              "duration": 0.17708333333333334
            },
            {
              "pitch": 72,
              "velocity": 123,
              "position": 5.772916666666666,
              "duration": 0.19166666666666668
            },
            {
              "pitch": 24,
              "velocity": 98,
              "position": 6,
              "duration": 0.21458333333333332
            },
            {
              "pitch": 36,
              "velocity": 98,
              "position": 6,
              "duration": 0.21458333333333332
            },
            {
              "pitch": 75,
              "velocity": 94,
              "position": 6.270833333333333,
              "duration": 0.13125
            },
            {
              "pitch": 67,
              "velocity": 92,
              "position": 6.264583333333333,
              "duration": 0.14375
            },
            {
              "pitch": 70,
              "velocity": 87,
              "position": 6.272916666666666,
              "duration": 0.14166666666666666
            },
            {
              "pitch": 72,
              "velocity": 87,
              "position": 6.272916666666666,
              "duration": 0.14166666666666666
            },
            {
              "pitch": 24,
              "velocity": 98,
              "position": 6.5,
              "duration": 0.36041666666666666
            },
            {
              "pitch": 36,
              "velocity": 98,
              "position": 6.5,
              "duration": 0.36041666666666666
            },
            {
              "pitch": 75,
              "velocity": 94,
              "position": 7.020833333333333,
              "duration": 0.13125
            },
            {
              "pitch": 67,
              "velocity": 92,
              "position": 7.014583333333333,
              "duration": 0.14375
            },
            {
              "pitch": 70,
              "velocity": 87,
              "position": 7.022916666666666,
              "duration": 0.14166666666666666
            },
            {
              "pitch": 72,
              "velocity": 87,
              "position": 7.022916666666666,
              "duration": 0.14166666666666666
            },
            {
              "pitch": 19,
              "velocity": 98,
              "position": 7.270833333333333,
              "duration": 0.6104166666666667
            },
            {
              "pitch": 31,
              "velocity": 98,
              "position": 7.270833333333333,
              "duration": 0.6104166666666667
            },
            {
              "pitch": 65,
              "velocity": 112,
              "position": 7.252083333333333,
              "duration": 0.6458333333333334
            },
            {
              "pitch": 70,
              "velocity": 112,
              "position": 7.252083333333333,
              "duration": 0.6458333333333334
            },
            {
              "pitch": 74,
              "velocity": 122,
              "position": 7.252083333333333,
              "duration": 0.6666666666666666
            },
            {
              "pitch": 24,
              "velocity": 98,
              "position": 8,
              "duration": 0.21458333333333332
            },
            {
              "pitch": 36,
              "velocity": 98,
              "position": 8,
              "duration": 0.21458333333333332
            },
            {
              "pitch": 70,
              "velocity": 110,
              "position": 8,
              "duration": 0.6
            },
            {
              "pitch": 72,
              "velocity": 110,
              "position": 8,
              "duration": 0.6
            },
            {
              "pitch": 67,
              "velocity": 112,
              "position": 8,
              "duration": 0.6104166666666667
            },
            {
              "pitch": 75,
              "velocity": 119,
              "position": 8.010416666666666,
              "duration": 0.6
            },
            {
              "pitch": 24,
              "velocity": 98,
              "position": 8.5,
              "duration": 0.6104166666666667
            },
            {
              "pitch": 36,
              "velocity": 98,
              "position": 8.5,
              "duration": 0.6104166666666667
            },
            {
              "pitch": 70,
              "velocity": 110,
              "position": 9,
              "duration": 0.6
            },
            {
              "pitch": 72,
              "velocity": 110,
              "position": 9,
              "duration": 0.6
            },
            {
              "pitch": 67,
              "velocity": 112,
              "position": 8.991666666666667,
              "duration": 0.6125
            },
            {
              "pitch": 75,
              "velocity": 119,
              "position": 9.004166666666666,
              "duration": 0.6
            },
            {
              "pitch": 72,
              "velocity": 112,
              "position": 9.7625,
              "duration": 0.17291666666666666
            },
            {
              "pitch": 75,
              "velocity": 121,
              "position": 9.770833333333334,
              "duration": 0.19583333333333333
            },
            {
              "pitch": 65,
              "velocity": 110,
              "position": 9.7625,
              "duration": 0.23958333333333334
            },
            {
              "pitch": 69,
              "velocity": 110,
              "position": 9.7625,
              "duration": 0.23958333333333334
            },
            {
              "pitch": 29,
              "velocity": 98,
              "position": 10,
              "duration": 0.21458333333333332
            },
            {
              "pitch": 41,
              "velocity": 98,
              "position": 10,
              "duration": 0.21458333333333332
            },
            {
              "pitch": 65,
              "velocity": 97,
              "position": 10.264583333333333,
              "duration": 0.12916666666666668
            },
            {
              "pitch": 69,
              "velocity": 97,
              "position": 10.264583333333333,
              "duration": 0.12916666666666668
            },
            {
              "pitch": 75,
              "velocity": 95,
              "position": 10.275,
              "duration": 0.12083333333333333
            },
            {
              "pitch": 72,
              "velocity": 93,
              "position": 10.272916666666667,
              "duration": 0.14166666666666666
            },
            {
              "pitch": 29,
              "velocity": 98,
              "position": 10.5,
              "duration": 0.6104166666666667
            },
            {
              "pitch": 41,
              "velocity": 98,
              "position": 10.5,
              "duration": 0.6104166666666667
            },
            {
              "pitch": 65,
              "velocity": 116,
              "position": 10.989583333333334,
              "duration": 0.8708333333333333
            },
            {
              "pitch": 69,
              "velocity": 116,
              "position": 10.989583333333334,
              "duration": 0.8708333333333333
            },
            {
              "pitch": 75,
              "velocity": 121,
              "position": 10.99375,
              "duration": 0.9104166666666667
            },
            {
              "pitch": 72,
              "velocity": 105,
              "position": 11.004166666666666,
              "duration": 0.9416666666666667
            },
            {
              "pitch": 19,
              "velocity": 98,
              "position": 12,
              "duration": 0.21458333333333332
            },
            {
              "pitch": 31,
              "velocity": 98,
              "position": 12,
              "duration": 0.21458333333333332
            },
            {
              "pitch": 74,
              "velocity": 94,
              "position": 12.510416666666666,
              "duration": 0.12708333333333333
            },
            {
              "pitch": 65,
              "velocity": 92,
              "position": 12.5,
              "duration": 0.14166666666666666
            },
            {
              "pitch": 67,
              "velocity": 92,
              "position": 12.5,
              "duration": 0.14166666666666666
            },
            {
              "pitch": 72,
              "velocity": 92,
              "position": 12.5,
              "duration": 0.14166666666666666
            },
            {
              "pitch": 19,
              "velocity": 98,
              "position": 12.5,
              "duration": 0.36041666666666666
            },
            {
              "pitch": 31,
              "velocity": 98,
              "position": 12.5,
              "duration": 0.36041666666666666
            },
            {
              "pitch": 65,
              "velocity": 112,
              "position": 13.2625,
              "duration": 0.17291666666666666
            },
            {
              "pitch": 67,
              "velocity": 112,
              "position": 13.2625,
              "duration": 0.17291666666666666
            },
            {
              "pitch": 72,
              "velocity": 112,
              "position": 13.2625,
              "duration": 0.17291666666666666
            },
            {
              "pitch": 74,
              "velocity": 121,
              "position": 13.270833333333334,
              "duration": 0.19583333333333333
            },
            {
              "pitch": 19,
              "velocity": 98,
              "position": 13.25,
              "duration": 0.36041666666666666
            },
            {
              "pitch": 31,
              "velocity": 98,
              "position": 13.25,
              "duration": 0.36041666666666666
            },
            {
              "pitch": 65,
              "velocity": 122,
              "position": 14.002083333333333,
              "duration": 1.9791666666666667
            },
            {
              "pitch": 67,
              "velocity": 122,
              "position": 14.002083333333333,
              "duration": 1.9791666666666667
            },
            {
              "pitch": 71,
              "velocity": 122,
              "position": 14.002083333333333,
              "duration": 1.9791666666666667
            },
            {
              "pitch": 74,
              "velocity": 122,
              "position": 14.004166666666666,
              "duration": 1.9770833333333333
            },
            {
              "pitch": 19,
              "velocity": 98,
              "position": 14,
              "duration": 1.9854166666666666
            },
            {
              "pitch": 31,
              "velocity": 98,
              "position": 14,
              "duration": 1.9854166666666666
            }
          ]
        },
        "4": {
          "ctab": {
            "srcChannel": 4,
            "name": "Organ",
            "accType": "PAD",
            "editable": false,
            "mutedNotes": [],
            "mutedChords": [
              "1+2+5",
              "sus4",
              "1+5",
              "1+8",
              "7aug",
              "Maj7aug",
              "7(#9)",
              "7(b13)",
              "7(b9)",
              "7(13)",
              "7#11",
              "7(9)",
              "7b5",
              "7sus4",
              "7th",
              "aug",
              "Maj6(9)",
              "Maj7(9)",
              "Maj(9)",
              "Maj7#11",
              "Maj7",
              "Maj6",
              "Maj"
            ],
            "autoStart": false,
            "sourceChordNote": 0,
            "sourceChordType": "min",
            "ctb2Low": null,
            "ctb2Main": {
              "ntr": "ROOT_TRANSPOSITION",
              "ntt": "BYPASS",
              "bassOn": false,
              "chordRootUpperLimit": 0,
              "noteLowLimit": 0,
              "noteHighLimit": 79,
              "rtr": "PITCH_SHIFT"
            },
            "ctb2High": null
          },
          "notes": [
            {
              "pitch": 47,
              "velocity": 79,
              "position": 0.4583333333333333,
              "duration": 0.12083333333333333
            },
            {
              "pitch": 48,
              "velocity": 76,
              "position": 0.45416666666666666,
              "duration": 0.1875
            },
            {
              "pitch": 50,
              "velocity": 58,
              "position": 0.4708333333333333,
              "duration": 0.22708333333333333
            },
            {
              "pitch": 52,
              "velocity": 42,
              "position": 0.49583333333333335,
              "duration": 0.24583333333333332
            },
            {
              "pitch": 53,
              "velocity": 47,
              "position": 0.5208333333333334,
              "duration": 0.26666666666666666
            },
            {
              "pitch": 55,
              "velocity": 52,
              "position": 0.6145833333333334,
              "duration": 0.21666666666666667
            },
            {
              "pitch": 57,
              "velocity": 58,
              "position": 0.6895833333333333,
              "duration": 0.18125
            },
            {
              "pitch": 59,
              "velocity": 58,
              "position": 0.7291666666666666,
              "duration": 0.16875
            },
            {
              "pitch": 60,
              "velocity": 62,
              "position": 0.8020833333333334,
              "duration": 0.13541666666666666
            },
            {
              "pitch": 62,
              "velocity": 63,
              "position": 0.8395833333333333,
              "duration": 0.14166666666666666
            },
            {
              "pitch": 67,
              "velocity": 68,
              "position": 0.9375,
              "duration": 0.11041666666666666
            },
            {
              "pitch": 64,
              "velocity": 64,
              "position": 0.8666666666666667,
              "duration": 0.2125
            },
            {
              "pitch": 65,
              "velocity": 66,
              "position": 0.90625,
              "duration": 0.175
            },
            {
              "pitch": 78,
              "velocity": 72,
              "position": 1.0041666666666667,
              "duration": 0.2520833333333333
            },
            {
              "pitch": 75,
              "velocity": 71,
              "position": 1,
              "duration": 1.31875
            },
            {
              "pitch": 79,
              "velocity": 91,
              "position": 1.2291666666666667,
              "duration": 1.35625
            },
            {
              "pitch": 84,
              "velocity": 71,
              "position": 1.0020833333333334,
              "duration": 1.6625
            },
            {
              "pitch": 79,
              "velocity": 89,
              "position": 2.6625,
              "duration": 0.05625
            },
            {
              "pitch": 77,
              "velocity": 68,
              "position": 2.7020833333333334,
              "duration": 0.04583333333333333
            },
            {
              "pitch": 76,
              "velocity": 50,
              "position": 2.75,
              "duration": 0.027083333333333334
            },
            {
              "pitch": 74,
              "velocity": 50,
              "position": 2.8041666666666667,
              "duration": 0.04791666666666667
            },
            {
              "pitch": 65,
              "velocity": 89,
              "position": 2.91875,
              "duration": 0.03958333333333333
            },
            {
              "pitch": 77,
              "velocity": 79,
              "position": 3.025,
              "duration": 0.13125
            },
            {
              "pitch": 78,
              "velocity": 122,
              "position": 3.0208333333333335,
              "duration": 0.17291666666666666
            },
            {
              "pitch": 84,
              "velocity": 93,
              "position": 3.03125,
              "duration": 0.28958333333333336
            },
            {
              "pitch": 79,
              "velocity": 79,
              "position": 3.1875,
              "duration": 0.17916666666666667
            },
            {
              "pitch": 78,
              "velocity": 114,
              "position": 3.53125,
              "duration": 0.09166666666666666
            },
            {
              "pitch": 77,
              "velocity": 57,
              "position": 3.5208333333333335,
              "duration": 0.12708333333333333
            },
            {
              "pitch": 84,
              "velocity": 86,
              "position": 3.5208333333333335,
              "duration": 0.33125
            },
            {
              "pitch": 79,
              "velocity": 89,
              "position": 3.6083333333333334,
              "duration": 0.2791666666666667
            },
            {
              "pitch": 78,
              "velocity": 102,
              "position": 4.058333333333334,
              "duration": 0.1
            },
            {
              "pitch": 77,
              "velocity": 86,
              "position": 4.020833333333333,
              "duration": 0.20625
            },
            {
              "pitch": 79,
              "velocity": 89,
              "position": 4.15,
              "duration": 0.20416666666666666
            },
            {
              "pitch": 84,
              "velocity": 93,
              "position": 4.041666666666667,
              "duration": 0.3229166666666667
            },
            {
              "pitch": 78,
              "velocity": 68,
              "position": 4.533333333333333,
              "duration": 0.09791666666666667
            },
            {
              "pitch": 77,
              "velocity": 50,
              "position": 4.514583333333333,
              "duration": 0.3104166666666667
            },
            {
              "pitch": 84,
              "velocity": 84,
              "position": 4.525,
              "duration": 0.32083333333333336
            },
            {
              "pitch": 75,
              "velocity": 86,
              "position": 4.822916666666667,
              "duration": 0.08125
            },
            {
              "pitch": 84,
              "velocity": 96,
              "position": 5.020833333333333,
              "duration": 0.15833333333333333
            },
            {
              "pitch": 77,
              "velocity": 105,
              "position": 5.020833333333333,
              "duration": 0.20833333333333334
            },
            {
              "pitch": 72,
              "velocity": 81,
              "position": 5.270833333333333,
              "duration": 0.14166666666666666
            },
            {
              "pitch": 75,
              "velocity": 111,
              "position": 5.520833333333333,
              "duration": 0.20625
            },
            {
              "pitch": 77,
              "velocity": 96,
              "position": 5.770833333333333,
              "duration": 0.13541666666666666
            },
            {
              "pitch": 75,
              "velocity": 84,
              "position": 6.020833333333333,
              "duration": 0.15625
            },
            {
              "pitch": 77,
              "velocity": 84,
              "position": 6.145833333333333,
              "duration": 0.1625
            },
            {
              "pitch": 75,
              "velocity": 96,
              "position": 6.270833333333333,
              "duration": 0.8854166666666666
            },
            {
              "pitch": 70,
              "velocity": 68,
              "position": 7.270833333333333,
              "duration": 0.13125
            },
            {
              "pitch": 71,
              "velocity": 102,
              "position": 7.5,
              "duration": 0.125
            },
            {
              "pitch": 72,
              "velocity": 76,
              "position": 7.59375,
              "duration": 0.30833333333333335
            },
            {
              "pitch": 75,
              "velocity": 105,
              "position": 7.770833333333333,
              "duration": 0.25625
            },
            {
              "pitch": 77,
              "velocity": 105,
              "position": 8.020833333333334,
              "duration": 0.225
            },
            {
              "pitch": 75,
              "velocity": 89,
              "position": 8.270833333333334,
              "duration": 0.225
            },
            {
              "pitch": 77,
              "velocity": 96,
              "position": 8.520833333333334,
              "duration": 0.225
            },
            {
              "pitch": 79,
              "velocity": 93,
              "position": 8.770833333333334,
              "duration": 0.225
            },
            {
              "pitch": 77,
              "velocity": 70,
              "position": 9.020833333333334,
              "duration": 0.225
            },
            {
              "pitch": 79,
              "velocity": 96,
              "position": 9.270833333333334,
              "duration": 0.225
            },
            {
              "pitch": 82,
              "velocity": 104,
              "position": 9.520833333333334,
              "duration": 0.225
            },
            {
              "pitch": 79,
              "velocity": 93,
              "position": 9.770833333333334,
              "duration": 0.225
            },
            {
              "pitch": 82,
              "velocity": 98,
              "position": 10.020833333333334,
              "duration": 0.225
            },
            {
              "pitch": 82,
              "velocity": 94,
              "position": 10.270833333333334,
              "duration": 0.08958333333333333
            },
            {
              "pitch": 84,
              "velocity": 82,
              "position": 10.304166666666667,
              "duration": 0.24583333333333332
            },
            {
              "pitch": 82,
              "velocity": 92,
              "position": 10.5,
              "duration": 0.24583333333333332
            },
            {
              "pitch": 84,
              "velocity": 82,
              "position": 10.75,
              "duration": 0.24583333333333332
            },
            {
              "pitch": 87,
              "velocity": 107,
              "position": 11.020833333333334,
              "duration": 0.20625
            },
            {
              "pitch": 84,
              "velocity": 80,
              "position": 11.270833333333334,
              "duration": 0.12083333333333333
            },
            {
              "pitch": 82,
              "velocity": 92,
              "position": 11.522916666666667,
              "duration": 0.125
            },
            {
              "pitch": 83,
              "velocity": 98,
              "position": 11.572916666666666,
              "duration": 0.08541666666666667
            },
            {
              "pitch": 84,
              "velocity": 73,
              "position": 11.6875,
              "duration": 0.058333333333333334
            },
            {
              "pitch": 89,
              "velocity": 88,
              "position": 11.541666666666666,
              "duration": 0.3229166666666667
            },
            {
              "pitch": 82,
              "velocity": 80,
              "position": 11.80625,
              "duration": 0.12291666666666666
            },
            {
              "pitch": 87,
              "velocity": 96,
              "position": 12.041666666666666,
              "duration": 0.12083333333333333
            },
            {
              "pitch": 86,
              "velocity": 87,
              "position": 12.166666666666666,
              "duration": 0.12083333333333333
            },
            {
              "pitch": 84,
              "velocity": 80,
              "position": 12.291666666666666,
              "duration": 0.12083333333333333
            },
            {
              "pitch": 79,
              "velocity": 81,
              "position": 12.416666666666666,
              "duration": 0.09166666666666666
            },
            {
              "pitch": 84,
              "velocity": 94,
              "position": 12.541666666666666,
              "duration": 0.14166666666666666
            },
            {
              "pitch": 86,
              "velocity": 66,
              "position": 12.666666666666666,
              "duration": 0.1625
            },
            {
              "pitch": 84,
              "velocity": 74,
              "position": 12.791666666666666,
              "duration": 1.1208333333333333
            },
            {
              "pitch": 81,
              "velocity": 74,
              "position": 14,
              "duration": 0.12083333333333333
            },
            {
              "pitch": 91,
              "velocity": 70,
              "position": 12.541666666666666,
              "duration": 2.44375
            },
            {
              "pitch": 83,
              "velocity": 74,
              "position": 14.041666666666666,
              "duration": 0.9958333333333333
            },
            {
              "pitch": 83,
              "velocity": 93,
              "position": 15.083333333333334,
              "duration": 0.08333333333333333
            },
            {
              "pitch": 81,
              "velocity": 45,
              "position": 15.114583333333334,
              "duration": 0.08541666666666667
            },
            {
              "pitch": 79,
              "velocity": 55,
              "position": 15.160416666666666,
              "duration": 0.08125
            },
            {
              "pitch": 77,
              "velocity": 58,
              "position": 15.235416666666667,
              "duration": 0.03333333333333333
            },
            {
              "pitch": 76,
              "velocity": 68,
              "position": 15.285416666666666,
              "duration": 0.04791666666666667
            },
            {
              "pitch": 74,
              "velocity": 49,
              "position": 15.34375,
              "duration": 0.04791666666666667
            },
            {
              "pitch": 72,
              "velocity": 61,
              "position": 15.377083333333333,
              "duration": 0.04791666666666667
            },
            {
              "pitch": 71,
              "velocity": 61,
              "position": 15.416666666666666,
              "duration": 0.04791666666666667
            },
            {
              "pitch": 69,
              "velocity": 52,
              "position": 15.458333333333334,
              "duration": 0.04375
            },
            {
              "pitch": 67,
              "velocity": 74,
              "position": 15.49375,
              "duration": 0.0375
            },
            {
              "pitch": 65,
              "velocity": 64,
              "position": 15.541666666666666,
              "duration": 0.027083333333333334
            },
            {
              "pitch": 64,
              "velocity": 76,
              "position": 15.579166666666667,
              "duration": 0.04791666666666667
            },
            {
              "pitch": 62,
              "velocity": 68,
              "position": 15.635416666666666,
              "duration": 0.04375
            },
            {
              "pitch": 60,
              "velocity": 64,
              "position": 15.6875,
              "duration": 0.0375
            },
            {
              "pitch": 59,
              "velocity": 74,
              "position": 15.745833333333334,
              "duration": 0.041666666666666664
            },
            {
              "pitch": 57,
              "velocity": 68,
              "position": 15.791666666666666,
              "duration": 0.05
            },
            {
              "pitch": 55,
              "velocity": 64,
              "position": 15.833333333333334,
              "duration": 0.04791666666666667
            }
          ]
        },
        "5": {
          "ctab": {
            "srcChannel": 5,
            "name": "Tele",
            "accType": "PHRASE1",
            "editable": false,
            "mutedNotes": [],
            "mutedChords": [
              "1+2+5",
              "sus4",
              "1+5",
              "1+8",
              "7aug",
              "Maj7aug",
              "7(#9)",
              "7(b13)",
              "7(b9)",
              "7(13)",
              "7#11",
              "7(9)",
              "7b5",
              "7sus4",
              "7th",
              "aug",
              "Maj6(9)",
              "Maj7(9)",
              "Maj(9)",
              "Maj7#11",
              "Maj7",
              "Maj6",
              "Maj"
            ],
            "autoStart": false,
            "sourceChordNote": 0,
            "sourceChordType": "min",
            "ctb2Low": null,
            "ctb2Main": {
              "ntr": "ROOT_TRANSPOSITION",
              "ntt": "BYPASS",
              "bassOn": false,
              "chordRootUpperLimit": 8,
              "noteLowLimit": 51,
              "noteHighLimit": 69,
              "rtr": "PITCH_SHIFT"
            },
            "ctb2High": null
          },
          "notes": [
            {
              "pitch": 34,
              "velocity": 60,
              "position": 0.5,
              "duration": 0.23541666666666666
            },
            {
              "pitch": 106,
              "velocity": 127,
              "position": 0.5,
              "duration": 0.23541666666666666
            },
            {
              "pitch": 39,
              "velocity": 59,
              "position": 0.5,
              "duration": 0.2375
            },
            {
              "pitch": 79,
              "velocity": 60,
              "position": 0.5104166666666666,
              "duration": 0.23541666666666666
            },
            {
              "pitch": 84,
              "velocity": 56,
              "position": 0.5104166666666666,
              "duration": 0.2375
            },
            {
              "pitch": 107,
              "velocity": 82,
              "position": 0.7708333333333334,
              "duration": 0.23541666666666666
            },
            {
              "pitch": 108,
              "velocity": 121,
              "position": 1,
              "duration": 0.23541666666666666
            },
            {
              "pitch": 105,
              "velocity": 81,
              "position": 1.2708333333333333,
              "duration": 0.23541666666666666
            },
            {
              "pitch": 84,
              "velocity": 56,
              "position": 1.2729166666666667,
              "duration": 0.2375
            },
            {
              "pitch": 79,
              "velocity": 51,
              "position": 1.28125,
              "duration": 0.23541666666666666
            },
            {
              "pitch": 39,
              "velocity": 60,
              "position": 1.2854166666666667,
              "duration": 0.2375
            },
            {
              "pitch": 34,
              "velocity": 54,
              "position": 1.2916666666666667,
              "duration": 0.2375
            },
            {
              "pitch": 106,
              "velocity": 103,
              "position": 1.5,
              "duration": 0.23541666666666666
            },
            {
              "pitch": 107,
              "velocity": 123,
              "position": 1.7708333333333333,
              "duration": 0.20416666666666666
            },
            {
              "pitch": 33,
              "velocity": 60,
              "position": 2,
              "duration": 0.23541666666666666
            },
            {
              "pitch": 108,
              "velocity": 118,
              "position": 2,
              "duration": 0.23541666666666666
            },
            {
              "pitch": 39,
              "velocity": 60,
              "position": 2,
              "duration": 0.2375
            },
            {
              "pitch": 77,
              "velocity": 60,
              "position": 2.0104166666666665,
              "duration": 0.23541666666666666
            },
            {
              "pitch": 84,
              "velocity": 52,
              "position": 2.0104166666666665,
              "duration": 0.2375
            },
            {
              "pitch": 105,
              "velocity": 75,
              "position": 2.2708333333333335,
              "duration": 0.23541666666666666
            },
            {
              "pitch": 106,
              "velocity": 125,
              "position": 2.5,
              "duration": 0.23541666666666666
            },
            {
              "pitch": 107,
              "velocity": 80,
              "position": 2.7708333333333335,
              "duration": 0.23541666666666666
            },
            {
              "pitch": 84,
              "velocity": 52,
              "position": 2.7729166666666667,
              "duration": 0.2375
            },
            {
              "pitch": 77,
              "velocity": 58,
              "position": 2.78125,
              "duration": 0.23541666666666666
            },
            {
              "pitch": 39,
              "velocity": 60,
              "position": 2.785416666666667,
              "duration": 0.2375
            },
            {
              "pitch": 33,
              "velocity": 60,
              "position": 2.7916666666666665,
              "duration": 0.2375
            },
            {
              "pitch": 108,
              "velocity": 97,
              "position": 3,
              "duration": 0.23541666666666666
            },
            {
              "pitch": 105,
              "velocity": 127,
              "position": 3.2708333333333335,
              "duration": 0.20416666666666666
            },
            {
              "pitch": 33,
              "velocity": 51,
              "position": 3.285416666666667,
              "duration": 0.2
            },
            {
              "pitch": 39,
              "velocity": 42,
              "position": 3.28125,
              "duration": 0.20833333333333334
            },
            {
              "pitch": 77,
              "velocity": 40,
              "position": 3.2729166666666667,
              "duration": 0.21875
            },
            {
              "pitch": 106,
              "velocity": 96,
              "position": 3.5,
              "duration": 0.23541666666666666
            },
            {
              "pitch": 84,
              "velocity": 60,
              "position": 3.5104166666666665,
              "duration": 0.24791666666666667
            },
            {
              "pitch": 77,
              "velocity": 56,
              "position": 3.5104166666666665,
              "duration": 0.25625
            },
            {
              "pitch": 39,
              "velocity": 55,
              "position": 3.5,
              "duration": 0.26875
            },
            {
              "pitch": 107,
              "velocity": 120,
              "position": 3.7708333333333335,
              "duration": 0.20416666666666666
            },
            {
              "pitch": 33,
              "velocity": 56,
              "position": 3.5,
              "duration": 0.48541666666666666
            },
            {
              "pitch": 84,
              "velocity": 40,
              "position": 3.7729166666666667,
              "duration": 0.2375
            },
            {
              "pitch": 77,
              "velocity": 42,
              "position": 3.78125,
              "duration": 0.23541666666666666
            },
            {
              "pitch": 39,
              "velocity": 51,
              "position": 3.785416666666667,
              "duration": 0.2375
            },
            {
              "pitch": 108,
              "velocity": 115,
              "position": 4,
              "duration": 0.23541666666666666
            },
            {
              "pitch": 105,
              "velocity": 79,
              "position": 4.270833333333333,
              "duration": 0.23541666666666666
            },
            {
              "pitch": 32,
              "velocity": 51,
              "position": 4.5,
              "duration": 0.23541666666666666
            },
            {
              "pitch": 106,
              "velocity": 122,
              "position": 4.5,
              "duration": 0.23541666666666666
            },
            {
              "pitch": 36,
              "velocity": 59,
              "position": 4.5,
              "duration": 0.2375
            },
            {
              "pitch": 75,
              "velocity": 56,
              "position": 4.510416666666667,
              "duration": 0.23541666666666666
            },
            {
              "pitch": 82,
              "velocity": 59,
              "position": 4.510416666666667,
              "duration": 0.2375
            },
            {
              "pitch": 107,
              "velocity": 76,
              "position": 4.770833333333333,
              "duration": 0.23541666666666666
            },
            {
              "pitch": 108,
              "velocity": 124,
              "position": 5,
              "duration": 0.23541666666666666
            },
            {
              "pitch": 105,
              "velocity": 89,
              "position": 5.270833333333333,
              "duration": 0.23541666666666666
            },
            {
              "pitch": 82,
              "velocity": 60,
              "position": 5.272916666666666,
              "duration": 0.2375
            },
            {
              "pitch": 75,
              "velocity": 60,
              "position": 5.28125,
              "duration": 0.23541666666666666
            },
            {
              "pitch": 36,
              "velocity": 51,
              "position": 5.285416666666666,
              "duration": 0.2375
            },
            {
              "pitch": 32,
              "velocity": 59,
              "position": 5.291666666666667,
              "duration": 0.2375
            },
            {
              "pitch": 106,
              "velocity": 90,
              "position": 5.5,
              "duration": 0.23541666666666666
            },
            {
              "pitch": 107,
              "velocity": 127,
              "position": 5.770833333333333,
              "duration": 0.20416666666666666
            },
            {
              "pitch": 34,
              "velocity": 55,
              "position": 6,
              "duration": 0.23541666666666666
            },
            {
              "pitch": 108,
              "velocity": 122,
              "position": 6,
              "duration": 0.23541666666666666
            },
            {
              "pitch": 39,
              "velocity": 55,
              "position": 6,
              "duration": 0.2375
            },
            {
              "pitch": 79,
              "velocity": 60,
              "position": 6.010416666666667,
              "duration": 0.23541666666666666
            },
            {
              "pitch": 84,
              "velocity": 57,
              "position": 6.010416666666667,
              "duration": 0.2375
            },
            {
              "pitch": 105,
              "velocity": 74,
              "position": 6.270833333333333,
              "duration": 0.23541666666666666
            },
            {
              "pitch": 106,
              "velocity": 117,
              "position": 6.5,
              "duration": 0.23541666666666666
            },
            {
              "pitch": 107,
              "velocity": 74,
              "position": 6.770833333333333,
              "duration": 0.23541666666666666
            },
            {
              "pitch": 84,
              "velocity": 60,
              "position": 6.772916666666666,
              "duration": 0.2375
            },
            {
              "pitch": 79,
              "velocity": 52,
              "position": 6.78125,
              "duration": 0.23541666666666666
            },
            {
              "pitch": 39,
              "velocity": 60,
              "position": 6.785416666666666,
              "duration": 0.2375
            },
            {
              "pitch": 34,
              "velocity": 60,
              "position": 6.791666666666667,
              "duration": 0.2375
            },
            {
              "pitch": 108,
              "velocity": 99,
              "position": 7,
              "duration": 0.23541666666666666
            },
            {
              "pitch": 105,
              "velocity": 124,
              "position": 7.270833333333333,
              "duration": 0.20416666666666666
            },
            {
              "pitch": 34,
              "velocity": 53,
              "position": 7.285416666666666,
              "duration": 0.2
            },
            {
              "pitch": 41,
              "velocity": 44,
              "position": 7.28125,
              "duration": 0.20833333333333334
            },
            {
              "pitch": 79,
              "velocity": 38,
              "position": 7.272916666666666,
              "duration": 0.21875
            },
            {
              "pitch": 106,
              "velocity": 100,
              "position": 7.5,
              "duration": 0.23541666666666666
            },
            {
              "pitch": 86,
              "velocity": 60,
              "position": 7.510416666666667,
              "duration": 0.24791666666666667
            },
            {
              "pitch": 79,
              "velocity": 60,
              "position": 7.510416666666667,
              "duration": 0.25625
            },
            {
              "pitch": 41,
              "velocity": 60,
              "position": 7.5,
              "duration": 0.26875
            },
            {
              "pitch": 107,
              "velocity": 127,
              "position": 7.770833333333333,
              "duration": 0.20416666666666666
            },
            {
              "pitch": 34,
              "velocity": 60,
              "position": 7.5,
              "duration": 0.48541666666666666
            },
            {
              "pitch": 86,
              "velocity": 38,
              "position": 7.772916666666666,
              "duration": 0.2375
            },
            {
              "pitch": 79,
              "velocity": 44,
              "position": 7.78125,
              "duration": 0.23541666666666666
            },
            {
              "pitch": 41,
              "velocity": 53,
              "position": 7.785416666666666,
              "duration": 0.2375
            },
            {
              "pitch": 108,
              "velocity": 114,
              "position": 8,
              "duration": 0.23541666666666666
            },
            {
              "pitch": 105,
              "velocity": 74,
              "position": 8.270833333333334,
              "duration": 0.23541666666666666
            },
            {
              "pitch": 34,
              "velocity": 60,
              "position": 8.5,
              "duration": 0.23541666666666666
            },
            {
              "pitch": 106,
              "velocity": 120,
              "position": 8.5,
              "duration": 0.23541666666666666
            },
            {
              "pitch": 39,
              "velocity": 59,
              "position": 8.5,
              "duration": 0.2375
            },
            {
              "pitch": 79,
              "velocity": 60,
              "position": 8.510416666666666,
              "duration": 0.23541666666666666
            },
            {
              "pitch": 84,
              "velocity": 56,
              "position": 8.510416666666666,
              "duration": 0.2375
            },
            {
              "pitch": 107,
              "velocity": 88,
              "position": 8.770833333333334,
              "duration": 0.23541666666666666
            },
            {
              "pitch": 108,
              "velocity": 123,
              "position": 9,
              "duration": 0.23541666666666666
            },
            {
              "pitch": 105,
              "velocity": 78,
              "position": 9.270833333333334,
              "duration": 0.23541666666666666
            },
            {
              "pitch": 84,
              "velocity": 56,
              "position": 9.272916666666667,
              "duration": 0.2375
            },
            {
              "pitch": 79,
              "velocity": 51,
              "position": 9.28125,
              "duration": 0.23541666666666666
            },
            {
              "pitch": 39,
              "velocity": 60,
              "position": 9.285416666666666,
              "duration": 0.2375
            },
            {
              "pitch": 34,
              "velocity": 54,
              "position": 9.291666666666666,
              "duration": 0.2375
            },
            {
              "pitch": 106,
              "velocity": 96,
              "position": 9.5,
              "duration": 0.23541666666666666
            },
            {
              "pitch": 107,
              "velocity": 119,
              "position": 9.770833333333334,
              "duration": 0.20416666666666666
            },
            {
              "pitch": 33,
              "velocity": 60,
              "position": 10,
              "duration": 0.23541666666666666
            },
            {
              "pitch": 108,
              "velocity": 127,
              "position": 10,
              "duration": 0.23541666666666666
            },
            {
              "pitch": 39,
              "velocity": 60,
              "position": 10,
              "duration": 0.2375
            },
            {
              "pitch": 77,
              "velocity": 60,
              "position": 10.010416666666666,
              "duration": 0.23541666666666666
            },
            {
              "pitch": 84,
              "velocity": 52,
              "position": 10.010416666666666,
              "duration": 0.2375
            },
            {
              "pitch": 105,
              "velocity": 87,
              "position": 10.270833333333334,
              "duration": 0.23541666666666666
            },
            {
              "pitch": 106,
              "velocity": 125,
              "position": 10.5,
              "duration": 0.23541666666666666
            },
            {
              "pitch": 107,
              "velocity": 76,
              "position": 10.770833333333334,
              "duration": 0.23541666666666666
            },
            {
              "pitch": 84,
              "velocity": 52,
              "position": 10.772916666666667,
              "duration": 0.2375
            },
            {
              "pitch": 77,
              "velocity": 58,
              "position": 10.78125,
              "duration": 0.23541666666666666
            },
            {
              "pitch": 39,
              "velocity": 60,
              "position": 10.785416666666666,
              "duration": 0.2375
            },
            {
              "pitch": 33,
              "velocity": 60,
              "position": 10.791666666666666,
              "duration": 0.2375
            },
            {
              "pitch": 108,
              "velocity": 89,
              "position": 11,
              "duration": 0.23541666666666666
            },
            {
              "pitch": 105,
              "velocity": 127,
              "position": 11.270833333333334,
              "duration": 0.20416666666666666
            },
            {
              "pitch": 33,
              "velocity": 51,
              "position": 11.285416666666666,
              "duration": 0.2
            },
            {
              "pitch": 39,
              "velocity": 42,
              "position": 11.28125,
              "duration": 0.20833333333333334
            },
            {
              "pitch": 77,
              "velocity": 40,
              "position": 11.272916666666667,
              "duration": 0.21875
            },
            {
              "pitch": 106,
              "velocity": 98,
              "position": 11.5,
              "duration": 0.23541666666666666
            },
            {
              "pitch": 84,
              "velocity": 60,
              "position": 11.510416666666666,
              "duration": 0.24791666666666667
            },
            {
              "pitch": 77,
              "velocity": 56,
              "position": 11.510416666666666,
              "duration": 0.25625
            },
            {
              "pitch": 39,
              "velocity": 55,
              "position": 11.5,
              "duration": 0.26875
            },
            {
              "pitch": 107,
              "velocity": 114,
              "position": 11.770833333333334,
              "duration": 0.20416666666666666
            },
            {
              "pitch": 33,
              "velocity": 56,
              "position": 11.5,
              "duration": 0.48541666666666666
            },
            {
              "pitch": 84,
              "velocity": 40,
              "position": 11.772916666666667,
              "duration": 0.2375
            },
            {
              "pitch": 77,
              "velocity": 42,
              "position": 11.78125,
              "duration": 0.23541666666666666
            },
            {
              "pitch": 39,
              "velocity": 51,
              "position": 11.785416666666666,
              "duration": 0.2375
            },
            {
              "pitch": 108,
              "velocity": 116,
              "position": 12,
              "duration": 0.23541666666666666
            },
            {
              "pitch": 105,
              "velocity": 78,
              "position": 12.270833333333334,
              "duration": 0.23541666666666666
            },
            {
              "pitch": 36,
              "velocity": 51,
              "position": 12.5,
              "duration": 0.23541666666666666
            },
            {
              "pitch": 106,
              "velocity": 126,
              "position": 12.5,
              "duration": 0.23541666666666666
            },
            {
              "pitch": 41,
              "velocity": 59,
              "position": 12.5,
              "duration": 0.2375
            },
            {
              "pitch": 79,
              "velocity": 56,
              "position": 12.510416666666666,
              "duration": 0.23541666666666666
            },
            {
              "pitch": 86,
              "velocity": 59,
              "position": 12.510416666666666,
              "duration": 0.2375
            },
            {
              "pitch": 107,
              "velocity": 83,
              "position": 12.770833333333334,
              "duration": 0.23541666666666666
            },
            {
              "pitch": 108,
              "velocity": 123,
              "position": 13,
              "duration": 0.23541666666666666
            },
            {
              "pitch": 105,
              "velocity": 72,
              "position": 13.270833333333334,
              "duration": 0.23541666666666666
            },
            {
              "pitch": 86,
              "velocity": 60,
              "position": 13.272916666666667,
              "duration": 0.2375
            },
            {
              "pitch": 79,
              "velocity": 60,
              "position": 13.28125,
              "duration": 0.23541666666666666
            },
            {
              "pitch": 41,
              "velocity": 51,
              "position": 13.285416666666666,
              "duration": 0.2375
            },
            {
              "pitch": 36,
              "velocity": 59,
              "position": 13.291666666666666,
              "duration": 0.2375
            },
            {
              "pitch": 106,
              "velocity": 97,
              "position": 13.5,
              "duration": 0.23541666666666666
            },
            {
              "pitch": 107,
              "velocity": 118,
              "position": 13.770833333333334,
              "duration": 0.20416666666666666
            },
            {
              "pitch": 108,
              "velocity": 116,
              "position": 14,
              "duration": 0.23541666666666666
            },
            {
              "pitch": 41,
              "velocity": 60,
              "position": 14,
              "duration": 1.98125
            },
            {
              "pitch": 86,
              "velocity": 59,
              "position": 14.010416666666666,
              "duration": 1.9708333333333334
            },
            {
              "pitch": 35,
              "velocity": 60,
              "position": 14,
              "duration": 1.9854166666666666
            },
            {
              "pitch": 79,
              "velocity": 60,
              "position": 14.010416666666666,
              "duration": 1.975
            }
          ]
        },
        "8": {
          "ctab": {
            "srcChannel": 8,
            "name": "AddDrum",
            "accType": "SUBRHYTHM",
            "editable": false,
            "mutedNotes": [],
            "mutedChords": [],
            "autoStart": true,
            "sourceChordNote": 0,
            "sourceChordType": "Maj7",
            "ctb2Low": null,
            "ctb2Main": {
              "ntr": "ROOT_FIXED",
              "ntt": "BYPASS",
              "bassOn": false,
              "chordRootUpperLimit": 6,
              "noteLowLimit": 0,
              "noteHighLimit": 127,
              "rtr": "PITCH_SHIFT"
            },
            "ctb2High": null
          },
          "notes": [
            {
              "pitch": 42,
              "velocity": 120,
              "position": 0,
              "duration": 0.00625
            },
            {
              "pitch": 32,
              "velocity": 34,
              "position": 0.2708333333333333,
              "duration": 0.00625
            },
            {
              "pitch": 46,
              "velocity": 60,
              "position": 0.5,
              "duration": 0.00625
            },
            {
              "pitch": 32,
              "velocity": 104,
              "position": 1,
              "duration": 0.00625
            },
            {
              "pitch": 42,
              "velocity": 120,
              "position": 1,
              "duration": 0.00625
            },
            {
              "pitch": 46,
              "velocity": 40,
              "position": 1.5,
              "duration": 0.00625
            },
            {
              "pitch": 32,
              "velocity": 24,
              "position": 1.7708333333333333,
              "duration": 0.00625
            },
            {
              "pitch": 26,
              "velocity": 50,
              "position": 0,
              "duration": 1.9854166666666666
            },
            {
              "pitch": 42,
              "velocity": 120,
              "position": 2,
              "duration": 0.00625
            },
            {
              "pitch": 32,
              "velocity": 24,
              "position": 2.2708333333333335,
              "duration": 0.00625
            },
            {
              "pitch": 46,
              "velocity": 40,
              "position": 2.5,
              "duration": 0.00625
            },
            {
              "pitch": 32,
              "velocity": 104,
              "position": 3,
              "duration": 0.00625
            },
            {
              "pitch": 42,
              "velocity": 120,
              "position": 3,
              "duration": 0.00625
            },
            {
              "pitch": 46,
              "velocity": 60,
              "position": 3.5,
              "duration": 0.00625
            },
            {
              "pitch": 32,
              "velocity": 34,
              "position": 3.7708333333333335,
              "duration": 0.00625
            },
            {
              "pitch": 26,
              "velocity": 50,
              "position": 2,
              "duration": 1.9854166666666666
            },
            {
              "pitch": 42,
              "velocity": 120,
              "position": 4,
              "duration": 0.00625
            },
            {
              "pitch": 32,
              "velocity": 34,
              "position": 4.270833333333333,
              "duration": 0.00625
            },
            {
              "pitch": 46,
              "velocity": 60,
              "position": 4.5,
              "duration": 0.00625
            },
            {
              "pitch": 32,
              "velocity": 104,
              "position": 5,
              "duration": 0.00625
            },
            {
              "pitch": 42,
              "velocity": 120,
              "position": 5,
              "duration": 0.00625
            },
            {
              "pitch": 46,
              "velocity": 40,
              "position": 5.5,
              "duration": 0.00625
            },
            {
              "pitch": 32,
              "velocity": 24,
              "position": 5.770833333333333,
              "duration": 0.00625
            },
            {
              "pitch": 26,
              "velocity": 50,
              "position": 4,
              "duration": 1.9854166666666666
            },
            {
              "pitch": 42,
              "velocity": 120,
              "position": 6,
              "duration": 0.00625
            },
            {
              "pitch": 32,
              "velocity": 24,
              "position": 6.270833333333333,
              "duration": 0.00625
            },
            {
              "pitch": 46,
              "velocity": 40,
              "position": 6.5,
              "duration": 0.00625
            },
            {
              "pitch": 32,
              "velocity": 104,
              "position": 7,
              "duration": 0.00625
            },
            {
              "pitch": 42,
              "velocity": 120,
              "position": 7,
              "duration": 0.00625
            },
            {
              "pitch": 46,
              "velocity": 60,
              "position": 7.5,
              "duration": 0.00625
            },
            {
              "pitch": 32,
              "velocity": 34,
              "position": 7.770833333333333,
              "duration": 0.00625
            },
            {
              "pitch": 26,
              "velocity": 50,
              "position": 6,
              "duration": 1.9854166666666666
            },
            {
              "pitch": 42,
              "velocity": 120,
              "position": 8,
              "duration": 0.00625
            },
            {
              "pitch": 32,
              "velocity": 34,
              "position": 8.270833333333334,
              "duration": 0.00625
            },
            {
              "pitch": 46,
              "velocity": 60,
              "position": 8.5,
              "duration": 0.00625
            },
            {
              "pitch": 32,
              "velocity": 104,
              "position": 9,
              "duration": 0.00625
            },
            {
              "pitch": 42,
              "velocity": 120,
              "position": 9,
              "duration": 0.00625
            },
            {
              "pitch": 46,
              "velocity": 40,
              "position": 9.5,
              "duration": 0.00625
            },
            {
              "pitch": 32,
              "velocity": 24,
              "position": 9.770833333333334,
              "duration": 0.00625
            },
            {
              "pitch": 26,
              "velocity": 50,
              "position": 8,
              "duration": 1.9854166666666666
            },
            {
              "pitch": 42,
              "velocity": 120,
              "position": 10,
              "duration": 0.00625
            },
            {
              "pitch": 32,
              "velocity": 24,
              "position": 10.270833333333334,
              "duration": 0.00625
            },
            {
              "pitch": 46,
              "velocity": 40,
              "position": 10.5,
              "duration": 0.00625
            },
            {
              "pitch": 32,
              "velocity": 104,
              "position": 11,
              "duration": 0.00625
            },
            {
              "pitch": 42,
              "velocity": 120,
              "position": 11,
              "duration": 0.00625
            },
            {
              "pitch": 46,
              "velocity": 60,
              "position": 11.5,
              "duration": 0.00625
            },
            {
              "pitch": 32,
              "velocity": 34,
              "position": 11.770833333333334,
              "duration": 0.00625
            },
            {
              "pitch": 26,
              "velocity": 50,
              "position": 10,
              "duration": 1.9854166666666666
            },
            {
              "pitch": 42,
              "velocity": 120,
              "position": 12,
              "duration": 0.00625
            },
            {
              "pitch": 32,
              "velocity": 34,
              "position": 12.270833333333334,
              "duration": 0.00625
            },
            {
              "pitch": 46,
              "velocity": 60,
              "position": 12.5,
              "duration": 0.00625
            },
            {
              "pitch": 32,
              "velocity": 104,
              "position": 13,
              "duration": 0.00625
            },
            {
              "pitch": 42,
              "velocity": 120,
              "position": 13,
              "duration": 0.00625
            },
            {
              "pitch": 46,
              "velocity": 40,
              "position": 13.5,
              "duration": 0.00625
            },
            {
              "pitch": 32,
              "velocity": 24,
              "position": 13.770833333333334,
              "duration": 0.00625
            },
            {
              "pitch": 26,
              "velocity": 50,
              "position": 12,
              "duration": 1.9854166666666666
            },
            {
              "pitch": 42,
              "velocity": 120,
              "position": 14,
              "duration": 0.00625
            },
            {
              "pitch": 32,
              "velocity": 24,
              "position": 14.270833333333334,
              "duration": 0.00625
            },
            {
              "pitch": 46,
              "velocity": 40,
              "position": 14.5,
              "duration": 0.00625
            },
            {
              "pitch": 32,
              "velocity": 104,
              "position": 15,
              "duration": 0.00625
            },
            {
              "pitch": 42,
              "velocity": 120,
              "position": 15,
              "duration": 0.00625
            },
            {
              "pitch": 18,
              "velocity": 81,
              "position": 14.666666666666666,
              "duration": 0.4875
            },
            {
              "pitch": 17,
              "velocity": 127,
              "position": 15,
              "duration": 0.48541666666666666
            },
            {
              "pitch": 46,
              "velocity": 60,
              "position": 15.5,
              "duration": 0.00625
            },
            {
              "pitch": 18,
              "velocity": 81,
              "position": 15.166666666666666,
              "duration": 0.4875
            },
            {
              "pitch": 32,
              "velocity": 34,
              "position": 15.770833333333334,
              "duration": 0.00625
            },
            {
              "pitch": 17,
              "velocity": 127,
              "position": 15.5,
              "duration": 0.48541666666666666
            },
            {
              "pitch": 26,
              "velocity": 50,
              "position": 14,
              "duration": 1.9854166666666666
            }
          ]
        },
        "9": {
          "ctab": {
            "srcChannel": 9,
            "name": "MainDrum",
            "accType": "RHYTHM",
            "editable": false,
            "mutedNotes": [],
            "mutedChords": [],
            "autoStart": true,
            "sourceChordNote": 0,
            "sourceChordType": "Maj7",
            "ctb2Low": null,
            "ctb2Main": {
              "ntr": "ROOT_FIXED",
              "ntt": "BYPASS",
              "bassOn": false,
              "chordRootUpperLimit": 6,
              "noteLowLimit": 0,
              "noteHighLimit": 127,
              "rtr": "PITCH_SHIFT"
            },
            "ctb2High": null
          },
          "notes": [
            {
              "pitch": 35,
              "velocity": 100,
              "position": 0,
              "duration": 0.00625
            },
            {
              "pitch": 53,
              "velocity": 102,
              "position": 0,
              "duration": 0.00625
            },
            {
              "pitch": 54,
              "velocity": 38,
              "position": 0.0020833333333333333,
              "duration": 0.00625
            },
            {
              "pitch": 54,
              "velocity": 48,
              "position": 0.2708333333333333,
              "duration": 0.00625
            },
            {
              "pitch": 38,
              "velocity": 16,
              "position": 0.27291666666666664,
              "duration": 0.00625
            },
            {
              "pitch": 35,
              "velocity": 100,
              "position": 0.5,
              "duration": 0.00625
            },
            {
              "pitch": 44,
              "velocity": 60,
              "position": 0.5,
              "duration": 0.00625
            },
            {
              "pitch": 53,
              "velocity": 70,
              "position": 0.5,
              "duration": 0.00625
            },
            {
              "pitch": 54,
              "velocity": 49,
              "position": 0.5041666666666667,
              "duration": 0.00625
            },
            {
              "pitch": 54,
              "velocity": 26,
              "position": 0.7645833333333333,
              "duration": 0.00625
            },
            {
              "pitch": 38,
              "velocity": 13,
              "position": 0.775,
              "duration": 0.00625
            },
            {
              "pitch": 38,
              "velocity": 110,
              "position": 1,
              "duration": 0.00625
            },
            {
              "pitch": 53,
              "velocity": 102,
              "position": 1,
              "duration": 0.00625
            },
            {
              "pitch": 54,
              "velocity": 91,
              "position": 1,
              "duration": 0.00625
            },
            {
              "pitch": 38,
              "velocity": 26,
              "position": 1.2604166666666667,
              "duration": 0.00625
            },
            {
              "pitch": 54,
              "velocity": 22,
              "position": 1.2708333333333333,
              "duration": 0.00625
            },
            {
              "pitch": 54,
              "velocity": 46,
              "position": 1.4916666666666667,
              "duration": 0.00625
            },
            {
              "pitch": 35,
              "velocity": 60,
              "position": 1.5,
              "duration": 0.00625
            },
            {
              "pitch": 44,
              "velocity": 60,
              "position": 1.5,
              "duration": 0.00625
            },
            {
              "pitch": 53,
              "velocity": 70,
              "position": 1.5,
              "duration": 0.00625
            },
            {
              "pitch": 38,
              "velocity": 72,
              "position": 1.7708333333333333,
              "duration": 0.00625
            },
            {
              "pitch": 54,
              "velocity": 37,
              "position": 1.7708333333333333,
              "duration": 0.00625
            },
            {
              "pitch": 38,
              "velocity": 29,
              "position": 1.8770833333333334,
              "duration": 0.00625
            },
            {
              "pitch": 35,
              "velocity": 100,
              "position": 2,
              "duration": 0.00625
            },
            {
              "pitch": 53,
              "velocity": 102,
              "position": 2,
              "duration": 0.00625
            },
            {
              "pitch": 54,
              "velocity": 45,
              "position": 2.002083333333333,
              "duration": 0.00625
            },
            {
              "pitch": 38,
              "velocity": 41,
              "position": 2.2625,
              "duration": 0.00625
            },
            {
              "pitch": 54,
              "velocity": 45,
              "position": 2.2708333333333335,
              "duration": 0.00625
            },
            {
              "pitch": 35,
              "velocity": 100,
              "position": 2.5,
              "duration": 0.00625
            },
            {
              "pitch": 44,
              "velocity": 60,
              "position": 2.5,
              "duration": 0.00625
            },
            {
              "pitch": 53,
              "velocity": 70,
              "position": 2.5,
              "duration": 0.00625
            },
            {
              "pitch": 54,
              "velocity": 46,
              "position": 2.5,
              "duration": 0.00625
            },
            {
              "pitch": 54,
              "velocity": 30,
              "position": 2.7604166666666665,
              "duration": 0.00625
            },
            {
              "pitch": 38,
              "velocity": 13,
              "position": 2.7625,
              "duration": 0.00625
            },
            {
              "pitch": 38,
              "velocity": 110,
              "position": 3,
              "duration": 0.00625
            },
            {
              "pitch": 53,
              "velocity": 102,
              "position": 3,
              "duration": 0.00625
            },
            {
              "pitch": 54,
              "velocity": 50,
              "position": 3,
              "duration": 0.00625
            },
            {
              "pitch": 38,
              "velocity": 24,
              "position": 3.2625,
              "duration": 0.00625
            },
            {
              "pitch": 54,
              "velocity": 35,
              "position": 3.2708333333333335,
              "duration": 0.00625
            },
            {
              "pitch": 54,
              "velocity": 46,
              "position": 3.4916666666666667,
              "duration": 0.00625
            },
            {
              "pitch": 35,
              "velocity": 80,
              "position": 3.5,
              "duration": 0.00625
            },
            {
              "pitch": 44,
              "velocity": 60,
              "position": 3.5,
              "duration": 0.00625
            },
            {
              "pitch": 53,
              "velocity": 70,
              "position": 3.5,
              "duration": 0.00625
            },
            {
              "pitch": 38,
              "velocity": 58,
              "position": 3.7708333333333335,
              "duration": 0.00625
            },
            {
              "pitch": 54,
              "velocity": 52,
              "position": 3.7708333333333335,
              "duration": 0.00625
            },
            {
              "pitch": 38,
              "velocity": 29,
              "position": 3.86875,
              "duration": 0.00625
            },
            {
              "pitch": 35,
              "velocity": 100,
              "position": 4,
              "duration": 0.00625
            },
            {
              "pitch": 53,
              "velocity": 102,
              "position": 4,
              "duration": 0.00625
            },
            {
              "pitch": 54,
              "velocity": 96,
              "position": 4,
              "duration": 0.00625
            },
            {
              "pitch": 54,
              "velocity": 13,
              "position": 4.260416666666667,
              "duration": 0.00625
            },
            {
              "pitch": 38,
              "velocity": 26,
              "position": 4.2625,
              "duration": 0.00625
            },
            {
              "pitch": 35,
              "velocity": 100,
              "position": 4.5,
              "duration": 0.00625
            },
            {
              "pitch": 44,
              "velocity": 60,
              "position": 4.5,
              "duration": 0.00625
            },
            {
              "pitch": 53,
              "velocity": 70,
              "position": 4.5,
              "duration": 0.00625
            },
            {
              "pitch": 54,
              "velocity": 35,
              "position": 4.504166666666666,
              "duration": 0.00625
            },
            {
              "pitch": 54,
              "velocity": 62,
              "position": 4.770833333333333,
              "duration": 0.00625
            },
            {
              "pitch": 54,
              "velocity": 43,
              "position": 4.989583333333333,
              "duration": 0.00625
            },
            {
              "pitch": 38,
              "velocity": 110,
              "position": 5,
              "duration": 0.00625
            },
            {
              "pitch": 53,
              "velocity": 102,
              "position": 5,
              "duration": 0.00625
            },
            {
              "pitch": 35,
              "velocity": 80,
              "position": 5.270833333333333,
              "duration": 0.00625
            },
            {
              "pitch": 54,
              "velocity": 40,
              "position": 5.270833333333333,
              "duration": 0.00625
            },
            {
              "pitch": 44,
              "velocity": 60,
              "position": 5.5,
              "duration": 0.00625
            },
            {
              "pitch": 53,
              "velocity": 70,
              "position": 5.5,
              "duration": 0.00625
            },
            {
              "pitch": 54,
              "velocity": 43,
              "position": 5.5,
              "duration": 0.00625
            },
            {
              "pitch": 54,
              "velocity": 24,
              "position": 5.764583333333333,
              "duration": 0.00625
            },
            {
              "pitch": 38,
              "velocity": 85,
              "position": 5.770833333333333,
              "duration": 0.00625
            },
            {
              "pitch": 38,
              "velocity": 36,
              "position": 5.875,
              "duration": 0.00625
            },
            {
              "pitch": 35,
              "velocity": 100,
              "position": 6,
              "duration": 0.00625
            },
            {
              "pitch": 53,
              "velocity": 102,
              "position": 6,
              "duration": 0.00625
            },
            {
              "pitch": 54,
              "velocity": 38,
              "position": 6.004166666666666,
              "duration": 0.00625
            },
            {
              "pitch": 38,
              "velocity": 43,
              "position": 6.260416666666667,
              "duration": 0.00625
            },
            {
              "pitch": 54,
              "velocity": 20,
              "position": 6.2625,
              "duration": 0.00625
            },
            {
              "pitch": 35,
              "velocity": 100,
              "position": 6.5,
              "duration": 0.00625
            },
            {
              "pitch": 44,
              "velocity": 60,
              "position": 6.5,
              "duration": 0.00625
            },
            {
              "pitch": 53,
              "velocity": 70,
              "position": 6.5,
              "duration": 0.00625
            },
            {
              "pitch": 54,
              "velocity": 49,
              "position": 6.5,
              "duration": 0.00625
            },
            {
              "pitch": 54,
              "velocity": 35,
              "position": 6.770833333333333,
              "duration": 0.00625
            },
            {
              "pitch": 38,
              "velocity": 28,
              "position": 6.772916666666666,
              "duration": 0.00625
            },
            {
              "pitch": 54,
              "velocity": 31,
              "position": 6.989583333333333,
              "duration": 0.00625
            },
            {
              "pitch": 38,
              "velocity": 110,
              "position": 7,
              "duration": 0.00625
            },
            {
              "pitch": 53,
              "velocity": 102,
              "position": 7,
              "duration": 0.00625
            },
            {
              "pitch": 54,
              "velocity": 38,
              "position": 7.260416666666667,
              "duration": 0.00625
            },
            {
              "pitch": 35,
              "velocity": 100,
              "position": 7.270833333333333,
              "duration": 0.00625
            },
            {
              "pitch": 54,
              "velocity": 41,
              "position": 7.49375,
              "duration": 0.00625
            },
            {
              "pitch": 44,
              "velocity": 60,
              "position": 7.5,
              "duration": 0.00625
            },
            {
              "pitch": 53,
              "velocity": 70,
              "position": 7.5,
              "duration": 0.00625
            },
            {
              "pitch": 38,
              "velocity": 44,
              "position": 7.770833333333333,
              "duration": 0.00625
            },
            {
              "pitch": 54,
              "velocity": 55,
              "position": 7.770833333333333,
              "duration": 0.00625
            },
            {
              "pitch": 38,
              "velocity": 22,
              "position": 7.875,
              "duration": 0.00625
            },
            {
              "pitch": 35,
              "velocity": 100,
              "position": 8,
              "duration": 0.00625
            },
            {
              "pitch": 53,
              "velocity": 102,
              "position": 8,
              "duration": 0.00625
            },
            {
              "pitch": 54,
              "velocity": 43,
              "position": 8,
              "duration": 0.00625
            },
            {
              "pitch": 54,
              "velocity": 34,
              "position": 8.260416666666666,
              "duration": 0.00625
            },
            {
              "pitch": 38,
              "velocity": 16,
              "position": 8.2625,
              "duration": 0.00625
            },
            {
              "pitch": 35,
              "velocity": 100,
              "position": 8.5,
              "duration": 0.00625
            },
            {
              "pitch": 44,
              "velocity": 60,
              "position": 8.5,
              "duration": 0.00625
            },
            {
              "pitch": 53,
              "velocity": 70,
              "position": 8.5,
              "duration": 0.00625
            },
            {
              "pitch": 54,
              "velocity": 36,
              "position": 8.5,
              "duration": 0.00625
            },
            {
              "pitch": 38,
              "velocity": 18,
              "position": 8.760416666666666,
              "duration": 0.00625
            },
            {
              "pitch": 54,
              "velocity": 38,
              "position": 8.764583333333333,
              "duration": 0.00625
            },
            {
              "pitch": 38,
              "velocity": 110,
              "position": 9,
              "duration": 0.00625
            },
            {
              "pitch": 53,
              "velocity": 102,
              "position": 9,
              "duration": 0.00625
            },
            {
              "pitch": 54,
              "velocity": 98,
              "position": 9,
              "duration": 0.00625
            },
            {
              "pitch": 54,
              "velocity": 29,
              "position": 9.260416666666666,
              "duration": 0.00625
            },
            {
              "pitch": 35,
              "velocity": 60,
              "position": 9.270833333333334,
              "duration": 0.00625
            },
            {
              "pitch": 35,
              "velocity": 80,
              "position": 9.5,
              "duration": 0.00625
            },
            {
              "pitch": 44,
              "velocity": 60,
              "position": 9.5,
              "duration": 0.00625
            },
            {
              "pitch": 53,
              "velocity": 70,
              "position": 9.5,
              "duration": 0.00625
            },
            {
              "pitch": 54,
              "velocity": 48,
              "position": 9.5,
              "duration": 0.00625
            },
            {
              "pitch": 38,
              "velocity": 89,
              "position": 9.760416666666666,
              "duration": 0.00625
            },
            {
              "pitch": 54,
              "velocity": 57,
              "position": 9.770833333333334,
              "duration": 0.00625
            },
            {
              "pitch": 38,
              "velocity": 34,
              "position": 9.864583333333334,
              "duration": 0.00625
            },
            {
              "pitch": 35,
              "velocity": 100,
              "position": 10,
              "duration": 0.00625
            },
            {
              "pitch": 53,
              "velocity": 102,
              "position": 10,
              "duration": 0.00625
            },
            {
              "pitch": 54,
              "velocity": 105,
              "position": 10,
              "duration": 0.00625
            },
            {
              "pitch": 38,
              "velocity": 36,
              "position": 10.260416666666666,
              "duration": 0.00625
            },
            {
              "pitch": 54,
              "velocity": 32,
              "position": 10.270833333333334,
              "duration": 0.00625
            },
            {
              "pitch": 35,
              "velocity": 100,
              "position": 10.5,
              "duration": 0.00625
            },
            {
              "pitch": 44,
              "velocity": 60,
              "position": 10.5,
              "duration": 0.00625
            },
            {
              "pitch": 53,
              "velocity": 70,
              "position": 10.5,
              "duration": 0.00625
            },
            {
              "pitch": 54,
              "velocity": 34,
              "position": 10.5,
              "duration": 0.00625
            },
            {
              "pitch": 54,
              "velocity": 39,
              "position": 10.770833333333334,
              "duration": 0.00625
            },
            {
              "pitch": 38,
              "velocity": 14,
              "position": 10.772916666666667,
              "duration": 0.00625
            },
            {
              "pitch": 54,
              "velocity": 43,
              "position": 10.989583333333334,
              "duration": 0.00625
            },
            {
              "pitch": 38,
              "velocity": 110,
              "position": 11,
              "duration": 0.00625
            },
            {
              "pitch": 53,
              "velocity": 102,
              "position": 11,
              "duration": 0.00625
            },
            {
              "pitch": 35,
              "velocity": 80,
              "position": 11.270833333333334,
              "duration": 0.00625
            },
            {
              "pitch": 54,
              "velocity": 16,
              "position": 11.275,
              "duration": 0.00625
            },
            {
              "pitch": 54,
              "velocity": 33,
              "position": 11.489583333333334,
              "duration": 0.00625
            },
            {
              "pitch": 44,
              "velocity": 60,
              "position": 11.5,
              "duration": 0.00625
            },
            {
              "pitch": 53,
              "velocity": 70,
              "position": 11.5,
              "duration": 0.00625
            },
            {
              "pitch": 38,
              "velocity": 43,
              "position": 11.764583333333333,
              "duration": 0.00625
            },
            {
              "pitch": 54,
              "velocity": 58,
              "position": 11.764583333333333,
              "duration": 0.00625
            },
            {
              "pitch": 38,
              "velocity": 34,
              "position": 11.866666666666667,
              "duration": 0.00625
            },
            {
              "pitch": 35,
              "velocity": 100,
              "position": 12,
              "duration": 0.00625
            },
            {
              "pitch": 53,
              "velocity": 102,
              "position": 12,
              "duration": 0.00625
            },
            {
              "pitch": 54,
              "velocity": 119,
              "position": 12,
              "duration": 0.00625
            },
            {
              "pitch": 38,
              "velocity": 22,
              "position": 12.270833333333334,
              "duration": 0.00625
            },
            {
              "pitch": 54,
              "velocity": 37,
              "position": 12.270833333333334,
              "duration": 0.00625
            },
            {
              "pitch": 35,
              "velocity": 100,
              "position": 12.5,
              "duration": 0.00625
            },
            {
              "pitch": 44,
              "velocity": 60,
              "position": 12.5,
              "duration": 0.00625
            },
            {
              "pitch": 53,
              "velocity": 70,
              "position": 12.5,
              "duration": 0.00625
            },
            {
              "pitch": 54,
              "velocity": 41,
              "position": 12.5,
              "duration": 0.00625
            },
            {
              "pitch": 54,
              "velocity": 68,
              "position": 12.770833333333334,
              "duration": 0.00625
            },
            {
              "pitch": 54,
              "velocity": 49,
              "position": 12.989583333333334,
              "duration": 0.00625
            },
            {
              "pitch": 38,
              "velocity": 110,
              "position": 13,
              "duration": 0.00625
            },
            {
              "pitch": 53,
              "velocity": 102,
              "position": 13,
              "duration": 0.00625
            },
            {
              "pitch": 54,
              "velocity": 46,
              "position": 13.2625,
              "duration": 0.00625
            },
            {
              "pitch": 35,
              "velocity": 80,
              "position": 13.270833333333334,
              "duration": 0.00625
            },
            {
              "pitch": 44,
              "velocity": 60,
              "position": 13.5,
              "duration": 0.00625
            },
            {
              "pitch": 53,
              "velocity": 70,
              "position": 13.5,
              "duration": 0.00625
            },
            {
              "pitch": 54,
              "velocity": 41,
              "position": 13.504166666666666,
              "duration": 0.00625
            },
            {
              "pitch": 38,
              "velocity": 78,
              "position": 13.7625,
              "duration": 0.00625
            },
            {
              "pitch": 35,
              "velocity": 50,
              "position": 13.770833333333334,
              "duration": 0.00625
            },
            {
              "pitch": 54,
              "velocity": 30,
              "position": 13.770833333333334,
              "duration": 0.00625
            },
            {
              "pitch": 38,
              "velocity": 33,
              "position": 13.866666666666667,
              "duration": 0.00625
            },
            {
              "pitch": 35,
              "velocity": 100,
              "position": 14,
              "duration": 0.00625
            },
            {
              "pitch": 53,
              "velocity": 102,
              "position": 14,
              "duration": 0.00625
            },
            {
              "pitch": 54,
              "velocity": 54,
              "position": 14,
              "duration": 0.00625
            },
            {
              "pitch": 38,
              "velocity": 17,
              "position": 14.275,
              "duration": 0.00625
            },
            {
              "pitch": 38,
              "velocity": 33,
              "position": 14.385416666666666,
              "duration": 0.00625
            },
            {
              "pitch": 38,
              "velocity": 110,
              "position": 14.5,
              "duration": 0.00625
            },
            {
              "pitch": 44,
              "velocity": 60,
              "position": 14.5,
              "duration": 0.00625
            },
            {
              "pitch": 38,
              "velocity": 41,
              "position": 14.760416666666666,
              "duration": 0.00625
            },
            {
              "pitch": 35,
              "velocity": 100,
              "position": 15,
              "duration": 0.00625
            },
            {
              "pitch": 38,
              "velocity": 110,
              "position": 15,
              "duration": 0.00625
            },
            {
              "pitch": 38,
              "velocity": 88,
              "position": 15.270833333333334,
              "duration": 0.00625
            },
            {
              "pitch": 44,
              "velocity": 60,
              "position": 15.5,
              "duration": 0.00625
            },
            {
              "pitch": 45,
              "velocity": 127,
              "position": 15.5,
              "duration": 0.00625
            },
            {
              "pitch": 38,
              "velocity": 58,
              "position": 15.764583333333333,
              "duration": 0.00625
            },
            {
              "pitch": 35,
              "velocity": 80,
              "position": 15.770833333333334,
              "duration": 0.00625
            },
            {
              "pitch": 38,
              "velocity": 31,
              "position": 15.875,
              "duration": 0.00625
            },
            {
              "pitch": 49,
              "velocity": 80,
              "position": 15.989583333333334,
              "duration": 0.00625
            }
          ]
        },
        "10": {
          "ctab": {
            "srcChannel": 10,
            "name": "Bass",
            "accType": "BASS",
            "editable": false,
            "mutedNotes": [],
            "mutedChords": [
              "dim7",
              "dim",
              "minMaj7(9)",
              "minMaj7",
              "min7(11)",
              "min7(9)",
              "min(9)",
              "m7b5",
              "min7",
              "min6",
              "min"
            ],
            "autoStart": false,
            "sourceChordNote": 0,
            "sourceChordType": "Maj",
            "ctb2Low": null,
            "ctb2Main": {
              "ntr": "ROOT_TRANSPOSITION",
              "ntt": "BYPASS",
              "bassOn": false,
              "chordRootUpperLimit": 8,
              "noteLowLimit": 28,
              "noteHighLimit": 127,
              "rtr": "PITCH_SHIFT"
            },
            "ctb2High": null
          },
          "notes": [
            {
              "pitch": 24,
              "velocity": 70,
              "position": 0,
              "duration": 0.29791666666666666
            },
            {
              "pitch": 24,
              "velocity": 69,
              "position": 0.4791666666666667,
              "duration": 0.6104166666666667
            },
            {
              "pitch": 24,
              "velocity": 110,
              "position": 1.2708333333333333,
              "duration": 0.21458333333333332
            },
            {
              "pitch": 24,
              "velocity": 69,
              "position": 1.5,
              "duration": 0.19375
            },
            {
              "pitch": 24,
              "velocity": 63,
              "position": 1.7604166666666667,
              "duration": 0.19375
            },
            {
              "pitch": 24,
              "velocity": 66,
              "position": 1.98125,
              "duration": 0.3
            },
            {
              "pitch": 24,
              "velocity": 71,
              "position": 2.5,
              "duration": 0.6104166666666667
            },
            {
              "pitch": 24,
              "velocity": 110,
              "position": 3.285416666666667,
              "duration": 0.20208333333333334
            },
            {
              "pitch": 19,
              "velocity": 70,
              "position": 3.5,
              "duration": 0.19583333333333333
            },
            {
              "pitch": 19,
              "velocity": 57,
              "position": 3.785416666666667,
              "duration": 0.19583333333333333
            },
            {
              "pitch": 19,
              "velocity": 70,
              "position": 4,
              "duration": 0.29791666666666666
            },
            {
              "pitch": 19,
              "velocity": 70,
              "position": 4.479166666666667,
              "duration": 0.6104166666666667
            },
            {
              "pitch": 19,
              "velocity": 110,
              "position": 5.270833333333333,
              "duration": 0.20625
            },
            {
              "pitch": 24,
              "velocity": 71,
              "position": 5.489583333333333,
              "duration": 0.2
            },
            {
              "pitch": 24,
              "velocity": 64,
              "position": 5.770833333333333,
              "duration": 0.2
            },
            {
              "pitch": 24,
              "velocity": 68,
              "position": 6.010416666666667,
              "duration": 0.29791666666666666
            },
            {
              "pitch": 24,
              "velocity": 68,
              "position": 6.489583333333333,
              "duration": 0.50625
            },
            {
              "pitch": 24,
              "velocity": 110,
              "position": 7.0125,
              "duration": 0.2375
            },
            {
              "pitch": 21,
              "velocity": 71,
              "position": 7.270833333333333,
              "duration": 0.66875
            },
            {
              "pitch": 21,
              "velocity": 68,
              "position": 8,
              "duration": 0.29791666666666666
            },
            {
              "pitch": 21,
              "velocity": 67,
              "position": 8.5,
              "duration": 0.6104166666666667
            },
            {
              "pitch": 21,
              "velocity": 110,
              "position": 9.25,
              "duration": 0.21458333333333332
            },
            {
              "pitch": 26,
              "velocity": 71,
              "position": 9.48125,
              "duration": 0.19791666666666666
            },
            {
              "pitch": 26,
              "velocity": 62,
              "position": 9.752083333333333,
              "duration": 0.19791666666666666
            },
            {
              "pitch": 26,
              "velocity": 69,
              "position": 9.991666666666667,
              "duration": 0.3
            },
            {
              "pitch": 26,
              "velocity": 68,
              "position": 10.489583333333334,
              "duration": 0.6125
            },
            {
              "pitch": 26,
              "velocity": 110,
              "position": 11.260416666666666,
              "duration": 0.21666666666666667
            },
            {
              "pitch": 19,
              "velocity": 70,
              "position": 11.504166666666666,
              "duration": 0.2375
            },
            {
              "pitch": 19,
              "velocity": 64,
              "position": 11.783333333333333,
              "duration": 0.19791666666666666
            },
            {
              "pitch": 19,
              "velocity": 68,
              "position": 12,
              "duration": 0.29791666666666666
            },
            {
              "pitch": 19,
              "velocity": 74,
              "position": 12.48125,
              "duration": 0.3625
            },
            {
              "pitch": 19,
              "velocity": 69,
              "position": 13.285416666666666,
              "duration": 0.42083333333333334
            },
            {
              "pitch": 19,
              "velocity": 67,
              "position": 14,
              "duration": 1.9854166666666666
            }
          ]
        },
        "11": {
          "ctab": {
            "srcChannel": 11,
            "name": "Strat",
            "accType": "CHORD1",
            "editable": false,
            "mutedNotes": [],
            "mutedChords": [
              "dim7",
              "dim",
              "minMaj7(9)",
              "minMaj7",
              "min7(11)",
              "min7(9)",
              "min(9)",
              "m7b5",
              "min7",
              "min6",
              "min"
            ],
            "autoStart": false,
            "sourceChordNote": 0,
            "sourceChordType": "Maj",
            "ctb2Low": null,
            "ctb2Main": {
              "ntr": "ROOT_TRANSPOSITION",
              "ntt": "BYPASS",
              "bassOn": false,
              "chordRootUpperLimit": 8,
              "noteLowLimit": 54,
              "noteHighLimit": 72,
              "rtr": "PITCH_SHIFT"
            },
            "ctb2High": null
          },
          "notes": [
            {
              "pitch": 106,
              "velocity": 127,
              "position": 0.010416666666666666,
              "duration": 0.23541666666666666
            },
            {
              "pitch": 107,
              "velocity": 82,
              "position": 0.2708333333333333,
              "duration": 0.23541666666666666
            },
            {
              "pitch": 48,
              "velocity": 57,
              "position": 0.5,
              "duration": 0.23541666666666666
            },
            {
              "pitch": 108,
              "velocity": 121,
              "position": 0.5,
              "duration": 0.23541666666666666
            },
            {
              "pitch": 52,
              "velocity": 48,
              "position": 0.5,
              "duration": 0.2375
            },
            {
              "pitch": 79,
              "velocity": 56,
              "position": 0.5104166666666666,
              "duration": 0.23541666666666666
            },
            {
              "pitch": 84,
              "velocity": 45,
              "position": 0.5104166666666666,
              "duration": 0.2375
            },
            {
              "pitch": 105,
              "velocity": 81,
              "position": 0.7708333333333334,
              "duration": 0.23541666666666666
            },
            {
              "pitch": 106,
              "velocity": 103,
              "position": 1,
              "duration": 0.23541666666666666
            },
            {
              "pitch": 79,
              "velocity": 31,
              "position": 1.0104166666666667,
              "duration": 0.25625
            },
            {
              "pitch": 52,
              "velocity": 35,
              "position": 1,
              "duration": 0.26875
            },
            {
              "pitch": 48,
              "velocity": 42,
              "position": 1,
              "duration": 0.27708333333333335
            },
            {
              "pitch": 107,
              "velocity": 123,
              "position": 1.2708333333333333,
              "duration": 0.20416666666666666
            },
            {
              "pitch": 84,
              "velocity": 45,
              "position": 1.2708333333333333,
              "duration": 0.2375
            },
            {
              "pitch": 79,
              "velocity": 40,
              "position": 1.28125,
              "duration": 0.23541666666666666
            },
            {
              "pitch": 52,
              "velocity": 51,
              "position": 1.28125,
              "duration": 0.2375
            },
            {
              "pitch": 48,
              "velocity": 43,
              "position": 1.2916666666666667,
              "duration": 0.23541666666666666
            },
            {
              "pitch": 108,
              "velocity": 118,
              "position": 1.5,
              "duration": 0.23541666666666666
            },
            {
              "pitch": 105,
              "velocity": 75,
              "position": 1.7708333333333333,
              "duration": 0.23541666666666666
            },
            {
              "pitch": 106,
              "velocity": 125,
              "position": 2,
              "duration": 0.23541666666666666
            },
            {
              "pitch": 48,
              "velocity": 56,
              "position": 2,
              "duration": 0.25833333333333336
            },
            {
              "pitch": 42,
              "velocity": 56,
              "position": 2,
              "duration": 0.26666666666666666
            },
            {
              "pitch": 42,
              "velocity": 23,
              "position": 2.28125,
              "duration": 0.20416666666666666
            },
            {
              "pitch": 48,
              "velocity": 25,
              "position": 2.2708333333333335,
              "duration": 0.21666666666666667
            },
            {
              "pitch": 74,
              "velocity": 49,
              "position": 2.0104166666666665,
              "duration": 0.48541666666666666
            },
            {
              "pitch": 107,
              "velocity": 80,
              "position": 2.2708333333333335,
              "duration": 0.23541666666666666
            },
            {
              "pitch": 108,
              "velocity": 97,
              "position": 2.5,
              "duration": 0.23541666666666666
            },
            {
              "pitch": 81,
              "velocity": 41,
              "position": 2.0104166666666665,
              "duration": 0.7479166666666667
            },
            {
              "pitch": 74,
              "velocity": 34,
              "position": 2.5104166666666665,
              "duration": 0.25625
            },
            {
              "pitch": 48,
              "velocity": 50,
              "position": 2.5,
              "duration": 0.26875
            },
            {
              "pitch": 42,
              "velocity": 41,
              "position": 2.5,
              "duration": 0.27708333333333335
            },
            {
              "pitch": 81,
              "velocity": 41,
              "position": 2.7708333333333335,
              "duration": 0.20416666666666666
            },
            {
              "pitch": 105,
              "velocity": 127,
              "position": 2.7708333333333335,
              "duration": 0.20416666666666666
            },
            {
              "pitch": 48,
              "velocity": 51,
              "position": 2.78125,
              "duration": 0.20416666666666666
            },
            {
              "pitch": 74,
              "velocity": 47,
              "position": 2.78125,
              "duration": 0.20416666666666666
            },
            {
              "pitch": 42,
              "velocity": 51,
              "position": 2.7916666666666665,
              "duration": 0.20416666666666666
            },
            {
              "pitch": 106,
              "velocity": 96,
              "position": 3,
              "duration": 0.23541666666666666
            },
            {
              "pitch": 107,
              "velocity": 120,
              "position": 3.2708333333333335,
              "duration": 0.20416666666666666
            },
            {
              "pitch": 108,
              "velocity": 115,
              "position": 3.5,
              "duration": 0.23541666666666666
            },
            {
              "pitch": 81,
              "velocity": 56,
              "position": 3.5104166666666665,
              "duration": 0.24791666666666667
            },
            {
              "pitch": 74,
              "velocity": 45,
              "position": 3.5104166666666665,
              "duration": 0.25625
            },
            {
              "pitch": 48,
              "velocity": 44,
              "position": 3.5,
              "duration": 0.26875
            },
            {
              "pitch": 42,
              "velocity": 45,
              "position": 3.5,
              "duration": 0.48541666666666666
            },
            {
              "pitch": 105,
              "velocity": 79,
              "position": 3.7708333333333335,
              "duration": 0.23541666666666666
            },
            {
              "pitch": 81,
              "velocity": 34,
              "position": 3.7708333333333335,
              "duration": 0.2375
            },
            {
              "pitch": 74,
              "velocity": 36,
              "position": 3.78125,
              "duration": 0.23541666666666666
            },
            {
              "pitch": 48,
              "velocity": 45,
              "position": 3.78125,
              "duration": 0.2375
            },
            {
              "pitch": 106,
              "velocity": 122,
              "position": 4,
              "duration": 0.23541666666666666
            },
            {
              "pitch": 107,
              "velocity": 76,
              "position": 4.270833333333333,
              "duration": 0.23541666666666666
            },
            {
              "pitch": 41,
              "velocity": 40,
              "position": 4.5,
              "duration": 0.23541666666666666
            },
            {
              "pitch": 108,
              "velocity": 124,
              "position": 4.5,
              "duration": 0.23541666666666666
            },
            {
              "pitch": 48,
              "velocity": 48,
              "position": 4.5,
              "duration": 0.2375
            },
            {
              "pitch": 76,
              "velocity": 45,
              "position": 4.510416666666667,
              "duration": 0.23541666666666666
            },
            {
              "pitch": 81,
              "velocity": 48,
              "position": 4.510416666666667,
              "duration": 0.2375
            },
            {
              "pitch": 105,
              "velocity": 89,
              "position": 4.770833333333333,
              "duration": 0.23541666666666666
            },
            {
              "pitch": 106,
              "velocity": 90,
              "position": 5,
              "duration": 0.23541666666666666
            },
            {
              "pitch": 76,
              "velocity": 38,
              "position": 5.010416666666667,
              "duration": 0.25625
            },
            {
              "pitch": 48,
              "velocity": 36,
              "position": 5,
              "duration": 0.26875
            },
            {
              "pitch": 41,
              "velocity": 29,
              "position": 5,
              "duration": 0.27708333333333335
            },
            {
              "pitch": 107,
              "velocity": 127,
              "position": 5.270833333333333,
              "duration": 0.20416666666666666
            },
            {
              "pitch": 81,
              "velocity": 56,
              "position": 5.270833333333333,
              "duration": 0.2375
            },
            {
              "pitch": 76,
              "velocity": 51,
              "position": 5.28125,
              "duration": 0.23541666666666666
            },
            {
              "pitch": 48,
              "velocity": 40,
              "position": 5.28125,
              "duration": 0.2375
            },
            {
              "pitch": 41,
              "velocity": 48,
              "position": 5.291666666666667,
              "duration": 0.23541666666666666
            },
            {
              "pitch": 108,
              "velocity": 122,
              "position": 5.5,
              "duration": 0.23541666666666666
            },
            {
              "pitch": 105,
              "velocity": 74,
              "position": 5.770833333333333,
              "duration": 0.23541666666666666
            },
            {
              "pitch": 106,
              "velocity": 117,
              "position": 6,
              "duration": 0.23541666666666666
            },
            {
              "pitch": 52,
              "velocity": 44,
              "position": 6,
              "duration": 0.25833333333333336
            },
            {
              "pitch": 48,
              "velocity": 44,
              "position": 6,
              "duration": 0.26666666666666666
            },
            {
              "pitch": 48,
              "velocity": 32,
              "position": 6.28125,
              "duration": 0.20416666666666666
            },
            {
              "pitch": 52,
              "velocity": 26,
              "position": 6.270833333333333,
              "duration": 0.21666666666666667
            },
            {
              "pitch": 79,
              "velocity": 58,
              "position": 6.010416666666667,
              "duration": 0.48541666666666666
            },
            {
              "pitch": 107,
              "velocity": 74,
              "position": 6.270833333333333,
              "duration": 0.23541666666666666
            },
            {
              "pitch": 108,
              "velocity": 99,
              "position": 6.5,
              "duration": 0.23541666666666666
            },
            {
              "pitch": 84,
              "velocity": 46,
              "position": 6.010416666666667,
              "duration": 0.7479166666666667
            },
            {
              "pitch": 79,
              "velocity": 37,
              "position": 6.510416666666667,
              "duration": 0.25625
            },
            {
              "pitch": 52,
              "velocity": 43,
              "position": 6.5,
              "duration": 0.26875
            },
            {
              "pitch": 48,
              "velocity": 45,
              "position": 6.5,
              "duration": 0.27708333333333335
            },
            {
              "pitch": 84,
              "velocity": 54,
              "position": 6.770833333333333,
              "duration": 0.20416666666666666
            },
            {
              "pitch": 105,
              "velocity": 124,
              "position": 6.770833333333333,
              "duration": 0.20416666666666666
            },
            {
              "pitch": 52,
              "velocity": 50,
              "position": 6.78125,
              "duration": 0.20416666666666666
            },
            {
              "pitch": 79,
              "velocity": 41,
              "position": 6.78125,
              "duration": 0.20416666666666666
            },
            {
              "pitch": 48,
              "velocity": 56,
              "position": 6.791666666666667,
              "duration": 0.20416666666666666
            },
            {
              "pitch": 106,
              "velocity": 100,
              "position": 7,
              "duration": 0.23541666666666666
            },
            {
              "pitch": 107,
              "velocity": 127,
              "position": 7.270833333333333,
              "duration": 0.20416666666666666
            },
            {
              "pitch": 108,
              "velocity": 114,
              "position": 7.5,
              "duration": 0.23541666666666666
            },
            {
              "pitch": 79,
              "velocity": 58,
              "position": 7.510416666666667,
              "duration": 0.24791666666666667
            },
            {
              "pitch": 74,
              "velocity": 57,
              "position": 7.510416666666667,
              "duration": 0.25625
            },
            {
              "pitch": 47,
              "velocity": 56,
              "position": 7.5,
              "duration": 0.26875
            },
            {
              "pitch": 43,
              "velocity": 50,
              "position": 7.5,
              "duration": 0.48541666666666666
            },
            {
              "pitch": 105,
              "velocity": 74,
              "position": 7.770833333333333,
              "duration": 0.23541666666666666
            },
            {
              "pitch": 79,
              "velocity": 32,
              "position": 7.770833333333333,
              "duration": 0.2375
            },
            {
              "pitch": 74,
              "velocity": 38,
              "position": 7.78125,
              "duration": 0.23541666666666666
            },
            {
              "pitch": 47,
              "velocity": 47,
              "position": 7.78125,
              "duration": 0.2375
            },
            {
              "pitch": 106,
              "velocity": 120,
              "position": 8,
              "duration": 0.23541666666666666
            },
            {
              "pitch": 107,
              "velocity": 88,
              "position": 8.270833333333334,
              "duration": 0.23541666666666666
            },
            {
              "pitch": 43,
              "velocity": 44,
              "position": 8.5,
              "duration": 0.23541666666666666
            },
            {
              "pitch": 108,
              "velocity": 123,
              "position": 8.5,
              "duration": 0.23541666666666666
            },
            {
              "pitch": 76,
              "velocity": 57,
              "position": 8.5,
              "duration": 0.2375
            },
            {
              "pitch": 48,
              "velocity": 48,
              "position": 8.510416666666666,
              "duration": 0.23541666666666666
            },
            {
              "pitch": 81,
              "velocity": 51,
              "position": 8.510416666666666,
              "duration": 0.2375
            },
            {
              "pitch": 105,
              "velocity": 78,
              "position": 8.770833333333334,
              "duration": 0.23541666666666666
            },
            {
              "pitch": 106,
              "velocity": 96,
              "position": 9,
              "duration": 0.23541666666666666
            },
            {
              "pitch": 48,
              "velocity": 40,
              "position": 9.010416666666666,
              "duration": 0.25625
            },
            {
              "pitch": 76,
              "velocity": 33,
              "position": 9,
              "duration": 0.26875
            },
            {
              "pitch": 43,
              "velocity": 26,
              "position": 9,
              "duration": 0.27708333333333335
            },
            {
              "pitch": 107,
              "velocity": 119,
              "position": 9.270833333333334,
              "duration": 0.20416666666666666
            },
            {
              "pitch": 81,
              "velocity": 43,
              "position": 9.270833333333334,
              "duration": 0.2375
            },
            {
              "pitch": 48,
              "velocity": 46,
              "position": 9.28125,
              "duration": 0.23541666666666666
            },
            {
              "pitch": 76,
              "velocity": 49,
              "position": 9.28125,
              "duration": 0.2375
            },
            {
              "pitch": 43,
              "velocity": 47,
              "position": 9.291666666666666,
              "duration": 0.23541666666666666
            },
            {
              "pitch": 108,
              "velocity": 127,
              "position": 9.5,
              "duration": 0.23541666666666666
            },
            {
              "pitch": 105,
              "velocity": 87,
              "position": 9.770833333333334,
              "duration": 0.23541666666666666
            },
            {
              "pitch": 106,
              "velocity": 125,
              "position": 10,
              "duration": 0.23541666666666666
            },
            {
              "pitch": 48,
              "velocity": 53,
              "position": 10,
              "duration": 0.25833333333333336
            },
            {
              "pitch": 42,
              "velocity": 50,
              "position": 10,
              "duration": 0.26666666666666666
            },
            {
              "pitch": 42,
              "velocity": 31,
              "position": 10.28125,
              "duration": 0.20416666666666666
            },
            {
              "pitch": 48,
              "velocity": 26,
              "position": 10.270833333333334,
              "duration": 0.21666666666666667
            },
            {
              "pitch": 74,
              "velocity": 41,
              "position": 10.010416666666666,
              "duration": 0.48541666666666666
            },
            {
              "pitch": 107,
              "velocity": 76,
              "position": 10.270833333333334,
              "duration": 0.23541666666666666
            },
            {
              "pitch": 108,
              "velocity": 89,
              "position": 10.5,
              "duration": 0.23541666666666666
            },
            {
              "pitch": 81,
              "velocity": 49,
              "position": 10.010416666666666,
              "duration": 0.7479166666666667
            },
            {
              "pitch": 74,
              "velocity": 36,
              "position": 10.510416666666666,
              "duration": 0.25625
            },
            {
              "pitch": 48,
              "velocity": 41,
              "position": 10.5,
              "duration": 0.26875
            },
            {
              "pitch": 42,
              "velocity": 38,
              "position": 10.5,
              "duration": 0.27708333333333335
            },
            {
              "pitch": 81,
              "velocity": 40,
              "position": 10.770833333333334,
              "duration": 0.20416666666666666
            },
            {
              "pitch": 105,
              "velocity": 127,
              "position": 10.770833333333334,
              "duration": 0.20416666666666666
            },
            {
              "pitch": 48,
              "velocity": 53,
              "position": 10.78125,
              "duration": 0.20416666666666666
            },
            {
              "pitch": 74,
              "velocity": 40,
              "position": 10.78125,
              "duration": 0.20416666666666666
            },
            {
              "pitch": 42,
              "velocity": 52,
              "position": 10.791666666666666,
              "duration": 0.20416666666666666
            },
            {
              "pitch": 106,
              "velocity": 98,
              "position": 11,
              "duration": 0.23541666666666666
            },
            {
              "pitch": 107,
              "velocity": 114,
              "position": 11.270833333333334,
              "duration": 0.20416666666666666
            },
            {
              "pitch": 108,
              "velocity": 116,
              "position": 11.5,
              "duration": 0.23541666666666666
            },
            {
              "pitch": 81,
              "velocity": 42,
              "position": 11.510416666666666,
              "duration": 0.24791666666666667
            },
            {
              "pitch": 74,
              "velocity": 40,
              "position": 11.510416666666666,
              "duration": 0.25625
            },
            {
              "pitch": 48,
              "velocity": 47,
              "position": 11.5,
              "duration": 0.26875
            },
            {
              "pitch": 42,
              "velocity": 40,
              "position": 11.5,
              "duration": 0.48541666666666666
            },
            {
              "pitch": 105,
              "velocity": 78,
              "position": 11.770833333333334,
              "duration": 0.23541666666666666
            },
            {
              "pitch": 81,
              "velocity": 40,
              "position": 11.770833333333334,
              "duration": 0.2375
            },
            {
              "pitch": 74,
              "velocity": 33,
              "position": 11.78125,
              "duration": 0.23541666666666666
            },
            {
              "pitch": 48,
              "velocity": 45,
              "position": 11.78125,
              "duration": 0.2375
            },
            {
              "pitch": 106,
              "velocity": 126,
              "position": 12,
              "duration": 0.23541666666666666
            },
            {
              "pitch": 107,
              "velocity": 83,
              "position": 12.270833333333334,
              "duration": 0.23541666666666666
            },
            {
              "pitch": 41,
              "velocity": 56,
              "position": 12.5,
              "duration": 0.23541666666666666
            },
            {
              "pitch": 108,
              "velocity": 123,
              "position": 12.5,
              "duration": 0.23541666666666666
            },
            {
              "pitch": 48,
              "velocity": 52,
              "position": 12.5,
              "duration": 0.2375
            },
            {
              "pitch": 76,
              "velocity": 46,
              "position": 12.510416666666666,
              "duration": 0.23541666666666666
            },
            {
              "pitch": 81,
              "velocity": 57,
              "position": 12.510416666666666,
              "duration": 0.2375
            },
            {
              "pitch": 105,
              "velocity": 72,
              "position": 12.770833333333334,
              "duration": 0.23541666666666666
            },
            {
              "pitch": 106,
              "velocity": 97,
              "position": 13,
              "duration": 0.23541666666666666
            },
            {
              "pitch": 76,
              "velocity": 28,
              "position": 13.010416666666666,
              "duration": 0.25625
            },
            {
              "pitch": 48,
              "velocity": 37,
              "position": 13,
              "duration": 0.26875
            },
            {
              "pitch": 41,
              "velocity": 35,
              "position": 13,
              "duration": 0.27708333333333335
            },
            {
              "pitch": 107,
              "velocity": 118,
              "position": 13.270833333333334,
              "duration": 0.20416666666666666
            },
            {
              "pitch": 81,
              "velocity": 42,
              "position": 13.270833333333334,
              "duration": 0.2375
            },
            {
              "pitch": 76,
              "velocity": 42,
              "position": 13.28125,
              "duration": 0.23541666666666666
            },
            {
              "pitch": 48,
              "velocity": 42,
              "position": 13.28125,
              "duration": 0.2375
            },
            {
              "pitch": 41,
              "velocity": 50,
              "position": 13.291666666666666,
              "duration": 0.23541666666666666
            },
            {
              "pitch": 108,
              "velocity": 116,
              "position": 13.5,
              "duration": 0.23541666666666666
            },
            {
              "pitch": 105,
              "velocity": 74,
              "position": 13.770833333333334,
              "duration": 0.23541666666666666
            },
            {
              "pitch": 106,
              "velocity": 124,
              "position": 14,
              "duration": 0.23541666666666666
            },
            {
              "pitch": 48,
              "velocity": 49,
              "position": 14,
              "duration": 1.98125
            },
            {
              "pitch": 81,
              "velocity": 48,
              "position": 14.010416666666666,
              "duration": 1.9708333333333334
            },
            {
              "pitch": 41,
              "velocity": 55,
              "position": 14,
              "duration": 1.9854166666666666
            },
            {
              "pitch": 76,
              "velocity": 53,
              "position": 14.010416666666666,
              "duration": 1.975
            }
          ]
        },
        "12": {
          "ctab": {
            "srcChannel": 12,
            "name": "Piano",
            "accType": "CHORD2",
            "editable": false,
            "mutedNotes": [],
            "mutedChords": [
              "dim7",
              "dim",
              "minMaj7(9)",
              "minMaj7",
              "min7(11)",
              "min7(9)",
              "min(9)",
              "m7b5",
              "min7",
              "min6",
              "min"
            ],
            "autoStart": false,
            "sourceChordNote": 0,
            "sourceChordType": "Maj",
            "ctb2Low": null,
            "ctb2Main": {
              "ntr": "ROOT_TRANSPOSITION",
              "ntt": "BYPASS",
              "bassOn": false,
              "chordRootUpperLimit": 11,
              "noteLowLimit": 0,
              "noteHighLimit": 69,
              "rtr": "PITCH_SHIFT"
            },
            "ctb2High": null
          },
          "notes": [
            {
              "pitch": 24,
              "velocity": 94,
              "position": 0.010416666666666666,
              "duration": 0.21458333333333332
            },
            {
              "pitch": 36,
              "velocity": 94,
              "position": 0.010416666666666666,
              "duration": 0.21458333333333332
            },
            {
              "pitch": 72,
              "velocity": 106,
              "position": 0.010416666666666666,
              "duration": 0.6
            },
            {
              "pitch": 76,
              "velocity": 115,
              "position": 0.010416666666666666,
              "duration": 0.6
            },
            {
              "pitch": 55,
              "velocity": 108,
              "position": 0.010416666666666666,
              "duration": 0.6104166666666667
            },
            {
              "pitch": 24,
              "velocity": 94,
              "position": 0.5,
              "duration": 0.6104166666666667
            },
            {
              "pitch": 36,
              "velocity": 94,
              "position": 0.5,
              "duration": 0.6104166666666667
            },
            {
              "pitch": 72,
              "velocity": 106,
              "position": 1,
              "duration": 0.6
            },
            {
              "pitch": 55,
              "velocity": 108,
              "position": 0.9916666666666667,
              "duration": 0.6125
            },
            {
              "pitch": 76,
              "velocity": 115,
              "position": 1.0041666666666667,
              "duration": 0.6
            },
            {
              "pitch": 72,
              "velocity": 108,
              "position": 1.7625,
              "duration": 0.17291666666666666
            },
            {
              "pitch": 76,
              "velocity": 117,
              "position": 1.7708333333333333,
              "duration": 0.19583333333333333
            },
            {
              "pitch": 54,
              "velocity": 106,
              "position": 1.7625,
              "duration": 0.23958333333333334
            },
            {
              "pitch": 69,
              "velocity": 106,
              "position": 1.7625,
              "duration": 0.23958333333333334
            },
            {
              "pitch": 26,
              "velocity": 94,
              "position": 2,
              "duration": 0.21458333333333332
            },
            {
              "pitch": 38,
              "velocity": 94,
              "position": 2,
              "duration": 0.21458333333333332
            },
            {
              "pitch": 54,
              "velocity": 93,
              "position": 2.2645833333333334,
              "duration": 0.12916666666666668
            },
            {
              "pitch": 69,
              "velocity": 93,
              "position": 2.2645833333333334,
              "duration": 0.12916666666666668
            },
            {
              "pitch": 76,
              "velocity": 91,
              "position": 2.275,
              "duration": 0.12083333333333333
            },
            {
              "pitch": 72,
              "velocity": 89,
              "position": 2.2729166666666667,
              "duration": 0.14166666666666666
            },
            {
              "pitch": 26,
              "velocity": 94,
              "position": 2.5,
              "duration": 0.6104166666666667
            },
            {
              "pitch": 38,
              "velocity": 94,
              "position": 2.5,
              "duration": 0.6104166666666667
            },
            {
              "pitch": 54,
              "velocity": 112,
              "position": 2.9895833333333335,
              "duration": 0.8708333333333333
            },
            {
              "pitch": 69,
              "velocity": 112,
              "position": 2.9895833333333335,
              "duration": 0.8708333333333333
            },
            {
              "pitch": 76,
              "velocity": 117,
              "position": 2.99375,
              "duration": 0.9104166666666667
            },
            {
              "pitch": 72,
              "velocity": 101,
              "position": 3.004166666666667,
              "duration": 0.9416666666666667
            },
            {
              "pitch": 19,
              "velocity": 94,
              "position": 4,
              "duration": 0.21458333333333332
            },
            {
              "pitch": 31,
              "velocity": 94,
              "position": 4,
              "duration": 0.21458333333333332
            },
            {
              "pitch": 76,
              "velocity": 112,
              "position": 4,
              "duration": 0.59375
            },
            {
              "pitch": 69,
              "velocity": 117,
              "position": 4,
              "duration": 0.6208333333333333
            },
            {
              "pitch": 72,
              "velocity": 117,
              "position": 4,
              "duration": 0.6208333333333333
            },
            {
              "pitch": 53,
              "velocity": 118,
              "position": 4,
              "duration": 0.6229166666666667
            },
            {
              "pitch": 19,
              "velocity": 94,
              "position": 4.5,
              "duration": 0.6104166666666667
            },
            {
              "pitch": 31,
              "velocity": 94,
              "position": 4.5,
              "duration": 0.6104166666666667
            },
            {
              "pitch": 76,
              "velocity": 112,
              "position": 4.991666666666666,
              "duration": 0.59375
            },
            {
              "pitch": 53,
              "velocity": 118,
              "position": 5,
              "duration": 0.6208333333333333
            },
            {
              "pitch": 69,
              "velocity": 117,
              "position": 5,
              "duration": 0.6208333333333333
            },
            {
              "pitch": 72,
              "velocity": 117,
              "position": 5,
              "duration": 0.6208333333333333
            },
            {
              "pitch": 76,
              "velocity": 118,
              "position": 5.764583333333333,
              "duration": 0.17083333333333334
            },
            {
              "pitch": 55,
              "velocity": 108,
              "position": 5.772916666666666,
              "duration": 0.17708333333333334
            },
            {
              "pitch": 72,
              "velocity": 119,
              "position": 5.772916666666666,
              "duration": 0.19166666666666668
            },
            {
              "pitch": 24,
              "velocity": 94,
              "position": 6,
              "duration": 0.21458333333333332
            },
            {
              "pitch": 36,
              "velocity": 94,
              "position": 6,
              "duration": 0.21458333333333332
            },
            {
              "pitch": 76,
              "velocity": 90,
              "position": 6.270833333333333,
              "duration": 0.13125
            },
            {
              "pitch": 55,
              "velocity": 88,
              "position": 6.264583333333333,
              "duration": 0.14375
            },
            {
              "pitch": 72,
              "velocity": 83,
              "position": 6.272916666666666,
              "duration": 0.14166666666666666
            },
            {
              "pitch": 24,
              "velocity": 94,
              "position": 6.5,
              "duration": 0.36041666666666666
            },
            {
              "pitch": 36,
              "velocity": 94,
              "position": 6.5,
              "duration": 0.36041666666666666
            },
            {
              "pitch": 76,
              "velocity": 90,
              "position": 7.020833333333333,
              "duration": 0.13125
            },
            {
              "pitch": 55,
              "velocity": 88,
              "position": 7.014583333333333,
              "duration": 0.14375
            },
            {
              "pitch": 72,
              "velocity": 83,
              "position": 7.022916666666666,
              "duration": 0.14166666666666666
            },
            {
              "pitch": 23,
              "velocity": 94,
              "position": 7.270833333333333,
              "duration": 0.6104166666666667
            },
            {
              "pitch": 35,
              "velocity": 94,
              "position": 7.270833333333333,
              "duration": 0.6104166666666667
            },
            {
              "pitch": 55,
              "velocity": 108,
              "position": 7.252083333333333,
              "duration": 0.6458333333333334
            },
            {
              "pitch": 71,
              "velocity": 108,
              "position": 7.252083333333333,
              "duration": 0.6458333333333334
            },
            {
              "pitch": 74,
              "velocity": 118,
              "position": 7.252083333333333,
              "duration": 0.6666666666666666
            },
            {
              "pitch": 21,
              "velocity": 94,
              "position": 8,
              "duration": 0.21458333333333332
            },
            {
              "pitch": 33,
              "velocity": 94,
              "position": 8,
              "duration": 0.21458333333333332
            },
            {
              "pitch": 72,
              "velocity": 106,
              "position": 8,
              "duration": 0.6
            },
            {
              "pitch": 55,
              "velocity": 108,
              "position": 8,
              "duration": 0.6104166666666667
            },
            {
              "pitch": 76,
              "velocity": 115,
              "position": 8.010416666666666,
              "duration": 0.6
            },
            {
              "pitch": 21,
              "velocity": 94,
              "position": 8.5,
              "duration": 0.6104166666666667
            },
            {
              "pitch": 33,
              "velocity": 94,
              "position": 8.5,
              "duration": 0.6104166666666667
            },
            {
              "pitch": 72,
              "velocity": 106,
              "position": 9,
              "duration": 0.6
            },
            {
              "pitch": 55,
              "velocity": 108,
              "position": 8.991666666666667,
              "duration": 0.6125
            },
            {
              "pitch": 76,
              "velocity": 115,
              "position": 9.004166666666666,
              "duration": 0.6
            },
            {
              "pitch": 72,
              "velocity": 108,
              "position": 9.7625,
              "duration": 0.17291666666666666
            },
            {
              "pitch": 76,
              "velocity": 117,
              "position": 9.770833333333334,
              "duration": 0.19583333333333333
            },
            {
              "pitch": 54,
              "velocity": 106,
              "position": 9.7625,
              "duration": 0.23958333333333334
            },
            {
              "pitch": 69,
              "velocity": 106,
              "position": 9.7625,
              "duration": 0.23958333333333334
            },
            {
              "pitch": 26,
              "velocity": 94,
              "position": 10,
              "duration": 0.21458333333333332
            },
            {
              "pitch": 38,
              "velocity": 94,
              "position": 10,
              "duration": 0.21458333333333332
            },
            {
              "pitch": 54,
              "velocity": 93,
              "position": 10.264583333333333,
              "duration": 0.12916666666666668
            },
            {
              "pitch": 69,
              "velocity": 93,
              "position": 10.264583333333333,
              "duration": 0.12916666666666668
            },
            {
              "pitch": 76,
              "velocity": 91,
              "position": 10.275,
              "duration": 0.12083333333333333
            },
            {
              "pitch": 72,
              "velocity": 89,
              "position": 10.272916666666667,
              "duration": 0.14166666666666666
            },
            {
              "pitch": 26,
              "velocity": 94,
              "position": 10.5,
              "duration": 0.6104166666666667
            },
            {
              "pitch": 38,
              "velocity": 94,
              "position": 10.5,
              "duration": 0.6104166666666667
            },
            {
              "pitch": 54,
              "velocity": 112,
              "position": 10.989583333333334,
              "duration": 0.8708333333333333
            },
            {
              "pitch": 69,
              "velocity": 112,
              "position": 10.989583333333334,
              "duration": 0.8708333333333333
            },
            {
              "pitch": 76,
              "velocity": 117,
              "position": 10.99375,
              "duration": 0.9104166666666667
            },
            {
              "pitch": 72,
              "velocity": 101,
              "position": 11.004166666666666,
              "duration": 0.9416666666666667
            },
            {
              "pitch": 19,
              "velocity": 94,
              "position": 12,
              "duration": 0.21458333333333332
            },
            {
              "pitch": 31,
              "velocity": 94,
              "position": 12,
              "duration": 0.21458333333333332
            },
            {
              "pitch": 53,
              "velocity": 83,
              "position": 12.49375,
              "duration": 0.14166666666666666
            },
            {
              "pitch": 76,
              "velocity": 90,
              "position": 12.510416666666666,
              "duration": 0.12708333333333333
            },
            {
              "pitch": 69,
              "velocity": 88,
              "position": 12.5,
              "duration": 0.14166666666666666
            },
            {
              "pitch": 72,
              "velocity": 88,
              "position": 12.5,
              "duration": 0.14166666666666666
            },
            {
              "pitch": 19,
              "velocity": 94,
              "position": 12.5,
              "duration": 0.36041666666666666
            },
            {
              "pitch": 31,
              "velocity": 94,
              "position": 12.5,
              "duration": 0.36041666666666666
            },
            {
              "pitch": 69,
              "velocity": 108,
              "position": 13.2625,
              "duration": 0.17291666666666666
            },
            {
              "pitch": 72,
              "velocity": 108,
              "position": 13.2625,
              "duration": 0.17291666666666666
            },
            {
              "pitch": 76,
              "velocity": 117,
              "position": 13.270833333333334,
              "duration": 0.19583333333333333
            },
            {
              "pitch": 53,
              "velocity": 106,
              "position": 13.2625,
              "duration": 0.23958333333333334
            },
            {
              "pitch": 19,
              "velocity": 94,
              "position": 13.25,
              "duration": 0.36041666666666666
            },
            {
              "pitch": 31,
              "velocity": 94,
              "position": 13.25,
              "duration": 0.36041666666666666
            },
            {
              "pitch": 69,
              "velocity": 118,
              "position": 14.002083333333333,
              "duration": 1.9791666666666667
            },
            {
              "pitch": 72,
              "velocity": 118,
              "position": 14.002083333333333,
              "duration": 1.9791666666666667
            },
            {
              "pitch": 76,
              "velocity": 118,
              "position": 14.004166666666666,
              "duration": 1.9770833333333333
            },
            {
              "pitch": 19,
              "velocity": 94,
              "position": 14,
              "duration": 1.9854166666666666
            },
            {
              "pitch": 31,
              "velocity": 94,
              "position": 14,
              "duration": 1.9854166666666666
            },
            {
              "pitch": 53,
              "velocity": 108,
              "position": 14,
              "duration": 1.9854166666666666
            }
          ]
        },
        "13": {
          "ctab": {
            "srcChannel": 13,
            "name": "Organ",
            "accType": "PAD",
            "editable": false,
            "mutedNotes": [],
            "mutedChords": [
              "dim7",
              "dim",
              "minMaj7(9)",
              "minMaj7",
              "min7(11)",
              "min7(9)",
              "min(9)",
              "m7b5",
              "min7",
              "min6",
              "min"
            ],
            "autoStart": false,
            "sourceChordNote": 0,
            "sourceChordType": "Maj",
            "ctb2Low": null,
            "ctb2Main": {
              "ntr": "ROOT_TRANSPOSITION",
              "ntt": "BYPASS",
              "bassOn": false,
              "chordRootUpperLimit": 0,
              "noteLowLimit": 0,
              "noteHighLimit": 79,
              "rtr": "PITCH_SHIFT"
            },
            "ctb2High": null
          },
          "notes": [
            {
              "pitch": 47,
              "velocity": 79,
              "position": 0.4583333333333333,
              "duration": 0.12083333333333333
            },
            {
              "pitch": 48,
              "velocity": 76,
              "position": 0.45416666666666666,
              "duration": 0.1875
            },
            {
              "pitch": 50,
              "velocity": 58,
              "position": 0.4708333333333333,
              "duration": 0.22708333333333333
            },
            {
              "pitch": 52,
              "velocity": 42,
              "position": 0.49583333333333335,
              "duration": 0.24583333333333332
            },
            {
              "pitch": 53,
              "velocity": 47,
              "position": 0.5208333333333334,
              "duration": 0.26666666666666666
            },
            {
              "pitch": 55,
              "velocity": 52,
              "position": 0.6145833333333334,
              "duration": 0.21666666666666667
            },
            {
              "pitch": 57,
              "velocity": 58,
              "position": 0.6895833333333333,
              "duration": 0.18125
            },
            {
              "pitch": 59,
              "velocity": 58,
              "position": 0.7291666666666666,
              "duration": 0.16875
            },
            {
              "pitch": 60,
              "velocity": 62,
              "position": 0.8020833333333334,
              "duration": 0.13541666666666666
            },
            {
              "pitch": 62,
              "velocity": 63,
              "position": 0.8395833333333333,
              "duration": 0.14166666666666666
            },
            {
              "pitch": 67,
              "velocity": 68,
              "position": 0.9375,
              "duration": 0.11041666666666666
            },
            {
              "pitch": 64,
              "velocity": 64,
              "position": 0.8666666666666667,
              "duration": 0.2125
            },
            {
              "pitch": 65,
              "velocity": 66,
              "position": 0.90625,
              "duration": 0.175
            },
            {
              "pitch": 80,
              "velocity": 72,
              "position": 1.0041666666666667,
              "duration": 0.2520833333333333
            },
            {
              "pitch": 76,
              "velocity": 71,
              "position": 1,
              "duration": 1.31875
            },
            {
              "pitch": 81,
              "velocity": 91,
              "position": 1.2291666666666667,
              "duration": 1.35625
            },
            {
              "pitch": 84,
              "velocity": 71,
              "position": 1.0020833333333334,
              "duration": 1.6625
            },
            {
              "pitch": 79,
              "velocity": 89,
              "position": 2.6625,
              "duration": 0.05625
            },
            {
              "pitch": 77,
              "velocity": 68,
              "position": 2.7020833333333334,
              "duration": 0.04583333333333333
            },
            {
              "pitch": 76,
              "velocity": 50,
              "position": 2.75,
              "duration": 0.027083333333333334
            },
            {
              "pitch": 74,
              "velocity": 50,
              "position": 2.8041666666666667,
              "duration": 0.04791666666666667
            },
            {
              "pitch": 65,
              "velocity": 89,
              "position": 2.91875,
              "duration": 0.03958333333333333
            },
            {
              "pitch": 74,
              "velocity": 79,
              "position": 3.025,
              "duration": 0.13125
            },
            {
              "pitch": 75,
              "velocity": 122,
              "position": 3.0208333333333335,
              "duration": 0.17291666666666666
            },
            {
              "pitch": 81,
              "velocity": 93,
              "position": 3.03125,
              "duration": 0.28958333333333336
            },
            {
              "pitch": 76,
              "velocity": 79,
              "position": 3.1875,
              "duration": 0.17916666666666667
            },
            {
              "pitch": 75,
              "velocity": 114,
              "position": 3.53125,
              "duration": 0.09166666666666666
            },
            {
              "pitch": 74,
              "velocity": 57,
              "position": 3.5208333333333335,
              "duration": 0.12708333333333333
            },
            {
              "pitch": 81,
              "velocity": 86,
              "position": 3.5208333333333335,
              "duration": 0.33125
            },
            {
              "pitch": 76,
              "velocity": 89,
              "position": 3.6083333333333334,
              "duration": 0.2791666666666667
            },
            {
              "pitch": 75,
              "velocity": 102,
              "position": 4.058333333333334,
              "duration": 0.1
            },
            {
              "pitch": 74,
              "velocity": 86,
              "position": 4.020833333333333,
              "duration": 0.20625
            },
            {
              "pitch": 76,
              "velocity": 89,
              "position": 4.15,
              "duration": 0.20416666666666666
            },
            {
              "pitch": 81,
              "velocity": 93,
              "position": 4.041666666666667,
              "duration": 0.3229166666666667
            },
            {
              "pitch": 75,
              "velocity": 68,
              "position": 4.533333333333333,
              "duration": 0.09791666666666667
            },
            {
              "pitch": 74,
              "velocity": 50,
              "position": 4.514583333333333,
              "duration": 0.3104166666666667
            },
            {
              "pitch": 81,
              "velocity": 84,
              "position": 4.525,
              "duration": 0.32083333333333336
            },
            {
              "pitch": 72,
              "velocity": 86,
              "position": 4.822916666666667,
              "duration": 0.08125
            },
            {
              "pitch": 81,
              "velocity": 96,
              "position": 5.020833333333333,
              "duration": 0.15833333333333333
            },
            {
              "pitch": 74,
              "velocity": 105,
              "position": 5.020833333333333,
              "duration": 0.20833333333333334
            },
            {
              "pitch": 69,
              "velocity": 81,
              "position": 5.270833333333333,
              "duration": 0.14166666666666666
            },
            {
              "pitch": 72,
              "velocity": 111,
              "position": 5.520833333333333,
              "duration": 0.20625
            },
            {
              "pitch": 74,
              "velocity": 96,
              "position": 5.770833333333333,
              "duration": 0.13541666666666666
            },
            {
              "pitch": 72,
              "velocity": 84,
              "position": 6.020833333333333,
              "duration": 0.15625
            },
            {
              "pitch": 74,
              "velocity": 84,
              "position": 6.145833333333333,
              "duration": 0.1625
            },
            {
              "pitch": 72,
              "velocity": 96,
              "position": 6.270833333333333,
              "duration": 0.8854166666666666
            },
            {
              "pitch": 74,
              "velocity": 68,
              "position": 7.270833333333333,
              "duration": 0.13125
            },
            {
              "pitch": 75,
              "velocity": 102,
              "position": 7.5,
              "duration": 0.125
            },
            {
              "pitch": 76,
              "velocity": 76,
              "position": 7.59375,
              "duration": 0.30833333333333335
            },
            {
              "pitch": 79,
              "velocity": 105,
              "position": 7.770833333333333,
              "duration": 0.13125
            },
            {
              "pitch": 81,
              "velocity": 105,
              "position": 8.020833333333334,
              "duration": 0.225
            },
            {
              "pitch": 79,
              "velocity": 89,
              "position": 8.270833333333334,
              "duration": 0.225
            },
            {
              "pitch": 81,
              "velocity": 96,
              "position": 8.520833333333334,
              "duration": 0.225
            },
            {
              "pitch": 84,
              "velocity": 89,
              "position": 8.770833333333334,
              "duration": 0.225
            },
            {
              "pitch": 81,
              "velocity": 70,
              "position": 9.020833333333334,
              "duration": 0.225
            },
            {
              "pitch": 84,
              "velocity": 92,
              "position": 9.270833333333334,
              "duration": 0.225
            },
            {
              "pitch": 86,
              "velocity": 104,
              "position": 9.520833333333334,
              "duration": 0.225
            },
            {
              "pitch": 84,
              "velocity": 89,
              "position": 9.770833333333334,
              "duration": 0.225
            },
            {
              "pitch": 86,
              "velocity": 98,
              "position": 10.020833333333334,
              "duration": 0.225
            },
            {
              "pitch": 86,
              "velocity": 94,
              "position": 10.270833333333334,
              "duration": 0.08958333333333333
            },
            {
              "pitch": 88,
              "velocity": 82,
              "position": 10.304166666666667,
              "duration": 0.22916666666666666
            },
            {
              "pitch": 86,
              "velocity": 92,
              "position": 10.5,
              "duration": 0.22708333333333333
            },
            {
              "pitch": 88,
              "velocity": 82,
              "position": 10.75,
              "duration": 0.22708333333333333
            },
            {
              "pitch": 93,
              "velocity": 94,
              "position": 11.020833333333334,
              "duration": 0.20625
            },
            {
              "pitch": 91,
              "velocity": 80,
              "position": 11.270833333333334,
              "duration": 0.12083333333333333
            },
            {
              "pitch": 86,
              "velocity": 92,
              "position": 11.522916666666667,
              "duration": 0.125
            },
            {
              "pitch": 87,
              "velocity": 98,
              "position": 11.572916666666666,
              "duration": 0.08541666666666667
            },
            {
              "pitch": 88,
              "velocity": 73,
              "position": 11.6875,
              "duration": 0.058333333333333334
            },
            {
              "pitch": 91,
              "velocity": 94,
              "position": 11.541666666666666,
              "duration": 0.3229166666666667
            },
            {
              "pitch": 84,
              "velocity": 80,
              "position": 11.80625,
              "duration": 0.12291666666666666
            },
            {
              "pitch": 91,
              "velocity": 82,
              "position": 12,
              "duration": 0.12083333333333333
            },
            {
              "pitch": 86,
              "velocity": 82,
              "position": 12.125,
              "duration": 0.12083333333333333
            },
            {
              "pitch": 84,
              "velocity": 80,
              "position": 12.25,
              "duration": 0.12083333333333333
            },
            {
              "pitch": 81,
              "velocity": 77,
              "position": 12.375,
              "duration": 0.12083333333333333
            },
            {
              "pitch": 84,
              "velocity": 94,
              "position": 12.5,
              "duration": 0.12083333333333333
            },
            {
              "pitch": 86,
              "velocity": 66,
              "position": 12.625,
              "duration": 0.12083333333333333
            },
            {
              "pitch": 84,
              "velocity": 74,
              "position": 12.75,
              "duration": 2.2604166666666665
            },
            {
              "pitch": 91,
              "velocity": 74,
              "position": 12.5,
              "duration": 2.56875
            },
            {
              "pitch": 83,
              "velocity": 93,
              "position": 15.083333333333334,
              "duration": 0.08333333333333333
            },
            {
              "pitch": 81,
              "velocity": 45,
              "position": 15.114583333333334,
              "duration": 0.08541666666666667
            },
            {
              "pitch": 79,
              "velocity": 55,
              "position": 15.160416666666666,
              "duration": 0.08125
            },
            {
              "pitch": 77,
              "velocity": 58,
              "position": 15.235416666666667,
              "duration": 0.03333333333333333
            },
            {
              "pitch": 76,
              "velocity": 68,
              "position": 15.285416666666666,
              "duration": 0.04791666666666667
            },
            {
              "pitch": 74,
              "velocity": 49,
              "position": 15.34375,
              "duration": 0.04791666666666667
            },
            {
              "pitch": 72,
              "velocity": 61,
              "position": 15.377083333333333,
              "duration": 0.04791666666666667
            },
            {
              "pitch": 71,
              "velocity": 61,
              "position": 15.416666666666666,
              "duration": 0.04791666666666667
            },
            {
              "pitch": 69,
              "velocity": 52,
              "position": 15.458333333333334,
              "duration": 0.04375
            },
            {
              "pitch": 67,
              "velocity": 74,
              "position": 15.49375,
              "duration": 0.0375
            },
            {
              "pitch": 65,
              "velocity": 64,
              "position": 15.541666666666666,
              "duration": 0.027083333333333334
            },
            {
              "pitch": 64,
              "velocity": 76,
              "position": 15.579166666666667,
              "duration": 0.04791666666666667
            },
            {
              "pitch": 62,
              "velocity": 68,
              "position": 15.635416666666666,
              "duration": 0.04375
            },
            {
              "pitch": 60,
              "velocity": 64,
              "position": 15.6875,
              "duration": 0.0375
            },
            {
              "pitch": 59,
              "velocity": 74,
              "position": 15.745833333333334,
              "duration": 0.041666666666666664
            },
            {
              "pitch": 57,
              "velocity": 68,
              "position": 15.791666666666666,
              "duration": 0.05
            },
            {
              "pitch": 55,
              "velocity": 64,
              "position": 15.833333333333334,
              "duration": 0.04791666666666667
            }
          ]
        },
        "14": {
          "ctab": {
            "srcChannel": 14,
            "name": "Tele",
            "accType": "PHRASE1",
            "editable": false,
            "mutedNotes": [],
            "mutedChords": [
              "dim7",
              "dim",
              "minMaj7(9)",
              "minMaj7",
              "min7(11)",
              "min7(9)",
              "min(9)",
              "m7b5",
              "min7",
              "min6",
              "min"
            ],
            "autoStart": false,
            "sourceChordNote": 0,
            "sourceChordType": "Maj",
            "ctb2Low": null,
            "ctb2Main": {
              "ntr": "ROOT_TRANSPOSITION",
              "ntt": "BYPASS",
              "bassOn": false,
              "chordRootUpperLimit": 8,
              "noteLowLimit": 51,
              "noteHighLimit": 69,
              "rtr": "PITCH_SHIFT"
            },
            "ctb2High": null
          },
          "notes": [
            {
              "pitch": 36,
              "velocity": 60,
              "position": 0.5,
              "duration": 0.23541666666666666
            },
            {
              "pitch": 106,
              "velocity": 127,
              "position": 0.5,
              "duration": 0.23541666666666666
            },
            {
              "pitch": 40,
              "velocity": 59,
              "position": 0.5,
              "duration": 0.2375
            },
            {
              "pitch": 79,
              "velocity": 60,
              "position": 0.5104166666666666,
              "duration": 0.23541666666666666
            },
            {
              "pitch": 84,
              "velocity": 56,
              "position": 0.5104166666666666,
              "duration": 0.2375
            },
            {
              "pitch": 107,
              "velocity": 82,
              "position": 0.7708333333333334,
              "duration": 0.23541666666666666
            },
            {
              "pitch": 108,
              "velocity": 121,
              "position": 1,
              "duration": 0.23541666666666666
            },
            {
              "pitch": 105,
              "velocity": 81,
              "position": 1.2708333333333333,
              "duration": 0.23541666666666666
            },
            {
              "pitch": 84,
              "velocity": 56,
              "position": 1.2729166666666667,
              "duration": 0.2375
            },
            {
              "pitch": 79,
              "velocity": 51,
              "position": 1.28125,
              "duration": 0.23541666666666666
            },
            {
              "pitch": 40,
              "velocity": 60,
              "position": 1.2854166666666667,
              "duration": 0.2375
            },
            {
              "pitch": 36,
              "velocity": 54,
              "position": 1.2916666666666667,
              "duration": 0.2375
            },
            {
              "pitch": 106,
              "velocity": 103,
              "position": 1.5,
              "duration": 0.23541666666666666
            },
            {
              "pitch": 107,
              "velocity": 123,
              "position": 1.7708333333333333,
              "duration": 0.20416666666666666
            },
            {
              "pitch": 36,
              "velocity": 60,
              "position": 2,
              "duration": 0.23541666666666666
            },
            {
              "pitch": 108,
              "velocity": 118,
              "position": 2,
              "duration": 0.23541666666666666
            },
            {
              "pitch": 42,
              "velocity": 60,
              "position": 2,
              "duration": 0.2375
            },
            {
              "pitch": 81,
              "velocity": 60,
              "position": 2.0104166666666665,
              "duration": 0.23541666666666666
            },
            {
              "pitch": 86,
              "velocity": 52,
              "position": 2.0104166666666665,
              "duration": 0.2375
            },
            {
              "pitch": 105,
              "velocity": 75,
              "position": 2.2708333333333335,
              "duration": 0.23541666666666666
            },
            {
              "pitch": 106,
              "velocity": 125,
              "position": 2.5,
              "duration": 0.23541666666666666
            },
            {
              "pitch": 107,
              "velocity": 80,
              "position": 2.7708333333333335,
              "duration": 0.23541666666666666
            },
            {
              "pitch": 86,
              "velocity": 52,
              "position": 2.7729166666666667,
              "duration": 0.2375
            },
            {
              "pitch": 81,
              "velocity": 58,
              "position": 2.78125,
              "duration": 0.23541666666666666
            },
            {
              "pitch": 42,
              "velocity": 60,
              "position": 2.785416666666667,
              "duration": 0.2375
            },
            {
              "pitch": 36,
              "velocity": 60,
              "position": 2.7916666666666665,
              "duration": 0.2375
            },
            {
              "pitch": 108,
              "velocity": 97,
              "position": 3,
              "duration": 0.23541666666666666
            },
            {
              "pitch": 105,
              "velocity": 127,
              "position": 3.2708333333333335,
              "duration": 0.20416666666666666
            },
            {
              "pitch": 36,
              "velocity": 51,
              "position": 3.285416666666667,
              "duration": 0.2
            },
            {
              "pitch": 42,
              "velocity": 42,
              "position": 3.28125,
              "duration": 0.20833333333333334
            },
            {
              "pitch": 81,
              "velocity": 40,
              "position": 3.2729166666666667,
              "duration": 0.21875
            },
            {
              "pitch": 106,
              "velocity": 96,
              "position": 3.5,
              "duration": 0.23541666666666666
            },
            {
              "pitch": 86,
              "velocity": 60,
              "position": 3.5104166666666665,
              "duration": 0.24791666666666667
            },
            {
              "pitch": 81,
              "velocity": 56,
              "position": 3.5104166666666665,
              "duration": 0.25625
            },
            {
              "pitch": 42,
              "velocity": 55,
              "position": 3.5,
              "duration": 0.26875
            },
            {
              "pitch": 107,
              "velocity": 120,
              "position": 3.7708333333333335,
              "duration": 0.20416666666666666
            },
            {
              "pitch": 36,
              "velocity": 56,
              "position": 3.5,
              "duration": 0.48541666666666666
            },
            {
              "pitch": 86,
              "velocity": 40,
              "position": 3.7729166666666667,
              "duration": 0.2375
            },
            {
              "pitch": 81,
              "velocity": 42,
              "position": 3.78125,
              "duration": 0.23541666666666666
            },
            {
              "pitch": 42,
              "velocity": 51,
              "position": 3.785416666666667,
              "duration": 0.2375
            },
            {
              "pitch": 108,
              "velocity": 115,
              "position": 4,
              "duration": 0.23541666666666666
            },
            {
              "pitch": 105,
              "velocity": 79,
              "position": 4.270833333333333,
              "duration": 0.23541666666666666
            },
            {
              "pitch": 36,
              "velocity": 51,
              "position": 4.5,
              "duration": 0.23541666666666666
            },
            {
              "pitch": 106,
              "velocity": 122,
              "position": 4.5,
              "duration": 0.23541666666666666
            },
            {
              "pitch": 41,
              "velocity": 59,
              "position": 4.5,
              "duration": 0.2375
            },
            {
              "pitch": 81,
              "velocity": 56,
              "position": 4.510416666666667,
              "duration": 0.23541666666666666
            },
            {
              "pitch": 88,
              "velocity": 59,
              "position": 4.510416666666667,
              "duration": 0.2375
            },
            {
              "pitch": 107,
              "velocity": 76,
              "position": 4.770833333333333,
              "duration": 0.23541666666666666
            },
            {
              "pitch": 108,
              "velocity": 124,
              "position": 5,
              "duration": 0.23541666666666666
            },
            {
              "pitch": 105,
              "velocity": 89,
              "position": 5.270833333333333,
              "duration": 0.23541666666666666
            },
            {
              "pitch": 88,
              "velocity": 60,
              "position": 5.272916666666666,
              "duration": 0.2375
            },
            {
              "pitch": 81,
              "velocity": 60,
              "position": 5.28125,
              "duration": 0.23541666666666666
            },
            {
              "pitch": 41,
              "velocity": 51,
              "position": 5.285416666666666,
              "duration": 0.2375
            },
            {
              "pitch": 36,
              "velocity": 59,
              "position": 5.291666666666667,
              "duration": 0.2375
            },
            {
              "pitch": 106,
              "velocity": 90,
              "position": 5.5,
              "duration": 0.23541666666666666
            },
            {
              "pitch": 107,
              "velocity": 127,
              "position": 5.770833333333333,
              "duration": 0.20416666666666666
            },
            {
              "pitch": 36,
              "velocity": 55,
              "position": 6,
              "duration": 0.23541666666666666
            },
            {
              "pitch": 108,
              "velocity": 122,
              "position": 6,
              "duration": 0.23541666666666666
            },
            {
              "pitch": 40,
              "velocity": 55,
              "position": 6,
              "duration": 0.2375
            },
            {
              "pitch": 79,
              "velocity": 60,
              "position": 6.010416666666667,
              "duration": 0.23541666666666666
            },
            {
              "pitch": 84,
              "velocity": 57,
              "position": 6.010416666666667,
              "duration": 0.2375
            },
            {
              "pitch": 105,
              "velocity": 74,
              "position": 6.270833333333333,
              "duration": 0.23541666666666666
            },
            {
              "pitch": 106,
              "velocity": 117,
              "position": 6.5,
              "duration": 0.23541666666666666
            },
            {
              "pitch": 107,
              "velocity": 74,
              "position": 6.770833333333333,
              "duration": 0.23541666666666666
            },
            {
              "pitch": 84,
              "velocity": 60,
              "position": 6.772916666666666,
              "duration": 0.2375
            },
            {
              "pitch": 79,
              "velocity": 52,
              "position": 6.78125,
              "duration": 0.23541666666666666
            },
            {
              "pitch": 40,
              "velocity": 60,
              "position": 6.785416666666666,
              "duration": 0.2375
            },
            {
              "pitch": 36,
              "velocity": 60,
              "position": 6.791666666666667,
              "duration": 0.2375
            },
            {
              "pitch": 108,
              "velocity": 99,
              "position": 7,
              "duration": 0.23541666666666666
            },
            {
              "pitch": 105,
              "velocity": 124,
              "position": 7.270833333333333,
              "duration": 0.20416666666666666
            },
            {
              "pitch": 35,
              "velocity": 53,
              "position": 7.285416666666666,
              "duration": 0.2
            },
            {
              "pitch": 43,
              "velocity": 44,
              "position": 7.28125,
              "duration": 0.20833333333333334
            },
            {
              "pitch": 79,
              "velocity": 38,
              "position": 7.272916666666666,
              "duration": 0.21875
            },
            {
              "pitch": 106,
              "velocity": 100,
              "position": 7.5,
              "duration": 0.23541666666666666
            },
            {
              "pitch": 86,
              "velocity": 60,
              "position": 7.510416666666667,
              "duration": 0.24791666666666667
            },
            {
              "pitch": 79,
              "velocity": 60,
              "position": 7.510416666666667,
              "duration": 0.25625
            },
            {
              "pitch": 43,
              "velocity": 60,
              "position": 7.5,
              "duration": 0.26875
            },
            {
              "pitch": 107,
              "velocity": 127,
              "position": 7.770833333333333,
              "duration": 0.20416666666666666
            },
            {
              "pitch": 35,
              "velocity": 60,
              "position": 7.5,
              "duration": 0.48541666666666666
            },
            {
              "pitch": 86,
              "velocity": 38,
              "position": 7.772916666666666,
              "duration": 0.2375
            },
            {
              "pitch": 79,
              "velocity": 44,
              "position": 7.78125,
              "duration": 0.23541666666666666
            },
            {
              "pitch": 43,
              "velocity": 53,
              "position": 7.785416666666666,
              "duration": 0.2375
            },
            {
              "pitch": 108,
              "velocity": 114,
              "position": 8,
              "duration": 0.23541666666666666
            },
            {
              "pitch": 105,
              "velocity": 74,
              "position": 8.270833333333334,
              "duration": 0.23541666666666666
            },
            {
              "pitch": 36,
              "velocity": 60,
              "position": 8.5,
              "duration": 0.23541666666666666
            },
            {
              "pitch": 106,
              "velocity": 120,
              "position": 8.5,
              "duration": 0.23541666666666666
            },
            {
              "pitch": 40,
              "velocity": 59,
              "position": 8.5,
              "duration": 0.2375
            },
            {
              "pitch": 79,
              "velocity": 60,
              "position": 8.510416666666666,
              "duration": 0.23541666666666666
            },
            {
              "pitch": 84,
              "velocity": 56,
              "position": 8.510416666666666,
              "duration": 0.2375
            },
            {
              "pitch": 107,
              "velocity": 88,
              "position": 8.770833333333334,
              "duration": 0.23541666666666666
            },
            {
              "pitch": 108,
              "velocity": 123,
              "position": 9,
              "duration": 0.23541666666666666
            },
            {
              "pitch": 105,
              "velocity": 78,
              "position": 9.270833333333334,
              "duration": 0.23541666666666666
            },
            {
              "pitch": 84,
              "velocity": 56,
              "position": 9.272916666666667,
              "duration": 0.2375
            },
            {
              "pitch": 79,
              "velocity": 51,
              "position": 9.28125,
              "duration": 0.23541666666666666
            },
            {
              "pitch": 40,
              "velocity": 60,
              "position": 9.285416666666666,
              "duration": 0.2375
            },
            {
              "pitch": 36,
              "velocity": 54,
              "position": 9.291666666666666,
              "duration": 0.2375
            },
            {
              "pitch": 106,
              "velocity": 96,
              "position": 9.5,
              "duration": 0.23541666666666666
            },
            {
              "pitch": 107,
              "velocity": 119,
              "position": 9.770833333333334,
              "duration": 0.20416666666666666
            },
            {
              "pitch": 36,
              "velocity": 60,
              "position": 10,
              "duration": 0.23541666666666666
            },
            {
              "pitch": 108,
              "velocity": 127,
              "position": 10,
              "duration": 0.23541666666666666
            },
            {
              "pitch": 42,
              "velocity": 60,
              "position": 10,
              "duration": 0.2375
            },
            {
              "pitch": 81,
              "velocity": 60,
              "position": 10.010416666666666,
              "duration": 0.23541666666666666
            },
            {
              "pitch": 86,
              "velocity": 52,
              "position": 10.010416666666666,
              "duration": 0.2375
            },
            {
              "pitch": 105,
              "velocity": 87,
              "position": 10.270833333333334,
              "duration": 0.23541666666666666
            },
            {
              "pitch": 106,
              "velocity": 125,
              "position": 10.5,
              "duration": 0.23541666666666666
            },
            {
              "pitch": 107,
              "velocity": 76,
              "position": 10.770833333333334,
              "duration": 0.23541666666666666
            },
            {
              "pitch": 86,
              "velocity": 52,
              "position": 10.772916666666667,
              "duration": 0.2375
            },
            {
              "pitch": 81,
              "velocity": 58,
              "position": 10.78125,
              "duration": 0.23541666666666666
            },
            {
              "pitch": 42,
              "velocity": 60,
              "position": 10.785416666666666,
              "duration": 0.2375
            },
            {
              "pitch": 36,
              "velocity": 60,
              "position": 10.791666666666666,
              "duration": 0.2375
            },
            {
              "pitch": 108,
              "velocity": 89,
              "position": 11,
              "duration": 0.23541666666666666
            },
            {
              "pitch": 105,
              "velocity": 127,
              "position": 11.270833333333334,
              "duration": 0.20416666666666666
            },
            {
              "pitch": 36,
              "velocity": 51,
              "position": 11.285416666666666,
              "duration": 0.2
            },
            {
              "pitch": 42,
              "velocity": 42,
              "position": 11.28125,
              "duration": 0.20833333333333334
            },
            {
              "pitch": 81,
              "velocity": 40,
              "position": 11.272916666666667,
              "duration": 0.21875
            },
            {
              "pitch": 106,
              "velocity": 98,
              "position": 11.5,
              "duration": 0.23541666666666666
            },
            {
              "pitch": 86,
              "velocity": 60,
              "position": 11.510416666666666,
              "duration": 0.24791666666666667
            },
            {
              "pitch": 81,
              "velocity": 56,
              "position": 11.510416666666666,
              "duration": 0.25625
            },
            {
              "pitch": 42,
              "velocity": 55,
              "position": 11.5,
              "duration": 0.26875
            },
            {
              "pitch": 107,
              "velocity": 114,
              "position": 11.770833333333334,
              "duration": 0.20416666666666666
            },
            {
              "pitch": 36,
              "velocity": 56,
              "position": 11.5,
              "duration": 0.48541666666666666
            },
            {
              "pitch": 86,
              "velocity": 40,
              "position": 11.772916666666667,
              "duration": 0.2375
            },
            {
              "pitch": 81,
              "velocity": 42,
              "position": 11.78125,
              "duration": 0.23541666666666666
            },
            {
              "pitch": 42,
              "velocity": 51,
              "position": 11.785416666666666,
              "duration": 0.2375
            },
            {
              "pitch": 108,
              "velocity": 116,
              "position": 12,
              "duration": 0.23541666666666666
            },
            {
              "pitch": 105,
              "velocity": 78,
              "position": 12.270833333333334,
              "duration": 0.23541666666666666
            },
            {
              "pitch": 36,
              "velocity": 51,
              "position": 12.5,
              "duration": 0.23541666666666666
            },
            {
              "pitch": 106,
              "velocity": 126,
              "position": 12.5,
              "duration": 0.23541666666666666
            },
            {
              "pitch": 41,
              "velocity": 59,
              "position": 12.5,
              "duration": 0.2375
            },
            {
              "pitch": 81,
              "velocity": 56,
              "position": 12.510416666666666,
              "duration": 0.23541666666666666
            },
            {
              "pitch": 88,
              "velocity": 59,
              "position": 12.510416666666666,
              "duration": 0.2375
            },
            {
              "pitch": 107,
              "velocity": 83,
              "position": 12.770833333333334,
              "duration": 0.23541666666666666
            },
            {
              "pitch": 108,
              "velocity": 123,
              "position": 13,
              "duration": 0.23541666666666666
            },
            {
              "pitch": 105,
              "velocity": 72,
              "position": 13.270833333333334,
              "duration": 0.23541666666666666
            },
            {
              "pitch": 88,
              "velocity": 60,
              "position": 13.272916666666667,
              "duration": 0.2375
            },
            {
              "pitch": 81,
              "velocity": 60,
              "position": 13.28125,
              "duration": 0.23541666666666666
            },
            {
              "pitch": 41,
              "velocity": 51,
              "position": 13.285416666666666,
              "duration": 0.2375
            },
            {
              "pitch": 36,
              "velocity": 59,
              "position": 13.291666666666666,
              "duration": 0.2375
            },
            {
              "pitch": 106,
              "velocity": 97,
              "position": 13.5,
              "duration": 0.23541666666666666
            },
            {
              "pitch": 107,
              "velocity": 118,
              "position": 13.770833333333334,
              "duration": 0.20416666666666666
            },
            {
              "pitch": 108,
              "velocity": 116,
              "position": 14,
              "duration": 0.23541666666666666
            },
            {
              "pitch": 41,
              "velocity": 60,
              "position": 14,
              "duration": 1.98125
            },
            {
              "pitch": 88,
              "velocity": 59,
              "position": 14.010416666666666,
              "duration": 1.9708333333333334
            },
            {
              "pitch": 36,
              "velocity": 60,
              "position": 14,
              "duration": 1.9854166666666666
            },
            {
              "pitch": 81,
              "velocity": 60,
              "position": 14.010416666666666,
              "duration": 1.975
            }
          ]
        }
      }
    },
    "Ending_C": {
      "type": "Ending_C",
      "sizeInBeats": 20,
      "channels": {
        "1": {
          "ctab": {
            "srcChannel": 1,
            "name": "Bass",
            "accType": "BASS",
            "editable": false,
            "mutedNotes": [],
            "mutedChords": [
              "1+2+5",
              "sus4",
              "1+5",
              "1+8",
              "7aug",
              "Maj7aug",
              "7(#9)",
              "7(b13)",
              "7(b9)",
              "7(13)",
              "7#11",
              "7(9)",
              "7b5",
              "7sus4",
              "7th",
              "aug",
              "Maj6(9)",
              "Maj7(9)",
              "Maj(9)",
              "Maj7#11",
              "Maj7",
              "Maj6",
              "Maj"
            ],
            "autoStart": false,
            "sourceChordNote": 0,
            "sourceChordType": "min",
            "ctb2Low": null,
            "ctb2Main": {
              "ntr": "ROOT_TRANSPOSITION",
              "ntt": "BYPASS",
              "bassOn": false,
              "chordRootUpperLimit": 8,
              "noteLowLimit": 28,
              "noteHighLimit": 127,
              "rtr": "PITCH_SHIFT"
            },
            "ctb2High": null
          },
          "notes": [
            {
              "pitch": 24,
              "velocity": 70,
              "position": 0,
              "duration": 0.29791666666666666
            },
            {
              "pitch": 24,
              "velocity": 69,
              "position": 0.4791666666666667,
              "duration": 0.6104166666666667
            },
            {
              "pitch": 24,
              "velocity": 110,
              "position": 1.2708333333333333,
              "duration": 0.21458333333333332
            },
            {
              "pitch": 29,
              "velocity": 69,
              "position": 1.5,
              "duration": 0.19375
            },
            {
              "pitch": 29,
              "velocity": 63,
              "position": 1.7604166666666667,
              "duration": 0.19375
            },
            {
              "pitch": 29,
              "velocity": 66,
              "position": 1.98125,
              "duration": 0.3
            },
            {
              "pitch": 29,
              "velocity": 71,
              "position": 2.5,
              "duration": 0.6104166666666667
            },
            {
              "pitch": 29,
              "velocity": 110,
              "position": 3.285416666666667,
              "duration": 0.20208333333333334
            },
            {
              "pitch": 34,
              "velocity": 70,
              "position": 3.5,
              "duration": 0.19583333333333333
            },
            {
              "pitch": 34,
              "velocity": 57,
              "position": 3.785416666666667,
              "duration": 0.19583333333333333
            },
            {
              "pitch": 34,
              "velocity": 70,
              "position": 4,
              "duration": 0.29791666666666666
            },
            {
              "pitch": 34,
              "velocity": 70,
              "position": 4.479166666666667,
              "duration": 0.6104166666666667
            },
            {
              "pitch": 34,
              "velocity": 110,
              "position": 5.270833333333333,
              "duration": 0.20625
            },
            {
              "pitch": 34,
              "velocity": 71,
              "position": 5.489583333333333,
              "duration": 0.2
            },
            {
              "pitch": 34,
              "velocity": 64,
              "position": 5.770833333333333,
              "duration": 0.2
            },
            {
              "pitch": 34,
              "velocity": 68,
              "position": 6.010416666666667,
              "duration": 0.29791666666666666
            },
            {
              "pitch": 34,
              "velocity": 68,
              "position": 6.489583333333333,
              "duration": 0.50625
            },
            {
              "pitch": 34,
              "velocity": 110,
              "position": 7.0125,
              "duration": 0.2375
            },
            {
              "pitch": 31,
              "velocity": 71,
              "position": 7.270833333333333,
              "duration": 0.66875
            },
            {
              "pitch": 24,
              "velocity": 68,
              "position": 8,
              "duration": 0.29791666666666666
            },
            {
              "pitch": 24,
              "velocity": 67,
              "position": 8.5,
              "duration": 0.6104166666666667
            },
            {
              "pitch": 24,
              "velocity": 110,
              "position": 9.25,
              "duration": 0.21458333333333332
            },
            {
              "pitch": 29,
              "velocity": 71,
              "position": 9.48125,
              "duration": 0.19791666666666666
            },
            {
              "pitch": 29,
              "velocity": 62,
              "position": 9.752083333333333,
              "duration": 0.19791666666666666
            },
            {
              "pitch": 29,
              "velocity": 69,
              "position": 9.991666666666667,
              "duration": 0.3
            },
            {
              "pitch": 29,
              "velocity": 68,
              "position": 10.489583333333334,
              "duration": 0.6125
            },
            {
              "pitch": 29,
              "velocity": 110,
              "position": 11.260416666666666,
              "duration": 0.21666666666666667
            },
            {
              "pitch": 29,
              "velocity": 70,
              "position": 11.504166666666666,
              "duration": 0.2375
            },
            {
              "pitch": 29,
              "velocity": 64,
              "position": 11.783333333333333,
              "duration": 0.19791666666666666
            },
            {
              "pitch": 19,
              "velocity": 68,
              "position": 12,
              "duration": 0.29791666666666666
            },
            {
              "pitch": 19,
              "velocity": 74,
              "position": 12.48125,
              "duration": 0.3625
            },
            {
              "pitch": 19,
              "velocity": 69,
              "position": 13.285416666666666,
              "duration": 0.42083333333333334
            },
            {
              "pitch": 24,
              "velocity": 67,
              "position": 14,
              "duration": 4.991666666666666
            }
          ]
        },
        "2": {
          "ctab": {
            "srcChannel": 2,
            "name": "Strat",
            "accType": "CHORD1",
            "editable": false,
            "mutedNotes": [],
            "mutedChords": [
              "1+2+5",
              "sus4",
              "1+5",
              "1+8",
              "7aug",
              "Maj7aug",
              "7(#9)",
              "7(b13)",
              "7(b9)",
              "7(13)",
              "7#11",
              "7(9)",
              "7b5",
              "7sus4",
              "7th",
              "aug",
              "Maj6(9)",
              "Maj7(9)",
              "Maj(9)",
              "Maj7#11",
              "Maj7",
              "Maj6",
              "Maj"
            ],
            "autoStart": false,
            "sourceChordNote": 0,
            "sourceChordType": "min",
            "ctb2Low": null,
            "ctb2Main": {
              "ntr": "ROOT_TRANSPOSITION",
              "ntt": "BYPASS",
              "bassOn": false,
              "chordRootUpperLimit": 8,
              "noteLowLimit": 54,
              "noteHighLimit": 72,
              "rtr": "PITCH_SHIFT"
            },
            "ctb2High": null
          },
          "notes": [
            {
              "pitch": 106,
              "velocity": 127,
              "position": 0.010416666666666666,
              "duration": 0.23541666666666666
            },
            {
              "pitch": 107,
              "velocity": 82,
              "position": 0.2708333333333333,
              "duration": 0.23541666666666666
            },
            {
              "pitch": 46,
              "velocity": 57,
              "position": 0.5,
              "duration": 0.23541666666666666
            },
            {
              "pitch": 108,
              "velocity": 121,
              "position": 0.5,
              "duration": 0.23541666666666666
            },
            {
              "pitch": 51,
              "velocity": 48,
              "position": 0.5,
              "duration": 0.2375
            },
            {
              "pitch": 79,
              "velocity": 56,
              "position": 0.5104166666666666,
              "duration": 0.23541666666666666
            },
            {
              "pitch": 84,
              "velocity": 45,
              "position": 0.5104166666666666,
              "duration": 0.2375
            },
            {
              "pitch": 105,
              "velocity": 81,
              "position": 0.7708333333333334,
              "duration": 0.23541666666666666
            },
            {
              "pitch": 106,
              "velocity": 103,
              "position": 1,
              "duration": 0.23541666666666666
            },
            {
              "pitch": 79,
              "velocity": 31,
              "position": 1.0104166666666667,
              "duration": 0.25625
            },
            {
              "pitch": 51,
              "velocity": 35,
              "position": 1,
              "duration": 0.26875
            },
            {
              "pitch": 46,
              "velocity": 42,
              "position": 1,
              "duration": 0.27708333333333335
            },
            {
              "pitch": 107,
              "velocity": 123,
              "position": 1.2708333333333333,
              "duration": 0.20416666666666666
            },
            {
              "pitch": 84,
              "velocity": 45,
              "position": 1.2708333333333333,
              "duration": 0.2375
            },
            {
              "pitch": 79,
              "velocity": 40,
              "position": 1.28125,
              "duration": 0.23541666666666666
            },
            {
              "pitch": 51,
              "velocity": 51,
              "position": 1.28125,
              "duration": 0.2375
            },
            {
              "pitch": 46,
              "velocity": 43,
              "position": 1.2916666666666667,
              "duration": 0.23541666666666666
            },
            {
              "pitch": 108,
              "velocity": 118,
              "position": 1.5,
              "duration": 0.23541666666666666
            },
            {
              "pitch": 105,
              "velocity": 75,
              "position": 1.7708333333333333,
              "duration": 0.23541666666666666
            },
            {
              "pitch": 106,
              "velocity": 125,
              "position": 2,
              "duration": 0.23541666666666666
            },
            {
              "pitch": 51,
              "velocity": 56,
              "position": 2,
              "duration": 0.25833333333333336
            },
            {
              "pitch": 45,
              "velocity": 56,
              "position": 2,
              "duration": 0.26666666666666666
            },
            {
              "pitch": 45,
              "velocity": 23,
              "position": 2.28125,
              "duration": 0.20416666666666666
            },
            {
              "pitch": 51,
              "velocity": 25,
              "position": 2.2708333333333335,
              "duration": 0.21666666666666667
            },
            {
              "pitch": 77,
              "velocity": 49,
              "position": 2.0104166666666665,
              "duration": 0.48541666666666666
            },
            {
              "pitch": 107,
              "velocity": 80,
              "position": 2.2708333333333335,
              "duration": 0.23541666666666666
            },
            {
              "pitch": 108,
              "velocity": 97,
              "position": 2.5,
              "duration": 0.23541666666666666
            },
            {
              "pitch": 84,
              "velocity": 41,
              "position": 2.0104166666666665,
              "duration": 0.7479166666666667
            },
            {
              "pitch": 77,
              "velocity": 34,
              "position": 2.5104166666666665,
              "duration": 0.25625
            },
            {
              "pitch": 51,
              "velocity": 50,
              "position": 2.5,
              "duration": 0.26875
            },
            {
              "pitch": 45,
              "velocity": 41,
              "position": 2.5,
              "duration": 0.27708333333333335
            },
            {
              "pitch": 84,
              "velocity": 41,
              "position": 2.7708333333333335,
              "duration": 0.20416666666666666
            },
            {
              "pitch": 105,
              "velocity": 127,
              "position": 2.7708333333333335,
              "duration": 0.20416666666666666
            },
            {
              "pitch": 51,
              "velocity": 51,
              "position": 2.78125,
              "duration": 0.20416666666666666
            },
            {
              "pitch": 77,
              "velocity": 47,
              "position": 2.78125,
              "duration": 0.20416666666666666
            },
            {
              "pitch": 45,
              "velocity": 51,
              "position": 2.7916666666666665,
              "duration": 0.20416666666666666
            },
            {
              "pitch": 106,
              "velocity": 96,
              "position": 3,
              "duration": 0.23541666666666666
            },
            {
              "pitch": 107,
              "velocity": 120,
              "position": 3.2708333333333335,
              "duration": 0.20416666666666666
            },
            {
              "pitch": 108,
              "velocity": 115,
              "position": 3.5,
              "duration": 0.23541666666666666
            },
            {
              "pitch": 84,
              "velocity": 56,
              "position": 3.5104166666666665,
              "duration": 0.24791666666666667
            },
            {
              "pitch": 77,
              "velocity": 45,
              "position": 3.5104166666666665,
              "duration": 0.25625
            },
            {
              "pitch": 51,
              "velocity": 44,
              "position": 3.5,
              "duration": 0.26875
            },
            {
              "pitch": 45,
              "velocity": 45,
              "position": 3.5,
              "duration": 0.48541666666666666
            },
            {
              "pitch": 105,
              "velocity": 79,
              "position": 3.7708333333333335,
              "duration": 0.23541666666666666
            },
            {
              "pitch": 84,
              "velocity": 34,
              "position": 3.7708333333333335,
              "duration": 0.2375
            },
            {
              "pitch": 77,
              "velocity": 36,
              "position": 3.78125,
              "duration": 0.23541666666666666
            },
            {
              "pitch": 51,
              "velocity": 45,
              "position": 3.78125,
              "duration": 0.2375
            },
            {
              "pitch": 106,
              "velocity": 122,
              "position": 4,
              "duration": 0.23541666666666666
            },
            {
              "pitch": 107,
              "velocity": 76,
              "position": 4.270833333333333,
              "duration": 0.23541666666666666
            },
            {
              "pitch": 44,
              "velocity": 40,
              "position": 4.5,
              "duration": 0.23541666666666666
            },
            {
              "pitch": 108,
              "velocity": 124,
              "position": 4.5,
              "duration": 0.23541666666666666
            },
            {
              "pitch": 48,
              "velocity": 48,
              "position": 4.5,
              "duration": 0.2375
            },
            {
              "pitch": 80,
              "velocity": 45,
              "position": 4.510416666666667,
              "duration": 0.23541666666666666
            },
            {
              "pitch": 87,
              "velocity": 48,
              "position": 4.510416666666667,
              "duration": 0.2375
            },
            {
              "pitch": 105,
              "velocity": 89,
              "position": 4.770833333333333,
              "duration": 0.23541666666666666
            },
            {
              "pitch": 106,
              "velocity": 90,
              "position": 5,
              "duration": 0.23541666666666666
            },
            {
              "pitch": 80,
              "velocity": 38,
              "position": 5.010416666666667,
              "duration": 0.25625
            },
            {
              "pitch": 48,
              "velocity": 36,
              "position": 5,
              "duration": 0.26875
            },
            {
              "pitch": 44,
              "velocity": 29,
              "position": 5,
              "duration": 0.27708333333333335
            },
            {
              "pitch": 107,
              "velocity": 127,
              "position": 5.270833333333333,
              "duration": 0.20416666666666666
            },
            {
              "pitch": 87,
              "velocity": 56,
              "position": 5.270833333333333,
              "duration": 0.2375
            },
            {
              "pitch": 80,
              "velocity": 51,
              "position": 5.28125,
              "duration": 0.23541666666666666
            },
            {
              "pitch": 48,
              "velocity": 40,
              "position": 5.28125,
              "duration": 0.2375
            },
            {
              "pitch": 44,
              "velocity": 48,
              "position": 5.291666666666667,
              "duration": 0.23541666666666666
            },
            {
              "pitch": 108,
              "velocity": 122,
              "position": 5.5,
              "duration": 0.23541666666666666
            },
            {
              "pitch": 105,
              "velocity": 74,
              "position": 5.770833333333333,
              "duration": 0.23541666666666666
            },
            {
              "pitch": 106,
              "velocity": 117,
              "position": 6,
              "duration": 0.23541666666666666
            },
            {
              "pitch": 51,
              "velocity": 44,
              "position": 6,
              "duration": 0.25833333333333336
            },
            {
              "pitch": 46,
              "velocity": 44,
              "position": 6,
              "duration": 0.26666666666666666
            },
            {
              "pitch": 46,
              "velocity": 32,
              "position": 6.28125,
              "duration": 0.20416666666666666
            },
            {
              "pitch": 51,
              "velocity": 26,
              "position": 6.270833333333333,
              "duration": 0.21666666666666667
            },
            {
              "pitch": 79,
              "velocity": 58,
              "position": 6.010416666666667,
              "duration": 0.48541666666666666
            },
            {
              "pitch": 107,
              "velocity": 74,
              "position": 6.270833333333333,
              "duration": 0.23541666666666666
            },
            {
              "pitch": 108,
              "velocity": 99,
              "position": 6.5,
              "duration": 0.23541666666666666
            },
            {
              "pitch": 84,
              "velocity": 46,
              "position": 6.010416666666667,
              "duration": 0.7479166666666667
            },
            {
              "pitch": 79,
              "velocity": 37,
              "position": 6.510416666666667,
              "duration": 0.25625
            },
            {
              "pitch": 51,
              "velocity": 43,
              "position": 6.5,
              "duration": 0.26875
            },
            {
              "pitch": 46,
              "velocity": 45,
              "position": 6.5,
              "duration": 0.27708333333333335
            },
            {
              "pitch": 84,
              "velocity": 54,
              "position": 6.770833333333333,
              "duration": 0.20416666666666666
            },
            {
              "pitch": 105,
              "velocity": 124,
              "position": 6.770833333333333,
              "duration": 0.20416666666666666
            },
            {
              "pitch": 51,
              "velocity": 50,
              "position": 6.78125,
              "duration": 0.20416666666666666
            },
            {
              "pitch": 79,
              "velocity": 41,
              "position": 6.78125,
              "duration": 0.20416666666666666
            },
            {
              "pitch": 46,
              "velocity": 56,
              "position": 6.791666666666667,
              "duration": 0.20416666666666666
            },
            {
              "pitch": 106,
              "velocity": 100,
              "position": 7,
              "duration": 0.23541666666666666
            },
            {
              "pitch": 107,
              "velocity": 127,
              "position": 7.270833333333333,
              "duration": 0.20416666666666666
            },
            {
              "pitch": 108,
              "velocity": 114,
              "position": 7.5,
              "duration": 0.23541666666666666
            },
            {
              "pitch": 86,
              "velocity": 58,
              "position": 7.510416666666667,
              "duration": 0.24791666666666667
            },
            {
              "pitch": 79,
              "velocity": 57,
              "position": 7.510416666666667,
              "duration": 0.25625
            },
            {
              "pitch": 46,
              "velocity": 56,
              "position": 7.5,
              "duration": 0.26875
            },
            {
              "pitch": 41,
              "velocity": 50,
              "position": 7.5,
              "duration": 0.48541666666666666
            },
            {
              "pitch": 105,
              "velocity": 74,
              "position": 7.770833333333333,
              "duration": 0.23541666666666666
            },
            {
              "pitch": 86,
              "velocity": 32,
              "position": 7.770833333333333,
              "duration": 0.2375
            },
            {
              "pitch": 79,
              "velocity": 38,
              "position": 7.78125,
              "duration": 0.23541666666666666
            },
            {
              "pitch": 46,
              "velocity": 47,
              "position": 7.78125,
              "duration": 0.2375
            },
            {
              "pitch": 106,
              "velocity": 120,
              "position": 8,
              "duration": 0.23541666666666666
            },
            {
              "pitch": 107,
              "velocity": 88,
              "position": 8.270833333333334,
              "duration": 0.23541666666666666
            },
            {
              "pitch": 46,
              "velocity": 44,
              "position": 8.5,
              "duration": 0.23541666666666666
            },
            {
              "pitch": 108,
              "velocity": 123,
              "position": 8.5,
              "duration": 0.23541666666666666
            },
            {
              "pitch": 51,
              "velocity": 57,
              "position": 8.5,
              "duration": 0.2375
            },
            {
              "pitch": 79,
              "velocity": 48,
              "position": 8.510416666666666,
              "duration": 0.23541666666666666
            },
            {
              "pitch": 84,
              "velocity": 51,
              "position": 8.510416666666666,
              "duration": 0.2375
            },
            {
              "pitch": 105,
              "velocity": 78,
              "position": 8.770833333333334,
              "duration": 0.23541666666666666
            },
            {
              "pitch": 106,
              "velocity": 96,
              "position": 9,
              "duration": 0.23541666666666666
            },
            {
              "pitch": 79,
              "velocity": 40,
              "position": 9.010416666666666,
              "duration": 0.25625
            },
            {
              "pitch": 51,
              "velocity": 33,
              "position": 9,
              "duration": 0.26875
            },
            {
              "pitch": 46,
              "velocity": 26,
              "position": 9,
              "duration": 0.27708333333333335
            },
            {
              "pitch": 107,
              "velocity": 119,
              "position": 9.270833333333334,
              "duration": 0.20416666666666666
            },
            {
              "pitch": 84,
              "velocity": 43,
              "position": 9.270833333333334,
              "duration": 0.2375
            },
            {
              "pitch": 79,
              "velocity": 46,
              "position": 9.28125,
              "duration": 0.23541666666666666
            },
            {
              "pitch": 51,
              "velocity": 49,
              "position": 9.28125,
              "duration": 0.2375
            },
            {
              "pitch": 46,
              "velocity": 47,
              "position": 9.291666666666666,
              "duration": 0.23541666666666666
            },
            {
              "pitch": 108,
              "velocity": 127,
              "position": 9.5,
              "duration": 0.23541666666666666
            },
            {
              "pitch": 105,
              "velocity": 87,
              "position": 9.770833333333334,
              "duration": 0.23541666666666666
            },
            {
              "pitch": 106,
              "velocity": 125,
              "position": 10,
              "duration": 0.23541666666666666
            },
            {
              "pitch": 51,
              "velocity": 53,
              "position": 10,
              "duration": 0.25833333333333336
            },
            {
              "pitch": 45,
              "velocity": 50,
              "position": 10,
              "duration": 0.26666666666666666
            },
            {
              "pitch": 45,
              "velocity": 31,
              "position": 10.28125,
              "duration": 0.20416666666666666
            },
            {
              "pitch": 51,
              "velocity": 26,
              "position": 10.270833333333334,
              "duration": 0.21666666666666667
            },
            {
              "pitch": 77,
              "velocity": 41,
              "position": 10.010416666666666,
              "duration": 0.48541666666666666
            },
            {
              "pitch": 107,
              "velocity": 76,
              "position": 10.270833333333334,
              "duration": 0.23541666666666666
            },
            {
              "pitch": 108,
              "velocity": 89,
              "position": 10.5,
              "duration": 0.23541666666666666
            },
            {
              "pitch": 84,
              "velocity": 49,
              "position": 10.010416666666666,
              "duration": 0.7479166666666667
            },
            {
              "pitch": 77,
              "velocity": 36,
              "position": 10.510416666666666,
              "duration": 0.25625
            },
            {
              "pitch": 51,
              "velocity": 41,
              "position": 10.5,
              "duration": 0.26875
            },
            {
              "pitch": 45,
              "velocity": 38,
              "position": 10.5,
              "duration": 0.27708333333333335
            },
            {
              "pitch": 84,
              "velocity": 40,
              "position": 10.770833333333334,
              "duration": 0.20416666666666666
            },
            {
              "pitch": 105,
              "velocity": 127,
              "position": 10.770833333333334,
              "duration": 0.20416666666666666
            },
            {
              "pitch": 51,
              "velocity": 53,
              "position": 10.78125,
              "duration": 0.20416666666666666
            },
            {
              "pitch": 77,
              "velocity": 40,
              "position": 10.78125,
              "duration": 0.20416666666666666
            },
            {
              "pitch": 45,
              "velocity": 52,
              "position": 10.791666666666666,
              "duration": 0.20416666666666666
            },
            {
              "pitch": 106,
              "velocity": 98,
              "position": 11,
              "duration": 0.23541666666666666
            },
            {
              "pitch": 107,
              "velocity": 114,
              "position": 11.270833333333334,
              "duration": 0.20416666666666666
            },
            {
              "pitch": 108,
              "velocity": 116,
              "position": 11.5,
              "duration": 0.23541666666666666
            },
            {
              "pitch": 84,
              "velocity": 42,
              "position": 11.510416666666666,
              "duration": 0.24791666666666667
            },
            {
              "pitch": 77,
              "velocity": 40,
              "position": 11.510416666666666,
              "duration": 0.25625
            },
            {
              "pitch": 51,
              "velocity": 47,
              "position": 11.5,
              "duration": 0.26875
            },
            {
              "pitch": 45,
              "velocity": 40,
              "position": 11.5,
              "duration": 0.48541666666666666
            },
            {
              "pitch": 105,
              "velocity": 78,
              "position": 11.770833333333334,
              "duration": 0.23541666666666666
            },
            {
              "pitch": 84,
              "velocity": 40,
              "position": 11.770833333333334,
              "duration": 0.2375
            },
            {
              "pitch": 77,
              "velocity": 33,
              "position": 11.78125,
              "duration": 0.23541666666666666
            },
            {
              "pitch": 51,
              "velocity": 45,
              "position": 11.78125,
              "duration": 0.2375
            },
            {
              "pitch": 106,
              "velocity": 126,
              "position": 12,
              "duration": 0.23541666666666666
            },
            {
              "pitch": 107,
              "velocity": 83,
              "position": 12.270833333333334,
              "duration": 0.23541666666666666
            },
            {
              "pitch": 41,
              "velocity": 56,
              "position": 12.5,
              "duration": 0.23541666666666666
            },
            {
              "pitch": 108,
              "velocity": 123,
              "position": 12.5,
              "duration": 0.23541666666666666
            },
            {
              "pitch": 47,
              "velocity": 52,
              "position": 12.5,
              "duration": 0.2375
            },
            {
              "pitch": 79,
              "velocity": 46,
              "position": 12.510416666666666,
              "duration": 0.23541666666666666
            },
            {
              "pitch": 87,
              "velocity": 57,
              "position": 12.510416666666666,
              "duration": 0.2375
            },
            {
              "pitch": 105,
              "velocity": 72,
              "position": 12.770833333333334,
              "duration": 0.23541666666666666
            },
            {
              "pitch": 106,
              "velocity": 97,
              "position": 13,
              "duration": 0.23541666666666666
            },
            {
              "pitch": 107,
              "velocity": 118,
              "position": 13.270833333333334,
              "duration": 0.20416666666666666
            },
            {
              "pitch": 87,
              "velocity": 52,
              "position": 13.270833333333334,
              "duration": 0.2375
            },
            {
              "pitch": 79,
              "velocity": 52,
              "position": 13.28125,
              "duration": 0.23541666666666666
            },
            {
              "pitch": 47,
              "velocity": 52,
              "position": 13.28125,
              "duration": 0.2375
            },
            {
              "pitch": 41,
              "velocity": 60,
              "position": 13.291666666666666,
              "duration": 0.23541666666666666
            },
            {
              "pitch": 108,
              "velocity": 116,
              "position": 13.5,
              "duration": 0.23541666666666666
            },
            {
              "pitch": 105,
              "velocity": 74,
              "position": 13.770833333333334,
              "duration": 0.23541666666666666
            },
            {
              "pitch": 106,
              "velocity": 124,
              "position": 14,
              "duration": 0.23541666666666666
            },
            {
              "pitch": 51,
              "velocity": 49,
              "position": 14,
              "duration": 4.991666666666666
            },
            {
              "pitch": 84,
              "velocity": 48,
              "position": 14.010416666666666,
              "duration": 4.98125
            },
            {
              "pitch": 48,
              "velocity": 55,
              "position": 14,
              "duration": 4.995833333333334
            },
            {
              "pitch": 79,
              "velocity": 53,
              "position": 14.010416666666666,
              "duration": 4.985416666666667
            }
          ]
        },
        "3": {
          "ctab": {
            "srcChannel": 3,
            "name": "Piano",
            "accType": "CHORD2",
            "editable": false,
            "mutedNotes": [],
            "mutedChords": [
              "1+2+5",
              "sus4",
              "1+5",
              "1+8",
              "7aug",
              "Maj7aug",
              "7(#9)",
              "7(b13)",
              "7(b9)",
              "7(13)",
              "7#11",
              "7(9)",
              "7b5",
              "7sus4",
              "7th",
              "aug",
              "Maj6(9)",
              "Maj7(9)",
              "Maj(9)",
              "Maj7#11",
              "Maj7",
              "Maj6",
              "Maj"
            ],
            "autoStart": false,
            "sourceChordNote": 0,
            "sourceChordType": "min",
            "ctb2Low": null,
            "ctb2Main": {
              "ntr": "ROOT_TRANSPOSITION",
              "ntt": "BYPASS",
              "bassOn": false,
              "chordRootUpperLimit": 11,
              "noteLowLimit": 0,
              "noteHighLimit": 69,
              "rtr": "PITCH_SHIFT"
            },
            "ctb2High": null
          },
          "notes": [
            {
              "pitch": 24,
              "velocity": 98,
              "position": 0.010416666666666666,
              "duration": 0.21458333333333332
            },
            {
              "pitch": 36,
              "velocity": 98,
              "position": 0.010416666666666666,
              "duration": 0.21458333333333332
            },
            {
              "pitch": 70,
              "velocity": 110,
              "position": 0.010416666666666666,
              "duration": 0.6
            },
            {
              "pitch": 72,
              "velocity": 110,
              "position": 0.010416666666666666,
              "duration": 0.6
            },
            {
              "pitch": 75,
              "velocity": 119,
              "position": 0.010416666666666666,
              "duration": 0.6
            },
            {
              "pitch": 67,
              "velocity": 112,
              "position": 0.010416666666666666,
              "duration": 0.6104166666666667
            },
            {
              "pitch": 24,
              "velocity": 98,
              "position": 0.5,
              "duration": 0.6104166666666667
            },
            {
              "pitch": 36,
              "velocity": 98,
              "position": 0.5,
              "duration": 0.6104166666666667
            },
            {
              "pitch": 70,
              "velocity": 110,
              "position": 1,
              "duration": 0.6
            },
            {
              "pitch": 72,
              "velocity": 110,
              "position": 1,
              "duration": 0.6
            },
            {
              "pitch": 67,
              "velocity": 112,
              "position": 0.9916666666666667,
              "duration": 0.6125
            },
            {
              "pitch": 75,
              "velocity": 119,
              "position": 1.0041666666666667,
              "duration": 0.6
            },
            {
              "pitch": 72,
              "velocity": 112,
              "position": 1.7625,
              "duration": 0.17291666666666666
            },
            {
              "pitch": 75,
              "velocity": 121,
              "position": 1.7708333333333333,
              "duration": 0.19583333333333333
            },
            {
              "pitch": 65,
              "velocity": 110,
              "position": 1.7625,
              "duration": 0.23958333333333334
            },
            {
              "pitch": 69,
              "velocity": 110,
              "position": 1.7625,
              "duration": 0.23958333333333334
            },
            {
              "pitch": 29,
              "velocity": 98,
              "position": 2,
              "duration": 0.21458333333333332
            },
            {
              "pitch": 41,
              "velocity": 98,
              "position": 2,
              "duration": 0.21458333333333332
            },
            {
              "pitch": 65,
              "velocity": 97,
              "position": 2.2645833333333334,
              "duration": 0.12916666666666668
            },
            {
              "pitch": 69,
              "velocity": 97,
              "position": 2.2645833333333334,
              "duration": 0.12916666666666668
            },
            {
              "pitch": 75,
              "velocity": 95,
              "position": 2.275,
              "duration": 0.12083333333333333
            },
            {
              "pitch": 72,
              "velocity": 93,
              "position": 2.2729166666666667,
              "duration": 0.14166666666666666
            },
            {
              "pitch": 29,
              "velocity": 98,
              "position": 2.5,
              "duration": 0.6104166666666667
            },
            {
              "pitch": 41,
              "velocity": 98,
              "position": 2.5,
              "duration": 0.6104166666666667
            },
            {
              "pitch": 65,
              "velocity": 116,
              "position": 2.9895833333333335,
              "duration": 0.8708333333333333
            },
            {
              "pitch": 69,
              "velocity": 116,
              "position": 2.9895833333333335,
              "duration": 0.8708333333333333
            },
            {
              "pitch": 75,
              "velocity": 121,
              "position": 2.99375,
              "duration": 0.9104166666666667
            },
            {
              "pitch": 72,
              "velocity": 105,
              "position": 3.004166666666667,
              "duration": 0.9416666666666667
            },
            {
              "pitch": 22,
              "velocity": 98,
              "position": 4,
              "duration": 0.21458333333333332
            },
            {
              "pitch": 34,
              "velocity": 98,
              "position": 4,
              "duration": 0.21458333333333332
            },
            {
              "pitch": 75,
              "velocity": 116,
              "position": 4,
              "duration": 0.59375
            },
            {
              "pitch": 68,
              "velocity": 121,
              "position": 4,
              "duration": 0.6208333333333333
            },
            {
              "pitch": 72,
              "velocity": 121,
              "position": 4,
              "duration": 0.6208333333333333
            },
            {
              "pitch": 70,
              "velocity": 122,
              "position": 4,
              "duration": 0.6229166666666667
            },
            {
              "pitch": 22,
              "velocity": 98,
              "position": 4.5,
              "duration": 0.6104166666666667
            },
            {
              "pitch": 34,
              "velocity": 98,
              "position": 4.5,
              "duration": 0.6104166666666667
            },
            {
              "pitch": 75,
              "velocity": 116,
              "position": 4.991666666666666,
              "duration": 0.59375
            },
            {
              "pitch": 68,
              "velocity": 121,
              "position": 5,
              "duration": 0.6208333333333333
            },
            {
              "pitch": 70,
              "velocity": 122,
              "position": 5,
              "duration": 0.6208333333333333
            },
            {
              "pitch": 72,
              "velocity": 121,
              "position": 5,
              "duration": 0.6208333333333333
            },
            {
              "pitch": 75,
              "velocity": 122,
              "position": 5.764583333333333,
              "duration": 0.17083333333333334
            },
            {
              "pitch": 67,
              "velocity": 112,
              "position": 5.772916666666666,
              "duration": 0.17708333333333334
            },
            {
              "pitch": 70,
              "velocity": 112,
              "position": 5.772916666666666,
              "duration": 0.17708333333333334
            },
            {
              "pitch": 72,
              "velocity": 123,
              "position": 5.772916666666666,
              "duration": 0.19166666666666668
            },
            {
              "pitch": 24,
              "velocity": 98,
              "position": 6,
              "duration": 0.21458333333333332
            },
            {
              "pitch": 36,
              "velocity": 98,
              "position": 6,
              "duration": 0.21458333333333332
            },
            {
              "pitch": 75,
              "velocity": 94,
              "position": 6.270833333333333,
              "duration": 0.13125
            },
            {
              "pitch": 67,
              "velocity": 92,
              "position": 6.264583333333333,
              "duration": 0.14375
            },
            {
              "pitch": 70,
              "velocity": 87,
              "position": 6.272916666666666,
              "duration": 0.14166666666666666
            },
            {
              "pitch": 72,
              "velocity": 87,
              "position": 6.272916666666666,
              "duration": 0.14166666666666666
            },
            {
              "pitch": 24,
              "velocity": 98,
              "position": 6.5,
              "duration": 0.36041666666666666
            },
            {
              "pitch": 36,
              "velocity": 98,
              "position": 6.5,
              "duration": 0.36041666666666666
            },
            {
              "pitch": 75,
              "velocity": 94,
              "position": 7.020833333333333,
              "duration": 0.13125
            },
            {
              "pitch": 67,
              "velocity": 92,
              "position": 7.014583333333333,
              "duration": 0.14375
            },
            {
              "pitch": 70,
              "velocity": 87,
              "position": 7.022916666666666,
              "duration": 0.14166666666666666
            },
            {
              "pitch": 72,
              "velocity": 87,
              "position": 7.022916666666666,
              "duration": 0.14166666666666666
            },
            {
              "pitch": 19,
              "velocity": 98,
              "position": 7.270833333333333,
              "duration": 0.6104166666666667
            },
            {
              "pitch": 31,
              "velocity": 98,
              "position": 7.270833333333333,
              "duration": 0.6104166666666667
            },
            {
              "pitch": 65,
              "velocity": 112,
              "position": 7.252083333333333,
              "duration": 0.6458333333333334
            },
            {
              "pitch": 70,
              "velocity": 112,
              "position": 7.252083333333333,
              "duration": 0.6458333333333334
            },
            {
              "pitch": 74,
              "velocity": 122,
              "position": 7.252083333333333,
              "duration": 0.6666666666666666
            },
            {
              "pitch": 24,
              "velocity": 98,
              "position": 8,
              "duration": 0.21458333333333332
            },
            {
              "pitch": 36,
              "velocity": 98,
              "position": 8,
              "duration": 0.21458333333333332
            },
            {
              "pitch": 70,
              "velocity": 110,
              "position": 8,
              "duration": 0.6
            },
            {
              "pitch": 72,
              "velocity": 110,
              "position": 8,
              "duration": 0.6
            },
            {
              "pitch": 67,
              "velocity": 112,
              "position": 8,
              "duration": 0.6104166666666667
            },
            {
              "pitch": 75,
              "velocity": 119,
              "position": 8.010416666666666,
              "duration": 0.6
            },
            {
              "pitch": 24,
              "velocity": 98,
              "position": 8.5,
              "duration": 0.6104166666666667
            },
            {
              "pitch": 36,
              "velocity": 98,
              "position": 8.5,
              "duration": 0.6104166666666667
            },
            {
              "pitch": 70,
              "velocity": 110,
              "position": 9,
              "duration": 0.6
            },
            {
              "pitch": 72,
              "velocity": 110,
              "position": 9,
              "duration": 0.6
            },
            {
              "pitch": 67,
              "velocity": 112,
              "position": 8.991666666666667,
              "duration": 0.6125
            },
            {
              "pitch": 75,
              "velocity": 119,
              "position": 9.004166666666666,
              "duration": 0.6
            },
            {
              "pitch": 72,
              "velocity": 112,
              "position": 9.7625,
              "duration": 0.17291666666666666
            },
            {
              "pitch": 75,
              "velocity": 121,
              "position": 9.770833333333334,
              "duration": 0.19583333333333333
            },
            {
              "pitch": 65,
              "velocity": 110,
              "position": 9.7625,
              "duration": 0.23958333333333334
            },
            {
              "pitch": 69,
              "velocity": 110,
              "position": 9.7625,
              "duration": 0.23958333333333334
            },
            {
              "pitch": 29,
              "velocity": 98,
              "position": 10,
              "duration": 0.21458333333333332
            },
            {
              "pitch": 41,
              "velocity": 98,
              "position": 10,
              "duration": 0.21458333333333332
            },
            {
              "pitch": 65,
              "velocity": 97,
              "position": 10.264583333333333,
              "duration": 0.12916666666666668
            },
            {
              "pitch": 69,
              "velocity": 97,
              "position": 10.264583333333333,
              "duration": 0.12916666666666668
            },
            {
              "pitch": 75,
              "velocity": 95,
              "position": 10.275,
              "duration": 0.12083333333333333
            },
            {
              "pitch": 72,
              "velocity": 93,
              "position": 10.272916666666667,
              "duration": 0.14166666666666666
            },
            {
              "pitch": 29,
              "velocity": 98,
              "position": 10.5,
              "duration": 0.6104166666666667
            },
            {
              "pitch": 41,
              "velocity": 98,
              "position": 10.5,
              "duration": 0.6104166666666667
            },
            {
              "pitch": 65,
              "velocity": 116,
              "position": 10.989583333333334,
              "duration": 0.8708333333333333
            },
            {
              "pitch": 69,
              "velocity": 116,
              "position": 10.989583333333334,
              "duration": 0.8708333333333333
            },
            {
              "pitch": 75,
              "velocity": 121,
              "position": 10.99375,
              "duration": 0.9104166666666667
            },
            {
              "pitch": 72,
              "velocity": 105,
              "position": 11.004166666666666,
              "duration": 0.9416666666666667
            },
            {
              "pitch": 19,
              "velocity": 98,
              "position": 12,
              "duration": 0.21458333333333332
            },
            {
              "pitch": 31,
              "velocity": 98,
              "position": 12,
              "duration": 0.21458333333333332
            },
            {
              "pitch": 67,
              "velocity": 112,
              "position": 12.520833333333334,
              "duration": 0.17291666666666666
            },
            {
              "pitch": 71,
              "velocity": 115,
              "position": 12.49375,
              "duration": 0.21666666666666667
            },
            {
              "pitch": 75,
              "velocity": 120,
              "position": 12.5,
              "duration": 0.21666666666666667
            },
            {
              "pitch": 19,
              "velocity": 98,
              "position": 12.5,
              "duration": 0.36041666666666666
            },
            {
              "pitch": 31,
              "velocity": 98,
              "position": 12.5,
              "duration": 0.36041666666666666
            },
            {
              "pitch": 75,
              "velocity": 112,
              "position": 13.2625,
              "duration": 0.17291666666666666
            },
            {
              "pitch": 67,
              "velocity": 110,
              "position": 13.2625,
              "duration": 0.23958333333333334
            },
            {
              "pitch": 71,
              "velocity": 110,
              "position": 13.2625,
              "duration": 0.23958333333333334
            },
            {
              "pitch": 19,
              "velocity": 98,
              "position": 13.25,
              "duration": 0.36041666666666666
            },
            {
              "pitch": 31,
              "velocity": 98,
              "position": 13.25,
              "duration": 0.36041666666666666
            },
            {
              "pitch": 72,
              "velocity": 122,
              "position": 14.002083333333333,
              "duration": 4.989583333333333
            },
            {
              "pitch": 75,
              "velocity": 122,
              "position": 14.004166666666666,
              "duration": 4.9875
            },
            {
              "pitch": 24,
              "velocity": 98,
              "position": 14,
              "duration": 4.995833333333334
            },
            {
              "pitch": 36,
              "velocity": 98,
              "position": 14,
              "duration": 4.995833333333334
            },
            {
              "pitch": 67,
              "velocity": 112,
              "position": 14,
              "duration": 4.995833333333334
            }
          ]
        },
        "4": {
          "ctab": {
            "srcChannel": 4,
            "name": "Organ",
            "accType": "PAD",
            "editable": false,
            "mutedNotes": [],
            "mutedChords": [
              "1+2+5",
              "sus4",
              "1+5",
              "1+8",
              "7aug",
              "Maj7aug",
              "7(#9)",
              "7(b13)",
              "7(b9)",
              "7(13)",
              "7#11",
              "7(9)",
              "7b5",
              "7sus4",
              "7th",
              "aug",
              "Maj6(9)",
              "Maj7(9)",
              "Maj(9)",
              "Maj7#11",
              "Maj7",
              "Maj6",
              "Maj"
            ],
            "autoStart": false,
            "sourceChordNote": 0,
            "sourceChordType": "min",
            "ctb2Low": null,
            "ctb2Main": {
              "ntr": "ROOT_TRANSPOSITION",
              "ntt": "BYPASS",
              "bassOn": false,
              "chordRootUpperLimit": 0,
              "noteLowLimit": 0,
              "noteHighLimit": 79,
              "rtr": "PITCH_SHIFT"
            },
            "ctb2High": null
          },
          "notes": [
            {
              "pitch": 78,
              "velocity": 102,
              "position": 0.5,
              "duration": 0.07916666666666666
            },
            {
              "pitch": 84,
              "velocity": 92,
              "position": 0.5,
              "duration": 0.21666666666666667
            },
            {
              "pitch": 75,
              "velocity": 87,
              "position": 0.5,
              "duration": 0.225
            },
            {
              "pitch": 79,
              "velocity": 86,
              "position": 0.625,
              "duration": 0.14375
            },
            {
              "pitch": 78,
              "velocity": 102,
              "position": 1.25,
              "duration": 0.08958333333333333
            },
            {
              "pitch": 75,
              "velocity": 86,
              "position": 1.25,
              "duration": 0.19375
            },
            {
              "pitch": 84,
              "velocity": 92,
              "position": 1.25,
              "duration": 0.20625
            },
            {
              "pitch": 79,
              "velocity": 68,
              "position": 1.375,
              "duration": 0.11458333333333333
            },
            {
              "pitch": 77,
              "velocity": 98,
              "position": 2,
              "duration": 0.08125
            },
            {
              "pitch": 78,
              "velocity": 102,
              "position": 2.0625,
              "duration": 0.14166666666666666
            },
            {
              "pitch": 79,
              "velocity": 90,
              "position": 2.15625,
              "duration": 0.16875
            },
            {
              "pitch": 84,
              "velocity": 101,
              "position": 2,
              "duration": 0.38125
            },
            {
              "pitch": 79,
              "velocity": 87,
              "position": 2.38125,
              "duration": 0.03333333333333333
            },
            {
              "pitch": 77,
              "velocity": 91,
              "position": 2.4125,
              "duration": 0.0625
            },
            {
              "pitch": 76,
              "velocity": 74,
              "position": 2.4479166666666665,
              "duration": 0.04791666666666667
            },
            {
              "pitch": 74,
              "velocity": 58,
              "position": 2.475,
              "duration": 0.04791666666666667
            },
            {
              "pitch": 72,
              "velocity": 53,
              "position": 2.5145833333333334,
              "duration": 0.03958333333333333
            },
            {
              "pitch": 71,
              "velocity": 76,
              "position": 2.5520833333333335,
              "duration": 0.03125
            },
            {
              "pitch": 69,
              "velocity": 74,
              "position": 2.5833333333333335,
              "duration": 0.0375
            },
            {
              "pitch": 67,
              "velocity": 71,
              "position": 2.61875,
              "duration": 0.03958333333333333
            },
            {
              "pitch": 74,
              "velocity": 86,
              "position": 3,
              "duration": 0.09166666666666666
            },
            {
              "pitch": 79,
              "velocity": 87,
              "position": 3,
              "duration": 0.15416666666666667
            },
            {
              "pitch": 75,
              "velocity": 84,
              "position": 3.05625,
              "duration": 0.13958333333333334
            },
            {
              "pitch": 75,
              "velocity": 91,
              "position": 3.25,
              "duration": 0.18541666666666667
            },
            {
              "pitch": 79,
              "velocity": 92,
              "position": 3.25,
              "duration": 0.32708333333333334
            },
            {
              "pitch": 74,
              "velocity": 89,
              "position": 3.495833333333333,
              "duration": 0.25
            },
            {
              "pitch": 72,
              "velocity": 87,
              "position": 3.7916666666666665,
              "duration": 0.11666666666666667
            },
            {
              "pitch": 75,
              "velocity": 92,
              "position": 4.5,
              "duration": 0.1625
            },
            {
              "pitch": 79,
              "velocity": 98,
              "position": 4.516666666666667,
              "duration": 0.17291666666666666
            },
            {
              "pitch": 84,
              "velocity": 88,
              "position": 4.520833333333333,
              "duration": 0.2375
            },
            {
              "pitch": 80,
              "velocity": 81,
              "position": 4.68125,
              "duration": 0.09791666666666667
            },
            {
              "pitch": 79,
              "velocity": 102,
              "position": 5.25,
              "duration": 0.06875
            },
            {
              "pitch": 80,
              "velocity": 76,
              "position": 5.308333333333334,
              "duration": 0.1
            },
            {
              "pitch": 75,
              "velocity": 88,
              "position": 5.260416666666667,
              "duration": 0.17291666666666666
            },
            {
              "pitch": 84,
              "velocity": 88,
              "position": 5.25625,
              "duration": 0.18333333333333332
            },
            {
              "pitch": 78,
              "velocity": 102,
              "position": 6.0375,
              "duration": 0.125
            },
            {
              "pitch": 77,
              "velocity": 81,
              "position": 6,
              "duration": 0.225
            },
            {
              "pitch": 84,
              "velocity": 92,
              "position": 6.033333333333333,
              "duration": 0.33125
            },
            {
              "pitch": 79,
              "velocity": 61,
              "position": 6.139583333333333,
              "duration": 0.22708333333333333
            },
            {
              "pitch": 77,
              "velocity": 86,
              "position": 6.520833333333333,
              "duration": 0.22708333333333333
            },
            {
              "pitch": 84,
              "velocity": 84,
              "position": 6.520833333333333,
              "duration": 0.2833333333333333
            },
            {
              "pitch": 72,
              "velocity": 65,
              "position": 6.770833333333333,
              "duration": 0.07083333333333333
            },
            {
              "pitch": 74,
              "velocity": 98,
              "position": 7.002083333333333,
              "duration": 0.05625
            },
            {
              "pitch": 79,
              "velocity": 98,
              "position": 7.014583333333333,
              "duration": 0.14166666666666666
            },
            {
              "pitch": 75,
              "velocity": 91,
              "position": 7.041666666666667,
              "duration": 0.12083333333333333
            },
            {
              "pitch": 78,
              "velocity": 89,
              "position": 7.25,
              "duration": 0.1875
            },
            {
              "pitch": 75,
              "velocity": 84,
              "position": 7.25,
              "duration": 0.2125
            },
            {
              "pitch": 74,
              "velocity": 70,
              "position": 7.5,
              "duration": 0.09791666666666667
            },
            {
              "pitch": 77,
              "velocity": 70,
              "position": 7.5,
              "duration": 0.09791666666666667
            },
            {
              "pitch": 72,
              "velocity": 76,
              "position": 7.75,
              "duration": 0.14375
            },
            {
              "pitch": 75,
              "velocity": 76,
              "position": 7.75,
              "duration": 0.14375
            },
            {
              "pitch": 78,
              "velocity": 102,
              "position": 8.514583333333333,
              "duration": 0.09791666666666667
            },
            {
              "pitch": 75,
              "velocity": 81,
              "position": 8.522916666666667,
              "duration": 0.25
            },
            {
              "pitch": 84,
              "velocity": 95,
              "position": 8.522916666666667,
              "duration": 0.25625
            },
            {
              "pitch": 79,
              "velocity": 78,
              "position": 8.633333333333333,
              "duration": 0.15
            },
            {
              "pitch": 78,
              "velocity": 102,
              "position": 9.316666666666666,
              "duration": 0.09583333333333334
            },
            {
              "pitch": 75,
              "velocity": 88,
              "position": 9.314583333333333,
              "duration": 0.25833333333333336
            },
            {
              "pitch": 79,
              "velocity": 60,
              "position": 9.416666666666666,
              "duration": 0.19375
            },
            {
              "pitch": 84,
              "velocity": 101,
              "position": 9.322916666666666,
              "duration": 0.30416666666666664
            },
            {
              "pitch": 77,
              "velocity": 102,
              "position": 10,
              "duration": 0.12083333333333333
            },
            {
              "pitch": 78,
              "velocity": 60,
              "position": 10.125,
              "duration": 0.12083333333333333
            },
            {
              "pitch": 79,
              "velocity": 100,
              "position": 10.25,
              "duration": 0.17708333333333334
            },
            {
              "pitch": 82,
              "velocity": 98,
              "position": 10.375,
              "duration": 0.17708333333333334
            },
            {
              "pitch": 79,
              "velocity": 100,
              "position": 10.5,
              "duration": 0.17708333333333334
            },
            {
              "pitch": 82,
              "velocity": 100,
              "position": 10.625,
              "duration": 0.17708333333333334
            },
            {
              "pitch": 79,
              "velocity": 98,
              "position": 10.75,
              "duration": 0.17708333333333334
            },
            {
              "pitch": 82,
              "velocity": 98,
              "position": 10.875,
              "duration": 0.11458333333333333
            },
            {
              "pitch": 78,
              "velocity": 91,
              "position": 11,
              "duration": 0.24583333333333332
            },
            {
              "pitch": 82,
              "velocity": 89,
              "position": 11,
              "duration": 0.24583333333333332
            },
            {
              "pitch": 77,
              "velocity": 70,
              "position": 11.25,
              "duration": 0.24583333333333332
            },
            {
              "pitch": 75,
              "velocity": 84,
              "position": 11.489583333333334,
              "duration": 0.18958333333333333
            },
            {
              "pitch": 72,
              "velocity": 84,
              "position": 11.729166666666666,
              "duration": 0.1
            },
            {
              "pitch": 77,
              "velocity": 73,
              "position": 12.5,
              "duration": 0.14166666666666666
            },
            {
              "pitch": 71,
              "velocity": 73,
              "position": 12.5,
              "duration": 0.22708333333333333
            },
            {
              "pitch": 82,
              "velocity": 73,
              "position": 12.5,
              "duration": 0.30833333333333335
            },
            {
              "pitch": 75,
              "velocity": 73,
              "position": 12.5,
              "duration": 0.31875
            },
            {
              "pitch": 71,
              "velocity": 73,
              "position": 13.25,
              "duration": 0.12083333333333333
            },
            {
              "pitch": 75,
              "velocity": 73,
              "position": 13.25,
              "duration": 0.175
            },
            {
              "pitch": 77,
              "velocity": 73,
              "position": 13.25,
              "duration": 0.18333333333333332
            },
            {
              "pitch": 82,
              "velocity": 73,
              "position": 13.25,
              "duration": 0.20833333333333334
            },
            {
              "pitch": 84,
              "velocity": 78,
              "position": 14,
              "duration": 4.95
            },
            {
              "pitch": 75,
              "velocity": 78,
              "position": 14,
              "duration": 4.991666666666666
            },
            {
              "pitch": 79,
              "velocity": 78,
              "position": 14,
              "duration": 4.995833333333334
            }
          ]
        },
        "5": {
          "ctab": {
            "srcChannel": 5,
            "name": "Tele",
            "accType": "PHRASE1",
            "editable": false,
            "mutedNotes": [],
            "mutedChords": [
              "1+2+5",
              "sus4",
              "1+5",
              "1+8",
              "7aug",
              "Maj7aug",
              "7(#9)",
              "7(b13)",
              "7(b9)",
              "7(13)",
              "7#11",
              "7(9)",
              "7b5",
              "7sus4",
              "7th",
              "aug",
              "Maj6(9)",
              "Maj7(9)",
              "Maj(9)",
              "Maj7#11",
              "Maj7",
              "Maj6",
              "Maj"
            ],
            "autoStart": false,
            "sourceChordNote": 0,
            "sourceChordType": "min",
            "ctb2Low": null,
            "ctb2Main": {
              "ntr": "ROOT_TRANSPOSITION",
              "ntt": "BYPASS",
              "bassOn": false,
              "chordRootUpperLimit": 8,
              "noteLowLimit": 51,
              "noteHighLimit": 69,
              "rtr": "PITCH_SHIFT"
            },
            "ctb2High": null
          },
          "notes": [
            {
              "pitch": 34,
              "velocity": 60,
              "position": 0.5,
              "duration": 0.23541666666666666
            },
            {
              "pitch": 106,
              "velocity": 127,
              "position": 0.5,
              "duration": 0.23541666666666666
            },
            {
              "pitch": 39,
              "velocity": 59,
              "position": 0.5,
              "duration": 0.2375
            },
            {
              "pitch": 79,
              "velocity": 60,
              "position": 0.5104166666666666,
              "duration": 0.23541666666666666
            },
            {
              "pitch": 84,
              "velocity": 56,
              "position": 0.5104166666666666,
              "duration": 0.2375
            },
            {
              "pitch": 107,
              "velocity": 82,
              "position": 0.7708333333333334,
              "duration": 0.23541666666666666
            },
            {
              "pitch": 108,
              "velocity": 121,
              "position": 1,
              "duration": 0.23541666666666666
            },
            {
              "pitch": 105,
              "velocity": 81,
              "position": 1.2708333333333333,
              "duration": 0.23541666666666666
            },
            {
              "pitch": 84,
              "velocity": 56,
              "position": 1.2729166666666667,
              "duration": 0.2375
            },
            {
              "pitch": 79,
              "velocity": 51,
              "position": 1.28125,
              "duration": 0.23541666666666666
            },
            {
              "pitch": 39,
              "velocity": 60,
              "position": 1.2854166666666667,
              "duration": 0.2375
            },
            {
              "pitch": 34,
              "velocity": 54,
              "position": 1.2916666666666667,
              "duration": 0.2375
            },
            {
              "pitch": 106,
              "velocity": 103,
              "position": 1.5,
              "duration": 0.23541666666666666
            },
            {
              "pitch": 107,
              "velocity": 123,
              "position": 1.7708333333333333,
              "duration": 0.20416666666666666
            },
            {
              "pitch": 33,
              "velocity": 60,
              "position": 2,
              "duration": 0.23541666666666666
            },
            {
              "pitch": 108,
              "velocity": 118,
              "position": 2,
              "duration": 0.23541666666666666
            },
            {
              "pitch": 39,
              "velocity": 60,
              "position": 2,
              "duration": 0.2375
            },
            {
              "pitch": 77,
              "velocity": 60,
              "position": 2.0104166666666665,
              "duration": 0.23541666666666666
            },
            {
              "pitch": 84,
              "velocity": 52,
              "position": 2.0104166666666665,
              "duration": 0.2375
            },
            {
              "pitch": 105,
              "velocity": 75,
              "position": 2.2708333333333335,
              "duration": 0.23541666666666666
            },
            {
              "pitch": 106,
              "velocity": 125,
              "position": 2.5,
              "duration": 0.23541666666666666
            },
            {
              "pitch": 107,
              "velocity": 80,
              "position": 2.7708333333333335,
              "duration": 0.23541666666666666
            },
            {
              "pitch": 84,
              "velocity": 52,
              "position": 2.7729166666666667,
              "duration": 0.2375
            },
            {
              "pitch": 77,
              "velocity": 58,
              "position": 2.78125,
              "duration": 0.23541666666666666
            },
            {
              "pitch": 39,
              "velocity": 60,
              "position": 2.785416666666667,
              "duration": 0.2375
            },
            {
              "pitch": 33,
              "velocity": 60,
              "position": 2.7916666666666665,
              "duration": 0.2375
            },
            {
              "pitch": 108,
              "velocity": 97,
              "position": 3,
              "duration": 0.23541666666666666
            },
            {
              "pitch": 105,
              "velocity": 127,
              "position": 3.2708333333333335,
              "duration": 0.20416666666666666
            },
            {
              "pitch": 33,
              "velocity": 51,
              "position": 3.285416666666667,
              "duration": 0.2
            },
            {
              "pitch": 39,
              "velocity": 42,
              "position": 3.28125,
              "duration": 0.20833333333333334
            },
            {
              "pitch": 77,
              "velocity": 40,
              "position": 3.2729166666666667,
              "duration": 0.21875
            },
            {
              "pitch": 106,
              "velocity": 96,
              "position": 3.5,
              "duration": 0.23541666666666666
            },
            {
              "pitch": 84,
              "velocity": 60,
              "position": 3.5104166666666665,
              "duration": 0.24791666666666667
            },
            {
              "pitch": 77,
              "velocity": 56,
              "position": 3.5104166666666665,
              "duration": 0.25625
            },
            {
              "pitch": 39,
              "velocity": 55,
              "position": 3.5,
              "duration": 0.26875
            },
            {
              "pitch": 107,
              "velocity": 120,
              "position": 3.7708333333333335,
              "duration": 0.20416666666666666
            },
            {
              "pitch": 33,
              "velocity": 56,
              "position": 3.5,
              "duration": 0.48541666666666666
            },
            {
              "pitch": 84,
              "velocity": 40,
              "position": 3.7729166666666667,
              "duration": 0.2375
            },
            {
              "pitch": 77,
              "velocity": 42,
              "position": 3.78125,
              "duration": 0.23541666666666666
            },
            {
              "pitch": 39,
              "velocity": 51,
              "position": 3.785416666666667,
              "duration": 0.2375
            },
            {
              "pitch": 108,
              "velocity": 115,
              "position": 4,
              "duration": 0.23541666666666666
            },
            {
              "pitch": 105,
              "velocity": 79,
              "position": 4.270833333333333,
              "duration": 0.23541666666666666
            },
            {
              "pitch": 32,
              "velocity": 51,
              "position": 4.5,
              "duration": 0.23541666666666666
            },
            {
              "pitch": 106,
              "velocity": 122,
              "position": 4.5,
              "duration": 0.23541666666666666
            },
            {
              "pitch": 36,
              "velocity": 59,
              "position": 4.5,
              "duration": 0.2375
            },
            {
              "pitch": 75,
              "velocity": 56,
              "position": 4.510416666666667,
              "duration": 0.23541666666666666
            },
            {
              "pitch": 82,
              "velocity": 59,
              "position": 4.510416666666667,
              "duration": 0.2375
            },
            {
              "pitch": 107,
              "velocity": 76,
              "position": 4.770833333333333,
              "duration": 0.23541666666666666
            },
            {
              "pitch": 108,
              "velocity": 124,
              "position": 5,
              "duration": 0.23541666666666666
            },
            {
              "pitch": 105,
              "velocity": 89,
              "position": 5.270833333333333,
              "duration": 0.23541666666666666
            },
            {
              "pitch": 82,
              "velocity": 60,
              "position": 5.272916666666666,
              "duration": 0.2375
            },
            {
              "pitch": 75,
              "velocity": 60,
              "position": 5.28125,
              "duration": 0.23541666666666666
            },
            {
              "pitch": 36,
              "velocity": 51,
              "position": 5.285416666666666,
              "duration": 0.2375
            },
            {
              "pitch": 32,
              "velocity": 59,
              "position": 5.291666666666667,
              "duration": 0.2375
            },
            {
              "pitch": 106,
              "velocity": 90,
              "position": 5.5,
              "duration": 0.23541666666666666
            },
            {
              "pitch": 107,
              "velocity": 127,
              "position": 5.770833333333333,
              "duration": 0.20416666666666666
            },
            {
              "pitch": 34,
              "velocity": 55,
              "position": 6,
              "duration": 0.23541666666666666
            },
            {
              "pitch": 108,
              "velocity": 122,
              "position": 6,
              "duration": 0.23541666666666666
            },
            {
              "pitch": 39,
              "velocity": 55,
              "position": 6,
              "duration": 0.2375
            },
            {
              "pitch": 79,
              "velocity": 60,
              "position": 6.010416666666667,
              "duration": 0.23541666666666666
            },
            {
              "pitch": 84,
              "velocity": 57,
              "position": 6.010416666666667,
              "duration": 0.2375
            },
            {
              "pitch": 105,
              "velocity": 74,
              "position": 6.270833333333333,
              "duration": 0.23541666666666666
            },
            {
              "pitch": 106,
              "velocity": 117,
              "position": 6.5,
              "duration": 0.23541666666666666
            },
            {
              "pitch": 107,
              "velocity": 74,
              "position": 6.770833333333333,
              "duration": 0.23541666666666666
            },
            {
              "pitch": 84,
              "velocity": 60,
              "position": 6.772916666666666,
              "duration": 0.2375
            },
            {
              "pitch": 79,
              "velocity": 52,
              "position": 6.78125,
              "duration": 0.23541666666666666
            },
            {
              "pitch": 39,
              "velocity": 60,
              "position": 6.785416666666666,
              "duration": 0.2375
            },
            {
              "pitch": 34,
              "velocity": 60,
              "position": 6.791666666666667,
              "duration": 0.2375
            },
            {
              "pitch": 108,
              "velocity": 99,
              "position": 7,
              "duration": 0.23541666666666666
            },
            {
              "pitch": 105,
              "velocity": 124,
              "position": 7.270833333333333,
              "duration": 0.20416666666666666
            },
            {
              "pitch": 34,
              "velocity": 53,
              "position": 7.285416666666666,
              "duration": 0.2
            },
            {
              "pitch": 41,
              "velocity": 44,
              "position": 7.28125,
              "duration": 0.20833333333333334
            },
            {
              "pitch": 79,
              "velocity": 38,
              "position": 7.272916666666666,
              "duration": 0.21875
            },
            {
              "pitch": 106,
              "velocity": 100,
              "position": 7.5,
              "duration": 0.23541666666666666
            },
            {
              "pitch": 86,
              "velocity": 60,
              "position": 7.510416666666667,
              "duration": 0.24791666666666667
            },
            {
              "pitch": 79,
              "velocity": 60,
              "position": 7.510416666666667,
              "duration": 0.25625
            },
            {
              "pitch": 41,
              "velocity": 60,
              "position": 7.5,
              "duration": 0.26875
            },
            {
              "pitch": 107,
              "velocity": 127,
              "position": 7.770833333333333,
              "duration": 0.20416666666666666
            },
            {
              "pitch": 34,
              "velocity": 60,
              "position": 7.5,
              "duration": 0.48541666666666666
            },
            {
              "pitch": 86,
              "velocity": 38,
              "position": 7.772916666666666,
              "duration": 0.2375
            },
            {
              "pitch": 79,
              "velocity": 44,
              "position": 7.78125,
              "duration": 0.23541666666666666
            },
            {
              "pitch": 41,
              "velocity": 53,
              "position": 7.785416666666666,
              "duration": 0.2375
            },
            {
              "pitch": 108,
              "velocity": 114,
              "position": 8,
              "duration": 0.23541666666666666
            },
            {
              "pitch": 105,
              "velocity": 74,
              "position": 8.270833333333334,
              "duration": 0.23541666666666666
            },
            {
              "pitch": 34,
              "velocity": 60,
              "position": 8.5,
              "duration": 0.23541666666666666
            },
            {
              "pitch": 106,
              "velocity": 120,
              "position": 8.5,
              "duration": 0.23541666666666666
            },
            {
              "pitch": 39,
              "velocity": 59,
              "position": 8.5,
              "duration": 0.2375
            },
            {
              "pitch": 79,
              "velocity": 60,
              "position": 8.510416666666666,
              "duration": 0.23541666666666666
            },
            {
              "pitch": 84,
              "velocity": 56,
              "position": 8.510416666666666,
              "duration": 0.2375
            },
            {
              "pitch": 107,
              "velocity": 88,
              "position": 8.770833333333334,
              "duration": 0.23541666666666666
            },
            {
              "pitch": 108,
              "velocity": 123,
              "position": 9,
              "duration": 0.23541666666666666
            },
            {
              "pitch": 105,
              "velocity": 78,
              "position": 9.270833333333334,
              "duration": 0.23541666666666666
            },
            {
              "pitch": 84,
              "velocity": 56,
              "position": 9.272916666666667,
              "duration": 0.2375
            },
            {
              "pitch": 79,
              "velocity": 51,
              "position": 9.28125,
              "duration": 0.23541666666666666
            },
            {
              "pitch": 39,
              "velocity": 60,
              "position": 9.285416666666666,
              "duration": 0.2375
            },
            {
              "pitch": 34,
              "velocity": 54,
              "position": 9.291666666666666,
              "duration": 0.2375
            },
            {
              "pitch": 106,
              "velocity": 96,
              "position": 9.5,
              "duration": 0.23541666666666666
            },
            {
              "pitch": 107,
              "velocity": 119,
              "position": 9.770833333333334,
              "duration": 0.20416666666666666
            },
            {
              "pitch": 33,
              "velocity": 60,
              "position": 10,
              "duration": 0.23541666666666666
            },
            {
              "pitch": 108,
              "velocity": 127,
              "position": 10,
              "duration": 0.23541666666666666
            },
            {
              "pitch": 39,
              "velocity": 60,
              "position": 10,
              "duration": 0.2375
            },
            {
              "pitch": 77,
              "velocity": 60,
              "position": 10.010416666666666,
              "duration": 0.23541666666666666
            },
            {
              "pitch": 84,
              "velocity": 52,
              "position": 10.010416666666666,
              "duration": 0.2375
            },
            {
              "pitch": 105,
              "velocity": 87,
              "position": 10.270833333333334,
              "duration": 0.23541666666666666
            },
            {
              "pitch": 106,
              "velocity": 125,
              "position": 10.5,
              "duration": 0.23541666666666666
            },
            {
              "pitch": 107,
              "velocity": 76,
              "position": 10.770833333333334,
              "duration": 0.23541666666666666
            },
            {
              "pitch": 84,
              "velocity": 52,
              "position": 10.772916666666667,
              "duration": 0.2375
            },
            {
              "pitch": 77,
              "velocity": 58,
              "position": 10.78125,
              "duration": 0.23541666666666666
            },
            {
              "pitch": 39,
              "velocity": 60,
              "position": 10.785416666666666,
              "duration": 0.2375
            },
            {
              "pitch": 33,
              "velocity": 60,
              "position": 10.791666666666666,
              "duration": 0.2375
            },
            {
              "pitch": 108,
              "velocity": 89,
              "position": 11,
              "duration": 0.23541666666666666
            },
            {
              "pitch": 105,
              "velocity": 127,
              "position": 11.270833333333334,
              "duration": 0.20416666666666666
            },
            {
              "pitch": 33,
              "velocity": 51,
              "position": 11.285416666666666,
              "duration": 0.2
            },
            {
              "pitch": 39,
              "velocity": 42,
              "position": 11.28125,
              "duration": 0.20833333333333334
            },
            {
              "pitch": 77,
              "velocity": 40,
              "position": 11.272916666666667,
              "duration": 0.21875
            },
            {
              "pitch": 106,
              "velocity": 98,
              "position": 11.5,
              "duration": 0.23541666666666666
            },
            {
              "pitch": 84,
              "velocity": 60,
              "position": 11.510416666666666,
              "duration": 0.24791666666666667
            },
            {
              "pitch": 77,
              "velocity": 56,
              "position": 11.510416666666666,
              "duration": 0.25625
            },
            {
              "pitch": 39,
              "velocity": 55,
              "position": 11.5,
              "duration": 0.26875
            },
            {
              "pitch": 107,
              "velocity": 114,
              "position": 11.770833333333334,
              "duration": 0.20416666666666666
            },
            {
              "pitch": 33,
              "velocity": 56,
              "position": 11.5,
              "duration": 0.48541666666666666
            },
            {
              "pitch": 84,
              "velocity": 40,
              "position": 11.772916666666667,
              "duration": 0.2375
            },
            {
              "pitch": 77,
              "velocity": 42,
              "position": 11.78125,
              "duration": 0.23541666666666666
            },
            {
              "pitch": 39,
              "velocity": 51,
              "position": 11.785416666666666,
              "duration": 0.2375
            },
            {
              "pitch": 108,
              "velocity": 116,
              "position": 12,
              "duration": 0.23541666666666666
            },
            {
              "pitch": 105,
              "velocity": 78,
              "position": 12.270833333333334,
              "duration": 0.23541666666666666
            },
            {
              "pitch": 35,
              "velocity": 51,
              "position": 12.5,
              "duration": 0.23541666666666666
            },
            {
              "pitch": 106,
              "velocity": 126,
              "position": 12.5,
              "duration": 0.23541666666666666
            },
            {
              "pitch": 29,
              "velocity": 59,
              "position": 12.5,
              "duration": 0.2375
            },
            {
              "pitch": 79,
              "velocity": 56,
              "position": 12.510416666666666,
              "duration": 0.23541666666666666
            },
            {
              "pitch": 87,
              "velocity": 59,
              "position": 12.510416666666666,
              "duration": 0.2375
            },
            {
              "pitch": 107,
              "velocity": 83,
              "position": 12.770833333333334,
              "duration": 0.23541666666666666
            },
            {
              "pitch": 108,
              "velocity": 123,
              "position": 13,
              "duration": 0.23541666666666666
            },
            {
              "pitch": 105,
              "velocity": 72,
              "position": 13.270833333333334,
              "duration": 0.23541666666666666
            },
            {
              "pitch": 87,
              "velocity": 60,
              "position": 13.272916666666667,
              "duration": 0.2375
            },
            {
              "pitch": 79,
              "velocity": 60,
              "position": 13.28125,
              "duration": 0.23541666666666666
            },
            {
              "pitch": 29,
              "velocity": 51,
              "position": 13.285416666666666,
              "duration": 0.2375
            },
            {
              "pitch": 35,
              "velocity": 59,
              "position": 13.291666666666666,
              "duration": 0.2375
            },
            {
              "pitch": 106,
              "velocity": 97,
              "position": 13.5,
              "duration": 0.23541666666666666
            },
            {
              "pitch": 107,
              "velocity": 118,
              "position": 13.770833333333334,
              "duration": 0.20416666666666666
            },
            {
              "pitch": 108,
              "velocity": 116,
              "position": 14,
              "duration": 0.23541666666666666
            },
            {
              "pitch": 39,
              "velocity": 60,
              "position": 14,
              "duration": 4.991666666666666
            },
            {
              "pitch": 84,
              "velocity": 59,
              "position": 14.010416666666666,
              "duration": 4.98125
            },
            {
              "pitch": 36,
              "velocity": 60,
              "position": 14,
              "duration": 4.995833333333334
            },
            {
              "pitch": 79,
              "velocity": 60,
              "position": 14.010416666666666,
              "duration": 4.985416666666667
            }
          ]
        },
        "8": {
          "ctab": {
            "srcChannel": 8,
            "name": "AddDrum",
            "accType": "SUBRHYTHM",
            "editable": false,
            "mutedNotes": [],
            "mutedChords": [],
            "autoStart": true,
            "sourceChordNote": 0,
            "sourceChordType": "Maj7",
            "ctb2Low": null,
            "ctb2Main": {
              "ntr": "ROOT_FIXED",
              "ntt": "BYPASS",
              "bassOn": false,
              "chordRootUpperLimit": 6,
              "noteLowLimit": 0,
              "noteHighLimit": 127,
              "rtr": "PITCH_SHIFT"
            },
            "ctb2High": null
          },
          "notes": [
            {
              "pitch": 42,
              "velocity": 120,
              "position": 0,
              "duration": 0.00625
            },
            {
              "pitch": 32,
              "velocity": 34,
              "position": 0.2708333333333333,
              "duration": 0.00625
            },
            {
              "pitch": 46,
              "velocity": 60,
              "position": 0.5,
              "duration": 0.00625
            },
            {
              "pitch": 32,
              "velocity": 104,
              "position": 1,
              "duration": 0.00625
            },
            {
              "pitch": 42,
              "velocity": 120,
              "position": 1,
              "duration": 0.00625
            },
            {
              "pitch": 46,
              "velocity": 40,
              "position": 1.5,
              "duration": 0.00625
            },
            {
              "pitch": 32,
              "velocity": 24,
              "position": 1.7708333333333333,
              "duration": 0.00625
            },
            {
              "pitch": 26,
              "velocity": 50,
              "position": 0,
              "duration": 1.9854166666666666
            },
            {
              "pitch": 42,
              "velocity": 120,
              "position": 2,
              "duration": 0.00625
            },
            {
              "pitch": 32,
              "velocity": 24,
              "position": 2.2708333333333335,
              "duration": 0.00625
            },
            {
              "pitch": 46,
              "velocity": 40,
              "position": 2.5,
              "duration": 0.00625
            },
            {
              "pitch": 32,
              "velocity": 104,
              "position": 3,
              "duration": 0.00625
            },
            {
              "pitch": 42,
              "velocity": 120,
              "position": 3,
              "duration": 0.00625
            },
            {
              "pitch": 46,
              "velocity": 60,
              "position": 3.5,
              "duration": 0.00625
            },
            {
              "pitch": 32,
              "velocity": 34,
              "position": 3.7708333333333335,
              "duration": 0.00625
            },
            {
              "pitch": 26,
              "velocity": 50,
              "position": 2,
              "duration": 1.9854166666666666
            },
            {
              "pitch": 42,
              "velocity": 120,
              "position": 4,
              "duration": 0.00625
            },
            {
              "pitch": 32,
              "velocity": 34,
              "position": 4.270833333333333,
              "duration": 0.00625
            },
            {
              "pitch": 46,
              "velocity": 60,
              "position": 4.5,
              "duration": 0.00625
            },
            {
              "pitch": 32,
              "velocity": 104,
              "position": 5,
              "duration": 0.00625
            },
            {
              "pitch": 42,
              "velocity": 120,
              "position": 5,
              "duration": 0.00625
            },
            {
              "pitch": 46,
              "velocity": 40,
              "position": 5.5,
              "duration": 0.00625
            },
            {
              "pitch": 32,
              "velocity": 24,
              "position": 5.770833333333333,
              "duration": 0.00625
            },
            {
              "pitch": 26,
              "velocity": 50,
              "position": 4,
              "duration": 1.9854166666666666
            },
            {
              "pitch": 42,
              "velocity": 120,
              "position": 6,
              "duration": 0.00625
            },
            {
              "pitch": 32,
              "velocity": 24,
              "position": 6.270833333333333,
              "duration": 0.00625
            },
            {
              "pitch": 46,
              "velocity": 40,
              "position": 6.5,
              "duration": 0.00625
            },
            {
              "pitch": 32,
              "velocity": 104,
              "position": 7,
              "duration": 0.00625
            },
            {
              "pitch": 42,
              "velocity": 120,
              "position": 7,
              "duration": 0.00625
            },
            {
              "pitch": 46,
              "velocity": 60,
              "position": 7.5,
              "duration": 0.00625
            },
            {
              "pitch": 32,
              "velocity": 34,
              "position": 7.770833333333333,
              "duration": 0.00625
            },
            {
              "pitch": 26,
              "velocity": 50,
              "position": 6,
              "duration": 1.9854166666666666
            },
            {
              "pitch": 42,
              "velocity": 120,
              "position": 8,
              "duration": 0.00625
            },
            {
              "pitch": 32,
              "velocity": 34,
              "position": 8.270833333333334,
              "duration": 0.00625
            },
            {
              "pitch": 46,
              "velocity": 60,
              "position": 8.5,
              "duration": 0.00625
            },
            {
              "pitch": 32,
              "velocity": 104,
              "position": 9,
              "duration": 0.00625
            },
            {
              "pitch": 42,
              "velocity": 120,
              "position": 9,
              "duration": 0.00625
            },
            {
              "pitch": 46,
              "velocity": 40,
              "position": 9.5,
              "duration": 0.00625
            },
            {
              "pitch": 32,
              "velocity": 24,
              "position": 9.770833333333334,
              "duration": 0.00625
            },
            {
              "pitch": 26,
              "velocity": 50,
              "position": 8,
              "duration": 1.9854166666666666
            },
            {
              "pitch": 42,
              "velocity": 120,
              "position": 10,
              "duration": 0.00625
            },
            {
              "pitch": 32,
              "velocity": 24,
              "position": 10.270833333333334,
              "duration": 0.00625
            },
            {
              "pitch": 46,
              "velocity": 40,
              "position": 10.5,
              "duration": 0.00625
            },
            {
              "pitch": 32,
              "velocity": 104,
              "position": 11,
              "duration": 0.00625
            },
            {
              "pitch": 42,
              "velocity": 120,
              "position": 11,
              "duration": 0.00625
            },
            {
              "pitch": 46,
              "velocity": 60,
              "position": 11.5,
              "duration": 0.00625
            },
            {
              "pitch": 32,
              "velocity": 34,
              "position": 11.770833333333334,
              "duration": 0.00625
            },
            {
              "pitch": 26,
              "velocity": 50,
              "position": 10,
              "duration": 1.9854166666666666
            },
            {
              "pitch": 42,
              "velocity": 120,
              "position": 12,
              "duration": 0.00625
            },
            {
              "pitch": 18,
              "velocity": 81,
              "position": 11.666666666666666,
              "duration": 0.4875
            },
            {
              "pitch": 32,
              "velocity": 34,
              "position": 12.270833333333334,
              "duration": 0.00625
            },
            {
              "pitch": 17,
              "velocity": 127,
              "position": 12,
              "duration": 0.48541666666666666
            },
            {
              "pitch": 46,
              "velocity": 60,
              "position": 12.5,
              "duration": 0.00625
            },
            {
              "pitch": 18,
              "velocity": 81,
              "position": 12.166666666666666,
              "duration": 0.4875
            },
            {
              "pitch": 17,
              "velocity": 127,
              "position": 12.5,
              "duration": 0.48541666666666666
            },
            {
              "pitch": 26,
              "velocity": 50,
              "position": 12,
              "duration": 0.9854166666666667
            },
            {
              "pitch": 32,
              "velocity": 104,
              "position": 13,
              "duration": 0.00625
            },
            {
              "pitch": 42,
              "velocity": 120,
              "position": 13,
              "duration": 0.00625
            },
            {
              "pitch": 42,
              "velocity": 120,
              "position": 14,
              "duration": 0.00625
            }
          ]
        },
        "9": {
          "ctab": {
            "srcChannel": 9,
            "name": "MainDrum",
            "accType": "RHYTHM",
            "editable": false,
            "mutedNotes": [],
            "mutedChords": [],
            "autoStart": true,
            "sourceChordNote": 0,
            "sourceChordType": "Maj7",
            "ctb2Low": null,
            "ctb2Main": {
              "ntr": "ROOT_FIXED",
              "ntt": "BYPASS",
              "bassOn": false,
              "chordRootUpperLimit": 6,
              "noteLowLimit": 0,
              "noteHighLimit": 127,
              "rtr": "PITCH_SHIFT"
            },
            "ctb2High": null
          },
          "notes": [
            {
              "pitch": 35,
              "velocity": 100,
              "position": 0,
              "duration": 0.00625
            },
            {
              "pitch": 53,
              "velocity": 102,
              "position": 0,
              "duration": 0.00625
            },
            {
              "pitch": 54,
              "velocity": 38,
              "position": 0.0020833333333333333,
              "duration": 0.00625
            },
            {
              "pitch": 54,
              "velocity": 48,
              "position": 0.2708333333333333,
              "duration": 0.00625
            },
            {
              "pitch": 38,
              "velocity": 16,
              "position": 0.27291666666666664,
              "duration": 0.00625
            },
            {
              "pitch": 35,
              "velocity": 100,
              "position": 0.5,
              "duration": 0.00625
            },
            {
              "pitch": 44,
              "velocity": 60,
              "position": 0.5,
              "duration": 0.00625
            },
            {
              "pitch": 53,
              "velocity": 70,
              "position": 0.5,
              "duration": 0.00625
            },
            {
              "pitch": 54,
              "velocity": 49,
              "position": 0.5041666666666667,
              "duration": 0.00625
            },
            {
              "pitch": 54,
              "velocity": 26,
              "position": 0.7645833333333333,
              "duration": 0.00625
            },
            {
              "pitch": 38,
              "velocity": 13,
              "position": 0.775,
              "duration": 0.00625
            },
            {
              "pitch": 38,
              "velocity": 110,
              "position": 1,
              "duration": 0.00625
            },
            {
              "pitch": 53,
              "velocity": 102,
              "position": 1,
              "duration": 0.00625
            },
            {
              "pitch": 54,
              "velocity": 91,
              "position": 1,
              "duration": 0.00625
            },
            {
              "pitch": 38,
              "velocity": 26,
              "position": 1.2604166666666667,
              "duration": 0.00625
            },
            {
              "pitch": 54,
              "velocity": 22,
              "position": 1.2708333333333333,
              "duration": 0.00625
            },
            {
              "pitch": 54,
              "velocity": 46,
              "position": 1.4916666666666667,
              "duration": 0.00625
            },
            {
              "pitch": 35,
              "velocity": 60,
              "position": 1.5,
              "duration": 0.00625
            },
            {
              "pitch": 44,
              "velocity": 60,
              "position": 1.5,
              "duration": 0.00625
            },
            {
              "pitch": 53,
              "velocity": 70,
              "position": 1.5,
              "duration": 0.00625
            },
            {
              "pitch": 38,
              "velocity": 72,
              "position": 1.7708333333333333,
              "duration": 0.00625
            },
            {
              "pitch": 54,
              "velocity": 37,
              "position": 1.7708333333333333,
              "duration": 0.00625
            },
            {
              "pitch": 38,
              "velocity": 29,
              "position": 1.8770833333333334,
              "duration": 0.00625
            },
            {
              "pitch": 35,
              "velocity": 100,
              "position": 2,
              "duration": 0.00625
            },
            {
              "pitch": 53,
              "velocity": 102,
              "position": 2,
              "duration": 0.00625
            },
            {
              "pitch": 54,
              "velocity": 45,
              "position": 2.002083333333333,
              "duration": 0.00625
            },
            {
              "pitch": 38,
              "velocity": 41,
              "position": 2.2625,
              "duration": 0.00625
            },
            {
              "pitch": 54,
              "velocity": 45,
              "position": 2.2708333333333335,
              "duration": 0.00625
            },
            {
              "pitch": 35,
              "velocity": 100,
              "position": 2.5,
              "duration": 0.00625
            },
            {
              "pitch": 44,
              "velocity": 60,
              "position": 2.5,
              "duration": 0.00625
            },
            {
              "pitch": 53,
              "velocity": 70,
              "position": 2.5,
              "duration": 0.00625
            },
            {
              "pitch": 54,
              "velocity": 46,
              "position": 2.5,
              "duration": 0.00625
            },
            {
              "pitch": 54,
              "velocity": 30,
              "position": 2.7604166666666665,
              "duration": 0.00625
            },
            {
              "pitch": 38,
              "velocity": 13,
              "position": 2.7625,
              "duration": 0.00625
            },
            {
              "pitch": 38,
              "velocity": 110,
              "position": 3,
              "duration": 0.00625
            },
            {
              "pitch": 53,
              "velocity": 102,
              "position": 3,
              "duration": 0.00625
            },
            {
              "pitch": 54,
              "velocity": 50,
              "position": 3,
              "duration": 0.00625
            },
            {
              "pitch": 38,
              "velocity": 24,
              "position": 3.2625,
              "duration": 0.00625
            },
            {
              "pitch": 54,
              "velocity": 35,
              "position": 3.2708333333333335,
              "duration": 0.00625
            },
            {
              "pitch": 54,
              "velocity": 46,
              "position": 3.4916666666666667,
              "duration": 0.00625
            },
            {
              "pitch": 35,
              "velocity": 80,
              "position": 3.5,
              "duration": 0.00625
            },
            {
              "pitch": 44,
              "velocity": 60,
              "position": 3.5,
              "duration": 0.00625
            },
            {
              "pitch": 53,
              "velocity": 70,
              "position": 3.5,
              "duration": 0.00625
            },
            {
              "pitch": 38,
              "velocity": 58,
              "position": 3.7708333333333335,
              "duration": 0.00625
            },
            {
              "pitch": 54,
              "velocity": 52,
              "position": 3.7708333333333335,
              "duration": 0.00625
            },
            {
              "pitch": 38,
              "velocity": 29,
              "position": 3.86875,
              "duration": 0.00625
            },
            {
              "pitch": 35,
              "velocity": 100,
              "position": 4,
              "duration": 0.00625
            },
            {
              "pitch": 53,
              "velocity": 102,
              "position": 4,
              "duration": 0.00625
            },
            {
              "pitch": 54,
              "velocity": 96,
              "position": 4,
              "duration": 0.00625
            },
            {
              "pitch": 54,
              "velocity": 13,
              "position": 4.260416666666667,
              "duration": 0.00625
            },
            {
              "pitch": 38,
              "velocity": 26,
              "position": 4.2625,
              "duration": 0.00625
            },
            {
              "pitch": 35,
              "velocity": 100,
              "position": 4.5,
              "duration": 0.00625
            },
            {
              "pitch": 44,
              "velocity": 60,
              "position": 4.5,
              "duration": 0.00625
            },
            {
              "pitch": 53,
              "velocity": 70,
              "position": 4.5,
              "duration": 0.00625
            },
            {
              "pitch": 54,
              "velocity": 35,
              "position": 4.504166666666666,
              "duration": 0.00625
            },
            {
              "pitch": 54,
              "velocity": 62,
              "position": 4.770833333333333,
              "duration": 0.00625
            },
            {
              "pitch": 54,
              "velocity": 43,
              "position": 4.989583333333333,
              "duration": 0.00625
            },
            {
              "pitch": 38,
              "velocity": 110,
              "position": 5,
              "duration": 0.00625
            },
            {
              "pitch": 53,
              "velocity": 102,
              "position": 5,
              "duration": 0.00625
            },
            {
              "pitch": 35,
              "velocity": 80,
              "position": 5.270833333333333,
              "duration": 0.00625
            },
            {
              "pitch": 54,
              "velocity": 40,
              "position": 5.270833333333333,
              "duration": 0.00625
            },
            {
              "pitch": 44,
              "velocity": 60,
              "position": 5.5,
              "duration": 0.00625
            },
            {
              "pitch": 53,
              "velocity": 70,
              "position": 5.5,
              "duration": 0.00625
            },
            {
              "pitch": 54,
              "velocity": 43,
              "position": 5.5,
              "duration": 0.00625
            },
            {
              "pitch": 54,
              "velocity": 24,
              "position": 5.764583333333333,
              "duration": 0.00625
            },
            {
              "pitch": 38,
              "velocity": 85,
              "position": 5.770833333333333,
              "duration": 0.00625
            },
            {
              "pitch": 38,
              "velocity": 36,
              "position": 5.875,
              "duration": 0.00625
            },
            {
              "pitch": 35,
              "velocity": 100,
              "position": 6,
              "duration": 0.00625
            },
            {
              "pitch": 53,
              "velocity": 102,
              "position": 6,
              "duration": 0.00625
            },
            {
              "pitch": 54,
              "velocity": 38,
              "position": 6.004166666666666,
              "duration": 0.00625
            },
            {
              "pitch": 38,
              "velocity": 43,
              "position": 6.260416666666667,
              "duration": 0.00625
            },
            {
              "pitch": 54,
              "velocity": 20,
              "position": 6.2625,
              "duration": 0.00625
            },
            {
              "pitch": 35,
              "velocity": 100,
              "position": 6.5,
              "duration": 0.00625
            },
            {
              "pitch": 44,
              "velocity": 60,
              "position": 6.5,
              "duration": 0.00625
            },
            {
              "pitch": 53,
              "velocity": 70,
              "position": 6.5,
              "duration": 0.00625
            },
            {
              "pitch": 54,
              "velocity": 49,
              "position": 6.5,
              "duration": 0.00625
            },
            {
              "pitch": 54,
              "velocity": 35,
              "position": 6.770833333333333,
              "duration": 0.00625
            },
            {
              "pitch": 38,
              "velocity": 28,
              "position": 6.772916666666666,
              "duration": 0.00625
            },
            {
              "pitch": 54,
              "velocity": 31,
              "position": 6.989583333333333,
              "duration": 0.00625
            },
            {
              "pitch": 38,
              "velocity": 110,
              "position": 7,
              "duration": 0.00625
            },
            {
              "pitch": 53,
              "velocity": 102,
              "position": 7,
              "duration": 0.00625
            },
            {
              "pitch": 54,
              "velocity": 38,
              "position": 7.260416666666667,
              "duration": 0.00625
            },
            {
              "pitch": 35,
              "velocity": 100,
              "position": 7.270833333333333,
              "duration": 0.00625
            },
            {
              "pitch": 54,
              "velocity": 41,
              "position": 7.49375,
              "duration": 0.00625
            },
            {
              "pitch": 44,
              "velocity": 60,
              "position": 7.5,
              "duration": 0.00625
            },
            {
              "pitch": 53,
              "velocity": 70,
              "position": 7.5,
              "duration": 0.00625
            },
            {
              "pitch": 38,
              "velocity": 44,
              "position": 7.770833333333333,
              "duration": 0.00625
            },
            {
              "pitch": 54,
              "velocity": 55,
              "position": 7.770833333333333,
              "duration": 0.00625
            },
            {
              "pitch": 38,
              "velocity": 22,
              "position": 7.875,
              "duration": 0.00625
            },
            {
              "pitch": 35,
              "velocity": 100,
              "position": 8,
              "duration": 0.00625
            },
            {
              "pitch": 53,
              "velocity": 102,
              "position": 8,
              "duration": 0.00625
            },
            {
              "pitch": 54,
              "velocity": 43,
              "position": 8,
              "duration": 0.00625
            },
            {
              "pitch": 54,
              "velocity": 34,
              "position": 8.260416666666666,
              "duration": 0.00625
            },
            {
              "pitch": 38,
              "velocity": 16,
              "position": 8.2625,
              "duration": 0.00625
            },
            {
              "pitch": 35,
              "velocity": 100,
              "position": 8.5,
              "duration": 0.00625
            },
            {
              "pitch": 44,
              "velocity": 60,
              "position": 8.5,
              "duration": 0.00625
            },
            {
              "pitch": 53,
              "velocity": 70,
              "position": 8.5,
              "duration": 0.00625
            },
            {
              "pitch": 54,
              "velocity": 36,
              "position": 8.5,
              "duration": 0.00625
            },
            {
              "pitch": 38,
              "velocity": 18,
              "position": 8.760416666666666,
              "duration": 0.00625
            },
            {
              "pitch": 54,
              "velocity": 38,
              "position": 8.764583333333333,
              "duration": 0.00625
            },
            {
              "pitch": 38,
              "velocity": 110,
              "position": 9,
              "duration": 0.00625
            },
            {
              "pitch": 53,
              "velocity": 102,
              "position": 9,
              "duration": 0.00625
            },
            {
              "pitch": 54,
              "velocity": 98,
              "position": 9,
              "duration": 0.00625
            },
            {
              "pitch": 54,
              "velocity": 29,
              "position": 9.260416666666666,
              "duration": 0.00625
            },
            {
              "pitch": 35,
              "velocity": 60,
              "position": 9.270833333333334,
              "duration": 0.00625
            },
            {
              "pitch": 35,
              "velocity": 80,
              "position": 9.5,
              "duration": 0.00625
            },
            {
              "pitch": 44,
              "velocity": 60,
              "position": 9.5,
              "duration": 0.00625
            },
            {
              "pitch": 53,
              "velocity": 70,
              "position": 9.5,
              "duration": 0.00625
            },
            {
              "pitch": 54,
              "velocity": 48,
              "position": 9.5,
              "duration": 0.00625
            },
            {
              "pitch": 38,
              "velocity": 89,
              "position": 9.760416666666666,
              "duration": 0.00625
            },
            {
              "pitch": 54,
              "velocity": 57,
              "position": 9.770833333333334,
              "duration": 0.00625
            },
            {
              "pitch": 38,
              "velocity": 34,
              "position": 9.864583333333334,
              "duration": 0.00625
            },
            {
              "pitch": 35,
              "velocity": 100,
              "position": 10,
              "duration": 0.00625
            },
            {
              "pitch": 53,
              "velocity": 102,
              "position": 10,
              "duration": 0.00625
            },
            {
              "pitch": 54,
              "velocity": 105,
              "position": 10,
              "duration": 0.00625
            },
            {
              "pitch": 54,
              "velocity": 32,
              "position": 10.270833333333334,
              "duration": 0.00625
            },
            {
              "pitch": 38,
              "velocity": 17,
              "position": 10.275,
              "duration": 0.00625
            },
            {
              "pitch": 38,
              "velocity": 33,
              "position": 10.385416666666666,
              "duration": 0.00625
            },
            {
              "pitch": 35,
              "velocity": 100,
              "position": 10.5,
              "duration": 0.00625
            },
            {
              "pitch": 38,
              "velocity": 110,
              "position": 10.5,
              "duration": 0.00625
            },
            {
              "pitch": 44,
              "velocity": 60,
              "position": 10.5,
              "duration": 0.00625
            },
            {
              "pitch": 53,
              "velocity": 70,
              "position": 10.5,
              "duration": 0.00625
            },
            {
              "pitch": 54,
              "velocity": 34,
              "position": 10.5,
              "duration": 0.00625
            },
            {
              "pitch": 38,
              "velocity": 41,
              "position": 10.760416666666666,
              "duration": 0.00625
            },
            {
              "pitch": 54,
              "velocity": 39,
              "position": 10.770833333333334,
              "duration": 0.00625
            },
            {
              "pitch": 54,
              "velocity": 43,
              "position": 10.989583333333334,
              "duration": 0.00625
            },
            {
              "pitch": 38,
              "velocity": 110,
              "position": 11,
              "duration": 0.00625
            },
            {
              "pitch": 53,
              "velocity": 102,
              "position": 11,
              "duration": 0.00625
            },
            {
              "pitch": 35,
              "velocity": 80,
              "position": 11.270833333333334,
              "duration": 0.00625
            },
            {
              "pitch": 38,
              "velocity": 88,
              "position": 11.270833333333334,
              "duration": 0.00625
            },
            {
              "pitch": 54,
              "velocity": 16,
              "position": 11.275,
              "duration": 0.00625
            },
            {
              "pitch": 54,
              "velocity": 33,
              "position": 11.489583333333334,
              "duration": 0.00625
            },
            {
              "pitch": 44,
              "velocity": 60,
              "position": 11.5,
              "duration": 0.00625
            },
            {
              "pitch": 53,
              "velocity": 70,
              "position": 11.5,
              "duration": 0.00625
            },
            {
              "pitch": 38,
              "velocity": 58,
              "position": 11.764583333333333,
              "duration": 0.00625
            },
            {
              "pitch": 54,
              "velocity": 58,
              "position": 11.764583333333333,
              "duration": 0.00625
            },
            {
              "pitch": 38,
              "velocity": 31,
              "position": 11.875,
              "duration": 0.00625
            },
            {
              "pitch": 35,
              "velocity": 100,
              "position": 12,
              "duration": 0.00625
            },
            {
              "pitch": 53,
              "velocity": 102,
              "position": 12,
              "duration": 0.00625
            },
            {
              "pitch": 54,
              "velocity": 119,
              "position": 12,
              "duration": 0.00625
            },
            {
              "pitch": 38,
              "velocity": 22,
              "position": 12.270833333333334,
              "duration": 0.00625
            },
            {
              "pitch": 54,
              "velocity": 37,
              "position": 12.270833333333334,
              "duration": 0.00625
            },
            {
              "pitch": 35,
              "velocity": 100,
              "position": 12.5,
              "duration": 0.00625
            },
            {
              "pitch": 46,
              "velocity": 84,
              "position": 12.5,
              "duration": 0.00625
            },
            {
              "pitch": 54,
              "velocity": 41,
              "position": 12.5,
              "duration": 0.00625
            },
            {
              "pitch": 44,
              "velocity": 1,
              "position": 12.770833333333334,
              "duration": 0.00625
            },
            {
              "pitch": 38,
              "velocity": 110,
              "position": 13,
              "duration": 0.00625
            },
            {
              "pitch": 54,
              "velocity": 46,
              "position": 13.2625,
              "duration": 0.00625
            },
            {
              "pitch": 35,
              "velocity": 80,
              "position": 13.270833333333334,
              "duration": 0.00625
            },
            {
              "pitch": 46,
              "velocity": 84,
              "position": 13.270833333333334,
              "duration": 0.00625
            },
            {
              "pitch": 44,
              "velocity": 1,
              "position": 13.520833333333334,
              "duration": 0.00625
            },
            {
              "pitch": 35,
              "velocity": 100,
              "position": 14,
              "duration": 0.00625
            },
            {
              "pitch": 54,
              "velocity": 54,
              "position": 14,
              "duration": 0.00625
            },
            {
              "pitch": 57,
              "velocity": 80,
              "position": 14,
              "duration": 0.00625
            },
            {
              "pitch": 38,
              "velocity": 110,
              "position": 18.75,
              "duration": 0.00625
            },
            {
              "pitch": 38,
              "velocity": 63,
              "position": 18.885416666666668,
              "duration": 0.00625
            },
            {
              "pitch": 35,
              "velocity": 100,
              "position": 19,
              "duration": 0.00625
            },
            {
              "pitch": 44,
              "velocity": 80,
              "position": 19,
              "duration": 0.00625
            }
          ]
        },
        "10": {
          "ctab": {
            "srcChannel": 10,
            "name": "Bass",
            "accType": "BASS",
            "editable": false,
            "mutedNotes": [],
            "mutedChords": [
              "dim7",
              "dim",
              "minMaj7(9)",
              "minMaj7",
              "min7(11)",
              "min7(9)",
              "min(9)",
              "m7b5",
              "min7",
              "min6",
              "min"
            ],
            "autoStart": false,
            "sourceChordNote": 0,
            "sourceChordType": "Maj",
            "ctb2Low": null,
            "ctb2Main": {
              "ntr": "ROOT_TRANSPOSITION",
              "ntt": "BYPASS",
              "bassOn": false,
              "chordRootUpperLimit": 8,
              "noteLowLimit": 28,
              "noteHighLimit": 127,
              "rtr": "PITCH_SHIFT"
            },
            "ctb2High": null
          },
          "notes": [
            {
              "pitch": 24,
              "velocity": 70,
              "position": 0,
              "duration": 0.29791666666666666
            },
            {
              "pitch": 24,
              "velocity": 69,
              "position": 0.4791666666666667,
              "duration": 0.6104166666666667
            },
            {
              "pitch": 24,
              "velocity": 110,
              "position": 1.2708333333333333,
              "duration": 0.21458333333333332
            },
            {
              "pitch": 24,
              "velocity": 69,
              "position": 1.5,
              "duration": 0.19375
            },
            {
              "pitch": 24,
              "velocity": 63,
              "position": 1.7604166666666667,
              "duration": 0.19375
            },
            {
              "pitch": 24,
              "velocity": 66,
              "position": 1.98125,
              "duration": 0.3
            },
            {
              "pitch": 24,
              "velocity": 71,
              "position": 2.5,
              "duration": 0.6104166666666667
            },
            {
              "pitch": 24,
              "velocity": 110,
              "position": 3.285416666666667,
              "duration": 0.20208333333333334
            },
            {
              "pitch": 19,
              "velocity": 70,
              "position": 3.5,
              "duration": 0.19583333333333333
            },
            {
              "pitch": 19,
              "velocity": 57,
              "position": 3.785416666666667,
              "duration": 0.19583333333333333
            },
            {
              "pitch": 19,
              "velocity": 70,
              "position": 4,
              "duration": 0.29791666666666666
            },
            {
              "pitch": 19,
              "velocity": 70,
              "position": 4.479166666666667,
              "duration": 0.6104166666666667
            },
            {
              "pitch": 19,
              "velocity": 110,
              "position": 5.270833333333333,
              "duration": 0.20625
            },
            {
              "pitch": 24,
              "velocity": 71,
              "position": 5.489583333333333,
              "duration": 0.2
            },
            {
              "pitch": 24,
              "velocity": 64,
              "position": 5.770833333333333,
              "duration": 0.2
            },
            {
              "pitch": 24,
              "velocity": 68,
              "position": 6.010416666666667,
              "duration": 0.29791666666666666
            },
            {
              "pitch": 24,
              "velocity": 68,
              "position": 6.489583333333333,
              "duration": 0.50625
            },
            {
              "pitch": 24,
              "velocity": 110,
              "position": 7.0125,
              "duration": 0.2375
            },
            {
              "pitch": 21,
              "velocity": 71,
              "position": 7.270833333333333,
              "duration": 0.66875
            },
            {
              "pitch": 21,
              "velocity": 68,
              "position": 8,
              "duration": 0.29791666666666666
            },
            {
              "pitch": 21,
              "velocity": 67,
              "position": 8.5,
              "duration": 0.6104166666666667
            },
            {
              "pitch": 21,
              "velocity": 110,
              "position": 9.25,
              "duration": 0.21458333333333332
            },
            {
              "pitch": 26,
              "velocity": 71,
              "position": 9.48125,
              "duration": 0.19791666666666666
            },
            {
              "pitch": 26,
              "velocity": 62,
              "position": 9.752083333333333,
              "duration": 0.19791666666666666
            },
            {
              "pitch": 26,
              "velocity": 69,
              "position": 9.991666666666667,
              "duration": 0.3
            },
            {
              "pitch": 26,
              "velocity": 68,
              "position": 10.489583333333334,
              "duration": 0.6125
            },
            {
              "pitch": 26,
              "velocity": 110,
              "position": 11.260416666666666,
              "duration": 0.21666666666666667
            },
            {
              "pitch": 19,
              "velocity": 70,
              "position": 11.504166666666666,
              "duration": 0.2375
            },
            {
              "pitch": 19,
              "velocity": 64,
              "position": 11.783333333333333,
              "duration": 0.19791666666666666
            },
            {
              "pitch": 19,
              "velocity": 68,
              "position": 12,
              "duration": 0.29791666666666666
            },
            {
              "pitch": 19,
              "velocity": 74,
              "position": 12.48125,
              "duration": 0.3625
            },
            {
              "pitch": 19,
              "velocity": 69,
              "position": 13.285416666666666,
              "duration": 0.42083333333333334
            },
            {
              "pitch": 24,
              "velocity": 67,
              "position": 14,
              "duration": 4.991666666666666
            }
          ]
        },
        "11": {
          "ctab": {
            "srcChannel": 11,
            "name": "Strat",
            "accType": "CHORD1",
            "editable": false,
            "mutedNotes": [],
            "mutedChords": [
              "dim7",
              "dim",
              "minMaj7(9)",
              "minMaj7",
              "min7(11)",
              "min7(9)",
              "min(9)",
              "m7b5",
              "min7",
              "min6",
              "min"
            ],
            "autoStart": false,
            "sourceChordNote": 0,
            "sourceChordType": "Maj",
            "ctb2Low": null,
            "ctb2Main": {
              "ntr": "ROOT_TRANSPOSITION",
              "ntt": "BYPASS",
              "bassOn": false,
              "chordRootUpperLimit": 8,
              "noteLowLimit": 54,
              "noteHighLimit": 72,
              "rtr": "PITCH_SHIFT"
            },
            "ctb2High": null
          },
          "notes": [
            {
              "pitch": 106,
              "velocity": 127,
              "position": 0.010416666666666666,
              "duration": 0.23541666666666666
            },
            {
              "pitch": 107,
              "velocity": 82,
              "position": 0.2708333333333333,
              "duration": 0.23541666666666666
            },
            {
              "pitch": 48,
              "velocity": 57,
              "position": 0.5,
              "duration": 0.23541666666666666
            },
            {
              "pitch": 108,
              "velocity": 121,
              "position": 0.5,
              "duration": 0.23541666666666666
            },
            {
              "pitch": 52,
              "velocity": 48,
              "position": 0.5,
              "duration": 0.2375
            },
            {
              "pitch": 79,
              "velocity": 56,
              "position": 0.5104166666666666,
              "duration": 0.23541666666666666
            },
            {
              "pitch": 84,
              "velocity": 45,
              "position": 0.5104166666666666,
              "duration": 0.2375
            },
            {
              "pitch": 105,
              "velocity": 81,
              "position": 0.7708333333333334,
              "duration": 0.23541666666666666
            },
            {
              "pitch": 106,
              "velocity": 103,
              "position": 1,
              "duration": 0.23541666666666666
            },
            {
              "pitch": 79,
              "velocity": 31,
              "position": 1.0104166666666667,
              "duration": 0.25625
            },
            {
              "pitch": 52,
              "velocity": 35,
              "position": 1,
              "duration": 0.26875
            },
            {
              "pitch": 48,
              "velocity": 42,
              "position": 1,
              "duration": 0.27708333333333335
            },
            {
              "pitch": 107,
              "velocity": 123,
              "position": 1.2708333333333333,
              "duration": 0.20416666666666666
            },
            {
              "pitch": 84,
              "velocity": 45,
              "position": 1.2708333333333333,
              "duration": 0.2375
            },
            {
              "pitch": 79,
              "velocity": 40,
              "position": 1.28125,
              "duration": 0.23541666666666666
            },
            {
              "pitch": 52,
              "velocity": 51,
              "position": 1.28125,
              "duration": 0.2375
            },
            {
              "pitch": 48,
              "velocity": 43,
              "position": 1.2916666666666667,
              "duration": 0.23541666666666666
            },
            {
              "pitch": 108,
              "velocity": 118,
              "position": 1.5,
              "duration": 0.23541666666666666
            },
            {
              "pitch": 105,
              "velocity": 75,
              "position": 1.7708333333333333,
              "duration": 0.23541666666666666
            },
            {
              "pitch": 106,
              "velocity": 125,
              "position": 2,
              "duration": 0.23541666666666666
            },
            {
              "pitch": 48,
              "velocity": 56,
              "position": 2,
              "duration": 0.25833333333333336
            },
            {
              "pitch": 42,
              "velocity": 56,
              "position": 2,
              "duration": 0.26666666666666666
            },
            {
              "pitch": 42,
              "velocity": 23,
              "position": 2.28125,
              "duration": 0.20416666666666666
            },
            {
              "pitch": 48,
              "velocity": 25,
              "position": 2.2708333333333335,
              "duration": 0.21666666666666667
            },
            {
              "pitch": 74,
              "velocity": 49,
              "position": 2.0104166666666665,
              "duration": 0.48541666666666666
            },
            {
              "pitch": 107,
              "velocity": 80,
              "position": 2.2708333333333335,
              "duration": 0.23541666666666666
            },
            {
              "pitch": 108,
              "velocity": 97,
              "position": 2.5,
              "duration": 0.23541666666666666
            },
            {
              "pitch": 81,
              "velocity": 41,
              "position": 2.0104166666666665,
              "duration": 0.7479166666666667
            },
            {
              "pitch": 74,
              "velocity": 34,
              "position": 2.5104166666666665,
              "duration": 0.25625
            },
            {
              "pitch": 48,
              "velocity": 50,
              "position": 2.5,
              "duration": 0.26875
            },
            {
              "pitch": 42,
              "velocity": 41,
              "position": 2.5,
              "duration": 0.27708333333333335
            },
            {
              "pitch": 81,
              "velocity": 41,
              "position": 2.7708333333333335,
              "duration": 0.20416666666666666
            },
            {
              "pitch": 105,
              "velocity": 127,
              "position": 2.7708333333333335,
              "duration": 0.20416666666666666
            },
            {
              "pitch": 48,
              "velocity": 51,
              "position": 2.78125,
              "duration": 0.20416666666666666
            },
            {
              "pitch": 74,
              "velocity": 47,
              "position": 2.78125,
              "duration": 0.20416666666666666
            },
            {
              "pitch": 42,
              "velocity": 51,
              "position": 2.7916666666666665,
              "duration": 0.20416666666666666
            },
            {
              "pitch": 106,
              "velocity": 96,
              "position": 3,
              "duration": 0.23541666666666666
            },
            {
              "pitch": 107,
              "velocity": 120,
              "position": 3.2708333333333335,
              "duration": 0.20416666666666666
            },
            {
              "pitch": 108,
              "velocity": 115,
              "position": 3.5,
              "duration": 0.23541666666666666
            },
            {
              "pitch": 81,
              "velocity": 56,
              "position": 3.5104166666666665,
              "duration": 0.24791666666666667
            },
            {
              "pitch": 74,
              "velocity": 45,
              "position": 3.5104166666666665,
              "duration": 0.25625
            },
            {
              "pitch": 48,
              "velocity": 44,
              "position": 3.5,
              "duration": 0.26875
            },
            {
              "pitch": 42,
              "velocity": 45,
              "position": 3.5,
              "duration": 0.48541666666666666
            },
            {
              "pitch": 105,
              "velocity": 79,
              "position": 3.7708333333333335,
              "duration": 0.23541666666666666
            },
            {
              "pitch": 81,
              "velocity": 34,
              "position": 3.7708333333333335,
              "duration": 0.2375
            },
            {
              "pitch": 74,
              "velocity": 36,
              "position": 3.78125,
              "duration": 0.23541666666666666
            },
            {
              "pitch": 48,
              "velocity": 45,
              "position": 3.78125,
              "duration": 0.2375
            },
            {
              "pitch": 106,
              "velocity": 122,
              "position": 4,
              "duration": 0.23541666666666666
            },
            {
              "pitch": 107,
              "velocity": 76,
              "position": 4.270833333333333,
              "duration": 0.23541666666666666
            },
            {
              "pitch": 41,
              "velocity": 40,
              "position": 4.5,
              "duration": 0.23541666666666666
            },
            {
              "pitch": 108,
              "velocity": 124,
              "position": 4.5,
              "duration": 0.23541666666666666
            },
            {
              "pitch": 48,
              "velocity": 48,
              "position": 4.5,
              "duration": 0.2375
            },
            {
              "pitch": 76,
              "velocity": 45,
              "position": 4.510416666666667,
              "duration": 0.23541666666666666
            },
            {
              "pitch": 81,
              "velocity": 48,
              "position": 4.510416666666667,
              "duration": 0.2375
            },
            {
              "pitch": 105,
              "velocity": 89,
              "position": 4.770833333333333,
              "duration": 0.23541666666666666
            },
            {
              "pitch": 106,
              "velocity": 90,
              "position": 5,
              "duration": 0.23541666666666666
            },
            {
              "pitch": 76,
              "velocity": 38,
              "position": 5.010416666666667,
              "duration": 0.25625
            },
            {
              "pitch": 48,
              "velocity": 36,
              "position": 5,
              "duration": 0.26875
            },
            {
              "pitch": 41,
              "velocity": 29,
              "position": 5,
              "duration": 0.27708333333333335
            },
            {
              "pitch": 107,
              "velocity": 127,
              "position": 5.270833333333333,
              "duration": 0.20416666666666666
            },
            {
              "pitch": 81,
              "velocity": 56,
              "position": 5.270833333333333,
              "duration": 0.2375
            },
            {
              "pitch": 76,
              "velocity": 51,
              "position": 5.28125,
              "duration": 0.23541666666666666
            },
            {
              "pitch": 48,
              "velocity": 40,
              "position": 5.28125,
              "duration": 0.2375
            },
            {
              "pitch": 41,
              "velocity": 48,
              "position": 5.291666666666667,
              "duration": 0.23541666666666666
            },
            {
              "pitch": 108,
              "velocity": 122,
              "position": 5.5,
              "duration": 0.23541666666666666
            },
            {
              "pitch": 105,
              "velocity": 74,
              "position": 5.770833333333333,
              "duration": 0.23541666666666666
            },
            {
              "pitch": 106,
              "velocity": 117,
              "position": 6,
              "duration": 0.23541666666666666
            },
            {
              "pitch": 52,
              "velocity": 44,
              "position": 6,
              "duration": 0.25833333333333336
            },
            {
              "pitch": 48,
              "velocity": 44,
              "position": 6,
              "duration": 0.26666666666666666
            },
            {
              "pitch": 48,
              "velocity": 32,
              "position": 6.28125,
              "duration": 0.20416666666666666
            },
            {
              "pitch": 52,
              "velocity": 26,
              "position": 6.270833333333333,
              "duration": 0.21666666666666667
            },
            {
              "pitch": 79,
              "velocity": 58,
              "position": 6.010416666666667,
              "duration": 0.48541666666666666
            },
            {
              "pitch": 107,
              "velocity": 74,
              "position": 6.270833333333333,
              "duration": 0.23541666666666666
            },
            {
              "pitch": 108,
              "velocity": 99,
              "position": 6.5,
              "duration": 0.23541666666666666
            },
            {
              "pitch": 84,
              "velocity": 46,
              "position": 6.010416666666667,
              "duration": 0.7479166666666667
            },
            {
              "pitch": 79,
              "velocity": 37,
              "position": 6.510416666666667,
              "duration": 0.25625
            },
            {
              "pitch": 52,
              "velocity": 43,
              "position": 6.5,
              "duration": 0.26875
            },
            {
              "pitch": 48,
              "velocity": 45,
              "position": 6.5,
              "duration": 0.27708333333333335
            },
            {
              "pitch": 84,
              "velocity": 54,
              "position": 6.770833333333333,
              "duration": 0.20416666666666666
            },
            {
              "pitch": 105,
              "velocity": 124,
              "position": 6.770833333333333,
              "duration": 0.20416666666666666
            },
            {
              "pitch": 52,
              "velocity": 50,
              "position": 6.78125,
              "duration": 0.20416666666666666
            },
            {
              "pitch": 79,
              "velocity": 41,
              "position": 6.78125,
              "duration": 0.20416666666666666
            },
            {
              "pitch": 48,
              "velocity": 56,
              "position": 6.791666666666667,
              "duration": 0.20416666666666666
            },
            {
              "pitch": 106,
              "velocity": 100,
              "position": 7,
              "duration": 0.23541666666666666
            },
            {
              "pitch": 107,
              "velocity": 127,
              "position": 7.270833333333333,
              "duration": 0.20416666666666666
            },
            {
              "pitch": 108,
              "velocity": 114,
              "position": 7.5,
              "duration": 0.23541666666666666
            },
            {
              "pitch": 79,
              "velocity": 58,
              "position": 7.510416666666667,
              "duration": 0.24791666666666667
            },
            {
              "pitch": 74,
              "velocity": 57,
              "position": 7.510416666666667,
              "duration": 0.25625
            },
            {
              "pitch": 47,
              "velocity": 56,
              "position": 7.5,
              "duration": 0.26875
            },
            {
              "pitch": 43,
              "velocity": 50,
              "position": 7.5,
              "duration": 0.48541666666666666
            },
            {
              "pitch": 105,
              "velocity": 74,
              "position": 7.770833333333333,
              "duration": 0.23541666666666666
            },
            {
              "pitch": 79,
              "velocity": 32,
              "position": 7.770833333333333,
              "duration": 0.2375
            },
            {
              "pitch": 74,
              "velocity": 38,
              "position": 7.78125,
              "duration": 0.23541666666666666
            },
            {
              "pitch": 47,
              "velocity": 47,
              "position": 7.78125,
              "duration": 0.2375
            },
            {
              "pitch": 106,
              "velocity": 120,
              "position": 8,
              "duration": 0.23541666666666666
            },
            {
              "pitch": 107,
              "velocity": 88,
              "position": 8.270833333333334,
              "duration": 0.23541666666666666
            },
            {
              "pitch": 43,
              "velocity": 44,
              "position": 8.5,
              "duration": 0.23541666666666666
            },
            {
              "pitch": 108,
              "velocity": 123,
              "position": 8.5,
              "duration": 0.23541666666666666
            },
            {
              "pitch": 48,
              "velocity": 57,
              "position": 8.5,
              "duration": 0.2375
            },
            {
              "pitch": 76,
              "velocity": 48,
              "position": 8.510416666666666,
              "duration": 0.23541666666666666
            },
            {
              "pitch": 81,
              "velocity": 51,
              "position": 8.510416666666666,
              "duration": 0.2375
            },
            {
              "pitch": 105,
              "velocity": 78,
              "position": 8.770833333333334,
              "duration": 0.23541666666666666
            },
            {
              "pitch": 106,
              "velocity": 96,
              "position": 9,
              "duration": 0.23541666666666666
            },
            {
              "pitch": 76,
              "velocity": 40,
              "position": 9.010416666666666,
              "duration": 0.25625
            },
            {
              "pitch": 48,
              "velocity": 33,
              "position": 9,
              "duration": 0.26875
            },
            {
              "pitch": 43,
              "velocity": 26,
              "position": 9,
              "duration": 0.27708333333333335
            },
            {
              "pitch": 107,
              "velocity": 119,
              "position": 9.270833333333334,
              "duration": 0.20416666666666666
            },
            {
              "pitch": 81,
              "velocity": 43,
              "position": 9.270833333333334,
              "duration": 0.2375
            },
            {
              "pitch": 76,
              "velocity": 46,
              "position": 9.28125,
              "duration": 0.23541666666666666
            },
            {
              "pitch": 48,
              "velocity": 49,
              "position": 9.28125,
              "duration": 0.2375
            },
            {
              "pitch": 43,
              "velocity": 47,
              "position": 9.291666666666666,
              "duration": 0.23541666666666666
            },
            {
              "pitch": 108,
              "velocity": 127,
              "position": 9.5,
              "duration": 0.23541666666666666
            },
            {
              "pitch": 105,
              "velocity": 87,
              "position": 9.770833333333334,
              "duration": 0.23541666666666666
            },
            {
              "pitch": 106,
              "velocity": 125,
              "position": 10,
              "duration": 0.23541666666666666
            },
            {
              "pitch": 48,
              "velocity": 53,
              "position": 10,
              "duration": 0.25833333333333336
            },
            {
              "pitch": 42,
              "velocity": 50,
              "position": 10,
              "duration": 0.26666666666666666
            },
            {
              "pitch": 42,
              "velocity": 31,
              "position": 10.28125,
              "duration": 0.20416666666666666
            },
            {
              "pitch": 48,
              "velocity": 26,
              "position": 10.270833333333334,
              "duration": 0.21666666666666667
            },
            {
              "pitch": 74,
              "velocity": 41,
              "position": 10.010416666666666,
              "duration": 0.48541666666666666
            },
            {
              "pitch": 107,
              "velocity": 76,
              "position": 10.270833333333334,
              "duration": 0.23541666666666666
            },
            {
              "pitch": 108,
              "velocity": 89,
              "position": 10.5,
              "duration": 0.23541666666666666
            },
            {
              "pitch": 81,
              "velocity": 49,
              "position": 10.010416666666666,
              "duration": 0.7479166666666667
            },
            {
              "pitch": 74,
              "velocity": 36,
              "position": 10.510416666666666,
              "duration": 0.25625
            },
            {
              "pitch": 48,
              "velocity": 41,
              "position": 10.5,
              "duration": 0.26875
            },
            {
              "pitch": 42,
              "velocity": 38,
              "position": 10.5,
              "duration": 0.27708333333333335
            },
            {
              "pitch": 81,
              "velocity": 40,
              "position": 10.770833333333334,
              "duration": 0.20416666666666666
            },
            {
              "pitch": 105,
              "velocity": 127,
              "position": 10.770833333333334,
              "duration": 0.20416666666666666
            },
            {
              "pitch": 48,
              "velocity": 53,
              "position": 10.78125,
              "duration": 0.20416666666666666
            },
            {
              "pitch": 74,
              "velocity": 40,
              "position": 10.78125,
              "duration": 0.20416666666666666
            },
            {
              "pitch": 42,
              "velocity": 52,
              "position": 10.791666666666666,
              "duration": 0.20416666666666666
            },
            {
              "pitch": 106,
              "velocity": 98,
              "position": 11,
              "duration": 0.23541666666666666
            },
            {
              "pitch": 107,
              "velocity": 114,
              "position": 11.270833333333334,
              "duration": 0.20416666666666666
            },
            {
              "pitch": 108,
              "velocity": 116,
              "position": 11.5,
              "duration": 0.23541666666666666
            },
            {
              "pitch": 81,
              "velocity": 42,
              "position": 11.510416666666666,
              "duration": 0.24791666666666667
            },
            {
              "pitch": 74,
              "velocity": 40,
              "position": 11.510416666666666,
              "duration": 0.25625
            },
            {
              "pitch": 48,
              "velocity": 47,
              "position": 11.5,
              "duration": 0.26875
            },
            {
              "pitch": 42,
              "velocity": 40,
              "position": 11.5,
              "duration": 0.48541666666666666
            },
            {
              "pitch": 105,
              "velocity": 78,
              "position": 11.770833333333334,
              "duration": 0.23541666666666666
            },
            {
              "pitch": 81,
              "velocity": 40,
              "position": 11.770833333333334,
              "duration": 0.2375
            },
            {
              "pitch": 74,
              "velocity": 33,
              "position": 11.78125,
              "duration": 0.23541666666666666
            },
            {
              "pitch": 48,
              "velocity": 45,
              "position": 11.78125,
              "duration": 0.2375
            },
            {
              "pitch": 106,
              "velocity": 126,
              "position": 12,
              "duration": 0.23541666666666666
            },
            {
              "pitch": 107,
              "velocity": 83,
              "position": 12.270833333333334,
              "duration": 0.23541666666666666
            },
            {
              "pitch": 41,
              "velocity": 56,
              "position": 12.5,
              "duration": 0.23541666666666666
            },
            {
              "pitch": 108,
              "velocity": 123,
              "position": 12.5,
              "duration": 0.23541666666666666
            },
            {
              "pitch": 48,
              "velocity": 52,
              "position": 12.5,
              "duration": 0.2375
            },
            {
              "pitch": 76,
              "velocity": 46,
              "position": 12.510416666666666,
              "duration": 0.23541666666666666
            },
            {
              "pitch": 81,
              "velocity": 57,
              "position": 12.510416666666666,
              "duration": 0.2375
            },
            {
              "pitch": 105,
              "velocity": 72,
              "position": 12.770833333333334,
              "duration": 0.23541666666666666
            },
            {
              "pitch": 106,
              "velocity": 97,
              "position": 13,
              "duration": 0.23541666666666666
            },
            {
              "pitch": 107,
              "velocity": 118,
              "position": 13.270833333333334,
              "duration": 0.20416666666666666
            },
            {
              "pitch": 79,
              "velocity": 52,
              "position": 13.270833333333334,
              "duration": 0.2375
            },
            {
              "pitch": 74,
              "velocity": 52,
              "position": 13.28125,
              "duration": 0.23541666666666666
            },
            {
              "pitch": 47,
              "velocity": 52,
              "position": 13.28125,
              "duration": 0.2375
            },
            {
              "pitch": 43,
              "velocity": 60,
              "position": 13.291666666666666,
              "duration": 0.23541666666666666
            },
            {
              "pitch": 108,
              "velocity": 116,
              "position": 13.5,
              "duration": 0.23541666666666666
            },
            {
              "pitch": 105,
              "velocity": 74,
              "position": 13.770833333333334,
              "duration": 0.23541666666666666
            },
            {
              "pitch": 106,
              "velocity": 124,
              "position": 14,
              "duration": 0.23541666666666666
            },
            {
              "pitch": 52,
              "velocity": 49,
              "position": 14,
              "duration": 4.991666666666666
            },
            {
              "pitch": 84,
              "velocity": 48,
              "position": 14.010416666666666,
              "duration": 4.98125
            },
            {
              "pitch": 48,
              "velocity": 55,
              "position": 14,
              "duration": 4.995833333333334
            },
            {
              "pitch": 79,
              "velocity": 53,
              "position": 14.010416666666666,
              "duration": 4.985416666666667
            }
          ]
        },
        "12": {
          "ctab": {
            "srcChannel": 12,
            "name": "Piano",
            "accType": "CHORD2",
            "editable": false,
            "mutedNotes": [],
            "mutedChords": [
              "dim7",
              "dim",
              "minMaj7(9)",
              "minMaj7",
              "min7(11)",
              "min7(9)",
              "min(9)",
              "m7b5",
              "min7",
              "min6",
              "min"
            ],
            "autoStart": false,
            "sourceChordNote": 0,
            "sourceChordType": "Maj",
            "ctb2Low": null,
            "ctb2Main": {
              "ntr": "ROOT_TRANSPOSITION",
              "ntt": "BYPASS",
              "bassOn": false,
              "chordRootUpperLimit": 11,
              "noteLowLimit": 0,
              "noteHighLimit": 69,
              "rtr": "PITCH_SHIFT"
            },
            "ctb2High": null
          },
          "notes": [
            {
              "pitch": 24,
              "velocity": 94,
              "position": 0.010416666666666666,
              "duration": 0.21458333333333332
            },
            {
              "pitch": 36,
              "velocity": 94,
              "position": 0.010416666666666666,
              "duration": 0.21458333333333332
            },
            {
              "pitch": 72,
              "velocity": 106,
              "position": 0.010416666666666666,
              "duration": 0.6
            },
            {
              "pitch": 76,
              "velocity": 115,
              "position": 0.010416666666666666,
              "duration": 0.6
            },
            {
              "pitch": 55,
              "velocity": 108,
              "position": 0.010416666666666666,
              "duration": 0.6104166666666667
            },
            {
              "pitch": 24,
              "velocity": 94,
              "position": 0.5,
              "duration": 0.6104166666666667
            },
            {
              "pitch": 36,
              "velocity": 94,
              "position": 0.5,
              "duration": 0.6104166666666667
            },
            {
              "pitch": 72,
              "velocity": 106,
              "position": 1,
              "duration": 0.6
            },
            {
              "pitch": 55,
              "velocity": 108,
              "position": 0.9916666666666667,
              "duration": 0.6125
            },
            {
              "pitch": 76,
              "velocity": 115,
              "position": 1.0041666666666667,
              "duration": 0.6
            },
            {
              "pitch": 69,
              "velocity": 108,
              "position": 1.7625,
              "duration": 0.17291666666666666
            },
            {
              "pitch": 72,
              "velocity": 108,
              "position": 1.7625,
              "duration": 0.17291666666666666
            },
            {
              "pitch": 76,
              "velocity": 117,
              "position": 1.7708333333333333,
              "duration": 0.19583333333333333
            },
            {
              "pitch": 54,
              "velocity": 106,
              "position": 1.7625,
              "duration": 0.23958333333333334
            },
            {
              "pitch": 26,
              "velocity": 94,
              "position": 2,
              "duration": 0.21458333333333332
            },
            {
              "pitch": 38,
              "velocity": 94,
              "position": 2,
              "duration": 0.21458333333333332
            },
            {
              "pitch": 54,
              "velocity": 93,
              "position": 2.2645833333333334,
              "duration": 0.12916666666666668
            },
            {
              "pitch": 76,
              "velocity": 91,
              "position": 2.275,
              "duration": 0.12083333333333333
            },
            {
              "pitch": 69,
              "velocity": 89,
              "position": 2.2729166666666667,
              "duration": 0.14166666666666666
            },
            {
              "pitch": 72,
              "velocity": 89,
              "position": 2.2729166666666667,
              "duration": 0.14166666666666666
            },
            {
              "pitch": 26,
              "velocity": 94,
              "position": 2.5,
              "duration": 0.6104166666666667
            },
            {
              "pitch": 38,
              "velocity": 94,
              "position": 2.5,
              "duration": 0.6104166666666667
            },
            {
              "pitch": 54,
              "velocity": 112,
              "position": 2.9895833333333335,
              "duration": 0.8708333333333333
            },
            {
              "pitch": 76,
              "velocity": 117,
              "position": 2.99375,
              "duration": 0.9104166666666667
            },
            {
              "pitch": 69,
              "velocity": 101,
              "position": 3.004166666666667,
              "duration": 0.9416666666666667
            },
            {
              "pitch": 72,
              "velocity": 101,
              "position": 3.004166666666667,
              "duration": 0.9416666666666667
            },
            {
              "pitch": 19,
              "velocity": 94,
              "position": 4,
              "duration": 0.21458333333333332
            },
            {
              "pitch": 31,
              "velocity": 94,
              "position": 4,
              "duration": 0.21458333333333332
            },
            {
              "pitch": 76,
              "velocity": 112,
              "position": 4,
              "duration": 0.59375
            },
            {
              "pitch": 69,
              "velocity": 117,
              "position": 4,
              "duration": 0.6208333333333333
            },
            {
              "pitch": 72,
              "velocity": 117,
              "position": 4,
              "duration": 0.6208333333333333
            },
            {
              "pitch": 53,
              "velocity": 118,
              "position": 4,
              "duration": 0.6229166666666667
            },
            {
              "pitch": 19,
              "velocity": 94,
              "position": 4.5,
              "duration": 0.6104166666666667
            },
            {
              "pitch": 31,
              "velocity": 94,
              "position": 4.5,
              "duration": 0.6104166666666667
            },
            {
              "pitch": 76,
              "velocity": 112,
              "position": 4.991666666666666,
              "duration": 0.59375
            },
            {
              "pitch": 53,
              "velocity": 118,
              "position": 5,
              "duration": 0.6208333333333333
            },
            {
              "pitch": 69,
              "velocity": 117,
              "position": 5,
              "duration": 0.6208333333333333
            },
            {
              "pitch": 72,
              "velocity": 117,
              "position": 5,
              "duration": 0.6208333333333333
            },
            {
              "pitch": 76,
              "velocity": 118,
              "position": 5.764583333333333,
              "duration": 0.17083333333333334
            },
            {
              "pitch": 55,
              "velocity": 108,
              "position": 5.772916666666666,
              "duration": 0.17708333333333334
            },
            {
              "pitch": 72,
              "velocity": 119,
              "position": 5.772916666666666,
              "duration": 0.19166666666666668
            },
            {
              "pitch": 24,
              "velocity": 94,
              "position": 6,
              "duration": 0.21458333333333332
            },
            {
              "pitch": 36,
              "velocity": 94,
              "position": 6,
              "duration": 0.21458333333333332
            },
            {
              "pitch": 76,
              "velocity": 90,
              "position": 6.270833333333333,
              "duration": 0.13125
            },
            {
              "pitch": 55,
              "velocity": 88,
              "position": 6.264583333333333,
              "duration": 0.14375
            },
            {
              "pitch": 72,
              "velocity": 83,
              "position": 6.272916666666666,
              "duration": 0.14166666666666666
            },
            {
              "pitch": 24,
              "velocity": 94,
              "position": 6.5,
              "duration": 0.36041666666666666
            },
            {
              "pitch": 36,
              "velocity": 94,
              "position": 6.5,
              "duration": 0.36041666666666666
            },
            {
              "pitch": 76,
              "velocity": 90,
              "position": 7.020833333333333,
              "duration": 0.13125
            },
            {
              "pitch": 55,
              "velocity": 88,
              "position": 7.014583333333333,
              "duration": 0.14375
            },
            {
              "pitch": 72,
              "velocity": 83,
              "position": 7.022916666666666,
              "duration": 0.14166666666666666
            },
            {
              "pitch": 23,
              "velocity": 94,
              "position": 7.270833333333333,
              "duration": 0.6104166666666667
            },
            {
              "pitch": 35,
              "velocity": 94,
              "position": 7.270833333333333,
              "duration": 0.6104166666666667
            },
            {
              "pitch": 55,
              "velocity": 108,
              "position": 7.252083333333333,
              "duration": 0.6458333333333334
            },
            {
              "pitch": 71,
              "velocity": 108,
              "position": 7.252083333333333,
              "duration": 0.6458333333333334
            },
            {
              "pitch": 74,
              "velocity": 118,
              "position": 7.252083333333333,
              "duration": 0.6666666666666666
            },
            {
              "pitch": 21,
              "velocity": 94,
              "position": 8,
              "duration": 0.21458333333333332
            },
            {
              "pitch": 33,
              "velocity": 94,
              "position": 8,
              "duration": 0.21458333333333332
            },
            {
              "pitch": 72,
              "velocity": 106,
              "position": 8,
              "duration": 0.6
            },
            {
              "pitch": 55,
              "velocity": 108,
              "position": 8,
              "duration": 0.6104166666666667
            },
            {
              "pitch": 76,
              "velocity": 115,
              "position": 8.010416666666666,
              "duration": 0.6
            },
            {
              "pitch": 21,
              "velocity": 94,
              "position": 8.5,
              "duration": 0.6104166666666667
            },
            {
              "pitch": 33,
              "velocity": 94,
              "position": 8.5,
              "duration": 0.6104166666666667
            },
            {
              "pitch": 72,
              "velocity": 106,
              "position": 9,
              "duration": 0.6
            },
            {
              "pitch": 55,
              "velocity": 108,
              "position": 8.991666666666667,
              "duration": 0.6125
            },
            {
              "pitch": 76,
              "velocity": 115,
              "position": 9.004166666666666,
              "duration": 0.6
            },
            {
              "pitch": 69,
              "velocity": 108,
              "position": 9.7625,
              "duration": 0.17291666666666666
            },
            {
              "pitch": 72,
              "velocity": 108,
              "position": 9.7625,
              "duration": 0.17291666666666666
            },
            {
              "pitch": 76,
              "velocity": 117,
              "position": 9.770833333333334,
              "duration": 0.19583333333333333
            },
            {
              "pitch": 54,
              "velocity": 106,
              "position": 9.7625,
              "duration": 0.23958333333333334
            },
            {
              "pitch": 26,
              "velocity": 94,
              "position": 10,
              "duration": 0.21458333333333332
            },
            {
              "pitch": 38,
              "velocity": 94,
              "position": 10,
              "duration": 0.21458333333333332
            },
            {
              "pitch": 54,
              "velocity": 93,
              "position": 10.264583333333333,
              "duration": 0.12916666666666668
            },
            {
              "pitch": 76,
              "velocity": 91,
              "position": 10.275,
              "duration": 0.12083333333333333
            },
            {
              "pitch": 69,
              "velocity": 89,
              "position": 10.272916666666667,
              "duration": 0.14166666666666666
            },
            {
              "pitch": 72,
              "velocity": 89,
              "position": 10.272916666666667,
              "duration": 0.14166666666666666
            },
            {
              "pitch": 26,
              "velocity": 94,
              "position": 10.5,
              "duration": 0.6104166666666667
            },
            {
              "pitch": 38,
              "velocity": 94,
              "position": 10.5,
              "duration": 0.6104166666666667
            },
            {
              "pitch": 54,
              "velocity": 112,
              "position": 10.989583333333334,
              "duration": 0.6208333333333333
            },
            {
              "pitch": 76,
              "velocity": 117,
              "position": 10.99375,
              "duration": 0.6604166666666667
            },
            {
              "pitch": 69,
              "velocity": 101,
              "position": 11.004166666666666,
              "duration": 0.6916666666666667
            },
            {
              "pitch": 72,
              "velocity": 101,
              "position": 11.004166666666666,
              "duration": 0.6916666666666667
            },
            {
              "pitch": 76,
              "velocity": 118,
              "position": 11.770833333333334,
              "duration": 0.16666666666666666
            },
            {
              "pitch": 69,
              "velocity": 108,
              "position": 11.770833333333334,
              "duration": 0.17291666666666666
            },
            {
              "pitch": 72,
              "velocity": 108,
              "position": 11.770833333333334,
              "duration": 0.17291666666666666
            },
            {
              "pitch": 53,
              "velocity": 119,
              "position": 11.760416666666666,
              "duration": 0.18958333333333333
            },
            {
              "pitch": 19,
              "velocity": 94,
              "position": 12,
              "duration": 0.21458333333333332
            },
            {
              "pitch": 31,
              "velocity": 94,
              "position": 12,
              "duration": 0.21458333333333332
            },
            {
              "pitch": 69,
              "velocity": 108,
              "position": 12.520833333333334,
              "duration": 0.17291666666666666
            },
            {
              "pitch": 53,
              "velocity": 111,
              "position": 12.49375,
              "duration": 0.21666666666666667
            },
            {
              "pitch": 76,
              "velocity": 118,
              "position": 12.510416666666666,
              "duration": 0.20416666666666666
            },
            {
              "pitch": 72,
              "velocity": 116,
              "position": 12.5,
              "duration": 0.21666666666666667
            },
            {
              "pitch": 19,
              "velocity": 94,
              "position": 12.5,
              "duration": 0.36041666666666666
            },
            {
              "pitch": 31,
              "velocity": 94,
              "position": 12.5,
              "duration": 0.36041666666666666
            },
            {
              "pitch": 71,
              "velocity": 108,
              "position": 13.2625,
              "duration": 0.17291666666666666
            },
            {
              "pitch": 74,
              "velocity": 117,
              "position": 13.270833333333334,
              "duration": 0.19583333333333333
            },
            {
              "pitch": 55,
              "velocity": 106,
              "position": 13.2625,
              "duration": 0.23958333333333334
            },
            {
              "pitch": 19,
              "velocity": 94,
              "position": 13.25,
              "duration": 0.36041666666666666
            },
            {
              "pitch": 31,
              "velocity": 94,
              "position": 13.25,
              "duration": 0.36041666666666666
            },
            {
              "pitch": 72,
              "velocity": 118,
              "position": 14.002083333333333,
              "duration": 4.989583333333333
            },
            {
              "pitch": 76,
              "velocity": 118,
              "position": 14.004166666666666,
              "duration": 4.9875
            },
            {
              "pitch": 24,
              "velocity": 94,
              "position": 14,
              "duration": 4.995833333333334
            },
            {
              "pitch": 36,
              "velocity": 94,
              "position": 14,
              "duration": 4.995833333333334
            },
            {
              "pitch": 55,
              "velocity": 108,
              "position": 14,
              "duration": 4.995833333333334
            }
          ]
        },
        "13": {
          "ctab": {
            "srcChannel": 13,
            "name": "Organ",
            "accType": "PAD",
            "editable": false,
            "mutedNotes": [],
            "mutedChords": [
              "dim7",
              "dim",
              "minMaj7(9)",
              "minMaj7",
              "min7(11)",
              "min7(9)",
              "min(9)",
              "m7b5",
              "min7",
              "min6",
              "min"
            ],
            "autoStart": false,
            "sourceChordNote": 0,
            "sourceChordType": "Maj",
            "ctb2Low": null,
            "ctb2Main": {
              "ntr": "ROOT_TRANSPOSITION",
              "ntt": "BYPASS",
              "bassOn": false,
              "chordRootUpperLimit": 0,
              "noteLowLimit": 0,
              "noteHighLimit": 79,
              "rtr": "PITCH_SHIFT"
            },
            "ctb2High": null
          },
          "notes": [
            {
              "pitch": 80,
              "velocity": 102,
              "position": 0.5,
              "duration": 0.07916666666666666
            },
            {
              "pitch": 84,
              "velocity": 92,
              "position": 0.5,
              "duration": 0.21666666666666667
            },
            {
              "pitch": 76,
              "velocity": 87,
              "position": 0.5,
              "duration": 0.225
            },
            {
              "pitch": 79,
              "velocity": 91,
              "position": 0.5,
              "duration": 0.225
            },
            {
              "pitch": 81,
              "velocity": 86,
              "position": 0.625,
              "duration": 0.14375
            },
            {
              "pitch": 80,
              "velocity": 102,
              "position": 1.25,
              "duration": 0.08958333333333333
            },
            {
              "pitch": 76,
              "velocity": 86,
              "position": 1.25,
              "duration": 0.19375
            },
            {
              "pitch": 84,
              "velocity": 92,
              "position": 1.25,
              "duration": 0.20625
            },
            {
              "pitch": 79,
              "velocity": 86,
              "position": 1.25,
              "duration": 0.21458333333333332
            },
            {
              "pitch": 81,
              "velocity": 68,
              "position": 1.375,
              "duration": 0.11458333333333333
            },
            {
              "pitch": 78,
              "velocity": 98,
              "position": 2,
              "duration": 0.08125
            },
            {
              "pitch": 80,
              "velocity": 102,
              "position": 2.0625,
              "duration": 0.14166666666666666
            },
            {
              "pitch": 81,
              "velocity": 90,
              "position": 2.15625,
              "duration": 0.21041666666666667
            },
            {
              "pitch": 84,
              "velocity": 101,
              "position": 2,
              "duration": 0.38125
            },
            {
              "pitch": 79,
              "velocity": 87,
              "position": 2.38125,
              "duration": 0.03333333333333333
            },
            {
              "pitch": 77,
              "velocity": 91,
              "position": 2.4125,
              "duration": 0.0625
            },
            {
              "pitch": 76,
              "velocity": 74,
              "position": 2.4479166666666665,
              "duration": 0.04791666666666667
            },
            {
              "pitch": 74,
              "velocity": 58,
              "position": 2.475,
              "duration": 0.04791666666666667
            },
            {
              "pitch": 72,
              "velocity": 53,
              "position": 2.5145833333333334,
              "duration": 0.03958333333333333
            },
            {
              "pitch": 71,
              "velocity": 76,
              "position": 2.5520833333333335,
              "duration": 0.03125
            },
            {
              "pitch": 69,
              "velocity": 74,
              "position": 2.5833333333333335,
              "duration": 0.0375
            },
            {
              "pitch": 67,
              "velocity": 71,
              "position": 2.61875,
              "duration": 0.03958333333333333
            },
            {
              "pitch": 75,
              "velocity": 86,
              "position": 3.025,
              "duration": 0.09166666666666666
            },
            {
              "pitch": 74,
              "velocity": 91,
              "position": 3.0104166666666665,
              "duration": 0.12708333333333333
            },
            {
              "pitch": 81,
              "velocity": 87,
              "position": 3.03125,
              "duration": 0.15416666666666667
            },
            {
              "pitch": 76,
              "velocity": 84,
              "position": 3.05625,
              "duration": 0.13958333333333334
            },
            {
              "pitch": 74,
              "velocity": 70,
              "position": 3.2729166666666667,
              "duration": 0.11041666666666666
            },
            {
              "pitch": 75,
              "velocity": 98,
              "position": 3.2916666666666665,
              "duration": 0.11041666666666666
            },
            {
              "pitch": 76,
              "velocity": 91,
              "position": 3.3854166666666665,
              "duration": 0.18541666666666667
            },
            {
              "pitch": 81,
              "velocity": 92,
              "position": 3.277083333333333,
              "duration": 0.32708333333333334
            },
            {
              "pitch": 74,
              "velocity": 52,
              "position": 3.495833333333333,
              "duration": 0.33958333333333335
            },
            {
              "pitch": 72,
              "velocity": 87,
              "position": 3.7916666666666665,
              "duration": 0.11666666666666667
            },
            {
              "pitch": 76,
              "velocity": 92,
              "position": 4.5,
              "duration": 0.1625
            },
            {
              "pitch": 80,
              "velocity": 98,
              "position": 4.516666666666667,
              "duration": 0.17291666666666666
            },
            {
              "pitch": 84,
              "velocity": 88,
              "position": 4.520833333333333,
              "duration": 0.2375
            },
            {
              "pitch": 81,
              "velocity": 81,
              "position": 4.68125,
              "duration": 0.09791666666666667
            },
            {
              "pitch": 80,
              "velocity": 102,
              "position": 5.25,
              "duration": 0.06875
            },
            {
              "pitch": 81,
              "velocity": 76,
              "position": 5.308333333333334,
              "duration": 0.1
            },
            {
              "pitch": 76,
              "velocity": 88,
              "position": 5.260416666666667,
              "duration": 0.17291666666666666
            },
            {
              "pitch": 84,
              "velocity": 88,
              "position": 5.25625,
              "duration": 0.18333333333333332
            },
            {
              "pitch": 80,
              "velocity": 102,
              "position": 6.0375,
              "duration": 0.125
            },
            {
              "pitch": 79,
              "velocity": 81,
              "position": 6.035416666666666,
              "duration": 0.22708333333333333
            },
            {
              "pitch": 84,
              "velocity": 92,
              "position": 6.033333333333333,
              "duration": 0.33125
            },
            {
              "pitch": 81,
              "velocity": 49,
              "position": 6.139583333333333,
              "duration": 0.22708333333333333
            },
            {
              "pitch": 77,
              "velocity": 86,
              "position": 6.520833333333333,
              "duration": 0.22708333333333333
            },
            {
              "pitch": 81,
              "velocity": 84,
              "position": 6.520833333333333,
              "duration": 0.2833333333333333
            },
            {
              "pitch": 72,
              "velocity": 65,
              "position": 6.770833333333333,
              "duration": 0.07083333333333333
            },
            {
              "pitch": 75,
              "velocity": 98,
              "position": 7.002083333333333,
              "duration": 0.05625
            },
            {
              "pitch": 79,
              "velocity": 98,
              "position": 7.014583333333333,
              "duration": 0.14166666666666666
            },
            {
              "pitch": 76,
              "velocity": 91,
              "position": 7.041666666666667,
              "duration": 0.12083333333333333
            },
            {
              "pitch": 79,
              "velocity": 89,
              "position": 7.239583333333333,
              "duration": 0.1875
            },
            {
              "pitch": 76,
              "velocity": 84,
              "position": 7.2625,
              "duration": 0.2125
            },
            {
              "pitch": 74,
              "velocity": 70,
              "position": 7.5125,
              "duration": 0.09791666666666667
            },
            {
              "pitch": 72,
              "velocity": 76,
              "position": 7.73125,
              "duration": 0.14375
            },
            {
              "pitch": 80,
              "velocity": 102,
              "position": 8.48125,
              "duration": 0.09791666666666667
            },
            {
              "pitch": 76,
              "velocity": 81,
              "position": 8.489583333333334,
              "duration": 0.25
            },
            {
              "pitch": 84,
              "velocity": 95,
              "position": 8.489583333333334,
              "duration": 0.25625
            },
            {
              "pitch": 81,
              "velocity": 78,
              "position": 8.6,
              "duration": 0.15
            },
            {
              "pitch": 80,
              "velocity": 102,
              "position": 9.316666666666666,
              "duration": 0.09583333333333334
            },
            {
              "pitch": 76,
              "velocity": 88,
              "position": 9.314583333333333,
              "duration": 0.25833333333333336
            },
            {
              "pitch": 81,
              "velocity": 60,
              "position": 9.416666666666666,
              "duration": 0.19375
            },
            {
              "pitch": 84,
              "velocity": 101,
              "position": 9.322916666666666,
              "duration": 0.30416666666666664
            },
            {
              "pitch": 78,
              "velocity": 74,
              "position": 10.052083333333334,
              "duration": 0.029166666666666667
            },
            {
              "pitch": 80,
              "velocity": 102,
              "position": 10.035416666666666,
              "duration": 0.12708333333333333
            },
            {
              "pitch": 84,
              "velocity": 98,
              "position": 10.041666666666666,
              "duration": 0.34375
            },
            {
              "pitch": 81,
              "velocity": 79,
              "position": 10.170833333333333,
              "duration": 0.22083333333333333
            },
            {
              "pitch": 80,
              "velocity": 98,
              "position": 10.533333333333333,
              "duration": 0.12916666666666668
            },
            {
              "pitch": 84,
              "velocity": 78,
              "position": 10.535416666666666,
              "duration": 0.3104166666666667
            },
            {
              "pitch": 81,
              "velocity": 81,
              "position": 10.65625,
              "duration": 0.20625
            },
            {
              "pitch": 84,
              "velocity": 89,
              "position": 11,
              "duration": 0.17708333333333334
            },
            {
              "pitch": 80,
              "velocity": 81,
              "position": 11.041666666666666,
              "duration": 0.15208333333333332
            },
            {
              "pitch": 79,
              "velocity": 91,
              "position": 11.010416666666666,
              "duration": 0.24791666666666667
            },
            {
              "pitch": 77,
              "velocity": 27,
              "position": 11.291666666666666,
              "duration": 0.04791666666666667
            },
            {
              "pitch": 76,
              "velocity": 70,
              "position": 11.28125,
              "duration": 0.1
            },
            {
              "pitch": 74,
              "velocity": 84,
              "position": 11.489583333333334,
              "duration": 0.18958333333333333
            },
            {
              "pitch": 72,
              "velocity": 84,
              "position": 11.729166666666666,
              "duration": 0.1
            },
            {
              "pitch": 69,
              "velocity": 61,
              "position": 12.34375,
              "duration": 0.0625
            },
            {
              "pitch": 75,
              "velocity": 102,
              "position": 12.5,
              "duration": 0.14166666666666666
            },
            {
              "pitch": 69,
              "velocity": 68,
              "position": 12.5,
              "duration": 0.22708333333333333
            },
            {
              "pitch": 79,
              "velocity": 70,
              "position": 12.5,
              "duration": 0.30833333333333335
            },
            {
              "pitch": 72,
              "velocity": 98,
              "position": 12.5,
              "duration": 0.31875
            },
            {
              "pitch": 76,
              "velocity": 61,
              "position": 12.625,
              "duration": 0.25625
            },
            {
              "pitch": 69,
              "velocity": 86,
              "position": 13.25,
              "duration": 0.12083333333333333
            },
            {
              "pitch": 72,
              "velocity": 92,
              "position": 13.25,
              "duration": 0.175
            },
            {
              "pitch": 74,
              "velocity": 74,
              "position": 13.25,
              "duration": 0.18333333333333332
            },
            {
              "pitch": 77,
              "velocity": 98,
              "position": 13.25,
              "duration": 0.20833333333333334
            },
            {
              "pitch": 75,
              "velocity": 102,
              "position": 14,
              "duration": 0.11041666666666666
            },
            {
              "pitch": 67,
              "velocity": 78,
              "position": 14,
              "duration": 4.991666666666666
            },
            {
              "pitch": 76,
              "velocity": 78,
              "position": 14.041666666666666,
              "duration": 4.95
            },
            {
              "pitch": 72,
              "velocity": 78,
              "position": 14,
              "duration": 4.995833333333334
            }
          ]
        },
        "14": {
          "ctab": {
            "srcChannel": 14,
            "name": "Tele",
            "accType": "PHRASE1",
            "editable": false,
            "mutedNotes": [],
            "mutedChords": [
              "dim7",
              "dim",
              "minMaj7(9)",
              "minMaj7",
              "min7(11)",
              "min7(9)",
              "min(9)",
              "m7b5",
              "min7",
              "min6",
              "min"
            ],
            "autoStart": false,
            "sourceChordNote": 0,
            "sourceChordType": "Maj",
            "ctb2Low": null,
            "ctb2Main": {
              "ntr": "ROOT_TRANSPOSITION",
              "ntt": "BYPASS",
              "bassOn": false,
              "chordRootUpperLimit": 8,
              "noteLowLimit": 51,
              "noteHighLimit": 69,
              "rtr": "PITCH_SHIFT"
            },
            "ctb2High": null
          },
          "notes": [
            {
              "pitch": 36,
              "velocity": 60,
              "position": 0.5,
              "duration": 0.23541666666666666
            },
            {
              "pitch": 106,
              "velocity": 127,
              "position": 0.5,
              "duration": 0.23541666666666666
            },
            {
              "pitch": 40,
              "velocity": 59,
              "position": 0.5,
              "duration": 0.2375
            },
            {
              "pitch": 79,
              "velocity": 60,
              "position": 0.5104166666666666,
              "duration": 0.23541666666666666
            },
            {
              "pitch": 84,
              "velocity": 56,
              "position": 0.5104166666666666,
              "duration": 0.2375
            },
            {
              "pitch": 107,
              "velocity": 82,
              "position": 0.7708333333333334,
              "duration": 0.23541666666666666
            },
            {
              "pitch": 108,
              "velocity": 121,
              "position": 1,
              "duration": 0.23541666666666666
            },
            {
              "pitch": 105,
              "velocity": 81,
              "position": 1.2708333333333333,
              "duration": 0.23541666666666666
            },
            {
              "pitch": 84,
              "velocity": 56,
              "position": 1.2729166666666667,
              "duration": 0.2375
            },
            {
              "pitch": 79,
              "velocity": 51,
              "position": 1.28125,
              "duration": 0.23541666666666666
            },
            {
              "pitch": 40,
              "velocity": 60,
              "position": 1.2854166666666667,
              "duration": 0.2375
            },
            {
              "pitch": 36,
              "velocity": 54,
              "position": 1.2916666666666667,
              "duration": 0.2375
            },
            {
              "pitch": 106,
              "velocity": 103,
              "position": 1.5,
              "duration": 0.23541666666666666
            },
            {
              "pitch": 107,
              "velocity": 123,
              "position": 1.7708333333333333,
              "duration": 0.20416666666666666
            },
            {
              "pitch": 36,
              "velocity": 60,
              "position": 2,
              "duration": 0.23541666666666666
            },
            {
              "pitch": 108,
              "velocity": 118,
              "position": 2,
              "duration": 0.23541666666666666
            },
            {
              "pitch": 42,
              "velocity": 60,
              "position": 2,
              "duration": 0.2375
            },
            {
              "pitch": 81,
              "velocity": 60,
              "position": 2.0104166666666665,
              "duration": 0.23541666666666666
            },
            {
              "pitch": 86,
              "velocity": 52,
              "position": 2.0104166666666665,
              "duration": 0.2375
            },
            {
              "pitch": 105,
              "velocity": 75,
              "position": 2.2708333333333335,
              "duration": 0.23541666666666666
            },
            {
              "pitch": 106,
              "velocity": 125,
              "position": 2.5,
              "duration": 0.23541666666666666
            },
            {
              "pitch": 107,
              "velocity": 80,
              "position": 2.7708333333333335,
              "duration": 0.23541666666666666
            },
            {
              "pitch": 86,
              "velocity": 52,
              "position": 2.7729166666666667,
              "duration": 0.2375
            },
            {
              "pitch": 81,
              "velocity": 58,
              "position": 2.78125,
              "duration": 0.23541666666666666
            },
            {
              "pitch": 42,
              "velocity": 60,
              "position": 2.785416666666667,
              "duration": 0.2375
            },
            {
              "pitch": 36,
              "velocity": 60,
              "position": 2.7916666666666665,
              "duration": 0.2375
            },
            {
              "pitch": 108,
              "velocity": 97,
              "position": 3,
              "duration": 0.23541666666666666
            },
            {
              "pitch": 105,
              "velocity": 127,
              "position": 3.2708333333333335,
              "duration": 0.20416666666666666
            },
            {
              "pitch": 36,
              "velocity": 51,
              "position": 3.285416666666667,
              "duration": 0.2
            },
            {
              "pitch": 42,
              "velocity": 42,
              "position": 3.28125,
              "duration": 0.20833333333333334
            },
            {
              "pitch": 81,
              "velocity": 40,
              "position": 3.2729166666666667,
              "duration": 0.21875
            },
            {
              "pitch": 106,
              "velocity": 96,
              "position": 3.5,
              "duration": 0.23541666666666666
            },
            {
              "pitch": 86,
              "velocity": 60,
              "position": 3.5104166666666665,
              "duration": 0.24791666666666667
            },
            {
              "pitch": 81,
              "velocity": 56,
              "position": 3.5104166666666665,
              "duration": 0.25625
            },
            {
              "pitch": 42,
              "velocity": 55,
              "position": 3.5,
              "duration": 0.26875
            },
            {
              "pitch": 107,
              "velocity": 120,
              "position": 3.7708333333333335,
              "duration": 0.20416666666666666
            },
            {
              "pitch": 36,
              "velocity": 56,
              "position": 3.5,
              "duration": 0.48541666666666666
            },
            {
              "pitch": 86,
              "velocity": 40,
              "position": 3.7729166666666667,
              "duration": 0.2375
            },
            {
              "pitch": 81,
              "velocity": 42,
              "position": 3.78125,
              "duration": 0.23541666666666666
            },
            {
              "pitch": 42,
              "velocity": 51,
              "position": 3.785416666666667,
              "duration": 0.2375
            },
            {
              "pitch": 108,
              "velocity": 115,
              "position": 4,
              "duration": 0.23541666666666666
            },
            {
              "pitch": 105,
              "velocity": 79,
              "position": 4.270833333333333,
              "duration": 0.23541666666666666
            },
            {
              "pitch": 36,
              "velocity": 51,
              "position": 4.5,
              "duration": 0.23541666666666666
            },
            {
              "pitch": 106,
              "velocity": 122,
              "position": 4.5,
              "duration": 0.23541666666666666
            },
            {
              "pitch": 41,
              "velocity": 59,
              "position": 4.5,
              "duration": 0.2375
            },
            {
              "pitch": 81,
              "velocity": 56,
              "position": 4.510416666666667,
              "duration": 0.23541666666666666
            },
            {
              "pitch": 88,
              "velocity": 59,
              "position": 4.510416666666667,
              "duration": 0.2375
            },
            {
              "pitch": 107,
              "velocity": 76,
              "position": 4.770833333333333,
              "duration": 0.23541666666666666
            },
            {
              "pitch": 108,
              "velocity": 124,
              "position": 5,
              "duration": 0.23541666666666666
            },
            {
              "pitch": 105,
              "velocity": 89,
              "position": 5.270833333333333,
              "duration": 0.23541666666666666
            },
            {
              "pitch": 88,
              "velocity": 60,
              "position": 5.272916666666666,
              "duration": 0.2375
            },
            {
              "pitch": 81,
              "velocity": 60,
              "position": 5.28125,
              "duration": 0.23541666666666666
            },
            {
              "pitch": 41,
              "velocity": 51,
              "position": 5.285416666666666,
              "duration": 0.2375
            },
            {
              "pitch": 36,
              "velocity": 59,
              "position": 5.291666666666667,
              "duration": 0.2375
            },
            {
              "pitch": 106,
              "velocity": 90,
              "position": 5.5,
              "duration": 0.23541666666666666
            },
            {
              "pitch": 107,
              "velocity": 127,
              "position": 5.770833333333333,
              "duration": 0.20416666666666666
            },
            {
              "pitch": 36,
              "velocity": 55,
              "position": 6,
              "duration": 0.23541666666666666
            },
            {
              "pitch": 108,
              "velocity": 122,
              "position": 6,
              "duration": 0.23541666666666666
            },
            {
              "pitch": 40,
              "velocity": 55,
              "position": 6,
              "duration": 0.2375
            },
            {
              "pitch": 79,
              "velocity": 60,
              "position": 6.010416666666667,
              "duration": 0.23541666666666666
            },
            {
              "pitch": 84,
              "velocity": 57,
              "position": 6.010416666666667,
              "duration": 0.2375
            },
            {
              "pitch": 105,
              "velocity": 74,
              "position": 6.270833333333333,
              "duration": 0.23541666666666666
            },
            {
              "pitch": 106,
              "velocity": 117,
              "position": 6.5,
              "duration": 0.23541666666666666
            },
            {
              "pitch": 107,
              "velocity": 74,
              "position": 6.770833333333333,
              "duration": 0.23541666666666666
            },
            {
              "pitch": 84,
              "velocity": 60,
              "position": 6.772916666666666,
              "duration": 0.2375
            },
            {
              "pitch": 79,
              "velocity": 52,
              "position": 6.78125,
              "duration": 0.23541666666666666
            },
            {
              "pitch": 40,
              "velocity": 60,
              "position": 6.785416666666666,
              "duration": 0.2375
            },
            {
              "pitch": 36,
              "velocity": 60,
              "position": 6.791666666666667,
              "duration": 0.2375
            },
            {
              "pitch": 108,
              "velocity": 99,
              "position": 7,
              "duration": 0.23541666666666666
            },
            {
              "pitch": 105,
              "velocity": 124,
              "position": 7.270833333333333,
              "duration": 0.20416666666666666
            },
            {
              "pitch": 35,
              "velocity": 53,
              "position": 7.285416666666666,
              "duration": 0.2
            },
            {
              "pitch": 43,
              "velocity": 44,
              "position": 7.28125,
              "duration": 0.20833333333333334
            },
            {
              "pitch": 79,
              "velocity": 38,
              "position": 7.272916666666666,
              "duration": 0.21875
            },
            {
              "pitch": 106,
              "velocity": 100,
              "position": 7.5,
              "duration": 0.23541666666666666
            },
            {
              "pitch": 86,
              "velocity": 60,
              "position": 7.510416666666667,
              "duration": 0.24791666666666667
            },
            {
              "pitch": 79,
              "velocity": 60,
              "position": 7.510416666666667,
              "duration": 0.25625
            },
            {
              "pitch": 43,
              "velocity": 60,
              "position": 7.5,
              "duration": 0.26875
            },
            {
              "pitch": 107,
              "velocity": 127,
              "position": 7.770833333333333,
              "duration": 0.20416666666666666
            },
            {
              "pitch": 35,
              "velocity": 60,
              "position": 7.5,
              "duration": 0.48541666666666666
            },
            {
              "pitch": 86,
              "velocity": 38,
              "position": 7.772916666666666,
              "duration": 0.2375
            },
            {
              "pitch": 79,
              "velocity": 44,
              "position": 7.78125,
              "duration": 0.23541666666666666
            },
            {
              "pitch": 43,
              "velocity": 53,
              "position": 7.785416666666666,
              "duration": 0.2375
            },
            {
              "pitch": 108,
              "velocity": 114,
              "position": 8,
              "duration": 0.23541666666666666
            },
            {
              "pitch": 105,
              "velocity": 74,
              "position": 8.270833333333334,
              "duration": 0.23541666666666666
            },
            {
              "pitch": 36,
              "velocity": 60,
              "position": 8.5,
              "duration": 0.23541666666666666
            },
            {
              "pitch": 106,
              "velocity": 120,
              "position": 8.5,
              "duration": 0.23541666666666666
            },
            {
              "pitch": 40,
              "velocity": 59,
              "position": 8.5,
              "duration": 0.2375
            },
            {
              "pitch": 79,
              "velocity": 60,
              "position": 8.510416666666666,
              "duration": 0.23541666666666666
            },
            {
              "pitch": 84,
              "velocity": 56,
              "position": 8.510416666666666,
              "duration": 0.2375
            },
            {
              "pitch": 107,
              "velocity": 88,
              "position": 8.770833333333334,
              "duration": 0.23541666666666666
            },
            {
              "pitch": 108,
              "velocity": 123,
              "position": 9,
              "duration": 0.23541666666666666
            },
            {
              "pitch": 105,
              "velocity": 78,
              "position": 9.270833333333334,
              "duration": 0.23541666666666666
            },
            {
              "pitch": 84,
              "velocity": 56,
              "position": 9.272916666666667,
              "duration": 0.2375
            },
            {
              "pitch": 79,
              "velocity": 51,
              "position": 9.28125,
              "duration": 0.23541666666666666
            },
            {
              "pitch": 40,
              "velocity": 60,
              "position": 9.285416666666666,
              "duration": 0.2375
            },
            {
              "pitch": 36,
              "velocity": 54,
              "position": 9.291666666666666,
              "duration": 0.2375
            },
            {
              "pitch": 106,
              "velocity": 96,
              "position": 9.5,
              "duration": 0.23541666666666666
            },
            {
              "pitch": 107,
              "velocity": 119,
              "position": 9.770833333333334,
              "duration": 0.20416666666666666
            },
            {
              "pitch": 36,
              "velocity": 60,
              "position": 10,
              "duration": 0.23541666666666666
            },
            {
              "pitch": 108,
              "velocity": 127,
              "position": 10,
              "duration": 0.23541666666666666
            },
            {
              "pitch": 42,
              "velocity": 60,
              "position": 10,
              "duration": 0.2375
            },
            {
              "pitch": 81,
              "velocity": 60,
              "position": 10.010416666666666,
              "duration": 0.23541666666666666
            },
            {
              "pitch": 86,
              "velocity": 52,
              "position": 10.010416666666666,
              "duration": 0.2375
            },
            {
              "pitch": 105,
              "velocity": 87,
              "position": 10.270833333333334,
              "duration": 0.23541666666666666
            },
            {
              "pitch": 106,
              "velocity": 125,
              "position": 10.5,
              "duration": 0.23541666666666666
            },
            {
              "pitch": 107,
              "velocity": 76,
              "position": 10.770833333333334,
              "duration": 0.23541666666666666
            },
            {
              "pitch": 86,
              "velocity": 52,
              "position": 10.772916666666667,
              "duration": 0.2375
            },
            {
              "pitch": 81,
              "velocity": 58,
              "position": 10.78125,
              "duration": 0.23541666666666666
            },
            {
              "pitch": 42,
              "velocity": 60,
              "position": 10.785416666666666,
              "duration": 0.2375
            },
            {
              "pitch": 36,
              "velocity": 60,
              "position": 10.791666666666666,
              "duration": 0.2375
            },
            {
              "pitch": 108,
              "velocity": 89,
              "position": 11,
              "duration": 0.23541666666666666
            },
            {
              "pitch": 105,
              "velocity": 127,
              "position": 11.270833333333334,
              "duration": 0.20416666666666666
            },
            {
              "pitch": 36,
              "velocity": 51,
              "position": 11.285416666666666,
              "duration": 0.2
            },
            {
              "pitch": 42,
              "velocity": 42,
              "position": 11.28125,
              "duration": 0.20833333333333334
            },
            {
              "pitch": 81,
              "velocity": 40,
              "position": 11.272916666666667,
              "duration": 0.21875
            },
            {
              "pitch": 106,
              "velocity": 98,
              "position": 11.5,
              "duration": 0.23541666666666666
            },
            {
              "pitch": 86,
              "velocity": 60,
              "position": 11.510416666666666,
              "duration": 0.24791666666666667
            },
            {
              "pitch": 81,
              "velocity": 56,
              "position": 11.510416666666666,
              "duration": 0.25625
            },
            {
              "pitch": 42,
              "velocity": 55,
              "position": 11.5,
              "duration": 0.26875
            },
            {
              "pitch": 107,
              "velocity": 114,
              "position": 11.770833333333334,
              "duration": 0.20416666666666666
            },
            {
              "pitch": 36,
              "velocity": 56,
              "position": 11.5,
              "duration": 0.48541666666666666
            },
            {
              "pitch": 86,
              "velocity": 40,
              "position": 11.772916666666667,
              "duration": 0.2375
            },
            {
              "pitch": 81,
              "velocity": 42,
              "position": 11.78125,
              "duration": 0.23541666666666666
            },
            {
              "pitch": 42,
              "velocity": 51,
              "position": 11.785416666666666,
              "duration": 0.2375
            },
            {
              "pitch": 108,
              "velocity": 116,
              "position": 12,
              "duration": 0.23541666666666666
            },
            {
              "pitch": 105,
              "velocity": 78,
              "position": 12.270833333333334,
              "duration": 0.23541666666666666
            },
            {
              "pitch": 36,
              "velocity": 51,
              "position": 12.5,
              "duration": 0.23541666666666666
            },
            {
              "pitch": 106,
              "velocity": 126,
              "position": 12.5,
              "duration": 0.23541666666666666
            },
            {
              "pitch": 41,
              "velocity": 59,
              "position": 12.5,
              "duration": 0.2375
            },
            {
              "pitch": 81,
              "velocity": 56,
              "position": 12.510416666666666,
              "duration": 0.23541666666666666
            },
            {
              "pitch": 88,
              "velocity": 59,
              "position": 12.510416666666666,
              "duration": 0.2375
            },
            {
              "pitch": 107,
              "velocity": 83,
              "position": 12.770833333333334,
              "duration": 0.23541666666666666
            },
            {
              "pitch": 108,
              "velocity": 123,
              "position": 13,
              "duration": 0.23541666666666666
            },
            {
              "pitch": 105,
              "velocity": 72,
              "position": 13.270833333333334,
              "duration": 0.23541666666666666
            },
            {
              "pitch": 86,
              "velocity": 60,
              "position": 13.272916666666667,
              "duration": 0.2375
            },
            {
              "pitch": 79,
              "velocity": 60,
              "position": 13.28125,
              "duration": 0.23541666666666666
            },
            {
              "pitch": 43,
              "velocity": 51,
              "position": 13.285416666666666,
              "duration": 0.2375
            },
            {
              "pitch": 38,
              "velocity": 59,
              "position": 13.291666666666666,
              "duration": 0.2375
            },
            {
              "pitch": 106,
              "velocity": 97,
              "position": 13.5,
              "duration": 0.23541666666666666
            },
            {
              "pitch": 107,
              "velocity": 118,
              "position": 13.770833333333334,
              "duration": 0.20416666666666666
            },
            {
              "pitch": 108,
              "velocity": 116,
              "position": 14,
              "duration": 0.23541666666666666
            },
            {
              "pitch": 40,
              "velocity": 60,
              "position": 14,
              "duration": 4.991666666666666
            },
            {
              "pitch": 84,
              "velocity": 59,
              "position": 14.010416666666666,
              "duration": 4.98125
            },
            {
              "pitch": 36,
              "velocity": 60,
              "position": 14,
              "duration": 4.995833333333334
            },
            {
              "pitch": 79,
              "velocity": 60,
              "position": 14.010416666666666,
              "duration": 4.985416666666667
            }
          ]
        }
      }
    }
  }
}