{
  "name": "Give A Little Ty.STY",
  "tempo": 94,
  "timeSignature": "4/4",
  "ticksPerQuarter": 1920,
  "sffType": "SFF1",
  "division": "BINARY",
  "parts": {
    "Main_A": {
      "type": "Main_A",
      "sizeInBeats": 16,
      "channels": {
        "8": {
          "ctab": {
            "srcChannel": 8,
            "name": "add-drum",
            "accType": "SUBRHYTHM",
            "editable": false,
            "mutedNotes": [],
            "mutedChords": [],
            "autoStart": true,
            "sourceChordNote": 0,
            "sourceChordType": "Maj7",
            "ctb2Low": null,
            "ctb2Main": {
              "ntr": "ROOT_FIXED",
              "ntt": "BYPASS",
              "bassOn": false,
              "chordRootUpperLimit": 6,
              "noteLowLimit": 0,
              "noteHighLimit": 127,
              "rtr": "PITCH_SHIFT"
            },
            "ctb2High": null
          },
          "notes": []
        },
        "9": {
          "ctab": {
            "srcChannel": 9,
            "name": "main-dru",
            "accType": "RHYTHM",
            "editable": false,
            "mutedNotes": [],
            "mutedChords": [],
            "autoStart": true,
            "sourceChordNote": 0,
            "sourceChordType": "Maj7",
            "ctb2Low": null,
            "ctb2Main": {
              "ntr": "ROOT_FIXED",
              "ntt": "BYPASS",
              "bassOn": false,
              "chordRootUpperLimit": 6,
              "noteLowLimit": 0,
              "noteHighLimit": 127,
              "rtr": "PITCH_SHIFT"
            },
            "ctb2High": null
          },
          "notes": [
            {
              "pitch": 36,
              "velocity": 106,
              "position": 0,
              "duration": 0.010416666666666666
            },
            {
              "pitch": 42,
              "velocity": 74,
              "position": 0,
              "duration": 0.010416666666666666
            },
            {
              "pitch": 42,
              "velocity": 70,
              "position": 0.5,
              "duration": 0.010416666666666666
            },
            {
              "pitch": 40,
              "velocity": 89,
              "position": 1,
              "duration": 0.010416666666666666
            },
            {
              "pitch": 42,
              "velocity": 72,
              "position": 1,
              "duration": 0.010416666666666666
            },
            {
              "pitch": 42,
              "velocity": 71,
              "position": 1.5,
              "duration": 0.010416666666666666
            },
            {
              "pitch": 36,
              "velocity": 106,
              "position": 2,
              "duration": 0.010416666666666666
            },
            {
              "pitch": 42,
              "velocity": 75,
              "position": 2,
              "duration": 0.010416666666666666
            },
            {
              "pitch": 42,
              "velocity": 71,
              "position": 2.5,
              "duration": 0.010416666666666666
            },
            {
              "pitch": 36,
              "velocity": 92,
              "position": 2.775,
              "duration": 0.010416666666666666
            },
            {
              "pitch": 40,
              "velocity": 88,
              "position": 3,
              "duration": 0.010416666666666666
            },
            {
              "pitch": 42,
              "velocity": 69,
              "position": 3,
              "duration": 0.010416666666666666
            },
            {
              "pitch": 42,
              "velocity": 73,
              "position": 3.5,
              "duration": 0.010416666666666666
            },
            {
              "pitch": 36,
              "velocity": 97,
              "position": 3.775,
              "duration": 0.010416666666666666
            },
            {
              "pitch": 36,
              "velocity": 100,
              "position": 4,
              "duration": 0.010416666666666666
            },
            {
              "pitch": 42,
              "velocity": 74,
              "position": 4,
              "duration": 0.010416666666666666
            },
            {
              "pitch": 42,
              "velocity": 77,
              "position": 4.5,
              "duration": 0.010416666666666666
            },
            {
              "pitch": 40,
              "velocity": 86,
              "position": 5,
              "duration": 0.010416666666666666
            },
            {
              "pitch": 42,
              "velocity": 69,
              "position": 5,
              "duration": 0.010416666666666666
            },
            {
              "pitch": 42,
              "velocity": 79,
              "position": 5.5,
              "duration": 0.010416666666666666
            },
            {
              "pitch": 36,
              "velocity": 106,
              "position": 6,
              "duration": 0.010416666666666666
            },
            {
              "pitch": 42,
              "velocity": 73,
              "position": 6,
              "duration": 0.010416666666666666
            },
            {
              "pitch": 42,
              "velocity": 76,
              "position": 6.5,
              "duration": 0.010416666666666666
            },
            {
              "pitch": 36,
              "velocity": 84,
              "position": 6.775,
              "duration": 0.010416666666666666
            },
            {
              "pitch": 40,
              "velocity": 88,
              "position": 7,
              "duration": 0.010416666666666666
            },
            {
              "pitch": 42,
              "velocity": 80,
              "position": 7,
              "duration": 0.010416666666666666
            },
            {
              "pitch": 42,
              "velocity": 71,
              "position": 7.5,
              "duration": 0.010416666666666666
            },
            {
              "pitch": 36,
              "velocity": 75,
              "position": 7.775,
              "duration": 0.010416666666666666
            },
            {
              "pitch": 36,
              "velocity": 106,
              "position": 8,
              "duration": 0.010416666666666666
            },
            {
              "pitch": 42,
              "velocity": 76,
              "position": 8,
              "duration": 0.010416666666666666
            },
            {
              "pitch": 42,
              "velocity": 73,
              "position": 8.5,
              "duration": 0.010416666666666666
            },
            {
              "pitch": 40,
              "velocity": 89,
              "position": 9,
              "duration": 0.010416666666666666
            },
            {
              "pitch": 42,
              "velocity": 75,
              "position": 9,
              "duration": 0.010416666666666666
            },
            {
              "pitch": 42,
              "velocity": 73,
              "position": 9.5,
              "duration": 0.010416666666666666
            },
            {
              "pitch": 36,
              "velocity": 106,
              "position": 10,
              "duration": 0.010416666666666666
            },
            {
              "pitch": 42,
              "velocity": 71,
              "position": 10,
              "duration": 0.010416666666666666
            },
            {
              "pitch": 42,
              "velocity": 71,
              "position": 10.5,
              "duration": 0.010416666666666666
            },
            {
              "pitch": 36,
              "velocity": 98,
              "position": 10.775,
              "duration": 0.010416666666666666
            },
            {
              "pitch": 40,
              "velocity": 87,
              "position": 11,
              "duration": 0.010416666666666666
            },
            {
              "pitch": 42,
              "velocity": 74,
              "position": 11,
              "duration": 0.010416666666666666
            },
            {
              "pitch": 42,
              "velocity": 74,
              "position": 11.5,
              "duration": 0.010416666666666666
            },
            {
              "pitch": 36,
              "velocity": 73,
              "position": 11.775,
              "duration": 0.010416666666666666
            },
            {
              "pitch": 36,
              "velocity": 104,
              "position": 12,
              "duration": 0.010416666666666666
            },
            {
              "pitch": 42,
              "velocity": 71,
              "position": 12,
              "duration": 0.010416666666666666
            },
            {
              "pitch": 42,
              "velocity": 69,
              "position": 12.5,
              "duration": 0.010416666666666666
            },
            {
              "pitch": 40,
              "velocity": 87,
              "position": 13,
              "duration": 0.010416666666666666
            },
            {
              "pitch": 42,
              "velocity": 74,
              "position": 13,
              "duration": 0.010416666666666666
            },
            {
              "pitch": 42,
              "velocity": 73,
              "position": 13.5,
              "duration": 0.010416666666666666
            },
            {
              "pitch": 36,
              "velocity": 106,
              "position": 14,
              "duration": 0.010416666666666666
            },
            {
              "pitch": 42,
              "velocity": 72,
              "position": 14,
              "duration": 0.010416666666666666
            },
            {
              "pitch": 42,
              "velocity": 71,
              "position": 14.5,
              "duration": 0.010416666666666666
            },
            {
              "pitch": 36,
              "velocity": 100,
              "position": 14.775,
              "duration": 0.010416666666666666
            },
            {
              "pitch": 40,
              "velocity": 88,
              "position": 15,
              "duration": 0.010416666666666666
            },
            {
              "pitch": 46,
              "velocity": 71,
              "position": 15.5,
              "duration": 0.010416666666666666
            },
            {
              "pitch": 36,
              "velocity": 95,
              "position": 15.775,
              "duration": 0.010416666666666666
            }
          ]
        },
        "10": {
          "ctab": {
            "srcChannel": 10,
            "name": "Bass",
            "accType": "BASS",
            "editable": false,
            "mutedNotes": [],
            "mutedChords": [],
            "autoStart": false,
            "sourceChordNote": 0,
            "sourceChordType": "Maj7",
            "ctb2Low": null,
            "ctb2Main": {
              "ntr": "ROOT_TRANSPOSITION",
              "ntt": "MELODY",
              "bassOn": true,
              "chordRootUpperLimit": 3,
              "noteLowLimit": 28,
              "noteHighLimit": 127,
              "rtr": "PITCH_SHIFT_TO_ROOT"
            },
            "ctb2High": null
          },
          "notes": [
            {
              "pitch": 24,
              "velocity": 60,
              "position": 0,
              "duration": 0.7416666666666667
            },
            {
              "pitch": 24,
              "velocity": 60,
              "position": 0.75,
              "duration": 0.6958333333333333
            },
            {
              "pitch": 24,
              "velocity": 60,
              "position": 1.5,
              "duration": 0.7375
            },
            {
              "pitch": 24,
              "velocity": 60,
              "position": 2.25,
              "duration": 0.46458333333333335
            },
            {
              "pitch": 31,
              "velocity": 60,
              "position": 2.75,
              "duration": 0.14375
            },
            {
              "pitch": 31,
              "velocity": 60,
              "position": 3,
              "duration": 0.46458333333333335
            },
            {
              "pitch": 28,
              "velocity": 60,
              "position": 3.5,
              "duration": 0.15833333333333333
            },
            {
              "pitch": 31,
              "velocity": 60,
              "position": 3.75,
              "duration": 0.1625
            },
            {
              "pitch": 24,
              "velocity": 60,
              "position": 4,
              "duration": 0.7416666666666667
            },
            {
              "pitch": 24,
              "velocity": 60,
              "position": 4.75,
              "duration": 0.6958333333333333
            },
            {
              "pitch": 24,
              "velocity": 60,
              "position": 5.5,
              "duration": 0.7375
            },
            {
              "pitch": 24,
              "velocity": 60,
              "position": 6.25,
              "duration": 0.46458333333333335
            },
            {
              "pitch": 31,
              "velocity": 60,
              "position": 6.75,
              "duration": 0.14375
            },
            {
              "pitch": 31,
              "velocity": 60,
              "position": 7,
              "duration": 0.46458333333333335
            },
            {
              "pitch": 28,
              "velocity": 60,
              "position": 7.5,
              "duration": 0.15833333333333333
            },
            {
              "pitch": 31,
              "velocity": 60,
              "position": 7.75,
              "duration": 0.1625
            },
            {
              "pitch": 24,
              "velocity": 60,
              "position": 8,
              "duration": 0.7416666666666667
            },
            {
              "pitch": 24,
              "velocity": 60,
              "position": 8.75,
              "duration": 0.6958333333333333
            },
            {
              "pitch": 24,
              "velocity": 60,
              "position": 9.5,
              "duration": 0.7375
            },
            {
              "pitch": 24,
              "velocity": 60,
              "position": 10.25,
              "duration": 0.46458333333333335
            },
            {
              "pitch": 31,
              "velocity": 60,
              "position": 10.75,
              "duration": 0.14375
            },
            {
              "pitch": 31,
              "velocity": 60,
              "position": 11,
              "duration": 0.46458333333333335
            },
            {
              "pitch": 28,
              "velocity": 60,
              "position": 11.5,
              "duration": 0.15833333333333333
            },
            {
              "pitch": 31,
              "velocity": 60,
              "position": 11.75,
              "duration": 0.1625
            },
            {
              "pitch": 24,
              "velocity": 60,
              "position": 12,
              "duration": 0.7416666666666667
            },
            {
              "pitch": 24,
              "velocity": 60,
              "position": 12.75,
              "duration": 0.6958333333333333
            },
            {
              "pitch": 24,
              "velocity": 60,
              "position": 13.5,
              "duration": 0.7375
            },
            {
              "pitch": 24,
              "velocity": 60,
              "position": 14.25,
              "duration": 0.46458333333333335
            },
            {
              "pitch": 31,
              "velocity": 60,
              "position": 14.75,
              "duration": 0.14375
            },
            {
              "pitch": 31,
              "velocity": 60,
              "position": 15,
              "duration": 0.46458333333333335
            },
            {
              "pitch": 28,
              "velocity": 60,
              "position": 15.5,
              "duration": 0.15833333333333333
            },
            {
              "pitch": 31,
              "velocity": 60,
              "position": 15.75,
              "duration": 0.1625
            }
          ]
        },
        "11": {
          "ctab": {
            "srcChannel": 11,
            "name": "piano",
            "accType": "CHORD1",
            "editable": false,
            "mutedNotes": [],
            "mutedChords": [],
            "autoStart": false,
            "sourceChordNote": 0,
            "sourceChordType": "Maj",
            "ctb2Low": null,
            "ctb2Main": {
              "ntr": "ROOT_FIXED",
              "ntt": "CHORD",
              "bassOn": false,
              "chordRootUpperLimit": 9,
              "noteLowLimit": 0,
              "noteHighLimit": 127,
              "rtr": "PITCH_SHIFT"
            },
            "ctb2High": null
          },
          "notes": [
            {
              "pitch": 60,
              "velocity": 111,
              "position": 0.008333333333333333,
              "duration": 0.19375
            },
            {
              "pitch": 55,
              "velocity": 120,
              "position": 0.0020833333333333333,
              "duration": 0.20833333333333334
            },
            {
              "pitch": 64,
              "velocity": 125,
              "position": 0.016666666666666666,
              "duration": 0.4375
            },
            {
              "pitch": 55,
              "velocity": 87,
              "position": 0.25625,
              "duration": 0.21041666666666667
            },
            {
              "pitch": 60,
              "velocity": 79,
              "position": 0.25,
              "duration": 0.225
            },
            {
              "pitch": 64,
              "velocity": 87,
              "position": 0.5145833333333333,
              "duration": 0.17708333333333334
            },
            {
              "pitch": 60,
              "velocity": 61,
              "position": 0.5083333333333333,
              "duration": 0.19583333333333333
            },
            {
              "pitch": 55,
              "velocity": 66,
              "position": 0.5,
              "duration": 0.225
            },
            {
              "pitch": 55,
              "velocity": 127,
              "position": 0.7625,
              "duration": 0.20625
            },
            {
              "pitch": 60,
              "velocity": 127,
              "position": 0.7541666666666667,
              "duration": 0.23541666666666666
            },
            {
              "pitch": 64,
              "velocity": 124,
              "position": 0.7479166666666667,
              "duration": 0.4375
            },
            {
              "pitch": 60,
              "velocity": 83,
              "position": 1.0083333333333333,
              "duration": 0.18958333333333333
            },
            {
              "pitch": 55,
              "velocity": 78,
              "position": 1,
              "duration": 0.21666666666666667
            },
            {
              "pitch": 55,
              "velocity": 83,
              "position": 1.2604166666666667,
              "duration": 0.22291666666666668
            },
            {
              "pitch": 60,
              "velocity": 80,
              "position": 1.2541666666666667,
              "duration": 0.24791666666666667
            },
            {
              "pitch": 64,
              "velocity": 127,
              "position": 1.5166666666666666,
              "duration": 0.004166666666666667
            },
            {
              "pitch": 60,
              "velocity": 118,
              "position": 1.5083333333333333,
              "duration": 0.1875
            },
            {
              "pitch": 55,
              "velocity": 127,
              "position": 1.5020833333333334,
              "duration": 0.21041666666666667
            },
            {
              "pitch": 55,
              "velocity": 96,
              "position": 1.75625,
              "duration": 0.2125
            },
            {
              "pitch": 60,
              "velocity": 87,
              "position": 1.75,
              "duration": 0.2375
            },
            {
              "pitch": 64,
              "velocity": 88,
              "position": 2.0166666666666666,
              "duration": 0.16666666666666666
            },
            {
              "pitch": 60,
              "velocity": 90,
              "position": 2.0083333333333333,
              "duration": 0.19791666666666666
            },
            {
              "pitch": 55,
              "velocity": 94,
              "position": 2,
              "duration": 0.22083333333333333
            },
            {
              "pitch": 55,
              "velocity": 125,
              "position": 2.2625,
              "duration": 0.20833333333333334
            },
            {
              "pitch": 60,
              "velocity": 127,
              "position": 2.25625,
              "duration": 0.21875
            },
            {
              "pitch": 64,
              "velocity": 127,
              "position": 2.247916666666667,
              "duration": 0.42291666666666666
            },
            {
              "pitch": 55,
              "velocity": 85,
              "position": 2.5,
              "duration": 0.17291666666666666
            },
            {
              "pitch": 60,
              "velocity": 74,
              "position": 2.50625,
              "duration": 0.16875
            },
            {
              "pitch": 55,
              "velocity": 88,
              "position": 2.75,
              "duration": 0.21875
            },
            {
              "pitch": 55,
              "velocity": 127,
              "position": 3.002083333333333,
              "duration": 0.20416666666666666
            },
            {
              "pitch": 60,
              "velocity": 127,
              "position": 3.0083333333333333,
              "duration": 0.44583333333333336
            },
            {
              "pitch": 64,
              "velocity": 113,
              "position": 3.0145833333333334,
              "duration": 0.44583333333333336
            },
            {
              "pitch": 55,
              "velocity": 65,
              "position": 3.25,
              "duration": 0.225
            },
            {
              "pitch": 64,
              "velocity": 85,
              "position": 3.5145833333333334,
              "duration": 0.17291666666666666
            },
            {
              "pitch": 55,
              "velocity": 91,
              "position": 3.502083333333333,
              "duration": 0.1875
            },
            {
              "pitch": 60,
              "velocity": 103,
              "position": 3.5083333333333333,
              "duration": 0.18125
            },
            {
              "pitch": 55,
              "velocity": 98,
              "position": 3.7604166666666665,
              "duration": 0.22291666666666668
            },
            {
              "pitch": 60,
              "velocity": 106,
              "position": 3.754166666666667,
              "duration": 0.24166666666666667
            },
            {
              "pitch": 64,
              "velocity": 94,
              "position": 3.745833333333333,
              "duration": 0.25625
            },
            {
              "pitch": 64,
              "velocity": 110,
              "position": 4.014583333333333,
              "duration": 0.17291666666666666
            },
            {
              "pitch": 60,
              "velocity": 121,
              "position": 4.008333333333334,
              "duration": 0.18958333333333333
            },
            {
              "pitch": 55,
              "velocity": 120,
              "position": 4,
              "duration": 0.21458333333333332
            },
            {
              "pitch": 55,
              "velocity": 66,
              "position": 4.260416666666667,
              "duration": 0.2125
            },
            {
              "pitch": 60,
              "velocity": 79,
              "position": 4.254166666666666,
              "duration": 0.23958333333333334
            },
            {
              "pitch": 64,
              "velocity": 74,
              "position": 4.245833333333334,
              "duration": 0.2708333333333333
            },
            {
              "pitch": 64,
              "velocity": 74,
              "position": 4.516666666666667,
              "duration": 0.16458333333333333
            },
            {
              "pitch": 60,
              "velocity": 73,
              "position": 4.508333333333334,
              "duration": 0.18541666666666667
            },
            {
              "pitch": 55,
              "velocity": 81,
              "position": 4.5,
              "duration": 0.21875
            },
            {
              "pitch": 55,
              "velocity": 121,
              "position": 4.7625,
              "duration": 0.21666666666666667
            },
            {
              "pitch": 60,
              "velocity": 113,
              "position": 4.754166666666666,
              "duration": 0.24166666666666667
            },
            {
              "pitch": 64,
              "velocity": 127,
              "position": 4.747916666666667,
              "duration": 0.25416666666666665
            },
            {
              "pitch": 60,
              "velocity": 95,
              "position": 5.008333333333334,
              "duration": 0.19375
            },
            {
              "pitch": 55,
              "velocity": 84,
              "position": 5.002083333333333,
              "duration": 0.21458333333333332
            },
            {
              "pitch": 64,
              "velocity": 90,
              "position": 5.014583333333333,
              "duration": 0.45416666666666666
            },
            {
              "pitch": 55,
              "velocity": 81,
              "position": 5.25625,
              "duration": 0.21666666666666667
            },
            {
              "pitch": 60,
              "velocity": 76,
              "position": 5.25,
              "duration": 0.23958333333333334
            },
            {
              "pitch": 60,
              "velocity": 110,
              "position": 5.508333333333334,
              "duration": 0.17291666666666666
            },
            {
              "pitch": 55,
              "velocity": 118,
              "position": 5.502083333333333,
              "duration": 0.2
            },
            {
              "pitch": 64,
              "velocity": 110,
              "position": 5.514583333333333,
              "duration": 0.44583333333333336
            },
            {
              "pitch": 60,
              "velocity": 74,
              "position": 5.745833333333334,
              "duration": 0.24375
            },
            {
              "pitch": 64,
              "velocity": 99,
              "position": 6.010416666666667,
              "duration": 0.175
            },
            {
              "pitch": 60,
              "velocity": 99,
              "position": 6.002083333333333,
              "duration": 0.20416666666666666
            },
            {
              "pitch": 55,
              "velocity": 80,
              "position": 5.754166666666666,
              "duration": 0.46458333333333335
            },
            {
              "pitch": 55,
              "velocity": 99,
              "position": 6.2625,
              "duration": 0.21458333333333332
            },
            {
              "pitch": 60,
              "velocity": 116,
              "position": 6.254166666666666,
              "duration": 0.24375
            },
            {
              "pitch": 60,
              "velocity": 69,
              "position": 6.510416666666667,
              "duration": 0.16666666666666666
            },
            {
              "pitch": 55,
              "velocity": 85,
              "position": 6.502083333333333,
              "duration": 0.18125
            },
            {
              "pitch": 64,
              "velocity": 107,
              "position": 6.247916666666667,
              "duration": 0.44166666666666665
            },
            {
              "pitch": 55,
              "velocity": 80,
              "position": 6.760416666666667,
              "duration": 0.2125
            },
            {
              "pitch": 60,
              "velocity": 69,
              "position": 6.754166666666666,
              "duration": 0.23541666666666666
            },
            {
              "pitch": 64,
              "velocity": 76,
              "position": 6.747916666666667,
              "duration": 0.2604166666666667
            },
            {
              "pitch": 60,
              "velocity": 127,
              "position": 7.008333333333334,
              "duration": 0.19583333333333333
            },
            {
              "pitch": 55,
              "velocity": 125,
              "position": 7,
              "duration": 0.225
            },
            {
              "pitch": 64,
              "velocity": 124,
              "position": 7.014583333333333,
              "duration": 0.3770833333333333
            },
            {
              "pitch": 55,
              "velocity": 88,
              "position": 7.25625,
              "duration": 0.16041666666666668
            },
            {
              "pitch": 60,
              "velocity": 88,
              "position": 7.25,
              "duration": 0.17291666666666666
            },
            {
              "pitch": 60,
              "velocity": 84,
              "position": 7.508333333333334,
              "duration": 0.19166666666666668
            },
            {
              "pitch": 55,
              "velocity": 81,
              "position": 7.502083333333333,
              "duration": 0.2125
            },
            {
              "pitch": 55,
              "velocity": 85,
              "position": 7.7625,
              "duration": 0.20833333333333334
            },
            {
              "pitch": 60,
              "velocity": 73,
              "position": 7.754166666666666,
              "duration": 0.23958333333333334
            },
            {
              "pitch": 64,
              "velocity": 74,
              "position": 7.747916666666667,
              "duration": 0.25833333333333336
            },
            {
              "pitch": 55,
              "velocity": 121,
              "position": 8,
              "duration": 0.2125
            },
            {
              "pitch": 60,
              "velocity": 127,
              "position": 8.008333333333333,
              "duration": 0.4375
            },
            {
              "pitch": 55,
              "velocity": 61,
              "position": 8.25,
              "duration": 0.22291666666666668
            },
            {
              "pitch": 64,
              "velocity": 127,
              "position": 8.016666666666667,
              "duration": 0.6354166666666666
            },
            {
              "pitch": 60,
              "velocity": 73,
              "position": 8.502083333333333,
              "duration": 0.19583333333333333
            },
            {
              "pitch": 55,
              "velocity": 81,
              "position": 8.50625,
              "duration": 0.22291666666666668
            },
            {
              "pitch": 55,
              "velocity": 127,
              "position": 8.7625,
              "duration": 0.20833333333333334
            },
            {
              "pitch": 64,
              "velocity": 127,
              "position": 8.747916666666667,
              "duration": 0.4479166666666667
            },
            {
              "pitch": 60,
              "velocity": 125,
              "position": 8.754166666666666,
              "duration": 0.45208333333333334
            },
            {
              "pitch": 55,
              "velocity": 71,
              "position": 9.002083333333333,
              "duration": 0.22083333333333333
            },
            {
              "pitch": 55,
              "velocity": 69,
              "position": 9.2625,
              "duration": 0.21458333333333332
            },
            {
              "pitch": 60,
              "velocity": 61,
              "position": 9.254166666666666,
              "duration": 0.24166666666666667
            },
            {
              "pitch": 64,
              "velocity": 79,
              "position": 9.247916666666667,
              "duration": 0.26875
            },
            {
              "pitch": 64,
              "velocity": 127,
              "position": 9.516666666666667,
              "duration": 0.17291666666666666
            },
            {
              "pitch": 60,
              "velocity": 125,
              "position": 9.508333333333333,
              "duration": 0.20625
            },
            {
              "pitch": 55,
              "velocity": 127,
              "position": 9.502083333333333,
              "duration": 0.22291666666666668
            },
            {
              "pitch": 55,
              "velocity": 85,
              "position": 9.764583333333333,
              "duration": 0.225
            },
            {
              "pitch": 60,
              "velocity": 99,
              "position": 9.75625,
              "duration": 0.25416666666666665
            },
            {
              "pitch": 64,
              "velocity": 85,
              "position": 10.020833333333334,
              "duration": 0.008333333333333333
            },
            {
              "pitch": 60,
              "velocity": 84,
              "position": 10.0125,
              "duration": 0.1875
            },
            {
              "pitch": 55,
              "velocity": 87,
              "position": 10.00625,
              "duration": 0.21666666666666667
            },
            {
              "pitch": 55,
              "velocity": 123,
              "position": 10.266666666666667,
              "duration": 0.2
            },
            {
              "pitch": 60,
              "velocity": 117,
              "position": 10.258333333333333,
              "duration": 0.22708333333333333
            },
            {
              "pitch": 64,
              "velocity": 121,
              "position": 10.252083333333333,
              "duration": 0.41875
            },
            {
              "pitch": 60,
              "velocity": 63,
              "position": 10.510416666666666,
              "duration": 0.1625
            },
            {
              "pitch": 55,
              "velocity": 70,
              "position": 10.504166666666666,
              "duration": 0.175
            },
            {
              "pitch": 55,
              "velocity": 94,
              "position": 10.766666666666667,
              "duration": 0.20625
            },
            {
              "pitch": 60,
              "velocity": 84,
              "position": 10.758333333333333,
              "duration": 0.23958333333333334
            },
            {
              "pitch": 64,
              "velocity": 95,
              "position": 10.752083333333333,
              "duration": 0.25833333333333336
            },
            {
              "pitch": 60,
              "velocity": 127,
              "position": 11.0125,
              "duration": 0.18541666666666667
            },
            {
              "pitch": 55,
              "velocity": 118,
              "position": 11.004166666666666,
              "duration": 0.2125
            },
            {
              "pitch": 64,
              "velocity": 107,
              "position": 11.01875,
              "duration": 0.3875
            },
            {
              "pitch": 55,
              "velocity": 78,
              "position": 11.258333333333333,
              "duration": 0.18125
            },
            {
              "pitch": 60,
              "velocity": 87,
              "position": 11.252083333333333,
              "duration": 0.19375
            },
            {
              "pitch": 55,
              "velocity": 68,
              "position": 11.504166666666666,
              "duration": 0.20833333333333334
            },
            {
              "pitch": 55,
              "velocity": 100,
              "position": 11.7625,
              "duration": 0.21666666666666667
            },
            {
              "pitch": 60,
              "velocity": 100,
              "position": 11.75625,
              "duration": 0.23125
            },
            {
              "pitch": 64,
              "velocity": 107,
              "position": 11.75,
              "duration": 0.26458333333333334
            },
            {
              "pitch": 60,
              "velocity": 111,
              "position": 12.010416666666666,
              "duration": 0.19166666666666668
            },
            {
              "pitch": 55,
              "velocity": 120,
              "position": 12.002083333333333,
              "duration": 0.20416666666666666
            },
            {
              "pitch": 64,
              "velocity": 125,
              "position": 12.016666666666667,
              "duration": 0.43333333333333335
            },
            {
              "pitch": 55,
              "velocity": 87,
              "position": 12.25625,
              "duration": 0.20833333333333334
            },
            {
              "pitch": 60,
              "velocity": 79,
              "position": 12.25,
              "duration": 0.22708333333333333
            },
            {
              "pitch": 64,
              "velocity": 87,
              "position": 12.514583333333333,
              "duration": 0.18125
            },
            {
              "pitch": 60,
              "velocity": 61,
              "position": 12.508333333333333,
              "duration": 0.19583333333333333
            },
            {
              "pitch": 55,
              "velocity": 66,
              "position": 12.5,
              "duration": 0.22708333333333333
            },
            {
              "pitch": 55,
              "velocity": 127,
              "position": 12.7625,
              "duration": 0.20208333333333334
            },
            {
              "pitch": 60,
              "velocity": 127,
              "position": 12.75,
              "duration": 0.2375
            },
            {
              "pitch": 60,
              "velocity": 83,
              "position": 13.008333333333333,
              "duration": 0.18125
            },
            {
              "pitch": 64,
              "velocity": 124,
              "position": 12.754166666666666,
              "duration": 0.44166666666666665
            },
            {
              "pitch": 55,
              "velocity": 78,
              "position": 13,
              "duration": 0.22083333333333333
            },
            {
              "pitch": 55,
              "velocity": 83,
              "position": 13.260416666666666,
              "duration": 0.21666666666666667
            },
            {
              "pitch": 60,
              "velocity": 80,
              "position": 13.247916666666667,
              "duration": 0.25
            },
            {
              "pitch": 64,
              "velocity": 85,
              "position": 13.254166666666666,
              "duration": 0.25833333333333336
            },
            {
              "pitch": 60,
              "velocity": 118,
              "position": 13.508333333333333,
              "duration": 0.18541666666666667
            },
            {
              "pitch": 55,
              "velocity": 127,
              "position": 13.502083333333333,
              "duration": 0.21666666666666667
            },
            {
              "pitch": 64,
              "velocity": 127,
              "position": 13.514583333333333,
              "duration": 0.45625
            },
            {
              "pitch": 55,
              "velocity": 96,
              "position": 13.75625,
              "duration": 0.21458333333333332
            },
            {
              "pitch": 60,
              "velocity": 87,
              "position": 13.75,
              "duration": 0.24583333333333332
            },
            {
              "pitch": 64,
              "velocity": 88,
              "position": 14.016666666666667,
              "duration": 0.16875
            },
            {
              "pitch": 60,
              "velocity": 90,
              "position": 14.008333333333333,
              "duration": 0.18958333333333333
            },
            {
              "pitch": 55,
              "velocity": 94,
              "position": 14.002083333333333,
              "duration": 0.2125
            },
            {
              "pitch": 55,
              "velocity": 125,
              "position": 14.2625,
              "duration": 0.2
            },
            {
              "pitch": 60,
              "velocity": 127,
              "position": 14.254166666666666,
              "duration": 0.22708333333333333
            },
            {
              "pitch": 64,
              "velocity": 127,
              "position": 14.247916666666667,
              "duration": 0.24375
            },
            {
              "pitch": 64,
              "velocity": 83,
              "position": 14.5125,
              "duration": 0.1625
            },
            {
              "pitch": 60,
              "velocity": 74,
              "position": 14.50625,
              "duration": 0.17916666666666667
            },
            {
              "pitch": 55,
              "velocity": 85,
              "position": 14.5,
              "duration": 0.19583333333333333
            },
            {
              "pitch": 55,
              "velocity": 88,
              "position": 14.7625,
              "duration": 0.21041666666666667
            },
            {
              "pitch": 60,
              "velocity": 85,
              "position": 14.754166666666666,
              "duration": 0.23125
            },
            {
              "pitch": 64,
              "velocity": 113,
              "position": 15.014583333333333,
              "duration": 0.004166666666666667
            },
            {
              "pitch": 55,
              "velocity": 127,
              "position": 15,
              "duration": 0.21458333333333332
            },
            {
              "pitch": 60,
              "velocity": 127,
              "position": 15.00625,
              "duration": 0.45416666666666666
            },
            {
              "pitch": 55,
              "velocity": 76,
              "position": 15.25,
              "duration": 0.21458333333333332
            },
            {
              "pitch": 60,
              "velocity": 127,
              "position": 15.508333333333333,
              "duration": 0.18958333333333333
            },
            {
              "pitch": 55,
              "velocity": 120,
              "position": 15.5,
              "duration": 0.21041666666666667
            },
            {
              "pitch": 64,
              "velocity": 113,
              "position": 15.514583333333333,
              "duration": 0.4666666666666667
            },
            {
              "pitch": 60,
              "velocity": 121,
              "position": 15.747916666666667,
              "duration": 0.23958333333333334
            },
            {
              "pitch": 55,
              "velocity": 113,
              "position": 15.754166666666666,
              "duration": 0.24166666666666667
            }
          ]
        },
        "12": {
          "ctab": {
            "srcChannel": 12,
            "name": "mutedgtr",
            "accType": "CHORD2",
            "editable": false,
            "mutedNotes": [],
            "mutedChords": [],
            "autoStart": false,
            "sourceChordNote": 0,
            "sourceChordType": "Maj",
            "ctb2Low": null,
            "ctb2Main": {
              "ntr": "ROOT_FIXED",
              "ntt": "CHORD",
              "bassOn": false,
              "chordRootUpperLimit": 3,
              "noteLowLimit": 0,
              "noteHighLimit": 127,
              "rtr": "PITCH_SHIFT"
            },
            "ctb2High": null
          },
          "notes": [
            {
              "pitch": 55,
              "velocity": 112,
              "position": 0,
              "duration": 2.75
            },
            {
              "pitch": 60,
              "velocity": 114,
              "position": 0.0125,
              "duration": 2.7375
            },
            {
              "pitch": 64,
              "velocity": 114,
              "position": 0.041666666666666664,
              "duration": 2.7083333333333335
            },
            {
              "pitch": 55,
              "velocity": 71,
              "position": 2.79375,
              "duration": 0.18125
            },
            {
              "pitch": 60,
              "velocity": 73,
              "position": 2.779166666666667,
              "duration": 0.21041666666666667
            },
            {
              "pitch": 64,
              "velocity": 71,
              "position": 2.7666666666666666,
              "duration": 0.25416666666666665
            },
            {
              "pitch": 55,
              "velocity": 101,
              "position": 2.995833333333333,
              "duration": 0.7541666666666667
            },
            {
              "pitch": 60,
              "velocity": 112,
              "position": 3.0104166666666665,
              "duration": 0.7395833333333334
            },
            {
              "pitch": 64,
              "velocity": 109,
              "position": 3.0416666666666665,
              "duration": 0.7083333333333334
            },
            {
              "pitch": 55,
              "velocity": 65,
              "position": 3.8041666666666667,
              "duration": 0.18333333333333332
            },
            {
              "pitch": 60,
              "velocity": 73,
              "position": 3.7875,
              "duration": 0.21041666666666667
            },
            {
              "pitch": 64,
              "velocity": 68,
              "position": 3.775,
              "duration": 0.2520833333333333
            },
            {
              "pitch": 55,
              "velocity": 109,
              "position": 4.008333333333334,
              "duration": 2.7416666666666667
            },
            {
              "pitch": 60,
              "velocity": 112,
              "position": 4.01875,
              "duration": 2.73125
            },
            {
              "pitch": 64,
              "velocity": 112,
              "position": 4.047916666666667,
              "duration": 2.7020833333333334
            },
            {
              "pitch": 55,
              "velocity": 73,
              "position": 6.795833333333333,
              "duration": 0.18541666666666667
            },
            {
              "pitch": 60,
              "velocity": 88,
              "position": 6.783333333333333,
              "duration": 0.2125
            },
            {
              "pitch": 64,
              "velocity": 71,
              "position": 6.770833333333333,
              "duration": 0.25416666666666665
            },
            {
              "pitch": 55,
              "velocity": 104,
              "position": 7.002083333333333,
              "duration": 0.7479166666666667
            },
            {
              "pitch": 60,
              "velocity": 114,
              "position": 7.016666666666667,
              "duration": 0.7333333333333333
            },
            {
              "pitch": 64,
              "velocity": 109,
              "position": 7.045833333333333,
              "duration": 0.7041666666666667
            },
            {
              "pitch": 55,
              "velocity": 71,
              "position": 7.808333333333334,
              "duration": 0.18333333333333332
            },
            {
              "pitch": 60,
              "velocity": 73,
              "position": 7.791666666666667,
              "duration": 0.2125
            },
            {
              "pitch": 64,
              "velocity": 71,
              "position": 7.777083333333334,
              "duration": 0.25833333333333336
            },
            {
              "pitch": 55,
              "velocity": 104,
              "position": 8.0125,
              "duration": 2.7375
            },
            {
              "pitch": 60,
              "velocity": 109,
              "position": 8.025,
              "duration": 2.725
            },
            {
              "pitch": 64,
              "velocity": 109,
              "position": 8.05625,
              "duration": 2.69375
            },
            {
              "pitch": 55,
              "velocity": 65,
              "position": 10.80625,
              "duration": 0.17291666666666666
            },
            {
              "pitch": 60,
              "velocity": 68,
              "position": 10.791666666666666,
              "duration": 0.20416666666666666
            },
            {
              "pitch": 64,
              "velocity": 62,
              "position": 10.777083333333334,
              "duration": 0.24583333333333332
            },
            {
              "pitch": 55,
              "velocity": 93,
              "position": 11,
              "duration": 0.7291666666666666
            },
            {
              "pitch": 60,
              "velocity": 109,
              "position": 11.016666666666667,
              "duration": 0.7125
            },
            {
              "pitch": 64,
              "velocity": 101,
              "position": 11.04375,
              "duration": 0.6854166666666667
            },
            {
              "pitch": 55,
              "velocity": 61,
              "position": 11.802083333333334,
              "duration": 0.18125
            },
            {
              "pitch": 60,
              "velocity": 71,
              "position": 11.7875,
              "duration": 0.20833333333333334
            },
            {
              "pitch": 64,
              "velocity": 62,
              "position": 11.772916666666667,
              "duration": 0.25416666666666665
            },
            {
              "pitch": 55,
              "velocity": 93,
              "position": 12.004166666666666,
              "duration": 2.745833333333333
            },
            {
              "pitch": 60,
              "velocity": 104,
              "position": 12.016666666666667,
              "duration": 2.7333333333333334
            },
            {
              "pitch": 64,
              "velocity": 93,
              "position": 12.047916666666667,
              "duration": 2.7020833333333334
            },
            {
              "pitch": 55,
              "velocity": 78,
              "position": 14.797916666666667,
              "duration": 0.175
            },
            {
              "pitch": 60,
              "velocity": 88,
              "position": 14.783333333333333,
              "duration": 0.20208333333333334
            },
            {
              "pitch": 64,
              "velocity": 71,
              "position": 14.770833333333334,
              "duration": 0.24583333333333332
            },
            {
              "pitch": 55,
              "velocity": 77,
              "position": 14.99375,
              "duration": 0.7104166666666667
            },
            {
              "pitch": 60,
              "velocity": 93,
              "position": 15.00625,
              "duration": 0.6979166666666666
            },
            {
              "pitch": 64,
              "velocity": 101,
              "position": 15.0375,
              "duration": 0.6666666666666666
            },
            {
              "pitch": 55,
              "velocity": 68,
              "position": 15.79375,
              "duration": 0.13541666666666666
            },
            {
              "pitch": 60,
              "velocity": 78,
              "position": 15.78125,
              "duration": 0.16041666666666668
            },
            {
              "pitch": 64,
              "velocity": 73,
              "position": 15.76875,
              "duration": 0.20208333333333334
            }
          ]
        },
        "13": {
          "ctab": {
            "srcChannel": 13,
            "name": "gtr",
            "accType": "PAD",
            "editable": false,
            "mutedNotes": [],
            "mutedChords": [],
            "autoStart": false,
            "sourceChordNote": 0,
            "sourceChordType": "Maj",
            "ctb2Low": null,
            "ctb2Main": {
              "ntr": "ROOT_TRANSPOSITION",
              "ntt": "MELODY",
              "bassOn": true,
              "chordRootUpperLimit": 6,
              "noteLowLimit": 56,
              "noteHighLimit": 69,
              "rtr": "PITCH_SHIFT"
            },
            "ctb2High": null
          },
          "notes": [
            {
              "pitch": 60,
              "velocity": 94,
              "position": 0,
              "duration": 2.870833333333333
            },
            {
              "pitch": 64,
              "velocity": 94,
              "position": 0,
              "duration": 2.870833333333333
            },
            {
              "pitch": 55,
              "velocity": 94,
              "position": 0,
              "duration": 2.872916666666667
            },
            {
              "pitch": 64,
              "velocity": 94,
              "position": 3,
              "duration": 0.85625
            },
            {
              "pitch": 55,
              "velocity": 94,
              "position": 3,
              "duration": 0.8583333333333333
            },
            {
              "pitch": 60,
              "velocity": 94,
              "position": 3,
              "duration": 0.8583333333333333
            },
            {
              "pitch": 55,
              "velocity": 94,
              "position": 4,
              "duration": 2.870833333333333
            },
            {
              "pitch": 60,
              "velocity": 94,
              "position": 4,
              "duration": 2.870833333333333
            },
            {
              "pitch": 64,
              "velocity": 94,
              "position": 4,
              "duration": 2.870833333333333
            },
            {
              "pitch": 55,
              "velocity": 94,
              "position": 7,
              "duration": 0.86875
            },
            {
              "pitch": 60,
              "velocity": 94,
              "position": 7,
              "duration": 0.86875
            },
            {
              "pitch": 64,
              "velocity": 94,
              "position": 7,
              "duration": 0.86875
            },
            {
              "pitch": 55,
              "velocity": 94,
              "position": 8,
              "duration": 2.875
            },
            {
              "pitch": 60,
              "velocity": 94,
              "position": 8,
              "duration": 2.875
            },
            {
              "pitch": 64,
              "velocity": 94,
              "position": 8,
              "duration": 2.875
            },
            {
              "pitch": 55,
              "velocity": 94,
              "position": 11,
              "duration": 0.8770833333333333
            },
            {
              "pitch": 60,
              "velocity": 94,
              "position": 11,
              "duration": 0.8770833333333333
            },
            {
              "pitch": 64,
              "velocity": 94,
              "position": 11,
              "duration": 0.8791666666666667
            },
            {
              "pitch": 55,
              "velocity": 94,
              "position": 12,
              "duration": 2.86875
            },
            {
              "pitch": 60,
              "velocity": 94,
              "position": 12,
              "duration": 2.86875
            },
            {
              "pitch": 64,
              "velocity": 94,
              "position": 12,
              "duration": 2.872916666666667
            },
            {
              "pitch": 55,
              "velocity": 94,
              "position": 15,
              "duration": 0.8770833333333333
            },
            {
              "pitch": 60,
              "velocity": 94,
              "position": 15,
              "duration": 0.8770833333333333
            },
            {
              "pitch": 64,
              "velocity": 94,
              "position": 15,
              "duration": 0.8770833333333333
            }
          ]
        },
        "14": {
          "ctab": {
            "srcChannel": 14,
            "name": "dist",
            "accType": "PHRASE1",
            "editable": false,
            "mutedNotes": [],
            "mutedChords": [],
            "autoStart": false,
            "sourceChordNote": 0,
            "sourceChordType": "Maj",
            "ctb2Low": null,
            "ctb2Main": {
              "ntr": "ROOT_FIXED",
              "ntt": "CHORD",
              "bassOn": false,
              "chordRootUpperLimit": 4,
              "noteLowLimit": 0,
              "noteHighLimit": 127,
              "rtr": "PITCH_SHIFT"
            },
            "ctb2High": null
          },
          "notes": []
        },
        "15": {
          "ctab": {
            "srcChannel": 15,
            "name": "overdr",
            "accType": "PHRASE2",
            "editable": false,
            "mutedNotes": [],
            "mutedChords": [],
            "autoStart": false,
            "sourceChordNote": 0,
            "sourceChordType": "Maj",
            "ctb2Low": null,
            "ctb2Main": {
              "ntr": "ROOT_TRANSPOSITION",
              "ntt": "MELODY",
              "bassOn": true,
              "chordRootUpperLimit": 4,
              "noteLowLimit": 0,
              "noteHighLimit": 127,
              "rtr": "PITCH_SHIFT"
            },
            "ctb2High": null
          },
          "notes": [
            {
              "pitch": 48,
              "velocity": 69,
              "position": 2.752083333333333,
              "duration": 0.020833333333333332
            },
            {
              "pitch": 55,
              "velocity": 53,
              "position": 2.779166666666667,
              "duration": 0.004166666666666667
            },
            {
              "pitch": 48,
              "velocity": 72,
              "position": 3.75,
              "duration": 0.00625
            },
            {
              "pitch": 55,
              "velocity": 56,
              "position": 3.76875,
              "duration": 0.010416666666666666
            },
            {
              "pitch": 48,
              "velocity": 99,
              "position": 3.96875,
              "duration": 2.7625
            },
            {
              "pitch": 55,
              "velocity": 71,
              "position": 6.752083333333333,
              "duration": 0.0125
            },
            {
              "pitch": 48,
              "velocity": 77,
              "position": 6.741666666666666,
              "duration": 0.21041666666666667
            },
            {
              "pitch": 48,
              "velocity": 81,
              "position": 7.741666666666666,
              "duration": 0.00625
            },
            {
              "pitch": 55,
              "velocity": 62,
              "position": 7.7625,
              "duration": 0.010416666666666666
            },
            {
              "pitch": 48,
              "velocity": 74,
              "position": 10.75625,
              "duration": 0.008333333333333333
            },
            {
              "pitch": 55,
              "velocity": 57,
              "position": 10.775,
              "duration": 0.004166666666666667
            },
            {
              "pitch": 48,
              "velocity": 74,
              "position": 11.75,
              "duration": 0.008333333333333333
            },
            {
              "pitch": 55,
              "velocity": 57,
              "position": 11.777083333333334,
              "duration": 0.004166666666666667
            },
            {
              "pitch": 48,
              "velocity": 69,
              "position": 14.752083333333333,
              "duration": 0.008333333333333333
            },
            {
              "pitch": 55,
              "velocity": 56,
              "position": 14.777083333333334,
              "duration": 0.008333333333333333
            },
            {
              "pitch": 55,
              "velocity": 76,
              "position": 15.016666666666667,
              "duration": 0.70625
            },
            {
              "pitch": 48,
              "velocity": 70,
              "position": 15.74375,
              "duration": 0.010416666666666666
            },
            {
              "pitch": 55,
              "velocity": 57,
              "position": 15.764583333333333,
              "duration": 0.22291666666666668
            }
          ]
        }
      }
    },
    "Main_B": {
      "type": "Main_B",
      "sizeInBeats": 16,
      "channels": {
        "8": {
          "ctab": {
            "srcChannel": 8,
            "name": "add-drum",
            "accType": "SUBRHYTHM",
            "editable": false,
            "mutedNotes": [],
            "mutedChords": [],
            "autoStart": true,
            "sourceChordNote": 0,
            "sourceChordType": "Maj7",
            "ctb2Low": null,
            "ctb2Main": {
              "ntr": "ROOT_FIXED",
              "ntt": "BYPASS",
              "bassOn": false,
              "chordRootUpperLimit": 6,
              "noteLowLimit": 0,
              "noteHighLimit": 127,
              "rtr": "PITCH_SHIFT"
            },
            "ctb2High": null
          },
          "notes": [
            {
              "pitch": 54,
              "velocity": 69,
              "position": 0.008333333333333333,
              "duration": 0.010416666666666666
            },
            {
              "pitch": 54,
              "velocity": 34,
              "position": 0.275,
              "duration": 0.010416666666666666
            },
            {
              "pitch": 54,
              "velocity": 49,
              "position": 0.49583333333333335,
              "duration": 0.010416666666666666
            },
            {
              "pitch": 54,
              "velocity": 38,
              "position": 0.7583333333333333,
              "duration": 0.010416666666666666
            },
            {
              "pitch": 54,
              "velocity": 71,
              "position": 0.9958333333333333,
              "duration": 0.010416666666666666
            },
            {
              "pitch": 54,
              "velocity": 34,
              "position": 1.2625,
              "duration": 0.010416666666666666
            },
            {
              "pitch": 54,
              "velocity": 50,
              "position": 1.4916666666666667,
              "duration": 0.010416666666666666
            },
            {
              "pitch": 54,
              "velocity": 30,
              "position": 1.75625,
              "duration": 0.010416666666666666
            },
            {
              "pitch": 54,
              "velocity": 69,
              "position": 1.9979166666666666,
              "duration": 0.010416666666666666
            },
            {
              "pitch": 54,
              "velocity": 40,
              "position": 2.2729166666666667,
              "duration": 0.010416666666666666
            },
            {
              "pitch": 54,
              "velocity": 41,
              "position": 2.49375,
              "duration": 0.010416666666666666
            },
            {
              "pitch": 54,
              "velocity": 35,
              "position": 2.75,
              "duration": 0.010416666666666666
            },
            {
              "pitch": 54,
              "velocity": 71,
              "position": 2.997916666666667,
              "duration": 0.010416666666666666
            },
            {
              "pitch": 54,
              "velocity": 42,
              "position": 3.2645833333333334,
              "duration": 0.010416666666666666
            },
            {
              "pitch": 54,
              "velocity": 38,
              "position": 3.497916666666667,
              "duration": 0.010416666666666666
            },
            {
              "pitch": 54,
              "velocity": 41,
              "position": 3.754166666666667,
              "duration": 0.010416666666666666
            },
            {
              "pitch": 54,
              "velocity": 70,
              "position": 3.9895833333333335,
              "duration": 0.010416666666666666
            },
            {
              "pitch": 54,
              "velocity": 33,
              "position": 4.25625,
              "duration": 0.010416666666666666
            },
            {
              "pitch": 54,
              "velocity": 44,
              "position": 4.485416666666667,
              "duration": 0.010416666666666666
            },
            {
              "pitch": 54,
              "velocity": 22,
              "position": 4.752083333333333,
              "duration": 0.010416666666666666
            },
            {
              "pitch": 54,
              "velocity": 69,
              "position": 4.99375,
              "duration": 0.010416666666666666
            },
            {
              "pitch": 54,
              "velocity": 40,
              "position": 5.266666666666667,
              "duration": 0.010416666666666666
            },
            {
              "pitch": 54,
              "velocity": 45,
              "position": 5.502083333333333,
              "duration": 0.010416666666666666
            },
            {
              "pitch": 54,
              "velocity": 31,
              "position": 5.766666666666667,
              "duration": 0.010416666666666666
            },
            {
              "pitch": 54,
              "velocity": 69,
              "position": 6,
              "duration": 0.010416666666666666
            },
            {
              "pitch": 54,
              "velocity": 46,
              "position": 6.25,
              "duration": 0.010416666666666666
            },
            {
              "pitch": 54,
              "velocity": 46,
              "position": 6.5,
              "duration": 0.010416666666666666
            },
            {
              "pitch": 54,
              "velocity": 35,
              "position": 6.735416666666667,
              "duration": 0.010416666666666666
            },
            {
              "pitch": 54,
              "velocity": 69,
              "position": 6.991666666666666,
              "duration": 0.010416666666666666
            },
            {
              "pitch": 54,
              "velocity": 33,
              "position": 7.277083333333334,
              "duration": 0.010416666666666666
            },
            {
              "pitch": 54,
              "velocity": 38,
              "position": 7.491666666666666,
              "duration": 0.010416666666666666
            },
            {
              "pitch": 54,
              "velocity": 42,
              "position": 7.7625,
              "duration": 0.010416666666666666
            },
            {
              "pitch": 54,
              "velocity": 75,
              "position": 7.991666666666666,
              "duration": 0.010416666666666666
            },
            {
              "pitch": 54,
              "velocity": 42,
              "position": 8.26875,
              "duration": 0.010416666666666666
            },
            {
              "pitch": 54,
              "velocity": 44,
              "position": 8.508333333333333,
              "duration": 0.010416666666666666
            },
            {
              "pitch": 54,
              "velocity": 34,
              "position": 8.758333333333333,
              "duration": 0.010416666666666666
            },
            {
              "pitch": 54,
              "velocity": 79,
              "position": 9.004166666666666,
              "duration": 0.010416666666666666
            },
            {
              "pitch": 54,
              "velocity": 38,
              "position": 9.264583333333333,
              "duration": 0.010416666666666666
            },
            {
              "pitch": 54,
              "velocity": 41,
              "position": 9.502083333333333,
              "duration": 0.010416666666666666
            },
            {
              "pitch": 54,
              "velocity": 37,
              "position": 9.760416666666666,
              "duration": 0.010416666666666666
            },
            {
              "pitch": 54,
              "velocity": 70,
              "position": 10.00625,
              "duration": 0.010416666666666666
            },
            {
              "pitch": 54,
              "velocity": 38,
              "position": 10.285416666666666,
              "duration": 0.010416666666666666
            },
            {
              "pitch": 54,
              "velocity": 42,
              "position": 10.5,
              "duration": 0.010416666666666666
            },
            {
              "pitch": 54,
              "velocity": 44,
              "position": 10.75625,
              "duration": 0.010416666666666666
            },
            {
              "pitch": 54,
              "velocity": 76,
              "position": 11.016666666666667,
              "duration": 0.010416666666666666
            },
            {
              "pitch": 54,
              "velocity": 44,
              "position": 11.279166666666667,
              "duration": 0.010416666666666666
            },
            {
              "pitch": 54,
              "velocity": 46,
              "position": 11.520833333333334,
              "duration": 0.010416666666666666
            },
            {
              "pitch": 54,
              "velocity": 38,
              "position": 11.764583333333333,
              "duration": 0.010416666666666666
            },
            {
              "pitch": 54,
              "velocity": 66,
              "position": 12.010416666666666,
              "duration": 0.010416666666666666
            },
            {
              "pitch": 54,
              "velocity": 34,
              "position": 12.275,
              "duration": 0.010416666666666666
            },
            {
              "pitch": 54,
              "velocity": 46,
              "position": 12.502083333333333,
              "duration": 0.010416666666666666
            },
            {
              "pitch": 54,
              "velocity": 37,
              "position": 12.758333333333333,
              "duration": 0.010416666666666666
            },
            {
              "pitch": 54,
              "velocity": 71,
              "position": 12.99375,
              "duration": 0.010416666666666666
            },
            {
              "pitch": 54,
              "velocity": 35,
              "position": 13.264583333333333,
              "duration": 0.010416666666666666
            },
            {
              "pitch": 54,
              "velocity": 50,
              "position": 13.49375,
              "duration": 0.010416666666666666
            },
            {
              "pitch": 54,
              "velocity": 29,
              "position": 13.760416666666666,
              "duration": 0.010416666666666666
            },
            {
              "pitch": 54,
              "velocity": 69,
              "position": 14.004166666666666,
              "duration": 0.010416666666666666
            },
            {
              "pitch": 54,
              "velocity": 44,
              "position": 14.270833333333334,
              "duration": 0.010416666666666666
            },
            {
              "pitch": 54,
              "velocity": 40,
              "position": 14.504166666666666,
              "duration": 0.010416666666666666
            },
            {
              "pitch": 54,
              "velocity": 34,
              "position": 14.758333333333333,
              "duration": 0.010416666666666666
            },
            {
              "pitch": 54,
              "velocity": 70,
              "position": 15.002083333333333,
              "duration": 0.010416666666666666
            },
            {
              "pitch": 54,
              "velocity": 46,
              "position": 15.272916666666667,
              "duration": 0.010416666666666666
            },
            {
              "pitch": 54,
              "velocity": 41,
              "position": 15.508333333333333,
              "duration": 0.010416666666666666
            },
            {
              "pitch": 54,
              "velocity": 44,
              "position": 15.754166666666666,
              "duration": 0.010416666666666666
            }
          ]
        },
        "9": {
          "ctab": {
            "srcChannel": 9,
            "name": "main-dru",
            "accType": "RHYTHM",
            "editable": false,
            "mutedNotes": [],
            "mutedChords": [],
            "autoStart": true,
            "sourceChordNote": 0,
            "sourceChordType": "Maj7",
            "ctb2Low": null,
            "ctb2Main": {
              "ntr": "ROOT_FIXED",
              "ntt": "BYPASS",
              "bassOn": false,
              "chordRootUpperLimit": 6,
              "noteLowLimit": 0,
              "noteHighLimit": 127,
              "rtr": "PITCH_SHIFT"
            },
            "ctb2High": null
          },
          "notes": [
            {
              "pitch": 36,
              "velocity": 106,
              "position": 0,
              "duration": 0.010416666666666666
            },
            {
              "pitch": 44,
              "velocity": 72,
              "position": 0,
              "duration": 0.010416666666666666
            },
            {
              "pitch": 51,
              "velocity": 73,
              "position": 0.010416666666666666,
              "duration": 0.010416666666666666
            },
            {
              "pitch": 51,
              "velocity": 73,
              "position": 0.5104166666666666,
              "duration": 0.010416666666666666
            },
            {
              "pitch": 40,
              "velocity": 87,
              "position": 1,
              "duration": 0.010416666666666666
            },
            {
              "pitch": 44,
              "velocity": 75,
              "position": 1,
              "duration": 0.010416666666666666
            },
            {
              "pitch": 51,
              "velocity": 76,
              "position": 1.0125,
              "duration": 0.010416666666666666
            },
            {
              "pitch": 51,
              "velocity": 69,
              "position": 1.5145833333333334,
              "duration": 0.010416666666666666
            },
            {
              "pitch": 44,
              "velocity": 75,
              "position": 2,
              "duration": 0.010416666666666666
            },
            {
              "pitch": 51,
              "velocity": 76,
              "position": 2.0083333333333333,
              "duration": 0.010416666666666666
            },
            {
              "pitch": 36,
              "velocity": 99,
              "position": 2.5,
              "duration": 0.010416666666666666
            },
            {
              "pitch": 51,
              "velocity": 71,
              "position": 2.5104166666666665,
              "duration": 0.010416666666666666
            },
            {
              "pitch": 40,
              "velocity": 88,
              "position": 3,
              "duration": 0.010416666666666666
            },
            {
              "pitch": 44,
              "velocity": 77,
              "position": 3,
              "duration": 0.010416666666666666
            },
            {
              "pitch": 51,
              "velocity": 79,
              "position": 3.0145833333333334,
              "duration": 0.010416666666666666
            },
            {
              "pitch": 36,
              "velocity": 74,
              "position": 3.5,
              "duration": 0.010416666666666666
            },
            {
              "pitch": 51,
              "velocity": 70,
              "position": 3.5104166666666665,
              "duration": 0.010416666666666666
            },
            {
              "pitch": 36,
              "velocity": 106,
              "position": 4,
              "duration": 0.010416666666666666
            },
            {
              "pitch": 44,
              "velocity": 75,
              "position": 4,
              "duration": 0.010416666666666666
            },
            {
              "pitch": 57,
              "velocity": 71,
              "position": 4,
              "duration": 0.010416666666666666
            },
            {
              "pitch": 51,
              "velocity": 77,
              "position": 4.510416666666667,
              "duration": 0.010416666666666666
            },
            {
              "pitch": 36,
              "velocity": 100,
              "position": 4.775,
              "duration": 0.010416666666666666
            },
            {
              "pitch": 40,
              "velocity": 89,
              "position": 5,
              "duration": 0.010416666666666666
            },
            {
              "pitch": 44,
              "velocity": 76,
              "position": 5,
              "duration": 0.010416666666666666
            },
            {
              "pitch": 51,
              "velocity": 81,
              "position": 5.016666666666667,
              "duration": 0.010416666666666666
            },
            {
              "pitch": 36,
              "velocity": 106,
              "position": 5.5,
              "duration": 0.010416666666666666
            },
            {
              "pitch": 51,
              "velocity": 70,
              "position": 5.516666666666667,
              "duration": 0.010416666666666666
            },
            {
              "pitch": 44,
              "velocity": 79,
              "position": 6,
              "duration": 0.010416666666666666
            },
            {
              "pitch": 51,
              "velocity": 73,
              "position": 6.008333333333334,
              "duration": 0.010416666666666666
            },
            {
              "pitch": 36,
              "velocity": 106,
              "position": 6.5,
              "duration": 0.010416666666666666
            },
            {
              "pitch": 57,
              "velocity": 68,
              "position": 6.5,
              "duration": 0.010416666666666666
            },
            {
              "pitch": 40,
              "velocity": 87,
              "position": 7,
              "duration": 0.010416666666666666
            },
            {
              "pitch": 44,
              "velocity": 79,
              "position": 7,
              "duration": 0.010416666666666666
            },
            {
              "pitch": 51,
              "velocity": 48,
              "position": 7.0125,
              "duration": 0.010416666666666666
            },
            {
              "pitch": 49,
              "velocity": 60,
              "position": 7.266666666666667,
              "duration": 0.010416666666666666
            },
            {
              "pitch": 36,
              "velocity": 106,
              "position": 7.275,
              "duration": 0.010416666666666666
            },
            {
              "pitch": 36,
              "velocity": 106,
              "position": 8,
              "duration": 0.010416666666666666
            },
            {
              "pitch": 44,
              "velocity": 79,
              "position": 8,
              "duration": 0.010416666666666666
            },
            {
              "pitch": 57,
              "velocity": 57,
              "position": 8,
              "duration": 0.010416666666666666
            },
            {
              "pitch": 51,
              "velocity": 54,
              "position": 8.5125,
              "duration": 0.010416666666666666
            },
            {
              "pitch": 40,
              "velocity": 87,
              "position": 9,
              "duration": 0.010416666666666666
            },
            {
              "pitch": 44,
              "velocity": 76,
              "position": 9,
              "duration": 0.010416666666666666
            },
            {
              "pitch": 51,
              "velocity": 83,
              "position": 9.014583333333333,
              "duration": 0.010416666666666666
            },
            {
              "pitch": 51,
              "velocity": 69,
              "position": 9.5125,
              "duration": 0.010416666666666666
            },
            {
              "pitch": 44,
              "velocity": 75,
              "position": 10,
              "duration": 0.010416666666666666
            },
            {
              "pitch": 51,
              "velocity": 79,
              "position": 10.0125,
              "duration": 0.010416666666666666
            },
            {
              "pitch": 36,
              "velocity": 106,
              "position": 10.5,
              "duration": 0.010416666666666666
            },
            {
              "pitch": 51,
              "velocity": 75,
              "position": 10.514583333333333,
              "duration": 0.010416666666666666
            },
            {
              "pitch": 40,
              "velocity": 89,
              "position": 11,
              "duration": 0.010416666666666666
            },
            {
              "pitch": 44,
              "velocity": 77,
              "position": 11,
              "duration": 0.010416666666666666
            },
            {
              "pitch": 51,
              "velocity": 78,
              "position": 11.008333333333333,
              "duration": 0.010416666666666666
            },
            {
              "pitch": 36,
              "velocity": 75,
              "position": 11.5,
              "duration": 0.010416666666666666
            },
            {
              "pitch": 51,
              "velocity": 83,
              "position": 11.5125,
              "duration": 0.010416666666666666
            },
            {
              "pitch": 36,
              "velocity": 106,
              "position": 12,
              "duration": 0.010416666666666666
            },
            {
              "pitch": 44,
              "velocity": 70,
              "position": 12,
              "duration": 0.010416666666666666
            },
            {
              "pitch": 53,
              "velocity": 78,
              "position": 12,
              "duration": 0.010416666666666666
            },
            {
              "pitch": 51,
              "velocity": 66,
              "position": 12.5125,
              "duration": 0.010416666666666666
            },
            {
              "pitch": 51,
              "velocity": 73,
              "position": 12.772916666666667,
              "duration": 0.010416666666666666
            },
            {
              "pitch": 40,
              "velocity": 88,
              "position": 13,
              "duration": 0.010416666666666666
            },
            {
              "pitch": 44,
              "velocity": 75,
              "position": 13,
              "duration": 0.010416666666666666
            },
            {
              "pitch": 36,
              "velocity": 94,
              "position": 13.5,
              "duration": 0.010416666666666666
            },
            {
              "pitch": 53,
              "velocity": 66,
              "position": 13.5,
              "duration": 0.010416666666666666
            },
            {
              "pitch": 36,
              "velocity": 106,
              "position": 14,
              "duration": 0.010416666666666666
            },
            {
              "pitch": 44,
              "velocity": 74,
              "position": 14,
              "duration": 0.010416666666666666
            },
            {
              "pitch": 53,
              "velocity": 72,
              "position": 14,
              "duration": 0.010416666666666666
            },
            {
              "pitch": 51,
              "velocity": 64,
              "position": 14.514583333333333,
              "duration": 0.010416666666666666
            },
            {
              "pitch": 51,
              "velocity": 79,
              "position": 14.777083333333334,
              "duration": 0.010416666666666666
            },
            {
              "pitch": 40,
              "velocity": 89,
              "position": 15,
              "duration": 0.010416666666666666
            },
            {
              "pitch": 44,
              "velocity": 75,
              "position": 15,
              "duration": 0.010416666666666666
            },
            {
              "pitch": 36,
              "velocity": 95,
              "position": 15.5,
              "duration": 0.010416666666666666
            },
            {
              "pitch": 53,
              "velocity": 66,
              "position": 15.5,
              "duration": 0.010416666666666666
            }
          ]
        },
        "10": {
          "ctab": {
            "srcChannel": 10,
            "name": "Bass",
            "accType": "BASS",
            "editable": false,
            "mutedNotes": [],
            "mutedChords": [],
            "autoStart": false,
            "sourceChordNote": 0,
            "sourceChordType": "Maj7",
            "ctb2Low": null,
            "ctb2Main": {
              "ntr": "ROOT_TRANSPOSITION",
              "ntt": "MELODY",
              "bassOn": true,
              "chordRootUpperLimit": 3,
              "noteLowLimit": 28,
              "noteHighLimit": 127,
              "rtr": "PITCH_SHIFT_TO_ROOT"
            },
            "ctb2High": null
          },
          "notes": [
            {
              "pitch": 24,
              "velocity": 60,
              "position": 0,
              "duration": 2.2416666666666667
            },
            {
              "pitch": 24,
              "velocity": 60,
              "position": 2.5,
              "duration": 0.47708333333333336
            },
            {
              "pitch": 24,
              "velocity": 60,
              "position": 3,
              "duration": 0.93125
            },
            {
              "pitch": 24,
              "velocity": 60,
              "position": 4,
              "duration": 0.9791666666666666
            },
            {
              "pitch": 24,
              "velocity": 60,
              "position": 5,
              "duration": 0.4791666666666667
            },
            {
              "pitch": 24,
              "velocity": 60,
              "position": 5.5,
              "duration": 0.9791666666666666
            },
            {
              "pitch": 24,
              "velocity": 60,
              "position": 6.5,
              "duration": 0.75
            },
            {
              "pitch": 31,
              "velocity": 60,
              "position": 7.25,
              "duration": 0.70625
            },
            {
              "pitch": 24,
              "velocity": 60,
              "position": 8,
              "duration": 0.9791666666666666
            },
            {
              "pitch": 24,
              "velocity": 60,
              "position": 9,
              "duration": 0.4791666666666667
            },
            {
              "pitch": 24,
              "velocity": 60,
              "position": 9.5,
              "duration": 0.9791666666666666
            },
            {
              "pitch": 24,
              "velocity": 60,
              "position": 10.5,
              "duration": 0.9770833333333333
            },
            {
              "pitch": 31,
              "velocity": 60,
              "position": 11.5,
              "duration": 0.24791666666666667
            },
            {
              "pitch": 33,
              "velocity": 60,
              "position": 11.75,
              "duration": 0.20833333333333334
            },
            {
              "pitch": 24,
              "velocity": 60,
              "position": 12,
              "duration": 0.35
            },
            {
              "pitch": 24,
              "velocity": 60,
              "position": 13,
              "duration": 0.3458333333333333
            },
            {
              "pitch": 31,
              "velocity": 60,
              "position": 13.5,
              "duration": 0.24791666666666667
            },
            {
              "pitch": 33,
              "velocity": 60,
              "position": 13.75,
              "duration": 0.20833333333333334
            },
            {
              "pitch": 24,
              "velocity": 60,
              "position": 14,
              "duration": 0.3770833333333333
            },
            {
              "pitch": 24,
              "velocity": 60,
              "position": 15,
              "duration": 0.29791666666666666
            },
            {
              "pitch": 31,
              "velocity": 60,
              "position": 15.5,
              "duration": 0.24791666666666667
            },
            {
              "pitch": 33,
              "velocity": 60,
              "position": 15.75,
              "duration": 0.16666666666666666
            }
          ]
        },
        "11": {
          "ctab": {
            "srcChannel": 11,
            "name": "piano",
            "accType": "CHORD1",
            "editable": false,
            "mutedNotes": [],
            "mutedChords": [],
            "autoStart": false,
            "sourceChordNote": 0,
            "sourceChordType": "Maj",
            "ctb2Low": null,
            "ctb2Main": {
              "ntr": "ROOT_FIXED",
              "ntt": "CHORD",
              "bassOn": false,
              "chordRootUpperLimit": 9,
              "noteLowLimit": 0,
              "noteHighLimit": 127,
              "rtr": "PITCH_SHIFT"
            },
            "ctb2High": null
          },
          "notes": [
            {
              "pitch": 55,
              "velocity": 103,
              "position": 0,
              "duration": 0.6895833333333333
            },
            {
              "pitch": 60,
              "velocity": 117,
              "position": 0.008333333333333333,
              "duration": 0.9145833333333333
            },
            {
              "pitch": 64,
              "velocity": 114,
              "position": 0.016666666666666666,
              "duration": 0.925
            },
            {
              "pitch": 55,
              "velocity": 63,
              "position": 0.7520833333333333,
              "duration": 0.21666666666666667
            },
            {
              "pitch": 60,
              "velocity": 115,
              "position": 1.0020833333333334,
              "duration": 0.6833333333333333
            },
            {
              "pitch": 55,
              "velocity": 103,
              "position": 1.0083333333333333,
              "duration": 0.6916666666666667
            },
            {
              "pitch": 64,
              "velocity": 120,
              "position": 1.0166666666666666,
              "duration": 0.9354166666666667
            },
            {
              "pitch": 55,
              "velocity": 88,
              "position": 1.7583333333333333,
              "duration": 0.23125
            },
            {
              "pitch": 60,
              "velocity": 101,
              "position": 1.7520833333333334,
              "duration": 0.25
            },
            {
              "pitch": 55,
              "velocity": 117,
              "position": 2.004166666666667,
              "duration": 0.4354166666666667
            },
            {
              "pitch": 60,
              "velocity": 115,
              "position": 2.0125,
              "duration": 0.43125
            },
            {
              "pitch": 64,
              "velocity": 116,
              "position": 2.01875,
              "duration": 0.4395833333333333
            },
            {
              "pitch": 55,
              "velocity": 101,
              "position": 2.5104166666666665,
              "duration": 0.9145833333333333
            },
            {
              "pitch": 60,
              "velocity": 91,
              "position": 2.504166666666667,
              "duration": 0.9208333333333333
            },
            {
              "pitch": 64,
              "velocity": 113,
              "position": 2.51875,
              "duration": 0.91875
            },
            {
              "pitch": 64,
              "velocity": 105,
              "position": 3.51875,
              "duration": 0.03958333333333333
            },
            {
              "pitch": 60,
              "velocity": 101,
              "position": 3.5104166666666665,
              "duration": 0.05625
            },
            {
              "pitch": 55,
              "velocity": 123,
              "position": 3.502083333333333,
              "duration": 0.06875
            },
            {
              "pitch": 55,
              "velocity": 71,
              "position": 3.7645833333333334,
              "duration": 0.20833333333333334
            },
            {
              "pitch": 60,
              "velocity": 71,
              "position": 3.75625,
              "duration": 0.2375
            },
            {
              "pitch": 64,
              "velocity": 76,
              "position": 3.75,
              "duration": 0.26458333333333334
            },
            {
              "pitch": 55,
              "velocity": 116,
              "position": 4.002083333333333,
              "duration": 0.4395833333333333
            },
            {
              "pitch": 64,
              "velocity": 123,
              "position": 4.01875,
              "duration": 0.6270833333333333
            },
            {
              "pitch": 60,
              "velocity": 109,
              "position": 4.010416666666667,
              "duration": 0.65
            },
            {
              "pitch": 55,
              "velocity": 67,
              "position": 4.5,
              "duration": 0.22708333333333333
            },
            {
              "pitch": 55,
              "velocity": 127,
              "position": 4.764583333333333,
              "duration": 0.20208333333333334
            },
            {
              "pitch": 60,
              "velocity": 127,
              "position": 4.75625,
              "duration": 0.2375
            },
            {
              "pitch": 64,
              "velocity": 121,
              "position": 4.747916666666667,
              "duration": 0.2604166666666667
            },
            {
              "pitch": 64,
              "velocity": 101,
              "position": 5.016666666666667,
              "duration": 0.04583333333333333
            },
            {
              "pitch": 60,
              "velocity": 111,
              "position": 5.008333333333334,
              "duration": 0.058333333333333334
            },
            {
              "pitch": 55,
              "velocity": 104,
              "position": 5,
              "duration": 0.07708333333333334
            },
            {
              "pitch": 60,
              "velocity": 110,
              "position": 5.510416666666667,
              "duration": 0.6541666666666667
            },
            {
              "pitch": 55,
              "velocity": 120,
              "position": 5.502083333333333,
              "duration": 0.6791666666666667
            },
            {
              "pitch": 64,
              "velocity": 120,
              "position": 5.516666666666667,
              "duration": 0.9083333333333333
            },
            {
              "pitch": 55,
              "velocity": 76,
              "position": 6.25625,
              "duration": 0.20416666666666666
            },
            {
              "pitch": 60,
              "velocity": 77,
              "position": 6.25,
              "duration": 0.225
            },
            {
              "pitch": 55,
              "velocity": 114,
              "position": 6.5,
              "duration": 0.45416666666666666
            },
            {
              "pitch": 60,
              "velocity": 101,
              "position": 6.50625,
              "duration": 0.45625
            },
            {
              "pitch": 64,
              "velocity": 111,
              "position": 6.514583333333333,
              "duration": 0.4625
            },
            {
              "pitch": 64,
              "velocity": 105,
              "position": 7.016666666666667,
              "duration": 0.025
            },
            {
              "pitch": 60,
              "velocity": 121,
              "position": 7.008333333333334,
              "duration": 0.04583333333333333
            },
            {
              "pitch": 55,
              "velocity": 120,
              "position": 7,
              "duration": 0.058333333333333334
            },
            {
              "pitch": 55,
              "velocity": 103,
              "position": 7.2625,
              "duration": 0.6479166666666667
            },
            {
              "pitch": 60,
              "velocity": 91,
              "position": 7.254166666666666,
              "duration": 0.6583333333333333
            },
            {
              "pitch": 64,
              "velocity": 101,
              "position": 7.247916666666667,
              "duration": 0.6645833333333333
            },
            {
              "pitch": 55,
              "velocity": 111,
              "position": 8,
              "duration": 0.22083333333333333
            },
            {
              "pitch": 60,
              "velocity": 113,
              "position": 8.008333333333333,
              "duration": 0.4479166666666667
            },
            {
              "pitch": 55,
              "velocity": 67,
              "position": 8.252083333333333,
              "duration": 0.20833333333333334
            },
            {
              "pitch": 64,
              "velocity": 103,
              "position": 8.016666666666667,
              "duration": 0.6333333333333333
            },
            {
              "pitch": 60,
              "velocity": 74,
              "position": 8.508333333333333,
              "duration": 0.19375
            },
            {
              "pitch": 55,
              "velocity": 81,
              "position": 8.5,
              "duration": 0.2125
            },
            {
              "pitch": 55,
              "velocity": 113,
              "position": 8.7625,
              "duration": 0.21875
            },
            {
              "pitch": 60,
              "velocity": 105,
              "position": 8.75625,
              "duration": 0.23958333333333334
            },
            {
              "pitch": 64,
              "velocity": 117,
              "position": 8.747916666666667,
              "duration": 0.26666666666666666
            },
            {
              "pitch": 64,
              "velocity": 117,
              "position": 9.016666666666667,
              "duration": 0.04791666666666667
            },
            {
              "pitch": 60,
              "velocity": 125,
              "position": 9.008333333333333,
              "duration": 0.06041666666666667
            },
            {
              "pitch": 55,
              "velocity": 113,
              "position": 9,
              "duration": 0.075
            },
            {
              "pitch": 64,
              "velocity": 103,
              "position": 9.516666666666667,
              "duration": 0.6416666666666667
            },
            {
              "pitch": 60,
              "velocity": 103,
              "position": 9.508333333333333,
              "duration": 0.66875
            },
            {
              "pitch": 55,
              "velocity": 110,
              "position": 9.5,
              "duration": 0.68125
            },
            {
              "pitch": 55,
              "velocity": 59,
              "position": 10.2625,
              "duration": 0.22916666666666666
            },
            {
              "pitch": 60,
              "velocity": 69,
              "position": 10.25625,
              "duration": 0.24375
            },
            {
              "pitch": 64,
              "velocity": 63,
              "position": 10.247916666666667,
              "duration": 0.26875
            },
            {
              "pitch": 55,
              "velocity": 114,
              "position": 10.502083333333333,
              "duration": 0.19791666666666666
            },
            {
              "pitch": 60,
              "velocity": 96,
              "position": 10.510416666666666,
              "duration": 0.43333333333333335
            },
            {
              "pitch": 64,
              "velocity": 115,
              "position": 10.51875,
              "duration": 0.43125
            },
            {
              "pitch": 55,
              "velocity": 59,
              "position": 10.75,
              "duration": 0.2125
            },
            {
              "pitch": 55,
              "velocity": 116,
              "position": 11,
              "duration": 0.22708333333333333
            },
            {
              "pitch": 55,
              "velocity": 65,
              "position": 11.252083333333333,
              "duration": 0.22083333333333333
            },
            {
              "pitch": 60,
              "velocity": 120,
              "position": 11.008333333333333,
              "duration": 0.46458333333333335
            },
            {
              "pitch": 64,
              "velocity": 115,
              "position": 11.016666666666667,
              "duration": 0.46875
            },
            {
              "pitch": 60,
              "velocity": 121,
              "position": 11.510416666666666,
              "duration": 0.18958333333333333
            },
            {
              "pitch": 55,
              "velocity": 117,
              "position": 11.502083333333333,
              "duration": 0.21041666666666667
            },
            {
              "pitch": 64,
              "velocity": 109,
              "position": 11.51875,
              "duration": 0.39166666666666666
            },
            {
              "pitch": 55,
              "velocity": 107,
              "position": 11.758333333333333,
              "duration": 0.19166666666666668
            },
            {
              "pitch": 60,
              "velocity": 93,
              "position": 11.75,
              "duration": 0.2
            },
            {
              "pitch": 60,
              "velocity": 115,
              "position": 12.008333333333333,
              "duration": 0.45
            },
            {
              "pitch": 64,
              "velocity": 111,
              "position": 12.016666666666667,
              "duration": 0.45
            },
            {
              "pitch": 64,
              "velocity": 61,
              "position": 12.510416666666666,
              "duration": 0.17291666666666666
            },
            {
              "pitch": 55,
              "velocity": 100,
              "position": 12,
              "duration": 0.6916666666666667
            },
            {
              "pitch": 60,
              "velocity": 60,
              "position": 12.502083333333333,
              "duration": 0.19791666666666666
            },
            {
              "pitch": 55,
              "velocity": 101,
              "position": 12.764583333333333,
              "duration": 0.20833333333333334
            },
            {
              "pitch": 60,
              "velocity": 91,
              "position": 12.75625,
              "duration": 0.23541666666666666
            },
            {
              "pitch": 64,
              "velocity": 104,
              "position": 12.747916666666667,
              "duration": 0.25833333333333336
            },
            {
              "pitch": 64,
              "velocity": 116,
              "position": 13.016666666666667,
              "duration": 0.04583333333333333
            },
            {
              "pitch": 60,
              "velocity": 113,
              "position": 13.008333333333333,
              "duration": 0.05625
            },
            {
              "pitch": 55,
              "velocity": 100,
              "position": 13.002083333333333,
              "duration": 0.06875
            },
            {
              "pitch": 64,
              "velocity": 116,
              "position": 14.020833333333334,
              "duration": 0.6291666666666667
            },
            {
              "pitch": 60,
              "velocity": 115,
              "position": 14.0125,
              "duration": 0.65
            },
            {
              "pitch": 55,
              "velocity": 117,
              "position": 14.004166666666666,
              "duration": 0.6833333333333333
            },
            {
              "pitch": 55,
              "velocity": 127,
              "position": 14.766666666666667,
              "duration": 0.21458333333333332
            },
            {
              "pitch": 60,
              "velocity": 115,
              "position": 14.758333333333333,
              "duration": 0.23958333333333334
            },
            {
              "pitch": 64,
              "velocity": 127,
              "position": 14.75,
              "duration": 0.26666666666666666
            },
            {
              "pitch": 64,
              "velocity": 101,
              "position": 15.01875,
              "duration": 0.022916666666666665
            },
            {
              "pitch": 60,
              "velocity": 124,
              "position": 15.0125,
              "duration": 0.0375
            },
            {
              "pitch": 55,
              "velocity": 113,
              "position": 15.004166666666666,
              "duration": 0.04583333333333333
            }
          ]
        },
        "12": {
          "ctab": {
            "srcChannel": 12,
            "name": "mutedgtr",
            "accType": "CHORD2",
            "editable": false,
            "mutedNotes": [],
            "mutedChords": [],
            "autoStart": false,
            "sourceChordNote": 0,
            "sourceChordType": "Maj",
            "ctb2Low": null,
            "ctb2Main": {
              "ntr": "ROOT_FIXED",
              "ntt": "CHORD",
              "bassOn": false,
              "chordRootUpperLimit": 3,
              "noteLowLimit": 0,
              "noteHighLimit": 127,
              "rtr": "PITCH_SHIFT"
            },
            "ctb2High": null
          },
          "notes": [
            {
              "pitch": 55,
              "velocity": 83,
              "position": 0,
              "duration": 3.6104166666666666
            },
            {
              "pitch": 60,
              "velocity": 93,
              "position": 0.05416666666666667,
              "duration": 3.6104166666666666
            },
            {
              "pitch": 64,
              "velocity": 93,
              "position": 0.13541666666666666,
              "duration": 3.6104166666666666
            },
            {
              "pitch": 55,
              "velocity": 95,
              "position": 3.9770833333333333,
              "duration": 1.44375
            },
            {
              "pitch": 60,
              "velocity": 98,
              "position": 4.010416666666667,
              "duration": 1.4229166666666666
            },
            {
              "pitch": 64,
              "velocity": 92,
              "position": 4.035416666666666,
              "duration": 1.44375
            },
            {
              "pitch": 55,
              "velocity": 80,
              "position": 5.441666666666666,
              "duration": 2.3916666666666666
            },
            {
              "pitch": 60,
              "velocity": 98,
              "position": 5.454166666666667,
              "duration": 2.379166666666667
            },
            {
              "pitch": 64,
              "velocity": 101,
              "position": 5.4875,
              "duration": 2.345833333333333
            },
            {
              "pitch": 55,
              "velocity": 95,
              "position": 7.952083333333333,
              "duration": 1.5270833333333333
            },
            {
              "pitch": 60,
              "velocity": 104,
              "position": 7.966666666666667,
              "duration": 1.525
            },
            {
              "pitch": 64,
              "velocity": 104,
              "position": 7.991666666666666,
              "duration": 1.5083333333333333
            },
            {
              "pitch": 55,
              "velocity": 95,
              "position": 9.5,
              "duration": 2.3333333333333335
            },
            {
              "pitch": 60,
              "velocity": 104,
              "position": 9.5125,
              "duration": 2.3208333333333333
            },
            {
              "pitch": 64,
              "velocity": 101,
              "position": 9.535416666666666,
              "duration": 2.2979166666666666
            },
            {
              "pitch": 64,
              "velocity": 124,
              "position": 12,
              "duration": 0.7291666666666666
            },
            {
              "pitch": 60,
              "velocity": 114,
              "position": 12.729166666666666,
              "duration": 0.7229166666666667
            },
            {
              "pitch": 55,
              "velocity": 95,
              "position": 13.452083333333333,
              "duration": 0.5333333333333333
            },
            {
              "pitch": 64,
              "velocity": 127,
              "position": 13.985416666666667,
              "duration": 0.7583333333333333
            },
            {
              "pitch": 60,
              "velocity": 121,
              "position": 14.74375,
              "duration": 0.7333333333333333
            },
            {
              "pitch": 55,
              "velocity": 104,
              "position": 15.477083333333333,
              "duration": 0.5020833333333333
            }
          ]
        },
        "13": {
          "ctab": {
            "srcChannel": 13,
            "name": "gtr",
            "accType": "PAD",
            "editable": false,
            "mutedNotes": [],
            "mutedChords": [],
            "autoStart": false,
            "sourceChordNote": 0,
            "sourceChordType": "Maj",
            "ctb2Low": null,
            "ctb2Main": {
              "ntr": "ROOT_TRANSPOSITION",
              "ntt": "MELODY",
              "bassOn": true,
              "chordRootUpperLimit": 6,
              "noteLowLimit": 56,
              "noteHighLimit": 69,
              "rtr": "PITCH_SHIFT"
            },
            "ctb2High": null
          },
          "notes": [
            {
              "pitch": 60,
              "velocity": 94,
              "position": 0,
              "duration": 3.872916666666667
            },
            {
              "pitch": 64,
              "velocity": 94,
              "position": 0,
              "duration": 3.872916666666667
            },
            {
              "pitch": 55,
              "velocity": 94,
              "position": 0,
              "duration": 3.875
            },
            {
              "pitch": 55,
              "velocity": 94,
              "position": 4,
              "duration": 1.375
            },
            {
              "pitch": 60,
              "velocity": 94,
              "position": 4,
              "duration": 1.375
            },
            {
              "pitch": 64,
              "velocity": 94,
              "position": 4,
              "duration": 1.375
            },
            {
              "pitch": 55,
              "velocity": 94,
              "position": 5.5,
              "duration": 1.6208333333333333
            },
            {
              "pitch": 60,
              "velocity": 94,
              "position": 5.5,
              "duration": 1.6229166666666666
            },
            {
              "pitch": 64,
              "velocity": 94,
              "position": 5.5,
              "duration": 1.6229166666666666
            },
            {
              "pitch": 55,
              "velocity": 94,
              "position": 7.25,
              "duration": 0.625
            },
            {
              "pitch": 60,
              "velocity": 94,
              "position": 7.25,
              "duration": 0.625
            },
            {
              "pitch": 64,
              "velocity": 94,
              "position": 7.25,
              "duration": 0.625
            },
            {
              "pitch": 55,
              "velocity": 94,
              "position": 8,
              "duration": 3.877083333333333
            },
            {
              "pitch": 60,
              "velocity": 94,
              "position": 8,
              "duration": 3.877083333333333
            },
            {
              "pitch": 64,
              "velocity": 94,
              "position": 8,
              "duration": 3.877083333333333
            },
            {
              "pitch": 60,
              "velocity": 94,
              "position": 12,
              "duration": 1.8708333333333333
            },
            {
              "pitch": 55,
              "velocity": 94,
              "position": 12,
              "duration": 1.8729166666666666
            },
            {
              "pitch": 64,
              "velocity": 94,
              "position": 12,
              "duration": 1.8729166666666666
            },
            {
              "pitch": 64,
              "velocity": 94,
              "position": 14,
              "duration": 1.8729166666666666
            },
            {
              "pitch": 60,
              "velocity": 94,
              "position": 14,
              "duration": 1.875
            },
            {
              "pitch": 55,
              "velocity": 94,
              "position": 14,
              "duration": 1.8770833333333334
            }
          ]
        },
        "14": {
          "ctab": {
            "srcChannel": 14,
            "name": "dist",
            "accType": "PHRASE1",
            "editable": false,
            "mutedNotes": [],
            "mutedChords": [],
            "autoStart": false,
            "sourceChordNote": 0,
            "sourceChordType": "Maj",
            "ctb2Low": null,
            "ctb2Main": {
              "ntr": "ROOT_FIXED",
              "ntt": "CHORD",
              "bassOn": false,
              "chordRootUpperLimit": 4,
              "noteLowLimit": 0,
              "noteHighLimit": 127,
              "rtr": "PITCH_SHIFT"
            },
            "ctb2High": null
          },
          "notes": []
        },
        "15": {
          "ctab": {
            "srcChannel": 15,
            "name": "overdr",
            "accType": "PHRASE2",
            "editable": false,
            "mutedNotes": [],
            "mutedChords": [],
            "autoStart": false,
            "sourceChordNote": 0,
            "sourceChordType": "Maj",
            "ctb2Low": null,
            "ctb2Main": {
              "ntr": "ROOT_TRANSPOSITION",
              "ntt": "MELODY",
              "bassOn": true,
              "chordRootUpperLimit": 4,
              "noteLowLimit": 0,
              "noteHighLimit": 127,
              "rtr": "PITCH_SHIFT"
            },
            "ctb2High": null
          },
          "notes": [
            {
              "pitch": 48,
              "velocity": 69,
              "position": 2.752083333333333,
              "duration": 0.020833333333333332
            },
            {
              "pitch": 55,
              "velocity": 53,
              "position": 2.779166666666667,
              "duration": 0.004166666666666667
            },
            {
              "pitch": 48,
              "velocity": 72,
              "position": 3.75,
              "duration": 0.00625
            },
            {
              "pitch": 55,
              "velocity": 56,
              "position": 3.76875,
              "duration": 0.010416666666666666
            },
            {
              "pitch": 48,
              "velocity": 99,
              "position": 3.96875,
              "duration": 2.7625
            },
            {
              "pitch": 55,
              "velocity": 71,
              "position": 6.752083333333333,
              "duration": 0.0125
            },
            {
              "pitch": 48,
              "velocity": 77,
              "position": 6.741666666666666,
              "duration": 0.21041666666666667
            },
            {
              "pitch": 48,
              "velocity": 81,
              "position": 7.741666666666666,
              "duration": 0.00625
            },
            {
              "pitch": 55,
              "velocity": 62,
              "position": 7.7625,
              "duration": 0.010416666666666666
            },
            {
              "pitch": 48,
              "velocity": 74,
              "position": 10.75625,
              "duration": 0.008333333333333333
            },
            {
              "pitch": 55,
              "velocity": 57,
              "position": 10.775,
              "duration": 0.004166666666666667
            },
            {
              "pitch": 48,
              "velocity": 74,
              "position": 11.75,
              "duration": 0.008333333333333333
            },
            {
              "pitch": 55,
              "velocity": 57,
              "position": 11.777083333333334,
              "duration": 0.004166666666666667
            },
            {
              "pitch": 48,
              "velocity": 69,
              "position": 14.752083333333333,
              "duration": 0.008333333333333333
            },
            {
              "pitch": 55,
              "velocity": 56,
              "position": 14.777083333333334,
              "duration": 0.008333333333333333
            },
            {
              "pitch": 55,
              "velocity": 76,
              "position": 15.016666666666667,
              "duration": 0.70625
            },
            {
              "pitch": 48,
              "velocity": 70,
              "position": 15.74375,
              "duration": 0.010416666666666666
            },
            {
              "pitch": 55,
              "velocity": 57,
              "position": 15.764583333333333,
              "duration": 0.22291666666666668
            }
          ]
        }
      }
    },
    "Main_C": {
      "type": "Main_C",
      "sizeInBeats": 16,
      "channels": {
        "8": {
          "ctab": {
            "srcChannel": 8,
            "name": "add-drum",
            "accType": "SUBRHYTHM",
            "editable": false,
            "mutedNotes": [],
            "mutedChords": [],
            "autoStart": true,
            "sourceChordNote": 0,
            "sourceChordType": "Maj7",
            "ctb2Low": null,
            "ctb2Main": {
              "ntr": "ROOT_FIXED",
              "ntt": "BYPASS",
              "bassOn": false,
              "chordRootUpperLimit": 6,
              "noteLowLimit": 0,
              "noteHighLimit": 127,
              "rtr": "PITCH_SHIFT"
            },
            "ctb2High": null
          },
          "notes": [
            {
              "pitch": 54,
              "velocity": 69,
              "position": 0.004166666666666667,
              "duration": 0.010416666666666666
            },
            {
              "pitch": 54,
              "velocity": 37,
              "position": 0.275,
              "duration": 0.010416666666666666
            },
            {
              "pitch": 54,
              "velocity": 46,
              "position": 0.5083333333333333,
              "duration": 0.010416666666666666
            },
            {
              "pitch": 54,
              "velocity": 37,
              "position": 0.7625,
              "duration": 0.010416666666666666
            },
            {
              "pitch": 54,
              "velocity": 69,
              "position": 0.9979166666666667,
              "duration": 0.010416666666666666
            },
            {
              "pitch": 54,
              "velocity": 33,
              "position": 1.2645833333333334,
              "duration": 0.010416666666666666
            },
            {
              "pitch": 54,
              "velocity": 48,
              "position": 1.5020833333333334,
              "duration": 0.010416666666666666
            },
            {
              "pitch": 54,
              "velocity": 29,
              "position": 1.7604166666666667,
              "duration": 0.010416666666666666
            },
            {
              "pitch": 54,
              "velocity": 44,
              "position": 2.004166666666667,
              "duration": 0.010416666666666666
            },
            {
              "pitch": 54,
              "velocity": 42,
              "position": 2.275,
              "duration": 0.010416666666666666
            },
            {
              "pitch": 54,
              "velocity": 42,
              "position": 2.502083333333333,
              "duration": 0.010416666666666666
            },
            {
              "pitch": 54,
              "velocity": 34,
              "position": 2.752083333333333,
              "duration": 0.010416666666666666
            },
            {
              "pitch": 54,
              "velocity": 70,
              "position": 3.00625,
              "duration": 0.010416666666666666
            },
            {
              "pitch": 54,
              "velocity": 44,
              "position": 3.26875,
              "duration": 0.010416666666666666
            },
            {
              "pitch": 54,
              "velocity": 41,
              "position": 3.502083333333333,
              "duration": 0.010416666666666666
            },
            {
              "pitch": 54,
              "velocity": 42,
              "position": 3.754166666666667,
              "duration": 0.010416666666666666
            },
            {
              "pitch": 54,
              "velocity": 48,
              "position": 4.008333333333334,
              "duration": 0.010416666666666666
            },
            {
              "pitch": 54,
              "velocity": 36,
              "position": 4.270833333333333,
              "duration": 0.010416666666666666
            },
            {
              "pitch": 54,
              "velocity": 46,
              "position": 4.49375,
              "duration": 0.010416666666666666
            },
            {
              "pitch": 54,
              "velocity": 20,
              "position": 4.760416666666667,
              "duration": 0.010416666666666666
            },
            {
              "pitch": 54,
              "velocity": 71,
              "position": 5.00625,
              "duration": 0.010416666666666666
            },
            {
              "pitch": 54,
              "velocity": 39,
              "position": 5.266666666666667,
              "duration": 0.010416666666666666
            },
            {
              "pitch": 54,
              "velocity": 46,
              "position": 5.508333333333334,
              "duration": 0.010416666666666666
            },
            {
              "pitch": 54,
              "velocity": 34,
              "position": 5.772916666666666,
              "duration": 0.010416666666666666
            },
            {
              "pitch": 54,
              "velocity": 48,
              "position": 6.002083333333333,
              "duration": 0.010416666666666666
            },
            {
              "pitch": 54,
              "velocity": 47,
              "position": 6.258333333333334,
              "duration": 0.010416666666666666
            },
            {
              "pitch": 54,
              "velocity": 43,
              "position": 6.495833333333334,
              "duration": 0.010416666666666666
            },
            {
              "pitch": 54,
              "velocity": 38,
              "position": 6.760416666666667,
              "duration": 0.010416666666666666
            },
            {
              "pitch": 54,
              "velocity": 70,
              "position": 7.010416666666667,
              "duration": 0.010416666666666666
            },
            {
              "pitch": 54,
              "velocity": 34,
              "position": 7.266666666666667,
              "duration": 0.010416666666666666
            },
            {
              "pitch": 54,
              "velocity": 39,
              "position": 7.5,
              "duration": 0.010416666666666666
            },
            {
              "pitch": 54,
              "velocity": 42,
              "position": 7.760416666666667,
              "duration": 0.010416666666666666
            },
            {
              "pitch": 54,
              "velocity": 44,
              "position": 8,
              "duration": 0.010416666666666666
            },
            {
              "pitch": 54,
              "velocity": 41,
              "position": 8.26875,
              "duration": 0.010416666666666666
            },
            {
              "pitch": 54,
              "velocity": 40,
              "position": 8.508333333333333,
              "duration": 0.010416666666666666
            },
            {
              "pitch": 54,
              "velocity": 37,
              "position": 8.766666666666667,
              "duration": 0.010416666666666666
            },
            {
              "pitch": 54,
              "velocity": 75,
              "position": 9.004166666666666,
              "duration": 0.010416666666666666
            },
            {
              "pitch": 54,
              "velocity": 39,
              "position": 9.275,
              "duration": 0.010416666666666666
            },
            {
              "pitch": 54,
              "velocity": 39,
              "position": 9.502083333333333,
              "duration": 0.010416666666666666
            },
            {
              "pitch": 54,
              "velocity": 38,
              "position": 9.766666666666667,
              "duration": 0.010416666666666666
            },
            {
              "pitch": 54,
              "velocity": 54,
              "position": 10.008333333333333,
              "duration": 0.010416666666666666
            },
            {
              "pitch": 54,
              "velocity": 37,
              "position": 10.277083333333334,
              "duration": 0.010416666666666666
            },
            {
              "pitch": 54,
              "velocity": 40,
              "position": 10.5,
              "duration": 0.010416666666666666
            },
            {
              "pitch": 54,
              "velocity": 44,
              "position": 10.76875,
              "duration": 0.010416666666666666
            },
            {
              "pitch": 54,
              "velocity": 77,
              "position": 11.0125,
              "duration": 0.010416666666666666
            },
            {
              "pitch": 54,
              "velocity": 44,
              "position": 11.28125,
              "duration": 0.010416666666666666
            },
            {
              "pitch": 54,
              "velocity": 45,
              "position": 11.51875,
              "duration": 0.010416666666666666
            },
            {
              "pitch": 54,
              "velocity": 33,
              "position": 11.766666666666667,
              "duration": 0.010416666666666666
            },
            {
              "pitch": 54,
              "velocity": 51,
              "position": 12.008333333333333,
              "duration": 0.010416666666666666
            },
            {
              "pitch": 54,
              "velocity": 35,
              "position": 12.270833333333334,
              "duration": 0.010416666666666666
            },
            {
              "pitch": 54,
              "velocity": 44,
              "position": 12.50625,
              "duration": 0.010416666666666666
            },
            {
              "pitch": 54,
              "velocity": 36,
              "position": 12.7625,
              "duration": 0.010416666666666666
            },
            {
              "pitch": 54,
              "velocity": 71,
              "position": 12.997916666666667,
              "duration": 0.010416666666666666
            },
            {
              "pitch": 54,
              "velocity": 36,
              "position": 13.264583333333333,
              "duration": 0.010416666666666666
            },
            {
              "pitch": 54,
              "velocity": 50,
              "position": 13.49375,
              "duration": 0.010416666666666666
            },
            {
              "pitch": 54,
              "velocity": 31,
              "position": 13.75625,
              "duration": 0.010416666666666666
            },
            {
              "pitch": 54,
              "velocity": 52,
              "position": 14.002083333333333,
              "duration": 0.010416666666666666
            },
            {
              "pitch": 54,
              "velocity": 41,
              "position": 14.264583333333333,
              "duration": 0.010416666666666666
            },
            {
              "pitch": 54,
              "velocity": 42,
              "position": 14.504166666666666,
              "duration": 0.010416666666666666
            },
            {
              "pitch": 54,
              "velocity": 34,
              "position": 14.754166666666666,
              "duration": 0.010416666666666666
            },
            {
              "pitch": 54,
              "velocity": 68,
              "position": 15.002083333333333,
              "duration": 0.010416666666666666
            },
            {
              "pitch": 54,
              "velocity": 45,
              "position": 15.266666666666667,
              "duration": 0.010416666666666666
            },
            {
              "pitch": 54,
              "velocity": 39,
              "position": 15.502083333333333,
              "duration": 0.010416666666666666
            },
            {
              "pitch": 54,
              "velocity": 42,
              "position": 15.75625,
              "duration": 0.010416666666666666
            }
          ]
        },
        "9": {
          "ctab": {
            "srcChannel": 9,
            "name": "main-dru",
            "accType": "RHYTHM",
            "editable": false,
            "mutedNotes": [],
            "mutedChords": [],
            "autoStart": true,
            "sourceChordNote": 0,
            "sourceChordType": "Maj7",
            "ctb2Low": null,
            "ctb2Main": {
              "ntr": "ROOT_FIXED",
              "ntt": "BYPASS",
              "bassOn": false,
              "chordRootUpperLimit": 6,
              "noteLowLimit": 0,
              "noteHighLimit": 127,
              "rtr": "PITCH_SHIFT"
            },
            "ctb2High": null
          },
          "notes": [
            {
              "pitch": 36,
              "velocity": 106,
              "position": 0,
              "duration": 0.010416666666666666
            },
            {
              "pitch": 42,
              "velocity": 74,
              "position": 0,
              "duration": 0.010416666666666666
            },
            {
              "pitch": 42,
              "velocity": 70,
              "position": 0.5,
              "duration": 0.010416666666666666
            },
            {
              "pitch": 40,
              "velocity": 89,
              "position": 1,
              "duration": 0.010416666666666666
            },
            {
              "pitch": 42,
              "velocity": 72,
              "position": 1,
              "duration": 0.010416666666666666
            },
            {
              "pitch": 42,
              "velocity": 71,
              "position": 1.5,
              "duration": 0.010416666666666666
            },
            {
              "pitch": 36,
              "velocity": 106,
              "position": 2,
              "duration": 0.010416666666666666
            },
            {
              "pitch": 42,
              "velocity": 75,
              "position": 2,
              "duration": 0.010416666666666666
            },
            {
              "pitch": 42,
              "velocity": 71,
              "position": 2.5,
              "duration": 0.010416666666666666
            },
            {
              "pitch": 36,
              "velocity": 92,
              "position": 2.775,
              "duration": 0.010416666666666666
            },
            {
              "pitch": 40,
              "velocity": 88,
              "position": 3,
              "duration": 0.010416666666666666
            },
            {
              "pitch": 42,
              "velocity": 69,
              "position": 3,
              "duration": 0.010416666666666666
            },
            {
              "pitch": 42,
              "velocity": 73,
              "position": 3.5,
              "duration": 0.010416666666666666
            },
            {
              "pitch": 36,
              "velocity": 97,
              "position": 3.775,
              "duration": 0.010416666666666666
            },
            {
              "pitch": 36,
              "velocity": 100,
              "position": 4,
              "duration": 0.010416666666666666
            },
            {
              "pitch": 42,
              "velocity": 74,
              "position": 4,
              "duration": 0.010416666666666666
            },
            {
              "pitch": 42,
              "velocity": 77,
              "position": 4.5,
              "duration": 0.010416666666666666
            },
            {
              "pitch": 40,
              "velocity": 86,
              "position": 5,
              "duration": 0.010416666666666666
            },
            {
              "pitch": 42,
              "velocity": 69,
              "position": 5,
              "duration": 0.010416666666666666
            },
            {
              "pitch": 42,
              "velocity": 79,
              "position": 5.5,
              "duration": 0.010416666666666666
            },
            {
              "pitch": 36,
              "velocity": 106,
              "position": 6,
              "duration": 0.010416666666666666
            },
            {
              "pitch": 42,
              "velocity": 73,
              "position": 6,
              "duration": 0.010416666666666666
            },
            {
              "pitch": 42,
              "velocity": 76,
              "position": 6.5,
              "duration": 0.010416666666666666
            },
            {
              "pitch": 36,
              "velocity": 84,
              "position": 6.775,
              "duration": 0.010416666666666666
            },
            {
              "pitch": 40,
              "velocity": 88,
              "position": 7,
              "duration": 0.010416666666666666
            },
            {
              "pitch": 42,
              "velocity": 80,
              "position": 7,
              "duration": 0.010416666666666666
            },
            {
              "pitch": 42,
              "velocity": 71,
              "position": 7.5,
              "duration": 0.010416666666666666
            },
            {
              "pitch": 36,
              "velocity": 75,
              "position": 7.775,
              "duration": 0.010416666666666666
            },
            {
              "pitch": 36,
              "velocity": 106,
              "position": 8,
              "duration": 0.010416666666666666
            },
            {
              "pitch": 42,
              "velocity": 76,
              "position": 8,
              "duration": 0.010416666666666666
            },
            {
              "pitch": 42,
              "velocity": 73,
              "position": 8.5,
              "duration": 0.010416666666666666
            },
            {
              "pitch": 40,
              "velocity": 89,
              "position": 9,
              "duration": 0.010416666666666666
            },
            {
              "pitch": 42,
              "velocity": 75,
              "position": 9,
              "duration": 0.010416666666666666
            },
            {
              "pitch": 42,
              "velocity": 73,
              "position": 9.5,
              "duration": 0.010416666666666666
            },
            {
              "pitch": 36,
              "velocity": 106,
              "position": 10,
              "duration": 0.010416666666666666
            },
            {
              "pitch": 42,
              "velocity": 71,
              "position": 10,
              "duration": 0.010416666666666666
            },
            {
              "pitch": 42,
              "velocity": 71,
              "position": 10.5,
              "duration": 0.010416666666666666
            },
            {
              "pitch": 36,
              "velocity": 98,
              "position": 10.775,
              "duration": 0.010416666666666666
            },
            {
              "pitch": 40,
              "velocity": 87,
              "position": 11,
              "duration": 0.010416666666666666
            },
            {
              "pitch": 42,
              "velocity": 74,
              "position": 11,
              "duration": 0.010416666666666666
            },
            {
              "pitch": 42,
              "velocity": 74,
              "position": 11.5,
              "duration": 0.010416666666666666
            },
            {
              "pitch": 36,
              "velocity": 73,
              "position": 11.775,
              "duration": 0.010416666666666666
            },
            {
              "pitch": 36,
              "velocity": 104,
              "position": 12,
              "duration": 0.010416666666666666
            },
            {
              "pitch": 42,
              "velocity": 71,
              "position": 12,
              "duration": 0.010416666666666666
            },
            {
              "pitch": 42,
              "velocity": 69,
              "position": 12.5,
              "duration": 0.010416666666666666
            },
            {
              "pitch": 40,
              "velocity": 87,
              "position": 13,
              "duration": 0.010416666666666666
            },
            {
              "pitch": 42,
              "velocity": 74,
              "position": 13,
              "duration": 0.010416666666666666
            },
            {
              "pitch": 42,
              "velocity": 73,
              "position": 13.5,
              "duration": 0.010416666666666666
            },
            {
              "pitch": 36,
              "velocity": 106,
              "position": 14,
              "duration": 0.010416666666666666
            },
            {
              "pitch": 42,
              "velocity": 72,
              "position": 14,
              "duration": 0.010416666666666666
            },
            {
              "pitch": 42,
              "velocity": 71,
              "position": 14.5,
              "duration": 0.010416666666666666
            },
            {
              "pitch": 36,
              "velocity": 100,
              "position": 14.775,
              "duration": 0.010416666666666666
            },
            {
              "pitch": 40,
              "velocity": 88,
              "position": 15,
              "duration": 0.010416666666666666
            },
            {
              "pitch": 46,
              "velocity": 71,
              "position": 15.5,
              "duration": 0.010416666666666666
            },
            {
              "pitch": 36,
              "velocity": 95,
              "position": 15.775,
              "duration": 0.010416666666666666
            }
          ]
        },
        "10": {
          "ctab": {
            "srcChannel": 10,
            "name": "Bass",
            "accType": "BASS",
            "editable": false,
            "mutedNotes": [],
            "mutedChords": [],
            "autoStart": false,
            "sourceChordNote": 0,
            "sourceChordType": "Maj7",
            "ctb2Low": null,
            "ctb2Main": {
              "ntr": "ROOT_TRANSPOSITION",
              "ntt": "MELODY",
              "bassOn": true,
              "chordRootUpperLimit": 3,
              "noteLowLimit": 28,
              "noteHighLimit": 127,
              "rtr": "PITCH_SHIFT_TO_ROOT"
            },
            "ctb2High": null
          },
          "notes": [
            {
              "pitch": 24,
              "velocity": 60,
              "position": 0,
              "duration": 0.7416666666666667
            },
            {
              "pitch": 24,
              "velocity": 60,
              "position": 0.75,
              "duration": 0.6958333333333333
            },
            {
              "pitch": 24,
              "velocity": 60,
              "position": 1.5,
              "duration": 0.7375
            },
            {
              "pitch": 24,
              "velocity": 60,
              "position": 2.25,
              "duration": 0.46458333333333335
            },
            {
              "pitch": 31,
              "velocity": 60,
              "position": 2.75,
              "duration": 0.14375
            },
            {
              "pitch": 31,
              "velocity": 60,
              "position": 3,
              "duration": 0.46458333333333335
            },
            {
              "pitch": 28,
              "velocity": 60,
              "position": 3.5,
              "duration": 0.15833333333333333
            },
            {
              "pitch": 31,
              "velocity": 60,
              "position": 3.75,
              "duration": 0.1625
            },
            {
              "pitch": 24,
              "velocity": 60,
              "position": 4,
              "duration": 0.7416666666666667
            },
            {
              "pitch": 24,
              "velocity": 60,
              "position": 4.75,
              "duration": 0.6958333333333333
            },
            {
              "pitch": 24,
              "velocity": 60,
              "position": 5.5,
              "duration": 0.7375
            },
            {
              "pitch": 24,
              "velocity": 60,
              "position": 6.25,
              "duration": 0.46458333333333335
            },
            {
              "pitch": 31,
              "velocity": 60,
              "position": 6.75,
              "duration": 0.14375
            },
            {
              "pitch": 31,
              "velocity": 60,
              "position": 7,
              "duration": 0.46458333333333335
            },
            {
              "pitch": 28,
              "velocity": 60,
              "position": 7.5,
              "duration": 0.15833333333333333
            },
            {
              "pitch": 31,
              "velocity": 60,
              "position": 7.75,
              "duration": 0.1625
            },
            {
              "pitch": 24,
              "velocity": 60,
              "position": 8,
              "duration": 0.7416666666666667
            },
            {
              "pitch": 24,
              "velocity": 60,
              "position": 8.75,
              "duration": 0.6958333333333333
            },
            {
              "pitch": 24,
              "velocity": 60,
              "position": 9.5,
              "duration": 0.7375
            },
            {
              "pitch": 24,
              "velocity": 60,
              "position": 10.25,
              "duration": 0.46458333333333335
            },
            {
              "pitch": 31,
              "velocity": 60,
              "position": 10.75,
              "duration": 0.14375
            },
            {
              "pitch": 31,
              "velocity": 60,
              "position": 11,
              "duration": 0.46458333333333335
            },
            {
              "pitch": 28,
              "velocity": 60,
              "position": 11.5,
              "duration": 0.15833333333333333
            },
            {
              "pitch": 31,
              "velocity": 60,
              "position": 11.75,
              "duration": 0.1625
            },
            {
              "pitch": 24,
              "velocity": 60,
              "position": 12,
              "duration": 0.7416666666666667
            },
            {
              "pitch": 24,
              "velocity": 60,
              "position": 12.75,
              "duration": 0.6958333333333333
            },
            {
              "pitch": 24,
              "velocity": 60,
              "position": 13.5,
              "duration": 0.7375
            },
            {
              "pitch": 24,
              "velocity": 60,
              "position": 14.25,
              "duration": 0.46458333333333335
            },
            {
              "pitch": 31,
              "velocity": 60,
              "position": 14.75,
              "duration": 0.14375
            },
            {
              "pitch": 31,
              "velocity": 60,
              "position": 15,
              "duration": 0.46458333333333335
            },
            {
              "pitch": 28,
              "velocity": 60,
              "position": 15.5,
              "duration": 0.15833333333333333
            },
            {
              "pitch": 31,
              "velocity": 60,
              "position": 15.75,
              "duration": 0.1625
            }
          ]
        },
        "11": {
          "ctab": {
            "srcChannel": 11,
            "name": "piano",
            "accType": "CHORD1",
            "editable": false,
            "mutedNotes": [],
            "mutedChords": [],
            "autoStart": false,
            "sourceChordNote": 0,
            "sourceChordType": "Maj",
            "ctb2Low": null,
            "ctb2Main": {
              "ntr": "ROOT_FIXED",
              "ntt": "CHORD",
              "bassOn": false,
              "chordRootUpperLimit": 9,
              "noteLowLimit": 0,
              "noteHighLimit": 127,
              "rtr": "PITCH_SHIFT"
            },
            "ctb2High": null
          },
          "notes": [
            {
              "pitch": 60,
              "velocity": 111,
              "position": 0.008333333333333333,
              "duration": 0.19375
            },
            {
              "pitch": 55,
              "velocity": 120,
              "position": 0.0020833333333333333,
              "duration": 0.20833333333333334
            },
            {
              "pitch": 64,
              "velocity": 125,
              "position": 0.016666666666666666,
              "duration": 0.4375
            },
            {
              "pitch": 55,
              "velocity": 87,
              "position": 0.25625,
              "duration": 0.21041666666666667
            },
            {
              "pitch": 60,
              "velocity": 79,
              "position": 0.25,
              "duration": 0.225
            },
            {
              "pitch": 64,
              "velocity": 87,
              "position": 0.5145833333333333,
              "duration": 0.17708333333333334
            },
            {
              "pitch": 60,
              "velocity": 61,
              "position": 0.5083333333333333,
              "duration": 0.19583333333333333
            },
            {
              "pitch": 55,
              "velocity": 66,
              "position": 0.5,
              "duration": 0.225
            },
            {
              "pitch": 55,
              "velocity": 127,
              "position": 0.7625,
              "duration": 0.20625
            },
            {
              "pitch": 60,
              "velocity": 127,
              "position": 0.7541666666666667,
              "duration": 0.23541666666666666
            },
            {
              "pitch": 64,
              "velocity": 124,
              "position": 0.7479166666666667,
              "duration": 0.4375
            },
            {
              "pitch": 60,
              "velocity": 83,
              "position": 1.0083333333333333,
              "duration": 0.18958333333333333
            },
            {
              "pitch": 55,
              "velocity": 78,
              "position": 1,
              "duration": 0.21666666666666667
            },
            {
              "pitch": 55,
              "velocity": 83,
              "position": 1.2604166666666667,
              "duration": 0.22291666666666668
            },
            {
              "pitch": 60,
              "velocity": 80,
              "position": 1.2541666666666667,
              "duration": 0.24791666666666667
            },
            {
              "pitch": 64,
              "velocity": 127,
              "position": 1.5166666666666666,
              "duration": 0.004166666666666667
            },
            {
              "pitch": 60,
              "velocity": 118,
              "position": 1.5083333333333333,
              "duration": 0.1875
            },
            {
              "pitch": 55,
              "velocity": 127,
              "position": 1.5020833333333334,
              "duration": 0.21041666666666667
            },
            {
              "pitch": 55,
              "velocity": 96,
              "position": 1.75625,
              "duration": 0.2125
            },
            {
              "pitch": 60,
              "velocity": 87,
              "position": 1.75,
              "duration": 0.2375
            },
            {
              "pitch": 64,
              "velocity": 88,
              "position": 2.0166666666666666,
              "duration": 0.16666666666666666
            },
            {
              "pitch": 60,
              "velocity": 90,
              "position": 2.0083333333333333,
              "duration": 0.19791666666666666
            },
            {
              "pitch": 55,
              "velocity": 94,
              "position": 2,
              "duration": 0.22083333333333333
            },
            {
              "pitch": 55,
              "velocity": 125,
              "position": 2.2625,
              "duration": 0.20833333333333334
            },
            {
              "pitch": 60,
              "velocity": 127,
              "position": 2.25625,
              "duration": 0.21875
            },
            {
              "pitch": 64,
              "velocity": 127,
              "position": 2.247916666666667,
              "duration": 0.42291666666666666
            },
            {
              "pitch": 55,
              "velocity": 85,
              "position": 2.5,
              "duration": 0.17291666666666666
            },
            {
              "pitch": 60,
              "velocity": 74,
              "position": 2.50625,
              "duration": 0.16875
            },
            {
              "pitch": 55,
              "velocity": 88,
              "position": 2.75,
              "duration": 0.21875
            },
            {
              "pitch": 55,
              "velocity": 127,
              "position": 3.002083333333333,
              "duration": 0.20416666666666666
            },
            {
              "pitch": 60,
              "velocity": 127,
              "position": 3.0083333333333333,
              "duration": 0.44583333333333336
            },
            {
              "pitch": 64,
              "velocity": 113,
              "position": 3.0145833333333334,
              "duration": 0.44583333333333336
            },
            {
              "pitch": 55,
              "velocity": 65,
              "position": 3.25,
              "duration": 0.225
            },
            {
              "pitch": 64,
              "velocity": 85,
              "position": 3.5145833333333334,
              "duration": 0.17291666666666666
            },
            {
              "pitch": 55,
              "velocity": 91,
              "position": 3.502083333333333,
              "duration": 0.1875
            },
            {
              "pitch": 60,
              "velocity": 103,
              "position": 3.5083333333333333,
              "duration": 0.18125
            },
            {
              "pitch": 55,
              "velocity": 98,
              "position": 3.7604166666666665,
              "duration": 0.22291666666666668
            },
            {
              "pitch": 60,
              "velocity": 106,
              "position": 3.754166666666667,
              "duration": 0.24166666666666667
            },
            {
              "pitch": 64,
              "velocity": 94,
              "position": 3.745833333333333,
              "duration": 0.25625
            },
            {
              "pitch": 64,
              "velocity": 110,
              "position": 4.014583333333333,
              "duration": 0.17291666666666666
            },
            {
              "pitch": 60,
              "velocity": 121,
              "position": 4.008333333333334,
              "duration": 0.18958333333333333
            },
            {
              "pitch": 55,
              "velocity": 120,
              "position": 4,
              "duration": 0.21458333333333332
            },
            {
              "pitch": 55,
              "velocity": 66,
              "position": 4.260416666666667,
              "duration": 0.2125
            },
            {
              "pitch": 60,
              "velocity": 79,
              "position": 4.254166666666666,
              "duration": 0.23958333333333334
            },
            {
              "pitch": 64,
              "velocity": 74,
              "position": 4.245833333333334,
              "duration": 0.2708333333333333
            },
            {
              "pitch": 64,
              "velocity": 74,
              "position": 4.516666666666667,
              "duration": 0.16458333333333333
            },
            {
              "pitch": 60,
              "velocity": 73,
              "position": 4.508333333333334,
              "duration": 0.18541666666666667
            },
            {
              "pitch": 55,
              "velocity": 81,
              "position": 4.5,
              "duration": 0.21875
            },
            {
              "pitch": 55,
              "velocity": 121,
              "position": 4.7625,
              "duration": 0.21666666666666667
            },
            {
              "pitch": 60,
              "velocity": 113,
              "position": 4.754166666666666,
              "duration": 0.24166666666666667
            },
            {
              "pitch": 64,
              "velocity": 127,
              "position": 4.747916666666667,
              "duration": 0.25416666666666665
            },
            {
              "pitch": 60,
              "velocity": 95,
              "position": 5.008333333333334,
              "duration": 0.19375
            },
            {
              "pitch": 55,
              "velocity": 84,
              "position": 5.002083333333333,
              "duration": 0.21458333333333332
            },
            {
              "pitch": 64,
              "velocity": 90,
              "position": 5.014583333333333,
              "duration": 0.45416666666666666
            },
            {
              "pitch": 55,
              "velocity": 81,
              "position": 5.25625,
              "duration": 0.21666666666666667
            },
            {
              "pitch": 60,
              "velocity": 76,
              "position": 5.25,
              "duration": 0.23958333333333334
            },
            {
              "pitch": 60,
              "velocity": 110,
              "position": 5.508333333333334,
              "duration": 0.17291666666666666
            },
            {
              "pitch": 55,
              "velocity": 118,
              "position": 5.502083333333333,
              "duration": 0.2
            },
            {
              "pitch": 64,
              "velocity": 110,
              "position": 5.514583333333333,
              "duration": 0.44583333333333336
            },
            {
              "pitch": 60,
              "velocity": 74,
              "position": 5.745833333333334,
              "duration": 0.24375
            },
            {
              "pitch": 64,
              "velocity": 99,
              "position": 6.010416666666667,
              "duration": 0.175
            },
            {
              "pitch": 60,
              "velocity": 99,
              "position": 6.002083333333333,
              "duration": 0.20416666666666666
            },
            {
              "pitch": 55,
              "velocity": 80,
              "position": 5.754166666666666,
              "duration": 0.46458333333333335
            },
            {
              "pitch": 55,
              "velocity": 99,
              "position": 6.2625,
              "duration": 0.21458333333333332
            },
            {
              "pitch": 60,
              "velocity": 116,
              "position": 6.254166666666666,
              "duration": 0.24375
            },
            {
              "pitch": 60,
              "velocity": 69,
              "position": 6.510416666666667,
              "duration": 0.16666666666666666
            },
            {
              "pitch": 55,
              "velocity": 85,
              "position": 6.502083333333333,
              "duration": 0.18125
            },
            {
              "pitch": 64,
              "velocity": 107,
              "position": 6.247916666666667,
              "duration": 0.44166666666666665
            },
            {
              "pitch": 55,
              "velocity": 80,
              "position": 6.760416666666667,
              "duration": 0.2125
            },
            {
              "pitch": 60,
              "velocity": 69,
              "position": 6.754166666666666,
              "duration": 0.23541666666666666
            },
            {
              "pitch": 64,
              "velocity": 76,
              "position": 6.747916666666667,
              "duration": 0.2604166666666667
            },
            {
              "pitch": 60,
              "velocity": 127,
              "position": 7.008333333333334,
              "duration": 0.19583333333333333
            },
            {
              "pitch": 55,
              "velocity": 125,
              "position": 7,
              "duration": 0.225
            },
            {
              "pitch": 64,
              "velocity": 124,
              "position": 7.014583333333333,
              "duration": 0.3770833333333333
            },
            {
              "pitch": 55,
              "velocity": 88,
              "position": 7.25625,
              "duration": 0.16041666666666668
            },
            {
              "pitch": 60,
              "velocity": 88,
              "position": 7.25,
              "duration": 0.17291666666666666
            },
            {
              "pitch": 60,
              "velocity": 84,
              "position": 7.508333333333334,
              "duration": 0.19166666666666668
            },
            {
              "pitch": 55,
              "velocity": 81,
              "position": 7.502083333333333,
              "duration": 0.2125
            },
            {
              "pitch": 55,
              "velocity": 85,
              "position": 7.7625,
              "duration": 0.20833333333333334
            },
            {
              "pitch": 60,
              "velocity": 73,
              "position": 7.754166666666666,
              "duration": 0.23958333333333334
            },
            {
              "pitch": 64,
              "velocity": 74,
              "position": 7.747916666666667,
              "duration": 0.25833333333333336
            },
            {
              "pitch": 55,
              "velocity": 121,
              "position": 8,
              "duration": 0.2125
            },
            {
              "pitch": 60,
              "velocity": 127,
              "position": 8.008333333333333,
              "duration": 0.4375
            },
            {
              "pitch": 55,
              "velocity": 61,
              "position": 8.25,
              "duration": 0.22291666666666668
            },
            {
              "pitch": 64,
              "velocity": 127,
              "position": 8.016666666666667,
              "duration": 0.6354166666666666
            },
            {
              "pitch": 60,
              "velocity": 73,
              "position": 8.502083333333333,
              "duration": 0.19583333333333333
            },
            {
              "pitch": 55,
              "velocity": 81,
              "position": 8.50625,
              "duration": 0.22291666666666668
            },
            {
              "pitch": 55,
              "velocity": 127,
              "position": 8.7625,
              "duration": 0.20833333333333334
            },
            {
              "pitch": 64,
              "velocity": 127,
              "position": 8.747916666666667,
              "duration": 0.4479166666666667
            },
            {
              "pitch": 60,
              "velocity": 125,
              "position": 8.754166666666666,
              "duration": 0.45208333333333334
            },
            {
              "pitch": 55,
              "velocity": 71,
              "position": 9.002083333333333,
              "duration": 0.22083333333333333
            },
            {
              "pitch": 55,
              "velocity": 69,
              "position": 9.2625,
              "duration": 0.21458333333333332
            },
            {
              "pitch": 60,
              "velocity": 61,
              "position": 9.254166666666666,
              "duration": 0.24166666666666667
            },
            {
              "pitch": 64,
              "velocity": 79,
              "position": 9.247916666666667,
              "duration": 0.26875
            },
            {
              "pitch": 64,
              "velocity": 127,
              "position": 9.516666666666667,
              "duration": 0.17291666666666666
            },
            {
              "pitch": 60,
              "velocity": 125,
              "position": 9.508333333333333,
              "duration": 0.20625
            },
            {
              "pitch": 55,
              "velocity": 127,
              "position": 9.502083333333333,
              "duration": 0.22291666666666668
            },
            {
              "pitch": 55,
              "velocity": 85,
              "position": 9.764583333333333,
              "duration": 0.225
            },
            {
              "pitch": 60,
              "velocity": 99,
              "position": 9.75625,
              "duration": 0.25416666666666665
            },
            {
              "pitch": 64,
              "velocity": 85,
              "position": 10.020833333333334,
              "duration": 0.008333333333333333
            },
            {
              "pitch": 60,
              "velocity": 84,
              "position": 10.0125,
              "duration": 0.1875
            },
            {
              "pitch": 55,
              "velocity": 87,
              "position": 10.00625,
              "duration": 0.21666666666666667
            },
            {
              "pitch": 55,
              "velocity": 123,
              "position": 10.266666666666667,
              "duration": 0.2
            },
            {
              "pitch": 60,
              "velocity": 117,
              "position": 10.258333333333333,
              "duration": 0.22708333333333333
            },
            {
              "pitch": 64,
              "velocity": 121,
              "position": 10.252083333333333,
              "duration": 0.41875
            },
            {
              "pitch": 60,
              "velocity": 63,
              "position": 10.510416666666666,
              "duration": 0.1625
            },
            {
              "pitch": 55,
              "velocity": 70,
              "position": 10.504166666666666,
              "duration": 0.175
            },
            {
              "pitch": 55,
              "velocity": 94,
              "position": 10.766666666666667,
              "duration": 0.20625
            },
            {
              "pitch": 60,
              "velocity": 84,
              "position": 10.758333333333333,
              "duration": 0.23958333333333334
            },
            {
              "pitch": 64,
              "velocity": 95,
              "position": 10.752083333333333,
              "duration": 0.25833333333333336
            },
            {
              "pitch": 60,
              "velocity": 127,
              "position": 11.0125,
              "duration": 0.18541666666666667
            },
            {
              "pitch": 55,
              "velocity": 118,
              "position": 11.004166666666666,
              "duration": 0.2125
            },
            {
              "pitch": 64,
              "velocity": 107,
              "position": 11.01875,
              "duration": 0.3875
            },
            {
              "pitch": 55,
              "velocity": 78,
              "position": 11.258333333333333,
              "duration": 0.18125
            },
            {
              "pitch": 60,
              "velocity": 87,
              "position": 11.252083333333333,
              "duration": 0.19375
            },
            {
              "pitch": 55,
              "velocity": 68,
              "position": 11.504166666666666,
              "duration": 0.20833333333333334
            },
            {
              "pitch": 55,
              "velocity": 100,
              "position": 11.7625,
              "duration": 0.21666666666666667
            },
            {
              "pitch": 60,
              "velocity": 100,
              "position": 11.75625,
              "duration": 0.23125
            },
            {
              "pitch": 64,
              "velocity": 107,
              "position": 11.75,
              "duration": 0.26458333333333334
            },
            {
              "pitch": 60,
              "velocity": 111,
              "position": 12.010416666666666,
              "duration": 0.19166666666666668
            },
            {
              "pitch": 55,
              "velocity": 120,
              "position": 12.002083333333333,
              "duration": 0.20416666666666666
            },
            {
              "pitch": 64,
              "velocity": 125,
              "position": 12.016666666666667,
              "duration": 0.43333333333333335
            },
            {
              "pitch": 55,
              "velocity": 87,
              "position": 12.25625,
              "duration": 0.20833333333333334
            },
            {
              "pitch": 60,
              "velocity": 79,
              "position": 12.25,
              "duration": 0.22708333333333333
            },
            {
              "pitch": 64,
              "velocity": 87,
              "position": 12.514583333333333,
              "duration": 0.18125
            },
            {
              "pitch": 60,
              "velocity": 61,
              "position": 12.508333333333333,
              "duration": 0.19583333333333333
            },
            {
              "pitch": 55,
              "velocity": 66,
              "position": 12.5,
              "duration": 0.22708333333333333
            },
            {
              "pitch": 55,
              "velocity": 127,
              "position": 12.7625,
              "duration": 0.20208333333333334
            },
            {
              "pitch": 60,
              "velocity": 127,
              "position": 12.75,
              "duration": 0.2375
            },
            {
              "pitch": 60,
              "velocity": 83,
              "position": 13.008333333333333,
              "duration": 0.18125
            },
            {
              "pitch": 64,
              "velocity": 124,
              "position": 12.754166666666666,
              "duration": 0.44166666666666665
            },
            {
              "pitch": 55,
              "velocity": 78,
              "position": 13,
              "duration": 0.22083333333333333
            },
            {
              "pitch": 55,
              "velocity": 83,
              "position": 13.260416666666666,
              "duration": 0.21666666666666667
            },
            {
              "pitch": 60,
              "velocity": 80,
              "position": 13.247916666666667,
              "duration": 0.25
            },
            {
              "pitch": 64,
              "velocity": 85,
              "position": 13.254166666666666,
              "duration": 0.25833333333333336
            },
            {
              "pitch": 60,
              "velocity": 118,
              "position": 13.508333333333333,
              "duration": 0.18541666666666667
            },
            {
              "pitch": 55,
              "velocity": 127,
              "position": 13.502083333333333,
              "duration": 0.21666666666666667
            },
            {
              "pitch": 64,
              "velocity": 127,
              "position": 13.514583333333333,
              "duration": 0.45625
            },
            {
              "pitch": 55,
              "velocity": 96,
              "position": 13.75625,
              "duration": 0.21458333333333332
            },
            {
              "pitch": 60,
              "velocity": 87,
              "position": 13.75,
              "duration": 0.24583333333333332
            },
            {
              "pitch": 64,
              "velocity": 88,
              "position": 14.016666666666667,
              "duration": 0.16875
            },
            {
              "pitch": 60,
              "velocity": 90,
              "position": 14.008333333333333,
              "duration": 0.18958333333333333
            },
            {
              "pitch": 55,
              "velocity": 94,
              "position": 14.002083333333333,
              "duration": 0.2125
            },
            {
              "pitch": 55,
              "velocity": 125,
              "position": 14.2625,
              "duration": 0.2
            },
            {
              "pitch": 60,
              "velocity": 127,
              "position": 14.254166666666666,
              "duration": 0.22708333333333333
            },
            {
              "pitch": 64,
              "velocity": 127,
              "position": 14.247916666666667,
              "duration": 0.24375
            },
            {
              "pitch": 64,
              "velocity": 83,
              "position": 14.5125,
              "duration": 0.1625
            },
            {
              "pitch": 60,
              "velocity": 74,
              "position": 14.50625,
              "duration": 0.17916666666666667
            },
            {
              "pitch": 55,
              "velocity": 85,
              "position": 14.5,
              "duration": 0.19583333333333333
            },
            {
              "pitch": 55,
              "velocity": 88,
              "position": 14.7625,
              "duration": 0.21041666666666667
            },
            {
              "pitch": 60,
              "velocity": 85,
              "position": 14.754166666666666,
              "duration": 0.23125
            },
            {
              "pitch": 64,
              "velocity": 113,
              "position": 15.014583333333333,
              "duration": 0.004166666666666667
            },
            {
              "pitch": 55,
              "velocity": 127,
              "position": 15,
              "duration": 0.21458333333333332
            },
            {
              "pitch": 60,
              "velocity": 127,
              "position": 15.00625,
              "duration": 0.45416666666666666
            },
            {
              "pitch": 55,
              "velocity": 76,
              "position": 15.25,
              "duration": 0.21458333333333332
            },
            {
              "pitch": 60,
              "velocity": 127,
              "position": 15.508333333333333,
              "duration": 0.18958333333333333
            },
            {
              "pitch": 55,
              "velocity": 120,
              "position": 15.5,
              "duration": 0.21041666666666667
            },
            {
              "pitch": 64,
              "velocity": 113,
              "position": 15.514583333333333,
              "duration": 0.4666666666666667
            },
            {
              "pitch": 60,
              "velocity": 121,
              "position": 15.747916666666667,
              "duration": 0.23958333333333334
            },
            {
              "pitch": 55,
              "velocity": 113,
              "position": 15.754166666666666,
              "duration": 0.24166666666666667
            }
          ]
        },
        "12": {
          "ctab": {
            "srcChannel": 12,
            "name": "mutedgtr",
            "accType": "CHORD2",
            "editable": false,
            "mutedNotes": [],
            "mutedChords": [],
            "autoStart": false,
            "sourceChordNote": 0,
            "sourceChordType": "Maj",
            "ctb2Low": null,
            "ctb2Main": {
              "ntr": "ROOT_FIXED",
              "ntt": "CHORD",
              "bassOn": false,
              "chordRootUpperLimit": 3,
              "noteLowLimit": 0,
              "noteHighLimit": 127,
              "rtr": "PITCH_SHIFT"
            },
            "ctb2High": null
          },
          "notes": [
            {
              "pitch": 55,
              "velocity": 112,
              "position": 0,
              "duration": 2.75
            },
            {
              "pitch": 60,
              "velocity": 114,
              "position": 0.0125,
              "duration": 2.7375
            },
            {
              "pitch": 64,
              "velocity": 114,
              "position": 0.041666666666666664,
              "duration": 2.7083333333333335
            },
            {
              "pitch": 55,
              "velocity": 71,
              "position": 2.79375,
              "duration": 0.18125
            },
            {
              "pitch": 60,
              "velocity": 73,
              "position": 2.779166666666667,
              "duration": 0.21041666666666667
            },
            {
              "pitch": 64,
              "velocity": 71,
              "position": 2.7666666666666666,
              "duration": 0.25416666666666665
            },
            {
              "pitch": 55,
              "velocity": 101,
              "position": 2.995833333333333,
              "duration": 0.7541666666666667
            },
            {
              "pitch": 60,
              "velocity": 112,
              "position": 3.0104166666666665,
              "duration": 0.7395833333333334
            },
            {
              "pitch": 64,
              "velocity": 109,
              "position": 3.0416666666666665,
              "duration": 0.7083333333333334
            },
            {
              "pitch": 55,
              "velocity": 65,
              "position": 3.8041666666666667,
              "duration": 0.18333333333333332
            },
            {
              "pitch": 60,
              "velocity": 73,
              "position": 3.7875,
              "duration": 0.21041666666666667
            },
            {
              "pitch": 64,
              "velocity": 68,
              "position": 3.775,
              "duration": 0.2520833333333333
            },
            {
              "pitch": 55,
              "velocity": 109,
              "position": 4.008333333333334,
              "duration": 2.7416666666666667
            },
            {
              "pitch": 60,
              "velocity": 112,
              "position": 4.01875,
              "duration": 2.73125
            },
            {
              "pitch": 64,
              "velocity": 112,
              "position": 4.047916666666667,
              "duration": 2.7020833333333334
            },
            {
              "pitch": 55,
              "velocity": 73,
              "position": 6.795833333333333,
              "duration": 0.18541666666666667
            },
            {
              "pitch": 60,
              "velocity": 88,
              "position": 6.783333333333333,
              "duration": 0.2125
            },
            {
              "pitch": 64,
              "velocity": 71,
              "position": 6.770833333333333,
              "duration": 0.25416666666666665
            },
            {
              "pitch": 55,
              "velocity": 104,
              "position": 7.002083333333333,
              "duration": 0.7479166666666667
            },
            {
              "pitch": 60,
              "velocity": 114,
              "position": 7.016666666666667,
              "duration": 0.7333333333333333
            },
            {
              "pitch": 64,
              "velocity": 109,
              "position": 7.045833333333333,
              "duration": 0.7041666666666667
            },
            {
              "pitch": 55,
              "velocity": 71,
              "position": 7.808333333333334,
              "duration": 0.18333333333333332
            },
            {
              "pitch": 60,
              "velocity": 73,
              "position": 7.791666666666667,
              "duration": 0.2125
            },
            {
              "pitch": 64,
              "velocity": 71,
              "position": 7.777083333333334,
              "duration": 0.25833333333333336
            },
            {
              "pitch": 55,
              "velocity": 104,
              "position": 8.0125,
              "duration": 2.7375
            },
            {
              "pitch": 60,
              "velocity": 109,
              "position": 8.025,
              "duration": 2.725
            },
            {
              "pitch": 64,
              "velocity": 109,
              "position": 8.05625,
              "duration": 2.69375
            },
            {
              "pitch": 55,
              "velocity": 65,
              "position": 10.80625,
              "duration": 0.17291666666666666
            },
            {
              "pitch": 60,
              "velocity": 68,
              "position": 10.791666666666666,
              "duration": 0.20416666666666666
            },
            {
              "pitch": 64,
              "velocity": 62,
              "position": 10.777083333333334,
              "duration": 0.24583333333333332
            },
            {
              "pitch": 55,
              "velocity": 93,
              "position": 11,
              "duration": 0.7291666666666666
            },
            {
              "pitch": 60,
              "velocity": 109,
              "position": 11.016666666666667,
              "duration": 0.7125
            },
            {
              "pitch": 64,
              "velocity": 101,
              "position": 11.04375,
              "duration": 0.6854166666666667
            },
            {
              "pitch": 55,
              "velocity": 61,
              "position": 11.802083333333334,
              "duration": 0.18125
            },
            {
              "pitch": 60,
              "velocity": 71,
              "position": 11.7875,
              "duration": 0.20833333333333334
            },
            {
              "pitch": 64,
              "velocity": 62,
              "position": 11.772916666666667,
              "duration": 0.25416666666666665
            },
            {
              "pitch": 55,
              "velocity": 93,
              "position": 12.004166666666666,
              "duration": 2.745833333333333
            },
            {
              "pitch": 60,
              "velocity": 104,
              "position": 12.016666666666667,
              "duration": 2.7333333333333334
            },
            {
              "pitch": 64,
              "velocity": 93,
              "position": 12.047916666666667,
              "duration": 2.7020833333333334
            },
            {
              "pitch": 55,
              "velocity": 78,
              "position": 14.797916666666667,
              "duration": 0.175
            },
            {
              "pitch": 60,
              "velocity": 88,
              "position": 14.783333333333333,
              "duration": 0.20208333333333334
            },
            {
              "pitch": 64,
              "velocity": 71,
              "position": 14.770833333333334,
              "duration": 0.24583333333333332
            },
            {
              "pitch": 55,
              "velocity": 77,
              "position": 14.99375,
              "duration": 0.7104166666666667
            },
            {
              "pitch": 60,
              "velocity": 93,
              "position": 15.00625,
              "duration": 0.6979166666666666
            },
            {
              "pitch": 64,
              "velocity": 101,
              "position": 15.0375,
              "duration": 0.6666666666666666
            },
            {
              "pitch": 55,
              "velocity": 68,
              "position": 15.79375,
              "duration": 0.13541666666666666
            },
            {
              "pitch": 60,
              "velocity": 78,
              "position": 15.78125,
              "duration": 0.16041666666666668
            },
            {
              "pitch": 64,
              "velocity": 73,
              "position": 15.76875,
              "duration": 0.20208333333333334
            }
          ]
        },
        "13": {
          "ctab": {
            "srcChannel": 13,
            "name": "gtr",
            "accType": "PAD",
            "editable": false,
            "mutedNotes": [],
            "mutedChords": [],
            "autoStart": false,
            "sourceChordNote": 0,
            "sourceChordType": "Maj",
            "ctb2Low": null,
            "ctb2Main": {
              "ntr": "ROOT_TRANSPOSITION",
              "ntt": "MELODY",
              "bassOn": true,
              "chordRootUpperLimit": 6,
              "noteLowLimit": 56,
              "noteHighLimit": 69,
              "rtr": "PITCH_SHIFT"
            },
            "ctb2High": null
          },
          "notes": [
            {
              "pitch": 60,
              "velocity": 94,
              "position": 0,
              "duration": 2.870833333333333
            },
            {
              "pitch": 64,
              "velocity": 94,
              "position": 0,
              "duration": 2.870833333333333
            },
            {
              "pitch": 55,
              "velocity": 94,
              "position": 0,
              "duration": 2.872916666666667
            },
            {
              "pitch": 64,
              "velocity": 94,
              "position": 3,
              "duration": 0.85625
            },
            {
              "pitch": 55,
              "velocity": 94,
              "position": 3,
              "duration": 0.8583333333333333
            },
            {
              "pitch": 60,
              "velocity": 94,
              "position": 3,
              "duration": 0.8583333333333333
            },
            {
              "pitch": 55,
              "velocity": 94,
              "position": 4,
              "duration": 2.870833333333333
            },
            {
              "pitch": 60,
              "velocity": 94,
              "position": 4,
              "duration": 2.870833333333333
            },
            {
              "pitch": 64,
              "velocity": 94,
              "position": 4,
              "duration": 2.870833333333333
            },
            {
              "pitch": 55,
              "velocity": 94,
              "position": 7,
              "duration": 0.86875
            },
            {
              "pitch": 60,
              "velocity": 94,
              "position": 7,
              "duration": 0.86875
            },
            {
              "pitch": 64,
              "velocity": 94,
              "position": 7,
              "duration": 0.86875
            },
            {
              "pitch": 55,
              "velocity": 94,
              "position": 8,
              "duration": 2.875
            },
            {
              "pitch": 60,
              "velocity": 94,
              "position": 8,
              "duration": 2.875
            },
            {
              "pitch": 64,
              "velocity": 94,
              "position": 8,
              "duration": 2.875
            },
            {
              "pitch": 55,
              "velocity": 94,
              "position": 11,
              "duration": 0.8770833333333333
            },
            {
              "pitch": 60,
              "velocity": 94,
              "position": 11,
              "duration": 0.8770833333333333
            },
            {
              "pitch": 64,
              "velocity": 94,
              "position": 11,
              "duration": 0.8791666666666667
            },
            {
              "pitch": 55,
              "velocity": 94,
              "position": 12,
              "duration": 2.86875
            },
            {
              "pitch": 60,
              "velocity": 94,
              "position": 12,
              "duration": 2.86875
            },
            {
              "pitch": 64,
              "velocity": 94,
              "position": 12,
              "duration": 2.872916666666667
            },
            {
              "pitch": 55,
              "velocity": 94,
              "position": 15,
              "duration": 0.8770833333333333
            },
            {
              "pitch": 60,
              "velocity": 94,
              "position": 15,
              "duration": 0.8770833333333333
            },
            {
              "pitch": 64,
              "velocity": 94,
              "position": 15,
              "duration": 0.8770833333333333
            }
          ]
        },
        "14": {
          "ctab": {
            "srcChannel": 14,
            "name": "dist",
            "accType": "PHRASE1",
            "editable": false,
            "mutedNotes": [],
            "mutedChords": [],
            "autoStart": false,
            "sourceChordNote": 0,
            "sourceChordType": "Maj",
            "ctb2Low": null,
            "ctb2Main": {
              "ntr": "ROOT_FIXED",
              "ntt": "CHORD",
              "bassOn": false,
              "chordRootUpperLimit": 4,
              "noteLowLimit": 0,
              "noteHighLimit": 127,
              "rtr": "PITCH_SHIFT"
            },
            "ctb2High": null
          },
          "notes": [
            {
              "pitch": 64,
              "velocity": 94,
              "position": 0,
              "duration": 2.870833333333333
            },
            {
              "pitch": 72,
              "velocity": 94,
              "position": 0,
              "duration": 2.870833333333333
            },
            {
              "pitch": 72,
              "velocity": 94,
              "position": 3,
              "duration": 0.85625
            },
            {
              "pitch": 64,
              "velocity": 94,
              "position": 3,
              "duration": 0.8583333333333333
            },
            {
              "pitch": 64,
              "velocity": 94,
              "position": 4,
              "duration": 2.870833333333333
            },
            {
              "pitch": 72,
              "velocity": 94,
              "position": 4,
              "duration": 2.870833333333333
            },
            {
              "pitch": 64,
              "velocity": 94,
              "position": 7,
              "duration": 0.86875
            },
            {
              "pitch": 72,
              "velocity": 94,
              "position": 7,
              "duration": 0.86875
            },
            {
              "pitch": 64,
              "velocity": 94,
              "position": 8,
              "duration": 2.875
            },
            {
              "pitch": 72,
              "velocity": 94,
              "position": 8,
              "duration": 2.875
            },
            {
              "pitch": 64,
              "velocity": 94,
              "position": 11,
              "duration": 0.8770833333333333
            },
            {
              "pitch": 72,
              "velocity": 94,
              "position": 11,
              "duration": 0.8791666666666667
            },
            {
              "pitch": 64,
              "velocity": 94,
              "position": 12,
              "duration": 2.86875
            },
            {
              "pitch": 72,
              "velocity": 94,
              "position": 12,
              "duration": 2.872916666666667
            },
            {
              "pitch": 64,
              "velocity": 94,
              "position": 15,
              "duration": 0.8770833333333333
            },
            {
              "pitch": 72,
              "velocity": 94,
              "position": 15,
              "duration": 0.8770833333333333
            }
          ]
        },
        "15": {
          "ctab": {
            "srcChannel": 15,
            "name": "overdr",
            "accType": "PHRASE2",
            "editable": false,
            "mutedNotes": [],
            "mutedChords": [],
            "autoStart": false,
            "sourceChordNote": 0,
            "sourceChordType": "Maj",
            "ctb2Low": null,
            "ctb2Main": {
              "ntr": "ROOT_TRANSPOSITION",
              "ntt": "MELODY",
              "bassOn": true,
              "chordRootUpperLimit": 4,
              "noteLowLimit": 0,
              "noteHighLimit": 127,
              "rtr": "PITCH_SHIFT"
            },
            "ctb2High": null
          },
          "notes": [
            {
              "pitch": 48,
              "velocity": 69,
              "position": 2.752083333333333,
              "duration": 0.020833333333333332
            },
            {
              "pitch": 55,
              "velocity": 53,
              "position": 2.779166666666667,
              "duration": 0.004166666666666667
            },
            {
              "pitch": 48,
              "velocity": 72,
              "position": 3.75,
              "duration": 0.00625
            },
            {
              "pitch": 55,
              "velocity": 56,
              "position": 3.76875,
              "duration": 0.010416666666666666
            },
            {
              "pitch": 48,
              "velocity": 99,
              "position": 3.96875,
              "duration": 2.7625
            },
            {
              "pitch": 55,
              "velocity": 71,
              "position": 6.752083333333333,
              "duration": 0.0125
            },
            {
              "pitch": 48,
              "velocity": 77,
              "position": 6.741666666666666,
              "duration": 0.21041666666666667
            },
            {
              "pitch": 48,
              "velocity": 81,
              "position": 7.741666666666666,
              "duration": 0.00625
            },
            {
              "pitch": 55,
              "velocity": 62,
              "position": 7.7625,
              "duration": 0.010416666666666666
            },
            {
              "pitch": 48,
              "velocity": 74,
              "position": 10.75625,
              "duration": 0.008333333333333333
            },
            {
              "pitch": 55,
              "velocity": 57,
              "position": 10.775,
              "duration": 0.004166666666666667
            },
            {
              "pitch": 48,
              "velocity": 74,
              "position": 11.75,
              "duration": 0.008333333333333333
            },
            {
              "pitch": 55,
              "velocity": 57,
              "position": 11.777083333333334,
              "duration": 0.004166666666666667
            },
            {
              "pitch": 48,
              "velocity": 69,
              "position": 14.752083333333333,
              "duration": 0.008333333333333333
            },
            {
              "pitch": 55,
              "velocity": 56,
              "position": 14.777083333333334,
              "duration": 0.008333333333333333
            },
            {
              "pitch": 55,
              "velocity": 76,
              "position": 15.016666666666667,
              "duration": 0.70625
            },
            {
              "pitch": 48,
              "velocity": 70,
              "position": 15.74375,
              "duration": 0.010416666666666666
            },
            {
              "pitch": 55,
              "velocity": 57,
              "position": 15.764583333333333,
              "duration": 0.22291666666666668
            }
          ]
        }
      }
    },
    "Main_D": {
      "type": "Main_D",
      "sizeInBeats": 16,
      "channels": {
        "8": {
          "ctab": {
            "srcChannel": 8,
            "name": "add-drum",
            "accType": "SUBRHYTHM",
            "editable": false,
            "mutedNotes": [],
            "mutedChords": [],
            "autoStart": true,
            "sourceChordNote": 0,
            "sourceChordType": "Maj7",
            "ctb2Low": null,
            "ctb2Main": {
              "ntr": "ROOT_FIXED",
              "ntt": "BYPASS",
              "bassOn": false,
              "chordRootUpperLimit": 6,
              "noteLowLimit": 0,
              "noteHighLimit": 127,
              "rtr": "PITCH_SHIFT"
            },
            "ctb2High": null
          },
          "notes": []
        },
        "9": {
          "ctab": {
            "srcChannel": 9,
            "name": "main-dru",
            "accType": "RHYTHM",
            "editable": false,
            "mutedNotes": [],
            "mutedChords": [],
            "autoStart": true,
            "sourceChordNote": 0,
            "sourceChordType": "Maj7",
            "ctb2Low": null,
            "ctb2Main": {
              "ntr": "ROOT_FIXED",
              "ntt": "BYPASS",
              "bassOn": false,
              "chordRootUpperLimit": 6,
              "noteLowLimit": 0,
              "noteHighLimit": 127,
              "rtr": "PITCH_SHIFT"
            },
            "ctb2High": null
          },
          "notes": [
            {
              "pitch": 36,
              "velocity": 104,
              "position": 0,
              "duration": 0.010416666666666666
            },
            {
              "pitch": 57,
              "velocity": 67,
              "position": 0,
              "duration": 0.010416666666666666
            },
            {
              "pitch": 40,
              "velocity": 27,
              "position": 0.5,
              "duration": 0.010416666666666666
            },
            {
              "pitch": 42,
              "velocity": 73,
              "position": 0.5,
              "duration": 0.010416666666666666
            },
            {
              "pitch": 42,
              "velocity": 47,
              "position": 0.7666666666666667,
              "duration": 0.010416666666666666
            },
            {
              "pitch": 36,
              "velocity": 104,
              "position": 0.775,
              "duration": 0.010416666666666666
            },
            {
              "pitch": 40,
              "velocity": 89,
              "position": 1,
              "duration": 0.010416666666666666
            },
            {
              "pitch": 46,
              "velocity": 74,
              "position": 1,
              "duration": 0.010416666666666666
            },
            {
              "pitch": 36,
              "velocity": 104,
              "position": 1.275,
              "duration": 0.010416666666666666
            },
            {
              "pitch": 42,
              "velocity": 71,
              "position": 1.5,
              "duration": 0.010416666666666666
            },
            {
              "pitch": 40,
              "velocity": 38,
              "position": 1.7666666666666666,
              "duration": 0.010416666666666666
            },
            {
              "pitch": 42,
              "velocity": 48,
              "position": 1.7666666666666666,
              "duration": 0.010416666666666666
            },
            {
              "pitch": 36,
              "velocity": 104,
              "position": 2,
              "duration": 0.010416666666666666
            },
            {
              "pitch": 46,
              "velocity": 73,
              "position": 2,
              "duration": 0.010416666666666666
            },
            {
              "pitch": 40,
              "velocity": 27,
              "position": 2.5,
              "duration": 0.010416666666666666
            },
            {
              "pitch": 42,
              "velocity": 69,
              "position": 2.5,
              "duration": 0.010416666666666666
            },
            {
              "pitch": 42,
              "velocity": 48,
              "position": 2.7666666666666666,
              "duration": 0.010416666666666666
            },
            {
              "pitch": 36,
              "velocity": 100,
              "position": 2.775,
              "duration": 0.010416666666666666
            },
            {
              "pitch": 40,
              "velocity": 87,
              "position": 3,
              "duration": 0.010416666666666666
            },
            {
              "pitch": 46,
              "velocity": 71,
              "position": 3,
              "duration": 0.010416666666666666
            },
            {
              "pitch": 36,
              "velocity": 106,
              "position": 3.275,
              "duration": 0.010416666666666666
            },
            {
              "pitch": 42,
              "velocity": 79,
              "position": 3.5,
              "duration": 0.010416666666666666
            },
            {
              "pitch": 46,
              "velocity": 47,
              "position": 3.7666666666666666,
              "duration": 0.010416666666666666
            },
            {
              "pitch": 40,
              "velocity": 38,
              "position": 3.78125,
              "duration": 0.010416666666666666
            },
            {
              "pitch": 36,
              "velocity": 106,
              "position": 4,
              "duration": 0.010416666666666666
            },
            {
              "pitch": 57,
              "velocity": 62,
              "position": 4,
              "duration": 0.010416666666666666
            },
            {
              "pitch": 42,
              "velocity": 75,
              "position": 4.5,
              "duration": 0.010416666666666666
            },
            {
              "pitch": 42,
              "velocity": 50,
              "position": 4.766666666666667,
              "duration": 0.010416666666666666
            },
            {
              "pitch": 36,
              "velocity": 100,
              "position": 4.775,
              "duration": 0.010416666666666666
            },
            {
              "pitch": 40,
              "velocity": 89,
              "position": 5,
              "duration": 0.010416666666666666
            },
            {
              "pitch": 46,
              "velocity": 73,
              "position": 5,
              "duration": 0.010416666666666666
            },
            {
              "pitch": 36,
              "velocity": 104,
              "position": 5.5,
              "duration": 0.010416666666666666
            },
            {
              "pitch": 42,
              "velocity": 77,
              "position": 5.5,
              "duration": 0.010416666666666666
            },
            {
              "pitch": 42,
              "velocity": 46,
              "position": 5.766666666666667,
              "duration": 0.010416666666666666
            },
            {
              "pitch": 46,
              "velocity": 71,
              "position": 6,
              "duration": 0.010416666666666666
            },
            {
              "pitch": 40,
              "velocity": 28,
              "position": 6.28125,
              "duration": 0.010416666666666666
            },
            {
              "pitch": 36,
              "velocity": 104,
              "position": 6.5,
              "duration": 0.010416666666666666
            },
            {
              "pitch": 42,
              "velocity": 73,
              "position": 6.5,
              "duration": 0.010416666666666666
            },
            {
              "pitch": 42,
              "velocity": 48,
              "position": 6.766666666666667,
              "duration": 0.010416666666666666
            },
            {
              "pitch": 40,
              "velocity": 87,
              "position": 7,
              "duration": 0.010416666666666666
            },
            {
              "pitch": 46,
              "velocity": 78,
              "position": 7,
              "duration": 0.010416666666666666
            },
            {
              "pitch": 46,
              "velocity": 69,
              "position": 7.5,
              "duration": 0.010416666666666666
            },
            {
              "pitch": 40,
              "velocity": 41,
              "position": 7.78125,
              "duration": 0.010416666666666666
            },
            {
              "pitch": 36,
              "velocity": 106,
              "position": 8,
              "duration": 0.010416666666666666
            },
            {
              "pitch": 49,
              "velocity": 68,
              "position": 8,
              "duration": 0.010416666666666666
            },
            {
              "pitch": 40,
              "velocity": 26,
              "position": 8.5,
              "duration": 0.010416666666666666
            },
            {
              "pitch": 42,
              "velocity": 73,
              "position": 8.5,
              "duration": 0.010416666666666666
            },
            {
              "pitch": 42,
              "velocity": 48,
              "position": 8.766666666666667,
              "duration": 0.010416666666666666
            },
            {
              "pitch": 36,
              "velocity": 106,
              "position": 8.775,
              "duration": 0.010416666666666666
            },
            {
              "pitch": 40,
              "velocity": 89,
              "position": 9,
              "duration": 0.010416666666666666
            },
            {
              "pitch": 46,
              "velocity": 70,
              "position": 9,
              "duration": 0.010416666666666666
            },
            {
              "pitch": 36,
              "velocity": 104,
              "position": 9.275,
              "duration": 0.010416666666666666
            },
            {
              "pitch": 42,
              "velocity": 71,
              "position": 9.5,
              "duration": 0.010416666666666666
            },
            {
              "pitch": 40,
              "velocity": 40,
              "position": 9.754166666666666,
              "duration": 0.010416666666666666
            },
            {
              "pitch": 42,
              "velocity": 46,
              "position": 9.766666666666667,
              "duration": 0.010416666666666666
            },
            {
              "pitch": 36,
              "velocity": 104,
              "position": 10,
              "duration": 0.010416666666666666
            },
            {
              "pitch": 46,
              "velocity": 72,
              "position": 10,
              "duration": 0.010416666666666666
            },
            {
              "pitch": 42,
              "velocity": 69,
              "position": 10.5,
              "duration": 0.010416666666666666
            },
            {
              "pitch": 40,
              "velocity": 30,
              "position": 10.514583333333333,
              "duration": 0.010416666666666666
            },
            {
              "pitch": 42,
              "velocity": 46,
              "position": 10.766666666666667,
              "duration": 0.010416666666666666
            },
            {
              "pitch": 36,
              "velocity": 104,
              "position": 10.775,
              "duration": 0.010416666666666666
            },
            {
              "pitch": 40,
              "velocity": 89,
              "position": 11,
              "duration": 0.010416666666666666
            },
            {
              "pitch": 46,
              "velocity": 74,
              "position": 11,
              "duration": 0.010416666666666666
            },
            {
              "pitch": 36,
              "velocity": 106,
              "position": 11.275,
              "duration": 0.010416666666666666
            },
            {
              "pitch": 40,
              "velocity": 48,
              "position": 11.5,
              "duration": 0.010416666666666666
            },
            {
              "pitch": 42,
              "velocity": 71,
              "position": 11.5,
              "duration": 0.010416666666666666
            },
            {
              "pitch": 40,
              "velocity": 68,
              "position": 11.754166666666666,
              "duration": 0.010416666666666666
            },
            {
              "pitch": 46,
              "velocity": 48,
              "position": 11.766666666666667,
              "duration": 0.010416666666666666
            },
            {
              "pitch": 36,
              "velocity": 106,
              "position": 12,
              "duration": 0.010416666666666666
            },
            {
              "pitch": 57,
              "velocity": 62,
              "position": 12,
              "duration": 0.010416666666666666
            },
            {
              "pitch": 42,
              "velocity": 66,
              "position": 12.5,
              "duration": 0.010416666666666666
            },
            {
              "pitch": 42,
              "velocity": 41,
              "position": 12.766666666666667,
              "duration": 0.010416666666666666
            },
            {
              "pitch": 36,
              "velocity": 104,
              "position": 12.775,
              "duration": 0.010416666666666666
            },
            {
              "pitch": 40,
              "velocity": 89,
              "position": 13,
              "duration": 0.010416666666666666
            },
            {
              "pitch": 46,
              "velocity": 72,
              "position": 13,
              "duration": 0.010416666666666666
            },
            {
              "pitch": 36,
              "velocity": 104,
              "position": 13.5,
              "duration": 0.010416666666666666
            },
            {
              "pitch": 42,
              "velocity": 73,
              "position": 13.5,
              "duration": 0.010416666666666666
            },
            {
              "pitch": 42,
              "velocity": 44,
              "position": 13.766666666666667,
              "duration": 0.010416666666666666
            },
            {
              "pitch": 46,
              "velocity": 72,
              "position": 14,
              "duration": 0.010416666666666666
            },
            {
              "pitch": 36,
              "velocity": 95,
              "position": 14.275,
              "duration": 0.010416666666666666
            },
            {
              "pitch": 36,
              "velocity": 104,
              "position": 14.5,
              "duration": 0.010416666666666666
            },
            {
              "pitch": 42,
              "velocity": 70,
              "position": 14.5,
              "duration": 0.010416666666666666
            },
            {
              "pitch": 42,
              "velocity": 48,
              "position": 14.766666666666667,
              "duration": 0.010416666666666666
            },
            {
              "pitch": 40,
              "velocity": 86,
              "position": 15,
              "duration": 0.010416666666666666
            },
            {
              "pitch": 46,
              "velocity": 66,
              "position": 15,
              "duration": 0.010416666666666666
            },
            {
              "pitch": 46,
              "velocity": 71,
              "position": 15.5,
              "duration": 0.010416666666666666
            },
            {
              "pitch": 40,
              "velocity": 40,
              "position": 15.78125,
              "duration": 0.010416666666666666
            }
          ]
        },
        "10": {
          "ctab": {
            "srcChannel": 10,
            "name": "Bass",
            "accType": "BASS",
            "editable": false,
            "mutedNotes": [],
            "mutedChords": [],
            "autoStart": false,
            "sourceChordNote": 0,
            "sourceChordType": "Maj7",
            "ctb2Low": null,
            "ctb2Main": {
              "ntr": "ROOT_TRANSPOSITION",
              "ntt": "MELODY",
              "bassOn": true,
              "chordRootUpperLimit": 3,
              "noteLowLimit": 28,
              "noteHighLimit": 127,
              "rtr": "PITCH_SHIFT_TO_ROOT"
            },
            "ctb2High": null
          },
          "notes": [
            {
              "pitch": 24,
              "velocity": 60,
              "position": 0,
              "duration": 0.25
            },
            {
              "pitch": 24,
              "velocity": 60,
              "position": 0.25,
              "duration": 0.21875
            },
            {
              "pitch": 24,
              "velocity": 60,
              "position": 0.75,
              "duration": 0.15416666666666667
            },
            {
              "pitch": 24,
              "velocity": 60,
              "position": 1,
              "duration": 0.25
            },
            {
              "pitch": 24,
              "velocity": 60,
              "position": 1.25,
              "duration": 0.25
            },
            {
              "pitch": 24,
              "velocity": 60,
              "position": 1.75,
              "duration": 0.1875
            },
            {
              "pitch": 24,
              "velocity": 60,
              "position": 2,
              "duration": 0.25
            },
            {
              "pitch": 24,
              "velocity": 60,
              "position": 2.25,
              "duration": 0.22708333333333333
            },
            {
              "pitch": 24,
              "velocity": 60,
              "position": 2.75,
              "duration": 0.20833333333333334
            },
            {
              "pitch": 24,
              "velocity": 60,
              "position": 3,
              "duration": 0.24791666666666667
            },
            {
              "pitch": 24,
              "velocity": 60,
              "position": 3.25,
              "duration": 0.3145833333333333
            },
            {
              "pitch": 24,
              "velocity": 60,
              "position": 3.75,
              "duration": 0.17291666666666666
            },
            {
              "pitch": 24,
              "velocity": 60,
              "position": 4,
              "duration": 0.75
            },
            {
              "pitch": 24,
              "velocity": 60,
              "position": 4.75,
              "duration": 0.7083333333333334
            },
            {
              "pitch": 24,
              "velocity": 60,
              "position": 5.5,
              "duration": 0.9541666666666667
            },
            {
              "pitch": 24,
              "velocity": 60,
              "position": 6.5,
              "duration": 0.75
            },
            {
              "pitch": 24,
              "velocity": 60,
              "position": 7.25,
              "duration": 0.7083333333333334
            },
            {
              "pitch": 24,
              "velocity": 60,
              "position": 8,
              "duration": 0.24583333333333332
            },
            {
              "pitch": 24,
              "velocity": 60,
              "position": 8.25,
              "duration": 0.24166666666666667
            },
            {
              "pitch": 24,
              "velocity": 60,
              "position": 8.75,
              "duration": 0.18958333333333333
            },
            {
              "pitch": 24,
              "velocity": 60,
              "position": 9,
              "duration": 0.25
            },
            {
              "pitch": 24,
              "velocity": 60,
              "position": 9.25,
              "duration": 0.29583333333333334
            },
            {
              "pitch": 24,
              "velocity": 60,
              "position": 9.75,
              "duration": 0.1625
            },
            {
              "pitch": 24,
              "velocity": 60,
              "position": 10.25,
              "duration": 0.0020833333333333333
            },
            {
              "pitch": 24,
              "velocity": 60,
              "position": 10.75,
              "duration": 0.19166666666666668
            },
            {
              "pitch": 24,
              "velocity": 60,
              "position": 11,
              "duration": 0.24791666666666667
            },
            {
              "pitch": 24,
              "velocity": 60,
              "position": 11.25,
              "duration": 0.6770833333333334
            },
            {
              "pitch": 24,
              "velocity": 60,
              "position": 12.75,
              "duration": 0.004166666666666667
            },
            {
              "pitch": 24,
              "velocity": 60,
              "position": 13.5,
              "duration": 0.9458333333333333
            },
            {
              "pitch": 24,
              "velocity": 60,
              "position": 14.5,
              "duration": 0.7479166666666667
            },
            {
              "pitch": 24,
              "velocity": 60,
              "position": 15.25,
              "duration": 0.7145833333333333
            }
          ]
        },
        "11": {
          "ctab": {
            "srcChannel": 11,
            "name": "piano",
            "accType": "CHORD1",
            "editable": false,
            "mutedNotes": [],
            "mutedChords": [],
            "autoStart": false,
            "sourceChordNote": 0,
            "sourceChordType": "Maj",
            "ctb2Low": null,
            "ctb2Main": {
              "ntr": "ROOT_FIXED",
              "ntt": "CHORD",
              "bassOn": false,
              "chordRootUpperLimit": 9,
              "noteLowLimit": 0,
              "noteHighLimit": 127,
              "rtr": "PITCH_SHIFT"
            },
            "ctb2High": null
          },
          "notes": [
            {
              "pitch": 55,
              "velocity": 103,
              "position": 0.0020833333333333333,
              "duration": 0.6604166666666667
            },
            {
              "pitch": 60,
              "velocity": 113,
              "position": 0.01875,
              "duration": 0.6604166666666667
            },
            {
              "pitch": 64,
              "velocity": 109,
              "position": 0.03333333333333333,
              "duration": 0.9270833333333334
            },
            {
              "pitch": 55,
              "velocity": 58,
              "position": 0.7270833333333333,
              "duration": 0.24583333333333332
            },
            {
              "pitch": 60,
              "velocity": 68,
              "position": 0.74375,
              "duration": 0.24583333333333332
            },
            {
              "pitch": 55,
              "velocity": 100,
              "position": 1.0104166666666667,
              "duration": 0.9416666666666667
            },
            {
              "pitch": 60,
              "velocity": 110,
              "position": 1.0270833333333333,
              "duration": 0.9416666666666667
            },
            {
              "pitch": 64,
              "velocity": 114,
              "position": 1.04375,
              "duration": 0.9333333333333333
            },
            {
              "pitch": 55,
              "velocity": 103,
              "position": 2.035416666666667,
              "duration": 0.6520833333333333
            },
            {
              "pitch": 60,
              "velocity": 113,
              "position": 2.0520833333333335,
              "duration": 0.6520833333333333
            },
            {
              "pitch": 64,
              "velocity": 114,
              "position": 2.060416666666667,
              "duration": 0.9166666666666666
            },
            {
              "pitch": 55,
              "velocity": 74,
              "position": 2.752083333333333,
              "duration": 0.2375
            },
            {
              "pitch": 60,
              "velocity": 84,
              "position": 2.76875,
              "duration": 0.2375
            },
            {
              "pitch": 55,
              "velocity": 110,
              "position": 3.027083333333333,
              "duration": 0.3875
            },
            {
              "pitch": 60,
              "velocity": 120,
              "position": 3.04375,
              "duration": 0.3875
            },
            {
              "pitch": 64,
              "velocity": 100,
              "position": 3.060416666666667,
              "duration": 0.3729166666666667
            },
            {
              "pitch": 55,
              "velocity": 50,
              "position": 3.51875,
              "duration": 0.18541666666666667
            },
            {
              "pitch": 64,
              "velocity": 65,
              "position": 3.55,
              "duration": 0.16458333333333333
            },
            {
              "pitch": 60,
              "velocity": 60,
              "position": 3.535416666666667,
              "duration": 0.18541666666666667
            },
            {
              "pitch": 55,
              "velocity": 60,
              "position": 3.7375,
              "duration": 0.23958333333333334
            },
            {
              "pitch": 60,
              "velocity": 70,
              "position": 3.754166666666667,
              "duration": 0.23958333333333334
            },
            {
              "pitch": 64,
              "velocity": 74,
              "position": 3.747916666666667,
              "duration": 0.25833333333333336
            },
            {
              "pitch": 55,
              "velocity": 94,
              "position": 4.014583333333333,
              "duration": 0.43333333333333335
            },
            {
              "pitch": 60,
              "velocity": 104,
              "position": 4.03125,
              "duration": 0.43333333333333335
            },
            {
              "pitch": 64,
              "velocity": 116,
              "position": 4.045833333333333,
              "duration": 0.6333333333333333
            },
            {
              "pitch": 55,
              "velocity": 55,
              "position": 4.497916666666667,
              "duration": 0.19583333333333333
            },
            {
              "pitch": 60,
              "velocity": 65,
              "position": 4.514583333333333,
              "duration": 0.19583333333333333
            },
            {
              "pitch": 55,
              "velocity": 115,
              "position": 4.729166666666667,
              "duration": 0.44166666666666665
            },
            {
              "pitch": 64,
              "velocity": 115,
              "position": 4.74375,
              "duration": 0.4354166666666667
            },
            {
              "pitch": 60,
              "velocity": 125,
              "position": 4.745833333333334,
              "duration": 0.44166666666666665
            },
            {
              "pitch": 55,
              "velocity": 59,
              "position": 5.220833333333333,
              "duration": 0.24166666666666667
            },
            {
              "pitch": 60,
              "velocity": 69,
              "position": 5.2375,
              "duration": 0.24166666666666667
            },
            {
              "pitch": 64,
              "velocity": 73,
              "position": 5.229166666666667,
              "duration": 0.26666666666666666
            },
            {
              "pitch": 55,
              "velocity": 100,
              "position": 5.5,
              "duration": 0.19583333333333333
            },
            {
              "pitch": 60,
              "velocity": 110,
              "position": 5.516666666666667,
              "duration": 0.19583333333333333
            },
            {
              "pitch": 64,
              "velocity": 120,
              "position": 5.535416666666666,
              "duration": 0.64375
            },
            {
              "pitch": 55,
              "velocity": 64,
              "position": 5.729166666666667,
              "duration": 0.45625
            },
            {
              "pitch": 60,
              "velocity": 74,
              "position": 5.745833333333334,
              "duration": 0.45625
            },
            {
              "pitch": 55,
              "velocity": 79,
              "position": 6.2375,
              "duration": 0.225
            },
            {
              "pitch": 60,
              "velocity": 89,
              "position": 6.254166666666666,
              "duration": 0.225
            },
            {
              "pitch": 64,
              "velocity": 93,
              "position": 6.24375,
              "duration": 0.24791666666666667
            },
            {
              "pitch": 55,
              "velocity": 91,
              "position": 6.497916666666667,
              "duration": 0.45416666666666666
            },
            {
              "pitch": 60,
              "velocity": 101,
              "position": 6.514583333333333,
              "duration": 0.45416666666666666
            },
            {
              "pitch": 64,
              "velocity": 111,
              "position": 6.529166666666667,
              "duration": 0.45
            },
            {
              "pitch": 55,
              "velocity": 111,
              "position": 7.004166666666666,
              "duration": 0.4395833333333333
            },
            {
              "pitch": 60,
              "velocity": 121,
              "position": 7.020833333333333,
              "duration": 0.4395833333333333
            },
            {
              "pitch": 64,
              "velocity": 105,
              "position": 7.03125,
              "duration": 0.4479166666666667
            },
            {
              "pitch": 55,
              "velocity": 115,
              "position": 7.49375,
              "duration": 0.19583333333333333
            },
            {
              "pitch": 64,
              "velocity": 105,
              "position": 7.53125,
              "duration": 0.16458333333333333
            },
            {
              "pitch": 60,
              "velocity": 125,
              "position": 7.510416666666667,
              "duration": 0.19583333333333333
            },
            {
              "pitch": 55,
              "velocity": 61,
              "position": 7.722916666666666,
              "duration": 0.06875
            },
            {
              "pitch": 64,
              "velocity": 63,
              "position": 7.727083333333334,
              "duration": 0.07916666666666666
            },
            {
              "pitch": 60,
              "velocity": 71,
              "position": 7.739583333333333,
              "duration": 0.06875
            },
            {
              "pitch": 55,
              "velocity": 103,
              "position": 8.002083333333333,
              "duration": 0.6604166666666667
            },
            {
              "pitch": 60,
              "velocity": 113,
              "position": 8.01875,
              "duration": 0.6604166666666667
            },
            {
              "pitch": 64,
              "velocity": 109,
              "position": 8.033333333333333,
              "duration": 0.9270833333333334
            },
            {
              "pitch": 55,
              "velocity": 58,
              "position": 8.727083333333333,
              "duration": 0.24583333333333332
            },
            {
              "pitch": 60,
              "velocity": 68,
              "position": 8.74375,
              "duration": 0.24583333333333332
            },
            {
              "pitch": 55,
              "velocity": 100,
              "position": 9.010416666666666,
              "duration": 0.9416666666666667
            },
            {
              "pitch": 60,
              "velocity": 110,
              "position": 9.027083333333334,
              "duration": 0.9416666666666667
            },
            {
              "pitch": 64,
              "velocity": 114,
              "position": 9.04375,
              "duration": 0.9333333333333333
            },
            {
              "pitch": 55,
              "velocity": 103,
              "position": 10.035416666666666,
              "duration": 0.6520833333333333
            },
            {
              "pitch": 60,
              "velocity": 113,
              "position": 10.052083333333334,
              "duration": 0.6520833333333333
            },
            {
              "pitch": 64,
              "velocity": 114,
              "position": 10.060416666666667,
              "duration": 0.9166666666666666
            },
            {
              "pitch": 55,
              "velocity": 74,
              "position": 10.752083333333333,
              "duration": 0.2375
            },
            {
              "pitch": 60,
              "velocity": 84,
              "position": 10.76875,
              "duration": 0.2375
            },
            {
              "pitch": 55,
              "velocity": 110,
              "position": 11.027083333333334,
              "duration": 0.3875
            },
            {
              "pitch": 60,
              "velocity": 120,
              "position": 11.04375,
              "duration": 0.3875
            },
            {
              "pitch": 64,
              "velocity": 100,
              "position": 11.060416666666667,
              "duration": 0.3729166666666667
            },
            {
              "pitch": 55,
              "velocity": 50,
              "position": 11.51875,
              "duration": 0.18541666666666667
            },
            {
              "pitch": 64,
              "velocity": 65,
              "position": 11.55,
              "duration": 0.16458333333333333
            },
            {
              "pitch": 60,
              "velocity": 60,
              "position": 11.535416666666666,
              "duration": 0.18541666666666667
            },
            {
              "pitch": 55,
              "velocity": 60,
              "position": 11.7375,
              "duration": 0.23958333333333334
            },
            {
              "pitch": 60,
              "velocity": 70,
              "position": 11.754166666666666,
              "duration": 0.23958333333333334
            },
            {
              "pitch": 64,
              "velocity": 74,
              "position": 11.747916666666667,
              "duration": 0.25833333333333336
            },
            {
              "pitch": 55,
              "velocity": 94,
              "position": 12.014583333333333,
              "duration": 0.43333333333333335
            },
            {
              "pitch": 60,
              "velocity": 104,
              "position": 12.03125,
              "duration": 0.43333333333333335
            },
            {
              "pitch": 64,
              "velocity": 116,
              "position": 12.045833333333333,
              "duration": 0.6333333333333333
            },
            {
              "pitch": 55,
              "velocity": 55,
              "position": 12.497916666666667,
              "duration": 0.19583333333333333
            },
            {
              "pitch": 60,
              "velocity": 65,
              "position": 12.514583333333333,
              "duration": 0.19583333333333333
            },
            {
              "pitch": 55,
              "velocity": 115,
              "position": 12.729166666666666,
              "duration": 0.44166666666666665
            },
            {
              "pitch": 64,
              "velocity": 115,
              "position": 12.74375,
              "duration": 0.4354166666666667
            },
            {
              "pitch": 60,
              "velocity": 125,
              "position": 12.745833333333334,
              "duration": 0.44166666666666665
            },
            {
              "pitch": 55,
              "velocity": 59,
              "position": 13.220833333333333,
              "duration": 0.24166666666666667
            },
            {
              "pitch": 60,
              "velocity": 69,
              "position": 13.2375,
              "duration": 0.24166666666666667
            },
            {
              "pitch": 64,
              "velocity": 73,
              "position": 13.229166666666666,
              "duration": 0.26666666666666666
            },
            {
              "pitch": 55,
              "velocity": 100,
              "position": 13.5,
              "duration": 0.19583333333333333
            },
            {
              "pitch": 60,
              "velocity": 110,
              "position": 13.516666666666667,
              "duration": 0.19583333333333333
            },
            {
              "pitch": 64,
              "velocity": 120,
              "position": 13.535416666666666,
              "duration": 0.64375
            },
            {
              "pitch": 55,
              "velocity": 64,
              "position": 13.729166666666666,
              "duration": 0.45625
            },
            {
              "pitch": 60,
              "velocity": 74,
              "position": 13.745833333333334,
              "duration": 0.45625
            },
            {
              "pitch": 55,
              "velocity": 79,
              "position": 14.2375,
              "duration": 0.225
            },
            {
              "pitch": 60,
              "velocity": 89,
              "position": 14.254166666666666,
              "duration": 0.225
            },
            {
              "pitch": 64,
              "velocity": 93,
              "position": 14.24375,
              "duration": 0.24791666666666667
            },
            {
              "pitch": 55,
              "velocity": 91,
              "position": 14.497916666666667,
              "duration": 0.45416666666666666
            },
            {
              "pitch": 60,
              "velocity": 101,
              "position": 14.514583333333333,
              "duration": 0.45416666666666666
            },
            {
              "pitch": 64,
              "velocity": 111,
              "position": 14.529166666666667,
              "duration": 0.45
            },
            {
              "pitch": 55,
              "velocity": 111,
              "position": 15.004166666666666,
              "duration": 0.4395833333333333
            },
            {
              "pitch": 60,
              "velocity": 121,
              "position": 15.020833333333334,
              "duration": 0.4395833333333333
            },
            {
              "pitch": 64,
              "velocity": 105,
              "position": 15.03125,
              "duration": 0.4479166666666667
            },
            {
              "pitch": 55,
              "velocity": 115,
              "position": 15.49375,
              "duration": 0.19583333333333333
            },
            {
              "pitch": 64,
              "velocity": 105,
              "position": 15.53125,
              "duration": 0.16458333333333333
            },
            {
              "pitch": 60,
              "velocity": 125,
              "position": 15.510416666666666,
              "duration": 0.19583333333333333
            },
            {
              "pitch": 55,
              "velocity": 61,
              "position": 15.722916666666666,
              "duration": 0.06875
            },
            {
              "pitch": 64,
              "velocity": 63,
              "position": 15.727083333333333,
              "duration": 0.07916666666666666
            },
            {
              "pitch": 60,
              "velocity": 71,
              "position": 15.739583333333334,
              "duration": 0.06875
            }
          ]
        },
        "12": {
          "ctab": {
            "srcChannel": 12,
            "name": "mutedgtr",
            "accType": "CHORD2",
            "editable": false,
            "mutedNotes": [],
            "mutedChords": [],
            "autoStart": false,
            "sourceChordNote": 0,
            "sourceChordType": "Maj",
            "ctb2Low": null,
            "ctb2Main": {
              "ntr": "ROOT_FIXED",
              "ntt": "CHORD",
              "bassOn": false,
              "chordRootUpperLimit": 3,
              "noteLowLimit": 0,
              "noteHighLimit": 127,
              "rtr": "PITCH_SHIFT"
            },
            "ctb2High": null
          },
          "notes": []
        },
        "13": {
          "ctab": {
            "srcChannel": 13,
            "name": "gtr",
            "accType": "PAD",
            "editable": false,
            "mutedNotes": [],
            "mutedChords": [],
            "autoStart": false,
            "sourceChordNote": 0,
            "sourceChordType": "Maj",
            "ctb2Low": null,
            "ctb2Main": {
              "ntr": "ROOT_TRANSPOSITION",
              "ntt": "MELODY",
              "bassOn": true,
              "chordRootUpperLimit": 6,
              "noteLowLimit": 56,
              "noteHighLimit": 69,
              "rtr": "PITCH_SHIFT"
            },
            "ctb2High": null
          },
          "notes": [
            {
              "pitch": 60,
              "velocity": 94,
              "position": 0,
              "duration": 2.870833333333333
            },
            {
              "pitch": 64,
              "velocity": 94,
              "position": 0,
              "duration": 2.870833333333333
            },
            {
              "pitch": 55,
              "velocity": 94,
              "position": 0,
              "duration": 2.872916666666667
            },
            {
              "pitch": 64,
              "velocity": 94,
              "position": 3,
              "duration": 0.85625
            },
            {
              "pitch": 55,
              "velocity": 94,
              "position": 3,
              "duration": 0.8583333333333333
            },
            {
              "pitch": 60,
              "velocity": 94,
              "position": 3,
              "duration": 0.8583333333333333
            },
            {
              "pitch": 55,
              "velocity": 94,
              "position": 4,
              "duration": 2.870833333333333
            },
            {
              "pitch": 60,
              "velocity": 94,
              "position": 4,
              "duration": 2.870833333333333
            },
            {
              "pitch": 64,
              "velocity": 94,
              "position": 4,
              "duration": 2.870833333333333
            },
            {
              "pitch": 55,
              "velocity": 94,
              "position": 7,
              "duration": 0.86875
            },
            {
              "pitch": 60,
              "velocity": 94,
              "position": 7,
              "duration": 0.86875
            },
            {
              "pitch": 64,
              "velocity": 94,
              "position": 7,
              "duration": 0.86875
            },
            {
              "pitch": 55,
              "velocity": 94,
              "position": 8,
              "duration": 2.875
            },
            {
              "pitch": 60,
              "velocity": 94,
              "position": 8,
              "duration": 2.875
            },
            {
              "pitch": 64,
              "velocity": 94,
              "position": 8,
              "duration": 2.875
            },
            {
              "pitch": 55,
              "velocity": 94,
              "position": 11,
              "duration": 0.8770833333333333
            },
            {
              "pitch": 60,
              "velocity": 94,
              "position": 11,
              "duration": 0.8770833333333333
            },
            {
              "pitch": 64,
              "velocity": 94,
              "position": 11,
              "duration": 0.8791666666666667
            },
            {
              "pitch": 55,
              "velocity": 94,
              "position": 12,
              "duration": 2.86875
            },
            {
              "pitch": 60,
              "velocity": 94,
              "position": 12,
              "duration": 2.86875
            },
            {
              "pitch": 64,
              "velocity": 94,
              "position": 12,
              "duration": 2.872916666666667
            },
            {
              "pitch": 55,
              "velocity": 94,
              "position": 15,
              "duration": 0.8770833333333333
            },
            {
              "pitch": 60,
              "velocity": 94,
              "position": 15,
              "duration": 0.8770833333333333
            },
            {
              "pitch": 64,
              "velocity": 94,
              "position": 15,
              "duration": 0.8770833333333333
            }
          ]
        },
        "14": {
          "ctab": {
            "srcChannel": 14,
            "name": "dist",
            "accType": "PHRASE1",
            "editable": false,
            "mutedNotes": [],
            "mutedChords": [],
            "autoStart": false,
            "sourceChordNote": 0,
            "sourceChordType": "Maj",
            "ctb2Low": null,
            "ctb2Main": {
              "ntr": "ROOT_FIXED",
              "ntt": "CHORD",
              "bassOn": false,
              "chordRootUpperLimit": 4,
              "noteLowLimit": 0,
              "noteHighLimit": 127,
              "rtr": "PITCH_SHIFT"
            },
            "ctb2High": null
          },
          "notes": []
        },
        "15": {
          "ctab": {
            "srcChannel": 15,
            "name": "overdr",
            "accType": "PHRASE2",
            "editable": false,
            "mutedNotes": [],
            "mutedChords": [],
            "autoStart": false,
            "sourceChordNote": 0,
            "sourceChordType": "Maj",
            "ctb2Low": null,
            "ctb2Main": {
              "ntr": "ROOT_TRANSPOSITION",
              "ntt": "MELODY",
              "bassOn": true,
              "chordRootUpperLimit": 4,
              "noteLowLimit": 0,
              "noteHighLimit": 127,
              "rtr": "PITCH_SHIFT"
            },
            "ctb2High": null
          },
          "notes": [
            {
              "pitch": 48,
              "velocity": 127,
              "position": 0,
              "duration": 0.24166666666666667
            },
            {
              "pitch": 48,
              "velocity": 100,
              "position": 0.25,
              "duration": 0.19583333333333333
            },
            {
              "pitch": 48,
              "velocity": 116,
              "position": 0.7729166666666667,
              "duration": 0.12708333333333333
            },
            {
              "pitch": 48,
              "velocity": 127,
              "position": 1.0020833333333334,
              "duration": 0.2375
            },
            {
              "pitch": 48,
              "velocity": 118,
              "position": 1.2520833333333334,
              "duration": 0.21458333333333332
            },
            {
              "pitch": 48,
              "velocity": 124,
              "position": 1.7479166666666666,
              "duration": 0.11666666666666667
            },
            {
              "pitch": 48,
              "velocity": 127,
              "position": 1.9791666666666667,
              "duration": 0.2833333333333333
            },
            {
              "pitch": 48,
              "velocity": 107,
              "position": 2.2645833333333334,
              "duration": 0.18125
            },
            {
              "pitch": 48,
              "velocity": 120,
              "position": 2.747916666666667,
              "duration": 0.14166666666666666
            },
            {
              "pitch": 48,
              "velocity": 124,
              "position": 3.247916666666667,
              "duration": 0.004166666666666667
            },
            {
              "pitch": 48,
              "velocity": 127,
              "position": 3.74375,
              "duration": 0.2
            },
            {
              "pitch": 48,
              "velocity": 124,
              "position": 3.972916666666667,
              "duration": 0.7270833333333333
            },
            {
              "pitch": 48,
              "velocity": 119,
              "position": 4.727083333333334,
              "duration": 0.7541666666666667
            },
            {
              "pitch": 48,
              "velocity": 119,
              "position": 6.458333333333333,
              "duration": 0.0020833333333333333
            },
            {
              "pitch": 48,
              "velocity": 116,
              "position": 7.2375,
              "duration": 0.6645833333333333
            },
            {
              "pitch": 48,
              "velocity": 123,
              "position": 7.995833333333334,
              "duration": 0.24166666666666667
            },
            {
              "pitch": 48,
              "velocity": 97,
              "position": 8.247916666666667,
              "duration": 0.21875
            },
            {
              "pitch": 48,
              "velocity": 117,
              "position": 8.758333333333333,
              "duration": 0.14166666666666666
            },
            {
              "pitch": 48,
              "velocity": 121,
              "position": 8.995833333333334,
              "duration": 0.2604166666666667
            },
            {
              "pitch": 48,
              "velocity": 115,
              "position": 9.25625,
              "duration": 0.16875
            },
            {
              "pitch": 48,
              "velocity": 116,
              "position": 9.747916666666667,
              "duration": 0.11458333333333333
            },
            {
              "pitch": 48,
              "velocity": 126,
              "position": 9.985416666666667,
              "duration": 0.26458333333333334
            },
            {
              "pitch": 48,
              "velocity": 103,
              "position": 10.254166666666666,
              "duration": 0.16041666666666668
            },
            {
              "pitch": 48,
              "velocity": 107,
              "position": 10.752083333333333,
              "duration": 0.12916666666666668
            },
            {
              "pitch": 48,
              "velocity": 124,
              "position": 10.985416666666667,
              "duration": 0.2625
            },
            {
              "pitch": 48,
              "velocity": 115,
              "position": 11.254166666666666,
              "duration": 0.1625
            },
            {
              "pitch": 48,
              "velocity": 127,
              "position": 11.739583333333334,
              "duration": 0.17291666666666666
            },
            {
              "pitch": 48,
              "velocity": 127,
              "position": 11.972916666666666,
              "duration": 0.7479166666666667
            },
            {
              "pitch": 48,
              "velocity": 120,
              "position": 13.48125,
              "duration": 0.00625
            },
            {
              "pitch": 48,
              "velocity": 123,
              "position": 15.227083333333333,
              "duration": 0.004166666666666667
            }
          ]
        }
      }
    },
    "Fill_In_AA": {
      "type": "Fill_In_AA",
      "sizeInBeats": 4,
      "channels": {
        "8": {
          "ctab": {
            "srcChannel": 8,
            "name": "add-drum",
            "accType": "SUBRHYTHM",
            "editable": false,
            "mutedNotes": [],
            "mutedChords": [],
            "autoStart": true,
            "sourceChordNote": 0,
            "sourceChordType": "Maj7",
            "ctb2Low": null,
            "ctb2Main": {
              "ntr": "ROOT_FIXED",
              "ntt": "BYPASS",
              "bassOn": false,
              "chordRootUpperLimit": 6,
              "noteLowLimit": 0,
              "noteHighLimit": 127,
              "rtr": "PITCH_SHIFT"
            },
            "ctb2High": null
          },
          "notes": []
        },
        "9": {
          "ctab": {
            "srcChannel": 9,
            "name": "main-dru",
            "accType": "RHYTHM",
            "editable": false,
            "mutedNotes": [],
            "mutedChords": [],
            "autoStart": true,
            "sourceChordNote": 0,
            "sourceChordType": "Maj7",
            "ctb2Low": null,
            "ctb2Main": {
              "ntr": "ROOT_FIXED",
              "ntt": "BYPASS",
              "bassOn": false,
              "chordRootUpperLimit": 6,
              "noteLowLimit": 0,
              "noteHighLimit": 127,
              "rtr": "PITCH_SHIFT"
            },
            "ctb2High": null
          },
          "notes": [
            {
              "pitch": 36,
              "velocity": 106,
              "position": 0,
              "duration": 0.010416666666666666
            },
            {
              "pitch": 42,
              "velocity": 74,
              "position": 0,
              "duration": 0.010416666666666666
            },
            {
              "pitch": 42,
              "velocity": 70,
              "position": 0.5,
              "duration": 0.010416666666666666
            },
            {
              "pitch": 40,
              "velocity": 87,
              "position": 1,
              "duration": 0.010416666666666666
            },
            {
              "pitch": 42,
              "velocity": 72,
              "position": 1,
              "duration": 0.010416666666666666
            },
            {
              "pitch": 36,
              "velocity": 94,
              "position": 1.5,
              "duration": 0.010416666666666666
            },
            {
              "pitch": 42,
              "velocity": 71,
              "position": 1.5,
              "duration": 0.010416666666666666
            },
            {
              "pitch": 36,
              "velocity": 104,
              "position": 2,
              "duration": 0.010416666666666666
            },
            {
              "pitch": 42,
              "velocity": 75,
              "position": 2,
              "duration": 0.010416666666666666
            },
            {
              "pitch": 36,
              "velocity": 92,
              "position": 2.5,
              "duration": 0.010416666666666666
            },
            {
              "pitch": 40,
              "velocity": 78,
              "position": 2.5,
              "duration": 0.010416666666666666
            },
            {
              "pitch": 42,
              "velocity": 71,
              "position": 2.5,
              "duration": 0.010416666666666666
            },
            {
              "pitch": 40,
              "velocity": 58,
              "position": 2.7729166666666667,
              "duration": 0.010416666666666666
            },
            {
              "pitch": 36,
              "velocity": 93,
              "position": 3,
              "duration": 0.010416666666666666
            },
            {
              "pitch": 40,
              "velocity": 80,
              "position": 3,
              "duration": 0.010416666666666666
            },
            {
              "pitch": 42,
              "velocity": 69,
              "position": 3,
              "duration": 0.010416666666666666
            },
            {
              "pitch": 40,
              "velocity": 66,
              "position": 3.2666666666666666,
              "duration": 0.010416666666666666
            },
            {
              "pitch": 36,
              "velocity": 104,
              "position": 3.5,
              "duration": 0.010416666666666666
            },
            {
              "pitch": 40,
              "velocity": 79,
              "position": 3.5,
              "duration": 0.010416666666666666
            },
            {
              "pitch": 42,
              "velocity": 73,
              "position": 3.5,
              "duration": 0.010416666666666666
            },
            {
              "pitch": 40,
              "velocity": 87,
              "position": 3.752083333333333,
              "duration": 0.010416666666666666
            },
            {
              "pitch": 49,
              "velocity": 65,
              "position": 3.9895833333333335,
              "duration": 0.010416666666666666
            }
          ]
        },
        "10": {
          "ctab": {
            "srcChannel": 10,
            "name": "Bass",
            "accType": "BASS",
            "editable": false,
            "mutedNotes": [],
            "mutedChords": [],
            "autoStart": false,
            "sourceChordNote": 0,
            "sourceChordType": "Maj7",
            "ctb2Low": null,
            "ctb2Main": {
              "ntr": "ROOT_TRANSPOSITION",
              "ntt": "MELODY",
              "bassOn": true,
              "chordRootUpperLimit": 3,
              "noteLowLimit": 28,
              "noteHighLimit": 127,
              "rtr": "PITCH_SHIFT_TO_ROOT"
            },
            "ctb2High": null
          },
          "notes": [
            {
              "pitch": 24,
              "velocity": 60,
              "position": 0,
              "duration": 0.7416666666666667
            },
            {
              "pitch": 24,
              "velocity": 60,
              "position": 0.75,
              "duration": 0.6958333333333333
            },
            {
              "pitch": 24,
              "velocity": 60,
              "position": 1.5,
              "duration": 0.7375
            },
            {
              "pitch": 24,
              "velocity": 60,
              "position": 2.25,
              "duration": 0.46458333333333335
            },
            {
              "pitch": 31,
              "velocity": 60,
              "position": 2.75,
              "duration": 0.14375
            },
            {
              "pitch": 31,
              "velocity": 60,
              "position": 3,
              "duration": 0.46458333333333335
            },
            {
              "pitch": 28,
              "velocity": 60,
              "position": 3.5,
              "duration": 0.15833333333333333
            },
            {
              "pitch": 31,
              "velocity": 60,
              "position": 3.75,
              "duration": 0.1625
            }
          ]
        },
        "11": {
          "ctab": {
            "srcChannel": 11,
            "name": "piano",
            "accType": "CHORD1",
            "editable": false,
            "mutedNotes": [],
            "mutedChords": [],
            "autoStart": false,
            "sourceChordNote": 0,
            "sourceChordType": "Maj",
            "ctb2Low": null,
            "ctb2Main": {
              "ntr": "ROOT_FIXED",
              "ntt": "CHORD",
              "bassOn": false,
              "chordRootUpperLimit": 9,
              "noteLowLimit": 0,
              "noteHighLimit": 127,
              "rtr": "PITCH_SHIFT"
            },
            "ctb2High": null
          },
          "notes": [
            {
              "pitch": 60,
              "velocity": 111,
              "position": 0.008333333333333333,
              "duration": 0.19375
            },
            {
              "pitch": 55,
              "velocity": 120,
              "position": 0.0020833333333333333,
              "duration": 0.20833333333333334
            },
            {
              "pitch": 64,
              "velocity": 125,
              "position": 0.016666666666666666,
              "duration": 0.4375
            },
            {
              "pitch": 55,
              "velocity": 87,
              "position": 0.25625,
              "duration": 0.21041666666666667
            },
            {
              "pitch": 60,
              "velocity": 79,
              "position": 0.25,
              "duration": 0.225
            },
            {
              "pitch": 64,
              "velocity": 87,
              "position": 0.5145833333333333,
              "duration": 0.17708333333333334
            },
            {
              "pitch": 60,
              "velocity": 61,
              "position": 0.5083333333333333,
              "duration": 0.19583333333333333
            },
            {
              "pitch": 55,
              "velocity": 66,
              "position": 0.5,
              "duration": 0.225
            },
            {
              "pitch": 55,
              "velocity": 127,
              "position": 0.7625,
              "duration": 0.20625
            },
            {
              "pitch": 60,
              "velocity": 127,
              "position": 0.7541666666666667,
              "duration": 0.23541666666666666
            },
            {
              "pitch": 64,
              "velocity": 124,
              "position": 0.7479166666666667,
              "duration": 0.4375
            },
            {
              "pitch": 60,
              "velocity": 83,
              "position": 1.0083333333333333,
              "duration": 0.18958333333333333
            },
            {
              "pitch": 55,
              "velocity": 78,
              "position": 1,
              "duration": 0.21666666666666667
            },
            {
              "pitch": 55,
              "velocity": 83,
              "position": 1.2604166666666667,
              "duration": 0.22291666666666668
            },
            {
              "pitch": 60,
              "velocity": 80,
              "position": 1.2541666666666667,
              "duration": 0.24791666666666667
            },
            {
              "pitch": 64,
              "velocity": 127,
              "position": 1.5166666666666666,
              "duration": 0.004166666666666667
            },
            {
              "pitch": 60,
              "velocity": 118,
              "position": 1.5083333333333333,
              "duration": 0.1875
            },
            {
              "pitch": 55,
              "velocity": 127,
              "position": 1.5020833333333334,
              "duration": 0.21041666666666667
            },
            {
              "pitch": 55,
              "velocity": 96,
              "position": 1.75625,
              "duration": 0.2125
            },
            {
              "pitch": 60,
              "velocity": 87,
              "position": 1.75,
              "duration": 0.2375
            },
            {
              "pitch": 64,
              "velocity": 88,
              "position": 2.0166666666666666,
              "duration": 0.16666666666666666
            },
            {
              "pitch": 60,
              "velocity": 90,
              "position": 2.0083333333333333,
              "duration": 0.19791666666666666
            },
            {
              "pitch": 55,
              "velocity": 94,
              "position": 2,
              "duration": 0.22083333333333333
            },
            {
              "pitch": 55,
              "velocity": 125,
              "position": 2.2625,
              "duration": 0.20833333333333334
            },
            {
              "pitch": 60,
              "velocity": 127,
              "position": 2.25625,
              "duration": 0.21875
            },
            {
              "pitch": 64,
              "velocity": 127,
              "position": 2.247916666666667,
              "duration": 0.42291666666666666
            },
            {
              "pitch": 55,
              "velocity": 85,
              "position": 2.5,
              "duration": 0.17291666666666666
            },
            {
              "pitch": 60,
              "velocity": 74,
              "position": 2.50625,
              "duration": 0.16875
            },
            {
              "pitch": 55,
              "velocity": 88,
              "position": 2.75,
              "duration": 0.21875
            },
            {
              "pitch": 55,
              "velocity": 127,
              "position": 3.002083333333333,
              "duration": 0.20416666666666666
            },
            {
              "pitch": 60,
              "velocity": 127,
              "position": 3.0083333333333333,
              "duration": 0.44583333333333336
            },
            {
              "pitch": 64,
              "velocity": 113,
              "position": 3.0145833333333334,
              "duration": 0.44583333333333336
            },
            {
              "pitch": 55,
              "velocity": 65,
              "position": 3.25,
              "duration": 0.225
            },
            {
              "pitch": 64,
              "velocity": 85,
              "position": 3.5145833333333334,
              "duration": 0.17291666666666666
            },
            {
              "pitch": 55,
              "velocity": 91,
              "position": 3.502083333333333,
              "duration": 0.1875
            },
            {
              "pitch": 60,
              "velocity": 103,
              "position": 3.5083333333333333,
              "duration": 0.18125
            },
            {
              "pitch": 55,
              "velocity": 98,
              "position": 3.7604166666666665,
              "duration": 0.19166666666666668
            },
            {
              "pitch": 60,
              "velocity": 106,
              "position": 3.754166666666667,
              "duration": 0.2125
            },
            {
              "pitch": 64,
              "velocity": 94,
              "position": 3.745833333333333,
              "duration": 0.22708333333333333
            }
          ]
        },
        "12": {
          "ctab": {
            "srcChannel": 12,
            "name": "mutedgtr",
            "accType": "CHORD2",
            "editable": false,
            "mutedNotes": [],
            "mutedChords": [],
            "autoStart": false,
            "sourceChordNote": 0,
            "sourceChordType": "Maj",
            "ctb2Low": null,
            "ctb2Main": {
              "ntr": "ROOT_FIXED",
              "ntt": "CHORD",
              "bassOn": false,
              "chordRootUpperLimit": 3,
              "noteLowLimit": 0,
              "noteHighLimit": 127,
              "rtr": "PITCH_SHIFT"
            },
            "ctb2High": null
          },
          "notes": [
            {
              "pitch": 55,
              "velocity": 112,
              "position": 0,
              "duration": 2.75
            },
            {
              "pitch": 60,
              "velocity": 114,
              "position": 0.0125,
              "duration": 2.7375
            },
            {
              "pitch": 64,
              "velocity": 114,
              "position": 0.041666666666666664,
              "duration": 2.7083333333333335
            },
            {
              "pitch": 55,
              "velocity": 71,
              "position": 2.79375,
              "duration": 0.18125
            },
            {
              "pitch": 60,
              "velocity": 73,
              "position": 2.779166666666667,
              "duration": 0.21041666666666667
            },
            {
              "pitch": 64,
              "velocity": 71,
              "position": 2.7666666666666666,
              "duration": 0.25416666666666665
            },
            {
              "pitch": 55,
              "velocity": 101,
              "position": 2.995833333333333,
              "duration": 0.7541666666666667
            },
            {
              "pitch": 60,
              "velocity": 112,
              "position": 3.0104166666666665,
              "duration": 0.7395833333333334
            },
            {
              "pitch": 64,
              "velocity": 109,
              "position": 3.0416666666666665,
              "duration": 0.7083333333333334
            },
            {
              "pitch": 55,
              "velocity": 65,
              "position": 3.8041666666666667,
              "duration": 0.13958333333333334
            },
            {
              "pitch": 60,
              "velocity": 73,
              "position": 3.7875,
              "duration": 0.16666666666666666
            },
            {
              "pitch": 64,
              "velocity": 68,
              "position": 3.775,
              "duration": 0.20833333333333334
            }
          ]
        },
        "13": {
          "ctab": {
            "srcChannel": 13,
            "name": "gtr",
            "accType": "PAD",
            "editable": false,
            "mutedNotes": [],
            "mutedChords": [],
            "autoStart": false,
            "sourceChordNote": 0,
            "sourceChordType": "Maj",
            "ctb2Low": null,
            "ctb2Main": {
              "ntr": "ROOT_TRANSPOSITION",
              "ntt": "MELODY",
              "bassOn": true,
              "chordRootUpperLimit": 6,
              "noteLowLimit": 56,
              "noteHighLimit": 69,
              "rtr": "PITCH_SHIFT"
            },
            "ctb2High": null
          },
          "notes": [
            {
              "pitch": 60,
              "velocity": 94,
              "position": 0,
              "duration": 2.870833333333333
            },
            {
              "pitch": 64,
              "velocity": 94,
              "position": 0,
              "duration": 2.870833333333333
            },
            {
              "pitch": 55,
              "velocity": 94,
              "position": 0,
              "duration": 2.872916666666667
            },
            {
              "pitch": 64,
              "velocity": 94,
              "position": 3,
              "duration": 0.85625
            },
            {
              "pitch": 55,
              "velocity": 94,
              "position": 3,
              "duration": 0.8583333333333333
            },
            {
              "pitch": 60,
              "velocity": 94,
              "position": 3,
              "duration": 0.8583333333333333
            }
          ]
        },
        "14": {
          "ctab": {
            "srcChannel": 14,
            "name": "dist",
            "accType": "PHRASE1",
            "editable": false,
            "mutedNotes": [],
            "mutedChords": [],
            "autoStart": false,
            "sourceChordNote": 0,
            "sourceChordType": "Maj",
            "ctb2Low": null,
            "ctb2Main": {
              "ntr": "ROOT_FIXED",
              "ntt": "CHORD",
              "bassOn": false,
              "chordRootUpperLimit": 4,
              "noteLowLimit": 0,
              "noteHighLimit": 127,
              "rtr": "PITCH_SHIFT"
            },
            "ctb2High": null
          },
          "notes": []
        },
        "15": {
          "ctab": {
            "srcChannel": 15,
            "name": "overdr",
            "accType": "PHRASE2",
            "editable": false,
            "mutedNotes": [],
            "mutedChords": [],
            "autoStart": false,
            "sourceChordNote": 0,
            "sourceChordType": "Maj",
            "ctb2Low": null,
            "ctb2Main": {
              "ntr": "ROOT_TRANSPOSITION",
              "ntt": "MELODY",
              "bassOn": true,
              "chordRootUpperLimit": 4,
              "noteLowLimit": 0,
              "noteHighLimit": 127,
              "rtr": "PITCH_SHIFT"
            },
            "ctb2High": null
          },
          "notes": [
            {
              "pitch": 48,
              "velocity": 69,
              "position": 2.752083333333333,
              "duration": 0.020833333333333332
            },
            {
              "pitch": 55,
              "velocity": 53,
              "position": 2.779166666666667,
              "duration": 0.004166666666666667
            },
            {
              "pitch": 48,
              "velocity": 72,
              "position": 3.75,
              "duration": 0.00625
            },
            {
              "pitch": 55,
              "velocity": 56,
              "position": 3.76875,
              "duration": 0.010416666666666666
            }
          ]
        }
      }
    },
    "Fill_In_BB": {
      "type": "Fill_In_BB",
      "sizeInBeats": 4,
      "channels": {
        "8": {
          "ctab": {
            "srcChannel": 8,
            "name": "add-drum",
            "accType": "SUBRHYTHM",
            "editable": false,
            "mutedNotes": [],
            "mutedChords": [],
            "autoStart": true,
            "sourceChordNote": 0,
            "sourceChordType": "Maj7",
            "ctb2Low": null,
            "ctb2Main": {
              "ntr": "ROOT_FIXED",
              "ntt": "BYPASS",
              "bassOn": false,
              "chordRootUpperLimit": 6,
              "noteLowLimit": 0,
              "noteHighLimit": 127,
              "rtr": "PITCH_SHIFT"
            },
            "ctb2High": null
          },
          "notes": [
            {
              "pitch": 54,
              "velocity": 65,
              "position": 0.00625,
              "duration": 0.010416666666666666
            },
            {
              "pitch": 54,
              "velocity": 34,
              "position": 0.26666666666666666,
              "duration": 0.010416666666666666
            },
            {
              "pitch": 54,
              "velocity": 48,
              "position": 0.5041666666666667,
              "duration": 0.010416666666666666
            },
            {
              "pitch": 54,
              "velocity": 39,
              "position": 0.7583333333333333,
              "duration": 0.010416666666666666
            },
            {
              "pitch": 54,
              "velocity": 69,
              "position": 0.9958333333333333,
              "duration": 0.010416666666666666
            },
            {
              "pitch": 54,
              "velocity": 35,
              "position": 1.2604166666666667,
              "duration": 0.010416666666666666
            },
            {
              "pitch": 54,
              "velocity": 48,
              "position": 1.4958333333333333,
              "duration": 0.010416666666666666
            },
            {
              "pitch": 54,
              "velocity": 31,
              "position": 1.75625,
              "duration": 0.010416666666666666
            },
            {
              "pitch": 54,
              "velocity": 72,
              "position": 2.004166666666667,
              "duration": 0.010416666666666666
            },
            {
              "pitch": 54,
              "velocity": 41,
              "position": 2.2666666666666666,
              "duration": 0.010416666666666666
            },
            {
              "pitch": 54,
              "velocity": 42,
              "position": 2.5,
              "duration": 0.010416666666666666
            },
            {
              "pitch": 54,
              "velocity": 32,
              "position": 2.7583333333333333,
              "duration": 0.010416666666666666
            },
            {
              "pitch": 54,
              "velocity": 69,
              "position": 3,
              "duration": 0.010416666666666666
            },
            {
              "pitch": 54,
              "velocity": 44,
              "position": 3.275,
              "duration": 0.010416666666666666
            },
            {
              "pitch": 54,
              "velocity": 44,
              "position": 3.502083333333333,
              "duration": 0.010416666666666666
            },
            {
              "pitch": 54,
              "velocity": 44,
              "position": 3.752083333333333,
              "duration": 0.010416666666666666
            }
          ]
        },
        "9": {
          "ctab": {
            "srcChannel": 9,
            "name": "main-dru",
            "accType": "RHYTHM",
            "editable": false,
            "mutedNotes": [],
            "mutedChords": [],
            "autoStart": true,
            "sourceChordNote": 0,
            "sourceChordType": "Maj7",
            "ctb2Low": null,
            "ctb2Main": {
              "ntr": "ROOT_FIXED",
              "ntt": "BYPASS",
              "bassOn": false,
              "chordRootUpperLimit": 6,
              "noteLowLimit": 0,
              "noteHighLimit": 127,
              "rtr": "PITCH_SHIFT"
            },
            "ctb2High": null
          },
          "notes": [
            {
              "pitch": 36,
              "velocity": 106,
              "position": 0,
              "duration": 0.010416666666666666
            },
            {
              "pitch": 44,
              "velocity": 70,
              "position": 0,
              "duration": 0.010416666666666666
            },
            {
              "pitch": 57,
              "velocity": 70,
              "position": 0,
              "duration": 0.010416666666666666
            },
            {
              "pitch": 51,
              "velocity": 64,
              "position": 0.5166666666666667,
              "duration": 0.010416666666666666
            },
            {
              "pitch": 40,
              "velocity": 89,
              "position": 1,
              "duration": 0.010416666666666666
            },
            {
              "pitch": 44,
              "velocity": 75,
              "position": 1,
              "duration": 0.010416666666666666
            },
            {
              "pitch": 51,
              "velocity": 76,
              "position": 1.0145833333333334,
              "duration": 0.010416666666666666
            },
            {
              "pitch": 51,
              "velocity": 72,
              "position": 1.5145833333333334,
              "duration": 0.010416666666666666
            },
            {
              "pitch": 36,
              "velocity": 106,
              "position": 2,
              "duration": 0.010416666666666666
            },
            {
              "pitch": 44,
              "velocity": 77,
              "position": 2,
              "duration": 0.010416666666666666
            },
            {
              "pitch": 57,
              "velocity": 63,
              "position": 2,
              "duration": 0.010416666666666666
            },
            {
              "pitch": 51,
              "velocity": 62,
              "position": 2.5145833333333334,
              "duration": 0.010416666666666666
            },
            {
              "pitch": 36,
              "velocity": 86,
              "position": 2.775,
              "duration": 0.010416666666666666
            },
            {
              "pitch": 40,
              "velocity": 88,
              "position": 3,
              "duration": 0.010416666666666666
            },
            {
              "pitch": 44,
              "velocity": 73,
              "position": 3,
              "duration": 0.010416666666666666
            },
            {
              "pitch": 51,
              "velocity": 79,
              "position": 3.0125,
              "duration": 0.010416666666666666
            },
            {
              "pitch": 36,
              "velocity": 95,
              "position": 3.5,
              "duration": 0.010416666666666666
            },
            {
              "pitch": 51,
              "velocity": 73,
              "position": 3.5125,
              "duration": 0.010416666666666666
            },
            {
              "pitch": 49,
              "velocity": 75,
              "position": 3.9895833333333335,
              "duration": 0.010416666666666666
            }
          ]
        },
        "10": {
          "ctab": {
            "srcChannel": 10,
            "name": "Bass",
            "accType": "BASS",
            "editable": false,
            "mutedNotes": [],
            "mutedChords": [],
            "autoStart": false,
            "sourceChordNote": 0,
            "sourceChordType": "Maj7",
            "ctb2Low": null,
            "ctb2Main": {
              "ntr": "ROOT_TRANSPOSITION",
              "ntt": "MELODY",
              "bassOn": true,
              "chordRootUpperLimit": 3,
              "noteLowLimit": 28,
              "noteHighLimit": 127,
              "rtr": "PITCH_SHIFT_TO_ROOT"
            },
            "ctb2High": null
          },
          "notes": [
            {
              "pitch": 24,
              "velocity": 60,
              "position": 0,
              "duration": 2.2416666666666667
            },
            {
              "pitch": 24,
              "velocity": 60,
              "position": 2.5,
              "duration": 0.47708333333333336
            },
            {
              "pitch": 24,
              "velocity": 60,
              "position": 3,
              "duration": 0.93125
            }
          ]
        },
        "11": {
          "ctab": {
            "srcChannel": 11,
            "name": "piano",
            "accType": "CHORD1",
            "editable": false,
            "mutedNotes": [],
            "mutedChords": [],
            "autoStart": false,
            "sourceChordNote": 0,
            "sourceChordType": "Maj",
            "ctb2Low": null,
            "ctb2Main": {
              "ntr": "ROOT_FIXED",
              "ntt": "CHORD",
              "bassOn": false,
              "chordRootUpperLimit": 9,
              "noteLowLimit": 0,
              "noteHighLimit": 127,
              "rtr": "PITCH_SHIFT"
            },
            "ctb2High": null
          },
          "notes": [
            {
              "pitch": 55,
              "velocity": 103,
              "position": 0,
              "duration": 0.6895833333333333
            },
            {
              "pitch": 60,
              "velocity": 117,
              "position": 0.008333333333333333,
              "duration": 0.9145833333333333
            },
            {
              "pitch": 64,
              "velocity": 114,
              "position": 0.016666666666666666,
              "duration": 0.925
            },
            {
              "pitch": 55,
              "velocity": 63,
              "position": 0.7520833333333333,
              "duration": 0.21666666666666667
            },
            {
              "pitch": 60,
              "velocity": 115,
              "position": 1.0020833333333334,
              "duration": 0.6833333333333333
            },
            {
              "pitch": 55,
              "velocity": 103,
              "position": 1.0083333333333333,
              "duration": 0.6916666666666667
            },
            {
              "pitch": 64,
              "velocity": 120,
              "position": 1.0166666666666666,
              "duration": 0.9354166666666667
            },
            {
              "pitch": 55,
              "velocity": 88,
              "position": 1.7583333333333333,
              "duration": 0.23125
            },
            {
              "pitch": 60,
              "velocity": 101,
              "position": 1.7520833333333334,
              "duration": 0.25
            },
            {
              "pitch": 55,
              "velocity": 117,
              "position": 2.004166666666667,
              "duration": 0.4354166666666667
            },
            {
              "pitch": 60,
              "velocity": 115,
              "position": 2.0125,
              "duration": 0.43125
            },
            {
              "pitch": 64,
              "velocity": 116,
              "position": 2.01875,
              "duration": 0.4395833333333333
            },
            {
              "pitch": 55,
              "velocity": 101,
              "position": 2.5104166666666665,
              "duration": 0.9145833333333333
            },
            {
              "pitch": 60,
              "velocity": 91,
              "position": 2.504166666666667,
              "duration": 0.9208333333333333
            },
            {
              "pitch": 64,
              "velocity": 113,
              "position": 2.51875,
              "duration": 0.91875
            },
            {
              "pitch": 64,
              "velocity": 105,
              "position": 3.51875,
              "duration": 0.03958333333333333
            },
            {
              "pitch": 60,
              "velocity": 101,
              "position": 3.5104166666666665,
              "duration": 0.05625
            },
            {
              "pitch": 55,
              "velocity": 123,
              "position": 3.502083333333333,
              "duration": 0.06875
            },
            {
              "pitch": 55,
              "velocity": 71,
              "position": 3.7645833333333334,
              "duration": 0.17708333333333334
            },
            {
              "pitch": 60,
              "velocity": 71,
              "position": 3.75625,
              "duration": 0.20625
            },
            {
              "pitch": 64,
              "velocity": 76,
              "position": 3.75,
              "duration": 0.23333333333333334
            }
          ]
        },
        "12": {
          "ctab": {
            "srcChannel": 12,
            "name": "mutedgtr",
            "accType": "CHORD2",
            "editable": false,
            "mutedNotes": [],
            "mutedChords": [],
            "autoStart": false,
            "sourceChordNote": 0,
            "sourceChordType": "Maj",
            "ctb2Low": null,
            "ctb2Main": {
              "ntr": "ROOT_FIXED",
              "ntt": "CHORD",
              "bassOn": false,
              "chordRootUpperLimit": 3,
              "noteLowLimit": 0,
              "noteHighLimit": 127,
              "rtr": "PITCH_SHIFT"
            },
            "ctb2High": null
          },
          "notes": [
            {
              "pitch": 55,
              "velocity": 83,
              "position": 0,
              "duration": 3.6104166666666666
            },
            {
              "pitch": 60,
              "velocity": 93,
              "position": 0.05416666666666667,
              "duration": 3.6104166666666666
            },
            {
              "pitch": 64,
              "velocity": 93,
              "position": 0.13541666666666666,
              "duration": 3.6104166666666666
            }
          ]
        },
        "13": {
          "ctab": {
            "srcChannel": 13,
            "name": "gtr",
            "accType": "PAD",
            "editable": false,
            "mutedNotes": [],
            "mutedChords": [],
            "autoStart": false,
            "sourceChordNote": 0,
            "sourceChordType": "Maj",
            "ctb2Low": null,
            "ctb2Main": {
              "ntr": "ROOT_TRANSPOSITION",
              "ntt": "MELODY",
              "bassOn": true,
              "chordRootUpperLimit": 6,
              "noteLowLimit": 56,
              "noteHighLimit": 69,
              "rtr": "PITCH_SHIFT"
            },
            "ctb2High": null
          },
          "notes": [
            {
              "pitch": 60,
              "velocity": 94,
              "position": 0,
              "duration": 3.872916666666667
            },
            {
              "pitch": 64,
              "velocity": 94,
              "position": 0,
              "duration": 3.872916666666667
            },
            {
              "pitch": 55,
              "velocity": 94,
              "position": 0,
              "duration": 3.875
            }
          ]
        },
        "14": {
          "ctab": {
            "srcChannel": 14,
            "name": "dist",
            "accType": "PHRASE1",
            "editable": false,
            "mutedNotes": [],
            "mutedChords": [],
            "autoStart": false,
            "sourceChordNote": 0,
            "sourceChordType": "Maj",
            "ctb2Low": null,
            "ctb2Main": {
              "ntr": "ROOT_FIXED",
              "ntt": "CHORD",
              "bassOn": false,
              "chordRootUpperLimit": 4,
              "noteLowLimit": 0,
              "noteHighLimit": 127,
              "rtr": "PITCH_SHIFT"
            },
            "ctb2High": null
          },
          "notes": []
        },
        "15": {
          "ctab": {
            "srcChannel": 15,
            "name": "overdr",
            "accType": "PHRASE2",
            "editable": false,
            "mutedNotes": [],
            "mutedChords": [],
            "autoStart": false,
            "sourceChordNote": 0,
            "sourceChordType": "Maj",
            "ctb2Low": null,
            "ctb2Main": {
              "ntr": "ROOT_TRANSPOSITION",
              "ntt": "MELODY",
              "bassOn": true,
              "chordRootUpperLimit": 4,
              "noteLowLimit": 0,
              "noteHighLimit": 127,
              "rtr": "PITCH_SHIFT"
            },
            "ctb2High": null
          },
          "notes": [
            {
              "pitch": 48,
              "velocity": 69,
              "position": 2.752083333333333,
              "duration": 0.020833333333333332
            },
            {
              "pitch": 55,
              "velocity": 53,
              "position": 2.779166666666667,
              "duration": 0.004166666666666667
            },
            {
              "pitch": 48,
              "velocity": 72,
              "position": 3.75,
              "duration": 0.00625
            },
            {
              "pitch": 55,
              "velocity": 56,
              "position": 3.76875,
              "duration": 0.010416666666666666
            }
          ]
        }
      }
    },
    "Fill_In_CC": {
      "type": "Fill_In_CC",
      "sizeInBeats": 4,
      "channels": {
        "8": {
          "ctab": {
            "srcChannel": 8,
            "name": "add-drum",
            "accType": "SUBRHYTHM",
            "editable": false,
            "mutedNotes": [],
            "mutedChords": [],
            "autoStart": true,
            "sourceChordNote": 0,
            "sourceChordType": "Maj7",
            "ctb2Low": null,
            "ctb2Main": {
              "ntr": "ROOT_FIXED",
              "ntt": "BYPASS",
              "bassOn": false,
              "chordRootUpperLimit": 6,
              "noteLowLimit": 0,
              "noteHighLimit": 127,
              "rtr": "PITCH_SHIFT"
            },
            "ctb2High": null
          },
          "notes": [
            {
              "pitch": 54,
              "velocity": 69,
              "position": 0,
              "duration": 0.010416666666666666
            },
            {
              "pitch": 54,
              "velocity": 35,
              "position": 0.2708333333333333,
              "duration": 0.010416666666666666
            },
            {
              "pitch": 54,
              "velocity": 46,
              "position": 0.49583333333333335,
              "duration": 0.010416666666666666
            },
            {
              "pitch": 54,
              "velocity": 19,
              "position": 0.7583333333333333,
              "duration": 0.010416666666666666
            },
            {
              "pitch": 54,
              "velocity": 68,
              "position": 1.0020833333333334,
              "duration": 0.010416666666666666
            },
            {
              "pitch": 54,
              "velocity": 39,
              "position": 1.2666666666666666,
              "duration": 0.010416666666666666
            },
            {
              "pitch": 54,
              "velocity": 46,
              "position": 1.50625,
              "duration": 0.010416666666666666
            },
            {
              "pitch": 54,
              "velocity": 34,
              "position": 1.7645833333333334,
              "duration": 0.010416666666666666
            },
            {
              "pitch": 54,
              "velocity": 71,
              "position": 2.002083333333333,
              "duration": 0.010416666666666666
            },
            {
              "pitch": 54,
              "velocity": 48,
              "position": 2.2583333333333333,
              "duration": 0.010416666666666666
            },
            {
              "pitch": 54,
              "velocity": 46,
              "position": 2.502083333333333,
              "duration": 0.010416666666666666
            },
            {
              "pitch": 54,
              "velocity": 34,
              "position": 2.754166666666667,
              "duration": 0.010416666666666666
            },
            {
              "pitch": 54,
              "velocity": 71,
              "position": 3.0104166666666665,
              "duration": 0.010416666666666666
            },
            {
              "pitch": 54,
              "velocity": 35,
              "position": 3.26875,
              "duration": 0.010416666666666666
            },
            {
              "pitch": 54,
              "velocity": 40,
              "position": 3.5104166666666665,
              "duration": 0.010416666666666666
            },
            {
              "pitch": 54,
              "velocity": 42,
              "position": 3.7645833333333334,
              "duration": 0.010416666666666666
            }
          ]
        },
        "9": {
          "ctab": {
            "srcChannel": 9,
            "name": "main-dru",
            "accType": "RHYTHM",
            "editable": false,
            "mutedNotes": [],
            "mutedChords": [],
            "autoStart": true,
            "sourceChordNote": 0,
            "sourceChordType": "Maj7",
            "ctb2Low": null,
            "ctb2Main": {
              "ntr": "ROOT_FIXED",
              "ntt": "BYPASS",
              "bassOn": false,
              "chordRootUpperLimit": 6,
              "noteLowLimit": 0,
              "noteHighLimit": 127,
              "rtr": "PITCH_SHIFT"
            },
            "ctb2High": null
          },
          "notes": [
            {
              "pitch": 36,
              "velocity": 106,
              "position": 0,
              "duration": 0.010416666666666666
            },
            {
              "pitch": 44,
              "velocity": 75,
              "position": 0,
              "duration": 0.010416666666666666
            },
            {
              "pitch": 51,
              "velocity": 80,
              "position": 0.010416666666666666,
              "duration": 0.010416666666666666
            },
            {
              "pitch": 40,
              "velocity": 71,
              "position": 0.5,
              "duration": 0.010416666666666666
            },
            {
              "pitch": 51,
              "velocity": 64,
              "position": 0.5083333333333333,
              "duration": 0.010416666666666666
            },
            {
              "pitch": 40,
              "velocity": 79,
              "position": 1,
              "duration": 0.010416666666666666
            },
            {
              "pitch": 44,
              "velocity": 75,
              "position": 1,
              "duration": 0.010416666666666666
            },
            {
              "pitch": 51,
              "velocity": 84,
              "position": 1.0166666666666666,
              "duration": 0.010416666666666666
            },
            {
              "pitch": 36,
              "velocity": 106,
              "position": 1.5,
              "duration": 0.010416666666666666
            },
            {
              "pitch": 51,
              "velocity": 74,
              "position": 1.50625,
              "duration": 0.010416666666666666
            },
            {
              "pitch": 36,
              "velocity": 93,
              "position": 1.775,
              "duration": 0.010416666666666666
            },
            {
              "pitch": 51,
              "velocity": 52,
              "position": 1.775,
              "duration": 0.010416666666666666
            },
            {
              "pitch": 40,
              "velocity": 88,
              "position": 2,
              "duration": 0.010416666666666666
            },
            {
              "pitch": 44,
              "velocity": 78,
              "position": 2,
              "duration": 0.010416666666666666
            },
            {
              "pitch": 51,
              "velocity": 83,
              "position": 2.0104166666666665,
              "duration": 0.010416666666666666
            },
            {
              "pitch": 36,
              "velocity": 92,
              "position": 2.5,
              "duration": 0.010416666666666666
            },
            {
              "pitch": 51,
              "velocity": 40,
              "position": 2.5125,
              "duration": 0.010416666666666666
            },
            {
              "pitch": 40,
              "velocity": 47,
              "position": 2.78125,
              "duration": 0.010416666666666666
            },
            {
              "pitch": 40,
              "velocity": 83,
              "position": 3,
              "duration": 0.010416666666666666
            },
            {
              "pitch": 44,
              "velocity": 76,
              "position": 3,
              "duration": 0.010416666666666666
            },
            {
              "pitch": 51,
              "velocity": 83,
              "position": 3.0125,
              "duration": 0.010416666666666666
            },
            {
              "pitch": 40,
              "velocity": 66,
              "position": 3.2666666666666666,
              "duration": 0.010416666666666666
            },
            {
              "pitch": 36,
              "velocity": 104,
              "position": 3.5,
              "duration": 0.010416666666666666
            },
            {
              "pitch": 47,
              "velocity": 75,
              "position": 3.5,
              "duration": 0.010416666666666666
            },
            {
              "pitch": 41,
              "velocity": 54,
              "position": 3.7708333333333335,
              "duration": 0.010416666666666666
            },
            {
              "pitch": 49,
              "velocity": 75,
              "position": 3.9895833333333335,
              "duration": 0.010416666666666666
            }
          ]
        },
        "10": {
          "ctab": {
            "srcChannel": 10,
            "name": "Bass",
            "accType": "BASS",
            "editable": false,
            "mutedNotes": [],
            "mutedChords": [],
            "autoStart": false,
            "sourceChordNote": 0,
            "sourceChordType": "Maj7",
            "ctb2Low": null,
            "ctb2Main": {
              "ntr": "ROOT_TRANSPOSITION",
              "ntt": "MELODY",
              "bassOn": true,
              "chordRootUpperLimit": 3,
              "noteLowLimit": 28,
              "noteHighLimit": 127,
              "rtr": "PITCH_SHIFT_TO_ROOT"
            },
            "ctb2High": null
          },
          "notes": [
            {
              "pitch": 24,
              "velocity": 60,
              "position": 0,
              "duration": 0.7416666666666667
            },
            {
              "pitch": 24,
              "velocity": 60,
              "position": 0.75,
              "duration": 0.6958333333333333
            },
            {
              "pitch": 24,
              "velocity": 60,
              "position": 1.5,
              "duration": 0.7375
            },
            {
              "pitch": 24,
              "velocity": 60,
              "position": 2.25,
              "duration": 0.46458333333333335
            },
            {
              "pitch": 31,
              "velocity": 60,
              "position": 2.75,
              "duration": 0.14375
            },
            {
              "pitch": 31,
              "velocity": 60,
              "position": 3,
              "duration": 0.46458333333333335
            },
            {
              "pitch": 28,
              "velocity": 60,
              "position": 3.5,
              "duration": 0.15833333333333333
            },
            {
              "pitch": 31,
              "velocity": 60,
              "position": 3.75,
              "duration": 0.1625
            }
          ]
        },
        "11": {
          "ctab": {
            "srcChannel": 11,
            "name": "piano",
            "accType": "CHORD1",
            "editable": false,
            "mutedNotes": [],
            "mutedChords": [],
            "autoStart": false,
            "sourceChordNote": 0,
            "sourceChordType": "Maj",
            "ctb2Low": null,
            "ctb2Main": {
              "ntr": "ROOT_FIXED",
              "ntt": "CHORD",
              "bassOn": false,
              "chordRootUpperLimit": 9,
              "noteLowLimit": 0,
              "noteHighLimit": 127,
              "rtr": "PITCH_SHIFT"
            },
            "ctb2High": null
          },
          "notes": [
            {
              "pitch": 60,
              "velocity": 111,
              "position": 0.008333333333333333,
              "duration": 0.19375
            },
            {
              "pitch": 55,
              "velocity": 120,
              "position": 0.0020833333333333333,
              "duration": 0.20833333333333334
            },
            {
              "pitch": 64,
              "velocity": 125,
              "position": 0.016666666666666666,
              "duration": 0.4375
            },
            {
              "pitch": 55,
              "velocity": 87,
              "position": 0.25625,
              "duration": 0.21041666666666667
            },
            {
              "pitch": 60,
              "velocity": 79,
              "position": 0.25,
              "duration": 0.225
            },
            {
              "pitch": 64,
              "velocity": 87,
              "position": 0.5145833333333333,
              "duration": 0.17708333333333334
            },
            {
              "pitch": 60,
              "velocity": 61,
              "position": 0.5083333333333333,
              "duration": 0.19583333333333333
            },
            {
              "pitch": 55,
              "velocity": 66,
              "position": 0.5,
              "duration": 0.225
            },
            {
              "pitch": 55,
              "velocity": 127,
              "position": 0.7625,
              "duration": 0.20625
            },
            {
              "pitch": 60,
              "velocity": 127,
              "position": 0.7541666666666667,
              "duration": 0.23541666666666666
            },
            {
              "pitch": 64,
              "velocity": 124,
              "position": 0.7479166666666667,
              "duration": 0.4375
            },
            {
              "pitch": 60,
              "velocity": 83,
              "position": 1.0083333333333333,
              "duration": 0.18958333333333333
            },
            {
              "pitch": 55,
              "velocity": 78,
              "position": 1,
              "duration": 0.21666666666666667
            },
            {
              "pitch": 55,
              "velocity": 83,
              "position": 1.2604166666666667,
              "duration": 0.22291666666666668
            },
            {
              "pitch": 60,
              "velocity": 80,
              "position": 1.2541666666666667,
              "duration": 0.24791666666666667
            },
            {
              "pitch": 64,
              "velocity": 127,
              "position": 1.5166666666666666,
              "duration": 0.004166666666666667
            },
            {
              "pitch": 60,
              "velocity": 118,
              "position": 1.5083333333333333,
              "duration": 0.1875
            },
            {
              "pitch": 55,
              "velocity": 127,
              "position": 1.5020833333333334,
              "duration": 0.21041666666666667
            },
            {
              "pitch": 55,
              "velocity": 96,
              "position": 1.75625,
              "duration": 0.2125
            },
            {
              "pitch": 60,
              "velocity": 87,
              "position": 1.75,
              "duration": 0.2375
            },
            {
              "pitch": 64,
              "velocity": 88,
              "position": 2.0166666666666666,
              "duration": 0.16666666666666666
            },
            {
              "pitch": 60,
              "velocity": 90,
              "position": 2.0083333333333333,
              "duration": 0.19791666666666666
            },
            {
              "pitch": 55,
              "velocity": 94,
              "position": 2,
              "duration": 0.22083333333333333
            },
            {
              "pitch": 55,
              "velocity": 125,
              "position": 2.2625,
              "duration": 0.20833333333333334
            },
            {
              "pitch": 60,
              "velocity": 127,
              "position": 2.25625,
              "duration": 0.21875
            },
            {
              "pitch": 64,
              "velocity": 127,
              "position": 2.247916666666667,
              "duration": 0.42291666666666666
            },
            {
              "pitch": 55,
              "velocity": 85,
              "position": 2.5,
              "duration": 0.17291666666666666
            },
            {
              "pitch": 60,
              "velocity": 74,
              "position": 2.50625,
              "duration": 0.16875
            },
            {
              "pitch": 55,
              "velocity": 88,
              "position": 2.75,
              "duration": 0.21875
            },
            {
              "pitch": 55,
              "velocity": 127,
              "position": 3.002083333333333,
              "duration": 0.20416666666666666
            },
            {
              "pitch": 60,
              "velocity": 127,
              "position": 3.0083333333333333,
              "duration": 0.44583333333333336
            },
            {
              "pitch": 64,
              "velocity": 113,
              "position": 3.0145833333333334,
              "duration": 0.44583333333333336
            },
            {
              "pitch": 55,
              "velocity": 65,
              "position": 3.25,
              "duration": 0.225
            },
            {
              "pitch": 64,
              "velocity": 85,
              "position": 3.5145833333333334,
              "duration": 0.17291666666666666
            },
            {
              "pitch": 55,
              "velocity": 91,
              "position": 3.502083333333333,
              "duration": 0.1875
            },
            {
              "pitch": 60,
              "velocity": 103,
              "position": 3.5083333333333333,
              "duration": 0.18125
            },
            {
              "pitch": 55,
              "velocity": 98,
              "position": 3.7604166666666665,
              "duration": 0.18333333333333332
            },
            {
              "pitch": 60,
              "velocity": 106,
              "position": 3.754166666666667,
              "duration": 0.20416666666666666
            },
            {
              "pitch": 64,
              "velocity": 94,
              "position": 3.745833333333333,
              "duration": 0.21875
            }
          ]
        },
        "12": {
          "ctab": {
            "srcChannel": 12,
            "name": "mutedgtr",
            "accType": "CHORD2",
            "editable": false,
            "mutedNotes": [],
            "mutedChords": [],
            "autoStart": false,
            "sourceChordNote": 0,
            "sourceChordType": "Maj",
            "ctb2Low": null,
            "ctb2Main": {
              "ntr": "ROOT_FIXED",
              "ntt": "CHORD",
              "bassOn": false,
              "chordRootUpperLimit": 3,
              "noteLowLimit": 0,
              "noteHighLimit": 127,
              "rtr": "PITCH_SHIFT"
            },
            "ctb2High": null
          },
          "notes": [
            {
              "pitch": 55,
              "velocity": 112,
              "position": 0,
              "duration": 2.75
            },
            {
              "pitch": 60,
              "velocity": 114,
              "position": 0.0125,
              "duration": 2.7375
            },
            {
              "pitch": 64,
              "velocity": 114,
              "position": 0.041666666666666664,
              "duration": 2.7083333333333335
            },
            {
              "pitch": 55,
              "velocity": 71,
              "position": 2.79375,
              "duration": 0.18125
            },
            {
              "pitch": 60,
              "velocity": 73,
              "position": 2.779166666666667,
              "duration": 0.21041666666666667
            },
            {
              "pitch": 64,
              "velocity": 71,
              "position": 2.7666666666666666,
              "duration": 0.25416666666666665
            },
            {
              "pitch": 55,
              "velocity": 101,
              "position": 2.995833333333333,
              "duration": 0.7541666666666667
            },
            {
              "pitch": 60,
              "velocity": 112,
              "position": 3.0104166666666665,
              "duration": 0.7395833333333334
            },
            {
              "pitch": 64,
              "velocity": 109,
              "position": 3.0416666666666665,
              "duration": 0.7083333333333334
            },
            {
              "pitch": 55,
              "velocity": 65,
              "position": 3.8041666666666667,
              "duration": 0.14375
            },
            {
              "pitch": 60,
              "velocity": 73,
              "position": 3.7875,
              "duration": 0.17083333333333334
            },
            {
              "pitch": 64,
              "velocity": 68,
              "position": 3.775,
              "duration": 0.2125
            }
          ]
        },
        "13": {
          "ctab": {
            "srcChannel": 13,
            "name": "gtr",
            "accType": "PAD",
            "editable": false,
            "mutedNotes": [],
            "mutedChords": [],
            "autoStart": false,
            "sourceChordNote": 0,
            "sourceChordType": "Maj",
            "ctb2Low": null,
            "ctb2Main": {
              "ntr": "ROOT_TRANSPOSITION",
              "ntt": "MELODY",
              "bassOn": true,
              "chordRootUpperLimit": 6,
              "noteLowLimit": 56,
              "noteHighLimit": 69,
              "rtr": "PITCH_SHIFT"
            },
            "ctb2High": null
          },
          "notes": [
            {
              "pitch": 60,
              "velocity": 94,
              "position": 0,
              "duration": 2.870833333333333
            },
            {
              "pitch": 64,
              "velocity": 94,
              "position": 0,
              "duration": 2.870833333333333
            },
            {
              "pitch": 55,
              "velocity": 94,
              "position": 0,
              "duration": 2.872916666666667
            },
            {
              "pitch": 64,
              "velocity": 94,
              "position": 3,
              "duration": 0.85625
            },
            {
              "pitch": 55,
              "velocity": 94,
              "position": 3,
              "duration": 0.8583333333333333
            },
            {
              "pitch": 60,
              "velocity": 94,
              "position": 3,
              "duration": 0.8583333333333333
            }
          ]
        },
        "14": {
          "ctab": {
            "srcChannel": 14,
            "name": "dist",
            "accType": "PHRASE1",
            "editable": false,
            "mutedNotes": [],
            "mutedChords": [],
            "autoStart": false,
            "sourceChordNote": 0,
            "sourceChordType": "Maj",
            "ctb2Low": null,
            "ctb2Main": {
              "ntr": "ROOT_FIXED",
              "ntt": "CHORD",
              "bassOn": false,
              "chordRootUpperLimit": 4,
              "noteLowLimit": 0,
              "noteHighLimit": 127,
              "rtr": "PITCH_SHIFT"
            },
            "ctb2High": null
          },
          "notes": [
            {
              "pitch": 64,
              "velocity": 94,
              "position": 0,
              "duration": 2.870833333333333
            },
            {
              "pitch": 72,
              "velocity": 94,
              "position": 0,
              "duration": 2.870833333333333
            },
            {
              "pitch": 72,
              "velocity": 94,
              "position": 3,
              "duration": 0.85625
            },
            {
              "pitch": 64,
              "velocity": 94,
              "position": 3,
              "duration": 0.8583333333333333
            }
          ]
        },
        "15": {
          "ctab": {
            "srcChannel": 15,
            "name": "overdr",
            "accType": "PHRASE2",
            "editable": false,
            "mutedNotes": [],
            "mutedChords": [],
            "autoStart": false,
            "sourceChordNote": 0,
            "sourceChordType": "Maj",
            "ctb2Low": null,
            "ctb2Main": {
              "ntr": "ROOT_TRANSPOSITION",
              "ntt": "MELODY",
              "bassOn": true,
              "chordRootUpperLimit": 4,
              "noteLowLimit": 0,
              "noteHighLimit": 127,
              "rtr": "PITCH_SHIFT"
            },
            "ctb2High": null
          },
          "notes": [
            {
              "pitch": 48,
              "velocity": 69,
              "position": 2.752083333333333,
              "duration": 0.020833333333333332
            },
            {
              "pitch": 55,
              "velocity": 53,
              "position": 2.779166666666667,
              "duration": 0.004166666666666667
            },
            {
              "pitch": 48,
              "velocity": 72,
              "position": 3.75,
              "duration": 0.00625
            },
            {
              "pitch": 55,
              "velocity": 56,
              "position": 3.76875,
              "duration": 0.010416666666666666
            }
          ]
        }
      }
    },
    "Fill_In_DD": {
      "type": "Fill_In_DD",
      "sizeInBeats": 4,
      "channels": {
        "8": {
          "ctab": {
            "srcChannel": 8,
            "name": "add-drum",
            "accType": "SUBRHYTHM",
            "editable": false,
            "mutedNotes": [],
            "mutedChords": [],
            "autoStart": true,
            "sourceChordNote": 0,
            "sourceChordType": "Maj7",
            "ctb2Low": null,
            "ctb2Main": {
              "ntr": "ROOT_FIXED",
              "ntt": "BYPASS",
              "bassOn": false,
              "chordRootUpperLimit": 6,
              "noteLowLimit": 0,
              "noteHighLimit": 127,
              "rtr": "PITCH_SHIFT"
            },
            "ctb2High": null
          },
          "notes": []
        },
        "9": {
          "ctab": {
            "srcChannel": 9,
            "name": "main-dru",
            "accType": "RHYTHM",
            "editable": false,
            "mutedNotes": [],
            "mutedChords": [],
            "autoStart": true,
            "sourceChordNote": 0,
            "sourceChordType": "Maj7",
            "ctb2Low": null,
            "ctb2Main": {
              "ntr": "ROOT_FIXED",
              "ntt": "BYPASS",
              "bassOn": false,
              "chordRootUpperLimit": 6,
              "noteLowLimit": 0,
              "noteHighLimit": 127,
              "rtr": "PITCH_SHIFT"
            },
            "ctb2High": null
          },
          "notes": [
            {
              "pitch": 36,
              "velocity": 104,
              "position": 0,
              "duration": 0.010416666666666666
            },
            {
              "pitch": 49,
              "velocity": 64,
              "position": 0,
              "duration": 0.010416666666666666
            },
            {
              "pitch": 40,
              "velocity": 29,
              "position": 0.5,
              "duration": 0.010416666666666666
            },
            {
              "pitch": 42,
              "velocity": 71,
              "position": 0.5,
              "duration": 0.010416666666666666
            },
            {
              "pitch": 42,
              "velocity": 48,
              "position": 0.7666666666666667,
              "duration": 0.010416666666666666
            },
            {
              "pitch": 36,
              "velocity": 104,
              "position": 0.775,
              "duration": 0.010416666666666666
            },
            {
              "pitch": 40,
              "velocity": 89,
              "position": 1,
              "duration": 0.010416666666666666
            },
            {
              "pitch": 46,
              "velocity": 79,
              "position": 1,
              "duration": 0.010416666666666666
            },
            {
              "pitch": 36,
              "velocity": 104,
              "position": 1.275,
              "duration": 0.010416666666666666
            },
            {
              "pitch": 42,
              "velocity": 71,
              "position": 1.5,
              "duration": 0.010416666666666666
            },
            {
              "pitch": 42,
              "velocity": 49,
              "position": 1.7666666666666666,
              "duration": 0.010416666666666666
            },
            {
              "pitch": 40,
              "velocity": 40,
              "position": 1.78125,
              "duration": 0.010416666666666666
            },
            {
              "pitch": 36,
              "velocity": 106,
              "position": 2,
              "duration": 0.010416666666666666
            },
            {
              "pitch": 46,
              "velocity": 74,
              "position": 2,
              "duration": 0.010416666666666666
            },
            {
              "pitch": 40,
              "velocity": 30,
              "position": 2.5,
              "duration": 0.010416666666666666
            },
            {
              "pitch": 42,
              "velocity": 68,
              "position": 2.5,
              "duration": 0.010416666666666666
            },
            {
              "pitch": 46,
              "velocity": 41,
              "position": 2.7666666666666666,
              "duration": 0.010416666666666666
            },
            {
              "pitch": 36,
              "velocity": 106,
              "position": 2.775,
              "duration": 0.010416666666666666
            },
            {
              "pitch": 40,
              "velocity": 86,
              "position": 3,
              "duration": 0.010416666666666666
            },
            {
              "pitch": 46,
              "velocity": 77,
              "position": 3,
              "duration": 0.010416666666666666
            },
            {
              "pitch": 40,
              "velocity": 54,
              "position": 3.5,
              "duration": 0.010416666666666666
            },
            {
              "pitch": 40,
              "velocity": 41,
              "position": 3.6354166666666665,
              "duration": 0.010416666666666666
            },
            {
              "pitch": 40,
              "velocity": 54,
              "position": 3.7625,
              "duration": 0.010416666666666666
            },
            {
              "pitch": 40,
              "velocity": 77,
              "position": 3.8895833333333334,
              "duration": 0.010416666666666666
            },
            {
              "pitch": 49,
              "velocity": 75,
              "position": 3.9895833333333335,
              "duration": 0.010416666666666666
            }
          ]
        },
        "10": {
          "ctab": {
            "srcChannel": 10,
            "name": "Bass",
            "accType": "BASS",
            "editable": false,
            "mutedNotes": [],
            "mutedChords": [],
            "autoStart": false,
            "sourceChordNote": 0,
            "sourceChordType": "Maj7",
            "ctb2Low": null,
            "ctb2Main": {
              "ntr": "ROOT_TRANSPOSITION",
              "ntt": "MELODY",
              "bassOn": true,
              "chordRootUpperLimit": 3,
              "noteLowLimit": 28,
              "noteHighLimit": 127,
              "rtr": "PITCH_SHIFT_TO_ROOT"
            },
            "ctb2High": null
          },
          "notes": [
            {
              "pitch": 24,
              "velocity": 60,
              "position": 0,
              "duration": 0.25
            },
            {
              "pitch": 24,
              "velocity": 60,
              "position": 0.25,
              "duration": 0.21875
            },
            {
              "pitch": 24,
              "velocity": 60,
              "position": 0.75,
              "duration": 0.15416666666666667
            },
            {
              "pitch": 24,
              "velocity": 60,
              "position": 1,
              "duration": 0.25
            },
            {
              "pitch": 24,
              "velocity": 60,
              "position": 1.25,
              "duration": 0.25
            },
            {
              "pitch": 24,
              "velocity": 60,
              "position": 1.75,
              "duration": 0.1875
            },
            {
              "pitch": 24,
              "velocity": 60,
              "position": 2,
              "duration": 0.25
            },
            {
              "pitch": 24,
              "velocity": 60,
              "position": 2.25,
              "duration": 0.22708333333333333
            },
            {
              "pitch": 24,
              "velocity": 60,
              "position": 2.75,
              "duration": 0.20833333333333334
            },
            {
              "pitch": 24,
              "velocity": 60,
              "position": 3,
              "duration": 0.24791666666666667
            },
            {
              "pitch": 24,
              "velocity": 60,
              "position": 3.25,
              "duration": 0.3145833333333333
            },
            {
              "pitch": 24,
              "velocity": 60,
              "position": 3.75,
              "duration": 0.17291666666666666
            }
          ]
        },
        "11": {
          "ctab": {
            "srcChannel": 11,
            "name": "piano",
            "accType": "CHORD1",
            "editable": false,
            "mutedNotes": [],
            "mutedChords": [],
            "autoStart": false,
            "sourceChordNote": 0,
            "sourceChordType": "Maj",
            "ctb2Low": null,
            "ctb2Main": {
              "ntr": "ROOT_FIXED",
              "ntt": "CHORD",
              "bassOn": false,
              "chordRootUpperLimit": 9,
              "noteLowLimit": 0,
              "noteHighLimit": 127,
              "rtr": "PITCH_SHIFT"
            },
            "ctb2High": null
          },
          "notes": [
            {
              "pitch": 55,
              "velocity": 103,
              "position": 0.0020833333333333333,
              "duration": 0.6604166666666667
            },
            {
              "pitch": 60,
              "velocity": 113,
              "position": 0.01875,
              "duration": 0.6604166666666667
            },
            {
              "pitch": 64,
              "velocity": 109,
              "position": 0.03333333333333333,
              "duration": 0.9270833333333334
            },
            {
              "pitch": 55,
              "velocity": 58,
              "position": 0.7270833333333333,
              "duration": 0.24583333333333332
            },
            {
              "pitch": 60,
              "velocity": 68,
              "position": 0.74375,
              "duration": 0.24583333333333332
            },
            {
              "pitch": 55,
              "velocity": 100,
              "position": 1.0104166666666667,
              "duration": 0.9416666666666667
            },
            {
              "pitch": 60,
              "velocity": 110,
              "position": 1.0270833333333333,
              "duration": 0.9416666666666667
            },
            {
              "pitch": 64,
              "velocity": 114,
              "position": 1.04375,
              "duration": 0.9333333333333333
            },
            {
              "pitch": 55,
              "velocity": 103,
              "position": 2.035416666666667,
              "duration": 0.6520833333333333
            },
            {
              "pitch": 60,
              "velocity": 113,
              "position": 2.0520833333333335,
              "duration": 0.6520833333333333
            },
            {
              "pitch": 64,
              "velocity": 114,
              "position": 2.060416666666667,
              "duration": 0.9166666666666666
            },
            {
              "pitch": 55,
              "velocity": 74,
              "position": 2.752083333333333,
              "duration": 0.2375
            },
            {
              "pitch": 60,
              "velocity": 84,
              "position": 2.76875,
              "duration": 0.2375
            },
            {
              "pitch": 55,
              "velocity": 110,
              "position": 3.027083333333333,
              "duration": 0.3875
            },
            {
              "pitch": 60,
              "velocity": 120,
              "position": 3.04375,
              "duration": 0.3875
            },
            {
              "pitch": 64,
              "velocity": 100,
              "position": 3.060416666666667,
              "duration": 0.3729166666666667
            },
            {
              "pitch": 55,
              "velocity": 50,
              "position": 3.51875,
              "duration": 0.18541666666666667
            },
            {
              "pitch": 64,
              "velocity": 65,
              "position": 3.55,
              "duration": 0.16458333333333333
            },
            {
              "pitch": 60,
              "velocity": 60,
              "position": 3.535416666666667,
              "duration": 0.18541666666666667
            },
            {
              "pitch": 55,
              "velocity": 60,
              "position": 3.7375,
              "duration": 0.19791666666666666
            },
            {
              "pitch": 60,
              "velocity": 70,
              "position": 3.754166666666667,
              "duration": 0.19791666666666666
            },
            {
              "pitch": 64,
              "velocity": 74,
              "position": 3.747916666666667,
              "duration": 0.21666666666666667
            }
          ]
        },
        "12": {
          "ctab": {
            "srcChannel": 12,
            "name": "mutedgtr",
            "accType": "CHORD2",
            "editable": false,
            "mutedNotes": [],
            "mutedChords": [],
            "autoStart": false,
            "sourceChordNote": 0,
            "sourceChordType": "Maj",
            "ctb2Low": null,
            "ctb2Main": {
              "ntr": "ROOT_FIXED",
              "ntt": "CHORD",
              "bassOn": false,
              "chordRootUpperLimit": 3,
              "noteLowLimit": 0,
              "noteHighLimit": 127,
              "rtr": "PITCH_SHIFT"
            },
            "ctb2High": null
          },
          "notes": []
        },
        "13": {
          "ctab": {
            "srcChannel": 13,
            "name": "gtr",
            "accType": "PAD",
            "editable": false,
            "mutedNotes": [],
            "mutedChords": [],
            "autoStart": false,
            "sourceChordNote": 0,
            "sourceChordType": "Maj",
            "ctb2Low": null,
            "ctb2Main": {
              "ntr": "ROOT_TRANSPOSITION",
              "ntt": "MELODY",
              "bassOn": true,
              "chordRootUpperLimit": 6,
              "noteLowLimit": 56,
              "noteHighLimit": 69,
              "rtr": "PITCH_SHIFT"
            },
            "ctb2High": null
          },
          "notes": [
            {
              "pitch": 60,
              "velocity": 94,
              "position": 0,
              "duration": 2.870833333333333
            },
            {
              "pitch": 64,
              "velocity": 94,
              "position": 0,
              "duration": 2.870833333333333
            },
            {
              "pitch": 55,
              "velocity": 94,
              "position": 0,
              "duration": 2.872916666666667
            },
            {
              "pitch": 64,
              "velocity": 94,
              "position": 3,
              "duration": 0.85625
            },
            {
              "pitch": 55,
              "velocity": 94,
              "position": 3,
              "duration": 0.8583333333333333
            },
            {
              "pitch": 60,
              "velocity": 94,
              "position": 3,
              "duration": 0.8583333333333333
            }
          ]
        },
        "14": {
          "ctab": {
            "srcChannel": 14,
            "name": "dist",
            "accType": "PHRASE1",
            "editable": false,
            "mutedNotes": [],
            "mutedChords": [],
            "autoStart": false,
            "sourceChordNote": 0,
            "sourceChordType": "Maj",
            "ctb2Low": null,
            "ctb2Main": {
              "ntr": "ROOT_FIXED",
              "ntt": "CHORD",
              "bassOn": false,
              "chordRootUpperLimit": 4,
              "noteLowLimit": 0,
              "noteHighLimit": 127,
              "rtr": "PITCH_SHIFT"
            },
            "ctb2High": null
          },
          "notes": []
        },
        "15": {
          "ctab": {
            "srcChannel": 15,
            "name": "overdr",
            "accType": "PHRASE2",
            "editable": false,
            "mutedNotes": [],
            "mutedChords": [],
            "autoStart": false,
            "sourceChordNote": 0,
            "sourceChordType": "Maj",
            "ctb2Low": null,
            "ctb2Main": {
              "ntr": "ROOT_TRANSPOSITION",
              "ntt": "MELODY",
              "bassOn": true,
              "chordRootUpperLimit": 4,
              "noteLowLimit": 0,
              "noteHighLimit": 127,
              "rtr": "PITCH_SHIFT"
            },
            "ctb2High": null
          },
          "notes": [
            {
              "pitch": 48,
              "velocity": 127,
              "position": 0,
              "duration": 0.24166666666666667
            },
            {
              "pitch": 48,
              "velocity": 100,
              "position": 0.25,
              "duration": 0.19583333333333333
            },
            {
              "pitch": 48,
              "velocity": 116,
              "position": 0.7729166666666667,
              "duration": 0.12708333333333333
            },
            {
              "pitch": 48,
              "velocity": 127,
              "position": 1.0020833333333334,
              "duration": 0.2375
            },
            {
              "pitch": 48,
              "velocity": 118,
              "position": 1.2520833333333334,
              "duration": 0.21458333333333332
            },
            {
              "pitch": 48,
              "velocity": 124,
              "position": 1.7479166666666666,
              "duration": 0.11666666666666667
            },
            {
              "pitch": 48,
              "velocity": 127,
              "position": 1.9791666666666667,
              "duration": 0.2833333333333333
            },
            {
              "pitch": 48,
              "velocity": 107,
              "position": 2.2645833333333334,
              "duration": 0.18125
            },
            {
              "pitch": 48,
              "velocity": 120,
              "position": 2.747916666666667,
              "duration": 0.14166666666666666
            },
            {
              "pitch": 48,
              "velocity": 124,
              "position": 3.247916666666667,
              "duration": 0.004166666666666667
            },
            {
              "pitch": 48,
              "velocity": 127,
              "position": 3.74375,
              "duration": 0.2
            }
          ]
        }
      }
    },
    "Intro_A": {
      "type": "Intro_A",
      "sizeInBeats": 4,
      "channels": {
        "8": {
          "ctab": {
            "srcChannel": 8,
            "name": "add-drum",
            "accType": "SUBRHYTHM",
            "editable": false,
            "mutedNotes": [],
            "mutedChords": [],
            "autoStart": true,
            "sourceChordNote": 0,
            "sourceChordType": "Maj7",
            "ctb2Low": null,
            "ctb2Main": {
              "ntr": "ROOT_FIXED",
              "ntt": "BYPASS",
              "bassOn": false,
              "chordRootUpperLimit": 6,
              "noteLowLimit": 0,
              "noteHighLimit": 127,
              "rtr": "PITCH_SHIFT"
            },
            "ctb2High": null
          },
          "notes": []
        },
        "9": {
          "ctab": {
            "srcChannel": 9,
            "name": "main-dru",
            "accType": "RHYTHM",
            "editable": false,
            "mutedNotes": [],
            "mutedChords": [],
            "autoStart": true,
            "sourceChordNote": 0,
            "sourceChordType": "Maj7",
            "ctb2Low": null,
            "ctb2Main": {
              "ntr": "ROOT_FIXED",
              "ntt": "BYPASS",
              "bassOn": false,
              "chordRootUpperLimit": 6,
              "noteLowLimit": 0,
              "noteHighLimit": 127,
              "rtr": "PITCH_SHIFT"
            },
            "ctb2High": null
          },
          "notes": [
            {
              "pitch": 36,
              "velocity": 106,
              "position": 0,
              "duration": 0.010416666666666666
            },
            {
              "pitch": 42,
              "velocity": 70,
              "position": 0,
              "duration": 0.010416666666666666
            },
            {
              "pitch": 42,
              "velocity": 74,
              "position": 0.5,
              "duration": 0.010416666666666666
            },
            {
              "pitch": 40,
              "velocity": 89,
              "position": 1,
              "duration": 0.010416666666666666
            },
            {
              "pitch": 42,
              "velocity": 75,
              "position": 1,
              "duration": 0.010416666666666666
            },
            {
              "pitch": 42,
              "velocity": 69,
              "position": 1.5,
              "duration": 0.010416666666666666
            },
            {
              "pitch": 36,
              "velocity": 106,
              "position": 2,
              "duration": 0.010416666666666666
            },
            {
              "pitch": 42,
              "velocity": 78,
              "position": 2,
              "duration": 0.010416666666666666
            },
            {
              "pitch": 36,
              "velocity": 92,
              "position": 2.5,
              "duration": 0.010416666666666666
            },
            {
              "pitch": 46,
              "velocity": 71,
              "position": 2.5,
              "duration": 0.010416666666666666
            },
            {
              "pitch": 36,
              "velocity": 98,
              "position": 3,
              "duration": 0.010416666666666666
            },
            {
              "pitch": 40,
              "velocity": 87,
              "position": 3,
              "duration": 0.010416666666666666
            },
            {
              "pitch": 40,
              "velocity": 62,
              "position": 3.2729166666666667,
              "duration": 0.010416666666666666
            },
            {
              "pitch": 36,
              "velocity": 104,
              "position": 3.5,
              "duration": 0.010416666666666666
            },
            {
              "pitch": 41,
              "velocity": 75,
              "position": 3.5,
              "duration": 0.010416666666666666
            },
            {
              "pitch": 49,
              "velocity": 75,
              "position": 3.9895833333333335,
              "duration": 0.010416666666666666
            }
          ]
        },
        "10": {
          "ctab": {
            "srcChannel": 10,
            "name": "Bass",
            "accType": "BASS",
            "editable": false,
            "mutedNotes": [],
            "mutedChords": [],
            "autoStart": false,
            "sourceChordNote": 0,
            "sourceChordType": "Maj7",
            "ctb2Low": null,
            "ctb2Main": {
              "ntr": "ROOT_TRANSPOSITION",
              "ntt": "MELODY",
              "bassOn": true,
              "chordRootUpperLimit": 3,
              "noteLowLimit": 28,
              "noteHighLimit": 127,
              "rtr": "PITCH_SHIFT_TO_ROOT"
            },
            "ctb2High": null
          },
          "notes": []
        },
        "11": {
          "ctab": {
            "srcChannel": 11,
            "name": "piano",
            "accType": "CHORD1",
            "editable": false,
            "mutedNotes": [],
            "mutedChords": [],
            "autoStart": false,
            "sourceChordNote": 0,
            "sourceChordType": "Maj",
            "ctb2Low": null,
            "ctb2Main": {
              "ntr": "ROOT_FIXED",
              "ntt": "CHORD",
              "bassOn": false,
              "chordRootUpperLimit": 9,
              "noteLowLimit": 0,
              "noteHighLimit": 127,
              "rtr": "PITCH_SHIFT"
            },
            "ctb2High": null
          },
          "notes": []
        },
        "12": {
          "ctab": {
            "srcChannel": 12,
            "name": "mutedgtr",
            "accType": "CHORD2",
            "editable": false,
            "mutedNotes": [],
            "mutedChords": [],
            "autoStart": false,
            "sourceChordNote": 0,
            "sourceChordType": "Maj",
            "ctb2Low": null,
            "ctb2Main": {
              "ntr": "ROOT_FIXED",
              "ntt": "CHORD",
              "bassOn": false,
              "chordRootUpperLimit": 3,
              "noteLowLimit": 0,
              "noteHighLimit": 127,
              "rtr": "PITCH_SHIFT"
            },
            "ctb2High": null
          },
          "notes": []
        },
        "13": {
          "ctab": {
            "srcChannel": 13,
            "name": "gtr",
            "accType": "PAD",
            "editable": false,
            "mutedNotes": [],
            "mutedChords": [],
            "autoStart": false,
            "sourceChordNote": 0,
            "sourceChordType": "Maj",
            "ctb2Low": null,
            "ctb2Main": {
              "ntr": "ROOT_TRANSPOSITION",
              "ntt": "MELODY",
              "bassOn": true,
              "chordRootUpperLimit": 6,
              "noteLowLimit": 56,
              "noteHighLimit": 69,
              "rtr": "PITCH_SHIFT"
            },
            "ctb2High": null
          },
          "notes": []
        },
        "14": {
          "ctab": {
            "srcChannel": 14,
            "name": "dist",
            "accType": "PHRASE1",
            "editable": false,
            "mutedNotes": [],
            "mutedChords": [],
            "autoStart": false,
            "sourceChordNote": 0,
            "sourceChordType": "Maj",
            "ctb2Low": null,
            "ctb2Main": {
              "ntr": "ROOT_FIXED",
              "ntt": "CHORD",
              "bassOn": false,
              "chordRootUpperLimit": 4,
              "noteLowLimit": 0,
              "noteHighLimit": 127,
              "rtr": "PITCH_SHIFT"
            },
            "ctb2High": null
          },
          "notes": []
        },
        "15": {
          "ctab": {
            "srcChannel": 15,
            "name": "overdr",
            "accType": "PHRASE2",
            "editable": false,
            "mutedNotes": [],
            "mutedChords": [],
            "autoStart": false,
            "sourceChordNote": 0,
            "sourceChordType": "Maj",
            "ctb2Low": null,
            "ctb2Main": {
              "ntr": "ROOT_TRANSPOSITION",
              "ntt": "MELODY",
              "bassOn": true,
              "chordRootUpperLimit": 4,
              "noteLowLimit": 0,
              "noteHighLimit": 127,
              "rtr": "PITCH_SHIFT"
            },
            "ctb2High": null
          },
          "notes": []
        }
      }
    },
    "Ending_A": {
      "type": "Ending_A",
      "sizeInBeats": 8,
      "channels": {
        "8": {
          "ctab": {
            "srcChannel": 8,
            "name": "add-drum",
            "accType": "SUBRHYTHM",
            "editable": false,
            "mutedNotes": [],
            "mutedChords": [],
            "autoStart": true,
            "sourceChordNote": 0,
            "sourceChordType": "Maj7",
            "ctb2Low": null,
            "ctb2Main": {
              "ntr": "ROOT_FIXED",
              "ntt": "BYPASS",
              "bassOn": false,
              "chordRootUpperLimit": 6,
              "noteLowLimit": 0,
              "noteHighLimit": 127,
              "rtr": "PITCH_SHIFT"
            },
            "ctb2High": null
          },
          "notes": [
            {
              "pitch": 54,
              "velocity": 65,
              "position": 0.00625,
              "duration": 0.010416666666666666
            },
            {
              "pitch": 54,
              "velocity": 34,
              "position": 0.26666666666666666,
              "duration": 0.010416666666666666
            },
            {
              "pitch": 54,
              "velocity": 48,
              "position": 0.5041666666666667,
              "duration": 0.010416666666666666
            },
            {
              "pitch": 54,
              "velocity": 39,
              "position": 0.7583333333333333,
              "duration": 0.010416666666666666
            },
            {
              "pitch": 54,
              "velocity": 69,
              "position": 0.9958333333333333,
              "duration": 0.010416666666666666
            },
            {
              "pitch": 54,
              "velocity": 35,
              "position": 1.2604166666666667,
              "duration": 0.010416666666666666
            },
            {
              "pitch": 54,
              "velocity": 48,
              "position": 1.4958333333333333,
              "duration": 0.010416666666666666
            },
            {
              "pitch": 54,
              "velocity": 31,
              "position": 1.75625,
              "duration": 0.010416666666666666
            },
            {
              "pitch": 54,
              "velocity": 72,
              "position": 2.004166666666667,
              "duration": 0.010416666666666666
            },
            {
              "pitch": 54,
              "velocity": 41,
              "position": 2.2666666666666666,
              "duration": 0.010416666666666666
            },
            {
              "pitch": 54,
              "velocity": 42,
              "position": 2.5,
              "duration": 0.010416666666666666
            },
            {
              "pitch": 54,
              "velocity": 32,
              "position": 2.7583333333333333,
              "duration": 0.010416666666666666
            },
            {
              "pitch": 54,
              "velocity": 69,
              "position": 3,
              "duration": 0.010416666666666666
            },
            {
              "pitch": 54,
              "velocity": 44,
              "position": 3.275,
              "duration": 0.010416666666666666
            },
            {
              "pitch": 54,
              "velocity": 44,
              "position": 3.502083333333333,
              "duration": 0.010416666666666666
            },
            {
              "pitch": 54,
              "velocity": 44,
              "position": 3.752083333333333,
              "duration": 0.010416666666666666
            }
          ]
        },
        "9": {
          "ctab": {
            "srcChannel": 9,
            "name": "main-dru",
            "accType": "RHYTHM",
            "editable": false,
            "mutedNotes": [],
            "mutedChords": [],
            "autoStart": true,
            "sourceChordNote": 0,
            "sourceChordType": "Maj7",
            "ctb2Low": null,
            "ctb2Main": {
              "ntr": "ROOT_FIXED",
              "ntt": "BYPASS",
              "bassOn": false,
              "chordRootUpperLimit": 6,
              "noteLowLimit": 0,
              "noteHighLimit": 127,
              "rtr": "PITCH_SHIFT"
            },
            "ctb2High": null
          },
          "notes": [
            {
              "pitch": 36,
              "velocity": 106,
              "position": 0,
              "duration": 0.010416666666666666
            },
            {
              "pitch": 44,
              "velocity": 70,
              "position": 0,
              "duration": 0.010416666666666666
            },
            {
              "pitch": 57,
              "velocity": 70,
              "position": 0,
              "duration": 0.010416666666666666
            },
            {
              "pitch": 51,
              "velocity": 64,
              "position": 0.5166666666666667,
              "duration": 0.010416666666666666
            },
            {
              "pitch": 40,
              "velocity": 89,
              "position": 1,
              "duration": 0.010416666666666666
            },
            {
              "pitch": 44,
              "velocity": 75,
              "position": 1,
              "duration": 0.010416666666666666
            },
            {
              "pitch": 51,
              "velocity": 76,
              "position": 1.0145833333333334,
              "duration": 0.010416666666666666
            },
            {
              "pitch": 51,
              "velocity": 72,
              "position": 1.5145833333333334,
              "duration": 0.010416666666666666
            },
            {
              "pitch": 36,
              "velocity": 106,
              "position": 2,
              "duration": 0.010416666666666666
            },
            {
              "pitch": 44,
              "velocity": 77,
              "position": 2,
              "duration": 0.010416666666666666
            },
            {
              "pitch": 57,
              "velocity": 63,
              "position": 2,
              "duration": 0.010416666666666666
            },
            {
              "pitch": 51,
              "velocity": 62,
              "position": 2.5145833333333334,
              "duration": 0.010416666666666666
            },
            {
              "pitch": 36,
              "velocity": 86,
              "position": 2.775,
              "duration": 0.010416666666666666
            },
            {
              "pitch": 40,
              "velocity": 88,
              "position": 3,
              "duration": 0.010416666666666666
            },
            {
              "pitch": 44,
              "velocity": 73,
              "position": 3,
              "duration": 0.010416666666666666
            },
            {
              "pitch": 51,
              "velocity": 79,
              "position": 3.0125,
              "duration": 0.010416666666666666
            },
            {
              "pitch": 36,
              "velocity": 95,
              "position": 3.5,
              "duration": 0.010416666666666666
            },
            {
              "pitch": 51,
              "velocity": 73,
              "position": 3.5125,
              "duration": 0.010416666666666666
            },
            {
              "pitch": 36,
              "velocity": 106,
              "position": 4,
              "duration": 0.010416666666666666
            },
            {
              "pitch": 49,
              "velocity": 70,
              "position": 4,
              "duration": 0.010416666666666666
            }
          ]
        },
        "10": {
          "ctab": {
            "srcChannel": 10,
            "name": "Bass",
            "accType": "BASS",
            "editable": false,
            "mutedNotes": [],
            "mutedChords": [],
            "autoStart": false,
            "sourceChordNote": 0,
            "sourceChordType": "Maj7",
            "ctb2Low": null,
            "ctb2Main": {
              "ntr": "ROOT_TRANSPOSITION",
              "ntt": "MELODY",
              "bassOn": true,
              "chordRootUpperLimit": 3,
              "noteLowLimit": 28,
              "noteHighLimit": 127,
              "rtr": "PITCH_SHIFT_TO_ROOT"
            },
            "ctb2High": null
          },
          "notes": [
            {
              "pitch": 24,
              "velocity": 60,
              "position": 0,
              "duration": 2.2416666666666667
            },
            {
              "pitch": 24,
              "velocity": 60,
              "position": 2.5,
              "duration": 0.47708333333333336
            },
            {
              "pitch": 24,
              "velocity": 60,
              "position": 3,
              "duration": 0.93125
            },
            {
              "pitch": 24,
              "velocity": 60,
              "position": 4,
              "duration": 3.9916666666666667
            }
          ]
        },
        "11": {
          "ctab": {
            "srcChannel": 11,
            "name": "piano",
            "accType": "CHORD1",
            "editable": false,
            "mutedNotes": [],
            "mutedChords": [],
            "autoStart": false,
            "sourceChordNote": 0,
            "sourceChordType": "Maj",
            "ctb2Low": null,
            "ctb2Main": {
              "ntr": "ROOT_FIXED",
              "ntt": "CHORD",
              "bassOn": false,
              "chordRootUpperLimit": 9,
              "noteLowLimit": 0,
              "noteHighLimit": 127,
              "rtr": "PITCH_SHIFT"
            },
            "ctb2High": null
          },
          "notes": [
            {
              "pitch": 55,
              "velocity": 103,
              "position": 0,
              "duration": 0.6895833333333333
            },
            {
              "pitch": 60,
              "velocity": 117,
              "position": 0.008333333333333333,
              "duration": 0.9145833333333333
            },
            {
              "pitch": 64,
              "velocity": 114,
              "position": 0.016666666666666666,
              "duration": 0.925
            },
            {
              "pitch": 55,
              "velocity": 63,
              "position": 0.7520833333333333,
              "duration": 0.21666666666666667
            },
            {
              "pitch": 60,
              "velocity": 115,
              "position": 1.0020833333333334,
              "duration": 0.6833333333333333
            },
            {
              "pitch": 55,
              "velocity": 103,
              "position": 1.0083333333333333,
              "duration": 0.6916666666666667
            },
            {
              "pitch": 64,
              "velocity": 120,
              "position": 1.0166666666666666,
              "duration": 0.9354166666666667
            },
            {
              "pitch": 55,
              "velocity": 88,
              "position": 1.7583333333333333,
              "duration": 0.23125
            },
            {
              "pitch": 60,
              "velocity": 101,
              "position": 1.7520833333333334,
              "duration": 0.25
            },
            {
              "pitch": 55,
              "velocity": 117,
              "position": 2.004166666666667,
              "duration": 0.4354166666666667
            },
            {
              "pitch": 60,
              "velocity": 115,
              "position": 2.0125,
              "duration": 0.43125
            },
            {
              "pitch": 64,
              "velocity": 116,
              "position": 2.01875,
              "duration": 0.4395833333333333
            },
            {
              "pitch": 55,
              "velocity": 101,
              "position": 2.5104166666666665,
              "duration": 0.9145833333333333
            },
            {
              "pitch": 60,
              "velocity": 91,
              "position": 2.504166666666667,
              "duration": 0.9208333333333333
            },
            {
              "pitch": 64,
              "velocity": 113,
              "position": 2.51875,
              "duration": 0.91875
            },
            {
              "pitch": 64,
              "velocity": 105,
              "position": 3.51875,
              "duration": 0.03958333333333333
            },
            {
              "pitch": 60,
              "velocity": 101,
              "position": 3.5104166666666665,
              "duration": 0.05625
            },
            {
              "pitch": 55,
              "velocity": 123,
              "position": 3.502083333333333,
              "duration": 0.06875
            },
            {
              "pitch": 55,
              "velocity": 71,
              "position": 3.7645833333333334,
              "duration": 0.17708333333333334
            },
            {
              "pitch": 60,
              "velocity": 71,
              "position": 3.75625,
              "duration": 0.20625
            },
            {
              "pitch": 64,
              "velocity": 76,
              "position": 3.75,
              "duration": 0.23333333333333334
            },
            {
              "pitch": 55,
              "velocity": 103,
              "position": 4,
              "duration": 3.9916666666666667
            },
            {
              "pitch": 60,
              "velocity": 117,
              "position": 4.008333333333334,
              "duration": 3.9833333333333334
            },
            {
              "pitch": 64,
              "velocity": 114,
              "position": 4.016666666666667,
              "duration": 3.975
            }
          ]
        },
        "12": {
          "ctab": {
            "srcChannel": 12,
            "name": "mutedgtr",
            "accType": "CHORD2",
            "editable": false,
            "mutedNotes": [],
            "mutedChords": [],
            "autoStart": false,
            "sourceChordNote": 0,
            "sourceChordType": "Maj",
            "ctb2Low": null,
            "ctb2Main": {
              "ntr": "ROOT_FIXED",
              "ntt": "CHORD",
              "bassOn": false,
              "chordRootUpperLimit": 3,
              "noteLowLimit": 0,
              "noteHighLimit": 127,
              "rtr": "PITCH_SHIFT"
            },
            "ctb2High": null
          },
          "notes": [
            {
              "pitch": 55,
              "velocity": 83,
              "position": 0,
              "duration": 3.6104166666666666
            },
            {
              "pitch": 60,
              "velocity": 93,
              "position": 0.05416666666666667,
              "duration": 3.6104166666666666
            },
            {
              "pitch": 64,
              "velocity": 93,
              "position": 0.13541666666666666,
              "duration": 3.6104166666666666
            },
            {
              "pitch": 55,
              "velocity": 83,
              "position": 4,
              "duration": 3.9916666666666667
            },
            {
              "pitch": 60,
              "velocity": 93,
              "position": 4.054166666666666,
              "duration": 3.9375
            },
            {
              "pitch": 64,
              "velocity": 93,
              "position": 4.135416666666667,
              "duration": 3.85625
            }
          ]
        },
        "13": {
          "ctab": {
            "srcChannel": 13,
            "name": "gtr",
            "accType": "PAD",
            "editable": false,
            "mutedNotes": [],
            "mutedChords": [],
            "autoStart": false,
            "sourceChordNote": 0,
            "sourceChordType": "Maj",
            "ctb2Low": null,
            "ctb2Main": {
              "ntr": "ROOT_TRANSPOSITION",
              "ntt": "MELODY",
              "bassOn": true,
              "chordRootUpperLimit": 6,
              "noteLowLimit": 56,
              "noteHighLimit": 69,
              "rtr": "PITCH_SHIFT"
            },
            "ctb2High": null
          },
          "notes": [
            {
              "pitch": 60,
              "velocity": 94,
              "position": 0,
              "duration": 3.872916666666667
            },
            {
              "pitch": 64,
              "velocity": 94,
              "position": 0,
              "duration": 3.872916666666667
            },
            {
              "pitch": 55,
              "velocity": 94,
              "position": 0,
              "duration": 3.875
            },
            {
              "pitch": 60,
              "velocity": 94,
              "position": 4,
              "duration": 3.872916666666667
            },
            {
              "pitch": 64,
              "velocity": 94,
              "position": 4,
              "duration": 3.872916666666667
            },
            {
              "pitch": 55,
              "velocity": 94,
              "position": 4,
              "duration": 3.875
            }
          ]
        },
        "14": {
          "ctab": {
            "srcChannel": 14,
            "name": "dist",
            "accType": "PHRASE1",
            "editable": false,
            "mutedNotes": [],
            "mutedChords": [],
            "autoStart": false,
            "sourceChordNote": 0,
            "sourceChordType": "Maj",
            "ctb2Low": null,
            "ctb2Main": {
              "ntr": "ROOT_FIXED",
              "ntt": "CHORD",
              "bassOn": false,
              "chordRootUpperLimit": 4,
              "noteLowLimit": 0,
              "noteHighLimit": 127,
              "rtr": "PITCH_SHIFT"
            },
            "ctb2High": null
          },
          "notes": []
        },
        "15": {
          "ctab": {
            "srcChannel": 15,
            "name": "overdr",
            "accType": "PHRASE2",
            "editable": false,
            "mutedNotes": [],
            "mutedChords": [],
            "autoStart": false,
            "sourceChordNote": 0,
            "sourceChordType": "Maj",
            "ctb2Low": null,
            "ctb2Main": {
              "ntr": "ROOT_TRANSPOSITION",
              "ntt": "MELODY",
              "bassOn": true,
              "chordRootUpperLimit": 4,
              "noteLowLimit": 0,
              "noteHighLimit": 127,
              "rtr": "PITCH_SHIFT"
            },
            "ctb2High": null
          },
          "notes": [
            {
              "pitch": 48,
              "velocity": 69,
              "position": 2.752083333333333,
              "duration": 0.020833333333333332
            },
            {
              "pitch": 55,
              "velocity": 53,
              "position": 2.779166666666667,
              "duration": 0.004166666666666667
            },
            {
              "pitch": 48,
              "velocity": 72,
              "position": 3.75,
              "duration": 0.00625
            },
            {
              "pitch": 55,
              "velocity": 56,
              "position": 3.76875,
              "duration": 0.010416666666666666
            },
            {
              "pitch": 48,
              "velocity": 95,
              "position": 4.002083333333333,
              "duration": 3.9895833333333335
            },
            {
              "pitch": 55,
              "velocity": 81,
              "position": 4.0125,
              "duration": 3.9791666666666665
            }
          ]
        }
      }
    },
    "Fill_In_BA": {
      "type": "Fill_In_BA",
      "sizeInBeats": 4,
      "channels": {
        "8": {
          "ctab": {
            "srcChannel": 8,
            "name": "add-drum",
            "accType": "SUBRHYTHM",
            "editable": false,
            "mutedNotes": [],
            "mutedChords": [],
            "autoStart": true,
            "sourceChordNote": 0,
            "sourceChordType": "Maj7",
            "ctb2Low": null,
            "ctb2Main": {
              "ntr": "ROOT_FIXED",
              "ntt": "BYPASS",
              "bassOn": false,
              "chordRootUpperLimit": 6,
              "noteLowLimit": 0,
              "noteHighLimit": 127,
              "rtr": "PITCH_SHIFT"
            },
            "ctb2High": null
          },
          "notes": [
            {
              "pitch": 54,
              "velocity": 66,
              "position": 0.008333333333333333,
              "duration": 0.010416666666666666
            },
            {
              "pitch": 54,
              "velocity": 36,
              "position": 0.26666666666666666,
              "duration": 0.010416666666666666
            },
            {
              "pitch": 54,
              "velocity": 49,
              "position": 0.5020833333333333,
              "duration": 0.010416666666666666
            },
            {
              "pitch": 54,
              "velocity": 36,
              "position": 0.7645833333333333,
              "duration": 0.010416666666666666
            },
            {
              "pitch": 54,
              "velocity": 69,
              "position": 0.9979166666666667,
              "duration": 0.010416666666666666
            },
            {
              "pitch": 54,
              "velocity": 34,
              "position": 1.2645833333333334,
              "duration": 0.010416666666666666
            },
            {
              "pitch": 54,
              "velocity": 50,
              "position": 1.4958333333333333,
              "duration": 0.010416666666666666
            },
            {
              "pitch": 54,
              "velocity": 28,
              "position": 1.7645833333333334,
              "duration": 0.010416666666666666
            },
            {
              "pitch": 54,
              "velocity": 69,
              "position": 1.9979166666666666,
              "duration": 0.010416666666666666
            },
            {
              "pitch": 54,
              "velocity": 34,
              "position": 2.754166666666667,
              "duration": 0.010416666666666666
            },
            {
              "pitch": 54,
              "velocity": 71,
              "position": 3,
              "duration": 0.010416666666666666
            },
            {
              "pitch": 54,
              "velocity": 44,
              "position": 3.7583333333333333,
              "duration": 0.010416666666666666
            }
          ]
        },
        "9": {
          "ctab": {
            "srcChannel": 9,
            "name": "main-dru",
            "accType": "RHYTHM",
            "editable": false,
            "mutedNotes": [],
            "mutedChords": [],
            "autoStart": true,
            "sourceChordNote": 0,
            "sourceChordType": "Maj7",
            "ctb2Low": null,
            "ctb2Main": {
              "ntr": "ROOT_FIXED",
              "ntt": "BYPASS",
              "bassOn": false,
              "chordRootUpperLimit": 6,
              "noteLowLimit": 0,
              "noteHighLimit": 127,
              "rtr": "PITCH_SHIFT"
            },
            "ctb2High": null
          },
          "notes": [
            {
              "pitch": 36,
              "velocity": 106,
              "position": 0,
              "duration": 0.010416666666666666
            },
            {
              "pitch": 44,
              "velocity": 70,
              "position": 0,
              "duration": 0.010416666666666666
            },
            {
              "pitch": 51,
              "velocity": 65,
              "position": 0.010416666666666666,
              "duration": 0.010416666666666666
            },
            {
              "pitch": 51,
              "velocity": 82,
              "position": 0.5125,
              "duration": 0.010416666666666666
            },
            {
              "pitch": 40,
              "velocity": 88,
              "position": 1,
              "duration": 0.010416666666666666
            },
            {
              "pitch": 44,
              "velocity": 77,
              "position": 1,
              "duration": 0.010416666666666666
            },
            {
              "pitch": 51,
              "velocity": 62,
              "position": 1.01875,
              "duration": 0.010416666666666666
            },
            {
              "pitch": 51,
              "velocity": 83,
              "position": 1.5166666666666666,
              "duration": 0.010416666666666666
            },
            {
              "pitch": 36,
              "velocity": 106,
              "position": 2,
              "duration": 0.010416666666666666
            },
            {
              "pitch": 46,
              "velocity": 73,
              "position": 2,
              "duration": 0.010416666666666666
            },
            {
              "pitch": 44,
              "velocity": 25,
              "position": 2.2666666666666666,
              "duration": 0.010416666666666666
            },
            {
              "pitch": 40,
              "velocity": 72,
              "position": 2.7666666666666666,
              "duration": 0.010416666666666666
            },
            {
              "pitch": 36,
              "velocity": 74,
              "position": 2.775,
              "duration": 0.010416666666666666
            },
            {
              "pitch": 51,
              "velocity": 62,
              "position": 2.78125,
              "duration": 0.010416666666666666
            },
            {
              "pitch": 36,
              "velocity": 106,
              "position": 3,
              "duration": 0.010416666666666666
            },
            {
              "pitch": 44,
              "velocity": 76,
              "position": 3,
              "duration": 0.010416666666666666
            },
            {
              "pitch": 57,
              "velocity": 69,
              "position": 3,
              "duration": 0.010416666666666666
            },
            {
              "pitch": 46,
              "velocity": 65,
              "position": 3.7666666666666666,
              "duration": 0.010416666666666666
            },
            {
              "pitch": 40,
              "velocity": 81,
              "position": 3.76875,
              "duration": 0.010416666666666666
            },
            {
              "pitch": 36,
              "velocity": 66,
              "position": 3.775,
              "duration": 0.010416666666666666
            },
            {
              "pitch": 49,
              "velocity": 75,
              "position": 3.9895833333333335,
              "duration": 0.010416666666666666
            }
          ]
        },
        "10": {
          "ctab": {
            "srcChannel": 10,
            "name": "Bass",
            "accType": "BASS",
            "editable": false,
            "mutedNotes": [],
            "mutedChords": [],
            "autoStart": false,
            "sourceChordNote": 0,
            "sourceChordType": "Maj7",
            "ctb2Low": null,
            "ctb2Main": {
              "ntr": "ROOT_TRANSPOSITION",
              "ntt": "MELODY",
              "bassOn": true,
              "chordRootUpperLimit": 3,
              "noteLowLimit": 28,
              "noteHighLimit": 127,
              "rtr": "PITCH_SHIFT_TO_ROOT"
            },
            "ctb2High": null
          },
          "notes": [
            {
              "pitch": 24,
              "velocity": 60,
              "position": 0,
              "duration": 0.7416666666666667
            },
            {
              "pitch": 24,
              "velocity": 60,
              "position": 0.75,
              "duration": 0.6958333333333333
            },
            {
              "pitch": 24,
              "velocity": 60,
              "position": 1.5,
              "duration": 0.7375
            },
            {
              "pitch": 24,
              "velocity": 60,
              "position": 2.25,
              "duration": 0.46458333333333335
            },
            {
              "pitch": 31,
              "velocity": 60,
              "position": 2.75,
              "duration": 0.14375
            },
            {
              "pitch": 31,
              "velocity": 60,
              "position": 3,
              "duration": 0.46458333333333335
            },
            {
              "pitch": 28,
              "velocity": 60,
              "position": 3.5,
              "duration": 0.15833333333333333
            },
            {
              "pitch": 31,
              "velocity": 60,
              "position": 3.75,
              "duration": 0.1625
            }
          ]
        },
        "11": {
          "ctab": {
            "srcChannel": 11,
            "name": "piano",
            "accType": "CHORD1",
            "editable": false,
            "mutedNotes": [],
            "mutedChords": [],
            "autoStart": false,
            "sourceChordNote": 0,
            "sourceChordType": "Maj",
            "ctb2Low": null,
            "ctb2Main": {
              "ntr": "ROOT_FIXED",
              "ntt": "CHORD",
              "bassOn": false,
              "chordRootUpperLimit": 9,
              "noteLowLimit": 0,
              "noteHighLimit": 127,
              "rtr": "PITCH_SHIFT"
            },
            "ctb2High": null
          },
          "notes": [
            {
              "pitch": 60,
              "velocity": 111,
              "position": 0.008333333333333333,
              "duration": 0.19375
            },
            {
              "pitch": 55,
              "velocity": 120,
              "position": 0.0020833333333333333,
              "duration": 0.20833333333333334
            },
            {
              "pitch": 64,
              "velocity": 125,
              "position": 0.016666666666666666,
              "duration": 0.4375
            },
            {
              "pitch": 55,
              "velocity": 87,
              "position": 0.25625,
              "duration": 0.21041666666666667
            },
            {
              "pitch": 60,
              "velocity": 79,
              "position": 0.25,
              "duration": 0.225
            },
            {
              "pitch": 64,
              "velocity": 87,
              "position": 0.5145833333333333,
              "duration": 0.17708333333333334
            },
            {
              "pitch": 60,
              "velocity": 61,
              "position": 0.5083333333333333,
              "duration": 0.19583333333333333
            },
            {
              "pitch": 55,
              "velocity": 66,
              "position": 0.5,
              "duration": 0.225
            },
            {
              "pitch": 55,
              "velocity": 127,
              "position": 0.7625,
              "duration": 0.20625
            },
            {
              "pitch": 60,
              "velocity": 127,
              "position": 0.7541666666666667,
              "duration": 0.23541666666666666
            },
            {
              "pitch": 64,
              "velocity": 124,
              "position": 0.7479166666666667,
              "duration": 0.4375
            },
            {
              "pitch": 60,
              "velocity": 83,
              "position": 1.0083333333333333,
              "duration": 0.18958333333333333
            },
            {
              "pitch": 55,
              "velocity": 78,
              "position": 1,
              "duration": 0.21666666666666667
            },
            {
              "pitch": 55,
              "velocity": 83,
              "position": 1.2604166666666667,
              "duration": 0.22291666666666668
            },
            {
              "pitch": 60,
              "velocity": 80,
              "position": 1.2541666666666667,
              "duration": 0.24791666666666667
            },
            {
              "pitch": 64,
              "velocity": 127,
              "position": 1.5166666666666666,
              "duration": 0.004166666666666667
            },
            {
              "pitch": 60,
              "velocity": 118,
              "position": 1.5083333333333333,
              "duration": 0.1875
            },
            {
              "pitch": 55,
              "velocity": 127,
              "position": 1.5020833333333334,
              "duration": 0.21041666666666667
            },
            {
              "pitch": 55,
              "velocity": 96,
              "position": 1.75625,
              "duration": 0.2125
            },
            {
              "pitch": 60,
              "velocity": 87,
              "position": 1.75,
              "duration": 0.2375
            },
            {
              "pitch": 64,
              "velocity": 88,
              "position": 2.0166666666666666,
              "duration": 0.16666666666666666
            },
            {
              "pitch": 60,
              "velocity": 90,
              "position": 2.0083333333333333,
              "duration": 0.19791666666666666
            },
            {
              "pitch": 55,
              "velocity": 94,
              "position": 2,
              "duration": 0.22083333333333333
            }
          ]
        },
        "12": {
          "ctab": {
            "srcChannel": 12,
            "name": "mutedgtr",
            "accType": "CHORD2",
            "editable": false,
            "mutedNotes": [],
            "mutedChords": [],
            "autoStart": false,
            "sourceChordNote": 0,
            "sourceChordType": "Maj",
            "ctb2Low": null,
            "ctb2Main": {
              "ntr": "ROOT_FIXED",
              "ntt": "CHORD",
              "bassOn": false,
              "chordRootUpperLimit": 3,
              "noteLowLimit": 0,
              "noteHighLimit": 127,
              "rtr": "PITCH_SHIFT"
            },
            "ctb2High": null
          },
          "notes": [
            {
              "pitch": 55,
              "velocity": 112,
              "position": 0,
              "duration": 2.129166666666667
            },
            {
              "pitch": 60,
              "velocity": 114,
              "position": 0.0125,
              "duration": 2.1166666666666667
            },
            {
              "pitch": 64,
              "velocity": 114,
              "position": 0.041666666666666664,
              "duration": 2.0875
            }
          ]
        },
        "13": {
          "ctab": {
            "srcChannel": 13,
            "name": "gtr",
            "accType": "PAD",
            "editable": false,
            "mutedNotes": [],
            "mutedChords": [],
            "autoStart": false,
            "sourceChordNote": 0,
            "sourceChordType": "Maj",
            "ctb2Low": null,
            "ctb2Main": {
              "ntr": "ROOT_TRANSPOSITION",
              "ntt": "MELODY",
              "bassOn": true,
              "chordRootUpperLimit": 6,
              "noteLowLimit": 56,
              "noteHighLimit": 69,
              "rtr": "PITCH_SHIFT"
            },
            "ctb2High": null
          },
          "notes": [
            {
              "pitch": 60,
              "velocity": 94,
              "position": 0,
              "duration": 2.870833333333333
            },
            {
              "pitch": 64,
              "velocity": 94,
              "position": 0,
              "duration": 2.870833333333333
            },
            {
              "pitch": 55,
              "velocity": 94,
              "position": 0,
              "duration": 2.872916666666667
            },
            {
              "pitch": 64,
              "velocity": 94,
              "position": 3,
              "duration": 0.85625
            },
            {
              "pitch": 55,
              "velocity": 94,
              "position": 3,
              "duration": 0.8583333333333333
            },
            {
              "pitch": 60,
              "velocity": 94,
              "position": 3,
              "duration": 0.8583333333333333
            }
          ]
        },
        "14": {
          "ctab": {
            "srcChannel": 14,
            "name": "dist",
            "accType": "PHRASE1",
            "editable": false,
            "mutedNotes": [],
            "mutedChords": [],
            "autoStart": false,
            "sourceChordNote": 0,
            "sourceChordType": "Maj",
            "ctb2Low": null,
            "ctb2Main": {
              "ntr": "ROOT_FIXED",
              "ntt": "CHORD",
              "bassOn": false,
              "chordRootUpperLimit": 4,
              "noteLowLimit": 0,
              "noteHighLimit": 127,
              "rtr": "PITCH_SHIFT"
            },
            "ctb2High": null
          },
          "notes": [
            {
              "pitch": 64,
              "velocity": 94,
              "position": 0,
              "duration": 1.8708333333333333
            },
            {
              "pitch": 72,
              "velocity": 94,
              "position": 0,
              "duration": 1.8708333333333333
            }
          ]
        },
        "15": {
          "ctab": {
            "srcChannel": 15,
            "name": "overdr",
            "accType": "PHRASE2",
            "editable": false,
            "mutedNotes": [],
            "mutedChords": [],
            "autoStart": false,
            "sourceChordNote": 0,
            "sourceChordType": "Maj",
            "ctb2Low": null,
            "ctb2Main": {
              "ntr": "ROOT_TRANSPOSITION",
              "ntt": "MELODY",
              "bassOn": true,
              "chordRootUpperLimit": 4,
              "noteLowLimit": 0,
              "noteHighLimit": 127,
              "rtr": "PITCH_SHIFT"
            },
            "ctb2High": null
          },
          "notes": [
            {
              "pitch": 48,
              "velocity": 95,
              "position": 0.0020833333333333333,
              "duration": 2.19375
            },
            {
              "pitch": 55,
              "velocity": 81,
              "position": 0.0125,
              "duration": 2.19375
            }
          ]
        }
      }
    },
    "Intro_B": {
      "type": "Intro_B",
      "sizeInBeats": 16,
      "channels": {
        "8": {
          "ctab": {
            "srcChannel": 8,
            "name": "add-drum",
            "accType": "SUBRHYTHM",
            "editable": false,
            "mutedNotes": [],
            "mutedChords": [],
            "autoStart": true,
            "sourceChordNote": 0,
            "sourceChordType": "Maj7",
            "ctb2Low": null,
            "ctb2Main": {
              "ntr": "ROOT_FIXED",
              "ntt": "BYPASS",
              "bassOn": false,
              "chordRootUpperLimit": 6,
              "noteLowLimit": 0,
              "noteHighLimit": 127,
              "rtr": "PITCH_SHIFT"
            },
            "ctb2High": null
          },
          "notes": [
            {
              "pitch": 54,
              "velocity": 67,
              "position": 0.008333333333333333,
              "duration": 0.010416666666666666
            },
            {
              "pitch": 54,
              "velocity": 34,
              "position": 0.26875,
              "duration": 0.010416666666666666
            },
            {
              "pitch": 54,
              "velocity": 48,
              "position": 0.5104166666666666,
              "duration": 0.010416666666666666
            },
            {
              "pitch": 54,
              "velocity": 36,
              "position": 0.775,
              "duration": 0.010416666666666666
            },
            {
              "pitch": 54,
              "velocity": 71,
              "position": 1.0104166666666667,
              "duration": 0.010416666666666666
            },
            {
              "pitch": 54,
              "velocity": 35,
              "position": 1.2666666666666666,
              "duration": 0.010416666666666666
            },
            {
              "pitch": 54,
              "velocity": 52,
              "position": 1.5020833333333334,
              "duration": 0.010416666666666666
            },
            {
              "pitch": 54,
              "velocity": 29,
              "position": 1.7708333333333333,
              "duration": 0.010416666666666666
            },
            {
              "pitch": 54,
              "velocity": 46,
              "position": 2,
              "duration": 0.010416666666666666
            },
            {
              "pitch": 54,
              "velocity": 40,
              "position": 2.275,
              "duration": 0.010416666666666666
            },
            {
              "pitch": 54,
              "velocity": 41,
              "position": 2.50625,
              "duration": 0.010416666666666666
            },
            {
              "pitch": 54,
              "velocity": 34,
              "position": 2.7729166666666667,
              "duration": 0.010416666666666666
            },
            {
              "pitch": 54,
              "velocity": 69,
              "position": 3.0083333333333333,
              "duration": 0.010416666666666666
            },
            {
              "pitch": 54,
              "velocity": 42,
              "position": 3.2666666666666666,
              "duration": 0.010416666666666666
            },
            {
              "pitch": 54,
              "velocity": 40,
              "position": 3.5104166666666665,
              "duration": 0.010416666666666666
            },
            {
              "pitch": 54,
              "velocity": 42,
              "position": 3.76875,
              "duration": 0.010416666666666666
            },
            {
              "pitch": 54,
              "velocity": 48,
              "position": 3.997916666666667,
              "duration": 0.010416666666666666
            },
            {
              "pitch": 54,
              "velocity": 36,
              "position": 4.266666666666667,
              "duration": 0.010416666666666666
            },
            {
              "pitch": 54,
              "velocity": 44,
              "position": 4.510416666666667,
              "duration": 0.010416666666666666
            },
            {
              "pitch": 54,
              "velocity": 20,
              "position": 4.766666666666667,
              "duration": 0.010416666666666666
            },
            {
              "pitch": 54,
              "velocity": 69,
              "position": 5.010416666666667,
              "duration": 0.010416666666666666
            },
            {
              "pitch": 54,
              "velocity": 43,
              "position": 5.266666666666667,
              "duration": 0.010416666666666666
            },
            {
              "pitch": 54,
              "velocity": 47,
              "position": 5.504166666666666,
              "duration": 0.010416666666666666
            },
            {
              "pitch": 54,
              "velocity": 33,
              "position": 5.76875,
              "duration": 0.010416666666666666
            },
            {
              "pitch": 54,
              "velocity": 46,
              "position": 6.004166666666666,
              "duration": 0.010416666666666666
            },
            {
              "pitch": 54,
              "velocity": 45,
              "position": 6.264583333333333,
              "duration": 0.010416666666666666
            },
            {
              "pitch": 54,
              "velocity": 46,
              "position": 6.5,
              "duration": 0.010416666666666666
            },
            {
              "pitch": 54,
              "velocity": 38,
              "position": 6.760416666666667,
              "duration": 0.010416666666666666
            },
            {
              "pitch": 54,
              "velocity": 70,
              "position": 7.00625,
              "duration": 0.010416666666666666
            },
            {
              "pitch": 54,
              "velocity": 35,
              "position": 7.272916666666666,
              "duration": 0.010416666666666666
            },
            {
              "pitch": 54,
              "velocity": 41,
              "position": 7.508333333333334,
              "duration": 0.010416666666666666
            },
            {
              "pitch": 54,
              "velocity": 42,
              "position": 7.76875,
              "duration": 0.010416666666666666
            },
            {
              "pitch": 54,
              "velocity": 46,
              "position": 8,
              "duration": 0.010416666666666666
            },
            {
              "pitch": 54,
              "velocity": 44,
              "position": 8.275,
              "duration": 0.010416666666666666
            },
            {
              "pitch": 54,
              "velocity": 43,
              "position": 8.504166666666666,
              "duration": 0.010416666666666666
            },
            {
              "pitch": 54,
              "velocity": 35,
              "position": 8.764583333333333,
              "duration": 0.010416666666666666
            },
            {
              "pitch": 54,
              "velocity": 75,
              "position": 9.00625,
              "duration": 0.010416666666666666
            },
            {
              "pitch": 54,
              "velocity": 37,
              "position": 9.26875,
              "duration": 0.010416666666666666
            },
            {
              "pitch": 54,
              "velocity": 39,
              "position": 9.508333333333333,
              "duration": 0.010416666666666666
            },
            {
              "pitch": 54,
              "velocity": 38,
              "position": 9.772916666666667,
              "duration": 0.010416666666666666
            },
            {
              "pitch": 54,
              "velocity": 53,
              "position": 10.004166666666666,
              "duration": 0.010416666666666666
            },
            {
              "pitch": 54,
              "velocity": 38,
              "position": 10.270833333333334,
              "duration": 0.010416666666666666
            },
            {
              "pitch": 54,
              "velocity": 41,
              "position": 10.50625,
              "duration": 0.010416666666666666
            },
            {
              "pitch": 54,
              "velocity": 42,
              "position": 10.7625,
              "duration": 0.010416666666666666
            },
            {
              "pitch": 54,
              "velocity": 75,
              "position": 11.00625,
              "duration": 0.010416666666666666
            },
            {
              "pitch": 54,
              "velocity": 42,
              "position": 11.272916666666667,
              "duration": 0.010416666666666666
            },
            {
              "pitch": 54,
              "velocity": 43,
              "position": 11.50625,
              "duration": 0.010416666666666666
            },
            {
              "pitch": 54,
              "velocity": 34,
              "position": 11.777083333333334,
              "duration": 0.010416666666666666
            },
            {
              "pitch": 54,
              "velocity": 50,
              "position": 12.008333333333333,
              "duration": 0.010416666666666666
            },
            {
              "pitch": 54,
              "velocity": 35,
              "position": 12.275,
              "duration": 0.010416666666666666
            },
            {
              "pitch": 54,
              "velocity": 46,
              "position": 12.5,
              "duration": 0.010416666666666666
            },
            {
              "pitch": 54,
              "velocity": 38,
              "position": 12.764583333333333,
              "duration": 0.010416666666666666
            },
            {
              "pitch": 54,
              "velocity": 69,
              "position": 13.00625,
              "duration": 0.010416666666666666
            },
            {
              "pitch": 54,
              "velocity": 34,
              "position": 13.26875,
              "duration": 0.010416666666666666
            },
            {
              "pitch": 54,
              "velocity": 49,
              "position": 13.504166666666666,
              "duration": 0.010416666666666666
            },
            {
              "pitch": 54,
              "velocity": 29,
              "position": 13.76875,
              "duration": 0.010416666666666666
            },
            {
              "pitch": 54,
              "velocity": 50,
              "position": 14.00625,
              "duration": 0.010416666666666666
            },
            {
              "pitch": 54,
              "velocity": 42,
              "position": 14.266666666666667,
              "duration": 0.010416666666666666
            },
            {
              "pitch": 54,
              "velocity": 44,
              "position": 14.502083333333333,
              "duration": 0.010416666666666666
            },
            {
              "pitch": 54,
              "velocity": 33,
              "position": 14.766666666666667,
              "duration": 0.010416666666666666
            },
            {
              "pitch": 54,
              "velocity": 71,
              "position": 15.010416666666666,
              "duration": 0.010416666666666666
            },
            {
              "pitch": 54,
              "velocity": 42,
              "position": 15.275,
              "duration": 0.010416666666666666
            },
            {
              "pitch": 54,
              "velocity": 42,
              "position": 15.50625,
              "duration": 0.010416666666666666
            },
            {
              "pitch": 54,
              "velocity": 42,
              "position": 15.766666666666667,
              "duration": 0.010416666666666666
            }
          ]
        },
        "9": {
          "ctab": {
            "srcChannel": 9,
            "name": "main-dru",
            "accType": "RHYTHM",
            "editable": false,
            "mutedNotes": [],
            "mutedChords": [],
            "autoStart": true,
            "sourceChordNote": 0,
            "sourceChordType": "Maj7",
            "ctb2Low": null,
            "ctb2Main": {
              "ntr": "ROOT_FIXED",
              "ntt": "BYPASS",
              "bassOn": false,
              "chordRootUpperLimit": 6,
              "noteLowLimit": 0,
              "noteHighLimit": 127,
              "rtr": "PITCH_SHIFT"
            },
            "ctb2High": null
          },
          "notes": [
            {
              "pitch": 36,
              "velocity": 104,
              "position": 0,
              "duration": 0.010416666666666666
            },
            {
              "pitch": 49,
              "velocity": 66,
              "position": 0,
              "duration": 0.010416666666666666
            },
            {
              "pitch": 42,
              "velocity": 73,
              "position": 0.5,
              "duration": 0.010416666666666666
            },
            {
              "pitch": 40,
              "velocity": 88,
              "position": 1,
              "duration": 0.010416666666666666
            },
            {
              "pitch": 42,
              "velocity": 71,
              "position": 1,
              "duration": 0.010416666666666666
            },
            {
              "pitch": 36,
              "velocity": 80,
              "position": 1.5,
              "duration": 0.010416666666666666
            },
            {
              "pitch": 42,
              "velocity": 73,
              "position": 1.5,
              "duration": 0.010416666666666666
            },
            {
              "pitch": 36,
              "velocity": 106,
              "position": 2,
              "duration": 0.010416666666666666
            },
            {
              "pitch": 42,
              "velocity": 79,
              "position": 2,
              "duration": 0.010416666666666666
            },
            {
              "pitch": 42,
              "velocity": 73,
              "position": 2.5,
              "duration": 0.010416666666666666
            },
            {
              "pitch": 40,
              "velocity": 89,
              "position": 3,
              "duration": 0.010416666666666666
            },
            {
              "pitch": 42,
              "velocity": 73,
              "position": 3,
              "duration": 0.010416666666666666
            },
            {
              "pitch": 36,
              "velocity": 95,
              "position": 3.5,
              "duration": 0.010416666666666666
            },
            {
              "pitch": 42,
              "velocity": 77,
              "position": 3.5,
              "duration": 0.010416666666666666
            },
            {
              "pitch": 36,
              "velocity": 106,
              "position": 4,
              "duration": 0.010416666666666666
            },
            {
              "pitch": 42,
              "velocity": 72,
              "position": 4,
              "duration": 0.010416666666666666
            },
            {
              "pitch": 42,
              "velocity": 77,
              "position": 4.5,
              "duration": 0.010416666666666666
            },
            {
              "pitch": 36,
              "velocity": 106,
              "position": 4.775,
              "duration": 0.010416666666666666
            },
            {
              "pitch": 40,
              "velocity": 87,
              "position": 5,
              "duration": 0.010416666666666666
            },
            {
              "pitch": 42,
              "velocity": 74,
              "position": 5,
              "duration": 0.010416666666666666
            },
            {
              "pitch": 36,
              "velocity": 100,
              "position": 5.5,
              "duration": 0.010416666666666666
            },
            {
              "pitch": 42,
              "velocity": 74,
              "position": 5.5,
              "duration": 0.010416666666666666
            },
            {
              "pitch": 36,
              "velocity": 106,
              "position": 6,
              "duration": 0.010416666666666666
            },
            {
              "pitch": 42,
              "velocity": 69,
              "position": 6,
              "duration": 0.010416666666666666
            },
            {
              "pitch": 42,
              "velocity": 74,
              "position": 6.5,
              "duration": 0.010416666666666666
            },
            {
              "pitch": 40,
              "velocity": 89,
              "position": 7,
              "duration": 0.010416666666666666
            },
            {
              "pitch": 42,
              "velocity": 79,
              "position": 7,
              "duration": 0.010416666666666666
            },
            {
              "pitch": 36,
              "velocity": 81,
              "position": 7.5,
              "duration": 0.010416666666666666
            },
            {
              "pitch": 46,
              "velocity": 70,
              "position": 7.5,
              "duration": 0.010416666666666666
            },
            {
              "pitch": 36,
              "velocity": 106,
              "position": 8,
              "duration": 0.010416666666666666
            },
            {
              "pitch": 57,
              "velocity": 62,
              "position": 8,
              "duration": 0.010416666666666666
            },
            {
              "pitch": 42,
              "velocity": 72,
              "position": 8.5,
              "duration": 0.010416666666666666
            },
            {
              "pitch": 40,
              "velocity": 87,
              "position": 9,
              "duration": 0.010416666666666666
            },
            {
              "pitch": 42,
              "velocity": 73,
              "position": 9,
              "duration": 0.010416666666666666
            },
            {
              "pitch": 36,
              "velocity": 87,
              "position": 9.5,
              "duration": 0.010416666666666666
            },
            {
              "pitch": 42,
              "velocity": 72,
              "position": 9.5,
              "duration": 0.010416666666666666
            },
            {
              "pitch": 36,
              "velocity": 106,
              "position": 10,
              "duration": 0.010416666666666666
            },
            {
              "pitch": 42,
              "velocity": 73,
              "position": 10,
              "duration": 0.010416666666666666
            },
            {
              "pitch": 42,
              "velocity": 71,
              "position": 10.5,
              "duration": 0.010416666666666666
            },
            {
              "pitch": 40,
              "velocity": 89,
              "position": 11,
              "duration": 0.010416666666666666
            },
            {
              "pitch": 42,
              "velocity": 74,
              "position": 11,
              "duration": 0.010416666666666666
            },
            {
              "pitch": 36,
              "velocity": 84,
              "position": 11.5,
              "duration": 0.010416666666666666
            },
            {
              "pitch": 42,
              "velocity": 71,
              "position": 11.5,
              "duration": 0.010416666666666666
            },
            {
              "pitch": 36,
              "velocity": 106,
              "position": 12,
              "duration": 0.010416666666666666
            },
            {
              "pitch": 42,
              "velocity": 71,
              "position": 12,
              "duration": 0.010416666666666666
            },
            {
              "pitch": 42,
              "velocity": 71,
              "position": 12.5,
              "duration": 0.010416666666666666
            },
            {
              "pitch": 36,
              "velocity": 106,
              "position": 12.775,
              "duration": 0.010416666666666666
            },
            {
              "pitch": 40,
              "velocity": 89,
              "position": 13,
              "duration": 0.010416666666666666
            },
            {
              "pitch": 42,
              "velocity": 75,
              "position": 13,
              "duration": 0.010416666666666666
            },
            {
              "pitch": 36,
              "velocity": 104,
              "position": 13.5,
              "duration": 0.010416666666666666
            },
            {
              "pitch": 42,
              "velocity": 73,
              "position": 13.5,
              "duration": 0.010416666666666666
            },
            {
              "pitch": 36,
              "velocity": 100,
              "position": 14,
              "duration": 0.010416666666666666
            },
            {
              "pitch": 42,
              "velocity": 69,
              "position": 14,
              "duration": 0.010416666666666666
            },
            {
              "pitch": 42,
              "velocity": 71,
              "position": 14.5,
              "duration": 0.010416666666666666
            },
            {
              "pitch": 40,
              "velocity": 87,
              "position": 15,
              "duration": 0.010416666666666666
            },
            {
              "pitch": 42,
              "velocity": 68,
              "position": 15,
              "duration": 0.010416666666666666
            },
            {
              "pitch": 40,
              "velocity": 63,
              "position": 15.5,
              "duration": 0.010416666666666666
            },
            {
              "pitch": 46,
              "velocity": 73,
              "position": 15.5,
              "duration": 0.010416666666666666
            },
            {
              "pitch": 40,
              "velocity": 89,
              "position": 15.76875,
              "duration": 0.010416666666666666
            },
            {
              "pitch": 49,
              "velocity": 75,
              "position": 15.989583333333334,
              "duration": 0.010416666666666666
            }
          ]
        },
        "10": {
          "ctab": {
            "srcChannel": 10,
            "name": "Bass",
            "accType": "BASS",
            "editable": false,
            "mutedNotes": [],
            "mutedChords": [],
            "autoStart": false,
            "sourceChordNote": 0,
            "sourceChordType": "Maj7",
            "ctb2Low": null,
            "ctb2Main": {
              "ntr": "ROOT_TRANSPOSITION",
              "ntt": "BYPASS",
              "bassOn": false,
              "chordRootUpperLimit": 3,
              "noteLowLimit": 28,
              "noteHighLimit": 127,
              "rtr": "PITCH_SHIFT"
            },
            "ctb2High": null
          },
          "notes": [
            {
              "pitch": 24,
              "velocity": 60,
              "position": 0,
              "duration": 0.3333333333333333
            },
            {
              "pitch": 24,
              "velocity": 60,
              "position": 1,
              "duration": 0.3333333333333333
            },
            {
              "pitch": 17,
              "velocity": 60,
              "position": 1.5,
              "duration": 0.24791666666666667
            },
            {
              "pitch": 19,
              "velocity": 60,
              "position": 1.75,
              "duration": 0.20833333333333334
            },
            {
              "pitch": 24,
              "velocity": 60,
              "position": 2,
              "duration": 0.42291666666666666
            },
            {
              "pitch": 24,
              "velocity": 60,
              "position": 3,
              "duration": 0.3458333333333333
            },
            {
              "pitch": 17,
              "velocity": 60,
              "position": 3.5,
              "duration": 0.24791666666666667
            },
            {
              "pitch": 19,
              "velocity": 60,
              "position": 3.75,
              "duration": 0.16666666666666666
            },
            {
              "pitch": 24,
              "velocity": 60,
              "position": 4,
              "duration": 0.44583333333333336
            },
            {
              "pitch": 24,
              "velocity": 60,
              "position": 5,
              "duration": 0.35833333333333334
            },
            {
              "pitch": 17,
              "velocity": 60,
              "position": 5.5,
              "duration": 0.24791666666666667
            },
            {
              "pitch": 19,
              "velocity": 60,
              "position": 5.75,
              "duration": 0.2
            },
            {
              "pitch": 24,
              "velocity": 60,
              "position": 6,
              "duration": 0.33125
            },
            {
              "pitch": 29,
              "velocity": 60,
              "position": 6.5,
              "duration": 0.47708333333333336
            },
            {
              "pitch": 36,
              "velocity": 60,
              "position": 7,
              "duration": 0.25
            },
            {
              "pitch": 31,
              "velocity": 60,
              "position": 7.25,
              "duration": 0.20833333333333334
            },
            {
              "pitch": 29,
              "velocity": 60,
              "position": 7.5,
              "duration": 0.43333333333333335
            },
            {
              "pitch": 24,
              "velocity": 60,
              "position": 8,
              "duration": 0.3958333333333333
            },
            {
              "pitch": 24,
              "velocity": 60,
              "position": 9,
              "duration": 0.33541666666666664
            },
            {
              "pitch": 17,
              "velocity": 60,
              "position": 9.5,
              "duration": 0.24791666666666667
            },
            {
              "pitch": 19,
              "velocity": 60,
              "position": 9.75,
              "duration": 0.20833333333333334
            },
            {
              "pitch": 24,
              "velocity": 60,
              "position": 10,
              "duration": 0.42291666666666666
            },
            {
              "pitch": 24,
              "velocity": 60,
              "position": 11,
              "duration": 0.3458333333333333
            },
            {
              "pitch": 17,
              "velocity": 60,
              "position": 11.5,
              "duration": 0.24791666666666667
            },
            {
              "pitch": 19,
              "velocity": 60,
              "position": 11.75,
              "duration": 0.16666666666666666
            },
            {
              "pitch": 24,
              "velocity": 60,
              "position": 12,
              "duration": 0.44583333333333336
            },
            {
              "pitch": 24,
              "velocity": 60,
              "position": 13,
              "duration": 0.35833333333333334
            },
            {
              "pitch": 17,
              "velocity": 60,
              "position": 13.5,
              "duration": 0.24791666666666667
            },
            {
              "pitch": 19,
              "velocity": 60,
              "position": 13.75,
              "duration": 0.2
            },
            {
              "pitch": 24,
              "velocity": 60,
              "position": 14,
              "duration": 0.33125
            },
            {
              "pitch": 29,
              "velocity": 60,
              "position": 14.5,
              "duration": 0.47708333333333336
            },
            {
              "pitch": 34,
              "velocity": 60,
              "position": 15,
              "duration": 0.47708333333333336
            },
            {
              "pitch": 31,
              "velocity": 60,
              "position": 15.5,
              "duration": 0.43333333333333335
            }
          ]
        },
        "11": {
          "ctab": {
            "srcChannel": 11,
            "name": "piano",
            "accType": "CHORD1",
            "editable": false,
            "mutedNotes": [],
            "mutedChords": [],
            "autoStart": false,
            "sourceChordNote": 0,
            "sourceChordType": "Maj7",
            "ctb2Low": null,
            "ctb2Main": {
              "ntr": "ROOT_TRANSPOSITION",
              "ntt": "BYPASS",
              "bassOn": false,
              "chordRootUpperLimit": 6,
              "noteLowLimit": 53,
              "noteHighLimit": 64,
              "rtr": "PITCH_SHIFT"
            },
            "ctb2High": null
          },
          "notes": [
            {
              "pitch": 60,
              "velocity": 113,
              "position": 0.01875,
              "duration": 0.19166666666666668
            },
            {
              "pitch": 67,
              "velocity": 111,
              "position": 0,
              "duration": 0.22083333333333333
            },
            {
              "pitch": 67,
              "velocity": 57,
              "position": 0.25625,
              "duration": 0.21875
            },
            {
              "pitch": 64,
              "velocity": 103,
              "position": 0.029166666666666667,
              "duration": 0.45208333333333334
            },
            {
              "pitch": 60,
              "velocity": 68,
              "position": 0.24375,
              "duration": 0.24166666666666667
            },
            {
              "pitch": 64,
              "velocity": 65,
              "position": 0.5333333333333333,
              "duration": 0.16666666666666666
            },
            {
              "pitch": 60,
              "velocity": 63,
              "position": 0.5229166666666667,
              "duration": 0.1875
            },
            {
              "pitch": 67,
              "velocity": 70,
              "position": 0.5104166666666666,
              "duration": 0.2125
            },
            {
              "pitch": 67,
              "velocity": 113,
              "position": 0.7583333333333333,
              "duration": 0.20625
            },
            {
              "pitch": 60,
              "velocity": 105,
              "position": 0.74375,
              "duration": 0.2375
            },
            {
              "pitch": 64,
              "velocity": 117,
              "position": 0.7333333333333333,
              "duration": 0.2625
            },
            {
              "pitch": 67,
              "velocity": 71,
              "position": 1,
              "duration": 0.058333333333333334
            },
            {
              "pitch": 60,
              "velocity": 81,
              "position": 1.01875,
              "duration": 0.03958333333333333
            },
            {
              "pitch": 64,
              "velocity": 77,
              "position": 1.0354166666666667,
              "duration": 0.025
            },
            {
              "pitch": 65,
              "velocity": 77,
              "position": 1.5395833333333333,
              "duration": 0.15416666666666667
            },
            {
              "pitch": 60,
              "velocity": 77,
              "position": 1.5208333333333333,
              "duration": 0.175
            },
            {
              "pitch": 69,
              "velocity": 81,
              "position": 1.5083333333333333,
              "duration": 0.20416666666666666
            },
            {
              "pitch": 69,
              "velocity": 80,
              "position": 1.7479166666666666,
              "duration": 0.22083333333333333
            },
            {
              "pitch": 60,
              "velocity": 76,
              "position": 1.7291666666666667,
              "duration": 0.24166666666666667
            },
            {
              "pitch": 65,
              "velocity": 77,
              "position": 1.725,
              "duration": 0.26666666666666666
            },
            {
              "pitch": 60,
              "velocity": 127,
              "position": 2.0083333333333333,
              "duration": 0.20416666666666666
            },
            {
              "pitch": 69,
              "velocity": 121,
              "position": 2.004166666666667,
              "duration": 0.22083333333333333
            },
            {
              "pitch": 69,
              "velocity": 69,
              "position": 2.2604166666666665,
              "duration": 0.22083333333333333
            },
            {
              "pitch": 60,
              "velocity": 80,
              "position": 2.247916666666667,
              "duration": 0.24375
            },
            {
              "pitch": 65,
              "velocity": 127,
              "position": 2.03125,
              "duration": 0.4666666666666667
            },
            {
              "pitch": 65,
              "velocity": 87,
              "position": 2.55,
              "duration": 0.15208333333333332
            },
            {
              "pitch": 60,
              "velocity": 70,
              "position": 2.529166666666667,
              "duration": 0.17916666666666667
            },
            {
              "pitch": 69,
              "velocity": 85,
              "position": 2.5166666666666666,
              "duration": 0.19791666666666666
            },
            {
              "pitch": 69,
              "velocity": 127,
              "position": 2.75,
              "duration": 0.21875
            },
            {
              "pitch": 60,
              "velocity": 124,
              "position": 2.7416666666666667,
              "duration": 0.2375
            },
            {
              "pitch": 65,
              "velocity": 127,
              "position": 2.7333333333333334,
              "duration": 0.25833333333333336
            },
            {
              "pitch": 69,
              "velocity": 76,
              "position": 3.004166666666667,
              "duration": 0.07291666666666667
            },
            {
              "pitch": 60,
              "velocity": 78,
              "position": 3.0166666666666666,
              "duration": 0.0625
            },
            {
              "pitch": 65,
              "velocity": 74,
              "position": 3.03125,
              "duration": 0.04791666666666667
            },
            {
              "pitch": 67,
              "velocity": 81,
              "position": 3.5375,
              "duration": 0.17291666666666666
            },
            {
              "pitch": 62,
              "velocity": 91,
              "position": 3.525,
              "duration": 0.1875
            },
            {
              "pitch": 59,
              "velocity": 89,
              "position": 3.5104166666666665,
              "duration": 0.21041666666666667
            },
            {
              "pitch": 67,
              "velocity": 84,
              "position": 3.779166666666667,
              "duration": 0.18958333333333333
            },
            {
              "pitch": 59,
              "velocity": 80,
              "position": 3.75625,
              "duration": 0.21875
            },
            {
              "pitch": 62,
              "velocity": 69,
              "position": 3.745833333333333,
              "duration": 0.23541666666666666
            },
            {
              "pitch": 67,
              "velocity": 121,
              "position": 4.0375,
              "duration": 0.17708333333333334
            },
            {
              "pitch": 59,
              "velocity": 111,
              "position": 4.010416666666667,
              "duration": 0.20416666666666666
            },
            {
              "pitch": 62,
              "velocity": 125,
              "position": 4.01875,
              "duration": 0.19583333333333333
            },
            {
              "pitch": 60,
              "velocity": 87,
              "position": 4.516666666666667,
              "duration": 0.041666666666666664
            },
            {
              "pitch": 69,
              "velocity": 94,
              "position": 4.50625,
              "duration": 0.052083333333333336
            },
            {
              "pitch": 65,
              "velocity": 127,
              "position": 4.7375,
              "duration": 0.20625
            },
            {
              "pitch": 60,
              "velocity": 117,
              "position": 4.75,
              "duration": 0.19583333333333333
            },
            {
              "pitch": 69,
              "velocity": 127,
              "position": 4.76875,
              "duration": 0.17708333333333334
            },
            {
              "pitch": 67,
              "velocity": 50,
              "position": 5.26875,
              "duration": 0.21041666666666667
            },
            {
              "pitch": 60,
              "velocity": 47,
              "position": 5.25,
              "duration": 0.23958333333333334
            },
            {
              "pitch": 64,
              "velocity": 94,
              "position": 5.539583333333334,
              "duration": 0.17708333333333334
            },
            {
              "pitch": 60,
              "velocity": 89,
              "position": 5.527083333333334,
              "duration": 0.20208333333333334
            },
            {
              "pitch": 67,
              "velocity": 98,
              "position": 5.514583333333333,
              "duration": 0.21875
            },
            {
              "pitch": 67,
              "velocity": 85,
              "position": 5.76875,
              "duration": 0.23333333333333334
            },
            {
              "pitch": 60,
              "velocity": 98,
              "position": 5.764583333333333,
              "duration": 0.25
            },
            {
              "pitch": 64,
              "velocity": 70,
              "position": 5.75,
              "duration": 0.27708333333333335
            },
            {
              "pitch": 67,
              "velocity": 123,
              "position": 6.039583333333334,
              "duration": 0.43125
            },
            {
              "pitch": 60,
              "velocity": 120,
              "position": 6.052083333333333,
              "duration": 0.42916666666666664
            },
            {
              "pitch": 64,
              "velocity": 121,
              "position": 6.066666666666666,
              "duration": 0.43333333333333335
            },
            {
              "pitch": 60,
              "velocity": 66,
              "position": 6.53125,
              "duration": 0.20416666666666666
            },
            {
              "pitch": 67,
              "velocity": 71,
              "position": 6.520833333333333,
              "duration": 0.22083333333333333
            },
            {
              "pitch": 67,
              "velocity": 69,
              "position": 6.777083333333334,
              "duration": 0.2125
            },
            {
              "pitch": 64,
              "velocity": 59,
              "position": 6.55,
              "duration": 0.45
            },
            {
              "pitch": 60,
              "velocity": 60,
              "position": 6.770833333333333,
              "duration": 0.2375
            },
            {
              "pitch": 67,
              "velocity": 125,
              "position": 7.025,
              "duration": 0.44583333333333336
            },
            {
              "pitch": 60,
              "velocity": 127,
              "position": 7.045833333333333,
              "duration": 0.44166666666666665
            },
            {
              "pitch": 64,
              "velocity": 114,
              "position": 7.052083333333333,
              "duration": 0.45208333333333334
            },
            {
              "pitch": 64,
              "velocity": 88,
              "position": 7.55625,
              "duration": 0.16041666666666668
            },
            {
              "pitch": 60,
              "velocity": 84,
              "position": 7.5375,
              "duration": 0.18958333333333333
            },
            {
              "pitch": 67,
              "velocity": 101,
              "position": 7.520833333333333,
              "duration": 0.21458333333333332
            },
            {
              "pitch": 64,
              "velocity": 74,
              "position": 7.747916666666667,
              "duration": 0.21666666666666667
            },
            {
              "pitch": 60,
              "velocity": 70,
              "position": 7.760416666666667,
              "duration": 0.20416666666666666
            },
            {
              "pitch": 67,
              "velocity": 70,
              "position": 7.770833333333333,
              "duration": 0.19583333333333333
            },
            {
              "pitch": 60,
              "velocity": 113,
              "position": 8.01875,
              "duration": 0.19166666666666668
            },
            {
              "pitch": 67,
              "velocity": 111,
              "position": 8,
              "duration": 0.22083333333333333
            },
            {
              "pitch": 67,
              "velocity": 57,
              "position": 8.25625,
              "duration": 0.21875
            },
            {
              "pitch": 64,
              "velocity": 103,
              "position": 8.029166666666667,
              "duration": 0.45208333333333334
            },
            {
              "pitch": 60,
              "velocity": 68,
              "position": 8.24375,
              "duration": 0.24166666666666667
            },
            {
              "pitch": 64,
              "velocity": 65,
              "position": 8.533333333333333,
              "duration": 0.16666666666666666
            },
            {
              "pitch": 60,
              "velocity": 63,
              "position": 8.522916666666667,
              "duration": 0.1875
            },
            {
              "pitch": 67,
              "velocity": 70,
              "position": 8.510416666666666,
              "duration": 0.2125
            },
            {
              "pitch": 67,
              "velocity": 113,
              "position": 8.758333333333333,
              "duration": 0.20625
            },
            {
              "pitch": 60,
              "velocity": 105,
              "position": 8.74375,
              "duration": 0.2375
            },
            {
              "pitch": 64,
              "velocity": 117,
              "position": 8.733333333333333,
              "duration": 0.2625
            },
            {
              "pitch": 67,
              "velocity": 71,
              "position": 9,
              "duration": 0.058333333333333334
            },
            {
              "pitch": 60,
              "velocity": 81,
              "position": 9.01875,
              "duration": 0.03958333333333333
            },
            {
              "pitch": 64,
              "velocity": 77,
              "position": 9.035416666666666,
              "duration": 0.025
            },
            {
              "pitch": 65,
              "velocity": 77,
              "position": 9.539583333333333,
              "duration": 0.15416666666666667
            },
            {
              "pitch": 60,
              "velocity": 77,
              "position": 9.520833333333334,
              "duration": 0.175
            },
            {
              "pitch": 69,
              "velocity": 81,
              "position": 9.508333333333333,
              "duration": 0.20416666666666666
            },
            {
              "pitch": 69,
              "velocity": 80,
              "position": 9.747916666666667,
              "duration": 0.22083333333333333
            },
            {
              "pitch": 60,
              "velocity": 76,
              "position": 9.729166666666666,
              "duration": 0.24166666666666667
            },
            {
              "pitch": 65,
              "velocity": 77,
              "position": 9.725,
              "duration": 0.26666666666666666
            },
            {
              "pitch": 60,
              "velocity": 127,
              "position": 10.008333333333333,
              "duration": 0.20416666666666666
            },
            {
              "pitch": 69,
              "velocity": 121,
              "position": 10.004166666666666,
              "duration": 0.22083333333333333
            },
            {
              "pitch": 69,
              "velocity": 69,
              "position": 10.260416666666666,
              "duration": 0.22083333333333333
            },
            {
              "pitch": 60,
              "velocity": 80,
              "position": 10.247916666666667,
              "duration": 0.24375
            },
            {
              "pitch": 65,
              "velocity": 127,
              "position": 10.03125,
              "duration": 0.4666666666666667
            },
            {
              "pitch": 65,
              "velocity": 87,
              "position": 10.55,
              "duration": 0.15208333333333332
            },
            {
              "pitch": 60,
              "velocity": 70,
              "position": 10.529166666666667,
              "duration": 0.17916666666666667
            },
            {
              "pitch": 69,
              "velocity": 85,
              "position": 10.516666666666667,
              "duration": 0.19791666666666666
            },
            {
              "pitch": 69,
              "velocity": 127,
              "position": 10.75,
              "duration": 0.21875
            },
            {
              "pitch": 60,
              "velocity": 124,
              "position": 10.741666666666667,
              "duration": 0.2375
            },
            {
              "pitch": 65,
              "velocity": 127,
              "position": 10.733333333333333,
              "duration": 0.25833333333333336
            },
            {
              "pitch": 69,
              "velocity": 76,
              "position": 11.004166666666666,
              "duration": 0.07291666666666667
            },
            {
              "pitch": 60,
              "velocity": 78,
              "position": 11.016666666666667,
              "duration": 0.0625
            },
            {
              "pitch": 65,
              "velocity": 74,
              "position": 11.03125,
              "duration": 0.04791666666666667
            },
            {
              "pitch": 67,
              "velocity": 81,
              "position": 11.5375,
              "duration": 0.17291666666666666
            },
            {
              "pitch": 62,
              "velocity": 91,
              "position": 11.525,
              "duration": 0.1875
            },
            {
              "pitch": 59,
              "velocity": 89,
              "position": 11.510416666666666,
              "duration": 0.21041666666666667
            },
            {
              "pitch": 67,
              "velocity": 84,
              "position": 11.779166666666667,
              "duration": 0.18958333333333333
            },
            {
              "pitch": 59,
              "velocity": 80,
              "position": 11.75625,
              "duration": 0.21875
            },
            {
              "pitch": 62,
              "velocity": 69,
              "position": 11.745833333333334,
              "duration": 0.23541666666666666
            },
            {
              "pitch": 67,
              "velocity": 121,
              "position": 12.0375,
              "duration": 0.17708333333333334
            },
            {
              "pitch": 59,
              "velocity": 111,
              "position": 12.010416666666666,
              "duration": 0.20416666666666666
            },
            {
              "pitch": 62,
              "velocity": 125,
              "position": 12.01875,
              "duration": 0.19583333333333333
            },
            {
              "pitch": 60,
              "velocity": 87,
              "position": 12.516666666666667,
              "duration": 0.041666666666666664
            },
            {
              "pitch": 69,
              "velocity": 94,
              "position": 12.50625,
              "duration": 0.052083333333333336
            },
            {
              "pitch": 65,
              "velocity": 127,
              "position": 12.7375,
              "duration": 0.20625
            },
            {
              "pitch": 60,
              "velocity": 117,
              "position": 12.75,
              "duration": 0.19583333333333333
            },
            {
              "pitch": 69,
              "velocity": 127,
              "position": 12.76875,
              "duration": 0.17708333333333334
            },
            {
              "pitch": 67,
              "velocity": 50,
              "position": 13.26875,
              "duration": 0.21041666666666667
            },
            {
              "pitch": 60,
              "velocity": 47,
              "position": 13.25,
              "duration": 0.23958333333333334
            },
            {
              "pitch": 64,
              "velocity": 94,
              "position": 13.539583333333333,
              "duration": 0.17708333333333334
            },
            {
              "pitch": 60,
              "velocity": 89,
              "position": 13.527083333333334,
              "duration": 0.20208333333333334
            },
            {
              "pitch": 67,
              "velocity": 98,
              "position": 13.514583333333333,
              "duration": 0.21875
            },
            {
              "pitch": 67,
              "velocity": 85,
              "position": 13.76875,
              "duration": 0.23333333333333334
            },
            {
              "pitch": 60,
              "velocity": 98,
              "position": 13.764583333333333,
              "duration": 0.25
            },
            {
              "pitch": 64,
              "velocity": 70,
              "position": 13.75,
              "duration": 0.27708333333333335
            },
            {
              "pitch": 67,
              "velocity": 123,
              "position": 14.039583333333333,
              "duration": 0.43125
            },
            {
              "pitch": 60,
              "velocity": 120,
              "position": 14.052083333333334,
              "duration": 0.42916666666666664
            },
            {
              "pitch": 64,
              "velocity": 121,
              "position": 14.066666666666666,
              "duration": 0.43333333333333335
            },
            {
              "pitch": 60,
              "velocity": 66,
              "position": 14.53125,
              "duration": 0.20416666666666666
            },
            {
              "pitch": 67,
              "velocity": 71,
              "position": 14.520833333333334,
              "duration": 0.22083333333333333
            },
            {
              "pitch": 67,
              "velocity": 69,
              "position": 14.777083333333334,
              "duration": 0.2125
            },
            {
              "pitch": 64,
              "velocity": 59,
              "position": 14.55,
              "duration": 0.45
            },
            {
              "pitch": 60,
              "velocity": 60,
              "position": 14.770833333333334,
              "duration": 0.2375
            },
            {
              "pitch": 67,
              "velocity": 125,
              "position": 15.025,
              "duration": 0.44583333333333336
            },
            {
              "pitch": 60,
              "velocity": 127,
              "position": 15.045833333333333,
              "duration": 0.44166666666666665
            },
            {
              "pitch": 64,
              "velocity": 114,
              "position": 15.052083333333334,
              "duration": 0.45208333333333334
            },
            {
              "pitch": 64,
              "velocity": 88,
              "position": 15.55625,
              "duration": 0.16041666666666668
            },
            {
              "pitch": 60,
              "velocity": 84,
              "position": 15.5375,
              "duration": 0.18958333333333333
            },
            {
              "pitch": 67,
              "velocity": 101,
              "position": 15.520833333333334,
              "duration": 0.21458333333333332
            },
            {
              "pitch": 64,
              "velocity": 74,
              "position": 15.747916666666667,
              "duration": 0.21666666666666667
            },
            {
              "pitch": 60,
              "velocity": 70,
              "position": 15.760416666666666,
              "duration": 0.20416666666666666
            },
            {
              "pitch": 67,
              "velocity": 70,
              "position": 15.770833333333334,
              "duration": 0.19583333333333333
            }
          ]
        },
        "12": {
          "ctab": {
            "srcChannel": 12,
            "name": "mutedgtr",
            "accType": "CHORD2",
            "editable": false,
            "mutedNotes": [],
            "mutedChords": [],
            "autoStart": false,
            "sourceChordNote": 0,
            "sourceChordType": "Maj7",
            "ctb2Low": null,
            "ctb2Main": {
              "ntr": "ROOT_TRANSPOSITION",
              "ntt": "BYPASS",
              "bassOn": false,
              "chordRootUpperLimit": 6,
              "noteLowLimit": 55,
              "noteHighLimit": 66,
              "rtr": "PITCH_SHIFT"
            },
            "ctb2High": null
          },
          "notes": [
            {
              "pitch": 67,
              "velocity": 103,
              "position": 0.029166666666666667,
              "duration": 0.7041666666666667
            },
            {
              "pitch": 64,
              "velocity": 114,
              "position": 0.01875,
              "duration": 0.71875
            },
            {
              "pitch": 60,
              "velocity": 113,
              "position": 0,
              "duration": 0.75625
            },
            {
              "pitch": 60,
              "velocity": 105,
              "position": 0.7770833333333333,
              "duration": 0.18125
            },
            {
              "pitch": 64,
              "velocity": 101,
              "position": 0.7583333333333333,
              "duration": 0.2
            },
            {
              "pitch": 67,
              "velocity": 102,
              "position": 0.7541666666666667,
              "duration": 0.20416666666666666
            },
            {
              "pitch": 69,
              "velocity": 64,
              "position": 1.5395833333333333,
              "duration": 0.16458333333333333
            },
            {
              "pitch": 65,
              "velocity": 64,
              "position": 1.5208333333333333,
              "duration": 0.1875
            },
            {
              "pitch": 60,
              "velocity": 68,
              "position": 1.5083333333333333,
              "duration": 0.21875
            },
            {
              "pitch": 60,
              "velocity": 67,
              "position": 1.7479166666666666,
              "duration": 0.23541666666666666
            },
            {
              "pitch": 65,
              "velocity": 63,
              "position": 1.7291666666666667,
              "duration": 0.25833333333333336
            },
            {
              "pitch": 69,
              "velocity": 64,
              "position": 1.725,
              "duration": 0.28541666666666665
            },
            {
              "pitch": 69,
              "velocity": 114,
              "position": 2.03125,
              "duration": 0.7083333333333334
            },
            {
              "pitch": 65,
              "velocity": 114,
              "position": 2.0083333333333333,
              "duration": 0.7354166666666667
            },
            {
              "pitch": 60,
              "velocity": 108,
              "position": 2.004166666666667,
              "duration": 0.7583333333333333
            },
            {
              "pitch": 60,
              "velocity": 105,
              "position": 2.783333333333333,
              "duration": 0.17083333333333334
            },
            {
              "pitch": 65,
              "velocity": 101,
              "position": 2.7645833333333334,
              "duration": 0.18958333333333333
            },
            {
              "pitch": 69,
              "velocity": 102,
              "position": 2.7604166666666665,
              "duration": 0.19375
            },
            {
              "pitch": 71,
              "velocity": 68,
              "position": 3.5375,
              "duration": 0.18541666666666667
            },
            {
              "pitch": 67,
              "velocity": 78,
              "position": 3.525,
              "duration": 0.2
            },
            {
              "pitch": 62,
              "velocity": 77,
              "position": 3.5104166666666665,
              "duration": 0.225
            },
            {
              "pitch": 62,
              "velocity": 67,
              "position": 3.75625,
              "duration": 0.23333333333333334
            },
            {
              "pitch": 67,
              "velocity": 57,
              "position": 3.745833333333333,
              "duration": 0.2520833333333333
            },
            {
              "pitch": 71,
              "velocity": 57,
              "position": 3.74375,
              "duration": 0.27291666666666664
            },
            {
              "pitch": 62,
              "velocity": 98,
              "position": 4.010416666666667,
              "duration": 0.21875
            },
            {
              "pitch": 67,
              "velocity": 112,
              "position": 4.01875,
              "duration": 0.21041666666666667
            },
            {
              "pitch": 71,
              "velocity": 108,
              "position": 4.0375,
              "duration": 0.19166666666666668
            },
            {
              "pitch": 65,
              "velocity": 65,
              "position": 4.516666666666667,
              "duration": 0.2125
            },
            {
              "pitch": 60,
              "velocity": 71,
              "position": 4.50625,
              "duration": 0.24166666666666667
            },
            {
              "pitch": 60,
              "velocity": 114,
              "position": 4.76875,
              "duration": 0.18958333333333333
            },
            {
              "pitch": 65,
              "velocity": 104,
              "position": 4.75,
              "duration": 0.20833333333333334
            },
            {
              "pitch": 69,
              "velocity": 114,
              "position": 4.7375,
              "duration": 0.22083333333333333
            },
            {
              "pitch": 60,
              "velocity": 37,
              "position": 5.26875,
              "duration": 0.225
            },
            {
              "pitch": 64,
              "velocity": 34,
              "position": 5.25,
              "duration": 0.25625
            },
            {
              "pitch": 67,
              "velocity": 81,
              "position": 5.539583333333334,
              "duration": 0.2
            },
            {
              "pitch": 64,
              "velocity": 77,
              "position": 5.527083333333334,
              "duration": 0.21666666666666667
            },
            {
              "pitch": 60,
              "velocity": 85,
              "position": 5.514583333333333,
              "duration": 0.24791666666666667
            },
            {
              "pitch": 60,
              "velocity": 67,
              "position": 5.783333333333333,
              "duration": 0.23541666666666666
            },
            {
              "pitch": 64,
              "velocity": 63,
              "position": 5.764583333333333,
              "duration": 0.26666666666666666
            },
            {
              "pitch": 67,
              "velocity": 64,
              "position": 5.760416666666667,
              "duration": 0.28541666666666665
            },
            {
              "pitch": 67,
              "velocity": 108,
              "position": 6.066666666666666,
              "duration": 0.675
            },
            {
              "pitch": 64,
              "velocity": 107,
              "position": 6.052083333333333,
              "duration": 0.69375
            },
            {
              "pitch": 60,
              "velocity": 110,
              "position": 6.039583333333334,
              "duration": 0.725
            },
            {
              "pitch": 60,
              "velocity": 105,
              "position": 6.785416666666666,
              "duration": 0.18125
            },
            {
              "pitch": 64,
              "velocity": 101,
              "position": 6.766666666666667,
              "duration": 0.2
            },
            {
              "pitch": 67,
              "velocity": 102,
              "position": 6.7625,
              "duration": 0.20416666666666666
            },
            {
              "pitch": 67,
              "velocity": 64,
              "position": 7.539583333333334,
              "duration": 0.16458333333333333
            },
            {
              "pitch": 64,
              "velocity": 64,
              "position": 7.520833333333333,
              "duration": 0.1875
            },
            {
              "pitch": 60,
              "velocity": 68,
              "position": 7.508333333333334,
              "duration": 0.21875
            },
            {
              "pitch": 60,
              "velocity": 67,
              "position": 7.747916666666667,
              "duration": 0.23125
            },
            {
              "pitch": 64,
              "velocity": 63,
              "position": 7.729166666666667,
              "duration": 0.26875
            },
            {
              "pitch": 67,
              "velocity": 64,
              "position": 7.725,
              "duration": 0.275
            },
            {
              "pitch": 67,
              "velocity": 103,
              "position": 8.029166666666667,
              "duration": 0.7041666666666667
            },
            {
              "pitch": 64,
              "velocity": 114,
              "position": 8.01875,
              "duration": 0.71875
            },
            {
              "pitch": 60,
              "velocity": 113,
              "position": 8,
              "duration": 0.75625
            },
            {
              "pitch": 60,
              "velocity": 105,
              "position": 8.777083333333334,
              "duration": 0.18125
            },
            {
              "pitch": 64,
              "velocity": 101,
              "position": 8.758333333333333,
              "duration": 0.2
            },
            {
              "pitch": 67,
              "velocity": 102,
              "position": 8.754166666666666,
              "duration": 0.20416666666666666
            },
            {
              "pitch": 69,
              "velocity": 64,
              "position": 9.539583333333333,
              "duration": 0.16458333333333333
            },
            {
              "pitch": 65,
              "velocity": 64,
              "position": 9.520833333333334,
              "duration": 0.1875
            },
            {
              "pitch": 60,
              "velocity": 68,
              "position": 9.508333333333333,
              "duration": 0.21875
            },
            {
              "pitch": 60,
              "velocity": 67,
              "position": 9.747916666666667,
              "duration": 0.23541666666666666
            },
            {
              "pitch": 65,
              "velocity": 63,
              "position": 9.729166666666666,
              "duration": 0.25833333333333336
            },
            {
              "pitch": 69,
              "velocity": 64,
              "position": 9.725,
              "duration": 0.28541666666666665
            },
            {
              "pitch": 69,
              "velocity": 114,
              "position": 10.03125,
              "duration": 0.7083333333333334
            },
            {
              "pitch": 65,
              "velocity": 114,
              "position": 10.008333333333333,
              "duration": 0.7354166666666667
            },
            {
              "pitch": 60,
              "velocity": 108,
              "position": 10.004166666666666,
              "duration": 0.7583333333333333
            },
            {
              "pitch": 60,
              "velocity": 105,
              "position": 10.783333333333333,
              "duration": 0.17083333333333334
            },
            {
              "pitch": 65,
              "velocity": 101,
              "position": 10.764583333333333,
              "duration": 0.18958333333333333
            },
            {
              "pitch": 69,
              "velocity": 102,
              "position": 10.760416666666666,
              "duration": 0.19375
            },
            {
              "pitch": 71,
              "velocity": 68,
              "position": 11.5375,
              "duration": 0.18541666666666667
            },
            {
              "pitch": 67,
              "velocity": 78,
              "position": 11.525,
              "duration": 0.2
            },
            {
              "pitch": 62,
              "velocity": 77,
              "position": 11.510416666666666,
              "duration": 0.225
            },
            {
              "pitch": 62,
              "velocity": 67,
              "position": 11.75625,
              "duration": 0.23333333333333334
            },
            {
              "pitch": 67,
              "velocity": 57,
              "position": 11.745833333333334,
              "duration": 0.2520833333333333
            },
            {
              "pitch": 71,
              "velocity": 57,
              "position": 11.74375,
              "duration": 0.27291666666666664
            },
            {
              "pitch": 62,
              "velocity": 98,
              "position": 12.010416666666666,
              "duration": 0.21875
            },
            {
              "pitch": 67,
              "velocity": 112,
              "position": 12.01875,
              "duration": 0.21041666666666667
            },
            {
              "pitch": 71,
              "velocity": 108,
              "position": 12.0375,
              "duration": 0.19166666666666668
            },
            {
              "pitch": 65,
              "velocity": 65,
              "position": 12.516666666666667,
              "duration": 0.2125
            },
            {
              "pitch": 60,
              "velocity": 71,
              "position": 12.50625,
              "duration": 0.24166666666666667
            },
            {
              "pitch": 60,
              "velocity": 114,
              "position": 12.76875,
              "duration": 0.18958333333333333
            },
            {
              "pitch": 65,
              "velocity": 104,
              "position": 12.75,
              "duration": 0.20833333333333334
            },
            {
              "pitch": 69,
              "velocity": 114,
              "position": 12.7375,
              "duration": 0.22083333333333333
            },
            {
              "pitch": 60,
              "velocity": 37,
              "position": 13.26875,
              "duration": 0.225
            },
            {
              "pitch": 64,
              "velocity": 34,
              "position": 13.25,
              "duration": 0.25625
            },
            {
              "pitch": 67,
              "velocity": 81,
              "position": 13.539583333333333,
              "duration": 0.2
            },
            {
              "pitch": 64,
              "velocity": 77,
              "position": 13.527083333333334,
              "duration": 0.21666666666666667
            },
            {
              "pitch": 60,
              "velocity": 85,
              "position": 13.514583333333333,
              "duration": 0.24791666666666667
            },
            {
              "pitch": 60,
              "velocity": 67,
              "position": 13.783333333333333,
              "duration": 0.23541666666666666
            },
            {
              "pitch": 64,
              "velocity": 63,
              "position": 13.764583333333333,
              "duration": 0.26666666666666666
            },
            {
              "pitch": 67,
              "velocity": 64,
              "position": 13.760416666666666,
              "duration": 0.28541666666666665
            },
            {
              "pitch": 67,
              "velocity": 108,
              "position": 14.066666666666666,
              "duration": 0.675
            },
            {
              "pitch": 64,
              "velocity": 107,
              "position": 14.052083333333334,
              "duration": 0.69375
            },
            {
              "pitch": 60,
              "velocity": 110,
              "position": 14.039583333333333,
              "duration": 0.725
            },
            {
              "pitch": 60,
              "velocity": 105,
              "position": 14.785416666666666,
              "duration": 0.18125
            },
            {
              "pitch": 64,
              "velocity": 101,
              "position": 14.766666666666667,
              "duration": 0.2
            },
            {
              "pitch": 67,
              "velocity": 102,
              "position": 14.7625,
              "duration": 0.20416666666666666
            },
            {
              "pitch": 67,
              "velocity": 64,
              "position": 15.539583333333333,
              "duration": 0.16458333333333333
            },
            {
              "pitch": 64,
              "velocity": 64,
              "position": 15.520833333333334,
              "duration": 0.1875
            },
            {
              "pitch": 60,
              "velocity": 68,
              "position": 15.508333333333333,
              "duration": 0.21875
            },
            {
              "pitch": 60,
              "velocity": 67,
              "position": 15.747916666666667,
              "duration": 0.23125
            },
            {
              "pitch": 64,
              "velocity": 63,
              "position": 15.729166666666666,
              "duration": 0.26875
            },
            {
              "pitch": 67,
              "velocity": 64,
              "position": 15.725,
              "duration": 0.275
            }
          ]
        },
        "13": {
          "ctab": {
            "srcChannel": 13,
            "name": "gtr",
            "accType": "PAD",
            "editable": false,
            "mutedNotes": [],
            "mutedChords": [],
            "autoStart": false,
            "sourceChordNote": 0,
            "sourceChordType": "Maj7",
            "ctb2Low": null,
            "ctb2Main": {
              "ntr": "ROOT_TRANSPOSITION",
              "ntt": "BYPASS",
              "bassOn": false,
              "chordRootUpperLimit": 6,
              "noteLowLimit": 54,
              "noteHighLimit": 65,
              "rtr": "PITCH_SHIFT"
            },
            "ctb2High": null
          },
          "notes": [
            {
              "pitch": 60,
              "velocity": 94,
              "position": 0,
              "duration": 1.375
            },
            {
              "pitch": 64,
              "velocity": 94,
              "position": 0,
              "duration": 1.375
            },
            {
              "pitch": 67,
              "velocity": 94,
              "position": 0,
              "duration": 1.375
            },
            {
              "pitch": 60,
              "velocity": 94,
              "position": 1.5,
              "duration": 1.875
            },
            {
              "pitch": 65,
              "velocity": 94,
              "position": 1.5,
              "duration": 1.875
            },
            {
              "pitch": 69,
              "velocity": 94,
              "position": 1.5,
              "duration": 1.875
            },
            {
              "pitch": 59,
              "velocity": 94,
              "position": 3.5,
              "duration": 1.1208333333333333
            },
            {
              "pitch": 62,
              "velocity": 94,
              "position": 3.5,
              "duration": 1.1208333333333333
            },
            {
              "pitch": 67,
              "velocity": 94,
              "position": 3.5,
              "duration": 1.1208333333333333
            },
            {
              "pitch": 60,
              "velocity": 94,
              "position": 4.75,
              "duration": 0.625
            },
            {
              "pitch": 65,
              "velocity": 94,
              "position": 4.75,
              "duration": 0.625
            },
            {
              "pitch": 69,
              "velocity": 94,
              "position": 4.75,
              "duration": 0.625
            },
            {
              "pitch": 60,
              "velocity": 94,
              "position": 5.5,
              "duration": 3.875
            },
            {
              "pitch": 64,
              "velocity": 94,
              "position": 5.5,
              "duration": 3.875
            },
            {
              "pitch": 67,
              "velocity": 94,
              "position": 5.5,
              "duration": 3.875
            },
            {
              "pitch": 60,
              "velocity": 94,
              "position": 9.5,
              "duration": 1.8729166666666666
            },
            {
              "pitch": 65,
              "velocity": 94,
              "position": 9.5,
              "duration": 1.8729166666666666
            },
            {
              "pitch": 69,
              "velocity": 94,
              "position": 9.5,
              "duration": 1.8729166666666666
            },
            {
              "pitch": 59,
              "velocity": 94,
              "position": 11.5,
              "duration": 1.1291666666666667
            },
            {
              "pitch": 62,
              "velocity": 94,
              "position": 11.5,
              "duration": 1.1291666666666667
            },
            {
              "pitch": 67,
              "velocity": 94,
              "position": 11.5,
              "duration": 1.1291666666666667
            },
            {
              "pitch": 60,
              "velocity": 94,
              "position": 12.75,
              "duration": 0.6166666666666667
            },
            {
              "pitch": 65,
              "velocity": 94,
              "position": 12.75,
              "duration": 0.6166666666666667
            },
            {
              "pitch": 69,
              "velocity": 94,
              "position": 12.75,
              "duration": 0.6166666666666667
            },
            {
              "pitch": 60,
              "velocity": 94,
              "position": 13.5,
              "duration": 2.5
            },
            {
              "pitch": 64,
              "velocity": 94,
              "position": 13.5,
              "duration": 2.5
            },
            {
              "pitch": 67,
              "velocity": 94,
              "position": 13.5,
              "duration": 2.5
            }
          ]
        },
        "14": {
          "ctab": {
            "srcChannel": 14,
            "name": "dist",
            "accType": "PHRASE1",
            "editable": false,
            "mutedNotes": [],
            "mutedChords": [],
            "autoStart": false,
            "sourceChordNote": 0,
            "sourceChordType": "Maj7",
            "ctb2Low": null,
            "ctb2Main": {
              "ntr": "ROOT_TRANSPOSITION",
              "ntt": "BYPASS",
              "bassOn": false,
              "chordRootUpperLimit": 6,
              "noteLowLimit": 64,
              "noteHighLimit": 75,
              "rtr": "PITCH_SHIFT"
            },
            "ctb2High": null
          },
          "notes": [
            {
              "pitch": 72,
              "velocity": 104,
              "position": 1.5,
              "duration": 0.22708333333333333
            },
            {
              "pitch": 69,
              "velocity": 88,
              "position": 1.75,
              "duration": 0.16875
            },
            {
              "pitch": 72,
              "velocity": 104,
              "position": 2.00625,
              "duration": 0.6083333333333333
            },
            {
              "pitch": 72,
              "velocity": 104,
              "position": 3.497916666666667,
              "duration": 0.2375
            },
            {
              "pitch": 69,
              "velocity": 92,
              "position": 3.747916666666667,
              "duration": 0.16458333333333333
            },
            {
              "pitch": 72,
              "velocity": 106,
              "position": 4.004166666666666,
              "duration": 0.6583333333333333
            },
            {
              "pitch": 72,
              "velocity": 95,
              "position": 5.495833333333334,
              "duration": 0.20625
            },
            {
              "pitch": 69,
              "velocity": 92,
              "position": 5.745833333333334,
              "duration": 0.16041666666666668
            },
            {
              "pitch": 72,
              "velocity": 101,
              "position": 6.00625,
              "duration": 0.35833333333333334
            },
            {
              "pitch": 69,
              "velocity": 85,
              "position": 6.508333333333334,
              "duration": 0.10416666666666667
            },
            {
              "pitch": 72,
              "velocity": 104,
              "position": 6.752083333333333,
              "duration": 0.40625
            },
            {
              "pitch": 72,
              "velocity": 82,
              "position": 7.258333333333334,
              "duration": 0.12291666666666666
            },
            {
              "pitch": 76,
              "velocity": 106,
              "position": 7.504166666666666,
              "duration": 0.47708333333333336
            },
            {
              "pitch": 72,
              "velocity": 104,
              "position": 9.5,
              "duration": 0.22708333333333333
            },
            {
              "pitch": 69,
              "velocity": 88,
              "position": 9.75,
              "duration": 0.16875
            },
            {
              "pitch": 72,
              "velocity": 104,
              "position": 10.00625,
              "duration": 0.6083333333333333
            },
            {
              "pitch": 72,
              "velocity": 104,
              "position": 11.497916666666667,
              "duration": 0.2375
            },
            {
              "pitch": 69,
              "velocity": 92,
              "position": 11.747916666666667,
              "duration": 0.16458333333333333
            },
            {
              "pitch": 72,
              "velocity": 106,
              "position": 12.004166666666666,
              "duration": 0.6583333333333333
            },
            {
              "pitch": 72,
              "velocity": 95,
              "position": 13.495833333333334,
              "duration": 0.20625
            },
            {
              "pitch": 69,
              "velocity": 92,
              "position": 13.745833333333334,
              "duration": 0.16041666666666668
            },
            {
              "pitch": 72,
              "velocity": 101,
              "position": 14.00625,
              "duration": 0.35833333333333334
            },
            {
              "pitch": 69,
              "velocity": 85,
              "position": 14.508333333333333,
              "duration": 0.10416666666666667
            },
            {
              "pitch": 72,
              "velocity": 104,
              "position": 14.752083333333333,
              "duration": 0.40625
            },
            {
              "pitch": 72,
              "velocity": 82,
              "position": 15.258333333333333,
              "duration": 0.12291666666666666
            },
            {
              "pitch": 76,
              "velocity": 106,
              "position": 15.504166666666666,
              "duration": 0.47708333333333336
            }
          ]
        },
        "15": {
          "ctab": {
            "srcChannel": 15,
            "name": "overdr",
            "accType": "PHRASE2",
            "editable": false,
            "mutedNotes": [],
            "mutedChords": [],
            "autoStart": false,
            "sourceChordNote": 0,
            "sourceChordType": "Maj7",
            "ctb2Low": null,
            "ctb2Main": {
              "ntr": "ROOT_TRANSPOSITION",
              "ntt": "BYPASS",
              "bassOn": false,
              "chordRootUpperLimit": 4,
              "noteLowLimit": 0,
              "noteHighLimit": 127,
              "rtr": "PITCH_SHIFT"
            },
            "ctb2High": null
          },
          "notes": []
        }
      }
    },
    "Intro_C": {
      "type": "Intro_C",
      "sizeInBeats": 16,
      "channels": {
        "8": {
          "ctab": {
            "srcChannel": 8,
            "name": "add-drum",
            "accType": "SUBRHYTHM",
            "editable": false,
            "mutedNotes": [],
            "mutedChords": [],
            "autoStart": true,
            "sourceChordNote": 0,
            "sourceChordType": "Maj7",
            "ctb2Low": null,
            "ctb2Main": {
              "ntr": "ROOT_FIXED",
              "ntt": "BYPASS",
              "bassOn": false,
              "chordRootUpperLimit": 6,
              "noteLowLimit": 0,
              "noteHighLimit": 127,
              "rtr": "PITCH_SHIFT"
            },
            "ctb2High": null
          },
          "notes": []
        },
        "9": {
          "ctab": {
            "srcChannel": 9,
            "name": "main-dru",
            "accType": "RHYTHM",
            "editable": false,
            "mutedNotes": [],
            "mutedChords": [],
            "autoStart": true,
            "sourceChordNote": 0,
            "sourceChordType": "Maj7",
            "ctb2Low": null,
            "ctb2Main": {
              "ntr": "ROOT_FIXED",
              "ntt": "BYPASS",
              "bassOn": false,
              "chordRootUpperLimit": 6,
              "noteLowLimit": 0,
              "noteHighLimit": 127,
              "rtr": "PITCH_SHIFT"
            },
            "ctb2High": null
          },
          "notes": [
            {
              "pitch": 44,
              "velocity": 36,
              "position": 0,
              "duration": 0.010416666666666666
            },
            {
              "pitch": 44,
              "velocity": 37,
              "position": 1.0020833333333334,
              "duration": 0.010416666666666666
            },
            {
              "pitch": 44,
              "velocity": 27,
              "position": 2.004166666666667,
              "duration": 0.010416666666666666
            },
            {
              "pitch": 44,
              "velocity": 32,
              "position": 3,
              "duration": 0.010416666666666666
            },
            {
              "pitch": 44,
              "velocity": 34,
              "position": 4,
              "duration": 0.010416666666666666
            },
            {
              "pitch": 44,
              "velocity": 34,
              "position": 4.997916666666667,
              "duration": 0.010416666666666666
            },
            {
              "pitch": 44,
              "velocity": 30,
              "position": 6,
              "duration": 0.010416666666666666
            },
            {
              "pitch": 44,
              "velocity": 30,
              "position": 6.997916666666667,
              "duration": 0.010416666666666666
            },
            {
              "pitch": 44,
              "velocity": 34,
              "position": 7.995833333333334,
              "duration": 0.010416666666666666
            },
            {
              "pitch": 44,
              "velocity": 34,
              "position": 8.997916666666667,
              "duration": 0.010416666666666666
            },
            {
              "pitch": 44,
              "velocity": 35,
              "position": 9.997916666666667,
              "duration": 0.010416666666666666
            },
            {
              "pitch": 44,
              "velocity": 34,
              "position": 10.997916666666667,
              "duration": 0.010416666666666666
            },
            {
              "pitch": 44,
              "velocity": 31,
              "position": 11.997916666666667,
              "duration": 0.010416666666666666
            },
            {
              "pitch": 44,
              "velocity": 34,
              "position": 13,
              "duration": 0.010416666666666666
            },
            {
              "pitch": 44,
              "velocity": 36,
              "position": 13.997916666666667,
              "duration": 0.010416666666666666
            },
            {
              "pitch": 36,
              "velocity": 98,
              "position": 14.775,
              "duration": 0.010416666666666666
            },
            {
              "pitch": 40,
              "velocity": 81,
              "position": 15,
              "duration": 0.010416666666666666
            },
            {
              "pitch": 46,
              "velocity": 55,
              "position": 15,
              "duration": 0.010416666666666666
            },
            {
              "pitch": 40,
              "velocity": 63,
              "position": 15.270833333333334,
              "duration": 0.010416666666666666
            },
            {
              "pitch": 40,
              "velocity": 78,
              "position": 15.5,
              "duration": 0.010416666666666666
            },
            {
              "pitch": 40,
              "velocity": 89,
              "position": 15.75,
              "duration": 0.010416666666666666
            },
            {
              "pitch": 49,
              "velocity": 75,
              "position": 15.989583333333334,
              "duration": 0.010416666666666666
            }
          ]
        },
        "10": {
          "ctab": {
            "srcChannel": 10,
            "name": "Bass",
            "accType": "BASS",
            "editable": false,
            "mutedNotes": [],
            "mutedChords": [],
            "autoStart": false,
            "sourceChordNote": 0,
            "sourceChordType": "Maj7",
            "ctb2Low": null,
            "ctb2Main": {
              "ntr": "ROOT_TRANSPOSITION",
              "ntt": "BYPASS",
              "bassOn": false,
              "chordRootUpperLimit": 3,
              "noteLowLimit": 28,
              "noteHighLimit": 127,
              "rtr": "PITCH_SHIFT"
            },
            "ctb2High": null
          },
          "notes": [
            {
              "pitch": 29,
              "velocity": 60,
              "position": 14.766666666666667,
              "duration": 0.09583333333333334
            },
            {
              "pitch": 29,
              "velocity": 60,
              "position": 14.997916666666667,
              "duration": 0.9395833333333333
            }
          ]
        },
        "11": {
          "ctab": {
            "srcChannel": 11,
            "name": "piano",
            "accType": "CHORD1",
            "editable": false,
            "mutedNotes": [],
            "mutedChords": [],
            "autoStart": false,
            "sourceChordNote": 0,
            "sourceChordType": "Maj7",
            "ctb2Low": null,
            "ctb2Main": {
              "ntr": "ROOT_TRANSPOSITION",
              "ntt": "BYPASS",
              "bassOn": false,
              "chordRootUpperLimit": 6,
              "noteLowLimit": 53,
              "noteHighLimit": 64,
              "rtr": "PITCH_SHIFT"
            },
            "ctb2High": null
          },
          "notes": [
            {
              "pitch": 64,
              "velocity": 113,
              "position": 0.020833333333333332,
              "duration": 2.535416666666667
            },
            {
              "pitch": 60,
              "velocity": 99,
              "position": 0.010416666666666666,
              "duration": 2.5458333333333334
            },
            {
              "pitch": 67,
              "velocity": 98,
              "position": 0.0375,
              "duration": 2.5208333333333335
            },
            {
              "pitch": 59,
              "velocity": 93,
              "position": 2.7875,
              "duration": 0.20833333333333334
            },
            {
              "pitch": 62,
              "velocity": 84,
              "position": 2.777083333333333,
              "duration": 0.23541666666666666
            },
            {
              "pitch": 67,
              "velocity": 84,
              "position": 2.75625,
              "duration": 0.2625
            },
            {
              "pitch": 59,
              "velocity": 114,
              "position": 3.03125,
              "duration": 0.6333333333333333
            },
            {
              "pitch": 67,
              "velocity": 93,
              "position": 3.058333333333333,
              "duration": 0.6083333333333333
            },
            {
              "pitch": 62,
              "velocity": 124,
              "position": 3.05,
              "duration": 0.6229166666666667
            },
            {
              "pitch": 60,
              "velocity": 81,
              "position": 3.777083333333333,
              "duration": 0.20208333333333334
            },
            {
              "pitch": 64,
              "velocity": 81,
              "position": 3.75625,
              "duration": 0.23541666666666666
            },
            {
              "pitch": 67,
              "velocity": 78,
              "position": 3.747916666666667,
              "duration": 0.25833333333333336
            },
            {
              "pitch": 60,
              "velocity": 111,
              "position": 4.014583333333333,
              "duration": 2.408333333333333
            },
            {
              "pitch": 64,
              "velocity": 104,
              "position": 4.029166666666667,
              "duration": 2.39375
            },
            {
              "pitch": 67,
              "velocity": 104,
              "position": 4.04375,
              "duration": 2.38125
            },
            {
              "pitch": 60,
              "velocity": 101,
              "position": 6.758333333333334,
              "duration": 0.21041666666666667
            },
            {
              "pitch": 65,
              "velocity": 99,
              "position": 6.741666666666666,
              "duration": 0.23958333333333334
            },
            {
              "pitch": 69,
              "velocity": 89,
              "position": 6.725,
              "duration": 0.2625
            },
            {
              "pitch": 60,
              "velocity": 120,
              "position": 7.004166666666666,
              "duration": 0.6270833333333333
            },
            {
              "pitch": 65,
              "velocity": 121,
              "position": 7.01875,
              "duration": 0.6125
            },
            {
              "pitch": 69,
              "velocity": 94,
              "position": 7.027083333333334,
              "duration": 0.6041666666666666
            },
            {
              "pitch": 59,
              "velocity": 79,
              "position": 7.745833333333334,
              "duration": 0.22291666666666668
            },
            {
              "pitch": 62,
              "velocity": 84,
              "position": 7.7375,
              "duration": 0.23958333333333334
            },
            {
              "pitch": 67,
              "velocity": 66,
              "position": 7.727083333333334,
              "duration": 0.26875
            },
            {
              "pitch": 67,
              "velocity": 101,
              "position": 8.035416666666666,
              "duration": 0.63125
            },
            {
              "pitch": 62,
              "velocity": 123,
              "position": 8.014583333333333,
              "duration": 0.6645833333333333
            },
            {
              "pitch": 59,
              "velocity": 121,
              "position": 8.004166666666666,
              "duration": 0.6854166666666667
            },
            {
              "pitch": 59,
              "velocity": 84,
              "position": 8.75625,
              "duration": 0.2125
            },
            {
              "pitch": 62,
              "velocity": 79,
              "position": 8.74375,
              "duration": 0.24166666666666667
            },
            {
              "pitch": 67,
              "velocity": 89,
              "position": 8.729166666666666,
              "duration": 0.2625
            },
            {
              "pitch": 59,
              "velocity": 106,
              "position": 9.004166666666666,
              "duration": 0.45208333333333334
            },
            {
              "pitch": 62,
              "velocity": 125,
              "position": 9.022916666666667,
              "duration": 0.44583333333333336
            },
            {
              "pitch": 67,
              "velocity": 105,
              "position": 9.03125,
              "duration": 0.45416666666666666
            },
            {
              "pitch": 67,
              "velocity": 92,
              "position": 9.5375,
              "duration": 0.6375
            },
            {
              "pitch": 62,
              "velocity": 103,
              "position": 9.520833333333334,
              "duration": 0.6645833333333333
            },
            {
              "pitch": 59,
              "velocity": 110,
              "position": 9.508333333333333,
              "duration": 0.6875
            },
            {
              "pitch": 59,
              "velocity": 93,
              "position": 10.2625,
              "duration": 0.4166666666666667
            },
            {
              "pitch": 62,
              "velocity": 107,
              "position": 10.25,
              "duration": 0.42916666666666664
            },
            {
              "pitch": 67,
              "velocity": 89,
              "position": 10.239583333333334,
              "duration": 0.44166666666666665
            },
            {
              "pitch": 60,
              "velocity": 93,
              "position": 10.758333333333333,
              "duration": 0.20625
            },
            {
              "pitch": 65,
              "velocity": 81,
              "position": 10.74375,
              "duration": 0.23541666666666666
            },
            {
              "pitch": 69,
              "velocity": 80,
              "position": 10.73125,
              "duration": 0.2625
            },
            {
              "pitch": 60,
              "velocity": 116,
              "position": 11,
              "duration": 0.46458333333333335
            },
            {
              "pitch": 65,
              "velocity": 120,
              "position": 11.016666666666667,
              "duration": 0.45416666666666666
            },
            {
              "pitch": 69,
              "velocity": 103,
              "position": 11.033333333333333,
              "duration": 0.46041666666666664
            },
            {
              "pitch": 69,
              "velocity": 72,
              "position": 11.545833333333333,
              "duration": 0.16458333333333333
            },
            {
              "pitch": 65,
              "velocity": 91,
              "position": 11.522916666666667,
              "duration": 0.19375
            },
            {
              "pitch": 60,
              "velocity": 89,
              "position": 11.516666666666667,
              "duration": 0.20625
            },
            {
              "pitch": 69,
              "velocity": 70,
              "position": 11.741666666666667,
              "duration": 0.20208333333333334
            },
            {
              "pitch": 60,
              "velocity": 88,
              "position": 11.758333333333333,
              "duration": 0.1875
            },
            {
              "pitch": 65,
              "velocity": 76,
              "position": 11.75,
              "duration": 0.19583333333333333
            },
            {
              "pitch": 59,
              "velocity": 109,
              "position": 12.010416666666666,
              "duration": 0.44375
            },
            {
              "pitch": 67,
              "velocity": 107,
              "position": 12.03125,
              "duration": 0.6479166666666667
            },
            {
              "pitch": 62,
              "velocity": 124,
              "position": 12.020833333333334,
              "duration": 0.6604166666666667
            },
            {
              "pitch": 59,
              "velocity": 78,
              "position": 12.504166666666666,
              "duration": 0.21666666666666667
            },
            {
              "pitch": 62,
              "velocity": 100,
              "position": 12.745833333333334,
              "duration": 0.4479166666666667
            },
            {
              "pitch": 59,
              "velocity": 110,
              "position": 12.75625,
              "duration": 0.44583333333333336
            },
            {
              "pitch": 59,
              "velocity": 66,
              "position": 13.254166666666666,
              "duration": 0.21875
            },
            {
              "pitch": 67,
              "velocity": 101,
              "position": 12.74375,
              "duration": 0.7291666666666666
            },
            {
              "pitch": 62,
              "velocity": 59,
              "position": 13.245833333333334,
              "duration": 0.24375
            },
            {
              "pitch": 62,
              "velocity": 113,
              "position": 13.527083333333334,
              "duration": 0.46875
            },
            {
              "pitch": 67,
              "velocity": 107,
              "position": 13.54375,
              "duration": 0.475
            },
            {
              "pitch": 59,
              "velocity": 124,
              "position": 13.508333333333333,
              "duration": 0.7083333333333334
            },
            {
              "pitch": 62,
              "velocity": 93,
              "position": 14.047916666666667,
              "duration": 0.1875
            },
            {
              "pitch": 67,
              "velocity": 84,
              "position": 14.070833333333333,
              "duration": 0.16458333333333333
            },
            {
              "pitch": 67,
              "velocity": 111,
              "position": 14.266666666666667,
              "duration": 0.4479166666666667
            },
            {
              "pitch": 62,
              "velocity": 120,
              "position": 14.26875,
              "duration": 0.45
            },
            {
              "pitch": 59,
              "velocity": 125,
              "position": 14.285416666666666,
              "duration": 0.4354166666666667
            },
            {
              "pitch": 57,
              "velocity": 88,
              "position": 14.7875,
              "duration": 0.2125
            },
            {
              "pitch": 60,
              "velocity": 79,
              "position": 14.766666666666667,
              "duration": 0.24166666666666667
            },
            {
              "pitch": 65,
              "velocity": 90,
              "position": 14.766666666666667,
              "duration": 0.2520833333333333
            },
            {
              "pitch": 57,
              "velocity": 121,
              "position": 15.035416666666666,
              "duration": 0.2125
            },
            {
              "pitch": 60,
              "velocity": 127,
              "position": 15.045833333333333,
              "duration": 0.4395833333333333
            },
            {
              "pitch": 57,
              "velocity": 85,
              "position": 15.283333333333333,
              "duration": 0.20833333333333334
            },
            {
              "pitch": 65,
              "velocity": 110,
              "position": 15.05625,
              "duration": 0.44583333333333336
            },
            {
              "pitch": 60,
              "velocity": 103,
              "position": 15.535416666666666,
              "duration": 0.18333333333333332
            },
            {
              "pitch": 65,
              "velocity": 106,
              "position": 15.554166666666667,
              "duration": 0.16458333333333333
            },
            {
              "pitch": 57,
              "velocity": 123,
              "position": 15.527083333333334,
              "duration": 0.2125
            },
            {
              "pitch": 60,
              "velocity": 120,
              "position": 15.752083333333333,
              "duration": 0.2125
            },
            {
              "pitch": 65,
              "velocity": 127,
              "position": 15.75,
              "duration": 0.21458333333333332
            },
            {
              "pitch": 57,
              "velocity": 120,
              "position": 15.775,
              "duration": 0.19166666666666668
            }
          ]
        },
        "12": {
          "ctab": {
            "srcChannel": 12,
            "name": "mutedgtr",
            "accType": "CHORD2",
            "editable": false,
            "mutedNotes": [],
            "mutedChords": [],
            "autoStart": false,
            "sourceChordNote": 0,
            "sourceChordType": "Maj7",
            "ctb2Low": null,
            "ctb2Main": {
              "ntr": "ROOT_TRANSPOSITION",
              "ntt": "BYPASS",
              "bassOn": false,
              "chordRootUpperLimit": 6,
              "noteLowLimit": 55,
              "noteHighLimit": 66,
              "rtr": "PITCH_SHIFT"
            },
            "ctb2High": null
          },
          "notes": [
            {
              "pitch": 65,
              "velocity": 93,
              "position": 15.052083333333334,
              "duration": 0.19791666666666666
            },
            {
              "pitch": 60,
              "velocity": 109,
              "position": 15.020833333333334,
              "duration": 0.24166666666666667
            },
            {
              "pitch": 69,
              "velocity": 104,
              "position": 15.008333333333333,
              "duration": 0.26666666666666666
            },
            {
              "pitch": 69,
              "velocity": 71,
              "position": 15.295833333333333,
              "duration": 0.17916666666666667
            },
            {
              "pitch": 60,
              "velocity": 81,
              "position": 15.283333333333333,
              "duration": 0.20625
            },
            {
              "pitch": 65,
              "velocity": 71,
              "position": 15.270833333333334,
              "duration": 0.24791666666666667
            },
            {
              "pitch": 65,
              "velocity": 93,
              "position": 15.539583333333333,
              "duration": 0.19583333333333333
            },
            {
              "pitch": 60,
              "velocity": 104,
              "position": 15.510416666666666,
              "duration": 0.24375
            },
            {
              "pitch": 69,
              "velocity": 87,
              "position": 15.495833333333334,
              "duration": 0.26875
            },
            {
              "pitch": 60,
              "velocity": 88,
              "position": 15.775,
              "duration": 0.21666666666666667
            },
            {
              "pitch": 65,
              "velocity": 71,
              "position": 15.75625,
              "duration": 0.24375
            },
            {
              "pitch": 69,
              "velocity": 81,
              "position": 15.785416666666666,
              "duration": 0.21458333333333332
            }
          ]
        },
        "13": {
          "ctab": {
            "srcChannel": 13,
            "name": "gtr",
            "accType": "PAD",
            "editable": false,
            "mutedNotes": [],
            "mutedChords": [],
            "autoStart": false,
            "sourceChordNote": 0,
            "sourceChordType": "Maj7",
            "ctb2Low": null,
            "ctb2Main": {
              "ntr": "ROOT_TRANSPOSITION",
              "ntt": "BYPASS",
              "bassOn": false,
              "chordRootUpperLimit": 6,
              "noteLowLimit": 54,
              "noteHighLimit": 65,
              "rtr": "PITCH_SHIFT"
            },
            "ctb2High": null
          },
          "notes": [
            {
              "pitch": 60,
              "velocity": 94,
              "position": 0,
              "duration": 2.870833333333333
            },
            {
              "pitch": 64,
              "velocity": 94,
              "position": 0,
              "duration": 2.870833333333333
            },
            {
              "pitch": 55,
              "velocity": 94,
              "position": 0,
              "duration": 2.872916666666667
            },
            {
              "pitch": 62,
              "velocity": 94,
              "position": 3,
              "duration": 0.85625
            },
            {
              "pitch": 55,
              "velocity": 94,
              "position": 3,
              "duration": 0.8583333333333333
            },
            {
              "pitch": 59,
              "velocity": 94,
              "position": 3,
              "duration": 0.8583333333333333
            },
            {
              "pitch": 55,
              "velocity": 94,
              "position": 4,
              "duration": 2.870833333333333
            },
            {
              "pitch": 60,
              "velocity": 94,
              "position": 4,
              "duration": 2.870833333333333
            },
            {
              "pitch": 64,
              "velocity": 94,
              "position": 4,
              "duration": 2.870833333333333
            },
            {
              "pitch": 57,
              "velocity": 94,
              "position": 7,
              "duration": 0.86875
            },
            {
              "pitch": 60,
              "velocity": 94,
              "position": 7,
              "duration": 0.86875
            },
            {
              "pitch": 65,
              "velocity": 94,
              "position": 7,
              "duration": 0.86875
            },
            {
              "pitch": 55,
              "velocity": 94,
              "position": 8,
              "duration": 2.875
            },
            {
              "pitch": 59,
              "velocity": 94,
              "position": 8,
              "duration": 2.875
            },
            {
              "pitch": 62,
              "velocity": 94,
              "position": 8,
              "duration": 2.875
            },
            {
              "pitch": 57,
              "velocity": 94,
              "position": 11,
              "duration": 0.8770833333333333
            },
            {
              "pitch": 60,
              "velocity": 94,
              "position": 11,
              "duration": 0.8770833333333333
            },
            {
              "pitch": 65,
              "velocity": 94,
              "position": 11,
              "duration": 0.8791666666666667
            },
            {
              "pitch": 55,
              "velocity": 94,
              "position": 12,
              "duration": 2.86875
            },
            {
              "pitch": 59,
              "velocity": 94,
              "position": 12,
              "duration": 2.86875
            },
            {
              "pitch": 62,
              "velocity": 94,
              "position": 12,
              "duration": 2.872916666666667
            },
            {
              "pitch": 57,
              "velocity": 94,
              "position": 15,
              "duration": 0.8770833333333333
            },
            {
              "pitch": 60,
              "velocity": 94,
              "position": 15,
              "duration": 0.8770833333333333
            },
            {
              "pitch": 65,
              "velocity": 94,
              "position": 15,
              "duration": 0.8770833333333333
            }
          ]
        },
        "14": {
          "ctab": {
            "srcChannel": 14,
            "name": "dist",
            "accType": "PHRASE1",
            "editable": false,
            "mutedNotes": [],
            "mutedChords": [],
            "autoStart": false,
            "sourceChordNote": 0,
            "sourceChordType": "Maj7",
            "ctb2Low": null,
            "ctb2Main": {
              "ntr": "ROOT_TRANSPOSITION",
              "ntt": "BYPASS",
              "bassOn": false,
              "chordRootUpperLimit": 6,
              "noteLowLimit": 64,
              "noteHighLimit": 75,
              "rtr": "PITCH_SHIFT"
            },
            "ctb2High": null
          },
          "notes": []
        },
        "15": {
          "ctab": {
            "srcChannel": 15,
            "name": "overdr",
            "accType": "PHRASE2",
            "editable": false,
            "mutedNotes": [],
            "mutedChords": [],
            "autoStart": false,
            "sourceChordNote": 0,
            "sourceChordType": "Maj7",
            "ctb2Low": null,
            "ctb2Main": {
              "ntr": "ROOT_TRANSPOSITION",
              "ntt": "BYPASS",
              "bassOn": false,
              "chordRootUpperLimit": 4,
              "noteLowLimit": 0,
              "noteHighLimit": 127,
              "rtr": "PITCH_SHIFT"
            },
            "ctb2High": null
          },
          "notes": [
            {
              "pitch": 43,
              "velocity": 127,
              "position": 12.002083333333333,
              "duration": 3.96875
            },
            {
              "pitch": 50,
              "velocity": 112,
              "position": 12.0125,
              "duration": 3.96875
            }
          ]
        }
      }
    },
    "Ending_B": {
      "type": "Ending_B",
      "sizeInBeats": 20,
      "channels": {
        "8": {
          "ctab": {
            "srcChannel": 8,
            "name": "add-drum",
            "accType": "SUBRHYTHM",
            "editable": false,
            "mutedNotes": [],
            "mutedChords": [],
            "autoStart": true,
            "sourceChordNote": 0,
            "sourceChordType": "Maj7",
            "ctb2Low": null,
            "ctb2Main": {
              "ntr": "ROOT_FIXED",
              "ntt": "BYPASS",
              "bassOn": false,
              "chordRootUpperLimit": 6,
              "noteLowLimit": 0,
              "noteHighLimit": 127,
              "rtr": "PITCH_SHIFT"
            },
            "ctb2High": null
          },
          "notes": [
            {
              "pitch": 54,
              "velocity": 67,
              "position": 0.008333333333333333,
              "duration": 0.010416666666666666
            },
            {
              "pitch": 54,
              "velocity": 34,
              "position": 0.26875,
              "duration": 0.010416666666666666
            },
            {
              "pitch": 54,
              "velocity": 48,
              "position": 0.5104166666666666,
              "duration": 0.010416666666666666
            },
            {
              "pitch": 54,
              "velocity": 36,
              "position": 0.775,
              "duration": 0.010416666666666666
            },
            {
              "pitch": 54,
              "velocity": 71,
              "position": 1.0104166666666667,
              "duration": 0.010416666666666666
            },
            {
              "pitch": 54,
              "velocity": 35,
              "position": 1.2666666666666666,
              "duration": 0.010416666666666666
            },
            {
              "pitch": 54,
              "velocity": 52,
              "position": 1.5020833333333334,
              "duration": 0.010416666666666666
            },
            {
              "pitch": 54,
              "velocity": 29,
              "position": 1.7708333333333333,
              "duration": 0.010416666666666666
            },
            {
              "pitch": 54,
              "velocity": 46,
              "position": 2,
              "duration": 0.010416666666666666
            },
            {
              "pitch": 54,
              "velocity": 40,
              "position": 2.275,
              "duration": 0.010416666666666666
            },
            {
              "pitch": 54,
              "velocity": 41,
              "position": 2.50625,
              "duration": 0.010416666666666666
            },
            {
              "pitch": 54,
              "velocity": 34,
              "position": 2.7729166666666667,
              "duration": 0.010416666666666666
            },
            {
              "pitch": 54,
              "velocity": 69,
              "position": 3.0083333333333333,
              "duration": 0.010416666666666666
            },
            {
              "pitch": 54,
              "velocity": 42,
              "position": 3.2666666666666666,
              "duration": 0.010416666666666666
            },
            {
              "pitch": 54,
              "velocity": 40,
              "position": 3.5104166666666665,
              "duration": 0.010416666666666666
            },
            {
              "pitch": 54,
              "velocity": 42,
              "position": 3.76875,
              "duration": 0.010416666666666666
            },
            {
              "pitch": 54,
              "velocity": 48,
              "position": 3.997916666666667,
              "duration": 0.010416666666666666
            },
            {
              "pitch": 54,
              "velocity": 36,
              "position": 4.266666666666667,
              "duration": 0.010416666666666666
            },
            {
              "pitch": 54,
              "velocity": 44,
              "position": 4.510416666666667,
              "duration": 0.010416666666666666
            },
            {
              "pitch": 54,
              "velocity": 20,
              "position": 4.766666666666667,
              "duration": 0.010416666666666666
            },
            {
              "pitch": 54,
              "velocity": 69,
              "position": 5.010416666666667,
              "duration": 0.010416666666666666
            },
            {
              "pitch": 54,
              "velocity": 43,
              "position": 5.266666666666667,
              "duration": 0.010416666666666666
            },
            {
              "pitch": 54,
              "velocity": 47,
              "position": 5.504166666666666,
              "duration": 0.010416666666666666
            },
            {
              "pitch": 54,
              "velocity": 33,
              "position": 5.76875,
              "duration": 0.010416666666666666
            },
            {
              "pitch": 54,
              "velocity": 46,
              "position": 6.004166666666666,
              "duration": 0.010416666666666666
            },
            {
              "pitch": 54,
              "velocity": 45,
              "position": 6.264583333333333,
              "duration": 0.010416666666666666
            },
            {
              "pitch": 54,
              "velocity": 46,
              "position": 6.5,
              "duration": 0.010416666666666666
            },
            {
              "pitch": 54,
              "velocity": 38,
              "position": 6.760416666666667,
              "duration": 0.010416666666666666
            },
            {
              "pitch": 54,
              "velocity": 70,
              "position": 7.00625,
              "duration": 0.010416666666666666
            },
            {
              "pitch": 54,
              "velocity": 35,
              "position": 7.272916666666666,
              "duration": 0.010416666666666666
            },
            {
              "pitch": 54,
              "velocity": 41,
              "position": 7.508333333333334,
              "duration": 0.010416666666666666
            },
            {
              "pitch": 54,
              "velocity": 42,
              "position": 7.76875,
              "duration": 0.010416666666666666
            },
            {
              "pitch": 54,
              "velocity": 46,
              "position": 8,
              "duration": 0.010416666666666666
            },
            {
              "pitch": 54,
              "velocity": 44,
              "position": 8.275,
              "duration": 0.010416666666666666
            },
            {
              "pitch": 54,
              "velocity": 43,
              "position": 8.504166666666666,
              "duration": 0.010416666666666666
            },
            {
              "pitch": 54,
              "velocity": 35,
              "position": 8.764583333333333,
              "duration": 0.010416666666666666
            },
            {
              "pitch": 54,
              "velocity": 75,
              "position": 9.00625,
              "duration": 0.010416666666666666
            },
            {
              "pitch": 54,
              "velocity": 37,
              "position": 9.26875,
              "duration": 0.010416666666666666
            },
            {
              "pitch": 54,
              "velocity": 39,
              "position": 9.508333333333333,
              "duration": 0.010416666666666666
            },
            {
              "pitch": 54,
              "velocity": 38,
              "position": 9.772916666666667,
              "duration": 0.010416666666666666
            },
            {
              "pitch": 54,
              "velocity": 53,
              "position": 10.004166666666666,
              "duration": 0.010416666666666666
            },
            {
              "pitch": 54,
              "velocity": 38,
              "position": 10.270833333333334,
              "duration": 0.010416666666666666
            },
            {
              "pitch": 54,
              "velocity": 41,
              "position": 10.50625,
              "duration": 0.010416666666666666
            },
            {
              "pitch": 54,
              "velocity": 42,
              "position": 10.7625,
              "duration": 0.010416666666666666
            },
            {
              "pitch": 54,
              "velocity": 75,
              "position": 11.00625,
              "duration": 0.010416666666666666
            },
            {
              "pitch": 54,
              "velocity": 42,
              "position": 11.272916666666667,
              "duration": 0.010416666666666666
            },
            {
              "pitch": 54,
              "velocity": 43,
              "position": 11.50625,
              "duration": 0.010416666666666666
            },
            {
              "pitch": 54,
              "velocity": 34,
              "position": 11.777083333333334,
              "duration": 0.010416666666666666
            },
            {
              "pitch": 54,
              "velocity": 50,
              "position": 12.008333333333333,
              "duration": 0.010416666666666666
            },
            {
              "pitch": 54,
              "velocity": 35,
              "position": 12.275,
              "duration": 0.010416666666666666
            },
            {
              "pitch": 54,
              "velocity": 46,
              "position": 12.5,
              "duration": 0.010416666666666666
            },
            {
              "pitch": 54,
              "velocity": 38,
              "position": 12.764583333333333,
              "duration": 0.010416666666666666
            },
            {
              "pitch": 54,
              "velocity": 69,
              "position": 13.00625,
              "duration": 0.010416666666666666
            },
            {
              "pitch": 54,
              "velocity": 34,
              "position": 13.26875,
              "duration": 0.010416666666666666
            },
            {
              "pitch": 54,
              "velocity": 49,
              "position": 13.504166666666666,
              "duration": 0.010416666666666666
            },
            {
              "pitch": 54,
              "velocity": 29,
              "position": 13.76875,
              "duration": 0.010416666666666666
            },
            {
              "pitch": 54,
              "velocity": 50,
              "position": 14.00625,
              "duration": 0.010416666666666666
            },
            {
              "pitch": 54,
              "velocity": 42,
              "position": 14.266666666666667,
              "duration": 0.010416666666666666
            },
            {
              "pitch": 54,
              "velocity": 44,
              "position": 14.502083333333333,
              "duration": 0.010416666666666666
            },
            {
              "pitch": 54,
              "velocity": 33,
              "position": 14.766666666666667,
              "duration": 0.010416666666666666
            },
            {
              "pitch": 54,
              "velocity": 71,
              "position": 15.010416666666666,
              "duration": 0.010416666666666666
            },
            {
              "pitch": 54,
              "velocity": 42,
              "position": 15.275,
              "duration": 0.010416666666666666
            },
            {
              "pitch": 54,
              "velocity": 42,
              "position": 15.50625,
              "duration": 0.010416666666666666
            },
            {
              "pitch": 54,
              "velocity": 42,
              "position": 15.766666666666667,
              "duration": 0.010416666666666666
            }
          ]
        },
        "9": {
          "ctab": {
            "srcChannel": 9,
            "name": "main-dru",
            "accType": "RHYTHM",
            "editable": false,
            "mutedNotes": [],
            "mutedChords": [],
            "autoStart": true,
            "sourceChordNote": 0,
            "sourceChordType": "Maj7",
            "ctb2Low": null,
            "ctb2Main": {
              "ntr": "ROOT_FIXED",
              "ntt": "BYPASS",
              "bassOn": false,
              "chordRootUpperLimit": 6,
              "noteLowLimit": 0,
              "noteHighLimit": 127,
              "rtr": "PITCH_SHIFT"
            },
            "ctb2High": null
          },
          "notes": [
            {
              "pitch": 36,
              "velocity": 104,
              "position": 0,
              "duration": 0.010416666666666666
            },
            {
              "pitch": 49,
              "velocity": 66,
              "position": 0,
              "duration": 0.010416666666666666
            },
            {
              "pitch": 42,
              "velocity": 73,
              "position": 0.5,
              "duration": 0.010416666666666666
            },
            {
              "pitch": 40,
              "velocity": 88,
              "position": 1,
              "duration": 0.010416666666666666
            },
            {
              "pitch": 42,
              "velocity": 71,
              "position": 1,
              "duration": 0.010416666666666666
            },
            {
              "pitch": 36,
              "velocity": 80,
              "position": 1.5,
              "duration": 0.010416666666666666
            },
            {
              "pitch": 42,
              "velocity": 73,
              "position": 1.5,
              "duration": 0.010416666666666666
            },
            {
              "pitch": 36,
              "velocity": 106,
              "position": 2,
              "duration": 0.010416666666666666
            },
            {
              "pitch": 42,
              "velocity": 79,
              "position": 2,
              "duration": 0.010416666666666666
            },
            {
              "pitch": 42,
              "velocity": 73,
              "position": 2.5,
              "duration": 0.010416666666666666
            },
            {
              "pitch": 40,
              "velocity": 89,
              "position": 3,
              "duration": 0.010416666666666666
            },
            {
              "pitch": 42,
              "velocity": 73,
              "position": 3,
              "duration": 0.010416666666666666
            },
            {
              "pitch": 36,
              "velocity": 95,
              "position": 3.5,
              "duration": 0.010416666666666666
            },
            {
              "pitch": 42,
              "velocity": 77,
              "position": 3.5,
              "duration": 0.010416666666666666
            },
            {
              "pitch": 36,
              "velocity": 106,
              "position": 4,
              "duration": 0.010416666666666666
            },
            {
              "pitch": 42,
              "velocity": 72,
              "position": 4,
              "duration": 0.010416666666666666
            },
            {
              "pitch": 42,
              "velocity": 77,
              "position": 4.5,
              "duration": 0.010416666666666666
            },
            {
              "pitch": 36,
              "velocity": 106,
              "position": 4.775,
              "duration": 0.010416666666666666
            },
            {
              "pitch": 40,
              "velocity": 87,
              "position": 5,
              "duration": 0.010416666666666666
            },
            {
              "pitch": 42,
              "velocity": 74,
              "position": 5,
              "duration": 0.010416666666666666
            },
            {
              "pitch": 36,
              "velocity": 100,
              "position": 5.5,
              "duration": 0.010416666666666666
            },
            {
              "pitch": 42,
              "velocity": 74,
              "position": 5.5,
              "duration": 0.010416666666666666
            },
            {
              "pitch": 36,
              "velocity": 106,
              "position": 6,
              "duration": 0.010416666666666666
            },
            {
              "pitch": 42,
              "velocity": 69,
              "position": 6,
              "duration": 0.010416666666666666
            },
            {
              "pitch": 42,
              "velocity": 74,
              "position": 6.5,
              "duration": 0.010416666666666666
            },
            {
              "pitch": 40,
              "velocity": 89,
              "position": 7,
              "duration": 0.010416666666666666
            },
            {
              "pitch": 42,
              "velocity": 79,
              "position": 7,
              "duration": 0.010416666666666666
            },
            {
              "pitch": 36,
              "velocity": 81,
              "position": 7.5,
              "duration": 0.010416666666666666
            },
            {
              "pitch": 46,
              "velocity": 70,
              "position": 7.5,
              "duration": 0.010416666666666666
            },
            {
              "pitch": 36,
              "velocity": 106,
              "position": 8,
              "duration": 0.010416666666666666
            },
            {
              "pitch": 57,
              "velocity": 62,
              "position": 8,
              "duration": 0.010416666666666666
            },
            {
              "pitch": 42,
              "velocity": 72,
              "position": 8.5,
              "duration": 0.010416666666666666
            },
            {
              "pitch": 40,
              "velocity": 87,
              "position": 9,
              "duration": 0.010416666666666666
            },
            {
              "pitch": 42,
              "velocity": 73,
              "position": 9,
              "duration": 0.010416666666666666
            },
            {
              "pitch": 36,
              "velocity": 87,
              "position": 9.5,
              "duration": 0.010416666666666666
            },
            {
              "pitch": 42,
              "velocity": 72,
              "position": 9.5,
              "duration": 0.010416666666666666
            },
            {
              "pitch": 36,
              "velocity": 106,
              "position": 10,
              "duration": 0.010416666666666666
            },
            {
              "pitch": 42,
              "velocity": 73,
              "position": 10,
              "duration": 0.010416666666666666
            },
            {
              "pitch": 42,
              "velocity": 71,
              "position": 10.5,
              "duration": 0.010416666666666666
            },
            {
              "pitch": 40,
              "velocity": 89,
              "position": 11,
              "duration": 0.010416666666666666
            },
            {
              "pitch": 42,
              "velocity": 74,
              "position": 11,
              "duration": 0.010416666666666666
            },
            {
              "pitch": 36,
              "velocity": 84,
              "position": 11.5,
              "duration": 0.010416666666666666
            },
            {
              "pitch": 42,
              "velocity": 71,
              "position": 11.5,
              "duration": 0.010416666666666666
            },
            {
              "pitch": 36,
              "velocity": 106,
              "position": 12,
              "duration": 0.010416666666666666
            },
            {
              "pitch": 42,
              "velocity": 71,
              "position": 12,
              "duration": 0.010416666666666666
            },
            {
              "pitch": 42,
              "velocity": 71,
              "position": 12.5,
              "duration": 0.010416666666666666
            },
            {
              "pitch": 36,
              "velocity": 106,
              "position": 12.775,
              "duration": 0.010416666666666666
            },
            {
              "pitch": 40,
              "velocity": 89,
              "position": 13,
              "duration": 0.010416666666666666
            },
            {
              "pitch": 42,
              "velocity": 75,
              "position": 13,
              "duration": 0.010416666666666666
            },
            {
              "pitch": 36,
              "velocity": 104,
              "position": 13.5,
              "duration": 0.010416666666666666
            },
            {
              "pitch": 42,
              "velocity": 73,
              "position": 13.5,
              "duration": 0.010416666666666666
            },
            {
              "pitch": 36,
              "velocity": 100,
              "position": 14,
              "duration": 0.010416666666666666
            },
            {
              "pitch": 42,
              "velocity": 69,
              "position": 14,
              "duration": 0.010416666666666666
            },
            {
              "pitch": 42,
              "velocity": 71,
              "position": 14.5,
              "duration": 0.010416666666666666
            },
            {
              "pitch": 40,
              "velocity": 87,
              "position": 15,
              "duration": 0.010416666666666666
            },
            {
              "pitch": 42,
              "velocity": 68,
              "position": 15,
              "duration": 0.010416666666666666
            },
            {
              "pitch": 40,
              "velocity": 63,
              "position": 15.5,
              "duration": 0.010416666666666666
            },
            {
              "pitch": 46,
              "velocity": 73,
              "position": 15.5,
              "duration": 0.010416666666666666
            },
            {
              "pitch": 40,
              "velocity": 89,
              "position": 15.76875,
              "duration": 0.010416666666666666
            },
            {
              "pitch": 36,
              "velocity": 106,
              "position": 16,
              "duration": 0.010416666666666666
            },
            {
              "pitch": 49,
              "velocity": 70,
              "position": 16,
              "duration": 0.010416666666666666
            }
          ]
        },
        "10": {
          "ctab": {
            "srcChannel": 10,
            "name": "Bass",
            "accType": "BASS",
            "editable": false,
            "mutedNotes": [],
            "mutedChords": [],
            "autoStart": false,
            "sourceChordNote": 0,
            "sourceChordType": "Maj7",
            "ctb2Low": null,
            "ctb2Main": {
              "ntr": "ROOT_TRANSPOSITION",
              "ntt": "BYPASS",
              "bassOn": false,
              "chordRootUpperLimit": 3,
              "noteLowLimit": 28,
              "noteHighLimit": 127,
              "rtr": "PITCH_SHIFT"
            },
            "ctb2High": null
          },
          "notes": [
            {
              "pitch": 24,
              "velocity": 60,
              "position": 0,
              "duration": 0.3333333333333333
            },
            {
              "pitch": 24,
              "velocity": 60,
              "position": 1,
              "duration": 0.3333333333333333
            },
            {
              "pitch": 17,
              "velocity": 60,
              "position": 1.5,
              "duration": 0.24791666666666667
            },
            {
              "pitch": 19,
              "velocity": 60,
              "position": 1.75,
              "duration": 0.20833333333333334
            },
            {
              "pitch": 24,
              "velocity": 60,
              "position": 2,
              "duration": 0.42291666666666666
            },
            {
              "pitch": 24,
              "velocity": 60,
              "position": 3,
              "duration": 0.3458333333333333
            },
            {
              "pitch": 17,
              "velocity": 60,
              "position": 3.5,
              "duration": 0.24791666666666667
            },
            {
              "pitch": 19,
              "velocity": 60,
              "position": 3.75,
              "duration": 0.16666666666666666
            },
            {
              "pitch": 24,
              "velocity": 60,
              "position": 4,
              "duration": 0.44583333333333336
            },
            {
              "pitch": 24,
              "velocity": 60,
              "position": 5,
              "duration": 0.35833333333333334
            },
            {
              "pitch": 17,
              "velocity": 60,
              "position": 5.5,
              "duration": 0.24791666666666667
            },
            {
              "pitch": 19,
              "velocity": 60,
              "position": 5.75,
              "duration": 0.2
            },
            {
              "pitch": 24,
              "velocity": 60,
              "position": 6,
              "duration": 0.33125
            },
            {
              "pitch": 29,
              "velocity": 60,
              "position": 6.5,
              "duration": 0.47708333333333336
            },
            {
              "pitch": 36,
              "velocity": 60,
              "position": 7,
              "duration": 0.25
            },
            {
              "pitch": 31,
              "velocity": 60,
              "position": 7.25,
              "duration": 0.20833333333333334
            },
            {
              "pitch": 29,
              "velocity": 60,
              "position": 7.5,
              "duration": 0.43333333333333335
            },
            {
              "pitch": 24,
              "velocity": 60,
              "position": 8,
              "duration": 0.3958333333333333
            },
            {
              "pitch": 24,
              "velocity": 60,
              "position": 9,
              "duration": 0.33541666666666664
            },
            {
              "pitch": 17,
              "velocity": 60,
              "position": 9.5,
              "duration": 0.24791666666666667
            },
            {
              "pitch": 19,
              "velocity": 60,
              "position": 9.75,
              "duration": 0.20833333333333334
            },
            {
              "pitch": 24,
              "velocity": 60,
              "position": 10,
              "duration": 0.42291666666666666
            },
            {
              "pitch": 24,
              "velocity": 60,
              "position": 11,
              "duration": 0.3458333333333333
            },
            {
              "pitch": 17,
              "velocity": 60,
              "position": 11.5,
              "duration": 0.24791666666666667
            },
            {
              "pitch": 19,
              "velocity": 60,
              "position": 11.75,
              "duration": 0.16666666666666666
            },
            {
              "pitch": 24,
              "velocity": 60,
              "position": 12,
              "duration": 0.44583333333333336
            },
            {
              "pitch": 24,
              "velocity": 60,
              "position": 13,
              "duration": 0.35833333333333334
            },
            {
              "pitch": 17,
              "velocity": 60,
              "position": 13.5,
              "duration": 0.24791666666666667
            },
            {
              "pitch": 19,
              "velocity": 60,
              "position": 13.75,
              "duration": 0.2
            },
            {
              "pitch": 24,
              "velocity": 60,
              "position": 14,
              "duration": 0.33125
            },
            {
              "pitch": 29,
              "velocity": 60,
              "position": 14.5,
              "duration": 0.47708333333333336
            },
            {
              "pitch": 34,
              "velocity": 60,
              "position": 15,
              "duration": 0.47708333333333336
            },
            {
              "pitch": 31,
              "velocity": 60,
              "position": 15.5,
              "duration": 0.43333333333333335
            },
            {
              "pitch": 24,
              "velocity": 60,
              "position": 16,
              "duration": 3.9916666666666667
            }
          ]
        },
        "11": {
          "ctab": {
            "srcChannel": 11,
            "name": "piano",
            "accType": "CHORD1",
            "editable": false,
            "mutedNotes": [],
            "mutedChords": [],
            "autoStart": false,
            "sourceChordNote": 0,
            "sourceChordType": "Maj7",
            "ctb2Low": null,
            "ctb2Main": {
              "ntr": "ROOT_TRANSPOSITION",
              "ntt": "BYPASS",
              "bassOn": false,
              "chordRootUpperLimit": 6,
              "noteLowLimit": 53,
              "noteHighLimit": 64,
              "rtr": "PITCH_SHIFT"
            },
            "ctb2High": null
          },
          "notes": [
            {
              "pitch": 60,
              "velocity": 113,
              "position": 0.01875,
              "duration": 0.19166666666666668
            },
            {
              "pitch": 67,
              "velocity": 111,
              "position": 0,
              "duration": 0.22083333333333333
            },
            {
              "pitch": 67,
              "velocity": 57,
              "position": 0.25625,
              "duration": 0.21875
            },
            {
              "pitch": 64,
              "velocity": 103,
              "position": 0.029166666666666667,
              "duration": 0.45208333333333334
            },
            {
              "pitch": 60,
              "velocity": 68,
              "position": 0.24375,
              "duration": 0.24166666666666667
            },
            {
              "pitch": 64,
              "velocity": 65,
              "position": 0.5333333333333333,
              "duration": 0.16666666666666666
            },
            {
              "pitch": 60,
              "velocity": 63,
              "position": 0.5229166666666667,
              "duration": 0.1875
            },
            {
              "pitch": 67,
              "velocity": 70,
              "position": 0.5104166666666666,
              "duration": 0.2125
            },
            {
              "pitch": 67,
              "velocity": 113,
              "position": 0.7583333333333333,
              "duration": 0.20625
            },
            {
              "pitch": 60,
              "velocity": 105,
              "position": 0.74375,
              "duration": 0.2375
            },
            {
              "pitch": 64,
              "velocity": 117,
              "position": 0.7333333333333333,
              "duration": 0.2625
            },
            {
              "pitch": 67,
              "velocity": 71,
              "position": 1,
              "duration": 0.058333333333333334
            },
            {
              "pitch": 60,
              "velocity": 81,
              "position": 1.01875,
              "duration": 0.03958333333333333
            },
            {
              "pitch": 64,
              "velocity": 77,
              "position": 1.0354166666666667,
              "duration": 0.025
            },
            {
              "pitch": 65,
              "velocity": 77,
              "position": 1.5395833333333333,
              "duration": 0.15416666666666667
            },
            {
              "pitch": 60,
              "velocity": 77,
              "position": 1.5208333333333333,
              "duration": 0.175
            },
            {
              "pitch": 69,
              "velocity": 81,
              "position": 1.5083333333333333,
              "duration": 0.20416666666666666
            },
            {
              "pitch": 69,
              "velocity": 80,
              "position": 1.7479166666666666,
              "duration": 0.22083333333333333
            },
            {
              "pitch": 60,
              "velocity": 76,
              "position": 1.7291666666666667,
              "duration": 0.24166666666666667
            },
            {
              "pitch": 65,
              "velocity": 77,
              "position": 1.725,
              "duration": 0.26666666666666666
            },
            {
              "pitch": 60,
              "velocity": 127,
              "position": 2.0083333333333333,
              "duration": 0.20416666666666666
            },
            {
              "pitch": 69,
              "velocity": 121,
              "position": 2.004166666666667,
              "duration": 0.22083333333333333
            },
            {
              "pitch": 69,
              "velocity": 69,
              "position": 2.2604166666666665,
              "duration": 0.22083333333333333
            },
            {
              "pitch": 60,
              "velocity": 80,
              "position": 2.247916666666667,
              "duration": 0.24375
            },
            {
              "pitch": 65,
              "velocity": 127,
              "position": 2.03125,
              "duration": 0.4666666666666667
            },
            {
              "pitch": 65,
              "velocity": 87,
              "position": 2.55,
              "duration": 0.15208333333333332
            },
            {
              "pitch": 60,
              "velocity": 70,
              "position": 2.529166666666667,
              "duration": 0.17916666666666667
            },
            {
              "pitch": 69,
              "velocity": 85,
              "position": 2.5166666666666666,
              "duration": 0.19791666666666666
            },
            {
              "pitch": 69,
              "velocity": 127,
              "position": 2.75,
              "duration": 0.21875
            },
            {
              "pitch": 60,
              "velocity": 124,
              "position": 2.7416666666666667,
              "duration": 0.2375
            },
            {
              "pitch": 65,
              "velocity": 127,
              "position": 2.7333333333333334,
              "duration": 0.25833333333333336
            },
            {
              "pitch": 69,
              "velocity": 76,
              "position": 3.004166666666667,
              "duration": 0.07291666666666667
            },
            {
              "pitch": 60,
              "velocity": 78,
              "position": 3.0166666666666666,
              "duration": 0.0625
            },
            {
              "pitch": 65,
              "velocity": 74,
              "position": 3.03125,
              "duration": 0.04791666666666667
            },
            {
              "pitch": 67,
              "velocity": 81,
              "position": 3.5375,
              "duration": 0.17291666666666666
            },
            {
              "pitch": 62,
              "velocity": 91,
              "position": 3.525,
              "duration": 0.1875
            },
            {
              "pitch": 59,
              "velocity": 89,
              "position": 3.5104166666666665,
              "duration": 0.21041666666666667
            },
            {
              "pitch": 67,
              "velocity": 84,
              "position": 3.779166666666667,
              "duration": 0.18958333333333333
            },
            {
              "pitch": 59,
              "velocity": 80,
              "position": 3.75625,
              "duration": 0.21875
            },
            {
              "pitch": 62,
              "velocity": 69,
              "position": 3.745833333333333,
              "duration": 0.23541666666666666
            },
            {
              "pitch": 67,
              "velocity": 121,
              "position": 4.0375,
              "duration": 0.17708333333333334
            },
            {
              "pitch": 59,
              "velocity": 111,
              "position": 4.010416666666667,
              "duration": 0.20416666666666666
            },
            {
              "pitch": 62,
              "velocity": 125,
              "position": 4.01875,
              "duration": 0.19583333333333333
            },
            {
              "pitch": 60,
              "velocity": 87,
              "position": 4.516666666666667,
              "duration": 0.041666666666666664
            },
            {
              "pitch": 69,
              "velocity": 94,
              "position": 4.50625,
              "duration": 0.052083333333333336
            },
            {
              "pitch": 65,
              "velocity": 127,
              "position": 4.7375,
              "duration": 0.20625
            },
            {
              "pitch": 60,
              "velocity": 117,
              "position": 4.75,
              "duration": 0.19583333333333333
            },
            {
              "pitch": 69,
              "velocity": 127,
              "position": 4.76875,
              "duration": 0.17708333333333334
            },
            {
              "pitch": 67,
              "velocity": 50,
              "position": 5.26875,
              "duration": 0.21041666666666667
            },
            {
              "pitch": 60,
              "velocity": 47,
              "position": 5.25,
              "duration": 0.23958333333333334
            },
            {
              "pitch": 64,
              "velocity": 94,
              "position": 5.539583333333334,
              "duration": 0.17708333333333334
            },
            {
              "pitch": 60,
              "velocity": 89,
              "position": 5.527083333333334,
              "duration": 0.20208333333333334
            },
            {
              "pitch": 67,
              "velocity": 98,
              "position": 5.514583333333333,
              "duration": 0.21875
            },
            {
              "pitch": 67,
              "velocity": 85,
              "position": 5.76875,
              "duration": 0.23333333333333334
            },
            {
              "pitch": 60,
              "velocity": 98,
              "position": 5.764583333333333,
              "duration": 0.25
            },
            {
              "pitch": 64,
              "velocity": 70,
              "position": 5.75,
              "duration": 0.27708333333333335
            },
            {
              "pitch": 67,
              "velocity": 123,
              "position": 6.039583333333334,
              "duration": 0.43125
            },
            {
              "pitch": 60,
              "velocity": 120,
              "position": 6.052083333333333,
              "duration": 0.42916666666666664
            },
            {
              "pitch": 64,
              "velocity": 121,
              "position": 6.066666666666666,
              "duration": 0.43333333333333335
            },
            {
              "pitch": 60,
              "velocity": 66,
              "position": 6.53125,
              "duration": 0.20416666666666666
            },
            {
              "pitch": 67,
              "velocity": 71,
              "position": 6.520833333333333,
              "duration": 0.22083333333333333
            },
            {
              "pitch": 67,
              "velocity": 69,
              "position": 6.777083333333334,
              "duration": 0.2125
            },
            {
              "pitch": 64,
              "velocity": 59,
              "position": 6.55,
              "duration": 0.45
            },
            {
              "pitch": 60,
              "velocity": 60,
              "position": 6.770833333333333,
              "duration": 0.2375
            },
            {
              "pitch": 67,
              "velocity": 125,
              "position": 7.025,
              "duration": 0.44583333333333336
            },
            {
              "pitch": 60,
              "velocity": 127,
              "position": 7.045833333333333,
              "duration": 0.44166666666666665
            },
            {
              "pitch": 64,
              "velocity": 114,
              "position": 7.052083333333333,
              "duration": 0.45208333333333334
            },
            {
              "pitch": 64,
              "velocity": 88,
              "position": 7.55625,
              "duration": 0.16041666666666668
            },
            {
              "pitch": 60,
              "velocity": 84,
              "position": 7.5375,
              "duration": 0.18958333333333333
            },
            {
              "pitch": 67,
              "velocity": 101,
              "position": 7.520833333333333,
              "duration": 0.21458333333333332
            },
            {
              "pitch": 64,
              "velocity": 74,
              "position": 7.747916666666667,
              "duration": 0.21666666666666667
            },
            {
              "pitch": 60,
              "velocity": 70,
              "position": 7.760416666666667,
              "duration": 0.20416666666666666
            },
            {
              "pitch": 67,
              "velocity": 70,
              "position": 7.770833333333333,
              "duration": 0.19583333333333333
            },
            {
              "pitch": 60,
              "velocity": 113,
              "position": 8.01875,
              "duration": 0.19166666666666668
            },
            {
              "pitch": 67,
              "velocity": 111,
              "position": 8,
              "duration": 0.22083333333333333
            },
            {
              "pitch": 67,
              "velocity": 57,
              "position": 8.25625,
              "duration": 0.21875
            },
            {
              "pitch": 64,
              "velocity": 103,
              "position": 8.029166666666667,
              "duration": 0.45208333333333334
            },
            {
              "pitch": 60,
              "velocity": 68,
              "position": 8.24375,
              "duration": 0.24166666666666667
            },
            {
              "pitch": 64,
              "velocity": 65,
              "position": 8.533333333333333,
              "duration": 0.16666666666666666
            },
            {
              "pitch": 60,
              "velocity": 63,
              "position": 8.522916666666667,
              "duration": 0.1875
            },
            {
              "pitch": 67,
              "velocity": 70,
              "position": 8.510416666666666,
              "duration": 0.2125
            },
            {
              "pitch": 67,
              "velocity": 113,
              "position": 8.758333333333333,
              "duration": 0.20625
            },
            {
              "pitch": 60,
              "velocity": 105,
              "position": 8.74375,
              "duration": 0.2375
            },
            {
              "pitch": 64,
              "velocity": 117,
              "position": 8.733333333333333,
              "duration": 0.2625
            },
            {
              "pitch": 67,
              "velocity": 71,
              "position": 9,
              "duration": 0.058333333333333334
            },
            {
              "pitch": 60,
              "velocity": 81,
              "position": 9.01875,
              "duration": 0.03958333333333333
            },
            {
              "pitch": 64,
              "velocity": 77,
              "position": 9.035416666666666,
              "duration": 0.025
            },
            {
              "pitch": 65,
              "velocity": 77,
              "position": 9.539583333333333,
              "duration": 0.15416666666666667
            },
            {
              "pitch": 60,
              "velocity": 77,
              "position": 9.520833333333334,
              "duration": 0.175
            },
            {
              "pitch": 69,
              "velocity": 81,
              "position": 9.508333333333333,
              "duration": 0.20416666666666666
            },
            {
              "pitch": 69,
              "velocity": 80,
              "position": 9.747916666666667,
              "duration": 0.22083333333333333
            },
            {
              "pitch": 60,
              "velocity": 76,
              "position": 9.729166666666666,
              "duration": 0.24166666666666667
            },
            {
              "pitch": 65,
              "velocity": 77,
              "position": 9.725,
              "duration": 0.26666666666666666
            },
            {
              "pitch": 60,
              "velocity": 127,
              "position": 10.008333333333333,
              "duration": 0.20416666666666666
            },
            {
              "pitch": 69,
              "velocity": 121,
              "position": 10.004166666666666,
              "duration": 0.22083333333333333
            },
            {
              "pitch": 69,
              "velocity": 69,
              "position": 10.260416666666666,
              "duration": 0.22083333333333333
            },
            {
              "pitch": 60,
              "velocity": 80,
              "position": 10.247916666666667,
              "duration": 0.24375
            },
            {
              "pitch": 65,
              "velocity": 127,
              "position": 10.03125,
              "duration": 0.4666666666666667
            },
            {
              "pitch": 65,
              "velocity": 87,
              "position": 10.55,
              "duration": 0.15208333333333332
            },
            {
              "pitch": 60,
              "velocity": 70,
              "position": 10.529166666666667,
              "duration": 0.17916666666666667
            },
            {
              "pitch": 69,
              "velocity": 85,
              "position": 10.516666666666667,
              "duration": 0.19791666666666666
            },
            {
              "pitch": 69,
              "velocity": 127,
              "position": 10.75,
              "duration": 0.21875
            },
            {
              "pitch": 60,
              "velocity": 124,
              "position": 10.741666666666667,
              "duration": 0.2375
            },
            {
              "pitch": 65,
              "velocity": 127,
              "position": 10.733333333333333,
              "duration": 0.25833333333333336
            },
            {
              "pitch": 69,
              "velocity": 76,
              "position": 11.004166666666666,
              "duration": 0.07291666666666667
            },
            {
              "pitch": 60,
              "velocity": 78,
              "position": 11.016666666666667,
              "duration": 0.0625
            },
            {
              "pitch": 65,
              "velocity": 74,
              "position": 11.03125,
              "duration": 0.04791666666666667
            },
            {
              "pitch": 67,
              "velocity": 81,
              "position": 11.5375,
              "duration": 0.17291666666666666
            },
            {
              "pitch": 62,
              "velocity": 91,
              "position": 11.525,
              "duration": 0.1875
            },
            {
              "pitch": 59,
              "velocity": 89,
              "position": 11.510416666666666,
              "duration": 0.21041666666666667
            },
            {
              "pitch": 67,
              "velocity": 84,
              "position": 11.779166666666667,
              "duration": 0.18958333333333333
            },
            {
              "pitch": 59,
              "velocity": 80,
              "position": 11.75625,
              "duration": 0.21875
            },
            {
              "pitch": 62,
              "velocity": 69,
              "position": 11.745833333333334,
              "duration": 0.23541666666666666
            },
            {
              "pitch": 67,
              "velocity": 121,
              "position": 12.0375,
              "duration": 0.17708333333333334
            },
            {
              "pitch": 59,
              "velocity": 111,
              "position": 12.010416666666666,
              "duration": 0.20416666666666666
            },
            {
              "pitch": 62,
              "velocity": 125,
              "position": 12.01875,
              "duration": 0.19583333333333333
            },
            {
              "pitch": 60,
              "velocity": 87,
              "position": 12.516666666666667,
              "duration": 0.041666666666666664
            },
            {
              "pitch": 69,
              "velocity": 94,
              "position": 12.50625,
              "duration": 0.052083333333333336
            },
            {
              "pitch": 65,
              "velocity": 127,
              "position": 12.7375,
              "duration": 0.20625
            },
            {
              "pitch": 60,
              "velocity": 117,
              "position": 12.75,
              "duration": 0.19583333333333333
            },
            {
              "pitch": 69,
              "velocity": 127,
              "position": 12.76875,
              "duration": 0.17708333333333334
            },
            {
              "pitch": 67,
              "velocity": 50,
              "position": 13.26875,
              "duration": 0.21041666666666667
            },
            {
              "pitch": 60,
              "velocity": 47,
              "position": 13.25,
              "duration": 0.23958333333333334
            },
            {
              "pitch": 64,
              "velocity": 94,
              "position": 13.539583333333333,
              "duration": 0.17708333333333334
            },
            {
              "pitch": 60,
              "velocity": 89,
              "position": 13.527083333333334,
              "duration": 0.20208333333333334
            },
            {
              "pitch": 67,
              "velocity": 98,
              "position": 13.514583333333333,
              "duration": 0.21875
            },
            {
              "pitch": 67,
              "velocity": 85,
              "position": 13.76875,
              "duration": 0.23333333333333334
            },
            {
              "pitch": 60,
              "velocity": 98,
              "position": 13.764583333333333,
              "duration": 0.25
            },
            {
              "pitch": 64,
              "velocity": 70,
              "position": 13.75,
              "duration": 0.27708333333333335
            },
            {
              "pitch": 67,
              "velocity": 123,
              "position": 14.039583333333333,
              "duration": 0.43125
            },
            {
              "pitch": 60,
              "velocity": 120,
              "position": 14.052083333333334,
              "duration": 0.42916666666666664
            },
            {
              "pitch": 64,
              "velocity": 121,
              "position": 14.066666666666666,
              "duration": 0.43333333333333335
            },
            {
              "pitch": 60,
              "velocity": 66,
              "position": 14.53125,
              "duration": 0.20416666666666666
            },
            {
              "pitch": 67,
              "velocity": 71,
              "position": 14.520833333333334,
              "duration": 0.22083333333333333
            },
            {
              "pitch": 67,
              "velocity": 69,
              "position": 14.777083333333334,
              "duration": 0.2125
            },
            {
              "pitch": 64,
              "velocity": 59,
              "position": 14.55,
              "duration": 0.45
            },
            {
              "pitch": 60,
              "velocity": 60,
              "position": 14.770833333333334,
              "duration": 0.2375
            },
            {
              "pitch": 67,
              "velocity": 125,
              "position": 15.025,
              "duration": 0.44583333333333336
            },
            {
              "pitch": 60,
              "velocity": 127,
              "position": 15.045833333333333,
              "duration": 0.44166666666666665
            },
            {
              "pitch": 64,
              "velocity": 114,
              "position": 15.052083333333334,
              "duration": 0.45208333333333334
            },
            {
              "pitch": 64,
              "velocity": 88,
              "position": 15.55625,
              "duration": 0.16041666666666668
            },
            {
              "pitch": 60,
              "velocity": 84,
              "position": 15.5375,
              "duration": 0.18958333333333333
            },
            {
              "pitch": 67,
              "velocity": 101,
              "position": 15.520833333333334,
              "duration": 0.21458333333333332
            },
            {
              "pitch": 64,
              "velocity": 74,
              "position": 15.747916666666667,
              "duration": 0.21666666666666667
            },
            {
              "pitch": 60,
              "velocity": 70,
              "position": 15.760416666666666,
              "duration": 0.20416666666666666
            },
            {
              "pitch": 67,
              "velocity": 70,
              "position": 15.770833333333334,
              "duration": 0.19583333333333333
            },
            {
              "pitch": 60,
              "velocity": 117,
              "position": 16.008333333333333,
              "duration": 3.9833333333333334
            },
            {
              "pitch": 64,
              "velocity": 114,
              "position": 16.016666666666666,
              "duration": 3.975
            },
            {
              "pitch": 67,
              "velocity": 103,
              "position": 16,
              "duration": 3.9916666666666667
            }
          ]
        },
        "12": {
          "ctab": {
            "srcChannel": 12,
            "name": "mutedgtr",
            "accType": "CHORD2",
            "editable": false,
            "mutedNotes": [],
            "mutedChords": [],
            "autoStart": false,
            "sourceChordNote": 0,
            "sourceChordType": "Maj7",
            "ctb2Low": null,
            "ctb2Main": {
              "ntr": "ROOT_TRANSPOSITION",
              "ntt": "BYPASS",
              "bassOn": false,
              "chordRootUpperLimit": 6,
              "noteLowLimit": 55,
              "noteHighLimit": 66,
              "rtr": "PITCH_SHIFT"
            },
            "ctb2High": null
          },
          "notes": [
            {
              "pitch": 67,
              "velocity": 103,
              "position": 0.029166666666666667,
              "duration": 0.7041666666666667
            },
            {
              "pitch": 64,
              "velocity": 114,
              "position": 0.01875,
              "duration": 0.71875
            },
            {
              "pitch": 60,
              "velocity": 113,
              "position": 0,
              "duration": 0.75625
            },
            {
              "pitch": 60,
              "velocity": 105,
              "position": 0.7770833333333333,
              "duration": 0.18125
            },
            {
              "pitch": 64,
              "velocity": 101,
              "position": 0.7583333333333333,
              "duration": 0.2
            },
            {
              "pitch": 67,
              "velocity": 102,
              "position": 0.7541666666666667,
              "duration": 0.20416666666666666
            },
            {
              "pitch": 69,
              "velocity": 64,
              "position": 1.5395833333333333,
              "duration": 0.16458333333333333
            },
            {
              "pitch": 65,
              "velocity": 64,
              "position": 1.5208333333333333,
              "duration": 0.1875
            },
            {
              "pitch": 60,
              "velocity": 68,
              "position": 1.5083333333333333,
              "duration": 0.21875
            },
            {
              "pitch": 60,
              "velocity": 67,
              "position": 1.7479166666666666,
              "duration": 0.23541666666666666
            },
            {
              "pitch": 65,
              "velocity": 63,
              "position": 1.7291666666666667,
              "duration": 0.25833333333333336
            },
            {
              "pitch": 69,
              "velocity": 64,
              "position": 1.725,
              "duration": 0.28541666666666665
            },
            {
              "pitch": 69,
              "velocity": 114,
              "position": 2.03125,
              "duration": 0.7083333333333334
            },
            {
              "pitch": 65,
              "velocity": 114,
              "position": 2.0083333333333333,
              "duration": 0.7354166666666667
            },
            {
              "pitch": 60,
              "velocity": 108,
              "position": 2.004166666666667,
              "duration": 0.7583333333333333
            },
            {
              "pitch": 60,
              "velocity": 105,
              "position": 2.783333333333333,
              "duration": 0.17083333333333334
            },
            {
              "pitch": 65,
              "velocity": 101,
              "position": 2.7645833333333334,
              "duration": 0.18958333333333333
            },
            {
              "pitch": 69,
              "velocity": 102,
              "position": 2.7604166666666665,
              "duration": 0.19375
            },
            {
              "pitch": 71,
              "velocity": 68,
              "position": 3.5375,
              "duration": 0.18541666666666667
            },
            {
              "pitch": 67,
              "velocity": 78,
              "position": 3.525,
              "duration": 0.2
            },
            {
              "pitch": 62,
              "velocity": 77,
              "position": 3.5104166666666665,
              "duration": 0.225
            },
            {
              "pitch": 62,
              "velocity": 67,
              "position": 3.75625,
              "duration": 0.23333333333333334
            },
            {
              "pitch": 67,
              "velocity": 57,
              "position": 3.745833333333333,
              "duration": 0.2520833333333333
            },
            {
              "pitch": 71,
              "velocity": 57,
              "position": 3.74375,
              "duration": 0.27291666666666664
            },
            {
              "pitch": 62,
              "velocity": 98,
              "position": 4.010416666666667,
              "duration": 0.21875
            },
            {
              "pitch": 67,
              "velocity": 112,
              "position": 4.01875,
              "duration": 0.21041666666666667
            },
            {
              "pitch": 71,
              "velocity": 108,
              "position": 4.0375,
              "duration": 0.19166666666666668
            },
            {
              "pitch": 65,
              "velocity": 65,
              "position": 4.516666666666667,
              "duration": 0.2125
            },
            {
              "pitch": 60,
              "velocity": 71,
              "position": 4.50625,
              "duration": 0.24166666666666667
            },
            {
              "pitch": 60,
              "velocity": 114,
              "position": 4.76875,
              "duration": 0.18958333333333333
            },
            {
              "pitch": 65,
              "velocity": 104,
              "position": 4.75,
              "duration": 0.20833333333333334
            },
            {
              "pitch": 69,
              "velocity": 114,
              "position": 4.7375,
              "duration": 0.22083333333333333
            },
            {
              "pitch": 60,
              "velocity": 37,
              "position": 5.26875,
              "duration": 0.225
            },
            {
              "pitch": 64,
              "velocity": 34,
              "position": 5.25,
              "duration": 0.25625
            },
            {
              "pitch": 67,
              "velocity": 81,
              "position": 5.539583333333334,
              "duration": 0.2
            },
            {
              "pitch": 64,
              "velocity": 77,
              "position": 5.527083333333334,
              "duration": 0.21666666666666667
            },
            {
              "pitch": 60,
              "velocity": 85,
              "position": 5.514583333333333,
              "duration": 0.24791666666666667
            },
            {
              "pitch": 60,
              "velocity": 67,
              "position": 5.783333333333333,
              "duration": 0.23541666666666666
            },
            {
              "pitch": 64,
              "velocity": 63,
              "position": 5.764583333333333,
              "duration": 0.26666666666666666
            },
            {
              "pitch": 67,
              "velocity": 64,
              "position": 5.760416666666667,
              "duration": 0.28541666666666665
            },
            {
              "pitch": 67,
              "velocity": 108,
              "position": 6.066666666666666,
              "duration": 0.675
            },
            {
              "pitch": 64,
              "velocity": 107,
              "position": 6.052083333333333,
              "duration": 0.69375
            },
            {
              "pitch": 60,
              "velocity": 110,
              "position": 6.039583333333334,
              "duration": 0.725
            },
            {
              "pitch": 60,
              "velocity": 105,
              "position": 6.785416666666666,
              "duration": 0.18125
            },
            {
              "pitch": 64,
              "velocity": 101,
              "position": 6.766666666666667,
              "duration": 0.2
            },
            {
              "pitch": 67,
              "velocity": 102,
              "position": 6.7625,
              "duration": 0.20416666666666666
            },
            {
              "pitch": 67,
              "velocity": 64,
              "position": 7.539583333333334,
              "duration": 0.16458333333333333
            },
            {
              "pitch": 64,
              "velocity": 64,
              "position": 7.520833333333333,
              "duration": 0.1875
            },
            {
              "pitch": 60,
              "velocity": 68,
              "position": 7.508333333333334,
              "duration": 0.21875
            },
            {
              "pitch": 60,
              "velocity": 67,
              "position": 7.747916666666667,
              "duration": 0.23125
            },
            {
              "pitch": 64,
              "velocity": 63,
              "position": 7.729166666666667,
              "duration": 0.26875
            },
            {
              "pitch": 67,
              "velocity": 64,
              "position": 7.725,
              "duration": 0.275
            },
            {
              "pitch": 67,
              "velocity": 103,
              "position": 8.029166666666667,
              "duration": 0.7041666666666667
            },
            {
              "pitch": 64,
              "velocity": 114,
              "position": 8.01875,
              "duration": 0.71875
            },
            {
              "pitch": 60,
              "velocity": 113,
              "position": 8,
              "duration": 0.75625
            },
            {
              "pitch": 60,
              "velocity": 105,
              "position": 8.777083333333334,
              "duration": 0.18125
            },
            {
              "pitch": 64,
              "velocity": 101,
              "position": 8.758333333333333,
              "duration": 0.2
            },
            {
              "pitch": 67,
              "velocity": 102,
              "position": 8.754166666666666,
              "duration": 0.20416666666666666
            },
            {
              "pitch": 69,
              "velocity": 64,
              "position": 9.539583333333333,
              "duration": 0.16458333333333333
            },
            {
              "pitch": 65,
              "velocity": 64,
              "position": 9.520833333333334,
              "duration": 0.1875
            },
            {
              "pitch": 60,
              "velocity": 68,
              "position": 9.508333333333333,
              "duration": 0.21875
            },
            {
              "pitch": 60,
              "velocity": 67,
              "position": 9.747916666666667,
              "duration": 0.23541666666666666
            },
            {
              "pitch": 65,
              "velocity": 63,
              "position": 9.729166666666666,
              "duration": 0.25833333333333336
            },
            {
              "pitch": 69,
              "velocity": 64,
              "position": 9.725,
              "duration": 0.28541666666666665
            },
            {
              "pitch": 69,
              "velocity": 114,
              "position": 10.03125,
              "duration": 0.7083333333333334
            },
            {
              "pitch": 65,
              "velocity": 114,
              "position": 10.008333333333333,
              "duration": 0.7354166666666667
            },
            {
              "pitch": 60,
              "velocity": 108,
              "position": 10.004166666666666,
              "duration": 0.7583333333333333
            },
            {
              "pitch": 60,
              "velocity": 105,
              "position": 10.783333333333333,
              "duration": 0.17083333333333334
            },
            {
              "pitch": 65,
              "velocity": 101,
              "position": 10.764583333333333,
              "duration": 0.18958333333333333
            },
            {
              "pitch": 69,
              "velocity": 102,
              "position": 10.760416666666666,
              "duration": 0.19375
            },
            {
              "pitch": 71,
              "velocity": 68,
              "position": 11.5375,
              "duration": 0.18541666666666667
            },
            {
              "pitch": 67,
              "velocity": 78,
              "position": 11.525,
              "duration": 0.2
            },
            {
              "pitch": 62,
              "velocity": 77,
              "position": 11.510416666666666,
              "duration": 0.225
            },
            {
              "pitch": 62,
              "velocity": 67,
              "position": 11.75625,
              "duration": 0.23333333333333334
            },
            {
              "pitch": 67,
              "velocity": 57,
              "position": 11.745833333333334,
              "duration": 0.2520833333333333
            },
            {
              "pitch": 71,
              "velocity": 57,
              "position": 11.74375,
              "duration": 0.27291666666666664
            },
            {
              "pitch": 62,
              "velocity": 98,
              "position": 12.010416666666666,
              "duration": 0.21875
            },
            {
              "pitch": 67,
              "velocity": 112,
              "position": 12.01875,
              "duration": 0.21041666666666667
            },
            {
              "pitch": 71,
              "velocity": 108,
              "position": 12.0375,
              "duration": 0.19166666666666668
            },
            {
              "pitch": 65,
              "velocity": 65,
              "position": 12.516666666666667,
              "duration": 0.2125
            },
            {
              "pitch": 60,
              "velocity": 71,
              "position": 12.50625,
              "duration": 0.24166666666666667
            },
            {
              "pitch": 60,
              "velocity": 114,
              "position": 12.76875,
              "duration": 0.18958333333333333
            },
            {
              "pitch": 65,
              "velocity": 104,
              "position": 12.75,
              "duration": 0.20833333333333334
            },
            {
              "pitch": 69,
              "velocity": 114,
              "position": 12.7375,
              "duration": 0.22083333333333333
            },
            {
              "pitch": 60,
              "velocity": 37,
              "position": 13.26875,
              "duration": 0.225
            },
            {
              "pitch": 64,
              "velocity": 34,
              "position": 13.25,
              "duration": 0.25625
            },
            {
              "pitch": 67,
              "velocity": 81,
              "position": 13.539583333333333,
              "duration": 0.2
            },
            {
              "pitch": 64,
              "velocity": 77,
              "position": 13.527083333333334,
              "duration": 0.21666666666666667
            },
            {
              "pitch": 60,
              "velocity": 85,
              "position": 13.514583333333333,
              "duration": 0.24791666666666667
            },
            {
              "pitch": 60,
              "velocity": 67,
              "position": 13.783333333333333,
              "duration": 0.23541666666666666
            },
            {
              "pitch": 64,
              "velocity": 63,
              "position": 13.764583333333333,
              "duration": 0.26666666666666666
            },
            {
              "pitch": 67,
              "velocity": 64,
              "position": 13.760416666666666,
              "duration": 0.28541666666666665
            },
            {
              "pitch": 67,
              "velocity": 108,
              "position": 14.066666666666666,
              "duration": 0.675
            },
            {
              "pitch": 64,
              "velocity": 107,
              "position": 14.052083333333334,
              "duration": 0.69375
            },
            {
              "pitch": 60,
              "velocity": 110,
              "position": 14.039583333333333,
              "duration": 0.725
            },
            {
              "pitch": 60,
              "velocity": 105,
              "position": 14.785416666666666,
              "duration": 0.18125
            },
            {
              "pitch": 64,
              "velocity": 101,
              "position": 14.766666666666667,
              "duration": 0.2
            },
            {
              "pitch": 67,
              "velocity": 102,
              "position": 14.7625,
              "duration": 0.20416666666666666
            },
            {
              "pitch": 67,
              "velocity": 64,
              "position": 15.539583333333333,
              "duration": 0.16458333333333333
            },
            {
              "pitch": 64,
              "velocity": 64,
              "position": 15.520833333333334,
              "duration": 0.1875
            },
            {
              "pitch": 60,
              "velocity": 68,
              "position": 15.508333333333333,
              "duration": 0.21875
            },
            {
              "pitch": 60,
              "velocity": 67,
              "position": 15.747916666666667,
              "duration": 0.23125
            },
            {
              "pitch": 64,
              "velocity": 63,
              "position": 15.729166666666666,
              "duration": 0.26875
            },
            {
              "pitch": 67,
              "velocity": 64,
              "position": 15.725,
              "duration": 0.275
            },
            {
              "pitch": 60,
              "velocity": 114,
              "position": 16.054166666666667,
              "duration": 3.9375
            },
            {
              "pitch": 64,
              "velocity": 114,
              "position": 16.135416666666668,
              "duration": 3.85625
            },
            {
              "pitch": 67,
              "velocity": 104,
              "position": 16,
              "duration": 3.9916666666666667
            }
          ]
        },
        "13": {
          "ctab": {
            "srcChannel": 13,
            "name": "gtr",
            "accType": "PAD",
            "editable": false,
            "mutedNotes": [],
            "mutedChords": [],
            "autoStart": false,
            "sourceChordNote": 0,
            "sourceChordType": "Maj7",
            "ctb2Low": null,
            "ctb2Main": {
              "ntr": "ROOT_TRANSPOSITION",
              "ntt": "BYPASS",
              "bassOn": false,
              "chordRootUpperLimit": 6,
              "noteLowLimit": 54,
              "noteHighLimit": 65,
              "rtr": "PITCH_SHIFT"
            },
            "ctb2High": null
          },
          "notes": [
            {
              "pitch": 60,
              "velocity": 94,
              "position": 0,
              "duration": 1.375
            },
            {
              "pitch": 64,
              "velocity": 94,
              "position": 0,
              "duration": 1.375
            },
            {
              "pitch": 67,
              "velocity": 94,
              "position": 0,
              "duration": 1.375
            },
            {
              "pitch": 60,
              "velocity": 94,
              "position": 1.5,
              "duration": 1.875
            },
            {
              "pitch": 65,
              "velocity": 94,
              "position": 1.5,
              "duration": 1.875
            },
            {
              "pitch": 69,
              "velocity": 94,
              "position": 1.5,
              "duration": 1.875
            },
            {
              "pitch": 59,
              "velocity": 94,
              "position": 3.5,
              "duration": 1.1208333333333333
            },
            {
              "pitch": 62,
              "velocity": 94,
              "position": 3.5,
              "duration": 1.1208333333333333
            },
            {
              "pitch": 67,
              "velocity": 94,
              "position": 3.5,
              "duration": 1.1208333333333333
            },
            {
              "pitch": 60,
              "velocity": 94,
              "position": 4.75,
              "duration": 0.625
            },
            {
              "pitch": 65,
              "velocity": 94,
              "position": 4.75,
              "duration": 0.625
            },
            {
              "pitch": 69,
              "velocity": 94,
              "position": 4.75,
              "duration": 0.625
            },
            {
              "pitch": 60,
              "velocity": 94,
              "position": 5.5,
              "duration": 3.875
            },
            {
              "pitch": 64,
              "velocity": 94,
              "position": 5.5,
              "duration": 3.875
            },
            {
              "pitch": 67,
              "velocity": 94,
              "position": 5.5,
              "duration": 3.875
            },
            {
              "pitch": 60,
              "velocity": 94,
              "position": 9.5,
              "duration": 1.8729166666666666
            },
            {
              "pitch": 65,
              "velocity": 94,
              "position": 9.5,
              "duration": 1.8729166666666666
            },
            {
              "pitch": 69,
              "velocity": 94,
              "position": 9.5,
              "duration": 1.8729166666666666
            },
            {
              "pitch": 59,
              "velocity": 94,
              "position": 11.5,
              "duration": 1.1291666666666667
            },
            {
              "pitch": 62,
              "velocity": 94,
              "position": 11.5,
              "duration": 1.1291666666666667
            },
            {
              "pitch": 67,
              "velocity": 94,
              "position": 11.5,
              "duration": 1.1291666666666667
            },
            {
              "pitch": 60,
              "velocity": 94,
              "position": 12.75,
              "duration": 0.6166666666666667
            },
            {
              "pitch": 65,
              "velocity": 94,
              "position": 12.75,
              "duration": 0.6166666666666667
            },
            {
              "pitch": 69,
              "velocity": 94,
              "position": 12.75,
              "duration": 0.6166666666666667
            },
            {
              "pitch": 60,
              "velocity": 94,
              "position": 13.5,
              "duration": 2.5
            },
            {
              "pitch": 64,
              "velocity": 94,
              "position": 13.5,
              "duration": 2.5
            },
            {
              "pitch": 67,
              "velocity": 94,
              "position": 13.5,
              "duration": 2.5
            },
            {
              "pitch": 60,
              "velocity": 94,
              "position": 16,
              "duration": 3.872916666666667
            },
            {
              "pitch": 64,
              "velocity": 94,
              "position": 16,
              "duration": 3.872916666666667
            },
            {
              "pitch": 55,
              "velocity": 94,
              "position": 16,
              "duration": 3.875
            }
          ]
        },
        "14": {
          "ctab": {
            "srcChannel": 14,
            "name": "dist",
            "accType": "PHRASE1",
            "editable": false,
            "mutedNotes": [],
            "mutedChords": [],
            "autoStart": false,
            "sourceChordNote": 0,
            "sourceChordType": "Maj7",
            "ctb2Low": null,
            "ctb2Main": {
              "ntr": "ROOT_TRANSPOSITION",
              "ntt": "BYPASS",
              "bassOn": false,
              "chordRootUpperLimit": 6,
              "noteLowLimit": 64,
              "noteHighLimit": 75,
              "rtr": "PITCH_SHIFT"
            },
            "ctb2High": null
          },
          "notes": [
            {
              "pitch": 72,
              "velocity": 104,
              "position": 1.5,
              "duration": 0.22708333333333333
            },
            {
              "pitch": 69,
              "velocity": 88,
              "position": 1.75,
              "duration": 0.16875
            },
            {
              "pitch": 72,
              "velocity": 104,
              "position": 2.00625,
              "duration": 0.6083333333333333
            },
            {
              "pitch": 72,
              "velocity": 104,
              "position": 3.497916666666667,
              "duration": 0.2375
            },
            {
              "pitch": 69,
              "velocity": 92,
              "position": 3.747916666666667,
              "duration": 0.16458333333333333
            },
            {
              "pitch": 72,
              "velocity": 106,
              "position": 4.004166666666666,
              "duration": 0.6583333333333333
            },
            {
              "pitch": 72,
              "velocity": 95,
              "position": 5.495833333333334,
              "duration": 0.20625
            },
            {
              "pitch": 69,
              "velocity": 92,
              "position": 5.745833333333334,
              "duration": 0.16041666666666668
            },
            {
              "pitch": 72,
              "velocity": 101,
              "position": 6.00625,
              "duration": 0.35833333333333334
            },
            {
              "pitch": 69,
              "velocity": 85,
              "position": 6.508333333333334,
              "duration": 0.10416666666666667
            },
            {
              "pitch": 72,
              "velocity": 104,
              "position": 6.752083333333333,
              "duration": 0.40625
            },
            {
              "pitch": 72,
              "velocity": 82,
              "position": 7.258333333333334,
              "duration": 0.12291666666666666
            },
            {
              "pitch": 76,
              "velocity": 106,
              "position": 7.504166666666666,
              "duration": 0.47708333333333336
            },
            {
              "pitch": 72,
              "velocity": 104,
              "position": 9.5,
              "duration": 0.22708333333333333
            },
            {
              "pitch": 69,
              "velocity": 88,
              "position": 9.75,
              "duration": 0.16875
            },
            {
              "pitch": 72,
              "velocity": 104,
              "position": 10.00625,
              "duration": 0.6083333333333333
            },
            {
              "pitch": 72,
              "velocity": 104,
              "position": 11.497916666666667,
              "duration": 0.2375
            },
            {
              "pitch": 69,
              "velocity": 92,
              "position": 11.747916666666667,
              "duration": 0.16458333333333333
            },
            {
              "pitch": 72,
              "velocity": 106,
              "position": 12.004166666666666,
              "duration": 0.6583333333333333
            },
            {
              "pitch": 72,
              "velocity": 95,
              "position": 13.495833333333334,
              "duration": 0.20625
            },
            {
              "pitch": 69,
              "velocity": 92,
              "position": 13.745833333333334,
              "duration": 0.16041666666666668
            },
            {
              "pitch": 72,
              "velocity": 101,
              "position": 14.00625,
              "duration": 0.35833333333333334
            },
            {
              "pitch": 69,
              "velocity": 85,
              "position": 14.508333333333333,
              "duration": 0.10416666666666667
            },
            {
              "pitch": 72,
              "velocity": 104,
              "position": 14.752083333333333,
              "duration": 0.40625
            },
            {
              "pitch": 72,
              "velocity": 82,
              "position": 15.258333333333333,
              "duration": 0.12291666666666666
            },
            {
              "pitch": 76,
              "velocity": 106,
              "position": 15.504166666666666,
              "duration": 0.47708333333333336
            },
            {
              "pitch": 72,
              "velocity": 104,
              "position": 16.00625,
              "duration": 3.9854166666666666
            }
          ]
        },
        "15": {
          "ctab": {
            "srcChannel": 15,
            "name": "overdr",
            "accType": "PHRASE2",
            "editable": false,
            "mutedNotes": [],
            "mutedChords": [],
            "autoStart": false,
            "sourceChordNote": 0,
            "sourceChordType": "Maj7",
            "ctb2Low": null,
            "ctb2Main": {
              "ntr": "ROOT_TRANSPOSITION",
              "ntt": "BYPASS",
              "bassOn": false,
              "chordRootUpperLimit": 4,
              "noteLowLimit": 0,
              "noteHighLimit": 127,
              "rtr": "PITCH_SHIFT"
            },
            "ctb2High": null
          },
          "notes": [
            {
              "pitch": 48,
              "velocity": 95,
              "position": 16.002083333333335,
              "duration": 3.9895833333333335
            },
            {
              "pitch": 55,
              "velocity": 81,
              "position": 16.0125,
              "duration": 3.9791666666666665
            }
          ]
        }
      }
    },
    "Ending_C": {
      "type": "Ending_C",
      "sizeInBeats": 20,
      "channels": {
        "8": {
          "ctab": {
            "srcChannel": 8,
            "name": "add-drum",
            "accType": "SUBRHYTHM",
            "editable": false,
            "mutedNotes": [],
            "mutedChords": [],
            "autoStart": true,
            "sourceChordNote": 0,
            "sourceChordType": "Maj7",
            "ctb2Low": null,
            "ctb2Main": {
              "ntr": "ROOT_FIXED",
              "ntt": "BYPASS",
              "bassOn": false,
              "chordRootUpperLimit": 6,
              "noteLowLimit": 0,
              "noteHighLimit": 127,
              "rtr": "PITCH_SHIFT"
            },
            "ctb2High": null
          },
          "notes": [
            {
              "pitch": 54,
              "velocity": 70,
              "position": 0.00625,
              "duration": 0.010416666666666666
            }
          ]
        },
        "9": {
          "ctab": {
            "srcChannel": 9,
            "name": "main-dru",
            "accType": "RHYTHM",
            "editable": false,
            "mutedNotes": [],
            "mutedChords": [],
            "autoStart": true,
            "sourceChordNote": 0,
            "sourceChordType": "Maj7",
            "ctb2Low": null,
            "ctb2Main": {
              "ntr": "ROOT_FIXED",
              "ntt": "BYPASS",
              "bassOn": false,
              "chordRootUpperLimit": 6,
              "noteLowLimit": 0,
              "noteHighLimit": 127,
              "rtr": "PITCH_SHIFT"
            },
            "ctb2High": null
          },
          "notes": [
            {
              "pitch": 36,
              "velocity": 106,
              "position": 0,
              "duration": 0.010416666666666666
            },
            {
              "pitch": 44,
              "velocity": 71,
              "position": 0,
              "duration": 0.010416666666666666
            },
            {
              "pitch": 49,
              "velocity": 63,
              "position": 0,
              "duration": 0.010416666666666666
            }
          ]
        },
        "10": {
          "ctab": {
            "srcChannel": 10,
            "name": "Bass",
            "accType": "BASS",
            "editable": false,
            "mutedNotes": [],
            "mutedChords": [],
            "autoStart": false,
            "sourceChordNote": 0,
            "sourceChordType": "Maj7",
            "ctb2Low": null,
            "ctb2Main": {
              "ntr": "ROOT_TRANSPOSITION",
              "ntt": "BYPASS",
              "bassOn": false,
              "chordRootUpperLimit": 3,
              "noteLowLimit": 28,
              "noteHighLimit": 127,
              "rtr": "PITCH_SHIFT"
            },
            "ctb2High": null
          },
          "notes": [
            {
              "pitch": 24,
              "velocity": 60,
              "position": 0.0020833333333333333,
              "duration": 7.46875
            },
            {
              "pitch": 19,
              "velocity": 60,
              "position": 7.495833333333334,
              "duration": 0.48541666666666666
            },
            {
              "pitch": 24,
              "velocity": 60,
              "position": 8.002083333333333,
              "duration": 10.966666666666667
            }
          ]
        },
        "11": {
          "ctab": {
            "srcChannel": 11,
            "name": "piano",
            "accType": "CHORD1",
            "editable": false,
            "mutedNotes": [],
            "mutedChords": [],
            "autoStart": false,
            "sourceChordNote": 0,
            "sourceChordType": "Maj7",
            "ctb2Low": null,
            "ctb2Main": {
              "ntr": "ROOT_TRANSPOSITION",
              "ntt": "BYPASS",
              "bassOn": false,
              "chordRootUpperLimit": 6,
              "noteLowLimit": 53,
              "noteHighLimit": 64,
              "rtr": "PITCH_SHIFT"
            },
            "ctb2High": null
          },
          "notes": [
            {
              "pitch": 60,
              "velocity": 126,
              "position": 0,
              "duration": 1.3520833333333333
            },
            {
              "pitch": 64,
              "velocity": 127,
              "position": 0.01875,
              "duration": 1.3354166666666667
            },
            {
              "pitch": 67,
              "velocity": 116,
              "position": 0.029166666666666667,
              "duration": 1.325
            },
            {
              "pitch": 69,
              "velocity": 77,
              "position": 1.5395833333333333,
              "duration": 0.15416666666666667
            },
            {
              "pitch": 65,
              "velocity": 77,
              "position": 1.5208333333333333,
              "duration": 0.175
            },
            {
              "pitch": 60,
              "velocity": 81,
              "position": 1.5083333333333333,
              "duration": 0.20416666666666666
            },
            {
              "pitch": 60,
              "velocity": 80,
              "position": 1.7479166666666666,
              "duration": 0.22083333333333333
            },
            {
              "pitch": 65,
              "velocity": 76,
              "position": 1.7291666666666667,
              "duration": 0.24166666666666667
            },
            {
              "pitch": 69,
              "velocity": 77,
              "position": 1.725,
              "duration": 0.26666666666666666
            },
            {
              "pitch": 60,
              "velocity": 121,
              "position": 2.004166666666667,
              "duration": 1.3291666666666666
            },
            {
              "pitch": 65,
              "velocity": 127,
              "position": 2.0083333333333333,
              "duration": 1.325
            },
            {
              "pitch": 69,
              "velocity": 127,
              "position": 2.03125,
              "duration": 1.3041666666666667
            },
            {
              "pitch": 71,
              "velocity": 81,
              "position": 3.5375,
              "duration": 0.17291666666666666
            },
            {
              "pitch": 67,
              "velocity": 91,
              "position": 3.525,
              "duration": 0.1875
            },
            {
              "pitch": 62,
              "velocity": 89,
              "position": 3.5104166666666665,
              "duration": 0.21041666666666667
            },
            {
              "pitch": 62,
              "velocity": 80,
              "position": 3.75625,
              "duration": 0.21875
            },
            {
              "pitch": 67,
              "velocity": 69,
              "position": 3.745833333333333,
              "duration": 0.23541666666666666
            },
            {
              "pitch": 71,
              "velocity": 70,
              "position": 3.74375,
              "duration": 0.25625
            },
            {
              "pitch": 62,
              "velocity": 111,
              "position": 4.010416666666667,
              "duration": 0.20416666666666666
            },
            {
              "pitch": 67,
              "velocity": 125,
              "position": 4.01875,
              "duration": 0.19583333333333333
            },
            {
              "pitch": 71,
              "velocity": 121,
              "position": 4.0375,
              "duration": 0.17916666666666667
            },
            {
              "pitch": 65,
              "velocity": 87,
              "position": 4.516666666666667,
              "duration": 0.19791666666666666
            },
            {
              "pitch": 60,
              "velocity": 94,
              "position": 4.50625,
              "duration": 0.22708333333333333
            },
            {
              "pitch": 69,
              "velocity": 127,
              "position": 4.7375,
              "duration": 0.20625
            },
            {
              "pitch": 65,
              "velocity": 117,
              "position": 4.75,
              "duration": 0.19583333333333333
            },
            {
              "pitch": 60,
              "velocity": 127,
              "position": 4.76875,
              "duration": 0.17708333333333334
            },
            {
              "pitch": 60,
              "velocity": 50,
              "position": 5.26875,
              "duration": 0.21041666666666667
            },
            {
              "pitch": 64,
              "velocity": 47,
              "position": 5.25,
              "duration": 0.23958333333333334
            },
            {
              "pitch": 60,
              "velocity": 98,
              "position": 5.514583333333333,
              "duration": 0.47291666666666665
            },
            {
              "pitch": 64,
              "velocity": 89,
              "position": 5.527083333333334,
              "duration": 0.47291666666666665
            },
            {
              "pitch": 67,
              "velocity": 94,
              "position": 5.539583333333334,
              "duration": 0.475
            },
            {
              "pitch": 60,
              "velocity": 123,
              "position": 6.039583333333334,
              "duration": 1.35625
            },
            {
              "pitch": 64,
              "velocity": 120,
              "position": 6.052083333333333,
              "duration": 1.35625
            },
            {
              "pitch": 67,
              "velocity": 121,
              "position": 6.066666666666666,
              "duration": 1.3604166666666666
            },
            {
              "pitch": 67,
              "velocity": 77,
              "position": 7.539583333333334,
              "duration": 0.15416666666666667
            },
            {
              "pitch": 64,
              "velocity": 77,
              "position": 7.520833333333333,
              "duration": 0.175
            },
            {
              "pitch": 60,
              "velocity": 81,
              "position": 7.508333333333334,
              "duration": 0.20416666666666666
            },
            {
              "pitch": 60,
              "velocity": 80,
              "position": 7.747916666666667,
              "duration": 0.21666666666666667
            },
            {
              "pitch": 64,
              "velocity": 76,
              "position": 7.729166666666667,
              "duration": 0.2520833333333333
            },
            {
              "pitch": 67,
              "velocity": 77,
              "position": 7.725,
              "duration": 0.26458333333333334
            },
            {
              "pitch": 60,
              "velocity": 126,
              "position": 8,
              "duration": 1.3520833333333333
            },
            {
              "pitch": 64,
              "velocity": 127,
              "position": 8.01875,
              "duration": 1.3354166666666667
            },
            {
              "pitch": 67,
              "velocity": 116,
              "position": 8.029166666666667,
              "duration": 1.325
            },
            {
              "pitch": 69,
              "velocity": 77,
              "position": 9.539583333333333,
              "duration": 0.15416666666666667
            },
            {
              "pitch": 65,
              "velocity": 77,
              "position": 9.520833333333334,
              "duration": 0.175
            },
            {
              "pitch": 60,
              "velocity": 81,
              "position": 9.508333333333333,
              "duration": 0.20416666666666666
            },
            {
              "pitch": 60,
              "velocity": 80,
              "position": 9.747916666666667,
              "duration": 0.22083333333333333
            },
            {
              "pitch": 65,
              "velocity": 76,
              "position": 9.729166666666666,
              "duration": 0.24166666666666667
            },
            {
              "pitch": 69,
              "velocity": 77,
              "position": 9.725,
              "duration": 0.26666666666666666
            },
            {
              "pitch": 60,
              "velocity": 121,
              "position": 10.004166666666666,
              "duration": 1.3291666666666666
            },
            {
              "pitch": 65,
              "velocity": 127,
              "position": 10.008333333333333,
              "duration": 1.325
            },
            {
              "pitch": 69,
              "velocity": 127,
              "position": 10.03125,
              "duration": 1.3041666666666667
            },
            {
              "pitch": 71,
              "velocity": 81,
              "position": 11.5375,
              "duration": 0.17291666666666666
            },
            {
              "pitch": 67,
              "velocity": 91,
              "position": 11.525,
              "duration": 0.1875
            },
            {
              "pitch": 62,
              "velocity": 89,
              "position": 11.510416666666666,
              "duration": 0.21041666666666667
            },
            {
              "pitch": 62,
              "velocity": 80,
              "position": 11.75625,
              "duration": 0.21875
            },
            {
              "pitch": 67,
              "velocity": 69,
              "position": 11.745833333333334,
              "duration": 0.23541666666666666
            },
            {
              "pitch": 71,
              "velocity": 70,
              "position": 11.74375,
              "duration": 0.25625
            },
            {
              "pitch": 62,
              "velocity": 111,
              "position": 12.010416666666666,
              "duration": 0.20416666666666666
            },
            {
              "pitch": 67,
              "velocity": 125,
              "position": 12.01875,
              "duration": 0.19583333333333333
            },
            {
              "pitch": 71,
              "velocity": 121,
              "position": 12.0375,
              "duration": 0.17916666666666667
            },
            {
              "pitch": 65,
              "velocity": 87,
              "position": 12.516666666666667,
              "duration": 0.19791666666666666
            },
            {
              "pitch": 60,
              "velocity": 94,
              "position": 12.50625,
              "duration": 0.22708333333333333
            },
            {
              "pitch": 69,
              "velocity": 127,
              "position": 12.7375,
              "duration": 0.20625
            },
            {
              "pitch": 65,
              "velocity": 117,
              "position": 12.75,
              "duration": 0.19583333333333333
            },
            {
              "pitch": 60,
              "velocity": 127,
              "position": 12.76875,
              "duration": 0.17708333333333334
            },
            {
              "pitch": 60,
              "velocity": 50,
              "position": 13.26875,
              "duration": 0.21041666666666667
            },
            {
              "pitch": 64,
              "velocity": 47,
              "position": 13.25,
              "duration": 0.23958333333333334
            },
            {
              "pitch": 60,
              "velocity": 98,
              "position": 13.514583333333333,
              "duration": 0.47291666666666665
            },
            {
              "pitch": 64,
              "velocity": 89,
              "position": 13.527083333333334,
              "duration": 0.47291666666666665
            },
            {
              "pitch": 67,
              "velocity": 94,
              "position": 13.539583333333333,
              "duration": 0.475
            },
            {
              "pitch": 60,
              "velocity": 123,
              "position": 14.039583333333333,
              "duration": 5.764583333333333
            },
            {
              "pitch": 64,
              "velocity": 120,
              "position": 14.052083333333334,
              "duration": 5.754166666666666
            },
            {
              "pitch": 67,
              "velocity": 121,
              "position": 14.066666666666666,
              "duration": 5.739583333333333
            }
          ]
        },
        "12": {
          "ctab": {
            "srcChannel": 12,
            "name": "mutedgtr",
            "accType": "CHORD2",
            "editable": false,
            "mutedNotes": [],
            "mutedChords": [],
            "autoStart": false,
            "sourceChordNote": 0,
            "sourceChordType": "Maj7",
            "ctb2Low": null,
            "ctb2Main": {
              "ntr": "ROOT_TRANSPOSITION",
              "ntt": "BYPASS",
              "bassOn": false,
              "chordRootUpperLimit": 6,
              "noteLowLimit": 55,
              "noteHighLimit": 66,
              "rtr": "PITCH_SHIFT"
            },
            "ctb2High": null
          },
          "notes": [
            {
              "pitch": 55,
              "velocity": 87,
              "position": 0.0020833333333333333,
              "duration": 7.945833333333334
            },
            {
              "pitch": 60,
              "velocity": 107,
              "position": 0.01875,
              "duration": 7.945833333333334
            },
            {
              "pitch": 64,
              "velocity": 110,
              "position": 0.04375,
              "duration": 7.945833333333334
            },
            {
              "pitch": 55,
              "velocity": 89,
              "position": 7.964583333333334,
              "duration": 10.535416666666666
            },
            {
              "pitch": 60,
              "velocity": 107,
              "position": 7.9875,
              "duration": 10.5125
            },
            {
              "pitch": 64,
              "velocity": 113,
              "position": 8.010416666666666,
              "duration": 10.489583333333334
            }
          ]
        },
        "13": {
          "ctab": {
            "srcChannel": 13,
            "name": "gtr",
            "accType": "PAD",
            "editable": false,
            "mutedNotes": [],
            "mutedChords": [],
            "autoStart": false,
            "sourceChordNote": 0,
            "sourceChordType": "Maj7",
            "ctb2Low": null,
            "ctb2Main": {
              "ntr": "ROOT_TRANSPOSITION",
              "ntt": "BYPASS",
              "bassOn": false,
              "chordRootUpperLimit": 6,
              "noteLowLimit": 54,
              "noteHighLimit": 65,
              "rtr": "PITCH_SHIFT"
            },
            "ctb2High": null
          },
          "notes": [
            {
              "pitch": 55,
              "velocity": 94,
              "position": 0,
              "duration": 1.375
            },
            {
              "pitch": 60,
              "velocity": 94,
              "position": 0,
              "duration": 1.375
            },
            {
              "pitch": 64,
              "velocity": 94,
              "position": 0,
              "duration": 1.375
            },
            {
              "pitch": 57,
              "velocity": 94,
              "position": 1.5,
              "duration": 1.8729166666666666
            },
            {
              "pitch": 60,
              "velocity": 94,
              "position": 1.5,
              "duration": 1.8729166666666666
            },
            {
              "pitch": 65,
              "velocity": 94,
              "position": 1.5,
              "duration": 1.8729166666666666
            },
            {
              "pitch": 59,
              "velocity": 94,
              "position": 3.5,
              "duration": 1.1229166666666666
            },
            {
              "pitch": 62,
              "velocity": 94,
              "position": 3.5,
              "duration": 1.1229166666666666
            },
            {
              "pitch": 67,
              "velocity": 94,
              "position": 3.5,
              "duration": 1.1229166666666666
            },
            {
              "pitch": 60,
              "velocity": 94,
              "position": 4.75,
              "duration": 0.625
            },
            {
              "pitch": 65,
              "velocity": 94,
              "position": 4.75,
              "duration": 0.625
            },
            {
              "pitch": 57,
              "velocity": 94,
              "position": 4.75,
              "duration": 0.6270833333333333
            },
            {
              "pitch": 60,
              "velocity": 94,
              "position": 5.5,
              "duration": 3.872916666666667
            },
            {
              "pitch": 64,
              "velocity": 94,
              "position": 5.5,
              "duration": 3.872916666666667
            },
            {
              "pitch": 55,
              "velocity": 94,
              "position": 5.5,
              "duration": 3.875
            },
            {
              "pitch": 57,
              "velocity": 94,
              "position": 9.5,
              "duration": 1.8729166666666666
            },
            {
              "pitch": 60,
              "velocity": 94,
              "position": 9.5,
              "duration": 1.8729166666666666
            },
            {
              "pitch": 65,
              "velocity": 94,
              "position": 9.5,
              "duration": 1.8729166666666666
            },
            {
              "pitch": 59,
              "velocity": 94,
              "position": 11.5,
              "duration": 1.1229166666666666
            },
            {
              "pitch": 62,
              "velocity": 94,
              "position": 11.5,
              "duration": 1.1229166666666666
            },
            {
              "pitch": 67,
              "velocity": 94,
              "position": 11.5,
              "duration": 1.1229166666666666
            },
            {
              "pitch": 57,
              "velocity": 94,
              "position": 12.75,
              "duration": 0.6166666666666667
            },
            {
              "pitch": 65,
              "velocity": 94,
              "position": 12.75,
              "duration": 0.6166666666666667
            },
            {
              "pitch": 60,
              "velocity": 94,
              "position": 12.75,
              "duration": 0.61875
            },
            {
              "pitch": 60,
              "velocity": 94,
              "position": 13.5,
              "duration": 4.583333333333333
            },
            {
              "pitch": 64,
              "velocity": 94,
              "position": 13.5,
              "duration": 4.583333333333333
            },
            {
              "pitch": 55,
              "velocity": 94,
              "position": 13.5,
              "duration": 4.585416666666666
            }
          ]
        },
        "14": {
          "ctab": {
            "srcChannel": 14,
            "name": "dist",
            "accType": "PHRASE1",
            "editable": false,
            "mutedNotes": [],
            "mutedChords": [],
            "autoStart": false,
            "sourceChordNote": 0,
            "sourceChordType": "Maj7",
            "ctb2Low": null,
            "ctb2Main": {
              "ntr": "ROOT_TRANSPOSITION",
              "ntt": "BYPASS",
              "bassOn": false,
              "chordRootUpperLimit": 6,
              "noteLowLimit": 64,
              "noteHighLimit": 75,
              "rtr": "PITCH_SHIFT"
            },
            "ctb2High": null
          },
          "notes": []
        },
        "15": {
          "ctab": {
            "srcChannel": 15,
            "name": "overdr",
            "accType": "PHRASE2",
            "editable": false,
            "mutedNotes": [],
            "mutedChords": [],
            "autoStart": false,
            "sourceChordNote": 0,
            "sourceChordType": "Maj7",
            "ctb2Low": null,
            "ctb2Main": {
              "ntr": "ROOT_TRANSPOSITION",
              "ntt": "BYPASS",
              "bassOn": false,
              "chordRootUpperLimit": 4,
              "noteLowLimit": 0,
              "noteHighLimit": 127,
              "rtr": "PITCH_SHIFT"
            },
            "ctb2High": null
          },
          "notes": [
            {
              "pitch": 55,
              "velocity": 78,
              "position": 0,
              "duration": 4.7
            },
            {
              "pitch": 48,
              "velocity": 99,
              "position": 0,
              "duration": 4.702083333333333
            }
          ]
        }
      }
    }
  }
}