{
  "name": "PowerRock.S326.STY",
  "tempo": 112,
  "timeSignature": "4/4",
  "ticksPerQuarter": 1920,
  "sffType": "SFF1",
  "division": "BINARY",
  "parts": {
    "Main_A": {
      "type": "Main_A",
      "sizeInBeats": 16,
      "channels": {
        "1": {
          "ctab": {
            "srcChannel": 1,
            "name": "Bass B",
            "accType": "BASS",
            "editable": false,
            "mutedNotes": [],
            "mutedChords": [
              "1+2+5",
              "1+5",
              "1+8",
              "7(#9)",
              "7(b13)",
              "7(b9)",
              "7(13)",
              "7#11",
              "7(9)",
              "7b5",
              "7sus4",
              "7th",
              "dim7",
              "min7(11)",
              "min7(9)",
              "m7b5",
              "min7",
              "min6",
              "Maj6(9)",
              "Maj7(9)",
              "Maj(9)",
              "Maj7#11",
              "Maj7",
              "Maj6",
              "Maj"
            ],
            "autoStart": false,
            "sourceChordNote": 0,
            "sourceChordType": "Maj7",
            "ctb2Low": null,
            "ctb2Main": {
              "ntr": "ROOT_TRANSPOSITION",
              "ntt": "MELODY",
              "bassOn": true,
              "chordRootUpperLimit": 8,
              "noteLowLimit": 28,
              "noteHighLimit": 127,
              "rtr": "PITCH_SHIFT_TO_ROOT"
            },
            "ctb2High": null
          },
          "notes": [
            {
              "pitch": 24,
              "velocity": 80,
              "position": 0,
              "duration": 0.4895833333333333
            },
            {
              "pitch": 24,
              "velocity": 80,
              "position": 1,
              "duration": 0.4895833333333333
            },
            {
              "pitch": 24,
              "velocity": 80,
              "position": 2,
              "duration": 0.4895833333333333
            },
            {
              "pitch": 24,
              "velocity": 80,
              "position": 3,
              "duration": 0.4895833333333333
            },
            {
              "pitch": 24,
              "velocity": 80,
              "position": 4,
              "duration": 0.4895833333333333
            },
            {
              "pitch": 24,
              "velocity": 80,
              "position": 5,
              "duration": 0.4895833333333333
            },
            {
              "pitch": 24,
              "velocity": 80,
              "position": 6,
              "duration": 0.4895833333333333
            },
            {
              "pitch": 24,
              "velocity": 80,
              "position": 7,
              "duration": 0.4895833333333333
            },
            {
              "pitch": 24,
              "velocity": 80,
              "position": 8,
              "duration": 0.4895833333333333
            },
            {
              "pitch": 24,
              "velocity": 80,
              "position": 9,
              "duration": 0.4895833333333333
            },
            {
              "pitch": 24,
              "velocity": 80,
              "position": 10,
              "duration": 0.4895833333333333
            },
            {
              "pitch": 24,
              "velocity": 80,
              "position": 11,
              "duration": 0.4895833333333333
            },
            {
              "pitch": 24,
              "velocity": 80,
              "position": 12,
              "duration": 0.4895833333333333
            },
            {
              "pitch": 24,
              "velocity": 80,
              "position": 13,
              "duration": 0.4895833333333333
            },
            {
              "pitch": 24,
              "velocity": 80,
              "position": 14,
              "duration": 0.4895833333333333
            },
            {
              "pitch": 24,
              "velocity": 80,
              "position": 15,
              "duration": 0.4895833333333333
            }
          ]
        },
        "4": {
          "ctab": {
            "srcChannel": 4,
            "name": "Organ rt",
            "accType": "PAD",
            "editable": false,
            "mutedNotes": [],
            "mutedChords": [
              "1+2+5",
              "sus4",
              "1+5",
              "1+8",
              "Maj7aug",
              "dim",
              "minMaj7(9)",
              "minMaj7",
              "min6",
              "min",
              "aug",
              "Maj7(9)",
              "Maj7#11",
              "Maj7",
              "Maj6",
              "Maj"
            ],
            "autoStart": false,
            "sourceChordNote": 0,
            "sourceChordType": "Maj7",
            "ctb2Low": null,
            "ctb2Main": {
              "ntr": "ROOT_TRANSPOSITION",
              "ntt": "CHORD",
              "bassOn": false,
              "chordRootUpperLimit": 6,
              "noteLowLimit": 0,
              "noteHighLimit": 127,
              "rtr": "PITCH_SHIFT"
            },
            "ctb2High": null
          },
          "notes": []
        },
        "9": {
          "ctab": {
            "srcChannel": 9,
            "name": "MainDrum",
            "accType": "RHYTHM",
            "editable": false,
            "mutedNotes": [],
            "mutedChords": [],
            "autoStart": true,
            "sourceChordNote": 0,
            "sourceChordType": "Maj7",
            "ctb2Low": null,
            "ctb2Main": {
              "ntr": "ROOT_FIXED",
              "ntt": "BYPASS",
              "bassOn": false,
              "chordRootUpperLimit": 6,
              "noteLowLimit": 0,
              "noteHighLimit": 127,
              "rtr": "PITCH_SHIFT"
            },
            "ctb2High": null
          },
          "notes": [
            {
              "pitch": 36,
              "velocity": 100,
              "position": 0,
              "duration": 0.004166666666666667
            },
            {
              "pitch": 42,
              "velocity": 111,
              "position": 0,
              "duration": 0.004166666666666667
            },
            {
              "pitch": 42,
              "velocity": 36,
              "position": 0.5,
              "duration": 0.004166666666666667
            },
            {
              "pitch": 36,
              "velocity": 100,
              "position": 1,
              "duration": 0.004166666666666667
            },
            {
              "pitch": 42,
              "velocity": 117,
              "position": 1,
              "duration": 0.004166666666666667
            },
            {
              "pitch": 38,
              "velocity": 101,
              "position": 1,
              "duration": 0.004166666666666667
            },
            {
              "pitch": 42,
              "velocity": 25,
              "position": 1.5,
              "duration": 0.004166666666666667
            },
            {
              "pitch": 36,
              "velocity": 100,
              "position": 2,
              "duration": 0.004166666666666667
            },
            {
              "pitch": 42,
              "velocity": 126,
              "position": 2,
              "duration": 0.004166666666666667
            },
            {
              "pitch": 42,
              "velocity": 31,
              "position": 2.5,
              "duration": 0.004166666666666667
            },
            {
              "pitch": 36,
              "velocity": 100,
              "position": 3,
              "duration": 0.004166666666666667
            },
            {
              "pitch": 42,
              "velocity": 120,
              "position": 3,
              "duration": 0.004166666666666667
            },
            {
              "pitch": 38,
              "velocity": 101,
              "position": 3,
              "duration": 0.004166666666666667
            },
            {
              "pitch": 42,
              "velocity": 30,
              "position": 3.5,
              "duration": 0.004166666666666667
            },
            {
              "pitch": 36,
              "velocity": 100,
              "position": 4,
              "duration": 0.004166666666666667
            },
            {
              "pitch": 42,
              "velocity": 114,
              "position": 4,
              "duration": 0.004166666666666667
            },
            {
              "pitch": 42,
              "velocity": 29,
              "position": 4.5,
              "duration": 0.004166666666666667
            },
            {
              "pitch": 36,
              "velocity": 100,
              "position": 5,
              "duration": 0.004166666666666667
            },
            {
              "pitch": 42,
              "velocity": 127,
              "position": 5,
              "duration": 0.004166666666666667
            },
            {
              "pitch": 38,
              "velocity": 101,
              "position": 5,
              "duration": 0.004166666666666667
            },
            {
              "pitch": 42,
              "velocity": 22,
              "position": 5.5,
              "duration": 0.004166666666666667
            },
            {
              "pitch": 36,
              "velocity": 100,
              "position": 6,
              "duration": 0.004166666666666667
            },
            {
              "pitch": 42,
              "velocity": 120,
              "position": 6,
              "duration": 0.004166666666666667
            },
            {
              "pitch": 42,
              "velocity": 37,
              "position": 6.5,
              "duration": 0.004166666666666667
            },
            {
              "pitch": 36,
              "velocity": 100,
              "position": 7,
              "duration": 0.004166666666666667
            },
            {
              "pitch": 42,
              "velocity": 112,
              "position": 7,
              "duration": 0.004166666666666667
            },
            {
              "pitch": 38,
              "velocity": 101,
              "position": 7,
              "duration": 0.004166666666666667
            },
            {
              "pitch": 42,
              "velocity": 30,
              "position": 7.5,
              "duration": 0.004166666666666667
            },
            {
              "pitch": 36,
              "velocity": 100,
              "position": 8,
              "duration": 0.004166666666666667
            },
            {
              "pitch": 42,
              "velocity": 119,
              "position": 8,
              "duration": 0.004166666666666667
            },
            {
              "pitch": 42,
              "velocity": 30,
              "position": 8.5,
              "duration": 0.004166666666666667
            },
            {
              "pitch": 36,
              "velocity": 100,
              "position": 9,
              "duration": 0.004166666666666667
            },
            {
              "pitch": 42,
              "velocity": 120,
              "position": 9,
              "duration": 0.004166666666666667
            },
            {
              "pitch": 38,
              "velocity": 101,
              "position": 9,
              "duration": 0.004166666666666667
            },
            {
              "pitch": 42,
              "velocity": 27,
              "position": 9.5,
              "duration": 0.004166666666666667
            },
            {
              "pitch": 36,
              "velocity": 100,
              "position": 10,
              "duration": 0.004166666666666667
            },
            {
              "pitch": 42,
              "velocity": 117,
              "position": 10,
              "duration": 0.004166666666666667
            },
            {
              "pitch": 42,
              "velocity": 32,
              "position": 10.5,
              "duration": 0.004166666666666667
            },
            {
              "pitch": 36,
              "velocity": 100,
              "position": 11,
              "duration": 0.004166666666666667
            },
            {
              "pitch": 42,
              "velocity": 124,
              "position": 11,
              "duration": 0.004166666666666667
            },
            {
              "pitch": 38,
              "velocity": 101,
              "position": 11,
              "duration": 0.004166666666666667
            },
            {
              "pitch": 42,
              "velocity": 39,
              "position": 11.5,
              "duration": 0.004166666666666667
            },
            {
              "pitch": 36,
              "velocity": 100,
              "position": 12,
              "duration": 0.004166666666666667
            },
            {
              "pitch": 42,
              "velocity": 124,
              "position": 12,
              "duration": 0.004166666666666667
            },
            {
              "pitch": 42,
              "velocity": 38,
              "position": 12.5,
              "duration": 0.004166666666666667
            },
            {
              "pitch": 36,
              "velocity": 100,
              "position": 13,
              "duration": 0.004166666666666667
            },
            {
              "pitch": 42,
              "velocity": 115,
              "position": 13,
              "duration": 0.004166666666666667
            },
            {
              "pitch": 38,
              "velocity": 101,
              "position": 13,
              "duration": 0.004166666666666667
            },
            {
              "pitch": 42,
              "velocity": 21,
              "position": 13.5,
              "duration": 0.004166666666666667
            },
            {
              "pitch": 36,
              "velocity": 100,
              "position": 14,
              "duration": 0.004166666666666667
            },
            {
              "pitch": 42,
              "velocity": 120,
              "position": 14,
              "duration": 0.004166666666666667
            },
            {
              "pitch": 42,
              "velocity": 66,
              "position": 14.260416666666666,
              "duration": 0.004166666666666667
            },
            {
              "pitch": 42,
              "velocity": 42,
              "position": 14.5,
              "duration": 0.004166666666666667
            },
            {
              "pitch": 42,
              "velocity": 10,
              "position": 14.760416666666666,
              "duration": 0.004166666666666667
            },
            {
              "pitch": 36,
              "velocity": 100,
              "position": 15,
              "duration": 0.004166666666666667
            },
            {
              "pitch": 42,
              "velocity": 120,
              "position": 15,
              "duration": 0.004166666666666667
            },
            {
              "pitch": 38,
              "velocity": 101,
              "position": 15,
              "duration": 0.004166666666666667
            },
            {
              "pitch": 42,
              "velocity": 40,
              "position": 15.5,
              "duration": 0.004166666666666667
            }
          ]
        },
        "10": {
          "ctab": {
            "srcChannel": 10,
            "name": "Bass A",
            "accType": "BASS",
            "editable": false,
            "mutedNotes": [],
            "mutedChords": [
              "sus4",
              "7aug",
              "Maj7aug",
              "dim",
              "minMaj7(9)",
              "minMaj7",
              "min(9)",
              "min",
              "aug"
            ],
            "autoStart": false,
            "sourceChordNote": 0,
            "sourceChordType": "Maj7",
            "ctb2Low": null,
            "ctb2Main": {
              "ntr": "ROOT_TRANSPOSITION",
              "ntt": "MELODY",
              "bassOn": true,
              "chordRootUpperLimit": 8,
              "noteLowLimit": 28,
              "noteHighLimit": 127,
              "rtr": "PITCH_SHIFT_TO_ROOT"
            },
            "ctb2High": null
          },
          "notes": [
            {
              "pitch": 24,
              "velocity": 80,
              "position": 0,
              "duration": 0.4895833333333333
            },
            {
              "pitch": 24,
              "velocity": 80,
              "position": 1,
              "duration": 0.4895833333333333
            },
            {
              "pitch": 24,
              "velocity": 80,
              "position": 2,
              "duration": 0.4895833333333333
            },
            {
              "pitch": 24,
              "velocity": 80,
              "position": 3,
              "duration": 0.4895833333333333
            },
            {
              "pitch": 24,
              "velocity": 80,
              "position": 4,
              "duration": 0.4895833333333333
            },
            {
              "pitch": 24,
              "velocity": 80,
              "position": 5,
              "duration": 0.4895833333333333
            },
            {
              "pitch": 24,
              "velocity": 80,
              "position": 6,
              "duration": 0.4895833333333333
            },
            {
              "pitch": 24,
              "velocity": 80,
              "position": 7,
              "duration": 0.4895833333333333
            },
            {
              "pitch": 24,
              "velocity": 80,
              "position": 8,
              "duration": 0.4895833333333333
            },
            {
              "pitch": 24,
              "velocity": 80,
              "position": 9,
              "duration": 0.4895833333333333
            },
            {
              "pitch": 24,
              "velocity": 80,
              "position": 10,
              "duration": 0.4895833333333333
            },
            {
              "pitch": 24,
              "velocity": 80,
              "position": 11,
              "duration": 0.4895833333333333
            },
            {
              "pitch": 24,
              "velocity": 80,
              "position": 12,
              "duration": 0.4895833333333333
            },
            {
              "pitch": 24,
              "velocity": 80,
              "position": 13,
              "duration": 0.4895833333333333
            },
            {
              "pitch": 24,
              "velocity": 80,
              "position": 14,
              "duration": 0.4895833333333333
            },
            {
              "pitch": 24,
              "velocity": 80,
              "position": 15,
              "duration": 0.4895833333333333
            }
          ]
        },
        "11": {
          "ctab": {
            "srcChannel": 11,
            "name": "Tele",
            "accType": "CHORD1",
            "editable": false,
            "mutedNotes": [],
            "mutedChords": [],
            "autoStart": false,
            "sourceChordNote": 0,
            "sourceChordType": "Maj7",
            "ctb2Low": null,
            "ctb2Main": {
              "ntr": "ROOT_TRANSPOSITION",
              "ntt": "MELODY",
              "bassOn": true,
              "chordRootUpperLimit": 3,
              "noteLowLimit": 40,
              "noteHighLimit": 79,
              "rtr": "PITCH_SHIFT_TO_ROOT"
            },
            "ctb2High": null
          },
          "notes": [
            {
              "pitch": 48,
              "velocity": 84,
              "position": 0,
              "duration": 0.18333333333333332
            },
            {
              "pitch": 55,
              "velocity": 80,
              "position": 0.03125,
              "duration": 0.18333333333333332
            },
            {
              "pitch": 48,
              "velocity": 80,
              "position": 0.48333333333333334,
              "duration": 0.20625
            },
            {
              "pitch": 55,
              "velocity": 76,
              "position": 0.5145833333333333,
              "duration": 0.20625
            },
            {
              "pitch": 48,
              "velocity": 86,
              "position": 0.99375,
              "duration": 0.23125
            },
            {
              "pitch": 55,
              "velocity": 81,
              "position": 1.025,
              "duration": 0.23125
            },
            {
              "pitch": 48,
              "velocity": 83,
              "position": 1.5125,
              "duration": 0.19791666666666666
            },
            {
              "pitch": 55,
              "velocity": 79,
              "position": 1.54375,
              "duration": 0.19791666666666666
            },
            {
              "pitch": 48,
              "velocity": 85,
              "position": 2.00625,
              "duration": 0.19583333333333333
            },
            {
              "pitch": 55,
              "velocity": 80,
              "position": 2.0375,
              "duration": 0.19583333333333333
            },
            {
              "pitch": 48,
              "velocity": 83,
              "position": 2.4854166666666666,
              "duration": 0.18333333333333332
            },
            {
              "pitch": 55,
              "velocity": 79,
              "position": 2.5166666666666666,
              "duration": 0.18333333333333332
            },
            {
              "pitch": 48,
              "velocity": 86,
              "position": 2.98125,
              "duration": 0.22916666666666666
            },
            {
              "pitch": 55,
              "velocity": 81,
              "position": 3.0125,
              "duration": 0.22916666666666666
            },
            {
              "pitch": 48,
              "velocity": 81,
              "position": 3.497916666666667,
              "duration": 0.23333333333333334
            },
            {
              "pitch": 55,
              "velocity": 77,
              "position": 3.529166666666667,
              "duration": 0.23333333333333334
            },
            {
              "pitch": 48,
              "velocity": 88,
              "position": 4.014583333333333,
              "duration": 0.17291666666666666
            },
            {
              "pitch": 55,
              "velocity": 83,
              "position": 4.045833333333333,
              "duration": 0.17291666666666666
            },
            {
              "pitch": 48,
              "velocity": 81,
              "position": 4.514583333333333,
              "duration": 0.20833333333333334
            },
            {
              "pitch": 55,
              "velocity": 77,
              "position": 4.545833333333333,
              "duration": 0.20833333333333334
            },
            {
              "pitch": 48,
              "velocity": 87,
              "position": 4.989583333333333,
              "duration": 0.2
            },
            {
              "pitch": 55,
              "velocity": 82,
              "position": 5.020833333333333,
              "duration": 0.2
            },
            {
              "pitch": 48,
              "velocity": 80,
              "position": 5.502083333333333,
              "duration": 0.2125
            },
            {
              "pitch": 55,
              "velocity": 76,
              "position": 5.533333333333333,
              "duration": 0.2125
            },
            {
              "pitch": 48,
              "velocity": 87,
              "position": 6.004166666666666,
              "duration": 0.23333333333333334
            },
            {
              "pitch": 55,
              "velocity": 82,
              "position": 6.035416666666666,
              "duration": 0.23333333333333334
            },
            {
              "pitch": 48,
              "velocity": 79,
              "position": 6.48125,
              "duration": 0.1875
            },
            {
              "pitch": 55,
              "velocity": 76,
              "position": 6.5125,
              "duration": 0.1875
            },
            {
              "pitch": 48,
              "velocity": 84,
              "position": 6.989583333333333,
              "duration": 0.17916666666666667
            },
            {
              "pitch": 55,
              "velocity": 80,
              "position": 7.020833333333333,
              "duration": 0.17916666666666667
            },
            {
              "pitch": 48,
              "velocity": 81,
              "position": 7.491666666666666,
              "duration": 0.22083333333333333
            },
            {
              "pitch": 55,
              "velocity": 77,
              "position": 7.522916666666666,
              "duration": 0.22083333333333333
            },
            {
              "pitch": 48,
              "velocity": 84,
              "position": 8,
              "duration": 0.22916666666666666
            },
            {
              "pitch": 55,
              "velocity": 80,
              "position": 8.03125,
              "duration": 0.22916666666666666
            },
            {
              "pitch": 48,
              "velocity": 81,
              "position": 8.48125,
              "duration": 0.22291666666666668
            },
            {
              "pitch": 55,
              "velocity": 77,
              "position": 8.5125,
              "duration": 0.22291666666666668
            },
            {
              "pitch": 48,
              "velocity": 88,
              "position": 9.0125,
              "duration": 0.22916666666666666
            },
            {
              "pitch": 55,
              "velocity": 83,
              "position": 9.04375,
              "duration": 0.22916666666666666
            },
            {
              "pitch": 48,
              "velocity": 82,
              "position": 9.483333333333333,
              "duration": 0.17291666666666666
            },
            {
              "pitch": 55,
              "velocity": 78,
              "position": 9.514583333333333,
              "duration": 0.17291666666666666
            },
            {
              "pitch": 48,
              "velocity": 86,
              "position": 9.995833333333334,
              "duration": 0.23125
            },
            {
              "pitch": 55,
              "velocity": 81,
              "position": 10.027083333333334,
              "duration": 0.23125
            },
            {
              "pitch": 48,
              "velocity": 80,
              "position": 10.5125,
              "duration": 0.20208333333333334
            },
            {
              "pitch": 55,
              "velocity": 76,
              "position": 10.54375,
              "duration": 0.20208333333333334
            },
            {
              "pitch": 48,
              "velocity": 85,
              "position": 10.983333333333333,
              "duration": 0.19166666666666668
            },
            {
              "pitch": 55,
              "velocity": 80,
              "position": 11.014583333333333,
              "duration": 0.19166666666666668
            },
            {
              "pitch": 48,
              "velocity": 83,
              "position": 11.5,
              "duration": 0.18541666666666667
            },
            {
              "pitch": 55,
              "velocity": 79,
              "position": 11.53125,
              "duration": 0.18541666666666667
            },
            {
              "pitch": 48,
              "velocity": 86,
              "position": 11.983333333333333,
              "duration": 0.21666666666666667
            },
            {
              "pitch": 55,
              "velocity": 81,
              "position": 12.014583333333333,
              "duration": 0.21666666666666667
            },
            {
              "pitch": 48,
              "velocity": 79,
              "position": 12.495833333333334,
              "duration": 0.24791666666666667
            },
            {
              "pitch": 55,
              "velocity": 76,
              "position": 12.527083333333334,
              "duration": 0.24791666666666667
            },
            {
              "pitch": 48,
              "velocity": 86,
              "position": 13.010416666666666,
              "duration": 0.18541666666666667
            },
            {
              "pitch": 55,
              "velocity": 81,
              "position": 13.041666666666666,
              "duration": 0.18541666666666667
            },
            {
              "pitch": 48,
              "velocity": 81,
              "position": 13.48125,
              "duration": 0.22916666666666666
            },
            {
              "pitch": 55,
              "velocity": 77,
              "position": 13.5125,
              "duration": 0.22916666666666666
            },
            {
              "pitch": 48,
              "velocity": 88,
              "position": 13.995833333333334,
              "duration": 0.17291666666666666
            },
            {
              "pitch": 55,
              "velocity": 83,
              "position": 14.027083333333334,
              "duration": 0.17291666666666666
            },
            {
              "pitch": 48,
              "velocity": 81,
              "position": 14.485416666666667,
              "duration": 0.21875
            },
            {
              "pitch": 55,
              "velocity": 77,
              "position": 14.516666666666667,
              "duration": 0.21875
            },
            {
              "pitch": 48,
              "velocity": 84,
              "position": 14.9875,
              "duration": 0.24791666666666667
            },
            {
              "pitch": 55,
              "velocity": 80,
              "position": 15.01875,
              "duration": 0.24791666666666667
            },
            {
              "pitch": 48,
              "velocity": 81,
              "position": 15.504166666666666,
              "duration": 0.225
            },
            {
              "pitch": 55,
              "velocity": 77,
              "position": 15.535416666666666,
              "duration": 0.225
            }
          ]
        },
        "12": {
          "ctab": {
            "srcChannel": 12,
            "name": "Solid",
            "accType": "CHORD2",
            "editable": false,
            "mutedNotes": [],
            "mutedChords": [],
            "autoStart": false,
            "sourceChordNote": 0,
            "sourceChordType": "Maj7",
            "ctb2Low": null,
            "ctb2Main": {
              "ntr": "ROOT_TRANSPOSITION",
              "ntt": "MELODY",
              "bassOn": true,
              "chordRootUpperLimit": 3,
              "noteLowLimit": 40,
              "noteHighLimit": 79,
              "rtr": "PITCH_SHIFT_TO_ROOT"
            },
            "ctb2High": null
          },
          "notes": [
            {
              "pitch": 48,
              "velocity": 84,
              "position": 0,
              "duration": 0.18333333333333332
            },
            {
              "pitch": 55,
              "velocity": 80,
              "position": 0.03125,
              "duration": 0.18333333333333332
            },
            {
              "pitch": 48,
              "velocity": 80,
              "position": 0.48333333333333334,
              "duration": 0.20625
            },
            {
              "pitch": 55,
              "velocity": 76,
              "position": 0.5145833333333333,
              "duration": 0.20625
            },
            {
              "pitch": 48,
              "velocity": 86,
              "position": 0.99375,
              "duration": 0.23125
            },
            {
              "pitch": 55,
              "velocity": 81,
              "position": 1.025,
              "duration": 0.23125
            },
            {
              "pitch": 48,
              "velocity": 83,
              "position": 1.5125,
              "duration": 0.19791666666666666
            },
            {
              "pitch": 55,
              "velocity": 79,
              "position": 1.54375,
              "duration": 0.19791666666666666
            },
            {
              "pitch": 48,
              "velocity": 85,
              "position": 2.00625,
              "duration": 0.19583333333333333
            },
            {
              "pitch": 55,
              "velocity": 80,
              "position": 2.0375,
              "duration": 0.19583333333333333
            },
            {
              "pitch": 48,
              "velocity": 83,
              "position": 2.4854166666666666,
              "duration": 0.18333333333333332
            },
            {
              "pitch": 55,
              "velocity": 79,
              "position": 2.5166666666666666,
              "duration": 0.18333333333333332
            },
            {
              "pitch": 48,
              "velocity": 86,
              "position": 2.98125,
              "duration": 0.22916666666666666
            },
            {
              "pitch": 55,
              "velocity": 81,
              "position": 3.0125,
              "duration": 0.22916666666666666
            },
            {
              "pitch": 48,
              "velocity": 81,
              "position": 3.497916666666667,
              "duration": 0.23333333333333334
            },
            {
              "pitch": 55,
              "velocity": 77,
              "position": 3.529166666666667,
              "duration": 0.23333333333333334
            },
            {
              "pitch": 48,
              "velocity": 88,
              "position": 4.014583333333333,
              "duration": 0.17291666666666666
            },
            {
              "pitch": 55,
              "velocity": 83,
              "position": 4.045833333333333,
              "duration": 0.17291666666666666
            },
            {
              "pitch": 48,
              "velocity": 81,
              "position": 4.514583333333333,
              "duration": 0.20833333333333334
            },
            {
              "pitch": 55,
              "velocity": 77,
              "position": 4.545833333333333,
              "duration": 0.20833333333333334
            },
            {
              "pitch": 48,
              "velocity": 87,
              "position": 4.989583333333333,
              "duration": 0.2
            },
            {
              "pitch": 55,
              "velocity": 82,
              "position": 5.020833333333333,
              "duration": 0.2
            },
            {
              "pitch": 48,
              "velocity": 80,
              "position": 5.502083333333333,
              "duration": 0.2125
            },
            {
              "pitch": 55,
              "velocity": 76,
              "position": 5.533333333333333,
              "duration": 0.2125
            },
            {
              "pitch": 48,
              "velocity": 87,
              "position": 6.004166666666666,
              "duration": 0.23333333333333334
            },
            {
              "pitch": 55,
              "velocity": 82,
              "position": 6.035416666666666,
              "duration": 0.23333333333333334
            },
            {
              "pitch": 48,
              "velocity": 79,
              "position": 6.48125,
              "duration": 0.1875
            },
            {
              "pitch": 55,
              "velocity": 76,
              "position": 6.5125,
              "duration": 0.1875
            },
            {
              "pitch": 48,
              "velocity": 84,
              "position": 6.989583333333333,
              "duration": 0.17916666666666667
            },
            {
              "pitch": 55,
              "velocity": 80,
              "position": 7.020833333333333,
              "duration": 0.17916666666666667
            },
            {
              "pitch": 48,
              "velocity": 81,
              "position": 7.491666666666666,
              "duration": 0.22083333333333333
            },
            {
              "pitch": 55,
              "velocity": 77,
              "position": 7.522916666666666,
              "duration": 0.22083333333333333
            },
            {
              "pitch": 48,
              "velocity": 84,
              "position": 8,
              "duration": 0.22916666666666666
            },
            {
              "pitch": 55,
              "velocity": 80,
              "position": 8.03125,
              "duration": 0.22916666666666666
            },
            {
              "pitch": 48,
              "velocity": 81,
              "position": 8.48125,
              "duration": 0.22291666666666668
            },
            {
              "pitch": 55,
              "velocity": 77,
              "position": 8.5125,
              "duration": 0.22291666666666668
            },
            {
              "pitch": 48,
              "velocity": 88,
              "position": 9.0125,
              "duration": 0.22916666666666666
            },
            {
              "pitch": 55,
              "velocity": 83,
              "position": 9.04375,
              "duration": 0.22916666666666666
            },
            {
              "pitch": 48,
              "velocity": 82,
              "position": 9.483333333333333,
              "duration": 0.17291666666666666
            },
            {
              "pitch": 55,
              "velocity": 78,
              "position": 9.514583333333333,
              "duration": 0.17291666666666666
            },
            {
              "pitch": 48,
              "velocity": 86,
              "position": 9.995833333333334,
              "duration": 0.23125
            },
            {
              "pitch": 55,
              "velocity": 81,
              "position": 10.027083333333334,
              "duration": 0.23125
            },
            {
              "pitch": 48,
              "velocity": 80,
              "position": 10.5125,
              "duration": 0.20208333333333334
            },
            {
              "pitch": 55,
              "velocity": 76,
              "position": 10.54375,
              "duration": 0.20208333333333334
            },
            {
              "pitch": 48,
              "velocity": 85,
              "position": 10.983333333333333,
              "duration": 0.19166666666666668
            },
            {
              "pitch": 55,
              "velocity": 80,
              "position": 11.014583333333333,
              "duration": 0.19166666666666668
            },
            {
              "pitch": 48,
              "velocity": 83,
              "position": 11.5,
              "duration": 0.18541666666666667
            },
            {
              "pitch": 55,
              "velocity": 79,
              "position": 11.53125,
              "duration": 0.18541666666666667
            },
            {
              "pitch": 48,
              "velocity": 86,
              "position": 11.983333333333333,
              "duration": 0.21666666666666667
            },
            {
              "pitch": 55,
              "velocity": 81,
              "position": 12.014583333333333,
              "duration": 0.21666666666666667
            },
            {
              "pitch": 48,
              "velocity": 79,
              "position": 12.495833333333334,
              "duration": 0.24791666666666667
            },
            {
              "pitch": 55,
              "velocity": 76,
              "position": 12.527083333333334,
              "duration": 0.24791666666666667
            },
            {
              "pitch": 48,
              "velocity": 86,
              "position": 13.010416666666666,
              "duration": 0.18541666666666667
            },
            {
              "pitch": 55,
              "velocity": 81,
              "position": 13.041666666666666,
              "duration": 0.18541666666666667
            },
            {
              "pitch": 48,
              "velocity": 81,
              "position": 13.48125,
              "duration": 0.22916666666666666
            },
            {
              "pitch": 55,
              "velocity": 77,
              "position": 13.5125,
              "duration": 0.22916666666666666
            },
            {
              "pitch": 48,
              "velocity": 88,
              "position": 13.995833333333334,
              "duration": 0.17291666666666666
            },
            {
              "pitch": 55,
              "velocity": 83,
              "position": 14.027083333333334,
              "duration": 0.17291666666666666
            },
            {
              "pitch": 48,
              "velocity": 81,
              "position": 14.485416666666667,
              "duration": 0.21875
            },
            {
              "pitch": 55,
              "velocity": 77,
              "position": 14.516666666666667,
              "duration": 0.21875
            },
            {
              "pitch": 48,
              "velocity": 84,
              "position": 14.9875,
              "duration": 0.24791666666666667
            },
            {
              "pitch": 55,
              "velocity": 80,
              "position": 15.01875,
              "duration": 0.24791666666666667
            },
            {
              "pitch": 48,
              "velocity": 81,
              "position": 15.504166666666666,
              "duration": 0.225
            },
            {
              "pitch": 55,
              "velocity": 77,
              "position": 15.535416666666666,
              "duration": 0.225
            }
          ]
        },
        "13": {
          "ctab": {
            "srcChannel": 13,
            "name": "Organ",
            "accType": "PAD",
            "editable": false,
            "mutedNotes": [],
            "mutedChords": [],
            "autoStart": false,
            "sourceChordNote": 0,
            "sourceChordType": "Maj7",
            "ctb2Low": null,
            "ctb2Main": {
              "ntr": "ROOT_FIXED",
              "ntt": "CHORD",
              "bassOn": false,
              "chordRootUpperLimit": 7,
              "noteLowLimit": 0,
              "noteHighLimit": 127,
              "rtr": "PITCH_SHIFT"
            },
            "ctb2High": null
          },
          "notes": []
        }
      }
    },
    "Main_B": {
      "type": "Main_B",
      "sizeInBeats": 16,
      "channels": {
        "1": {
          "ctab": {
            "srcChannel": 1,
            "name": "Bass B",
            "accType": "BASS",
            "editable": false,
            "mutedNotes": [],
            "mutedChords": [
              "1+2+5",
              "1+5",
              "1+8",
              "7(#9)",
              "7(b13)",
              "7(b9)",
              "7(13)",
              "7#11",
              "7(9)",
              "7b5",
              "7sus4",
              "7th",
              "dim7",
              "min7(11)",
              "min7(9)",
              "m7b5",
              "min7",
              "min6",
              "Maj6(9)",
              "Maj7(9)",
              "Maj(9)",
              "Maj7#11",
              "Maj7",
              "Maj6",
              "Maj"
            ],
            "autoStart": false,
            "sourceChordNote": 0,
            "sourceChordType": "Maj7",
            "ctb2Low": null,
            "ctb2Main": {
              "ntr": "ROOT_TRANSPOSITION",
              "ntt": "MELODY",
              "bassOn": true,
              "chordRootUpperLimit": 8,
              "noteLowLimit": 28,
              "noteHighLimit": 127,
              "rtr": "PITCH_SHIFT_TO_ROOT"
            },
            "ctb2High": null
          },
          "notes": [
            {
              "pitch": 24,
              "velocity": 80,
              "position": 0,
              "duration": 0.425
            },
            {
              "pitch": 24,
              "velocity": 75,
              "position": 0.5,
              "duration": 0.425
            },
            {
              "pitch": 24,
              "velocity": 80,
              "position": 1,
              "duration": 0.425
            },
            {
              "pitch": 24,
              "velocity": 75,
              "position": 1.5,
              "duration": 0.425
            },
            {
              "pitch": 24,
              "velocity": 80,
              "position": 2,
              "duration": 0.425
            },
            {
              "pitch": 24,
              "velocity": 75,
              "position": 2.5,
              "duration": 0.425
            },
            {
              "pitch": 24,
              "velocity": 80,
              "position": 3,
              "duration": 0.425
            },
            {
              "pitch": 24,
              "velocity": 75,
              "position": 3.5,
              "duration": 0.425
            },
            {
              "pitch": 24,
              "velocity": 80,
              "position": 4,
              "duration": 0.425
            },
            {
              "pitch": 24,
              "velocity": 75,
              "position": 4.5,
              "duration": 0.425
            },
            {
              "pitch": 24,
              "velocity": 80,
              "position": 5,
              "duration": 0.425
            },
            {
              "pitch": 24,
              "velocity": 75,
              "position": 5.5,
              "duration": 0.425
            },
            {
              "pitch": 24,
              "velocity": 80,
              "position": 6,
              "duration": 0.425
            },
            {
              "pitch": 24,
              "velocity": 75,
              "position": 6.5,
              "duration": 0.425
            },
            {
              "pitch": 24,
              "velocity": 80,
              "position": 7,
              "duration": 0.425
            },
            {
              "pitch": 24,
              "velocity": 75,
              "position": 7.5,
              "duration": 0.425
            },
            {
              "pitch": 24,
              "velocity": 80,
              "position": 8,
              "duration": 0.425
            },
            {
              "pitch": 24,
              "velocity": 75,
              "position": 8.5,
              "duration": 0.425
            },
            {
              "pitch": 24,
              "velocity": 80,
              "position": 9,
              "duration": 0.425
            },
            {
              "pitch": 24,
              "velocity": 75,
              "position": 9.5,
              "duration": 0.425
            },
            {
              "pitch": 24,
              "velocity": 80,
              "position": 10,
              "duration": 0.425
            },
            {
              "pitch": 24,
              "velocity": 75,
              "position": 10.5,
              "duration": 0.425
            },
            {
              "pitch": 24,
              "velocity": 80,
              "position": 11,
              "duration": 0.425
            },
            {
              "pitch": 24,
              "velocity": 75,
              "position": 11.5,
              "duration": 0.425
            },
            {
              "pitch": 24,
              "velocity": 80,
              "position": 12,
              "duration": 0.425
            },
            {
              "pitch": 24,
              "velocity": 75,
              "position": 12.5,
              "duration": 0.425
            },
            {
              "pitch": 24,
              "velocity": 80,
              "position": 13,
              "duration": 0.425
            },
            {
              "pitch": 24,
              "velocity": 75,
              "position": 13.5,
              "duration": 0.425
            },
            {
              "pitch": 24,
              "velocity": 80,
              "position": 14,
              "duration": 0.425
            },
            {
              "pitch": 24,
              "velocity": 75,
              "position": 14.5,
              "duration": 0.425
            },
            {
              "pitch": 24,
              "velocity": 80,
              "position": 15,
              "duration": 0.425
            },
            {
              "pitch": 24,
              "velocity": 75,
              "position": 15.5,
              "duration": 0.425
            }
          ]
        },
        "4": {
          "ctab": {
            "srcChannel": 4,
            "name": "Organ rt",
            "accType": "PAD",
            "editable": false,
            "mutedNotes": [],
            "mutedChords": [
              "1+2+5",
              "sus4",
              "1+5",
              "1+8",
              "Maj7aug",
              "dim",
              "minMaj7(9)",
              "minMaj7",
              "min6",
              "min",
              "aug",
              "Maj7(9)",
              "Maj7#11",
              "Maj7",
              "Maj6",
              "Maj"
            ],
            "autoStart": false,
            "sourceChordNote": 0,
            "sourceChordType": "Maj7",
            "ctb2Low": null,
            "ctb2Main": {
              "ntr": "ROOT_TRANSPOSITION",
              "ntt": "CHORD",
              "bassOn": false,
              "chordRootUpperLimit": 6,
              "noteLowLimit": 0,
              "noteHighLimit": 127,
              "rtr": "PITCH_SHIFT"
            },
            "ctb2High": null
          },
          "notes": [
            {
              "pitch": 60,
              "velocity": 60,
              "position": 0,
              "duration": 15.989583333333334
            }
          ]
        },
        "9": {
          "ctab": {
            "srcChannel": 9,
            "name": "MainDrum",
            "accType": "RHYTHM",
            "editable": false,
            "mutedNotes": [],
            "mutedChords": [],
            "autoStart": true,
            "sourceChordNote": 0,
            "sourceChordType": "Maj7",
            "ctb2Low": null,
            "ctb2Main": {
              "ntr": "ROOT_FIXED",
              "ntt": "BYPASS",
              "bassOn": false,
              "chordRootUpperLimit": 6,
              "noteLowLimit": 0,
              "noteHighLimit": 127,
              "rtr": "PITCH_SHIFT"
            },
            "ctb2High": null
          },
          "notes": [
            {
              "pitch": 36,
              "velocity": 100,
              "position": 0,
              "duration": 0.004166666666666667
            },
            {
              "pitch": 46,
              "velocity": 80,
              "position": 0,
              "duration": 0.004166666666666667
            },
            {
              "pitch": 36,
              "velocity": 100,
              "position": 1,
              "duration": 0.004166666666666667
            },
            {
              "pitch": 42,
              "velocity": 124,
              "position": 1,
              "duration": 0.004166666666666667
            },
            {
              "pitch": 38,
              "velocity": 116,
              "position": 1,
              "duration": 0.004166666666666667
            },
            {
              "pitch": 42,
              "velocity": 52,
              "position": 1.5,
              "duration": 0.004166666666666667
            },
            {
              "pitch": 36,
              "velocity": 100,
              "position": 2,
              "duration": 0.004166666666666667
            },
            {
              "pitch": 42,
              "velocity": 125,
              "position": 2,
              "duration": 0.004166666666666667
            },
            {
              "pitch": 42,
              "velocity": 58,
              "position": 2.5,
              "duration": 0.004166666666666667
            },
            {
              "pitch": 36,
              "velocity": 100,
              "position": 3,
              "duration": 0.004166666666666667
            },
            {
              "pitch": 42,
              "velocity": 114,
              "position": 3,
              "duration": 0.004166666666666667
            },
            {
              "pitch": 38,
              "velocity": 116,
              "position": 3,
              "duration": 0.004166666666666667
            },
            {
              "pitch": 42,
              "velocity": 61,
              "position": 3.5,
              "duration": 0.004166666666666667
            },
            {
              "pitch": 36,
              "velocity": 100,
              "position": 4,
              "duration": 0.004166666666666667
            },
            {
              "pitch": 46,
              "velocity": 80,
              "position": 4,
              "duration": 0.004166666666666667
            },
            {
              "pitch": 46,
              "velocity": 66,
              "position": 4.5,
              "duration": 0.004166666666666667
            },
            {
              "pitch": 36,
              "velocity": 100,
              "position": 5,
              "duration": 0.004166666666666667
            },
            {
              "pitch": 42,
              "velocity": 126,
              "position": 5,
              "duration": 0.004166666666666667
            },
            {
              "pitch": 38,
              "velocity": 116,
              "position": 5,
              "duration": 0.004166666666666667
            },
            {
              "pitch": 42,
              "velocity": 54,
              "position": 5.5,
              "duration": 0.004166666666666667
            },
            {
              "pitch": 36,
              "velocity": 100,
              "position": 6,
              "duration": 0.004166666666666667
            },
            {
              "pitch": 42,
              "velocity": 122,
              "position": 6,
              "duration": 0.004166666666666667
            },
            {
              "pitch": 42,
              "velocity": 45,
              "position": 6.5,
              "duration": 0.004166666666666667
            },
            {
              "pitch": 36,
              "velocity": 100,
              "position": 7,
              "duration": 0.004166666666666667
            },
            {
              "pitch": 42,
              "velocity": 121,
              "position": 7,
              "duration": 0.004166666666666667
            },
            {
              "pitch": 38,
              "velocity": 116,
              "position": 7,
              "duration": 0.004166666666666667
            },
            {
              "pitch": 42,
              "velocity": 36,
              "position": 7.5,
              "duration": 0.004166666666666667
            },
            {
              "pitch": 36,
              "velocity": 100,
              "position": 8,
              "duration": 0.004166666666666667
            },
            {
              "pitch": 46,
              "velocity": 80,
              "position": 8,
              "duration": 0.004166666666666667
            },
            {
              "pitch": 36,
              "velocity": 100,
              "position": 9,
              "duration": 0.004166666666666667
            },
            {
              "pitch": 42,
              "velocity": 122,
              "position": 9,
              "duration": 0.004166666666666667
            },
            {
              "pitch": 38,
              "velocity": 116,
              "position": 9,
              "duration": 0.004166666666666667
            },
            {
              "pitch": 42,
              "velocity": 49,
              "position": 9.5,
              "duration": 0.004166666666666667
            },
            {
              "pitch": 36,
              "velocity": 100,
              "position": 10,
              "duration": 0.004166666666666667
            },
            {
              "pitch": 42,
              "velocity": 122,
              "position": 10,
              "duration": 0.004166666666666667
            },
            {
              "pitch": 42,
              "velocity": 45,
              "position": 10.5,
              "duration": 0.004166666666666667
            },
            {
              "pitch": 36,
              "velocity": 100,
              "position": 11,
              "duration": 0.004166666666666667
            },
            {
              "pitch": 42,
              "velocity": 121,
              "position": 11,
              "duration": 0.004166666666666667
            },
            {
              "pitch": 38,
              "velocity": 116,
              "position": 11,
              "duration": 0.004166666666666667
            },
            {
              "pitch": 42,
              "velocity": 46,
              "position": 11.5,
              "duration": 0.004166666666666667
            },
            {
              "pitch": 36,
              "velocity": 100,
              "position": 12,
              "duration": 0.004166666666666667
            },
            {
              "pitch": 46,
              "velocity": 80,
              "position": 12,
              "duration": 0.004166666666666667
            },
            {
              "pitch": 46,
              "velocity": 66,
              "position": 12.5,
              "duration": 0.004166666666666667
            },
            {
              "pitch": 36,
              "velocity": 100,
              "position": 13,
              "duration": 0.004166666666666667
            },
            {
              "pitch": 42,
              "velocity": 119,
              "position": 13,
              "duration": 0.004166666666666667
            },
            {
              "pitch": 38,
              "velocity": 116,
              "position": 13,
              "duration": 0.004166666666666667
            },
            {
              "pitch": 42,
              "velocity": 61,
              "position": 13.5,
              "duration": 0.004166666666666667
            },
            {
              "pitch": 36,
              "velocity": 100,
              "position": 14,
              "duration": 0.004166666666666667
            },
            {
              "pitch": 42,
              "velocity": 112,
              "position": 14,
              "duration": 0.004166666666666667
            },
            {
              "pitch": 42,
              "velocity": 45,
              "position": 14.5,
              "duration": 0.004166666666666667
            },
            {
              "pitch": 36,
              "velocity": 100,
              "position": 15,
              "duration": 0.004166666666666667
            },
            {
              "pitch": 42,
              "velocity": 120,
              "position": 15,
              "duration": 0.004166666666666667
            },
            {
              "pitch": 38,
              "velocity": 116,
              "position": 15,
              "duration": 0.004166666666666667
            },
            {
              "pitch": 42,
              "velocity": 46,
              "position": 15.5,
              "duration": 0.004166666666666667
            }
          ]
        },
        "10": {
          "ctab": {
            "srcChannel": 10,
            "name": "Bass A",
            "accType": "BASS",
            "editable": false,
            "mutedNotes": [],
            "mutedChords": [
              "sus4",
              "7aug",
              "Maj7aug",
              "dim",
              "minMaj7(9)",
              "minMaj7",
              "min(9)",
              "min",
              "aug"
            ],
            "autoStart": false,
            "sourceChordNote": 0,
            "sourceChordType": "Maj7",
            "ctb2Low": null,
            "ctb2Main": {
              "ntr": "ROOT_TRANSPOSITION",
              "ntt": "MELODY",
              "bassOn": true,
              "chordRootUpperLimit": 8,
              "noteLowLimit": 28,
              "noteHighLimit": 127,
              "rtr": "PITCH_SHIFT_TO_ROOT"
            },
            "ctb2High": null
          },
          "notes": [
            {
              "pitch": 24,
              "velocity": 80,
              "position": 0,
              "duration": 0.4895833333333333
            },
            {
              "pitch": 24,
              "velocity": 75,
              "position": 0.5,
              "duration": 0.4895833333333333
            },
            {
              "pitch": 24,
              "velocity": 80,
              "position": 1,
              "duration": 0.4895833333333333
            },
            {
              "pitch": 24,
              "velocity": 75,
              "position": 1.5,
              "duration": 0.4895833333333333
            },
            {
              "pitch": 24,
              "velocity": 80,
              "position": 2,
              "duration": 0.4895833333333333
            },
            {
              "pitch": 24,
              "velocity": 75,
              "position": 2.5,
              "duration": 0.4895833333333333
            },
            {
              "pitch": 24,
              "velocity": 80,
              "position": 3,
              "duration": 0.4895833333333333
            },
            {
              "pitch": 24,
              "velocity": 75,
              "position": 3.5,
              "duration": 0.4895833333333333
            },
            {
              "pitch": 24,
              "velocity": 80,
              "position": 4,
              "duration": 0.4895833333333333
            },
            {
              "pitch": 24,
              "velocity": 75,
              "position": 4.5,
              "duration": 0.4895833333333333
            },
            {
              "pitch": 24,
              "velocity": 80,
              "position": 5,
              "duration": 0.4895833333333333
            },
            {
              "pitch": 24,
              "velocity": 75,
              "position": 5.5,
              "duration": 0.4895833333333333
            },
            {
              "pitch": 24,
              "velocity": 80,
              "position": 6,
              "duration": 0.4895833333333333
            },
            {
              "pitch": 24,
              "velocity": 75,
              "position": 6.5,
              "duration": 0.4895833333333333
            },
            {
              "pitch": 24,
              "velocity": 80,
              "position": 7,
              "duration": 0.4895833333333333
            },
            {
              "pitch": 24,
              "velocity": 75,
              "position": 7.5,
              "duration": 0.4895833333333333
            },
            {
              "pitch": 24,
              "velocity": 80,
              "position": 8,
              "duration": 0.4895833333333333
            },
            {
              "pitch": 24,
              "velocity": 75,
              "position": 8.5,
              "duration": 0.4895833333333333
            },
            {
              "pitch": 24,
              "velocity": 80,
              "position": 9,
              "duration": 0.4895833333333333
            },
            {
              "pitch": 24,
              "velocity": 75,
              "position": 9.5,
              "duration": 0.4895833333333333
            },
            {
              "pitch": 24,
              "velocity": 80,
              "position": 10,
              "duration": 0.4895833333333333
            },
            {
              "pitch": 24,
              "velocity": 75,
              "position": 10.5,
              "duration": 0.4895833333333333
            },
            {
              "pitch": 24,
              "velocity": 80,
              "position": 11,
              "duration": 0.4895833333333333
            },
            {
              "pitch": 24,
              "velocity": 75,
              "position": 11.5,
              "duration": 0.4895833333333333
            },
            {
              "pitch": 24,
              "velocity": 80,
              "position": 12,
              "duration": 0.4895833333333333
            },
            {
              "pitch": 24,
              "velocity": 75,
              "position": 12.5,
              "duration": 0.4895833333333333
            },
            {
              "pitch": 24,
              "velocity": 80,
              "position": 13,
              "duration": 0.4895833333333333
            },
            {
              "pitch": 24,
              "velocity": 75,
              "position": 13.5,
              "duration": 0.4895833333333333
            },
            {
              "pitch": 24,
              "velocity": 80,
              "position": 14,
              "duration": 0.4895833333333333
            },
            {
              "pitch": 24,
              "velocity": 75,
              "position": 14.5,
              "duration": 0.4895833333333333
            },
            {
              "pitch": 24,
              "velocity": 80,
              "position": 15,
              "duration": 0.4895833333333333
            },
            {
              "pitch": 24,
              "velocity": 75,
              "position": 15.5,
              "duration": 0.4895833333333333
            }
          ]
        },
        "11": {
          "ctab": {
            "srcChannel": 11,
            "name": "Tele",
            "accType": "CHORD1",
            "editable": false,
            "mutedNotes": [],
            "mutedChords": [],
            "autoStart": false,
            "sourceChordNote": 0,
            "sourceChordType": "Maj7",
            "ctb2Low": null,
            "ctb2Main": {
              "ntr": "ROOT_TRANSPOSITION",
              "ntt": "MELODY",
              "bassOn": true,
              "chordRootUpperLimit": 3,
              "noteLowLimit": 40,
              "noteHighLimit": 79,
              "rtr": "PITCH_SHIFT_TO_ROOT"
            },
            "ctb2High": null
          },
          "notes": [
            {
              "pitch": 55,
              "velocity": 15,
              "position": 0.03125,
              "duration": 0.44583333333333336
            },
            {
              "pitch": 48,
              "velocity": 21,
              "position": 0,
              "duration": 0.47708333333333336
            },
            {
              "pitch": 48,
              "velocity": 80,
              "position": 0.48541666666666666,
              "duration": 0.19166666666666668
            },
            {
              "pitch": 55,
              "velocity": 76,
              "position": 0.5166666666666667,
              "duration": 0.19166666666666668
            },
            {
              "pitch": 48,
              "velocity": 86,
              "position": 0.99375,
              "duration": 0.18333333333333332
            },
            {
              "pitch": 55,
              "velocity": 81,
              "position": 1.025,
              "duration": 0.18333333333333332
            },
            {
              "pitch": 48,
              "velocity": 21,
              "position": 1.5145833333333334,
              "duration": 0.4625
            },
            {
              "pitch": 55,
              "velocity": 15,
              "position": 1.5458333333333334,
              "duration": 0.43125
            },
            {
              "pitch": 48,
              "velocity": 85,
              "position": 1.9854166666666666,
              "duration": 0.24791666666666667
            },
            {
              "pitch": 55,
              "velocity": 80,
              "position": 2.0166666666666666,
              "duration": 0.24791666666666667
            },
            {
              "pitch": 48,
              "velocity": 80,
              "position": 2.5104166666666665,
              "duration": 0.19166666666666668
            },
            {
              "pitch": 55,
              "velocity": 76,
              "position": 2.5416666666666665,
              "duration": 0.19166666666666668
            },
            {
              "pitch": 48,
              "velocity": 84,
              "position": 2.9895833333333335,
              "duration": 0.19583333333333333
            },
            {
              "pitch": 55,
              "velocity": 80,
              "position": 3.0208333333333335,
              "duration": 0.19583333333333333
            },
            {
              "pitch": 48,
              "velocity": 81,
              "position": 3.5125,
              "duration": 0.23958333333333334
            },
            {
              "pitch": 55,
              "velocity": 77,
              "position": 3.54375,
              "duration": 0.23958333333333334
            },
            {
              "pitch": 48,
              "velocity": 21,
              "position": 4.0125,
              "duration": 0.46041666666666664
            },
            {
              "pitch": 55,
              "velocity": 15,
              "position": 4.04375,
              "duration": 0.42916666666666664
            },
            {
              "pitch": 48,
              "velocity": 83,
              "position": 4.48125,
              "duration": 0.22916666666666666
            },
            {
              "pitch": 55,
              "velocity": 79,
              "position": 4.5125,
              "duration": 0.22916666666666666
            },
            {
              "pitch": 48,
              "velocity": 84,
              "position": 5.008333333333334,
              "duration": 0.21666666666666667
            },
            {
              "pitch": 55,
              "velocity": 80,
              "position": 5.039583333333334,
              "duration": 0.21666666666666667
            },
            {
              "pitch": 55,
              "velocity": 15,
              "position": 5.527083333333334,
              "duration": 0.46041666666666664
            },
            {
              "pitch": 48,
              "velocity": 21,
              "position": 5.495833333333334,
              "duration": 0.49166666666666664
            },
            {
              "pitch": 48,
              "velocity": 86,
              "position": 5.995833333333334,
              "duration": 0.24583333333333332
            },
            {
              "pitch": 55,
              "velocity": 81,
              "position": 6.027083333333334,
              "duration": 0.24583333333333332
            },
            {
              "pitch": 48,
              "velocity": 83,
              "position": 6.495833333333334,
              "duration": 0.19166666666666668
            },
            {
              "pitch": 55,
              "velocity": 79,
              "position": 6.527083333333334,
              "duration": 0.19166666666666668
            },
            {
              "pitch": 48,
              "velocity": 88,
              "position": 6.991666666666666,
              "duration": 0.17083333333333334
            },
            {
              "pitch": 55,
              "velocity": 83,
              "position": 7.022916666666666,
              "duration": 0.17083333333333334
            },
            {
              "pitch": 48,
              "velocity": 80,
              "position": 7.5125,
              "duration": 0.18541666666666667
            },
            {
              "pitch": 55,
              "velocity": 76,
              "position": 7.54375,
              "duration": 0.18541666666666667
            },
            {
              "pitch": 48,
              "velocity": 21,
              "position": 7.983333333333333,
              "duration": 0.5083333333333333
            },
            {
              "pitch": 55,
              "velocity": 15,
              "position": 8.014583333333333,
              "duration": 0.47708333333333336
            },
            {
              "pitch": 48,
              "velocity": 81,
              "position": 8.5,
              "duration": 0.24375
            },
            {
              "pitch": 55,
              "velocity": 77,
              "position": 8.53125,
              "duration": 0.24375
            },
            {
              "pitch": 48,
              "velocity": 86,
              "position": 8.9875,
              "duration": 0.18541666666666667
            },
            {
              "pitch": 55,
              "velocity": 81,
              "position": 9.01875,
              "duration": 0.18541666666666667
            },
            {
              "pitch": 55,
              "velocity": 15,
              "position": 9.529166666666667,
              "duration": 0.4625
            },
            {
              "pitch": 48,
              "velocity": 21,
              "position": 9.497916666666667,
              "duration": 0.49375
            },
            {
              "pitch": 48,
              "velocity": 86,
              "position": 10.0125,
              "duration": 0.19791666666666666
            },
            {
              "pitch": 55,
              "velocity": 81,
              "position": 10.04375,
              "duration": 0.19791666666666666
            },
            {
              "pitch": 48,
              "velocity": 82,
              "position": 10.514583333333333,
              "duration": 0.17291666666666666
            },
            {
              "pitch": 55,
              "velocity": 78,
              "position": 10.545833333333333,
              "duration": 0.17291666666666666
            },
            {
              "pitch": 48,
              "velocity": 88,
              "position": 10.983333333333333,
              "duration": 0.23333333333333334
            },
            {
              "pitch": 55,
              "velocity": 83,
              "position": 11.014583333333333,
              "duration": 0.23333333333333334
            },
            {
              "pitch": 48,
              "velocity": 81,
              "position": 11.483333333333333,
              "duration": 0.23125
            },
            {
              "pitch": 55,
              "velocity": 77,
              "position": 11.514583333333333,
              "duration": 0.23125
            },
            {
              "pitch": 48,
              "velocity": 21,
              "position": 11.995833333333334,
              "duration": 0.49583333333333335
            },
            {
              "pitch": 55,
              "velocity": 15,
              "position": 12.027083333333334,
              "duration": 0.46458333333333335
            },
            {
              "pitch": 48,
              "velocity": 83,
              "position": 12.508333333333333,
              "duration": 0.21041666666666667
            },
            {
              "pitch": 55,
              "velocity": 79,
              "position": 12.539583333333333,
              "duration": 0.21041666666666667
            },
            {
              "pitch": 48,
              "velocity": 86,
              "position": 12.983333333333333,
              "duration": 0.22916666666666666
            },
            {
              "pitch": 55,
              "velocity": 81,
              "position": 13.014583333333333,
              "duration": 0.22916666666666666
            },
            {
              "pitch": 48,
              "velocity": 21,
              "position": 13.4875,
              "duration": 0.5041666666666667
            },
            {
              "pitch": 55,
              "velocity": 15,
              "position": 13.51875,
              "duration": 0.47291666666666665
            },
            {
              "pitch": 48,
              "velocity": 88,
              "position": 14.016666666666667,
              "duration": 0.22291666666666668
            },
            {
              "pitch": 55,
              "velocity": 83,
              "position": 14.047916666666667,
              "duration": 0.22291666666666668
            },
            {
              "pitch": 48,
              "velocity": 79,
              "position": 14.51875,
              "duration": 0.21875
            },
            {
              "pitch": 55,
              "velocity": 76,
              "position": 14.55,
              "duration": 0.21875
            },
            {
              "pitch": 48,
              "velocity": 88,
              "position": 14.997916666666667,
              "duration": 0.22916666666666666
            },
            {
              "pitch": 55,
              "velocity": 83,
              "position": 15.029166666666667,
              "duration": 0.22916666666666666
            },
            {
              "pitch": 48,
              "velocity": 83,
              "position": 15.50625,
              "duration": 0.17291666666666666
            },
            {
              "pitch": 55,
              "velocity": 79,
              "position": 15.5375,
              "duration": 0.17291666666666666
            }
          ]
        },
        "12": {
          "ctab": {
            "srcChannel": 12,
            "name": "Solid",
            "accType": "CHORD2",
            "editable": false,
            "mutedNotes": [],
            "mutedChords": [],
            "autoStart": false,
            "sourceChordNote": 0,
            "sourceChordType": "Maj7",
            "ctb2Low": null,
            "ctb2Main": {
              "ntr": "ROOT_TRANSPOSITION",
              "ntt": "MELODY",
              "bassOn": true,
              "chordRootUpperLimit": 3,
              "noteLowLimit": 40,
              "noteHighLimit": 79,
              "rtr": "PITCH_SHIFT_TO_ROOT"
            },
            "ctb2High": null
          },
          "notes": [
            {
              "pitch": 55,
              "velocity": 25,
              "position": 0.03125,
              "duration": 0.44583333333333336
            },
            {
              "pitch": 48,
              "velocity": 41,
              "position": 0,
              "duration": 0.47708333333333336
            },
            {
              "pitch": 48,
              "velocity": 80,
              "position": 0.48541666666666666,
              "duration": 0.19166666666666668
            },
            {
              "pitch": 55,
              "velocity": 76,
              "position": 0.5166666666666667,
              "duration": 0.19166666666666668
            },
            {
              "pitch": 48,
              "velocity": 86,
              "position": 0.99375,
              "duration": 0.18333333333333332
            },
            {
              "pitch": 55,
              "velocity": 81,
              "position": 1.025,
              "duration": 0.18333333333333332
            },
            {
              "pitch": 48,
              "velocity": 41,
              "position": 1.5145833333333334,
              "duration": 0.4625
            },
            {
              "pitch": 55,
              "velocity": 25,
              "position": 1.5458333333333334,
              "duration": 0.43125
            },
            {
              "pitch": 48,
              "velocity": 85,
              "position": 1.9854166666666666,
              "duration": 0.24791666666666667
            },
            {
              "pitch": 55,
              "velocity": 80,
              "position": 2.0166666666666666,
              "duration": 0.24791666666666667
            },
            {
              "pitch": 48,
              "velocity": 80,
              "position": 2.5104166666666665,
              "duration": 0.19166666666666668
            },
            {
              "pitch": 55,
              "velocity": 76,
              "position": 2.5416666666666665,
              "duration": 0.19166666666666668
            },
            {
              "pitch": 48,
              "velocity": 84,
              "position": 2.9895833333333335,
              "duration": 0.19583333333333333
            },
            {
              "pitch": 55,
              "velocity": 80,
              "position": 3.0208333333333335,
              "duration": 0.19583333333333333
            },
            {
              "pitch": 48,
              "velocity": 81,
              "position": 3.5125,
              "duration": 0.23958333333333334
            },
            {
              "pitch": 55,
              "velocity": 77,
              "position": 3.54375,
              "duration": 0.23958333333333334
            },
            {
              "pitch": 48,
              "velocity": 41,
              "position": 4.0125,
              "duration": 0.46041666666666664
            },
            {
              "pitch": 55,
              "velocity": 25,
              "position": 4.04375,
              "duration": 0.42916666666666664
            },
            {
              "pitch": 48,
              "velocity": 83,
              "position": 4.48125,
              "duration": 0.22916666666666666
            },
            {
              "pitch": 55,
              "velocity": 79,
              "position": 4.5125,
              "duration": 0.22916666666666666
            },
            {
              "pitch": 48,
              "velocity": 84,
              "position": 5.008333333333334,
              "duration": 0.21666666666666667
            },
            {
              "pitch": 55,
              "velocity": 80,
              "position": 5.039583333333334,
              "duration": 0.21666666666666667
            },
            {
              "pitch": 55,
              "velocity": 25,
              "position": 5.527083333333334,
              "duration": 0.46041666666666664
            },
            {
              "pitch": 48,
              "velocity": 41,
              "position": 5.495833333333334,
              "duration": 0.49166666666666664
            },
            {
              "pitch": 48,
              "velocity": 86,
              "position": 5.995833333333334,
              "duration": 0.24583333333333332
            },
            {
              "pitch": 55,
              "velocity": 81,
              "position": 6.027083333333334,
              "duration": 0.24583333333333332
            },
            {
              "pitch": 48,
              "velocity": 83,
              "position": 6.495833333333334,
              "duration": 0.19166666666666668
            },
            {
              "pitch": 55,
              "velocity": 79,
              "position": 6.527083333333334,
              "duration": 0.19166666666666668
            },
            {
              "pitch": 48,
              "velocity": 88,
              "position": 6.991666666666666,
              "duration": 0.17083333333333334
            },
            {
              "pitch": 55,
              "velocity": 83,
              "position": 7.022916666666666,
              "duration": 0.17083333333333334
            },
            {
              "pitch": 48,
              "velocity": 80,
              "position": 7.5125,
              "duration": 0.18541666666666667
            },
            {
              "pitch": 55,
              "velocity": 76,
              "position": 7.54375,
              "duration": 0.18541666666666667
            },
            {
              "pitch": 48,
              "velocity": 41,
              "position": 7.983333333333333,
              "duration": 0.5083333333333333
            },
            {
              "pitch": 55,
              "velocity": 25,
              "position": 8.014583333333333,
              "duration": 0.47708333333333336
            },
            {
              "pitch": 48,
              "velocity": 81,
              "position": 8.5,
              "duration": 0.24375
            },
            {
              "pitch": 55,
              "velocity": 77,
              "position": 8.53125,
              "duration": 0.24375
            },
            {
              "pitch": 48,
              "velocity": 86,
              "position": 8.9875,
              "duration": 0.18541666666666667
            },
            {
              "pitch": 55,
              "velocity": 81,
              "position": 9.01875,
              "duration": 0.18541666666666667
            },
            {
              "pitch": 55,
              "velocity": 25,
              "position": 9.529166666666667,
              "duration": 0.4625
            },
            {
              "pitch": 48,
              "velocity": 41,
              "position": 9.497916666666667,
              "duration": 0.49375
            },
            {
              "pitch": 48,
              "velocity": 86,
              "position": 10.0125,
              "duration": 0.19791666666666666
            },
            {
              "pitch": 55,
              "velocity": 81,
              "position": 10.04375,
              "duration": 0.19791666666666666
            },
            {
              "pitch": 48,
              "velocity": 82,
              "position": 10.514583333333333,
              "duration": 0.17291666666666666
            },
            {
              "pitch": 55,
              "velocity": 78,
              "position": 10.545833333333333,
              "duration": 0.17291666666666666
            },
            {
              "pitch": 48,
              "velocity": 88,
              "position": 10.983333333333333,
              "duration": 0.23333333333333334
            },
            {
              "pitch": 55,
              "velocity": 83,
              "position": 11.014583333333333,
              "duration": 0.23333333333333334
            },
            {
              "pitch": 48,
              "velocity": 81,
              "position": 11.483333333333333,
              "duration": 0.23125
            },
            {
              "pitch": 55,
              "velocity": 77,
              "position": 11.514583333333333,
              "duration": 0.23125
            },
            {
              "pitch": 48,
              "velocity": 41,
              "position": 11.995833333333334,
              "duration": 0.49583333333333335
            },
            {
              "pitch": 55,
              "velocity": 25,
              "position": 12.027083333333334,
              "duration": 0.46458333333333335
            },
            {
              "pitch": 48,
              "velocity": 83,
              "position": 12.508333333333333,
              "duration": 0.21041666666666667
            },
            {
              "pitch": 55,
              "velocity": 79,
              "position": 12.539583333333333,
              "duration": 0.21041666666666667
            },
            {
              "pitch": 48,
              "velocity": 86,
              "position": 12.983333333333333,
              "duration": 0.22916666666666666
            },
            {
              "pitch": 55,
              "velocity": 81,
              "position": 13.014583333333333,
              "duration": 0.22916666666666666
            },
            {
              "pitch": 48,
              "velocity": 41,
              "position": 13.4875,
              "duration": 0.5041666666666667
            },
            {
              "pitch": 55,
              "velocity": 25,
              "position": 13.51875,
              "duration": 0.47291666666666665
            },
            {
              "pitch": 48,
              "velocity": 88,
              "position": 14.016666666666667,
              "duration": 0.22291666666666668
            },
            {
              "pitch": 55,
              "velocity": 83,
              "position": 14.047916666666667,
              "duration": 0.22291666666666668
            },
            {
              "pitch": 48,
              "velocity": 79,
              "position": 14.51875,
              "duration": 0.21875
            },
            {
              "pitch": 55,
              "velocity": 76,
              "position": 14.55,
              "duration": 0.21875
            },
            {
              "pitch": 48,
              "velocity": 88,
              "position": 14.997916666666667,
              "duration": 0.22916666666666666
            },
            {
              "pitch": 55,
              "velocity": 83,
              "position": 15.029166666666667,
              "duration": 0.22916666666666666
            },
            {
              "pitch": 48,
              "velocity": 83,
              "position": 15.50625,
              "duration": 0.17291666666666666
            },
            {
              "pitch": 55,
              "velocity": 79,
              "position": 15.5375,
              "duration": 0.17291666666666666
            }
          ]
        },
        "13": {
          "ctab": {
            "srcChannel": 13,
            "name": "Organ",
            "accType": "PAD",
            "editable": false,
            "mutedNotes": [],
            "mutedChords": [],
            "autoStart": false,
            "sourceChordNote": 0,
            "sourceChordType": "Maj7",
            "ctb2Low": null,
            "ctb2Main": {
              "ntr": "ROOT_FIXED",
              "ntt": "CHORD",
              "bassOn": false,
              "chordRootUpperLimit": 7,
              "noteLowLimit": 0,
              "noteHighLimit": 127,
              "rtr": "PITCH_SHIFT"
            },
            "ctb2High": null
          },
          "notes": [
            {
              "pitch": 55,
              "velocity": 60,
              "position": 0,
              "duration": 15.989583333333334
            },
            {
              "pitch": 64,
              "velocity": 60,
              "position": 0,
              "duration": 15.989583333333334
            },
            {
              "pitch": 59,
              "velocity": 60,
              "position": 0,
              "duration": 15.989583333333334
            }
          ]
        }
      }
    },
    "Fill_In_AA": {
      "type": "Fill_In_AA",
      "sizeInBeats": 4,
      "channels": {
        "1": {
          "ctab": {
            "srcChannel": 1,
            "name": "Bass B",
            "accType": "BASS",
            "editable": false,
            "mutedNotes": [],
            "mutedChords": [
              "1+2+5",
              "1+5",
              "1+8",
              "7(#9)",
              "7(b13)",
              "7(b9)",
              "7(13)",
              "7#11",
              "7(9)",
              "7b5",
              "7sus4",
              "7th",
              "dim7",
              "min7(11)",
              "min7(9)",
              "m7b5",
              "min7",
              "min6",
              "Maj6(9)",
              "Maj7(9)",
              "Maj(9)",
              "Maj7#11",
              "Maj7",
              "Maj6",
              "Maj"
            ],
            "autoStart": false,
            "sourceChordNote": 0,
            "sourceChordType": "Maj7",
            "ctb2Low": null,
            "ctb2Main": {
              "ntr": "ROOT_TRANSPOSITION",
              "ntt": "MELODY",
              "bassOn": true,
              "chordRootUpperLimit": 8,
              "noteLowLimit": 28,
              "noteHighLimit": 127,
              "rtr": "PITCH_SHIFT_TO_ROOT"
            },
            "ctb2High": null
          },
          "notes": [
            {
              "pitch": 24,
              "velocity": 80,
              "position": 0,
              "duration": 0.4895833333333333
            },
            {
              "pitch": 24,
              "velocity": 80,
              "position": 1,
              "duration": 0.4895833333333333
            },
            {
              "pitch": 24,
              "velocity": 80,
              "position": 2,
              "duration": 0.4895833333333333
            },
            {
              "pitch": 31,
              "velocity": 70,
              "position": 2.5,
              "duration": 0.4895833333333333
            },
            {
              "pitch": 28,
              "velocity": 80,
              "position": 3,
              "duration": 0.4895833333333333
            },
            {
              "pitch": 31,
              "velocity": 70,
              "position": 3.5,
              "duration": 0.4895833333333333
            }
          ]
        },
        "4": {
          "ctab": {
            "srcChannel": 4,
            "name": "Organ rt",
            "accType": "PAD",
            "editable": false,
            "mutedNotes": [],
            "mutedChords": [
              "1+2+5",
              "sus4",
              "1+5",
              "1+8",
              "Maj7aug",
              "dim",
              "minMaj7(9)",
              "minMaj7",
              "min6",
              "min",
              "aug",
              "Maj7(9)",
              "Maj7#11",
              "Maj7",
              "Maj6",
              "Maj"
            ],
            "autoStart": false,
            "sourceChordNote": 0,
            "sourceChordType": "Maj7",
            "ctb2Low": null,
            "ctb2Main": {
              "ntr": "ROOT_TRANSPOSITION",
              "ntt": "CHORD",
              "bassOn": false,
              "chordRootUpperLimit": 6,
              "noteLowLimit": 0,
              "noteHighLimit": 127,
              "rtr": "PITCH_SHIFT"
            },
            "ctb2High": null
          },
          "notes": []
        },
        "9": {
          "ctab": {
            "srcChannel": 9,
            "name": "MainDrum",
            "accType": "RHYTHM",
            "editable": false,
            "mutedNotes": [],
            "mutedChords": [],
            "autoStart": true,
            "sourceChordNote": 0,
            "sourceChordType": "Maj7",
            "ctb2Low": null,
            "ctb2Main": {
              "ntr": "ROOT_FIXED",
              "ntt": "BYPASS",
              "bassOn": false,
              "chordRootUpperLimit": 6,
              "noteLowLimit": 0,
              "noteHighLimit": 127,
              "rtr": "PITCH_SHIFT"
            },
            "ctb2High": null
          },
          "notes": [
            {
              "pitch": 36,
              "velocity": 100,
              "position": 0,
              "duration": 0.004166666666666667
            },
            {
              "pitch": 42,
              "velocity": 120,
              "position": 0,
              "duration": 0.004166666666666667
            },
            {
              "pitch": 42,
              "velocity": 30,
              "position": 0.5,
              "duration": 0.004166666666666667
            },
            {
              "pitch": 36,
              "velocity": 100,
              "position": 1,
              "duration": 0.004166666666666667
            },
            {
              "pitch": 42,
              "velocity": 120,
              "position": 1,
              "duration": 0.004166666666666667
            },
            {
              "pitch": 38,
              "velocity": 116,
              "position": 1,
              "duration": 0.004166666666666667
            },
            {
              "pitch": 42,
              "velocity": 30,
              "position": 1.5,
              "duration": 0.004166666666666667
            },
            {
              "pitch": 36,
              "velocity": 100,
              "position": 2,
              "duration": 0.004166666666666667
            },
            {
              "pitch": 42,
              "velocity": 120,
              "position": 2,
              "duration": 0.004166666666666667
            },
            {
              "pitch": 38,
              "velocity": 98,
              "position": 2,
              "duration": 0.004166666666666667
            },
            {
              "pitch": 38,
              "velocity": 104,
              "position": 2.0625,
              "duration": 0.004166666666666667
            },
            {
              "pitch": 36,
              "velocity": 100,
              "position": 2.5,
              "duration": 0.004166666666666667
            },
            {
              "pitch": 42,
              "velocity": 30,
              "position": 2.5,
              "duration": 0.004166666666666667
            },
            {
              "pitch": 38,
              "velocity": 122,
              "position": 3,
              "duration": 0.004166666666666667
            },
            {
              "pitch": 42,
              "velocity": 120,
              "position": 3,
              "duration": 0.004166666666666667
            },
            {
              "pitch": 38,
              "velocity": 102,
              "position": 3.25,
              "duration": 0.004166666666666667
            },
            {
              "pitch": 36,
              "velocity": 100,
              "position": 3.5,
              "duration": 0.004166666666666667
            },
            {
              "pitch": 46,
              "velocity": 64,
              "position": 3.5,
              "duration": 0.004166666666666667
            },
            {
              "pitch": 43,
              "velocity": 100,
              "position": 3.5,
              "duration": 0.004166666666666667
            },
            {
              "pitch": 49,
              "velocity": 94,
              "position": 3.9895833333333335,
              "duration": 0.004166666666666667
            }
          ]
        },
        "10": {
          "ctab": {
            "srcChannel": 10,
            "name": "Bass A",
            "accType": "BASS",
            "editable": false,
            "mutedNotes": [],
            "mutedChords": [
              "sus4",
              "7aug",
              "Maj7aug",
              "dim",
              "minMaj7(9)",
              "minMaj7",
              "min(9)",
              "min",
              "aug"
            ],
            "autoStart": false,
            "sourceChordNote": 0,
            "sourceChordType": "Maj7",
            "ctb2Low": null,
            "ctb2Main": {
              "ntr": "ROOT_TRANSPOSITION",
              "ntt": "MELODY",
              "bassOn": true,
              "chordRootUpperLimit": 8,
              "noteLowLimit": 28,
              "noteHighLimit": 127,
              "rtr": "PITCH_SHIFT_TO_ROOT"
            },
            "ctb2High": null
          },
          "notes": [
            {
              "pitch": 24,
              "velocity": 80,
              "position": 0,
              "duration": 0.4895833333333333
            },
            {
              "pitch": 24,
              "velocity": 80,
              "position": 1,
              "duration": 0.4895833333333333
            },
            {
              "pitch": 24,
              "velocity": 80,
              "position": 2,
              "duration": 0.4895833333333333
            },
            {
              "pitch": 31,
              "velocity": 70,
              "position": 2.5,
              "duration": 0.4895833333333333
            },
            {
              "pitch": 33,
              "velocity": 80,
              "position": 3,
              "duration": 0.4895833333333333
            },
            {
              "pitch": 31,
              "velocity": 70,
              "position": 3.5,
              "duration": 0.4895833333333333
            }
          ]
        },
        "11": {
          "ctab": {
            "srcChannel": 11,
            "name": "Tele",
            "accType": "CHORD1",
            "editable": false,
            "mutedNotes": [],
            "mutedChords": [],
            "autoStart": false,
            "sourceChordNote": 0,
            "sourceChordType": "Maj7",
            "ctb2Low": null,
            "ctb2Main": {
              "ntr": "ROOT_TRANSPOSITION",
              "ntt": "MELODY",
              "bassOn": true,
              "chordRootUpperLimit": 3,
              "noteLowLimit": 40,
              "noteHighLimit": 79,
              "rtr": "PITCH_SHIFT_TO_ROOT"
            },
            "ctb2High": null
          },
          "notes": [
            {
              "pitch": 48,
              "velocity": 86,
              "position": 0,
              "duration": 0.21458333333333332
            },
            {
              "pitch": 55,
              "velocity": 81,
              "position": 0.03125,
              "duration": 0.21458333333333332
            },
            {
              "pitch": 48,
              "velocity": 79,
              "position": 0.49583333333333335,
              "duration": 0.24791666666666667
            },
            {
              "pitch": 55,
              "velocity": 76,
              "position": 0.5270833333333333,
              "duration": 0.24791666666666667
            },
            {
              "pitch": 48,
              "velocity": 86,
              "position": 1.0104166666666667,
              "duration": 0.18541666666666667
            },
            {
              "pitch": 55,
              "velocity": 81,
              "position": 1.0416666666666667,
              "duration": 0.18541666666666667
            },
            {
              "pitch": 48,
              "velocity": 81,
              "position": 1.48125,
              "duration": 0.22916666666666666
            },
            {
              "pitch": 55,
              "velocity": 77,
              "position": 1.5125,
              "duration": 0.22916666666666666
            },
            {
              "pitch": 48,
              "velocity": 88,
              "position": 1.9958333333333333,
              "duration": 0.17291666666666666
            },
            {
              "pitch": 55,
              "velocity": 83,
              "position": 2.027083333333333,
              "duration": 0.17291666666666666
            },
            {
              "pitch": 48,
              "velocity": 81,
              "position": 2.4854166666666666,
              "duration": 0.21875
            },
            {
              "pitch": 55,
              "velocity": 77,
              "position": 2.5166666666666666,
              "duration": 0.21875
            },
            {
              "pitch": 48,
              "velocity": 84,
              "position": 2.9875,
              "duration": 0.24791666666666667
            },
            {
              "pitch": 55,
              "velocity": 80,
              "position": 3.01875,
              "duration": 0.24791666666666667
            },
            {
              "pitch": 48,
              "velocity": 81,
              "position": 3.504166666666667,
              "duration": 0.225
            },
            {
              "pitch": 55,
              "velocity": 77,
              "position": 3.535416666666667,
              "duration": 0.225
            }
          ]
        },
        "12": {
          "ctab": {
            "srcChannel": 12,
            "name": "Solid",
            "accType": "CHORD2",
            "editable": false,
            "mutedNotes": [],
            "mutedChords": [],
            "autoStart": false,
            "sourceChordNote": 0,
            "sourceChordType": "Maj7",
            "ctb2Low": null,
            "ctb2Main": {
              "ntr": "ROOT_TRANSPOSITION",
              "ntt": "MELODY",
              "bassOn": true,
              "chordRootUpperLimit": 3,
              "noteLowLimit": 40,
              "noteHighLimit": 79,
              "rtr": "PITCH_SHIFT_TO_ROOT"
            },
            "ctb2High": null
          },
          "notes": [
            {
              "pitch": 48,
              "velocity": 86,
              "position": 0,
              "duration": 0.21458333333333332
            },
            {
              "pitch": 55,
              "velocity": 81,
              "position": 0.03125,
              "duration": 0.21458333333333332
            },
            {
              "pitch": 48,
              "velocity": 79,
              "position": 0.49583333333333335,
              "duration": 0.24791666666666667
            },
            {
              "pitch": 55,
              "velocity": 76,
              "position": 0.5270833333333333,
              "duration": 0.24791666666666667
            },
            {
              "pitch": 48,
              "velocity": 86,
              "position": 1.0104166666666667,
              "duration": 0.18541666666666667
            },
            {
              "pitch": 55,
              "velocity": 81,
              "position": 1.0416666666666667,
              "duration": 0.18541666666666667
            },
            {
              "pitch": 48,
              "velocity": 81,
              "position": 1.48125,
              "duration": 0.22916666666666666
            },
            {
              "pitch": 55,
              "velocity": 77,
              "position": 1.5125,
              "duration": 0.22916666666666666
            },
            {
              "pitch": 48,
              "velocity": 88,
              "position": 1.9958333333333333,
              "duration": 0.17291666666666666
            },
            {
              "pitch": 55,
              "velocity": 83,
              "position": 2.027083333333333,
              "duration": 0.17291666666666666
            },
            {
              "pitch": 48,
              "velocity": 81,
              "position": 2.4854166666666666,
              "duration": 0.21875
            },
            {
              "pitch": 55,
              "velocity": 77,
              "position": 2.5166666666666666,
              "duration": 0.21875
            },
            {
              "pitch": 48,
              "velocity": 84,
              "position": 2.9875,
              "duration": 0.24791666666666667
            },
            {
              "pitch": 55,
              "velocity": 80,
              "position": 3.01875,
              "duration": 0.24791666666666667
            },
            {
              "pitch": 48,
              "velocity": 81,
              "position": 3.504166666666667,
              "duration": 0.225
            },
            {
              "pitch": 55,
              "velocity": 77,
              "position": 3.535416666666667,
              "duration": 0.225
            }
          ]
        },
        "13": {
          "ctab": {
            "srcChannel": 13,
            "name": "Organ",
            "accType": "PAD",
            "editable": false,
            "mutedNotes": [],
            "mutedChords": [],
            "autoStart": false,
            "sourceChordNote": 0,
            "sourceChordType": "Maj7",
            "ctb2Low": null,
            "ctb2Main": {
              "ntr": "ROOT_FIXED",
              "ntt": "CHORD",
              "bassOn": false,
              "chordRootUpperLimit": 7,
              "noteLowLimit": 0,
              "noteHighLimit": 127,
              "rtr": "PITCH_SHIFT"
            },
            "ctb2High": null
          },
          "notes": []
        }
      }
    },
    "Fill_In_BB": {
      "type": "Fill_In_BB",
      "sizeInBeats": 4,
      "channels": {
        "1": {
          "ctab": {
            "srcChannel": 1,
            "name": "Bass B",
            "accType": "BASS",
            "editable": false,
            "mutedNotes": [],
            "mutedChords": [
              "1+2+5",
              "1+5",
              "1+8",
              "7(#9)",
              "7(b13)",
              "7(b9)",
              "7(13)",
              "7#11",
              "7(9)",
              "7b5",
              "7sus4",
              "7th",
              "dim7",
              "min7(11)",
              "min7(9)",
              "m7b5",
              "min7",
              "min6",
              "Maj6(9)",
              "Maj7(9)",
              "Maj(9)",
              "Maj7#11",
              "Maj7",
              "Maj6",
              "Maj"
            ],
            "autoStart": false,
            "sourceChordNote": 0,
            "sourceChordType": "Maj7",
            "ctb2Low": null,
            "ctb2Main": {
              "ntr": "ROOT_TRANSPOSITION",
              "ntt": "MELODY",
              "bassOn": true,
              "chordRootUpperLimit": 8,
              "noteLowLimit": 28,
              "noteHighLimit": 127,
              "rtr": "PITCH_SHIFT_TO_ROOT"
            },
            "ctb2High": null
          },
          "notes": [
            {
              "pitch": 24,
              "velocity": 80,
              "position": 0,
              "duration": 0.4270833333333333
            },
            {
              "pitch": 24,
              "velocity": 75,
              "position": 0.5,
              "duration": 0.4270833333333333
            },
            {
              "pitch": 24,
              "velocity": 80,
              "position": 1,
              "duration": 0.4270833333333333
            },
            {
              "pitch": 24,
              "velocity": 75,
              "position": 1.5,
              "duration": 0.4270833333333333
            },
            {
              "pitch": 24,
              "velocity": 80,
              "position": 2,
              "duration": 0.4270833333333333
            },
            {
              "pitch": 31,
              "velocity": 75,
              "position": 2.5,
              "duration": 0.4270833333333333
            },
            {
              "pitch": 28,
              "velocity": 80,
              "position": 3,
              "duration": 0.4270833333333333
            },
            {
              "pitch": 31,
              "velocity": 75,
              "position": 3.5,
              "duration": 0.4270833333333333
            }
          ]
        },
        "4": {
          "ctab": {
            "srcChannel": 4,
            "name": "Organ rt",
            "accType": "PAD",
            "editable": false,
            "mutedNotes": [],
            "mutedChords": [
              "1+2+5",
              "sus4",
              "1+5",
              "1+8",
              "Maj7aug",
              "dim",
              "minMaj7(9)",
              "minMaj7",
              "min6",
              "min",
              "aug",
              "Maj7(9)",
              "Maj7#11",
              "Maj7",
              "Maj6",
              "Maj"
            ],
            "autoStart": false,
            "sourceChordNote": 0,
            "sourceChordType": "Maj7",
            "ctb2Low": null,
            "ctb2Main": {
              "ntr": "ROOT_TRANSPOSITION",
              "ntt": "CHORD",
              "bassOn": false,
              "chordRootUpperLimit": 6,
              "noteLowLimit": 0,
              "noteHighLimit": 127,
              "rtr": "PITCH_SHIFT"
            },
            "ctb2High": null
          },
          "notes": [
            {
              "pitch": 60,
              "velocity": 60,
              "position": 0,
              "duration": 3.9895833333333335
            }
          ]
        },
        "9": {
          "ctab": {
            "srcChannel": 9,
            "name": "MainDrum",
            "accType": "RHYTHM",
            "editable": false,
            "mutedNotes": [],
            "mutedChords": [],
            "autoStart": true,
            "sourceChordNote": 0,
            "sourceChordType": "Maj7",
            "ctb2Low": null,
            "ctb2Main": {
              "ntr": "ROOT_FIXED",
              "ntt": "BYPASS",
              "bassOn": false,
              "chordRootUpperLimit": 6,
              "noteLowLimit": 0,
              "noteHighLimit": 127,
              "rtr": "PITCH_SHIFT"
            },
            "ctb2High": null
          },
          "notes": [
            {
              "pitch": 36,
              "velocity": 100,
              "position": 0,
              "duration": 0.004166666666666667
            },
            {
              "pitch": 46,
              "velocity": 80,
              "position": 0,
              "duration": 0.004166666666666667
            },
            {
              "pitch": 46,
              "velocity": 64,
              "position": 0.5,
              "duration": 0.004166666666666667
            },
            {
              "pitch": 36,
              "velocity": 100,
              "position": 1,
              "duration": 0.004166666666666667
            },
            {
              "pitch": 46,
              "velocity": 90,
              "position": 1,
              "duration": 0.004166666666666667
            },
            {
              "pitch": 38,
              "velocity": 116,
              "position": 1,
              "duration": 0.004166666666666667
            },
            {
              "pitch": 43,
              "velocity": 68,
              "position": 1.5,
              "duration": 0.004166666666666667
            },
            {
              "pitch": 36,
              "velocity": 100,
              "position": 2,
              "duration": 0.004166666666666667
            },
            {
              "pitch": 46,
              "velocity": 90,
              "position": 2,
              "duration": 0.004166666666666667
            },
            {
              "pitch": 43,
              "velocity": 110,
              "position": 2,
              "duration": 0.004166666666666667
            },
            {
              "pitch": 38,
              "velocity": 96,
              "position": 2.5,
              "duration": 0.004166666666666667
            },
            {
              "pitch": 43,
              "velocity": 100,
              "position": 2.5,
              "duration": 0.004166666666666667
            },
            {
              "pitch": 36,
              "velocity": 100,
              "position": 3,
              "duration": 0.004166666666666667
            },
            {
              "pitch": 44,
              "velocity": 100,
              "position": 3,
              "duration": 0.004166666666666667
            },
            {
              "pitch": 38,
              "velocity": 116,
              "position": 3,
              "duration": 0.004166666666666667
            },
            {
              "pitch": 38,
              "velocity": 122,
              "position": 3.0625,
              "duration": 0.004166666666666667
            },
            {
              "pitch": 36,
              "velocity": 100,
              "position": 3.5,
              "duration": 0.004166666666666667
            },
            {
              "pitch": 46,
              "velocity": 50,
              "position": 3.5,
              "duration": 0.004166666666666667
            },
            {
              "pitch": 41,
              "velocity": 100,
              "position": 3.5,
              "duration": 0.004166666666666667
            },
            {
              "pitch": 49,
              "velocity": 94,
              "position": 3.9895833333333335,
              "duration": 0.004166666666666667
            }
          ]
        },
        "10": {
          "ctab": {
            "srcChannel": 10,
            "name": "Bass A",
            "accType": "BASS",
            "editable": false,
            "mutedNotes": [],
            "mutedChords": [
              "sus4",
              "7aug",
              "Maj7aug",
              "dim",
              "minMaj7(9)",
              "minMaj7",
              "min(9)",
              "min",
              "aug"
            ],
            "autoStart": false,
            "sourceChordNote": 0,
            "sourceChordType": "Maj7",
            "ctb2Low": null,
            "ctb2Main": {
              "ntr": "ROOT_TRANSPOSITION",
              "ntt": "MELODY",
              "bassOn": true,
              "chordRootUpperLimit": 8,
              "noteLowLimit": 28,
              "noteHighLimit": 127,
              "rtr": "PITCH_SHIFT_TO_ROOT"
            },
            "ctb2High": null
          },
          "notes": [
            {
              "pitch": 24,
              "velocity": 80,
              "position": 0,
              "duration": 0.4895833333333333
            },
            {
              "pitch": 24,
              "velocity": 75,
              "position": 0.5,
              "duration": 0.4895833333333333
            },
            {
              "pitch": 24,
              "velocity": 80,
              "position": 1,
              "duration": 0.4895833333333333
            },
            {
              "pitch": 24,
              "velocity": 75,
              "position": 1.5,
              "duration": 0.4895833333333333
            },
            {
              "pitch": 24,
              "velocity": 80,
              "position": 2,
              "duration": 0.4895833333333333
            },
            {
              "pitch": 31,
              "velocity": 75,
              "position": 2.5,
              "duration": 0.4895833333333333
            },
            {
              "pitch": 33,
              "velocity": 80,
              "position": 3,
              "duration": 0.4895833333333333
            },
            {
              "pitch": 31,
              "velocity": 75,
              "position": 3.5,
              "duration": 0.4895833333333333
            }
          ]
        },
        "11": {
          "ctab": {
            "srcChannel": 11,
            "name": "Tele",
            "accType": "CHORD1",
            "editable": false,
            "mutedNotes": [],
            "mutedChords": [],
            "autoStart": false,
            "sourceChordNote": 0,
            "sourceChordType": "Maj7",
            "ctb2Low": null,
            "ctb2Main": {
              "ntr": "ROOT_TRANSPOSITION",
              "ntt": "MELODY",
              "bassOn": true,
              "chordRootUpperLimit": 3,
              "noteLowLimit": 40,
              "noteHighLimit": 79,
              "rtr": "PITCH_SHIFT_TO_ROOT"
            },
            "ctb2High": null
          },
          "notes": [
            {
              "pitch": 48,
              "velocity": 21,
              "position": 0,
              "duration": 0.49375
            },
            {
              "pitch": 55,
              "velocity": 15,
              "position": 0.03125,
              "duration": 0.4625
            },
            {
              "pitch": 48,
              "velocity": 83,
              "position": 0.5083333333333333,
              "duration": 0.21041666666666667
            },
            {
              "pitch": 55,
              "velocity": 79,
              "position": 0.5395833333333333,
              "duration": 0.21041666666666667
            },
            {
              "pitch": 48,
              "velocity": 86,
              "position": 0.9833333333333333,
              "duration": 0.22916666666666666
            },
            {
              "pitch": 55,
              "velocity": 81,
              "position": 1.0145833333333334,
              "duration": 0.22916666666666666
            },
            {
              "pitch": 48,
              "velocity": 21,
              "position": 1.4875,
              "duration": 0.9916666666666667
            },
            {
              "pitch": 55,
              "velocity": 15,
              "position": 1.51875,
              "duration": 0.9916666666666667
            },
            {
              "pitch": 48,
              "velocity": 21,
              "position": 2.4875,
              "duration": 0.5020833333333333
            },
            {
              "pitch": 55,
              "velocity": 15,
              "position": 2.51875,
              "duration": 0.47291666666666665
            },
            {
              "pitch": 48,
              "velocity": 88,
              "position": 2.997916666666667,
              "duration": 0.22916666666666666
            },
            {
              "pitch": 55,
              "velocity": 83,
              "position": 3.029166666666667,
              "duration": 0.22916666666666666
            },
            {
              "pitch": 48,
              "velocity": 83,
              "position": 3.50625,
              "duration": 0.17291666666666666
            },
            {
              "pitch": 55,
              "velocity": 79,
              "position": 3.5375,
              "duration": 0.17291666666666666
            }
          ]
        },
        "12": {
          "ctab": {
            "srcChannel": 12,
            "name": "Solid",
            "accType": "CHORD2",
            "editable": false,
            "mutedNotes": [],
            "mutedChords": [],
            "autoStart": false,
            "sourceChordNote": 0,
            "sourceChordType": "Maj7",
            "ctb2Low": null,
            "ctb2Main": {
              "ntr": "ROOT_TRANSPOSITION",
              "ntt": "MELODY",
              "bassOn": true,
              "chordRootUpperLimit": 3,
              "noteLowLimit": 40,
              "noteHighLimit": 79,
              "rtr": "PITCH_SHIFT_TO_ROOT"
            },
            "ctb2High": null
          },
          "notes": [
            {
              "pitch": 48,
              "velocity": 41,
              "position": 0,
              "duration": 0.49375
            },
            {
              "pitch": 55,
              "velocity": 25,
              "position": 0.03125,
              "duration": 0.4625
            },
            {
              "pitch": 48,
              "velocity": 83,
              "position": 0.5083333333333333,
              "duration": 0.21041666666666667
            },
            {
              "pitch": 55,
              "velocity": 79,
              "position": 0.5395833333333333,
              "duration": 0.21041666666666667
            },
            {
              "pitch": 48,
              "velocity": 86,
              "position": 0.9833333333333333,
              "duration": 0.22916666666666666
            },
            {
              "pitch": 55,
              "velocity": 81,
              "position": 1.0145833333333334,
              "duration": 0.22916666666666666
            },
            {
              "pitch": 48,
              "velocity": 41,
              "position": 1.4875,
              "duration": 0.9916666666666667
            },
            {
              "pitch": 55,
              "velocity": 25,
              "position": 1.51875,
              "duration": 0.9916666666666667
            },
            {
              "pitch": 48,
              "velocity": 41,
              "position": 2.4875,
              "duration": 0.5020833333333333
            },
            {
              "pitch": 55,
              "velocity": 25,
              "position": 2.51875,
              "duration": 0.47291666666666665
            },
            {
              "pitch": 48,
              "velocity": 88,
              "position": 2.997916666666667,
              "duration": 0.22916666666666666
            },
            {
              "pitch": 55,
              "velocity": 83,
              "position": 3.029166666666667,
              "duration": 0.22916666666666666
            },
            {
              "pitch": 48,
              "velocity": 83,
              "position": 3.50625,
              "duration": 0.17291666666666666
            },
            {
              "pitch": 55,
              "velocity": 79,
              "position": 3.5375,
              "duration": 0.17291666666666666
            }
          ]
        },
        "13": {
          "ctab": {
            "srcChannel": 13,
            "name": "Organ",
            "accType": "PAD",
            "editable": false,
            "mutedNotes": [],
            "mutedChords": [],
            "autoStart": false,
            "sourceChordNote": 0,
            "sourceChordType": "Maj7",
            "ctb2Low": null,
            "ctb2Main": {
              "ntr": "ROOT_FIXED",
              "ntt": "CHORD",
              "bassOn": false,
              "chordRootUpperLimit": 7,
              "noteLowLimit": 0,
              "noteHighLimit": 127,
              "rtr": "PITCH_SHIFT"
            },
            "ctb2High": null
          },
          "notes": [
            {
              "pitch": 55,
              "velocity": 60,
              "position": 0,
              "duration": 3.9895833333333335
            },
            {
              "pitch": 64,
              "velocity": 60,
              "position": 0,
              "duration": 3.9895833333333335
            },
            {
              "pitch": 59,
              "velocity": 60,
              "position": 0,
              "duration": 3.9895833333333335
            }
          ]
        }
      }
    },
    "Intro_A": {
      "type": "Intro_A",
      "sizeInBeats": 4,
      "channels": {
        "1": {
          "ctab": {
            "srcChannel": 1,
            "name": "Bass B",
            "accType": "BASS",
            "editable": false,
            "mutedNotes": [],
            "mutedChords": [
              "1+2+5",
              "1+5",
              "1+8",
              "7(#9)",
              "7(b13)",
              "7(b9)",
              "7(13)",
              "7#11",
              "7(9)",
              "7b5",
              "7sus4",
              "7th",
              "dim7",
              "min7(11)",
              "min7(9)",
              "m7b5",
              "min7",
              "min6",
              "Maj6(9)",
              "Maj7(9)",
              "Maj(9)",
              "Maj7#11",
              "Maj7",
              "Maj6",
              "Maj"
            ],
            "autoStart": false,
            "sourceChordNote": 0,
            "sourceChordType": "Maj7",
            "ctb2Low": null,
            "ctb2Main": {
              "ntr": "ROOT_TRANSPOSITION",
              "ntt": "MELODY",
              "bassOn": true,
              "chordRootUpperLimit": 8,
              "noteLowLimit": 28,
              "noteHighLimit": 127,
              "rtr": "PITCH_SHIFT_TO_ROOT"
            },
            "ctb2High": null
          },
          "notes": []
        },
        "4": {
          "ctab": {
            "srcChannel": 4,
            "name": "Organ rt",
            "accType": "PAD",
            "editable": false,
            "mutedNotes": [],
            "mutedChords": [
              "1+2+5",
              "sus4",
              "1+5",
              "1+8",
              "Maj7aug",
              "dim",
              "minMaj7(9)",
              "minMaj7",
              "min6",
              "min",
              "aug",
              "Maj7(9)",
              "Maj7#11",
              "Maj7",
              "Maj6",
              "Maj"
            ],
            "autoStart": false,
            "sourceChordNote": 0,
            "sourceChordType": "Maj7",
            "ctb2Low": null,
            "ctb2Main": {
              "ntr": "ROOT_TRANSPOSITION",
              "ntt": "CHORD",
              "bassOn": false,
              "chordRootUpperLimit": 6,
              "noteLowLimit": 0,
              "noteHighLimit": 127,
              "rtr": "PITCH_SHIFT"
            },
            "ctb2High": null
          },
          "notes": []
        },
        "9": {
          "ctab": {
            "srcChannel": 9,
            "name": "MainDrum",
            "accType": "RHYTHM",
            "editable": false,
            "mutedNotes": [],
            "mutedChords": [],
            "autoStart": true,
            "sourceChordNote": 0,
            "sourceChordType": "Maj7",
            "ctb2Low": null,
            "ctb2Main": {
              "ntr": "ROOT_FIXED",
              "ntt": "BYPASS",
              "bassOn": false,
              "chordRootUpperLimit": 6,
              "noteLowLimit": 0,
              "noteHighLimit": 127,
              "rtr": "PITCH_SHIFT"
            },
            "ctb2High": null
          },
          "notes": [
            {
              "pitch": 38,
              "velocity": 96,
              "position": 0,
              "duration": 0.004166666666666667
            },
            {
              "pitch": 38,
              "velocity": 118,
              "position": 0.0625,
              "duration": 0.004166666666666667
            },
            {
              "pitch": 36,
              "velocity": 100,
              "position": 0.5,
              "duration": 0.004166666666666667
            },
            {
              "pitch": 38,
              "velocity": 92,
              "position": 1,
              "duration": 0.004166666666666667
            },
            {
              "pitch": 38,
              "velocity": 114,
              "position": 1.0625,
              "duration": 0.004166666666666667
            },
            {
              "pitch": 36,
              "velocity": 100,
              "position": 1.5,
              "duration": 0.004166666666666667
            },
            {
              "pitch": 38,
              "velocity": 98,
              "position": 2,
              "duration": 0.004166666666666667
            },
            {
              "pitch": 38,
              "velocity": 104,
              "position": 2.0625,
              "duration": 0.004166666666666667
            },
            {
              "pitch": 36,
              "velocity": 100,
              "position": 2.5,
              "duration": 0.004166666666666667
            },
            {
              "pitch": 36,
              "velocity": 67,
              "position": 2.75,
              "duration": 0.004166666666666667
            },
            {
              "pitch": 38,
              "velocity": 122,
              "position": 3,
              "duration": 0.004166666666666667
            },
            {
              "pitch": 38,
              "velocity": 116,
              "position": 3.25,
              "duration": 0.004166666666666667
            },
            {
              "pitch": 36,
              "velocity": 100,
              "position": 3.5,
              "duration": 0.004166666666666667
            },
            {
              "pitch": 49,
              "velocity": 94,
              "position": 3.9895833333333335,
              "duration": 0.004166666666666667
            }
          ]
        },
        "10": {
          "ctab": {
            "srcChannel": 10,
            "name": "Bass A",
            "accType": "BASS",
            "editable": false,
            "mutedNotes": [],
            "mutedChords": [
              "sus4",
              "7aug",
              "Maj7aug",
              "dim",
              "minMaj7(9)",
              "minMaj7",
              "min(9)",
              "min",
              "aug"
            ],
            "autoStart": false,
            "sourceChordNote": 0,
            "sourceChordType": "Maj7",
            "ctb2Low": null,
            "ctb2Main": {
              "ntr": "ROOT_TRANSPOSITION",
              "ntt": "MELODY",
              "bassOn": true,
              "chordRootUpperLimit": 8,
              "noteLowLimit": 28,
              "noteHighLimit": 127,
              "rtr": "PITCH_SHIFT_TO_ROOT"
            },
            "ctb2High": null
          },
          "notes": []
        },
        "11": {
          "ctab": {
            "srcChannel": 11,
            "name": "Tele",
            "accType": "CHORD1",
            "editable": false,
            "mutedNotes": [],
            "mutedChords": [],
            "autoStart": false,
            "sourceChordNote": 0,
            "sourceChordType": "Maj7",
            "ctb2Low": null,
            "ctb2Main": {
              "ntr": "ROOT_TRANSPOSITION",
              "ntt": "MELODY",
              "bassOn": true,
              "chordRootUpperLimit": 3,
              "noteLowLimit": 40,
              "noteHighLimit": 79,
              "rtr": "PITCH_SHIFT_TO_ROOT"
            },
            "ctb2High": null
          },
          "notes": []
        },
        "12": {
          "ctab": {
            "srcChannel": 12,
            "name": "Solid",
            "accType": "CHORD2",
            "editable": false,
            "mutedNotes": [],
            "mutedChords": [],
            "autoStart": false,
            "sourceChordNote": 0,
            "sourceChordType": "Maj7",
            "ctb2Low": null,
            "ctb2Main": {
              "ntr": "ROOT_TRANSPOSITION",
              "ntt": "MELODY",
              "bassOn": true,
              "chordRootUpperLimit": 3,
              "noteLowLimit": 40,
              "noteHighLimit": 79,
              "rtr": "PITCH_SHIFT_TO_ROOT"
            },
            "ctb2High": null
          },
          "notes": []
        },
        "13": {
          "ctab": {
            "srcChannel": 13,
            "name": "Organ",
            "accType": "PAD",
            "editable": false,
            "mutedNotes": [],
            "mutedChords": [],
            "autoStart": false,
            "sourceChordNote": 0,
            "sourceChordType": "Maj7",
            "ctb2Low": null,
            "ctb2Main": {
              "ntr": "ROOT_FIXED",
              "ntt": "CHORD",
              "bassOn": false,
              "chordRootUpperLimit": 7,
              "noteLowLimit": 0,
              "noteHighLimit": 127,
              "rtr": "PITCH_SHIFT"
            },
            "ctb2High": null
          },
          "notes": []
        }
      }
    },
    "Main_C": {
      "type": "Main_C",
      "sizeInBeats": 16,
      "channels": {
        "1": {
          "ctab": {
            "srcChannel": 1,
            "name": "Bass B",
            "accType": "BASS",
            "editable": false,
            "mutedNotes": [],
            "mutedChords": [
              "1+2+5",
              "1+5",
              "1+8",
              "7(#9)",
              "7(b13)",
              "7(b9)",
              "7(13)",
              "7#11",
              "7(9)",
              "7b5",
              "7sus4",
              "7th",
              "dim7",
              "min7(11)",
              "min7(9)",
              "m7b5",
              "min7",
              "min6",
              "Maj6(9)",
              "Maj7(9)",
              "Maj(9)",
              "Maj7#11",
              "Maj7",
              "Maj6",
              "Maj"
            ],
            "autoStart": false,
            "sourceChordNote": 0,
            "sourceChordType": "Maj7",
            "ctb2Low": null,
            "ctb2Main": {
              "ntr": "ROOT_TRANSPOSITION",
              "ntt": "MELODY",
              "bassOn": true,
              "chordRootUpperLimit": 8,
              "noteLowLimit": 28,
              "noteHighLimit": 127,
              "rtr": "PITCH_SHIFT_TO_ROOT"
            },
            "ctb2High": null
          },
          "notes": [
            {
              "pitch": 24,
              "velocity": 80,
              "position": 0,
              "duration": 0.425
            },
            {
              "pitch": 24,
              "velocity": 75,
              "position": 0.5,
              "duration": 0.425
            },
            {
              "pitch": 24,
              "velocity": 80,
              "position": 1,
              "duration": 0.425
            },
            {
              "pitch": 24,
              "velocity": 75,
              "position": 1.5,
              "duration": 0.425
            },
            {
              "pitch": 24,
              "velocity": 80,
              "position": 2,
              "duration": 0.425
            },
            {
              "pitch": 24,
              "velocity": 75,
              "position": 2.5,
              "duration": 0.425
            },
            {
              "pitch": 24,
              "velocity": 80,
              "position": 3,
              "duration": 0.425
            },
            {
              "pitch": 24,
              "velocity": 75,
              "position": 3.5,
              "duration": 0.425
            },
            {
              "pitch": 24,
              "velocity": 80,
              "position": 4,
              "duration": 0.425
            },
            {
              "pitch": 24,
              "velocity": 75,
              "position": 4.5,
              "duration": 0.425
            },
            {
              "pitch": 24,
              "velocity": 80,
              "position": 5,
              "duration": 0.425
            },
            {
              "pitch": 24,
              "velocity": 75,
              "position": 5.5,
              "duration": 0.425
            },
            {
              "pitch": 24,
              "velocity": 80,
              "position": 6,
              "duration": 0.425
            },
            {
              "pitch": 24,
              "velocity": 75,
              "position": 6.5,
              "duration": 0.425
            },
            {
              "pitch": 24,
              "velocity": 80,
              "position": 7,
              "duration": 0.425
            },
            {
              "pitch": 24,
              "velocity": 75,
              "position": 7.5,
              "duration": 0.425
            },
            {
              "pitch": 24,
              "velocity": 80,
              "position": 8,
              "duration": 0.425
            },
            {
              "pitch": 24,
              "velocity": 75,
              "position": 8.5,
              "duration": 0.425
            },
            {
              "pitch": 24,
              "velocity": 80,
              "position": 9,
              "duration": 0.425
            },
            {
              "pitch": 24,
              "velocity": 75,
              "position": 9.5,
              "duration": 0.425
            },
            {
              "pitch": 24,
              "velocity": 80,
              "position": 10,
              "duration": 0.425
            },
            {
              "pitch": 24,
              "velocity": 75,
              "position": 10.5,
              "duration": 0.425
            },
            {
              "pitch": 24,
              "velocity": 80,
              "position": 11,
              "duration": 0.425
            },
            {
              "pitch": 24,
              "velocity": 75,
              "position": 11.5,
              "duration": 0.425
            },
            {
              "pitch": 24,
              "velocity": 80,
              "position": 12,
              "duration": 0.425
            },
            {
              "pitch": 24,
              "velocity": 75,
              "position": 12.5,
              "duration": 0.425
            },
            {
              "pitch": 24,
              "velocity": 80,
              "position": 13,
              "duration": 0.425
            },
            {
              "pitch": 24,
              "velocity": 75,
              "position": 13.5,
              "duration": 0.425
            },
            {
              "pitch": 24,
              "velocity": 80,
              "position": 14,
              "duration": 0.425
            },
            {
              "pitch": 24,
              "velocity": 75,
              "position": 14.5,
              "duration": 0.425
            },
            {
              "pitch": 24,
              "velocity": 80,
              "position": 15,
              "duration": 0.425
            },
            {
              "pitch": 24,
              "velocity": 75,
              "position": 15.5,
              "duration": 0.425
            }
          ]
        },
        "4": {
          "ctab": {
            "srcChannel": 4,
            "name": "Organ rt",
            "accType": "PAD",
            "editable": false,
            "mutedNotes": [],
            "mutedChords": [
              "1+2+5",
              "sus4",
              "1+5",
              "1+8",
              "Maj7aug",
              "dim",
              "minMaj7(9)",
              "minMaj7",
              "min6",
              "min",
              "aug",
              "Maj7(9)",
              "Maj7#11",
              "Maj7",
              "Maj6",
              "Maj"
            ],
            "autoStart": false,
            "sourceChordNote": 0,
            "sourceChordType": "Maj7",
            "ctb2Low": null,
            "ctb2Main": {
              "ntr": "ROOT_TRANSPOSITION",
              "ntt": "CHORD",
              "bassOn": false,
              "chordRootUpperLimit": 6,
              "noteLowLimit": 0,
              "noteHighLimit": 70,
              "rtr": "PITCH_SHIFT"
            },
            "ctb2High": null
          },
          "notes": [
            {
              "pitch": 60,
              "velocity": 60,
              "position": 0,
              "duration": 15.989583333333334
            }
          ]
        },
        "9": {
          "ctab": {
            "srcChannel": 9,
            "name": "MainDrum",
            "accType": "RHYTHM",
            "editable": false,
            "mutedNotes": [],
            "mutedChords": [],
            "autoStart": true,
            "sourceChordNote": 0,
            "sourceChordType": "Maj7",
            "ctb2Low": null,
            "ctb2Main": {
              "ntr": "ROOT_FIXED",
              "ntt": "BYPASS",
              "bassOn": false,
              "chordRootUpperLimit": 6,
              "noteLowLimit": 0,
              "noteHighLimit": 127,
              "rtr": "PITCH_SHIFT"
            },
            "ctb2High": null
          },
          "notes": [
            {
              "pitch": 36,
              "velocity": 100,
              "position": 0,
              "duration": 0.004166666666666667
            },
            {
              "pitch": 46,
              "velocity": 80,
              "position": 0,
              "duration": 0.004166666666666667
            },
            {
              "pitch": 46,
              "velocity": 48,
              "position": 0.5,
              "duration": 0.004166666666666667
            },
            {
              "pitch": 38,
              "velocity": 116,
              "position": 1,
              "duration": 0.004166666666666667
            },
            {
              "pitch": 46,
              "velocity": 80,
              "position": 1,
              "duration": 0.004166666666666667
            },
            {
              "pitch": 46,
              "velocity": 48,
              "position": 1.5,
              "duration": 0.004166666666666667
            },
            {
              "pitch": 36,
              "velocity": 100,
              "position": 2,
              "duration": 0.004166666666666667
            },
            {
              "pitch": 46,
              "velocity": 80,
              "position": 2,
              "duration": 0.004166666666666667
            },
            {
              "pitch": 36,
              "velocity": 100,
              "position": 2.5,
              "duration": 0.004166666666666667
            },
            {
              "pitch": 46,
              "velocity": 48,
              "position": 2.5,
              "duration": 0.004166666666666667
            },
            {
              "pitch": 38,
              "velocity": 116,
              "position": 3,
              "duration": 0.004166666666666667
            },
            {
              "pitch": 46,
              "velocity": 80,
              "position": 3,
              "duration": 0.004166666666666667
            },
            {
              "pitch": 36,
              "velocity": 80,
              "position": 3.5,
              "duration": 0.004166666666666667
            },
            {
              "pitch": 46,
              "velocity": 48,
              "position": 3.5,
              "duration": 0.004166666666666667
            },
            {
              "pitch": 36,
              "velocity": 100,
              "position": 4,
              "duration": 0.004166666666666667
            },
            {
              "pitch": 46,
              "velocity": 80,
              "position": 4,
              "duration": 0.004166666666666667
            },
            {
              "pitch": 46,
              "velocity": 48,
              "position": 4.5,
              "duration": 0.004166666666666667
            },
            {
              "pitch": 38,
              "velocity": 116,
              "position": 5,
              "duration": 0.004166666666666667
            },
            {
              "pitch": 46,
              "velocity": 80,
              "position": 5,
              "duration": 0.004166666666666667
            },
            {
              "pitch": 46,
              "velocity": 48,
              "position": 5.5,
              "duration": 0.004166666666666667
            },
            {
              "pitch": 36,
              "velocity": 100,
              "position": 6,
              "duration": 0.004166666666666667
            },
            {
              "pitch": 46,
              "velocity": 80,
              "position": 6,
              "duration": 0.004166666666666667
            },
            {
              "pitch": 36,
              "velocity": 100,
              "position": 6.5,
              "duration": 0.004166666666666667
            },
            {
              "pitch": 46,
              "velocity": 48,
              "position": 6.5,
              "duration": 0.004166666666666667
            },
            {
              "pitch": 38,
              "velocity": 116,
              "position": 7,
              "duration": 0.004166666666666667
            },
            {
              "pitch": 46,
              "velocity": 80,
              "position": 7,
              "duration": 0.004166666666666667
            },
            {
              "pitch": 36,
              "velocity": 80,
              "position": 7.5,
              "duration": 0.004166666666666667
            },
            {
              "pitch": 46,
              "velocity": 48,
              "position": 7.5,
              "duration": 0.004166666666666667
            },
            {
              "pitch": 36,
              "velocity": 100,
              "position": 8,
              "duration": 0.004166666666666667
            },
            {
              "pitch": 46,
              "velocity": 80,
              "position": 8,
              "duration": 0.004166666666666667
            },
            {
              "pitch": 46,
              "velocity": 48,
              "position": 8.5,
              "duration": 0.004166666666666667
            },
            {
              "pitch": 38,
              "velocity": 116,
              "position": 9,
              "duration": 0.004166666666666667
            },
            {
              "pitch": 46,
              "velocity": 80,
              "position": 9,
              "duration": 0.004166666666666667
            },
            {
              "pitch": 46,
              "velocity": 48,
              "position": 9.5,
              "duration": 0.004166666666666667
            },
            {
              "pitch": 36,
              "velocity": 100,
              "position": 10,
              "duration": 0.004166666666666667
            },
            {
              "pitch": 46,
              "velocity": 80,
              "position": 10,
              "duration": 0.004166666666666667
            },
            {
              "pitch": 36,
              "velocity": 100,
              "position": 10.5,
              "duration": 0.004166666666666667
            },
            {
              "pitch": 46,
              "velocity": 48,
              "position": 10.5,
              "duration": 0.004166666666666667
            },
            {
              "pitch": 38,
              "velocity": 116,
              "position": 11,
              "duration": 0.004166666666666667
            },
            {
              "pitch": 46,
              "velocity": 80,
              "position": 11,
              "duration": 0.004166666666666667
            },
            {
              "pitch": 36,
              "velocity": 80,
              "position": 11.5,
              "duration": 0.004166666666666667
            },
            {
              "pitch": 46,
              "velocity": 48,
              "position": 11.5,
              "duration": 0.004166666666666667
            },
            {
              "pitch": 36,
              "velocity": 100,
              "position": 12,
              "duration": 0.004166666666666667
            },
            {
              "pitch": 46,
              "velocity": 80,
              "position": 12,
              "duration": 0.004166666666666667
            },
            {
              "pitch": 46,
              "velocity": 48,
              "position": 12.5,
              "duration": 0.004166666666666667
            },
            {
              "pitch": 38,
              "velocity": 116,
              "position": 13,
              "duration": 0.004166666666666667
            },
            {
              "pitch": 46,
              "velocity": 80,
              "position": 13,
              "duration": 0.004166666666666667
            },
            {
              "pitch": 46,
              "velocity": 48,
              "position": 13.5,
              "duration": 0.004166666666666667
            },
            {
              "pitch": 36,
              "velocity": 100,
              "position": 14,
              "duration": 0.004166666666666667
            },
            {
              "pitch": 46,
              "velocity": 80,
              "position": 14,
              "duration": 0.004166666666666667
            },
            {
              "pitch": 36,
              "velocity": 100,
              "position": 14.5,
              "duration": 0.004166666666666667
            },
            {
              "pitch": 46,
              "velocity": 48,
              "position": 14.5,
              "duration": 0.004166666666666667
            },
            {
              "pitch": 38,
              "velocity": 116,
              "position": 15,
              "duration": 0.004166666666666667
            },
            {
              "pitch": 46,
              "velocity": 80,
              "position": 15,
              "duration": 0.004166666666666667
            },
            {
              "pitch": 36,
              "velocity": 80,
              "position": 15.5,
              "duration": 0.004166666666666667
            },
            {
              "pitch": 46,
              "velocity": 48,
              "position": 15.5,
              "duration": 0.004166666666666667
            }
          ]
        },
        "10": {
          "ctab": {
            "srcChannel": 10,
            "name": "Bass A",
            "accType": "BASS",
            "editable": false,
            "mutedNotes": [],
            "mutedChords": [
              "sus4",
              "7aug",
              "Maj7aug",
              "dim",
              "minMaj7(9)",
              "minMaj7",
              "min(9)",
              "min",
              "aug"
            ],
            "autoStart": false,
            "sourceChordNote": 0,
            "sourceChordType": "Maj7",
            "ctb2Low": null,
            "ctb2Main": {
              "ntr": "ROOT_TRANSPOSITION",
              "ntt": "MELODY",
              "bassOn": true,
              "chordRootUpperLimit": 8,
              "noteLowLimit": 28,
              "noteHighLimit": 127,
              "rtr": "PITCH_SHIFT_TO_ROOT"
            },
            "ctb2High": null
          },
          "notes": [
            {
              "pitch": 24,
              "velocity": 80,
              "position": 0,
              "duration": 0.4895833333333333
            },
            {
              "pitch": 24,
              "velocity": 75,
              "position": 0.5,
              "duration": 0.4895833333333333
            },
            {
              "pitch": 24,
              "velocity": 80,
              "position": 1,
              "duration": 0.4895833333333333
            },
            {
              "pitch": 24,
              "velocity": 75,
              "position": 1.5,
              "duration": 0.4895833333333333
            },
            {
              "pitch": 24,
              "velocity": 80,
              "position": 2,
              "duration": 0.4895833333333333
            },
            {
              "pitch": 24,
              "velocity": 75,
              "position": 2.5,
              "duration": 0.4895833333333333
            },
            {
              "pitch": 24,
              "velocity": 80,
              "position": 3,
              "duration": 0.4895833333333333
            },
            {
              "pitch": 24,
              "velocity": 75,
              "position": 3.5,
              "duration": 0.4895833333333333
            },
            {
              "pitch": 24,
              "velocity": 80,
              "position": 4,
              "duration": 0.4895833333333333
            },
            {
              "pitch": 24,
              "velocity": 75,
              "position": 4.5,
              "duration": 0.4895833333333333
            },
            {
              "pitch": 24,
              "velocity": 80,
              "position": 5,
              "duration": 0.4895833333333333
            },
            {
              "pitch": 24,
              "velocity": 75,
              "position": 5.5,
              "duration": 0.4895833333333333
            },
            {
              "pitch": 24,
              "velocity": 80,
              "position": 6,
              "duration": 0.4895833333333333
            },
            {
              "pitch": 24,
              "velocity": 75,
              "position": 6.5,
              "duration": 0.4895833333333333
            },
            {
              "pitch": 24,
              "velocity": 80,
              "position": 7,
              "duration": 0.4895833333333333
            },
            {
              "pitch": 24,
              "velocity": 75,
              "position": 7.5,
              "duration": 0.4895833333333333
            },
            {
              "pitch": 24,
              "velocity": 80,
              "position": 8,
              "duration": 0.4895833333333333
            },
            {
              "pitch": 24,
              "velocity": 75,
              "position": 8.5,
              "duration": 0.4895833333333333
            },
            {
              "pitch": 24,
              "velocity": 80,
              "position": 9,
              "duration": 0.4895833333333333
            },
            {
              "pitch": 24,
              "velocity": 75,
              "position": 9.5,
              "duration": 0.4895833333333333
            },
            {
              "pitch": 24,
              "velocity": 80,
              "position": 10,
              "duration": 0.4895833333333333
            },
            {
              "pitch": 24,
              "velocity": 75,
              "position": 10.5,
              "duration": 0.4895833333333333
            },
            {
              "pitch": 24,
              "velocity": 80,
              "position": 11,
              "duration": 0.4895833333333333
            },
            {
              "pitch": 24,
              "velocity": 75,
              "position": 11.5,
              "duration": 0.4895833333333333
            },
            {
              "pitch": 24,
              "velocity": 80,
              "position": 12,
              "duration": 0.4895833333333333
            },
            {
              "pitch": 24,
              "velocity": 75,
              "position": 12.5,
              "duration": 0.4895833333333333
            },
            {
              "pitch": 24,
              "velocity": 80,
              "position": 13,
              "duration": 0.4895833333333333
            },
            {
              "pitch": 24,
              "velocity": 75,
              "position": 13.5,
              "duration": 0.4895833333333333
            },
            {
              "pitch": 24,
              "velocity": 80,
              "position": 14,
              "duration": 0.4895833333333333
            },
            {
              "pitch": 24,
              "velocity": 75,
              "position": 14.5,
              "duration": 0.4895833333333333
            },
            {
              "pitch": 24,
              "velocity": 80,
              "position": 15,
              "duration": 0.4895833333333333
            },
            {
              "pitch": 24,
              "velocity": 75,
              "position": 15.5,
              "duration": 0.4895833333333333
            }
          ]
        },
        "11": {
          "ctab": {
            "srcChannel": 11,
            "name": "Tele",
            "accType": "CHORD1",
            "editable": false,
            "mutedNotes": [],
            "mutedChords": [],
            "autoStart": false,
            "sourceChordNote": 0,
            "sourceChordType": "Maj7",
            "ctb2Low": null,
            "ctb2Main": {
              "ntr": "ROOT_TRANSPOSITION",
              "ntt": "BYPASS",
              "bassOn": false,
              "chordRootUpperLimit": 3,
              "noteLowLimit": 47,
              "noteHighLimit": 127,
              "rtr": "PITCH_SHIFT"
            },
            "ctb2High": null
          },
          "notes": [
            {
              "pitch": 76,
              "velocity": 30,
              "position": 0.020833333333333332,
              "duration": 0.45625
            },
            {
              "pitch": 72,
              "velocity": 30,
              "position": 0.020833333333333332,
              "duration": 0.45625
            },
            {
              "pitch": 67,
              "velocity": 30,
              "position": 0.020833333333333332,
              "duration": 0.45625
            },
            {
              "pitch": 71,
              "velocity": 30,
              "position": 0.020833333333333332,
              "duration": 0.45625
            },
            {
              "pitch": 64,
              "velocity": 33,
              "position": 0.010416666666666666,
              "duration": 0.4666666666666667
            },
            {
              "pitch": 36,
              "velocity": 39,
              "position": 0,
              "duration": 0.47708333333333336
            },
            {
              "pitch": 36,
              "velocity": 80,
              "position": 0.48541666666666666,
              "duration": 0.19166666666666668
            },
            {
              "pitch": 43,
              "velocity": 76,
              "position": 0.5166666666666667,
              "duration": 0.19166666666666668
            },
            {
              "pitch": 47,
              "velocity": 76,
              "position": 0.5166666666666667,
              "duration": 0.19166666666666668
            },
            {
              "pitch": 36,
              "velocity": 86,
              "position": 0.99375,
              "duration": 0.18333333333333332
            },
            {
              "pitch": 43,
              "velocity": 76,
              "position": 1.025,
              "duration": 0.18333333333333332
            },
            {
              "pitch": 47,
              "velocity": 76,
              "position": 1.025,
              "duration": 0.18333333333333332
            },
            {
              "pitch": 36,
              "velocity": 39,
              "position": 1.5,
              "duration": 1.48125
            },
            {
              "pitch": 76,
              "velocity": 30,
              "position": 1.5208333333333333,
              "duration": 1.4604166666666667
            },
            {
              "pitch": 72,
              "velocity": 30,
              "position": 1.5208333333333333,
              "duration": 1.4604166666666667
            },
            {
              "pitch": 67,
              "velocity": 30,
              "position": 1.5208333333333333,
              "duration": 1.4604166666666667
            },
            {
              "pitch": 71,
              "velocity": 30,
              "position": 1.5208333333333333,
              "duration": 1.4604166666666667
            },
            {
              "pitch": 64,
              "velocity": 33,
              "position": 1.5104166666666667,
              "duration": 1.4708333333333334
            },
            {
              "pitch": 36,
              "velocity": 84,
              "position": 2.9895833333333335,
              "duration": 0.19583333333333333
            },
            {
              "pitch": 43,
              "velocity": 76,
              "position": 3.0208333333333335,
              "duration": 0.19583333333333333
            },
            {
              "pitch": 47,
              "velocity": 76,
              "position": 3.0208333333333335,
              "duration": 0.19583333333333333
            },
            {
              "pitch": 36,
              "velocity": 81,
              "position": 3.5125,
              "duration": 0.23958333333333334
            },
            {
              "pitch": 43,
              "velocity": 76,
              "position": 3.54375,
              "duration": 0.23958333333333334
            },
            {
              "pitch": 47,
              "velocity": 76,
              "position": 3.54375,
              "duration": 0.23958333333333334
            },
            {
              "pitch": 76,
              "velocity": 30,
              "position": 4.020833333333333,
              "duration": 0.45208333333333334
            },
            {
              "pitch": 72,
              "velocity": 30,
              "position": 4.020833333333333,
              "duration": 0.45208333333333334
            },
            {
              "pitch": 67,
              "velocity": 30,
              "position": 4.020833333333333,
              "duration": 0.45208333333333334
            },
            {
              "pitch": 71,
              "velocity": 30,
              "position": 4.020833333333333,
              "duration": 0.45208333333333334
            },
            {
              "pitch": 64,
              "velocity": 33,
              "position": 4.010416666666667,
              "duration": 0.4625
            },
            {
              "pitch": 36,
              "velocity": 39,
              "position": 4,
              "duration": 0.47291666666666665
            },
            {
              "pitch": 36,
              "velocity": 83,
              "position": 4.48125,
              "duration": 0.22916666666666666
            },
            {
              "pitch": 43,
              "velocity": 76,
              "position": 4.5125,
              "duration": 0.22916666666666666
            },
            {
              "pitch": 47,
              "velocity": 76,
              "position": 4.5125,
              "duration": 0.22916666666666666
            },
            {
              "pitch": 36,
              "velocity": 84,
              "position": 5.008333333333334,
              "duration": 0.21666666666666667
            },
            {
              "pitch": 43,
              "velocity": 76,
              "position": 5.039583333333334,
              "duration": 0.21666666666666667
            },
            {
              "pitch": 47,
              "velocity": 76,
              "position": 5.039583333333334,
              "duration": 0.21666666666666667
            },
            {
              "pitch": 72,
              "velocity": 30,
              "position": 5.520833333333333,
              "duration": 0.9708333333333333
            },
            {
              "pitch": 76,
              "velocity": 30,
              "position": 5.520833333333333,
              "duration": 0.9708333333333333
            },
            {
              "pitch": 36,
              "velocity": 39,
              "position": 5.5,
              "duration": 1.4833333333333334
            },
            {
              "pitch": 72,
              "velocity": 21,
              "position": 6.520833333333333,
              "duration": 0.4625
            },
            {
              "pitch": 76,
              "velocity": 21,
              "position": 6.520833333333333,
              "duration": 0.4625
            },
            {
              "pitch": 67,
              "velocity": 30,
              "position": 5.520833333333333,
              "duration": 1.4708333333333334
            },
            {
              "pitch": 71,
              "velocity": 30,
              "position": 5.520833333333333,
              "duration": 1.4708333333333334
            },
            {
              "pitch": 64,
              "velocity": 33,
              "position": 5.510416666666667,
              "duration": 1.48125
            },
            {
              "pitch": 36,
              "velocity": 88,
              "position": 6.991666666666666,
              "duration": 0.17083333333333334
            },
            {
              "pitch": 43,
              "velocity": 76,
              "position": 7.022916666666666,
              "duration": 0.17083333333333334
            },
            {
              "pitch": 47,
              "velocity": 76,
              "position": 7.022916666666666,
              "duration": 0.17083333333333334
            },
            {
              "pitch": 36,
              "velocity": 80,
              "position": 7.5125,
              "duration": 0.18541666666666667
            },
            {
              "pitch": 43,
              "velocity": 76,
              "position": 7.54375,
              "duration": 0.18541666666666667
            },
            {
              "pitch": 47,
              "velocity": 76,
              "position": 7.54375,
              "duration": 0.18541666666666667
            },
            {
              "pitch": 76,
              "velocity": 30,
              "position": 8.020833333333334,
              "duration": 0.4708333333333333
            },
            {
              "pitch": 72,
              "velocity": 30,
              "position": 8.020833333333334,
              "duration": 0.4708333333333333
            },
            {
              "pitch": 67,
              "velocity": 30,
              "position": 8.020833333333334,
              "duration": 0.4708333333333333
            },
            {
              "pitch": 71,
              "velocity": 30,
              "position": 8.020833333333334,
              "duration": 0.4708333333333333
            },
            {
              "pitch": 64,
              "velocity": 33,
              "position": 8.010416666666666,
              "duration": 0.48125
            },
            {
              "pitch": 36,
              "velocity": 39,
              "position": 8,
              "duration": 0.49166666666666664
            },
            {
              "pitch": 36,
              "velocity": 81,
              "position": 8.5,
              "duration": 0.24375
            },
            {
              "pitch": 43,
              "velocity": 76,
              "position": 8.53125,
              "duration": 0.24375
            },
            {
              "pitch": 47,
              "velocity": 76,
              "position": 8.53125,
              "duration": 0.24375
            },
            {
              "pitch": 36,
              "velocity": 86,
              "position": 8.9875,
              "duration": 0.18541666666666667
            },
            {
              "pitch": 43,
              "velocity": 76,
              "position": 9.01875,
              "duration": 0.18541666666666667
            },
            {
              "pitch": 47,
              "velocity": 76,
              "position": 9.01875,
              "duration": 0.18541666666666667
            },
            {
              "pitch": 76,
              "velocity": 30,
              "position": 9.520833333333334,
              "duration": 1.4541666666666666
            },
            {
              "pitch": 72,
              "velocity": 30,
              "position": 9.520833333333334,
              "duration": 1.4541666666666666
            },
            {
              "pitch": 67,
              "velocity": 30,
              "position": 9.520833333333334,
              "duration": 1.4541666666666666
            },
            {
              "pitch": 71,
              "velocity": 30,
              "position": 9.520833333333334,
              "duration": 1.4541666666666666
            },
            {
              "pitch": 64,
              "velocity": 33,
              "position": 9.510416666666666,
              "duration": 1.4645833333333333
            },
            {
              "pitch": 36,
              "velocity": 39,
              "position": 9.5,
              "duration": 1.475
            },
            {
              "pitch": 36,
              "velocity": 88,
              "position": 10.983333333333333,
              "duration": 0.23333333333333334
            },
            {
              "pitch": 43,
              "velocity": 76,
              "position": 11.014583333333333,
              "duration": 0.23333333333333334
            },
            {
              "pitch": 47,
              "velocity": 76,
              "position": 11.014583333333333,
              "duration": 0.23333333333333334
            },
            {
              "pitch": 36,
              "velocity": 81,
              "position": 11.483333333333333,
              "duration": 0.23125
            },
            {
              "pitch": 43,
              "velocity": 76,
              "position": 11.514583333333333,
              "duration": 0.23125
            },
            {
              "pitch": 47,
              "velocity": 76,
              "position": 11.514583333333333,
              "duration": 0.23125
            },
            {
              "pitch": 76,
              "velocity": 30,
              "position": 12.020833333333334,
              "duration": 0.4708333333333333
            },
            {
              "pitch": 72,
              "velocity": 30,
              "position": 12.020833333333334,
              "duration": 0.4708333333333333
            },
            {
              "pitch": 67,
              "velocity": 30,
              "position": 12.020833333333334,
              "duration": 0.4708333333333333
            },
            {
              "pitch": 71,
              "velocity": 30,
              "position": 12.020833333333334,
              "duration": 0.4708333333333333
            },
            {
              "pitch": 64,
              "velocity": 33,
              "position": 12.010416666666666,
              "duration": 0.48125
            },
            {
              "pitch": 36,
              "velocity": 39,
              "position": 12,
              "duration": 0.49166666666666664
            },
            {
              "pitch": 36,
              "velocity": 83,
              "position": 12.508333333333333,
              "duration": 0.21041666666666667
            },
            {
              "pitch": 43,
              "velocity": 76,
              "position": 12.539583333333333,
              "duration": 0.21041666666666667
            },
            {
              "pitch": 47,
              "velocity": 76,
              "position": 12.539583333333333,
              "duration": 0.21041666666666667
            },
            {
              "pitch": 36,
              "velocity": 86,
              "position": 12.983333333333333,
              "duration": 0.22916666666666666
            },
            {
              "pitch": 43,
              "velocity": 76,
              "position": 13.014583333333333,
              "duration": 0.22916666666666666
            },
            {
              "pitch": 47,
              "velocity": 76,
              "position": 13.014583333333333,
              "duration": 0.22916666666666666
            },
            {
              "pitch": 72,
              "velocity": 30,
              "position": 13.520833333333334,
              "duration": 0.9708333333333333
            },
            {
              "pitch": 76,
              "velocity": 30,
              "position": 13.520833333333334,
              "duration": 0.9708333333333333
            },
            {
              "pitch": 36,
              "velocity": 39,
              "position": 13.5,
              "duration": 1.4895833333333333
            },
            {
              "pitch": 72,
              "velocity": 21,
              "position": 14.520833333333334,
              "duration": 0.46875
            },
            {
              "pitch": 76,
              "velocity": 21,
              "position": 14.520833333333334,
              "duration": 0.46875
            },
            {
              "pitch": 67,
              "velocity": 30,
              "position": 13.520833333333334,
              "duration": 1.4708333333333334
            },
            {
              "pitch": 71,
              "velocity": 30,
              "position": 13.520833333333334,
              "duration": 1.4708333333333334
            },
            {
              "pitch": 64,
              "velocity": 33,
              "position": 13.510416666666666,
              "duration": 1.48125
            },
            {
              "pitch": 36,
              "velocity": 88,
              "position": 14.997916666666667,
              "duration": 0.22916666666666666
            },
            {
              "pitch": 43,
              "velocity": 76,
              "position": 15.029166666666667,
              "duration": 0.22916666666666666
            },
            {
              "pitch": 47,
              "velocity": 76,
              "position": 15.029166666666667,
              "duration": 0.22916666666666666
            },
            {
              "pitch": 36,
              "velocity": 83,
              "position": 15.50625,
              "duration": 0.17291666666666666
            },
            {
              "pitch": 43,
              "velocity": 76,
              "position": 15.5375,
              "duration": 0.17291666666666666
            },
            {
              "pitch": 47,
              "velocity": 76,
              "position": 15.5375,
              "duration": 0.17291666666666666
            }
          ]
        },
        "12": {
          "ctab": {
            "srcChannel": 12,
            "name": "Solid",
            "accType": "CHORD2",
            "editable": false,
            "mutedNotes": [],
            "mutedChords": [],
            "autoStart": false,
            "sourceChordNote": 0,
            "sourceChordType": "Maj7",
            "ctb2Low": null,
            "ctb2Main": {
              "ntr": "ROOT_TRANSPOSITION",
              "ntt": "BYPASS",
              "bassOn": false,
              "chordRootUpperLimit": 8,
              "noteLowLimit": 0,
              "noteHighLimit": 127,
              "rtr": "PITCH_SHIFT"
            },
            "ctb2High": null
          },
          "notes": [
            {
              "pitch": 76,
              "velocity": 30,
              "position": 0.020833333333333332,
              "duration": 0.45625
            },
            {
              "pitch": 72,
              "velocity": 30,
              "position": 0.020833333333333332,
              "duration": 0.45625
            },
            {
              "pitch": 67,
              "velocity": 30,
              "position": 0.020833333333333332,
              "duration": 0.45625
            },
            {
              "pitch": 71,
              "velocity": 30,
              "position": 0.020833333333333332,
              "duration": 0.45625
            },
            {
              "pitch": 64,
              "velocity": 30,
              "position": 0.010416666666666666,
              "duration": 0.4666666666666667
            },
            {
              "pitch": 36,
              "velocity": 41,
              "position": 0,
              "duration": 0.47708333333333336
            },
            {
              "pitch": 36,
              "velocity": 80,
              "position": 0.48541666666666666,
              "duration": 0.19166666666666668
            },
            {
              "pitch": 43,
              "velocity": 76,
              "position": 0.5166666666666667,
              "duration": 0.19166666666666668
            },
            {
              "pitch": 47,
              "velocity": 76,
              "position": 0.5166666666666667,
              "duration": 0.19166666666666668
            },
            {
              "pitch": 36,
              "velocity": 86,
              "position": 0.99375,
              "duration": 0.18333333333333332
            },
            {
              "pitch": 43,
              "velocity": 76,
              "position": 1.025,
              "duration": 0.18333333333333332
            },
            {
              "pitch": 47,
              "velocity": 76,
              "position": 1.025,
              "duration": 0.18333333333333332
            },
            {
              "pitch": 36,
              "velocity": 41,
              "position": 1.5,
              "duration": 1.48125
            },
            {
              "pitch": 76,
              "velocity": 30,
              "position": 1.5208333333333333,
              "duration": 1.4604166666666667
            },
            {
              "pitch": 72,
              "velocity": 30,
              "position": 1.5208333333333333,
              "duration": 1.4604166666666667
            },
            {
              "pitch": 67,
              "velocity": 30,
              "position": 1.5208333333333333,
              "duration": 1.4604166666666667
            },
            {
              "pitch": 71,
              "velocity": 30,
              "position": 1.5208333333333333,
              "duration": 1.4604166666666667
            },
            {
              "pitch": 64,
              "velocity": 30,
              "position": 1.5104166666666667,
              "duration": 1.4708333333333334
            },
            {
              "pitch": 36,
              "velocity": 84,
              "position": 2.9895833333333335,
              "duration": 0.19583333333333333
            },
            {
              "pitch": 43,
              "velocity": 76,
              "position": 3.0208333333333335,
              "duration": 0.19583333333333333
            },
            {
              "pitch": 47,
              "velocity": 76,
              "position": 3.0208333333333335,
              "duration": 0.19583333333333333
            },
            {
              "pitch": 36,
              "velocity": 81,
              "position": 3.5125,
              "duration": 0.23958333333333334
            },
            {
              "pitch": 43,
              "velocity": 76,
              "position": 3.54375,
              "duration": 0.23958333333333334
            },
            {
              "pitch": 47,
              "velocity": 76,
              "position": 3.54375,
              "duration": 0.23958333333333334
            },
            {
              "pitch": 76,
              "velocity": 30,
              "position": 4.020833333333333,
              "duration": 0.45208333333333334
            },
            {
              "pitch": 72,
              "velocity": 30,
              "position": 4.020833333333333,
              "duration": 0.45208333333333334
            },
            {
              "pitch": 67,
              "velocity": 30,
              "position": 4.020833333333333,
              "duration": 0.45208333333333334
            },
            {
              "pitch": 71,
              "velocity": 30,
              "position": 4.020833333333333,
              "duration": 0.45208333333333334
            },
            {
              "pitch": 64,
              "velocity": 30,
              "position": 4.010416666666667,
              "duration": 0.4625
            },
            {
              "pitch": 36,
              "velocity": 41,
              "position": 4,
              "duration": 0.47291666666666665
            },
            {
              "pitch": 36,
              "velocity": 83,
              "position": 4.48125,
              "duration": 0.22916666666666666
            },
            {
              "pitch": 43,
              "velocity": 76,
              "position": 4.5125,
              "duration": 0.22916666666666666
            },
            {
              "pitch": 47,
              "velocity": 76,
              "position": 4.5125,
              "duration": 0.22916666666666666
            },
            {
              "pitch": 36,
              "velocity": 84,
              "position": 5.008333333333334,
              "duration": 0.21666666666666667
            },
            {
              "pitch": 43,
              "velocity": 76,
              "position": 5.039583333333334,
              "duration": 0.21666666666666667
            },
            {
              "pitch": 47,
              "velocity": 76,
              "position": 5.039583333333334,
              "duration": 0.21666666666666667
            },
            {
              "pitch": 72,
              "velocity": 30,
              "position": 5.520833333333333,
              "duration": 0.9708333333333333
            },
            {
              "pitch": 76,
              "velocity": 30,
              "position": 5.520833333333333,
              "duration": 0.9708333333333333
            },
            {
              "pitch": 36,
              "velocity": 41,
              "position": 5.5,
              "duration": 1.4833333333333334
            },
            {
              "pitch": 72,
              "velocity": 21,
              "position": 6.520833333333333,
              "duration": 0.4625
            },
            {
              "pitch": 76,
              "velocity": 21,
              "position": 6.520833333333333,
              "duration": 0.4625
            },
            {
              "pitch": 67,
              "velocity": 30,
              "position": 5.520833333333333,
              "duration": 1.4708333333333334
            },
            {
              "pitch": 71,
              "velocity": 30,
              "position": 5.520833333333333,
              "duration": 1.4708333333333334
            },
            {
              "pitch": 64,
              "velocity": 30,
              "position": 5.510416666666667,
              "duration": 1.48125
            },
            {
              "pitch": 36,
              "velocity": 88,
              "position": 6.991666666666666,
              "duration": 0.17083333333333334
            },
            {
              "pitch": 43,
              "velocity": 76,
              "position": 7.022916666666666,
              "duration": 0.17083333333333334
            },
            {
              "pitch": 47,
              "velocity": 76,
              "position": 7.022916666666666,
              "duration": 0.17083333333333334
            },
            {
              "pitch": 36,
              "velocity": 80,
              "position": 7.5125,
              "duration": 0.18541666666666667
            },
            {
              "pitch": 43,
              "velocity": 76,
              "position": 7.54375,
              "duration": 0.18541666666666667
            },
            {
              "pitch": 47,
              "velocity": 76,
              "position": 7.54375,
              "duration": 0.18541666666666667
            },
            {
              "pitch": 76,
              "velocity": 30,
              "position": 8.020833333333334,
              "duration": 0.4708333333333333
            },
            {
              "pitch": 72,
              "velocity": 30,
              "position": 8.020833333333334,
              "duration": 0.4708333333333333
            },
            {
              "pitch": 67,
              "velocity": 30,
              "position": 8.020833333333334,
              "duration": 0.4708333333333333
            },
            {
              "pitch": 71,
              "velocity": 30,
              "position": 8.020833333333334,
              "duration": 0.4708333333333333
            },
            {
              "pitch": 64,
              "velocity": 30,
              "position": 8.010416666666666,
              "duration": 0.48125
            },
            {
              "pitch": 36,
              "velocity": 41,
              "position": 8,
              "duration": 0.49166666666666664
            },
            {
              "pitch": 36,
              "velocity": 81,
              "position": 8.5,
              "duration": 0.24375
            },
            {
              "pitch": 43,
              "velocity": 76,
              "position": 8.53125,
              "duration": 0.24375
            },
            {
              "pitch": 47,
              "velocity": 76,
              "position": 8.53125,
              "duration": 0.24375
            },
            {
              "pitch": 36,
              "velocity": 86,
              "position": 8.9875,
              "duration": 0.18541666666666667
            },
            {
              "pitch": 43,
              "velocity": 76,
              "position": 9.01875,
              "duration": 0.18541666666666667
            },
            {
              "pitch": 47,
              "velocity": 76,
              "position": 9.01875,
              "duration": 0.18541666666666667
            },
            {
              "pitch": 76,
              "velocity": 30,
              "position": 9.520833333333334,
              "duration": 1.4541666666666666
            },
            {
              "pitch": 72,
              "velocity": 30,
              "position": 9.520833333333334,
              "duration": 1.4541666666666666
            },
            {
              "pitch": 67,
              "velocity": 30,
              "position": 9.520833333333334,
              "duration": 1.4541666666666666
            },
            {
              "pitch": 71,
              "velocity": 30,
              "position": 9.520833333333334,
              "duration": 1.4541666666666666
            },
            {
              "pitch": 64,
              "velocity": 30,
              "position": 9.510416666666666,
              "duration": 1.4645833333333333
            },
            {
              "pitch": 36,
              "velocity": 41,
              "position": 9.5,
              "duration": 1.475
            },
            {
              "pitch": 36,
              "velocity": 88,
              "position": 10.983333333333333,
              "duration": 0.23333333333333334
            },
            {
              "pitch": 43,
              "velocity": 76,
              "position": 11.014583333333333,
              "duration": 0.23333333333333334
            },
            {
              "pitch": 47,
              "velocity": 76,
              "position": 11.014583333333333,
              "duration": 0.23333333333333334
            },
            {
              "pitch": 36,
              "velocity": 81,
              "position": 11.483333333333333,
              "duration": 0.23125
            },
            {
              "pitch": 43,
              "velocity": 76,
              "position": 11.514583333333333,
              "duration": 0.23125
            },
            {
              "pitch": 47,
              "velocity": 76,
              "position": 11.514583333333333,
              "duration": 0.23125
            },
            {
              "pitch": 76,
              "velocity": 30,
              "position": 12.020833333333334,
              "duration": 0.4708333333333333
            },
            {
              "pitch": 72,
              "velocity": 30,
              "position": 12.020833333333334,
              "duration": 0.4708333333333333
            },
            {
              "pitch": 67,
              "velocity": 30,
              "position": 12.020833333333334,
              "duration": 0.4708333333333333
            },
            {
              "pitch": 71,
              "velocity": 30,
              "position": 12.020833333333334,
              "duration": 0.4708333333333333
            },
            {
              "pitch": 64,
              "velocity": 30,
              "position": 12.010416666666666,
              "duration": 0.48125
            },
            {
              "pitch": 36,
              "velocity": 41,
              "position": 12,
              "duration": 0.49166666666666664
            },
            {
              "pitch": 36,
              "velocity": 83,
              "position": 12.508333333333333,
              "duration": 0.21041666666666667
            },
            {
              "pitch": 43,
              "velocity": 76,
              "position": 12.539583333333333,
              "duration": 0.21041666666666667
            },
            {
              "pitch": 47,
              "velocity": 76,
              "position": 12.539583333333333,
              "duration": 0.21041666666666667
            },
            {
              "pitch": 36,
              "velocity": 86,
              "position": 12.983333333333333,
              "duration": 0.22916666666666666
            },
            {
              "pitch": 43,
              "velocity": 76,
              "position": 13.014583333333333,
              "duration": 0.22916666666666666
            },
            {
              "pitch": 47,
              "velocity": 76,
              "position": 13.014583333333333,
              "duration": 0.22916666666666666
            },
            {
              "pitch": 72,
              "velocity": 30,
              "position": 13.520833333333334,
              "duration": 0.9708333333333333
            },
            {
              "pitch": 76,
              "velocity": 30,
              "position": 13.520833333333334,
              "duration": 0.9708333333333333
            },
            {
              "pitch": 36,
              "velocity": 41,
              "position": 13.5,
              "duration": 1.4895833333333333
            },
            {
              "pitch": 72,
              "velocity": 21,
              "position": 14.520833333333334,
              "duration": 0.46875
            },
            {
              "pitch": 76,
              "velocity": 21,
              "position": 14.520833333333334,
              "duration": 0.46875
            },
            {
              "pitch": 67,
              "velocity": 30,
              "position": 13.520833333333334,
              "duration": 1.4708333333333334
            },
            {
              "pitch": 71,
              "velocity": 30,
              "position": 13.520833333333334,
              "duration": 1.4708333333333334
            },
            {
              "pitch": 64,
              "velocity": 30,
              "position": 13.510416666666666,
              "duration": 1.48125
            },
            {
              "pitch": 36,
              "velocity": 88,
              "position": 14.997916666666667,
              "duration": 0.22916666666666666
            },
            {
              "pitch": 43,
              "velocity": 76,
              "position": 15.029166666666667,
              "duration": 0.22916666666666666
            },
            {
              "pitch": 47,
              "velocity": 76,
              "position": 15.029166666666667,
              "duration": 0.22916666666666666
            },
            {
              "pitch": 36,
              "velocity": 83,
              "position": 15.50625,
              "duration": 0.17291666666666666
            },
            {
              "pitch": 43,
              "velocity": 76,
              "position": 15.5375,
              "duration": 0.17291666666666666
            },
            {
              "pitch": 47,
              "velocity": 76,
              "position": 15.5375,
              "duration": 0.17291666666666666
            }
          ]
        },
        "13": {
          "ctab": {
            "srcChannel": 13,
            "name": "Organ",
            "accType": "PAD",
            "editable": false,
            "mutedNotes": [],
            "mutedChords": [],
            "autoStart": false,
            "sourceChordNote": 0,
            "sourceChordType": "Maj7",
            "ctb2Low": null,
            "ctb2Main": {
              "ntr": "ROOT_FIXED",
              "ntt": "CHORD",
              "bassOn": false,
              "chordRootUpperLimit": 7,
              "noteLowLimit": 0,
              "noteHighLimit": 127,
              "rtr": "PITCH_SHIFT"
            },
            "ctb2High": null
          },
          "notes": [
            {
              "pitch": 55,
              "velocity": 60,
              "position": 0,
              "duration": 15.989583333333334
            },
            {
              "pitch": 64,
              "velocity": 60,
              "position": 0,
              "duration": 15.989583333333334
            },
            {
              "pitch": 59,
              "velocity": 60,
              "position": 0,
              "duration": 15.989583333333334
            }
          ]
        }
      }
    },
    "Main_D": {
      "type": "Main_D",
      "sizeInBeats": 16,
      "channels": {
        "1": {
          "ctab": {
            "srcChannel": 1,
            "name": "Bass B",
            "accType": "BASS",
            "editable": false,
            "mutedNotes": [],
            "mutedChords": [
              "1+2+5",
              "1+5",
              "1+8",
              "7(#9)",
              "7(b13)",
              "7(b9)",
              "7(13)",
              "7#11",
              "7(9)",
              "7b5",
              "7sus4",
              "7th",
              "dim7",
              "min7(11)",
              "min7(9)",
              "m7b5",
              "min7",
              "min6",
              "Maj6(9)",
              "Maj7(9)",
              "Maj(9)",
              "Maj7#11",
              "Maj7",
              "Maj6",
              "Maj"
            ],
            "autoStart": false,
            "sourceChordNote": 0,
            "sourceChordType": "Maj7",
            "ctb2Low": null,
            "ctb2Main": {
              "ntr": "ROOT_TRANSPOSITION",
              "ntt": "MELODY",
              "bassOn": true,
              "chordRootUpperLimit": 8,
              "noteLowLimit": 28,
              "noteHighLimit": 127,
              "rtr": "PITCH_SHIFT_TO_ROOT"
            },
            "ctb2High": null
          },
          "notes": [
            {
              "pitch": 24,
              "velocity": 80,
              "position": 0,
              "duration": 0.4375
            },
            {
              "pitch": 24,
              "velocity": 75,
              "position": 0.5,
              "duration": 0.1875
            },
            {
              "pitch": 24,
              "velocity": 72,
              "position": 0.75,
              "duration": 0.1875
            },
            {
              "pitch": 24,
              "velocity": 80,
              "position": 1,
              "duration": 0.4375
            },
            {
              "pitch": 24,
              "velocity": 75,
              "position": 1.5,
              "duration": 0.1875
            },
            {
              "pitch": 24,
              "velocity": 72,
              "position": 1.75,
              "duration": 0.1875
            },
            {
              "pitch": 24,
              "velocity": 80,
              "position": 2,
              "duration": 0.4375
            },
            {
              "pitch": 24,
              "velocity": 75,
              "position": 2.5,
              "duration": 0.1875
            },
            {
              "pitch": 24,
              "velocity": 72,
              "position": 2.75,
              "duration": 0.1875
            },
            {
              "pitch": 24,
              "velocity": 80,
              "position": 3,
              "duration": 0.4375
            },
            {
              "pitch": 24,
              "velocity": 75,
              "position": 3.5,
              "duration": 0.1875
            },
            {
              "pitch": 24,
              "velocity": 72,
              "position": 3.75,
              "duration": 0.1875
            },
            {
              "pitch": 24,
              "velocity": 80,
              "position": 4,
              "duration": 0.4375
            },
            {
              "pitch": 24,
              "velocity": 75,
              "position": 4.5,
              "duration": 0.1875
            },
            {
              "pitch": 24,
              "velocity": 72,
              "position": 4.75,
              "duration": 0.1875
            },
            {
              "pitch": 24,
              "velocity": 80,
              "position": 5,
              "duration": 0.4375
            },
            {
              "pitch": 24,
              "velocity": 75,
              "position": 5.5,
              "duration": 0.1875
            },
            {
              "pitch": 24,
              "velocity": 72,
              "position": 5.75,
              "duration": 0.1875
            },
            {
              "pitch": 24,
              "velocity": 80,
              "position": 6,
              "duration": 0.4375
            },
            {
              "pitch": 24,
              "velocity": 75,
              "position": 6.5,
              "duration": 0.1875
            },
            {
              "pitch": 24,
              "velocity": 72,
              "position": 6.75,
              "duration": 0.1875
            },
            {
              "pitch": 24,
              "velocity": 80,
              "position": 7,
              "duration": 0.4375
            },
            {
              "pitch": 24,
              "velocity": 75,
              "position": 7.5,
              "duration": 0.1875
            },
            {
              "pitch": 24,
              "velocity": 72,
              "position": 7.75,
              "duration": 0.1875
            },
            {
              "pitch": 24,
              "velocity": 80,
              "position": 8,
              "duration": 0.4375
            },
            {
              "pitch": 24,
              "velocity": 75,
              "position": 8.5,
              "duration": 0.1875
            },
            {
              "pitch": 24,
              "velocity": 72,
              "position": 8.75,
              "duration": 0.1875
            },
            {
              "pitch": 24,
              "velocity": 80,
              "position": 9,
              "duration": 0.4375
            },
            {
              "pitch": 24,
              "velocity": 75,
              "position": 9.5,
              "duration": 0.1875
            },
            {
              "pitch": 24,
              "velocity": 72,
              "position": 9.75,
              "duration": 0.1875
            },
            {
              "pitch": 24,
              "velocity": 80,
              "position": 10,
              "duration": 0.4375
            },
            {
              "pitch": 24,
              "velocity": 75,
              "position": 10.5,
              "duration": 0.1875
            },
            {
              "pitch": 24,
              "velocity": 72,
              "position": 10.75,
              "duration": 0.1875
            },
            {
              "pitch": 24,
              "velocity": 80,
              "position": 11,
              "duration": 0.4375
            },
            {
              "pitch": 24,
              "velocity": 75,
              "position": 11.5,
              "duration": 0.1875
            },
            {
              "pitch": 24,
              "velocity": 72,
              "position": 11.75,
              "duration": 0.1875
            },
            {
              "pitch": 24,
              "velocity": 80,
              "position": 12,
              "duration": 0.4375
            },
            {
              "pitch": 24,
              "velocity": 75,
              "position": 12.5,
              "duration": 0.1875
            },
            {
              "pitch": 24,
              "velocity": 72,
              "position": 12.75,
              "duration": 0.1875
            },
            {
              "pitch": 24,
              "velocity": 80,
              "position": 13,
              "duration": 0.4375
            },
            {
              "pitch": 24,
              "velocity": 75,
              "position": 13.5,
              "duration": 0.1875
            },
            {
              "pitch": 24,
              "velocity": 72,
              "position": 13.75,
              "duration": 0.1875
            },
            {
              "pitch": 24,
              "velocity": 80,
              "position": 14,
              "duration": 0.4375
            },
            {
              "pitch": 24,
              "velocity": 75,
              "position": 14.5,
              "duration": 0.1875
            },
            {
              "pitch": 24,
              "velocity": 72,
              "position": 14.75,
              "duration": 0.1875
            },
            {
              "pitch": 24,
              "velocity": 80,
              "position": 15,
              "duration": 0.4375
            },
            {
              "pitch": 24,
              "velocity": 75,
              "position": 15.5,
              "duration": 0.1875
            },
            {
              "pitch": 24,
              "velocity": 72,
              "position": 15.75,
              "duration": 0.1875
            }
          ]
        },
        "4": {
          "ctab": {
            "srcChannel": 4,
            "name": "Organ rt",
            "accType": "PAD",
            "editable": false,
            "mutedNotes": [],
            "mutedChords": [
              "1+2+5",
              "sus4",
              "1+5",
              "1+8",
              "Maj7aug",
              "dim",
              "minMaj7(9)",
              "minMaj7",
              "min6",
              "min",
              "aug",
              "Maj7(9)",
              "Maj7#11",
              "Maj7",
              "Maj6",
              "Maj"
            ],
            "autoStart": false,
            "sourceChordNote": 0,
            "sourceChordType": "Maj7",
            "ctb2Low": null,
            "ctb2Main": {
              "ntr": "ROOT_TRANSPOSITION",
              "ntt": "CHORD",
              "bassOn": false,
              "chordRootUpperLimit": 6,
              "noteLowLimit": 0,
              "noteHighLimit": 70,
              "rtr": "PITCH_SHIFT"
            },
            "ctb2High": null
          },
          "notes": [
            {
              "pitch": 72,
              "velocity": 60,
              "position": 0,
              "duration": 15.989583333333334
            }
          ]
        },
        "9": {
          "ctab": {
            "srcChannel": 9,
            "name": "MainDrum",
            "accType": "RHYTHM",
            "editable": false,
            "mutedNotes": [],
            "mutedChords": [],
            "autoStart": true,
            "sourceChordNote": 0,
            "sourceChordType": "Maj7",
            "ctb2Low": null,
            "ctb2Main": {
              "ntr": "ROOT_FIXED",
              "ntt": "BYPASS",
              "bassOn": false,
              "chordRootUpperLimit": 6,
              "noteLowLimit": 0,
              "noteHighLimit": 127,
              "rtr": "PITCH_SHIFT"
            },
            "ctb2High": null
          },
          "notes": [
            {
              "pitch": 36,
              "velocity": 100,
              "position": 0,
              "duration": 0.004166666666666667
            },
            {
              "pitch": 53,
              "velocity": 115,
              "position": 0,
              "duration": 0.004166666666666667
            },
            {
              "pitch": 44,
              "velocity": 64,
              "position": 0,
              "duration": 0.004166666666666667
            },
            {
              "pitch": 36,
              "velocity": 80,
              "position": 0.5,
              "duration": 0.004166666666666667
            },
            {
              "pitch": 53,
              "velocity": 56,
              "position": 0.5,
              "duration": 0.004166666666666667
            },
            {
              "pitch": 44,
              "velocity": 34,
              "position": 0.5,
              "duration": 0.004166666666666667
            },
            {
              "pitch": 38,
              "velocity": 116,
              "position": 1,
              "duration": 0.004166666666666667
            },
            {
              "pitch": 53,
              "velocity": 115,
              "position": 1,
              "duration": 0.004166666666666667
            },
            {
              "pitch": 44,
              "velocity": 64,
              "position": 1,
              "duration": 0.004166666666666667
            },
            {
              "pitch": 36,
              "velocity": 80,
              "position": 1.5,
              "duration": 0.004166666666666667
            },
            {
              "pitch": 53,
              "velocity": 56,
              "position": 1.5,
              "duration": 0.004166666666666667
            },
            {
              "pitch": 44,
              "velocity": 34,
              "position": 1.5,
              "duration": 0.004166666666666667
            },
            {
              "pitch": 38,
              "velocity": 48,
              "position": 1.75,
              "duration": 0.004166666666666667
            },
            {
              "pitch": 36,
              "velocity": 100,
              "position": 2,
              "duration": 0.004166666666666667
            },
            {
              "pitch": 53,
              "velocity": 115,
              "position": 2,
              "duration": 0.004166666666666667
            },
            {
              "pitch": 44,
              "velocity": 64,
              "position": 2,
              "duration": 0.004166666666666667
            },
            {
              "pitch": 38,
              "velocity": 29,
              "position": 2.25,
              "duration": 0.004166666666666667
            },
            {
              "pitch": 36,
              "velocity": 100,
              "position": 2.5,
              "duration": 0.004166666666666667
            },
            {
              "pitch": 53,
              "velocity": 56,
              "position": 2.5,
              "duration": 0.004166666666666667
            },
            {
              "pitch": 44,
              "velocity": 34,
              "position": 2.5,
              "duration": 0.004166666666666667
            },
            {
              "pitch": 38,
              "velocity": 116,
              "position": 3,
              "duration": 0.004166666666666667
            },
            {
              "pitch": 53,
              "velocity": 115,
              "position": 3,
              "duration": 0.004166666666666667
            },
            {
              "pitch": 44,
              "velocity": 64,
              "position": 3,
              "duration": 0.004166666666666667
            },
            {
              "pitch": 36,
              "velocity": 80,
              "position": 3.5,
              "duration": 0.004166666666666667
            },
            {
              "pitch": 53,
              "velocity": 56,
              "position": 3.5,
              "duration": 0.004166666666666667
            },
            {
              "pitch": 44,
              "velocity": 34,
              "position": 3.5,
              "duration": 0.004166666666666667
            },
            {
              "pitch": 36,
              "velocity": 100,
              "position": 4,
              "duration": 0.004166666666666667
            },
            {
              "pitch": 53,
              "velocity": 115,
              "position": 4,
              "duration": 0.004166666666666667
            },
            {
              "pitch": 44,
              "velocity": 64,
              "position": 4,
              "duration": 0.004166666666666667
            },
            {
              "pitch": 36,
              "velocity": 80,
              "position": 4.5,
              "duration": 0.004166666666666667
            },
            {
              "pitch": 53,
              "velocity": 56,
              "position": 4.5,
              "duration": 0.004166666666666667
            },
            {
              "pitch": 44,
              "velocity": 34,
              "position": 4.5,
              "duration": 0.004166666666666667
            },
            {
              "pitch": 38,
              "velocity": 116,
              "position": 5,
              "duration": 0.004166666666666667
            },
            {
              "pitch": 53,
              "velocity": 115,
              "position": 5,
              "duration": 0.004166666666666667
            },
            {
              "pitch": 44,
              "velocity": 64,
              "position": 5,
              "duration": 0.004166666666666667
            },
            {
              "pitch": 36,
              "velocity": 80,
              "position": 5.5,
              "duration": 0.004166666666666667
            },
            {
              "pitch": 53,
              "velocity": 56,
              "position": 5.5,
              "duration": 0.004166666666666667
            },
            {
              "pitch": 44,
              "velocity": 34,
              "position": 5.5,
              "duration": 0.004166666666666667
            },
            {
              "pitch": 38,
              "velocity": 48,
              "position": 5.75,
              "duration": 0.004166666666666667
            },
            {
              "pitch": 36,
              "velocity": 100,
              "position": 6,
              "duration": 0.004166666666666667
            },
            {
              "pitch": 53,
              "velocity": 115,
              "position": 6,
              "duration": 0.004166666666666667
            },
            {
              "pitch": 44,
              "velocity": 64,
              "position": 6,
              "duration": 0.004166666666666667
            },
            {
              "pitch": 38,
              "velocity": 29,
              "position": 6.25,
              "duration": 0.004166666666666667
            },
            {
              "pitch": 36,
              "velocity": 100,
              "position": 6.5,
              "duration": 0.004166666666666667
            },
            {
              "pitch": 53,
              "velocity": 56,
              "position": 6.5,
              "duration": 0.004166666666666667
            },
            {
              "pitch": 44,
              "velocity": 34,
              "position": 6.5,
              "duration": 0.004166666666666667
            },
            {
              "pitch": 38,
              "velocity": 116,
              "position": 7,
              "duration": 0.004166666666666667
            },
            {
              "pitch": 53,
              "velocity": 115,
              "position": 7,
              "duration": 0.004166666666666667
            },
            {
              "pitch": 44,
              "velocity": 64,
              "position": 7,
              "duration": 0.004166666666666667
            },
            {
              "pitch": 36,
              "velocity": 80,
              "position": 7.5,
              "duration": 0.004166666666666667
            },
            {
              "pitch": 53,
              "velocity": 56,
              "position": 7.5,
              "duration": 0.004166666666666667
            },
            {
              "pitch": 44,
              "velocity": 34,
              "position": 7.5,
              "duration": 0.004166666666666667
            },
            {
              "pitch": 36,
              "velocity": 100,
              "position": 8,
              "duration": 0.004166666666666667
            },
            {
              "pitch": 53,
              "velocity": 115,
              "position": 8,
              "duration": 0.004166666666666667
            },
            {
              "pitch": 44,
              "velocity": 64,
              "position": 8,
              "duration": 0.004166666666666667
            },
            {
              "pitch": 36,
              "velocity": 80,
              "position": 8.5,
              "duration": 0.004166666666666667
            },
            {
              "pitch": 53,
              "velocity": 56,
              "position": 8.5,
              "duration": 0.004166666666666667
            },
            {
              "pitch": 44,
              "velocity": 34,
              "position": 8.5,
              "duration": 0.004166666666666667
            },
            {
              "pitch": 38,
              "velocity": 116,
              "position": 9,
              "duration": 0.004166666666666667
            },
            {
              "pitch": 53,
              "velocity": 115,
              "position": 9,
              "duration": 0.004166666666666667
            },
            {
              "pitch": 44,
              "velocity": 64,
              "position": 9,
              "duration": 0.004166666666666667
            },
            {
              "pitch": 36,
              "velocity": 80,
              "position": 9.5,
              "duration": 0.004166666666666667
            },
            {
              "pitch": 53,
              "velocity": 56,
              "position": 9.5,
              "duration": 0.004166666666666667
            },
            {
              "pitch": 44,
              "velocity": 34,
              "position": 9.5,
              "duration": 0.004166666666666667
            },
            {
              "pitch": 38,
              "velocity": 48,
              "position": 9.75,
              "duration": 0.004166666666666667
            },
            {
              "pitch": 36,
              "velocity": 100,
              "position": 10,
              "duration": 0.004166666666666667
            },
            {
              "pitch": 53,
              "velocity": 115,
              "position": 10,
              "duration": 0.004166666666666667
            },
            {
              "pitch": 44,
              "velocity": 64,
              "position": 10,
              "duration": 0.004166666666666667
            },
            {
              "pitch": 38,
              "velocity": 29,
              "position": 10.25,
              "duration": 0.004166666666666667
            },
            {
              "pitch": 36,
              "velocity": 100,
              "position": 10.5,
              "duration": 0.004166666666666667
            },
            {
              "pitch": 53,
              "velocity": 56,
              "position": 10.5,
              "duration": 0.004166666666666667
            },
            {
              "pitch": 44,
              "velocity": 34,
              "position": 10.5,
              "duration": 0.004166666666666667
            },
            {
              "pitch": 38,
              "velocity": 116,
              "position": 11,
              "duration": 0.004166666666666667
            },
            {
              "pitch": 53,
              "velocity": 115,
              "position": 11,
              "duration": 0.004166666666666667
            },
            {
              "pitch": 44,
              "velocity": 64,
              "position": 11,
              "duration": 0.004166666666666667
            },
            {
              "pitch": 36,
              "velocity": 80,
              "position": 11.5,
              "duration": 0.004166666666666667
            },
            {
              "pitch": 53,
              "velocity": 56,
              "position": 11.5,
              "duration": 0.004166666666666667
            },
            {
              "pitch": 44,
              "velocity": 34,
              "position": 11.5,
              "duration": 0.004166666666666667
            },
            {
              "pitch": 36,
              "velocity": 100,
              "position": 12,
              "duration": 0.004166666666666667
            },
            {
              "pitch": 53,
              "velocity": 115,
              "position": 12,
              "duration": 0.004166666666666667
            },
            {
              "pitch": 44,
              "velocity": 64,
              "position": 12,
              "duration": 0.004166666666666667
            },
            {
              "pitch": 36,
              "velocity": 80,
              "position": 12.5,
              "duration": 0.004166666666666667
            },
            {
              "pitch": 53,
              "velocity": 56,
              "position": 12.5,
              "duration": 0.004166666666666667
            },
            {
              "pitch": 44,
              "velocity": 34,
              "position": 12.5,
              "duration": 0.004166666666666667
            },
            {
              "pitch": 38,
              "velocity": 116,
              "position": 13,
              "duration": 0.004166666666666667
            },
            {
              "pitch": 53,
              "velocity": 115,
              "position": 13,
              "duration": 0.004166666666666667
            },
            {
              "pitch": 44,
              "velocity": 64,
              "position": 13,
              "duration": 0.004166666666666667
            },
            {
              "pitch": 36,
              "velocity": 80,
              "position": 13.5,
              "duration": 0.004166666666666667
            },
            {
              "pitch": 53,
              "velocity": 56,
              "position": 13.5,
              "duration": 0.004166666666666667
            },
            {
              "pitch": 44,
              "velocity": 34,
              "position": 13.5,
              "duration": 0.004166666666666667
            },
            {
              "pitch": 38,
              "velocity": 48,
              "position": 13.75,
              "duration": 0.004166666666666667
            },
            {
              "pitch": 36,
              "velocity": 100,
              "position": 14,
              "duration": 0.004166666666666667
            },
            {
              "pitch": 53,
              "velocity": 115,
              "position": 14,
              "duration": 0.004166666666666667
            },
            {
              "pitch": 44,
              "velocity": 64,
              "position": 14,
              "duration": 0.004166666666666667
            },
            {
              "pitch": 38,
              "velocity": 29,
              "position": 14.25,
              "duration": 0.004166666666666667
            },
            {
              "pitch": 36,
              "velocity": 100,
              "position": 14.5,
              "duration": 0.004166666666666667
            },
            {
              "pitch": 53,
              "velocity": 56,
              "position": 14.5,
              "duration": 0.004166666666666667
            },
            {
              "pitch": 44,
              "velocity": 34,
              "position": 14.5,
              "duration": 0.004166666666666667
            },
            {
              "pitch": 38,
              "velocity": 116,
              "position": 15,
              "duration": 0.004166666666666667
            },
            {
              "pitch": 53,
              "velocity": 115,
              "position": 15,
              "duration": 0.004166666666666667
            },
            {
              "pitch": 44,
              "velocity": 64,
              "position": 15,
              "duration": 0.004166666666666667
            },
            {
              "pitch": 36,
              "velocity": 80,
              "position": 15.5,
              "duration": 0.004166666666666667
            },
            {
              "pitch": 53,
              "velocity": 56,
              "position": 15.5,
              "duration": 0.004166666666666667
            },
            {
              "pitch": 44,
              "velocity": 34,
              "position": 15.5,
              "duration": 0.004166666666666667
            }
          ]
        },
        "10": {
          "ctab": {
            "srcChannel": 10,
            "name": "Bass A",
            "accType": "BASS",
            "editable": false,
            "mutedNotes": [],
            "mutedChords": [
              "sus4",
              "7aug",
              "Maj7aug",
              "dim",
              "minMaj7(9)",
              "minMaj7",
              "min(9)",
              "min",
              "aug"
            ],
            "autoStart": false,
            "sourceChordNote": 0,
            "sourceChordType": "Maj7",
            "ctb2Low": null,
            "ctb2Main": {
              "ntr": "ROOT_TRANSPOSITION",
              "ntt": "MELODY",
              "bassOn": true,
              "chordRootUpperLimit": 8,
              "noteLowLimit": 28,
              "noteHighLimit": 127,
              "rtr": "PITCH_SHIFT_TO_ROOT"
            },
            "ctb2High": null
          },
          "notes": [
            {
              "pitch": 24,
              "velocity": 80,
              "position": 0,
              "duration": 0.4375
            },
            {
              "pitch": 24,
              "velocity": 75,
              "position": 0.5,
              "duration": 0.1875
            },
            {
              "pitch": 24,
              "velocity": 72,
              "position": 0.75,
              "duration": 0.1875
            },
            {
              "pitch": 24,
              "velocity": 80,
              "position": 1,
              "duration": 0.4375
            },
            {
              "pitch": 24,
              "velocity": 75,
              "position": 1.5,
              "duration": 0.1875
            },
            {
              "pitch": 24,
              "velocity": 72,
              "position": 1.75,
              "duration": 0.1875
            },
            {
              "pitch": 24,
              "velocity": 80,
              "position": 2,
              "duration": 0.4375
            },
            {
              "pitch": 24,
              "velocity": 75,
              "position": 2.5,
              "duration": 0.1875
            },
            {
              "pitch": 24,
              "velocity": 72,
              "position": 2.75,
              "duration": 0.1875
            },
            {
              "pitch": 24,
              "velocity": 80,
              "position": 3,
              "duration": 0.4375
            },
            {
              "pitch": 24,
              "velocity": 75,
              "position": 3.5,
              "duration": 0.1875
            },
            {
              "pitch": 24,
              "velocity": 72,
              "position": 3.75,
              "duration": 0.1875
            },
            {
              "pitch": 24,
              "velocity": 80,
              "position": 4,
              "duration": 0.4375
            },
            {
              "pitch": 24,
              "velocity": 75,
              "position": 4.5,
              "duration": 0.1875
            },
            {
              "pitch": 24,
              "velocity": 72,
              "position": 4.75,
              "duration": 0.1875
            },
            {
              "pitch": 24,
              "velocity": 80,
              "position": 5,
              "duration": 0.4375
            },
            {
              "pitch": 24,
              "velocity": 75,
              "position": 5.5,
              "duration": 0.1875
            },
            {
              "pitch": 24,
              "velocity": 72,
              "position": 5.75,
              "duration": 0.1875
            },
            {
              "pitch": 24,
              "velocity": 80,
              "position": 6,
              "duration": 0.4375
            },
            {
              "pitch": 24,
              "velocity": 75,
              "position": 6.5,
              "duration": 0.1875
            },
            {
              "pitch": 24,
              "velocity": 72,
              "position": 6.75,
              "duration": 0.1875
            },
            {
              "pitch": 24,
              "velocity": 80,
              "position": 7,
              "duration": 0.4375
            },
            {
              "pitch": 24,
              "velocity": 75,
              "position": 7.5,
              "duration": 0.1875
            },
            {
              "pitch": 24,
              "velocity": 72,
              "position": 7.75,
              "duration": 0.1875
            },
            {
              "pitch": 24,
              "velocity": 80,
              "position": 8,
              "duration": 0.4375
            },
            {
              "pitch": 24,
              "velocity": 75,
              "position": 8.5,
              "duration": 0.1875
            },
            {
              "pitch": 24,
              "velocity": 72,
              "position": 8.75,
              "duration": 0.1875
            },
            {
              "pitch": 24,
              "velocity": 80,
              "position": 9,
              "duration": 0.4375
            },
            {
              "pitch": 24,
              "velocity": 75,
              "position": 9.5,
              "duration": 0.1875
            },
            {
              "pitch": 24,
              "velocity": 72,
              "position": 9.75,
              "duration": 0.1875
            },
            {
              "pitch": 24,
              "velocity": 80,
              "position": 10,
              "duration": 0.4375
            },
            {
              "pitch": 24,
              "velocity": 75,
              "position": 10.5,
              "duration": 0.1875
            },
            {
              "pitch": 24,
              "velocity": 72,
              "position": 10.75,
              "duration": 0.1875
            },
            {
              "pitch": 24,
              "velocity": 80,
              "position": 11,
              "duration": 0.4375
            },
            {
              "pitch": 24,
              "velocity": 75,
              "position": 11.5,
              "duration": 0.1875
            },
            {
              "pitch": 24,
              "velocity": 72,
              "position": 11.75,
              "duration": 0.1875
            },
            {
              "pitch": 24,
              "velocity": 80,
              "position": 12,
              "duration": 0.4375
            },
            {
              "pitch": 24,
              "velocity": 75,
              "position": 12.5,
              "duration": 0.1875
            },
            {
              "pitch": 24,
              "velocity": 72,
              "position": 12.75,
              "duration": 0.1875
            },
            {
              "pitch": 24,
              "velocity": 80,
              "position": 13,
              "duration": 0.4375
            },
            {
              "pitch": 24,
              "velocity": 75,
              "position": 13.5,
              "duration": 0.1875
            },
            {
              "pitch": 24,
              "velocity": 72,
              "position": 13.75,
              "duration": 0.1875
            },
            {
              "pitch": 24,
              "velocity": 80,
              "position": 14,
              "duration": 0.4375
            },
            {
              "pitch": 24,
              "velocity": 75,
              "position": 14.5,
              "duration": 0.1875
            },
            {
              "pitch": 24,
              "velocity": 72,
              "position": 14.75,
              "duration": 0.1875
            },
            {
              "pitch": 24,
              "velocity": 80,
              "position": 15,
              "duration": 0.4375
            },
            {
              "pitch": 24,
              "velocity": 75,
              "position": 15.5,
              "duration": 0.1875
            },
            {
              "pitch": 24,
              "velocity": 72,
              "position": 15.75,
              "duration": 0.1875
            }
          ]
        },
        "11": {
          "ctab": {
            "srcChannel": 11,
            "name": "Tele",
            "accType": "CHORD1",
            "editable": false,
            "mutedNotes": [],
            "mutedChords": [],
            "autoStart": false,
            "sourceChordNote": 0,
            "sourceChordType": "Maj7",
            "ctb2Low": null,
            "ctb2Main": {
              "ntr": "ROOT_TRANSPOSITION",
              "ntt": "BYPASS",
              "bassOn": false,
              "chordRootUpperLimit": 3,
              "noteLowLimit": 47,
              "noteHighLimit": 127,
              "rtr": "PITCH_SHIFT"
            },
            "ctb2High": null
          },
          "notes": [
            {
              "pitch": 67,
              "velocity": 30,
              "position": 0.020833333333333332,
              "duration": 0.49166666666666664
            },
            {
              "pitch": 71,
              "velocity": 30,
              "position": 0.020833333333333332,
              "duration": 0.49166666666666664
            },
            {
              "pitch": 72,
              "velocity": 30,
              "position": 0.020833333333333332,
              "duration": 0.49166666666666664
            },
            {
              "pitch": 76,
              "velocity": 30,
              "position": 0.020833333333333332,
              "duration": 0.49166666666666664
            },
            {
              "pitch": 36,
              "velocity": 39,
              "position": 0,
              "duration": 0.9854166666666667
            },
            {
              "pitch": 76,
              "velocity": 30,
              "position": 0.5208333333333334,
              "duration": 0.46458333333333335
            },
            {
              "pitch": 72,
              "velocity": 30,
              "position": 0.5208333333333334,
              "duration": 0.46458333333333335
            },
            {
              "pitch": 67,
              "velocity": 30,
              "position": 0.5208333333333334,
              "duration": 0.46458333333333335
            },
            {
              "pitch": 71,
              "velocity": 30,
              "position": 0.5208333333333334,
              "duration": 0.46458333333333335
            },
            {
              "pitch": 64,
              "velocity": 33,
              "position": 0.010416666666666666,
              "duration": 0.975
            },
            {
              "pitch": 36,
              "velocity": 86,
              "position": 0.99375,
              "duration": 0.18333333333333332
            },
            {
              "pitch": 43,
              "velocity": 76,
              "position": 1.025,
              "duration": 0.18333333333333332
            },
            {
              "pitch": 47,
              "velocity": 76,
              "position": 1.025,
              "duration": 0.18333333333333332
            },
            {
              "pitch": 76,
              "velocity": 30,
              "position": 1.5208333333333333,
              "duration": 1.9833333333333334
            },
            {
              "pitch": 72,
              "velocity": 30,
              "position": 1.5208333333333333,
              "duration": 1.9833333333333334
            },
            {
              "pitch": 67,
              "velocity": 30,
              "position": 1.5208333333333333,
              "duration": 1.9833333333333334
            },
            {
              "pitch": 71,
              "velocity": 30,
              "position": 1.5208333333333333,
              "duration": 1.9833333333333334
            },
            {
              "pitch": 64,
              "velocity": 33,
              "position": 1.5104166666666667,
              "duration": 1.99375
            },
            {
              "pitch": 36,
              "velocity": 39,
              "position": 1.5,
              "duration": 2.004166666666667
            },
            {
              "pitch": 36,
              "velocity": 81,
              "position": 3.5125,
              "duration": 0.23958333333333334
            },
            {
              "pitch": 43,
              "velocity": 76,
              "position": 3.54375,
              "duration": 0.23958333333333334
            },
            {
              "pitch": 47,
              "velocity": 76,
              "position": 3.54375,
              "duration": 0.23958333333333334
            },
            {
              "pitch": 67,
              "velocity": 30,
              "position": 4.020833333333333,
              "duration": 0.49166666666666664
            },
            {
              "pitch": 71,
              "velocity": 30,
              "position": 4.020833333333333,
              "duration": 0.49166666666666664
            },
            {
              "pitch": 72,
              "velocity": 30,
              "position": 4.020833333333333,
              "duration": 0.49166666666666664
            },
            {
              "pitch": 76,
              "velocity": 30,
              "position": 4.020833333333333,
              "duration": 0.49166666666666664
            },
            {
              "pitch": 36,
              "velocity": 39,
              "position": 4,
              "duration": 1
            },
            {
              "pitch": 76,
              "velocity": 30,
              "position": 4.520833333333333,
              "duration": 0.4791666666666667
            },
            {
              "pitch": 72,
              "velocity": 30,
              "position": 4.520833333333333,
              "duration": 0.4791666666666667
            },
            {
              "pitch": 67,
              "velocity": 30,
              "position": 4.520833333333333,
              "duration": 0.4791666666666667
            },
            {
              "pitch": 71,
              "velocity": 30,
              "position": 4.520833333333333,
              "duration": 0.4791666666666667
            },
            {
              "pitch": 64,
              "velocity": 33,
              "position": 4.010416666666667,
              "duration": 0.9895833333333334
            },
            {
              "pitch": 36,
              "velocity": 84,
              "position": 5.008333333333334,
              "duration": 0.21666666666666667
            },
            {
              "pitch": 43,
              "velocity": 76,
              "position": 5.039583333333334,
              "duration": 0.21666666666666667
            },
            {
              "pitch": 47,
              "velocity": 76,
              "position": 5.039583333333334,
              "duration": 0.21666666666666667
            },
            {
              "pitch": 67,
              "velocity": 30,
              "position": 5.520833333333333,
              "duration": 0.9916666666666667
            },
            {
              "pitch": 71,
              "velocity": 30,
              "position": 5.520833333333333,
              "duration": 0.9916666666666667
            },
            {
              "pitch": 76,
              "velocity": 30,
              "position": 5.520833333333333,
              "duration": 0.9916666666666667
            },
            {
              "pitch": 72,
              "velocity": 30,
              "position": 5.520833333333333,
              "duration": 0.9916666666666667
            },
            {
              "pitch": 67,
              "velocity": 30,
              "position": 6.520833333333333,
              "duration": 0.4708333333333333
            },
            {
              "pitch": 71,
              "velocity": 30,
              "position": 6.520833333333333,
              "duration": 0.4708333333333333
            },
            {
              "pitch": 76,
              "velocity": 30,
              "position": 6.520833333333333,
              "duration": 0.4708333333333333
            },
            {
              "pitch": 72,
              "velocity": 30,
              "position": 6.520833333333333,
              "duration": 0.4708333333333333
            },
            {
              "pitch": 64,
              "velocity": 33,
              "position": 5.510416666666667,
              "duration": 1.95625
            },
            {
              "pitch": 36,
              "velocity": 39,
              "position": 5.5,
              "duration": 1.9791666666666667
            },
            {
              "pitch": 72,
              "velocity": 30,
              "position": 7.020833333333333,
              "duration": 0.4791666666666667
            },
            {
              "pitch": 67,
              "velocity": 30,
              "position": 7.020833333333333,
              "duration": 0.4791666666666667
            },
            {
              "pitch": 71,
              "velocity": 30,
              "position": 7.020833333333333,
              "duration": 0.4791666666666667
            },
            {
              "pitch": 76,
              "velocity": 30,
              "position": 7.020833333333333,
              "duration": 0.4791666666666667
            },
            {
              "pitch": 36,
              "velocity": 80,
              "position": 7.5125,
              "duration": 0.18541666666666667
            },
            {
              "pitch": 43,
              "velocity": 76,
              "position": 7.54375,
              "duration": 0.18541666666666667
            },
            {
              "pitch": 47,
              "velocity": 76,
              "position": 7.54375,
              "duration": 0.18541666666666667
            },
            {
              "pitch": 67,
              "velocity": 30,
              "position": 8.020833333333334,
              "duration": 0.49166666666666664
            },
            {
              "pitch": 71,
              "velocity": 30,
              "position": 8.020833333333334,
              "duration": 0.49166666666666664
            },
            {
              "pitch": 72,
              "velocity": 30,
              "position": 8.020833333333334,
              "duration": 0.49166666666666664
            },
            {
              "pitch": 76,
              "velocity": 30,
              "position": 8.020833333333334,
              "duration": 0.49166666666666664
            },
            {
              "pitch": 36,
              "velocity": 39,
              "position": 8,
              "duration": 0.9791666666666666
            },
            {
              "pitch": 76,
              "velocity": 30,
              "position": 8.520833333333334,
              "duration": 0.4583333333333333
            },
            {
              "pitch": 72,
              "velocity": 30,
              "position": 8.520833333333334,
              "duration": 0.4583333333333333
            },
            {
              "pitch": 67,
              "velocity": 30,
              "position": 8.520833333333334,
              "duration": 0.4583333333333333
            },
            {
              "pitch": 71,
              "velocity": 30,
              "position": 8.520833333333334,
              "duration": 0.4583333333333333
            },
            {
              "pitch": 64,
              "velocity": 33,
              "position": 8.010416666666666,
              "duration": 0.96875
            },
            {
              "pitch": 36,
              "velocity": 86,
              "position": 8.9875,
              "duration": 0.18541666666666667
            },
            {
              "pitch": 43,
              "velocity": 76,
              "position": 9.01875,
              "duration": 0.18541666666666667
            },
            {
              "pitch": 47,
              "velocity": 76,
              "position": 9.01875,
              "duration": 0.18541666666666667
            },
            {
              "pitch": 76,
              "velocity": 30,
              "position": 9.520833333333334,
              "duration": 1.9541666666666666
            },
            {
              "pitch": 72,
              "velocity": 30,
              "position": 9.520833333333334,
              "duration": 1.9541666666666666
            },
            {
              "pitch": 67,
              "velocity": 30,
              "position": 9.520833333333334,
              "duration": 1.9541666666666666
            },
            {
              "pitch": 71,
              "velocity": 30,
              "position": 9.520833333333334,
              "duration": 1.9541666666666666
            },
            {
              "pitch": 64,
              "velocity": 33,
              "position": 9.510416666666666,
              "duration": 1.9645833333333333
            },
            {
              "pitch": 36,
              "velocity": 39,
              "position": 9.5,
              "duration": 1.975
            },
            {
              "pitch": 36,
              "velocity": 81,
              "position": 11.483333333333333,
              "duration": 0.23125
            },
            {
              "pitch": 43,
              "velocity": 76,
              "position": 11.514583333333333,
              "duration": 0.23125
            },
            {
              "pitch": 47,
              "velocity": 76,
              "position": 11.514583333333333,
              "duration": 0.23125
            },
            {
              "pitch": 67,
              "velocity": 30,
              "position": 12.020833333333334,
              "duration": 0.49166666666666664
            },
            {
              "pitch": 71,
              "velocity": 30,
              "position": 12.020833333333334,
              "duration": 0.49166666666666664
            },
            {
              "pitch": 76,
              "velocity": 30,
              "position": 12.020833333333334,
              "duration": 0.49166666666666664
            },
            {
              "pitch": 72,
              "velocity": 30,
              "position": 12.020833333333334,
              "duration": 0.49166666666666664
            },
            {
              "pitch": 36,
              "velocity": 39,
              "position": 12,
              "duration": 0.975
            },
            {
              "pitch": 76,
              "velocity": 30,
              "position": 12.520833333333334,
              "duration": 0.45416666666666666
            },
            {
              "pitch": 72,
              "velocity": 30,
              "position": 12.520833333333334,
              "duration": 0.45416666666666666
            },
            {
              "pitch": 67,
              "velocity": 30,
              "position": 12.520833333333334,
              "duration": 0.45416666666666666
            },
            {
              "pitch": 71,
              "velocity": 30,
              "position": 12.520833333333334,
              "duration": 0.45416666666666666
            },
            {
              "pitch": 64,
              "velocity": 33,
              "position": 12.010416666666666,
              "duration": 0.9645833333333333
            },
            {
              "pitch": 36,
              "velocity": 86,
              "position": 12.983333333333333,
              "duration": 0.22916666666666666
            },
            {
              "pitch": 43,
              "velocity": 76,
              "position": 13.014583333333333,
              "duration": 0.22916666666666666
            },
            {
              "pitch": 47,
              "velocity": 76,
              "position": 13.014583333333333,
              "duration": 0.22916666666666666
            },
            {
              "pitch": 67,
              "velocity": 30,
              "position": 13.520833333333334,
              "duration": 0.9916666666666667
            },
            {
              "pitch": 71,
              "velocity": 30,
              "position": 13.520833333333334,
              "duration": 0.9916666666666667
            },
            {
              "pitch": 72,
              "velocity": 30,
              "position": 13.520833333333334,
              "duration": 0.9916666666666667
            },
            {
              "pitch": 76,
              "velocity": 30,
              "position": 13.520833333333334,
              "duration": 0.9916666666666667
            },
            {
              "pitch": 67,
              "velocity": 30,
              "position": 14.520833333333334,
              "duration": 0.4708333333333333
            },
            {
              "pitch": 71,
              "velocity": 30,
              "position": 14.520833333333334,
              "duration": 0.4708333333333333
            },
            {
              "pitch": 76,
              "velocity": 30,
              "position": 14.520833333333334,
              "duration": 0.4708333333333333
            },
            {
              "pitch": 72,
              "velocity": 30,
              "position": 14.520833333333334,
              "duration": 0.4708333333333333
            },
            {
              "pitch": 67,
              "velocity": 30,
              "position": 15.020833333333334,
              "duration": 0.45416666666666666
            },
            {
              "pitch": 71,
              "velocity": 30,
              "position": 15.020833333333334,
              "duration": 0.45416666666666666
            },
            {
              "pitch": 76,
              "velocity": 30,
              "position": 15.020833333333334,
              "duration": 0.45416666666666666
            },
            {
              "pitch": 72,
              "velocity": 30,
              "position": 15.020833333333334,
              "duration": 0.45416666666666666
            },
            {
              "pitch": 36,
              "velocity": 39,
              "position": 13.5,
              "duration": 1.9979166666666666
            },
            {
              "pitch": 64,
              "velocity": 33,
              "position": 13.510416666666666,
              "duration": 2.002083333333333
            },
            {
              "pitch": 36,
              "velocity": 83,
              "position": 15.50625,
              "duration": 0.17291666666666666
            },
            {
              "pitch": 43,
              "velocity": 76,
              "position": 15.5375,
              "duration": 0.17291666666666666
            },
            {
              "pitch": 47,
              "velocity": 76,
              "position": 15.5375,
              "duration": 0.17291666666666666
            }
          ]
        },
        "12": {
          "ctab": {
            "srcChannel": 12,
            "name": "Solid",
            "accType": "CHORD2",
            "editable": false,
            "mutedNotes": [],
            "mutedChords": [],
            "autoStart": false,
            "sourceChordNote": 0,
            "sourceChordType": "Maj7",
            "ctb2Low": null,
            "ctb2Main": {
              "ntr": "ROOT_TRANSPOSITION",
              "ntt": "BYPASS",
              "bassOn": false,
              "chordRootUpperLimit": 8,
              "noteLowLimit": 0,
              "noteHighLimit": 127,
              "rtr": "PITCH_SHIFT"
            },
            "ctb2High": null
          },
          "notes": [
            {
              "pitch": 67,
              "velocity": 30,
              "position": 0.020833333333333332,
              "duration": 0.48125
            },
            {
              "pitch": 71,
              "velocity": 30,
              "position": 0.020833333333333332,
              "duration": 0.48125
            },
            {
              "pitch": 72,
              "velocity": 30,
              "position": 0.020833333333333332,
              "duration": 0.48125
            },
            {
              "pitch": 76,
              "velocity": 30,
              "position": 0.020833333333333332,
              "duration": 0.48125
            },
            {
              "pitch": 36,
              "velocity": 41,
              "position": 0,
              "duration": 0.9854166666666667
            },
            {
              "pitch": 76,
              "velocity": 30,
              "position": 0.5208333333333334,
              "duration": 0.46458333333333335
            },
            {
              "pitch": 72,
              "velocity": 30,
              "position": 0.5208333333333334,
              "duration": 0.46458333333333335
            },
            {
              "pitch": 67,
              "velocity": 30,
              "position": 0.5208333333333334,
              "duration": 0.46458333333333335
            },
            {
              "pitch": 71,
              "velocity": 30,
              "position": 0.5208333333333334,
              "duration": 0.46458333333333335
            },
            {
              "pitch": 64,
              "velocity": 30,
              "position": 0.010416666666666666,
              "duration": 0.975
            },
            {
              "pitch": 36,
              "velocity": 86,
              "position": 0.99375,
              "duration": 0.18333333333333332
            },
            {
              "pitch": 43,
              "velocity": 76,
              "position": 1.025,
              "duration": 0.18333333333333332
            },
            {
              "pitch": 47,
              "velocity": 76,
              "position": 1.025,
              "duration": 0.18333333333333332
            },
            {
              "pitch": 76,
              "velocity": 30,
              "position": 1.5208333333333333,
              "duration": 1.9833333333333334
            },
            {
              "pitch": 72,
              "velocity": 30,
              "position": 1.5208333333333333,
              "duration": 1.9833333333333334
            },
            {
              "pitch": 67,
              "velocity": 30,
              "position": 1.5208333333333333,
              "duration": 1.9833333333333334
            },
            {
              "pitch": 71,
              "velocity": 30,
              "position": 1.5208333333333333,
              "duration": 1.9833333333333334
            },
            {
              "pitch": 64,
              "velocity": 30,
              "position": 1.5104166666666667,
              "duration": 1.99375
            },
            {
              "pitch": 36,
              "velocity": 41,
              "position": 1.5,
              "duration": 2.004166666666667
            },
            {
              "pitch": 36,
              "velocity": 81,
              "position": 3.5125,
              "duration": 0.23958333333333334
            },
            {
              "pitch": 43,
              "velocity": 76,
              "position": 3.54375,
              "duration": 0.23958333333333334
            },
            {
              "pitch": 47,
              "velocity": 76,
              "position": 3.54375,
              "duration": 0.23958333333333334
            },
            {
              "pitch": 67,
              "velocity": 30,
              "position": 4.020833333333333,
              "duration": 0.49166666666666664
            },
            {
              "pitch": 71,
              "velocity": 30,
              "position": 4.020833333333333,
              "duration": 0.49166666666666664
            },
            {
              "pitch": 72,
              "velocity": 30,
              "position": 4.020833333333333,
              "duration": 0.49166666666666664
            },
            {
              "pitch": 76,
              "velocity": 30,
              "position": 4.020833333333333,
              "duration": 0.49166666666666664
            },
            {
              "pitch": 36,
              "velocity": 41,
              "position": 4,
              "duration": 1
            },
            {
              "pitch": 76,
              "velocity": 30,
              "position": 4.520833333333333,
              "duration": 0.4791666666666667
            },
            {
              "pitch": 72,
              "velocity": 30,
              "position": 4.520833333333333,
              "duration": 0.4791666666666667
            },
            {
              "pitch": 67,
              "velocity": 30,
              "position": 4.520833333333333,
              "duration": 0.4791666666666667
            },
            {
              "pitch": 71,
              "velocity": 30,
              "position": 4.520833333333333,
              "duration": 0.4791666666666667
            },
            {
              "pitch": 64,
              "velocity": 30,
              "position": 4.010416666666667,
              "duration": 0.9895833333333334
            },
            {
              "pitch": 36,
              "velocity": 84,
              "position": 5.010416666666667,
              "duration": 0.21666666666666667
            },
            {
              "pitch": 43,
              "velocity": 76,
              "position": 5.041666666666667,
              "duration": 0.21666666666666667
            },
            {
              "pitch": 47,
              "velocity": 76,
              "position": 5.041666666666667,
              "duration": 0.21666666666666667
            },
            {
              "pitch": 67,
              "velocity": 30,
              "position": 5.520833333333333,
              "duration": 0.98125
            },
            {
              "pitch": 71,
              "velocity": 30,
              "position": 5.520833333333333,
              "duration": 0.98125
            },
            {
              "pitch": 76,
              "velocity": 30,
              "position": 5.520833333333333,
              "duration": 0.98125
            },
            {
              "pitch": 72,
              "velocity": 30,
              "position": 5.520833333333333,
              "duration": 0.98125
            },
            {
              "pitch": 67,
              "velocity": 30,
              "position": 6.520833333333333,
              "duration": 0.49166666666666664
            },
            {
              "pitch": 71,
              "velocity": 30,
              "position": 6.520833333333333,
              "duration": 0.49166666666666664
            },
            {
              "pitch": 76,
              "velocity": 30,
              "position": 6.520833333333333,
              "duration": 0.49166666666666664
            },
            {
              "pitch": 72,
              "velocity": 30,
              "position": 6.520833333333333,
              "duration": 0.49166666666666664
            },
            {
              "pitch": 67,
              "velocity": 30,
              "position": 7.020833333333333,
              "duration": 0.4791666666666667
            },
            {
              "pitch": 71,
              "velocity": 30,
              "position": 7.020833333333333,
              "duration": 0.4791666666666667
            },
            {
              "pitch": 76,
              "velocity": 30,
              "position": 7.020833333333333,
              "duration": 0.4791666666666667
            },
            {
              "pitch": 72,
              "velocity": 30,
              "position": 7.020833333333333,
              "duration": 0.4791666666666667
            },
            {
              "pitch": 36,
              "velocity": 41,
              "position": 5.5,
              "duration": 2.004166666666667
            },
            {
              "pitch": 64,
              "velocity": 30,
              "position": 5.510416666666667,
              "duration": 1.99375
            },
            {
              "pitch": 36,
              "velocity": 80,
              "position": 7.5125,
              "duration": 0.18541666666666667
            },
            {
              "pitch": 43,
              "velocity": 76,
              "position": 7.54375,
              "duration": 0.18541666666666667
            },
            {
              "pitch": 47,
              "velocity": 76,
              "position": 7.54375,
              "duration": 0.18541666666666667
            },
            {
              "pitch": 67,
              "velocity": 30,
              "position": 8.020833333333334,
              "duration": 0.48125
            },
            {
              "pitch": 71,
              "velocity": 30,
              "position": 8.020833333333334,
              "duration": 0.48125
            },
            {
              "pitch": 72,
              "velocity": 30,
              "position": 8.020833333333334,
              "duration": 0.48125
            },
            {
              "pitch": 76,
              "velocity": 30,
              "position": 8.020833333333334,
              "duration": 0.48125
            },
            {
              "pitch": 36,
              "velocity": 41,
              "position": 8,
              "duration": 0.9791666666666666
            },
            {
              "pitch": 76,
              "velocity": 30,
              "position": 8.520833333333334,
              "duration": 0.4583333333333333
            },
            {
              "pitch": 72,
              "velocity": 30,
              "position": 8.520833333333334,
              "duration": 0.4583333333333333
            },
            {
              "pitch": 67,
              "velocity": 30,
              "position": 8.520833333333334,
              "duration": 0.4583333333333333
            },
            {
              "pitch": 71,
              "velocity": 30,
              "position": 8.520833333333334,
              "duration": 0.4583333333333333
            },
            {
              "pitch": 64,
              "velocity": 30,
              "position": 8.010416666666666,
              "duration": 0.9916666666666667
            },
            {
              "pitch": 36,
              "velocity": 86,
              "position": 8.9875,
              "duration": 0.18541666666666667
            },
            {
              "pitch": 43,
              "velocity": 76,
              "position": 9.01875,
              "duration": 0.18541666666666667
            },
            {
              "pitch": 47,
              "velocity": 76,
              "position": 9.01875,
              "duration": 0.18541666666666667
            },
            {
              "pitch": 76,
              "velocity": 30,
              "position": 9.520833333333334,
              "duration": 1.9541666666666666
            },
            {
              "pitch": 72,
              "velocity": 30,
              "position": 9.520833333333334,
              "duration": 1.9541666666666666
            },
            {
              "pitch": 67,
              "velocity": 30,
              "position": 9.520833333333334,
              "duration": 1.9541666666666666
            },
            {
              "pitch": 71,
              "velocity": 30,
              "position": 9.520833333333334,
              "duration": 1.9541666666666666
            },
            {
              "pitch": 64,
              "velocity": 30,
              "position": 9.510416666666666,
              "duration": 1.9645833333333333
            },
            {
              "pitch": 36,
              "velocity": 41,
              "position": 9.5,
              "duration": 1.975
            },
            {
              "pitch": 36,
              "velocity": 81,
              "position": 11.483333333333333,
              "duration": 0.23125
            },
            {
              "pitch": 43,
              "velocity": 76,
              "position": 11.514583333333333,
              "duration": 0.23125
            },
            {
              "pitch": 47,
              "velocity": 76,
              "position": 11.514583333333333,
              "duration": 0.23125
            },
            {
              "pitch": 67,
              "velocity": 30,
              "position": 12.020833333333334,
              "duration": 0.48125
            },
            {
              "pitch": 71,
              "velocity": 30,
              "position": 12.020833333333334,
              "duration": 0.48125
            },
            {
              "pitch": 76,
              "velocity": 30,
              "position": 12.020833333333334,
              "duration": 0.48125
            },
            {
              "pitch": 72,
              "velocity": 30,
              "position": 12.020833333333334,
              "duration": 0.48125
            },
            {
              "pitch": 36,
              "velocity": 41,
              "position": 12,
              "duration": 0.975
            },
            {
              "pitch": 76,
              "velocity": 30,
              "position": 12.520833333333334,
              "duration": 0.45416666666666666
            },
            {
              "pitch": 72,
              "velocity": 30,
              "position": 12.520833333333334,
              "duration": 0.45416666666666666
            },
            {
              "pitch": 67,
              "velocity": 30,
              "position": 12.520833333333334,
              "duration": 0.45416666666666666
            },
            {
              "pitch": 71,
              "velocity": 30,
              "position": 12.520833333333334,
              "duration": 0.45416666666666666
            },
            {
              "pitch": 64,
              "velocity": 30,
              "position": 12.010416666666666,
              "duration": 0.9916666666666667
            },
            {
              "pitch": 36,
              "velocity": 86,
              "position": 12.983333333333333,
              "duration": 0.22916666666666666
            },
            {
              "pitch": 43,
              "velocity": 76,
              "position": 13.014583333333333,
              "duration": 0.22916666666666666
            },
            {
              "pitch": 47,
              "velocity": 76,
              "position": 13.014583333333333,
              "duration": 0.22916666666666666
            },
            {
              "pitch": 67,
              "velocity": 30,
              "position": 13.520833333333334,
              "duration": 0.98125
            },
            {
              "pitch": 71,
              "velocity": 30,
              "position": 13.520833333333334,
              "duration": 0.98125
            },
            {
              "pitch": 72,
              "velocity": 30,
              "position": 13.520833333333334,
              "duration": 0.98125
            },
            {
              "pitch": 76,
              "velocity": 30,
              "position": 13.520833333333334,
              "duration": 0.98125
            },
            {
              "pitch": 67,
              "velocity": 30,
              "position": 14.520833333333334,
              "duration": 0.49166666666666664
            },
            {
              "pitch": 71,
              "velocity": 30,
              "position": 14.520833333333334,
              "duration": 0.49166666666666664
            },
            {
              "pitch": 76,
              "velocity": 30,
              "position": 14.520833333333334,
              "duration": 0.49166666666666664
            },
            {
              "pitch": 72,
              "velocity": 30,
              "position": 14.520833333333334,
              "duration": 0.49166666666666664
            },
            {
              "pitch": 67,
              "velocity": 30,
              "position": 15.020833333333334,
              "duration": 0.45416666666666666
            },
            {
              "pitch": 71,
              "velocity": 30,
              "position": 15.020833333333334,
              "duration": 0.45416666666666666
            },
            {
              "pitch": 76,
              "velocity": 30,
              "position": 15.020833333333334,
              "duration": 0.45416666666666666
            },
            {
              "pitch": 72,
              "velocity": 30,
              "position": 15.020833333333334,
              "duration": 0.45416666666666666
            },
            {
              "pitch": 36,
              "velocity": 41,
              "position": 13.5,
              "duration": 1.9979166666666666
            },
            {
              "pitch": 64,
              "velocity": 30,
              "position": 13.510416666666666,
              "duration": 1.9875
            },
            {
              "pitch": 36,
              "velocity": 83,
              "position": 15.50625,
              "duration": 0.17291666666666666
            },
            {
              "pitch": 43,
              "velocity": 76,
              "position": 15.5375,
              "duration": 0.17291666666666666
            },
            {
              "pitch": 47,
              "velocity": 76,
              "position": 15.5375,
              "duration": 0.17291666666666666
            }
          ]
        },
        "13": {
          "ctab": {
            "srcChannel": 13,
            "name": "Organ",
            "accType": "PAD",
            "editable": false,
            "mutedNotes": [],
            "mutedChords": [],
            "autoStart": false,
            "sourceChordNote": 0,
            "sourceChordType": "Maj7",
            "ctb2Low": null,
            "ctb2Main": {
              "ntr": "ROOT_FIXED",
              "ntt": "CHORD",
              "bassOn": false,
              "chordRootUpperLimit": 7,
              "noteLowLimit": 0,
              "noteHighLimit": 127,
              "rtr": "PITCH_SHIFT"
            },
            "ctb2High": null
          },
          "notes": [
            {
              "pitch": 59,
              "velocity": 60,
              "position": 0,
              "duration": 15.989583333333334
            },
            {
              "pitch": 67,
              "velocity": 60,
              "position": 0,
              "duration": 15.989583333333334
            },
            {
              "pitch": 64,
              "velocity": 60,
              "position": 0,
              "duration": 15.989583333333334
            }
          ]
        }
      }
    },
    "Fill_In_CC": {
      "type": "Fill_In_CC",
      "sizeInBeats": 4,
      "channels": {
        "1": {
          "ctab": {
            "srcChannel": 1,
            "name": "Bass B",
            "accType": "BASS",
            "editable": false,
            "mutedNotes": [],
            "mutedChords": [
              "1+2+5",
              "1+5",
              "1+8",
              "7(#9)",
              "7(b13)",
              "7(b9)",
              "7(13)",
              "7#11",
              "7(9)",
              "7b5",
              "7sus4",
              "7th",
              "dim7",
              "min7(11)",
              "min7(9)",
              "m7b5",
              "min7",
              "min6",
              "Maj6(9)",
              "Maj7(9)",
              "Maj(9)",
              "Maj7#11",
              "Maj7",
              "Maj6",
              "Maj"
            ],
            "autoStart": false,
            "sourceChordNote": 0,
            "sourceChordType": "Maj7",
            "ctb2Low": null,
            "ctb2Main": {
              "ntr": "ROOT_TRANSPOSITION",
              "ntt": "MELODY",
              "bassOn": true,
              "chordRootUpperLimit": 8,
              "noteLowLimit": 28,
              "noteHighLimit": 127,
              "rtr": "PITCH_SHIFT_TO_ROOT"
            },
            "ctb2High": null
          },
          "notes": [
            {
              "pitch": 24,
              "velocity": 80,
              "position": 0,
              "duration": 0.425
            },
            {
              "pitch": 24,
              "velocity": 75,
              "position": 0.5,
              "duration": 0.425
            },
            {
              "pitch": 24,
              "velocity": 80,
              "position": 1,
              "duration": 0.425
            },
            {
              "pitch": 24,
              "velocity": 75,
              "position": 1.5,
              "duration": 0.425
            },
            {
              "pitch": 24,
              "velocity": 80,
              "position": 2,
              "duration": 0.425
            },
            {
              "pitch": 31,
              "velocity": 75,
              "position": 2.5,
              "duration": 0.425
            },
            {
              "pitch": 28,
              "velocity": 80,
              "position": 3,
              "duration": 0.425
            },
            {
              "pitch": 31,
              "velocity": 75,
              "position": 3.5,
              "duration": 0.425
            }
          ]
        },
        "4": {
          "ctab": {
            "srcChannel": 4,
            "name": "Organ rt",
            "accType": "PAD",
            "editable": false,
            "mutedNotes": [],
            "mutedChords": [
              "1+2+5",
              "sus4",
              "1+5",
              "1+8",
              "Maj7aug",
              "dim",
              "minMaj7(9)",
              "minMaj7",
              "min6",
              "min",
              "aug",
              "Maj7(9)",
              "Maj7#11",
              "Maj7",
              "Maj6",
              "Maj"
            ],
            "autoStart": false,
            "sourceChordNote": 0,
            "sourceChordType": "Maj7",
            "ctb2Low": null,
            "ctb2Main": {
              "ntr": "ROOT_TRANSPOSITION",
              "ntt": "CHORD",
              "bassOn": false,
              "chordRootUpperLimit": 6,
              "noteLowLimit": 0,
              "noteHighLimit": 70,
              "rtr": "PITCH_SHIFT"
            },
            "ctb2High": null
          },
          "notes": [
            {
              "pitch": 60,
              "velocity": 60,
              "position": 0,
              "duration": 3.9895833333333335
            }
          ]
        },
        "9": {
          "ctab": {
            "srcChannel": 9,
            "name": "MainDrum",
            "accType": "RHYTHM",
            "editable": false,
            "mutedNotes": [],
            "mutedChords": [],
            "autoStart": true,
            "sourceChordNote": 0,
            "sourceChordType": "Maj7",
            "ctb2Low": null,
            "ctb2Main": {
              "ntr": "ROOT_FIXED",
              "ntt": "BYPASS",
              "bassOn": false,
              "chordRootUpperLimit": 6,
              "noteLowLimit": 0,
              "noteHighLimit": 127,
              "rtr": "PITCH_SHIFT"
            },
            "ctb2High": null
          },
          "notes": [
            {
              "pitch": 38,
              "velocity": 116,
              "position": 0,
              "duration": 0.004166666666666667
            },
            {
              "pitch": 46,
              "velocity": 80,
              "position": 0,
              "duration": 0.004166666666666667
            },
            {
              "pitch": 38,
              "velocity": 122,
              "position": 0.0625,
              "duration": 0.004166666666666667
            },
            {
              "pitch": 36,
              "velocity": 110,
              "position": 0.5,
              "duration": 0.004166666666666667
            },
            {
              "pitch": 45,
              "velocity": 100,
              "position": 0.7291666666666666,
              "duration": 0.004166666666666667
            },
            {
              "pitch": 41,
              "velocity": 80,
              "position": 0.875,
              "duration": 0.004166666666666667
            },
            {
              "pitch": 36,
              "velocity": 110,
              "position": 1,
              "duration": 0.004166666666666667
            },
            {
              "pitch": 38,
              "velocity": 116,
              "position": 1.5,
              "duration": 0.004166666666666667
            },
            {
              "pitch": 38,
              "velocity": 122,
              "position": 1.5625,
              "duration": 0.004166666666666667
            },
            {
              "pitch": 36,
              "velocity": 110,
              "position": 2,
              "duration": 0.004166666666666667
            },
            {
              "pitch": 45,
              "velocity": 100,
              "position": 2.2291666666666665,
              "duration": 0.004166666666666667
            },
            {
              "pitch": 41,
              "velocity": 80,
              "position": 2.375,
              "duration": 0.004166666666666667
            },
            {
              "pitch": 36,
              "velocity": 110,
              "position": 2.5,
              "duration": 0.004166666666666667
            },
            {
              "pitch": 38,
              "velocity": 116,
              "position": 3,
              "duration": 0.004166666666666667
            },
            {
              "pitch": 38,
              "velocity": 122,
              "position": 3.0625,
              "duration": 0.004166666666666667
            },
            {
              "pitch": 36,
              "velocity": 110,
              "position": 3.5,
              "duration": 0.004166666666666667
            },
            {
              "pitch": 46,
              "velocity": 62,
              "position": 3.5,
              "duration": 0.004166666666666667
            },
            {
              "pitch": 41,
              "velocity": 90,
              "position": 3.5,
              "duration": 0.004166666666666667
            },
            {
              "pitch": 49,
              "velocity": 94,
              "position": 3.9895833333333335,
              "duration": 0.004166666666666667
            }
          ]
        },
        "10": {
          "ctab": {
            "srcChannel": 10,
            "name": "Bass A",
            "accType": "BASS",
            "editable": false,
            "mutedNotes": [],
            "mutedChords": [
              "sus4",
              "7aug",
              "Maj7aug",
              "dim",
              "minMaj7(9)",
              "minMaj7",
              "min(9)",
              "min",
              "aug"
            ],
            "autoStart": false,
            "sourceChordNote": 0,
            "sourceChordType": "Maj7",
            "ctb2Low": null,
            "ctb2Main": {
              "ntr": "ROOT_TRANSPOSITION",
              "ntt": "MELODY",
              "bassOn": true,
              "chordRootUpperLimit": 8,
              "noteLowLimit": 28,
              "noteHighLimit": 127,
              "rtr": "PITCH_SHIFT_TO_ROOT"
            },
            "ctb2High": null
          },
          "notes": [
            {
              "pitch": 24,
              "velocity": 80,
              "position": 0,
              "duration": 0.4895833333333333
            },
            {
              "pitch": 24,
              "velocity": 75,
              "position": 0.5,
              "duration": 0.4895833333333333
            },
            {
              "pitch": 24,
              "velocity": 80,
              "position": 1,
              "duration": 0.4895833333333333
            },
            {
              "pitch": 24,
              "velocity": 75,
              "position": 1.5,
              "duration": 0.4895833333333333
            },
            {
              "pitch": 24,
              "velocity": 80,
              "position": 2,
              "duration": 0.4895833333333333
            },
            {
              "pitch": 31,
              "velocity": 75,
              "position": 2.5,
              "duration": 0.4895833333333333
            },
            {
              "pitch": 33,
              "velocity": 80,
              "position": 3,
              "duration": 0.4895833333333333
            },
            {
              "pitch": 31,
              "velocity": 75,
              "position": 3.5,
              "duration": 0.4895833333333333
            }
          ]
        },
        "11": {
          "ctab": {
            "srcChannel": 11,
            "name": "Tele",
            "accType": "CHORD1",
            "editable": false,
            "mutedNotes": [],
            "mutedChords": [],
            "autoStart": false,
            "sourceChordNote": 0,
            "sourceChordType": "Maj7",
            "ctb2Low": null,
            "ctb2Main": {
              "ntr": "ROOT_TRANSPOSITION",
              "ntt": "BYPASS",
              "bassOn": false,
              "chordRootUpperLimit": 3,
              "noteLowLimit": 47,
              "noteHighLimit": 127,
              "rtr": "PITCH_SHIFT"
            },
            "ctb2High": null
          },
          "notes": [
            {
              "pitch": 76,
              "velocity": 30,
              "position": 0.020833333333333332,
              "duration": 0.4708333333333333
            },
            {
              "pitch": 72,
              "velocity": 30,
              "position": 0.020833333333333332,
              "duration": 0.4708333333333333
            },
            {
              "pitch": 67,
              "velocity": 30,
              "position": 0.020833333333333332,
              "duration": 0.4708333333333333
            },
            {
              "pitch": 71,
              "velocity": 30,
              "position": 0.020833333333333332,
              "duration": 0.4708333333333333
            },
            {
              "pitch": 64,
              "velocity": 33,
              "position": 0.010416666666666666,
              "duration": 0.48125
            },
            {
              "pitch": 36,
              "velocity": 39,
              "position": 0,
              "duration": 0.49166666666666664
            },
            {
              "pitch": 36,
              "velocity": 83,
              "position": 0.5083333333333333,
              "duration": 0.21041666666666667
            },
            {
              "pitch": 43,
              "velocity": 76,
              "position": 0.5395833333333333,
              "duration": 0.21041666666666667
            },
            {
              "pitch": 47,
              "velocity": 76,
              "position": 0.5395833333333333,
              "duration": 0.21041666666666667
            },
            {
              "pitch": 36,
              "velocity": 86,
              "position": 0.9833333333333333,
              "duration": 0.22916666666666666
            },
            {
              "pitch": 43,
              "velocity": 76,
              "position": 1.0145833333333334,
              "duration": 0.22916666666666666
            },
            {
              "pitch": 47,
              "velocity": 76,
              "position": 1.0145833333333334,
              "duration": 0.22916666666666666
            },
            {
              "pitch": 72,
              "velocity": 30,
              "position": 1.5208333333333333,
              "duration": 0.9708333333333333
            },
            {
              "pitch": 76,
              "velocity": 30,
              "position": 1.5208333333333333,
              "duration": 0.9708333333333333
            },
            {
              "pitch": 72,
              "velocity": 21,
              "position": 2.5208333333333335,
              "duration": 0.46875
            },
            {
              "pitch": 76,
              "velocity": 21,
              "position": 2.5208333333333335,
              "duration": 0.46875
            },
            {
              "pitch": 67,
              "velocity": 30,
              "position": 1.5208333333333333,
              "duration": 1.4708333333333334
            },
            {
              "pitch": 71,
              "velocity": 30,
              "position": 1.5208333333333333,
              "duration": 1.4708333333333334
            },
            {
              "pitch": 64,
              "velocity": 33,
              "position": 1.5104166666666667,
              "duration": 1.48125
            },
            {
              "pitch": 76,
              "velocity": 30,
              "position": 3.0208333333333335,
              "duration": 0.45625
            },
            {
              "pitch": 72,
              "velocity": 30,
              "position": 3.0208333333333335,
              "duration": 0.45625
            },
            {
              "pitch": 67,
              "velocity": 30,
              "position": 3.0208333333333335,
              "duration": 0.45625
            },
            {
              "pitch": 71,
              "velocity": 30,
              "position": 3.0208333333333335,
              "duration": 0.45625
            },
            {
              "pitch": 64,
              "velocity": 33,
              "position": 3.0104166666666665,
              "duration": 0.4666666666666667
            },
            {
              "pitch": 36,
              "velocity": 39,
              "position": 1.5,
              "duration": 1.9979166666666666
            },
            {
              "pitch": 36,
              "velocity": 83,
              "position": 3.50625,
              "duration": 0.17291666666666666
            },
            {
              "pitch": 43,
              "velocity": 76,
              "position": 3.5375,
              "duration": 0.17291666666666666
            },
            {
              "pitch": 47,
              "velocity": 76,
              "position": 3.5375,
              "duration": 0.17291666666666666
            }
          ]
        },
        "12": {
          "ctab": {
            "srcChannel": 12,
            "name": "Solid",
            "accType": "CHORD2",
            "editable": false,
            "mutedNotes": [],
            "mutedChords": [],
            "autoStart": false,
            "sourceChordNote": 0,
            "sourceChordType": "Maj7",
            "ctb2Low": null,
            "ctb2Main": {
              "ntr": "ROOT_TRANSPOSITION",
              "ntt": "BYPASS",
              "bassOn": false,
              "chordRootUpperLimit": 8,
              "noteLowLimit": 0,
              "noteHighLimit": 127,
              "rtr": "PITCH_SHIFT"
            },
            "ctb2High": null
          },
          "notes": [
            {
              "pitch": 76,
              "velocity": 30,
              "position": 0.020833333333333332,
              "duration": 0.4708333333333333
            },
            {
              "pitch": 72,
              "velocity": 30,
              "position": 0.020833333333333332,
              "duration": 0.4708333333333333
            },
            {
              "pitch": 67,
              "velocity": 30,
              "position": 0.020833333333333332,
              "duration": 0.4708333333333333
            },
            {
              "pitch": 71,
              "velocity": 30,
              "position": 0.020833333333333332,
              "duration": 0.4708333333333333
            },
            {
              "pitch": 64,
              "velocity": 30,
              "position": 0.010416666666666666,
              "duration": 0.48125
            },
            {
              "pitch": 36,
              "velocity": 41,
              "position": 0,
              "duration": 0.49166666666666664
            },
            {
              "pitch": 36,
              "velocity": 83,
              "position": 0.5083333333333333,
              "duration": 0.21041666666666667
            },
            {
              "pitch": 43,
              "velocity": 76,
              "position": 0.5395833333333333,
              "duration": 0.21041666666666667
            },
            {
              "pitch": 47,
              "velocity": 76,
              "position": 0.5395833333333333,
              "duration": 0.21041666666666667
            },
            {
              "pitch": 36,
              "velocity": 86,
              "position": 0.9833333333333333,
              "duration": 0.22916666666666666
            },
            {
              "pitch": 43,
              "velocity": 76,
              "position": 1.0145833333333334,
              "duration": 0.22916666666666666
            },
            {
              "pitch": 47,
              "velocity": 76,
              "position": 1.0145833333333334,
              "duration": 0.22916666666666666
            },
            {
              "pitch": 72,
              "velocity": 30,
              "position": 1.5208333333333333,
              "duration": 0.9708333333333333
            },
            {
              "pitch": 76,
              "velocity": 30,
              "position": 1.5208333333333333,
              "duration": 0.9708333333333333
            },
            {
              "pitch": 72,
              "velocity": 21,
              "position": 2.5208333333333335,
              "duration": 0.46875
            },
            {
              "pitch": 76,
              "velocity": 21,
              "position": 2.5208333333333335,
              "duration": 0.46875
            },
            {
              "pitch": 67,
              "velocity": 30,
              "position": 1.5208333333333333,
              "duration": 1.4708333333333334
            },
            {
              "pitch": 71,
              "velocity": 30,
              "position": 1.5208333333333333,
              "duration": 1.4708333333333334
            },
            {
              "pitch": 64,
              "velocity": 30,
              "position": 1.5104166666666667,
              "duration": 1.48125
            },
            {
              "pitch": 76,
              "velocity": 30,
              "position": 3.0208333333333335,
              "duration": 0.4708333333333333
            },
            {
              "pitch": 72,
              "velocity": 30,
              "position": 3.0208333333333335,
              "duration": 0.4708333333333333
            },
            {
              "pitch": 67,
              "velocity": 30,
              "position": 3.0208333333333335,
              "duration": 0.4708333333333333
            },
            {
              "pitch": 71,
              "velocity": 30,
              "position": 3.0208333333333335,
              "duration": 0.4708333333333333
            },
            {
              "pitch": 64,
              "velocity": 30,
              "position": 3.0104166666666665,
              "duration": 0.48125
            },
            {
              "pitch": 36,
              "velocity": 41,
              "position": 1.5,
              "duration": 1.9979166666666666
            },
            {
              "pitch": 36,
              "velocity": 83,
              "position": 3.50625,
              "duration": 0.17291666666666666
            },
            {
              "pitch": 43,
              "velocity": 76,
              "position": 3.5375,
              "duration": 0.17291666666666666
            },
            {
              "pitch": 47,
              "velocity": 76,
              "position": 3.5375,
              "duration": 0.17291666666666666
            }
          ]
        },
        "13": {
          "ctab": {
            "srcChannel": 13,
            "name": "Organ",
            "accType": "PAD",
            "editable": false,
            "mutedNotes": [],
            "mutedChords": [],
            "autoStart": false,
            "sourceChordNote": 0,
            "sourceChordType": "Maj7",
            "ctb2Low": null,
            "ctb2Main": {
              "ntr": "ROOT_FIXED",
              "ntt": "CHORD",
              "bassOn": false,
              "chordRootUpperLimit": 7,
              "noteLowLimit": 0,
              "noteHighLimit": 127,
              "rtr": "PITCH_SHIFT"
            },
            "ctb2High": null
          },
          "notes": [
            {
              "pitch": 55,
              "velocity": 60,
              "position": 0,
              "duration": 3.9895833333333335
            },
            {
              "pitch": 64,
              "velocity": 60,
              "position": 0,
              "duration": 3.9895833333333335
            },
            {
              "pitch": 59,
              "velocity": 60,
              "position": 0,
              "duration": 3.9895833333333335
            }
          ]
        }
      }
    },
    "Fill_In_DD": {
      "type": "Fill_In_DD",
      "sizeInBeats": 4,
      "channels": {
        "1": {
          "ctab": {
            "srcChannel": 1,
            "name": "Bass B",
            "accType": "BASS",
            "editable": false,
            "mutedNotes": [],
            "mutedChords": [
              "1+2+5",
              "1+5",
              "1+8",
              "7(#9)",
              "7(b13)",
              "7(b9)",
              "7(13)",
              "7#11",
              "7(9)",
              "7b5",
              "7sus4",
              "7th",
              "dim7",
              "min7(11)",
              "min7(9)",
              "m7b5",
              "min7",
              "min6",
              "Maj6(9)",
              "Maj7(9)",
              "Maj(9)",
              "Maj7#11",
              "Maj7",
              "Maj6",
              "Maj"
            ],
            "autoStart": false,
            "sourceChordNote": 0,
            "sourceChordType": "Maj7",
            "ctb2Low": null,
            "ctb2Main": {
              "ntr": "ROOT_TRANSPOSITION",
              "ntt": "MELODY",
              "bassOn": true,
              "chordRootUpperLimit": 8,
              "noteLowLimit": 28,
              "noteHighLimit": 127,
              "rtr": "PITCH_SHIFT_TO_ROOT"
            },
            "ctb2High": null
          },
          "notes": [
            {
              "pitch": 24,
              "velocity": 80,
              "position": 0,
              "duration": 0.4375
            },
            {
              "pitch": 24,
              "velocity": 75,
              "position": 0.5,
              "duration": 0.1875
            },
            {
              "pitch": 24,
              "velocity": 72,
              "position": 0.75,
              "duration": 0.1875
            },
            {
              "pitch": 24,
              "velocity": 80,
              "position": 1,
              "duration": 0.4375
            },
            {
              "pitch": 24,
              "velocity": 75,
              "position": 1.5,
              "duration": 0.1875
            },
            {
              "pitch": 24,
              "velocity": 72,
              "position": 1.75,
              "duration": 0.1875
            },
            {
              "pitch": 24,
              "velocity": 80,
              "position": 2,
              "duration": 0.4375
            },
            {
              "pitch": 28,
              "velocity": 75,
              "position": 2.5,
              "duration": 0.425
            },
            {
              "pitch": 31,
              "velocity": 80,
              "position": 3,
              "duration": 0.4375
            },
            {
              "pitch": 28,
              "velocity": 75,
              "position": 3.5,
              "duration": 0.425
            }
          ]
        },
        "4": {
          "ctab": {
            "srcChannel": 4,
            "name": "Organ rt",
            "accType": "PAD",
            "editable": false,
            "mutedNotes": [],
            "mutedChords": [
              "1+2+5",
              "sus4",
              "1+5",
              "1+8",
              "Maj7aug",
              "dim",
              "minMaj7(9)",
              "minMaj7",
              "min6",
              "min",
              "aug",
              "Maj7(9)",
              "Maj7#11",
              "Maj7",
              "Maj6",
              "Maj"
            ],
            "autoStart": false,
            "sourceChordNote": 0,
            "sourceChordType": "Maj7",
            "ctb2Low": null,
            "ctb2Main": {
              "ntr": "ROOT_TRANSPOSITION",
              "ntt": "CHORD",
              "bassOn": false,
              "chordRootUpperLimit": 6,
              "noteLowLimit": 0,
              "noteHighLimit": 70,
              "rtr": "PITCH_SHIFT"
            },
            "ctb2High": null
          },
          "notes": [
            {
              "pitch": 72,
              "velocity": 60,
              "position": 0,
              "duration": 3.9895833333333335
            }
          ]
        },
        "9": {
          "ctab": {
            "srcChannel": 9,
            "name": "MainDrum",
            "accType": "RHYTHM",
            "editable": false,
            "mutedNotes": [],
            "mutedChords": [],
            "autoStart": true,
            "sourceChordNote": 0,
            "sourceChordType": "Maj7",
            "ctb2Low": null,
            "ctb2Main": {
              "ntr": "ROOT_FIXED",
              "ntt": "BYPASS",
              "bassOn": false,
              "chordRootUpperLimit": 6,
              "noteLowLimit": 0,
              "noteHighLimit": 127,
              "rtr": "PITCH_SHIFT"
            },
            "ctb2High": null
          },
          "notes": [
            {
              "pitch": 36,
              "velocity": 100,
              "position": 0,
              "duration": 0.004166666666666667
            },
            {
              "pitch": 53,
              "velocity": 111,
              "position": 0,
              "duration": 0.004166666666666667
            },
            {
              "pitch": 44,
              "velocity": 64,
              "position": 0,
              "duration": 0.004166666666666667
            },
            {
              "pitch": 36,
              "velocity": 119,
              "position": 0.5,
              "duration": 0.004166666666666667
            },
            {
              "pitch": 59,
              "velocity": 60,
              "position": 0.5,
              "duration": 0.004166666666666667
            },
            {
              "pitch": 44,
              "velocity": 34,
              "position": 0.5,
              "duration": 0.004166666666666667
            },
            {
              "pitch": 36,
              "velocity": 100,
              "position": 1,
              "duration": 0.004166666666666667
            },
            {
              "pitch": 49,
              "velocity": 100,
              "position": 1,
              "duration": 0.004166666666666667
            },
            {
              "pitch": 44,
              "velocity": 64,
              "position": 1,
              "duration": 0.004166666666666667
            },
            {
              "pitch": 38,
              "velocity": 104,
              "position": 1,
              "duration": 0.004166666666666667
            },
            {
              "pitch": 36,
              "velocity": 100,
              "position": 1.5,
              "duration": 0.004166666666666667
            },
            {
              "pitch": 38,
              "velocity": 116,
              "position": 1.75,
              "duration": 0.004166666666666667
            },
            {
              "pitch": 36,
              "velocity": 100,
              "position": 2,
              "duration": 0.004166666666666667
            },
            {
              "pitch": 53,
              "velocity": 111,
              "position": 2,
              "duration": 0.004166666666666667
            },
            {
              "pitch": 47,
              "velocity": 68,
              "position": 2.25,
              "duration": 0.004166666666666667
            },
            {
              "pitch": 36,
              "velocity": 100,
              "position": 2.5,
              "duration": 0.004166666666666667
            },
            {
              "pitch": 47,
              "velocity": 101,
              "position": 2.5,
              "duration": 0.004166666666666667
            },
            {
              "pitch": 38,
              "velocity": 76,
              "position": 2.75,
              "duration": 0.004166666666666667
            },
            {
              "pitch": 36,
              "velocity": 100,
              "position": 3,
              "duration": 0.004166666666666667
            },
            {
              "pitch": 53,
              "velocity": 111,
              "position": 3,
              "duration": 0.004166666666666667
            },
            {
              "pitch": 38,
              "velocity": 116,
              "position": 3,
              "duration": 0.004166666666666667
            },
            {
              "pitch": 38,
              "velocity": 102,
              "position": 3.25,
              "duration": 0.004166666666666667
            },
            {
              "pitch": 36,
              "velocity": 100,
              "position": 3.5,
              "duration": 0.004166666666666667
            },
            {
              "pitch": 43,
              "velocity": 96,
              "position": 3.5,
              "duration": 0.004166666666666667
            },
            {
              "pitch": 36,
              "velocity": 80,
              "position": 3.75,
              "duration": 0.004166666666666667
            },
            {
              "pitch": 55,
              "velocity": 75,
              "position": 3.75,
              "duration": 0.004166666666666667
            },
            {
              "pitch": 49,
              "velocity": 94,
              "position": 3.9895833333333335,
              "duration": 0.004166666666666667
            }
          ]
        },
        "10": {
          "ctab": {
            "srcChannel": 10,
            "name": "Bass A",
            "accType": "BASS",
            "editable": false,
            "mutedNotes": [],
            "mutedChords": [
              "sus4",
              "7aug",
              "Maj7aug",
              "dim",
              "minMaj7(9)",
              "minMaj7",
              "min(9)",
              "min",
              "aug"
            ],
            "autoStart": false,
            "sourceChordNote": 0,
            "sourceChordType": "Maj7",
            "ctb2Low": null,
            "ctb2Main": {
              "ntr": "ROOT_TRANSPOSITION",
              "ntt": "MELODY",
              "bassOn": true,
              "chordRootUpperLimit": 8,
              "noteLowLimit": 28,
              "noteHighLimit": 127,
              "rtr": "PITCH_SHIFT_TO_ROOT"
            },
            "ctb2High": null
          },
          "notes": [
            {
              "pitch": 24,
              "velocity": 80,
              "position": 0,
              "duration": 0.4375
            },
            {
              "pitch": 24,
              "velocity": 75,
              "position": 0.5,
              "duration": 0.4375
            },
            {
              "pitch": 24,
              "velocity": 80,
              "position": 1,
              "duration": 0.4375
            },
            {
              "pitch": 24,
              "velocity": 75,
              "position": 1.5,
              "duration": 0.1875
            },
            {
              "pitch": 24,
              "velocity": 80,
              "position": 1.75,
              "duration": 0.4375
            },
            {
              "pitch": 24,
              "velocity": 75,
              "position": 2.25,
              "duration": 0.1875
            },
            {
              "pitch": 36,
              "velocity": 75,
              "position": 2.5,
              "duration": 0.23958333333333334
            },
            {
              "pitch": 36,
              "velocity": 75,
              "position": 2.75,
              "duration": 0.23958333333333334
            },
            {
              "pitch": 33,
              "velocity": 75,
              "position": 3,
              "duration": 0.23958333333333334
            },
            {
              "pitch": 33,
              "velocity": 75,
              "position": 3.25,
              "duration": 0.23958333333333334
            },
            {
              "pitch": 31,
              "velocity": 75,
              "position": 3.5,
              "duration": 0.23958333333333334
            },
            {
              "pitch": 28,
              "velocity": 75,
              "position": 3.75,
              "duration": 0.23958333333333334
            }
          ]
        },
        "11": {
          "ctab": {
            "srcChannel": 11,
            "name": "Tele",
            "accType": "CHORD1",
            "editable": false,
            "mutedNotes": [],
            "mutedChords": [],
            "autoStart": false,
            "sourceChordNote": 0,
            "sourceChordType": "Maj7",
            "ctb2Low": null,
            "ctb2Main": {
              "ntr": "ROOT_TRANSPOSITION",
              "ntt": "BYPASS",
              "bassOn": false,
              "chordRootUpperLimit": 3,
              "noteLowLimit": 47,
              "noteHighLimit": 127,
              "rtr": "PITCH_SHIFT"
            },
            "ctb2High": null
          },
          "notes": [
            {
              "pitch": 67,
              "velocity": 30,
              "position": 0.020833333333333332,
              "duration": 0.49166666666666664
            },
            {
              "pitch": 71,
              "velocity": 30,
              "position": 0.020833333333333332,
              "duration": 0.49166666666666664
            },
            {
              "pitch": 76,
              "velocity": 30,
              "position": 0.020833333333333332,
              "duration": 0.49166666666666664
            },
            {
              "pitch": 72,
              "velocity": 30,
              "position": 0.020833333333333332,
              "duration": 0.49166666666666664
            },
            {
              "pitch": 36,
              "velocity": 39,
              "position": 0,
              "duration": 0.975
            },
            {
              "pitch": 76,
              "velocity": 30,
              "position": 0.5208333333333334,
              "duration": 0.45416666666666666
            },
            {
              "pitch": 72,
              "velocity": 30,
              "position": 0.5208333333333334,
              "duration": 0.45416666666666666
            },
            {
              "pitch": 67,
              "velocity": 30,
              "position": 0.5208333333333334,
              "duration": 0.45416666666666666
            },
            {
              "pitch": 71,
              "velocity": 30,
              "position": 0.5208333333333334,
              "duration": 0.45416666666666666
            },
            {
              "pitch": 64,
              "velocity": 33,
              "position": 0.010416666666666666,
              "duration": 0.9645833333333333
            },
            {
              "pitch": 36,
              "velocity": 86,
              "position": 0.9833333333333333,
              "duration": 0.22916666666666666
            },
            {
              "pitch": 43,
              "velocity": 76,
              "position": 1.0145833333333334,
              "duration": 0.22916666666666666
            },
            {
              "pitch": 47,
              "velocity": 76,
              "position": 1.0145833333333334,
              "duration": 0.22916666666666666
            },
            {
              "pitch": 67,
              "velocity": 30,
              "position": 1.5208333333333333,
              "duration": 0.9916666666666667
            },
            {
              "pitch": 71,
              "velocity": 30,
              "position": 1.5208333333333333,
              "duration": 0.9916666666666667
            },
            {
              "pitch": 72,
              "velocity": 30,
              "position": 1.5208333333333333,
              "duration": 0.9916666666666667
            },
            {
              "pitch": 76,
              "velocity": 30,
              "position": 1.5208333333333333,
              "duration": 0.9916666666666667
            },
            {
              "pitch": 67,
              "velocity": 30,
              "position": 2.5208333333333335,
              "duration": 0.4708333333333333
            },
            {
              "pitch": 71,
              "velocity": 30,
              "position": 2.5208333333333335,
              "duration": 0.4708333333333333
            },
            {
              "pitch": 76,
              "velocity": 30,
              "position": 2.5208333333333335,
              "duration": 0.4708333333333333
            },
            {
              "pitch": 72,
              "velocity": 30,
              "position": 2.5208333333333335,
              "duration": 0.4708333333333333
            },
            {
              "pitch": 67,
              "velocity": 30,
              "position": 3.0208333333333335,
              "duration": 0.45416666666666666
            },
            {
              "pitch": 71,
              "velocity": 30,
              "position": 3.0208333333333335,
              "duration": 0.45416666666666666
            },
            {
              "pitch": 76,
              "velocity": 30,
              "position": 3.0208333333333335,
              "duration": 0.45416666666666666
            },
            {
              "pitch": 72,
              "velocity": 30,
              "position": 3.0208333333333335,
              "duration": 0.45416666666666666
            },
            {
              "pitch": 36,
              "velocity": 39,
              "position": 1.5,
              "duration": 1.9979166666666666
            },
            {
              "pitch": 64,
              "velocity": 33,
              "position": 1.5104166666666667,
              "duration": 2.002083333333333
            },
            {
              "pitch": 36,
              "velocity": 83,
              "position": 3.50625,
              "duration": 0.17291666666666666
            },
            {
              "pitch": 43,
              "velocity": 76,
              "position": 3.5375,
              "duration": 0.17291666666666666
            },
            {
              "pitch": 47,
              "velocity": 76,
              "position": 3.5375,
              "duration": 0.17291666666666666
            }
          ]
        },
        "12": {
          "ctab": {
            "srcChannel": 12,
            "name": "Solid",
            "accType": "CHORD2",
            "editable": false,
            "mutedNotes": [],
            "mutedChords": [],
            "autoStart": false,
            "sourceChordNote": 0,
            "sourceChordType": "Maj7",
            "ctb2Low": null,
            "ctb2Main": {
              "ntr": "ROOT_TRANSPOSITION",
              "ntt": "BYPASS",
              "bassOn": false,
              "chordRootUpperLimit": 8,
              "noteLowLimit": 0,
              "noteHighLimit": 127,
              "rtr": "PITCH_SHIFT"
            },
            "ctb2High": null
          },
          "notes": [
            {
              "pitch": 67,
              "velocity": 30,
              "position": 0.020833333333333332,
              "duration": 0.48125
            },
            {
              "pitch": 71,
              "velocity": 30,
              "position": 0.020833333333333332,
              "duration": 0.48125
            },
            {
              "pitch": 76,
              "velocity": 30,
              "position": 0.020833333333333332,
              "duration": 0.48125
            },
            {
              "pitch": 72,
              "velocity": 30,
              "position": 0.020833333333333332,
              "duration": 0.48125
            },
            {
              "pitch": 36,
              "velocity": 41,
              "position": 0,
              "duration": 0.975
            },
            {
              "pitch": 76,
              "velocity": 30,
              "position": 0.5208333333333334,
              "duration": 0.45416666666666666
            },
            {
              "pitch": 72,
              "velocity": 30,
              "position": 0.5208333333333334,
              "duration": 0.45416666666666666
            },
            {
              "pitch": 67,
              "velocity": 30,
              "position": 0.5208333333333334,
              "duration": 0.45416666666666666
            },
            {
              "pitch": 71,
              "velocity": 30,
              "position": 0.5208333333333334,
              "duration": 0.45416666666666666
            },
            {
              "pitch": 64,
              "velocity": 30,
              "position": 0.010416666666666666,
              "duration": 0.9916666666666667
            },
            {
              "pitch": 36,
              "velocity": 86,
              "position": 0.9833333333333333,
              "duration": 0.22916666666666666
            },
            {
              "pitch": 43,
              "velocity": 76,
              "position": 1.0145833333333334,
              "duration": 0.22916666666666666
            },
            {
              "pitch": 47,
              "velocity": 76,
              "position": 1.0145833333333334,
              "duration": 0.22916666666666666
            },
            {
              "pitch": 67,
              "velocity": 30,
              "position": 1.5208333333333333,
              "duration": 0.98125
            },
            {
              "pitch": 71,
              "velocity": 30,
              "position": 1.5208333333333333,
              "duration": 0.98125
            },
            {
              "pitch": 72,
              "velocity": 30,
              "position": 1.5208333333333333,
              "duration": 0.98125
            },
            {
              "pitch": 76,
              "velocity": 30,
              "position": 1.5208333333333333,
              "duration": 0.98125
            },
            {
              "pitch": 67,
              "velocity": 30,
              "position": 2.5208333333333335,
              "duration": 0.49166666666666664
            },
            {
              "pitch": 71,
              "velocity": 30,
              "position": 2.5208333333333335,
              "duration": 0.49166666666666664
            },
            {
              "pitch": 76,
              "velocity": 30,
              "position": 2.5208333333333335,
              "duration": 0.49166666666666664
            },
            {
              "pitch": 72,
              "velocity": 30,
              "position": 2.5208333333333335,
              "duration": 0.49166666666666664
            },
            {
              "pitch": 67,
              "velocity": 30,
              "position": 3.0208333333333335,
              "duration": 0.45416666666666666
            },
            {
              "pitch": 71,
              "velocity": 30,
              "position": 3.0208333333333335,
              "duration": 0.45416666666666666
            },
            {
              "pitch": 76,
              "velocity": 30,
              "position": 3.0208333333333335,
              "duration": 0.45416666666666666
            },
            {
              "pitch": 72,
              "velocity": 30,
              "position": 3.0208333333333335,
              "duration": 0.45416666666666666
            },
            {
              "pitch": 36,
              "velocity": 41,
              "position": 1.5,
              "duration": 1.9979166666666666
            },
            {
              "pitch": 64,
              "velocity": 30,
              "position": 1.5104166666666667,
              "duration": 1.9875
            },
            {
              "pitch": 36,
              "velocity": 83,
              "position": 3.50625,
              "duration": 0.17291666666666666
            },
            {
              "pitch": 43,
              "velocity": 76,
              "position": 3.5375,
              "duration": 0.17291666666666666
            },
            {
              "pitch": 47,
              "velocity": 76,
              "position": 3.5375,
              "duration": 0.17291666666666666
            }
          ]
        },
        "13": {
          "ctab": {
            "srcChannel": 13,
            "name": "Organ",
            "accType": "PAD",
            "editable": false,
            "mutedNotes": [],
            "mutedChords": [],
            "autoStart": false,
            "sourceChordNote": 0,
            "sourceChordType": "Maj7",
            "ctb2Low": null,
            "ctb2Main": {
              "ntr": "ROOT_FIXED",
              "ntt": "CHORD",
              "bassOn": false,
              "chordRootUpperLimit": 7,
              "noteLowLimit": 0,
              "noteHighLimit": 127,
              "rtr": "PITCH_SHIFT"
            },
            "ctb2High": null
          },
          "notes": [
            {
              "pitch": 59,
              "velocity": 60,
              "position": 0,
              "duration": 3.9895833333333335
            },
            {
              "pitch": 67,
              "velocity": 60,
              "position": 0,
              "duration": 3.9895833333333335
            },
            {
              "pitch": 64,
              "velocity": 60,
              "position": 0,
              "duration": 3.9895833333333335
            }
          ]
        }
      }
    },
    "Ending_A": {
      "type": "Ending_A",
      "sizeInBeats": 12,
      "channels": {
        "1": {
          "ctab": {
            "srcChannel": 1,
            "name": "Bass B",
            "accType": "BASS",
            "editable": false,
            "mutedNotes": [],
            "mutedChords": [
              "1+2+5",
              "1+5",
              "1+8",
              "7(#9)",
              "7(b13)",
              "7(b9)",
              "7(13)",
              "7#11",
              "7(9)",
              "7b5",
              "7sus4",
              "7th",
              "dim7",
              "min7(11)",
              "min7(9)",
              "m7b5",
              "min7",
              "min6",
              "Maj6(9)",
              "Maj7(9)",
              "Maj(9)",
              "Maj7#11",
              "Maj7",
              "Maj6",
              "Maj"
            ],
            "autoStart": false,
            "sourceChordNote": 0,
            "sourceChordType": "Maj7",
            "ctb2Low": null,
            "ctb2Main": {
              "ntr": "ROOT_TRANSPOSITION",
              "ntt": "MELODY",
              "bassOn": true,
              "chordRootUpperLimit": 8,
              "noteLowLimit": 28,
              "noteHighLimit": 127,
              "rtr": "PITCH_SHIFT_TO_ROOT"
            },
            "ctb2High": null
          },
          "notes": [
            {
              "pitch": 24,
              "velocity": 36,
              "position": 0,
              "duration": 10.989583333333334
            }
          ]
        },
        "4": {
          "ctab": {
            "srcChannel": 4,
            "name": "Organ rt",
            "accType": "PAD",
            "editable": false,
            "mutedNotes": [],
            "mutedChords": [
              "1+2+5",
              "sus4",
              "1+5",
              "1+8",
              "Maj7aug",
              "dim",
              "minMaj7(9)",
              "minMaj7",
              "min6",
              "min",
              "aug",
              "Maj7(9)",
              "Maj7#11",
              "Maj7",
              "Maj6",
              "Maj"
            ],
            "autoStart": false,
            "sourceChordNote": 0,
            "sourceChordType": "Maj7",
            "ctb2Low": null,
            "ctb2Main": {
              "ntr": "ROOT_TRANSPOSITION",
              "ntt": "CHORD",
              "bassOn": false,
              "chordRootUpperLimit": 6,
              "noteLowLimit": 0,
              "noteHighLimit": 70,
              "rtr": "PITCH_SHIFT"
            },
            "ctb2High": null
          },
          "notes": [
            {
              "pitch": 60,
              "velocity": 60,
              "position": 0,
              "duration": 10.989583333333334
            }
          ]
        },
        "9": {
          "ctab": {
            "srcChannel": 9,
            "name": "MainDrum",
            "accType": "RHYTHM",
            "editable": false,
            "mutedNotes": [],
            "mutedChords": [],
            "autoStart": true,
            "sourceChordNote": 0,
            "sourceChordType": "Maj7",
            "ctb2Low": null,
            "ctb2Main": {
              "ntr": "ROOT_FIXED",
              "ntt": "BYPASS",
              "bassOn": false,
              "chordRootUpperLimit": 6,
              "noteLowLimit": 0,
              "noteHighLimit": 127,
              "rtr": "PITCH_SHIFT"
            },
            "ctb2High": null
          },
          "notes": [
            {
              "pitch": 36,
              "velocity": 100,
              "position": 0,
              "duration": 0.004166666666666667
            },
            {
              "pitch": 46,
              "velocity": 80,
              "position": 0,
              "duration": 0.004166666666666667
            },
            {
              "pitch": 57,
              "velocity": 18,
              "position": 1.1708333333333334,
              "duration": 0.004166666666666667
            },
            {
              "pitch": 49,
              "velocity": 28,
              "position": 1.3375,
              "duration": 0.004166666666666667
            },
            {
              "pitch": 57,
              "velocity": 18,
              "position": 1.50625,
              "duration": 0.004166666666666667
            },
            {
              "pitch": 49,
              "velocity": 25,
              "position": 1.6708333333333334,
              "duration": 0.004166666666666667
            },
            {
              "pitch": 57,
              "velocity": 12,
              "position": 1.8395833333333333,
              "duration": 0.004166666666666667
            },
            {
              "pitch": 49,
              "velocity": 23,
              "position": 2.004166666666667,
              "duration": 0.004166666666666667
            },
            {
              "pitch": 57,
              "velocity": 14,
              "position": 2.1708333333333334,
              "duration": 0.004166666666666667
            },
            {
              "pitch": 49,
              "velocity": 28,
              "position": 2.3333333333333335,
              "duration": 0.004166666666666667
            },
            {
              "pitch": 57,
              "velocity": 15,
              "position": 2.5,
              "duration": 0.004166666666666667
            },
            {
              "pitch": 49,
              "velocity": 27,
              "position": 2.660416666666667,
              "duration": 0.004166666666666667
            },
            {
              "pitch": 57,
              "velocity": 12,
              "position": 2.825,
              "duration": 0.004166666666666667
            },
            {
              "pitch": 49,
              "velocity": 27,
              "position": 3.004166666666667,
              "duration": 0.004166666666666667
            },
            {
              "pitch": 57,
              "velocity": 16,
              "position": 3.16875,
              "duration": 0.004166666666666667
            },
            {
              "pitch": 49,
              "velocity": 28,
              "position": 3.3270833333333334,
              "duration": 0.004166666666666667
            },
            {
              "pitch": 57,
              "velocity": 14,
              "position": 3.4895833333333335,
              "duration": 0.004166666666666667
            },
            {
              "pitch": 49,
              "velocity": 29,
              "position": 3.6666666666666665,
              "duration": 0.004166666666666667
            },
            {
              "pitch": 57,
              "velocity": 18,
              "position": 3.8291666666666666,
              "duration": 0.004166666666666667
            },
            {
              "pitch": 49,
              "velocity": 36,
              "position": 4.004166666666666,
              "duration": 0.004166666666666667
            },
            {
              "pitch": 57,
              "velocity": 23,
              "position": 4.164583333333334,
              "duration": 0.004166666666666667
            },
            {
              "pitch": 49,
              "velocity": 38,
              "position": 4.3375,
              "duration": 0.004166666666666667
            },
            {
              "pitch": 57,
              "velocity": 29,
              "position": 4.497916666666667,
              "duration": 0.004166666666666667
            },
            {
              "pitch": 49,
              "velocity": 52,
              "position": 4.670833333333333,
              "duration": 0.004166666666666667
            },
            {
              "pitch": 57,
              "velocity": 40,
              "position": 4.829166666666667,
              "duration": 0.004166666666666667
            },
            {
              "pitch": 49,
              "velocity": 61,
              "position": 5,
              "duration": 0.004166666666666667
            },
            {
              "pitch": 57,
              "velocity": 52,
              "position": 5.15625,
              "duration": 0.004166666666666667
            },
            {
              "pitch": 49,
              "velocity": 69,
              "position": 5.327083333333333,
              "duration": 0.004166666666666667
            },
            {
              "pitch": 57,
              "velocity": 60,
              "position": 5.502083333333333,
              "duration": 0.004166666666666667
            },
            {
              "pitch": 49,
              "velocity": 68,
              "position": 5.672916666666667,
              "duration": 0.004166666666666667
            },
            {
              "pitch": 57,
              "velocity": 70,
              "position": 5.827083333333333,
              "duration": 0.004166666666666667
            },
            {
              "pitch": 49,
              "velocity": 71,
              "position": 5.995833333333334,
              "duration": 0.004166666666666667
            },
            {
              "pitch": 38,
              "velocity": 116,
              "position": 10.75,
              "duration": 0.004166666666666667
            },
            {
              "pitch": 34,
              "velocity": 90,
              "position": 10.833333333333334,
              "duration": 0.004166666666666667
            },
            {
              "pitch": 36,
              "velocity": 100,
              "position": 11,
              "duration": 0.004166666666666667
            },
            {
              "pitch": 44,
              "velocity": 64,
              "position": 11,
              "duration": 0.004166666666666667
            }
          ]
        },
        "10": {
          "ctab": {
            "srcChannel": 10,
            "name": "Bass A",
            "accType": "BASS",
            "editable": false,
            "mutedNotes": [],
            "mutedChords": [
              "sus4",
              "7aug",
              "Maj7aug",
              "dim",
              "minMaj7(9)",
              "minMaj7",
              "min(9)",
              "min",
              "aug"
            ],
            "autoStart": false,
            "sourceChordNote": 0,
            "sourceChordType": "Maj7",
            "ctb2Low": null,
            "ctb2Main": {
              "ntr": "ROOT_TRANSPOSITION",
              "ntt": "MELODY",
              "bassOn": true,
              "chordRootUpperLimit": 8,
              "noteLowLimit": 28,
              "noteHighLimit": 127,
              "rtr": "PITCH_SHIFT_TO_ROOT"
            },
            "ctb2High": null
          },
          "notes": [
            {
              "pitch": 24,
              "velocity": 36,
              "position": 0,
              "duration": 10.989583333333334
            }
          ]
        },
        "11": {
          "ctab": {
            "srcChannel": 11,
            "name": "Tele",
            "accType": "CHORD1",
            "editable": false,
            "mutedNotes": [],
            "mutedChords": [],
            "autoStart": false,
            "sourceChordNote": 0,
            "sourceChordType": "Maj7",
            "ctb2Low": null,
            "ctb2Main": {
              "ntr": "ROOT_TRANSPOSITION",
              "ntt": "BYPASS",
              "bassOn": false,
              "chordRootUpperLimit": 3,
              "noteLowLimit": 47,
              "noteHighLimit": 127,
              "rtr": "PITCH_SHIFT"
            },
            "ctb2High": null
          },
          "notes": [
            {
              "pitch": 36,
              "velocity": 39,
              "position": 0,
              "duration": 10.98125
            },
            {
              "pitch": 72,
              "velocity": 30,
              "position": 0.010416666666666666,
              "duration": 10.98125
            },
            {
              "pitch": 67,
              "velocity": 30,
              "position": 0.010416666666666666,
              "duration": 10.98125
            },
            {
              "pitch": 71,
              "velocity": 30,
              "position": 0.010416666666666666,
              "duration": 10.98125
            },
            {
              "pitch": 64,
              "velocity": 33,
              "position": 0.010416666666666666,
              "duration": 10.98125
            },
            {
              "pitch": 76,
              "velocity": 30,
              "position": 0.010416666666666666,
              "duration": 10.98125
            }
          ]
        },
        "12": {
          "ctab": {
            "srcChannel": 12,
            "name": "Solid",
            "accType": "CHORD2",
            "editable": false,
            "mutedNotes": [],
            "mutedChords": [],
            "autoStart": false,
            "sourceChordNote": 0,
            "sourceChordType": "Maj7",
            "ctb2Low": null,
            "ctb2Main": {
              "ntr": "ROOT_TRANSPOSITION",
              "ntt": "BYPASS",
              "bassOn": false,
              "chordRootUpperLimit": 8,
              "noteLowLimit": 0,
              "noteHighLimit": 127,
              "rtr": "PITCH_SHIFT"
            },
            "ctb2High": null
          },
          "notes": [
            {
              "pitch": 36,
              "velocity": 41,
              "position": 0,
              "duration": 10.98125
            },
            {
              "pitch": 72,
              "velocity": 30,
              "position": 0.010416666666666666,
              "duration": 10.98125
            },
            {
              "pitch": 67,
              "velocity": 30,
              "position": 0.010416666666666666,
              "duration": 10.98125
            },
            {
              "pitch": 71,
              "velocity": 30,
              "position": 0.010416666666666666,
              "duration": 10.98125
            },
            {
              "pitch": 64,
              "velocity": 30,
              "position": 0.010416666666666666,
              "duration": 10.98125
            },
            {
              "pitch": 76,
              "velocity": 30,
              "position": 0.010416666666666666,
              "duration": 10.98125
            }
          ]
        },
        "13": {
          "ctab": {
            "srcChannel": 13,
            "name": "Organ",
            "accType": "PAD",
            "editable": false,
            "mutedNotes": [],
            "mutedChords": [],
            "autoStart": false,
            "sourceChordNote": 0,
            "sourceChordType": "Maj7",
            "ctb2Low": null,
            "ctb2Main": {
              "ntr": "ROOT_FIXED",
              "ntt": "CHORD",
              "bassOn": false,
              "chordRootUpperLimit": 7,
              "noteLowLimit": 0,
              "noteHighLimit": 127,
              "rtr": "PITCH_SHIFT"
            },
            "ctb2High": null
          },
          "notes": [
            {
              "pitch": 55,
              "velocity": 60,
              "position": 0,
              "duration": 10.989583333333334
            },
            {
              "pitch": 64,
              "velocity": 60,
              "position": 0,
              "duration": 10.989583333333334
            },
            {
              "pitch": 59,
              "velocity": 60,
              "position": 0,
              "duration": 10.989583333333334
            }
          ]
        }
      }
    },
    "Fill_In_BA": {
      "type": "Fill_In_BA",
      "sizeInBeats": 4,
      "channels": {
        "1": {
          "ctab": {
            "srcChannel": 1,
            "name": "Bass B",
            "accType": "BASS",
            "editable": false,
            "mutedNotes": [],
            "mutedChords": [
              "1+2+5",
              "1+5",
              "1+8",
              "7(#9)",
              "7(b13)",
              "7(b9)",
              "7(13)",
              "7#11",
              "7(9)",
              "7b5",
              "7sus4",
              "7th",
              "dim7",
              "min7(11)",
              "min7(9)",
              "m7b5",
              "min7",
              "min6",
              "Maj6(9)",
              "Maj7(9)",
              "Maj(9)",
              "Maj7#11",
              "Maj7",
              "Maj6",
              "Maj"
            ],
            "autoStart": false,
            "sourceChordNote": 0,
            "sourceChordType": "Maj7",
            "ctb2Low": null,
            "ctb2Main": {
              "ntr": "ROOT_TRANSPOSITION",
              "ntt": "MELODY",
              "bassOn": true,
              "chordRootUpperLimit": 8,
              "noteLowLimit": 28,
              "noteHighLimit": 127,
              "rtr": "PITCH_SHIFT_TO_ROOT"
            },
            "ctb2High": null
          },
          "notes": [
            {
              "pitch": 24,
              "velocity": 80,
              "position": 0,
              "duration": 0.425
            },
            {
              "pitch": 24,
              "velocity": 75,
              "position": 0.5,
              "duration": 0.425
            },
            {
              "pitch": 24,
              "velocity": 80,
              "position": 1,
              "duration": 0.425
            }
          ]
        },
        "4": {
          "ctab": {
            "srcChannel": 4,
            "name": "Organ rt",
            "accType": "PAD",
            "editable": false,
            "mutedNotes": [],
            "mutedChords": [
              "1+2+5",
              "sus4",
              "1+5",
              "1+8",
              "Maj7aug",
              "dim",
              "minMaj7(9)",
              "minMaj7",
              "min6",
              "min",
              "aug",
              "Maj7(9)",
              "Maj7#11",
              "Maj7",
              "Maj6",
              "Maj"
            ],
            "autoStart": false,
            "sourceChordNote": 0,
            "sourceChordType": "Maj7",
            "ctb2Low": null,
            "ctb2Main": {
              "ntr": "ROOT_TRANSPOSITION",
              "ntt": "CHORD",
              "bassOn": false,
              "chordRootUpperLimit": 6,
              "noteLowLimit": 0,
              "noteHighLimit": 70,
              "rtr": "PITCH_SHIFT"
            },
            "ctb2High": null
          },
          "notes": [
            {
              "pitch": 72,
              "velocity": 60,
              "position": 0,
              "duration": 1.4895833333333333
            }
          ]
        },
        "9": {
          "ctab": {
            "srcChannel": 9,
            "name": "MainDrum",
            "accType": "RHYTHM",
            "editable": false,
            "mutedNotes": [],
            "mutedChords": [],
            "autoStart": true,
            "sourceChordNote": 0,
            "sourceChordType": "Maj7",
            "ctb2Low": null,
            "ctb2Main": {
              "ntr": "ROOT_FIXED",
              "ntt": "BYPASS",
              "bassOn": false,
              "chordRootUpperLimit": 6,
              "noteLowLimit": 0,
              "noteHighLimit": 127,
              "rtr": "PITCH_SHIFT"
            },
            "ctb2High": null
          },
          "notes": [
            {
              "pitch": 36,
              "velocity": 100,
              "position": 0,
              "duration": 0.004166666666666667
            },
            {
              "pitch": 53,
              "velocity": 115,
              "position": 0,
              "duration": 0.004166666666666667
            },
            {
              "pitch": 44,
              "velocity": 64,
              "position": 0,
              "duration": 0.004166666666666667
            },
            {
              "pitch": 44,
              "velocity": 34,
              "position": 0.5,
              "duration": 0.004166666666666667
            },
            {
              "pitch": 53,
              "velocity": 56,
              "position": 0.5,
              "duration": 0.004166666666666667
            },
            {
              "pitch": 38,
              "velocity": 116,
              "position": 1,
              "duration": 0.004166666666666667
            },
            {
              "pitch": 53,
              "velocity": 115,
              "position": 1,
              "duration": 0.004166666666666667
            },
            {
              "pitch": 44,
              "velocity": 64,
              "position": 1,
              "duration": 0.004166666666666667
            },
            {
              "pitch": 36,
              "velocity": 100,
              "position": 1.5,
              "duration": 0.004166666666666667
            },
            {
              "pitch": 38,
              "velocity": 116,
              "position": 2,
              "duration": 0.004166666666666667
            },
            {
              "pitch": 34,
              "velocity": 90,
              "position": 2.04375,
              "duration": 0.00625
            },
            {
              "pitch": 36,
              "velocity": 100,
              "position": 2.5,
              "duration": 0.004166666666666667
            },
            {
              "pitch": 43,
              "velocity": 80,
              "position": 2.5,
              "duration": 0.004166666666666667
            },
            {
              "pitch": 38,
              "velocity": 116,
              "position": 3,
              "duration": 0.004166666666666667
            },
            {
              "pitch": 38,
              "velocity": 116,
              "position": 3.25,
              "duration": 0.004166666666666667
            },
            {
              "pitch": 36,
              "velocity": 100,
              "position": 3.5,
              "duration": 0.004166666666666667
            },
            {
              "pitch": 41,
              "velocity": 80,
              "position": 3.5,
              "duration": 0.004166666666666667
            },
            {
              "pitch": 49,
              "velocity": 90,
              "position": 3.9895833333333335,
              "duration": 0.004166666666666667
            }
          ]
        },
        "10": {
          "ctab": {
            "srcChannel": 10,
            "name": "Bass A",
            "accType": "BASS",
            "editable": false,
            "mutedNotes": [],
            "mutedChords": [
              "sus4",
              "7aug",
              "Maj7aug",
              "dim",
              "minMaj7(9)",
              "minMaj7",
              "min(9)",
              "min",
              "aug"
            ],
            "autoStart": false,
            "sourceChordNote": 0,
            "sourceChordType": "Maj7",
            "ctb2Low": null,
            "ctb2Main": {
              "ntr": "ROOT_TRANSPOSITION",
              "ntt": "MELODY",
              "bassOn": true,
              "chordRootUpperLimit": 8,
              "noteLowLimit": 28,
              "noteHighLimit": 127,
              "rtr": "PITCH_SHIFT_TO_ROOT"
            },
            "ctb2High": null
          },
          "notes": [
            {
              "pitch": 24,
              "velocity": 36,
              "position": 0,
              "duration": 0.4895833333333333
            },
            {
              "pitch": 24,
              "velocity": 33,
              "position": 0.5,
              "duration": 0.4895833333333333
            },
            {
              "pitch": 24,
              "velocity": 36,
              "position": 1,
              "duration": 0.4895833333333333
            }
          ]
        },
        "11": {
          "ctab": {
            "srcChannel": 11,
            "name": "Tele",
            "accType": "CHORD1",
            "editable": false,
            "mutedNotes": [],
            "mutedChords": [],
            "autoStart": false,
            "sourceChordNote": 0,
            "sourceChordType": "Maj7",
            "ctb2Low": null,
            "ctb2Main": {
              "ntr": "ROOT_TRANSPOSITION",
              "ntt": "BYPASS",
              "bassOn": false,
              "chordRootUpperLimit": 3,
              "noteLowLimit": 47,
              "noteHighLimit": 127,
              "rtr": "PITCH_SHIFT"
            },
            "ctb2High": null
          },
          "notes": [
            {
              "pitch": 36,
              "velocity": 39,
              "position": 0,
              "duration": 0.48125
            },
            {
              "pitch": 64,
              "velocity": 33,
              "position": 0.010416666666666666,
              "duration": 0.98125
            },
            {
              "pitch": 36,
              "velocity": 30,
              "position": 0.4895833333333333,
              "duration": 0.5020833333333333
            },
            {
              "pitch": 67,
              "velocity": 30,
              "position": 0.010416666666666666,
              "duration": 0.98125
            },
            {
              "pitch": 71,
              "velocity": 30,
              "position": 0.010416666666666666,
              "duration": 0.98125
            },
            {
              "pitch": 72,
              "velocity": 30,
              "position": 0.010416666666666666,
              "duration": 0.98125
            },
            {
              "pitch": 76,
              "velocity": 30,
              "position": 0.010416666666666666,
              "duration": 0.98125
            },
            {
              "pitch": 76,
              "velocity": 30,
              "position": 1.0104166666666667,
              "duration": 0.475
            },
            {
              "pitch": 72,
              "velocity": 30,
              "position": 1.0104166666666667,
              "duration": 0.475
            },
            {
              "pitch": 67,
              "velocity": 30,
              "position": 1.0104166666666667,
              "duration": 0.475
            },
            {
              "pitch": 71,
              "velocity": 30,
              "position": 1.0104166666666667,
              "duration": 0.475
            },
            {
              "pitch": 64,
              "velocity": 33,
              "position": 1.0104166666666667,
              "duration": 0.475
            },
            {
              "pitch": 36,
              "velocity": 39,
              "position": 1,
              "duration": 0.48541666666666666
            }
          ]
        },
        "12": {
          "ctab": {
            "srcChannel": 12,
            "name": "Solid",
            "accType": "CHORD2",
            "editable": false,
            "mutedNotes": [],
            "mutedChords": [],
            "autoStart": false,
            "sourceChordNote": 0,
            "sourceChordType": "Maj7",
            "ctb2Low": null,
            "ctb2Main": {
              "ntr": "ROOT_TRANSPOSITION",
              "ntt": "BYPASS",
              "bassOn": false,
              "chordRootUpperLimit": 8,
              "noteLowLimit": 0,
              "noteHighLimit": 127,
              "rtr": "PITCH_SHIFT"
            },
            "ctb2High": null
          },
          "notes": [
            {
              "pitch": 36,
              "velocity": 41,
              "position": 0,
              "duration": 0.48125
            },
            {
              "pitch": 64,
              "velocity": 30,
              "position": 0.010416666666666666,
              "duration": 0.98125
            },
            {
              "pitch": 36,
              "velocity": 30,
              "position": 0.4895833333333333,
              "duration": 0.5020833333333333
            },
            {
              "pitch": 67,
              "velocity": 30,
              "position": 0.010416666666666666,
              "duration": 0.98125
            },
            {
              "pitch": 71,
              "velocity": 30,
              "position": 0.010416666666666666,
              "duration": 0.98125
            },
            {
              "pitch": 72,
              "velocity": 30,
              "position": 0.010416666666666666,
              "duration": 0.98125
            },
            {
              "pitch": 76,
              "velocity": 30,
              "position": 0.010416666666666666,
              "duration": 0.98125
            },
            {
              "pitch": 76,
              "velocity": 30,
              "position": 1.0104166666666667,
              "duration": 0.475
            },
            {
              "pitch": 72,
              "velocity": 30,
              "position": 1.0104166666666667,
              "duration": 0.475
            },
            {
              "pitch": 67,
              "velocity": 30,
              "position": 1.0104166666666667,
              "duration": 0.475
            },
            {
              "pitch": 71,
              "velocity": 30,
              "position": 1.0104166666666667,
              "duration": 0.475
            },
            {
              "pitch": 64,
              "velocity": 30,
              "position": 1.0104166666666667,
              "duration": 0.475
            },
            {
              "pitch": 36,
              "velocity": 41,
              "position": 1,
              "duration": 0.48541666666666666
            }
          ]
        },
        "13": {
          "ctab": {
            "srcChannel": 13,
            "name": "Organ",
            "accType": "PAD",
            "editable": false,
            "mutedNotes": [],
            "mutedChords": [],
            "autoStart": false,
            "sourceChordNote": 0,
            "sourceChordType": "Maj7",
            "ctb2Low": null,
            "ctb2Main": {
              "ntr": "ROOT_FIXED",
              "ntt": "CHORD",
              "bassOn": false,
              "chordRootUpperLimit": 7,
              "noteLowLimit": 0,
              "noteHighLimit": 127,
              "rtr": "PITCH_SHIFT"
            },
            "ctb2High": null
          },
          "notes": [
            {
              "pitch": 59,
              "velocity": 60,
              "position": 0,
              "duration": 1.4895833333333333
            },
            {
              "pitch": 67,
              "velocity": 60,
              "position": 0,
              "duration": 1.4895833333333333
            },
            {
              "pitch": 64,
              "velocity": 60,
              "position": 0,
              "duration": 1.4895833333333333
            }
          ]
        }
      }
    },
    "Intro_B": {
      "type": "Intro_B",
      "sizeInBeats": 32,
      "channels": {
        "1": {
          "ctab": {
            "srcChannel": 1,
            "name": "Bass",
            "accType": "BASS",
            "editable": false,
            "mutedNotes": [],
            "mutedChords": [
              "1+2+5",
              "sus4",
              "1+5",
              "1+8",
              "7aug",
              "Maj7aug",
              "7(#9)",
              "7(b13)",
              "7(b9)",
              "7(13)",
              "7#11",
              "7(9)",
              "7b5",
              "7sus4",
              "7th",
              "aug",
              "Maj6(9)",
              "Maj7(9)",
              "Maj(9)",
              "Maj7#11",
              "Maj7",
              "Maj6",
              "Maj"
            ],
            "autoStart": false,
            "sourceChordNote": 0,
            "sourceChordType": "min",
            "ctb2Low": null,
            "ctb2Main": {
              "ntr": "ROOT_TRANSPOSITION",
              "ntt": "BYPASS",
              "bassOn": false,
              "chordRootUpperLimit": 8,
              "noteLowLimit": 28,
              "noteHighLimit": 127,
              "rtr": "PITCH_SHIFT"
            },
            "ctb2High": null
          },
          "notes": [
            {
              "pitch": 24,
              "velocity": 67,
              "position": 0,
              "duration": 0.4895833333333333
            },
            {
              "pitch": 24,
              "velocity": 68,
              "position": 1,
              "duration": 0.4895833333333333
            },
            {
              "pitch": 24,
              "velocity": 69,
              "position": 2,
              "duration": 0.4895833333333333
            },
            {
              "pitch": 24,
              "velocity": 70,
              "position": 3,
              "duration": 0.4895833333333333
            },
            {
              "pitch": 24,
              "velocity": 71,
              "position": 4,
              "duration": 0.4895833333333333
            },
            {
              "pitch": 24,
              "velocity": 72,
              "position": 5,
              "duration": 0.4895833333333333
            },
            {
              "pitch": 24,
              "velocity": 73,
              "position": 6,
              "duration": 0.4895833333333333
            },
            {
              "pitch": 24,
              "velocity": 74,
              "position": 7,
              "duration": 0.4895833333333333
            },
            {
              "pitch": 24,
              "velocity": 75,
              "position": 8,
              "duration": 0.4895833333333333
            },
            {
              "pitch": 24,
              "velocity": 76,
              "position": 9,
              "duration": 0.4895833333333333
            },
            {
              "pitch": 24,
              "velocity": 77,
              "position": 10,
              "duration": 0.4895833333333333
            },
            {
              "pitch": 24,
              "velocity": 78,
              "position": 11,
              "duration": 0.4895833333333333
            },
            {
              "pitch": 24,
              "velocity": 79,
              "position": 12,
              "duration": 0.4895833333333333
            },
            {
              "pitch": 24,
              "velocity": 80,
              "position": 13,
              "duration": 0.38958333333333334
            },
            {
              "pitch": 27,
              "velocity": 40,
              "position": 13.5,
              "duration": 0.8645833333333334
            },
            {
              "pitch": 22,
              "velocity": 40,
              "position": 14.5,
              "duration": 0.8645833333333334
            },
            {
              "pitch": 24,
              "velocity": 40,
              "position": 15.5,
              "duration": 0.4895833333333333
            },
            {
              "pitch": 24,
              "velocity": 80,
              "position": 16,
              "duration": 0.4895833333333333
            },
            {
              "pitch": 24,
              "velocity": 80,
              "position": 17,
              "duration": 0.4895833333333333
            },
            {
              "pitch": 24,
              "velocity": 80,
              "position": 18,
              "duration": 0.4895833333333333
            },
            {
              "pitch": 24,
              "velocity": 80,
              "position": 19,
              "duration": 0.4895833333333333
            },
            {
              "pitch": 24,
              "velocity": 80,
              "position": 20,
              "duration": 0.4895833333333333
            },
            {
              "pitch": 24,
              "velocity": 80,
              "position": 21,
              "duration": 0.4895833333333333
            },
            {
              "pitch": 24,
              "velocity": 80,
              "position": 22,
              "duration": 0.4895833333333333
            },
            {
              "pitch": 24,
              "velocity": 80,
              "position": 23,
              "duration": 0.4895833333333333
            },
            {
              "pitch": 24,
              "velocity": 80,
              "position": 24,
              "duration": 0.4895833333333333
            },
            {
              "pitch": 24,
              "velocity": 80,
              "position": 25,
              "duration": 0.41458333333333336
            },
            {
              "pitch": 24,
              "velocity": 75,
              "position": 25.5,
              "duration": 0.41458333333333336
            },
            {
              "pitch": 24,
              "velocity": 80,
              "position": 26,
              "duration": 0.41458333333333336
            },
            {
              "pitch": 24,
              "velocity": 80,
              "position": 26.5,
              "duration": 0.41458333333333336
            },
            {
              "pitch": 24,
              "velocity": 75,
              "position": 27,
              "duration": 0.41458333333333336
            },
            {
              "pitch": 24,
              "velocity": 80,
              "position": 27.5,
              "duration": 0.41458333333333336
            },
            {
              "pitch": 24,
              "velocity": 80,
              "position": 28,
              "duration": 0.41458333333333336
            },
            {
              "pitch": 24,
              "velocity": 75,
              "position": 28.5,
              "duration": 0.41458333333333336
            },
            {
              "pitch": 24,
              "velocity": 80,
              "position": 29,
              "duration": 0.41458333333333336
            },
            {
              "pitch": 27,
              "velocity": 38,
              "position": 29.5,
              "duration": 0.8895833333333333
            },
            {
              "pitch": 22,
              "velocity": 38,
              "position": 30.5,
              "duration": 1.3645833333333333
            }
          ]
        },
        "2": {
          "ctab": {
            "srcChannel": 2,
            "name": "Tele",
            "accType": "CHORD1",
            "editable": false,
            "mutedNotes": [],
            "mutedChords": [
              "1+2+5",
              "sus4",
              "1+5",
              "1+8",
              "7aug",
              "Maj7aug",
              "7(#9)",
              "7(b13)",
              "7(b9)",
              "7(13)",
              "7#11",
              "7(9)",
              "7b5",
              "7sus4",
              "7th",
              "aug",
              "Maj6(9)",
              "Maj7(9)",
              "Maj(9)",
              "Maj7#11",
              "Maj7",
              "Maj6",
              "Maj"
            ],
            "autoStart": false,
            "sourceChordNote": 0,
            "sourceChordType": "min",
            "ctb2Low": null,
            "ctb2Main": {
              "ntr": "ROOT_TRANSPOSITION",
              "ntt": "BYPASS",
              "bassOn": false,
              "chordRootUpperLimit": 8,
              "noteLowLimit": 58,
              "noteHighLimit": 69,
              "rtr": "PITCH_SHIFT"
            },
            "ctb2High": null
          },
          "notes": [
            {
              "pitch": 48,
              "velocity": 77,
              "position": 0,
              "duration": 0.22916666666666666
            },
            {
              "pitch": 55,
              "velocity": 76,
              "position": 0.020833333333333332,
              "duration": 0.22916666666666666
            },
            {
              "pitch": 48,
              "velocity": 76,
              "position": 0.5,
              "duration": 0.22916666666666666
            },
            {
              "pitch": 55,
              "velocity": 76,
              "position": 0.5208333333333334,
              "duration": 0.22916666666666666
            },
            {
              "pitch": 48,
              "velocity": 78,
              "position": 1,
              "duration": 0.19791666666666666
            },
            {
              "pitch": 55,
              "velocity": 76,
              "position": 1.0208333333333333,
              "duration": 0.19791666666666666
            },
            {
              "pitch": 48,
              "velocity": 76,
              "position": 1.5,
              "duration": 0.19791666666666666
            },
            {
              "pitch": 55,
              "velocity": 76,
              "position": 1.5208333333333333,
              "duration": 0.19791666666666666
            },
            {
              "pitch": 48,
              "velocity": 79,
              "position": 2,
              "duration": 0.21875
            },
            {
              "pitch": 55,
              "velocity": 76,
              "position": 2.0208333333333335,
              "duration": 0.21875
            },
            {
              "pitch": 48,
              "velocity": 76,
              "position": 2.5,
              "duration": 0.21875
            },
            {
              "pitch": 55,
              "velocity": 76,
              "position": 2.5208333333333335,
              "duration": 0.21875
            },
            {
              "pitch": 48,
              "velocity": 80,
              "position": 3,
              "duration": 0.24583333333333332
            },
            {
              "pitch": 55,
              "velocity": 76,
              "position": 3.0208333333333335,
              "duration": 0.24583333333333332
            },
            {
              "pitch": 48,
              "velocity": 77,
              "position": 3.5,
              "duration": 0.24583333333333332
            },
            {
              "pitch": 55,
              "velocity": 76,
              "position": 3.5208333333333335,
              "duration": 0.24583333333333332
            },
            {
              "pitch": 48,
              "velocity": 81,
              "position": 4,
              "duration": 0.23958333333333334
            },
            {
              "pitch": 55,
              "velocity": 76,
              "position": 4.020833333333333,
              "duration": 0.23958333333333334
            },
            {
              "pitch": 48,
              "velocity": 78,
              "position": 4.5,
              "duration": 0.23958333333333334
            },
            {
              "pitch": 55,
              "velocity": 76,
              "position": 4.520833333333333,
              "duration": 0.23958333333333334
            },
            {
              "pitch": 48,
              "velocity": 82,
              "position": 5,
              "duration": 0.26666666666666666
            },
            {
              "pitch": 55,
              "velocity": 76,
              "position": 5.020833333333333,
              "duration": 0.26666666666666666
            },
            {
              "pitch": 48,
              "velocity": 79,
              "position": 5.5,
              "duration": 0.26666666666666666
            },
            {
              "pitch": 55,
              "velocity": 76,
              "position": 5.520833333333333,
              "duration": 0.26666666666666666
            },
            {
              "pitch": 48,
              "velocity": 83,
              "position": 6,
              "duration": 0.26875
            },
            {
              "pitch": 55,
              "velocity": 76,
              "position": 6.020833333333333,
              "duration": 0.26875
            },
            {
              "pitch": 48,
              "velocity": 80,
              "position": 6.5,
              "duration": 0.26875
            },
            {
              "pitch": 55,
              "velocity": 76,
              "position": 6.520833333333333,
              "duration": 0.26875
            },
            {
              "pitch": 48,
              "velocity": 84,
              "position": 7,
              "duration": 0.21875
            },
            {
              "pitch": 55,
              "velocity": 76,
              "position": 7.020833333333333,
              "duration": 0.21875
            },
            {
              "pitch": 48,
              "velocity": 81,
              "position": 7.5,
              "duration": 0.21875
            },
            {
              "pitch": 55,
              "velocity": 76,
              "position": 7.520833333333333,
              "duration": 0.21875
            },
            {
              "pitch": 48,
              "velocity": 85,
              "position": 8,
              "duration": 0.23958333333333334
            },
            {
              "pitch": 55,
              "velocity": 76,
              "position": 8.020833333333334,
              "duration": 0.23958333333333334
            },
            {
              "pitch": 48,
              "velocity": 82,
              "position": 8.5,
              "duration": 0.23958333333333334
            },
            {
              "pitch": 55,
              "velocity": 76,
              "position": 8.520833333333334,
              "duration": 0.23958333333333334
            },
            {
              "pitch": 48,
              "velocity": 86,
              "position": 9,
              "duration": 0.23125
            },
            {
              "pitch": 55,
              "velocity": 76,
              "position": 9.020833333333334,
              "duration": 0.23125
            },
            {
              "pitch": 48,
              "velocity": 83,
              "position": 9.5,
              "duration": 0.23125
            },
            {
              "pitch": 55,
              "velocity": 76,
              "position": 9.520833333333334,
              "duration": 0.23125
            },
            {
              "pitch": 48,
              "velocity": 87,
              "position": 10,
              "duration": 0.21875
            },
            {
              "pitch": 55,
              "velocity": 76,
              "position": 10.020833333333334,
              "duration": 0.21875
            },
            {
              "pitch": 48,
              "velocity": 84,
              "position": 10.5,
              "duration": 0.21875
            },
            {
              "pitch": 55,
              "velocity": 76,
              "position": 10.520833333333334,
              "duration": 0.21875
            },
            {
              "pitch": 48,
              "velocity": 88,
              "position": 11,
              "duration": 0.2604166666666667
            },
            {
              "pitch": 55,
              "velocity": 76,
              "position": 11.020833333333334,
              "duration": 0.2604166666666667
            },
            {
              "pitch": 48,
              "velocity": 85,
              "position": 11.5,
              "duration": 0.2604166666666667
            },
            {
              "pitch": 55,
              "velocity": 76,
              "position": 11.520833333333334,
              "duration": 0.2604166666666667
            },
            {
              "pitch": 48,
              "velocity": 89,
              "position": 12,
              "duration": 0.22916666666666666
            },
            {
              "pitch": 55,
              "velocity": 76,
              "position": 12.020833333333334,
              "duration": 0.22916666666666666
            },
            {
              "pitch": 48,
              "velocity": 86,
              "position": 12.5,
              "duration": 0.22916666666666666
            },
            {
              "pitch": 55,
              "velocity": 76,
              "position": 12.520833333333334,
              "duration": 0.22916666666666666
            },
            {
              "pitch": 48,
              "velocity": 90,
              "position": 13,
              "duration": 0.2604166666666667
            },
            {
              "pitch": 55,
              "velocity": 76,
              "position": 13.020833333333334,
              "duration": 0.2604166666666667
            },
            {
              "pitch": 51,
              "velocity": 39,
              "position": 13.5125,
              "duration": 0.9125
            },
            {
              "pitch": 67,
              "velocity": 25,
              "position": 13.520833333333334,
              "duration": 0.96875
            },
            {
              "pitch": 63,
              "velocity": 25,
              "position": 13.5,
              "duration": 0.9895833333333334
            },
            {
              "pitch": 70,
              "velocity": 25,
              "position": 13.541666666666666,
              "duration": 0.9895833333333334
            },
            {
              "pitch": 46,
              "velocity": 39,
              "position": 14.48125,
              "duration": 0.9541666666666667
            },
            {
              "pitch": 65,
              "velocity": 25,
              "position": 14.541666666666666,
              "duration": 0.9895833333333334
            },
            {
              "pitch": 70,
              "velocity": 25,
              "position": 14.541666666666666,
              "duration": 0.9895833333333334
            },
            {
              "pitch": 62,
              "velocity": 25,
              "position": 14.541666666666666,
              "duration": 0.9895833333333334
            },
            {
              "pitch": 67,
              "velocity": 25,
              "position": 15.541666666666666,
              "duration": 0.4479166666666667
            },
            {
              "pitch": 63,
              "velocity": 25,
              "position": 15.541666666666666,
              "duration": 0.4479166666666667
            },
            {
              "pitch": 60,
              "velocity": 25,
              "position": 15.541666666666666,
              "duration": 0.4479166666666667
            },
            {
              "pitch": 48,
              "velocity": 39,
              "position": 15.5,
              "duration": 0.4895833333333333
            },
            {
              "pitch": 48,
              "velocity": 81,
              "position": 16,
              "duration": 0.22916666666666666
            },
            {
              "pitch": 55,
              "velocity": 76,
              "position": 16.020833333333332,
              "duration": 0.22916666666666666
            },
            {
              "pitch": 48,
              "velocity": 80,
              "position": 16.5,
              "duration": 0.22916666666666666
            },
            {
              "pitch": 55,
              "velocity": 76,
              "position": 16.520833333333332,
              "duration": 0.22916666666666666
            },
            {
              "pitch": 48,
              "velocity": 82,
              "position": 17,
              "duration": 0.19791666666666666
            },
            {
              "pitch": 55,
              "velocity": 76,
              "position": 17.020833333333332,
              "duration": 0.19791666666666666
            },
            {
              "pitch": 48,
              "velocity": 80,
              "position": 17.5,
              "duration": 0.19791666666666666
            },
            {
              "pitch": 55,
              "velocity": 76,
              "position": 17.520833333333332,
              "duration": 0.19791666666666666
            },
            {
              "pitch": 48,
              "velocity": 82,
              "position": 18,
              "duration": 0.21875
            },
            {
              "pitch": 55,
              "velocity": 76,
              "position": 18.020833333333332,
              "duration": 0.21875
            },
            {
              "pitch": 48,
              "velocity": 80,
              "position": 18.5,
              "duration": 0.21875
            },
            {
              "pitch": 55,
              "velocity": 76,
              "position": 18.520833333333332,
              "duration": 0.21875
            },
            {
              "pitch": 48,
              "velocity": 83,
              "position": 19,
              "duration": 0.24583333333333332
            },
            {
              "pitch": 55,
              "velocity": 76,
              "position": 19.020833333333332,
              "duration": 0.24583333333333332
            },
            {
              "pitch": 48,
              "velocity": 81,
              "position": 19.5,
              "duration": 0.24583333333333332
            },
            {
              "pitch": 55,
              "velocity": 76,
              "position": 19.520833333333332,
              "duration": 0.24583333333333332
            },
            {
              "pitch": 48,
              "velocity": 83,
              "position": 20,
              "duration": 0.23958333333333334
            },
            {
              "pitch": 55,
              "velocity": 76,
              "position": 20.020833333333332,
              "duration": 0.23958333333333334
            },
            {
              "pitch": 48,
              "velocity": 82,
              "position": 20.5,
              "duration": 0.23958333333333334
            },
            {
              "pitch": 55,
              "velocity": 76,
              "position": 20.520833333333332,
              "duration": 0.23958333333333334
            },
            {
              "pitch": 48,
              "velocity": 84,
              "position": 21,
              "duration": 0.26666666666666666
            },
            {
              "pitch": 55,
              "velocity": 76,
              "position": 21.020833333333332,
              "duration": 0.26666666666666666
            },
            {
              "pitch": 48,
              "velocity": 82,
              "position": 21.5,
              "duration": 0.26666666666666666
            },
            {
              "pitch": 55,
              "velocity": 76,
              "position": 21.520833333333332,
              "duration": 0.26666666666666666
            },
            {
              "pitch": 48,
              "velocity": 85,
              "position": 22,
              "duration": 0.26875
            },
            {
              "pitch": 55,
              "velocity": 76,
              "position": 22.020833333333332,
              "duration": 0.26875
            },
            {
              "pitch": 48,
              "velocity": 83,
              "position": 22.5,
              "duration": 0.26875
            },
            {
              "pitch": 55,
              "velocity": 76,
              "position": 22.520833333333332,
              "duration": 0.26875
            },
            {
              "pitch": 48,
              "velocity": 86,
              "position": 23,
              "duration": 0.21875
            },
            {
              "pitch": 55,
              "velocity": 76,
              "position": 23.020833333333332,
              "duration": 0.21875
            },
            {
              "pitch": 48,
              "velocity": 83,
              "position": 23.5,
              "duration": 0.21875
            },
            {
              "pitch": 55,
              "velocity": 76,
              "position": 23.520833333333332,
              "duration": 0.21875
            },
            {
              "pitch": 48,
              "velocity": 86,
              "position": 24,
              "duration": 0.23958333333333334
            },
            {
              "pitch": 55,
              "velocity": 76,
              "position": 24.020833333333332,
              "duration": 0.23958333333333334
            },
            {
              "pitch": 48,
              "velocity": 84,
              "position": 24.5,
              "duration": 0.23958333333333334
            },
            {
              "pitch": 55,
              "velocity": 76,
              "position": 24.520833333333332,
              "duration": 0.23958333333333334
            },
            {
              "pitch": 48,
              "velocity": 86,
              "position": 25,
              "duration": 0.23125
            },
            {
              "pitch": 55,
              "velocity": 76,
              "position": 25.020833333333332,
              "duration": 0.23125
            },
            {
              "pitch": 48,
              "velocity": 85,
              "position": 25.5,
              "duration": 0.23125
            },
            {
              "pitch": 55,
              "velocity": 76,
              "position": 25.520833333333332,
              "duration": 0.23125
            },
            {
              "pitch": 48,
              "velocity": 87,
              "position": 26,
              "duration": 0.21875
            },
            {
              "pitch": 55,
              "velocity": 76,
              "position": 26.020833333333332,
              "duration": 0.21875
            },
            {
              "pitch": 48,
              "velocity": 86,
              "position": 26.5,
              "duration": 0.21875
            },
            {
              "pitch": 55,
              "velocity": 76,
              "position": 26.520833333333332,
              "duration": 0.21875
            },
            {
              "pitch": 48,
              "velocity": 88,
              "position": 27,
              "duration": 0.2604166666666667
            },
            {
              "pitch": 55,
              "velocity": 76,
              "position": 27.020833333333332,
              "duration": 0.2604166666666667
            },
            {
              "pitch": 48,
              "velocity": 86,
              "position": 27.5,
              "duration": 0.2604166666666667
            },
            {
              "pitch": 55,
              "velocity": 76,
              "position": 27.520833333333332,
              "duration": 0.2604166666666667
            },
            {
              "pitch": 48,
              "velocity": 89,
              "position": 28,
              "duration": 0.22916666666666666
            },
            {
              "pitch": 55,
              "velocity": 76,
              "position": 28.020833333333332,
              "duration": 0.22916666666666666
            },
            {
              "pitch": 48,
              "velocity": 86,
              "position": 28.5,
              "duration": 0.22916666666666666
            },
            {
              "pitch": 55,
              "velocity": 76,
              "position": 28.520833333333332,
              "duration": 0.22916666666666666
            },
            {
              "pitch": 48,
              "velocity": 90,
              "position": 29,
              "duration": 0.2604166666666667
            },
            {
              "pitch": 55,
              "velocity": 76,
              "position": 29.020833333333332,
              "duration": 0.2604166666666667
            },
            {
              "pitch": 51,
              "velocity": 39,
              "position": 29.5125,
              "duration": 0.9125
            },
            {
              "pitch": 67,
              "velocity": 25,
              "position": 29.520833333333332,
              "duration": 0.96875
            },
            {
              "pitch": 63,
              "velocity": 25,
              "position": 29.5,
              "duration": 0.9895833333333334
            },
            {
              "pitch": 70,
              "velocity": 25,
              "position": 29.541666666666668,
              "duration": 0.9895833333333334
            },
            {
              "pitch": 46,
              "velocity": 39,
              "position": 30.48125,
              "duration": 1.5041666666666667
            },
            {
              "pitch": 65,
              "velocity": 25,
              "position": 30.541666666666668,
              "duration": 1.4479166666666667
            },
            {
              "pitch": 62,
              "velocity": 25,
              "position": 30.541666666666668,
              "duration": 1.4479166666666667
            },
            {
              "pitch": 70,
              "velocity": 25,
              "position": 30.541666666666668,
              "duration": 1.4479166666666667
            }
          ]
        },
        "3": {
          "ctab": {
            "srcChannel": 3,
            "name": "Solid",
            "accType": "CHORD2",
            "editable": false,
            "mutedNotes": [],
            "mutedChords": [
              "1+2+5",
              "sus4",
              "1+5",
              "1+8",
              "7aug",
              "Maj7aug",
              "7(#9)",
              "7(b13)",
              "7(b9)",
              "7(13)",
              "7#11",
              "7(9)",
              "7b5",
              "7sus4",
              "7th",
              "aug",
              "Maj6(9)",
              "Maj7(9)",
              "Maj(9)",
              "Maj7#11",
              "Maj7",
              "Maj6",
              "Maj"
            ],
            "autoStart": false,
            "sourceChordNote": 0,
            "sourceChordType": "min",
            "ctb2Low": null,
            "ctb2Main": {
              "ntr": "ROOT_TRANSPOSITION",
              "ntt": "BYPASS",
              "bassOn": false,
              "chordRootUpperLimit": 8,
              "noteLowLimit": 58,
              "noteHighLimit": 69,
              "rtr": "PITCH_SHIFT"
            },
            "ctb2High": null
          },
          "notes": [
            {
              "pitch": 48,
              "velocity": 77,
              "position": 0,
              "duration": 0.22916666666666666
            },
            {
              "pitch": 55,
              "velocity": 76,
              "position": 0.020833333333333332,
              "duration": 0.22916666666666666
            },
            {
              "pitch": 48,
              "velocity": 76,
              "position": 0.5,
              "duration": 0.22916666666666666
            },
            {
              "pitch": 55,
              "velocity": 76,
              "position": 0.5208333333333334,
              "duration": 0.22916666666666666
            },
            {
              "pitch": 48,
              "velocity": 78,
              "position": 1,
              "duration": 0.19791666666666666
            },
            {
              "pitch": 55,
              "velocity": 76,
              "position": 1.0208333333333333,
              "duration": 0.19791666666666666
            },
            {
              "pitch": 48,
              "velocity": 76,
              "position": 1.5,
              "duration": 0.19791666666666666
            },
            {
              "pitch": 55,
              "velocity": 76,
              "position": 1.5208333333333333,
              "duration": 0.19791666666666666
            },
            {
              "pitch": 48,
              "velocity": 79,
              "position": 2,
              "duration": 0.21875
            },
            {
              "pitch": 55,
              "velocity": 76,
              "position": 2.0208333333333335,
              "duration": 0.21875
            },
            {
              "pitch": 48,
              "velocity": 76,
              "position": 2.5,
              "duration": 0.21875
            },
            {
              "pitch": 55,
              "velocity": 76,
              "position": 2.5208333333333335,
              "duration": 0.21875
            },
            {
              "pitch": 48,
              "velocity": 80,
              "position": 3,
              "duration": 0.24583333333333332
            },
            {
              "pitch": 55,
              "velocity": 76,
              "position": 3.0208333333333335,
              "duration": 0.24583333333333332
            },
            {
              "pitch": 48,
              "velocity": 77,
              "position": 3.5,
              "duration": 0.24583333333333332
            },
            {
              "pitch": 55,
              "velocity": 76,
              "position": 3.5208333333333335,
              "duration": 0.24583333333333332
            },
            {
              "pitch": 48,
              "velocity": 81,
              "position": 4,
              "duration": 0.23958333333333334
            },
            {
              "pitch": 55,
              "velocity": 76,
              "position": 4.020833333333333,
              "duration": 0.23958333333333334
            },
            {
              "pitch": 48,
              "velocity": 78,
              "position": 4.5,
              "duration": 0.23958333333333334
            },
            {
              "pitch": 55,
              "velocity": 76,
              "position": 4.520833333333333,
              "duration": 0.23958333333333334
            },
            {
              "pitch": 48,
              "velocity": 82,
              "position": 5,
              "duration": 0.26666666666666666
            },
            {
              "pitch": 55,
              "velocity": 76,
              "position": 5.020833333333333,
              "duration": 0.26666666666666666
            },
            {
              "pitch": 48,
              "velocity": 79,
              "position": 5.5,
              "duration": 0.26666666666666666
            },
            {
              "pitch": 55,
              "velocity": 76,
              "position": 5.520833333333333,
              "duration": 0.26666666666666666
            },
            {
              "pitch": 48,
              "velocity": 83,
              "position": 6,
              "duration": 0.26875
            },
            {
              "pitch": 55,
              "velocity": 76,
              "position": 6.020833333333333,
              "duration": 0.26875
            },
            {
              "pitch": 48,
              "velocity": 80,
              "position": 6.5,
              "duration": 0.26875
            },
            {
              "pitch": 55,
              "velocity": 76,
              "position": 6.520833333333333,
              "duration": 0.26875
            },
            {
              "pitch": 48,
              "velocity": 84,
              "position": 7,
              "duration": 0.21875
            },
            {
              "pitch": 55,
              "velocity": 76,
              "position": 7.020833333333333,
              "duration": 0.21875
            },
            {
              "pitch": 48,
              "velocity": 81,
              "position": 7.5,
              "duration": 0.21875
            },
            {
              "pitch": 55,
              "velocity": 76,
              "position": 7.520833333333333,
              "duration": 0.21875
            },
            {
              "pitch": 48,
              "velocity": 85,
              "position": 8,
              "duration": 0.23958333333333334
            },
            {
              "pitch": 55,
              "velocity": 76,
              "position": 8.020833333333334,
              "duration": 0.23958333333333334
            },
            {
              "pitch": 48,
              "velocity": 82,
              "position": 8.5,
              "duration": 0.23958333333333334
            },
            {
              "pitch": 55,
              "velocity": 76,
              "position": 8.520833333333334,
              "duration": 0.23958333333333334
            },
            {
              "pitch": 48,
              "velocity": 86,
              "position": 9,
              "duration": 0.23125
            },
            {
              "pitch": 55,
              "velocity": 76,
              "position": 9.020833333333334,
              "duration": 0.23125
            },
            {
              "pitch": 48,
              "velocity": 83,
              "position": 9.5,
              "duration": 0.23125
            },
            {
              "pitch": 55,
              "velocity": 76,
              "position": 9.520833333333334,
              "duration": 0.23125
            },
            {
              "pitch": 48,
              "velocity": 87,
              "position": 10,
              "duration": 0.21875
            },
            {
              "pitch": 55,
              "velocity": 76,
              "position": 10.020833333333334,
              "duration": 0.21875
            },
            {
              "pitch": 48,
              "velocity": 84,
              "position": 10.5,
              "duration": 0.21875
            },
            {
              "pitch": 55,
              "velocity": 76,
              "position": 10.520833333333334,
              "duration": 0.21875
            },
            {
              "pitch": 48,
              "velocity": 88,
              "position": 11,
              "duration": 0.2604166666666667
            },
            {
              "pitch": 55,
              "velocity": 76,
              "position": 11.020833333333334,
              "duration": 0.2604166666666667
            },
            {
              "pitch": 48,
              "velocity": 85,
              "position": 11.5,
              "duration": 0.2604166666666667
            },
            {
              "pitch": 55,
              "velocity": 76,
              "position": 11.520833333333334,
              "duration": 0.2604166666666667
            },
            {
              "pitch": 48,
              "velocity": 89,
              "position": 12,
              "duration": 0.22916666666666666
            },
            {
              "pitch": 55,
              "velocity": 76,
              "position": 12.020833333333334,
              "duration": 0.22916666666666666
            },
            {
              "pitch": 48,
              "velocity": 86,
              "position": 12.5,
              "duration": 0.22916666666666666
            },
            {
              "pitch": 55,
              "velocity": 76,
              "position": 12.520833333333334,
              "duration": 0.22916666666666666
            },
            {
              "pitch": 48,
              "velocity": 90,
              "position": 13,
              "duration": 0.2604166666666667
            },
            {
              "pitch": 55,
              "velocity": 76,
              "position": 13.020833333333334,
              "duration": 0.2604166666666667
            },
            {
              "pitch": 51,
              "velocity": 41,
              "position": 13.5125,
              "duration": 0.9125
            },
            {
              "pitch": 67,
              "velocity": 30,
              "position": 13.520833333333334,
              "duration": 0.96875
            },
            {
              "pitch": 63,
              "velocity": 30,
              "position": 13.5,
              "duration": 0.9895833333333334
            },
            {
              "pitch": 70,
              "velocity": 30,
              "position": 13.541666666666666,
              "duration": 0.9895833333333334
            },
            {
              "pitch": 46,
              "velocity": 41,
              "position": 14.48125,
              "duration": 0.9541666666666667
            },
            {
              "pitch": 65,
              "velocity": 30,
              "position": 14.541666666666666,
              "duration": 0.9895833333333334
            },
            {
              "pitch": 70,
              "velocity": 30,
              "position": 14.541666666666666,
              "duration": 0.9895833333333334
            },
            {
              "pitch": 62,
              "velocity": 30,
              "position": 14.541666666666666,
              "duration": 0.9895833333333334
            },
            {
              "pitch": 67,
              "velocity": 30,
              "position": 15.541666666666666,
              "duration": 0.4479166666666667
            },
            {
              "pitch": 63,
              "velocity": 30,
              "position": 15.541666666666666,
              "duration": 0.4479166666666667
            },
            {
              "pitch": 60,
              "velocity": 30,
              "position": 15.541666666666666,
              "duration": 0.4479166666666667
            },
            {
              "pitch": 48,
              "velocity": 41,
              "position": 15.5,
              "duration": 0.4895833333333333
            },
            {
              "pitch": 48,
              "velocity": 81,
              "position": 16,
              "duration": 0.22916666666666666
            },
            {
              "pitch": 55,
              "velocity": 76,
              "position": 16.020833333333332,
              "duration": 0.22916666666666666
            },
            {
              "pitch": 48,
              "velocity": 81,
              "position": 16.5,
              "duration": 0.22916666666666666
            },
            {
              "pitch": 55,
              "velocity": 76,
              "position": 16.520833333333332,
              "duration": 0.22916666666666666
            },
            {
              "pitch": 48,
              "velocity": 82,
              "position": 17,
              "duration": 0.19791666666666666
            },
            {
              "pitch": 55,
              "velocity": 76,
              "position": 17.020833333333332,
              "duration": 0.19791666666666666
            },
            {
              "pitch": 48,
              "velocity": 81,
              "position": 17.5,
              "duration": 0.19791666666666666
            },
            {
              "pitch": 55,
              "velocity": 76,
              "position": 17.520833333333332,
              "duration": 0.19791666666666666
            },
            {
              "pitch": 48,
              "velocity": 83,
              "position": 18,
              "duration": 0.21875
            },
            {
              "pitch": 55,
              "velocity": 76,
              "position": 18.020833333333332,
              "duration": 0.21875
            },
            {
              "pitch": 48,
              "velocity": 81,
              "position": 18.5,
              "duration": 0.21875
            },
            {
              "pitch": 55,
              "velocity": 76,
              "position": 18.520833333333332,
              "duration": 0.21875
            },
            {
              "pitch": 48,
              "velocity": 84,
              "position": 19,
              "duration": 0.24583333333333332
            },
            {
              "pitch": 55,
              "velocity": 76,
              "position": 19.020833333333332,
              "duration": 0.24583333333333332
            },
            {
              "pitch": 48,
              "velocity": 81,
              "position": 19.5,
              "duration": 0.24583333333333332
            },
            {
              "pitch": 55,
              "velocity": 76,
              "position": 19.520833333333332,
              "duration": 0.24583333333333332
            },
            {
              "pitch": 48,
              "velocity": 84,
              "position": 20,
              "duration": 0.23958333333333334
            },
            {
              "pitch": 55,
              "velocity": 76,
              "position": 20.020833333333332,
              "duration": 0.23958333333333334
            },
            {
              "pitch": 48,
              "velocity": 82,
              "position": 20.5,
              "duration": 0.23958333333333334
            },
            {
              "pitch": 55,
              "velocity": 76,
              "position": 20.520833333333332,
              "duration": 0.23958333333333334
            },
            {
              "pitch": 48,
              "velocity": 85,
              "position": 21,
              "duration": 0.26666666666666666
            },
            {
              "pitch": 55,
              "velocity": 76,
              "position": 21.020833333333332,
              "duration": 0.26666666666666666
            },
            {
              "pitch": 48,
              "velocity": 83,
              "position": 21.5,
              "duration": 0.26666666666666666
            },
            {
              "pitch": 55,
              "velocity": 76,
              "position": 21.520833333333332,
              "duration": 0.26666666666666666
            },
            {
              "pitch": 48,
              "velocity": 85,
              "position": 22,
              "duration": 0.26875
            },
            {
              "pitch": 55,
              "velocity": 76,
              "position": 22.020833333333332,
              "duration": 0.26875
            },
            {
              "pitch": 48,
              "velocity": 84,
              "position": 22.5,
              "duration": 0.26875
            },
            {
              "pitch": 55,
              "velocity": 76,
              "position": 22.520833333333332,
              "duration": 0.26875
            },
            {
              "pitch": 48,
              "velocity": 86,
              "position": 23,
              "duration": 0.21875
            },
            {
              "pitch": 55,
              "velocity": 76,
              "position": 23.020833333333332,
              "duration": 0.21875
            },
            {
              "pitch": 48,
              "velocity": 84,
              "position": 23.5,
              "duration": 0.21875
            },
            {
              "pitch": 55,
              "velocity": 76,
              "position": 23.520833333333332,
              "duration": 0.21875
            },
            {
              "pitch": 48,
              "velocity": 87,
              "position": 24,
              "duration": 0.23958333333333334
            },
            {
              "pitch": 55,
              "velocity": 76,
              "position": 24.020833333333332,
              "duration": 0.23958333333333334
            },
            {
              "pitch": 48,
              "velocity": 85,
              "position": 24.5,
              "duration": 0.23958333333333334
            },
            {
              "pitch": 55,
              "velocity": 76,
              "position": 24.520833333333332,
              "duration": 0.23958333333333334
            },
            {
              "pitch": 48,
              "velocity": 87,
              "position": 25,
              "duration": 0.23125
            },
            {
              "pitch": 55,
              "velocity": 76,
              "position": 25.020833333333332,
              "duration": 0.23125
            },
            {
              "pitch": 48,
              "velocity": 85,
              "position": 25.5,
              "duration": 0.23125
            },
            {
              "pitch": 55,
              "velocity": 76,
              "position": 25.520833333333332,
              "duration": 0.23125
            },
            {
              "pitch": 48,
              "velocity": 88,
              "position": 26,
              "duration": 0.21875
            },
            {
              "pitch": 55,
              "velocity": 76,
              "position": 26.020833333333332,
              "duration": 0.21875
            },
            {
              "pitch": 48,
              "velocity": 86,
              "position": 26.5,
              "duration": 0.21875
            },
            {
              "pitch": 55,
              "velocity": 76,
              "position": 26.520833333333332,
              "duration": 0.21875
            },
            {
              "pitch": 48,
              "velocity": 89,
              "position": 27,
              "duration": 0.2604166666666667
            },
            {
              "pitch": 55,
              "velocity": 76,
              "position": 27.020833333333332,
              "duration": 0.2604166666666667
            },
            {
              "pitch": 48,
              "velocity": 87,
              "position": 27.5,
              "duration": 0.2604166666666667
            },
            {
              "pitch": 55,
              "velocity": 76,
              "position": 27.520833333333332,
              "duration": 0.2604166666666667
            },
            {
              "pitch": 48,
              "velocity": 89,
              "position": 28,
              "duration": 0.22916666666666666
            },
            {
              "pitch": 55,
              "velocity": 76,
              "position": 28.020833333333332,
              "duration": 0.22916666666666666
            },
            {
              "pitch": 48,
              "velocity": 87,
              "position": 28.5,
              "duration": 0.22916666666666666
            },
            {
              "pitch": 55,
              "velocity": 76,
              "position": 28.520833333333332,
              "duration": 0.22916666666666666
            },
            {
              "pitch": 48,
              "velocity": 90,
              "position": 29,
              "duration": 0.2604166666666667
            },
            {
              "pitch": 55,
              "velocity": 76,
              "position": 29.020833333333332,
              "duration": 0.2604166666666667
            },
            {
              "pitch": 51,
              "velocity": 41,
              "position": 29.5125,
              "duration": 0.9125
            },
            {
              "pitch": 67,
              "velocity": 30,
              "position": 29.520833333333332,
              "duration": 0.96875
            },
            {
              "pitch": 63,
              "velocity": 30,
              "position": 29.5,
              "duration": 0.9895833333333334
            },
            {
              "pitch": 70,
              "velocity": 30,
              "position": 29.541666666666668,
              "duration": 0.9895833333333334
            },
            {
              "pitch": 46,
              "velocity": 41,
              "position": 30.48125,
              "duration": 1.5041666666666667
            },
            {
              "pitch": 65,
              "velocity": 30,
              "position": 30.541666666666668,
              "duration": 1.4479166666666667
            },
            {
              "pitch": 62,
              "velocity": 30,
              "position": 30.541666666666668,
              "duration": 1.4479166666666667
            },
            {
              "pitch": 70,
              "velocity": 30,
              "position": 30.541666666666668,
              "duration": 1.4479166666666667
            }
          ]
        },
        "4": {
          "ctab": {
            "srcChannel": 4,
            "name": "Organ",
            "accType": "PAD",
            "editable": false,
            "mutedNotes": [],
            "mutedChords": [
              "1+2+5",
              "sus4",
              "1+5",
              "1+8",
              "7aug",
              "Maj7aug",
              "7(#9)",
              "7(b13)",
              "7(b9)",
              "7(13)",
              "7#11",
              "7(9)",
              "7b5",
              "7sus4",
              "7th",
              "aug",
              "Maj6(9)",
              "Maj7(9)",
              "Maj(9)",
              "Maj7#11",
              "Maj7",
              "Maj6",
              "Maj"
            ],
            "autoStart": false,
            "sourceChordNote": 0,
            "sourceChordType": "min",
            "ctb2Low": null,
            "ctb2Main": {
              "ntr": "ROOT_TRANSPOSITION",
              "ntt": "BYPASS",
              "bassOn": false,
              "chordRootUpperLimit": 2,
              "noteLowLimit": 0,
              "noteHighLimit": 79,
              "rtr": "PITCH_SHIFT"
            },
            "ctb2High": null
          },
          "notes": [
            {
              "pitch": 27,
              "velocity": 92,
              "position": 13.5,
              "duration": 0.9895833333333334
            },
            {
              "pitch": 34,
              "velocity": 92,
              "position": 13.5,
              "duration": 0.9895833333333334
            },
            {
              "pitch": 31,
              "velocity": 92,
              "position": 13.5,
              "duration": 0.9895833333333334
            },
            {
              "pitch": 26,
              "velocity": 92,
              "position": 14.5,
              "duration": 0.9895833333333334
            },
            {
              "pitch": 34,
              "velocity": 92,
              "position": 14.5,
              "duration": 0.9895833333333334
            },
            {
              "pitch": 29,
              "velocity": 92,
              "position": 14.5,
              "duration": 0.9895833333333334
            },
            {
              "pitch": 24,
              "velocity": 92,
              "position": 15.5,
              "duration": 0.53125
            },
            {
              "pitch": 31,
              "velocity": 92,
              "position": 15.5,
              "duration": 0.53125
            },
            {
              "pitch": 27,
              "velocity": 92,
              "position": 15.5,
              "duration": 0.53125
            },
            {
              "pitch": 36,
              "velocity": 90,
              "position": 28.45,
              "duration": 0.08333333333333333
            },
            {
              "pitch": 38,
              "velocity": 90,
              "position": 28.491666666666667,
              "duration": 0.10833333333333334
            },
            {
              "pitch": 40,
              "velocity": 90,
              "position": 28.552083333333332,
              "duration": 0.10208333333333333
            },
            {
              "pitch": 41,
              "velocity": 90,
              "position": 28.614583333333332,
              "duration": 0.09375
            },
            {
              "pitch": 43,
              "velocity": 90,
              "position": 28.666666666666668,
              "duration": 0.08333333333333333
            },
            {
              "pitch": 45,
              "velocity": 90,
              "position": 28.71875,
              "duration": 0.08333333333333333
            },
            {
              "pitch": 47,
              "velocity": 90,
              "position": 28.770833333333332,
              "duration": 0.08333333333333333
            },
            {
              "pitch": 48,
              "velocity": 90,
              "position": 28.822916666666668,
              "duration": 0.08541666666666667
            },
            {
              "pitch": 50,
              "velocity": 90,
              "position": 28.875,
              "duration": 0.08541666666666667
            },
            {
              "pitch": 52,
              "velocity": 90,
              "position": 28.927083333333332,
              "duration": 0.09375
            },
            {
              "pitch": 53,
              "velocity": 90,
              "position": 28.979166666666668,
              "duration": 0.08958333333333333
            },
            {
              "pitch": 55,
              "velocity": 90,
              "position": 29.033333333333335,
              "duration": 0.09166666666666666
            },
            {
              "pitch": 57,
              "velocity": 90,
              "position": 29.09375,
              "duration": 0.09375
            },
            {
              "pitch": 59,
              "velocity": 90,
              "position": 29.145833333333332,
              "duration": 0.08541666666666667
            },
            {
              "pitch": 60,
              "velocity": 90,
              "position": 29.197916666666668,
              "duration": 0.08333333333333333
            },
            {
              "pitch": 62,
              "velocity": 90,
              "position": 29.241666666666667,
              "duration": 0.07708333333333334
            },
            {
              "pitch": 64,
              "velocity": 90,
              "position": 29.291666666666668,
              "duration": 0.07291666666666667
            },
            {
              "pitch": 65,
              "velocity": 90,
              "position": 29.333333333333332,
              "duration": 0.06875
            },
            {
              "pitch": 67,
              "velocity": 90,
              "position": 29.375,
              "duration": 0.07291666666666667
            },
            {
              "pitch": 69,
              "velocity": 90,
              "position": 29.416666666666668,
              "duration": 0.07291666666666667
            },
            {
              "pitch": 71,
              "velocity": 90,
              "position": 29.458333333333332,
              "duration": 0.07916666666666666
            },
            {
              "pitch": 82,
              "velocity": 90,
              "position": 29.5,
              "duration": 0.9895833333333334
            },
            {
              "pitch": 79,
              "velocity": 90,
              "position": 29.5,
              "duration": 0.9895833333333334
            },
            {
              "pitch": 75,
              "velocity": 90,
              "position": 29.5,
              "duration": 0.9895833333333334
            },
            {
              "pitch": 74,
              "velocity": 90,
              "position": 30.5,
              "duration": 1.4895833333333333
            },
            {
              "pitch": 82,
              "velocity": 90,
              "position": 30.5,
              "duration": 1.4895833333333333
            },
            {
              "pitch": 77,
              "velocity": 90,
              "position": 30.5,
              "duration": 1.4895833333333333
            }
          ]
        },
        "9": {
          "ctab": {
            "srcChannel": 9,
            "name": "MainDrum",
            "accType": "RHYTHM",
            "editable": false,
            "mutedNotes": [],
            "mutedChords": [],
            "autoStart": true,
            "sourceChordNote": 0,
            "sourceChordType": "Maj7",
            "ctb2Low": null,
            "ctb2Main": {
              "ntr": "ROOT_FIXED",
              "ntt": "BYPASS",
              "bassOn": false,
              "chordRootUpperLimit": 6,
              "noteLowLimit": 0,
              "noteHighLimit": 127,
              "rtr": "PITCH_SHIFT"
            },
            "ctb2High": null
          },
          "notes": [
            {
              "pitch": 36,
              "velocity": 76,
              "position": 0,
              "duration": 0.004166666666666667
            },
            {
              "pitch": 36,
              "velocity": 78,
              "position": 1,
              "duration": 0.004166666666666667
            },
            {
              "pitch": 36,
              "velocity": 80,
              "position": 2,
              "duration": 0.004166666666666667
            },
            {
              "pitch": 36,
              "velocity": 82,
              "position": 3,
              "duration": 0.004166666666666667
            },
            {
              "pitch": 36,
              "velocity": 84,
              "position": 4,
              "duration": 0.004166666666666667
            },
            {
              "pitch": 36,
              "velocity": 86,
              "position": 5,
              "duration": 0.004166666666666667
            },
            {
              "pitch": 36,
              "velocity": 88,
              "position": 6,
              "duration": 0.004166666666666667
            },
            {
              "pitch": 36,
              "velocity": 90,
              "position": 7,
              "duration": 0.004166666666666667
            },
            {
              "pitch": 36,
              "velocity": 92,
              "position": 8,
              "duration": 0.004166666666666667
            },
            {
              "pitch": 36,
              "velocity": 94,
              "position": 9,
              "duration": 0.004166666666666667
            },
            {
              "pitch": 36,
              "velocity": 96,
              "position": 10,
              "duration": 0.004166666666666667
            },
            {
              "pitch": 36,
              "velocity": 98,
              "position": 11,
              "duration": 0.004166666666666667
            },
            {
              "pitch": 36,
              "velocity": 100,
              "position": 12,
              "duration": 0.004166666666666667
            },
            {
              "pitch": 36,
              "velocity": 100,
              "position": 13,
              "duration": 0.004166666666666667
            },
            {
              "pitch": 38,
              "velocity": 116,
              "position": 13.5,
              "duration": 0.004166666666666667
            },
            {
              "pitch": 57,
              "velocity": 110,
              "position": 13.5,
              "duration": 0.004166666666666667
            },
            {
              "pitch": 36,
              "velocity": 100,
              "position": 14,
              "duration": 0.004166666666666667
            },
            {
              "pitch": 38,
              "velocity": 116,
              "position": 14.5,
              "duration": 0.004166666666666667
            },
            {
              "pitch": 49,
              "velocity": 100,
              "position": 14.5,
              "duration": 0.004166666666666667
            },
            {
              "pitch": 36,
              "velocity": 100,
              "position": 15,
              "duration": 0.004166666666666667
            },
            {
              "pitch": 38,
              "velocity": 116,
              "position": 15.5,
              "duration": 0.004166666666666667
            },
            {
              "pitch": 46,
              "velocity": 98,
              "position": 15.5,
              "duration": 0.004166666666666667
            },
            {
              "pitch": 36,
              "velocity": 100,
              "position": 16,
              "duration": 0.004166666666666667
            },
            {
              "pitch": 42,
              "velocity": 120,
              "position": 16,
              "duration": 0.004166666666666667
            },
            {
              "pitch": 42,
              "velocity": 40,
              "position": 16.5,
              "duration": 0.004166666666666667
            },
            {
              "pitch": 36,
              "velocity": 100,
              "position": 17,
              "duration": 0.004166666666666667
            },
            {
              "pitch": 42,
              "velocity": 120,
              "position": 17,
              "duration": 0.004166666666666667
            },
            {
              "pitch": 38,
              "velocity": 116,
              "position": 17,
              "duration": 0.004166666666666667
            },
            {
              "pitch": 42,
              "velocity": 40,
              "position": 17.5,
              "duration": 0.004166666666666667
            },
            {
              "pitch": 36,
              "velocity": 100,
              "position": 18,
              "duration": 0.004166666666666667
            },
            {
              "pitch": 42,
              "velocity": 120,
              "position": 18,
              "duration": 0.004166666666666667
            },
            {
              "pitch": 42,
              "velocity": 40,
              "position": 18.5,
              "duration": 0.004166666666666667
            },
            {
              "pitch": 36,
              "velocity": 100,
              "position": 19,
              "duration": 0.004166666666666667
            },
            {
              "pitch": 42,
              "velocity": 120,
              "position": 19,
              "duration": 0.004166666666666667
            },
            {
              "pitch": 38,
              "velocity": 116,
              "position": 19,
              "duration": 0.004166666666666667
            },
            {
              "pitch": 42,
              "velocity": 40,
              "position": 19.5,
              "duration": 0.004166666666666667
            },
            {
              "pitch": 36,
              "velocity": 100,
              "position": 20,
              "duration": 0.004166666666666667
            },
            {
              "pitch": 42,
              "velocity": 120,
              "position": 20,
              "duration": 0.004166666666666667
            },
            {
              "pitch": 42,
              "velocity": 40,
              "position": 20.5,
              "duration": 0.004166666666666667
            },
            {
              "pitch": 36,
              "velocity": 100,
              "position": 21,
              "duration": 0.004166666666666667
            },
            {
              "pitch": 42,
              "velocity": 120,
              "position": 21,
              "duration": 0.004166666666666667
            },
            {
              "pitch": 38,
              "velocity": 116,
              "position": 21,
              "duration": 0.004166666666666667
            },
            {
              "pitch": 42,
              "velocity": 40,
              "position": 21.5,
              "duration": 0.004166666666666667
            },
            {
              "pitch": 36,
              "velocity": 100,
              "position": 22,
              "duration": 0.004166666666666667
            },
            {
              "pitch": 42,
              "velocity": 120,
              "position": 22,
              "duration": 0.004166666666666667
            },
            {
              "pitch": 42,
              "velocity": 40,
              "position": 22.5,
              "duration": 0.004166666666666667
            },
            {
              "pitch": 36,
              "velocity": 100,
              "position": 23,
              "duration": 0.004166666666666667
            },
            {
              "pitch": 42,
              "velocity": 120,
              "position": 23,
              "duration": 0.004166666666666667
            },
            {
              "pitch": 38,
              "velocity": 116,
              "position": 23,
              "duration": 0.004166666666666667
            },
            {
              "pitch": 42,
              "velocity": 40,
              "position": 23.5,
              "duration": 0.004166666666666667
            },
            {
              "pitch": 36,
              "velocity": 100,
              "position": 24,
              "duration": 0.004166666666666667
            },
            {
              "pitch": 42,
              "velocity": 120,
              "position": 24,
              "duration": 0.004166666666666667
            },
            {
              "pitch": 42,
              "velocity": 54,
              "position": 24.5,
              "duration": 0.004166666666666667
            },
            {
              "pitch": 36,
              "velocity": 100,
              "position": 25,
              "duration": 0.004166666666666667
            },
            {
              "pitch": 42,
              "velocity": 120,
              "position": 25,
              "duration": 0.004166666666666667
            },
            {
              "pitch": 38,
              "velocity": 116,
              "position": 25,
              "duration": 0.004166666666666667
            },
            {
              "pitch": 42,
              "velocity": 40,
              "position": 25.5,
              "duration": 0.004166666666666667
            },
            {
              "pitch": 36,
              "velocity": 100,
              "position": 26,
              "duration": 0.004166666666666667
            },
            {
              "pitch": 42,
              "velocity": 120,
              "position": 26,
              "duration": 0.004166666666666667
            },
            {
              "pitch": 42,
              "velocity": 54,
              "position": 26.5,
              "duration": 0.004166666666666667
            },
            {
              "pitch": 36,
              "velocity": 100,
              "position": 27,
              "duration": 0.004166666666666667
            },
            {
              "pitch": 42,
              "velocity": 120,
              "position": 27,
              "duration": 0.004166666666666667
            },
            {
              "pitch": 38,
              "velocity": 116,
              "position": 27,
              "duration": 0.004166666666666667
            },
            {
              "pitch": 42,
              "velocity": 78,
              "position": 27.5,
              "duration": 0.004166666666666667
            },
            {
              "pitch": 36,
              "velocity": 100,
              "position": 28,
              "duration": 0.004166666666666667
            },
            {
              "pitch": 42,
              "velocity": 120,
              "position": 28,
              "duration": 0.004166666666666667
            },
            {
              "pitch": 38,
              "velocity": 116,
              "position": 28.5,
              "duration": 0.004166666666666667
            },
            {
              "pitch": 46,
              "velocity": 80,
              "position": 28.5,
              "duration": 0.004166666666666667
            },
            {
              "pitch": 38,
              "velocity": 116,
              "position": 29,
              "duration": 0.004166666666666667
            },
            {
              "pitch": 46,
              "velocity": 120,
              "position": 29,
              "duration": 0.004166666666666667
            },
            {
              "pitch": 34,
              "velocity": 90,
              "position": 29.0625,
              "duration": 0.004166666666666667
            },
            {
              "pitch": 36,
              "velocity": 100,
              "position": 29.5,
              "duration": 0.004166666666666667
            },
            {
              "pitch": 57,
              "velocity": 100,
              "position": 29.5,
              "duration": 0.004166666666666667
            },
            {
              "pitch": 36,
              "velocity": 100,
              "position": 30.5,
              "duration": 0.004166666666666667
            },
            {
              "pitch": 49,
              "velocity": 90,
              "position": 30.5,
              "duration": 0.004166666666666667
            },
            {
              "pitch": 38,
              "velocity": 116,
              "position": 31,
              "duration": 0.004166666666666667
            },
            {
              "pitch": 34,
              "velocity": 90,
              "position": 31.0625,
              "duration": 0.004166666666666667
            },
            {
              "pitch": 36,
              "velocity": 100,
              "position": 31.5,
              "duration": 0.004166666666666667
            },
            {
              "pitch": 45,
              "velocity": 100,
              "position": 31.5,
              "duration": 0.004166666666666667
            },
            {
              "pitch": 41,
              "velocity": 100,
              "position": 31.5,
              "duration": 0.004166666666666667
            },
            {
              "pitch": 49,
              "velocity": 90,
              "position": 31.989583333333332,
              "duration": 0.004166666666666667
            }
          ]
        },
        "10": {
          "ctab": {
            "srcChannel": 10,
            "name": "Bass",
            "accType": "BASS",
            "editable": false,
            "mutedNotes": [],
            "mutedChords": [
              "dim7",
              "dim",
              "minMaj7(9)",
              "minMaj7",
              "min7(11)",
              "min7(9)",
              "min(9)",
              "m7b5",
              "min7",
              "min6",
              "min"
            ],
            "autoStart": false,
            "sourceChordNote": 0,
            "sourceChordType": "Maj",
            "ctb2Low": null,
            "ctb2Main": {
              "ntr": "ROOT_TRANSPOSITION",
              "ntt": "BYPASS",
              "bassOn": false,
              "chordRootUpperLimit": 8,
              "noteLowLimit": 28,
              "noteHighLimit": 127,
              "rtr": "PITCH_SHIFT"
            },
            "ctb2High": null
          },
          "notes": [
            {
              "pitch": 24,
              "velocity": 67,
              "position": 0,
              "duration": 0.4895833333333333
            },
            {
              "pitch": 24,
              "velocity": 68,
              "position": 1,
              "duration": 0.4895833333333333
            },
            {
              "pitch": 24,
              "velocity": 69,
              "position": 2,
              "duration": 0.4895833333333333
            },
            {
              "pitch": 24,
              "velocity": 70,
              "position": 3,
              "duration": 0.4895833333333333
            },
            {
              "pitch": 24,
              "velocity": 71,
              "position": 4,
              "duration": 0.4895833333333333
            },
            {
              "pitch": 24,
              "velocity": 72,
              "position": 5,
              "duration": 0.4895833333333333
            },
            {
              "pitch": 24,
              "velocity": 73,
              "position": 6,
              "duration": 0.4895833333333333
            },
            {
              "pitch": 24,
              "velocity": 74,
              "position": 7,
              "duration": 0.4895833333333333
            },
            {
              "pitch": 24,
              "velocity": 75,
              "position": 8,
              "duration": 0.4895833333333333
            },
            {
              "pitch": 24,
              "velocity": 76,
              "position": 9,
              "duration": 0.4895833333333333
            },
            {
              "pitch": 24,
              "velocity": 77,
              "position": 10,
              "duration": 0.4895833333333333
            },
            {
              "pitch": 24,
              "velocity": 78,
              "position": 11,
              "duration": 0.4895833333333333
            },
            {
              "pitch": 24,
              "velocity": 79,
              "position": 12,
              "duration": 0.4895833333333333
            },
            {
              "pitch": 24,
              "velocity": 80,
              "position": 13,
              "duration": 0.38958333333333334
            },
            {
              "pitch": 22,
              "velocity": 40,
              "position": 13.5,
              "duration": 0.8645833333333334
            },
            {
              "pitch": 17,
              "velocity": 40,
              "position": 14.5,
              "duration": 0.8645833333333334
            },
            {
              "pitch": 24,
              "velocity": 40,
              "position": 15.5,
              "duration": 0.4895833333333333
            },
            {
              "pitch": 24,
              "velocity": 80,
              "position": 16,
              "duration": 0.4895833333333333
            },
            {
              "pitch": 24,
              "velocity": 80,
              "position": 17,
              "duration": 0.4895833333333333
            },
            {
              "pitch": 24,
              "velocity": 80,
              "position": 18,
              "duration": 0.4895833333333333
            },
            {
              "pitch": 24,
              "velocity": 80,
              "position": 19,
              "duration": 0.4895833333333333
            },
            {
              "pitch": 24,
              "velocity": 80,
              "position": 20,
              "duration": 0.4895833333333333
            },
            {
              "pitch": 24,
              "velocity": 80,
              "position": 21,
              "duration": 0.4895833333333333
            },
            {
              "pitch": 24,
              "velocity": 80,
              "position": 22,
              "duration": 0.4895833333333333
            },
            {
              "pitch": 24,
              "velocity": 80,
              "position": 23,
              "duration": 0.4895833333333333
            },
            {
              "pitch": 24,
              "velocity": 80,
              "position": 24,
              "duration": 0.4895833333333333
            },
            {
              "pitch": 24,
              "velocity": 80,
              "position": 25,
              "duration": 0.41458333333333336
            },
            {
              "pitch": 24,
              "velocity": 75,
              "position": 25.5,
              "duration": 0.41458333333333336
            },
            {
              "pitch": 24,
              "velocity": 80,
              "position": 26,
              "duration": 0.41458333333333336
            },
            {
              "pitch": 24,
              "velocity": 80,
              "position": 26.5,
              "duration": 0.41458333333333336
            },
            {
              "pitch": 24,
              "velocity": 75,
              "position": 27,
              "duration": 0.41458333333333336
            },
            {
              "pitch": 24,
              "velocity": 80,
              "position": 27.5,
              "duration": 0.41458333333333336
            },
            {
              "pitch": 24,
              "velocity": 80,
              "position": 28,
              "duration": 0.41458333333333336
            },
            {
              "pitch": 24,
              "velocity": 75,
              "position": 28.5,
              "duration": 0.41458333333333336
            },
            {
              "pitch": 24,
              "velocity": 80,
              "position": 29,
              "duration": 0.41458333333333336
            },
            {
              "pitch": 22,
              "velocity": 38,
              "position": 29.5,
              "duration": 0.8895833333333333
            },
            {
              "pitch": 17,
              "velocity": 38,
              "position": 30.5,
              "duration": 1.3645833333333333
            }
          ]
        },
        "11": {
          "ctab": {
            "srcChannel": 11,
            "name": "Tele",
            "accType": "CHORD1",
            "editable": false,
            "mutedNotes": [],
            "mutedChords": [
              "dim7",
              "dim",
              "minMaj7(9)",
              "minMaj7",
              "min7(11)",
              "min7(9)",
              "min(9)",
              "m7b5",
              "min7",
              "min6",
              "min"
            ],
            "autoStart": false,
            "sourceChordNote": 0,
            "sourceChordType": "Maj",
            "ctb2Low": null,
            "ctb2Main": {
              "ntr": "ROOT_TRANSPOSITION",
              "ntt": "BYPASS",
              "bassOn": false,
              "chordRootUpperLimit": 8,
              "noteLowLimit": 58,
              "noteHighLimit": 69,
              "rtr": "PITCH_SHIFT"
            },
            "ctb2High": null
          },
          "notes": [
            {
              "pitch": 48,
              "velocity": 77,
              "position": 0,
              "duration": 0.22916666666666666
            },
            {
              "pitch": 55,
              "velocity": 76,
              "position": 0.020833333333333332,
              "duration": 0.22916666666666666
            },
            {
              "pitch": 48,
              "velocity": 76,
              "position": 0.5,
              "duration": 0.22916666666666666
            },
            {
              "pitch": 55,
              "velocity": 76,
              "position": 0.5208333333333334,
              "duration": 0.22916666666666666
            },
            {
              "pitch": 48,
              "velocity": 78,
              "position": 1,
              "duration": 0.19791666666666666
            },
            {
              "pitch": 55,
              "velocity": 76,
              "position": 1.0208333333333333,
              "duration": 0.19791666666666666
            },
            {
              "pitch": 48,
              "velocity": 76,
              "position": 1.5,
              "duration": 0.19791666666666666
            },
            {
              "pitch": 55,
              "velocity": 76,
              "position": 1.5208333333333333,
              "duration": 0.19791666666666666
            },
            {
              "pitch": 48,
              "velocity": 79,
              "position": 2,
              "duration": 0.21875
            },
            {
              "pitch": 55,
              "velocity": 76,
              "position": 2.0208333333333335,
              "duration": 0.21875
            },
            {
              "pitch": 48,
              "velocity": 76,
              "position": 2.5,
              "duration": 0.21875
            },
            {
              "pitch": 55,
              "velocity": 76,
              "position": 2.5208333333333335,
              "duration": 0.21875
            },
            {
              "pitch": 48,
              "velocity": 80,
              "position": 3,
              "duration": 0.24583333333333332
            },
            {
              "pitch": 55,
              "velocity": 76,
              "position": 3.0208333333333335,
              "duration": 0.24583333333333332
            },
            {
              "pitch": 48,
              "velocity": 77,
              "position": 3.5,
              "duration": 0.24583333333333332
            },
            {
              "pitch": 55,
              "velocity": 76,
              "position": 3.5208333333333335,
              "duration": 0.24583333333333332
            },
            {
              "pitch": 48,
              "velocity": 81,
              "position": 4,
              "duration": 0.23958333333333334
            },
            {
              "pitch": 55,
              "velocity": 76,
              "position": 4.020833333333333,
              "duration": 0.23958333333333334
            },
            {
              "pitch": 48,
              "velocity": 78,
              "position": 4.5,
              "duration": 0.23958333333333334
            },
            {
              "pitch": 55,
              "velocity": 76,
              "position": 4.520833333333333,
              "duration": 0.23958333333333334
            },
            {
              "pitch": 48,
              "velocity": 82,
              "position": 5,
              "duration": 0.26666666666666666
            },
            {
              "pitch": 55,
              "velocity": 76,
              "position": 5.020833333333333,
              "duration": 0.26666666666666666
            },
            {
              "pitch": 48,
              "velocity": 79,
              "position": 5.5,
              "duration": 0.26666666666666666
            },
            {
              "pitch": 55,
              "velocity": 76,
              "position": 5.520833333333333,
              "duration": 0.26666666666666666
            },
            {
              "pitch": 48,
              "velocity": 83,
              "position": 6,
              "duration": 0.26875
            },
            {
              "pitch": 55,
              "velocity": 76,
              "position": 6.020833333333333,
              "duration": 0.26875
            },
            {
              "pitch": 48,
              "velocity": 80,
              "position": 6.5,
              "duration": 0.26875
            },
            {
              "pitch": 55,
              "velocity": 76,
              "position": 6.520833333333333,
              "duration": 0.26875
            },
            {
              "pitch": 48,
              "velocity": 84,
              "position": 7,
              "duration": 0.21875
            },
            {
              "pitch": 55,
              "velocity": 76,
              "position": 7.020833333333333,
              "duration": 0.21875
            },
            {
              "pitch": 48,
              "velocity": 81,
              "position": 7.5,
              "duration": 0.21875
            },
            {
              "pitch": 55,
              "velocity": 76,
              "position": 7.520833333333333,
              "duration": 0.21875
            },
            {
              "pitch": 48,
              "velocity": 85,
              "position": 8,
              "duration": 0.23958333333333334
            },
            {
              "pitch": 55,
              "velocity": 76,
              "position": 8.020833333333334,
              "duration": 0.23958333333333334
            },
            {
              "pitch": 48,
              "velocity": 82,
              "position": 8.5,
              "duration": 0.23958333333333334
            },
            {
              "pitch": 55,
              "velocity": 76,
              "position": 8.520833333333334,
              "duration": 0.23958333333333334
            },
            {
              "pitch": 48,
              "velocity": 86,
              "position": 9,
              "duration": 0.23125
            },
            {
              "pitch": 55,
              "velocity": 76,
              "position": 9.020833333333334,
              "duration": 0.23125
            },
            {
              "pitch": 48,
              "velocity": 83,
              "position": 9.5,
              "duration": 0.23125
            },
            {
              "pitch": 55,
              "velocity": 76,
              "position": 9.520833333333334,
              "duration": 0.23125
            },
            {
              "pitch": 48,
              "velocity": 87,
              "position": 10,
              "duration": 0.21875
            },
            {
              "pitch": 55,
              "velocity": 76,
              "position": 10.020833333333334,
              "duration": 0.21875
            },
            {
              "pitch": 48,
              "velocity": 84,
              "position": 10.5,
              "duration": 0.21875
            },
            {
              "pitch": 55,
              "velocity": 76,
              "position": 10.520833333333334,
              "duration": 0.21875
            },
            {
              "pitch": 48,
              "velocity": 88,
              "position": 11,
              "duration": 0.2604166666666667
            },
            {
              "pitch": 55,
              "velocity": 76,
              "position": 11.020833333333334,
              "duration": 0.2604166666666667
            },
            {
              "pitch": 48,
              "velocity": 85,
              "position": 11.5,
              "duration": 0.2604166666666667
            },
            {
              "pitch": 55,
              "velocity": 76,
              "position": 11.520833333333334,
              "duration": 0.2604166666666667
            },
            {
              "pitch": 48,
              "velocity": 89,
              "position": 12,
              "duration": 0.22916666666666666
            },
            {
              "pitch": 55,
              "velocity": 76,
              "position": 12.020833333333334,
              "duration": 0.22916666666666666
            },
            {
              "pitch": 48,
              "velocity": 86,
              "position": 12.5,
              "duration": 0.22916666666666666
            },
            {
              "pitch": 55,
              "velocity": 76,
              "position": 12.520833333333334,
              "duration": 0.22916666666666666
            },
            {
              "pitch": 48,
              "velocity": 90,
              "position": 13,
              "duration": 0.2604166666666667
            },
            {
              "pitch": 55,
              "velocity": 76,
              "position": 13.020833333333334,
              "duration": 0.2604166666666667
            },
            {
              "pitch": 46,
              "velocity": 39,
              "position": 13.5125,
              "duration": 0.9125
            },
            {
              "pitch": 65,
              "velocity": 25,
              "position": 13.520833333333334,
              "duration": 0.96875
            },
            {
              "pitch": 62,
              "velocity": 25,
              "position": 13.5,
              "duration": 0.9895833333333334
            },
            {
              "pitch": 70,
              "velocity": 25,
              "position": 13.541666666666666,
              "duration": 0.9895833333333334
            },
            {
              "pitch": 41,
              "velocity": 39,
              "position": 14.48125,
              "duration": 0.9541666666666667
            },
            {
              "pitch": 65,
              "velocity": 25,
              "position": 14.541666666666666,
              "duration": 0.9895833333333334
            },
            {
              "pitch": 69,
              "velocity": 25,
              "position": 14.541666666666666,
              "duration": 0.9895833333333334
            },
            {
              "pitch": 60,
              "velocity": 25,
              "position": 14.541666666666666,
              "duration": 0.9895833333333334
            },
            {
              "pitch": 67,
              "velocity": 25,
              "position": 15.541666666666666,
              "duration": 0.4479166666666667
            },
            {
              "pitch": 64,
              "velocity": 25,
              "position": 15.541666666666666,
              "duration": 0.4479166666666667
            },
            {
              "pitch": 60,
              "velocity": 25,
              "position": 15.541666666666666,
              "duration": 0.4479166666666667
            },
            {
              "pitch": 48,
              "velocity": 39,
              "position": 15.5,
              "duration": 0.4895833333333333
            },
            {
              "pitch": 48,
              "velocity": 81,
              "position": 16,
              "duration": 0.22916666666666666
            },
            {
              "pitch": 55,
              "velocity": 76,
              "position": 16.020833333333332,
              "duration": 0.22916666666666666
            },
            {
              "pitch": 48,
              "velocity": 80,
              "position": 16.5,
              "duration": 0.22916666666666666
            },
            {
              "pitch": 55,
              "velocity": 76,
              "position": 16.520833333333332,
              "duration": 0.22916666666666666
            },
            {
              "pitch": 48,
              "velocity": 82,
              "position": 17,
              "duration": 0.19791666666666666
            },
            {
              "pitch": 55,
              "velocity": 76,
              "position": 17.020833333333332,
              "duration": 0.19791666666666666
            },
            {
              "pitch": 48,
              "velocity": 80,
              "position": 17.5,
              "duration": 0.19791666666666666
            },
            {
              "pitch": 55,
              "velocity": 76,
              "position": 17.520833333333332,
              "duration": 0.19791666666666666
            },
            {
              "pitch": 48,
              "velocity": 82,
              "position": 18,
              "duration": 0.21875
            },
            {
              "pitch": 55,
              "velocity": 76,
              "position": 18.020833333333332,
              "duration": 0.21875
            },
            {
              "pitch": 48,
              "velocity": 80,
              "position": 18.5,
              "duration": 0.21875
            },
            {
              "pitch": 55,
              "velocity": 76,
              "position": 18.520833333333332,
              "duration": 0.21875
            },
            {
              "pitch": 48,
              "velocity": 83,
              "position": 19,
              "duration": 0.24583333333333332
            },
            {
              "pitch": 55,
              "velocity": 76,
              "position": 19.020833333333332,
              "duration": 0.24583333333333332
            },
            {
              "pitch": 48,
              "velocity": 81,
              "position": 19.5,
              "duration": 0.24583333333333332
            },
            {
              "pitch": 55,
              "velocity": 76,
              "position": 19.520833333333332,
              "duration": 0.24583333333333332
            },
            {
              "pitch": 48,
              "velocity": 83,
              "position": 20,
              "duration": 0.23958333333333334
            },
            {
              "pitch": 55,
              "velocity": 76,
              "position": 20.020833333333332,
              "duration": 0.23958333333333334
            },
            {
              "pitch": 48,
              "velocity": 82,
              "position": 20.5,
              "duration": 0.23958333333333334
            },
            {
              "pitch": 55,
              "velocity": 76,
              "position": 20.520833333333332,
              "duration": 0.23958333333333334
            },
            {
              "pitch": 48,
              "velocity": 84,
              "position": 21,
              "duration": 0.26666666666666666
            },
            {
              "pitch": 55,
              "velocity": 76,
              "position": 21.020833333333332,
              "duration": 0.26666666666666666
            },
            {
              "pitch": 48,
              "velocity": 82,
              "position": 21.5,
              "duration": 0.26666666666666666
            },
            {
              "pitch": 55,
              "velocity": 76,
              "position": 21.520833333333332,
              "duration": 0.26666666666666666
            },
            {
              "pitch": 48,
              "velocity": 85,
              "position": 22,
              "duration": 0.26875
            },
            {
              "pitch": 55,
              "velocity": 76,
              "position": 22.020833333333332,
              "duration": 0.26875
            },
            {
              "pitch": 48,
              "velocity": 83,
              "position": 22.5,
              "duration": 0.26875
            },
            {
              "pitch": 55,
              "velocity": 76,
              "position": 22.520833333333332,
              "duration": 0.26875
            },
            {
              "pitch": 48,
              "velocity": 86,
              "position": 23,
              "duration": 0.21875
            },
            {
              "pitch": 55,
              "velocity": 76,
              "position": 23.020833333333332,
              "duration": 0.21875
            },
            {
              "pitch": 48,
              "velocity": 83,
              "position": 23.5,
              "duration": 0.21875
            },
            {
              "pitch": 55,
              "velocity": 76,
              "position": 23.520833333333332,
              "duration": 0.21875
            },
            {
              "pitch": 48,
              "velocity": 86,
              "position": 24,
              "duration": 0.23958333333333334
            },
            {
              "pitch": 55,
              "velocity": 76,
              "position": 24.020833333333332,
              "duration": 0.23958333333333334
            },
            {
              "pitch": 48,
              "velocity": 84,
              "position": 24.5,
              "duration": 0.23958333333333334
            },
            {
              "pitch": 55,
              "velocity": 76,
              "position": 24.520833333333332,
              "duration": 0.23958333333333334
            },
            {
              "pitch": 48,
              "velocity": 86,
              "position": 25,
              "duration": 0.23125
            },
            {
              "pitch": 55,
              "velocity": 76,
              "position": 25.020833333333332,
              "duration": 0.23125
            },
            {
              "pitch": 48,
              "velocity": 85,
              "position": 25.5,
              "duration": 0.23125
            },
            {
              "pitch": 55,
              "velocity": 76,
              "position": 25.520833333333332,
              "duration": 0.23125
            },
            {
              "pitch": 48,
              "velocity": 87,
              "position": 26,
              "duration": 0.21875
            },
            {
              "pitch": 55,
              "velocity": 76,
              "position": 26.020833333333332,
              "duration": 0.21875
            },
            {
              "pitch": 48,
              "velocity": 86,
              "position": 26.5,
              "duration": 0.21875
            },
            {
              "pitch": 55,
              "velocity": 76,
              "position": 26.520833333333332,
              "duration": 0.21875
            },
            {
              "pitch": 48,
              "velocity": 88,
              "position": 27,
              "duration": 0.2604166666666667
            },
            {
              "pitch": 55,
              "velocity": 76,
              "position": 27.020833333333332,
              "duration": 0.2604166666666667
            },
            {
              "pitch": 48,
              "velocity": 86,
              "position": 27.5,
              "duration": 0.2604166666666667
            },
            {
              "pitch": 55,
              "velocity": 76,
              "position": 27.520833333333332,
              "duration": 0.2604166666666667
            },
            {
              "pitch": 48,
              "velocity": 89,
              "position": 28,
              "duration": 0.22916666666666666
            },
            {
              "pitch": 55,
              "velocity": 76,
              "position": 28.020833333333332,
              "duration": 0.22916666666666666
            },
            {
              "pitch": 48,
              "velocity": 86,
              "position": 28.5,
              "duration": 0.22916666666666666
            },
            {
              "pitch": 55,
              "velocity": 76,
              "position": 28.520833333333332,
              "duration": 0.22916666666666666
            },
            {
              "pitch": 48,
              "velocity": 90,
              "position": 29,
              "duration": 0.2604166666666667
            },
            {
              "pitch": 55,
              "velocity": 76,
              "position": 29.020833333333332,
              "duration": 0.2604166666666667
            },
            {
              "pitch": 46,
              "velocity": 39,
              "position": 29.5125,
              "duration": 0.9125
            },
            {
              "pitch": 65,
              "velocity": 25,
              "position": 29.520833333333332,
              "duration": 0.96875
            },
            {
              "pitch": 62,
              "velocity": 25,
              "position": 29.5,
              "duration": 0.9895833333333334
            },
            {
              "pitch": 70,
              "velocity": 25,
              "position": 29.541666666666668,
              "duration": 0.9895833333333334
            },
            {
              "pitch": 41,
              "velocity": 39,
              "position": 30.48125,
              "duration": 1.5041666666666667
            },
            {
              "pitch": 65,
              "velocity": 25,
              "position": 30.541666666666668,
              "duration": 1.4479166666666667
            },
            {
              "pitch": 60,
              "velocity": 25,
              "position": 30.541666666666668,
              "duration": 1.4479166666666667
            },
            {
              "pitch": 69,
              "velocity": 25,
              "position": 30.541666666666668,
              "duration": 1.4479166666666667
            }
          ]
        },
        "12": {
          "ctab": {
            "srcChannel": 12,
            "name": "Solid",
            "accType": "CHORD2",
            "editable": false,
            "mutedNotes": [],
            "mutedChords": [
              "dim7",
              "dim",
              "minMaj7(9)",
              "minMaj7",
              "min7(11)",
              "min7(9)",
              "min(9)",
              "m7b5",
              "min7",
              "min6",
              "min"
            ],
            "autoStart": false,
            "sourceChordNote": 0,
            "sourceChordType": "Maj",
            "ctb2Low": null,
            "ctb2Main": {
              "ntr": "ROOT_TRANSPOSITION",
              "ntt": "BYPASS",
              "bassOn": false,
              "chordRootUpperLimit": 8,
              "noteLowLimit": 58,
              "noteHighLimit": 69,
              "rtr": "PITCH_SHIFT"
            },
            "ctb2High": null
          },
          "notes": [
            {
              "pitch": 48,
              "velocity": 77,
              "position": 0,
              "duration": 0.22916666666666666
            },
            {
              "pitch": 55,
              "velocity": 76,
              "position": 0.020833333333333332,
              "duration": 0.22916666666666666
            },
            {
              "pitch": 48,
              "velocity": 76,
              "position": 0.5,
              "duration": 0.22916666666666666
            },
            {
              "pitch": 55,
              "velocity": 76,
              "position": 0.5208333333333334,
              "duration": 0.22916666666666666
            },
            {
              "pitch": 48,
              "velocity": 78,
              "position": 1,
              "duration": 0.19791666666666666
            },
            {
              "pitch": 55,
              "velocity": 76,
              "position": 1.0208333333333333,
              "duration": 0.19791666666666666
            },
            {
              "pitch": 48,
              "velocity": 76,
              "position": 1.5,
              "duration": 0.19791666666666666
            },
            {
              "pitch": 55,
              "velocity": 76,
              "position": 1.5208333333333333,
              "duration": 0.19791666666666666
            },
            {
              "pitch": 48,
              "velocity": 79,
              "position": 2,
              "duration": 0.21875
            },
            {
              "pitch": 55,
              "velocity": 76,
              "position": 2.0208333333333335,
              "duration": 0.21875
            },
            {
              "pitch": 48,
              "velocity": 76,
              "position": 2.5,
              "duration": 0.21875
            },
            {
              "pitch": 55,
              "velocity": 76,
              "position": 2.5208333333333335,
              "duration": 0.21875
            },
            {
              "pitch": 48,
              "velocity": 80,
              "position": 3,
              "duration": 0.24583333333333332
            },
            {
              "pitch": 55,
              "velocity": 76,
              "position": 3.0208333333333335,
              "duration": 0.24583333333333332
            },
            {
              "pitch": 48,
              "velocity": 77,
              "position": 3.5,
              "duration": 0.24583333333333332
            },
            {
              "pitch": 55,
              "velocity": 76,
              "position": 3.5208333333333335,
              "duration": 0.24583333333333332
            },
            {
              "pitch": 48,
              "velocity": 81,
              "position": 4,
              "duration": 0.23958333333333334
            },
            {
              "pitch": 55,
              "velocity": 76,
              "position": 4.020833333333333,
              "duration": 0.23958333333333334
            },
            {
              "pitch": 48,
              "velocity": 78,
              "position": 4.5,
              "duration": 0.23958333333333334
            },
            {
              "pitch": 55,
              "velocity": 76,
              "position": 4.520833333333333,
              "duration": 0.23958333333333334
            },
            {
              "pitch": 48,
              "velocity": 82,
              "position": 5,
              "duration": 0.26666666666666666
            },
            {
              "pitch": 55,
              "velocity": 76,
              "position": 5.020833333333333,
              "duration": 0.26666666666666666
            },
            {
              "pitch": 48,
              "velocity": 79,
              "position": 5.5,
              "duration": 0.26666666666666666
            },
            {
              "pitch": 55,
              "velocity": 76,
              "position": 5.520833333333333,
              "duration": 0.26666666666666666
            },
            {
              "pitch": 48,
              "velocity": 83,
              "position": 6,
              "duration": 0.26875
            },
            {
              "pitch": 55,
              "velocity": 76,
              "position": 6.020833333333333,
              "duration": 0.26875
            },
            {
              "pitch": 48,
              "velocity": 80,
              "position": 6.5,
              "duration": 0.26875
            },
            {
              "pitch": 55,
              "velocity": 76,
              "position": 6.520833333333333,
              "duration": 0.26875
            },
            {
              "pitch": 48,
              "velocity": 84,
              "position": 7,
              "duration": 0.21875
            },
            {
              "pitch": 55,
              "velocity": 76,
              "position": 7.020833333333333,
              "duration": 0.21875
            },
            {
              "pitch": 48,
              "velocity": 81,
              "position": 7.5,
              "duration": 0.21875
            },
            {
              "pitch": 55,
              "velocity": 76,
              "position": 7.520833333333333,
              "duration": 0.21875
            },
            {
              "pitch": 48,
              "velocity": 85,
              "position": 8,
              "duration": 0.23958333333333334
            },
            {
              "pitch": 55,
              "velocity": 76,
              "position": 8.020833333333334,
              "duration": 0.23958333333333334
            },
            {
              "pitch": 48,
              "velocity": 82,
              "position": 8.5,
              "duration": 0.23958333333333334
            },
            {
              "pitch": 55,
              "velocity": 76,
              "position": 8.520833333333334,
              "duration": 0.23958333333333334
            },
            {
              "pitch": 48,
              "velocity": 86,
              "position": 9,
              "duration": 0.23125
            },
            {
              "pitch": 55,
              "velocity": 76,
              "position": 9.020833333333334,
              "duration": 0.23125
            },
            {
              "pitch": 48,
              "velocity": 83,
              "position": 9.5,
              "duration": 0.23125
            },
            {
              "pitch": 55,
              "velocity": 76,
              "position": 9.520833333333334,
              "duration": 0.23125
            },
            {
              "pitch": 48,
              "velocity": 87,
              "position": 10,
              "duration": 0.21875
            },
            {
              "pitch": 55,
              "velocity": 76,
              "position": 10.020833333333334,
              "duration": 0.21875
            },
            {
              "pitch": 48,
              "velocity": 84,
              "position": 10.5,
              "duration": 0.21875
            },
            {
              "pitch": 55,
              "velocity": 76,
              "position": 10.520833333333334,
              "duration": 0.21875
            },
            {
              "pitch": 48,
              "velocity": 88,
              "position": 11,
              "duration": 0.2604166666666667
            },
            {
              "pitch": 55,
              "velocity": 76,
              "position": 11.020833333333334,
              "duration": 0.2604166666666667
            },
            {
              "pitch": 48,
              "velocity": 85,
              "position": 11.5,
              "duration": 0.2604166666666667
            },
            {
              "pitch": 55,
              "velocity": 76,
              "position": 11.520833333333334,
              "duration": 0.2604166666666667
            },
            {
              "pitch": 48,
              "velocity": 89,
              "position": 12,
              "duration": 0.22916666666666666
            },
            {
              "pitch": 55,
              "velocity": 76,
              "position": 12.020833333333334,
              "duration": 0.22916666666666666
            },
            {
              "pitch": 48,
              "velocity": 86,
              "position": 12.5,
              "duration": 0.22916666666666666
            },
            {
              "pitch": 55,
              "velocity": 76,
              "position": 12.520833333333334,
              "duration": 0.22916666666666666
            },
            {
              "pitch": 48,
              "velocity": 90,
              "position": 13,
              "duration": 0.2604166666666667
            },
            {
              "pitch": 55,
              "velocity": 76,
              "position": 13.020833333333334,
              "duration": 0.2604166666666667
            },
            {
              "pitch": 46,
              "velocity": 41,
              "position": 13.5125,
              "duration": 0.9125
            },
            {
              "pitch": 65,
              "velocity": 30,
              "position": 13.520833333333334,
              "duration": 0.96875
            },
            {
              "pitch": 62,
              "velocity": 30,
              "position": 13.5,
              "duration": 0.9895833333333334
            },
            {
              "pitch": 70,
              "velocity": 30,
              "position": 13.541666666666666,
              "duration": 0.9895833333333334
            },
            {
              "pitch": 41,
              "velocity": 41,
              "position": 14.48125,
              "duration": 0.9541666666666667
            },
            {
              "pitch": 65,
              "velocity": 30,
              "position": 14.541666666666666,
              "duration": 0.9895833333333334
            },
            {
              "pitch": 69,
              "velocity": 30,
              "position": 14.541666666666666,
              "duration": 0.9895833333333334
            },
            {
              "pitch": 60,
              "velocity": 30,
              "position": 14.541666666666666,
              "duration": 0.9895833333333334
            },
            {
              "pitch": 67,
              "velocity": 30,
              "position": 15.541666666666666,
              "duration": 0.4479166666666667
            },
            {
              "pitch": 64,
              "velocity": 30,
              "position": 15.541666666666666,
              "duration": 0.4479166666666667
            },
            {
              "pitch": 60,
              "velocity": 30,
              "position": 15.541666666666666,
              "duration": 0.4479166666666667
            },
            {
              "pitch": 48,
              "velocity": 41,
              "position": 15.5,
              "duration": 0.4895833333333333
            },
            {
              "pitch": 48,
              "velocity": 81,
              "position": 16,
              "duration": 0.22916666666666666
            },
            {
              "pitch": 55,
              "velocity": 76,
              "position": 16.020833333333332,
              "duration": 0.22916666666666666
            },
            {
              "pitch": 48,
              "velocity": 81,
              "position": 16.5,
              "duration": 0.22916666666666666
            },
            {
              "pitch": 55,
              "velocity": 76,
              "position": 16.520833333333332,
              "duration": 0.22916666666666666
            },
            {
              "pitch": 48,
              "velocity": 82,
              "position": 17,
              "duration": 0.19791666666666666
            },
            {
              "pitch": 55,
              "velocity": 76,
              "position": 17.020833333333332,
              "duration": 0.19791666666666666
            },
            {
              "pitch": 48,
              "velocity": 81,
              "position": 17.5,
              "duration": 0.19791666666666666
            },
            {
              "pitch": 55,
              "velocity": 76,
              "position": 17.520833333333332,
              "duration": 0.19791666666666666
            },
            {
              "pitch": 48,
              "velocity": 83,
              "position": 18,
              "duration": 0.21875
            },
            {
              "pitch": 55,
              "velocity": 76,
              "position": 18.020833333333332,
              "duration": 0.21875
            },
            {
              "pitch": 48,
              "velocity": 81,
              "position": 18.5,
              "duration": 0.21875
            },
            {
              "pitch": 55,
              "velocity": 76,
              "position": 18.520833333333332,
              "duration": 0.21875
            },
            {
              "pitch": 48,
              "velocity": 84,
              "position": 19,
              "duration": 0.24583333333333332
            },
            {
              "pitch": 55,
              "velocity": 76,
              "position": 19.020833333333332,
              "duration": 0.24583333333333332
            },
            {
              "pitch": 48,
              "velocity": 81,
              "position": 19.5,
              "duration": 0.24583333333333332
            },
            {
              "pitch": 55,
              "velocity": 76,
              "position": 19.520833333333332,
              "duration": 0.24583333333333332
            },
            {
              "pitch": 48,
              "velocity": 84,
              "position": 20,
              "duration": 0.23958333333333334
            },
            {
              "pitch": 55,
              "velocity": 76,
              "position": 20.020833333333332,
              "duration": 0.23958333333333334
            },
            {
              "pitch": 48,
              "velocity": 82,
              "position": 20.5,
              "duration": 0.23958333333333334
            },
            {
              "pitch": 55,
              "velocity": 76,
              "position": 20.520833333333332,
              "duration": 0.23958333333333334
            },
            {
              "pitch": 48,
              "velocity": 85,
              "position": 21,
              "duration": 0.26666666666666666
            },
            {
              "pitch": 55,
              "velocity": 76,
              "position": 21.020833333333332,
              "duration": 0.26666666666666666
            },
            {
              "pitch": 48,
              "velocity": 83,
              "position": 21.5,
              "duration": 0.26666666666666666
            },
            {
              "pitch": 55,
              "velocity": 76,
              "position": 21.520833333333332,
              "duration": 0.26666666666666666
            },
            {
              "pitch": 48,
              "velocity": 85,
              "position": 22,
              "duration": 0.26875
            },
            {
              "pitch": 55,
              "velocity": 76,
              "position": 22.020833333333332,
              "duration": 0.26875
            },
            {
              "pitch": 48,
              "velocity": 84,
              "position": 22.5,
              "duration": 0.26875
            },
            {
              "pitch": 55,
              "velocity": 76,
              "position": 22.520833333333332,
              "duration": 0.26875
            },
            {
              "pitch": 48,
              "velocity": 86,
              "position": 23,
              "duration": 0.21875
            },
            {
              "pitch": 55,
              "velocity": 76,
              "position": 23.020833333333332,
              "duration": 0.21875
            },
            {
              "pitch": 48,
              "velocity": 84,
              "position": 23.5,
              "duration": 0.21875
            },
            {
              "pitch": 55,
              "velocity": 76,
              "position": 23.520833333333332,
              "duration": 0.21875
            },
            {
              "pitch": 48,
              "velocity": 87,
              "position": 24,
              "duration": 0.23958333333333334
            },
            {
              "pitch": 55,
              "velocity": 76,
              "position": 24.020833333333332,
              "duration": 0.23958333333333334
            },
            {
              "pitch": 48,
              "velocity": 85,
              "position": 24.5,
              "duration": 0.23958333333333334
            },
            {
              "pitch": 55,
              "velocity": 76,
              "position": 24.520833333333332,
              "duration": 0.23958333333333334
            },
            {
              "pitch": 48,
              "velocity": 87,
              "position": 25,
              "duration": 0.23125
            },
            {
              "pitch": 55,
              "velocity": 76,
              "position": 25.020833333333332,
              "duration": 0.23125
            },
            {
              "pitch": 48,
              "velocity": 85,
              "position": 25.5,
              "duration": 0.23125
            },
            {
              "pitch": 55,
              "velocity": 76,
              "position": 25.520833333333332,
              "duration": 0.23125
            },
            {
              "pitch": 48,
              "velocity": 88,
              "position": 26,
              "duration": 0.21875
            },
            {
              "pitch": 55,
              "velocity": 76,
              "position": 26.020833333333332,
              "duration": 0.21875
            },
            {
              "pitch": 48,
              "velocity": 86,
              "position": 26.5,
              "duration": 0.21875
            },
            {
              "pitch": 55,
              "velocity": 76,
              "position": 26.520833333333332,
              "duration": 0.21875
            },
            {
              "pitch": 48,
              "velocity": 89,
              "position": 27,
              "duration": 0.2604166666666667
            },
            {
              "pitch": 55,
              "velocity": 76,
              "position": 27.020833333333332,
              "duration": 0.2604166666666667
            },
            {
              "pitch": 48,
              "velocity": 87,
              "position": 27.5,
              "duration": 0.2604166666666667
            },
            {
              "pitch": 55,
              "velocity": 76,
              "position": 27.520833333333332,
              "duration": 0.2604166666666667
            },
            {
              "pitch": 48,
              "velocity": 89,
              "position": 28,
              "duration": 0.22916666666666666
            },
            {
              "pitch": 55,
              "velocity": 76,
              "position": 28.020833333333332,
              "duration": 0.22916666666666666
            },
            {
              "pitch": 48,
              "velocity": 87,
              "position": 28.5,
              "duration": 0.22916666666666666
            },
            {
              "pitch": 55,
              "velocity": 76,
              "position": 28.520833333333332,
              "duration": 0.22916666666666666
            },
            {
              "pitch": 48,
              "velocity": 90,
              "position": 29,
              "duration": 0.2604166666666667
            },
            {
              "pitch": 55,
              "velocity": 76,
              "position": 29.020833333333332,
              "duration": 0.2604166666666667
            },
            {
              "pitch": 46,
              "velocity": 41,
              "position": 29.5125,
              "duration": 0.9125
            },
            {
              "pitch": 65,
              "velocity": 30,
              "position": 29.520833333333332,
              "duration": 0.96875
            },
            {
              "pitch": 62,
              "velocity": 30,
              "position": 29.5,
              "duration": 0.9895833333333334
            },
            {
              "pitch": 70,
              "velocity": 30,
              "position": 29.541666666666668,
              "duration": 0.9895833333333334
            },
            {
              "pitch": 41,
              "velocity": 41,
              "position": 30.48125,
              "duration": 1.5041666666666667
            },
            {
              "pitch": 65,
              "velocity": 30,
              "position": 30.541666666666668,
              "duration": 1.4479166666666667
            },
            {
              "pitch": 60,
              "velocity": 30,
              "position": 30.541666666666668,
              "duration": 1.4479166666666667
            },
            {
              "pitch": 69,
              "velocity": 30,
              "position": 30.541666666666668,
              "duration": 1.4479166666666667
            }
          ]
        },
        "13": {
          "ctab": {
            "srcChannel": 13,
            "name": "Organ",
            "accType": "PAD",
            "editable": false,
            "mutedNotes": [],
            "mutedChords": [
              "dim7",
              "dim",
              "minMaj7(9)",
              "minMaj7",
              "min7(11)",
              "min7(9)",
              "min(9)",
              "m7b5",
              "min7",
              "min6",
              "min"
            ],
            "autoStart": false,
            "sourceChordNote": 0,
            "sourceChordType": "Maj",
            "ctb2Low": null,
            "ctb2Main": {
              "ntr": "ROOT_TRANSPOSITION",
              "ntt": "BYPASS",
              "bassOn": false,
              "chordRootUpperLimit": 2,
              "noteLowLimit": 0,
              "noteHighLimit": 79,
              "rtr": "PITCH_SHIFT"
            },
            "ctb2High": null
          },
          "notes": [
            {
              "pitch": 26,
              "velocity": 92,
              "position": 13.5,
              "duration": 0.9895833333333334
            },
            {
              "pitch": 34,
              "velocity": 92,
              "position": 13.5,
              "duration": 0.9895833333333334
            },
            {
              "pitch": 29,
              "velocity": 92,
              "position": 13.5,
              "duration": 0.9895833333333334
            },
            {
              "pitch": 24,
              "velocity": 92,
              "position": 14.5,
              "duration": 0.9895833333333334
            },
            {
              "pitch": 33,
              "velocity": 92,
              "position": 14.5,
              "duration": 0.9895833333333334
            },
            {
              "pitch": 29,
              "velocity": 92,
              "position": 14.5,
              "duration": 0.9895833333333334
            },
            {
              "pitch": 24,
              "velocity": 92,
              "position": 15.5,
              "duration": 0.53125
            },
            {
              "pitch": 31,
              "velocity": 92,
              "position": 15.5,
              "duration": 0.53125
            },
            {
              "pitch": 28,
              "velocity": 92,
              "position": 15.5,
              "duration": 0.53125
            },
            {
              "pitch": 36,
              "velocity": 90,
              "position": 28.45,
              "duration": 0.08333333333333333
            },
            {
              "pitch": 38,
              "velocity": 90,
              "position": 28.491666666666667,
              "duration": 0.10833333333333334
            },
            {
              "pitch": 40,
              "velocity": 90,
              "position": 28.552083333333332,
              "duration": 0.10208333333333333
            },
            {
              "pitch": 41,
              "velocity": 90,
              "position": 28.614583333333332,
              "duration": 0.09375
            },
            {
              "pitch": 43,
              "velocity": 90,
              "position": 28.666666666666668,
              "duration": 0.08333333333333333
            },
            {
              "pitch": 45,
              "velocity": 90,
              "position": 28.71875,
              "duration": 0.08333333333333333
            },
            {
              "pitch": 47,
              "velocity": 90,
              "position": 28.770833333333332,
              "duration": 0.08333333333333333
            },
            {
              "pitch": 48,
              "velocity": 90,
              "position": 28.822916666666668,
              "duration": 0.08541666666666667
            },
            {
              "pitch": 50,
              "velocity": 90,
              "position": 28.875,
              "duration": 0.08541666666666667
            },
            {
              "pitch": 52,
              "velocity": 90,
              "position": 28.927083333333332,
              "duration": 0.09375
            },
            {
              "pitch": 53,
              "velocity": 90,
              "position": 28.979166666666668,
              "duration": 0.08958333333333333
            },
            {
              "pitch": 55,
              "velocity": 90,
              "position": 29.033333333333335,
              "duration": 0.09166666666666666
            },
            {
              "pitch": 57,
              "velocity": 90,
              "position": 29.09375,
              "duration": 0.09375
            },
            {
              "pitch": 59,
              "velocity": 90,
              "position": 29.145833333333332,
              "duration": 0.08541666666666667
            },
            {
              "pitch": 60,
              "velocity": 90,
              "position": 29.197916666666668,
              "duration": 0.08333333333333333
            },
            {
              "pitch": 62,
              "velocity": 90,
              "position": 29.241666666666667,
              "duration": 0.07708333333333334
            },
            {
              "pitch": 64,
              "velocity": 90,
              "position": 29.291666666666668,
              "duration": 0.07291666666666667
            },
            {
              "pitch": 65,
              "velocity": 90,
              "position": 29.333333333333332,
              "duration": 0.06875
            },
            {
              "pitch": 67,
              "velocity": 90,
              "position": 29.375,
              "duration": 0.07291666666666667
            },
            {
              "pitch": 69,
              "velocity": 90,
              "position": 29.416666666666668,
              "duration": 0.07291666666666667
            },
            {
              "pitch": 71,
              "velocity": 90,
              "position": 29.458333333333332,
              "duration": 0.07916666666666666
            },
            {
              "pitch": 82,
              "velocity": 90,
              "position": 29.5,
              "duration": 0.9895833333333334
            },
            {
              "pitch": 77,
              "velocity": 90,
              "position": 29.5,
              "duration": 0.9895833333333334
            },
            {
              "pitch": 74,
              "velocity": 90,
              "position": 29.5,
              "duration": 0.9895833333333334
            },
            {
              "pitch": 77,
              "velocity": 90,
              "position": 30.5,
              "duration": 1.4895833333333333
            },
            {
              "pitch": 84,
              "velocity": 90,
              "position": 30.5,
              "duration": 1.4895833333333333
            },
            {
              "pitch": 81,
              "velocity": 90,
              "position": 30.5,
              "duration": 1.4895833333333333
            }
          ]
        },
        "14": {
          "ctab": {
            "srcChannel": 14,
            "name": "Solid Ld",
            "accType": "PHRASE1",
            "editable": false,
            "mutedNotes": [],
            "mutedChords": [],
            "autoStart": false,
            "sourceChordNote": 0,
            "sourceChordType": "Maj",
            "ctb2Low": null,
            "ctb2Main": {
              "ntr": "ROOT_TRANSPOSITION",
              "ntt": "MELODIC_MINOR",
              "bassOn": false,
              "chordRootUpperLimit": 11,
              "noteLowLimit": 0,
              "noteHighLimit": 127,
              "rtr": "PITCH_SHIFT"
            },
            "ctb2High": null
          },
          "notes": [
            {
              "pitch": 67,
              "velocity": 125,
              "position": 22,
              "duration": 2.9895833333333335
            },
            {
              "pitch": 72,
              "velocity": 127,
              "position": 22,
              "duration": 2.9895833333333335
            },
            {
              "pitch": 67,
              "velocity": 125,
              "position": 25,
              "duration": 2.9895833333333335
            },
            {
              "pitch": 72,
              "velocity": 127,
              "position": 25,
              "duration": 2.9895833333333335
            },
            {
              "pitch": 55,
              "velocity": 41,
              "position": 15.5,
              "duration": 12.491666666666667
            },
            {
              "pitch": 60,
              "velocity": 41,
              "position": 15.5,
              "duration": 12.491666666666667
            },
            {
              "pitch": 67,
              "velocity": 125,
              "position": 28,
              "duration": 1.4895833333333333
            },
            {
              "pitch": 72,
              "velocity": 127,
              "position": 28,
              "duration": 1.4895833333333333
            }
          ]
        },
        "15": {
          "ctab": {
            "srcChannel": 15,
            "name": "Slide FX",
            "accType": "PHRASE2",
            "editable": false,
            "mutedNotes": [],
            "mutedChords": [],
            "autoStart": false,
            "sourceChordNote": 0,
            "sourceChordType": "Maj",
            "ctb2Low": null,
            "ctb2Main": {
              "ntr": "ROOT_FIXED",
              "ntt": "BYPASS",
              "bassOn": false,
              "chordRootUpperLimit": 3,
              "noteLowLimit": 0,
              "noteHighLimit": 127,
              "rtr": "PITCH_SHIFT"
            },
            "ctb2High": null
          },
          "notes": [
            {
              "pitch": 96,
              "velocity": 80,
              "position": 30.25,
              "duration": 1.7395833333333333
            }
          ]
        }
      }
    },
    "Ending_B": {
      "type": "Ending_B",
      "sizeInBeats": 16,
      "channels": {
        "1": {
          "ctab": {
            "srcChannel": 1,
            "name": "Bass",
            "accType": "BASS",
            "editable": false,
            "mutedNotes": [],
            "mutedChords": [
              "1+2+5",
              "sus4",
              "1+5",
              "1+8",
              "7aug",
              "Maj7aug",
              "7(#9)",
              "7(b13)",
              "7(b9)",
              "7(13)",
              "7#11",
              "7(9)",
              "7b5",
              "7sus4",
              "7th",
              "aug",
              "Maj6(9)",
              "Maj7(9)",
              "Maj(9)",
              "Maj7#11",
              "Maj7",
              "Maj6",
              "Maj"
            ],
            "autoStart": false,
            "sourceChordNote": 0,
            "sourceChordType": "min",
            "ctb2Low": null,
            "ctb2Main": {
              "ntr": "ROOT_TRANSPOSITION",
              "ntt": "BYPASS",
              "bassOn": false,
              "chordRootUpperLimit": 8,
              "noteLowLimit": 28,
              "noteHighLimit": 127,
              "rtr": "PITCH_SHIFT"
            },
            "ctb2High": null
          },
          "notes": [
            {
              "pitch": 24,
              "velocity": 36,
              "position": 0,
              "duration": 0.4895833333333333
            },
            {
              "pitch": 24,
              "velocity": 36,
              "position": 1,
              "duration": 0.4895833333333333
            },
            {
              "pitch": 24,
              "velocity": 36,
              "position": 2,
              "duration": 0.4895833333333333
            },
            {
              "pitch": 24,
              "velocity": 36,
              "position": 2.5,
              "duration": 0.4895833333333333
            },
            {
              "pitch": 26,
              "velocity": 36,
              "position": 3,
              "duration": 0.4895833333333333
            },
            {
              "pitch": 27,
              "velocity": 36,
              "position": 3.5,
              "duration": 0.9895833333333334
            },
            {
              "pitch": 26,
              "velocity": 36,
              "position": 4.5,
              "duration": 0.4895833333333333
            },
            {
              "pitch": 24,
              "velocity": 36,
              "position": 5,
              "duration": 0.4895833333333333
            },
            {
              "pitch": 22,
              "velocity": 36,
              "position": 5.5,
              "duration": 0.9895833333333334
            },
            {
              "pitch": 24,
              "velocity": 36,
              "position": 6.5,
              "duration": 0.4895833333333333
            },
            {
              "pitch": 26,
              "velocity": 36,
              "position": 7,
              "duration": 0.4895833333333333
            },
            {
              "pitch": 24,
              "velocity": 36,
              "position": 7.5,
              "duration": 6.5
            },
            {
              "pitch": 24,
              "velocity": 36,
              "position": 14,
              "duration": 0.4895833333333333
            },
            {
              "pitch": 100,
              "velocity": 127,
              "position": 14,
              "duration": 1.9895833333333333
            }
          ]
        },
        "2": {
          "ctab": {
            "srcChannel": 2,
            "name": "Tele",
            "accType": "CHORD1",
            "editable": false,
            "mutedNotes": [],
            "mutedChords": [
              "1+2+5",
              "sus4",
              "1+5",
              "1+8",
              "7aug",
              "Maj7aug",
              "7(#9)",
              "7(b13)",
              "7(b9)",
              "7(13)",
              "7#11",
              "7(9)",
              "7b5",
              "7sus4",
              "7th",
              "aug",
              "Maj6(9)",
              "Maj7(9)",
              "Maj(9)",
              "Maj7#11",
              "Maj7",
              "Maj6",
              "Maj"
            ],
            "autoStart": false,
            "sourceChordNote": 0,
            "sourceChordType": "min",
            "ctb2Low": null,
            "ctb2Main": {
              "ntr": "ROOT_TRANSPOSITION",
              "ntt": "BYPASS",
              "bassOn": false,
              "chordRootUpperLimit": 8,
              "noteLowLimit": 58,
              "noteHighLimit": 69,
              "rtr": "PITCH_SHIFT"
            },
            "ctb2High": null
          },
          "notes": [
            {
              "pitch": 48,
              "velocity": 21,
              "position": 0,
              "duration": 0.47708333333333336
            },
            {
              "pitch": 55,
              "velocity": 15,
              "position": 0.03125,
              "duration": 0.44583333333333336
            },
            {
              "pitch": 48,
              "velocity": 80,
              "position": 0.48541666666666666,
              "duration": 0.19166666666666668
            },
            {
              "pitch": 55,
              "velocity": 76,
              "position": 0.5166666666666667,
              "duration": 0.19166666666666668
            },
            {
              "pitch": 48,
              "velocity": 86,
              "position": 0.99375,
              "duration": 0.18333333333333332
            },
            {
              "pitch": 55,
              "velocity": 81,
              "position": 1.025,
              "duration": 0.18333333333333332
            },
            {
              "pitch": 48,
              "velocity": 21,
              "position": 1.5145833333333334,
              "duration": 0.4625
            },
            {
              "pitch": 55,
              "velocity": 15,
              "position": 1.5458333333333334,
              "duration": 0.43125
            },
            {
              "pitch": 48,
              "velocity": 30,
              "position": 2.5208333333333335,
              "duration": 0.4583333333333333
            },
            {
              "pitch": 55,
              "velocity": 30,
              "position": 2.5,
              "duration": 0.5
            },
            {
              "pitch": 67,
              "velocity": 25,
              "position": 3.5208333333333335,
              "duration": 0.96875
            },
            {
              "pitch": 63,
              "velocity": 25,
              "position": 3.5416666666666665,
              "duration": 0.96875
            },
            {
              "pitch": 51,
              "velocity": 39,
              "position": 3.4895833333333335,
              "duration": 1.0541666666666667
            },
            {
              "pitch": 63,
              "velocity": 25,
              "position": 4.520833333333333,
              "duration": 0.46875
            },
            {
              "pitch": 67,
              "velocity": 25,
              "position": 4.5,
              "duration": 0.5104166666666666
            },
            {
              "pitch": 50,
              "velocity": 39,
              "position": 4.520833333333333,
              "duration": 0.5104166666666666
            },
            {
              "pitch": 70,
              "velocity": 25,
              "position": 3.5,
              "duration": 1.53125
            },
            {
              "pitch": 63,
              "velocity": 25,
              "position": 5,
              "duration": 0.25
            },
            {
              "pitch": 70,
              "velocity": 25,
              "position": 5.041666666666667,
              "duration": 0.20833333333333334
            },
            {
              "pitch": 67,
              "velocity": 25,
              "position": 5.020833333333333,
              "duration": 0.22916666666666666
            },
            {
              "pitch": 48,
              "velocity": 39,
              "position": 5.010416666666667,
              "duration": 0.5
            },
            {
              "pitch": 65,
              "velocity": 25,
              "position": 5.520833333333333,
              "duration": 0.96875
            },
            {
              "pitch": 62,
              "velocity": 25,
              "position": 5.541666666666667,
              "duration": 0.96875
            },
            {
              "pitch": 46,
              "velocity": 39,
              "position": 5.479166666666667,
              "duration": 1.0541666666666667
            },
            {
              "pitch": 62,
              "velocity": 25,
              "position": 6.520833333333333,
              "duration": 0.46875
            },
            {
              "pitch": 65,
              "velocity": 25,
              "position": 6.5,
              "duration": 0.5104166666666666
            },
            {
              "pitch": 70,
              "velocity": 25,
              "position": 5.5,
              "duration": 1.53125
            },
            {
              "pitch": 48,
              "velocity": 39,
              "position": 6.510416666666667,
              "duration": 0.5270833333333333
            },
            {
              "pitch": 65,
              "velocity": 25,
              "position": 7.020833333333333,
              "duration": 0.22916666666666666
            },
            {
              "pitch": 70,
              "velocity": 25,
              "position": 7.041666666666667,
              "duration": 0.20833333333333334
            },
            {
              "pitch": 62,
              "velocity": 25,
              "position": 7,
              "duration": 0.25
            },
            {
              "pitch": 50,
              "velocity": 39,
              "position": 7.010416666666667,
              "duration": 0.5229166666666667
            },
            {
              "pitch": 48,
              "velocity": 39,
              "position": 7.510416666666667,
              "duration": 4.475
            },
            {
              "pitch": 60,
              "velocity": 25,
              "position": 7.541666666666667,
              "duration": 4.447916666666667
            },
            {
              "pitch": 63,
              "velocity": 25,
              "position": 7.541666666666667,
              "duration": 4.447916666666667
            },
            {
              "pitch": 67,
              "velocity": 25,
              "position": 7.5,
              "duration": 4.510416666666667
            },
            {
              "pitch": 24,
              "velocity": 39,
              "position": 14,
              "duration": 0.46875
            },
            {
              "pitch": 63,
              "velocity": 25,
              "position": 14,
              "duration": 0.46875
            },
            {
              "pitch": 67,
              "velocity": 25,
              "position": 14.020833333333334,
              "duration": 0.46875
            }
          ]
        },
        "3": {
          "ctab": {
            "srcChannel": 3,
            "name": "Solid",
            "accType": "CHORD2",
            "editable": false,
            "mutedNotes": [],
            "mutedChords": [
              "1+2+5",
              "sus4",
              "1+5",
              "1+8",
              "7aug",
              "Maj7aug",
              "7(#9)",
              "7(b13)",
              "7(b9)",
              "7(13)",
              "7#11",
              "7(9)",
              "7b5",
              "7sus4",
              "7th",
              "aug",
              "Maj6(9)",
              "Maj7(9)",
              "Maj(9)",
              "Maj7#11",
              "Maj7",
              "Maj6",
              "Maj"
            ],
            "autoStart": false,
            "sourceChordNote": 0,
            "sourceChordType": "min",
            "ctb2Low": null,
            "ctb2Main": {
              "ntr": "ROOT_TRANSPOSITION",
              "ntt": "BYPASS",
              "bassOn": false,
              "chordRootUpperLimit": 8,
              "noteLowLimit": 58,
              "noteHighLimit": 69,
              "rtr": "PITCH_SHIFT"
            },
            "ctb2High": null
          },
          "notes": [
            {
              "pitch": 48,
              "velocity": 41,
              "position": 0,
              "duration": 0.47708333333333336
            },
            {
              "pitch": 55,
              "velocity": 35,
              "position": 0.03125,
              "duration": 0.44583333333333336
            },
            {
              "pitch": 48,
              "velocity": 80,
              "position": 0.48541666666666666,
              "duration": 0.19166666666666668
            },
            {
              "pitch": 55,
              "velocity": 76,
              "position": 0.5166666666666667,
              "duration": 0.19166666666666668
            },
            {
              "pitch": 48,
              "velocity": 86,
              "position": 0.99375,
              "duration": 0.18333333333333332
            },
            {
              "pitch": 55,
              "velocity": 81,
              "position": 1.025,
              "duration": 0.18333333333333332
            },
            {
              "pitch": 48,
              "velocity": 41,
              "position": 1.5145833333333334,
              "duration": 0.4625
            },
            {
              "pitch": 55,
              "velocity": 35,
              "position": 1.5458333333333334,
              "duration": 0.43125
            },
            {
              "pitch": 48,
              "velocity": 85,
              "position": 1.9854166666666666,
              "duration": 0.24791666666666667
            },
            {
              "pitch": 55,
              "velocity": 80,
              "position": 2.0166666666666666,
              "duration": 0.24791666666666667
            },
            {
              "pitch": 48,
              "velocity": 80,
              "position": 2.5104166666666665,
              "duration": 0.19166666666666668
            },
            {
              "pitch": 55,
              "velocity": 76,
              "position": 2.5416666666666665,
              "duration": 0.19166666666666668
            },
            {
              "pitch": 48,
              "velocity": 84,
              "position": 2.9895833333333335,
              "duration": 0.19583333333333333
            },
            {
              "pitch": 55,
              "velocity": 80,
              "position": 3.0208333333333335,
              "duration": 0.19583333333333333
            },
            {
              "pitch": 63,
              "velocity": 30,
              "position": 3.5,
              "duration": 0.9895833333333334
            },
            {
              "pitch": 67,
              "velocity": 30,
              "position": 3.5208333333333335,
              "duration": 0.96875
            },
            {
              "pitch": 51,
              "velocity": 41,
              "position": 3.5208333333333335,
              "duration": 1.0020833333333334
            },
            {
              "pitch": 70,
              "velocity": 30,
              "position": 3.5416666666666665,
              "duration": 0.9895833333333334
            },
            {
              "pitch": 50,
              "velocity": 41,
              "position": 4.53125,
              "duration": 0.475
            },
            {
              "pitch": 48,
              "velocity": 95,
              "position": 5.020833333333333,
              "duration": 0.45
            },
            {
              "pitch": 65,
              "velocity": 30,
              "position": 5.520833333333333,
              "duration": 0.96875
            },
            {
              "pitch": 62,
              "velocity": 30,
              "position": 5.5,
              "duration": 0.9895833333333334
            },
            {
              "pitch": 46,
              "velocity": 41,
              "position": 5.5,
              "duration": 1.0125
            },
            {
              "pitch": 70,
              "velocity": 30,
              "position": 5.541666666666667,
              "duration": 0.9895833333333334
            },
            {
              "pitch": 48,
              "velocity": 41,
              "position": 6.522916666666666,
              "duration": 0.5
            },
            {
              "pitch": 50,
              "velocity": 95,
              "position": 7.03125,
              "duration": 0.44375
            },
            {
              "pitch": 60,
              "velocity": 30,
              "position": 7.5,
              "duration": 4.489583333333333
            },
            {
              "pitch": 63,
              "velocity": 30,
              "position": 7.520833333333333,
              "duration": 4.46875
            },
            {
              "pitch": 48,
              "velocity": 41,
              "position": 7.510416666666667,
              "duration": 4.479166666666667
            },
            {
              "pitch": 67,
              "velocity": 30,
              "position": 7.541666666666667,
              "duration": 4.489583333333333
            },
            {
              "pitch": 60,
              "velocity": 30,
              "position": 14,
              "duration": 0.7395833333333334
            },
            {
              "pitch": 63,
              "velocity": 30,
              "position": 14.020833333333334,
              "duration": 0.71875
            },
            {
              "pitch": 48,
              "velocity": 41,
              "position": 14.020833333333334,
              "duration": 0.7520833333333333
            },
            {
              "pitch": 67,
              "velocity": 30,
              "position": 14.041666666666666,
              "duration": 0.7395833333333334
            }
          ]
        },
        "4": {
          "ctab": {
            "srcChannel": 4,
            "name": "Organ",
            "accType": "PAD",
            "editable": false,
            "mutedNotes": [],
            "mutedChords": [
              "1+2+5",
              "sus4",
              "1+5",
              "1+8",
              "7aug",
              "Maj7aug",
              "7(#9)",
              "7(b13)",
              "7(b9)",
              "7(13)",
              "7#11",
              "7(9)",
              "7b5",
              "7sus4",
              "7th",
              "aug",
              "Maj6(9)",
              "Maj7(9)",
              "Maj(9)",
              "Maj7#11",
              "Maj7",
              "Maj6",
              "Maj"
            ],
            "autoStart": false,
            "sourceChordNote": 0,
            "sourceChordType": "min",
            "ctb2Low": null,
            "ctb2Main": {
              "ntr": "ROOT_TRANSPOSITION",
              "ntt": "BYPASS",
              "bassOn": false,
              "chordRootUpperLimit": 2,
              "noteLowLimit": 0,
              "noteHighLimit": 79,
              "rtr": "PITCH_SHIFT"
            },
            "ctb2High": null
          },
          "notes": [
            {
              "pitch": 24,
              "velocity": 50,
              "position": 0.020833333333333332,
              "duration": 2.4208333333333334
            },
            {
              "pitch": 31,
              "velocity": 50,
              "position": 0.020833333333333332,
              "duration": 2.4208333333333334
            },
            {
              "pitch": 27,
              "velocity": 50,
              "position": 0.020833333333333332,
              "duration": 2.4208333333333334
            },
            {
              "pitch": 36,
              "velocity": 82,
              "position": 2.45,
              "duration": 0.08333333333333333
            },
            {
              "pitch": 38,
              "velocity": 82,
              "position": 2.4916666666666667,
              "duration": 0.10833333333333334
            },
            {
              "pitch": 40,
              "velocity": 82,
              "position": 2.5520833333333335,
              "duration": 0.10208333333333333
            },
            {
              "pitch": 41,
              "velocity": 82,
              "position": 2.6145833333333335,
              "duration": 0.09375
            },
            {
              "pitch": 43,
              "velocity": 82,
              "position": 2.6666666666666665,
              "duration": 0.08333333333333333
            },
            {
              "pitch": 45,
              "velocity": 82,
              "position": 2.71875,
              "duration": 0.08333333333333333
            },
            {
              "pitch": 47,
              "velocity": 82,
              "position": 2.7708333333333335,
              "duration": 0.08333333333333333
            },
            {
              "pitch": 48,
              "velocity": 82,
              "position": 2.8229166666666665,
              "duration": 0.08541666666666667
            },
            {
              "pitch": 50,
              "velocity": 82,
              "position": 2.875,
              "duration": 0.08541666666666667
            },
            {
              "pitch": 52,
              "velocity": 82,
              "position": 2.9270833333333335,
              "duration": 0.09375
            },
            {
              "pitch": 53,
              "velocity": 82,
              "position": 2.9791666666666665,
              "duration": 0.08958333333333333
            },
            {
              "pitch": 55,
              "velocity": 82,
              "position": 3.033333333333333,
              "duration": 0.09166666666666666
            },
            {
              "pitch": 57,
              "velocity": 82,
              "position": 3.09375,
              "duration": 0.09375
            },
            {
              "pitch": 59,
              "velocity": 82,
              "position": 3.1458333333333335,
              "duration": 0.08541666666666667
            },
            {
              "pitch": 60,
              "velocity": 82,
              "position": 3.1979166666666665,
              "duration": 0.08333333333333333
            },
            {
              "pitch": 62,
              "velocity": 82,
              "position": 3.2416666666666667,
              "duration": 0.07708333333333334
            },
            {
              "pitch": 64,
              "velocity": 82,
              "position": 3.2916666666666665,
              "duration": 0.07291666666666667
            },
            {
              "pitch": 65,
              "velocity": 82,
              "position": 3.3333333333333335,
              "duration": 0.06875
            },
            {
              "pitch": 67,
              "velocity": 82,
              "position": 3.375,
              "duration": 0.07291666666666667
            },
            {
              "pitch": 69,
              "velocity": 82,
              "position": 3.4166666666666665,
              "duration": 0.07291666666666667
            },
            {
              "pitch": 71,
              "velocity": 82,
              "position": 3.4583333333333335,
              "duration": 0.07916666666666666
            },
            {
              "pitch": 82,
              "velocity": 82,
              "position": 3.5,
              "duration": 1.5
            },
            {
              "pitch": 79,
              "velocity": 82,
              "position": 3.5,
              "duration": 1.5
            },
            {
              "pitch": 75,
              "velocity": 82,
              "position": 3.5,
              "duration": 1.5
            },
            {
              "pitch": 74,
              "velocity": 79,
              "position": 5.5,
              "duration": 1.5
            },
            {
              "pitch": 82,
              "velocity": 79,
              "position": 5.5,
              "duration": 1.5
            },
            {
              "pitch": 77,
              "velocity": 79,
              "position": 5.5,
              "duration": 1.5
            },
            {
              "pitch": 75,
              "velocity": 79,
              "position": 7.5,
              "duration": 6.491666666666666
            },
            {
              "pitch": 84,
              "velocity": 79,
              "position": 7.5,
              "duration": 6.491666666666666
            },
            {
              "pitch": 79,
              "velocity": 79,
              "position": 7.5,
              "duration": 6.491666666666666
            },
            {
              "pitch": 75,
              "velocity": 79,
              "position": 14,
              "duration": 0.51875
            },
            {
              "pitch": 79,
              "velocity": 79,
              "position": 14,
              "duration": 0.51875
            },
            {
              "pitch": 84,
              "velocity": 79,
              "position": 14,
              "duration": 0.51875
            },
            {
              "pitch": 71,
              "velocity": 79,
              "position": 14.333333333333334,
              "duration": 0.21875
            },
            {
              "pitch": 69,
              "velocity": 79,
              "position": 14.358333333333333,
              "duration": 0.26458333333333334
            },
            {
              "pitch": 67,
              "velocity": 79,
              "position": 14.529166666666667,
              "duration": 0.15625
            },
            {
              "pitch": 65,
              "velocity": 79,
              "position": 14.602083333333333,
              "duration": 0.14166666666666666
            },
            {
              "pitch": 64,
              "velocity": 79,
              "position": 14.664583333333333,
              "duration": 0.13541666666666666
            },
            {
              "pitch": 62,
              "velocity": 79,
              "position": 14.720833333333333,
              "duration": 0.1375
            },
            {
              "pitch": 60,
              "velocity": 79,
              "position": 14.78125,
              "duration": 0.13125
            },
            {
              "pitch": 59,
              "velocity": 79,
              "position": 14.8375,
              "duration": 0.13125
            },
            {
              "pitch": 57,
              "velocity": 79,
              "position": 14.89375,
              "duration": 0.12708333333333333
            },
            {
              "pitch": 55,
              "velocity": 79,
              "position": 14.945833333333333,
              "duration": 0.125
            },
            {
              "pitch": 53,
              "velocity": 79,
              "position": 14.997916666666667,
              "duration": 0.12291666666666666
            },
            {
              "pitch": 52,
              "velocity": 79,
              "position": 15.05,
              "duration": 0.11875
            },
            {
              "pitch": 50,
              "velocity": 79,
              "position": 15.095833333333333,
              "duration": 0.11875
            },
            {
              "pitch": 48,
              "velocity": 79,
              "position": 15.139583333333333,
              "duration": 0.11875
            },
            {
              "pitch": 47,
              "velocity": 79,
              "position": 15.1875,
              "duration": 0.11458333333333333
            }
          ]
        },
        "9": {
          "ctab": {
            "srcChannel": 9,
            "name": "MainDrum",
            "accType": "RHYTHM",
            "editable": false,
            "mutedNotes": [],
            "mutedChords": [],
            "autoStart": true,
            "sourceChordNote": 0,
            "sourceChordType": "Maj7",
            "ctb2Low": null,
            "ctb2Main": {
              "ntr": "ROOT_FIXED",
              "ntt": "BYPASS",
              "bassOn": false,
              "chordRootUpperLimit": 6,
              "noteLowLimit": 0,
              "noteHighLimit": 127,
              "rtr": "PITCH_SHIFT"
            },
            "ctb2High": null
          },
          "notes": [
            {
              "pitch": 36,
              "velocity": 100,
              "position": 0,
              "duration": 0.004166666666666667
            },
            {
              "pitch": 57,
              "velocity": 100,
              "position": 0,
              "duration": 0.004166666666666667
            },
            {
              "pitch": 46,
              "velocity": 80,
              "position": 0,
              "duration": 0.004166666666666667
            },
            {
              "pitch": 36,
              "velocity": 100,
              "position": 1,
              "duration": 0.004166666666666667
            },
            {
              "pitch": 42,
              "velocity": 120,
              "position": 1,
              "duration": 0.004166666666666667
            },
            {
              "pitch": 38,
              "velocity": 116,
              "position": 1,
              "duration": 0.004166666666666667
            },
            {
              "pitch": 42,
              "velocity": 54,
              "position": 1.5,
              "duration": 0.004166666666666667
            },
            {
              "pitch": 36,
              "velocity": 100,
              "position": 2,
              "duration": 0.004166666666666667
            },
            {
              "pitch": 42,
              "velocity": 120,
              "position": 2,
              "duration": 0.004166666666666667
            },
            {
              "pitch": 36,
              "velocity": 100,
              "position": 2.5,
              "duration": 0.004166666666666667
            },
            {
              "pitch": 42,
              "velocity": 54,
              "position": 2.5,
              "duration": 0.004166666666666667
            },
            {
              "pitch": 38,
              "velocity": 98,
              "position": 3,
              "duration": 0.004166666666666667
            },
            {
              "pitch": 42,
              "velocity": 120,
              "position": 3,
              "duration": 0.004166666666666667
            },
            {
              "pitch": 38,
              "velocity": 122,
              "position": 3.064583333333333,
              "duration": 0.00625
            },
            {
              "pitch": 36,
              "velocity": 100,
              "position": 3.5,
              "duration": 0.004166666666666667
            },
            {
              "pitch": 57,
              "velocity": 94,
              "position": 3.5,
              "duration": 0.004166666666666667
            },
            {
              "pitch": 46,
              "velocity": 80,
              "position": 4,
              "duration": 0.004166666666666667
            },
            {
              "pitch": 38,
              "velocity": 116,
              "position": 4.5,
              "duration": 0.004166666666666667
            },
            {
              "pitch": 38,
              "velocity": 98,
              "position": 5,
              "duration": 0.004166666666666667
            },
            {
              "pitch": 38,
              "velocity": 122,
              "position": 5.064583333333333,
              "duration": 0.00625
            },
            {
              "pitch": 36,
              "velocity": 100,
              "position": 5.5,
              "duration": 0.004166666666666667
            },
            {
              "pitch": 49,
              "velocity": 84,
              "position": 5.5,
              "duration": 0.004166666666666667
            },
            {
              "pitch": 36,
              "velocity": 100,
              "position": 6,
              "duration": 0.004166666666666667
            },
            {
              "pitch": 46,
              "velocity": 80,
              "position": 6,
              "duration": 0.004166666666666667
            },
            {
              "pitch": 38,
              "velocity": 116,
              "position": 6.5,
              "duration": 0.004166666666666667
            },
            {
              "pitch": 43,
              "velocity": 106,
              "position": 6.5,
              "duration": 0.004166666666666667
            },
            {
              "pitch": 38,
              "velocity": 116,
              "position": 7,
              "duration": 0.004166666666666667
            },
            {
              "pitch": 43,
              "velocity": 112,
              "position": 7,
              "duration": 0.004166666666666667
            },
            {
              "pitch": 36,
              "velocity": 100,
              "position": 7.5,
              "duration": 0.004166666666666667
            },
            {
              "pitch": 55,
              "velocity": 80,
              "position": 7.5,
              "duration": 0.004166666666666667
            },
            {
              "pitch": 52,
              "velocity": 90,
              "position": 7.5,
              "duration": 0.004166666666666667
            },
            {
              "pitch": 49,
              "velocity": 25,
              "position": 8.5,
              "duration": 0.004166666666666667
            },
            {
              "pitch": 57,
              "velocity": 18,
              "position": 8.666666666666666,
              "duration": 0.004166666666666667
            },
            {
              "pitch": 49,
              "velocity": 25,
              "position": 8.839583333333334,
              "duration": 0.004166666666666667
            },
            {
              "pitch": 57,
              "velocity": 15,
              "position": 9.004166666666666,
              "duration": 0.004166666666666667
            },
            {
              "pitch": 49,
              "velocity": 25,
              "position": 9.175,
              "duration": 0.004166666666666667
            },
            {
              "pitch": 57,
              "velocity": 18,
              "position": 9.339583333333334,
              "duration": 0.004166666666666667
            },
            {
              "pitch": 49,
              "velocity": 25,
              "position": 9.508333333333333,
              "duration": 0.004166666666666667
            },
            {
              "pitch": 57,
              "velocity": 15,
              "position": 9.670833333333333,
              "duration": 0.004166666666666667
            },
            {
              "pitch": 49,
              "velocity": 26,
              "position": 9.839583333333334,
              "duration": 0.004166666666666667
            },
            {
              "pitch": 57,
              "velocity": 14,
              "position": 10,
              "duration": 0.004166666666666667
            },
            {
              "pitch": 49,
              "velocity": 27,
              "position": 10.166666666666666,
              "duration": 0.004166666666666667
            },
            {
              "pitch": 57,
              "velocity": 19,
              "position": 10.329166666666667,
              "duration": 0.004166666666666667
            },
            {
              "pitch": 49,
              "velocity": 35,
              "position": 10.49375,
              "duration": 0.004166666666666667
            },
            {
              "pitch": 57,
              "velocity": 24,
              "position": 10.672916666666667,
              "duration": 0.004166666666666667
            },
            {
              "pitch": 49,
              "velocity": 37,
              "position": 10.8375,
              "duration": 0.004166666666666667
            },
            {
              "pitch": 57,
              "velocity": 30,
              "position": 10.995833333333334,
              "duration": 0.004166666666666667
            },
            {
              "pitch": 49,
              "velocity": 52,
              "position": 11.158333333333333,
              "duration": 0.004166666666666667
            },
            {
              "pitch": 57,
              "velocity": 41,
              "position": 11.335416666666667,
              "duration": 0.004166666666666667
            },
            {
              "pitch": 49,
              "velocity": 61,
              "position": 11.495833333333334,
              "duration": 0.004166666666666667
            },
            {
              "pitch": 57,
              "velocity": 47,
              "position": 11.670833333333333,
              "duration": 0.004166666666666667
            },
            {
              "pitch": 49,
              "velocity": 68,
              "position": 11.833333333333334,
              "duration": 0.004166666666666667
            },
            {
              "pitch": 57,
              "velocity": 61,
              "position": 12.00625,
              "duration": 0.004166666666666667
            },
            {
              "pitch": 49,
              "velocity": 78,
              "position": 12.166666666666666,
              "duration": 0.004166666666666667
            },
            {
              "pitch": 57,
              "velocity": 69,
              "position": 12.339583333333334,
              "duration": 0.004166666666666667
            },
            {
              "pitch": 49,
              "velocity": 93,
              "position": 12.497916666666667,
              "duration": 0.004166666666666667
            },
            {
              "pitch": 36,
              "velocity": 110,
              "position": 14,
              "duration": 0.004166666666666667
            },
            {
              "pitch": 38,
              "velocity": 102,
              "position": 14,
              "duration": 0.004166666666666667
            },
            {
              "pitch": 38,
              "velocity": 122,
              "position": 14.064583333333333,
              "duration": 0.00625
            }
          ]
        },
        "10": {
          "ctab": {
            "srcChannel": 10,
            "name": "Bass",
            "accType": "BASS",
            "editable": false,
            "mutedNotes": [],
            "mutedChords": [
              "dim7",
              "dim",
              "minMaj7(9)",
              "minMaj7",
              "min7(11)",
              "min7(9)",
              "min(9)",
              "m7b5",
              "min7",
              "min6",
              "min"
            ],
            "autoStart": false,
            "sourceChordNote": 0,
            "sourceChordType": "Maj",
            "ctb2Low": null,
            "ctb2Main": {
              "ntr": "ROOT_TRANSPOSITION",
              "ntt": "BYPASS",
              "bassOn": false,
              "chordRootUpperLimit": 8,
              "noteLowLimit": 28,
              "noteHighLimit": 127,
              "rtr": "PITCH_SHIFT"
            },
            "ctb2High": null
          },
          "notes": [
            {
              "pitch": 24,
              "velocity": 36,
              "position": 0,
              "duration": 0.4895833333333333
            },
            {
              "pitch": 24,
              "velocity": 36,
              "position": 1,
              "duration": 0.4895833333333333
            },
            {
              "pitch": 24,
              "velocity": 36,
              "position": 2,
              "duration": 0.4895833333333333
            },
            {
              "pitch": 19,
              "velocity": 36,
              "position": 2.5,
              "duration": 0.4895833333333333
            },
            {
              "pitch": 24,
              "velocity": 36,
              "position": 3,
              "duration": 0.4895833333333333
            },
            {
              "pitch": 22,
              "velocity": 36,
              "position": 3.5,
              "duration": 0.9895833333333334
            },
            {
              "pitch": 21,
              "velocity": 36,
              "position": 4.5,
              "duration": 0.4895833333333333
            },
            {
              "pitch": 19,
              "velocity": 36,
              "position": 5,
              "duration": 0.4895833333333333
            },
            {
              "pitch": 17,
              "velocity": 36,
              "position": 5.5,
              "duration": 0.9895833333333334
            },
            {
              "pitch": 21,
              "velocity": 36,
              "position": 6.5,
              "duration": 0.4895833333333333
            },
            {
              "pitch": 22,
              "velocity": 36,
              "position": 7,
              "duration": 0.4895833333333333
            },
            {
              "pitch": 24,
              "velocity": 36,
              "position": 7.5,
              "duration": 6.5
            },
            {
              "pitch": 24,
              "velocity": 36,
              "position": 14,
              "duration": 0.4895833333333333
            },
            {
              "pitch": 100,
              "velocity": 127,
              "position": 14,
              "duration": 1.9895833333333333
            }
          ]
        },
        "11": {
          "ctab": {
            "srcChannel": 11,
            "name": "Tele",
            "accType": "CHORD1",
            "editable": false,
            "mutedNotes": [],
            "mutedChords": [
              "dim7",
              "dim",
              "minMaj7(9)",
              "minMaj7",
              "min7(11)",
              "min7(9)",
              "min(9)",
              "m7b5",
              "min7",
              "min6",
              "min"
            ],
            "autoStart": false,
            "sourceChordNote": 0,
            "sourceChordType": "Maj",
            "ctb2Low": null,
            "ctb2Main": {
              "ntr": "ROOT_TRANSPOSITION",
              "ntt": "BYPASS",
              "bassOn": false,
              "chordRootUpperLimit": 8,
              "noteLowLimit": 58,
              "noteHighLimit": 69,
              "rtr": "PITCH_SHIFT"
            },
            "ctb2High": null
          },
          "notes": [
            {
              "pitch": 48,
              "velocity": 21,
              "position": 0,
              "duration": 0.47708333333333336
            },
            {
              "pitch": 55,
              "velocity": 15,
              "position": 0.03125,
              "duration": 0.44583333333333336
            },
            {
              "pitch": 48,
              "velocity": 80,
              "position": 0.48541666666666666,
              "duration": 0.19166666666666668
            },
            {
              "pitch": 55,
              "velocity": 76,
              "position": 0.5166666666666667,
              "duration": 0.19166666666666668
            },
            {
              "pitch": 48,
              "velocity": 86,
              "position": 0.99375,
              "duration": 0.18333333333333332
            },
            {
              "pitch": 55,
              "velocity": 81,
              "position": 1.025,
              "duration": 0.18333333333333332
            },
            {
              "pitch": 48,
              "velocity": 21,
              "position": 1.5145833333333334,
              "duration": 0.4625
            },
            {
              "pitch": 55,
              "velocity": 15,
              "position": 1.5458333333333334,
              "duration": 0.43125
            },
            {
              "pitch": 48,
              "velocity": 30,
              "position": 2.5208333333333335,
              "duration": 0.4583333333333333
            },
            {
              "pitch": 55,
              "velocity": 30,
              "position": 2.5,
              "duration": 0.5
            },
            {
              "pitch": 65,
              "velocity": 25,
              "position": 3.5208333333333335,
              "duration": 0.96875
            },
            {
              "pitch": 62,
              "velocity": 25,
              "position": 3.5416666666666665,
              "duration": 0.96875
            },
            {
              "pitch": 46,
              "velocity": 39,
              "position": 3.4895833333333335,
              "duration": 1.0541666666666667
            },
            {
              "pitch": 62,
              "velocity": 25,
              "position": 4.520833333333333,
              "duration": 0.46875
            },
            {
              "pitch": 65,
              "velocity": 25,
              "position": 4.5,
              "duration": 0.5104166666666666
            },
            {
              "pitch": 45,
              "velocity": 39,
              "position": 4.520833333333333,
              "duration": 0.5104166666666666
            },
            {
              "pitch": 70,
              "velocity": 25,
              "position": 3.5,
              "duration": 1.53125
            },
            {
              "pitch": 62,
              "velocity": 25,
              "position": 5,
              "duration": 0.25
            },
            {
              "pitch": 70,
              "velocity": 25,
              "position": 5.041666666666667,
              "duration": 0.20833333333333334
            },
            {
              "pitch": 65,
              "velocity": 25,
              "position": 5.020833333333333,
              "duration": 0.22916666666666666
            },
            {
              "pitch": 43,
              "velocity": 39,
              "position": 5.010416666666667,
              "duration": 0.5
            },
            {
              "pitch": 65,
              "velocity": 25,
              "position": 5.520833333333333,
              "duration": 0.96875
            },
            {
              "pitch": 60,
              "velocity": 25,
              "position": 5.541666666666667,
              "duration": 0.96875
            },
            {
              "pitch": 41,
              "velocity": 39,
              "position": 5.479166666666667,
              "duration": 1.0541666666666667
            },
            {
              "pitch": 60,
              "velocity": 25,
              "position": 6.520833333333333,
              "duration": 0.46875
            },
            {
              "pitch": 65,
              "velocity": 25,
              "position": 6.5,
              "duration": 0.5104166666666666
            },
            {
              "pitch": 69,
              "velocity": 25,
              "position": 5.5,
              "duration": 1.53125
            },
            {
              "pitch": 45,
              "velocity": 39,
              "position": 6.510416666666667,
              "duration": 0.5270833333333333
            },
            {
              "pitch": 65,
              "velocity": 25,
              "position": 7.020833333333333,
              "duration": 0.22916666666666666
            },
            {
              "pitch": 69,
              "velocity": 25,
              "position": 7.041666666666667,
              "duration": 0.20833333333333334
            },
            {
              "pitch": 60,
              "velocity": 25,
              "position": 7,
              "duration": 0.25
            },
            {
              "pitch": 46,
              "velocity": 39,
              "position": 7.010416666666667,
              "duration": 0.5229166666666667
            },
            {
              "pitch": 48,
              "velocity": 39,
              "position": 7.510416666666667,
              "duration": 4.475
            },
            {
              "pitch": 60,
              "velocity": 25,
              "position": 7.541666666666667,
              "duration": 4.447916666666667
            },
            {
              "pitch": 64,
              "velocity": 25,
              "position": 7.541666666666667,
              "duration": 4.447916666666667
            },
            {
              "pitch": 67,
              "velocity": 25,
              "position": 7.5,
              "duration": 4.510416666666667
            },
            {
              "pitch": 24,
              "velocity": 39,
              "position": 14,
              "duration": 0.46875
            },
            {
              "pitch": 64,
              "velocity": 25,
              "position": 14,
              "duration": 0.46875
            },
            {
              "pitch": 67,
              "velocity": 25,
              "position": 14.020833333333334,
              "duration": 0.46875
            }
          ]
        },
        "12": {
          "ctab": {
            "srcChannel": 12,
            "name": "Solid",
            "accType": "CHORD2",
            "editable": false,
            "mutedNotes": [],
            "mutedChords": [
              "dim7",
              "dim",
              "minMaj7(9)",
              "minMaj7",
              "min7(11)",
              "min7(9)",
              "min(9)",
              "m7b5",
              "min7",
              "min6",
              "min"
            ],
            "autoStart": false,
            "sourceChordNote": 0,
            "sourceChordType": "Maj",
            "ctb2Low": null,
            "ctb2Main": {
              "ntr": "ROOT_TRANSPOSITION",
              "ntt": "BYPASS",
              "bassOn": false,
              "chordRootUpperLimit": 8,
              "noteLowLimit": 58,
              "noteHighLimit": 69,
              "rtr": "PITCH_SHIFT"
            },
            "ctb2High": null
          },
          "notes": [
            {
              "pitch": 48,
              "velocity": 41,
              "position": 0,
              "duration": 0.47708333333333336
            },
            {
              "pitch": 55,
              "velocity": 35,
              "position": 0.03125,
              "duration": 0.44583333333333336
            },
            {
              "pitch": 48,
              "velocity": 80,
              "position": 0.48541666666666666,
              "duration": 0.19166666666666668
            },
            {
              "pitch": 55,
              "velocity": 76,
              "position": 0.5166666666666667,
              "duration": 0.19166666666666668
            },
            {
              "pitch": 48,
              "velocity": 86,
              "position": 0.99375,
              "duration": 0.18333333333333332
            },
            {
              "pitch": 55,
              "velocity": 81,
              "position": 1.025,
              "duration": 0.18333333333333332
            },
            {
              "pitch": 48,
              "velocity": 41,
              "position": 1.5145833333333334,
              "duration": 0.4625
            },
            {
              "pitch": 55,
              "velocity": 35,
              "position": 1.5458333333333334,
              "duration": 0.43125
            },
            {
              "pitch": 48,
              "velocity": 85,
              "position": 1.9854166666666666,
              "duration": 0.24791666666666667
            },
            {
              "pitch": 55,
              "velocity": 80,
              "position": 2.0166666666666666,
              "duration": 0.24791666666666667
            },
            {
              "pitch": 48,
              "velocity": 80,
              "position": 2.5104166666666665,
              "duration": 0.19166666666666668
            },
            {
              "pitch": 55,
              "velocity": 76,
              "position": 2.5416666666666665,
              "duration": 0.19166666666666668
            },
            {
              "pitch": 48,
              "velocity": 84,
              "position": 2.9895833333333335,
              "duration": 0.19583333333333333
            },
            {
              "pitch": 55,
              "velocity": 80,
              "position": 3.0208333333333335,
              "duration": 0.19583333333333333
            },
            {
              "pitch": 62,
              "velocity": 30,
              "position": 3.5,
              "duration": 0.9895833333333334
            },
            {
              "pitch": 65,
              "velocity": 30,
              "position": 3.5208333333333335,
              "duration": 0.96875
            },
            {
              "pitch": 46,
              "velocity": 41,
              "position": 3.5208333333333335,
              "duration": 1.0020833333333334
            },
            {
              "pitch": 70,
              "velocity": 30,
              "position": 3.5416666666666665,
              "duration": 0.9895833333333334
            },
            {
              "pitch": 45,
              "velocity": 41,
              "position": 4.53125,
              "duration": 0.475
            },
            {
              "pitch": 43,
              "velocity": 95,
              "position": 5.020833333333333,
              "duration": 0.45
            },
            {
              "pitch": 65,
              "velocity": 30,
              "position": 5.520833333333333,
              "duration": 0.96875
            },
            {
              "pitch": 60,
              "velocity": 30,
              "position": 5.5,
              "duration": 0.9895833333333334
            },
            {
              "pitch": 41,
              "velocity": 41,
              "position": 5.5,
              "duration": 1.0125
            },
            {
              "pitch": 69,
              "velocity": 30,
              "position": 5.541666666666667,
              "duration": 0.9895833333333334
            },
            {
              "pitch": 45,
              "velocity": 41,
              "position": 6.522916666666666,
              "duration": 0.5
            },
            {
              "pitch": 46,
              "velocity": 95,
              "position": 7.03125,
              "duration": 0.44375
            },
            {
              "pitch": 60,
              "velocity": 30,
              "position": 7.5,
              "duration": 4.489583333333333
            },
            {
              "pitch": 64,
              "velocity": 30,
              "position": 7.520833333333333,
              "duration": 4.46875
            },
            {
              "pitch": 48,
              "velocity": 41,
              "position": 7.510416666666667,
              "duration": 4.479166666666667
            },
            {
              "pitch": 67,
              "velocity": 30,
              "position": 7.541666666666667,
              "duration": 4.489583333333333
            },
            {
              "pitch": 60,
              "velocity": 30,
              "position": 14,
              "duration": 0.7395833333333334
            },
            {
              "pitch": 64,
              "velocity": 30,
              "position": 14.020833333333334,
              "duration": 0.71875
            },
            {
              "pitch": 48,
              "velocity": 41,
              "position": 14.020833333333334,
              "duration": 0.7520833333333333
            },
            {
              "pitch": 67,
              "velocity": 30,
              "position": 14.041666666666666,
              "duration": 0.7395833333333334
            }
          ]
        },
        "13": {
          "ctab": {
            "srcChannel": 13,
            "name": "Organ",
            "accType": "PAD",
            "editable": false,
            "mutedNotes": [],
            "mutedChords": [
              "dim7",
              "dim",
              "minMaj7(9)",
              "minMaj7",
              "min7(11)",
              "min7(9)",
              "min(9)",
              "m7b5",
              "min7",
              "min6",
              "min"
            ],
            "autoStart": false,
            "sourceChordNote": 0,
            "sourceChordType": "Maj",
            "ctb2Low": null,
            "ctb2Main": {
              "ntr": "ROOT_TRANSPOSITION",
              "ntt": "BYPASS",
              "bassOn": false,
              "chordRootUpperLimit": 2,
              "noteLowLimit": 0,
              "noteHighLimit": 79,
              "rtr": "PITCH_SHIFT"
            },
            "ctb2High": null
          },
          "notes": [
            {
              "pitch": 19,
              "velocity": 50,
              "position": 0.020833333333333332,
              "duration": 2.4208333333333334
            },
            {
              "pitch": 28,
              "velocity": 50,
              "position": 0.020833333333333332,
              "duration": 2.4208333333333334
            },
            {
              "pitch": 24,
              "velocity": 50,
              "position": 0.020833333333333332,
              "duration": 2.4208333333333334
            },
            {
              "pitch": 36,
              "velocity": 82,
              "position": 2.45,
              "duration": 0.08333333333333333
            },
            {
              "pitch": 38,
              "velocity": 82,
              "position": 2.4916666666666667,
              "duration": 0.10833333333333334
            },
            {
              "pitch": 40,
              "velocity": 82,
              "position": 2.5520833333333335,
              "duration": 0.10208333333333333
            },
            {
              "pitch": 41,
              "velocity": 82,
              "position": 2.6145833333333335,
              "duration": 0.09375
            },
            {
              "pitch": 43,
              "velocity": 82,
              "position": 2.6666666666666665,
              "duration": 0.08333333333333333
            },
            {
              "pitch": 45,
              "velocity": 82,
              "position": 2.71875,
              "duration": 0.08333333333333333
            },
            {
              "pitch": 47,
              "velocity": 82,
              "position": 2.7708333333333335,
              "duration": 0.08333333333333333
            },
            {
              "pitch": 48,
              "velocity": 82,
              "position": 2.8229166666666665,
              "duration": 0.08541666666666667
            },
            {
              "pitch": 50,
              "velocity": 82,
              "position": 2.875,
              "duration": 0.08541666666666667
            },
            {
              "pitch": 52,
              "velocity": 82,
              "position": 2.9270833333333335,
              "duration": 0.09375
            },
            {
              "pitch": 53,
              "velocity": 82,
              "position": 2.9791666666666665,
              "duration": 0.08958333333333333
            },
            {
              "pitch": 55,
              "velocity": 82,
              "position": 3.033333333333333,
              "duration": 0.09166666666666666
            },
            {
              "pitch": 57,
              "velocity": 82,
              "position": 3.09375,
              "duration": 0.09375
            },
            {
              "pitch": 59,
              "velocity": 82,
              "position": 3.1458333333333335,
              "duration": 0.08541666666666667
            },
            {
              "pitch": 60,
              "velocity": 82,
              "position": 3.1979166666666665,
              "duration": 0.08333333333333333
            },
            {
              "pitch": 62,
              "velocity": 82,
              "position": 3.2416666666666667,
              "duration": 0.07708333333333334
            },
            {
              "pitch": 64,
              "velocity": 82,
              "position": 3.2916666666666665,
              "duration": 0.07291666666666667
            },
            {
              "pitch": 65,
              "velocity": 82,
              "position": 3.3333333333333335,
              "duration": 0.06875
            },
            {
              "pitch": 67,
              "velocity": 82,
              "position": 3.375,
              "duration": 0.07291666666666667
            },
            {
              "pitch": 69,
              "velocity": 82,
              "position": 3.4166666666666665,
              "duration": 0.07291666666666667
            },
            {
              "pitch": 71,
              "velocity": 82,
              "position": 3.4583333333333335,
              "duration": 0.07916666666666666
            },
            {
              "pitch": 82,
              "velocity": 82,
              "position": 3.5,
              "duration": 1.5
            },
            {
              "pitch": 77,
              "velocity": 82,
              "position": 3.5,
              "duration": 1.5
            },
            {
              "pitch": 74,
              "velocity": 82,
              "position": 3.5,
              "duration": 1.5
            },
            {
              "pitch": 77,
              "velocity": 79,
              "position": 5.5,
              "duration": 1.5
            },
            {
              "pitch": 84,
              "velocity": 79,
              "position": 5.5,
              "duration": 1.5
            },
            {
              "pitch": 81,
              "velocity": 79,
              "position": 5.5,
              "duration": 1.5
            },
            {
              "pitch": 76,
              "velocity": 79,
              "position": 7.5,
              "duration": 6.491666666666666
            },
            {
              "pitch": 84,
              "velocity": 79,
              "position": 7.5,
              "duration": 6.491666666666666
            },
            {
              "pitch": 79,
              "velocity": 79,
              "position": 7.5,
              "duration": 6.491666666666666
            },
            {
              "pitch": 76,
              "velocity": 79,
              "position": 14,
              "duration": 0.51875
            },
            {
              "pitch": 79,
              "velocity": 79,
              "position": 14,
              "duration": 0.51875
            },
            {
              "pitch": 84,
              "velocity": 79,
              "position": 14,
              "duration": 0.51875
            },
            {
              "pitch": 71,
              "velocity": 79,
              "position": 14.333333333333334,
              "duration": 0.21875
            },
            {
              "pitch": 69,
              "velocity": 79,
              "position": 14.358333333333333,
              "duration": 0.26458333333333334
            },
            {
              "pitch": 67,
              "velocity": 79,
              "position": 14.529166666666667,
              "duration": 0.15625
            },
            {
              "pitch": 65,
              "velocity": 79,
              "position": 14.602083333333333,
              "duration": 0.14166666666666666
            },
            {
              "pitch": 64,
              "velocity": 79,
              "position": 14.664583333333333,
              "duration": 0.13541666666666666
            },
            {
              "pitch": 62,
              "velocity": 79,
              "position": 14.720833333333333,
              "duration": 0.1375
            },
            {
              "pitch": 60,
              "velocity": 79,
              "position": 14.78125,
              "duration": 0.13125
            },
            {
              "pitch": 59,
              "velocity": 79,
              "position": 14.8375,
              "duration": 0.13125
            },
            {
              "pitch": 57,
              "velocity": 79,
              "position": 14.89375,
              "duration": 0.12708333333333333
            },
            {
              "pitch": 55,
              "velocity": 79,
              "position": 14.945833333333333,
              "duration": 0.125
            },
            {
              "pitch": 53,
              "velocity": 79,
              "position": 14.997916666666667,
              "duration": 0.12291666666666666
            },
            {
              "pitch": 52,
              "velocity": 79,
              "position": 15.05,
              "duration": 0.11875
            },
            {
              "pitch": 50,
              "velocity": 79,
              "position": 15.095833333333333,
              "duration": 0.11875
            },
            {
              "pitch": 48,
              "velocity": 79,
              "position": 15.139583333333333,
              "duration": 0.11875
            },
            {
              "pitch": 47,
              "velocity": 79,
              "position": 15.1875,
              "duration": 0.11458333333333333
            }
          ]
        },
        "14": {
          "ctab": {
            "srcChannel": 14,
            "name": "Solid Ld",
            "accType": "PHRASE1",
            "editable": false,
            "mutedNotes": [],
            "mutedChords": [],
            "autoStart": false,
            "sourceChordNote": 0,
            "sourceChordType": "Maj",
            "ctb2Low": null,
            "ctb2Main": {
              "ntr": "ROOT_TRANSPOSITION",
              "ntt": "MELODIC_MINOR",
              "bassOn": false,
              "chordRootUpperLimit": 11,
              "noteLowLimit": 0,
              "noteHighLimit": 127,
              "rtr": "PITCH_SHIFT"
            },
            "ctb2High": null
          },
          "notes": []
        },
        "15": {
          "ctab": {
            "srcChannel": 15,
            "name": "Slide FX",
            "accType": "PHRASE2",
            "editable": false,
            "mutedNotes": [],
            "mutedChords": [],
            "autoStart": false,
            "sourceChordNote": 0,
            "sourceChordType": "Maj",
            "ctb2Low": null,
            "ctb2Main": {
              "ntr": "ROOT_FIXED",
              "ntt": "BYPASS",
              "bassOn": false,
              "chordRootUpperLimit": 3,
              "noteLowLimit": 0,
              "noteHighLimit": 127,
              "rtr": "PITCH_SHIFT"
            },
            "ctb2High": null
          },
          "notes": [
            {
              "pitch": 96,
              "velocity": 60,
              "position": 12,
              "duration": 1.9895833333333333
            },
            {
              "pitch": 101,
              "velocity": 60,
              "position": 14,
              "duration": 1.9895833333333333
            }
          ]
        }
      }
    },
    "Intro_C": {
      "type": "Intro_C",
      "sizeInBeats": 32,
      "channels": {
        "1": {
          "ctab": {
            "srcChannel": 1,
            "name": "Bass",
            "accType": "BASS",
            "editable": false,
            "mutedNotes": [],
            "mutedChords": [
              "1+2+5",
              "sus4",
              "1+5",
              "1+8",
              "7aug",
              "Maj7aug",
              "7(#9)",
              "7(b13)",
              "7(b9)",
              "7(13)",
              "7#11",
              "7(9)",
              "7b5",
              "7sus4",
              "7th",
              "aug",
              "Maj6(9)",
              "Maj7(9)",
              "Maj(9)",
              "Maj7#11",
              "Maj7",
              "Maj6",
              "Maj"
            ],
            "autoStart": false,
            "sourceChordNote": 0,
            "sourceChordType": "min",
            "ctb2Low": null,
            "ctb2Main": {
              "ntr": "ROOT_TRANSPOSITION",
              "ntt": "BYPASS",
              "bassOn": false,
              "chordRootUpperLimit": 8,
              "noteLowLimit": 28,
              "noteHighLimit": 127,
              "rtr": "PITCH_SHIFT"
            },
            "ctb2High": null
          },
          "notes": [
            {
              "pitch": 24,
              "velocity": 80,
              "position": 0,
              "duration": 0.4375
            },
            {
              "pitch": 24,
              "velocity": 75,
              "position": 0.5,
              "duration": 0.1875
            },
            {
              "pitch": 24,
              "velocity": 72,
              "position": 0.75,
              "duration": 0.1875
            },
            {
              "pitch": 24,
              "velocity": 80,
              "position": 1,
              "duration": 0.4375
            },
            {
              "pitch": 24,
              "velocity": 75,
              "position": 1.5,
              "duration": 0.1875
            },
            {
              "pitch": 24,
              "velocity": 72,
              "position": 1.75,
              "duration": 0.1875
            },
            {
              "pitch": 24,
              "velocity": 80,
              "position": 2,
              "duration": 0.4375
            },
            {
              "pitch": 24,
              "velocity": 75,
              "position": 2.5,
              "duration": 0.1875
            },
            {
              "pitch": 24,
              "velocity": 72,
              "position": 2.75,
              "duration": 0.1875
            },
            {
              "pitch": 24,
              "velocity": 80,
              "position": 3,
              "duration": 0.4375
            },
            {
              "pitch": 24,
              "velocity": 75,
              "position": 3.5,
              "duration": 0.1875
            },
            {
              "pitch": 24,
              "velocity": 72,
              "position": 3.75,
              "duration": 0.1875
            },
            {
              "pitch": 24,
              "velocity": 80,
              "position": 4,
              "duration": 0.4375
            },
            {
              "pitch": 24,
              "velocity": 75,
              "position": 4.5,
              "duration": 0.1875
            },
            {
              "pitch": 24,
              "velocity": 72,
              "position": 4.75,
              "duration": 0.1875
            },
            {
              "pitch": 24,
              "velocity": 80,
              "position": 5,
              "duration": 0.4375
            },
            {
              "pitch": 24,
              "velocity": 75,
              "position": 5.5,
              "duration": 0.1875
            },
            {
              "pitch": 24,
              "velocity": 72,
              "position": 5.75,
              "duration": 0.1875
            },
            {
              "pitch": 24,
              "velocity": 80,
              "position": 6,
              "duration": 0.4375
            },
            {
              "pitch": 24,
              "velocity": 75,
              "position": 6.5,
              "duration": 0.1875
            },
            {
              "pitch": 24,
              "velocity": 72,
              "position": 6.75,
              "duration": 0.1875
            },
            {
              "pitch": 24,
              "velocity": 80,
              "position": 7,
              "duration": 0.4375
            },
            {
              "pitch": 24,
              "velocity": 75,
              "position": 7.5,
              "duration": 0.1875
            },
            {
              "pitch": 24,
              "velocity": 72,
              "position": 7.75,
              "duration": 0.1875
            },
            {
              "pitch": 24,
              "velocity": 80,
              "position": 8,
              "duration": 0.4375
            },
            {
              "pitch": 24,
              "velocity": 75,
              "position": 8.5,
              "duration": 0.1875
            },
            {
              "pitch": 24,
              "velocity": 72,
              "position": 8.75,
              "duration": 0.1875
            },
            {
              "pitch": 24,
              "velocity": 80,
              "position": 9,
              "duration": 0.4375
            },
            {
              "pitch": 24,
              "velocity": 75,
              "position": 9.5,
              "duration": 0.1875
            },
            {
              "pitch": 24,
              "velocity": 72,
              "position": 9.75,
              "duration": 0.1875
            },
            {
              "pitch": 24,
              "velocity": 80,
              "position": 10,
              "duration": 0.4375
            },
            {
              "pitch": 24,
              "velocity": 75,
              "position": 10.5,
              "duration": 0.1875
            },
            {
              "pitch": 24,
              "velocity": 72,
              "position": 10.75,
              "duration": 0.1875
            },
            {
              "pitch": 24,
              "velocity": 80,
              "position": 11,
              "duration": 0.4375
            },
            {
              "pitch": 24,
              "velocity": 75,
              "position": 11.5,
              "duration": 0.1875
            },
            {
              "pitch": 24,
              "velocity": 72,
              "position": 11.75,
              "duration": 0.1875
            },
            {
              "pitch": 24,
              "velocity": 80,
              "position": 12,
              "duration": 0.4375
            },
            {
              "pitch": 24,
              "velocity": 75,
              "position": 12.5,
              "duration": 0.1875
            },
            {
              "pitch": 24,
              "velocity": 72,
              "position": 12.75,
              "duration": 0.1875
            },
            {
              "pitch": 24,
              "velocity": 80,
              "position": 13,
              "duration": 0.4375
            },
            {
              "pitch": 24,
              "velocity": 75,
              "position": 13.5,
              "duration": 0.1875
            },
            {
              "pitch": 24,
              "velocity": 72,
              "position": 13.75,
              "duration": 0.1875
            },
            {
              "pitch": 24,
              "velocity": 80,
              "position": 14,
              "duration": 0.4375
            },
            {
              "pitch": 31,
              "velocity": 40,
              "position": 14.5,
              "duration": 0.4895833333333333
            },
            {
              "pitch": 34,
              "velocity": 40,
              "position": 15,
              "duration": 0.4895833333333333
            },
            {
              "pitch": 36,
              "velocity": 40,
              "position": 15.5,
              "duration": 0.4895833333333333
            },
            {
              "pitch": 24,
              "velocity": 80,
              "position": 16,
              "duration": 0.4375
            },
            {
              "pitch": 24,
              "velocity": 75,
              "position": 16.5,
              "duration": 0.1875
            },
            {
              "pitch": 24,
              "velocity": 72,
              "position": 16.75,
              "duration": 0.1875
            },
            {
              "pitch": 24,
              "velocity": 80,
              "position": 17,
              "duration": 0.4375
            },
            {
              "pitch": 24,
              "velocity": 75,
              "position": 17.5,
              "duration": 0.1875
            },
            {
              "pitch": 24,
              "velocity": 72,
              "position": 17.75,
              "duration": 0.1875
            },
            {
              "pitch": 24,
              "velocity": 80,
              "position": 18,
              "duration": 0.4375
            },
            {
              "pitch": 24,
              "velocity": 75,
              "position": 18.5,
              "duration": 0.1875
            },
            {
              "pitch": 24,
              "velocity": 72,
              "position": 18.75,
              "duration": 0.1875
            },
            {
              "pitch": 24,
              "velocity": 80,
              "position": 19,
              "duration": 0.4375
            },
            {
              "pitch": 24,
              "velocity": 75,
              "position": 19.5,
              "duration": 0.1875
            },
            {
              "pitch": 24,
              "velocity": 72,
              "position": 19.75,
              "duration": 0.1875
            },
            {
              "pitch": 24,
              "velocity": 80,
              "position": 20,
              "duration": 0.4375
            },
            {
              "pitch": 24,
              "velocity": 75,
              "position": 20.5,
              "duration": 0.1875
            },
            {
              "pitch": 24,
              "velocity": 72,
              "position": 20.75,
              "duration": 0.1875
            },
            {
              "pitch": 24,
              "velocity": 80,
              "position": 21,
              "duration": 0.4375
            },
            {
              "pitch": 24,
              "velocity": 75,
              "position": 21.5,
              "duration": 0.1875
            },
            {
              "pitch": 24,
              "velocity": 72,
              "position": 21.75,
              "duration": 0.1875
            },
            {
              "pitch": 24,
              "velocity": 80,
              "position": 22,
              "duration": 0.4375
            },
            {
              "pitch": 24,
              "velocity": 75,
              "position": 22.5,
              "duration": 0.1875
            },
            {
              "pitch": 24,
              "velocity": 72,
              "position": 22.75,
              "duration": 0.1875
            },
            {
              "pitch": 24,
              "velocity": 80,
              "position": 23,
              "duration": 0.4375
            },
            {
              "pitch": 24,
              "velocity": 75,
              "position": 23.5,
              "duration": 0.1875
            },
            {
              "pitch": 24,
              "velocity": 72,
              "position": 23.75,
              "duration": 0.1875
            },
            {
              "pitch": 24,
              "velocity": 80,
              "position": 24,
              "duration": 0.4375
            },
            {
              "pitch": 24,
              "velocity": 75,
              "position": 24.5,
              "duration": 0.1875
            },
            {
              "pitch": 24,
              "velocity": 72,
              "position": 24.75,
              "duration": 0.1875
            },
            {
              "pitch": 24,
              "velocity": 80,
              "position": 25,
              "duration": 0.4375
            },
            {
              "pitch": 24,
              "velocity": 75,
              "position": 25.5,
              "duration": 0.1875
            },
            {
              "pitch": 24,
              "velocity": 72,
              "position": 25.75,
              "duration": 0.1875
            },
            {
              "pitch": 24,
              "velocity": 80,
              "position": 26,
              "duration": 0.4375
            },
            {
              "pitch": 24,
              "velocity": 75,
              "position": 26.5,
              "duration": 0.1875
            },
            {
              "pitch": 24,
              "velocity": 72,
              "position": 26.75,
              "duration": 0.1875
            },
            {
              "pitch": 24,
              "velocity": 80,
              "position": 27,
              "duration": 0.4375
            },
            {
              "pitch": 24,
              "velocity": 75,
              "position": 27.5,
              "duration": 0.1875
            },
            {
              "pitch": 24,
              "velocity": 72,
              "position": 27.75,
              "duration": 0.1875
            },
            {
              "pitch": 24,
              "velocity": 80,
              "position": 28,
              "duration": 0.4375
            },
            {
              "pitch": 34,
              "velocity": 40,
              "position": 28.5,
              "duration": 0.4895833333333333
            },
            {
              "pitch": 29,
              "velocity": 40,
              "position": 29.5,
              "duration": 2.4895833333333335
            }
          ]
        },
        "2": {
          "ctab": {
            "srcChannel": 2,
            "name": "Tele",
            "accType": "CHORD1",
            "editable": false,
            "mutedNotes": [],
            "mutedChords": [
              "1+2+5",
              "sus4",
              "1+5",
              "1+8",
              "7aug",
              "Maj7aug",
              "7(#9)",
              "7(b13)",
              "7(b9)",
              "7(13)",
              "7#11",
              "7(9)",
              "7b5",
              "7sus4",
              "7th",
              "aug",
              "Maj6(9)",
              "Maj7(9)",
              "Maj(9)",
              "Maj7#11",
              "Maj7",
              "Maj6",
              "Maj"
            ],
            "autoStart": false,
            "sourceChordNote": 0,
            "sourceChordType": "min",
            "ctb2Low": null,
            "ctb2Main": {
              "ntr": "ROOT_TRANSPOSITION",
              "ntt": "BYPASS",
              "bassOn": false,
              "chordRootUpperLimit": 3,
              "noteLowLimit": 40,
              "noteHighLimit": 69,
              "rtr": "PITCH_SHIFT"
            },
            "ctb2High": null
          },
          "notes": [
            {
              "pitch": 79,
              "velocity": 25,
              "position": 0.020833333333333332,
              "duration": 0.45625
            },
            {
              "pitch": 75,
              "velocity": 25,
              "position": 0.020833333333333332,
              "duration": 0.45625
            },
            {
              "pitch": 72,
              "velocity": 25,
              "position": 0.020833333333333332,
              "duration": 0.45625
            },
            {
              "pitch": 24,
              "velocity": 39,
              "position": 0,
              "duration": 0.47708333333333336
            },
            {
              "pitch": 24,
              "velocity": 80,
              "position": 0.48541666666666666,
              "duration": 0.19166666666666668
            },
            {
              "pitch": 24,
              "velocity": 86,
              "position": 0.99375,
              "duration": 0.18333333333333332
            },
            {
              "pitch": 79,
              "velocity": 25,
              "position": 1.5208333333333333,
              "duration": 1.4604166666666667
            },
            {
              "pitch": 75,
              "velocity": 25,
              "position": 1.5208333333333333,
              "duration": 1.4604166666666667
            },
            {
              "pitch": 72,
              "velocity": 25,
              "position": 1.5208333333333333,
              "duration": 1.4604166666666667
            },
            {
              "pitch": 24,
              "velocity": 39,
              "position": 1.5,
              "duration": 1.48125
            },
            {
              "pitch": 24,
              "velocity": 84,
              "position": 2.9895833333333335,
              "duration": 0.19583333333333333
            },
            {
              "pitch": 24,
              "velocity": 81,
              "position": 3.5125,
              "duration": 0.23958333333333334
            },
            {
              "pitch": 75,
              "velocity": 25,
              "position": 4.020833333333333,
              "duration": 0.45208333333333334
            },
            {
              "pitch": 72,
              "velocity": 25,
              "position": 4.020833333333333,
              "duration": 0.45208333333333334
            },
            {
              "pitch": 24,
              "velocity": 39,
              "position": 4,
              "duration": 0.47291666666666665
            },
            {
              "pitch": 24,
              "velocity": 83,
              "position": 4.48125,
              "duration": 0.22916666666666666
            },
            {
              "pitch": 24,
              "velocity": 84,
              "position": 5.008333333333334,
              "duration": 0.21666666666666667
            },
            {
              "pitch": 75,
              "velocity": 25,
              "position": 5.520833333333333,
              "duration": 0.9708333333333333
            },
            {
              "pitch": 72,
              "velocity": 25,
              "position": 5.520833333333333,
              "duration": 0.9708333333333333
            },
            {
              "pitch": 75,
              "velocity": 16,
              "position": 6.520833333333333,
              "duration": 0.4625
            },
            {
              "pitch": 72,
              "velocity": 16,
              "position": 6.520833333333333,
              "duration": 0.4625
            },
            {
              "pitch": 24,
              "velocity": 39,
              "position": 5.5,
              "duration": 1.4833333333333334
            },
            {
              "pitch": 24,
              "velocity": 88,
              "position": 6.991666666666666,
              "duration": 0.17083333333333334
            },
            {
              "pitch": 24,
              "velocity": 80,
              "position": 7.5125,
              "duration": 0.18541666666666667
            },
            {
              "pitch": 77,
              "velocity": 25,
              "position": 8.020833333333334,
              "duration": 0.4708333333333333
            },
            {
              "pitch": 72,
              "velocity": 25,
              "position": 8.020833333333334,
              "duration": 0.4708333333333333
            },
            {
              "pitch": 24,
              "velocity": 39,
              "position": 8,
              "duration": 0.49166666666666664
            },
            {
              "pitch": 24,
              "velocity": 81,
              "position": 8.5,
              "duration": 0.24375
            },
            {
              "pitch": 24,
              "velocity": 86,
              "position": 8.9875,
              "duration": 0.18541666666666667
            },
            {
              "pitch": 77,
              "velocity": 25,
              "position": 9.520833333333334,
              "duration": 1.4541666666666666
            },
            {
              "pitch": 72,
              "velocity": 25,
              "position": 9.520833333333334,
              "duration": 1.4541666666666666
            },
            {
              "pitch": 24,
              "velocity": 39,
              "position": 9.5,
              "duration": 1.475
            },
            {
              "pitch": 24,
              "velocity": 88,
              "position": 10.983333333333333,
              "duration": 0.23333333333333334
            },
            {
              "pitch": 24,
              "velocity": 81,
              "position": 11.483333333333333,
              "duration": 0.23125
            },
            {
              "pitch": 75,
              "velocity": 25,
              "position": 12.020833333333334,
              "duration": 0.4708333333333333
            },
            {
              "pitch": 72,
              "velocity": 25,
              "position": 12.020833333333334,
              "duration": 0.4708333333333333
            },
            {
              "pitch": 24,
              "velocity": 39,
              "position": 12,
              "duration": 0.49166666666666664
            },
            {
              "pitch": 24,
              "velocity": 83,
              "position": 12.508333333333333,
              "duration": 0.21041666666666667
            },
            {
              "pitch": 24,
              "velocity": 86,
              "position": 12.983333333333333,
              "duration": 0.22916666666666666
            },
            {
              "pitch": 77,
              "velocity": 25,
              "position": 13.520833333333334,
              "duration": 0.9708333333333333
            },
            {
              "pitch": 74,
              "velocity": 25,
              "position": 13.520833333333334,
              "duration": 0.9708333333333333
            },
            {
              "pitch": 70,
              "velocity": 25,
              "position": 13.520833333333334,
              "duration": 0.9708333333333333
            },
            {
              "pitch": 24,
              "velocity": 39,
              "position": 13.5,
              "duration": 0.9916666666666667
            },
            {
              "pitch": 43,
              "velocity": 120,
              "position": 14.5,
              "duration": 0.49166666666666664
            },
            {
              "pitch": 46,
              "velocity": 39,
              "position": 15,
              "duration": 0.49166666666666664
            },
            {
              "pitch": 48,
              "velocity": 40,
              "position": 15.5,
              "duration": 0.4895833333333333
            },
            {
              "pitch": 79,
              "velocity": 25,
              "position": 16.020833333333332,
              "duration": 0.45625
            },
            {
              "pitch": 75,
              "velocity": 25,
              "position": 16.020833333333332,
              "duration": 0.45625
            },
            {
              "pitch": 72,
              "velocity": 25,
              "position": 16.020833333333332,
              "duration": 0.45625
            },
            {
              "pitch": 24,
              "velocity": 39,
              "position": 16,
              "duration": 0.47708333333333336
            },
            {
              "pitch": 24,
              "velocity": 80,
              "position": 16.485416666666666,
              "duration": 0.19166666666666668
            },
            {
              "pitch": 24,
              "velocity": 86,
              "position": 16.99375,
              "duration": 0.18333333333333332
            },
            {
              "pitch": 79,
              "velocity": 25,
              "position": 17.520833333333332,
              "duration": 1.4604166666666667
            },
            {
              "pitch": 75,
              "velocity": 25,
              "position": 17.520833333333332,
              "duration": 1.4604166666666667
            },
            {
              "pitch": 72,
              "velocity": 25,
              "position": 17.520833333333332,
              "duration": 1.4604166666666667
            },
            {
              "pitch": 24,
              "velocity": 39,
              "position": 17.5,
              "duration": 1.48125
            },
            {
              "pitch": 24,
              "velocity": 84,
              "position": 18.989583333333332,
              "duration": 0.19583333333333333
            },
            {
              "pitch": 24,
              "velocity": 81,
              "position": 19.5125,
              "duration": 0.23958333333333334
            },
            {
              "pitch": 75,
              "velocity": 25,
              "position": 20.020833333333332,
              "duration": 0.45208333333333334
            },
            {
              "pitch": 72,
              "velocity": 25,
              "position": 20.020833333333332,
              "duration": 0.45208333333333334
            },
            {
              "pitch": 24,
              "velocity": 39,
              "position": 20,
              "duration": 0.47291666666666665
            },
            {
              "pitch": 24,
              "velocity": 83,
              "position": 20.48125,
              "duration": 0.22916666666666666
            },
            {
              "pitch": 24,
              "velocity": 84,
              "position": 21.008333333333333,
              "duration": 0.21666666666666667
            },
            {
              "pitch": 75,
              "velocity": 25,
              "position": 21.520833333333332,
              "duration": 0.9708333333333333
            },
            {
              "pitch": 72,
              "velocity": 25,
              "position": 21.520833333333332,
              "duration": 0.9708333333333333
            },
            {
              "pitch": 75,
              "velocity": 16,
              "position": 22.520833333333332,
              "duration": 0.4625
            },
            {
              "pitch": 72,
              "velocity": 16,
              "position": 22.520833333333332,
              "duration": 0.4625
            },
            {
              "pitch": 24,
              "velocity": 39,
              "position": 21.5,
              "duration": 1.4833333333333334
            },
            {
              "pitch": 24,
              "velocity": 88,
              "position": 22.991666666666667,
              "duration": 0.17083333333333334
            },
            {
              "pitch": 24,
              "velocity": 80,
              "position": 23.5125,
              "duration": 0.18541666666666667
            },
            {
              "pitch": 77,
              "velocity": 25,
              "position": 24.020833333333332,
              "duration": 0.4708333333333333
            },
            {
              "pitch": 72,
              "velocity": 25,
              "position": 24.020833333333332,
              "duration": 0.4708333333333333
            },
            {
              "pitch": 24,
              "velocity": 39,
              "position": 24,
              "duration": 0.49166666666666664
            },
            {
              "pitch": 24,
              "velocity": 81,
              "position": 24.5,
              "duration": 0.24375
            },
            {
              "pitch": 24,
              "velocity": 86,
              "position": 24.9875,
              "duration": 0.18541666666666667
            },
            {
              "pitch": 77,
              "velocity": 25,
              "position": 25.520833333333332,
              "duration": 1.4541666666666666
            },
            {
              "pitch": 72,
              "velocity": 25,
              "position": 25.520833333333332,
              "duration": 1.4541666666666666
            },
            {
              "pitch": 24,
              "velocity": 39,
              "position": 25.5,
              "duration": 1.475
            },
            {
              "pitch": 24,
              "velocity": 88,
              "position": 26.983333333333334,
              "duration": 0.23333333333333334
            },
            {
              "pitch": 24,
              "velocity": 81,
              "position": 27.483333333333334,
              "duration": 0.23125
            },
            {
              "pitch": 24,
              "velocity": 88,
              "position": 27.983333333333334,
              "duration": 0.23333333333333334
            },
            {
              "pitch": 77,
              "velocity": 25,
              "position": 28.520833333333332,
              "duration": 0.4708333333333333
            },
            {
              "pitch": 74,
              "velocity": 25,
              "position": 28.520833333333332,
              "duration": 0.4708333333333333
            },
            {
              "pitch": 70,
              "velocity": 25,
              "position": 28.520833333333332,
              "duration": 0.4708333333333333
            },
            {
              "pitch": 34,
              "velocity": 39,
              "position": 28.5,
              "duration": 0.49166666666666664
            },
            {
              "pitch": 77,
              "velocity": 25,
              "position": 29.520833333333332,
              "duration": 1.9708333333333334
            },
            {
              "pitch": 72,
              "velocity": 25,
              "position": 29.520833333333332,
              "duration": 1.9708333333333334
            },
            {
              "pitch": 29,
              "velocity": 39,
              "position": 29.5,
              "duration": 2.2395833333333335
            }
          ]
        },
        "3": {
          "ctab": {
            "srcChannel": 3,
            "name": "Solid",
            "accType": "CHORD2",
            "editable": false,
            "mutedNotes": [],
            "mutedChords": [
              "1+2+5",
              "sus4",
              "1+5",
              "1+8",
              "7aug",
              "Maj7aug",
              "7(#9)",
              "7(b13)",
              "7(b9)",
              "7(13)",
              "7#11",
              "7(9)",
              "7b5",
              "7sus4",
              "7th",
              "aug",
              "Maj6(9)",
              "Maj7(9)",
              "Maj(9)",
              "Maj7#11",
              "Maj7",
              "Maj6",
              "Maj"
            ],
            "autoStart": false,
            "sourceChordNote": 0,
            "sourceChordType": "min",
            "ctb2Low": null,
            "ctb2Main": {
              "ntr": "ROOT_TRANSPOSITION",
              "ntt": "BYPASS",
              "bassOn": false,
              "chordRootUpperLimit": 3,
              "noteLowLimit": 40,
              "noteHighLimit": 69,
              "rtr": "PITCH_SHIFT"
            },
            "ctb2High": null
          },
          "notes": [
            {
              "pitch": 75,
              "velocity": 30,
              "position": 0,
              "duration": 0.45625
            },
            {
              "pitch": 79,
              "velocity": 30,
              "position": 0.010416666666666666,
              "duration": 0.45625
            },
            {
              "pitch": 72,
              "velocity": 30,
              "position": 0.020833333333333332,
              "duration": 0.45625
            },
            {
              "pitch": 24,
              "velocity": 41,
              "position": 0,
              "duration": 0.47708333333333336
            },
            {
              "pitch": 24,
              "velocity": 80,
              "position": 0.48541666666666666,
              "duration": 0.19166666666666668
            },
            {
              "pitch": 24,
              "velocity": 86,
              "position": 0.99375,
              "duration": 0.18333333333333332
            },
            {
              "pitch": 75,
              "velocity": 30,
              "position": 1.5,
              "duration": 1.4604166666666667
            },
            {
              "pitch": 79,
              "velocity": 30,
              "position": 1.5104166666666667,
              "duration": 1.4604166666666667
            },
            {
              "pitch": 72,
              "velocity": 30,
              "position": 1.5208333333333333,
              "duration": 1.4604166666666667
            },
            {
              "pitch": 24,
              "velocity": 41,
              "position": 1.5,
              "duration": 1.48125
            },
            {
              "pitch": 24,
              "velocity": 84,
              "position": 2.9895833333333335,
              "duration": 0.19583333333333333
            },
            {
              "pitch": 24,
              "velocity": 81,
              "position": 3.5125,
              "duration": 0.23958333333333334
            },
            {
              "pitch": 72,
              "velocity": 30,
              "position": 4.010416666666667,
              "duration": 0.45208333333333334
            },
            {
              "pitch": 75,
              "velocity": 30,
              "position": 4.020833333333333,
              "duration": 0.45208333333333334
            },
            {
              "pitch": 24,
              "velocity": 41,
              "position": 4,
              "duration": 0.47291666666666665
            },
            {
              "pitch": 24,
              "velocity": 83,
              "position": 4.48125,
              "duration": 0.22916666666666666
            },
            {
              "pitch": 24,
              "velocity": 84,
              "position": 5.008333333333334,
              "duration": 0.21666666666666667
            },
            {
              "pitch": 72,
              "velocity": 30,
              "position": 5.510416666666667,
              "duration": 0.9708333333333333
            },
            {
              "pitch": 75,
              "velocity": 30,
              "position": 5.520833333333333,
              "duration": 0.9708333333333333
            },
            {
              "pitch": 72,
              "velocity": 21,
              "position": 6.510416666666667,
              "duration": 0.4625
            },
            {
              "pitch": 75,
              "velocity": 21,
              "position": 6.520833333333333,
              "duration": 0.4625
            },
            {
              "pitch": 24,
              "velocity": 41,
              "position": 5.5,
              "duration": 1.4833333333333334
            },
            {
              "pitch": 24,
              "velocity": 88,
              "position": 6.991666666666666,
              "duration": 0.17083333333333334
            },
            {
              "pitch": 24,
              "velocity": 80,
              "position": 7.5125,
              "duration": 0.18541666666666667
            },
            {
              "pitch": 77,
              "velocity": 30,
              "position": 8,
              "duration": 0.4708333333333333
            },
            {
              "pitch": 72,
              "velocity": 30,
              "position": 8.020833333333334,
              "duration": 0.4708333333333333
            },
            {
              "pitch": 24,
              "velocity": 41,
              "position": 8,
              "duration": 0.49166666666666664
            },
            {
              "pitch": 24,
              "velocity": 81,
              "position": 8.5,
              "duration": 0.24375
            },
            {
              "pitch": 24,
              "velocity": 86,
              "position": 8.9875,
              "duration": 0.18541666666666667
            },
            {
              "pitch": 77,
              "velocity": 30,
              "position": 9.5,
              "duration": 1.4541666666666666
            },
            {
              "pitch": 72,
              "velocity": 30,
              "position": 9.520833333333334,
              "duration": 1.4541666666666666
            },
            {
              "pitch": 24,
              "velocity": 41,
              "position": 9.5,
              "duration": 1.475
            },
            {
              "pitch": 24,
              "velocity": 88,
              "position": 10.983333333333333,
              "duration": 0.23333333333333334
            },
            {
              "pitch": 24,
              "velocity": 81,
              "position": 11.483333333333333,
              "duration": 0.23125
            },
            {
              "pitch": 75,
              "velocity": 30,
              "position": 12,
              "duration": 0.4708333333333333
            },
            {
              "pitch": 72,
              "velocity": 30,
              "position": 12.020833333333334,
              "duration": 0.4708333333333333
            },
            {
              "pitch": 24,
              "velocity": 41,
              "position": 12,
              "duration": 0.49166666666666664
            },
            {
              "pitch": 24,
              "velocity": 83,
              "position": 12.508333333333333,
              "duration": 0.21041666666666667
            },
            {
              "pitch": 24,
              "velocity": 86,
              "position": 12.983333333333333,
              "duration": 0.22916666666666666
            },
            {
              "pitch": 74,
              "velocity": 30,
              "position": 13.520833333333334,
              "duration": 0.9708333333333333
            },
            {
              "pitch": 70,
              "velocity": 30,
              "position": 13.510416666666666,
              "duration": 0.98125
            },
            {
              "pitch": 24,
              "velocity": 41,
              "position": 13.5,
              "duration": 0.9916666666666667
            },
            {
              "pitch": 77,
              "velocity": 30,
              "position": 13.5,
              "duration": 0.9916666666666667
            },
            {
              "pitch": 43,
              "velocity": 120,
              "position": 14.5,
              "duration": 0.49166666666666664
            },
            {
              "pitch": 46,
              "velocity": 50,
              "position": 15,
              "duration": 0.49166666666666664
            },
            {
              "pitch": 48,
              "velocity": 40,
              "position": 15.5,
              "duration": 0.4895833333333333
            },
            {
              "pitch": 75,
              "velocity": 30,
              "position": 16,
              "duration": 0.45625
            },
            {
              "pitch": 79,
              "velocity": 30,
              "position": 16.010416666666668,
              "duration": 0.45625
            },
            {
              "pitch": 72,
              "velocity": 30,
              "position": 16.020833333333332,
              "duration": 0.45625
            },
            {
              "pitch": 24,
              "velocity": 41,
              "position": 16,
              "duration": 0.47708333333333336
            },
            {
              "pitch": 24,
              "velocity": 80,
              "position": 16.485416666666666,
              "duration": 0.19166666666666668
            },
            {
              "pitch": 24,
              "velocity": 86,
              "position": 16.99375,
              "duration": 0.18333333333333332
            },
            {
              "pitch": 75,
              "velocity": 30,
              "position": 17.5,
              "duration": 1.4604166666666667
            },
            {
              "pitch": 79,
              "velocity": 30,
              "position": 17.510416666666668,
              "duration": 1.4604166666666667
            },
            {
              "pitch": 72,
              "velocity": 30,
              "position": 17.520833333333332,
              "duration": 1.4604166666666667
            },
            {
              "pitch": 24,
              "velocity": 41,
              "position": 17.5,
              "duration": 1.48125
            },
            {
              "pitch": 24,
              "velocity": 84,
              "position": 18.989583333333332,
              "duration": 0.19583333333333333
            },
            {
              "pitch": 24,
              "velocity": 81,
              "position": 19.5125,
              "duration": 0.23958333333333334
            },
            {
              "pitch": 72,
              "velocity": 30,
              "position": 20.010416666666668,
              "duration": 0.45208333333333334
            },
            {
              "pitch": 75,
              "velocity": 30,
              "position": 20.020833333333332,
              "duration": 0.45208333333333334
            },
            {
              "pitch": 24,
              "velocity": 41,
              "position": 20,
              "duration": 0.47291666666666665
            },
            {
              "pitch": 24,
              "velocity": 83,
              "position": 20.48125,
              "duration": 0.22916666666666666
            },
            {
              "pitch": 24,
              "velocity": 84,
              "position": 21.008333333333333,
              "duration": 0.21666666666666667
            },
            {
              "pitch": 72,
              "velocity": 30,
              "position": 21.510416666666668,
              "duration": 0.9708333333333333
            },
            {
              "pitch": 75,
              "velocity": 30,
              "position": 21.520833333333332,
              "duration": 0.9708333333333333
            },
            {
              "pitch": 72,
              "velocity": 21,
              "position": 22.510416666666668,
              "duration": 0.4625
            },
            {
              "pitch": 75,
              "velocity": 21,
              "position": 22.520833333333332,
              "duration": 0.4625
            },
            {
              "pitch": 24,
              "velocity": 41,
              "position": 21.5,
              "duration": 1.4833333333333334
            },
            {
              "pitch": 24,
              "velocity": 88,
              "position": 22.991666666666667,
              "duration": 0.17083333333333334
            },
            {
              "pitch": 24,
              "velocity": 80,
              "position": 23.5125,
              "duration": 0.18541666666666667
            },
            {
              "pitch": 77,
              "velocity": 30,
              "position": 24,
              "duration": 0.4708333333333333
            },
            {
              "pitch": 72,
              "velocity": 30,
              "position": 24.020833333333332,
              "duration": 0.4708333333333333
            },
            {
              "pitch": 24,
              "velocity": 41,
              "position": 24,
              "duration": 0.49166666666666664
            },
            {
              "pitch": 24,
              "velocity": 81,
              "position": 24.5,
              "duration": 0.24375
            },
            {
              "pitch": 24,
              "velocity": 86,
              "position": 24.9875,
              "duration": 0.18541666666666667
            },
            {
              "pitch": 77,
              "velocity": 30,
              "position": 25.5,
              "duration": 1.4541666666666666
            },
            {
              "pitch": 72,
              "velocity": 30,
              "position": 25.520833333333332,
              "duration": 1.4541666666666666
            },
            {
              "pitch": 24,
              "velocity": 41,
              "position": 25.5,
              "duration": 1.475
            },
            {
              "pitch": 24,
              "velocity": 88,
              "position": 26.983333333333334,
              "duration": 0.23333333333333334
            },
            {
              "pitch": 24,
              "velocity": 81,
              "position": 27.483333333333334,
              "duration": 0.23125
            },
            {
              "pitch": 24,
              "velocity": 88,
              "position": 27.983333333333334,
              "duration": 0.23333333333333334
            },
            {
              "pitch": 77,
              "velocity": 30,
              "position": 28.5,
              "duration": 0.4708333333333333
            },
            {
              "pitch": 70,
              "velocity": 30,
              "position": 28.510416666666668,
              "duration": 0.4708333333333333
            },
            {
              "pitch": 74,
              "velocity": 30,
              "position": 28.520833333333332,
              "duration": 0.4708333333333333
            },
            {
              "pitch": 34,
              "velocity": 41,
              "position": 28.5,
              "duration": 0.49166666666666664
            },
            {
              "pitch": 77,
              "velocity": 30,
              "position": 29.5,
              "duration": 1.9708333333333334
            },
            {
              "pitch": 72,
              "velocity": 30,
              "position": 29.520833333333332,
              "duration": 1.9708333333333334
            },
            {
              "pitch": 29,
              "velocity": 41,
              "position": 29.5,
              "duration": 2.2395833333333335
            }
          ]
        },
        "4": {
          "ctab": {
            "srcChannel": 4,
            "name": "Organ",
            "accType": "PAD",
            "editable": false,
            "mutedNotes": [],
            "mutedChords": [
              "1+2+5",
              "sus4",
              "1+5",
              "1+8",
              "7aug",
              "Maj7aug",
              "7(#9)",
              "7(b13)",
              "7(b9)",
              "7(13)",
              "7#11",
              "7(9)",
              "7b5",
              "7sus4",
              "7th",
              "aug",
              "Maj6(9)",
              "Maj7(9)",
              "Maj(9)",
              "Maj7#11",
              "Maj7",
              "Maj6",
              "Maj"
            ],
            "autoStart": false,
            "sourceChordNote": 0,
            "sourceChordType": "min",
            "ctb2Low": null,
            "ctb2Main": {
              "ntr": "ROOT_TRANSPOSITION",
              "ntt": "BYPASS",
              "bassOn": false,
              "chordRootUpperLimit": 7,
              "noteLowLimit": 60,
              "noteHighLimit": 71,
              "rtr": "PITCH_SHIFT"
            },
            "ctb2High": null
          },
          "notes": [
            {
              "pitch": 43,
              "velocity": 90,
              "position": 0,
              "duration": 3.9895833333333335
            },
            {
              "pitch": 48,
              "velocity": 90,
              "position": 0,
              "duration": 7.989583333333333
            },
            {
              "pitch": 44,
              "velocity": 90,
              "position": 4,
              "duration": 3.9895833333333335
            },
            {
              "pitch": 51,
              "velocity": 90,
              "position": 0,
              "duration": 7.989583333333333
            },
            {
              "pitch": 45,
              "velocity": 90,
              "position": 8,
              "duration": 3.9895833333333335
            },
            {
              "pitch": 53,
              "velocity": 90,
              "position": 8,
              "duration": 3.9895833333333335
            },
            {
              "pitch": 48,
              "velocity": 90,
              "position": 8,
              "duration": 5.489583333333333
            },
            {
              "pitch": 51,
              "velocity": 90,
              "position": 12,
              "duration": 1.4895833333333333
            },
            {
              "pitch": 44,
              "velocity": 90,
              "position": 12,
              "duration": 1.4895833333333333
            },
            {
              "pitch": 84,
              "velocity": 70,
              "position": 0,
              "duration": 15.989583333333334
            },
            {
              "pitch": 53,
              "velocity": 90,
              "position": 13.5,
              "duration": 2.4895833333333335
            },
            {
              "pitch": 50,
              "velocity": 90,
              "position": 13.5,
              "duration": 2.4895833333333335
            },
            {
              "pitch": 46,
              "velocity": 90,
              "position": 13.5,
              "duration": 2.4895833333333335
            },
            {
              "pitch": 43,
              "velocity": 90,
              "position": 16,
              "duration": 3.9895833333333335
            },
            {
              "pitch": 48,
              "velocity": 90,
              "position": 16,
              "duration": 7.989583333333333
            },
            {
              "pitch": 44,
              "velocity": 90,
              "position": 20,
              "duration": 3.9895833333333335
            },
            {
              "pitch": 51,
              "velocity": 90,
              "position": 16,
              "duration": 7.989583333333333
            },
            {
              "pitch": 84,
              "velocity": 70,
              "position": 16,
              "duration": 11.989583333333334
            },
            {
              "pitch": 53,
              "velocity": 90,
              "position": 24,
              "duration": 3.9895833333333335
            },
            {
              "pitch": 48,
              "velocity": 90,
              "position": 24,
              "duration": 3.9895833333333335
            },
            {
              "pitch": 45,
              "velocity": 90,
              "position": 24,
              "duration": 3.9895833333333335
            },
            {
              "pitch": 46,
              "velocity": 90,
              "position": 28.5,
              "duration": 0.4895833333333333
            },
            {
              "pitch": 53,
              "velocity": 90,
              "position": 28.5,
              "duration": 0.4895833333333333
            },
            {
              "pitch": 50,
              "velocity": 90,
              "position": 28.5,
              "duration": 0.4895833333333333
            },
            {
              "pitch": 45,
              "velocity": 90,
              "position": 29.5,
              "duration": 2.4895833333333335
            },
            {
              "pitch": 53,
              "velocity": 90,
              "position": 29.5,
              "duration": 2.4895833333333335
            },
            {
              "pitch": 48,
              "velocity": 90,
              "position": 29.5,
              "duration": 2.4895833333333335
            }
          ]
        },
        "5": {
          "ctab": {
            "srcChannel": 5,
            "name": "Solid Ld",
            "accType": "PHRASE1",
            "editable": false,
            "mutedNotes": [],
            "mutedChords": [
              "1+2+5",
              "sus4",
              "1+5",
              "1+8",
              "7aug",
              "Maj7aug",
              "7(#9)",
              "7(b13)",
              "7(b9)",
              "7(13)",
              "7#11",
              "7(9)",
              "7b5",
              "7sus4",
              "7th",
              "aug",
              "Maj6(9)",
              "Maj7(9)",
              "Maj(9)",
              "Maj7#11",
              "Maj7",
              "Maj6",
              "Maj"
            ],
            "autoStart": false,
            "sourceChordNote": 0,
            "sourceChordType": "min",
            "ctb2Low": null,
            "ctb2Main": {
              "ntr": "ROOT_TRANSPOSITION",
              "ntt": "BYPASS",
              "bassOn": false,
              "chordRootUpperLimit": 9,
              "noteLowLimit": 41,
              "noteHighLimit": 127,
              "rtr": "PITCH_SHIFT"
            },
            "ctb2High": null
          },
          "notes": [
            {
              "pitch": 70,
              "velocity": 123,
              "position": 1,
              "duration": 1.4895833333333333
            },
            {
              "pitch": 75,
              "velocity": 60,
              "position": 1,
              "duration": 1.4895833333333333
            },
            {
              "pitch": 75,
              "velocity": 91,
              "position": 2.5,
              "duration": 0.4895833333333333
            },
            {
              "pitch": 67,
              "velocity": 60,
              "position": 0.010416666666666666,
              "duration": 2.98125
            },
            {
              "pitch": 67,
              "velocity": 60,
              "position": 3,
              "duration": 0.7395833333333334
            },
            {
              "pitch": 65,
              "velocity": 91,
              "position": 3.75,
              "duration": 0.2375
            },
            {
              "pitch": 100,
              "velocity": 80,
              "position": 4,
              "duration": 0.058333333333333334
            },
            {
              "pitch": 65,
              "velocity": 60,
              "position": 4,
              "duration": 0.825
            },
            {
              "pitch": 63,
              "velocity": 91,
              "position": 4.833333333333333,
              "duration": 0.15625
            },
            {
              "pitch": 60,
              "velocity": 60,
              "position": 5,
              "duration": 1.9770833333333333
            },
            {
              "pitch": 123,
              "velocity": 20,
              "position": 6.5,
              "duration": 0.49583333333333335
            },
            {
              "pitch": 51,
              "velocity": 87,
              "position": 7.5,
              "duration": 0.15833333333333333
            },
            {
              "pitch": 53,
              "velocity": 76,
              "position": 7.666666666666667,
              "duration": 0.15833333333333333
            },
            {
              "pitch": 55,
              "velocity": 76,
              "position": 7.833333333333333,
              "duration": 0.15833333333333333
            },
            {
              "pitch": 58,
              "velocity": 40,
              "position": 8,
              "duration": 0.15833333333333333
            },
            {
              "pitch": 60,
              "velocity": 91,
              "position": 8.166666666666666,
              "duration": 0.15833333333333333
            },
            {
              "pitch": 63,
              "velocity": 91,
              "position": 8.333333333333334,
              "duration": 0.15833333333333333
            },
            {
              "pitch": 51,
              "velocity": 87,
              "position": 8.5,
              "duration": 0.15833333333333333
            },
            {
              "pitch": 53,
              "velocity": 76,
              "position": 8.666666666666666,
              "duration": 0.15833333333333333
            },
            {
              "pitch": 55,
              "velocity": 76,
              "position": 8.833333333333334,
              "duration": 0.15833333333333333
            },
            {
              "pitch": 58,
              "velocity": 40,
              "position": 9,
              "duration": 0.15833333333333333
            },
            {
              "pitch": 60,
              "velocity": 91,
              "position": 9.166666666666666,
              "duration": 0.15833333333333333
            },
            {
              "pitch": 63,
              "velocity": 91,
              "position": 9.333333333333334,
              "duration": 0.15833333333333333
            },
            {
              "pitch": 65,
              "velocity": 40,
              "position": 9.5,
              "duration": 0.15833333333333333
            },
            {
              "pitch": 67,
              "velocity": 91,
              "position": 9.666666666666666,
              "duration": 0.15833333333333333
            },
            {
              "pitch": 70,
              "velocity": 91,
              "position": 9.833333333333334,
              "duration": 0.15833333333333333
            },
            {
              "pitch": 72,
              "velocity": 60,
              "position": 10,
              "duration": 0.9916666666666667
            },
            {
              "pitch": 75,
              "velocity": 60,
              "position": 10.5,
              "duration": 0.9895833333333334
            },
            {
              "pitch": 72,
              "velocity": 60,
              "position": 11,
              "duration": 0.9916666666666667
            },
            {
              "pitch": 63,
              "velocity": 127,
              "position": 11.5,
              "duration": 1.4895833333333333
            },
            {
              "pitch": 72,
              "velocity": 60,
              "position": 12,
              "duration": 0.9895833333333334
            },
            {
              "pitch": 72,
              "velocity": 60,
              "position": 13,
              "duration": 0.23958333333333334
            },
            {
              "pitch": 70,
              "velocity": 91,
              "position": 13.25,
              "duration": 0.23958333333333334
            },
            {
              "pitch": 60,
              "velocity": 127,
              "position": 13.5,
              "duration": 1.4916666666666667
            },
            {
              "pitch": 72,
              "velocity": 127,
              "position": 13.5,
              "duration": 1.4916666666666667
            },
            {
              "pitch": 55,
              "velocity": 21,
              "position": 16,
              "duration": 0.14166666666666666
            },
            {
              "pitch": 58,
              "velocity": 91,
              "position": 16.139583333333334,
              "duration": 0.13958333333333334
            },
            {
              "pitch": 60,
              "velocity": 91,
              "position": 16.277083333333334,
              "duration": 0.14166666666666666
            },
            {
              "pitch": 58,
              "velocity": 91,
              "position": 16.416666666666668,
              "duration": 0.14166666666666666
            },
            {
              "pitch": 55,
              "velocity": 91,
              "position": 16.55625,
              "duration": 0.13958333333333334
            },
            {
              "pitch": 53,
              "velocity": 91,
              "position": 16.69375,
              "duration": 0.14166666666666666
            },
            {
              "pitch": 60,
              "velocity": 91,
              "position": 16.833333333333332,
              "duration": 0.14166666666666666
            },
            {
              "pitch": 62,
              "velocity": 91,
              "position": 16.972916666666666,
              "duration": 0.13958333333333334
            },
            {
              "pitch": 65,
              "velocity": 91,
              "position": 17.110416666666666,
              "duration": 0.14166666666666666
            },
            {
              "pitch": 62,
              "velocity": 91,
              "position": 17.25,
              "duration": 0.14166666666666666
            },
            {
              "pitch": 60,
              "velocity": 91,
              "position": 17.389583333333334,
              "duration": 0.13958333333333334
            },
            {
              "pitch": 55,
              "velocity": 91,
              "position": 17.527083333333334,
              "duration": 0.13958333333333334
            },
            {
              "pitch": 58,
              "velocity": 97,
              "position": 17.666666666666668,
              "duration": 0.14166666666666666
            },
            {
              "pitch": 60,
              "velocity": 91,
              "position": 17.80625,
              "duration": 0.13958333333333334
            },
            {
              "pitch": 65,
              "velocity": 97,
              "position": 17.94375,
              "duration": 0.14166666666666666
            },
            {
              "pitch": 70,
              "velocity": 91,
              "position": 18.083333333333332,
              "duration": 0.14166666666666666
            },
            {
              "pitch": 62,
              "velocity": 97,
              "position": 18.222916666666666,
              "duration": 0.13958333333333334
            },
            {
              "pitch": 65,
              "velocity": 91,
              "position": 18.360416666666666,
              "duration": 0.14166666666666666
            },
            {
              "pitch": 67,
              "velocity": 97,
              "position": 18.5,
              "duration": 0.14166666666666666
            },
            {
              "pitch": 72,
              "velocity": 91,
              "position": 18.639583333333334,
              "duration": 0.13958333333333334
            },
            {
              "pitch": 65,
              "velocity": 97,
              "position": 18.777083333333334,
              "duration": 0.14166666666666666
            },
            {
              "pitch": 67,
              "velocity": 91,
              "position": 18.916666666666668,
              "duration": 0.14166666666666666
            },
            {
              "pitch": 70,
              "velocity": 97,
              "position": 19.05625,
              "duration": 0.13958333333333334
            },
            {
              "pitch": 75,
              "velocity": 91,
              "position": 19.19375,
              "duration": 0.14166666666666666
            },
            {
              "pitch": 67,
              "velocity": 97,
              "position": 19.333333333333332,
              "duration": 0.14166666666666666
            },
            {
              "pitch": 70,
              "velocity": 91,
              "position": 19.472916666666666,
              "duration": 0.13958333333333334
            },
            {
              "pitch": 72,
              "velocity": 97,
              "position": 19.610416666666666,
              "duration": 0.14166666666666666
            },
            {
              "pitch": 77,
              "velocity": 91,
              "position": 19.75,
              "duration": 0.14166666666666666
            },
            {
              "pitch": 65,
              "velocity": 97,
              "position": 19.889583333333334,
              "duration": 0.13958333333333334
            },
            {
              "pitch": 67,
              "velocity": 91,
              "position": 20.027083333333334,
              "duration": 0.14166666666666666
            },
            {
              "pitch": 70,
              "velocity": 97,
              "position": 20.166666666666668,
              "duration": 0.14166666666666666
            },
            {
              "pitch": 75,
              "velocity": 91,
              "position": 20.30625,
              "duration": 0.13958333333333334
            },
            {
              "pitch": 62,
              "velocity": 97,
              "position": 20.44375,
              "duration": 0.14166666666666666
            },
            {
              "pitch": 65,
              "velocity": 91,
              "position": 20.583333333333332,
              "duration": 0.14166666666666666
            },
            {
              "pitch": 67,
              "velocity": 97,
              "position": 20.722916666666666,
              "duration": 0.14166666666666666
            },
            {
              "pitch": 72,
              "velocity": 91,
              "position": 20.8625,
              "duration": 0.13958333333333334
            },
            {
              "pitch": 70,
              "velocity": 95,
              "position": 21,
              "duration": 1.0541666666666667
            },
            {
              "pitch": 58,
              "velocity": 125,
              "position": 22.0625,
              "duration": 2.9291666666666667
            },
            {
              "pitch": 70,
              "velocity": 127,
              "position": 22.0625,
              "duration": 2.9291666666666667
            },
            {
              "pitch": 65,
              "velocity": 125,
              "position": 22.0625,
              "duration": 2.9291666666666667
            },
            {
              "pitch": 58,
              "velocity": 42,
              "position": 25,
              "duration": 0.38125
            },
            {
              "pitch": 77,
              "velocity": 127,
              "position": 25.03125,
              "duration": 0.375
            },
            {
              "pitch": 70,
              "velocity": 42,
              "position": 25.03125,
              "duration": 0.375
            },
            {
              "pitch": 55,
              "velocity": 42,
              "position": 25.5,
              "duration": 0.38125
            },
            {
              "pitch": 71,
              "velocity": 124,
              "position": 25.53125,
              "duration": 0.375
            },
            {
              "pitch": 67,
              "velocity": 40,
              "position": 25.53125,
              "duration": 0.375
            },
            {
              "pitch": 53,
              "velocity": 42,
              "position": 26,
              "duration": 0.49166666666666664
            },
            {
              "pitch": 65,
              "velocity": 42,
              "position": 26.03125,
              "duration": 0.46041666666666664
            },
            {
              "pitch": 51,
              "velocity": 98,
              "position": 26.5,
              "duration": 0.38125
            },
            {
              "pitch": 63,
              "velocity": 96,
              "position": 26.53125,
              "duration": 0.375
            },
            {
              "pitch": 53,
              "velocity": 92,
              "position": 27,
              "duration": 0.38125
            },
            {
              "pitch": 58,
              "velocity": 124,
              "position": 27.03125,
              "duration": 0.375
            },
            {
              "pitch": 51,
              "velocity": 50,
              "position": 27.5,
              "duration": 1.4916666666666667
            },
            {
              "pitch": 58,
              "velocity": 20,
              "position": 27.53125,
              "duration": 1.4604166666666667
            },
            {
              "pitch": 48,
              "velocity": 50,
              "position": 29,
              "duration": 0.24166666666666667
            },
            {
              "pitch": 46,
              "velocity": 91,
              "position": 29.25,
              "duration": 0.24166666666666667
            },
            {
              "pitch": 41,
              "velocity": 34,
              "position": 29.5,
              "duration": 1.2354166666666666
            },
            {
              "pitch": 48,
              "velocity": 50,
              "position": 29.5,
              "duration": 1.2354166666666666
            }
          ]
        },
        "9": {
          "ctab": {
            "srcChannel": 9,
            "name": "MainDrum",
            "accType": "RHYTHM",
            "editable": false,
            "mutedNotes": [],
            "mutedChords": [],
            "autoStart": true,
            "sourceChordNote": 0,
            "sourceChordType": "Maj7",
            "ctb2Low": null,
            "ctb2Main": {
              "ntr": "ROOT_FIXED",
              "ntt": "BYPASS",
              "bassOn": false,
              "chordRootUpperLimit": 6,
              "noteLowLimit": 0,
              "noteHighLimit": 127,
              "rtr": "PITCH_SHIFT"
            },
            "ctb2High": null
          },
          "notes": [
            {
              "pitch": 36,
              "velocity": 100,
              "position": 0,
              "duration": 0.004166666666666667
            },
            {
              "pitch": 49,
              "velocity": 80,
              "position": 0,
              "duration": 0.004166666666666667
            },
            {
              "pitch": 36,
              "velocity": 100,
              "position": 0.5,
              "duration": 0.004166666666666667
            },
            {
              "pitch": 46,
              "velocity": 48,
              "position": 0.5,
              "duration": 0.004166666666666667
            },
            {
              "pitch": 38,
              "velocity": 116,
              "position": 1,
              "duration": 0.004166666666666667
            },
            {
              "pitch": 46,
              "velocity": 80,
              "position": 1,
              "duration": 0.004166666666666667
            },
            {
              "pitch": 46,
              "velocity": 48,
              "position": 1.5,
              "duration": 0.004166666666666667
            },
            {
              "pitch": 36,
              "velocity": 100,
              "position": 2,
              "duration": 0.004166666666666667
            },
            {
              "pitch": 46,
              "velocity": 80,
              "position": 2,
              "duration": 0.004166666666666667
            },
            {
              "pitch": 36,
              "velocity": 100,
              "position": 2.5,
              "duration": 0.004166666666666667
            },
            {
              "pitch": 46,
              "velocity": 48,
              "position": 2.5,
              "duration": 0.004166666666666667
            },
            {
              "pitch": 38,
              "velocity": 116,
              "position": 3,
              "duration": 0.004166666666666667
            },
            {
              "pitch": 46,
              "velocity": 80,
              "position": 3,
              "duration": 0.004166666666666667
            },
            {
              "pitch": 36,
              "velocity": 80,
              "position": 3.5,
              "duration": 0.004166666666666667
            },
            {
              "pitch": 46,
              "velocity": 48,
              "position": 3.5,
              "duration": 0.004166666666666667
            },
            {
              "pitch": 36,
              "velocity": 100,
              "position": 4,
              "duration": 0.004166666666666667
            },
            {
              "pitch": 46,
              "velocity": 80,
              "position": 4,
              "duration": 0.004166666666666667
            },
            {
              "pitch": 36,
              "velocity": 100,
              "position": 4.5,
              "duration": 0.004166666666666667
            },
            {
              "pitch": 46,
              "velocity": 48,
              "position": 4.5,
              "duration": 0.004166666666666667
            },
            {
              "pitch": 38,
              "velocity": 116,
              "position": 5,
              "duration": 0.004166666666666667
            },
            {
              "pitch": 46,
              "velocity": 80,
              "position": 5,
              "duration": 0.004166666666666667
            },
            {
              "pitch": 46,
              "velocity": 48,
              "position": 5.5,
              "duration": 0.004166666666666667
            },
            {
              "pitch": 36,
              "velocity": 100,
              "position": 6,
              "duration": 0.004166666666666667
            },
            {
              "pitch": 46,
              "velocity": 80,
              "position": 6,
              "duration": 0.004166666666666667
            },
            {
              "pitch": 36,
              "velocity": 100,
              "position": 6.5,
              "duration": 0.004166666666666667
            },
            {
              "pitch": 46,
              "velocity": 48,
              "position": 6.5,
              "duration": 0.004166666666666667
            },
            {
              "pitch": 38,
              "velocity": 116,
              "position": 7,
              "duration": 0.004166666666666667
            },
            {
              "pitch": 46,
              "velocity": 80,
              "position": 7,
              "duration": 0.004166666666666667
            },
            {
              "pitch": 36,
              "velocity": 80,
              "position": 7.5,
              "duration": 0.004166666666666667
            },
            {
              "pitch": 46,
              "velocity": 48,
              "position": 7.5,
              "duration": 0.004166666666666667
            },
            {
              "pitch": 36,
              "velocity": 100,
              "position": 8,
              "duration": 0.004166666666666667
            },
            {
              "pitch": 46,
              "velocity": 80,
              "position": 8,
              "duration": 0.004166666666666667
            },
            {
              "pitch": 36,
              "velocity": 100,
              "position": 8.5,
              "duration": 0.004166666666666667
            },
            {
              "pitch": 46,
              "velocity": 48,
              "position": 8.5,
              "duration": 0.004166666666666667
            },
            {
              "pitch": 38,
              "velocity": 116,
              "position": 9,
              "duration": 0.004166666666666667
            },
            {
              "pitch": 46,
              "velocity": 80,
              "position": 9,
              "duration": 0.004166666666666667
            },
            {
              "pitch": 46,
              "velocity": 48,
              "position": 9.5,
              "duration": 0.004166666666666667
            },
            {
              "pitch": 36,
              "velocity": 100,
              "position": 10,
              "duration": 0.004166666666666667
            },
            {
              "pitch": 46,
              "velocity": 80,
              "position": 10,
              "duration": 0.004166666666666667
            },
            {
              "pitch": 36,
              "velocity": 100,
              "position": 10.5,
              "duration": 0.004166666666666667
            },
            {
              "pitch": 46,
              "velocity": 48,
              "position": 10.5,
              "duration": 0.004166666666666667
            },
            {
              "pitch": 38,
              "velocity": 116,
              "position": 11,
              "duration": 0.004166666666666667
            },
            {
              "pitch": 46,
              "velocity": 80,
              "position": 11,
              "duration": 0.004166666666666667
            },
            {
              "pitch": 36,
              "velocity": 80,
              "position": 11.5,
              "duration": 0.004166666666666667
            },
            {
              "pitch": 46,
              "velocity": 48,
              "position": 11.5,
              "duration": 0.004166666666666667
            },
            {
              "pitch": 36,
              "velocity": 100,
              "position": 12,
              "duration": 0.004166666666666667
            },
            {
              "pitch": 46,
              "velocity": 80,
              "position": 12,
              "duration": 0.004166666666666667
            },
            {
              "pitch": 36,
              "velocity": 100,
              "position": 12.5,
              "duration": 0.004166666666666667
            },
            {
              "pitch": 46,
              "velocity": 48,
              "position": 12.5,
              "duration": 0.004166666666666667
            },
            {
              "pitch": 38,
              "velocity": 116,
              "position": 13,
              "duration": 0.004166666666666667
            },
            {
              "pitch": 46,
              "velocity": 80,
              "position": 13,
              "duration": 0.004166666666666667
            },
            {
              "pitch": 46,
              "velocity": 48,
              "position": 13.5,
              "duration": 0.004166666666666667
            },
            {
              "pitch": 36,
              "velocity": 100,
              "position": 14,
              "duration": 0.004166666666666667
            },
            {
              "pitch": 46,
              "velocity": 80,
              "position": 14,
              "duration": 0.004166666666666667
            },
            {
              "pitch": 36,
              "velocity": 100,
              "position": 14.5,
              "duration": 0.004166666666666667
            },
            {
              "pitch": 46,
              "velocity": 48,
              "position": 14.5,
              "duration": 0.004166666666666667
            },
            {
              "pitch": 38,
              "velocity": 116,
              "position": 15,
              "duration": 0.004166666666666667
            },
            {
              "pitch": 46,
              "velocity": 80,
              "position": 15,
              "duration": 0.004166666666666667
            },
            {
              "pitch": 36,
              "velocity": 80,
              "position": 15.5,
              "duration": 0.004166666666666667
            },
            {
              "pitch": 46,
              "velocity": 48,
              "position": 15.5,
              "duration": 0.004166666666666667
            },
            {
              "pitch": 36,
              "velocity": 100,
              "position": 16,
              "duration": 0.004166666666666667
            },
            {
              "pitch": 46,
              "velocity": 80,
              "position": 16,
              "duration": 0.004166666666666667
            },
            {
              "pitch": 36,
              "velocity": 100,
              "position": 16.5,
              "duration": 0.004166666666666667
            },
            {
              "pitch": 46,
              "velocity": 48,
              "position": 16.5,
              "duration": 0.004166666666666667
            },
            {
              "pitch": 38,
              "velocity": 116,
              "position": 17,
              "duration": 0.004166666666666667
            },
            {
              "pitch": 46,
              "velocity": 80,
              "position": 17,
              "duration": 0.004166666666666667
            },
            {
              "pitch": 46,
              "velocity": 48,
              "position": 17.5,
              "duration": 0.004166666666666667
            },
            {
              "pitch": 36,
              "velocity": 100,
              "position": 18,
              "duration": 0.004166666666666667
            },
            {
              "pitch": 46,
              "velocity": 80,
              "position": 18,
              "duration": 0.004166666666666667
            },
            {
              "pitch": 36,
              "velocity": 100,
              "position": 18.5,
              "duration": 0.004166666666666667
            },
            {
              "pitch": 46,
              "velocity": 48,
              "position": 18.5,
              "duration": 0.004166666666666667
            },
            {
              "pitch": 38,
              "velocity": 116,
              "position": 19,
              "duration": 0.004166666666666667
            },
            {
              "pitch": 46,
              "velocity": 80,
              "position": 19,
              "duration": 0.004166666666666667
            },
            {
              "pitch": 36,
              "velocity": 80,
              "position": 19.5,
              "duration": 0.004166666666666667
            },
            {
              "pitch": 46,
              "velocity": 48,
              "position": 19.5,
              "duration": 0.004166666666666667
            },
            {
              "pitch": 36,
              "velocity": 100,
              "position": 20,
              "duration": 0.004166666666666667
            },
            {
              "pitch": 46,
              "velocity": 80,
              "position": 20,
              "duration": 0.004166666666666667
            },
            {
              "pitch": 36,
              "velocity": 100,
              "position": 20.5,
              "duration": 0.004166666666666667
            },
            {
              "pitch": 46,
              "velocity": 48,
              "position": 20.5,
              "duration": 0.004166666666666667
            },
            {
              "pitch": 38,
              "velocity": 116,
              "position": 21,
              "duration": 0.004166666666666667
            },
            {
              "pitch": 46,
              "velocity": 80,
              "position": 21,
              "duration": 0.004166666666666667
            },
            {
              "pitch": 46,
              "velocity": 48,
              "position": 21.5,
              "duration": 0.004166666666666667
            },
            {
              "pitch": 36,
              "velocity": 100,
              "position": 22,
              "duration": 0.004166666666666667
            },
            {
              "pitch": 46,
              "velocity": 80,
              "position": 22,
              "duration": 0.004166666666666667
            },
            {
              "pitch": 36,
              "velocity": 100,
              "position": 22.5,
              "duration": 0.004166666666666667
            },
            {
              "pitch": 46,
              "velocity": 48,
              "position": 22.5,
              "duration": 0.004166666666666667
            },
            {
              "pitch": 38,
              "velocity": 116,
              "position": 23,
              "duration": 0.004166666666666667
            },
            {
              "pitch": 46,
              "velocity": 80,
              "position": 23,
              "duration": 0.004166666666666667
            },
            {
              "pitch": 36,
              "velocity": 80,
              "position": 23.5,
              "duration": 0.004166666666666667
            },
            {
              "pitch": 46,
              "velocity": 48,
              "position": 23.5,
              "duration": 0.004166666666666667
            },
            {
              "pitch": 36,
              "velocity": 100,
              "position": 24,
              "duration": 0.004166666666666667
            },
            {
              "pitch": 46,
              "velocity": 80,
              "position": 24,
              "duration": 0.004166666666666667
            },
            {
              "pitch": 36,
              "velocity": 100,
              "position": 24.5,
              "duration": 0.004166666666666667
            },
            {
              "pitch": 46,
              "velocity": 48,
              "position": 24.5,
              "duration": 0.004166666666666667
            },
            {
              "pitch": 38,
              "velocity": 116,
              "position": 25,
              "duration": 0.004166666666666667
            },
            {
              "pitch": 46,
              "velocity": 80,
              "position": 25,
              "duration": 0.004166666666666667
            },
            {
              "pitch": 46,
              "velocity": 48,
              "position": 25.5,
              "duration": 0.004166666666666667
            },
            {
              "pitch": 36,
              "velocity": 100,
              "position": 26,
              "duration": 0.004166666666666667
            },
            {
              "pitch": 46,
              "velocity": 80,
              "position": 26,
              "duration": 0.004166666666666667
            },
            {
              "pitch": 36,
              "velocity": 100,
              "position": 26.5,
              "duration": 0.004166666666666667
            },
            {
              "pitch": 46,
              "velocity": 48,
              "position": 26.5,
              "duration": 0.004166666666666667
            },
            {
              "pitch": 38,
              "velocity": 116,
              "position": 27,
              "duration": 0.004166666666666667
            },
            {
              "pitch": 46,
              "velocity": 80,
              "position": 27,
              "duration": 0.004166666666666667
            },
            {
              "pitch": 36,
              "velocity": 100,
              "position": 27.5,
              "duration": 0.004166666666666667
            },
            {
              "pitch": 46,
              "velocity": 48,
              "position": 27.5,
              "duration": 0.004166666666666667
            },
            {
              "pitch": 38,
              "velocity": 116,
              "position": 28,
              "duration": 0.004166666666666667
            },
            {
              "pitch": 34,
              "velocity": 90,
              "position": 28.072916666666668,
              "duration": 0.004166666666666667
            },
            {
              "pitch": 36,
              "velocity": 100,
              "position": 28.5,
              "duration": 0.004166666666666667
            },
            {
              "pitch": 46,
              "velocity": 78,
              "position": 28.5,
              "duration": 0.004166666666666667
            },
            {
              "pitch": 44,
              "velocity": 23,
              "position": 29.03125,
              "duration": 0.004166666666666667
            },
            {
              "pitch": 36,
              "velocity": 100,
              "position": 29.5,
              "duration": 0.004166666666666667
            },
            {
              "pitch": 57,
              "velocity": 86,
              "position": 29.5,
              "duration": 0.004166666666666667
            },
            {
              "pitch": 36,
              "velocity": 100,
              "position": 30.75,
              "duration": 0.004166666666666667
            },
            {
              "pitch": 38,
              "velocity": 116,
              "position": 31,
              "duration": 0.004166666666666667
            },
            {
              "pitch": 34,
              "velocity": 90,
              "position": 31.072916666666668,
              "duration": 0.004166666666666667
            },
            {
              "pitch": 36,
              "velocity": 100,
              "position": 31.5,
              "duration": 0.004166666666666667
            },
            {
              "pitch": 46,
              "velocity": 70,
              "position": 31.5,
              "duration": 0.004166666666666667
            },
            {
              "pitch": 41,
              "velocity": 80,
              "position": 31.5,
              "duration": 0.004166666666666667
            },
            {
              "pitch": 49,
              "velocity": 90,
              "position": 31.989583333333332,
              "duration": 0.004166666666666667
            }
          ]
        },
        "10": {
          "ctab": {
            "srcChannel": 10,
            "name": "Bass",
            "accType": "BASS",
            "editable": false,
            "mutedNotes": [],
            "mutedChords": [
              "dim7",
              "dim",
              "minMaj7(9)",
              "minMaj7",
              "min7(11)",
              "min7(9)",
              "min(9)",
              "m7b5",
              "min7",
              "min6",
              "min"
            ],
            "autoStart": false,
            "sourceChordNote": 0,
            "sourceChordType": "Maj",
            "ctb2Low": null,
            "ctb2Main": {
              "ntr": "ROOT_TRANSPOSITION",
              "ntt": "BYPASS",
              "bassOn": false,
              "chordRootUpperLimit": 8,
              "noteLowLimit": 28,
              "noteHighLimit": 127,
              "rtr": "PITCH_SHIFT"
            },
            "ctb2High": null
          },
          "notes": [
            {
              "pitch": 24,
              "velocity": 80,
              "position": 0,
              "duration": 0.4375
            },
            {
              "pitch": 24,
              "velocity": 75,
              "position": 0.5,
              "duration": 0.1875
            },
            {
              "pitch": 24,
              "velocity": 72,
              "position": 0.75,
              "duration": 0.1875
            },
            {
              "pitch": 24,
              "velocity": 80,
              "position": 1,
              "duration": 0.4375
            },
            {
              "pitch": 24,
              "velocity": 75,
              "position": 1.5,
              "duration": 0.1875
            },
            {
              "pitch": 24,
              "velocity": 72,
              "position": 1.75,
              "duration": 0.1875
            },
            {
              "pitch": 24,
              "velocity": 80,
              "position": 2,
              "duration": 0.4375
            },
            {
              "pitch": 24,
              "velocity": 75,
              "position": 2.5,
              "duration": 0.1875
            },
            {
              "pitch": 24,
              "velocity": 72,
              "position": 2.75,
              "duration": 0.1875
            },
            {
              "pitch": 24,
              "velocity": 80,
              "position": 3,
              "duration": 0.4375
            },
            {
              "pitch": 24,
              "velocity": 75,
              "position": 3.5,
              "duration": 0.1875
            },
            {
              "pitch": 24,
              "velocity": 72,
              "position": 3.75,
              "duration": 0.1875
            },
            {
              "pitch": 24,
              "velocity": 80,
              "position": 4,
              "duration": 0.4375
            },
            {
              "pitch": 24,
              "velocity": 75,
              "position": 4.5,
              "duration": 0.1875
            },
            {
              "pitch": 24,
              "velocity": 72,
              "position": 4.75,
              "duration": 0.1875
            },
            {
              "pitch": 24,
              "velocity": 80,
              "position": 5,
              "duration": 0.4375
            },
            {
              "pitch": 24,
              "velocity": 75,
              "position": 5.5,
              "duration": 0.1875
            },
            {
              "pitch": 24,
              "velocity": 72,
              "position": 5.75,
              "duration": 0.1875
            },
            {
              "pitch": 24,
              "velocity": 80,
              "position": 6,
              "duration": 0.4375
            },
            {
              "pitch": 24,
              "velocity": 75,
              "position": 6.5,
              "duration": 0.1875
            },
            {
              "pitch": 24,
              "velocity": 72,
              "position": 6.75,
              "duration": 0.1875
            },
            {
              "pitch": 24,
              "velocity": 80,
              "position": 7,
              "duration": 0.4375
            },
            {
              "pitch": 24,
              "velocity": 75,
              "position": 7.5,
              "duration": 0.1875
            },
            {
              "pitch": 24,
              "velocity": 72,
              "position": 7.75,
              "duration": 0.1875
            },
            {
              "pitch": 24,
              "velocity": 80,
              "position": 8,
              "duration": 0.4375
            },
            {
              "pitch": 24,
              "velocity": 75,
              "position": 8.5,
              "duration": 0.1875
            },
            {
              "pitch": 24,
              "velocity": 72,
              "position": 8.75,
              "duration": 0.1875
            },
            {
              "pitch": 24,
              "velocity": 80,
              "position": 9,
              "duration": 0.4375
            },
            {
              "pitch": 24,
              "velocity": 75,
              "position": 9.5,
              "duration": 0.1875
            },
            {
              "pitch": 24,
              "velocity": 72,
              "position": 9.75,
              "duration": 0.1875
            },
            {
              "pitch": 24,
              "velocity": 80,
              "position": 10,
              "duration": 0.4375
            },
            {
              "pitch": 24,
              "velocity": 75,
              "position": 10.5,
              "duration": 0.1875
            },
            {
              "pitch": 24,
              "velocity": 72,
              "position": 10.75,
              "duration": 0.1875
            },
            {
              "pitch": 24,
              "velocity": 80,
              "position": 11,
              "duration": 0.4375
            },
            {
              "pitch": 24,
              "velocity": 75,
              "position": 11.5,
              "duration": 0.1875
            },
            {
              "pitch": 24,
              "velocity": 72,
              "position": 11.75,
              "duration": 0.1875
            },
            {
              "pitch": 24,
              "velocity": 80,
              "position": 12,
              "duration": 0.4375
            },
            {
              "pitch": 24,
              "velocity": 75,
              "position": 12.5,
              "duration": 0.1875
            },
            {
              "pitch": 24,
              "velocity": 72,
              "position": 12.75,
              "duration": 0.1875
            },
            {
              "pitch": 24,
              "velocity": 80,
              "position": 13,
              "duration": 0.4375
            },
            {
              "pitch": 24,
              "velocity": 75,
              "position": 13.5,
              "duration": 0.1875
            },
            {
              "pitch": 24,
              "velocity": 72,
              "position": 13.75,
              "duration": 0.1875
            },
            {
              "pitch": 24,
              "velocity": 80,
              "position": 14,
              "duration": 0.4375
            },
            {
              "pitch": 31,
              "velocity": 40,
              "position": 14.5,
              "duration": 0.4895833333333333
            },
            {
              "pitch": 34,
              "velocity": 40,
              "position": 15,
              "duration": 0.4895833333333333
            },
            {
              "pitch": 36,
              "velocity": 40,
              "position": 15.5,
              "duration": 0.4895833333333333
            },
            {
              "pitch": 24,
              "velocity": 80,
              "position": 16,
              "duration": 0.4375
            },
            {
              "pitch": 24,
              "velocity": 75,
              "position": 16.5,
              "duration": 0.1875
            },
            {
              "pitch": 24,
              "velocity": 72,
              "position": 16.75,
              "duration": 0.1875
            },
            {
              "pitch": 24,
              "velocity": 80,
              "position": 17,
              "duration": 0.4375
            },
            {
              "pitch": 24,
              "velocity": 75,
              "position": 17.5,
              "duration": 0.1875
            },
            {
              "pitch": 24,
              "velocity": 72,
              "position": 17.75,
              "duration": 0.1875
            },
            {
              "pitch": 24,
              "velocity": 80,
              "position": 18,
              "duration": 0.4375
            },
            {
              "pitch": 24,
              "velocity": 75,
              "position": 18.5,
              "duration": 0.1875
            },
            {
              "pitch": 24,
              "velocity": 72,
              "position": 18.75,
              "duration": 0.1875
            },
            {
              "pitch": 24,
              "velocity": 80,
              "position": 19,
              "duration": 0.4375
            },
            {
              "pitch": 24,
              "velocity": 75,
              "position": 19.5,
              "duration": 0.1875
            },
            {
              "pitch": 24,
              "velocity": 72,
              "position": 19.75,
              "duration": 0.1875
            },
            {
              "pitch": 24,
              "velocity": 80,
              "position": 20,
              "duration": 0.4375
            },
            {
              "pitch": 24,
              "velocity": 75,
              "position": 20.5,
              "duration": 0.1875
            },
            {
              "pitch": 24,
              "velocity": 72,
              "position": 20.75,
              "duration": 0.1875
            },
            {
              "pitch": 24,
              "velocity": 80,
              "position": 21,
              "duration": 0.4375
            },
            {
              "pitch": 24,
              "velocity": 75,
              "position": 21.5,
              "duration": 0.1875
            },
            {
              "pitch": 24,
              "velocity": 72,
              "position": 21.75,
              "duration": 0.1875
            },
            {
              "pitch": 24,
              "velocity": 80,
              "position": 22,
              "duration": 0.4375
            },
            {
              "pitch": 24,
              "velocity": 75,
              "position": 22.5,
              "duration": 0.1875
            },
            {
              "pitch": 24,
              "velocity": 72,
              "position": 22.75,
              "duration": 0.1875
            },
            {
              "pitch": 24,
              "velocity": 80,
              "position": 23,
              "duration": 0.4375
            },
            {
              "pitch": 24,
              "velocity": 75,
              "position": 23.5,
              "duration": 0.1875
            },
            {
              "pitch": 24,
              "velocity": 72,
              "position": 23.75,
              "duration": 0.1875
            },
            {
              "pitch": 24,
              "velocity": 80,
              "position": 24,
              "duration": 0.4375
            },
            {
              "pitch": 24,
              "velocity": 75,
              "position": 24.5,
              "duration": 0.1875
            },
            {
              "pitch": 24,
              "velocity": 72,
              "position": 24.75,
              "duration": 0.1875
            },
            {
              "pitch": 24,
              "velocity": 80,
              "position": 25,
              "duration": 0.4375
            },
            {
              "pitch": 24,
              "velocity": 75,
              "position": 25.5,
              "duration": 0.1875
            },
            {
              "pitch": 24,
              "velocity": 72,
              "position": 25.75,
              "duration": 0.1875
            },
            {
              "pitch": 24,
              "velocity": 80,
              "position": 26,
              "duration": 0.4375
            },
            {
              "pitch": 24,
              "velocity": 75,
              "position": 26.5,
              "duration": 0.1875
            },
            {
              "pitch": 24,
              "velocity": 72,
              "position": 26.75,
              "duration": 0.1875
            },
            {
              "pitch": 24,
              "velocity": 80,
              "position": 27,
              "duration": 0.4375
            },
            {
              "pitch": 24,
              "velocity": 75,
              "position": 27.5,
              "duration": 0.1875
            },
            {
              "pitch": 24,
              "velocity": 72,
              "position": 27.75,
              "duration": 0.1875
            },
            {
              "pitch": 24,
              "velocity": 80,
              "position": 28,
              "duration": 0.4375
            },
            {
              "pitch": 34,
              "velocity": 40,
              "position": 28.5,
              "duration": 0.4895833333333333
            },
            {
              "pitch": 29,
              "velocity": 40,
              "position": 29.5,
              "duration": 2.4895833333333335
            }
          ]
        },
        "11": {
          "ctab": {
            "srcChannel": 11,
            "name": "Tele",
            "accType": "CHORD1",
            "editable": false,
            "mutedNotes": [],
            "mutedChords": [
              "dim7",
              "dim",
              "minMaj7(9)",
              "minMaj7",
              "min7(11)",
              "min7(9)",
              "min(9)",
              "m7b5",
              "min7",
              "min6",
              "min"
            ],
            "autoStart": false,
            "sourceChordNote": 0,
            "sourceChordType": "Maj",
            "ctb2Low": null,
            "ctb2Main": {
              "ntr": "ROOT_TRANSPOSITION",
              "ntt": "BYPASS",
              "bassOn": false,
              "chordRootUpperLimit": 3,
              "noteLowLimit": 40,
              "noteHighLimit": 69,
              "rtr": "PITCH_SHIFT"
            },
            "ctb2High": null
          },
          "notes": [
            {
              "pitch": 79,
              "velocity": 25,
              "position": 0.020833333333333332,
              "duration": 0.45625
            },
            {
              "pitch": 76,
              "velocity": 25,
              "position": 0.020833333333333332,
              "duration": 0.45625
            },
            {
              "pitch": 72,
              "velocity": 25,
              "position": 0.020833333333333332,
              "duration": 0.45625
            },
            {
              "pitch": 24,
              "velocity": 39,
              "position": 0,
              "duration": 0.47708333333333336
            },
            {
              "pitch": 24,
              "velocity": 80,
              "position": 0.48541666666666666,
              "duration": 0.19166666666666668
            },
            {
              "pitch": 24,
              "velocity": 86,
              "position": 0.99375,
              "duration": 0.18333333333333332
            },
            {
              "pitch": 79,
              "velocity": 25,
              "position": 1.5208333333333333,
              "duration": 1.4604166666666667
            },
            {
              "pitch": 76,
              "velocity": 25,
              "position": 1.5208333333333333,
              "duration": 1.4604166666666667
            },
            {
              "pitch": 72,
              "velocity": 25,
              "position": 1.5208333333333333,
              "duration": 1.4604166666666667
            },
            {
              "pitch": 24,
              "velocity": 39,
              "position": 1.5,
              "duration": 1.48125
            },
            {
              "pitch": 24,
              "velocity": 84,
              "position": 2.9895833333333335,
              "duration": 0.19583333333333333
            },
            {
              "pitch": 24,
              "velocity": 81,
              "position": 3.5125,
              "duration": 0.23958333333333334
            },
            {
              "pitch": 77,
              "velocity": 25,
              "position": 4.020833333333333,
              "duration": 0.45208333333333334
            },
            {
              "pitch": 74,
              "velocity": 25,
              "position": 4.020833333333333,
              "duration": 0.45208333333333334
            },
            {
              "pitch": 70,
              "velocity": 25,
              "position": 4.020833333333333,
              "duration": 0.45208333333333334
            },
            {
              "pitch": 24,
              "velocity": 39,
              "position": 4,
              "duration": 0.47291666666666665
            },
            {
              "pitch": 24,
              "velocity": 83,
              "position": 4.48125,
              "duration": 0.22916666666666666
            },
            {
              "pitch": 24,
              "velocity": 84,
              "position": 5.008333333333334,
              "duration": 0.21666666666666667
            },
            {
              "pitch": 74,
              "velocity": 25,
              "position": 5.520833333333333,
              "duration": 0.9708333333333333
            },
            {
              "pitch": 70,
              "velocity": 25,
              "position": 5.520833333333333,
              "duration": 0.9708333333333333
            },
            {
              "pitch": 74,
              "velocity": 16,
              "position": 6.520833333333333,
              "duration": 0.4625
            },
            {
              "pitch": 70,
              "velocity": 16,
              "position": 6.520833333333333,
              "duration": 0.4625
            },
            {
              "pitch": 24,
              "velocity": 39,
              "position": 5.5,
              "duration": 1.4833333333333334
            },
            {
              "pitch": 77,
              "velocity": 25,
              "position": 5.520833333333333,
              "duration": 1.4708333333333334
            },
            {
              "pitch": 24,
              "velocity": 88,
              "position": 6.991666666666666,
              "duration": 0.17083333333333334
            },
            {
              "pitch": 24,
              "velocity": 80,
              "position": 7.5125,
              "duration": 0.18541666666666667
            },
            {
              "pitch": 77,
              "velocity": 25,
              "position": 8.020833333333334,
              "duration": 0.4708333333333333
            },
            {
              "pitch": 72,
              "velocity": 25,
              "position": 8.020833333333334,
              "duration": 0.4708333333333333
            },
            {
              "pitch": 24,
              "velocity": 39,
              "position": 8,
              "duration": 0.49166666666666664
            },
            {
              "pitch": 24,
              "velocity": 81,
              "position": 8.5,
              "duration": 0.24375
            },
            {
              "pitch": 24,
              "velocity": 86,
              "position": 8.9875,
              "duration": 0.18541666666666667
            },
            {
              "pitch": 77,
              "velocity": 25,
              "position": 9.520833333333334,
              "duration": 1.4541666666666666
            },
            {
              "pitch": 72,
              "velocity": 25,
              "position": 9.520833333333334,
              "duration": 1.4541666666666666
            },
            {
              "pitch": 24,
              "velocity": 39,
              "position": 9.5,
              "duration": 1.475
            },
            {
              "pitch": 24,
              "velocity": 88,
              "position": 10.983333333333333,
              "duration": 0.23333333333333334
            },
            {
              "pitch": 24,
              "velocity": 81,
              "position": 11.483333333333333,
              "duration": 0.23125
            },
            {
              "pitch": 79,
              "velocity": 25,
              "position": 12.020833333333334,
              "duration": 0.4708333333333333
            },
            {
              "pitch": 75,
              "velocity": 25,
              "position": 12.020833333333334,
              "duration": 0.4708333333333333
            },
            {
              "pitch": 70,
              "velocity": 25,
              "position": 12.020833333333334,
              "duration": 0.4708333333333333
            },
            {
              "pitch": 24,
              "velocity": 39,
              "position": 12,
              "duration": 0.49166666666666664
            },
            {
              "pitch": 24,
              "velocity": 83,
              "position": 12.508333333333333,
              "duration": 0.21041666666666667
            },
            {
              "pitch": 24,
              "velocity": 86,
              "position": 12.983333333333333,
              "duration": 0.22916666666666666
            },
            {
              "pitch": 77,
              "velocity": 25,
              "position": 13.520833333333334,
              "duration": 0.9708333333333333
            },
            {
              "pitch": 74,
              "velocity": 25,
              "position": 13.520833333333334,
              "duration": 0.9708333333333333
            },
            {
              "pitch": 70,
              "velocity": 25,
              "position": 13.520833333333334,
              "duration": 0.9708333333333333
            },
            {
              "pitch": 24,
              "velocity": 39,
              "position": 13.5,
              "duration": 0.9916666666666667
            },
            {
              "pitch": 43,
              "velocity": 120,
              "position": 14.5,
              "duration": 0.49166666666666664
            },
            {
              "pitch": 46,
              "velocity": 39,
              "position": 15,
              "duration": 0.49166666666666664
            },
            {
              "pitch": 48,
              "velocity": 40,
              "position": 15.5,
              "duration": 0.4895833333333333
            },
            {
              "pitch": 79,
              "velocity": 25,
              "position": 16.020833333333332,
              "duration": 0.45625
            },
            {
              "pitch": 76,
              "velocity": 25,
              "position": 16.020833333333332,
              "duration": 0.45625
            },
            {
              "pitch": 72,
              "velocity": 25,
              "position": 16.020833333333332,
              "duration": 0.45625
            },
            {
              "pitch": 24,
              "velocity": 39,
              "position": 16,
              "duration": 0.47708333333333336
            },
            {
              "pitch": 24,
              "velocity": 80,
              "position": 16.485416666666666,
              "duration": 0.19166666666666668
            },
            {
              "pitch": 24,
              "velocity": 86,
              "position": 16.99375,
              "duration": 0.18333333333333332
            },
            {
              "pitch": 79,
              "velocity": 25,
              "position": 17.520833333333332,
              "duration": 1.4604166666666667
            },
            {
              "pitch": 76,
              "velocity": 25,
              "position": 17.520833333333332,
              "duration": 1.4604166666666667
            },
            {
              "pitch": 72,
              "velocity": 25,
              "position": 17.520833333333332,
              "duration": 1.4604166666666667
            },
            {
              "pitch": 24,
              "velocity": 39,
              "position": 17.5,
              "duration": 1.48125
            },
            {
              "pitch": 24,
              "velocity": 84,
              "position": 18.989583333333332,
              "duration": 0.19583333333333333
            },
            {
              "pitch": 24,
              "velocity": 81,
              "position": 19.5125,
              "duration": 0.23958333333333334
            },
            {
              "pitch": 77,
              "velocity": 25,
              "position": 20.020833333333332,
              "duration": 0.45208333333333334
            },
            {
              "pitch": 74,
              "velocity": 25,
              "position": 20.020833333333332,
              "duration": 0.45208333333333334
            },
            {
              "pitch": 70,
              "velocity": 25,
              "position": 20.020833333333332,
              "duration": 0.45208333333333334
            },
            {
              "pitch": 24,
              "velocity": 39,
              "position": 20,
              "duration": 0.47291666666666665
            },
            {
              "pitch": 24,
              "velocity": 83,
              "position": 20.48125,
              "duration": 0.22916666666666666
            },
            {
              "pitch": 24,
              "velocity": 84,
              "position": 21.008333333333333,
              "duration": 0.21666666666666667
            },
            {
              "pitch": 74,
              "velocity": 25,
              "position": 21.520833333333332,
              "duration": 0.9708333333333333
            },
            {
              "pitch": 70,
              "velocity": 25,
              "position": 21.520833333333332,
              "duration": 0.9708333333333333
            },
            {
              "pitch": 74,
              "velocity": 16,
              "position": 22.520833333333332,
              "duration": 0.4625
            },
            {
              "pitch": 70,
              "velocity": 16,
              "position": 22.520833333333332,
              "duration": 0.4625
            },
            {
              "pitch": 24,
              "velocity": 39,
              "position": 21.5,
              "duration": 1.4833333333333334
            },
            {
              "pitch": 77,
              "velocity": 25,
              "position": 21.520833333333332,
              "duration": 1.4708333333333334
            },
            {
              "pitch": 24,
              "velocity": 88,
              "position": 22.991666666666667,
              "duration": 0.17083333333333334
            },
            {
              "pitch": 24,
              "velocity": 80,
              "position": 23.5125,
              "duration": 0.18541666666666667
            },
            {
              "pitch": 77,
              "velocity": 25,
              "position": 24.020833333333332,
              "duration": 0.4708333333333333
            },
            {
              "pitch": 72,
              "velocity": 25,
              "position": 24.020833333333332,
              "duration": 0.4708333333333333
            },
            {
              "pitch": 24,
              "velocity": 39,
              "position": 24,
              "duration": 0.49166666666666664
            },
            {
              "pitch": 24,
              "velocity": 81,
              "position": 24.5,
              "duration": 0.24375
            },
            {
              "pitch": 24,
              "velocity": 86,
              "position": 24.9875,
              "duration": 0.18541666666666667
            },
            {
              "pitch": 77,
              "velocity": 25,
              "position": 25.520833333333332,
              "duration": 1.4541666666666666
            },
            {
              "pitch": 72,
              "velocity": 25,
              "position": 25.520833333333332,
              "duration": 1.4541666666666666
            },
            {
              "pitch": 24,
              "velocity": 39,
              "position": 25.5,
              "duration": 1.475
            },
            {
              "pitch": 24,
              "velocity": 88,
              "position": 26.983333333333334,
              "duration": 0.23333333333333334
            },
            {
              "pitch": 24,
              "velocity": 81,
              "position": 27.483333333333334,
              "duration": 0.23125
            },
            {
              "pitch": 24,
              "velocity": 88,
              "position": 27.983333333333334,
              "duration": 0.23333333333333334
            },
            {
              "pitch": 77,
              "velocity": 25,
              "position": 28.520833333333332,
              "duration": 0.4708333333333333
            },
            {
              "pitch": 74,
              "velocity": 25,
              "position": 28.520833333333332,
              "duration": 0.4708333333333333
            },
            {
              "pitch": 70,
              "velocity": 25,
              "position": 28.520833333333332,
              "duration": 0.4708333333333333
            },
            {
              "pitch": 34,
              "velocity": 39,
              "position": 28.5,
              "duration": 0.49166666666666664
            },
            {
              "pitch": 77,
              "velocity": 25,
              "position": 29.520833333333332,
              "duration": 1.9708333333333334
            },
            {
              "pitch": 72,
              "velocity": 25,
              "position": 29.520833333333332,
              "duration": 1.9708333333333334
            },
            {
              "pitch": 29,
              "velocity": 39,
              "position": 29.5,
              "duration": 2.2395833333333335
            }
          ]
        },
        "12": {
          "ctab": {
            "srcChannel": 12,
            "name": "Solid",
            "accType": "CHORD2",
            "editable": false,
            "mutedNotes": [],
            "mutedChords": [
              "dim7",
              "dim",
              "minMaj7(9)",
              "minMaj7",
              "min7(11)",
              "min7(9)",
              "min(9)",
              "m7b5",
              "min7",
              "min6",
              "min"
            ],
            "autoStart": false,
            "sourceChordNote": 0,
            "sourceChordType": "Maj",
            "ctb2Low": null,
            "ctb2Main": {
              "ntr": "ROOT_TRANSPOSITION",
              "ntt": "BYPASS",
              "bassOn": false,
              "chordRootUpperLimit": 3,
              "noteLowLimit": 40,
              "noteHighLimit": 69,
              "rtr": "PITCH_SHIFT"
            },
            "ctb2High": null
          },
          "notes": [
            {
              "pitch": 76,
              "velocity": 30,
              "position": 0,
              "duration": 0.45625
            },
            {
              "pitch": 79,
              "velocity": 30,
              "position": 0.010416666666666666,
              "duration": 0.45625
            },
            {
              "pitch": 72,
              "velocity": 30,
              "position": 0.020833333333333332,
              "duration": 0.45625
            },
            {
              "pitch": 24,
              "velocity": 41,
              "position": 0,
              "duration": 0.47708333333333336
            },
            {
              "pitch": 24,
              "velocity": 80,
              "position": 0.48541666666666666,
              "duration": 0.19166666666666668
            },
            {
              "pitch": 24,
              "velocity": 86,
              "position": 0.99375,
              "duration": 0.18333333333333332
            },
            {
              "pitch": 76,
              "velocity": 30,
              "position": 1.5,
              "duration": 1.4604166666666667
            },
            {
              "pitch": 79,
              "velocity": 30,
              "position": 1.5104166666666667,
              "duration": 1.4604166666666667
            },
            {
              "pitch": 72,
              "velocity": 30,
              "position": 1.5208333333333333,
              "duration": 1.4604166666666667
            },
            {
              "pitch": 24,
              "velocity": 41,
              "position": 1.5,
              "duration": 1.48125
            },
            {
              "pitch": 24,
              "velocity": 84,
              "position": 2.9895833333333335,
              "duration": 0.19583333333333333
            },
            {
              "pitch": 24,
              "velocity": 81,
              "position": 3.5125,
              "duration": 0.23958333333333334
            },
            {
              "pitch": 77,
              "velocity": 30,
              "position": 4,
              "duration": 0.45208333333333334
            },
            {
              "pitch": 70,
              "velocity": 30,
              "position": 4.010416666666667,
              "duration": 0.45208333333333334
            },
            {
              "pitch": 74,
              "velocity": 30,
              "position": 4.020833333333333,
              "duration": 0.45208333333333334
            },
            {
              "pitch": 24,
              "velocity": 41,
              "position": 4,
              "duration": 0.47291666666666665
            },
            {
              "pitch": 24,
              "velocity": 83,
              "position": 4.48125,
              "duration": 0.22916666666666666
            },
            {
              "pitch": 24,
              "velocity": 84,
              "position": 5.008333333333334,
              "duration": 0.21666666666666667
            },
            {
              "pitch": 70,
              "velocity": 30,
              "position": 5.510416666666667,
              "duration": 0.9708333333333333
            },
            {
              "pitch": 74,
              "velocity": 30,
              "position": 5.520833333333333,
              "duration": 0.9708333333333333
            },
            {
              "pitch": 77,
              "velocity": 30,
              "position": 5.5,
              "duration": 1.4708333333333334
            },
            {
              "pitch": 70,
              "velocity": 21,
              "position": 6.510416666666667,
              "duration": 0.4625
            },
            {
              "pitch": 74,
              "velocity": 21,
              "position": 6.520833333333333,
              "duration": 0.4625
            },
            {
              "pitch": 24,
              "velocity": 41,
              "position": 5.5,
              "duration": 1.4833333333333334
            },
            {
              "pitch": 24,
              "velocity": 88,
              "position": 6.991666666666666,
              "duration": 0.17083333333333334
            },
            {
              "pitch": 24,
              "velocity": 80,
              "position": 7.5125,
              "duration": 0.18541666666666667
            },
            {
              "pitch": 77,
              "velocity": 30,
              "position": 8,
              "duration": 0.4708333333333333
            },
            {
              "pitch": 72,
              "velocity": 30,
              "position": 8.020833333333334,
              "duration": 0.4708333333333333
            },
            {
              "pitch": 24,
              "velocity": 41,
              "position": 8,
              "duration": 0.49166666666666664
            },
            {
              "pitch": 24,
              "velocity": 81,
              "position": 8.5,
              "duration": 0.24375
            },
            {
              "pitch": 24,
              "velocity": 86,
              "position": 8.9875,
              "duration": 0.18541666666666667
            },
            {
              "pitch": 77,
              "velocity": 30,
              "position": 9.5,
              "duration": 1.4541666666666666
            },
            {
              "pitch": 72,
              "velocity": 30,
              "position": 9.520833333333334,
              "duration": 1.4541666666666666
            },
            {
              "pitch": 24,
              "velocity": 41,
              "position": 9.5,
              "duration": 1.475
            },
            {
              "pitch": 24,
              "velocity": 88,
              "position": 10.983333333333333,
              "duration": 0.23333333333333334
            },
            {
              "pitch": 24,
              "velocity": 81,
              "position": 11.483333333333333,
              "duration": 0.23125
            },
            {
              "pitch": 75,
              "velocity": 30,
              "position": 12,
              "duration": 0.4708333333333333
            },
            {
              "pitch": 79,
              "velocity": 30,
              "position": 12.010416666666666,
              "duration": 0.4708333333333333
            },
            {
              "pitch": 70,
              "velocity": 30,
              "position": 12.020833333333334,
              "duration": 0.4708333333333333
            },
            {
              "pitch": 24,
              "velocity": 41,
              "position": 12,
              "duration": 0.49166666666666664
            },
            {
              "pitch": 24,
              "velocity": 83,
              "position": 12.508333333333333,
              "duration": 0.21041666666666667
            },
            {
              "pitch": 24,
              "velocity": 86,
              "position": 12.983333333333333,
              "duration": 0.22916666666666666
            },
            {
              "pitch": 74,
              "velocity": 30,
              "position": 13.520833333333334,
              "duration": 0.9708333333333333
            },
            {
              "pitch": 70,
              "velocity": 30,
              "position": 13.510416666666666,
              "duration": 0.98125
            },
            {
              "pitch": 24,
              "velocity": 41,
              "position": 13.5,
              "duration": 0.9916666666666667
            },
            {
              "pitch": 77,
              "velocity": 30,
              "position": 13.5,
              "duration": 0.9916666666666667
            },
            {
              "pitch": 43,
              "velocity": 120,
              "position": 14.5,
              "duration": 0.49166666666666664
            },
            {
              "pitch": 46,
              "velocity": 50,
              "position": 15,
              "duration": 0.49166666666666664
            },
            {
              "pitch": 48,
              "velocity": 40,
              "position": 15.5,
              "duration": 0.4895833333333333
            },
            {
              "pitch": 76,
              "velocity": 30,
              "position": 16,
              "duration": 0.45625
            },
            {
              "pitch": 79,
              "velocity": 30,
              "position": 16.010416666666668,
              "duration": 0.45625
            },
            {
              "pitch": 72,
              "velocity": 30,
              "position": 16.020833333333332,
              "duration": 0.45625
            },
            {
              "pitch": 24,
              "velocity": 41,
              "position": 16,
              "duration": 0.47708333333333336
            },
            {
              "pitch": 24,
              "velocity": 80,
              "position": 16.485416666666666,
              "duration": 0.19166666666666668
            },
            {
              "pitch": 24,
              "velocity": 86,
              "position": 16.99375,
              "duration": 0.18333333333333332
            },
            {
              "pitch": 76,
              "velocity": 30,
              "position": 17.5,
              "duration": 1.4604166666666667
            },
            {
              "pitch": 79,
              "velocity": 30,
              "position": 17.510416666666668,
              "duration": 1.4604166666666667
            },
            {
              "pitch": 72,
              "velocity": 30,
              "position": 17.520833333333332,
              "duration": 1.4604166666666667
            },
            {
              "pitch": 24,
              "velocity": 41,
              "position": 17.5,
              "duration": 1.48125
            },
            {
              "pitch": 24,
              "velocity": 84,
              "position": 18.989583333333332,
              "duration": 0.19583333333333333
            },
            {
              "pitch": 24,
              "velocity": 81,
              "position": 19.5125,
              "duration": 0.23958333333333334
            },
            {
              "pitch": 77,
              "velocity": 30,
              "position": 20,
              "duration": 0.45208333333333334
            },
            {
              "pitch": 70,
              "velocity": 30,
              "position": 20.010416666666668,
              "duration": 0.45208333333333334
            },
            {
              "pitch": 74,
              "velocity": 30,
              "position": 20.020833333333332,
              "duration": 0.45208333333333334
            },
            {
              "pitch": 24,
              "velocity": 41,
              "position": 20,
              "duration": 0.47291666666666665
            },
            {
              "pitch": 24,
              "velocity": 83,
              "position": 20.48125,
              "duration": 0.22916666666666666
            },
            {
              "pitch": 24,
              "velocity": 84,
              "position": 21.008333333333333,
              "duration": 0.21666666666666667
            },
            {
              "pitch": 70,
              "velocity": 30,
              "position": 21.510416666666668,
              "duration": 0.9708333333333333
            },
            {
              "pitch": 74,
              "velocity": 30,
              "position": 21.520833333333332,
              "duration": 0.9708333333333333
            },
            {
              "pitch": 77,
              "velocity": 30,
              "position": 21.5,
              "duration": 1.4708333333333334
            },
            {
              "pitch": 70,
              "velocity": 21,
              "position": 22.510416666666668,
              "duration": 0.4625
            },
            {
              "pitch": 74,
              "velocity": 21,
              "position": 22.520833333333332,
              "duration": 0.4625
            },
            {
              "pitch": 24,
              "velocity": 41,
              "position": 21.5,
              "duration": 1.4833333333333334
            },
            {
              "pitch": 24,
              "velocity": 88,
              "position": 22.991666666666667,
              "duration": 0.17083333333333334
            },
            {
              "pitch": 24,
              "velocity": 80,
              "position": 23.5125,
              "duration": 0.18541666666666667
            },
            {
              "pitch": 77,
              "velocity": 30,
              "position": 24,
              "duration": 0.4708333333333333
            },
            {
              "pitch": 72,
              "velocity": 30,
              "position": 24.020833333333332,
              "duration": 0.4708333333333333
            },
            {
              "pitch": 24,
              "velocity": 41,
              "position": 24,
              "duration": 0.49166666666666664
            },
            {
              "pitch": 24,
              "velocity": 81,
              "position": 24.5,
              "duration": 0.24375
            },
            {
              "pitch": 24,
              "velocity": 86,
              "position": 24.9875,
              "duration": 0.18541666666666667
            },
            {
              "pitch": 77,
              "velocity": 30,
              "position": 25.5,
              "duration": 1.4541666666666666
            },
            {
              "pitch": 72,
              "velocity": 30,
              "position": 25.520833333333332,
              "duration": 1.4541666666666666
            },
            {
              "pitch": 24,
              "velocity": 41,
              "position": 25.5,
              "duration": 1.475
            },
            {
              "pitch": 24,
              "velocity": 88,
              "position": 26.983333333333334,
              "duration": 0.23333333333333334
            },
            {
              "pitch": 24,
              "velocity": 81,
              "position": 27.483333333333334,
              "duration": 0.23125
            },
            {
              "pitch": 24,
              "velocity": 88,
              "position": 27.983333333333334,
              "duration": 0.23333333333333334
            },
            {
              "pitch": 77,
              "velocity": 30,
              "position": 28.5,
              "duration": 0.4708333333333333
            },
            {
              "pitch": 70,
              "velocity": 30,
              "position": 28.510416666666668,
              "duration": 0.4708333333333333
            },
            {
              "pitch": 74,
              "velocity": 30,
              "position": 28.520833333333332,
              "duration": 0.4708333333333333
            },
            {
              "pitch": 34,
              "velocity": 41,
              "position": 28.5,
              "duration": 0.49166666666666664
            },
            {
              "pitch": 77,
              "velocity": 30,
              "position": 29.5,
              "duration": 1.9708333333333334
            },
            {
              "pitch": 72,
              "velocity": 30,
              "position": 29.520833333333332,
              "duration": 1.9708333333333334
            },
            {
              "pitch": 29,
              "velocity": 41,
              "position": 29.5,
              "duration": 2.2395833333333335
            }
          ]
        },
        "13": {
          "ctab": {
            "srcChannel": 13,
            "name": "Organ",
            "accType": "PAD",
            "editable": false,
            "mutedNotes": [],
            "mutedChords": [
              "dim7",
              "dim",
              "minMaj7(9)",
              "minMaj7",
              "min7(11)",
              "min7(9)",
              "min(9)",
              "m7b5",
              "min7",
              "min6",
              "min"
            ],
            "autoStart": false,
            "sourceChordNote": 0,
            "sourceChordType": "Maj",
            "ctb2Low": null,
            "ctb2Main": {
              "ntr": "ROOT_TRANSPOSITION",
              "ntt": "BYPASS",
              "bassOn": false,
              "chordRootUpperLimit": 7,
              "noteLowLimit": 60,
              "noteHighLimit": 71,
              "rtr": "PITCH_SHIFT"
            },
            "ctb2High": null
          },
          "notes": [
            {
              "pitch": 60,
              "velocity": 90,
              "position": 0,
              "duration": 3.9895833333333335
            },
            {
              "pitch": 64,
              "velocity": 90,
              "position": 0,
              "duration": 3.9895833333333335
            },
            {
              "pitch": 67,
              "velocity": 90,
              "position": 0,
              "duration": 3.9895833333333335
            },
            {
              "pitch": 58,
              "velocity": 90,
              "position": 4,
              "duration": 3.9895833333333335
            },
            {
              "pitch": 62,
              "velocity": 90,
              "position": 4,
              "duration": 3.9895833333333335
            },
            {
              "pitch": 65,
              "velocity": 90,
              "position": 4,
              "duration": 7.989583333333333
            },
            {
              "pitch": 60,
              "velocity": 90,
              "position": 8,
              "duration": 3.9895833333333335
            },
            {
              "pitch": 57,
              "velocity": 90,
              "position": 8,
              "duration": 3.9895833333333335
            },
            {
              "pitch": 63,
              "velocity": 90,
              "position": 12,
              "duration": 1.4895833333333333
            },
            {
              "pitch": 67,
              "velocity": 90,
              "position": 12,
              "duration": 1.4895833333333333
            },
            {
              "pitch": 84,
              "velocity": 70,
              "position": 0,
              "duration": 15.989583333333334
            },
            {
              "pitch": 65,
              "velocity": 90,
              "position": 13.5,
              "duration": 2.4895833333333335
            },
            {
              "pitch": 62,
              "velocity": 90,
              "position": 13.5,
              "duration": 2.4895833333333335
            },
            {
              "pitch": 58,
              "velocity": 90,
              "position": 12,
              "duration": 3.9895833333333335
            },
            {
              "pitch": 60,
              "velocity": 90,
              "position": 16,
              "duration": 3.9895833333333335
            },
            {
              "pitch": 64,
              "velocity": 90,
              "position": 16,
              "duration": 3.9895833333333335
            },
            {
              "pitch": 67,
              "velocity": 90,
              "position": 16,
              "duration": 3.9895833333333335
            },
            {
              "pitch": 58,
              "velocity": 90,
              "position": 20,
              "duration": 3.9895833333333335
            },
            {
              "pitch": 62,
              "velocity": 90,
              "position": 20,
              "duration": 3.9895833333333335
            },
            {
              "pitch": 65,
              "velocity": 90,
              "position": 20,
              "duration": 7.989583333333333
            },
            {
              "pitch": 60,
              "velocity": 90,
              "position": 24,
              "duration": 3.9895833333333335
            },
            {
              "pitch": 57,
              "velocity": 90,
              "position": 24,
              "duration": 3.9895833333333335
            },
            {
              "pitch": 84,
              "velocity": 70,
              "position": 16,
              "duration": 11.989583333333334
            },
            {
              "pitch": 58,
              "velocity": 90,
              "position": 28.5,
              "duration": 0.4895833333333333
            },
            {
              "pitch": 65,
              "velocity": 90,
              "position": 28.5,
              "duration": 0.4895833333333333
            },
            {
              "pitch": 62,
              "velocity": 90,
              "position": 28.5,
              "duration": 0.4895833333333333
            },
            {
              "pitch": 57,
              "velocity": 90,
              "position": 29.5,
              "duration": 2.4895833333333335
            },
            {
              "pitch": 65,
              "velocity": 90,
              "position": 29.5,
              "duration": 2.4895833333333335
            },
            {
              "pitch": 60,
              "velocity": 90,
              "position": 29.5,
              "duration": 2.4895833333333335
            }
          ]
        },
        "14": {
          "ctab": {
            "srcChannel": 14,
            "name": "Solid Ld",
            "accType": "PHRASE1",
            "editable": false,
            "mutedNotes": [],
            "mutedChords": [
              "dim7",
              "dim",
              "minMaj7(9)",
              "minMaj7",
              "min7(11)",
              "min7(9)",
              "min(9)",
              "m7b5",
              "min7",
              "min6",
              "min"
            ],
            "autoStart": false,
            "sourceChordNote": 0,
            "sourceChordType": "Maj",
            "ctb2Low": null,
            "ctb2Main": {
              "ntr": "ROOT_TRANSPOSITION",
              "ntt": "BYPASS",
              "bassOn": false,
              "chordRootUpperLimit": 9,
              "noteLowLimit": 41,
              "noteHighLimit": 127,
              "rtr": "PITCH_SHIFT"
            },
            "ctb2High": null
          },
          "notes": [
            {
              "pitch": 67,
              "velocity": 123,
              "position": 1,
              "duration": 1.4895833333333333
            },
            {
              "pitch": 72,
              "velocity": 60,
              "position": 1,
              "duration": 1.4895833333333333
            },
            {
              "pitch": 72,
              "velocity": 91,
              "position": 2.5,
              "duration": 0.4895833333333333
            },
            {
              "pitch": 64,
              "velocity": 60,
              "position": 0.010416666666666666,
              "duration": 2.98125
            },
            {
              "pitch": 64,
              "velocity": 60,
              "position": 3,
              "duration": 0.7395833333333334
            },
            {
              "pitch": 62,
              "velocity": 91,
              "position": 3.75,
              "duration": 0.2375
            },
            {
              "pitch": 100,
              "velocity": 80,
              "position": 4,
              "duration": 0.058333333333333334
            },
            {
              "pitch": 62,
              "velocity": 60,
              "position": 4,
              "duration": 0.2916666666666667
            },
            {
              "pitch": 99,
              "velocity": 80,
              "position": 4.5,
              "duration": 0.058333333333333334
            },
            {
              "pitch": 62,
              "velocity": 60,
              "position": 4.5,
              "duration": 0.2916666666666667
            },
            {
              "pitch": 60,
              "velocity": 60,
              "position": 5,
              "duration": 1.9770833333333333
            },
            {
              "pitch": 123,
              "velocity": 20,
              "position": 6.5,
              "duration": 0.49583333333333335
            },
            {
              "pitch": 48,
              "velocity": 87,
              "position": 7.5,
              "duration": 0.15833333333333333
            },
            {
              "pitch": 50,
              "velocity": 72,
              "position": 7.666666666666667,
              "duration": 0.15833333333333333
            },
            {
              "pitch": 52,
              "velocity": 72,
              "position": 7.833333333333333,
              "duration": 0.15833333333333333
            },
            {
              "pitch": 55,
              "velocity": 40,
              "position": 8,
              "duration": 0.15833333333333333
            },
            {
              "pitch": 57,
              "velocity": 91,
              "position": 8.166666666666666,
              "duration": 0.15833333333333333
            },
            {
              "pitch": 60,
              "velocity": 91,
              "position": 8.333333333333334,
              "duration": 0.15833333333333333
            },
            {
              "pitch": 48,
              "velocity": 87,
              "position": 8.5,
              "duration": 0.15833333333333333
            },
            {
              "pitch": 50,
              "velocity": 76,
              "position": 8.666666666666666,
              "duration": 0.15833333333333333
            },
            {
              "pitch": 52,
              "velocity": 76,
              "position": 8.833333333333334,
              "duration": 0.15833333333333333
            },
            {
              "pitch": 55,
              "velocity": 40,
              "position": 9,
              "duration": 0.15833333333333333
            },
            {
              "pitch": 57,
              "velocity": 91,
              "position": 9.166666666666666,
              "duration": 0.15833333333333333
            },
            {
              "pitch": 60,
              "velocity": 91,
              "position": 9.333333333333334,
              "duration": 0.15833333333333333
            },
            {
              "pitch": 62,
              "velocity": 40,
              "position": 9.5,
              "duration": 0.15833333333333333
            },
            {
              "pitch": 64,
              "velocity": 91,
              "position": 9.666666666666666,
              "duration": 0.15833333333333333
            },
            {
              "pitch": 65,
              "velocity": 91,
              "position": 9.833333333333334,
              "duration": 0.15833333333333333
            },
            {
              "pitch": 67,
              "velocity": 60,
              "position": 10,
              "duration": 0.9916666666666667
            },
            {
              "pitch": 70,
              "velocity": 40,
              "position": 10.5,
              "duration": 1.4916666666666667
            },
            {
              "pitch": 58,
              "velocity": 127,
              "position": 11.5,
              "duration": 0.49166666666666664
            },
            {
              "pitch": 67,
              "velocity": 60,
              "position": 11,
              "duration": 0.9916666666666667
            },
            {
              "pitch": 67,
              "velocity": 60,
              "position": 12,
              "duration": 0.9895833333333334
            },
            {
              "pitch": 65,
              "velocity": 60,
              "position": 13,
              "duration": 0.23958333333333334
            },
            {
              "pitch": 63,
              "velocity": 91,
              "position": 13.25,
              "duration": 0.23958333333333334
            },
            {
              "pitch": 48,
              "velocity": 124,
              "position": 13.5,
              "duration": 1.4916666666666667
            },
            {
              "pitch": 60,
              "velocity": 127,
              "position": 13.5,
              "duration": 1.4916666666666667
            },
            {
              "pitch": 55,
              "velocity": 121,
              "position": 13.5,
              "duration": 1.4916666666666667
            },
            {
              "pitch": 55,
              "velocity": 21,
              "position": 16,
              "duration": 0.14166666666666666
            },
            {
              "pitch": 58,
              "velocity": 91,
              "position": 16.139583333333334,
              "duration": 0.13958333333333334
            },
            {
              "pitch": 60,
              "velocity": 91,
              "position": 16.277083333333334,
              "duration": 0.14166666666666666
            },
            {
              "pitch": 58,
              "velocity": 91,
              "position": 16.416666666666668,
              "duration": 0.14166666666666666
            },
            {
              "pitch": 55,
              "velocity": 91,
              "position": 16.55625,
              "duration": 0.13958333333333334
            },
            {
              "pitch": 52,
              "velocity": 91,
              "position": 16.69375,
              "duration": 0.14166666666666666
            },
            {
              "pitch": 60,
              "velocity": 91,
              "position": 16.833333333333332,
              "duration": 0.14166666666666666
            },
            {
              "pitch": 62,
              "velocity": 91,
              "position": 16.972916666666666,
              "duration": 0.13958333333333334
            },
            {
              "pitch": 65,
              "velocity": 91,
              "position": 17.110416666666666,
              "duration": 0.14166666666666666
            },
            {
              "pitch": 62,
              "velocity": 91,
              "position": 17.25,
              "duration": 0.14166666666666666
            },
            {
              "pitch": 60,
              "velocity": 91,
              "position": 17.389583333333334,
              "duration": 0.13958333333333334
            },
            {
              "pitch": 55,
              "velocity": 91,
              "position": 17.527083333333334,
              "duration": 0.13958333333333334
            },
            {
              "pitch": 58,
              "velocity": 97,
              "position": 17.666666666666668,
              "duration": 0.14166666666666666
            },
            {
              "pitch": 60,
              "velocity": 91,
              "position": 17.80625,
              "duration": 0.13958333333333334
            },
            {
              "pitch": 65,
              "velocity": 97,
              "position": 17.94375,
              "duration": 0.14166666666666666
            },
            {
              "pitch": 70,
              "velocity": 91,
              "position": 18.083333333333332,
              "duration": 0.14166666666666666
            },
            {
              "pitch": 62,
              "velocity": 97,
              "position": 18.222916666666666,
              "duration": 0.13958333333333334
            },
            {
              "pitch": 65,
              "velocity": 91,
              "position": 18.360416666666666,
              "duration": 0.14166666666666666
            },
            {
              "pitch": 67,
              "velocity": 97,
              "position": 18.5,
              "duration": 0.14166666666666666
            },
            {
              "pitch": 72,
              "velocity": 91,
              "position": 18.639583333333334,
              "duration": 0.13958333333333334
            },
            {
              "pitch": 65,
              "velocity": 97,
              "position": 18.777083333333334,
              "duration": 0.14166666666666666
            },
            {
              "pitch": 67,
              "velocity": 91,
              "position": 18.916666666666668,
              "duration": 0.14166666666666666
            },
            {
              "pitch": 70,
              "velocity": 97,
              "position": 19.05625,
              "duration": 0.13958333333333334
            },
            {
              "pitch": 76,
              "velocity": 91,
              "position": 19.19375,
              "duration": 0.14166666666666666
            },
            {
              "pitch": 67,
              "velocity": 97,
              "position": 19.333333333333332,
              "duration": 0.14166666666666666
            },
            {
              "pitch": 70,
              "velocity": 91,
              "position": 19.472916666666666,
              "duration": 0.13958333333333334
            },
            {
              "pitch": 72,
              "velocity": 97,
              "position": 19.610416666666666,
              "duration": 0.14166666666666666
            },
            {
              "pitch": 77,
              "velocity": 91,
              "position": 19.75,
              "duration": 0.14166666666666666
            },
            {
              "pitch": 65,
              "velocity": 97,
              "position": 19.889583333333334,
              "duration": 0.13958333333333334
            },
            {
              "pitch": 67,
              "velocity": 91,
              "position": 20.027083333333334,
              "duration": 0.14166666666666666
            },
            {
              "pitch": 70,
              "velocity": 97,
              "position": 20.166666666666668,
              "duration": 0.14166666666666666
            },
            {
              "pitch": 76,
              "velocity": 91,
              "position": 20.30625,
              "duration": 0.13958333333333334
            },
            {
              "pitch": 62,
              "velocity": 97,
              "position": 20.44375,
              "duration": 0.14166666666666666
            },
            {
              "pitch": 65,
              "velocity": 91,
              "position": 20.583333333333332,
              "duration": 0.14166666666666666
            },
            {
              "pitch": 67,
              "velocity": 97,
              "position": 20.722916666666666,
              "duration": 0.14166666666666666
            },
            {
              "pitch": 72,
              "velocity": 91,
              "position": 20.8625,
              "duration": 0.12916666666666668
            },
            {
              "pitch": 72,
              "velocity": 95,
              "position": 21,
              "duration": 1.0541666666666667
            },
            {
              "pitch": 60,
              "velocity": 125,
              "position": 22.0625,
              "duration": 2.9291666666666667
            },
            {
              "pitch": 72,
              "velocity": 127,
              "position": 22.0625,
              "duration": 2.9291666666666667
            },
            {
              "pitch": 67,
              "velocity": 125,
              "position": 22.0625,
              "duration": 2.9291666666666667
            },
            {
              "pitch": 58,
              "velocity": 42,
              "position": 25,
              "duration": 0.38125
            },
            {
              "pitch": 77,
              "velocity": 127,
              "position": 25.03125,
              "duration": 0.375
            },
            {
              "pitch": 70,
              "velocity": 42,
              "position": 25.03125,
              "duration": 0.375
            },
            {
              "pitch": 55,
              "velocity": 42,
              "position": 25.5,
              "duration": 0.38125
            },
            {
              "pitch": 71,
              "velocity": 124,
              "position": 25.53125,
              "duration": 0.375
            },
            {
              "pitch": 67,
              "velocity": 40,
              "position": 25.53125,
              "duration": 0.375
            },
            {
              "pitch": 53,
              "velocity": 42,
              "position": 26,
              "duration": 0.49166666666666664
            },
            {
              "pitch": 65,
              "velocity": 42,
              "position": 26.03125,
              "duration": 0.46041666666666664
            },
            {
              "pitch": 51,
              "velocity": 98,
              "position": 26.5,
              "duration": 0.38125
            },
            {
              "pitch": 63,
              "velocity": 96,
              "position": 26.53125,
              "duration": 0.375
            },
            {
              "pitch": 53,
              "velocity": 92,
              "position": 27,
              "duration": 0.38125
            },
            {
              "pitch": 58,
              "velocity": 124,
              "position": 27.03125,
              "duration": 0.375
            },
            {
              "pitch": 51,
              "velocity": 50,
              "position": 27.5,
              "duration": 1.4916666666666667
            },
            {
              "pitch": 58,
              "velocity": 20,
              "position": 27.53125,
              "duration": 1.4604166666666667
            },
            {
              "pitch": 48,
              "velocity": 50,
              "position": 29,
              "duration": 0.24166666666666667
            },
            {
              "pitch": 46,
              "velocity": 91,
              "position": 29.25,
              "duration": 0.24166666666666667
            },
            {
              "pitch": 41,
              "velocity": 34,
              "position": 29.5,
              "duration": 1.2354166666666666
            },
            {
              "pitch": 48,
              "velocity": 50,
              "position": 29.5,
              "duration": 1.2354166666666666
            }
          ]
        },
        "15": {
          "ctab": {
            "srcChannel": 15,
            "name": "Slide FX",
            "accType": "PHRASE2",
            "editable": false,
            "mutedNotes": [],
            "mutedChords": [],
            "autoStart": false,
            "sourceChordNote": 0,
            "sourceChordType": "Maj",
            "ctb2Low": null,
            "ctb2Main": {
              "ntr": "ROOT_FIXED",
              "ntt": "BYPASS",
              "bassOn": false,
              "chordRootUpperLimit": 3,
              "noteLowLimit": 0,
              "noteHighLimit": 127,
              "rtr": "PITCH_SHIFT"
            },
            "ctb2High": null
          },
          "notes": [
            {
              "pitch": 99,
              "velocity": 80,
              "position": 7,
              "duration": 0.6666666666666666
            },
            {
              "pitch": 100,
              "velocity": 80,
              "position": 14.5,
              "duration": 1.5208333333333333
            },
            {
              "pitch": 96,
              "velocity": 80,
              "position": 30.5,
              "duration": 1.4895833333333333
            }
          ]
        }
      }
    },
    "Ending_C": {
      "type": "Ending_C",
      "sizeInBeats": 44,
      "channels": {
        "1": {
          "ctab": {
            "srcChannel": 1,
            "name": "Bass",
            "accType": "BASS",
            "editable": false,
            "mutedNotes": [],
            "mutedChords": [
              "1+2+5",
              "sus4",
              "1+5",
              "1+8",
              "7aug",
              "Maj7aug",
              "7(#9)",
              "7(b13)",
              "7(b9)",
              "7(13)",
              "7#11",
              "7(9)",
              "7b5",
              "7sus4",
              "7th",
              "aug",
              "Maj6(9)",
              "Maj7(9)",
              "Maj(9)",
              "Maj7#11",
              "Maj7",
              "Maj6",
              "Maj"
            ],
            "autoStart": false,
            "sourceChordNote": 0,
            "sourceChordType": "min",
            "ctb2Low": null,
            "ctb2Main": {
              "ntr": "ROOT_TRANSPOSITION",
              "ntt": "BYPASS",
              "bassOn": false,
              "chordRootUpperLimit": 8,
              "noteLowLimit": 28,
              "noteHighLimit": 127,
              "rtr": "PITCH_SHIFT"
            },
            "ctb2High": null
          },
          "notes": [
            {
              "pitch": 24,
              "velocity": 80,
              "position": 0,
              "duration": 0.4375
            },
            {
              "pitch": 24,
              "velocity": 75,
              "position": 0.5,
              "duration": 0.1875
            },
            {
              "pitch": 24,
              "velocity": 72,
              "position": 0.75,
              "duration": 0.1875
            },
            {
              "pitch": 24,
              "velocity": 80,
              "position": 1,
              "duration": 0.4375
            },
            {
              "pitch": 24,
              "velocity": 75,
              "position": 1.5,
              "duration": 0.1875
            },
            {
              "pitch": 24,
              "velocity": 72,
              "position": 1.75,
              "duration": 0.1875
            },
            {
              "pitch": 24,
              "velocity": 80,
              "position": 2,
              "duration": 0.4375
            },
            {
              "pitch": 24,
              "velocity": 75,
              "position": 2.5,
              "duration": 0.1875
            },
            {
              "pitch": 24,
              "velocity": 72,
              "position": 2.75,
              "duration": 0.1875
            },
            {
              "pitch": 24,
              "velocity": 80,
              "position": 3,
              "duration": 0.4375
            },
            {
              "pitch": 24,
              "velocity": 75,
              "position": 3.5,
              "duration": 0.1875
            },
            {
              "pitch": 24,
              "velocity": 72,
              "position": 3.75,
              "duration": 0.1875
            },
            {
              "pitch": 24,
              "velocity": 80,
              "position": 4,
              "duration": 0.4375
            },
            {
              "pitch": 24,
              "velocity": 75,
              "position": 4.5,
              "duration": 0.1875
            },
            {
              "pitch": 24,
              "velocity": 72,
              "position": 4.75,
              "duration": 0.1875
            },
            {
              "pitch": 24,
              "velocity": 80,
              "position": 5,
              "duration": 0.4375
            },
            {
              "pitch": 24,
              "velocity": 75,
              "position": 5.5,
              "duration": 0.1875
            },
            {
              "pitch": 24,
              "velocity": 72,
              "position": 5.75,
              "duration": 0.1875
            },
            {
              "pitch": 24,
              "velocity": 80,
              "position": 6,
              "duration": 0.4375
            },
            {
              "pitch": 24,
              "velocity": 75,
              "position": 6.5,
              "duration": 0.1875
            },
            {
              "pitch": 24,
              "velocity": 72,
              "position": 6.75,
              "duration": 0.1875
            },
            {
              "pitch": 24,
              "velocity": 80,
              "position": 7,
              "duration": 0.4375
            },
            {
              "pitch": 24,
              "velocity": 75,
              "position": 7.5,
              "duration": 0.1875
            },
            {
              "pitch": 24,
              "velocity": 72,
              "position": 7.75,
              "duration": 0.1875
            },
            {
              "pitch": 24,
              "velocity": 80,
              "position": 8,
              "duration": 0.4375
            },
            {
              "pitch": 24,
              "velocity": 75,
              "position": 8.5,
              "duration": 0.1875
            },
            {
              "pitch": 24,
              "velocity": 72,
              "position": 8.75,
              "duration": 0.1875
            },
            {
              "pitch": 24,
              "velocity": 80,
              "position": 9,
              "duration": 0.4375
            },
            {
              "pitch": 24,
              "velocity": 75,
              "position": 9.5,
              "duration": 0.1875
            },
            {
              "pitch": 24,
              "velocity": 72,
              "position": 9.75,
              "duration": 0.1875
            },
            {
              "pitch": 24,
              "velocity": 80,
              "position": 10,
              "duration": 0.4375
            },
            {
              "pitch": 24,
              "velocity": 75,
              "position": 10.5,
              "duration": 0.1875
            },
            {
              "pitch": 24,
              "velocity": 72,
              "position": 10.75,
              "duration": 0.1875
            },
            {
              "pitch": 24,
              "velocity": 80,
              "position": 11,
              "duration": 0.4375
            },
            {
              "pitch": 24,
              "velocity": 75,
              "position": 11.5,
              "duration": 0.1875
            },
            {
              "pitch": 24,
              "velocity": 72,
              "position": 11.75,
              "duration": 0.1875
            },
            {
              "pitch": 24,
              "velocity": 80,
              "position": 12,
              "duration": 0.4375
            },
            {
              "pitch": 24,
              "velocity": 75,
              "position": 12.5,
              "duration": 0.1875
            },
            {
              "pitch": 24,
              "velocity": 72,
              "position": 12.75,
              "duration": 0.1875
            },
            {
              "pitch": 24,
              "velocity": 80,
              "position": 13,
              "duration": 0.4375
            },
            {
              "pitch": 24,
              "velocity": 75,
              "position": 13.5,
              "duration": 0.1875
            },
            {
              "pitch": 24,
              "velocity": 72,
              "position": 13.75,
              "duration": 0.1875
            },
            {
              "pitch": 24,
              "velocity": 80,
              "position": 14,
              "duration": 0.4375
            },
            {
              "pitch": 31,
              "velocity": 40,
              "position": 14.5,
              "duration": 0.4895833333333333
            },
            {
              "pitch": 34,
              "velocity": 40,
              "position": 15,
              "duration": 0.4895833333333333
            },
            {
              "pitch": 36,
              "velocity": 40,
              "position": 15.5,
              "duration": 0.4895833333333333
            },
            {
              "pitch": 24,
              "velocity": 80,
              "position": 16,
              "duration": 0.4375
            },
            {
              "pitch": 24,
              "velocity": 75,
              "position": 16.5,
              "duration": 0.1875
            },
            {
              "pitch": 24,
              "velocity": 72,
              "position": 16.75,
              "duration": 0.1875
            },
            {
              "pitch": 24,
              "velocity": 80,
              "position": 17,
              "duration": 0.4375
            },
            {
              "pitch": 24,
              "velocity": 75,
              "position": 17.5,
              "duration": 0.1875
            },
            {
              "pitch": 24,
              "velocity": 72,
              "position": 17.75,
              "duration": 0.1875
            },
            {
              "pitch": 24,
              "velocity": 80,
              "position": 18,
              "duration": 0.4375
            },
            {
              "pitch": 24,
              "velocity": 75,
              "position": 18.5,
              "duration": 0.1875
            },
            {
              "pitch": 24,
              "velocity": 72,
              "position": 18.75,
              "duration": 0.1875
            },
            {
              "pitch": 24,
              "velocity": 80,
              "position": 19,
              "duration": 0.4375
            },
            {
              "pitch": 24,
              "velocity": 75,
              "position": 19.5,
              "duration": 0.1875
            },
            {
              "pitch": 24,
              "velocity": 72,
              "position": 19.75,
              "duration": 0.1875
            },
            {
              "pitch": 24,
              "velocity": 80,
              "position": 20,
              "duration": 0.4375
            },
            {
              "pitch": 24,
              "velocity": 75,
              "position": 20.5,
              "duration": 0.1875
            },
            {
              "pitch": 24,
              "velocity": 72,
              "position": 20.75,
              "duration": 0.1875
            },
            {
              "pitch": 24,
              "velocity": 80,
              "position": 21,
              "duration": 0.4375
            },
            {
              "pitch": 24,
              "velocity": 75,
              "position": 21.5,
              "duration": 0.1875
            },
            {
              "pitch": 24,
              "velocity": 72,
              "position": 21.75,
              "duration": 0.1875
            },
            {
              "pitch": 24,
              "velocity": 80,
              "position": 22,
              "duration": 0.4375
            },
            {
              "pitch": 24,
              "velocity": 75,
              "position": 22.5,
              "duration": 0.1875
            },
            {
              "pitch": 24,
              "velocity": 72,
              "position": 22.75,
              "duration": 0.1875
            },
            {
              "pitch": 24,
              "velocity": 80,
              "position": 23,
              "duration": 0.4375
            },
            {
              "pitch": 24,
              "velocity": 75,
              "position": 23.5,
              "duration": 0.1875
            },
            {
              "pitch": 24,
              "velocity": 72,
              "position": 23.75,
              "duration": 0.1875
            },
            {
              "pitch": 24,
              "velocity": 80,
              "position": 24,
              "duration": 0.4375
            },
            {
              "pitch": 24,
              "velocity": 75,
              "position": 24.5,
              "duration": 0.1875
            },
            {
              "pitch": 24,
              "velocity": 72,
              "position": 24.75,
              "duration": 0.1875
            },
            {
              "pitch": 24,
              "velocity": 80,
              "position": 25,
              "duration": 0.4375
            },
            {
              "pitch": 24,
              "velocity": 75,
              "position": 25.5,
              "duration": 0.1875
            },
            {
              "pitch": 24,
              "velocity": 72,
              "position": 25.75,
              "duration": 0.1875
            },
            {
              "pitch": 24,
              "velocity": 80,
              "position": 26,
              "duration": 0.4375
            },
            {
              "pitch": 24,
              "velocity": 75,
              "position": 26.5,
              "duration": 0.1875
            },
            {
              "pitch": 24,
              "velocity": 72,
              "position": 26.75,
              "duration": 0.1875
            },
            {
              "pitch": 24,
              "velocity": 80,
              "position": 27,
              "duration": 0.4375
            },
            {
              "pitch": 24,
              "velocity": 75,
              "position": 27.5,
              "duration": 0.1875
            },
            {
              "pitch": 24,
              "velocity": 72,
              "position": 27.75,
              "duration": 0.1875
            },
            {
              "pitch": 24,
              "velocity": 80,
              "position": 28,
              "duration": 0.4375
            },
            {
              "pitch": 34,
              "velocity": 40,
              "position": 28.5,
              "duration": 0.4895833333333333
            },
            {
              "pitch": 29,
              "velocity": 40,
              "position": 29.5,
              "duration": 1.5520833333333333
            },
            {
              "pitch": 29,
              "velocity": 22,
              "position": 31.0625,
              "duration": 0.2708333333333333
            },
            {
              "pitch": 29,
              "velocity": 14,
              "position": 31.34375,
              "duration": 0.23958333333333334
            },
            {
              "pitch": 29,
              "velocity": 22,
              "position": 31.59375,
              "duration": 0.22083333333333333
            },
            {
              "pitch": 29,
              "velocity": 22,
              "position": 31.822916666666668,
              "duration": 0.21666666666666667
            },
            {
              "pitch": 29,
              "velocity": 29,
              "position": 32.052083333333336,
              "duration": 0.16875
            },
            {
              "pitch": 29,
              "velocity": 23,
              "position": 32.23125,
              "duration": 0.1875
            },
            {
              "pitch": 29,
              "velocity": 31,
              "position": 32.42916666666667,
              "duration": 0.15625
            },
            {
              "pitch": 29,
              "velocity": 21,
              "position": 32.59375,
              "duration": 0.2
            },
            {
              "pitch": 29,
              "velocity": 30,
              "position": 32.802083333333336,
              "duration": 0.19375
            },
            {
              "pitch": 29,
              "velocity": 29,
              "position": 33.010416666666664,
              "duration": 0.15625
            },
            {
              "pitch": 29,
              "velocity": 31,
              "position": 33.177083333333336,
              "duration": 0.17708333333333334
            },
            {
              "pitch": 29,
              "velocity": 27,
              "position": 33.364583333333336,
              "duration": 0.13541666666666666
            },
            {
              "pitch": 29,
              "velocity": 30,
              "position": 33.510416666666664,
              "duration": 0.15625
            },
            {
              "pitch": 29,
              "velocity": 30,
              "position": 33.677083333333336,
              "duration": 0.17708333333333334
            },
            {
              "pitch": 29,
              "velocity": 30,
              "position": 33.864583333333336,
              "duration": 0.14791666666666667
            },
            {
              "pitch": 29,
              "velocity": 14,
              "position": 34.020833333333336,
              "duration": 0.15833333333333333
            },
            {
              "pitch": 29,
              "velocity": 30,
              "position": 34.18958333333333,
              "duration": 0.16041666666666668
            },
            {
              "pitch": 29,
              "velocity": 32,
              "position": 34.364583333333336,
              "duration": 0.1375
            },
            {
              "pitch": 29,
              "velocity": 30,
              "position": 34.510416666666664,
              "duration": 0.14583333333333334
            },
            {
              "pitch": 29,
              "velocity": 21,
              "position": 34.666666666666664,
              "duration": 0.14583333333333334
            },
            {
              "pitch": 29,
              "velocity": 31,
              "position": 34.822916666666664,
              "duration": 0.15625
            },
            {
              "pitch": 29,
              "velocity": 25,
              "position": 34.989583333333336,
              "duration": 0.13541666666666666
            },
            {
              "pitch": 29,
              "velocity": 29,
              "position": 35.135416666666664,
              "duration": 0.16666666666666666
            },
            {
              "pitch": 29,
              "velocity": 27,
              "position": 35.3125,
              "duration": 0.10625
            },
            {
              "pitch": 29,
              "velocity": 31,
              "position": 35.42916666666667,
              "duration": 0.14583333333333334
            },
            {
              "pitch": 29,
              "velocity": 27,
              "position": 35.58541666666667,
              "duration": 0.13541666666666666
            },
            {
              "pitch": 29,
              "velocity": 29,
              "position": 35.729166666666664,
              "duration": 0.1375
            },
            {
              "pitch": 29,
              "velocity": 30,
              "position": 35.87708333333333,
              "duration": 0.13541666666666666
            },
            {
              "pitch": 29,
              "velocity": 30,
              "position": 36.020833333333336,
              "duration": 0.1375
            },
            {
              "pitch": 29,
              "velocity": 31,
              "position": 36.16875,
              "duration": 0.12083333333333333
            },
            {
              "pitch": 29,
              "velocity": 30,
              "position": 36.302083333333336,
              "duration": 0.11666666666666667
            },
            {
              "pitch": 29,
              "velocity": 21,
              "position": 36.42916666666667,
              "duration": 0.11458333333333333
            },
            {
              "pitch": 29,
              "velocity": 30,
              "position": 36.552083333333336,
              "duration": 0.12083333333333333
            },
            {
              "pitch": 29,
              "velocity": 29,
              "position": 36.6875,
              "duration": 0.10416666666666667
            },
            {
              "pitch": 29,
              "velocity": 31,
              "position": 36.79375,
              "duration": 0.11458333333333333
            },
            {
              "pitch": 29,
              "velocity": 27,
              "position": 36.91875,
              "duration": 0.10833333333333334
            },
            {
              "pitch": 29,
              "velocity": 29,
              "position": 37.041666666666664,
              "duration": 0.11666666666666667
            },
            {
              "pitch": 29,
              "velocity": 31,
              "position": 37.166666666666664,
              "duration": 0.08541666666666667
            },
            {
              "pitch": 29,
              "velocity": 31,
              "position": 37.2625,
              "duration": 0.10416666666666667
            },
            {
              "pitch": 29,
              "velocity": 21,
              "position": 37.37708333333333,
              "duration": 0.0875
            },
            {
              "pitch": 29,
              "velocity": 30,
              "position": 37.479166666666664,
              "duration": 0.10416666666666667
            },
            {
              "pitch": 29,
              "velocity": 29,
              "position": 37.58541666666667,
              "duration": 0.08125
            },
            {
              "pitch": 29,
              "velocity": 29,
              "position": 37.677083333333336,
              "duration": 0.09375
            },
            {
              "pitch": 29,
              "velocity": 30,
              "position": 37.78125,
              "duration": 0.075
            },
            {
              "pitch": 29,
              "velocity": 31,
              "position": 37.86666666666667,
              "duration": 0.07916666666666666
            },
            {
              "pitch": 29,
              "velocity": 27,
              "position": 37.958333333333336,
              "duration": 0.07291666666666667
            },
            {
              "pitch": 29,
              "velocity": 28,
              "position": 38.041666666666664,
              "duration": 0.15625
            },
            {
              "pitch": 29,
              "velocity": 30,
              "position": 38.208333333333336,
              "duration": 0.14791666666666667
            },
            {
              "pitch": 29,
              "velocity": 31,
              "position": 38.36666666666667,
              "duration": 0.15416666666666667
            },
            {
              "pitch": 29,
              "velocity": 38,
              "position": 38.53125,
              "duration": 1.7729166666666667
            },
            {
              "pitch": 29,
              "velocity": 40,
              "position": 40.3125,
              "duration": 0.3458333333333333
            }
          ]
        },
        "2": {
          "ctab": {
            "srcChannel": 2,
            "name": "Tele",
            "accType": "CHORD1",
            "editable": false,
            "mutedNotes": [],
            "mutedChords": [
              "1+2+5",
              "sus4",
              "1+5",
              "1+8",
              "7aug",
              "Maj7aug",
              "7(#9)",
              "7(b13)",
              "7(b9)",
              "7(13)",
              "7#11",
              "7(9)",
              "7b5",
              "7sus4",
              "7th",
              "aug",
              "Maj6(9)",
              "Maj7(9)",
              "Maj(9)",
              "Maj7#11",
              "Maj7",
              "Maj6",
              "Maj"
            ],
            "autoStart": false,
            "sourceChordNote": 0,
            "sourceChordType": "min",
            "ctb2Low": null,
            "ctb2Main": {
              "ntr": "ROOT_TRANSPOSITION",
              "ntt": "BYPASS",
              "bassOn": false,
              "chordRootUpperLimit": 3,
              "noteLowLimit": 40,
              "noteHighLimit": 69,
              "rtr": "PITCH_SHIFT"
            },
            "ctb2High": null
          },
          "notes": [
            {
              "pitch": 79,
              "velocity": 25,
              "position": 0.020833333333333332,
              "duration": 0.95625
            },
            {
              "pitch": 75,
              "velocity": 25,
              "position": 0.020833333333333332,
              "duration": 0.95625
            },
            {
              "pitch": 72,
              "velocity": 25,
              "position": 0.020833333333333332,
              "duration": 0.95625
            },
            {
              "pitch": 24,
              "velocity": 39,
              "position": 0,
              "duration": 0.9854166666666667
            },
            {
              "pitch": 24,
              "velocity": 86,
              "position": 0.99375,
              "duration": 0.18333333333333332
            },
            {
              "pitch": 79,
              "velocity": 25,
              "position": 1.5208333333333333,
              "duration": 1.9604166666666667
            },
            {
              "pitch": 75,
              "velocity": 25,
              "position": 1.5208333333333333,
              "duration": 1.9604166666666667
            },
            {
              "pitch": 72,
              "velocity": 25,
              "position": 1.5208333333333333,
              "duration": 1.9604166666666667
            },
            {
              "pitch": 24,
              "velocity": 39,
              "position": 1.5,
              "duration": 2.004166666666667
            },
            {
              "pitch": 24,
              "velocity": 81,
              "position": 3.5125,
              "duration": 0.23958333333333334
            },
            {
              "pitch": 75,
              "velocity": 25,
              "position": 4.020833333333333,
              "duration": 0.9520833333333333
            },
            {
              "pitch": 72,
              "velocity": 25,
              "position": 4.020833333333333,
              "duration": 0.9520833333333333
            },
            {
              "pitch": 24,
              "velocity": 39,
              "position": 4,
              "duration": 1
            },
            {
              "pitch": 24,
              "velocity": 84,
              "position": 5.008333333333334,
              "duration": 0.21666666666666667
            },
            {
              "pitch": 75,
              "velocity": 25,
              "position": 5.520833333333333,
              "duration": 0.9708333333333333
            },
            {
              "pitch": 72,
              "velocity": 25,
              "position": 5.520833333333333,
              "duration": 0.9708333333333333
            },
            {
              "pitch": 75,
              "velocity": 16,
              "position": 6.520833333333333,
              "duration": 0.9625
            },
            {
              "pitch": 72,
              "velocity": 16,
              "position": 6.520833333333333,
              "duration": 0.9625
            },
            {
              "pitch": 24,
              "velocity": 39,
              "position": 5.5,
              "duration": 2.004166666666667
            },
            {
              "pitch": 24,
              "velocity": 80,
              "position": 7.5125,
              "duration": 0.18541666666666667
            },
            {
              "pitch": 24,
              "velocity": 39,
              "position": 8,
              "duration": 0.9791666666666666
            },
            {
              "pitch": 77,
              "velocity": 25,
              "position": 8.020833333333334,
              "duration": 0.9708333333333333
            },
            {
              "pitch": 72,
              "velocity": 25,
              "position": 8.020833333333334,
              "duration": 0.9708333333333333
            },
            {
              "pitch": 24,
              "velocity": 86,
              "position": 8.9875,
              "duration": 0.18541666666666667
            },
            {
              "pitch": 77,
              "velocity": 25,
              "position": 9.520833333333334,
              "duration": 1.9541666666666666
            },
            {
              "pitch": 72,
              "velocity": 25,
              "position": 9.520833333333334,
              "duration": 1.9541666666666666
            },
            {
              "pitch": 24,
              "velocity": 39,
              "position": 9.5,
              "duration": 1.975
            },
            {
              "pitch": 24,
              "velocity": 81,
              "position": 11.483333333333333,
              "duration": 0.23125
            },
            {
              "pitch": 24,
              "velocity": 39,
              "position": 12,
              "duration": 0.975
            },
            {
              "pitch": 75,
              "velocity": 25,
              "position": 12.020833333333334,
              "duration": 0.9708333333333333
            },
            {
              "pitch": 72,
              "velocity": 25,
              "position": 12.020833333333334,
              "duration": 0.9708333333333333
            },
            {
              "pitch": 24,
              "velocity": 86,
              "position": 12.983333333333333,
              "duration": 0.22916666666666666
            },
            {
              "pitch": 77,
              "velocity": 25,
              "position": 13.520833333333334,
              "duration": 0.9708333333333333
            },
            {
              "pitch": 74,
              "velocity": 25,
              "position": 13.520833333333334,
              "duration": 0.9708333333333333
            },
            {
              "pitch": 70,
              "velocity": 25,
              "position": 13.520833333333334,
              "duration": 0.9708333333333333
            },
            {
              "pitch": 24,
              "velocity": 39,
              "position": 13.5,
              "duration": 0.9916666666666667
            },
            {
              "pitch": 43,
              "velocity": 120,
              "position": 14.497916666666667,
              "duration": 0.49375
            },
            {
              "pitch": 46,
              "velocity": 39,
              "position": 15,
              "duration": 0.49166666666666664
            },
            {
              "pitch": 48,
              "velocity": 40,
              "position": 15.5,
              "duration": 0.4895833333333333
            },
            {
              "pitch": 79,
              "velocity": 25,
              "position": 16.020833333333332,
              "duration": 0.95625
            },
            {
              "pitch": 75,
              "velocity": 25,
              "position": 16.020833333333332,
              "duration": 0.95625
            },
            {
              "pitch": 72,
              "velocity": 25,
              "position": 16.020833333333332,
              "duration": 0.95625
            },
            {
              "pitch": 24,
              "velocity": 39,
              "position": 16,
              "duration": 0.9854166666666667
            },
            {
              "pitch": 24,
              "velocity": 86,
              "position": 16.99375,
              "duration": 0.18333333333333332
            },
            {
              "pitch": 79,
              "velocity": 25,
              "position": 17.520833333333332,
              "duration": 1.9604166666666667
            },
            {
              "pitch": 75,
              "velocity": 25,
              "position": 17.520833333333332,
              "duration": 1.9604166666666667
            },
            {
              "pitch": 72,
              "velocity": 25,
              "position": 17.520833333333332,
              "duration": 1.9604166666666667
            },
            {
              "pitch": 24,
              "velocity": 39,
              "position": 17.5,
              "duration": 2.004166666666667
            },
            {
              "pitch": 24,
              "velocity": 81,
              "position": 19.5125,
              "duration": 0.23958333333333334
            },
            {
              "pitch": 75,
              "velocity": 25,
              "position": 20.020833333333332,
              "duration": 0.9520833333333333
            },
            {
              "pitch": 72,
              "velocity": 25,
              "position": 20.020833333333332,
              "duration": 0.9520833333333333
            },
            {
              "pitch": 24,
              "velocity": 39,
              "position": 20,
              "duration": 1
            },
            {
              "pitch": 24,
              "velocity": 84,
              "position": 21.008333333333333,
              "duration": 0.21666666666666667
            },
            {
              "pitch": 75,
              "velocity": 25,
              "position": 21.520833333333332,
              "duration": 0.9708333333333333
            },
            {
              "pitch": 72,
              "velocity": 25,
              "position": 21.520833333333332,
              "duration": 0.9708333333333333
            },
            {
              "pitch": 75,
              "velocity": 16,
              "position": 22.520833333333332,
              "duration": 0.9625
            },
            {
              "pitch": 72,
              "velocity": 16,
              "position": 22.520833333333332,
              "duration": 0.9625
            },
            {
              "pitch": 24,
              "velocity": 39,
              "position": 21.5,
              "duration": 2.004166666666667
            },
            {
              "pitch": 24,
              "velocity": 80,
              "position": 23.5125,
              "duration": 0.18541666666666667
            },
            {
              "pitch": 24,
              "velocity": 39,
              "position": 24,
              "duration": 0.9791666666666666
            },
            {
              "pitch": 77,
              "velocity": 25,
              "position": 24.020833333333332,
              "duration": 0.9708333333333333
            },
            {
              "pitch": 72,
              "velocity": 25,
              "position": 24.020833333333332,
              "duration": 0.9708333333333333
            },
            {
              "pitch": 24,
              "velocity": 86,
              "position": 24.9875,
              "duration": 0.18541666666666667
            },
            {
              "pitch": 77,
              "velocity": 25,
              "position": 25.520833333333332,
              "duration": 1.9541666666666666
            },
            {
              "pitch": 72,
              "velocity": 25,
              "position": 25.520833333333332,
              "duration": 1.9541666666666666
            },
            {
              "pitch": 24,
              "velocity": 39,
              "position": 25.5,
              "duration": 1.975
            },
            {
              "pitch": 24,
              "velocity": 81,
              "position": 27.483333333333334,
              "duration": 0.23125
            },
            {
              "pitch": 24,
              "velocity": 88,
              "position": 27.983333333333334,
              "duration": 0.23333333333333334
            },
            {
              "pitch": 77,
              "velocity": 25,
              "position": 28.520833333333332,
              "duration": 0.4708333333333333
            },
            {
              "pitch": 74,
              "velocity": 25,
              "position": 28.520833333333332,
              "duration": 0.4708333333333333
            },
            {
              "pitch": 70,
              "velocity": 25,
              "position": 28.520833333333332,
              "duration": 0.4708333333333333
            },
            {
              "pitch": 34,
              "velocity": 39,
              "position": 28.5,
              "duration": 0.5958333333333333
            },
            {
              "pitch": 77,
              "velocity": 25,
              "position": 29.520833333333332,
              "duration": 2.470833333333333
            },
            {
              "pitch": 72,
              "velocity": 25,
              "position": 29.520833333333332,
              "duration": 2.470833333333333
            },
            {
              "pitch": 29,
              "velocity": 39,
              "position": 29.479166666666668,
              "duration": 2.5208333333333335
            },
            {
              "pitch": 72,
              "velocity": 25,
              "position": 32,
              "duration": 2.9916666666666667
            },
            {
              "pitch": 77,
              "velocity": 25,
              "position": 32,
              "duration": 2.9916666666666667
            },
            {
              "pitch": 29,
              "velocity": 39,
              "position": 32,
              "duration": 3
            },
            {
              "pitch": 77,
              "velocity": 25,
              "position": 35,
              "duration": 1.9916666666666667
            },
            {
              "pitch": 29,
              "velocity": 39,
              "position": 35,
              "duration": 2
            },
            {
              "pitch": 72,
              "velocity": 25,
              "position": 35,
              "duration": 3.4916666666666667
            },
            {
              "pitch": 29,
              "velocity": 39,
              "position": 37,
              "duration": 1.5
            },
            {
              "pitch": 77,
              "velocity": 127,
              "position": 37,
              "duration": 1.5
            },
            {
              "pitch": 29,
              "velocity": 39,
              "position": 38.5,
              "duration": 1.2416666666666667
            },
            {
              "pitch": 77,
              "velocity": 127,
              "position": 38.5,
              "duration": 1.2416666666666667
            },
            {
              "pitch": 72,
              "velocity": 127,
              "position": 38.5,
              "duration": 1.2416666666666667
            },
            {
              "pitch": 29,
              "velocity": 39,
              "position": 40.3125,
              "duration": 0.3458333333333333
            },
            {
              "pitch": 72,
              "velocity": 32,
              "position": 40.322916666666664,
              "duration": 0.3458333333333333
            }
          ]
        },
        "3": {
          "ctab": {
            "srcChannel": 3,
            "name": "Solid",
            "accType": "CHORD2",
            "editable": false,
            "mutedNotes": [],
            "mutedChords": [
              "1+2+5",
              "sus4",
              "1+5",
              "1+8",
              "7aug",
              "Maj7aug",
              "7(#9)",
              "7(b13)",
              "7(b9)",
              "7(13)",
              "7#11",
              "7(9)",
              "7b5",
              "7sus4",
              "7th",
              "aug",
              "Maj6(9)",
              "Maj7(9)",
              "Maj(9)",
              "Maj7#11",
              "Maj7",
              "Maj6",
              "Maj"
            ],
            "autoStart": false,
            "sourceChordNote": 0,
            "sourceChordType": "min",
            "ctb2Low": null,
            "ctb2Main": {
              "ntr": "ROOT_TRANSPOSITION",
              "ntt": "BYPASS",
              "bassOn": false,
              "chordRootUpperLimit": 3,
              "noteLowLimit": 40,
              "noteHighLimit": 69,
              "rtr": "PITCH_SHIFT"
            },
            "ctb2High": null
          },
          "notes": [
            {
              "pitch": 75,
              "velocity": 30,
              "position": 0,
              "duration": 0.95625
            },
            {
              "pitch": 79,
              "velocity": 30,
              "position": 0.010416666666666666,
              "duration": 0.95625
            },
            {
              "pitch": 72,
              "velocity": 30,
              "position": 0.020833333333333332,
              "duration": 0.95625
            },
            {
              "pitch": 24,
              "velocity": 41,
              "position": 0,
              "duration": 0.9854166666666667
            },
            {
              "pitch": 24,
              "velocity": 86,
              "position": 0.99375,
              "duration": 0.18333333333333332
            },
            {
              "pitch": 75,
              "velocity": 30,
              "position": 1.5,
              "duration": 1.9604166666666667
            },
            {
              "pitch": 79,
              "velocity": 30,
              "position": 1.5104166666666667,
              "duration": 1.9604166666666667
            },
            {
              "pitch": 72,
              "velocity": 30,
              "position": 1.5208333333333333,
              "duration": 1.9604166666666667
            },
            {
              "pitch": 24,
              "velocity": 41,
              "position": 1.5,
              "duration": 2.004166666666667
            },
            {
              "pitch": 24,
              "velocity": 81,
              "position": 3.5125,
              "duration": 0.23958333333333334
            },
            {
              "pitch": 72,
              "velocity": 30,
              "position": 4.010416666666667,
              "duration": 0.9520833333333333
            },
            {
              "pitch": 75,
              "velocity": 30,
              "position": 4.020833333333333,
              "duration": 0.9520833333333333
            },
            {
              "pitch": 24,
              "velocity": 41,
              "position": 4,
              "duration": 1
            },
            {
              "pitch": 24,
              "velocity": 84,
              "position": 5.008333333333334,
              "duration": 0.21666666666666667
            },
            {
              "pitch": 72,
              "velocity": 30,
              "position": 5.510416666666667,
              "duration": 0.9708333333333333
            },
            {
              "pitch": 75,
              "velocity": 30,
              "position": 5.520833333333333,
              "duration": 0.9708333333333333
            },
            {
              "pitch": 72,
              "velocity": 21,
              "position": 6.510416666666667,
              "duration": 0.9625
            },
            {
              "pitch": 75,
              "velocity": 21,
              "position": 6.520833333333333,
              "duration": 0.9625
            },
            {
              "pitch": 24,
              "velocity": 41,
              "position": 5.5,
              "duration": 2.004166666666667
            },
            {
              "pitch": 24,
              "velocity": 80,
              "position": 7.5125,
              "duration": 0.18541666666666667
            },
            {
              "pitch": 77,
              "velocity": 30,
              "position": 8,
              "duration": 0.9708333333333333
            },
            {
              "pitch": 24,
              "velocity": 41,
              "position": 8,
              "duration": 0.9791666666666666
            },
            {
              "pitch": 72,
              "velocity": 30,
              "position": 8.020833333333334,
              "duration": 0.9708333333333333
            },
            {
              "pitch": 24,
              "velocity": 86,
              "position": 8.989583333333334,
              "duration": 0.18333333333333332
            },
            {
              "pitch": 77,
              "velocity": 30,
              "position": 9.5,
              "duration": 1.9541666666666666
            },
            {
              "pitch": 72,
              "velocity": 30,
              "position": 9.520833333333334,
              "duration": 1.9541666666666666
            },
            {
              "pitch": 24,
              "velocity": 41,
              "position": 9.5,
              "duration": 1.975
            },
            {
              "pitch": 24,
              "velocity": 81,
              "position": 11.483333333333333,
              "duration": 0.23125
            },
            {
              "pitch": 75,
              "velocity": 30,
              "position": 12,
              "duration": 0.9708333333333333
            },
            {
              "pitch": 24,
              "velocity": 41,
              "position": 12,
              "duration": 0.975
            },
            {
              "pitch": 72,
              "velocity": 30,
              "position": 12.020833333333334,
              "duration": 0.9708333333333333
            },
            {
              "pitch": 24,
              "velocity": 86,
              "position": 12.983333333333333,
              "duration": 0.22916666666666666
            },
            {
              "pitch": 74,
              "velocity": 30,
              "position": 13.520833333333334,
              "duration": 0.9708333333333333
            },
            {
              "pitch": 70,
              "velocity": 30,
              "position": 13.510416666666666,
              "duration": 0.98125
            },
            {
              "pitch": 24,
              "velocity": 41,
              "position": 13.5,
              "duration": 0.9916666666666667
            },
            {
              "pitch": 77,
              "velocity": 30,
              "position": 13.5,
              "duration": 0.9916666666666667
            },
            {
              "pitch": 43,
              "velocity": 120,
              "position": 14.5,
              "duration": 0.49166666666666664
            },
            {
              "pitch": 46,
              "velocity": 50,
              "position": 15,
              "duration": 0.49166666666666664
            },
            {
              "pitch": 48,
              "velocity": 40,
              "position": 15.5,
              "duration": 0.4895833333333333
            },
            {
              "pitch": 75,
              "velocity": 30,
              "position": 16,
              "duration": 0.95625
            },
            {
              "pitch": 79,
              "velocity": 30,
              "position": 16.010416666666668,
              "duration": 0.95625
            },
            {
              "pitch": 72,
              "velocity": 30,
              "position": 16.020833333333332,
              "duration": 0.95625
            },
            {
              "pitch": 24,
              "velocity": 41,
              "position": 16,
              "duration": 0.9854166666666667
            },
            {
              "pitch": 24,
              "velocity": 86,
              "position": 16.99375,
              "duration": 0.18333333333333332
            },
            {
              "pitch": 75,
              "velocity": 30,
              "position": 17.5,
              "duration": 1.9604166666666667
            },
            {
              "pitch": 79,
              "velocity": 30,
              "position": 17.510416666666668,
              "duration": 1.9604166666666667
            },
            {
              "pitch": 72,
              "velocity": 30,
              "position": 17.520833333333332,
              "duration": 1.9604166666666667
            },
            {
              "pitch": 24,
              "velocity": 41,
              "position": 17.5,
              "duration": 2.004166666666667
            },
            {
              "pitch": 24,
              "velocity": 81,
              "position": 19.5125,
              "duration": 0.23958333333333334
            },
            {
              "pitch": 72,
              "velocity": 30,
              "position": 20.010416666666668,
              "duration": 0.9520833333333333
            },
            {
              "pitch": 75,
              "velocity": 30,
              "position": 20.020833333333332,
              "duration": 0.9520833333333333
            },
            {
              "pitch": 24,
              "velocity": 41,
              "position": 20,
              "duration": 1
            },
            {
              "pitch": 24,
              "velocity": 84,
              "position": 21.008333333333333,
              "duration": 0.21666666666666667
            },
            {
              "pitch": 72,
              "velocity": 30,
              "position": 21.510416666666668,
              "duration": 0.9708333333333333
            },
            {
              "pitch": 75,
              "velocity": 30,
              "position": 21.520833333333332,
              "duration": 0.9708333333333333
            },
            {
              "pitch": 72,
              "velocity": 21,
              "position": 22.510416666666668,
              "duration": 0.9625
            },
            {
              "pitch": 75,
              "velocity": 21,
              "position": 22.520833333333332,
              "duration": 0.9625
            },
            {
              "pitch": 24,
              "velocity": 41,
              "position": 21.5,
              "duration": 2.004166666666667
            },
            {
              "pitch": 24,
              "velocity": 80,
              "position": 23.5125,
              "duration": 0.18541666666666667
            },
            {
              "pitch": 77,
              "velocity": 30,
              "position": 24,
              "duration": 0.9708333333333333
            },
            {
              "pitch": 72,
              "velocity": 30,
              "position": 24.020833333333332,
              "duration": 0.9708333333333333
            },
            {
              "pitch": 24,
              "velocity": 41,
              "position": 24,
              "duration": 0.9916666666666667
            },
            {
              "pitch": 24,
              "velocity": 81,
              "position": 25,
              "duration": 0.24375
            },
            {
              "pitch": 77,
              "velocity": 30,
              "position": 25.5,
              "duration": 1.9541666666666666
            },
            {
              "pitch": 72,
              "velocity": 30,
              "position": 25.520833333333332,
              "duration": 1.9541666666666666
            },
            {
              "pitch": 24,
              "velocity": 41,
              "position": 25.5,
              "duration": 1.975
            },
            {
              "pitch": 24,
              "velocity": 81,
              "position": 27.483333333333334,
              "duration": 0.23125
            },
            {
              "pitch": 24,
              "velocity": 88,
              "position": 27.983333333333334,
              "duration": 0.23333333333333334
            },
            {
              "pitch": 77,
              "velocity": 30,
              "position": 28.5,
              "duration": 0.4708333333333333
            },
            {
              "pitch": 70,
              "velocity": 30,
              "position": 28.510416666666668,
              "duration": 0.4708333333333333
            },
            {
              "pitch": 34,
              "velocity": 40,
              "position": 28.520833333333332,
              "duration": 0.46041666666666664
            },
            {
              "pitch": 74,
              "velocity": 30,
              "position": 28.520833333333332,
              "duration": 0.4708333333333333
            },
            {
              "pitch": 77,
              "velocity": 30,
              "position": 29.5,
              "duration": 10.804166666666667
            },
            {
              "pitch": 72,
              "velocity": 30,
              "position": 29.520833333333332,
              "duration": 10.783333333333333
            },
            {
              "pitch": 29,
              "velocity": 40,
              "position": 29.5125,
              "duration": 10.791666666666666
            },
            {
              "pitch": 29,
              "velocity": 50,
              "position": 40.3125,
              "duration": 0.3458333333333333
            }
          ]
        },
        "4": {
          "ctab": {
            "srcChannel": 4,
            "name": "Organ",
            "accType": "PAD",
            "editable": false,
            "mutedNotes": [],
            "mutedChords": [
              "1+2+5",
              "sus4",
              "1+5",
              "1+8",
              "7aug",
              "Maj7aug",
              "7(#9)",
              "7(b13)",
              "7(b9)",
              "7(13)",
              "7#11",
              "7(9)",
              "7b5",
              "7sus4",
              "7th",
              "aug",
              "Maj6(9)",
              "Maj7(9)",
              "Maj(9)",
              "Maj7#11",
              "Maj7",
              "Maj6",
              "Maj"
            ],
            "autoStart": false,
            "sourceChordNote": 0,
            "sourceChordType": "min",
            "ctb2Low": null,
            "ctb2Main": {
              "ntr": "ROOT_TRANSPOSITION",
              "ntt": "BYPASS",
              "bassOn": false,
              "chordRootUpperLimit": 7,
              "noteLowLimit": 60,
              "noteHighLimit": 71,
              "rtr": "PITCH_SHIFT"
            },
            "ctb2High": null
          },
          "notes": [
            {
              "pitch": 43,
              "velocity": 90,
              "position": 0,
              "duration": 3.9895833333333335
            },
            {
              "pitch": 48,
              "velocity": 90,
              "position": 0,
              "duration": 7.989583333333333
            },
            {
              "pitch": 44,
              "velocity": 90,
              "position": 4,
              "duration": 3.9895833333333335
            },
            {
              "pitch": 51,
              "velocity": 90,
              "position": 0,
              "duration": 7.989583333333333
            },
            {
              "pitch": 45,
              "velocity": 90,
              "position": 8,
              "duration": 3.9895833333333335
            },
            {
              "pitch": 53,
              "velocity": 90,
              "position": 8,
              "duration": 3.9895833333333335
            },
            {
              "pitch": 48,
              "velocity": 90,
              "position": 8,
              "duration": 5.489583333333333
            },
            {
              "pitch": 51,
              "velocity": 90,
              "position": 12,
              "duration": 1.4895833333333333
            },
            {
              "pitch": 44,
              "velocity": 90,
              "position": 12,
              "duration": 1.4895833333333333
            },
            {
              "pitch": 84,
              "velocity": 70,
              "position": 0,
              "duration": 15.989583333333334
            },
            {
              "pitch": 53,
              "velocity": 90,
              "position": 13.5,
              "duration": 2.4895833333333335
            },
            {
              "pitch": 50,
              "velocity": 90,
              "position": 13.5,
              "duration": 2.4895833333333335
            },
            {
              "pitch": 46,
              "velocity": 90,
              "position": 13.5,
              "duration": 2.4895833333333335
            },
            {
              "pitch": 43,
              "velocity": 90,
              "position": 16,
              "duration": 3.9895833333333335
            },
            {
              "pitch": 48,
              "velocity": 90,
              "position": 16,
              "duration": 7.989583333333333
            },
            {
              "pitch": 44,
              "velocity": 90,
              "position": 20,
              "duration": 3.9895833333333335
            },
            {
              "pitch": 51,
              "velocity": 90,
              "position": 16,
              "duration": 7.989583333333333
            },
            {
              "pitch": 84,
              "velocity": 70,
              "position": 16,
              "duration": 11.989583333333334
            },
            {
              "pitch": 53,
              "velocity": 90,
              "position": 24,
              "duration": 3.9895833333333335
            },
            {
              "pitch": 48,
              "velocity": 90,
              "position": 24,
              "duration": 3.9895833333333335
            },
            {
              "pitch": 45,
              "velocity": 90,
              "position": 24,
              "duration": 3.9895833333333335
            },
            {
              "pitch": 46,
              "velocity": 90,
              "position": 28.5,
              "duration": 0.4895833333333333
            },
            {
              "pitch": 53,
              "velocity": 90,
              "position": 28.5,
              "duration": 0.4895833333333333
            },
            {
              "pitch": 50,
              "velocity": 90,
              "position": 28.5,
              "duration": 0.4895833333333333
            },
            {
              "pitch": 45,
              "velocity": 90,
              "position": 29.5,
              "duration": 10.822916666666666
            },
            {
              "pitch": 53,
              "velocity": 90,
              "position": 29.5,
              "duration": 10.822916666666666
            },
            {
              "pitch": 48,
              "velocity": 90,
              "position": 29.5,
              "duration": 10.822916666666666
            },
            {
              "pitch": 45,
              "velocity": 90,
              "position": 40.333333333333336,
              "duration": 0.3229166666666667
            },
            {
              "pitch": 53,
              "velocity": 90,
              "position": 40.333333333333336,
              "duration": 0.3229166666666667
            },
            {
              "pitch": 48,
              "velocity": 90,
              "position": 40.333333333333336,
              "duration": 0.3229166666666667
            }
          ]
        },
        "5": {
          "ctab": {
            "srcChannel": 5,
            "name": "Solid Ld",
            "accType": "PHRASE1",
            "editable": false,
            "mutedNotes": [],
            "mutedChords": [
              "1+2+5",
              "sus4",
              "1+5",
              "1+8",
              "7aug",
              "Maj7aug",
              "7(#9)",
              "7(b13)",
              "7(b9)",
              "7(13)",
              "7#11",
              "7(9)",
              "7b5",
              "7sus4",
              "7th",
              "aug",
              "Maj6(9)",
              "Maj7(9)",
              "Maj(9)",
              "Maj7#11",
              "Maj7",
              "Maj6",
              "Maj"
            ],
            "autoStart": false,
            "sourceChordNote": 0,
            "sourceChordType": "min",
            "ctb2Low": null,
            "ctb2Main": {
              "ntr": "ROOT_TRANSPOSITION",
              "ntt": "BYPASS",
              "bassOn": false,
              "chordRootUpperLimit": 9,
              "noteLowLimit": 41,
              "noteHighLimit": 127,
              "rtr": "PITCH_SHIFT"
            },
            "ctb2High": null
          },
          "notes": [
            {
              "pitch": 70,
              "velocity": 123,
              "position": 1,
              "duration": 1.4895833333333333
            },
            {
              "pitch": 75,
              "velocity": 60,
              "position": 1,
              "duration": 1.4895833333333333
            },
            {
              "pitch": 75,
              "velocity": 91,
              "position": 2.5,
              "duration": 0.4895833333333333
            },
            {
              "pitch": 67,
              "velocity": 60,
              "position": 0.010416666666666666,
              "duration": 2.98125
            },
            {
              "pitch": 67,
              "velocity": 60,
              "position": 3,
              "duration": 0.7395833333333334
            },
            {
              "pitch": 65,
              "velocity": 91,
              "position": 3.75,
              "duration": 0.2375
            },
            {
              "pitch": 100,
              "velocity": 80,
              "position": 4,
              "duration": 0.058333333333333334
            },
            {
              "pitch": 65,
              "velocity": 60,
              "position": 4,
              "duration": 0.825
            },
            {
              "pitch": 63,
              "velocity": 91,
              "position": 4.833333333333333,
              "duration": 0.15625
            },
            {
              "pitch": 60,
              "velocity": 60,
              "position": 5,
              "duration": 1.9770833333333333
            },
            {
              "pitch": 123,
              "velocity": 20,
              "position": 6.5,
              "duration": 0.49583333333333335
            },
            {
              "pitch": 51,
              "velocity": 87,
              "position": 7.5,
              "duration": 0.15833333333333333
            },
            {
              "pitch": 53,
              "velocity": 76,
              "position": 7.666666666666667,
              "duration": 0.15833333333333333
            },
            {
              "pitch": 55,
              "velocity": 76,
              "position": 7.833333333333333,
              "duration": 0.15833333333333333
            },
            {
              "pitch": 58,
              "velocity": 40,
              "position": 8,
              "duration": 0.15833333333333333
            },
            {
              "pitch": 60,
              "velocity": 91,
              "position": 8.166666666666666,
              "duration": 0.15833333333333333
            },
            {
              "pitch": 63,
              "velocity": 91,
              "position": 8.333333333333334,
              "duration": 0.15833333333333333
            },
            {
              "pitch": 51,
              "velocity": 87,
              "position": 8.5,
              "duration": 0.15833333333333333
            },
            {
              "pitch": 53,
              "velocity": 76,
              "position": 8.666666666666666,
              "duration": 0.15833333333333333
            },
            {
              "pitch": 55,
              "velocity": 76,
              "position": 8.833333333333334,
              "duration": 0.15833333333333333
            },
            {
              "pitch": 58,
              "velocity": 40,
              "position": 9,
              "duration": 0.15833333333333333
            },
            {
              "pitch": 60,
              "velocity": 91,
              "position": 9.166666666666666,
              "duration": 0.15833333333333333
            },
            {
              "pitch": 63,
              "velocity": 91,
              "position": 9.333333333333334,
              "duration": 0.15833333333333333
            },
            {
              "pitch": 65,
              "velocity": 40,
              "position": 9.5,
              "duration": 0.15833333333333333
            },
            {
              "pitch": 67,
              "velocity": 91,
              "position": 9.666666666666666,
              "duration": 0.15833333333333333
            },
            {
              "pitch": 70,
              "velocity": 91,
              "position": 9.833333333333334,
              "duration": 0.15833333333333333
            },
            {
              "pitch": 72,
              "velocity": 60,
              "position": 10,
              "duration": 0.9916666666666667
            },
            {
              "pitch": 75,
              "velocity": 60,
              "position": 10.5,
              "duration": 0.9895833333333334
            },
            {
              "pitch": 72,
              "velocity": 60,
              "position": 11,
              "duration": 0.9916666666666667
            },
            {
              "pitch": 63,
              "velocity": 127,
              "position": 11.5,
              "duration": 1.4895833333333333
            },
            {
              "pitch": 72,
              "velocity": 60,
              "position": 12,
              "duration": 0.9895833333333334
            },
            {
              "pitch": 72,
              "velocity": 60,
              "position": 13,
              "duration": 0.23958333333333334
            },
            {
              "pitch": 70,
              "velocity": 91,
              "position": 13.25,
              "duration": 0.23958333333333334
            },
            {
              "pitch": 60,
              "velocity": 127,
              "position": 13.5,
              "duration": 1.4916666666666667
            },
            {
              "pitch": 72,
              "velocity": 127,
              "position": 13.5,
              "duration": 1.4916666666666667
            },
            {
              "pitch": 55,
              "velocity": 21,
              "position": 16,
              "duration": 0.14166666666666666
            },
            {
              "pitch": 58,
              "velocity": 91,
              "position": 16.139583333333334,
              "duration": 0.13958333333333334
            },
            {
              "pitch": 60,
              "velocity": 91,
              "position": 16.277083333333334,
              "duration": 0.14166666666666666
            },
            {
              "pitch": 58,
              "velocity": 91,
              "position": 16.416666666666668,
              "duration": 0.14166666666666666
            },
            {
              "pitch": 55,
              "velocity": 91,
              "position": 16.55625,
              "duration": 0.13958333333333334
            },
            {
              "pitch": 53,
              "velocity": 91,
              "position": 16.69375,
              "duration": 0.14166666666666666
            },
            {
              "pitch": 60,
              "velocity": 91,
              "position": 16.833333333333332,
              "duration": 0.14166666666666666
            },
            {
              "pitch": 62,
              "velocity": 91,
              "position": 16.972916666666666,
              "duration": 0.13958333333333334
            },
            {
              "pitch": 65,
              "velocity": 91,
              "position": 17.110416666666666,
              "duration": 0.14166666666666666
            },
            {
              "pitch": 62,
              "velocity": 91,
              "position": 17.25,
              "duration": 0.14166666666666666
            },
            {
              "pitch": 60,
              "velocity": 91,
              "position": 17.389583333333334,
              "duration": 0.13958333333333334
            },
            {
              "pitch": 55,
              "velocity": 91,
              "position": 17.527083333333334,
              "duration": 0.13958333333333334
            },
            {
              "pitch": 58,
              "velocity": 97,
              "position": 17.666666666666668,
              "duration": 0.14166666666666666
            },
            {
              "pitch": 60,
              "velocity": 91,
              "position": 17.80625,
              "duration": 0.13958333333333334
            },
            {
              "pitch": 65,
              "velocity": 97,
              "position": 17.94375,
              "duration": 0.14166666666666666
            },
            {
              "pitch": 70,
              "velocity": 91,
              "position": 18.083333333333332,
              "duration": 0.14166666666666666
            },
            {
              "pitch": 62,
              "velocity": 97,
              "position": 18.222916666666666,
              "duration": 0.13958333333333334
            },
            {
              "pitch": 65,
              "velocity": 91,
              "position": 18.360416666666666,
              "duration": 0.14166666666666666
            },
            {
              "pitch": 67,
              "velocity": 97,
              "position": 18.5,
              "duration": 0.14166666666666666
            },
            {
              "pitch": 72,
              "velocity": 91,
              "position": 18.639583333333334,
              "duration": 0.13958333333333334
            },
            {
              "pitch": 65,
              "velocity": 97,
              "position": 18.777083333333334,
              "duration": 0.14166666666666666
            },
            {
              "pitch": 67,
              "velocity": 91,
              "position": 18.916666666666668,
              "duration": 0.14166666666666666
            },
            {
              "pitch": 70,
              "velocity": 97,
              "position": 19.05625,
              "duration": 0.13958333333333334
            },
            {
              "pitch": 75,
              "velocity": 91,
              "position": 19.19375,
              "duration": 0.14166666666666666
            },
            {
              "pitch": 67,
              "velocity": 97,
              "position": 19.333333333333332,
              "duration": 0.14166666666666666
            },
            {
              "pitch": 70,
              "velocity": 91,
              "position": 19.472916666666666,
              "duration": 0.13958333333333334
            },
            {
              "pitch": 72,
              "velocity": 97,
              "position": 19.610416666666666,
              "duration": 0.14166666666666666
            },
            {
              "pitch": 77,
              "velocity": 91,
              "position": 19.75,
              "duration": 0.14166666666666666
            },
            {
              "pitch": 65,
              "velocity": 97,
              "position": 19.889583333333334,
              "duration": 0.13958333333333334
            },
            {
              "pitch": 67,
              "velocity": 91,
              "position": 20.027083333333334,
              "duration": 0.14166666666666666
            },
            {
              "pitch": 70,
              "velocity": 97,
              "position": 20.166666666666668,
              "duration": 0.14166666666666666
            },
            {
              "pitch": 75,
              "velocity": 91,
              "position": 20.30625,
              "duration": 0.13958333333333334
            },
            {
              "pitch": 62,
              "velocity": 97,
              "position": 20.44375,
              "duration": 0.14166666666666666
            },
            {
              "pitch": 65,
              "velocity": 91,
              "position": 20.583333333333332,
              "duration": 0.14166666666666666
            },
            {
              "pitch": 67,
              "velocity": 97,
              "position": 20.722916666666666,
              "duration": 0.14166666666666666
            },
            {
              "pitch": 72,
              "velocity": 91,
              "position": 20.8625,
              "duration": 0.13958333333333334
            },
            {
              "pitch": 70,
              "velocity": 95,
              "position": 21,
              "duration": 1.0541666666666667
            },
            {
              "pitch": 58,
              "velocity": 125,
              "position": 22.0625,
              "duration": 2.9291666666666667
            },
            {
              "pitch": 70,
              "velocity": 127,
              "position": 22.0625,
              "duration": 2.9291666666666667
            },
            {
              "pitch": 65,
              "velocity": 125,
              "position": 22.0625,
              "duration": 2.9291666666666667
            },
            {
              "pitch": 58,
              "velocity": 42,
              "position": 25,
              "duration": 0.38125
            },
            {
              "pitch": 77,
              "velocity": 127,
              "position": 25.03125,
              "duration": 0.375
            },
            {
              "pitch": 70,
              "velocity": 42,
              "position": 25.03125,
              "duration": 0.375
            },
            {
              "pitch": 55,
              "velocity": 42,
              "position": 25.5,
              "duration": 0.38125
            },
            {
              "pitch": 71,
              "velocity": 124,
              "position": 25.53125,
              "duration": 0.375
            },
            {
              "pitch": 67,
              "velocity": 40,
              "position": 25.53125,
              "duration": 0.375
            },
            {
              "pitch": 53,
              "velocity": 42,
              "position": 26,
              "duration": 0.49166666666666664
            },
            {
              "pitch": 65,
              "velocity": 42,
              "position": 26.03125,
              "duration": 0.46041666666666664
            },
            {
              "pitch": 51,
              "velocity": 98,
              "position": 26.5,
              "duration": 0.38125
            },
            {
              "pitch": 63,
              "velocity": 96,
              "position": 26.53125,
              "duration": 0.375
            },
            {
              "pitch": 53,
              "velocity": 92,
              "position": 27,
              "duration": 0.38125
            },
            {
              "pitch": 58,
              "velocity": 124,
              "position": 27.03125,
              "duration": 0.375
            },
            {
              "pitch": 51,
              "velocity": 50,
              "position": 27.5,
              "duration": 1.4916666666666667
            },
            {
              "pitch": 58,
              "velocity": 20,
              "position": 27.53125,
              "duration": 1.4604166666666667
            },
            {
              "pitch": 48,
              "velocity": 50,
              "position": 29,
              "duration": 0.24166666666666667
            },
            {
              "pitch": 46,
              "velocity": 91,
              "position": 29.25,
              "duration": 0.24166666666666667
            },
            {
              "pitch": 41,
              "velocity": 34,
              "position": 29.5,
              "duration": 3.325
            },
            {
              "pitch": 48,
              "velocity": 50,
              "position": 29.5,
              "duration": 3.325
            },
            {
              "pitch": 48,
              "velocity": 30,
              "position": 32.833333333333336,
              "duration": 6.602083333333334
            },
            {
              "pitch": 77,
              "velocity": 127,
              "position": 35.552083333333336,
              "duration": 3.8833333333333333
            },
            {
              "pitch": 72,
              "velocity": 127,
              "position": 35.552083333333336,
              "duration": 3.8833333333333333
            },
            {
              "pitch": 69,
              "velocity": 125,
              "position": 35.552083333333336,
              "duration": 3.8833333333333333
            },
            {
              "pitch": 53,
              "velocity": 20,
              "position": 32.885416666666664,
              "duration": 6.55
            },
            {
              "pitch": 41,
              "velocity": 30,
              "position": 40.333333333333336,
              "duration": 0.34375
            },
            {
              "pitch": 48,
              "velocity": 1,
              "position": 40.333333333333336,
              "duration": 0.34375
            }
          ]
        },
        "9": {
          "ctab": {
            "srcChannel": 9,
            "name": "MainDrum",
            "accType": "RHYTHM",
            "editable": false,
            "mutedNotes": [],
            "mutedChords": [],
            "autoStart": true,
            "sourceChordNote": 0,
            "sourceChordType": "Maj7",
            "ctb2Low": null,
            "ctb2Main": {
              "ntr": "ROOT_FIXED",
              "ntt": "BYPASS",
              "bassOn": false,
              "chordRootUpperLimit": 6,
              "noteLowLimit": 0,
              "noteHighLimit": 127,
              "rtr": "PITCH_SHIFT"
            },
            "ctb2High": null
          },
          "notes": [
            {
              "pitch": 36,
              "velocity": 100,
              "position": 0,
              "duration": 0.004166666666666667
            },
            {
              "pitch": 53,
              "velocity": 115,
              "position": 0,
              "duration": 0.004166666666666667
            },
            {
              "pitch": 44,
              "velocity": 64,
              "position": 0,
              "duration": 0.004166666666666667
            },
            {
              "pitch": 36,
              "velocity": 80,
              "position": 0.5,
              "duration": 0.004166666666666667
            },
            {
              "pitch": 53,
              "velocity": 56,
              "position": 0.5,
              "duration": 0.004166666666666667
            },
            {
              "pitch": 44,
              "velocity": 34,
              "position": 0.5,
              "duration": 0.004166666666666667
            },
            {
              "pitch": 38,
              "velocity": 116,
              "position": 1,
              "duration": 0.004166666666666667
            },
            {
              "pitch": 53,
              "velocity": 115,
              "position": 1,
              "duration": 0.004166666666666667
            },
            {
              "pitch": 44,
              "velocity": 64,
              "position": 1,
              "duration": 0.004166666666666667
            },
            {
              "pitch": 36,
              "velocity": 80,
              "position": 1.5,
              "duration": 0.004166666666666667
            },
            {
              "pitch": 53,
              "velocity": 56,
              "position": 1.5,
              "duration": 0.004166666666666667
            },
            {
              "pitch": 44,
              "velocity": 34,
              "position": 1.5,
              "duration": 0.004166666666666667
            },
            {
              "pitch": 38,
              "velocity": 48,
              "position": 1.75,
              "duration": 0.004166666666666667
            },
            {
              "pitch": 36,
              "velocity": 100,
              "position": 2,
              "duration": 0.004166666666666667
            },
            {
              "pitch": 53,
              "velocity": 115,
              "position": 2,
              "duration": 0.004166666666666667
            },
            {
              "pitch": 44,
              "velocity": 64,
              "position": 2,
              "duration": 0.004166666666666667
            },
            {
              "pitch": 38,
              "velocity": 29,
              "position": 2.25,
              "duration": 0.004166666666666667
            },
            {
              "pitch": 36,
              "velocity": 100,
              "position": 2.5,
              "duration": 0.004166666666666667
            },
            {
              "pitch": 53,
              "velocity": 56,
              "position": 2.5,
              "duration": 0.004166666666666667
            },
            {
              "pitch": 44,
              "velocity": 34,
              "position": 2.5,
              "duration": 0.004166666666666667
            },
            {
              "pitch": 38,
              "velocity": 116,
              "position": 3,
              "duration": 0.004166666666666667
            },
            {
              "pitch": 53,
              "velocity": 115,
              "position": 3,
              "duration": 0.004166666666666667
            },
            {
              "pitch": 44,
              "velocity": 64,
              "position": 3,
              "duration": 0.004166666666666667
            },
            {
              "pitch": 36,
              "velocity": 80,
              "position": 3.5,
              "duration": 0.004166666666666667
            },
            {
              "pitch": 53,
              "velocity": 56,
              "position": 3.5,
              "duration": 0.004166666666666667
            },
            {
              "pitch": 44,
              "velocity": 34,
              "position": 3.5,
              "duration": 0.004166666666666667
            },
            {
              "pitch": 36,
              "velocity": 100,
              "position": 4,
              "duration": 0.004166666666666667
            },
            {
              "pitch": 53,
              "velocity": 115,
              "position": 4,
              "duration": 0.004166666666666667
            },
            {
              "pitch": 44,
              "velocity": 64,
              "position": 4,
              "duration": 0.004166666666666667
            },
            {
              "pitch": 36,
              "velocity": 80,
              "position": 4.5,
              "duration": 0.004166666666666667
            },
            {
              "pitch": 53,
              "velocity": 56,
              "position": 4.5,
              "duration": 0.004166666666666667
            },
            {
              "pitch": 44,
              "velocity": 34,
              "position": 4.5,
              "duration": 0.004166666666666667
            },
            {
              "pitch": 38,
              "velocity": 116,
              "position": 5,
              "duration": 0.004166666666666667
            },
            {
              "pitch": 53,
              "velocity": 115,
              "position": 5,
              "duration": 0.004166666666666667
            },
            {
              "pitch": 44,
              "velocity": 64,
              "position": 5,
              "duration": 0.004166666666666667
            },
            {
              "pitch": 36,
              "velocity": 80,
              "position": 5.5,
              "duration": 0.004166666666666667
            },
            {
              "pitch": 53,
              "velocity": 56,
              "position": 5.5,
              "duration": 0.004166666666666667
            },
            {
              "pitch": 44,
              "velocity": 34,
              "position": 5.5,
              "duration": 0.004166666666666667
            },
            {
              "pitch": 38,
              "velocity": 48,
              "position": 5.75,
              "duration": 0.004166666666666667
            },
            {
              "pitch": 36,
              "velocity": 100,
              "position": 6,
              "duration": 0.004166666666666667
            },
            {
              "pitch": 53,
              "velocity": 115,
              "position": 6,
              "duration": 0.004166666666666667
            },
            {
              "pitch": 44,
              "velocity": 64,
              "position": 6,
              "duration": 0.004166666666666667
            },
            {
              "pitch": 38,
              "velocity": 29,
              "position": 6.25,
              "duration": 0.004166666666666667
            },
            {
              "pitch": 36,
              "velocity": 100,
              "position": 6.5,
              "duration": 0.004166666666666667
            },
            {
              "pitch": 53,
              "velocity": 56,
              "position": 6.5,
              "duration": 0.004166666666666667
            },
            {
              "pitch": 44,
              "velocity": 34,
              "position": 6.5,
              "duration": 0.004166666666666667
            },
            {
              "pitch": 38,
              "velocity": 116,
              "position": 7,
              "duration": 0.004166666666666667
            },
            {
              "pitch": 53,
              "velocity": 115,
              "position": 7,
              "duration": 0.004166666666666667
            },
            {
              "pitch": 44,
              "velocity": 64,
              "position": 7,
              "duration": 0.004166666666666667
            },
            {
              "pitch": 36,
              "velocity": 80,
              "position": 7.5,
              "duration": 0.004166666666666667
            },
            {
              "pitch": 53,
              "velocity": 56,
              "position": 7.5,
              "duration": 0.004166666666666667
            },
            {
              "pitch": 44,
              "velocity": 34,
              "position": 7.5,
              "duration": 0.004166666666666667
            },
            {
              "pitch": 36,
              "velocity": 100,
              "position": 8,
              "duration": 0.004166666666666667
            },
            {
              "pitch": 53,
              "velocity": 115,
              "position": 8,
              "duration": 0.004166666666666667
            },
            {
              "pitch": 44,
              "velocity": 64,
              "position": 8,
              "duration": 0.004166666666666667
            },
            {
              "pitch": 36,
              "velocity": 80,
              "position": 8.5,
              "duration": 0.004166666666666667
            },
            {
              "pitch": 53,
              "velocity": 56,
              "position": 8.5,
              "duration": 0.004166666666666667
            },
            {
              "pitch": 44,
              "velocity": 34,
              "position": 8.5,
              "duration": 0.004166666666666667
            },
            {
              "pitch": 38,
              "velocity": 116,
              "position": 9,
              "duration": 0.004166666666666667
            },
            {
              "pitch": 53,
              "velocity": 115,
              "position": 9,
              "duration": 0.004166666666666667
            },
            {
              "pitch": 44,
              "velocity": 64,
              "position": 9,
              "duration": 0.004166666666666667
            },
            {
              "pitch": 36,
              "velocity": 80,
              "position": 9.5,
              "duration": 0.004166666666666667
            },
            {
              "pitch": 53,
              "velocity": 56,
              "position": 9.5,
              "duration": 0.004166666666666667
            },
            {
              "pitch": 44,
              "velocity": 34,
              "position": 9.5,
              "duration": 0.004166666666666667
            },
            {
              "pitch": 38,
              "velocity": 48,
              "position": 9.75,
              "duration": 0.004166666666666667
            },
            {
              "pitch": 36,
              "velocity": 100,
              "position": 10,
              "duration": 0.004166666666666667
            },
            {
              "pitch": 53,
              "velocity": 115,
              "position": 10,
              "duration": 0.004166666666666667
            },
            {
              "pitch": 44,
              "velocity": 64,
              "position": 10,
              "duration": 0.004166666666666667
            },
            {
              "pitch": 38,
              "velocity": 29,
              "position": 10.25,
              "duration": 0.004166666666666667
            },
            {
              "pitch": 36,
              "velocity": 100,
              "position": 10.5,
              "duration": 0.004166666666666667
            },
            {
              "pitch": 53,
              "velocity": 56,
              "position": 10.5,
              "duration": 0.004166666666666667
            },
            {
              "pitch": 44,
              "velocity": 34,
              "position": 10.5,
              "duration": 0.004166666666666667
            },
            {
              "pitch": 38,
              "velocity": 116,
              "position": 11,
              "duration": 0.004166666666666667
            },
            {
              "pitch": 53,
              "velocity": 115,
              "position": 11,
              "duration": 0.004166666666666667
            },
            {
              "pitch": 44,
              "velocity": 64,
              "position": 11,
              "duration": 0.004166666666666667
            },
            {
              "pitch": 36,
              "velocity": 80,
              "position": 11.5,
              "duration": 0.004166666666666667
            },
            {
              "pitch": 53,
              "velocity": 56,
              "position": 11.5,
              "duration": 0.004166666666666667
            },
            {
              "pitch": 44,
              "velocity": 34,
              "position": 11.5,
              "duration": 0.004166666666666667
            },
            {
              "pitch": 36,
              "velocity": 100,
              "position": 12,
              "duration": 0.004166666666666667
            },
            {
              "pitch": 53,
              "velocity": 115,
              "position": 12,
              "duration": 0.004166666666666667
            },
            {
              "pitch": 44,
              "velocity": 64,
              "position": 12,
              "duration": 0.004166666666666667
            },
            {
              "pitch": 36,
              "velocity": 80,
              "position": 12.5,
              "duration": 0.004166666666666667
            },
            {
              "pitch": 53,
              "velocity": 56,
              "position": 12.5,
              "duration": 0.004166666666666667
            },
            {
              "pitch": 44,
              "velocity": 34,
              "position": 12.5,
              "duration": 0.004166666666666667
            },
            {
              "pitch": 38,
              "velocity": 116,
              "position": 13,
              "duration": 0.004166666666666667
            },
            {
              "pitch": 53,
              "velocity": 115,
              "position": 13,
              "duration": 0.004166666666666667
            },
            {
              "pitch": 44,
              "velocity": 64,
              "position": 13,
              "duration": 0.004166666666666667
            },
            {
              "pitch": 36,
              "velocity": 80,
              "position": 13.5,
              "duration": 0.004166666666666667
            },
            {
              "pitch": 53,
              "velocity": 56,
              "position": 13.5,
              "duration": 0.004166666666666667
            },
            {
              "pitch": 44,
              "velocity": 34,
              "position": 13.5,
              "duration": 0.004166666666666667
            },
            {
              "pitch": 38,
              "velocity": 48,
              "position": 13.75,
              "duration": 0.004166666666666667
            },
            {
              "pitch": 38,
              "velocity": 122,
              "position": 14,
              "duration": 0.004166666666666667
            },
            {
              "pitch": 38,
              "velocity": 116,
              "position": 14.25,
              "duration": 0.004166666666666667
            },
            {
              "pitch": 36,
              "velocity": 100,
              "position": 14.5,
              "duration": 0.004166666666666667
            },
            {
              "pitch": 46,
              "velocity": 35,
              "position": 14.5,
              "duration": 0.004166666666666667
            },
            {
              "pitch": 43,
              "velocity": 98,
              "position": 14.5,
              "duration": 0.004166666666666667
            },
            {
              "pitch": 38,
              "velocity": 80,
              "position": 14.75,
              "duration": 0.004166666666666667
            },
            {
              "pitch": 38,
              "velocity": 102,
              "position": 15,
              "duration": 0.004166666666666667
            },
            {
              "pitch": 46,
              "velocity": 80,
              "position": 15,
              "duration": 0.004166666666666667
            },
            {
              "pitch": 38,
              "velocity": 122,
              "position": 15.072916666666666,
              "duration": 0.00625
            },
            {
              "pitch": 36,
              "velocity": 80,
              "position": 15.5,
              "duration": 0.004166666666666667
            },
            {
              "pitch": 46,
              "velocity": 35,
              "position": 15.5,
              "duration": 0.004166666666666667
            },
            {
              "pitch": 38,
              "velocity": 116,
              "position": 15.5,
              "duration": 0.004166666666666667
            },
            {
              "pitch": 38,
              "velocity": 104,
              "position": 15.75,
              "duration": 0.004166666666666667
            },
            {
              "pitch": 36,
              "velocity": 100,
              "position": 16,
              "duration": 0.004166666666666667
            },
            {
              "pitch": 57,
              "velocity": 95,
              "position": 16,
              "duration": 0.004166666666666667
            },
            {
              "pitch": 44,
              "velocity": 64,
              "position": 16,
              "duration": 0.004166666666666667
            },
            {
              "pitch": 36,
              "velocity": 80,
              "position": 16.5,
              "duration": 0.004166666666666667
            },
            {
              "pitch": 53,
              "velocity": 56,
              "position": 16.5,
              "duration": 0.004166666666666667
            },
            {
              "pitch": 44,
              "velocity": 34,
              "position": 16.5,
              "duration": 0.004166666666666667
            },
            {
              "pitch": 38,
              "velocity": 116,
              "position": 17,
              "duration": 0.004166666666666667
            },
            {
              "pitch": 53,
              "velocity": 115,
              "position": 17,
              "duration": 0.004166666666666667
            },
            {
              "pitch": 44,
              "velocity": 64,
              "position": 17,
              "duration": 0.004166666666666667
            },
            {
              "pitch": 36,
              "velocity": 80,
              "position": 17.5,
              "duration": 0.004166666666666667
            },
            {
              "pitch": 53,
              "velocity": 56,
              "position": 17.5,
              "duration": 0.004166666666666667
            },
            {
              "pitch": 44,
              "velocity": 34,
              "position": 17.5,
              "duration": 0.004166666666666667
            },
            {
              "pitch": 38,
              "velocity": 48,
              "position": 17.75,
              "duration": 0.004166666666666667
            },
            {
              "pitch": 36,
              "velocity": 100,
              "position": 18,
              "duration": 0.004166666666666667
            },
            {
              "pitch": 53,
              "velocity": 115,
              "position": 18,
              "duration": 0.004166666666666667
            },
            {
              "pitch": 44,
              "velocity": 64,
              "position": 18,
              "duration": 0.004166666666666667
            },
            {
              "pitch": 38,
              "velocity": 29,
              "position": 18.25,
              "duration": 0.004166666666666667
            },
            {
              "pitch": 36,
              "velocity": 100,
              "position": 18.5,
              "duration": 0.004166666666666667
            },
            {
              "pitch": 53,
              "velocity": 56,
              "position": 18.5,
              "duration": 0.004166666666666667
            },
            {
              "pitch": 44,
              "velocity": 34,
              "position": 18.5,
              "duration": 0.004166666666666667
            },
            {
              "pitch": 38,
              "velocity": 116,
              "position": 19,
              "duration": 0.004166666666666667
            },
            {
              "pitch": 53,
              "velocity": 115,
              "position": 19,
              "duration": 0.004166666666666667
            },
            {
              "pitch": 44,
              "velocity": 64,
              "position": 19,
              "duration": 0.004166666666666667
            },
            {
              "pitch": 36,
              "velocity": 80,
              "position": 19.5,
              "duration": 0.004166666666666667
            },
            {
              "pitch": 53,
              "velocity": 56,
              "position": 19.5,
              "duration": 0.004166666666666667
            },
            {
              "pitch": 44,
              "velocity": 34,
              "position": 19.5,
              "duration": 0.004166666666666667
            },
            {
              "pitch": 36,
              "velocity": 100,
              "position": 20,
              "duration": 0.004166666666666667
            },
            {
              "pitch": 53,
              "velocity": 115,
              "position": 20,
              "duration": 0.004166666666666667
            },
            {
              "pitch": 44,
              "velocity": 64,
              "position": 20,
              "duration": 0.004166666666666667
            },
            {
              "pitch": 36,
              "velocity": 80,
              "position": 20.5,
              "duration": 0.004166666666666667
            },
            {
              "pitch": 53,
              "velocity": 56,
              "position": 20.5,
              "duration": 0.004166666666666667
            },
            {
              "pitch": 44,
              "velocity": 34,
              "position": 20.5,
              "duration": 0.004166666666666667
            },
            {
              "pitch": 38,
              "velocity": 116,
              "position": 21,
              "duration": 0.004166666666666667
            },
            {
              "pitch": 53,
              "velocity": 115,
              "position": 21,
              "duration": 0.004166666666666667
            },
            {
              "pitch": 44,
              "velocity": 64,
              "position": 21,
              "duration": 0.004166666666666667
            },
            {
              "pitch": 36,
              "velocity": 80,
              "position": 21.5,
              "duration": 0.004166666666666667
            },
            {
              "pitch": 53,
              "velocity": 56,
              "position": 21.5,
              "duration": 0.004166666666666667
            },
            {
              "pitch": 44,
              "velocity": 34,
              "position": 21.5,
              "duration": 0.004166666666666667
            },
            {
              "pitch": 38,
              "velocity": 48,
              "position": 21.75,
              "duration": 0.004166666666666667
            },
            {
              "pitch": 36,
              "velocity": 100,
              "position": 22,
              "duration": 0.004166666666666667
            },
            {
              "pitch": 53,
              "velocity": 115,
              "position": 22,
              "duration": 0.004166666666666667
            },
            {
              "pitch": 44,
              "velocity": 64,
              "position": 22,
              "duration": 0.004166666666666667
            },
            {
              "pitch": 38,
              "velocity": 29,
              "position": 22.25,
              "duration": 0.004166666666666667
            },
            {
              "pitch": 36,
              "velocity": 100,
              "position": 22.5,
              "duration": 0.004166666666666667
            },
            {
              "pitch": 53,
              "velocity": 56,
              "position": 22.5,
              "duration": 0.004166666666666667
            },
            {
              "pitch": 44,
              "velocity": 34,
              "position": 22.5,
              "duration": 0.004166666666666667
            },
            {
              "pitch": 38,
              "velocity": 116,
              "position": 23,
              "duration": 0.004166666666666667
            },
            {
              "pitch": 53,
              "velocity": 115,
              "position": 23,
              "duration": 0.004166666666666667
            },
            {
              "pitch": 44,
              "velocity": 64,
              "position": 23,
              "duration": 0.004166666666666667
            },
            {
              "pitch": 36,
              "velocity": 80,
              "position": 23.5,
              "duration": 0.004166666666666667
            },
            {
              "pitch": 53,
              "velocity": 56,
              "position": 23.5,
              "duration": 0.004166666666666667
            },
            {
              "pitch": 44,
              "velocity": 34,
              "position": 23.5,
              "duration": 0.004166666666666667
            },
            {
              "pitch": 36,
              "velocity": 100,
              "position": 24,
              "duration": 0.004166666666666667
            },
            {
              "pitch": 49,
              "velocity": 92,
              "position": 24,
              "duration": 0.004166666666666667
            },
            {
              "pitch": 44,
              "velocity": 64,
              "position": 24,
              "duration": 0.004166666666666667
            },
            {
              "pitch": 36,
              "velocity": 80,
              "position": 24.5,
              "duration": 0.004166666666666667
            },
            {
              "pitch": 53,
              "velocity": 56,
              "position": 24.5,
              "duration": 0.004166666666666667
            },
            {
              "pitch": 44,
              "velocity": 34,
              "position": 24.5,
              "duration": 0.004166666666666667
            },
            {
              "pitch": 38,
              "velocity": 116,
              "position": 25,
              "duration": 0.004166666666666667
            },
            {
              "pitch": 57,
              "velocity": 80,
              "position": 25,
              "duration": 0.004166666666666667
            },
            {
              "pitch": 44,
              "velocity": 64,
              "position": 25,
              "duration": 0.004166666666666667
            },
            {
              "pitch": 38,
              "velocity": 102,
              "position": 25.5,
              "duration": 0.004166666666666667
            },
            {
              "pitch": 55,
              "velocity": 92,
              "position": 25.5,
              "duration": 0.004166666666666667
            },
            {
              "pitch": 44,
              "velocity": 34,
              "position": 25.5,
              "duration": 0.004166666666666667
            },
            {
              "pitch": 36,
              "velocity": 100,
              "position": 26,
              "duration": 0.004166666666666667
            },
            {
              "pitch": 44,
              "velocity": 64,
              "position": 26,
              "duration": 0.004166666666666667
            },
            {
              "pitch": 38,
              "velocity": 48,
              "position": 26.25,
              "duration": 0.004166666666666667
            },
            {
              "pitch": 36,
              "velocity": 100,
              "position": 26.5,
              "duration": 0.004166666666666667
            },
            {
              "pitch": 57,
              "velocity": 106,
              "position": 26.5,
              "duration": 0.004166666666666667
            },
            {
              "pitch": 44,
              "velocity": 34,
              "position": 26.5,
              "duration": 0.004166666666666667
            },
            {
              "pitch": 38,
              "velocity": 62,
              "position": 26.666666666666668,
              "duration": 0.004166666666666667
            },
            {
              "pitch": 38,
              "velocity": 98,
              "position": 26.833333333333332,
              "duration": 0.004166666666666667
            },
            {
              "pitch": 38,
              "velocity": 122,
              "position": 27,
              "duration": 0.004166666666666667
            },
            {
              "pitch": 44,
              "velocity": 64,
              "position": 27,
              "duration": 0.004166666666666667
            },
            {
              "pitch": 38,
              "velocity": 116,
              "position": 27.25,
              "duration": 0.004166666666666667
            },
            {
              "pitch": 36,
              "velocity": 80,
              "position": 27.5,
              "duration": 0.004166666666666667
            },
            {
              "pitch": 46,
              "velocity": 35,
              "position": 27.5,
              "duration": 0.004166666666666667
            },
            {
              "pitch": 45,
              "velocity": 104,
              "position": 27.5,
              "duration": 0.004166666666666667
            },
            {
              "pitch": 43,
              "velocity": 104,
              "position": 27.75,
              "duration": 0.004166666666666667
            },
            {
              "pitch": 36,
              "velocity": 100,
              "position": 28,
              "duration": 0.004166666666666667
            },
            {
              "pitch": 55,
              "velocity": 91,
              "position": 28,
              "duration": 0.004166666666666667
            },
            {
              "pitch": 41,
              "velocity": 104,
              "position": 28,
              "duration": 0.004166666666666667
            },
            {
              "pitch": 36,
              "velocity": 80,
              "position": 28.5,
              "duration": 0.004166666666666667
            },
            {
              "pitch": 53,
              "velocity": 56,
              "position": 28.5,
              "duration": 0.004166666666666667
            },
            {
              "pitch": 46,
              "velocity": 100,
              "position": 28.5,
              "duration": 0.004166666666666667
            },
            {
              "pitch": 38,
              "velocity": 116,
              "position": 28.5,
              "duration": 0.004166666666666667
            },
            {
              "pitch": 44,
              "velocity": 30,
              "position": 29,
              "duration": 0.004166666666666667
            },
            {
              "pitch": 36,
              "velocity": 80,
              "position": 29.5,
              "duration": 0.004166666666666667
            },
            {
              "pitch": 49,
              "velocity": 110,
              "position": 29.5,
              "duration": 0.004166666666666667
            },
            {
              "pitch": 48,
              "velocity": 80,
              "position": 29.635416666666668,
              "duration": 0.004166666666666667
            },
            {
              "pitch": 36,
              "velocity": 76,
              "position": 29.75,
              "duration": 0.004166666666666667
            },
            {
              "pitch": 36,
              "velocity": 70,
              "position": 29.875,
              "duration": 0.00625
            },
            {
              "pitch": 45,
              "velocity": 47,
              "position": 29.875,
              "duration": 0.00625
            },
            {
              "pitch": 47,
              "velocity": 73,
              "position": 30.0125,
              "duration": 0.00625
            },
            {
              "pitch": 36,
              "velocity": 76,
              "position": 30.145833333333332,
              "duration": 0.004166666666666667
            },
            {
              "pitch": 36,
              "velocity": 66,
              "position": 30.270833333333332,
              "duration": 0.00625
            },
            {
              "pitch": 43,
              "velocity": 56,
              "position": 30.270833333333332,
              "duration": 0.00625
            },
            {
              "pitch": 45,
              "velocity": 80,
              "position": 30.40625,
              "duration": 0.00625
            },
            {
              "pitch": 36,
              "velocity": 76,
              "position": 30.53125,
              "duration": 0.00625
            },
            {
              "pitch": 36,
              "velocity": 80,
              "position": 30.666666666666668,
              "duration": 0.004166666666666667
            },
            {
              "pitch": 45,
              "velocity": 52,
              "position": 30.666666666666668,
              "duration": 0.004166666666666667
            },
            {
              "pitch": 47,
              "velocity": 83,
              "position": 30.802083333333332,
              "duration": 0.004166666666666667
            },
            {
              "pitch": 36,
              "velocity": 76,
              "position": 30.916666666666668,
              "duration": 0.004166666666666667
            },
            {
              "pitch": 36,
              "velocity": 70,
              "position": 31.041666666666668,
              "duration": 0.00625
            },
            {
              "pitch": 43,
              "velocity": 56,
              "position": 31.041666666666668,
              "duration": 0.00625
            },
            {
              "pitch": 45,
              "velocity": 80,
              "position": 31.179166666666667,
              "duration": 0.00625
            },
            {
              "pitch": 36,
              "velocity": 76,
              "position": 31.3125,
              "duration": 0.004166666666666667
            },
            {
              "pitch": 36,
              "velocity": 66,
              "position": 31.4375,
              "duration": 0.00625
            },
            {
              "pitch": 41,
              "velocity": 58,
              "position": 31.4375,
              "duration": 0.00625
            },
            {
              "pitch": 43,
              "velocity": 80,
              "position": 31.572916666666668,
              "duration": 0.00625
            },
            {
              "pitch": 36,
              "velocity": 76,
              "position": 31.697916666666668,
              "duration": 0.00625
            },
            {
              "pitch": 36,
              "velocity": 80,
              "position": 31.833333333333332,
              "duration": 0.004166666666666667
            },
            {
              "pitch": 47,
              "velocity": 52,
              "position": 31.833333333333332,
              "duration": 0.004166666666666667
            },
            {
              "pitch": 48,
              "velocity": 83,
              "position": 31.96875,
              "duration": 0.004166666666666667
            },
            {
              "pitch": 36,
              "velocity": 76,
              "position": 32.083333333333336,
              "duration": 0.004166666666666667
            },
            {
              "pitch": 36,
              "velocity": 70,
              "position": 32.208333333333336,
              "duration": 0.00625
            },
            {
              "pitch": 45,
              "velocity": 56,
              "position": 32.208333333333336,
              "duration": 0.00625
            },
            {
              "pitch": 47,
              "velocity": 73,
              "position": 32.34583333333333,
              "duration": 0.00625
            },
            {
              "pitch": 36,
              "velocity": 76,
              "position": 32.479166666666664,
              "duration": 0.004166666666666667
            },
            {
              "pitch": 36,
              "velocity": 66,
              "position": 32.604166666666664,
              "duration": 0.00625
            },
            {
              "pitch": 43,
              "velocity": 56,
              "position": 32.604166666666664,
              "duration": 0.00625
            },
            {
              "pitch": 45,
              "velocity": 80,
              "position": 32.739583333333336,
              "duration": 0.00625
            },
            {
              "pitch": 36,
              "velocity": 76,
              "position": 32.864583333333336,
              "duration": 0.00625
            },
            {
              "pitch": 36,
              "velocity": 80,
              "position": 33,
              "duration": 0.004166666666666667
            },
            {
              "pitch": 45,
              "velocity": 60,
              "position": 33,
              "duration": 0.004166666666666667
            },
            {
              "pitch": 47,
              "velocity": 83,
              "position": 33.135416666666664,
              "duration": 0.004166666666666667
            },
            {
              "pitch": 36,
              "velocity": 76,
              "position": 33.25,
              "duration": 0.004166666666666667
            },
            {
              "pitch": 36,
              "velocity": 70,
              "position": 33.375,
              "duration": 0.00625
            },
            {
              "pitch": 43,
              "velocity": 56,
              "position": 33.375,
              "duration": 0.00625
            },
            {
              "pitch": 45,
              "velocity": 80,
              "position": 33.5125,
              "duration": 0.00625
            },
            {
              "pitch": 36,
              "velocity": 76,
              "position": 33.645833333333336,
              "duration": 0.004166666666666667
            },
            {
              "pitch": 36,
              "velocity": 66,
              "position": 33.770833333333336,
              "duration": 0.00625
            },
            {
              "pitch": 41,
              "velocity": 58,
              "position": 33.770833333333336,
              "duration": 0.00625
            },
            {
              "pitch": 43,
              "velocity": 80,
              "position": 33.90625,
              "duration": 0.00625
            },
            {
              "pitch": 36,
              "velocity": 76,
              "position": 34.03125,
              "duration": 0.00625
            },
            {
              "pitch": 36,
              "velocity": 80,
              "position": 34.166666666666664,
              "duration": 0.004166666666666667
            },
            {
              "pitch": 47,
              "velocity": 56,
              "position": 34.166666666666664,
              "duration": 0.004166666666666667
            },
            {
              "pitch": 48,
              "velocity": 83,
              "position": 34.302083333333336,
              "duration": 0.004166666666666667
            },
            {
              "pitch": 36,
              "velocity": 76,
              "position": 34.416666666666664,
              "duration": 0.004166666666666667
            },
            {
              "pitch": 36,
              "velocity": 70,
              "position": 34.541666666666664,
              "duration": 0.00625
            },
            {
              "pitch": 45,
              "velocity": 56,
              "position": 34.541666666666664,
              "duration": 0.00625
            },
            {
              "pitch": 47,
              "velocity": 73,
              "position": 34.67916666666667,
              "duration": 0.00625
            },
            {
              "pitch": 36,
              "velocity": 76,
              "position": 34.8125,
              "duration": 0.004166666666666667
            },
            {
              "pitch": 36,
              "velocity": 66,
              "position": 34.9375,
              "duration": 0.00625
            },
            {
              "pitch": 43,
              "velocity": 56,
              "position": 34.9375,
              "duration": 0.00625
            },
            {
              "pitch": 45,
              "velocity": 80,
              "position": 35.072916666666664,
              "duration": 0.00625
            },
            {
              "pitch": 36,
              "velocity": 76,
              "position": 35.197916666666664,
              "duration": 0.00625
            },
            {
              "pitch": 36,
              "velocity": 80,
              "position": 35.333333333333336,
              "duration": 0.004166666666666667
            },
            {
              "pitch": 45,
              "velocity": 52,
              "position": 35.333333333333336,
              "duration": 0.004166666666666667
            },
            {
              "pitch": 47,
              "velocity": 83,
              "position": 35.46875,
              "duration": 0.004166666666666667
            },
            {
              "pitch": 36,
              "velocity": 76,
              "position": 35.583333333333336,
              "duration": 0.004166666666666667
            },
            {
              "pitch": 36,
              "velocity": 70,
              "position": 35.708333333333336,
              "duration": 0.00625
            },
            {
              "pitch": 43,
              "velocity": 56,
              "position": 35.708333333333336,
              "duration": 0.00625
            },
            {
              "pitch": 45,
              "velocity": 80,
              "position": 35.84583333333333,
              "duration": 0.00625
            },
            {
              "pitch": 36,
              "velocity": 76,
              "position": 35.979166666666664,
              "duration": 0.004166666666666667
            },
            {
              "pitch": 36,
              "velocity": 66,
              "position": 36.104166666666664,
              "duration": 0.00625
            },
            {
              "pitch": 41,
              "velocity": 58,
              "position": 36.104166666666664,
              "duration": 0.00625
            },
            {
              "pitch": 43,
              "velocity": 90,
              "position": 36.239583333333336,
              "duration": 0.00625
            },
            {
              "pitch": 36,
              "velocity": 76,
              "position": 36.364583333333336,
              "duration": 0.00625
            },
            {
              "pitch": 36,
              "velocity": 80,
              "position": 36.5,
              "duration": 0.004166666666666667
            },
            {
              "pitch": 47,
              "velocity": 56,
              "position": 36.5,
              "duration": 0.004166666666666667
            },
            {
              "pitch": 48,
              "velocity": 83,
              "position": 36.635416666666664,
              "duration": 0.004166666666666667
            },
            {
              "pitch": 36,
              "velocity": 76,
              "position": 36.75,
              "duration": 0.004166666666666667
            },
            {
              "pitch": 36,
              "velocity": 70,
              "position": 36.875,
              "duration": 0.00625
            },
            {
              "pitch": 45,
              "velocity": 56,
              "position": 36.875,
              "duration": 0.00625
            },
            {
              "pitch": 47,
              "velocity": 73,
              "position": 37.0125,
              "duration": 0.00625
            },
            {
              "pitch": 36,
              "velocity": 76,
              "position": 37.145833333333336,
              "duration": 0.004166666666666667
            },
            {
              "pitch": 36,
              "velocity": 66,
              "position": 37.270833333333336,
              "duration": 0.00625
            },
            {
              "pitch": 43,
              "velocity": 56,
              "position": 37.270833333333336,
              "duration": 0.00625
            },
            {
              "pitch": 45,
              "velocity": 90,
              "position": 37.40625,
              "duration": 0.00625
            },
            {
              "pitch": 36,
              "velocity": 76,
              "position": 37.53125,
              "duration": 0.00625
            },
            {
              "pitch": 36,
              "velocity": 80,
              "position": 37.666666666666664,
              "duration": 0.004166666666666667
            },
            {
              "pitch": 45,
              "velocity": 66,
              "position": 37.666666666666664,
              "duration": 0.004166666666666667
            },
            {
              "pitch": 36,
              "velocity": 70,
              "position": 37.802083333333336,
              "duration": 0.004166666666666667
            },
            {
              "pitch": 47,
              "velocity": 94,
              "position": 37.802083333333336,
              "duration": 0.004166666666666667
            },
            {
              "pitch": 36,
              "velocity": 60,
              "position": 37.916666666666664,
              "duration": 0.004166666666666667
            },
            {
              "pitch": 41,
              "velocity": 54,
              "position": 37.916666666666664,
              "duration": 0.004166666666666667
            },
            {
              "pitch": 43,
              "velocity": 52,
              "position": 37.9375,
              "duration": 0.004166666666666667
            },
            {
              "pitch": 36,
              "velocity": 70,
              "position": 38.041666666666664,
              "duration": 0.00625
            },
            {
              "pitch": 43,
              "velocity": 74,
              "position": 38.041666666666664,
              "duration": 0.00625
            },
            {
              "pitch": 45,
              "velocity": 98,
              "position": 38.0625,
              "duration": 0.00625
            },
            {
              "pitch": 36,
              "velocity": 70,
              "position": 38.17916666666667,
              "duration": 0.00625
            },
            {
              "pitch": 45,
              "velocity": 60,
              "position": 38.17916666666667,
              "duration": 0.00625
            },
            {
              "pitch": 47,
              "velocity": 83,
              "position": 38.197916666666664,
              "duration": 0.00625
            },
            {
              "pitch": 36,
              "velocity": 60,
              "position": 38.3125,
              "duration": 0.004166666666666667
            },
            {
              "pitch": 43,
              "velocity": 50,
              "position": 38.3125,
              "duration": 0.004166666666666667
            },
            {
              "pitch": 45,
              "velocity": 50,
              "position": 38.333333333333336,
              "duration": 0.004166666666666667
            },
            {
              "pitch": 36,
              "velocity": 50,
              "position": 38.4375,
              "duration": 0.00625
            },
            {
              "pitch": 45,
              "velocity": 74,
              "position": 38.4375,
              "duration": 0.00625
            },
            {
              "pitch": 47,
              "velocity": 88,
              "position": 38.458333333333336,
              "duration": 0.004166666666666667
            },
            {
              "pitch": 36,
              "velocity": 70,
              "position": 38.572916666666664,
              "duration": 0.00625
            },
            {
              "pitch": 47,
              "velocity": 74,
              "position": 38.572916666666664,
              "duration": 0.00625
            },
            {
              "pitch": 48,
              "velocity": 93,
              "position": 38.59375,
              "duration": 0.00625
            },
            {
              "pitch": 36,
              "velocity": 60,
              "position": 38.697916666666664,
              "duration": 0.00625
            },
            {
              "pitch": 38,
              "velocity": 40,
              "position": 38.697916666666664,
              "duration": 0.00625
            },
            {
              "pitch": 36,
              "velocity": 80,
              "position": 38.833333333333336,
              "duration": 0.004166666666666667
            },
            {
              "pitch": 38,
              "velocity": 58,
              "position": 38.833333333333336,
              "duration": 0.004166666666666667
            },
            {
              "pitch": 36,
              "velocity": 70,
              "position": 38.96875,
              "duration": 0.004166666666666667
            },
            {
              "pitch": 38,
              "velocity": 68,
              "position": 38.96875,
              "duration": 0.004166666666666667
            },
            {
              "pitch": 36,
              "velocity": 60,
              "position": 39.083333333333336,
              "duration": 0.004166666666666667
            },
            {
              "pitch": 38,
              "velocity": 78,
              "position": 39.083333333333336,
              "duration": 0.004166666666666667
            },
            {
              "pitch": 36,
              "velocity": 70,
              "position": 39.208333333333336,
              "duration": 0.00625
            },
            {
              "pitch": 38,
              "velocity": 100,
              "position": 39.208333333333336,
              "duration": 0.00625
            },
            {
              "pitch": 36,
              "velocity": 80,
              "position": 39.34583333333333,
              "duration": 0.00625
            },
            {
              "pitch": 55,
              "velocity": 70,
              "position": 39.34583333333333,
              "duration": 0.00625
            },
            {
              "pitch": 38,
              "velocity": 110,
              "position": 39.34583333333333,
              "duration": 0.00625
            },
            {
              "pitch": 36,
              "velocity": 90,
              "position": 39.479166666666664,
              "duration": 0.004166666666666667
            },
            {
              "pitch": 57,
              "velocity": 68,
              "position": 39.479166666666664,
              "duration": 0.004166666666666667
            },
            {
              "pitch": 38,
              "velocity": 90,
              "position": 39.479166666666664,
              "duration": 0.004166666666666667
            },
            {
              "pitch": 36,
              "velocity": 100,
              "position": 39.604166666666664,
              "duration": 0.00625
            },
            {
              "pitch": 52,
              "velocity": 100,
              "position": 39.604166666666664,
              "duration": 0.00625
            },
            {
              "pitch": 38,
              "velocity": 110,
              "position": 39.604166666666664,
              "duration": 0.00625
            },
            {
              "pitch": 36,
              "velocity": 100,
              "position": 39.739583333333336,
              "duration": 0.00625
            },
            {
              "pitch": 57,
              "velocity": 98,
              "position": 39.739583333333336,
              "duration": 0.00625
            },
            {
              "pitch": 49,
              "velocity": 90,
              "position": 39.739583333333336,
              "duration": 0.00625
            },
            {
              "pitch": 38,
              "velocity": 121,
              "position": 39.739583333333336,
              "duration": 0.00625
            },
            {
              "pitch": 36,
              "velocity": 100,
              "position": 40.322916666666664,
              "duration": 0.00625
            },
            {
              "pitch": 57,
              "velocity": 110,
              "position": 40.322916666666664,
              "duration": 0.00625
            },
            {
              "pitch": 49,
              "velocity": 110,
              "position": 40.322916666666664,
              "duration": 0.00625
            },
            {
              "pitch": 38,
              "velocity": 110,
              "position": 40.322916666666664,
              "duration": 0.00625
            }
          ]
        },
        "10": {
          "ctab": {
            "srcChannel": 10,
            "name": "Bass",
            "accType": "BASS",
            "editable": false,
            "mutedNotes": [],
            "mutedChords": [
              "dim7",
              "dim",
              "minMaj7(9)",
              "minMaj7",
              "min7(11)",
              "min7(9)",
              "min(9)",
              "m7b5",
              "min7",
              "min6",
              "min"
            ],
            "autoStart": false,
            "sourceChordNote": 0,
            "sourceChordType": "Maj",
            "ctb2Low": null,
            "ctb2Main": {
              "ntr": "ROOT_TRANSPOSITION",
              "ntt": "BYPASS",
              "bassOn": false,
              "chordRootUpperLimit": 8,
              "noteLowLimit": 28,
              "noteHighLimit": 127,
              "rtr": "PITCH_SHIFT"
            },
            "ctb2High": null
          },
          "notes": [
            {
              "pitch": 24,
              "velocity": 80,
              "position": 0,
              "duration": 0.4375
            },
            {
              "pitch": 24,
              "velocity": 75,
              "position": 0.5,
              "duration": 0.1875
            },
            {
              "pitch": 24,
              "velocity": 72,
              "position": 0.75,
              "duration": 0.1875
            },
            {
              "pitch": 24,
              "velocity": 80,
              "position": 1,
              "duration": 0.4375
            },
            {
              "pitch": 24,
              "velocity": 75,
              "position": 1.5,
              "duration": 0.1875
            },
            {
              "pitch": 24,
              "velocity": 72,
              "position": 1.75,
              "duration": 0.1875
            },
            {
              "pitch": 24,
              "velocity": 80,
              "position": 2,
              "duration": 0.4375
            },
            {
              "pitch": 24,
              "velocity": 75,
              "position": 2.5,
              "duration": 0.1875
            },
            {
              "pitch": 24,
              "velocity": 72,
              "position": 2.75,
              "duration": 0.1875
            },
            {
              "pitch": 24,
              "velocity": 80,
              "position": 3,
              "duration": 0.4375
            },
            {
              "pitch": 24,
              "velocity": 75,
              "position": 3.5,
              "duration": 0.1875
            },
            {
              "pitch": 24,
              "velocity": 72,
              "position": 3.75,
              "duration": 0.1875
            },
            {
              "pitch": 24,
              "velocity": 80,
              "position": 4,
              "duration": 0.4375
            },
            {
              "pitch": 24,
              "velocity": 75,
              "position": 4.5,
              "duration": 0.1875
            },
            {
              "pitch": 24,
              "velocity": 72,
              "position": 4.75,
              "duration": 0.1875
            },
            {
              "pitch": 24,
              "velocity": 80,
              "position": 5,
              "duration": 0.4375
            },
            {
              "pitch": 24,
              "velocity": 75,
              "position": 5.5,
              "duration": 0.1875
            },
            {
              "pitch": 24,
              "velocity": 72,
              "position": 5.75,
              "duration": 0.1875
            },
            {
              "pitch": 24,
              "velocity": 80,
              "position": 6,
              "duration": 0.4375
            },
            {
              "pitch": 24,
              "velocity": 75,
              "position": 6.5,
              "duration": 0.1875
            },
            {
              "pitch": 24,
              "velocity": 72,
              "position": 6.75,
              "duration": 0.1875
            },
            {
              "pitch": 24,
              "velocity": 80,
              "position": 7,
              "duration": 0.4375
            },
            {
              "pitch": 24,
              "velocity": 75,
              "position": 7.5,
              "duration": 0.1875
            },
            {
              "pitch": 24,
              "velocity": 72,
              "position": 7.75,
              "duration": 0.1875
            },
            {
              "pitch": 24,
              "velocity": 80,
              "position": 8,
              "duration": 0.4375
            },
            {
              "pitch": 24,
              "velocity": 75,
              "position": 8.5,
              "duration": 0.1875
            },
            {
              "pitch": 24,
              "velocity": 72,
              "position": 8.75,
              "duration": 0.1875
            },
            {
              "pitch": 24,
              "velocity": 80,
              "position": 9,
              "duration": 0.4375
            },
            {
              "pitch": 24,
              "velocity": 75,
              "position": 9.5,
              "duration": 0.1875
            },
            {
              "pitch": 24,
              "velocity": 72,
              "position": 9.75,
              "duration": 0.1875
            },
            {
              "pitch": 24,
              "velocity": 80,
              "position": 10,
              "duration": 0.4375
            },
            {
              "pitch": 24,
              "velocity": 75,
              "position": 10.5,
              "duration": 0.1875
            },
            {
              "pitch": 24,
              "velocity": 72,
              "position": 10.75,
              "duration": 0.1875
            },
            {
              "pitch": 24,
              "velocity": 80,
              "position": 11,
              "duration": 0.4375
            },
            {
              "pitch": 24,
              "velocity": 75,
              "position": 11.5,
              "duration": 0.1875
            },
            {
              "pitch": 24,
              "velocity": 72,
              "position": 11.75,
              "duration": 0.1875
            },
            {
              "pitch": 24,
              "velocity": 80,
              "position": 12,
              "duration": 0.4375
            },
            {
              "pitch": 24,
              "velocity": 75,
              "position": 12.5,
              "duration": 0.1875
            },
            {
              "pitch": 24,
              "velocity": 72,
              "position": 12.75,
              "duration": 0.1875
            },
            {
              "pitch": 24,
              "velocity": 80,
              "position": 13,
              "duration": 0.4375
            },
            {
              "pitch": 24,
              "velocity": 75,
              "position": 13.5,
              "duration": 0.1875
            },
            {
              "pitch": 24,
              "velocity": 72,
              "position": 13.75,
              "duration": 0.1875
            },
            {
              "pitch": 24,
              "velocity": 80,
              "position": 14,
              "duration": 0.4375
            },
            {
              "pitch": 31,
              "velocity": 40,
              "position": 14.5,
              "duration": 0.4895833333333333
            },
            {
              "pitch": 34,
              "velocity": 40,
              "position": 15,
              "duration": 0.4895833333333333
            },
            {
              "pitch": 36,
              "velocity": 40,
              "position": 15.5,
              "duration": 0.4895833333333333
            },
            {
              "pitch": 24,
              "velocity": 80,
              "position": 16,
              "duration": 0.4375
            },
            {
              "pitch": 24,
              "velocity": 75,
              "position": 16.5,
              "duration": 0.1875
            },
            {
              "pitch": 24,
              "velocity": 72,
              "position": 16.75,
              "duration": 0.1875
            },
            {
              "pitch": 24,
              "velocity": 80,
              "position": 17,
              "duration": 0.4375
            },
            {
              "pitch": 24,
              "velocity": 75,
              "position": 17.5,
              "duration": 0.1875
            },
            {
              "pitch": 24,
              "velocity": 72,
              "position": 17.75,
              "duration": 0.1875
            },
            {
              "pitch": 24,
              "velocity": 80,
              "position": 18,
              "duration": 0.4375
            },
            {
              "pitch": 24,
              "velocity": 75,
              "position": 18.5,
              "duration": 0.1875
            },
            {
              "pitch": 24,
              "velocity": 72,
              "position": 18.75,
              "duration": 0.1875
            },
            {
              "pitch": 24,
              "velocity": 80,
              "position": 19,
              "duration": 0.4375
            },
            {
              "pitch": 24,
              "velocity": 75,
              "position": 19.5,
              "duration": 0.1875
            },
            {
              "pitch": 24,
              "velocity": 72,
              "position": 19.75,
              "duration": 0.1875
            },
            {
              "pitch": 24,
              "velocity": 80,
              "position": 20,
              "duration": 0.4375
            },
            {
              "pitch": 24,
              "velocity": 75,
              "position": 20.5,
              "duration": 0.1875
            },
            {
              "pitch": 24,
              "velocity": 72,
              "position": 20.75,
              "duration": 0.1875
            },
            {
              "pitch": 24,
              "velocity": 80,
              "position": 21,
              "duration": 0.4375
            },
            {
              "pitch": 24,
              "velocity": 75,
              "position": 21.5,
              "duration": 0.1875
            },
            {
              "pitch": 24,
              "velocity": 72,
              "position": 21.75,
              "duration": 0.1875
            },
            {
              "pitch": 24,
              "velocity": 80,
              "position": 22,
              "duration": 0.4375
            },
            {
              "pitch": 24,
              "velocity": 75,
              "position": 22.5,
              "duration": 0.1875
            },
            {
              "pitch": 24,
              "velocity": 72,
              "position": 22.75,
              "duration": 0.1875
            },
            {
              "pitch": 24,
              "velocity": 80,
              "position": 23,
              "duration": 0.4375
            },
            {
              "pitch": 24,
              "velocity": 75,
              "position": 23.5,
              "duration": 0.1875
            },
            {
              "pitch": 24,
              "velocity": 72,
              "position": 23.75,
              "duration": 0.1875
            },
            {
              "pitch": 24,
              "velocity": 80,
              "position": 24,
              "duration": 0.4375
            },
            {
              "pitch": 24,
              "velocity": 75,
              "position": 24.5,
              "duration": 0.1875
            },
            {
              "pitch": 24,
              "velocity": 72,
              "position": 24.75,
              "duration": 0.1875
            },
            {
              "pitch": 24,
              "velocity": 80,
              "position": 25,
              "duration": 0.4375
            },
            {
              "pitch": 24,
              "velocity": 75,
              "position": 25.5,
              "duration": 0.1875
            },
            {
              "pitch": 24,
              "velocity": 72,
              "position": 25.75,
              "duration": 0.1875
            },
            {
              "pitch": 24,
              "velocity": 80,
              "position": 26,
              "duration": 0.4375
            },
            {
              "pitch": 24,
              "velocity": 75,
              "position": 26.5,
              "duration": 0.1875
            },
            {
              "pitch": 24,
              "velocity": 72,
              "position": 26.75,
              "duration": 0.1875
            },
            {
              "pitch": 24,
              "velocity": 80,
              "position": 27,
              "duration": 0.4375
            },
            {
              "pitch": 24,
              "velocity": 75,
              "position": 27.5,
              "duration": 0.1875
            },
            {
              "pitch": 24,
              "velocity": 72,
              "position": 27.75,
              "duration": 0.1875
            },
            {
              "pitch": 24,
              "velocity": 80,
              "position": 28,
              "duration": 0.4375
            },
            {
              "pitch": 34,
              "velocity": 40,
              "position": 28.5,
              "duration": 0.4895833333333333
            },
            {
              "pitch": 29,
              "velocity": 40,
              "position": 29.5,
              "duration": 1.5520833333333333
            },
            {
              "pitch": 29,
              "velocity": 22,
              "position": 31.0625,
              "duration": 0.2708333333333333
            },
            {
              "pitch": 29,
              "velocity": 14,
              "position": 31.34375,
              "duration": 0.23958333333333334
            },
            {
              "pitch": 29,
              "velocity": 22,
              "position": 31.59375,
              "duration": 0.22083333333333333
            },
            {
              "pitch": 29,
              "velocity": 22,
              "position": 31.822916666666668,
              "duration": 0.21666666666666667
            },
            {
              "pitch": 29,
              "velocity": 29,
              "position": 32.052083333333336,
              "duration": 0.16875
            },
            {
              "pitch": 29,
              "velocity": 23,
              "position": 32.23125,
              "duration": 0.1875
            },
            {
              "pitch": 29,
              "velocity": 31,
              "position": 32.42916666666667,
              "duration": 0.15625
            },
            {
              "pitch": 29,
              "velocity": 21,
              "position": 32.59375,
              "duration": 0.2
            },
            {
              "pitch": 29,
              "velocity": 30,
              "position": 32.802083333333336,
              "duration": 0.19375
            },
            {
              "pitch": 29,
              "velocity": 29,
              "position": 33.010416666666664,
              "duration": 0.15625
            },
            {
              "pitch": 29,
              "velocity": 31,
              "position": 33.177083333333336,
              "duration": 0.17708333333333334
            },
            {
              "pitch": 29,
              "velocity": 27,
              "position": 33.364583333333336,
              "duration": 0.13541666666666666
            },
            {
              "pitch": 29,
              "velocity": 30,
              "position": 33.510416666666664,
              "duration": 0.15625
            },
            {
              "pitch": 29,
              "velocity": 30,
              "position": 33.677083333333336,
              "duration": 0.17708333333333334
            },
            {
              "pitch": 29,
              "velocity": 30,
              "position": 33.864583333333336,
              "duration": 0.14791666666666667
            },
            {
              "pitch": 29,
              "velocity": 14,
              "position": 34.020833333333336,
              "duration": 0.15833333333333333
            },
            {
              "pitch": 29,
              "velocity": 30,
              "position": 34.18958333333333,
              "duration": 0.16041666666666668
            },
            {
              "pitch": 29,
              "velocity": 32,
              "position": 34.364583333333336,
              "duration": 0.1375
            },
            {
              "pitch": 29,
              "velocity": 30,
              "position": 34.510416666666664,
              "duration": 0.14583333333333334
            },
            {
              "pitch": 29,
              "velocity": 21,
              "position": 34.666666666666664,
              "duration": 0.14583333333333334
            },
            {
              "pitch": 29,
              "velocity": 31,
              "position": 34.822916666666664,
              "duration": 0.15625
            },
            {
              "pitch": 29,
              "velocity": 25,
              "position": 34.989583333333336,
              "duration": 0.13541666666666666
            },
            {
              "pitch": 29,
              "velocity": 29,
              "position": 35.135416666666664,
              "duration": 0.16666666666666666
            },
            {
              "pitch": 29,
              "velocity": 27,
              "position": 35.3125,
              "duration": 0.10625
            },
            {
              "pitch": 29,
              "velocity": 31,
              "position": 35.42916666666667,
              "duration": 0.14583333333333334
            },
            {
              "pitch": 29,
              "velocity": 27,
              "position": 35.58541666666667,
              "duration": 0.13541666666666666
            },
            {
              "pitch": 29,
              "velocity": 29,
              "position": 35.729166666666664,
              "duration": 0.1375
            },
            {
              "pitch": 29,
              "velocity": 30,
              "position": 35.87708333333333,
              "duration": 0.13541666666666666
            },
            {
              "pitch": 29,
              "velocity": 30,
              "position": 36.020833333333336,
              "duration": 0.1375
            },
            {
              "pitch": 29,
              "velocity": 31,
              "position": 36.16875,
              "duration": 0.12083333333333333
            },
            {
              "pitch": 29,
              "velocity": 30,
              "position": 36.302083333333336,
              "duration": 0.11666666666666667
            },
            {
              "pitch": 29,
              "velocity": 21,
              "position": 36.42916666666667,
              "duration": 0.11458333333333333
            },
            {
              "pitch": 29,
              "velocity": 30,
              "position": 36.552083333333336,
              "duration": 0.12083333333333333
            },
            {
              "pitch": 29,
              "velocity": 29,
              "position": 36.6875,
              "duration": 0.10416666666666667
            },
            {
              "pitch": 29,
              "velocity": 31,
              "position": 36.79375,
              "duration": 0.11458333333333333
            },
            {
              "pitch": 29,
              "velocity": 27,
              "position": 36.91875,
              "duration": 0.10833333333333334
            },
            {
              "pitch": 29,
              "velocity": 29,
              "position": 37.041666666666664,
              "duration": 0.11666666666666667
            },
            {
              "pitch": 29,
              "velocity": 31,
              "position": 37.166666666666664,
              "duration": 0.08541666666666667
            },
            {
              "pitch": 29,
              "velocity": 31,
              "position": 37.2625,
              "duration": 0.10416666666666667
            },
            {
              "pitch": 29,
              "velocity": 21,
              "position": 37.37708333333333,
              "duration": 0.0875
            },
            {
              "pitch": 29,
              "velocity": 30,
              "position": 37.479166666666664,
              "duration": 0.10416666666666667
            },
            {
              "pitch": 29,
              "velocity": 29,
              "position": 37.58541666666667,
              "duration": 0.08125
            },
            {
              "pitch": 29,
              "velocity": 29,
              "position": 37.677083333333336,
              "duration": 0.09375
            },
            {
              "pitch": 29,
              "velocity": 30,
              "position": 37.78125,
              "duration": 0.075
            },
            {
              "pitch": 29,
              "velocity": 31,
              "position": 37.86666666666667,
              "duration": 0.07916666666666666
            },
            {
              "pitch": 29,
              "velocity": 27,
              "position": 37.958333333333336,
              "duration": 0.07291666666666667
            },
            {
              "pitch": 29,
              "velocity": 28,
              "position": 38.041666666666664,
              "duration": 0.15625
            },
            {
              "pitch": 29,
              "velocity": 30,
              "position": 38.208333333333336,
              "duration": 0.14791666666666667
            },
            {
              "pitch": 29,
              "velocity": 31,
              "position": 38.36666666666667,
              "duration": 0.15416666666666667
            },
            {
              "pitch": 29,
              "velocity": 38,
              "position": 38.53125,
              "duration": 1.7729166666666667
            },
            {
              "pitch": 29,
              "velocity": 40,
              "position": 40.3125,
              "duration": 0.3458333333333333
            }
          ]
        },
        "11": {
          "ctab": {
            "srcChannel": 11,
            "name": "Tele",
            "accType": "CHORD1",
            "editable": false,
            "mutedNotes": [],
            "mutedChords": [
              "dim7",
              "dim",
              "minMaj7(9)",
              "minMaj7",
              "min7(11)",
              "min7(9)",
              "min(9)",
              "m7b5",
              "min7",
              "min6",
              "min"
            ],
            "autoStart": false,
            "sourceChordNote": 0,
            "sourceChordType": "Maj",
            "ctb2Low": null,
            "ctb2Main": {
              "ntr": "ROOT_TRANSPOSITION",
              "ntt": "BYPASS",
              "bassOn": false,
              "chordRootUpperLimit": 3,
              "noteLowLimit": 40,
              "noteHighLimit": 69,
              "rtr": "PITCH_SHIFT"
            },
            "ctb2High": null
          },
          "notes": [
            {
              "pitch": 79,
              "velocity": 25,
              "position": 0.020833333333333332,
              "duration": 0.95625
            },
            {
              "pitch": 76,
              "velocity": 25,
              "position": 0.020833333333333332,
              "duration": 0.95625
            },
            {
              "pitch": 72,
              "velocity": 25,
              "position": 0.020833333333333332,
              "duration": 0.95625
            },
            {
              "pitch": 24,
              "velocity": 39,
              "position": 0,
              "duration": 0.9854166666666667
            },
            {
              "pitch": 24,
              "velocity": 86,
              "position": 0.99375,
              "duration": 0.18333333333333332
            },
            {
              "pitch": 79,
              "velocity": 25,
              "position": 1.5208333333333333,
              "duration": 1.9604166666666667
            },
            {
              "pitch": 76,
              "velocity": 25,
              "position": 1.5208333333333333,
              "duration": 1.9604166666666667
            },
            {
              "pitch": 72,
              "velocity": 25,
              "position": 1.5208333333333333,
              "duration": 1.9604166666666667
            },
            {
              "pitch": 24,
              "velocity": 39,
              "position": 1.5,
              "duration": 2.004166666666667
            },
            {
              "pitch": 24,
              "velocity": 81,
              "position": 3.5125,
              "duration": 0.23958333333333334
            },
            {
              "pitch": 77,
              "velocity": 25,
              "position": 4.020833333333333,
              "duration": 0.9520833333333333
            },
            {
              "pitch": 74,
              "velocity": 25,
              "position": 4.020833333333333,
              "duration": 0.9520833333333333
            },
            {
              "pitch": 70,
              "velocity": 25,
              "position": 4.020833333333333,
              "duration": 0.9520833333333333
            },
            {
              "pitch": 24,
              "velocity": 39,
              "position": 4,
              "duration": 1
            },
            {
              "pitch": 24,
              "velocity": 84,
              "position": 5.008333333333334,
              "duration": 0.21666666666666667
            },
            {
              "pitch": 74,
              "velocity": 25,
              "position": 5.520833333333333,
              "duration": 0.9708333333333333
            },
            {
              "pitch": 70,
              "velocity": 25,
              "position": 5.520833333333333,
              "duration": 0.9708333333333333
            },
            {
              "pitch": 74,
              "velocity": 16,
              "position": 6.520833333333333,
              "duration": 0.9625
            },
            {
              "pitch": 70,
              "velocity": 16,
              "position": 6.520833333333333,
              "duration": 0.9625
            },
            {
              "pitch": 77,
              "velocity": 25,
              "position": 5.520833333333333,
              "duration": 1.9708333333333334
            },
            {
              "pitch": 24,
              "velocity": 39,
              "position": 5.5,
              "duration": 2.004166666666667
            },
            {
              "pitch": 24,
              "velocity": 80,
              "position": 7.5125,
              "duration": 0.18541666666666667
            },
            {
              "pitch": 24,
              "velocity": 39,
              "position": 8,
              "duration": 0.9791666666666666
            },
            {
              "pitch": 77,
              "velocity": 25,
              "position": 8.020833333333334,
              "duration": 0.9708333333333333
            },
            {
              "pitch": 72,
              "velocity": 25,
              "position": 8.020833333333334,
              "duration": 0.9708333333333333
            },
            {
              "pitch": 24,
              "velocity": 86,
              "position": 8.9875,
              "duration": 0.18541666666666667
            },
            {
              "pitch": 77,
              "velocity": 25,
              "position": 9.520833333333334,
              "duration": 1.9541666666666666
            },
            {
              "pitch": 72,
              "velocity": 25,
              "position": 9.520833333333334,
              "duration": 1.9541666666666666
            },
            {
              "pitch": 24,
              "velocity": 39,
              "position": 9.5,
              "duration": 1.975
            },
            {
              "pitch": 24,
              "velocity": 81,
              "position": 11.483333333333333,
              "duration": 0.23125
            },
            {
              "pitch": 24,
              "velocity": 39,
              "position": 12,
              "duration": 0.975
            },
            {
              "pitch": 75,
              "velocity": 25,
              "position": 12.020833333333334,
              "duration": 0.9708333333333333
            },
            {
              "pitch": 79,
              "velocity": 25,
              "position": 12.020833333333334,
              "duration": 0.9708333333333333
            },
            {
              "pitch": 70,
              "velocity": 25,
              "position": 12.020833333333334,
              "duration": 0.9708333333333333
            },
            {
              "pitch": 24,
              "velocity": 86,
              "position": 12.983333333333333,
              "duration": 0.22916666666666666
            },
            {
              "pitch": 77,
              "velocity": 25,
              "position": 13.520833333333334,
              "duration": 0.9708333333333333
            },
            {
              "pitch": 74,
              "velocity": 25,
              "position": 13.520833333333334,
              "duration": 0.9708333333333333
            },
            {
              "pitch": 70,
              "velocity": 25,
              "position": 13.520833333333334,
              "duration": 0.9708333333333333
            },
            {
              "pitch": 24,
              "velocity": 39,
              "position": 13.5,
              "duration": 0.9916666666666667
            },
            {
              "pitch": 43,
              "velocity": 120,
              "position": 14.497916666666667,
              "duration": 0.49375
            },
            {
              "pitch": 46,
              "velocity": 39,
              "position": 15,
              "duration": 0.49166666666666664
            },
            {
              "pitch": 48,
              "velocity": 40,
              "position": 15.5,
              "duration": 0.4895833333333333
            },
            {
              "pitch": 79,
              "velocity": 25,
              "position": 16.020833333333332,
              "duration": 0.95625
            },
            {
              "pitch": 76,
              "velocity": 25,
              "position": 16.020833333333332,
              "duration": 0.95625
            },
            {
              "pitch": 72,
              "velocity": 25,
              "position": 16.020833333333332,
              "duration": 0.95625
            },
            {
              "pitch": 24,
              "velocity": 39,
              "position": 16,
              "duration": 0.9854166666666667
            },
            {
              "pitch": 24,
              "velocity": 86,
              "position": 16.99375,
              "duration": 0.18333333333333332
            },
            {
              "pitch": 79,
              "velocity": 25,
              "position": 17.520833333333332,
              "duration": 1.9604166666666667
            },
            {
              "pitch": 76,
              "velocity": 25,
              "position": 17.520833333333332,
              "duration": 1.9604166666666667
            },
            {
              "pitch": 72,
              "velocity": 25,
              "position": 17.520833333333332,
              "duration": 1.9604166666666667
            },
            {
              "pitch": 24,
              "velocity": 39,
              "position": 17.5,
              "duration": 2.004166666666667
            },
            {
              "pitch": 24,
              "velocity": 81,
              "position": 19.5125,
              "duration": 0.23958333333333334
            },
            {
              "pitch": 77,
              "velocity": 25,
              "position": 20.020833333333332,
              "duration": 0.9520833333333333
            },
            {
              "pitch": 74,
              "velocity": 25,
              "position": 20.020833333333332,
              "duration": 0.9520833333333333
            },
            {
              "pitch": 70,
              "velocity": 25,
              "position": 20.020833333333332,
              "duration": 0.9520833333333333
            },
            {
              "pitch": 24,
              "velocity": 39,
              "position": 20,
              "duration": 1
            },
            {
              "pitch": 24,
              "velocity": 84,
              "position": 21.008333333333333,
              "duration": 0.21666666666666667
            },
            {
              "pitch": 74,
              "velocity": 25,
              "position": 21.520833333333332,
              "duration": 0.9708333333333333
            },
            {
              "pitch": 70,
              "velocity": 25,
              "position": 21.520833333333332,
              "duration": 0.9708333333333333
            },
            {
              "pitch": 74,
              "velocity": 16,
              "position": 22.520833333333332,
              "duration": 0.9625
            },
            {
              "pitch": 70,
              "velocity": 16,
              "position": 22.520833333333332,
              "duration": 0.9625
            },
            {
              "pitch": 77,
              "velocity": 25,
              "position": 21.520833333333332,
              "duration": 1.9708333333333334
            },
            {
              "pitch": 24,
              "velocity": 39,
              "position": 21.5,
              "duration": 2.004166666666667
            },
            {
              "pitch": 24,
              "velocity": 80,
              "position": 23.5125,
              "duration": 0.18541666666666667
            },
            {
              "pitch": 24,
              "velocity": 39,
              "position": 24,
              "duration": 0.9791666666666666
            },
            {
              "pitch": 77,
              "velocity": 25,
              "position": 24.020833333333332,
              "duration": 0.9708333333333333
            },
            {
              "pitch": 72,
              "velocity": 25,
              "position": 24.020833333333332,
              "duration": 0.9708333333333333
            },
            {
              "pitch": 24,
              "velocity": 86,
              "position": 24.9875,
              "duration": 0.18541666666666667
            },
            {
              "pitch": 77,
              "velocity": 25,
              "position": 25.520833333333332,
              "duration": 1.9541666666666666
            },
            {
              "pitch": 72,
              "velocity": 25,
              "position": 25.520833333333332,
              "duration": 1.9541666666666666
            },
            {
              "pitch": 24,
              "velocity": 39,
              "position": 25.5,
              "duration": 1.975
            },
            {
              "pitch": 24,
              "velocity": 81,
              "position": 27.483333333333334,
              "duration": 0.23125
            },
            {
              "pitch": 24,
              "velocity": 88,
              "position": 27.983333333333334,
              "duration": 0.23333333333333334
            },
            {
              "pitch": 77,
              "velocity": 25,
              "position": 28.520833333333332,
              "duration": 0.4708333333333333
            },
            {
              "pitch": 74,
              "velocity": 25,
              "position": 28.520833333333332,
              "duration": 0.4708333333333333
            },
            {
              "pitch": 70,
              "velocity": 25,
              "position": 28.520833333333332,
              "duration": 0.4708333333333333
            },
            {
              "pitch": 34,
              "velocity": 39,
              "position": 28.5,
              "duration": 0.49583333333333335
            },
            {
              "pitch": 77,
              "velocity": 25,
              "position": 29.520833333333332,
              "duration": 2.470833333333333
            },
            {
              "pitch": 72,
              "velocity": 25,
              "position": 29.520833333333332,
              "duration": 2.470833333333333
            },
            {
              "pitch": 29,
              "velocity": 39,
              "position": 29.479166666666668,
              "duration": 2.5125
            },
            {
              "pitch": 29,
              "velocity": 39,
              "position": 32,
              "duration": 2.9916666666666667
            },
            {
              "pitch": 77,
              "velocity": 25,
              "position": 32,
              "duration": 2.9916666666666667
            },
            {
              "pitch": 72,
              "velocity": 25,
              "position": 32,
              "duration": 2.9916666666666667
            },
            {
              "pitch": 29,
              "velocity": 39,
              "position": 35,
              "duration": 1.9916666666666667
            },
            {
              "pitch": 77,
              "velocity": 25,
              "position": 35,
              "duration": 1.9916666666666667
            },
            {
              "pitch": 77,
              "velocity": 127,
              "position": 37,
              "duration": 1.4916666666666667
            },
            {
              "pitch": 29,
              "velocity": 39,
              "position": 37,
              "duration": 1.4916666666666667
            },
            {
              "pitch": 72,
              "velocity": 25,
              "position": 35,
              "duration": 3.4916666666666667
            },
            {
              "pitch": 29,
              "velocity": 39,
              "position": 38.5,
              "duration": 1.2416666666666667
            },
            {
              "pitch": 77,
              "velocity": 127,
              "position": 38.5,
              "duration": 1.2416666666666667
            },
            {
              "pitch": 72,
              "velocity": 127,
              "position": 38.5,
              "duration": 1.2416666666666667
            },
            {
              "pitch": 29,
              "velocity": 39,
              "position": 40.3125,
              "duration": 0.3458333333333333
            },
            {
              "pitch": 72,
              "velocity": 32,
              "position": 40.322916666666664,
              "duration": 0.3458333333333333
            }
          ]
        },
        "12": {
          "ctab": {
            "srcChannel": 12,
            "name": "Solid",
            "accType": "CHORD2",
            "editable": false,
            "mutedNotes": [],
            "mutedChords": [
              "dim7",
              "dim",
              "minMaj7(9)",
              "minMaj7",
              "min7(11)",
              "min7(9)",
              "min(9)",
              "m7b5",
              "min7",
              "min6",
              "min"
            ],
            "autoStart": false,
            "sourceChordNote": 0,
            "sourceChordType": "Maj",
            "ctb2Low": null,
            "ctb2Main": {
              "ntr": "ROOT_TRANSPOSITION",
              "ntt": "BYPASS",
              "bassOn": false,
              "chordRootUpperLimit": 3,
              "noteLowLimit": 40,
              "noteHighLimit": 69,
              "rtr": "PITCH_SHIFT"
            },
            "ctb2High": null
          },
          "notes": [
            {
              "pitch": 76,
              "velocity": 30,
              "position": 0,
              "duration": 0.95625
            },
            {
              "pitch": 79,
              "velocity": 30,
              "position": 0.010416666666666666,
              "duration": 0.95625
            },
            {
              "pitch": 72,
              "velocity": 30,
              "position": 0.020833333333333332,
              "duration": 0.95625
            },
            {
              "pitch": 24,
              "velocity": 41,
              "position": 0,
              "duration": 0.9854166666666667
            },
            {
              "pitch": 24,
              "velocity": 86,
              "position": 0.99375,
              "duration": 0.18333333333333332
            },
            {
              "pitch": 76,
              "velocity": 30,
              "position": 1.5,
              "duration": 1.9604166666666667
            },
            {
              "pitch": 79,
              "velocity": 30,
              "position": 1.5104166666666667,
              "duration": 1.9604166666666667
            },
            {
              "pitch": 72,
              "velocity": 30,
              "position": 1.5208333333333333,
              "duration": 1.9604166666666667
            },
            {
              "pitch": 24,
              "velocity": 41,
              "position": 1.5,
              "duration": 2.004166666666667
            },
            {
              "pitch": 24,
              "velocity": 81,
              "position": 3.5125,
              "duration": 0.23958333333333334
            },
            {
              "pitch": 77,
              "velocity": 30,
              "position": 4,
              "duration": 0.9520833333333333
            },
            {
              "pitch": 70,
              "velocity": 30,
              "position": 4.010416666666667,
              "duration": 0.9520833333333333
            },
            {
              "pitch": 74,
              "velocity": 30,
              "position": 4.020833333333333,
              "duration": 0.9520833333333333
            },
            {
              "pitch": 24,
              "velocity": 41,
              "position": 4,
              "duration": 1
            },
            {
              "pitch": 24,
              "velocity": 84,
              "position": 5.008333333333334,
              "duration": 0.21666666666666667
            },
            {
              "pitch": 70,
              "velocity": 30,
              "position": 5.510416666666667,
              "duration": 0.9708333333333333
            },
            {
              "pitch": 74,
              "velocity": 30,
              "position": 5.520833333333333,
              "duration": 0.9708333333333333
            },
            {
              "pitch": 77,
              "velocity": 30,
              "position": 5.5,
              "duration": 1.9708333333333334
            },
            {
              "pitch": 70,
              "velocity": 21,
              "position": 6.510416666666667,
              "duration": 0.9625
            },
            {
              "pitch": 74,
              "velocity": 21,
              "position": 6.520833333333333,
              "duration": 0.9625
            },
            {
              "pitch": 24,
              "velocity": 41,
              "position": 5.5,
              "duration": 2.004166666666667
            },
            {
              "pitch": 24,
              "velocity": 80,
              "position": 7.5125,
              "duration": 0.18541666666666667
            },
            {
              "pitch": 77,
              "velocity": 30,
              "position": 8,
              "duration": 0.9708333333333333
            },
            {
              "pitch": 24,
              "velocity": 41,
              "position": 8,
              "duration": 0.9791666666666666
            },
            {
              "pitch": 72,
              "velocity": 30,
              "position": 8.020833333333334,
              "duration": 0.9708333333333333
            },
            {
              "pitch": 24,
              "velocity": 86,
              "position": 8.989583333333334,
              "duration": 0.18333333333333332
            },
            {
              "pitch": 77,
              "velocity": 30,
              "position": 9.5,
              "duration": 1.9541666666666666
            },
            {
              "pitch": 72,
              "velocity": 30,
              "position": 9.520833333333334,
              "duration": 1.9541666666666666
            },
            {
              "pitch": 24,
              "velocity": 41,
              "position": 9.5,
              "duration": 1.975
            },
            {
              "pitch": 24,
              "velocity": 81,
              "position": 11.483333333333333,
              "duration": 0.23125
            },
            {
              "pitch": 75,
              "velocity": 30,
              "position": 12,
              "duration": 0.9708333333333333
            },
            {
              "pitch": 24,
              "velocity": 41,
              "position": 12,
              "duration": 0.975
            },
            {
              "pitch": 79,
              "velocity": 30,
              "position": 12.010416666666666,
              "duration": 0.9708333333333333
            },
            {
              "pitch": 70,
              "velocity": 30,
              "position": 12.020833333333334,
              "duration": 0.9708333333333333
            },
            {
              "pitch": 24,
              "velocity": 86,
              "position": 12.983333333333333,
              "duration": 0.22916666666666666
            },
            {
              "pitch": 74,
              "velocity": 30,
              "position": 13.520833333333334,
              "duration": 0.9708333333333333
            },
            {
              "pitch": 70,
              "velocity": 30,
              "position": 13.510416666666666,
              "duration": 0.98125
            },
            {
              "pitch": 24,
              "velocity": 41,
              "position": 13.5,
              "duration": 0.9916666666666667
            },
            {
              "pitch": 77,
              "velocity": 30,
              "position": 13.5,
              "duration": 0.9916666666666667
            },
            {
              "pitch": 43,
              "velocity": 120,
              "position": 14.5,
              "duration": 0.49166666666666664
            },
            {
              "pitch": 46,
              "velocity": 50,
              "position": 15,
              "duration": 0.49166666666666664
            },
            {
              "pitch": 48,
              "velocity": 40,
              "position": 15.5,
              "duration": 0.4895833333333333
            },
            {
              "pitch": 76,
              "velocity": 30,
              "position": 16,
              "duration": 0.95625
            },
            {
              "pitch": 79,
              "velocity": 30,
              "position": 16.010416666666668,
              "duration": 0.95625
            },
            {
              "pitch": 72,
              "velocity": 30,
              "position": 16.020833333333332,
              "duration": 0.95625
            },
            {
              "pitch": 24,
              "velocity": 41,
              "position": 16,
              "duration": 0.9854166666666667
            },
            {
              "pitch": 24,
              "velocity": 86,
              "position": 16.99375,
              "duration": 0.18333333333333332
            },
            {
              "pitch": 76,
              "velocity": 30,
              "position": 17.5,
              "duration": 1.9604166666666667
            },
            {
              "pitch": 79,
              "velocity": 30,
              "position": 17.510416666666668,
              "duration": 1.9604166666666667
            },
            {
              "pitch": 72,
              "velocity": 30,
              "position": 17.520833333333332,
              "duration": 1.9604166666666667
            },
            {
              "pitch": 24,
              "velocity": 41,
              "position": 17.5,
              "duration": 2.004166666666667
            },
            {
              "pitch": 24,
              "velocity": 81,
              "position": 19.5125,
              "duration": 0.23958333333333334
            },
            {
              "pitch": 77,
              "velocity": 30,
              "position": 20,
              "duration": 0.9520833333333333
            },
            {
              "pitch": 70,
              "velocity": 30,
              "position": 20.010416666666668,
              "duration": 0.9520833333333333
            },
            {
              "pitch": 74,
              "velocity": 30,
              "position": 20.020833333333332,
              "duration": 0.9520833333333333
            },
            {
              "pitch": 24,
              "velocity": 41,
              "position": 20,
              "duration": 1
            },
            {
              "pitch": 24,
              "velocity": 84,
              "position": 21.008333333333333,
              "duration": 0.21666666666666667
            },
            {
              "pitch": 70,
              "velocity": 30,
              "position": 21.510416666666668,
              "duration": 0.9708333333333333
            },
            {
              "pitch": 74,
              "velocity": 30,
              "position": 21.520833333333332,
              "duration": 0.9708333333333333
            },
            {
              "pitch": 77,
              "velocity": 30,
              "position": 21.5,
              "duration": 1.9708333333333334
            },
            {
              "pitch": 70,
              "velocity": 21,
              "position": 22.510416666666668,
              "duration": 0.9625
            },
            {
              "pitch": 74,
              "velocity": 21,
              "position": 22.520833333333332,
              "duration": 0.9625
            },
            {
              "pitch": 24,
              "velocity": 41,
              "position": 21.5,
              "duration": 2.004166666666667
            },
            {
              "pitch": 24,
              "velocity": 80,
              "position": 23.5125,
              "duration": 0.18541666666666667
            },
            {
              "pitch": 77,
              "velocity": 30,
              "position": 24,
              "duration": 0.9708333333333333
            },
            {
              "pitch": 72,
              "velocity": 30,
              "position": 24.020833333333332,
              "duration": 0.9708333333333333
            },
            {
              "pitch": 24,
              "velocity": 41,
              "position": 24,
              "duration": 0.9916666666666667
            },
            {
              "pitch": 24,
              "velocity": 81,
              "position": 25,
              "duration": 0.24375
            },
            {
              "pitch": 77,
              "velocity": 30,
              "position": 25.5,
              "duration": 1.9541666666666666
            },
            {
              "pitch": 72,
              "velocity": 30,
              "position": 25.520833333333332,
              "duration": 1.9541666666666666
            },
            {
              "pitch": 24,
              "velocity": 41,
              "position": 25.5,
              "duration": 1.975
            },
            {
              "pitch": 24,
              "velocity": 81,
              "position": 27.483333333333334,
              "duration": 0.23125
            },
            {
              "pitch": 24,
              "velocity": 88,
              "position": 27.983333333333334,
              "duration": 0.23333333333333334
            },
            {
              "pitch": 77,
              "velocity": 30,
              "position": 28.5,
              "duration": 0.4708333333333333
            },
            {
              "pitch": 70,
              "velocity": 30,
              "position": 28.510416666666668,
              "duration": 0.4708333333333333
            },
            {
              "pitch": 34,
              "velocity": 40,
              "position": 28.520833333333332,
              "duration": 0.46041666666666664
            },
            {
              "pitch": 74,
              "velocity": 30,
              "position": 28.520833333333332,
              "duration": 0.4708333333333333
            },
            {
              "pitch": 77,
              "velocity": 30,
              "position": 29.5,
              "duration": 10.804166666666667
            },
            {
              "pitch": 72,
              "velocity": 30,
              "position": 29.520833333333332,
              "duration": 10.783333333333333
            },
            {
              "pitch": 29,
              "velocity": 40,
              "position": 29.5125,
              "duration": 10.791666666666666
            },
            {
              "pitch": 29,
              "velocity": 50,
              "position": 40.3125,
              "duration": 0.3458333333333333
            }
          ]
        },
        "13": {
          "ctab": {
            "srcChannel": 13,
            "name": "Organ",
            "accType": "PAD",
            "editable": false,
            "mutedNotes": [],
            "mutedChords": [
              "dim7",
              "dim",
              "minMaj7(9)",
              "minMaj7",
              "min7(11)",
              "min7(9)",
              "min(9)",
              "m7b5",
              "min7",
              "min6",
              "min"
            ],
            "autoStart": false,
            "sourceChordNote": 0,
            "sourceChordType": "Maj",
            "ctb2Low": null,
            "ctb2Main": {
              "ntr": "ROOT_TRANSPOSITION",
              "ntt": "BYPASS",
              "bassOn": false,
              "chordRootUpperLimit": 7,
              "noteLowLimit": 60,
              "noteHighLimit": 71,
              "rtr": "PITCH_SHIFT"
            },
            "ctb2High": null
          },
          "notes": [
            {
              "pitch": 60,
              "velocity": 90,
              "position": 0,
              "duration": 3.9895833333333335
            },
            {
              "pitch": 64,
              "velocity": 90,
              "position": 0,
              "duration": 3.9895833333333335
            },
            {
              "pitch": 67,
              "velocity": 90,
              "position": 0,
              "duration": 3.9895833333333335
            },
            {
              "pitch": 58,
              "velocity": 90,
              "position": 4,
              "duration": 3.9895833333333335
            },
            {
              "pitch": 62,
              "velocity": 90,
              "position": 4,
              "duration": 3.9895833333333335
            },
            {
              "pitch": 65,
              "velocity": 90,
              "position": 4,
              "duration": 7.989583333333333
            },
            {
              "pitch": 60,
              "velocity": 90,
              "position": 8,
              "duration": 3.9895833333333335
            },
            {
              "pitch": 57,
              "velocity": 90,
              "position": 8,
              "duration": 3.9895833333333335
            },
            {
              "pitch": 63,
              "velocity": 90,
              "position": 12,
              "duration": 1.4895833333333333
            },
            {
              "pitch": 67,
              "velocity": 90,
              "position": 12,
              "duration": 1.4895833333333333
            },
            {
              "pitch": 84,
              "velocity": 70,
              "position": 0,
              "duration": 15.989583333333334
            },
            {
              "pitch": 65,
              "velocity": 90,
              "position": 13.5,
              "duration": 2.4895833333333335
            },
            {
              "pitch": 62,
              "velocity": 90,
              "position": 13.5,
              "duration": 2.4895833333333335
            },
            {
              "pitch": 58,
              "velocity": 90,
              "position": 12,
              "duration": 3.9895833333333335
            },
            {
              "pitch": 60,
              "velocity": 90,
              "position": 16,
              "duration": 3.9895833333333335
            },
            {
              "pitch": 64,
              "velocity": 90,
              "position": 16,
              "duration": 3.9895833333333335
            },
            {
              "pitch": 67,
              "velocity": 90,
              "position": 16,
              "duration": 3.9895833333333335
            },
            {
              "pitch": 58,
              "velocity": 90,
              "position": 20,
              "duration": 3.9895833333333335
            },
            {
              "pitch": 62,
              "velocity": 90,
              "position": 20,
              "duration": 3.9895833333333335
            },
            {
              "pitch": 65,
              "velocity": 90,
              "position": 20,
              "duration": 7.989583333333333
            },
            {
              "pitch": 60,
              "velocity": 90,
              "position": 24,
              "duration": 3.9895833333333335
            },
            {
              "pitch": 57,
              "velocity": 90,
              "position": 24,
              "duration": 3.9895833333333335
            },
            {
              "pitch": 84,
              "velocity": 70,
              "position": 16,
              "duration": 11.989583333333334
            },
            {
              "pitch": 58,
              "velocity": 90,
              "position": 28.5,
              "duration": 0.4895833333333333
            },
            {
              "pitch": 65,
              "velocity": 90,
              "position": 28.5,
              "duration": 0.4895833333333333
            },
            {
              "pitch": 62,
              "velocity": 90,
              "position": 28.5,
              "duration": 0.4895833333333333
            },
            {
              "pitch": 57,
              "velocity": 90,
              "position": 29.5,
              "duration": 10.822916666666666
            },
            {
              "pitch": 65,
              "velocity": 90,
              "position": 29.5,
              "duration": 10.822916666666666
            },
            {
              "pitch": 60,
              "velocity": 90,
              "position": 29.5,
              "duration": 10.822916666666666
            },
            {
              "pitch": 57,
              "velocity": 90,
              "position": 40.333333333333336,
              "duration": 0.3229166666666667
            },
            {
              "pitch": 65,
              "velocity": 90,
              "position": 40.333333333333336,
              "duration": 0.3229166666666667
            },
            {
              "pitch": 60,
              "velocity": 90,
              "position": 40.333333333333336,
              "duration": 0.3229166666666667
            }
          ]
        },
        "14": {
          "ctab": {
            "srcChannel": 14,
            "name": "Solid Ld",
            "accType": "PHRASE1",
            "editable": false,
            "mutedNotes": [],
            "mutedChords": [
              "dim7",
              "dim",
              "minMaj7(9)",
              "minMaj7",
              "min7(11)",
              "min7(9)",
              "min(9)",
              "m7b5",
              "min7",
              "min6",
              "min"
            ],
            "autoStart": false,
            "sourceChordNote": 0,
            "sourceChordType": "Maj",
            "ctb2Low": null,
            "ctb2Main": {
              "ntr": "ROOT_TRANSPOSITION",
              "ntt": "BYPASS",
              "bassOn": false,
              "chordRootUpperLimit": 9,
              "noteLowLimit": 41,
              "noteHighLimit": 127,
              "rtr": "PITCH_SHIFT"
            },
            "ctb2High": null
          },
          "notes": [
            {
              "pitch": 67,
              "velocity": 123,
              "position": 1,
              "duration": 1.4895833333333333
            },
            {
              "pitch": 72,
              "velocity": 60,
              "position": 1,
              "duration": 1.4895833333333333
            },
            {
              "pitch": 72,
              "velocity": 91,
              "position": 2.5,
              "duration": 0.4895833333333333
            },
            {
              "pitch": 64,
              "velocity": 60,
              "position": 0.010416666666666666,
              "duration": 2.98125
            },
            {
              "pitch": 64,
              "velocity": 60,
              "position": 3,
              "duration": 0.7395833333333334
            },
            {
              "pitch": 62,
              "velocity": 91,
              "position": 3.75,
              "duration": 0.23958333333333334
            },
            {
              "pitch": 100,
              "velocity": 80,
              "position": 4,
              "duration": 0.058333333333333334
            },
            {
              "pitch": 62,
              "velocity": 60,
              "position": 4,
              "duration": 0.2916666666666667
            },
            {
              "pitch": 99,
              "velocity": 80,
              "position": 4.5,
              "duration": 0.058333333333333334
            },
            {
              "pitch": 62,
              "velocity": 60,
              "position": 4.5,
              "duration": 0.2916666666666667
            },
            {
              "pitch": 60,
              "velocity": 60,
              "position": 5,
              "duration": 1.9770833333333333
            },
            {
              "pitch": 48,
              "velocity": 87,
              "position": 7.5,
              "duration": 0.15833333333333333
            },
            {
              "pitch": 50,
              "velocity": 76,
              "position": 7.666666666666667,
              "duration": 0.15833333333333333
            },
            {
              "pitch": 52,
              "velocity": 76,
              "position": 7.833333333333333,
              "duration": 0.15833333333333333
            },
            {
              "pitch": 55,
              "velocity": 40,
              "position": 8,
              "duration": 0.15833333333333333
            },
            {
              "pitch": 57,
              "velocity": 91,
              "position": 8.166666666666666,
              "duration": 0.15833333333333333
            },
            {
              "pitch": 60,
              "velocity": 91,
              "position": 8.333333333333334,
              "duration": 0.15833333333333333
            },
            {
              "pitch": 48,
              "velocity": 87,
              "position": 8.5,
              "duration": 0.15833333333333333
            },
            {
              "pitch": 50,
              "velocity": 80,
              "position": 8.666666666666666,
              "duration": 0.15833333333333333
            },
            {
              "pitch": 52,
              "velocity": 80,
              "position": 8.833333333333334,
              "duration": 0.15833333333333333
            },
            {
              "pitch": 55,
              "velocity": 40,
              "position": 9,
              "duration": 0.15833333333333333
            },
            {
              "pitch": 57,
              "velocity": 91,
              "position": 9.166666666666666,
              "duration": 0.15833333333333333
            },
            {
              "pitch": 60,
              "velocity": 91,
              "position": 9.333333333333334,
              "duration": 0.15833333333333333
            },
            {
              "pitch": 62,
              "velocity": 40,
              "position": 9.5,
              "duration": 0.15833333333333333
            },
            {
              "pitch": 64,
              "velocity": 91,
              "position": 9.666666666666666,
              "duration": 0.15833333333333333
            },
            {
              "pitch": 65,
              "velocity": 91,
              "position": 9.833333333333334,
              "duration": 0.15833333333333333
            },
            {
              "pitch": 67,
              "velocity": 60,
              "position": 10,
              "duration": 0.9916666666666667
            },
            {
              "pitch": 70,
              "velocity": 40,
              "position": 10.5,
              "duration": 1.4916666666666667
            },
            {
              "pitch": 58,
              "velocity": 127,
              "position": 11.5,
              "duration": 0.49166666666666664
            },
            {
              "pitch": 67,
              "velocity": 60,
              "position": 11,
              "duration": 0.9916666666666667
            },
            {
              "pitch": 67,
              "velocity": 60,
              "position": 12,
              "duration": 0.9895833333333334
            },
            {
              "pitch": 65,
              "velocity": 60,
              "position": 13,
              "duration": 0.23958333333333334
            },
            {
              "pitch": 63,
              "velocity": 91,
              "position": 13.25,
              "duration": 0.23958333333333334
            },
            {
              "pitch": 48,
              "velocity": 124,
              "position": 13.5,
              "duration": 1.4916666666666667
            },
            {
              "pitch": 60,
              "velocity": 127,
              "position": 13.5,
              "duration": 1.4916666666666667
            },
            {
              "pitch": 55,
              "velocity": 121,
              "position": 13.5,
              "duration": 1.4916666666666667
            },
            {
              "pitch": 55,
              "velocity": 21,
              "position": 16,
              "duration": 0.14166666666666666
            },
            {
              "pitch": 58,
              "velocity": 91,
              "position": 16.139583333333334,
              "duration": 0.13958333333333334
            },
            {
              "pitch": 60,
              "velocity": 91,
              "position": 16.277083333333334,
              "duration": 0.14166666666666666
            },
            {
              "pitch": 58,
              "velocity": 91,
              "position": 16.416666666666668,
              "duration": 0.14166666666666666
            },
            {
              "pitch": 55,
              "velocity": 91,
              "position": 16.55625,
              "duration": 0.13958333333333334
            },
            {
              "pitch": 52,
              "velocity": 91,
              "position": 16.69375,
              "duration": 0.14166666666666666
            },
            {
              "pitch": 60,
              "velocity": 91,
              "position": 16.833333333333332,
              "duration": 0.14166666666666666
            },
            {
              "pitch": 62,
              "velocity": 91,
              "position": 16.972916666666666,
              "duration": 0.13958333333333334
            },
            {
              "pitch": 65,
              "velocity": 91,
              "position": 17.110416666666666,
              "duration": 0.14166666666666666
            },
            {
              "pitch": 62,
              "velocity": 91,
              "position": 17.25,
              "duration": 0.14166666666666666
            },
            {
              "pitch": 60,
              "velocity": 91,
              "position": 17.389583333333334,
              "duration": 0.13958333333333334
            },
            {
              "pitch": 55,
              "velocity": 91,
              "position": 17.527083333333334,
              "duration": 0.13958333333333334
            },
            {
              "pitch": 58,
              "velocity": 97,
              "position": 17.666666666666668,
              "duration": 0.14166666666666666
            },
            {
              "pitch": 60,
              "velocity": 91,
              "position": 17.80625,
              "duration": 0.13958333333333334
            },
            {
              "pitch": 65,
              "velocity": 97,
              "position": 17.94375,
              "duration": 0.14166666666666666
            },
            {
              "pitch": 70,
              "velocity": 91,
              "position": 18.083333333333332,
              "duration": 0.14166666666666666
            },
            {
              "pitch": 62,
              "velocity": 97,
              "position": 18.222916666666666,
              "duration": 0.13958333333333334
            },
            {
              "pitch": 65,
              "velocity": 91,
              "position": 18.360416666666666,
              "duration": 0.14166666666666666
            },
            {
              "pitch": 67,
              "velocity": 97,
              "position": 18.5,
              "duration": 0.14166666666666666
            },
            {
              "pitch": 72,
              "velocity": 91,
              "position": 18.639583333333334,
              "duration": 0.13958333333333334
            },
            {
              "pitch": 65,
              "velocity": 97,
              "position": 18.777083333333334,
              "duration": 0.14166666666666666
            },
            {
              "pitch": 67,
              "velocity": 91,
              "position": 18.916666666666668,
              "duration": 0.14166666666666666
            },
            {
              "pitch": 70,
              "velocity": 97,
              "position": 19.05625,
              "duration": 0.13958333333333334
            },
            {
              "pitch": 76,
              "velocity": 91,
              "position": 19.19375,
              "duration": 0.14166666666666666
            },
            {
              "pitch": 67,
              "velocity": 97,
              "position": 19.333333333333332,
              "duration": 0.14166666666666666
            },
            {
              "pitch": 70,
              "velocity": 91,
              "position": 19.472916666666666,
              "duration": 0.13958333333333334
            },
            {
              "pitch": 72,
              "velocity": 97,
              "position": 19.610416666666666,
              "duration": 0.14166666666666666
            },
            {
              "pitch": 77,
              "velocity": 91,
              "position": 19.75,
              "duration": 0.14166666666666666
            },
            {
              "pitch": 65,
              "velocity": 97,
              "position": 19.889583333333334,
              "duration": 0.13958333333333334
            },
            {
              "pitch": 67,
              "velocity": 91,
              "position": 20.027083333333334,
              "duration": 0.14166666666666666
            },
            {
              "pitch": 70,
              "velocity": 97,
              "position": 20.166666666666668,
              "duration": 0.14166666666666666
            },
            {
              "pitch": 76,
              "velocity": 91,
              "position": 20.30625,
              "duration": 0.13958333333333334
            },
            {
              "pitch": 62,
              "velocity": 97,
              "position": 20.44375,
              "duration": 0.14166666666666666
            },
            {
              "pitch": 65,
              "velocity": 91,
              "position": 20.583333333333332,
              "duration": 0.14166666666666666
            },
            {
              "pitch": 67,
              "velocity": 97,
              "position": 20.722916666666666,
              "duration": 0.13958333333333334
            },
            {
              "pitch": 72,
              "velocity": 91,
              "position": 20.860416666666666,
              "duration": 0.13125
            },
            {
              "pitch": 72,
              "velocity": 95,
              "position": 21,
              "duration": 1.0541666666666667
            },
            {
              "pitch": 60,
              "velocity": 125,
              "position": 22.0625,
              "duration": 2.9291666666666667
            },
            {
              "pitch": 72,
              "velocity": 127,
              "position": 22.0625,
              "duration": 2.9291666666666667
            },
            {
              "pitch": 67,
              "velocity": 125,
              "position": 22.0625,
              "duration": 2.9291666666666667
            },
            {
              "pitch": 58,
              "velocity": 42,
              "position": 25,
              "duration": 0.38125
            },
            {
              "pitch": 77,
              "velocity": 127,
              "position": 25.03125,
              "duration": 0.375
            },
            {
              "pitch": 70,
              "velocity": 42,
              "position": 25.03125,
              "duration": 0.375
            },
            {
              "pitch": 55,
              "velocity": 42,
              "position": 25.5,
              "duration": 0.38125
            },
            {
              "pitch": 71,
              "velocity": 124,
              "position": 25.53125,
              "duration": 0.375
            },
            {
              "pitch": 67,
              "velocity": 40,
              "position": 25.53125,
              "duration": 0.375
            },
            {
              "pitch": 53,
              "velocity": 42,
              "position": 26,
              "duration": 0.49166666666666664
            },
            {
              "pitch": 65,
              "velocity": 42,
              "position": 26.03125,
              "duration": 0.46041666666666664
            },
            {
              "pitch": 51,
              "velocity": 98,
              "position": 26.5,
              "duration": 0.38125
            },
            {
              "pitch": 63,
              "velocity": 96,
              "position": 26.53125,
              "duration": 0.375
            },
            {
              "pitch": 53,
              "velocity": 92,
              "position": 27,
              "duration": 0.38125
            },
            {
              "pitch": 58,
              "velocity": 124,
              "position": 27.03125,
              "duration": 0.375
            },
            {
              "pitch": 51,
              "velocity": 50,
              "position": 27.5,
              "duration": 1.4916666666666667
            },
            {
              "pitch": 58,
              "velocity": 20,
              "position": 27.53125,
              "duration": 1.4604166666666667
            },
            {
              "pitch": 48,
              "velocity": 50,
              "position": 29,
              "duration": 0.24166666666666667
            },
            {
              "pitch": 46,
              "velocity": 91,
              "position": 29.25,
              "duration": 0.24166666666666667
            },
            {
              "pitch": 41,
              "velocity": 34,
              "position": 29.5,
              "duration": 3.325
            },
            {
              "pitch": 48,
              "velocity": 50,
              "position": 29.5,
              "duration": 3.325
            },
            {
              "pitch": 48,
              "velocity": 30,
              "position": 32.833333333333336,
              "duration": 6.602083333333334
            },
            {
              "pitch": 77,
              "velocity": 127,
              "position": 35.552083333333336,
              "duration": 3.8854166666666665
            },
            {
              "pitch": 72,
              "velocity": 127,
              "position": 35.552083333333336,
              "duration": 3.8854166666666665
            },
            {
              "pitch": 69,
              "velocity": 125,
              "position": 35.552083333333336,
              "duration": 3.8854166666666665
            },
            {
              "pitch": 53,
              "velocity": 20,
              "position": 32.885416666666664,
              "duration": 6.552083333333333
            },
            {
              "pitch": 41,
              "velocity": 30,
              "position": 40.333333333333336,
              "duration": 0.34375
            },
            {
              "pitch": 48,
              "velocity": 1,
              "position": 40.333333333333336,
              "duration": 0.34375
            }
          ]
        },
        "15": {
          "ctab": {
            "srcChannel": 15,
            "name": "Slide FX",
            "accType": "PHRASE2",
            "editable": false,
            "mutedNotes": [],
            "mutedChords": [],
            "autoStart": false,
            "sourceChordNote": 0,
            "sourceChordType": "Maj",
            "ctb2Low": null,
            "ctb2Main": {
              "ntr": "ROOT_FIXED",
              "ntt": "BYPASS",
              "bassOn": false,
              "chordRootUpperLimit": 3,
              "noteLowLimit": 0,
              "noteHighLimit": 127,
              "rtr": "PITCH_SHIFT"
            },
            "ctb2High": null
          },
          "notes": [
            {
              "pitch": 99,
              "velocity": 80,
              "position": 7,
              "duration": 0.6666666666666666
            },
            {
              "pitch": 100,
              "velocity": 80,
              "position": 14.5,
              "duration": 1.5208333333333333
            },
            {
              "pitch": 96,
              "velocity": 80,
              "position": 39.583333333333336,
              "duration": 3.6979166666666665
            },
            {
              "pitch": 100,
              "velocity": 80,
              "position": 39.75,
              "duration": 3.78125
            }
          ]
        }
      }
    }
  }
}