{
  "name": "StandardRock.S395.STY",
  "tempo": 110,
  "timeSignature": "4/4",
  "ticksPerQuarter": 1920,
  "sffType": "SFF1",
  "division": "BINARY",
  "parts": {
    "Main_A": {
      "type": "Main_A",
      "sizeInBeats": 16,
      "channels": {
        "1": {
          "ctab": {
            "srcChannel": 1,
            "name": "Bass B",
            "accType": "BASS",
            "editable": false,
            "mutedNotes": [],
            "mutedChords": [
              "1+5",
              "1+8",
              "7(#9)",
              "7(b13)",
              "7(b9)",
              "7(13)",
              "7#11",
              "7(9)",
              "7b5",
              "7sus4",
              "7th",
              "dim7",
              "dim",
              "min7(11)",
              "min7(9)",
              "m7b5",
              "min7",
              "min6",
              "Maj6(9)",
              "Maj7(9)",
              "Maj(9)",
              "Maj7#11",
              "Maj7",
              "Maj6",
              "Maj"
            ],
            "autoStart": false,
            "sourceChordNote": 0,
            "sourceChordType": "Maj7",
            "ctb2Low": null,
            "ctb2Main": {
              "ntr": "ROOT_TRANSPOSITION",
              "ntt": "MELODY",
              "bassOn": true,
              "chordRootUpperLimit": 8,
              "noteLowLimit": 28,
              "noteHighLimit": 127,
              "rtr": "PITCH_SHIFT_TO_ROOT"
            },
            "ctb2High": null
          },
          "notes": [
            {
              "pitch": 24,
              "velocity": 70,
              "position": 0,
              "duration": 0.9854166666666667
            },
            {
              "pitch": 48,
              "velocity": 106,
              "position": 1,
              "duration": 0.027083333333333334
            },
            {
              "pitch": 55,
              "velocity": 106,
              "position": 1.03125,
              "duration": 0.027083333333333334
            },
            {
              "pitch": 24,
              "velocity": 52,
              "position": 1.5,
              "duration": 0.24583333333333332
            },
            {
              "pitch": 24,
              "velocity": 70,
              "position": 2,
              "duration": 0.48541666666666666
            },
            {
              "pitch": 24,
              "velocity": 50,
              "position": 2.5,
              "duration": 0.48541666666666666
            },
            {
              "pitch": 48,
              "velocity": 106,
              "position": 3,
              "duration": 0.027083333333333334
            },
            {
              "pitch": 55,
              "velocity": 106,
              "position": 3.03125,
              "duration": 0.027083333333333334
            },
            {
              "pitch": 31,
              "velocity": 40,
              "position": 3.5,
              "duration": 0.23541666666666666
            },
            {
              "pitch": 24,
              "velocity": 70,
              "position": 4,
              "duration": 0.975
            },
            {
              "pitch": 48,
              "velocity": 106,
              "position": 5,
              "duration": 0.027083333333333334
            },
            {
              "pitch": 55,
              "velocity": 106,
              "position": 5.03125,
              "duration": 0.027083333333333334
            },
            {
              "pitch": 24,
              "velocity": 52,
              "position": 5.5,
              "duration": 0.24583333333333332
            },
            {
              "pitch": 24,
              "velocity": 70,
              "position": 6,
              "duration": 0.43333333333333335
            },
            {
              "pitch": 24,
              "velocity": 50,
              "position": 6.5,
              "duration": 0.43333333333333335
            },
            {
              "pitch": 28,
              "velocity": 60,
              "position": 7,
              "duration": 0.43333333333333335
            },
            {
              "pitch": 31,
              "velocity": 50,
              "position": 7.5,
              "duration": 0.43333333333333335
            },
            {
              "pitch": 24,
              "velocity": 70,
              "position": 8,
              "duration": 0.9854166666666667
            },
            {
              "pitch": 48,
              "velocity": 106,
              "position": 9,
              "duration": 0.027083333333333334
            },
            {
              "pitch": 55,
              "velocity": 106,
              "position": 9.03125,
              "duration": 0.027083333333333334
            },
            {
              "pitch": 24,
              "velocity": 52,
              "position": 9.5,
              "duration": 0.24583333333333332
            },
            {
              "pitch": 24,
              "velocity": 70,
              "position": 10,
              "duration": 0.48541666666666666
            },
            {
              "pitch": 24,
              "velocity": 50,
              "position": 10.5,
              "duration": 0.48541666666666666
            },
            {
              "pitch": 48,
              "velocity": 106,
              "position": 11,
              "duration": 0.027083333333333334
            },
            {
              "pitch": 55,
              "velocity": 106,
              "position": 11.03125,
              "duration": 0.027083333333333334
            },
            {
              "pitch": 31,
              "velocity": 40,
              "position": 11.5,
              "duration": 0.23541666666666666
            },
            {
              "pitch": 24,
              "velocity": 70,
              "position": 12,
              "duration": 0.9854166666666667
            },
            {
              "pitch": 48,
              "velocity": 106,
              "position": 13,
              "duration": 0.027083333333333334
            },
            {
              "pitch": 55,
              "velocity": 106,
              "position": 13.03125,
              "duration": 0.027083333333333334
            },
            {
              "pitch": 24,
              "velocity": 50,
              "position": 13.5,
              "duration": 0.24583333333333332
            },
            {
              "pitch": 24,
              "velocity": 70,
              "position": 14,
              "duration": 0.43333333333333335
            },
            {
              "pitch": 24,
              "velocity": 50,
              "position": 14.5,
              "duration": 0.43333333333333335
            },
            {
              "pitch": 28,
              "velocity": 60,
              "position": 15,
              "duration": 0.43333333333333335
            },
            {
              "pitch": 31,
              "velocity": 50,
              "position": 15.5,
              "duration": 0.43333333333333335
            }
          ]
        },
        "8": {
          "ctab": {
            "srcChannel": 8,
            "name": "AddDrum",
            "accType": "SUBRHYTHM",
            "editable": false,
            "mutedNotes": [],
            "mutedChords": [],
            "autoStart": true,
            "sourceChordNote": 0,
            "sourceChordType": "Maj7",
            "ctb2Low": null,
            "ctb2Main": {
              "ntr": "ROOT_FIXED",
              "ntt": "BYPASS",
              "bassOn": false,
              "chordRootUpperLimit": 6,
              "noteLowLimit": 0,
              "noteHighLimit": 127,
              "rtr": "PITCH_SHIFT"
            },
            "ctb2High": null
          },
          "notes": [
            {
              "pitch": 54,
              "velocity": 90,
              "position": 0,
              "duration": 0.058333333333333334
            },
            {
              "pitch": 54,
              "velocity": 50,
              "position": 0.5,
              "duration": 0.058333333333333334
            },
            {
              "pitch": 54,
              "velocity": 90,
              "position": 0.99375,
              "duration": 0.058333333333333334
            },
            {
              "pitch": 54,
              "velocity": 50,
              "position": 1.5,
              "duration": 0.058333333333333334
            },
            {
              "pitch": 54,
              "velocity": 90,
              "position": 2,
              "duration": 0.058333333333333334
            },
            {
              "pitch": 54,
              "velocity": 50,
              "position": 2.5,
              "duration": 0.058333333333333334
            },
            {
              "pitch": 54,
              "velocity": 90,
              "position": 3,
              "duration": 0.058333333333333334
            },
            {
              "pitch": 54,
              "velocity": 50,
              "position": 3.5,
              "duration": 0.058333333333333334
            },
            {
              "pitch": 54,
              "velocity": 90,
              "position": 4,
              "duration": 0.058333333333333334
            },
            {
              "pitch": 54,
              "velocity": 50,
              "position": 4.5,
              "duration": 0.058333333333333334
            },
            {
              "pitch": 54,
              "velocity": 90,
              "position": 5,
              "duration": 0.058333333333333334
            },
            {
              "pitch": 54,
              "velocity": 50,
              "position": 5.5,
              "duration": 0.058333333333333334
            },
            {
              "pitch": 54,
              "velocity": 90,
              "position": 6,
              "duration": 0.058333333333333334
            },
            {
              "pitch": 54,
              "velocity": 50,
              "position": 6.5,
              "duration": 0.058333333333333334
            },
            {
              "pitch": 54,
              "velocity": 90,
              "position": 7,
              "duration": 0.058333333333333334
            },
            {
              "pitch": 54,
              "velocity": 50,
              "position": 7.5,
              "duration": 0.058333333333333334
            },
            {
              "pitch": 54,
              "velocity": 90,
              "position": 8,
              "duration": 0.058333333333333334
            },
            {
              "pitch": 54,
              "velocity": 50,
              "position": 8.5,
              "duration": 0.058333333333333334
            },
            {
              "pitch": 54,
              "velocity": 90,
              "position": 8.99375,
              "duration": 0.058333333333333334
            },
            {
              "pitch": 54,
              "velocity": 50,
              "position": 9.5,
              "duration": 0.058333333333333334
            },
            {
              "pitch": 54,
              "velocity": 90,
              "position": 10,
              "duration": 0.058333333333333334
            },
            {
              "pitch": 54,
              "velocity": 50,
              "position": 10.5,
              "duration": 0.058333333333333334
            },
            {
              "pitch": 54,
              "velocity": 90,
              "position": 11,
              "duration": 0.058333333333333334
            },
            {
              "pitch": 54,
              "velocity": 50,
              "position": 11.5,
              "duration": 0.058333333333333334
            },
            {
              "pitch": 54,
              "velocity": 90,
              "position": 12,
              "duration": 0.058333333333333334
            },
            {
              "pitch": 54,
              "velocity": 50,
              "position": 12.5,
              "duration": 0.058333333333333334
            },
            {
              "pitch": 54,
              "velocity": 90,
              "position": 12.99375,
              "duration": 0.058333333333333334
            },
            {
              "pitch": 54,
              "velocity": 50,
              "position": 13.5,
              "duration": 0.058333333333333334
            },
            {
              "pitch": 54,
              "velocity": 90,
              "position": 13.99375,
              "duration": 0.058333333333333334
            },
            {
              "pitch": 54,
              "velocity": 50,
              "position": 14.5,
              "duration": 0.058333333333333334
            },
            {
              "pitch": 54,
              "velocity": 90,
              "position": 15,
              "duration": 0.058333333333333334
            },
            {
              "pitch": 54,
              "velocity": 50,
              "position": 15.5,
              "duration": 0.058333333333333334
            }
          ]
        },
        "9": {
          "ctab": {
            "srcChannel": 9,
            "name": "MainDrum",
            "accType": "RHYTHM",
            "editable": false,
            "mutedNotes": [],
            "mutedChords": [],
            "autoStart": true,
            "sourceChordNote": 0,
            "sourceChordType": "Maj7",
            "ctb2Low": null,
            "ctb2Main": {
              "ntr": "ROOT_FIXED",
              "ntt": "BYPASS",
              "bassOn": false,
              "chordRootUpperLimit": 6,
              "noteLowLimit": 0,
              "noteHighLimit": 127,
              "rtr": "PITCH_SHIFT"
            },
            "ctb2High": null
          },
          "notes": [
            {
              "pitch": 35,
              "velocity": 108,
              "position": 0,
              "duration": 0.00625
            },
            {
              "pitch": 46,
              "velocity": 93,
              "position": 0,
              "duration": 0.00625
            },
            {
              "pitch": 44,
              "velocity": 58,
              "position": 0.5,
              "duration": 0.00625
            },
            {
              "pitch": 38,
              "velocity": 100,
              "position": 1,
              "duration": 0.00625
            },
            {
              "pitch": 46,
              "velocity": 88,
              "position": 1,
              "duration": 0.00625
            },
            {
              "pitch": 44,
              "velocity": 58,
              "position": 1.5,
              "duration": 0.00625
            },
            {
              "pitch": 35,
              "velocity": 108,
              "position": 2,
              "duration": 0.00625
            },
            {
              "pitch": 46,
              "velocity": 88,
              "position": 2,
              "duration": 0.00625
            },
            {
              "pitch": 35,
              "velocity": 90,
              "position": 2.5,
              "duration": 0.00625
            },
            {
              "pitch": 44,
              "velocity": 58,
              "position": 2.5,
              "duration": 0.00625
            },
            {
              "pitch": 38,
              "velocity": 100,
              "position": 3,
              "duration": 0.00625
            },
            {
              "pitch": 46,
              "velocity": 88,
              "position": 3,
              "duration": 0.00625
            },
            {
              "pitch": 35,
              "velocity": 72,
              "position": 3.5,
              "duration": 0.00625
            },
            {
              "pitch": 46,
              "velocity": 59,
              "position": 3.5,
              "duration": 0.00625
            },
            {
              "pitch": 35,
              "velocity": 108,
              "position": 4,
              "duration": 0.00625
            },
            {
              "pitch": 46,
              "velocity": 93,
              "position": 4,
              "duration": 0.00625
            },
            {
              "pitch": 44,
              "velocity": 58,
              "position": 4.5,
              "duration": 0.00625
            },
            {
              "pitch": 38,
              "velocity": 100,
              "position": 5,
              "duration": 0.00625
            },
            {
              "pitch": 46,
              "velocity": 88,
              "position": 5,
              "duration": 0.00625
            },
            {
              "pitch": 44,
              "velocity": 58,
              "position": 5.5,
              "duration": 0.00625
            },
            {
              "pitch": 35,
              "velocity": 108,
              "position": 6,
              "duration": 0.00625
            },
            {
              "pitch": 46,
              "velocity": 88,
              "position": 6,
              "duration": 0.00625
            },
            {
              "pitch": 35,
              "velocity": 90,
              "position": 6.5,
              "duration": 0.00625
            },
            {
              "pitch": 46,
              "velocity": 59,
              "position": 6.5,
              "duration": 0.00625
            },
            {
              "pitch": 38,
              "velocity": 100,
              "position": 7,
              "duration": 0.00625
            },
            {
              "pitch": 46,
              "velocity": 88,
              "position": 7,
              "duration": 0.00625
            },
            {
              "pitch": 35,
              "velocity": 72,
              "position": 7.5,
              "duration": 0.00625
            },
            {
              "pitch": 44,
              "velocity": 58,
              "position": 7.5,
              "duration": 0.00625
            },
            {
              "pitch": 35,
              "velocity": 108,
              "position": 8,
              "duration": 0.00625
            },
            {
              "pitch": 46,
              "velocity": 93,
              "position": 8,
              "duration": 0.00625
            },
            {
              "pitch": 44,
              "velocity": 58,
              "position": 8.5,
              "duration": 0.00625
            },
            {
              "pitch": 38,
              "velocity": 100,
              "position": 9,
              "duration": 0.00625
            },
            {
              "pitch": 46,
              "velocity": 88,
              "position": 9,
              "duration": 0.00625
            },
            {
              "pitch": 44,
              "velocity": 58,
              "position": 9.5,
              "duration": 0.00625
            },
            {
              "pitch": 35,
              "velocity": 108,
              "position": 10,
              "duration": 0.00625
            },
            {
              "pitch": 46,
              "velocity": 88,
              "position": 10,
              "duration": 0.00625
            },
            {
              "pitch": 35,
              "velocity": 90,
              "position": 10.5,
              "duration": 0.00625
            },
            {
              "pitch": 44,
              "velocity": 58,
              "position": 10.5,
              "duration": 0.00625
            },
            {
              "pitch": 38,
              "velocity": 100,
              "position": 11,
              "duration": 0.00625
            },
            {
              "pitch": 46,
              "velocity": 88,
              "position": 11,
              "duration": 0.00625
            },
            {
              "pitch": 35,
              "velocity": 72,
              "position": 11.5,
              "duration": 0.00625
            },
            {
              "pitch": 46,
              "velocity": 59,
              "position": 11.5,
              "duration": 0.00625
            },
            {
              "pitch": 35,
              "velocity": 108,
              "position": 12,
              "duration": 0.00625
            },
            {
              "pitch": 46,
              "velocity": 93,
              "position": 12,
              "duration": 0.00625
            },
            {
              "pitch": 44,
              "velocity": 58,
              "position": 12.5,
              "duration": 0.00625
            },
            {
              "pitch": 38,
              "velocity": 100,
              "position": 13,
              "duration": 0.00625
            },
            {
              "pitch": 46,
              "velocity": 88,
              "position": 13,
              "duration": 0.00625
            },
            {
              "pitch": 44,
              "velocity": 58,
              "position": 13.5,
              "duration": 0.00625
            },
            {
              "pitch": 35,
              "velocity": 108,
              "position": 14,
              "duration": 0.00625
            },
            {
              "pitch": 46,
              "velocity": 88,
              "position": 14,
              "duration": 0.00625
            },
            {
              "pitch": 35,
              "velocity": 90,
              "position": 14.5,
              "duration": 0.00625
            },
            {
              "pitch": 46,
              "velocity": 59,
              "position": 14.5,
              "duration": 0.00625
            },
            {
              "pitch": 38,
              "velocity": 100,
              "position": 15,
              "duration": 0.00625
            },
            {
              "pitch": 46,
              "velocity": 88,
              "position": 15,
              "duration": 0.00625
            },
            {
              "pitch": 35,
              "velocity": 72,
              "position": 15.5,
              "duration": 0.00625
            },
            {
              "pitch": 46,
              "velocity": 59,
              "position": 15.5,
              "duration": 0.00625
            }
          ]
        },
        "10": {
          "ctab": {
            "srcChannel": 10,
            "name": "Bass A",
            "accType": "BASS",
            "editable": false,
            "mutedNotes": [],
            "mutedChords": [
              "1+2+5",
              "sus4",
              "7aug",
              "Maj7aug",
              "minMaj7(9)",
              "minMaj7",
              "min(9)",
              "min",
              "aug"
            ],
            "autoStart": false,
            "sourceChordNote": 0,
            "sourceChordType": "Maj7",
            "ctb2Low": null,
            "ctb2Main": {
              "ntr": "ROOT_TRANSPOSITION",
              "ntt": "MELODY",
              "bassOn": true,
              "chordRootUpperLimit": 8,
              "noteLowLimit": 28,
              "noteHighLimit": 127,
              "rtr": "PITCH_SHIFT_TO_ROOT"
            },
            "ctb2High": null
          },
          "notes": [
            {
              "pitch": 24,
              "velocity": 70,
              "position": 0,
              "duration": 0.9854166666666667
            },
            {
              "pitch": 48,
              "velocity": 106,
              "position": 1,
              "duration": 0.027083333333333334
            },
            {
              "pitch": 55,
              "velocity": 106,
              "position": 1.03125,
              "duration": 0.027083333333333334
            },
            {
              "pitch": 24,
              "velocity": 44,
              "position": 1.5,
              "duration": 0.25625
            },
            {
              "pitch": 24,
              "velocity": 70,
              "position": 2,
              "duration": 0.48541666666666666
            },
            {
              "pitch": 24,
              "velocity": 50,
              "position": 2.5,
              "duration": 0.48541666666666666
            },
            {
              "pitch": 48,
              "velocity": 106,
              "position": 3,
              "duration": 0.027083333333333334
            },
            {
              "pitch": 55,
              "velocity": 106,
              "position": 3.03125,
              "duration": 0.027083333333333334
            },
            {
              "pitch": 31,
              "velocity": 40,
              "position": 3.5,
              "duration": 0.23541666666666666
            },
            {
              "pitch": 24,
              "velocity": 70,
              "position": 4,
              "duration": 0.98125
            },
            {
              "pitch": 48,
              "velocity": 106,
              "position": 5,
              "duration": 0.027083333333333334
            },
            {
              "pitch": 55,
              "velocity": 106,
              "position": 5.03125,
              "duration": 0.027083333333333334
            },
            {
              "pitch": 24,
              "velocity": 51,
              "position": 5.5,
              "duration": 0.23541666666666666
            },
            {
              "pitch": 24,
              "velocity": 70,
              "position": 6,
              "duration": 0.43333333333333335
            },
            {
              "pitch": 24,
              "velocity": 50,
              "position": 6.5,
              "duration": 0.43333333333333335
            },
            {
              "pitch": 28,
              "velocity": 60,
              "position": 7,
              "duration": 0.43333333333333335
            },
            {
              "pitch": 31,
              "velocity": 50,
              "position": 7.5,
              "duration": 0.43333333333333335
            },
            {
              "pitch": 24,
              "velocity": 70,
              "position": 8,
              "duration": 0.9854166666666667
            },
            {
              "pitch": 48,
              "velocity": 106,
              "position": 9,
              "duration": 0.027083333333333334
            },
            {
              "pitch": 55,
              "velocity": 106,
              "position": 9.03125,
              "duration": 0.027083333333333334
            },
            {
              "pitch": 24,
              "velocity": 49,
              "position": 9.5,
              "duration": 0.25625
            },
            {
              "pitch": 24,
              "velocity": 70,
              "position": 10,
              "duration": 0.48541666666666666
            },
            {
              "pitch": 24,
              "velocity": 50,
              "position": 10.5,
              "duration": 0.48541666666666666
            },
            {
              "pitch": 48,
              "velocity": 106,
              "position": 11,
              "duration": 0.027083333333333334
            },
            {
              "pitch": 55,
              "velocity": 106,
              "position": 11.03125,
              "duration": 0.027083333333333334
            },
            {
              "pitch": 31,
              "velocity": 40,
              "position": 11.5,
              "duration": 0.23541666666666666
            },
            {
              "pitch": 24,
              "velocity": 70,
              "position": 12,
              "duration": 0.9854166666666667
            },
            {
              "pitch": 48,
              "velocity": 106,
              "position": 13,
              "duration": 0.027083333333333334
            },
            {
              "pitch": 55,
              "velocity": 106,
              "position": 13.03125,
              "duration": 0.027083333333333334
            },
            {
              "pitch": 24,
              "velocity": 49,
              "position": 13.5,
              "duration": 0.25625
            },
            {
              "pitch": 24,
              "velocity": 70,
              "position": 14,
              "duration": 0.43333333333333335
            },
            {
              "pitch": 24,
              "velocity": 50,
              "position": 14.5,
              "duration": 0.43333333333333335
            },
            {
              "pitch": 28,
              "velocity": 60,
              "position": 15,
              "duration": 0.43333333333333335
            },
            {
              "pitch": 31,
              "velocity": 50,
              "position": 15.5,
              "duration": 0.43333333333333335
            }
          ]
        },
        "11": {
          "ctab": {
            "srcChannel": 11,
            "name": "SteelGtr",
            "accType": "CHORD1",
            "editable": false,
            "mutedNotes": [],
            "mutedChords": [],
            "autoStart": false,
            "sourceChordNote": 0,
            "sourceChordType": "Maj7",
            "ctb2Low": null,
            "ctb2Main": {
              "ntr": "ROOT_TRANSPOSITION",
              "ntt": "MELODY",
              "bassOn": true,
              "chordRootUpperLimit": 3,
              "noteLowLimit": 0,
              "noteHighLimit": 127,
              "rtr": "PITCH_SHIFT"
            },
            "ctb2High": null
          },
          "notes": [
            {
              "pitch": 60,
              "velocity": 42,
              "position": 0.020833333333333332,
              "duration": 0.46458333333333335
            },
            {
              "pitch": 67,
              "velocity": 42,
              "position": 0.03125,
              "duration": 0.45416666666666666
            },
            {
              "pitch": 71,
              "velocity": 42,
              "position": 0.03125,
              "duration": 0.45416666666666666
            },
            {
              "pitch": 55,
              "velocity": 34,
              "position": 0.010416666666666666,
              "duration": 0.48541666666666666
            },
            {
              "pitch": 59,
              "velocity": 34,
              "position": 0.010416666666666666,
              "duration": 0.48541666666666666
            },
            {
              "pitch": 64,
              "velocity": 47,
              "position": 0.03125,
              "duration": 0.46458333333333335
            },
            {
              "pitch": 48,
              "velocity": 37,
              "position": 0.0020833333333333333,
              "duration": 0.50625
            },
            {
              "pitch": 60,
              "velocity": 28,
              "position": 0.5,
              "duration": 0.48541666666666666
            },
            {
              "pitch": 48,
              "velocity": 22,
              "position": 0.5208333333333334,
              "duration": 0.46458333333333335
            },
            {
              "pitch": 55,
              "velocity": 28,
              "position": 0.5104166666666666,
              "duration": 0.48541666666666666
            },
            {
              "pitch": 59,
              "velocity": 28,
              "position": 0.5104166666666666,
              "duration": 0.48541666666666666
            },
            {
              "pitch": 64,
              "velocity": 25,
              "position": 0.5104166666666666,
              "duration": 0.48541666666666666
            },
            {
              "pitch": 67,
              "velocity": 36,
              "position": 0.5,
              "duration": 0.50625
            },
            {
              "pitch": 71,
              "velocity": 36,
              "position": 0.5,
              "duration": 0.50625
            },
            {
              "pitch": 67,
              "velocity": 36,
              "position": 1.0208333333333333,
              "duration": 0.46458333333333335
            },
            {
              "pitch": 71,
              "velocity": 36,
              "position": 1.0208333333333333,
              "duration": 0.46458333333333335
            },
            {
              "pitch": 64,
              "velocity": 42,
              "position": 1.0104166666666667,
              "duration": 0.48541666666666666
            },
            {
              "pitch": 55,
              "velocity": 36,
              "position": 1.0104166666666667,
              "duration": 0.49583333333333335
            },
            {
              "pitch": 59,
              "velocity": 36,
              "position": 1.0104166666666667,
              "duration": 0.49583333333333335
            },
            {
              "pitch": 48,
              "velocity": 35,
              "position": 1,
              "duration": 0.50625
            },
            {
              "pitch": 60,
              "velocity": 42,
              "position": 1,
              "duration": 0.50625
            },
            {
              "pitch": 67,
              "velocity": 42,
              "position": 1.5,
              "duration": 0.9854166666666667
            },
            {
              "pitch": 71,
              "velocity": 42,
              "position": 1.5,
              "duration": 0.9854166666666667
            },
            {
              "pitch": 60,
              "velocity": 45,
              "position": 1.5208333333333333,
              "duration": 0.9645833333333333
            },
            {
              "pitch": 64,
              "velocity": 47,
              "position": 1.5104166666666667,
              "duration": 0.9854166666666667
            },
            {
              "pitch": 55,
              "velocity": 45,
              "position": 1.5208333333333333,
              "duration": 0.975
            },
            {
              "pitch": 59,
              "velocity": 45,
              "position": 1.5208333333333333,
              "duration": 0.975
            },
            {
              "pitch": 48,
              "velocity": 42,
              "position": 1.5208333333333333,
              "duration": 0.9854166666666667
            },
            {
              "pitch": 48,
              "velocity": 22,
              "position": 2.5208333333333335,
              "duration": 0.46458333333333335
            },
            {
              "pitch": 55,
              "velocity": 28,
              "position": 2.5104166666666665,
              "duration": 0.48541666666666666
            },
            {
              "pitch": 59,
              "velocity": 28,
              "position": 2.5104166666666665,
              "duration": 0.48541666666666666
            },
            {
              "pitch": 60,
              "velocity": 28,
              "position": 2.5,
              "duration": 0.50625
            },
            {
              "pitch": 64,
              "velocity": 36,
              "position": 2.5104166666666665,
              "duration": 0.50625
            },
            {
              "pitch": 67,
              "velocity": 28,
              "position": 2.5,
              "duration": 0.5166666666666667
            },
            {
              "pitch": 71,
              "velocity": 28,
              "position": 2.5,
              "duration": 0.5166666666666667
            },
            {
              "pitch": 60,
              "velocity": 45,
              "position": 3.0208333333333335,
              "duration": 0.46458333333333335
            },
            {
              "pitch": 67,
              "velocity": 42,
              "position": 3.03125,
              "duration": 0.45416666666666666
            },
            {
              "pitch": 71,
              "velocity": 42,
              "position": 3.03125,
              "duration": 0.45416666666666666
            },
            {
              "pitch": 55,
              "velocity": 45,
              "position": 3.0104166666666665,
              "duration": 0.48541666666666666
            },
            {
              "pitch": 59,
              "velocity": 45,
              "position": 3.0104166666666665,
              "duration": 0.48541666666666666
            },
            {
              "pitch": 64,
              "velocity": 47,
              "position": 3.03125,
              "duration": 0.46458333333333335
            },
            {
              "pitch": 48,
              "velocity": 42,
              "position": 3,
              "duration": 0.50625
            },
            {
              "pitch": 48,
              "velocity": 22,
              "position": 3.5208333333333335,
              "duration": 0.46458333333333335
            },
            {
              "pitch": 55,
              "velocity": 28,
              "position": 3.5104166666666665,
              "duration": 0.48541666666666666
            },
            {
              "pitch": 59,
              "velocity": 28,
              "position": 3.5104166666666665,
              "duration": 0.48541666666666666
            },
            {
              "pitch": 60,
              "velocity": 28,
              "position": 3.5,
              "duration": 0.50625
            },
            {
              "pitch": 64,
              "velocity": 25,
              "position": 3.5104166666666665,
              "duration": 0.50625
            },
            {
              "pitch": 67,
              "velocity": 28,
              "position": 3.5,
              "duration": 0.5166666666666667
            },
            {
              "pitch": 71,
              "velocity": 28,
              "position": 3.5,
              "duration": 0.5166666666666667
            },
            {
              "pitch": 60,
              "velocity": 42,
              "position": 4.020833333333333,
              "duration": 0.46458333333333335
            },
            {
              "pitch": 67,
              "velocity": 42,
              "position": 4.03125,
              "duration": 0.45416666666666666
            },
            {
              "pitch": 71,
              "velocity": 42,
              "position": 4.03125,
              "duration": 0.45416666666666666
            },
            {
              "pitch": 55,
              "velocity": 34,
              "position": 4.010416666666667,
              "duration": 0.48541666666666666
            },
            {
              "pitch": 59,
              "velocity": 34,
              "position": 4.010416666666667,
              "duration": 0.48541666666666666
            },
            {
              "pitch": 64,
              "velocity": 47,
              "position": 4.03125,
              "duration": 0.46458333333333335
            },
            {
              "pitch": 48,
              "velocity": 37,
              "position": 4,
              "duration": 0.50625
            },
            {
              "pitch": 60,
              "velocity": 28,
              "position": 4.5,
              "duration": 0.48541666666666666
            },
            {
              "pitch": 48,
              "velocity": 22,
              "position": 4.520833333333333,
              "duration": 0.46458333333333335
            },
            {
              "pitch": 55,
              "velocity": 28,
              "position": 4.510416666666667,
              "duration": 0.48541666666666666
            },
            {
              "pitch": 59,
              "velocity": 28,
              "position": 4.510416666666667,
              "duration": 0.48541666666666666
            },
            {
              "pitch": 64,
              "velocity": 34,
              "position": 4.510416666666667,
              "duration": 0.48541666666666666
            },
            {
              "pitch": 67,
              "velocity": 28,
              "position": 4.5,
              "duration": 0.50625
            },
            {
              "pitch": 71,
              "velocity": 28,
              "position": 4.5,
              "duration": 0.50625
            },
            {
              "pitch": 67,
              "velocity": 36,
              "position": 5.020833333333333,
              "duration": 0.46458333333333335
            },
            {
              "pitch": 71,
              "velocity": 36,
              "position": 5.020833333333333,
              "duration": 0.46458333333333335
            },
            {
              "pitch": 64,
              "velocity": 42,
              "position": 5.010416666666667,
              "duration": 0.48541666666666666
            },
            {
              "pitch": 55,
              "velocity": 36,
              "position": 5.010416666666667,
              "duration": 0.49583333333333335
            },
            {
              "pitch": 59,
              "velocity": 36,
              "position": 5.010416666666667,
              "duration": 0.49583333333333335
            },
            {
              "pitch": 48,
              "velocity": 35,
              "position": 5,
              "duration": 0.50625
            },
            {
              "pitch": 60,
              "velocity": 42,
              "position": 5,
              "duration": 0.50625
            },
            {
              "pitch": 67,
              "velocity": 42,
              "position": 5.5,
              "duration": 0.9854166666666667
            },
            {
              "pitch": 71,
              "velocity": 42,
              "position": 5.5,
              "duration": 0.9854166666666667
            },
            {
              "pitch": 60,
              "velocity": 45,
              "position": 5.520833333333333,
              "duration": 0.9645833333333333
            },
            {
              "pitch": 64,
              "velocity": 47,
              "position": 5.510416666666667,
              "duration": 0.9854166666666667
            },
            {
              "pitch": 55,
              "velocity": 45,
              "position": 5.520833333333333,
              "duration": 0.975
            },
            {
              "pitch": 59,
              "velocity": 45,
              "position": 5.520833333333333,
              "duration": 0.975
            },
            {
              "pitch": 48,
              "velocity": 42,
              "position": 5.520833333333333,
              "duration": 0.9854166666666667
            },
            {
              "pitch": 48,
              "velocity": 22,
              "position": 6.520833333333333,
              "duration": 0.46458333333333335
            },
            {
              "pitch": 55,
              "velocity": 28,
              "position": 6.510416666666667,
              "duration": 0.48541666666666666
            },
            {
              "pitch": 59,
              "velocity": 28,
              "position": 6.510416666666667,
              "duration": 0.48541666666666666
            },
            {
              "pitch": 60,
              "velocity": 28,
              "position": 6.5,
              "duration": 0.50625
            },
            {
              "pitch": 64,
              "velocity": 25,
              "position": 6.510416666666667,
              "duration": 0.50625
            },
            {
              "pitch": 67,
              "velocity": 36,
              "position": 6.5,
              "duration": 0.5166666666666667
            },
            {
              "pitch": 71,
              "velocity": 36,
              "position": 6.5,
              "duration": 0.5166666666666667
            },
            {
              "pitch": 60,
              "velocity": 45,
              "position": 7.020833333333333,
              "duration": 0.46458333333333335
            },
            {
              "pitch": 67,
              "velocity": 42,
              "position": 7.03125,
              "duration": 0.45416666666666666
            },
            {
              "pitch": 71,
              "velocity": 42,
              "position": 7.03125,
              "duration": 0.45416666666666666
            },
            {
              "pitch": 55,
              "velocity": 45,
              "position": 7.010416666666667,
              "duration": 0.48541666666666666
            },
            {
              "pitch": 59,
              "velocity": 45,
              "position": 7.010416666666667,
              "duration": 0.48541666666666666
            },
            {
              "pitch": 64,
              "velocity": 47,
              "position": 7.03125,
              "duration": 0.46458333333333335
            },
            {
              "pitch": 48,
              "velocity": 42,
              "position": 7,
              "duration": 0.50625
            },
            {
              "pitch": 48,
              "velocity": 22,
              "position": 7.520833333333333,
              "duration": 0.46458333333333335
            },
            {
              "pitch": 60,
              "velocity": 28,
              "position": 7.5,
              "duration": 0.48541666666666666
            },
            {
              "pitch": 67,
              "velocity": 28,
              "position": 7.5,
              "duration": 0.48541666666666666
            },
            {
              "pitch": 71,
              "velocity": 28,
              "position": 7.5,
              "duration": 0.48541666666666666
            },
            {
              "pitch": 55,
              "velocity": 28,
              "position": 7.510416666666667,
              "duration": 0.48541666666666666
            },
            {
              "pitch": 59,
              "velocity": 28,
              "position": 7.510416666666667,
              "duration": 0.48541666666666666
            },
            {
              "pitch": 64,
              "velocity": 25,
              "position": 7.510416666666667,
              "duration": 0.48541666666666666
            },
            {
              "pitch": 60,
              "velocity": 42,
              "position": 8.020833333333334,
              "duration": 0.46458333333333335
            },
            {
              "pitch": 67,
              "velocity": 42,
              "position": 8.03125,
              "duration": 0.45416666666666666
            },
            {
              "pitch": 71,
              "velocity": 42,
              "position": 8.03125,
              "duration": 0.45416666666666666
            },
            {
              "pitch": 55,
              "velocity": 34,
              "position": 8.010416666666666,
              "duration": 0.48541666666666666
            },
            {
              "pitch": 59,
              "velocity": 34,
              "position": 8.010416666666666,
              "duration": 0.48541666666666666
            },
            {
              "pitch": 64,
              "velocity": 47,
              "position": 8.03125,
              "duration": 0.46458333333333335
            },
            {
              "pitch": 48,
              "velocity": 37,
              "position": 8,
              "duration": 0.50625
            },
            {
              "pitch": 60,
              "velocity": 28,
              "position": 8.5,
              "duration": 0.48541666666666666
            },
            {
              "pitch": 48,
              "velocity": 22,
              "position": 8.520833333333334,
              "duration": 0.46458333333333335
            },
            {
              "pitch": 55,
              "velocity": 28,
              "position": 8.510416666666666,
              "duration": 0.48541666666666666
            },
            {
              "pitch": 59,
              "velocity": 28,
              "position": 8.510416666666666,
              "duration": 0.48541666666666666
            },
            {
              "pitch": 64,
              "velocity": 25,
              "position": 8.510416666666666,
              "duration": 0.48541666666666666
            },
            {
              "pitch": 67,
              "velocity": 36,
              "position": 8.5,
              "duration": 0.50625
            },
            {
              "pitch": 71,
              "velocity": 36,
              "position": 8.5,
              "duration": 0.50625
            },
            {
              "pitch": 67,
              "velocity": 36,
              "position": 9.020833333333334,
              "duration": 0.46458333333333335
            },
            {
              "pitch": 71,
              "velocity": 36,
              "position": 9.020833333333334,
              "duration": 0.46458333333333335
            },
            {
              "pitch": 64,
              "velocity": 42,
              "position": 9.010416666666666,
              "duration": 0.48541666666666666
            },
            {
              "pitch": 55,
              "velocity": 36,
              "position": 9.010416666666666,
              "duration": 0.49583333333333335
            },
            {
              "pitch": 59,
              "velocity": 36,
              "position": 9.010416666666666,
              "duration": 0.49583333333333335
            },
            {
              "pitch": 48,
              "velocity": 35,
              "position": 9,
              "duration": 0.50625
            },
            {
              "pitch": 60,
              "velocity": 42,
              "position": 9,
              "duration": 0.50625
            },
            {
              "pitch": 67,
              "velocity": 42,
              "position": 9.5,
              "duration": 0.9854166666666667
            },
            {
              "pitch": 71,
              "velocity": 42,
              "position": 9.5,
              "duration": 0.9854166666666667
            },
            {
              "pitch": 60,
              "velocity": 45,
              "position": 9.520833333333334,
              "duration": 0.9645833333333333
            },
            {
              "pitch": 64,
              "velocity": 47,
              "position": 9.510416666666666,
              "duration": 0.9854166666666667
            },
            {
              "pitch": 55,
              "velocity": 45,
              "position": 9.520833333333334,
              "duration": 0.975
            },
            {
              "pitch": 59,
              "velocity": 45,
              "position": 9.520833333333334,
              "duration": 0.975
            },
            {
              "pitch": 48,
              "velocity": 42,
              "position": 9.520833333333334,
              "duration": 0.9854166666666667
            },
            {
              "pitch": 48,
              "velocity": 22,
              "position": 10.520833333333334,
              "duration": 0.46458333333333335
            },
            {
              "pitch": 55,
              "velocity": 28,
              "position": 10.510416666666666,
              "duration": 0.48541666666666666
            },
            {
              "pitch": 59,
              "velocity": 28,
              "position": 10.510416666666666,
              "duration": 0.48541666666666666
            },
            {
              "pitch": 60,
              "velocity": 28,
              "position": 10.5,
              "duration": 0.50625
            },
            {
              "pitch": 64,
              "velocity": 36,
              "position": 10.510416666666666,
              "duration": 0.50625
            },
            {
              "pitch": 67,
              "velocity": 28,
              "position": 10.5,
              "duration": 0.5166666666666667
            },
            {
              "pitch": 71,
              "velocity": 28,
              "position": 10.5,
              "duration": 0.5166666666666667
            },
            {
              "pitch": 60,
              "velocity": 45,
              "position": 11.020833333333334,
              "duration": 0.46458333333333335
            },
            {
              "pitch": 67,
              "velocity": 42,
              "position": 11.03125,
              "duration": 0.45416666666666666
            },
            {
              "pitch": 71,
              "velocity": 42,
              "position": 11.03125,
              "duration": 0.45416666666666666
            },
            {
              "pitch": 55,
              "velocity": 45,
              "position": 11.010416666666666,
              "duration": 0.48541666666666666
            },
            {
              "pitch": 59,
              "velocity": 45,
              "position": 11.010416666666666,
              "duration": 0.48541666666666666
            },
            {
              "pitch": 64,
              "velocity": 47,
              "position": 11.03125,
              "duration": 0.46458333333333335
            },
            {
              "pitch": 48,
              "velocity": 42,
              "position": 11,
              "duration": 0.50625
            },
            {
              "pitch": 48,
              "velocity": 22,
              "position": 11.520833333333334,
              "duration": 0.46458333333333335
            },
            {
              "pitch": 55,
              "velocity": 28,
              "position": 11.510416666666666,
              "duration": 0.48541666666666666
            },
            {
              "pitch": 59,
              "velocity": 28,
              "position": 11.510416666666666,
              "duration": 0.48541666666666666
            },
            {
              "pitch": 60,
              "velocity": 28,
              "position": 11.5,
              "duration": 0.50625
            },
            {
              "pitch": 64,
              "velocity": 25,
              "position": 11.510416666666666,
              "duration": 0.50625
            },
            {
              "pitch": 67,
              "velocity": 28,
              "position": 11.5,
              "duration": 0.5166666666666667
            },
            {
              "pitch": 71,
              "velocity": 28,
              "position": 11.5,
              "duration": 0.5166666666666667
            },
            {
              "pitch": 60,
              "velocity": 42,
              "position": 12.020833333333334,
              "duration": 0.46458333333333335
            },
            {
              "pitch": 67,
              "velocity": 42,
              "position": 12.03125,
              "duration": 0.45416666666666666
            },
            {
              "pitch": 71,
              "velocity": 42,
              "position": 12.03125,
              "duration": 0.45416666666666666
            },
            {
              "pitch": 55,
              "velocity": 34,
              "position": 12.010416666666666,
              "duration": 0.48541666666666666
            },
            {
              "pitch": 59,
              "velocity": 34,
              "position": 12.010416666666666,
              "duration": 0.48541666666666666
            },
            {
              "pitch": 64,
              "velocity": 47,
              "position": 12.03125,
              "duration": 0.46458333333333335
            },
            {
              "pitch": 48,
              "velocity": 37,
              "position": 12,
              "duration": 0.50625
            },
            {
              "pitch": 60,
              "velocity": 28,
              "position": 12.5,
              "duration": 0.48541666666666666
            },
            {
              "pitch": 48,
              "velocity": 22,
              "position": 12.520833333333334,
              "duration": 0.46458333333333335
            },
            {
              "pitch": 55,
              "velocity": 28,
              "position": 12.510416666666666,
              "duration": 0.48541666666666666
            },
            {
              "pitch": 59,
              "velocity": 28,
              "position": 12.510416666666666,
              "duration": 0.48541666666666666
            },
            {
              "pitch": 64,
              "velocity": 34,
              "position": 12.510416666666666,
              "duration": 0.48541666666666666
            },
            {
              "pitch": 67,
              "velocity": 28,
              "position": 12.5,
              "duration": 0.50625
            },
            {
              "pitch": 71,
              "velocity": 28,
              "position": 12.5,
              "duration": 0.50625
            },
            {
              "pitch": 67,
              "velocity": 36,
              "position": 13.020833333333334,
              "duration": 0.46458333333333335
            },
            {
              "pitch": 71,
              "velocity": 36,
              "position": 13.020833333333334,
              "duration": 0.46458333333333335
            },
            {
              "pitch": 64,
              "velocity": 42,
              "position": 13.010416666666666,
              "duration": 0.48541666666666666
            },
            {
              "pitch": 55,
              "velocity": 36,
              "position": 13.010416666666666,
              "duration": 0.49583333333333335
            },
            {
              "pitch": 59,
              "velocity": 36,
              "position": 13.010416666666666,
              "duration": 0.49583333333333335
            },
            {
              "pitch": 48,
              "velocity": 35,
              "position": 13,
              "duration": 0.50625
            },
            {
              "pitch": 60,
              "velocity": 42,
              "position": 13,
              "duration": 0.50625
            },
            {
              "pitch": 67,
              "velocity": 42,
              "position": 13.5,
              "duration": 0.9854166666666667
            },
            {
              "pitch": 71,
              "velocity": 42,
              "position": 13.5,
              "duration": 0.9854166666666667
            },
            {
              "pitch": 60,
              "velocity": 45,
              "position": 13.520833333333334,
              "duration": 0.9645833333333333
            },
            {
              "pitch": 64,
              "velocity": 47,
              "position": 13.510416666666666,
              "duration": 0.9854166666666667
            },
            {
              "pitch": 55,
              "velocity": 45,
              "position": 13.520833333333334,
              "duration": 0.975
            },
            {
              "pitch": 59,
              "velocity": 45,
              "position": 13.520833333333334,
              "duration": 0.975
            },
            {
              "pitch": 48,
              "velocity": 42,
              "position": 13.520833333333334,
              "duration": 0.9854166666666667
            },
            {
              "pitch": 48,
              "velocity": 22,
              "position": 14.520833333333334,
              "duration": 0.46458333333333335
            },
            {
              "pitch": 55,
              "velocity": 28,
              "position": 14.510416666666666,
              "duration": 0.48541666666666666
            },
            {
              "pitch": 59,
              "velocity": 28,
              "position": 14.510416666666666,
              "duration": 0.48541666666666666
            },
            {
              "pitch": 60,
              "velocity": 28,
              "position": 14.5,
              "duration": 0.50625
            },
            {
              "pitch": 64,
              "velocity": 25,
              "position": 14.510416666666666,
              "duration": 0.50625
            },
            {
              "pitch": 67,
              "velocity": 36,
              "position": 14.5,
              "duration": 0.5166666666666667
            },
            {
              "pitch": 71,
              "velocity": 36,
              "position": 14.5,
              "duration": 0.5166666666666667
            },
            {
              "pitch": 60,
              "velocity": 45,
              "position": 15.020833333333334,
              "duration": 0.46458333333333335
            },
            {
              "pitch": 67,
              "velocity": 42,
              "position": 15.03125,
              "duration": 0.45416666666666666
            },
            {
              "pitch": 71,
              "velocity": 42,
              "position": 15.03125,
              "duration": 0.45416666666666666
            },
            {
              "pitch": 55,
              "velocity": 45,
              "position": 15.010416666666666,
              "duration": 0.48541666666666666
            },
            {
              "pitch": 59,
              "velocity": 45,
              "position": 15.010416666666666,
              "duration": 0.48541666666666666
            },
            {
              "pitch": 64,
              "velocity": 47,
              "position": 15.03125,
              "duration": 0.46458333333333335
            },
            {
              "pitch": 48,
              "velocity": 42,
              "position": 15,
              "duration": 0.50625
            },
            {
              "pitch": 48,
              "velocity": 22,
              "position": 15.520833333333334,
              "duration": 0.46458333333333335
            },
            {
              "pitch": 60,
              "velocity": 28,
              "position": 15.5,
              "duration": 0.48541666666666666
            },
            {
              "pitch": 67,
              "velocity": 28,
              "position": 15.5,
              "duration": 0.48541666666666666
            },
            {
              "pitch": 71,
              "velocity": 28,
              "position": 15.5,
              "duration": 0.48541666666666666
            },
            {
              "pitch": 55,
              "velocity": 28,
              "position": 15.510416666666666,
              "duration": 0.48541666666666666
            },
            {
              "pitch": 59,
              "velocity": 28,
              "position": 15.510416666666666,
              "duration": 0.48541666666666666
            },
            {
              "pitch": 64,
              "velocity": 25,
              "position": 15.510416666666666,
              "duration": 0.48541666666666666
            }
          ]
        },
        "12": {
          "ctab": {
            "srcChannel": 12,
            "name": "HistrGtr",
            "accType": "CHORD2",
            "editable": false,
            "mutedNotes": [],
            "mutedChords": [],
            "autoStart": false,
            "sourceChordNote": 0,
            "sourceChordType": "Maj7",
            "ctb2Low": null,
            "ctb2Main": {
              "ntr": "ROOT_TRANSPOSITION",
              "ntt": "MELODY",
              "bassOn": true,
              "chordRootUpperLimit": 6,
              "noteLowLimit": 0,
              "noteHighLimit": 127,
              "rtr": "PITCH_SHIFT"
            },
            "ctb2High": null
          },
          "notes": [
            {
              "pitch": 67,
              "velocity": 65,
              "position": 0.020833333333333332,
              "duration": 0.46458333333333335
            },
            {
              "pitch": 71,
              "velocity": 65,
              "position": 0.020833333333333332,
              "duration": 0.46458333333333335
            },
            {
              "pitch": 64,
              "velocity": 62,
              "position": 0.020833333333333332,
              "duration": 0.475
            },
            {
              "pitch": 60,
              "velocity": 60,
              "position": 0.020833333333333332,
              "duration": 0.48541666666666666
            },
            {
              "pitch": 55,
              "velocity": 60,
              "position": 0.010416666666666666,
              "duration": 0.49583333333333335
            },
            {
              "pitch": 59,
              "velocity": 60,
              "position": 0.010416666666666666,
              "duration": 0.49583333333333335
            },
            {
              "pitch": 48,
              "velocity": 55,
              "position": 0.010416666666666666,
              "duration": 0.50625
            },
            {
              "pitch": 48,
              "velocity": 51,
              "position": 0.5208333333333334,
              "duration": 0.46458333333333335
            },
            {
              "pitch": 55,
              "velocity": 51,
              "position": 0.5208333333333334,
              "duration": 0.475
            },
            {
              "pitch": 59,
              "velocity": 51,
              "position": 0.5208333333333334,
              "duration": 0.475
            },
            {
              "pitch": 67,
              "velocity": 54,
              "position": 0.5,
              "duration": 0.50625
            },
            {
              "pitch": 71,
              "velocity": 54,
              "position": 0.5,
              "duration": 0.50625
            },
            {
              "pitch": 60,
              "velocity": 51,
              "position": 0.5208333333333334,
              "duration": 0.48541666666666666
            },
            {
              "pitch": 64,
              "velocity": 54,
              "position": 0.5104166666666666,
              "duration": 0.49583333333333335
            },
            {
              "pitch": 48,
              "velocity": 30,
              "position": 1,
              "duration": 0.12083333333333333
            },
            {
              "pitch": 55,
              "velocity": 30,
              "position": 1.0104166666666667,
              "duration": 0.12083333333333333
            },
            {
              "pitch": 59,
              "velocity": 30,
              "position": 1.0104166666666667,
              "duration": 0.12083333333333333
            },
            {
              "pitch": 64,
              "velocity": 30,
              "position": 1.0208333333333333,
              "duration": 0.12083333333333333
            },
            {
              "pitch": 60,
              "velocity": 30,
              "position": 1.0208333333333333,
              "duration": 0.12083333333333333
            },
            {
              "pitch": 67,
              "velocity": 30,
              "position": 1.0208333333333333,
              "duration": 0.12083333333333333
            },
            {
              "pitch": 71,
              "velocity": 30,
              "position": 1.0208333333333333,
              "duration": 0.12083333333333333
            },
            {
              "pitch": 67,
              "velocity": 66,
              "position": 1.5,
              "duration": 0.9854166666666667
            },
            {
              "pitch": 71,
              "velocity": 66,
              "position": 1.5,
              "duration": 0.9854166666666667
            },
            {
              "pitch": 64,
              "velocity": 66,
              "position": 1.5104166666666667,
              "duration": 0.9854166666666667
            },
            {
              "pitch": 48,
              "velocity": 60,
              "position": 1.5208333333333333,
              "duration": 0.9854166666666667
            },
            {
              "pitch": 60,
              "velocity": 61,
              "position": 1.5208333333333333,
              "duration": 0.9854166666666667
            },
            {
              "pitch": 55,
              "velocity": 60,
              "position": 1.5208333333333333,
              "duration": 0.9854166666666667
            },
            {
              "pitch": 59,
              "velocity": 60,
              "position": 1.5208333333333333,
              "duration": 0.9854166666666667
            },
            {
              "pitch": 67,
              "velocity": 52,
              "position": 2.5,
              "duration": 0.9854166666666667
            },
            {
              "pitch": 71,
              "velocity": 52,
              "position": 2.5,
              "duration": 0.9854166666666667
            },
            {
              "pitch": 64,
              "velocity": 57,
              "position": 2.5104166666666665,
              "duration": 0.9854166666666667
            },
            {
              "pitch": 48,
              "velocity": 40,
              "position": 2.5208333333333335,
              "duration": 0.9854166666666667
            },
            {
              "pitch": 60,
              "velocity": 57,
              "position": 2.5208333333333335,
              "duration": 0.9854166666666667
            },
            {
              "pitch": 55,
              "velocity": 40,
              "position": 2.5208333333333335,
              "duration": 0.9854166666666667
            },
            {
              "pitch": 59,
              "velocity": 40,
              "position": 2.5208333333333335,
              "duration": 0.9854166666666667
            },
            {
              "pitch": 48,
              "velocity": 36,
              "position": 3.5208333333333335,
              "duration": 0.46458333333333335
            },
            {
              "pitch": 55,
              "velocity": 36,
              "position": 3.5208333333333335,
              "duration": 0.475
            },
            {
              "pitch": 59,
              "velocity": 36,
              "position": 3.5208333333333335,
              "duration": 0.475
            },
            {
              "pitch": 67,
              "velocity": 40,
              "position": 3.5,
              "duration": 0.50625
            },
            {
              "pitch": 71,
              "velocity": 40,
              "position": 3.5,
              "duration": 0.50625
            },
            {
              "pitch": 60,
              "velocity": 40,
              "position": 3.5208333333333335,
              "duration": 0.48541666666666666
            },
            {
              "pitch": 64,
              "velocity": 40,
              "position": 3.5104166666666665,
              "duration": 0.49583333333333335
            },
            {
              "pitch": 67,
              "velocity": 65,
              "position": 4.020833333333333,
              "duration": 0.46458333333333335
            },
            {
              "pitch": 71,
              "velocity": 65,
              "position": 4.020833333333333,
              "duration": 0.46458333333333335
            },
            {
              "pitch": 64,
              "velocity": 62,
              "position": 4.020833333333333,
              "duration": 0.475
            },
            {
              "pitch": 60,
              "velocity": 55,
              "position": 4.020833333333333,
              "duration": 0.48541666666666666
            },
            {
              "pitch": 48,
              "velocity": 50,
              "position": 4,
              "duration": 0.50625
            },
            {
              "pitch": 55,
              "velocity": 55,
              "position": 4.010416666666667,
              "duration": 0.49583333333333335
            },
            {
              "pitch": 59,
              "velocity": 55,
              "position": 4.010416666666667,
              "duration": 0.49583333333333335
            },
            {
              "pitch": 48,
              "velocity": 51,
              "position": 4.520833333333333,
              "duration": 0.46458333333333335
            },
            {
              "pitch": 55,
              "velocity": 51,
              "position": 4.520833333333333,
              "duration": 0.475
            },
            {
              "pitch": 59,
              "velocity": 51,
              "position": 4.520833333333333,
              "duration": 0.475
            },
            {
              "pitch": 67,
              "velocity": 54,
              "position": 4.5,
              "duration": 0.50625
            },
            {
              "pitch": 71,
              "velocity": 54,
              "position": 4.5,
              "duration": 0.50625
            },
            {
              "pitch": 60,
              "velocity": 51,
              "position": 4.520833333333333,
              "duration": 0.48541666666666666
            },
            {
              "pitch": 64,
              "velocity": 54,
              "position": 4.510416666666667,
              "duration": 0.49583333333333335
            },
            {
              "pitch": 48,
              "velocity": 30,
              "position": 5,
              "duration": 0.12083333333333333
            },
            {
              "pitch": 55,
              "velocity": 30,
              "position": 5.010416666666667,
              "duration": 0.12083333333333333
            },
            {
              "pitch": 59,
              "velocity": 30,
              "position": 5.010416666666667,
              "duration": 0.12083333333333333
            },
            {
              "pitch": 64,
              "velocity": 30,
              "position": 5.020833333333333,
              "duration": 0.12083333333333333
            },
            {
              "pitch": 60,
              "velocity": 30,
              "position": 5.020833333333333,
              "duration": 0.12083333333333333
            },
            {
              "pitch": 67,
              "velocity": 30,
              "position": 5.020833333333333,
              "duration": 0.12083333333333333
            },
            {
              "pitch": 71,
              "velocity": 30,
              "position": 5.020833333333333,
              "duration": 0.12083333333333333
            },
            {
              "pitch": 67,
              "velocity": 66,
              "position": 5.5,
              "duration": 0.9854166666666667
            },
            {
              "pitch": 71,
              "velocity": 66,
              "position": 5.5,
              "duration": 0.9854166666666667
            },
            {
              "pitch": 64,
              "velocity": 60,
              "position": 5.510416666666667,
              "duration": 0.9854166666666667
            },
            {
              "pitch": 48,
              "velocity": 55,
              "position": 5.520833333333333,
              "duration": 0.9854166666666667
            },
            {
              "pitch": 60,
              "velocity": 61,
              "position": 5.520833333333333,
              "duration": 0.9854166666666667
            },
            {
              "pitch": 55,
              "velocity": 60,
              "position": 5.520833333333333,
              "duration": 0.9854166666666667
            },
            {
              "pitch": 59,
              "velocity": 60,
              "position": 5.520833333333333,
              "duration": 0.9854166666666667
            },
            {
              "pitch": 48,
              "velocity": 40,
              "position": 6.520833333333333,
              "duration": 0.46458333333333335
            },
            {
              "pitch": 55,
              "velocity": 40,
              "position": 6.520833333333333,
              "duration": 0.475
            },
            {
              "pitch": 59,
              "velocity": 40,
              "position": 6.520833333333333,
              "duration": 0.475
            },
            {
              "pitch": 67,
              "velocity": 47,
              "position": 6.5,
              "duration": 0.50625
            },
            {
              "pitch": 71,
              "velocity": 47,
              "position": 6.5,
              "duration": 0.50625
            },
            {
              "pitch": 60,
              "velocity": 52,
              "position": 6.520833333333333,
              "duration": 0.48541666666666666
            },
            {
              "pitch": 64,
              "velocity": 52,
              "position": 6.510416666666667,
              "duration": 0.49583333333333335
            },
            {
              "pitch": 67,
              "velocity": 64,
              "position": 7.020833333333333,
              "duration": 0.46458333333333335
            },
            {
              "pitch": 71,
              "velocity": 64,
              "position": 7.020833333333333,
              "duration": 0.46458333333333335
            },
            {
              "pitch": 64,
              "velocity": 64,
              "position": 7.020833333333333,
              "duration": 0.475
            },
            {
              "pitch": 60,
              "velocity": 65,
              "position": 7.020833333333333,
              "duration": 0.48541666666666666
            },
            {
              "pitch": 48,
              "velocity": 55,
              "position": 7,
              "duration": 0.50625
            },
            {
              "pitch": 55,
              "velocity": 51,
              "position": 7.010416666666667,
              "duration": 0.49583333333333335
            },
            {
              "pitch": 59,
              "velocity": 51,
              "position": 7.010416666666667,
              "duration": 0.49583333333333335
            },
            {
              "pitch": 48,
              "velocity": 36,
              "position": 7.520833333333333,
              "duration": 0.46458333333333335
            },
            {
              "pitch": 55,
              "velocity": 36,
              "position": 7.520833333333333,
              "duration": 0.475
            },
            {
              "pitch": 59,
              "velocity": 36,
              "position": 7.520833333333333,
              "duration": 0.475
            },
            {
              "pitch": 67,
              "velocity": 40,
              "position": 7.5,
              "duration": 0.50625
            },
            {
              "pitch": 71,
              "velocity": 40,
              "position": 7.5,
              "duration": 0.50625
            },
            {
              "pitch": 60,
              "velocity": 40,
              "position": 7.520833333333333,
              "duration": 0.48541666666666666
            },
            {
              "pitch": 64,
              "velocity": 40,
              "position": 7.510416666666667,
              "duration": 0.49583333333333335
            },
            {
              "pitch": 67,
              "velocity": 65,
              "position": 8.020833333333334,
              "duration": 0.46458333333333335
            },
            {
              "pitch": 71,
              "velocity": 65,
              "position": 8.020833333333334,
              "duration": 0.46458333333333335
            },
            {
              "pitch": 64,
              "velocity": 62,
              "position": 8.020833333333334,
              "duration": 0.475
            },
            {
              "pitch": 60,
              "velocity": 60,
              "position": 8.020833333333334,
              "duration": 0.48541666666666666
            },
            {
              "pitch": 48,
              "velocity": 55,
              "position": 8,
              "duration": 0.50625
            },
            {
              "pitch": 55,
              "velocity": 60,
              "position": 8.010416666666666,
              "duration": 0.49583333333333335
            },
            {
              "pitch": 59,
              "velocity": 60,
              "position": 8.010416666666666,
              "duration": 0.49583333333333335
            },
            {
              "pitch": 48,
              "velocity": 51,
              "position": 8.520833333333334,
              "duration": 0.46458333333333335
            },
            {
              "pitch": 55,
              "velocity": 51,
              "position": 8.520833333333334,
              "duration": 0.475
            },
            {
              "pitch": 59,
              "velocity": 51,
              "position": 8.520833333333334,
              "duration": 0.475
            },
            {
              "pitch": 67,
              "velocity": 54,
              "position": 8.5,
              "duration": 0.50625
            },
            {
              "pitch": 71,
              "velocity": 54,
              "position": 8.5,
              "duration": 0.50625
            },
            {
              "pitch": 60,
              "velocity": 51,
              "position": 8.520833333333334,
              "duration": 0.48541666666666666
            },
            {
              "pitch": 64,
              "velocity": 54,
              "position": 8.510416666666666,
              "duration": 0.49583333333333335
            },
            {
              "pitch": 48,
              "velocity": 30,
              "position": 9,
              "duration": 0.12083333333333333
            },
            {
              "pitch": 55,
              "velocity": 30,
              "position": 9.010416666666666,
              "duration": 0.12083333333333333
            },
            {
              "pitch": 59,
              "velocity": 30,
              "position": 9.010416666666666,
              "duration": 0.12083333333333333
            },
            {
              "pitch": 64,
              "velocity": 30,
              "position": 9.020833333333334,
              "duration": 0.12083333333333333
            },
            {
              "pitch": 60,
              "velocity": 30,
              "position": 9.020833333333334,
              "duration": 0.12083333333333333
            },
            {
              "pitch": 67,
              "velocity": 30,
              "position": 9.020833333333334,
              "duration": 0.12083333333333333
            },
            {
              "pitch": 71,
              "velocity": 30,
              "position": 9.020833333333334,
              "duration": 0.12083333333333333
            },
            {
              "pitch": 67,
              "velocity": 66,
              "position": 9.5,
              "duration": 0.9854166666666667
            },
            {
              "pitch": 71,
              "velocity": 66,
              "position": 9.5,
              "duration": 0.9854166666666667
            },
            {
              "pitch": 64,
              "velocity": 66,
              "position": 9.510416666666666,
              "duration": 0.9854166666666667
            },
            {
              "pitch": 48,
              "velocity": 60,
              "position": 9.520833333333334,
              "duration": 0.9854166666666667
            },
            {
              "pitch": 60,
              "velocity": 61,
              "position": 9.520833333333334,
              "duration": 0.9854166666666667
            },
            {
              "pitch": 55,
              "velocity": 60,
              "position": 9.520833333333334,
              "duration": 0.9854166666666667
            },
            {
              "pitch": 59,
              "velocity": 60,
              "position": 9.520833333333334,
              "duration": 0.9854166666666667
            },
            {
              "pitch": 67,
              "velocity": 52,
              "position": 10.5,
              "duration": 0.9854166666666667
            },
            {
              "pitch": 71,
              "velocity": 52,
              "position": 10.5,
              "duration": 0.9854166666666667
            },
            {
              "pitch": 64,
              "velocity": 57,
              "position": 10.510416666666666,
              "duration": 0.9854166666666667
            },
            {
              "pitch": 48,
              "velocity": 40,
              "position": 10.520833333333334,
              "duration": 0.9854166666666667
            },
            {
              "pitch": 60,
              "velocity": 57,
              "position": 10.520833333333334,
              "duration": 0.9854166666666667
            },
            {
              "pitch": 55,
              "velocity": 40,
              "position": 10.520833333333334,
              "duration": 0.9854166666666667
            },
            {
              "pitch": 59,
              "velocity": 40,
              "position": 10.520833333333334,
              "duration": 0.9854166666666667
            },
            {
              "pitch": 48,
              "velocity": 36,
              "position": 11.520833333333334,
              "duration": 0.46458333333333335
            },
            {
              "pitch": 55,
              "velocity": 36,
              "position": 11.520833333333334,
              "duration": 0.475
            },
            {
              "pitch": 59,
              "velocity": 36,
              "position": 11.520833333333334,
              "duration": 0.475
            },
            {
              "pitch": 67,
              "velocity": 40,
              "position": 11.5,
              "duration": 0.50625
            },
            {
              "pitch": 71,
              "velocity": 40,
              "position": 11.5,
              "duration": 0.50625
            },
            {
              "pitch": 60,
              "velocity": 40,
              "position": 11.520833333333334,
              "duration": 0.48541666666666666
            },
            {
              "pitch": 64,
              "velocity": 40,
              "position": 11.510416666666666,
              "duration": 0.49583333333333335
            },
            {
              "pitch": 67,
              "velocity": 65,
              "position": 12.020833333333334,
              "duration": 0.46458333333333335
            },
            {
              "pitch": 71,
              "velocity": 65,
              "position": 12.020833333333334,
              "duration": 0.46458333333333335
            },
            {
              "pitch": 64,
              "velocity": 62,
              "position": 12.020833333333334,
              "duration": 0.475
            },
            {
              "pitch": 60,
              "velocity": 55,
              "position": 12.020833333333334,
              "duration": 0.48541666666666666
            },
            {
              "pitch": 48,
              "velocity": 50,
              "position": 12,
              "duration": 0.50625
            },
            {
              "pitch": 55,
              "velocity": 55,
              "position": 12.010416666666666,
              "duration": 0.49583333333333335
            },
            {
              "pitch": 59,
              "velocity": 55,
              "position": 12.010416666666666,
              "duration": 0.49583333333333335
            },
            {
              "pitch": 48,
              "velocity": 51,
              "position": 12.520833333333334,
              "duration": 0.46458333333333335
            },
            {
              "pitch": 55,
              "velocity": 51,
              "position": 12.520833333333334,
              "duration": 0.475
            },
            {
              "pitch": 59,
              "velocity": 51,
              "position": 12.520833333333334,
              "duration": 0.475
            },
            {
              "pitch": 67,
              "velocity": 54,
              "position": 12.5,
              "duration": 0.50625
            },
            {
              "pitch": 71,
              "velocity": 54,
              "position": 12.5,
              "duration": 0.50625
            },
            {
              "pitch": 60,
              "velocity": 51,
              "position": 12.520833333333334,
              "duration": 0.48541666666666666
            },
            {
              "pitch": 64,
              "velocity": 54,
              "position": 12.510416666666666,
              "duration": 0.49583333333333335
            },
            {
              "pitch": 48,
              "velocity": 30,
              "position": 13,
              "duration": 0.12083333333333333
            },
            {
              "pitch": 55,
              "velocity": 30,
              "position": 13.010416666666666,
              "duration": 0.12083333333333333
            },
            {
              "pitch": 59,
              "velocity": 30,
              "position": 13.010416666666666,
              "duration": 0.12083333333333333
            },
            {
              "pitch": 64,
              "velocity": 30,
              "position": 13.020833333333334,
              "duration": 0.12083333333333333
            },
            {
              "pitch": 60,
              "velocity": 30,
              "position": 13.020833333333334,
              "duration": 0.12083333333333333
            },
            {
              "pitch": 67,
              "velocity": 30,
              "position": 13.020833333333334,
              "duration": 0.12083333333333333
            },
            {
              "pitch": 71,
              "velocity": 30,
              "position": 13.020833333333334,
              "duration": 0.12083333333333333
            },
            {
              "pitch": 67,
              "velocity": 66,
              "position": 13.5,
              "duration": 0.9854166666666667
            },
            {
              "pitch": 71,
              "velocity": 66,
              "position": 13.5,
              "duration": 0.9854166666666667
            },
            {
              "pitch": 64,
              "velocity": 60,
              "position": 13.510416666666666,
              "duration": 0.9854166666666667
            },
            {
              "pitch": 48,
              "velocity": 55,
              "position": 13.520833333333334,
              "duration": 0.9854166666666667
            },
            {
              "pitch": 60,
              "velocity": 61,
              "position": 13.520833333333334,
              "duration": 0.9854166666666667
            },
            {
              "pitch": 55,
              "velocity": 60,
              "position": 13.520833333333334,
              "duration": 0.9854166666666667
            },
            {
              "pitch": 59,
              "velocity": 60,
              "position": 13.520833333333334,
              "duration": 0.9854166666666667
            },
            {
              "pitch": 48,
              "velocity": 40,
              "position": 14.520833333333334,
              "duration": 0.46458333333333335
            },
            {
              "pitch": 55,
              "velocity": 40,
              "position": 14.520833333333334,
              "duration": 0.475
            },
            {
              "pitch": 59,
              "velocity": 40,
              "position": 14.520833333333334,
              "duration": 0.475
            },
            {
              "pitch": 67,
              "velocity": 47,
              "position": 14.5,
              "duration": 0.50625
            },
            {
              "pitch": 71,
              "velocity": 47,
              "position": 14.5,
              "duration": 0.50625
            },
            {
              "pitch": 60,
              "velocity": 52,
              "position": 14.520833333333334,
              "duration": 0.48541666666666666
            },
            {
              "pitch": 64,
              "velocity": 52,
              "position": 14.510416666666666,
              "duration": 0.49583333333333335
            },
            {
              "pitch": 67,
              "velocity": 64,
              "position": 15.020833333333334,
              "duration": 0.46458333333333335
            },
            {
              "pitch": 71,
              "velocity": 64,
              "position": 15.020833333333334,
              "duration": 0.46458333333333335
            },
            {
              "pitch": 64,
              "velocity": 64,
              "position": 15.020833333333334,
              "duration": 0.475
            },
            {
              "pitch": 60,
              "velocity": 65,
              "position": 15.020833333333334,
              "duration": 0.48541666666666666
            },
            {
              "pitch": 48,
              "velocity": 55,
              "position": 15,
              "duration": 0.50625
            },
            {
              "pitch": 55,
              "velocity": 51,
              "position": 15.010416666666666,
              "duration": 0.49583333333333335
            },
            {
              "pitch": 59,
              "velocity": 51,
              "position": 15.010416666666666,
              "duration": 0.49583333333333335
            },
            {
              "pitch": 60,
              "velocity": 40,
              "position": 15.520833333333334,
              "duration": 0.46458333333333335
            },
            {
              "pitch": 55,
              "velocity": 36,
              "position": 15.520833333333334,
              "duration": 0.46458333333333335
            },
            {
              "pitch": 59,
              "velocity": 36,
              "position": 15.520833333333334,
              "duration": 0.46458333333333335
            },
            {
              "pitch": 48,
              "velocity": 36,
              "position": 15.520833333333334,
              "duration": 0.46458333333333335
            },
            {
              "pitch": 64,
              "velocity": 40,
              "position": 15.510416666666666,
              "duration": 0.475
            },
            {
              "pitch": 67,
              "velocity": 40,
              "position": 15.5,
              "duration": 0.48541666666666666
            },
            {
              "pitch": 71,
              "velocity": 40,
              "position": 15.5,
              "duration": 0.48541666666666666
            }
          ]
        },
        "13": {
          "ctab": {
            "srcChannel": 13,
            "name": "Organ",
            "accType": "PAD",
            "editable": false,
            "mutedNotes": [],
            "mutedChords": [],
            "autoStart": false,
            "sourceChordNote": 0,
            "sourceChordType": "Maj7",
            "ctb2Low": null,
            "ctb2Main": {
              "ntr": "ROOT_FIXED",
              "ntt": "CHORD",
              "bassOn": false,
              "chordRootUpperLimit": 0,
              "noteLowLimit": 0,
              "noteHighLimit": 79,
              "rtr": "PITCH_SHIFT"
            },
            "ctb2High": null
          },
          "notes": [
            {
              "pitch": 64,
              "velocity": 42,
              "position": 0.025,
              "duration": 3.90625
            },
            {
              "pitch": 71,
              "velocity": 42,
              "position": 0.025,
              "duration": 3.90625
            },
            {
              "pitch": 67,
              "velocity": 42,
              "position": 0.025,
              "duration": 3.90625
            },
            {
              "pitch": 64,
              "velocity": 42,
              "position": 4,
              "duration": 3.90625
            },
            {
              "pitch": 71,
              "velocity": 42,
              "position": 4,
              "duration": 3.90625
            },
            {
              "pitch": 67,
              "velocity": 42,
              "position": 4,
              "duration": 3.90625
            },
            {
              "pitch": 64,
              "velocity": 42,
              "position": 8,
              "duration": 3.90625
            },
            {
              "pitch": 71,
              "velocity": 42,
              "position": 8,
              "duration": 3.90625
            },
            {
              "pitch": 67,
              "velocity": 42,
              "position": 8,
              "duration": 3.90625
            },
            {
              "pitch": 64,
              "velocity": 42,
              "position": 12,
              "duration": 3.90625
            },
            {
              "pitch": 71,
              "velocity": 42,
              "position": 12,
              "duration": 3.90625
            },
            {
              "pitch": 67,
              "velocity": 42,
              "position": 12,
              "duration": 3.90625
            }
          ]
        },
        "14": {
          "ctab": {
            "srcChannel": 14,
            "name": "Tele",
            "accType": "PHRASE1",
            "editable": false,
            "mutedNotes": [],
            "mutedChords": [],
            "autoStart": false,
            "sourceChordNote": 0,
            "sourceChordType": "min7(11)",
            "ctb2Low": null,
            "ctb2Main": {
              "ntr": "ROOT_FIXED",
              "ntt": "CHORD",
              "bassOn": false,
              "chordRootUpperLimit": 3,
              "noteLowLimit": 0,
              "noteHighLimit": 127,
              "rtr": "PITCH_SHIFT"
            },
            "ctb2High": null
          },
          "notes": [
            {
              "pitch": 60,
              "velocity": 76,
              "position": 0,
              "duration": 0.06875
            },
            {
              "pitch": 113,
              "velocity": 59,
              "position": 0,
              "duration": 0.20416666666666666
            },
            {
              "pitch": 48,
              "velocity": 76,
              "position": 0,
              "duration": 0.21458333333333332
            },
            {
              "pitch": 55,
              "velocity": 79,
              "position": 0,
              "duration": 0.21458333333333332
            },
            {
              "pitch": 60,
              "velocity": 76,
              "position": 0.5,
              "duration": 0.07916666666666666
            },
            {
              "pitch": 115,
              "velocity": 52,
              "position": 0.5,
              "duration": 0.20416666666666666
            },
            {
              "pitch": 48,
              "velocity": 76,
              "position": 0.5,
              "duration": 0.21458333333333332
            },
            {
              "pitch": 55,
              "velocity": 76,
              "position": 0.5,
              "duration": 0.225
            },
            {
              "pitch": 60,
              "velocity": 76,
              "position": 1,
              "duration": 0.07916666666666666
            },
            {
              "pitch": 114,
              "velocity": 62,
              "position": 1,
              "duration": 0.20416666666666666
            },
            {
              "pitch": 48,
              "velocity": 76,
              "position": 1,
              "duration": 0.21458333333333332
            },
            {
              "pitch": 55,
              "velocity": 78,
              "position": 1,
              "duration": 0.225
            },
            {
              "pitch": 115,
              "velocity": 62,
              "position": 1.5,
              "duration": 0.20416666666666666
            },
            {
              "pitch": 48,
              "velocity": 76,
              "position": 1.5,
              "duration": 0.21458333333333332
            },
            {
              "pitch": 60,
              "velocity": 76,
              "position": 1.5,
              "duration": 0.45416666666666666
            },
            {
              "pitch": 55,
              "velocity": 79,
              "position": 1.5,
              "duration": 0.475
            },
            {
              "pitch": 60,
              "velocity": 76,
              "position": 2,
              "duration": 0.07916666666666666
            },
            {
              "pitch": 113,
              "velocity": 32,
              "position": 2,
              "duration": 0.20416666666666666
            },
            {
              "pitch": 48,
              "velocity": 76,
              "position": 2,
              "duration": 0.21458333333333332
            },
            {
              "pitch": 55,
              "velocity": 78,
              "position": 2,
              "duration": 0.225
            },
            {
              "pitch": 60,
              "velocity": 76,
              "position": 2.5,
              "duration": 0.07916666666666666
            },
            {
              "pitch": 117,
              "velocity": 52,
              "position": 2.5,
              "duration": 0.20416666666666666
            },
            {
              "pitch": 48,
              "velocity": 76,
              "position": 2.5,
              "duration": 0.21458333333333332
            },
            {
              "pitch": 55,
              "velocity": 76,
              "position": 2.5,
              "duration": 0.225
            },
            {
              "pitch": 60,
              "velocity": 76,
              "position": 3,
              "duration": 0.07916666666666666
            },
            {
              "pitch": 113,
              "velocity": 62,
              "position": 3,
              "duration": 0.20416666666666666
            },
            {
              "pitch": 48,
              "velocity": 76,
              "position": 3,
              "duration": 0.21458333333333332
            },
            {
              "pitch": 55,
              "velocity": 78,
              "position": 3,
              "duration": 0.225
            },
            {
              "pitch": 60,
              "velocity": 76,
              "position": 3.5,
              "duration": 0.07916666666666666
            },
            {
              "pitch": 114,
              "velocity": 54,
              "position": 3.5,
              "duration": 0.20416666666666666
            },
            {
              "pitch": 48,
              "velocity": 76,
              "position": 3.5,
              "duration": 0.21458333333333332
            },
            {
              "pitch": 55,
              "velocity": 76,
              "position": 3.5,
              "duration": 0.225
            },
            {
              "pitch": 60,
              "velocity": 76,
              "position": 4,
              "duration": 0.075
            },
            {
              "pitch": 113,
              "velocity": 59,
              "position": 4,
              "duration": 0.20416666666666666
            },
            {
              "pitch": 48,
              "velocity": 76,
              "position": 4,
              "duration": 0.21458333333333332
            },
            {
              "pitch": 55,
              "velocity": 79,
              "position": 4,
              "duration": 0.225
            },
            {
              "pitch": 60,
              "velocity": 76,
              "position": 4.5,
              "duration": 0.075
            },
            {
              "pitch": 115,
              "velocity": 52,
              "position": 4.5,
              "duration": 0.20416666666666666
            },
            {
              "pitch": 48,
              "velocity": 76,
              "position": 4.5,
              "duration": 0.21458333333333332
            },
            {
              "pitch": 55,
              "velocity": 76,
              "position": 4.5,
              "duration": 0.225
            },
            {
              "pitch": 60,
              "velocity": 76,
              "position": 5,
              "duration": 0.07916666666666666
            },
            {
              "pitch": 114,
              "velocity": 62,
              "position": 5,
              "duration": 0.20416666666666666
            },
            {
              "pitch": 48,
              "velocity": 76,
              "position": 5,
              "duration": 0.21458333333333332
            },
            {
              "pitch": 55,
              "velocity": 78,
              "position": 5,
              "duration": 0.225
            },
            {
              "pitch": 60,
              "velocity": 76,
              "position": 5.5,
              "duration": 0.07916666666666666
            },
            {
              "pitch": 115,
              "velocity": 62,
              "position": 5.5,
              "duration": 0.20416666666666666
            },
            {
              "pitch": 48,
              "velocity": 76,
              "position": 5.5,
              "duration": 0.21458333333333332
            },
            {
              "pitch": 55,
              "velocity": 79,
              "position": 5.5,
              "duration": 0.225
            },
            {
              "pitch": 60,
              "velocity": 76,
              "position": 6,
              "duration": 0.07916666666666666
            },
            {
              "pitch": 113,
              "velocity": 32,
              "position": 6,
              "duration": 0.20416666666666666
            },
            {
              "pitch": 48,
              "velocity": 76,
              "position": 6,
              "duration": 0.21458333333333332
            },
            {
              "pitch": 55,
              "velocity": 78,
              "position": 6,
              "duration": 0.225
            },
            {
              "pitch": 60,
              "velocity": 76,
              "position": 6.5,
              "duration": 0.07916666666666666
            },
            {
              "pitch": 117,
              "velocity": 52,
              "position": 6.5,
              "duration": 0.20416666666666666
            },
            {
              "pitch": 48,
              "velocity": 76,
              "position": 6.5,
              "duration": 0.21458333333333332
            },
            {
              "pitch": 55,
              "velocity": 76,
              "position": 6.5,
              "duration": 0.225
            },
            {
              "pitch": 60,
              "velocity": 76,
              "position": 7,
              "duration": 0.07916666666666666
            },
            {
              "pitch": 113,
              "velocity": 62,
              "position": 7,
              "duration": 0.20416666666666666
            },
            {
              "pitch": 48,
              "velocity": 76,
              "position": 7,
              "duration": 0.21458333333333332
            },
            {
              "pitch": 55,
              "velocity": 78,
              "position": 7,
              "duration": 0.225
            },
            {
              "pitch": 116,
              "velocity": 54,
              "position": 7.5,
              "duration": 0.20416666666666666
            },
            {
              "pitch": 48,
              "velocity": 76,
              "position": 7.5,
              "duration": 0.21458333333333332
            },
            {
              "pitch": 60,
              "velocity": 76,
              "position": 7.5,
              "duration": 0.45416666666666666
            },
            {
              "pitch": 55,
              "velocity": 76,
              "position": 7.5,
              "duration": 0.475
            },
            {
              "pitch": 60,
              "velocity": 76,
              "position": 8,
              "duration": 0.06875
            },
            {
              "pitch": 113,
              "velocity": 59,
              "position": 8,
              "duration": 0.20416666666666666
            },
            {
              "pitch": 48,
              "velocity": 76,
              "position": 8,
              "duration": 0.21458333333333332
            },
            {
              "pitch": 55,
              "velocity": 79,
              "position": 8,
              "duration": 0.21458333333333332
            },
            {
              "pitch": 60,
              "velocity": 76,
              "position": 8.5,
              "duration": 0.07916666666666666
            },
            {
              "pitch": 115,
              "velocity": 52,
              "position": 8.5,
              "duration": 0.20416666666666666
            },
            {
              "pitch": 48,
              "velocity": 76,
              "position": 8.5,
              "duration": 0.21458333333333332
            },
            {
              "pitch": 55,
              "velocity": 76,
              "position": 8.5,
              "duration": 0.225
            },
            {
              "pitch": 60,
              "velocity": 76,
              "position": 9,
              "duration": 0.07916666666666666
            },
            {
              "pitch": 114,
              "velocity": 62,
              "position": 9,
              "duration": 0.20416666666666666
            },
            {
              "pitch": 48,
              "velocity": 76,
              "position": 9,
              "duration": 0.21458333333333332
            },
            {
              "pitch": 55,
              "velocity": 78,
              "position": 9,
              "duration": 0.225
            },
            {
              "pitch": 60,
              "velocity": 76,
              "position": 9.5,
              "duration": 0.07916666666666666
            },
            {
              "pitch": 115,
              "velocity": 62,
              "position": 9.5,
              "duration": 0.20416666666666666
            },
            {
              "pitch": 48,
              "velocity": 76,
              "position": 9.5,
              "duration": 0.21458333333333332
            },
            {
              "pitch": 55,
              "velocity": 79,
              "position": 9.5,
              "duration": 0.225
            },
            {
              "pitch": 60,
              "velocity": 76,
              "position": 10,
              "duration": 0.07916666666666666
            },
            {
              "pitch": 113,
              "velocity": 32,
              "position": 10,
              "duration": 0.20416666666666666
            },
            {
              "pitch": 48,
              "velocity": 76,
              "position": 10,
              "duration": 0.21458333333333332
            },
            {
              "pitch": 55,
              "velocity": 78,
              "position": 10,
              "duration": 0.225
            },
            {
              "pitch": 60,
              "velocity": 76,
              "position": 10.5,
              "duration": 0.07916666666666666
            },
            {
              "pitch": 117,
              "velocity": 52,
              "position": 10.5,
              "duration": 0.20416666666666666
            },
            {
              "pitch": 48,
              "velocity": 76,
              "position": 10.5,
              "duration": 0.21458333333333332
            },
            {
              "pitch": 55,
              "velocity": 76,
              "position": 10.5,
              "duration": 0.225
            },
            {
              "pitch": 113,
              "velocity": 62,
              "position": 11,
              "duration": 0.20416666666666666
            },
            {
              "pitch": 48,
              "velocity": 76,
              "position": 11,
              "duration": 0.21458333333333332
            },
            {
              "pitch": 60,
              "velocity": 76,
              "position": 11,
              "duration": 0.45416666666666666
            },
            {
              "pitch": 55,
              "velocity": 78,
              "position": 11,
              "duration": 0.475
            },
            {
              "pitch": 114,
              "velocity": 54,
              "position": 11.5,
              "duration": 0.20416666666666666
            },
            {
              "pitch": 48,
              "velocity": 76,
              "position": 11.5,
              "duration": 0.21458333333333332
            },
            {
              "pitch": 60,
              "velocity": 76,
              "position": 11.5,
              "duration": 0.45416666666666666
            },
            {
              "pitch": 55,
              "velocity": 76,
              "position": 11.5,
              "duration": 0.475
            },
            {
              "pitch": 60,
              "velocity": 76,
              "position": 12,
              "duration": 0.07916666666666666
            },
            {
              "pitch": 113,
              "velocity": 59,
              "position": 12,
              "duration": 0.20416666666666666
            },
            {
              "pitch": 48,
              "velocity": 76,
              "position": 12,
              "duration": 0.21458333333333332
            },
            {
              "pitch": 55,
              "velocity": 79,
              "position": 12,
              "duration": 0.225
            },
            {
              "pitch": 60,
              "velocity": 76,
              "position": 12.5,
              "duration": 0.07916666666666666
            },
            {
              "pitch": 115,
              "velocity": 52,
              "position": 12.5,
              "duration": 0.20416666666666666
            },
            {
              "pitch": 48,
              "velocity": 76,
              "position": 12.5,
              "duration": 0.21458333333333332
            },
            {
              "pitch": 55,
              "velocity": 76,
              "position": 12.5,
              "duration": 0.225
            },
            {
              "pitch": 60,
              "velocity": 76,
              "position": 13,
              "duration": 0.07916666666666666
            },
            {
              "pitch": 114,
              "velocity": 62,
              "position": 13,
              "duration": 0.20416666666666666
            },
            {
              "pitch": 48,
              "velocity": 76,
              "position": 13,
              "duration": 0.21458333333333332
            },
            {
              "pitch": 55,
              "velocity": 78,
              "position": 13,
              "duration": 0.225
            },
            {
              "pitch": 115,
              "velocity": 62,
              "position": 13.5,
              "duration": 0.20416666666666666
            },
            {
              "pitch": 48,
              "velocity": 76,
              "position": 13.5,
              "duration": 0.21458333333333332
            },
            {
              "pitch": 60,
              "velocity": 76,
              "position": 13.5,
              "duration": 0.45416666666666666
            },
            {
              "pitch": 55,
              "velocity": 79,
              "position": 13.5,
              "duration": 0.475
            },
            {
              "pitch": 60,
              "velocity": 76,
              "position": 14,
              "duration": 0.07916666666666666
            },
            {
              "pitch": 113,
              "velocity": 32,
              "position": 14,
              "duration": 0.20416666666666666
            },
            {
              "pitch": 48,
              "velocity": 76,
              "position": 14,
              "duration": 0.21458333333333332
            },
            {
              "pitch": 55,
              "velocity": 78,
              "position": 14,
              "duration": 0.225
            },
            {
              "pitch": 60,
              "velocity": 76,
              "position": 14.5,
              "duration": 0.07916666666666666
            },
            {
              "pitch": 117,
              "velocity": 52,
              "position": 14.5,
              "duration": 0.20416666666666666
            },
            {
              "pitch": 48,
              "velocity": 76,
              "position": 14.5,
              "duration": 0.21458333333333332
            },
            {
              "pitch": 55,
              "velocity": 76,
              "position": 14.5,
              "duration": 0.225
            },
            {
              "pitch": 113,
              "velocity": 62,
              "position": 15,
              "duration": 0.20416666666666666
            },
            {
              "pitch": 48,
              "velocity": 76,
              "position": 15,
              "duration": 0.21458333333333332
            },
            {
              "pitch": 60,
              "velocity": 76,
              "position": 15,
              "duration": 0.45416666666666666
            },
            {
              "pitch": 55,
              "velocity": 78,
              "position": 15,
              "duration": 0.475
            },
            {
              "pitch": 116,
              "velocity": 54,
              "position": 15.5,
              "duration": 0.20416666666666666
            },
            {
              "pitch": 48,
              "velocity": 76,
              "position": 15.5,
              "duration": 0.21458333333333332
            },
            {
              "pitch": 60,
              "velocity": 76,
              "position": 15.5,
              "duration": 0.45416666666666666
            },
            {
              "pitch": 55,
              "velocity": 76,
              "position": 15.5,
              "duration": 0.475
            }
          ]
        },
        "15": {
          "ctab": {
            "srcChannel": 15,
            "name": "Strings",
            "accType": "PHRASE2",
            "editable": true,
            "mutedNotes": [],
            "mutedChords": [],
            "autoStart": false,
            "sourceChordNote": 0,
            "sourceChordType": "Maj7",
            "ctb2Low": null,
            "ctb2Main": {
              "ntr": "ROOT_FIXED",
              "ntt": "CHORD",
              "bassOn": false,
              "chordRootUpperLimit": 0,
              "noteLowLimit": 0,
              "noteHighLimit": 127,
              "rtr": "PITCH_SHIFT"
            },
            "ctb2High": null
          },
          "notes": [
            {
              "pitch": 55,
              "velocity": 39,
              "position": 0,
              "duration": 15.975
            },
            {
              "pitch": 64,
              "velocity": 39,
              "position": 0,
              "duration": 15.975
            },
            {
              "pitch": 59,
              "velocity": 39,
              "position": 0,
              "duration": 15.975
            }
          ]
        }
      }
    },
    "Main_B": {
      "type": "Main_B",
      "sizeInBeats": 16,
      "channels": {
        "1": {
          "ctab": {
            "srcChannel": 1,
            "name": "Bass B",
            "accType": "BASS",
            "editable": false,
            "mutedNotes": [],
            "mutedChords": [
              "1+5",
              "1+8",
              "7(#9)",
              "7(b13)",
              "7(b9)",
              "7(13)",
              "7#11",
              "7(9)",
              "7b5",
              "7sus4",
              "7th",
              "dim7",
              "dim",
              "min7(11)",
              "min7(9)",
              "m7b5",
              "min7",
              "min6",
              "Maj6(9)",
              "Maj7(9)",
              "Maj(9)",
              "Maj7#11",
              "Maj7",
              "Maj6",
              "Maj"
            ],
            "autoStart": false,
            "sourceChordNote": 0,
            "sourceChordType": "Maj7",
            "ctb2Low": null,
            "ctb2Main": {
              "ntr": "ROOT_TRANSPOSITION",
              "ntt": "MELODY",
              "bassOn": true,
              "chordRootUpperLimit": 8,
              "noteLowLimit": 28,
              "noteHighLimit": 127,
              "rtr": "PITCH_SHIFT_TO_ROOT"
            },
            "ctb2High": null
          },
          "notes": [
            {
              "pitch": 24,
              "velocity": 70,
              "position": 0,
              "duration": 0.48541666666666666
            },
            {
              "pitch": 24,
              "velocity": 60,
              "position": 0.5,
              "duration": 0.48541666666666666
            },
            {
              "pitch": 48,
              "velocity": 106,
              "position": 1,
              "duration": 0.027083333333333334
            },
            {
              "pitch": 55,
              "velocity": 106,
              "position": 1.03125,
              "duration": 0.027083333333333334
            },
            {
              "pitch": 24,
              "velocity": 50,
              "position": 1.5,
              "duration": 0.24583333333333332
            },
            {
              "pitch": 24,
              "velocity": 70,
              "position": 2,
              "duration": 0.48541666666666666
            },
            {
              "pitch": 24,
              "velocity": 50,
              "position": 2.5,
              "duration": 0.48541666666666666
            },
            {
              "pitch": 48,
              "velocity": 106,
              "position": 3,
              "duration": 0.027083333333333334
            },
            {
              "pitch": 55,
              "velocity": 106,
              "position": 3.03125,
              "duration": 0.027083333333333334
            },
            {
              "pitch": 31,
              "velocity": 40,
              "position": 3.5,
              "duration": 0.48541666666666666
            },
            {
              "pitch": 24,
              "velocity": 70,
              "position": 4,
              "duration": 0.48541666666666666
            },
            {
              "pitch": 24,
              "velocity": 60,
              "position": 4.5,
              "duration": 0.48541666666666666
            },
            {
              "pitch": 48,
              "velocity": 106,
              "position": 5,
              "duration": 0.027083333333333334
            },
            {
              "pitch": 55,
              "velocity": 106,
              "position": 5.03125,
              "duration": 0.027083333333333334
            },
            {
              "pitch": 24,
              "velocity": 49,
              "position": 5.5,
              "duration": 0.25625
            },
            {
              "pitch": 24,
              "velocity": 70,
              "position": 6,
              "duration": 0.43333333333333335
            },
            {
              "pitch": 24,
              "velocity": 50,
              "position": 6.5,
              "duration": 0.43333333333333335
            },
            {
              "pitch": 28,
              "velocity": 60,
              "position": 7,
              "duration": 0.48541666666666666
            },
            {
              "pitch": 31,
              "velocity": 50,
              "position": 7.5,
              "duration": 0.48541666666666666
            },
            {
              "pitch": 24,
              "velocity": 70,
              "position": 8,
              "duration": 0.48541666666666666
            },
            {
              "pitch": 24,
              "velocity": 60,
              "position": 8.5,
              "duration": 0.48541666666666666
            },
            {
              "pitch": 48,
              "velocity": 106,
              "position": 9,
              "duration": 0.027083333333333334
            },
            {
              "pitch": 55,
              "velocity": 106,
              "position": 9.03125,
              "duration": 0.027083333333333334
            },
            {
              "pitch": 24,
              "velocity": 49,
              "position": 9.5,
              "duration": 0.25625
            },
            {
              "pitch": 24,
              "velocity": 70,
              "position": 10,
              "duration": 0.48541666666666666
            },
            {
              "pitch": 24,
              "velocity": 50,
              "position": 10.5,
              "duration": 0.48541666666666666
            },
            {
              "pitch": 48,
              "velocity": 106,
              "position": 11,
              "duration": 0.027083333333333334
            },
            {
              "pitch": 55,
              "velocity": 106,
              "position": 11.03125,
              "duration": 0.027083333333333334
            },
            {
              "pitch": 31,
              "velocity": 40,
              "position": 11.5,
              "duration": 0.48541666666666666
            },
            {
              "pitch": 24,
              "velocity": 70,
              "position": 12,
              "duration": 0.48541666666666666
            },
            {
              "pitch": 24,
              "velocity": 60,
              "position": 12.5,
              "duration": 0.48541666666666666
            },
            {
              "pitch": 48,
              "velocity": 106,
              "position": 13,
              "duration": 0.027083333333333334
            },
            {
              "pitch": 55,
              "velocity": 106,
              "position": 13.03125,
              "duration": 0.027083333333333334
            },
            {
              "pitch": 24,
              "velocity": 49,
              "position": 13.5,
              "duration": 0.25625
            },
            {
              "pitch": 24,
              "velocity": 70,
              "position": 14,
              "duration": 0.43333333333333335
            },
            {
              "pitch": 31,
              "velocity": 50,
              "position": 14.5,
              "duration": 0.48541666666666666
            },
            {
              "pitch": 28,
              "velocity": 60,
              "position": 15,
              "duration": 0.48541666666666666
            },
            {
              "pitch": 31,
              "velocity": 50,
              "position": 15.5,
              "duration": 0.48541666666666666
            }
          ]
        },
        "8": {
          "ctab": {
            "srcChannel": 8,
            "name": "AddDrum",
            "accType": "SUBRHYTHM",
            "editable": false,
            "mutedNotes": [],
            "mutedChords": [],
            "autoStart": true,
            "sourceChordNote": 0,
            "sourceChordType": "Maj7",
            "ctb2Low": null,
            "ctb2Main": {
              "ntr": "ROOT_FIXED",
              "ntt": "BYPASS",
              "bassOn": false,
              "chordRootUpperLimit": 6,
              "noteLowLimit": 0,
              "noteHighLimit": 127,
              "rtr": "PITCH_SHIFT"
            },
            "ctb2High": null
          },
          "notes": [
            {
              "pitch": 54,
              "velocity": 90,
              "position": 0,
              "duration": 0.058333333333333334
            },
            {
              "pitch": 54,
              "velocity": 50,
              "position": 0.5,
              "duration": 0.058333333333333334
            },
            {
              "pitch": 54,
              "velocity": 90,
              "position": 0.9916666666666667,
              "duration": 0.058333333333333334
            },
            {
              "pitch": 54,
              "velocity": 50,
              "position": 1.5,
              "duration": 0.058333333333333334
            },
            {
              "pitch": 54,
              "velocity": 90,
              "position": 2,
              "duration": 0.058333333333333334
            },
            {
              "pitch": 54,
              "velocity": 50,
              "position": 2.5,
              "duration": 0.058333333333333334
            },
            {
              "pitch": 54,
              "velocity": 90,
              "position": 3,
              "duration": 0.058333333333333334
            },
            {
              "pitch": 54,
              "velocity": 50,
              "position": 3.5,
              "duration": 0.058333333333333334
            },
            {
              "pitch": 54,
              "velocity": 90,
              "position": 4,
              "duration": 0.058333333333333334
            },
            {
              "pitch": 54,
              "velocity": 50,
              "position": 4.5,
              "duration": 0.058333333333333334
            },
            {
              "pitch": 54,
              "velocity": 90,
              "position": 5,
              "duration": 0.058333333333333334
            },
            {
              "pitch": 54,
              "velocity": 50,
              "position": 5.5,
              "duration": 0.058333333333333334
            },
            {
              "pitch": 54,
              "velocity": 90,
              "position": 6,
              "duration": 0.058333333333333334
            },
            {
              "pitch": 54,
              "velocity": 50,
              "position": 6.5,
              "duration": 0.058333333333333334
            },
            {
              "pitch": 54,
              "velocity": 90,
              "position": 7,
              "duration": 0.058333333333333334
            },
            {
              "pitch": 54,
              "velocity": 50,
              "position": 7.5,
              "duration": 0.058333333333333334
            },
            {
              "pitch": 54,
              "velocity": 90,
              "position": 8,
              "duration": 0.058333333333333334
            },
            {
              "pitch": 54,
              "velocity": 50,
              "position": 8.5,
              "duration": 0.058333333333333334
            },
            {
              "pitch": 54,
              "velocity": 90,
              "position": 8.99375,
              "duration": 0.058333333333333334
            },
            {
              "pitch": 54,
              "velocity": 50,
              "position": 9.5,
              "duration": 0.058333333333333334
            },
            {
              "pitch": 54,
              "velocity": 90,
              "position": 10,
              "duration": 0.058333333333333334
            },
            {
              "pitch": 54,
              "velocity": 50,
              "position": 10.5,
              "duration": 0.058333333333333334
            },
            {
              "pitch": 54,
              "velocity": 90,
              "position": 11,
              "duration": 0.058333333333333334
            },
            {
              "pitch": 54,
              "velocity": 50,
              "position": 11.5,
              "duration": 0.058333333333333334
            },
            {
              "pitch": 54,
              "velocity": 90,
              "position": 12,
              "duration": 0.058333333333333334
            },
            {
              "pitch": 54,
              "velocity": 50,
              "position": 12.5,
              "duration": 0.058333333333333334
            },
            {
              "pitch": 54,
              "velocity": 90,
              "position": 12.99375,
              "duration": 0.058333333333333334
            },
            {
              "pitch": 54,
              "velocity": 50,
              "position": 13.5,
              "duration": 0.058333333333333334
            },
            {
              "pitch": 54,
              "velocity": 90,
              "position": 13.99375,
              "duration": 0.058333333333333334
            },
            {
              "pitch": 54,
              "velocity": 50,
              "position": 14.5,
              "duration": 0.058333333333333334
            },
            {
              "pitch": 54,
              "velocity": 90,
              "position": 15,
              "duration": 0.058333333333333334
            },
            {
              "pitch": 54,
              "velocity": 50,
              "position": 15.5,
              "duration": 0.058333333333333334
            }
          ]
        },
        "9": {
          "ctab": {
            "srcChannel": 9,
            "name": "MainDrum",
            "accType": "RHYTHM",
            "editable": false,
            "mutedNotes": [],
            "mutedChords": [],
            "autoStart": true,
            "sourceChordNote": 0,
            "sourceChordType": "Maj7",
            "ctb2Low": null,
            "ctb2Main": {
              "ntr": "ROOT_FIXED",
              "ntt": "BYPASS",
              "bassOn": false,
              "chordRootUpperLimit": 6,
              "noteLowLimit": 0,
              "noteHighLimit": 127,
              "rtr": "PITCH_SHIFT"
            },
            "ctb2High": null
          },
          "notes": [
            {
              "pitch": 35,
              "velocity": 101,
              "position": 0,
              "duration": 0.00625
            },
            {
              "pitch": 46,
              "velocity": 89,
              "position": 0,
              "duration": 0.00625
            },
            {
              "pitch": 46,
              "velocity": 56,
              "position": 0.5,
              "duration": 0.00625
            },
            {
              "pitch": 38,
              "velocity": 100,
              "position": 1,
              "duration": 0.00625
            },
            {
              "pitch": 46,
              "velocity": 89,
              "position": 1,
              "duration": 0.00625
            },
            {
              "pitch": 46,
              "velocity": 56,
              "position": 1.5,
              "duration": 0.00625
            },
            {
              "pitch": 35,
              "velocity": 108,
              "position": 2,
              "duration": 0.00625
            },
            {
              "pitch": 46,
              "velocity": 89,
              "position": 2,
              "duration": 0.00625
            },
            {
              "pitch": 46,
              "velocity": 56,
              "position": 2.5,
              "duration": 0.00625
            },
            {
              "pitch": 38,
              "velocity": 100,
              "position": 3,
              "duration": 0.00625
            },
            {
              "pitch": 46,
              "velocity": 89,
              "position": 3,
              "duration": 0.00625
            },
            {
              "pitch": 46,
              "velocity": 56,
              "position": 3.5,
              "duration": 0.00625
            },
            {
              "pitch": 35,
              "velocity": 108,
              "position": 4,
              "duration": 0.00625
            },
            {
              "pitch": 46,
              "velocity": 89,
              "position": 4,
              "duration": 0.00625
            },
            {
              "pitch": 46,
              "velocity": 56,
              "position": 4.5,
              "duration": 0.00625
            },
            {
              "pitch": 38,
              "velocity": 100,
              "position": 5,
              "duration": 0.00625
            },
            {
              "pitch": 46,
              "velocity": 89,
              "position": 5,
              "duration": 0.00625
            },
            {
              "pitch": 46,
              "velocity": 56,
              "position": 5.5,
              "duration": 0.00625
            },
            {
              "pitch": 35,
              "velocity": 101,
              "position": 6,
              "duration": 0.00625
            },
            {
              "pitch": 46,
              "velocity": 89,
              "position": 6,
              "duration": 0.00625
            },
            {
              "pitch": 35,
              "velocity": 80,
              "position": 6.5,
              "duration": 0.00625
            },
            {
              "pitch": 46,
              "velocity": 56,
              "position": 6.5,
              "duration": 0.00625
            },
            {
              "pitch": 38,
              "velocity": 100,
              "position": 7,
              "duration": 0.00625
            },
            {
              "pitch": 46,
              "velocity": 89,
              "position": 7,
              "duration": 0.00625
            },
            {
              "pitch": 35,
              "velocity": 67,
              "position": 7.5,
              "duration": 0.00625
            },
            {
              "pitch": 46,
              "velocity": 56,
              "position": 7.5,
              "duration": 0.00625
            },
            {
              "pitch": 35,
              "velocity": 107,
              "position": 8,
              "duration": 0.00625
            },
            {
              "pitch": 46,
              "velocity": 89,
              "position": 8,
              "duration": 0.00625
            },
            {
              "pitch": 46,
              "velocity": 56,
              "position": 8.5,
              "duration": 0.00625
            },
            {
              "pitch": 38,
              "velocity": 100,
              "position": 9,
              "duration": 0.00625
            },
            {
              "pitch": 46,
              "velocity": 89,
              "position": 9,
              "duration": 0.00625
            },
            {
              "pitch": 46,
              "velocity": 56,
              "position": 9.5,
              "duration": 0.00625
            },
            {
              "pitch": 35,
              "velocity": 102,
              "position": 10,
              "duration": 0.00625
            },
            {
              "pitch": 46,
              "velocity": 89,
              "position": 10,
              "duration": 0.00625
            },
            {
              "pitch": 46,
              "velocity": 56,
              "position": 10.5,
              "duration": 0.00625
            },
            {
              "pitch": 38,
              "velocity": 100,
              "position": 11,
              "duration": 0.00625
            },
            {
              "pitch": 46,
              "velocity": 89,
              "position": 11,
              "duration": 0.00625
            },
            {
              "pitch": 46,
              "velocity": 56,
              "position": 11.5,
              "duration": 0.00625
            },
            {
              "pitch": 35,
              "velocity": 107,
              "position": 12,
              "duration": 0.00625
            },
            {
              "pitch": 46,
              "velocity": 89,
              "position": 12,
              "duration": 0.00625
            },
            {
              "pitch": 46,
              "velocity": 56,
              "position": 12.5,
              "duration": 0.00625
            },
            {
              "pitch": 38,
              "velocity": 100,
              "position": 13,
              "duration": 0.00625
            },
            {
              "pitch": 46,
              "velocity": 89,
              "position": 13,
              "duration": 0.00625
            },
            {
              "pitch": 46,
              "velocity": 56,
              "position": 13.5,
              "duration": 0.00625
            },
            {
              "pitch": 35,
              "velocity": 103,
              "position": 14,
              "duration": 0.00625
            },
            {
              "pitch": 46,
              "velocity": 89,
              "position": 14,
              "duration": 0.00625
            },
            {
              "pitch": 35,
              "velocity": 96,
              "position": 14.5,
              "duration": 0.00625
            },
            {
              "pitch": 46,
              "velocity": 56,
              "position": 14.5,
              "duration": 0.00625
            },
            {
              "pitch": 38,
              "velocity": 100,
              "position": 15,
              "duration": 0.00625
            },
            {
              "pitch": 46,
              "velocity": 89,
              "position": 15,
              "duration": 0.00625
            },
            {
              "pitch": 46,
              "velocity": 56,
              "position": 15.5,
              "duration": 0.00625
            }
          ]
        },
        "10": {
          "ctab": {
            "srcChannel": 10,
            "name": "Bass A",
            "accType": "BASS",
            "editable": false,
            "mutedNotes": [],
            "mutedChords": [
              "1+2+5",
              "sus4",
              "7aug",
              "Maj7aug",
              "minMaj7(9)",
              "minMaj7",
              "min(9)",
              "min",
              "aug"
            ],
            "autoStart": false,
            "sourceChordNote": 0,
            "sourceChordType": "Maj7",
            "ctb2Low": null,
            "ctb2Main": {
              "ntr": "ROOT_TRANSPOSITION",
              "ntt": "MELODY",
              "bassOn": true,
              "chordRootUpperLimit": 8,
              "noteLowLimit": 28,
              "noteHighLimit": 127,
              "rtr": "PITCH_SHIFT_TO_ROOT"
            },
            "ctb2High": null
          },
          "notes": [
            {
              "pitch": 24,
              "velocity": 70,
              "position": 0,
              "duration": 0.48541666666666666
            },
            {
              "pitch": 24,
              "velocity": 60,
              "position": 0.5,
              "duration": 0.48541666666666666
            },
            {
              "pitch": 48,
              "velocity": 106,
              "position": 1,
              "duration": 0.027083333333333334
            },
            {
              "pitch": 55,
              "velocity": 106,
              "position": 1.03125,
              "duration": 0.027083333333333334
            },
            {
              "pitch": 24,
              "velocity": 53,
              "position": 1.5,
              "duration": 0.25625
            },
            {
              "pitch": 24,
              "velocity": 70,
              "position": 2,
              "duration": 0.48541666666666666
            },
            {
              "pitch": 24,
              "velocity": 50,
              "position": 2.5,
              "duration": 0.48541666666666666
            },
            {
              "pitch": 48,
              "velocity": 106,
              "position": 3,
              "duration": 0.027083333333333334
            },
            {
              "pitch": 55,
              "velocity": 106,
              "position": 3.03125,
              "duration": 0.027083333333333334
            },
            {
              "pitch": 31,
              "velocity": 40,
              "position": 3.5,
              "duration": 0.48541666666666666
            },
            {
              "pitch": 24,
              "velocity": 70,
              "position": 4,
              "duration": 0.48541666666666666
            },
            {
              "pitch": 24,
              "velocity": 60,
              "position": 4.5,
              "duration": 0.48541666666666666
            },
            {
              "pitch": 48,
              "velocity": 106,
              "position": 5,
              "duration": 0.027083333333333334
            },
            {
              "pitch": 55,
              "velocity": 106,
              "position": 5.03125,
              "duration": 0.027083333333333334
            },
            {
              "pitch": 24,
              "velocity": 53,
              "position": 5.5,
              "duration": 0.25625
            },
            {
              "pitch": 24,
              "velocity": 70,
              "position": 6,
              "duration": 0.43333333333333335
            },
            {
              "pitch": 24,
              "velocity": 50,
              "position": 6.5,
              "duration": 0.43333333333333335
            },
            {
              "pitch": 28,
              "velocity": 60,
              "position": 7,
              "duration": 0.48541666666666666
            },
            {
              "pitch": 31,
              "velocity": 50,
              "position": 7.5,
              "duration": 0.48541666666666666
            },
            {
              "pitch": 24,
              "velocity": 70,
              "position": 8,
              "duration": 0.48541666666666666
            },
            {
              "pitch": 24,
              "velocity": 60,
              "position": 8.5,
              "duration": 0.48541666666666666
            },
            {
              "pitch": 48,
              "velocity": 106,
              "position": 9,
              "duration": 0.027083333333333334
            },
            {
              "pitch": 55,
              "velocity": 106,
              "position": 9.03125,
              "duration": 0.027083333333333334
            },
            {
              "pitch": 24,
              "velocity": 53,
              "position": 9.5,
              "duration": 0.25625
            },
            {
              "pitch": 24,
              "velocity": 70,
              "position": 10,
              "duration": 0.48541666666666666
            },
            {
              "pitch": 24,
              "velocity": 50,
              "position": 10.5,
              "duration": 0.48541666666666666
            },
            {
              "pitch": 48,
              "velocity": 106,
              "position": 11,
              "duration": 0.027083333333333334
            },
            {
              "pitch": 55,
              "velocity": 106,
              "position": 11.03125,
              "duration": 0.027083333333333334
            },
            {
              "pitch": 31,
              "velocity": 40,
              "position": 11.5,
              "duration": 0.48541666666666666
            },
            {
              "pitch": 24,
              "velocity": 70,
              "position": 12,
              "duration": 0.48541666666666666
            },
            {
              "pitch": 24,
              "velocity": 60,
              "position": 12.5,
              "duration": 0.48541666666666666
            },
            {
              "pitch": 48,
              "velocity": 106,
              "position": 13,
              "duration": 0.027083333333333334
            },
            {
              "pitch": 55,
              "velocity": 106,
              "position": 13.03125,
              "duration": 0.027083333333333334
            },
            {
              "pitch": 24,
              "velocity": 49,
              "position": 13.5,
              "duration": 0.23541666666666666
            },
            {
              "pitch": 24,
              "velocity": 70,
              "position": 14,
              "duration": 0.43333333333333335
            },
            {
              "pitch": 31,
              "velocity": 50,
              "position": 14.5,
              "duration": 0.48541666666666666
            },
            {
              "pitch": 33,
              "velocity": 60,
              "position": 15,
              "duration": 0.48541666666666666
            },
            {
              "pitch": 31,
              "velocity": 50,
              "position": 15.5,
              "duration": 0.48541666666666666
            }
          ]
        },
        "11": {
          "ctab": {
            "srcChannel": 11,
            "name": "SteelGtr",
            "accType": "CHORD1",
            "editable": false,
            "mutedNotes": [],
            "mutedChords": [],
            "autoStart": false,
            "sourceChordNote": 0,
            "sourceChordType": "Maj7",
            "ctb2Low": null,
            "ctb2Main": {
              "ntr": "ROOT_TRANSPOSITION",
              "ntt": "MELODY",
              "bassOn": true,
              "chordRootUpperLimit": 3,
              "noteLowLimit": 0,
              "noteHighLimit": 127,
              "rtr": "PITCH_SHIFT"
            },
            "ctb2High": null
          },
          "notes": [
            {
              "pitch": 60,
              "velocity": 42,
              "position": 0.020833333333333332,
              "duration": 0.46458333333333335
            },
            {
              "pitch": 67,
              "velocity": 42,
              "position": 0.03125,
              "duration": 0.45416666666666666
            },
            {
              "pitch": 71,
              "velocity": 42,
              "position": 0.03125,
              "duration": 0.45416666666666666
            },
            {
              "pitch": 55,
              "velocity": 34,
              "position": 0.010416666666666666,
              "duration": 0.48541666666666666
            },
            {
              "pitch": 59,
              "velocity": 34,
              "position": 0.010416666666666666,
              "duration": 0.48541666666666666
            },
            {
              "pitch": 64,
              "velocity": 47,
              "position": 0.03125,
              "duration": 0.46458333333333335
            },
            {
              "pitch": 48,
              "velocity": 37,
              "position": 0.0020833333333333333,
              "duration": 0.50625
            },
            {
              "pitch": 48,
              "velocity": 22,
              "position": 0.5208333333333334,
              "duration": 0.46458333333333335
            },
            {
              "pitch": 55,
              "velocity": 28,
              "position": 0.5104166666666666,
              "duration": 0.48541666666666666
            },
            {
              "pitch": 59,
              "velocity": 28,
              "position": 0.5104166666666666,
              "duration": 0.48541666666666666
            },
            {
              "pitch": 60,
              "velocity": 28,
              "position": 0.5,
              "duration": 0.50625
            },
            {
              "pitch": 64,
              "velocity": 34,
              "position": 0.5104166666666666,
              "duration": 0.50625
            },
            {
              "pitch": 67,
              "velocity": 28,
              "position": 0.5,
              "duration": 0.5166666666666667
            },
            {
              "pitch": 71,
              "velocity": 28,
              "position": 0.5,
              "duration": 0.5166666666666667
            },
            {
              "pitch": 48,
              "velocity": 77,
              "position": 1,
              "duration": 0.17291666666666666
            },
            {
              "pitch": 55,
              "velocity": 77,
              "position": 1.0104166666666667,
              "duration": 0.17291666666666666
            },
            {
              "pitch": 59,
              "velocity": 77,
              "position": 1.0104166666666667,
              "duration": 0.17291666666666666
            },
            {
              "pitch": 60,
              "velocity": 77,
              "position": 1.0208333333333333,
              "duration": 0.17291666666666666
            },
            {
              "pitch": 64,
              "velocity": 77,
              "position": 1.03125,
              "duration": 0.17291666666666666
            },
            {
              "pitch": 67,
              "velocity": 77,
              "position": 1.03125,
              "duration": 0.17291666666666666
            },
            {
              "pitch": 71,
              "velocity": 77,
              "position": 1.03125,
              "duration": 0.17291666666666666
            },
            {
              "pitch": 67,
              "velocity": 42,
              "position": 1.5,
              "duration": 0.9854166666666667
            },
            {
              "pitch": 71,
              "velocity": 42,
              "position": 1.5,
              "duration": 0.9854166666666667
            },
            {
              "pitch": 60,
              "velocity": 45,
              "position": 1.5208333333333333,
              "duration": 0.9645833333333333
            },
            {
              "pitch": 64,
              "velocity": 47,
              "position": 1.5104166666666667,
              "duration": 0.9854166666666667
            },
            {
              "pitch": 55,
              "velocity": 45,
              "position": 1.5208333333333333,
              "duration": 0.975
            },
            {
              "pitch": 59,
              "velocity": 45,
              "position": 1.5208333333333333,
              "duration": 0.975
            },
            {
              "pitch": 48,
              "velocity": 42,
              "position": 1.5208333333333333,
              "duration": 0.9854166666666667
            },
            {
              "pitch": 48,
              "velocity": 22,
              "position": 2.5208333333333335,
              "duration": 0.46458333333333335
            },
            {
              "pitch": 55,
              "velocity": 28,
              "position": 2.5104166666666665,
              "duration": 0.48541666666666666
            },
            {
              "pitch": 59,
              "velocity": 28,
              "position": 2.5104166666666665,
              "duration": 0.48541666666666666
            },
            {
              "pitch": 60,
              "velocity": 28,
              "position": 2.5,
              "duration": 0.50625
            },
            {
              "pitch": 64,
              "velocity": 36,
              "position": 2.5104166666666665,
              "duration": 0.50625
            },
            {
              "pitch": 67,
              "velocity": 36,
              "position": 2.5,
              "duration": 0.5166666666666667
            },
            {
              "pitch": 71,
              "velocity": 36,
              "position": 2.5,
              "duration": 0.5166666666666667
            },
            {
              "pitch": 60,
              "velocity": 45,
              "position": 3.0208333333333335,
              "duration": 0.46458333333333335
            },
            {
              "pitch": 67,
              "velocity": 42,
              "position": 3.03125,
              "duration": 0.45416666666666666
            },
            {
              "pitch": 71,
              "velocity": 42,
              "position": 3.03125,
              "duration": 0.45416666666666666
            },
            {
              "pitch": 55,
              "velocity": 45,
              "position": 3.0104166666666665,
              "duration": 0.48541666666666666
            },
            {
              "pitch": 59,
              "velocity": 45,
              "position": 3.0104166666666665,
              "duration": 0.48541666666666666
            },
            {
              "pitch": 64,
              "velocity": 47,
              "position": 3.03125,
              "duration": 0.46458333333333335
            },
            {
              "pitch": 48,
              "velocity": 42,
              "position": 3,
              "duration": 0.50625
            },
            {
              "pitch": 48,
              "velocity": 22,
              "position": 3.5208333333333335,
              "duration": 0.46458333333333335
            },
            {
              "pitch": 55,
              "velocity": 28,
              "position": 3.5104166666666665,
              "duration": 0.48541666666666666
            },
            {
              "pitch": 59,
              "velocity": 28,
              "position": 3.5104166666666665,
              "duration": 0.48541666666666666
            },
            {
              "pitch": 60,
              "velocity": 28,
              "position": 3.5,
              "duration": 0.50625
            },
            {
              "pitch": 64,
              "velocity": 25,
              "position": 3.5104166666666665,
              "duration": 0.50625
            },
            {
              "pitch": 67,
              "velocity": 28,
              "position": 3.5,
              "duration": 0.5166666666666667
            },
            {
              "pitch": 71,
              "velocity": 28,
              "position": 3.5,
              "duration": 0.5166666666666667
            },
            {
              "pitch": 60,
              "velocity": 42,
              "position": 4.020833333333333,
              "duration": 0.46458333333333335
            },
            {
              "pitch": 67,
              "velocity": 42,
              "position": 4.03125,
              "duration": 0.45416666666666666
            },
            {
              "pitch": 71,
              "velocity": 42,
              "position": 4.03125,
              "duration": 0.45416666666666666
            },
            {
              "pitch": 55,
              "velocity": 34,
              "position": 4.010416666666667,
              "duration": 0.48541666666666666
            },
            {
              "pitch": 59,
              "velocity": 34,
              "position": 4.010416666666667,
              "duration": 0.48541666666666666
            },
            {
              "pitch": 64,
              "velocity": 47,
              "position": 4.03125,
              "duration": 0.46458333333333335
            },
            {
              "pitch": 48,
              "velocity": 37,
              "position": 4,
              "duration": 0.50625
            },
            {
              "pitch": 48,
              "velocity": 22,
              "position": 4.520833333333333,
              "duration": 0.46458333333333335
            },
            {
              "pitch": 55,
              "velocity": 28,
              "position": 4.510416666666667,
              "duration": 0.48541666666666666
            },
            {
              "pitch": 59,
              "velocity": 28,
              "position": 4.510416666666667,
              "duration": 0.48541666666666666
            },
            {
              "pitch": 60,
              "velocity": 28,
              "position": 4.5,
              "duration": 0.50625
            },
            {
              "pitch": 64,
              "velocity": 34,
              "position": 4.510416666666667,
              "duration": 0.50625
            },
            {
              "pitch": 67,
              "velocity": 28,
              "position": 4.5,
              "duration": 0.5166666666666667
            },
            {
              "pitch": 71,
              "velocity": 28,
              "position": 4.5,
              "duration": 0.5166666666666667
            },
            {
              "pitch": 48,
              "velocity": 77,
              "position": 5,
              "duration": 0.17291666666666666
            },
            {
              "pitch": 55,
              "velocity": 77,
              "position": 5.010416666666667,
              "duration": 0.17291666666666666
            },
            {
              "pitch": 59,
              "velocity": 77,
              "position": 5.010416666666667,
              "duration": 0.17291666666666666
            },
            {
              "pitch": 60,
              "velocity": 77,
              "position": 5.020833333333333,
              "duration": 0.17291666666666666
            },
            {
              "pitch": 64,
              "velocity": 77,
              "position": 5.03125,
              "duration": 0.17291666666666666
            },
            {
              "pitch": 67,
              "velocity": 77,
              "position": 5.03125,
              "duration": 0.17291666666666666
            },
            {
              "pitch": 71,
              "velocity": 77,
              "position": 5.03125,
              "duration": 0.17291666666666666
            },
            {
              "pitch": 67,
              "velocity": 42,
              "position": 5.5,
              "duration": 0.9854166666666667
            },
            {
              "pitch": 71,
              "velocity": 42,
              "position": 5.5,
              "duration": 0.9854166666666667
            },
            {
              "pitch": 60,
              "velocity": 45,
              "position": 5.520833333333333,
              "duration": 0.9645833333333333
            },
            {
              "pitch": 64,
              "velocity": 47,
              "position": 5.510416666666667,
              "duration": 0.9854166666666667
            },
            {
              "pitch": 55,
              "velocity": 45,
              "position": 5.520833333333333,
              "duration": 0.975
            },
            {
              "pitch": 59,
              "velocity": 45,
              "position": 5.520833333333333,
              "duration": 0.975
            },
            {
              "pitch": 48,
              "velocity": 42,
              "position": 5.520833333333333,
              "duration": 0.9854166666666667
            },
            {
              "pitch": 48,
              "velocity": 22,
              "position": 6.520833333333333,
              "duration": 0.46458333333333335
            },
            {
              "pitch": 55,
              "velocity": 28,
              "position": 6.510416666666667,
              "duration": 0.48541666666666666
            },
            {
              "pitch": 59,
              "velocity": 28,
              "position": 6.510416666666667,
              "duration": 0.48541666666666666
            },
            {
              "pitch": 60,
              "velocity": 28,
              "position": 6.5,
              "duration": 0.50625
            },
            {
              "pitch": 64,
              "velocity": 36,
              "position": 6.510416666666667,
              "duration": 0.50625
            },
            {
              "pitch": 67,
              "velocity": 36,
              "position": 6.5,
              "duration": 0.5166666666666667
            },
            {
              "pitch": 71,
              "velocity": 36,
              "position": 6.5,
              "duration": 0.5166666666666667
            },
            {
              "pitch": 60,
              "velocity": 45,
              "position": 7.020833333333333,
              "duration": 0.46458333333333335
            },
            {
              "pitch": 67,
              "velocity": 42,
              "position": 7.03125,
              "duration": 0.45416666666666666
            },
            {
              "pitch": 71,
              "velocity": 42,
              "position": 7.03125,
              "duration": 0.45416666666666666
            },
            {
              "pitch": 55,
              "velocity": 45,
              "position": 7.010416666666667,
              "duration": 0.48541666666666666
            },
            {
              "pitch": 59,
              "velocity": 45,
              "position": 7.010416666666667,
              "duration": 0.48541666666666666
            },
            {
              "pitch": 64,
              "velocity": 47,
              "position": 7.03125,
              "duration": 0.46458333333333335
            },
            {
              "pitch": 48,
              "velocity": 42,
              "position": 7,
              "duration": 0.50625
            },
            {
              "pitch": 48,
              "velocity": 22,
              "position": 7.520833333333333,
              "duration": 0.46458333333333335
            },
            {
              "pitch": 55,
              "velocity": 28,
              "position": 7.510416666666667,
              "duration": 0.48541666666666666
            },
            {
              "pitch": 59,
              "velocity": 28,
              "position": 7.510416666666667,
              "duration": 0.48541666666666666
            },
            {
              "pitch": 60,
              "velocity": 28,
              "position": 7.5,
              "duration": 0.50625
            },
            {
              "pitch": 64,
              "velocity": 25,
              "position": 7.510416666666667,
              "duration": 0.50625
            },
            {
              "pitch": 67,
              "velocity": 28,
              "position": 7.5,
              "duration": 0.5166666666666667
            },
            {
              "pitch": 71,
              "velocity": 28,
              "position": 7.5,
              "duration": 0.5166666666666667
            },
            {
              "pitch": 60,
              "velocity": 42,
              "position": 8.020833333333334,
              "duration": 0.46458333333333335
            },
            {
              "pitch": 67,
              "velocity": 42,
              "position": 8.03125,
              "duration": 0.45416666666666666
            },
            {
              "pitch": 71,
              "velocity": 42,
              "position": 8.03125,
              "duration": 0.45416666666666666
            },
            {
              "pitch": 55,
              "velocity": 34,
              "position": 8.010416666666666,
              "duration": 0.48541666666666666
            },
            {
              "pitch": 59,
              "velocity": 34,
              "position": 8.010416666666666,
              "duration": 0.48541666666666666
            },
            {
              "pitch": 64,
              "velocity": 47,
              "position": 8.03125,
              "duration": 0.46458333333333335
            },
            {
              "pitch": 48,
              "velocity": 37,
              "position": 8,
              "duration": 0.50625
            },
            {
              "pitch": 48,
              "velocity": 22,
              "position": 8.520833333333334,
              "duration": 0.46458333333333335
            },
            {
              "pitch": 55,
              "velocity": 28,
              "position": 8.510416666666666,
              "duration": 0.48541666666666666
            },
            {
              "pitch": 59,
              "velocity": 28,
              "position": 8.510416666666666,
              "duration": 0.48541666666666666
            },
            {
              "pitch": 60,
              "velocity": 28,
              "position": 8.5,
              "duration": 0.50625
            },
            {
              "pitch": 64,
              "velocity": 34,
              "position": 8.510416666666666,
              "duration": 0.50625
            },
            {
              "pitch": 67,
              "velocity": 28,
              "position": 8.5,
              "duration": 0.5166666666666667
            },
            {
              "pitch": 71,
              "velocity": 28,
              "position": 8.5,
              "duration": 0.5166666666666667
            },
            {
              "pitch": 48,
              "velocity": 77,
              "position": 9,
              "duration": 0.17291666666666666
            },
            {
              "pitch": 55,
              "velocity": 77,
              "position": 9.010416666666666,
              "duration": 0.17291666666666666
            },
            {
              "pitch": 59,
              "velocity": 77,
              "position": 9.010416666666666,
              "duration": 0.17291666666666666
            },
            {
              "pitch": 60,
              "velocity": 77,
              "position": 9.020833333333334,
              "duration": 0.17291666666666666
            },
            {
              "pitch": 64,
              "velocity": 77,
              "position": 9.03125,
              "duration": 0.17291666666666666
            },
            {
              "pitch": 67,
              "velocity": 77,
              "position": 9.03125,
              "duration": 0.17291666666666666
            },
            {
              "pitch": 71,
              "velocity": 77,
              "position": 9.03125,
              "duration": 0.17291666666666666
            },
            {
              "pitch": 67,
              "velocity": 42,
              "position": 9.5,
              "duration": 0.9854166666666667
            },
            {
              "pitch": 71,
              "velocity": 42,
              "position": 9.5,
              "duration": 0.9854166666666667
            },
            {
              "pitch": 60,
              "velocity": 45,
              "position": 9.520833333333334,
              "duration": 0.9645833333333333
            },
            {
              "pitch": 64,
              "velocity": 47,
              "position": 9.510416666666666,
              "duration": 0.9854166666666667
            },
            {
              "pitch": 55,
              "velocity": 45,
              "position": 9.520833333333334,
              "duration": 0.975
            },
            {
              "pitch": 59,
              "velocity": 45,
              "position": 9.520833333333334,
              "duration": 0.975
            },
            {
              "pitch": 48,
              "velocity": 42,
              "position": 9.520833333333334,
              "duration": 0.9854166666666667
            },
            {
              "pitch": 48,
              "velocity": 22,
              "position": 10.520833333333334,
              "duration": 0.46458333333333335
            },
            {
              "pitch": 55,
              "velocity": 28,
              "position": 10.510416666666666,
              "duration": 0.48541666666666666
            },
            {
              "pitch": 59,
              "velocity": 28,
              "position": 10.510416666666666,
              "duration": 0.48541666666666666
            },
            {
              "pitch": 60,
              "velocity": 28,
              "position": 10.5,
              "duration": 0.50625
            },
            {
              "pitch": 64,
              "velocity": 36,
              "position": 10.510416666666666,
              "duration": 0.50625
            },
            {
              "pitch": 67,
              "velocity": 36,
              "position": 10.5,
              "duration": 0.5166666666666667
            },
            {
              "pitch": 71,
              "velocity": 36,
              "position": 10.5,
              "duration": 0.5166666666666667
            },
            {
              "pitch": 60,
              "velocity": 45,
              "position": 11.020833333333334,
              "duration": 0.46458333333333335
            },
            {
              "pitch": 67,
              "velocity": 42,
              "position": 11.03125,
              "duration": 0.45416666666666666
            },
            {
              "pitch": 71,
              "velocity": 42,
              "position": 11.03125,
              "duration": 0.45416666666666666
            },
            {
              "pitch": 55,
              "velocity": 45,
              "position": 11.010416666666666,
              "duration": 0.48541666666666666
            },
            {
              "pitch": 59,
              "velocity": 45,
              "position": 11.010416666666666,
              "duration": 0.48541666666666666
            },
            {
              "pitch": 64,
              "velocity": 47,
              "position": 11.03125,
              "duration": 0.46458333333333335
            },
            {
              "pitch": 48,
              "velocity": 42,
              "position": 11,
              "duration": 0.50625
            },
            {
              "pitch": 48,
              "velocity": 22,
              "position": 11.520833333333334,
              "duration": 0.46458333333333335
            },
            {
              "pitch": 55,
              "velocity": 28,
              "position": 11.510416666666666,
              "duration": 0.48541666666666666
            },
            {
              "pitch": 59,
              "velocity": 28,
              "position": 11.510416666666666,
              "duration": 0.48541666666666666
            },
            {
              "pitch": 60,
              "velocity": 28,
              "position": 11.5,
              "duration": 0.50625
            },
            {
              "pitch": 64,
              "velocity": 25,
              "position": 11.510416666666666,
              "duration": 0.50625
            },
            {
              "pitch": 67,
              "velocity": 28,
              "position": 11.5,
              "duration": 0.5166666666666667
            },
            {
              "pitch": 71,
              "velocity": 28,
              "position": 11.5,
              "duration": 0.5166666666666667
            },
            {
              "pitch": 60,
              "velocity": 42,
              "position": 12.020833333333334,
              "duration": 0.46458333333333335
            },
            {
              "pitch": 67,
              "velocity": 42,
              "position": 12.03125,
              "duration": 0.45416666666666666
            },
            {
              "pitch": 71,
              "velocity": 42,
              "position": 12.03125,
              "duration": 0.45416666666666666
            },
            {
              "pitch": 55,
              "velocity": 34,
              "position": 12.010416666666666,
              "duration": 0.48541666666666666
            },
            {
              "pitch": 59,
              "velocity": 34,
              "position": 12.010416666666666,
              "duration": 0.48541666666666666
            },
            {
              "pitch": 64,
              "velocity": 47,
              "position": 12.03125,
              "duration": 0.46458333333333335
            },
            {
              "pitch": 48,
              "velocity": 37,
              "position": 12,
              "duration": 0.50625
            },
            {
              "pitch": 48,
              "velocity": 22,
              "position": 12.520833333333334,
              "duration": 0.46458333333333335
            },
            {
              "pitch": 55,
              "velocity": 28,
              "position": 12.510416666666666,
              "duration": 0.48541666666666666
            },
            {
              "pitch": 59,
              "velocity": 28,
              "position": 12.510416666666666,
              "duration": 0.48541666666666666
            },
            {
              "pitch": 60,
              "velocity": 28,
              "position": 12.5,
              "duration": 0.50625
            },
            {
              "pitch": 64,
              "velocity": 34,
              "position": 12.510416666666666,
              "duration": 0.50625
            },
            {
              "pitch": 67,
              "velocity": 28,
              "position": 12.5,
              "duration": 0.5166666666666667
            },
            {
              "pitch": 71,
              "velocity": 28,
              "position": 12.5,
              "duration": 0.5166666666666667
            },
            {
              "pitch": 48,
              "velocity": 77,
              "position": 13,
              "duration": 0.17291666666666666
            },
            {
              "pitch": 55,
              "velocity": 77,
              "position": 13.010416666666666,
              "duration": 0.17291666666666666
            },
            {
              "pitch": 59,
              "velocity": 77,
              "position": 13.010416666666666,
              "duration": 0.17291666666666666
            },
            {
              "pitch": 60,
              "velocity": 77,
              "position": 13.020833333333334,
              "duration": 0.17291666666666666
            },
            {
              "pitch": 64,
              "velocity": 77,
              "position": 13.03125,
              "duration": 0.17291666666666666
            },
            {
              "pitch": 67,
              "velocity": 77,
              "position": 13.03125,
              "duration": 0.17291666666666666
            },
            {
              "pitch": 71,
              "velocity": 77,
              "position": 13.03125,
              "duration": 0.17291666666666666
            },
            {
              "pitch": 67,
              "velocity": 42,
              "position": 13.5,
              "duration": 0.9854166666666667
            },
            {
              "pitch": 71,
              "velocity": 42,
              "position": 13.5,
              "duration": 0.9854166666666667
            },
            {
              "pitch": 60,
              "velocity": 45,
              "position": 13.520833333333334,
              "duration": 0.9645833333333333
            },
            {
              "pitch": 64,
              "velocity": 47,
              "position": 13.510416666666666,
              "duration": 0.9854166666666667
            },
            {
              "pitch": 55,
              "velocity": 45,
              "position": 13.520833333333334,
              "duration": 0.975
            },
            {
              "pitch": 59,
              "velocity": 45,
              "position": 13.520833333333334,
              "duration": 0.975
            },
            {
              "pitch": 48,
              "velocity": 42,
              "position": 13.520833333333334,
              "duration": 0.9854166666666667
            },
            {
              "pitch": 48,
              "velocity": 22,
              "position": 14.520833333333334,
              "duration": 0.46458333333333335
            },
            {
              "pitch": 55,
              "velocity": 28,
              "position": 14.510416666666666,
              "duration": 0.48541666666666666
            },
            {
              "pitch": 59,
              "velocity": 28,
              "position": 14.510416666666666,
              "duration": 0.48541666666666666
            },
            {
              "pitch": 60,
              "velocity": 28,
              "position": 14.5,
              "duration": 0.50625
            },
            {
              "pitch": 64,
              "velocity": 36,
              "position": 14.510416666666666,
              "duration": 0.50625
            },
            {
              "pitch": 67,
              "velocity": 36,
              "position": 14.5,
              "duration": 0.5166666666666667
            },
            {
              "pitch": 71,
              "velocity": 36,
              "position": 14.5,
              "duration": 0.5166666666666667
            },
            {
              "pitch": 60,
              "velocity": 45,
              "position": 15.020833333333334,
              "duration": 0.46458333333333335
            },
            {
              "pitch": 67,
              "velocity": 42,
              "position": 15.03125,
              "duration": 0.45416666666666666
            },
            {
              "pitch": 71,
              "velocity": 42,
              "position": 15.03125,
              "duration": 0.45416666666666666
            },
            {
              "pitch": 55,
              "velocity": 45,
              "position": 15.010416666666666,
              "duration": 0.48541666666666666
            },
            {
              "pitch": 59,
              "velocity": 45,
              "position": 15.010416666666666,
              "duration": 0.48541666666666666
            },
            {
              "pitch": 64,
              "velocity": 47,
              "position": 15.03125,
              "duration": 0.46458333333333335
            },
            {
              "pitch": 48,
              "velocity": 42,
              "position": 15,
              "duration": 0.50625
            },
            {
              "pitch": 67,
              "velocity": 28,
              "position": 15.5,
              "duration": 0.475
            },
            {
              "pitch": 71,
              "velocity": 28,
              "position": 15.5,
              "duration": 0.475
            },
            {
              "pitch": 64,
              "velocity": 25,
              "position": 15.510416666666666,
              "duration": 0.475
            },
            {
              "pitch": 55,
              "velocity": 28,
              "position": 15.510416666666666,
              "duration": 0.475
            },
            {
              "pitch": 59,
              "velocity": 28,
              "position": 15.510416666666666,
              "duration": 0.475
            },
            {
              "pitch": 48,
              "velocity": 22,
              "position": 15.520833333333334,
              "duration": 0.46458333333333335
            },
            {
              "pitch": 60,
              "velocity": 28,
              "position": 15.5,
              "duration": 0.48541666666666666
            }
          ]
        },
        "12": {
          "ctab": {
            "srcChannel": 12,
            "name": "HistrGtr",
            "accType": "CHORD2",
            "editable": false,
            "mutedNotes": [],
            "mutedChords": [],
            "autoStart": false,
            "sourceChordNote": 0,
            "sourceChordType": "Maj7",
            "ctb2Low": null,
            "ctb2Main": {
              "ntr": "ROOT_TRANSPOSITION",
              "ntt": "MELODY",
              "bassOn": true,
              "chordRootUpperLimit": 6,
              "noteLowLimit": 0,
              "noteHighLimit": 127,
              "rtr": "PITCH_SHIFT"
            },
            "ctb2High": null
          },
          "notes": [
            {
              "pitch": 67,
              "velocity": 69,
              "position": 0.020833333333333332,
              "duration": 0.46458333333333335
            },
            {
              "pitch": 71,
              "velocity": 69,
              "position": 0.020833333333333332,
              "duration": 0.46458333333333335
            },
            {
              "pitch": 64,
              "velocity": 67,
              "position": 0.020833333333333332,
              "duration": 0.475
            },
            {
              "pitch": 60,
              "velocity": 60,
              "position": 0.020833333333333332,
              "duration": 0.48541666666666666
            },
            {
              "pitch": 55,
              "velocity": 55,
              "position": 0.010416666666666666,
              "duration": 0.49583333333333335
            },
            {
              "pitch": 59,
              "velocity": 55,
              "position": 0.010416666666666666,
              "duration": 0.49583333333333335
            },
            {
              "pitch": 48,
              "velocity": 50,
              "position": 0.010416666666666666,
              "duration": 0.49583333333333335
            },
            {
              "pitch": 48,
              "velocity": 45,
              "position": 0.5208333333333334,
              "duration": 0.46458333333333335
            },
            {
              "pitch": 55,
              "velocity": 40,
              "position": 0.5208333333333334,
              "duration": 0.475
            },
            {
              "pitch": 59,
              "velocity": 40,
              "position": 0.5208333333333334,
              "duration": 0.475
            },
            {
              "pitch": 67,
              "velocity": 43,
              "position": 0.5,
              "duration": 0.50625
            },
            {
              "pitch": 71,
              "velocity": 43,
              "position": 0.5,
              "duration": 0.50625
            },
            {
              "pitch": 60,
              "velocity": 37,
              "position": 0.5208333333333334,
              "duration": 0.48541666666666666
            },
            {
              "pitch": 64,
              "velocity": 34,
              "position": 0.5104166666666666,
              "duration": 0.49583333333333335
            },
            {
              "pitch": 67,
              "velocity": 44,
              "position": 1.0208333333333333,
              "duration": 0.46458333333333335
            },
            {
              "pitch": 71,
              "velocity": 44,
              "position": 1.0208333333333333,
              "duration": 0.46458333333333335
            },
            {
              "pitch": 64,
              "velocity": 53,
              "position": 1.0208333333333333,
              "duration": 0.475
            },
            {
              "pitch": 60,
              "velocity": 51,
              "position": 1.0208333333333333,
              "duration": 0.48541666666666666
            },
            {
              "pitch": 48,
              "velocity": 38,
              "position": 1,
              "duration": 0.50625
            },
            {
              "pitch": 55,
              "velocity": 44,
              "position": 1.0104166666666667,
              "duration": 0.49583333333333335
            },
            {
              "pitch": 59,
              "velocity": 44,
              "position": 1.0104166666666667,
              "duration": 0.49583333333333335
            },
            {
              "pitch": 67,
              "velocity": 68,
              "position": 1.5,
              "duration": 0.9854166666666667
            },
            {
              "pitch": 71,
              "velocity": 68,
              "position": 1.5,
              "duration": 0.9854166666666667
            },
            {
              "pitch": 64,
              "velocity": 70,
              "position": 1.5104166666666667,
              "duration": 0.9854166666666667
            },
            {
              "pitch": 48,
              "velocity": 60,
              "position": 1.5208333333333333,
              "duration": 0.9854166666666667
            },
            {
              "pitch": 60,
              "velocity": 63,
              "position": 1.5208333333333333,
              "duration": 0.9854166666666667
            },
            {
              "pitch": 55,
              "velocity": 58,
              "position": 1.5208333333333333,
              "duration": 0.9854166666666667
            },
            {
              "pitch": 59,
              "velocity": 58,
              "position": 1.5208333333333333,
              "duration": 0.9854166666666667
            },
            {
              "pitch": 48,
              "velocity": 45,
              "position": 2.5208333333333335,
              "duration": 0.46458333333333335
            },
            {
              "pitch": 55,
              "velocity": 45,
              "position": 2.5208333333333335,
              "duration": 0.475
            },
            {
              "pitch": 59,
              "velocity": 45,
              "position": 2.5208333333333335,
              "duration": 0.475
            },
            {
              "pitch": 67,
              "velocity": 48,
              "position": 2.5,
              "duration": 0.50625
            },
            {
              "pitch": 71,
              "velocity": 48,
              "position": 2.5,
              "duration": 0.50625
            },
            {
              "pitch": 60,
              "velocity": 45,
              "position": 2.5208333333333335,
              "duration": 0.48541666666666666
            },
            {
              "pitch": 64,
              "velocity": 50,
              "position": 2.5104166666666665,
              "duration": 0.49583333333333335
            },
            {
              "pitch": 67,
              "velocity": 69,
              "position": 3.0208333333333335,
              "duration": 0.46458333333333335
            },
            {
              "pitch": 71,
              "velocity": 69,
              "position": 3.0208333333333335,
              "duration": 0.46458333333333335
            },
            {
              "pitch": 64,
              "velocity": 67,
              "position": 3.0208333333333335,
              "duration": 0.475
            },
            {
              "pitch": 60,
              "velocity": 60,
              "position": 3.0208333333333335,
              "duration": 0.48541666666666666
            },
            {
              "pitch": 48,
              "velocity": 50,
              "position": 3,
              "duration": 0.50625
            },
            {
              "pitch": 55,
              "velocity": 55,
              "position": 3.0104166666666665,
              "duration": 0.49583333333333335
            },
            {
              "pitch": 59,
              "velocity": 55,
              "position": 3.0104166666666665,
              "duration": 0.49583333333333335
            },
            {
              "pitch": 48,
              "velocity": 36,
              "position": 3.5208333333333335,
              "duration": 0.46458333333333335
            },
            {
              "pitch": 55,
              "velocity": 36,
              "position": 3.5208333333333335,
              "duration": 0.475
            },
            {
              "pitch": 59,
              "velocity": 36,
              "position": 3.5208333333333335,
              "duration": 0.475
            },
            {
              "pitch": 67,
              "velocity": 60,
              "position": 3.5,
              "duration": 0.50625
            },
            {
              "pitch": 71,
              "velocity": 60,
              "position": 3.5,
              "duration": 0.50625
            },
            {
              "pitch": 60,
              "velocity": 58,
              "position": 3.5208333333333335,
              "duration": 0.48541666666666666
            },
            {
              "pitch": 64,
              "velocity": 61,
              "position": 3.5104166666666665,
              "duration": 0.49583333333333335
            },
            {
              "pitch": 67,
              "velocity": 69,
              "position": 4.020833333333333,
              "duration": 0.46458333333333335
            },
            {
              "pitch": 71,
              "velocity": 69,
              "position": 4.020833333333333,
              "duration": 0.46458333333333335
            },
            {
              "pitch": 64,
              "velocity": 67,
              "position": 4.020833333333333,
              "duration": 0.475
            },
            {
              "pitch": 60,
              "velocity": 60,
              "position": 4.020833333333333,
              "duration": 0.48541666666666666
            },
            {
              "pitch": 55,
              "velocity": 55,
              "position": 4.010416666666667,
              "duration": 0.49583333333333335
            },
            {
              "pitch": 59,
              "velocity": 55,
              "position": 4.010416666666667,
              "duration": 0.49583333333333335
            },
            {
              "pitch": 48,
              "velocity": 50,
              "position": 4,
              "duration": 0.50625
            },
            {
              "pitch": 48,
              "velocity": 45,
              "position": 4.520833333333333,
              "duration": 0.46458333333333335
            },
            {
              "pitch": 55,
              "velocity": 40,
              "position": 4.520833333333333,
              "duration": 0.475
            },
            {
              "pitch": 59,
              "velocity": 40,
              "position": 4.520833333333333,
              "duration": 0.475
            },
            {
              "pitch": 67,
              "velocity": 43,
              "position": 4.5,
              "duration": 0.50625
            },
            {
              "pitch": 71,
              "velocity": 43,
              "position": 4.5,
              "duration": 0.50625
            },
            {
              "pitch": 60,
              "velocity": 37,
              "position": 4.520833333333333,
              "duration": 0.48541666666666666
            },
            {
              "pitch": 64,
              "velocity": 34,
              "position": 4.510416666666667,
              "duration": 0.49583333333333335
            },
            {
              "pitch": 67,
              "velocity": 44,
              "position": 5.020833333333333,
              "duration": 0.46458333333333335
            },
            {
              "pitch": 71,
              "velocity": 44,
              "position": 5.020833333333333,
              "duration": 0.46458333333333335
            },
            {
              "pitch": 64,
              "velocity": 53,
              "position": 5.020833333333333,
              "duration": 0.475
            },
            {
              "pitch": 60,
              "velocity": 51,
              "position": 5.020833333333333,
              "duration": 0.48541666666666666
            },
            {
              "pitch": 48,
              "velocity": 38,
              "position": 5,
              "duration": 0.50625
            },
            {
              "pitch": 55,
              "velocity": 44,
              "position": 5.010416666666667,
              "duration": 0.49583333333333335
            },
            {
              "pitch": 59,
              "velocity": 44,
              "position": 5.010416666666667,
              "duration": 0.49583333333333335
            },
            {
              "pitch": 48,
              "velocity": 59,
              "position": 5.520833333333333,
              "duration": 0.46458333333333335
            },
            {
              "pitch": 55,
              "velocity": 36,
              "position": 5.520833333333333,
              "duration": 0.475
            },
            {
              "pitch": 59,
              "velocity": 36,
              "position": 5.520833333333333,
              "duration": 0.475
            },
            {
              "pitch": 67,
              "velocity": 59,
              "position": 5.5,
              "duration": 0.50625
            },
            {
              "pitch": 71,
              "velocity": 59,
              "position": 5.5,
              "duration": 0.50625
            },
            {
              "pitch": 60,
              "velocity": 59,
              "position": 5.520833333333333,
              "duration": 0.48541666666666666
            },
            {
              "pitch": 64,
              "velocity": 64,
              "position": 5.510416666666667,
              "duration": 0.49583333333333335
            },
            {
              "pitch": 67,
              "velocity": 34,
              "position": 6.020833333333333,
              "duration": 0.46458333333333335
            },
            {
              "pitch": 71,
              "velocity": 34,
              "position": 6.020833333333333,
              "duration": 0.46458333333333335
            },
            {
              "pitch": 64,
              "velocity": 37,
              "position": 6.020833333333333,
              "duration": 0.475
            },
            {
              "pitch": 60,
              "velocity": 35,
              "position": 6.020833333333333,
              "duration": 0.48541666666666666
            },
            {
              "pitch": 48,
              "velocity": 28,
              "position": 6,
              "duration": 0.50625
            },
            {
              "pitch": 55,
              "velocity": 28,
              "position": 6.010416666666667,
              "duration": 0.49583333333333335
            },
            {
              "pitch": 59,
              "velocity": 28,
              "position": 6.010416666666667,
              "duration": 0.49583333333333335
            },
            {
              "pitch": 48,
              "velocity": 59,
              "position": 6.520833333333333,
              "duration": 0.46458333333333335
            },
            {
              "pitch": 55,
              "velocity": 36,
              "position": 6.520833333333333,
              "duration": 0.475
            },
            {
              "pitch": 59,
              "velocity": 36,
              "position": 6.520833333333333,
              "duration": 0.475
            },
            {
              "pitch": 67,
              "velocity": 59,
              "position": 6.5,
              "duration": 0.50625
            },
            {
              "pitch": 71,
              "velocity": 59,
              "position": 6.5,
              "duration": 0.50625
            },
            {
              "pitch": 60,
              "velocity": 59,
              "position": 6.520833333333333,
              "duration": 0.48541666666666666
            },
            {
              "pitch": 64,
              "velocity": 58,
              "position": 6.510416666666667,
              "duration": 0.49583333333333335
            },
            {
              "pitch": 67,
              "velocity": 69,
              "position": 7.020833333333333,
              "duration": 0.46458333333333335
            },
            {
              "pitch": 71,
              "velocity": 69,
              "position": 7.020833333333333,
              "duration": 0.46458333333333335
            },
            {
              "pitch": 64,
              "velocity": 67,
              "position": 7.020833333333333,
              "duration": 0.475
            },
            {
              "pitch": 60,
              "velocity": 60,
              "position": 7.020833333333333,
              "duration": 0.48541666666666666
            },
            {
              "pitch": 48,
              "velocity": 50,
              "position": 7,
              "duration": 0.50625
            },
            {
              "pitch": 55,
              "velocity": 55,
              "position": 7.010416666666667,
              "duration": 0.49583333333333335
            },
            {
              "pitch": 59,
              "velocity": 55,
              "position": 7.010416666666667,
              "duration": 0.49583333333333335
            },
            {
              "pitch": 48,
              "velocity": 45,
              "position": 7.520833333333333,
              "duration": 0.46458333333333335
            },
            {
              "pitch": 55,
              "velocity": 40,
              "position": 7.520833333333333,
              "duration": 0.475
            },
            {
              "pitch": 59,
              "velocity": 40,
              "position": 7.520833333333333,
              "duration": 0.475
            },
            {
              "pitch": 67,
              "velocity": 43,
              "position": 7.5,
              "duration": 0.50625
            },
            {
              "pitch": 71,
              "velocity": 43,
              "position": 7.5,
              "duration": 0.50625
            },
            {
              "pitch": 60,
              "velocity": 37,
              "position": 7.520833333333333,
              "duration": 0.48541666666666666
            },
            {
              "pitch": 64,
              "velocity": 34,
              "position": 7.510416666666667,
              "duration": 0.49583333333333335
            },
            {
              "pitch": 67,
              "velocity": 69,
              "position": 8.020833333333334,
              "duration": 0.46458333333333335
            },
            {
              "pitch": 71,
              "velocity": 69,
              "position": 8.020833333333334,
              "duration": 0.46458333333333335
            },
            {
              "pitch": 64,
              "velocity": 67,
              "position": 8.020833333333334,
              "duration": 0.475
            },
            {
              "pitch": 60,
              "velocity": 60,
              "position": 8.020833333333334,
              "duration": 0.48541666666666666
            },
            {
              "pitch": 48,
              "velocity": 50,
              "position": 8,
              "duration": 0.50625
            },
            {
              "pitch": 55,
              "velocity": 55,
              "position": 8.010416666666666,
              "duration": 0.49583333333333335
            },
            {
              "pitch": 59,
              "velocity": 55,
              "position": 8.010416666666666,
              "duration": 0.49583333333333335
            },
            {
              "pitch": 48,
              "velocity": 45,
              "position": 8.520833333333334,
              "duration": 0.46458333333333335
            },
            {
              "pitch": 55,
              "velocity": 40,
              "position": 8.520833333333334,
              "duration": 0.475
            },
            {
              "pitch": 59,
              "velocity": 40,
              "position": 8.520833333333334,
              "duration": 0.475
            },
            {
              "pitch": 67,
              "velocity": 43,
              "position": 8.5,
              "duration": 0.50625
            },
            {
              "pitch": 71,
              "velocity": 43,
              "position": 8.5,
              "duration": 0.50625
            },
            {
              "pitch": 60,
              "velocity": 37,
              "position": 8.520833333333334,
              "duration": 0.48541666666666666
            },
            {
              "pitch": 64,
              "velocity": 34,
              "position": 8.510416666666666,
              "duration": 0.49583333333333335
            },
            {
              "pitch": 67,
              "velocity": 44,
              "position": 9.020833333333334,
              "duration": 0.46458333333333335
            },
            {
              "pitch": 71,
              "velocity": 44,
              "position": 9.020833333333334,
              "duration": 0.46458333333333335
            },
            {
              "pitch": 64,
              "velocity": 53,
              "position": 9.020833333333334,
              "duration": 0.475
            },
            {
              "pitch": 60,
              "velocity": 51,
              "position": 9.020833333333334,
              "duration": 0.48541666666666666
            },
            {
              "pitch": 48,
              "velocity": 38,
              "position": 9,
              "duration": 0.50625
            },
            {
              "pitch": 55,
              "velocity": 44,
              "position": 9.010416666666666,
              "duration": 0.49583333333333335
            },
            {
              "pitch": 59,
              "velocity": 44,
              "position": 9.010416666666666,
              "duration": 0.49583333333333335
            },
            {
              "pitch": 67,
              "velocity": 68,
              "position": 9.5,
              "duration": 0.9854166666666667
            },
            {
              "pitch": 71,
              "velocity": 68,
              "position": 9.5,
              "duration": 0.9854166666666667
            },
            {
              "pitch": 64,
              "velocity": 70,
              "position": 9.510416666666666,
              "duration": 0.9854166666666667
            },
            {
              "pitch": 48,
              "velocity": 60,
              "position": 9.520833333333334,
              "duration": 0.9854166666666667
            },
            {
              "pitch": 60,
              "velocity": 63,
              "position": 9.520833333333334,
              "duration": 0.9854166666666667
            },
            {
              "pitch": 55,
              "velocity": 58,
              "position": 9.520833333333334,
              "duration": 0.9854166666666667
            },
            {
              "pitch": 59,
              "velocity": 58,
              "position": 9.520833333333334,
              "duration": 0.9854166666666667
            },
            {
              "pitch": 48,
              "velocity": 45,
              "position": 10.520833333333334,
              "duration": 0.46458333333333335
            },
            {
              "pitch": 55,
              "velocity": 45,
              "position": 10.520833333333334,
              "duration": 0.475
            },
            {
              "pitch": 59,
              "velocity": 45,
              "position": 10.520833333333334,
              "duration": 0.475
            },
            {
              "pitch": 67,
              "velocity": 48,
              "position": 10.5,
              "duration": 0.50625
            },
            {
              "pitch": 71,
              "velocity": 48,
              "position": 10.5,
              "duration": 0.50625
            },
            {
              "pitch": 60,
              "velocity": 45,
              "position": 10.520833333333334,
              "duration": 0.48541666666666666
            },
            {
              "pitch": 64,
              "velocity": 50,
              "position": 10.510416666666666,
              "duration": 0.49583333333333335
            },
            {
              "pitch": 67,
              "velocity": 69,
              "position": 11.020833333333334,
              "duration": 0.46458333333333335
            },
            {
              "pitch": 71,
              "velocity": 69,
              "position": 11.020833333333334,
              "duration": 0.46458333333333335
            },
            {
              "pitch": 64,
              "velocity": 67,
              "position": 11.020833333333334,
              "duration": 0.475
            },
            {
              "pitch": 60,
              "velocity": 60,
              "position": 11.020833333333334,
              "duration": 0.48541666666666666
            },
            {
              "pitch": 48,
              "velocity": 50,
              "position": 11,
              "duration": 0.50625
            },
            {
              "pitch": 55,
              "velocity": 55,
              "position": 11.010416666666666,
              "duration": 0.49583333333333335
            },
            {
              "pitch": 59,
              "velocity": 55,
              "position": 11.010416666666666,
              "duration": 0.49583333333333335
            },
            {
              "pitch": 48,
              "velocity": 36,
              "position": 11.520833333333334,
              "duration": 0.46458333333333335
            },
            {
              "pitch": 55,
              "velocity": 36,
              "position": 11.520833333333334,
              "duration": 0.475
            },
            {
              "pitch": 59,
              "velocity": 36,
              "position": 11.520833333333334,
              "duration": 0.475
            },
            {
              "pitch": 67,
              "velocity": 60,
              "position": 11.5,
              "duration": 0.50625
            },
            {
              "pitch": 71,
              "velocity": 60,
              "position": 11.5,
              "duration": 0.50625
            },
            {
              "pitch": 60,
              "velocity": 58,
              "position": 11.520833333333334,
              "duration": 0.48541666666666666
            },
            {
              "pitch": 64,
              "velocity": 61,
              "position": 11.510416666666666,
              "duration": 0.49583333333333335
            },
            {
              "pitch": 67,
              "velocity": 69,
              "position": 12.020833333333334,
              "duration": 0.46458333333333335
            },
            {
              "pitch": 71,
              "velocity": 69,
              "position": 12.020833333333334,
              "duration": 0.46458333333333335
            },
            {
              "pitch": 64,
              "velocity": 67,
              "position": 12.020833333333334,
              "duration": 0.475
            },
            {
              "pitch": 60,
              "velocity": 60,
              "position": 12.020833333333334,
              "duration": 0.48541666666666666
            },
            {
              "pitch": 55,
              "velocity": 55,
              "position": 12.010416666666666,
              "duration": 0.49583333333333335
            },
            {
              "pitch": 59,
              "velocity": 55,
              "position": 12.010416666666666,
              "duration": 0.49583333333333335
            },
            {
              "pitch": 48,
              "velocity": 50,
              "position": 12,
              "duration": 0.50625
            },
            {
              "pitch": 48,
              "velocity": 45,
              "position": 12.520833333333334,
              "duration": 0.46458333333333335
            },
            {
              "pitch": 55,
              "velocity": 40,
              "position": 12.520833333333334,
              "duration": 0.475
            },
            {
              "pitch": 59,
              "velocity": 40,
              "position": 12.520833333333334,
              "duration": 0.475
            },
            {
              "pitch": 67,
              "velocity": 43,
              "position": 12.5,
              "duration": 0.50625
            },
            {
              "pitch": 71,
              "velocity": 43,
              "position": 12.5,
              "duration": 0.50625
            },
            {
              "pitch": 60,
              "velocity": 37,
              "position": 12.520833333333334,
              "duration": 0.48541666666666666
            },
            {
              "pitch": 64,
              "velocity": 34,
              "position": 12.510416666666666,
              "duration": 0.49583333333333335
            },
            {
              "pitch": 67,
              "velocity": 44,
              "position": 13.020833333333334,
              "duration": 0.46458333333333335
            },
            {
              "pitch": 71,
              "velocity": 44,
              "position": 13.020833333333334,
              "duration": 0.46458333333333335
            },
            {
              "pitch": 64,
              "velocity": 53,
              "position": 13.020833333333334,
              "duration": 0.475
            },
            {
              "pitch": 60,
              "velocity": 51,
              "position": 13.020833333333334,
              "duration": 0.48541666666666666
            },
            {
              "pitch": 48,
              "velocity": 38,
              "position": 13,
              "duration": 0.50625
            },
            {
              "pitch": 55,
              "velocity": 44,
              "position": 13.010416666666666,
              "duration": 0.49583333333333335
            },
            {
              "pitch": 59,
              "velocity": 44,
              "position": 13.010416666666666,
              "duration": 0.49583333333333335
            },
            {
              "pitch": 48,
              "velocity": 59,
              "position": 13.520833333333334,
              "duration": 0.46458333333333335
            },
            {
              "pitch": 55,
              "velocity": 36,
              "position": 13.520833333333334,
              "duration": 0.475
            },
            {
              "pitch": 59,
              "velocity": 36,
              "position": 13.520833333333334,
              "duration": 0.475
            },
            {
              "pitch": 67,
              "velocity": 59,
              "position": 13.5,
              "duration": 0.50625
            },
            {
              "pitch": 71,
              "velocity": 59,
              "position": 13.5,
              "duration": 0.50625
            },
            {
              "pitch": 60,
              "velocity": 59,
              "position": 13.520833333333334,
              "duration": 0.48541666666666666
            },
            {
              "pitch": 64,
              "velocity": 64,
              "position": 13.510416666666666,
              "duration": 0.49583333333333335
            },
            {
              "pitch": 67,
              "velocity": 34,
              "position": 14.020833333333334,
              "duration": 0.46458333333333335
            },
            {
              "pitch": 71,
              "velocity": 34,
              "position": 14.020833333333334,
              "duration": 0.46458333333333335
            },
            {
              "pitch": 64,
              "velocity": 37,
              "position": 14.020833333333334,
              "duration": 0.475
            },
            {
              "pitch": 60,
              "velocity": 35,
              "position": 14.020833333333334,
              "duration": 0.48541666666666666
            },
            {
              "pitch": 48,
              "velocity": 28,
              "position": 14,
              "duration": 0.50625
            },
            {
              "pitch": 55,
              "velocity": 28,
              "position": 14.010416666666666,
              "duration": 0.49583333333333335
            },
            {
              "pitch": 59,
              "velocity": 28,
              "position": 14.010416666666666,
              "duration": 0.49583333333333335
            },
            {
              "pitch": 48,
              "velocity": 59,
              "position": 14.520833333333334,
              "duration": 0.46458333333333335
            },
            {
              "pitch": 55,
              "velocity": 36,
              "position": 14.520833333333334,
              "duration": 0.475
            },
            {
              "pitch": 59,
              "velocity": 36,
              "position": 14.520833333333334,
              "duration": 0.475
            },
            {
              "pitch": 67,
              "velocity": 59,
              "position": 14.5,
              "duration": 0.50625
            },
            {
              "pitch": 71,
              "velocity": 59,
              "position": 14.5,
              "duration": 0.50625
            },
            {
              "pitch": 60,
              "velocity": 59,
              "position": 14.520833333333334,
              "duration": 0.48541666666666666
            },
            {
              "pitch": 64,
              "velocity": 58,
              "position": 14.510416666666666,
              "duration": 0.49583333333333335
            },
            {
              "pitch": 67,
              "velocity": 69,
              "position": 15.020833333333334,
              "duration": 0.46458333333333335
            },
            {
              "pitch": 71,
              "velocity": 69,
              "position": 15.020833333333334,
              "duration": 0.46458333333333335
            },
            {
              "pitch": 64,
              "velocity": 67,
              "position": 15.020833333333334,
              "duration": 0.475
            },
            {
              "pitch": 60,
              "velocity": 60,
              "position": 15.020833333333334,
              "duration": 0.48541666666666666
            },
            {
              "pitch": 48,
              "velocity": 50,
              "position": 15,
              "duration": 0.50625
            },
            {
              "pitch": 55,
              "velocity": 55,
              "position": 15.010416666666666,
              "duration": 0.49583333333333335
            },
            {
              "pitch": 59,
              "velocity": 55,
              "position": 15.010416666666666,
              "duration": 0.49583333333333335
            },
            {
              "pitch": 60,
              "velocity": 37,
              "position": 15.520833333333334,
              "duration": 0.46458333333333335
            },
            {
              "pitch": 55,
              "velocity": 40,
              "position": 15.520833333333334,
              "duration": 0.46458333333333335
            },
            {
              "pitch": 59,
              "velocity": 40,
              "position": 15.520833333333334,
              "duration": 0.46458333333333335
            },
            {
              "pitch": 48,
              "velocity": 45,
              "position": 15.520833333333334,
              "duration": 0.46458333333333335
            },
            {
              "pitch": 64,
              "velocity": 34,
              "position": 15.510416666666666,
              "duration": 0.475
            },
            {
              "pitch": 67,
              "velocity": 43,
              "position": 15.5,
              "duration": 0.48541666666666666
            },
            {
              "pitch": 71,
              "velocity": 43,
              "position": 15.5,
              "duration": 0.48541666666666666
            }
          ]
        },
        "13": {
          "ctab": {
            "srcChannel": 13,
            "name": "Organ",
            "accType": "PAD",
            "editable": false,
            "mutedNotes": [],
            "mutedChords": [],
            "autoStart": false,
            "sourceChordNote": 0,
            "sourceChordType": "Maj7",
            "ctb2Low": null,
            "ctb2Main": {
              "ntr": "ROOT_FIXED",
              "ntt": "CHORD",
              "bassOn": false,
              "chordRootUpperLimit": 0,
              "noteLowLimit": 0,
              "noteHighLimit": 79,
              "rtr": "PITCH_SHIFT"
            },
            "ctb2High": null
          },
          "notes": [
            {
              "pitch": 64,
              "velocity": 50,
              "position": 0.025,
              "duration": 3.90625
            },
            {
              "pitch": 71,
              "velocity": 50,
              "position": 0.025,
              "duration": 3.90625
            },
            {
              "pitch": 67,
              "velocity": 50,
              "position": 0.025,
              "duration": 3.90625
            },
            {
              "pitch": 64,
              "velocity": 50,
              "position": 4,
              "duration": 3.90625
            },
            {
              "pitch": 71,
              "velocity": 50,
              "position": 4,
              "duration": 3.90625
            },
            {
              "pitch": 67,
              "velocity": 50,
              "position": 4,
              "duration": 3.90625
            },
            {
              "pitch": 64,
              "velocity": 50,
              "position": 8,
              "duration": 3.90625
            },
            {
              "pitch": 71,
              "velocity": 50,
              "position": 8,
              "duration": 3.90625
            },
            {
              "pitch": 67,
              "velocity": 50,
              "position": 8,
              "duration": 3.90625
            },
            {
              "pitch": 64,
              "velocity": 50,
              "position": 12,
              "duration": 3.90625
            },
            {
              "pitch": 71,
              "velocity": 50,
              "position": 12,
              "duration": 3.90625
            },
            {
              "pitch": 67,
              "velocity": 50,
              "position": 12,
              "duration": 3.90625
            }
          ]
        },
        "14": {
          "ctab": {
            "srcChannel": 14,
            "name": "Tele",
            "accType": "PHRASE1",
            "editable": false,
            "mutedNotes": [],
            "mutedChords": [],
            "autoStart": false,
            "sourceChordNote": 0,
            "sourceChordType": "min7(11)",
            "ctb2Low": null,
            "ctb2Main": {
              "ntr": "ROOT_FIXED",
              "ntt": "CHORD",
              "bassOn": false,
              "chordRootUpperLimit": 3,
              "noteLowLimit": 0,
              "noteHighLimit": 127,
              "rtr": "PITCH_SHIFT"
            },
            "ctb2High": null
          },
          "notes": [
            {
              "pitch": 106,
              "velocity": 75,
              "position": 0,
              "duration": 0.20416666666666666
            },
            {
              "pitch": 55,
              "velocity": 79,
              "position": 0,
              "duration": 0.21458333333333332
            },
            {
              "pitch": 48,
              "velocity": 76,
              "position": 0,
              "duration": 0.21458333333333332
            },
            {
              "pitch": 117,
              "velocity": 66,
              "position": 0.5,
              "duration": 0.20416666666666666
            },
            {
              "pitch": 48,
              "velocity": 76,
              "position": 0.5,
              "duration": 0.21458333333333332
            },
            {
              "pitch": 55,
              "velocity": 76,
              "position": 0.5,
              "duration": 0.22083333333333333
            },
            {
              "pitch": 113,
              "velocity": 72,
              "position": 1,
              "duration": 0.20416666666666666
            },
            {
              "pitch": 55,
              "velocity": 78,
              "position": 1,
              "duration": 0.21458333333333332
            },
            {
              "pitch": 48,
              "velocity": 76,
              "position": 1,
              "duration": 0.21458333333333332
            },
            {
              "pitch": 72,
              "velocity": 15,
              "position": 0,
              "duration": 1.4854166666666666
            },
            {
              "pitch": 67,
              "velocity": 12,
              "position": 0.5,
              "duration": 0.9958333333333333
            },
            {
              "pitch": 100,
              "velocity": 66,
              "position": 1.5,
              "duration": 0.20416666666666666
            },
            {
              "pitch": 48,
              "velocity": 76,
              "position": 1.5,
              "duration": 0.21458333333333332
            },
            {
              "pitch": 60,
              "velocity": 12,
              "position": 1,
              "duration": 0.9645833333333333
            },
            {
              "pitch": 72,
              "velocity": 10,
              "position": 1.5,
              "duration": 0.46458333333333335
            },
            {
              "pitch": 55,
              "velocity": 79,
              "position": 1.5,
              "duration": 0.46458333333333335
            },
            {
              "pitch": 67,
              "velocity": 12,
              "position": 1.5208333333333333,
              "duration": 0.475
            },
            {
              "pitch": 114,
              "velocity": 60,
              "position": 2,
              "duration": 0.20416666666666666
            },
            {
              "pitch": 48,
              "velocity": 76,
              "position": 2,
              "duration": 0.21458333333333332
            },
            {
              "pitch": 55,
              "velocity": 78,
              "position": 2,
              "duration": 0.225
            },
            {
              "pitch": 98,
              "velocity": 57,
              "position": 2.5,
              "duration": 0.20416666666666666
            },
            {
              "pitch": 48,
              "velocity": 76,
              "position": 2.5,
              "duration": 0.21458333333333332
            },
            {
              "pitch": 55,
              "velocity": 76,
              "position": 2.5,
              "duration": 0.225
            },
            {
              "pitch": 72,
              "velocity": 10,
              "position": 2.5,
              "duration": 0.475
            },
            {
              "pitch": 67,
              "velocity": 12,
              "position": 2.5208333333333335,
              "duration": 0.475
            },
            {
              "pitch": 115,
              "velocity": 60,
              "position": 3,
              "duration": 0.20416666666666666
            },
            {
              "pitch": 48,
              "velocity": 76,
              "position": 3,
              "duration": 0.21458333333333332
            },
            {
              "pitch": 55,
              "velocity": 78,
              "position": 3,
              "duration": 0.225
            },
            {
              "pitch": 100,
              "velocity": 57,
              "position": 3.5,
              "duration": 0.20416666666666666
            },
            {
              "pitch": 48,
              "velocity": 76,
              "position": 3.5,
              "duration": 0.21458333333333332
            },
            {
              "pitch": 55,
              "velocity": 76,
              "position": 3.5,
              "duration": 0.225
            },
            {
              "pitch": 72,
              "velocity": 10,
              "position": 3.5,
              "duration": 0.475
            },
            {
              "pitch": 67,
              "velocity": 12,
              "position": 3.5208333333333335,
              "duration": 0.475
            },
            {
              "pitch": 108,
              "velocity": 60,
              "position": 4,
              "duration": 0.20416666666666666
            },
            {
              "pitch": 48,
              "velocity": 76,
              "position": 4,
              "duration": 0.21458333333333332
            },
            {
              "pitch": 55,
              "velocity": 79,
              "position": 4,
              "duration": 0.225
            },
            {
              "pitch": 117,
              "velocity": 66,
              "position": 4.5,
              "duration": 0.20416666666666666
            },
            {
              "pitch": 48,
              "velocity": 76,
              "position": 4.5,
              "duration": 0.21458333333333332
            },
            {
              "pitch": 55,
              "velocity": 76,
              "position": 4.5,
              "duration": 0.225
            },
            {
              "pitch": 106,
              "velocity": 72,
              "position": 5,
              "duration": 0.20416666666666666
            },
            {
              "pitch": 48,
              "velocity": 76,
              "position": 5,
              "duration": 0.21458333333333332
            },
            {
              "pitch": 55,
              "velocity": 78,
              "position": 5,
              "duration": 0.225
            },
            {
              "pitch": 72,
              "velocity": 10,
              "position": 4.5,
              "duration": 0.9854166666666667
            },
            {
              "pitch": 67,
              "velocity": 108,
              "position": 4.520833333333333,
              "duration": 0.9854166666666667
            },
            {
              "pitch": 100,
              "velocity": 66,
              "position": 5.5,
              "duration": 0.20416666666666666
            },
            {
              "pitch": 48,
              "velocity": 76,
              "position": 5.5,
              "duration": 0.21458333333333332
            },
            {
              "pitch": 55,
              "velocity": 79,
              "position": 5.5,
              "duration": 0.225
            },
            {
              "pitch": 60,
              "velocity": 12,
              "position": 5,
              "duration": 0.975
            },
            {
              "pitch": 72,
              "velocity": 10,
              "position": 5.5,
              "duration": 0.475
            },
            {
              "pitch": 67,
              "velocity": 12,
              "position": 5.520833333333333,
              "duration": 0.475
            },
            {
              "pitch": 114,
              "velocity": 60,
              "position": 6,
              "duration": 0.20416666666666666
            },
            {
              "pitch": 48,
              "velocity": 76,
              "position": 6,
              "duration": 0.21458333333333332
            },
            {
              "pitch": 55,
              "velocity": 78,
              "position": 6,
              "duration": 0.225
            },
            {
              "pitch": 98,
              "velocity": 57,
              "position": 6.5,
              "duration": 0.20416666666666666
            },
            {
              "pitch": 48,
              "velocity": 76,
              "position": 6.5,
              "duration": 0.21458333333333332
            },
            {
              "pitch": 55,
              "velocity": 76,
              "position": 6.5,
              "duration": 0.225
            },
            {
              "pitch": 72,
              "velocity": 10,
              "position": 6.5,
              "duration": 0.475
            },
            {
              "pitch": 67,
              "velocity": 12,
              "position": 6.520833333333333,
              "duration": 0.475
            },
            {
              "pitch": 115,
              "velocity": 60,
              "position": 7,
              "duration": 0.20416666666666666
            },
            {
              "pitch": 48,
              "velocity": 76,
              "position": 7,
              "duration": 0.21458333333333332
            },
            {
              "pitch": 55,
              "velocity": 78,
              "position": 7,
              "duration": 0.225
            },
            {
              "pitch": 100,
              "velocity": 57,
              "position": 7.5,
              "duration": 0.20416666666666666
            },
            {
              "pitch": 48,
              "velocity": 76,
              "position": 7.5,
              "duration": 0.21458333333333332
            },
            {
              "pitch": 55,
              "velocity": 76,
              "position": 7.5,
              "duration": 0.225
            },
            {
              "pitch": 72,
              "velocity": 10,
              "position": 7.5,
              "duration": 0.48541666666666666
            },
            {
              "pitch": 67,
              "velocity": 12,
              "position": 7.520833333333333,
              "duration": 0.46458333333333335
            },
            {
              "pitch": 109,
              "velocity": 75,
              "position": 8,
              "duration": 0.20416666666666666
            },
            {
              "pitch": 55,
              "velocity": 79,
              "position": 8,
              "duration": 0.21458333333333332
            },
            {
              "pitch": 48,
              "velocity": 76,
              "position": 8,
              "duration": 0.21458333333333332
            },
            {
              "pitch": 117,
              "velocity": 56,
              "position": 8.5,
              "duration": 0.20416666666666666
            },
            {
              "pitch": 48,
              "velocity": 76,
              "position": 8.5,
              "duration": 0.21458333333333332
            },
            {
              "pitch": 55,
              "velocity": 76,
              "position": 8.5,
              "duration": 0.225
            },
            {
              "pitch": 113,
              "velocity": 72,
              "position": 9,
              "duration": 0.20416666666666666
            },
            {
              "pitch": 48,
              "velocity": 76,
              "position": 9,
              "duration": 0.21458333333333332
            },
            {
              "pitch": 55,
              "velocity": 78,
              "position": 9,
              "duration": 0.225
            },
            {
              "pitch": 72,
              "velocity": 10,
              "position": 8,
              "duration": 1.4854166666666666
            },
            {
              "pitch": 67,
              "velocity": 12,
              "position": 8.5,
              "duration": 1.00625
            },
            {
              "pitch": 100,
              "velocity": 66,
              "position": 9.5,
              "duration": 0.20416666666666666
            },
            {
              "pitch": 48,
              "velocity": 76,
              "position": 9.5,
              "duration": 0.21458333333333332
            },
            {
              "pitch": 55,
              "velocity": 79,
              "position": 9.5,
              "duration": 0.225
            },
            {
              "pitch": 60,
              "velocity": 12,
              "position": 9,
              "duration": 0.975
            },
            {
              "pitch": 72,
              "velocity": 10,
              "position": 9.5,
              "duration": 0.475
            },
            {
              "pitch": 67,
              "velocity": 12,
              "position": 9.520833333333334,
              "duration": 0.475
            },
            {
              "pitch": 114,
              "velocity": 60,
              "position": 10,
              "duration": 0.20416666666666666
            },
            {
              "pitch": 48,
              "velocity": 76,
              "position": 10,
              "duration": 0.21458333333333332
            },
            {
              "pitch": 55,
              "velocity": 78,
              "position": 10,
              "duration": 0.225
            },
            {
              "pitch": 100,
              "velocity": 57,
              "position": 10.5,
              "duration": 0.20416666666666666
            },
            {
              "pitch": 48,
              "velocity": 76,
              "position": 10.5,
              "duration": 0.21458333333333332
            },
            {
              "pitch": 55,
              "velocity": 76,
              "position": 10.5,
              "duration": 0.225
            },
            {
              "pitch": 72,
              "velocity": 10,
              "position": 10.5,
              "duration": 0.475
            },
            {
              "pitch": 67,
              "velocity": 12,
              "position": 10.520833333333334,
              "duration": 0.475
            },
            {
              "pitch": 116,
              "velocity": 60,
              "position": 11,
              "duration": 0.20416666666666666
            },
            {
              "pitch": 48,
              "velocity": 76,
              "position": 11,
              "duration": 0.21458333333333332
            },
            {
              "pitch": 55,
              "velocity": 78,
              "position": 11,
              "duration": 0.475
            },
            {
              "pitch": 102,
              "velocity": 57,
              "position": 11.5,
              "duration": 0.20416666666666666
            },
            {
              "pitch": 48,
              "velocity": 76,
              "position": 11.5,
              "duration": 0.21458333333333332
            },
            {
              "pitch": 55,
              "velocity": 76,
              "position": 11.5,
              "duration": 0.475
            },
            {
              "pitch": 72,
              "velocity": 10,
              "position": 11.5,
              "duration": 0.475
            },
            {
              "pitch": 67,
              "velocity": 12,
              "position": 11.520833333333334,
              "duration": 0.475
            },
            {
              "pitch": 108,
              "velocity": 60,
              "position": 12,
              "duration": 0.20416666666666666
            },
            {
              "pitch": 48,
              "velocity": 76,
              "position": 12,
              "duration": 0.21458333333333332
            },
            {
              "pitch": 55,
              "velocity": 79,
              "position": 12,
              "duration": 0.225
            },
            {
              "pitch": 100,
              "velocity": 57,
              "position": 12.5,
              "duration": 0.20416666666666666
            },
            {
              "pitch": 48,
              "velocity": 76,
              "position": 12.5,
              "duration": 0.21458333333333332
            },
            {
              "pitch": 55,
              "velocity": 76,
              "position": 12.5,
              "duration": 0.225
            },
            {
              "pitch": 117,
              "velocity": 72,
              "position": 13,
              "duration": 0.20416666666666666
            },
            {
              "pitch": 48,
              "velocity": 76,
              "position": 13,
              "duration": 0.21458333333333332
            },
            {
              "pitch": 55,
              "velocity": 78,
              "position": 13,
              "duration": 0.225
            },
            {
              "pitch": 72,
              "velocity": 10,
              "position": 12.5,
              "duration": 0.9854166666666667
            },
            {
              "pitch": 67,
              "velocity": 108,
              "position": 12.520833333333334,
              "duration": 0.9854166666666667
            },
            {
              "pitch": 100,
              "velocity": 66,
              "position": 13.5,
              "duration": 0.20416666666666666
            },
            {
              "pitch": 48,
              "velocity": 76,
              "position": 13.5,
              "duration": 0.21458333333333332
            },
            {
              "pitch": 72,
              "velocity": 10,
              "position": 13.5,
              "duration": 0.475
            },
            {
              "pitch": 55,
              "velocity": 79,
              "position": 13.5,
              "duration": 0.475
            },
            {
              "pitch": 60,
              "velocity": 12,
              "position": 13,
              "duration": 0.975
            },
            {
              "pitch": 67,
              "velocity": 12,
              "position": 13.520833333333334,
              "duration": 0.475
            },
            {
              "pitch": 114,
              "velocity": 60,
              "position": 14,
              "duration": 0.20416666666666666
            },
            {
              "pitch": 48,
              "velocity": 76,
              "position": 14,
              "duration": 0.21458333333333332
            },
            {
              "pitch": 55,
              "velocity": 78,
              "position": 14,
              "duration": 0.225
            },
            {
              "pitch": 98,
              "velocity": 57,
              "position": 14.5,
              "duration": 0.20416666666666666
            },
            {
              "pitch": 48,
              "velocity": 76,
              "position": 14.5,
              "duration": 0.21458333333333332
            },
            {
              "pitch": 55,
              "velocity": 79,
              "position": 14.5,
              "duration": 0.475
            },
            {
              "pitch": 72,
              "velocity": 10,
              "position": 14.5,
              "duration": 0.475
            },
            {
              "pitch": 67,
              "velocity": 12,
              "position": 14.520833333333334,
              "duration": 0.475
            },
            {
              "pitch": 113,
              "velocity": 60,
              "position": 15,
              "duration": 0.20416666666666666
            },
            {
              "pitch": 48,
              "velocity": 76,
              "position": 15,
              "duration": 0.21458333333333332
            },
            {
              "pitch": 55,
              "velocity": 79,
              "position": 15,
              "duration": 0.475
            },
            {
              "pitch": 100,
              "velocity": 57,
              "position": 15.5,
              "duration": 0.20416666666666666
            },
            {
              "pitch": 48,
              "velocity": 76,
              "position": 15.5,
              "duration": 0.21458333333333332
            },
            {
              "pitch": 55,
              "velocity": 79,
              "position": 15.5,
              "duration": 0.475
            },
            {
              "pitch": 72,
              "velocity": 10,
              "position": 15.5,
              "duration": 0.475
            },
            {
              "pitch": 67,
              "velocity": 12,
              "position": 15.520833333333334,
              "duration": 0.46458333333333335
            }
          ]
        },
        "15": {
          "ctab": {
            "srcChannel": 15,
            "name": "Strings",
            "accType": "PHRASE2",
            "editable": true,
            "mutedNotes": [],
            "mutedChords": [],
            "autoStart": false,
            "sourceChordNote": 0,
            "sourceChordType": "Maj7",
            "ctb2Low": null,
            "ctb2Main": {
              "ntr": "ROOT_FIXED",
              "ntt": "CHORD",
              "bassOn": false,
              "chordRootUpperLimit": 0,
              "noteLowLimit": 0,
              "noteHighLimit": 127,
              "rtr": "PITCH_SHIFT"
            },
            "ctb2High": null
          },
          "notes": [
            {
              "pitch": 55,
              "velocity": 39,
              "position": 0,
              "duration": 15.975
            },
            {
              "pitch": 64,
              "velocity": 39,
              "position": 0,
              "duration": 15.975
            },
            {
              "pitch": 59,
              "velocity": 39,
              "position": 0,
              "duration": 15.975
            }
          ]
        }
      }
    },
    "Main_C": {
      "type": "Main_C",
      "sizeInBeats": 16,
      "channels": {
        "1": {
          "ctab": {
            "srcChannel": 1,
            "name": "Bass B",
            "accType": "BASS",
            "editable": false,
            "mutedNotes": [],
            "mutedChords": [
              "1+5",
              "1+8",
              "7(#9)",
              "7(b13)",
              "7(b9)",
              "7(13)",
              "7#11",
              "7(9)",
              "7b5",
              "7sus4",
              "7th",
              "dim7",
              "dim",
              "min7(11)",
              "min7(9)",
              "m7b5",
              "min7",
              "min6",
              "Maj6(9)",
              "Maj7(9)",
              "Maj(9)",
              "Maj7#11",
              "Maj7",
              "Maj6",
              "Maj"
            ],
            "autoStart": false,
            "sourceChordNote": 0,
            "sourceChordType": "Maj7",
            "ctb2Low": null,
            "ctb2Main": {
              "ntr": "ROOT_TRANSPOSITION",
              "ntt": "MELODY",
              "bassOn": true,
              "chordRootUpperLimit": 8,
              "noteLowLimit": 28,
              "noteHighLimit": 127,
              "rtr": "PITCH_SHIFT_TO_ROOT"
            },
            "ctb2High": null
          },
          "notes": [
            {
              "pitch": 24,
              "velocity": 70,
              "position": 0,
              "duration": 0.43333333333333335
            },
            {
              "pitch": 24,
              "velocity": 50,
              "position": 0.5,
              "duration": 0.43333333333333335
            },
            {
              "pitch": 24,
              "velocity": 70,
              "position": 1,
              "duration": 0.43333333333333335
            },
            {
              "pitch": 24,
              "velocity": 50,
              "position": 1.5,
              "duration": 0.43333333333333335
            },
            {
              "pitch": 24,
              "velocity": 70,
              "position": 2,
              "duration": 0.43333333333333335
            },
            {
              "pitch": 24,
              "velocity": 50,
              "position": 2.5,
              "duration": 0.43333333333333335
            },
            {
              "pitch": 24,
              "velocity": 70,
              "position": 3,
              "duration": 0.43333333333333335
            },
            {
              "pitch": 24,
              "velocity": 50,
              "position": 3.5,
              "duration": 0.43333333333333335
            },
            {
              "pitch": 24,
              "velocity": 70,
              "position": 4,
              "duration": 0.43333333333333335
            },
            {
              "pitch": 24,
              "velocity": 50,
              "position": 4.5,
              "duration": 0.43333333333333335
            },
            {
              "pitch": 24,
              "velocity": 70,
              "position": 5,
              "duration": 0.43333333333333335
            },
            {
              "pitch": 24,
              "velocity": 50,
              "position": 5.5,
              "duration": 0.43333333333333335
            },
            {
              "pitch": 24,
              "velocity": 70,
              "position": 6,
              "duration": 0.43333333333333335
            },
            {
              "pitch": 24,
              "velocity": 50,
              "position": 6.5,
              "duration": 0.43333333333333335
            },
            {
              "pitch": 24,
              "velocity": 70,
              "position": 7,
              "duration": 0.43333333333333335
            },
            {
              "pitch": 24,
              "velocity": 50,
              "position": 7.5,
              "duration": 0.43333333333333335
            },
            {
              "pitch": 24,
              "velocity": 70,
              "position": 8,
              "duration": 0.43333333333333335
            },
            {
              "pitch": 24,
              "velocity": 50,
              "position": 8.5,
              "duration": 0.43333333333333335
            },
            {
              "pitch": 24,
              "velocity": 70,
              "position": 9,
              "duration": 0.43333333333333335
            },
            {
              "pitch": 24,
              "velocity": 50,
              "position": 9.5,
              "duration": 0.43333333333333335
            },
            {
              "pitch": 24,
              "velocity": 70,
              "position": 10,
              "duration": 0.43333333333333335
            },
            {
              "pitch": 24,
              "velocity": 50,
              "position": 10.5,
              "duration": 0.43333333333333335
            },
            {
              "pitch": 24,
              "velocity": 70,
              "position": 11,
              "duration": 0.43333333333333335
            },
            {
              "pitch": 24,
              "velocity": 50,
              "position": 11.5,
              "duration": 0.43333333333333335
            },
            {
              "pitch": 24,
              "velocity": 70,
              "position": 12,
              "duration": 0.43333333333333335
            },
            {
              "pitch": 24,
              "velocity": 50,
              "position": 12.5,
              "duration": 0.43333333333333335
            },
            {
              "pitch": 24,
              "velocity": 70,
              "position": 13,
              "duration": 0.43333333333333335
            },
            {
              "pitch": 24,
              "velocity": 50,
              "position": 13.5,
              "duration": 0.43333333333333335
            },
            {
              "pitch": 24,
              "velocity": 70,
              "position": 14,
              "duration": 0.43333333333333335
            },
            {
              "pitch": 24,
              "velocity": 50,
              "position": 14.5,
              "duration": 0.43333333333333335
            },
            {
              "pitch": 24,
              "velocity": 70,
              "position": 15,
              "duration": 0.43333333333333335
            },
            {
              "pitch": 24,
              "velocity": 50,
              "position": 15.5,
              "duration": 0.43333333333333335
            }
          ]
        },
        "8": {
          "ctab": {
            "srcChannel": 8,
            "name": "AddDrum",
            "accType": "SUBRHYTHM",
            "editable": false,
            "mutedNotes": [],
            "mutedChords": [],
            "autoStart": true,
            "sourceChordNote": 0,
            "sourceChordType": "Maj7",
            "ctb2Low": null,
            "ctb2Main": {
              "ntr": "ROOT_FIXED",
              "ntt": "BYPASS",
              "bassOn": false,
              "chordRootUpperLimit": 6,
              "noteLowLimit": 0,
              "noteHighLimit": 127,
              "rtr": "PITCH_SHIFT"
            },
            "ctb2High": null
          },
          "notes": [
            {
              "pitch": 54,
              "velocity": 90,
              "position": 0,
              "duration": 0.058333333333333334
            },
            {
              "pitch": 54,
              "velocity": 50,
              "position": 0.5,
              "duration": 0.058333333333333334
            },
            {
              "pitch": 54,
              "velocity": 90,
              "position": 0.99375,
              "duration": 0.058333333333333334
            },
            {
              "pitch": 54,
              "velocity": 50,
              "position": 1.5,
              "duration": 0.058333333333333334
            },
            {
              "pitch": 54,
              "velocity": 90,
              "position": 2,
              "duration": 0.058333333333333334
            },
            {
              "pitch": 54,
              "velocity": 50,
              "position": 2.5,
              "duration": 0.058333333333333334
            },
            {
              "pitch": 54,
              "velocity": 90,
              "position": 3,
              "duration": 0.058333333333333334
            },
            {
              "pitch": 54,
              "velocity": 50,
              "position": 3.5,
              "duration": 0.058333333333333334
            },
            {
              "pitch": 54,
              "velocity": 90,
              "position": 4,
              "duration": 0.058333333333333334
            },
            {
              "pitch": 54,
              "velocity": 50,
              "position": 4.5,
              "duration": 0.058333333333333334
            },
            {
              "pitch": 54,
              "velocity": 90,
              "position": 5,
              "duration": 0.058333333333333334
            },
            {
              "pitch": 54,
              "velocity": 50,
              "position": 5.5,
              "duration": 0.058333333333333334
            },
            {
              "pitch": 54,
              "velocity": 90,
              "position": 6,
              "duration": 0.058333333333333334
            },
            {
              "pitch": 54,
              "velocity": 50,
              "position": 6.5,
              "duration": 0.058333333333333334
            },
            {
              "pitch": 54,
              "velocity": 90,
              "position": 7,
              "duration": 0.058333333333333334
            },
            {
              "pitch": 54,
              "velocity": 50,
              "position": 7.5,
              "duration": 0.058333333333333334
            },
            {
              "pitch": 54,
              "velocity": 90,
              "position": 8,
              "duration": 0.058333333333333334
            },
            {
              "pitch": 54,
              "velocity": 50,
              "position": 8.5,
              "duration": 0.058333333333333334
            },
            {
              "pitch": 54,
              "velocity": 90,
              "position": 8.99375,
              "duration": 0.058333333333333334
            },
            {
              "pitch": 54,
              "velocity": 50,
              "position": 9.5,
              "duration": 0.058333333333333334
            },
            {
              "pitch": 54,
              "velocity": 90,
              "position": 10,
              "duration": 0.058333333333333334
            },
            {
              "pitch": 54,
              "velocity": 50,
              "position": 10.5,
              "duration": 0.058333333333333334
            },
            {
              "pitch": 54,
              "velocity": 90,
              "position": 11,
              "duration": 0.058333333333333334
            },
            {
              "pitch": 54,
              "velocity": 50,
              "position": 11.5,
              "duration": 0.058333333333333334
            },
            {
              "pitch": 54,
              "velocity": 90,
              "position": 12,
              "duration": 0.058333333333333334
            },
            {
              "pitch": 54,
              "velocity": 50,
              "position": 12.5,
              "duration": 0.058333333333333334
            },
            {
              "pitch": 54,
              "velocity": 90,
              "position": 12.99375,
              "duration": 0.058333333333333334
            },
            {
              "pitch": 54,
              "velocity": 50,
              "position": 13.5,
              "duration": 0.058333333333333334
            },
            {
              "pitch": 54,
              "velocity": 90,
              "position": 13.99375,
              "duration": 0.058333333333333334
            },
            {
              "pitch": 54,
              "velocity": 50,
              "position": 14.5,
              "duration": 0.058333333333333334
            },
            {
              "pitch": 54,
              "velocity": 90,
              "position": 15,
              "duration": 0.058333333333333334
            },
            {
              "pitch": 54,
              "velocity": 50,
              "position": 15.5,
              "duration": 0.058333333333333334
            }
          ]
        },
        "9": {
          "ctab": {
            "srcChannel": 9,
            "name": "MainDrum",
            "accType": "RHYTHM",
            "editable": false,
            "mutedNotes": [],
            "mutedChords": [],
            "autoStart": true,
            "sourceChordNote": 0,
            "sourceChordType": "Maj7",
            "ctb2Low": null,
            "ctb2Main": {
              "ntr": "ROOT_FIXED",
              "ntt": "BYPASS",
              "bassOn": false,
              "chordRootUpperLimit": 6,
              "noteLowLimit": 0,
              "noteHighLimit": 127,
              "rtr": "PITCH_SHIFT"
            },
            "ctb2High": null
          },
          "notes": [
            {
              "pitch": 35,
              "velocity": 102,
              "position": 0,
              "duration": 0.00625
            },
            {
              "pitch": 53,
              "velocity": 106,
              "position": 0,
              "duration": 0.00625
            },
            {
              "pitch": 44,
              "velocity": 95,
              "position": 0,
              "duration": 0.00625
            },
            {
              "pitch": 53,
              "velocity": 57,
              "position": 0.5,
              "duration": 0.00625
            },
            {
              "pitch": 38,
              "velocity": 112,
              "position": 1,
              "duration": 0.00625
            },
            {
              "pitch": 53,
              "velocity": 96,
              "position": 1,
              "duration": 0.00625
            },
            {
              "pitch": 44,
              "velocity": 95,
              "position": 1,
              "duration": 0.00625
            },
            {
              "pitch": 53,
              "velocity": 48,
              "position": 1.5,
              "duration": 0.00625
            },
            {
              "pitch": 35,
              "velocity": 103,
              "position": 2,
              "duration": 0.00625
            },
            {
              "pitch": 53,
              "velocity": 93,
              "position": 2,
              "duration": 0.00625
            },
            {
              "pitch": 44,
              "velocity": 95,
              "position": 2,
              "duration": 0.00625
            },
            {
              "pitch": 35,
              "velocity": 85,
              "position": 2.5,
              "duration": 0.00625
            },
            {
              "pitch": 53,
              "velocity": 62,
              "position": 2.5,
              "duration": 0.00625
            },
            {
              "pitch": 38,
              "velocity": 112,
              "position": 3,
              "duration": 0.00625
            },
            {
              "pitch": 53,
              "velocity": 93,
              "position": 3,
              "duration": 0.00625
            },
            {
              "pitch": 44,
              "velocity": 95,
              "position": 3,
              "duration": 0.00625
            },
            {
              "pitch": 53,
              "velocity": 56,
              "position": 3.5,
              "duration": 0.00625
            },
            {
              "pitch": 35,
              "velocity": 102,
              "position": 4,
              "duration": 0.00625
            },
            {
              "pitch": 53,
              "velocity": 93,
              "position": 4,
              "duration": 0.00625
            },
            {
              "pitch": 44,
              "velocity": 95,
              "position": 4,
              "duration": 0.00625
            },
            {
              "pitch": 53,
              "velocity": 68,
              "position": 4.5,
              "duration": 0.00625
            },
            {
              "pitch": 38,
              "velocity": 112,
              "position": 5,
              "duration": 0.00625
            },
            {
              "pitch": 53,
              "velocity": 108,
              "position": 5,
              "duration": 0.00625
            },
            {
              "pitch": 44,
              "velocity": 95,
              "position": 5,
              "duration": 0.00625
            },
            {
              "pitch": 53,
              "velocity": 57,
              "position": 5.5,
              "duration": 0.00625
            },
            {
              "pitch": 35,
              "velocity": 103,
              "position": 6,
              "duration": 0.00625
            },
            {
              "pitch": 53,
              "velocity": 93,
              "position": 6,
              "duration": 0.00625
            },
            {
              "pitch": 44,
              "velocity": 95,
              "position": 6,
              "duration": 0.00625
            },
            {
              "pitch": 35,
              "velocity": 81,
              "position": 6.5,
              "duration": 0.00625
            },
            {
              "pitch": 53,
              "velocity": 62,
              "position": 6.5,
              "duration": 0.00625
            },
            {
              "pitch": 38,
              "velocity": 112,
              "position": 7,
              "duration": 0.00625
            },
            {
              "pitch": 53,
              "velocity": 91,
              "position": 7,
              "duration": 0.00625
            },
            {
              "pitch": 44,
              "velocity": 95,
              "position": 7,
              "duration": 0.00625
            },
            {
              "pitch": 35,
              "velocity": 62,
              "position": 7.5,
              "duration": 0.00625
            },
            {
              "pitch": 53,
              "velocity": 62,
              "position": 7.5,
              "duration": 0.00625
            },
            {
              "pitch": 35,
              "velocity": 102,
              "position": 8,
              "duration": 0.00625
            },
            {
              "pitch": 53,
              "velocity": 100,
              "position": 8,
              "duration": 0.00625
            },
            {
              "pitch": 44,
              "velocity": 95,
              "position": 8,
              "duration": 0.00625
            },
            {
              "pitch": 53,
              "velocity": 54,
              "position": 8.5,
              "duration": 0.00625
            },
            {
              "pitch": 38,
              "velocity": 112,
              "position": 9,
              "duration": 0.00625
            },
            {
              "pitch": 53,
              "velocity": 96,
              "position": 9,
              "duration": 0.00625
            },
            {
              "pitch": 44,
              "velocity": 95,
              "position": 9,
              "duration": 0.00625
            },
            {
              "pitch": 53,
              "velocity": 71,
              "position": 9.5,
              "duration": 0.00625
            },
            {
              "pitch": 35,
              "velocity": 103,
              "position": 10,
              "duration": 0.00625
            },
            {
              "pitch": 53,
              "velocity": 93,
              "position": 10,
              "duration": 0.00625
            },
            {
              "pitch": 44,
              "velocity": 95,
              "position": 10,
              "duration": 0.00625
            },
            {
              "pitch": 35,
              "velocity": 85,
              "position": 10.5,
              "duration": 0.00625
            },
            {
              "pitch": 53,
              "velocity": 78,
              "position": 10.5,
              "duration": 0.00625
            },
            {
              "pitch": 38,
              "velocity": 112,
              "position": 11,
              "duration": 0.00625
            },
            {
              "pitch": 53,
              "velocity": 96,
              "position": 11,
              "duration": 0.00625
            },
            {
              "pitch": 44,
              "velocity": 95,
              "position": 11,
              "duration": 0.00625
            },
            {
              "pitch": 53,
              "velocity": 62,
              "position": 11.5,
              "duration": 0.00625
            },
            {
              "pitch": 35,
              "velocity": 102,
              "position": 12,
              "duration": 0.00625
            },
            {
              "pitch": 53,
              "velocity": 100,
              "position": 12,
              "duration": 0.00625
            },
            {
              "pitch": 44,
              "velocity": 95,
              "position": 12,
              "duration": 0.00625
            },
            {
              "pitch": 53,
              "velocity": 62,
              "position": 12.5,
              "duration": 0.00625
            },
            {
              "pitch": 38,
              "velocity": 112,
              "position": 13,
              "duration": 0.00625
            },
            {
              "pitch": 53,
              "velocity": 93,
              "position": 13,
              "duration": 0.00625
            },
            {
              "pitch": 44,
              "velocity": 95,
              "position": 13,
              "duration": 0.00625
            },
            {
              "pitch": 53,
              "velocity": 62,
              "position": 13.5,
              "duration": 0.00625
            },
            {
              "pitch": 35,
              "velocity": 103,
              "position": 14,
              "duration": 0.00625
            },
            {
              "pitch": 53,
              "velocity": 93,
              "position": 14,
              "duration": 0.00625
            },
            {
              "pitch": 44,
              "velocity": 95,
              "position": 14,
              "duration": 0.00625
            },
            {
              "pitch": 35,
              "velocity": 81,
              "position": 14.5,
              "duration": 0.00625
            },
            {
              "pitch": 53,
              "velocity": 62,
              "position": 14.5,
              "duration": 0.00625
            },
            {
              "pitch": 38,
              "velocity": 112,
              "position": 15,
              "duration": 0.00625
            },
            {
              "pitch": 53,
              "velocity": 92,
              "position": 15,
              "duration": 0.00625
            },
            {
              "pitch": 44,
              "velocity": 95,
              "position": 15,
              "duration": 0.00625
            },
            {
              "pitch": 35,
              "velocity": 62,
              "position": 15.5,
              "duration": 0.00625
            },
            {
              "pitch": 53,
              "velocity": 62,
              "position": 15.5,
              "duration": 0.00625
            }
          ]
        },
        "10": {
          "ctab": {
            "srcChannel": 10,
            "name": "Bass A",
            "accType": "BASS",
            "editable": false,
            "mutedNotes": [],
            "mutedChords": [
              "1+2+5",
              "sus4",
              "7aug",
              "Maj7aug",
              "minMaj7(9)",
              "minMaj7",
              "min(9)",
              "min",
              "aug"
            ],
            "autoStart": false,
            "sourceChordNote": 0,
            "sourceChordType": "Maj7",
            "ctb2Low": null,
            "ctb2Main": {
              "ntr": "ROOT_TRANSPOSITION",
              "ntt": "MELODY",
              "bassOn": true,
              "chordRootUpperLimit": 8,
              "noteLowLimit": 28,
              "noteHighLimit": 127,
              "rtr": "PITCH_SHIFT_TO_ROOT"
            },
            "ctb2High": null
          },
          "notes": [
            {
              "pitch": 24,
              "velocity": 70,
              "position": 0,
              "duration": 0.43333333333333335
            },
            {
              "pitch": 24,
              "velocity": 50,
              "position": 0.5,
              "duration": 0.43333333333333335
            },
            {
              "pitch": 24,
              "velocity": 70,
              "position": 1,
              "duration": 0.43333333333333335
            },
            {
              "pitch": 24,
              "velocity": 50,
              "position": 1.5,
              "duration": 0.43333333333333335
            },
            {
              "pitch": 24,
              "velocity": 70,
              "position": 2,
              "duration": 0.43333333333333335
            },
            {
              "pitch": 24,
              "velocity": 50,
              "position": 2.5,
              "duration": 0.43333333333333335
            },
            {
              "pitch": 24,
              "velocity": 70,
              "position": 3,
              "duration": 0.43333333333333335
            },
            {
              "pitch": 24,
              "velocity": 50,
              "position": 3.5,
              "duration": 0.43333333333333335
            },
            {
              "pitch": 24,
              "velocity": 70,
              "position": 4,
              "duration": 0.43333333333333335
            },
            {
              "pitch": 24,
              "velocity": 50,
              "position": 4.5,
              "duration": 0.43333333333333335
            },
            {
              "pitch": 24,
              "velocity": 70,
              "position": 5,
              "duration": 0.43333333333333335
            },
            {
              "pitch": 24,
              "velocity": 50,
              "position": 5.5,
              "duration": 0.43333333333333335
            },
            {
              "pitch": 24,
              "velocity": 70,
              "position": 6,
              "duration": 0.43333333333333335
            },
            {
              "pitch": 24,
              "velocity": 50,
              "position": 6.5,
              "duration": 0.43333333333333335
            },
            {
              "pitch": 24,
              "velocity": 70,
              "position": 7,
              "duration": 0.43333333333333335
            },
            {
              "pitch": 24,
              "velocity": 50,
              "position": 7.5,
              "duration": 0.43333333333333335
            },
            {
              "pitch": 24,
              "velocity": 70,
              "position": 8,
              "duration": 0.43333333333333335
            },
            {
              "pitch": 24,
              "velocity": 50,
              "position": 8.5,
              "duration": 0.43333333333333335
            },
            {
              "pitch": 24,
              "velocity": 70,
              "position": 9,
              "duration": 0.43333333333333335
            },
            {
              "pitch": 24,
              "velocity": 50,
              "position": 9.5,
              "duration": 0.43333333333333335
            },
            {
              "pitch": 24,
              "velocity": 70,
              "position": 10,
              "duration": 0.43333333333333335
            },
            {
              "pitch": 24,
              "velocity": 50,
              "position": 10.5,
              "duration": 0.43333333333333335
            },
            {
              "pitch": 24,
              "velocity": 70,
              "position": 11,
              "duration": 0.43333333333333335
            },
            {
              "pitch": 24,
              "velocity": 50,
              "position": 11.5,
              "duration": 0.43333333333333335
            },
            {
              "pitch": 24,
              "velocity": 70,
              "position": 12,
              "duration": 0.43333333333333335
            },
            {
              "pitch": 24,
              "velocity": 50,
              "position": 12.5,
              "duration": 0.43333333333333335
            },
            {
              "pitch": 24,
              "velocity": 70,
              "position": 13,
              "duration": 0.43333333333333335
            },
            {
              "pitch": 24,
              "velocity": 50,
              "position": 13.5,
              "duration": 0.43333333333333335
            },
            {
              "pitch": 24,
              "velocity": 70,
              "position": 14,
              "duration": 0.43333333333333335
            },
            {
              "pitch": 24,
              "velocity": 50,
              "position": 14.5,
              "duration": 0.43333333333333335
            },
            {
              "pitch": 24,
              "velocity": 70,
              "position": 15,
              "duration": 0.43333333333333335
            },
            {
              "pitch": 24,
              "velocity": 50,
              "position": 15.5,
              "duration": 0.43333333333333335
            }
          ]
        },
        "11": {
          "ctab": {
            "srcChannel": 11,
            "name": "SteelGtr",
            "accType": "CHORD1",
            "editable": false,
            "mutedNotes": [],
            "mutedChords": [],
            "autoStart": false,
            "sourceChordNote": 0,
            "sourceChordType": "Maj7",
            "ctb2Low": null,
            "ctb2Main": {
              "ntr": "ROOT_TRANSPOSITION",
              "ntt": "MELODY",
              "bassOn": true,
              "chordRootUpperLimit": 3,
              "noteLowLimit": 0,
              "noteHighLimit": 127,
              "rtr": "PITCH_SHIFT"
            },
            "ctb2High": null
          },
          "notes": [
            {
              "pitch": 67,
              "velocity": 36,
              "position": 0.020833333333333332,
              "duration": 0.9645833333333333
            },
            {
              "pitch": 71,
              "velocity": 36,
              "position": 0.020833333333333332,
              "duration": 0.9645833333333333
            },
            {
              "pitch": 64,
              "velocity": 42,
              "position": 0.010416666666666666,
              "duration": 0.9854166666666667
            },
            {
              "pitch": 60,
              "velocity": 42,
              "position": 0.0020833333333333333,
              "duration": 1.00625
            },
            {
              "pitch": 55,
              "velocity": 36,
              "position": 0.010416666666666666,
              "duration": 1.00625
            },
            {
              "pitch": 59,
              "velocity": 36,
              "position": 0.010416666666666666,
              "duration": 1.00625
            },
            {
              "pitch": 48,
              "velocity": 35,
              "position": 0.0020833333333333333,
              "duration": 1.0166666666666666
            },
            {
              "pitch": 67,
              "velocity": 42,
              "position": 1,
              "duration": 1.4854166666666666
            },
            {
              "pitch": 71,
              "velocity": 42,
              "position": 1,
              "duration": 1.4854166666666666
            },
            {
              "pitch": 64,
              "velocity": 45,
              "position": 1.0104166666666667,
              "duration": 1.4854166666666666
            },
            {
              "pitch": 60,
              "velocity": 45,
              "position": 1.0208333333333333,
              "duration": 1.4854166666666666
            },
            {
              "pitch": 55,
              "velocity": 47,
              "position": 1.03125,
              "duration": 1.475
            },
            {
              "pitch": 59,
              "velocity": 47,
              "position": 1.03125,
              "duration": 1.475
            },
            {
              "pitch": 48,
              "velocity": 42,
              "position": 1.03125,
              "duration": 1.475
            },
            {
              "pitch": 48,
              "velocity": 28,
              "position": 2.5208333333333335,
              "duration": 0.46458333333333335
            },
            {
              "pitch": 60,
              "velocity": 38,
              "position": 2.5208333333333335,
              "duration": 0.46458333333333335
            },
            {
              "pitch": 64,
              "velocity": 42,
              "position": 2.5104166666666665,
              "duration": 0.48541666666666666
            },
            {
              "pitch": 55,
              "velocity": 35,
              "position": 2.5208333333333335,
              "duration": 0.475
            },
            {
              "pitch": 59,
              "velocity": 35,
              "position": 2.5208333333333335,
              "duration": 0.475
            },
            {
              "pitch": 67,
              "velocity": 32,
              "position": 2.5,
              "duration": 0.50625
            },
            {
              "pitch": 71,
              "velocity": 32,
              "position": 2.5,
              "duration": 0.50625
            },
            {
              "pitch": 67,
              "velocity": 46,
              "position": 3.0208333333333335,
              "duration": 0.46458333333333335
            },
            {
              "pitch": 71,
              "velocity": 46,
              "position": 3.0208333333333335,
              "duration": 0.46458333333333335
            },
            {
              "pitch": 64,
              "velocity": 44,
              "position": 3.0104166666666665,
              "duration": 0.48541666666666666
            },
            {
              "pitch": 55,
              "velocity": 34,
              "position": 3.0104166666666665,
              "duration": 0.49583333333333335
            },
            {
              "pitch": 59,
              "velocity": 34,
              "position": 3.0104166666666665,
              "duration": 0.49583333333333335
            },
            {
              "pitch": 48,
              "velocity": 36,
              "position": 3,
              "duration": 0.50625
            },
            {
              "pitch": 60,
              "velocity": 44,
              "position": 3,
              "duration": 0.50625
            },
            {
              "pitch": 48,
              "velocity": 32,
              "position": 3.5208333333333335,
              "duration": 0.46458333333333335
            },
            {
              "pitch": 55,
              "velocity": 28,
              "position": 3.5208333333333335,
              "duration": 0.475
            },
            {
              "pitch": 59,
              "velocity": 28,
              "position": 3.5208333333333335,
              "duration": 0.475
            },
            {
              "pitch": 67,
              "velocity": 30,
              "position": 3.5,
              "duration": 0.50625
            },
            {
              "pitch": 71,
              "velocity": 30,
              "position": 3.5,
              "duration": 0.50625
            },
            {
              "pitch": 60,
              "velocity": 30,
              "position": 3.5208333333333335,
              "duration": 0.48541666666666666
            },
            {
              "pitch": 64,
              "velocity": 32,
              "position": 3.5104166666666665,
              "duration": 0.49583333333333335
            },
            {
              "pitch": 67,
              "velocity": 42,
              "position": 4.020833333333333,
              "duration": 0.46458333333333335
            },
            {
              "pitch": 71,
              "velocity": 42,
              "position": 4.020833333333333,
              "duration": 0.46458333333333335
            },
            {
              "pitch": 64,
              "velocity": 42,
              "position": 4.020833333333333,
              "duration": 0.475
            },
            {
              "pitch": 60,
              "velocity": 42,
              "position": 4.020833333333333,
              "duration": 0.48541666666666666
            },
            {
              "pitch": 48,
              "velocity": 37,
              "position": 4,
              "duration": 0.50625
            },
            {
              "pitch": 55,
              "velocity": 34,
              "position": 4.010416666666667,
              "duration": 0.49583333333333335
            },
            {
              "pitch": 59,
              "velocity": 34,
              "position": 4.010416666666667,
              "duration": 0.49583333333333335
            },
            {
              "pitch": 48,
              "velocity": 28,
              "position": 4.520833333333333,
              "duration": 0.46458333333333335
            },
            {
              "pitch": 60,
              "velocity": 28,
              "position": 4.520833333333333,
              "duration": 0.46458333333333335
            },
            {
              "pitch": 64,
              "velocity": 28,
              "position": 4.510416666666667,
              "duration": 0.48541666666666666
            },
            {
              "pitch": 55,
              "velocity": 25,
              "position": 4.520833333333333,
              "duration": 0.475
            },
            {
              "pitch": 59,
              "velocity": 25,
              "position": 4.520833333333333,
              "duration": 0.475
            },
            {
              "pitch": 67,
              "velocity": 22,
              "position": 4.5,
              "duration": 0.50625
            },
            {
              "pitch": 71,
              "velocity": 22,
              "position": 4.5,
              "duration": 0.50625
            },
            {
              "pitch": 67,
              "velocity": 36,
              "position": 5.020833333333333,
              "duration": 0.46458333333333335
            },
            {
              "pitch": 71,
              "velocity": 36,
              "position": 5.020833333333333,
              "duration": 0.46458333333333335
            },
            {
              "pitch": 64,
              "velocity": 42,
              "position": 5.010416666666667,
              "duration": 0.48541666666666666
            },
            {
              "pitch": 55,
              "velocity": 36,
              "position": 5.010416666666667,
              "duration": 0.49583333333333335
            },
            {
              "pitch": 59,
              "velocity": 36,
              "position": 5.010416666666667,
              "duration": 0.49583333333333335
            },
            {
              "pitch": 48,
              "velocity": 35,
              "position": 5,
              "duration": 0.50625
            },
            {
              "pitch": 60,
              "velocity": 42,
              "position": 5,
              "duration": 0.50625
            },
            {
              "pitch": 67,
              "velocity": 46,
              "position": 5.5,
              "duration": 0.9854166666666667
            },
            {
              "pitch": 71,
              "velocity": 46,
              "position": 5.5,
              "duration": 0.9854166666666667
            },
            {
              "pitch": 64,
              "velocity": 47,
              "position": 5.510416666666667,
              "duration": 0.9854166666666667
            },
            {
              "pitch": 48,
              "velocity": 42,
              "position": 5.520833333333333,
              "duration": 0.9854166666666667
            },
            {
              "pitch": 60,
              "velocity": 45,
              "position": 5.520833333333333,
              "duration": 0.9854166666666667
            },
            {
              "pitch": 55,
              "velocity": 45,
              "position": 5.520833333333333,
              "duration": 0.9854166666666667
            },
            {
              "pitch": 59,
              "velocity": 45,
              "position": 5.520833333333333,
              "duration": 0.9854166666666667
            },
            {
              "pitch": 48,
              "velocity": 28,
              "position": 6.520833333333333,
              "duration": 0.46458333333333335
            },
            {
              "pitch": 60,
              "velocity": 38,
              "position": 6.520833333333333,
              "duration": 0.46458333333333335
            },
            {
              "pitch": 64,
              "velocity": 42,
              "position": 6.510416666666667,
              "duration": 0.48541666666666666
            },
            {
              "pitch": 55,
              "velocity": 35,
              "position": 6.520833333333333,
              "duration": 0.475
            },
            {
              "pitch": 59,
              "velocity": 35,
              "position": 6.520833333333333,
              "duration": 0.475
            },
            {
              "pitch": 67,
              "velocity": 38,
              "position": 6.5,
              "duration": 0.50625
            },
            {
              "pitch": 71,
              "velocity": 38,
              "position": 6.5,
              "duration": 0.50625
            },
            {
              "pitch": 67,
              "velocity": 46,
              "position": 7.020833333333333,
              "duration": 0.46458333333333335
            },
            {
              "pitch": 71,
              "velocity": 46,
              "position": 7.020833333333333,
              "duration": 0.46458333333333335
            },
            {
              "pitch": 64,
              "velocity": 44,
              "position": 7.010416666666667,
              "duration": 0.48541666666666666
            },
            {
              "pitch": 55,
              "velocity": 34,
              "position": 7.010416666666667,
              "duration": 0.49583333333333335
            },
            {
              "pitch": 59,
              "velocity": 34,
              "position": 7.010416666666667,
              "duration": 0.49583333333333335
            },
            {
              "pitch": 48,
              "velocity": 36,
              "position": 7,
              "duration": 0.50625
            },
            {
              "pitch": 60,
              "velocity": 44,
              "position": 7,
              "duration": 0.50625
            },
            {
              "pitch": 48,
              "velocity": 32,
              "position": 7.520833333333333,
              "duration": 0.46458333333333335
            },
            {
              "pitch": 60,
              "velocity": 30,
              "position": 7.520833333333333,
              "duration": 0.46458333333333335
            },
            {
              "pitch": 64,
              "velocity": 32,
              "position": 7.510416666666667,
              "duration": 0.48541666666666666
            },
            {
              "pitch": 55,
              "velocity": 28,
              "position": 7.520833333333333,
              "duration": 0.475
            },
            {
              "pitch": 59,
              "velocity": 28,
              "position": 7.520833333333333,
              "duration": 0.475
            },
            {
              "pitch": 67,
              "velocity": 30,
              "position": 7.5,
              "duration": 0.50625
            },
            {
              "pitch": 71,
              "velocity": 30,
              "position": 7.5,
              "duration": 0.50625
            },
            {
              "pitch": 67,
              "velocity": 36,
              "position": 8.020833333333334,
              "duration": 0.9645833333333333
            },
            {
              "pitch": 71,
              "velocity": 36,
              "position": 8.020833333333334,
              "duration": 0.9645833333333333
            },
            {
              "pitch": 64,
              "velocity": 42,
              "position": 8.010416666666666,
              "duration": 0.9854166666666667
            },
            {
              "pitch": 60,
              "velocity": 42,
              "position": 8,
              "duration": 1.00625
            },
            {
              "pitch": 48,
              "velocity": 35,
              "position": 8,
              "duration": 1.0166666666666666
            },
            {
              "pitch": 55,
              "velocity": 36,
              "position": 8.010416666666666,
              "duration": 1.00625
            },
            {
              "pitch": 59,
              "velocity": 36,
              "position": 8.010416666666666,
              "duration": 1.00625
            },
            {
              "pitch": 67,
              "velocity": 42,
              "position": 9,
              "duration": 1.4854166666666666
            },
            {
              "pitch": 71,
              "velocity": 42,
              "position": 9,
              "duration": 1.4854166666666666
            },
            {
              "pitch": 64,
              "velocity": 45,
              "position": 9.010416666666666,
              "duration": 1.4854166666666666
            },
            {
              "pitch": 60,
              "velocity": 45,
              "position": 9.020833333333334,
              "duration": 1.4854166666666666
            },
            {
              "pitch": 55,
              "velocity": 47,
              "position": 9.03125,
              "duration": 1.475
            },
            {
              "pitch": 59,
              "velocity": 47,
              "position": 9.03125,
              "duration": 1.475
            },
            {
              "pitch": 48,
              "velocity": 42,
              "position": 9.03125,
              "duration": 1.475
            },
            {
              "pitch": 48,
              "velocity": 28,
              "position": 10.520833333333334,
              "duration": 0.46458333333333335
            },
            {
              "pitch": 60,
              "velocity": 38,
              "position": 10.520833333333334,
              "duration": 0.46458333333333335
            },
            {
              "pitch": 64,
              "velocity": 42,
              "position": 10.510416666666666,
              "duration": 0.48541666666666666
            },
            {
              "pitch": 55,
              "velocity": 35,
              "position": 10.520833333333334,
              "duration": 0.475
            },
            {
              "pitch": 59,
              "velocity": 35,
              "position": 10.520833333333334,
              "duration": 0.475
            },
            {
              "pitch": 67,
              "velocity": 32,
              "position": 10.5,
              "duration": 0.50625
            },
            {
              "pitch": 71,
              "velocity": 32,
              "position": 10.5,
              "duration": 0.50625
            },
            {
              "pitch": 67,
              "velocity": 46,
              "position": 11.020833333333334,
              "duration": 0.46458333333333335
            },
            {
              "pitch": 71,
              "velocity": 46,
              "position": 11.020833333333334,
              "duration": 0.46458333333333335
            },
            {
              "pitch": 64,
              "velocity": 44,
              "position": 11.010416666666666,
              "duration": 0.48541666666666666
            },
            {
              "pitch": 55,
              "velocity": 34,
              "position": 11.010416666666666,
              "duration": 0.49583333333333335
            },
            {
              "pitch": 59,
              "velocity": 34,
              "position": 11.010416666666666,
              "duration": 0.49583333333333335
            },
            {
              "pitch": 48,
              "velocity": 36,
              "position": 11,
              "duration": 0.50625
            },
            {
              "pitch": 60,
              "velocity": 44,
              "position": 11,
              "duration": 0.50625
            },
            {
              "pitch": 48,
              "velocity": 32,
              "position": 11.520833333333334,
              "duration": 0.46458333333333335
            },
            {
              "pitch": 55,
              "velocity": 28,
              "position": 11.520833333333334,
              "duration": 0.475
            },
            {
              "pitch": 59,
              "velocity": 28,
              "position": 11.520833333333334,
              "duration": 0.475
            },
            {
              "pitch": 67,
              "velocity": 30,
              "position": 11.5,
              "duration": 0.50625
            },
            {
              "pitch": 71,
              "velocity": 30,
              "position": 11.5,
              "duration": 0.50625
            },
            {
              "pitch": 60,
              "velocity": 30,
              "position": 11.520833333333334,
              "duration": 0.48541666666666666
            },
            {
              "pitch": 64,
              "velocity": 32,
              "position": 11.510416666666666,
              "duration": 0.49583333333333335
            },
            {
              "pitch": 67,
              "velocity": 42,
              "position": 12.020833333333334,
              "duration": 0.46458333333333335
            },
            {
              "pitch": 71,
              "velocity": 42,
              "position": 12.020833333333334,
              "duration": 0.46458333333333335
            },
            {
              "pitch": 64,
              "velocity": 42,
              "position": 12.020833333333334,
              "duration": 0.475
            },
            {
              "pitch": 60,
              "velocity": 42,
              "position": 12.020833333333334,
              "duration": 0.48541666666666666
            },
            {
              "pitch": 48,
              "velocity": 37,
              "position": 12,
              "duration": 0.50625
            },
            {
              "pitch": 55,
              "velocity": 34,
              "position": 12.010416666666666,
              "duration": 0.49583333333333335
            },
            {
              "pitch": 59,
              "velocity": 34,
              "position": 12.010416666666666,
              "duration": 0.49583333333333335
            },
            {
              "pitch": 48,
              "velocity": 28,
              "position": 12.520833333333334,
              "duration": 0.46458333333333335
            },
            {
              "pitch": 60,
              "velocity": 28,
              "position": 12.520833333333334,
              "duration": 0.46458333333333335
            },
            {
              "pitch": 64,
              "velocity": 28,
              "position": 12.510416666666666,
              "duration": 0.48541666666666666
            },
            {
              "pitch": 55,
              "velocity": 25,
              "position": 12.520833333333334,
              "duration": 0.475
            },
            {
              "pitch": 59,
              "velocity": 25,
              "position": 12.520833333333334,
              "duration": 0.475
            },
            {
              "pitch": 67,
              "velocity": 22,
              "position": 12.5,
              "duration": 0.50625
            },
            {
              "pitch": 71,
              "velocity": 22,
              "position": 12.5,
              "duration": 0.50625
            },
            {
              "pitch": 67,
              "velocity": 36,
              "position": 13.020833333333334,
              "duration": 0.46458333333333335
            },
            {
              "pitch": 71,
              "velocity": 36,
              "position": 13.020833333333334,
              "duration": 0.46458333333333335
            },
            {
              "pitch": 64,
              "velocity": 42,
              "position": 13.010416666666666,
              "duration": 0.48541666666666666
            },
            {
              "pitch": 55,
              "velocity": 36,
              "position": 13.010416666666666,
              "duration": 0.49583333333333335
            },
            {
              "pitch": 59,
              "velocity": 36,
              "position": 13.010416666666666,
              "duration": 0.49583333333333335
            },
            {
              "pitch": 48,
              "velocity": 35,
              "position": 13,
              "duration": 0.50625
            },
            {
              "pitch": 60,
              "velocity": 42,
              "position": 13,
              "duration": 0.50625
            },
            {
              "pitch": 67,
              "velocity": 46,
              "position": 13.5,
              "duration": 0.9854166666666667
            },
            {
              "pitch": 71,
              "velocity": 46,
              "position": 13.5,
              "duration": 0.9854166666666667
            },
            {
              "pitch": 64,
              "velocity": 47,
              "position": 13.510416666666666,
              "duration": 0.9854166666666667
            },
            {
              "pitch": 48,
              "velocity": 42,
              "position": 13.520833333333334,
              "duration": 0.9854166666666667
            },
            {
              "pitch": 60,
              "velocity": 45,
              "position": 13.520833333333334,
              "duration": 0.9854166666666667
            },
            {
              "pitch": 55,
              "velocity": 45,
              "position": 13.520833333333334,
              "duration": 0.9854166666666667
            },
            {
              "pitch": 59,
              "velocity": 45,
              "position": 13.520833333333334,
              "duration": 0.9854166666666667
            },
            {
              "pitch": 48,
              "velocity": 28,
              "position": 14.520833333333334,
              "duration": 0.46458333333333335
            },
            {
              "pitch": 60,
              "velocity": 38,
              "position": 14.520833333333334,
              "duration": 0.46458333333333335
            },
            {
              "pitch": 64,
              "velocity": 42,
              "position": 14.510416666666666,
              "duration": 0.48541666666666666
            },
            {
              "pitch": 55,
              "velocity": 35,
              "position": 14.520833333333334,
              "duration": 0.475
            },
            {
              "pitch": 59,
              "velocity": 35,
              "position": 14.520833333333334,
              "duration": 0.475
            },
            {
              "pitch": 67,
              "velocity": 38,
              "position": 14.5,
              "duration": 0.50625
            },
            {
              "pitch": 71,
              "velocity": 38,
              "position": 14.5,
              "duration": 0.50625
            },
            {
              "pitch": 67,
              "velocity": 46,
              "position": 15.020833333333334,
              "duration": 0.46458333333333335
            },
            {
              "pitch": 71,
              "velocity": 46,
              "position": 15.020833333333334,
              "duration": 0.46458333333333335
            },
            {
              "pitch": 64,
              "velocity": 44,
              "position": 15.010416666666666,
              "duration": 0.48541666666666666
            },
            {
              "pitch": 55,
              "velocity": 34,
              "position": 15.010416666666666,
              "duration": 0.49583333333333335
            },
            {
              "pitch": 59,
              "velocity": 34,
              "position": 15.010416666666666,
              "duration": 0.49583333333333335
            },
            {
              "pitch": 48,
              "velocity": 36,
              "position": 15,
              "duration": 0.50625
            },
            {
              "pitch": 60,
              "velocity": 44,
              "position": 15,
              "duration": 0.50625
            },
            {
              "pitch": 67,
              "velocity": 30,
              "position": 15.5,
              "duration": 0.475
            },
            {
              "pitch": 71,
              "velocity": 30,
              "position": 15.5,
              "duration": 0.475
            },
            {
              "pitch": 55,
              "velocity": 28,
              "position": 15.520833333333334,
              "duration": 0.46458333333333335
            },
            {
              "pitch": 59,
              "velocity": 28,
              "position": 15.520833333333334,
              "duration": 0.46458333333333335
            },
            {
              "pitch": 48,
              "velocity": 32,
              "position": 15.520833333333334,
              "duration": 0.46458333333333335
            },
            {
              "pitch": 64,
              "velocity": 32,
              "position": 15.510416666666666,
              "duration": 0.475
            },
            {
              "pitch": 60,
              "velocity": 30,
              "position": 15.520833333333334,
              "duration": 0.46458333333333335
            }
          ]
        },
        "12": {
          "ctab": {
            "srcChannel": 12,
            "name": "HistrGtr",
            "accType": "CHORD2",
            "editable": false,
            "mutedNotes": [],
            "mutedChords": [],
            "autoStart": false,
            "sourceChordNote": 0,
            "sourceChordType": "Maj7",
            "ctb2Low": null,
            "ctb2Main": {
              "ntr": "ROOT_TRANSPOSITION",
              "ntt": "MELODY",
              "bassOn": true,
              "chordRootUpperLimit": 6,
              "noteLowLimit": 0,
              "noteHighLimit": 127,
              "rtr": "PITCH_SHIFT"
            },
            "ctb2High": null
          },
          "notes": [
            {
              "pitch": 67,
              "velocity": 49,
              "position": 0.020833333333333332,
              "duration": 0.46458333333333335
            },
            {
              "pitch": 71,
              "velocity": 49,
              "position": 0.020833333333333332,
              "duration": 0.46458333333333335
            },
            {
              "pitch": 64,
              "velocity": 61,
              "position": 0.020833333333333332,
              "duration": 0.475
            },
            {
              "pitch": 60,
              "velocity": 61,
              "position": 0.020833333333333332,
              "duration": 0.48541666666666666
            },
            {
              "pitch": 55,
              "velocity": 50,
              "position": 0.010416666666666666,
              "duration": 0.49583333333333335
            },
            {
              "pitch": 59,
              "velocity": 50,
              "position": 0.010416666666666666,
              "duration": 0.49583333333333335
            },
            {
              "pitch": 48,
              "velocity": 56,
              "position": 0.010416666666666666,
              "duration": 0.49583333333333335
            },
            {
              "pitch": 48,
              "velocity": 35,
              "position": 0.5208333333333334,
              "duration": 0.46458333333333335
            },
            {
              "pitch": 55,
              "velocity": 40,
              "position": 0.5208333333333334,
              "duration": 0.475
            },
            {
              "pitch": 59,
              "velocity": 40,
              "position": 0.5208333333333334,
              "duration": 0.475
            },
            {
              "pitch": 67,
              "velocity": 37,
              "position": 0.5,
              "duration": 0.50625
            },
            {
              "pitch": 71,
              "velocity": 37,
              "position": 0.5,
              "duration": 0.50625
            },
            {
              "pitch": 60,
              "velocity": 37,
              "position": 0.5208333333333334,
              "duration": 0.48541666666666666
            },
            {
              "pitch": 64,
              "velocity": 34,
              "position": 0.5104166666666666,
              "duration": 0.49583333333333335
            },
            {
              "pitch": 67,
              "velocity": 61,
              "position": 1.0208333333333333,
              "duration": 0.46458333333333335
            },
            {
              "pitch": 71,
              "velocity": 61,
              "position": 1.0208333333333333,
              "duration": 0.46458333333333335
            },
            {
              "pitch": 64,
              "velocity": 70,
              "position": 1.0208333333333333,
              "duration": 0.475
            },
            {
              "pitch": 60,
              "velocity": 68,
              "position": 1.0208333333333333,
              "duration": 0.48541666666666666
            },
            {
              "pitch": 48,
              "velocity": 38,
              "position": 1,
              "duration": 0.50625
            },
            {
              "pitch": 55,
              "velocity": 55,
              "position": 1.0104166666666667,
              "duration": 0.49583333333333335
            },
            {
              "pitch": 59,
              "velocity": 55,
              "position": 1.0104166666666667,
              "duration": 0.49583333333333335
            },
            {
              "pitch": 48,
              "velocity": 41,
              "position": 1.5208333333333333,
              "duration": 0.46458333333333335
            },
            {
              "pitch": 55,
              "velocity": 32,
              "position": 1.5208333333333333,
              "duration": 0.475
            },
            {
              "pitch": 59,
              "velocity": 32,
              "position": 1.5208333333333333,
              "duration": 0.475
            },
            {
              "pitch": 67,
              "velocity": 44,
              "position": 1.5,
              "duration": 0.50625
            },
            {
              "pitch": 71,
              "velocity": 44,
              "position": 1.5,
              "duration": 0.50625
            },
            {
              "pitch": 60,
              "velocity": 45,
              "position": 1.5208333333333333,
              "duration": 0.48541666666666666
            },
            {
              "pitch": 64,
              "velocity": 50,
              "position": 1.5104166666666667,
              "duration": 0.49583333333333335
            },
            {
              "pitch": 67,
              "velocity": 34,
              "position": 2.0208333333333335,
              "duration": 0.46458333333333335
            },
            {
              "pitch": 71,
              "velocity": 34,
              "position": 2.0208333333333335,
              "duration": 0.46458333333333335
            },
            {
              "pitch": 64,
              "velocity": 37,
              "position": 2.0208333333333335,
              "duration": 0.475
            },
            {
              "pitch": 60,
              "velocity": 35,
              "position": 2.0208333333333335,
              "duration": 0.48541666666666666
            },
            {
              "pitch": 48,
              "velocity": 28,
              "position": 2,
              "duration": 0.50625
            },
            {
              "pitch": 55,
              "velocity": 28,
              "position": 2.0104166666666665,
              "duration": 0.49583333333333335
            },
            {
              "pitch": 59,
              "velocity": 28,
              "position": 2.0104166666666665,
              "duration": 0.49583333333333335
            },
            {
              "pitch": 48,
              "velocity": 53,
              "position": 2.5208333333333335,
              "duration": 0.46458333333333335
            },
            {
              "pitch": 55,
              "velocity": 41,
              "position": 2.5208333333333335,
              "duration": 0.475
            },
            {
              "pitch": 59,
              "velocity": 41,
              "position": 2.5208333333333335,
              "duration": 0.475
            },
            {
              "pitch": 67,
              "velocity": 55,
              "position": 2.5,
              "duration": 0.50625
            },
            {
              "pitch": 71,
              "velocity": 55,
              "position": 2.5,
              "duration": 0.50625
            },
            {
              "pitch": 60,
              "velocity": 53,
              "position": 2.5208333333333335,
              "duration": 0.48541666666666666
            },
            {
              "pitch": 64,
              "velocity": 63,
              "position": 2.5104166666666665,
              "duration": 0.49583333333333335
            },
            {
              "pitch": 67,
              "velocity": 69,
              "position": 3.0208333333333335,
              "duration": 0.46458333333333335
            },
            {
              "pitch": 71,
              "velocity": 69,
              "position": 3.0208333333333335,
              "duration": 0.46458333333333335
            },
            {
              "pitch": 64,
              "velocity": 67,
              "position": 3.0208333333333335,
              "duration": 0.475
            },
            {
              "pitch": 60,
              "velocity": 60,
              "position": 3.0208333333333335,
              "duration": 0.48541666666666666
            },
            {
              "pitch": 48,
              "velocity": 50,
              "position": 3,
              "duration": 0.50625
            },
            {
              "pitch": 55,
              "velocity": 55,
              "position": 3.0104166666666665,
              "duration": 0.49583333333333335
            },
            {
              "pitch": 59,
              "velocity": 55,
              "position": 3.0104166666666665,
              "duration": 0.49583333333333335
            },
            {
              "pitch": 48,
              "velocity": 45,
              "position": 3.5208333333333335,
              "duration": 0.46458333333333335
            },
            {
              "pitch": 55,
              "velocity": 40,
              "position": 3.5208333333333335,
              "duration": 0.475
            },
            {
              "pitch": 59,
              "velocity": 40,
              "position": 3.5208333333333335,
              "duration": 0.475
            },
            {
              "pitch": 67,
              "velocity": 43,
              "position": 3.5,
              "duration": 0.50625
            },
            {
              "pitch": 71,
              "velocity": 43,
              "position": 3.5,
              "duration": 0.50625
            },
            {
              "pitch": 60,
              "velocity": 37,
              "position": 3.5208333333333335,
              "duration": 0.48541666666666666
            },
            {
              "pitch": 64,
              "velocity": 34,
              "position": 3.5104166666666665,
              "duration": 0.49583333333333335
            },
            {
              "pitch": 67,
              "velocity": 49,
              "position": 4.020833333333333,
              "duration": 0.46458333333333335
            },
            {
              "pitch": 71,
              "velocity": 49,
              "position": 4.020833333333333,
              "duration": 0.46458333333333335
            },
            {
              "pitch": 64,
              "velocity": 61,
              "position": 4.020833333333333,
              "duration": 0.475
            },
            {
              "pitch": 60,
              "velocity": 61,
              "position": 4.020833333333333,
              "duration": 0.48541666666666666
            },
            {
              "pitch": 55,
              "velocity": 50,
              "position": 4.010416666666667,
              "duration": 0.49583333333333335
            },
            {
              "pitch": 59,
              "velocity": 50,
              "position": 4.010416666666667,
              "duration": 0.49583333333333335
            },
            {
              "pitch": 48,
              "velocity": 56,
              "position": 4,
              "duration": 0.50625
            },
            {
              "pitch": 48,
              "velocity": 35,
              "position": 4.520833333333333,
              "duration": 0.46458333333333335
            },
            {
              "pitch": 55,
              "velocity": 40,
              "position": 4.520833333333333,
              "duration": 0.475
            },
            {
              "pitch": 59,
              "velocity": 40,
              "position": 4.520833333333333,
              "duration": 0.475
            },
            {
              "pitch": 67,
              "velocity": 37,
              "position": 4.5,
              "duration": 0.50625
            },
            {
              "pitch": 71,
              "velocity": 37,
              "position": 4.5,
              "duration": 0.50625
            },
            {
              "pitch": 60,
              "velocity": 37,
              "position": 4.520833333333333,
              "duration": 0.48541666666666666
            },
            {
              "pitch": 64,
              "velocity": 34,
              "position": 4.510416666666667,
              "duration": 0.49583333333333335
            },
            {
              "pitch": 67,
              "velocity": 61,
              "position": 5.020833333333333,
              "duration": 0.46458333333333335
            },
            {
              "pitch": 71,
              "velocity": 61,
              "position": 5.020833333333333,
              "duration": 0.46458333333333335
            },
            {
              "pitch": 64,
              "velocity": 70,
              "position": 5.020833333333333,
              "duration": 0.475
            },
            {
              "pitch": 60,
              "velocity": 68,
              "position": 5.020833333333333,
              "duration": 0.48541666666666666
            },
            {
              "pitch": 48,
              "velocity": 38,
              "position": 5,
              "duration": 0.50625
            },
            {
              "pitch": 55,
              "velocity": 55,
              "position": 5.010416666666667,
              "duration": 0.49583333333333335
            },
            {
              "pitch": 59,
              "velocity": 55,
              "position": 5.010416666666667,
              "duration": 0.49583333333333335
            },
            {
              "pitch": 48,
              "velocity": 41,
              "position": 5.520833333333333,
              "duration": 0.46458333333333335
            },
            {
              "pitch": 55,
              "velocity": 32,
              "position": 5.520833333333333,
              "duration": 0.475
            },
            {
              "pitch": 59,
              "velocity": 32,
              "position": 5.520833333333333,
              "duration": 0.475
            },
            {
              "pitch": 67,
              "velocity": 44,
              "position": 5.5,
              "duration": 0.50625
            },
            {
              "pitch": 71,
              "velocity": 44,
              "position": 5.5,
              "duration": 0.50625
            },
            {
              "pitch": 60,
              "velocity": 45,
              "position": 5.520833333333333,
              "duration": 0.48541666666666666
            },
            {
              "pitch": 64,
              "velocity": 50,
              "position": 5.510416666666667,
              "duration": 0.49583333333333335
            },
            {
              "pitch": 67,
              "velocity": 34,
              "position": 6.020833333333333,
              "duration": 0.46458333333333335
            },
            {
              "pitch": 71,
              "velocity": 34,
              "position": 6.020833333333333,
              "duration": 0.46458333333333335
            },
            {
              "pitch": 64,
              "velocity": 37,
              "position": 6.020833333333333,
              "duration": 0.475
            },
            {
              "pitch": 60,
              "velocity": 35,
              "position": 6.020833333333333,
              "duration": 0.48541666666666666
            },
            {
              "pitch": 48,
              "velocity": 28,
              "position": 6,
              "duration": 0.50625
            },
            {
              "pitch": 55,
              "velocity": 28,
              "position": 6.010416666666667,
              "duration": 0.49583333333333335
            },
            {
              "pitch": 59,
              "velocity": 28,
              "position": 6.010416666666667,
              "duration": 0.49583333333333335
            },
            {
              "pitch": 48,
              "velocity": 53,
              "position": 6.520833333333333,
              "duration": 0.46458333333333335
            },
            {
              "pitch": 55,
              "velocity": 41,
              "position": 6.520833333333333,
              "duration": 0.475
            },
            {
              "pitch": 59,
              "velocity": 41,
              "position": 6.520833333333333,
              "duration": 0.475
            },
            {
              "pitch": 67,
              "velocity": 55,
              "position": 6.5,
              "duration": 0.50625
            },
            {
              "pitch": 71,
              "velocity": 55,
              "position": 6.5,
              "duration": 0.50625
            },
            {
              "pitch": 60,
              "velocity": 53,
              "position": 6.520833333333333,
              "duration": 0.48541666666666666
            },
            {
              "pitch": 64,
              "velocity": 63,
              "position": 6.510416666666667,
              "duration": 0.49583333333333335
            },
            {
              "pitch": 67,
              "velocity": 69,
              "position": 7.020833333333333,
              "duration": 0.46458333333333335
            },
            {
              "pitch": 71,
              "velocity": 69,
              "position": 7.020833333333333,
              "duration": 0.46458333333333335
            },
            {
              "pitch": 64,
              "velocity": 67,
              "position": 7.020833333333333,
              "duration": 0.475
            },
            {
              "pitch": 60,
              "velocity": 60,
              "position": 7.020833333333333,
              "duration": 0.48541666666666666
            },
            {
              "pitch": 48,
              "velocity": 50,
              "position": 7,
              "duration": 0.50625
            },
            {
              "pitch": 55,
              "velocity": 55,
              "position": 7.010416666666667,
              "duration": 0.49583333333333335
            },
            {
              "pitch": 59,
              "velocity": 55,
              "position": 7.010416666666667,
              "duration": 0.49583333333333335
            },
            {
              "pitch": 48,
              "velocity": 45,
              "position": 7.520833333333333,
              "duration": 0.46458333333333335
            },
            {
              "pitch": 55,
              "velocity": 40,
              "position": 7.520833333333333,
              "duration": 0.475
            },
            {
              "pitch": 59,
              "velocity": 40,
              "position": 7.520833333333333,
              "duration": 0.475
            },
            {
              "pitch": 67,
              "velocity": 43,
              "position": 7.5,
              "duration": 0.50625
            },
            {
              "pitch": 71,
              "velocity": 43,
              "position": 7.5,
              "duration": 0.50625
            },
            {
              "pitch": 60,
              "velocity": 37,
              "position": 7.520833333333333,
              "duration": 0.48541666666666666
            },
            {
              "pitch": 64,
              "velocity": 34,
              "position": 7.510416666666667,
              "duration": 0.49583333333333335
            },
            {
              "pitch": 67,
              "velocity": 49,
              "position": 8.020833333333334,
              "duration": 0.46458333333333335
            },
            {
              "pitch": 71,
              "velocity": 49,
              "position": 8.020833333333334,
              "duration": 0.46458333333333335
            },
            {
              "pitch": 64,
              "velocity": 61,
              "position": 8.020833333333334,
              "duration": 0.475
            },
            {
              "pitch": 60,
              "velocity": 61,
              "position": 8.020833333333334,
              "duration": 0.48541666666666666
            },
            {
              "pitch": 55,
              "velocity": 50,
              "position": 8.010416666666666,
              "duration": 0.49583333333333335
            },
            {
              "pitch": 59,
              "velocity": 50,
              "position": 8.010416666666666,
              "duration": 0.49583333333333335
            },
            {
              "pitch": 48,
              "velocity": 56,
              "position": 8,
              "duration": 0.50625
            },
            {
              "pitch": 48,
              "velocity": 35,
              "position": 8.520833333333334,
              "duration": 0.46458333333333335
            },
            {
              "pitch": 55,
              "velocity": 40,
              "position": 8.520833333333334,
              "duration": 0.475
            },
            {
              "pitch": 59,
              "velocity": 40,
              "position": 8.520833333333334,
              "duration": 0.475
            },
            {
              "pitch": 67,
              "velocity": 37,
              "position": 8.5,
              "duration": 0.50625
            },
            {
              "pitch": 71,
              "velocity": 37,
              "position": 8.5,
              "duration": 0.50625
            },
            {
              "pitch": 60,
              "velocity": 37,
              "position": 8.520833333333334,
              "duration": 0.48541666666666666
            },
            {
              "pitch": 64,
              "velocity": 34,
              "position": 8.510416666666666,
              "duration": 0.49583333333333335
            },
            {
              "pitch": 67,
              "velocity": 61,
              "position": 9.020833333333334,
              "duration": 0.46458333333333335
            },
            {
              "pitch": 71,
              "velocity": 61,
              "position": 9.020833333333334,
              "duration": 0.46458333333333335
            },
            {
              "pitch": 64,
              "velocity": 70,
              "position": 9.020833333333334,
              "duration": 0.475
            },
            {
              "pitch": 60,
              "velocity": 68,
              "position": 9.020833333333334,
              "duration": 0.48541666666666666
            },
            {
              "pitch": 48,
              "velocity": 38,
              "position": 9,
              "duration": 0.50625
            },
            {
              "pitch": 55,
              "velocity": 55,
              "position": 9.010416666666666,
              "duration": 0.49583333333333335
            },
            {
              "pitch": 59,
              "velocity": 55,
              "position": 9.010416666666666,
              "duration": 0.49583333333333335
            },
            {
              "pitch": 48,
              "velocity": 41,
              "position": 9.520833333333334,
              "duration": 0.46458333333333335
            },
            {
              "pitch": 55,
              "velocity": 32,
              "position": 9.520833333333334,
              "duration": 0.475
            },
            {
              "pitch": 59,
              "velocity": 32,
              "position": 9.520833333333334,
              "duration": 0.475
            },
            {
              "pitch": 67,
              "velocity": 44,
              "position": 9.5,
              "duration": 0.50625
            },
            {
              "pitch": 71,
              "velocity": 44,
              "position": 9.5,
              "duration": 0.50625
            },
            {
              "pitch": 60,
              "velocity": 45,
              "position": 9.520833333333334,
              "duration": 0.48541666666666666
            },
            {
              "pitch": 64,
              "velocity": 50,
              "position": 9.510416666666666,
              "duration": 0.49583333333333335
            },
            {
              "pitch": 67,
              "velocity": 34,
              "position": 10.020833333333334,
              "duration": 0.46458333333333335
            },
            {
              "pitch": 71,
              "velocity": 34,
              "position": 10.020833333333334,
              "duration": 0.46458333333333335
            },
            {
              "pitch": 64,
              "velocity": 37,
              "position": 10.020833333333334,
              "duration": 0.475
            },
            {
              "pitch": 60,
              "velocity": 35,
              "position": 10.020833333333334,
              "duration": 0.48541666666666666
            },
            {
              "pitch": 48,
              "velocity": 28,
              "position": 10,
              "duration": 0.50625
            },
            {
              "pitch": 55,
              "velocity": 28,
              "position": 10.010416666666666,
              "duration": 0.49583333333333335
            },
            {
              "pitch": 59,
              "velocity": 28,
              "position": 10.010416666666666,
              "duration": 0.49583333333333335
            },
            {
              "pitch": 48,
              "velocity": 53,
              "position": 10.520833333333334,
              "duration": 0.46458333333333335
            },
            {
              "pitch": 55,
              "velocity": 41,
              "position": 10.520833333333334,
              "duration": 0.475
            },
            {
              "pitch": 59,
              "velocity": 41,
              "position": 10.520833333333334,
              "duration": 0.475
            },
            {
              "pitch": 67,
              "velocity": 55,
              "position": 10.5,
              "duration": 0.50625
            },
            {
              "pitch": 71,
              "velocity": 55,
              "position": 10.5,
              "duration": 0.50625
            },
            {
              "pitch": 60,
              "velocity": 53,
              "position": 10.520833333333334,
              "duration": 0.48541666666666666
            },
            {
              "pitch": 64,
              "velocity": 63,
              "position": 10.510416666666666,
              "duration": 0.49583333333333335
            },
            {
              "pitch": 67,
              "velocity": 69,
              "position": 11.020833333333334,
              "duration": 0.46458333333333335
            },
            {
              "pitch": 71,
              "velocity": 69,
              "position": 11.020833333333334,
              "duration": 0.46458333333333335
            },
            {
              "pitch": 64,
              "velocity": 67,
              "position": 11.020833333333334,
              "duration": 0.475
            },
            {
              "pitch": 60,
              "velocity": 60,
              "position": 11.020833333333334,
              "duration": 0.48541666666666666
            },
            {
              "pitch": 48,
              "velocity": 50,
              "position": 11,
              "duration": 0.50625
            },
            {
              "pitch": 55,
              "velocity": 55,
              "position": 11.010416666666666,
              "duration": 0.49583333333333335
            },
            {
              "pitch": 59,
              "velocity": 55,
              "position": 11.010416666666666,
              "duration": 0.49583333333333335
            },
            {
              "pitch": 48,
              "velocity": 45,
              "position": 11.520833333333334,
              "duration": 0.46458333333333335
            },
            {
              "pitch": 55,
              "velocity": 40,
              "position": 11.520833333333334,
              "duration": 0.475
            },
            {
              "pitch": 59,
              "velocity": 40,
              "position": 11.520833333333334,
              "duration": 0.475
            },
            {
              "pitch": 67,
              "velocity": 43,
              "position": 11.5,
              "duration": 0.50625
            },
            {
              "pitch": 71,
              "velocity": 43,
              "position": 11.5,
              "duration": 0.50625
            },
            {
              "pitch": 60,
              "velocity": 37,
              "position": 11.520833333333334,
              "duration": 0.48541666666666666
            },
            {
              "pitch": 64,
              "velocity": 34,
              "position": 11.510416666666666,
              "duration": 0.49583333333333335
            },
            {
              "pitch": 67,
              "velocity": 49,
              "position": 12.020833333333334,
              "duration": 0.46458333333333335
            },
            {
              "pitch": 71,
              "velocity": 49,
              "position": 12.020833333333334,
              "duration": 0.46458333333333335
            },
            {
              "pitch": 64,
              "velocity": 61,
              "position": 12.020833333333334,
              "duration": 0.475
            },
            {
              "pitch": 60,
              "velocity": 61,
              "position": 12.020833333333334,
              "duration": 0.48541666666666666
            },
            {
              "pitch": 55,
              "velocity": 50,
              "position": 12.010416666666666,
              "duration": 0.49583333333333335
            },
            {
              "pitch": 59,
              "velocity": 50,
              "position": 12.010416666666666,
              "duration": 0.49583333333333335
            },
            {
              "pitch": 48,
              "velocity": 56,
              "position": 12,
              "duration": 0.50625
            },
            {
              "pitch": 48,
              "velocity": 35,
              "position": 12.520833333333334,
              "duration": 0.46458333333333335
            },
            {
              "pitch": 55,
              "velocity": 40,
              "position": 12.520833333333334,
              "duration": 0.475
            },
            {
              "pitch": 59,
              "velocity": 40,
              "position": 12.520833333333334,
              "duration": 0.475
            },
            {
              "pitch": 67,
              "velocity": 37,
              "position": 12.5,
              "duration": 0.50625
            },
            {
              "pitch": 71,
              "velocity": 37,
              "position": 12.5,
              "duration": 0.50625
            },
            {
              "pitch": 60,
              "velocity": 37,
              "position": 12.520833333333334,
              "duration": 0.48541666666666666
            },
            {
              "pitch": 64,
              "velocity": 34,
              "position": 12.510416666666666,
              "duration": 0.49583333333333335
            },
            {
              "pitch": 67,
              "velocity": 61,
              "position": 13.020833333333334,
              "duration": 0.46458333333333335
            },
            {
              "pitch": 71,
              "velocity": 61,
              "position": 13.020833333333334,
              "duration": 0.46458333333333335
            },
            {
              "pitch": 64,
              "velocity": 70,
              "position": 13.020833333333334,
              "duration": 0.475
            },
            {
              "pitch": 60,
              "velocity": 68,
              "position": 13.020833333333334,
              "duration": 0.48541666666666666
            },
            {
              "pitch": 48,
              "velocity": 38,
              "position": 13,
              "duration": 0.50625
            },
            {
              "pitch": 55,
              "velocity": 55,
              "position": 13.010416666666666,
              "duration": 0.49583333333333335
            },
            {
              "pitch": 59,
              "velocity": 55,
              "position": 13.010416666666666,
              "duration": 0.49583333333333335
            },
            {
              "pitch": 48,
              "velocity": 41,
              "position": 13.520833333333334,
              "duration": 0.46458333333333335
            },
            {
              "pitch": 55,
              "velocity": 32,
              "position": 13.520833333333334,
              "duration": 0.475
            },
            {
              "pitch": 59,
              "velocity": 32,
              "position": 13.520833333333334,
              "duration": 0.475
            },
            {
              "pitch": 67,
              "velocity": 44,
              "position": 13.5,
              "duration": 0.50625
            },
            {
              "pitch": 71,
              "velocity": 44,
              "position": 13.5,
              "duration": 0.50625
            },
            {
              "pitch": 60,
              "velocity": 45,
              "position": 13.520833333333334,
              "duration": 0.48541666666666666
            },
            {
              "pitch": 64,
              "velocity": 50,
              "position": 13.510416666666666,
              "duration": 0.49583333333333335
            },
            {
              "pitch": 67,
              "velocity": 34,
              "position": 14.020833333333334,
              "duration": 0.46458333333333335
            },
            {
              "pitch": 71,
              "velocity": 34,
              "position": 14.020833333333334,
              "duration": 0.46458333333333335
            },
            {
              "pitch": 64,
              "velocity": 37,
              "position": 14.020833333333334,
              "duration": 0.475
            },
            {
              "pitch": 60,
              "velocity": 35,
              "position": 14.020833333333334,
              "duration": 0.48541666666666666
            },
            {
              "pitch": 48,
              "velocity": 28,
              "position": 14,
              "duration": 0.50625
            },
            {
              "pitch": 55,
              "velocity": 28,
              "position": 14.010416666666666,
              "duration": 0.49583333333333335
            },
            {
              "pitch": 59,
              "velocity": 28,
              "position": 14.010416666666666,
              "duration": 0.49583333333333335
            },
            {
              "pitch": 48,
              "velocity": 53,
              "position": 14.520833333333334,
              "duration": 0.46458333333333335
            },
            {
              "pitch": 55,
              "velocity": 41,
              "position": 14.520833333333334,
              "duration": 0.475
            },
            {
              "pitch": 59,
              "velocity": 41,
              "position": 14.520833333333334,
              "duration": 0.475
            },
            {
              "pitch": 67,
              "velocity": 55,
              "position": 14.5,
              "duration": 0.50625
            },
            {
              "pitch": 71,
              "velocity": 55,
              "position": 14.5,
              "duration": 0.50625
            },
            {
              "pitch": 60,
              "velocity": 53,
              "position": 14.520833333333334,
              "duration": 0.48541666666666666
            },
            {
              "pitch": 64,
              "velocity": 63,
              "position": 14.510416666666666,
              "duration": 0.49583333333333335
            },
            {
              "pitch": 67,
              "velocity": 69,
              "position": 15.020833333333334,
              "duration": 0.46458333333333335
            },
            {
              "pitch": 71,
              "velocity": 69,
              "position": 15.020833333333334,
              "duration": 0.46458333333333335
            },
            {
              "pitch": 64,
              "velocity": 67,
              "position": 15.020833333333334,
              "duration": 0.475
            },
            {
              "pitch": 60,
              "velocity": 60,
              "position": 15.020833333333334,
              "duration": 0.48541666666666666
            },
            {
              "pitch": 48,
              "velocity": 50,
              "position": 15,
              "duration": 0.50625
            },
            {
              "pitch": 55,
              "velocity": 55,
              "position": 15.010416666666666,
              "duration": 0.49583333333333335
            },
            {
              "pitch": 59,
              "velocity": 55,
              "position": 15.010416666666666,
              "duration": 0.49583333333333335
            },
            {
              "pitch": 60,
              "velocity": 37,
              "position": 15.520833333333334,
              "duration": 0.46458333333333335
            },
            {
              "pitch": 55,
              "velocity": 40,
              "position": 15.520833333333334,
              "duration": 0.46458333333333335
            },
            {
              "pitch": 59,
              "velocity": 40,
              "position": 15.520833333333334,
              "duration": 0.46458333333333335
            },
            {
              "pitch": 48,
              "velocity": 45,
              "position": 15.520833333333334,
              "duration": 0.46458333333333335
            },
            {
              "pitch": 64,
              "velocity": 34,
              "position": 15.510416666666666,
              "duration": 0.475
            },
            {
              "pitch": 67,
              "velocity": 43,
              "position": 15.5,
              "duration": 0.48541666666666666
            },
            {
              "pitch": 71,
              "velocity": 43,
              "position": 15.5,
              "duration": 0.48541666666666666
            }
          ]
        },
        "13": {
          "ctab": {
            "srcChannel": 13,
            "name": "Organ",
            "accType": "PAD",
            "editable": false,
            "mutedNotes": [],
            "mutedChords": [],
            "autoStart": false,
            "sourceChordNote": 0,
            "sourceChordType": "Maj7",
            "ctb2Low": null,
            "ctb2Main": {
              "ntr": "ROOT_FIXED",
              "ntt": "CHORD",
              "bassOn": false,
              "chordRootUpperLimit": 0,
              "noteLowLimit": 0,
              "noteHighLimit": 79,
              "rtr": "PITCH_SHIFT"
            },
            "ctb2High": null
          },
          "notes": [
            {
              "pitch": 64,
              "velocity": 56,
              "position": 0.025,
              "duration": 3.90625
            },
            {
              "pitch": 71,
              "velocity": 56,
              "position": 0.025,
              "duration": 3.90625
            },
            {
              "pitch": 67,
              "velocity": 56,
              "position": 0.025,
              "duration": 3.90625
            },
            {
              "pitch": 64,
              "velocity": 56,
              "position": 4,
              "duration": 3.90625
            },
            {
              "pitch": 71,
              "velocity": 56,
              "position": 4,
              "duration": 3.90625
            },
            {
              "pitch": 67,
              "velocity": 56,
              "position": 4,
              "duration": 3.90625
            },
            {
              "pitch": 64,
              "velocity": 56,
              "position": 8,
              "duration": 3.90625
            },
            {
              "pitch": 71,
              "velocity": 56,
              "position": 8,
              "duration": 3.90625
            },
            {
              "pitch": 67,
              "velocity": 56,
              "position": 8,
              "duration": 3.90625
            },
            {
              "pitch": 64,
              "velocity": 56,
              "position": 12,
              "duration": 3.90625
            },
            {
              "pitch": 71,
              "velocity": 56,
              "position": 12,
              "duration": 3.90625
            },
            {
              "pitch": 67,
              "velocity": 56,
              "position": 12,
              "duration": 3.90625
            }
          ]
        },
        "14": {
          "ctab": {
            "srcChannel": 14,
            "name": "Tele",
            "accType": "PHRASE1",
            "editable": false,
            "mutedNotes": [],
            "mutedChords": [],
            "autoStart": false,
            "sourceChordNote": 0,
            "sourceChordType": "min7(11)",
            "ctb2Low": null,
            "ctb2Main": {
              "ntr": "ROOT_FIXED",
              "ntt": "CHORD",
              "bassOn": false,
              "chordRootUpperLimit": 3,
              "noteLowLimit": 0,
              "noteHighLimit": 127,
              "rtr": "PITCH_SHIFT"
            },
            "ctb2High": null
          },
          "notes": [
            {
              "pitch": 113,
              "velocity": 76,
              "position": 0,
              "duration": 0.20416666666666666
            },
            {
              "pitch": 48,
              "velocity": 76,
              "position": 0,
              "duration": 0.21458333333333332
            },
            {
              "pitch": 55,
              "velocity": 76,
              "position": 0,
              "duration": 0.21458333333333332
            },
            {
              "pitch": 108,
              "velocity": 69,
              "position": 0.5,
              "duration": 0.20416666666666666
            },
            {
              "pitch": 98,
              "velocity": 60,
              "position": 1,
              "duration": 0.20416666666666666
            },
            {
              "pitch": 55,
              "velocity": 5,
              "position": 0.5,
              "duration": 1.00625
            },
            {
              "pitch": 60,
              "velocity": 10,
              "position": 1,
              "duration": 0.975
            },
            {
              "pitch": 55,
              "velocity": 7,
              "position": 1.5208333333333333,
              "duration": 0.46458333333333335
            },
            {
              "pitch": 48,
              "velocity": 6,
              "position": 0.5,
              "duration": 1.4854166666666666
            },
            {
              "pitch": 104,
              "velocity": 60,
              "position": 1.9791666666666667,
              "duration": 0.20416666666666666
            },
            {
              "pitch": 55,
              "velocity": 76,
              "position": 2,
              "duration": 0.21458333333333332
            },
            {
              "pitch": 48,
              "velocity": 76,
              "position": 2,
              "duration": 0.21458333333333332
            },
            {
              "pitch": 113,
              "velocity": 70,
              "position": 2.5,
              "duration": 0.20416666666666666
            },
            {
              "pitch": 100,
              "velocity": 60,
              "position": 3,
              "duration": 0.20416666666666666
            },
            {
              "pitch": 55,
              "velocity": 5,
              "position": 2.5,
              "duration": 1.00625
            },
            {
              "pitch": 60,
              "velocity": 10,
              "position": 3,
              "duration": 0.975
            },
            {
              "pitch": 55,
              "velocity": 7,
              "position": 3.5208333333333335,
              "duration": 0.46458333333333335
            },
            {
              "pitch": 48,
              "velocity": 6,
              "position": 2.5,
              "duration": 1.4854166666666666
            },
            {
              "pitch": 108,
              "velocity": 77,
              "position": 4,
              "duration": 0.20416666666666666
            },
            {
              "pitch": 55,
              "velocity": 76,
              "position": 4,
              "duration": 0.21458333333333332
            },
            {
              "pitch": 48,
              "velocity": 76,
              "position": 4,
              "duration": 0.21458333333333332
            },
            {
              "pitch": 113,
              "velocity": 70,
              "position": 4.5,
              "duration": 0.20416666666666666
            },
            {
              "pitch": 67,
              "velocity": 107,
              "position": 1,
              "duration": 3.9854166666666666
            },
            {
              "pitch": 98,
              "velocity": 60,
              "position": 5,
              "duration": 0.20416666666666666
            },
            {
              "pitch": 72,
              "velocity": 13,
              "position": 1.5,
              "duration": 3.9854166666666666
            },
            {
              "pitch": 55,
              "velocity": 5,
              "position": 4.5,
              "duration": 1.00625
            },
            {
              "pitch": 60,
              "velocity": 10,
              "position": 5,
              "duration": 0.975
            },
            {
              "pitch": 55,
              "velocity": 7,
              "position": 5.520833333333333,
              "duration": 0.46458333333333335
            },
            {
              "pitch": 48,
              "velocity": 6,
              "position": 4.5,
              "duration": 1.4854166666666666
            },
            {
              "pitch": 104,
              "velocity": 60,
              "position": 5.979166666666667,
              "duration": 0.20416666666666666
            },
            {
              "pitch": 55,
              "velocity": 76,
              "position": 6,
              "duration": 0.21458333333333332
            },
            {
              "pitch": 48,
              "velocity": 76,
              "position": 6,
              "duration": 0.21458333333333332
            },
            {
              "pitch": 72,
              "velocity": 12,
              "position": 5.5,
              "duration": 0.9854166666666667
            },
            {
              "pitch": 113,
              "velocity": 70,
              "position": 6.5,
              "duration": 0.20416666666666666
            },
            {
              "pitch": 100,
              "velocity": 60,
              "position": 7,
              "duration": 0.20416666666666666
            },
            {
              "pitch": 55,
              "velocity": 5,
              "position": 6.5,
              "duration": 1.00625
            },
            {
              "pitch": 60,
              "velocity": 10,
              "position": 7,
              "duration": 0.975
            },
            {
              "pitch": 55,
              "velocity": 7,
              "position": 7.520833333333333,
              "duration": 0.46458333333333335
            },
            {
              "pitch": 48,
              "velocity": 6,
              "position": 6.5,
              "duration": 1.4854166666666666
            },
            {
              "pitch": 108,
              "velocity": 76,
              "position": 8,
              "duration": 0.20416666666666666
            },
            {
              "pitch": 55,
              "velocity": 76,
              "position": 8,
              "duration": 0.21458333333333332
            },
            {
              "pitch": 48,
              "velocity": 76,
              "position": 8,
              "duration": 0.21458333333333332
            },
            {
              "pitch": 113,
              "velocity": 69,
              "position": 8.5,
              "duration": 0.20416666666666666
            },
            {
              "pitch": 67,
              "velocity": 107,
              "position": 5,
              "duration": 3.9854166666666666
            },
            {
              "pitch": 102,
              "velocity": 60,
              "position": 9,
              "duration": 0.20416666666666666
            },
            {
              "pitch": 72,
              "velocity": 12,
              "position": 6.5,
              "duration": 2.9854166666666666
            },
            {
              "pitch": 55,
              "velocity": 5,
              "position": 8.5,
              "duration": 1.00625
            },
            {
              "pitch": 60,
              "velocity": 10,
              "position": 9,
              "duration": 0.975
            },
            {
              "pitch": 55,
              "velocity": 7,
              "position": 9.520833333333334,
              "duration": 0.46458333333333335
            },
            {
              "pitch": 48,
              "velocity": 6,
              "position": 8.5,
              "duration": 1.4854166666666666
            },
            {
              "pitch": 104,
              "velocity": 56,
              "position": 9.979166666666666,
              "duration": 0.20416666666666666
            },
            {
              "pitch": 55,
              "velocity": 76,
              "position": 10,
              "duration": 0.21458333333333332
            },
            {
              "pitch": 48,
              "velocity": 76,
              "position": 10,
              "duration": 0.21458333333333332
            },
            {
              "pitch": 113,
              "velocity": 66,
              "position": 10.5,
              "duration": 0.20416666666666666
            },
            {
              "pitch": 98,
              "velocity": 60,
              "position": 11,
              "duration": 0.20416666666666666
            },
            {
              "pitch": 55,
              "velocity": 5,
              "position": 10.5,
              "duration": 1.00625
            },
            {
              "pitch": 60,
              "velocity": 10,
              "position": 11,
              "duration": 0.975
            },
            {
              "pitch": 55,
              "velocity": 7,
              "position": 11.520833333333334,
              "duration": 0.46458333333333335
            },
            {
              "pitch": 48,
              "velocity": 6,
              "position": 10.5,
              "duration": 1.4854166666666666
            },
            {
              "pitch": 108,
              "velocity": 76,
              "position": 12,
              "duration": 0.19375
            },
            {
              "pitch": 55,
              "velocity": 76,
              "position": 12,
              "duration": 0.21458333333333332
            },
            {
              "pitch": 48,
              "velocity": 76,
              "position": 12,
              "duration": 0.21458333333333332
            },
            {
              "pitch": 113,
              "velocity": 69,
              "position": 12.5,
              "duration": 0.19375
            },
            {
              "pitch": 67,
              "velocity": 107,
              "position": 9,
              "duration": 3.975
            },
            {
              "pitch": 100,
              "velocity": 60,
              "position": 13,
              "duration": 0.19375
            },
            {
              "pitch": 72,
              "velocity": 13,
              "position": 9.5,
              "duration": 3.975
            },
            {
              "pitch": 55,
              "velocity": 5,
              "position": 12.5,
              "duration": 0.9958333333333333
            },
            {
              "pitch": 60,
              "velocity": 10,
              "position": 13,
              "duration": 0.975
            },
            {
              "pitch": 48,
              "velocity": 6,
              "position": 12.5,
              "duration": 1.475
            },
            {
              "pitch": 55,
              "velocity": 7,
              "position": 13.516666666666667,
              "duration": 0.46458333333333335
            },
            {
              "pitch": 104,
              "velocity": 59,
              "position": 13.979166666666666,
              "duration": 0.19375
            },
            {
              "pitch": 55,
              "velocity": 76,
              "position": 14,
              "duration": 0.21458333333333332
            },
            {
              "pitch": 48,
              "velocity": 76,
              "position": 14,
              "duration": 0.21458333333333332
            },
            {
              "pitch": 72,
              "velocity": 12,
              "position": 13.5,
              "duration": 0.975
            },
            {
              "pitch": 113,
              "velocity": 69,
              "position": 14.5,
              "duration": 0.19375
            },
            {
              "pitch": 67,
              "velocity": 107,
              "position": 13,
              "duration": 1.975
            },
            {
              "pitch": 98,
              "velocity": 60,
              "position": 15,
              "duration": 0.19375
            },
            {
              "pitch": 55,
              "velocity": 5,
              "position": 14.5,
              "duration": 0.9958333333333333
            },
            {
              "pitch": 67,
              "velocity": 14,
              "position": 15,
              "duration": 0.975
            },
            {
              "pitch": 48,
              "velocity": 6,
              "position": 14.5,
              "duration": 1.475
            },
            {
              "pitch": 60,
              "velocity": 14,
              "position": 15,
              "duration": 0.975
            },
            {
              "pitch": 72,
              "velocity": 12,
              "position": 14.5,
              "duration": 1.475
            },
            {
              "pitch": 55,
              "velocity": 7,
              "position": 15.516666666666667,
              "duration": 0.475
            }
          ]
        },
        "15": {
          "ctab": {
            "srcChannel": 15,
            "name": "Strings",
            "accType": "PHRASE2",
            "editable": true,
            "mutedNotes": [],
            "mutedChords": [],
            "autoStart": false,
            "sourceChordNote": 0,
            "sourceChordType": "Maj7",
            "ctb2Low": null,
            "ctb2Main": {
              "ntr": "ROOT_FIXED",
              "ntt": "CHORD",
              "bassOn": false,
              "chordRootUpperLimit": 0,
              "noteLowLimit": 0,
              "noteHighLimit": 127,
              "rtr": "PITCH_SHIFT"
            },
            "ctb2High": null
          },
          "notes": [
            {
              "pitch": 55,
              "velocity": 42,
              "position": 0,
              "duration": 15.975
            },
            {
              "pitch": 64,
              "velocity": 42,
              "position": 0,
              "duration": 15.975
            },
            {
              "pitch": 59,
              "velocity": 42,
              "position": 0,
              "duration": 15.975
            }
          ]
        }
      }
    },
    "Main_D": {
      "type": "Main_D",
      "sizeInBeats": 16,
      "channels": {
        "1": {
          "ctab": {
            "srcChannel": 1,
            "name": "Bass B",
            "accType": "BASS",
            "editable": false,
            "mutedNotes": [],
            "mutedChords": [
              "1+5",
              "1+8",
              "7(#9)",
              "7(b13)",
              "7(b9)",
              "7(13)",
              "7#11",
              "7(9)",
              "7b5",
              "7sus4",
              "7th",
              "dim7",
              "dim",
              "min7(11)",
              "min7(9)",
              "m7b5",
              "min7",
              "min6",
              "Maj6(9)",
              "Maj7(9)",
              "Maj(9)",
              "Maj7#11",
              "Maj7",
              "Maj6",
              "Maj"
            ],
            "autoStart": false,
            "sourceChordNote": 0,
            "sourceChordType": "Maj7",
            "ctb2Low": null,
            "ctb2Main": {
              "ntr": "ROOT_TRANSPOSITION",
              "ntt": "MELODY",
              "bassOn": true,
              "chordRootUpperLimit": 8,
              "noteLowLimit": 28,
              "noteHighLimit": 127,
              "rtr": "PITCH_SHIFT_TO_ROOT"
            },
            "ctb2High": null
          },
          "notes": [
            {
              "pitch": 24,
              "velocity": 70,
              "position": 0,
              "duration": 0.39166666666666666
            },
            {
              "pitch": 24,
              "velocity": 50,
              "position": 0.5,
              "duration": 0.42291666666666666
            },
            {
              "pitch": 24,
              "velocity": 70,
              "position": 1,
              "duration": 0.6729166666666667
            },
            {
              "pitch": 24,
              "velocity": 70,
              "position": 1.75,
              "duration": 0.31875
            },
            {
              "pitch": 24,
              "velocity": 40,
              "position": 2.25,
              "duration": 0.23541666666666666
            },
            {
              "pitch": 24,
              "velocity": 50,
              "position": 2.5,
              "duration": 0.43333333333333335
            },
            {
              "pitch": 24,
              "velocity": 70,
              "position": 3,
              "duration": 0.43333333333333335
            },
            {
              "pitch": 31,
              "velocity": 50,
              "position": 3.5,
              "duration": 0.43333333333333335
            },
            {
              "pitch": 24,
              "velocity": 70,
              "position": 4,
              "duration": 0.39166666666666666
            },
            {
              "pitch": 24,
              "velocity": 50,
              "position": 4.5,
              "duration": 0.42291666666666666
            },
            {
              "pitch": 24,
              "velocity": 70,
              "position": 5,
              "duration": 0.6729166666666667
            },
            {
              "pitch": 24,
              "velocity": 70,
              "position": 5.75,
              "duration": 0.31875
            },
            {
              "pitch": 24,
              "velocity": 40,
              "position": 6.25,
              "duration": 0.23541666666666666
            },
            {
              "pitch": 24,
              "velocity": 50,
              "position": 6.5,
              "duration": 0.43333333333333335
            },
            {
              "pitch": 24,
              "velocity": 70,
              "position": 7,
              "duration": 0.43333333333333335
            },
            {
              "pitch": 31,
              "velocity": 50,
              "position": 7.5,
              "duration": 0.23541666666666666
            },
            {
              "pitch": 31,
              "velocity": 30,
              "position": 7.75,
              "duration": 0.23541666666666666
            },
            {
              "pitch": 24,
              "velocity": 70,
              "position": 8,
              "duration": 0.39166666666666666
            },
            {
              "pitch": 24,
              "velocity": 50,
              "position": 8.5,
              "duration": 0.42291666666666666
            },
            {
              "pitch": 24,
              "velocity": 70,
              "position": 9,
              "duration": 0.6729166666666667
            },
            {
              "pitch": 24,
              "velocity": 70,
              "position": 9.75,
              "duration": 0.31875
            },
            {
              "pitch": 24,
              "velocity": 40,
              "position": 10.25,
              "duration": 0.23541666666666666
            },
            {
              "pitch": 24,
              "velocity": 50,
              "position": 10.5,
              "duration": 0.43333333333333335
            },
            {
              "pitch": 24,
              "velocity": 70,
              "position": 11,
              "duration": 0.43333333333333335
            },
            {
              "pitch": 31,
              "velocity": 50,
              "position": 11.5,
              "duration": 0.43333333333333335
            },
            {
              "pitch": 24,
              "velocity": 70,
              "position": 12,
              "duration": 0.39166666666666666
            },
            {
              "pitch": 24,
              "velocity": 50,
              "position": 12.5,
              "duration": 0.42291666666666666
            },
            {
              "pitch": 24,
              "velocity": 70,
              "position": 13,
              "duration": 0.6729166666666667
            },
            {
              "pitch": 24,
              "velocity": 70,
              "position": 13.75,
              "duration": 0.31875
            },
            {
              "pitch": 24,
              "velocity": 40,
              "position": 14.25,
              "duration": 0.23541666666666666
            },
            {
              "pitch": 24,
              "velocity": 50,
              "position": 14.5,
              "duration": 0.43333333333333335
            },
            {
              "pitch": 24,
              "velocity": 70,
              "position": 15,
              "duration": 0.43333333333333335
            },
            {
              "pitch": 31,
              "velocity": 50,
              "position": 15.5,
              "duration": 0.23541666666666666
            },
            {
              "pitch": 31,
              "velocity": 30,
              "position": 15.75,
              "duration": 0.23541666666666666
            }
          ]
        },
        "8": {
          "ctab": {
            "srcChannel": 8,
            "name": "AddDrum",
            "accType": "SUBRHYTHM",
            "editable": false,
            "mutedNotes": [],
            "mutedChords": [],
            "autoStart": true,
            "sourceChordNote": 0,
            "sourceChordType": "Maj7",
            "ctb2Low": null,
            "ctb2Main": {
              "ntr": "ROOT_FIXED",
              "ntt": "BYPASS",
              "bassOn": false,
              "chordRootUpperLimit": 6,
              "noteLowLimit": 0,
              "noteHighLimit": 127,
              "rtr": "PITCH_SHIFT"
            },
            "ctb2High": null
          },
          "notes": [
            {
              "pitch": 54,
              "velocity": 90,
              "position": 0,
              "duration": 0.058333333333333334
            },
            {
              "pitch": 54,
              "velocity": 30,
              "position": 0.25,
              "duration": 0.058333333333333334
            },
            {
              "pitch": 54,
              "velocity": 50,
              "position": 0.5,
              "duration": 0.058333333333333334
            },
            {
              "pitch": 54,
              "velocity": 30,
              "position": 0.75,
              "duration": 0.058333333333333334
            },
            {
              "pitch": 54,
              "velocity": 90,
              "position": 0.99375,
              "duration": 0.058333333333333334
            },
            {
              "pitch": 54,
              "velocity": 30,
              "position": 1.24375,
              "duration": 0.058333333333333334
            },
            {
              "pitch": 54,
              "velocity": 50,
              "position": 1.5,
              "duration": 0.058333333333333334
            },
            {
              "pitch": 54,
              "velocity": 30,
              "position": 1.75,
              "duration": 0.058333333333333334
            },
            {
              "pitch": 54,
              "velocity": 90,
              "position": 2,
              "duration": 0.058333333333333334
            },
            {
              "pitch": 54,
              "velocity": 30,
              "position": 2.25,
              "duration": 0.058333333333333334
            },
            {
              "pitch": 54,
              "velocity": 50,
              "position": 2.5,
              "duration": 0.058333333333333334
            },
            {
              "pitch": 54,
              "velocity": 30,
              "position": 2.75,
              "duration": 0.058333333333333334
            },
            {
              "pitch": 54,
              "velocity": 90,
              "position": 3,
              "duration": 0.058333333333333334
            },
            {
              "pitch": 54,
              "velocity": 30,
              "position": 3.25,
              "duration": 0.058333333333333334
            },
            {
              "pitch": 54,
              "velocity": 50,
              "position": 3.5,
              "duration": 0.058333333333333334
            },
            {
              "pitch": 54,
              "velocity": 30,
              "position": 3.75,
              "duration": 0.058333333333333334
            },
            {
              "pitch": 54,
              "velocity": 90,
              "position": 4,
              "duration": 0.058333333333333334
            },
            {
              "pitch": 54,
              "velocity": 30,
              "position": 4.25,
              "duration": 0.058333333333333334
            },
            {
              "pitch": 54,
              "velocity": 50,
              "position": 4.5,
              "duration": 0.058333333333333334
            },
            {
              "pitch": 54,
              "velocity": 30,
              "position": 4.75,
              "duration": 0.058333333333333334
            },
            {
              "pitch": 54,
              "velocity": 90,
              "position": 5,
              "duration": 0.058333333333333334
            },
            {
              "pitch": 54,
              "velocity": 30,
              "position": 5.25,
              "duration": 0.058333333333333334
            },
            {
              "pitch": 54,
              "velocity": 50,
              "position": 5.5,
              "duration": 0.058333333333333334
            },
            {
              "pitch": 54,
              "velocity": 30,
              "position": 5.75,
              "duration": 0.058333333333333334
            },
            {
              "pitch": 54,
              "velocity": 90,
              "position": 6,
              "duration": 0.058333333333333334
            },
            {
              "pitch": 54,
              "velocity": 30,
              "position": 6.25,
              "duration": 0.058333333333333334
            },
            {
              "pitch": 54,
              "velocity": 50,
              "position": 6.5,
              "duration": 0.058333333333333334
            },
            {
              "pitch": 54,
              "velocity": 30,
              "position": 6.75,
              "duration": 0.058333333333333334
            },
            {
              "pitch": 54,
              "velocity": 90,
              "position": 7,
              "duration": 0.058333333333333334
            },
            {
              "pitch": 54,
              "velocity": 30,
              "position": 7.25,
              "duration": 0.058333333333333334
            },
            {
              "pitch": 54,
              "velocity": 50,
              "position": 7.5,
              "duration": 0.058333333333333334
            },
            {
              "pitch": 54,
              "velocity": 30,
              "position": 7.75,
              "duration": 0.058333333333333334
            },
            {
              "pitch": 54,
              "velocity": 90,
              "position": 8,
              "duration": 0.058333333333333334
            },
            {
              "pitch": 54,
              "velocity": 30,
              "position": 8.25,
              "duration": 0.058333333333333334
            },
            {
              "pitch": 54,
              "velocity": 50,
              "position": 8.5,
              "duration": 0.058333333333333334
            },
            {
              "pitch": 54,
              "velocity": 30,
              "position": 8.75,
              "duration": 0.058333333333333334
            },
            {
              "pitch": 54,
              "velocity": 90,
              "position": 8.99375,
              "duration": 0.058333333333333334
            },
            {
              "pitch": 54,
              "velocity": 30,
              "position": 9.24375,
              "duration": 0.058333333333333334
            },
            {
              "pitch": 54,
              "velocity": 50,
              "position": 9.5,
              "duration": 0.058333333333333334
            },
            {
              "pitch": 54,
              "velocity": 30,
              "position": 9.75,
              "duration": 0.058333333333333334
            },
            {
              "pitch": 54,
              "velocity": 90,
              "position": 10,
              "duration": 0.058333333333333334
            },
            {
              "pitch": 54,
              "velocity": 30,
              "position": 10.25,
              "duration": 0.058333333333333334
            },
            {
              "pitch": 54,
              "velocity": 50,
              "position": 10.5,
              "duration": 0.058333333333333334
            },
            {
              "pitch": 54,
              "velocity": 30,
              "position": 10.75,
              "duration": 0.058333333333333334
            },
            {
              "pitch": 54,
              "velocity": 90,
              "position": 11,
              "duration": 0.058333333333333334
            },
            {
              "pitch": 54,
              "velocity": 30,
              "position": 11.25,
              "duration": 0.058333333333333334
            },
            {
              "pitch": 54,
              "velocity": 50,
              "position": 11.5,
              "duration": 0.058333333333333334
            },
            {
              "pitch": 54,
              "velocity": 30,
              "position": 11.75,
              "duration": 0.058333333333333334
            },
            {
              "pitch": 54,
              "velocity": 90,
              "position": 12,
              "duration": 0.058333333333333334
            },
            {
              "pitch": 54,
              "velocity": 30,
              "position": 12.25,
              "duration": 0.058333333333333334
            },
            {
              "pitch": 54,
              "velocity": 50,
              "position": 12.5,
              "duration": 0.058333333333333334
            },
            {
              "pitch": 54,
              "velocity": 30,
              "position": 12.75,
              "duration": 0.058333333333333334
            },
            {
              "pitch": 54,
              "velocity": 90,
              "position": 12.99375,
              "duration": 0.058333333333333334
            },
            {
              "pitch": 54,
              "velocity": 30,
              "position": 13.24375,
              "duration": 0.058333333333333334
            },
            {
              "pitch": 54,
              "velocity": 50,
              "position": 13.5,
              "duration": 0.058333333333333334
            },
            {
              "pitch": 54,
              "velocity": 30,
              "position": 13.75,
              "duration": 0.058333333333333334
            },
            {
              "pitch": 54,
              "velocity": 90,
              "position": 13.99375,
              "duration": 0.058333333333333334
            },
            {
              "pitch": 54,
              "velocity": 30,
              "position": 14.24375,
              "duration": 0.058333333333333334
            },
            {
              "pitch": 54,
              "velocity": 50,
              "position": 14.5,
              "duration": 0.058333333333333334
            },
            {
              "pitch": 54,
              "velocity": 30,
              "position": 14.75,
              "duration": 0.058333333333333334
            },
            {
              "pitch": 54,
              "velocity": 90,
              "position": 15,
              "duration": 0.058333333333333334
            },
            {
              "pitch": 54,
              "velocity": 30,
              "position": 15.25,
              "duration": 0.058333333333333334
            },
            {
              "pitch": 54,
              "velocity": 50,
              "position": 15.5,
              "duration": 0.058333333333333334
            },
            {
              "pitch": 54,
              "velocity": 30,
              "position": 15.75,
              "duration": 0.058333333333333334
            }
          ]
        },
        "9": {
          "ctab": {
            "srcChannel": 9,
            "name": "MainDrum",
            "accType": "RHYTHM",
            "editable": false,
            "mutedNotes": [],
            "mutedChords": [],
            "autoStart": true,
            "sourceChordNote": 0,
            "sourceChordType": "Maj7",
            "ctb2Low": null,
            "ctb2Main": {
              "ntr": "ROOT_FIXED",
              "ntt": "BYPASS",
              "bassOn": false,
              "chordRootUpperLimit": 6,
              "noteLowLimit": 0,
              "noteHighLimit": 127,
              "rtr": "PITCH_SHIFT"
            },
            "ctb2High": null
          },
          "notes": [
            {
              "pitch": 35,
              "velocity": 114,
              "position": 0,
              "duration": 0.00625
            },
            {
              "pitch": 49,
              "velocity": 67,
              "position": 0,
              "duration": 0.00625
            },
            {
              "pitch": 44,
              "velocity": 80,
              "position": 0,
              "duration": 0.00625
            },
            {
              "pitch": 49,
              "velocity": 43,
              "position": 0.5,
              "duration": 0.00625
            },
            {
              "pitch": 38,
              "velocity": 114,
              "position": 1,
              "duration": 0.00625
            },
            {
              "pitch": 52,
              "velocity": 77,
              "position": 1,
              "duration": 0.00625
            },
            {
              "pitch": 44,
              "velocity": 95,
              "position": 1,
              "duration": 0.00625
            },
            {
              "pitch": 49,
              "velocity": 43,
              "position": 1.5,
              "duration": 0.00625
            },
            {
              "pitch": 38,
              "velocity": 60,
              "position": 1.75,
              "duration": 0.00625
            },
            {
              "pitch": 35,
              "velocity": 114,
              "position": 2,
              "duration": 0.00625
            },
            {
              "pitch": 49,
              "velocity": 67,
              "position": 2,
              "duration": 0.00625
            },
            {
              "pitch": 44,
              "velocity": 80,
              "position": 2,
              "duration": 0.00625
            },
            {
              "pitch": 35,
              "velocity": 96,
              "position": 2.5,
              "duration": 0.00625
            },
            {
              "pitch": 49,
              "velocity": 43,
              "position": 2.5,
              "duration": 0.00625
            },
            {
              "pitch": 38,
              "velocity": 114,
              "position": 3,
              "duration": 0.00625
            },
            {
              "pitch": 57,
              "velocity": 88,
              "position": 3,
              "duration": 0.00625
            },
            {
              "pitch": 44,
              "velocity": 95,
              "position": 3,
              "duration": 0.00625
            },
            {
              "pitch": 49,
              "velocity": 43,
              "position": 3.5,
              "duration": 0.00625
            },
            {
              "pitch": 35,
              "velocity": 114,
              "position": 4,
              "duration": 0.00625
            },
            {
              "pitch": 49,
              "velocity": 67,
              "position": 4,
              "duration": 0.00625
            },
            {
              "pitch": 44,
              "velocity": 80,
              "position": 4,
              "duration": 0.00625
            },
            {
              "pitch": 49,
              "velocity": 43,
              "position": 4.5,
              "duration": 0.00625
            },
            {
              "pitch": 38,
              "velocity": 114,
              "position": 5,
              "duration": 0.00625
            },
            {
              "pitch": 52,
              "velocity": 77,
              "position": 5,
              "duration": 0.00625
            },
            {
              "pitch": 44,
              "velocity": 95,
              "position": 5,
              "duration": 0.00625
            },
            {
              "pitch": 49,
              "velocity": 43,
              "position": 5.5,
              "duration": 0.00625
            },
            {
              "pitch": 38,
              "velocity": 60,
              "position": 5.75,
              "duration": 0.00625
            },
            {
              "pitch": 35,
              "velocity": 114,
              "position": 6,
              "duration": 0.00625
            },
            {
              "pitch": 49,
              "velocity": 67,
              "position": 6,
              "duration": 0.00625
            },
            {
              "pitch": 44,
              "velocity": 80,
              "position": 6,
              "duration": 0.00625
            },
            {
              "pitch": 38,
              "velocity": 20,
              "position": 6.25,
              "duration": 0.00625
            },
            {
              "pitch": 35,
              "velocity": 96,
              "position": 6.5,
              "duration": 0.00625
            },
            {
              "pitch": 49,
              "velocity": 43,
              "position": 6.5,
              "duration": 0.00625
            },
            {
              "pitch": 38,
              "velocity": 114,
              "position": 7,
              "duration": 0.00625
            },
            {
              "pitch": 57,
              "velocity": 88,
              "position": 7,
              "duration": 0.00625
            },
            {
              "pitch": 44,
              "velocity": 95,
              "position": 7,
              "duration": 0.00625
            },
            {
              "pitch": 35,
              "velocity": 96,
              "position": 7.5,
              "duration": 0.00625
            },
            {
              "pitch": 49,
              "velocity": 43,
              "position": 7.5,
              "duration": 0.00625
            },
            {
              "pitch": 35,
              "velocity": 114,
              "position": 8,
              "duration": 0.00625
            },
            {
              "pitch": 49,
              "velocity": 67,
              "position": 8,
              "duration": 0.00625
            },
            {
              "pitch": 44,
              "velocity": 80,
              "position": 8,
              "duration": 0.00625
            },
            {
              "pitch": 49,
              "velocity": 43,
              "position": 8.5,
              "duration": 0.00625
            },
            {
              "pitch": 38,
              "velocity": 114,
              "position": 9,
              "duration": 0.00625
            },
            {
              "pitch": 52,
              "velocity": 77,
              "position": 9,
              "duration": 0.00625
            },
            {
              "pitch": 44,
              "velocity": 95,
              "position": 9,
              "duration": 0.00625
            },
            {
              "pitch": 49,
              "velocity": 43,
              "position": 9.5,
              "duration": 0.00625
            },
            {
              "pitch": 38,
              "velocity": 60,
              "position": 9.75,
              "duration": 0.00625
            },
            {
              "pitch": 35,
              "velocity": 114,
              "position": 10,
              "duration": 0.00625
            },
            {
              "pitch": 49,
              "velocity": 67,
              "position": 10,
              "duration": 0.00625
            },
            {
              "pitch": 44,
              "velocity": 80,
              "position": 10,
              "duration": 0.00625
            },
            {
              "pitch": 35,
              "velocity": 96,
              "position": 10.5,
              "duration": 0.00625
            },
            {
              "pitch": 49,
              "velocity": 43,
              "position": 10.5,
              "duration": 0.00625
            },
            {
              "pitch": 38,
              "velocity": 114,
              "position": 11,
              "duration": 0.00625
            },
            {
              "pitch": 57,
              "velocity": 88,
              "position": 11,
              "duration": 0.00625
            },
            {
              "pitch": 44,
              "velocity": 95,
              "position": 11,
              "duration": 0.00625
            },
            {
              "pitch": 49,
              "velocity": 43,
              "position": 11.5,
              "duration": 0.00625
            },
            {
              "pitch": 35,
              "velocity": 114,
              "position": 12,
              "duration": 0.00625
            },
            {
              "pitch": 49,
              "velocity": 67,
              "position": 12,
              "duration": 0.00625
            },
            {
              "pitch": 44,
              "velocity": 80,
              "position": 12,
              "duration": 0.00625
            },
            {
              "pitch": 49,
              "velocity": 43,
              "position": 12.5,
              "duration": 0.00625
            },
            {
              "pitch": 38,
              "velocity": 114,
              "position": 13,
              "duration": 0.00625
            },
            {
              "pitch": 52,
              "velocity": 77,
              "position": 13,
              "duration": 0.00625
            },
            {
              "pitch": 44,
              "velocity": 95,
              "position": 13,
              "duration": 0.00625
            },
            {
              "pitch": 49,
              "velocity": 43,
              "position": 13.5,
              "duration": 0.00625
            },
            {
              "pitch": 38,
              "velocity": 60,
              "position": 13.75,
              "duration": 0.00625
            },
            {
              "pitch": 35,
              "velocity": 114,
              "position": 14,
              "duration": 0.00625
            },
            {
              "pitch": 49,
              "velocity": 67,
              "position": 14,
              "duration": 0.00625
            },
            {
              "pitch": 44,
              "velocity": 80,
              "position": 14,
              "duration": 0.00625
            },
            {
              "pitch": 38,
              "velocity": 20,
              "position": 14.25,
              "duration": 0.00625
            },
            {
              "pitch": 35,
              "velocity": 96,
              "position": 14.5,
              "duration": 0.00625
            },
            {
              "pitch": 49,
              "velocity": 43,
              "position": 14.5,
              "duration": 0.00625
            },
            {
              "pitch": 38,
              "velocity": 114,
              "position": 15,
              "duration": 0.00625
            },
            {
              "pitch": 57,
              "velocity": 88,
              "position": 15,
              "duration": 0.00625
            },
            {
              "pitch": 44,
              "velocity": 95,
              "position": 15,
              "duration": 0.00625
            },
            {
              "pitch": 35,
              "velocity": 96,
              "position": 15.5,
              "duration": 0.00625
            },
            {
              "pitch": 49,
              "velocity": 43,
              "position": 15.5,
              "duration": 0.00625
            }
          ]
        },
        "10": {
          "ctab": {
            "srcChannel": 10,
            "name": "Bass A",
            "accType": "BASS",
            "editable": false,
            "mutedNotes": [],
            "mutedChords": [
              "1+2+5",
              "sus4",
              "7aug",
              "Maj7aug",
              "minMaj7(9)",
              "minMaj7",
              "min(9)",
              "min",
              "aug"
            ],
            "autoStart": false,
            "sourceChordNote": 0,
            "sourceChordType": "Maj7",
            "ctb2Low": null,
            "ctb2Main": {
              "ntr": "ROOT_TRANSPOSITION",
              "ntt": "MELODY",
              "bassOn": true,
              "chordRootUpperLimit": 8,
              "noteLowLimit": 28,
              "noteHighLimit": 127,
              "rtr": "PITCH_SHIFT_TO_ROOT"
            },
            "ctb2High": null
          },
          "notes": [
            {
              "pitch": 24,
              "velocity": 70,
              "position": 0,
              "duration": 0.39166666666666666
            },
            {
              "pitch": 24,
              "velocity": 50,
              "position": 0.5,
              "duration": 0.42291666666666666
            },
            {
              "pitch": 24,
              "velocity": 70,
              "position": 1,
              "duration": 0.6729166666666667
            },
            {
              "pitch": 24,
              "velocity": 70,
              "position": 1.75,
              "duration": 0.31875
            },
            {
              "pitch": 24,
              "velocity": 40,
              "position": 2.25,
              "duration": 0.23541666666666666
            },
            {
              "pitch": 24,
              "velocity": 50,
              "position": 2.5,
              "duration": 0.43333333333333335
            },
            {
              "pitch": 24,
              "velocity": 70,
              "position": 3,
              "duration": 0.43333333333333335
            },
            {
              "pitch": 31,
              "velocity": 50,
              "position": 3.5,
              "duration": 0.43333333333333335
            },
            {
              "pitch": 24,
              "velocity": 70,
              "position": 4,
              "duration": 0.39166666666666666
            },
            {
              "pitch": 24,
              "velocity": 50,
              "position": 4.5,
              "duration": 0.42291666666666666
            },
            {
              "pitch": 24,
              "velocity": 70,
              "position": 5,
              "duration": 0.6729166666666667
            },
            {
              "pitch": 24,
              "velocity": 70,
              "position": 5.75,
              "duration": 0.31875
            },
            {
              "pitch": 24,
              "velocity": 40,
              "position": 6.25,
              "duration": 0.23541666666666666
            },
            {
              "pitch": 24,
              "velocity": 50,
              "position": 6.5,
              "duration": 0.43333333333333335
            },
            {
              "pitch": 24,
              "velocity": 70,
              "position": 7,
              "duration": 0.43333333333333335
            },
            {
              "pitch": 31,
              "velocity": 50,
              "position": 7.5,
              "duration": 0.23541666666666666
            },
            {
              "pitch": 31,
              "velocity": 30,
              "position": 7.75,
              "duration": 0.23541666666666666
            },
            {
              "pitch": 24,
              "velocity": 70,
              "position": 8,
              "duration": 0.39166666666666666
            },
            {
              "pitch": 24,
              "velocity": 50,
              "position": 8.5,
              "duration": 0.42291666666666666
            },
            {
              "pitch": 24,
              "velocity": 70,
              "position": 9,
              "duration": 0.6729166666666667
            },
            {
              "pitch": 24,
              "velocity": 70,
              "position": 9.75,
              "duration": 0.31875
            },
            {
              "pitch": 24,
              "velocity": 40,
              "position": 10.25,
              "duration": 0.23541666666666666
            },
            {
              "pitch": 24,
              "velocity": 50,
              "position": 10.5,
              "duration": 0.43333333333333335
            },
            {
              "pitch": 24,
              "velocity": 70,
              "position": 11,
              "duration": 0.43333333333333335
            },
            {
              "pitch": 31,
              "velocity": 50,
              "position": 11.5,
              "duration": 0.43333333333333335
            },
            {
              "pitch": 24,
              "velocity": 70,
              "position": 12,
              "duration": 0.39166666666666666
            },
            {
              "pitch": 24,
              "velocity": 50,
              "position": 12.5,
              "duration": 0.42291666666666666
            },
            {
              "pitch": 24,
              "velocity": 70,
              "position": 13,
              "duration": 0.6729166666666667
            },
            {
              "pitch": 24,
              "velocity": 70,
              "position": 13.75,
              "duration": 0.31875
            },
            {
              "pitch": 24,
              "velocity": 40,
              "position": 14.25,
              "duration": 0.23541666666666666
            },
            {
              "pitch": 24,
              "velocity": 50,
              "position": 14.5,
              "duration": 0.43333333333333335
            },
            {
              "pitch": 24,
              "velocity": 70,
              "position": 15,
              "duration": 0.43333333333333335
            },
            {
              "pitch": 31,
              "velocity": 50,
              "position": 15.5,
              "duration": 0.23541666666666666
            },
            {
              "pitch": 31,
              "velocity": 30,
              "position": 15.75,
              "duration": 0.23541666666666666
            }
          ]
        },
        "11": {
          "ctab": {
            "srcChannel": 11,
            "name": "SteelGtr",
            "accType": "CHORD1",
            "editable": false,
            "mutedNotes": [],
            "mutedChords": [],
            "autoStart": false,
            "sourceChordNote": 0,
            "sourceChordType": "Maj7",
            "ctb2Low": null,
            "ctb2Main": {
              "ntr": "ROOT_TRANSPOSITION",
              "ntt": "MELODY",
              "bassOn": true,
              "chordRootUpperLimit": 3,
              "noteLowLimit": 0,
              "noteHighLimit": 127,
              "rtr": "PITCH_SHIFT"
            },
            "ctb2High": null
          },
          "notes": [
            {
              "pitch": 48,
              "velocity": 42,
              "position": 0,
              "duration": 0.48541666666666666
            },
            {
              "pitch": 55,
              "velocity": 36,
              "position": 0.010416666666666666,
              "duration": 0.48541666666666666
            },
            {
              "pitch": 59,
              "velocity": 36,
              "position": 0.010416666666666666,
              "duration": 0.48541666666666666
            },
            {
              "pitch": 60,
              "velocity": 45,
              "position": 0.020833333333333332,
              "duration": 0.48541666666666666
            },
            {
              "pitch": 64,
              "velocity": 45,
              "position": 0.020833333333333332,
              "duration": 0.48541666666666666
            },
            {
              "pitch": 67,
              "velocity": 45,
              "position": 0.020833333333333332,
              "duration": 0.48541666666666666
            },
            {
              "pitch": 71,
              "velocity": 45,
              "position": 0.020833333333333332,
              "duration": 0.48541666666666666
            },
            {
              "pitch": 48,
              "velocity": 32,
              "position": 0.5,
              "duration": 0.48541666666666666
            },
            {
              "pitch": 55,
              "velocity": 32,
              "position": 0.5104166666666666,
              "duration": 0.48541666666666666
            },
            {
              "pitch": 59,
              "velocity": 32,
              "position": 0.5104166666666666,
              "duration": 0.48541666666666666
            },
            {
              "pitch": 60,
              "velocity": 33,
              "position": 0.5208333333333334,
              "duration": 0.48541666666666666
            },
            {
              "pitch": 67,
              "velocity": 38,
              "position": 0.5208333333333334,
              "duration": 0.48541666666666666
            },
            {
              "pitch": 71,
              "velocity": 38,
              "position": 0.5208333333333334,
              "duration": 0.48541666666666666
            },
            {
              "pitch": 64,
              "velocity": 38,
              "position": 0.5208333333333334,
              "duration": 0.48541666666666666
            },
            {
              "pitch": 67,
              "velocity": 48,
              "position": 1.0208333333333333,
              "duration": 0.7145833333333333
            },
            {
              "pitch": 71,
              "velocity": 48,
              "position": 1.0208333333333333,
              "duration": 0.7145833333333333
            },
            {
              "pitch": 64,
              "velocity": 48,
              "position": 1.0208333333333333,
              "duration": 0.725
            },
            {
              "pitch": 60,
              "velocity": 46,
              "position": 1.0208333333333333,
              "duration": 0.7354166666666667
            },
            {
              "pitch": 48,
              "velocity": 42,
              "position": 1,
              "duration": 0.75625
            },
            {
              "pitch": 55,
              "velocity": 41,
              "position": 1.0104166666666667,
              "duration": 0.7458333333333333
            },
            {
              "pitch": 59,
              "velocity": 41,
              "position": 1.0104166666666667,
              "duration": 0.7458333333333333
            },
            {
              "pitch": 67,
              "velocity": 48,
              "position": 1.75,
              "duration": 0.48541666666666666
            },
            {
              "pitch": 71,
              "velocity": 48,
              "position": 1.75,
              "duration": 0.48541666666666666
            },
            {
              "pitch": 64,
              "velocity": 46,
              "position": 1.7604166666666667,
              "duration": 0.48541666666666666
            },
            {
              "pitch": 48,
              "velocity": 42,
              "position": 1.7708333333333333,
              "duration": 0.48541666666666666
            },
            {
              "pitch": 60,
              "velocity": 44,
              "position": 1.7708333333333333,
              "duration": 0.48541666666666666
            },
            {
              "pitch": 55,
              "velocity": 44,
              "position": 1.7708333333333333,
              "duration": 0.48541666666666666
            },
            {
              "pitch": 59,
              "velocity": 44,
              "position": 1.7708333333333333,
              "duration": 0.48541666666666666
            },
            {
              "pitch": 48,
              "velocity": 38,
              "position": 2.2708333333333335,
              "duration": 0.21458333333333332
            },
            {
              "pitch": 55,
              "velocity": 40,
              "position": 2.2708333333333335,
              "duration": 0.225
            },
            {
              "pitch": 59,
              "velocity": 40,
              "position": 2.2708333333333335,
              "duration": 0.225
            },
            {
              "pitch": 67,
              "velocity": 34,
              "position": 2.25,
              "duration": 0.25625
            },
            {
              "pitch": 71,
              "velocity": 34,
              "position": 2.25,
              "duration": 0.25625
            },
            {
              "pitch": 60,
              "velocity": 42,
              "position": 2.2708333333333335,
              "duration": 0.23541666666666666
            },
            {
              "pitch": 64,
              "velocity": 42,
              "position": 2.2604166666666665,
              "duration": 0.24583333333333332
            },
            {
              "pitch": 67,
              "velocity": 36,
              "position": 2.5208333333333335,
              "duration": 0.21458333333333332
            },
            {
              "pitch": 71,
              "velocity": 36,
              "position": 2.5208333333333335,
              "duration": 0.21458333333333332
            },
            {
              "pitch": 64,
              "velocity": 42,
              "position": 2.5208333333333335,
              "duration": 0.225
            },
            {
              "pitch": 60,
              "velocity": 36,
              "position": 2.5208333333333335,
              "duration": 0.23541666666666666
            },
            {
              "pitch": 48,
              "velocity": 42,
              "position": 2.5,
              "duration": 0.25625
            },
            {
              "pitch": 55,
              "velocity": 45,
              "position": 2.5104166666666665,
              "duration": 0.24583333333333332
            },
            {
              "pitch": 59,
              "velocity": 45,
              "position": 2.5104166666666665,
              "duration": 0.24583333333333332
            },
            {
              "pitch": 48,
              "velocity": 40,
              "position": 2.7708333333333335,
              "duration": 0.21458333333333332
            },
            {
              "pitch": 55,
              "velocity": 34,
              "position": 2.7708333333333335,
              "duration": 0.225
            },
            {
              "pitch": 59,
              "velocity": 34,
              "position": 2.7708333333333335,
              "duration": 0.225
            },
            {
              "pitch": 67,
              "velocity": 34,
              "position": 2.75,
              "duration": 0.25625
            },
            {
              "pitch": 71,
              "velocity": 34,
              "position": 2.75,
              "duration": 0.25625
            },
            {
              "pitch": 60,
              "velocity": 42,
              "position": 2.7708333333333335,
              "duration": 0.23541666666666666
            },
            {
              "pitch": 64,
              "velocity": 36,
              "position": 2.7604166666666665,
              "duration": 0.24583333333333332
            },
            {
              "pitch": 48,
              "velocity": 50,
              "position": 3,
              "duration": 0.48541666666666666
            },
            {
              "pitch": 55,
              "velocity": 46,
              "position": 3.0104166666666665,
              "duration": 0.48541666666666666
            },
            {
              "pitch": 59,
              "velocity": 46,
              "position": 3.0104166666666665,
              "duration": 0.48541666666666666
            },
            {
              "pitch": 60,
              "velocity": 46,
              "position": 3.0208333333333335,
              "duration": 0.48541666666666666
            },
            {
              "pitch": 67,
              "velocity": 48,
              "position": 3.0208333333333335,
              "duration": 0.48541666666666666
            },
            {
              "pitch": 71,
              "velocity": 48,
              "position": 3.0208333333333335,
              "duration": 0.48541666666666666
            },
            {
              "pitch": 64,
              "velocity": 42,
              "position": 3.0208333333333335,
              "duration": 0.48541666666666666
            },
            {
              "pitch": 67,
              "velocity": 45,
              "position": 3.5208333333333335,
              "duration": 0.21458333333333332
            },
            {
              "pitch": 71,
              "velocity": 45,
              "position": 3.5208333333333335,
              "duration": 0.21458333333333332
            },
            {
              "pitch": 64,
              "velocity": 45,
              "position": 3.5208333333333335,
              "duration": 0.225
            },
            {
              "pitch": 60,
              "velocity": 45,
              "position": 3.5208333333333335,
              "duration": 0.23541666666666666
            },
            {
              "pitch": 48,
              "velocity": 45,
              "position": 3.5,
              "duration": 0.25625
            },
            {
              "pitch": 55,
              "velocity": 45,
              "position": 3.5104166666666665,
              "duration": 0.24583333333333332
            },
            {
              "pitch": 59,
              "velocity": 45,
              "position": 3.5104166666666665,
              "duration": 0.24583333333333332
            },
            {
              "pitch": 67,
              "velocity": 32,
              "position": 3.75,
              "duration": 0.23541666666666666
            },
            {
              "pitch": 71,
              "velocity": 32,
              "position": 3.75,
              "duration": 0.23541666666666666
            },
            {
              "pitch": 60,
              "velocity": 28,
              "position": 3.7708333333333335,
              "duration": 0.21458333333333332
            },
            {
              "pitch": 55,
              "velocity": 32,
              "position": 3.7708333333333335,
              "duration": 0.21458333333333332
            },
            {
              "pitch": 59,
              "velocity": 32,
              "position": 3.7708333333333335,
              "duration": 0.21458333333333332
            },
            {
              "pitch": 48,
              "velocity": 32,
              "position": 3.7708333333333335,
              "duration": 0.21458333333333332
            },
            {
              "pitch": 64,
              "velocity": 32,
              "position": 3.7604166666666665,
              "duration": 0.225
            },
            {
              "pitch": 48,
              "velocity": 42,
              "position": 4,
              "duration": 0.48541666666666666
            },
            {
              "pitch": 55,
              "velocity": 36,
              "position": 4.010416666666667,
              "duration": 0.48541666666666666
            },
            {
              "pitch": 59,
              "velocity": 36,
              "position": 4.010416666666667,
              "duration": 0.48541666666666666
            },
            {
              "pitch": 60,
              "velocity": 45,
              "position": 4.020833333333333,
              "duration": 0.48541666666666666
            },
            {
              "pitch": 64,
              "velocity": 45,
              "position": 4.020833333333333,
              "duration": 0.48541666666666666
            },
            {
              "pitch": 67,
              "velocity": 45,
              "position": 4.020833333333333,
              "duration": 0.48541666666666666
            },
            {
              "pitch": 71,
              "velocity": 45,
              "position": 4.020833333333333,
              "duration": 0.48541666666666666
            },
            {
              "pitch": 48,
              "velocity": 32,
              "position": 4.5,
              "duration": 0.48541666666666666
            },
            {
              "pitch": 55,
              "velocity": 32,
              "position": 4.510416666666667,
              "duration": 0.48541666666666666
            },
            {
              "pitch": 59,
              "velocity": 32,
              "position": 4.510416666666667,
              "duration": 0.48541666666666666
            },
            {
              "pitch": 60,
              "velocity": 33,
              "position": 4.520833333333333,
              "duration": 0.48541666666666666
            },
            {
              "pitch": 67,
              "velocity": 38,
              "position": 4.520833333333333,
              "duration": 0.48541666666666666
            },
            {
              "pitch": 71,
              "velocity": 38,
              "position": 4.520833333333333,
              "duration": 0.48541666666666666
            },
            {
              "pitch": 64,
              "velocity": 38,
              "position": 4.520833333333333,
              "duration": 0.48541666666666666
            },
            {
              "pitch": 67,
              "velocity": 48,
              "position": 5.020833333333333,
              "duration": 0.7145833333333333
            },
            {
              "pitch": 71,
              "velocity": 48,
              "position": 5.020833333333333,
              "duration": 0.7145833333333333
            },
            {
              "pitch": 64,
              "velocity": 48,
              "position": 5.020833333333333,
              "duration": 0.725
            },
            {
              "pitch": 60,
              "velocity": 46,
              "position": 5.020833333333333,
              "duration": 0.7354166666666667
            },
            {
              "pitch": 48,
              "velocity": 42,
              "position": 5,
              "duration": 0.75625
            },
            {
              "pitch": 55,
              "velocity": 41,
              "position": 5.010416666666667,
              "duration": 0.7458333333333333
            },
            {
              "pitch": 59,
              "velocity": 41,
              "position": 5.010416666666667,
              "duration": 0.7458333333333333
            },
            {
              "pitch": 67,
              "velocity": 48,
              "position": 5.75,
              "duration": 0.48541666666666666
            },
            {
              "pitch": 71,
              "velocity": 48,
              "position": 5.75,
              "duration": 0.48541666666666666
            },
            {
              "pitch": 64,
              "velocity": 46,
              "position": 5.760416666666667,
              "duration": 0.48541666666666666
            },
            {
              "pitch": 48,
              "velocity": 42,
              "position": 5.770833333333333,
              "duration": 0.48541666666666666
            },
            {
              "pitch": 60,
              "velocity": 44,
              "position": 5.770833333333333,
              "duration": 0.48541666666666666
            },
            {
              "pitch": 55,
              "velocity": 44,
              "position": 5.770833333333333,
              "duration": 0.48541666666666666
            },
            {
              "pitch": 59,
              "velocity": 44,
              "position": 5.770833333333333,
              "duration": 0.48541666666666666
            },
            {
              "pitch": 48,
              "velocity": 38,
              "position": 6.270833333333333,
              "duration": 0.21458333333333332
            },
            {
              "pitch": 55,
              "velocity": 40,
              "position": 6.270833333333333,
              "duration": 0.225
            },
            {
              "pitch": 59,
              "velocity": 40,
              "position": 6.270833333333333,
              "duration": 0.225
            },
            {
              "pitch": 67,
              "velocity": 34,
              "position": 6.25,
              "duration": 0.25625
            },
            {
              "pitch": 71,
              "velocity": 34,
              "position": 6.25,
              "duration": 0.25625
            },
            {
              "pitch": 60,
              "velocity": 42,
              "position": 6.270833333333333,
              "duration": 0.23541666666666666
            },
            {
              "pitch": 64,
              "velocity": 42,
              "position": 6.260416666666667,
              "duration": 0.24583333333333332
            },
            {
              "pitch": 67,
              "velocity": 42,
              "position": 6.520833333333333,
              "duration": 0.21458333333333332
            },
            {
              "pitch": 71,
              "velocity": 42,
              "position": 6.520833333333333,
              "duration": 0.21458333333333332
            },
            {
              "pitch": 64,
              "velocity": 36,
              "position": 6.520833333333333,
              "duration": 0.225
            },
            {
              "pitch": 60,
              "velocity": 36,
              "position": 6.520833333333333,
              "duration": 0.23541666666666666
            },
            {
              "pitch": 48,
              "velocity": 42,
              "position": 6.5,
              "duration": 0.25625
            },
            {
              "pitch": 55,
              "velocity": 45,
              "position": 6.510416666666667,
              "duration": 0.24583333333333332
            },
            {
              "pitch": 59,
              "velocity": 45,
              "position": 6.510416666666667,
              "duration": 0.24583333333333332
            },
            {
              "pitch": 48,
              "velocity": 40,
              "position": 6.770833333333333,
              "duration": 0.21458333333333332
            },
            {
              "pitch": 55,
              "velocity": 34,
              "position": 6.770833333333333,
              "duration": 0.225
            },
            {
              "pitch": 59,
              "velocity": 34,
              "position": 6.770833333333333,
              "duration": 0.225
            },
            {
              "pitch": 67,
              "velocity": 34,
              "position": 6.75,
              "duration": 0.25625
            },
            {
              "pitch": 71,
              "velocity": 34,
              "position": 6.75,
              "duration": 0.25625
            },
            {
              "pitch": 60,
              "velocity": 42,
              "position": 6.770833333333333,
              "duration": 0.23541666666666666
            },
            {
              "pitch": 64,
              "velocity": 34,
              "position": 6.760416666666667,
              "duration": 0.24583333333333332
            },
            {
              "pitch": 48,
              "velocity": 50,
              "position": 7,
              "duration": 0.48541666666666666
            },
            {
              "pitch": 55,
              "velocity": 46,
              "position": 7.010416666666667,
              "duration": 0.48541666666666666
            },
            {
              "pitch": 59,
              "velocity": 46,
              "position": 7.010416666666667,
              "duration": 0.48541666666666666
            },
            {
              "pitch": 60,
              "velocity": 46,
              "position": 7.020833333333333,
              "duration": 0.48541666666666666
            },
            {
              "pitch": 67,
              "velocity": 48,
              "position": 7.020833333333333,
              "duration": 0.48541666666666666
            },
            {
              "pitch": 71,
              "velocity": 48,
              "position": 7.020833333333333,
              "duration": 0.48541666666666666
            },
            {
              "pitch": 64,
              "velocity": 48,
              "position": 7.020833333333333,
              "duration": 0.48541666666666666
            },
            {
              "pitch": 67,
              "velocity": 45,
              "position": 7.520833333333333,
              "duration": 0.21458333333333332
            },
            {
              "pitch": 71,
              "velocity": 45,
              "position": 7.520833333333333,
              "duration": 0.21458333333333332
            },
            {
              "pitch": 64,
              "velocity": 45,
              "position": 7.520833333333333,
              "duration": 0.225
            },
            {
              "pitch": 60,
              "velocity": 45,
              "position": 7.520833333333333,
              "duration": 0.23541666666666666
            },
            {
              "pitch": 48,
              "velocity": 45,
              "position": 7.5,
              "duration": 0.25625
            },
            {
              "pitch": 55,
              "velocity": 45,
              "position": 7.510416666666667,
              "duration": 0.24583333333333332
            },
            {
              "pitch": 59,
              "velocity": 45,
              "position": 7.510416666666667,
              "duration": 0.24583333333333332
            },
            {
              "pitch": 67,
              "velocity": 32,
              "position": 7.75,
              "duration": 0.23541666666666666
            },
            {
              "pitch": 71,
              "velocity": 32,
              "position": 7.75,
              "duration": 0.23541666666666666
            },
            {
              "pitch": 60,
              "velocity": 28,
              "position": 7.770833333333333,
              "duration": 0.21458333333333332
            },
            {
              "pitch": 55,
              "velocity": 32,
              "position": 7.770833333333333,
              "duration": 0.21458333333333332
            },
            {
              "pitch": 59,
              "velocity": 32,
              "position": 7.770833333333333,
              "duration": 0.21458333333333332
            },
            {
              "pitch": 48,
              "velocity": 32,
              "position": 7.770833333333333,
              "duration": 0.21458333333333332
            },
            {
              "pitch": 64,
              "velocity": 32,
              "position": 7.760416666666667,
              "duration": 0.225
            },
            {
              "pitch": 48,
              "velocity": 42,
              "position": 8,
              "duration": 0.48541666666666666
            },
            {
              "pitch": 55,
              "velocity": 36,
              "position": 8.010416666666666,
              "duration": 0.48541666666666666
            },
            {
              "pitch": 59,
              "velocity": 36,
              "position": 8.010416666666666,
              "duration": 0.48541666666666666
            },
            {
              "pitch": 60,
              "velocity": 45,
              "position": 8.020833333333334,
              "duration": 0.48541666666666666
            },
            {
              "pitch": 64,
              "velocity": 45,
              "position": 8.020833333333334,
              "duration": 0.48541666666666666
            },
            {
              "pitch": 67,
              "velocity": 45,
              "position": 8.020833333333334,
              "duration": 0.48541666666666666
            },
            {
              "pitch": 71,
              "velocity": 45,
              "position": 8.020833333333334,
              "duration": 0.48541666666666666
            },
            {
              "pitch": 48,
              "velocity": 32,
              "position": 8.5,
              "duration": 0.48541666666666666
            },
            {
              "pitch": 55,
              "velocity": 32,
              "position": 8.510416666666666,
              "duration": 0.48541666666666666
            },
            {
              "pitch": 59,
              "velocity": 32,
              "position": 8.510416666666666,
              "duration": 0.48541666666666666
            },
            {
              "pitch": 60,
              "velocity": 33,
              "position": 8.520833333333334,
              "duration": 0.48541666666666666
            },
            {
              "pitch": 67,
              "velocity": 38,
              "position": 8.520833333333334,
              "duration": 0.48541666666666666
            },
            {
              "pitch": 71,
              "velocity": 38,
              "position": 8.520833333333334,
              "duration": 0.48541666666666666
            },
            {
              "pitch": 64,
              "velocity": 38,
              "position": 8.520833333333334,
              "duration": 0.48541666666666666
            },
            {
              "pitch": 67,
              "velocity": 48,
              "position": 9.020833333333334,
              "duration": 0.7145833333333333
            },
            {
              "pitch": 71,
              "velocity": 48,
              "position": 9.020833333333334,
              "duration": 0.7145833333333333
            },
            {
              "pitch": 64,
              "velocity": 48,
              "position": 9.020833333333334,
              "duration": 0.725
            },
            {
              "pitch": 60,
              "velocity": 46,
              "position": 9.020833333333334,
              "duration": 0.7354166666666667
            },
            {
              "pitch": 48,
              "velocity": 42,
              "position": 9,
              "duration": 0.75625
            },
            {
              "pitch": 55,
              "velocity": 41,
              "position": 9.010416666666666,
              "duration": 0.7458333333333333
            },
            {
              "pitch": 59,
              "velocity": 41,
              "position": 9.010416666666666,
              "duration": 0.7458333333333333
            },
            {
              "pitch": 67,
              "velocity": 48,
              "position": 9.75,
              "duration": 0.48541666666666666
            },
            {
              "pitch": 71,
              "velocity": 48,
              "position": 9.75,
              "duration": 0.48541666666666666
            },
            {
              "pitch": 64,
              "velocity": 46,
              "position": 9.760416666666666,
              "duration": 0.48541666666666666
            },
            {
              "pitch": 48,
              "velocity": 42,
              "position": 9.770833333333334,
              "duration": 0.48541666666666666
            },
            {
              "pitch": 60,
              "velocity": 44,
              "position": 9.770833333333334,
              "duration": 0.48541666666666666
            },
            {
              "pitch": 55,
              "velocity": 44,
              "position": 9.770833333333334,
              "duration": 0.48541666666666666
            },
            {
              "pitch": 59,
              "velocity": 44,
              "position": 9.770833333333334,
              "duration": 0.48541666666666666
            },
            {
              "pitch": 48,
              "velocity": 38,
              "position": 10.270833333333334,
              "duration": 0.21458333333333332
            },
            {
              "pitch": 55,
              "velocity": 40,
              "position": 10.270833333333334,
              "duration": 0.225
            },
            {
              "pitch": 59,
              "velocity": 40,
              "position": 10.270833333333334,
              "duration": 0.225
            },
            {
              "pitch": 67,
              "velocity": 34,
              "position": 10.25,
              "duration": 0.25625
            },
            {
              "pitch": 71,
              "velocity": 34,
              "position": 10.25,
              "duration": 0.25625
            },
            {
              "pitch": 60,
              "velocity": 42,
              "position": 10.270833333333334,
              "duration": 0.23541666666666666
            },
            {
              "pitch": 64,
              "velocity": 42,
              "position": 10.260416666666666,
              "duration": 0.24583333333333332
            },
            {
              "pitch": 67,
              "velocity": 36,
              "position": 10.520833333333334,
              "duration": 0.21458333333333332
            },
            {
              "pitch": 71,
              "velocity": 36,
              "position": 10.520833333333334,
              "duration": 0.21458333333333332
            },
            {
              "pitch": 64,
              "velocity": 42,
              "position": 10.520833333333334,
              "duration": 0.225
            },
            {
              "pitch": 60,
              "velocity": 36,
              "position": 10.520833333333334,
              "duration": 0.23541666666666666
            },
            {
              "pitch": 48,
              "velocity": 42,
              "position": 10.5,
              "duration": 0.25625
            },
            {
              "pitch": 55,
              "velocity": 45,
              "position": 10.510416666666666,
              "duration": 0.24583333333333332
            },
            {
              "pitch": 59,
              "velocity": 45,
              "position": 10.510416666666666,
              "duration": 0.24583333333333332
            },
            {
              "pitch": 48,
              "velocity": 40,
              "position": 10.770833333333334,
              "duration": 0.21458333333333332
            },
            {
              "pitch": 55,
              "velocity": 34,
              "position": 10.770833333333334,
              "duration": 0.225
            },
            {
              "pitch": 59,
              "velocity": 34,
              "position": 10.770833333333334,
              "duration": 0.225
            },
            {
              "pitch": 67,
              "velocity": 34,
              "position": 10.75,
              "duration": 0.25625
            },
            {
              "pitch": 71,
              "velocity": 34,
              "position": 10.75,
              "duration": 0.25625
            },
            {
              "pitch": 60,
              "velocity": 42,
              "position": 10.770833333333334,
              "duration": 0.23541666666666666
            },
            {
              "pitch": 64,
              "velocity": 36,
              "position": 10.760416666666666,
              "duration": 0.24583333333333332
            },
            {
              "pitch": 48,
              "velocity": 50,
              "position": 11,
              "duration": 0.48541666666666666
            },
            {
              "pitch": 55,
              "velocity": 46,
              "position": 11.010416666666666,
              "duration": 0.48541666666666666
            },
            {
              "pitch": 59,
              "velocity": 46,
              "position": 11.010416666666666,
              "duration": 0.48541666666666666
            },
            {
              "pitch": 60,
              "velocity": 46,
              "position": 11.020833333333334,
              "duration": 0.48541666666666666
            },
            {
              "pitch": 67,
              "velocity": 48,
              "position": 11.020833333333334,
              "duration": 0.48541666666666666
            },
            {
              "pitch": 71,
              "velocity": 48,
              "position": 11.020833333333334,
              "duration": 0.48541666666666666
            },
            {
              "pitch": 64,
              "velocity": 42,
              "position": 11.020833333333334,
              "duration": 0.48541666666666666
            },
            {
              "pitch": 67,
              "velocity": 45,
              "position": 11.520833333333334,
              "duration": 0.21458333333333332
            },
            {
              "pitch": 71,
              "velocity": 45,
              "position": 11.520833333333334,
              "duration": 0.21458333333333332
            },
            {
              "pitch": 64,
              "velocity": 45,
              "position": 11.520833333333334,
              "duration": 0.225
            },
            {
              "pitch": 60,
              "velocity": 45,
              "position": 11.520833333333334,
              "duration": 0.23541666666666666
            },
            {
              "pitch": 48,
              "velocity": 45,
              "position": 11.5,
              "duration": 0.25625
            },
            {
              "pitch": 55,
              "velocity": 45,
              "position": 11.510416666666666,
              "duration": 0.24583333333333332
            },
            {
              "pitch": 59,
              "velocity": 45,
              "position": 11.510416666666666,
              "duration": 0.24583333333333332
            },
            {
              "pitch": 67,
              "velocity": 32,
              "position": 11.75,
              "duration": 0.23541666666666666
            },
            {
              "pitch": 71,
              "velocity": 32,
              "position": 11.75,
              "duration": 0.23541666666666666
            },
            {
              "pitch": 60,
              "velocity": 28,
              "position": 11.770833333333334,
              "duration": 0.21458333333333332
            },
            {
              "pitch": 55,
              "velocity": 32,
              "position": 11.770833333333334,
              "duration": 0.21458333333333332
            },
            {
              "pitch": 59,
              "velocity": 32,
              "position": 11.770833333333334,
              "duration": 0.21458333333333332
            },
            {
              "pitch": 48,
              "velocity": 32,
              "position": 11.770833333333334,
              "duration": 0.21458333333333332
            },
            {
              "pitch": 64,
              "velocity": 32,
              "position": 11.760416666666666,
              "duration": 0.225
            },
            {
              "pitch": 48,
              "velocity": 42,
              "position": 12,
              "duration": 0.48541666666666666
            },
            {
              "pitch": 55,
              "velocity": 36,
              "position": 12.010416666666666,
              "duration": 0.48541666666666666
            },
            {
              "pitch": 59,
              "velocity": 36,
              "position": 12.010416666666666,
              "duration": 0.48541666666666666
            },
            {
              "pitch": 60,
              "velocity": 45,
              "position": 12.020833333333334,
              "duration": 0.48541666666666666
            },
            {
              "pitch": 64,
              "velocity": 45,
              "position": 12.020833333333334,
              "duration": 0.48541666666666666
            },
            {
              "pitch": 67,
              "velocity": 45,
              "position": 12.020833333333334,
              "duration": 0.48541666666666666
            },
            {
              "pitch": 71,
              "velocity": 45,
              "position": 12.020833333333334,
              "duration": 0.48541666666666666
            },
            {
              "pitch": 48,
              "velocity": 32,
              "position": 12.5,
              "duration": 0.48541666666666666
            },
            {
              "pitch": 55,
              "velocity": 32,
              "position": 12.510416666666666,
              "duration": 0.48541666666666666
            },
            {
              "pitch": 59,
              "velocity": 32,
              "position": 12.510416666666666,
              "duration": 0.48541666666666666
            },
            {
              "pitch": 60,
              "velocity": 33,
              "position": 12.520833333333334,
              "duration": 0.48541666666666666
            },
            {
              "pitch": 67,
              "velocity": 38,
              "position": 12.520833333333334,
              "duration": 0.48541666666666666
            },
            {
              "pitch": 71,
              "velocity": 38,
              "position": 12.520833333333334,
              "duration": 0.48541666666666666
            },
            {
              "pitch": 64,
              "velocity": 38,
              "position": 12.520833333333334,
              "duration": 0.48541666666666666
            },
            {
              "pitch": 67,
              "velocity": 48,
              "position": 13.020833333333334,
              "duration": 0.7145833333333333
            },
            {
              "pitch": 71,
              "velocity": 48,
              "position": 13.020833333333334,
              "duration": 0.7145833333333333
            },
            {
              "pitch": 64,
              "velocity": 48,
              "position": 13.020833333333334,
              "duration": 0.725
            },
            {
              "pitch": 60,
              "velocity": 46,
              "position": 13.020833333333334,
              "duration": 0.7354166666666667
            },
            {
              "pitch": 48,
              "velocity": 42,
              "position": 13,
              "duration": 0.75625
            },
            {
              "pitch": 55,
              "velocity": 41,
              "position": 13.010416666666666,
              "duration": 0.7458333333333333
            },
            {
              "pitch": 59,
              "velocity": 41,
              "position": 13.010416666666666,
              "duration": 0.7458333333333333
            },
            {
              "pitch": 67,
              "velocity": 48,
              "position": 13.75,
              "duration": 0.48541666666666666
            },
            {
              "pitch": 71,
              "velocity": 48,
              "position": 13.75,
              "duration": 0.48541666666666666
            },
            {
              "pitch": 64,
              "velocity": 46,
              "position": 13.760416666666666,
              "duration": 0.48541666666666666
            },
            {
              "pitch": 48,
              "velocity": 42,
              "position": 13.770833333333334,
              "duration": 0.48541666666666666
            },
            {
              "pitch": 60,
              "velocity": 44,
              "position": 13.770833333333334,
              "duration": 0.48541666666666666
            },
            {
              "pitch": 55,
              "velocity": 44,
              "position": 13.770833333333334,
              "duration": 0.48541666666666666
            },
            {
              "pitch": 59,
              "velocity": 44,
              "position": 13.770833333333334,
              "duration": 0.48541666666666666
            },
            {
              "pitch": 48,
              "velocity": 38,
              "position": 14.270833333333334,
              "duration": 0.21458333333333332
            },
            {
              "pitch": 55,
              "velocity": 40,
              "position": 14.270833333333334,
              "duration": 0.225
            },
            {
              "pitch": 59,
              "velocity": 40,
              "position": 14.270833333333334,
              "duration": 0.225
            },
            {
              "pitch": 67,
              "velocity": 34,
              "position": 14.25,
              "duration": 0.25625
            },
            {
              "pitch": 71,
              "velocity": 34,
              "position": 14.25,
              "duration": 0.25625
            },
            {
              "pitch": 60,
              "velocity": 42,
              "position": 14.270833333333334,
              "duration": 0.23541666666666666
            },
            {
              "pitch": 64,
              "velocity": 42,
              "position": 14.260416666666666,
              "duration": 0.24583333333333332
            },
            {
              "pitch": 67,
              "velocity": 42,
              "position": 14.520833333333334,
              "duration": 0.21458333333333332
            },
            {
              "pitch": 71,
              "velocity": 42,
              "position": 14.520833333333334,
              "duration": 0.21458333333333332
            },
            {
              "pitch": 64,
              "velocity": 36,
              "position": 14.520833333333334,
              "duration": 0.225
            },
            {
              "pitch": 60,
              "velocity": 36,
              "position": 14.520833333333334,
              "duration": 0.23541666666666666
            },
            {
              "pitch": 48,
              "velocity": 42,
              "position": 14.5,
              "duration": 0.25625
            },
            {
              "pitch": 55,
              "velocity": 45,
              "position": 14.510416666666666,
              "duration": 0.24583333333333332
            },
            {
              "pitch": 59,
              "velocity": 45,
              "position": 14.510416666666666,
              "duration": 0.24583333333333332
            },
            {
              "pitch": 48,
              "velocity": 40,
              "position": 14.770833333333334,
              "duration": 0.21458333333333332
            },
            {
              "pitch": 55,
              "velocity": 34,
              "position": 14.770833333333334,
              "duration": 0.225
            },
            {
              "pitch": 59,
              "velocity": 34,
              "position": 14.770833333333334,
              "duration": 0.225
            },
            {
              "pitch": 67,
              "velocity": 34,
              "position": 14.75,
              "duration": 0.25625
            },
            {
              "pitch": 71,
              "velocity": 34,
              "position": 14.75,
              "duration": 0.25625
            },
            {
              "pitch": 60,
              "velocity": 42,
              "position": 14.770833333333334,
              "duration": 0.23541666666666666
            },
            {
              "pitch": 64,
              "velocity": 34,
              "position": 14.760416666666666,
              "duration": 0.24583333333333332
            },
            {
              "pitch": 48,
              "velocity": 50,
              "position": 15,
              "duration": 0.48541666666666666
            },
            {
              "pitch": 55,
              "velocity": 46,
              "position": 15.010416666666666,
              "duration": 0.48541666666666666
            },
            {
              "pitch": 59,
              "velocity": 46,
              "position": 15.010416666666666,
              "duration": 0.48541666666666666
            },
            {
              "pitch": 60,
              "velocity": 46,
              "position": 15.020833333333334,
              "duration": 0.48541666666666666
            },
            {
              "pitch": 67,
              "velocity": 48,
              "position": 15.020833333333334,
              "duration": 0.48541666666666666
            },
            {
              "pitch": 71,
              "velocity": 48,
              "position": 15.020833333333334,
              "duration": 0.48541666666666666
            },
            {
              "pitch": 64,
              "velocity": 48,
              "position": 15.020833333333334,
              "duration": 0.48541666666666666
            },
            {
              "pitch": 67,
              "velocity": 45,
              "position": 15.520833333333334,
              "duration": 0.21458333333333332
            },
            {
              "pitch": 71,
              "velocity": 45,
              "position": 15.520833333333334,
              "duration": 0.21458333333333332
            },
            {
              "pitch": 64,
              "velocity": 45,
              "position": 15.520833333333334,
              "duration": 0.225
            },
            {
              "pitch": 60,
              "velocity": 45,
              "position": 15.520833333333334,
              "duration": 0.23541666666666666
            },
            {
              "pitch": 48,
              "velocity": 45,
              "position": 15.5,
              "duration": 0.25625
            },
            {
              "pitch": 55,
              "velocity": 45,
              "position": 15.510416666666666,
              "duration": 0.24583333333333332
            },
            {
              "pitch": 59,
              "velocity": 45,
              "position": 15.510416666666666,
              "duration": 0.24583333333333332
            },
            {
              "pitch": 67,
              "velocity": 32,
              "position": 15.75,
              "duration": 0.23541666666666666
            },
            {
              "pitch": 71,
              "velocity": 32,
              "position": 15.75,
              "duration": 0.23541666666666666
            },
            {
              "pitch": 60,
              "velocity": 28,
              "position": 15.770833333333334,
              "duration": 0.21458333333333332
            },
            {
              "pitch": 55,
              "velocity": 32,
              "position": 15.770833333333334,
              "duration": 0.21458333333333332
            },
            {
              "pitch": 59,
              "velocity": 32,
              "position": 15.770833333333334,
              "duration": 0.21458333333333332
            },
            {
              "pitch": 48,
              "velocity": 32,
              "position": 15.770833333333334,
              "duration": 0.21458333333333332
            },
            {
              "pitch": 64,
              "velocity": 32,
              "position": 15.760416666666666,
              "duration": 0.225
            }
          ]
        },
        "12": {
          "ctab": {
            "srcChannel": 12,
            "name": "HistrGtr",
            "accType": "CHORD2",
            "editable": false,
            "mutedNotes": [],
            "mutedChords": [],
            "autoStart": false,
            "sourceChordNote": 0,
            "sourceChordType": "Maj7",
            "ctb2Low": null,
            "ctb2Main": {
              "ntr": "ROOT_TRANSPOSITION",
              "ntt": "MELODY",
              "bassOn": true,
              "chordRootUpperLimit": 6,
              "noteLowLimit": 0,
              "noteHighLimit": 127,
              "rtr": "PITCH_SHIFT"
            },
            "ctb2High": null
          },
          "notes": [
            {
              "pitch": 48,
              "velocity": 8,
              "position": 0.010416666666666666,
              "duration": 0.12083333333333333
            },
            {
              "pitch": 55,
              "velocity": 8,
              "position": 0.010416666666666666,
              "duration": 0.12083333333333333
            },
            {
              "pitch": 59,
              "velocity": 8,
              "position": 0.010416666666666666,
              "duration": 0.12083333333333333
            },
            {
              "pitch": 64,
              "velocity": 8,
              "position": 0.020833333333333332,
              "duration": 0.12083333333333333
            },
            {
              "pitch": 60,
              "velocity": 8,
              "position": 0.020833333333333332,
              "duration": 0.12083333333333333
            },
            {
              "pitch": 67,
              "velocity": 8,
              "position": 0.020833333333333332,
              "duration": 0.12083333333333333
            },
            {
              "pitch": 71,
              "velocity": 8,
              "position": 0.020833333333333332,
              "duration": 0.12083333333333333
            },
            {
              "pitch": 67,
              "velocity": 8,
              "position": 0.25,
              "duration": 0.12083333333333333
            },
            {
              "pitch": 71,
              "velocity": 8,
              "position": 0.25,
              "duration": 0.12083333333333333
            },
            {
              "pitch": 64,
              "velocity": 8,
              "position": 0.2604166666666667,
              "duration": 0.12083333333333333
            },
            {
              "pitch": 55,
              "velocity": 8,
              "position": 0.2708333333333333,
              "duration": 0.12083333333333333
            },
            {
              "pitch": 59,
              "velocity": 8,
              "position": 0.2708333333333333,
              "duration": 0.12083333333333333
            },
            {
              "pitch": 48,
              "velocity": 8,
              "position": 0.2708333333333333,
              "duration": 0.12083333333333333
            },
            {
              "pitch": 60,
              "velocity": 8,
              "position": 0.2708333333333333,
              "duration": 0.12083333333333333
            },
            {
              "pitch": 48,
              "velocity": 8,
              "position": 0.5,
              "duration": 0.12083333333333333
            },
            {
              "pitch": 55,
              "velocity": 8,
              "position": 0.5104166666666666,
              "duration": 0.12083333333333333
            },
            {
              "pitch": 59,
              "velocity": 8,
              "position": 0.5104166666666666,
              "duration": 0.12083333333333333
            },
            {
              "pitch": 64,
              "velocity": 8,
              "position": 0.5208333333333334,
              "duration": 0.12083333333333333
            },
            {
              "pitch": 60,
              "velocity": 8,
              "position": 0.5208333333333334,
              "duration": 0.12083333333333333
            },
            {
              "pitch": 67,
              "velocity": 8,
              "position": 0.5208333333333334,
              "duration": 0.12083333333333333
            },
            {
              "pitch": 71,
              "velocity": 8,
              "position": 0.5208333333333334,
              "duration": 0.12083333333333333
            },
            {
              "pitch": 67,
              "velocity": 8,
              "position": 0.75,
              "duration": 0.12083333333333333
            },
            {
              "pitch": 71,
              "velocity": 8,
              "position": 0.75,
              "duration": 0.12083333333333333
            },
            {
              "pitch": 64,
              "velocity": 8,
              "position": 0.7604166666666666,
              "duration": 0.12083333333333333
            },
            {
              "pitch": 55,
              "velocity": 8,
              "position": 0.7708333333333334,
              "duration": 0.12083333333333333
            },
            {
              "pitch": 59,
              "velocity": 8,
              "position": 0.7708333333333334,
              "duration": 0.12083333333333333
            },
            {
              "pitch": 48,
              "velocity": 8,
              "position": 0.7708333333333334,
              "duration": 0.12083333333333333
            },
            {
              "pitch": 60,
              "velocity": 8,
              "position": 0.7708333333333334,
              "duration": 0.12083333333333333
            },
            {
              "pitch": 67,
              "velocity": 69,
              "position": 1.0208333333333333,
              "duration": 0.7145833333333333
            },
            {
              "pitch": 71,
              "velocity": 69,
              "position": 1.0208333333333333,
              "duration": 0.7145833333333333
            },
            {
              "pitch": 64,
              "velocity": 67,
              "position": 1.0208333333333333,
              "duration": 0.725
            },
            {
              "pitch": 60,
              "velocity": 60,
              "position": 1.0208333333333333,
              "duration": 0.7354166666666667
            },
            {
              "pitch": 48,
              "velocity": 50,
              "position": 1,
              "duration": 0.75625
            },
            {
              "pitch": 55,
              "velocity": 55,
              "position": 1.0104166666666667,
              "duration": 0.7458333333333333
            },
            {
              "pitch": 59,
              "velocity": 55,
              "position": 1.0104166666666667,
              "duration": 0.7458333333333333
            },
            {
              "pitch": 48,
              "velocity": 70,
              "position": 1.7708333333333333,
              "duration": 0.21458333333333332
            },
            {
              "pitch": 55,
              "velocity": 70,
              "position": 1.7708333333333333,
              "duration": 0.225
            },
            {
              "pitch": 59,
              "velocity": 70,
              "position": 1.7708333333333333,
              "duration": 0.225
            },
            {
              "pitch": 67,
              "velocity": 70,
              "position": 1.75,
              "duration": 0.25625
            },
            {
              "pitch": 71,
              "velocity": 70,
              "position": 1.75,
              "duration": 0.25625
            },
            {
              "pitch": 60,
              "velocity": 70,
              "position": 1.7708333333333333,
              "duration": 0.23541666666666666
            },
            {
              "pitch": 64,
              "velocity": 70,
              "position": 1.7604166666666667,
              "duration": 0.24583333333333332
            },
            {
              "pitch": 48,
              "velocity": 8,
              "position": 2,
              "duration": 0.12083333333333333
            },
            {
              "pitch": 55,
              "velocity": 8,
              "position": 2.0104166666666665,
              "duration": 0.12083333333333333
            },
            {
              "pitch": 59,
              "velocity": 8,
              "position": 2.0104166666666665,
              "duration": 0.12083333333333333
            },
            {
              "pitch": 64,
              "velocity": 8,
              "position": 2.0208333333333335,
              "duration": 0.12083333333333333
            },
            {
              "pitch": 60,
              "velocity": 8,
              "position": 2.0208333333333335,
              "duration": 0.12083333333333333
            },
            {
              "pitch": 67,
              "velocity": 8,
              "position": 2.0208333333333335,
              "duration": 0.12083333333333333
            },
            {
              "pitch": 71,
              "velocity": 8,
              "position": 2.0208333333333335,
              "duration": 0.12083333333333333
            },
            {
              "pitch": 67,
              "velocity": 8,
              "position": 2.25,
              "duration": 0.12083333333333333
            },
            {
              "pitch": 71,
              "velocity": 8,
              "position": 2.25,
              "duration": 0.12083333333333333
            },
            {
              "pitch": 64,
              "velocity": 8,
              "position": 2.2604166666666665,
              "duration": 0.12083333333333333
            },
            {
              "pitch": 55,
              "velocity": 8,
              "position": 2.2708333333333335,
              "duration": 0.12083333333333333
            },
            {
              "pitch": 59,
              "velocity": 8,
              "position": 2.2708333333333335,
              "duration": 0.12083333333333333
            },
            {
              "pitch": 48,
              "velocity": 8,
              "position": 2.2708333333333335,
              "duration": 0.12083333333333333
            },
            {
              "pitch": 60,
              "velocity": 8,
              "position": 2.2708333333333335,
              "duration": 0.12083333333333333
            },
            {
              "pitch": 48,
              "velocity": 8,
              "position": 2.5,
              "duration": 0.12083333333333333
            },
            {
              "pitch": 55,
              "velocity": 8,
              "position": 2.5104166666666665,
              "duration": 0.12083333333333333
            },
            {
              "pitch": 59,
              "velocity": 8,
              "position": 2.5104166666666665,
              "duration": 0.12083333333333333
            },
            {
              "pitch": 64,
              "velocity": 8,
              "position": 2.5208333333333335,
              "duration": 0.12083333333333333
            },
            {
              "pitch": 60,
              "velocity": 8,
              "position": 2.5208333333333335,
              "duration": 0.12083333333333333
            },
            {
              "pitch": 67,
              "velocity": 8,
              "position": 2.5208333333333335,
              "duration": 0.12083333333333333
            },
            {
              "pitch": 71,
              "velocity": 8,
              "position": 2.5208333333333335,
              "duration": 0.12083333333333333
            },
            {
              "pitch": 67,
              "velocity": 8,
              "position": 2.75,
              "duration": 0.12083333333333333
            },
            {
              "pitch": 71,
              "velocity": 8,
              "position": 2.75,
              "duration": 0.12083333333333333
            },
            {
              "pitch": 64,
              "velocity": 8,
              "position": 2.7604166666666665,
              "duration": 0.12083333333333333
            },
            {
              "pitch": 55,
              "velocity": 8,
              "position": 2.7708333333333335,
              "duration": 0.12083333333333333
            },
            {
              "pitch": 59,
              "velocity": 8,
              "position": 2.7708333333333335,
              "duration": 0.12083333333333333
            },
            {
              "pitch": 48,
              "velocity": 8,
              "position": 2.7708333333333335,
              "duration": 0.12083333333333333
            },
            {
              "pitch": 60,
              "velocity": 8,
              "position": 2.7708333333333335,
              "duration": 0.12083333333333333
            },
            {
              "pitch": 48,
              "velocity": 65,
              "position": 3,
              "duration": 0.48541666666666666
            },
            {
              "pitch": 67,
              "velocity": 75,
              "position": 3.0208333333333335,
              "duration": 0.46458333333333335
            },
            {
              "pitch": 71,
              "velocity": 75,
              "position": 3.0208333333333335,
              "duration": 0.46458333333333335
            },
            {
              "pitch": 55,
              "velocity": 70,
              "position": 3.0104166666666665,
              "duration": 0.48541666666666666
            },
            {
              "pitch": 59,
              "velocity": 70,
              "position": 3.0104166666666665,
              "duration": 0.48541666666666666
            },
            {
              "pitch": 64,
              "velocity": 75,
              "position": 3.0208333333333335,
              "duration": 0.475
            },
            {
              "pitch": 60,
              "velocity": 65,
              "position": 3.0208333333333335,
              "duration": 0.48541666666666666
            },
            {
              "pitch": 48,
              "velocity": 8,
              "position": 3.5,
              "duration": 0.12083333333333333
            },
            {
              "pitch": 55,
              "velocity": 8,
              "position": 3.5104166666666665,
              "duration": 0.12083333333333333
            },
            {
              "pitch": 59,
              "velocity": 8,
              "position": 3.5104166666666665,
              "duration": 0.12083333333333333
            },
            {
              "pitch": 64,
              "velocity": 8,
              "position": 3.5208333333333335,
              "duration": 0.12083333333333333
            },
            {
              "pitch": 60,
              "velocity": 8,
              "position": 3.5208333333333335,
              "duration": 0.12083333333333333
            },
            {
              "pitch": 67,
              "velocity": 8,
              "position": 3.5208333333333335,
              "duration": 0.12083333333333333
            },
            {
              "pitch": 71,
              "velocity": 8,
              "position": 3.5208333333333335,
              "duration": 0.12083333333333333
            },
            {
              "pitch": 67,
              "velocity": 8,
              "position": 3.75,
              "duration": 0.12083333333333333
            },
            {
              "pitch": 71,
              "velocity": 8,
              "position": 3.75,
              "duration": 0.12083333333333333
            },
            {
              "pitch": 64,
              "velocity": 8,
              "position": 3.7604166666666665,
              "duration": 0.12083333333333333
            },
            {
              "pitch": 55,
              "velocity": 8,
              "position": 3.7708333333333335,
              "duration": 0.12083333333333333
            },
            {
              "pitch": 59,
              "velocity": 8,
              "position": 3.7708333333333335,
              "duration": 0.12083333333333333
            },
            {
              "pitch": 48,
              "velocity": 8,
              "position": 3.7708333333333335,
              "duration": 0.12083333333333333
            },
            {
              "pitch": 60,
              "velocity": 8,
              "position": 3.7708333333333335,
              "duration": 0.12083333333333333
            },
            {
              "pitch": 48,
              "velocity": 8,
              "position": 4,
              "duration": 0.12083333333333333
            },
            {
              "pitch": 55,
              "velocity": 8,
              "position": 4.010416666666667,
              "duration": 0.12083333333333333
            },
            {
              "pitch": 59,
              "velocity": 8,
              "position": 4.010416666666667,
              "duration": 0.12083333333333333
            },
            {
              "pitch": 64,
              "velocity": 8,
              "position": 4.020833333333333,
              "duration": 0.12083333333333333
            },
            {
              "pitch": 60,
              "velocity": 8,
              "position": 4.020833333333333,
              "duration": 0.12083333333333333
            },
            {
              "pitch": 67,
              "velocity": 8,
              "position": 4.020833333333333,
              "duration": 0.12083333333333333
            },
            {
              "pitch": 71,
              "velocity": 8,
              "position": 4.020833333333333,
              "duration": 0.12083333333333333
            },
            {
              "pitch": 67,
              "velocity": 8,
              "position": 4.25,
              "duration": 0.12083333333333333
            },
            {
              "pitch": 71,
              "velocity": 8,
              "position": 4.25,
              "duration": 0.12083333333333333
            },
            {
              "pitch": 64,
              "velocity": 8,
              "position": 4.260416666666667,
              "duration": 0.12083333333333333
            },
            {
              "pitch": 55,
              "velocity": 8,
              "position": 4.270833333333333,
              "duration": 0.12083333333333333
            },
            {
              "pitch": 59,
              "velocity": 8,
              "position": 4.270833333333333,
              "duration": 0.12083333333333333
            },
            {
              "pitch": 48,
              "velocity": 8,
              "position": 4.270833333333333,
              "duration": 0.12083333333333333
            },
            {
              "pitch": 60,
              "velocity": 8,
              "position": 4.270833333333333,
              "duration": 0.12083333333333333
            },
            {
              "pitch": 48,
              "velocity": 8,
              "position": 4.5,
              "duration": 0.12083333333333333
            },
            {
              "pitch": 55,
              "velocity": 8,
              "position": 4.510416666666667,
              "duration": 0.12083333333333333
            },
            {
              "pitch": 59,
              "velocity": 8,
              "position": 4.510416666666667,
              "duration": 0.12083333333333333
            },
            {
              "pitch": 64,
              "velocity": 8,
              "position": 4.520833333333333,
              "duration": 0.12083333333333333
            },
            {
              "pitch": 60,
              "velocity": 8,
              "position": 4.520833333333333,
              "duration": 0.12083333333333333
            },
            {
              "pitch": 67,
              "velocity": 8,
              "position": 4.520833333333333,
              "duration": 0.12083333333333333
            },
            {
              "pitch": 71,
              "velocity": 8,
              "position": 4.520833333333333,
              "duration": 0.12083333333333333
            },
            {
              "pitch": 67,
              "velocity": 8,
              "position": 4.75,
              "duration": 0.12083333333333333
            },
            {
              "pitch": 71,
              "velocity": 8,
              "position": 4.75,
              "duration": 0.12083333333333333
            },
            {
              "pitch": 64,
              "velocity": 8,
              "position": 4.760416666666667,
              "duration": 0.12083333333333333
            },
            {
              "pitch": 55,
              "velocity": 8,
              "position": 4.770833333333333,
              "duration": 0.12083333333333333
            },
            {
              "pitch": 59,
              "velocity": 8,
              "position": 4.770833333333333,
              "duration": 0.12083333333333333
            },
            {
              "pitch": 48,
              "velocity": 8,
              "position": 4.770833333333333,
              "duration": 0.12083333333333333
            },
            {
              "pitch": 60,
              "velocity": 8,
              "position": 4.770833333333333,
              "duration": 0.12083333333333333
            },
            {
              "pitch": 67,
              "velocity": 69,
              "position": 5.020833333333333,
              "duration": 0.7145833333333333
            },
            {
              "pitch": 71,
              "velocity": 69,
              "position": 5.020833333333333,
              "duration": 0.7145833333333333
            },
            {
              "pitch": 64,
              "velocity": 67,
              "position": 5.020833333333333,
              "duration": 0.725
            },
            {
              "pitch": 60,
              "velocity": 70,
              "position": 5.020833333333333,
              "duration": 0.7354166666666667
            },
            {
              "pitch": 48,
              "velocity": 60,
              "position": 5,
              "duration": 0.75625
            },
            {
              "pitch": 55,
              "velocity": 65,
              "position": 5.010416666666667,
              "duration": 0.7458333333333333
            },
            {
              "pitch": 59,
              "velocity": 65,
              "position": 5.010416666666667,
              "duration": 0.7458333333333333
            },
            {
              "pitch": 48,
              "velocity": 70,
              "position": 5.770833333333333,
              "duration": 0.21458333333333332
            },
            {
              "pitch": 55,
              "velocity": 70,
              "position": 5.770833333333333,
              "duration": 0.225
            },
            {
              "pitch": 59,
              "velocity": 70,
              "position": 5.770833333333333,
              "duration": 0.225
            },
            {
              "pitch": 67,
              "velocity": 70,
              "position": 5.75,
              "duration": 0.25625
            },
            {
              "pitch": 71,
              "velocity": 70,
              "position": 5.75,
              "duration": 0.25625
            },
            {
              "pitch": 60,
              "velocity": 70,
              "position": 5.770833333333333,
              "duration": 0.23541666666666666
            },
            {
              "pitch": 64,
              "velocity": 70,
              "position": 5.760416666666667,
              "duration": 0.24583333333333332
            },
            {
              "pitch": 48,
              "velocity": 8,
              "position": 6,
              "duration": 0.12083333333333333
            },
            {
              "pitch": 55,
              "velocity": 8,
              "position": 6.010416666666667,
              "duration": 0.12083333333333333
            },
            {
              "pitch": 59,
              "velocity": 8,
              "position": 6.010416666666667,
              "duration": 0.12083333333333333
            },
            {
              "pitch": 64,
              "velocity": 8,
              "position": 6.020833333333333,
              "duration": 0.12083333333333333
            },
            {
              "pitch": 60,
              "velocity": 8,
              "position": 6.020833333333333,
              "duration": 0.12083333333333333
            },
            {
              "pitch": 67,
              "velocity": 8,
              "position": 6.020833333333333,
              "duration": 0.12083333333333333
            },
            {
              "pitch": 71,
              "velocity": 8,
              "position": 6.020833333333333,
              "duration": 0.12083333333333333
            },
            {
              "pitch": 67,
              "velocity": 8,
              "position": 6.25,
              "duration": 0.12083333333333333
            },
            {
              "pitch": 71,
              "velocity": 8,
              "position": 6.25,
              "duration": 0.12083333333333333
            },
            {
              "pitch": 64,
              "velocity": 8,
              "position": 6.260416666666667,
              "duration": 0.12083333333333333
            },
            {
              "pitch": 55,
              "velocity": 8,
              "position": 6.270833333333333,
              "duration": 0.12083333333333333
            },
            {
              "pitch": 59,
              "velocity": 8,
              "position": 6.270833333333333,
              "duration": 0.12083333333333333
            },
            {
              "pitch": 48,
              "velocity": 8,
              "position": 6.270833333333333,
              "duration": 0.12083333333333333
            },
            {
              "pitch": 60,
              "velocity": 8,
              "position": 6.270833333333333,
              "duration": 0.12083333333333333
            },
            {
              "pitch": 48,
              "velocity": 8,
              "position": 6.5,
              "duration": 0.12083333333333333
            },
            {
              "pitch": 55,
              "velocity": 8,
              "position": 6.510416666666667,
              "duration": 0.12083333333333333
            },
            {
              "pitch": 59,
              "velocity": 8,
              "position": 6.510416666666667,
              "duration": 0.12083333333333333
            },
            {
              "pitch": 64,
              "velocity": 8,
              "position": 6.520833333333333,
              "duration": 0.12083333333333333
            },
            {
              "pitch": 60,
              "velocity": 8,
              "position": 6.520833333333333,
              "duration": 0.12083333333333333
            },
            {
              "pitch": 67,
              "velocity": 8,
              "position": 6.520833333333333,
              "duration": 0.12083333333333333
            },
            {
              "pitch": 71,
              "velocity": 8,
              "position": 6.520833333333333,
              "duration": 0.12083333333333333
            },
            {
              "pitch": 67,
              "velocity": 8,
              "position": 6.75,
              "duration": 0.12083333333333333
            },
            {
              "pitch": 71,
              "velocity": 8,
              "position": 6.75,
              "duration": 0.12083333333333333
            },
            {
              "pitch": 64,
              "velocity": 8,
              "position": 6.760416666666667,
              "duration": 0.12083333333333333
            },
            {
              "pitch": 55,
              "velocity": 8,
              "position": 6.770833333333333,
              "duration": 0.12083333333333333
            },
            {
              "pitch": 59,
              "velocity": 8,
              "position": 6.770833333333333,
              "duration": 0.12083333333333333
            },
            {
              "pitch": 48,
              "velocity": 8,
              "position": 6.770833333333333,
              "duration": 0.12083333333333333
            },
            {
              "pitch": 60,
              "velocity": 8,
              "position": 6.770833333333333,
              "duration": 0.12083333333333333
            },
            {
              "pitch": 48,
              "velocity": 60,
              "position": 7,
              "duration": 0.48541666666666666
            },
            {
              "pitch": 55,
              "velocity": 65,
              "position": 7.010416666666667,
              "duration": 0.48541666666666666
            },
            {
              "pitch": 59,
              "velocity": 65,
              "position": 7.010416666666667,
              "duration": 0.48541666666666666
            },
            {
              "pitch": 60,
              "velocity": 70,
              "position": 7.020833333333333,
              "duration": 0.48541666666666666
            },
            {
              "pitch": 67,
              "velocity": 73,
              "position": 7.020833333333333,
              "duration": 0.48541666666666666
            },
            {
              "pitch": 71,
              "velocity": 73,
              "position": 7.020833333333333,
              "duration": 0.48541666666666666
            },
            {
              "pitch": 64,
              "velocity": 71,
              "position": 7.020833333333333,
              "duration": 0.48541666666666666
            },
            {
              "pitch": 67,
              "velocity": 75,
              "position": 7.520833333333333,
              "duration": 0.21458333333333332
            },
            {
              "pitch": 71,
              "velocity": 75,
              "position": 7.520833333333333,
              "duration": 0.21458333333333332
            },
            {
              "pitch": 64,
              "velocity": 75,
              "position": 7.520833333333333,
              "duration": 0.225
            },
            {
              "pitch": 60,
              "velocity": 65,
              "position": 7.520833333333333,
              "duration": 0.23541666666666666
            },
            {
              "pitch": 48,
              "velocity": 60,
              "position": 7.5,
              "duration": 0.25625
            },
            {
              "pitch": 55,
              "velocity": 70,
              "position": 7.510416666666667,
              "duration": 0.24583333333333332
            },
            {
              "pitch": 59,
              "velocity": 70,
              "position": 7.510416666666667,
              "duration": 0.24583333333333332
            },
            {
              "pitch": 48,
              "velocity": 49,
              "position": 7.770833333333333,
              "duration": 0.21458333333333332
            },
            {
              "pitch": 55,
              "velocity": 49,
              "position": 7.770833333333333,
              "duration": 0.225
            },
            {
              "pitch": 59,
              "velocity": 49,
              "position": 7.770833333333333,
              "duration": 0.225
            },
            {
              "pitch": 67,
              "velocity": 57,
              "position": 7.75,
              "duration": 0.25625
            },
            {
              "pitch": 71,
              "velocity": 57,
              "position": 7.75,
              "duration": 0.25625
            },
            {
              "pitch": 60,
              "velocity": 52,
              "position": 7.770833333333333,
              "duration": 0.23541666666666666
            },
            {
              "pitch": 64,
              "velocity": 52,
              "position": 7.760416666666667,
              "duration": 0.24583333333333332
            },
            {
              "pitch": 48,
              "velocity": 8,
              "position": 8,
              "duration": 0.12083333333333333
            },
            {
              "pitch": 55,
              "velocity": 8,
              "position": 8.010416666666666,
              "duration": 0.12083333333333333
            },
            {
              "pitch": 59,
              "velocity": 8,
              "position": 8.010416666666666,
              "duration": 0.12083333333333333
            },
            {
              "pitch": 64,
              "velocity": 8,
              "position": 8.020833333333334,
              "duration": 0.12083333333333333
            },
            {
              "pitch": 60,
              "velocity": 8,
              "position": 8.020833333333334,
              "duration": 0.12083333333333333
            },
            {
              "pitch": 67,
              "velocity": 8,
              "position": 8.020833333333334,
              "duration": 0.12083333333333333
            },
            {
              "pitch": 71,
              "velocity": 8,
              "position": 8.020833333333334,
              "duration": 0.12083333333333333
            },
            {
              "pitch": 67,
              "velocity": 8,
              "position": 8.25,
              "duration": 0.12083333333333333
            },
            {
              "pitch": 71,
              "velocity": 8,
              "position": 8.25,
              "duration": 0.12083333333333333
            },
            {
              "pitch": 64,
              "velocity": 8,
              "position": 8.260416666666666,
              "duration": 0.12083333333333333
            },
            {
              "pitch": 55,
              "velocity": 8,
              "position": 8.270833333333334,
              "duration": 0.12083333333333333
            },
            {
              "pitch": 59,
              "velocity": 8,
              "position": 8.270833333333334,
              "duration": 0.12083333333333333
            },
            {
              "pitch": 48,
              "velocity": 8,
              "position": 8.270833333333334,
              "duration": 0.12083333333333333
            },
            {
              "pitch": 60,
              "velocity": 8,
              "position": 8.270833333333334,
              "duration": 0.12083333333333333
            },
            {
              "pitch": 48,
              "velocity": 8,
              "position": 8.5,
              "duration": 0.12083333333333333
            },
            {
              "pitch": 55,
              "velocity": 8,
              "position": 8.510416666666666,
              "duration": 0.12083333333333333
            },
            {
              "pitch": 59,
              "velocity": 8,
              "position": 8.510416666666666,
              "duration": 0.12083333333333333
            },
            {
              "pitch": 64,
              "velocity": 8,
              "position": 8.520833333333334,
              "duration": 0.12083333333333333
            },
            {
              "pitch": 60,
              "velocity": 8,
              "position": 8.520833333333334,
              "duration": 0.12083333333333333
            },
            {
              "pitch": 67,
              "velocity": 8,
              "position": 8.520833333333334,
              "duration": 0.12083333333333333
            },
            {
              "pitch": 71,
              "velocity": 8,
              "position": 8.520833333333334,
              "duration": 0.12083333333333333
            },
            {
              "pitch": 67,
              "velocity": 8,
              "position": 8.75,
              "duration": 0.12083333333333333
            },
            {
              "pitch": 71,
              "velocity": 8,
              "position": 8.75,
              "duration": 0.12083333333333333
            },
            {
              "pitch": 64,
              "velocity": 8,
              "position": 8.760416666666666,
              "duration": 0.12083333333333333
            },
            {
              "pitch": 55,
              "velocity": 8,
              "position": 8.770833333333334,
              "duration": 0.12083333333333333
            },
            {
              "pitch": 59,
              "velocity": 8,
              "position": 8.770833333333334,
              "duration": 0.12083333333333333
            },
            {
              "pitch": 48,
              "velocity": 8,
              "position": 8.770833333333334,
              "duration": 0.12083333333333333
            },
            {
              "pitch": 60,
              "velocity": 8,
              "position": 8.770833333333334,
              "duration": 0.12083333333333333
            },
            {
              "pitch": 67,
              "velocity": 69,
              "position": 9.020833333333334,
              "duration": 0.7145833333333333
            },
            {
              "pitch": 71,
              "velocity": 69,
              "position": 9.020833333333334,
              "duration": 0.7145833333333333
            },
            {
              "pitch": 64,
              "velocity": 67,
              "position": 9.020833333333334,
              "duration": 0.725
            },
            {
              "pitch": 60,
              "velocity": 60,
              "position": 9.020833333333334,
              "duration": 0.7354166666666667
            },
            {
              "pitch": 48,
              "velocity": 50,
              "position": 9,
              "duration": 0.75625
            },
            {
              "pitch": 55,
              "velocity": 55,
              "position": 9.010416666666666,
              "duration": 0.7458333333333333
            },
            {
              "pitch": 59,
              "velocity": 55,
              "position": 9.010416666666666,
              "duration": 0.7458333333333333
            },
            {
              "pitch": 48,
              "velocity": 70,
              "position": 9.770833333333334,
              "duration": 0.21458333333333332
            },
            {
              "pitch": 55,
              "velocity": 70,
              "position": 9.770833333333334,
              "duration": 0.225
            },
            {
              "pitch": 59,
              "velocity": 70,
              "position": 9.770833333333334,
              "duration": 0.225
            },
            {
              "pitch": 67,
              "velocity": 70,
              "position": 9.75,
              "duration": 0.25625
            },
            {
              "pitch": 71,
              "velocity": 70,
              "position": 9.75,
              "duration": 0.25625
            },
            {
              "pitch": 60,
              "velocity": 70,
              "position": 9.770833333333334,
              "duration": 0.23541666666666666
            },
            {
              "pitch": 64,
              "velocity": 70,
              "position": 9.760416666666666,
              "duration": 0.24583333333333332
            },
            {
              "pitch": 48,
              "velocity": 8,
              "position": 10,
              "duration": 0.12083333333333333
            },
            {
              "pitch": 55,
              "velocity": 8,
              "position": 10.010416666666666,
              "duration": 0.12083333333333333
            },
            {
              "pitch": 59,
              "velocity": 8,
              "position": 10.010416666666666,
              "duration": 0.12083333333333333
            },
            {
              "pitch": 64,
              "velocity": 8,
              "position": 10.020833333333334,
              "duration": 0.12083333333333333
            },
            {
              "pitch": 60,
              "velocity": 8,
              "position": 10.020833333333334,
              "duration": 0.12083333333333333
            },
            {
              "pitch": 67,
              "velocity": 8,
              "position": 10.020833333333334,
              "duration": 0.12083333333333333
            },
            {
              "pitch": 71,
              "velocity": 8,
              "position": 10.020833333333334,
              "duration": 0.12083333333333333
            },
            {
              "pitch": 67,
              "velocity": 8,
              "position": 10.25,
              "duration": 0.12083333333333333
            },
            {
              "pitch": 71,
              "velocity": 8,
              "position": 10.25,
              "duration": 0.12083333333333333
            },
            {
              "pitch": 64,
              "velocity": 8,
              "position": 10.260416666666666,
              "duration": 0.12083333333333333
            },
            {
              "pitch": 55,
              "velocity": 8,
              "position": 10.270833333333334,
              "duration": 0.12083333333333333
            },
            {
              "pitch": 59,
              "velocity": 8,
              "position": 10.270833333333334,
              "duration": 0.12083333333333333
            },
            {
              "pitch": 48,
              "velocity": 8,
              "position": 10.270833333333334,
              "duration": 0.12083333333333333
            },
            {
              "pitch": 60,
              "velocity": 8,
              "position": 10.270833333333334,
              "duration": 0.12083333333333333
            },
            {
              "pitch": 48,
              "velocity": 8,
              "position": 10.5,
              "duration": 0.12083333333333333
            },
            {
              "pitch": 55,
              "velocity": 8,
              "position": 10.510416666666666,
              "duration": 0.12083333333333333
            },
            {
              "pitch": 59,
              "velocity": 8,
              "position": 10.510416666666666,
              "duration": 0.12083333333333333
            },
            {
              "pitch": 64,
              "velocity": 8,
              "position": 10.520833333333334,
              "duration": 0.12083333333333333
            },
            {
              "pitch": 60,
              "velocity": 8,
              "position": 10.520833333333334,
              "duration": 0.12083333333333333
            },
            {
              "pitch": 67,
              "velocity": 8,
              "position": 10.520833333333334,
              "duration": 0.12083333333333333
            },
            {
              "pitch": 71,
              "velocity": 8,
              "position": 10.520833333333334,
              "duration": 0.12083333333333333
            },
            {
              "pitch": 67,
              "velocity": 8,
              "position": 10.75,
              "duration": 0.12083333333333333
            },
            {
              "pitch": 71,
              "velocity": 8,
              "position": 10.75,
              "duration": 0.12083333333333333
            },
            {
              "pitch": 64,
              "velocity": 8,
              "position": 10.760416666666666,
              "duration": 0.12083333333333333
            },
            {
              "pitch": 55,
              "velocity": 8,
              "position": 10.770833333333334,
              "duration": 0.12083333333333333
            },
            {
              "pitch": 59,
              "velocity": 8,
              "position": 10.770833333333334,
              "duration": 0.12083333333333333
            },
            {
              "pitch": 48,
              "velocity": 8,
              "position": 10.770833333333334,
              "duration": 0.12083333333333333
            },
            {
              "pitch": 60,
              "velocity": 8,
              "position": 10.770833333333334,
              "duration": 0.12083333333333333
            },
            {
              "pitch": 48,
              "velocity": 65,
              "position": 11,
              "duration": 0.48541666666666666
            },
            {
              "pitch": 55,
              "velocity": 70,
              "position": 11.010416666666666,
              "duration": 0.48541666666666666
            },
            {
              "pitch": 59,
              "velocity": 70,
              "position": 11.010416666666666,
              "duration": 0.48541666666666666
            },
            {
              "pitch": 60,
              "velocity": 65,
              "position": 11.020833333333334,
              "duration": 0.48541666666666666
            },
            {
              "pitch": 67,
              "velocity": 75,
              "position": 11.020833333333334,
              "duration": 0.48541666666666666
            },
            {
              "pitch": 71,
              "velocity": 75,
              "position": 11.020833333333334,
              "duration": 0.48541666666666666
            },
            {
              "pitch": 64,
              "velocity": 75,
              "position": 11.020833333333334,
              "duration": 0.48541666666666666
            },
            {
              "pitch": 48,
              "velocity": 8,
              "position": 11.5,
              "duration": 0.12083333333333333
            },
            {
              "pitch": 55,
              "velocity": 8,
              "position": 11.510416666666666,
              "duration": 0.12083333333333333
            },
            {
              "pitch": 59,
              "velocity": 8,
              "position": 11.510416666666666,
              "duration": 0.12083333333333333
            },
            {
              "pitch": 64,
              "velocity": 8,
              "position": 11.520833333333334,
              "duration": 0.12083333333333333
            },
            {
              "pitch": 60,
              "velocity": 8,
              "position": 11.520833333333334,
              "duration": 0.12083333333333333
            },
            {
              "pitch": 67,
              "velocity": 8,
              "position": 11.520833333333334,
              "duration": 0.12083333333333333
            },
            {
              "pitch": 71,
              "velocity": 8,
              "position": 11.520833333333334,
              "duration": 0.12083333333333333
            },
            {
              "pitch": 67,
              "velocity": 8,
              "position": 11.75,
              "duration": 0.12083333333333333
            },
            {
              "pitch": 71,
              "velocity": 8,
              "position": 11.75,
              "duration": 0.12083333333333333
            },
            {
              "pitch": 64,
              "velocity": 8,
              "position": 11.760416666666666,
              "duration": 0.12083333333333333
            },
            {
              "pitch": 55,
              "velocity": 8,
              "position": 11.770833333333334,
              "duration": 0.12083333333333333
            },
            {
              "pitch": 59,
              "velocity": 8,
              "position": 11.770833333333334,
              "duration": 0.12083333333333333
            },
            {
              "pitch": 48,
              "velocity": 8,
              "position": 11.770833333333334,
              "duration": 0.12083333333333333
            },
            {
              "pitch": 60,
              "velocity": 8,
              "position": 11.770833333333334,
              "duration": 0.12083333333333333
            },
            {
              "pitch": 48,
              "velocity": 8,
              "position": 12,
              "duration": 0.12083333333333333
            },
            {
              "pitch": 55,
              "velocity": 8,
              "position": 12.010416666666666,
              "duration": 0.12083333333333333
            },
            {
              "pitch": 59,
              "velocity": 8,
              "position": 12.010416666666666,
              "duration": 0.12083333333333333
            },
            {
              "pitch": 64,
              "velocity": 8,
              "position": 12.020833333333334,
              "duration": 0.12083333333333333
            },
            {
              "pitch": 60,
              "velocity": 8,
              "position": 12.020833333333334,
              "duration": 0.12083333333333333
            },
            {
              "pitch": 67,
              "velocity": 8,
              "position": 12.020833333333334,
              "duration": 0.12083333333333333
            },
            {
              "pitch": 71,
              "velocity": 8,
              "position": 12.020833333333334,
              "duration": 0.12083333333333333
            },
            {
              "pitch": 67,
              "velocity": 8,
              "position": 12.25,
              "duration": 0.12083333333333333
            },
            {
              "pitch": 71,
              "velocity": 8,
              "position": 12.25,
              "duration": 0.12083333333333333
            },
            {
              "pitch": 64,
              "velocity": 8,
              "position": 12.260416666666666,
              "duration": 0.12083333333333333
            },
            {
              "pitch": 55,
              "velocity": 8,
              "position": 12.270833333333334,
              "duration": 0.12083333333333333
            },
            {
              "pitch": 59,
              "velocity": 8,
              "position": 12.270833333333334,
              "duration": 0.12083333333333333
            },
            {
              "pitch": 48,
              "velocity": 8,
              "position": 12.270833333333334,
              "duration": 0.12083333333333333
            },
            {
              "pitch": 60,
              "velocity": 8,
              "position": 12.270833333333334,
              "duration": 0.12083333333333333
            },
            {
              "pitch": 48,
              "velocity": 8,
              "position": 12.5,
              "duration": 0.12083333333333333
            },
            {
              "pitch": 55,
              "velocity": 8,
              "position": 12.510416666666666,
              "duration": 0.12083333333333333
            },
            {
              "pitch": 59,
              "velocity": 8,
              "position": 12.510416666666666,
              "duration": 0.12083333333333333
            },
            {
              "pitch": 64,
              "velocity": 8,
              "position": 12.520833333333334,
              "duration": 0.12083333333333333
            },
            {
              "pitch": 60,
              "velocity": 8,
              "position": 12.520833333333334,
              "duration": 0.12083333333333333
            },
            {
              "pitch": 67,
              "velocity": 8,
              "position": 12.520833333333334,
              "duration": 0.12083333333333333
            },
            {
              "pitch": 71,
              "velocity": 8,
              "position": 12.520833333333334,
              "duration": 0.12083333333333333
            },
            {
              "pitch": 67,
              "velocity": 8,
              "position": 12.75,
              "duration": 0.12083333333333333
            },
            {
              "pitch": 71,
              "velocity": 8,
              "position": 12.75,
              "duration": 0.12083333333333333
            },
            {
              "pitch": 64,
              "velocity": 8,
              "position": 12.760416666666666,
              "duration": 0.12083333333333333
            },
            {
              "pitch": 55,
              "velocity": 8,
              "position": 12.770833333333334,
              "duration": 0.12083333333333333
            },
            {
              "pitch": 59,
              "velocity": 8,
              "position": 12.770833333333334,
              "duration": 0.12083333333333333
            },
            {
              "pitch": 48,
              "velocity": 8,
              "position": 12.770833333333334,
              "duration": 0.12083333333333333
            },
            {
              "pitch": 60,
              "velocity": 8,
              "position": 12.770833333333334,
              "duration": 0.12083333333333333
            },
            {
              "pitch": 67,
              "velocity": 69,
              "position": 13.020833333333334,
              "duration": 0.7145833333333333
            },
            {
              "pitch": 71,
              "velocity": 69,
              "position": 13.020833333333334,
              "duration": 0.7145833333333333
            },
            {
              "pitch": 64,
              "velocity": 67,
              "position": 13.020833333333334,
              "duration": 0.725
            },
            {
              "pitch": 60,
              "velocity": 70,
              "position": 13.020833333333334,
              "duration": 0.7354166666666667
            },
            {
              "pitch": 48,
              "velocity": 60,
              "position": 13,
              "duration": 0.75625
            },
            {
              "pitch": 55,
              "velocity": 65,
              "position": 13.010416666666666,
              "duration": 0.7458333333333333
            },
            {
              "pitch": 59,
              "velocity": 65,
              "position": 13.010416666666666,
              "duration": 0.7458333333333333
            },
            {
              "pitch": 48,
              "velocity": 70,
              "position": 13.770833333333334,
              "duration": 0.21458333333333332
            },
            {
              "pitch": 55,
              "velocity": 70,
              "position": 13.770833333333334,
              "duration": 0.225
            },
            {
              "pitch": 59,
              "velocity": 70,
              "position": 13.770833333333334,
              "duration": 0.225
            },
            {
              "pitch": 67,
              "velocity": 70,
              "position": 13.75,
              "duration": 0.25625
            },
            {
              "pitch": 71,
              "velocity": 70,
              "position": 13.75,
              "duration": 0.25625
            },
            {
              "pitch": 60,
              "velocity": 70,
              "position": 13.770833333333334,
              "duration": 0.23541666666666666
            },
            {
              "pitch": 64,
              "velocity": 70,
              "position": 13.760416666666666,
              "duration": 0.24583333333333332
            },
            {
              "pitch": 48,
              "velocity": 8,
              "position": 14,
              "duration": 0.12083333333333333
            },
            {
              "pitch": 55,
              "velocity": 8,
              "position": 14.010416666666666,
              "duration": 0.12083333333333333
            },
            {
              "pitch": 59,
              "velocity": 8,
              "position": 14.010416666666666,
              "duration": 0.12083333333333333
            },
            {
              "pitch": 64,
              "velocity": 8,
              "position": 14.020833333333334,
              "duration": 0.12083333333333333
            },
            {
              "pitch": 60,
              "velocity": 8,
              "position": 14.020833333333334,
              "duration": 0.12083333333333333
            },
            {
              "pitch": 67,
              "velocity": 8,
              "position": 14.020833333333334,
              "duration": 0.12083333333333333
            },
            {
              "pitch": 71,
              "velocity": 8,
              "position": 14.020833333333334,
              "duration": 0.12083333333333333
            },
            {
              "pitch": 67,
              "velocity": 8,
              "position": 14.25,
              "duration": 0.12083333333333333
            },
            {
              "pitch": 71,
              "velocity": 8,
              "position": 14.25,
              "duration": 0.12083333333333333
            },
            {
              "pitch": 64,
              "velocity": 8,
              "position": 14.260416666666666,
              "duration": 0.12083333333333333
            },
            {
              "pitch": 55,
              "velocity": 8,
              "position": 14.270833333333334,
              "duration": 0.12083333333333333
            },
            {
              "pitch": 59,
              "velocity": 8,
              "position": 14.270833333333334,
              "duration": 0.12083333333333333
            },
            {
              "pitch": 48,
              "velocity": 8,
              "position": 14.270833333333334,
              "duration": 0.12083333333333333
            },
            {
              "pitch": 60,
              "velocity": 8,
              "position": 14.270833333333334,
              "duration": 0.12083333333333333
            },
            {
              "pitch": 48,
              "velocity": 8,
              "position": 14.5,
              "duration": 0.12083333333333333
            },
            {
              "pitch": 55,
              "velocity": 8,
              "position": 14.510416666666666,
              "duration": 0.12083333333333333
            },
            {
              "pitch": 59,
              "velocity": 8,
              "position": 14.510416666666666,
              "duration": 0.12083333333333333
            },
            {
              "pitch": 64,
              "velocity": 8,
              "position": 14.520833333333334,
              "duration": 0.12083333333333333
            },
            {
              "pitch": 60,
              "velocity": 8,
              "position": 14.520833333333334,
              "duration": 0.12083333333333333
            },
            {
              "pitch": 67,
              "velocity": 8,
              "position": 14.520833333333334,
              "duration": 0.12083333333333333
            },
            {
              "pitch": 71,
              "velocity": 8,
              "position": 14.520833333333334,
              "duration": 0.12083333333333333
            },
            {
              "pitch": 67,
              "velocity": 8,
              "position": 14.75,
              "duration": 0.12083333333333333
            },
            {
              "pitch": 71,
              "velocity": 8,
              "position": 14.75,
              "duration": 0.12083333333333333
            },
            {
              "pitch": 64,
              "velocity": 8,
              "position": 14.760416666666666,
              "duration": 0.12083333333333333
            },
            {
              "pitch": 55,
              "velocity": 8,
              "position": 14.770833333333334,
              "duration": 0.12083333333333333
            },
            {
              "pitch": 59,
              "velocity": 8,
              "position": 14.770833333333334,
              "duration": 0.12083333333333333
            },
            {
              "pitch": 48,
              "velocity": 8,
              "position": 14.770833333333334,
              "duration": 0.12083333333333333
            },
            {
              "pitch": 60,
              "velocity": 8,
              "position": 14.770833333333334,
              "duration": 0.12083333333333333
            },
            {
              "pitch": 48,
              "velocity": 60,
              "position": 15,
              "duration": 0.48541666666666666
            },
            {
              "pitch": 55,
              "velocity": 65,
              "position": 15.010416666666666,
              "duration": 0.48541666666666666
            },
            {
              "pitch": 59,
              "velocity": 65,
              "position": 15.010416666666666,
              "duration": 0.48541666666666666
            },
            {
              "pitch": 60,
              "velocity": 70,
              "position": 15.020833333333334,
              "duration": 0.48541666666666666
            },
            {
              "pitch": 67,
              "velocity": 73,
              "position": 15.020833333333334,
              "duration": 0.48541666666666666
            },
            {
              "pitch": 71,
              "velocity": 73,
              "position": 15.020833333333334,
              "duration": 0.48541666666666666
            },
            {
              "pitch": 64,
              "velocity": 71,
              "position": 15.020833333333334,
              "duration": 0.48541666666666666
            },
            {
              "pitch": 67,
              "velocity": 75,
              "position": 15.520833333333334,
              "duration": 0.21458333333333332
            },
            {
              "pitch": 71,
              "velocity": 75,
              "position": 15.520833333333334,
              "duration": 0.21458333333333332
            },
            {
              "pitch": 64,
              "velocity": 75,
              "position": 15.520833333333334,
              "duration": 0.225
            },
            {
              "pitch": 60,
              "velocity": 65,
              "position": 15.520833333333334,
              "duration": 0.23541666666666666
            },
            {
              "pitch": 48,
              "velocity": 60,
              "position": 15.5,
              "duration": 0.25625
            },
            {
              "pitch": 55,
              "velocity": 70,
              "position": 15.510416666666666,
              "duration": 0.24583333333333332
            },
            {
              "pitch": 59,
              "velocity": 70,
              "position": 15.510416666666666,
              "duration": 0.24583333333333332
            },
            {
              "pitch": 67,
              "velocity": 57,
              "position": 15.75,
              "duration": 0.23541666666666666
            },
            {
              "pitch": 71,
              "velocity": 57,
              "position": 15.75,
              "duration": 0.23541666666666666
            },
            {
              "pitch": 60,
              "velocity": 52,
              "position": 15.770833333333334,
              "duration": 0.21458333333333332
            },
            {
              "pitch": 55,
              "velocity": 49,
              "position": 15.770833333333334,
              "duration": 0.21458333333333332
            },
            {
              "pitch": 59,
              "velocity": 49,
              "position": 15.770833333333334,
              "duration": 0.21458333333333332
            },
            {
              "pitch": 48,
              "velocity": 49,
              "position": 15.770833333333334,
              "duration": 0.21458333333333332
            },
            {
              "pitch": 64,
              "velocity": 52,
              "position": 15.760416666666666,
              "duration": 0.225
            }
          ]
        },
        "13": {
          "ctab": {
            "srcChannel": 13,
            "name": "Organ",
            "accType": "PAD",
            "editable": false,
            "mutedNotes": [],
            "mutedChords": [],
            "autoStart": false,
            "sourceChordNote": 0,
            "sourceChordType": "Maj7",
            "ctb2Low": null,
            "ctb2Main": {
              "ntr": "ROOT_FIXED",
              "ntt": "CHORD",
              "bassOn": false,
              "chordRootUpperLimit": 0,
              "noteLowLimit": 0,
              "noteHighLimit": 79,
              "rtr": "PITCH_SHIFT"
            },
            "ctb2High": null
          },
          "notes": [
            {
              "pitch": 64,
              "velocity": 78,
              "position": 0.025,
              "duration": 3.90625
            },
            {
              "pitch": 71,
              "velocity": 78,
              "position": 0.025,
              "duration": 3.90625
            },
            {
              "pitch": 67,
              "velocity": 78,
              "position": 0.025,
              "duration": 3.90625
            },
            {
              "pitch": 64,
              "velocity": 78,
              "position": 4,
              "duration": 3.90625
            },
            {
              "pitch": 71,
              "velocity": 78,
              "position": 4,
              "duration": 3.90625
            },
            {
              "pitch": 67,
              "velocity": 78,
              "position": 4,
              "duration": 3.90625
            },
            {
              "pitch": 64,
              "velocity": 78,
              "position": 8,
              "duration": 3.90625
            },
            {
              "pitch": 71,
              "velocity": 78,
              "position": 8,
              "duration": 3.90625
            },
            {
              "pitch": 67,
              "velocity": 78,
              "position": 8,
              "duration": 3.90625
            },
            {
              "pitch": 64,
              "velocity": 78,
              "position": 12,
              "duration": 3.90625
            },
            {
              "pitch": 71,
              "velocity": 78,
              "position": 12,
              "duration": 3.90625
            },
            {
              "pitch": 67,
              "velocity": 78,
              "position": 12,
              "duration": 3.90625
            }
          ]
        },
        "14": {
          "ctab": {
            "srcChannel": 14,
            "name": "Tele",
            "accType": "PHRASE1",
            "editable": false,
            "mutedNotes": [],
            "mutedChords": [],
            "autoStart": false,
            "sourceChordNote": 0,
            "sourceChordType": "min7(11)",
            "ctb2Low": null,
            "ctb2Main": {
              "ntr": "ROOT_FIXED",
              "ntt": "CHORD",
              "bassOn": false,
              "chordRootUpperLimit": 3,
              "noteLowLimit": 0,
              "noteHighLimit": 127,
              "rtr": "PITCH_SHIFT"
            },
            "ctb2High": null
          },
          "notes": [
            {
              "pitch": 98,
              "velocity": 76,
              "position": 0,
              "duration": 0.20416666666666666
            },
            {
              "pitch": 67,
              "velocity": 16,
              "position": 0.5,
              "duration": 0.9854166666666667
            },
            {
              "pitch": 72,
              "velocity": 16,
              "position": 1,
              "duration": 1.9854166666666666
            },
            {
              "pitch": 67,
              "velocity": 16,
              "position": 1.5,
              "duration": 1.9854166666666666
            },
            {
              "pitch": 60,
              "velocity": 10,
              "position": 0.020833333333333332,
              "duration": 3.464583333333333
            },
            {
              "pitch": 48,
              "velocity": 10,
              "position": 0,
              "duration": 3.4854166666666666
            },
            {
              "pitch": 55,
              "velocity": 10,
              "position": 0.020833333333333332,
              "duration": 3.464583333333333
            },
            {
              "pitch": 106,
              "velocity": 68,
              "position": 3.5,
              "duration": 0.20416666666666666
            },
            {
              "pitch": 55,
              "velocity": 30,
              "position": 3.5,
              "duration": 0.225
            },
            {
              "pitch": 107,
              "velocity": 48,
              "position": 3.75,
              "duration": 0.20416666666666666
            },
            {
              "pitch": 60,
              "velocity": 28,
              "position": 3.5,
              "duration": 0.475
            },
            {
              "pitch": 48,
              "velocity": 22,
              "position": 3.7708333333333335,
              "duration": 0.21458333333333332
            },
            {
              "pitch": 55,
              "velocity": 34,
              "position": 3.75,
              "duration": 0.24583333333333332
            },
            {
              "pitch": 98,
              "velocity": 76,
              "position": 4,
              "duration": 0.20416666666666666
            },
            {
              "pitch": 67,
              "velocity": 16,
              "position": 3.5,
              "duration": 0.9854166666666667
            },
            {
              "pitch": 72,
              "velocity": 16,
              "position": 3,
              "duration": 1.9854166666666666
            },
            {
              "pitch": 67,
              "velocity": 16,
              "position": 4.5,
              "duration": 0.9854166666666667
            },
            {
              "pitch": 67,
              "velocity": 16,
              "position": 5.5,
              "duration": 0.9854166666666667
            },
            {
              "pitch": 72,
              "velocity": 16,
              "position": 5,
              "duration": 1.9854166666666666
            },
            {
              "pitch": 67,
              "velocity": 16,
              "position": 6.5,
              "duration": 0.9854166666666667
            },
            {
              "pitch": 48,
              "velocity": 10,
              "position": 4,
              "duration": 3.9854166666666666
            },
            {
              "pitch": 55,
              "velocity": 10,
              "position": 4.020833333333333,
              "duration": 3.9854166666666666
            },
            {
              "pitch": 60,
              "velocity": 10,
              "position": 4.020833333333333,
              "duration": 3.9854166666666666
            },
            {
              "pitch": 98,
              "velocity": 76,
              "position": 8,
              "duration": 0.20416666666666666
            },
            {
              "pitch": 67,
              "velocity": 16,
              "position": 7.5,
              "duration": 0.9854166666666667
            },
            {
              "pitch": 72,
              "velocity": 16,
              "position": 7,
              "duration": 1.9854166666666666
            },
            {
              "pitch": 67,
              "velocity": 16,
              "position": 8.5,
              "duration": 0.9854166666666667
            },
            {
              "pitch": 72,
              "velocity": 16,
              "position": 9,
              "duration": 1.9854166666666666
            },
            {
              "pitch": 67,
              "velocity": 16,
              "position": 9.5,
              "duration": 1.9854166666666666
            },
            {
              "pitch": 55,
              "velocity": 10,
              "position": 8.020833333333334,
              "duration": 3.464583333333333
            },
            {
              "pitch": 60,
              "velocity": 10,
              "position": 8.020833333333334,
              "duration": 3.464583333333333
            },
            {
              "pitch": 48,
              "velocity": 10,
              "position": 8,
              "duration": 3.4854166666666666
            },
            {
              "pitch": 106,
              "velocity": 64,
              "position": 11.5,
              "duration": 0.20416666666666666
            },
            {
              "pitch": 55,
              "velocity": 30,
              "position": 11.5,
              "duration": 0.225
            },
            {
              "pitch": 107,
              "velocity": 48,
              "position": 11.75,
              "duration": 0.20416666666666666
            },
            {
              "pitch": 60,
              "velocity": 28,
              "position": 11.5,
              "duration": 0.475
            },
            {
              "pitch": 48,
              "velocity": 22,
              "position": 11.770833333333334,
              "duration": 0.21458333333333332
            },
            {
              "pitch": 55,
              "velocity": 34,
              "position": 11.75,
              "duration": 0.24583333333333332
            },
            {
              "pitch": 98,
              "velocity": 76,
              "position": 12,
              "duration": 0.20416666666666666
            },
            {
              "pitch": 67,
              "velocity": 16,
              "position": 11.5,
              "duration": 0.9854166666666667
            },
            {
              "pitch": 72,
              "velocity": 16,
              "position": 11,
              "duration": 1.9854166666666666
            },
            {
              "pitch": 67,
              "velocity": 16,
              "position": 12.5,
              "duration": 0.9854166666666667
            },
            {
              "pitch": 67,
              "velocity": 16,
              "position": 13.5,
              "duration": 0.9854166666666667
            },
            {
              "pitch": 72,
              "velocity": 16,
              "position": 13,
              "duration": 1.9854166666666666
            },
            {
              "pitch": 67,
              "velocity": 16,
              "position": 14.5,
              "duration": 0.9854166666666667
            },
            {
              "pitch": 72,
              "velocity": 16,
              "position": 15,
              "duration": 0.975
            },
            {
              "pitch": 67,
              "velocity": 16,
              "position": 15.5,
              "duration": 0.475
            },
            {
              "pitch": 48,
              "velocity": 10,
              "position": 12,
              "duration": 3.975
            },
            {
              "pitch": 60,
              "velocity": 10,
              "position": 12.020833333333334,
              "duration": 3.975
            },
            {
              "pitch": 55,
              "velocity": 10,
              "position": 12.020833333333334,
              "duration": 3.975
            }
          ]
        },
        "15": {
          "ctab": {
            "srcChannel": 15,
            "name": "Strings",
            "accType": "PHRASE2",
            "editable": true,
            "mutedNotes": [],
            "mutedChords": [],
            "autoStart": false,
            "sourceChordNote": 0,
            "sourceChordType": "Maj7",
            "ctb2Low": null,
            "ctb2Main": {
              "ntr": "ROOT_FIXED",
              "ntt": "CHORD",
              "bassOn": false,
              "chordRootUpperLimit": 0,
              "noteLowLimit": 0,
              "noteHighLimit": 127,
              "rtr": "PITCH_SHIFT"
            },
            "ctb2High": null
          },
          "notes": [
            {
              "pitch": 55,
              "velocity": 45,
              "position": 0,
              "duration": 15.975
            },
            {
              "pitch": 64,
              "velocity": 45,
              "position": 0,
              "duration": 15.975
            },
            {
              "pitch": 59,
              "velocity": 45,
              "position": 0,
              "duration": 15.975
            }
          ]
        }
      }
    },
    "Fill_In_AA": {
      "type": "Fill_In_AA",
      "sizeInBeats": 4,
      "channels": {
        "1": {
          "ctab": {
            "srcChannel": 1,
            "name": "Bass B",
            "accType": "BASS",
            "editable": false,
            "mutedNotes": [],
            "mutedChords": [
              "1+5",
              "1+8",
              "7(#9)",
              "7(b13)",
              "7(b9)",
              "7(13)",
              "7#11",
              "7(9)",
              "7b5",
              "7sus4",
              "7th",
              "dim7",
              "dim",
              "min7(11)",
              "min7(9)",
              "m7b5",
              "min7",
              "min6",
              "Maj6(9)",
              "Maj7(9)",
              "Maj(9)",
              "Maj7#11",
              "Maj7",
              "Maj6",
              "Maj"
            ],
            "autoStart": false,
            "sourceChordNote": 0,
            "sourceChordType": "Maj7",
            "ctb2Low": null,
            "ctb2Main": {
              "ntr": "ROOT_TRANSPOSITION",
              "ntt": "MELODY",
              "bassOn": true,
              "chordRootUpperLimit": 8,
              "noteLowLimit": 28,
              "noteHighLimit": 127,
              "rtr": "PITCH_SHIFT_TO_ROOT"
            },
            "ctb2High": null
          },
          "notes": [
            {
              "pitch": 24,
              "velocity": 70,
              "position": 0,
              "duration": 0.9854166666666667
            },
            {
              "pitch": 48,
              "velocity": 106,
              "position": 1,
              "duration": 0.027083333333333334
            },
            {
              "pitch": 55,
              "velocity": 106,
              "position": 1.03125,
              "duration": 0.027083333333333334
            },
            {
              "pitch": 24,
              "velocity": 30,
              "position": 1.75,
              "duration": 0.23541666666666666
            },
            {
              "pitch": 24,
              "velocity": 70,
              "position": 2,
              "duration": 0.43333333333333335
            },
            {
              "pitch": 31,
              "velocity": 50,
              "position": 2.5,
              "duration": 0.43333333333333335
            },
            {
              "pitch": 28,
              "velocity": 60,
              "position": 3,
              "duration": 0.43333333333333335
            },
            {
              "pitch": 31,
              "velocity": 50,
              "position": 3.5,
              "duration": 0.43333333333333335
            }
          ]
        },
        "8": {
          "ctab": {
            "srcChannel": 8,
            "name": "AddDrum",
            "accType": "SUBRHYTHM",
            "editable": false,
            "mutedNotes": [],
            "mutedChords": [],
            "autoStart": true,
            "sourceChordNote": 0,
            "sourceChordType": "Maj7",
            "ctb2Low": null,
            "ctb2Main": {
              "ntr": "ROOT_FIXED",
              "ntt": "BYPASS",
              "bassOn": false,
              "chordRootUpperLimit": 6,
              "noteLowLimit": 0,
              "noteHighLimit": 127,
              "rtr": "PITCH_SHIFT"
            },
            "ctb2High": null
          },
          "notes": [
            {
              "pitch": 54,
              "velocity": 90,
              "position": 0,
              "duration": 0.058333333333333334
            },
            {
              "pitch": 54,
              "velocity": 50,
              "position": 0.5,
              "duration": 0.058333333333333334
            },
            {
              "pitch": 54,
              "velocity": 90,
              "position": 0.99375,
              "duration": 0.058333333333333334
            },
            {
              "pitch": 54,
              "velocity": 50,
              "position": 1.5,
              "duration": 0.058333333333333334
            },
            {
              "pitch": 54,
              "velocity": 90,
              "position": 2,
              "duration": 0.058333333333333334
            },
            {
              "pitch": 54,
              "velocity": 50,
              "position": 2.5,
              "duration": 0.058333333333333334
            },
            {
              "pitch": 54,
              "velocity": 90,
              "position": 3,
              "duration": 0.058333333333333334
            },
            {
              "pitch": 54,
              "velocity": 50,
              "position": 3.5,
              "duration": 0.058333333333333334
            }
          ]
        },
        "9": {
          "ctab": {
            "srcChannel": 9,
            "name": "MainDrum",
            "accType": "RHYTHM",
            "editable": false,
            "mutedNotes": [],
            "mutedChords": [],
            "autoStart": true,
            "sourceChordNote": 0,
            "sourceChordType": "Maj7",
            "ctb2Low": null,
            "ctb2Main": {
              "ntr": "ROOT_FIXED",
              "ntt": "BYPASS",
              "bassOn": false,
              "chordRootUpperLimit": 6,
              "noteLowLimit": 0,
              "noteHighLimit": 127,
              "rtr": "PITCH_SHIFT"
            },
            "ctb2High": null
          },
          "notes": [
            {
              "pitch": 35,
              "velocity": 109,
              "position": 0,
              "duration": 0.00625
            },
            {
              "pitch": 46,
              "velocity": 94,
              "position": 0,
              "duration": 0.00625
            },
            {
              "pitch": 38,
              "velocity": 89,
              "position": 0.46875,
              "duration": 0.008333333333333333
            },
            {
              "pitch": 38,
              "velocity": 100,
              "position": 0.5208333333333334,
              "duration": 0.00625
            },
            {
              "pitch": 35,
              "velocity": 75,
              "position": 1,
              "duration": 0.00625
            },
            {
              "pitch": 46,
              "velocity": 97,
              "position": 1,
              "duration": 0.00625
            },
            {
              "pitch": 35,
              "velocity": 106,
              "position": 1.5,
              "duration": 0.00625
            },
            {
              "pitch": 38,
              "velocity": 100,
              "position": 2,
              "duration": 0.00625
            },
            {
              "pitch": 57,
              "velocity": 83,
              "position": 2,
              "duration": 0.00625
            },
            {
              "pitch": 44,
              "velocity": 70,
              "position": 2,
              "duration": 0.00625
            },
            {
              "pitch": 35,
              "velocity": 95,
              "position": 2.5,
              "duration": 0.00625
            },
            {
              "pitch": 38,
              "velocity": 110,
              "position": 3,
              "duration": 0.00625
            },
            {
              "pitch": 44,
              "velocity": 70,
              "position": 3,
              "duration": 0.00625
            },
            {
              "pitch": 38,
              "velocity": 67,
              "position": 3.25,
              "duration": 0.00625
            },
            {
              "pitch": 45,
              "velocity": 92,
              "position": 3.5,
              "duration": 0.00625
            },
            {
              "pitch": 49,
              "velocity": 72,
              "position": 3.9895833333333335,
              "duration": 0.00625
            }
          ]
        },
        "10": {
          "ctab": {
            "srcChannel": 10,
            "name": "Bass A",
            "accType": "BASS",
            "editable": false,
            "mutedNotes": [],
            "mutedChords": [
              "1+2+5",
              "sus4",
              "7aug",
              "Maj7aug",
              "minMaj7(9)",
              "minMaj7",
              "min(9)",
              "min",
              "aug"
            ],
            "autoStart": false,
            "sourceChordNote": 0,
            "sourceChordType": "Maj7",
            "ctb2Low": null,
            "ctb2Main": {
              "ntr": "ROOT_TRANSPOSITION",
              "ntt": "MELODY",
              "bassOn": true,
              "chordRootUpperLimit": 8,
              "noteLowLimit": 28,
              "noteHighLimit": 127,
              "rtr": "PITCH_SHIFT_TO_ROOT"
            },
            "ctb2High": null
          },
          "notes": [
            {
              "pitch": 24,
              "velocity": 70,
              "position": 0,
              "duration": 0.9854166666666667
            },
            {
              "pitch": 48,
              "velocity": 106,
              "position": 1,
              "duration": 0.027083333333333334
            },
            {
              "pitch": 55,
              "velocity": 106,
              "position": 1.03125,
              "duration": 0.027083333333333334
            },
            {
              "pitch": 24,
              "velocity": 30,
              "position": 1.5,
              "duration": 0.23541666666666666
            },
            {
              "pitch": 24,
              "velocity": 70,
              "position": 2,
              "duration": 0.43333333333333335
            },
            {
              "pitch": 31,
              "velocity": 50,
              "position": 2.5,
              "duration": 0.43333333333333335
            },
            {
              "pitch": 33,
              "velocity": 60,
              "position": 3,
              "duration": 0.43333333333333335
            },
            {
              "pitch": 31,
              "velocity": 50,
              "position": 3.5,
              "duration": 0.43333333333333335
            }
          ]
        },
        "11": {
          "ctab": {
            "srcChannel": 11,
            "name": "SteelGtr",
            "accType": "CHORD1",
            "editable": false,
            "mutedNotes": [],
            "mutedChords": [],
            "autoStart": false,
            "sourceChordNote": 0,
            "sourceChordType": "Maj7",
            "ctb2Low": null,
            "ctb2Main": {
              "ntr": "ROOT_TRANSPOSITION",
              "ntt": "MELODY",
              "bassOn": true,
              "chordRootUpperLimit": 3,
              "noteLowLimit": 0,
              "noteHighLimit": 127,
              "rtr": "PITCH_SHIFT"
            },
            "ctb2High": null
          },
          "notes": [
            {
              "pitch": 60,
              "velocity": 42,
              "position": 0.020833333333333332,
              "duration": 0.46458333333333335
            },
            {
              "pitch": 48,
              "velocity": 37,
              "position": 0.0020833333333333333,
              "duration": 0.48541666666666666
            },
            {
              "pitch": 64,
              "velocity": 47,
              "position": 0.03125,
              "duration": 0.46458333333333335
            },
            {
              "pitch": 55,
              "velocity": 34,
              "position": 0.010416666666666666,
              "duration": 0.48541666666666666
            },
            {
              "pitch": 59,
              "velocity": 34,
              "position": 0.010416666666666666,
              "duration": 0.48541666666666666
            },
            {
              "pitch": 67,
              "velocity": 42,
              "position": 0.03125,
              "duration": 0.475
            },
            {
              "pitch": 71,
              "velocity": 42,
              "position": 0.03125,
              "duration": 0.475
            },
            {
              "pitch": 48,
              "velocity": 28,
              "position": 0.5,
              "duration": 0.48541666666666666
            },
            {
              "pitch": 60,
              "velocity": 28,
              "position": 0.5,
              "duration": 0.48541666666666666
            },
            {
              "pitch": 55,
              "velocity": 25,
              "position": 0.5104166666666666,
              "duration": 0.48541666666666666
            },
            {
              "pitch": 59,
              "velocity": 25,
              "position": 0.5104166666666666,
              "duration": 0.48541666666666666
            },
            {
              "pitch": 64,
              "velocity": 28,
              "position": 0.5104166666666666,
              "duration": 0.48541666666666666
            },
            {
              "pitch": 67,
              "velocity": 22,
              "position": 0.5208333333333334,
              "duration": 0.48541666666666666
            },
            {
              "pitch": 71,
              "velocity": 22,
              "position": 0.5208333333333334,
              "duration": 0.48541666666666666
            },
            {
              "pitch": 48,
              "velocity": 35,
              "position": 1,
              "duration": 0.48541666666666666
            },
            {
              "pitch": 55,
              "velocity": 36,
              "position": 1.0104166666666667,
              "duration": 0.48541666666666666
            },
            {
              "pitch": 59,
              "velocity": 36,
              "position": 1.0104166666666667,
              "duration": 0.48541666666666666
            },
            {
              "pitch": 60,
              "velocity": 42,
              "position": 1,
              "duration": 0.50625
            },
            {
              "pitch": 64,
              "velocity": 42,
              "position": 1.0104166666666667,
              "duration": 0.50625
            },
            {
              "pitch": 67,
              "velocity": 36,
              "position": 1.0208333333333333,
              "duration": 0.49583333333333335
            },
            {
              "pitch": 71,
              "velocity": 36,
              "position": 1.0208333333333333,
              "duration": 0.49583333333333335
            },
            {
              "pitch": 48,
              "velocity": 42,
              "position": 1.5,
              "duration": 0.48541666666666666
            },
            {
              "pitch": 60,
              "velocity": 45,
              "position": 1.5208333333333333,
              "duration": 0.46458333333333335
            },
            {
              "pitch": 64,
              "velocity": 47,
              "position": 1.53125,
              "duration": 0.46458333333333335
            },
            {
              "pitch": 55,
              "velocity": 45,
              "position": 1.5104166666666667,
              "duration": 0.48541666666666666
            },
            {
              "pitch": 59,
              "velocity": 45,
              "position": 1.5104166666666667,
              "duration": 0.48541666666666666
            },
            {
              "pitch": 67,
              "velocity": 42,
              "position": 1.53125,
              "duration": 0.475
            },
            {
              "pitch": 71,
              "velocity": 42,
              "position": 1.53125,
              "duration": 0.475
            },
            {
              "pitch": 48,
              "velocity": 36,
              "position": 2,
              "duration": 0.48541666666666666
            },
            {
              "pitch": 55,
              "velocity": 34,
              "position": 2.0104166666666665,
              "duration": 0.48541666666666666
            },
            {
              "pitch": 59,
              "velocity": 34,
              "position": 2.0104166666666665,
              "duration": 0.48541666666666666
            },
            {
              "pitch": 60,
              "velocity": 24,
              "position": 2,
              "duration": 0.50625
            },
            {
              "pitch": 64,
              "velocity": 34,
              "position": 2.0104166666666665,
              "duration": 0.50625
            },
            {
              "pitch": 67,
              "velocity": 28,
              "position": 2.0208333333333335,
              "duration": 0.49583333333333335
            },
            {
              "pitch": 71,
              "velocity": 28,
              "position": 2.0208333333333335,
              "duration": 0.49583333333333335
            },
            {
              "pitch": 48,
              "velocity": 42,
              "position": 2.5,
              "duration": 0.48541666666666666
            },
            {
              "pitch": 60,
              "velocity": 42,
              "position": 2.5208333333333335,
              "duration": 0.46458333333333335
            },
            {
              "pitch": 64,
              "velocity": 45,
              "position": 2.53125,
              "duration": 0.46458333333333335
            },
            {
              "pitch": 55,
              "velocity": 42,
              "position": 2.5104166666666665,
              "duration": 0.48541666666666666
            },
            {
              "pitch": 59,
              "velocity": 42,
              "position": 2.5104166666666665,
              "duration": 0.48541666666666666
            },
            {
              "pitch": 67,
              "velocity": 42,
              "position": 2.53125,
              "duration": 0.475
            },
            {
              "pitch": 71,
              "velocity": 42,
              "position": 2.53125,
              "duration": 0.475
            },
            {
              "pitch": 48,
              "velocity": 36,
              "position": 3,
              "duration": 0.48541666666666666
            },
            {
              "pitch": 60,
              "velocity": 42,
              "position": 3,
              "duration": 0.48541666666666666
            },
            {
              "pitch": 55,
              "velocity": 34,
              "position": 3.0104166666666665,
              "duration": 0.48541666666666666
            },
            {
              "pitch": 59,
              "velocity": 34,
              "position": 3.0104166666666665,
              "duration": 0.48541666666666666
            },
            {
              "pitch": 64,
              "velocity": 42,
              "position": 3.0104166666666665,
              "duration": 0.48541666666666666
            },
            {
              "pitch": 67,
              "velocity": 38,
              "position": 3.0208333333333335,
              "duration": 0.48541666666666666
            },
            {
              "pitch": 71,
              "velocity": 38,
              "position": 3.0208333333333335,
              "duration": 0.48541666666666666
            },
            {
              "pitch": 67,
              "velocity": 30,
              "position": 3.5208333333333335,
              "duration": 0.46458333333333335
            },
            {
              "pitch": 71,
              "velocity": 30,
              "position": 3.5208333333333335,
              "duration": 0.46458333333333335
            },
            {
              "pitch": 64,
              "velocity": 32,
              "position": 3.5104166666666665,
              "duration": 0.475
            },
            {
              "pitch": 55,
              "velocity": 28,
              "position": 3.5104166666666665,
              "duration": 0.475
            },
            {
              "pitch": 59,
              "velocity": 28,
              "position": 3.5104166666666665,
              "duration": 0.475
            },
            {
              "pitch": 60,
              "velocity": 30,
              "position": 3.5,
              "duration": 0.48541666666666666
            },
            {
              "pitch": 48,
              "velocity": 32,
              "position": 3.5,
              "duration": 0.48541666666666666
            }
          ]
        },
        "12": {
          "ctab": {
            "srcChannel": 12,
            "name": "HistrGtr",
            "accType": "CHORD2",
            "editable": false,
            "mutedNotes": [],
            "mutedChords": [],
            "autoStart": false,
            "sourceChordNote": 0,
            "sourceChordType": "Maj7",
            "ctb2Low": null,
            "ctb2Main": {
              "ntr": "ROOT_TRANSPOSITION",
              "ntt": "MELODY",
              "bassOn": true,
              "chordRootUpperLimit": 6,
              "noteLowLimit": 0,
              "noteHighLimit": 127,
              "rtr": "PITCH_SHIFT"
            },
            "ctb2High": null
          },
          "notes": [
            {
              "pitch": 67,
              "velocity": 65,
              "position": 0.020833333333333332,
              "duration": 0.46458333333333335
            },
            {
              "pitch": 71,
              "velocity": 65,
              "position": 0.020833333333333332,
              "duration": 0.46458333333333335
            },
            {
              "pitch": 64,
              "velocity": 62,
              "position": 0.020833333333333332,
              "duration": 0.475
            },
            {
              "pitch": 60,
              "velocity": 60,
              "position": 0.020833333333333332,
              "duration": 0.48541666666666666
            },
            {
              "pitch": 55,
              "velocity": 60,
              "position": 0.010416666666666666,
              "duration": 0.49583333333333335
            },
            {
              "pitch": 59,
              "velocity": 60,
              "position": 0.010416666666666666,
              "duration": 0.49583333333333335
            },
            {
              "pitch": 48,
              "velocity": 55,
              "position": 0.010416666666666666,
              "duration": 0.50625
            },
            {
              "pitch": 48,
              "velocity": 51,
              "position": 0.5208333333333334,
              "duration": 0.46458333333333335
            },
            {
              "pitch": 55,
              "velocity": 51,
              "position": 0.5208333333333334,
              "duration": 0.475
            },
            {
              "pitch": 59,
              "velocity": 51,
              "position": 0.5208333333333334,
              "duration": 0.475
            },
            {
              "pitch": 67,
              "velocity": 54,
              "position": 0.5,
              "duration": 0.50625
            },
            {
              "pitch": 71,
              "velocity": 54,
              "position": 0.5,
              "duration": 0.50625
            },
            {
              "pitch": 60,
              "velocity": 51,
              "position": 0.5208333333333334,
              "duration": 0.48541666666666666
            },
            {
              "pitch": 64,
              "velocity": 54,
              "position": 0.5104166666666666,
              "duration": 0.49583333333333335
            },
            {
              "pitch": 48,
              "velocity": 30,
              "position": 1,
              "duration": 0.12083333333333333
            },
            {
              "pitch": 55,
              "velocity": 30,
              "position": 1.0104166666666667,
              "duration": 0.12083333333333333
            },
            {
              "pitch": 59,
              "velocity": 30,
              "position": 1.0104166666666667,
              "duration": 0.12083333333333333
            },
            {
              "pitch": 64,
              "velocity": 30,
              "position": 1.0208333333333333,
              "duration": 0.12083333333333333
            },
            {
              "pitch": 60,
              "velocity": 30,
              "position": 1.0208333333333333,
              "duration": 0.12083333333333333
            },
            {
              "pitch": 67,
              "velocity": 30,
              "position": 1.0208333333333333,
              "duration": 0.12083333333333333
            },
            {
              "pitch": 71,
              "velocity": 30,
              "position": 1.0208333333333333,
              "duration": 0.12083333333333333
            },
            {
              "pitch": 67,
              "velocity": 66,
              "position": 1.5,
              "duration": 0.9854166666666667
            },
            {
              "pitch": 71,
              "velocity": 66,
              "position": 1.5,
              "duration": 0.9854166666666667
            },
            {
              "pitch": 64,
              "velocity": 66,
              "position": 1.5104166666666667,
              "duration": 0.9854166666666667
            },
            {
              "pitch": 48,
              "velocity": 60,
              "position": 1.5208333333333333,
              "duration": 0.9854166666666667
            },
            {
              "pitch": 60,
              "velocity": 61,
              "position": 1.5208333333333333,
              "duration": 0.9854166666666667
            },
            {
              "pitch": 55,
              "velocity": 60,
              "position": 1.5208333333333333,
              "duration": 0.9854166666666667
            },
            {
              "pitch": 59,
              "velocity": 60,
              "position": 1.5208333333333333,
              "duration": 0.9854166666666667
            },
            {
              "pitch": 48,
              "velocity": 40,
              "position": 2.5208333333333335,
              "duration": 0.46458333333333335
            },
            {
              "pitch": 55,
              "velocity": 40,
              "position": 2.5208333333333335,
              "duration": 0.475
            },
            {
              "pitch": 59,
              "velocity": 40,
              "position": 2.5208333333333335,
              "duration": 0.475
            },
            {
              "pitch": 67,
              "velocity": 47,
              "position": 2.5,
              "duration": 0.50625
            },
            {
              "pitch": 71,
              "velocity": 47,
              "position": 2.5,
              "duration": 0.50625
            },
            {
              "pitch": 60,
              "velocity": 52,
              "position": 2.5208333333333335,
              "duration": 0.48541666666666666
            },
            {
              "pitch": 64,
              "velocity": 52,
              "position": 2.5104166666666665,
              "duration": 0.49583333333333335
            },
            {
              "pitch": 67,
              "velocity": 64,
              "position": 3.0208333333333335,
              "duration": 0.46458333333333335
            },
            {
              "pitch": 71,
              "velocity": 64,
              "position": 3.0208333333333335,
              "duration": 0.46458333333333335
            },
            {
              "pitch": 64,
              "velocity": 64,
              "position": 3.0208333333333335,
              "duration": 0.475
            },
            {
              "pitch": 60,
              "velocity": 65,
              "position": 3.0208333333333335,
              "duration": 0.48541666666666666
            },
            {
              "pitch": 48,
              "velocity": 55,
              "position": 3,
              "duration": 0.50625
            },
            {
              "pitch": 55,
              "velocity": 51,
              "position": 3.0104166666666665,
              "duration": 0.49583333333333335
            },
            {
              "pitch": 59,
              "velocity": 51,
              "position": 3.0104166666666665,
              "duration": 0.49583333333333335
            },
            {
              "pitch": 60,
              "velocity": 40,
              "position": 3.5208333333333335,
              "duration": 0.46458333333333335
            },
            {
              "pitch": 55,
              "velocity": 36,
              "position": 3.5208333333333335,
              "duration": 0.46458333333333335
            },
            {
              "pitch": 59,
              "velocity": 36,
              "position": 3.5208333333333335,
              "duration": 0.46458333333333335
            },
            {
              "pitch": 48,
              "velocity": 36,
              "position": 3.5208333333333335,
              "duration": 0.46458333333333335
            },
            {
              "pitch": 64,
              "velocity": 40,
              "position": 3.5104166666666665,
              "duration": 0.475
            },
            {
              "pitch": 67,
              "velocity": 40,
              "position": 3.5,
              "duration": 0.48541666666666666
            },
            {
              "pitch": 71,
              "velocity": 40,
              "position": 3.5,
              "duration": 0.48541666666666666
            }
          ]
        },
        "13": {
          "ctab": {
            "srcChannel": 13,
            "name": "Organ",
            "accType": "PAD",
            "editable": false,
            "mutedNotes": [],
            "mutedChords": [],
            "autoStart": false,
            "sourceChordNote": 0,
            "sourceChordType": "Maj7",
            "ctb2Low": null,
            "ctb2Main": {
              "ntr": "ROOT_FIXED",
              "ntt": "CHORD",
              "bassOn": false,
              "chordRootUpperLimit": 0,
              "noteLowLimit": 0,
              "noteHighLimit": 79,
              "rtr": "PITCH_SHIFT"
            },
            "ctb2High": null
          },
          "notes": [
            {
              "pitch": 64,
              "velocity": 49,
              "position": 0.020833333333333332,
              "duration": 2.6645833333333333
            },
            {
              "pitch": 71,
              "velocity": 49,
              "position": 0.020833333333333332,
              "duration": 2.6645833333333333
            },
            {
              "pitch": 67,
              "velocity": 49,
              "position": 0.020833333333333332,
              "duration": 2.6645833333333333
            },
            {
              "pitch": 71,
              "velocity": 63,
              "position": 2.73125,
              "duration": 1.1729166666666666
            },
            {
              "pitch": 64,
              "velocity": 63,
              "position": 2.73125,
              "duration": 1.1979166666666667
            },
            {
              "pitch": 67,
              "velocity": 63,
              "position": 2.73125,
              "duration": 1.2041666666666666
            }
          ]
        },
        "14": {
          "ctab": {
            "srcChannel": 14,
            "name": "Tele",
            "accType": "PHRASE1",
            "editable": false,
            "mutedNotes": [],
            "mutedChords": [],
            "autoStart": false,
            "sourceChordNote": 0,
            "sourceChordType": "min7(11)",
            "ctb2Low": null,
            "ctb2Main": {
              "ntr": "ROOT_FIXED",
              "ntt": "CHORD",
              "bassOn": false,
              "chordRootUpperLimit": 3,
              "noteLowLimit": 0,
              "noteHighLimit": 127,
              "rtr": "PITCH_SHIFT"
            },
            "ctb2High": null
          },
          "notes": [
            {
              "pitch": 60,
              "velocity": 76,
              "position": 0,
              "duration": 0.07916666666666666
            },
            {
              "pitch": 117,
              "velocity": 80,
              "position": 0,
              "duration": 0.20416666666666666
            },
            {
              "pitch": 48,
              "velocity": 76,
              "position": 0,
              "duration": 0.21458333333333332
            },
            {
              "pitch": 55,
              "velocity": 79,
              "position": 0,
              "duration": 0.225
            },
            {
              "pitch": 60,
              "velocity": 76,
              "position": 0.5,
              "duration": 0.07916666666666666
            },
            {
              "pitch": 100,
              "velocity": 62,
              "position": 0.5,
              "duration": 0.20416666666666666
            },
            {
              "pitch": 48,
              "velocity": 76,
              "position": 0.5,
              "duration": 0.21458333333333332
            },
            {
              "pitch": 55,
              "velocity": 76,
              "position": 0.5,
              "duration": 0.225
            },
            {
              "pitch": 67,
              "velocity": 110,
              "position": 0.5,
              "duration": 0.48541666666666666
            },
            {
              "pitch": 60,
              "velocity": 76,
              "position": 1,
              "duration": 0.07916666666666666
            },
            {
              "pitch": 117,
              "velocity": 70,
              "position": 1,
              "duration": 0.20416666666666666
            },
            {
              "pitch": 48,
              "velocity": 76,
              "position": 1,
              "duration": 0.21458333333333332
            },
            {
              "pitch": 55,
              "velocity": 78,
              "position": 1,
              "duration": 0.225
            },
            {
              "pitch": 67,
              "velocity": 6,
              "position": 1,
              "duration": 0.48541666666666666
            },
            {
              "pitch": 72,
              "velocity": 12,
              "position": 0.5208333333333334,
              "duration": 0.9854166666666667
            },
            {
              "pitch": 100,
              "velocity": 76,
              "position": 1.5,
              "duration": 0.20416666666666666
            },
            {
              "pitch": 48,
              "velocity": 76,
              "position": 1.5,
              "duration": 0.21458333333333332
            },
            {
              "pitch": 60,
              "velocity": 76,
              "position": 1.5,
              "duration": 0.45416666666666666
            },
            {
              "pitch": 55,
              "velocity": 79,
              "position": 1.5,
              "duration": 0.475
            },
            {
              "pitch": 67,
              "velocity": 6,
              "position": 1.5,
              "duration": 0.48541666666666666
            },
            {
              "pitch": 72,
              "velocity": 6,
              "position": 1.5208333333333333,
              "duration": 0.48541666666666666
            },
            {
              "pitch": 60,
              "velocity": 76,
              "position": 2,
              "duration": 0.07916666666666666
            },
            {
              "pitch": 102,
              "velocity": 46,
              "position": 2,
              "duration": 0.20416666666666666
            },
            {
              "pitch": 48,
              "velocity": 76,
              "position": 2,
              "duration": 0.21458333333333332
            },
            {
              "pitch": 55,
              "velocity": 78,
              "position": 2,
              "duration": 0.225
            },
            {
              "pitch": 67,
              "velocity": 110,
              "position": 2,
              "duration": 0.48541666666666666
            },
            {
              "pitch": 72,
              "velocity": 8,
              "position": 2.0208333333333335,
              "duration": 0.48541666666666666
            },
            {
              "pitch": 60,
              "velocity": 76,
              "position": 2.5,
              "duration": 0.07916666666666666
            },
            {
              "pitch": 104,
              "velocity": 62,
              "position": 2.5,
              "duration": 0.20416666666666666
            },
            {
              "pitch": 48,
              "velocity": 76,
              "position": 2.5,
              "duration": 0.21458333333333332
            },
            {
              "pitch": 55,
              "velocity": 76,
              "position": 2.5,
              "duration": 0.225
            },
            {
              "pitch": 67,
              "velocity": 12,
              "position": 2.5,
              "duration": 0.48541666666666666
            },
            {
              "pitch": 72,
              "velocity": 12,
              "position": 2.5208333333333335,
              "duration": 0.48541666666666666
            },
            {
              "pitch": 100,
              "velocity": 66,
              "position": 3,
              "duration": 0.20416666666666666
            },
            {
              "pitch": 48,
              "velocity": 76,
              "position": 3,
              "duration": 0.21458333333333332
            },
            {
              "pitch": 60,
              "velocity": 76,
              "position": 3,
              "duration": 0.45416666666666666
            },
            {
              "pitch": 55,
              "velocity": 78,
              "position": 3,
              "duration": 0.475
            },
            {
              "pitch": 98,
              "velocity": 62,
              "position": 3.5,
              "duration": 0.20416666666666666
            },
            {
              "pitch": 48,
              "velocity": 76,
              "position": 3.5,
              "duration": 0.21458333333333332
            },
            {
              "pitch": 60,
              "velocity": 76,
              "position": 3.5,
              "duration": 0.45416666666666666
            },
            {
              "pitch": 55,
              "velocity": 76,
              "position": 3.5,
              "duration": 0.475
            },
            {
              "pitch": 67,
              "velocity": 22,
              "position": 3,
              "duration": 0.9854166666666667
            },
            {
              "pitch": 72,
              "velocity": 22,
              "position": 3.0208333333333335,
              "duration": 0.975
            }
          ]
        },
        "15": {
          "ctab": {
            "srcChannel": 15,
            "name": "Strings",
            "accType": "PHRASE2",
            "editable": true,
            "mutedNotes": [],
            "mutedChords": [],
            "autoStart": false,
            "sourceChordNote": 0,
            "sourceChordType": "Maj7",
            "ctb2Low": null,
            "ctb2Main": {
              "ntr": "ROOT_FIXED",
              "ntt": "CHORD",
              "bassOn": false,
              "chordRootUpperLimit": 0,
              "noteLowLimit": 0,
              "noteHighLimit": 127,
              "rtr": "PITCH_SHIFT"
            },
            "ctb2High": null
          },
          "notes": [
            {
              "pitch": 55,
              "velocity": 39,
              "position": 0,
              "duration": 3.9854166666666666
            },
            {
              "pitch": 64,
              "velocity": 39,
              "position": 0,
              "duration": 3.9854166666666666
            },
            {
              "pitch": 59,
              "velocity": 39,
              "position": 0,
              "duration": 3.9854166666666666
            }
          ]
        }
      }
    },
    "Fill_In_BB": {
      "type": "Fill_In_BB",
      "sizeInBeats": 4,
      "channels": {
        "1": {
          "ctab": {
            "srcChannel": 1,
            "name": "Bass B",
            "accType": "BASS",
            "editable": false,
            "mutedNotes": [],
            "mutedChords": [
              "1+5",
              "1+8",
              "7(#9)",
              "7(b13)",
              "7(b9)",
              "7(13)",
              "7#11",
              "7(9)",
              "7b5",
              "7sus4",
              "7th",
              "dim7",
              "dim",
              "min7(11)",
              "min7(9)",
              "m7b5",
              "min7",
              "min6",
              "Maj6(9)",
              "Maj7(9)",
              "Maj(9)",
              "Maj7#11",
              "Maj7",
              "Maj6",
              "Maj"
            ],
            "autoStart": false,
            "sourceChordNote": 0,
            "sourceChordType": "Maj7",
            "ctb2Low": null,
            "ctb2Main": {
              "ntr": "ROOT_TRANSPOSITION",
              "ntt": "MELODY",
              "bassOn": true,
              "chordRootUpperLimit": 8,
              "noteLowLimit": 28,
              "noteHighLimit": 127,
              "rtr": "PITCH_SHIFT_TO_ROOT"
            },
            "ctb2High": null
          },
          "notes": [
            {
              "pitch": 24,
              "velocity": 70,
              "position": 0,
              "duration": 0.48541666666666666
            },
            {
              "pitch": 24,
              "velocity": 50,
              "position": 0.5,
              "duration": 0.48541666666666666
            },
            {
              "pitch": 48,
              "velocity": 106,
              "position": 1,
              "duration": 0.027083333333333334
            },
            {
              "pitch": 55,
              "velocity": 106,
              "position": 1.03125,
              "duration": 0.027083333333333334
            },
            {
              "pitch": 24,
              "velocity": 50,
              "position": 1.5,
              "duration": 0.24583333333333332
            },
            {
              "pitch": 24,
              "velocity": 70,
              "position": 2,
              "duration": 0.48541666666666666
            },
            {
              "pitch": 31,
              "velocity": 50,
              "position": 2.5,
              "duration": 0.48541666666666666
            },
            {
              "pitch": 28,
              "velocity": 60,
              "position": 3,
              "duration": 0.48541666666666666
            },
            {
              "pitch": 31,
              "velocity": 50,
              "position": 3.5,
              "duration": 0.48541666666666666
            }
          ]
        },
        "8": {
          "ctab": {
            "srcChannel": 8,
            "name": "AddDrum",
            "accType": "SUBRHYTHM",
            "editable": false,
            "mutedNotes": [],
            "mutedChords": [],
            "autoStart": true,
            "sourceChordNote": 0,
            "sourceChordType": "Maj7",
            "ctb2Low": null,
            "ctb2Main": {
              "ntr": "ROOT_FIXED",
              "ntt": "BYPASS",
              "bassOn": false,
              "chordRootUpperLimit": 6,
              "noteLowLimit": 0,
              "noteHighLimit": 127,
              "rtr": "PITCH_SHIFT"
            },
            "ctb2High": null
          },
          "notes": [
            {
              "pitch": 54,
              "velocity": 90,
              "position": 0,
              "duration": 0.058333333333333334
            },
            {
              "pitch": 54,
              "velocity": 50,
              "position": 0.5,
              "duration": 0.058333333333333334
            },
            {
              "pitch": 54,
              "velocity": 90,
              "position": 0.99375,
              "duration": 0.058333333333333334
            },
            {
              "pitch": 54,
              "velocity": 50,
              "position": 1.5,
              "duration": 0.058333333333333334
            },
            {
              "pitch": 54,
              "velocity": 90,
              "position": 2,
              "duration": 0.058333333333333334
            },
            {
              "pitch": 54,
              "velocity": 50,
              "position": 2.5,
              "duration": 0.058333333333333334
            },
            {
              "pitch": 54,
              "velocity": 90,
              "position": 3,
              "duration": 0.058333333333333334
            },
            {
              "pitch": 54,
              "velocity": 50,
              "position": 3.5,
              "duration": 0.058333333333333334
            }
          ]
        },
        "9": {
          "ctab": {
            "srcChannel": 9,
            "name": "MainDrum",
            "accType": "RHYTHM",
            "editable": false,
            "mutedNotes": [],
            "mutedChords": [],
            "autoStart": true,
            "sourceChordNote": 0,
            "sourceChordType": "Maj7",
            "ctb2Low": null,
            "ctb2Main": {
              "ntr": "ROOT_FIXED",
              "ntt": "BYPASS",
              "bassOn": false,
              "chordRootUpperLimit": 6,
              "noteLowLimit": 0,
              "noteHighLimit": 127,
              "rtr": "PITCH_SHIFT"
            },
            "ctb2High": null
          },
          "notes": [
            {
              "pitch": 35,
              "velocity": 108,
              "position": 0,
              "duration": 0.00625
            },
            {
              "pitch": 46,
              "velocity": 88,
              "position": 0,
              "duration": 0.00625
            },
            {
              "pitch": 38,
              "velocity": 110,
              "position": 0.5,
              "duration": 0.00625
            },
            {
              "pitch": 46,
              "velocity": 88,
              "position": 0.5,
              "duration": 0.00625
            },
            {
              "pitch": 38,
              "velocity": 82,
              "position": 0.9791666666666666,
              "duration": 0.00625
            },
            {
              "pitch": 38,
              "velocity": 100,
              "position": 1.0208333333333333,
              "duration": 0.00625
            },
            {
              "pitch": 35,
              "velocity": 73,
              "position": 1.5,
              "duration": 0.00625
            },
            {
              "pitch": 46,
              "velocity": 88,
              "position": 1.5,
              "duration": 0.00625
            },
            {
              "pitch": 35,
              "velocity": 101,
              "position": 2,
              "duration": 0.00625
            },
            {
              "pitch": 48,
              "velocity": 97,
              "position": 2,
              "duration": 0.00625
            },
            {
              "pitch": 46,
              "velocity": 100,
              "position": 2,
              "duration": 0.00625
            },
            {
              "pitch": 35,
              "velocity": 73,
              "position": 2.5,
              "duration": 0.00625
            },
            {
              "pitch": 47,
              "velocity": 50,
              "position": 2.5,
              "duration": 0.00625
            },
            {
              "pitch": 47,
              "velocity": 80,
              "position": 2.75,
              "duration": 0.00625
            },
            {
              "pitch": 35,
              "velocity": 101,
              "position": 3,
              "duration": 0.00625
            },
            {
              "pitch": 47,
              "velocity": 97,
              "position": 3,
              "duration": 0.00625
            },
            {
              "pitch": 35,
              "velocity": 85,
              "position": 3.5,
              "duration": 0.00625
            },
            {
              "pitch": 46,
              "velocity": 89,
              "position": 3.5,
              "duration": 0.00625
            },
            {
              "pitch": 45,
              "velocity": 97,
              "position": 3.5,
              "duration": 0.00625
            },
            {
              "pitch": 49,
              "velocity": 94,
              "position": 3.9895833333333335,
              "duration": 0.00625
            }
          ]
        },
        "10": {
          "ctab": {
            "srcChannel": 10,
            "name": "Bass A",
            "accType": "BASS",
            "editable": false,
            "mutedNotes": [],
            "mutedChords": [
              "1+2+5",
              "sus4",
              "7aug",
              "Maj7aug",
              "minMaj7(9)",
              "minMaj7",
              "min(9)",
              "min",
              "aug"
            ],
            "autoStart": false,
            "sourceChordNote": 0,
            "sourceChordType": "Maj7",
            "ctb2Low": null,
            "ctb2Main": {
              "ntr": "ROOT_TRANSPOSITION",
              "ntt": "MELODY",
              "bassOn": true,
              "chordRootUpperLimit": 8,
              "noteLowLimit": 28,
              "noteHighLimit": 127,
              "rtr": "PITCH_SHIFT_TO_ROOT"
            },
            "ctb2High": null
          },
          "notes": [
            {
              "pitch": 24,
              "velocity": 70,
              "position": 0,
              "duration": 0.48541666666666666
            },
            {
              "pitch": 24,
              "velocity": 50,
              "position": 0.5,
              "duration": 0.48541666666666666
            },
            {
              "pitch": 48,
              "velocity": 106,
              "position": 1,
              "duration": 0.027083333333333334
            },
            {
              "pitch": 55,
              "velocity": 106,
              "position": 1.03125,
              "duration": 0.027083333333333334
            },
            {
              "pitch": 24,
              "velocity": 50,
              "position": 1.5,
              "duration": 0.24583333333333332
            },
            {
              "pitch": 24,
              "velocity": 70,
              "position": 2,
              "duration": 0.48541666666666666
            },
            {
              "pitch": 31,
              "velocity": 50,
              "position": 2.5,
              "duration": 0.48541666666666666
            },
            {
              "pitch": 33,
              "velocity": 60,
              "position": 3,
              "duration": 0.48541666666666666
            },
            {
              "pitch": 31,
              "velocity": 50,
              "position": 3.5,
              "duration": 0.48541666666666666
            }
          ]
        },
        "11": {
          "ctab": {
            "srcChannel": 11,
            "name": "SteelGtr",
            "accType": "CHORD1",
            "editable": false,
            "mutedNotes": [],
            "mutedChords": [],
            "autoStart": false,
            "sourceChordNote": 0,
            "sourceChordType": "Maj7",
            "ctb2Low": null,
            "ctb2Main": {
              "ntr": "ROOT_TRANSPOSITION",
              "ntt": "MELODY",
              "bassOn": true,
              "chordRootUpperLimit": 3,
              "noteLowLimit": 0,
              "noteHighLimit": 127,
              "rtr": "PITCH_SHIFT"
            },
            "ctb2High": null
          },
          "notes": [
            {
              "pitch": 60,
              "velocity": 42,
              "position": 0.020833333333333332,
              "duration": 0.46458333333333335
            },
            {
              "pitch": 67,
              "velocity": 42,
              "position": 0.03125,
              "duration": 0.45416666666666666
            },
            {
              "pitch": 71,
              "velocity": 42,
              "position": 0.03125,
              "duration": 0.45416666666666666
            },
            {
              "pitch": 55,
              "velocity": 34,
              "position": 0.010416666666666666,
              "duration": 0.48541666666666666
            },
            {
              "pitch": 59,
              "velocity": 34,
              "position": 0.010416666666666666,
              "duration": 0.48541666666666666
            },
            {
              "pitch": 64,
              "velocity": 47,
              "position": 0.03125,
              "duration": 0.46458333333333335
            },
            {
              "pitch": 48,
              "velocity": 37,
              "position": 0.0020833333333333333,
              "duration": 0.50625
            },
            {
              "pitch": 48,
              "velocity": 22,
              "position": 0.5208333333333334,
              "duration": 0.46458333333333335
            },
            {
              "pitch": 55,
              "velocity": 28,
              "position": 0.5104166666666666,
              "duration": 0.48541666666666666
            },
            {
              "pitch": 59,
              "velocity": 28,
              "position": 0.5104166666666666,
              "duration": 0.48541666666666666
            },
            {
              "pitch": 60,
              "velocity": 28,
              "position": 0.5,
              "duration": 0.50625
            },
            {
              "pitch": 64,
              "velocity": 34,
              "position": 0.5104166666666666,
              "duration": 0.50625
            },
            {
              "pitch": 67,
              "velocity": 28,
              "position": 0.5,
              "duration": 0.5166666666666667
            },
            {
              "pitch": 71,
              "velocity": 28,
              "position": 0.5,
              "duration": 0.5166666666666667
            },
            {
              "pitch": 48,
              "velocity": 77,
              "position": 1,
              "duration": 0.17291666666666666
            },
            {
              "pitch": 55,
              "velocity": 77,
              "position": 1.0104166666666667,
              "duration": 0.17291666666666666
            },
            {
              "pitch": 59,
              "velocity": 77,
              "position": 1.0104166666666667,
              "duration": 0.17291666666666666
            },
            {
              "pitch": 60,
              "velocity": 77,
              "position": 1.0208333333333333,
              "duration": 0.17291666666666666
            },
            {
              "pitch": 64,
              "velocity": 77,
              "position": 1.03125,
              "duration": 0.17291666666666666
            },
            {
              "pitch": 67,
              "velocity": 77,
              "position": 1.03125,
              "duration": 0.17291666666666666
            },
            {
              "pitch": 71,
              "velocity": 77,
              "position": 1.03125,
              "duration": 0.17291666666666666
            },
            {
              "pitch": 67,
              "velocity": 42,
              "position": 1.5,
              "duration": 0.9854166666666667
            },
            {
              "pitch": 71,
              "velocity": 42,
              "position": 1.5,
              "duration": 0.9854166666666667
            },
            {
              "pitch": 60,
              "velocity": 45,
              "position": 1.5208333333333333,
              "duration": 0.9645833333333333
            },
            {
              "pitch": 64,
              "velocity": 47,
              "position": 1.5104166666666667,
              "duration": 0.9854166666666667
            },
            {
              "pitch": 55,
              "velocity": 45,
              "position": 1.5208333333333333,
              "duration": 0.975
            },
            {
              "pitch": 59,
              "velocity": 45,
              "position": 1.5208333333333333,
              "duration": 0.975
            },
            {
              "pitch": 48,
              "velocity": 42,
              "position": 1.5208333333333333,
              "duration": 0.9854166666666667
            },
            {
              "pitch": 48,
              "velocity": 22,
              "position": 2.5208333333333335,
              "duration": 0.46458333333333335
            },
            {
              "pitch": 55,
              "velocity": 28,
              "position": 2.5104166666666665,
              "duration": 0.48541666666666666
            },
            {
              "pitch": 59,
              "velocity": 28,
              "position": 2.5104166666666665,
              "duration": 0.48541666666666666
            },
            {
              "pitch": 60,
              "velocity": 28,
              "position": 2.5,
              "duration": 0.50625
            },
            {
              "pitch": 64,
              "velocity": 36,
              "position": 2.5104166666666665,
              "duration": 0.50625
            },
            {
              "pitch": 67,
              "velocity": 36,
              "position": 2.5,
              "duration": 0.5166666666666667
            },
            {
              "pitch": 71,
              "velocity": 36,
              "position": 2.5,
              "duration": 0.5166666666666667
            },
            {
              "pitch": 60,
              "velocity": 45,
              "position": 3.0208333333333335,
              "duration": 0.46458333333333335
            },
            {
              "pitch": 67,
              "velocity": 42,
              "position": 3.03125,
              "duration": 0.45416666666666666
            },
            {
              "pitch": 71,
              "velocity": 42,
              "position": 3.03125,
              "duration": 0.45416666666666666
            },
            {
              "pitch": 55,
              "velocity": 45,
              "position": 3.0104166666666665,
              "duration": 0.48541666666666666
            },
            {
              "pitch": 59,
              "velocity": 45,
              "position": 3.0104166666666665,
              "duration": 0.48541666666666666
            },
            {
              "pitch": 64,
              "velocity": 47,
              "position": 3.03125,
              "duration": 0.46458333333333335
            },
            {
              "pitch": 48,
              "velocity": 42,
              "position": 3,
              "duration": 0.50625
            },
            {
              "pitch": 48,
              "velocity": 22,
              "position": 3.5208333333333335,
              "duration": 0.46458333333333335
            },
            {
              "pitch": 64,
              "velocity": 25,
              "position": 3.5104166666666665,
              "duration": 0.475
            },
            {
              "pitch": 55,
              "velocity": 28,
              "position": 3.5104166666666665,
              "duration": 0.475
            },
            {
              "pitch": 59,
              "velocity": 28,
              "position": 3.5104166666666665,
              "duration": 0.475
            },
            {
              "pitch": 67,
              "velocity": 28,
              "position": 3.5,
              "duration": 0.48541666666666666
            },
            {
              "pitch": 71,
              "velocity": 28,
              "position": 3.5,
              "duration": 0.48541666666666666
            },
            {
              "pitch": 60,
              "velocity": 28,
              "position": 3.5,
              "duration": 0.48541666666666666
            }
          ]
        },
        "12": {
          "ctab": {
            "srcChannel": 12,
            "name": "HistrGtr",
            "accType": "CHORD2",
            "editable": false,
            "mutedNotes": [],
            "mutedChords": [],
            "autoStart": false,
            "sourceChordNote": 0,
            "sourceChordType": "Maj7",
            "ctb2Low": null,
            "ctb2Main": {
              "ntr": "ROOT_TRANSPOSITION",
              "ntt": "MELODY",
              "bassOn": true,
              "chordRootUpperLimit": 6,
              "noteLowLimit": 0,
              "noteHighLimit": 127,
              "rtr": "PITCH_SHIFT"
            },
            "ctb2High": null
          },
          "notes": [
            {
              "pitch": 67,
              "velocity": 69,
              "position": 0.020833333333333332,
              "duration": 0.46458333333333335
            },
            {
              "pitch": 71,
              "velocity": 69,
              "position": 0.020833333333333332,
              "duration": 0.46458333333333335
            },
            {
              "pitch": 64,
              "velocity": 67,
              "position": 0.020833333333333332,
              "duration": 0.475
            },
            {
              "pitch": 60,
              "velocity": 60,
              "position": 0.020833333333333332,
              "duration": 0.48541666666666666
            },
            {
              "pitch": 55,
              "velocity": 55,
              "position": 0.010416666666666666,
              "duration": 0.49583333333333335
            },
            {
              "pitch": 59,
              "velocity": 55,
              "position": 0.010416666666666666,
              "duration": 0.49583333333333335
            },
            {
              "pitch": 48,
              "velocity": 50,
              "position": 0.010416666666666666,
              "duration": 0.50625
            },
            {
              "pitch": 48,
              "velocity": 45,
              "position": 0.5208333333333334,
              "duration": 0.46458333333333335
            },
            {
              "pitch": 55,
              "velocity": 40,
              "position": 0.5208333333333334,
              "duration": 0.475
            },
            {
              "pitch": 59,
              "velocity": 40,
              "position": 0.5208333333333334,
              "duration": 0.475
            },
            {
              "pitch": 67,
              "velocity": 43,
              "position": 0.5,
              "duration": 0.50625
            },
            {
              "pitch": 71,
              "velocity": 43,
              "position": 0.5,
              "duration": 0.50625
            },
            {
              "pitch": 60,
              "velocity": 37,
              "position": 0.5208333333333334,
              "duration": 0.48541666666666666
            },
            {
              "pitch": 64,
              "velocity": 34,
              "position": 0.5104166666666666,
              "duration": 0.49583333333333335
            },
            {
              "pitch": 67,
              "velocity": 44,
              "position": 1.0208333333333333,
              "duration": 0.46458333333333335
            },
            {
              "pitch": 71,
              "velocity": 44,
              "position": 1.0208333333333333,
              "duration": 0.46458333333333335
            },
            {
              "pitch": 64,
              "velocity": 53,
              "position": 1.0208333333333333,
              "duration": 0.475
            },
            {
              "pitch": 60,
              "velocity": 51,
              "position": 1.0208333333333333,
              "duration": 0.48541666666666666
            },
            {
              "pitch": 48,
              "velocity": 38,
              "position": 1,
              "duration": 0.50625
            },
            {
              "pitch": 55,
              "velocity": 44,
              "position": 1.0104166666666667,
              "duration": 0.49583333333333335
            },
            {
              "pitch": 59,
              "velocity": 44,
              "position": 1.0104166666666667,
              "duration": 0.49583333333333335
            },
            {
              "pitch": 48,
              "velocity": 59,
              "position": 1.5208333333333333,
              "duration": 0.46458333333333335
            },
            {
              "pitch": 55,
              "velocity": 36,
              "position": 1.5208333333333333,
              "duration": 0.475
            },
            {
              "pitch": 59,
              "velocity": 36,
              "position": 1.5208333333333333,
              "duration": 0.475
            },
            {
              "pitch": 67,
              "velocity": 59,
              "position": 1.5,
              "duration": 0.50625
            },
            {
              "pitch": 71,
              "velocity": 59,
              "position": 1.5,
              "duration": 0.50625
            },
            {
              "pitch": 60,
              "velocity": 59,
              "position": 1.5208333333333333,
              "duration": 0.48541666666666666
            },
            {
              "pitch": 64,
              "velocity": 58,
              "position": 1.5104166666666667,
              "duration": 0.49583333333333335
            },
            {
              "pitch": 67,
              "velocity": 68,
              "position": 2.0208333333333335,
              "duration": 0.46458333333333335
            },
            {
              "pitch": 71,
              "velocity": 68,
              "position": 2.0208333333333335,
              "duration": 0.46458333333333335
            },
            {
              "pitch": 64,
              "velocity": 70,
              "position": 2.0208333333333335,
              "duration": 0.475
            },
            {
              "pitch": 60,
              "velocity": 63,
              "position": 2.0208333333333335,
              "duration": 0.48541666666666666
            },
            {
              "pitch": 48,
              "velocity": 60,
              "position": 2,
              "duration": 0.50625
            },
            {
              "pitch": 55,
              "velocity": 58,
              "position": 2.0104166666666665,
              "duration": 0.49583333333333335
            },
            {
              "pitch": 59,
              "velocity": 58,
              "position": 2.0104166666666665,
              "duration": 0.49583333333333335
            },
            {
              "pitch": 48,
              "velocity": 45,
              "position": 2.5208333333333335,
              "duration": 0.46458333333333335
            },
            {
              "pitch": 55,
              "velocity": 45,
              "position": 2.5208333333333335,
              "duration": 0.475
            },
            {
              "pitch": 59,
              "velocity": 45,
              "position": 2.5208333333333335,
              "duration": 0.475
            },
            {
              "pitch": 67,
              "velocity": 48,
              "position": 2.5,
              "duration": 0.50625
            },
            {
              "pitch": 71,
              "velocity": 48,
              "position": 2.5,
              "duration": 0.50625
            },
            {
              "pitch": 60,
              "velocity": 45,
              "position": 2.5208333333333335,
              "duration": 0.48541666666666666
            },
            {
              "pitch": 64,
              "velocity": 48,
              "position": 2.5104166666666665,
              "duration": 0.49583333333333335
            },
            {
              "pitch": 67,
              "velocity": 48,
              "position": 3.0208333333333335,
              "duration": 0.46458333333333335
            },
            {
              "pitch": 71,
              "velocity": 48,
              "position": 3.0208333333333335,
              "duration": 0.46458333333333335
            },
            {
              "pitch": 64,
              "velocity": 48,
              "position": 3.0208333333333335,
              "duration": 0.475
            },
            {
              "pitch": 60,
              "velocity": 49,
              "position": 3.0208333333333335,
              "duration": 0.48541666666666666
            },
            {
              "pitch": 48,
              "velocity": 46,
              "position": 3,
              "duration": 0.50625
            },
            {
              "pitch": 55,
              "velocity": 42,
              "position": 3.0104166666666665,
              "duration": 0.49583333333333335
            },
            {
              "pitch": 59,
              "velocity": 42,
              "position": 3.0104166666666665,
              "duration": 0.49583333333333335
            },
            {
              "pitch": 60,
              "velocity": 58,
              "position": 3.5208333333333335,
              "duration": 0.46458333333333335
            },
            {
              "pitch": 55,
              "velocity": 36,
              "position": 3.5208333333333335,
              "duration": 0.46458333333333335
            },
            {
              "pitch": 59,
              "velocity": 36,
              "position": 3.5208333333333335,
              "duration": 0.46458333333333335
            },
            {
              "pitch": 48,
              "velocity": 36,
              "position": 3.5208333333333335,
              "duration": 0.46458333333333335
            },
            {
              "pitch": 64,
              "velocity": 61,
              "position": 3.5104166666666665,
              "duration": 0.475
            },
            {
              "pitch": 67,
              "velocity": 60,
              "position": 3.5,
              "duration": 0.48541666666666666
            },
            {
              "pitch": 71,
              "velocity": 60,
              "position": 3.5,
              "duration": 0.48541666666666666
            }
          ]
        },
        "13": {
          "ctab": {
            "srcChannel": 13,
            "name": "Organ",
            "accType": "PAD",
            "editable": false,
            "mutedNotes": [],
            "mutedChords": [],
            "autoStart": false,
            "sourceChordNote": 0,
            "sourceChordType": "Maj7",
            "ctb2Low": null,
            "ctb2Main": {
              "ntr": "ROOT_FIXED",
              "ntt": "CHORD",
              "bassOn": false,
              "chordRootUpperLimit": 0,
              "noteLowLimit": 0,
              "noteHighLimit": 79,
              "rtr": "PITCH_SHIFT"
            },
            "ctb2High": null
          },
          "notes": [
            {
              "pitch": 64,
              "velocity": 49,
              "position": 0.020833333333333332,
              "duration": 2.6645833333333333
            },
            {
              "pitch": 71,
              "velocity": 49,
              "position": 0.020833333333333332,
              "duration": 2.6645833333333333
            },
            {
              "pitch": 67,
              "velocity": 49,
              "position": 0.020833333333333332,
              "duration": 2.6645833333333333
            },
            {
              "pitch": 71,
              "velocity": 63,
              "position": 2.73125,
              "duration": 1.1729166666666666
            },
            {
              "pitch": 64,
              "velocity": 63,
              "position": 2.73125,
              "duration": 1.1979166666666667
            },
            {
              "pitch": 67,
              "velocity": 63,
              "position": 2.73125,
              "duration": 1.2041666666666666
            }
          ]
        },
        "14": {
          "ctab": {
            "srcChannel": 14,
            "name": "Tele",
            "accType": "PHRASE1",
            "editable": false,
            "mutedNotes": [],
            "mutedChords": [],
            "autoStart": false,
            "sourceChordNote": 0,
            "sourceChordType": "min7(11)",
            "ctb2Low": null,
            "ctb2Main": {
              "ntr": "ROOT_FIXED",
              "ntt": "CHORD",
              "bassOn": false,
              "chordRootUpperLimit": 3,
              "noteLowLimit": 0,
              "noteHighLimit": 127,
              "rtr": "PITCH_SHIFT"
            },
            "ctb2High": null
          },
          "notes": [
            {
              "pitch": 113,
              "velocity": 81,
              "position": 0,
              "duration": 0.20416666666666666
            },
            {
              "pitch": 48,
              "velocity": 76,
              "position": 0,
              "duration": 0.21458333333333332
            },
            {
              "pitch": 55,
              "velocity": 79,
              "position": 0,
              "duration": 0.21458333333333332
            },
            {
              "pitch": 100,
              "velocity": 58,
              "position": 0.5,
              "duration": 0.20416666666666666
            },
            {
              "pitch": 48,
              "velocity": 76,
              "position": 0.5,
              "duration": 0.21458333333333332
            },
            {
              "pitch": 55,
              "velocity": 76,
              "position": 0.5,
              "duration": 0.225
            },
            {
              "pitch": 114,
              "velocity": 78,
              "position": 1,
              "duration": 0.20416666666666666
            },
            {
              "pitch": 48,
              "velocity": 76,
              "position": 1,
              "duration": 0.21458333333333332
            },
            {
              "pitch": 55,
              "velocity": 78,
              "position": 1,
              "duration": 0.225
            },
            {
              "pitch": 72,
              "velocity": 14,
              "position": 0.5,
              "duration": 0.9854166666666667
            },
            {
              "pitch": 67,
              "velocity": 112,
              "position": 0.5208333333333334,
              "duration": 0.9854166666666667
            },
            {
              "pitch": 100,
              "velocity": 67,
              "position": 1.5,
              "duration": 0.20416666666666666
            },
            {
              "pitch": 48,
              "velocity": 76,
              "position": 1.5,
              "duration": 0.21458333333333332
            },
            {
              "pitch": 55,
              "velocity": 79,
              "position": 1.5,
              "duration": 0.475
            },
            {
              "pitch": 67,
              "velocity": 10,
              "position": 1.5208333333333333,
              "duration": 0.48541666666666666
            },
            {
              "pitch": 102,
              "velocity": 67,
              "position": 2,
              "duration": 0.20416666666666666
            },
            {
              "pitch": 48,
              "velocity": 76,
              "position": 2,
              "duration": 0.21458333333333332
            },
            {
              "pitch": 55,
              "velocity": 78,
              "position": 2,
              "duration": 0.225
            },
            {
              "pitch": 72,
              "velocity": 14,
              "position": 1.5,
              "duration": 0.9854166666666667
            },
            {
              "pitch": 67,
              "velocity": 111,
              "position": 2.0208333333333335,
              "duration": 0.48541666666666666
            },
            {
              "pitch": 104,
              "velocity": 58,
              "position": 2.5,
              "duration": 0.20416666666666666
            },
            {
              "pitch": 48,
              "velocity": 76,
              "position": 2.5,
              "duration": 0.21458333333333332
            },
            {
              "pitch": 55,
              "velocity": 76,
              "position": 2.5,
              "duration": 0.225
            },
            {
              "pitch": 60,
              "velocity": 16,
              "position": 1,
              "duration": 1.9854166666666666
            },
            {
              "pitch": 67,
              "velocity": 10,
              "position": 2.5208333333333335,
              "duration": 0.48541666666666666
            },
            {
              "pitch": 100,
              "velocity": 67,
              "position": 3,
              "duration": 0.20416666666666666
            },
            {
              "pitch": 48,
              "velocity": 76,
              "position": 3,
              "duration": 0.21458333333333332
            },
            {
              "pitch": 55,
              "velocity": 78,
              "position": 3,
              "duration": 0.225
            },
            {
              "pitch": 72,
              "velocity": 14,
              "position": 2.5,
              "duration": 0.9854166666666667
            },
            {
              "pitch": 67,
              "velocity": 10,
              "position": 3.0208333333333335,
              "duration": 0.48541666666666666
            },
            {
              "pitch": 98,
              "velocity": 58,
              "position": 3.5,
              "duration": 0.20416666666666666
            },
            {
              "pitch": 48,
              "velocity": 76,
              "position": 3.5,
              "duration": 0.21458333333333332
            },
            {
              "pitch": 55,
              "velocity": 76,
              "position": 3.5,
              "duration": 0.225
            },
            {
              "pitch": 60,
              "velocity": 16,
              "position": 3,
              "duration": 0.975
            },
            {
              "pitch": 72,
              "velocity": 14,
              "position": 3.5,
              "duration": 0.475
            },
            {
              "pitch": 67,
              "velocity": 10,
              "position": 3.5208333333333335,
              "duration": 0.475
            }
          ]
        },
        "15": {
          "ctab": {
            "srcChannel": 15,
            "name": "Strings",
            "accType": "PHRASE2",
            "editable": true,
            "mutedNotes": [],
            "mutedChords": [],
            "autoStart": false,
            "sourceChordNote": 0,
            "sourceChordType": "Maj7",
            "ctb2Low": null,
            "ctb2Main": {
              "ntr": "ROOT_FIXED",
              "ntt": "CHORD",
              "bassOn": false,
              "chordRootUpperLimit": 0,
              "noteLowLimit": 0,
              "noteHighLimit": 127,
              "rtr": "PITCH_SHIFT"
            },
            "ctb2High": null
          },
          "notes": [
            {
              "pitch": 55,
              "velocity": 39,
              "position": 0,
              "duration": 3.9854166666666666
            },
            {
              "pitch": 64,
              "velocity": 39,
              "position": 0,
              "duration": 3.9854166666666666
            },
            {
              "pitch": 59,
              "velocity": 39,
              "position": 0,
              "duration": 3.9854166666666666
            }
          ]
        }
      }
    },
    "Fill_In_CC": {
      "type": "Fill_In_CC",
      "sizeInBeats": 4,
      "channels": {
        "1": {
          "ctab": {
            "srcChannel": 1,
            "name": "Bass B",
            "accType": "BASS",
            "editable": false,
            "mutedNotes": [],
            "mutedChords": [
              "1+5",
              "1+8",
              "7(#9)",
              "7(b13)",
              "7(b9)",
              "7(13)",
              "7#11",
              "7(9)",
              "7b5",
              "7sus4",
              "7th",
              "dim7",
              "dim",
              "min7(11)",
              "min7(9)",
              "m7b5",
              "min7",
              "min6",
              "Maj6(9)",
              "Maj7(9)",
              "Maj(9)",
              "Maj7#11",
              "Maj7",
              "Maj6",
              "Maj"
            ],
            "autoStart": false,
            "sourceChordNote": 0,
            "sourceChordType": "Maj7",
            "ctb2Low": null,
            "ctb2Main": {
              "ntr": "ROOT_TRANSPOSITION",
              "ntt": "MELODY",
              "bassOn": true,
              "chordRootUpperLimit": 8,
              "noteLowLimit": 28,
              "noteHighLimit": 127,
              "rtr": "PITCH_SHIFT_TO_ROOT"
            },
            "ctb2High": null
          },
          "notes": [
            {
              "pitch": 24,
              "velocity": 70,
              "position": 0,
              "duration": 0.43333333333333335
            },
            {
              "pitch": 24,
              "velocity": 50,
              "position": 0.5,
              "duration": 0.43333333333333335
            },
            {
              "pitch": 24,
              "velocity": 70,
              "position": 1,
              "duration": 0.43333333333333335
            },
            {
              "pitch": 24,
              "velocity": 50,
              "position": 1.5,
              "duration": 0.43333333333333335
            },
            {
              "pitch": 24,
              "velocity": 70,
              "position": 2,
              "duration": 0.43333333333333335
            },
            {
              "pitch": 31,
              "velocity": 50,
              "position": 2.5,
              "duration": 0.43333333333333335
            },
            {
              "pitch": 28,
              "velocity": 60,
              "position": 3,
              "duration": 0.43333333333333335
            },
            {
              "pitch": 31,
              "velocity": 50,
              "position": 3.5,
              "duration": 0.43333333333333335
            }
          ]
        },
        "8": {
          "ctab": {
            "srcChannel": 8,
            "name": "AddDrum",
            "accType": "SUBRHYTHM",
            "editable": false,
            "mutedNotes": [],
            "mutedChords": [],
            "autoStart": true,
            "sourceChordNote": 0,
            "sourceChordType": "Maj7",
            "ctb2Low": null,
            "ctb2Main": {
              "ntr": "ROOT_FIXED",
              "ntt": "BYPASS",
              "bassOn": false,
              "chordRootUpperLimit": 6,
              "noteLowLimit": 0,
              "noteHighLimit": 127,
              "rtr": "PITCH_SHIFT"
            },
            "ctb2High": null
          },
          "notes": []
        },
        "9": {
          "ctab": {
            "srcChannel": 9,
            "name": "MainDrum",
            "accType": "RHYTHM",
            "editable": false,
            "mutedNotes": [],
            "mutedChords": [],
            "autoStart": true,
            "sourceChordNote": 0,
            "sourceChordType": "Maj7",
            "ctb2Low": null,
            "ctb2Main": {
              "ntr": "ROOT_FIXED",
              "ntt": "BYPASS",
              "bassOn": false,
              "chordRootUpperLimit": 6,
              "noteLowLimit": 0,
              "noteHighLimit": 127,
              "rtr": "PITCH_SHIFT"
            },
            "ctb2High": null
          },
          "notes": [
            {
              "pitch": 35,
              "velocity": 110,
              "position": 0,
              "duration": 0.00625
            },
            {
              "pitch": 53,
              "velocity": 108,
              "position": 0,
              "duration": 0.00625
            },
            {
              "pitch": 44,
              "velocity": 95,
              "position": 0,
              "duration": 0.00625
            },
            {
              "pitch": 53,
              "velocity": 71,
              "position": 0.5,
              "duration": 0.00625
            },
            {
              "pitch": 35,
              "velocity": 85,
              "position": 0.75,
              "duration": 0.00625
            },
            {
              "pitch": 38,
              "velocity": 112,
              "position": 1,
              "duration": 0.00625
            },
            {
              "pitch": 49,
              "velocity": 72,
              "position": 1,
              "duration": 0.00625
            },
            {
              "pitch": 44,
              "velocity": 95,
              "position": 1,
              "duration": 0.00625
            },
            {
              "pitch": 35,
              "velocity": 36,
              "position": 1.5,
              "duration": 0.00625
            },
            {
              "pitch": 48,
              "velocity": 97,
              "position": 1.5,
              "duration": 0.00625
            },
            {
              "pitch": 35,
              "velocity": 85,
              "position": 1.75,
              "duration": 0.00625
            },
            {
              "pitch": 38,
              "velocity": 112,
              "position": 2,
              "duration": 0.00625
            },
            {
              "pitch": 57,
              "velocity": 83,
              "position": 2,
              "duration": 0.00625
            },
            {
              "pitch": 44,
              "velocity": 95,
              "position": 2,
              "duration": 0.00625
            },
            {
              "pitch": 35,
              "velocity": 36,
              "position": 2.5,
              "duration": 0.00625
            },
            {
              "pitch": 53,
              "velocity": 87,
              "position": 2.5,
              "duration": 0.00625
            },
            {
              "pitch": 47,
              "velocity": 97,
              "position": 2.5,
              "duration": 0.00625
            },
            {
              "pitch": 38,
              "velocity": 40,
              "position": 2.6666666666666665,
              "duration": 0.00625
            },
            {
              "pitch": 38,
              "velocity": 78,
              "position": 2.8333333333333335,
              "duration": 0.00625
            },
            {
              "pitch": 38,
              "velocity": 114,
              "position": 3,
              "duration": 0.00625
            },
            {
              "pitch": 44,
              "velocity": 95,
              "position": 3,
              "duration": 0.00625
            },
            {
              "pitch": 38,
              "velocity": 75,
              "position": 3.25,
              "duration": 0.00625
            },
            {
              "pitch": 35,
              "velocity": 107,
              "position": 3.5,
              "duration": 0.00625
            },
            {
              "pitch": 45,
              "velocity": 95,
              "position": 3.5,
              "duration": 0.00625
            },
            {
              "pitch": 49,
              "velocity": 76,
              "position": 3.9895833333333335,
              "duration": 0.00625
            }
          ]
        },
        "10": {
          "ctab": {
            "srcChannel": 10,
            "name": "Bass A",
            "accType": "BASS",
            "editable": false,
            "mutedNotes": [],
            "mutedChords": [
              "1+2+5",
              "sus4",
              "7aug",
              "Maj7aug",
              "minMaj7(9)",
              "minMaj7",
              "min(9)",
              "min",
              "aug"
            ],
            "autoStart": false,
            "sourceChordNote": 0,
            "sourceChordType": "Maj7",
            "ctb2Low": null,
            "ctb2Main": {
              "ntr": "ROOT_TRANSPOSITION",
              "ntt": "MELODY",
              "bassOn": true,
              "chordRootUpperLimit": 8,
              "noteLowLimit": 28,
              "noteHighLimit": 127,
              "rtr": "PITCH_SHIFT_TO_ROOT"
            },
            "ctb2High": null
          },
          "notes": [
            {
              "pitch": 24,
              "velocity": 70,
              "position": 0,
              "duration": 0.43333333333333335
            },
            {
              "pitch": 24,
              "velocity": 50,
              "position": 0.5,
              "duration": 0.43333333333333335
            },
            {
              "pitch": 24,
              "velocity": 70,
              "position": 1,
              "duration": 0.43333333333333335
            },
            {
              "pitch": 24,
              "velocity": 50,
              "position": 1.5,
              "duration": 0.43333333333333335
            },
            {
              "pitch": 24,
              "velocity": 70,
              "position": 2,
              "duration": 0.43333333333333335
            },
            {
              "pitch": 31,
              "velocity": 50,
              "position": 2.5,
              "duration": 0.43333333333333335
            },
            {
              "pitch": 33,
              "velocity": 60,
              "position": 3,
              "duration": 0.43333333333333335
            },
            {
              "pitch": 31,
              "velocity": 50,
              "position": 3.5,
              "duration": 0.43333333333333335
            }
          ]
        },
        "11": {
          "ctab": {
            "srcChannel": 11,
            "name": "SteelGtr",
            "accType": "CHORD1",
            "editable": false,
            "mutedNotes": [],
            "mutedChords": [],
            "autoStart": false,
            "sourceChordNote": 0,
            "sourceChordType": "Maj7",
            "ctb2Low": null,
            "ctb2Main": {
              "ntr": "ROOT_TRANSPOSITION",
              "ntt": "MELODY",
              "bassOn": true,
              "chordRootUpperLimit": 3,
              "noteLowLimit": 0,
              "noteHighLimit": 127,
              "rtr": "PITCH_SHIFT"
            },
            "ctb2High": null
          },
          "notes": [
            {
              "pitch": 60,
              "velocity": 42,
              "position": 0.020833333333333332,
              "duration": 0.46458333333333335
            },
            {
              "pitch": 48,
              "velocity": 37,
              "position": 0.0020833333333333333,
              "duration": 0.48541666666666666
            },
            {
              "pitch": 64,
              "velocity": 47,
              "position": 0.03125,
              "duration": 0.46458333333333335
            },
            {
              "pitch": 55,
              "velocity": 34,
              "position": 0.010416666666666666,
              "duration": 0.48541666666666666
            },
            {
              "pitch": 59,
              "velocity": 34,
              "position": 0.010416666666666666,
              "duration": 0.48541666666666666
            },
            {
              "pitch": 67,
              "velocity": 42,
              "position": 0.03125,
              "duration": 0.475
            },
            {
              "pitch": 71,
              "velocity": 42,
              "position": 0.03125,
              "duration": 0.475
            },
            {
              "pitch": 48,
              "velocity": 28,
              "position": 0.5,
              "duration": 0.48541666666666666
            },
            {
              "pitch": 60,
              "velocity": 28,
              "position": 0.5,
              "duration": 0.48541666666666666
            },
            {
              "pitch": 55,
              "velocity": 25,
              "position": 0.5104166666666666,
              "duration": 0.48541666666666666
            },
            {
              "pitch": 59,
              "velocity": 25,
              "position": 0.5104166666666666,
              "duration": 0.48541666666666666
            },
            {
              "pitch": 64,
              "velocity": 28,
              "position": 0.5104166666666666,
              "duration": 0.48541666666666666
            },
            {
              "pitch": 67,
              "velocity": 22,
              "position": 0.5208333333333334,
              "duration": 0.48541666666666666
            },
            {
              "pitch": 71,
              "velocity": 22,
              "position": 0.5208333333333334,
              "duration": 0.48541666666666666
            },
            {
              "pitch": 48,
              "velocity": 35,
              "position": 1,
              "duration": 0.48541666666666666
            },
            {
              "pitch": 55,
              "velocity": 36,
              "position": 1.0104166666666667,
              "duration": 0.48541666666666666
            },
            {
              "pitch": 59,
              "velocity": 36,
              "position": 1.0104166666666667,
              "duration": 0.48541666666666666
            },
            {
              "pitch": 60,
              "velocity": 42,
              "position": 1,
              "duration": 0.50625
            },
            {
              "pitch": 64,
              "velocity": 42,
              "position": 1.0104166666666667,
              "duration": 0.50625
            },
            {
              "pitch": 67,
              "velocity": 36,
              "position": 1.0208333333333333,
              "duration": 0.49583333333333335
            },
            {
              "pitch": 71,
              "velocity": 36,
              "position": 1.0208333333333333,
              "duration": 0.49583333333333335
            },
            {
              "pitch": 48,
              "velocity": 42,
              "position": 1.5,
              "duration": 0.48541666666666666
            },
            {
              "pitch": 60,
              "velocity": 45,
              "position": 1.5208333333333333,
              "duration": 0.46458333333333335
            },
            {
              "pitch": 64,
              "velocity": 47,
              "position": 1.53125,
              "duration": 0.46458333333333335
            },
            {
              "pitch": 55,
              "velocity": 45,
              "position": 1.5104166666666667,
              "duration": 0.48541666666666666
            },
            {
              "pitch": 59,
              "velocity": 45,
              "position": 1.5104166666666667,
              "duration": 0.48541666666666666
            },
            {
              "pitch": 67,
              "velocity": 42,
              "position": 1.53125,
              "duration": 0.475
            },
            {
              "pitch": 71,
              "velocity": 42,
              "position": 1.53125,
              "duration": 0.475
            },
            {
              "pitch": 48,
              "velocity": 36,
              "position": 2,
              "duration": 0.48541666666666666
            },
            {
              "pitch": 55,
              "velocity": 34,
              "position": 2.0104166666666665,
              "duration": 0.48541666666666666
            },
            {
              "pitch": 59,
              "velocity": 34,
              "position": 2.0104166666666665,
              "duration": 0.48541666666666666
            },
            {
              "pitch": 60,
              "velocity": 24,
              "position": 2,
              "duration": 0.50625
            },
            {
              "pitch": 64,
              "velocity": 34,
              "position": 2.0104166666666665,
              "duration": 0.50625
            },
            {
              "pitch": 67,
              "velocity": 28,
              "position": 2.0208333333333335,
              "duration": 0.49583333333333335
            },
            {
              "pitch": 71,
              "velocity": 28,
              "position": 2.0208333333333335,
              "duration": 0.49583333333333335
            },
            {
              "pitch": 48,
              "velocity": 42,
              "position": 2.5,
              "duration": 0.48541666666666666
            },
            {
              "pitch": 60,
              "velocity": 42,
              "position": 2.5208333333333335,
              "duration": 0.46458333333333335
            },
            {
              "pitch": 64,
              "velocity": 45,
              "position": 2.53125,
              "duration": 0.46458333333333335
            },
            {
              "pitch": 55,
              "velocity": 42,
              "position": 2.5104166666666665,
              "duration": 0.48541666666666666
            },
            {
              "pitch": 59,
              "velocity": 42,
              "position": 2.5104166666666665,
              "duration": 0.48541666666666666
            },
            {
              "pitch": 67,
              "velocity": 42,
              "position": 2.53125,
              "duration": 0.475
            },
            {
              "pitch": 71,
              "velocity": 42,
              "position": 2.53125,
              "duration": 0.475
            },
            {
              "pitch": 48,
              "velocity": 36,
              "position": 3,
              "duration": 0.48541666666666666
            },
            {
              "pitch": 60,
              "velocity": 42,
              "position": 3,
              "duration": 0.48541666666666666
            },
            {
              "pitch": 55,
              "velocity": 34,
              "position": 3.0104166666666665,
              "duration": 0.48541666666666666
            },
            {
              "pitch": 59,
              "velocity": 34,
              "position": 3.0104166666666665,
              "duration": 0.48541666666666666
            },
            {
              "pitch": 64,
              "velocity": 42,
              "position": 3.0104166666666665,
              "duration": 0.48541666666666666
            },
            {
              "pitch": 67,
              "velocity": 38,
              "position": 3.0208333333333335,
              "duration": 0.48541666666666666
            },
            {
              "pitch": 71,
              "velocity": 38,
              "position": 3.0208333333333335,
              "duration": 0.48541666666666666
            },
            {
              "pitch": 67,
              "velocity": 30,
              "position": 3.5208333333333335,
              "duration": 0.46458333333333335
            },
            {
              "pitch": 71,
              "velocity": 30,
              "position": 3.5208333333333335,
              "duration": 0.46458333333333335
            },
            {
              "pitch": 64,
              "velocity": 32,
              "position": 3.5104166666666665,
              "duration": 0.475
            },
            {
              "pitch": 55,
              "velocity": 28,
              "position": 3.5104166666666665,
              "duration": 0.475
            },
            {
              "pitch": 59,
              "velocity": 28,
              "position": 3.5104166666666665,
              "duration": 0.475
            },
            {
              "pitch": 60,
              "velocity": 30,
              "position": 3.5,
              "duration": 0.48541666666666666
            },
            {
              "pitch": 48,
              "velocity": 32,
              "position": 3.5,
              "duration": 0.48541666666666666
            }
          ]
        },
        "12": {
          "ctab": {
            "srcChannel": 12,
            "name": "HistrGtr",
            "accType": "CHORD2",
            "editable": false,
            "mutedNotes": [],
            "mutedChords": [],
            "autoStart": false,
            "sourceChordNote": 0,
            "sourceChordType": "Maj7",
            "ctb2Low": null,
            "ctb2Main": {
              "ntr": "ROOT_TRANSPOSITION",
              "ntt": "MELODY",
              "bassOn": true,
              "chordRootUpperLimit": 6,
              "noteLowLimit": 0,
              "noteHighLimit": 127,
              "rtr": "PITCH_SHIFT"
            },
            "ctb2High": null
          },
          "notes": [
            {
              "pitch": 67,
              "velocity": 69,
              "position": 0.020833333333333332,
              "duration": 0.46458333333333335
            },
            {
              "pitch": 71,
              "velocity": 69,
              "position": 0.020833333333333332,
              "duration": 0.46458333333333335
            },
            {
              "pitch": 64,
              "velocity": 67,
              "position": 0.020833333333333332,
              "duration": 0.475
            },
            {
              "pitch": 60,
              "velocity": 60,
              "position": 0.020833333333333332,
              "duration": 0.48541666666666666
            },
            {
              "pitch": 55,
              "velocity": 55,
              "position": 0.010416666666666666,
              "duration": 0.49583333333333335
            },
            {
              "pitch": 59,
              "velocity": 55,
              "position": 0.010416666666666666,
              "duration": 0.49583333333333335
            },
            {
              "pitch": 48,
              "velocity": 50,
              "position": 0.010416666666666666,
              "duration": 0.49583333333333335
            },
            {
              "pitch": 48,
              "velocity": 45,
              "position": 0.5208333333333334,
              "duration": 0.46458333333333335
            },
            {
              "pitch": 55,
              "velocity": 40,
              "position": 0.5208333333333334,
              "duration": 0.475
            },
            {
              "pitch": 59,
              "velocity": 40,
              "position": 0.5208333333333334,
              "duration": 0.475
            },
            {
              "pitch": 67,
              "velocity": 43,
              "position": 0.5,
              "duration": 0.50625
            },
            {
              "pitch": 71,
              "velocity": 43,
              "position": 0.5,
              "duration": 0.50625
            },
            {
              "pitch": 60,
              "velocity": 37,
              "position": 0.5208333333333334,
              "duration": 0.48541666666666666
            },
            {
              "pitch": 64,
              "velocity": 34,
              "position": 0.5104166666666666,
              "duration": 0.49583333333333335
            },
            {
              "pitch": 67,
              "velocity": 62,
              "position": 1.0208333333333333,
              "duration": 0.46458333333333335
            },
            {
              "pitch": 71,
              "velocity": 62,
              "position": 1.0208333333333333,
              "duration": 0.46458333333333335
            },
            {
              "pitch": 64,
              "velocity": 70,
              "position": 1.0208333333333333,
              "duration": 0.475
            },
            {
              "pitch": 60,
              "velocity": 70,
              "position": 1.0208333333333333,
              "duration": 0.48541666666666666
            },
            {
              "pitch": 48,
              "velocity": 57,
              "position": 1,
              "duration": 0.50625
            },
            {
              "pitch": 55,
              "velocity": 65,
              "position": 1.0104166666666667,
              "duration": 0.49583333333333335
            },
            {
              "pitch": 59,
              "velocity": 65,
              "position": 1.0104166666666667,
              "duration": 0.49583333333333335
            },
            {
              "pitch": 67,
              "velocity": 60,
              "position": 1.5,
              "duration": 0.9854166666666667
            },
            {
              "pitch": 71,
              "velocity": 60,
              "position": 1.5,
              "duration": 0.9854166666666667
            },
            {
              "pitch": 64,
              "velocity": 52,
              "position": 1.5104166666666667,
              "duration": 0.9854166666666667
            },
            {
              "pitch": 48,
              "velocity": 47,
              "position": 1.5208333333333333,
              "duration": 0.9854166666666667
            },
            {
              "pitch": 60,
              "velocity": 47,
              "position": 1.5208333333333333,
              "duration": 0.9854166666666667
            },
            {
              "pitch": 55,
              "velocity": 24,
              "position": 1.5208333333333333,
              "duration": 0.9854166666666667
            },
            {
              "pitch": 59,
              "velocity": 24,
              "position": 1.5208333333333333,
              "duration": 0.9854166666666667
            },
            {
              "pitch": 48,
              "velocity": 45,
              "position": 2.5208333333333335,
              "duration": 0.46458333333333335
            },
            {
              "pitch": 55,
              "velocity": 40,
              "position": 2.5208333333333335,
              "duration": 0.475
            },
            {
              "pitch": 59,
              "velocity": 40,
              "position": 2.5208333333333335,
              "duration": 0.475
            },
            {
              "pitch": 67,
              "velocity": 43,
              "position": 2.5,
              "duration": 0.50625
            },
            {
              "pitch": 71,
              "velocity": 43,
              "position": 2.5,
              "duration": 0.50625
            },
            {
              "pitch": 60,
              "velocity": 37,
              "position": 2.5208333333333335,
              "duration": 0.48541666666666666
            },
            {
              "pitch": 64,
              "velocity": 34,
              "position": 2.5104166666666665,
              "duration": 0.49583333333333335
            },
            {
              "pitch": 67,
              "velocity": 69,
              "position": 3.0208333333333335,
              "duration": 0.46458333333333335
            },
            {
              "pitch": 71,
              "velocity": 69,
              "position": 3.0208333333333335,
              "duration": 0.46458333333333335
            },
            {
              "pitch": 64,
              "velocity": 75,
              "position": 3.0208333333333335,
              "duration": 0.475
            },
            {
              "pitch": 60,
              "velocity": 70,
              "position": 3.0208333333333335,
              "duration": 0.48541666666666666
            },
            {
              "pitch": 48,
              "velocity": 63,
              "position": 3,
              "duration": 0.50625
            },
            {
              "pitch": 55,
              "velocity": 69,
              "position": 3.0104166666666665,
              "duration": 0.49583333333333335
            },
            {
              "pitch": 59,
              "velocity": 69,
              "position": 3.0104166666666665,
              "duration": 0.49583333333333335
            },
            {
              "pitch": 60,
              "velocity": 47,
              "position": 3.5208333333333335,
              "duration": 0.46458333333333335
            },
            {
              "pitch": 55,
              "velocity": 24,
              "position": 3.5208333333333335,
              "duration": 0.46458333333333335
            },
            {
              "pitch": 59,
              "velocity": 24,
              "position": 3.5208333333333335,
              "duration": 0.46458333333333335
            },
            {
              "pitch": 48,
              "velocity": 47,
              "position": 3.5208333333333335,
              "duration": 0.46458333333333335
            },
            {
              "pitch": 64,
              "velocity": 52,
              "position": 3.5104166666666665,
              "duration": 0.475
            },
            {
              "pitch": 67,
              "velocity": 47,
              "position": 3.5,
              "duration": 0.48541666666666666
            },
            {
              "pitch": 71,
              "velocity": 47,
              "position": 3.5,
              "duration": 0.48541666666666666
            }
          ]
        },
        "13": {
          "ctab": {
            "srcChannel": 13,
            "name": "Organ",
            "accType": "PAD",
            "editable": false,
            "mutedNotes": [],
            "mutedChords": [],
            "autoStart": false,
            "sourceChordNote": 0,
            "sourceChordType": "Maj7",
            "ctb2Low": null,
            "ctb2Main": {
              "ntr": "ROOT_FIXED",
              "ntt": "CHORD",
              "bassOn": false,
              "chordRootUpperLimit": 0,
              "noteLowLimit": 0,
              "noteHighLimit": 79,
              "rtr": "PITCH_SHIFT"
            },
            "ctb2High": null
          },
          "notes": [
            {
              "pitch": 64,
              "velocity": 52,
              "position": 0.020833333333333332,
              "duration": 2.6645833333333333
            },
            {
              "pitch": 71,
              "velocity": 52,
              "position": 0.020833333333333332,
              "duration": 2.6645833333333333
            },
            {
              "pitch": 67,
              "velocity": 52,
              "position": 0.020833333333333332,
              "duration": 2.6645833333333333
            },
            {
              "pitch": 71,
              "velocity": 66,
              "position": 2.73125,
              "duration": 1.1729166666666666
            },
            {
              "pitch": 64,
              "velocity": 66,
              "position": 2.73125,
              "duration": 1.1979166666666667
            },
            {
              "pitch": 67,
              "velocity": 66,
              "position": 2.73125,
              "duration": 1.2041666666666666
            }
          ]
        },
        "14": {
          "ctab": {
            "srcChannel": 14,
            "name": "Tele",
            "accType": "PHRASE1",
            "editable": false,
            "mutedNotes": [],
            "mutedChords": [],
            "autoStart": false,
            "sourceChordNote": 0,
            "sourceChordType": "min7(11)",
            "ctb2Low": null,
            "ctb2Main": {
              "ntr": "ROOT_FIXED",
              "ntt": "CHORD",
              "bassOn": false,
              "chordRootUpperLimit": 3,
              "noteLowLimit": 0,
              "noteHighLimit": 127,
              "rtr": "PITCH_SHIFT"
            },
            "ctb2High": null
          },
          "notes": [
            {
              "pitch": 113,
              "velocity": 68,
              "position": 0,
              "duration": 0.20416666666666666
            },
            {
              "pitch": 55,
              "velocity": 76,
              "position": 0,
              "duration": 0.21458333333333332
            },
            {
              "pitch": 48,
              "velocity": 76,
              "position": 0,
              "duration": 0.21458333333333332
            },
            {
              "pitch": 67,
              "velocity": 108,
              "position": 0,
              "duration": 0.9854166666666667
            },
            {
              "pitch": 100,
              "velocity": 64,
              "position": 1,
              "duration": 0.20416666666666666
            },
            {
              "pitch": 72,
              "velocity": 10,
              "position": 0.5,
              "duration": 0.9854166666666667
            },
            {
              "pitch": 55,
              "velocity": 5,
              "position": 0.5,
              "duration": 1.00625
            },
            {
              "pitch": 117,
              "velocity": 68,
              "position": 1.5,
              "duration": 0.20416666666666666
            },
            {
              "pitch": 60,
              "velocity": 10,
              "position": 1,
              "duration": 0.975
            },
            {
              "pitch": 55,
              "velocity": 5,
              "position": 1.5208333333333333,
              "duration": 0.46458333333333335
            },
            {
              "pitch": 48,
              "velocity": 6,
              "position": 0.5,
              "duration": 1.4854166666666666
            },
            {
              "pitch": 67,
              "velocity": 10,
              "position": 1,
              "duration": 0.9854166666666667
            },
            {
              "pitch": 102,
              "velocity": 48,
              "position": 2,
              "duration": 0.20416666666666666
            },
            {
              "pitch": 48,
              "velocity": 76,
              "position": 2,
              "duration": 0.21458333333333332
            },
            {
              "pitch": 55,
              "velocity": 76,
              "position": 2,
              "duration": 0.21458333333333332
            },
            {
              "pitch": 72,
              "velocity": 10,
              "position": 1.5,
              "duration": 0.9854166666666667
            },
            {
              "pitch": 116,
              "velocity": 73,
              "position": 2.5,
              "duration": 0.20416666666666666
            },
            {
              "pitch": 67,
              "velocity": 108,
              "position": 2,
              "duration": 0.9854166666666667
            },
            {
              "pitch": 106,
              "velocity": 68,
              "position": 3,
              "duration": 0.20416666666666666
            },
            {
              "pitch": 55,
              "velocity": 5,
              "position": 2.5,
              "duration": 1.00625
            },
            {
              "pitch": 115,
              "velocity": 73,
              "position": 3.5,
              "duration": 0.20416666666666666
            },
            {
              "pitch": 60,
              "velocity": 10,
              "position": 3,
              "duration": 0.975
            },
            {
              "pitch": 67,
              "velocity": 10,
              "position": 3,
              "duration": 0.9854166666666667
            },
            {
              "pitch": 48,
              "velocity": 6,
              "position": 2.5,
              "duration": 1.4854166666666666
            },
            {
              "pitch": 72,
              "velocity": 10,
              "position": 2.5,
              "duration": 1.4854166666666666
            },
            {
              "pitch": 55,
              "velocity": 5,
              "position": 3.5208333333333335,
              "duration": 0.46458333333333335
            }
          ]
        },
        "15": {
          "ctab": {
            "srcChannel": 15,
            "name": "Strings",
            "accType": "PHRASE2",
            "editable": true,
            "mutedNotes": [],
            "mutedChords": [],
            "autoStart": false,
            "sourceChordNote": 0,
            "sourceChordType": "Maj7",
            "ctb2Low": null,
            "ctb2Main": {
              "ntr": "ROOT_FIXED",
              "ntt": "CHORD",
              "bassOn": false,
              "chordRootUpperLimit": 0,
              "noteLowLimit": 0,
              "noteHighLimit": 127,
              "rtr": "PITCH_SHIFT"
            },
            "ctb2High": null
          },
          "notes": [
            {
              "pitch": 55,
              "velocity": 42,
              "position": 0,
              "duration": 3.9854166666666666
            },
            {
              "pitch": 64,
              "velocity": 42,
              "position": 0,
              "duration": 3.9854166666666666
            },
            {
              "pitch": 59,
              "velocity": 42,
              "position": 0,
              "duration": 3.9854166666666666
            }
          ]
        }
      }
    },
    "Fill_In_DD": {
      "type": "Fill_In_DD",
      "sizeInBeats": 4,
      "channels": {
        "1": {
          "ctab": {
            "srcChannel": 1,
            "name": "Bass B",
            "accType": "BASS",
            "editable": false,
            "mutedNotes": [],
            "mutedChords": [
              "1+5",
              "1+8",
              "7(#9)",
              "7(b13)",
              "7(b9)",
              "7(13)",
              "7#11",
              "7(9)",
              "7b5",
              "7sus4",
              "7th",
              "dim7",
              "dim",
              "min7(11)",
              "min7(9)",
              "m7b5",
              "min7",
              "min6",
              "Maj6(9)",
              "Maj7(9)",
              "Maj(9)",
              "Maj7#11",
              "Maj7",
              "Maj6",
              "Maj"
            ],
            "autoStart": false,
            "sourceChordNote": 0,
            "sourceChordType": "Maj7",
            "ctb2Low": null,
            "ctb2Main": {
              "ntr": "ROOT_TRANSPOSITION",
              "ntt": "MELODY",
              "bassOn": true,
              "chordRootUpperLimit": 8,
              "noteLowLimit": 28,
              "noteHighLimit": 127,
              "rtr": "PITCH_SHIFT_TO_ROOT"
            },
            "ctb2High": null
          },
          "notes": [
            {
              "pitch": 24,
              "velocity": 70,
              "position": 0,
              "duration": 0.26666666666666666
            },
            {
              "pitch": 24,
              "velocity": 60,
              "position": 0.5,
              "duration": 0.42291666666666666
            },
            {
              "pitch": 24,
              "velocity": 70,
              "position": 1,
              "duration": 0.6729166666666667
            },
            {
              "pitch": 24,
              "velocity": 60,
              "position": 1.75,
              "duration": 0.225
            },
            {
              "pitch": 24,
              "velocity": 40,
              "position": 2.25,
              "duration": 0.23541666666666666
            },
            {
              "pitch": 24,
              "velocity": 60,
              "position": 2.5,
              "duration": 0.43333333333333335
            },
            {
              "pitch": 24,
              "velocity": 70,
              "position": 3,
              "duration": 0.43333333333333335
            },
            {
              "pitch": 31,
              "velocity": 50,
              "position": 3.5,
              "duration": 0.43333333333333335
            }
          ]
        },
        "8": {
          "ctab": {
            "srcChannel": 8,
            "name": "AddDrum",
            "accType": "SUBRHYTHM",
            "editable": false,
            "mutedNotes": [],
            "mutedChords": [],
            "autoStart": true,
            "sourceChordNote": 0,
            "sourceChordType": "Maj7",
            "ctb2Low": null,
            "ctb2Main": {
              "ntr": "ROOT_FIXED",
              "ntt": "BYPASS",
              "bassOn": false,
              "chordRootUpperLimit": 6,
              "noteLowLimit": 0,
              "noteHighLimit": 127,
              "rtr": "PITCH_SHIFT"
            },
            "ctb2High": null
          },
          "notes": []
        },
        "9": {
          "ctab": {
            "srcChannel": 9,
            "name": "MainDrum",
            "accType": "RHYTHM",
            "editable": false,
            "mutedNotes": [],
            "mutedChords": [],
            "autoStart": true,
            "sourceChordNote": 0,
            "sourceChordType": "Maj7",
            "ctb2Low": null,
            "ctb2Main": {
              "ntr": "ROOT_FIXED",
              "ntt": "BYPASS",
              "bassOn": false,
              "chordRootUpperLimit": 6,
              "noteLowLimit": 0,
              "noteHighLimit": 127,
              "rtr": "PITCH_SHIFT"
            },
            "ctb2High": null
          },
          "notes": [
            {
              "pitch": 35,
              "velocity": 114,
              "position": 0,
              "duration": 0.00625
            },
            {
              "pitch": 49,
              "velocity": 72,
              "position": 0,
              "duration": 0.00625
            },
            {
              "pitch": 38,
              "velocity": 114,
              "position": 0.5,
              "duration": 0.00625
            },
            {
              "pitch": 49,
              "velocity": 27,
              "position": 0.5,
              "duration": 0.00625
            },
            {
              "pitch": 35,
              "velocity": 114,
              "position": 1,
              "duration": 0.00625
            },
            {
              "pitch": 52,
              "velocity": 60,
              "position": 1,
              "duration": 0.00625
            },
            {
              "pitch": 44,
              "velocity": 69,
              "position": 1,
              "duration": 0.00625
            },
            {
              "pitch": 38,
              "velocity": 114,
              "position": 1,
              "duration": 0.00625
            },
            {
              "pitch": 44,
              "velocity": 58,
              "position": 1.5,
              "duration": 0.00625
            },
            {
              "pitch": 49,
              "velocity": 27,
              "position": 1.5,
              "duration": 0.00625
            },
            {
              "pitch": 38,
              "velocity": 114,
              "position": 1.75,
              "duration": 0.00625
            },
            {
              "pitch": 35,
              "velocity": 114,
              "position": 2,
              "duration": 0.00625
            },
            {
              "pitch": 44,
              "velocity": 70,
              "position": 2,
              "duration": 0.00625
            },
            {
              "pitch": 38,
              "velocity": 46,
              "position": 2.25,
              "duration": 0.00625
            },
            {
              "pitch": 35,
              "velocity": 96,
              "position": 2.5,
              "duration": 0.00625
            },
            {
              "pitch": 44,
              "velocity": 103,
              "position": 2.5,
              "duration": 0.00625
            },
            {
              "pitch": 38,
              "velocity": 80,
              "position": 2.5,
              "duration": 0.00625
            },
            {
              "pitch": 38,
              "velocity": 60,
              "position": 2.75,
              "duration": 0.00625
            },
            {
              "pitch": 35,
              "velocity": 114,
              "position": 3,
              "duration": 0.00625
            },
            {
              "pitch": 44,
              "velocity": 70,
              "position": 3,
              "duration": 0.00625
            },
            {
              "pitch": 38,
              "velocity": 114,
              "position": 3,
              "duration": 0.00625
            },
            {
              "pitch": 38,
              "velocity": 82,
              "position": 3.25,
              "duration": 0.00625
            },
            {
              "pitch": 35,
              "velocity": 96,
              "position": 3.5,
              "duration": 0.00625
            },
            {
              "pitch": 44,
              "velocity": 103,
              "position": 3.5,
              "duration": 0.00625
            },
            {
              "pitch": 38,
              "velocity": 114,
              "position": 3.5,
              "duration": 0.00625
            },
            {
              "pitch": 38,
              "velocity": 103,
              "position": 3.75,
              "duration": 0.00625
            },
            {
              "pitch": 57,
              "velocity": 93,
              "position": 3.9895833333333335,
              "duration": 0.00625
            }
          ]
        },
        "10": {
          "ctab": {
            "srcChannel": 10,
            "name": "Bass A",
            "accType": "BASS",
            "editable": false,
            "mutedNotes": [],
            "mutedChords": [
              "1+2+5",
              "sus4",
              "7aug",
              "Maj7aug",
              "minMaj7(9)",
              "minMaj7",
              "min(9)",
              "min",
              "aug"
            ],
            "autoStart": false,
            "sourceChordNote": 0,
            "sourceChordType": "Maj7",
            "ctb2Low": null,
            "ctb2Main": {
              "ntr": "ROOT_TRANSPOSITION",
              "ntt": "MELODY",
              "bassOn": true,
              "chordRootUpperLimit": 8,
              "noteLowLimit": 28,
              "noteHighLimit": 127,
              "rtr": "PITCH_SHIFT_TO_ROOT"
            },
            "ctb2High": null
          },
          "notes": [
            {
              "pitch": 24,
              "velocity": 70,
              "position": 0,
              "duration": 0.26666666666666666
            },
            {
              "pitch": 24,
              "velocity": 60,
              "position": 0.5,
              "duration": 0.42291666666666666
            },
            {
              "pitch": 24,
              "velocity": 70,
              "position": 1,
              "duration": 0.6729166666666667
            },
            {
              "pitch": 24,
              "velocity": 60,
              "position": 1.75,
              "duration": 0.225
            },
            {
              "pitch": 24,
              "velocity": 40,
              "position": 2.25,
              "duration": 0.23541666666666666
            },
            {
              "pitch": 24,
              "velocity": 60,
              "position": 2.5,
              "duration": 0.43333333333333335
            },
            {
              "pitch": 24,
              "velocity": 70,
              "position": 3,
              "duration": 0.43333333333333335
            },
            {
              "pitch": 31,
              "velocity": 50,
              "position": 3.5,
              "duration": 0.43333333333333335
            }
          ]
        },
        "11": {
          "ctab": {
            "srcChannel": 11,
            "name": "SteelGtr",
            "accType": "CHORD1",
            "editable": false,
            "mutedNotes": [],
            "mutedChords": [],
            "autoStart": false,
            "sourceChordNote": 0,
            "sourceChordType": "Maj7",
            "ctb2Low": null,
            "ctb2Main": {
              "ntr": "ROOT_TRANSPOSITION",
              "ntt": "MELODY",
              "bassOn": true,
              "chordRootUpperLimit": 3,
              "noteLowLimit": 0,
              "noteHighLimit": 127,
              "rtr": "PITCH_SHIFT"
            },
            "ctb2High": null
          },
          "notes": [
            {
              "pitch": 48,
              "velocity": 42,
              "position": 0,
              "duration": 0.48541666666666666
            },
            {
              "pitch": 55,
              "velocity": 36,
              "position": 0.010416666666666666,
              "duration": 0.48541666666666666
            },
            {
              "pitch": 59,
              "velocity": 36,
              "position": 0.010416666666666666,
              "duration": 0.48541666666666666
            },
            {
              "pitch": 60,
              "velocity": 45,
              "position": 0.020833333333333332,
              "duration": 0.48541666666666666
            },
            {
              "pitch": 64,
              "velocity": 45,
              "position": 0.020833333333333332,
              "duration": 0.48541666666666666
            },
            {
              "pitch": 67,
              "velocity": 45,
              "position": 0.020833333333333332,
              "duration": 0.48541666666666666
            },
            {
              "pitch": 71,
              "velocity": 45,
              "position": 0.020833333333333332,
              "duration": 0.48541666666666666
            },
            {
              "pitch": 48,
              "velocity": 32,
              "position": 0.5,
              "duration": 0.48541666666666666
            },
            {
              "pitch": 55,
              "velocity": 32,
              "position": 0.5104166666666666,
              "duration": 0.48541666666666666
            },
            {
              "pitch": 59,
              "velocity": 32,
              "position": 0.5104166666666666,
              "duration": 0.48541666666666666
            },
            {
              "pitch": 60,
              "velocity": 33,
              "position": 0.5208333333333334,
              "duration": 0.48541666666666666
            },
            {
              "pitch": 67,
              "velocity": 38,
              "position": 0.5208333333333334,
              "duration": 0.48541666666666666
            },
            {
              "pitch": 71,
              "velocity": 38,
              "position": 0.5208333333333334,
              "duration": 0.48541666666666666
            },
            {
              "pitch": 64,
              "velocity": 38,
              "position": 0.5208333333333334,
              "duration": 0.48541666666666666
            },
            {
              "pitch": 67,
              "velocity": 48,
              "position": 1.0208333333333333,
              "duration": 0.7145833333333333
            },
            {
              "pitch": 71,
              "velocity": 48,
              "position": 1.0208333333333333,
              "duration": 0.7145833333333333
            },
            {
              "pitch": 64,
              "velocity": 48,
              "position": 1.0208333333333333,
              "duration": 0.725
            },
            {
              "pitch": 60,
              "velocity": 46,
              "position": 1.0208333333333333,
              "duration": 0.7354166666666667
            },
            {
              "pitch": 48,
              "velocity": 42,
              "position": 1,
              "duration": 0.75625
            },
            {
              "pitch": 55,
              "velocity": 41,
              "position": 1.0104166666666667,
              "duration": 0.7458333333333333
            },
            {
              "pitch": 59,
              "velocity": 41,
              "position": 1.0104166666666667,
              "duration": 0.7458333333333333
            },
            {
              "pitch": 67,
              "velocity": 48,
              "position": 1.75,
              "duration": 0.48541666666666666
            },
            {
              "pitch": 71,
              "velocity": 48,
              "position": 1.75,
              "duration": 0.48541666666666666
            },
            {
              "pitch": 64,
              "velocity": 46,
              "position": 1.7604166666666667,
              "duration": 0.48541666666666666
            },
            {
              "pitch": 48,
              "velocity": 42,
              "position": 1.7708333333333333,
              "duration": 0.48541666666666666
            },
            {
              "pitch": 60,
              "velocity": 44,
              "position": 1.7708333333333333,
              "duration": 0.48541666666666666
            },
            {
              "pitch": 55,
              "velocity": 44,
              "position": 1.7708333333333333,
              "duration": 0.48541666666666666
            },
            {
              "pitch": 59,
              "velocity": 44,
              "position": 1.7708333333333333,
              "duration": 0.48541666666666666
            },
            {
              "pitch": 48,
              "velocity": 38,
              "position": 2.2708333333333335,
              "duration": 0.21458333333333332
            },
            {
              "pitch": 55,
              "velocity": 40,
              "position": 2.2708333333333335,
              "duration": 0.225
            },
            {
              "pitch": 59,
              "velocity": 40,
              "position": 2.2708333333333335,
              "duration": 0.225
            },
            {
              "pitch": 67,
              "velocity": 34,
              "position": 2.25,
              "duration": 0.25625
            },
            {
              "pitch": 71,
              "velocity": 34,
              "position": 2.25,
              "duration": 0.25625
            },
            {
              "pitch": 60,
              "velocity": 42,
              "position": 2.2708333333333335,
              "duration": 0.23541666666666666
            },
            {
              "pitch": 64,
              "velocity": 42,
              "position": 2.2604166666666665,
              "duration": 0.24583333333333332
            },
            {
              "pitch": 67,
              "velocity": 42,
              "position": 2.5208333333333335,
              "duration": 0.21458333333333332
            },
            {
              "pitch": 71,
              "velocity": 42,
              "position": 2.5208333333333335,
              "duration": 0.21458333333333332
            },
            {
              "pitch": 64,
              "velocity": 36,
              "position": 2.5208333333333335,
              "duration": 0.225
            },
            {
              "pitch": 60,
              "velocity": 36,
              "position": 2.5208333333333335,
              "duration": 0.23541666666666666
            },
            {
              "pitch": 48,
              "velocity": 42,
              "position": 2.5,
              "duration": 0.25625
            },
            {
              "pitch": 55,
              "velocity": 45,
              "position": 2.5104166666666665,
              "duration": 0.24583333333333332
            },
            {
              "pitch": 59,
              "velocity": 45,
              "position": 2.5104166666666665,
              "duration": 0.24583333333333332
            },
            {
              "pitch": 48,
              "velocity": 40,
              "position": 2.7708333333333335,
              "duration": 0.21458333333333332
            },
            {
              "pitch": 55,
              "velocity": 34,
              "position": 2.7708333333333335,
              "duration": 0.225
            },
            {
              "pitch": 59,
              "velocity": 34,
              "position": 2.7708333333333335,
              "duration": 0.225
            },
            {
              "pitch": 67,
              "velocity": 34,
              "position": 2.75,
              "duration": 0.25625
            },
            {
              "pitch": 71,
              "velocity": 34,
              "position": 2.75,
              "duration": 0.25625
            },
            {
              "pitch": 60,
              "velocity": 42,
              "position": 2.7708333333333335,
              "duration": 0.23541666666666666
            },
            {
              "pitch": 64,
              "velocity": 34,
              "position": 2.7604166666666665,
              "duration": 0.24583333333333332
            },
            {
              "pitch": 48,
              "velocity": 50,
              "position": 3,
              "duration": 0.48541666666666666
            },
            {
              "pitch": 55,
              "velocity": 46,
              "position": 3.0104166666666665,
              "duration": 0.48541666666666666
            },
            {
              "pitch": 59,
              "velocity": 46,
              "position": 3.0104166666666665,
              "duration": 0.48541666666666666
            },
            {
              "pitch": 60,
              "velocity": 46,
              "position": 3.0208333333333335,
              "duration": 0.48541666666666666
            },
            {
              "pitch": 67,
              "velocity": 48,
              "position": 3.0208333333333335,
              "duration": 0.48541666666666666
            },
            {
              "pitch": 71,
              "velocity": 48,
              "position": 3.0208333333333335,
              "duration": 0.48541666666666666
            },
            {
              "pitch": 64,
              "velocity": 48,
              "position": 3.0208333333333335,
              "duration": 0.48541666666666666
            },
            {
              "pitch": 67,
              "velocity": 45,
              "position": 3.5208333333333335,
              "duration": 0.21458333333333332
            },
            {
              "pitch": 71,
              "velocity": 45,
              "position": 3.5208333333333335,
              "duration": 0.21458333333333332
            },
            {
              "pitch": 64,
              "velocity": 45,
              "position": 3.5208333333333335,
              "duration": 0.225
            },
            {
              "pitch": 60,
              "velocity": 45,
              "position": 3.5208333333333335,
              "duration": 0.23541666666666666
            },
            {
              "pitch": 48,
              "velocity": 45,
              "position": 3.5,
              "duration": 0.25625
            },
            {
              "pitch": 55,
              "velocity": 45,
              "position": 3.5104166666666665,
              "duration": 0.24583333333333332
            },
            {
              "pitch": 59,
              "velocity": 45,
              "position": 3.5104166666666665,
              "duration": 0.24583333333333332
            },
            {
              "pitch": 67,
              "velocity": 32,
              "position": 3.75,
              "duration": 0.23541666666666666
            },
            {
              "pitch": 71,
              "velocity": 32,
              "position": 3.75,
              "duration": 0.23541666666666666
            },
            {
              "pitch": 60,
              "velocity": 28,
              "position": 3.7708333333333335,
              "duration": 0.21458333333333332
            },
            {
              "pitch": 55,
              "velocity": 32,
              "position": 3.7708333333333335,
              "duration": 0.21458333333333332
            },
            {
              "pitch": 59,
              "velocity": 32,
              "position": 3.7708333333333335,
              "duration": 0.21458333333333332
            },
            {
              "pitch": 48,
              "velocity": 32,
              "position": 3.7708333333333335,
              "duration": 0.21458333333333332
            },
            {
              "pitch": 64,
              "velocity": 32,
              "position": 3.7604166666666665,
              "duration": 0.225
            }
          ]
        },
        "12": {
          "ctab": {
            "srcChannel": 12,
            "name": "HistrGtr",
            "accType": "CHORD2",
            "editable": false,
            "mutedNotes": [],
            "mutedChords": [],
            "autoStart": false,
            "sourceChordNote": 0,
            "sourceChordType": "Maj7",
            "ctb2Low": null,
            "ctb2Main": {
              "ntr": "ROOT_TRANSPOSITION",
              "ntt": "MELODY",
              "bassOn": true,
              "chordRootUpperLimit": 6,
              "noteLowLimit": 0,
              "noteHighLimit": 127,
              "rtr": "PITCH_SHIFT"
            },
            "ctb2High": null
          },
          "notes": [
            {
              "pitch": 48,
              "velocity": 8,
              "position": 0.010416666666666666,
              "duration": 0.12083333333333333
            },
            {
              "pitch": 55,
              "velocity": 8,
              "position": 0.010416666666666666,
              "duration": 0.12083333333333333
            },
            {
              "pitch": 59,
              "velocity": 8,
              "position": 0.010416666666666666,
              "duration": 0.12083333333333333
            },
            {
              "pitch": 64,
              "velocity": 8,
              "position": 0.020833333333333332,
              "duration": 0.12083333333333333
            },
            {
              "pitch": 60,
              "velocity": 8,
              "position": 0.020833333333333332,
              "duration": 0.12083333333333333
            },
            {
              "pitch": 67,
              "velocity": 8,
              "position": 0.020833333333333332,
              "duration": 0.12083333333333333
            },
            {
              "pitch": 71,
              "velocity": 8,
              "position": 0.020833333333333332,
              "duration": 0.12083333333333333
            },
            {
              "pitch": 67,
              "velocity": 8,
              "position": 0.25,
              "duration": 0.12083333333333333
            },
            {
              "pitch": 71,
              "velocity": 8,
              "position": 0.25,
              "duration": 0.12083333333333333
            },
            {
              "pitch": 64,
              "velocity": 8,
              "position": 0.2604166666666667,
              "duration": 0.12083333333333333
            },
            {
              "pitch": 55,
              "velocity": 8,
              "position": 0.2708333333333333,
              "duration": 0.12083333333333333
            },
            {
              "pitch": 59,
              "velocity": 8,
              "position": 0.2708333333333333,
              "duration": 0.12083333333333333
            },
            {
              "pitch": 48,
              "velocity": 8,
              "position": 0.2708333333333333,
              "duration": 0.12083333333333333
            },
            {
              "pitch": 60,
              "velocity": 8,
              "position": 0.2708333333333333,
              "duration": 0.12083333333333333
            },
            {
              "pitch": 48,
              "velocity": 38,
              "position": 0.5,
              "duration": 0.48541666666666666
            },
            {
              "pitch": 55,
              "velocity": 55,
              "position": 0.5104166666666666,
              "duration": 0.48541666666666666
            },
            {
              "pitch": 59,
              "velocity": 55,
              "position": 0.5104166666666666,
              "duration": 0.48541666666666666
            },
            {
              "pitch": 60,
              "velocity": 68,
              "position": 0.5208333333333334,
              "duration": 0.48541666666666666
            },
            {
              "pitch": 67,
              "velocity": 61,
              "position": 0.5208333333333334,
              "duration": 0.48541666666666666
            },
            {
              "pitch": 71,
              "velocity": 61,
              "position": 0.5208333333333334,
              "duration": 0.48541666666666666
            },
            {
              "pitch": 64,
              "velocity": 70,
              "position": 0.5208333333333334,
              "duration": 0.48541666666666666
            },
            {
              "pitch": 67,
              "velocity": 69,
              "position": 1.0208333333333333,
              "duration": 0.7145833333333333
            },
            {
              "pitch": 71,
              "velocity": 69,
              "position": 1.0208333333333333,
              "duration": 0.7145833333333333
            },
            {
              "pitch": 64,
              "velocity": 67,
              "position": 1.0208333333333333,
              "duration": 0.725
            },
            {
              "pitch": 60,
              "velocity": 60,
              "position": 1.0208333333333333,
              "duration": 0.7354166666666667
            },
            {
              "pitch": 48,
              "velocity": 50,
              "position": 1,
              "duration": 0.75625
            },
            {
              "pitch": 55,
              "velocity": 55,
              "position": 1.0104166666666667,
              "duration": 0.7458333333333333
            },
            {
              "pitch": 59,
              "velocity": 55,
              "position": 1.0104166666666667,
              "duration": 0.7458333333333333
            },
            {
              "pitch": 48,
              "velocity": 70,
              "position": 1.7708333333333333,
              "duration": 0.21458333333333332
            },
            {
              "pitch": 55,
              "velocity": 70,
              "position": 1.7708333333333333,
              "duration": 0.225
            },
            {
              "pitch": 59,
              "velocity": 70,
              "position": 1.7708333333333333,
              "duration": 0.225
            },
            {
              "pitch": 67,
              "velocity": 70,
              "position": 1.75,
              "duration": 0.25625
            },
            {
              "pitch": 71,
              "velocity": 70,
              "position": 1.75,
              "duration": 0.25625
            },
            {
              "pitch": 60,
              "velocity": 70,
              "position": 1.7708333333333333,
              "duration": 0.23541666666666666
            },
            {
              "pitch": 64,
              "velocity": 70,
              "position": 1.7604166666666667,
              "duration": 0.24583333333333332
            },
            {
              "pitch": 48,
              "velocity": 8,
              "position": 2,
              "duration": 0.12083333333333333
            },
            {
              "pitch": 55,
              "velocity": 8,
              "position": 2.0104166666666665,
              "duration": 0.12083333333333333
            },
            {
              "pitch": 59,
              "velocity": 8,
              "position": 2.0104166666666665,
              "duration": 0.12083333333333333
            },
            {
              "pitch": 64,
              "velocity": 8,
              "position": 2.0208333333333335,
              "duration": 0.12083333333333333
            },
            {
              "pitch": 60,
              "velocity": 8,
              "position": 2.0208333333333335,
              "duration": 0.12083333333333333
            },
            {
              "pitch": 67,
              "velocity": 8,
              "position": 2.0208333333333335,
              "duration": 0.12083333333333333
            },
            {
              "pitch": 71,
              "velocity": 8,
              "position": 2.0208333333333335,
              "duration": 0.12083333333333333
            },
            {
              "pitch": 67,
              "velocity": 8,
              "position": 2.25,
              "duration": 0.12083333333333333
            },
            {
              "pitch": 71,
              "velocity": 8,
              "position": 2.25,
              "duration": 0.12083333333333333
            },
            {
              "pitch": 64,
              "velocity": 8,
              "position": 2.2604166666666665,
              "duration": 0.12083333333333333
            },
            {
              "pitch": 55,
              "velocity": 8,
              "position": 2.2708333333333335,
              "duration": 0.12083333333333333
            },
            {
              "pitch": 59,
              "velocity": 8,
              "position": 2.2708333333333335,
              "duration": 0.12083333333333333
            },
            {
              "pitch": 48,
              "velocity": 8,
              "position": 2.2708333333333335,
              "duration": 0.12083333333333333
            },
            {
              "pitch": 60,
              "velocity": 8,
              "position": 2.2708333333333335,
              "duration": 0.12083333333333333
            },
            {
              "pitch": 48,
              "velocity": 8,
              "position": 2.5,
              "duration": 0.12083333333333333
            },
            {
              "pitch": 55,
              "velocity": 8,
              "position": 2.5104166666666665,
              "duration": 0.12083333333333333
            },
            {
              "pitch": 59,
              "velocity": 8,
              "position": 2.5104166666666665,
              "duration": 0.12083333333333333
            },
            {
              "pitch": 64,
              "velocity": 8,
              "position": 2.5208333333333335,
              "duration": 0.12083333333333333
            },
            {
              "pitch": 60,
              "velocity": 8,
              "position": 2.5208333333333335,
              "duration": 0.12083333333333333
            },
            {
              "pitch": 67,
              "velocity": 8,
              "position": 2.5208333333333335,
              "duration": 0.12083333333333333
            },
            {
              "pitch": 71,
              "velocity": 8,
              "position": 2.5208333333333335,
              "duration": 0.12083333333333333
            },
            {
              "pitch": 67,
              "velocity": 8,
              "position": 2.75,
              "duration": 0.12083333333333333
            },
            {
              "pitch": 71,
              "velocity": 8,
              "position": 2.75,
              "duration": 0.12083333333333333
            },
            {
              "pitch": 64,
              "velocity": 8,
              "position": 2.7604166666666665,
              "duration": 0.12083333333333333
            },
            {
              "pitch": 55,
              "velocity": 8,
              "position": 2.7708333333333335,
              "duration": 0.12083333333333333
            },
            {
              "pitch": 59,
              "velocity": 8,
              "position": 2.7708333333333335,
              "duration": 0.12083333333333333
            },
            {
              "pitch": 48,
              "velocity": 8,
              "position": 2.7708333333333335,
              "duration": 0.12083333333333333
            },
            {
              "pitch": 60,
              "velocity": 8,
              "position": 2.7708333333333335,
              "duration": 0.12083333333333333
            },
            {
              "pitch": 67,
              "velocity": 75,
              "position": 3.0208333333333335,
              "duration": 0.21458333333333332
            },
            {
              "pitch": 71,
              "velocity": 75,
              "position": 3.0208333333333335,
              "duration": 0.21458333333333332
            },
            {
              "pitch": 64,
              "velocity": 75,
              "position": 3.0208333333333335,
              "duration": 0.225
            },
            {
              "pitch": 60,
              "velocity": 65,
              "position": 3.0208333333333335,
              "duration": 0.23541666666666666
            },
            {
              "pitch": 48,
              "velocity": 65,
              "position": 3,
              "duration": 0.25625
            },
            {
              "pitch": 55,
              "velocity": 70,
              "position": 3.0104166666666665,
              "duration": 0.24583333333333332
            },
            {
              "pitch": 59,
              "velocity": 70,
              "position": 3.0104166666666665,
              "duration": 0.24583333333333332
            },
            {
              "pitch": 48,
              "velocity": 49,
              "position": 3.2708333333333335,
              "duration": 0.21458333333333332
            },
            {
              "pitch": 55,
              "velocity": 49,
              "position": 3.2708333333333335,
              "duration": 0.225
            },
            {
              "pitch": 59,
              "velocity": 49,
              "position": 3.2708333333333335,
              "duration": 0.225
            },
            {
              "pitch": 67,
              "velocity": 57,
              "position": 3.25,
              "duration": 0.25625
            },
            {
              "pitch": 71,
              "velocity": 57,
              "position": 3.25,
              "duration": 0.25625
            },
            {
              "pitch": 60,
              "velocity": 52,
              "position": 3.2708333333333335,
              "duration": 0.23541666666666666
            },
            {
              "pitch": 64,
              "velocity": 52,
              "position": 3.2604166666666665,
              "duration": 0.24583333333333332
            },
            {
              "pitch": 48,
              "velocity": 8,
              "position": 3.5,
              "duration": 0.12083333333333333
            },
            {
              "pitch": 55,
              "velocity": 8,
              "position": 3.5104166666666665,
              "duration": 0.12083333333333333
            },
            {
              "pitch": 59,
              "velocity": 8,
              "position": 3.5104166666666665,
              "duration": 0.12083333333333333
            },
            {
              "pitch": 64,
              "velocity": 8,
              "position": 3.5208333333333335,
              "duration": 0.12083333333333333
            },
            {
              "pitch": 60,
              "velocity": 8,
              "position": 3.5208333333333335,
              "duration": 0.12083333333333333
            },
            {
              "pitch": 67,
              "velocity": 8,
              "position": 3.5208333333333335,
              "duration": 0.12083333333333333
            },
            {
              "pitch": 71,
              "velocity": 8,
              "position": 3.5208333333333335,
              "duration": 0.12083333333333333
            },
            {
              "pitch": 67,
              "velocity": 8,
              "position": 3.75,
              "duration": 0.12083333333333333
            },
            {
              "pitch": 71,
              "velocity": 8,
              "position": 3.75,
              "duration": 0.12083333333333333
            },
            {
              "pitch": 64,
              "velocity": 8,
              "position": 3.7604166666666665,
              "duration": 0.12083333333333333
            },
            {
              "pitch": 55,
              "velocity": 8,
              "position": 3.7708333333333335,
              "duration": 0.12083333333333333
            },
            {
              "pitch": 59,
              "velocity": 8,
              "position": 3.7708333333333335,
              "duration": 0.12083333333333333
            },
            {
              "pitch": 48,
              "velocity": 8,
              "position": 3.7708333333333335,
              "duration": 0.12083333333333333
            },
            {
              "pitch": 60,
              "velocity": 8,
              "position": 3.7708333333333335,
              "duration": 0.12083333333333333
            }
          ]
        },
        "13": {
          "ctab": {
            "srcChannel": 13,
            "name": "Organ",
            "accType": "PAD",
            "editable": false,
            "mutedNotes": [],
            "mutedChords": [],
            "autoStart": false,
            "sourceChordNote": 0,
            "sourceChordType": "Maj7",
            "ctb2Low": null,
            "ctb2Main": {
              "ntr": "ROOT_FIXED",
              "ntt": "CHORD",
              "bassOn": false,
              "chordRootUpperLimit": 0,
              "noteLowLimit": 0,
              "noteHighLimit": 79,
              "rtr": "PITCH_SHIFT"
            },
            "ctb2High": null
          },
          "notes": [
            {
              "pitch": 64,
              "velocity": 76,
              "position": 0.020833333333333332,
              "duration": 0.6916666666666667
            },
            {
              "pitch": 71,
              "velocity": 76,
              "position": 0.020833333333333332,
              "duration": 0.6916666666666667
            },
            {
              "pitch": 67,
              "velocity": 76,
              "position": 0.020833333333333332,
              "duration": 0.6916666666666667
            },
            {
              "pitch": 64,
              "velocity": 79,
              "position": 0.7354166666666667,
              "duration": 2.191666666666667
            },
            {
              "pitch": 71,
              "velocity": 79,
              "position": 0.7354166666666667,
              "duration": 2.191666666666667
            },
            {
              "pitch": 67,
              "velocity": 79,
              "position": 0.7354166666666667,
              "duration": 2.191666666666667
            },
            {
              "pitch": 71,
              "velocity": 85,
              "position": 2.96875,
              "duration": 0.96875
            },
            {
              "pitch": 64,
              "velocity": 85,
              "position": 2.96875,
              "duration": 0.9916666666666667
            },
            {
              "pitch": 67,
              "velocity": 85,
              "position": 2.96875,
              "duration": 1
            }
          ]
        },
        "14": {
          "ctab": {
            "srcChannel": 14,
            "name": "Tele",
            "accType": "PHRASE1",
            "editable": false,
            "mutedNotes": [],
            "mutedChords": [],
            "autoStart": false,
            "sourceChordNote": 0,
            "sourceChordType": "min7(11)",
            "ctb2Low": null,
            "ctb2Main": {
              "ntr": "ROOT_FIXED",
              "ntt": "CHORD",
              "bassOn": false,
              "chordRootUpperLimit": 3,
              "noteLowLimit": 0,
              "noteHighLimit": 127,
              "rtr": "PITCH_SHIFT"
            },
            "ctb2High": null
          },
          "notes": [
            {
              "pitch": 98,
              "velocity": 62,
              "position": 0,
              "duration": 0.19375
            },
            {
              "pitch": 67,
              "velocity": 18,
              "position": 0.5,
              "duration": 0.9854166666666667
            },
            {
              "pitch": 48,
              "velocity": 18,
              "position": 0,
              "duration": 2.4854166666666666
            },
            {
              "pitch": 55,
              "velocity": 18,
              "position": 0.016666666666666666,
              "duration": 2.475
            },
            {
              "pitch": 60,
              "velocity": 18,
              "position": 0.016666666666666666,
              "duration": 2.4854166666666666
            },
            {
              "pitch": 72,
              "velocity": 16,
              "position": 1,
              "duration": 1.50625
            },
            {
              "pitch": 67,
              "velocity": 108,
              "position": 1.5,
              "duration": 1.00625
            },
            {
              "pitch": 97,
              "velocity": 68,
              "position": 2.5,
              "duration": 0.20416666666666666
            },
            {
              "pitch": 48,
              "velocity": 81,
              "position": 2.5,
              "duration": 0.21458333333333332
            },
            {
              "pitch": 55,
              "velocity": 81,
              "position": 2.5104166666666665,
              "duration": 0.21458333333333332
            },
            {
              "pitch": 60,
              "velocity": 62,
              "position": 2.5208333333333335,
              "duration": 0.21458333333333332
            },
            {
              "pitch": 67,
              "velocity": 62,
              "position": 2.5208333333333335,
              "duration": 0.21458333333333332
            },
            {
              "pitch": 72,
              "velocity": 62,
              "position": 2.5208333333333335,
              "duration": 0.21458333333333332
            },
            {
              "pitch": 98,
              "velocity": 48,
              "position": 2.75,
              "duration": 0.20416666666666666
            },
            {
              "pitch": 72,
              "velocity": 67,
              "position": 2.75,
              "duration": 0.21458333333333332
            },
            {
              "pitch": 67,
              "velocity": 67,
              "position": 2.7604166666666665,
              "duration": 0.21458333333333332
            },
            {
              "pitch": 48,
              "velocity": 81,
              "position": 2.7708333333333335,
              "duration": 0.21458333333333332
            },
            {
              "pitch": 55,
              "velocity": 81,
              "position": 2.7708333333333335,
              "duration": 0.21458333333333332
            },
            {
              "pitch": 60,
              "velocity": 67,
              "position": 2.7708333333333335,
              "duration": 0.21458333333333332
            },
            {
              "pitch": 108,
              "velocity": 86,
              "position": 3,
              "duration": 0.20416666666666666
            },
            {
              "pitch": 55,
              "velocity": 19,
              "position": 3.0208333333333335,
              "duration": 0.18333333333333332
            },
            {
              "pitch": 55,
              "velocity": 8,
              "position": 3.25,
              "duration": 0.20416666666666666
            },
            {
              "pitch": 109,
              "velocity": 48,
              "position": 3.25,
              "duration": 0.20416666666666666
            },
            {
              "pitch": 48,
              "velocity": 34,
              "position": 3.2708333333333335,
              "duration": 0.20416666666666666
            },
            {
              "pitch": 60,
              "velocity": 22,
              "position": 3.0208333333333335,
              "duration": 0.46458333333333335
            },
            {
              "pitch": 55,
              "velocity": 20,
              "position": 3.5,
              "duration": 0.19375
            },
            {
              "pitch": 98,
              "velocity": 54,
              "position": 3.5,
              "duration": 0.20416666666666666
            },
            {
              "pitch": 55,
              "velocity": 23,
              "position": 3.75,
              "duration": 0.20416666666666666
            },
            {
              "pitch": 99,
              "velocity": 34,
              "position": 3.75,
              "duration": 0.20416666666666666
            },
            {
              "pitch": 60,
              "velocity": 26,
              "position": 3.5,
              "duration": 0.46458333333333335
            },
            {
              "pitch": 48,
              "velocity": 20,
              "position": 3.7708333333333335,
              "duration": 0.20416666666666666
            },
            {
              "pitch": 72,
              "velocity": 15,
              "position": 3,
              "duration": 0.9854166666666667
            },
            {
              "pitch": 67,
              "velocity": 18,
              "position": 3.5,
              "duration": 0.48541666666666666
            }
          ]
        },
        "15": {
          "ctab": {
            "srcChannel": 15,
            "name": "Strings",
            "accType": "PHRASE2",
            "editable": true,
            "mutedNotes": [],
            "mutedChords": [],
            "autoStart": false,
            "sourceChordNote": 0,
            "sourceChordType": "Maj7",
            "ctb2Low": null,
            "ctb2Main": {
              "ntr": "ROOT_FIXED",
              "ntt": "CHORD",
              "bassOn": false,
              "chordRootUpperLimit": 0,
              "noteLowLimit": 0,
              "noteHighLimit": 127,
              "rtr": "PITCH_SHIFT"
            },
            "ctb2High": null
          },
          "notes": [
            {
              "pitch": 55,
              "velocity": 45,
              "position": 0,
              "duration": 3.9854166666666666
            },
            {
              "pitch": 64,
              "velocity": 45,
              "position": 0,
              "duration": 3.9854166666666666
            },
            {
              "pitch": 59,
              "velocity": 45,
              "position": 0,
              "duration": 3.9854166666666666
            }
          ]
        }
      }
    },
    "Intro_A": {
      "type": "Intro_A",
      "sizeInBeats": 4,
      "channels": {
        "1": {
          "ctab": {
            "srcChannel": 1,
            "name": "Bass B",
            "accType": "BASS",
            "editable": false,
            "mutedNotes": [],
            "mutedChords": [
              "1+5",
              "1+8",
              "7(#9)",
              "7(b13)",
              "7(b9)",
              "7(13)",
              "7#11",
              "7(9)",
              "7b5",
              "7sus4",
              "7th",
              "dim7",
              "dim",
              "min7(11)",
              "min7(9)",
              "m7b5",
              "min7",
              "min6",
              "Maj6(9)",
              "Maj7(9)",
              "Maj(9)",
              "Maj7#11",
              "Maj7",
              "Maj6",
              "Maj"
            ],
            "autoStart": false,
            "sourceChordNote": 0,
            "sourceChordType": "Maj7",
            "ctb2Low": null,
            "ctb2Main": {
              "ntr": "ROOT_TRANSPOSITION",
              "ntt": "MELODY",
              "bassOn": true,
              "chordRootUpperLimit": 8,
              "noteLowLimit": 28,
              "noteHighLimit": 127,
              "rtr": "PITCH_SHIFT_TO_ROOT"
            },
            "ctb2High": null
          },
          "notes": []
        },
        "8": {
          "ctab": {
            "srcChannel": 8,
            "name": "AddDrum",
            "accType": "SUBRHYTHM",
            "editable": false,
            "mutedNotes": [],
            "mutedChords": [],
            "autoStart": true,
            "sourceChordNote": 0,
            "sourceChordType": "Maj7",
            "ctb2Low": null,
            "ctb2Main": {
              "ntr": "ROOT_FIXED",
              "ntt": "BYPASS",
              "bassOn": false,
              "chordRootUpperLimit": 6,
              "noteLowLimit": 0,
              "noteHighLimit": 127,
              "rtr": "PITCH_SHIFT"
            },
            "ctb2High": null
          },
          "notes": []
        },
        "9": {
          "ctab": {
            "srcChannel": 9,
            "name": "MainDrum",
            "accType": "RHYTHM",
            "editable": false,
            "mutedNotes": [],
            "mutedChords": [],
            "autoStart": true,
            "sourceChordNote": 0,
            "sourceChordType": "Maj7",
            "ctb2Low": null,
            "ctb2Main": {
              "ntr": "ROOT_FIXED",
              "ntt": "BYPASS",
              "bassOn": false,
              "chordRootUpperLimit": 6,
              "noteLowLimit": 0,
              "noteHighLimit": 127,
              "rtr": "PITCH_SHIFT"
            },
            "ctb2High": null
          },
          "notes": [
            {
              "pitch": 32,
              "velocity": 92,
              "position": 0,
              "duration": 0.00625
            },
            {
              "pitch": 32,
              "velocity": 92,
              "position": 1,
              "duration": 0.00625
            },
            {
              "pitch": 32,
              "velocity": 92,
              "position": 2,
              "duration": 0.00625
            },
            {
              "pitch": 35,
              "velocity": 72,
              "position": 2.5,
              "duration": 0.00625
            },
            {
              "pitch": 38,
              "velocity": 100,
              "position": 3,
              "duration": 0.00625
            },
            {
              "pitch": 35,
              "velocity": 69,
              "position": 3.5,
              "duration": 0.00625
            },
            {
              "pitch": 49,
              "velocity": 72,
              "position": 3.9895833333333335,
              "duration": 0.00625
            }
          ]
        },
        "10": {
          "ctab": {
            "srcChannel": 10,
            "name": "Bass A",
            "accType": "BASS",
            "editable": false,
            "mutedNotes": [],
            "mutedChords": [
              "1+2+5",
              "sus4",
              "7aug",
              "Maj7aug",
              "minMaj7(9)",
              "minMaj7",
              "min(9)",
              "min",
              "aug"
            ],
            "autoStart": false,
            "sourceChordNote": 0,
            "sourceChordType": "Maj7",
            "ctb2Low": null,
            "ctb2Main": {
              "ntr": "ROOT_TRANSPOSITION",
              "ntt": "MELODY",
              "bassOn": true,
              "chordRootUpperLimit": 8,
              "noteLowLimit": 28,
              "noteHighLimit": 127,
              "rtr": "PITCH_SHIFT_TO_ROOT"
            },
            "ctb2High": null
          },
          "notes": []
        },
        "11": {
          "ctab": {
            "srcChannel": 11,
            "name": "SteelGtr",
            "accType": "CHORD1",
            "editable": false,
            "mutedNotes": [],
            "mutedChords": [],
            "autoStart": false,
            "sourceChordNote": 0,
            "sourceChordType": "Maj7",
            "ctb2Low": null,
            "ctb2Main": {
              "ntr": "ROOT_TRANSPOSITION",
              "ntt": "MELODY",
              "bassOn": true,
              "chordRootUpperLimit": 3,
              "noteLowLimit": 0,
              "noteHighLimit": 127,
              "rtr": "PITCH_SHIFT"
            },
            "ctb2High": null
          },
          "notes": []
        },
        "12": {
          "ctab": {
            "srcChannel": 12,
            "name": "HistrGtr",
            "accType": "CHORD2",
            "editable": false,
            "mutedNotes": [],
            "mutedChords": [],
            "autoStart": false,
            "sourceChordNote": 0,
            "sourceChordType": "Maj7",
            "ctb2Low": null,
            "ctb2Main": {
              "ntr": "ROOT_TRANSPOSITION",
              "ntt": "MELODY",
              "bassOn": true,
              "chordRootUpperLimit": 6,
              "noteLowLimit": 0,
              "noteHighLimit": 127,
              "rtr": "PITCH_SHIFT"
            },
            "ctb2High": null
          },
          "notes": []
        },
        "13": {
          "ctab": {
            "srcChannel": 13,
            "name": "Organ",
            "accType": "PAD",
            "editable": false,
            "mutedNotes": [],
            "mutedChords": [],
            "autoStart": false,
            "sourceChordNote": 0,
            "sourceChordType": "Maj7",
            "ctb2Low": null,
            "ctb2Main": {
              "ntr": "ROOT_FIXED",
              "ntt": "CHORD",
              "bassOn": false,
              "chordRootUpperLimit": 0,
              "noteLowLimit": 0,
              "noteHighLimit": 79,
              "rtr": "PITCH_SHIFT"
            },
            "ctb2High": null
          },
          "notes": []
        },
        "14": {
          "ctab": {
            "srcChannel": 14,
            "name": "Tele",
            "accType": "PHRASE1",
            "editable": false,
            "mutedNotes": [],
            "mutedChords": [],
            "autoStart": false,
            "sourceChordNote": 0,
            "sourceChordType": "min7(11)",
            "ctb2Low": null,
            "ctb2Main": {
              "ntr": "ROOT_FIXED",
              "ntt": "CHORD",
              "bassOn": false,
              "chordRootUpperLimit": 3,
              "noteLowLimit": 0,
              "noteHighLimit": 127,
              "rtr": "PITCH_SHIFT"
            },
            "ctb2High": null
          },
          "notes": []
        },
        "15": {
          "ctab": {
            "srcChannel": 15,
            "name": "Strings",
            "accType": "PHRASE2",
            "editable": true,
            "mutedNotes": [],
            "mutedChords": [],
            "autoStart": false,
            "sourceChordNote": 0,
            "sourceChordType": "Maj7",
            "ctb2Low": null,
            "ctb2Main": {
              "ntr": "ROOT_FIXED",
              "ntt": "CHORD",
              "bassOn": false,
              "chordRootUpperLimit": 0,
              "noteLowLimit": 0,
              "noteHighLimit": 127,
              "rtr": "PITCH_SHIFT"
            },
            "ctb2High": null
          },
          "notes": []
        }
      }
    },
    "Ending_A": {
      "type": "Ending_A",
      "sizeInBeats": 12,
      "channels": {
        "1": {
          "ctab": {
            "srcChannel": 1,
            "name": "Bass B",
            "accType": "BASS",
            "editable": false,
            "mutedNotes": [],
            "mutedChords": [
              "1+5",
              "1+8",
              "7(#9)",
              "7(b13)",
              "7(b9)",
              "7(13)",
              "7#11",
              "7(9)",
              "7b5",
              "7sus4",
              "7th",
              "dim7",
              "dim",
              "min7(11)",
              "min7(9)",
              "m7b5",
              "min7",
              "min6",
              "Maj6(9)",
              "Maj7(9)",
              "Maj(9)",
              "Maj7#11",
              "Maj7",
              "Maj6",
              "Maj"
            ],
            "autoStart": false,
            "sourceChordNote": 0,
            "sourceChordType": "Maj7",
            "ctb2Low": null,
            "ctb2Main": {
              "ntr": "ROOT_TRANSPOSITION",
              "ntt": "MELODY",
              "bassOn": true,
              "chordRootUpperLimit": 8,
              "noteLowLimit": 28,
              "noteHighLimit": 127,
              "rtr": "PITCH_SHIFT_TO_ROOT"
            },
            "ctb2High": null
          },
          "notes": [
            {
              "pitch": 24,
              "velocity": 60,
              "position": 0,
              "duration": 10.985416666666667
            }
          ]
        },
        "8": {
          "ctab": {
            "srcChannel": 8,
            "name": "AddDrum",
            "accType": "SUBRHYTHM",
            "editable": false,
            "mutedNotes": [],
            "mutedChords": [],
            "autoStart": true,
            "sourceChordNote": 0,
            "sourceChordType": "Maj7",
            "ctb2Low": null,
            "ctb2Main": {
              "ntr": "ROOT_FIXED",
              "ntt": "BYPASS",
              "bassOn": false,
              "chordRootUpperLimit": 6,
              "noteLowLimit": 0,
              "noteHighLimit": 127,
              "rtr": "PITCH_SHIFT"
            },
            "ctb2High": null
          },
          "notes": []
        },
        "9": {
          "ctab": {
            "srcChannel": 9,
            "name": "MainDrum",
            "accType": "RHYTHM",
            "editable": false,
            "mutedNotes": [],
            "mutedChords": [],
            "autoStart": true,
            "sourceChordNote": 0,
            "sourceChordType": "Maj7",
            "ctb2Low": null,
            "ctb2Main": {
              "ntr": "ROOT_FIXED",
              "ntt": "BYPASS",
              "bassOn": false,
              "chordRootUpperLimit": 6,
              "noteLowLimit": 0,
              "noteHighLimit": 127,
              "rtr": "PITCH_SHIFT"
            },
            "ctb2High": null
          },
          "notes": [
            {
              "pitch": 35,
              "velocity": 114,
              "position": 0,
              "duration": 0.00625
            },
            {
              "pitch": 46,
              "velocity": 88,
              "position": 0,
              "duration": 0.00625
            }
          ]
        },
        "10": {
          "ctab": {
            "srcChannel": 10,
            "name": "Bass A",
            "accType": "BASS",
            "editable": false,
            "mutedNotes": [],
            "mutedChords": [
              "1+2+5",
              "sus4",
              "7aug",
              "Maj7aug",
              "minMaj7(9)",
              "minMaj7",
              "min(9)",
              "min",
              "aug"
            ],
            "autoStart": false,
            "sourceChordNote": 0,
            "sourceChordType": "Maj7",
            "ctb2Low": null,
            "ctb2Main": {
              "ntr": "ROOT_TRANSPOSITION",
              "ntt": "MELODY",
              "bassOn": true,
              "chordRootUpperLimit": 8,
              "noteLowLimit": 28,
              "noteHighLimit": 127,
              "rtr": "PITCH_SHIFT_TO_ROOT"
            },
            "ctb2High": null
          },
          "notes": [
            {
              "pitch": 24,
              "velocity": 60,
              "position": 0,
              "duration": 10.985416666666667
            }
          ]
        },
        "11": {
          "ctab": {
            "srcChannel": 11,
            "name": "SteelGtr",
            "accType": "CHORD1",
            "editable": false,
            "mutedNotes": [],
            "mutedChords": [],
            "autoStart": false,
            "sourceChordNote": 0,
            "sourceChordType": "Maj7",
            "ctb2Low": null,
            "ctb2Main": {
              "ntr": "ROOT_TRANSPOSITION",
              "ntt": "MELODY",
              "bassOn": true,
              "chordRootUpperLimit": 3,
              "noteLowLimit": 0,
              "noteHighLimit": 127,
              "rtr": "PITCH_SHIFT"
            },
            "ctb2High": null
          },
          "notes": [
            {
              "pitch": 48,
              "velocity": 42,
              "position": 0,
              "duration": 10.985416666666667
            },
            {
              "pitch": 55,
              "velocity": 36,
              "position": 0.010416666666666666,
              "duration": 10.985416666666667
            },
            {
              "pitch": 59,
              "velocity": 36,
              "position": 0.010416666666666666,
              "duration": 10.985416666666667
            },
            {
              "pitch": 60,
              "velocity": 42,
              "position": 0.020833333333333332,
              "duration": 10.985416666666667
            },
            {
              "pitch": 67,
              "velocity": 45,
              "position": 0.020833333333333332,
              "duration": 10.985416666666667
            },
            {
              "pitch": 71,
              "velocity": 45,
              "position": 0.020833333333333332,
              "duration": 10.985416666666667
            },
            {
              "pitch": 64,
              "velocity": 45,
              "position": 0.020833333333333332,
              "duration": 10.985416666666667
            }
          ]
        },
        "12": {
          "ctab": {
            "srcChannel": 12,
            "name": "HistrGtr",
            "accType": "CHORD2",
            "editable": false,
            "mutedNotes": [],
            "mutedChords": [],
            "autoStart": false,
            "sourceChordNote": 0,
            "sourceChordType": "Maj7",
            "ctb2Low": null,
            "ctb2Main": {
              "ntr": "ROOT_TRANSPOSITION",
              "ntt": "MELODY",
              "bassOn": true,
              "chordRootUpperLimit": 6,
              "noteLowLimit": 0,
              "noteHighLimit": 127,
              "rtr": "PITCH_SHIFT"
            },
            "ctb2High": null
          },
          "notes": [
            {
              "pitch": 48,
              "velocity": 70,
              "position": 0,
              "duration": 10.985416666666667
            },
            {
              "pitch": 55,
              "velocity": 64,
              "position": 0.010416666666666666,
              "duration": 10.985416666666667
            },
            {
              "pitch": 59,
              "velocity": 64,
              "position": 0.010416666666666666,
              "duration": 10.985416666666667
            },
            {
              "pitch": 60,
              "velocity": 75,
              "position": 0.020833333333333332,
              "duration": 10.985416666666667
            },
            {
              "pitch": 64,
              "velocity": 75,
              "position": 0.020833333333333332,
              "duration": 10.985416666666667
            },
            {
              "pitch": 67,
              "velocity": 63,
              "position": 0.020833333333333332,
              "duration": 10.985416666666667
            },
            {
              "pitch": 71,
              "velocity": 63,
              "position": 0.020833333333333332,
              "duration": 10.985416666666667
            }
          ]
        },
        "13": {
          "ctab": {
            "srcChannel": 13,
            "name": "Organ",
            "accType": "PAD",
            "editable": false,
            "mutedNotes": [],
            "mutedChords": [],
            "autoStart": false,
            "sourceChordNote": 0,
            "sourceChordType": "Maj7",
            "ctb2Low": null,
            "ctb2Main": {
              "ntr": "ROOT_FIXED",
              "ntt": "CHORD",
              "bassOn": false,
              "chordRootUpperLimit": 0,
              "noteLowLimit": 0,
              "noteHighLimit": 79,
              "rtr": "PITCH_SHIFT"
            },
            "ctb2High": null
          },
          "notes": [
            {
              "pitch": 59,
              "velocity": 74,
              "position": 0.020833333333333332,
              "duration": 2.6645833333333333
            },
            {
              "pitch": 67,
              "velocity": 74,
              "position": 0.020833333333333332,
              "duration": 2.6645833333333333
            },
            {
              "pitch": 64,
              "velocity": 74,
              "position": 0.020833333333333332,
              "duration": 2.6645833333333333
            },
            {
              "pitch": 59,
              "velocity": 88,
              "position": 2.73125,
              "duration": 7.970833333333333
            },
            {
              "pitch": 64,
              "velocity": 88,
              "position": 2.73125,
              "duration": 7.995833333333334
            },
            {
              "pitch": 67,
              "velocity": 88,
              "position": 2.73125,
              "duration": 8.004166666666666
            }
          ]
        },
        "14": {
          "ctab": {
            "srcChannel": 14,
            "name": "Tele",
            "accType": "PHRASE1",
            "editable": false,
            "mutedNotes": [],
            "mutedChords": [],
            "autoStart": false,
            "sourceChordNote": 0,
            "sourceChordType": "min7(11)",
            "ctb2Low": null,
            "ctb2Main": {
              "ntr": "ROOT_FIXED",
              "ntt": "CHORD",
              "bassOn": false,
              "chordRootUpperLimit": 3,
              "noteLowLimit": 0,
              "noteHighLimit": 127,
              "rtr": "PITCH_SHIFT"
            },
            "ctb2High": null
          },
          "notes": [
            {
              "pitch": 96,
              "velocity": 80,
              "position": 0.0020833333333333333,
              "duration": 0.20416666666666666
            },
            {
              "pitch": 60,
              "velocity": 24,
              "position": 0.020833333333333332,
              "duration": 10.964583333333334
            },
            {
              "pitch": 55,
              "velocity": 24,
              "position": 0.020833333333333332,
              "duration": 10.964583333333334
            },
            {
              "pitch": 48,
              "velocity": 24,
              "position": 0.0020833333333333333,
              "duration": 10.985416666666667
            }
          ]
        },
        "15": {
          "ctab": {
            "srcChannel": 15,
            "name": "Strings",
            "accType": "PHRASE2",
            "editable": true,
            "mutedNotes": [],
            "mutedChords": [],
            "autoStart": false,
            "sourceChordNote": 0,
            "sourceChordType": "Maj7",
            "ctb2Low": null,
            "ctb2Main": {
              "ntr": "ROOT_FIXED",
              "ntt": "CHORD",
              "bassOn": false,
              "chordRootUpperLimit": 0,
              "noteLowLimit": 0,
              "noteHighLimit": 127,
              "rtr": "PITCH_SHIFT"
            },
            "ctb2High": null
          },
          "notes": [
            {
              "pitch": 55,
              "velocity": 39,
              "position": 0,
              "duration": 10.985416666666667
            },
            {
              "pitch": 64,
              "velocity": 39,
              "position": 0,
              "duration": 10.985416666666667
            },
            {
              "pitch": 59,
              "velocity": 39,
              "position": 0,
              "duration": 10.985416666666667
            }
          ]
        }
      }
    },
    "Fill_In_BA": {
      "type": "Fill_In_BA",
      "sizeInBeats": 4,
      "channels": {
        "1": {
          "ctab": {
            "srcChannel": 1,
            "name": "Bass B",
            "accType": "BASS",
            "editable": false,
            "mutedNotes": [],
            "mutedChords": [
              "1+5",
              "1+8",
              "7(#9)",
              "7(b13)",
              "7(b9)",
              "7(13)",
              "7#11",
              "7(9)",
              "7b5",
              "7sus4",
              "7th",
              "dim7",
              "dim",
              "min7(11)",
              "min7(9)",
              "m7b5",
              "min7",
              "min6",
              "Maj6(9)",
              "Maj7(9)",
              "Maj(9)",
              "Maj7#11",
              "Maj7",
              "Maj6",
              "Maj"
            ],
            "autoStart": false,
            "sourceChordNote": 0,
            "sourceChordType": "Maj7",
            "ctb2Low": null,
            "ctb2Main": {
              "ntr": "ROOT_TRANSPOSITION",
              "ntt": "MELODY",
              "bassOn": true,
              "chordRootUpperLimit": 8,
              "noteLowLimit": 28,
              "noteHighLimit": 127,
              "rtr": "PITCH_SHIFT_TO_ROOT"
            },
            "ctb2High": null
          },
          "notes": [
            {
              "pitch": 24,
              "velocity": 70,
              "position": 0,
              "duration": 0.43333333333333335
            },
            {
              "pitch": 24,
              "velocity": 60,
              "position": 0.5,
              "duration": 0.43333333333333335
            }
          ]
        },
        "8": {
          "ctab": {
            "srcChannel": 8,
            "name": "AddDrum",
            "accType": "SUBRHYTHM",
            "editable": false,
            "mutedNotes": [],
            "mutedChords": [],
            "autoStart": true,
            "sourceChordNote": 0,
            "sourceChordType": "Maj7",
            "ctb2Low": null,
            "ctb2Main": {
              "ntr": "ROOT_FIXED",
              "ntt": "BYPASS",
              "bassOn": false,
              "chordRootUpperLimit": 6,
              "noteLowLimit": 0,
              "noteHighLimit": 127,
              "rtr": "PITCH_SHIFT"
            },
            "ctb2High": null
          },
          "notes": []
        },
        "9": {
          "ctab": {
            "srcChannel": 9,
            "name": "MainDrum",
            "accType": "RHYTHM",
            "editable": false,
            "mutedNotes": [],
            "mutedChords": [],
            "autoStart": true,
            "sourceChordNote": 0,
            "sourceChordType": "Maj7",
            "ctb2Low": null,
            "ctb2Main": {
              "ntr": "ROOT_FIXED",
              "ntt": "BYPASS",
              "bassOn": false,
              "chordRootUpperLimit": 6,
              "noteLowLimit": 0,
              "noteHighLimit": 127,
              "rtr": "PITCH_SHIFT"
            },
            "ctb2High": null
          },
          "notes": [
            {
              "pitch": 35,
              "velocity": 114,
              "position": 0,
              "duration": 0.00625
            },
            {
              "pitch": 46,
              "velocity": 101,
              "position": 0,
              "duration": 0.00625
            },
            {
              "pitch": 35,
              "velocity": 96,
              "position": 0.5,
              "duration": 0.00625
            },
            {
              "pitch": 46,
              "velocity": 101,
              "position": 0.5,
              "duration": 0.00625
            },
            {
              "pitch": 35,
              "velocity": 55,
              "position": 1,
              "duration": 0.00625
            },
            {
              "pitch": 44,
              "velocity": 70,
              "position": 1,
              "duration": 0.00625
            },
            {
              "pitch": 43,
              "velocity": 40,
              "position": 1,
              "duration": 0.00625
            },
            {
              "pitch": 38,
              "velocity": 20,
              "position": 1,
              "duration": 0.00625
            },
            {
              "pitch": 35,
              "velocity": 65,
              "position": 1.5,
              "duration": 0.00625
            },
            {
              "pitch": 43,
              "velocity": 60,
              "position": 1.5,
              "duration": 0.00625
            },
            {
              "pitch": 38,
              "velocity": 40,
              "position": 1.5,
              "duration": 0.00625
            },
            {
              "pitch": 35,
              "velocity": 75,
              "position": 2,
              "duration": 0.00625
            },
            {
              "pitch": 44,
              "velocity": 70,
              "position": 2,
              "duration": 0.00625
            },
            {
              "pitch": 43,
              "velocity": 80,
              "position": 2,
              "duration": 0.00625
            },
            {
              "pitch": 38,
              "velocity": 60,
              "position": 2,
              "duration": 0.00625
            },
            {
              "pitch": 35,
              "velocity": 95,
              "position": 2.5,
              "duration": 0.00625
            },
            {
              "pitch": 43,
              "velocity": 100,
              "position": 2.5,
              "duration": 0.00625
            },
            {
              "pitch": 38,
              "velocity": 82,
              "position": 2.5,
              "duration": 0.00625
            },
            {
              "pitch": 38,
              "velocity": 88,
              "position": 2.75,
              "duration": 0.00625
            },
            {
              "pitch": 35,
              "velocity": 114,
              "position": 3,
              "duration": 0.00625
            },
            {
              "pitch": 44,
              "velocity": 70,
              "position": 3,
              "duration": 0.00625
            },
            {
              "pitch": 38,
              "velocity": 107,
              "position": 3,
              "duration": 0.00625
            },
            {
              "pitch": 38,
              "velocity": 82,
              "position": 3.25,
              "duration": 0.00625
            },
            {
              "pitch": 35,
              "velocity": 95,
              "position": 3.5,
              "duration": 0.00625
            },
            {
              "pitch": 38,
              "velocity": 116,
              "position": 3.5,
              "duration": 0.00625
            },
            {
              "pitch": 38,
              "velocity": 106,
              "position": 3.75,
              "duration": 0.00625
            },
            {
              "pitch": 49,
              "velocity": 80,
              "position": 3.9895833333333335,
              "duration": 0.00625
            }
          ]
        },
        "10": {
          "ctab": {
            "srcChannel": 10,
            "name": "Bass A",
            "accType": "BASS",
            "editable": false,
            "mutedNotes": [],
            "mutedChords": [
              "1+2+5",
              "sus4",
              "7aug",
              "Maj7aug",
              "minMaj7(9)",
              "minMaj7",
              "min(9)",
              "min",
              "aug"
            ],
            "autoStart": false,
            "sourceChordNote": 0,
            "sourceChordType": "Maj7",
            "ctb2Low": null,
            "ctb2Main": {
              "ntr": "ROOT_TRANSPOSITION",
              "ntt": "MELODY",
              "bassOn": true,
              "chordRootUpperLimit": 8,
              "noteLowLimit": 28,
              "noteHighLimit": 127,
              "rtr": "PITCH_SHIFT_TO_ROOT"
            },
            "ctb2High": null
          },
          "notes": [
            {
              "pitch": 24,
              "velocity": 70,
              "position": 0,
              "duration": 0.43333333333333335
            },
            {
              "pitch": 24,
              "velocity": 60,
              "position": 0.5,
              "duration": 0.43333333333333335
            }
          ]
        },
        "11": {
          "ctab": {
            "srcChannel": 11,
            "name": "SteelGtr",
            "accType": "CHORD1",
            "editable": false,
            "mutedNotes": [],
            "mutedChords": [],
            "autoStart": false,
            "sourceChordNote": 0,
            "sourceChordType": "Maj7",
            "ctb2Low": null,
            "ctb2Main": {
              "ntr": "ROOT_TRANSPOSITION",
              "ntt": "MELODY",
              "bassOn": true,
              "chordRootUpperLimit": 3,
              "noteLowLimit": 0,
              "noteHighLimit": 127,
              "rtr": "PITCH_SHIFT"
            },
            "ctb2High": null
          },
          "notes": [
            {
              "pitch": 48,
              "velocity": 42,
              "position": 0,
              "duration": 0.48541666666666666
            },
            {
              "pitch": 55,
              "velocity": 36,
              "position": 0.010416666666666666,
              "duration": 0.48541666666666666
            },
            {
              "pitch": 59,
              "velocity": 36,
              "position": 0.010416666666666666,
              "duration": 0.48541666666666666
            },
            {
              "pitch": 60,
              "velocity": 42,
              "position": 0.020833333333333332,
              "duration": 0.48541666666666666
            },
            {
              "pitch": 64,
              "velocity": 45,
              "position": 0.020833333333333332,
              "duration": 0.48541666666666666
            },
            {
              "pitch": 67,
              "velocity": 45,
              "position": 0.020833333333333332,
              "duration": 0.48541666666666666
            },
            {
              "pitch": 71,
              "velocity": 45,
              "position": 0.020833333333333332,
              "duration": 0.48541666666666666
            },
            {
              "pitch": 48,
              "velocity": 32,
              "position": 0.5,
              "duration": 0.48541666666666666
            },
            {
              "pitch": 55,
              "velocity": 42,
              "position": 0.5104166666666666,
              "duration": 0.48541666666666666
            },
            {
              "pitch": 59,
              "velocity": 42,
              "position": 0.5104166666666666,
              "duration": 0.48541666666666666
            },
            {
              "pitch": 60,
              "velocity": 43,
              "position": 0.5208333333333334,
              "duration": 0.48541666666666666
            },
            {
              "pitch": 67,
              "velocity": 48,
              "position": 0.5208333333333334,
              "duration": 0.48541666666666666
            },
            {
              "pitch": 71,
              "velocity": 48,
              "position": 0.5208333333333334,
              "duration": 0.48541666666666666
            },
            {
              "pitch": 64,
              "velocity": 48,
              "position": 0.5208333333333334,
              "duration": 0.48541666666666666
            },
            {
              "pitch": 48,
              "velocity": 77,
              "position": 1,
              "duration": 0.17291666666666666
            },
            {
              "pitch": 55,
              "velocity": 77,
              "position": 1.0104166666666667,
              "duration": 0.17291666666666666
            },
            {
              "pitch": 59,
              "velocity": 77,
              "position": 1.0104166666666667,
              "duration": 0.17291666666666666
            },
            {
              "pitch": 60,
              "velocity": 77,
              "position": 1.0208333333333333,
              "duration": 0.17291666666666666
            },
            {
              "pitch": 64,
              "velocity": 77,
              "position": 1.03125,
              "duration": 0.17291666666666666
            },
            {
              "pitch": 67,
              "velocity": 77,
              "position": 1.03125,
              "duration": 0.17291666666666666
            },
            {
              "pitch": 71,
              "velocity": 77,
              "position": 1.03125,
              "duration": 0.17291666666666666
            }
          ]
        },
        "12": {
          "ctab": {
            "srcChannel": 12,
            "name": "HistrGtr",
            "accType": "CHORD2",
            "editable": false,
            "mutedNotes": [],
            "mutedChords": [],
            "autoStart": false,
            "sourceChordNote": 0,
            "sourceChordType": "Maj7",
            "ctb2Low": null,
            "ctb2Main": {
              "ntr": "ROOT_TRANSPOSITION",
              "ntt": "MELODY",
              "bassOn": true,
              "chordRootUpperLimit": 6,
              "noteLowLimit": 0,
              "noteHighLimit": 127,
              "rtr": "PITCH_SHIFT"
            },
            "ctb2High": null
          },
          "notes": [
            {
              "pitch": 48,
              "velocity": 70,
              "position": 0,
              "duration": 0.48541666666666666
            },
            {
              "pitch": 55,
              "velocity": 64,
              "position": 0.010416666666666666,
              "duration": 0.48541666666666666
            },
            {
              "pitch": 59,
              "velocity": 64,
              "position": 0.010416666666666666,
              "duration": 0.48541666666666666
            },
            {
              "pitch": 60,
              "velocity": 75,
              "position": 0.020833333333333332,
              "duration": 0.48541666666666666
            },
            {
              "pitch": 67,
              "velocity": 63,
              "position": 0.020833333333333332,
              "duration": 0.48541666666666666
            },
            {
              "pitch": 71,
              "velocity": 63,
              "position": 0.020833333333333332,
              "duration": 0.48541666666666666
            },
            {
              "pitch": 64,
              "velocity": 75,
              "position": 0.020833333333333332,
              "duration": 0.48541666666666666
            },
            {
              "pitch": 48,
              "velocity": 59,
              "position": 0.5,
              "duration": 0.48541666666666666
            },
            {
              "pitch": 55,
              "velocity": 64,
              "position": 0.5104166666666666,
              "duration": 0.48541666666666666
            },
            {
              "pitch": 59,
              "velocity": 64,
              "position": 0.5104166666666666,
              "duration": 0.48541666666666666
            },
            {
              "pitch": 60,
              "velocity": 61,
              "position": 0.5208333333333334,
              "duration": 0.48541666666666666
            },
            {
              "pitch": 67,
              "velocity": 61,
              "position": 0.5208333333333334,
              "duration": 0.48541666666666666
            },
            {
              "pitch": 71,
              "velocity": 61,
              "position": 0.5208333333333334,
              "duration": 0.48541666666666666
            },
            {
              "pitch": 64,
              "velocity": 58,
              "position": 0.5208333333333334,
              "duration": 0.48541666666666666
            },
            {
              "pitch": 48,
              "velocity": 8,
              "position": 1,
              "duration": 0.12083333333333333
            },
            {
              "pitch": 55,
              "velocity": 8,
              "position": 1.0104166666666667,
              "duration": 0.12083333333333333
            },
            {
              "pitch": 59,
              "velocity": 8,
              "position": 1.0104166666666667,
              "duration": 0.12083333333333333
            },
            {
              "pitch": 64,
              "velocity": 8,
              "position": 1.0208333333333333,
              "duration": 0.12083333333333333
            },
            {
              "pitch": 60,
              "velocity": 8,
              "position": 1.0208333333333333,
              "duration": 0.12083333333333333
            },
            {
              "pitch": 67,
              "velocity": 8,
              "position": 1.0208333333333333,
              "duration": 0.12083333333333333
            },
            {
              "pitch": 71,
              "velocity": 8,
              "position": 1.0208333333333333,
              "duration": 0.12083333333333333
            }
          ]
        },
        "13": {
          "ctab": {
            "srcChannel": 13,
            "name": "Organ",
            "accType": "PAD",
            "editable": false,
            "mutedNotes": [],
            "mutedChords": [],
            "autoStart": false,
            "sourceChordNote": 0,
            "sourceChordType": "Maj7",
            "ctb2Low": null,
            "ctb2Main": {
              "ntr": "ROOT_FIXED",
              "ntt": "CHORD",
              "bassOn": false,
              "chordRootUpperLimit": 0,
              "noteLowLimit": 0,
              "noteHighLimit": 79,
              "rtr": "PITCH_SHIFT"
            },
            "ctb2High": null
          },
          "notes": [
            {
              "pitch": 83,
              "velocity": 58,
              "position": 0.020833333333333332,
              "duration": 0.6916666666666667
            },
            {
              "pitch": 83,
              "velocity": 61,
              "position": 0.7354166666666667,
              "duration": 2.191666666666667
            },
            {
              "pitch": 83,
              "velocity": 67,
              "position": 2.96875,
              "duration": 0.96875
            }
          ]
        },
        "14": {
          "ctab": {
            "srcChannel": 14,
            "name": "Tele",
            "accType": "PHRASE1",
            "editable": false,
            "mutedNotes": [],
            "mutedChords": [],
            "autoStart": false,
            "sourceChordNote": 0,
            "sourceChordType": "min7(11)",
            "ctb2Low": null,
            "ctb2Main": {
              "ntr": "ROOT_FIXED",
              "ntt": "CHORD",
              "bassOn": false,
              "chordRootUpperLimit": 3,
              "noteLowLimit": 0,
              "noteHighLimit": 127,
              "rtr": "PITCH_SHIFT"
            },
            "ctb2High": null
          },
          "notes": [
            {
              "pitch": 100,
              "velocity": 74,
              "position": 0,
              "duration": 0.20416666666666666
            },
            {
              "pitch": 48,
              "velocity": 32,
              "position": 0,
              "duration": 0.975
            },
            {
              "pitch": 55,
              "velocity": 32,
              "position": 0.020833333333333332,
              "duration": 0.975
            },
            {
              "pitch": 120,
              "velocity": 56,
              "position": 3,
              "duration": 0.9854166666666667
            }
          ]
        },
        "15": {
          "ctab": {
            "srcChannel": 15,
            "name": "Strings",
            "accType": "PHRASE2",
            "editable": true,
            "mutedNotes": [],
            "mutedChords": [],
            "autoStart": false,
            "sourceChordNote": 0,
            "sourceChordType": "Maj7",
            "ctb2Low": null,
            "ctb2Main": {
              "ntr": "ROOT_FIXED",
              "ntt": "CHORD",
              "bassOn": false,
              "chordRootUpperLimit": 0,
              "noteLowLimit": 0,
              "noteHighLimit": 127,
              "rtr": "PITCH_SHIFT"
            },
            "ctb2High": null
          },
          "notes": []
        }
      }
    },
    "Intro_B": {
      "type": "Intro_B",
      "sizeInBeats": 32,
      "channels": {
        "1": {
          "ctab": {
            "srcChannel": 1,
            "name": "Bass m",
            "accType": "BASS",
            "editable": false,
            "mutedNotes": [],
            "mutedChords": [
              "1+2+5",
              "sus4",
              "1+5",
              "1+8",
              "7aug",
              "Maj7aug",
              "7(#9)",
              "7(b13)",
              "7(b9)",
              "7(13)",
              "7#11",
              "7(9)",
              "7b5",
              "7sus4",
              "7th",
              "aug",
              "Maj6(9)",
              "Maj7(9)",
              "Maj(9)",
              "Maj7#11",
              "Maj7",
              "Maj6",
              "Maj"
            ],
            "autoStart": false,
            "sourceChordNote": 0,
            "sourceChordType": "min",
            "ctb2Low": null,
            "ctb2Main": {
              "ntr": "ROOT_TRANSPOSITION",
              "ntt": "BYPASS",
              "bassOn": false,
              "chordRootUpperLimit": 8,
              "noteLowLimit": 28,
              "noteHighLimit": 51,
              "rtr": "PITCH_SHIFT"
            },
            "ctb2High": null
          },
          "notes": [
            {
              "pitch": 60,
              "velocity": 50,
              "position": 0,
              "duration": 7.35
            },
            {
              "pitch": 60,
              "velocity": 50,
              "position": 7.5,
              "duration": 5.485416666666667
            },
            {
              "pitch": 34,
              "velocity": 55,
              "position": 13.5,
              "duration": 0.5375
            },
            {
              "pitch": 29,
              "velocity": 50,
              "position": 14.5,
              "duration": 0.5375
            },
            {
              "pitch": 24,
              "velocity": 52,
              "position": 15.5,
              "duration": 7.85
            },
            {
              "pitch": 24,
              "velocity": 55,
              "position": 23.5,
              "duration": 3.964583333333333
            },
            {
              "pitch": 22,
              "velocity": 65,
              "position": 27.5,
              "duration": 0.5375
            },
            {
              "pitch": 31,
              "velocity": 50,
              "position": 28.5,
              "duration": 0.48541666666666666
            },
            {
              "pitch": 34,
              "velocity": 70,
              "position": 29,
              "duration": 0.48541666666666666
            },
            {
              "pitch": 36,
              "velocity": 50,
              "position": 29.5,
              "duration": 0.48541666666666666
            },
            {
              "pitch": 39,
              "velocity": 70,
              "position": 30,
              "duration": 0.48541666666666666
            },
            {
              "pitch": 38,
              "velocity": 50,
              "position": 30.5,
              "duration": 0.48541666666666666
            },
            {
              "pitch": 36,
              "velocity": 70,
              "position": 31,
              "duration": 0.9854166666666667
            }
          ]
        },
        "2": {
          "ctab": {
            "srcChannel": 2,
            "name": "StGt m",
            "accType": "CHORD1",
            "editable": false,
            "mutedNotes": [],
            "mutedChords": [
              "1+2+5",
              "sus4",
              "1+5",
              "1+8",
              "7aug",
              "Maj7aug",
              "7(#9)",
              "7(b13)",
              "7(b9)",
              "7(13)",
              "7#11",
              "7(9)",
              "7b5",
              "7sus4",
              "7th",
              "aug",
              "Maj6(9)",
              "Maj7(9)",
              "Maj(9)",
              "Maj7#11",
              "Maj7",
              "Maj6",
              "Maj"
            ],
            "autoStart": false,
            "sourceChordNote": 0,
            "sourceChordType": "min",
            "ctb2Low": null,
            "ctb2Main": {
              "ntr": "ROOT_TRANSPOSITION",
              "ntt": "BYPASS",
              "bassOn": false,
              "chordRootUpperLimit": 3,
              "noteLowLimit": 40,
              "noteHighLimit": 70,
              "rtr": "PITCH_SHIFT"
            },
            "ctb2High": null
          },
          "notes": [
            {
              "pitch": 106,
              "velocity": 96,
              "position": 0.010416666666666666,
              "duration": 0.24583333333333332
            },
            {
              "pitch": 48,
              "velocity": 93,
              "position": 0.010416666666666666,
              "duration": 0.975
            },
            {
              "pitch": 48,
              "velocity": 89,
              "position": 1,
              "duration": 0.475
            },
            {
              "pitch": 48,
              "velocity": 80,
              "position": 1.5,
              "duration": 0.475
            },
            {
              "pitch": 48,
              "velocity": 87,
              "position": 2,
              "duration": 0.475
            },
            {
              "pitch": 48,
              "velocity": 81,
              "position": 2.5,
              "duration": 0.475
            },
            {
              "pitch": 48,
              "velocity": 86,
              "position": 3,
              "duration": 0.475
            },
            {
              "pitch": 48,
              "velocity": 83,
              "position": 3.5,
              "duration": 0.475
            },
            {
              "pitch": 48,
              "velocity": 85,
              "position": 4.010416666666667,
              "duration": 0.475
            },
            {
              "pitch": 48,
              "velocity": 81,
              "position": 4.5,
              "duration": 0.475
            },
            {
              "pitch": 48,
              "velocity": 83,
              "position": 5,
              "duration": 0.475
            },
            {
              "pitch": 48,
              "velocity": 81,
              "position": 5.5,
              "duration": 0.475
            },
            {
              "pitch": 48,
              "velocity": 86,
              "position": 6,
              "duration": 0.475
            },
            {
              "pitch": 48,
              "velocity": 81,
              "position": 6.5,
              "duration": 0.475
            },
            {
              "pitch": 48,
              "velocity": 86,
              "position": 7,
              "duration": 0.475
            },
            {
              "pitch": 55,
              "velocity": 53,
              "position": 0.010416666666666666,
              "duration": 7.475
            },
            {
              "pitch": 72,
              "velocity": 53,
              "position": 0.010416666666666666,
              "duration": 7.475
            },
            {
              "pitch": 75,
              "velocity": 53,
              "position": 0.020833333333333332,
              "duration": 7.475
            },
            {
              "pitch": 79,
              "velocity": 53,
              "position": 0.03125,
              "duration": 7.475
            },
            {
              "pitch": 104,
              "velocity": 96,
              "position": 7.5,
              "duration": 0.24583333333333332
            },
            {
              "pitch": 48,
              "velocity": 85,
              "position": 7.5,
              "duration": 0.975
            },
            {
              "pitch": 48,
              "velocity": 88,
              "position": 8.5,
              "duration": 0.475
            },
            {
              "pitch": 48,
              "velocity": 85,
              "position": 9,
              "duration": 0.475
            },
            {
              "pitch": 48,
              "velocity": 83,
              "position": 9.5,
              "duration": 0.475
            },
            {
              "pitch": 48,
              "velocity": 84,
              "position": 10,
              "duration": 0.475
            },
            {
              "pitch": 48,
              "velocity": 84,
              "position": 10.5,
              "duration": 0.475
            },
            {
              "pitch": 48,
              "velocity": 84,
              "position": 11,
              "duration": 0.475
            },
            {
              "pitch": 48,
              "velocity": 82,
              "position": 11.5,
              "duration": 0.475
            },
            {
              "pitch": 48,
              "velocity": 85,
              "position": 12.010416666666666,
              "duration": 0.475
            },
            {
              "pitch": 48,
              "velocity": 83,
              "position": 12.5,
              "duration": 0.475
            },
            {
              "pitch": 81,
              "velocity": 53,
              "position": 7.5,
              "duration": 5.975
            },
            {
              "pitch": 77,
              "velocity": 53,
              "position": 7.510416666666667,
              "duration": 5.975
            },
            {
              "pitch": 72,
              "velocity": 53,
              "position": 7.53125,
              "duration": 5.964583333333334
            },
            {
              "pitch": 53,
              "velocity": 53,
              "position": 7.520833333333333,
              "duration": 5.975
            },
            {
              "pitch": 106,
              "velocity": 96,
              "position": 13.5,
              "duration": 0.24583333333333332
            },
            {
              "pitch": 77,
              "velocity": 53,
              "position": 13.5,
              "duration": 0.475
            },
            {
              "pitch": 72,
              "velocity": 53,
              "position": 13.510416666666666,
              "duration": 0.475
            },
            {
              "pitch": 53,
              "velocity": 53,
              "position": 13.520833333333334,
              "duration": 0.475
            },
            {
              "pitch": 82,
              "velocity": 53,
              "position": 13.520833333333334,
              "duration": 0.475
            },
            {
              "pitch": 48,
              "velocity": 87,
              "position": 13,
              "duration": 1.475
            },
            {
              "pitch": 104,
              "velocity": 96,
              "position": 14.5,
              "duration": 0.24583333333333332
            },
            {
              "pitch": 48,
              "velocity": 89,
              "position": 14.5,
              "duration": 0.475
            },
            {
              "pitch": 81,
              "velocity": 53,
              "position": 14.5,
              "duration": 0.48541666666666666
            },
            {
              "pitch": 77,
              "velocity": 53,
              "position": 14.510416666666666,
              "duration": 0.475
            },
            {
              "pitch": 72,
              "velocity": 53,
              "position": 14.520833333333334,
              "duration": 0.475
            },
            {
              "pitch": 53,
              "velocity": 53,
              "position": 14.520833333333334,
              "duration": 0.475
            },
            {
              "pitch": 106,
              "velocity": 96,
              "position": 15.5,
              "duration": 0.24583333333333332
            },
            {
              "pitch": 48,
              "velocity": 89,
              "position": 15.5,
              "duration": 0.975
            },
            {
              "pitch": 48,
              "velocity": 83,
              "position": 16.5,
              "duration": 0.475
            },
            {
              "pitch": 48,
              "velocity": 90,
              "position": 17,
              "duration": 0.475
            },
            {
              "pitch": 48,
              "velocity": 82,
              "position": 17.5,
              "duration": 0.475
            },
            {
              "pitch": 48,
              "velocity": 87,
              "position": 18,
              "duration": 0.475
            },
            {
              "pitch": 48,
              "velocity": 84,
              "position": 18.5,
              "duration": 0.475
            },
            {
              "pitch": 48,
              "velocity": 86,
              "position": 19,
              "duration": 0.475
            },
            {
              "pitch": 48,
              "velocity": 83,
              "position": 19.5,
              "duration": 0.475
            },
            {
              "pitch": 48,
              "velocity": 86,
              "position": 20.010416666666668,
              "duration": 0.475
            },
            {
              "pitch": 48,
              "velocity": 80,
              "position": 20.5,
              "duration": 0.475
            },
            {
              "pitch": 48,
              "velocity": 89,
              "position": 21,
              "duration": 0.475
            },
            {
              "pitch": 48,
              "velocity": 81,
              "position": 21.5,
              "duration": 0.475
            },
            {
              "pitch": 48,
              "velocity": 87,
              "position": 22,
              "duration": 0.475
            },
            {
              "pitch": 48,
              "velocity": 84,
              "position": 22.5,
              "duration": 0.475
            },
            {
              "pitch": 79,
              "velocity": 53,
              "position": 15.5,
              "duration": 7.975
            },
            {
              "pitch": 48,
              "velocity": 88,
              "position": 23,
              "duration": 0.475
            },
            {
              "pitch": 75,
              "velocity": 53,
              "position": 15.510416666666666,
              "duration": 7.975
            },
            {
              "pitch": 72,
              "velocity": 53,
              "position": 15.520833333333334,
              "duration": 7.975
            },
            {
              "pitch": 55,
              "velocity": 53,
              "position": 15.520833333333334,
              "duration": 7.975
            },
            {
              "pitch": 104,
              "velocity": 96,
              "position": 23.5,
              "duration": 0.24583333333333332
            },
            {
              "pitch": 48,
              "velocity": 84,
              "position": 23.5,
              "duration": 0.9708333333333333
            },
            {
              "pitch": 48,
              "velocity": 81,
              "position": 24.5,
              "duration": 0.46458333333333335
            },
            {
              "pitch": 48,
              "velocity": 83,
              "position": 25,
              "duration": 0.46458333333333335
            },
            {
              "pitch": 48,
              "velocity": 84,
              "position": 25.5,
              "duration": 0.46458333333333335
            },
            {
              "pitch": 48,
              "velocity": 86,
              "position": 26,
              "duration": 0.46458333333333335
            },
            {
              "pitch": 48,
              "velocity": 84,
              "position": 26.5,
              "duration": 0.46458333333333335
            },
            {
              "pitch": 48,
              "velocity": 84,
              "position": 27,
              "duration": 0.46458333333333335
            },
            {
              "pitch": 81,
              "velocity": 53,
              "position": 23.5,
              "duration": 3.970833333333333
            },
            {
              "pitch": 77,
              "velocity": 53,
              "position": 23.510416666666668,
              "duration": 3.975
            },
            {
              "pitch": 72,
              "velocity": 53,
              "position": 23.520833333333332,
              "duration": 3.964583333333333
            },
            {
              "pitch": 53,
              "velocity": 53,
              "position": 23.520833333333332,
              "duration": 3.975
            },
            {
              "pitch": 106,
              "velocity": 96,
              "position": 27.5,
              "duration": 0.24583333333333332
            },
            {
              "pitch": 77,
              "velocity": 53,
              "position": 27.5,
              "duration": 0.46458333333333335
            },
            {
              "pitch": 46,
              "velocity": 86,
              "position": 27.5,
              "duration": 0.46458333333333335
            },
            {
              "pitch": 72,
              "velocity": 53,
              "position": 27.50625,
              "duration": 0.475
            },
            {
              "pitch": 53,
              "velocity": 53,
              "position": 27.520833333333332,
              "duration": 0.475
            },
            {
              "pitch": 82,
              "velocity": 53,
              "position": 27.520833333333332,
              "duration": 0.475
            },
            {
              "pitch": 55,
              "velocity": 90,
              "position": 28.5,
              "duration": 0.48541666666666666
            },
            {
              "pitch": 58,
              "velocity": 60,
              "position": 29,
              "duration": 0.48541666666666666
            },
            {
              "pitch": 60,
              "velocity": 100,
              "position": 29.5,
              "duration": 0.48541666666666666
            },
            {
              "pitch": 62,
              "velocity": 120,
              "position": 30,
              "duration": 0.9854166666666667
            },
            {
              "pitch": 60,
              "velocity": 60,
              "position": 31,
              "duration": 0.9854166666666667
            }
          ]
        },
        "3": {
          "ctab": {
            "srcChannel": 3,
            "name": "HiGt m",
            "accType": "CHORD2",
            "editable": false,
            "mutedNotes": [],
            "mutedChords": [
              "1+2+5",
              "sus4",
              "1+5",
              "1+8",
              "7aug",
              "Maj7aug",
              "7(#9)",
              "7(b13)",
              "7(b9)",
              "7(13)",
              "7#11",
              "7(9)",
              "7b5",
              "7sus4",
              "7th",
              "aug",
              "Maj6(9)",
              "Maj7(9)",
              "Maj(9)",
              "Maj7#11",
              "Maj7",
              "Maj6",
              "Maj"
            ],
            "autoStart": false,
            "sourceChordNote": 0,
            "sourceChordType": "min",
            "ctb2Low": null,
            "ctb2Main": {
              "ntr": "ROOT_TRANSPOSITION",
              "ntt": "BYPASS",
              "bassOn": false,
              "chordRootUpperLimit": 8,
              "noteLowLimit": 40,
              "noteHighLimit": 65,
              "rtr": "PITCH_SHIFT"
            },
            "ctb2High": null
          },
          "notes": [
            {
              "pitch": 96,
              "velocity": 75,
              "position": 0.010416666666666666,
              "duration": 0.23541666666666666
            },
            {
              "pitch": 36,
              "velocity": 64,
              "position": 0.010416666666666666,
              "duration": 7.475
            },
            {
              "pitch": 43,
              "velocity": 64,
              "position": 0.010416666666666666,
              "duration": 7.485416666666667
            },
            {
              "pitch": 58,
              "velocity": 64,
              "position": 0.020833333333333332,
              "duration": 7.485416666666667
            },
            {
              "pitch": 63,
              "velocity": 64,
              "position": 0.03125,
              "duration": 7.485416666666667
            },
            {
              "pitch": 67,
              "velocity": 64,
              "position": 0.041666666666666664,
              "duration": 7.485416666666667
            },
            {
              "pitch": 98,
              "velocity": 75,
              "position": 7.510416666666667,
              "duration": 0.23541666666666666
            },
            {
              "pitch": 36,
              "velocity": 64,
              "position": 7.5,
              "duration": 5.985416666666667
            },
            {
              "pitch": 43,
              "velocity": 64,
              "position": 7.510416666666667,
              "duration": 5.985416666666667
            },
            {
              "pitch": 60,
              "velocity": 64,
              "position": 7.520833333333333,
              "duration": 5.985416666666667
            },
            {
              "pitch": 65,
              "velocity": 64,
              "position": 7.53125,
              "duration": 5.985416666666667
            },
            {
              "pitch": 69,
              "velocity": 64,
              "position": 7.541666666666667,
              "duration": 5.985416666666667
            },
            {
              "pitch": 100,
              "velocity": 75,
              "position": 13.510416666666666,
              "duration": 0.23541666666666666
            },
            {
              "pitch": 36,
              "velocity": 64,
              "position": 13.5,
              "duration": 0.48541666666666666
            },
            {
              "pitch": 46,
              "velocity": 64,
              "position": 13.510416666666666,
              "duration": 0.48541666666666666
            },
            {
              "pitch": 62,
              "velocity": 64,
              "position": 13.520833333333334,
              "duration": 0.48541666666666666
            },
            {
              "pitch": 65,
              "velocity": 64,
              "position": 13.53125,
              "duration": 0.48541666666666666
            },
            {
              "pitch": 70,
              "velocity": 64,
              "position": 13.541666666666666,
              "duration": 0.48541666666666666
            },
            {
              "pitch": 98,
              "velocity": 75,
              "position": 14.510416666666666,
              "duration": 0.23541666666666666
            },
            {
              "pitch": 36,
              "velocity": 64,
              "position": 14.5,
              "duration": 0.48541666666666666
            },
            {
              "pitch": 45,
              "velocity": 64,
              "position": 14.510416666666666,
              "duration": 0.48541666666666666
            },
            {
              "pitch": 60,
              "velocity": 64,
              "position": 14.520833333333334,
              "duration": 0.48541666666666666
            },
            {
              "pitch": 65,
              "velocity": 64,
              "position": 14.53125,
              "duration": 0.48541666666666666
            },
            {
              "pitch": 69,
              "velocity": 64,
              "position": 14.541666666666666,
              "duration": 0.48541666666666666
            },
            {
              "pitch": 96,
              "velocity": 75,
              "position": 15.510416666666666,
              "duration": 0.23541666666666666
            },
            {
              "pitch": 36,
              "velocity": 64,
              "position": 15.5,
              "duration": 1.9854166666666666
            },
            {
              "pitch": 96,
              "velocity": 15,
              "position": 17.5,
              "duration": 0.23541666666666666
            },
            {
              "pitch": 36,
              "velocity": 16,
              "position": 17.5,
              "duration": 0.48541666666666666
            },
            {
              "pitch": 100,
              "velocity": 15,
              "position": 18,
              "duration": 0.23541666666666666
            },
            {
              "pitch": 36,
              "velocity": 14,
              "position": 18,
              "duration": 0.48541666666666666
            },
            {
              "pitch": 43,
              "velocity": 64,
              "position": 15.510416666666666,
              "duration": 2.9854166666666666
            },
            {
              "pitch": 96,
              "velocity": 25,
              "position": 18.5,
              "duration": 0.23541666666666666
            },
            {
              "pitch": 36,
              "velocity": 18,
              "position": 18.5,
              "duration": 0.48541666666666666
            },
            {
              "pitch": 100,
              "velocity": 25,
              "position": 19,
              "duration": 0.23541666666666666
            },
            {
              "pitch": 36,
              "velocity": 36,
              "position": 19,
              "duration": 0.48541666666666666
            },
            {
              "pitch": 43,
              "velocity": 20,
              "position": 18.510416666666668,
              "duration": 0.9854166666666667
            },
            {
              "pitch": 96,
              "velocity": 25,
              "position": 19.5,
              "duration": 0.23541666666666666
            },
            {
              "pitch": 36,
              "velocity": 22,
              "position": 19.5,
              "duration": 0.48541666666666666
            },
            {
              "pitch": 43,
              "velocity": 20,
              "position": 19.510416666666668,
              "duration": 0.48541666666666666
            },
            {
              "pitch": 100,
              "velocity": 25,
              "position": 20.010416666666668,
              "duration": 0.23541666666666666
            },
            {
              "pitch": 36,
              "velocity": 28,
              "position": 20.010416666666668,
              "duration": 0.475
            },
            {
              "pitch": 43,
              "velocity": 35,
              "position": 20.010416666666668,
              "duration": 0.48541666666666666
            },
            {
              "pitch": 96,
              "velocity": 25,
              "position": 20.5,
              "duration": 0.23541666666666666
            },
            {
              "pitch": 36,
              "velocity": 22,
              "position": 20.5,
              "duration": 0.48541666666666666
            },
            {
              "pitch": 43,
              "velocity": 27,
              "position": 20.510416666666668,
              "duration": 0.48541666666666666
            },
            {
              "pitch": 100,
              "velocity": 25,
              "position": 21,
              "duration": 0.23541666666666666
            },
            {
              "pitch": 36,
              "velocity": 25,
              "position": 21,
              "duration": 0.48541666666666666
            },
            {
              "pitch": 43,
              "velocity": 32,
              "position": 21.010416666666668,
              "duration": 0.48541666666666666
            },
            {
              "pitch": 96,
              "velocity": 25,
              "position": 21.5,
              "duration": 0.23541666666666666
            },
            {
              "pitch": 36,
              "velocity": 20,
              "position": 21.5,
              "duration": 0.48541666666666666
            },
            {
              "pitch": 43,
              "velocity": 29,
              "position": 21.510416666666668,
              "duration": 0.48541666666666666
            },
            {
              "pitch": 100,
              "velocity": 25,
              "position": 22,
              "duration": 0.23541666666666666
            },
            {
              "pitch": 36,
              "velocity": 23,
              "position": 22,
              "duration": 0.48541666666666666
            },
            {
              "pitch": 43,
              "velocity": 33,
              "position": 22.010416666666668,
              "duration": 0.48541666666666666
            },
            {
              "pitch": 96,
              "velocity": 15,
              "position": 22.5,
              "duration": 0.23541666666666666
            },
            {
              "pitch": 36,
              "velocity": 22,
              "position": 22.5,
              "duration": 0.9854166666666667
            },
            {
              "pitch": 43,
              "velocity": 36,
              "position": 22.510416666666668,
              "duration": 0.9854166666666667
            },
            {
              "pitch": 58,
              "velocity": 64,
              "position": 15.520833333333334,
              "duration": 7.985416666666667
            },
            {
              "pitch": 63,
              "velocity": 64,
              "position": 15.53125,
              "duration": 7.985416666666667
            },
            {
              "pitch": 67,
              "velocity": 64,
              "position": 15.541666666666666,
              "duration": 7.985416666666667
            },
            {
              "pitch": 98,
              "velocity": 65,
              "position": 23.5,
              "duration": 0.23541666666666666
            },
            {
              "pitch": 36,
              "velocity": 64,
              "position": 23.5,
              "duration": 0.9854166666666667
            },
            {
              "pitch": 43,
              "velocity": 64,
              "position": 23.510416666666668,
              "duration": 0.9854166666666667
            },
            {
              "pitch": 96,
              "velocity": 25,
              "position": 24.5,
              "duration": 0.23541666666666666
            },
            {
              "pitch": 43,
              "velocity": 36,
              "position": 24.50625,
              "duration": 0.48541666666666666
            },
            {
              "pitch": 100,
              "velocity": 25,
              "position": 25.010416666666668,
              "duration": 0.23541666666666666
            },
            {
              "pitch": 36,
              "velocity": 23,
              "position": 24.5,
              "duration": 0.9854166666666667
            },
            {
              "pitch": 43,
              "velocity": 38,
              "position": 25.00625,
              "duration": 0.48541666666666666
            },
            {
              "pitch": 96,
              "velocity": 25,
              "position": 25.5,
              "duration": 0.23541666666666666
            },
            {
              "pitch": 43,
              "velocity": 32,
              "position": 25.50625,
              "duration": 0.48541666666666666
            },
            {
              "pitch": 100,
              "velocity": 25,
              "position": 26,
              "duration": 0.23541666666666666
            },
            {
              "pitch": 36,
              "velocity": 21,
              "position": 25.5,
              "duration": 0.9854166666666667
            },
            {
              "pitch": 43,
              "velocity": 47,
              "position": 26.00625,
              "duration": 0.48541666666666666
            },
            {
              "pitch": 96,
              "velocity": 25,
              "position": 26.5,
              "duration": 0.23541666666666666
            },
            {
              "pitch": 43,
              "velocity": 42,
              "position": 26.50625,
              "duration": 0.48541666666666666
            },
            {
              "pitch": 100,
              "velocity": 25,
              "position": 27,
              "duration": 0.23541666666666666
            },
            {
              "pitch": 36,
              "velocity": 23,
              "position": 26.5,
              "duration": 0.9854166666666667
            },
            {
              "pitch": 43,
              "velocity": 35,
              "position": 27.00625,
              "duration": 0.48541666666666666
            },
            {
              "pitch": 60,
              "velocity": 64,
              "position": 23.520833333333332,
              "duration": 3.98125
            },
            {
              "pitch": 65,
              "velocity": 64,
              "position": 23.53125,
              "duration": 3.9854166666666666
            },
            {
              "pitch": 69,
              "velocity": 64,
              "position": 23.541666666666668,
              "duration": 3.9854166666666666
            },
            {
              "pitch": 96,
              "velocity": 70,
              "position": 27.510416666666668,
              "duration": 0.23541666666666666
            },
            {
              "pitch": 34,
              "velocity": 64,
              "position": 27.5,
              "duration": 0.48541666666666666
            },
            {
              "pitch": 41,
              "velocity": 64,
              "position": 27.50625,
              "duration": 0.48541666666666666
            },
            {
              "pitch": 62,
              "velocity": 64,
              "position": 27.520833333333332,
              "duration": 0.48541666666666666
            },
            {
              "pitch": 65,
              "velocity": 64,
              "position": 27.53125,
              "duration": 0.48541666666666666
            },
            {
              "pitch": 70,
              "velocity": 64,
              "position": 27.5375,
              "duration": 0.48541666666666666
            },
            {
              "pitch": 43,
              "velocity": 45,
              "position": 28.5,
              "duration": 0.23541666666666666
            },
            {
              "pitch": 46,
              "velocity": 64,
              "position": 29,
              "duration": 0.48541666666666666
            },
            {
              "pitch": 48,
              "velocity": 33,
              "position": 29.5,
              "duration": 0.48541666666666666
            },
            {
              "pitch": 50,
              "velocity": 60,
              "position": 30,
              "duration": 0.9854166666666667
            },
            {
              "pitch": 48,
              "velocity": 64,
              "position": 31,
              "duration": 0.9854166666666667
            }
          ]
        },
        "4": {
          "ctab": {
            "srcChannel": 4,
            "name": "Organ m",
            "accType": "PAD",
            "editable": false,
            "mutedNotes": [],
            "mutedChords": [
              "1+2+5",
              "sus4",
              "1+5",
              "1+8",
              "7aug",
              "Maj7aug",
              "7(#9)",
              "7(b13)",
              "7(b9)",
              "7(13)",
              "7#11",
              "7(9)",
              "7b5",
              "7sus4",
              "7th",
              "aug",
              "Maj6(9)",
              "Maj7(9)",
              "Maj(9)",
              "Maj7#11",
              "Maj7",
              "Maj6",
              "Maj"
            ],
            "autoStart": false,
            "sourceChordNote": 0,
            "sourceChordType": "min",
            "ctb2Low": null,
            "ctb2Main": {
              "ntr": "ROOT_TRANSPOSITION",
              "ntt": "BYPASS",
              "bassOn": false,
              "chordRootUpperLimit": 4,
              "noteLowLimit": 0,
              "noteHighLimit": 79,
              "rtr": "PITCH_SHIFT"
            },
            "ctb2High": null
          },
          "notes": [
            {
              "pitch": 75,
              "velocity": 101,
              "position": 0.46875,
              "duration": 0.14791666666666667
            },
            {
              "pitch": 76,
              "velocity": 88,
              "position": 0.6729166666666667,
              "duration": 0.3104166666666667
            },
            {
              "pitch": 84,
              "velocity": 92,
              "position": 0.47291666666666665,
              "duration": 3.98125
            },
            {
              "pitch": 79,
              "velocity": 96,
              "position": 1,
              "duration": 3.4541666666666666
            },
            {
              "pitch": 79,
              "velocity": 96,
              "position": 4.49375,
              "duration": 2.9604166666666667
            },
            {
              "pitch": 80,
              "velocity": 94,
              "position": 7.620833333333334,
              "duration": 0.05
            },
            {
              "pitch": 79,
              "velocity": 93,
              "position": 7.572916666666667,
              "duration": 0.13541666666666666
            },
            {
              "pitch": 81,
              "velocity": 95,
              "position": 7.679166666666666,
              "duration": 5.779166666666667
            },
            {
              "pitch": 84,
              "velocity": 92,
              "position": 4.49375,
              "duration": 9.052083333333334
            },
            {
              "pitch": 82,
              "velocity": 93,
              "position": 13.5,
              "duration": 0.5520833333333334
            },
            {
              "pitch": 77,
              "velocity": 93,
              "position": 13.5,
              "duration": 0.5895833333333333
            },
            {
              "pitch": 74,
              "velocity": 93,
              "position": 13.5,
              "duration": 0.5895833333333333
            },
            {
              "pitch": 81,
              "velocity": 97,
              "position": 14.5,
              "duration": 0.4479166666666667
            },
            {
              "pitch": 77,
              "velocity": 100,
              "position": 14.5,
              "duration": 0.4895833333333333
            },
            {
              "pitch": 72,
              "velocity": 100,
              "position": 14.5,
              "duration": 0.5104166666666666
            },
            {
              "pitch": 76,
              "velocity": 33,
              "position": 14.98125,
              "duration": 0.07083333333333333
            },
            {
              "pitch": 74,
              "velocity": 75,
              "position": 15.022916666666667,
              "duration": 0.06041666666666667
            },
            {
              "pitch": 72,
              "velocity": 89,
              "position": 15.058333333333334,
              "duration": 0.04583333333333333
            },
            {
              "pitch": 71,
              "velocity": 81,
              "position": 15.083333333333334,
              "duration": 0.04583333333333333
            },
            {
              "pitch": 69,
              "velocity": 81,
              "position": 15.110416666666667,
              "duration": 0.041666666666666664
            },
            {
              "pitch": 67,
              "velocity": 86,
              "position": 15.135416666666666,
              "duration": 0.04375
            },
            {
              "pitch": 65,
              "velocity": 82,
              "position": 15.160416666666666,
              "duration": 0.04583333333333333
            },
            {
              "pitch": 64,
              "velocity": 84,
              "position": 15.1875,
              "duration": 0.0375
            },
            {
              "pitch": 62,
              "velocity": 84,
              "position": 15.208333333333334,
              "duration": 0.03333333333333333
            },
            {
              "pitch": 60,
              "velocity": 86,
              "position": 15.229166666666666,
              "duration": 0.03125
            },
            {
              "pitch": 65,
              "velocity": 88,
              "position": 15.46875,
              "duration": 0.0875
            },
            {
              "pitch": 66,
              "velocity": 88,
              "position": 15.520833333333334,
              "duration": 0.0875
            },
            {
              "pitch": 67,
              "velocity": 94,
              "position": 15.585416666666667,
              "duration": 1.6208333333333333
            },
            {
              "pitch": 72,
              "velocity": 88,
              "position": 15.460416666666667,
              "duration": 1.7458333333333333
            },
            {
              "pitch": 67,
              "velocity": 94,
              "position": 17.229166666666668,
              "duration": 2.970833333333333
            },
            {
              "pitch": 72,
              "velocity": 88,
              "position": 17.229166666666668,
              "duration": 2.970833333333333
            },
            {
              "pitch": 72,
              "velocity": 88,
              "position": 20.220833333333335,
              "duration": 0.925
            },
            {
              "pitch": 67,
              "velocity": 94,
              "position": 20.220833333333335,
              "duration": 1.0125
            },
            {
              "pitch": 65,
              "velocity": 94,
              "position": 21.554166666666667,
              "duration": 0.11458333333333333
            },
            {
              "pitch": 66,
              "velocity": 100,
              "position": 21.654166666666665,
              "duration": 0.13333333333333333
            },
            {
              "pitch": 65,
              "velocity": 95,
              "position": 21.777083333333334,
              "duration": 0.11875
            },
            {
              "pitch": 63,
              "velocity": 87,
              "position": 21.895833333333332,
              "duration": 0.16041666666666668
            },
            {
              "pitch": 65,
              "velocity": 97,
              "position": 22.054166666666667,
              "duration": 0.23958333333333334
            },
            {
              "pitch": 63,
              "velocity": 103,
              "position": 22.304166666666667,
              "duration": 0.11458333333333333
            },
            {
              "pitch": 60,
              "velocity": 79,
              "position": 22.477083333333333,
              "duration": 0.21666666666666667
            },
            {
              "pitch": 75,
              "velocity": 80,
              "position": 23,
              "duration": 0.19375
            },
            {
              "pitch": 79,
              "velocity": 80,
              "position": 23,
              "duration": 0.25625
            },
            {
              "pitch": 72,
              "velocity": 81,
              "position": 23,
              "duration": 0.25833333333333336
            },
            {
              "pitch": 67,
              "velocity": 80,
              "position": 23,
              "duration": 0.27708333333333335
            },
            {
              "pitch": 42,
              "velocity": 58,
              "position": 27.010416666666668,
              "duration": 0.06041666666666667
            },
            {
              "pitch": 44,
              "velocity": 58,
              "position": 27.010416666666668,
              "duration": 0.1
            },
            {
              "pitch": 46,
              "velocity": 58,
              "position": 27.035416666666666,
              "duration": 0.11041666666666666
            },
            {
              "pitch": 43,
              "velocity": 61,
              "position": 27.110416666666666,
              "duration": 0.052083333333333336
            },
            {
              "pitch": 45,
              "velocity": 62,
              "position": 27.127083333333335,
              "duration": 0.07708333333333334
            },
            {
              "pitch": 49,
              "velocity": 60,
              "position": 27.09375,
              "duration": 0.13125
            },
            {
              "pitch": 81,
              "velocity": 85,
              "position": 23.5,
              "duration": 3.7395833333333335
            },
            {
              "pitch": 72,
              "velocity": 85,
              "position": 23.5,
              "duration": 3.745833333333333
            },
            {
              "pitch": 69,
              "velocity": 85,
              "position": 23.5,
              "duration": 3.745833333333333
            },
            {
              "pitch": 77,
              "velocity": 85,
              "position": 23.5,
              "duration": 3.747916666666667
            },
            {
              "pitch": 47,
              "velocity": 62,
              "position": 27.139583333333334,
              "duration": 0.1125
            },
            {
              "pitch": 51,
              "velocity": 61,
              "position": 27.114583333333332,
              "duration": 0.15833333333333333
            },
            {
              "pitch": 48,
              "velocity": 63,
              "position": 27.170833333333334,
              "duration": 0.125
            },
            {
              "pitch": 54,
              "velocity": 65,
              "position": 27.220833333333335,
              "duration": 0.11041666666666666
            },
            {
              "pitch": 50,
              "velocity": 65,
              "position": 27.214583333333334,
              "duration": 0.11875
            },
            {
              "pitch": 52,
              "velocity": 66,
              "position": 27.252083333333335,
              "duration": 0.12291666666666666
            },
            {
              "pitch": 56,
              "velocity": 67,
              "position": 27.295833333333334,
              "duration": 0.08125
            },
            {
              "pitch": 58,
              "velocity": 68,
              "position": 27.308333333333334,
              "duration": 0.11875
            },
            {
              "pitch": 53,
              "velocity": 67,
              "position": 27.29375,
              "duration": 0.14166666666666666
            },
            {
              "pitch": 61,
              "velocity": 69,
              "position": 27.358333333333334,
              "duration": 0.10416666666666667
            },
            {
              "pitch": 55,
              "velocity": 68,
              "position": 27.325,
              "duration": 0.13958333333333334
            },
            {
              "pitch": 57,
              "velocity": 69,
              "position": 27.345833333333335,
              "duration": 0.14166666666666666
            },
            {
              "pitch": 59,
              "velocity": 70,
              "position": 27.375,
              "duration": 0.13541666666666666
            },
            {
              "pitch": 60,
              "velocity": 71,
              "position": 27.395833333333332,
              "duration": 0.125
            },
            {
              "pitch": 62,
              "velocity": 71,
              "position": 27.4,
              "duration": 0.125
            },
            {
              "pitch": 64,
              "velocity": 72,
              "position": 27.4375,
              "duration": 0.08958333333333333
            },
            {
              "pitch": 77,
              "velocity": 74,
              "position": 27.504166666666666,
              "duration": 0.45625
            },
            {
              "pitch": 72,
              "velocity": 74,
              "position": 27.504166666666666,
              "duration": 0.50625
            },
            {
              "pitch": 65,
              "velocity": 74,
              "position": 27.504166666666666,
              "duration": 0.5166666666666667
            },
            {
              "pitch": 69,
              "velocity": 80,
              "position": 27.947916666666668,
              "duration": 0.09166666666666666
            },
            {
              "pitch": 70,
              "velocity": 74,
              "position": 27.504166666666666,
              "duration": 0.5375
            },
            {
              "pitch": 67,
              "velocity": 79,
              "position": 27.985416666666666,
              "duration": 0.09166666666666666
            },
            {
              "pitch": 65,
              "velocity": 78,
              "position": 28.041666666666668,
              "duration": 0.075
            },
            {
              "pitch": 64,
              "velocity": 77,
              "position": 28.077083333333334,
              "duration": 0.07291666666666667
            },
            {
              "pitch": 62,
              "velocity": 76,
              "position": 28.11875,
              "duration": 0.05625
            },
            {
              "pitch": 60,
              "velocity": 75,
              "position": 28.15,
              "duration": 0.05625
            },
            {
              "pitch": 59,
              "velocity": 74,
              "position": 28.183333333333334,
              "duration": 0.04791666666666667
            },
            {
              "pitch": 57,
              "velocity": 74,
              "position": 28.210416666666667,
              "duration": 0.04583333333333333
            },
            {
              "pitch": 55,
              "velocity": 74,
              "position": 28.239583333333332,
              "duration": 0.041666666666666664
            },
            {
              "pitch": 53,
              "velocity": 73,
              "position": 28.2625,
              "duration": 0.04375
            },
            {
              "pitch": 52,
              "velocity": 72,
              "position": 28.29375,
              "duration": 0.03958333333333333
            },
            {
              "pitch": 50,
              "velocity": 71,
              "position": 28.322916666666668,
              "duration": 0.029166666666666667
            }
          ]
        },
        "5": {
          "ctab": {
            "srcChannel": 5,
            "name": "Tele m",
            "accType": "PHRASE1",
            "editable": false,
            "mutedNotes": [],
            "mutedChords": [
              "1+2+5",
              "sus4",
              "1+5",
              "1+8",
              "7aug",
              "Maj7aug",
              "7(#9)",
              "7(b13)",
              "7(b9)",
              "7(13)",
              "7#11",
              "7(9)",
              "7b5",
              "7sus4",
              "7th",
              "aug",
              "Maj6(9)",
              "Maj7(9)",
              "Maj(9)",
              "Maj7#11",
              "Maj7",
              "Maj6",
              "Maj"
            ],
            "autoStart": false,
            "sourceChordNote": 0,
            "sourceChordType": "min",
            "ctb2Low": null,
            "ctb2Main": {
              "ntr": "ROOT_TRANSPOSITION",
              "ntt": "BYPASS",
              "bassOn": false,
              "chordRootUpperLimit": 3,
              "noteLowLimit": 40,
              "noteHighLimit": 127,
              "rtr": "PITCH_SHIFT"
            },
            "ctb2High": null
          },
          "notes": [
            {
              "pitch": 48,
              "velocity": 78,
              "position": 0,
              "duration": 0.48541666666666666
            },
            {
              "pitch": 48,
              "velocity": 76,
              "position": 0.5,
              "duration": 0.48541666666666666
            },
            {
              "pitch": 48,
              "velocity": 78,
              "position": 1,
              "duration": 0.48541666666666666
            },
            {
              "pitch": 48,
              "velocity": 76,
              "position": 1.5,
              "duration": 0.48541666666666666
            },
            {
              "pitch": 48,
              "velocity": 78,
              "position": 2,
              "duration": 0.48541666666666666
            },
            {
              "pitch": 48,
              "velocity": 76,
              "position": 2.5,
              "duration": 0.48541666666666666
            },
            {
              "pitch": 48,
              "velocity": 78,
              "position": 3,
              "duration": 0.48541666666666666
            },
            {
              "pitch": 48,
              "velocity": 76,
              "position": 3.5,
              "duration": 0.48541666666666666
            },
            {
              "pitch": 48,
              "velocity": 78,
              "position": 4,
              "duration": 0.48541666666666666
            },
            {
              "pitch": 48,
              "velocity": 76,
              "position": 4.5,
              "duration": 0.48541666666666666
            },
            {
              "pitch": 48,
              "velocity": 76,
              "position": 5,
              "duration": 0.48541666666666666
            },
            {
              "pitch": 48,
              "velocity": 76,
              "position": 5.5,
              "duration": 0.48541666666666666
            },
            {
              "pitch": 48,
              "velocity": 78,
              "position": 6,
              "duration": 0.48541666666666666
            },
            {
              "pitch": 48,
              "velocity": 76,
              "position": 6.5,
              "duration": 0.48541666666666666
            },
            {
              "pitch": 48,
              "velocity": 78,
              "position": 7,
              "duration": 0.48541666666666666
            },
            {
              "pitch": 48,
              "velocity": 76,
              "position": 7.5,
              "duration": 0.48541666666666666
            },
            {
              "pitch": 48,
              "velocity": 78,
              "position": 8,
              "duration": 0.48541666666666666
            },
            {
              "pitch": 48,
              "velocity": 76,
              "position": 8.5,
              "duration": 0.48541666666666666
            },
            {
              "pitch": 48,
              "velocity": 78,
              "position": 9,
              "duration": 0.48541666666666666
            },
            {
              "pitch": 48,
              "velocity": 76,
              "position": 9.5,
              "duration": 0.48541666666666666
            },
            {
              "pitch": 48,
              "velocity": 78,
              "position": 10,
              "duration": 0.48541666666666666
            },
            {
              "pitch": 48,
              "velocity": 76,
              "position": 10.5,
              "duration": 0.48541666666666666
            },
            {
              "pitch": 48,
              "velocity": 78,
              "position": 11,
              "duration": 0.48541666666666666
            },
            {
              "pitch": 48,
              "velocity": 76,
              "position": 11.5,
              "duration": 0.48541666666666666
            },
            {
              "pitch": 48,
              "velocity": 78,
              "position": 12,
              "duration": 0.48541666666666666
            },
            {
              "pitch": 48,
              "velocity": 76,
              "position": 12.5,
              "duration": 0.48541666666666666
            },
            {
              "pitch": 48,
              "velocity": 78,
              "position": 13,
              "duration": 0.48541666666666666
            },
            {
              "pitch": 48,
              "velocity": 76,
              "position": 13.5,
              "duration": 0.48541666666666666
            },
            {
              "pitch": 48,
              "velocity": 78,
              "position": 14,
              "duration": 0.48541666666666666
            },
            {
              "pitch": 48,
              "velocity": 76,
              "position": 14.5,
              "duration": 0.48541666666666666
            },
            {
              "pitch": 48,
              "velocity": 78,
              "position": 15,
              "duration": 0.48541666666666666
            },
            {
              "pitch": 48,
              "velocity": 24,
              "position": 15.5,
              "duration": 0.9854166666666667
            },
            {
              "pitch": 48,
              "velocity": 76,
              "position": 16.5,
              "duration": 0.48541666666666666
            },
            {
              "pitch": 48,
              "velocity": 76,
              "position": 17,
              "duration": 0.48541666666666666
            },
            {
              "pitch": 55,
              "velocity": 24,
              "position": 15.5,
              "duration": 2.4854166666666666
            },
            {
              "pitch": 48,
              "velocity": 76,
              "position": 17.5,
              "duration": 0.48541666666666666
            },
            {
              "pitch": 48,
              "velocity": 78,
              "position": 18,
              "duration": 0.48541666666666666
            },
            {
              "pitch": 55,
              "velocity": 76,
              "position": 18,
              "duration": 0.48541666666666666
            },
            {
              "pitch": 48,
              "velocity": 76,
              "position": 18.5,
              "duration": 0.48541666666666666
            },
            {
              "pitch": 55,
              "velocity": 76,
              "position": 18.5,
              "duration": 0.48541666666666666
            },
            {
              "pitch": 48,
              "velocity": 79,
              "position": 19,
              "duration": 0.48541666666666666
            },
            {
              "pitch": 55,
              "velocity": 77,
              "position": 19,
              "duration": 0.48541666666666666
            },
            {
              "pitch": 48,
              "velocity": 78,
              "position": 19.5,
              "duration": 0.48541666666666666
            },
            {
              "pitch": 55,
              "velocity": 77,
              "position": 19.5,
              "duration": 0.48541666666666666
            },
            {
              "pitch": 48,
              "velocity": 80,
              "position": 20,
              "duration": 0.48541666666666666
            },
            {
              "pitch": 55,
              "velocity": 76,
              "position": 20,
              "duration": 0.48541666666666666
            },
            {
              "pitch": 48,
              "velocity": 77,
              "position": 20.5,
              "duration": 0.48541666666666666
            },
            {
              "pitch": 55,
              "velocity": 76,
              "position": 20.5,
              "duration": 0.48541666666666666
            },
            {
              "pitch": 48,
              "velocity": 81,
              "position": 21,
              "duration": 0.48541666666666666
            },
            {
              "pitch": 55,
              "velocity": 78,
              "position": 21,
              "duration": 0.48541666666666666
            },
            {
              "pitch": 48,
              "velocity": 76,
              "position": 21.5,
              "duration": 0.48541666666666666
            },
            {
              "pitch": 55,
              "velocity": 77,
              "position": 21.5,
              "duration": 0.48541666666666666
            },
            {
              "pitch": 48,
              "velocity": 82,
              "position": 22,
              "duration": 0.48541666666666666
            },
            {
              "pitch": 55,
              "velocity": 80,
              "position": 22,
              "duration": 0.48541666666666666
            },
            {
              "pitch": 48,
              "velocity": 82,
              "position": 22.5,
              "duration": 0.48541666666666666
            },
            {
              "pitch": 55,
              "velocity": 79,
              "position": 22.5,
              "duration": 0.48541666666666666
            },
            {
              "pitch": 60,
              "velocity": 24,
              "position": 15.5,
              "duration": 7.985416666666667
            },
            {
              "pitch": 55,
              "velocity": 80,
              "position": 23,
              "duration": 0.48541666666666666
            },
            {
              "pitch": 48,
              "velocity": 82,
              "position": 23,
              "duration": 0.48541666666666666
            },
            {
              "pitch": 48,
              "velocity": 20,
              "position": 23.5,
              "duration": 0.9854166666666667
            },
            {
              "pitch": 48,
              "velocity": 9,
              "position": 24.5,
              "duration": 0.48541666666666666
            },
            {
              "pitch": 65,
              "velocity": 22,
              "position": 23.5,
              "duration": 1.9854166666666666
            },
            {
              "pitch": 48,
              "velocity": 13,
              "position": 25,
              "duration": 0.48541666666666666
            },
            {
              "pitch": 48,
              "velocity": 20,
              "position": 25.5,
              "duration": 0.48541666666666666
            },
            {
              "pitch": 65,
              "velocity": 10,
              "position": 25.5,
              "duration": 0.48541666666666666
            },
            {
              "pitch": 48,
              "velocity": 26,
              "position": 26,
              "duration": 0.48541666666666666
            },
            {
              "pitch": 65,
              "velocity": 15,
              "position": 26,
              "duration": 0.48541666666666666
            },
            {
              "pitch": 48,
              "velocity": 32,
              "position": 26.5,
              "duration": 0.48541666666666666
            },
            {
              "pitch": 65,
              "velocity": 20,
              "position": 26.5,
              "duration": 0.48541666666666666
            },
            {
              "pitch": 72,
              "velocity": 22,
              "position": 23.5,
              "duration": 3.9854166666666666
            },
            {
              "pitch": 65,
              "velocity": 25,
              "position": 27,
              "duration": 0.48541666666666666
            },
            {
              "pitch": 48,
              "velocity": 42,
              "position": 27,
              "duration": 0.48541666666666666
            },
            {
              "pitch": 46,
              "velocity": 44,
              "position": 27.5,
              "duration": 0.46458333333333335
            },
            {
              "pitch": 72,
              "velocity": 30,
              "position": 27.5,
              "duration": 0.46458333333333335
            },
            {
              "pitch": 70,
              "velocity": 30,
              "position": 27.5,
              "duration": 0.46458333333333335
            },
            {
              "pitch": 65,
              "velocity": 30,
              "position": 27.5,
              "duration": 0.46458333333333335
            },
            {
              "pitch": 55,
              "velocity": 84,
              "position": 28.5,
              "duration": 0.48541666666666666
            },
            {
              "pitch": 58,
              "velocity": 44,
              "position": 29,
              "duration": 0.48541666666666666
            },
            {
              "pitch": 60,
              "velocity": 100,
              "position": 29.5,
              "duration": 0.48541666666666666
            },
            {
              "pitch": 63,
              "velocity": 120,
              "position": 29.975,
              "duration": 0.5083333333333333
            },
            {
              "pitch": 62,
              "velocity": 100,
              "position": 30.5,
              "duration": 0.48541666666666666
            },
            {
              "pitch": 60,
              "velocity": 36,
              "position": 31,
              "duration": 0.9854166666666667
            }
          ]
        },
        "6": {
          "ctab": {
            "srcChannel": 6,
            "name": "Str m",
            "accType": "PHRASE2",
            "editable": false,
            "mutedNotes": [],
            "mutedChords": [
              "1+2+5",
              "sus4",
              "1+5",
              "1+8",
              "7aug",
              "Maj7aug",
              "7(#9)",
              "7(b13)",
              "7(b9)",
              "7(13)",
              "7#11",
              "7(9)",
              "7b5",
              "7sus4",
              "7th",
              "aug",
              "Maj6(9)",
              "Maj7(9)",
              "Maj(9)",
              "Maj7#11",
              "Maj7",
              "Maj6",
              "Maj"
            ],
            "autoStart": false,
            "sourceChordNote": 0,
            "sourceChordType": "min",
            "ctb2Low": null,
            "ctb2Main": {
              "ntr": "ROOT_TRANSPOSITION",
              "ntt": "BYPASS",
              "bassOn": false,
              "chordRootUpperLimit": 10,
              "noteLowLimit": 54,
              "noteHighLimit": 127,
              "rtr": "PITCH_SHIFT"
            },
            "ctb2High": null
          },
          "notes": [
            {
              "pitch": 43,
              "velocity": 51,
              "position": 0.010416666666666666,
              "duration": 3.975
            },
            {
              "pitch": 51,
              "velocity": 24,
              "position": 0.010416666666666666,
              "duration": 3.975
            },
            {
              "pitch": 48,
              "velocity": 51,
              "position": 0.010416666666666666,
              "duration": 3.975
            },
            {
              "pitch": 51,
              "velocity": 51,
              "position": 4,
              "duration": 3.48125
            },
            {
              "pitch": 48,
              "velocity": 109,
              "position": 4,
              "duration": 3.4854166666666666
            },
            {
              "pitch": 43,
              "velocity": 109,
              "position": 4,
              "duration": 3.4854166666666666
            },
            {
              "pitch": 43,
              "velocity": 51,
              "position": 7.5,
              "duration": 4.485416666666667
            },
            {
              "pitch": 48,
              "velocity": 51,
              "position": 7.5,
              "duration": 4.485416666666667
            },
            {
              "pitch": 53,
              "velocity": 51,
              "position": 7.5,
              "duration": 7.98125
            },
            {
              "pitch": 48,
              "velocity": 109,
              "position": 12,
              "duration": 3.4854166666666666
            },
            {
              "pitch": 43,
              "velocity": 109,
              "position": 12,
              "duration": 3.4854166666666666
            },
            {
              "pitch": 48,
              "velocity": 51,
              "position": 15.5,
              "duration": 4.485416666666667
            },
            {
              "pitch": 43,
              "velocity": 51,
              "position": 15.5,
              "duration": 4.485416666666667
            },
            {
              "pitch": 51,
              "velocity": 51,
              "position": 15.5,
              "duration": 7.98125
            },
            {
              "pitch": 48,
              "velocity": 109,
              "position": 20,
              "duration": 3.4854166666666666
            },
            {
              "pitch": 43,
              "velocity": 109,
              "position": 20,
              "duration": 3.4854166666666666
            },
            {
              "pitch": 43,
              "velocity": 51,
              "position": 23.5,
              "duration": 4.485416666666667
            },
            {
              "pitch": 53,
              "velocity": 51,
              "position": 23.5,
              "duration": 4.485416666666667
            },
            {
              "pitch": 48,
              "velocity": 51,
              "position": 23.5,
              "duration": 4.485416666666667
            }
          ]
        },
        "9": {
          "ctab": {
            "srcChannel": 9,
            "name": "MainDrum",
            "accType": "RHYTHM",
            "editable": false,
            "mutedNotes": [],
            "mutedChords": [],
            "autoStart": true,
            "sourceChordNote": 0,
            "sourceChordType": "Maj7",
            "ctb2Low": null,
            "ctb2Main": {
              "ntr": "ROOT_FIXED",
              "ntt": "BYPASS",
              "bassOn": false,
              "chordRootUpperLimit": 6,
              "noteLowLimit": 0,
              "noteHighLimit": 127,
              "rtr": "PITCH_SHIFT"
            },
            "ctb2High": null
          },
          "notes": [
            {
              "pitch": 35,
              "velocity": 110,
              "position": 0,
              "duration": 0.00625
            },
            {
              "pitch": 46,
              "velocity": 101,
              "position": 0,
              "duration": 0.00625
            },
            {
              "pitch": 42,
              "velocity": 115,
              "position": 1,
              "duration": 0.00625
            },
            {
              "pitch": 42,
              "velocity": 50,
              "position": 1.5,
              "duration": 0.00625
            },
            {
              "pitch": 42,
              "velocity": 100,
              "position": 2,
              "duration": 0.00625
            },
            {
              "pitch": 42,
              "velocity": 50,
              "position": 2.5,
              "duration": 0.00625
            },
            {
              "pitch": 42,
              "velocity": 115,
              "position": 3,
              "duration": 0.00625
            },
            {
              "pitch": 42,
              "velocity": 30,
              "position": 3.5,
              "duration": 0.00625
            },
            {
              "pitch": 42,
              "velocity": 60,
              "position": 3.75,
              "duration": 0.00625
            },
            {
              "pitch": 42,
              "velocity": 100,
              "position": 4,
              "duration": 0.00625
            },
            {
              "pitch": 42,
              "velocity": 50,
              "position": 4.5,
              "duration": 0.00625
            },
            {
              "pitch": 42,
              "velocity": 115,
              "position": 5,
              "duration": 0.00625
            },
            {
              "pitch": 42,
              "velocity": 30,
              "position": 5.5,
              "duration": 0.00625
            },
            {
              "pitch": 42,
              "velocity": 60,
              "position": 5.75,
              "duration": 0.00625
            },
            {
              "pitch": 42,
              "velocity": 100,
              "position": 6,
              "duration": 0.00625
            },
            {
              "pitch": 42,
              "velocity": 50,
              "position": 6.5,
              "duration": 0.00625
            },
            {
              "pitch": 42,
              "velocity": 115,
              "position": 7,
              "duration": 0.00625
            },
            {
              "pitch": 35,
              "velocity": 110,
              "position": 7.5,
              "duration": 0.00625
            },
            {
              "pitch": 46,
              "velocity": 101,
              "position": 7.5,
              "duration": 0.00625
            },
            {
              "pitch": 42,
              "velocity": 50,
              "position": 8.5,
              "duration": 0.00625
            },
            {
              "pitch": 42,
              "velocity": 115,
              "position": 9,
              "duration": 0.00625
            },
            {
              "pitch": 42,
              "velocity": 40,
              "position": 9.5,
              "duration": 0.00625
            },
            {
              "pitch": 42,
              "velocity": 20,
              "position": 9.666666666666666,
              "duration": 0.00625
            },
            {
              "pitch": 42,
              "velocity": 60,
              "position": 9.833333333333334,
              "duration": 0.00625
            },
            {
              "pitch": 42,
              "velocity": 100,
              "position": 10,
              "duration": 0.00625
            },
            {
              "pitch": 42,
              "velocity": 50,
              "position": 10.5,
              "duration": 0.00625
            },
            {
              "pitch": 42,
              "velocity": 115,
              "position": 11,
              "duration": 0.00625
            },
            {
              "pitch": 42,
              "velocity": 50,
              "position": 11.5,
              "duration": 0.00625
            },
            {
              "pitch": 42,
              "velocity": 100,
              "position": 12,
              "duration": 0.00625
            },
            {
              "pitch": 42,
              "velocity": 50,
              "position": 12.5,
              "duration": 0.00625
            },
            {
              "pitch": 42,
              "velocity": 115,
              "position": 13,
              "duration": 0.00625
            },
            {
              "pitch": 35,
              "velocity": 110,
              "position": 13.5,
              "duration": 0.00625
            },
            {
              "pitch": 53,
              "velocity": 83,
              "position": 13.5,
              "duration": 0.00625
            },
            {
              "pitch": 46,
              "velocity": 101,
              "position": 13.5,
              "duration": 0.00625
            },
            {
              "pitch": 44,
              "velocity": 70,
              "position": 14,
              "duration": 0.00625
            },
            {
              "pitch": 35,
              "velocity": 110,
              "position": 14.5,
              "duration": 0.00625
            },
            {
              "pitch": 55,
              "velocity": 92,
              "position": 14.5,
              "duration": 0.00625
            },
            {
              "pitch": 46,
              "velocity": 101,
              "position": 14.5,
              "duration": 0.00625
            },
            {
              "pitch": 44,
              "velocity": 70,
              "position": 15,
              "duration": 0.00625
            },
            {
              "pitch": 35,
              "velocity": 116,
              "position": 15.5,
              "duration": 0.00625
            },
            {
              "pitch": 52,
              "velocity": 104,
              "position": 15.5,
              "duration": 0.00625
            },
            {
              "pitch": 46,
              "velocity": 101,
              "position": 15.5,
              "duration": 0.00625
            },
            {
              "pitch": 42,
              "velocity": 50,
              "position": 16.5,
              "duration": 0.00625
            },
            {
              "pitch": 35,
              "velocity": 118,
              "position": 17,
              "duration": 0.00625
            },
            {
              "pitch": 42,
              "velocity": 115,
              "position": 17,
              "duration": 0.00625
            },
            {
              "pitch": 42,
              "velocity": 30,
              "position": 17.5,
              "duration": 0.00625
            },
            {
              "pitch": 42,
              "velocity": 60,
              "position": 17.75,
              "duration": 0.00625
            },
            {
              "pitch": 42,
              "velocity": 100,
              "position": 18,
              "duration": 0.00625
            },
            {
              "pitch": 42,
              "velocity": 50,
              "position": 18.5,
              "duration": 0.00625
            },
            {
              "pitch": 35,
              "velocity": 118,
              "position": 19,
              "duration": 0.00625
            },
            {
              "pitch": 42,
              "velocity": 115,
              "position": 19,
              "duration": 0.00625
            },
            {
              "pitch": 42,
              "velocity": 30,
              "position": 19.5,
              "duration": 0.00625
            },
            {
              "pitch": 42,
              "velocity": 60,
              "position": 19.75,
              "duration": 0.00625
            },
            {
              "pitch": 42,
              "velocity": 100,
              "position": 20,
              "duration": 0.00625
            },
            {
              "pitch": 42,
              "velocity": 30,
              "position": 20.5,
              "duration": 0.00625
            },
            {
              "pitch": 42,
              "velocity": 60,
              "position": 20.75,
              "duration": 0.00625
            },
            {
              "pitch": 35,
              "velocity": 115,
              "position": 21,
              "duration": 0.00625
            },
            {
              "pitch": 42,
              "velocity": 115,
              "position": 21,
              "duration": 0.00625
            },
            {
              "pitch": 42,
              "velocity": 30,
              "position": 21.5,
              "duration": 0.00625
            },
            {
              "pitch": 42,
              "velocity": 60,
              "position": 21.75,
              "duration": 0.00625
            },
            {
              "pitch": 42,
              "velocity": 100,
              "position": 22,
              "duration": 0.00625
            },
            {
              "pitch": 42,
              "velocity": 50,
              "position": 22.5,
              "duration": 0.00625
            },
            {
              "pitch": 35,
              "velocity": 115,
              "position": 23,
              "duration": 0.00625
            },
            {
              "pitch": 42,
              "velocity": 115,
              "position": 23,
              "duration": 0.00625
            },
            {
              "pitch": 35,
              "velocity": 119,
              "position": 23.5,
              "duration": 0.00625
            },
            {
              "pitch": 57,
              "velocity": 89,
              "position": 23.5,
              "duration": 0.00625
            },
            {
              "pitch": 46,
              "velocity": 119,
              "position": 23.5,
              "duration": 0.00625
            },
            {
              "pitch": 35,
              "velocity": 47,
              "position": 24.5,
              "duration": 0.00625
            },
            {
              "pitch": 46,
              "velocity": 50,
              "position": 24.5,
              "duration": 0.00625
            },
            {
              "pitch": 43,
              "velocity": 27,
              "position": 24.5,
              "duration": 0.00625
            },
            {
              "pitch": 35,
              "velocity": 119,
              "position": 25,
              "duration": 0.00625
            },
            {
              "pitch": 46,
              "velocity": 57,
              "position": 25,
              "duration": 0.00625
            },
            {
              "pitch": 43,
              "velocity": 34,
              "position": 25,
              "duration": 0.00625
            },
            {
              "pitch": 35,
              "velocity": 47,
              "position": 25.5,
              "duration": 0.00625
            },
            {
              "pitch": 46,
              "velocity": 73,
              "position": 25.5,
              "duration": 0.00625
            },
            {
              "pitch": 43,
              "velocity": 50,
              "position": 25.5,
              "duration": 0.00625
            },
            {
              "pitch": 35,
              "velocity": 63,
              "position": 26,
              "duration": 0.00625
            },
            {
              "pitch": 46,
              "velocity": 89,
              "position": 26,
              "duration": 0.00625
            },
            {
              "pitch": 43,
              "velocity": 76,
              "position": 26,
              "duration": 0.00625
            },
            {
              "pitch": 35,
              "velocity": 79,
              "position": 26.5,
              "duration": 0.00625
            },
            {
              "pitch": 46,
              "velocity": 105,
              "position": 26.5,
              "duration": 0.00625
            },
            {
              "pitch": 43,
              "velocity": 82,
              "position": 26.5,
              "duration": 0.00625
            },
            {
              "pitch": 35,
              "velocity": 110,
              "position": 27,
              "duration": 0.00625
            },
            {
              "pitch": 46,
              "velocity": 127,
              "position": 27,
              "duration": 0.00625
            },
            {
              "pitch": 43,
              "velocity": 113,
              "position": 27,
              "duration": 0.00625
            },
            {
              "pitch": 38,
              "velocity": 82,
              "position": 27.46875,
              "duration": 0.00625
            },
            {
              "pitch": 35,
              "velocity": 110,
              "position": 27.5,
              "duration": 0.00625
            },
            {
              "pitch": 38,
              "velocity": 100,
              "position": 27.520833333333332,
              "duration": 0.00625
            },
            {
              "pitch": 35,
              "velocity": 47,
              "position": 28.5,
              "duration": 0.00625
            },
            {
              "pitch": 45,
              "velocity": 55,
              "position": 28.5,
              "duration": 0.00625
            },
            {
              "pitch": 41,
              "velocity": 59,
              "position": 28.5,
              "duration": 0.00625
            },
            {
              "pitch": 35,
              "velocity": 119,
              "position": 29,
              "duration": 0.00625
            },
            {
              "pitch": 45,
              "velocity": 68,
              "position": 29,
              "duration": 0.00625
            },
            {
              "pitch": 41,
              "velocity": 74,
              "position": 29,
              "duration": 0.00625
            },
            {
              "pitch": 35,
              "velocity": 47,
              "position": 29.5,
              "duration": 0.00625
            },
            {
              "pitch": 45,
              "velocity": 67,
              "position": 29.5,
              "duration": 0.00625
            },
            {
              "pitch": 41,
              "velocity": 67,
              "position": 29.5,
              "duration": 0.00625
            },
            {
              "pitch": 35,
              "velocity": 119,
              "position": 30,
              "duration": 0.00625
            },
            {
              "pitch": 45,
              "velocity": 91,
              "position": 30,
              "duration": 0.00625
            },
            {
              "pitch": 41,
              "velocity": 96,
              "position": 30,
              "duration": 0.00625
            },
            {
              "pitch": 35,
              "velocity": 47,
              "position": 30.5,
              "duration": 0.00625
            },
            {
              "pitch": 45,
              "velocity": 74,
              "position": 30.5,
              "duration": 0.00625
            },
            {
              "pitch": 41,
              "velocity": 82,
              "position": 30.5,
              "duration": 0.00625
            },
            {
              "pitch": 35,
              "velocity": 119,
              "position": 31,
              "duration": 0.00625
            },
            {
              "pitch": 38,
              "velocity": 94,
              "position": 31,
              "duration": 0.00625
            },
            {
              "pitch": 38,
              "velocity": 100,
              "position": 31.0625,
              "duration": 0.00625
            },
            {
              "pitch": 49,
              "velocity": 68,
              "position": 31.989583333333332,
              "duration": 0.00625
            }
          ]
        },
        "10": {
          "ctab": {
            "srcChannel": 10,
            "name": "Bass M",
            "accType": "BASS",
            "editable": false,
            "mutedNotes": [],
            "mutedChords": [
              "dim7",
              "dim",
              "minMaj7(9)",
              "minMaj7",
              "min7(11)",
              "min7(9)",
              "min(9)",
              "m7b5",
              "min7",
              "min6",
              "min"
            ],
            "autoStart": false,
            "sourceChordNote": 0,
            "sourceChordType": "Maj",
            "ctb2Low": null,
            "ctb2Main": {
              "ntr": "ROOT_TRANSPOSITION",
              "ntt": "BYPASS",
              "bassOn": false,
              "chordRootUpperLimit": 8,
              "noteLowLimit": 28,
              "noteHighLimit": 51,
              "rtr": "PITCH_SHIFT"
            },
            "ctb2High": null
          },
          "notes": [
            {
              "pitch": 60,
              "velocity": 50,
              "position": 0,
              "duration": 7.35
            },
            {
              "pitch": 60,
              "velocity": 50,
              "position": 7.5,
              "duration": 5.485416666666667
            },
            {
              "pitch": 34,
              "velocity": 55,
              "position": 13.5,
              "duration": 0.5375
            },
            {
              "pitch": 29,
              "velocity": 50,
              "position": 14.5,
              "duration": 0.5375
            },
            {
              "pitch": 24,
              "velocity": 52,
              "position": 15.5,
              "duration": 7.85
            },
            {
              "pitch": 24,
              "velocity": 55,
              "position": 23.5,
              "duration": 3.964583333333333
            },
            {
              "pitch": 22,
              "velocity": 65,
              "position": 27.5,
              "duration": 0.5375
            },
            {
              "pitch": 31,
              "velocity": 50,
              "position": 28.5,
              "duration": 0.48541666666666666
            },
            {
              "pitch": 34,
              "velocity": 70,
              "position": 29,
              "duration": 0.48541666666666666
            },
            {
              "pitch": 36,
              "velocity": 50,
              "position": 29.5,
              "duration": 0.48541666666666666
            },
            {
              "pitch": 39,
              "velocity": 70,
              "position": 30,
              "duration": 0.48541666666666666
            },
            {
              "pitch": 38,
              "velocity": 50,
              "position": 30.5,
              "duration": 0.48541666666666666
            },
            {
              "pitch": 36,
              "velocity": 70,
              "position": 31,
              "duration": 0.9854166666666667
            }
          ]
        },
        "11": {
          "ctab": {
            "srcChannel": 11,
            "name": "StGt M",
            "accType": "CHORD1",
            "editable": false,
            "mutedNotes": [],
            "mutedChords": [
              "dim7",
              "dim",
              "minMaj7(9)",
              "minMaj7",
              "min7(11)",
              "min7(9)",
              "min(9)",
              "m7b5",
              "min7",
              "min6",
              "min"
            ],
            "autoStart": false,
            "sourceChordNote": 0,
            "sourceChordType": "Maj",
            "ctb2Low": null,
            "ctb2Main": {
              "ntr": "ROOT_TRANSPOSITION",
              "ntt": "BYPASS",
              "bassOn": false,
              "chordRootUpperLimit": 3,
              "noteLowLimit": 40,
              "noteHighLimit": 70,
              "rtr": "PITCH_SHIFT"
            },
            "ctb2High": null
          },
          "notes": [
            {
              "pitch": 106,
              "velocity": 96,
              "position": 0.010416666666666666,
              "duration": 0.23541666666666666
            },
            {
              "pitch": 48,
              "velocity": 93,
              "position": 0.010416666666666666,
              "duration": 0.975
            },
            {
              "pitch": 48,
              "velocity": 89,
              "position": 1,
              "duration": 0.475
            },
            {
              "pitch": 48,
              "velocity": 80,
              "position": 1.5,
              "duration": 0.475
            },
            {
              "pitch": 48,
              "velocity": 87,
              "position": 2,
              "duration": 0.475
            },
            {
              "pitch": 48,
              "velocity": 81,
              "position": 2.5,
              "duration": 0.475
            },
            {
              "pitch": 48,
              "velocity": 86,
              "position": 3,
              "duration": 0.475
            },
            {
              "pitch": 48,
              "velocity": 83,
              "position": 3.5,
              "duration": 0.475
            },
            {
              "pitch": 48,
              "velocity": 85,
              "position": 4.010416666666667,
              "duration": 0.475
            },
            {
              "pitch": 48,
              "velocity": 81,
              "position": 4.5,
              "duration": 0.475
            },
            {
              "pitch": 48,
              "velocity": 83,
              "position": 5,
              "duration": 0.475
            },
            {
              "pitch": 48,
              "velocity": 81,
              "position": 5.5,
              "duration": 0.475
            },
            {
              "pitch": 48,
              "velocity": 86,
              "position": 6,
              "duration": 0.475
            },
            {
              "pitch": 48,
              "velocity": 81,
              "position": 6.5,
              "duration": 0.475
            },
            {
              "pitch": 48,
              "velocity": 86,
              "position": 7,
              "duration": 0.475
            },
            {
              "pitch": 55,
              "velocity": 53,
              "position": 0.010416666666666666,
              "duration": 7.475
            },
            {
              "pitch": 79,
              "velocity": 53,
              "position": 0.03125,
              "duration": 7.454166666666667
            },
            {
              "pitch": 72,
              "velocity": 53,
              "position": 0.010416666666666666,
              "duration": 7.475
            },
            {
              "pitch": 76,
              "velocity": 53,
              "position": 0.020833333333333332,
              "duration": 7.475
            },
            {
              "pitch": 104,
              "velocity": 96,
              "position": 7.5,
              "duration": 0.23541666666666666
            },
            {
              "pitch": 48,
              "velocity": 85,
              "position": 7.5,
              "duration": 0.975
            },
            {
              "pitch": 48,
              "velocity": 88,
              "position": 8.5,
              "duration": 0.475
            },
            {
              "pitch": 48,
              "velocity": 85,
              "position": 9,
              "duration": 0.475
            },
            {
              "pitch": 48,
              "velocity": 83,
              "position": 9.5,
              "duration": 0.475
            },
            {
              "pitch": 48,
              "velocity": 84,
              "position": 10,
              "duration": 0.475
            },
            {
              "pitch": 48,
              "velocity": 84,
              "position": 10.5,
              "duration": 0.475
            },
            {
              "pitch": 48,
              "velocity": 84,
              "position": 11,
              "duration": 0.475
            },
            {
              "pitch": 48,
              "velocity": 82,
              "position": 11.5,
              "duration": 0.475
            },
            {
              "pitch": 48,
              "velocity": 85,
              "position": 12.010416666666666,
              "duration": 0.475
            },
            {
              "pitch": 48,
              "velocity": 83,
              "position": 12.5,
              "duration": 0.475
            },
            {
              "pitch": 79,
              "velocity": 53,
              "position": 7.5,
              "duration": 5.975
            },
            {
              "pitch": 77,
              "velocity": 53,
              "position": 7.510416666666667,
              "duration": 5.975
            },
            {
              "pitch": 53,
              "velocity": 53,
              "position": 7.520833333333333,
              "duration": 5.975
            },
            {
              "pitch": 72,
              "velocity": 53,
              "position": 7.53125,
              "duration": 5.964583333333334
            },
            {
              "pitch": 106,
              "velocity": 96,
              "position": 13.5,
              "duration": 0.23541666666666666
            },
            {
              "pitch": 77,
              "velocity": 53,
              "position": 13.5,
              "duration": 0.475
            },
            {
              "pitch": 72,
              "velocity": 53,
              "position": 13.510416666666666,
              "duration": 0.475
            },
            {
              "pitch": 53,
              "velocity": 53,
              "position": 13.520833333333334,
              "duration": 0.475
            },
            {
              "pitch": 82,
              "velocity": 53,
              "position": 13.520833333333334,
              "duration": 0.475
            },
            {
              "pitch": 48,
              "velocity": 87,
              "position": 13,
              "duration": 1.475
            },
            {
              "pitch": 104,
              "velocity": 96,
              "position": 14.5,
              "duration": 0.23541666666666666
            },
            {
              "pitch": 48,
              "velocity": 89,
              "position": 14.5,
              "duration": 0.475
            },
            {
              "pitch": 81,
              "velocity": 53,
              "position": 14.5,
              "duration": 0.48541666666666666
            },
            {
              "pitch": 77,
              "velocity": 53,
              "position": 14.510416666666666,
              "duration": 0.475
            },
            {
              "pitch": 72,
              "velocity": 53,
              "position": 14.520833333333334,
              "duration": 0.475
            },
            {
              "pitch": 53,
              "velocity": 53,
              "position": 14.520833333333334,
              "duration": 0.475
            },
            {
              "pitch": 106,
              "velocity": 96,
              "position": 15.5,
              "duration": 0.23541666666666666
            },
            {
              "pitch": 48,
              "velocity": 89,
              "position": 15.5,
              "duration": 0.975
            },
            {
              "pitch": 48,
              "velocity": 83,
              "position": 16.5,
              "duration": 0.475
            },
            {
              "pitch": 48,
              "velocity": 90,
              "position": 17,
              "duration": 0.475
            },
            {
              "pitch": 48,
              "velocity": 82,
              "position": 17.5,
              "duration": 0.475
            },
            {
              "pitch": 48,
              "velocity": 87,
              "position": 18,
              "duration": 0.475
            },
            {
              "pitch": 48,
              "velocity": 84,
              "position": 18.5,
              "duration": 0.475
            },
            {
              "pitch": 48,
              "velocity": 86,
              "position": 19,
              "duration": 0.475
            },
            {
              "pitch": 48,
              "velocity": 83,
              "position": 19.5,
              "duration": 0.475
            },
            {
              "pitch": 48,
              "velocity": 86,
              "position": 20.010416666666668,
              "duration": 0.475
            },
            {
              "pitch": 48,
              "velocity": 80,
              "position": 20.5,
              "duration": 0.475
            },
            {
              "pitch": 48,
              "velocity": 89,
              "position": 21,
              "duration": 0.475
            },
            {
              "pitch": 48,
              "velocity": 81,
              "position": 21.5,
              "duration": 0.475
            },
            {
              "pitch": 48,
              "velocity": 87,
              "position": 22,
              "duration": 0.475
            },
            {
              "pitch": 48,
              "velocity": 84,
              "position": 22.5,
              "duration": 0.475
            },
            {
              "pitch": 79,
              "velocity": 53,
              "position": 15.5,
              "duration": 7.975
            },
            {
              "pitch": 48,
              "velocity": 88,
              "position": 23,
              "duration": 0.475
            },
            {
              "pitch": 76,
              "velocity": 53,
              "position": 15.510416666666666,
              "duration": 7.975
            },
            {
              "pitch": 72,
              "velocity": 53,
              "position": 15.520833333333334,
              "duration": 7.975
            },
            {
              "pitch": 55,
              "velocity": 53,
              "position": 15.520833333333334,
              "duration": 7.975
            },
            {
              "pitch": 104,
              "velocity": 96,
              "position": 23.5,
              "duration": 0.23541666666666666
            },
            {
              "pitch": 48,
              "velocity": 84,
              "position": 23.5,
              "duration": 0.9645833333333333
            },
            {
              "pitch": 48,
              "velocity": 81,
              "position": 24.5,
              "duration": 0.46458333333333335
            },
            {
              "pitch": 48,
              "velocity": 83,
              "position": 25,
              "duration": 0.46458333333333335
            },
            {
              "pitch": 48,
              "velocity": 84,
              "position": 25.5,
              "duration": 0.46458333333333335
            },
            {
              "pitch": 48,
              "velocity": 86,
              "position": 26,
              "duration": 0.46458333333333335
            },
            {
              "pitch": 48,
              "velocity": 84,
              "position": 26.5,
              "duration": 0.46458333333333335
            },
            {
              "pitch": 79,
              "velocity": 53,
              "position": 23.5,
              "duration": 3.964583333333333
            },
            {
              "pitch": 48,
              "velocity": 84,
              "position": 27,
              "duration": 0.46458333333333335
            },
            {
              "pitch": 77,
              "velocity": 53,
              "position": 23.510416666666668,
              "duration": 3.975
            },
            {
              "pitch": 72,
              "velocity": 53,
              "position": 23.520833333333332,
              "duration": 3.964583333333333
            },
            {
              "pitch": 53,
              "velocity": 53,
              "position": 23.520833333333332,
              "duration": 3.975
            },
            {
              "pitch": 106,
              "velocity": 96,
              "position": 27.5,
              "duration": 0.23541666666666666
            },
            {
              "pitch": 77,
              "velocity": 58,
              "position": 27.5,
              "duration": 0.46458333333333335
            },
            {
              "pitch": 46,
              "velocity": 86,
              "position": 27.5,
              "duration": 0.46458333333333335
            },
            {
              "pitch": 72,
              "velocity": 58,
              "position": 27.50625,
              "duration": 0.475
            },
            {
              "pitch": 53,
              "velocity": 58,
              "position": 27.520833333333332,
              "duration": 0.475
            },
            {
              "pitch": 82,
              "velocity": 58,
              "position": 27.520833333333332,
              "duration": 0.475
            },
            {
              "pitch": 55,
              "velocity": 90,
              "position": 28.5,
              "duration": 0.48541666666666666
            },
            {
              "pitch": 58,
              "velocity": 60,
              "position": 29,
              "duration": 0.48541666666666666
            },
            {
              "pitch": 60,
              "velocity": 100,
              "position": 29.5,
              "duration": 0.48541666666666666
            },
            {
              "pitch": 62,
              "velocity": 120,
              "position": 30,
              "duration": 0.9854166666666667
            },
            {
              "pitch": 60,
              "velocity": 60,
              "position": 31,
              "duration": 0.9854166666666667
            }
          ]
        },
        "12": {
          "ctab": {
            "srcChannel": 12,
            "name": "HiGt M",
            "accType": "CHORD2",
            "editable": false,
            "mutedNotes": [],
            "mutedChords": [
              "dim7",
              "dim",
              "minMaj7(9)",
              "minMaj7",
              "min7(11)",
              "min7(9)",
              "min(9)",
              "m7b5",
              "min7",
              "min6",
              "min"
            ],
            "autoStart": false,
            "sourceChordNote": 0,
            "sourceChordType": "Maj",
            "ctb2Low": null,
            "ctb2Main": {
              "ntr": "ROOT_TRANSPOSITION",
              "ntt": "BYPASS",
              "bassOn": false,
              "chordRootUpperLimit": 8,
              "noteLowLimit": 40,
              "noteHighLimit": 65,
              "rtr": "PITCH_SHIFT"
            },
            "ctb2High": null
          },
          "notes": [
            {
              "pitch": 96,
              "velocity": 75,
              "position": 0.010416666666666666,
              "duration": 0.23541666666666666
            },
            {
              "pitch": 36,
              "velocity": 64,
              "position": 0.010416666666666666,
              "duration": 7.475
            },
            {
              "pitch": 43,
              "velocity": 64,
              "position": 0.010416666666666666,
              "duration": 7.485416666666667
            },
            {
              "pitch": 60,
              "velocity": 64,
              "position": 0.020833333333333332,
              "duration": 7.485416666666667
            },
            {
              "pitch": 64,
              "velocity": 64,
              "position": 0.03125,
              "duration": 7.485416666666667
            },
            {
              "pitch": 67,
              "velocity": 64,
              "position": 0.041666666666666664,
              "duration": 7.485416666666667
            },
            {
              "pitch": 98,
              "velocity": 75,
              "position": 7.510416666666667,
              "duration": 0.23541666666666666
            },
            {
              "pitch": 36,
              "velocity": 64,
              "position": 7.5,
              "duration": 5.985416666666667
            },
            {
              "pitch": 43,
              "velocity": 64,
              "position": 7.510416666666667,
              "duration": 5.985416666666667
            },
            {
              "pitch": 60,
              "velocity": 64,
              "position": 7.520833333333333,
              "duration": 5.985416666666667
            },
            {
              "pitch": 65,
              "velocity": 64,
              "position": 7.53125,
              "duration": 5.985416666666667
            },
            {
              "pitch": 69,
              "velocity": 64,
              "position": 7.541666666666667,
              "duration": 5.985416666666667
            },
            {
              "pitch": 100,
              "velocity": 75,
              "position": 13.510416666666666,
              "duration": 0.23541666666666666
            },
            {
              "pitch": 36,
              "velocity": 64,
              "position": 13.5,
              "duration": 0.48541666666666666
            },
            {
              "pitch": 46,
              "velocity": 64,
              "position": 13.510416666666666,
              "duration": 0.48541666666666666
            },
            {
              "pitch": 62,
              "velocity": 64,
              "position": 13.520833333333334,
              "duration": 0.48541666666666666
            },
            {
              "pitch": 65,
              "velocity": 64,
              "position": 13.53125,
              "duration": 0.48541666666666666
            },
            {
              "pitch": 70,
              "velocity": 64,
              "position": 13.541666666666666,
              "duration": 0.48541666666666666
            },
            {
              "pitch": 98,
              "velocity": 75,
              "position": 14.510416666666666,
              "duration": 0.23541666666666666
            },
            {
              "pitch": 36,
              "velocity": 64,
              "position": 14.5,
              "duration": 0.48541666666666666
            },
            {
              "pitch": 45,
              "velocity": 64,
              "position": 14.510416666666666,
              "duration": 0.48541666666666666
            },
            {
              "pitch": 60,
              "velocity": 64,
              "position": 14.520833333333334,
              "duration": 0.48541666666666666
            },
            {
              "pitch": 65,
              "velocity": 64,
              "position": 14.53125,
              "duration": 0.48541666666666666
            },
            {
              "pitch": 69,
              "velocity": 64,
              "position": 14.541666666666666,
              "duration": 0.48541666666666666
            },
            {
              "pitch": 96,
              "velocity": 75,
              "position": 15.510416666666666,
              "duration": 0.23541666666666666
            },
            {
              "pitch": 36,
              "velocity": 64,
              "position": 15.5,
              "duration": 1.9854166666666666
            },
            {
              "pitch": 96,
              "velocity": 15,
              "position": 17.5,
              "duration": 0.23541666666666666
            },
            {
              "pitch": 36,
              "velocity": 16,
              "position": 17.5,
              "duration": 0.48541666666666666
            },
            {
              "pitch": 100,
              "velocity": 15,
              "position": 18,
              "duration": 0.23541666666666666
            },
            {
              "pitch": 36,
              "velocity": 14,
              "position": 18,
              "duration": 0.48541666666666666
            },
            {
              "pitch": 43,
              "velocity": 64,
              "position": 15.510416666666666,
              "duration": 2.9854166666666666
            },
            {
              "pitch": 96,
              "velocity": 25,
              "position": 18.5,
              "duration": 0.23541666666666666
            },
            {
              "pitch": 36,
              "velocity": 18,
              "position": 18.5,
              "duration": 0.48541666666666666
            },
            {
              "pitch": 100,
              "velocity": 25,
              "position": 19,
              "duration": 0.23541666666666666
            },
            {
              "pitch": 36,
              "velocity": 36,
              "position": 19,
              "duration": 0.48541666666666666
            },
            {
              "pitch": 43,
              "velocity": 20,
              "position": 18.510416666666668,
              "duration": 0.9854166666666667
            },
            {
              "pitch": 96,
              "velocity": 25,
              "position": 19.5,
              "duration": 0.23541666666666666
            },
            {
              "pitch": 36,
              "velocity": 22,
              "position": 19.5,
              "duration": 0.48541666666666666
            },
            {
              "pitch": 43,
              "velocity": 20,
              "position": 19.510416666666668,
              "duration": 0.48541666666666666
            },
            {
              "pitch": 100,
              "velocity": 25,
              "position": 20.010416666666668,
              "duration": 0.23541666666666666
            },
            {
              "pitch": 36,
              "velocity": 28,
              "position": 20.010416666666668,
              "duration": 0.475
            },
            {
              "pitch": 43,
              "velocity": 35,
              "position": 20.010416666666668,
              "duration": 0.48541666666666666
            },
            {
              "pitch": 96,
              "velocity": 25,
              "position": 20.5,
              "duration": 0.23541666666666666
            },
            {
              "pitch": 36,
              "velocity": 22,
              "position": 20.5,
              "duration": 0.48541666666666666
            },
            {
              "pitch": 43,
              "velocity": 27,
              "position": 20.510416666666668,
              "duration": 0.48541666666666666
            },
            {
              "pitch": 100,
              "velocity": 25,
              "position": 21,
              "duration": 0.23541666666666666
            },
            {
              "pitch": 36,
              "velocity": 25,
              "position": 21,
              "duration": 0.48541666666666666
            },
            {
              "pitch": 43,
              "velocity": 32,
              "position": 21.010416666666668,
              "duration": 0.48541666666666666
            },
            {
              "pitch": 96,
              "velocity": 25,
              "position": 21.5,
              "duration": 0.23541666666666666
            },
            {
              "pitch": 36,
              "velocity": 20,
              "position": 21.5,
              "duration": 0.48541666666666666
            },
            {
              "pitch": 43,
              "velocity": 29,
              "position": 21.510416666666668,
              "duration": 0.48541666666666666
            },
            {
              "pitch": 100,
              "velocity": 25,
              "position": 22,
              "duration": 0.23541666666666666
            },
            {
              "pitch": 36,
              "velocity": 23,
              "position": 22,
              "duration": 0.48541666666666666
            },
            {
              "pitch": 43,
              "velocity": 33,
              "position": 22.010416666666668,
              "duration": 0.48541666666666666
            },
            {
              "pitch": 96,
              "velocity": 15,
              "position": 22.5,
              "duration": 0.23541666666666666
            },
            {
              "pitch": 36,
              "velocity": 22,
              "position": 22.5,
              "duration": 0.9854166666666667
            },
            {
              "pitch": 43,
              "velocity": 36,
              "position": 22.510416666666668,
              "duration": 0.9854166666666667
            },
            {
              "pitch": 60,
              "velocity": 64,
              "position": 15.520833333333334,
              "duration": 7.985416666666667
            },
            {
              "pitch": 64,
              "velocity": 64,
              "position": 15.53125,
              "duration": 7.985416666666667
            },
            {
              "pitch": 67,
              "velocity": 64,
              "position": 15.541666666666666,
              "duration": 7.985416666666667
            },
            {
              "pitch": 98,
              "velocity": 65,
              "position": 23.5,
              "duration": 0.23541666666666666
            },
            {
              "pitch": 36,
              "velocity": 64,
              "position": 23.5,
              "duration": 0.9854166666666667
            },
            {
              "pitch": 43,
              "velocity": 64,
              "position": 23.510416666666668,
              "duration": 0.9854166666666667
            },
            {
              "pitch": 96,
              "velocity": 25,
              "position": 24.5,
              "duration": 0.23541666666666666
            },
            {
              "pitch": 43,
              "velocity": 36,
              "position": 24.50625,
              "duration": 0.48541666666666666
            },
            {
              "pitch": 100,
              "velocity": 25,
              "position": 25.010416666666668,
              "duration": 0.23541666666666666
            },
            {
              "pitch": 36,
              "velocity": 23,
              "position": 24.5,
              "duration": 0.9854166666666667
            },
            {
              "pitch": 43,
              "velocity": 38,
              "position": 25.00625,
              "duration": 0.48541666666666666
            },
            {
              "pitch": 96,
              "velocity": 25,
              "position": 25.5,
              "duration": 0.23541666666666666
            },
            {
              "pitch": 43,
              "velocity": 32,
              "position": 25.50625,
              "duration": 0.48541666666666666
            },
            {
              "pitch": 100,
              "velocity": 25,
              "position": 26,
              "duration": 0.23541666666666666
            },
            {
              "pitch": 36,
              "velocity": 21,
              "position": 25.5,
              "duration": 0.9854166666666667
            },
            {
              "pitch": 43,
              "velocity": 47,
              "position": 26.00625,
              "duration": 0.48541666666666666
            },
            {
              "pitch": 96,
              "velocity": 25,
              "position": 26.5,
              "duration": 0.23541666666666666
            },
            {
              "pitch": 43,
              "velocity": 42,
              "position": 26.50625,
              "duration": 0.48541666666666666
            },
            {
              "pitch": 100,
              "velocity": 25,
              "position": 27,
              "duration": 0.23541666666666666
            },
            {
              "pitch": 36,
              "velocity": 23,
              "position": 26.5,
              "duration": 0.9854166666666667
            },
            {
              "pitch": 43,
              "velocity": 35,
              "position": 27.00625,
              "duration": 0.48541666666666666
            },
            {
              "pitch": 60,
              "velocity": 64,
              "position": 23.520833333333332,
              "duration": 3.98125
            },
            {
              "pitch": 65,
              "velocity": 64,
              "position": 23.53125,
              "duration": 3.9854166666666666
            },
            {
              "pitch": 69,
              "velocity": 64,
              "position": 23.541666666666668,
              "duration": 3.9854166666666666
            },
            {
              "pitch": 96,
              "velocity": 70,
              "position": 27.510416666666668,
              "duration": 0.23541666666666666
            },
            {
              "pitch": 34,
              "velocity": 64,
              "position": 27.5,
              "duration": 0.48541666666666666
            },
            {
              "pitch": 41,
              "velocity": 64,
              "position": 27.50625,
              "duration": 0.48541666666666666
            },
            {
              "pitch": 62,
              "velocity": 64,
              "position": 27.520833333333332,
              "duration": 0.48541666666666666
            },
            {
              "pitch": 65,
              "velocity": 64,
              "position": 27.53125,
              "duration": 0.48541666666666666
            },
            {
              "pitch": 70,
              "velocity": 64,
              "position": 27.5375,
              "duration": 0.48541666666666666
            },
            {
              "pitch": 43,
              "velocity": 45,
              "position": 28.5,
              "duration": 0.23541666666666666
            },
            {
              "pitch": 46,
              "velocity": 64,
              "position": 29,
              "duration": 0.48541666666666666
            },
            {
              "pitch": 48,
              "velocity": 52,
              "position": 29.5,
              "duration": 0.48541666666666666
            },
            {
              "pitch": 50,
              "velocity": 60,
              "position": 30,
              "duration": 0.9854166666666667
            },
            {
              "pitch": 48,
              "velocity": 64,
              "position": 31,
              "duration": 0.9854166666666667
            }
          ]
        },
        "13": {
          "ctab": {
            "srcChannel": 13,
            "name": "Organ M",
            "accType": "PAD",
            "editable": false,
            "mutedNotes": [],
            "mutedChords": [
              "dim7",
              "dim",
              "minMaj7(9)",
              "minMaj7",
              "min7(11)",
              "min7(9)",
              "min(9)",
              "m7b5",
              "min7",
              "min6",
              "min"
            ],
            "autoStart": false,
            "sourceChordNote": 0,
            "sourceChordType": "Maj",
            "ctb2Low": null,
            "ctb2Main": {
              "ntr": "ROOT_TRANSPOSITION",
              "ntt": "BYPASS",
              "bassOn": false,
              "chordRootUpperLimit": 4,
              "noteLowLimit": 0,
              "noteHighLimit": 79,
              "rtr": "PITCH_SHIFT"
            },
            "ctb2High": null
          },
          "notes": [
            {
              "pitch": 75,
              "velocity": 101,
              "position": 0.46875,
              "duration": 0.14791666666666667
            },
            {
              "pitch": 76,
              "velocity": 88,
              "position": 0.6729166666666667,
              "duration": 0.3104166666666667
            },
            {
              "pitch": 84,
              "velocity": 92,
              "position": 0.47291666666666665,
              "duration": 3.98125
            },
            {
              "pitch": 79,
              "velocity": 96,
              "position": 1,
              "duration": 3.4541666666666666
            },
            {
              "pitch": 79,
              "velocity": 96,
              "position": 4.49375,
              "duration": 2.9604166666666667
            },
            {
              "pitch": 80,
              "velocity": 94,
              "position": 7.620833333333334,
              "duration": 0.05
            },
            {
              "pitch": 79,
              "velocity": 93,
              "position": 7.572916666666667,
              "duration": 0.13541666666666666
            },
            {
              "pitch": 81,
              "velocity": 95,
              "position": 7.679166666666666,
              "duration": 5.779166666666667
            },
            {
              "pitch": 84,
              "velocity": 92,
              "position": 4.49375,
              "duration": 9.052083333333334
            },
            {
              "pitch": 82,
              "velocity": 93,
              "position": 13.5,
              "duration": 0.5520833333333334
            },
            {
              "pitch": 77,
              "velocity": 93,
              "position": 13.5,
              "duration": 0.5895833333333333
            },
            {
              "pitch": 74,
              "velocity": 93,
              "position": 13.5,
              "duration": 0.5895833333333333
            },
            {
              "pitch": 81,
              "velocity": 97,
              "position": 14.5,
              "duration": 0.4479166666666667
            },
            {
              "pitch": 77,
              "velocity": 100,
              "position": 14.5,
              "duration": 0.4895833333333333
            },
            {
              "pitch": 72,
              "velocity": 100,
              "position": 14.5,
              "duration": 0.5104166666666666
            },
            {
              "pitch": 76,
              "velocity": 33,
              "position": 14.98125,
              "duration": 0.07083333333333333
            },
            {
              "pitch": 74,
              "velocity": 75,
              "position": 15.022916666666667,
              "duration": 0.06041666666666667
            },
            {
              "pitch": 72,
              "velocity": 89,
              "position": 15.058333333333334,
              "duration": 0.04583333333333333
            },
            {
              "pitch": 71,
              "velocity": 81,
              "position": 15.083333333333334,
              "duration": 0.04583333333333333
            },
            {
              "pitch": 69,
              "velocity": 81,
              "position": 15.110416666666667,
              "duration": 0.041666666666666664
            },
            {
              "pitch": 67,
              "velocity": 86,
              "position": 15.135416666666666,
              "duration": 0.04375
            },
            {
              "pitch": 65,
              "velocity": 82,
              "position": 15.160416666666666,
              "duration": 0.04583333333333333
            },
            {
              "pitch": 64,
              "velocity": 84,
              "position": 15.1875,
              "duration": 0.0375
            },
            {
              "pitch": 62,
              "velocity": 84,
              "position": 15.208333333333334,
              "duration": 0.03333333333333333
            },
            {
              "pitch": 60,
              "velocity": 86,
              "position": 15.229166666666666,
              "duration": 0.03125
            },
            {
              "pitch": 75,
              "velocity": 88,
              "position": 15.520833333333334,
              "duration": 0.0875
            },
            {
              "pitch": 76,
              "velocity": 94,
              "position": 15.585416666666667,
              "duration": 1.6208333333333333
            },
            {
              "pitch": 79,
              "velocity": 88,
              "position": 16.010416666666668,
              "duration": 1.1958333333333333
            },
            {
              "pitch": 76,
              "velocity": 94,
              "position": 17.229166666666668,
              "duration": 2.970833333333333
            },
            {
              "pitch": 79,
              "velocity": 88,
              "position": 17.229166666666668,
              "duration": 2.970833333333333
            },
            {
              "pitch": 79,
              "velocity": 88,
              "position": 20.220833333333335,
              "duration": 1.775
            },
            {
              "pitch": 76,
              "velocity": 94,
              "position": 20.220833333333335,
              "duration": 1.84375
            },
            {
              "pitch": 67,
              "velocity": 97,
              "position": 22.520833333333332,
              "duration": 0.03125
            },
            {
              "pitch": 68,
              "velocity": 89,
              "position": 22.510416666666668,
              "duration": 0.10625
            },
            {
              "pitch": 77,
              "velocity": 89,
              "position": 22.572916666666668,
              "duration": 0.325
            },
            {
              "pitch": 72,
              "velocity": 89,
              "position": 22.575,
              "duration": 0.36041666666666666
            },
            {
              "pitch": 81,
              "velocity": 89,
              "position": 22.56875,
              "duration": 0.39166666666666666
            },
            {
              "pitch": 69,
              "velocity": 88,
              "position": 22.585416666666667,
              "duration": 0.44375
            },
            {
              "pitch": 76,
              "velocity": 80,
              "position": 23,
              "duration": 0.19375
            },
            {
              "pitch": 79,
              "velocity": 80,
              "position": 23,
              "duration": 0.25625
            },
            {
              "pitch": 72,
              "velocity": 81,
              "position": 23,
              "duration": 0.25833333333333336
            },
            {
              "pitch": 67,
              "velocity": 80,
              "position": 23,
              "duration": 0.27708333333333335
            },
            {
              "pitch": 42,
              "velocity": 58,
              "position": 27.010416666666668,
              "duration": 0.06041666666666667
            },
            {
              "pitch": 44,
              "velocity": 58,
              "position": 27.010416666666668,
              "duration": 0.1
            },
            {
              "pitch": 46,
              "velocity": 58,
              "position": 27.035416666666666,
              "duration": 0.11041666666666666
            },
            {
              "pitch": 43,
              "velocity": 61,
              "position": 27.110416666666666,
              "duration": 0.052083333333333336
            },
            {
              "pitch": 45,
              "velocity": 62,
              "position": 27.127083333333335,
              "duration": 0.07708333333333334
            },
            {
              "pitch": 49,
              "velocity": 60,
              "position": 27.09375,
              "duration": 0.13125
            },
            {
              "pitch": 81,
              "velocity": 85,
              "position": 23.5,
              "duration": 3.7395833333333335
            },
            {
              "pitch": 72,
              "velocity": 85,
              "position": 23.5,
              "duration": 3.745833333333333
            },
            {
              "pitch": 69,
              "velocity": 85,
              "position": 23.5,
              "duration": 3.745833333333333
            },
            {
              "pitch": 77,
              "velocity": 85,
              "position": 23.5,
              "duration": 3.747916666666667
            },
            {
              "pitch": 47,
              "velocity": 62,
              "position": 27.139583333333334,
              "duration": 0.1125
            },
            {
              "pitch": 51,
              "velocity": 61,
              "position": 27.114583333333332,
              "duration": 0.15833333333333333
            },
            {
              "pitch": 48,
              "velocity": 63,
              "position": 27.170833333333334,
              "duration": 0.125
            },
            {
              "pitch": 54,
              "velocity": 65,
              "position": 27.220833333333335,
              "duration": 0.11041666666666666
            },
            {
              "pitch": 50,
              "velocity": 65,
              "position": 27.214583333333334,
              "duration": 0.11875
            },
            {
              "pitch": 52,
              "velocity": 66,
              "position": 27.252083333333335,
              "duration": 0.12291666666666666
            },
            {
              "pitch": 56,
              "velocity": 67,
              "position": 27.295833333333334,
              "duration": 0.08125
            },
            {
              "pitch": 58,
              "velocity": 68,
              "position": 27.308333333333334,
              "duration": 0.11875
            },
            {
              "pitch": 53,
              "velocity": 67,
              "position": 27.29375,
              "duration": 0.14166666666666666
            },
            {
              "pitch": 61,
              "velocity": 69,
              "position": 27.358333333333334,
              "duration": 0.10416666666666667
            },
            {
              "pitch": 55,
              "velocity": 68,
              "position": 27.325,
              "duration": 0.13958333333333334
            },
            {
              "pitch": 57,
              "velocity": 69,
              "position": 27.345833333333335,
              "duration": 0.14166666666666666
            },
            {
              "pitch": 59,
              "velocity": 70,
              "position": 27.375,
              "duration": 0.13541666666666666
            },
            {
              "pitch": 60,
              "velocity": 71,
              "position": 27.395833333333332,
              "duration": 0.125
            },
            {
              "pitch": 62,
              "velocity": 71,
              "position": 27.4,
              "duration": 0.125
            },
            {
              "pitch": 64,
              "velocity": 72,
              "position": 27.4375,
              "duration": 0.08958333333333333
            },
            {
              "pitch": 77,
              "velocity": 74,
              "position": 27.504166666666666,
              "duration": 0.45625
            },
            {
              "pitch": 72,
              "velocity": 74,
              "position": 27.504166666666666,
              "duration": 0.50625
            },
            {
              "pitch": 65,
              "velocity": 74,
              "position": 27.504166666666666,
              "duration": 0.5166666666666667
            },
            {
              "pitch": 69,
              "velocity": 80,
              "position": 27.947916666666668,
              "duration": 0.09166666666666666
            },
            {
              "pitch": 70,
              "velocity": 74,
              "position": 27.504166666666666,
              "duration": 0.5375
            },
            {
              "pitch": 67,
              "velocity": 79,
              "position": 27.985416666666666,
              "duration": 0.09166666666666666
            },
            {
              "pitch": 65,
              "velocity": 78,
              "position": 28.041666666666668,
              "duration": 0.075
            },
            {
              "pitch": 64,
              "velocity": 77,
              "position": 28.077083333333334,
              "duration": 0.07291666666666667
            },
            {
              "pitch": 62,
              "velocity": 76,
              "position": 28.11875,
              "duration": 0.05625
            },
            {
              "pitch": 60,
              "velocity": 75,
              "position": 28.15,
              "duration": 0.05625
            },
            {
              "pitch": 59,
              "velocity": 74,
              "position": 28.183333333333334,
              "duration": 0.04791666666666667
            },
            {
              "pitch": 57,
              "velocity": 74,
              "position": 28.210416666666667,
              "duration": 0.04583333333333333
            },
            {
              "pitch": 55,
              "velocity": 74,
              "position": 28.239583333333332,
              "duration": 0.041666666666666664
            },
            {
              "pitch": 53,
              "velocity": 73,
              "position": 28.2625,
              "duration": 0.04375
            },
            {
              "pitch": 52,
              "velocity": 72,
              "position": 28.29375,
              "duration": 0.03958333333333333
            },
            {
              "pitch": 50,
              "velocity": 71,
              "position": 28.322916666666668,
              "duration": 0.029166666666666667
            }
          ]
        },
        "14": {
          "ctab": {
            "srcChannel": 14,
            "name": "Tele M",
            "accType": "PHRASE1",
            "editable": false,
            "mutedNotes": [],
            "mutedChords": [
              "dim7",
              "dim",
              "minMaj7(9)",
              "minMaj7",
              "min7(11)",
              "min7(9)",
              "min(9)",
              "m7b5",
              "min7",
              "min6",
              "min"
            ],
            "autoStart": false,
            "sourceChordNote": 0,
            "sourceChordType": "Maj",
            "ctb2Low": null,
            "ctb2Main": {
              "ntr": "ROOT_TRANSPOSITION",
              "ntt": "BYPASS",
              "bassOn": false,
              "chordRootUpperLimit": 3,
              "noteLowLimit": 40,
              "noteHighLimit": 127,
              "rtr": "PITCH_SHIFT"
            },
            "ctb2High": null
          },
          "notes": [
            {
              "pitch": 48,
              "velocity": 78,
              "position": 0,
              "duration": 0.48541666666666666
            },
            {
              "pitch": 48,
              "velocity": 76,
              "position": 0.5,
              "duration": 0.48541666666666666
            },
            {
              "pitch": 48,
              "velocity": 78,
              "position": 1,
              "duration": 0.48541666666666666
            },
            {
              "pitch": 48,
              "velocity": 76,
              "position": 1.5,
              "duration": 0.48541666666666666
            },
            {
              "pitch": 48,
              "velocity": 78,
              "position": 2,
              "duration": 0.48541666666666666
            },
            {
              "pitch": 48,
              "velocity": 76,
              "position": 2.5,
              "duration": 0.48541666666666666
            },
            {
              "pitch": 48,
              "velocity": 78,
              "position": 3,
              "duration": 0.48541666666666666
            },
            {
              "pitch": 48,
              "velocity": 76,
              "position": 3.5,
              "duration": 0.48541666666666666
            },
            {
              "pitch": 48,
              "velocity": 78,
              "position": 4,
              "duration": 0.48541666666666666
            },
            {
              "pitch": 48,
              "velocity": 76,
              "position": 4.5,
              "duration": 0.48541666666666666
            },
            {
              "pitch": 48,
              "velocity": 76,
              "position": 5,
              "duration": 0.48541666666666666
            },
            {
              "pitch": 48,
              "velocity": 76,
              "position": 5.5,
              "duration": 0.48541666666666666
            },
            {
              "pitch": 48,
              "velocity": 78,
              "position": 6,
              "duration": 0.48541666666666666
            },
            {
              "pitch": 48,
              "velocity": 76,
              "position": 6.5,
              "duration": 0.48541666666666666
            },
            {
              "pitch": 48,
              "velocity": 78,
              "position": 7,
              "duration": 0.48541666666666666
            },
            {
              "pitch": 48,
              "velocity": 76,
              "position": 7.5,
              "duration": 0.48541666666666666
            },
            {
              "pitch": 48,
              "velocity": 78,
              "position": 8,
              "duration": 0.48541666666666666
            },
            {
              "pitch": 48,
              "velocity": 76,
              "position": 8.5,
              "duration": 0.48541666666666666
            },
            {
              "pitch": 48,
              "velocity": 78,
              "position": 9,
              "duration": 0.48541666666666666
            },
            {
              "pitch": 48,
              "velocity": 76,
              "position": 9.5,
              "duration": 0.48541666666666666
            },
            {
              "pitch": 48,
              "velocity": 78,
              "position": 10,
              "duration": 0.48541666666666666
            },
            {
              "pitch": 48,
              "velocity": 76,
              "position": 10.5,
              "duration": 0.48541666666666666
            },
            {
              "pitch": 48,
              "velocity": 78,
              "position": 11,
              "duration": 0.4875
            },
            {
              "pitch": 48,
              "velocity": 76,
              "position": 11.5,
              "duration": 0.48541666666666666
            },
            {
              "pitch": 48,
              "velocity": 78,
              "position": 12,
              "duration": 0.48541666666666666
            },
            {
              "pitch": 48,
              "velocity": 76,
              "position": 12.5,
              "duration": 0.48541666666666666
            },
            {
              "pitch": 48,
              "velocity": 78,
              "position": 13,
              "duration": 0.48541666666666666
            },
            {
              "pitch": 48,
              "velocity": 76,
              "position": 13.5,
              "duration": 0.48541666666666666
            },
            {
              "pitch": 48,
              "velocity": 78,
              "position": 14,
              "duration": 0.48541666666666666
            },
            {
              "pitch": 48,
              "velocity": 76,
              "position": 14.5,
              "duration": 0.48541666666666666
            },
            {
              "pitch": 48,
              "velocity": 78,
              "position": 15,
              "duration": 0.48541666666666666
            },
            {
              "pitch": 48,
              "velocity": 24,
              "position": 15.5,
              "duration": 0.9854166666666667
            },
            {
              "pitch": 48,
              "velocity": 76,
              "position": 16.5,
              "duration": 0.48541666666666666
            },
            {
              "pitch": 48,
              "velocity": 76,
              "position": 17,
              "duration": 0.48541666666666666
            },
            {
              "pitch": 55,
              "velocity": 24,
              "position": 15.5,
              "duration": 2.4854166666666666
            },
            {
              "pitch": 48,
              "velocity": 76,
              "position": 17.5,
              "duration": 0.48541666666666666
            },
            {
              "pitch": 48,
              "velocity": 78,
              "position": 18,
              "duration": 0.48541666666666666
            },
            {
              "pitch": 55,
              "velocity": 76,
              "position": 18,
              "duration": 0.48541666666666666
            },
            {
              "pitch": 48,
              "velocity": 76,
              "position": 18.5,
              "duration": 0.48541666666666666
            },
            {
              "pitch": 55,
              "velocity": 76,
              "position": 18.5,
              "duration": 0.48541666666666666
            },
            {
              "pitch": 48,
              "velocity": 79,
              "position": 19,
              "duration": 0.48541666666666666
            },
            {
              "pitch": 55,
              "velocity": 77,
              "position": 19,
              "duration": 0.48541666666666666
            },
            {
              "pitch": 48,
              "velocity": 78,
              "position": 19.5,
              "duration": 0.48541666666666666
            },
            {
              "pitch": 55,
              "velocity": 77,
              "position": 19.5,
              "duration": 0.48541666666666666
            },
            {
              "pitch": 48,
              "velocity": 80,
              "position": 20,
              "duration": 0.48541666666666666
            },
            {
              "pitch": 55,
              "velocity": 76,
              "position": 20,
              "duration": 0.48541666666666666
            },
            {
              "pitch": 48,
              "velocity": 77,
              "position": 20.5,
              "duration": 0.48541666666666666
            },
            {
              "pitch": 55,
              "velocity": 76,
              "position": 20.5,
              "duration": 0.48541666666666666
            },
            {
              "pitch": 48,
              "velocity": 81,
              "position": 21,
              "duration": 0.48541666666666666
            },
            {
              "pitch": 55,
              "velocity": 78,
              "position": 21,
              "duration": 0.48541666666666666
            },
            {
              "pitch": 48,
              "velocity": 76,
              "position": 21.5,
              "duration": 0.48541666666666666
            },
            {
              "pitch": 55,
              "velocity": 77,
              "position": 21.5,
              "duration": 0.48541666666666666
            },
            {
              "pitch": 48,
              "velocity": 82,
              "position": 22,
              "duration": 0.48541666666666666
            },
            {
              "pitch": 55,
              "velocity": 80,
              "position": 22,
              "duration": 0.48541666666666666
            },
            {
              "pitch": 48,
              "velocity": 82,
              "position": 22.5,
              "duration": 0.48541666666666666
            },
            {
              "pitch": 55,
              "velocity": 79,
              "position": 22.5,
              "duration": 0.48541666666666666
            },
            {
              "pitch": 60,
              "velocity": 24,
              "position": 15.5,
              "duration": 7.985416666666667
            },
            {
              "pitch": 55,
              "velocity": 80,
              "position": 23,
              "duration": 0.48541666666666666
            },
            {
              "pitch": 48,
              "velocity": 82,
              "position": 23,
              "duration": 0.48541666666666666
            },
            {
              "pitch": 48,
              "velocity": 20,
              "position": 23.5,
              "duration": 0.9854166666666667
            },
            {
              "pitch": 48,
              "velocity": 9,
              "position": 24.5,
              "duration": 0.48541666666666666
            },
            {
              "pitch": 65,
              "velocity": 22,
              "position": 23.5,
              "duration": 1.9854166666666666
            },
            {
              "pitch": 48,
              "velocity": 13,
              "position": 25,
              "duration": 0.48541666666666666
            },
            {
              "pitch": 48,
              "velocity": 20,
              "position": 25.5,
              "duration": 0.48541666666666666
            },
            {
              "pitch": 65,
              "velocity": 10,
              "position": 25.5,
              "duration": 0.48541666666666666
            },
            {
              "pitch": 48,
              "velocity": 26,
              "position": 26,
              "duration": 0.48541666666666666
            },
            {
              "pitch": 65,
              "velocity": 15,
              "position": 26,
              "duration": 0.48541666666666666
            },
            {
              "pitch": 48,
              "velocity": 32,
              "position": 26.5,
              "duration": 0.48541666666666666
            },
            {
              "pitch": 65,
              "velocity": 20,
              "position": 26.5,
              "duration": 0.48541666666666666
            },
            {
              "pitch": 72,
              "velocity": 22,
              "position": 23.5,
              "duration": 3.9854166666666666
            },
            {
              "pitch": 65,
              "velocity": 25,
              "position": 27,
              "duration": 0.48541666666666666
            },
            {
              "pitch": 48,
              "velocity": 42,
              "position": 27,
              "duration": 0.48541666666666666
            },
            {
              "pitch": 46,
              "velocity": 44,
              "position": 27.5,
              "duration": 0.46458333333333335
            },
            {
              "pitch": 72,
              "velocity": 30,
              "position": 27.5,
              "duration": 0.46458333333333335
            },
            {
              "pitch": 70,
              "velocity": 30,
              "position": 27.5,
              "duration": 0.46458333333333335
            },
            {
              "pitch": 65,
              "velocity": 30,
              "position": 27.5,
              "duration": 0.46458333333333335
            },
            {
              "pitch": 55,
              "velocity": 84,
              "position": 28.5,
              "duration": 0.48541666666666666
            },
            {
              "pitch": 58,
              "velocity": 44,
              "position": 29,
              "duration": 0.48541666666666666
            },
            {
              "pitch": 60,
              "velocity": 100,
              "position": 29.5,
              "duration": 0.48541666666666666
            },
            {
              "pitch": 63,
              "velocity": 120,
              "position": 29.975,
              "duration": 0.5083333333333333
            },
            {
              "pitch": 62,
              "velocity": 100,
              "position": 30.5,
              "duration": 0.48541666666666666
            },
            {
              "pitch": 60,
              "velocity": 36,
              "position": 31,
              "duration": 0.9854166666666667
            }
          ]
        },
        "15": {
          "ctab": {
            "srcChannel": 15,
            "name": "Str M",
            "accType": "PHRASE2",
            "editable": false,
            "mutedNotes": [],
            "mutedChords": [
              "dim7",
              "dim",
              "minMaj7(9)",
              "minMaj7",
              "min7(11)",
              "min7(9)",
              "min(9)",
              "m7b5",
              "min7",
              "min6",
              "min"
            ],
            "autoStart": false,
            "sourceChordNote": 0,
            "sourceChordType": "Maj",
            "ctb2Low": null,
            "ctb2Main": {
              "ntr": "ROOT_TRANSPOSITION",
              "ntt": "BYPASS",
              "bassOn": false,
              "chordRootUpperLimit": 10,
              "noteLowLimit": 54,
              "noteHighLimit": 127,
              "rtr": "PITCH_SHIFT"
            },
            "ctb2High": null
          },
          "notes": [
            {
              "pitch": 43,
              "velocity": 51,
              "position": 0.010416666666666666,
              "duration": 3.975
            },
            {
              "pitch": 52,
              "velocity": 24,
              "position": 0.010416666666666666,
              "duration": 3.975
            },
            {
              "pitch": 48,
              "velocity": 51,
              "position": 0.010416666666666666,
              "duration": 3.975
            },
            {
              "pitch": 52,
              "velocity": 51,
              "position": 4,
              "duration": 3.48125
            },
            {
              "pitch": 48,
              "velocity": 109,
              "position": 4,
              "duration": 3.4854166666666666
            },
            {
              "pitch": 43,
              "velocity": 109,
              "position": 4,
              "duration": 3.4854166666666666
            },
            {
              "pitch": 43,
              "velocity": 51,
              "position": 7.5,
              "duration": 4.485416666666667
            },
            {
              "pitch": 48,
              "velocity": 51,
              "position": 7.5,
              "duration": 4.485416666666667
            },
            {
              "pitch": 53,
              "velocity": 51,
              "position": 7.5,
              "duration": 7.98125
            },
            {
              "pitch": 48,
              "velocity": 109,
              "position": 12,
              "duration": 3.4854166666666666
            },
            {
              "pitch": 43,
              "velocity": 109,
              "position": 12,
              "duration": 3.4854166666666666
            },
            {
              "pitch": 48,
              "velocity": 51,
              "position": 15.5,
              "duration": 4.485416666666667
            },
            {
              "pitch": 43,
              "velocity": 51,
              "position": 15.5,
              "duration": 4.485416666666667
            },
            {
              "pitch": 52,
              "velocity": 51,
              "position": 15.5,
              "duration": 7.98125
            },
            {
              "pitch": 48,
              "velocity": 109,
              "position": 20,
              "duration": 3.4854166666666666
            },
            {
              "pitch": 43,
              "velocity": 109,
              "position": 20,
              "duration": 3.4854166666666666
            },
            {
              "pitch": 43,
              "velocity": 51,
              "position": 23.5,
              "duration": 4.485416666666667
            },
            {
              "pitch": 53,
              "velocity": 51,
              "position": 23.5,
              "duration": 4.485416666666667
            },
            {
              "pitch": 48,
              "velocity": 51,
              "position": 23.5,
              "duration": 4.485416666666667
            }
          ]
        }
      }
    },
    "Intro_C": {
      "type": "Intro_C",
      "sizeInBeats": 36,
      "channels": {
        "1": {
          "ctab": {
            "srcChannel": 1,
            "name": "Bass m",
            "accType": "BASS",
            "editable": false,
            "mutedNotes": [],
            "mutedChords": [
              "1+2+5",
              "sus4",
              "1+5",
              "1+8",
              "7aug",
              "Maj7aug",
              "7(#9)",
              "7(b13)",
              "7(b9)",
              "7(13)",
              "7#11",
              "7(9)",
              "7b5",
              "7sus4",
              "7th",
              "aug",
              "Maj6(9)",
              "Maj7(9)",
              "Maj(9)",
              "Maj7#11",
              "Maj7",
              "Maj6",
              "Maj"
            ],
            "autoStart": false,
            "sourceChordNote": 0,
            "sourceChordType": "min",
            "ctb2Low": null,
            "ctb2Main": {
              "ntr": "ROOT_TRANSPOSITION",
              "ntt": "BYPASS",
              "bassOn": false,
              "chordRootUpperLimit": 8,
              "noteLowLimit": 28,
              "noteHighLimit": 51,
              "rtr": "PITCH_SHIFT"
            },
            "ctb2High": null
          },
          "notes": [
            {
              "pitch": 24,
              "velocity": 70,
              "position": 4,
              "duration": 0.43333333333333335
            },
            {
              "pitch": 24,
              "velocity": 50,
              "position": 4.5,
              "duration": 0.43333333333333335
            },
            {
              "pitch": 24,
              "velocity": 70,
              "position": 5,
              "duration": 0.43333333333333335
            },
            {
              "pitch": 24,
              "velocity": 50,
              "position": 5.5,
              "duration": 0.43333333333333335
            },
            {
              "pitch": 24,
              "velocity": 70,
              "position": 6,
              "duration": 0.43333333333333335
            },
            {
              "pitch": 24,
              "velocity": 50,
              "position": 6.5,
              "duration": 0.43333333333333335
            },
            {
              "pitch": 24,
              "velocity": 70,
              "position": 7,
              "duration": 0.43333333333333335
            },
            {
              "pitch": 24,
              "velocity": 50,
              "position": 7.5,
              "duration": 0.43333333333333335
            },
            {
              "pitch": 26,
              "velocity": 70,
              "position": 8,
              "duration": 0.43333333333333335
            },
            {
              "pitch": 26,
              "velocity": 50,
              "position": 8.5,
              "duration": 0.43333333333333335
            },
            {
              "pitch": 26,
              "velocity": 70,
              "position": 9,
              "duration": 0.43333333333333335
            },
            {
              "pitch": 26,
              "velocity": 50,
              "position": 9.5,
              "duration": 0.43333333333333335
            },
            {
              "pitch": 26,
              "velocity": 70,
              "position": 10,
              "duration": 0.43333333333333335
            },
            {
              "pitch": 26,
              "velocity": 50,
              "position": 10.5,
              "duration": 0.43333333333333335
            },
            {
              "pitch": 26,
              "velocity": 70,
              "position": 11,
              "duration": 0.43333333333333335
            },
            {
              "pitch": 26,
              "velocity": 50,
              "position": 11.5,
              "duration": 0.43333333333333335
            },
            {
              "pitch": 27,
              "velocity": 70,
              "position": 12,
              "duration": 0.43333333333333335
            },
            {
              "pitch": 27,
              "velocity": 50,
              "position": 12.5,
              "duration": 0.43333333333333335
            },
            {
              "pitch": 27,
              "velocity": 70,
              "position": 13,
              "duration": 0.43333333333333335
            },
            {
              "pitch": 27,
              "velocity": 50,
              "position": 13.5,
              "duration": 0.43333333333333335
            },
            {
              "pitch": 27,
              "velocity": 70,
              "position": 14,
              "duration": 0.43333333333333335
            },
            {
              "pitch": 27,
              "velocity": 50,
              "position": 14.5,
              "duration": 0.43333333333333335
            },
            {
              "pitch": 27,
              "velocity": 70,
              "position": 15,
              "duration": 0.43333333333333335
            },
            {
              "pitch": 27,
              "velocity": 50,
              "position": 15.5,
              "duration": 0.43333333333333335
            },
            {
              "pitch": 29,
              "velocity": 70,
              "position": 16,
              "duration": 0.43333333333333335
            },
            {
              "pitch": 29,
              "velocity": 50,
              "position": 16.5,
              "duration": 0.43333333333333335
            },
            {
              "pitch": 29,
              "velocity": 70,
              "position": 17,
              "duration": 0.43333333333333335
            },
            {
              "pitch": 29,
              "velocity": 50,
              "position": 17.5,
              "duration": 0.43333333333333335
            },
            {
              "pitch": 29,
              "velocity": 70,
              "position": 18,
              "duration": 0.43333333333333335
            },
            {
              "pitch": 29,
              "velocity": 50,
              "position": 18.5,
              "duration": 0.43333333333333335
            },
            {
              "pitch": 27,
              "velocity": 70,
              "position": 19,
              "duration": 0.43333333333333335
            },
            {
              "pitch": 26,
              "velocity": 50,
              "position": 19.5,
              "duration": 0.43333333333333335
            },
            {
              "pitch": 24,
              "velocity": 70,
              "position": 20,
              "duration": 0.43333333333333335
            },
            {
              "pitch": 24,
              "velocity": 50,
              "position": 20.5,
              "duration": 0.43333333333333335
            },
            {
              "pitch": 24,
              "velocity": 70,
              "position": 21,
              "duration": 0.43333333333333335
            },
            {
              "pitch": 24,
              "velocity": 50,
              "position": 21.5,
              "duration": 0.43333333333333335
            },
            {
              "pitch": 24,
              "velocity": 70,
              "position": 22,
              "duration": 0.43333333333333335
            },
            {
              "pitch": 24,
              "velocity": 50,
              "position": 22.5,
              "duration": 0.43333333333333335
            },
            {
              "pitch": 24,
              "velocity": 70,
              "position": 23,
              "duration": 0.43333333333333335
            },
            {
              "pitch": 24,
              "velocity": 50,
              "position": 23.5,
              "duration": 0.43333333333333335
            },
            {
              "pitch": 26,
              "velocity": 70,
              "position": 24,
              "duration": 0.43333333333333335
            },
            {
              "pitch": 26,
              "velocity": 50,
              "position": 24.5,
              "duration": 0.43333333333333335
            },
            {
              "pitch": 26,
              "velocity": 70,
              "position": 25,
              "duration": 0.43333333333333335
            },
            {
              "pitch": 26,
              "velocity": 50,
              "position": 25.5,
              "duration": 0.43333333333333335
            },
            {
              "pitch": 26,
              "velocity": 70,
              "position": 26,
              "duration": 0.43333333333333335
            },
            {
              "pitch": 26,
              "velocity": 50,
              "position": 26.5,
              "duration": 0.43333333333333335
            },
            {
              "pitch": 26,
              "velocity": 70,
              "position": 27,
              "duration": 0.43333333333333335
            },
            {
              "pitch": 26,
              "velocity": 50,
              "position": 27.5,
              "duration": 0.43333333333333335
            },
            {
              "pitch": 27,
              "velocity": 70,
              "position": 28,
              "duration": 0.43333333333333335
            },
            {
              "pitch": 27,
              "velocity": 50,
              "position": 28.5,
              "duration": 0.43333333333333335
            },
            {
              "pitch": 27,
              "velocity": 70,
              "position": 29,
              "duration": 0.43333333333333335
            },
            {
              "pitch": 27,
              "velocity": 50,
              "position": 29.5,
              "duration": 0.43333333333333335
            },
            {
              "pitch": 27,
              "velocity": 70,
              "position": 30,
              "duration": 0.43333333333333335
            },
            {
              "pitch": 27,
              "velocity": 50,
              "position": 30.5,
              "duration": 0.43333333333333335
            },
            {
              "pitch": 27,
              "velocity": 70,
              "position": 31,
              "duration": 0.43333333333333335
            },
            {
              "pitch": 31,
              "velocity": 50,
              "position": 31.5,
              "duration": 0.9333333333333333
            },
            {
              "pitch": 31,
              "velocity": 50,
              "position": 32.5,
              "duration": 0.43333333333333335
            },
            {
              "pitch": 31,
              "velocity": 70,
              "position": 33,
              "duration": 0.43333333333333335
            },
            {
              "pitch": 31,
              "velocity": 50,
              "position": 33.5,
              "duration": 0.43333333333333335
            },
            {
              "pitch": 31,
              "velocity": 70,
              "position": 34,
              "duration": 0.43333333333333335
            },
            {
              "pitch": 31,
              "velocity": 50,
              "position": 34.5,
              "duration": 0.43333333333333335
            },
            {
              "pitch": 31,
              "velocity": 70,
              "position": 35,
              "duration": 0.43333333333333335
            },
            {
              "pitch": 31,
              "velocity": 50,
              "position": 35.5,
              "duration": 0.43333333333333335
            }
          ]
        },
        "2": {
          "ctab": {
            "srcChannel": 2,
            "name": "StGt m",
            "accType": "CHORD1",
            "editable": false,
            "mutedNotes": [],
            "mutedChords": [
              "1+2+5",
              "sus4",
              "1+5",
              "1+8",
              "7aug",
              "Maj7aug",
              "7(#9)",
              "7(b13)",
              "7(b9)",
              "7(13)",
              "7#11",
              "7(9)",
              "7b5",
              "7sus4",
              "7th",
              "aug",
              "Maj6(9)",
              "Maj7(9)",
              "Maj(9)",
              "Maj7#11",
              "Maj7",
              "Maj6",
              "Maj"
            ],
            "autoStart": false,
            "sourceChordNote": 0,
            "sourceChordType": "min",
            "ctb2Low": null,
            "ctb2Main": {
              "ntr": "ROOT_TRANSPOSITION",
              "ntt": "BYPASS",
              "bassOn": false,
              "chordRootUpperLimit": 3,
              "noteLowLimit": 40,
              "noteHighLimit": 70,
              "rtr": "PITCH_SHIFT"
            },
            "ctb2High": null
          },
          "notes": [
            {
              "pitch": 111,
              "velocity": 98,
              "position": 4.010416666666667,
              "duration": 0.23541666666666666
            },
            {
              "pitch": 48,
              "velocity": 42,
              "position": 4.010416666666667,
              "duration": 0.975
            },
            {
              "pitch": 55,
              "velocity": 38,
              "position": 4.010416666666667,
              "duration": 0.9854166666666667
            },
            {
              "pitch": 72,
              "velocity": 45,
              "position": 4.03125,
              "duration": 0.9854166666666667
            },
            {
              "pitch": 75,
              "velocity": 36,
              "position": 4.03125,
              "duration": 0.9958333333333333
            },
            {
              "pitch": 79,
              "velocity": 36,
              "position": 4.041666666666667,
              "duration": 0.9958333333333333
            },
            {
              "pitch": 111,
              "velocity": 103,
              "position": 5,
              "duration": 0.23541666666666666
            },
            {
              "pitch": 48,
              "velocity": 47,
              "position": 5,
              "duration": 0.9854166666666667
            },
            {
              "pitch": 79,
              "velocity": 50,
              "position": 5.052083333333333,
              "duration": 0.9333333333333333
            },
            {
              "pitch": 72,
              "velocity": 50,
              "position": 5.03125,
              "duration": 0.9645833333333333
            },
            {
              "pitch": 75,
              "velocity": 50,
              "position": 5.041666666666667,
              "duration": 0.9645833333333333
            },
            {
              "pitch": 55,
              "velocity": 42,
              "position": 5.010416666666667,
              "duration": 1.00625
            },
            {
              "pitch": 109,
              "velocity": 88,
              "position": 6,
              "duration": 0.23541666666666666
            },
            {
              "pitch": 79,
              "velocity": 34,
              "position": 6.020833333333333,
              "duration": 0.46458333333333335
            },
            {
              "pitch": 48,
              "velocity": 25,
              "position": 6.052083333333333,
              "duration": 0.43333333333333335
            },
            {
              "pitch": 75,
              "velocity": 34,
              "position": 6.020833333333333,
              "duration": 0.475
            },
            {
              "pitch": 55,
              "velocity": 38,
              "position": 6.03125,
              "duration": 0.475
            },
            {
              "pitch": 72,
              "velocity": 34,
              "position": 6.010416666666667,
              "duration": 0.49583333333333335
            },
            {
              "pitch": 111,
              "velocity": 98,
              "position": 6.5,
              "duration": 0.23541666666666666
            },
            {
              "pitch": 79,
              "velocity": 50,
              "position": 6.5,
              "duration": 0.48541666666666666
            },
            {
              "pitch": 72,
              "velocity": 50,
              "position": 6.520833333333333,
              "duration": 0.46458333333333335
            },
            {
              "pitch": 75,
              "velocity": 50,
              "position": 6.510416666666667,
              "duration": 0.48541666666666666
            },
            {
              "pitch": 48,
              "velocity": 47,
              "position": 6.50625,
              "duration": 0.49583333333333335
            },
            {
              "pitch": 55,
              "velocity": 52,
              "position": 6.520833333333333,
              "duration": 0.48541666666666666
            },
            {
              "pitch": 109,
              "velocity": 83,
              "position": 7,
              "duration": 0.23541666666666666
            },
            {
              "pitch": 79,
              "velocity": 30,
              "position": 7.010416666666667,
              "duration": 0.475
            },
            {
              "pitch": 48,
              "velocity": 30,
              "position": 7.052083333333333,
              "duration": 0.43333333333333335
            },
            {
              "pitch": 75,
              "velocity": 36,
              "position": 7.010416666666667,
              "duration": 0.48541666666666666
            },
            {
              "pitch": 55,
              "velocity": 38,
              "position": 7.020833333333333,
              "duration": 0.475
            },
            {
              "pitch": 72,
              "velocity": 42,
              "position": 7,
              "duration": 0.50625
            },
            {
              "pitch": 111,
              "velocity": 98,
              "position": 7.5,
              "duration": 0.23541666666666666
            },
            {
              "pitch": 79,
              "velocity": 44,
              "position": 7.5,
              "duration": 0.9854166666666667
            },
            {
              "pitch": 77,
              "velocity": 50,
              "position": 7.510416666666667,
              "duration": 0.975
            },
            {
              "pitch": 50,
              "velocity": 42,
              "position": 7.510416666666667,
              "duration": 0.975
            },
            {
              "pitch": 72,
              "velocity": 50,
              "position": 7.520833333333333,
              "duration": 0.975
            },
            {
              "pitch": 60,
              "velocity": 36,
              "position": 7.510416666666667,
              "duration": 0.9958333333333333
            },
            {
              "pitch": 106,
              "velocity": 46,
              "position": 8.5,
              "duration": 0.23541666666666666
            },
            {
              "pitch": 79,
              "velocity": 44,
              "position": 8.5,
              "duration": 0.48541666666666666
            },
            {
              "pitch": 72,
              "velocity": 30,
              "position": 8.510416666666666,
              "duration": 0.48541666666666666
            },
            {
              "pitch": 77,
              "velocity": 30,
              "position": 8.5,
              "duration": 0.49583333333333335
            },
            {
              "pitch": 50,
              "velocity": 45,
              "position": 8.50625,
              "duration": 0.49583333333333335
            },
            {
              "pitch": 60,
              "velocity": 50,
              "position": 8.520833333333334,
              "duration": 0.48541666666666666
            },
            {
              "pitch": 109,
              "velocity": 93,
              "position": 9,
              "duration": 0.23541666666666666
            },
            {
              "pitch": 79,
              "velocity": 32,
              "position": 9,
              "duration": 0.48541666666666666
            },
            {
              "pitch": 50,
              "velocity": 32,
              "position": 9.052083333333334,
              "duration": 0.43333333333333335
            },
            {
              "pitch": 60,
              "velocity": 40,
              "position": 9.020833333333334,
              "duration": 0.475
            },
            {
              "pitch": 77,
              "velocity": 23,
              "position": 9.020833333333334,
              "duration": 0.475
            },
            {
              "pitch": 72,
              "velocity": 33,
              "position": 9.010416666666666,
              "duration": 0.49583333333333335
            },
            {
              "pitch": 111,
              "velocity": 98,
              "position": 9.5,
              "duration": 0.23541666666666666
            },
            {
              "pitch": 79,
              "velocity": 48,
              "position": 9.5,
              "duration": 0.9854166666666667
            },
            {
              "pitch": 50,
              "velocity": 45,
              "position": 9.552083333333334,
              "duration": 0.9333333333333333
            },
            {
              "pitch": 77,
              "velocity": 50,
              "position": 9.510416666666666,
              "duration": 0.9854166666666667
            },
            {
              "pitch": 72,
              "velocity": 50,
              "position": 9.520833333333334,
              "duration": 0.9854166666666667
            },
            {
              "pitch": 60,
              "velocity": 40,
              "position": 9.541666666666666,
              "duration": 0.9854166666666667
            },
            {
              "pitch": 111,
              "velocity": 103,
              "position": 10.5,
              "duration": 0.23541666666666666
            },
            {
              "pitch": 72,
              "velocity": 50,
              "position": 10.520833333333334,
              "duration": 0.46458333333333335
            },
            {
              "pitch": 60,
              "velocity": 40,
              "position": 10.541666666666666,
              "duration": 0.44375
            },
            {
              "pitch": 50,
              "velocity": 45,
              "position": 10.552083333333334,
              "duration": 0.43333333333333335
            },
            {
              "pitch": 77,
              "velocity": 50,
              "position": 10.510416666666666,
              "duration": 0.48541666666666666
            },
            {
              "pitch": 79,
              "velocity": 50,
              "position": 10.5,
              "duration": 0.49583333333333335
            },
            {
              "pitch": 109,
              "velocity": 88,
              "position": 11,
              "duration": 0.23541666666666666
            },
            {
              "pitch": 50,
              "velocity": 25,
              "position": 11.052083333333334,
              "duration": 0.43333333333333335
            },
            {
              "pitch": 72,
              "velocity": 30,
              "position": 11,
              "duration": 0.48541666666666666
            },
            {
              "pitch": 79,
              "velocity": 30,
              "position": 11.010416666666666,
              "duration": 0.475
            },
            {
              "pitch": 77,
              "velocity": 30,
              "position": 11.010416666666666,
              "duration": 0.475
            },
            {
              "pitch": 60,
              "velocity": 38,
              "position": 11.03125,
              "duration": 0.475
            },
            {
              "pitch": 106,
              "velocity": 66,
              "position": 11.5,
              "duration": 0.23541666666666666
            },
            {
              "pitch": 79,
              "velocity": 44,
              "position": 11.5,
              "duration": 0.48541666666666666
            },
            {
              "pitch": 60,
              "velocity": 52,
              "position": 11.520833333333334,
              "duration": 0.475
            },
            {
              "pitch": 77,
              "velocity": 30,
              "position": 11.5,
              "duration": 0.49583333333333335
            },
            {
              "pitch": 50,
              "velocity": 47,
              "position": 11.50625,
              "duration": 0.49583333333333335
            },
            {
              "pitch": 72,
              "velocity": 40,
              "position": 11.5,
              "duration": 0.50625
            },
            {
              "pitch": 111,
              "velocity": 98,
              "position": 12.010416666666666,
              "duration": 0.23541666666666666
            },
            {
              "pitch": 51,
              "velocity": 42,
              "position": 12.010416666666666,
              "duration": 0.975
            },
            {
              "pitch": 60,
              "velocity": 38,
              "position": 12.010416666666666,
              "duration": 0.9854166666666667
            },
            {
              "pitch": 72,
              "velocity": 45,
              "position": 12.03125,
              "duration": 0.9854166666666667
            },
            {
              "pitch": 75,
              "velocity": 38,
              "position": 12.03125,
              "duration": 0.9958333333333333
            },
            {
              "pitch": 79,
              "velocity": 38,
              "position": 12.041666666666666,
              "duration": 0.9958333333333333
            },
            {
              "pitch": 111,
              "velocity": 103,
              "position": 13,
              "duration": 0.23541666666666666
            },
            {
              "pitch": 51,
              "velocity": 47,
              "position": 13,
              "duration": 0.9854166666666667
            },
            {
              "pitch": 79,
              "velocity": 50,
              "position": 13.052083333333334,
              "duration": 0.9333333333333333
            },
            {
              "pitch": 72,
              "velocity": 50,
              "position": 13.03125,
              "duration": 0.9645833333333333
            },
            {
              "pitch": 75,
              "velocity": 50,
              "position": 13.041666666666666,
              "duration": 0.9645833333333333
            },
            {
              "pitch": 60,
              "velocity": 42,
              "position": 13.010416666666666,
              "duration": 1.00625
            },
            {
              "pitch": 109,
              "velocity": 88,
              "position": 14,
              "duration": 0.23541666666666666
            },
            {
              "pitch": 79,
              "velocity": 34,
              "position": 14.020833333333334,
              "duration": 0.46458333333333335
            },
            {
              "pitch": 51,
              "velocity": 25,
              "position": 14.052083333333334,
              "duration": 0.43333333333333335
            },
            {
              "pitch": 75,
              "velocity": 34,
              "position": 14.020833333333334,
              "duration": 0.475
            },
            {
              "pitch": 60,
              "velocity": 38,
              "position": 14.03125,
              "duration": 0.475
            },
            {
              "pitch": 72,
              "velocity": 34,
              "position": 14.010416666666666,
              "duration": 0.49583333333333335
            },
            {
              "pitch": 111,
              "velocity": 98,
              "position": 14.5,
              "duration": 0.23541666666666666
            },
            {
              "pitch": 79,
              "velocity": 50,
              "position": 14.5,
              "duration": 0.48541666666666666
            },
            {
              "pitch": 72,
              "velocity": 50,
              "position": 14.520833333333334,
              "duration": 0.46458333333333335
            },
            {
              "pitch": 75,
              "velocity": 50,
              "position": 14.510416666666666,
              "duration": 0.48541666666666666
            },
            {
              "pitch": 51,
              "velocity": 47,
              "position": 14.50625,
              "duration": 0.49583333333333335
            },
            {
              "pitch": 60,
              "velocity": 52,
              "position": 14.520833333333334,
              "duration": 0.48541666666666666
            },
            {
              "pitch": 109,
              "velocity": 83,
              "position": 15,
              "duration": 0.23541666666666666
            },
            {
              "pitch": 79,
              "velocity": 30,
              "position": 15.010416666666666,
              "duration": 0.475
            },
            {
              "pitch": 51,
              "velocity": 30,
              "position": 15.052083333333334,
              "duration": 0.43333333333333335
            },
            {
              "pitch": 75,
              "velocity": 36,
              "position": 15.010416666666666,
              "duration": 0.48541666666666666
            },
            {
              "pitch": 60,
              "velocity": 38,
              "position": 15.020833333333334,
              "duration": 0.475
            },
            {
              "pitch": 72,
              "velocity": 42,
              "position": 15,
              "duration": 0.50625
            },
            {
              "pitch": 111,
              "velocity": 98,
              "position": 15.5,
              "duration": 0.23541666666666666
            },
            {
              "pitch": 79,
              "velocity": 44,
              "position": 15.5,
              "duration": 0.9854166666666667
            },
            {
              "pitch": 77,
              "velocity": 50,
              "position": 15.510416666666666,
              "duration": 0.975
            },
            {
              "pitch": 53,
              "velocity": 42,
              "position": 15.510416666666666,
              "duration": 0.975
            },
            {
              "pitch": 72,
              "velocity": 50,
              "position": 15.520833333333334,
              "duration": 0.975
            },
            {
              "pitch": 60,
              "velocity": 36,
              "position": 15.510416666666666,
              "duration": 0.9958333333333333
            },
            {
              "pitch": 106,
              "velocity": 46,
              "position": 16.5,
              "duration": 0.23541666666666666
            },
            {
              "pitch": 79,
              "velocity": 44,
              "position": 16.5,
              "duration": 0.48541666666666666
            },
            {
              "pitch": 72,
              "velocity": 30,
              "position": 16.510416666666668,
              "duration": 0.48541666666666666
            },
            {
              "pitch": 77,
              "velocity": 30,
              "position": 16.5,
              "duration": 0.49583333333333335
            },
            {
              "pitch": 53,
              "velocity": 45,
              "position": 16.50625,
              "duration": 0.49583333333333335
            },
            {
              "pitch": 60,
              "velocity": 50,
              "position": 16.520833333333332,
              "duration": 0.48541666666666666
            },
            {
              "pitch": 109,
              "velocity": 93,
              "position": 17,
              "duration": 0.23541666666666666
            },
            {
              "pitch": 79,
              "velocity": 32,
              "position": 17,
              "duration": 0.48541666666666666
            },
            {
              "pitch": 53,
              "velocity": 32,
              "position": 17.052083333333332,
              "duration": 0.43333333333333335
            },
            {
              "pitch": 60,
              "velocity": 40,
              "position": 17.020833333333332,
              "duration": 0.475
            },
            {
              "pitch": 77,
              "velocity": 23,
              "position": 17.020833333333332,
              "duration": 0.475
            },
            {
              "pitch": 72,
              "velocity": 33,
              "position": 17.010416666666668,
              "duration": 0.49583333333333335
            },
            {
              "pitch": 111,
              "velocity": 103,
              "position": 17.5,
              "duration": 0.23541666666666666
            },
            {
              "pitch": 79,
              "velocity": 48,
              "position": 17.5,
              "duration": 0.9854166666666667
            },
            {
              "pitch": 53,
              "velocity": 45,
              "position": 17.552083333333332,
              "duration": 0.9333333333333333
            },
            {
              "pitch": 77,
              "velocity": 50,
              "position": 17.510416666666668,
              "duration": 0.9854166666666667
            },
            {
              "pitch": 72,
              "velocity": 50,
              "position": 17.520833333333332,
              "duration": 0.9854166666666667
            },
            {
              "pitch": 60,
              "velocity": 40,
              "position": 17.541666666666668,
              "duration": 0.9854166666666667
            },
            {
              "pitch": 106,
              "velocity": 61,
              "position": 18.5,
              "duration": 0.23541666666666666
            },
            {
              "pitch": 72,
              "velocity": 50,
              "position": 18.520833333333332,
              "duration": 0.46458333333333335
            },
            {
              "pitch": 60,
              "velocity": 40,
              "position": 18.541666666666668,
              "duration": 0.44375
            },
            {
              "pitch": 53,
              "velocity": 45,
              "position": 18.552083333333332,
              "duration": 0.43333333333333335
            },
            {
              "pitch": 77,
              "velocity": 50,
              "position": 18.510416666666668,
              "duration": 0.48541666666666666
            },
            {
              "pitch": 79,
              "velocity": 50,
              "position": 18.5,
              "duration": 0.49583333333333335
            },
            {
              "pitch": 111,
              "velocity": 98,
              "position": 19,
              "duration": 0.23541666666666666
            },
            {
              "pitch": 53,
              "velocity": 25,
              "position": 19.052083333333332,
              "duration": 0.43333333333333335
            },
            {
              "pitch": 72,
              "velocity": 30,
              "position": 19,
              "duration": 0.48541666666666666
            },
            {
              "pitch": 79,
              "velocity": 30,
              "position": 19.010416666666668,
              "duration": 0.475
            },
            {
              "pitch": 77,
              "velocity": 30,
              "position": 19.010416666666668,
              "duration": 0.475
            },
            {
              "pitch": 60,
              "velocity": 38,
              "position": 19.03125,
              "duration": 0.475
            },
            {
              "pitch": 106,
              "velocity": 46,
              "position": 19.5,
              "duration": 0.23541666666666666
            },
            {
              "pitch": 79,
              "velocity": 44,
              "position": 19.5,
              "duration": 0.48541666666666666
            },
            {
              "pitch": 77,
              "velocity": 30,
              "position": 19.5,
              "duration": 0.49583333333333335
            },
            {
              "pitch": 53,
              "velocity": 47,
              "position": 19.50625,
              "duration": 0.49583333333333335
            },
            {
              "pitch": 60,
              "velocity": 52,
              "position": 19.520833333333332,
              "duration": 0.48541666666666666
            },
            {
              "pitch": 72,
              "velocity": 40,
              "position": 19.5,
              "duration": 0.50625
            },
            {
              "pitch": 111,
              "velocity": 98,
              "position": 20.010416666666668,
              "duration": 0.23541666666666666
            },
            {
              "pitch": 48,
              "velocity": 42,
              "position": 20.010416666666668,
              "duration": 0.975
            },
            {
              "pitch": 55,
              "velocity": 38,
              "position": 20.010416666666668,
              "duration": 0.9854166666666667
            },
            {
              "pitch": 72,
              "velocity": 45,
              "position": 20.020833333333332,
              "duration": 0.9958333333333333
            },
            {
              "pitch": 75,
              "velocity": 45,
              "position": 20.03125,
              "duration": 0.9958333333333333
            },
            {
              "pitch": 79,
              "velocity": 45,
              "position": 20.041666666666668,
              "duration": 0.9958333333333333
            },
            {
              "pitch": 111,
              "velocity": 103,
              "position": 21,
              "duration": 0.23541666666666666
            },
            {
              "pitch": 48,
              "velocity": 47,
              "position": 21,
              "duration": 0.9854166666666667
            },
            {
              "pitch": 79,
              "velocity": 50,
              "position": 21.052083333333332,
              "duration": 0.9333333333333333
            },
            {
              "pitch": 72,
              "velocity": 50,
              "position": 21.03125,
              "duration": 0.9645833333333333
            },
            {
              "pitch": 75,
              "velocity": 50,
              "position": 21.041666666666668,
              "duration": 0.9645833333333333
            },
            {
              "pitch": 55,
              "velocity": 42,
              "position": 21.010416666666668,
              "duration": 1.00625
            },
            {
              "pitch": 109,
              "velocity": 88,
              "position": 22,
              "duration": 0.23541666666666666
            },
            {
              "pitch": 79,
              "velocity": 30,
              "position": 22.020833333333332,
              "duration": 0.46458333333333335
            },
            {
              "pitch": 48,
              "velocity": 25,
              "position": 22.052083333333332,
              "duration": 0.43333333333333335
            },
            {
              "pitch": 75,
              "velocity": 30,
              "position": 22.020833333333332,
              "duration": 0.475
            },
            {
              "pitch": 55,
              "velocity": 38,
              "position": 22.03125,
              "duration": 0.475
            },
            {
              "pitch": 72,
              "velocity": 30,
              "position": 22.010416666666668,
              "duration": 0.49583333333333335
            },
            {
              "pitch": 111,
              "velocity": 98,
              "position": 22.5,
              "duration": 0.23541666666666666
            },
            {
              "pitch": 79,
              "velocity": 50,
              "position": 22.5,
              "duration": 0.48541666666666666
            },
            {
              "pitch": 72,
              "velocity": 50,
              "position": 22.520833333333332,
              "duration": 0.46458333333333335
            },
            {
              "pitch": 75,
              "velocity": 50,
              "position": 22.510416666666668,
              "duration": 0.48541666666666666
            },
            {
              "pitch": 48,
              "velocity": 47,
              "position": 22.50625,
              "duration": 0.49583333333333335
            },
            {
              "pitch": 55,
              "velocity": 52,
              "position": 22.520833333333332,
              "duration": 0.48541666666666666
            },
            {
              "pitch": 109,
              "velocity": 83,
              "position": 23,
              "duration": 0.23541666666666666
            },
            {
              "pitch": 79,
              "velocity": 32,
              "position": 23,
              "duration": 0.48541666666666666
            },
            {
              "pitch": 48,
              "velocity": 30,
              "position": 23.052083333333332,
              "duration": 0.43333333333333335
            },
            {
              "pitch": 75,
              "velocity": 30,
              "position": 23.010416666666668,
              "duration": 0.48541666666666666
            },
            {
              "pitch": 55,
              "velocity": 38,
              "position": 23.020833333333332,
              "duration": 0.475
            },
            {
              "pitch": 72,
              "velocity": 30,
              "position": 23,
              "duration": 0.50625
            },
            {
              "pitch": 111,
              "velocity": 98,
              "position": 23.5,
              "duration": 0.23541666666666666
            },
            {
              "pitch": 79,
              "velocity": 50,
              "position": 23.5,
              "duration": 0.9854166666666667
            },
            {
              "pitch": 77,
              "velocity": 50,
              "position": 23.510416666666668,
              "duration": 0.975
            },
            {
              "pitch": 50,
              "velocity": 45,
              "position": 23.50625,
              "duration": 0.9854166666666667
            },
            {
              "pitch": 72,
              "velocity": 50,
              "position": 23.520833333333332,
              "duration": 0.975
            },
            {
              "pitch": 60,
              "velocity": 36,
              "position": 23.510416666666668,
              "duration": 0.9958333333333333
            },
            {
              "pitch": 106,
              "velocity": 46,
              "position": 24.5,
              "duration": 0.23541666666666666
            },
            {
              "pitch": 79,
              "velocity": 50,
              "position": 24.552083333333332,
              "duration": 0.43333333333333335
            },
            {
              "pitch": 77,
              "velocity": 30,
              "position": 24.5,
              "duration": 0.49583333333333335
            },
            {
              "pitch": 72,
              "velocity": 30,
              "position": 24.510416666666668,
              "duration": 0.48541666666666666
            },
            {
              "pitch": 50,
              "velocity": 45,
              "position": 24.50625,
              "duration": 0.49583333333333335
            },
            {
              "pitch": 60,
              "velocity": 50,
              "position": 24.520833333333332,
              "duration": 0.48541666666666666
            },
            {
              "pitch": 109,
              "velocity": 93,
              "position": 25,
              "duration": 0.23541666666666666
            },
            {
              "pitch": 79,
              "velocity": 32,
              "position": 25,
              "duration": 0.48541666666666666
            },
            {
              "pitch": 50,
              "velocity": 32,
              "position": 25.052083333333332,
              "duration": 0.43333333333333335
            },
            {
              "pitch": 77,
              "velocity": 30,
              "position": 25.010416666666668,
              "duration": 0.48541666666666666
            },
            {
              "pitch": 60,
              "velocity": 40,
              "position": 25.020833333333332,
              "duration": 0.475
            },
            {
              "pitch": 72,
              "velocity": 40,
              "position": 25.010416666666668,
              "duration": 0.49583333333333335
            },
            {
              "pitch": 111,
              "velocity": 98,
              "position": 25.5,
              "duration": 0.23541666666666666
            },
            {
              "pitch": 79,
              "velocity": 50,
              "position": 25.5,
              "duration": 0.9854166666666667
            },
            {
              "pitch": 50,
              "velocity": 45,
              "position": 25.552083333333332,
              "duration": 0.9333333333333333
            },
            {
              "pitch": 77,
              "velocity": 50,
              "position": 25.510416666666668,
              "duration": 0.9854166666666667
            },
            {
              "pitch": 72,
              "velocity": 50,
              "position": 25.520833333333332,
              "duration": 0.9854166666666667
            },
            {
              "pitch": 60,
              "velocity": 40,
              "position": 25.541666666666668,
              "duration": 0.9854166666666667
            },
            {
              "pitch": 111,
              "velocity": 75,
              "position": 26.5,
              "duration": 0.23541666666666666
            },
            {
              "pitch": 72,
              "velocity": 36,
              "position": 26.520833333333332,
              "duration": 0.46458333333333335
            },
            {
              "pitch": 60,
              "velocity": 40,
              "position": 26.541666666666668,
              "duration": 0.44375
            },
            {
              "pitch": 50,
              "velocity": 45,
              "position": 26.552083333333332,
              "duration": 0.43333333333333335
            },
            {
              "pitch": 77,
              "velocity": 42,
              "position": 26.510416666666668,
              "duration": 0.48541666666666666
            },
            {
              "pitch": 79,
              "velocity": 38,
              "position": 26.5,
              "duration": 0.50625
            },
            {
              "pitch": 109,
              "velocity": 88,
              "position": 27,
              "duration": 0.23541666666666666
            },
            {
              "pitch": 72,
              "velocity": 42,
              "position": 27,
              "duration": 0.48541666666666666
            },
            {
              "pitch": 79,
              "velocity": 47,
              "position": 27.020833333333332,
              "duration": 0.46458333333333335
            },
            {
              "pitch": 50,
              "velocity": 25,
              "position": 27.052083333333332,
              "duration": 0.43333333333333335
            },
            {
              "pitch": 77,
              "velocity": 47,
              "position": 27.010416666666668,
              "duration": 0.48541666666666666
            },
            {
              "pitch": 60,
              "velocity": 38,
              "position": 27.03125,
              "duration": 0.475
            },
            {
              "pitch": 106,
              "velocity": 66,
              "position": 27.5,
              "duration": 0.23541666666666666
            },
            {
              "pitch": 79,
              "velocity": 38,
              "position": 27.5,
              "duration": 0.48541666666666666
            },
            {
              "pitch": 77,
              "velocity": 38,
              "position": 27.510416666666668,
              "duration": 0.48541666666666666
            },
            {
              "pitch": 60,
              "velocity": 52,
              "position": 27.520833333333332,
              "duration": 0.475
            },
            {
              "pitch": 50,
              "velocity": 47,
              "position": 27.50625,
              "duration": 0.49583333333333335
            },
            {
              "pitch": 72,
              "velocity": 40,
              "position": 27.5,
              "duration": 0.50625
            },
            {
              "pitch": 111,
              "velocity": 98,
              "position": 28.010416666666668,
              "duration": 0.23541666666666666
            },
            {
              "pitch": 51,
              "velocity": 40,
              "position": 28.010416666666668,
              "duration": 0.975
            },
            {
              "pitch": 60,
              "velocity": 36,
              "position": 28.010416666666668,
              "duration": 0.9854166666666667
            },
            {
              "pitch": 72,
              "velocity": 45,
              "position": 28.020833333333332,
              "duration": 0.9958333333333333
            },
            {
              "pitch": 75,
              "velocity": 45,
              "position": 28.03125,
              "duration": 0.9958333333333333
            },
            {
              "pitch": 79,
              "velocity": 45,
              "position": 28.041666666666668,
              "duration": 0.9958333333333333
            },
            {
              "pitch": 111,
              "velocity": 103,
              "position": 29,
              "duration": 0.23541666666666666
            },
            {
              "pitch": 51,
              "velocity": 47,
              "position": 29,
              "duration": 0.9854166666666667
            },
            {
              "pitch": 79,
              "velocity": 50,
              "position": 29.052083333333332,
              "duration": 0.9333333333333333
            },
            {
              "pitch": 72,
              "velocity": 50,
              "position": 29.03125,
              "duration": 0.9645833333333333
            },
            {
              "pitch": 75,
              "velocity": 50,
              "position": 29.041666666666668,
              "duration": 0.9645833333333333
            },
            {
              "pitch": 60,
              "velocity": 42,
              "position": 29.010416666666668,
              "duration": 1.00625
            },
            {
              "pitch": 109,
              "velocity": 88,
              "position": 30,
              "duration": 0.23541666666666666
            },
            {
              "pitch": 79,
              "velocity": 30,
              "position": 30.020833333333332,
              "duration": 0.46458333333333335
            },
            {
              "pitch": 51,
              "velocity": 25,
              "position": 30.052083333333332,
              "duration": 0.43333333333333335
            },
            {
              "pitch": 75,
              "velocity": 30,
              "position": 30.020833333333332,
              "duration": 0.475
            },
            {
              "pitch": 60,
              "velocity": 38,
              "position": 30.03125,
              "duration": 0.475
            },
            {
              "pitch": 72,
              "velocity": 30,
              "position": 30.010416666666668,
              "duration": 0.49583333333333335
            },
            {
              "pitch": 111,
              "velocity": 98,
              "position": 30.5,
              "duration": 0.23541666666666666
            },
            {
              "pitch": 79,
              "velocity": 50,
              "position": 30.5,
              "duration": 0.48541666666666666
            },
            {
              "pitch": 72,
              "velocity": 50,
              "position": 30.520833333333332,
              "duration": 0.46458333333333335
            },
            {
              "pitch": 75,
              "velocity": 50,
              "position": 30.510416666666668,
              "duration": 0.48541666666666666
            },
            {
              "pitch": 51,
              "velocity": 47,
              "position": 30.50625,
              "duration": 0.49583333333333335
            },
            {
              "pitch": 60,
              "velocity": 52,
              "position": 30.520833333333332,
              "duration": 0.48541666666666666
            },
            {
              "pitch": 109,
              "velocity": 83,
              "position": 31,
              "duration": 0.23541666666666666
            },
            {
              "pitch": 79,
              "velocity": 32,
              "position": 31,
              "duration": 0.48541666666666666
            },
            {
              "pitch": 51,
              "velocity": 30,
              "position": 31.052083333333332,
              "duration": 0.43333333333333335
            },
            {
              "pitch": 75,
              "velocity": 30,
              "position": 31.010416666666668,
              "duration": 0.48541666666666666
            },
            {
              "pitch": 60,
              "velocity": 38,
              "position": 31.020833333333332,
              "duration": 0.475
            },
            {
              "pitch": 72,
              "velocity": 30,
              "position": 31,
              "duration": 0.50625
            },
            {
              "pitch": 111,
              "velocity": 98,
              "position": 31.5,
              "duration": 0.23541666666666666
            },
            {
              "pitch": 79,
              "velocity": 50,
              "position": 31.5,
              "duration": 0.9854166666666667
            },
            {
              "pitch": 77,
              "velocity": 50,
              "position": 31.510416666666668,
              "duration": 0.975
            },
            {
              "pitch": 53,
              "velocity": 45,
              "position": 31.50625,
              "duration": 0.9854166666666667
            },
            {
              "pitch": 72,
              "velocity": 50,
              "position": 31.520833333333332,
              "duration": 0.975
            },
            {
              "pitch": 60,
              "velocity": 36,
              "position": 31.510416666666668,
              "duration": 0.9958333333333333
            },
            {
              "pitch": 106,
              "velocity": 46,
              "position": 32.5,
              "duration": 0.23541666666666666
            },
            {
              "pitch": 79,
              "velocity": 50,
              "position": 32.552083333333336,
              "duration": 0.43333333333333335
            },
            {
              "pitch": 77,
              "velocity": 30,
              "position": 32.5,
              "duration": 0.49583333333333335
            },
            {
              "pitch": 72,
              "velocity": 30,
              "position": 32.510416666666664,
              "duration": 0.48541666666666666
            },
            {
              "pitch": 53,
              "velocity": 45,
              "position": 32.50625,
              "duration": 0.49583333333333335
            },
            {
              "pitch": 60,
              "velocity": 50,
              "position": 32.520833333333336,
              "duration": 0.48541666666666666
            },
            {
              "pitch": 109,
              "velocity": 93,
              "position": 33,
              "duration": 0.23541666666666666
            },
            {
              "pitch": 79,
              "velocity": 32,
              "position": 33,
              "duration": 0.48541666666666666
            },
            {
              "pitch": 53,
              "velocity": 32,
              "position": 33.052083333333336,
              "duration": 0.43333333333333335
            },
            {
              "pitch": 77,
              "velocity": 30,
              "position": 33.010416666666664,
              "duration": 0.48541666666666666
            },
            {
              "pitch": 60,
              "velocity": 40,
              "position": 33.020833333333336,
              "duration": 0.475
            },
            {
              "pitch": 72,
              "velocity": 40,
              "position": 33.010416666666664,
              "duration": 0.49583333333333335
            },
            {
              "pitch": 111,
              "velocity": 103,
              "position": 33.5,
              "duration": 0.23541666666666666
            },
            {
              "pitch": 79,
              "velocity": 50,
              "position": 33.5,
              "duration": 0.9854166666666667
            },
            {
              "pitch": 53,
              "velocity": 45,
              "position": 33.552083333333336,
              "duration": 0.9375
            },
            {
              "pitch": 77,
              "velocity": 50,
              "position": 33.510416666666664,
              "duration": 0.9854166666666667
            },
            {
              "pitch": 72,
              "velocity": 50,
              "position": 33.520833333333336,
              "duration": 0.9854166666666667
            },
            {
              "pitch": 60,
              "velocity": 40,
              "position": 33.541666666666664,
              "duration": 0.9854166666666667
            },
            {
              "pitch": 106,
              "velocity": 61,
              "position": 34.5,
              "duration": 0.23541666666666666
            },
            {
              "pitch": 53,
              "velocity": 45,
              "position": 34.552083333333336,
              "duration": 0.40625
            },
            {
              "pitch": 60,
              "velocity": 40,
              "position": 34.541666666666664,
              "duration": 0.44375
            },
            {
              "pitch": 72,
              "velocity": 36,
              "position": 34.520833333333336,
              "duration": 0.46458333333333335
            },
            {
              "pitch": 77,
              "velocity": 42,
              "position": 34.510416666666664,
              "duration": 0.48541666666666666
            },
            {
              "pitch": 79,
              "velocity": 38,
              "position": 34.5,
              "duration": 0.50625
            },
            {
              "pitch": 111,
              "velocity": 98,
              "position": 35,
              "duration": 0.23541666666666666
            },
            {
              "pitch": 53,
              "velocity": 25,
              "position": 35.052083333333336,
              "duration": 0.3770833333333333
            },
            {
              "pitch": 72,
              "velocity": 42,
              "position": 35,
              "duration": 0.48541666666666666
            },
            {
              "pitch": 79,
              "velocity": 47,
              "position": 35.020833333333336,
              "duration": 0.46458333333333335
            },
            {
              "pitch": 77,
              "velocity": 47,
              "position": 35.010416666666664,
              "duration": 0.48541666666666666
            },
            {
              "pitch": 60,
              "velocity": 38,
              "position": 35.03125,
              "duration": 0.475
            },
            {
              "pitch": 106,
              "velocity": 46,
              "position": 35.5,
              "duration": 0.23541666666666666
            },
            {
              "pitch": 79,
              "velocity": 38,
              "position": 35.5,
              "duration": 0.48541666666666666
            },
            {
              "pitch": 77,
              "velocity": 38,
              "position": 35.510416666666664,
              "duration": 0.48541666666666666
            },
            {
              "pitch": 53,
              "velocity": 47,
              "position": 35.50625,
              "duration": 0.49375
            },
            {
              "pitch": 60,
              "velocity": 52,
              "position": 35.520833333333336,
              "duration": 0.4791666666666667
            },
            {
              "pitch": 72,
              "velocity": 40,
              "position": 35.5,
              "duration": 0.5
            }
          ]
        },
        "3": {
          "ctab": {
            "srcChannel": 3,
            "name": "HiGt m",
            "accType": "CHORD2",
            "editable": false,
            "mutedNotes": [],
            "mutedChords": [
              "1+2+5",
              "sus4",
              "1+5",
              "1+8",
              "7aug",
              "Maj7aug",
              "7(#9)",
              "7(b13)",
              "7(b9)",
              "7(13)",
              "7#11",
              "7(9)",
              "7b5",
              "7sus4",
              "7th",
              "aug",
              "Maj6(9)",
              "Maj7(9)",
              "Maj(9)",
              "Maj7#11",
              "Maj7",
              "Maj6",
              "Maj"
            ],
            "autoStart": false,
            "sourceChordNote": 0,
            "sourceChordType": "min",
            "ctb2Low": null,
            "ctb2Main": {
              "ntr": "ROOT_TRANSPOSITION",
              "ntt": "BYPASS",
              "bassOn": false,
              "chordRootUpperLimit": 8,
              "noteLowLimit": 40,
              "noteHighLimit": 65,
              "rtr": "PITCH_SHIFT"
            },
            "ctb2High": null
          },
          "notes": [
            {
              "pitch": 100,
              "velocity": 55,
              "position": 4.010416666666667,
              "duration": 0.23541666666666666
            },
            {
              "pitch": 60,
              "velocity": 56,
              "position": 4.020833333333333,
              "duration": 0.46458333333333335
            },
            {
              "pitch": 96,
              "velocity": 45,
              "position": 4.510416666666667,
              "duration": 0.23541666666666666
            },
            {
              "pitch": 60,
              "velocity": 45,
              "position": 4.5,
              "duration": 0.50625
            },
            {
              "pitch": 63,
              "velocity": 56,
              "position": 4.03125,
              "duration": 0.9854166666666667
            },
            {
              "pitch": 98,
              "velocity": 55,
              "position": 5.010416666666667,
              "duration": 0.23541666666666666
            },
            {
              "pitch": 63,
              "velocity": 60,
              "position": 5.03125,
              "duration": 0.45416666666666666
            },
            {
              "pitch": 60,
              "velocity": 60,
              "position": 5.020833333333333,
              "duration": 0.48541666666666666
            },
            {
              "pitch": 100,
              "velocity": 55,
              "position": 5.510416666666667,
              "duration": 0.23541666666666666
            },
            {
              "pitch": 60,
              "velocity": 56,
              "position": 5.520833333333333,
              "duration": 0.48541666666666666
            },
            {
              "pitch": 98,
              "velocity": 25,
              "position": 6.010416666666667,
              "duration": 0.23541666666666666
            },
            {
              "pitch": 63,
              "velocity": 56,
              "position": 5.5,
              "duration": 0.9854166666666667
            },
            {
              "pitch": 60,
              "velocity": 51,
              "position": 6.020833333333333,
              "duration": 0.48541666666666666
            },
            {
              "pitch": 96,
              "velocity": 55,
              "position": 6.510416666666667,
              "duration": 0.23541666666666666
            },
            {
              "pitch": 60,
              "velocity": 51,
              "position": 6.520833333333333,
              "duration": 0.48541666666666666
            },
            {
              "pitch": 63,
              "velocity": 51,
              "position": 6.5,
              "duration": 0.5166666666666667
            },
            {
              "pitch": 100,
              "velocity": 25,
              "position": 7.010416666666667,
              "duration": 0.23541666666666666
            },
            {
              "pitch": 67,
              "velocity": 60,
              "position": 5.041666666666667,
              "duration": 2.44375
            },
            {
              "pitch": 63,
              "velocity": 60,
              "position": 7.03125,
              "duration": 0.46458333333333335
            },
            {
              "pitch": 60,
              "velocity": 60,
              "position": 7.020833333333333,
              "duration": 0.48541666666666666
            },
            {
              "pitch": 98,
              "velocity": 55,
              "position": 7.510416666666667,
              "duration": 0.23541666666666666
            },
            {
              "pitch": 60,
              "velocity": 56,
              "position": 7.520833333333333,
              "duration": 0.9645833333333333
            },
            {
              "pitch": 96,
              "velocity": 45,
              "position": 8.510416666666666,
              "duration": 0.23541666666666666
            },
            {
              "pitch": 60,
              "velocity": 45,
              "position": 8.5,
              "duration": 0.50625
            },
            {
              "pitch": 65,
              "velocity": 56,
              "position": 7.510416666666667,
              "duration": 1.50625
            },
            {
              "pitch": 67,
              "velocity": 60,
              "position": 7.5,
              "duration": 1.5270833333333333
            },
            {
              "pitch": 98,
              "velocity": 55,
              "position": 9.010416666666666,
              "duration": 0.23541666666666666
            },
            {
              "pitch": 65,
              "velocity": 60,
              "position": 9.03125,
              "duration": 0.45416666666666666
            },
            {
              "pitch": 60,
              "velocity": 60,
              "position": 9.020833333333334,
              "duration": 0.48541666666666666
            },
            {
              "pitch": 100,
              "velocity": 45,
              "position": 9.510416666666666,
              "duration": 0.23541666666666666
            },
            {
              "pitch": 60,
              "velocity": 56,
              "position": 9.520833333333334,
              "duration": 0.48541666666666666
            },
            {
              "pitch": 98,
              "velocity": 25,
              "position": 10.010416666666666,
              "duration": 0.23541666666666666
            },
            {
              "pitch": 65,
              "velocity": 56,
              "position": 9.5,
              "duration": 0.9854166666666667
            },
            {
              "pitch": 60,
              "velocity": 51,
              "position": 10.020833333333334,
              "duration": 0.48541666666666666
            },
            {
              "pitch": 96,
              "velocity": 55,
              "position": 10.510416666666666,
              "duration": 0.23541666666666666
            },
            {
              "pitch": 60,
              "velocity": 51,
              "position": 10.520833333333334,
              "duration": 0.48541666666666666
            },
            {
              "pitch": 65,
              "velocity": 51,
              "position": 10.5,
              "duration": 0.5166666666666667
            },
            {
              "pitch": 67,
              "velocity": 60,
              "position": 9.041666666666666,
              "duration": 1.9854166666666666
            },
            {
              "pitch": 100,
              "velocity": 45,
              "position": 11.010416666666666,
              "duration": 0.23541666666666666
            },
            {
              "pitch": 65,
              "velocity": 60,
              "position": 11.03125,
              "duration": 0.45416666666666666
            },
            {
              "pitch": 60,
              "velocity": 60,
              "position": 11.020833333333334,
              "duration": 0.48541666666666666
            },
            {
              "pitch": 96,
              "velocity": 45,
              "position": 11.510416666666666,
              "duration": 0.23541666666666666
            },
            {
              "pitch": 60,
              "velocity": 45,
              "position": 11.520833333333334,
              "duration": 0.48541666666666666
            },
            {
              "pitch": 65,
              "velocity": 45,
              "position": 11.5,
              "duration": 0.5166666666666667
            },
            {
              "pitch": 100,
              "velocity": 55,
              "position": 12.010416666666666,
              "duration": 0.23541666666666666
            },
            {
              "pitch": 60,
              "velocity": 56,
              "position": 12.020833333333334,
              "duration": 0.46458333333333335
            },
            {
              "pitch": 96,
              "velocity": 45,
              "position": 12.510416666666666,
              "duration": 0.23541666666666666
            },
            {
              "pitch": 60,
              "velocity": 45,
              "position": 12.5,
              "duration": 0.50625
            },
            {
              "pitch": 63,
              "velocity": 56,
              "position": 12.03125,
              "duration": 0.9854166666666667
            },
            {
              "pitch": 67,
              "velocity": 60,
              "position": 11.041666666666666,
              "duration": 1.9854166666666666
            },
            {
              "pitch": 98,
              "velocity": 55,
              "position": 13.010416666666666,
              "duration": 0.23541666666666666
            },
            {
              "pitch": 63,
              "velocity": 60,
              "position": 13.03125,
              "duration": 0.45416666666666666
            },
            {
              "pitch": 60,
              "velocity": 60,
              "position": 13.020833333333334,
              "duration": 0.48541666666666666
            },
            {
              "pitch": 100,
              "velocity": 55,
              "position": 13.510416666666666,
              "duration": 0.23541666666666666
            },
            {
              "pitch": 60,
              "velocity": 56,
              "position": 13.520833333333334,
              "duration": 0.48541666666666666
            },
            {
              "pitch": 98,
              "velocity": 25,
              "position": 14.010416666666666,
              "duration": 0.23541666666666666
            },
            {
              "pitch": 63,
              "velocity": 56,
              "position": 13.5,
              "duration": 0.9854166666666667
            },
            {
              "pitch": 60,
              "velocity": 51,
              "position": 14.020833333333334,
              "duration": 0.48541666666666666
            },
            {
              "pitch": 96,
              "velocity": 55,
              "position": 14.510416666666666,
              "duration": 0.23541666666666666
            },
            {
              "pitch": 60,
              "velocity": 51,
              "position": 14.520833333333334,
              "duration": 0.48541666666666666
            },
            {
              "pitch": 63,
              "velocity": 51,
              "position": 14.5,
              "duration": 0.5166666666666667
            },
            {
              "pitch": 100,
              "velocity": 45,
              "position": 15.010416666666666,
              "duration": 0.23541666666666666
            },
            {
              "pitch": 67,
              "velocity": 60,
              "position": 13.041666666666666,
              "duration": 2.44375
            },
            {
              "pitch": 63,
              "velocity": 60,
              "position": 15.03125,
              "duration": 0.46458333333333335
            },
            {
              "pitch": 60,
              "velocity": 60,
              "position": 15.020833333333334,
              "duration": 0.48541666666666666
            },
            {
              "pitch": 98,
              "velocity": 55,
              "position": 15.510416666666666,
              "duration": 0.23541666666666666
            },
            {
              "pitch": 60,
              "velocity": 56,
              "position": 15.520833333333334,
              "duration": 0.9645833333333333
            },
            {
              "pitch": 96,
              "velocity": 45,
              "position": 16.510416666666668,
              "duration": 0.23541666666666666
            },
            {
              "pitch": 60,
              "velocity": 45,
              "position": 16.5,
              "duration": 0.50625
            },
            {
              "pitch": 65,
              "velocity": 56,
              "position": 15.510416666666666,
              "duration": 1.50625
            },
            {
              "pitch": 67,
              "velocity": 60,
              "position": 15.5,
              "duration": 1.5270833333333333
            },
            {
              "pitch": 98,
              "velocity": 55,
              "position": 17.010416666666668,
              "duration": 0.23541666666666666
            },
            {
              "pitch": 65,
              "velocity": 60,
              "position": 17.03125,
              "duration": 0.45416666666666666
            },
            {
              "pitch": 60,
              "velocity": 60,
              "position": 17.020833333333332,
              "duration": 0.48541666666666666
            },
            {
              "pitch": 100,
              "velocity": 45,
              "position": 17.510416666666668,
              "duration": 0.23541666666666666
            },
            {
              "pitch": 60,
              "velocity": 56,
              "position": 17.520833333333332,
              "duration": 0.48541666666666666
            },
            {
              "pitch": 98,
              "velocity": 25,
              "position": 18.010416666666668,
              "duration": 0.23541666666666666
            },
            {
              "pitch": 65,
              "velocity": 56,
              "position": 17.5,
              "duration": 0.9854166666666667
            },
            {
              "pitch": 60,
              "velocity": 51,
              "position": 18.020833333333332,
              "duration": 0.48541666666666666
            },
            {
              "pitch": 96,
              "velocity": 55,
              "position": 18.510416666666668,
              "duration": 0.23541666666666666
            },
            {
              "pitch": 60,
              "velocity": 51,
              "position": 18.520833333333332,
              "duration": 0.48541666666666666
            },
            {
              "pitch": 65,
              "velocity": 51,
              "position": 18.5,
              "duration": 0.5166666666666667
            },
            {
              "pitch": 67,
              "velocity": 60,
              "position": 17.041666666666668,
              "duration": 1.9854166666666666
            },
            {
              "pitch": 100,
              "velocity": 45,
              "position": 19.010416666666668,
              "duration": 0.23541666666666666
            },
            {
              "pitch": 65,
              "velocity": 60,
              "position": 19.03125,
              "duration": 0.45416666666666666
            },
            {
              "pitch": 60,
              "velocity": 60,
              "position": 19.020833333333332,
              "duration": 0.48541666666666666
            },
            {
              "pitch": 96,
              "velocity": 45,
              "position": 19.510416666666668,
              "duration": 0.23541666666666666
            },
            {
              "pitch": 60,
              "velocity": 45,
              "position": 19.520833333333332,
              "duration": 0.48541666666666666
            },
            {
              "pitch": 65,
              "velocity": 45,
              "position": 19.5,
              "duration": 0.5166666666666667
            },
            {
              "pitch": 100,
              "velocity": 55,
              "position": 20.010416666666668,
              "duration": 0.23541666666666666
            },
            {
              "pitch": 60,
              "velocity": 56,
              "position": 20.020833333333332,
              "duration": 0.46458333333333335
            },
            {
              "pitch": 96,
              "velocity": 45,
              "position": 20.510416666666668,
              "duration": 0.23541666666666666
            },
            {
              "pitch": 60,
              "velocity": 45,
              "position": 20.5,
              "duration": 0.50625
            },
            {
              "pitch": 63,
              "velocity": 56,
              "position": 20.03125,
              "duration": 0.9854166666666667
            },
            {
              "pitch": 67,
              "velocity": 60,
              "position": 19.041666666666668,
              "duration": 1.9854166666666666
            },
            {
              "pitch": 98,
              "velocity": 55,
              "position": 21.010416666666668,
              "duration": 0.23541666666666666
            },
            {
              "pitch": 63,
              "velocity": 60,
              "position": 21.03125,
              "duration": 0.45416666666666666
            },
            {
              "pitch": 60,
              "velocity": 60,
              "position": 21.020833333333332,
              "duration": 0.48541666666666666
            },
            {
              "pitch": 100,
              "velocity": 55,
              "position": 21.510416666666668,
              "duration": 0.23541666666666666
            },
            {
              "pitch": 60,
              "velocity": 56,
              "position": 21.520833333333332,
              "duration": 0.48541666666666666
            },
            {
              "pitch": 98,
              "velocity": 25,
              "position": 22.010416666666668,
              "duration": 0.23541666666666666
            },
            {
              "pitch": 63,
              "velocity": 56,
              "position": 21.5,
              "duration": 0.9854166666666667
            },
            {
              "pitch": 60,
              "velocity": 51,
              "position": 22.020833333333332,
              "duration": 0.48541666666666666
            },
            {
              "pitch": 96,
              "velocity": 55,
              "position": 22.510416666666668,
              "duration": 0.23541666666666666
            },
            {
              "pitch": 60,
              "velocity": 51,
              "position": 22.520833333333332,
              "duration": 0.48541666666666666
            },
            {
              "pitch": 63,
              "velocity": 51,
              "position": 22.5,
              "duration": 0.5166666666666667
            },
            {
              "pitch": 100,
              "velocity": 45,
              "position": 23.010416666666668,
              "duration": 0.23541666666666666
            },
            {
              "pitch": 67,
              "velocity": 60,
              "position": 21.041666666666668,
              "duration": 2.44375
            },
            {
              "pitch": 63,
              "velocity": 60,
              "position": 23.03125,
              "duration": 0.46458333333333335
            },
            {
              "pitch": 60,
              "velocity": 60,
              "position": 23.020833333333332,
              "duration": 0.48541666666666666
            },
            {
              "pitch": 98,
              "velocity": 55,
              "position": 23.510416666666668,
              "duration": 0.23541666666666666
            },
            {
              "pitch": 60,
              "velocity": 56,
              "position": 23.520833333333332,
              "duration": 0.9645833333333333
            },
            {
              "pitch": 96,
              "velocity": 45,
              "position": 24.510416666666668,
              "duration": 0.23541666666666666
            },
            {
              "pitch": 60,
              "velocity": 45,
              "position": 24.5,
              "duration": 0.50625
            },
            {
              "pitch": 65,
              "velocity": 56,
              "position": 23.510416666666668,
              "duration": 1.50625
            },
            {
              "pitch": 67,
              "velocity": 60,
              "position": 23.5,
              "duration": 1.5270833333333333
            },
            {
              "pitch": 98,
              "velocity": 55,
              "position": 25.010416666666668,
              "duration": 0.23541666666666666
            },
            {
              "pitch": 65,
              "velocity": 60,
              "position": 25.03125,
              "duration": 0.45416666666666666
            },
            {
              "pitch": 60,
              "velocity": 60,
              "position": 25.020833333333332,
              "duration": 0.48541666666666666
            },
            {
              "pitch": 100,
              "velocity": 45,
              "position": 25.510416666666668,
              "duration": 0.23541666666666666
            },
            {
              "pitch": 60,
              "velocity": 56,
              "position": 25.520833333333332,
              "duration": 0.48541666666666666
            },
            {
              "pitch": 98,
              "velocity": 25,
              "position": 26.010416666666668,
              "duration": 0.23541666666666666
            },
            {
              "pitch": 65,
              "velocity": 56,
              "position": 25.5,
              "duration": 0.9854166666666667
            },
            {
              "pitch": 60,
              "velocity": 51,
              "position": 26.020833333333332,
              "duration": 0.48541666666666666
            },
            {
              "pitch": 96,
              "velocity": 55,
              "position": 26.510416666666668,
              "duration": 0.23541666666666666
            },
            {
              "pitch": 60,
              "velocity": 51,
              "position": 26.520833333333332,
              "duration": 0.48541666666666666
            },
            {
              "pitch": 65,
              "velocity": 51,
              "position": 26.5,
              "duration": 0.5166666666666667
            },
            {
              "pitch": 67,
              "velocity": 60,
              "position": 25.041666666666668,
              "duration": 1.9854166666666666
            },
            {
              "pitch": 100,
              "velocity": 45,
              "position": 27.010416666666668,
              "duration": 0.23541666666666666
            },
            {
              "pitch": 65,
              "velocity": 60,
              "position": 27.03125,
              "duration": 0.45416666666666666
            },
            {
              "pitch": 60,
              "velocity": 60,
              "position": 27.020833333333332,
              "duration": 0.48541666666666666
            },
            {
              "pitch": 96,
              "velocity": 45,
              "position": 27.510416666666668,
              "duration": 0.23541666666666666
            },
            {
              "pitch": 60,
              "velocity": 45,
              "position": 27.520833333333332,
              "duration": 0.48541666666666666
            },
            {
              "pitch": 65,
              "velocity": 45,
              "position": 27.5,
              "duration": 0.5166666666666667
            },
            {
              "pitch": 100,
              "velocity": 55,
              "position": 28.010416666666668,
              "duration": 0.23541666666666666
            },
            {
              "pitch": 60,
              "velocity": 56,
              "position": 28.020833333333332,
              "duration": 0.46458333333333335
            },
            {
              "pitch": 96,
              "velocity": 45,
              "position": 28.510416666666668,
              "duration": 0.23541666666666666
            },
            {
              "pitch": 60,
              "velocity": 45,
              "position": 28.5,
              "duration": 0.50625
            },
            {
              "pitch": 63,
              "velocity": 56,
              "position": 28.03125,
              "duration": 0.9854166666666667
            },
            {
              "pitch": 67,
              "velocity": 60,
              "position": 27.041666666666668,
              "duration": 1.9854166666666666
            },
            {
              "pitch": 98,
              "velocity": 55,
              "position": 29.010416666666668,
              "duration": 0.23541666666666666
            },
            {
              "pitch": 63,
              "velocity": 60,
              "position": 29.03125,
              "duration": 0.45416666666666666
            },
            {
              "pitch": 60,
              "velocity": 60,
              "position": 29.020833333333332,
              "duration": 0.48541666666666666
            },
            {
              "pitch": 100,
              "velocity": 55,
              "position": 29.510416666666668,
              "duration": 0.23541666666666666
            },
            {
              "pitch": 60,
              "velocity": 56,
              "position": 29.520833333333332,
              "duration": 0.48541666666666666
            },
            {
              "pitch": 98,
              "velocity": 25,
              "position": 30.010416666666668,
              "duration": 0.23541666666666666
            },
            {
              "pitch": 63,
              "velocity": 56,
              "position": 29.5,
              "duration": 0.9854166666666667
            },
            {
              "pitch": 60,
              "velocity": 51,
              "position": 30.020833333333332,
              "duration": 0.48541666666666666
            },
            {
              "pitch": 96,
              "velocity": 55,
              "position": 30.510416666666668,
              "duration": 0.23541666666666666
            },
            {
              "pitch": 60,
              "velocity": 51,
              "position": 30.520833333333332,
              "duration": 0.48541666666666666
            },
            {
              "pitch": 63,
              "velocity": 51,
              "position": 30.5,
              "duration": 0.5166666666666667
            },
            {
              "pitch": 100,
              "velocity": 45,
              "position": 31.010416666666668,
              "duration": 0.23541666666666666
            },
            {
              "pitch": 67,
              "velocity": 60,
              "position": 29.041666666666668,
              "duration": 2.44375
            },
            {
              "pitch": 63,
              "velocity": 60,
              "position": 31.03125,
              "duration": 0.46458333333333335
            },
            {
              "pitch": 60,
              "velocity": 60,
              "position": 31.020833333333332,
              "duration": 0.48541666666666666
            },
            {
              "pitch": 98,
              "velocity": 55,
              "position": 31.510416666666668,
              "duration": 0.23541666666666666
            },
            {
              "pitch": 60,
              "velocity": 56,
              "position": 31.520833333333332,
              "duration": 0.9645833333333333
            },
            {
              "pitch": 96,
              "velocity": 45,
              "position": 32.510416666666664,
              "duration": 0.23541666666666666
            },
            {
              "pitch": 60,
              "velocity": 45,
              "position": 32.5,
              "duration": 0.50625
            },
            {
              "pitch": 65,
              "velocity": 56,
              "position": 31.510416666666668,
              "duration": 1.50625
            },
            {
              "pitch": 67,
              "velocity": 60,
              "position": 31.5,
              "duration": 1.5270833333333333
            },
            {
              "pitch": 98,
              "velocity": 55,
              "position": 33.010416666666664,
              "duration": 0.23541666666666666
            },
            {
              "pitch": 65,
              "velocity": 60,
              "position": 33.03125,
              "duration": 0.45416666666666666
            },
            {
              "pitch": 60,
              "velocity": 60,
              "position": 33.020833333333336,
              "duration": 0.48541666666666666
            },
            {
              "pitch": 100,
              "velocity": 45,
              "position": 33.510416666666664,
              "duration": 0.23541666666666666
            },
            {
              "pitch": 60,
              "velocity": 56,
              "position": 33.520833333333336,
              "duration": 0.48541666666666666
            },
            {
              "pitch": 98,
              "velocity": 25,
              "position": 34.010416666666664,
              "duration": 0.23541666666666666
            },
            {
              "pitch": 65,
              "velocity": 56,
              "position": 33.5,
              "duration": 0.9854166666666667
            },
            {
              "pitch": 60,
              "velocity": 51,
              "position": 34.020833333333336,
              "duration": 0.48541666666666666
            },
            {
              "pitch": 96,
              "velocity": 55,
              "position": 34.510416666666664,
              "duration": 0.23541666666666666
            },
            {
              "pitch": 60,
              "velocity": 51,
              "position": 34.520833333333336,
              "duration": 0.48541666666666666
            },
            {
              "pitch": 65,
              "velocity": 51,
              "position": 34.5,
              "duration": 0.5166666666666667
            },
            {
              "pitch": 67,
              "velocity": 60,
              "position": 33.041666666666664,
              "duration": 1.9854166666666666
            },
            {
              "pitch": 100,
              "velocity": 45,
              "position": 35.010416666666664,
              "duration": 0.23541666666666666
            },
            {
              "pitch": 65,
              "velocity": 60,
              "position": 35.03125,
              "duration": 0.45416666666666666
            },
            {
              "pitch": 60,
              "velocity": 60,
              "position": 35.020833333333336,
              "duration": 0.48541666666666666
            },
            {
              "pitch": 96,
              "velocity": 45,
              "position": 35.510416666666664,
              "duration": 0.23541666666666666
            },
            {
              "pitch": 67,
              "velocity": 60,
              "position": 35.041666666666664,
              "duration": 0.94375
            },
            {
              "pitch": 60,
              "velocity": 45,
              "position": 35.520833333333336,
              "duration": 0.475
            },
            {
              "pitch": 65,
              "velocity": 45,
              "position": 35.5,
              "duration": 0.49583333333333335
            }
          ]
        },
        "4": {
          "ctab": {
            "srcChannel": 4,
            "name": "Organ m",
            "accType": "PAD",
            "editable": false,
            "mutedNotes": [],
            "mutedChords": [
              "1+2+5",
              "sus4",
              "1+5",
              "1+8",
              "7aug",
              "Maj7aug",
              "7(#9)",
              "7(b13)",
              "7(b9)",
              "7(13)",
              "7#11",
              "7(9)",
              "7b5",
              "7sus4",
              "7th",
              "aug",
              "Maj6(9)",
              "Maj7(9)",
              "Maj(9)",
              "Maj7#11",
              "Maj7",
              "Maj6",
              "Maj"
            ],
            "autoStart": false,
            "sourceChordNote": 0,
            "sourceChordType": "min",
            "ctb2Low": null,
            "ctb2Main": {
              "ntr": "ROOT_TRANSPOSITION",
              "ntt": "BYPASS",
              "bassOn": false,
              "chordRootUpperLimit": 6,
              "noteLowLimit": 0,
              "noteHighLimit": 127,
              "rtr": "PITCH_SHIFT"
            },
            "ctb2High": null
          },
          "notes": [
            {
              "pitch": 67,
              "velocity": 74,
              "position": 5,
              "duration": 1.40625
            },
            {
              "pitch": 63,
              "velocity": 74,
              "position": 5,
              "duration": 1.4083333333333334
            },
            {
              "pitch": 72,
              "velocity": 74,
              "position": 5,
              "duration": 1.425
            },
            {
              "pitch": 67,
              "velocity": 74,
              "position": 6.5,
              "duration": 0.08541666666666667
            },
            {
              "pitch": 63,
              "velocity": 74,
              "position": 6.5,
              "duration": 0.09166666666666666
            },
            {
              "pitch": 72,
              "velocity": 74,
              "position": 6.5,
              "duration": 0.11041666666666666
            },
            {
              "pitch": 67,
              "velocity": 74,
              "position": 7.5,
              "duration": 1.3979166666666667
            },
            {
              "pitch": 72,
              "velocity": 74,
              "position": 7.5,
              "duration": 1.4125
            },
            {
              "pitch": 65,
              "velocity": 74,
              "position": 7.5,
              "duration": 1.4125
            },
            {
              "pitch": 67,
              "velocity": 74,
              "position": 9,
              "duration": 0.10208333333333333
            },
            {
              "pitch": 65,
              "velocity": 74,
              "position": 9,
              "duration": 0.11041666666666666
            },
            {
              "pitch": 72,
              "velocity": 74,
              "position": 9,
              "duration": 0.12083333333333333
            },
            {
              "pitch": 63,
              "velocity": 71,
              "position": 13,
              "duration": 1.4458333333333333
            },
            {
              "pitch": 67,
              "velocity": 74,
              "position": 13,
              "duration": 1.4458333333333333
            },
            {
              "pitch": 72,
              "velocity": 71,
              "position": 13,
              "duration": 1.4541666666666666
            },
            {
              "pitch": 63,
              "velocity": 63,
              "position": 14.5,
              "duration": 0.1
            },
            {
              "pitch": 67,
              "velocity": 74,
              "position": 14.5,
              "duration": 0.1
            },
            {
              "pitch": 72,
              "velocity": 72,
              "position": 14.5,
              "duration": 0.13125
            },
            {
              "pitch": 65,
              "velocity": 66,
              "position": 15.5,
              "duration": 0.6520833333333333
            },
            {
              "pitch": 72,
              "velocity": 71,
              "position": 15.5,
              "duration": 0.6520833333333333
            },
            {
              "pitch": 67,
              "velocity": 68,
              "position": 15.5,
              "duration": 0.6520833333333333
            },
            {
              "pitch": 67,
              "velocity": 68,
              "position": 16.189583333333335,
              "duration": 1.4604166666666667
            },
            {
              "pitch": 72,
              "velocity": 71,
              "position": 16.189583333333335,
              "duration": 1.4645833333333333
            },
            {
              "pitch": 65,
              "velocity": 66,
              "position": 16.189583333333335,
              "duration": 1.475
            },
            {
              "pitch": 65,
              "velocity": 65,
              "position": 17.833333333333332,
              "duration": 0.029166666666666667
            },
            {
              "pitch": 75,
              "velocity": 62,
              "position": 18.477083333333333,
              "duration": 0.2625
            },
            {
              "pitch": 77,
              "velocity": 68,
              "position": 18.727083333333333,
              "duration": 0.2520833333333333
            },
            {
              "pitch": 75,
              "velocity": 84,
              "position": 18.977083333333333,
              "duration": 0.46458333333333335
            },
            {
              "pitch": 74,
              "velocity": 73,
              "position": 19.477083333333333,
              "duration": 0.49166666666666664
            },
            {
              "pitch": 67,
              "velocity": 77,
              "position": 21,
              "duration": 0.1
            },
            {
              "pitch": 63,
              "velocity": 79,
              "position": 21,
              "duration": 0.12083333333333333
            },
            {
              "pitch": 72,
              "velocity": 81,
              "position": 20,
              "duration": 1.2354166666666666
            },
            {
              "pitch": 63,
              "velocity": 74,
              "position": 22.5,
              "duration": 0.09166666666666666
            },
            {
              "pitch": 67,
              "velocity": 75,
              "position": 22.5,
              "duration": 0.10416666666666667
            },
            {
              "pitch": 65,
              "velocity": 78,
              "position": 23.5,
              "duration": 1.38125
            },
            {
              "pitch": 67,
              "velocity": 83,
              "position": 23.5,
              "duration": 1.4083333333333334
            },
            {
              "pitch": 72,
              "velocity": 81,
              "position": 21.322916666666668,
              "duration": 3.6145833333333335
            },
            {
              "pitch": 67,
              "velocity": 80,
              "position": 25,
              "duration": 0.19375
            },
            {
              "pitch": 72,
              "velocity": 80,
              "position": 25,
              "duration": 0.19791666666666666
            },
            {
              "pitch": 65,
              "velocity": 80,
              "position": 25,
              "duration": 0.19791666666666666
            },
            {
              "pitch": 67,
              "velocity": 78,
              "position": 29,
              "duration": 1.4395833333333334
            },
            {
              "pitch": 72,
              "velocity": 75,
              "position": 29,
              "duration": 1.4520833333333334
            },
            {
              "pitch": 63,
              "velocity": 78,
              "position": 29,
              "duration": 1.4520833333333334
            },
            {
              "pitch": 67,
              "velocity": 78,
              "position": 30.5,
              "duration": 0.1
            },
            {
              "pitch": 63,
              "velocity": 77,
              "position": 30.5,
              "duration": 0.11458333333333333
            },
            {
              "pitch": 72,
              "velocity": 77,
              "position": 30.5,
              "duration": 0.17291666666666666
            },
            {
              "pitch": 65,
              "velocity": 80,
              "position": 31.5,
              "duration": 0.9520833333333333
            },
            {
              "pitch": 72,
              "velocity": 80,
              "position": 31.5,
              "duration": 0.9583333333333334
            },
            {
              "pitch": 67,
              "velocity": 80,
              "position": 31.5,
              "duration": 0.9625
            },
            {
              "pitch": 65,
              "velocity": 76,
              "position": 32.5,
              "duration": 0.4166666666666667
            },
            {
              "pitch": 72,
              "velocity": 76,
              "position": 32.5,
              "duration": 0.43333333333333335
            },
            {
              "pitch": 67,
              "velocity": 76,
              "position": 32.5,
              "duration": 0.43333333333333335
            },
            {
              "pitch": 65,
              "velocity": 64,
              "position": 33,
              "duration": 0.45625
            },
            {
              "pitch": 67,
              "velocity": 64,
              "position": 33,
              "duration": 0.45625
            },
            {
              "pitch": 72,
              "velocity": 64,
              "position": 33,
              "duration": 0.46458333333333335
            },
            {
              "pitch": 65,
              "velocity": 76,
              "position": 33.5,
              "duration": 0.46458333333333335
            },
            {
              "pitch": 74,
              "velocity": 76,
              "position": 33.5,
              "duration": 0.46875
            },
            {
              "pitch": 67,
              "velocity": 76,
              "position": 33.5,
              "duration": 0.475
            },
            {
              "pitch": 65,
              "velocity": 86,
              "position": 34,
              "duration": 0.8020833333333334
            },
            {
              "pitch": 74,
              "velocity": 86,
              "position": 34,
              "duration": 0.8020833333333334
            },
            {
              "pitch": 67,
              "velocity": 86,
              "position": 34,
              "duration": 0.8020833333333334
            },
            {
              "pitch": 74,
              "velocity": 93,
              "position": 34.822916666666664,
              "duration": 1.0645833333333334
            },
            {
              "pitch": 65,
              "velocity": 93,
              "position": 34.822916666666664,
              "duration": 1.0895833333333333
            },
            {
              "pitch": 67,
              "velocity": 93,
              "position": 34.822916666666664,
              "duration": 1.0895833333333333
            }
          ]
        },
        "5": {
          "ctab": {
            "srcChannel": 5,
            "name": "SldGt m",
            "accType": "PHRASE1",
            "editable": false,
            "mutedNotes": [],
            "mutedChords": [
              "1+2+5",
              "sus4",
              "1+5",
              "1+8",
              "7aug",
              "Maj7aug",
              "7(#9)",
              "7(b13)",
              "7(b9)",
              "7(13)",
              "7#11",
              "7(9)",
              "7b5",
              "7sus4",
              "7th",
              "aug",
              "Maj6(9)",
              "Maj7(9)",
              "Maj(9)",
              "Maj7#11",
              "Maj7",
              "Maj6",
              "Maj"
            ],
            "autoStart": false,
            "sourceChordNote": 0,
            "sourceChordType": "min",
            "ctb2Low": null,
            "ctb2Main": {
              "ntr": "ROOT_TRANSPOSITION",
              "ntt": "BYPASS",
              "bassOn": false,
              "chordRootUpperLimit": 3,
              "noteLowLimit": 40,
              "noteHighLimit": 127,
              "rtr": "PITCH_SHIFT"
            },
            "ctb2High": null
          },
          "notes": [
            {
              "pitch": 100,
              "velocity": 70,
              "position": 4,
              "duration": 0.23541666666666666
            },
            {
              "pitch": 36,
              "velocity": 86,
              "position": 4,
              "duration": 0.48541666666666666
            },
            {
              "pitch": 99,
              "velocity": 55,
              "position": 4.5,
              "duration": 0.23541666666666666
            },
            {
              "pitch": 36,
              "velocity": 84,
              "position": 4.5,
              "duration": 0.48541666666666666
            },
            {
              "pitch": 98,
              "velocity": 70,
              "position": 5,
              "duration": 0.23541666666666666
            },
            {
              "pitch": 36,
              "velocity": 86,
              "position": 5,
              "duration": 0.48541666666666666
            },
            {
              "pitch": 72,
              "velocity": 34,
              "position": 4,
              "duration": 1.4854166666666666
            },
            {
              "pitch": 99,
              "velocity": 57,
              "position": 5.5,
              "duration": 0.23541666666666666
            },
            {
              "pitch": 36,
              "velocity": 84,
              "position": 5.5,
              "duration": 0.48541666666666666
            },
            {
              "pitch": 102,
              "velocity": 70,
              "position": 6,
              "duration": 0.23541666666666666
            },
            {
              "pitch": 67,
              "velocity": 24,
              "position": 5,
              "duration": 1.4854166666666666
            },
            {
              "pitch": 36,
              "velocity": 86,
              "position": 6,
              "duration": 0.48541666666666666
            },
            {
              "pitch": 99,
              "velocity": 70,
              "position": 6.5,
              "duration": 0.23541666666666666
            },
            {
              "pitch": 36,
              "velocity": 84,
              "position": 6.5,
              "duration": 0.48541666666666666
            },
            {
              "pitch": 98,
              "velocity": 55,
              "position": 7,
              "duration": 0.23541666666666666
            },
            {
              "pitch": 74,
              "velocity": 32,
              "position": 5.5,
              "duration": 1.9854166666666666
            },
            {
              "pitch": 36,
              "velocity": 86,
              "position": 7,
              "duration": 0.48541666666666666
            },
            {
              "pitch": 97,
              "velocity": 59,
              "position": 7.5,
              "duration": 0.23541666666666666
            },
            {
              "pitch": 36,
              "velocity": 84,
              "position": 7.5,
              "duration": 0.49583333333333335
            },
            {
              "pitch": 100,
              "velocity": 70,
              "position": 8,
              "duration": 0.23541666666666666
            },
            {
              "pitch": 38,
              "velocity": 86,
              "position": 8.010416666666666,
              "duration": 0.475
            },
            {
              "pitch": 67,
              "velocity": 24,
              "position": 6.5,
              "duration": 1.9854166666666666
            },
            {
              "pitch": 99,
              "velocity": 55,
              "position": 8.5,
              "duration": 0.23541666666666666
            },
            {
              "pitch": 38,
              "velocity": 84,
              "position": 8.5,
              "duration": 0.48541666666666666
            },
            {
              "pitch": 98,
              "velocity": 70,
              "position": 9,
              "duration": 0.23541666666666666
            },
            {
              "pitch": 72,
              "velocity": 34,
              "position": 7.5,
              "duration": 1.9854166666666666
            },
            {
              "pitch": 38,
              "velocity": 86,
              "position": 9,
              "duration": 0.48541666666666666
            },
            {
              "pitch": 97,
              "velocity": 57,
              "position": 9.5,
              "duration": 0.23541666666666666
            },
            {
              "pitch": 38,
              "velocity": 84,
              "position": 9.5,
              "duration": 0.48541666666666666
            },
            {
              "pitch": 102,
              "velocity": 70,
              "position": 10,
              "duration": 0.23541666666666666
            },
            {
              "pitch": 67,
              "velocity": 24,
              "position": 8.5,
              "duration": 1.9854166666666666
            },
            {
              "pitch": 38,
              "velocity": 86,
              "position": 10,
              "duration": 0.48541666666666666
            },
            {
              "pitch": 99,
              "velocity": 70,
              "position": 10.5,
              "duration": 0.23541666666666666
            },
            {
              "pitch": 38,
              "velocity": 84,
              "position": 10.5,
              "duration": 0.48541666666666666
            },
            {
              "pitch": 98,
              "velocity": 55,
              "position": 11,
              "duration": 0.23541666666666666
            },
            {
              "pitch": 38,
              "velocity": 86,
              "position": 11,
              "duration": 0.48541666666666666
            },
            {
              "pitch": 97,
              "velocity": 59,
              "position": 11.5,
              "duration": 0.23541666666666666
            },
            {
              "pitch": 74,
              "velocity": 32,
              "position": 9.5,
              "duration": 2.4854166666666666
            },
            {
              "pitch": 38,
              "velocity": 84,
              "position": 11.5,
              "duration": 0.48541666666666666
            },
            {
              "pitch": 100,
              "velocity": 70,
              "position": 12,
              "duration": 0.23541666666666666
            },
            {
              "pitch": 39,
              "velocity": 86,
              "position": 12,
              "duration": 0.48541666666666666
            },
            {
              "pitch": 99,
              "velocity": 55,
              "position": 12.5,
              "duration": 0.23541666666666666
            },
            {
              "pitch": 67,
              "velocity": 18,
              "position": 10.5,
              "duration": 2.4854166666666666
            },
            {
              "pitch": 39,
              "velocity": 84,
              "position": 12.5,
              "duration": 0.48541666666666666
            },
            {
              "pitch": 98,
              "velocity": 70,
              "position": 13,
              "duration": 0.23541666666666666
            },
            {
              "pitch": 39,
              "velocity": 86,
              "position": 13,
              "duration": 0.48541666666666666
            },
            {
              "pitch": 72,
              "velocity": 34,
              "position": 12,
              "duration": 1.4854166666666666
            },
            {
              "pitch": 99,
              "velocity": 57,
              "position": 13.5,
              "duration": 0.23541666666666666
            },
            {
              "pitch": 39,
              "velocity": 84,
              "position": 13.5,
              "duration": 0.48541666666666666
            },
            {
              "pitch": 102,
              "velocity": 70,
              "position": 14,
              "duration": 0.23541666666666666
            },
            {
              "pitch": 67,
              "velocity": 24,
              "position": 13,
              "duration": 1.4854166666666666
            },
            {
              "pitch": 39,
              "velocity": 86,
              "position": 14,
              "duration": 0.48541666666666666
            },
            {
              "pitch": 99,
              "velocity": 70,
              "position": 14.5,
              "duration": 0.23541666666666666
            },
            {
              "pitch": 39,
              "velocity": 84,
              "position": 14.5,
              "duration": 0.48541666666666666
            },
            {
              "pitch": 98,
              "velocity": 55,
              "position": 15,
              "duration": 0.23541666666666666
            },
            {
              "pitch": 74,
              "velocity": 32,
              "position": 13.5,
              "duration": 1.9854166666666666
            },
            {
              "pitch": 39,
              "velocity": 86,
              "position": 15,
              "duration": 0.48541666666666666
            },
            {
              "pitch": 97,
              "velocity": 59,
              "position": 15.5,
              "duration": 0.23541666666666666
            },
            {
              "pitch": 39,
              "velocity": 84,
              "position": 15.5,
              "duration": 0.49583333333333335
            },
            {
              "pitch": 100,
              "velocity": 70,
              "position": 16,
              "duration": 0.23541666666666666
            },
            {
              "pitch": 41,
              "velocity": 86,
              "position": 16.010416666666668,
              "duration": 0.475
            },
            {
              "pitch": 67,
              "velocity": 24,
              "position": 14.5,
              "duration": 1.9854166666666666
            },
            {
              "pitch": 99,
              "velocity": 55,
              "position": 16.5,
              "duration": 0.23541666666666666
            },
            {
              "pitch": 41,
              "velocity": 84,
              "position": 16.5,
              "duration": 0.48541666666666666
            },
            {
              "pitch": 98,
              "velocity": 70,
              "position": 17,
              "duration": 0.23541666666666666
            },
            {
              "pitch": 72,
              "velocity": 34,
              "position": 15.5,
              "duration": 1.9854166666666666
            },
            {
              "pitch": 41,
              "velocity": 86,
              "position": 17,
              "duration": 0.48541666666666666
            },
            {
              "pitch": 97,
              "velocity": 57,
              "position": 17.5,
              "duration": 0.23541666666666666
            },
            {
              "pitch": 41,
              "velocity": 84,
              "position": 17.5,
              "duration": 0.48541666666666666
            },
            {
              "pitch": 102,
              "velocity": 70,
              "position": 18,
              "duration": 0.23541666666666666
            },
            {
              "pitch": 74,
              "velocity": 26,
              "position": 17.5,
              "duration": 0.975
            },
            {
              "pitch": 41,
              "velocity": 86,
              "position": 18,
              "duration": 0.48541666666666666
            },
            {
              "pitch": 67,
              "velocity": 24,
              "position": 16.5,
              "duration": 1.9854166666666666
            },
            {
              "pitch": 99,
              "velocity": 70,
              "position": 18.5,
              "duration": 0.23541666666666666
            },
            {
              "pitch": 77,
              "velocity": 116,
              "position": 18.5,
              "duration": 0.475
            },
            {
              "pitch": 41,
              "velocity": 84,
              "position": 18.5,
              "duration": 0.48541666666666666
            },
            {
              "pitch": 98,
              "velocity": 55,
              "position": 19,
              "duration": 0.23541666666666666
            },
            {
              "pitch": 75,
              "velocity": 98,
              "position": 19,
              "duration": 0.475
            },
            {
              "pitch": 39,
              "velocity": 86,
              "position": 19,
              "duration": 0.48541666666666666
            },
            {
              "pitch": 97,
              "velocity": 59,
              "position": 19.5,
              "duration": 0.23541666666666666
            },
            {
              "pitch": 74,
              "velocity": 100,
              "position": 19.5,
              "duration": 0.475
            },
            {
              "pitch": 38,
              "velocity": 84,
              "position": 19.5,
              "duration": 0.48541666666666666
            },
            {
              "pitch": 100,
              "velocity": 70,
              "position": 20,
              "duration": 0.23541666666666666
            },
            {
              "pitch": 36,
              "velocity": 86,
              "position": 20,
              "duration": 0.48541666666666666
            },
            {
              "pitch": 99,
              "velocity": 55,
              "position": 20.5,
              "duration": 0.23541666666666666
            },
            {
              "pitch": 67,
              "velocity": 18,
              "position": 18.5,
              "duration": 2.4854166666666666
            },
            {
              "pitch": 36,
              "velocity": 84,
              "position": 20.5,
              "duration": 0.48541666666666666
            },
            {
              "pitch": 98,
              "velocity": 70,
              "position": 21,
              "duration": 0.23541666666666666
            },
            {
              "pitch": 36,
              "velocity": 86,
              "position": 21,
              "duration": 0.48541666666666666
            },
            {
              "pitch": 72,
              "velocity": 34,
              "position": 20,
              "duration": 1.4854166666666666
            },
            {
              "pitch": 99,
              "velocity": 57,
              "position": 21.5,
              "duration": 0.23541666666666666
            },
            {
              "pitch": 36,
              "velocity": 84,
              "position": 21.5,
              "duration": 0.48541666666666666
            },
            {
              "pitch": 102,
              "velocity": 70,
              "position": 22,
              "duration": 0.23541666666666666
            },
            {
              "pitch": 67,
              "velocity": 24,
              "position": 21,
              "duration": 1.4854166666666666
            },
            {
              "pitch": 36,
              "velocity": 86,
              "position": 22,
              "duration": 0.48541666666666666
            },
            {
              "pitch": 99,
              "velocity": 70,
              "position": 22.5,
              "duration": 0.23541666666666666
            },
            {
              "pitch": 36,
              "velocity": 84,
              "position": 22.5,
              "duration": 0.48541666666666666
            },
            {
              "pitch": 98,
              "velocity": 55,
              "position": 23,
              "duration": 0.23541666666666666
            },
            {
              "pitch": 74,
              "velocity": 32,
              "position": 21.5,
              "duration": 1.9854166666666666
            },
            {
              "pitch": 36,
              "velocity": 86,
              "position": 23,
              "duration": 0.48541666666666666
            },
            {
              "pitch": 97,
              "velocity": 59,
              "position": 23.5,
              "duration": 0.23541666666666666
            },
            {
              "pitch": 36,
              "velocity": 84,
              "position": 23.5,
              "duration": 0.49583333333333335
            },
            {
              "pitch": 100,
              "velocity": 70,
              "position": 24,
              "duration": 0.23541666666666666
            },
            {
              "pitch": 38,
              "velocity": 86,
              "position": 24.010416666666668,
              "duration": 0.475
            },
            {
              "pitch": 67,
              "velocity": 24,
              "position": 22.5,
              "duration": 1.9854166666666666
            },
            {
              "pitch": 99,
              "velocity": 55,
              "position": 24.5,
              "duration": 0.23541666666666666
            },
            {
              "pitch": 38,
              "velocity": 84,
              "position": 24.5,
              "duration": 0.48541666666666666
            },
            {
              "pitch": 98,
              "velocity": 70,
              "position": 25,
              "duration": 0.23541666666666666
            },
            {
              "pitch": 72,
              "velocity": 34,
              "position": 23.5,
              "duration": 1.9854166666666666
            },
            {
              "pitch": 38,
              "velocity": 86,
              "position": 25,
              "duration": 0.48541666666666666
            },
            {
              "pitch": 97,
              "velocity": 57,
              "position": 25.5,
              "duration": 0.23541666666666666
            },
            {
              "pitch": 38,
              "velocity": 84,
              "position": 25.5,
              "duration": 0.48541666666666666
            },
            {
              "pitch": 102,
              "velocity": 70,
              "position": 26,
              "duration": 0.23541666666666666
            },
            {
              "pitch": 67,
              "velocity": 24,
              "position": 24.5,
              "duration": 1.9854166666666666
            },
            {
              "pitch": 38,
              "velocity": 86,
              "position": 26,
              "duration": 0.48541666666666666
            },
            {
              "pitch": 99,
              "velocity": 70,
              "position": 26.5,
              "duration": 0.23541666666666666
            },
            {
              "pitch": 38,
              "velocity": 84,
              "position": 26.5,
              "duration": 0.48541666666666666
            },
            {
              "pitch": 98,
              "velocity": 55,
              "position": 27,
              "duration": 0.23541666666666666
            },
            {
              "pitch": 38,
              "velocity": 86,
              "position": 27,
              "duration": 0.48541666666666666
            },
            {
              "pitch": 97,
              "velocity": 59,
              "position": 27.5,
              "duration": 0.23541666666666666
            },
            {
              "pitch": 74,
              "velocity": 32,
              "position": 25.5,
              "duration": 2.4854166666666666
            },
            {
              "pitch": 38,
              "velocity": 84,
              "position": 27.5,
              "duration": 0.48541666666666666
            },
            {
              "pitch": 100,
              "velocity": 70,
              "position": 28,
              "duration": 0.23541666666666666
            },
            {
              "pitch": 39,
              "velocity": 86,
              "position": 28,
              "duration": 0.48541666666666666
            },
            {
              "pitch": 99,
              "velocity": 55,
              "position": 28.5,
              "duration": 0.23541666666666666
            },
            {
              "pitch": 67,
              "velocity": 18,
              "position": 26.5,
              "duration": 2.4854166666666666
            },
            {
              "pitch": 39,
              "velocity": 84,
              "position": 28.5,
              "duration": 0.48541666666666666
            },
            {
              "pitch": 98,
              "velocity": 70,
              "position": 29,
              "duration": 0.23541666666666666
            },
            {
              "pitch": 39,
              "velocity": 86,
              "position": 29,
              "duration": 0.48541666666666666
            },
            {
              "pitch": 72,
              "velocity": 34,
              "position": 28,
              "duration": 1.4854166666666666
            },
            {
              "pitch": 99,
              "velocity": 57,
              "position": 29.5,
              "duration": 0.23541666666666666
            },
            {
              "pitch": 39,
              "velocity": 84,
              "position": 29.5,
              "duration": 0.48541666666666666
            },
            {
              "pitch": 102,
              "velocity": 70,
              "position": 30,
              "duration": 0.23541666666666666
            },
            {
              "pitch": 67,
              "velocity": 24,
              "position": 29,
              "duration": 1.4854166666666666
            },
            {
              "pitch": 39,
              "velocity": 86,
              "position": 30,
              "duration": 0.48541666666666666
            },
            {
              "pitch": 99,
              "velocity": 70,
              "position": 30.5,
              "duration": 0.23541666666666666
            },
            {
              "pitch": 39,
              "velocity": 84,
              "position": 30.5,
              "duration": 0.48541666666666666
            },
            {
              "pitch": 98,
              "velocity": 55,
              "position": 31,
              "duration": 0.23541666666666666
            },
            {
              "pitch": 74,
              "velocity": 32,
              "position": 29.5,
              "duration": 1.9854166666666666
            },
            {
              "pitch": 39,
              "velocity": 86,
              "position": 31,
              "duration": 0.48541666666666666
            },
            {
              "pitch": 97,
              "velocity": 59,
              "position": 31.5,
              "duration": 0.23541666666666666
            },
            {
              "pitch": 100,
              "velocity": 70,
              "position": 32,
              "duration": 0.23541666666666666
            },
            {
              "pitch": 67,
              "velocity": 24,
              "position": 30.5,
              "duration": 1.9854166666666666
            },
            {
              "pitch": 43,
              "velocity": 84,
              "position": 31.5,
              "duration": 0.9854166666666667
            },
            {
              "pitch": 99,
              "velocity": 55,
              "position": 32.5,
              "duration": 0.23541666666666666
            },
            {
              "pitch": 43,
              "velocity": 84,
              "position": 32.5,
              "duration": 0.48541666666666666
            },
            {
              "pitch": 98,
              "velocity": 70,
              "position": 33,
              "duration": 0.23541666666666666
            },
            {
              "pitch": 72,
              "velocity": 34,
              "position": 31.5,
              "duration": 1.9854166666666666
            },
            {
              "pitch": 43,
              "velocity": 86,
              "position": 33,
              "duration": 0.48541666666666666
            },
            {
              "pitch": 97,
              "velocity": 57,
              "position": 33.5,
              "duration": 0.23541666666666666
            },
            {
              "pitch": 43,
              "velocity": 84,
              "position": 33.5,
              "duration": 0.48541666666666666
            },
            {
              "pitch": 102,
              "velocity": 70,
              "position": 34,
              "duration": 0.23541666666666666
            },
            {
              "pitch": 67,
              "velocity": 24,
              "position": 32.5,
              "duration": 1.9854166666666666
            },
            {
              "pitch": 43,
              "velocity": 86,
              "position": 34,
              "duration": 0.48541666666666666
            },
            {
              "pitch": 99,
              "velocity": 70,
              "position": 34.5,
              "duration": 0.23541666666666666
            },
            {
              "pitch": 43,
              "velocity": 84,
              "position": 34.5,
              "duration": 0.48541666666666666
            },
            {
              "pitch": 98,
              "velocity": 55,
              "position": 35,
              "duration": 0.23541666666666666
            },
            {
              "pitch": 43,
              "velocity": 86,
              "position": 35,
              "duration": 0.48541666666666666
            },
            {
              "pitch": 97,
              "velocity": 59,
              "position": 35.5,
              "duration": 0.23541666666666666
            },
            {
              "pitch": 74,
              "velocity": 32,
              "position": 33.5,
              "duration": 2.4854166666666666
            },
            {
              "pitch": 43,
              "velocity": 84,
              "position": 35.5,
              "duration": 0.48541666666666666
            },
            {
              "pitch": 67,
              "velocity": 18,
              "position": 34.5,
              "duration": 1.4854166666666666
            }
          ]
        },
        "6": {
          "ctab": {
            "srcChannel": 6,
            "name": "Str m",
            "accType": "PHRASE2",
            "editable": false,
            "mutedNotes": [],
            "mutedChords": [
              "1+2+5",
              "sus4",
              "1+5",
              "1+8",
              "7aug",
              "Maj7aug",
              "7(#9)",
              "7(b13)",
              "7(b9)",
              "7(13)",
              "7#11",
              "7(9)",
              "7b5",
              "7sus4",
              "7th",
              "aug",
              "Maj6(9)",
              "Maj7(9)",
              "Maj(9)",
              "Maj7#11",
              "Maj7",
              "Maj6",
              "Maj"
            ],
            "autoStart": false,
            "sourceChordNote": 0,
            "sourceChordType": "min",
            "ctb2Low": null,
            "ctb2Main": {
              "ntr": "ROOT_TRANSPOSITION",
              "ntt": "BYPASS",
              "bassOn": false,
              "chordRootUpperLimit": 10,
              "noteLowLimit": 54,
              "noteHighLimit": 65,
              "rtr": "PITCH_SHIFT"
            },
            "ctb2High": null
          },
          "notes": [
            {
              "pitch": 55,
              "velocity": 51,
              "position": 4,
              "duration": 3.475
            },
            {
              "pitch": 63,
              "velocity": 51,
              "position": 4,
              "duration": 3.475
            },
            {
              "pitch": 60,
              "velocity": 51,
              "position": 4,
              "duration": 3.475
            },
            {
              "pitch": 55,
              "velocity": 109,
              "position": 7.489583333333333,
              "duration": 4.485416666666667
            },
            {
              "pitch": 65,
              "velocity": 51,
              "position": 7.489583333333333,
              "duration": 4.485416666666667
            },
            {
              "pitch": 60,
              "velocity": 109,
              "position": 7.489583333333333,
              "duration": 4.485416666666667
            },
            {
              "pitch": 55,
              "velocity": 51,
              "position": 11.989583333333334,
              "duration": 3.4854166666666666
            },
            {
              "pitch": 63,
              "velocity": 51,
              "position": 11.989583333333334,
              "duration": 3.4854166666666666
            },
            {
              "pitch": 60,
              "velocity": 51,
              "position": 11.989583333333334,
              "duration": 3.4854166666666666
            },
            {
              "pitch": 55,
              "velocity": 109,
              "position": 15.489583333333334,
              "duration": 4.475
            },
            {
              "pitch": 65,
              "velocity": 51,
              "position": 15.489583333333334,
              "duration": 4.475
            },
            {
              "pitch": 60,
              "velocity": 109,
              "position": 15.489583333333334,
              "duration": 4.475
            },
            {
              "pitch": 55,
              "velocity": 51,
              "position": 19.989583333333332,
              "duration": 3.4854166666666666
            },
            {
              "pitch": 63,
              "velocity": 51,
              "position": 19.989583333333332,
              "duration": 3.4854166666666666
            },
            {
              "pitch": 60,
              "velocity": 51,
              "position": 19.989583333333332,
              "duration": 3.4854166666666666
            },
            {
              "pitch": 55,
              "velocity": 109,
              "position": 23.489583333333332,
              "duration": 4.485416666666667
            },
            {
              "pitch": 65,
              "velocity": 51,
              "position": 23.489583333333332,
              "duration": 4.485416666666667
            },
            {
              "pitch": 60,
              "velocity": 109,
              "position": 23.489583333333332,
              "duration": 4.485416666666667
            },
            {
              "pitch": 55,
              "velocity": 51,
              "position": 27.989583333333332,
              "duration": 3.4854166666666666
            },
            {
              "pitch": 63,
              "velocity": 51,
              "position": 27.989583333333332,
              "duration": 3.4854166666666666
            },
            {
              "pitch": 60,
              "velocity": 51,
              "position": 27.989583333333332,
              "duration": 3.4854166666666666
            },
            {
              "pitch": 55,
              "velocity": 109,
              "position": 31.489583333333332,
              "duration": 4.454166666666667
            },
            {
              "pitch": 65,
              "velocity": 51,
              "position": 31.489583333333332,
              "duration": 4.454166666666667
            },
            {
              "pitch": 60,
              "velocity": 109,
              "position": 31.489583333333332,
              "duration": 4.454166666666667
            }
          ]
        },
        "8": {
          "ctab": {
            "srcChannel": 8,
            "name": "AddDrum",
            "accType": "SUBRHYTHM",
            "editable": false,
            "mutedNotes": [],
            "mutedChords": [],
            "autoStart": true,
            "sourceChordNote": 0,
            "sourceChordType": "Maj7",
            "ctb2Low": null,
            "ctb2Main": {
              "ntr": "ROOT_FIXED",
              "ntt": "BYPASS",
              "bassOn": false,
              "chordRootUpperLimit": 10,
              "noteLowLimit": 0,
              "noteHighLimit": 127,
              "rtr": "PITCH_SHIFT"
            },
            "ctb2High": null
          },
          "notes": [
            {
              "pitch": 54,
              "velocity": 90,
              "position": 4,
              "duration": 0.058333333333333334
            },
            {
              "pitch": 54,
              "velocity": 50,
              "position": 4.5,
              "duration": 0.058333333333333334
            },
            {
              "pitch": 54,
              "velocity": 90,
              "position": 4.99375,
              "duration": 0.058333333333333334
            },
            {
              "pitch": 54,
              "velocity": 50,
              "position": 5.5,
              "duration": 0.058333333333333334
            },
            {
              "pitch": 54,
              "velocity": 90,
              "position": 6,
              "duration": 0.058333333333333334
            },
            {
              "pitch": 54,
              "velocity": 50,
              "position": 6.5,
              "duration": 0.058333333333333334
            },
            {
              "pitch": 54,
              "velocity": 90,
              "position": 7,
              "duration": 0.058333333333333334
            },
            {
              "pitch": 54,
              "velocity": 50,
              "position": 7.5,
              "duration": 0.058333333333333334
            },
            {
              "pitch": 54,
              "velocity": 90,
              "position": 8,
              "duration": 0.058333333333333334
            },
            {
              "pitch": 54,
              "velocity": 50,
              "position": 8.5,
              "duration": 0.058333333333333334
            },
            {
              "pitch": 54,
              "velocity": 90,
              "position": 9,
              "duration": 0.058333333333333334
            },
            {
              "pitch": 54,
              "velocity": 50,
              "position": 9.5,
              "duration": 0.058333333333333334
            },
            {
              "pitch": 54,
              "velocity": 90,
              "position": 10,
              "duration": 0.058333333333333334
            },
            {
              "pitch": 54,
              "velocity": 50,
              "position": 10.5,
              "duration": 0.058333333333333334
            },
            {
              "pitch": 54,
              "velocity": 90,
              "position": 11,
              "duration": 0.058333333333333334
            },
            {
              "pitch": 54,
              "velocity": 50,
              "position": 11.5,
              "duration": 0.058333333333333334
            },
            {
              "pitch": 54,
              "velocity": 90,
              "position": 12,
              "duration": 0.058333333333333334
            },
            {
              "pitch": 54,
              "velocity": 50,
              "position": 12.5,
              "duration": 0.058333333333333334
            },
            {
              "pitch": 54,
              "velocity": 90,
              "position": 12.99375,
              "duration": 0.058333333333333334
            },
            {
              "pitch": 54,
              "velocity": 50,
              "position": 13.5,
              "duration": 0.058333333333333334
            },
            {
              "pitch": 54,
              "velocity": 90,
              "position": 14,
              "duration": 0.058333333333333334
            },
            {
              "pitch": 54,
              "velocity": 50,
              "position": 14.5,
              "duration": 0.058333333333333334
            },
            {
              "pitch": 54,
              "velocity": 90,
              "position": 15,
              "duration": 0.058333333333333334
            },
            {
              "pitch": 54,
              "velocity": 50,
              "position": 15.5,
              "duration": 0.058333333333333334
            },
            {
              "pitch": 54,
              "velocity": 90,
              "position": 16,
              "duration": 0.058333333333333334
            },
            {
              "pitch": 54,
              "velocity": 50,
              "position": 16.5,
              "duration": 0.058333333333333334
            },
            {
              "pitch": 54,
              "velocity": 90,
              "position": 16.99375,
              "duration": 0.058333333333333334
            },
            {
              "pitch": 54,
              "velocity": 50,
              "position": 17.5,
              "duration": 0.058333333333333334
            },
            {
              "pitch": 54,
              "velocity": 90,
              "position": 17.99375,
              "duration": 0.058333333333333334
            },
            {
              "pitch": 54,
              "velocity": 50,
              "position": 18.5,
              "duration": 0.058333333333333334
            },
            {
              "pitch": 54,
              "velocity": 90,
              "position": 19,
              "duration": 0.058333333333333334
            },
            {
              "pitch": 54,
              "velocity": 50,
              "position": 19.5,
              "duration": 0.058333333333333334
            },
            {
              "pitch": 54,
              "velocity": 90,
              "position": 20,
              "duration": 0.058333333333333334
            },
            {
              "pitch": 54,
              "velocity": 50,
              "position": 20.5,
              "duration": 0.058333333333333334
            },
            {
              "pitch": 54,
              "velocity": 90,
              "position": 20.99375,
              "duration": 0.058333333333333334
            },
            {
              "pitch": 54,
              "velocity": 50,
              "position": 21.5,
              "duration": 0.058333333333333334
            },
            {
              "pitch": 54,
              "velocity": 90,
              "position": 22,
              "duration": 0.058333333333333334
            },
            {
              "pitch": 54,
              "velocity": 50,
              "position": 22.5,
              "duration": 0.058333333333333334
            },
            {
              "pitch": 54,
              "velocity": 90,
              "position": 23,
              "duration": 0.058333333333333334
            },
            {
              "pitch": 54,
              "velocity": 50,
              "position": 23.5,
              "duration": 0.058333333333333334
            },
            {
              "pitch": 54,
              "velocity": 90,
              "position": 24,
              "duration": 0.058333333333333334
            },
            {
              "pitch": 54,
              "velocity": 50,
              "position": 24.5,
              "duration": 0.058333333333333334
            },
            {
              "pitch": 54,
              "velocity": 90,
              "position": 25,
              "duration": 0.058333333333333334
            },
            {
              "pitch": 54,
              "velocity": 50,
              "position": 25.5,
              "duration": 0.058333333333333334
            },
            {
              "pitch": 54,
              "velocity": 90,
              "position": 26,
              "duration": 0.058333333333333334
            },
            {
              "pitch": 54,
              "velocity": 50,
              "position": 26.5,
              "duration": 0.058333333333333334
            },
            {
              "pitch": 54,
              "velocity": 90,
              "position": 27,
              "duration": 0.058333333333333334
            },
            {
              "pitch": 54,
              "velocity": 50,
              "position": 27.5,
              "duration": 0.058333333333333334
            },
            {
              "pitch": 54,
              "velocity": 90,
              "position": 28,
              "duration": 0.058333333333333334
            },
            {
              "pitch": 54,
              "velocity": 50,
              "position": 28.5,
              "duration": 0.058333333333333334
            },
            {
              "pitch": 54,
              "velocity": 90,
              "position": 28.99375,
              "duration": 0.058333333333333334
            },
            {
              "pitch": 54,
              "velocity": 50,
              "position": 29.5,
              "duration": 0.058333333333333334
            },
            {
              "pitch": 54,
              "velocity": 90,
              "position": 30,
              "duration": 0.058333333333333334
            },
            {
              "pitch": 54,
              "velocity": 50,
              "position": 30.5,
              "duration": 0.058333333333333334
            },
            {
              "pitch": 54,
              "velocity": 90,
              "position": 31,
              "duration": 0.058333333333333334
            },
            {
              "pitch": 54,
              "velocity": 50,
              "position": 31.5,
              "duration": 0.058333333333333334
            },
            {
              "pitch": 54,
              "velocity": 90,
              "position": 32,
              "duration": 0.058333333333333334
            },
            {
              "pitch": 54,
              "velocity": 50,
              "position": 32.5,
              "duration": 0.058333333333333334
            },
            {
              "pitch": 54,
              "velocity": 90,
              "position": 32.99375,
              "duration": 0.058333333333333334
            },
            {
              "pitch": 54,
              "velocity": 50,
              "position": 33.5,
              "duration": 0.058333333333333334
            },
            {
              "pitch": 54,
              "velocity": 90,
              "position": 33.99375,
              "duration": 0.058333333333333334
            },
            {
              "pitch": 54,
              "velocity": 50,
              "position": 34.5,
              "duration": 0.058333333333333334
            },
            {
              "pitch": 54,
              "velocity": 90,
              "position": 35,
              "duration": 0.058333333333333334
            },
            {
              "pitch": 54,
              "velocity": 50,
              "position": 35.5,
              "duration": 0.058333333333333334
            }
          ]
        },
        "9": {
          "ctab": {
            "srcChannel": 9,
            "name": "MainDrum",
            "accType": "RHYTHM",
            "editable": false,
            "mutedNotes": [],
            "mutedChords": [],
            "autoStart": true,
            "sourceChordNote": 0,
            "sourceChordType": "Maj7",
            "ctb2Low": null,
            "ctb2Main": {
              "ntr": "ROOT_FIXED",
              "ntt": "BYPASS",
              "bassOn": false,
              "chordRootUpperLimit": 6,
              "noteLowLimit": 0,
              "noteHighLimit": 127,
              "rtr": "PITCH_SHIFT"
            },
            "ctb2High": null
          },
          "notes": [
            {
              "pitch": 32,
              "velocity": 104,
              "position": 0,
              "duration": 0.00625
            },
            {
              "pitch": 32,
              "velocity": 104,
              "position": 1,
              "duration": 0.00625
            },
            {
              "pitch": 32,
              "velocity": 104,
              "position": 2,
              "duration": 0.00625
            },
            {
              "pitch": 38,
              "velocity": 89,
              "position": 3,
              "duration": 0.00625
            },
            {
              "pitch": 38,
              "velocity": 113,
              "position": 3.0833333333333335,
              "duration": 0.00625
            },
            {
              "pitch": 35,
              "velocity": 107,
              "position": 4,
              "duration": 0.00625
            },
            {
              "pitch": 57,
              "velocity": 91,
              "position": 4,
              "duration": 0.00625
            },
            {
              "pitch": 44,
              "velocity": 70,
              "position": 4,
              "duration": 0.00625
            },
            {
              "pitch": 53,
              "velocity": 57,
              "position": 4.5,
              "duration": 0.00625
            },
            {
              "pitch": 38,
              "velocity": 111,
              "position": 5,
              "duration": 0.00625
            },
            {
              "pitch": 53,
              "velocity": 96,
              "position": 5,
              "duration": 0.00625
            },
            {
              "pitch": 44,
              "velocity": 70,
              "position": 5,
              "duration": 0.00625
            },
            {
              "pitch": 53,
              "velocity": 48,
              "position": 5.5,
              "duration": 0.00625
            },
            {
              "pitch": 35,
              "velocity": 108,
              "position": 6,
              "duration": 0.00625
            },
            {
              "pitch": 53,
              "velocity": 93,
              "position": 6,
              "duration": 0.00625
            },
            {
              "pitch": 44,
              "velocity": 70,
              "position": 6,
              "duration": 0.00625
            },
            {
              "pitch": 35,
              "velocity": 90,
              "position": 6.5,
              "duration": 0.00625
            },
            {
              "pitch": 53,
              "velocity": 62,
              "position": 6.5,
              "duration": 0.00625
            },
            {
              "pitch": 38,
              "velocity": 111,
              "position": 7,
              "duration": 0.00625
            },
            {
              "pitch": 53,
              "velocity": 93,
              "position": 7,
              "duration": 0.00625
            },
            {
              "pitch": 44,
              "velocity": 70,
              "position": 7,
              "duration": 0.00625
            },
            {
              "pitch": 53,
              "velocity": 56,
              "position": 7.5,
              "duration": 0.00625
            },
            {
              "pitch": 35,
              "velocity": 107,
              "position": 8,
              "duration": 0.00625
            },
            {
              "pitch": 53,
              "velocity": 93,
              "position": 8,
              "duration": 0.00625
            },
            {
              "pitch": 44,
              "velocity": 70,
              "position": 8,
              "duration": 0.00625
            },
            {
              "pitch": 53,
              "velocity": 68,
              "position": 8.5,
              "duration": 0.00625
            },
            {
              "pitch": 38,
              "velocity": 111,
              "position": 9,
              "duration": 0.00625
            },
            {
              "pitch": 53,
              "velocity": 96,
              "position": 9,
              "duration": 0.00625
            },
            {
              "pitch": 44,
              "velocity": 70,
              "position": 9,
              "duration": 0.00625
            },
            {
              "pitch": 53,
              "velocity": 57,
              "position": 9.5,
              "duration": 0.00625
            },
            {
              "pitch": 35,
              "velocity": 108,
              "position": 10,
              "duration": 0.00625
            },
            {
              "pitch": 53,
              "velocity": 93,
              "position": 10,
              "duration": 0.00625
            },
            {
              "pitch": 44,
              "velocity": 70,
              "position": 10,
              "duration": 0.00625
            },
            {
              "pitch": 35,
              "velocity": 90,
              "position": 10.5,
              "duration": 0.00625
            },
            {
              "pitch": 53,
              "velocity": 87,
              "position": 10.5,
              "duration": 0.00625
            },
            {
              "pitch": 38,
              "velocity": 111,
              "position": 11,
              "duration": 0.00625
            },
            {
              "pitch": 53,
              "velocity": 91,
              "position": 11,
              "duration": 0.00625
            },
            {
              "pitch": 44,
              "velocity": 70,
              "position": 11,
              "duration": 0.00625
            },
            {
              "pitch": 35,
              "velocity": 109,
              "position": 11.5,
              "duration": 0.00625
            },
            {
              "pitch": 57,
              "velocity": 86,
              "position": 11.5,
              "duration": 0.00625
            },
            {
              "pitch": 35,
              "velocity": 109,
              "position": 12,
              "duration": 0.00625
            },
            {
              "pitch": 49,
              "velocity": 70,
              "position": 12,
              "duration": 0.00625
            },
            {
              "pitch": 44,
              "velocity": 70,
              "position": 12,
              "duration": 0.00625
            },
            {
              "pitch": 53,
              "velocity": 54,
              "position": 12.5,
              "duration": 0.00625
            },
            {
              "pitch": 38,
              "velocity": 111,
              "position": 13,
              "duration": 0.00625
            },
            {
              "pitch": 53,
              "velocity": 96,
              "position": 13,
              "duration": 0.00625
            },
            {
              "pitch": 44,
              "velocity": 70,
              "position": 13,
              "duration": 0.00625
            },
            {
              "pitch": 53,
              "velocity": 71,
              "position": 13.5,
              "duration": 0.00625
            },
            {
              "pitch": 35,
              "velocity": 108,
              "position": 14,
              "duration": 0.00625
            },
            {
              "pitch": 53,
              "velocity": 93,
              "position": 14,
              "duration": 0.00625
            },
            {
              "pitch": 44,
              "velocity": 70,
              "position": 14,
              "duration": 0.00625
            },
            {
              "pitch": 35,
              "velocity": 90,
              "position": 14.5,
              "duration": 0.00625
            },
            {
              "pitch": 53,
              "velocity": 78,
              "position": 14.5,
              "duration": 0.00625
            },
            {
              "pitch": 38,
              "velocity": 111,
              "position": 15,
              "duration": 0.00625
            },
            {
              "pitch": 53,
              "velocity": 96,
              "position": 15,
              "duration": 0.00625
            },
            {
              "pitch": 44,
              "velocity": 70,
              "position": 15,
              "duration": 0.00625
            },
            {
              "pitch": 53,
              "velocity": 73,
              "position": 15.5,
              "duration": 0.00625
            },
            {
              "pitch": 35,
              "velocity": 107,
              "position": 16,
              "duration": 0.00625
            },
            {
              "pitch": 53,
              "velocity": 100,
              "position": 16,
              "duration": 0.00625
            },
            {
              "pitch": 44,
              "velocity": 70,
              "position": 16,
              "duration": 0.00625
            },
            {
              "pitch": 53,
              "velocity": 62,
              "position": 16.5,
              "duration": 0.00625
            },
            {
              "pitch": 38,
              "velocity": 111,
              "position": 17,
              "duration": 0.00625
            },
            {
              "pitch": 53,
              "velocity": 93,
              "position": 17,
              "duration": 0.00625
            },
            {
              "pitch": 44,
              "velocity": 70,
              "position": 17,
              "duration": 0.00625
            },
            {
              "pitch": 53,
              "velocity": 62,
              "position": 17.5,
              "duration": 0.00625
            },
            {
              "pitch": 35,
              "velocity": 108,
              "position": 18,
              "duration": 0.00625
            },
            {
              "pitch": 53,
              "velocity": 93,
              "position": 18,
              "duration": 0.00625
            },
            {
              "pitch": 44,
              "velocity": 70,
              "position": 18,
              "duration": 0.00625
            },
            {
              "pitch": 35,
              "velocity": 90,
              "position": 18.5,
              "duration": 0.00625
            },
            {
              "pitch": 38,
              "velocity": 98,
              "position": 18.5,
              "duration": 0.00625
            },
            {
              "pitch": 38,
              "velocity": 86,
              "position": 19,
              "duration": 0.00625
            },
            {
              "pitch": 44,
              "velocity": 70,
              "position": 19,
              "duration": 0.00625
            },
            {
              "pitch": 38,
              "velocity": 118,
              "position": 19.0625,
              "duration": 0.00625
            },
            {
              "pitch": 35,
              "velocity": 67,
              "position": 19.5,
              "duration": 0.00625
            },
            {
              "pitch": 45,
              "velocity": 85,
              "position": 19.5,
              "duration": 0.00625
            },
            {
              "pitch": 35,
              "velocity": 113,
              "position": 20,
              "duration": 0.00625
            },
            {
              "pitch": 49,
              "velocity": 84,
              "position": 20,
              "duration": 0.00625
            },
            {
              "pitch": 44,
              "velocity": 70,
              "position": 20,
              "duration": 0.00625
            },
            {
              "pitch": 53,
              "velocity": 57,
              "position": 20.5,
              "duration": 0.00625
            },
            {
              "pitch": 38,
              "velocity": 114,
              "position": 21,
              "duration": 0.00625
            },
            {
              "pitch": 53,
              "velocity": 96,
              "position": 21,
              "duration": 0.00625
            },
            {
              "pitch": 44,
              "velocity": 70,
              "position": 21,
              "duration": 0.00625
            },
            {
              "pitch": 53,
              "velocity": 48,
              "position": 21.5,
              "duration": 0.00625
            },
            {
              "pitch": 35,
              "velocity": 108,
              "position": 22,
              "duration": 0.00625
            },
            {
              "pitch": 53,
              "velocity": 93,
              "position": 22,
              "duration": 0.00625
            },
            {
              "pitch": 44,
              "velocity": 70,
              "position": 22,
              "duration": 0.00625
            },
            {
              "pitch": 35,
              "velocity": 90,
              "position": 22.5,
              "duration": 0.00625
            },
            {
              "pitch": 53,
              "velocity": 62,
              "position": 22.5,
              "duration": 0.00625
            },
            {
              "pitch": 38,
              "velocity": 112,
              "position": 23,
              "duration": 0.00625
            },
            {
              "pitch": 53,
              "velocity": 93,
              "position": 23,
              "duration": 0.00625
            },
            {
              "pitch": 44,
              "velocity": 70,
              "position": 23,
              "duration": 0.00625
            },
            {
              "pitch": 53,
              "velocity": 56,
              "position": 23.5,
              "duration": 0.00625
            },
            {
              "pitch": 35,
              "velocity": 107,
              "position": 24,
              "duration": 0.00625
            },
            {
              "pitch": 53,
              "velocity": 93,
              "position": 24,
              "duration": 0.00625
            },
            {
              "pitch": 44,
              "velocity": 70,
              "position": 24,
              "duration": 0.00625
            },
            {
              "pitch": 53,
              "velocity": 68,
              "position": 24.5,
              "duration": 0.00625
            },
            {
              "pitch": 38,
              "velocity": 112,
              "position": 25,
              "duration": 0.00625
            },
            {
              "pitch": 53,
              "velocity": 96,
              "position": 25,
              "duration": 0.00625
            },
            {
              "pitch": 44,
              "velocity": 70,
              "position": 25,
              "duration": 0.00625
            },
            {
              "pitch": 53,
              "velocity": 57,
              "position": 25.5,
              "duration": 0.00625
            },
            {
              "pitch": 35,
              "velocity": 108,
              "position": 26,
              "duration": 0.00625
            },
            {
              "pitch": 53,
              "velocity": 93,
              "position": 26,
              "duration": 0.00625
            },
            {
              "pitch": 44,
              "velocity": 70,
              "position": 26,
              "duration": 0.00625
            },
            {
              "pitch": 35,
              "velocity": 90,
              "position": 26.5,
              "duration": 0.00625
            },
            {
              "pitch": 53,
              "velocity": 62,
              "position": 26.5,
              "duration": 0.00625
            },
            {
              "pitch": 38,
              "velocity": 110,
              "position": 27,
              "duration": 0.00625
            },
            {
              "pitch": 53,
              "velocity": 91,
              "position": 27,
              "duration": 0.00625
            },
            {
              "pitch": 44,
              "velocity": 70,
              "position": 27,
              "duration": 0.00625
            },
            {
              "pitch": 35,
              "velocity": 67,
              "position": 27.5,
              "duration": 0.00625
            },
            {
              "pitch": 53,
              "velocity": 62,
              "position": 27.5,
              "duration": 0.00625
            },
            {
              "pitch": 35,
              "velocity": 107,
              "position": 28,
              "duration": 0.00625
            },
            {
              "pitch": 53,
              "velocity": 100,
              "position": 28,
              "duration": 0.00625
            },
            {
              "pitch": 44,
              "velocity": 70,
              "position": 28,
              "duration": 0.00625
            },
            {
              "pitch": 47,
              "velocity": 82,
              "position": 28.5,
              "duration": 0.00625
            },
            {
              "pitch": 53,
              "velocity": 54,
              "position": 28.5,
              "duration": 0.00625
            },
            {
              "pitch": 38,
              "velocity": 110,
              "position": 29,
              "duration": 0.00625
            },
            {
              "pitch": 53,
              "velocity": 96,
              "position": 29,
              "duration": 0.00625
            },
            {
              "pitch": 47,
              "velocity": 84,
              "position": 29,
              "duration": 0.00625
            },
            {
              "pitch": 44,
              "velocity": 70,
              "position": 29,
              "duration": 0.00625
            },
            {
              "pitch": 45,
              "velocity": 71,
              "position": 29.5,
              "duration": 0.00625
            },
            {
              "pitch": 53,
              "velocity": 71,
              "position": 29.5,
              "duration": 0.00625
            },
            {
              "pitch": 35,
              "velocity": 108,
              "position": 30,
              "duration": 0.00625
            },
            {
              "pitch": 53,
              "velocity": 93,
              "position": 30,
              "duration": 0.00625
            },
            {
              "pitch": 45,
              "velocity": 84,
              "position": 30,
              "duration": 0.00625
            },
            {
              "pitch": 44,
              "velocity": 70,
              "position": 30,
              "duration": 0.00625
            },
            {
              "pitch": 35,
              "velocity": 90,
              "position": 30.5,
              "duration": 0.00625
            },
            {
              "pitch": 53,
              "velocity": 62,
              "position": 30.5,
              "duration": 0.00625
            },
            {
              "pitch": 43,
              "velocity": 93,
              "position": 30.5,
              "duration": 0.00625
            },
            {
              "pitch": 38,
              "velocity": 89,
              "position": 31,
              "duration": 0.00625
            },
            {
              "pitch": 53,
              "velocity": 96,
              "position": 31,
              "duration": 0.00625
            },
            {
              "pitch": 44,
              "velocity": 70,
              "position": 31,
              "duration": 0.00625
            },
            {
              "pitch": 38,
              "velocity": 122,
              "position": 31.0625,
              "duration": 0.00625
            },
            {
              "pitch": 35,
              "velocity": 121,
              "position": 31.5,
              "duration": 0.00625
            },
            {
              "pitch": 57,
              "velocity": 94,
              "position": 31.5,
              "duration": 0.00625
            },
            {
              "pitch": 44,
              "velocity": 70,
              "position": 32,
              "duration": 0.00625
            },
            {
              "pitch": 53,
              "velocity": 100,
              "position": 32,
              "duration": 0.00625
            },
            {
              "pitch": 41,
              "velocity": 72,
              "position": 32.5,
              "duration": 0.00625
            },
            {
              "pitch": 53,
              "velocity": 62,
              "position": 32.5,
              "duration": 0.00625
            },
            {
              "pitch": 48,
              "velocity": 72,
              "position": 32.5,
              "duration": 0.00625
            },
            {
              "pitch": 35,
              "velocity": 119,
              "position": 33,
              "duration": 0.00625
            },
            {
              "pitch": 53,
              "velocity": 93,
              "position": 33,
              "duration": 0.00625
            },
            {
              "pitch": 48,
              "velocity": 84,
              "position": 33,
              "duration": 0.00625
            },
            {
              "pitch": 44,
              "velocity": 70,
              "position": 33,
              "duration": 0.00625
            },
            {
              "pitch": 41,
              "velocity": 101,
              "position": 33,
              "duration": 0.00625
            },
            {
              "pitch": 35,
              "velocity": 47,
              "position": 33.5,
              "duration": 0.00625
            },
            {
              "pitch": 53,
              "velocity": 62,
              "position": 33.5,
              "duration": 0.00625
            },
            {
              "pitch": 45,
              "velocity": 72,
              "position": 33.5,
              "duration": 0.00625
            },
            {
              "pitch": 41,
              "velocity": 72,
              "position": 33.5,
              "duration": 0.00625
            },
            {
              "pitch": 35,
              "velocity": 110,
              "position": 34,
              "duration": 0.00625
            },
            {
              "pitch": 53,
              "velocity": 93,
              "position": 34,
              "duration": 0.00625
            },
            {
              "pitch": 45,
              "velocity": 84,
              "position": 34,
              "duration": 0.00625
            },
            {
              "pitch": 44,
              "velocity": 70,
              "position": 34,
              "duration": 0.00625
            },
            {
              "pitch": 41,
              "velocity": 101,
              "position": 34,
              "duration": 0.00625
            },
            {
              "pitch": 35,
              "velocity": 79,
              "position": 34.5,
              "duration": 0.00625
            },
            {
              "pitch": 53,
              "velocity": 62,
              "position": 34.5,
              "duration": 0.00625
            },
            {
              "pitch": 43,
              "velocity": 72,
              "position": 34.5,
              "duration": 0.00625
            },
            {
              "pitch": 41,
              "velocity": 72,
              "position": 34.5,
              "duration": 0.00625
            },
            {
              "pitch": 35,
              "velocity": 110,
              "position": 35,
              "duration": 0.00625
            },
            {
              "pitch": 53,
              "velocity": 92,
              "position": 35,
              "duration": 0.00625
            },
            {
              "pitch": 44,
              "velocity": 70,
              "position": 35,
              "duration": 0.00625
            },
            {
              "pitch": 43,
              "velocity": 84,
              "position": 35,
              "duration": 0.00625
            },
            {
              "pitch": 41,
              "velocity": 101,
              "position": 35,
              "duration": 0.00625
            },
            {
              "pitch": 38,
              "velocity": 69,
              "position": 35.25,
              "duration": 0.00625
            },
            {
              "pitch": 35,
              "velocity": 110,
              "position": 35.5,
              "duration": 0.00625
            },
            {
              "pitch": 53,
              "velocity": 62,
              "position": 35.5,
              "duration": 0.00625
            },
            {
              "pitch": 38,
              "velocity": 114,
              "position": 35.5,
              "duration": 0.00625
            },
            {
              "pitch": 38,
              "velocity": 114,
              "position": 35.75,
              "duration": 0.00625
            },
            {
              "pitch": 49,
              "velocity": 70,
              "position": 35.989583333333336,
              "duration": 0.00625
            }
          ]
        },
        "10": {
          "ctab": {
            "srcChannel": 10,
            "name": "Bass M",
            "accType": "BASS",
            "editable": false,
            "mutedNotes": [],
            "mutedChords": [
              "dim7",
              "dim",
              "minMaj7(9)",
              "minMaj7",
              "min7(11)",
              "min7(9)",
              "min(9)",
              "m7b5",
              "min7",
              "min6",
              "min"
            ],
            "autoStart": false,
            "sourceChordNote": 0,
            "sourceChordType": "Maj",
            "ctb2Low": null,
            "ctb2Main": {
              "ntr": "ROOT_TRANSPOSITION",
              "ntt": "BYPASS",
              "bassOn": false,
              "chordRootUpperLimit": 8,
              "noteLowLimit": 28,
              "noteHighLimit": 51,
              "rtr": "PITCH_SHIFT"
            },
            "ctb2High": null
          },
          "notes": [
            {
              "pitch": 24,
              "velocity": 70,
              "position": 4,
              "duration": 0.43333333333333335
            },
            {
              "pitch": 24,
              "velocity": 50,
              "position": 4.5,
              "duration": 0.43333333333333335
            },
            {
              "pitch": 24,
              "velocity": 70,
              "position": 5,
              "duration": 0.43333333333333335
            },
            {
              "pitch": 24,
              "velocity": 50,
              "position": 5.5,
              "duration": 0.43333333333333335
            },
            {
              "pitch": 24,
              "velocity": 70,
              "position": 6,
              "duration": 0.43333333333333335
            },
            {
              "pitch": 24,
              "velocity": 50,
              "position": 6.5,
              "duration": 0.43333333333333335
            },
            {
              "pitch": 24,
              "velocity": 70,
              "position": 7,
              "duration": 0.43333333333333335
            },
            {
              "pitch": 24,
              "velocity": 50,
              "position": 7.5,
              "duration": 0.43333333333333335
            },
            {
              "pitch": 26,
              "velocity": 70,
              "position": 8,
              "duration": 0.43333333333333335
            },
            {
              "pitch": 26,
              "velocity": 50,
              "position": 8.5,
              "duration": 0.43333333333333335
            },
            {
              "pitch": 26,
              "velocity": 70,
              "position": 9,
              "duration": 0.43333333333333335
            },
            {
              "pitch": 26,
              "velocity": 50,
              "position": 9.5,
              "duration": 0.43333333333333335
            },
            {
              "pitch": 26,
              "velocity": 70,
              "position": 10,
              "duration": 0.43333333333333335
            },
            {
              "pitch": 26,
              "velocity": 50,
              "position": 10.5,
              "duration": 0.43333333333333335
            },
            {
              "pitch": 26,
              "velocity": 70,
              "position": 11,
              "duration": 0.43333333333333335
            },
            {
              "pitch": 26,
              "velocity": 50,
              "position": 11.5,
              "duration": 0.43333333333333335
            },
            {
              "pitch": 28,
              "velocity": 70,
              "position": 12,
              "duration": 0.43333333333333335
            },
            {
              "pitch": 28,
              "velocity": 50,
              "position": 12.5,
              "duration": 0.43333333333333335
            },
            {
              "pitch": 28,
              "velocity": 70,
              "position": 13,
              "duration": 0.43333333333333335
            },
            {
              "pitch": 28,
              "velocity": 50,
              "position": 13.5,
              "duration": 0.43333333333333335
            },
            {
              "pitch": 28,
              "velocity": 70,
              "position": 14,
              "duration": 0.43333333333333335
            },
            {
              "pitch": 28,
              "velocity": 50,
              "position": 14.5,
              "duration": 0.43333333333333335
            },
            {
              "pitch": 28,
              "velocity": 70,
              "position": 15,
              "duration": 0.43333333333333335
            },
            {
              "pitch": 28,
              "velocity": 50,
              "position": 15.5,
              "duration": 0.43333333333333335
            },
            {
              "pitch": 29,
              "velocity": 70,
              "position": 16,
              "duration": 0.43333333333333335
            },
            {
              "pitch": 29,
              "velocity": 50,
              "position": 16.5,
              "duration": 0.43333333333333335
            },
            {
              "pitch": 29,
              "velocity": 70,
              "position": 17,
              "duration": 0.43333333333333335
            },
            {
              "pitch": 29,
              "velocity": 50,
              "position": 17.5,
              "duration": 0.43333333333333335
            },
            {
              "pitch": 29,
              "velocity": 70,
              "position": 18,
              "duration": 0.43333333333333335
            },
            {
              "pitch": 29,
              "velocity": 50,
              "position": 18.5,
              "duration": 0.43333333333333335
            },
            {
              "pitch": 28,
              "velocity": 70,
              "position": 19,
              "duration": 0.43333333333333335
            },
            {
              "pitch": 26,
              "velocity": 50,
              "position": 19.5,
              "duration": 0.43333333333333335
            },
            {
              "pitch": 24,
              "velocity": 70,
              "position": 20,
              "duration": 0.43333333333333335
            },
            {
              "pitch": 24,
              "velocity": 50,
              "position": 20.5,
              "duration": 0.43333333333333335
            },
            {
              "pitch": 24,
              "velocity": 70,
              "position": 21,
              "duration": 0.43333333333333335
            },
            {
              "pitch": 24,
              "velocity": 50,
              "position": 21.5,
              "duration": 0.43333333333333335
            },
            {
              "pitch": 24,
              "velocity": 70,
              "position": 22,
              "duration": 0.43333333333333335
            },
            {
              "pitch": 24,
              "velocity": 50,
              "position": 22.5,
              "duration": 0.43333333333333335
            },
            {
              "pitch": 24,
              "velocity": 70,
              "position": 23,
              "duration": 0.43333333333333335
            },
            {
              "pitch": 24,
              "velocity": 50,
              "position": 23.5,
              "duration": 0.43333333333333335
            },
            {
              "pitch": 26,
              "velocity": 70,
              "position": 24,
              "duration": 0.43333333333333335
            },
            {
              "pitch": 26,
              "velocity": 50,
              "position": 24.5,
              "duration": 0.43333333333333335
            },
            {
              "pitch": 26,
              "velocity": 70,
              "position": 25,
              "duration": 0.43333333333333335
            },
            {
              "pitch": 26,
              "velocity": 50,
              "position": 25.5,
              "duration": 0.43333333333333335
            },
            {
              "pitch": 26,
              "velocity": 70,
              "position": 26,
              "duration": 0.43333333333333335
            },
            {
              "pitch": 26,
              "velocity": 50,
              "position": 26.5,
              "duration": 0.43333333333333335
            },
            {
              "pitch": 26,
              "velocity": 70,
              "position": 27,
              "duration": 0.43333333333333335
            },
            {
              "pitch": 26,
              "velocity": 50,
              "position": 27.5,
              "duration": 0.43333333333333335
            },
            {
              "pitch": 28,
              "velocity": 70,
              "position": 28,
              "duration": 0.43333333333333335
            },
            {
              "pitch": 28,
              "velocity": 50,
              "position": 28.5,
              "duration": 0.43333333333333335
            },
            {
              "pitch": 28,
              "velocity": 70,
              "position": 29,
              "duration": 0.43333333333333335
            },
            {
              "pitch": 28,
              "velocity": 50,
              "position": 29.5,
              "duration": 0.43333333333333335
            },
            {
              "pitch": 28,
              "velocity": 70,
              "position": 30,
              "duration": 0.43333333333333335
            },
            {
              "pitch": 28,
              "velocity": 50,
              "position": 30.5,
              "duration": 0.43333333333333335
            },
            {
              "pitch": 28,
              "velocity": 70,
              "position": 31,
              "duration": 0.43333333333333335
            },
            {
              "pitch": 31,
              "velocity": 50,
              "position": 31.5,
              "duration": 0.9333333333333333
            },
            {
              "pitch": 31,
              "velocity": 50,
              "position": 32.5,
              "duration": 0.43333333333333335
            },
            {
              "pitch": 31,
              "velocity": 70,
              "position": 33,
              "duration": 0.43333333333333335
            },
            {
              "pitch": 31,
              "velocity": 50,
              "position": 33.5,
              "duration": 0.43333333333333335
            },
            {
              "pitch": 31,
              "velocity": 70,
              "position": 34,
              "duration": 0.43333333333333335
            },
            {
              "pitch": 31,
              "velocity": 50,
              "position": 34.5,
              "duration": 0.43333333333333335
            },
            {
              "pitch": 31,
              "velocity": 70,
              "position": 35,
              "duration": 0.43333333333333335
            },
            {
              "pitch": 31,
              "velocity": 50,
              "position": 35.5,
              "duration": 0.43333333333333335
            }
          ]
        },
        "11": {
          "ctab": {
            "srcChannel": 11,
            "name": "StGt M",
            "accType": "CHORD1",
            "editable": false,
            "mutedNotes": [],
            "mutedChords": [
              "dim7",
              "dim",
              "minMaj7(9)",
              "minMaj7",
              "min7(11)",
              "min7(9)",
              "min(9)",
              "m7b5",
              "min7",
              "min6",
              "min"
            ],
            "autoStart": false,
            "sourceChordNote": 0,
            "sourceChordType": "Maj",
            "ctb2Low": null,
            "ctb2Main": {
              "ntr": "ROOT_TRANSPOSITION",
              "ntt": "BYPASS",
              "bassOn": false,
              "chordRootUpperLimit": 3,
              "noteLowLimit": 40,
              "noteHighLimit": 70,
              "rtr": "PITCH_SHIFT"
            },
            "ctb2High": null
          },
          "notes": [
            {
              "pitch": 111,
              "velocity": 98,
              "position": 4.010416666666667,
              "duration": 0.23541666666666666
            },
            {
              "pitch": 48,
              "velocity": 42,
              "position": 4.010416666666667,
              "duration": 0.975
            },
            {
              "pitch": 55,
              "velocity": 38,
              "position": 4.010416666666667,
              "duration": 0.9854166666666667
            },
            {
              "pitch": 72,
              "velocity": 45,
              "position": 4.03125,
              "duration": 0.9854166666666667
            },
            {
              "pitch": 76,
              "velocity": 36,
              "position": 4.03125,
              "duration": 0.9958333333333333
            },
            {
              "pitch": 79,
              "velocity": 36,
              "position": 4.041666666666667,
              "duration": 0.9958333333333333
            },
            {
              "pitch": 111,
              "velocity": 103,
              "position": 5,
              "duration": 0.23541666666666666
            },
            {
              "pitch": 48,
              "velocity": 47,
              "position": 5,
              "duration": 0.9854166666666667
            },
            {
              "pitch": 79,
              "velocity": 50,
              "position": 5.052083333333333,
              "duration": 0.9333333333333333
            },
            {
              "pitch": 72,
              "velocity": 50,
              "position": 5.03125,
              "duration": 0.9645833333333333
            },
            {
              "pitch": 76,
              "velocity": 50,
              "position": 5.041666666666667,
              "duration": 0.9645833333333333
            },
            {
              "pitch": 55,
              "velocity": 42,
              "position": 5.010416666666667,
              "duration": 1.00625
            },
            {
              "pitch": 109,
              "velocity": 88,
              "position": 6,
              "duration": 0.23541666666666666
            },
            {
              "pitch": 79,
              "velocity": 34,
              "position": 6.020833333333333,
              "duration": 0.46458333333333335
            },
            {
              "pitch": 48,
              "velocity": 25,
              "position": 6.052083333333333,
              "duration": 0.43333333333333335
            },
            {
              "pitch": 76,
              "velocity": 34,
              "position": 6.020833333333333,
              "duration": 0.475
            },
            {
              "pitch": 55,
              "velocity": 38,
              "position": 6.03125,
              "duration": 0.475
            },
            {
              "pitch": 72,
              "velocity": 34,
              "position": 6.010416666666667,
              "duration": 0.49583333333333335
            },
            {
              "pitch": 111,
              "velocity": 98,
              "position": 6.5,
              "duration": 0.23541666666666666
            },
            {
              "pitch": 79,
              "velocity": 50,
              "position": 6.5,
              "duration": 0.48541666666666666
            },
            {
              "pitch": 72,
              "velocity": 50,
              "position": 6.520833333333333,
              "duration": 0.46458333333333335
            },
            {
              "pitch": 76,
              "velocity": 50,
              "position": 6.510416666666667,
              "duration": 0.48541666666666666
            },
            {
              "pitch": 48,
              "velocity": 47,
              "position": 6.50625,
              "duration": 0.49583333333333335
            },
            {
              "pitch": 55,
              "velocity": 52,
              "position": 6.520833333333333,
              "duration": 0.48541666666666666
            },
            {
              "pitch": 109,
              "velocity": 83,
              "position": 7,
              "duration": 0.23541666666666666
            },
            {
              "pitch": 79,
              "velocity": 30,
              "position": 7.010416666666667,
              "duration": 0.475
            },
            {
              "pitch": 48,
              "velocity": 30,
              "position": 7.052083333333333,
              "duration": 0.43333333333333335
            },
            {
              "pitch": 76,
              "velocity": 36,
              "position": 7.010416666666667,
              "duration": 0.48541666666666666
            },
            {
              "pitch": 55,
              "velocity": 38,
              "position": 7.020833333333333,
              "duration": 0.475
            },
            {
              "pitch": 72,
              "velocity": 42,
              "position": 7,
              "duration": 0.50625
            },
            {
              "pitch": 111,
              "velocity": 98,
              "position": 7.5,
              "duration": 0.23541666666666666
            },
            {
              "pitch": 79,
              "velocity": 44,
              "position": 7.5,
              "duration": 0.9854166666666667
            },
            {
              "pitch": 77,
              "velocity": 50,
              "position": 7.510416666666667,
              "duration": 0.975
            },
            {
              "pitch": 50,
              "velocity": 42,
              "position": 7.510416666666667,
              "duration": 0.975
            },
            {
              "pitch": 72,
              "velocity": 50,
              "position": 7.520833333333333,
              "duration": 0.975
            },
            {
              "pitch": 60,
              "velocity": 36,
              "position": 7.510416666666667,
              "duration": 0.9958333333333333
            },
            {
              "pitch": 106,
              "velocity": 46,
              "position": 8.5,
              "duration": 0.23541666666666666
            },
            {
              "pitch": 79,
              "velocity": 44,
              "position": 8.5,
              "duration": 0.48541666666666666
            },
            {
              "pitch": 72,
              "velocity": 30,
              "position": 8.510416666666666,
              "duration": 0.48541666666666666
            },
            {
              "pitch": 77,
              "velocity": 30,
              "position": 8.5,
              "duration": 0.49583333333333335
            },
            {
              "pitch": 50,
              "velocity": 45,
              "position": 8.50625,
              "duration": 0.49583333333333335
            },
            {
              "pitch": 60,
              "velocity": 50,
              "position": 8.520833333333334,
              "duration": 0.48541666666666666
            },
            {
              "pitch": 109,
              "velocity": 93,
              "position": 9,
              "duration": 0.23541666666666666
            },
            {
              "pitch": 79,
              "velocity": 32,
              "position": 9,
              "duration": 0.48541666666666666
            },
            {
              "pitch": 50,
              "velocity": 32,
              "position": 9.052083333333334,
              "duration": 0.43333333333333335
            },
            {
              "pitch": 60,
              "velocity": 40,
              "position": 9.020833333333334,
              "duration": 0.475
            },
            {
              "pitch": 77,
              "velocity": 23,
              "position": 9.020833333333334,
              "duration": 0.475
            },
            {
              "pitch": 72,
              "velocity": 33,
              "position": 9.010416666666666,
              "duration": 0.49583333333333335
            },
            {
              "pitch": 111,
              "velocity": 98,
              "position": 9.5,
              "duration": 0.23541666666666666
            },
            {
              "pitch": 79,
              "velocity": 48,
              "position": 9.5,
              "duration": 0.9854166666666667
            },
            {
              "pitch": 50,
              "velocity": 45,
              "position": 9.552083333333334,
              "duration": 0.9333333333333333
            },
            {
              "pitch": 77,
              "velocity": 50,
              "position": 9.510416666666666,
              "duration": 0.9854166666666667
            },
            {
              "pitch": 72,
              "velocity": 50,
              "position": 9.520833333333334,
              "duration": 0.9854166666666667
            },
            {
              "pitch": 60,
              "velocity": 40,
              "position": 9.541666666666666,
              "duration": 0.9854166666666667
            },
            {
              "pitch": 111,
              "velocity": 103,
              "position": 10.5,
              "duration": 0.23541666666666666
            },
            {
              "pitch": 72,
              "velocity": 50,
              "position": 10.520833333333334,
              "duration": 0.46458333333333335
            },
            {
              "pitch": 60,
              "velocity": 40,
              "position": 10.541666666666666,
              "duration": 0.44375
            },
            {
              "pitch": 50,
              "velocity": 45,
              "position": 10.552083333333334,
              "duration": 0.43333333333333335
            },
            {
              "pitch": 77,
              "velocity": 50,
              "position": 10.510416666666666,
              "duration": 0.48541666666666666
            },
            {
              "pitch": 79,
              "velocity": 50,
              "position": 10.5,
              "duration": 0.49583333333333335
            },
            {
              "pitch": 109,
              "velocity": 88,
              "position": 11,
              "duration": 0.23541666666666666
            },
            {
              "pitch": 50,
              "velocity": 25,
              "position": 11.052083333333334,
              "duration": 0.43333333333333335
            },
            {
              "pitch": 72,
              "velocity": 30,
              "position": 11,
              "duration": 0.48541666666666666
            },
            {
              "pitch": 79,
              "velocity": 30,
              "position": 11.010416666666666,
              "duration": 0.475
            },
            {
              "pitch": 77,
              "velocity": 30,
              "position": 11.010416666666666,
              "duration": 0.475
            },
            {
              "pitch": 60,
              "velocity": 38,
              "position": 11.03125,
              "duration": 0.475
            },
            {
              "pitch": 106,
              "velocity": 66,
              "position": 11.5,
              "duration": 0.23541666666666666
            },
            {
              "pitch": 79,
              "velocity": 44,
              "position": 11.5,
              "duration": 0.48541666666666666
            },
            {
              "pitch": 60,
              "velocity": 52,
              "position": 11.520833333333334,
              "duration": 0.475
            },
            {
              "pitch": 77,
              "velocity": 30,
              "position": 11.5,
              "duration": 0.49583333333333335
            },
            {
              "pitch": 50,
              "velocity": 47,
              "position": 11.50625,
              "duration": 0.49583333333333335
            },
            {
              "pitch": 72,
              "velocity": 40,
              "position": 11.5,
              "duration": 0.50625
            },
            {
              "pitch": 111,
              "velocity": 98,
              "position": 12.010416666666666,
              "duration": 0.23541666666666666
            },
            {
              "pitch": 52,
              "velocity": 42,
              "position": 12.010416666666666,
              "duration": 0.975
            },
            {
              "pitch": 60,
              "velocity": 38,
              "position": 12.010416666666666,
              "duration": 0.9854166666666667
            },
            {
              "pitch": 72,
              "velocity": 45,
              "position": 12.03125,
              "duration": 0.9854166666666667
            },
            {
              "pitch": 76,
              "velocity": 38,
              "position": 12.03125,
              "duration": 0.9958333333333333
            },
            {
              "pitch": 79,
              "velocity": 38,
              "position": 12.041666666666666,
              "duration": 0.9958333333333333
            },
            {
              "pitch": 111,
              "velocity": 103,
              "position": 13,
              "duration": 0.23541666666666666
            },
            {
              "pitch": 52,
              "velocity": 47,
              "position": 13,
              "duration": 0.9854166666666667
            },
            {
              "pitch": 79,
              "velocity": 50,
              "position": 13.052083333333334,
              "duration": 0.9333333333333333
            },
            {
              "pitch": 72,
              "velocity": 50,
              "position": 13.03125,
              "duration": 0.9645833333333333
            },
            {
              "pitch": 76,
              "velocity": 50,
              "position": 13.041666666666666,
              "duration": 0.9645833333333333
            },
            {
              "pitch": 60,
              "velocity": 42,
              "position": 13.010416666666666,
              "duration": 1.00625
            },
            {
              "pitch": 109,
              "velocity": 88,
              "position": 14,
              "duration": 0.23541666666666666
            },
            {
              "pitch": 79,
              "velocity": 34,
              "position": 14.020833333333334,
              "duration": 0.46458333333333335
            },
            {
              "pitch": 52,
              "velocity": 25,
              "position": 14.052083333333334,
              "duration": 0.43333333333333335
            },
            {
              "pitch": 76,
              "velocity": 34,
              "position": 14.020833333333334,
              "duration": 0.475
            },
            {
              "pitch": 60,
              "velocity": 38,
              "position": 14.03125,
              "duration": 0.475
            },
            {
              "pitch": 72,
              "velocity": 34,
              "position": 14.010416666666666,
              "duration": 0.49583333333333335
            },
            {
              "pitch": 111,
              "velocity": 98,
              "position": 14.5,
              "duration": 0.23541666666666666
            },
            {
              "pitch": 79,
              "velocity": 50,
              "position": 14.5,
              "duration": 0.48541666666666666
            },
            {
              "pitch": 72,
              "velocity": 50,
              "position": 14.520833333333334,
              "duration": 0.46458333333333335
            },
            {
              "pitch": 76,
              "velocity": 50,
              "position": 14.510416666666666,
              "duration": 0.48541666666666666
            },
            {
              "pitch": 52,
              "velocity": 47,
              "position": 14.50625,
              "duration": 0.49583333333333335
            },
            {
              "pitch": 60,
              "velocity": 52,
              "position": 14.520833333333334,
              "duration": 0.48541666666666666
            },
            {
              "pitch": 109,
              "velocity": 83,
              "position": 15,
              "duration": 0.23541666666666666
            },
            {
              "pitch": 79,
              "velocity": 30,
              "position": 15.010416666666666,
              "duration": 0.475
            },
            {
              "pitch": 52,
              "velocity": 30,
              "position": 15.052083333333334,
              "duration": 0.43333333333333335
            },
            {
              "pitch": 76,
              "velocity": 36,
              "position": 15.010416666666666,
              "duration": 0.48541666666666666
            },
            {
              "pitch": 60,
              "velocity": 38,
              "position": 15.020833333333334,
              "duration": 0.475
            },
            {
              "pitch": 72,
              "velocity": 42,
              "position": 15,
              "duration": 0.50625
            },
            {
              "pitch": 111,
              "velocity": 98,
              "position": 15.5,
              "duration": 0.23541666666666666
            },
            {
              "pitch": 79,
              "velocity": 44,
              "position": 15.5,
              "duration": 0.9854166666666667
            },
            {
              "pitch": 77,
              "velocity": 50,
              "position": 15.510416666666666,
              "duration": 0.975
            },
            {
              "pitch": 53,
              "velocity": 42,
              "position": 15.510416666666666,
              "duration": 0.975
            },
            {
              "pitch": 72,
              "velocity": 50,
              "position": 15.520833333333334,
              "duration": 0.975
            },
            {
              "pitch": 60,
              "velocity": 36,
              "position": 15.510416666666666,
              "duration": 0.9958333333333333
            },
            {
              "pitch": 106,
              "velocity": 46,
              "position": 16.5,
              "duration": 0.23541666666666666
            },
            {
              "pitch": 79,
              "velocity": 44,
              "position": 16.5,
              "duration": 0.48541666666666666
            },
            {
              "pitch": 72,
              "velocity": 30,
              "position": 16.510416666666668,
              "duration": 0.48541666666666666
            },
            {
              "pitch": 77,
              "velocity": 30,
              "position": 16.5,
              "duration": 0.49583333333333335
            },
            {
              "pitch": 53,
              "velocity": 45,
              "position": 16.50625,
              "duration": 0.49583333333333335
            },
            {
              "pitch": 60,
              "velocity": 50,
              "position": 16.520833333333332,
              "duration": 0.48541666666666666
            },
            {
              "pitch": 109,
              "velocity": 93,
              "position": 17,
              "duration": 0.23541666666666666
            },
            {
              "pitch": 79,
              "velocity": 32,
              "position": 17,
              "duration": 0.48541666666666666
            },
            {
              "pitch": 53,
              "velocity": 32,
              "position": 17.052083333333332,
              "duration": 0.43333333333333335
            },
            {
              "pitch": 60,
              "velocity": 40,
              "position": 17.020833333333332,
              "duration": 0.475
            },
            {
              "pitch": 77,
              "velocity": 23,
              "position": 17.020833333333332,
              "duration": 0.475
            },
            {
              "pitch": 72,
              "velocity": 33,
              "position": 17.010416666666668,
              "duration": 0.49583333333333335
            },
            {
              "pitch": 111,
              "velocity": 103,
              "position": 17.5,
              "duration": 0.23541666666666666
            },
            {
              "pitch": 79,
              "velocity": 48,
              "position": 17.5,
              "duration": 0.9854166666666667
            },
            {
              "pitch": 53,
              "velocity": 45,
              "position": 17.552083333333332,
              "duration": 0.9333333333333333
            },
            {
              "pitch": 77,
              "velocity": 50,
              "position": 17.510416666666668,
              "duration": 0.9854166666666667
            },
            {
              "pitch": 72,
              "velocity": 50,
              "position": 17.520833333333332,
              "duration": 0.9854166666666667
            },
            {
              "pitch": 60,
              "velocity": 40,
              "position": 17.541666666666668,
              "duration": 0.9854166666666667
            },
            {
              "pitch": 106,
              "velocity": 61,
              "position": 18.5,
              "duration": 0.23541666666666666
            },
            {
              "pitch": 72,
              "velocity": 50,
              "position": 18.520833333333332,
              "duration": 0.46458333333333335
            },
            {
              "pitch": 60,
              "velocity": 40,
              "position": 18.541666666666668,
              "duration": 0.44375
            },
            {
              "pitch": 53,
              "velocity": 45,
              "position": 18.552083333333332,
              "duration": 0.43333333333333335
            },
            {
              "pitch": 77,
              "velocity": 50,
              "position": 18.510416666666668,
              "duration": 0.48541666666666666
            },
            {
              "pitch": 79,
              "velocity": 50,
              "position": 18.5,
              "duration": 0.49583333333333335
            },
            {
              "pitch": 111,
              "velocity": 98,
              "position": 19,
              "duration": 0.23541666666666666
            },
            {
              "pitch": 53,
              "velocity": 25,
              "position": 19.052083333333332,
              "duration": 0.43333333333333335
            },
            {
              "pitch": 72,
              "velocity": 30,
              "position": 19,
              "duration": 0.48541666666666666
            },
            {
              "pitch": 79,
              "velocity": 30,
              "position": 19.010416666666668,
              "duration": 0.475
            },
            {
              "pitch": 77,
              "velocity": 30,
              "position": 19.010416666666668,
              "duration": 0.475
            },
            {
              "pitch": 60,
              "velocity": 38,
              "position": 19.03125,
              "duration": 0.475
            },
            {
              "pitch": 106,
              "velocity": 46,
              "position": 19.5,
              "duration": 0.23541666666666666
            },
            {
              "pitch": 79,
              "velocity": 44,
              "position": 19.5,
              "duration": 0.48541666666666666
            },
            {
              "pitch": 77,
              "velocity": 30,
              "position": 19.5,
              "duration": 0.49583333333333335
            },
            {
              "pitch": 53,
              "velocity": 47,
              "position": 19.50625,
              "duration": 0.49583333333333335
            },
            {
              "pitch": 60,
              "velocity": 52,
              "position": 19.520833333333332,
              "duration": 0.48541666666666666
            },
            {
              "pitch": 72,
              "velocity": 40,
              "position": 19.5,
              "duration": 0.50625
            },
            {
              "pitch": 111,
              "velocity": 98,
              "position": 20.010416666666668,
              "duration": 0.23541666666666666
            },
            {
              "pitch": 48,
              "velocity": 42,
              "position": 20.010416666666668,
              "duration": 0.975
            },
            {
              "pitch": 55,
              "velocity": 38,
              "position": 20.010416666666668,
              "duration": 0.9854166666666667
            },
            {
              "pitch": 72,
              "velocity": 45,
              "position": 20.020833333333332,
              "duration": 0.9958333333333333
            },
            {
              "pitch": 76,
              "velocity": 45,
              "position": 20.03125,
              "duration": 0.9958333333333333
            },
            {
              "pitch": 79,
              "velocity": 45,
              "position": 20.041666666666668,
              "duration": 0.9958333333333333
            },
            {
              "pitch": 111,
              "velocity": 103,
              "position": 21,
              "duration": 0.23541666666666666
            },
            {
              "pitch": 48,
              "velocity": 47,
              "position": 21,
              "duration": 0.9854166666666667
            },
            {
              "pitch": 79,
              "velocity": 50,
              "position": 21.052083333333332,
              "duration": 0.9333333333333333
            },
            {
              "pitch": 72,
              "velocity": 50,
              "position": 21.03125,
              "duration": 0.9645833333333333
            },
            {
              "pitch": 76,
              "velocity": 50,
              "position": 21.041666666666668,
              "duration": 0.9645833333333333
            },
            {
              "pitch": 55,
              "velocity": 42,
              "position": 21.010416666666668,
              "duration": 1.00625
            },
            {
              "pitch": 109,
              "velocity": 88,
              "position": 22,
              "duration": 0.23541666666666666
            },
            {
              "pitch": 79,
              "velocity": 30,
              "position": 22.020833333333332,
              "duration": 0.46458333333333335
            },
            {
              "pitch": 48,
              "velocity": 25,
              "position": 22.052083333333332,
              "duration": 0.43333333333333335
            },
            {
              "pitch": 76,
              "velocity": 30,
              "position": 22.020833333333332,
              "duration": 0.475
            },
            {
              "pitch": 55,
              "velocity": 38,
              "position": 22.03125,
              "duration": 0.475
            },
            {
              "pitch": 72,
              "velocity": 30,
              "position": 22.010416666666668,
              "duration": 0.49583333333333335
            },
            {
              "pitch": 111,
              "velocity": 98,
              "position": 22.5,
              "duration": 0.23541666666666666
            },
            {
              "pitch": 79,
              "velocity": 50,
              "position": 22.5,
              "duration": 0.48541666666666666
            },
            {
              "pitch": 72,
              "velocity": 50,
              "position": 22.520833333333332,
              "duration": 0.46458333333333335
            },
            {
              "pitch": 76,
              "velocity": 50,
              "position": 22.510416666666668,
              "duration": 0.48541666666666666
            },
            {
              "pitch": 48,
              "velocity": 47,
              "position": 22.50625,
              "duration": 0.49583333333333335
            },
            {
              "pitch": 55,
              "velocity": 52,
              "position": 22.520833333333332,
              "duration": 0.48541666666666666
            },
            {
              "pitch": 109,
              "velocity": 83,
              "position": 23,
              "duration": 0.23541666666666666
            },
            {
              "pitch": 79,
              "velocity": 32,
              "position": 23,
              "duration": 0.48541666666666666
            },
            {
              "pitch": 48,
              "velocity": 30,
              "position": 23.052083333333332,
              "duration": 0.43333333333333335
            },
            {
              "pitch": 76,
              "velocity": 30,
              "position": 23.010416666666668,
              "duration": 0.48541666666666666
            },
            {
              "pitch": 55,
              "velocity": 38,
              "position": 23.020833333333332,
              "duration": 0.475
            },
            {
              "pitch": 72,
              "velocity": 30,
              "position": 23,
              "duration": 0.50625
            },
            {
              "pitch": 111,
              "velocity": 98,
              "position": 23.5,
              "duration": 0.23541666666666666
            },
            {
              "pitch": 79,
              "velocity": 50,
              "position": 23.5,
              "duration": 0.9854166666666667
            },
            {
              "pitch": 77,
              "velocity": 50,
              "position": 23.510416666666668,
              "duration": 0.975
            },
            {
              "pitch": 50,
              "velocity": 45,
              "position": 23.50625,
              "duration": 0.9854166666666667
            },
            {
              "pitch": 72,
              "velocity": 50,
              "position": 23.520833333333332,
              "duration": 0.975
            },
            {
              "pitch": 60,
              "velocity": 36,
              "position": 23.510416666666668,
              "duration": 0.9958333333333333
            },
            {
              "pitch": 106,
              "velocity": 46,
              "position": 24.5,
              "duration": 0.23541666666666666
            },
            {
              "pitch": 79,
              "velocity": 50,
              "position": 24.552083333333332,
              "duration": 0.43333333333333335
            },
            {
              "pitch": 77,
              "velocity": 30,
              "position": 24.5,
              "duration": 0.49583333333333335
            },
            {
              "pitch": 72,
              "velocity": 30,
              "position": 24.510416666666668,
              "duration": 0.48541666666666666
            },
            {
              "pitch": 50,
              "velocity": 45,
              "position": 24.50625,
              "duration": 0.49583333333333335
            },
            {
              "pitch": 60,
              "velocity": 50,
              "position": 24.520833333333332,
              "duration": 0.48541666666666666
            },
            {
              "pitch": 109,
              "velocity": 93,
              "position": 25,
              "duration": 0.23541666666666666
            },
            {
              "pitch": 79,
              "velocity": 32,
              "position": 25,
              "duration": 0.48541666666666666
            },
            {
              "pitch": 50,
              "velocity": 32,
              "position": 25.052083333333332,
              "duration": 0.43333333333333335
            },
            {
              "pitch": 77,
              "velocity": 30,
              "position": 25.010416666666668,
              "duration": 0.48541666666666666
            },
            {
              "pitch": 60,
              "velocity": 40,
              "position": 25.020833333333332,
              "duration": 0.475
            },
            {
              "pitch": 72,
              "velocity": 40,
              "position": 25.010416666666668,
              "duration": 0.49583333333333335
            },
            {
              "pitch": 111,
              "velocity": 98,
              "position": 25.5,
              "duration": 0.23541666666666666
            },
            {
              "pitch": 79,
              "velocity": 50,
              "position": 25.5,
              "duration": 0.9854166666666667
            },
            {
              "pitch": 50,
              "velocity": 45,
              "position": 25.552083333333332,
              "duration": 0.9333333333333333
            },
            {
              "pitch": 77,
              "velocity": 50,
              "position": 25.510416666666668,
              "duration": 0.9854166666666667
            },
            {
              "pitch": 72,
              "velocity": 50,
              "position": 25.520833333333332,
              "duration": 0.9854166666666667
            },
            {
              "pitch": 60,
              "velocity": 40,
              "position": 25.541666666666668,
              "duration": 0.9854166666666667
            },
            {
              "pitch": 111,
              "velocity": 75,
              "position": 26.5,
              "duration": 0.23541666666666666
            },
            {
              "pitch": 72,
              "velocity": 36,
              "position": 26.520833333333332,
              "duration": 0.46458333333333335
            },
            {
              "pitch": 60,
              "velocity": 40,
              "position": 26.541666666666668,
              "duration": 0.44375
            },
            {
              "pitch": 50,
              "velocity": 45,
              "position": 26.552083333333332,
              "duration": 0.43333333333333335
            },
            {
              "pitch": 77,
              "velocity": 42,
              "position": 26.510416666666668,
              "duration": 0.48541666666666666
            },
            {
              "pitch": 79,
              "velocity": 38,
              "position": 26.5,
              "duration": 0.50625
            },
            {
              "pitch": 109,
              "velocity": 88,
              "position": 27,
              "duration": 0.23541666666666666
            },
            {
              "pitch": 72,
              "velocity": 42,
              "position": 27,
              "duration": 0.48541666666666666
            },
            {
              "pitch": 79,
              "velocity": 47,
              "position": 27.020833333333332,
              "duration": 0.46458333333333335
            },
            {
              "pitch": 50,
              "velocity": 25,
              "position": 27.052083333333332,
              "duration": 0.43333333333333335
            },
            {
              "pitch": 77,
              "velocity": 47,
              "position": 27.010416666666668,
              "duration": 0.48541666666666666
            },
            {
              "pitch": 60,
              "velocity": 38,
              "position": 27.03125,
              "duration": 0.475
            },
            {
              "pitch": 106,
              "velocity": 66,
              "position": 27.5,
              "duration": 0.23541666666666666
            },
            {
              "pitch": 79,
              "velocity": 38,
              "position": 27.5,
              "duration": 0.48541666666666666
            },
            {
              "pitch": 77,
              "velocity": 38,
              "position": 27.510416666666668,
              "duration": 0.48541666666666666
            },
            {
              "pitch": 60,
              "velocity": 52,
              "position": 27.520833333333332,
              "duration": 0.475
            },
            {
              "pitch": 50,
              "velocity": 47,
              "position": 27.50625,
              "duration": 0.49583333333333335
            },
            {
              "pitch": 72,
              "velocity": 40,
              "position": 27.5,
              "duration": 0.50625
            },
            {
              "pitch": 111,
              "velocity": 98,
              "position": 28.010416666666668,
              "duration": 0.23541666666666666
            },
            {
              "pitch": 52,
              "velocity": 40,
              "position": 28.010416666666668,
              "duration": 0.975
            },
            {
              "pitch": 60,
              "velocity": 36,
              "position": 28.010416666666668,
              "duration": 0.9854166666666667
            },
            {
              "pitch": 72,
              "velocity": 45,
              "position": 28.020833333333332,
              "duration": 0.9958333333333333
            },
            {
              "pitch": 76,
              "velocity": 45,
              "position": 28.03125,
              "duration": 0.9958333333333333
            },
            {
              "pitch": 79,
              "velocity": 45,
              "position": 28.041666666666668,
              "duration": 0.9958333333333333
            },
            {
              "pitch": 111,
              "velocity": 103,
              "position": 29,
              "duration": 0.23541666666666666
            },
            {
              "pitch": 52,
              "velocity": 47,
              "position": 29,
              "duration": 0.9854166666666667
            },
            {
              "pitch": 79,
              "velocity": 50,
              "position": 29.052083333333332,
              "duration": 0.9333333333333333
            },
            {
              "pitch": 72,
              "velocity": 50,
              "position": 29.03125,
              "duration": 0.9645833333333333
            },
            {
              "pitch": 76,
              "velocity": 50,
              "position": 29.041666666666668,
              "duration": 0.9645833333333333
            },
            {
              "pitch": 60,
              "velocity": 42,
              "position": 29.010416666666668,
              "duration": 1.00625
            },
            {
              "pitch": 109,
              "velocity": 88,
              "position": 30,
              "duration": 0.23541666666666666
            },
            {
              "pitch": 79,
              "velocity": 30,
              "position": 30.020833333333332,
              "duration": 0.46458333333333335
            },
            {
              "pitch": 52,
              "velocity": 25,
              "position": 30.052083333333332,
              "duration": 0.43333333333333335
            },
            {
              "pitch": 76,
              "velocity": 30,
              "position": 30.020833333333332,
              "duration": 0.475
            },
            {
              "pitch": 60,
              "velocity": 38,
              "position": 30.03125,
              "duration": 0.475
            },
            {
              "pitch": 72,
              "velocity": 30,
              "position": 30.010416666666668,
              "duration": 0.49583333333333335
            },
            {
              "pitch": 111,
              "velocity": 98,
              "position": 30.5,
              "duration": 0.23541666666666666
            },
            {
              "pitch": 79,
              "velocity": 50,
              "position": 30.5,
              "duration": 0.48541666666666666
            },
            {
              "pitch": 72,
              "velocity": 50,
              "position": 30.520833333333332,
              "duration": 0.46458333333333335
            },
            {
              "pitch": 76,
              "velocity": 50,
              "position": 30.510416666666668,
              "duration": 0.48541666666666666
            },
            {
              "pitch": 52,
              "velocity": 47,
              "position": 30.50625,
              "duration": 0.49583333333333335
            },
            {
              "pitch": 60,
              "velocity": 52,
              "position": 30.520833333333332,
              "duration": 0.48541666666666666
            },
            {
              "pitch": 109,
              "velocity": 83,
              "position": 31,
              "duration": 0.23541666666666666
            },
            {
              "pitch": 79,
              "velocity": 32,
              "position": 31,
              "duration": 0.48541666666666666
            },
            {
              "pitch": 52,
              "velocity": 30,
              "position": 31.052083333333332,
              "duration": 0.43333333333333335
            },
            {
              "pitch": 76,
              "velocity": 30,
              "position": 31.010416666666668,
              "duration": 0.48541666666666666
            },
            {
              "pitch": 60,
              "velocity": 38,
              "position": 31.020833333333332,
              "duration": 0.475
            },
            {
              "pitch": 72,
              "velocity": 30,
              "position": 31,
              "duration": 0.50625
            },
            {
              "pitch": 111,
              "velocity": 98,
              "position": 31.5,
              "duration": 0.23541666666666666
            },
            {
              "pitch": 79,
              "velocity": 50,
              "position": 31.5,
              "duration": 0.9854166666666667
            },
            {
              "pitch": 77,
              "velocity": 50,
              "position": 31.510416666666668,
              "duration": 0.975
            },
            {
              "pitch": 53,
              "velocity": 45,
              "position": 31.50625,
              "duration": 0.9854166666666667
            },
            {
              "pitch": 72,
              "velocity": 50,
              "position": 31.520833333333332,
              "duration": 0.975
            },
            {
              "pitch": 60,
              "velocity": 36,
              "position": 31.510416666666668,
              "duration": 0.9958333333333333
            },
            {
              "pitch": 106,
              "velocity": 46,
              "position": 32.5,
              "duration": 0.23541666666666666
            },
            {
              "pitch": 79,
              "velocity": 50,
              "position": 32.552083333333336,
              "duration": 0.43333333333333335
            },
            {
              "pitch": 77,
              "velocity": 30,
              "position": 32.5,
              "duration": 0.49583333333333335
            },
            {
              "pitch": 72,
              "velocity": 30,
              "position": 32.510416666666664,
              "duration": 0.48541666666666666
            },
            {
              "pitch": 53,
              "velocity": 45,
              "position": 32.50625,
              "duration": 0.49583333333333335
            },
            {
              "pitch": 60,
              "velocity": 50,
              "position": 32.520833333333336,
              "duration": 0.48541666666666666
            },
            {
              "pitch": 109,
              "velocity": 93,
              "position": 33,
              "duration": 0.23541666666666666
            },
            {
              "pitch": 79,
              "velocity": 32,
              "position": 33,
              "duration": 0.48541666666666666
            },
            {
              "pitch": 53,
              "velocity": 32,
              "position": 33.052083333333336,
              "duration": 0.43333333333333335
            },
            {
              "pitch": 77,
              "velocity": 30,
              "position": 33.010416666666664,
              "duration": 0.48541666666666666
            },
            {
              "pitch": 60,
              "velocity": 40,
              "position": 33.020833333333336,
              "duration": 0.475
            },
            {
              "pitch": 72,
              "velocity": 40,
              "position": 33.010416666666664,
              "duration": 0.49583333333333335
            },
            {
              "pitch": 111,
              "velocity": 103,
              "position": 33.5,
              "duration": 0.23541666666666666
            },
            {
              "pitch": 79,
              "velocity": 50,
              "position": 33.5,
              "duration": 0.9854166666666667
            },
            {
              "pitch": 53,
              "velocity": 45,
              "position": 33.552083333333336,
              "duration": 0.9333333333333333
            },
            {
              "pitch": 77,
              "velocity": 50,
              "position": 33.510416666666664,
              "duration": 0.9854166666666667
            },
            {
              "pitch": 72,
              "velocity": 50,
              "position": 33.520833333333336,
              "duration": 0.9854166666666667
            },
            {
              "pitch": 60,
              "velocity": 40,
              "position": 33.541666666666664,
              "duration": 0.9854166666666667
            },
            {
              "pitch": 106,
              "velocity": 61,
              "position": 34.5,
              "duration": 0.23541666666666666
            },
            {
              "pitch": 72,
              "velocity": 36,
              "position": 34.520833333333336,
              "duration": 0.46458333333333335
            },
            {
              "pitch": 60,
              "velocity": 40,
              "position": 34.541666666666664,
              "duration": 0.44375
            },
            {
              "pitch": 53,
              "velocity": 45,
              "position": 34.552083333333336,
              "duration": 0.43333333333333335
            },
            {
              "pitch": 77,
              "velocity": 42,
              "position": 34.510416666666664,
              "duration": 0.48541666666666666
            },
            {
              "pitch": 79,
              "velocity": 38,
              "position": 34.5,
              "duration": 0.50625
            },
            {
              "pitch": 111,
              "velocity": 98,
              "position": 35,
              "duration": 0.23541666666666666
            },
            {
              "pitch": 72,
              "velocity": 42,
              "position": 35,
              "duration": 0.48541666666666666
            },
            {
              "pitch": 79,
              "velocity": 47,
              "position": 35.020833333333336,
              "duration": 0.46458333333333335
            },
            {
              "pitch": 53,
              "velocity": 25,
              "position": 35.052083333333336,
              "duration": 0.43333333333333335
            },
            {
              "pitch": 77,
              "velocity": 47,
              "position": 35.010416666666664,
              "duration": 0.48541666666666666
            },
            {
              "pitch": 60,
              "velocity": 38,
              "position": 35.03125,
              "duration": 0.475
            },
            {
              "pitch": 106,
              "velocity": 46,
              "position": 35.5,
              "duration": 0.23541666666666666
            },
            {
              "pitch": 79,
              "velocity": 38,
              "position": 35.5,
              "duration": 0.48541666666666666
            },
            {
              "pitch": 77,
              "velocity": 38,
              "position": 35.510416666666664,
              "duration": 0.48541666666666666
            },
            {
              "pitch": 53,
              "velocity": 47,
              "position": 35.50625,
              "duration": 0.49375
            },
            {
              "pitch": 60,
              "velocity": 52,
              "position": 35.520833333333336,
              "duration": 0.4791666666666667
            },
            {
              "pitch": 72,
              "velocity": 40,
              "position": 35.5,
              "duration": 0.5
            }
          ]
        },
        "12": {
          "ctab": {
            "srcChannel": 12,
            "name": "HiGt M",
            "accType": "CHORD2",
            "editable": false,
            "mutedNotes": [],
            "mutedChords": [
              "dim7",
              "dim",
              "minMaj7(9)",
              "minMaj7",
              "min7(11)",
              "min7(9)",
              "min(9)",
              "m7b5",
              "min7",
              "min6",
              "min"
            ],
            "autoStart": false,
            "sourceChordNote": 0,
            "sourceChordType": "Maj",
            "ctb2Low": null,
            "ctb2Main": {
              "ntr": "ROOT_TRANSPOSITION",
              "ntt": "BYPASS",
              "bassOn": false,
              "chordRootUpperLimit": 8,
              "noteLowLimit": 40,
              "noteHighLimit": 65,
              "rtr": "PITCH_SHIFT"
            },
            "ctb2High": null
          },
          "notes": [
            {
              "pitch": 100,
              "velocity": 55,
              "position": 4.010416666666667,
              "duration": 0.23541666666666666
            },
            {
              "pitch": 60,
              "velocity": 56,
              "position": 4.020833333333333,
              "duration": 0.46458333333333335
            },
            {
              "pitch": 96,
              "velocity": 45,
              "position": 4.510416666666667,
              "duration": 0.23541666666666666
            },
            {
              "pitch": 60,
              "velocity": 45,
              "position": 4.5,
              "duration": 0.50625
            },
            {
              "pitch": 64,
              "velocity": 56,
              "position": 4.03125,
              "duration": 0.9854166666666667
            },
            {
              "pitch": 98,
              "velocity": 55,
              "position": 5.010416666666667,
              "duration": 0.23541666666666666
            },
            {
              "pitch": 64,
              "velocity": 60,
              "position": 5.03125,
              "duration": 0.45416666666666666
            },
            {
              "pitch": 60,
              "velocity": 60,
              "position": 5.020833333333333,
              "duration": 0.48541666666666666
            },
            {
              "pitch": 100,
              "velocity": 55,
              "position": 5.510416666666667,
              "duration": 0.23541666666666666
            },
            {
              "pitch": 60,
              "velocity": 56,
              "position": 5.520833333333333,
              "duration": 0.48541666666666666
            },
            {
              "pitch": 98,
              "velocity": 25,
              "position": 6.010416666666667,
              "duration": 0.23541666666666666
            },
            {
              "pitch": 64,
              "velocity": 56,
              "position": 5.5,
              "duration": 0.9854166666666667
            },
            {
              "pitch": 60,
              "velocity": 51,
              "position": 6.020833333333333,
              "duration": 0.48541666666666666
            },
            {
              "pitch": 96,
              "velocity": 55,
              "position": 6.510416666666667,
              "duration": 0.23541666666666666
            },
            {
              "pitch": 60,
              "velocity": 51,
              "position": 6.520833333333333,
              "duration": 0.48541666666666666
            },
            {
              "pitch": 64,
              "velocity": 51,
              "position": 6.5,
              "duration": 0.5166666666666667
            },
            {
              "pitch": 100,
              "velocity": 25,
              "position": 7.010416666666667,
              "duration": 0.23541666666666666
            },
            {
              "pitch": 67,
              "velocity": 60,
              "position": 5.041666666666667,
              "duration": 2.44375
            },
            {
              "pitch": 64,
              "velocity": 60,
              "position": 7.03125,
              "duration": 0.46458333333333335
            },
            {
              "pitch": 60,
              "velocity": 60,
              "position": 7.020833333333333,
              "duration": 0.48541666666666666
            },
            {
              "pitch": 98,
              "velocity": 55,
              "position": 7.510416666666667,
              "duration": 0.23541666666666666
            },
            {
              "pitch": 60,
              "velocity": 56,
              "position": 7.520833333333333,
              "duration": 0.9645833333333333
            },
            {
              "pitch": 96,
              "velocity": 45,
              "position": 8.510416666666666,
              "duration": 0.23541666666666666
            },
            {
              "pitch": 60,
              "velocity": 45,
              "position": 8.5,
              "duration": 0.50625
            },
            {
              "pitch": 65,
              "velocity": 56,
              "position": 7.510416666666667,
              "duration": 1.50625
            },
            {
              "pitch": 67,
              "velocity": 60,
              "position": 7.5,
              "duration": 1.5270833333333333
            },
            {
              "pitch": 98,
              "velocity": 55,
              "position": 9.010416666666666,
              "duration": 0.23541666666666666
            },
            {
              "pitch": 65,
              "velocity": 60,
              "position": 9.03125,
              "duration": 0.45416666666666666
            },
            {
              "pitch": 60,
              "velocity": 60,
              "position": 9.020833333333334,
              "duration": 0.48541666666666666
            },
            {
              "pitch": 100,
              "velocity": 45,
              "position": 9.510416666666666,
              "duration": 0.23541666666666666
            },
            {
              "pitch": 60,
              "velocity": 56,
              "position": 9.520833333333334,
              "duration": 0.48541666666666666
            },
            {
              "pitch": 98,
              "velocity": 25,
              "position": 10.010416666666666,
              "duration": 0.23541666666666666
            },
            {
              "pitch": 65,
              "velocity": 56,
              "position": 9.5,
              "duration": 0.9854166666666667
            },
            {
              "pitch": 60,
              "velocity": 51,
              "position": 10.020833333333334,
              "duration": 0.48541666666666666
            },
            {
              "pitch": 96,
              "velocity": 55,
              "position": 10.510416666666666,
              "duration": 0.23541666666666666
            },
            {
              "pitch": 60,
              "velocity": 51,
              "position": 10.520833333333334,
              "duration": 0.48541666666666666
            },
            {
              "pitch": 65,
              "velocity": 51,
              "position": 10.5,
              "duration": 0.5166666666666667
            },
            {
              "pitch": 67,
              "velocity": 60,
              "position": 9.041666666666666,
              "duration": 1.9854166666666666
            },
            {
              "pitch": 100,
              "velocity": 45,
              "position": 11.010416666666666,
              "duration": 0.23541666666666666
            },
            {
              "pitch": 65,
              "velocity": 60,
              "position": 11.03125,
              "duration": 0.45416666666666666
            },
            {
              "pitch": 60,
              "velocity": 60,
              "position": 11.020833333333334,
              "duration": 0.48541666666666666
            },
            {
              "pitch": 96,
              "velocity": 45,
              "position": 11.510416666666666,
              "duration": 0.23541666666666666
            },
            {
              "pitch": 60,
              "velocity": 45,
              "position": 11.520833333333334,
              "duration": 0.48541666666666666
            },
            {
              "pitch": 65,
              "velocity": 45,
              "position": 11.5,
              "duration": 0.5166666666666667
            },
            {
              "pitch": 100,
              "velocity": 55,
              "position": 12.010416666666666,
              "duration": 0.23541666666666666
            },
            {
              "pitch": 60,
              "velocity": 56,
              "position": 12.020833333333334,
              "duration": 0.46458333333333335
            },
            {
              "pitch": 96,
              "velocity": 45,
              "position": 12.510416666666666,
              "duration": 0.23541666666666666
            },
            {
              "pitch": 60,
              "velocity": 45,
              "position": 12.5,
              "duration": 0.50625
            },
            {
              "pitch": 64,
              "velocity": 56,
              "position": 12.03125,
              "duration": 0.9854166666666667
            },
            {
              "pitch": 67,
              "velocity": 60,
              "position": 11.041666666666666,
              "duration": 1.9854166666666666
            },
            {
              "pitch": 98,
              "velocity": 55,
              "position": 13.010416666666666,
              "duration": 0.23541666666666666
            },
            {
              "pitch": 64,
              "velocity": 60,
              "position": 13.03125,
              "duration": 0.45416666666666666
            },
            {
              "pitch": 60,
              "velocity": 60,
              "position": 13.020833333333334,
              "duration": 0.48541666666666666
            },
            {
              "pitch": 100,
              "velocity": 55,
              "position": 13.510416666666666,
              "duration": 0.23541666666666666
            },
            {
              "pitch": 60,
              "velocity": 56,
              "position": 13.520833333333334,
              "duration": 0.48541666666666666
            },
            {
              "pitch": 98,
              "velocity": 25,
              "position": 14.010416666666666,
              "duration": 0.23541666666666666
            },
            {
              "pitch": 64,
              "velocity": 56,
              "position": 13.5,
              "duration": 0.9854166666666667
            },
            {
              "pitch": 60,
              "velocity": 51,
              "position": 14.020833333333334,
              "duration": 0.48541666666666666
            },
            {
              "pitch": 96,
              "velocity": 55,
              "position": 14.510416666666666,
              "duration": 0.23541666666666666
            },
            {
              "pitch": 60,
              "velocity": 51,
              "position": 14.520833333333334,
              "duration": 0.48541666666666666
            },
            {
              "pitch": 64,
              "velocity": 51,
              "position": 14.5,
              "duration": 0.5166666666666667
            },
            {
              "pitch": 100,
              "velocity": 45,
              "position": 15.010416666666666,
              "duration": 0.23541666666666666
            },
            {
              "pitch": 67,
              "velocity": 60,
              "position": 13.041666666666666,
              "duration": 2.44375
            },
            {
              "pitch": 64,
              "velocity": 60,
              "position": 15.03125,
              "duration": 0.46458333333333335
            },
            {
              "pitch": 60,
              "velocity": 60,
              "position": 15.020833333333334,
              "duration": 0.48541666666666666
            },
            {
              "pitch": 98,
              "velocity": 55,
              "position": 15.510416666666666,
              "duration": 0.23541666666666666
            },
            {
              "pitch": 60,
              "velocity": 56,
              "position": 15.520833333333334,
              "duration": 0.9645833333333333
            },
            {
              "pitch": 96,
              "velocity": 45,
              "position": 16.510416666666668,
              "duration": 0.23541666666666666
            },
            {
              "pitch": 60,
              "velocity": 45,
              "position": 16.5,
              "duration": 0.50625
            },
            {
              "pitch": 65,
              "velocity": 56,
              "position": 15.510416666666666,
              "duration": 1.50625
            },
            {
              "pitch": 67,
              "velocity": 60,
              "position": 15.5,
              "duration": 1.5270833333333333
            },
            {
              "pitch": 98,
              "velocity": 55,
              "position": 17.010416666666668,
              "duration": 0.23541666666666666
            },
            {
              "pitch": 65,
              "velocity": 60,
              "position": 17.03125,
              "duration": 0.45416666666666666
            },
            {
              "pitch": 60,
              "velocity": 60,
              "position": 17.020833333333332,
              "duration": 0.48541666666666666
            },
            {
              "pitch": 100,
              "velocity": 45,
              "position": 17.510416666666668,
              "duration": 0.23541666666666666
            },
            {
              "pitch": 60,
              "velocity": 56,
              "position": 17.520833333333332,
              "duration": 0.48541666666666666
            },
            {
              "pitch": 98,
              "velocity": 25,
              "position": 18.010416666666668,
              "duration": 0.23541666666666666
            },
            {
              "pitch": 65,
              "velocity": 56,
              "position": 17.5,
              "duration": 0.9854166666666667
            },
            {
              "pitch": 60,
              "velocity": 51,
              "position": 18.020833333333332,
              "duration": 0.48541666666666666
            },
            {
              "pitch": 96,
              "velocity": 55,
              "position": 18.510416666666668,
              "duration": 0.23541666666666666
            },
            {
              "pitch": 60,
              "velocity": 51,
              "position": 18.520833333333332,
              "duration": 0.48541666666666666
            },
            {
              "pitch": 65,
              "velocity": 51,
              "position": 18.5,
              "duration": 0.5166666666666667
            },
            {
              "pitch": 67,
              "velocity": 60,
              "position": 17.041666666666668,
              "duration": 1.9854166666666666
            },
            {
              "pitch": 100,
              "velocity": 45,
              "position": 19.010416666666668,
              "duration": 0.23541666666666666
            },
            {
              "pitch": 65,
              "velocity": 60,
              "position": 19.03125,
              "duration": 0.45416666666666666
            },
            {
              "pitch": 60,
              "velocity": 60,
              "position": 19.020833333333332,
              "duration": 0.48541666666666666
            },
            {
              "pitch": 96,
              "velocity": 45,
              "position": 19.510416666666668,
              "duration": 0.23541666666666666
            },
            {
              "pitch": 60,
              "velocity": 45,
              "position": 19.520833333333332,
              "duration": 0.48541666666666666
            },
            {
              "pitch": 65,
              "velocity": 45,
              "position": 19.5,
              "duration": 0.5166666666666667
            },
            {
              "pitch": 100,
              "velocity": 55,
              "position": 20.010416666666668,
              "duration": 0.23541666666666666
            },
            {
              "pitch": 60,
              "velocity": 56,
              "position": 20.020833333333332,
              "duration": 0.46458333333333335
            },
            {
              "pitch": 96,
              "velocity": 45,
              "position": 20.510416666666668,
              "duration": 0.23541666666666666
            },
            {
              "pitch": 60,
              "velocity": 45,
              "position": 20.5,
              "duration": 0.50625
            },
            {
              "pitch": 64,
              "velocity": 56,
              "position": 20.03125,
              "duration": 0.9854166666666667
            },
            {
              "pitch": 67,
              "velocity": 60,
              "position": 19.041666666666668,
              "duration": 1.9854166666666666
            },
            {
              "pitch": 98,
              "velocity": 55,
              "position": 21.010416666666668,
              "duration": 0.23541666666666666
            },
            {
              "pitch": 64,
              "velocity": 60,
              "position": 21.03125,
              "duration": 0.45416666666666666
            },
            {
              "pitch": 60,
              "velocity": 60,
              "position": 21.020833333333332,
              "duration": 0.48541666666666666
            },
            {
              "pitch": 100,
              "velocity": 55,
              "position": 21.510416666666668,
              "duration": 0.23541666666666666
            },
            {
              "pitch": 60,
              "velocity": 56,
              "position": 21.520833333333332,
              "duration": 0.48541666666666666
            },
            {
              "pitch": 98,
              "velocity": 25,
              "position": 22.010416666666668,
              "duration": 0.23541666666666666
            },
            {
              "pitch": 64,
              "velocity": 56,
              "position": 21.5,
              "duration": 0.9854166666666667
            },
            {
              "pitch": 60,
              "velocity": 51,
              "position": 22.020833333333332,
              "duration": 0.48541666666666666
            },
            {
              "pitch": 96,
              "velocity": 55,
              "position": 22.510416666666668,
              "duration": 0.23541666666666666
            },
            {
              "pitch": 60,
              "velocity": 51,
              "position": 22.520833333333332,
              "duration": 0.48541666666666666
            },
            {
              "pitch": 64,
              "velocity": 51,
              "position": 22.5,
              "duration": 0.5166666666666667
            },
            {
              "pitch": 100,
              "velocity": 45,
              "position": 23.010416666666668,
              "duration": 0.23541666666666666
            },
            {
              "pitch": 67,
              "velocity": 60,
              "position": 21.041666666666668,
              "duration": 2.44375
            },
            {
              "pitch": 64,
              "velocity": 60,
              "position": 23.03125,
              "duration": 0.46458333333333335
            },
            {
              "pitch": 60,
              "velocity": 60,
              "position": 23.020833333333332,
              "duration": 0.48541666666666666
            },
            {
              "pitch": 98,
              "velocity": 55,
              "position": 23.510416666666668,
              "duration": 0.23541666666666666
            },
            {
              "pitch": 60,
              "velocity": 56,
              "position": 23.520833333333332,
              "duration": 0.9645833333333333
            },
            {
              "pitch": 96,
              "velocity": 45,
              "position": 24.510416666666668,
              "duration": 0.23541666666666666
            },
            {
              "pitch": 60,
              "velocity": 45,
              "position": 24.5,
              "duration": 0.50625
            },
            {
              "pitch": 65,
              "velocity": 56,
              "position": 23.510416666666668,
              "duration": 1.50625
            },
            {
              "pitch": 67,
              "velocity": 60,
              "position": 23.5,
              "duration": 1.5270833333333333
            },
            {
              "pitch": 98,
              "velocity": 55,
              "position": 25.010416666666668,
              "duration": 0.23541666666666666
            },
            {
              "pitch": 65,
              "velocity": 60,
              "position": 25.03125,
              "duration": 0.45416666666666666
            },
            {
              "pitch": 60,
              "velocity": 60,
              "position": 25.020833333333332,
              "duration": 0.48541666666666666
            },
            {
              "pitch": 100,
              "velocity": 45,
              "position": 25.510416666666668,
              "duration": 0.23541666666666666
            },
            {
              "pitch": 60,
              "velocity": 56,
              "position": 25.520833333333332,
              "duration": 0.48541666666666666
            },
            {
              "pitch": 98,
              "velocity": 25,
              "position": 26.010416666666668,
              "duration": 0.23541666666666666
            },
            {
              "pitch": 65,
              "velocity": 56,
              "position": 25.5,
              "duration": 0.9854166666666667
            },
            {
              "pitch": 60,
              "velocity": 51,
              "position": 26.020833333333332,
              "duration": 0.48541666666666666
            },
            {
              "pitch": 96,
              "velocity": 55,
              "position": 26.510416666666668,
              "duration": 0.23541666666666666
            },
            {
              "pitch": 60,
              "velocity": 51,
              "position": 26.520833333333332,
              "duration": 0.48541666666666666
            },
            {
              "pitch": 65,
              "velocity": 51,
              "position": 26.5,
              "duration": 0.5166666666666667
            },
            {
              "pitch": 67,
              "velocity": 60,
              "position": 25.041666666666668,
              "duration": 1.9854166666666666
            },
            {
              "pitch": 100,
              "velocity": 45,
              "position": 27.010416666666668,
              "duration": 0.23541666666666666
            },
            {
              "pitch": 65,
              "velocity": 60,
              "position": 27.03125,
              "duration": 0.45416666666666666
            },
            {
              "pitch": 60,
              "velocity": 60,
              "position": 27.020833333333332,
              "duration": 0.48541666666666666
            },
            {
              "pitch": 96,
              "velocity": 45,
              "position": 27.510416666666668,
              "duration": 0.23541666666666666
            },
            {
              "pitch": 60,
              "velocity": 45,
              "position": 27.520833333333332,
              "duration": 0.48541666666666666
            },
            {
              "pitch": 65,
              "velocity": 45,
              "position": 27.5,
              "duration": 0.5166666666666667
            },
            {
              "pitch": 100,
              "velocity": 55,
              "position": 28.010416666666668,
              "duration": 0.23541666666666666
            },
            {
              "pitch": 60,
              "velocity": 56,
              "position": 28.020833333333332,
              "duration": 0.46458333333333335
            },
            {
              "pitch": 96,
              "velocity": 45,
              "position": 28.510416666666668,
              "duration": 0.23541666666666666
            },
            {
              "pitch": 60,
              "velocity": 45,
              "position": 28.5,
              "duration": 0.50625
            },
            {
              "pitch": 64,
              "velocity": 56,
              "position": 28.03125,
              "duration": 0.9854166666666667
            },
            {
              "pitch": 67,
              "velocity": 60,
              "position": 27.041666666666668,
              "duration": 1.9854166666666666
            },
            {
              "pitch": 98,
              "velocity": 55,
              "position": 29.010416666666668,
              "duration": 0.23541666666666666
            },
            {
              "pitch": 64,
              "velocity": 60,
              "position": 29.03125,
              "duration": 0.45416666666666666
            },
            {
              "pitch": 60,
              "velocity": 60,
              "position": 29.020833333333332,
              "duration": 0.48541666666666666
            },
            {
              "pitch": 100,
              "velocity": 55,
              "position": 29.510416666666668,
              "duration": 0.23541666666666666
            },
            {
              "pitch": 60,
              "velocity": 56,
              "position": 29.520833333333332,
              "duration": 0.48541666666666666
            },
            {
              "pitch": 98,
              "velocity": 25,
              "position": 30.010416666666668,
              "duration": 0.23541666666666666
            },
            {
              "pitch": 64,
              "velocity": 56,
              "position": 29.5,
              "duration": 0.9854166666666667
            },
            {
              "pitch": 60,
              "velocity": 51,
              "position": 30.020833333333332,
              "duration": 0.48541666666666666
            },
            {
              "pitch": 96,
              "velocity": 55,
              "position": 30.510416666666668,
              "duration": 0.23541666666666666
            },
            {
              "pitch": 60,
              "velocity": 51,
              "position": 30.520833333333332,
              "duration": 0.48541666666666666
            },
            {
              "pitch": 64,
              "velocity": 51,
              "position": 30.5,
              "duration": 0.5166666666666667
            },
            {
              "pitch": 100,
              "velocity": 45,
              "position": 31.010416666666668,
              "duration": 0.23541666666666666
            },
            {
              "pitch": 67,
              "velocity": 60,
              "position": 29.041666666666668,
              "duration": 2.44375
            },
            {
              "pitch": 64,
              "velocity": 60,
              "position": 31.03125,
              "duration": 0.46458333333333335
            },
            {
              "pitch": 60,
              "velocity": 60,
              "position": 31.020833333333332,
              "duration": 0.48541666666666666
            },
            {
              "pitch": 98,
              "velocity": 55,
              "position": 31.510416666666668,
              "duration": 0.23541666666666666
            },
            {
              "pitch": 60,
              "velocity": 56,
              "position": 31.520833333333332,
              "duration": 0.9645833333333333
            },
            {
              "pitch": 96,
              "velocity": 45,
              "position": 32.510416666666664,
              "duration": 0.23541666666666666
            },
            {
              "pitch": 60,
              "velocity": 45,
              "position": 32.5,
              "duration": 0.50625
            },
            {
              "pitch": 65,
              "velocity": 56,
              "position": 31.510416666666668,
              "duration": 1.50625
            },
            {
              "pitch": 67,
              "velocity": 60,
              "position": 31.5,
              "duration": 1.5270833333333333
            },
            {
              "pitch": 98,
              "velocity": 55,
              "position": 33.010416666666664,
              "duration": 0.23541666666666666
            },
            {
              "pitch": 65,
              "velocity": 60,
              "position": 33.03125,
              "duration": 0.45416666666666666
            },
            {
              "pitch": 60,
              "velocity": 60,
              "position": 33.020833333333336,
              "duration": 0.48541666666666666
            },
            {
              "pitch": 100,
              "velocity": 45,
              "position": 33.510416666666664,
              "duration": 0.23541666666666666
            },
            {
              "pitch": 60,
              "velocity": 56,
              "position": 33.520833333333336,
              "duration": 0.48541666666666666
            },
            {
              "pitch": 98,
              "velocity": 25,
              "position": 34.010416666666664,
              "duration": 0.23541666666666666
            },
            {
              "pitch": 65,
              "velocity": 56,
              "position": 33.5,
              "duration": 0.9854166666666667
            },
            {
              "pitch": 60,
              "velocity": 51,
              "position": 34.020833333333336,
              "duration": 0.48541666666666666
            },
            {
              "pitch": 96,
              "velocity": 55,
              "position": 34.510416666666664,
              "duration": 0.23541666666666666
            },
            {
              "pitch": 60,
              "velocity": 51,
              "position": 34.520833333333336,
              "duration": 0.48541666666666666
            },
            {
              "pitch": 65,
              "velocity": 51,
              "position": 34.5,
              "duration": 0.5166666666666667
            },
            {
              "pitch": 67,
              "velocity": 60,
              "position": 33.041666666666664,
              "duration": 1.9854166666666666
            },
            {
              "pitch": 100,
              "velocity": 45,
              "position": 35.010416666666664,
              "duration": 0.23541666666666666
            },
            {
              "pitch": 65,
              "velocity": 60,
              "position": 35.03125,
              "duration": 0.45416666666666666
            },
            {
              "pitch": 60,
              "velocity": 60,
              "position": 35.020833333333336,
              "duration": 0.48541666666666666
            },
            {
              "pitch": 96,
              "velocity": 45,
              "position": 35.510416666666664,
              "duration": 0.23541666666666666
            },
            {
              "pitch": 67,
              "velocity": 60,
              "position": 35.041666666666664,
              "duration": 0.94375
            },
            {
              "pitch": 60,
              "velocity": 45,
              "position": 35.520833333333336,
              "duration": 0.475
            },
            {
              "pitch": 65,
              "velocity": 45,
              "position": 35.5,
              "duration": 0.49583333333333335
            }
          ]
        },
        "13": {
          "ctab": {
            "srcChannel": 13,
            "name": "Organ M",
            "accType": "PAD",
            "editable": false,
            "mutedNotes": [],
            "mutedChords": [
              "dim7",
              "dim",
              "minMaj7(9)",
              "minMaj7",
              "min7(11)",
              "min7(9)",
              "min(9)",
              "m7b5",
              "min7",
              "min6",
              "min"
            ],
            "autoStart": false,
            "sourceChordNote": 0,
            "sourceChordType": "Maj",
            "ctb2Low": null,
            "ctb2Main": {
              "ntr": "ROOT_TRANSPOSITION",
              "ntt": "BYPASS",
              "bassOn": false,
              "chordRootUpperLimit": 6,
              "noteLowLimit": 0,
              "noteHighLimit": 127,
              "rtr": "PITCH_SHIFT"
            },
            "ctb2High": null
          },
          "notes": [
            {
              "pitch": 67,
              "velocity": 74,
              "position": 5,
              "duration": 1.40625
            },
            {
              "pitch": 64,
              "velocity": 74,
              "position": 5,
              "duration": 1.4083333333333334
            },
            {
              "pitch": 72,
              "velocity": 74,
              "position": 5,
              "duration": 1.425
            },
            {
              "pitch": 67,
              "velocity": 74,
              "position": 6.5,
              "duration": 0.08541666666666667
            },
            {
              "pitch": 64,
              "velocity": 74,
              "position": 6.5,
              "duration": 0.09166666666666666
            },
            {
              "pitch": 72,
              "velocity": 74,
              "position": 6.5,
              "duration": 0.11041666666666666
            },
            {
              "pitch": 67,
              "velocity": 74,
              "position": 7.5,
              "duration": 1.3979166666666667
            },
            {
              "pitch": 72,
              "velocity": 74,
              "position": 7.5,
              "duration": 1.4125
            },
            {
              "pitch": 65,
              "velocity": 74,
              "position": 7.5,
              "duration": 1.4125
            },
            {
              "pitch": 67,
              "velocity": 74,
              "position": 9,
              "duration": 0.10208333333333333
            },
            {
              "pitch": 65,
              "velocity": 74,
              "position": 9,
              "duration": 0.11041666666666666
            },
            {
              "pitch": 72,
              "velocity": 74,
              "position": 9,
              "duration": 0.12083333333333333
            },
            {
              "pitch": 64,
              "velocity": 71,
              "position": 13,
              "duration": 1.4458333333333333
            },
            {
              "pitch": 67,
              "velocity": 74,
              "position": 13,
              "duration": 1.4458333333333333
            },
            {
              "pitch": 72,
              "velocity": 71,
              "position": 13,
              "duration": 1.4541666666666666
            },
            {
              "pitch": 64,
              "velocity": 63,
              "position": 14.5,
              "duration": 0.1
            },
            {
              "pitch": 67,
              "velocity": 74,
              "position": 14.5,
              "duration": 0.1
            },
            {
              "pitch": 72,
              "velocity": 72,
              "position": 14.5,
              "duration": 0.13125
            },
            {
              "pitch": 65,
              "velocity": 66,
              "position": 15.5,
              "duration": 0.6520833333333333
            },
            {
              "pitch": 72,
              "velocity": 71,
              "position": 15.5,
              "duration": 0.6520833333333333
            },
            {
              "pitch": 67,
              "velocity": 68,
              "position": 15.5,
              "duration": 0.6520833333333333
            },
            {
              "pitch": 67,
              "velocity": 68,
              "position": 16.189583333333335,
              "duration": 1.4604166666666667
            },
            {
              "pitch": 72,
              "velocity": 71,
              "position": 16.189583333333335,
              "duration": 1.4645833333333333
            },
            {
              "pitch": 65,
              "velocity": 66,
              "position": 16.189583333333335,
              "duration": 1.475
            },
            {
              "pitch": 65,
              "velocity": 65,
              "position": 17.833333333333332,
              "duration": 0.029166666666666667
            },
            {
              "pitch": 75,
              "velocity": 100,
              "position": 18.0375,
              "duration": 0.03958333333333333
            },
            {
              "pitch": 76,
              "velocity": 80,
              "position": 18.072916666666668,
              "duration": 0.4166666666666667
            },
            {
              "pitch": 79,
              "velocity": 89,
              "position": 18.502083333333335,
              "duration": 0.6020833333333333
            },
            {
              "pitch": 75,
              "velocity": 87,
              "position": 19.04375,
              "duration": 0.17916666666666667
            },
            {
              "pitch": 74,
              "velocity": 82,
              "position": 19.166666666666668,
              "duration": 0.16041666666666668
            },
            {
              "pitch": 72,
              "velocity": 82,
              "position": 19.3125,
              "duration": 0.12708333333333333
            },
            {
              "pitch": 69,
              "velocity": 83,
              "position": 19.514583333333334,
              "duration": 0.16458333333333333
            },
            {
              "pitch": 67,
              "velocity": 77,
              "position": 21,
              "duration": 0.1
            },
            {
              "pitch": 64,
              "velocity": 79,
              "position": 21,
              "duration": 0.12083333333333333
            },
            {
              "pitch": 72,
              "velocity": 81,
              "position": 20,
              "duration": 1.2354166666666666
            },
            {
              "pitch": 64,
              "velocity": 74,
              "position": 22.5,
              "duration": 0.09166666666666666
            },
            {
              "pitch": 67,
              "velocity": 75,
              "position": 22.5,
              "duration": 0.10416666666666667
            },
            {
              "pitch": 65,
              "velocity": 78,
              "position": 23.5,
              "duration": 1.38125
            },
            {
              "pitch": 67,
              "velocity": 83,
              "position": 23.5,
              "duration": 1.4083333333333334
            },
            {
              "pitch": 72,
              "velocity": 81,
              "position": 21.322916666666668,
              "duration": 3.6145833333333335
            },
            {
              "pitch": 67,
              "velocity": 80,
              "position": 25,
              "duration": 0.19375
            },
            {
              "pitch": 72,
              "velocity": 80,
              "position": 25,
              "duration": 0.19791666666666666
            },
            {
              "pitch": 65,
              "velocity": 80,
              "position": 25,
              "duration": 0.19791666666666666
            },
            {
              "pitch": 67,
              "velocity": 78,
              "position": 29,
              "duration": 1.4395833333333334
            },
            {
              "pitch": 72,
              "velocity": 75,
              "position": 29,
              "duration": 1.4520833333333334
            },
            {
              "pitch": 64,
              "velocity": 78,
              "position": 29,
              "duration": 1.4520833333333334
            },
            {
              "pitch": 67,
              "velocity": 78,
              "position": 30.5,
              "duration": 0.1
            },
            {
              "pitch": 64,
              "velocity": 77,
              "position": 30.5,
              "duration": 0.11458333333333333
            },
            {
              "pitch": 72,
              "velocity": 77,
              "position": 30.5,
              "duration": 0.17291666666666666
            },
            {
              "pitch": 65,
              "velocity": 80,
              "position": 31.5,
              "duration": 0.9520833333333333
            },
            {
              "pitch": 72,
              "velocity": 80,
              "position": 31.5,
              "duration": 0.9583333333333334
            },
            {
              "pitch": 67,
              "velocity": 80,
              "position": 31.5,
              "duration": 0.9625
            },
            {
              "pitch": 65,
              "velocity": 76,
              "position": 32.5,
              "duration": 0.4166666666666667
            },
            {
              "pitch": 72,
              "velocity": 76,
              "position": 32.5,
              "duration": 0.43333333333333335
            },
            {
              "pitch": 67,
              "velocity": 76,
              "position": 32.5,
              "duration": 0.43333333333333335
            },
            {
              "pitch": 65,
              "velocity": 64,
              "position": 33,
              "duration": 0.45625
            },
            {
              "pitch": 67,
              "velocity": 64,
              "position": 33,
              "duration": 0.45625
            },
            {
              "pitch": 72,
              "velocity": 64,
              "position": 33,
              "duration": 0.46458333333333335
            },
            {
              "pitch": 65,
              "velocity": 76,
              "position": 33.5,
              "duration": 0.46458333333333335
            },
            {
              "pitch": 72,
              "velocity": 76,
              "position": 33.5,
              "duration": 0.46875
            },
            {
              "pitch": 67,
              "velocity": 76,
              "position": 33.5,
              "duration": 0.475
            },
            {
              "pitch": 65,
              "velocity": 86,
              "position": 34,
              "duration": 0.8020833333333334
            },
            {
              "pitch": 72,
              "velocity": 86,
              "position": 34,
              "duration": 0.8020833333333334
            },
            {
              "pitch": 67,
              "velocity": 86,
              "position": 34,
              "duration": 0.8020833333333334
            },
            {
              "pitch": 72,
              "velocity": 93,
              "position": 34.822916666666664,
              "duration": 1.0645833333333334
            },
            {
              "pitch": 65,
              "velocity": 93,
              "position": 34.822916666666664,
              "duration": 1.0895833333333333
            },
            {
              "pitch": 67,
              "velocity": 93,
              "position": 34.822916666666664,
              "duration": 1.0895833333333333
            }
          ]
        },
        "14": {
          "ctab": {
            "srcChannel": 14,
            "name": "SldGt M",
            "accType": "PHRASE1",
            "editable": false,
            "mutedNotes": [],
            "mutedChords": [
              "dim7",
              "dim",
              "minMaj7(9)",
              "minMaj7",
              "min7(11)",
              "min7(9)",
              "min(9)",
              "m7b5",
              "min7",
              "min6",
              "min"
            ],
            "autoStart": false,
            "sourceChordNote": 0,
            "sourceChordType": "Maj",
            "ctb2Low": null,
            "ctb2Main": {
              "ntr": "ROOT_TRANSPOSITION",
              "ntt": "BYPASS",
              "bassOn": false,
              "chordRootUpperLimit": 3,
              "noteLowLimit": 40,
              "noteHighLimit": 127,
              "rtr": "PITCH_SHIFT"
            },
            "ctb2High": null
          },
          "notes": [
            {
              "pitch": 100,
              "velocity": 70,
              "position": 4,
              "duration": 0.23541666666666666
            },
            {
              "pitch": 36,
              "velocity": 86,
              "position": 4,
              "duration": 0.48541666666666666
            },
            {
              "pitch": 99,
              "velocity": 55,
              "position": 4.5,
              "duration": 0.23541666666666666
            },
            {
              "pitch": 36,
              "velocity": 84,
              "position": 4.5,
              "duration": 0.48541666666666666
            },
            {
              "pitch": 98,
              "velocity": 70,
              "position": 5,
              "duration": 0.23541666666666666
            },
            {
              "pitch": 36,
              "velocity": 86,
              "position": 5,
              "duration": 0.48541666666666666
            },
            {
              "pitch": 72,
              "velocity": 34,
              "position": 4,
              "duration": 1.4854166666666666
            },
            {
              "pitch": 99,
              "velocity": 57,
              "position": 5.5,
              "duration": 0.23541666666666666
            },
            {
              "pitch": 36,
              "velocity": 84,
              "position": 5.5,
              "duration": 0.48541666666666666
            },
            {
              "pitch": 102,
              "velocity": 70,
              "position": 6,
              "duration": 0.23541666666666666
            },
            {
              "pitch": 67,
              "velocity": 24,
              "position": 5,
              "duration": 1.4854166666666666
            },
            {
              "pitch": 36,
              "velocity": 86,
              "position": 6,
              "duration": 0.48541666666666666
            },
            {
              "pitch": 99,
              "velocity": 70,
              "position": 6.5,
              "duration": 0.23541666666666666
            },
            {
              "pitch": 36,
              "velocity": 84,
              "position": 6.5,
              "duration": 0.48541666666666666
            },
            {
              "pitch": 98,
              "velocity": 55,
              "position": 7,
              "duration": 0.23541666666666666
            },
            {
              "pitch": 74,
              "velocity": 32,
              "position": 5.5,
              "duration": 1.9854166666666666
            },
            {
              "pitch": 36,
              "velocity": 86,
              "position": 7,
              "duration": 0.48541666666666666
            },
            {
              "pitch": 97,
              "velocity": 59,
              "position": 7.5,
              "duration": 0.23541666666666666
            },
            {
              "pitch": 36,
              "velocity": 84,
              "position": 7.5,
              "duration": 0.49583333333333335
            },
            {
              "pitch": 100,
              "velocity": 70,
              "position": 8,
              "duration": 0.23541666666666666
            },
            {
              "pitch": 38,
              "velocity": 86,
              "position": 8.010416666666666,
              "duration": 0.475
            },
            {
              "pitch": 67,
              "velocity": 24,
              "position": 6.5,
              "duration": 1.9854166666666666
            },
            {
              "pitch": 99,
              "velocity": 55,
              "position": 8.5,
              "duration": 0.23541666666666666
            },
            {
              "pitch": 38,
              "velocity": 84,
              "position": 8.5,
              "duration": 0.48541666666666666
            },
            {
              "pitch": 98,
              "velocity": 70,
              "position": 9,
              "duration": 0.23541666666666666
            },
            {
              "pitch": 72,
              "velocity": 34,
              "position": 7.5,
              "duration": 1.9854166666666666
            },
            {
              "pitch": 38,
              "velocity": 86,
              "position": 9,
              "duration": 0.48541666666666666
            },
            {
              "pitch": 97,
              "velocity": 57,
              "position": 9.5,
              "duration": 0.23541666666666666
            },
            {
              "pitch": 38,
              "velocity": 84,
              "position": 9.5,
              "duration": 0.48541666666666666
            },
            {
              "pitch": 102,
              "velocity": 70,
              "position": 10,
              "duration": 0.23541666666666666
            },
            {
              "pitch": 67,
              "velocity": 24,
              "position": 8.5,
              "duration": 1.9854166666666666
            },
            {
              "pitch": 38,
              "velocity": 86,
              "position": 10,
              "duration": 0.48541666666666666
            },
            {
              "pitch": 99,
              "velocity": 70,
              "position": 10.5,
              "duration": 0.23541666666666666
            },
            {
              "pitch": 38,
              "velocity": 84,
              "position": 10.5,
              "duration": 0.48541666666666666
            },
            {
              "pitch": 98,
              "velocity": 55,
              "position": 11,
              "duration": 0.23541666666666666
            },
            {
              "pitch": 38,
              "velocity": 86,
              "position": 11,
              "duration": 0.48541666666666666
            },
            {
              "pitch": 97,
              "velocity": 59,
              "position": 11.5,
              "duration": 0.23541666666666666
            },
            {
              "pitch": 74,
              "velocity": 32,
              "position": 9.5,
              "duration": 2.4854166666666666
            },
            {
              "pitch": 38,
              "velocity": 84,
              "position": 11.5,
              "duration": 0.48541666666666666
            },
            {
              "pitch": 100,
              "velocity": 70,
              "position": 12,
              "duration": 0.23541666666666666
            },
            {
              "pitch": 40,
              "velocity": 86,
              "position": 12,
              "duration": 0.48541666666666666
            },
            {
              "pitch": 99,
              "velocity": 55,
              "position": 12.5,
              "duration": 0.23541666666666666
            },
            {
              "pitch": 67,
              "velocity": 18,
              "position": 10.5,
              "duration": 2.4854166666666666
            },
            {
              "pitch": 40,
              "velocity": 84,
              "position": 12.5,
              "duration": 0.48541666666666666
            },
            {
              "pitch": 98,
              "velocity": 70,
              "position": 13,
              "duration": 0.23541666666666666
            },
            {
              "pitch": 40,
              "velocity": 86,
              "position": 13,
              "duration": 0.48541666666666666
            },
            {
              "pitch": 72,
              "velocity": 34,
              "position": 12,
              "duration": 1.4854166666666666
            },
            {
              "pitch": 99,
              "velocity": 57,
              "position": 13.5,
              "duration": 0.23541666666666666
            },
            {
              "pitch": 40,
              "velocity": 84,
              "position": 13.5,
              "duration": 0.48541666666666666
            },
            {
              "pitch": 102,
              "velocity": 70,
              "position": 14,
              "duration": 0.23541666666666666
            },
            {
              "pitch": 67,
              "velocity": 24,
              "position": 13,
              "duration": 1.4854166666666666
            },
            {
              "pitch": 40,
              "velocity": 86,
              "position": 14,
              "duration": 0.48541666666666666
            },
            {
              "pitch": 99,
              "velocity": 70,
              "position": 14.5,
              "duration": 0.23541666666666666
            },
            {
              "pitch": 40,
              "velocity": 84,
              "position": 14.5,
              "duration": 0.48541666666666666
            },
            {
              "pitch": 98,
              "velocity": 55,
              "position": 15,
              "duration": 0.23541666666666666
            },
            {
              "pitch": 74,
              "velocity": 32,
              "position": 13.5,
              "duration": 1.9854166666666666
            },
            {
              "pitch": 40,
              "velocity": 86,
              "position": 15,
              "duration": 0.48541666666666666
            },
            {
              "pitch": 97,
              "velocity": 59,
              "position": 15.5,
              "duration": 0.23541666666666666
            },
            {
              "pitch": 40,
              "velocity": 84,
              "position": 15.5,
              "duration": 0.49583333333333335
            },
            {
              "pitch": 100,
              "velocity": 70,
              "position": 16,
              "duration": 0.23541666666666666
            },
            {
              "pitch": 41,
              "velocity": 86,
              "position": 16.010416666666668,
              "duration": 0.475
            },
            {
              "pitch": 67,
              "velocity": 24,
              "position": 14.5,
              "duration": 1.9854166666666666
            },
            {
              "pitch": 99,
              "velocity": 55,
              "position": 16.5,
              "duration": 0.23541666666666666
            },
            {
              "pitch": 41,
              "velocity": 84,
              "position": 16.5,
              "duration": 0.48541666666666666
            },
            {
              "pitch": 98,
              "velocity": 70,
              "position": 17,
              "duration": 0.23541666666666666
            },
            {
              "pitch": 72,
              "velocity": 34,
              "position": 15.5,
              "duration": 1.9854166666666666
            },
            {
              "pitch": 41,
              "velocity": 86,
              "position": 17,
              "duration": 0.48541666666666666
            },
            {
              "pitch": 97,
              "velocity": 57,
              "position": 17.5,
              "duration": 0.23541666666666666
            },
            {
              "pitch": 41,
              "velocity": 84,
              "position": 17.5,
              "duration": 0.48541666666666666
            },
            {
              "pitch": 102,
              "velocity": 70,
              "position": 18,
              "duration": 0.23541666666666666
            },
            {
              "pitch": 67,
              "velocity": 24,
              "position": 16.5,
              "duration": 1.9854166666666666
            },
            {
              "pitch": 41,
              "velocity": 86,
              "position": 18,
              "duration": 0.48541666666666666
            },
            {
              "pitch": 99,
              "velocity": 70,
              "position": 18.5,
              "duration": 0.23541666666666666
            },
            {
              "pitch": 41,
              "velocity": 84,
              "position": 18.5,
              "duration": 0.48541666666666666
            },
            {
              "pitch": 98,
              "velocity": 55,
              "position": 19,
              "duration": 0.23541666666666666
            },
            {
              "pitch": 40,
              "velocity": 86,
              "position": 19,
              "duration": 0.48541666666666666
            },
            {
              "pitch": 97,
              "velocity": 59,
              "position": 19.5,
              "duration": 0.23541666666666666
            },
            {
              "pitch": 74,
              "velocity": 32,
              "position": 17.5,
              "duration": 2.475
            },
            {
              "pitch": 38,
              "velocity": 84,
              "position": 19.5,
              "duration": 0.48541666666666666
            },
            {
              "pitch": 100,
              "velocity": 70,
              "position": 20,
              "duration": 0.23541666666666666
            },
            {
              "pitch": 36,
              "velocity": 86,
              "position": 20,
              "duration": 0.48541666666666666
            },
            {
              "pitch": 99,
              "velocity": 55,
              "position": 20.5,
              "duration": 0.23541666666666666
            },
            {
              "pitch": 67,
              "velocity": 18,
              "position": 18.5,
              "duration": 2.4854166666666666
            },
            {
              "pitch": 36,
              "velocity": 84,
              "position": 20.5,
              "duration": 0.48541666666666666
            },
            {
              "pitch": 98,
              "velocity": 70,
              "position": 21,
              "duration": 0.23541666666666666
            },
            {
              "pitch": 36,
              "velocity": 86,
              "position": 21,
              "duration": 0.48541666666666666
            },
            {
              "pitch": 72,
              "velocity": 34,
              "position": 20,
              "duration": 1.4854166666666666
            },
            {
              "pitch": 99,
              "velocity": 57,
              "position": 21.5,
              "duration": 0.23541666666666666
            },
            {
              "pitch": 36,
              "velocity": 84,
              "position": 21.5,
              "duration": 0.48541666666666666
            },
            {
              "pitch": 102,
              "velocity": 70,
              "position": 22,
              "duration": 0.23541666666666666
            },
            {
              "pitch": 67,
              "velocity": 24,
              "position": 21,
              "duration": 1.4854166666666666
            },
            {
              "pitch": 36,
              "velocity": 86,
              "position": 22,
              "duration": 0.48541666666666666
            },
            {
              "pitch": 99,
              "velocity": 70,
              "position": 22.5,
              "duration": 0.23541666666666666
            },
            {
              "pitch": 36,
              "velocity": 84,
              "position": 22.5,
              "duration": 0.48541666666666666
            },
            {
              "pitch": 98,
              "velocity": 55,
              "position": 23,
              "duration": 0.23541666666666666
            },
            {
              "pitch": 74,
              "velocity": 32,
              "position": 21.5,
              "duration": 1.9854166666666666
            },
            {
              "pitch": 36,
              "velocity": 86,
              "position": 23,
              "duration": 0.48541666666666666
            },
            {
              "pitch": 97,
              "velocity": 59,
              "position": 23.5,
              "duration": 0.23541666666666666
            },
            {
              "pitch": 36,
              "velocity": 84,
              "position": 23.5,
              "duration": 0.49583333333333335
            },
            {
              "pitch": 100,
              "velocity": 70,
              "position": 24,
              "duration": 0.23541666666666666
            },
            {
              "pitch": 38,
              "velocity": 86,
              "position": 24.010416666666668,
              "duration": 0.475
            },
            {
              "pitch": 67,
              "velocity": 24,
              "position": 22.5,
              "duration": 1.9854166666666666
            },
            {
              "pitch": 99,
              "velocity": 55,
              "position": 24.5,
              "duration": 0.23541666666666666
            },
            {
              "pitch": 38,
              "velocity": 84,
              "position": 24.5,
              "duration": 0.48541666666666666
            },
            {
              "pitch": 98,
              "velocity": 70,
              "position": 25,
              "duration": 0.23541666666666666
            },
            {
              "pitch": 72,
              "velocity": 34,
              "position": 23.5,
              "duration": 1.9854166666666666
            },
            {
              "pitch": 38,
              "velocity": 86,
              "position": 25,
              "duration": 0.48541666666666666
            },
            {
              "pitch": 97,
              "velocity": 57,
              "position": 25.5,
              "duration": 0.23541666666666666
            },
            {
              "pitch": 38,
              "velocity": 84,
              "position": 25.5,
              "duration": 0.48541666666666666
            },
            {
              "pitch": 102,
              "velocity": 70,
              "position": 26,
              "duration": 0.23541666666666666
            },
            {
              "pitch": 67,
              "velocity": 24,
              "position": 24.5,
              "duration": 1.9854166666666666
            },
            {
              "pitch": 38,
              "velocity": 86,
              "position": 26,
              "duration": 0.48541666666666666
            },
            {
              "pitch": 99,
              "velocity": 70,
              "position": 26.5,
              "duration": 0.23541666666666666
            },
            {
              "pitch": 38,
              "velocity": 84,
              "position": 26.5,
              "duration": 0.48541666666666666
            },
            {
              "pitch": 98,
              "velocity": 55,
              "position": 27,
              "duration": 0.23541666666666666
            },
            {
              "pitch": 38,
              "velocity": 86,
              "position": 27,
              "duration": 0.48541666666666666
            },
            {
              "pitch": 97,
              "velocity": 59,
              "position": 27.5,
              "duration": 0.23541666666666666
            },
            {
              "pitch": 74,
              "velocity": 32,
              "position": 25.5,
              "duration": 2.4854166666666666
            },
            {
              "pitch": 38,
              "velocity": 84,
              "position": 27.5,
              "duration": 0.48541666666666666
            },
            {
              "pitch": 100,
              "velocity": 70,
              "position": 28,
              "duration": 0.23541666666666666
            },
            {
              "pitch": 40,
              "velocity": 86,
              "position": 28,
              "duration": 0.48541666666666666
            },
            {
              "pitch": 99,
              "velocity": 55,
              "position": 28.5,
              "duration": 0.23541666666666666
            },
            {
              "pitch": 67,
              "velocity": 18,
              "position": 26.5,
              "duration": 2.4854166666666666
            },
            {
              "pitch": 40,
              "velocity": 84,
              "position": 28.5,
              "duration": 0.48541666666666666
            },
            {
              "pitch": 98,
              "velocity": 70,
              "position": 29,
              "duration": 0.23541666666666666
            },
            {
              "pitch": 40,
              "velocity": 86,
              "position": 29,
              "duration": 0.48541666666666666
            },
            {
              "pitch": 72,
              "velocity": 34,
              "position": 28,
              "duration": 1.4854166666666666
            },
            {
              "pitch": 99,
              "velocity": 57,
              "position": 29.5,
              "duration": 0.23541666666666666
            },
            {
              "pitch": 40,
              "velocity": 84,
              "position": 29.5,
              "duration": 0.48541666666666666
            },
            {
              "pitch": 102,
              "velocity": 70,
              "position": 30,
              "duration": 0.23541666666666666
            },
            {
              "pitch": 67,
              "velocity": 24,
              "position": 29,
              "duration": 1.4854166666666666
            },
            {
              "pitch": 40,
              "velocity": 86,
              "position": 30,
              "duration": 0.48541666666666666
            },
            {
              "pitch": 99,
              "velocity": 70,
              "position": 30.5,
              "duration": 0.23541666666666666
            },
            {
              "pitch": 40,
              "velocity": 84,
              "position": 30.5,
              "duration": 0.48541666666666666
            },
            {
              "pitch": 98,
              "velocity": 55,
              "position": 31,
              "duration": 0.23541666666666666
            },
            {
              "pitch": 74,
              "velocity": 32,
              "position": 29.5,
              "duration": 1.9854166666666666
            },
            {
              "pitch": 40,
              "velocity": 86,
              "position": 31,
              "duration": 0.48541666666666666
            },
            {
              "pitch": 97,
              "velocity": 59,
              "position": 31.5,
              "duration": 0.23541666666666666
            },
            {
              "pitch": 100,
              "velocity": 70,
              "position": 32,
              "duration": 0.23541666666666666
            },
            {
              "pitch": 67,
              "velocity": 24,
              "position": 30.5,
              "duration": 1.9854166666666666
            },
            {
              "pitch": 43,
              "velocity": 84,
              "position": 31.5,
              "duration": 0.9854166666666667
            },
            {
              "pitch": 99,
              "velocity": 55,
              "position": 32.5,
              "duration": 0.23541666666666666
            },
            {
              "pitch": 43,
              "velocity": 84,
              "position": 32.5,
              "duration": 0.48541666666666666
            },
            {
              "pitch": 98,
              "velocity": 70,
              "position": 33,
              "duration": 0.23541666666666666
            },
            {
              "pitch": 72,
              "velocity": 34,
              "position": 31.5,
              "duration": 1.9854166666666666
            },
            {
              "pitch": 43,
              "velocity": 86,
              "position": 33,
              "duration": 0.48541666666666666
            },
            {
              "pitch": 97,
              "velocity": 57,
              "position": 33.5,
              "duration": 0.23541666666666666
            },
            {
              "pitch": 43,
              "velocity": 84,
              "position": 33.5,
              "duration": 0.48541666666666666
            },
            {
              "pitch": 102,
              "velocity": 70,
              "position": 34,
              "duration": 0.23541666666666666
            },
            {
              "pitch": 67,
              "velocity": 24,
              "position": 32.5,
              "duration": 1.9854166666666666
            },
            {
              "pitch": 43,
              "velocity": 86,
              "position": 34,
              "duration": 0.48541666666666666
            },
            {
              "pitch": 99,
              "velocity": 70,
              "position": 34.5,
              "duration": 0.23541666666666666
            },
            {
              "pitch": 43,
              "velocity": 84,
              "position": 34.5,
              "duration": 0.48541666666666666
            },
            {
              "pitch": 98,
              "velocity": 55,
              "position": 35,
              "duration": 0.23541666666666666
            },
            {
              "pitch": 43,
              "velocity": 86,
              "position": 35,
              "duration": 0.48541666666666666
            },
            {
              "pitch": 97,
              "velocity": 59,
              "position": 35.5,
              "duration": 0.23541666666666666
            },
            {
              "pitch": 74,
              "velocity": 32,
              "position": 33.5,
              "duration": 2.4854166666666666
            },
            {
              "pitch": 43,
              "velocity": 84,
              "position": 35.5,
              "duration": 0.48541666666666666
            },
            {
              "pitch": 67,
              "velocity": 18,
              "position": 34.5,
              "duration": 1.4854166666666666
            }
          ]
        },
        "15": {
          "ctab": {
            "srcChannel": 15,
            "name": "Str M",
            "accType": "PHRASE2",
            "editable": false,
            "mutedNotes": [],
            "mutedChords": [
              "dim7",
              "dim",
              "minMaj7(9)",
              "minMaj7",
              "min7(11)",
              "min7(9)",
              "min(9)",
              "m7b5",
              "min7",
              "min6",
              "min"
            ],
            "autoStart": false,
            "sourceChordNote": 0,
            "sourceChordType": "Maj",
            "ctb2Low": null,
            "ctb2Main": {
              "ntr": "ROOT_TRANSPOSITION",
              "ntt": "BYPASS",
              "bassOn": false,
              "chordRootUpperLimit": 10,
              "noteLowLimit": 54,
              "noteHighLimit": 65,
              "rtr": "PITCH_SHIFT"
            },
            "ctb2High": null
          },
          "notes": [
            {
              "pitch": 55,
              "velocity": 51,
              "position": 4,
              "duration": 3.475
            },
            {
              "pitch": 64,
              "velocity": 51,
              "position": 4,
              "duration": 3.475
            },
            {
              "pitch": 60,
              "velocity": 51,
              "position": 4,
              "duration": 3.475
            },
            {
              "pitch": 55,
              "velocity": 109,
              "position": 7.489583333333333,
              "duration": 4.485416666666667
            },
            {
              "pitch": 65,
              "velocity": 51,
              "position": 7.489583333333333,
              "duration": 4.485416666666667
            },
            {
              "pitch": 60,
              "velocity": 109,
              "position": 7.489583333333333,
              "duration": 4.485416666666667
            },
            {
              "pitch": 55,
              "velocity": 51,
              "position": 11.989583333333334,
              "duration": 3.4854166666666666
            },
            {
              "pitch": 64,
              "velocity": 51,
              "position": 11.989583333333334,
              "duration": 3.4854166666666666
            },
            {
              "pitch": 60,
              "velocity": 51,
              "position": 11.989583333333334,
              "duration": 3.4854166666666666
            },
            {
              "pitch": 55,
              "velocity": 109,
              "position": 15.489583333333334,
              "duration": 4.475
            },
            {
              "pitch": 65,
              "velocity": 51,
              "position": 15.489583333333334,
              "duration": 4.475
            },
            {
              "pitch": 60,
              "velocity": 109,
              "position": 15.489583333333334,
              "duration": 4.475
            },
            {
              "pitch": 55,
              "velocity": 51,
              "position": 19.989583333333332,
              "duration": 3.4854166666666666
            },
            {
              "pitch": 64,
              "velocity": 51,
              "position": 19.989583333333332,
              "duration": 3.4854166666666666
            },
            {
              "pitch": 60,
              "velocity": 51,
              "position": 19.989583333333332,
              "duration": 3.4854166666666666
            },
            {
              "pitch": 55,
              "velocity": 109,
              "position": 23.489583333333332,
              "duration": 4.485416666666667
            },
            {
              "pitch": 65,
              "velocity": 51,
              "position": 23.489583333333332,
              "duration": 4.485416666666667
            },
            {
              "pitch": 60,
              "velocity": 109,
              "position": 23.489583333333332,
              "duration": 4.485416666666667
            },
            {
              "pitch": 55,
              "velocity": 51,
              "position": 27.989583333333332,
              "duration": 3.4854166666666666
            },
            {
              "pitch": 64,
              "velocity": 51,
              "position": 27.989583333333332,
              "duration": 3.4854166666666666
            },
            {
              "pitch": 60,
              "velocity": 51,
              "position": 27.989583333333332,
              "duration": 3.4854166666666666
            },
            {
              "pitch": 55,
              "velocity": 109,
              "position": 31.489583333333332,
              "duration": 4.454166666666667
            },
            {
              "pitch": 65,
              "velocity": 51,
              "position": 31.489583333333332,
              "duration": 4.454166666666667
            },
            {
              "pitch": 60,
              "velocity": 109,
              "position": 31.489583333333332,
              "duration": 4.454166666666667
            }
          ]
        }
      }
    },
    "Ending_B": {
      "type": "Ending_B",
      "sizeInBeats": 28,
      "channels": {
        "1": {
          "ctab": {
            "srcChannel": 1,
            "name": "Bass m",
            "accType": "BASS",
            "editable": false,
            "mutedNotes": [],
            "mutedChords": [
              "1+2+5",
              "sus4",
              "1+5",
              "1+8",
              "7aug",
              "Maj7aug",
              "7(#9)",
              "7(b13)",
              "7(b9)",
              "7(13)",
              "7#11",
              "7(9)",
              "7b5",
              "7sus4",
              "7th",
              "aug",
              "Maj6(9)",
              "Maj7(9)",
              "Maj(9)",
              "Maj7#11",
              "Maj7",
              "Maj6",
              "Maj"
            ],
            "autoStart": false,
            "sourceChordNote": 0,
            "sourceChordType": "min",
            "ctb2Low": null,
            "ctb2Main": {
              "ntr": "ROOT_TRANSPOSITION",
              "ntt": "BYPASS",
              "bassOn": false,
              "chordRootUpperLimit": 8,
              "noteLowLimit": 28,
              "noteHighLimit": 51,
              "rtr": "PITCH_SHIFT"
            },
            "ctb2High": null
          },
          "notes": [
            {
              "pitch": 24,
              "velocity": 70,
              "position": 0,
              "duration": 0.48541666666666666
            },
            {
              "pitch": 24,
              "velocity": 50,
              "position": 0.5,
              "duration": 0.48541666666666666
            },
            {
              "pitch": 24,
              "velocity": 70,
              "position": 1,
              "duration": 0.48541666666666666
            },
            {
              "pitch": 24,
              "velocity": 50,
              "position": 1.5,
              "duration": 0.48541666666666666
            },
            {
              "pitch": 24,
              "velocity": 70,
              "position": 2,
              "duration": 0.48541666666666666
            },
            {
              "pitch": 24,
              "velocity": 50,
              "position": 2.5,
              "duration": 0.48541666666666666
            },
            {
              "pitch": 24,
              "velocity": 70,
              "position": 3,
              "duration": 0.48541666666666666
            },
            {
              "pitch": 24,
              "velocity": 50,
              "position": 3.5,
              "duration": 0.48541666666666666
            },
            {
              "pitch": 24,
              "velocity": 70,
              "position": 4,
              "duration": 0.48541666666666666
            },
            {
              "pitch": 24,
              "velocity": 50,
              "position": 4.5,
              "duration": 0.48541666666666666
            },
            {
              "pitch": 24,
              "velocity": 70,
              "position": 5,
              "duration": 0.48541666666666666
            },
            {
              "pitch": 24,
              "velocity": 50,
              "position": 5.5,
              "duration": 0.48541666666666666
            },
            {
              "pitch": 24,
              "velocity": 70,
              "position": 6,
              "duration": 0.43333333333333335
            },
            {
              "pitch": 24,
              "velocity": 50,
              "position": 6.5,
              "duration": 0.43333333333333335
            },
            {
              "pitch": 31,
              "velocity": 70,
              "position": 7,
              "duration": 0.48541666666666666
            },
            {
              "pitch": 33,
              "velocity": 50,
              "position": 7.5,
              "duration": 0.48541666666666666
            },
            {
              "pitch": 24,
              "velocity": 70,
              "position": 8,
              "duration": 0.48541666666666666
            },
            {
              "pitch": 24,
              "velocity": 50,
              "position": 8.5,
              "duration": 0.48541666666666666
            },
            {
              "pitch": 24,
              "velocity": 70,
              "position": 9,
              "duration": 0.48541666666666666
            },
            {
              "pitch": 24,
              "velocity": 50,
              "position": 9.5,
              "duration": 0.48541666666666666
            },
            {
              "pitch": 24,
              "velocity": 70,
              "position": 10,
              "duration": 0.48541666666666666
            },
            {
              "pitch": 24,
              "velocity": 50,
              "position": 10.5,
              "duration": 0.48541666666666666
            },
            {
              "pitch": 24,
              "velocity": 70,
              "position": 11,
              "duration": 0.48541666666666666
            },
            {
              "pitch": 34,
              "velocity": 60,
              "position": 11.5,
              "duration": 0.48541666666666666
            },
            {
              "pitch": 31,
              "velocity": 50,
              "position": 12.5,
              "duration": 0.48541666666666666
            },
            {
              "pitch": 34,
              "velocity": 70,
              "position": 13,
              "duration": 0.48541666666666666
            },
            {
              "pitch": 36,
              "velocity": 50,
              "position": 13.5,
              "duration": 0.48541666666666666
            },
            {
              "pitch": 39,
              "velocity": 70,
              "position": 14,
              "duration": 0.48541666666666666
            },
            {
              "pitch": 38,
              "velocity": 50,
              "position": 14.5,
              "duration": 0.48541666666666666
            },
            {
              "pitch": 36,
              "velocity": 70,
              "position": 15,
              "duration": 0.48541666666666666
            },
            {
              "pitch": 34,
              "velocity": 50,
              "position": 15.5,
              "duration": 0.48541666666666666
            },
            {
              "pitch": 24,
              "velocity": 70,
              "position": 16,
              "duration": 10.985416666666667
            }
          ]
        },
        "2": {
          "ctab": {
            "srcChannel": 2,
            "name": "StGt m",
            "accType": "CHORD1",
            "editable": false,
            "mutedNotes": [],
            "mutedChords": [
              "1+2+5",
              "sus4",
              "1+5",
              "1+8",
              "7aug",
              "Maj7aug",
              "7(#9)",
              "7(b13)",
              "7(b9)",
              "7(13)",
              "7#11",
              "7(9)",
              "7b5",
              "7sus4",
              "7th",
              "aug",
              "Maj6(9)",
              "Maj7(9)",
              "Maj(9)",
              "Maj7#11",
              "Maj7",
              "Maj6",
              "Maj"
            ],
            "autoStart": false,
            "sourceChordNote": 0,
            "sourceChordType": "min",
            "ctb2Low": null,
            "ctb2Main": {
              "ntr": "ROOT_TRANSPOSITION",
              "ntt": "BYPASS",
              "bassOn": false,
              "chordRootUpperLimit": 3,
              "noteLowLimit": 40,
              "noteHighLimit": 70,
              "rtr": "PITCH_SHIFT"
            },
            "ctb2High": null
          },
          "notes": [
            {
              "pitch": 75,
              "velocity": 50,
              "position": 0.03125,
              "duration": 0.44375
            },
            {
              "pitch": 72,
              "velocity": 50,
              "position": 0.025,
              "duration": 0.45416666666666666
            },
            {
              "pitch": 79,
              "velocity": 50,
              "position": 0.04583333333333333,
              "duration": 0.43333333333333335
            },
            {
              "pitch": 103,
              "velocity": 103,
              "position": 0.00625,
              "duration": 0.475
            },
            {
              "pitch": 48,
              "velocity": 45,
              "position": 0,
              "duration": 0.49583333333333335
            },
            {
              "pitch": 55,
              "velocity": 50,
              "position": 0.014583333333333334,
              "duration": 0.48541666666666666
            },
            {
              "pitch": 72,
              "velocity": 38,
              "position": 0.5,
              "duration": 0.48541666666666666
            },
            {
              "pitch": 102,
              "velocity": 103,
              "position": 0.5,
              "duration": 0.48541666666666666
            },
            {
              "pitch": 55,
              "velocity": 40,
              "position": 0.5145833333333333,
              "duration": 0.475
            },
            {
              "pitch": 75,
              "velocity": 42,
              "position": 0.49375,
              "duration": 0.49583333333333335
            },
            {
              "pitch": 48,
              "velocity": 32,
              "position": 0.5458333333333333,
              "duration": 0.44375
            },
            {
              "pitch": 79,
              "velocity": 46,
              "position": 0.5,
              "duration": 0.49583333333333335
            },
            {
              "pitch": 115,
              "velocity": 103,
              "position": 1,
              "duration": 0.48541666666666666
            },
            {
              "pitch": 98,
              "velocity": 103,
              "position": 1.5,
              "duration": 0.48541666666666666
            },
            {
              "pitch": 79,
              "velocity": 50,
              "position": 1.49375,
              "duration": 0.9854166666666667
            },
            {
              "pitch": 48,
              "velocity": 45,
              "position": 1.5458333333333334,
              "duration": 0.94375
            },
            {
              "pitch": 75,
              "velocity": 50,
              "position": 1.5041666666666667,
              "duration": 0.9854166666666667
            },
            {
              "pitch": 72,
              "velocity": 50,
              "position": 1.5145833333333334,
              "duration": 0.9854166666666667
            },
            {
              "pitch": 55,
              "velocity": 50,
              "position": 1.525,
              "duration": 0.9854166666666667
            },
            {
              "pitch": 72,
              "velocity": 45,
              "position": 2.5145833333333334,
              "duration": 0.46458333333333335
            },
            {
              "pitch": 48,
              "velocity": 32,
              "position": 2.5458333333333334,
              "duration": 0.43333333333333335
            },
            {
              "pitch": 102,
              "velocity": 103,
              "position": 2.5,
              "duration": 0.48541666666666666
            },
            {
              "pitch": 75,
              "velocity": 34,
              "position": 2.504166666666667,
              "duration": 0.48541666666666666
            },
            {
              "pitch": 55,
              "velocity": 45,
              "position": 2.525,
              "duration": 0.475
            },
            {
              "pitch": 79,
              "velocity": 34,
              "position": 2.49375,
              "duration": 0.5270833333333333
            },
            {
              "pitch": 75,
              "velocity": 44,
              "position": 3.004166666666667,
              "duration": 0.475
            },
            {
              "pitch": 79,
              "velocity": 50,
              "position": 3.0458333333333334,
              "duration": 0.43333333333333335
            },
            {
              "pitch": 103,
              "velocity": 103,
              "position": 3,
              "duration": 0.48541666666666666
            },
            {
              "pitch": 72,
              "velocity": 44,
              "position": 2.99375,
              "duration": 0.49583333333333335
            },
            {
              "pitch": 48,
              "velocity": 45,
              "position": 3,
              "duration": 0.49583333333333335
            },
            {
              "pitch": 55,
              "velocity": 50,
              "position": 3.0145833333333334,
              "duration": 0.48541666666666666
            },
            {
              "pitch": 48,
              "velocity": 32,
              "position": 3.5458333333333334,
              "duration": 0.43333333333333335
            },
            {
              "pitch": 102,
              "velocity": 103,
              "position": 3.5,
              "duration": 0.48541666666666666
            },
            {
              "pitch": 55,
              "velocity": 40,
              "position": 3.5145833333333334,
              "duration": 0.475
            },
            {
              "pitch": 79,
              "velocity": 44,
              "position": 3.5,
              "duration": 0.49583333333333335
            },
            {
              "pitch": 72,
              "velocity": 36,
              "position": 3.504166666666667,
              "duration": 0.49583333333333335
            },
            {
              "pitch": 75,
              "velocity": 38,
              "position": 3.49375,
              "duration": 0.5166666666666667
            },
            {
              "pitch": 75,
              "velocity": 50,
              "position": 4.03125,
              "duration": 0.44375
            },
            {
              "pitch": 72,
              "velocity": 50,
              "position": 4.025,
              "duration": 0.45416666666666666
            },
            {
              "pitch": 79,
              "velocity": 50,
              "position": 4.045833333333333,
              "duration": 0.43333333333333335
            },
            {
              "pitch": 103,
              "velocity": 103,
              "position": 4.010416666666667,
              "duration": 0.475
            },
            {
              "pitch": 48,
              "velocity": 45,
              "position": 4,
              "duration": 0.49583333333333335
            },
            {
              "pitch": 55,
              "velocity": 50,
              "position": 4.014583333333333,
              "duration": 0.48541666666666666
            },
            {
              "pitch": 72,
              "velocity": 38,
              "position": 4.5,
              "duration": 0.48541666666666666
            },
            {
              "pitch": 102,
              "velocity": 103,
              "position": 4.5,
              "duration": 0.48541666666666666
            },
            {
              "pitch": 55,
              "velocity": 40,
              "position": 4.514583333333333,
              "duration": 0.475
            },
            {
              "pitch": 75,
              "velocity": 42,
              "position": 4.49375,
              "duration": 0.49583333333333335
            },
            {
              "pitch": 48,
              "velocity": 32,
              "position": 4.545833333333333,
              "duration": 0.44375
            },
            {
              "pitch": 79,
              "velocity": 46,
              "position": 4.5,
              "duration": 0.49583333333333335
            },
            {
              "pitch": 115,
              "velocity": 103,
              "position": 5,
              "duration": 0.48541666666666666
            },
            {
              "pitch": 98,
              "velocity": 103,
              "position": 5.5,
              "duration": 0.48541666666666666
            },
            {
              "pitch": 79,
              "velocity": 50,
              "position": 5.49375,
              "duration": 0.9854166666666667
            },
            {
              "pitch": 48,
              "velocity": 45,
              "position": 5.545833333333333,
              "duration": 0.94375
            },
            {
              "pitch": 75,
              "velocity": 50,
              "position": 5.504166666666666,
              "duration": 0.9854166666666667
            },
            {
              "pitch": 72,
              "velocity": 50,
              "position": 5.514583333333333,
              "duration": 0.9854166666666667
            },
            {
              "pitch": 55,
              "velocity": 50,
              "position": 5.525,
              "duration": 0.9854166666666667
            },
            {
              "pitch": 72,
              "velocity": 45,
              "position": 6.514583333333333,
              "duration": 0.46458333333333335
            },
            {
              "pitch": 48,
              "velocity": 32,
              "position": 6.545833333333333,
              "duration": 0.43333333333333335
            },
            {
              "pitch": 102,
              "velocity": 103,
              "position": 6.5,
              "duration": 0.48541666666666666
            },
            {
              "pitch": 75,
              "velocity": 34,
              "position": 6.504166666666666,
              "duration": 0.48541666666666666
            },
            {
              "pitch": 55,
              "velocity": 45,
              "position": 6.525,
              "duration": 0.475
            },
            {
              "pitch": 79,
              "velocity": 34,
              "position": 6.49375,
              "duration": 0.5270833333333333
            },
            {
              "pitch": 75,
              "velocity": 44,
              "position": 7.004166666666666,
              "duration": 0.475
            },
            {
              "pitch": 79,
              "velocity": 50,
              "position": 7.045833333333333,
              "duration": 0.43333333333333335
            },
            {
              "pitch": 103,
              "velocity": 103,
              "position": 7,
              "duration": 0.48541666666666666
            },
            {
              "pitch": 72,
              "velocity": 44,
              "position": 6.99375,
              "duration": 0.49583333333333335
            },
            {
              "pitch": 48,
              "velocity": 45,
              "position": 7,
              "duration": 0.49583333333333335
            },
            {
              "pitch": 55,
              "velocity": 50,
              "position": 7.014583333333333,
              "duration": 0.48541666666666666
            },
            {
              "pitch": 48,
              "velocity": 32,
              "position": 7.545833333333333,
              "duration": 0.43333333333333335
            },
            {
              "pitch": 104,
              "velocity": 103,
              "position": 7.5,
              "duration": 0.48541666666666666
            },
            {
              "pitch": 55,
              "velocity": 40,
              "position": 7.514583333333333,
              "duration": 0.475
            },
            {
              "pitch": 79,
              "velocity": 44,
              "position": 7.5,
              "duration": 0.49583333333333335
            },
            {
              "pitch": 72,
              "velocity": 36,
              "position": 7.504166666666666,
              "duration": 0.49583333333333335
            },
            {
              "pitch": 75,
              "velocity": 38,
              "position": 7.49375,
              "duration": 0.5166666666666667
            },
            {
              "pitch": 75,
              "velocity": 50,
              "position": 8.03125,
              "duration": 0.44375
            },
            {
              "pitch": 72,
              "velocity": 50,
              "position": 8.025,
              "duration": 0.45416666666666666
            },
            {
              "pitch": 79,
              "velocity": 50,
              "position": 8.045833333333333,
              "duration": 0.43333333333333335
            },
            {
              "pitch": 103,
              "velocity": 103,
              "position": 8.010416666666666,
              "duration": 0.475
            },
            {
              "pitch": 48,
              "velocity": 45,
              "position": 8,
              "duration": 0.49583333333333335
            },
            {
              "pitch": 55,
              "velocity": 50,
              "position": 8.014583333333333,
              "duration": 0.48541666666666666
            },
            {
              "pitch": 72,
              "velocity": 38,
              "position": 8.5,
              "duration": 0.48541666666666666
            },
            {
              "pitch": 102,
              "velocity": 103,
              "position": 8.5,
              "duration": 0.48541666666666666
            },
            {
              "pitch": 55,
              "velocity": 40,
              "position": 8.514583333333333,
              "duration": 0.475
            },
            {
              "pitch": 75,
              "velocity": 42,
              "position": 8.49375,
              "duration": 0.49583333333333335
            },
            {
              "pitch": 48,
              "velocity": 32,
              "position": 8.545833333333333,
              "duration": 0.44375
            },
            {
              "pitch": 79,
              "velocity": 46,
              "position": 8.5,
              "duration": 0.49583333333333335
            },
            {
              "pitch": 115,
              "velocity": 103,
              "position": 9,
              "duration": 0.48541666666666666
            },
            {
              "pitch": 98,
              "velocity": 103,
              "position": 9.5,
              "duration": 0.48541666666666666
            },
            {
              "pitch": 81,
              "velocity": 50,
              "position": 9.49375,
              "duration": 0.9854166666666667
            },
            {
              "pitch": 104,
              "velocity": 103,
              "position": 10,
              "duration": 0.48541666666666666
            },
            {
              "pitch": 48,
              "velocity": 45,
              "position": 9.545833333333333,
              "duration": 0.94375
            },
            {
              "pitch": 77,
              "velocity": 50,
              "position": 9.504166666666666,
              "duration": 0.9854166666666667
            },
            {
              "pitch": 72,
              "velocity": 50,
              "position": 9.514583333333333,
              "duration": 0.9854166666666667
            },
            {
              "pitch": 53,
              "velocity": 50,
              "position": 9.525,
              "duration": 0.9854166666666667
            },
            {
              "pitch": 72,
              "velocity": 45,
              "position": 10.514583333333333,
              "duration": 0.46458333333333335
            },
            {
              "pitch": 48,
              "velocity": 32,
              "position": 10.545833333333333,
              "duration": 0.43333333333333335
            },
            {
              "pitch": 102,
              "velocity": 103,
              "position": 10.5,
              "duration": 0.48541666666666666
            },
            {
              "pitch": 77,
              "velocity": 34,
              "position": 10.504166666666666,
              "duration": 0.48541666666666666
            },
            {
              "pitch": 53,
              "velocity": 45,
              "position": 10.525,
              "duration": 0.475
            },
            {
              "pitch": 81,
              "velocity": 34,
              "position": 10.49375,
              "duration": 0.5270833333333333
            },
            {
              "pitch": 77,
              "velocity": 44,
              "position": 11.004166666666666,
              "duration": 0.475
            },
            {
              "pitch": 103,
              "velocity": 103,
              "position": 11,
              "duration": 0.48541666666666666
            },
            {
              "pitch": 72,
              "velocity": 44,
              "position": 10.99375,
              "duration": 0.49583333333333335
            },
            {
              "pitch": 81,
              "velocity": 50,
              "position": 11.045833333333333,
              "duration": 0.44375
            },
            {
              "pitch": 48,
              "velocity": 45,
              "position": 11,
              "duration": 0.49583333333333335
            },
            {
              "pitch": 53,
              "velocity": 50,
              "position": 11.014583333333333,
              "duration": 0.48541666666666666
            },
            {
              "pitch": 104,
              "velocity": 103,
              "position": 11.5,
              "duration": 0.48541666666666666
            },
            {
              "pitch": 53,
              "velocity": 40,
              "position": 11.514583333333333,
              "duration": 0.475
            },
            {
              "pitch": 48,
              "velocity": 32,
              "position": 11.545833333333333,
              "duration": 0.44375
            },
            {
              "pitch": 82,
              "velocity": 44,
              "position": 11.5,
              "duration": 0.49583333333333335
            },
            {
              "pitch": 72,
              "velocity": 36,
              "position": 11.504166666666666,
              "duration": 0.49583333333333335
            },
            {
              "pitch": 77,
              "velocity": 38,
              "position": 11.49375,
              "duration": 0.5166666666666667
            },
            {
              "pitch": 115,
              "velocity": 103,
              "position": 12.010416666666666,
              "duration": 0.48541666666666666
            },
            {
              "pitch": 55,
              "velocity": 90,
              "position": 12.5,
              "duration": 0.48541666666666666
            },
            {
              "pitch": 58,
              "velocity": 60,
              "position": 13,
              "duration": 0.48541666666666666
            },
            {
              "pitch": 60,
              "velocity": 100,
              "position": 13.5,
              "duration": 0.48541666666666666
            },
            {
              "pitch": 62,
              "velocity": 120,
              "position": 14,
              "duration": 0.9854166666666667
            },
            {
              "pitch": 60,
              "velocity": 60,
              "position": 15,
              "duration": 0.48541666666666666
            },
            {
              "pitch": 58,
              "velocity": 100,
              "position": 15.5,
              "duration": 0.48541666666666666
            },
            {
              "pitch": 111,
              "velocity": 103,
              "position": 16.010416666666668,
              "duration": 0.23541666666666666
            },
            {
              "pitch": 79,
              "velocity": 50,
              "position": 16.052083333333332,
              "duration": 10.933333333333334
            },
            {
              "pitch": 75,
              "velocity": 50,
              "position": 16.041666666666668,
              "duration": 10.94375
            },
            {
              "pitch": 72,
              "velocity": 50,
              "position": 16.03125,
              "duration": 10.954166666666667
            },
            {
              "pitch": 55,
              "velocity": 50,
              "position": 16.020833333333332,
              "duration": 10.964583333333334
            },
            {
              "pitch": 48,
              "velocity": 45,
              "position": 16.010416666666668,
              "duration": 10.985416666666667
            }
          ]
        },
        "3": {
          "ctab": {
            "srcChannel": 3,
            "name": "HiGt m",
            "accType": "CHORD2",
            "editable": false,
            "mutedNotes": [],
            "mutedChords": [
              "1+2+5",
              "sus4",
              "1+5",
              "1+8",
              "7aug",
              "Maj7aug",
              "7(#9)",
              "7(b13)",
              "7(b9)",
              "7(13)",
              "7#11",
              "7(9)",
              "7b5",
              "7sus4",
              "7th",
              "aug",
              "Maj6(9)",
              "Maj7(9)",
              "Maj(9)",
              "Maj7#11",
              "Maj7",
              "Maj6",
              "Maj"
            ],
            "autoStart": false,
            "sourceChordNote": 0,
            "sourceChordType": "min",
            "ctb2Low": null,
            "ctb2Main": {
              "ntr": "ROOT_TRANSPOSITION",
              "ntt": "BYPASS",
              "bassOn": false,
              "chordRootUpperLimit": 8,
              "noteLowLimit": 40,
              "noteHighLimit": 65,
              "rtr": "PITCH_SHIFT"
            },
            "ctb2High": null
          },
          "notes": [
            {
              "pitch": 100,
              "velocity": 75,
              "position": 0.010416666666666666,
              "duration": 0.23541666666666666
            },
            {
              "pitch": 58,
              "velocity": 58,
              "position": 0.020833333333333332,
              "duration": 0.46458333333333335
            },
            {
              "pitch": 43,
              "velocity": 60,
              "position": 0.00625,
              "duration": 0.49583333333333335
            },
            {
              "pitch": 63,
              "velocity": 56,
              "position": 0.0375,
              "duration": 0.48541666666666666
            },
            {
              "pitch": 67,
              "velocity": 53,
              "position": 0.0625,
              "duration": 0.48541666666666666
            },
            {
              "pitch": 96,
              "velocity": 55,
              "position": 0.5104166666666666,
              "duration": 0.23541666666666666
            },
            {
              "pitch": 58,
              "velocity": 37,
              "position": 0.5,
              "duration": 0.48541666666666666
            },
            {
              "pitch": 63,
              "velocity": 50,
              "position": 0.5375,
              "duration": 0.46458333333333335
            },
            {
              "pitch": 67,
              "velocity": 47,
              "position": 0.5625,
              "duration": 0.48541666666666666
            },
            {
              "pitch": 98,
              "velocity": 65,
              "position": 1.0104166666666667,
              "duration": 0.23541666666666666
            },
            {
              "pitch": 67,
              "velocity": 53,
              "position": 1.0625,
              "duration": 0.42291666666666666
            },
            {
              "pitch": 58,
              "velocity": 56,
              "position": 1,
              "duration": 0.5270833333333333
            },
            {
              "pitch": 63,
              "velocity": 53,
              "position": 1.0208333333333333,
              "duration": 0.50625
            },
            {
              "pitch": 36,
              "velocity": 60,
              "position": 0.00625,
              "duration": 1.5375
            },
            {
              "pitch": 43,
              "velocity": 44,
              "position": 0.5208333333333334,
              "duration": 1.0270833333333333
            },
            {
              "pitch": 100,
              "velocity": 75,
              "position": 1.5104166666666667,
              "duration": 0.23541666666666666
            },
            {
              "pitch": 43,
              "velocity": 54,
              "position": 1.5625,
              "duration": 0.42291666666666666
            },
            {
              "pitch": 98,
              "velocity": 25,
              "position": 2.0104166666666665,
              "duration": 0.23541666666666666
            },
            {
              "pitch": 67,
              "velocity": 60,
              "position": 1.5,
              "duration": 0.9854166666666667
            },
            {
              "pitch": 63,
              "velocity": 58,
              "position": 1.5416666666666667,
              "duration": 0.9645833333333333
            },
            {
              "pitch": 58,
              "velocity": 54,
              "position": 1.5416666666666667,
              "duration": 0.9854166666666667
            },
            {
              "pitch": 96,
              "velocity": 65,
              "position": 2.5104166666666665,
              "duration": 0.23541666666666666
            },
            {
              "pitch": 43,
              "velocity": 46,
              "position": 2,
              "duration": 0.9854166666666667
            },
            {
              "pitch": 100,
              "velocity": 25,
              "position": 3.0104166666666665,
              "duration": 0.23541666666666666
            },
            {
              "pitch": 63,
              "velocity": 58,
              "position": 2.5208333333333335,
              "duration": 0.9645833333333333
            },
            {
              "pitch": 58,
              "velocity": 56,
              "position": 2.5416666666666665,
              "duration": 0.9645833333333333
            },
            {
              "pitch": 67,
              "velocity": 60,
              "position": 2.5,
              "duration": 1.0479166666666666
            },
            {
              "pitch": 98,
              "velocity": 65,
              "position": 3.5104166666666665,
              "duration": 0.23541666666666666
            },
            {
              "pitch": 36,
              "velocity": 54,
              "position": 1.5625,
              "duration": 2.4229166666666666
            },
            {
              "pitch": 43,
              "velocity": 46,
              "position": 3,
              "duration": 0.9854166666666667
            },
            {
              "pitch": 58,
              "velocity": 46,
              "position": 3.5208333333333335,
              "duration": 0.48541666666666666
            },
            {
              "pitch": 63,
              "velocity": 49,
              "position": 3.5,
              "duration": 0.5166666666666667
            },
            {
              "pitch": 67,
              "velocity": 46,
              "position": 3.5625,
              "duration": 0.48541666666666666
            },
            {
              "pitch": 100,
              "velocity": 75,
              "position": 4.010416666666667,
              "duration": 0.23541666666666666
            },
            {
              "pitch": 58,
              "velocity": 58,
              "position": 4.020833333333333,
              "duration": 0.46458333333333335
            },
            {
              "pitch": 43,
              "velocity": 60,
              "position": 4.00625,
              "duration": 0.49583333333333335
            },
            {
              "pitch": 63,
              "velocity": 56,
              "position": 4.0375,
              "duration": 0.48541666666666666
            },
            {
              "pitch": 67,
              "velocity": 53,
              "position": 4.0625,
              "duration": 0.48541666666666666
            },
            {
              "pitch": 96,
              "velocity": 55,
              "position": 4.510416666666667,
              "duration": 0.23541666666666666
            },
            {
              "pitch": 58,
              "velocity": 43,
              "position": 4.5,
              "duration": 0.48541666666666666
            },
            {
              "pitch": 63,
              "velocity": 51,
              "position": 4.5375,
              "duration": 0.46458333333333335
            },
            {
              "pitch": 67,
              "velocity": 48,
              "position": 4.5625,
              "duration": 0.48541666666666666
            },
            {
              "pitch": 98,
              "velocity": 65,
              "position": 5.010416666666667,
              "duration": 0.23541666666666666
            },
            {
              "pitch": 67,
              "velocity": 47,
              "position": 5.0625,
              "duration": 0.42291666666666666
            },
            {
              "pitch": 58,
              "velocity": 50,
              "position": 5,
              "duration": 0.5270833333333333
            },
            {
              "pitch": 63,
              "velocity": 47,
              "position": 5.020833333333333,
              "duration": 0.50625
            },
            {
              "pitch": 36,
              "velocity": 60,
              "position": 4.00625,
              "duration": 1.5375
            },
            {
              "pitch": 43,
              "velocity": 44,
              "position": 4.520833333333333,
              "duration": 1.0270833333333333
            },
            {
              "pitch": 100,
              "velocity": 75,
              "position": 5.510416666666667,
              "duration": 0.23541666666666666
            },
            {
              "pitch": 43,
              "velocity": 54,
              "position": 5.5625,
              "duration": 0.42291666666666666
            },
            {
              "pitch": 98,
              "velocity": 25,
              "position": 6.010416666666667,
              "duration": 0.23541666666666666
            },
            {
              "pitch": 67,
              "velocity": 60,
              "position": 5.5,
              "duration": 0.9854166666666667
            },
            {
              "pitch": 63,
              "velocity": 58,
              "position": 5.541666666666667,
              "duration": 0.9645833333333333
            },
            {
              "pitch": 58,
              "velocity": 56,
              "position": 5.541666666666667,
              "duration": 0.9854166666666667
            },
            {
              "pitch": 96,
              "velocity": 65,
              "position": 6.510416666666667,
              "duration": 0.23541666666666666
            },
            {
              "pitch": 36,
              "velocity": 54,
              "position": 5.5625,
              "duration": 1.4229166666666666
            },
            {
              "pitch": 43,
              "velocity": 46,
              "position": 6,
              "duration": 0.9854166666666667
            },
            {
              "pitch": 58,
              "velocity": 48,
              "position": 6.541666666666667,
              "duration": 0.44375
            },
            {
              "pitch": 63,
              "velocity": 50,
              "position": 6.520833333333333,
              "duration": 0.48541666666666666
            },
            {
              "pitch": 67,
              "velocity": 52,
              "position": 6.5,
              "duration": 0.5270833333333333
            },
            {
              "pitch": 100,
              "velocity": 75,
              "position": 7.010416666666667,
              "duration": 0.23541666666666666
            },
            {
              "pitch": 36,
              "velocity": 60,
              "position": 7.00625,
              "duration": 0.475
            },
            {
              "pitch": 43,
              "velocity": 60,
              "position": 7.00625,
              "duration": 0.49583333333333335
            },
            {
              "pitch": 58,
              "velocity": 58,
              "position": 7,
              "duration": 0.50625
            },
            {
              "pitch": 63,
              "velocity": 56,
              "position": 7.020833333333333,
              "duration": 0.50625
            },
            {
              "pitch": 67,
              "velocity": 53,
              "position": 7.041666666666667,
              "duration": 0.50625
            },
            {
              "pitch": 96,
              "velocity": 55,
              "position": 7.510416666666667,
              "duration": 0.23541666666666666
            },
            {
              "pitch": 60,
              "velocity": 58,
              "position": 7.520833333333333,
              "duration": 0.9645833333333333
            },
            {
              "pitch": 41,
              "velocity": 60,
              "position": 7.5,
              "duration": 1.00625
            },
            {
              "pitch": 96,
              "velocity": 55,
              "position": 8.510416666666666,
              "duration": 0.23541666666666666
            },
            {
              "pitch": 60,
              "velocity": 43,
              "position": 8.5,
              "duration": 0.48541666666666666
            },
            {
              "pitch": 65,
              "velocity": 56,
              "position": 7.541666666666667,
              "duration": 1.4645833333333333
            },
            {
              "pitch": 98,
              "velocity": 65,
              "position": 9.010416666666666,
              "duration": 0.23541666666666666
            },
            {
              "pitch": 69,
              "velocity": 53,
              "position": 7.5625,
              "duration": 1.9229166666666666
            },
            {
              "pitch": 60,
              "velocity": 56,
              "position": 9,
              "duration": 0.5270833333333333
            },
            {
              "pitch": 65,
              "velocity": 53,
              "position": 9.020833333333334,
              "duration": 0.50625
            },
            {
              "pitch": 41,
              "velocity": 44,
              "position": 8.520833333333334,
              "duration": 1.0270833333333333
            },
            {
              "pitch": 36,
              "velocity": 60,
              "position": 7.5,
              "duration": 2.0479166666666666
            },
            {
              "pitch": 100,
              "velocity": 75,
              "position": 9.510416666666666,
              "duration": 0.23541666666666666
            },
            {
              "pitch": 41,
              "velocity": 54,
              "position": 9.5625,
              "duration": 0.42291666666666666
            },
            {
              "pitch": 98,
              "velocity": 25,
              "position": 10.010416666666666,
              "duration": 0.23541666666666666
            },
            {
              "pitch": 69,
              "velocity": 60,
              "position": 9.5,
              "duration": 0.9854166666666667
            },
            {
              "pitch": 65,
              "velocity": 58,
              "position": 9.541666666666666,
              "duration": 0.9645833333333333
            },
            {
              "pitch": 60,
              "velocity": 56,
              "position": 9.541666666666666,
              "duration": 0.9854166666666667
            },
            {
              "pitch": 96,
              "velocity": 65,
              "position": 10.510416666666666,
              "duration": 0.23541666666666666
            },
            {
              "pitch": 41,
              "velocity": 46,
              "position": 10,
              "duration": 0.9854166666666667
            },
            {
              "pitch": 60,
              "velocity": 56,
              "position": 10.541666666666666,
              "duration": 0.46458333333333335
            },
            {
              "pitch": 100,
              "velocity": 25,
              "position": 11.010416666666666,
              "duration": 0.23541666666666666
            },
            {
              "pitch": 41,
              "velocity": 46,
              "position": 11,
              "duration": 0.48541666666666666
            },
            {
              "pitch": 36,
              "velocity": 54,
              "position": 9.5625,
              "duration": 1.9229166666666666
            },
            {
              "pitch": 65,
              "velocity": 58,
              "position": 10.520833333333334,
              "duration": 0.9854166666666667
            },
            {
              "pitch": 60,
              "velocity": 40,
              "position": 11.020833333333334,
              "duration": 0.48541666666666666
            },
            {
              "pitch": 69,
              "velocity": 60,
              "position": 10.5,
              "duration": 1.0479166666666666
            },
            {
              "pitch": 98,
              "velocity": 65,
              "position": 11.510416666666666,
              "duration": 0.23541666666666666
            },
            {
              "pitch": 70,
              "velocity": 53,
              "position": 11.5625,
              "duration": 0.43333333333333335
            },
            {
              "pitch": 62,
              "velocity": 58,
              "position": 11.520833333333334,
              "duration": 0.475
            },
            {
              "pitch": 36,
              "velocity": 60,
              "position": 11.5,
              "duration": 0.49583333333333335
            },
            {
              "pitch": 41,
              "velocity": 60,
              "position": 11.5,
              "duration": 0.49583333333333335
            },
            {
              "pitch": 65,
              "velocity": 56,
              "position": 11.541666666666666,
              "duration": 0.45416666666666666
            },
            {
              "pitch": 43,
              "velocity": 45,
              "position": 12.5,
              "duration": 0.23541666666666666
            },
            {
              "pitch": 46,
              "velocity": 64,
              "position": 13,
              "duration": 0.48541666666666666
            },
            {
              "pitch": 48,
              "velocity": 33,
              "position": 13.5,
              "duration": 0.48541666666666666
            },
            {
              "pitch": 50,
              "velocity": 60,
              "position": 14,
              "duration": 0.9854166666666667
            },
            {
              "pitch": 48,
              "velocity": 64,
              "position": 15,
              "duration": 0.48541666666666666
            },
            {
              "pitch": 46,
              "velocity": 33,
              "position": 15.5,
              "duration": 0.48541666666666666
            },
            {
              "pitch": 96,
              "velocity": 65,
              "position": 16.010416666666668,
              "duration": 0.23541666666666666
            },
            {
              "pitch": 60,
              "velocity": 58,
              "position": 16.020833333333332,
              "duration": 10.964583333333334
            },
            {
              "pitch": 63,
              "velocity": 56,
              "position": 16.041666666666668,
              "duration": 10.94375
            },
            {
              "pitch": 67,
              "velocity": 53,
              "position": 16.0625,
              "duration": 10.922916666666667
            },
            {
              "pitch": 43,
              "velocity": 60,
              "position": 16.010416666666668,
              "duration": 10.985416666666667
            },
            {
              "pitch": 36,
              "velocity": 60,
              "position": 16.010416666666668,
              "duration": 10.985416666666667
            }
          ]
        },
        "4": {
          "ctab": {
            "srcChannel": 4,
            "name": "Organ m",
            "accType": "PAD",
            "editable": false,
            "mutedNotes": [],
            "mutedChords": [
              "1+2+5",
              "sus4",
              "1+5",
              "1+8",
              "7aug",
              "Maj7aug",
              "7(#9)",
              "7(b13)",
              "7(b9)",
              "7(13)",
              "7#11",
              "7(9)",
              "7b5",
              "7sus4",
              "7th",
              "aug",
              "Maj6(9)",
              "Maj7(9)",
              "Maj(9)",
              "Maj7#11",
              "Maj7",
              "Maj6",
              "Maj"
            ],
            "autoStart": false,
            "sourceChordNote": 0,
            "sourceChordType": "min",
            "ctb2Low": null,
            "ctb2Main": {
              "ntr": "ROOT_TRANSPOSITION",
              "ntt": "BYPASS",
              "bassOn": false,
              "chordRootUpperLimit": 6,
              "noteLowLimit": 0,
              "noteHighLimit": 127,
              "rtr": "PITCH_SHIFT"
            },
            "ctb2High": null
          },
          "notes": [
            {
              "pitch": 74,
              "velocity": 72,
              "position": 0.058333333333333334,
              "duration": 0.075
            },
            {
              "pitch": 75,
              "velocity": 75,
              "position": 0.041666666666666664,
              "duration": 1.9541666666666666
            },
            {
              "pitch": 79,
              "velocity": 72,
              "position": 0.04583333333333333,
              "duration": 1.95
            },
            {
              "pitch": 75,
              "velocity": 75,
              "position": 2.035416666666667,
              "duration": 2.464583333333333
            },
            {
              "pitch": 74,
              "velocity": 42,
              "position": 4.485416666666667,
              "duration": 0.11875
            },
            {
              "pitch": 75,
              "velocity": 50,
              "position": 4.59375,
              "duration": 0.1125
            },
            {
              "pitch": 74,
              "velocity": 47,
              "position": 4.66875,
              "duration": 0.2
            },
            {
              "pitch": 72,
              "velocity": 42,
              "position": 4.854166666666667,
              "duration": 0.15
            },
            {
              "pitch": 74,
              "velocity": 54,
              "position": 5.004166666666666,
              "duration": 0.20625
            },
            {
              "pitch": 69,
              "velocity": 46,
              "position": 5.25,
              "duration": 0.09791666666666667
            },
            {
              "pitch": 72,
              "velocity": 58,
              "position": 5.44375,
              "duration": 1.5354166666666667
            },
            {
              "pitch": 69,
              "velocity": 60,
              "position": 7.00625,
              "duration": 0.07083333333333333
            },
            {
              "pitch": 79,
              "velocity": 75,
              "position": 2.035416666666667,
              "duration": 5.13125
            },
            {
              "pitch": 72,
              "velocity": 73,
              "position": 7.460416666666666,
              "duration": 1.7041666666666666
            },
            {
              "pitch": 69,
              "velocity": 67,
              "position": 7.479166666666667,
              "duration": 1.6854166666666666
            },
            {
              "pitch": 77,
              "velocity": 82,
              "position": 7.464583333333334,
              "duration": 1.7
            },
            {
              "pitch": 69,
              "velocity": 67,
              "position": 9.185416666666667,
              "duration": 2.1666666666666665
            },
            {
              "pitch": 50,
              "velocity": 16,
              "position": 11.316666666666666,
              "duration": 0.0875
            },
            {
              "pitch": 72,
              "velocity": 73,
              "position": 9.185416666666667,
              "duration": 2.23125
            },
            {
              "pitch": 77,
              "velocity": 82,
              "position": 9.185416666666667,
              "duration": 2.2354166666666666
            },
            {
              "pitch": 52,
              "velocity": 32,
              "position": 11.377083333333333,
              "duration": 0.08125
            },
            {
              "pitch": 53,
              "velocity": 33,
              "position": 11.429166666666667,
              "duration": 0.07916666666666666
            },
            {
              "pitch": 55,
              "velocity": 35,
              "position": 11.48125,
              "duration": 0.075
            },
            {
              "pitch": 57,
              "velocity": 54,
              "position": 11.514583333333333,
              "duration": 0.08125
            },
            {
              "pitch": 59,
              "velocity": 51,
              "position": 11.55625,
              "duration": 0.07708333333333334
            },
            {
              "pitch": 60,
              "velocity": 56,
              "position": 11.597916666666666,
              "duration": 0.07916666666666666
            },
            {
              "pitch": 62,
              "velocity": 67,
              "position": 11.63125,
              "duration": 0.07291666666666667
            },
            {
              "pitch": 65,
              "velocity": 72,
              "position": 11.702083333333333,
              "duration": 0.03125
            },
            {
              "pitch": 64,
              "velocity": 69,
              "position": 11.666666666666666,
              "duration": 0.07083333333333333
            },
            {
              "pitch": 77,
              "velocity": 67,
              "position": 11.583333333333334,
              "duration": 0.39166666666666666
            },
            {
              "pitch": 69,
              "velocity": 67,
              "position": 11.59375,
              "duration": 0.4395833333333333
            },
            {
              "pitch": 72,
              "velocity": 70,
              "position": 11.583333333333334,
              "duration": 0.475
            },
            {
              "pitch": 67,
              "velocity": 62,
              "position": 12.5,
              "duration": 0.4791666666666667
            },
            {
              "pitch": 55,
              "velocity": 62,
              "position": 12.5,
              "duration": 0.5104166666666666
            },
            {
              "pitch": 58,
              "velocity": 70,
              "position": 13,
              "duration": 0.4166666666666667
            },
            {
              "pitch": 70,
              "velocity": 70,
              "position": 13,
              "duration": 0.42291666666666666
            },
            {
              "pitch": 60,
              "velocity": 73,
              "position": 13.5,
              "duration": 0.1625
            },
            {
              "pitch": 72,
              "velocity": 73,
              "position": 13.5,
              "duration": 0.19375
            },
            {
              "pitch": 74,
              "velocity": 76,
              "position": 13.947916666666666,
              "duration": 0.15416666666666667
            },
            {
              "pitch": 75,
              "velocity": 77,
              "position": 14.052083333333334,
              "duration": 0.42083333333333334
            },
            {
              "pitch": 63,
              "velocity": 77,
              "position": 14,
              "duration": 0.5229166666666667
            },
            {
              "pitch": 74,
              "velocity": 78,
              "position": 14.5,
              "duration": 0.46458333333333335
            },
            {
              "pitch": 62,
              "velocity": 78,
              "position": 14.5,
              "duration": 0.5895833333333333
            },
            {
              "pitch": 60,
              "velocity": 79,
              "position": 15,
              "duration": 0.3875
            },
            {
              "pitch": 72,
              "velocity": 79,
              "position": 15,
              "duration": 0.45625
            },
            {
              "pitch": 70,
              "velocity": 77,
              "position": 15.5,
              "duration": 0.29375
            },
            {
              "pitch": 58,
              "velocity": 77,
              "position": 15.5,
              "duration": 0.4270833333333333
            },
            {
              "pitch": 66,
              "velocity": 81,
              "position": 15.970833333333333,
              "duration": 0.18958333333333333
            },
            {
              "pitch": 67,
              "velocity": 83,
              "position": 16.145833333333332,
              "duration": 10.879166666666666
            },
            {
              "pitch": 60,
              "velocity": 81,
              "position": 15.989583333333334,
              "duration": 11.041666666666666
            },
            {
              "pitch": 72,
              "velocity": 80,
              "position": 15.96875,
              "duration": 11.06875
            }
          ]
        },
        "5": {
          "ctab": {
            "srcChannel": 5,
            "name": "SldGt m",
            "accType": "PHRASE1",
            "editable": false,
            "mutedNotes": [],
            "mutedChords": [
              "1+2+5",
              "sus4",
              "1+5",
              "1+8",
              "7aug",
              "Maj7aug",
              "7(#9)",
              "7(b13)",
              "7(b9)",
              "7(13)",
              "7#11",
              "7(9)",
              "7b5",
              "7sus4",
              "7th",
              "aug",
              "Maj6(9)",
              "Maj7(9)",
              "Maj(9)",
              "Maj7#11",
              "Maj7",
              "Maj6",
              "Maj"
            ],
            "autoStart": false,
            "sourceChordNote": 0,
            "sourceChordType": "min",
            "ctb2Low": null,
            "ctb2Main": {
              "ntr": "ROOT_TRANSPOSITION",
              "ntt": "BYPASS",
              "bassOn": false,
              "chordRootUpperLimit": 3,
              "noteLowLimit": 40,
              "noteHighLimit": 127,
              "rtr": "PITCH_SHIFT"
            },
            "ctb2High": null
          },
          "notes": [
            {
              "pitch": 48,
              "velocity": 76,
              "position": 0.00625,
              "duration": 0.46458333333333335
            },
            {
              "pitch": 55,
              "velocity": 76,
              "position": 0.00625,
              "duration": 0.46458333333333335
            },
            {
              "pitch": 67,
              "velocity": 12,
              "position": 0,
              "duration": 0.48541666666666666
            },
            {
              "pitch": 48,
              "velocity": 76,
              "position": 0.5,
              "duration": 0.475
            },
            {
              "pitch": 55,
              "velocity": 76,
              "position": 0.5,
              "duration": 0.475
            },
            {
              "pitch": 60,
              "velocity": 8,
              "position": 0,
              "duration": 0.9854166666666667
            },
            {
              "pitch": 72,
              "velocity": 13,
              "position": 0,
              "duration": 0.9854166666666667
            },
            {
              "pitch": 48,
              "velocity": 76,
              "position": 1,
              "duration": 0.475
            },
            {
              "pitch": 55,
              "velocity": 78,
              "position": 1,
              "duration": 0.475
            },
            {
              "pitch": 67,
              "velocity": 110,
              "position": 0.5,
              "duration": 0.9958333333333333
            },
            {
              "pitch": 67,
              "velocity": 8,
              "position": 1.5,
              "duration": 0.46458333333333335
            },
            {
              "pitch": 55,
              "velocity": 79,
              "position": 1.5,
              "duration": 0.475
            },
            {
              "pitch": 48,
              "velocity": 76,
              "position": 1.5,
              "duration": 0.475
            },
            {
              "pitch": 48,
              "velocity": 76,
              "position": 2,
              "duration": 0.475
            },
            {
              "pitch": 55,
              "velocity": 78,
              "position": 2,
              "duration": 0.475
            },
            {
              "pitch": 72,
              "velocity": 30,
              "position": 1,
              "duration": 1.4854166666666666
            },
            {
              "pitch": 48,
              "velocity": 76,
              "position": 2.5,
              "duration": 0.475
            },
            {
              "pitch": 55,
              "velocity": 76,
              "position": 2.5,
              "duration": 0.475
            },
            {
              "pitch": 67,
              "velocity": 110,
              "position": 2,
              "duration": 0.9958333333333333
            },
            {
              "pitch": 48,
              "velocity": 76,
              "position": 3,
              "duration": 0.475
            },
            {
              "pitch": 55,
              "velocity": 78,
              "position": 3,
              "duration": 0.475
            },
            {
              "pitch": 67,
              "velocity": 10,
              "position": 3,
              "duration": 0.48541666666666666
            },
            {
              "pitch": 72,
              "velocity": 30,
              "position": 2.5,
              "duration": 0.9854166666666667
            },
            {
              "pitch": 48,
              "velocity": 76,
              "position": 3.5,
              "duration": 0.475
            },
            {
              "pitch": 55,
              "velocity": 76,
              "position": 3.5,
              "duration": 0.475
            },
            {
              "pitch": 60,
              "velocity": 8,
              "position": 1,
              "duration": 2.9854166666666666
            },
            {
              "pitch": 67,
              "velocity": 12,
              "position": 3.5,
              "duration": 0.975
            },
            {
              "pitch": 55,
              "velocity": 79,
              "position": 4,
              "duration": 0.475
            },
            {
              "pitch": 48,
              "velocity": 76,
              "position": 4,
              "duration": 0.475
            },
            {
              "pitch": 48,
              "velocity": 76,
              "position": 4.5,
              "duration": 0.475
            },
            {
              "pitch": 55,
              "velocity": 76,
              "position": 4.5,
              "duration": 0.475
            },
            {
              "pitch": 60,
              "velocity": 8,
              "position": 4,
              "duration": 0.9854166666666667
            },
            {
              "pitch": 72,
              "velocity": 30,
              "position": 3.5,
              "duration": 1.4854166666666666
            },
            {
              "pitch": 48,
              "velocity": 76,
              "position": 5,
              "duration": 0.475
            },
            {
              "pitch": 72,
              "velocity": 15,
              "position": 5,
              "duration": 0.475
            },
            {
              "pitch": 55,
              "velocity": 78,
              "position": 5,
              "duration": 0.475
            },
            {
              "pitch": 48,
              "velocity": 76,
              "position": 5.5,
              "duration": 0.475
            },
            {
              "pitch": 55,
              "velocity": 79,
              "position": 5.5,
              "duration": 0.475
            },
            {
              "pitch": 67,
              "velocity": 110,
              "position": 4.5,
              "duration": 1.4854166666666666
            },
            {
              "pitch": 48,
              "velocity": 76,
              "position": 6,
              "duration": 0.475
            },
            {
              "pitch": 55,
              "velocity": 78,
              "position": 6,
              "duration": 0.475
            },
            {
              "pitch": 72,
              "velocity": 30,
              "position": 5.5,
              "duration": 0.9854166666666667
            },
            {
              "pitch": 48,
              "velocity": 76,
              "position": 6.5,
              "duration": 0.475
            },
            {
              "pitch": 67,
              "velocity": 12,
              "position": 6,
              "duration": 0.9854166666666667
            },
            {
              "pitch": 55,
              "velocity": 76,
              "position": 6.5,
              "duration": 0.49583333333333335
            },
            {
              "pitch": 72,
              "velocity": 30,
              "position": 6.5,
              "duration": 0.9854166666666667
            },
            {
              "pitch": 51,
              "velocity": 112,
              "position": 7,
              "duration": 0.48541666666666666
            },
            {
              "pitch": 60,
              "velocity": 8,
              "position": 5,
              "duration": 2.9854166666666666
            },
            {
              "pitch": 55,
              "velocity": 98,
              "position": 7.5,
              "duration": 0.48541666666666666
            },
            {
              "pitch": 67,
              "velocity": 12,
              "position": 7,
              "duration": 1.4645833333333333
            },
            {
              "pitch": 55,
              "velocity": 79,
              "position": 8.010416666666666,
              "duration": 0.46458333333333335
            },
            {
              "pitch": 48,
              "velocity": 76,
              "position": 8.010416666666666,
              "duration": 0.46458333333333335
            },
            {
              "pitch": 48,
              "velocity": 76,
              "position": 8.5,
              "duration": 0.475
            },
            {
              "pitch": 55,
              "velocity": 76,
              "position": 8.5,
              "duration": 0.475
            },
            {
              "pitch": 72,
              "velocity": 30,
              "position": 7.5,
              "duration": 1.4854166666666666
            },
            {
              "pitch": 60,
              "velocity": 8,
              "position": 8,
              "duration": 0.9854166666666667
            },
            {
              "pitch": 48,
              "velocity": 76,
              "position": 9,
              "duration": 0.475
            },
            {
              "pitch": 55,
              "velocity": 78,
              "position": 9,
              "duration": 0.475
            },
            {
              "pitch": 67,
              "velocity": 110,
              "position": 8.5,
              "duration": 0.9958333333333333
            },
            {
              "pitch": 67,
              "velocity": 12,
              "position": 9.5,
              "duration": 0.46458333333333335
            },
            {
              "pitch": 55,
              "velocity": 79,
              "position": 9.5,
              "duration": 0.475
            },
            {
              "pitch": 48,
              "velocity": 76,
              "position": 9.5,
              "duration": 0.475
            },
            {
              "pitch": 48,
              "velocity": 76,
              "position": 10,
              "duration": 0.475
            },
            {
              "pitch": 55,
              "velocity": 78,
              "position": 10,
              "duration": 0.475
            },
            {
              "pitch": 72,
              "velocity": 30,
              "position": 9,
              "duration": 1.4854166666666666
            },
            {
              "pitch": 48,
              "velocity": 76,
              "position": 10.5,
              "duration": 0.475
            },
            {
              "pitch": 55,
              "velocity": 76,
              "position": 10.5,
              "duration": 0.475
            },
            {
              "pitch": 67,
              "velocity": 110,
              "position": 10,
              "duration": 0.9958333333333333
            },
            {
              "pitch": 60,
              "velocity": 8,
              "position": 9,
              "duration": 2.475
            },
            {
              "pitch": 55,
              "velocity": 78,
              "position": 11,
              "duration": 0.475
            },
            {
              "pitch": 48,
              "velocity": 76,
              "position": 11,
              "duration": 0.475
            },
            {
              "pitch": 72,
              "velocity": 30,
              "position": 10.5,
              "duration": 0.9854166666666667
            },
            {
              "pitch": 67,
              "velocity": 12,
              "position": 11,
              "duration": 0.48541666666666666
            },
            {
              "pitch": 65,
              "velocity": 22,
              "position": 11.5,
              "duration": 0.475
            },
            {
              "pitch": 72,
              "velocity": 30,
              "position": 11.5,
              "duration": 0.48541666666666666
            },
            {
              "pitch": 46,
              "velocity": 78,
              "position": 11.5,
              "duration": 0.48541666666666666
            },
            {
              "pitch": 53,
              "velocity": 42,
              "position": 11.5,
              "duration": 0.48541666666666666
            },
            {
              "pitch": 55,
              "velocity": 86,
              "position": 12.5,
              "duration": 0.48541666666666666
            },
            {
              "pitch": 58,
              "velocity": 44,
              "position": 13,
              "duration": 0.48541666666666666
            },
            {
              "pitch": 60,
              "velocity": 100,
              "position": 13.5,
              "duration": 0.48541666666666666
            },
            {
              "pitch": 63,
              "velocity": 120,
              "position": 13.979166666666666,
              "duration": 0.50625
            },
            {
              "pitch": 62,
              "velocity": 100,
              "position": 14.5,
              "duration": 0.48541666666666666
            },
            {
              "pitch": 60,
              "velocity": 32,
              "position": 15,
              "duration": 0.48541666666666666
            },
            {
              "pitch": 58,
              "velocity": 98,
              "position": 15.5,
              "duration": 0.48541666666666666
            },
            {
              "pitch": 48,
              "velocity": 28,
              "position": 16,
              "duration": 10.985416666666667
            },
            {
              "pitch": 60,
              "velocity": 32,
              "position": 16.020833333333332,
              "duration": 10.964583333333334
            },
            {
              "pitch": 55,
              "velocity": 28,
              "position": 16.020833333333332,
              "duration": 10.964583333333334
            }
          ]
        },
        "6": {
          "ctab": {
            "srcChannel": 6,
            "name": "Str m",
            "accType": "PHRASE2",
            "editable": false,
            "mutedNotes": [],
            "mutedChords": [
              "1+2+5",
              "sus4",
              "1+5",
              "1+8",
              "7aug",
              "Maj7aug",
              "7(#9)",
              "7(b13)",
              "7(b9)",
              "7(13)",
              "7#11",
              "7(9)",
              "7b5",
              "7sus4",
              "7th",
              "aug",
              "Maj6(9)",
              "Maj7(9)",
              "Maj(9)",
              "Maj7#11",
              "Maj7",
              "Maj6",
              "Maj"
            ],
            "autoStart": false,
            "sourceChordNote": 0,
            "sourceChordType": "min",
            "ctb2Low": null,
            "ctb2Main": {
              "ntr": "ROOT_TRANSPOSITION",
              "ntt": "BYPASS",
              "bassOn": false,
              "chordRootUpperLimit": 10,
              "noteLowLimit": 54,
              "noteHighLimit": 65,
              "rtr": "PITCH_SHIFT"
            },
            "ctb2High": null
          },
          "notes": [
            {
              "pitch": 55,
              "velocity": 45,
              "position": 0,
              "duration": 7.475
            },
            {
              "pitch": 63,
              "velocity": 72,
              "position": 0,
              "duration": 7.475
            },
            {
              "pitch": 60,
              "velocity": 45,
              "position": 0,
              "duration": 11.475
            },
            {
              "pitch": 65,
              "velocity": 72,
              "position": 7.5,
              "duration": 3.975
            },
            {
              "pitch": 57,
              "velocity": 45,
              "position": 7.5,
              "duration": 3.975
            },
            {
              "pitch": 55,
              "velocity": 45,
              "position": 16,
              "duration": 10.985416666666667
            },
            {
              "pitch": 63,
              "velocity": 45,
              "position": 16,
              "duration": 10.985416666666667
            },
            {
              "pitch": 60,
              "velocity": 45,
              "position": 16,
              "duration": 10.985416666666667
            }
          ]
        },
        "8": {
          "ctab": {
            "srcChannel": 8,
            "name": "AddDrum",
            "accType": "SUBRHYTHM",
            "editable": false,
            "mutedNotes": [],
            "mutedChords": [],
            "autoStart": true,
            "sourceChordNote": 0,
            "sourceChordType": "Maj7",
            "ctb2Low": null,
            "ctb2Main": {
              "ntr": "ROOT_FIXED",
              "ntt": "BYPASS",
              "bassOn": false,
              "chordRootUpperLimit": 10,
              "noteLowLimit": 0,
              "noteHighLimit": 127,
              "rtr": "PITCH_SHIFT"
            },
            "ctb2High": null
          },
          "notes": []
        },
        "9": {
          "ctab": {
            "srcChannel": 9,
            "name": "MainDrum",
            "accType": "RHYTHM",
            "editable": false,
            "mutedNotes": [],
            "mutedChords": [],
            "autoStart": true,
            "sourceChordNote": 0,
            "sourceChordType": "Maj7",
            "ctb2Low": null,
            "ctb2Main": {
              "ntr": "ROOT_FIXED",
              "ntt": "BYPASS",
              "bassOn": false,
              "chordRootUpperLimit": 6,
              "noteLowLimit": 0,
              "noteHighLimit": 127,
              "rtr": "PITCH_SHIFT"
            },
            "ctb2High": null
          },
          "notes": [
            {
              "pitch": 35,
              "velocity": 106,
              "position": 0,
              "duration": 0.00625
            },
            {
              "pitch": 57,
              "velocity": 91,
              "position": 0,
              "duration": 0.00625
            },
            {
              "pitch": 49,
              "velocity": 54,
              "position": 0,
              "duration": 0.00625
            },
            {
              "pitch": 44,
              "velocity": 70,
              "position": 0,
              "duration": 0.00625
            },
            {
              "pitch": 41,
              "velocity": 46,
              "position": 0.5,
              "duration": 0.00625
            },
            {
              "pitch": 49,
              "velocity": 30,
              "position": 0.5,
              "duration": 0.00625
            },
            {
              "pitch": 44,
              "velocity": 58,
              "position": 0.5,
              "duration": 0.00625
            },
            {
              "pitch": 35,
              "velocity": 106,
              "position": 1,
              "duration": 0.00625
            },
            {
              "pitch": 49,
              "velocity": 54,
              "position": 1,
              "duration": 0.00625
            },
            {
              "pitch": 44,
              "velocity": 70,
              "position": 1,
              "duration": 0.00625
            },
            {
              "pitch": 41,
              "velocity": 86,
              "position": 1,
              "duration": 0.00625
            },
            {
              "pitch": 38,
              "velocity": 100,
              "position": 1,
              "duration": 0.00625
            },
            {
              "pitch": 44,
              "velocity": 58,
              "position": 1.5,
              "duration": 0.00625
            },
            {
              "pitch": 49,
              "velocity": 30,
              "position": 1.5,
              "duration": 0.00625
            },
            {
              "pitch": 35,
              "velocity": 113,
              "position": 2,
              "duration": 0.00625
            },
            {
              "pitch": 49,
              "velocity": 54,
              "position": 2,
              "duration": 0.00625
            },
            {
              "pitch": 44,
              "velocity": 70,
              "position": 2,
              "duration": 0.00625
            },
            {
              "pitch": 41,
              "velocity": 66,
              "position": 2,
              "duration": 0.00625
            },
            {
              "pitch": 35,
              "velocity": 85,
              "position": 2.5,
              "duration": 0.00625
            },
            {
              "pitch": 49,
              "velocity": 30,
              "position": 2.5,
              "duration": 0.00625
            },
            {
              "pitch": 44,
              "velocity": 58,
              "position": 2.5,
              "duration": 0.00625
            },
            {
              "pitch": 41,
              "velocity": 46,
              "position": 2.5,
              "duration": 0.00625
            },
            {
              "pitch": 38,
              "velocity": 100,
              "position": 3,
              "duration": 0.00625
            },
            {
              "pitch": 49,
              "velocity": 54,
              "position": 3,
              "duration": 0.00625
            },
            {
              "pitch": 44,
              "velocity": 70,
              "position": 3,
              "duration": 0.00625
            },
            {
              "pitch": 41,
              "velocity": 86,
              "position": 3,
              "duration": 0.00625
            },
            {
              "pitch": 35,
              "velocity": 72,
              "position": 3.5,
              "duration": 0.00625
            },
            {
              "pitch": 49,
              "velocity": 30,
              "position": 3.5,
              "duration": 0.00625
            },
            {
              "pitch": 44,
              "velocity": 58,
              "position": 3.5,
              "duration": 0.00625
            },
            {
              "pitch": 41,
              "velocity": 46,
              "position": 3.5,
              "duration": 0.00625
            },
            {
              "pitch": 35,
              "velocity": 113,
              "position": 4,
              "duration": 0.00625
            },
            {
              "pitch": 49,
              "velocity": 54,
              "position": 4,
              "duration": 0.00625
            },
            {
              "pitch": 44,
              "velocity": 70,
              "position": 4,
              "duration": 0.00625
            },
            {
              "pitch": 41,
              "velocity": 66,
              "position": 4,
              "duration": 0.00625
            },
            {
              "pitch": 41,
              "velocity": 46,
              "position": 4.5,
              "duration": 0.00625
            },
            {
              "pitch": 49,
              "velocity": 30,
              "position": 4.5,
              "duration": 0.00625
            },
            {
              "pitch": 44,
              "velocity": 58,
              "position": 4.5,
              "duration": 0.00625
            },
            {
              "pitch": 35,
              "velocity": 113,
              "position": 5,
              "duration": 0.00625
            },
            {
              "pitch": 49,
              "velocity": 54,
              "position": 5,
              "duration": 0.00625
            },
            {
              "pitch": 44,
              "velocity": 70,
              "position": 5,
              "duration": 0.00625
            },
            {
              "pitch": 41,
              "velocity": 86,
              "position": 5,
              "duration": 0.00625
            },
            {
              "pitch": 38,
              "velocity": 98,
              "position": 5,
              "duration": 0.00625
            },
            {
              "pitch": 41,
              "velocity": 46,
              "position": 5.5,
              "duration": 0.00625
            },
            {
              "pitch": 49,
              "velocity": 30,
              "position": 5.5,
              "duration": 0.00625
            },
            {
              "pitch": 44,
              "velocity": 58,
              "position": 5.5,
              "duration": 0.00625
            },
            {
              "pitch": 35,
              "velocity": 106,
              "position": 6,
              "duration": 0.00625
            },
            {
              "pitch": 49,
              "velocity": 54,
              "position": 6,
              "duration": 0.00625
            },
            {
              "pitch": 48,
              "velocity": 86,
              "position": 6,
              "duration": 0.00625
            },
            {
              "pitch": 44,
              "velocity": 70,
              "position": 6,
              "duration": 0.00625
            },
            {
              "pitch": 41,
              "velocity": 86,
              "position": 6,
              "duration": 0.00625
            },
            {
              "pitch": 35,
              "velocity": 85,
              "position": 6.5,
              "duration": 0.00625
            },
            {
              "pitch": 49,
              "velocity": 30,
              "position": 6.5,
              "duration": 0.00625
            },
            {
              "pitch": 45,
              "velocity": 85,
              "position": 6.5,
              "duration": 0.00625
            },
            {
              "pitch": 41,
              "velocity": 86,
              "position": 6.5,
              "duration": 0.00625
            },
            {
              "pitch": 38,
              "velocity": 70,
              "position": 6.96875,
              "duration": 0.00625
            },
            {
              "pitch": 44,
              "velocity": 70,
              "position": 7,
              "duration": 0.00625
            },
            {
              "pitch": 49,
              "velocity": 54,
              "position": 7,
              "duration": 0.00625
            },
            {
              "pitch": 38,
              "velocity": 102,
              "position": 7.010416666666667,
              "duration": 0.00625
            },
            {
              "pitch": 35,
              "velocity": 111,
              "position": 7.5,
              "duration": 0.00625
            },
            {
              "pitch": 57,
              "velocity": 95,
              "position": 7.5,
              "duration": 0.00625
            },
            {
              "pitch": 44,
              "velocity": 58,
              "position": 7.5,
              "duration": 0.00625
            },
            {
              "pitch": 41,
              "velocity": 86,
              "position": 7.5,
              "duration": 0.00625
            },
            {
              "pitch": 35,
              "velocity": 112,
              "position": 8,
              "duration": 0.00625
            },
            {
              "pitch": 49,
              "velocity": 54,
              "position": 8,
              "duration": 0.00625
            },
            {
              "pitch": 44,
              "velocity": 70,
              "position": 8,
              "duration": 0.00625
            },
            {
              "pitch": 41,
              "velocity": 45,
              "position": 8.5,
              "duration": 0.00625
            },
            {
              "pitch": 49,
              "velocity": 30,
              "position": 8.5,
              "duration": 0.00625
            },
            {
              "pitch": 48,
              "velocity": 50,
              "position": 8.5,
              "duration": 0.00625
            },
            {
              "pitch": 44,
              "velocity": 58,
              "position": 8.5,
              "duration": 0.00625
            },
            {
              "pitch": 35,
              "velocity": 112,
              "position": 9,
              "duration": 0.00625
            },
            {
              "pitch": 52,
              "velocity": 77,
              "position": 9,
              "duration": 0.00625
            },
            {
              "pitch": 49,
              "velocity": 54,
              "position": 9,
              "duration": 0.00625
            },
            {
              "pitch": 48,
              "velocity": 87,
              "position": 9,
              "duration": 0.00625
            },
            {
              "pitch": 44,
              "velocity": 70,
              "position": 9,
              "duration": 0.00625
            },
            {
              "pitch": 41,
              "velocity": 86,
              "position": 9,
              "duration": 0.00625
            },
            {
              "pitch": 38,
              "velocity": 100,
              "position": 9,
              "duration": 0.00625
            },
            {
              "pitch": 41,
              "velocity": 45,
              "position": 9.5,
              "duration": 0.00625
            },
            {
              "pitch": 49,
              "velocity": 30,
              "position": 9.5,
              "duration": 0.00625
            },
            {
              "pitch": 45,
              "velocity": 59,
              "position": 9.5,
              "duration": 0.00625
            },
            {
              "pitch": 44,
              "velocity": 58,
              "position": 9.5,
              "duration": 0.00625
            },
            {
              "pitch": 35,
              "velocity": 107,
              "position": 10,
              "duration": 0.00625
            },
            {
              "pitch": 49,
              "velocity": 54,
              "position": 10,
              "duration": 0.00625
            },
            {
              "pitch": 45,
              "velocity": 79,
              "position": 10,
              "duration": 0.00625
            },
            {
              "pitch": 44,
              "velocity": 70,
              "position": 10,
              "duration": 0.00625
            },
            {
              "pitch": 41,
              "velocity": 65,
              "position": 10,
              "duration": 0.00625
            },
            {
              "pitch": 35,
              "velocity": 85,
              "position": 10.5,
              "duration": 0.00625
            },
            {
              "pitch": 49,
              "velocity": 30,
              "position": 10.5,
              "duration": 0.00625
            },
            {
              "pitch": 44,
              "velocity": 58,
              "position": 10.5,
              "duration": 0.00625
            },
            {
              "pitch": 43,
              "velocity": 59,
              "position": 10.5,
              "duration": 0.00625
            },
            {
              "pitch": 41,
              "velocity": 45,
              "position": 10.5,
              "duration": 0.00625
            },
            {
              "pitch": 41,
              "velocity": 86,
              "position": 11,
              "duration": 0.00625
            },
            {
              "pitch": 49,
              "velocity": 54,
              "position": 11,
              "duration": 0.00625
            },
            {
              "pitch": 44,
              "velocity": 70,
              "position": 11,
              "duration": 0.00625
            },
            {
              "pitch": 43,
              "velocity": 100,
              "position": 11,
              "duration": 0.00625
            },
            {
              "pitch": 38,
              "velocity": 78,
              "position": 11.46875,
              "duration": 0.00625
            },
            {
              "pitch": 35,
              "velocity": 112,
              "position": 11.5,
              "duration": 0.00625
            },
            {
              "pitch": 44,
              "velocity": 58,
              "position": 11.5,
              "duration": 0.00625
            },
            {
              "pitch": 38,
              "velocity": 102,
              "position": 11.510416666666666,
              "duration": 0.00625
            },
            {
              "pitch": 35,
              "velocity": 42,
              "position": 12.5,
              "duration": 0.00625
            },
            {
              "pitch": 45,
              "velocity": 23,
              "position": 12.5,
              "duration": 0.00625
            },
            {
              "pitch": 41,
              "velocity": 23,
              "position": 12.5,
              "duration": 0.00625
            },
            {
              "pitch": 35,
              "velocity": 66,
              "position": 13,
              "duration": 0.00625
            },
            {
              "pitch": 45,
              "velocity": 47,
              "position": 13,
              "duration": 0.00625
            },
            {
              "pitch": 41,
              "velocity": 47,
              "position": 13,
              "duration": 0.00625
            },
            {
              "pitch": 35,
              "velocity": 90,
              "position": 13.5,
              "duration": 0.00625
            },
            {
              "pitch": 45,
              "velocity": 54,
              "position": 13.5,
              "duration": 0.00625
            },
            {
              "pitch": 41,
              "velocity": 57,
              "position": 13.5,
              "duration": 0.00625
            },
            {
              "pitch": 35,
              "velocity": 114,
              "position": 14,
              "duration": 0.00625
            },
            {
              "pitch": 45,
              "velocity": 78,
              "position": 14,
              "duration": 0.00625
            },
            {
              "pitch": 41,
              "velocity": 81,
              "position": 14,
              "duration": 0.00625
            },
            {
              "pitch": 35,
              "velocity": 119,
              "position": 14.5,
              "duration": 0.00625
            },
            {
              "pitch": 45,
              "velocity": 80,
              "position": 14.5,
              "duration": 0.00625
            },
            {
              "pitch": 41,
              "velocity": 83,
              "position": 14.5,
              "duration": 0.00625
            },
            {
              "pitch": 38,
              "velocity": 78,
              "position": 14.979166666666666,
              "duration": 0.00625
            },
            {
              "pitch": 38,
              "velocity": 103,
              "position": 15.010416666666666,
              "duration": 0.00625
            },
            {
              "pitch": 35,
              "velocity": 100,
              "position": 15.5,
              "duration": 0.00625
            },
            {
              "pitch": 35,
              "velocity": 119,
              "position": 16,
              "duration": 0.00625
            },
            {
              "pitch": 49,
              "velocity": 89,
              "position": 16,
              "duration": 0.00625
            }
          ]
        },
        "10": {
          "ctab": {
            "srcChannel": 10,
            "name": "Bass M",
            "accType": "BASS",
            "editable": false,
            "mutedNotes": [],
            "mutedChords": [
              "dim7",
              "dim",
              "minMaj7(9)",
              "minMaj7",
              "min7(11)",
              "min7(9)",
              "min(9)",
              "m7b5",
              "min7",
              "min6",
              "min"
            ],
            "autoStart": false,
            "sourceChordNote": 0,
            "sourceChordType": "Maj",
            "ctb2Low": null,
            "ctb2Main": {
              "ntr": "ROOT_TRANSPOSITION",
              "ntt": "BYPASS",
              "bassOn": false,
              "chordRootUpperLimit": 8,
              "noteLowLimit": 28,
              "noteHighLimit": 51,
              "rtr": "PITCH_SHIFT"
            },
            "ctb2High": null
          },
          "notes": [
            {
              "pitch": 24,
              "velocity": 70,
              "position": 0,
              "duration": 0.48541666666666666
            },
            {
              "pitch": 24,
              "velocity": 50,
              "position": 0.5,
              "duration": 0.48541666666666666
            },
            {
              "pitch": 24,
              "velocity": 70,
              "position": 1,
              "duration": 0.48541666666666666
            },
            {
              "pitch": 24,
              "velocity": 50,
              "position": 1.5,
              "duration": 0.48541666666666666
            },
            {
              "pitch": 24,
              "velocity": 70,
              "position": 2,
              "duration": 0.48541666666666666
            },
            {
              "pitch": 24,
              "velocity": 50,
              "position": 2.5,
              "duration": 0.48541666666666666
            },
            {
              "pitch": 24,
              "velocity": 70,
              "position": 3,
              "duration": 0.48541666666666666
            },
            {
              "pitch": 24,
              "velocity": 50,
              "position": 3.5,
              "duration": 0.48541666666666666
            },
            {
              "pitch": 24,
              "velocity": 70,
              "position": 4,
              "duration": 0.48541666666666666
            },
            {
              "pitch": 24,
              "velocity": 50,
              "position": 4.5,
              "duration": 0.48541666666666666
            },
            {
              "pitch": 24,
              "velocity": 70,
              "position": 5,
              "duration": 0.48541666666666666
            },
            {
              "pitch": 24,
              "velocity": 50,
              "position": 5.5,
              "duration": 0.48541666666666666
            },
            {
              "pitch": 24,
              "velocity": 70,
              "position": 6,
              "duration": 0.43333333333333335
            },
            {
              "pitch": 24,
              "velocity": 50,
              "position": 6.5,
              "duration": 0.43333333333333335
            },
            {
              "pitch": 31,
              "velocity": 70,
              "position": 7,
              "duration": 0.48541666666666666
            },
            {
              "pitch": 33,
              "velocity": 50,
              "position": 7.5,
              "duration": 0.48541666666666666
            },
            {
              "pitch": 24,
              "velocity": 70,
              "position": 8,
              "duration": 0.48541666666666666
            },
            {
              "pitch": 24,
              "velocity": 50,
              "position": 8.5,
              "duration": 0.48541666666666666
            },
            {
              "pitch": 24,
              "velocity": 70,
              "position": 9,
              "duration": 0.48541666666666666
            },
            {
              "pitch": 24,
              "velocity": 50,
              "position": 9.5,
              "duration": 0.48541666666666666
            },
            {
              "pitch": 24,
              "velocity": 70,
              "position": 10,
              "duration": 0.48541666666666666
            },
            {
              "pitch": 24,
              "velocity": 50,
              "position": 10.5,
              "duration": 0.48541666666666666
            },
            {
              "pitch": 24,
              "velocity": 70,
              "position": 11,
              "duration": 0.48541666666666666
            },
            {
              "pitch": 34,
              "velocity": 60,
              "position": 11.5,
              "duration": 0.48541666666666666
            },
            {
              "pitch": 31,
              "velocity": 50,
              "position": 12.5,
              "duration": 0.48541666666666666
            },
            {
              "pitch": 34,
              "velocity": 70,
              "position": 13,
              "duration": 0.48541666666666666
            },
            {
              "pitch": 36,
              "velocity": 50,
              "position": 13.5,
              "duration": 0.48541666666666666
            },
            {
              "pitch": 39,
              "velocity": 70,
              "position": 14,
              "duration": 0.48541666666666666
            },
            {
              "pitch": 38,
              "velocity": 50,
              "position": 14.5,
              "duration": 0.48541666666666666
            },
            {
              "pitch": 36,
              "velocity": 70,
              "position": 15,
              "duration": 0.48541666666666666
            },
            {
              "pitch": 34,
              "velocity": 50,
              "position": 15.5,
              "duration": 0.48541666666666666
            },
            {
              "pitch": 24,
              "velocity": 70,
              "position": 16,
              "duration": 10.985416666666667
            }
          ]
        },
        "11": {
          "ctab": {
            "srcChannel": 11,
            "name": "StGt M",
            "accType": "CHORD1",
            "editable": false,
            "mutedNotes": [],
            "mutedChords": [
              "dim7",
              "dim",
              "minMaj7(9)",
              "minMaj7",
              "min7(11)",
              "min7(9)",
              "min(9)",
              "m7b5",
              "min7",
              "min6",
              "min"
            ],
            "autoStart": false,
            "sourceChordNote": 0,
            "sourceChordType": "Maj",
            "ctb2Low": null,
            "ctb2Main": {
              "ntr": "ROOT_TRANSPOSITION",
              "ntt": "BYPASS",
              "bassOn": false,
              "chordRootUpperLimit": 3,
              "noteLowLimit": 40,
              "noteHighLimit": 70,
              "rtr": "PITCH_SHIFT"
            },
            "ctb2High": null
          },
          "notes": [
            {
              "pitch": 103,
              "velocity": 103,
              "position": 0.00625,
              "duration": 0.23541666666666666
            },
            {
              "pitch": 76,
              "velocity": 50,
              "position": 0.0375,
              "duration": 0.44375
            },
            {
              "pitch": 72,
              "velocity": 50,
              "position": 0.03125,
              "duration": 0.45416666666666666
            },
            {
              "pitch": 79,
              "velocity": 50,
              "position": 0.052083333333333336,
              "duration": 0.43333333333333335
            },
            {
              "pitch": 48,
              "velocity": 45,
              "position": 0.00625,
              "duration": 0.49583333333333335
            },
            {
              "pitch": 55,
              "velocity": 50,
              "position": 0.020833333333333332,
              "duration": 0.48541666666666666
            },
            {
              "pitch": 102,
              "velocity": 103,
              "position": 0.5,
              "duration": 0.23541666666666666
            },
            {
              "pitch": 72,
              "velocity": 38,
              "position": 0.50625,
              "duration": 0.48541666666666666
            },
            {
              "pitch": 55,
              "velocity": 40,
              "position": 0.5208333333333334,
              "duration": 0.475
            },
            {
              "pitch": 76,
              "velocity": 42,
              "position": 0.5,
              "duration": 0.49583333333333335
            },
            {
              "pitch": 48,
              "velocity": 32,
              "position": 0.5520833333333334,
              "duration": 0.44375
            },
            {
              "pitch": 79,
              "velocity": 46,
              "position": 0.50625,
              "duration": 0.49583333333333335
            },
            {
              "pitch": 115,
              "velocity": 103,
              "position": 1,
              "duration": 0.23541666666666666
            },
            {
              "pitch": 98,
              "velocity": 103,
              "position": 1.5,
              "duration": 0.23541666666666666
            },
            {
              "pitch": 79,
              "velocity": 50,
              "position": 1.5,
              "duration": 0.9854166666666667
            },
            {
              "pitch": 48,
              "velocity": 45,
              "position": 1.5520833333333333,
              "duration": 0.94375
            },
            {
              "pitch": 76,
              "velocity": 50,
              "position": 1.5104166666666667,
              "duration": 0.9854166666666667
            },
            {
              "pitch": 72,
              "velocity": 50,
              "position": 1.5208333333333333,
              "duration": 0.9854166666666667
            },
            {
              "pitch": 55,
              "velocity": 50,
              "position": 1.53125,
              "duration": 0.9854166666666667
            },
            {
              "pitch": 102,
              "velocity": 103,
              "position": 2.5,
              "duration": 0.23541666666666666
            },
            {
              "pitch": 72,
              "velocity": 45,
              "position": 2.5208333333333335,
              "duration": 0.46458333333333335
            },
            {
              "pitch": 48,
              "velocity": 32,
              "position": 2.5520833333333335,
              "duration": 0.43333333333333335
            },
            {
              "pitch": 76,
              "velocity": 34,
              "position": 2.5104166666666665,
              "duration": 0.48541666666666666
            },
            {
              "pitch": 55,
              "velocity": 45,
              "position": 2.53125,
              "duration": 0.475
            },
            {
              "pitch": 79,
              "velocity": 34,
              "position": 2.5,
              "duration": 0.5270833333333333
            },
            {
              "pitch": 103,
              "velocity": 103,
              "position": 3,
              "duration": 0.23541666666666666
            },
            {
              "pitch": 76,
              "velocity": 44,
              "position": 3.0104166666666665,
              "duration": 0.475
            },
            {
              "pitch": 79,
              "velocity": 50,
              "position": 3.0520833333333335,
              "duration": 0.43333333333333335
            },
            {
              "pitch": 72,
              "velocity": 44,
              "position": 3,
              "duration": 0.49583333333333335
            },
            {
              "pitch": 48,
              "velocity": 45,
              "position": 3.00625,
              "duration": 0.49583333333333335
            },
            {
              "pitch": 55,
              "velocity": 50,
              "position": 3.0208333333333335,
              "duration": 0.48541666666666666
            },
            {
              "pitch": 102,
              "velocity": 103,
              "position": 3.5,
              "duration": 0.23541666666666666
            },
            {
              "pitch": 48,
              "velocity": 32,
              "position": 3.5520833333333335,
              "duration": 0.43333333333333335
            },
            {
              "pitch": 55,
              "velocity": 40,
              "position": 3.5208333333333335,
              "duration": 0.475
            },
            {
              "pitch": 79,
              "velocity": 44,
              "position": 3.50625,
              "duration": 0.49583333333333335
            },
            {
              "pitch": 72,
              "velocity": 36,
              "position": 3.5104166666666665,
              "duration": 0.49583333333333335
            },
            {
              "pitch": 76,
              "velocity": 38,
              "position": 3.5,
              "duration": 0.5166666666666667
            },
            {
              "pitch": 103,
              "velocity": 103,
              "position": 4.010416666666667,
              "duration": 0.23541666666666666
            },
            {
              "pitch": 76,
              "velocity": 50,
              "position": 4.03125,
              "duration": 0.45416666666666666
            },
            {
              "pitch": 79,
              "velocity": 50,
              "position": 4.041666666666667,
              "duration": 0.44375
            },
            {
              "pitch": 72,
              "velocity": 50,
              "position": 4.020833333333333,
              "duration": 0.475
            },
            {
              "pitch": 48,
              "velocity": 45,
              "position": 4.00625,
              "duration": 0.49583333333333335
            },
            {
              "pitch": 55,
              "velocity": 50,
              "position": 4.010416666666667,
              "duration": 0.49583333333333335
            },
            {
              "pitch": 102,
              "velocity": 103,
              "position": 4.5,
              "duration": 0.23541666666666666
            },
            {
              "pitch": 48,
              "velocity": 32,
              "position": 4.552083333333333,
              "duration": 0.44375
            },
            {
              "pitch": 55,
              "velocity": 40,
              "position": 4.520833333333333,
              "duration": 0.475
            },
            {
              "pitch": 72,
              "velocity": 40,
              "position": 4.510416666666667,
              "duration": 0.48541666666666666
            },
            {
              "pitch": 76,
              "velocity": 40,
              "position": 4.5,
              "duration": 0.49583333333333335
            },
            {
              "pitch": 79,
              "velocity": 34,
              "position": 4.5,
              "duration": 0.5270833333333333
            },
            {
              "pitch": 115,
              "velocity": 103,
              "position": 5,
              "duration": 0.23541666666666666
            },
            {
              "pitch": 98,
              "velocity": 103,
              "position": 5.5,
              "duration": 0.23541666666666666
            },
            {
              "pitch": 79,
              "velocity": 50,
              "position": 5.5,
              "duration": 0.9854166666666667
            },
            {
              "pitch": 48,
              "velocity": 45,
              "position": 5.552083333333333,
              "duration": 0.94375
            },
            {
              "pitch": 76,
              "velocity": 50,
              "position": 5.510416666666667,
              "duration": 0.9854166666666667
            },
            {
              "pitch": 72,
              "velocity": 50,
              "position": 5.520833333333333,
              "duration": 0.9854166666666667
            },
            {
              "pitch": 55,
              "velocity": 50,
              "position": 5.53125,
              "duration": 0.9854166666666667
            },
            {
              "pitch": 102,
              "velocity": 103,
              "position": 6.5,
              "duration": 0.23541666666666666
            },
            {
              "pitch": 72,
              "velocity": 45,
              "position": 6.520833333333333,
              "duration": 0.46458333333333335
            },
            {
              "pitch": 55,
              "velocity": 45,
              "position": 6.53125,
              "duration": 0.46458333333333335
            },
            {
              "pitch": 76,
              "velocity": 34,
              "position": 6.510416666666667,
              "duration": 0.48541666666666666
            },
            {
              "pitch": 48,
              "velocity": 32,
              "position": 6.552083333333333,
              "duration": 0.44375
            },
            {
              "pitch": 79,
              "velocity": 34,
              "position": 6.5,
              "duration": 0.5270833333333333
            },
            {
              "pitch": 103,
              "velocity": 103,
              "position": 7,
              "duration": 0.23541666666666666
            },
            {
              "pitch": 76,
              "velocity": 45,
              "position": 7.03125,
              "duration": 0.45416666666666666
            },
            {
              "pitch": 72,
              "velocity": 45,
              "position": 7.020833333333333,
              "duration": 0.475
            },
            {
              "pitch": 55,
              "velocity": 45,
              "position": 7.010416666666667,
              "duration": 0.49583333333333335
            },
            {
              "pitch": 79,
              "velocity": 45,
              "position": 7.041666666666667,
              "duration": 0.49583333333333335
            },
            {
              "pitch": 104,
              "velocity": 103,
              "position": 7.5,
              "duration": 0.23541666666666666
            },
            {
              "pitch": 48,
              "velocity": 45,
              "position": 7.5,
              "duration": 0.48541666666666666
            },
            {
              "pitch": 53,
              "velocity": 50,
              "position": 7.520833333333333,
              "duration": 0.48541666666666666
            },
            {
              "pitch": 72,
              "velocity": 36,
              "position": 7.53125,
              "duration": 0.48541666666666666
            },
            {
              "pitch": 77,
              "velocity": 42,
              "position": 7.541666666666667,
              "duration": 0.475
            },
            {
              "pitch": 79,
              "velocity": 42,
              "position": 7.552083333333333,
              "duration": 0.48541666666666666
            },
            {
              "pitch": 103,
              "velocity": 103,
              "position": 8.010416666666666,
              "duration": 0.23541666666666666
            },
            {
              "pitch": 77,
              "velocity": 50,
              "position": 8.0375,
              "duration": 0.44375
            },
            {
              "pitch": 72,
              "velocity": 50,
              "position": 8.03125,
              "duration": 0.45416666666666666
            },
            {
              "pitch": 79,
              "velocity": 50,
              "position": 8.052083333333334,
              "duration": 0.43333333333333335
            },
            {
              "pitch": 53,
              "velocity": 50,
              "position": 8.020833333333334,
              "duration": 0.48541666666666666
            },
            {
              "pitch": 48,
              "velocity": 45,
              "position": 8.00625,
              "duration": 0.5270833333333333
            },
            {
              "pitch": 102,
              "velocity": 103,
              "position": 8.5,
              "duration": 0.23541666666666666
            },
            {
              "pitch": 72,
              "velocity": 38,
              "position": 8.50625,
              "duration": 0.48541666666666666
            },
            {
              "pitch": 48,
              "velocity": 32,
              "position": 8.552083333333334,
              "duration": 0.44375
            },
            {
              "pitch": 53,
              "velocity": 40,
              "position": 8.520833333333334,
              "duration": 0.475
            },
            {
              "pitch": 77,
              "velocity": 42,
              "position": 8.5,
              "duration": 0.49583333333333335
            },
            {
              "pitch": 79,
              "velocity": 46,
              "position": 8.50625,
              "duration": 0.49583333333333335
            },
            {
              "pitch": 115,
              "velocity": 103,
              "position": 9,
              "duration": 0.23541666666666666
            },
            {
              "pitch": 98,
              "velocity": 103,
              "position": 9.5,
              "duration": 0.23541666666666666
            },
            {
              "pitch": 79,
              "velocity": 50,
              "position": 9.5,
              "duration": 0.9854166666666667
            },
            {
              "pitch": 48,
              "velocity": 45,
              "position": 9.552083333333334,
              "duration": 0.94375
            },
            {
              "pitch": 77,
              "velocity": 50,
              "position": 9.510416666666666,
              "duration": 0.9854166666666667
            },
            {
              "pitch": 72,
              "velocity": 50,
              "position": 9.520833333333334,
              "duration": 0.9854166666666667
            },
            {
              "pitch": 53,
              "velocity": 50,
              "position": 9.53125,
              "duration": 0.9854166666666667
            },
            {
              "pitch": 102,
              "velocity": 103,
              "position": 10.5,
              "duration": 0.23541666666666666
            },
            {
              "pitch": 72,
              "velocity": 45,
              "position": 10.520833333333334,
              "duration": 0.46458333333333335
            },
            {
              "pitch": 48,
              "velocity": 32,
              "position": 10.552083333333334,
              "duration": 0.43333333333333335
            },
            {
              "pitch": 77,
              "velocity": 34,
              "position": 10.510416666666666,
              "duration": 0.48541666666666666
            },
            {
              "pitch": 53,
              "velocity": 45,
              "position": 10.53125,
              "duration": 0.475
            },
            {
              "pitch": 79,
              "velocity": 34,
              "position": 10.5,
              "duration": 0.5270833333333333
            },
            {
              "pitch": 103,
              "velocity": 103,
              "position": 11,
              "duration": 0.23541666666666666
            },
            {
              "pitch": 77,
              "velocity": 44,
              "position": 11.010416666666666,
              "duration": 0.475
            },
            {
              "pitch": 48,
              "velocity": 45,
              "position": 11.00625,
              "duration": 0.48541666666666666
            },
            {
              "pitch": 79,
              "velocity": 50,
              "position": 11.052083333333334,
              "duration": 0.44375
            },
            {
              "pitch": 72,
              "velocity": 44,
              "position": 11,
              "duration": 0.49583333333333335
            },
            {
              "pitch": 53,
              "velocity": 50,
              "position": 11.020833333333334,
              "duration": 0.475
            },
            {
              "pitch": 104,
              "velocity": 103,
              "position": 11.5,
              "duration": 0.23541666666666666
            },
            {
              "pitch": 77,
              "velocity": 50,
              "position": 11.53125,
              "duration": 0.45416666666666666
            },
            {
              "pitch": 72,
              "velocity": 50,
              "position": 11.520833333333334,
              "duration": 0.475
            },
            {
              "pitch": 82,
              "velocity": 50,
              "position": 11.541666666666666,
              "duration": 0.45416666666666666
            },
            {
              "pitch": 48,
              "velocity": 50,
              "position": 11.510416666666666,
              "duration": 0.49583333333333335
            },
            {
              "pitch": 53,
              "velocity": 50,
              "position": 11.510416666666666,
              "duration": 0.49583333333333335
            },
            {
              "pitch": 115,
              "velocity": 103,
              "position": 12.010416666666666,
              "duration": 0.23541666666666666
            },
            {
              "pitch": 55,
              "velocity": 90,
              "position": 12.5,
              "duration": 0.48541666666666666
            },
            {
              "pitch": 58,
              "velocity": 60,
              "position": 13,
              "duration": 0.48541666666666666
            },
            {
              "pitch": 60,
              "velocity": 100,
              "position": 13.5,
              "duration": 0.48541666666666666
            },
            {
              "pitch": 62,
              "velocity": 120,
              "position": 14,
              "duration": 0.9854166666666667
            },
            {
              "pitch": 60,
              "velocity": 60,
              "position": 15,
              "duration": 0.48541666666666666
            },
            {
              "pitch": 58,
              "velocity": 100,
              "position": 15.5,
              "duration": 0.48541666666666666
            },
            {
              "pitch": 111,
              "velocity": 103,
              "position": 16.010416666666668,
              "duration": 0.23541666666666666
            },
            {
              "pitch": 79,
              "velocity": 50,
              "position": 16.052083333333332,
              "duration": 10.933333333333334
            },
            {
              "pitch": 76,
              "velocity": 50,
              "position": 16.041666666666668,
              "duration": 10.94375
            },
            {
              "pitch": 72,
              "velocity": 50,
              "position": 16.03125,
              "duration": 10.954166666666667
            },
            {
              "pitch": 55,
              "velocity": 50,
              "position": 16.020833333333332,
              "duration": 10.964583333333334
            },
            {
              "pitch": 48,
              "velocity": 45,
              "position": 16.010416666666668,
              "duration": 10.985416666666667
            }
          ]
        },
        "12": {
          "ctab": {
            "srcChannel": 12,
            "name": "HiGt M",
            "accType": "CHORD2",
            "editable": false,
            "mutedNotes": [],
            "mutedChords": [
              "dim7",
              "dim",
              "minMaj7(9)",
              "minMaj7",
              "min7(11)",
              "min7(9)",
              "min(9)",
              "m7b5",
              "min7",
              "min6",
              "min"
            ],
            "autoStart": false,
            "sourceChordNote": 0,
            "sourceChordType": "Maj",
            "ctb2Low": null,
            "ctb2Main": {
              "ntr": "ROOT_TRANSPOSITION",
              "ntt": "BYPASS",
              "bassOn": false,
              "chordRootUpperLimit": 8,
              "noteLowLimit": 40,
              "noteHighLimit": 65,
              "rtr": "PITCH_SHIFT"
            },
            "ctb2High": null
          },
          "notes": [
            {
              "pitch": 100,
              "velocity": 75,
              "position": 0.010416666666666666,
              "duration": 0.23541666666666666
            },
            {
              "pitch": 58,
              "velocity": 58,
              "position": 0.020833333333333332,
              "duration": 0.46458333333333335
            },
            {
              "pitch": 43,
              "velocity": 60,
              "position": 0.00625,
              "duration": 0.49583333333333335
            },
            {
              "pitch": 64,
              "velocity": 56,
              "position": 0.0375,
              "duration": 0.48541666666666666
            },
            {
              "pitch": 67,
              "velocity": 53,
              "position": 0.0625,
              "duration": 0.48541666666666666
            },
            {
              "pitch": 96,
              "velocity": 55,
              "position": 0.5104166666666666,
              "duration": 0.23541666666666666
            },
            {
              "pitch": 58,
              "velocity": 37,
              "position": 0.5,
              "duration": 0.48541666666666666
            },
            {
              "pitch": 64,
              "velocity": 50,
              "position": 0.5375,
              "duration": 0.46458333333333335
            },
            {
              "pitch": 67,
              "velocity": 47,
              "position": 0.5625,
              "duration": 0.48541666666666666
            },
            {
              "pitch": 98,
              "velocity": 65,
              "position": 1.0104166666666667,
              "duration": 0.23541666666666666
            },
            {
              "pitch": 67,
              "velocity": 53,
              "position": 1.0625,
              "duration": 0.42291666666666666
            },
            {
              "pitch": 58,
              "velocity": 56,
              "position": 1,
              "duration": 0.5270833333333333
            },
            {
              "pitch": 64,
              "velocity": 53,
              "position": 1.0208333333333333,
              "duration": 0.50625
            },
            {
              "pitch": 36,
              "velocity": 60,
              "position": 0.00625,
              "duration": 1.5375
            },
            {
              "pitch": 43,
              "velocity": 44,
              "position": 0.5208333333333334,
              "duration": 1.0270833333333333
            },
            {
              "pitch": 100,
              "velocity": 75,
              "position": 1.5104166666666667,
              "duration": 0.23541666666666666
            },
            {
              "pitch": 43,
              "velocity": 54,
              "position": 1.5625,
              "duration": 0.42291666666666666
            },
            {
              "pitch": 98,
              "velocity": 25,
              "position": 2.0104166666666665,
              "duration": 0.23541666666666666
            },
            {
              "pitch": 67,
              "velocity": 60,
              "position": 1.5,
              "duration": 0.9854166666666667
            },
            {
              "pitch": 64,
              "velocity": 58,
              "position": 1.5416666666666667,
              "duration": 0.9645833333333333
            },
            {
              "pitch": 58,
              "velocity": 54,
              "position": 1.5416666666666667,
              "duration": 0.9854166666666667
            },
            {
              "pitch": 96,
              "velocity": 65,
              "position": 2.5104166666666665,
              "duration": 0.23541666666666666
            },
            {
              "pitch": 43,
              "velocity": 46,
              "position": 2,
              "duration": 0.9854166666666667
            },
            {
              "pitch": 100,
              "velocity": 25,
              "position": 3.0104166666666665,
              "duration": 0.23541666666666666
            },
            {
              "pitch": 64,
              "velocity": 58,
              "position": 2.5208333333333335,
              "duration": 0.9645833333333333
            },
            {
              "pitch": 58,
              "velocity": 56,
              "position": 2.5416666666666665,
              "duration": 0.9645833333333333
            },
            {
              "pitch": 67,
              "velocity": 60,
              "position": 2.5,
              "duration": 1.0479166666666666
            },
            {
              "pitch": 98,
              "velocity": 65,
              "position": 3.5104166666666665,
              "duration": 0.23541666666666666
            },
            {
              "pitch": 36,
              "velocity": 54,
              "position": 1.5625,
              "duration": 2.4229166666666666
            },
            {
              "pitch": 43,
              "velocity": 46,
              "position": 3,
              "duration": 0.9854166666666667
            },
            {
              "pitch": 58,
              "velocity": 46,
              "position": 3.5208333333333335,
              "duration": 0.48541666666666666
            },
            {
              "pitch": 64,
              "velocity": 49,
              "position": 3.5,
              "duration": 0.5166666666666667
            },
            {
              "pitch": 67,
              "velocity": 46,
              "position": 3.5625,
              "duration": 0.48541666666666666
            },
            {
              "pitch": 100,
              "velocity": 75,
              "position": 4.010416666666667,
              "duration": 0.23541666666666666
            },
            {
              "pitch": 58,
              "velocity": 58,
              "position": 4.020833333333333,
              "duration": 0.46458333333333335
            },
            {
              "pitch": 43,
              "velocity": 60,
              "position": 4.00625,
              "duration": 0.49583333333333335
            },
            {
              "pitch": 64,
              "velocity": 56,
              "position": 4.0375,
              "duration": 0.48541666666666666
            },
            {
              "pitch": 67,
              "velocity": 53,
              "position": 4.0625,
              "duration": 0.48541666666666666
            },
            {
              "pitch": 96,
              "velocity": 55,
              "position": 4.510416666666667,
              "duration": 0.23541666666666666
            },
            {
              "pitch": 58,
              "velocity": 43,
              "position": 4.5,
              "duration": 0.48541666666666666
            },
            {
              "pitch": 64,
              "velocity": 51,
              "position": 4.5375,
              "duration": 0.46458333333333335
            },
            {
              "pitch": 67,
              "velocity": 48,
              "position": 4.5625,
              "duration": 0.48541666666666666
            },
            {
              "pitch": 98,
              "velocity": 65,
              "position": 5.010416666666667,
              "duration": 0.23541666666666666
            },
            {
              "pitch": 67,
              "velocity": 47,
              "position": 5.0625,
              "duration": 0.42291666666666666
            },
            {
              "pitch": 58,
              "velocity": 50,
              "position": 5,
              "duration": 0.5270833333333333
            },
            {
              "pitch": 64,
              "velocity": 47,
              "position": 5.020833333333333,
              "duration": 0.50625
            },
            {
              "pitch": 36,
              "velocity": 60,
              "position": 4.00625,
              "duration": 1.5375
            },
            {
              "pitch": 43,
              "velocity": 44,
              "position": 4.520833333333333,
              "duration": 1.0270833333333333
            },
            {
              "pitch": 100,
              "velocity": 75,
              "position": 5.510416666666667,
              "duration": 0.23541666666666666
            },
            {
              "pitch": 43,
              "velocity": 54,
              "position": 5.5625,
              "duration": 0.42291666666666666
            },
            {
              "pitch": 98,
              "velocity": 25,
              "position": 6.010416666666667,
              "duration": 0.23541666666666666
            },
            {
              "pitch": 67,
              "velocity": 60,
              "position": 5.5,
              "duration": 0.9854166666666667
            },
            {
              "pitch": 64,
              "velocity": 58,
              "position": 5.541666666666667,
              "duration": 0.9645833333333333
            },
            {
              "pitch": 58,
              "velocity": 56,
              "position": 5.541666666666667,
              "duration": 0.9854166666666667
            },
            {
              "pitch": 96,
              "velocity": 65,
              "position": 6.510416666666667,
              "duration": 0.23541666666666666
            },
            {
              "pitch": 36,
              "velocity": 54,
              "position": 5.5625,
              "duration": 1.4229166666666666
            },
            {
              "pitch": 43,
              "velocity": 46,
              "position": 6,
              "duration": 0.9854166666666667
            },
            {
              "pitch": 58,
              "velocity": 48,
              "position": 6.541666666666667,
              "duration": 0.44375
            },
            {
              "pitch": 64,
              "velocity": 50,
              "position": 6.520833333333333,
              "duration": 0.48541666666666666
            },
            {
              "pitch": 67,
              "velocity": 52,
              "position": 6.5,
              "duration": 0.5270833333333333
            },
            {
              "pitch": 100,
              "velocity": 75,
              "position": 7.010416666666667,
              "duration": 0.23541666666666666
            },
            {
              "pitch": 36,
              "velocity": 60,
              "position": 7.00625,
              "duration": 0.475
            },
            {
              "pitch": 43,
              "velocity": 60,
              "position": 7.00625,
              "duration": 0.49583333333333335
            },
            {
              "pitch": 58,
              "velocity": 58,
              "position": 7,
              "duration": 0.50625
            },
            {
              "pitch": 64,
              "velocity": 56,
              "position": 7.020833333333333,
              "duration": 0.50625
            },
            {
              "pitch": 67,
              "velocity": 53,
              "position": 7.041666666666667,
              "duration": 0.50625
            },
            {
              "pitch": 96,
              "velocity": 55,
              "position": 7.510416666666667,
              "duration": 0.23541666666666666
            },
            {
              "pitch": 60,
              "velocity": 58,
              "position": 7.520833333333333,
              "duration": 0.9645833333333333
            },
            {
              "pitch": 41,
              "velocity": 60,
              "position": 7.5,
              "duration": 1.00625
            },
            {
              "pitch": 96,
              "velocity": 55,
              "position": 8.510416666666666,
              "duration": 0.23541666666666666
            },
            {
              "pitch": 60,
              "velocity": 43,
              "position": 8.5,
              "duration": 0.48541666666666666
            },
            {
              "pitch": 65,
              "velocity": 56,
              "position": 7.541666666666667,
              "duration": 1.4645833333333333
            },
            {
              "pitch": 98,
              "velocity": 65,
              "position": 9.010416666666666,
              "duration": 0.23541666666666666
            },
            {
              "pitch": 69,
              "velocity": 53,
              "position": 7.5625,
              "duration": 1.9229166666666666
            },
            {
              "pitch": 60,
              "velocity": 56,
              "position": 9,
              "duration": 0.5270833333333333
            },
            {
              "pitch": 65,
              "velocity": 53,
              "position": 9.020833333333334,
              "duration": 0.50625
            },
            {
              "pitch": 41,
              "velocity": 44,
              "position": 8.520833333333334,
              "duration": 1.0270833333333333
            },
            {
              "pitch": 36,
              "velocity": 60,
              "position": 7.5,
              "duration": 2.0479166666666666
            },
            {
              "pitch": 100,
              "velocity": 75,
              "position": 9.510416666666666,
              "duration": 0.23541666666666666
            },
            {
              "pitch": 41,
              "velocity": 54,
              "position": 9.5625,
              "duration": 0.42291666666666666
            },
            {
              "pitch": 98,
              "velocity": 25,
              "position": 10.010416666666666,
              "duration": 0.23541666666666666
            },
            {
              "pitch": 69,
              "velocity": 60,
              "position": 9.5,
              "duration": 0.9854166666666667
            },
            {
              "pitch": 65,
              "velocity": 58,
              "position": 9.541666666666666,
              "duration": 0.9645833333333333
            },
            {
              "pitch": 60,
              "velocity": 56,
              "position": 9.541666666666666,
              "duration": 0.9854166666666667
            },
            {
              "pitch": 96,
              "velocity": 65,
              "position": 10.510416666666666,
              "duration": 0.23541666666666666
            },
            {
              "pitch": 41,
              "velocity": 46,
              "position": 10,
              "duration": 0.9854166666666667
            },
            {
              "pitch": 60,
              "velocity": 56,
              "position": 10.541666666666666,
              "duration": 0.46458333333333335
            },
            {
              "pitch": 100,
              "velocity": 25,
              "position": 11.010416666666666,
              "duration": 0.23541666666666666
            },
            {
              "pitch": 41,
              "velocity": 46,
              "position": 11,
              "duration": 0.48541666666666666
            },
            {
              "pitch": 36,
              "velocity": 54,
              "position": 9.5625,
              "duration": 1.9229166666666666
            },
            {
              "pitch": 65,
              "velocity": 58,
              "position": 10.520833333333334,
              "duration": 0.9854166666666667
            },
            {
              "pitch": 60,
              "velocity": 40,
              "position": 11.020833333333334,
              "duration": 0.48541666666666666
            },
            {
              "pitch": 69,
              "velocity": 60,
              "position": 10.5,
              "duration": 1.0479166666666666
            },
            {
              "pitch": 98,
              "velocity": 65,
              "position": 11.510416666666666,
              "duration": 0.23541666666666666
            },
            {
              "pitch": 70,
              "velocity": 53,
              "position": 11.5625,
              "duration": 0.43333333333333335
            },
            {
              "pitch": 62,
              "velocity": 58,
              "position": 11.520833333333334,
              "duration": 0.475
            },
            {
              "pitch": 36,
              "velocity": 60,
              "position": 11.5,
              "duration": 0.49583333333333335
            },
            {
              "pitch": 41,
              "velocity": 60,
              "position": 11.5,
              "duration": 0.49583333333333335
            },
            {
              "pitch": 65,
              "velocity": 56,
              "position": 11.541666666666666,
              "duration": 0.45416666666666666
            },
            {
              "pitch": 43,
              "velocity": 45,
              "position": 12.5,
              "duration": 0.23541666666666666
            },
            {
              "pitch": 46,
              "velocity": 64,
              "position": 13,
              "duration": 0.48541666666666666
            },
            {
              "pitch": 48,
              "velocity": 52,
              "position": 13.5,
              "duration": 0.48541666666666666
            },
            {
              "pitch": 50,
              "velocity": 60,
              "position": 14,
              "duration": 0.9854166666666667
            },
            {
              "pitch": 48,
              "velocity": 64,
              "position": 15,
              "duration": 0.48541666666666666
            },
            {
              "pitch": 46,
              "velocity": 33,
              "position": 15.5,
              "duration": 0.48541666666666666
            },
            {
              "pitch": 96,
              "velocity": 65,
              "position": 16.010416666666668,
              "duration": 0.23541666666666666
            },
            {
              "pitch": 60,
              "velocity": 58,
              "position": 16.020833333333332,
              "duration": 10.964583333333334
            },
            {
              "pitch": 64,
              "velocity": 56,
              "position": 16.041666666666668,
              "duration": 10.94375
            },
            {
              "pitch": 67,
              "velocity": 53,
              "position": 16.0625,
              "duration": 10.922916666666667
            },
            {
              "pitch": 43,
              "velocity": 60,
              "position": 16.010416666666668,
              "duration": 10.985416666666667
            },
            {
              "pitch": 36,
              "velocity": 60,
              "position": 16.010416666666668,
              "duration": 10.985416666666667
            }
          ]
        },
        "13": {
          "ctab": {
            "srcChannel": 13,
            "name": "Organ M",
            "accType": "PAD",
            "editable": false,
            "mutedNotes": [],
            "mutedChords": [
              "dim7",
              "dim",
              "minMaj7(9)",
              "minMaj7",
              "min7(11)",
              "min7(9)",
              "min(9)",
              "m7b5",
              "min7",
              "min6",
              "min"
            ],
            "autoStart": false,
            "sourceChordNote": 0,
            "sourceChordType": "Maj",
            "ctb2Low": null,
            "ctb2Main": {
              "ntr": "ROOT_TRANSPOSITION",
              "ntt": "BYPASS",
              "bassOn": false,
              "chordRootUpperLimit": 6,
              "noteLowLimit": 0,
              "noteHighLimit": 127,
              "rtr": "PITCH_SHIFT"
            },
            "ctb2High": null
          },
          "notes": [
            {
              "pitch": 73,
              "velocity": 72,
              "position": 0.03125,
              "duration": 0.016666666666666666
            },
            {
              "pitch": 75,
              "velocity": 72,
              "position": 0.058333333333333334,
              "duration": 0.075
            },
            {
              "pitch": 74,
              "velocity": 72,
              "position": 0.03333333333333333,
              "duration": 0.12291666666666666
            },
            {
              "pitch": 76,
              "velocity": 73,
              "position": 0.13541666666666666,
              "duration": 0.23958333333333334
            },
            {
              "pitch": 79,
              "velocity": 72,
              "position": 0.04583333333333333,
              "duration": 0.375
            },
            {
              "pitch": 75,
              "velocity": 75,
              "position": 0.575,
              "duration": 0.06666666666666667
            },
            {
              "pitch": 74,
              "velocity": 75,
              "position": 0.5479166666666667,
              "duration": 0.11458333333333333
            },
            {
              "pitch": 76,
              "velocity": 75,
              "position": 0.6416666666666667,
              "duration": 1.3541666666666667
            },
            {
              "pitch": 79,
              "velocity": 75,
              "position": 0.5833333333333334,
              "duration": 1.4125
            },
            {
              "pitch": 76,
              "velocity": 75,
              "position": 2.035416666666667,
              "duration": 2.464583333333333
            },
            {
              "pitch": 75,
              "velocity": 65,
              "position": 4.53125,
              "duration": 0.21458333333333332
            },
            {
              "pitch": 74,
              "velocity": 57,
              "position": 4.691666666666666,
              "duration": 0.15416666666666667
            },
            {
              "pitch": 72,
              "velocity": 37,
              "position": 4.858333333333333,
              "duration": 0.12916666666666668
            },
            {
              "pitch": 74,
              "velocity": 51,
              "position": 5.010416666666667,
              "duration": 0.21875
            },
            {
              "pitch": 69,
              "velocity": 51,
              "position": 5.21875,
              "duration": 0.21458333333333332
            },
            {
              "pitch": 72,
              "velocity": 60,
              "position": 5.458333333333333,
              "duration": 1.4229166666666666
            },
            {
              "pitch": 69,
              "velocity": 62,
              "position": 7.00625,
              "duration": 0.07083333333333333
            },
            {
              "pitch": 79,
              "velocity": 75,
              "position": 2.035416666666667,
              "duration": 5.13125
            },
            {
              "pitch": 72,
              "velocity": 75,
              "position": 7.460416666666666,
              "duration": 1.7041666666666666
            },
            {
              "pitch": 69,
              "velocity": 69,
              "position": 7.479166666666667,
              "duration": 1.6854166666666666
            },
            {
              "pitch": 77,
              "velocity": 84,
              "position": 7.464583333333334,
              "duration": 1.7
            },
            {
              "pitch": 69,
              "velocity": 69,
              "position": 9.185416666666667,
              "duration": 2.1666666666666665
            },
            {
              "pitch": 50,
              "velocity": 16,
              "position": 11.316666666666666,
              "duration": 0.0875
            },
            {
              "pitch": 72,
              "velocity": 75,
              "position": 9.185416666666667,
              "duration": 2.23125
            },
            {
              "pitch": 77,
              "velocity": 84,
              "position": 9.185416666666667,
              "duration": 2.2354166666666666
            },
            {
              "pitch": 52,
              "velocity": 32,
              "position": 11.377083333333333,
              "duration": 0.08125
            },
            {
              "pitch": 53,
              "velocity": 33,
              "position": 11.429166666666667,
              "duration": 0.07916666666666666
            },
            {
              "pitch": 55,
              "velocity": 35,
              "position": 11.48125,
              "duration": 0.075
            },
            {
              "pitch": 57,
              "velocity": 54,
              "position": 11.514583333333333,
              "duration": 0.08125
            },
            {
              "pitch": 59,
              "velocity": 51,
              "position": 11.55625,
              "duration": 0.07708333333333334
            },
            {
              "pitch": 60,
              "velocity": 56,
              "position": 11.597916666666666,
              "duration": 0.07916666666666666
            },
            {
              "pitch": 62,
              "velocity": 67,
              "position": 11.63125,
              "duration": 0.07291666666666667
            },
            {
              "pitch": 65,
              "velocity": 72,
              "position": 11.702083333333333,
              "duration": 0.03125
            },
            {
              "pitch": 64,
              "velocity": 69,
              "position": 11.666666666666666,
              "duration": 0.07083333333333333
            },
            {
              "pitch": 77,
              "velocity": 69,
              "position": 11.583333333333334,
              "duration": 0.39166666666666666
            },
            {
              "pitch": 69,
              "velocity": 69,
              "position": 11.59375,
              "duration": 0.4395833333333333
            },
            {
              "pitch": 72,
              "velocity": 72,
              "position": 11.583333333333334,
              "duration": 0.475
            },
            {
              "pitch": 67,
              "velocity": 62,
              "position": 12.5,
              "duration": 0.4791666666666667
            },
            {
              "pitch": 55,
              "velocity": 62,
              "position": 12.5,
              "duration": 0.5104166666666666
            },
            {
              "pitch": 58,
              "velocity": 70,
              "position": 13,
              "duration": 0.4166666666666667
            },
            {
              "pitch": 70,
              "velocity": 70,
              "position": 13,
              "duration": 0.42291666666666666
            },
            {
              "pitch": 60,
              "velocity": 73,
              "position": 13.5,
              "duration": 0.1625
            },
            {
              "pitch": 72,
              "velocity": 73,
              "position": 13.5,
              "duration": 0.19375
            },
            {
              "pitch": 74,
              "velocity": 76,
              "position": 13.947916666666666,
              "duration": 0.15416666666666667
            },
            {
              "pitch": 75,
              "velocity": 77,
              "position": 14.052083333333334,
              "duration": 0.42083333333333334
            },
            {
              "pitch": 63,
              "velocity": 77,
              "position": 14,
              "duration": 0.5229166666666667
            },
            {
              "pitch": 74,
              "velocity": 78,
              "position": 14.5,
              "duration": 0.46458333333333335
            },
            {
              "pitch": 62,
              "velocity": 78,
              "position": 14.5,
              "duration": 0.5895833333333333
            },
            {
              "pitch": 60,
              "velocity": 79,
              "position": 15,
              "duration": 0.3875
            },
            {
              "pitch": 72,
              "velocity": 79,
              "position": 15,
              "duration": 0.45625
            },
            {
              "pitch": 70,
              "velocity": 77,
              "position": 15.5,
              "duration": 0.29375
            },
            {
              "pitch": 58,
              "velocity": 77,
              "position": 15.5,
              "duration": 0.4270833333333333
            },
            {
              "pitch": 66,
              "velocity": 81,
              "position": 15.970833333333333,
              "duration": 0.18958333333333333
            },
            {
              "pitch": 60,
              "velocity": 81,
              "position": 15.989583333333334,
              "duration": 11.041666666666666
            },
            {
              "pitch": 67,
              "velocity": 83,
              "position": 16.145833333333332,
              "duration": 10.8875
            },
            {
              "pitch": 72,
              "velocity": 80,
              "position": 15.96875,
              "duration": 11.06875
            }
          ]
        },
        "14": {
          "ctab": {
            "srcChannel": 14,
            "name": "SldGt M",
            "accType": "PHRASE1",
            "editable": false,
            "mutedNotes": [],
            "mutedChords": [
              "dim7",
              "dim",
              "minMaj7(9)",
              "minMaj7",
              "min7(11)",
              "min7(9)",
              "min(9)",
              "m7b5",
              "min7",
              "min6",
              "min"
            ],
            "autoStart": false,
            "sourceChordNote": 0,
            "sourceChordType": "Maj",
            "ctb2Low": null,
            "ctb2Main": {
              "ntr": "ROOT_TRANSPOSITION",
              "ntt": "BYPASS",
              "bassOn": false,
              "chordRootUpperLimit": 3,
              "noteLowLimit": 40,
              "noteHighLimit": 127,
              "rtr": "PITCH_SHIFT"
            },
            "ctb2High": null
          },
          "notes": [
            {
              "pitch": 48,
              "velocity": 76,
              "position": 0.00625,
              "duration": 0.46458333333333335
            },
            {
              "pitch": 55,
              "velocity": 76,
              "position": 0.00625,
              "duration": 0.46458333333333335
            },
            {
              "pitch": 67,
              "velocity": 12,
              "position": 0,
              "duration": 0.48541666666666666
            },
            {
              "pitch": 48,
              "velocity": 76,
              "position": 0.5,
              "duration": 0.475
            },
            {
              "pitch": 55,
              "velocity": 76,
              "position": 0.5,
              "duration": 0.475
            },
            {
              "pitch": 60,
              "velocity": 8,
              "position": 0,
              "duration": 0.9854166666666667
            },
            {
              "pitch": 72,
              "velocity": 13,
              "position": 0,
              "duration": 0.9854166666666667
            },
            {
              "pitch": 48,
              "velocity": 76,
              "position": 1,
              "duration": 0.475
            },
            {
              "pitch": 55,
              "velocity": 78,
              "position": 1,
              "duration": 0.475
            },
            {
              "pitch": 67,
              "velocity": 110,
              "position": 0.5,
              "duration": 0.9916666666666667
            },
            {
              "pitch": 67,
              "velocity": 8,
              "position": 1.5,
              "duration": 0.46458333333333335
            },
            {
              "pitch": 55,
              "velocity": 79,
              "position": 1.5,
              "duration": 0.475
            },
            {
              "pitch": 48,
              "velocity": 76,
              "position": 1.5,
              "duration": 0.475
            },
            {
              "pitch": 48,
              "velocity": 76,
              "position": 2,
              "duration": 0.475
            },
            {
              "pitch": 55,
              "velocity": 78,
              "position": 2,
              "duration": 0.475
            },
            {
              "pitch": 72,
              "velocity": 30,
              "position": 1,
              "duration": 1.4854166666666666
            },
            {
              "pitch": 48,
              "velocity": 76,
              "position": 2.5,
              "duration": 0.475
            },
            {
              "pitch": 55,
              "velocity": 76,
              "position": 2.5,
              "duration": 0.475
            },
            {
              "pitch": 67,
              "velocity": 110,
              "position": 2,
              "duration": 0.9916666666666667
            },
            {
              "pitch": 48,
              "velocity": 76,
              "position": 3,
              "duration": 0.475
            },
            {
              "pitch": 55,
              "velocity": 78,
              "position": 3,
              "duration": 0.475
            },
            {
              "pitch": 67,
              "velocity": 12,
              "position": 3,
              "duration": 0.48541666666666666
            },
            {
              "pitch": 72,
              "velocity": 30,
              "position": 2.5,
              "duration": 0.9854166666666667
            },
            {
              "pitch": 48,
              "velocity": 76,
              "position": 3.5,
              "duration": 0.475
            },
            {
              "pitch": 55,
              "velocity": 76,
              "position": 3.5,
              "duration": 0.475
            },
            {
              "pitch": 60,
              "velocity": 8,
              "position": 1,
              "duration": 2.9854166666666666
            },
            {
              "pitch": 67,
              "velocity": 12,
              "position": 3.5,
              "duration": 0.975
            },
            {
              "pitch": 55,
              "velocity": 79,
              "position": 4,
              "duration": 0.475
            },
            {
              "pitch": 48,
              "velocity": 76,
              "position": 4,
              "duration": 0.475
            },
            {
              "pitch": 48,
              "velocity": 76,
              "position": 4.5,
              "duration": 0.475
            },
            {
              "pitch": 55,
              "velocity": 76,
              "position": 4.5,
              "duration": 0.475
            },
            {
              "pitch": 60,
              "velocity": 8,
              "position": 4,
              "duration": 0.9854166666666667
            },
            {
              "pitch": 72,
              "velocity": 30,
              "position": 3.5,
              "duration": 1.4854166666666666
            },
            {
              "pitch": 48,
              "velocity": 76,
              "position": 5,
              "duration": 0.475
            },
            {
              "pitch": 72,
              "velocity": 15,
              "position": 5,
              "duration": 0.475
            },
            {
              "pitch": 55,
              "velocity": 78,
              "position": 5,
              "duration": 0.475
            },
            {
              "pitch": 48,
              "velocity": 76,
              "position": 5.5,
              "duration": 0.475
            },
            {
              "pitch": 55,
              "velocity": 79,
              "position": 5.5,
              "duration": 0.475
            },
            {
              "pitch": 67,
              "velocity": 110,
              "position": 4.5,
              "duration": 1.4854166666666666
            },
            {
              "pitch": 48,
              "velocity": 76,
              "position": 6,
              "duration": 0.475
            },
            {
              "pitch": 55,
              "velocity": 78,
              "position": 6,
              "duration": 0.475
            },
            {
              "pitch": 72,
              "velocity": 30,
              "position": 5.5,
              "duration": 0.9854166666666667
            },
            {
              "pitch": 48,
              "velocity": 76,
              "position": 6.5,
              "duration": 0.475
            },
            {
              "pitch": 67,
              "velocity": 12,
              "position": 6,
              "duration": 0.9854166666666667
            },
            {
              "pitch": 55,
              "velocity": 76,
              "position": 6.5,
              "duration": 0.49583333333333335
            },
            {
              "pitch": 72,
              "velocity": 30,
              "position": 6.5,
              "duration": 0.9854166666666667
            },
            {
              "pitch": 52,
              "velocity": 112,
              "position": 7,
              "duration": 0.48541666666666666
            },
            {
              "pitch": 60,
              "velocity": 8,
              "position": 5,
              "duration": 2.9854166666666666
            },
            {
              "pitch": 55,
              "velocity": 98,
              "position": 7.5,
              "duration": 0.48541666666666666
            },
            {
              "pitch": 67,
              "velocity": 12,
              "position": 7,
              "duration": 1.4645833333333333
            },
            {
              "pitch": 55,
              "velocity": 79,
              "position": 8.010416666666666,
              "duration": 0.46458333333333335
            },
            {
              "pitch": 48,
              "velocity": 76,
              "position": 8.010416666666666,
              "duration": 0.46458333333333335
            },
            {
              "pitch": 48,
              "velocity": 76,
              "position": 8.5,
              "duration": 0.475
            },
            {
              "pitch": 55,
              "velocity": 76,
              "position": 8.5,
              "duration": 0.475
            },
            {
              "pitch": 72,
              "velocity": 30,
              "position": 7.5,
              "duration": 1.4854166666666666
            },
            {
              "pitch": 60,
              "velocity": 8,
              "position": 8,
              "duration": 0.9854166666666667
            },
            {
              "pitch": 48,
              "velocity": 76,
              "position": 9,
              "duration": 0.475
            },
            {
              "pitch": 55,
              "velocity": 78,
              "position": 9,
              "duration": 0.475
            },
            {
              "pitch": 67,
              "velocity": 110,
              "position": 8.5,
              "duration": 0.9916666666666667
            },
            {
              "pitch": 67,
              "velocity": 12,
              "position": 9.5,
              "duration": 0.46458333333333335
            },
            {
              "pitch": 55,
              "velocity": 79,
              "position": 9.5,
              "duration": 0.475
            },
            {
              "pitch": 48,
              "velocity": 76,
              "position": 9.5,
              "duration": 0.475
            },
            {
              "pitch": 48,
              "velocity": 76,
              "position": 10,
              "duration": 0.475
            },
            {
              "pitch": 55,
              "velocity": 78,
              "position": 10,
              "duration": 0.475
            },
            {
              "pitch": 72,
              "velocity": 30,
              "position": 9,
              "duration": 1.4854166666666666
            },
            {
              "pitch": 48,
              "velocity": 76,
              "position": 10.5,
              "duration": 0.475
            },
            {
              "pitch": 55,
              "velocity": 76,
              "position": 10.5,
              "duration": 0.475
            },
            {
              "pitch": 67,
              "velocity": 110,
              "position": 10,
              "duration": 0.9916666666666667
            },
            {
              "pitch": 60,
              "velocity": 8,
              "position": 9,
              "duration": 2.475
            },
            {
              "pitch": 55,
              "velocity": 78,
              "position": 11,
              "duration": 0.475
            },
            {
              "pitch": 48,
              "velocity": 76,
              "position": 11,
              "duration": 0.475
            },
            {
              "pitch": 72,
              "velocity": 30,
              "position": 10.5,
              "duration": 0.9854166666666667
            },
            {
              "pitch": 67,
              "velocity": 12,
              "position": 11,
              "duration": 0.48541666666666666
            },
            {
              "pitch": 65,
              "velocity": 22,
              "position": 11.5,
              "duration": 0.475
            },
            {
              "pitch": 72,
              "velocity": 30,
              "position": 11.5,
              "duration": 0.48541666666666666
            },
            {
              "pitch": 46,
              "velocity": 78,
              "position": 11.5,
              "duration": 0.48541666666666666
            },
            {
              "pitch": 53,
              "velocity": 42,
              "position": 11.5,
              "duration": 0.48541666666666666
            },
            {
              "pitch": 55,
              "velocity": 86,
              "position": 12.5,
              "duration": 0.48541666666666666
            },
            {
              "pitch": 58,
              "velocity": 44,
              "position": 13,
              "duration": 0.48541666666666666
            },
            {
              "pitch": 60,
              "velocity": 100,
              "position": 13.5,
              "duration": 0.48541666666666666
            },
            {
              "pitch": 63,
              "velocity": 120,
              "position": 13.979166666666666,
              "duration": 0.50625
            },
            {
              "pitch": 62,
              "velocity": 100,
              "position": 14.5,
              "duration": 0.48541666666666666
            },
            {
              "pitch": 60,
              "velocity": 32,
              "position": 15,
              "duration": 0.48541666666666666
            },
            {
              "pitch": 58,
              "velocity": 98,
              "position": 15.5,
              "duration": 0.48541666666666666
            },
            {
              "pitch": 48,
              "velocity": 28,
              "position": 16,
              "duration": 10.985416666666667
            },
            {
              "pitch": 60,
              "velocity": 32,
              "position": 16.020833333333332,
              "duration": 10.964583333333334
            },
            {
              "pitch": 55,
              "velocity": 28,
              "position": 16.020833333333332,
              "duration": 10.964583333333334
            }
          ]
        },
        "15": {
          "ctab": {
            "srcChannel": 15,
            "name": "Str M",
            "accType": "PHRASE2",
            "editable": false,
            "mutedNotes": [],
            "mutedChords": [
              "dim7",
              "dim",
              "minMaj7(9)",
              "minMaj7",
              "min7(11)",
              "min7(9)",
              "min(9)",
              "m7b5",
              "min7",
              "min6",
              "min"
            ],
            "autoStart": false,
            "sourceChordNote": 0,
            "sourceChordType": "Maj",
            "ctb2Low": null,
            "ctb2Main": {
              "ntr": "ROOT_TRANSPOSITION",
              "ntt": "BYPASS",
              "bassOn": false,
              "chordRootUpperLimit": 10,
              "noteLowLimit": 54,
              "noteHighLimit": 65,
              "rtr": "PITCH_SHIFT"
            },
            "ctb2High": null
          },
          "notes": [
            {
              "pitch": 55,
              "velocity": 45,
              "position": 0,
              "duration": 7.475
            },
            {
              "pitch": 64,
              "velocity": 72,
              "position": 0,
              "duration": 7.475
            },
            {
              "pitch": 60,
              "velocity": 45,
              "position": 0,
              "duration": 11.475
            },
            {
              "pitch": 65,
              "velocity": 72,
              "position": 7.5,
              "duration": 3.975
            },
            {
              "pitch": 57,
              "velocity": 45,
              "position": 7.5,
              "duration": 3.975
            },
            {
              "pitch": 55,
              "velocity": 45,
              "position": 16,
              "duration": 10.985416666666667
            },
            {
              "pitch": 64,
              "velocity": 45,
              "position": 16,
              "duration": 10.985416666666667
            },
            {
              "pitch": 60,
              "velocity": 45,
              "position": 16,
              "duration": 10.985416666666667
            }
          ]
        }
      }
    },
    "Ending_C": {
      "type": "Ending_C",
      "sizeInBeats": 40,
      "channels": {
        "1": {
          "ctab": {
            "srcChannel": 1,
            "name": "Bass m",
            "accType": "BASS",
            "editable": false,
            "mutedNotes": [],
            "mutedChords": [
              "1+2+5",
              "sus4",
              "1+5",
              "1+8",
              "7aug",
              "Maj7aug",
              "7(#9)",
              "7(b13)",
              "7(b9)",
              "7(13)",
              "7#11",
              "7(9)",
              "7b5",
              "7sus4",
              "7th",
              "aug",
              "Maj6(9)",
              "Maj7(9)",
              "Maj(9)",
              "Maj7#11",
              "Maj7",
              "Maj6",
              "Maj"
            ],
            "autoStart": false,
            "sourceChordNote": 0,
            "sourceChordType": "min",
            "ctb2Low": null,
            "ctb2Main": {
              "ntr": "ROOT_TRANSPOSITION",
              "ntt": "BYPASS",
              "bassOn": false,
              "chordRootUpperLimit": 8,
              "noteLowLimit": 28,
              "noteHighLimit": 51,
              "rtr": "PITCH_SHIFT"
            },
            "ctb2High": null
          },
          "notes": [
            {
              "pitch": 24,
              "velocity": 70,
              "position": 0,
              "duration": 0.39166666666666666
            },
            {
              "pitch": 24,
              "velocity": 50,
              "position": 0.5,
              "duration": 0.42291666666666666
            },
            {
              "pitch": 24,
              "velocity": 70,
              "position": 1,
              "duration": 0.6729166666666667
            },
            {
              "pitch": 24,
              "velocity": 60,
              "position": 1.75,
              "duration": 0.31875
            },
            {
              "pitch": 24,
              "velocity": 40,
              "position": 2.25,
              "duration": 0.23541666666666666
            },
            {
              "pitch": 24,
              "velocity": 50,
              "position": 2.5,
              "duration": 0.43333333333333335
            },
            {
              "pitch": 24,
              "velocity": 70,
              "position": 3,
              "duration": 0.43333333333333335
            },
            {
              "pitch": 31,
              "velocity": 50,
              "position": 3.5,
              "duration": 0.43333333333333335
            },
            {
              "pitch": 26,
              "velocity": 70,
              "position": 4,
              "duration": 0.39166666666666666
            },
            {
              "pitch": 26,
              "velocity": 50,
              "position": 4.5,
              "duration": 0.42291666666666666
            },
            {
              "pitch": 26,
              "velocity": 70,
              "position": 5,
              "duration": 0.6729166666666667
            },
            {
              "pitch": 26,
              "velocity": 60,
              "position": 5.75,
              "duration": 0.31875
            },
            {
              "pitch": 26,
              "velocity": 40,
              "position": 6.25,
              "duration": 0.23541666666666666
            },
            {
              "pitch": 26,
              "velocity": 50,
              "position": 6.5,
              "duration": 0.43333333333333335
            },
            {
              "pitch": 26,
              "velocity": 70,
              "position": 7,
              "duration": 0.43333333333333335
            },
            {
              "pitch": 33,
              "velocity": 50,
              "position": 7.5,
              "duration": 0.23541666666666666
            },
            {
              "pitch": 33,
              "velocity": 30,
              "position": 7.75,
              "duration": 0.23541666666666666
            },
            {
              "pitch": 27,
              "velocity": 70,
              "position": 8,
              "duration": 0.39166666666666666
            },
            {
              "pitch": 27,
              "velocity": 50,
              "position": 8.5,
              "duration": 0.42291666666666666
            },
            {
              "pitch": 27,
              "velocity": 70,
              "position": 9,
              "duration": 0.6729166666666667
            },
            {
              "pitch": 27,
              "velocity": 60,
              "position": 9.75,
              "duration": 0.31875
            },
            {
              "pitch": 27,
              "velocity": 40,
              "position": 10.25,
              "duration": 0.23541666666666666
            },
            {
              "pitch": 27,
              "velocity": 50,
              "position": 10.5,
              "duration": 0.43333333333333335
            },
            {
              "pitch": 27,
              "velocity": 70,
              "position": 11,
              "duration": 0.43333333333333335
            },
            {
              "pitch": 24,
              "velocity": 50,
              "position": 11.5,
              "duration": 0.43333333333333335
            },
            {
              "pitch": 29,
              "velocity": 70,
              "position": 12,
              "duration": 0.39166666666666666
            },
            {
              "pitch": 29,
              "velocity": 50,
              "position": 12.5,
              "duration": 0.42291666666666666
            },
            {
              "pitch": 29,
              "velocity": 70,
              "position": 13,
              "duration": 0.6729166666666667
            },
            {
              "pitch": 29,
              "velocity": 60,
              "position": 13.75,
              "duration": 0.31875
            },
            {
              "pitch": 29,
              "velocity": 40,
              "position": 14.25,
              "duration": 0.23541666666666666
            },
            {
              "pitch": 29,
              "velocity": 50,
              "position": 14.5,
              "duration": 0.43333333333333335
            },
            {
              "pitch": 29,
              "velocity": 70,
              "position": 15,
              "duration": 0.43333333333333335
            },
            {
              "pitch": 27,
              "velocity": 50,
              "position": 15.5,
              "duration": 0.23541666666666666
            },
            {
              "pitch": 26,
              "velocity": 30,
              "position": 15.75,
              "duration": 0.23541666666666666
            },
            {
              "pitch": 24,
              "velocity": 70,
              "position": 16,
              "duration": 0.39166666666666666
            },
            {
              "pitch": 24,
              "velocity": 50,
              "position": 16.5,
              "duration": 0.42291666666666666
            },
            {
              "pitch": 24,
              "velocity": 70,
              "position": 17,
              "duration": 0.6729166666666667
            },
            {
              "pitch": 24,
              "velocity": 60,
              "position": 17.75,
              "duration": 0.31875
            },
            {
              "pitch": 24,
              "velocity": 40,
              "position": 18.25,
              "duration": 0.23541666666666666
            },
            {
              "pitch": 24,
              "velocity": 50,
              "position": 18.5,
              "duration": 0.43333333333333335
            },
            {
              "pitch": 24,
              "velocity": 70,
              "position": 19,
              "duration": 0.43333333333333335
            },
            {
              "pitch": 31,
              "velocity": 50,
              "position": 19.5,
              "duration": 0.43333333333333335
            },
            {
              "pitch": 26,
              "velocity": 70,
              "position": 20,
              "duration": 0.39166666666666666
            },
            {
              "pitch": 26,
              "velocity": 50,
              "position": 20.5,
              "duration": 0.42291666666666666
            },
            {
              "pitch": 26,
              "velocity": 70,
              "position": 21,
              "duration": 0.6729166666666667
            },
            {
              "pitch": 26,
              "velocity": 60,
              "position": 21.75,
              "duration": 0.31875
            },
            {
              "pitch": 26,
              "velocity": 40,
              "position": 22.25,
              "duration": 0.23541666666666666
            },
            {
              "pitch": 26,
              "velocity": 50,
              "position": 22.5,
              "duration": 0.43333333333333335
            },
            {
              "pitch": 26,
              "velocity": 70,
              "position": 23,
              "duration": 0.43333333333333335
            },
            {
              "pitch": 33,
              "velocity": 50,
              "position": 23.5,
              "duration": 0.23541666666666666
            },
            {
              "pitch": 33,
              "velocity": 30,
              "position": 23.75,
              "duration": 0.23541666666666666
            },
            {
              "pitch": 27,
              "velocity": 70,
              "position": 24,
              "duration": 0.39166666666666666
            },
            {
              "pitch": 27,
              "velocity": 50,
              "position": 24.5,
              "duration": 0.42291666666666666
            },
            {
              "pitch": 27,
              "velocity": 70,
              "position": 25,
              "duration": 0.6729166666666667
            },
            {
              "pitch": 27,
              "velocity": 60,
              "position": 25.75,
              "duration": 0.31875
            },
            {
              "pitch": 27,
              "velocity": 40,
              "position": 26.25,
              "duration": 0.23541666666666666
            },
            {
              "pitch": 27,
              "velocity": 50,
              "position": 26.5,
              "duration": 0.43333333333333335
            },
            {
              "pitch": 27,
              "velocity": 70,
              "position": 27,
              "duration": 0.43333333333333335
            },
            {
              "pitch": 24,
              "velocity": 50,
              "position": 27.5,
              "duration": 0.43333333333333335
            },
            {
              "pitch": 31,
              "velocity": 70,
              "position": 28,
              "duration": 0.39166666666666666
            },
            {
              "pitch": 31,
              "velocity": 50,
              "position": 28.5,
              "duration": 0.42291666666666666
            },
            {
              "pitch": 31,
              "velocity": 70,
              "position": 29,
              "duration": 0.6729166666666667
            },
            {
              "pitch": 31,
              "velocity": 60,
              "position": 29.75,
              "duration": 0.31875
            },
            {
              "pitch": 31,
              "velocity": 40,
              "position": 30.25,
              "duration": 0.23541666666666666
            },
            {
              "pitch": 31,
              "velocity": 50,
              "position": 30.5,
              "duration": 0.43333333333333335
            },
            {
              "pitch": 31,
              "velocity": 70,
              "position": 31,
              "duration": 0.43333333333333335
            },
            {
              "pitch": 31,
              "velocity": 50,
              "position": 31.5,
              "duration": 0.23541666666666666
            },
            {
              "pitch": 31,
              "velocity": 30,
              "position": 31.75,
              "duration": 0.23541666666666666
            },
            {
              "pitch": 24,
              "velocity": 70,
              "position": 32,
              "duration": 6.985416666666667
            }
          ]
        },
        "2": {
          "ctab": {
            "srcChannel": 2,
            "name": "StGt m",
            "accType": "CHORD1",
            "editable": false,
            "mutedNotes": [],
            "mutedChords": [
              "1+2+5",
              "sus4",
              "1+5",
              "1+8",
              "7aug",
              "Maj7aug",
              "7(#9)",
              "7(b13)",
              "7(b9)",
              "7(13)",
              "7#11",
              "7(9)",
              "7b5",
              "7sus4",
              "7th",
              "aug",
              "Maj6(9)",
              "Maj7(9)",
              "Maj(9)",
              "Maj7#11",
              "Maj7",
              "Maj6",
              "Maj"
            ],
            "autoStart": false,
            "sourceChordNote": 0,
            "sourceChordType": "min",
            "ctb2Low": null,
            "ctb2Main": {
              "ntr": "ROOT_TRANSPOSITION",
              "ntt": "BYPASS",
              "bassOn": false,
              "chordRootUpperLimit": 3,
              "noteLowLimit": 40,
              "noteHighLimit": 70,
              "rtr": "PITCH_SHIFT"
            },
            "ctb2High": null
          },
          "notes": [
            {
              "pitch": 109,
              "velocity": 103,
              "position": 0.010416666666666666,
              "duration": 0.23541666666666666
            },
            {
              "pitch": 48,
              "velocity": 42,
              "position": 0,
              "duration": 0.48541666666666666
            },
            {
              "pitch": 55,
              "velocity": 36,
              "position": 0.010416666666666666,
              "duration": 0.48541666666666666
            },
            {
              "pitch": 72,
              "velocity": 45,
              "position": 0.020833333333333332,
              "duration": 0.48541666666666666
            },
            {
              "pitch": 75,
              "velocity": 45,
              "position": 0.020833333333333332,
              "duration": 0.48541666666666666
            },
            {
              "pitch": 79,
              "velocity": 45,
              "position": 0.020833333333333332,
              "duration": 0.48541666666666666
            },
            {
              "pitch": 105,
              "velocity": 97,
              "position": 0.5,
              "duration": 0.23541666666666666
            },
            {
              "pitch": 48,
              "velocity": 36,
              "position": 0.5,
              "duration": 0.48541666666666666
            },
            {
              "pitch": 55,
              "velocity": 32,
              "position": 0.5104166666666666,
              "duration": 0.48541666666666666
            },
            {
              "pitch": 72,
              "velocity": 33,
              "position": 0.5208333333333334,
              "duration": 0.48541666666666666
            },
            {
              "pitch": 79,
              "velocity": 38,
              "position": 0.5208333333333334,
              "duration": 0.48541666666666666
            },
            {
              "pitch": 75,
              "velocity": 38,
              "position": 0.5208333333333334,
              "duration": 0.48541666666666666
            },
            {
              "pitch": 111,
              "velocity": 103,
              "position": 1,
              "duration": 0.23541666666666666
            },
            {
              "pitch": 79,
              "velocity": 48,
              "position": 1.0208333333333333,
              "duration": 0.7145833333333333
            },
            {
              "pitch": 75,
              "velocity": 48,
              "position": 1.0208333333333333,
              "duration": 0.725
            },
            {
              "pitch": 72,
              "velocity": 46,
              "position": 1.0208333333333333,
              "duration": 0.7354166666666667
            },
            {
              "pitch": 48,
              "velocity": 44,
              "position": 1,
              "duration": 0.75625
            },
            {
              "pitch": 55,
              "velocity": 41,
              "position": 1.0104166666666667,
              "duration": 0.7458333333333333
            },
            {
              "pitch": 109,
              "velocity": 103,
              "position": 1.75,
              "duration": 0.23541666666666666
            },
            {
              "pitch": 79,
              "velocity": 52,
              "position": 1.75,
              "duration": 0.48541666666666666
            },
            {
              "pitch": 75,
              "velocity": 52,
              "position": 1.7604166666666667,
              "duration": 0.48541666666666666
            },
            {
              "pitch": 48,
              "velocity": 46,
              "position": 1.7708333333333333,
              "duration": 0.48541666666666666
            },
            {
              "pitch": 72,
              "velocity": 50,
              "position": 1.7708333333333333,
              "duration": 0.48541666666666666
            },
            {
              "pitch": 55,
              "velocity": 50,
              "position": 1.7708333333333333,
              "duration": 0.48541666666666666
            },
            {
              "pitch": 104,
              "velocity": 103,
              "position": 2.25,
              "duration": 0.23541666666666666
            },
            {
              "pitch": 48,
              "velocity": 38,
              "position": 2.2708333333333335,
              "duration": 0.21458333333333332
            },
            {
              "pitch": 55,
              "velocity": 40,
              "position": 2.2708333333333335,
              "duration": 0.225
            },
            {
              "pitch": 79,
              "velocity": 44,
              "position": 2.25,
              "duration": 0.25625
            },
            {
              "pitch": 72,
              "velocity": 42,
              "position": 2.2708333333333335,
              "duration": 0.23541666666666666
            },
            {
              "pitch": 75,
              "velocity": 36,
              "position": 2.2604166666666665,
              "duration": 0.24583333333333332
            },
            {
              "pitch": 105,
              "velocity": 83,
              "position": 2.5,
              "duration": 0.23541666666666666
            },
            {
              "pitch": 79,
              "velocity": 45,
              "position": 2.5208333333333335,
              "duration": 0.21458333333333332
            },
            {
              "pitch": 75,
              "velocity": 36,
              "position": 2.5208333333333335,
              "duration": 0.225
            },
            {
              "pitch": 72,
              "velocity": 36,
              "position": 2.5208333333333335,
              "duration": 0.23541666666666666
            },
            {
              "pitch": 48,
              "velocity": 42,
              "position": 2.5,
              "duration": 0.25625
            },
            {
              "pitch": 55,
              "velocity": 45,
              "position": 2.5104166666666665,
              "duration": 0.24583333333333332
            },
            {
              "pitch": 104,
              "velocity": 63,
              "position": 2.75,
              "duration": 0.23541666666666666
            },
            {
              "pitch": 48,
              "velocity": 40,
              "position": 2.7708333333333335,
              "duration": 0.21458333333333332
            },
            {
              "pitch": 55,
              "velocity": 34,
              "position": 2.7708333333333335,
              "duration": 0.225
            },
            {
              "pitch": 79,
              "velocity": 42,
              "position": 2.75,
              "duration": 0.25625
            },
            {
              "pitch": 72,
              "velocity": 42,
              "position": 2.7708333333333335,
              "duration": 0.23541666666666666
            },
            {
              "pitch": 75,
              "velocity": 42,
              "position": 2.7604166666666665,
              "duration": 0.24583333333333332
            },
            {
              "pitch": 111,
              "velocity": 103,
              "position": 3,
              "duration": 0.23541666666666666
            },
            {
              "pitch": 48,
              "velocity": 50,
              "position": 3,
              "duration": 0.48541666666666666
            },
            {
              "pitch": 55,
              "velocity": 50,
              "position": 3.0104166666666665,
              "duration": 0.48541666666666666
            },
            {
              "pitch": 72,
              "velocity": 50,
              "position": 3.0208333333333335,
              "duration": 0.48541666666666666
            },
            {
              "pitch": 79,
              "velocity": 50,
              "position": 3.0208333333333335,
              "duration": 0.48541666666666666
            },
            {
              "pitch": 75,
              "velocity": 50,
              "position": 3.0208333333333335,
              "duration": 0.48541666666666666
            },
            {
              "pitch": 105,
              "velocity": 83,
              "position": 3.5,
              "duration": 0.23541666666666666
            },
            {
              "pitch": 79,
              "velocity": 45,
              "position": 3.5208333333333335,
              "duration": 0.21458333333333332
            },
            {
              "pitch": 75,
              "velocity": 45,
              "position": 3.5208333333333335,
              "duration": 0.225
            },
            {
              "pitch": 72,
              "velocity": 45,
              "position": 3.5208333333333335,
              "duration": 0.23541666666666666
            },
            {
              "pitch": 48,
              "velocity": 45,
              "position": 3.5,
              "duration": 0.25625
            },
            {
              "pitch": 55,
              "velocity": 45,
              "position": 3.5104166666666665,
              "duration": 0.24583333333333332
            },
            {
              "pitch": 79,
              "velocity": 36,
              "position": 3.75,
              "duration": 0.23541666666666666
            },
            {
              "pitch": 72,
              "velocity": 32,
              "position": 3.7708333333333335,
              "duration": 0.21458333333333332
            },
            {
              "pitch": 55,
              "velocity": 32,
              "position": 3.7708333333333335,
              "duration": 0.21458333333333332
            },
            {
              "pitch": 48,
              "velocity": 32,
              "position": 3.7708333333333335,
              "duration": 0.21458333333333332
            },
            {
              "pitch": 75,
              "velocity": 36,
              "position": 3.7604166666666665,
              "duration": 0.225
            },
            {
              "pitch": 104,
              "velocity": 63,
              "position": 3.75,
              "duration": 0.23541666666666666
            },
            {
              "pitch": 109,
              "velocity": 103,
              "position": 4.010416666666667,
              "duration": 0.23541666666666666
            },
            {
              "pitch": 50,
              "velocity": 42,
              "position": 4,
              "duration": 0.48541666666666666
            },
            {
              "pitch": 60,
              "velocity": 36,
              "position": 4.010416666666667,
              "duration": 0.48541666666666666
            },
            {
              "pitch": 72,
              "velocity": 45,
              "position": 4.020833333333333,
              "duration": 0.48541666666666666
            },
            {
              "pitch": 77,
              "velocity": 45,
              "position": 4.020833333333333,
              "duration": 0.48541666666666666
            },
            {
              "pitch": 79,
              "velocity": 45,
              "position": 4.020833333333333,
              "duration": 0.48541666666666666
            },
            {
              "pitch": 105,
              "velocity": 97,
              "position": 4.5,
              "duration": 0.23541666666666666
            },
            {
              "pitch": 50,
              "velocity": 36,
              "position": 4.5,
              "duration": 0.48541666666666666
            },
            {
              "pitch": 60,
              "velocity": 32,
              "position": 4.510416666666667,
              "duration": 0.48541666666666666
            },
            {
              "pitch": 72,
              "velocity": 33,
              "position": 4.520833333333333,
              "duration": 0.48541666666666666
            },
            {
              "pitch": 79,
              "velocity": 38,
              "position": 4.520833333333333,
              "duration": 0.48541666666666666
            },
            {
              "pitch": 77,
              "velocity": 38,
              "position": 4.520833333333333,
              "duration": 0.48541666666666666
            },
            {
              "pitch": 111,
              "velocity": 103,
              "position": 5,
              "duration": 0.23541666666666666
            },
            {
              "pitch": 79,
              "velocity": 48,
              "position": 5.020833333333333,
              "duration": 0.7145833333333333
            },
            {
              "pitch": 77,
              "velocity": 48,
              "position": 5.020833333333333,
              "duration": 0.725
            },
            {
              "pitch": 72,
              "velocity": 46,
              "position": 5.020833333333333,
              "duration": 0.7354166666666667
            },
            {
              "pitch": 50,
              "velocity": 44,
              "position": 5,
              "duration": 0.75625
            },
            {
              "pitch": 60,
              "velocity": 41,
              "position": 5.010416666666667,
              "duration": 0.7458333333333333
            },
            {
              "pitch": 109,
              "velocity": 103,
              "position": 5.75,
              "duration": 0.23541666666666666
            },
            {
              "pitch": 79,
              "velocity": 52,
              "position": 5.75,
              "duration": 0.48541666666666666
            },
            {
              "pitch": 77,
              "velocity": 52,
              "position": 5.760416666666667,
              "duration": 0.48541666666666666
            },
            {
              "pitch": 50,
              "velocity": 46,
              "position": 5.770833333333333,
              "duration": 0.48541666666666666
            },
            {
              "pitch": 72,
              "velocity": 50,
              "position": 5.770833333333333,
              "duration": 0.48541666666666666
            },
            {
              "pitch": 60,
              "velocity": 50,
              "position": 5.770833333333333,
              "duration": 0.48541666666666666
            },
            {
              "pitch": 104,
              "velocity": 103,
              "position": 6.25,
              "duration": 0.23541666666666666
            },
            {
              "pitch": 50,
              "velocity": 38,
              "position": 6.270833333333333,
              "duration": 0.21458333333333332
            },
            {
              "pitch": 60,
              "velocity": 40,
              "position": 6.270833333333333,
              "duration": 0.225
            },
            {
              "pitch": 79,
              "velocity": 44,
              "position": 6.25,
              "duration": 0.25625
            },
            {
              "pitch": 72,
              "velocity": 42,
              "position": 6.270833333333333,
              "duration": 0.23541666666666666
            },
            {
              "pitch": 77,
              "velocity": 36,
              "position": 6.260416666666667,
              "duration": 0.24583333333333332
            },
            {
              "pitch": 105,
              "velocity": 83,
              "position": 6.5,
              "duration": 0.23541666666666666
            },
            {
              "pitch": 79,
              "velocity": 45,
              "position": 6.520833333333333,
              "duration": 0.21458333333333332
            },
            {
              "pitch": 77,
              "velocity": 42,
              "position": 6.520833333333333,
              "duration": 0.225
            },
            {
              "pitch": 72,
              "velocity": 36,
              "position": 6.520833333333333,
              "duration": 0.23541666666666666
            },
            {
              "pitch": 50,
              "velocity": 42,
              "position": 6.5,
              "duration": 0.25625
            },
            {
              "pitch": 60,
              "velocity": 45,
              "position": 6.510416666666667,
              "duration": 0.24583333333333332
            },
            {
              "pitch": 104,
              "velocity": 63,
              "position": 6.75,
              "duration": 0.23541666666666666
            },
            {
              "pitch": 50,
              "velocity": 40,
              "position": 6.770833333333333,
              "duration": 0.21458333333333332
            },
            {
              "pitch": 60,
              "velocity": 40,
              "position": 6.770833333333333,
              "duration": 0.225
            },
            {
              "pitch": 79,
              "velocity": 34,
              "position": 6.75,
              "duration": 0.25625
            },
            {
              "pitch": 72,
              "velocity": 36,
              "position": 6.770833333333333,
              "duration": 0.23541666666666666
            },
            {
              "pitch": 77,
              "velocity": 32,
              "position": 6.760416666666667,
              "duration": 0.24583333333333332
            },
            {
              "pitch": 111,
              "velocity": 103,
              "position": 7,
              "duration": 0.23541666666666666
            },
            {
              "pitch": 50,
              "velocity": 50,
              "position": 7,
              "duration": 0.48541666666666666
            },
            {
              "pitch": 60,
              "velocity": 50,
              "position": 7.010416666666667,
              "duration": 0.48541666666666666
            },
            {
              "pitch": 72,
              "velocity": 50,
              "position": 7.020833333333333,
              "duration": 0.48541666666666666
            },
            {
              "pitch": 79,
              "velocity": 50,
              "position": 7.020833333333333,
              "duration": 0.48541666666666666
            },
            {
              "pitch": 77,
              "velocity": 50,
              "position": 7.020833333333333,
              "duration": 0.48541666666666666
            },
            {
              "pitch": 105,
              "velocity": 83,
              "position": 7.5,
              "duration": 0.23541666666666666
            },
            {
              "pitch": 79,
              "velocity": 45,
              "position": 7.520833333333333,
              "duration": 0.21458333333333332
            },
            {
              "pitch": 77,
              "velocity": 45,
              "position": 7.520833333333333,
              "duration": 0.225
            },
            {
              "pitch": 72,
              "velocity": 45,
              "position": 7.520833333333333,
              "duration": 0.23541666666666666
            },
            {
              "pitch": 50,
              "velocity": 45,
              "position": 7.5,
              "duration": 0.25625
            },
            {
              "pitch": 60,
              "velocity": 45,
              "position": 7.510416666666667,
              "duration": 0.24583333333333332
            },
            {
              "pitch": 104,
              "velocity": 63,
              "position": 7.75,
              "duration": 0.23541666666666666
            },
            {
              "pitch": 72,
              "velocity": 32,
              "position": 7.770833333333333,
              "duration": 0.225
            },
            {
              "pitch": 60,
              "velocity": 32,
              "position": 7.770833333333333,
              "duration": 0.225
            },
            {
              "pitch": 50,
              "velocity": 32,
              "position": 7.770833333333333,
              "duration": 0.225
            },
            {
              "pitch": 77,
              "velocity": 36,
              "position": 7.760416666666667,
              "duration": 0.23541666666666666
            },
            {
              "pitch": 79,
              "velocity": 36,
              "position": 7.75,
              "duration": 0.24583333333333332
            },
            {
              "pitch": 109,
              "velocity": 103,
              "position": 8.010416666666666,
              "duration": 0.23541666666666666
            },
            {
              "pitch": 51,
              "velocity": 42,
              "position": 8,
              "duration": 0.48541666666666666
            },
            {
              "pitch": 60,
              "velocity": 36,
              "position": 8.010416666666666,
              "duration": 0.48541666666666666
            },
            {
              "pitch": 72,
              "velocity": 45,
              "position": 8.020833333333334,
              "duration": 0.48541666666666666
            },
            {
              "pitch": 75,
              "velocity": 45,
              "position": 8.020833333333334,
              "duration": 0.48541666666666666
            },
            {
              "pitch": 79,
              "velocity": 45,
              "position": 8.020833333333334,
              "duration": 0.48541666666666666
            },
            {
              "pitch": 105,
              "velocity": 97,
              "position": 8.5,
              "duration": 0.23541666666666666
            },
            {
              "pitch": 51,
              "velocity": 36,
              "position": 8.5,
              "duration": 0.48541666666666666
            },
            {
              "pitch": 60,
              "velocity": 32,
              "position": 8.510416666666666,
              "duration": 0.48541666666666666
            },
            {
              "pitch": 72,
              "velocity": 33,
              "position": 8.520833333333334,
              "duration": 0.48541666666666666
            },
            {
              "pitch": 79,
              "velocity": 38,
              "position": 8.520833333333334,
              "duration": 0.48541666666666666
            },
            {
              "pitch": 75,
              "velocity": 38,
              "position": 8.520833333333334,
              "duration": 0.48541666666666666
            },
            {
              "pitch": 111,
              "velocity": 103,
              "position": 9,
              "duration": 0.23541666666666666
            },
            {
              "pitch": 79,
              "velocity": 48,
              "position": 9.020833333333334,
              "duration": 0.7145833333333333
            },
            {
              "pitch": 75,
              "velocity": 48,
              "position": 9.020833333333334,
              "duration": 0.725
            },
            {
              "pitch": 72,
              "velocity": 46,
              "position": 9.020833333333334,
              "duration": 0.7354166666666667
            },
            {
              "pitch": 51,
              "velocity": 44,
              "position": 9,
              "duration": 0.75625
            },
            {
              "pitch": 60,
              "velocity": 41,
              "position": 9.010416666666666,
              "duration": 0.7458333333333333
            },
            {
              "pitch": 109,
              "velocity": 103,
              "position": 9.75,
              "duration": 0.23541666666666666
            },
            {
              "pitch": 79,
              "velocity": 52,
              "position": 9.75,
              "duration": 0.48541666666666666
            },
            {
              "pitch": 75,
              "velocity": 52,
              "position": 9.760416666666666,
              "duration": 0.48541666666666666
            },
            {
              "pitch": 51,
              "velocity": 46,
              "position": 9.770833333333334,
              "duration": 0.48541666666666666
            },
            {
              "pitch": 72,
              "velocity": 50,
              "position": 9.770833333333334,
              "duration": 0.48541666666666666
            },
            {
              "pitch": 60,
              "velocity": 50,
              "position": 9.770833333333334,
              "duration": 0.48541666666666666
            },
            {
              "pitch": 104,
              "velocity": 103,
              "position": 10.25,
              "duration": 0.23541666666666666
            },
            {
              "pitch": 51,
              "velocity": 38,
              "position": 10.270833333333334,
              "duration": 0.21458333333333332
            },
            {
              "pitch": 60,
              "velocity": 40,
              "position": 10.270833333333334,
              "duration": 0.225
            },
            {
              "pitch": 79,
              "velocity": 44,
              "position": 10.25,
              "duration": 0.25625
            },
            {
              "pitch": 72,
              "velocity": 42,
              "position": 10.270833333333334,
              "duration": 0.23541666666666666
            },
            {
              "pitch": 75,
              "velocity": 36,
              "position": 10.260416666666666,
              "duration": 0.24583333333333332
            },
            {
              "pitch": 105,
              "velocity": 83,
              "position": 10.5,
              "duration": 0.23541666666666666
            },
            {
              "pitch": 79,
              "velocity": 45,
              "position": 10.520833333333334,
              "duration": 0.21458333333333332
            },
            {
              "pitch": 75,
              "velocity": 42,
              "position": 10.520833333333334,
              "duration": 0.225
            },
            {
              "pitch": 72,
              "velocity": 36,
              "position": 10.520833333333334,
              "duration": 0.23541666666666666
            },
            {
              "pitch": 51,
              "velocity": 42,
              "position": 10.5,
              "duration": 0.25625
            },
            {
              "pitch": 60,
              "velocity": 45,
              "position": 10.510416666666666,
              "duration": 0.24583333333333332
            },
            {
              "pitch": 104,
              "velocity": 63,
              "position": 10.75,
              "duration": 0.23541666666666666
            },
            {
              "pitch": 51,
              "velocity": 40,
              "position": 10.770833333333334,
              "duration": 0.21458333333333332
            },
            {
              "pitch": 60,
              "velocity": 40,
              "position": 10.770833333333334,
              "duration": 0.225
            },
            {
              "pitch": 79,
              "velocity": 34,
              "position": 10.75,
              "duration": 0.25625
            },
            {
              "pitch": 72,
              "velocity": 36,
              "position": 10.770833333333334,
              "duration": 0.23541666666666666
            },
            {
              "pitch": 75,
              "velocity": 32,
              "position": 10.760416666666666,
              "duration": 0.24583333333333332
            },
            {
              "pitch": 111,
              "velocity": 103,
              "position": 11,
              "duration": 0.23541666666666666
            },
            {
              "pitch": 51,
              "velocity": 50,
              "position": 11,
              "duration": 0.48541666666666666
            },
            {
              "pitch": 60,
              "velocity": 50,
              "position": 11.010416666666666,
              "duration": 0.48541666666666666
            },
            {
              "pitch": 72,
              "velocity": 50,
              "position": 11.020833333333334,
              "duration": 0.48541666666666666
            },
            {
              "pitch": 79,
              "velocity": 50,
              "position": 11.020833333333334,
              "duration": 0.48541666666666666
            },
            {
              "pitch": 75,
              "velocity": 50,
              "position": 11.020833333333334,
              "duration": 0.48541666666666666
            },
            {
              "pitch": 105,
              "velocity": 83,
              "position": 11.5,
              "duration": 0.23541666666666666
            },
            {
              "pitch": 79,
              "velocity": 45,
              "position": 11.520833333333334,
              "duration": 0.21458333333333332
            },
            {
              "pitch": 75,
              "velocity": 45,
              "position": 11.520833333333334,
              "duration": 0.225
            },
            {
              "pitch": 72,
              "velocity": 45,
              "position": 11.520833333333334,
              "duration": 0.23541666666666666
            },
            {
              "pitch": 51,
              "velocity": 45,
              "position": 11.5,
              "duration": 0.25625
            },
            {
              "pitch": 60,
              "velocity": 45,
              "position": 11.510416666666666,
              "duration": 0.24583333333333332
            },
            {
              "pitch": 104,
              "velocity": 63,
              "position": 11.75,
              "duration": 0.23541666666666666
            },
            {
              "pitch": 72,
              "velocity": 32,
              "position": 11.770833333333334,
              "duration": 0.225
            },
            {
              "pitch": 60,
              "velocity": 32,
              "position": 11.770833333333334,
              "duration": 0.225
            },
            {
              "pitch": 51,
              "velocity": 32,
              "position": 11.770833333333334,
              "duration": 0.225
            },
            {
              "pitch": 75,
              "velocity": 36,
              "position": 11.760416666666666,
              "duration": 0.23541666666666666
            },
            {
              "pitch": 79,
              "velocity": 36,
              "position": 11.75,
              "duration": 0.24583333333333332
            },
            {
              "pitch": 109,
              "velocity": 103,
              "position": 12.010416666666666,
              "duration": 0.23541666666666666
            },
            {
              "pitch": 53,
              "velocity": 42,
              "position": 12,
              "duration": 0.48541666666666666
            },
            {
              "pitch": 60,
              "velocity": 36,
              "position": 12.010416666666666,
              "duration": 0.48541666666666666
            },
            {
              "pitch": 72,
              "velocity": 45,
              "position": 12.020833333333334,
              "duration": 0.48541666666666666
            },
            {
              "pitch": 77,
              "velocity": 45,
              "position": 12.020833333333334,
              "duration": 0.48541666666666666
            },
            {
              "pitch": 79,
              "velocity": 45,
              "position": 12.020833333333334,
              "duration": 0.48541666666666666
            },
            {
              "pitch": 105,
              "velocity": 97,
              "position": 12.5,
              "duration": 0.23541666666666666
            },
            {
              "pitch": 53,
              "velocity": 36,
              "position": 12.5,
              "duration": 0.48541666666666666
            },
            {
              "pitch": 60,
              "velocity": 32,
              "position": 12.510416666666666,
              "duration": 0.48541666666666666
            },
            {
              "pitch": 72,
              "velocity": 33,
              "position": 12.520833333333334,
              "duration": 0.48541666666666666
            },
            {
              "pitch": 79,
              "velocity": 38,
              "position": 12.520833333333334,
              "duration": 0.48541666666666666
            },
            {
              "pitch": 77,
              "velocity": 38,
              "position": 12.520833333333334,
              "duration": 0.48541666666666666
            },
            {
              "pitch": 111,
              "velocity": 103,
              "position": 13,
              "duration": 0.23541666666666666
            },
            {
              "pitch": 79,
              "velocity": 48,
              "position": 13.020833333333334,
              "duration": 0.7145833333333333
            },
            {
              "pitch": 77,
              "velocity": 48,
              "position": 13.020833333333334,
              "duration": 0.725
            },
            {
              "pitch": 72,
              "velocity": 46,
              "position": 13.020833333333334,
              "duration": 0.7354166666666667
            },
            {
              "pitch": 53,
              "velocity": 44,
              "position": 13,
              "duration": 0.75625
            },
            {
              "pitch": 60,
              "velocity": 41,
              "position": 13.010416666666666,
              "duration": 0.7458333333333333
            },
            {
              "pitch": 109,
              "velocity": 103,
              "position": 13.75,
              "duration": 0.23541666666666666
            },
            {
              "pitch": 79,
              "velocity": 52,
              "position": 13.75,
              "duration": 0.48541666666666666
            },
            {
              "pitch": 77,
              "velocity": 52,
              "position": 13.760416666666666,
              "duration": 0.48541666666666666
            },
            {
              "pitch": 53,
              "velocity": 46,
              "position": 13.770833333333334,
              "duration": 0.48541666666666666
            },
            {
              "pitch": 72,
              "velocity": 50,
              "position": 13.770833333333334,
              "duration": 0.48541666666666666
            },
            {
              "pitch": 60,
              "velocity": 50,
              "position": 13.770833333333334,
              "duration": 0.48541666666666666
            },
            {
              "pitch": 104,
              "velocity": 103,
              "position": 14.25,
              "duration": 0.23541666666666666
            },
            {
              "pitch": 53,
              "velocity": 38,
              "position": 14.270833333333334,
              "duration": 0.21458333333333332
            },
            {
              "pitch": 60,
              "velocity": 40,
              "position": 14.270833333333334,
              "duration": 0.225
            },
            {
              "pitch": 79,
              "velocity": 44,
              "position": 14.25,
              "duration": 0.25625
            },
            {
              "pitch": 72,
              "velocity": 42,
              "position": 14.270833333333334,
              "duration": 0.23541666666666666
            },
            {
              "pitch": 77,
              "velocity": 36,
              "position": 14.260416666666666,
              "duration": 0.24583333333333332
            },
            {
              "pitch": 105,
              "velocity": 83,
              "position": 14.5,
              "duration": 0.23541666666666666
            },
            {
              "pitch": 79,
              "velocity": 45,
              "position": 14.520833333333334,
              "duration": 0.21458333333333332
            },
            {
              "pitch": 77,
              "velocity": 42,
              "position": 14.520833333333334,
              "duration": 0.225
            },
            {
              "pitch": 72,
              "velocity": 36,
              "position": 14.520833333333334,
              "duration": 0.23541666666666666
            },
            {
              "pitch": 53,
              "velocity": 42,
              "position": 14.5,
              "duration": 0.25625
            },
            {
              "pitch": 60,
              "velocity": 45,
              "position": 14.510416666666666,
              "duration": 0.24583333333333332
            },
            {
              "pitch": 104,
              "velocity": 63,
              "position": 14.75,
              "duration": 0.23541666666666666
            },
            {
              "pitch": 53,
              "velocity": 40,
              "position": 14.770833333333334,
              "duration": 0.21458333333333332
            },
            {
              "pitch": 60,
              "velocity": 40,
              "position": 14.770833333333334,
              "duration": 0.225
            },
            {
              "pitch": 79,
              "velocity": 34,
              "position": 14.75,
              "duration": 0.25625
            },
            {
              "pitch": 72,
              "velocity": 36,
              "position": 14.770833333333334,
              "duration": 0.23541666666666666
            },
            {
              "pitch": 77,
              "velocity": 32,
              "position": 14.760416666666666,
              "duration": 0.24583333333333332
            },
            {
              "pitch": 111,
              "velocity": 103,
              "position": 15,
              "duration": 0.23541666666666666
            },
            {
              "pitch": 53,
              "velocity": 50,
              "position": 15,
              "duration": 0.48541666666666666
            },
            {
              "pitch": 60,
              "velocity": 50,
              "position": 15.010416666666666,
              "duration": 0.48541666666666666
            },
            {
              "pitch": 72,
              "velocity": 50,
              "position": 15.020833333333334,
              "duration": 0.48541666666666666
            },
            {
              "pitch": 79,
              "velocity": 50,
              "position": 15.020833333333334,
              "duration": 0.48541666666666666
            },
            {
              "pitch": 77,
              "velocity": 50,
              "position": 15.020833333333334,
              "duration": 0.48541666666666666
            },
            {
              "pitch": 105,
              "velocity": 83,
              "position": 15.5,
              "duration": 0.23541666666666666
            },
            {
              "pitch": 79,
              "velocity": 45,
              "position": 15.520833333333334,
              "duration": 0.21458333333333332
            },
            {
              "pitch": 77,
              "velocity": 45,
              "position": 15.520833333333334,
              "duration": 0.225
            },
            {
              "pitch": 72,
              "velocity": 45,
              "position": 15.520833333333334,
              "duration": 0.23541666666666666
            },
            {
              "pitch": 53,
              "velocity": 45,
              "position": 15.5,
              "duration": 0.25625
            },
            {
              "pitch": 60,
              "velocity": 45,
              "position": 15.510416666666666,
              "duration": 0.24583333333333332
            },
            {
              "pitch": 104,
              "velocity": 63,
              "position": 15.75,
              "duration": 0.23541666666666666
            },
            {
              "pitch": 72,
              "velocity": 32,
              "position": 15.770833333333334,
              "duration": 0.225
            },
            {
              "pitch": 60,
              "velocity": 32,
              "position": 15.770833333333334,
              "duration": 0.225
            },
            {
              "pitch": 53,
              "velocity": 32,
              "position": 15.770833333333334,
              "duration": 0.225
            },
            {
              "pitch": 77,
              "velocity": 36,
              "position": 15.760416666666666,
              "duration": 0.23541666666666666
            },
            {
              "pitch": 79,
              "velocity": 36,
              "position": 15.75,
              "duration": 0.24583333333333332
            },
            {
              "pitch": 109,
              "velocity": 103,
              "position": 16,
              "duration": 0.23541666666666666
            },
            {
              "pitch": 48,
              "velocity": 42,
              "position": 16,
              "duration": 0.48541666666666666
            },
            {
              "pitch": 55,
              "velocity": 36,
              "position": 16.010416666666668,
              "duration": 0.48541666666666666
            },
            {
              "pitch": 79,
              "velocity": 45,
              "position": 16.020833333333332,
              "duration": 0.48541666666666666
            },
            {
              "pitch": 72,
              "velocity": 45,
              "position": 16.020833333333332,
              "duration": 0.48541666666666666
            },
            {
              "pitch": 75,
              "velocity": 45,
              "position": 16.020833333333332,
              "duration": 0.48541666666666666
            },
            {
              "pitch": 105,
              "velocity": 97,
              "position": 16.489583333333332,
              "duration": 0.23541666666666666
            },
            {
              "pitch": 48,
              "velocity": 36,
              "position": 16.5,
              "duration": 0.48541666666666666
            },
            {
              "pitch": 55,
              "velocity": 32,
              "position": 16.510416666666668,
              "duration": 0.48541666666666666
            },
            {
              "pitch": 79,
              "velocity": 38,
              "position": 16.520833333333332,
              "duration": 0.48541666666666666
            },
            {
              "pitch": 72,
              "velocity": 33,
              "position": 16.520833333333332,
              "duration": 0.48541666666666666
            },
            {
              "pitch": 75,
              "velocity": 38,
              "position": 16.520833333333332,
              "duration": 0.48541666666666666
            },
            {
              "pitch": 111,
              "velocity": 103,
              "position": 16.989583333333332,
              "duration": 0.23541666666666666
            },
            {
              "pitch": 79,
              "velocity": 48,
              "position": 17.020833333333332,
              "duration": 0.7145833333333333
            },
            {
              "pitch": 75,
              "velocity": 48,
              "position": 17.020833333333332,
              "duration": 0.725
            },
            {
              "pitch": 48,
              "velocity": 44,
              "position": 17,
              "duration": 0.75625
            },
            {
              "pitch": 72,
              "velocity": 46,
              "position": 17.020833333333332,
              "duration": 0.7354166666666667
            },
            {
              "pitch": 55,
              "velocity": 41,
              "position": 17.010416666666668,
              "duration": 0.7458333333333333
            },
            {
              "pitch": 109,
              "velocity": 103,
              "position": 17.739583333333332,
              "duration": 0.23541666666666666
            },
            {
              "pitch": 79,
              "velocity": 52,
              "position": 17.75,
              "duration": 0.48541666666666666
            },
            {
              "pitch": 75,
              "velocity": 52,
              "position": 17.760416666666668,
              "duration": 0.48541666666666666
            },
            {
              "pitch": 72,
              "velocity": 50,
              "position": 17.770833333333332,
              "duration": 0.48541666666666666
            },
            {
              "pitch": 48,
              "velocity": 46,
              "position": 17.770833333333332,
              "duration": 0.48541666666666666
            },
            {
              "pitch": 55,
              "velocity": 50,
              "position": 17.770833333333332,
              "duration": 0.48541666666666666
            },
            {
              "pitch": 104,
              "velocity": 103,
              "position": 18.239583333333332,
              "duration": 0.23541666666666666
            },
            {
              "pitch": 48,
              "velocity": 38,
              "position": 18.270833333333332,
              "duration": 0.21458333333333332
            },
            {
              "pitch": 55,
              "velocity": 40,
              "position": 18.270833333333332,
              "duration": 0.225
            },
            {
              "pitch": 72,
              "velocity": 42,
              "position": 18.270833333333332,
              "duration": 0.23541666666666666
            },
            {
              "pitch": 79,
              "velocity": 44,
              "position": 18.25,
              "duration": 0.25625
            },
            {
              "pitch": 75,
              "velocity": 36,
              "position": 18.260416666666668,
              "duration": 0.24583333333333332
            },
            {
              "pitch": 105,
              "velocity": 83,
              "position": 18.489583333333332,
              "duration": 0.23541666666666666
            },
            {
              "pitch": 79,
              "velocity": 45,
              "position": 18.520833333333332,
              "duration": 0.21458333333333332
            },
            {
              "pitch": 75,
              "velocity": 36,
              "position": 18.520833333333332,
              "duration": 0.225
            },
            {
              "pitch": 48,
              "velocity": 42,
              "position": 18.5,
              "duration": 0.25625
            },
            {
              "pitch": 72,
              "velocity": 36,
              "position": 18.520833333333332,
              "duration": 0.23541666666666666
            },
            {
              "pitch": 55,
              "velocity": 45,
              "position": 18.510416666666668,
              "duration": 0.24583333333333332
            },
            {
              "pitch": 104,
              "velocity": 63,
              "position": 18.739583333333332,
              "duration": 0.23541666666666666
            },
            {
              "pitch": 48,
              "velocity": 40,
              "position": 18.770833333333332,
              "duration": 0.21458333333333332
            },
            {
              "pitch": 55,
              "velocity": 40,
              "position": 18.770833333333332,
              "duration": 0.225
            },
            {
              "pitch": 72,
              "velocity": 42,
              "position": 18.770833333333332,
              "duration": 0.23541666666666666
            },
            {
              "pitch": 79,
              "velocity": 42,
              "position": 18.75,
              "duration": 0.25625
            },
            {
              "pitch": 75,
              "velocity": 42,
              "position": 18.760416666666668,
              "duration": 0.24583333333333332
            },
            {
              "pitch": 111,
              "velocity": 103,
              "position": 18.989583333333332,
              "duration": 0.23541666666666666
            },
            {
              "pitch": 48,
              "velocity": 50,
              "position": 19,
              "duration": 0.48541666666666666
            },
            {
              "pitch": 55,
              "velocity": 50,
              "position": 19.010416666666668,
              "duration": 0.48541666666666666
            },
            {
              "pitch": 79,
              "velocity": 50,
              "position": 19.020833333333332,
              "duration": 0.48541666666666666
            },
            {
              "pitch": 72,
              "velocity": 50,
              "position": 19.020833333333332,
              "duration": 0.48541666666666666
            },
            {
              "pitch": 75,
              "velocity": 50,
              "position": 19.020833333333332,
              "duration": 0.48541666666666666
            },
            {
              "pitch": 105,
              "velocity": 83,
              "position": 19.489583333333332,
              "duration": 0.23541666666666666
            },
            {
              "pitch": 79,
              "velocity": 45,
              "position": 19.520833333333332,
              "duration": 0.21458333333333332
            },
            {
              "pitch": 75,
              "velocity": 45,
              "position": 19.520833333333332,
              "duration": 0.225
            },
            {
              "pitch": 48,
              "velocity": 45,
              "position": 19.5,
              "duration": 0.25625
            },
            {
              "pitch": 72,
              "velocity": 45,
              "position": 19.520833333333332,
              "duration": 0.23541666666666666
            },
            {
              "pitch": 55,
              "velocity": 45,
              "position": 19.510416666666668,
              "duration": 0.24583333333333332
            },
            {
              "pitch": 104,
              "velocity": 63,
              "position": 19.739583333333332,
              "duration": 0.23541666666666666
            },
            {
              "pitch": 72,
              "velocity": 32,
              "position": 19.770833333333332,
              "duration": 0.21458333333333332
            },
            {
              "pitch": 55,
              "velocity": 32,
              "position": 19.770833333333332,
              "duration": 0.21458333333333332
            },
            {
              "pitch": 48,
              "velocity": 32,
              "position": 19.770833333333332,
              "duration": 0.21458333333333332
            },
            {
              "pitch": 75,
              "velocity": 36,
              "position": 19.760416666666668,
              "duration": 0.225
            },
            {
              "pitch": 79,
              "velocity": 36,
              "position": 19.75,
              "duration": 0.23541666666666666
            },
            {
              "pitch": 109,
              "velocity": 103,
              "position": 20,
              "duration": 0.23541666666666666
            },
            {
              "pitch": 50,
              "velocity": 42,
              "position": 20,
              "duration": 0.48541666666666666
            },
            {
              "pitch": 60,
              "velocity": 36,
              "position": 20.010416666666668,
              "duration": 0.48541666666666666
            },
            {
              "pitch": 79,
              "velocity": 45,
              "position": 20.020833333333332,
              "duration": 0.48541666666666666
            },
            {
              "pitch": 72,
              "velocity": 45,
              "position": 20.020833333333332,
              "duration": 0.48541666666666666
            },
            {
              "pitch": 77,
              "velocity": 45,
              "position": 20.020833333333332,
              "duration": 0.48541666666666666
            },
            {
              "pitch": 105,
              "velocity": 97,
              "position": 20.489583333333332,
              "duration": 0.23541666666666666
            },
            {
              "pitch": 50,
              "velocity": 36,
              "position": 20.5,
              "duration": 0.48541666666666666
            },
            {
              "pitch": 60,
              "velocity": 32,
              "position": 20.510416666666668,
              "duration": 0.48541666666666666
            },
            {
              "pitch": 79,
              "velocity": 38,
              "position": 20.520833333333332,
              "duration": 0.48541666666666666
            },
            {
              "pitch": 72,
              "velocity": 33,
              "position": 20.520833333333332,
              "duration": 0.48541666666666666
            },
            {
              "pitch": 77,
              "velocity": 38,
              "position": 20.520833333333332,
              "duration": 0.48541666666666666
            },
            {
              "pitch": 111,
              "velocity": 103,
              "position": 20.989583333333332,
              "duration": 0.23541666666666666
            },
            {
              "pitch": 79,
              "velocity": 48,
              "position": 21.020833333333332,
              "duration": 0.7145833333333333
            },
            {
              "pitch": 77,
              "velocity": 48,
              "position": 21.020833333333332,
              "duration": 0.725
            },
            {
              "pitch": 50,
              "velocity": 44,
              "position": 21,
              "duration": 0.75625
            },
            {
              "pitch": 72,
              "velocity": 46,
              "position": 21.020833333333332,
              "duration": 0.7354166666666667
            },
            {
              "pitch": 60,
              "velocity": 41,
              "position": 21.010416666666668,
              "duration": 0.7458333333333333
            },
            {
              "pitch": 109,
              "velocity": 103,
              "position": 21.739583333333332,
              "duration": 0.23541666666666666
            },
            {
              "pitch": 79,
              "velocity": 52,
              "position": 21.75,
              "duration": 0.48541666666666666
            },
            {
              "pitch": 77,
              "velocity": 52,
              "position": 21.760416666666668,
              "duration": 0.48541666666666666
            },
            {
              "pitch": 72,
              "velocity": 50,
              "position": 21.770833333333332,
              "duration": 0.48541666666666666
            },
            {
              "pitch": 50,
              "velocity": 46,
              "position": 21.770833333333332,
              "duration": 0.48541666666666666
            },
            {
              "pitch": 60,
              "velocity": 50,
              "position": 21.770833333333332,
              "duration": 0.48541666666666666
            },
            {
              "pitch": 104,
              "velocity": 103,
              "position": 22.239583333333332,
              "duration": 0.23541666666666666
            },
            {
              "pitch": 50,
              "velocity": 38,
              "position": 22.270833333333332,
              "duration": 0.21458333333333332
            },
            {
              "pitch": 60,
              "velocity": 40,
              "position": 22.270833333333332,
              "duration": 0.225
            },
            {
              "pitch": 72,
              "velocity": 42,
              "position": 22.270833333333332,
              "duration": 0.23541666666666666
            },
            {
              "pitch": 79,
              "velocity": 44,
              "position": 22.25,
              "duration": 0.25625
            },
            {
              "pitch": 77,
              "velocity": 36,
              "position": 22.260416666666668,
              "duration": 0.24583333333333332
            },
            {
              "pitch": 105,
              "velocity": 83,
              "position": 22.489583333333332,
              "duration": 0.23541666666666666
            },
            {
              "pitch": 79,
              "velocity": 45,
              "position": 22.520833333333332,
              "duration": 0.21458333333333332
            },
            {
              "pitch": 77,
              "velocity": 42,
              "position": 22.520833333333332,
              "duration": 0.225
            },
            {
              "pitch": 50,
              "velocity": 42,
              "position": 22.5,
              "duration": 0.25625
            },
            {
              "pitch": 72,
              "velocity": 36,
              "position": 22.520833333333332,
              "duration": 0.23541666666666666
            },
            {
              "pitch": 60,
              "velocity": 45,
              "position": 22.510416666666668,
              "duration": 0.24583333333333332
            },
            {
              "pitch": 104,
              "velocity": 63,
              "position": 22.739583333333332,
              "duration": 0.23541666666666666
            },
            {
              "pitch": 50,
              "velocity": 40,
              "position": 22.770833333333332,
              "duration": 0.21458333333333332
            },
            {
              "pitch": 60,
              "velocity": 40,
              "position": 22.770833333333332,
              "duration": 0.225
            },
            {
              "pitch": 72,
              "velocity": 36,
              "position": 22.770833333333332,
              "duration": 0.23541666666666666
            },
            {
              "pitch": 79,
              "velocity": 34,
              "position": 22.75,
              "duration": 0.25625
            },
            {
              "pitch": 77,
              "velocity": 32,
              "position": 22.760416666666668,
              "duration": 0.24583333333333332
            },
            {
              "pitch": 111,
              "velocity": 103,
              "position": 22.989583333333332,
              "duration": 0.23541666666666666
            },
            {
              "pitch": 50,
              "velocity": 50,
              "position": 23,
              "duration": 0.48541666666666666
            },
            {
              "pitch": 60,
              "velocity": 50,
              "position": 23.010416666666668,
              "duration": 0.48541666666666666
            },
            {
              "pitch": 79,
              "velocity": 50,
              "position": 23.020833333333332,
              "duration": 0.48541666666666666
            },
            {
              "pitch": 72,
              "velocity": 50,
              "position": 23.020833333333332,
              "duration": 0.48541666666666666
            },
            {
              "pitch": 77,
              "velocity": 50,
              "position": 23.020833333333332,
              "duration": 0.48541666666666666
            },
            {
              "pitch": 105,
              "velocity": 83,
              "position": 23.489583333333332,
              "duration": 0.23541666666666666
            },
            {
              "pitch": 79,
              "velocity": 45,
              "position": 23.520833333333332,
              "duration": 0.21458333333333332
            },
            {
              "pitch": 77,
              "velocity": 45,
              "position": 23.520833333333332,
              "duration": 0.225
            },
            {
              "pitch": 50,
              "velocity": 45,
              "position": 23.5,
              "duration": 0.25625
            },
            {
              "pitch": 72,
              "velocity": 45,
              "position": 23.520833333333332,
              "duration": 0.23541666666666666
            },
            {
              "pitch": 60,
              "velocity": 45,
              "position": 23.510416666666668,
              "duration": 0.24583333333333332
            },
            {
              "pitch": 104,
              "velocity": 63,
              "position": 23.739583333333332,
              "duration": 0.23541666666666666
            },
            {
              "pitch": 72,
              "velocity": 32,
              "position": 23.770833333333332,
              "duration": 0.225
            },
            {
              "pitch": 60,
              "velocity": 32,
              "position": 23.770833333333332,
              "duration": 0.225
            },
            {
              "pitch": 50,
              "velocity": 32,
              "position": 23.770833333333332,
              "duration": 0.225
            },
            {
              "pitch": 77,
              "velocity": 36,
              "position": 23.760416666666668,
              "duration": 0.23541666666666666
            },
            {
              "pitch": 79,
              "velocity": 36,
              "position": 23.75,
              "duration": 0.24583333333333332
            },
            {
              "pitch": 109,
              "velocity": 103,
              "position": 24,
              "duration": 0.23541666666666666
            },
            {
              "pitch": 51,
              "velocity": 42,
              "position": 24,
              "duration": 0.48541666666666666
            },
            {
              "pitch": 60,
              "velocity": 36,
              "position": 24.010416666666668,
              "duration": 0.48541666666666666
            },
            {
              "pitch": 79,
              "velocity": 45,
              "position": 24.020833333333332,
              "duration": 0.48541666666666666
            },
            {
              "pitch": 72,
              "velocity": 45,
              "position": 24.020833333333332,
              "duration": 0.48541666666666666
            },
            {
              "pitch": 75,
              "velocity": 45,
              "position": 24.020833333333332,
              "duration": 0.48541666666666666
            },
            {
              "pitch": 105,
              "velocity": 97,
              "position": 24.489583333333332,
              "duration": 0.23541666666666666
            },
            {
              "pitch": 51,
              "velocity": 36,
              "position": 24.5,
              "duration": 0.48541666666666666
            },
            {
              "pitch": 60,
              "velocity": 32,
              "position": 24.510416666666668,
              "duration": 0.48541666666666666
            },
            {
              "pitch": 79,
              "velocity": 38,
              "position": 24.520833333333332,
              "duration": 0.48541666666666666
            },
            {
              "pitch": 72,
              "velocity": 33,
              "position": 24.520833333333332,
              "duration": 0.48541666666666666
            },
            {
              "pitch": 75,
              "velocity": 38,
              "position": 24.520833333333332,
              "duration": 0.48541666666666666
            },
            {
              "pitch": 111,
              "velocity": 103,
              "position": 24.989583333333332,
              "duration": 0.23541666666666666
            },
            {
              "pitch": 79,
              "velocity": 48,
              "position": 25.020833333333332,
              "duration": 0.7145833333333333
            },
            {
              "pitch": 75,
              "velocity": 48,
              "position": 25.020833333333332,
              "duration": 0.725
            },
            {
              "pitch": 51,
              "velocity": 44,
              "position": 25,
              "duration": 0.75625
            },
            {
              "pitch": 72,
              "velocity": 46,
              "position": 25.020833333333332,
              "duration": 0.7354166666666667
            },
            {
              "pitch": 60,
              "velocity": 41,
              "position": 25.010416666666668,
              "duration": 0.7458333333333333
            },
            {
              "pitch": 109,
              "velocity": 103,
              "position": 25.739583333333332,
              "duration": 0.23541666666666666
            },
            {
              "pitch": 79,
              "velocity": 52,
              "position": 25.75,
              "duration": 0.48541666666666666
            },
            {
              "pitch": 75,
              "velocity": 52,
              "position": 25.760416666666668,
              "duration": 0.48541666666666666
            },
            {
              "pitch": 72,
              "velocity": 50,
              "position": 25.770833333333332,
              "duration": 0.48541666666666666
            },
            {
              "pitch": 51,
              "velocity": 46,
              "position": 25.770833333333332,
              "duration": 0.48541666666666666
            },
            {
              "pitch": 60,
              "velocity": 50,
              "position": 25.770833333333332,
              "duration": 0.48541666666666666
            },
            {
              "pitch": 104,
              "velocity": 103,
              "position": 26.239583333333332,
              "duration": 0.23541666666666666
            },
            {
              "pitch": 51,
              "velocity": 38,
              "position": 26.270833333333332,
              "duration": 0.21458333333333332
            },
            {
              "pitch": 60,
              "velocity": 40,
              "position": 26.270833333333332,
              "duration": 0.225
            },
            {
              "pitch": 72,
              "velocity": 42,
              "position": 26.270833333333332,
              "duration": 0.23541666666666666
            },
            {
              "pitch": 79,
              "velocity": 44,
              "position": 26.25,
              "duration": 0.25625
            },
            {
              "pitch": 75,
              "velocity": 36,
              "position": 26.260416666666668,
              "duration": 0.24583333333333332
            },
            {
              "pitch": 105,
              "velocity": 83,
              "position": 26.489583333333332,
              "duration": 0.23541666666666666
            },
            {
              "pitch": 79,
              "velocity": 45,
              "position": 26.520833333333332,
              "duration": 0.21458333333333332
            },
            {
              "pitch": 75,
              "velocity": 42,
              "position": 26.520833333333332,
              "duration": 0.225
            },
            {
              "pitch": 51,
              "velocity": 42,
              "position": 26.5,
              "duration": 0.25625
            },
            {
              "pitch": 72,
              "velocity": 36,
              "position": 26.520833333333332,
              "duration": 0.23541666666666666
            },
            {
              "pitch": 60,
              "velocity": 45,
              "position": 26.510416666666668,
              "duration": 0.24583333333333332
            },
            {
              "pitch": 104,
              "velocity": 63,
              "position": 26.739583333333332,
              "duration": 0.23541666666666666
            },
            {
              "pitch": 51,
              "velocity": 40,
              "position": 26.770833333333332,
              "duration": 0.21458333333333332
            },
            {
              "pitch": 60,
              "velocity": 40,
              "position": 26.770833333333332,
              "duration": 0.225
            },
            {
              "pitch": 72,
              "velocity": 36,
              "position": 26.770833333333332,
              "duration": 0.23541666666666666
            },
            {
              "pitch": 79,
              "velocity": 34,
              "position": 26.75,
              "duration": 0.25625
            },
            {
              "pitch": 75,
              "velocity": 32,
              "position": 26.760416666666668,
              "duration": 0.24583333333333332
            },
            {
              "pitch": 111,
              "velocity": 103,
              "position": 26.989583333333332,
              "duration": 0.23541666666666666
            },
            {
              "pitch": 51,
              "velocity": 50,
              "position": 27,
              "duration": 0.48541666666666666
            },
            {
              "pitch": 60,
              "velocity": 50,
              "position": 27.010416666666668,
              "duration": 0.48541666666666666
            },
            {
              "pitch": 79,
              "velocity": 50,
              "position": 27.020833333333332,
              "duration": 0.48541666666666666
            },
            {
              "pitch": 72,
              "velocity": 50,
              "position": 27.020833333333332,
              "duration": 0.48541666666666666
            },
            {
              "pitch": 75,
              "velocity": 50,
              "position": 27.020833333333332,
              "duration": 0.48541666666666666
            },
            {
              "pitch": 105,
              "velocity": 83,
              "position": 27.489583333333332,
              "duration": 0.23541666666666666
            },
            {
              "pitch": 79,
              "velocity": 45,
              "position": 27.520833333333332,
              "duration": 0.21458333333333332
            },
            {
              "pitch": 75,
              "velocity": 45,
              "position": 27.520833333333332,
              "duration": 0.225
            },
            {
              "pitch": 51,
              "velocity": 45,
              "position": 27.5,
              "duration": 0.25625
            },
            {
              "pitch": 72,
              "velocity": 45,
              "position": 27.520833333333332,
              "duration": 0.23541666666666666
            },
            {
              "pitch": 60,
              "velocity": 45,
              "position": 27.510416666666668,
              "duration": 0.24583333333333332
            },
            {
              "pitch": 104,
              "velocity": 63,
              "position": 27.739583333333332,
              "duration": 0.23541666666666666
            },
            {
              "pitch": 72,
              "velocity": 32,
              "position": 27.770833333333332,
              "duration": 0.225
            },
            {
              "pitch": 60,
              "velocity": 32,
              "position": 27.770833333333332,
              "duration": 0.225
            },
            {
              "pitch": 51,
              "velocity": 32,
              "position": 27.770833333333332,
              "duration": 0.225
            },
            {
              "pitch": 75,
              "velocity": 36,
              "position": 27.760416666666668,
              "duration": 0.23541666666666666
            },
            {
              "pitch": 79,
              "velocity": 36,
              "position": 27.75,
              "duration": 0.24583333333333332
            },
            {
              "pitch": 109,
              "velocity": 103,
              "position": 28,
              "duration": 0.23541666666666666
            },
            {
              "pitch": 55,
              "velocity": 42,
              "position": 28,
              "duration": 0.48541666666666666
            },
            {
              "pitch": 60,
              "velocity": 36,
              "position": 28.010416666666668,
              "duration": 0.48541666666666666
            },
            {
              "pitch": 79,
              "velocity": 45,
              "position": 28.020833333333332,
              "duration": 0.48541666666666666
            },
            {
              "pitch": 72,
              "velocity": 45,
              "position": 28.020833333333332,
              "duration": 0.48541666666666666
            },
            {
              "pitch": 77,
              "velocity": 45,
              "position": 28.020833333333332,
              "duration": 0.48541666666666666
            },
            {
              "pitch": 105,
              "velocity": 97,
              "position": 28.489583333333332,
              "duration": 0.23541666666666666
            },
            {
              "pitch": 55,
              "velocity": 36,
              "position": 28.5,
              "duration": 0.48541666666666666
            },
            {
              "pitch": 60,
              "velocity": 32,
              "position": 28.510416666666668,
              "duration": 0.48541666666666666
            },
            {
              "pitch": 79,
              "velocity": 38,
              "position": 28.520833333333332,
              "duration": 0.48541666666666666
            },
            {
              "pitch": 72,
              "velocity": 33,
              "position": 28.520833333333332,
              "duration": 0.48541666666666666
            },
            {
              "pitch": 77,
              "velocity": 38,
              "position": 28.520833333333332,
              "duration": 0.48541666666666666
            },
            {
              "pitch": 111,
              "velocity": 103,
              "position": 28.989583333333332,
              "duration": 0.23541666666666666
            },
            {
              "pitch": 79,
              "velocity": 48,
              "position": 29.020833333333332,
              "duration": 0.7145833333333333
            },
            {
              "pitch": 77,
              "velocity": 48,
              "position": 29.020833333333332,
              "duration": 0.725
            },
            {
              "pitch": 55,
              "velocity": 44,
              "position": 29,
              "duration": 0.75625
            },
            {
              "pitch": 72,
              "velocity": 46,
              "position": 29.020833333333332,
              "duration": 0.7354166666666667
            },
            {
              "pitch": 60,
              "velocity": 41,
              "position": 29.010416666666668,
              "duration": 0.7458333333333333
            },
            {
              "pitch": 109,
              "velocity": 103,
              "position": 29.739583333333332,
              "duration": 0.23541666666666666
            },
            {
              "pitch": 79,
              "velocity": 52,
              "position": 29.75,
              "duration": 0.48541666666666666
            },
            {
              "pitch": 77,
              "velocity": 52,
              "position": 29.760416666666668,
              "duration": 0.48541666666666666
            },
            {
              "pitch": 72,
              "velocity": 50,
              "position": 29.770833333333332,
              "duration": 0.48541666666666666
            },
            {
              "pitch": 55,
              "velocity": 46,
              "position": 29.770833333333332,
              "duration": 0.48541666666666666
            },
            {
              "pitch": 60,
              "velocity": 50,
              "position": 29.770833333333332,
              "duration": 0.48541666666666666
            },
            {
              "pitch": 104,
              "velocity": 103,
              "position": 30.239583333333332,
              "duration": 0.23541666666666666
            },
            {
              "pitch": 55,
              "velocity": 38,
              "position": 30.270833333333332,
              "duration": 0.21458333333333332
            },
            {
              "pitch": 60,
              "velocity": 40,
              "position": 30.270833333333332,
              "duration": 0.225
            },
            {
              "pitch": 72,
              "velocity": 42,
              "position": 30.270833333333332,
              "duration": 0.23541666666666666
            },
            {
              "pitch": 79,
              "velocity": 44,
              "position": 30.25,
              "duration": 0.25625
            },
            {
              "pitch": 77,
              "velocity": 36,
              "position": 30.260416666666668,
              "duration": 0.24583333333333332
            },
            {
              "pitch": 105,
              "velocity": 83,
              "position": 30.489583333333332,
              "duration": 0.23541666666666666
            },
            {
              "pitch": 79,
              "velocity": 45,
              "position": 30.520833333333332,
              "duration": 0.21458333333333332
            },
            {
              "pitch": 77,
              "velocity": 42,
              "position": 30.520833333333332,
              "duration": 0.225
            },
            {
              "pitch": 55,
              "velocity": 42,
              "position": 30.5,
              "duration": 0.25625
            },
            {
              "pitch": 72,
              "velocity": 36,
              "position": 30.520833333333332,
              "duration": 0.23541666666666666
            },
            {
              "pitch": 60,
              "velocity": 45,
              "position": 30.510416666666668,
              "duration": 0.24583333333333332
            },
            {
              "pitch": 104,
              "velocity": 63,
              "position": 30.739583333333332,
              "duration": 0.23541666666666666
            },
            {
              "pitch": 55,
              "velocity": 40,
              "position": 30.770833333333332,
              "duration": 0.21458333333333332
            },
            {
              "pitch": 60,
              "velocity": 40,
              "position": 30.770833333333332,
              "duration": 0.225
            },
            {
              "pitch": 72,
              "velocity": 36,
              "position": 30.770833333333332,
              "duration": 0.23541666666666666
            },
            {
              "pitch": 79,
              "velocity": 34,
              "position": 30.75,
              "duration": 0.25625
            },
            {
              "pitch": 77,
              "velocity": 32,
              "position": 30.760416666666668,
              "duration": 0.24583333333333332
            },
            {
              "pitch": 111,
              "velocity": 103,
              "position": 30.989583333333332,
              "duration": 0.23541666666666666
            },
            {
              "pitch": 55,
              "velocity": 50,
              "position": 31,
              "duration": 0.48541666666666666
            },
            {
              "pitch": 60,
              "velocity": 50,
              "position": 31.010416666666668,
              "duration": 0.48541666666666666
            },
            {
              "pitch": 79,
              "velocity": 50,
              "position": 31.020833333333332,
              "duration": 0.48541666666666666
            },
            {
              "pitch": 72,
              "velocity": 50,
              "position": 31.020833333333332,
              "duration": 0.48541666666666666
            },
            {
              "pitch": 77,
              "velocity": 50,
              "position": 31.020833333333332,
              "duration": 0.48541666666666666
            },
            {
              "pitch": 105,
              "velocity": 83,
              "position": 31.489583333333332,
              "duration": 0.23541666666666666
            },
            {
              "pitch": 79,
              "velocity": 45,
              "position": 31.520833333333332,
              "duration": 0.21458333333333332
            },
            {
              "pitch": 77,
              "velocity": 45,
              "position": 31.520833333333332,
              "duration": 0.225
            },
            {
              "pitch": 55,
              "velocity": 45,
              "position": 31.5,
              "duration": 0.25625
            },
            {
              "pitch": 72,
              "velocity": 45,
              "position": 31.520833333333332,
              "duration": 0.23541666666666666
            },
            {
              "pitch": 60,
              "velocity": 45,
              "position": 31.510416666666668,
              "duration": 0.24583333333333332
            },
            {
              "pitch": 104,
              "velocity": 63,
              "position": 31.739583333333332,
              "duration": 0.23541666666666666
            },
            {
              "pitch": 72,
              "velocity": 32,
              "position": 31.770833333333332,
              "duration": 0.225
            },
            {
              "pitch": 60,
              "velocity": 32,
              "position": 31.770833333333332,
              "duration": 0.225
            },
            {
              "pitch": 55,
              "velocity": 32,
              "position": 31.770833333333332,
              "duration": 0.225
            },
            {
              "pitch": 77,
              "velocity": 36,
              "position": 31.760416666666668,
              "duration": 0.23541666666666666
            },
            {
              "pitch": 79,
              "velocity": 36,
              "position": 31.75,
              "duration": 0.24583333333333332
            },
            {
              "pitch": 98,
              "velocity": 103,
              "position": 32,
              "duration": 0.23541666666666666
            },
            {
              "pitch": 48,
              "velocity": 40,
              "position": 32,
              "duration": 6.985416666666667
            },
            {
              "pitch": 72,
              "velocity": 50,
              "position": 32.020833333333336,
              "duration": 6.964583333333334
            },
            {
              "pitch": 75,
              "velocity": 50,
              "position": 32.03125,
              "duration": 6.964583333333334
            },
            {
              "pitch": 55,
              "velocity": 36,
              "position": 32.010416666666664,
              "duration": 6.985416666666667
            },
            {
              "pitch": 79,
              "velocity": 50,
              "position": 32.041666666666664,
              "duration": 6.964583333333334
            }
          ]
        },
        "3": {
          "ctab": {
            "srcChannel": 3,
            "name": "HiGt m",
            "accType": "CHORD2",
            "editable": false,
            "mutedNotes": [],
            "mutedChords": [
              "1+2+5",
              "sus4",
              "1+5",
              "1+8",
              "7aug",
              "Maj7aug",
              "7(#9)",
              "7(b13)",
              "7(b9)",
              "7(13)",
              "7#11",
              "7(9)",
              "7b5",
              "7sus4",
              "7th",
              "aug",
              "Maj6(9)",
              "Maj7(9)",
              "Maj(9)",
              "Maj7#11",
              "Maj7",
              "Maj6",
              "Maj"
            ],
            "autoStart": false,
            "sourceChordNote": 0,
            "sourceChordType": "min",
            "ctb2Low": null,
            "ctb2Main": {
              "ntr": "ROOT_TRANSPOSITION",
              "ntt": "BYPASS",
              "bassOn": false,
              "chordRootUpperLimit": 8,
              "noteLowLimit": 40,
              "noteHighLimit": 65,
              "rtr": "PITCH_SHIFT"
            },
            "ctb2High": null
          },
          "notes": [
            {
              "pitch": 96,
              "velocity": 60,
              "position": 1.0104166666666667,
              "duration": 0.23541666666666666
            },
            {
              "pitch": 67,
              "velocity": 60,
              "position": 1.03125,
              "duration": 0.7041666666666667
            },
            {
              "pitch": 63,
              "velocity": 60,
              "position": 1.0208333333333333,
              "duration": 0.725
            },
            {
              "pitch": 60,
              "velocity": 60,
              "position": 1.0104166666666667,
              "duration": 0.7458333333333333
            },
            {
              "pitch": 97,
              "velocity": 60,
              "position": 1.75,
              "duration": 0.23541666666666666
            },
            {
              "pitch": 60,
              "velocity": 60,
              "position": 1.7708333333333333,
              "duration": 0.21458333333333332
            },
            {
              "pitch": 63,
              "velocity": 60,
              "position": 1.7604166666666667,
              "duration": 0.225
            },
            {
              "pitch": 67,
              "velocity": 60,
              "position": 1.75,
              "duration": 0.23541666666666666
            },
            {
              "pitch": 98,
              "velocity": 60,
              "position": 3.0104166666666665,
              "duration": 0.23541666666666666
            },
            {
              "pitch": 67,
              "velocity": 60,
              "position": 3.03125,
              "duration": 0.45416666666666666
            },
            {
              "pitch": 63,
              "velocity": 60,
              "position": 3.0208333333333335,
              "duration": 0.46458333333333335
            },
            {
              "pitch": 60,
              "velocity": 60,
              "position": 3.0104166666666665,
              "duration": 0.475
            },
            {
              "pitch": 96,
              "velocity": 60,
              "position": 5.010416666666667,
              "duration": 0.23541666666666666
            },
            {
              "pitch": 67,
              "velocity": 60,
              "position": 5.03125,
              "duration": 0.7041666666666667
            },
            {
              "pitch": 65,
              "velocity": 60,
              "position": 5.020833333333333,
              "duration": 0.725
            },
            {
              "pitch": 60,
              "velocity": 60,
              "position": 5.010416666666667,
              "duration": 0.7458333333333333
            },
            {
              "pitch": 97,
              "velocity": 60,
              "position": 5.75,
              "duration": 0.23541666666666666
            },
            {
              "pitch": 60,
              "velocity": 60,
              "position": 5.770833333333333,
              "duration": 0.21458333333333332
            },
            {
              "pitch": 65,
              "velocity": 60,
              "position": 5.760416666666667,
              "duration": 0.225
            },
            {
              "pitch": 67,
              "velocity": 60,
              "position": 5.75,
              "duration": 0.23541666666666666
            },
            {
              "pitch": 98,
              "velocity": 60,
              "position": 7.010416666666667,
              "duration": 0.23541666666666666
            },
            {
              "pitch": 60,
              "velocity": 60,
              "position": 7.010416666666667,
              "duration": 0.475
            },
            {
              "pitch": 65,
              "velocity": 60,
              "position": 7.020833333333333,
              "duration": 0.475
            },
            {
              "pitch": 67,
              "velocity": 60,
              "position": 7.03125,
              "duration": 0.46458333333333335
            },
            {
              "pitch": 60,
              "velocity": 58,
              "position": 7.5,
              "duration": 0.23541666666666666
            },
            {
              "pitch": 67,
              "velocity": 58,
              "position": 7.510416666666667,
              "duration": 0.225
            },
            {
              "pitch": 65,
              "velocity": 58,
              "position": 7.510416666666667,
              "duration": 0.225
            },
            {
              "pitch": 96,
              "velocity": 60,
              "position": 7.5,
              "duration": 0.23541666666666666
            },
            {
              "pitch": 60,
              "velocity": 50,
              "position": 7.75,
              "duration": 0.23541666666666666
            },
            {
              "pitch": 97,
              "velocity": 60,
              "position": 7.75,
              "duration": 0.23541666666666666
            },
            {
              "pitch": 67,
              "velocity": 50,
              "position": 7.75,
              "duration": 0.23541666666666666
            },
            {
              "pitch": 65,
              "velocity": 50,
              "position": 7.75,
              "duration": 0.23541666666666666
            },
            {
              "pitch": 96,
              "velocity": 60,
              "position": 9.010416666666666,
              "duration": 0.23541666666666666
            },
            {
              "pitch": 67,
              "velocity": 60,
              "position": 9.03125,
              "duration": 0.7041666666666667
            },
            {
              "pitch": 63,
              "velocity": 60,
              "position": 9.020833333333334,
              "duration": 0.725
            },
            {
              "pitch": 60,
              "velocity": 60,
              "position": 9.010416666666666,
              "duration": 0.7458333333333333
            },
            {
              "pitch": 97,
              "velocity": 60,
              "position": 9.75,
              "duration": 0.23541666666666666
            },
            {
              "pitch": 60,
              "velocity": 60,
              "position": 9.770833333333334,
              "duration": 0.21458333333333332
            },
            {
              "pitch": 63,
              "velocity": 60,
              "position": 9.760416666666666,
              "duration": 0.225
            },
            {
              "pitch": 67,
              "velocity": 60,
              "position": 9.75,
              "duration": 0.23541666666666666
            },
            {
              "pitch": 98,
              "velocity": 60,
              "position": 11.010416666666666,
              "duration": 0.23541666666666666
            },
            {
              "pitch": 67,
              "velocity": 60,
              "position": 11.03125,
              "duration": 0.45416666666666666
            },
            {
              "pitch": 63,
              "velocity": 60,
              "position": 11.020833333333334,
              "duration": 0.46458333333333335
            },
            {
              "pitch": 60,
              "velocity": 60,
              "position": 11.010416666666666,
              "duration": 0.475
            },
            {
              "pitch": 60,
              "velocity": 56,
              "position": 12.510416666666666,
              "duration": 0.48541666666666666
            },
            {
              "pitch": 96,
              "velocity": 60,
              "position": 13.010416666666666,
              "duration": 0.23541666666666666
            },
            {
              "pitch": 67,
              "velocity": 60,
              "position": 13.03125,
              "duration": 0.7041666666666667
            },
            {
              "pitch": 65,
              "velocity": 60,
              "position": 13.020833333333334,
              "duration": 0.725
            },
            {
              "pitch": 60,
              "velocity": 60,
              "position": 13.010416666666666,
              "duration": 0.7458333333333333
            },
            {
              "pitch": 97,
              "velocity": 60,
              "position": 13.75,
              "duration": 0.23541666666666666
            },
            {
              "pitch": 60,
              "velocity": 60,
              "position": 13.770833333333334,
              "duration": 0.21458333333333332
            },
            {
              "pitch": 65,
              "velocity": 60,
              "position": 13.760416666666666,
              "duration": 0.225
            },
            {
              "pitch": 67,
              "velocity": 60,
              "position": 13.75,
              "duration": 0.23541666666666666
            },
            {
              "pitch": 65,
              "velocity": 60,
              "position": 15.020833333333334,
              "duration": 0.21458333333333332
            },
            {
              "pitch": 67,
              "velocity": 60,
              "position": 15.03125,
              "duration": 0.20416666666666666
            },
            {
              "pitch": 60,
              "velocity": 60,
              "position": 15.010416666666666,
              "duration": 0.23541666666666666
            },
            {
              "pitch": 98,
              "velocity": 60,
              "position": 15.010416666666666,
              "duration": 0.23541666666666666
            },
            {
              "pitch": 65,
              "velocity": 51,
              "position": 15.25,
              "duration": 0.23541666666666666
            },
            {
              "pitch": 60,
              "velocity": 51,
              "position": 15.260416666666666,
              "duration": 0.225
            },
            {
              "pitch": 99,
              "velocity": 60,
              "position": 15.25,
              "duration": 0.23541666666666666
            },
            {
              "pitch": 67,
              "velocity": 51,
              "position": 15.25,
              "duration": 0.23541666666666666
            },
            {
              "pitch": 96,
              "velocity": 60,
              "position": 17.010416666666668,
              "duration": 0.23541666666666666
            },
            {
              "pitch": 67,
              "velocity": 60,
              "position": 17.03125,
              "duration": 0.7041666666666667
            },
            {
              "pitch": 63,
              "velocity": 60,
              "position": 17.020833333333332,
              "duration": 0.725
            },
            {
              "pitch": 60,
              "velocity": 60,
              "position": 17.010416666666668,
              "duration": 0.7458333333333333
            },
            {
              "pitch": 97,
              "velocity": 60,
              "position": 17.75,
              "duration": 0.23541666666666666
            },
            {
              "pitch": 60,
              "velocity": 60,
              "position": 17.770833333333332,
              "duration": 0.21458333333333332
            },
            {
              "pitch": 63,
              "velocity": 60,
              "position": 17.760416666666668,
              "duration": 0.225
            },
            {
              "pitch": 67,
              "velocity": 60,
              "position": 17.75,
              "duration": 0.23541666666666666
            },
            {
              "pitch": 98,
              "velocity": 60,
              "position": 19.010416666666668,
              "duration": 0.23541666666666666
            },
            {
              "pitch": 67,
              "velocity": 60,
              "position": 19.03125,
              "duration": 0.45416666666666666
            },
            {
              "pitch": 63,
              "velocity": 60,
              "position": 19.020833333333332,
              "duration": 0.46458333333333335
            },
            {
              "pitch": 60,
              "velocity": 60,
              "position": 19.010416666666668,
              "duration": 0.475
            },
            {
              "pitch": 96,
              "velocity": 60,
              "position": 21.010416666666668,
              "duration": 0.23541666666666666
            },
            {
              "pitch": 67,
              "velocity": 60,
              "position": 21.03125,
              "duration": 0.7041666666666667
            },
            {
              "pitch": 65,
              "velocity": 60,
              "position": 21.020833333333332,
              "duration": 0.725
            },
            {
              "pitch": 60,
              "velocity": 60,
              "position": 21.010416666666668,
              "duration": 0.7458333333333333
            },
            {
              "pitch": 97,
              "velocity": 60,
              "position": 21.75,
              "duration": 0.23541666666666666
            },
            {
              "pitch": 60,
              "velocity": 60,
              "position": 21.770833333333332,
              "duration": 0.21458333333333332
            },
            {
              "pitch": 65,
              "velocity": 60,
              "position": 21.760416666666668,
              "duration": 0.225
            },
            {
              "pitch": 67,
              "velocity": 60,
              "position": 21.75,
              "duration": 0.23541666666666666
            },
            {
              "pitch": 98,
              "velocity": 60,
              "position": 23.010416666666668,
              "duration": 0.23541666666666666
            },
            {
              "pitch": 60,
              "velocity": 60,
              "position": 23.010416666666668,
              "duration": 0.475
            },
            {
              "pitch": 65,
              "velocity": 60,
              "position": 23.020833333333332,
              "duration": 0.475
            },
            {
              "pitch": 67,
              "velocity": 60,
              "position": 23.03125,
              "duration": 0.46458333333333335
            },
            {
              "pitch": 60,
              "velocity": 58,
              "position": 23.5,
              "duration": 0.23541666666666666
            },
            {
              "pitch": 67,
              "velocity": 58,
              "position": 23.510416666666668,
              "duration": 0.225
            },
            {
              "pitch": 65,
              "velocity": 58,
              "position": 23.510416666666668,
              "duration": 0.225
            },
            {
              "pitch": 96,
              "velocity": 60,
              "position": 23.5,
              "duration": 0.23541666666666666
            },
            {
              "pitch": 60,
              "velocity": 49,
              "position": 23.75,
              "duration": 0.23541666666666666
            },
            {
              "pitch": 97,
              "velocity": 60,
              "position": 23.75,
              "duration": 0.23541666666666666
            },
            {
              "pitch": 67,
              "velocity": 49,
              "position": 23.75,
              "duration": 0.23541666666666666
            },
            {
              "pitch": 65,
              "velocity": 49,
              "position": 23.75,
              "duration": 0.23541666666666666
            },
            {
              "pitch": 96,
              "velocity": 60,
              "position": 25.010416666666668,
              "duration": 0.23541666666666666
            },
            {
              "pitch": 67,
              "velocity": 60,
              "position": 25.03125,
              "duration": 0.7041666666666667
            },
            {
              "pitch": 63,
              "velocity": 60,
              "position": 25.020833333333332,
              "duration": 0.725
            },
            {
              "pitch": 60,
              "velocity": 60,
              "position": 25.010416666666668,
              "duration": 0.7458333333333333
            },
            {
              "pitch": 97,
              "velocity": 60,
              "position": 25.75,
              "duration": 0.23541666666666666
            },
            {
              "pitch": 60,
              "velocity": 60,
              "position": 25.770833333333332,
              "duration": 0.21458333333333332
            },
            {
              "pitch": 63,
              "velocity": 60,
              "position": 25.760416666666668,
              "duration": 0.225
            },
            {
              "pitch": 67,
              "velocity": 60,
              "position": 25.75,
              "duration": 0.23541666666666666
            },
            {
              "pitch": 98,
              "velocity": 60,
              "position": 27.010416666666668,
              "duration": 0.23541666666666666
            },
            {
              "pitch": 67,
              "velocity": 60,
              "position": 27.03125,
              "duration": 0.45416666666666666
            },
            {
              "pitch": 63,
              "velocity": 60,
              "position": 27.020833333333332,
              "duration": 0.46458333333333335
            },
            {
              "pitch": 60,
              "velocity": 60,
              "position": 27.010416666666668,
              "duration": 0.475
            },
            {
              "pitch": 60,
              "velocity": 56,
              "position": 28.510416666666668,
              "duration": 0.48541666666666666
            },
            {
              "pitch": 96,
              "velocity": 60,
              "position": 29.010416666666668,
              "duration": 0.23541666666666666
            },
            {
              "pitch": 67,
              "velocity": 60,
              "position": 29.03125,
              "duration": 0.7041666666666667
            },
            {
              "pitch": 65,
              "velocity": 60,
              "position": 29.020833333333332,
              "duration": 0.725
            },
            {
              "pitch": 60,
              "velocity": 60,
              "position": 29.010416666666668,
              "duration": 0.7458333333333333
            },
            {
              "pitch": 97,
              "velocity": 60,
              "position": 29.75,
              "duration": 0.23541666666666666
            },
            {
              "pitch": 60,
              "velocity": 60,
              "position": 29.770833333333332,
              "duration": 0.21458333333333332
            },
            {
              "pitch": 65,
              "velocity": 60,
              "position": 29.760416666666668,
              "duration": 0.225
            },
            {
              "pitch": 67,
              "velocity": 60,
              "position": 29.75,
              "duration": 0.23541666666666666
            },
            {
              "pitch": 65,
              "velocity": 60,
              "position": 31.020833333333332,
              "duration": 0.21458333333333332
            },
            {
              "pitch": 67,
              "velocity": 60,
              "position": 31.03125,
              "duration": 0.20416666666666666
            },
            {
              "pitch": 60,
              "velocity": 60,
              "position": 31.010416666666668,
              "duration": 0.23541666666666666
            },
            {
              "pitch": 98,
              "velocity": 60,
              "position": 31.010416666666668,
              "duration": 0.23541666666666666
            },
            {
              "pitch": 65,
              "velocity": 48,
              "position": 31.25,
              "duration": 0.23541666666666666
            },
            {
              "pitch": 60,
              "velocity": 48,
              "position": 31.260416666666668,
              "duration": 0.225
            },
            {
              "pitch": 99,
              "velocity": 60,
              "position": 31.25,
              "duration": 0.23541666666666666
            },
            {
              "pitch": 67,
              "velocity": 48,
              "position": 31.25,
              "duration": 0.23541666666666666
            },
            {
              "pitch": 96,
              "velocity": 60,
              "position": 32.010416666666664,
              "duration": 0.23541666666666666
            },
            {
              "pitch": 67,
              "velocity": 60,
              "position": 32.03125,
              "duration": 6.954166666666667
            },
            {
              "pitch": 63,
              "velocity": 60,
              "position": 32.020833333333336,
              "duration": 6.964583333333334
            },
            {
              "pitch": 60,
              "velocity": 60,
              "position": 32.010416666666664,
              "duration": 6.975
            }
          ]
        },
        "4": {
          "ctab": {
            "srcChannel": 4,
            "name": "Organ m",
            "accType": "PAD",
            "editable": false,
            "mutedNotes": [],
            "mutedChords": [
              "1+2+5",
              "sus4",
              "1+5",
              "1+8",
              "7aug",
              "Maj7aug",
              "7(#9)",
              "7(b13)",
              "7(b9)",
              "7(13)",
              "7#11",
              "7(9)",
              "7b5",
              "7sus4",
              "7th",
              "aug",
              "Maj6(9)",
              "Maj7(9)",
              "Maj(9)",
              "Maj7#11",
              "Maj7",
              "Maj6",
              "Maj"
            ],
            "autoStart": false,
            "sourceChordNote": 0,
            "sourceChordType": "min",
            "ctb2Low": null,
            "ctb2Main": {
              "ntr": "ROOT_TRANSPOSITION",
              "ntt": "BYPASS",
              "bassOn": false,
              "chordRootUpperLimit": 6,
              "noteLowLimit": 0,
              "noteHighLimit": 127,
              "rtr": "PITCH_SHIFT"
            },
            "ctb2High": null
          },
          "notes": [
            {
              "pitch": 67,
              "velocity": 63,
              "position": 1,
              "duration": 1.4208333333333334
            },
            {
              "pitch": 63,
              "velocity": 63,
              "position": 1,
              "duration": 1.4229166666666666
            },
            {
              "pitch": 72,
              "velocity": 63,
              "position": 1,
              "duration": 1.4395833333333334
            },
            {
              "pitch": 67,
              "velocity": 63,
              "position": 2.5,
              "duration": 0.08541666666666667
            },
            {
              "pitch": 63,
              "velocity": 63,
              "position": 2.5,
              "duration": 0.09166666666666666
            },
            {
              "pitch": 72,
              "velocity": 63,
              "position": 2.5,
              "duration": 0.11041666666666666
            },
            {
              "pitch": 67,
              "velocity": 63,
              "position": 3.5,
              "duration": 1.3979166666666667
            },
            {
              "pitch": 72,
              "velocity": 63,
              "position": 3.5,
              "duration": 1.4125
            },
            {
              "pitch": 65,
              "velocity": 63,
              "position": 3.5,
              "duration": 1.4125
            },
            {
              "pitch": 67,
              "velocity": 63,
              "position": 5,
              "duration": 0.10208333333333333
            },
            {
              "pitch": 65,
              "velocity": 63,
              "position": 5,
              "duration": 0.11041666666666666
            },
            {
              "pitch": 72,
              "velocity": 63,
              "position": 5,
              "duration": 0.12083333333333333
            },
            {
              "pitch": 63,
              "velocity": 61,
              "position": 9,
              "duration": 1.4416666666666667
            },
            {
              "pitch": 67,
              "velocity": 63,
              "position": 9,
              "duration": 1.4416666666666667
            },
            {
              "pitch": 72,
              "velocity": 61,
              "position": 9,
              "duration": 1.45
            },
            {
              "pitch": 63,
              "velocity": 52,
              "position": 10.5,
              "duration": 0.1
            },
            {
              "pitch": 67,
              "velocity": 63,
              "position": 10.5,
              "duration": 0.1
            },
            {
              "pitch": 72,
              "velocity": 62,
              "position": 10.5,
              "duration": 0.13125
            },
            {
              "pitch": 67,
              "velocity": 58,
              "position": 11.5,
              "duration": 1.64375
            },
            {
              "pitch": 72,
              "velocity": 61,
              "position": 11.5,
              "duration": 1.6479166666666667
            },
            {
              "pitch": 65,
              "velocity": 55,
              "position": 11.5,
              "duration": 1.6583333333333334
            },
            {
              "pitch": 75,
              "velocity": 74,
              "position": 14.489583333333334,
              "duration": 0.2625
            },
            {
              "pitch": 77,
              "velocity": 75,
              "position": 14.739583333333334,
              "duration": 0.2520833333333333
            },
            {
              "pitch": 75,
              "velocity": 72,
              "position": 14.989583333333334,
              "duration": 0.46458333333333335
            },
            {
              "pitch": 74,
              "velocity": 68,
              "position": 15.489583333333334,
              "duration": 0.4041666666666667
            },
            {
              "pitch": 72,
              "velocity": 71,
              "position": 16,
              "duration": 1.5125
            },
            {
              "pitch": 67,
              "velocity": 66,
              "position": 17,
              "duration": 0.5125
            },
            {
              "pitch": 63,
              "velocity": 68,
              "position": 17,
              "duration": 0.5125
            },
            {
              "pitch": 67,
              "velocity": 66,
              "position": 17.55,
              "duration": 0.8979166666666667
            },
            {
              "pitch": 63,
              "velocity": 68,
              "position": 17.55,
              "duration": 0.91875
            },
            {
              "pitch": 63,
              "velocity": 63,
              "position": 18.5,
              "duration": 0.09166666666666666
            },
            {
              "pitch": 67,
              "velocity": 64,
              "position": 18.5,
              "duration": 0.10416666666666667
            },
            {
              "pitch": 65,
              "velocity": 67,
              "position": 19.5,
              "duration": 1.38125
            },
            {
              "pitch": 67,
              "velocity": 73,
              "position": 19.5,
              "duration": 1.4083333333333334
            },
            {
              "pitch": 67,
              "velocity": 69,
              "position": 21,
              "duration": 0.19375
            },
            {
              "pitch": 65,
              "velocity": 69,
              "position": 21,
              "duration": 0.19791666666666666
            },
            {
              "pitch": 72,
              "velocity": 71,
              "position": 17.55,
              "duration": 6.160416666666666
            },
            {
              "pitch": 67,
              "velocity": 67,
              "position": 25,
              "duration": 0.09166666666666666
            },
            {
              "pitch": 63,
              "velocity": 67,
              "position": 25,
              "duration": 0.10416666666666667
            },
            {
              "pitch": 72,
              "velocity": 64,
              "position": 25,
              "duration": 0.15416666666666667
            },
            {
              "pitch": 67,
              "velocity": 67,
              "position": 26.5,
              "duration": 0.1
            },
            {
              "pitch": 63,
              "velocity": 66,
              "position": 26.5,
              "duration": 0.11458333333333333
            },
            {
              "pitch": 72,
              "velocity": 66,
              "position": 26.5,
              "duration": 0.17291666666666666
            },
            {
              "pitch": 65,
              "velocity": 73,
              "position": 27.5,
              "duration": 0.81875
            },
            {
              "pitch": 72,
              "velocity": 73,
              "position": 27.5,
              "duration": 0.825
            },
            {
              "pitch": 67,
              "velocity": 73,
              "position": 27.5,
              "duration": 0.8291666666666667
            },
            {
              "pitch": 65,
              "velocity": 61,
              "position": 28.5,
              "duration": 0.4166666666666667
            },
            {
              "pitch": 72,
              "velocity": 61,
              "position": 28.5,
              "duration": 0.43333333333333335
            },
            {
              "pitch": 67,
              "velocity": 61,
              "position": 28.5,
              "duration": 0.43333333333333335
            },
            {
              "pitch": 65,
              "velocity": 66,
              "position": 29,
              "duration": 0.45625
            },
            {
              "pitch": 67,
              "velocity": 66,
              "position": 29,
              "duration": 0.45625
            },
            {
              "pitch": 72,
              "velocity": 66,
              "position": 29,
              "duration": 0.46458333333333335
            },
            {
              "pitch": 65,
              "velocity": 73,
              "position": 29.5,
              "duration": 0.46458333333333335
            },
            {
              "pitch": 72,
              "velocity": 73,
              "position": 29.5,
              "duration": 0.46875
            },
            {
              "pitch": 67,
              "velocity": 73,
              "position": 29.5,
              "duration": 0.475
            },
            {
              "pitch": 65,
              "velocity": 79,
              "position": 30,
              "duration": 0.60625
            },
            {
              "pitch": 72,
              "velocity": 79,
              "position": 30,
              "duration": 0.60625
            },
            {
              "pitch": 67,
              "velocity": 79,
              "position": 30,
              "duration": 0.60625
            },
            {
              "pitch": 65,
              "velocity": 79,
              "position": 30.64375,
              "duration": 1.31875
            },
            {
              "pitch": 72,
              "velocity": 79,
              "position": 30.64375,
              "duration": 5.695833333333334
            },
            {
              "pitch": 67,
              "velocity": 79,
              "position": 30.64375,
              "duration": 5.720833333333333
            },
            {
              "pitch": 63,
              "velocity": 78,
              "position": 32,
              "duration": 4.397916666666666
            },
            {
              "pitch": 63,
              "velocity": 73,
              "position": 36.458333333333336,
              "duration": 2.529166666666667
            },
            {
              "pitch": 72,
              "velocity": 73,
              "position": 36.458333333333336,
              "duration": 2.529166666666667
            },
            {
              "pitch": 67,
              "velocity": 73,
              "position": 36.458333333333336,
              "duration": 2.529166666666667
            }
          ]
        },
        "5": {
          "ctab": {
            "srcChannel": 5,
            "name": "SldGt m",
            "accType": "PHRASE1",
            "editable": false,
            "mutedNotes": [],
            "mutedChords": [
              "1+2+5",
              "sus4",
              "1+5",
              "1+8",
              "7aug",
              "Maj7aug",
              "7(#9)",
              "7(b13)",
              "7(b9)",
              "7(13)",
              "7#11",
              "7(9)",
              "7b5",
              "7sus4",
              "7th",
              "aug",
              "Maj6(9)",
              "Maj7(9)",
              "Maj(9)",
              "Maj7#11",
              "Maj7",
              "Maj6",
              "Maj"
            ],
            "autoStart": false,
            "sourceChordNote": 0,
            "sourceChordType": "min",
            "ctb2Low": null,
            "ctb2Main": {
              "ntr": "ROOT_TRANSPOSITION",
              "ntt": "BYPASS",
              "bassOn": false,
              "chordRootUpperLimit": 3,
              "noteLowLimit": 40,
              "noteHighLimit": 127,
              "rtr": "PITCH_SHIFT"
            },
            "ctb2High": null
          },
          "notes": [
            {
              "pitch": 100,
              "velocity": 70,
              "position": 0,
              "duration": 0.23541666666666666
            },
            {
              "pitch": 36,
              "velocity": 86,
              "position": 0,
              "duration": 0.48541666666666666
            },
            {
              "pitch": 99,
              "velocity": 55,
              "position": 0.5,
              "duration": 0.23541666666666666
            },
            {
              "pitch": 36,
              "velocity": 84,
              "position": 0.5,
              "duration": 0.48541666666666666
            },
            {
              "pitch": 98,
              "velocity": 70,
              "position": 1,
              "duration": 0.23541666666666666
            },
            {
              "pitch": 36,
              "velocity": 86,
              "position": 1,
              "duration": 0.48541666666666666
            },
            {
              "pitch": 72,
              "velocity": 34,
              "position": 0,
              "duration": 1.4854166666666666
            },
            {
              "pitch": 99,
              "velocity": 57,
              "position": 1.5,
              "duration": 0.23541666666666666
            },
            {
              "pitch": 36,
              "velocity": 84,
              "position": 1.5,
              "duration": 0.48541666666666666
            },
            {
              "pitch": 102,
              "velocity": 70,
              "position": 2,
              "duration": 0.23541666666666666
            },
            {
              "pitch": 67,
              "velocity": 24,
              "position": 1,
              "duration": 1.4854166666666666
            },
            {
              "pitch": 36,
              "velocity": 86,
              "position": 2,
              "duration": 0.48541666666666666
            },
            {
              "pitch": 99,
              "velocity": 70,
              "position": 2.5,
              "duration": 0.23541666666666666
            },
            {
              "pitch": 36,
              "velocity": 84,
              "position": 2.5,
              "duration": 0.48541666666666666
            },
            {
              "pitch": 98,
              "velocity": 55,
              "position": 3,
              "duration": 0.23541666666666666
            },
            {
              "pitch": 74,
              "velocity": 32,
              "position": 1.5,
              "duration": 1.9854166666666666
            },
            {
              "pitch": 36,
              "velocity": 86,
              "position": 3,
              "duration": 0.48541666666666666
            },
            {
              "pitch": 97,
              "velocity": 59,
              "position": 3.5,
              "duration": 0.23541666666666666
            },
            {
              "pitch": 36,
              "velocity": 84,
              "position": 3.5,
              "duration": 0.49583333333333335
            },
            {
              "pitch": 100,
              "velocity": 70,
              "position": 4,
              "duration": 0.23541666666666666
            },
            {
              "pitch": 38,
              "velocity": 86,
              "position": 4.010416666666667,
              "duration": 0.475
            },
            {
              "pitch": 67,
              "velocity": 24,
              "position": 2.5,
              "duration": 1.9854166666666666
            },
            {
              "pitch": 99,
              "velocity": 55,
              "position": 4.5,
              "duration": 0.23541666666666666
            },
            {
              "pitch": 38,
              "velocity": 84,
              "position": 4.5,
              "duration": 0.48541666666666666
            },
            {
              "pitch": 98,
              "velocity": 70,
              "position": 5,
              "duration": 0.23541666666666666
            },
            {
              "pitch": 72,
              "velocity": 34,
              "position": 3.5,
              "duration": 1.9854166666666666
            },
            {
              "pitch": 38,
              "velocity": 86,
              "position": 5,
              "duration": 0.48541666666666666
            },
            {
              "pitch": 97,
              "velocity": 57,
              "position": 5.5,
              "duration": 0.23541666666666666
            },
            {
              "pitch": 38,
              "velocity": 84,
              "position": 5.5,
              "duration": 0.48541666666666666
            },
            {
              "pitch": 102,
              "velocity": 70,
              "position": 6,
              "duration": 0.23541666666666666
            },
            {
              "pitch": 67,
              "velocity": 24,
              "position": 4.5,
              "duration": 1.9854166666666666
            },
            {
              "pitch": 38,
              "velocity": 86,
              "position": 6,
              "duration": 0.48541666666666666
            },
            {
              "pitch": 99,
              "velocity": 70,
              "position": 6.5,
              "duration": 0.23541666666666666
            },
            {
              "pitch": 38,
              "velocity": 84,
              "position": 6.5,
              "duration": 0.48541666666666666
            },
            {
              "pitch": 98,
              "velocity": 55,
              "position": 7,
              "duration": 0.23541666666666666
            },
            {
              "pitch": 38,
              "velocity": 86,
              "position": 7,
              "duration": 0.48541666666666666
            },
            {
              "pitch": 97,
              "velocity": 59,
              "position": 7.5,
              "duration": 0.23541666666666666
            },
            {
              "pitch": 74,
              "velocity": 32,
              "position": 5.5,
              "duration": 2.4854166666666666
            },
            {
              "pitch": 38,
              "velocity": 84,
              "position": 7.5,
              "duration": 0.48541666666666666
            },
            {
              "pitch": 100,
              "velocity": 70,
              "position": 8,
              "duration": 0.23541666666666666
            },
            {
              "pitch": 39,
              "velocity": 86,
              "position": 8,
              "duration": 0.48541666666666666
            },
            {
              "pitch": 99,
              "velocity": 55,
              "position": 8.5,
              "duration": 0.23541666666666666
            },
            {
              "pitch": 67,
              "velocity": 18,
              "position": 6.5,
              "duration": 2.4854166666666666
            },
            {
              "pitch": 39,
              "velocity": 84,
              "position": 8.5,
              "duration": 0.48541666666666666
            },
            {
              "pitch": 98,
              "velocity": 70,
              "position": 9,
              "duration": 0.23541666666666666
            },
            {
              "pitch": 39,
              "velocity": 86,
              "position": 9,
              "duration": 0.48541666666666666
            },
            {
              "pitch": 72,
              "velocity": 34,
              "position": 8,
              "duration": 1.4854166666666666
            },
            {
              "pitch": 99,
              "velocity": 57,
              "position": 9.5,
              "duration": 0.23541666666666666
            },
            {
              "pitch": 39,
              "velocity": 84,
              "position": 9.5,
              "duration": 0.48541666666666666
            },
            {
              "pitch": 102,
              "velocity": 70,
              "position": 10,
              "duration": 0.23541666666666666
            },
            {
              "pitch": 67,
              "velocity": 24,
              "position": 9,
              "duration": 1.4854166666666666
            },
            {
              "pitch": 39,
              "velocity": 86,
              "position": 10,
              "duration": 0.48541666666666666
            },
            {
              "pitch": 99,
              "velocity": 70,
              "position": 10.5,
              "duration": 0.23541666666666666
            },
            {
              "pitch": 39,
              "velocity": 84,
              "position": 10.5,
              "duration": 0.48541666666666666
            },
            {
              "pitch": 98,
              "velocity": 55,
              "position": 11,
              "duration": 0.23541666666666666
            },
            {
              "pitch": 74,
              "velocity": 32,
              "position": 9.5,
              "duration": 1.9854166666666666
            },
            {
              "pitch": 39,
              "velocity": 86,
              "position": 11,
              "duration": 0.48541666666666666
            },
            {
              "pitch": 97,
              "velocity": 59,
              "position": 11.5,
              "duration": 0.23541666666666666
            },
            {
              "pitch": 39,
              "velocity": 84,
              "position": 11.5,
              "duration": 0.49583333333333335
            },
            {
              "pitch": 100,
              "velocity": 70,
              "position": 12,
              "duration": 0.23541666666666666
            },
            {
              "pitch": 41,
              "velocity": 86,
              "position": 12.010416666666666,
              "duration": 0.475
            },
            {
              "pitch": 67,
              "velocity": 24,
              "position": 10.5,
              "duration": 1.9854166666666666
            },
            {
              "pitch": 99,
              "velocity": 55,
              "position": 12.5,
              "duration": 0.23541666666666666
            },
            {
              "pitch": 41,
              "velocity": 84,
              "position": 12.5,
              "duration": 0.48541666666666666
            },
            {
              "pitch": 98,
              "velocity": 70,
              "position": 13,
              "duration": 0.23541666666666666
            },
            {
              "pitch": 72,
              "velocity": 34,
              "position": 11.5,
              "duration": 1.9854166666666666
            },
            {
              "pitch": 41,
              "velocity": 86,
              "position": 13,
              "duration": 0.48541666666666666
            },
            {
              "pitch": 97,
              "velocity": 57,
              "position": 13.5,
              "duration": 0.23541666666666666
            },
            {
              "pitch": 41,
              "velocity": 84,
              "position": 13.5,
              "duration": 0.48541666666666666
            },
            {
              "pitch": 102,
              "velocity": 70,
              "position": 14,
              "duration": 0.23541666666666666
            },
            {
              "pitch": 74,
              "velocity": 26,
              "position": 13.5,
              "duration": 0.975
            },
            {
              "pitch": 41,
              "velocity": 86,
              "position": 14,
              "duration": 0.48541666666666666
            },
            {
              "pitch": 67,
              "velocity": 24,
              "position": 12.5,
              "duration": 1.9854166666666666
            },
            {
              "pitch": 99,
              "velocity": 70,
              "position": 14.5,
              "duration": 0.23541666666666666
            },
            {
              "pitch": 77,
              "velocity": 116,
              "position": 14.5,
              "duration": 0.475
            },
            {
              "pitch": 41,
              "velocity": 84,
              "position": 14.5,
              "duration": 0.48541666666666666
            },
            {
              "pitch": 98,
              "velocity": 55,
              "position": 15,
              "duration": 0.23541666666666666
            },
            {
              "pitch": 75,
              "velocity": 98,
              "position": 15,
              "duration": 0.475
            },
            {
              "pitch": 39,
              "velocity": 86,
              "position": 15,
              "duration": 0.48541666666666666
            },
            {
              "pitch": 97,
              "velocity": 59,
              "position": 15.5,
              "duration": 0.23541666666666666
            },
            {
              "pitch": 74,
              "velocity": 100,
              "position": 15.5,
              "duration": 0.475
            },
            {
              "pitch": 38,
              "velocity": 84,
              "position": 15.5,
              "duration": 0.48541666666666666
            },
            {
              "pitch": 100,
              "velocity": 70,
              "position": 16,
              "duration": 0.23541666666666666
            },
            {
              "pitch": 36,
              "velocity": 86,
              "position": 16,
              "duration": 0.48541666666666666
            },
            {
              "pitch": 99,
              "velocity": 55,
              "position": 16.5,
              "duration": 0.23541666666666666
            },
            {
              "pitch": 67,
              "velocity": 18,
              "position": 14.5,
              "duration": 2.4854166666666666
            },
            {
              "pitch": 36,
              "velocity": 84,
              "position": 16.5,
              "duration": 0.48541666666666666
            },
            {
              "pitch": 98,
              "velocity": 70,
              "position": 17,
              "duration": 0.23541666666666666
            },
            {
              "pitch": 36,
              "velocity": 86,
              "position": 17,
              "duration": 0.48541666666666666
            },
            {
              "pitch": 72,
              "velocity": 34,
              "position": 16,
              "duration": 1.4854166666666666
            },
            {
              "pitch": 99,
              "velocity": 57,
              "position": 17.5,
              "duration": 0.23541666666666666
            },
            {
              "pitch": 36,
              "velocity": 84,
              "position": 17.5,
              "duration": 0.48541666666666666
            },
            {
              "pitch": 102,
              "velocity": 70,
              "position": 18,
              "duration": 0.23541666666666666
            },
            {
              "pitch": 67,
              "velocity": 24,
              "position": 17,
              "duration": 1.4854166666666666
            },
            {
              "pitch": 36,
              "velocity": 86,
              "position": 18,
              "duration": 0.48541666666666666
            },
            {
              "pitch": 99,
              "velocity": 70,
              "position": 18.5,
              "duration": 0.23541666666666666
            },
            {
              "pitch": 36,
              "velocity": 84,
              "position": 18.5,
              "duration": 0.48541666666666666
            },
            {
              "pitch": 98,
              "velocity": 55,
              "position": 19,
              "duration": 0.23541666666666666
            },
            {
              "pitch": 74,
              "velocity": 32,
              "position": 17.5,
              "duration": 1.9854166666666666
            },
            {
              "pitch": 36,
              "velocity": 86,
              "position": 19,
              "duration": 0.48541666666666666
            },
            {
              "pitch": 97,
              "velocity": 59,
              "position": 19.5,
              "duration": 0.23541666666666666
            },
            {
              "pitch": 36,
              "velocity": 84,
              "position": 19.5,
              "duration": 0.49583333333333335
            },
            {
              "pitch": 100,
              "velocity": 70,
              "position": 20,
              "duration": 0.23541666666666666
            },
            {
              "pitch": 38,
              "velocity": 86,
              "position": 20.010416666666668,
              "duration": 0.475
            },
            {
              "pitch": 67,
              "velocity": 24,
              "position": 18.5,
              "duration": 1.9854166666666666
            },
            {
              "pitch": 99,
              "velocity": 55,
              "position": 20.5,
              "duration": 0.23541666666666666
            },
            {
              "pitch": 38,
              "velocity": 84,
              "position": 20.5,
              "duration": 0.48541666666666666
            },
            {
              "pitch": 98,
              "velocity": 70,
              "position": 21,
              "duration": 0.23541666666666666
            },
            {
              "pitch": 72,
              "velocity": 34,
              "position": 19.5,
              "duration": 1.9854166666666666
            },
            {
              "pitch": 38,
              "velocity": 86,
              "position": 21,
              "duration": 0.48541666666666666
            },
            {
              "pitch": 97,
              "velocity": 57,
              "position": 21.5,
              "duration": 0.23541666666666666
            },
            {
              "pitch": 38,
              "velocity": 84,
              "position": 21.5,
              "duration": 0.48541666666666666
            },
            {
              "pitch": 102,
              "velocity": 70,
              "position": 22,
              "duration": 0.23541666666666666
            },
            {
              "pitch": 67,
              "velocity": 24,
              "position": 20.5,
              "duration": 1.9854166666666666
            },
            {
              "pitch": 38,
              "velocity": 86,
              "position": 22,
              "duration": 0.48541666666666666
            },
            {
              "pitch": 99,
              "velocity": 70,
              "position": 22.5,
              "duration": 0.23541666666666666
            },
            {
              "pitch": 38,
              "velocity": 84,
              "position": 22.5,
              "duration": 0.48541666666666666
            },
            {
              "pitch": 98,
              "velocity": 55,
              "position": 23,
              "duration": 0.23541666666666666
            },
            {
              "pitch": 38,
              "velocity": 86,
              "position": 23,
              "duration": 0.48541666666666666
            },
            {
              "pitch": 97,
              "velocity": 59,
              "position": 23.5,
              "duration": 0.23541666666666666
            },
            {
              "pitch": 74,
              "velocity": 32,
              "position": 21.5,
              "duration": 2.4854166666666666
            },
            {
              "pitch": 38,
              "velocity": 84,
              "position": 23.5,
              "duration": 0.48541666666666666
            },
            {
              "pitch": 100,
              "velocity": 70,
              "position": 24,
              "duration": 0.23541666666666666
            },
            {
              "pitch": 39,
              "velocity": 86,
              "position": 24,
              "duration": 0.48541666666666666
            },
            {
              "pitch": 99,
              "velocity": 55,
              "position": 24.5,
              "duration": 0.23541666666666666
            },
            {
              "pitch": 67,
              "velocity": 18,
              "position": 22.5,
              "duration": 2.4854166666666666
            },
            {
              "pitch": 39,
              "velocity": 84,
              "position": 24.5,
              "duration": 0.48541666666666666
            },
            {
              "pitch": 98,
              "velocity": 70,
              "position": 25,
              "duration": 0.23541666666666666
            },
            {
              "pitch": 39,
              "velocity": 86,
              "position": 25,
              "duration": 0.48541666666666666
            },
            {
              "pitch": 72,
              "velocity": 34,
              "position": 24,
              "duration": 1.4854166666666666
            },
            {
              "pitch": 99,
              "velocity": 57,
              "position": 25.5,
              "duration": 0.23541666666666666
            },
            {
              "pitch": 39,
              "velocity": 84,
              "position": 25.5,
              "duration": 0.48541666666666666
            },
            {
              "pitch": 102,
              "velocity": 70,
              "position": 26,
              "duration": 0.23541666666666666
            },
            {
              "pitch": 67,
              "velocity": 24,
              "position": 25,
              "duration": 1.4854166666666666
            },
            {
              "pitch": 39,
              "velocity": 86,
              "position": 26,
              "duration": 0.48541666666666666
            },
            {
              "pitch": 99,
              "velocity": 70,
              "position": 26.5,
              "duration": 0.23541666666666666
            },
            {
              "pitch": 39,
              "velocity": 84,
              "position": 26.5,
              "duration": 0.48541666666666666
            },
            {
              "pitch": 98,
              "velocity": 55,
              "position": 27,
              "duration": 0.23541666666666666
            },
            {
              "pitch": 74,
              "velocity": 32,
              "position": 25.5,
              "duration": 1.9854166666666666
            },
            {
              "pitch": 39,
              "velocity": 86,
              "position": 27,
              "duration": 0.48541666666666666
            },
            {
              "pitch": 97,
              "velocity": 59,
              "position": 27.5,
              "duration": 0.23541666666666666
            },
            {
              "pitch": 100,
              "velocity": 70,
              "position": 28,
              "duration": 0.23541666666666666
            },
            {
              "pitch": 67,
              "velocity": 24,
              "position": 26.5,
              "duration": 1.9854166666666666
            },
            {
              "pitch": 43,
              "velocity": 84,
              "position": 27.5,
              "duration": 0.9854166666666667
            },
            {
              "pitch": 99,
              "velocity": 55,
              "position": 28.5,
              "duration": 0.23541666666666666
            },
            {
              "pitch": 43,
              "velocity": 84,
              "position": 28.5,
              "duration": 0.48541666666666666
            },
            {
              "pitch": 98,
              "velocity": 70,
              "position": 29,
              "duration": 0.23541666666666666
            },
            {
              "pitch": 72,
              "velocity": 34,
              "position": 27.5,
              "duration": 1.9854166666666666
            },
            {
              "pitch": 43,
              "velocity": 86,
              "position": 29,
              "duration": 0.48541666666666666
            },
            {
              "pitch": 97,
              "velocity": 57,
              "position": 29.5,
              "duration": 0.23541666666666666
            },
            {
              "pitch": 43,
              "velocity": 84,
              "position": 29.5,
              "duration": 0.48541666666666666
            },
            {
              "pitch": 102,
              "velocity": 70,
              "position": 30,
              "duration": 0.23541666666666666
            },
            {
              "pitch": 67,
              "velocity": 24,
              "position": 28.5,
              "duration": 1.9854166666666666
            },
            {
              "pitch": 43,
              "velocity": 86,
              "position": 30,
              "duration": 0.48541666666666666
            },
            {
              "pitch": 99,
              "velocity": 70,
              "position": 30.5,
              "duration": 0.23541666666666666
            },
            {
              "pitch": 43,
              "velocity": 84,
              "position": 30.5,
              "duration": 0.48541666666666666
            },
            {
              "pitch": 98,
              "velocity": 55,
              "position": 31,
              "duration": 0.23541666666666666
            },
            {
              "pitch": 43,
              "velocity": 86,
              "position": 31,
              "duration": 0.48541666666666666
            },
            {
              "pitch": 97,
              "velocity": 59,
              "position": 31.5,
              "duration": 0.23541666666666666
            },
            {
              "pitch": 74,
              "velocity": 32,
              "position": 29.5,
              "duration": 2.4854166666666666
            },
            {
              "pitch": 43,
              "velocity": 84,
              "position": 31.5,
              "duration": 0.48541666666666666
            },
            {
              "pitch": 67,
              "velocity": 18,
              "position": 30.5,
              "duration": 1.4854166666666666
            },
            {
              "pitch": 100,
              "velocity": 70,
              "position": 32,
              "duration": 0.23541666666666666
            },
            {
              "pitch": 67,
              "velocity": 30,
              "position": 32,
              "duration": 6.985416666666667
            },
            {
              "pitch": 72,
              "velocity": 30,
              "position": 32,
              "duration": 6.985416666666667
            },
            {
              "pitch": 36,
              "velocity": 22,
              "position": 32,
              "duration": 6.985416666666667
            }
          ]
        },
        "6": {
          "ctab": {
            "srcChannel": 6,
            "name": "Str m",
            "accType": "PHRASE2",
            "editable": false,
            "mutedNotes": [],
            "mutedChords": [
              "1+2+5",
              "sus4",
              "1+5",
              "1+8",
              "7aug",
              "Maj7aug",
              "7(#9)",
              "7(b13)",
              "7(b9)",
              "7(13)",
              "7#11",
              "7(9)",
              "7b5",
              "7sus4",
              "7th",
              "aug",
              "Maj6(9)",
              "Maj7(9)",
              "Maj(9)",
              "Maj7#11",
              "Maj7",
              "Maj6",
              "Maj"
            ],
            "autoStart": false,
            "sourceChordNote": 0,
            "sourceChordType": "min",
            "ctb2Low": null,
            "ctb2Main": {
              "ntr": "ROOT_TRANSPOSITION",
              "ntt": "BYPASS",
              "bassOn": false,
              "chordRootUpperLimit": 10,
              "noteLowLimit": 54,
              "noteHighLimit": 65,
              "rtr": "PITCH_SHIFT"
            },
            "ctb2High": null
          },
          "notes": [
            {
              "pitch": 55,
              "velocity": 51,
              "position": 0,
              "duration": 3.475
            },
            {
              "pitch": 63,
              "velocity": 51,
              "position": 0,
              "duration": 3.475
            },
            {
              "pitch": 60,
              "velocity": 51,
              "position": 0,
              "duration": 3.475
            },
            {
              "pitch": 55,
              "velocity": 109,
              "position": 3.4895833333333335,
              "duration": 4.485416666666667
            },
            {
              "pitch": 65,
              "velocity": 51,
              "position": 3.4895833333333335,
              "duration": 4.485416666666667
            },
            {
              "pitch": 60,
              "velocity": 109,
              "position": 3.4895833333333335,
              "duration": 4.485416666666667
            },
            {
              "pitch": 55,
              "velocity": 51,
              "position": 7.989583333333333,
              "duration": 3.4854166666666666
            },
            {
              "pitch": 63,
              "velocity": 51,
              "position": 7.989583333333333,
              "duration": 3.4854166666666666
            },
            {
              "pitch": 60,
              "velocity": 51,
              "position": 7.989583333333333,
              "duration": 3.4854166666666666
            },
            {
              "pitch": 55,
              "velocity": 109,
              "position": 11.489583333333334,
              "duration": 4.475
            },
            {
              "pitch": 65,
              "velocity": 51,
              "position": 11.489583333333334,
              "duration": 4.475
            },
            {
              "pitch": 60,
              "velocity": 109,
              "position": 11.489583333333334,
              "duration": 4.475
            },
            {
              "pitch": 55,
              "velocity": 51,
              "position": 15.989583333333334,
              "duration": 3.4854166666666666
            },
            {
              "pitch": 63,
              "velocity": 51,
              "position": 15.989583333333334,
              "duration": 3.4854166666666666
            },
            {
              "pitch": 60,
              "velocity": 51,
              "position": 15.989583333333334,
              "duration": 3.4854166666666666
            },
            {
              "pitch": 55,
              "velocity": 109,
              "position": 19.489583333333332,
              "duration": 4.485416666666667
            },
            {
              "pitch": 65,
              "velocity": 51,
              "position": 19.489583333333332,
              "duration": 4.485416666666667
            },
            {
              "pitch": 60,
              "velocity": 109,
              "position": 19.489583333333332,
              "duration": 4.485416666666667
            },
            {
              "pitch": 55,
              "velocity": 51,
              "position": 23.989583333333332,
              "duration": 3.4854166666666666
            },
            {
              "pitch": 63,
              "velocity": 51,
              "position": 23.989583333333332,
              "duration": 3.4854166666666666
            },
            {
              "pitch": 60,
              "velocity": 51,
              "position": 23.989583333333332,
              "duration": 3.4854166666666666
            },
            {
              "pitch": 55,
              "velocity": 109,
              "position": 27.489583333333332,
              "duration": 4.475
            },
            {
              "pitch": 65,
              "velocity": 51,
              "position": 27.489583333333332,
              "duration": 4.475
            },
            {
              "pitch": 60,
              "velocity": 109,
              "position": 27.489583333333332,
              "duration": 4.475
            },
            {
              "pitch": 55,
              "velocity": 51,
              "position": 31.989583333333332,
              "duration": 6.985416666666667
            },
            {
              "pitch": 63,
              "velocity": 51,
              "position": 31.989583333333332,
              "duration": 6.985416666666667
            },
            {
              "pitch": 60,
              "velocity": 51,
              "position": 31.989583333333332,
              "duration": 6.985416666666667
            }
          ]
        },
        "8": {
          "ctab": {
            "srcChannel": 8,
            "name": "AddDrum",
            "accType": "SUBRHYTHM",
            "editable": false,
            "mutedNotes": [],
            "mutedChords": [],
            "autoStart": true,
            "sourceChordNote": 0,
            "sourceChordType": "Maj7",
            "ctb2Low": null,
            "ctb2Main": {
              "ntr": "ROOT_FIXED",
              "ntt": "BYPASS",
              "bassOn": false,
              "chordRootUpperLimit": 10,
              "noteLowLimit": 0,
              "noteHighLimit": 127,
              "rtr": "PITCH_SHIFT"
            },
            "ctb2High": null
          },
          "notes": [
            {
              "pitch": 54,
              "velocity": 90,
              "position": 0,
              "duration": 0.058333333333333334
            },
            {
              "pitch": 54,
              "velocity": 30,
              "position": 0.25,
              "duration": 0.058333333333333334
            },
            {
              "pitch": 54,
              "velocity": 50,
              "position": 0.5,
              "duration": 0.058333333333333334
            },
            {
              "pitch": 54,
              "velocity": 30,
              "position": 0.75,
              "duration": 0.058333333333333334
            },
            {
              "pitch": 54,
              "velocity": 90,
              "position": 0.99375,
              "duration": 0.058333333333333334
            },
            {
              "pitch": 54,
              "velocity": 30,
              "position": 1.24375,
              "duration": 0.058333333333333334
            },
            {
              "pitch": 54,
              "velocity": 50,
              "position": 1.5,
              "duration": 0.058333333333333334
            },
            {
              "pitch": 54,
              "velocity": 30,
              "position": 1.75,
              "duration": 0.058333333333333334
            },
            {
              "pitch": 54,
              "velocity": 90,
              "position": 2,
              "duration": 0.058333333333333334
            },
            {
              "pitch": 54,
              "velocity": 30,
              "position": 2.25,
              "duration": 0.058333333333333334
            },
            {
              "pitch": 54,
              "velocity": 50,
              "position": 2.5,
              "duration": 0.058333333333333334
            },
            {
              "pitch": 54,
              "velocity": 30,
              "position": 2.75,
              "duration": 0.058333333333333334
            },
            {
              "pitch": 54,
              "velocity": 90,
              "position": 3,
              "duration": 0.058333333333333334
            },
            {
              "pitch": 54,
              "velocity": 30,
              "position": 3.25,
              "duration": 0.058333333333333334
            },
            {
              "pitch": 54,
              "velocity": 50,
              "position": 3.5,
              "duration": 0.058333333333333334
            },
            {
              "pitch": 54,
              "velocity": 30,
              "position": 3.75,
              "duration": 0.058333333333333334
            },
            {
              "pitch": 54,
              "velocity": 90,
              "position": 4,
              "duration": 0.058333333333333334
            },
            {
              "pitch": 54,
              "velocity": 30,
              "position": 4.25,
              "duration": 0.058333333333333334
            },
            {
              "pitch": 54,
              "velocity": 50,
              "position": 4.5,
              "duration": 0.058333333333333334
            },
            {
              "pitch": 54,
              "velocity": 30,
              "position": 4.75,
              "duration": 0.058333333333333334
            },
            {
              "pitch": 54,
              "velocity": 90,
              "position": 5,
              "duration": 0.058333333333333334
            },
            {
              "pitch": 54,
              "velocity": 30,
              "position": 5.25,
              "duration": 0.058333333333333334
            },
            {
              "pitch": 54,
              "velocity": 50,
              "position": 5.5,
              "duration": 0.058333333333333334
            },
            {
              "pitch": 54,
              "velocity": 30,
              "position": 5.75,
              "duration": 0.058333333333333334
            },
            {
              "pitch": 54,
              "velocity": 90,
              "position": 6,
              "duration": 0.058333333333333334
            },
            {
              "pitch": 54,
              "velocity": 30,
              "position": 6.25,
              "duration": 0.058333333333333334
            },
            {
              "pitch": 54,
              "velocity": 50,
              "position": 6.5,
              "duration": 0.058333333333333334
            },
            {
              "pitch": 54,
              "velocity": 30,
              "position": 6.75,
              "duration": 0.058333333333333334
            },
            {
              "pitch": 54,
              "velocity": 90,
              "position": 7,
              "duration": 0.058333333333333334
            },
            {
              "pitch": 54,
              "velocity": 30,
              "position": 7.25,
              "duration": 0.058333333333333334
            },
            {
              "pitch": 54,
              "velocity": 50,
              "position": 7.5,
              "duration": 0.058333333333333334
            },
            {
              "pitch": 54,
              "velocity": 30,
              "position": 7.75,
              "duration": 0.058333333333333334
            },
            {
              "pitch": 54,
              "velocity": 90,
              "position": 8,
              "duration": 0.058333333333333334
            },
            {
              "pitch": 54,
              "velocity": 30,
              "position": 8.25,
              "duration": 0.058333333333333334
            },
            {
              "pitch": 54,
              "velocity": 50,
              "position": 8.5,
              "duration": 0.058333333333333334
            },
            {
              "pitch": 54,
              "velocity": 30,
              "position": 8.75,
              "duration": 0.058333333333333334
            },
            {
              "pitch": 54,
              "velocity": 90,
              "position": 8.99375,
              "duration": 0.058333333333333334
            },
            {
              "pitch": 54,
              "velocity": 30,
              "position": 9.24375,
              "duration": 0.058333333333333334
            },
            {
              "pitch": 54,
              "velocity": 50,
              "position": 9.5,
              "duration": 0.058333333333333334
            },
            {
              "pitch": 54,
              "velocity": 30,
              "position": 9.75,
              "duration": 0.058333333333333334
            },
            {
              "pitch": 54,
              "velocity": 90,
              "position": 10,
              "duration": 0.058333333333333334
            },
            {
              "pitch": 54,
              "velocity": 30,
              "position": 10.25,
              "duration": 0.058333333333333334
            },
            {
              "pitch": 54,
              "velocity": 50,
              "position": 10.5,
              "duration": 0.058333333333333334
            },
            {
              "pitch": 54,
              "velocity": 30,
              "position": 10.75,
              "duration": 0.058333333333333334
            },
            {
              "pitch": 54,
              "velocity": 90,
              "position": 11,
              "duration": 0.058333333333333334
            },
            {
              "pitch": 54,
              "velocity": 30,
              "position": 11.25,
              "duration": 0.058333333333333334
            },
            {
              "pitch": 54,
              "velocity": 50,
              "position": 11.5,
              "duration": 0.058333333333333334
            },
            {
              "pitch": 54,
              "velocity": 30,
              "position": 11.75,
              "duration": 0.058333333333333334
            },
            {
              "pitch": 54,
              "velocity": 90,
              "position": 12,
              "duration": 0.058333333333333334
            },
            {
              "pitch": 54,
              "velocity": 30,
              "position": 12.25,
              "duration": 0.058333333333333334
            },
            {
              "pitch": 54,
              "velocity": 50,
              "position": 12.5,
              "duration": 0.058333333333333334
            },
            {
              "pitch": 54,
              "velocity": 30,
              "position": 12.75,
              "duration": 0.058333333333333334
            },
            {
              "pitch": 54,
              "velocity": 90,
              "position": 12.99375,
              "duration": 0.058333333333333334
            },
            {
              "pitch": 54,
              "velocity": 30,
              "position": 13.24375,
              "duration": 0.058333333333333334
            },
            {
              "pitch": 54,
              "velocity": 50,
              "position": 13.5,
              "duration": 0.058333333333333334
            },
            {
              "pitch": 54,
              "velocity": 30,
              "position": 13.75,
              "duration": 0.058333333333333334
            },
            {
              "pitch": 54,
              "velocity": 90,
              "position": 13.99375,
              "duration": 0.058333333333333334
            },
            {
              "pitch": 54,
              "velocity": 30,
              "position": 14.24375,
              "duration": 0.058333333333333334
            },
            {
              "pitch": 54,
              "velocity": 50,
              "position": 14.5,
              "duration": 0.058333333333333334
            },
            {
              "pitch": 54,
              "velocity": 30,
              "position": 14.75,
              "duration": 0.058333333333333334
            },
            {
              "pitch": 54,
              "velocity": 90,
              "position": 15,
              "duration": 0.058333333333333334
            },
            {
              "pitch": 54,
              "velocity": 30,
              "position": 15.25,
              "duration": 0.058333333333333334
            },
            {
              "pitch": 54,
              "velocity": 50,
              "position": 15.5,
              "duration": 0.058333333333333334
            },
            {
              "pitch": 54,
              "velocity": 30,
              "position": 15.75,
              "duration": 0.058333333333333334
            },
            {
              "pitch": 54,
              "velocity": 90,
              "position": 16,
              "duration": 0.058333333333333334
            },
            {
              "pitch": 54,
              "velocity": 30,
              "position": 16.25,
              "duration": 0.058333333333333334
            },
            {
              "pitch": 54,
              "velocity": 50,
              "position": 16.5,
              "duration": 0.058333333333333334
            },
            {
              "pitch": 54,
              "velocity": 30,
              "position": 16.75,
              "duration": 0.058333333333333334
            },
            {
              "pitch": 54,
              "velocity": 90,
              "position": 16.99375,
              "duration": 0.058333333333333334
            },
            {
              "pitch": 54,
              "velocity": 30,
              "position": 17.24375,
              "duration": 0.058333333333333334
            },
            {
              "pitch": 54,
              "velocity": 50,
              "position": 17.5,
              "duration": 0.058333333333333334
            },
            {
              "pitch": 54,
              "velocity": 30,
              "position": 17.75,
              "duration": 0.058333333333333334
            },
            {
              "pitch": 54,
              "velocity": 90,
              "position": 18,
              "duration": 0.058333333333333334
            },
            {
              "pitch": 54,
              "velocity": 30,
              "position": 18.25,
              "duration": 0.058333333333333334
            },
            {
              "pitch": 54,
              "velocity": 50,
              "position": 18.5,
              "duration": 0.058333333333333334
            },
            {
              "pitch": 54,
              "velocity": 30,
              "position": 18.75,
              "duration": 0.058333333333333334
            },
            {
              "pitch": 54,
              "velocity": 90,
              "position": 19,
              "duration": 0.058333333333333334
            },
            {
              "pitch": 54,
              "velocity": 30,
              "position": 19.25,
              "duration": 0.058333333333333334
            },
            {
              "pitch": 54,
              "velocity": 50,
              "position": 19.5,
              "duration": 0.058333333333333334
            },
            {
              "pitch": 54,
              "velocity": 30,
              "position": 19.75,
              "duration": 0.058333333333333334
            },
            {
              "pitch": 54,
              "velocity": 90,
              "position": 20,
              "duration": 0.058333333333333334
            },
            {
              "pitch": 54,
              "velocity": 30,
              "position": 20.25,
              "duration": 0.058333333333333334
            },
            {
              "pitch": 54,
              "velocity": 50,
              "position": 20.5,
              "duration": 0.058333333333333334
            },
            {
              "pitch": 54,
              "velocity": 30,
              "position": 20.75,
              "duration": 0.058333333333333334
            },
            {
              "pitch": 54,
              "velocity": 90,
              "position": 21,
              "duration": 0.058333333333333334
            },
            {
              "pitch": 54,
              "velocity": 30,
              "position": 21.25,
              "duration": 0.058333333333333334
            },
            {
              "pitch": 54,
              "velocity": 50,
              "position": 21.5,
              "duration": 0.058333333333333334
            },
            {
              "pitch": 54,
              "velocity": 30,
              "position": 21.75,
              "duration": 0.058333333333333334
            },
            {
              "pitch": 54,
              "velocity": 90,
              "position": 22,
              "duration": 0.058333333333333334
            },
            {
              "pitch": 54,
              "velocity": 30,
              "position": 22.25,
              "duration": 0.058333333333333334
            },
            {
              "pitch": 54,
              "velocity": 50,
              "position": 22.5,
              "duration": 0.058333333333333334
            },
            {
              "pitch": 54,
              "velocity": 30,
              "position": 22.75,
              "duration": 0.058333333333333334
            },
            {
              "pitch": 54,
              "velocity": 90,
              "position": 23,
              "duration": 0.058333333333333334
            },
            {
              "pitch": 54,
              "velocity": 30,
              "position": 23.25,
              "duration": 0.058333333333333334
            },
            {
              "pitch": 54,
              "velocity": 50,
              "position": 23.5,
              "duration": 0.058333333333333334
            },
            {
              "pitch": 54,
              "velocity": 30,
              "position": 23.75,
              "duration": 0.058333333333333334
            },
            {
              "pitch": 54,
              "velocity": 90,
              "position": 24,
              "duration": 0.058333333333333334
            },
            {
              "pitch": 54,
              "velocity": 30,
              "position": 24.25,
              "duration": 0.058333333333333334
            },
            {
              "pitch": 54,
              "velocity": 50,
              "position": 24.5,
              "duration": 0.058333333333333334
            },
            {
              "pitch": 54,
              "velocity": 30,
              "position": 24.75,
              "duration": 0.058333333333333334
            },
            {
              "pitch": 54,
              "velocity": 90,
              "position": 24.99375,
              "duration": 0.058333333333333334
            },
            {
              "pitch": 54,
              "velocity": 30,
              "position": 25.24375,
              "duration": 0.058333333333333334
            },
            {
              "pitch": 54,
              "velocity": 50,
              "position": 25.5,
              "duration": 0.058333333333333334
            },
            {
              "pitch": 54,
              "velocity": 30,
              "position": 25.75,
              "duration": 0.058333333333333334
            },
            {
              "pitch": 54,
              "velocity": 90,
              "position": 26,
              "duration": 0.058333333333333334
            },
            {
              "pitch": 54,
              "velocity": 30,
              "position": 26.25,
              "duration": 0.058333333333333334
            },
            {
              "pitch": 54,
              "velocity": 50,
              "position": 26.5,
              "duration": 0.058333333333333334
            },
            {
              "pitch": 54,
              "velocity": 30,
              "position": 26.75,
              "duration": 0.058333333333333334
            },
            {
              "pitch": 54,
              "velocity": 90,
              "position": 27,
              "duration": 0.058333333333333334
            },
            {
              "pitch": 54,
              "velocity": 30,
              "position": 27.25,
              "duration": 0.058333333333333334
            },
            {
              "pitch": 54,
              "velocity": 50,
              "position": 27.5,
              "duration": 0.058333333333333334
            },
            {
              "pitch": 54,
              "velocity": 30,
              "position": 27.75,
              "duration": 0.058333333333333334
            },
            {
              "pitch": 54,
              "velocity": 90,
              "position": 28,
              "duration": 0.058333333333333334
            },
            {
              "pitch": 54,
              "velocity": 30,
              "position": 28.25,
              "duration": 0.058333333333333334
            },
            {
              "pitch": 54,
              "velocity": 50,
              "position": 28.5,
              "duration": 0.058333333333333334
            },
            {
              "pitch": 54,
              "velocity": 30,
              "position": 28.75,
              "duration": 0.058333333333333334
            },
            {
              "pitch": 54,
              "velocity": 90,
              "position": 28.99375,
              "duration": 0.058333333333333334
            },
            {
              "pitch": 54,
              "velocity": 30,
              "position": 29.24375,
              "duration": 0.058333333333333334
            },
            {
              "pitch": 54,
              "velocity": 50,
              "position": 29.5,
              "duration": 0.058333333333333334
            },
            {
              "pitch": 54,
              "velocity": 30,
              "position": 29.75,
              "duration": 0.058333333333333334
            },
            {
              "pitch": 54,
              "velocity": 90,
              "position": 29.99375,
              "duration": 0.058333333333333334
            },
            {
              "pitch": 54,
              "velocity": 30,
              "position": 30.24375,
              "duration": 0.058333333333333334
            },
            {
              "pitch": 54,
              "velocity": 50,
              "position": 30.5,
              "duration": 0.058333333333333334
            },
            {
              "pitch": 54,
              "velocity": 30,
              "position": 30.75,
              "duration": 0.058333333333333334
            },
            {
              "pitch": 54,
              "velocity": 90,
              "position": 31,
              "duration": 0.058333333333333334
            },
            {
              "pitch": 54,
              "velocity": 30,
              "position": 31.25,
              "duration": 0.058333333333333334
            },
            {
              "pitch": 54,
              "velocity": 50,
              "position": 31.5,
              "duration": 0.058333333333333334
            },
            {
              "pitch": 54,
              "velocity": 30,
              "position": 31.75,
              "duration": 0.058333333333333334
            },
            {
              "pitch": 54,
              "velocity": 90,
              "position": 32,
              "duration": 0.058333333333333334
            }
          ]
        },
        "9": {
          "ctab": {
            "srcChannel": 9,
            "name": "MainDrum",
            "accType": "RHYTHM",
            "editable": false,
            "mutedNotes": [],
            "mutedChords": [],
            "autoStart": true,
            "sourceChordNote": 0,
            "sourceChordType": "Maj7",
            "ctb2Low": null,
            "ctb2Main": {
              "ntr": "ROOT_FIXED",
              "ntt": "BYPASS",
              "bassOn": false,
              "chordRootUpperLimit": 6,
              "noteLowLimit": 0,
              "noteHighLimit": 127,
              "rtr": "PITCH_SHIFT"
            },
            "ctb2High": null
          },
          "notes": [
            {
              "pitch": 35,
              "velocity": 108,
              "position": 0,
              "duration": 0.00625
            },
            {
              "pitch": 49,
              "velocity": 62,
              "position": 0,
              "duration": 0.00625
            },
            {
              "pitch": 49,
              "velocity": 40,
              "position": 0.5,
              "duration": 0.00625
            },
            {
              "pitch": 38,
              "velocity": 114,
              "position": 1,
              "duration": 0.00625
            },
            {
              "pitch": 52,
              "velocity": 75,
              "position": 1,
              "duration": 0.00625
            },
            {
              "pitch": 44,
              "velocity": 70,
              "position": 1,
              "duration": 0.00625
            },
            {
              "pitch": 49,
              "velocity": 30,
              "position": 1.5,
              "duration": 0.00625
            },
            {
              "pitch": 38,
              "velocity": 60,
              "position": 1.75,
              "duration": 0.00625
            },
            {
              "pitch": 35,
              "velocity": 108,
              "position": 2,
              "duration": 0.00625
            },
            {
              "pitch": 49,
              "velocity": 54,
              "position": 2,
              "duration": 0.00625
            },
            {
              "pitch": 35,
              "velocity": 90,
              "position": 2.5,
              "duration": 0.00625
            },
            {
              "pitch": 49,
              "velocity": 30,
              "position": 2.5,
              "duration": 0.00625
            },
            {
              "pitch": 38,
              "velocity": 114,
              "position": 3,
              "duration": 0.00625
            },
            {
              "pitch": 57,
              "velocity": 86,
              "position": 3,
              "duration": 0.00625
            },
            {
              "pitch": 44,
              "velocity": 70,
              "position": 3,
              "duration": 0.00625
            },
            {
              "pitch": 49,
              "velocity": 30,
              "position": 3.5,
              "duration": 0.00625
            },
            {
              "pitch": 35,
              "velocity": 108,
              "position": 4,
              "duration": 0.00625
            },
            {
              "pitch": 49,
              "velocity": 54,
              "position": 4,
              "duration": 0.00625
            },
            {
              "pitch": 49,
              "velocity": 30,
              "position": 4.5,
              "duration": 0.00625
            },
            {
              "pitch": 38,
              "velocity": 114,
              "position": 5,
              "duration": 0.00625
            },
            {
              "pitch": 52,
              "velocity": 75,
              "position": 5,
              "duration": 0.00625
            },
            {
              "pitch": 44,
              "velocity": 70,
              "position": 5,
              "duration": 0.00625
            },
            {
              "pitch": 49,
              "velocity": 30,
              "position": 5.5,
              "duration": 0.00625
            },
            {
              "pitch": 38,
              "velocity": 60,
              "position": 5.75,
              "duration": 0.00625
            },
            {
              "pitch": 35,
              "velocity": 108,
              "position": 6,
              "duration": 0.00625
            },
            {
              "pitch": 49,
              "velocity": 54,
              "position": 6,
              "duration": 0.00625
            },
            {
              "pitch": 38,
              "velocity": 20,
              "position": 6.25,
              "duration": 0.00625
            },
            {
              "pitch": 35,
              "velocity": 90,
              "position": 6.5,
              "duration": 0.00625
            },
            {
              "pitch": 49,
              "velocity": 30,
              "position": 6.5,
              "duration": 0.00625
            },
            {
              "pitch": 38,
              "velocity": 114,
              "position": 7,
              "duration": 0.00625
            },
            {
              "pitch": 57,
              "velocity": 86,
              "position": 7,
              "duration": 0.00625
            },
            {
              "pitch": 44,
              "velocity": 70,
              "position": 7,
              "duration": 0.00625
            },
            {
              "pitch": 35,
              "velocity": 90,
              "position": 7.5,
              "duration": 0.00625
            },
            {
              "pitch": 49,
              "velocity": 30,
              "position": 7.5,
              "duration": 0.00625
            },
            {
              "pitch": 35,
              "velocity": 108,
              "position": 8,
              "duration": 0.00625
            },
            {
              "pitch": 49,
              "velocity": 54,
              "position": 8,
              "duration": 0.00625
            },
            {
              "pitch": 49,
              "velocity": 30,
              "position": 8.5,
              "duration": 0.00625
            },
            {
              "pitch": 38,
              "velocity": 114,
              "position": 9,
              "duration": 0.00625
            },
            {
              "pitch": 52,
              "velocity": 75,
              "position": 9,
              "duration": 0.00625
            },
            {
              "pitch": 44,
              "velocity": 70,
              "position": 9,
              "duration": 0.00625
            },
            {
              "pitch": 49,
              "velocity": 30,
              "position": 9.5,
              "duration": 0.00625
            },
            {
              "pitch": 38,
              "velocity": 60,
              "position": 9.75,
              "duration": 0.00625
            },
            {
              "pitch": 35,
              "velocity": 108,
              "position": 10,
              "duration": 0.00625
            },
            {
              "pitch": 49,
              "velocity": 54,
              "position": 10,
              "duration": 0.00625
            },
            {
              "pitch": 35,
              "velocity": 90,
              "position": 10.5,
              "duration": 0.00625
            },
            {
              "pitch": 49,
              "velocity": 30,
              "position": 10.5,
              "duration": 0.00625
            },
            {
              "pitch": 38,
              "velocity": 114,
              "position": 11,
              "duration": 0.00625
            },
            {
              "pitch": 57,
              "velocity": 86,
              "position": 11,
              "duration": 0.00625
            },
            {
              "pitch": 44,
              "velocity": 70,
              "position": 11,
              "duration": 0.00625
            },
            {
              "pitch": 49,
              "velocity": 30,
              "position": 11.5,
              "duration": 0.00625
            },
            {
              "pitch": 35,
              "velocity": 108,
              "position": 12,
              "duration": 0.00625
            },
            {
              "pitch": 49,
              "velocity": 54,
              "position": 12,
              "duration": 0.00625
            },
            {
              "pitch": 38,
              "velocity": 109,
              "position": 12.5,
              "duration": 0.00625
            },
            {
              "pitch": 49,
              "velocity": 30,
              "position": 12.5,
              "duration": 0.00625
            },
            {
              "pitch": 38,
              "velocity": 114,
              "position": 13,
              "duration": 0.00625
            },
            {
              "pitch": 52,
              "velocity": 75,
              "position": 13,
              "duration": 0.00625
            },
            {
              "pitch": 44,
              "velocity": 70,
              "position": 13,
              "duration": 0.00625
            },
            {
              "pitch": 38,
              "velocity": 75,
              "position": 13.25,
              "duration": 0.00625
            },
            {
              "pitch": 47,
              "velocity": 79,
              "position": 13.5,
              "duration": 0.00625
            },
            {
              "pitch": 49,
              "velocity": 30,
              "position": 13.5,
              "duration": 0.00625
            },
            {
              "pitch": 38,
              "velocity": 81,
              "position": 13.75,
              "duration": 0.00625
            },
            {
              "pitch": 38,
              "velocity": 106,
              "position": 13.8125,
              "duration": 0.00625
            },
            {
              "pitch": 35,
              "velocity": 108,
              "position": 14,
              "duration": 0.00625
            },
            {
              "pitch": 44,
              "velocity": 70,
              "position": 14,
              "duration": 0.00625
            },
            {
              "pitch": 38,
              "velocity": 72,
              "position": 14.25,
              "duration": 0.00625
            },
            {
              "pitch": 35,
              "velocity": 90,
              "position": 14.5,
              "duration": 0.00625
            },
            {
              "pitch": 38,
              "velocity": 114,
              "position": 14.5,
              "duration": 0.00625
            },
            {
              "pitch": 47,
              "velocity": 84,
              "position": 14.75,
              "duration": 0.00625
            },
            {
              "pitch": 44,
              "velocity": 70,
              "position": 15,
              "duration": 0.00625
            },
            {
              "pitch": 47,
              "velocity": 98,
              "position": 15,
              "duration": 0.00625
            },
            {
              "pitch": 45,
              "velocity": 84,
              "position": 15.25,
              "duration": 0.00625
            },
            {
              "pitch": 35,
              "velocity": 90,
              "position": 15.5,
              "duration": 0.00625
            },
            {
              "pitch": 45,
              "velocity": 98,
              "position": 15.5,
              "duration": 0.00625
            },
            {
              "pitch": 43,
              "velocity": 93,
              "position": 15.75,
              "duration": 0.00625
            },
            {
              "pitch": 35,
              "velocity": 108,
              "position": 16,
              "duration": 0.00625
            },
            {
              "pitch": 49,
              "velocity": 80,
              "position": 16,
              "duration": 0.00625
            },
            {
              "pitch": 38,
              "velocity": 89,
              "position": 16.25,
              "duration": 0.00625
            },
            {
              "pitch": 35,
              "velocity": 74,
              "position": 16.5,
              "duration": 0.00625
            },
            {
              "pitch": 35,
              "velocity": 108,
              "position": 16.75,
              "duration": 0.00625
            },
            {
              "pitch": 38,
              "velocity": 114,
              "position": 17,
              "duration": 0.00625
            },
            {
              "pitch": 57,
              "velocity": 100,
              "position": 17,
              "duration": 0.00625
            },
            {
              "pitch": 44,
              "velocity": 70,
              "position": 17,
              "duration": 0.00625
            },
            {
              "pitch": 49,
              "velocity": 38,
              "position": 17.5,
              "duration": 0.00625
            },
            {
              "pitch": 38,
              "velocity": 107,
              "position": 17.75,
              "duration": 0.00625
            },
            {
              "pitch": 35,
              "velocity": 108,
              "position": 18,
              "duration": 0.00625
            },
            {
              "pitch": 49,
              "velocity": 62,
              "position": 18,
              "duration": 0.00625
            },
            {
              "pitch": 35,
              "velocity": 90,
              "position": 18.5,
              "duration": 0.00625
            },
            {
              "pitch": 49,
              "velocity": 38,
              "position": 18.5,
              "duration": 0.00625
            },
            {
              "pitch": 38,
              "velocity": 114,
              "position": 19,
              "duration": 0.00625
            },
            {
              "pitch": 57,
              "velocity": 83,
              "position": 19,
              "duration": 0.00625
            },
            {
              "pitch": 44,
              "velocity": 70,
              "position": 19,
              "duration": 0.00625
            },
            {
              "pitch": 49,
              "velocity": 38,
              "position": 19.5,
              "duration": 0.00625
            },
            {
              "pitch": 35,
              "velocity": 108,
              "position": 20,
              "duration": 0.00625
            },
            {
              "pitch": 49,
              "velocity": 62,
              "position": 20,
              "duration": 0.00625
            },
            {
              "pitch": 49,
              "velocity": 38,
              "position": 20.5,
              "duration": 0.00625
            },
            {
              "pitch": 38,
              "velocity": 114,
              "position": 21,
              "duration": 0.00625
            },
            {
              "pitch": 52,
              "velocity": 75,
              "position": 21,
              "duration": 0.00625
            },
            {
              "pitch": 44,
              "velocity": 70,
              "position": 21,
              "duration": 0.00625
            },
            {
              "pitch": 49,
              "velocity": 38,
              "position": 21.5,
              "duration": 0.00625
            },
            {
              "pitch": 38,
              "velocity": 114,
              "position": 21.75,
              "duration": 0.00625
            },
            {
              "pitch": 35,
              "velocity": 108,
              "position": 22,
              "duration": 0.00625
            },
            {
              "pitch": 49,
              "velocity": 62,
              "position": 22,
              "duration": 0.00625
            },
            {
              "pitch": 38,
              "velocity": 75,
              "position": 22.25,
              "duration": 0.00625
            },
            {
              "pitch": 35,
              "velocity": 90,
              "position": 22.5,
              "duration": 0.00625
            },
            {
              "pitch": 49,
              "velocity": 38,
              "position": 22.5,
              "duration": 0.00625
            },
            {
              "pitch": 38,
              "velocity": 114,
              "position": 23,
              "duration": 0.00625
            },
            {
              "pitch": 57,
              "velocity": 83,
              "position": 23,
              "duration": 0.00625
            },
            {
              "pitch": 44,
              "velocity": 70,
              "position": 23,
              "duration": 0.00625
            },
            {
              "pitch": 35,
              "velocity": 90,
              "position": 23.5,
              "duration": 0.00625
            },
            {
              "pitch": 49,
              "velocity": 38,
              "position": 23.5,
              "duration": 0.00625
            },
            {
              "pitch": 35,
              "velocity": 108,
              "position": 24,
              "duration": 0.00625
            },
            {
              "pitch": 49,
              "velocity": 62,
              "position": 24,
              "duration": 0.00625
            },
            {
              "pitch": 49,
              "velocity": 38,
              "position": 24.5,
              "duration": 0.00625
            },
            {
              "pitch": 38,
              "velocity": 114,
              "position": 25,
              "duration": 0.00625
            },
            {
              "pitch": 52,
              "velocity": 75,
              "position": 25,
              "duration": 0.00625
            },
            {
              "pitch": 44,
              "velocity": 70,
              "position": 25,
              "duration": 0.00625
            },
            {
              "pitch": 49,
              "velocity": 38,
              "position": 25.5,
              "duration": 0.00625
            },
            {
              "pitch": 38,
              "velocity": 101,
              "position": 25.75,
              "duration": 0.00625
            },
            {
              "pitch": 35,
              "velocity": 108,
              "position": 26,
              "duration": 0.00625
            },
            {
              "pitch": 49,
              "velocity": 62,
              "position": 26,
              "duration": 0.00625
            },
            {
              "pitch": 38,
              "velocity": 75,
              "position": 26.25,
              "duration": 0.00625
            },
            {
              "pitch": 35,
              "velocity": 90,
              "position": 26.5,
              "duration": 0.00625
            },
            {
              "pitch": 49,
              "velocity": 38,
              "position": 26.5,
              "duration": 0.00625
            },
            {
              "pitch": 38,
              "velocity": 75,
              "position": 26.75,
              "duration": 0.00625
            },
            {
              "pitch": 38,
              "velocity": 114,
              "position": 27,
              "duration": 0.00625
            },
            {
              "pitch": 57,
              "velocity": 83,
              "position": 27,
              "duration": 0.00625
            },
            {
              "pitch": 44,
              "velocity": 70,
              "position": 27,
              "duration": 0.00625
            },
            {
              "pitch": 38,
              "velocity": 75,
              "position": 27.25,
              "duration": 0.00625
            },
            {
              "pitch": 49,
              "velocity": 38,
              "position": 27.5,
              "duration": 0.00625
            },
            {
              "pitch": 35,
              "velocity": 108,
              "position": 28,
              "duration": 0.00625
            },
            {
              "pitch": 49,
              "velocity": 62,
              "position": 28,
              "duration": 0.00625
            },
            {
              "pitch": 38,
              "velocity": 101,
              "position": 28.25,
              "duration": 0.00625
            },
            {
              "pitch": 49,
              "velocity": 38,
              "position": 28.5,
              "duration": 0.00625
            },
            {
              "pitch": 38,
              "velocity": 114,
              "position": 29,
              "duration": 0.00625
            },
            {
              "pitch": 52,
              "velocity": 75,
              "position": 29,
              "duration": 0.00625
            },
            {
              "pitch": 44,
              "velocity": 70,
              "position": 29,
              "duration": 0.00625
            },
            {
              "pitch": 49,
              "velocity": 38,
              "position": 29.5,
              "duration": 0.00625
            },
            {
              "pitch": 38,
              "velocity": 78,
              "position": 29.75,
              "duration": 0.00625
            },
            {
              "pitch": 38,
              "velocity": 108,
              "position": 29.822916666666668,
              "duration": 0.00625
            },
            {
              "pitch": 35,
              "velocity": 108,
              "position": 30,
              "duration": 0.00625
            },
            {
              "pitch": 38,
              "velocity": 62,
              "position": 30,
              "duration": 0.00625
            },
            {
              "pitch": 47,
              "velocity": 82,
              "position": 30.25,
              "duration": 0.00625
            },
            {
              "pitch": 35,
              "velocity": 90,
              "position": 30.5,
              "duration": 0.00625
            },
            {
              "pitch": 47,
              "velocity": 98,
              "position": 30.5,
              "duration": 0.00625
            },
            {
              "pitch": 45,
              "velocity": 91,
              "position": 30.75,
              "duration": 0.00625
            },
            {
              "pitch": 38,
              "velocity": 86,
              "position": 31,
              "duration": 0.00625
            },
            {
              "pitch": 44,
              "velocity": 70,
              "position": 31,
              "duration": 0.00625
            },
            {
              "pitch": 34,
              "velocity": 98,
              "position": 31.072916666666668,
              "duration": 0.00625
            },
            {
              "pitch": 43,
              "velocity": 84,
              "position": 31.25,
              "duration": 0.00625
            },
            {
              "pitch": 35,
              "velocity": 90,
              "position": 31.5,
              "duration": 0.00625
            },
            {
              "pitch": 43,
              "velocity": 89,
              "position": 31.5,
              "duration": 0.00625
            },
            {
              "pitch": 41,
              "velocity": 92,
              "position": 31.75,
              "duration": 0.00625
            },
            {
              "pitch": 35,
              "velocity": 108,
              "position": 32,
              "duration": 0.00625
            },
            {
              "pitch": 55,
              "velocity": 78,
              "position": 32,
              "duration": 0.00625
            },
            {
              "pitch": 52,
              "velocity": 80,
              "position": 32,
              "duration": 0.00625
            },
            {
              "pitch": 49,
              "velocity": 14,
              "position": 32.99166666666667,
              "duration": 0.010416666666666666
            },
            {
              "pitch": 57,
              "velocity": 27,
              "position": 33.170833333333334,
              "duration": 0.010416666666666666
            },
            {
              "pitch": 49,
              "velocity": 14,
              "position": 33.3375,
              "duration": 0.010416666666666666
            },
            {
              "pitch": 57,
              "velocity": 26,
              "position": 33.49166666666667,
              "duration": 0.010416666666666666
            },
            {
              "pitch": 49,
              "velocity": 16,
              "position": 33.6625,
              "duration": 0.010416666666666666
            },
            {
              "pitch": 57,
              "velocity": 25,
              "position": 33.83125,
              "duration": 0.010416666666666666
            },
            {
              "pitch": 49,
              "velocity": 15,
              "position": 34,
              "duration": 0.010416666666666666
            },
            {
              "pitch": 57,
              "velocity": 27,
              "position": 34.16041666666667,
              "duration": 0.010416666666666666
            },
            {
              "pitch": 49,
              "velocity": 21,
              "position": 34.3375,
              "duration": 0.010416666666666666
            },
            {
              "pitch": 57,
              "velocity": 32,
              "position": 34.50208333333333,
              "duration": 0.010416666666666666
            },
            {
              "pitch": 49,
              "velocity": 31,
              "position": 34.675,
              "duration": 0.010416666666666666
            },
            {
              "pitch": 57,
              "velocity": 41,
              "position": 34.827083333333334,
              "duration": 0.010416666666666666
            },
            {
              "pitch": 49,
              "velocity": 40,
              "position": 35,
              "duration": 0.010416666666666666
            },
            {
              "pitch": 57,
              "velocity": 51,
              "position": 35.1625,
              "duration": 0.010416666666666666
            },
            {
              "pitch": 49,
              "velocity": 50,
              "position": 35.327083333333334,
              "duration": 0.010416666666666666
            },
            {
              "pitch": 57,
              "velocity": 61,
              "position": 35.49375,
              "duration": 0.010416666666666666
            },
            {
              "pitch": 49,
              "velocity": 60,
              "position": 35.666666666666664,
              "duration": 0.010416666666666666
            },
            {
              "pitch": 57,
              "velocity": 71,
              "position": 35.833333333333336,
              "duration": 0.00625
            },
            {
              "pitch": 49,
              "velocity": 55,
              "position": 36,
              "duration": 0.00625
            },
            {
              "pitch": 57,
              "velocity": 81,
              "position": 36.166666666666664,
              "duration": 0.00625
            },
            {
              "pitch": 49,
              "velocity": 70,
              "position": 36.333333333333336,
              "duration": 0.00625
            },
            {
              "pitch": 57,
              "velocity": 90,
              "position": 36.5,
              "duration": 0.00625
            },
            {
              "pitch": 38,
              "velocity": 63,
              "position": 38.6875,
              "duration": 0.00625
            },
            {
              "pitch": 38,
              "velocity": 117,
              "position": 38.822916666666664,
              "duration": 0.00625
            },
            {
              "pitch": 35,
              "velocity": 109,
              "position": 39,
              "duration": 0.00625
            },
            {
              "pitch": 52,
              "velocity": 64,
              "position": 39,
              "duration": 0.00625
            },
            {
              "pitch": 49,
              "velocity": 72,
              "position": 39,
              "duration": 0.00625
            },
            {
              "pitch": 44,
              "velocity": 70,
              "position": 39,
              "duration": 0.00625
            }
          ]
        },
        "10": {
          "ctab": {
            "srcChannel": 10,
            "name": "Bass M",
            "accType": "BASS",
            "editable": false,
            "mutedNotes": [],
            "mutedChords": [
              "dim7",
              "dim",
              "minMaj7(9)",
              "minMaj7",
              "min7(11)",
              "min7(9)",
              "min(9)",
              "m7b5",
              "min7",
              "min6",
              "min"
            ],
            "autoStart": false,
            "sourceChordNote": 0,
            "sourceChordType": "Maj",
            "ctb2Low": null,
            "ctb2Main": {
              "ntr": "ROOT_TRANSPOSITION",
              "ntt": "BYPASS",
              "bassOn": false,
              "chordRootUpperLimit": 8,
              "noteLowLimit": 28,
              "noteHighLimit": 51,
              "rtr": "PITCH_SHIFT"
            },
            "ctb2High": null
          },
          "notes": [
            {
              "pitch": 24,
              "velocity": 70,
              "position": 0,
              "duration": 0.39166666666666666
            },
            {
              "pitch": 24,
              "velocity": 50,
              "position": 0.5,
              "duration": 0.42291666666666666
            },
            {
              "pitch": 24,
              "velocity": 70,
              "position": 1,
              "duration": 0.6729166666666667
            },
            {
              "pitch": 24,
              "velocity": 60,
              "position": 1.75,
              "duration": 0.31875
            },
            {
              "pitch": 24,
              "velocity": 40,
              "position": 2.25,
              "duration": 0.23541666666666666
            },
            {
              "pitch": 24,
              "velocity": 50,
              "position": 2.5,
              "duration": 0.43333333333333335
            },
            {
              "pitch": 24,
              "velocity": 70,
              "position": 3,
              "duration": 0.43333333333333335
            },
            {
              "pitch": 31,
              "velocity": 50,
              "position": 3.5,
              "duration": 0.43333333333333335
            },
            {
              "pitch": 26,
              "velocity": 70,
              "position": 4,
              "duration": 0.39166666666666666
            },
            {
              "pitch": 26,
              "velocity": 50,
              "position": 4.5,
              "duration": 0.42291666666666666
            },
            {
              "pitch": 26,
              "velocity": 70,
              "position": 5,
              "duration": 0.6729166666666667
            },
            {
              "pitch": 26,
              "velocity": 60,
              "position": 5.75,
              "duration": 0.31875
            },
            {
              "pitch": 26,
              "velocity": 40,
              "position": 6.25,
              "duration": 0.23541666666666666
            },
            {
              "pitch": 26,
              "velocity": 50,
              "position": 6.5,
              "duration": 0.43333333333333335
            },
            {
              "pitch": 26,
              "velocity": 70,
              "position": 7,
              "duration": 0.43333333333333335
            },
            {
              "pitch": 33,
              "velocity": 50,
              "position": 7.5,
              "duration": 0.23541666666666666
            },
            {
              "pitch": 33,
              "velocity": 30,
              "position": 7.75,
              "duration": 0.23541666666666666
            },
            {
              "pitch": 28,
              "velocity": 70,
              "position": 8,
              "duration": 0.39166666666666666
            },
            {
              "pitch": 28,
              "velocity": 50,
              "position": 8.5,
              "duration": 0.42291666666666666
            },
            {
              "pitch": 28,
              "velocity": 70,
              "position": 9,
              "duration": 0.6729166666666667
            },
            {
              "pitch": 28,
              "velocity": 60,
              "position": 9.75,
              "duration": 0.31875
            },
            {
              "pitch": 28,
              "velocity": 40,
              "position": 10.25,
              "duration": 0.23541666666666666
            },
            {
              "pitch": 28,
              "velocity": 50,
              "position": 10.5,
              "duration": 0.43333333333333335
            },
            {
              "pitch": 28,
              "velocity": 70,
              "position": 11,
              "duration": 0.43333333333333335
            },
            {
              "pitch": 24,
              "velocity": 50,
              "position": 11.5,
              "duration": 0.43333333333333335
            },
            {
              "pitch": 29,
              "velocity": 70,
              "position": 12,
              "duration": 0.39166666666666666
            },
            {
              "pitch": 29,
              "velocity": 50,
              "position": 12.5,
              "duration": 0.42291666666666666
            },
            {
              "pitch": 29,
              "velocity": 70,
              "position": 13,
              "duration": 0.6729166666666667
            },
            {
              "pitch": 29,
              "velocity": 60,
              "position": 13.75,
              "duration": 0.31875
            },
            {
              "pitch": 29,
              "velocity": 40,
              "position": 14.25,
              "duration": 0.23541666666666666
            },
            {
              "pitch": 29,
              "velocity": 50,
              "position": 14.5,
              "duration": 0.43333333333333335
            },
            {
              "pitch": 29,
              "velocity": 70,
              "position": 15,
              "duration": 0.43333333333333335
            },
            {
              "pitch": 28,
              "velocity": 50,
              "position": 15.5,
              "duration": 0.23541666666666666
            },
            {
              "pitch": 26,
              "velocity": 30,
              "position": 15.75,
              "duration": 0.23541666666666666
            },
            {
              "pitch": 24,
              "velocity": 70,
              "position": 16,
              "duration": 0.39166666666666666
            },
            {
              "pitch": 24,
              "velocity": 50,
              "position": 16.5,
              "duration": 0.42291666666666666
            },
            {
              "pitch": 24,
              "velocity": 70,
              "position": 17,
              "duration": 0.6729166666666667
            },
            {
              "pitch": 24,
              "velocity": 60,
              "position": 17.75,
              "duration": 0.31875
            },
            {
              "pitch": 24,
              "velocity": 40,
              "position": 18.25,
              "duration": 0.23541666666666666
            },
            {
              "pitch": 24,
              "velocity": 50,
              "position": 18.5,
              "duration": 0.43333333333333335
            },
            {
              "pitch": 24,
              "velocity": 70,
              "position": 19,
              "duration": 0.43333333333333335
            },
            {
              "pitch": 31,
              "velocity": 50,
              "position": 19.5,
              "duration": 0.43333333333333335
            },
            {
              "pitch": 26,
              "velocity": 70,
              "position": 20,
              "duration": 0.39166666666666666
            },
            {
              "pitch": 26,
              "velocity": 50,
              "position": 20.5,
              "duration": 0.42291666666666666
            },
            {
              "pitch": 26,
              "velocity": 70,
              "position": 21,
              "duration": 0.6729166666666667
            },
            {
              "pitch": 26,
              "velocity": 60,
              "position": 21.75,
              "duration": 0.31875
            },
            {
              "pitch": 26,
              "velocity": 40,
              "position": 22.25,
              "duration": 0.23541666666666666
            },
            {
              "pitch": 26,
              "velocity": 50,
              "position": 22.5,
              "duration": 0.43333333333333335
            },
            {
              "pitch": 26,
              "velocity": 70,
              "position": 23,
              "duration": 0.43333333333333335
            },
            {
              "pitch": 33,
              "velocity": 50,
              "position": 23.5,
              "duration": 0.23541666666666666
            },
            {
              "pitch": 33,
              "velocity": 30,
              "position": 23.75,
              "duration": 0.23541666666666666
            },
            {
              "pitch": 28,
              "velocity": 70,
              "position": 24,
              "duration": 0.39166666666666666
            },
            {
              "pitch": 28,
              "velocity": 50,
              "position": 24.5,
              "duration": 0.42291666666666666
            },
            {
              "pitch": 28,
              "velocity": 70,
              "position": 25,
              "duration": 0.6729166666666667
            },
            {
              "pitch": 28,
              "velocity": 60,
              "position": 25.75,
              "duration": 0.31875
            },
            {
              "pitch": 28,
              "velocity": 40,
              "position": 26.25,
              "duration": 0.23541666666666666
            },
            {
              "pitch": 28,
              "velocity": 50,
              "position": 26.5,
              "duration": 0.43333333333333335
            },
            {
              "pitch": 28,
              "velocity": 70,
              "position": 27,
              "duration": 0.43333333333333335
            },
            {
              "pitch": 24,
              "velocity": 50,
              "position": 27.5,
              "duration": 0.43333333333333335
            },
            {
              "pitch": 31,
              "velocity": 70,
              "position": 28,
              "duration": 0.39166666666666666
            },
            {
              "pitch": 31,
              "velocity": 50,
              "position": 28.5,
              "duration": 0.42291666666666666
            },
            {
              "pitch": 31,
              "velocity": 70,
              "position": 29,
              "duration": 0.6729166666666667
            },
            {
              "pitch": 31,
              "velocity": 60,
              "position": 29.75,
              "duration": 0.31875
            },
            {
              "pitch": 31,
              "velocity": 40,
              "position": 30.25,
              "duration": 0.23541666666666666
            },
            {
              "pitch": 31,
              "velocity": 50,
              "position": 30.5,
              "duration": 0.43333333333333335
            },
            {
              "pitch": 31,
              "velocity": 70,
              "position": 31,
              "duration": 0.43333333333333335
            },
            {
              "pitch": 31,
              "velocity": 50,
              "position": 31.5,
              "duration": 0.23541666666666666
            },
            {
              "pitch": 31,
              "velocity": 30,
              "position": 31.75,
              "duration": 0.23541666666666666
            },
            {
              "pitch": 24,
              "velocity": 70,
              "position": 32,
              "duration": 6.985416666666667
            }
          ]
        },
        "11": {
          "ctab": {
            "srcChannel": 11,
            "name": "StGt M",
            "accType": "CHORD1",
            "editable": false,
            "mutedNotes": [],
            "mutedChords": [
              "dim7",
              "dim",
              "minMaj7(9)",
              "minMaj7",
              "min7(11)",
              "min7(9)",
              "min(9)",
              "m7b5",
              "min7",
              "min6",
              "min"
            ],
            "autoStart": false,
            "sourceChordNote": 0,
            "sourceChordType": "Maj",
            "ctb2Low": null,
            "ctb2Main": {
              "ntr": "ROOT_TRANSPOSITION",
              "ntt": "BYPASS",
              "bassOn": false,
              "chordRootUpperLimit": 3,
              "noteLowLimit": 40,
              "noteHighLimit": 70,
              "rtr": "PITCH_SHIFT"
            },
            "ctb2High": null
          },
          "notes": [
            {
              "pitch": 109,
              "velocity": 103,
              "position": 0.010416666666666666,
              "duration": 0.23541666666666666
            },
            {
              "pitch": 48,
              "velocity": 42,
              "position": 0,
              "duration": 0.48541666666666666
            },
            {
              "pitch": 55,
              "velocity": 36,
              "position": 0.010416666666666666,
              "duration": 0.48541666666666666
            },
            {
              "pitch": 72,
              "velocity": 45,
              "position": 0.020833333333333332,
              "duration": 0.48541666666666666
            },
            {
              "pitch": 76,
              "velocity": 45,
              "position": 0.020833333333333332,
              "duration": 0.48541666666666666
            },
            {
              "pitch": 79,
              "velocity": 45,
              "position": 0.020833333333333332,
              "duration": 0.48541666666666666
            },
            {
              "pitch": 105,
              "velocity": 97,
              "position": 0.5,
              "duration": 0.23541666666666666
            },
            {
              "pitch": 48,
              "velocity": 36,
              "position": 0.5,
              "duration": 0.48541666666666666
            },
            {
              "pitch": 55,
              "velocity": 32,
              "position": 0.5104166666666666,
              "duration": 0.48541666666666666
            },
            {
              "pitch": 72,
              "velocity": 33,
              "position": 0.5208333333333334,
              "duration": 0.48541666666666666
            },
            {
              "pitch": 79,
              "velocity": 38,
              "position": 0.5208333333333334,
              "duration": 0.48541666666666666
            },
            {
              "pitch": 76,
              "velocity": 38,
              "position": 0.5208333333333334,
              "duration": 0.48541666666666666
            },
            {
              "pitch": 111,
              "velocity": 103,
              "position": 1,
              "duration": 0.23541666666666666
            },
            {
              "pitch": 79,
              "velocity": 48,
              "position": 1.0208333333333333,
              "duration": 0.7145833333333333
            },
            {
              "pitch": 76,
              "velocity": 48,
              "position": 1.0208333333333333,
              "duration": 0.725
            },
            {
              "pitch": 72,
              "velocity": 46,
              "position": 1.0208333333333333,
              "duration": 0.7354166666666667
            },
            {
              "pitch": 48,
              "velocity": 44,
              "position": 1,
              "duration": 0.75625
            },
            {
              "pitch": 55,
              "velocity": 41,
              "position": 1.0104166666666667,
              "duration": 0.7458333333333333
            },
            {
              "pitch": 109,
              "velocity": 103,
              "position": 1.75,
              "duration": 0.23541666666666666
            },
            {
              "pitch": 79,
              "velocity": 52,
              "position": 1.75,
              "duration": 0.48541666666666666
            },
            {
              "pitch": 76,
              "velocity": 52,
              "position": 1.7604166666666667,
              "duration": 0.48541666666666666
            },
            {
              "pitch": 48,
              "velocity": 46,
              "position": 1.7708333333333333,
              "duration": 0.48541666666666666
            },
            {
              "pitch": 72,
              "velocity": 50,
              "position": 1.7708333333333333,
              "duration": 0.48541666666666666
            },
            {
              "pitch": 55,
              "velocity": 50,
              "position": 1.7708333333333333,
              "duration": 0.48541666666666666
            },
            {
              "pitch": 104,
              "velocity": 103,
              "position": 2.25,
              "duration": 0.23541666666666666
            },
            {
              "pitch": 48,
              "velocity": 38,
              "position": 2.2708333333333335,
              "duration": 0.21458333333333332
            },
            {
              "pitch": 55,
              "velocity": 40,
              "position": 2.2708333333333335,
              "duration": 0.225
            },
            {
              "pitch": 79,
              "velocity": 44,
              "position": 2.25,
              "duration": 0.25625
            },
            {
              "pitch": 72,
              "velocity": 42,
              "position": 2.2708333333333335,
              "duration": 0.23541666666666666
            },
            {
              "pitch": 76,
              "velocity": 36,
              "position": 2.2604166666666665,
              "duration": 0.24583333333333332
            },
            {
              "pitch": 105,
              "velocity": 83,
              "position": 2.5,
              "duration": 0.23541666666666666
            },
            {
              "pitch": 79,
              "velocity": 45,
              "position": 2.5208333333333335,
              "duration": 0.21458333333333332
            },
            {
              "pitch": 76,
              "velocity": 36,
              "position": 2.5208333333333335,
              "duration": 0.225
            },
            {
              "pitch": 72,
              "velocity": 36,
              "position": 2.5208333333333335,
              "duration": 0.23541666666666666
            },
            {
              "pitch": 48,
              "velocity": 42,
              "position": 2.5,
              "duration": 0.25625
            },
            {
              "pitch": 55,
              "velocity": 45,
              "position": 2.5104166666666665,
              "duration": 0.24583333333333332
            },
            {
              "pitch": 104,
              "velocity": 63,
              "position": 2.75,
              "duration": 0.23541666666666666
            },
            {
              "pitch": 48,
              "velocity": 40,
              "position": 2.7708333333333335,
              "duration": 0.21458333333333332
            },
            {
              "pitch": 55,
              "velocity": 34,
              "position": 2.7708333333333335,
              "duration": 0.225
            },
            {
              "pitch": 79,
              "velocity": 42,
              "position": 2.75,
              "duration": 0.25625
            },
            {
              "pitch": 72,
              "velocity": 42,
              "position": 2.7708333333333335,
              "duration": 0.23541666666666666
            },
            {
              "pitch": 76,
              "velocity": 42,
              "position": 2.7604166666666665,
              "duration": 0.24583333333333332
            },
            {
              "pitch": 111,
              "velocity": 103,
              "position": 3,
              "duration": 0.23541666666666666
            },
            {
              "pitch": 48,
              "velocity": 50,
              "position": 3,
              "duration": 0.48541666666666666
            },
            {
              "pitch": 55,
              "velocity": 50,
              "position": 3.0104166666666665,
              "duration": 0.48541666666666666
            },
            {
              "pitch": 72,
              "velocity": 50,
              "position": 3.0208333333333335,
              "duration": 0.48541666666666666
            },
            {
              "pitch": 79,
              "velocity": 50,
              "position": 3.0208333333333335,
              "duration": 0.48541666666666666
            },
            {
              "pitch": 76,
              "velocity": 50,
              "position": 3.0208333333333335,
              "duration": 0.48541666666666666
            },
            {
              "pitch": 105,
              "velocity": 83,
              "position": 3.5,
              "duration": 0.23541666666666666
            },
            {
              "pitch": 79,
              "velocity": 45,
              "position": 3.5208333333333335,
              "duration": 0.21458333333333332
            },
            {
              "pitch": 76,
              "velocity": 45,
              "position": 3.5208333333333335,
              "duration": 0.225
            },
            {
              "pitch": 72,
              "velocity": 45,
              "position": 3.5208333333333335,
              "duration": 0.23541666666666666
            },
            {
              "pitch": 48,
              "velocity": 45,
              "position": 3.5,
              "duration": 0.25625
            },
            {
              "pitch": 55,
              "velocity": 45,
              "position": 3.5104166666666665,
              "duration": 0.24583333333333332
            },
            {
              "pitch": 79,
              "velocity": 36,
              "position": 3.75,
              "duration": 0.23541666666666666
            },
            {
              "pitch": 72,
              "velocity": 32,
              "position": 3.7708333333333335,
              "duration": 0.21458333333333332
            },
            {
              "pitch": 55,
              "velocity": 32,
              "position": 3.7708333333333335,
              "duration": 0.21458333333333332
            },
            {
              "pitch": 48,
              "velocity": 32,
              "position": 3.7708333333333335,
              "duration": 0.21458333333333332
            },
            {
              "pitch": 76,
              "velocity": 36,
              "position": 3.7604166666666665,
              "duration": 0.225
            },
            {
              "pitch": 104,
              "velocity": 63,
              "position": 3.75,
              "duration": 0.23541666666666666
            },
            {
              "pitch": 109,
              "velocity": 103,
              "position": 4.010416666666667,
              "duration": 0.23541666666666666
            },
            {
              "pitch": 50,
              "velocity": 42,
              "position": 4,
              "duration": 0.48541666666666666
            },
            {
              "pitch": 60,
              "velocity": 36,
              "position": 4.010416666666667,
              "duration": 0.48541666666666666
            },
            {
              "pitch": 72,
              "velocity": 45,
              "position": 4.020833333333333,
              "duration": 0.48541666666666666
            },
            {
              "pitch": 77,
              "velocity": 45,
              "position": 4.020833333333333,
              "duration": 0.48541666666666666
            },
            {
              "pitch": 79,
              "velocity": 45,
              "position": 4.020833333333333,
              "duration": 0.48541666666666666
            },
            {
              "pitch": 105,
              "velocity": 97,
              "position": 4.5,
              "duration": 0.23541666666666666
            },
            {
              "pitch": 50,
              "velocity": 36,
              "position": 4.5,
              "duration": 0.48541666666666666
            },
            {
              "pitch": 60,
              "velocity": 32,
              "position": 4.510416666666667,
              "duration": 0.48541666666666666
            },
            {
              "pitch": 72,
              "velocity": 33,
              "position": 4.520833333333333,
              "duration": 0.48541666666666666
            },
            {
              "pitch": 79,
              "velocity": 38,
              "position": 4.520833333333333,
              "duration": 0.48541666666666666
            },
            {
              "pitch": 77,
              "velocity": 38,
              "position": 4.520833333333333,
              "duration": 0.48541666666666666
            },
            {
              "pitch": 111,
              "velocity": 103,
              "position": 5,
              "duration": 0.23541666666666666
            },
            {
              "pitch": 79,
              "velocity": 48,
              "position": 5.020833333333333,
              "duration": 0.7145833333333333
            },
            {
              "pitch": 77,
              "velocity": 48,
              "position": 5.020833333333333,
              "duration": 0.725
            },
            {
              "pitch": 72,
              "velocity": 46,
              "position": 5.020833333333333,
              "duration": 0.7354166666666667
            },
            {
              "pitch": 50,
              "velocity": 44,
              "position": 5,
              "duration": 0.75625
            },
            {
              "pitch": 60,
              "velocity": 41,
              "position": 5.010416666666667,
              "duration": 0.7458333333333333
            },
            {
              "pitch": 109,
              "velocity": 103,
              "position": 5.75,
              "duration": 0.23541666666666666
            },
            {
              "pitch": 79,
              "velocity": 52,
              "position": 5.75,
              "duration": 0.48541666666666666
            },
            {
              "pitch": 77,
              "velocity": 52,
              "position": 5.760416666666667,
              "duration": 0.48541666666666666
            },
            {
              "pitch": 50,
              "velocity": 46,
              "position": 5.770833333333333,
              "duration": 0.48541666666666666
            },
            {
              "pitch": 72,
              "velocity": 50,
              "position": 5.770833333333333,
              "duration": 0.48541666666666666
            },
            {
              "pitch": 60,
              "velocity": 50,
              "position": 5.770833333333333,
              "duration": 0.48541666666666666
            },
            {
              "pitch": 104,
              "velocity": 103,
              "position": 6.25,
              "duration": 0.23541666666666666
            },
            {
              "pitch": 50,
              "velocity": 38,
              "position": 6.270833333333333,
              "duration": 0.21458333333333332
            },
            {
              "pitch": 60,
              "velocity": 40,
              "position": 6.270833333333333,
              "duration": 0.225
            },
            {
              "pitch": 79,
              "velocity": 44,
              "position": 6.25,
              "duration": 0.25625
            },
            {
              "pitch": 72,
              "velocity": 42,
              "position": 6.270833333333333,
              "duration": 0.23541666666666666
            },
            {
              "pitch": 77,
              "velocity": 36,
              "position": 6.260416666666667,
              "duration": 0.24583333333333332
            },
            {
              "pitch": 105,
              "velocity": 83,
              "position": 6.5,
              "duration": 0.23541666666666666
            },
            {
              "pitch": 79,
              "velocity": 45,
              "position": 6.520833333333333,
              "duration": 0.21458333333333332
            },
            {
              "pitch": 77,
              "velocity": 42,
              "position": 6.520833333333333,
              "duration": 0.225
            },
            {
              "pitch": 72,
              "velocity": 36,
              "position": 6.520833333333333,
              "duration": 0.23541666666666666
            },
            {
              "pitch": 50,
              "velocity": 42,
              "position": 6.5,
              "duration": 0.25625
            },
            {
              "pitch": 60,
              "velocity": 45,
              "position": 6.510416666666667,
              "duration": 0.24583333333333332
            },
            {
              "pitch": 104,
              "velocity": 63,
              "position": 6.75,
              "duration": 0.23541666666666666
            },
            {
              "pitch": 50,
              "velocity": 40,
              "position": 6.770833333333333,
              "duration": 0.21458333333333332
            },
            {
              "pitch": 60,
              "velocity": 40,
              "position": 6.770833333333333,
              "duration": 0.225
            },
            {
              "pitch": 79,
              "velocity": 34,
              "position": 6.75,
              "duration": 0.25625
            },
            {
              "pitch": 72,
              "velocity": 36,
              "position": 6.770833333333333,
              "duration": 0.23541666666666666
            },
            {
              "pitch": 77,
              "velocity": 32,
              "position": 6.760416666666667,
              "duration": 0.24583333333333332
            },
            {
              "pitch": 111,
              "velocity": 103,
              "position": 7,
              "duration": 0.23541666666666666
            },
            {
              "pitch": 50,
              "velocity": 50,
              "position": 7,
              "duration": 0.48541666666666666
            },
            {
              "pitch": 60,
              "velocity": 50,
              "position": 7.010416666666667,
              "duration": 0.48541666666666666
            },
            {
              "pitch": 72,
              "velocity": 50,
              "position": 7.020833333333333,
              "duration": 0.48541666666666666
            },
            {
              "pitch": 79,
              "velocity": 50,
              "position": 7.020833333333333,
              "duration": 0.48541666666666666
            },
            {
              "pitch": 77,
              "velocity": 50,
              "position": 7.020833333333333,
              "duration": 0.48541666666666666
            },
            {
              "pitch": 105,
              "velocity": 83,
              "position": 7.5,
              "duration": 0.23541666666666666
            },
            {
              "pitch": 79,
              "velocity": 45,
              "position": 7.520833333333333,
              "duration": 0.21458333333333332
            },
            {
              "pitch": 77,
              "velocity": 45,
              "position": 7.520833333333333,
              "duration": 0.225
            },
            {
              "pitch": 72,
              "velocity": 45,
              "position": 7.520833333333333,
              "duration": 0.23541666666666666
            },
            {
              "pitch": 50,
              "velocity": 45,
              "position": 7.5,
              "duration": 0.25625
            },
            {
              "pitch": 60,
              "velocity": 45,
              "position": 7.510416666666667,
              "duration": 0.24583333333333332
            },
            {
              "pitch": 104,
              "velocity": 63,
              "position": 7.75,
              "duration": 0.23541666666666666
            },
            {
              "pitch": 72,
              "velocity": 32,
              "position": 7.770833333333333,
              "duration": 0.225
            },
            {
              "pitch": 60,
              "velocity": 32,
              "position": 7.770833333333333,
              "duration": 0.225
            },
            {
              "pitch": 50,
              "velocity": 32,
              "position": 7.770833333333333,
              "duration": 0.225
            },
            {
              "pitch": 77,
              "velocity": 36,
              "position": 7.760416666666667,
              "duration": 0.23541666666666666
            },
            {
              "pitch": 79,
              "velocity": 36,
              "position": 7.75,
              "duration": 0.24583333333333332
            },
            {
              "pitch": 109,
              "velocity": 103,
              "position": 8.010416666666666,
              "duration": 0.23541666666666666
            },
            {
              "pitch": 52,
              "velocity": 42,
              "position": 8,
              "duration": 0.48541666666666666
            },
            {
              "pitch": 60,
              "velocity": 36,
              "position": 8.010416666666666,
              "duration": 0.48541666666666666
            },
            {
              "pitch": 72,
              "velocity": 45,
              "position": 8.020833333333334,
              "duration": 0.48541666666666666
            },
            {
              "pitch": 76,
              "velocity": 45,
              "position": 8.020833333333334,
              "duration": 0.48541666666666666
            },
            {
              "pitch": 79,
              "velocity": 45,
              "position": 8.020833333333334,
              "duration": 0.48541666666666666
            },
            {
              "pitch": 105,
              "velocity": 97,
              "position": 8.5,
              "duration": 0.23541666666666666
            },
            {
              "pitch": 52,
              "velocity": 36,
              "position": 8.5,
              "duration": 0.48541666666666666
            },
            {
              "pitch": 60,
              "velocity": 32,
              "position": 8.510416666666666,
              "duration": 0.48541666666666666
            },
            {
              "pitch": 72,
              "velocity": 33,
              "position": 8.520833333333334,
              "duration": 0.48541666666666666
            },
            {
              "pitch": 79,
              "velocity": 38,
              "position": 8.520833333333334,
              "duration": 0.48541666666666666
            },
            {
              "pitch": 76,
              "velocity": 38,
              "position": 8.520833333333334,
              "duration": 0.48541666666666666
            },
            {
              "pitch": 111,
              "velocity": 103,
              "position": 9,
              "duration": 0.23541666666666666
            },
            {
              "pitch": 79,
              "velocity": 48,
              "position": 9.020833333333334,
              "duration": 0.7145833333333333
            },
            {
              "pitch": 76,
              "velocity": 48,
              "position": 9.020833333333334,
              "duration": 0.725
            },
            {
              "pitch": 72,
              "velocity": 46,
              "position": 9.020833333333334,
              "duration": 0.7354166666666667
            },
            {
              "pitch": 52,
              "velocity": 44,
              "position": 9,
              "duration": 0.75625
            },
            {
              "pitch": 60,
              "velocity": 41,
              "position": 9.010416666666666,
              "duration": 0.7458333333333333
            },
            {
              "pitch": 109,
              "velocity": 103,
              "position": 9.75,
              "duration": 0.23541666666666666
            },
            {
              "pitch": 79,
              "velocity": 52,
              "position": 9.75,
              "duration": 0.48541666666666666
            },
            {
              "pitch": 76,
              "velocity": 52,
              "position": 9.760416666666666,
              "duration": 0.48541666666666666
            },
            {
              "pitch": 52,
              "velocity": 46,
              "position": 9.770833333333334,
              "duration": 0.48541666666666666
            },
            {
              "pitch": 72,
              "velocity": 50,
              "position": 9.770833333333334,
              "duration": 0.48541666666666666
            },
            {
              "pitch": 60,
              "velocity": 50,
              "position": 9.770833333333334,
              "duration": 0.48541666666666666
            },
            {
              "pitch": 104,
              "velocity": 103,
              "position": 10.25,
              "duration": 0.23541666666666666
            },
            {
              "pitch": 52,
              "velocity": 38,
              "position": 10.270833333333334,
              "duration": 0.21458333333333332
            },
            {
              "pitch": 60,
              "velocity": 40,
              "position": 10.270833333333334,
              "duration": 0.225
            },
            {
              "pitch": 79,
              "velocity": 44,
              "position": 10.25,
              "duration": 0.25625
            },
            {
              "pitch": 72,
              "velocity": 42,
              "position": 10.270833333333334,
              "duration": 0.23541666666666666
            },
            {
              "pitch": 76,
              "velocity": 36,
              "position": 10.260416666666666,
              "duration": 0.24583333333333332
            },
            {
              "pitch": 105,
              "velocity": 83,
              "position": 10.5,
              "duration": 0.23541666666666666
            },
            {
              "pitch": 79,
              "velocity": 45,
              "position": 10.520833333333334,
              "duration": 0.21458333333333332
            },
            {
              "pitch": 76,
              "velocity": 42,
              "position": 10.520833333333334,
              "duration": 0.225
            },
            {
              "pitch": 72,
              "velocity": 36,
              "position": 10.520833333333334,
              "duration": 0.23541666666666666
            },
            {
              "pitch": 52,
              "velocity": 42,
              "position": 10.5,
              "duration": 0.25625
            },
            {
              "pitch": 60,
              "velocity": 45,
              "position": 10.510416666666666,
              "duration": 0.24583333333333332
            },
            {
              "pitch": 104,
              "velocity": 63,
              "position": 10.75,
              "duration": 0.23541666666666666
            },
            {
              "pitch": 52,
              "velocity": 40,
              "position": 10.770833333333334,
              "duration": 0.21458333333333332
            },
            {
              "pitch": 60,
              "velocity": 40,
              "position": 10.770833333333334,
              "duration": 0.225
            },
            {
              "pitch": 79,
              "velocity": 34,
              "position": 10.75,
              "duration": 0.25625
            },
            {
              "pitch": 72,
              "velocity": 36,
              "position": 10.770833333333334,
              "duration": 0.23541666666666666
            },
            {
              "pitch": 76,
              "velocity": 32,
              "position": 10.760416666666666,
              "duration": 0.24583333333333332
            },
            {
              "pitch": 111,
              "velocity": 103,
              "position": 11,
              "duration": 0.23541666666666666
            },
            {
              "pitch": 52,
              "velocity": 50,
              "position": 11,
              "duration": 0.48541666666666666
            },
            {
              "pitch": 60,
              "velocity": 50,
              "position": 11.010416666666666,
              "duration": 0.48541666666666666
            },
            {
              "pitch": 72,
              "velocity": 50,
              "position": 11.020833333333334,
              "duration": 0.48541666666666666
            },
            {
              "pitch": 79,
              "velocity": 50,
              "position": 11.020833333333334,
              "duration": 0.48541666666666666
            },
            {
              "pitch": 76,
              "velocity": 50,
              "position": 11.020833333333334,
              "duration": 0.48541666666666666
            },
            {
              "pitch": 105,
              "velocity": 83,
              "position": 11.5,
              "duration": 0.23541666666666666
            },
            {
              "pitch": 79,
              "velocity": 45,
              "position": 11.520833333333334,
              "duration": 0.21458333333333332
            },
            {
              "pitch": 76,
              "velocity": 45,
              "position": 11.520833333333334,
              "duration": 0.225
            },
            {
              "pitch": 72,
              "velocity": 45,
              "position": 11.520833333333334,
              "duration": 0.23541666666666666
            },
            {
              "pitch": 52,
              "velocity": 45,
              "position": 11.5,
              "duration": 0.25625
            },
            {
              "pitch": 60,
              "velocity": 45,
              "position": 11.510416666666666,
              "duration": 0.24583333333333332
            },
            {
              "pitch": 104,
              "velocity": 63,
              "position": 11.75,
              "duration": 0.23541666666666666
            },
            {
              "pitch": 72,
              "velocity": 32,
              "position": 11.770833333333334,
              "duration": 0.225
            },
            {
              "pitch": 60,
              "velocity": 32,
              "position": 11.770833333333334,
              "duration": 0.225
            },
            {
              "pitch": 52,
              "velocity": 32,
              "position": 11.770833333333334,
              "duration": 0.225
            },
            {
              "pitch": 76,
              "velocity": 36,
              "position": 11.760416666666666,
              "duration": 0.23541666666666666
            },
            {
              "pitch": 79,
              "velocity": 36,
              "position": 11.75,
              "duration": 0.24583333333333332
            },
            {
              "pitch": 109,
              "velocity": 103,
              "position": 12.010416666666666,
              "duration": 0.23541666666666666
            },
            {
              "pitch": 53,
              "velocity": 42,
              "position": 12,
              "duration": 0.48541666666666666
            },
            {
              "pitch": 60,
              "velocity": 36,
              "position": 12.010416666666666,
              "duration": 0.48541666666666666
            },
            {
              "pitch": 72,
              "velocity": 45,
              "position": 12.020833333333334,
              "duration": 0.48541666666666666
            },
            {
              "pitch": 77,
              "velocity": 45,
              "position": 12.020833333333334,
              "duration": 0.48541666666666666
            },
            {
              "pitch": 79,
              "velocity": 45,
              "position": 12.020833333333334,
              "duration": 0.48541666666666666
            },
            {
              "pitch": 105,
              "velocity": 97,
              "position": 12.5,
              "duration": 0.23541666666666666
            },
            {
              "pitch": 53,
              "velocity": 36,
              "position": 12.5,
              "duration": 0.48541666666666666
            },
            {
              "pitch": 60,
              "velocity": 32,
              "position": 12.510416666666666,
              "duration": 0.48541666666666666
            },
            {
              "pitch": 72,
              "velocity": 33,
              "position": 12.520833333333334,
              "duration": 0.48541666666666666
            },
            {
              "pitch": 79,
              "velocity": 38,
              "position": 12.520833333333334,
              "duration": 0.48541666666666666
            },
            {
              "pitch": 77,
              "velocity": 38,
              "position": 12.520833333333334,
              "duration": 0.48541666666666666
            },
            {
              "pitch": 111,
              "velocity": 103,
              "position": 13,
              "duration": 0.23541666666666666
            },
            {
              "pitch": 79,
              "velocity": 48,
              "position": 13.020833333333334,
              "duration": 0.7145833333333333
            },
            {
              "pitch": 77,
              "velocity": 48,
              "position": 13.020833333333334,
              "duration": 0.725
            },
            {
              "pitch": 72,
              "velocity": 46,
              "position": 13.020833333333334,
              "duration": 0.7354166666666667
            },
            {
              "pitch": 53,
              "velocity": 44,
              "position": 13,
              "duration": 0.75625
            },
            {
              "pitch": 60,
              "velocity": 41,
              "position": 13.010416666666666,
              "duration": 0.7458333333333333
            },
            {
              "pitch": 109,
              "velocity": 103,
              "position": 13.75,
              "duration": 0.23541666666666666
            },
            {
              "pitch": 79,
              "velocity": 52,
              "position": 13.75,
              "duration": 0.48541666666666666
            },
            {
              "pitch": 77,
              "velocity": 52,
              "position": 13.760416666666666,
              "duration": 0.48541666666666666
            },
            {
              "pitch": 53,
              "velocity": 46,
              "position": 13.770833333333334,
              "duration": 0.48541666666666666
            },
            {
              "pitch": 72,
              "velocity": 50,
              "position": 13.770833333333334,
              "duration": 0.48541666666666666
            },
            {
              "pitch": 60,
              "velocity": 50,
              "position": 13.770833333333334,
              "duration": 0.48541666666666666
            },
            {
              "pitch": 104,
              "velocity": 103,
              "position": 14.25,
              "duration": 0.23541666666666666
            },
            {
              "pitch": 53,
              "velocity": 38,
              "position": 14.270833333333334,
              "duration": 0.21458333333333332
            },
            {
              "pitch": 60,
              "velocity": 40,
              "position": 14.270833333333334,
              "duration": 0.225
            },
            {
              "pitch": 79,
              "velocity": 44,
              "position": 14.25,
              "duration": 0.25625
            },
            {
              "pitch": 72,
              "velocity": 42,
              "position": 14.270833333333334,
              "duration": 0.23541666666666666
            },
            {
              "pitch": 77,
              "velocity": 36,
              "position": 14.260416666666666,
              "duration": 0.24583333333333332
            },
            {
              "pitch": 105,
              "velocity": 83,
              "position": 14.5,
              "duration": 0.23541666666666666
            },
            {
              "pitch": 79,
              "velocity": 45,
              "position": 14.520833333333334,
              "duration": 0.21458333333333332
            },
            {
              "pitch": 77,
              "velocity": 42,
              "position": 14.520833333333334,
              "duration": 0.225
            },
            {
              "pitch": 72,
              "velocity": 36,
              "position": 14.520833333333334,
              "duration": 0.23541666666666666
            },
            {
              "pitch": 53,
              "velocity": 42,
              "position": 14.5,
              "duration": 0.25625
            },
            {
              "pitch": 60,
              "velocity": 45,
              "position": 14.510416666666666,
              "duration": 0.24583333333333332
            },
            {
              "pitch": 104,
              "velocity": 63,
              "position": 14.75,
              "duration": 0.23541666666666666
            },
            {
              "pitch": 53,
              "velocity": 40,
              "position": 14.770833333333334,
              "duration": 0.21458333333333332
            },
            {
              "pitch": 60,
              "velocity": 40,
              "position": 14.770833333333334,
              "duration": 0.225
            },
            {
              "pitch": 79,
              "velocity": 34,
              "position": 14.75,
              "duration": 0.25625
            },
            {
              "pitch": 72,
              "velocity": 36,
              "position": 14.770833333333334,
              "duration": 0.23541666666666666
            },
            {
              "pitch": 77,
              "velocity": 32,
              "position": 14.760416666666666,
              "duration": 0.24583333333333332
            },
            {
              "pitch": 111,
              "velocity": 103,
              "position": 15,
              "duration": 0.23541666666666666
            },
            {
              "pitch": 53,
              "velocity": 50,
              "position": 15,
              "duration": 0.48541666666666666
            },
            {
              "pitch": 60,
              "velocity": 50,
              "position": 15.010416666666666,
              "duration": 0.48541666666666666
            },
            {
              "pitch": 72,
              "velocity": 50,
              "position": 15.020833333333334,
              "duration": 0.48541666666666666
            },
            {
              "pitch": 79,
              "velocity": 50,
              "position": 15.020833333333334,
              "duration": 0.48541666666666666
            },
            {
              "pitch": 77,
              "velocity": 50,
              "position": 15.020833333333334,
              "duration": 0.48541666666666666
            },
            {
              "pitch": 105,
              "velocity": 83,
              "position": 15.5,
              "duration": 0.23541666666666666
            },
            {
              "pitch": 79,
              "velocity": 45,
              "position": 15.520833333333334,
              "duration": 0.21458333333333332
            },
            {
              "pitch": 77,
              "velocity": 45,
              "position": 15.520833333333334,
              "duration": 0.225
            },
            {
              "pitch": 72,
              "velocity": 45,
              "position": 15.520833333333334,
              "duration": 0.23541666666666666
            },
            {
              "pitch": 53,
              "velocity": 45,
              "position": 15.5,
              "duration": 0.25625
            },
            {
              "pitch": 60,
              "velocity": 45,
              "position": 15.510416666666666,
              "duration": 0.24583333333333332
            },
            {
              "pitch": 104,
              "velocity": 63,
              "position": 15.75,
              "duration": 0.23541666666666666
            },
            {
              "pitch": 72,
              "velocity": 32,
              "position": 15.770833333333334,
              "duration": 0.225
            },
            {
              "pitch": 60,
              "velocity": 32,
              "position": 15.770833333333334,
              "duration": 0.225
            },
            {
              "pitch": 53,
              "velocity": 32,
              "position": 15.770833333333334,
              "duration": 0.225
            },
            {
              "pitch": 77,
              "velocity": 36,
              "position": 15.760416666666666,
              "duration": 0.23541666666666666
            },
            {
              "pitch": 79,
              "velocity": 36,
              "position": 15.75,
              "duration": 0.24583333333333332
            },
            {
              "pitch": 109,
              "velocity": 103,
              "position": 16,
              "duration": 0.23541666666666666
            },
            {
              "pitch": 48,
              "velocity": 42,
              "position": 16,
              "duration": 0.48541666666666666
            },
            {
              "pitch": 55,
              "velocity": 36,
              "position": 16.010416666666668,
              "duration": 0.48541666666666666
            },
            {
              "pitch": 79,
              "velocity": 45,
              "position": 16.020833333333332,
              "duration": 0.48541666666666666
            },
            {
              "pitch": 72,
              "velocity": 45,
              "position": 16.020833333333332,
              "duration": 0.48541666666666666
            },
            {
              "pitch": 76,
              "velocity": 45,
              "position": 16.020833333333332,
              "duration": 0.48541666666666666
            },
            {
              "pitch": 105,
              "velocity": 97,
              "position": 16.489583333333332,
              "duration": 0.23541666666666666
            },
            {
              "pitch": 48,
              "velocity": 36,
              "position": 16.5,
              "duration": 0.48541666666666666
            },
            {
              "pitch": 55,
              "velocity": 32,
              "position": 16.510416666666668,
              "duration": 0.48541666666666666
            },
            {
              "pitch": 79,
              "velocity": 38,
              "position": 16.520833333333332,
              "duration": 0.48541666666666666
            },
            {
              "pitch": 72,
              "velocity": 33,
              "position": 16.520833333333332,
              "duration": 0.48541666666666666
            },
            {
              "pitch": 76,
              "velocity": 38,
              "position": 16.520833333333332,
              "duration": 0.48541666666666666
            },
            {
              "pitch": 111,
              "velocity": 103,
              "position": 16.989583333333332,
              "duration": 0.23541666666666666
            },
            {
              "pitch": 79,
              "velocity": 48,
              "position": 17.020833333333332,
              "duration": 0.7145833333333333
            },
            {
              "pitch": 76,
              "velocity": 48,
              "position": 17.020833333333332,
              "duration": 0.725
            },
            {
              "pitch": 48,
              "velocity": 44,
              "position": 17,
              "duration": 0.75625
            },
            {
              "pitch": 72,
              "velocity": 46,
              "position": 17.020833333333332,
              "duration": 0.7354166666666667
            },
            {
              "pitch": 55,
              "velocity": 41,
              "position": 17.010416666666668,
              "duration": 0.7458333333333333
            },
            {
              "pitch": 109,
              "velocity": 103,
              "position": 17.739583333333332,
              "duration": 0.23541666666666666
            },
            {
              "pitch": 79,
              "velocity": 52,
              "position": 17.75,
              "duration": 0.48541666666666666
            },
            {
              "pitch": 76,
              "velocity": 52,
              "position": 17.760416666666668,
              "duration": 0.48541666666666666
            },
            {
              "pitch": 72,
              "velocity": 50,
              "position": 17.770833333333332,
              "duration": 0.48541666666666666
            },
            {
              "pitch": 48,
              "velocity": 46,
              "position": 17.770833333333332,
              "duration": 0.48541666666666666
            },
            {
              "pitch": 55,
              "velocity": 50,
              "position": 17.770833333333332,
              "duration": 0.48541666666666666
            },
            {
              "pitch": 104,
              "velocity": 103,
              "position": 18.239583333333332,
              "duration": 0.23541666666666666
            },
            {
              "pitch": 48,
              "velocity": 38,
              "position": 18.270833333333332,
              "duration": 0.21458333333333332
            },
            {
              "pitch": 55,
              "velocity": 40,
              "position": 18.270833333333332,
              "duration": 0.225
            },
            {
              "pitch": 72,
              "velocity": 42,
              "position": 18.270833333333332,
              "duration": 0.23541666666666666
            },
            {
              "pitch": 79,
              "velocity": 44,
              "position": 18.25,
              "duration": 0.25625
            },
            {
              "pitch": 76,
              "velocity": 36,
              "position": 18.260416666666668,
              "duration": 0.24583333333333332
            },
            {
              "pitch": 105,
              "velocity": 83,
              "position": 18.489583333333332,
              "duration": 0.23541666666666666
            },
            {
              "pitch": 79,
              "velocity": 45,
              "position": 18.520833333333332,
              "duration": 0.21458333333333332
            },
            {
              "pitch": 76,
              "velocity": 36,
              "position": 18.520833333333332,
              "duration": 0.225
            },
            {
              "pitch": 48,
              "velocity": 42,
              "position": 18.5,
              "duration": 0.25625
            },
            {
              "pitch": 72,
              "velocity": 36,
              "position": 18.520833333333332,
              "duration": 0.23541666666666666
            },
            {
              "pitch": 55,
              "velocity": 45,
              "position": 18.510416666666668,
              "duration": 0.24583333333333332
            },
            {
              "pitch": 104,
              "velocity": 63,
              "position": 18.739583333333332,
              "duration": 0.23541666666666666
            },
            {
              "pitch": 48,
              "velocity": 40,
              "position": 18.770833333333332,
              "duration": 0.21458333333333332
            },
            {
              "pitch": 55,
              "velocity": 40,
              "position": 18.770833333333332,
              "duration": 0.225
            },
            {
              "pitch": 72,
              "velocity": 42,
              "position": 18.770833333333332,
              "duration": 0.23541666666666666
            },
            {
              "pitch": 79,
              "velocity": 42,
              "position": 18.75,
              "duration": 0.25625
            },
            {
              "pitch": 76,
              "velocity": 42,
              "position": 18.760416666666668,
              "duration": 0.24583333333333332
            },
            {
              "pitch": 111,
              "velocity": 103,
              "position": 18.989583333333332,
              "duration": 0.23541666666666666
            },
            {
              "pitch": 48,
              "velocity": 50,
              "position": 19,
              "duration": 0.48541666666666666
            },
            {
              "pitch": 55,
              "velocity": 50,
              "position": 19.010416666666668,
              "duration": 0.48541666666666666
            },
            {
              "pitch": 79,
              "velocity": 50,
              "position": 19.020833333333332,
              "duration": 0.48541666666666666
            },
            {
              "pitch": 72,
              "velocity": 50,
              "position": 19.020833333333332,
              "duration": 0.48541666666666666
            },
            {
              "pitch": 76,
              "velocity": 50,
              "position": 19.020833333333332,
              "duration": 0.48541666666666666
            },
            {
              "pitch": 105,
              "velocity": 83,
              "position": 19.489583333333332,
              "duration": 0.23541666666666666
            },
            {
              "pitch": 79,
              "velocity": 45,
              "position": 19.520833333333332,
              "duration": 0.21458333333333332
            },
            {
              "pitch": 76,
              "velocity": 45,
              "position": 19.520833333333332,
              "duration": 0.225
            },
            {
              "pitch": 48,
              "velocity": 45,
              "position": 19.5,
              "duration": 0.25625
            },
            {
              "pitch": 72,
              "velocity": 45,
              "position": 19.520833333333332,
              "duration": 0.23541666666666666
            },
            {
              "pitch": 55,
              "velocity": 45,
              "position": 19.510416666666668,
              "duration": 0.24583333333333332
            },
            {
              "pitch": 104,
              "velocity": 63,
              "position": 19.739583333333332,
              "duration": 0.23541666666666666
            },
            {
              "pitch": 72,
              "velocity": 32,
              "position": 19.770833333333332,
              "duration": 0.21458333333333332
            },
            {
              "pitch": 55,
              "velocity": 32,
              "position": 19.770833333333332,
              "duration": 0.21458333333333332
            },
            {
              "pitch": 48,
              "velocity": 32,
              "position": 19.770833333333332,
              "duration": 0.21458333333333332
            },
            {
              "pitch": 76,
              "velocity": 36,
              "position": 19.760416666666668,
              "duration": 0.225
            },
            {
              "pitch": 79,
              "velocity": 36,
              "position": 19.75,
              "duration": 0.23541666666666666
            },
            {
              "pitch": 109,
              "velocity": 103,
              "position": 20,
              "duration": 0.23541666666666666
            },
            {
              "pitch": 50,
              "velocity": 42,
              "position": 20,
              "duration": 0.48541666666666666
            },
            {
              "pitch": 60,
              "velocity": 36,
              "position": 20.010416666666668,
              "duration": 0.48541666666666666
            },
            {
              "pitch": 79,
              "velocity": 45,
              "position": 20.020833333333332,
              "duration": 0.48541666666666666
            },
            {
              "pitch": 72,
              "velocity": 45,
              "position": 20.020833333333332,
              "duration": 0.48541666666666666
            },
            {
              "pitch": 77,
              "velocity": 45,
              "position": 20.020833333333332,
              "duration": 0.48541666666666666
            },
            {
              "pitch": 105,
              "velocity": 97,
              "position": 20.489583333333332,
              "duration": 0.23541666666666666
            },
            {
              "pitch": 50,
              "velocity": 36,
              "position": 20.5,
              "duration": 0.48541666666666666
            },
            {
              "pitch": 60,
              "velocity": 32,
              "position": 20.510416666666668,
              "duration": 0.48541666666666666
            },
            {
              "pitch": 79,
              "velocity": 38,
              "position": 20.520833333333332,
              "duration": 0.48541666666666666
            },
            {
              "pitch": 72,
              "velocity": 33,
              "position": 20.520833333333332,
              "duration": 0.48541666666666666
            },
            {
              "pitch": 77,
              "velocity": 38,
              "position": 20.520833333333332,
              "duration": 0.48541666666666666
            },
            {
              "pitch": 111,
              "velocity": 103,
              "position": 20.989583333333332,
              "duration": 0.23541666666666666
            },
            {
              "pitch": 79,
              "velocity": 48,
              "position": 21.020833333333332,
              "duration": 0.7145833333333333
            },
            {
              "pitch": 77,
              "velocity": 48,
              "position": 21.020833333333332,
              "duration": 0.725
            },
            {
              "pitch": 50,
              "velocity": 44,
              "position": 21,
              "duration": 0.75625
            },
            {
              "pitch": 72,
              "velocity": 46,
              "position": 21.020833333333332,
              "duration": 0.7354166666666667
            },
            {
              "pitch": 60,
              "velocity": 41,
              "position": 21.010416666666668,
              "duration": 0.7458333333333333
            },
            {
              "pitch": 109,
              "velocity": 103,
              "position": 21.739583333333332,
              "duration": 0.23541666666666666
            },
            {
              "pitch": 79,
              "velocity": 52,
              "position": 21.75,
              "duration": 0.48541666666666666
            },
            {
              "pitch": 77,
              "velocity": 52,
              "position": 21.760416666666668,
              "duration": 0.48541666666666666
            },
            {
              "pitch": 72,
              "velocity": 50,
              "position": 21.770833333333332,
              "duration": 0.48541666666666666
            },
            {
              "pitch": 50,
              "velocity": 46,
              "position": 21.770833333333332,
              "duration": 0.48541666666666666
            },
            {
              "pitch": 60,
              "velocity": 50,
              "position": 21.770833333333332,
              "duration": 0.48541666666666666
            },
            {
              "pitch": 104,
              "velocity": 103,
              "position": 22.239583333333332,
              "duration": 0.23541666666666666
            },
            {
              "pitch": 50,
              "velocity": 38,
              "position": 22.270833333333332,
              "duration": 0.21458333333333332
            },
            {
              "pitch": 60,
              "velocity": 40,
              "position": 22.270833333333332,
              "duration": 0.225
            },
            {
              "pitch": 72,
              "velocity": 42,
              "position": 22.270833333333332,
              "duration": 0.23541666666666666
            },
            {
              "pitch": 79,
              "velocity": 44,
              "position": 22.25,
              "duration": 0.25625
            },
            {
              "pitch": 77,
              "velocity": 36,
              "position": 22.260416666666668,
              "duration": 0.24583333333333332
            },
            {
              "pitch": 105,
              "velocity": 83,
              "position": 22.489583333333332,
              "duration": 0.23541666666666666
            },
            {
              "pitch": 79,
              "velocity": 45,
              "position": 22.520833333333332,
              "duration": 0.21458333333333332
            },
            {
              "pitch": 77,
              "velocity": 42,
              "position": 22.520833333333332,
              "duration": 0.225
            },
            {
              "pitch": 50,
              "velocity": 42,
              "position": 22.5,
              "duration": 0.25625
            },
            {
              "pitch": 72,
              "velocity": 36,
              "position": 22.520833333333332,
              "duration": 0.23541666666666666
            },
            {
              "pitch": 60,
              "velocity": 45,
              "position": 22.510416666666668,
              "duration": 0.24583333333333332
            },
            {
              "pitch": 104,
              "velocity": 63,
              "position": 22.739583333333332,
              "duration": 0.23541666666666666
            },
            {
              "pitch": 50,
              "velocity": 40,
              "position": 22.770833333333332,
              "duration": 0.21458333333333332
            },
            {
              "pitch": 60,
              "velocity": 40,
              "position": 22.770833333333332,
              "duration": 0.225
            },
            {
              "pitch": 72,
              "velocity": 36,
              "position": 22.770833333333332,
              "duration": 0.23541666666666666
            },
            {
              "pitch": 79,
              "velocity": 34,
              "position": 22.75,
              "duration": 0.25625
            },
            {
              "pitch": 77,
              "velocity": 32,
              "position": 22.760416666666668,
              "duration": 0.24583333333333332
            },
            {
              "pitch": 111,
              "velocity": 103,
              "position": 22.989583333333332,
              "duration": 0.23541666666666666
            },
            {
              "pitch": 50,
              "velocity": 50,
              "position": 23,
              "duration": 0.48541666666666666
            },
            {
              "pitch": 60,
              "velocity": 50,
              "position": 23.010416666666668,
              "duration": 0.48541666666666666
            },
            {
              "pitch": 79,
              "velocity": 50,
              "position": 23.020833333333332,
              "duration": 0.48541666666666666
            },
            {
              "pitch": 72,
              "velocity": 50,
              "position": 23.020833333333332,
              "duration": 0.48541666666666666
            },
            {
              "pitch": 77,
              "velocity": 50,
              "position": 23.020833333333332,
              "duration": 0.48541666666666666
            },
            {
              "pitch": 105,
              "velocity": 83,
              "position": 23.489583333333332,
              "duration": 0.23541666666666666
            },
            {
              "pitch": 79,
              "velocity": 45,
              "position": 23.520833333333332,
              "duration": 0.21458333333333332
            },
            {
              "pitch": 77,
              "velocity": 45,
              "position": 23.520833333333332,
              "duration": 0.225
            },
            {
              "pitch": 50,
              "velocity": 45,
              "position": 23.5,
              "duration": 0.25625
            },
            {
              "pitch": 72,
              "velocity": 45,
              "position": 23.520833333333332,
              "duration": 0.23541666666666666
            },
            {
              "pitch": 60,
              "velocity": 45,
              "position": 23.510416666666668,
              "duration": 0.24583333333333332
            },
            {
              "pitch": 104,
              "velocity": 63,
              "position": 23.739583333333332,
              "duration": 0.23541666666666666
            },
            {
              "pitch": 72,
              "velocity": 32,
              "position": 23.770833333333332,
              "duration": 0.225
            },
            {
              "pitch": 60,
              "velocity": 32,
              "position": 23.770833333333332,
              "duration": 0.225
            },
            {
              "pitch": 50,
              "velocity": 32,
              "position": 23.770833333333332,
              "duration": 0.225
            },
            {
              "pitch": 77,
              "velocity": 36,
              "position": 23.760416666666668,
              "duration": 0.23541666666666666
            },
            {
              "pitch": 79,
              "velocity": 36,
              "position": 23.75,
              "duration": 0.24583333333333332
            },
            {
              "pitch": 109,
              "velocity": 103,
              "position": 24,
              "duration": 0.23541666666666666
            },
            {
              "pitch": 52,
              "velocity": 42,
              "position": 24,
              "duration": 0.48541666666666666
            },
            {
              "pitch": 60,
              "velocity": 36,
              "position": 24.010416666666668,
              "duration": 0.48541666666666666
            },
            {
              "pitch": 79,
              "velocity": 45,
              "position": 24.020833333333332,
              "duration": 0.48541666666666666
            },
            {
              "pitch": 72,
              "velocity": 45,
              "position": 24.020833333333332,
              "duration": 0.48541666666666666
            },
            {
              "pitch": 76,
              "velocity": 45,
              "position": 24.020833333333332,
              "duration": 0.48541666666666666
            },
            {
              "pitch": 105,
              "velocity": 97,
              "position": 24.489583333333332,
              "duration": 0.23541666666666666
            },
            {
              "pitch": 52,
              "velocity": 36,
              "position": 24.5,
              "duration": 0.48541666666666666
            },
            {
              "pitch": 60,
              "velocity": 32,
              "position": 24.510416666666668,
              "duration": 0.48541666666666666
            },
            {
              "pitch": 79,
              "velocity": 38,
              "position": 24.520833333333332,
              "duration": 0.48541666666666666
            },
            {
              "pitch": 72,
              "velocity": 33,
              "position": 24.520833333333332,
              "duration": 0.48541666666666666
            },
            {
              "pitch": 76,
              "velocity": 38,
              "position": 24.520833333333332,
              "duration": 0.48541666666666666
            },
            {
              "pitch": 111,
              "velocity": 103,
              "position": 24.989583333333332,
              "duration": 0.23541666666666666
            },
            {
              "pitch": 79,
              "velocity": 48,
              "position": 25.020833333333332,
              "duration": 0.7145833333333333
            },
            {
              "pitch": 76,
              "velocity": 48,
              "position": 25.020833333333332,
              "duration": 0.725
            },
            {
              "pitch": 52,
              "velocity": 44,
              "position": 25,
              "duration": 0.75625
            },
            {
              "pitch": 72,
              "velocity": 46,
              "position": 25.020833333333332,
              "duration": 0.7354166666666667
            },
            {
              "pitch": 60,
              "velocity": 41,
              "position": 25.010416666666668,
              "duration": 0.7458333333333333
            },
            {
              "pitch": 109,
              "velocity": 103,
              "position": 25.739583333333332,
              "duration": 0.23541666666666666
            },
            {
              "pitch": 79,
              "velocity": 52,
              "position": 25.75,
              "duration": 0.48541666666666666
            },
            {
              "pitch": 76,
              "velocity": 52,
              "position": 25.760416666666668,
              "duration": 0.48541666666666666
            },
            {
              "pitch": 72,
              "velocity": 50,
              "position": 25.770833333333332,
              "duration": 0.48541666666666666
            },
            {
              "pitch": 52,
              "velocity": 46,
              "position": 25.770833333333332,
              "duration": 0.48541666666666666
            },
            {
              "pitch": 60,
              "velocity": 50,
              "position": 25.770833333333332,
              "duration": 0.48541666666666666
            },
            {
              "pitch": 104,
              "velocity": 103,
              "position": 26.239583333333332,
              "duration": 0.23541666666666666
            },
            {
              "pitch": 52,
              "velocity": 38,
              "position": 26.270833333333332,
              "duration": 0.21458333333333332
            },
            {
              "pitch": 60,
              "velocity": 40,
              "position": 26.270833333333332,
              "duration": 0.225
            },
            {
              "pitch": 72,
              "velocity": 42,
              "position": 26.270833333333332,
              "duration": 0.23541666666666666
            },
            {
              "pitch": 79,
              "velocity": 44,
              "position": 26.25,
              "duration": 0.25625
            },
            {
              "pitch": 76,
              "velocity": 36,
              "position": 26.260416666666668,
              "duration": 0.24583333333333332
            },
            {
              "pitch": 105,
              "velocity": 83,
              "position": 26.489583333333332,
              "duration": 0.23541666666666666
            },
            {
              "pitch": 79,
              "velocity": 45,
              "position": 26.520833333333332,
              "duration": 0.21458333333333332
            },
            {
              "pitch": 76,
              "velocity": 42,
              "position": 26.520833333333332,
              "duration": 0.225
            },
            {
              "pitch": 52,
              "velocity": 42,
              "position": 26.5,
              "duration": 0.25625
            },
            {
              "pitch": 72,
              "velocity": 36,
              "position": 26.520833333333332,
              "duration": 0.23541666666666666
            },
            {
              "pitch": 60,
              "velocity": 45,
              "position": 26.510416666666668,
              "duration": 0.24583333333333332
            },
            {
              "pitch": 104,
              "velocity": 63,
              "position": 26.739583333333332,
              "duration": 0.23541666666666666
            },
            {
              "pitch": 52,
              "velocity": 40,
              "position": 26.770833333333332,
              "duration": 0.21458333333333332
            },
            {
              "pitch": 60,
              "velocity": 40,
              "position": 26.770833333333332,
              "duration": 0.225
            },
            {
              "pitch": 72,
              "velocity": 36,
              "position": 26.770833333333332,
              "duration": 0.23541666666666666
            },
            {
              "pitch": 79,
              "velocity": 34,
              "position": 26.75,
              "duration": 0.25625
            },
            {
              "pitch": 76,
              "velocity": 32,
              "position": 26.760416666666668,
              "duration": 0.24583333333333332
            },
            {
              "pitch": 111,
              "velocity": 103,
              "position": 26.989583333333332,
              "duration": 0.23541666666666666
            },
            {
              "pitch": 52,
              "velocity": 50,
              "position": 27,
              "duration": 0.48541666666666666
            },
            {
              "pitch": 60,
              "velocity": 50,
              "position": 27.010416666666668,
              "duration": 0.48541666666666666
            },
            {
              "pitch": 79,
              "velocity": 50,
              "position": 27.020833333333332,
              "duration": 0.48541666666666666
            },
            {
              "pitch": 72,
              "velocity": 50,
              "position": 27.020833333333332,
              "duration": 0.48541666666666666
            },
            {
              "pitch": 76,
              "velocity": 50,
              "position": 27.020833333333332,
              "duration": 0.48541666666666666
            },
            {
              "pitch": 105,
              "velocity": 83,
              "position": 27.489583333333332,
              "duration": 0.23541666666666666
            },
            {
              "pitch": 79,
              "velocity": 45,
              "position": 27.520833333333332,
              "duration": 0.21458333333333332
            },
            {
              "pitch": 76,
              "velocity": 45,
              "position": 27.520833333333332,
              "duration": 0.225
            },
            {
              "pitch": 52,
              "velocity": 45,
              "position": 27.5,
              "duration": 0.25625
            },
            {
              "pitch": 72,
              "velocity": 45,
              "position": 27.520833333333332,
              "duration": 0.23541666666666666
            },
            {
              "pitch": 60,
              "velocity": 45,
              "position": 27.510416666666668,
              "duration": 0.24583333333333332
            },
            {
              "pitch": 104,
              "velocity": 63,
              "position": 27.739583333333332,
              "duration": 0.23541666666666666
            },
            {
              "pitch": 72,
              "velocity": 32,
              "position": 27.770833333333332,
              "duration": 0.225
            },
            {
              "pitch": 60,
              "velocity": 32,
              "position": 27.770833333333332,
              "duration": 0.225
            },
            {
              "pitch": 52,
              "velocity": 32,
              "position": 27.770833333333332,
              "duration": 0.225
            },
            {
              "pitch": 76,
              "velocity": 36,
              "position": 27.760416666666668,
              "duration": 0.23541666666666666
            },
            {
              "pitch": 79,
              "velocity": 36,
              "position": 27.75,
              "duration": 0.24583333333333332
            },
            {
              "pitch": 109,
              "velocity": 103,
              "position": 28,
              "duration": 0.23541666666666666
            },
            {
              "pitch": 55,
              "velocity": 42,
              "position": 28,
              "duration": 0.48541666666666666
            },
            {
              "pitch": 60,
              "velocity": 36,
              "position": 28.010416666666668,
              "duration": 0.48541666666666666
            },
            {
              "pitch": 79,
              "velocity": 45,
              "position": 28.020833333333332,
              "duration": 0.48541666666666666
            },
            {
              "pitch": 72,
              "velocity": 45,
              "position": 28.020833333333332,
              "duration": 0.48541666666666666
            },
            {
              "pitch": 77,
              "velocity": 45,
              "position": 28.020833333333332,
              "duration": 0.48541666666666666
            },
            {
              "pitch": 105,
              "velocity": 97,
              "position": 28.489583333333332,
              "duration": 0.23541666666666666
            },
            {
              "pitch": 55,
              "velocity": 36,
              "position": 28.5,
              "duration": 0.48541666666666666
            },
            {
              "pitch": 60,
              "velocity": 32,
              "position": 28.510416666666668,
              "duration": 0.48541666666666666
            },
            {
              "pitch": 79,
              "velocity": 38,
              "position": 28.520833333333332,
              "duration": 0.48541666666666666
            },
            {
              "pitch": 72,
              "velocity": 33,
              "position": 28.520833333333332,
              "duration": 0.48541666666666666
            },
            {
              "pitch": 77,
              "velocity": 38,
              "position": 28.520833333333332,
              "duration": 0.48541666666666666
            },
            {
              "pitch": 111,
              "velocity": 103,
              "position": 28.989583333333332,
              "duration": 0.23541666666666666
            },
            {
              "pitch": 79,
              "velocity": 48,
              "position": 29.020833333333332,
              "duration": 0.7145833333333333
            },
            {
              "pitch": 77,
              "velocity": 48,
              "position": 29.020833333333332,
              "duration": 0.725
            },
            {
              "pitch": 55,
              "velocity": 44,
              "position": 29,
              "duration": 0.75625
            },
            {
              "pitch": 72,
              "velocity": 46,
              "position": 29.020833333333332,
              "duration": 0.7354166666666667
            },
            {
              "pitch": 60,
              "velocity": 41,
              "position": 29.010416666666668,
              "duration": 0.7458333333333333
            },
            {
              "pitch": 109,
              "velocity": 103,
              "position": 29.739583333333332,
              "duration": 0.23541666666666666
            },
            {
              "pitch": 79,
              "velocity": 52,
              "position": 29.75,
              "duration": 0.48541666666666666
            },
            {
              "pitch": 77,
              "velocity": 52,
              "position": 29.760416666666668,
              "duration": 0.48541666666666666
            },
            {
              "pitch": 72,
              "velocity": 50,
              "position": 29.770833333333332,
              "duration": 0.48541666666666666
            },
            {
              "pitch": 55,
              "velocity": 46,
              "position": 29.770833333333332,
              "duration": 0.48541666666666666
            },
            {
              "pitch": 60,
              "velocity": 50,
              "position": 29.770833333333332,
              "duration": 0.48541666666666666
            },
            {
              "pitch": 104,
              "velocity": 103,
              "position": 30.239583333333332,
              "duration": 0.23541666666666666
            },
            {
              "pitch": 55,
              "velocity": 38,
              "position": 30.270833333333332,
              "duration": 0.21458333333333332
            },
            {
              "pitch": 60,
              "velocity": 40,
              "position": 30.270833333333332,
              "duration": 0.225
            },
            {
              "pitch": 72,
              "velocity": 42,
              "position": 30.270833333333332,
              "duration": 0.23541666666666666
            },
            {
              "pitch": 79,
              "velocity": 44,
              "position": 30.25,
              "duration": 0.25625
            },
            {
              "pitch": 77,
              "velocity": 36,
              "position": 30.260416666666668,
              "duration": 0.24583333333333332
            },
            {
              "pitch": 105,
              "velocity": 83,
              "position": 30.489583333333332,
              "duration": 0.23541666666666666
            },
            {
              "pitch": 79,
              "velocity": 45,
              "position": 30.520833333333332,
              "duration": 0.21458333333333332
            },
            {
              "pitch": 77,
              "velocity": 42,
              "position": 30.520833333333332,
              "duration": 0.225
            },
            {
              "pitch": 55,
              "velocity": 42,
              "position": 30.5,
              "duration": 0.25625
            },
            {
              "pitch": 72,
              "velocity": 36,
              "position": 30.520833333333332,
              "duration": 0.23541666666666666
            },
            {
              "pitch": 60,
              "velocity": 45,
              "position": 30.510416666666668,
              "duration": 0.24583333333333332
            },
            {
              "pitch": 104,
              "velocity": 63,
              "position": 30.739583333333332,
              "duration": 0.23541666666666666
            },
            {
              "pitch": 55,
              "velocity": 40,
              "position": 30.770833333333332,
              "duration": 0.21458333333333332
            },
            {
              "pitch": 60,
              "velocity": 40,
              "position": 30.770833333333332,
              "duration": 0.225
            },
            {
              "pitch": 72,
              "velocity": 36,
              "position": 30.770833333333332,
              "duration": 0.23541666666666666
            },
            {
              "pitch": 79,
              "velocity": 34,
              "position": 30.75,
              "duration": 0.25625
            },
            {
              "pitch": 77,
              "velocity": 32,
              "position": 30.760416666666668,
              "duration": 0.24583333333333332
            },
            {
              "pitch": 111,
              "velocity": 103,
              "position": 30.989583333333332,
              "duration": 0.23541666666666666
            },
            {
              "pitch": 55,
              "velocity": 50,
              "position": 31,
              "duration": 0.48541666666666666
            },
            {
              "pitch": 60,
              "velocity": 50,
              "position": 31.010416666666668,
              "duration": 0.48541666666666666
            },
            {
              "pitch": 79,
              "velocity": 50,
              "position": 31.020833333333332,
              "duration": 0.48541666666666666
            },
            {
              "pitch": 72,
              "velocity": 50,
              "position": 31.020833333333332,
              "duration": 0.48541666666666666
            },
            {
              "pitch": 77,
              "velocity": 50,
              "position": 31.020833333333332,
              "duration": 0.48541666666666666
            },
            {
              "pitch": 105,
              "velocity": 83,
              "position": 31.489583333333332,
              "duration": 0.23541666666666666
            },
            {
              "pitch": 79,
              "velocity": 45,
              "position": 31.520833333333332,
              "duration": 0.21458333333333332
            },
            {
              "pitch": 77,
              "velocity": 45,
              "position": 31.520833333333332,
              "duration": 0.225
            },
            {
              "pitch": 55,
              "velocity": 45,
              "position": 31.5,
              "duration": 0.25625
            },
            {
              "pitch": 72,
              "velocity": 45,
              "position": 31.520833333333332,
              "duration": 0.23541666666666666
            },
            {
              "pitch": 60,
              "velocity": 45,
              "position": 31.510416666666668,
              "duration": 0.24583333333333332
            },
            {
              "pitch": 104,
              "velocity": 63,
              "position": 31.739583333333332,
              "duration": 0.23541666666666666
            },
            {
              "pitch": 72,
              "velocity": 32,
              "position": 31.770833333333332,
              "duration": 0.225
            },
            {
              "pitch": 60,
              "velocity": 32,
              "position": 31.770833333333332,
              "duration": 0.225
            },
            {
              "pitch": 55,
              "velocity": 32,
              "position": 31.770833333333332,
              "duration": 0.225
            },
            {
              "pitch": 77,
              "velocity": 36,
              "position": 31.760416666666668,
              "duration": 0.23541666666666666
            },
            {
              "pitch": 79,
              "velocity": 36,
              "position": 31.75,
              "duration": 0.24583333333333332
            },
            {
              "pitch": 98,
              "velocity": 103,
              "position": 32,
              "duration": 0.23541666666666666
            },
            {
              "pitch": 48,
              "velocity": 40,
              "position": 32,
              "duration": 6.985416666666667
            },
            {
              "pitch": 72,
              "velocity": 50,
              "position": 32.020833333333336,
              "duration": 6.964583333333334
            },
            {
              "pitch": 76,
              "velocity": 50,
              "position": 32.03125,
              "duration": 6.964583333333334
            },
            {
              "pitch": 55,
              "velocity": 36,
              "position": 32.010416666666664,
              "duration": 6.985416666666667
            },
            {
              "pitch": 79,
              "velocity": 50,
              "position": 32.041666666666664,
              "duration": 6.964583333333334
            }
          ]
        },
        "12": {
          "ctab": {
            "srcChannel": 12,
            "name": "HiGt M",
            "accType": "CHORD2",
            "editable": false,
            "mutedNotes": [],
            "mutedChords": [
              "dim7",
              "dim",
              "minMaj7(9)",
              "minMaj7",
              "min7(11)",
              "min7(9)",
              "min(9)",
              "m7b5",
              "min7",
              "min6",
              "min"
            ],
            "autoStart": false,
            "sourceChordNote": 0,
            "sourceChordType": "Maj",
            "ctb2Low": null,
            "ctb2Main": {
              "ntr": "ROOT_TRANSPOSITION",
              "ntt": "BYPASS",
              "bassOn": false,
              "chordRootUpperLimit": 8,
              "noteLowLimit": 40,
              "noteHighLimit": 65,
              "rtr": "PITCH_SHIFT"
            },
            "ctb2High": null
          },
          "notes": [
            {
              "pitch": 96,
              "velocity": 60,
              "position": 1.0104166666666667,
              "duration": 0.23541666666666666
            },
            {
              "pitch": 67,
              "velocity": 60,
              "position": 1.03125,
              "duration": 0.7041666666666667
            },
            {
              "pitch": 64,
              "velocity": 60,
              "position": 1.0208333333333333,
              "duration": 0.725
            },
            {
              "pitch": 60,
              "velocity": 60,
              "position": 1.0104166666666667,
              "duration": 0.7458333333333333
            },
            {
              "pitch": 97,
              "velocity": 60,
              "position": 1.75,
              "duration": 0.23541666666666666
            },
            {
              "pitch": 60,
              "velocity": 60,
              "position": 1.7708333333333333,
              "duration": 0.21458333333333332
            },
            {
              "pitch": 64,
              "velocity": 60,
              "position": 1.7604166666666667,
              "duration": 0.225
            },
            {
              "pitch": 67,
              "velocity": 60,
              "position": 1.75,
              "duration": 0.23541666666666666
            },
            {
              "pitch": 98,
              "velocity": 60,
              "position": 3.0104166666666665,
              "duration": 0.23541666666666666
            },
            {
              "pitch": 67,
              "velocity": 60,
              "position": 3.03125,
              "duration": 0.45416666666666666
            },
            {
              "pitch": 64,
              "velocity": 60,
              "position": 3.0208333333333335,
              "duration": 0.46458333333333335
            },
            {
              "pitch": 60,
              "velocity": 60,
              "position": 3.0104166666666665,
              "duration": 0.475
            },
            {
              "pitch": 96,
              "velocity": 60,
              "position": 5.010416666666667,
              "duration": 0.23541666666666666
            },
            {
              "pitch": 67,
              "velocity": 60,
              "position": 5.03125,
              "duration": 0.7041666666666667
            },
            {
              "pitch": 65,
              "velocity": 60,
              "position": 5.020833333333333,
              "duration": 0.725
            },
            {
              "pitch": 60,
              "velocity": 60,
              "position": 5.010416666666667,
              "duration": 0.7458333333333333
            },
            {
              "pitch": 97,
              "velocity": 60,
              "position": 5.75,
              "duration": 0.23541666666666666
            },
            {
              "pitch": 60,
              "velocity": 60,
              "position": 5.770833333333333,
              "duration": 0.21458333333333332
            },
            {
              "pitch": 65,
              "velocity": 60,
              "position": 5.760416666666667,
              "duration": 0.225
            },
            {
              "pitch": 67,
              "velocity": 60,
              "position": 5.75,
              "duration": 0.23541666666666666
            },
            {
              "pitch": 98,
              "velocity": 60,
              "position": 7.010416666666667,
              "duration": 0.23541666666666666
            },
            {
              "pitch": 60,
              "velocity": 60,
              "position": 7.010416666666667,
              "duration": 0.475
            },
            {
              "pitch": 65,
              "velocity": 60,
              "position": 7.020833333333333,
              "duration": 0.475
            },
            {
              "pitch": 67,
              "velocity": 60,
              "position": 7.03125,
              "duration": 0.46458333333333335
            },
            {
              "pitch": 60,
              "velocity": 58,
              "position": 7.5,
              "duration": 0.23541666666666666
            },
            {
              "pitch": 67,
              "velocity": 58,
              "position": 7.510416666666667,
              "duration": 0.225
            },
            {
              "pitch": 65,
              "velocity": 58,
              "position": 7.510416666666667,
              "duration": 0.225
            },
            {
              "pitch": 96,
              "velocity": 60,
              "position": 7.5,
              "duration": 0.23541666666666666
            },
            {
              "pitch": 60,
              "velocity": 50,
              "position": 7.75,
              "duration": 0.23541666666666666
            },
            {
              "pitch": 97,
              "velocity": 60,
              "position": 7.75,
              "duration": 0.23541666666666666
            },
            {
              "pitch": 67,
              "velocity": 50,
              "position": 7.75,
              "duration": 0.23541666666666666
            },
            {
              "pitch": 65,
              "velocity": 50,
              "position": 7.75,
              "duration": 0.23541666666666666
            },
            {
              "pitch": 96,
              "velocity": 60,
              "position": 9.010416666666666,
              "duration": 0.23541666666666666
            },
            {
              "pitch": 67,
              "velocity": 60,
              "position": 9.03125,
              "duration": 0.7041666666666667
            },
            {
              "pitch": 64,
              "velocity": 60,
              "position": 9.020833333333334,
              "duration": 0.725
            },
            {
              "pitch": 60,
              "velocity": 60,
              "position": 9.010416666666666,
              "duration": 0.7458333333333333
            },
            {
              "pitch": 97,
              "velocity": 60,
              "position": 9.75,
              "duration": 0.23541666666666666
            },
            {
              "pitch": 60,
              "velocity": 60,
              "position": 9.770833333333334,
              "duration": 0.21458333333333332
            },
            {
              "pitch": 64,
              "velocity": 60,
              "position": 9.760416666666666,
              "duration": 0.225
            },
            {
              "pitch": 67,
              "velocity": 60,
              "position": 9.75,
              "duration": 0.23541666666666666
            },
            {
              "pitch": 98,
              "velocity": 60,
              "position": 11.010416666666666,
              "duration": 0.23541666666666666
            },
            {
              "pitch": 67,
              "velocity": 60,
              "position": 11.03125,
              "duration": 0.45416666666666666
            },
            {
              "pitch": 64,
              "velocity": 60,
              "position": 11.020833333333334,
              "duration": 0.46458333333333335
            },
            {
              "pitch": 60,
              "velocity": 60,
              "position": 11.010416666666666,
              "duration": 0.475
            },
            {
              "pitch": 60,
              "velocity": 56,
              "position": 12.510416666666666,
              "duration": 0.48541666666666666
            },
            {
              "pitch": 96,
              "velocity": 60,
              "position": 13.010416666666666,
              "duration": 0.23541666666666666
            },
            {
              "pitch": 67,
              "velocity": 60,
              "position": 13.03125,
              "duration": 0.7041666666666667
            },
            {
              "pitch": 65,
              "velocity": 60,
              "position": 13.020833333333334,
              "duration": 0.725
            },
            {
              "pitch": 60,
              "velocity": 60,
              "position": 13.010416666666666,
              "duration": 0.7458333333333333
            },
            {
              "pitch": 97,
              "velocity": 60,
              "position": 13.75,
              "duration": 0.23541666666666666
            },
            {
              "pitch": 60,
              "velocity": 60,
              "position": 13.770833333333334,
              "duration": 0.21458333333333332
            },
            {
              "pitch": 65,
              "velocity": 60,
              "position": 13.760416666666666,
              "duration": 0.225
            },
            {
              "pitch": 67,
              "velocity": 60,
              "position": 13.75,
              "duration": 0.23541666666666666
            },
            {
              "pitch": 65,
              "velocity": 60,
              "position": 15.020833333333334,
              "duration": 0.21458333333333332
            },
            {
              "pitch": 67,
              "velocity": 60,
              "position": 15.03125,
              "duration": 0.20416666666666666
            },
            {
              "pitch": 60,
              "velocity": 60,
              "position": 15.010416666666666,
              "duration": 0.23541666666666666
            },
            {
              "pitch": 98,
              "velocity": 60,
              "position": 15.010416666666666,
              "duration": 0.23541666666666666
            },
            {
              "pitch": 65,
              "velocity": 51,
              "position": 15.25,
              "duration": 0.23541666666666666
            },
            {
              "pitch": 60,
              "velocity": 51,
              "position": 15.260416666666666,
              "duration": 0.225
            },
            {
              "pitch": 99,
              "velocity": 60,
              "position": 15.25,
              "duration": 0.23541666666666666
            },
            {
              "pitch": 67,
              "velocity": 51,
              "position": 15.25,
              "duration": 0.23541666666666666
            },
            {
              "pitch": 96,
              "velocity": 60,
              "position": 17.010416666666668,
              "duration": 0.23541666666666666
            },
            {
              "pitch": 67,
              "velocity": 60,
              "position": 17.03125,
              "duration": 0.7041666666666667
            },
            {
              "pitch": 64,
              "velocity": 60,
              "position": 17.020833333333332,
              "duration": 0.725
            },
            {
              "pitch": 60,
              "velocity": 60,
              "position": 17.010416666666668,
              "duration": 0.7458333333333333
            },
            {
              "pitch": 97,
              "velocity": 60,
              "position": 17.75,
              "duration": 0.23541666666666666
            },
            {
              "pitch": 60,
              "velocity": 60,
              "position": 17.770833333333332,
              "duration": 0.21458333333333332
            },
            {
              "pitch": 64,
              "velocity": 60,
              "position": 17.760416666666668,
              "duration": 0.225
            },
            {
              "pitch": 67,
              "velocity": 60,
              "position": 17.75,
              "duration": 0.23541666666666666
            },
            {
              "pitch": 98,
              "velocity": 60,
              "position": 19.010416666666668,
              "duration": 0.23541666666666666
            },
            {
              "pitch": 67,
              "velocity": 60,
              "position": 19.03125,
              "duration": 0.45416666666666666
            },
            {
              "pitch": 64,
              "velocity": 60,
              "position": 19.020833333333332,
              "duration": 0.46458333333333335
            },
            {
              "pitch": 60,
              "velocity": 60,
              "position": 19.010416666666668,
              "duration": 0.475
            },
            {
              "pitch": 96,
              "velocity": 60,
              "position": 21.010416666666668,
              "duration": 0.23541666666666666
            },
            {
              "pitch": 67,
              "velocity": 60,
              "position": 21.03125,
              "duration": 0.7041666666666667
            },
            {
              "pitch": 65,
              "velocity": 60,
              "position": 21.020833333333332,
              "duration": 0.725
            },
            {
              "pitch": 60,
              "velocity": 60,
              "position": 21.010416666666668,
              "duration": 0.7458333333333333
            },
            {
              "pitch": 97,
              "velocity": 60,
              "position": 21.75,
              "duration": 0.23541666666666666
            },
            {
              "pitch": 60,
              "velocity": 60,
              "position": 21.770833333333332,
              "duration": 0.21458333333333332
            },
            {
              "pitch": 65,
              "velocity": 60,
              "position": 21.760416666666668,
              "duration": 0.225
            },
            {
              "pitch": 67,
              "velocity": 60,
              "position": 21.75,
              "duration": 0.23541666666666666
            },
            {
              "pitch": 98,
              "velocity": 60,
              "position": 23.010416666666668,
              "duration": 0.23541666666666666
            },
            {
              "pitch": 60,
              "velocity": 60,
              "position": 23.010416666666668,
              "duration": 0.475
            },
            {
              "pitch": 65,
              "velocity": 60,
              "position": 23.020833333333332,
              "duration": 0.475
            },
            {
              "pitch": 67,
              "velocity": 60,
              "position": 23.03125,
              "duration": 0.46458333333333335
            },
            {
              "pitch": 60,
              "velocity": 58,
              "position": 23.5,
              "duration": 0.23541666666666666
            },
            {
              "pitch": 67,
              "velocity": 58,
              "position": 23.510416666666668,
              "duration": 0.225
            },
            {
              "pitch": 65,
              "velocity": 58,
              "position": 23.510416666666668,
              "duration": 0.225
            },
            {
              "pitch": 96,
              "velocity": 60,
              "position": 23.5,
              "duration": 0.23541666666666666
            },
            {
              "pitch": 60,
              "velocity": 49,
              "position": 23.75,
              "duration": 0.23541666666666666
            },
            {
              "pitch": 97,
              "velocity": 60,
              "position": 23.75,
              "duration": 0.23541666666666666
            },
            {
              "pitch": 67,
              "velocity": 49,
              "position": 23.75,
              "duration": 0.23541666666666666
            },
            {
              "pitch": 65,
              "velocity": 49,
              "position": 23.75,
              "duration": 0.23541666666666666
            },
            {
              "pitch": 96,
              "velocity": 60,
              "position": 25.010416666666668,
              "duration": 0.23541666666666666
            },
            {
              "pitch": 67,
              "velocity": 60,
              "position": 25.03125,
              "duration": 0.7041666666666667
            },
            {
              "pitch": 64,
              "velocity": 60,
              "position": 25.020833333333332,
              "duration": 0.725
            },
            {
              "pitch": 60,
              "velocity": 60,
              "position": 25.010416666666668,
              "duration": 0.7458333333333333
            },
            {
              "pitch": 97,
              "velocity": 60,
              "position": 25.75,
              "duration": 0.23541666666666666
            },
            {
              "pitch": 60,
              "velocity": 60,
              "position": 25.770833333333332,
              "duration": 0.21458333333333332
            },
            {
              "pitch": 64,
              "velocity": 60,
              "position": 25.760416666666668,
              "duration": 0.225
            },
            {
              "pitch": 67,
              "velocity": 60,
              "position": 25.75,
              "duration": 0.23541666666666666
            },
            {
              "pitch": 98,
              "velocity": 60,
              "position": 27.010416666666668,
              "duration": 0.23541666666666666
            },
            {
              "pitch": 67,
              "velocity": 60,
              "position": 27.03125,
              "duration": 0.45416666666666666
            },
            {
              "pitch": 64,
              "velocity": 60,
              "position": 27.020833333333332,
              "duration": 0.46458333333333335
            },
            {
              "pitch": 60,
              "velocity": 60,
              "position": 27.010416666666668,
              "duration": 0.475
            },
            {
              "pitch": 60,
              "velocity": 56,
              "position": 28.510416666666668,
              "duration": 0.48541666666666666
            },
            {
              "pitch": 96,
              "velocity": 60,
              "position": 29.010416666666668,
              "duration": 0.23541666666666666
            },
            {
              "pitch": 67,
              "velocity": 60,
              "position": 29.03125,
              "duration": 0.7041666666666667
            },
            {
              "pitch": 65,
              "velocity": 60,
              "position": 29.020833333333332,
              "duration": 0.725
            },
            {
              "pitch": 60,
              "velocity": 60,
              "position": 29.010416666666668,
              "duration": 0.7458333333333333
            },
            {
              "pitch": 97,
              "velocity": 60,
              "position": 29.75,
              "duration": 0.23541666666666666
            },
            {
              "pitch": 60,
              "velocity": 60,
              "position": 29.770833333333332,
              "duration": 0.21458333333333332
            },
            {
              "pitch": 65,
              "velocity": 60,
              "position": 29.760416666666668,
              "duration": 0.225
            },
            {
              "pitch": 67,
              "velocity": 60,
              "position": 29.75,
              "duration": 0.23541666666666666
            },
            {
              "pitch": 65,
              "velocity": 60,
              "position": 31.020833333333332,
              "duration": 0.21458333333333332
            },
            {
              "pitch": 67,
              "velocity": 60,
              "position": 31.03125,
              "duration": 0.20416666666666666
            },
            {
              "pitch": 60,
              "velocity": 60,
              "position": 31.010416666666668,
              "duration": 0.23541666666666666
            },
            {
              "pitch": 98,
              "velocity": 60,
              "position": 31.010416666666668,
              "duration": 0.23541666666666666
            },
            {
              "pitch": 65,
              "velocity": 48,
              "position": 31.25,
              "duration": 0.23541666666666666
            },
            {
              "pitch": 60,
              "velocity": 48,
              "position": 31.260416666666668,
              "duration": 0.225
            },
            {
              "pitch": 99,
              "velocity": 60,
              "position": 31.25,
              "duration": 0.23541666666666666
            },
            {
              "pitch": 67,
              "velocity": 48,
              "position": 31.25,
              "duration": 0.23541666666666666
            },
            {
              "pitch": 96,
              "velocity": 60,
              "position": 32.010416666666664,
              "duration": 0.23541666666666666
            },
            {
              "pitch": 67,
              "velocity": 60,
              "position": 32.03125,
              "duration": 6.954166666666667
            },
            {
              "pitch": 64,
              "velocity": 60,
              "position": 32.020833333333336,
              "duration": 6.964583333333334
            },
            {
              "pitch": 60,
              "velocity": 60,
              "position": 32.010416666666664,
              "duration": 6.975
            }
          ]
        },
        "13": {
          "ctab": {
            "srcChannel": 13,
            "name": "Organ M",
            "accType": "PAD",
            "editable": false,
            "mutedNotes": [],
            "mutedChords": [
              "dim7",
              "dim",
              "minMaj7(9)",
              "minMaj7",
              "min7(11)",
              "min7(9)",
              "min(9)",
              "m7b5",
              "min7",
              "min6",
              "min"
            ],
            "autoStart": false,
            "sourceChordNote": 0,
            "sourceChordType": "Maj",
            "ctb2Low": null,
            "ctb2Main": {
              "ntr": "ROOT_TRANSPOSITION",
              "ntt": "BYPASS",
              "bassOn": false,
              "chordRootUpperLimit": 6,
              "noteLowLimit": 0,
              "noteHighLimit": 127,
              "rtr": "PITCH_SHIFT"
            },
            "ctb2High": null
          },
          "notes": [
            {
              "pitch": 67,
              "velocity": 60,
              "position": 1,
              "duration": 1.4208333333333334
            },
            {
              "pitch": 64,
              "velocity": 60,
              "position": 1,
              "duration": 1.4229166666666666
            },
            {
              "pitch": 72,
              "velocity": 60,
              "position": 1,
              "duration": 1.4395833333333334
            },
            {
              "pitch": 67,
              "velocity": 63,
              "position": 2.5,
              "duration": 0.08541666666666667
            },
            {
              "pitch": 64,
              "velocity": 63,
              "position": 2.5,
              "duration": 0.09166666666666666
            },
            {
              "pitch": 72,
              "velocity": 63,
              "position": 2.5,
              "duration": 0.11041666666666666
            },
            {
              "pitch": 67,
              "velocity": 63,
              "position": 3.5,
              "duration": 1.3979166666666667
            },
            {
              "pitch": 72,
              "velocity": 63,
              "position": 3.5,
              "duration": 1.4125
            },
            {
              "pitch": 65,
              "velocity": 63,
              "position": 3.5,
              "duration": 1.4125
            },
            {
              "pitch": 67,
              "velocity": 63,
              "position": 5,
              "duration": 0.10208333333333333
            },
            {
              "pitch": 65,
              "velocity": 63,
              "position": 5,
              "duration": 0.11041666666666666
            },
            {
              "pitch": 72,
              "velocity": 63,
              "position": 5,
              "duration": 0.12083333333333333
            },
            {
              "pitch": 64,
              "velocity": 61,
              "position": 9,
              "duration": 1.4416666666666667
            },
            {
              "pitch": 67,
              "velocity": 63,
              "position": 9,
              "duration": 1.4416666666666667
            },
            {
              "pitch": 72,
              "velocity": 61,
              "position": 9,
              "duration": 1.45
            },
            {
              "pitch": 64,
              "velocity": 52,
              "position": 10.5,
              "duration": 0.1
            },
            {
              "pitch": 67,
              "velocity": 63,
              "position": 10.5,
              "duration": 0.1
            },
            {
              "pitch": 72,
              "velocity": 62,
              "position": 10.5,
              "duration": 0.13125
            },
            {
              "pitch": 67,
              "velocity": 58,
              "position": 11.5,
              "duration": 1.64375
            },
            {
              "pitch": 72,
              "velocity": 61,
              "position": 11.5,
              "duration": 1.6479166666666667
            },
            {
              "pitch": 65,
              "velocity": 55,
              "position": 11.5,
              "duration": 1.6583333333333334
            },
            {
              "pitch": 65,
              "velocity": 55,
              "position": 13.833333333333334,
              "duration": 0.029166666666666667
            },
            {
              "pitch": 75,
              "velocity": 89,
              "position": 14.0375,
              "duration": 0.03958333333333333
            },
            {
              "pitch": 76,
              "velocity": 70,
              "position": 14.072916666666666,
              "duration": 0.4166666666666667
            },
            {
              "pitch": 79,
              "velocity": 79,
              "position": 14.502083333333333,
              "duration": 1.4541666666666666
            },
            {
              "pitch": 67,
              "velocity": 66,
              "position": 17,
              "duration": 0.1
            },
            {
              "pitch": 64,
              "velocity": 68,
              "position": 17,
              "duration": 0.12083333333333333
            },
            {
              "pitch": 72,
              "velocity": 64,
              "position": 17,
              "duration": 0.1625
            },
            {
              "pitch": 64,
              "velocity": 63,
              "position": 18.5,
              "duration": 0.09166666666666666
            },
            {
              "pitch": 67,
              "velocity": 64,
              "position": 18.5,
              "duration": 0.10416666666666667
            },
            {
              "pitch": 72,
              "velocity": 61,
              "position": 18.5,
              "duration": 0.15625
            },
            {
              "pitch": 65,
              "velocity": 67,
              "position": 19.5,
              "duration": 1.38125
            },
            {
              "pitch": 72,
              "velocity": 65,
              "position": 19.5,
              "duration": 1.4083333333333334
            },
            {
              "pitch": 67,
              "velocity": 73,
              "position": 19.5,
              "duration": 1.4083333333333334
            },
            {
              "pitch": 67,
              "velocity": 69,
              "position": 21,
              "duration": 0.19375
            },
            {
              "pitch": 72,
              "velocity": 69,
              "position": 21,
              "duration": 0.19791666666666666
            },
            {
              "pitch": 65,
              "velocity": 69,
              "position": 21,
              "duration": 0.19791666666666666
            },
            {
              "pitch": 79,
              "velocity": 78,
              "position": 16,
              "duration": 7.710416666666666
            },
            {
              "pitch": 67,
              "velocity": 67,
              "position": 25,
              "duration": 0.09166666666666666
            },
            {
              "pitch": 64,
              "velocity": 67,
              "position": 25,
              "duration": 0.10416666666666667
            },
            {
              "pitch": 72,
              "velocity": 64,
              "position": 25,
              "duration": 0.15416666666666667
            },
            {
              "pitch": 67,
              "velocity": 67,
              "position": 26.5,
              "duration": 0.1
            },
            {
              "pitch": 64,
              "velocity": 66,
              "position": 26.5,
              "duration": 0.11458333333333333
            },
            {
              "pitch": 72,
              "velocity": 66,
              "position": 26.5,
              "duration": 0.17291666666666666
            },
            {
              "pitch": 65,
              "velocity": 73,
              "position": 27.5,
              "duration": 0.81875
            },
            {
              "pitch": 72,
              "velocity": 73,
              "position": 27.5,
              "duration": 0.825
            },
            {
              "pitch": 67,
              "velocity": 73,
              "position": 27.5,
              "duration": 0.8291666666666667
            },
            {
              "pitch": 65,
              "velocity": 61,
              "position": 28.5,
              "duration": 0.4166666666666667
            },
            {
              "pitch": 72,
              "velocity": 61,
              "position": 28.5,
              "duration": 0.43333333333333335
            },
            {
              "pitch": 67,
              "velocity": 61,
              "position": 28.5,
              "duration": 0.43333333333333335
            },
            {
              "pitch": 65,
              "velocity": 66,
              "position": 29,
              "duration": 0.45625
            },
            {
              "pitch": 67,
              "velocity": 66,
              "position": 29,
              "duration": 0.45625
            },
            {
              "pitch": 72,
              "velocity": 66,
              "position": 29,
              "duration": 0.46458333333333335
            },
            {
              "pitch": 65,
              "velocity": 73,
              "position": 29.5,
              "duration": 0.46458333333333335
            },
            {
              "pitch": 72,
              "velocity": 73,
              "position": 29.5,
              "duration": 0.46875
            },
            {
              "pitch": 67,
              "velocity": 73,
              "position": 29.5,
              "duration": 0.475
            },
            {
              "pitch": 65,
              "velocity": 79,
              "position": 30,
              "duration": 0.60625
            },
            {
              "pitch": 72,
              "velocity": 79,
              "position": 30,
              "duration": 0.60625
            },
            {
              "pitch": 67,
              "velocity": 79,
              "position": 30,
              "duration": 0.60625
            },
            {
              "pitch": 65,
              "velocity": 79,
              "position": 30.64375,
              "duration": 1.31875
            },
            {
              "pitch": 72,
              "velocity": 79,
              "position": 30.64375,
              "duration": 5.695833333333334
            },
            {
              "pitch": 67,
              "velocity": 79,
              "position": 30.64375,
              "duration": 5.720833333333333
            },
            {
              "pitch": 64,
              "velocity": 78,
              "position": 32,
              "duration": 4.397916666666666
            },
            {
              "pitch": 64,
              "velocity": 73,
              "position": 36.458333333333336,
              "duration": 2.529166666666667
            },
            {
              "pitch": 72,
              "velocity": 73,
              "position": 36.458333333333336,
              "duration": 2.529166666666667
            },
            {
              "pitch": 67,
              "velocity": 73,
              "position": 36.458333333333336,
              "duration": 2.529166666666667
            }
          ]
        },
        "14": {
          "ctab": {
            "srcChannel": 14,
            "name": "SldGt M",
            "accType": "PHRASE1",
            "editable": false,
            "mutedNotes": [],
            "mutedChords": [
              "dim7",
              "dim",
              "minMaj7(9)",
              "minMaj7",
              "min7(11)",
              "min7(9)",
              "min(9)",
              "m7b5",
              "min7",
              "min6",
              "min"
            ],
            "autoStart": false,
            "sourceChordNote": 0,
            "sourceChordType": "Maj",
            "ctb2Low": null,
            "ctb2Main": {
              "ntr": "ROOT_TRANSPOSITION",
              "ntt": "BYPASS",
              "bassOn": false,
              "chordRootUpperLimit": 3,
              "noteLowLimit": 40,
              "noteHighLimit": 127,
              "rtr": "PITCH_SHIFT"
            },
            "ctb2High": null
          },
          "notes": [
            {
              "pitch": 100,
              "velocity": 70,
              "position": 0,
              "duration": 0.23541666666666666
            },
            {
              "pitch": 36,
              "velocity": 86,
              "position": 0,
              "duration": 0.48541666666666666
            },
            {
              "pitch": 99,
              "velocity": 55,
              "position": 0.5,
              "duration": 0.23541666666666666
            },
            {
              "pitch": 36,
              "velocity": 84,
              "position": 0.5,
              "duration": 0.48541666666666666
            },
            {
              "pitch": 98,
              "velocity": 70,
              "position": 1,
              "duration": 0.23541666666666666
            },
            {
              "pitch": 36,
              "velocity": 86,
              "position": 1,
              "duration": 0.48541666666666666
            },
            {
              "pitch": 72,
              "velocity": 34,
              "position": 0,
              "duration": 1.4854166666666666
            },
            {
              "pitch": 99,
              "velocity": 57,
              "position": 1.5,
              "duration": 0.23541666666666666
            },
            {
              "pitch": 36,
              "velocity": 84,
              "position": 1.5,
              "duration": 0.48541666666666666
            },
            {
              "pitch": 102,
              "velocity": 70,
              "position": 2,
              "duration": 0.23541666666666666
            },
            {
              "pitch": 67,
              "velocity": 24,
              "position": 1,
              "duration": 1.4854166666666666
            },
            {
              "pitch": 36,
              "velocity": 86,
              "position": 2,
              "duration": 0.48541666666666666
            },
            {
              "pitch": 99,
              "velocity": 70,
              "position": 2.5,
              "duration": 0.23541666666666666
            },
            {
              "pitch": 36,
              "velocity": 84,
              "position": 2.5,
              "duration": 0.48541666666666666
            },
            {
              "pitch": 98,
              "velocity": 55,
              "position": 3,
              "duration": 0.23541666666666666
            },
            {
              "pitch": 74,
              "velocity": 32,
              "position": 1.5,
              "duration": 1.9854166666666666
            },
            {
              "pitch": 36,
              "velocity": 86,
              "position": 3,
              "duration": 0.48541666666666666
            },
            {
              "pitch": 97,
              "velocity": 59,
              "position": 3.5,
              "duration": 0.23541666666666666
            },
            {
              "pitch": 36,
              "velocity": 84,
              "position": 3.5,
              "duration": 0.49583333333333335
            },
            {
              "pitch": 100,
              "velocity": 70,
              "position": 4,
              "duration": 0.23541666666666666
            },
            {
              "pitch": 38,
              "velocity": 86,
              "position": 4.010416666666667,
              "duration": 0.475
            },
            {
              "pitch": 67,
              "velocity": 24,
              "position": 2.5,
              "duration": 1.9854166666666666
            },
            {
              "pitch": 99,
              "velocity": 55,
              "position": 4.5,
              "duration": 0.23541666666666666
            },
            {
              "pitch": 38,
              "velocity": 84,
              "position": 4.5,
              "duration": 0.48541666666666666
            },
            {
              "pitch": 98,
              "velocity": 70,
              "position": 5,
              "duration": 0.23541666666666666
            },
            {
              "pitch": 72,
              "velocity": 34,
              "position": 3.5,
              "duration": 1.9854166666666666
            },
            {
              "pitch": 38,
              "velocity": 86,
              "position": 5,
              "duration": 0.48541666666666666
            },
            {
              "pitch": 97,
              "velocity": 57,
              "position": 5.5,
              "duration": 0.23541666666666666
            },
            {
              "pitch": 38,
              "velocity": 84,
              "position": 5.5,
              "duration": 0.48541666666666666
            },
            {
              "pitch": 102,
              "velocity": 70,
              "position": 6,
              "duration": 0.23541666666666666
            },
            {
              "pitch": 67,
              "velocity": 24,
              "position": 4.5,
              "duration": 1.9854166666666666
            },
            {
              "pitch": 38,
              "velocity": 86,
              "position": 6,
              "duration": 0.48541666666666666
            },
            {
              "pitch": 99,
              "velocity": 70,
              "position": 6.5,
              "duration": 0.23541666666666666
            },
            {
              "pitch": 38,
              "velocity": 84,
              "position": 6.5,
              "duration": 0.48541666666666666
            },
            {
              "pitch": 98,
              "velocity": 55,
              "position": 7,
              "duration": 0.23541666666666666
            },
            {
              "pitch": 38,
              "velocity": 86,
              "position": 7,
              "duration": 0.48541666666666666
            },
            {
              "pitch": 97,
              "velocity": 59,
              "position": 7.5,
              "duration": 0.23541666666666666
            },
            {
              "pitch": 74,
              "velocity": 32,
              "position": 5.5,
              "duration": 2.4854166666666666
            },
            {
              "pitch": 38,
              "velocity": 84,
              "position": 7.5,
              "duration": 0.48541666666666666
            },
            {
              "pitch": 100,
              "velocity": 70,
              "position": 8,
              "duration": 0.23541666666666666
            },
            {
              "pitch": 40,
              "velocity": 86,
              "position": 8,
              "duration": 0.48541666666666666
            },
            {
              "pitch": 99,
              "velocity": 55,
              "position": 8.5,
              "duration": 0.23541666666666666
            },
            {
              "pitch": 67,
              "velocity": 18,
              "position": 6.5,
              "duration": 2.4854166666666666
            },
            {
              "pitch": 40,
              "velocity": 84,
              "position": 8.5,
              "duration": 0.48541666666666666
            },
            {
              "pitch": 98,
              "velocity": 70,
              "position": 9,
              "duration": 0.23541666666666666
            },
            {
              "pitch": 40,
              "velocity": 86,
              "position": 9,
              "duration": 0.48541666666666666
            },
            {
              "pitch": 72,
              "velocity": 34,
              "position": 8,
              "duration": 1.4854166666666666
            },
            {
              "pitch": 99,
              "velocity": 57,
              "position": 9.5,
              "duration": 0.23541666666666666
            },
            {
              "pitch": 40,
              "velocity": 84,
              "position": 9.5,
              "duration": 0.48541666666666666
            },
            {
              "pitch": 102,
              "velocity": 70,
              "position": 10,
              "duration": 0.23541666666666666
            },
            {
              "pitch": 67,
              "velocity": 24,
              "position": 9,
              "duration": 1.4854166666666666
            },
            {
              "pitch": 40,
              "velocity": 86,
              "position": 10,
              "duration": 0.48541666666666666
            },
            {
              "pitch": 99,
              "velocity": 70,
              "position": 10.5,
              "duration": 0.23541666666666666
            },
            {
              "pitch": 40,
              "velocity": 84,
              "position": 10.5,
              "duration": 0.48541666666666666
            },
            {
              "pitch": 98,
              "velocity": 55,
              "position": 11,
              "duration": 0.23541666666666666
            },
            {
              "pitch": 74,
              "velocity": 32,
              "position": 9.5,
              "duration": 1.9854166666666666
            },
            {
              "pitch": 40,
              "velocity": 86,
              "position": 11,
              "duration": 0.48541666666666666
            },
            {
              "pitch": 97,
              "velocity": 59,
              "position": 11.5,
              "duration": 0.23541666666666666
            },
            {
              "pitch": 40,
              "velocity": 84,
              "position": 11.5,
              "duration": 0.49583333333333335
            },
            {
              "pitch": 100,
              "velocity": 70,
              "position": 12,
              "duration": 0.23541666666666666
            },
            {
              "pitch": 41,
              "velocity": 86,
              "position": 12.010416666666666,
              "duration": 0.475
            },
            {
              "pitch": 67,
              "velocity": 24,
              "position": 10.5,
              "duration": 1.9854166666666666
            },
            {
              "pitch": 99,
              "velocity": 55,
              "position": 12.5,
              "duration": 0.23541666666666666
            },
            {
              "pitch": 41,
              "velocity": 84,
              "position": 12.5,
              "duration": 0.48541666666666666
            },
            {
              "pitch": 98,
              "velocity": 70,
              "position": 13,
              "duration": 0.23541666666666666
            },
            {
              "pitch": 72,
              "velocity": 34,
              "position": 11.5,
              "duration": 1.9854166666666666
            },
            {
              "pitch": 41,
              "velocity": 86,
              "position": 13,
              "duration": 0.48541666666666666
            },
            {
              "pitch": 97,
              "velocity": 57,
              "position": 13.5,
              "duration": 0.23541666666666666
            },
            {
              "pitch": 41,
              "velocity": 84,
              "position": 13.5,
              "duration": 0.48541666666666666
            },
            {
              "pitch": 102,
              "velocity": 70,
              "position": 14,
              "duration": 0.23541666666666666
            },
            {
              "pitch": 67,
              "velocity": 24,
              "position": 12.5,
              "duration": 1.9854166666666666
            },
            {
              "pitch": 41,
              "velocity": 86,
              "position": 14,
              "duration": 0.48541666666666666
            },
            {
              "pitch": 99,
              "velocity": 70,
              "position": 14.5,
              "duration": 0.23541666666666666
            },
            {
              "pitch": 41,
              "velocity": 84,
              "position": 14.5,
              "duration": 0.48541666666666666
            },
            {
              "pitch": 98,
              "velocity": 55,
              "position": 15,
              "duration": 0.23541666666666666
            },
            {
              "pitch": 40,
              "velocity": 86,
              "position": 15,
              "duration": 0.48541666666666666
            },
            {
              "pitch": 97,
              "velocity": 59,
              "position": 15.5,
              "duration": 0.23541666666666666
            },
            {
              "pitch": 74,
              "velocity": 32,
              "position": 13.5,
              "duration": 2.475
            },
            {
              "pitch": 38,
              "velocity": 84,
              "position": 15.5,
              "duration": 0.48541666666666666
            },
            {
              "pitch": 100,
              "velocity": 70,
              "position": 16,
              "duration": 0.23541666666666666
            },
            {
              "pitch": 36,
              "velocity": 86,
              "position": 16,
              "duration": 0.48541666666666666
            },
            {
              "pitch": 99,
              "velocity": 55,
              "position": 16.5,
              "duration": 0.23541666666666666
            },
            {
              "pitch": 67,
              "velocity": 18,
              "position": 14.5,
              "duration": 2.4854166666666666
            },
            {
              "pitch": 36,
              "velocity": 84,
              "position": 16.5,
              "duration": 0.48541666666666666
            },
            {
              "pitch": 98,
              "velocity": 70,
              "position": 17,
              "duration": 0.23541666666666666
            },
            {
              "pitch": 36,
              "velocity": 86,
              "position": 17,
              "duration": 0.48541666666666666
            },
            {
              "pitch": 72,
              "velocity": 34,
              "position": 16,
              "duration": 1.4854166666666666
            },
            {
              "pitch": 99,
              "velocity": 57,
              "position": 17.5,
              "duration": 0.23541666666666666
            },
            {
              "pitch": 36,
              "velocity": 84,
              "position": 17.5,
              "duration": 0.48541666666666666
            },
            {
              "pitch": 102,
              "velocity": 70,
              "position": 18,
              "duration": 0.23541666666666666
            },
            {
              "pitch": 67,
              "velocity": 24,
              "position": 17,
              "duration": 1.4854166666666666
            },
            {
              "pitch": 36,
              "velocity": 86,
              "position": 18,
              "duration": 0.48541666666666666
            },
            {
              "pitch": 99,
              "velocity": 70,
              "position": 18.5,
              "duration": 0.23541666666666666
            },
            {
              "pitch": 36,
              "velocity": 84,
              "position": 18.5,
              "duration": 0.48541666666666666
            },
            {
              "pitch": 98,
              "velocity": 55,
              "position": 19,
              "duration": 0.23541666666666666
            },
            {
              "pitch": 74,
              "velocity": 32,
              "position": 17.5,
              "duration": 1.9854166666666666
            },
            {
              "pitch": 36,
              "velocity": 86,
              "position": 19,
              "duration": 0.48541666666666666
            },
            {
              "pitch": 97,
              "velocity": 59,
              "position": 19.5,
              "duration": 0.23541666666666666
            },
            {
              "pitch": 36,
              "velocity": 84,
              "position": 19.5,
              "duration": 0.49583333333333335
            },
            {
              "pitch": 100,
              "velocity": 70,
              "position": 20,
              "duration": 0.23541666666666666
            },
            {
              "pitch": 38,
              "velocity": 86,
              "position": 20.010416666666668,
              "duration": 0.475
            },
            {
              "pitch": 67,
              "velocity": 24,
              "position": 18.5,
              "duration": 1.9854166666666666
            },
            {
              "pitch": 99,
              "velocity": 55,
              "position": 20.5,
              "duration": 0.23541666666666666
            },
            {
              "pitch": 38,
              "velocity": 84,
              "position": 20.5,
              "duration": 0.48541666666666666
            },
            {
              "pitch": 98,
              "velocity": 70,
              "position": 21,
              "duration": 0.23541666666666666
            },
            {
              "pitch": 72,
              "velocity": 34,
              "position": 19.5,
              "duration": 1.9854166666666666
            },
            {
              "pitch": 38,
              "velocity": 86,
              "position": 21,
              "duration": 0.48541666666666666
            },
            {
              "pitch": 97,
              "velocity": 57,
              "position": 21.5,
              "duration": 0.23541666666666666
            },
            {
              "pitch": 38,
              "velocity": 84,
              "position": 21.5,
              "duration": 0.48541666666666666
            },
            {
              "pitch": 102,
              "velocity": 70,
              "position": 22,
              "duration": 0.23541666666666666
            },
            {
              "pitch": 67,
              "velocity": 24,
              "position": 20.5,
              "duration": 1.9854166666666666
            },
            {
              "pitch": 38,
              "velocity": 86,
              "position": 22,
              "duration": 0.48541666666666666
            },
            {
              "pitch": 99,
              "velocity": 70,
              "position": 22.5,
              "duration": 0.23541666666666666
            },
            {
              "pitch": 38,
              "velocity": 84,
              "position": 22.5,
              "duration": 0.48541666666666666
            },
            {
              "pitch": 98,
              "velocity": 55,
              "position": 23,
              "duration": 0.23541666666666666
            },
            {
              "pitch": 38,
              "velocity": 86,
              "position": 23,
              "duration": 0.48541666666666666
            },
            {
              "pitch": 97,
              "velocity": 59,
              "position": 23.5,
              "duration": 0.23541666666666666
            },
            {
              "pitch": 74,
              "velocity": 32,
              "position": 21.5,
              "duration": 2.4854166666666666
            },
            {
              "pitch": 38,
              "velocity": 84,
              "position": 23.5,
              "duration": 0.48541666666666666
            },
            {
              "pitch": 100,
              "velocity": 70,
              "position": 24,
              "duration": 0.23541666666666666
            },
            {
              "pitch": 40,
              "velocity": 86,
              "position": 24,
              "duration": 0.48541666666666666
            },
            {
              "pitch": 99,
              "velocity": 55,
              "position": 24.5,
              "duration": 0.23541666666666666
            },
            {
              "pitch": 67,
              "velocity": 18,
              "position": 22.5,
              "duration": 2.4854166666666666
            },
            {
              "pitch": 40,
              "velocity": 84,
              "position": 24.5,
              "duration": 0.48541666666666666
            },
            {
              "pitch": 98,
              "velocity": 70,
              "position": 25,
              "duration": 0.23541666666666666
            },
            {
              "pitch": 40,
              "velocity": 86,
              "position": 25,
              "duration": 0.48541666666666666
            },
            {
              "pitch": 72,
              "velocity": 34,
              "position": 24,
              "duration": 1.4854166666666666
            },
            {
              "pitch": 99,
              "velocity": 57,
              "position": 25.5,
              "duration": 0.23541666666666666
            },
            {
              "pitch": 40,
              "velocity": 84,
              "position": 25.5,
              "duration": 0.48541666666666666
            },
            {
              "pitch": 102,
              "velocity": 70,
              "position": 26,
              "duration": 0.23541666666666666
            },
            {
              "pitch": 67,
              "velocity": 24,
              "position": 25,
              "duration": 1.4854166666666666
            },
            {
              "pitch": 40,
              "velocity": 86,
              "position": 26,
              "duration": 0.48541666666666666
            },
            {
              "pitch": 99,
              "velocity": 70,
              "position": 26.5,
              "duration": 0.23541666666666666
            },
            {
              "pitch": 40,
              "velocity": 84,
              "position": 26.5,
              "duration": 0.48541666666666666
            },
            {
              "pitch": 98,
              "velocity": 55,
              "position": 27,
              "duration": 0.23541666666666666
            },
            {
              "pitch": 74,
              "velocity": 32,
              "position": 25.5,
              "duration": 1.9854166666666666
            },
            {
              "pitch": 40,
              "velocity": 86,
              "position": 27,
              "duration": 0.48541666666666666
            },
            {
              "pitch": 97,
              "velocity": 59,
              "position": 27.5,
              "duration": 0.23541666666666666
            },
            {
              "pitch": 100,
              "velocity": 70,
              "position": 28,
              "duration": 0.23541666666666666
            },
            {
              "pitch": 67,
              "velocity": 24,
              "position": 26.5,
              "duration": 1.9854166666666666
            },
            {
              "pitch": 43,
              "velocity": 84,
              "position": 27.5,
              "duration": 0.9854166666666667
            },
            {
              "pitch": 99,
              "velocity": 55,
              "position": 28.5,
              "duration": 0.23541666666666666
            },
            {
              "pitch": 43,
              "velocity": 84,
              "position": 28.5,
              "duration": 0.48541666666666666
            },
            {
              "pitch": 98,
              "velocity": 70,
              "position": 29,
              "duration": 0.23541666666666666
            },
            {
              "pitch": 72,
              "velocity": 34,
              "position": 27.5,
              "duration": 1.9854166666666666
            },
            {
              "pitch": 43,
              "velocity": 86,
              "position": 29,
              "duration": 0.48541666666666666
            },
            {
              "pitch": 97,
              "velocity": 57,
              "position": 29.5,
              "duration": 0.23541666666666666
            },
            {
              "pitch": 43,
              "velocity": 84,
              "position": 29.5,
              "duration": 0.48541666666666666
            },
            {
              "pitch": 102,
              "velocity": 70,
              "position": 30,
              "duration": 0.23541666666666666
            },
            {
              "pitch": 67,
              "velocity": 24,
              "position": 28.5,
              "duration": 1.9854166666666666
            },
            {
              "pitch": 43,
              "velocity": 86,
              "position": 30,
              "duration": 0.48541666666666666
            },
            {
              "pitch": 99,
              "velocity": 70,
              "position": 30.5,
              "duration": 0.23541666666666666
            },
            {
              "pitch": 43,
              "velocity": 84,
              "position": 30.5,
              "duration": 0.48541666666666666
            },
            {
              "pitch": 98,
              "velocity": 55,
              "position": 31,
              "duration": 0.23541666666666666
            },
            {
              "pitch": 43,
              "velocity": 86,
              "position": 31,
              "duration": 0.48541666666666666
            },
            {
              "pitch": 97,
              "velocity": 59,
              "position": 31.5,
              "duration": 0.23541666666666666
            },
            {
              "pitch": 74,
              "velocity": 32,
              "position": 29.5,
              "duration": 2.4854166666666666
            },
            {
              "pitch": 43,
              "velocity": 84,
              "position": 31.5,
              "duration": 0.48541666666666666
            },
            {
              "pitch": 67,
              "velocity": 18,
              "position": 30.5,
              "duration": 1.4854166666666666
            },
            {
              "pitch": 100,
              "velocity": 70,
              "position": 32,
              "duration": 0.23541666666666666
            },
            {
              "pitch": 67,
              "velocity": 30,
              "position": 32,
              "duration": 6.985416666666667
            },
            {
              "pitch": 72,
              "velocity": 30,
              "position": 32,
              "duration": 6.985416666666667
            },
            {
              "pitch": 36,
              "velocity": 22,
              "position": 32,
              "duration": 6.985416666666667
            }
          ]
        },
        "15": {
          "ctab": {
            "srcChannel": 15,
            "name": "Str M",
            "accType": "PHRASE2",
            "editable": false,
            "mutedNotes": [],
            "mutedChords": [
              "dim7",
              "dim",
              "minMaj7(9)",
              "minMaj7",
              "min7(11)",
              "min7(9)",
              "min(9)",
              "m7b5",
              "min7",
              "min6",
              "min"
            ],
            "autoStart": false,
            "sourceChordNote": 0,
            "sourceChordType": "Maj",
            "ctb2Low": null,
            "ctb2Main": {
              "ntr": "ROOT_TRANSPOSITION",
              "ntt": "BYPASS",
              "bassOn": false,
              "chordRootUpperLimit": 10,
              "noteLowLimit": 54,
              "noteHighLimit": 65,
              "rtr": "PITCH_SHIFT"
            },
            "ctb2High": null
          },
          "notes": [
            {
              "pitch": 55,
              "velocity": 51,
              "position": 0,
              "duration": 3.475
            },
            {
              "pitch": 64,
              "velocity": 51,
              "position": 0,
              "duration": 3.475
            },
            {
              "pitch": 60,
              "velocity": 51,
              "position": 0,
              "duration": 3.475
            },
            {
              "pitch": 55,
              "velocity": 109,
              "position": 3.4895833333333335,
              "duration": 4.485416666666667
            },
            {
              "pitch": 65,
              "velocity": 51,
              "position": 3.4895833333333335,
              "duration": 4.485416666666667
            },
            {
              "pitch": 60,
              "velocity": 109,
              "position": 3.4895833333333335,
              "duration": 4.485416666666667
            },
            {
              "pitch": 55,
              "velocity": 51,
              "position": 7.989583333333333,
              "duration": 3.4854166666666666
            },
            {
              "pitch": 64,
              "velocity": 51,
              "position": 7.989583333333333,
              "duration": 3.4854166666666666
            },
            {
              "pitch": 60,
              "velocity": 51,
              "position": 7.989583333333333,
              "duration": 3.4854166666666666
            },
            {
              "pitch": 55,
              "velocity": 109,
              "position": 11.489583333333334,
              "duration": 4.475
            },
            {
              "pitch": 65,
              "velocity": 51,
              "position": 11.489583333333334,
              "duration": 4.475
            },
            {
              "pitch": 60,
              "velocity": 109,
              "position": 11.489583333333334,
              "duration": 4.475
            },
            {
              "pitch": 55,
              "velocity": 51,
              "position": 15.989583333333334,
              "duration": 3.4854166666666666
            },
            {
              "pitch": 64,
              "velocity": 51,
              "position": 15.989583333333334,
              "duration": 3.4854166666666666
            },
            {
              "pitch": 60,
              "velocity": 51,
              "position": 15.989583333333334,
              "duration": 3.4854166666666666
            },
            {
              "pitch": 55,
              "velocity": 109,
              "position": 19.489583333333332,
              "duration": 4.485416666666667
            },
            {
              "pitch": 65,
              "velocity": 51,
              "position": 19.489583333333332,
              "duration": 4.485416666666667
            },
            {
              "pitch": 60,
              "velocity": 109,
              "position": 19.489583333333332,
              "duration": 4.485416666666667
            },
            {
              "pitch": 55,
              "velocity": 51,
              "position": 23.989583333333332,
              "duration": 3.4854166666666666
            },
            {
              "pitch": 64,
              "velocity": 51,
              "position": 23.989583333333332,
              "duration": 3.4854166666666666
            },
            {
              "pitch": 60,
              "velocity": 51,
              "position": 23.989583333333332,
              "duration": 3.4854166666666666
            },
            {
              "pitch": 55,
              "velocity": 109,
              "position": 27.489583333333332,
              "duration": 4.475
            },
            {
              "pitch": 65,
              "velocity": 51,
              "position": 27.489583333333332,
              "duration": 4.475
            },
            {
              "pitch": 60,
              "velocity": 109,
              "position": 27.489583333333332,
              "duration": 4.475
            },
            {
              "pitch": 55,
              "velocity": 51,
              "position": 31.989583333333332,
              "duration": 6.985416666666667
            },
            {
              "pitch": 64,
              "velocity": 51,
              "position": 31.989583333333332,
              "duration": 6.985416666666667
            },
            {
              "pitch": 60,
              "velocity": 51,
              "position": 31.989583333333332,
              "duration": 6.985416666666667
            }
          ]
        }
      }
    }
  }
}