{
  "name": "16BeatBallad2.S014.prs",
  "tempo": 66,
  "timeSignature": "4/4",
  "ticksPerQuarter": 1920,
  "sffType": "SFF1",
  "division": "BINARY",
  "parts": {
    "Main_A": {
      "type": "Main_A",
      "sizeInBeats": 8,
      "channels": {
        "0": {
          "ctab": {
            "srcChannel": 0,
            "name": "CC Crash",
            "accType": "RHYTHM",
            "editable": false,
            "mutedNotes": [],
            "mutedChords": [
              "1+2+5",
              "sus4",
              "1+5",
              "1+8",
              "7aug",
              "Maj7aug",
              "7(#9)",
              "7(b13)",
              "7(b9)",
              "7(13)",
              "7#11",
              "7(9)",
              "7b5",
              "7sus4",
              "7th",
              "dim7",
              "dim",
              "minMaj7(9)",
              "minMaj7",
              "min7(11)",
              "min7(9)",
              "min(9)",
              "m7b5",
              "min7",
              "min6",
              "min",
              "aug",
              "Maj6(9)",
              "Maj7(9)",
              "Maj(9)",
              "Maj7#11",
              "Maj7",
              "Maj6",
              "Maj"
            ],
            "autoStart": true,
            "sourceChordNote": 0,
            "sourceChordType": "Maj7",
            "ctb2Low": null,
            "ctb2Main": {
              "ntr": "ROOT_FIXED",
              "ntt": "BYPASS",
              "bassOn": false,
              "chordRootUpperLimit": 6,
              "noteLowLimit": 0,
              "noteHighLimit": 127,
              "rtr": "RETRIGGER"
            },
            "ctb2High": null
          },
          "notes": []
        },
        "3": {
          "ctab": {
            "srcChannel": 3,
            "name": "EP Rt",
            "accType": "CHORD1",
            "editable": false,
            "mutedNotes": [],
            "mutedChords": [],
            "autoStart": false,
            "sourceChordNote": 0,
            "sourceChordType": "Maj7",
            "ctb2Low": null,
            "ctb2Main": {
              "ntr": "ROOT_TRANSPOSITION",
              "ntt": "MELODY",
              "bassOn": true,
              "chordRootUpperLimit": 6,
              "noteLowLimit": 0,
              "noteHighLimit": 127,
              "rtr": "PITCH_SHIFT_TO_ROOT"
            },
            "ctb2High": null
          },
          "notes": [
            {
              "pitch": 48,
              "velocity": 50,
              "position": 0,
              "duration": 3.9791666666666665
            },
            {
              "pitch": 48,
              "velocity": 52,
              "position": 4,
              "duration": 3.9791666666666665
            }
          ]
        },
        "5": {
          "ctab": {
            "srcChannel": 5,
            "name": "Strng Rt",
            "accType": "PAD",
            "editable": false,
            "mutedNotes": [],
            "mutedChords": [
              "1+2+5",
              "sus4",
              "1+5",
              "1+8",
              "Maj7aug",
              "dim",
              "minMaj7(9)",
              "minMaj7",
              "min6",
              "min",
              "aug",
              "Maj7(9)",
              "Maj7#11",
              "Maj7",
              "Maj6",
              "Maj"
            ],
            "autoStart": false,
            "sourceChordNote": 0,
            "sourceChordType": "Maj7",
            "ctb2Low": null,
            "ctb2Main": {
              "ntr": "ROOT_TRANSPOSITION",
              "ntt": "CHORD",
              "bassOn": false,
              "chordRootUpperLimit": 10,
              "noteLowLimit": 0,
              "noteHighLimit": 127,
              "rtr": "PITCH_SHIFT"
            },
            "ctb2High": null
          },
          "notes": []
        },
        "8": {
          "ctab": {
            "srcChannel": 8,
            "name": "RHY 1",
            "accType": "SUBRHYTHM",
            "editable": false,
            "mutedNotes": [],
            "mutedChords": [],
            "autoStart": true,
            "sourceChordNote": 0,
            "sourceChordType": "Maj7",
            "ctb2Low": null,
            "ctb2Main": {
              "ntr": "ROOT_FIXED",
              "ntt": "BYPASS",
              "bassOn": false,
              "chordRootUpperLimit": 6,
              "noteLowLimit": 0,
              "noteHighLimit": 127,
              "rtr": "PITCH_SHIFT"
            },
            "ctb2High": null
          },
          "notes": [
            {
              "pitch": 75,
              "velocity": 38,
              "position": 3,
              "duration": 0.010416666666666666
            }
          ]
        },
        "9": {
          "ctab": {
            "srcChannel": 9,
            "name": "RHY 2",
            "accType": "RHYTHM",
            "editable": false,
            "mutedNotes": [],
            "mutedChords": [],
            "autoStart": true,
            "sourceChordNote": 0,
            "sourceChordType": "Maj7",
            "ctb2Low": null,
            "ctb2Main": {
              "ntr": "ROOT_FIXED",
              "ntt": "BYPASS",
              "bassOn": false,
              "chordRootUpperLimit": 6,
              "noteLowLimit": 0,
              "noteHighLimit": 127,
              "rtr": "PITCH_SHIFT"
            },
            "ctb2High": null
          },
          "notes": [
            {
              "pitch": 35,
              "velocity": 60,
              "position": 0,
              "duration": 0.010416666666666666
            },
            {
              "pitch": 42,
              "velocity": 38,
              "position": 0,
              "duration": 0.010416666666666666
            },
            {
              "pitch": 42,
              "velocity": 35,
              "position": 0.5,
              "duration": 0.010416666666666666
            },
            {
              "pitch": 42,
              "velocity": 85,
              "position": 1,
              "duration": 0.010416666666666666
            },
            {
              "pitch": 42,
              "velocity": 35,
              "position": 1.5,
              "duration": 0.010416666666666666
            },
            {
              "pitch": 35,
              "velocity": 60,
              "position": 2,
              "duration": 0.010416666666666666
            },
            {
              "pitch": 42,
              "velocity": 38,
              "position": 2,
              "duration": 0.010416666666666666
            },
            {
              "pitch": 42,
              "velocity": 35,
              "position": 2.5,
              "duration": 0.010416666666666666
            },
            {
              "pitch": 42,
              "velocity": 65,
              "position": 3,
              "duration": 0.010416666666666666
            },
            {
              "pitch": 37,
              "velocity": 55,
              "position": 3,
              "duration": 0.16666666666666666
            },
            {
              "pitch": 42,
              "velocity": 35,
              "position": 3.5,
              "duration": 0.010416666666666666
            },
            {
              "pitch": 35,
              "velocity": 60,
              "position": 4,
              "duration": 0.010416666666666666
            },
            {
              "pitch": 42,
              "velocity": 40,
              "position": 4,
              "duration": 0.010416666666666666
            },
            {
              "pitch": 42,
              "velocity": 35,
              "position": 4.5,
              "duration": 0.010416666666666666
            },
            {
              "pitch": 42,
              "velocity": 84,
              "position": 5,
              "duration": 0.010416666666666666
            },
            {
              "pitch": 42,
              "velocity": 35,
              "position": 5.5,
              "duration": 0.010416666666666666
            },
            {
              "pitch": 35,
              "velocity": 60,
              "position": 6,
              "duration": 0.010416666666666666
            },
            {
              "pitch": 42,
              "velocity": 26,
              "position": 6,
              "duration": 0.010416666666666666
            },
            {
              "pitch": 42,
              "velocity": 35,
              "position": 6.5,
              "duration": 0.010416666666666666
            },
            {
              "pitch": 42,
              "velocity": 72,
              "position": 7,
              "duration": 0.010416666666666666
            },
            {
              "pitch": 37,
              "velocity": 55,
              "position": 7,
              "duration": 0.16666666666666666
            },
            {
              "pitch": 42,
              "velocity": 35,
              "position": 7.5,
              "duration": 0.010416666666666666
            }
          ]
        },
        "10": {
          "ctab": {
            "srcChannel": 10,
            "name": "Bass",
            "accType": "BASS",
            "editable": false,
            "mutedNotes": [],
            "mutedChords": [],
            "autoStart": false,
            "sourceChordNote": 0,
            "sourceChordType": "Maj7",
            "ctb2Low": null,
            "ctb2Main": {
              "ntr": "ROOT_TRANSPOSITION",
              "ntt": "MELODY",
              "bassOn": true,
              "chordRootUpperLimit": 8,
              "noteLowLimit": 28,
              "noteHighLimit": 127,
              "rtr": "PITCH_SHIFT_TO_ROOT"
            },
            "ctb2High": null
          },
          "notes": [
            {
              "pitch": 24,
              "velocity": 83,
              "position": 0.010416666666666666,
              "duration": 1.7291666666666667
            },
            {
              "pitch": 24,
              "velocity": 53,
              "position": 1.7604166666666667,
              "duration": 0.21875
            },
            {
              "pitch": 24,
              "velocity": 84,
              "position": 2,
              "duration": 1.9791666666666667
            },
            {
              "pitch": 24,
              "velocity": 80,
              "position": 4,
              "duration": 1.7395833333333333
            },
            {
              "pitch": 24,
              "velocity": 53,
              "position": 5.760416666666667,
              "duration": 0.21875
            },
            {
              "pitch": 24,
              "velocity": 87,
              "position": 6,
              "duration": 1.9791666666666667
            }
          ]
        },
        "11": {
          "ctab": {
            "srcChannel": 11,
            "name": "EP",
            "accType": "CHORD1",
            "editable": false,
            "mutedNotes": [],
            "mutedChords": [],
            "autoStart": false,
            "sourceChordNote": 0,
            "sourceChordType": "Maj7",
            "ctb2Low": null,
            "ctb2Main": {
              "ntr": "ROOT_FIXED",
              "ntt": "CHORD",
              "bassOn": false,
              "chordRootUpperLimit": 11,
              "noteLowLimit": 0,
              "noteHighLimit": 127,
              "rtr": "PITCH_SHIFT"
            },
            "ctb2High": null
          },
          "notes": [
            {
              "pitch": 55,
              "velocity": 50,
              "position": 0,
              "duration": 0.4791666666666667
            },
            {
              "pitch": 55,
              "velocity": 41,
              "position": 0.5,
              "duration": 1.4791666666666667
            },
            {
              "pitch": 59,
              "velocity": 60,
              "position": 0,
              "duration": 1.9791666666666667
            },
            {
              "pitch": 64,
              "velocity": 60,
              "position": 0,
              "duration": 1.9791666666666667
            },
            {
              "pitch": 55,
              "velocity": 33,
              "position": 2,
              "duration": 1.4791666666666667
            },
            {
              "pitch": 55,
              "velocity": 40,
              "position": 3.5,
              "duration": 0.4791666666666667
            },
            {
              "pitch": 59,
              "velocity": 57,
              "position": 2,
              "duration": 1.9791666666666667
            },
            {
              "pitch": 64,
              "velocity": 57,
              "position": 2,
              "duration": 1.9791666666666667
            },
            {
              "pitch": 55,
              "velocity": 50,
              "position": 4,
              "duration": 0.4791666666666667
            },
            {
              "pitch": 55,
              "velocity": 41,
              "position": 4.5,
              "duration": 1.4791666666666667
            },
            {
              "pitch": 59,
              "velocity": 60,
              "position": 4,
              "duration": 1.9791666666666667
            },
            {
              "pitch": 64,
              "velocity": 60,
              "position": 4,
              "duration": 1.9791666666666667
            },
            {
              "pitch": 55,
              "velocity": 33,
              "position": 6,
              "duration": 1.4791666666666667
            },
            {
              "pitch": 55,
              "velocity": 40,
              "position": 7.5,
              "duration": 0.4791666666666667
            },
            {
              "pitch": 59,
              "velocity": 57,
              "position": 6,
              "duration": 1.9791666666666667
            },
            {
              "pitch": 64,
              "velocity": 57,
              "position": 6,
              "duration": 1.9791666666666667
            }
          ]
        },
        "12": {
          "ctab": {
            "srcChannel": 12,
            "name": "Guitar",
            "accType": "CHORD2",
            "editable": false,
            "mutedNotes": [],
            "mutedChords": [],
            "autoStart": false,
            "sourceChordNote": 0,
            "sourceChordType": "Maj7",
            "ctb2Low": null,
            "ctb2Main": {
              "ntr": "ROOT_FIXED",
              "ntt": "CHORD",
              "bassOn": false,
              "chordRootUpperLimit": 7,
              "noteLowLimit": 0,
              "noteHighLimit": 127,
              "rtr": "PITCH_SHIFT"
            },
            "ctb2High": null
          },
          "notes": []
        },
        "13": {
          "ctab": {
            "srcChannel": 13,
            "name": "Strings",
            "accType": "PAD",
            "editable": false,
            "mutedNotes": [],
            "mutedChords": [],
            "autoStart": false,
            "sourceChordNote": 0,
            "sourceChordType": "Maj7",
            "ctb2Low": null,
            "ctb2Main": {
              "ntr": "ROOT_FIXED",
              "ntt": "CHORD",
              "bassOn": false,
              "chordRootUpperLimit": 0,
              "noteLowLimit": 0,
              "noteHighLimit": 127,
              "rtr": "PITCH_SHIFT"
            },
            "ctb2High": null
          },
          "notes": []
        },
        "14": {
          "ctab": {
            "srcChannel": 14,
            "name": "Mute",
            "accType": "PHRASE1",
            "editable": false,
            "mutedNotes": [],
            "mutedChords": [],
            "autoStart": false,
            "sourceChordNote": 0,
            "sourceChordType": "min7(11)",
            "ctb2Low": null,
            "ctb2Main": {
              "ntr": "ROOT_FIXED",
              "ntt": "CHORD",
              "bassOn": false,
              "chordRootUpperLimit": 6,
              "noteLowLimit": 0,
              "noteHighLimit": 127,
              "rtr": "PITCH_SHIFT"
            },
            "ctb2High": null
          },
          "notes": [
            {
              "pitch": 48,
              "velocity": 75,
              "position": 0.5,
              "duration": 0.23958333333333334
            },
            {
              "pitch": 55,
              "velocity": 75,
              "position": 0.5,
              "duration": 0.23958333333333334
            },
            {
              "pitch": 48,
              "velocity": 34,
              "position": 0.7604166666666666,
              "duration": 0.21875
            },
            {
              "pitch": 55,
              "velocity": 34,
              "position": 0.7604166666666666,
              "duration": 0.21875
            },
            {
              "pitch": 55,
              "velocity": 76,
              "position": 1,
              "duration": 0.23958333333333334
            },
            {
              "pitch": 60,
              "velocity": 76,
              "position": 1,
              "duration": 0.23958333333333334
            },
            {
              "pitch": 55,
              "velocity": 56,
              "position": 1.2604166666666667,
              "duration": 0.07291666666666667
            },
            {
              "pitch": 60,
              "velocity": 56,
              "position": 1.2604166666666667,
              "duration": 0.07291666666666667
            },
            {
              "pitch": 48,
              "velocity": 75,
              "position": 4.5,
              "duration": 0.23958333333333334
            },
            {
              "pitch": 55,
              "velocity": 75,
              "position": 4.5,
              "duration": 0.23958333333333334
            },
            {
              "pitch": 48,
              "velocity": 34,
              "position": 4.760416666666667,
              "duration": 0.21875
            },
            {
              "pitch": 55,
              "velocity": 34,
              "position": 4.760416666666667,
              "duration": 0.21875
            },
            {
              "pitch": 55,
              "velocity": 76,
              "position": 5,
              "duration": 0.23958333333333334
            },
            {
              "pitch": 60,
              "velocity": 76,
              "position": 5,
              "duration": 0.23958333333333334
            },
            {
              "pitch": 55,
              "velocity": 56,
              "position": 5.260416666666667,
              "duration": 0.07291666666666667
            },
            {
              "pitch": 60,
              "velocity": 56,
              "position": 5.260416666666667,
              "duration": 0.07291666666666667
            }
          ]
        }
      }
    },
    "Main_B": {
      "type": "Main_B",
      "sizeInBeats": 8,
      "channels": {
        "0": {
          "ctab": {
            "srcChannel": 0,
            "name": "CC Crash",
            "accType": "RHYTHM",
            "editable": false,
            "mutedNotes": [],
            "mutedChords": [
              "1+2+5",
              "sus4",
              "1+5",
              "1+8",
              "7aug",
              "Maj7aug",
              "7(#9)",
              "7(b13)",
              "7(b9)",
              "7(13)",
              "7#11",
              "7(9)",
              "7b5",
              "7sus4",
              "7th",
              "dim7",
              "dim",
              "minMaj7(9)",
              "minMaj7",
              "min7(11)",
              "min7(9)",
              "min(9)",
              "m7b5",
              "min7",
              "min6",
              "min",
              "aug",
              "Maj6(9)",
              "Maj7(9)",
              "Maj(9)",
              "Maj7#11",
              "Maj7",
              "Maj6",
              "Maj"
            ],
            "autoStart": true,
            "sourceChordNote": 0,
            "sourceChordType": "Maj7",
            "ctb2Low": null,
            "ctb2Main": {
              "ntr": "ROOT_FIXED",
              "ntt": "BYPASS",
              "bassOn": false,
              "chordRootUpperLimit": 6,
              "noteLowLimit": 0,
              "noteHighLimit": 127,
              "rtr": "RETRIGGER"
            },
            "ctb2High": null
          },
          "notes": []
        },
        "3": {
          "ctab": {
            "srcChannel": 3,
            "name": "EP Rt",
            "accType": "CHORD1",
            "editable": false,
            "mutedNotes": [],
            "mutedChords": [],
            "autoStart": false,
            "sourceChordNote": 0,
            "sourceChordType": "Maj7",
            "ctb2Low": null,
            "ctb2Main": {
              "ntr": "ROOT_TRANSPOSITION",
              "ntt": "MELODY",
              "bassOn": true,
              "chordRootUpperLimit": 6,
              "noteLowLimit": 0,
              "noteHighLimit": 127,
              "rtr": "PITCH_SHIFT_TO_ROOT"
            },
            "ctb2High": null
          },
          "notes": [
            {
              "pitch": 36,
              "velocity": 64,
              "position": 0,
              "duration": 3.9791666666666665
            },
            {
              "pitch": 36,
              "velocity": 64,
              "position": 4,
              "duration": 3.9791666666666665
            }
          ]
        },
        "5": {
          "ctab": {
            "srcChannel": 5,
            "name": "Strng Rt",
            "accType": "PAD",
            "editable": false,
            "mutedNotes": [],
            "mutedChords": [
              "1+2+5",
              "sus4",
              "1+5",
              "1+8",
              "Maj7aug",
              "dim",
              "minMaj7(9)",
              "minMaj7",
              "min6",
              "min",
              "aug",
              "Maj7(9)",
              "Maj7#11",
              "Maj7",
              "Maj6",
              "Maj"
            ],
            "autoStart": false,
            "sourceChordNote": 0,
            "sourceChordType": "Maj7",
            "ctb2Low": null,
            "ctb2Main": {
              "ntr": "ROOT_TRANSPOSITION",
              "ntt": "CHORD",
              "bassOn": false,
              "chordRootUpperLimit": 10,
              "noteLowLimit": 0,
              "noteHighLimit": 127,
              "rtr": "PITCH_SHIFT"
            },
            "ctb2High": null
          },
          "notes": []
        },
        "8": {
          "ctab": {
            "srcChannel": 8,
            "name": "RHY 1",
            "accType": "SUBRHYTHM",
            "editable": false,
            "mutedNotes": [],
            "mutedChords": [],
            "autoStart": true,
            "sourceChordNote": 0,
            "sourceChordType": "Maj7",
            "ctb2Low": null,
            "ctb2Main": {
              "ntr": "ROOT_FIXED",
              "ntt": "BYPASS",
              "bassOn": false,
              "chordRootUpperLimit": 6,
              "noteLowLimit": 0,
              "noteHighLimit": 127,
              "rtr": "PITCH_SHIFT"
            },
            "ctb2High": null
          },
          "notes": [
            {
              "pitch": 54,
              "velocity": 70,
              "position": 3,
              "duration": 0.010416666666666666
            },
            {
              "pitch": 54,
              "velocity": 70,
              "position": 7,
              "duration": 0.010416666666666666
            }
          ]
        },
        "9": {
          "ctab": {
            "srcChannel": 9,
            "name": "RHY 2",
            "accType": "RHYTHM",
            "editable": false,
            "mutedNotes": [],
            "mutedChords": [],
            "autoStart": true,
            "sourceChordNote": 0,
            "sourceChordType": "Maj7",
            "ctb2Low": null,
            "ctb2Main": {
              "ntr": "ROOT_FIXED",
              "ntt": "BYPASS",
              "bassOn": false,
              "chordRootUpperLimit": 6,
              "noteLowLimit": 0,
              "noteHighLimit": 127,
              "rtr": "PITCH_SHIFT"
            },
            "ctb2High": null
          },
          "notes": [
            {
              "pitch": 35,
              "velocity": 70,
              "position": 0,
              "duration": 0.010416666666666666
            },
            {
              "pitch": 42,
              "velocity": 61,
              "position": 0,
              "duration": 0.010416666666666666
            },
            {
              "pitch": 42,
              "velocity": 26,
              "position": 0.5,
              "duration": 0.010416666666666666
            },
            {
              "pitch": 37,
              "velocity": 55,
              "position": 1,
              "duration": 0.010416666666666666
            },
            {
              "pitch": 42,
              "velocity": 84,
              "position": 1,
              "duration": 0.010416666666666666
            },
            {
              "pitch": 42,
              "velocity": 26,
              "position": 1.5,
              "duration": 0.010416666666666666
            },
            {
              "pitch": 35,
              "velocity": 17,
              "position": 1.7604166666666667,
              "duration": 0.010416666666666666
            },
            {
              "pitch": 35,
              "velocity": 66,
              "position": 2,
              "duration": 0.010416666666666666
            },
            {
              "pitch": 42,
              "velocity": 58,
              "position": 2,
              "duration": 0.010416666666666666
            },
            {
              "pitch": 42,
              "velocity": 26,
              "position": 2.5,
              "duration": 0.010416666666666666
            },
            {
              "pitch": 37,
              "velocity": 55,
              "position": 3,
              "duration": 0.010416666666666666
            },
            {
              "pitch": 42,
              "velocity": 83,
              "position": 3,
              "duration": 0.010416666666666666
            },
            {
              "pitch": 42,
              "velocity": 26,
              "position": 3.5,
              "duration": 0.010416666666666666
            },
            {
              "pitch": 35,
              "velocity": 70,
              "position": 4,
              "duration": 0.010416666666666666
            },
            {
              "pitch": 42,
              "velocity": 62,
              "position": 4,
              "duration": 0.010416666666666666
            },
            {
              "pitch": 42,
              "velocity": 26,
              "position": 4.5,
              "duration": 0.010416666666666666
            },
            {
              "pitch": 37,
              "velocity": 55,
              "position": 5,
              "duration": 0.010416666666666666
            },
            {
              "pitch": 42,
              "velocity": 82,
              "position": 5,
              "duration": 0.010416666666666666
            },
            {
              "pitch": 42,
              "velocity": 26,
              "position": 5.5,
              "duration": 0.010416666666666666
            },
            {
              "pitch": 35,
              "velocity": 16,
              "position": 5.760416666666667,
              "duration": 0.010416666666666666
            },
            {
              "pitch": 35,
              "velocity": 74,
              "position": 6,
              "duration": 0.010416666666666666
            },
            {
              "pitch": 42,
              "velocity": 64,
              "position": 6,
              "duration": 0.010416666666666666
            },
            {
              "pitch": 42,
              "velocity": 26,
              "position": 6.5,
              "duration": 0.010416666666666666
            },
            {
              "pitch": 35,
              "velocity": 27,
              "position": 6.760416666666667,
              "duration": 0.010416666666666666
            },
            {
              "pitch": 37,
              "velocity": 55,
              "position": 7,
              "duration": 0.010416666666666666
            },
            {
              "pitch": 42,
              "velocity": 81,
              "position": 7,
              "duration": 0.010416666666666666
            },
            {
              "pitch": 46,
              "velocity": 51,
              "position": 7.5,
              "duration": 0.010416666666666666
            }
          ]
        },
        "10": {
          "ctab": {
            "srcChannel": 10,
            "name": "Bass",
            "accType": "BASS",
            "editable": false,
            "mutedNotes": [],
            "mutedChords": [],
            "autoStart": false,
            "sourceChordNote": 0,
            "sourceChordType": "Maj7",
            "ctb2Low": null,
            "ctb2Main": {
              "ntr": "ROOT_TRANSPOSITION",
              "ntt": "MELODY",
              "bassOn": true,
              "chordRootUpperLimit": 8,
              "noteLowLimit": 28,
              "noteHighLimit": 127,
              "rtr": "PITCH_SHIFT_TO_ROOT"
            },
            "ctb2High": null
          },
          "notes": [
            {
              "pitch": 24,
              "velocity": 87,
              "position": 0,
              "duration": 1.7395833333333333
            },
            {
              "pitch": 24,
              "velocity": 68,
              "position": 1.7604166666666667,
              "duration": 0.21875
            },
            {
              "pitch": 24,
              "velocity": 87,
              "position": 2,
              "duration": 1.8333333333333333
            },
            {
              "pitch": 24,
              "velocity": 90,
              "position": 4,
              "duration": 1.7395833333333333
            },
            {
              "pitch": 24,
              "velocity": 69,
              "position": 5.760416666666667,
              "duration": 0.21875
            },
            {
              "pitch": 24,
              "velocity": 90,
              "position": 6,
              "duration": 1.8333333333333333
            }
          ]
        },
        "11": {
          "ctab": {
            "srcChannel": 11,
            "name": "EP",
            "accType": "CHORD1",
            "editable": false,
            "mutedNotes": [],
            "mutedChords": [],
            "autoStart": false,
            "sourceChordNote": 0,
            "sourceChordType": "Maj7",
            "ctb2Low": null,
            "ctb2Main": {
              "ntr": "ROOT_FIXED",
              "ntt": "CHORD",
              "bassOn": false,
              "chordRootUpperLimit": 11,
              "noteLowLimit": 0,
              "noteHighLimit": 127,
              "rtr": "PITCH_SHIFT"
            },
            "ctb2High": null
          },
          "notes": [
            {
              "pitch": 55,
              "velocity": 64,
              "position": 0,
              "duration": 0.4791666666666667
            },
            {
              "pitch": 59,
              "velocity": 64,
              "position": 0,
              "duration": 0.9791666666666666
            },
            {
              "pitch": 64,
              "velocity": 64,
              "position": 0,
              "duration": 0.9791666666666666
            },
            {
              "pitch": 55,
              "velocity": 53,
              "position": 0.5,
              "duration": 0.9791666666666666
            },
            {
              "pitch": 59,
              "velocity": 58,
              "position": 1,
              "duration": 0.9791666666666666
            },
            {
              "pitch": 64,
              "velocity": 58,
              "position": 1,
              "duration": 0.9791666666666666
            },
            {
              "pitch": 55,
              "velocity": 55,
              "position": 1.5,
              "duration": 0.9791666666666666
            },
            {
              "pitch": 59,
              "velocity": 54,
              "position": 2,
              "duration": 0.9791666666666666
            },
            {
              "pitch": 64,
              "velocity": 54,
              "position": 2,
              "duration": 0.9791666666666666
            },
            {
              "pitch": 55,
              "velocity": 45,
              "position": 2.5,
              "duration": 0.9791666666666666
            },
            {
              "pitch": 55,
              "velocity": 48,
              "position": 3.5,
              "duration": 0.4791666666666667
            },
            {
              "pitch": 59,
              "velocity": 57,
              "position": 3,
              "duration": 0.9791666666666666
            },
            {
              "pitch": 64,
              "velocity": 57,
              "position": 3,
              "duration": 0.9791666666666666
            },
            {
              "pitch": 55,
              "velocity": 66,
              "position": 4,
              "duration": 0.4791666666666667
            },
            {
              "pitch": 59,
              "velocity": 65,
              "position": 4,
              "duration": 0.9791666666666666
            },
            {
              "pitch": 64,
              "velocity": 65,
              "position": 4,
              "duration": 0.9791666666666666
            },
            {
              "pitch": 55,
              "velocity": 52,
              "position": 4.5,
              "duration": 0.9791666666666666
            },
            {
              "pitch": 59,
              "velocity": 53,
              "position": 5,
              "duration": 0.9791666666666666
            },
            {
              "pitch": 64,
              "velocity": 53,
              "position": 5,
              "duration": 0.9791666666666666
            },
            {
              "pitch": 55,
              "velocity": 53,
              "position": 5.5,
              "duration": 0.9791666666666666
            },
            {
              "pitch": 59,
              "velocity": 58,
              "position": 6,
              "duration": 0.9791666666666666
            },
            {
              "pitch": 64,
              "velocity": 58,
              "position": 6,
              "duration": 0.9791666666666666
            },
            {
              "pitch": 55,
              "velocity": 48,
              "position": 6.5,
              "duration": 0.9791666666666666
            },
            {
              "pitch": 55,
              "velocity": 48,
              "position": 7.5,
              "duration": 0.4791666666666667
            },
            {
              "pitch": 59,
              "velocity": 57,
              "position": 7,
              "duration": 0.9791666666666666
            },
            {
              "pitch": 64,
              "velocity": 57,
              "position": 7,
              "duration": 0.9791666666666666
            }
          ]
        },
        "12": {
          "ctab": {
            "srcChannel": 12,
            "name": "Guitar",
            "accType": "CHORD2",
            "editable": false,
            "mutedNotes": [],
            "mutedChords": [],
            "autoStart": false,
            "sourceChordNote": 0,
            "sourceChordType": "Maj7",
            "ctb2Low": null,
            "ctb2Main": {
              "ntr": "ROOT_FIXED",
              "ntt": "CHORD",
              "bassOn": false,
              "chordRootUpperLimit": 7,
              "noteLowLimit": 0,
              "noteHighLimit": 127,
              "rtr": "PITCH_SHIFT"
            },
            "ctb2High": null
          },
          "notes": [
            {
              "pitch": 59,
              "velocity": 45,
              "position": 0,
              "duration": 1.4791666666666667
            },
            {
              "pitch": 64,
              "velocity": 45,
              "position": 0.010416666666666666,
              "duration": 1.4791666666666667
            },
            {
              "pitch": 64,
              "velocity": 45,
              "position": 1.5104166666666667,
              "duration": 2.4791666666666665
            },
            {
              "pitch": 64,
              "velocity": 45,
              "position": 4.010416666666667,
              "duration": 1.4791666666666667
            },
            {
              "pitch": 64,
              "velocity": 45,
              "position": 5.510416666666667,
              "duration": 2.4791666666666665
            }
          ]
        },
        "13": {
          "ctab": {
            "srcChannel": 13,
            "name": "Strings",
            "accType": "PAD",
            "editable": false,
            "mutedNotes": [],
            "mutedChords": [],
            "autoStart": false,
            "sourceChordNote": 0,
            "sourceChordType": "Maj7",
            "ctb2Low": null,
            "ctb2Main": {
              "ntr": "ROOT_FIXED",
              "ntt": "CHORD",
              "bassOn": false,
              "chordRootUpperLimit": 0,
              "noteLowLimit": 0,
              "noteHighLimit": 127,
              "rtr": "PITCH_SHIFT"
            },
            "ctb2High": null
          },
          "notes": []
        },
        "14": {
          "ctab": {
            "srcChannel": 14,
            "name": "Mute",
            "accType": "PHRASE1",
            "editable": false,
            "mutedNotes": [],
            "mutedChords": [],
            "autoStart": false,
            "sourceChordNote": 0,
            "sourceChordType": "min7(11)",
            "ctb2Low": null,
            "ctb2Main": {
              "ntr": "ROOT_FIXED",
              "ntt": "CHORD",
              "bassOn": false,
              "chordRootUpperLimit": 6,
              "noteLowLimit": 0,
              "noteHighLimit": 127,
              "rtr": "PITCH_SHIFT"
            },
            "ctb2High": null
          },
          "notes": [
            {
              "pitch": 48,
              "velocity": 99,
              "position": 0.5,
              "duration": 0.23958333333333334
            },
            {
              "pitch": 55,
              "velocity": 99,
              "position": 0.5,
              "duration": 0.23958333333333334
            },
            {
              "pitch": 48,
              "velocity": 47,
              "position": 0.7604166666666666,
              "duration": 0.21875
            },
            {
              "pitch": 55,
              "velocity": 47,
              "position": 0.7604166666666666,
              "duration": 0.21875
            },
            {
              "pitch": 48,
              "velocity": 58,
              "position": 1,
              "duration": 0.23958333333333334
            },
            {
              "pitch": 55,
              "velocity": 58,
              "position": 1,
              "duration": 0.23958333333333334
            },
            {
              "pitch": 48,
              "velocity": 75,
              "position": 1.2604166666666667,
              "duration": 0.07291666666666667
            },
            {
              "pitch": 55,
              "velocity": 75,
              "position": 1.2604166666666667,
              "duration": 0.07291666666666667
            },
            {
              "pitch": 48,
              "velocity": 40,
              "position": 1.5,
              "duration": 0.23958333333333334
            },
            {
              "pitch": 55,
              "velocity": 40,
              "position": 1.5,
              "duration": 0.23958333333333334
            },
            {
              "pitch": 48,
              "velocity": 91,
              "position": 1.7604166666666667,
              "duration": 0.23958333333333334
            },
            {
              "pitch": 55,
              "velocity": 91,
              "position": 1.7604166666666667,
              "duration": 0.23958333333333334
            },
            {
              "pitch": 48,
              "velocity": 46,
              "position": 2.0208333333333335,
              "duration": 0.21875
            },
            {
              "pitch": 55,
              "velocity": 46,
              "position": 2.0208333333333335,
              "duration": 0.21875
            },
            {
              "pitch": 55,
              "velocity": 58,
              "position": 2.5,
              "duration": 0.23958333333333334
            },
            {
              "pitch": 60,
              "velocity": 58,
              "position": 2.5,
              "duration": 0.23958333333333334
            },
            {
              "pitch": 55,
              "velocity": 93,
              "position": 2.7604166666666665,
              "duration": 0.07291666666666667
            },
            {
              "pitch": 60,
              "velocity": 93,
              "position": 2.7604166666666665,
              "duration": 0.07291666666666667
            },
            {
              "pitch": 55,
              "velocity": 46,
              "position": 3.2604166666666665,
              "duration": 0.07291666666666667
            },
            {
              "pitch": 60,
              "velocity": 46,
              "position": 3.2604166666666665,
              "duration": 0.07291666666666667
            },
            {
              "pitch": 48,
              "velocity": 99,
              "position": 4.5,
              "duration": 0.23958333333333334
            },
            {
              "pitch": 55,
              "velocity": 99,
              "position": 4.5,
              "duration": 0.23958333333333334
            },
            {
              "pitch": 48,
              "velocity": 47,
              "position": 4.760416666666667,
              "duration": 0.21875
            },
            {
              "pitch": 55,
              "velocity": 47,
              "position": 4.760416666666667,
              "duration": 0.21875
            },
            {
              "pitch": 48,
              "velocity": 58,
              "position": 5,
              "duration": 0.23958333333333334
            },
            {
              "pitch": 55,
              "velocity": 58,
              "position": 5,
              "duration": 0.23958333333333334
            },
            {
              "pitch": 48,
              "velocity": 75,
              "position": 5.260416666666667,
              "duration": 0.07291666666666667
            },
            {
              "pitch": 55,
              "velocity": 75,
              "position": 5.260416666666667,
              "duration": 0.07291666666666667
            },
            {
              "pitch": 48,
              "velocity": 40,
              "position": 5.5,
              "duration": 0.23958333333333334
            },
            {
              "pitch": 55,
              "velocity": 40,
              "position": 5.5,
              "duration": 0.23958333333333334
            },
            {
              "pitch": 48,
              "velocity": 91,
              "position": 5.760416666666667,
              "duration": 0.23958333333333334
            },
            {
              "pitch": 55,
              "velocity": 91,
              "position": 5.760416666666667,
              "duration": 0.23958333333333334
            },
            {
              "pitch": 48,
              "velocity": 46,
              "position": 6.020833333333333,
              "duration": 0.21875
            },
            {
              "pitch": 55,
              "velocity": 46,
              "position": 6.020833333333333,
              "duration": 0.21875
            },
            {
              "pitch": 55,
              "velocity": 58,
              "position": 6.5,
              "duration": 0.23958333333333334
            },
            {
              "pitch": 60,
              "velocity": 58,
              "position": 6.5,
              "duration": 0.23958333333333334
            },
            {
              "pitch": 55,
              "velocity": 93,
              "position": 6.760416666666667,
              "duration": 0.07291666666666667
            },
            {
              "pitch": 60,
              "velocity": 93,
              "position": 6.760416666666667,
              "duration": 0.07291666666666667
            },
            {
              "pitch": 55,
              "velocity": 46,
              "position": 7.260416666666667,
              "duration": 0.07291666666666667
            },
            {
              "pitch": 60,
              "velocity": 46,
              "position": 7.260416666666667,
              "duration": 0.07291666666666667
            }
          ]
        }
      }
    },
    "Main_C": {
      "type": "Main_C",
      "sizeInBeats": 16,
      "channels": {
        "0": {
          "ctab": {
            "srcChannel": 0,
            "name": "CC Crash",
            "accType": "RHYTHM",
            "editable": false,
            "mutedNotes": [],
            "mutedChords": [
              "1+2+5",
              "sus4",
              "1+5",
              "1+8",
              "7aug",
              "Maj7aug",
              "7(#9)",
              "7(b13)",
              "7(b9)",
              "7(13)",
              "7#11",
              "7(9)",
              "7b5",
              "7sus4",
              "7th",
              "dim7",
              "dim",
              "minMaj7(9)",
              "minMaj7",
              "min7(11)",
              "min7(9)",
              "min(9)",
              "m7b5",
              "min7",
              "min6",
              "min",
              "aug",
              "Maj6(9)",
              "Maj7(9)",
              "Maj(9)",
              "Maj7#11",
              "Maj7",
              "Maj6",
              "Maj"
            ],
            "autoStart": true,
            "sourceChordNote": 0,
            "sourceChordType": "Maj7",
            "ctb2Low": null,
            "ctb2Main": {
              "ntr": "ROOT_FIXED",
              "ntt": "BYPASS",
              "bassOn": false,
              "chordRootUpperLimit": 6,
              "noteLowLimit": 0,
              "noteHighLimit": 127,
              "rtr": "RETRIGGER"
            },
            "ctb2High": null
          },
          "notes": []
        },
        "3": {
          "ctab": {
            "srcChannel": 3,
            "name": "EP Rt",
            "accType": "CHORD1",
            "editable": false,
            "mutedNotes": [],
            "mutedChords": [],
            "autoStart": false,
            "sourceChordNote": 0,
            "sourceChordType": "Maj7",
            "ctb2Low": null,
            "ctb2Main": {
              "ntr": "ROOT_TRANSPOSITION",
              "ntt": "MELODY",
              "bassOn": true,
              "chordRootUpperLimit": 6,
              "noteLowLimit": 0,
              "noteHighLimit": 127,
              "rtr": "PITCH_SHIFT_TO_ROOT"
            },
            "ctb2High": null
          },
          "notes": [
            {
              "pitch": 36,
              "velocity": 64,
              "position": 0,
              "duration": 3.9791666666666665
            },
            {
              "pitch": 36,
              "velocity": 64,
              "position": 4,
              "duration": 3.9791666666666665
            },
            {
              "pitch": 36,
              "velocity": 64,
              "position": 8,
              "duration": 3.9791666666666665
            },
            {
              "pitch": 36,
              "velocity": 64,
              "position": 12,
              "duration": 3.9791666666666665
            }
          ]
        },
        "5": {
          "ctab": {
            "srcChannel": 5,
            "name": "Strng Rt",
            "accType": "PAD",
            "editable": false,
            "mutedNotes": [],
            "mutedChords": [
              "1+2+5",
              "sus4",
              "1+5",
              "1+8",
              "Maj7aug",
              "dim",
              "minMaj7(9)",
              "minMaj7",
              "min6",
              "min",
              "aug",
              "Maj7(9)",
              "Maj7#11",
              "Maj7",
              "Maj6",
              "Maj"
            ],
            "autoStart": false,
            "sourceChordNote": 0,
            "sourceChordType": "Maj7",
            "ctb2Low": null,
            "ctb2Main": {
              "ntr": "ROOT_TRANSPOSITION",
              "ntt": "CHORD",
              "bassOn": false,
              "chordRootUpperLimit": 10,
              "noteLowLimit": 0,
              "noteHighLimit": 127,
              "rtr": "PITCH_SHIFT"
            },
            "ctb2High": null
          },
          "notes": [
            {
              "pitch": 60,
              "velocity": 45,
              "position": 0,
              "duration": 15.979166666666666
            }
          ]
        },
        "8": {
          "ctab": {
            "srcChannel": 8,
            "name": "RHY 1",
            "accType": "SUBRHYTHM",
            "editable": false,
            "mutedNotes": [],
            "mutedChords": [],
            "autoStart": true,
            "sourceChordNote": 0,
            "sourceChordType": "Maj7",
            "ctb2Low": null,
            "ctb2Main": {
              "ntr": "ROOT_FIXED",
              "ntt": "BYPASS",
              "bassOn": false,
              "chordRootUpperLimit": 6,
              "noteLowLimit": 0,
              "noteHighLimit": 127,
              "rtr": "PITCH_SHIFT"
            },
            "ctb2High": null
          },
          "notes": [
            {
              "pitch": 70,
              "velocity": 58,
              "position": 0,
              "duration": 0.010416666666666666
            },
            {
              "pitch": 70,
              "velocity": 26,
              "position": 0.2604166666666667,
              "duration": 0.010416666666666666
            },
            {
              "pitch": 70,
              "velocity": 112,
              "position": 0.5,
              "duration": 0.010416666666666666
            },
            {
              "pitch": 70,
              "velocity": 26,
              "position": 0.7604166666666666,
              "duration": 0.010416666666666666
            },
            {
              "pitch": 70,
              "velocity": 46,
              "position": 1,
              "duration": 0.010416666666666666
            },
            {
              "pitch": 70,
              "velocity": 26,
              "position": 1.2604166666666667,
              "duration": 0.010416666666666666
            },
            {
              "pitch": 70,
              "velocity": 112,
              "position": 1.5,
              "duration": 0.010416666666666666
            },
            {
              "pitch": 70,
              "velocity": 26,
              "position": 1.7604166666666667,
              "duration": 0.010416666666666666
            },
            {
              "pitch": 70,
              "velocity": 67,
              "position": 2,
              "duration": 0.010416666666666666
            },
            {
              "pitch": 70,
              "velocity": 26,
              "position": 2.2604166666666665,
              "duration": 0.010416666666666666
            },
            {
              "pitch": 70,
              "velocity": 111,
              "position": 2.5,
              "duration": 0.010416666666666666
            },
            {
              "pitch": 70,
              "velocity": 26,
              "position": 2.7604166666666665,
              "duration": 0.010416666666666666
            },
            {
              "pitch": 54,
              "velocity": 70,
              "position": 3,
              "duration": 0.010416666666666666
            },
            {
              "pitch": 70,
              "velocity": 63,
              "position": 3,
              "duration": 0.010416666666666666
            },
            {
              "pitch": 70,
              "velocity": 26,
              "position": 3.2604166666666665,
              "duration": 0.010416666666666666
            },
            {
              "pitch": 70,
              "velocity": 116,
              "position": 3.5,
              "duration": 0.010416666666666666
            },
            {
              "pitch": 70,
              "velocity": 26,
              "position": 3.7604166666666665,
              "duration": 0.010416666666666666
            },
            {
              "pitch": 70,
              "velocity": 58,
              "position": 4,
              "duration": 0.010416666666666666
            },
            {
              "pitch": 70,
              "velocity": 26,
              "position": 4.260416666666667,
              "duration": 0.010416666666666666
            },
            {
              "pitch": 70,
              "velocity": 113,
              "position": 4.5,
              "duration": 0.010416666666666666
            },
            {
              "pitch": 70,
              "velocity": 26,
              "position": 4.760416666666667,
              "duration": 0.010416666666666666
            },
            {
              "pitch": 70,
              "velocity": 43,
              "position": 5,
              "duration": 0.010416666666666666
            },
            {
              "pitch": 70,
              "velocity": 26,
              "position": 5.260416666666667,
              "duration": 0.010416666666666666
            },
            {
              "pitch": 70,
              "velocity": 117,
              "position": 5.5,
              "duration": 0.010416666666666666
            },
            {
              "pitch": 70,
              "velocity": 26,
              "position": 5.760416666666667,
              "duration": 0.010416666666666666
            },
            {
              "pitch": 70,
              "velocity": 57,
              "position": 6,
              "duration": 0.010416666666666666
            },
            {
              "pitch": 70,
              "velocity": 26,
              "position": 6.260416666666667,
              "duration": 0.010416666666666666
            },
            {
              "pitch": 70,
              "velocity": 112,
              "position": 6.5,
              "duration": 0.010416666666666666
            },
            {
              "pitch": 70,
              "velocity": 26,
              "position": 6.760416666666667,
              "duration": 0.010416666666666666
            },
            {
              "pitch": 54,
              "velocity": 70,
              "position": 7,
              "duration": 0.010416666666666666
            },
            {
              "pitch": 70,
              "velocity": 63,
              "position": 7,
              "duration": 0.010416666666666666
            },
            {
              "pitch": 70,
              "velocity": 26,
              "position": 7.260416666666667,
              "duration": 0.010416666666666666
            },
            {
              "pitch": 70,
              "velocity": 117,
              "position": 7.5,
              "duration": 0.010416666666666666
            },
            {
              "pitch": 70,
              "velocity": 26,
              "position": 7.760416666666667,
              "duration": 0.010416666666666666
            },
            {
              "pitch": 70,
              "velocity": 57,
              "position": 8,
              "duration": 0.010416666666666666
            },
            {
              "pitch": 70,
              "velocity": 26,
              "position": 8.260416666666666,
              "duration": 0.010416666666666666
            },
            {
              "pitch": 70,
              "velocity": 112,
              "position": 8.5,
              "duration": 0.010416666666666666
            },
            {
              "pitch": 70,
              "velocity": 26,
              "position": 8.760416666666666,
              "duration": 0.010416666666666666
            },
            {
              "pitch": 70,
              "velocity": 46,
              "position": 9,
              "duration": 0.010416666666666666
            },
            {
              "pitch": 70,
              "velocity": 26,
              "position": 9.260416666666666,
              "duration": 0.010416666666666666
            },
            {
              "pitch": 70,
              "velocity": 112,
              "position": 9.5,
              "duration": 0.010416666666666666
            },
            {
              "pitch": 70,
              "velocity": 26,
              "position": 9.760416666666666,
              "duration": 0.010416666666666666
            },
            {
              "pitch": 70,
              "velocity": 67,
              "position": 10,
              "duration": 0.010416666666666666
            },
            {
              "pitch": 70,
              "velocity": 26,
              "position": 10.260416666666666,
              "duration": 0.010416666666666666
            },
            {
              "pitch": 70,
              "velocity": 111,
              "position": 10.5,
              "duration": 0.010416666666666666
            },
            {
              "pitch": 70,
              "velocity": 26,
              "position": 10.760416666666666,
              "duration": 0.010416666666666666
            },
            {
              "pitch": 54,
              "velocity": 70,
              "position": 11,
              "duration": 0.010416666666666666
            },
            {
              "pitch": 70,
              "velocity": 63,
              "position": 11,
              "duration": 0.010416666666666666
            },
            {
              "pitch": 70,
              "velocity": 26,
              "position": 11.260416666666666,
              "duration": 0.010416666666666666
            },
            {
              "pitch": 70,
              "velocity": 116,
              "position": 11.5,
              "duration": 0.010416666666666666
            },
            {
              "pitch": 70,
              "velocity": 26,
              "position": 11.760416666666666,
              "duration": 0.010416666666666666
            },
            {
              "pitch": 70,
              "velocity": 58,
              "position": 12,
              "duration": 0.010416666666666666
            },
            {
              "pitch": 70,
              "velocity": 26,
              "position": 12.260416666666666,
              "duration": 0.010416666666666666
            },
            {
              "pitch": 70,
              "velocity": 113,
              "position": 12.5,
              "duration": 0.010416666666666666
            },
            {
              "pitch": 70,
              "velocity": 26,
              "position": 12.760416666666666,
              "duration": 0.010416666666666666
            },
            {
              "pitch": 70,
              "velocity": 43,
              "position": 13,
              "duration": 0.010416666666666666
            },
            {
              "pitch": 70,
              "velocity": 26,
              "position": 13.260416666666666,
              "duration": 0.010416666666666666
            },
            {
              "pitch": 70,
              "velocity": 117,
              "position": 13.5,
              "duration": 0.010416666666666666
            },
            {
              "pitch": 70,
              "velocity": 26,
              "position": 13.760416666666666,
              "duration": 0.010416666666666666
            },
            {
              "pitch": 70,
              "velocity": 57,
              "position": 14,
              "duration": 0.010416666666666666
            },
            {
              "pitch": 70,
              "velocity": 26,
              "position": 14.260416666666666,
              "duration": 0.010416666666666666
            },
            {
              "pitch": 70,
              "velocity": 112,
              "position": 14.5,
              "duration": 0.010416666666666666
            },
            {
              "pitch": 70,
              "velocity": 26,
              "position": 14.760416666666666,
              "duration": 0.010416666666666666
            },
            {
              "pitch": 54,
              "velocity": 70,
              "position": 15,
              "duration": 0.010416666666666666
            },
            {
              "pitch": 70,
              "velocity": 63,
              "position": 15,
              "duration": 0.010416666666666666
            },
            {
              "pitch": 70,
              "velocity": 26,
              "position": 15.260416666666666,
              "duration": 0.010416666666666666
            },
            {
              "pitch": 70,
              "velocity": 117,
              "position": 15.5,
              "duration": 0.010416666666666666
            },
            {
              "pitch": 70,
              "velocity": 26,
              "position": 15.760416666666666,
              "duration": 0.010416666666666666
            }
          ]
        },
        "9": {
          "ctab": {
            "srcChannel": 9,
            "name": "RHY 2",
            "accType": "RHYTHM",
            "editable": false,
            "mutedNotes": [],
            "mutedChords": [],
            "autoStart": true,
            "sourceChordNote": 0,
            "sourceChordType": "Maj7",
            "ctb2Low": null,
            "ctb2Main": {
              "ntr": "ROOT_FIXED",
              "ntt": "BYPASS",
              "bassOn": false,
              "chordRootUpperLimit": 6,
              "noteLowLimit": 0,
              "noteHighLimit": 127,
              "rtr": "PITCH_SHIFT"
            },
            "ctb2High": null
          },
          "notes": [
            {
              "pitch": 35,
              "velocity": 94,
              "position": 0,
              "duration": 0.010416666666666666
            },
            {
              "pitch": 42,
              "velocity": 68,
              "position": 0,
              "duration": 0.010416666666666666
            },
            {
              "pitch": 42,
              "velocity": 16,
              "position": 0.2604166666666667,
              "duration": 0.010416666666666666
            },
            {
              "pitch": 42,
              "velocity": 26,
              "position": 0.5,
              "duration": 0.010416666666666666
            },
            {
              "pitch": 35,
              "velocity": 39,
              "position": 0.7604166666666666,
              "duration": 0.010416666666666666
            },
            {
              "pitch": 42,
              "velocity": 16,
              "position": 0.7604166666666666,
              "duration": 0.010416666666666666
            },
            {
              "pitch": 40,
              "velocity": 81,
              "position": 1,
              "duration": 0.010416666666666666
            },
            {
              "pitch": 42,
              "velocity": 112,
              "position": 1,
              "duration": 0.010416666666666666
            },
            {
              "pitch": 42,
              "velocity": 16,
              "position": 1.2604166666666667,
              "duration": 0.010416666666666666
            },
            {
              "pitch": 42,
              "velocity": 26,
              "position": 1.5,
              "duration": 0.010416666666666666
            },
            {
              "pitch": 35,
              "velocity": 41,
              "position": 1.7604166666666667,
              "duration": 0.010416666666666666
            },
            {
              "pitch": 42,
              "velocity": 20,
              "position": 1.7604166666666667,
              "duration": 0.010416666666666666
            },
            {
              "pitch": 35,
              "velocity": 90,
              "position": 2,
              "duration": 0.010416666666666666
            },
            {
              "pitch": 42,
              "velocity": 69,
              "position": 2,
              "duration": 0.010416666666666666
            },
            {
              "pitch": 42,
              "velocity": 16,
              "position": 2.2604166666666665,
              "duration": 0.010416666666666666
            },
            {
              "pitch": 42,
              "velocity": 26,
              "position": 2.5,
              "duration": 0.010416666666666666
            },
            {
              "pitch": 40,
              "velocity": 28,
              "position": 2.7604166666666665,
              "duration": 0.010416666666666666
            },
            {
              "pitch": 42,
              "velocity": 16,
              "position": 2.7604166666666665,
              "duration": 0.010416666666666666
            },
            {
              "pitch": 40,
              "velocity": 81,
              "position": 3,
              "duration": 0.010416666666666666
            },
            {
              "pitch": 42,
              "velocity": 116,
              "position": 3,
              "duration": 0.010416666666666666
            },
            {
              "pitch": 42,
              "velocity": 18,
              "position": 3.2604166666666665,
              "duration": 0.010416666666666666
            },
            {
              "pitch": 42,
              "velocity": 26,
              "position": 3.5,
              "duration": 0.010416666666666666
            },
            {
              "pitch": 42,
              "velocity": 18,
              "position": 3.7604166666666665,
              "duration": 0.010416666666666666
            },
            {
              "pitch": 35,
              "velocity": 93,
              "position": 4,
              "duration": 0.010416666666666666
            },
            {
              "pitch": 42,
              "velocity": 69,
              "position": 4,
              "duration": 0.010416666666666666
            },
            {
              "pitch": 42,
              "velocity": 18,
              "position": 4.260416666666667,
              "duration": 0.010416666666666666
            },
            {
              "pitch": 42,
              "velocity": 26,
              "position": 4.5,
              "duration": 0.010416666666666666
            },
            {
              "pitch": 42,
              "velocity": 18,
              "position": 4.760416666666667,
              "duration": 0.010416666666666666
            },
            {
              "pitch": 40,
              "velocity": 81,
              "position": 5,
              "duration": 0.010416666666666666
            },
            {
              "pitch": 42,
              "velocity": 117,
              "position": 5,
              "duration": 0.010416666666666666
            },
            {
              "pitch": 42,
              "velocity": 18,
              "position": 5.260416666666667,
              "duration": 0.010416666666666666
            },
            {
              "pitch": 42,
              "velocity": 26,
              "position": 5.5,
              "duration": 0.010416666666666666
            },
            {
              "pitch": 35,
              "velocity": 39,
              "position": 5.760416666666667,
              "duration": 0.010416666666666666
            },
            {
              "pitch": 42,
              "velocity": 18,
              "position": 5.760416666666667,
              "duration": 0.010416666666666666
            },
            {
              "pitch": 35,
              "velocity": 89,
              "position": 6,
              "duration": 0.010416666666666666
            },
            {
              "pitch": 42,
              "velocity": 68,
              "position": 6,
              "duration": 0.010416666666666666
            },
            {
              "pitch": 42,
              "velocity": 20,
              "position": 6.260416666666667,
              "duration": 0.010416666666666666
            },
            {
              "pitch": 42,
              "velocity": 26,
              "position": 6.5,
              "duration": 0.010416666666666666
            },
            {
              "pitch": 35,
              "velocity": 39,
              "position": 6.760416666666667,
              "duration": 0.010416666666666666
            },
            {
              "pitch": 42,
              "velocity": 20,
              "position": 6.760416666666667,
              "duration": 0.010416666666666666
            },
            {
              "pitch": 40,
              "velocity": 81,
              "position": 7,
              "duration": 0.010416666666666666
            },
            {
              "pitch": 42,
              "velocity": 117,
              "position": 7,
              "duration": 0.010416666666666666
            },
            {
              "pitch": 42,
              "velocity": 26,
              "position": 7.260416666666667,
              "duration": 0.010416666666666666
            },
            {
              "pitch": 46,
              "velocity": 50,
              "position": 7.5,
              "duration": 0.010416666666666666
            },
            {
              "pitch": 35,
              "velocity": 94,
              "position": 8,
              "duration": 0.010416666666666666
            },
            {
              "pitch": 42,
              "velocity": 68,
              "position": 8,
              "duration": 0.010416666666666666
            },
            {
              "pitch": 42,
              "velocity": 17,
              "position": 8.260416666666666,
              "duration": 0.010416666666666666
            },
            {
              "pitch": 42,
              "velocity": 26,
              "position": 8.5,
              "duration": 0.010416666666666666
            },
            {
              "pitch": 35,
              "velocity": 43,
              "position": 8.760416666666666,
              "duration": 0.010416666666666666
            },
            {
              "pitch": 42,
              "velocity": 17,
              "position": 8.760416666666666,
              "duration": 0.010416666666666666
            },
            {
              "pitch": 40,
              "velocity": 81,
              "position": 9,
              "duration": 0.010416666666666666
            },
            {
              "pitch": 42,
              "velocity": 112,
              "position": 9,
              "duration": 0.010416666666666666
            },
            {
              "pitch": 42,
              "velocity": 17,
              "position": 9.260416666666666,
              "duration": 0.010416666666666666
            },
            {
              "pitch": 35,
              "velocity": 38,
              "position": 9.5,
              "duration": 0.010416666666666666
            },
            {
              "pitch": 42,
              "velocity": 26,
              "position": 9.5,
              "duration": 0.010416666666666666
            },
            {
              "pitch": 42,
              "velocity": 21,
              "position": 9.760416666666666,
              "duration": 0.010416666666666666
            },
            {
              "pitch": 35,
              "velocity": 90,
              "position": 10,
              "duration": 0.010416666666666666
            },
            {
              "pitch": 42,
              "velocity": 69,
              "position": 10,
              "duration": 0.010416666666666666
            },
            {
              "pitch": 42,
              "velocity": 17,
              "position": 10.260416666666666,
              "duration": 0.010416666666666666
            },
            {
              "pitch": 42,
              "velocity": 26,
              "position": 10.5,
              "duration": 0.010416666666666666
            },
            {
              "pitch": 42,
              "velocity": 17,
              "position": 10.760416666666666,
              "duration": 0.010416666666666666
            },
            {
              "pitch": 40,
              "velocity": 81,
              "position": 11,
              "duration": 0.010416666666666666
            },
            {
              "pitch": 42,
              "velocity": 116,
              "position": 11,
              "duration": 0.010416666666666666
            },
            {
              "pitch": 42,
              "velocity": 17,
              "position": 11.260416666666666,
              "duration": 0.010416666666666666
            },
            {
              "pitch": 42,
              "velocity": 26,
              "position": 11.5,
              "duration": 0.010416666666666666
            },
            {
              "pitch": 42,
              "velocity": 17,
              "position": 11.760416666666666,
              "duration": 0.010416666666666666
            },
            {
              "pitch": 35,
              "velocity": 93,
              "position": 12,
              "duration": 0.010416666666666666
            },
            {
              "pitch": 42,
              "velocity": 69,
              "position": 12,
              "duration": 0.010416666666666666
            },
            {
              "pitch": 42,
              "velocity": 17,
              "position": 12.260416666666666,
              "duration": 0.010416666666666666
            },
            {
              "pitch": 42,
              "velocity": 26,
              "position": 12.5,
              "duration": 0.010416666666666666
            },
            {
              "pitch": 42,
              "velocity": 17,
              "position": 12.760416666666666,
              "duration": 0.010416666666666666
            },
            {
              "pitch": 40,
              "velocity": 81,
              "position": 13,
              "duration": 0.010416666666666666
            },
            {
              "pitch": 42,
              "velocity": 117,
              "position": 13,
              "duration": 0.010416666666666666
            },
            {
              "pitch": 42,
              "velocity": 17,
              "position": 13.260416666666666,
              "duration": 0.010416666666666666
            },
            {
              "pitch": 42,
              "velocity": 26,
              "position": 13.5,
              "duration": 0.010416666666666666
            },
            {
              "pitch": 35,
              "velocity": 40,
              "position": 13.760416666666666,
              "duration": 0.010416666666666666
            },
            {
              "pitch": 42,
              "velocity": 17,
              "position": 13.760416666666666,
              "duration": 0.010416666666666666
            },
            {
              "pitch": 35,
              "velocity": 89,
              "position": 14,
              "duration": 0.010416666666666666
            },
            {
              "pitch": 42,
              "velocity": 68,
              "position": 14,
              "duration": 0.010416666666666666
            },
            {
              "pitch": 42,
              "velocity": 17,
              "position": 14.260416666666666,
              "duration": 0.010416666666666666
            },
            {
              "pitch": 35,
              "velocity": 36,
              "position": 14.5,
              "duration": 0.010416666666666666
            },
            {
              "pitch": 42,
              "velocity": 26,
              "position": 14.5,
              "duration": 0.010416666666666666
            },
            {
              "pitch": 42,
              "velocity": 17,
              "position": 14.760416666666666,
              "duration": 0.010416666666666666
            },
            {
              "pitch": 40,
              "velocity": 81,
              "position": 15,
              "duration": 0.010416666666666666
            },
            {
              "pitch": 42,
              "velocity": 117,
              "position": 15,
              "duration": 0.010416666666666666
            },
            {
              "pitch": 42,
              "velocity": 26,
              "position": 15.260416666666666,
              "duration": 0.010416666666666666
            },
            {
              "pitch": 46,
              "velocity": 52,
              "position": 15.5,
              "duration": 0.010416666666666666
            },
            {
              "pitch": 35,
              "velocity": 17,
              "position": 15.760416666666666,
              "duration": 0.010416666666666666
            }
          ]
        },
        "10": {
          "ctab": {
            "srcChannel": 10,
            "name": "Bass",
            "accType": "BASS",
            "editable": false,
            "mutedNotes": [],
            "mutedChords": [],
            "autoStart": false,
            "sourceChordNote": 0,
            "sourceChordType": "Maj7",
            "ctb2Low": null,
            "ctb2Main": {
              "ntr": "ROOT_TRANSPOSITION",
              "ntt": "MELODY",
              "bassOn": true,
              "chordRootUpperLimit": 8,
              "noteLowLimit": 28,
              "noteHighLimit": 127,
              "rtr": "PITCH_SHIFT_TO_ROOT"
            },
            "ctb2High": null
          },
          "notes": [
            {
              "pitch": 24,
              "velocity": 86,
              "position": 0,
              "duration": 1.7395833333333333
            },
            {
              "pitch": 24,
              "velocity": 57,
              "position": 1.7604166666666667,
              "duration": 0.21875
            },
            {
              "pitch": 24,
              "velocity": 83,
              "position": 2,
              "duration": 1.4791666666666667
            },
            {
              "pitch": 31,
              "velocity": 84,
              "position": 3.5,
              "duration": 0.23958333333333334
            },
            {
              "pitch": 24,
              "velocity": 60,
              "position": 3.7604166666666665,
              "duration": 0.21875
            },
            {
              "pitch": 24,
              "velocity": 86,
              "position": 4,
              "duration": 1.7395833333333333
            },
            {
              "pitch": 24,
              "velocity": 65,
              "position": 5.760416666666667,
              "duration": 0.21875
            },
            {
              "pitch": 24,
              "velocity": 82,
              "position": 6,
              "duration": 1.4791666666666667
            },
            {
              "pitch": 31,
              "velocity": 84,
              "position": 7.5,
              "duration": 0.23958333333333334
            },
            {
              "pitch": 24,
              "velocity": 60,
              "position": 7.760416666666667,
              "duration": 0.21875
            },
            {
              "pitch": 24,
              "velocity": 86,
              "position": 8,
              "duration": 1.7395833333333333
            },
            {
              "pitch": 24,
              "velocity": 65,
              "position": 9.760416666666666,
              "duration": 0.21875
            },
            {
              "pitch": 24,
              "velocity": 82,
              "position": 10,
              "duration": 1.4791666666666667
            },
            {
              "pitch": 31,
              "velocity": 84,
              "position": 11.5,
              "duration": 0.23958333333333334
            },
            {
              "pitch": 24,
              "velocity": 60,
              "position": 11.760416666666666,
              "duration": 0.21875
            },
            {
              "pitch": 24,
              "velocity": 86,
              "position": 12,
              "duration": 1.7395833333333333
            },
            {
              "pitch": 24,
              "velocity": 67,
              "position": 13.760416666666666,
              "duration": 0.21875
            },
            {
              "pitch": 24,
              "velocity": 82,
              "position": 14,
              "duration": 1.4791666666666667
            },
            {
              "pitch": 31,
              "velocity": 84,
              "position": 15.5,
              "duration": 0.23958333333333334
            },
            {
              "pitch": 24,
              "velocity": 60,
              "position": 15.760416666666666,
              "duration": 0.21875
            }
          ]
        },
        "11": {
          "ctab": {
            "srcChannel": 11,
            "name": "EP",
            "accType": "CHORD1",
            "editable": false,
            "mutedNotes": [],
            "mutedChords": [],
            "autoStart": false,
            "sourceChordNote": 0,
            "sourceChordType": "Maj7",
            "ctb2Low": null,
            "ctb2Main": {
              "ntr": "ROOT_FIXED",
              "ntt": "CHORD",
              "bassOn": false,
              "chordRootUpperLimit": 11,
              "noteLowLimit": 0,
              "noteHighLimit": 127,
              "rtr": "PITCH_SHIFT"
            },
            "ctb2High": null
          },
          "notes": [
            {
              "pitch": 55,
              "velocity": 64,
              "position": 0,
              "duration": 0.4791666666666667
            },
            {
              "pitch": 59,
              "velocity": 64,
              "position": 0,
              "duration": 0.9791666666666666
            },
            {
              "pitch": 64,
              "velocity": 64,
              "position": 0,
              "duration": 0.9791666666666666
            },
            {
              "pitch": 55,
              "velocity": 53,
              "position": 0.5,
              "duration": 0.9791666666666666
            },
            {
              "pitch": 59,
              "velocity": 58,
              "position": 1,
              "duration": 0.9791666666666666
            },
            {
              "pitch": 64,
              "velocity": 58,
              "position": 1,
              "duration": 0.9791666666666666
            },
            {
              "pitch": 55,
              "velocity": 55,
              "position": 1.5,
              "duration": 0.9791666666666666
            },
            {
              "pitch": 59,
              "velocity": 54,
              "position": 2,
              "duration": 0.9791666666666666
            },
            {
              "pitch": 64,
              "velocity": 54,
              "position": 2,
              "duration": 0.9791666666666666
            },
            {
              "pitch": 55,
              "velocity": 46,
              "position": 2.5,
              "duration": 0.9791666666666666
            },
            {
              "pitch": 55,
              "velocity": 48,
              "position": 3.5,
              "duration": 0.4791666666666667
            },
            {
              "pitch": 59,
              "velocity": 57,
              "position": 3,
              "duration": 0.9791666666666666
            },
            {
              "pitch": 64,
              "velocity": 57,
              "position": 3,
              "duration": 0.9791666666666666
            },
            {
              "pitch": 55,
              "velocity": 66,
              "position": 4,
              "duration": 0.4791666666666667
            },
            {
              "pitch": 59,
              "velocity": 65,
              "position": 4,
              "duration": 0.9791666666666666
            },
            {
              "pitch": 64,
              "velocity": 65,
              "position": 4,
              "duration": 0.9791666666666666
            },
            {
              "pitch": 55,
              "velocity": 52,
              "position": 4.5,
              "duration": 0.9791666666666666
            },
            {
              "pitch": 59,
              "velocity": 53,
              "position": 5,
              "duration": 0.9791666666666666
            },
            {
              "pitch": 64,
              "velocity": 53,
              "position": 5,
              "duration": 0.9791666666666666
            },
            {
              "pitch": 55,
              "velocity": 53,
              "position": 5.5,
              "duration": 0.9791666666666666
            },
            {
              "pitch": 59,
              "velocity": 58,
              "position": 6,
              "duration": 0.9791666666666666
            },
            {
              "pitch": 64,
              "velocity": 58,
              "position": 6,
              "duration": 0.9791666666666666
            },
            {
              "pitch": 55,
              "velocity": 48,
              "position": 6.5,
              "duration": 0.9791666666666666
            },
            {
              "pitch": 55,
              "velocity": 46,
              "position": 7.5,
              "duration": 0.4791666666666667
            },
            {
              "pitch": 59,
              "velocity": 57,
              "position": 7,
              "duration": 0.9791666666666666
            },
            {
              "pitch": 64,
              "velocity": 57,
              "position": 7,
              "duration": 0.9791666666666666
            },
            {
              "pitch": 55,
              "velocity": 64,
              "position": 8,
              "duration": 0.4791666666666667
            },
            {
              "pitch": 59,
              "velocity": 64,
              "position": 8,
              "duration": 0.9791666666666666
            },
            {
              "pitch": 64,
              "velocity": 64,
              "position": 8,
              "duration": 0.9791666666666666
            },
            {
              "pitch": 55,
              "velocity": 53,
              "position": 8.5,
              "duration": 0.9791666666666666
            },
            {
              "pitch": 59,
              "velocity": 58,
              "position": 9,
              "duration": 0.9791666666666666
            },
            {
              "pitch": 64,
              "velocity": 58,
              "position": 9,
              "duration": 0.9791666666666666
            },
            {
              "pitch": 55,
              "velocity": 55,
              "position": 9.5,
              "duration": 0.9791666666666666
            },
            {
              "pitch": 59,
              "velocity": 54,
              "position": 10,
              "duration": 0.9791666666666666
            },
            {
              "pitch": 64,
              "velocity": 54,
              "position": 10,
              "duration": 0.9791666666666666
            },
            {
              "pitch": 55,
              "velocity": 46,
              "position": 10.5,
              "duration": 0.9791666666666666
            },
            {
              "pitch": 55,
              "velocity": 48,
              "position": 11.5,
              "duration": 0.4791666666666667
            },
            {
              "pitch": 59,
              "velocity": 57,
              "position": 11,
              "duration": 0.9791666666666666
            },
            {
              "pitch": 64,
              "velocity": 57,
              "position": 11,
              "duration": 0.9791666666666666
            },
            {
              "pitch": 55,
              "velocity": 66,
              "position": 12,
              "duration": 0.4791666666666667
            },
            {
              "pitch": 59,
              "velocity": 65,
              "position": 12,
              "duration": 0.9791666666666666
            },
            {
              "pitch": 64,
              "velocity": 65,
              "position": 12,
              "duration": 0.9791666666666666
            },
            {
              "pitch": 55,
              "velocity": 52,
              "position": 12.5,
              "duration": 0.9791666666666666
            },
            {
              "pitch": 59,
              "velocity": 53,
              "position": 13,
              "duration": 0.9791666666666666
            },
            {
              "pitch": 64,
              "velocity": 53,
              "position": 13,
              "duration": 0.9791666666666666
            },
            {
              "pitch": 55,
              "velocity": 53,
              "position": 13.5,
              "duration": 0.9791666666666666
            },
            {
              "pitch": 59,
              "velocity": 58,
              "position": 14,
              "duration": 0.9791666666666666
            },
            {
              "pitch": 64,
              "velocity": 58,
              "position": 14,
              "duration": 0.9791666666666666
            },
            {
              "pitch": 55,
              "velocity": 48,
              "position": 14.5,
              "duration": 0.9791666666666666
            },
            {
              "pitch": 55,
              "velocity": 46,
              "position": 15.5,
              "duration": 0.4791666666666667
            },
            {
              "pitch": 59,
              "velocity": 57,
              "position": 15,
              "duration": 0.9791666666666666
            },
            {
              "pitch": 64,
              "velocity": 57,
              "position": 15,
              "duration": 0.9791666666666666
            }
          ]
        },
        "12": {
          "ctab": {
            "srcChannel": 12,
            "name": "Guitar",
            "accType": "CHORD2",
            "editable": false,
            "mutedNotes": [],
            "mutedChords": [],
            "autoStart": false,
            "sourceChordNote": 0,
            "sourceChordType": "Maj7",
            "ctb2Low": null,
            "ctb2Main": {
              "ntr": "ROOT_FIXED",
              "ntt": "CHORD",
              "bassOn": false,
              "chordRootUpperLimit": 7,
              "noteLowLimit": 0,
              "noteHighLimit": 127,
              "rtr": "PITCH_SHIFT"
            },
            "ctb2High": null
          },
          "notes": [
            {
              "pitch": 59,
              "velocity": 45,
              "position": 0,
              "duration": 1.4791666666666667
            },
            {
              "pitch": 64,
              "velocity": 45,
              "position": 0,
              "duration": 1.4791666666666667
            },
            {
              "pitch": 67,
              "velocity": 45,
              "position": 0,
              "duration": 1.4791666666666667
            },
            {
              "pitch": 59,
              "velocity": 45,
              "position": 1.5,
              "duration": 2.4791666666666665
            },
            {
              "pitch": 64,
              "velocity": 45,
              "position": 1.5,
              "duration": 2.4791666666666665
            },
            {
              "pitch": 67,
              "velocity": 45,
              "position": 1.5,
              "duration": 2.4791666666666665
            },
            {
              "pitch": 59,
              "velocity": 45,
              "position": 4,
              "duration": 1.4791666666666667
            },
            {
              "pitch": 64,
              "velocity": 45,
              "position": 4,
              "duration": 1.4791666666666667
            },
            {
              "pitch": 67,
              "velocity": 45,
              "position": 4,
              "duration": 1.4791666666666667
            },
            {
              "pitch": 59,
              "velocity": 45,
              "position": 5.5,
              "duration": 2.4791666666666665
            },
            {
              "pitch": 64,
              "velocity": 45,
              "position": 5.5,
              "duration": 2.4791666666666665
            },
            {
              "pitch": 67,
              "velocity": 45,
              "position": 5.5,
              "duration": 2.4791666666666665
            },
            {
              "pitch": 59,
              "velocity": 45,
              "position": 8,
              "duration": 1.4791666666666667
            },
            {
              "pitch": 64,
              "velocity": 45,
              "position": 8,
              "duration": 1.4791666666666667
            },
            {
              "pitch": 67,
              "velocity": 45,
              "position": 8,
              "duration": 1.4791666666666667
            },
            {
              "pitch": 59,
              "velocity": 45,
              "position": 9.5,
              "duration": 2.4791666666666665
            },
            {
              "pitch": 64,
              "velocity": 45,
              "position": 9.5,
              "duration": 2.4791666666666665
            },
            {
              "pitch": 67,
              "velocity": 45,
              "position": 9.5,
              "duration": 2.4791666666666665
            },
            {
              "pitch": 59,
              "velocity": 45,
              "position": 12,
              "duration": 1.4791666666666667
            },
            {
              "pitch": 64,
              "velocity": 45,
              "position": 12,
              "duration": 1.4791666666666667
            },
            {
              "pitch": 67,
              "velocity": 45,
              "position": 12,
              "duration": 1.4791666666666667
            },
            {
              "pitch": 59,
              "velocity": 45,
              "position": 13.5,
              "duration": 2.4791666666666665
            },
            {
              "pitch": 64,
              "velocity": 45,
              "position": 13.5,
              "duration": 2.4791666666666665
            },
            {
              "pitch": 67,
              "velocity": 45,
              "position": 13.5,
              "duration": 2.4791666666666665
            }
          ]
        },
        "13": {
          "ctab": {
            "srcChannel": 13,
            "name": "Strings",
            "accType": "PAD",
            "editable": false,
            "mutedNotes": [],
            "mutedChords": [],
            "autoStart": false,
            "sourceChordNote": 0,
            "sourceChordType": "Maj7",
            "ctb2Low": null,
            "ctb2Main": {
              "ntr": "ROOT_FIXED",
              "ntt": "CHORD",
              "bassOn": false,
              "chordRootUpperLimit": 0,
              "noteLowLimit": 0,
              "noteHighLimit": 127,
              "rtr": "PITCH_SHIFT"
            },
            "ctb2High": null
          },
          "notes": [
            {
              "pitch": 59,
              "velocity": 45,
              "position": 0,
              "duration": 15.979166666666666
            },
            {
              "pitch": 64,
              "velocity": 45,
              "position": 0,
              "duration": 15.979166666666666
            },
            {
              "pitch": 67,
              "velocity": 45,
              "position": 0,
              "duration": 15.979166666666666
            }
          ]
        },
        "14": {
          "ctab": {
            "srcChannel": 14,
            "name": "Mute",
            "accType": "PHRASE1",
            "editable": false,
            "mutedNotes": [],
            "mutedChords": [],
            "autoStart": false,
            "sourceChordNote": 0,
            "sourceChordType": "min7(11)",
            "ctb2Low": null,
            "ctb2Main": {
              "ntr": "ROOT_FIXED",
              "ntt": "CHORD",
              "bassOn": false,
              "chordRootUpperLimit": 6,
              "noteLowLimit": 0,
              "noteHighLimit": 127,
              "rtr": "PITCH_SHIFT"
            },
            "ctb2High": null
          },
          "notes": [
            {
              "pitch": 55,
              "velocity": 85,
              "position": 0.5,
              "duration": 0.23958333333333334
            },
            {
              "pitch": 60,
              "velocity": 85,
              "position": 0.5,
              "duration": 0.23958333333333334
            },
            {
              "pitch": 55,
              "velocity": 47,
              "position": 0.7604166666666666,
              "duration": 0.052083333333333336
            },
            {
              "pitch": 60,
              "velocity": 47,
              "position": 0.7604166666666666,
              "duration": 0.052083333333333336
            },
            {
              "pitch": 55,
              "velocity": 75,
              "position": 1.2604166666666667,
              "duration": 0.07291666666666667
            },
            {
              "pitch": 60,
              "velocity": 75,
              "position": 1.2604166666666667,
              "duration": 0.07291666666666667
            },
            {
              "pitch": 55,
              "velocity": 85,
              "position": 2.5,
              "duration": 0.23958333333333334
            },
            {
              "pitch": 60,
              "velocity": 85,
              "position": 2.5,
              "duration": 0.23958333333333334
            },
            {
              "pitch": 55,
              "velocity": 47,
              "position": 2.7604166666666665,
              "duration": 0.041666666666666664
            },
            {
              "pitch": 60,
              "velocity": 47,
              "position": 2.7604166666666665,
              "duration": 0.07291666666666667
            },
            {
              "pitch": 55,
              "velocity": 67,
              "position": 3.2604166666666665,
              "duration": 0.21875
            },
            {
              "pitch": 60,
              "velocity": 67,
              "position": 3.2604166666666665,
              "duration": 0.21875
            },
            {
              "pitch": 55,
              "velocity": 41,
              "position": 3.5,
              "duration": 0.23958333333333334
            },
            {
              "pitch": 60,
              "velocity": 41,
              "position": 3.5,
              "duration": 0.23958333333333334
            },
            {
              "pitch": 55,
              "velocity": 74,
              "position": 3.7604166666666665,
              "duration": 0.07291666666666667
            },
            {
              "pitch": 60,
              "velocity": 74,
              "position": 3.7604166666666665,
              "duration": 0.07291666666666667
            },
            {
              "pitch": 55,
              "velocity": 85,
              "position": 4.5,
              "duration": 0.23958333333333334
            },
            {
              "pitch": 60,
              "velocity": 85,
              "position": 4.5,
              "duration": 0.23958333333333334
            },
            {
              "pitch": 55,
              "velocity": 47,
              "position": 4.760416666666667,
              "duration": 0.052083333333333336
            },
            {
              "pitch": 60,
              "velocity": 47,
              "position": 4.760416666666667,
              "duration": 0.052083333333333336
            },
            {
              "pitch": 55,
              "velocity": 75,
              "position": 5.260416666666667,
              "duration": 0.07291666666666667
            },
            {
              "pitch": 60,
              "velocity": 75,
              "position": 5.260416666666667,
              "duration": 0.07291666666666667
            },
            {
              "pitch": 55,
              "velocity": 85,
              "position": 6.5,
              "duration": 0.23958333333333334
            },
            {
              "pitch": 60,
              "velocity": 85,
              "position": 6.5,
              "duration": 0.23958333333333334
            },
            {
              "pitch": 55,
              "velocity": 47,
              "position": 6.760416666666667,
              "duration": 0.041666666666666664
            },
            {
              "pitch": 60,
              "velocity": 47,
              "position": 6.760416666666667,
              "duration": 0.07291666666666667
            },
            {
              "pitch": 55,
              "velocity": 67,
              "position": 7.260416666666667,
              "duration": 0.21875
            },
            {
              "pitch": 60,
              "velocity": 67,
              "position": 7.260416666666667,
              "duration": 0.21875
            },
            {
              "pitch": 55,
              "velocity": 41,
              "position": 7.5,
              "duration": 0.23958333333333334
            },
            {
              "pitch": 60,
              "velocity": 41,
              "position": 7.5,
              "duration": 0.23958333333333334
            },
            {
              "pitch": 55,
              "velocity": 74,
              "position": 7.760416666666667,
              "duration": 0.07291666666666667
            },
            {
              "pitch": 60,
              "velocity": 74,
              "position": 7.760416666666667,
              "duration": 0.07291666666666667
            },
            {
              "pitch": 55,
              "velocity": 85,
              "position": 8.5,
              "duration": 0.23958333333333334
            },
            {
              "pitch": 60,
              "velocity": 85,
              "position": 8.5,
              "duration": 0.23958333333333334
            },
            {
              "pitch": 55,
              "velocity": 47,
              "position": 8.760416666666666,
              "duration": 0.052083333333333336
            },
            {
              "pitch": 60,
              "velocity": 47,
              "position": 8.760416666666666,
              "duration": 0.052083333333333336
            },
            {
              "pitch": 55,
              "velocity": 75,
              "position": 9.260416666666666,
              "duration": 0.07291666666666667
            },
            {
              "pitch": 60,
              "velocity": 75,
              "position": 9.260416666666666,
              "duration": 0.07291666666666667
            },
            {
              "pitch": 55,
              "velocity": 85,
              "position": 10.5,
              "duration": 0.23958333333333334
            },
            {
              "pitch": 60,
              "velocity": 85,
              "position": 10.5,
              "duration": 0.23958333333333334
            },
            {
              "pitch": 55,
              "velocity": 47,
              "position": 10.760416666666666,
              "duration": 0.041666666666666664
            },
            {
              "pitch": 60,
              "velocity": 47,
              "position": 10.760416666666666,
              "duration": 0.07291666666666667
            },
            {
              "pitch": 55,
              "velocity": 67,
              "position": 11.260416666666666,
              "duration": 0.21875
            },
            {
              "pitch": 60,
              "velocity": 67,
              "position": 11.260416666666666,
              "duration": 0.21875
            },
            {
              "pitch": 55,
              "velocity": 41,
              "position": 11.5,
              "duration": 0.23958333333333334
            },
            {
              "pitch": 60,
              "velocity": 41,
              "position": 11.5,
              "duration": 0.23958333333333334
            },
            {
              "pitch": 55,
              "velocity": 74,
              "position": 11.760416666666666,
              "duration": 0.07291666666666667
            },
            {
              "pitch": 60,
              "velocity": 74,
              "position": 11.760416666666666,
              "duration": 0.07291666666666667
            },
            {
              "pitch": 55,
              "velocity": 85,
              "position": 12.5,
              "duration": 0.23958333333333334
            },
            {
              "pitch": 60,
              "velocity": 85,
              "position": 12.5,
              "duration": 0.23958333333333334
            },
            {
              "pitch": 55,
              "velocity": 47,
              "position": 12.760416666666666,
              "duration": 0.052083333333333336
            },
            {
              "pitch": 60,
              "velocity": 47,
              "position": 12.760416666666666,
              "duration": 0.052083333333333336
            },
            {
              "pitch": 55,
              "velocity": 75,
              "position": 13.260416666666666,
              "duration": 0.07291666666666667
            },
            {
              "pitch": 60,
              "velocity": 75,
              "position": 13.260416666666666,
              "duration": 0.07291666666666667
            },
            {
              "pitch": 55,
              "velocity": 85,
              "position": 14.5,
              "duration": 0.23958333333333334
            },
            {
              "pitch": 60,
              "velocity": 85,
              "position": 14.5,
              "duration": 0.23958333333333334
            },
            {
              "pitch": 55,
              "velocity": 47,
              "position": 14.760416666666666,
              "duration": 0.041666666666666664
            },
            {
              "pitch": 60,
              "velocity": 47,
              "position": 14.760416666666666,
              "duration": 0.07291666666666667
            },
            {
              "pitch": 55,
              "velocity": 67,
              "position": 15.260416666666666,
              "duration": 0.21875
            },
            {
              "pitch": 60,
              "velocity": 67,
              "position": 15.260416666666666,
              "duration": 0.21875
            },
            {
              "pitch": 55,
              "velocity": 41,
              "position": 15.5,
              "duration": 0.23958333333333334
            },
            {
              "pitch": 60,
              "velocity": 41,
              "position": 15.5,
              "duration": 0.23958333333333334
            },
            {
              "pitch": 55,
              "velocity": 72,
              "position": 15.760416666666666,
              "duration": 0.07291666666666667
            },
            {
              "pitch": 60,
              "velocity": 72,
              "position": 15.760416666666666,
              "duration": 0.07291666666666667
            }
          ]
        }
      }
    },
    "Fill_In_AA": {
      "type": "Fill_In_AA",
      "sizeInBeats": 4,
      "channels": {
        "0": {
          "ctab": {
            "srcChannel": 0,
            "name": "CC Crash",
            "accType": "RHYTHM",
            "editable": false,
            "mutedNotes": [],
            "mutedChords": [
              "1+2+5",
              "sus4",
              "1+5",
              "1+8",
              "7aug",
              "Maj7aug",
              "7(#9)",
              "7(b13)",
              "7(b9)",
              "7(13)",
              "7#11",
              "7(9)",
              "7b5",
              "7sus4",
              "7th",
              "dim7",
              "dim",
              "minMaj7(9)",
              "minMaj7",
              "min7(11)",
              "min7(9)",
              "min(9)",
              "m7b5",
              "min7",
              "min6",
              "min",
              "aug",
              "Maj6(9)",
              "Maj7(9)",
              "Maj(9)",
              "Maj7#11",
              "Maj7",
              "Maj6",
              "Maj"
            ],
            "autoStart": true,
            "sourceChordNote": 0,
            "sourceChordType": "Maj7",
            "ctb2Low": null,
            "ctb2Main": {
              "ntr": "ROOT_FIXED",
              "ntt": "BYPASS",
              "bassOn": false,
              "chordRootUpperLimit": 6,
              "noteLowLimit": 0,
              "noteHighLimit": 127,
              "rtr": "RETRIGGER"
            },
            "ctb2High": null
          },
          "notes": []
        },
        "3": {
          "ctab": {
            "srcChannel": 3,
            "name": "EP Rt",
            "accType": "CHORD1",
            "editable": false,
            "mutedNotes": [],
            "mutedChords": [],
            "autoStart": false,
            "sourceChordNote": 0,
            "sourceChordType": "Maj7",
            "ctb2Low": null,
            "ctb2Main": {
              "ntr": "ROOT_TRANSPOSITION",
              "ntt": "MELODY",
              "bassOn": true,
              "chordRootUpperLimit": 6,
              "noteLowLimit": 0,
              "noteHighLimit": 127,
              "rtr": "PITCH_SHIFT_TO_ROOT"
            },
            "ctb2High": null
          },
          "notes": [
            {
              "pitch": 48,
              "velocity": 48,
              "position": 0,
              "duration": 3.9791666666666665
            }
          ]
        },
        "5": {
          "ctab": {
            "srcChannel": 5,
            "name": "Strng Rt",
            "accType": "PAD",
            "editable": false,
            "mutedNotes": [],
            "mutedChords": [
              "1+2+5",
              "sus4",
              "1+5",
              "1+8",
              "Maj7aug",
              "dim",
              "minMaj7(9)",
              "minMaj7",
              "min6",
              "min",
              "aug",
              "Maj7(9)",
              "Maj7#11",
              "Maj7",
              "Maj6",
              "Maj"
            ],
            "autoStart": false,
            "sourceChordNote": 0,
            "sourceChordType": "Maj7",
            "ctb2Low": null,
            "ctb2Main": {
              "ntr": "ROOT_TRANSPOSITION",
              "ntt": "CHORD",
              "bassOn": false,
              "chordRootUpperLimit": 10,
              "noteLowLimit": 0,
              "noteHighLimit": 127,
              "rtr": "PITCH_SHIFT"
            },
            "ctb2High": null
          },
          "notes": []
        },
        "8": {
          "ctab": {
            "srcChannel": 8,
            "name": "RHY 1",
            "accType": "SUBRHYTHM",
            "editable": false,
            "mutedNotes": [],
            "mutedChords": [],
            "autoStart": true,
            "sourceChordNote": 0,
            "sourceChordType": "Maj7",
            "ctb2Low": null,
            "ctb2Main": {
              "ntr": "ROOT_FIXED",
              "ntt": "BYPASS",
              "bassOn": false,
              "chordRootUpperLimit": 6,
              "noteLowLimit": 0,
              "noteHighLimit": 127,
              "rtr": "PITCH_SHIFT"
            },
            "ctb2High": null
          },
          "notes": []
        },
        "9": {
          "ctab": {
            "srcChannel": 9,
            "name": "RHY 2",
            "accType": "RHYTHM",
            "editable": false,
            "mutedNotes": [],
            "mutedChords": [],
            "autoStart": true,
            "sourceChordNote": 0,
            "sourceChordType": "Maj7",
            "ctb2Low": null,
            "ctb2Main": {
              "ntr": "ROOT_FIXED",
              "ntt": "BYPASS",
              "bassOn": false,
              "chordRootUpperLimit": 6,
              "noteLowLimit": 0,
              "noteHighLimit": 127,
              "rtr": "PITCH_SHIFT"
            },
            "ctb2High": null
          },
          "notes": [
            {
              "pitch": 35,
              "velocity": 60,
              "position": 0,
              "duration": 0.010416666666666666
            },
            {
              "pitch": 42,
              "velocity": 32,
              "position": 0,
              "duration": 0.010416666666666666
            },
            {
              "pitch": 42,
              "velocity": 26,
              "position": 0.5,
              "duration": 0.010416666666666666
            },
            {
              "pitch": 46,
              "velocity": 43,
              "position": 0.7604166666666666,
              "duration": 0.010416666666666666
            },
            {
              "pitch": 42,
              "velocity": 88,
              "position": 1,
              "duration": 0.010416666666666666
            },
            {
              "pitch": 42,
              "velocity": 26,
              "position": 1.5,
              "duration": 0.010416666666666666
            },
            {
              "pitch": 35,
              "velocity": 16,
              "position": 1.7604166666666667,
              "duration": 0.010416666666666666
            },
            {
              "pitch": 35,
              "velocity": 60,
              "position": 2,
              "duration": 0.010416666666666666
            },
            {
              "pitch": 42,
              "velocity": 26,
              "position": 2,
              "duration": 0.010416666666666666
            },
            {
              "pitch": 42,
              "velocity": 26,
              "position": 2.5,
              "duration": 0.010416666666666666
            },
            {
              "pitch": 46,
              "velocity": 43,
              "position": 2.7604166666666665,
              "duration": 0.010416666666666666
            },
            {
              "pitch": 35,
              "velocity": 17,
              "position": 2.75,
              "duration": 0.03125
            },
            {
              "pitch": 42,
              "velocity": 88,
              "position": 3,
              "duration": 0.010416666666666666
            },
            {
              "pitch": 40,
              "velocity": 40,
              "position": 3,
              "duration": 0.03125
            },
            {
              "pitch": 42,
              "velocity": 26,
              "position": 3.2604166666666665,
              "duration": 0.010416666666666666
            },
            {
              "pitch": 40,
              "velocity": 56,
              "position": 3.25,
              "duration": 0.03125
            },
            {
              "pitch": 46,
              "velocity": 43,
              "position": 3.5,
              "duration": 0.010416666666666666
            },
            {
              "pitch": 35,
              "velocity": 16,
              "position": 3.7604166666666665,
              "duration": 0.010416666666666666
            }
          ]
        },
        "10": {
          "ctab": {
            "srcChannel": 10,
            "name": "Bass",
            "accType": "BASS",
            "editable": false,
            "mutedNotes": [],
            "mutedChords": [],
            "autoStart": false,
            "sourceChordNote": 0,
            "sourceChordType": "Maj7",
            "ctb2Low": null,
            "ctb2Main": {
              "ntr": "ROOT_TRANSPOSITION",
              "ntt": "MELODY",
              "bassOn": true,
              "chordRootUpperLimit": 8,
              "noteLowLimit": 28,
              "noteHighLimit": 127,
              "rtr": "PITCH_SHIFT_TO_ROOT"
            },
            "ctb2High": null
          },
          "notes": [
            {
              "pitch": 24,
              "velocity": 79,
              "position": 0,
              "duration": 1.7395833333333333
            },
            {
              "pitch": 24,
              "velocity": 55,
              "position": 1.7604166666666667,
              "duration": 0.21875
            },
            {
              "pitch": 24,
              "velocity": 79,
              "position": 2,
              "duration": 1.7395833333333333
            },
            {
              "pitch": 31,
              "velocity": 59,
              "position": 3.7604166666666665,
              "duration": 0.22916666666666666
            }
          ]
        },
        "11": {
          "ctab": {
            "srcChannel": 11,
            "name": "EP",
            "accType": "CHORD1",
            "editable": false,
            "mutedNotes": [],
            "mutedChords": [],
            "autoStart": false,
            "sourceChordNote": 0,
            "sourceChordType": "Maj7",
            "ctb2Low": null,
            "ctb2Main": {
              "ntr": "ROOT_FIXED",
              "ntt": "CHORD",
              "bassOn": false,
              "chordRootUpperLimit": 11,
              "noteLowLimit": 0,
              "noteHighLimit": 127,
              "rtr": "PITCH_SHIFT"
            },
            "ctb2High": null
          },
          "notes": [
            {
              "pitch": 55,
              "velocity": 50,
              "position": 0,
              "duration": 0.4791666666666667
            },
            {
              "pitch": 55,
              "velocity": 41,
              "position": 0.5,
              "duration": 1.4791666666666667
            },
            {
              "pitch": 59,
              "velocity": 60,
              "position": 0,
              "duration": 1.9791666666666667
            },
            {
              "pitch": 64,
              "velocity": 60,
              "position": 0,
              "duration": 1.9791666666666667
            },
            {
              "pitch": 55,
              "velocity": 33,
              "position": 2,
              "duration": 1.4791666666666667
            },
            {
              "pitch": 55,
              "velocity": 40,
              "position": 3.5,
              "duration": 0.4791666666666667
            },
            {
              "pitch": 59,
              "velocity": 57,
              "position": 2,
              "duration": 1.9791666666666667
            },
            {
              "pitch": 64,
              "velocity": 57,
              "position": 2,
              "duration": 1.9791666666666667
            }
          ]
        },
        "12": {
          "ctab": {
            "srcChannel": 12,
            "name": "Guitar",
            "accType": "CHORD2",
            "editable": false,
            "mutedNotes": [],
            "mutedChords": [],
            "autoStart": false,
            "sourceChordNote": 0,
            "sourceChordType": "Maj7",
            "ctb2Low": null,
            "ctb2Main": {
              "ntr": "ROOT_FIXED",
              "ntt": "CHORD",
              "bassOn": false,
              "chordRootUpperLimit": 7,
              "noteLowLimit": 0,
              "noteHighLimit": 127,
              "rtr": "PITCH_SHIFT"
            },
            "ctb2High": null
          },
          "notes": []
        },
        "13": {
          "ctab": {
            "srcChannel": 13,
            "name": "Strings",
            "accType": "PAD",
            "editable": false,
            "mutedNotes": [],
            "mutedChords": [],
            "autoStart": false,
            "sourceChordNote": 0,
            "sourceChordType": "Maj7",
            "ctb2Low": null,
            "ctb2Main": {
              "ntr": "ROOT_FIXED",
              "ntt": "CHORD",
              "bassOn": false,
              "chordRootUpperLimit": 0,
              "noteLowLimit": 0,
              "noteHighLimit": 127,
              "rtr": "PITCH_SHIFT"
            },
            "ctb2High": null
          },
          "notes": []
        },
        "14": {
          "ctab": {
            "srcChannel": 14,
            "name": "Mute",
            "accType": "PHRASE1",
            "editable": false,
            "mutedNotes": [],
            "mutedChords": [],
            "autoStart": false,
            "sourceChordNote": 0,
            "sourceChordType": "min7(11)",
            "ctb2Low": null,
            "ctb2Main": {
              "ntr": "ROOT_FIXED",
              "ntt": "CHORD",
              "bassOn": false,
              "chordRootUpperLimit": 6,
              "noteLowLimit": 0,
              "noteHighLimit": 127,
              "rtr": "PITCH_SHIFT"
            },
            "ctb2High": null
          },
          "notes": [
            {
              "pitch": 48,
              "velocity": 75,
              "position": 0.5,
              "duration": 0.23958333333333334
            },
            {
              "pitch": 55,
              "velocity": 75,
              "position": 0.5,
              "duration": 0.23958333333333334
            },
            {
              "pitch": 48,
              "velocity": 34,
              "position": 0.7604166666666666,
              "duration": 0.21875
            },
            {
              "pitch": 55,
              "velocity": 34,
              "position": 0.7604166666666666,
              "duration": 0.21875
            },
            {
              "pitch": 55,
              "velocity": 76,
              "position": 1,
              "duration": 0.23958333333333334
            },
            {
              "pitch": 60,
              "velocity": 76,
              "position": 1,
              "duration": 0.23958333333333334
            },
            {
              "pitch": 55,
              "velocity": 56,
              "position": 1.2604166666666667,
              "duration": 0.07291666666666667
            },
            {
              "pitch": 60,
              "velocity": 56,
              "position": 1.2604166666666667,
              "duration": 0.07291666666666667
            },
            {
              "pitch": 55,
              "velocity": 76,
              "position": 2.5,
              "duration": 0.23958333333333334
            },
            {
              "pitch": 60,
              "velocity": 76,
              "position": 2.5,
              "duration": 0.23958333333333334
            },
            {
              "pitch": 55,
              "velocity": 56,
              "position": 2.7604166666666665,
              "duration": 0.07291666666666667
            },
            {
              "pitch": 60,
              "velocity": 56,
              "position": 2.7604166666666665,
              "duration": 0.07291666666666667
            }
          ]
        }
      }
    },
    "Fill_In_BB": {
      "type": "Fill_In_BB",
      "sizeInBeats": 4,
      "channels": {
        "0": {
          "ctab": {
            "srcChannel": 0,
            "name": "CC Crash",
            "accType": "RHYTHM",
            "editable": false,
            "mutedNotes": [],
            "mutedChords": [
              "1+2+5",
              "sus4",
              "1+5",
              "1+8",
              "7aug",
              "Maj7aug",
              "7(#9)",
              "7(b13)",
              "7(b9)",
              "7(13)",
              "7#11",
              "7(9)",
              "7b5",
              "7sus4",
              "7th",
              "dim7",
              "dim",
              "minMaj7(9)",
              "minMaj7",
              "min7(11)",
              "min7(9)",
              "min(9)",
              "m7b5",
              "min7",
              "min6",
              "min",
              "aug",
              "Maj6(9)",
              "Maj7(9)",
              "Maj(9)",
              "Maj7#11",
              "Maj7",
              "Maj6",
              "Maj"
            ],
            "autoStart": true,
            "sourceChordNote": 0,
            "sourceChordType": "Maj7",
            "ctb2Low": null,
            "ctb2Main": {
              "ntr": "ROOT_FIXED",
              "ntt": "BYPASS",
              "bassOn": false,
              "chordRootUpperLimit": 6,
              "noteLowLimit": 0,
              "noteHighLimit": 127,
              "rtr": "RETRIGGER"
            },
            "ctb2High": null
          },
          "notes": []
        },
        "3": {
          "ctab": {
            "srcChannel": 3,
            "name": "EP Rt",
            "accType": "CHORD1",
            "editable": false,
            "mutedNotes": [],
            "mutedChords": [],
            "autoStart": false,
            "sourceChordNote": 0,
            "sourceChordType": "Maj7",
            "ctb2Low": null,
            "ctb2Main": {
              "ntr": "ROOT_TRANSPOSITION",
              "ntt": "MELODY",
              "bassOn": true,
              "chordRootUpperLimit": 6,
              "noteLowLimit": 0,
              "noteHighLimit": 127,
              "rtr": "PITCH_SHIFT_TO_ROOT"
            },
            "ctb2High": null
          },
          "notes": [
            {
              "pitch": 36,
              "velocity": 64,
              "position": 0,
              "duration": 3.9791666666666665
            }
          ]
        },
        "5": {
          "ctab": {
            "srcChannel": 5,
            "name": "Strng Rt",
            "accType": "PAD",
            "editable": false,
            "mutedNotes": [],
            "mutedChords": [
              "1+2+5",
              "sus4",
              "1+5",
              "1+8",
              "Maj7aug",
              "dim",
              "minMaj7(9)",
              "minMaj7",
              "min6",
              "min",
              "aug",
              "Maj7(9)",
              "Maj7#11",
              "Maj7",
              "Maj6",
              "Maj"
            ],
            "autoStart": false,
            "sourceChordNote": 0,
            "sourceChordType": "Maj7",
            "ctb2Low": null,
            "ctb2Main": {
              "ntr": "ROOT_TRANSPOSITION",
              "ntt": "CHORD",
              "bassOn": false,
              "chordRootUpperLimit": 10,
              "noteLowLimit": 0,
              "noteHighLimit": 127,
              "rtr": "PITCH_SHIFT"
            },
            "ctb2High": null
          },
          "notes": []
        },
        "8": {
          "ctab": {
            "srcChannel": 8,
            "name": "RHY 1",
            "accType": "SUBRHYTHM",
            "editable": false,
            "mutedNotes": [],
            "mutedChords": [],
            "autoStart": true,
            "sourceChordNote": 0,
            "sourceChordType": "Maj7",
            "ctb2Low": null,
            "ctb2Main": {
              "ntr": "ROOT_FIXED",
              "ntt": "BYPASS",
              "bassOn": false,
              "chordRootUpperLimit": 6,
              "noteLowLimit": 0,
              "noteHighLimit": 127,
              "rtr": "PITCH_SHIFT"
            },
            "ctb2High": null
          },
          "notes": []
        },
        "9": {
          "ctab": {
            "srcChannel": 9,
            "name": "RHY 2",
            "accType": "RHYTHM",
            "editable": false,
            "mutedNotes": [],
            "mutedChords": [],
            "autoStart": true,
            "sourceChordNote": 0,
            "sourceChordType": "Maj7",
            "ctb2Low": null,
            "ctb2Main": {
              "ntr": "ROOT_FIXED",
              "ntt": "BYPASS",
              "bassOn": false,
              "chordRootUpperLimit": 6,
              "noteLowLimit": 0,
              "noteHighLimit": 127,
              "rtr": "PITCH_SHIFT"
            },
            "ctb2High": null
          },
          "notes": [
            {
              "pitch": 35,
              "velocity": 73,
              "position": 0,
              "duration": 0.010416666666666666
            },
            {
              "pitch": 42,
              "velocity": 69,
              "position": 0,
              "duration": 0.010416666666666666
            },
            {
              "pitch": 42,
              "velocity": 26,
              "position": 0.5,
              "duration": 0.010416666666666666
            },
            {
              "pitch": 35,
              "velocity": 30,
              "position": 0.7604166666666666,
              "duration": 0.010416666666666666
            },
            {
              "pitch": 37,
              "velocity": 55,
              "position": 1,
              "duration": 0.010416666666666666
            },
            {
              "pitch": 42,
              "velocity": 83,
              "position": 1,
              "duration": 0.010416666666666666
            },
            {
              "pitch": 42,
              "velocity": 26,
              "position": 1.5,
              "duration": 0.010416666666666666
            },
            {
              "pitch": 35,
              "velocity": 16,
              "position": 1.7604166666666667,
              "duration": 0.010416666666666666
            },
            {
              "pitch": 35,
              "velocity": 75,
              "position": 2,
              "duration": 0.010416666666666666
            },
            {
              "pitch": 42,
              "velocity": 70,
              "position": 2,
              "duration": 0.010416666666666666
            },
            {
              "pitch": 42,
              "velocity": 26,
              "position": 2.5,
              "duration": 0.010416666666666666
            },
            {
              "pitch": 46,
              "velocity": 43,
              "position": 2.7604166666666665,
              "duration": 0.010416666666666666
            },
            {
              "pitch": 35,
              "velocity": 16,
              "position": 2.75,
              "duration": 0.03125
            },
            {
              "pitch": 43,
              "velocity": 24,
              "position": 2.8333333333333335,
              "duration": 0.03125
            },
            {
              "pitch": 43,
              "velocity": 31,
              "position": 2.9166666666666665,
              "duration": 0.03125
            },
            {
              "pitch": 43,
              "velocity": 70,
              "position": 3,
              "duration": 0.010416666666666666
            },
            {
              "pitch": 44,
              "velocity": 45,
              "position": 3,
              "duration": 0.010416666666666666
            },
            {
              "pitch": 43,
              "velocity": 36,
              "position": 3.25,
              "duration": 0.03125
            },
            {
              "pitch": 46,
              "velocity": 68,
              "position": 3.5,
              "duration": 0.010416666666666666
            },
            {
              "pitch": 41,
              "velocity": 63,
              "position": 3.5,
              "duration": 0.03125
            },
            {
              "pitch": 35,
              "velocity": 16,
              "position": 3.7604166666666665,
              "duration": 0.010416666666666666
            }
          ]
        },
        "10": {
          "ctab": {
            "srcChannel": 10,
            "name": "Bass",
            "accType": "BASS",
            "editable": false,
            "mutedNotes": [],
            "mutedChords": [],
            "autoStart": false,
            "sourceChordNote": 0,
            "sourceChordType": "Maj7",
            "ctb2Low": null,
            "ctb2Main": {
              "ntr": "ROOT_TRANSPOSITION",
              "ntt": "MELODY",
              "bassOn": true,
              "chordRootUpperLimit": 8,
              "noteLowLimit": 28,
              "noteHighLimit": 127,
              "rtr": "PITCH_SHIFT_TO_ROOT"
            },
            "ctb2High": null
          },
          "notes": [
            {
              "pitch": 24,
              "velocity": 88,
              "position": 0,
              "duration": 1.7395833333333333
            },
            {
              "pitch": 24,
              "velocity": 66,
              "position": 1.7604166666666667,
              "duration": 0.21875
            },
            {
              "pitch": 24,
              "velocity": 91,
              "position": 2,
              "duration": 0.9895833333333334
            },
            {
              "pitch": 31,
              "velocity": 91,
              "position": 3.5,
              "duration": 0.4791666666666667
            }
          ]
        },
        "11": {
          "ctab": {
            "srcChannel": 11,
            "name": "EP",
            "accType": "CHORD1",
            "editable": false,
            "mutedNotes": [],
            "mutedChords": [],
            "autoStart": false,
            "sourceChordNote": 0,
            "sourceChordType": "Maj7",
            "ctb2Low": null,
            "ctb2Main": {
              "ntr": "ROOT_FIXED",
              "ntt": "CHORD",
              "bassOn": false,
              "chordRootUpperLimit": 11,
              "noteLowLimit": 0,
              "noteHighLimit": 127,
              "rtr": "PITCH_SHIFT"
            },
            "ctb2High": null
          },
          "notes": [
            {
              "pitch": 55,
              "velocity": 66,
              "position": 0,
              "duration": 0.4791666666666667
            },
            {
              "pitch": 59,
              "velocity": 65,
              "position": 0,
              "duration": 0.9791666666666666
            },
            {
              "pitch": 64,
              "velocity": 65,
              "position": 0,
              "duration": 0.9791666666666666
            },
            {
              "pitch": 55,
              "velocity": 52,
              "position": 0.5,
              "duration": 0.9791666666666666
            },
            {
              "pitch": 59,
              "velocity": 53,
              "position": 1,
              "duration": 0.9791666666666666
            },
            {
              "pitch": 64,
              "velocity": 53,
              "position": 1,
              "duration": 0.9791666666666666
            },
            {
              "pitch": 55,
              "velocity": 53,
              "position": 1.5,
              "duration": 0.9791666666666666
            },
            {
              "pitch": 59,
              "velocity": 58,
              "position": 2,
              "duration": 0.9791666666666666
            },
            {
              "pitch": 64,
              "velocity": 58,
              "position": 2,
              "duration": 0.9791666666666666
            },
            {
              "pitch": 55,
              "velocity": 48,
              "position": 2.5,
              "duration": 0.9791666666666666
            },
            {
              "pitch": 55,
              "velocity": 45,
              "position": 3.5,
              "duration": 0.4791666666666667
            },
            {
              "pitch": 59,
              "velocity": 57,
              "position": 3,
              "duration": 0.9791666666666666
            },
            {
              "pitch": 64,
              "velocity": 57,
              "position": 3,
              "duration": 0.9791666666666666
            }
          ]
        },
        "12": {
          "ctab": {
            "srcChannel": 12,
            "name": "Guitar",
            "accType": "CHORD2",
            "editable": false,
            "mutedNotes": [],
            "mutedChords": [],
            "autoStart": false,
            "sourceChordNote": 0,
            "sourceChordType": "Maj7",
            "ctb2Low": null,
            "ctb2Main": {
              "ntr": "ROOT_FIXED",
              "ntt": "CHORD",
              "bassOn": false,
              "chordRootUpperLimit": 7,
              "noteLowLimit": 0,
              "noteHighLimit": 127,
              "rtr": "PITCH_SHIFT"
            },
            "ctb2High": null
          },
          "notes": [
            {
              "pitch": 59,
              "velocity": 45,
              "position": 0,
              "duration": 1.4791666666666667
            },
            {
              "pitch": 64,
              "velocity": 45,
              "position": 0.010416666666666666,
              "duration": 1.4791666666666667
            },
            {
              "pitch": 64,
              "velocity": 45,
              "position": 1.5104166666666667,
              "duration": 2.4791666666666665
            }
          ]
        },
        "13": {
          "ctab": {
            "srcChannel": 13,
            "name": "Strings",
            "accType": "PAD",
            "editable": false,
            "mutedNotes": [],
            "mutedChords": [],
            "autoStart": false,
            "sourceChordNote": 0,
            "sourceChordType": "Maj7",
            "ctb2Low": null,
            "ctb2Main": {
              "ntr": "ROOT_FIXED",
              "ntt": "CHORD",
              "bassOn": false,
              "chordRootUpperLimit": 0,
              "noteLowLimit": 0,
              "noteHighLimit": 127,
              "rtr": "PITCH_SHIFT"
            },
            "ctb2High": null
          },
          "notes": []
        },
        "14": {
          "ctab": {
            "srcChannel": 14,
            "name": "Mute",
            "accType": "PHRASE1",
            "editable": false,
            "mutedNotes": [],
            "mutedChords": [],
            "autoStart": false,
            "sourceChordNote": 0,
            "sourceChordType": "min7(11)",
            "ctb2Low": null,
            "ctb2Main": {
              "ntr": "ROOT_FIXED",
              "ntt": "CHORD",
              "bassOn": false,
              "chordRootUpperLimit": 6,
              "noteLowLimit": 0,
              "noteHighLimit": 127,
              "rtr": "PITCH_SHIFT"
            },
            "ctb2High": null
          },
          "notes": [
            {
              "pitch": 48,
              "velocity": 108,
              "position": 0.5,
              "duration": 0.23958333333333334
            },
            {
              "pitch": 55,
              "velocity": 108,
              "position": 0.5,
              "duration": 0.23958333333333334
            },
            {
              "pitch": 48,
              "velocity": 47,
              "position": 0.7604166666666666,
              "duration": 0.21875
            },
            {
              "pitch": 55,
              "velocity": 47,
              "position": 0.7604166666666666,
              "duration": 0.21875
            },
            {
              "pitch": 48,
              "velocity": 58,
              "position": 1,
              "duration": 0.23958333333333334
            },
            {
              "pitch": 55,
              "velocity": 58,
              "position": 1,
              "duration": 0.23958333333333334
            },
            {
              "pitch": 48,
              "velocity": 75,
              "position": 1.2604166666666667,
              "duration": 0.07291666666666667
            },
            {
              "pitch": 55,
              "velocity": 75,
              "position": 1.2604166666666667,
              "duration": 0.07291666666666667
            },
            {
              "pitch": 48,
              "velocity": 40,
              "position": 1.5,
              "duration": 0.23958333333333334
            },
            {
              "pitch": 55,
              "velocity": 40,
              "position": 1.5,
              "duration": 0.23958333333333334
            },
            {
              "pitch": 48,
              "velocity": 91,
              "position": 1.7604166666666667,
              "duration": 0.23958333333333334
            },
            {
              "pitch": 55,
              "velocity": 91,
              "position": 1.7604166666666667,
              "duration": 0.23958333333333334
            },
            {
              "pitch": 48,
              "velocity": 46,
              "position": 2.0208333333333335,
              "duration": 0.21875
            },
            {
              "pitch": 55,
              "velocity": 46,
              "position": 2.0208333333333335,
              "duration": 0.21875
            },
            {
              "pitch": 55,
              "velocity": 58,
              "position": 2.5,
              "duration": 0.23958333333333334
            },
            {
              "pitch": 60,
              "velocity": 58,
              "position": 2.5,
              "duration": 0.23958333333333334
            },
            {
              "pitch": 55,
              "velocity": 93,
              "position": 2.7604166666666665,
              "duration": 0.07291666666666667
            },
            {
              "pitch": 60,
              "velocity": 93,
              "position": 2.7604166666666665,
              "duration": 0.07291666666666667
            },
            {
              "pitch": 55,
              "velocity": 46,
              "position": 3.2604166666666665,
              "duration": 0.07291666666666667
            },
            {
              "pitch": 60,
              "velocity": 46,
              "position": 3.2604166666666665,
              "duration": 0.07291666666666667
            }
          ]
        }
      }
    },
    "Fill_In_CC": {
      "type": "Fill_In_CC",
      "sizeInBeats": 4,
      "channels": {
        "0": {
          "ctab": {
            "srcChannel": 0,
            "name": "CC Crash",
            "accType": "RHYTHM",
            "editable": false,
            "mutedNotes": [],
            "mutedChords": [
              "1+2+5",
              "sus4",
              "1+5",
              "1+8",
              "7aug",
              "Maj7aug",
              "7(#9)",
              "7(b13)",
              "7(b9)",
              "7(13)",
              "7#11",
              "7(9)",
              "7b5",
              "7sus4",
              "7th",
              "dim7",
              "dim",
              "minMaj7(9)",
              "minMaj7",
              "min7(11)",
              "min7(9)",
              "min(9)",
              "m7b5",
              "min7",
              "min6",
              "min",
              "aug",
              "Maj6(9)",
              "Maj7(9)",
              "Maj(9)",
              "Maj7#11",
              "Maj7",
              "Maj6",
              "Maj"
            ],
            "autoStart": true,
            "sourceChordNote": 0,
            "sourceChordType": "Maj7",
            "ctb2Low": null,
            "ctb2Main": {
              "ntr": "ROOT_FIXED",
              "ntt": "BYPASS",
              "bassOn": false,
              "chordRootUpperLimit": 6,
              "noteLowLimit": 0,
              "noteHighLimit": 127,
              "rtr": "RETRIGGER"
            },
            "ctb2High": null
          },
          "notes": []
        },
        "3": {
          "ctab": {
            "srcChannel": 3,
            "name": "EP Rt",
            "accType": "CHORD1",
            "editable": false,
            "mutedNotes": [],
            "mutedChords": [],
            "autoStart": false,
            "sourceChordNote": 0,
            "sourceChordType": "Maj7",
            "ctb2Low": null,
            "ctb2Main": {
              "ntr": "ROOT_TRANSPOSITION",
              "ntt": "MELODY",
              "bassOn": true,
              "chordRootUpperLimit": 6,
              "noteLowLimit": 0,
              "noteHighLimit": 127,
              "rtr": "PITCH_SHIFT_TO_ROOT"
            },
            "ctb2High": null
          },
          "notes": [
            {
              "pitch": 36,
              "velocity": 64,
              "position": 0,
              "duration": 3.9791666666666665
            }
          ]
        },
        "5": {
          "ctab": {
            "srcChannel": 5,
            "name": "Strng Rt",
            "accType": "PAD",
            "editable": false,
            "mutedNotes": [],
            "mutedChords": [
              "1+2+5",
              "sus4",
              "1+5",
              "1+8",
              "Maj7aug",
              "dim",
              "minMaj7(9)",
              "minMaj7",
              "min6",
              "min",
              "aug",
              "Maj7(9)",
              "Maj7#11",
              "Maj7",
              "Maj6",
              "Maj"
            ],
            "autoStart": false,
            "sourceChordNote": 0,
            "sourceChordType": "Maj7",
            "ctb2Low": null,
            "ctb2Main": {
              "ntr": "ROOT_TRANSPOSITION",
              "ntt": "CHORD",
              "bassOn": false,
              "chordRootUpperLimit": 10,
              "noteLowLimit": 0,
              "noteHighLimit": 127,
              "rtr": "PITCH_SHIFT"
            },
            "ctb2High": null
          },
          "notes": [
            {
              "pitch": 60,
              "velocity": 45,
              "position": 0,
              "duration": 3.9791666666666665
            }
          ]
        },
        "8": {
          "ctab": {
            "srcChannel": 8,
            "name": "RHY 1",
            "accType": "SUBRHYTHM",
            "editable": false,
            "mutedNotes": [],
            "mutedChords": [],
            "autoStart": true,
            "sourceChordNote": 0,
            "sourceChordType": "Maj7",
            "ctb2Low": null,
            "ctb2Main": {
              "ntr": "ROOT_FIXED",
              "ntt": "BYPASS",
              "bassOn": false,
              "chordRootUpperLimit": 6,
              "noteLowLimit": 0,
              "noteHighLimit": 127,
              "rtr": "PITCH_SHIFT"
            },
            "ctb2High": null
          },
          "notes": [
            {
              "pitch": 70,
              "velocity": 26,
              "position": 0.010416666666666666,
              "duration": 0.010416666666666666
            },
            {
              "pitch": 70,
              "velocity": 46,
              "position": 0.25,
              "duration": 0.010416666666666666
            },
            {
              "pitch": 70,
              "velocity": 112,
              "position": 0.5,
              "duration": 0.010416666666666666
            },
            {
              "pitch": 70,
              "velocity": 26,
              "position": 0.7604166666666666,
              "duration": 0.010416666666666666
            },
            {
              "pitch": 70,
              "velocity": 46,
              "position": 1,
              "duration": 0.010416666666666666
            },
            {
              "pitch": 70,
              "velocity": 26,
              "position": 1.2604166666666667,
              "duration": 0.010416666666666666
            },
            {
              "pitch": 70,
              "velocity": 112,
              "position": 1.5,
              "duration": 0.010416666666666666
            },
            {
              "pitch": 70,
              "velocity": 26,
              "position": 1.7604166666666667,
              "duration": 0.010416666666666666
            },
            {
              "pitch": 70,
              "velocity": 67,
              "position": 2,
              "duration": 0.010416666666666666
            },
            {
              "pitch": 70,
              "velocity": 26,
              "position": 2.2604166666666665,
              "duration": 0.010416666666666666
            },
            {
              "pitch": 70,
              "velocity": 111,
              "position": 2.5,
              "duration": 0.010416666666666666
            },
            {
              "pitch": 70,
              "velocity": 26,
              "position": 2.7604166666666665,
              "duration": 0.010416666666666666
            },
            {
              "pitch": 70,
              "velocity": 63,
              "position": 3,
              "duration": 0.010416666666666666
            },
            {
              "pitch": 70,
              "velocity": 26,
              "position": 3.2604166666666665,
              "duration": 0.010416666666666666
            },
            {
              "pitch": 70,
              "velocity": 116,
              "position": 3.5,
              "duration": 0.010416666666666666
            },
            {
              "pitch": 70,
              "velocity": 26,
              "position": 3.7604166666666665,
              "duration": 0.010416666666666666
            }
          ]
        },
        "9": {
          "ctab": {
            "srcChannel": 9,
            "name": "RHY 2",
            "accType": "RHYTHM",
            "editable": false,
            "mutedNotes": [],
            "mutedChords": [],
            "autoStart": true,
            "sourceChordNote": 0,
            "sourceChordType": "Maj7",
            "ctb2Low": null,
            "ctb2Main": {
              "ntr": "ROOT_FIXED",
              "ntt": "BYPASS",
              "bassOn": false,
              "chordRootUpperLimit": 6,
              "noteLowLimit": 0,
              "noteHighLimit": 127,
              "rtr": "PITCH_SHIFT"
            },
            "ctb2High": null
          },
          "notes": [
            {
              "pitch": 35,
              "velocity": 93,
              "position": 0,
              "duration": 0.010416666666666666
            },
            {
              "pitch": 42,
              "velocity": 69,
              "position": 0,
              "duration": 0.010416666666666666
            },
            {
              "pitch": 42,
              "velocity": 26,
              "position": 0.2604166666666667,
              "duration": 0.010416666666666666
            },
            {
              "pitch": 42,
              "velocity": 26,
              "position": 0.5,
              "duration": 0.010416666666666666
            },
            {
              "pitch": 40,
              "velocity": 34,
              "position": 0.7604166666666666,
              "duration": 0.010416666666666666
            },
            {
              "pitch": 42,
              "velocity": 26,
              "position": 0.7604166666666666,
              "duration": 0.010416666666666666
            },
            {
              "pitch": 40,
              "velocity": 81,
              "position": 1,
              "duration": 0.010416666666666666
            },
            {
              "pitch": 42,
              "velocity": 117,
              "position": 1,
              "duration": 0.010416666666666666
            },
            {
              "pitch": 42,
              "velocity": 26,
              "position": 1.2604166666666667,
              "duration": 0.010416666666666666
            },
            {
              "pitch": 42,
              "velocity": 26,
              "position": 1.5,
              "duration": 0.010416666666666666
            },
            {
              "pitch": 35,
              "velocity": 17,
              "position": 1.7604166666666667,
              "duration": 0.010416666666666666
            },
            {
              "pitch": 42,
              "velocity": 26,
              "position": 1.7604166666666667,
              "duration": 0.010416666666666666
            },
            {
              "pitch": 35,
              "velocity": 89,
              "position": 2,
              "duration": 0.010416666666666666
            },
            {
              "pitch": 42,
              "velocity": 68,
              "position": 2,
              "duration": 0.010416666666666666
            },
            {
              "pitch": 42,
              "velocity": 26,
              "position": 2.2604166666666665,
              "duration": 0.010416666666666666
            },
            {
              "pitch": 35,
              "velocity": 31,
              "position": 2.25,
              "duration": 0.03125
            },
            {
              "pitch": 42,
              "velocity": 26,
              "position": 2.5,
              "duration": 0.010416666666666666
            },
            {
              "pitch": 40,
              "velocity": 81,
              "position": 2.5,
              "duration": 0.03125
            },
            {
              "pitch": 42,
              "velocity": 26,
              "position": 2.7604166666666665,
              "duration": 0.010416666666666666
            },
            {
              "pitch": 43,
              "velocity": 45,
              "position": 2.7604166666666665,
              "duration": 0.010416666666666666
            },
            {
              "pitch": 42,
              "velocity": 117,
              "position": 3,
              "duration": 0.010416666666666666
            },
            {
              "pitch": 43,
              "velocity": 70,
              "position": 3,
              "duration": 0.010416666666666666
            },
            {
              "pitch": 42,
              "velocity": 26,
              "position": 3.2604166666666665,
              "duration": 0.010416666666666666
            },
            {
              "pitch": 41,
              "velocity": 57,
              "position": 3.5,
              "duration": 0.010416666666666666
            },
            {
              "pitch": 46,
              "velocity": 75,
              "position": 3.5,
              "duration": 0.010416666666666666
            },
            {
              "pitch": 35,
              "velocity": 17,
              "position": 3.7604166666666665,
              "duration": 0.010416666666666666
            }
          ]
        },
        "10": {
          "ctab": {
            "srcChannel": 10,
            "name": "Bass",
            "accType": "BASS",
            "editable": false,
            "mutedNotes": [],
            "mutedChords": [],
            "autoStart": false,
            "sourceChordNote": 0,
            "sourceChordType": "Maj7",
            "ctb2Low": null,
            "ctb2Main": {
              "ntr": "ROOT_TRANSPOSITION",
              "ntt": "MELODY",
              "bassOn": true,
              "chordRootUpperLimit": 8,
              "noteLowLimit": 28,
              "noteHighLimit": 127,
              "rtr": "PITCH_SHIFT_TO_ROOT"
            },
            "ctb2High": null
          },
          "notes": [
            {
              "pitch": 24,
              "velocity": 87,
              "position": 0,
              "duration": 1.7395833333333333
            },
            {
              "pitch": 24,
              "velocity": 94,
              "position": 1.7604166666666667,
              "duration": 0.21875
            },
            {
              "pitch": 24,
              "velocity": 77,
              "position": 2,
              "duration": 0.7395833333333334
            },
            {
              "pitch": 24,
              "velocity": 51,
              "position": 2.7604166666666665,
              "duration": 0.21875
            },
            {
              "pitch": 24,
              "velocity": 69,
              "position": 3,
              "duration": 0.4791666666666667
            },
            {
              "pitch": 31,
              "velocity": 84,
              "position": 3.5,
              "duration": 0.23958333333333334
            },
            {
              "pitch": 36,
              "velocity": 60,
              "position": 3.7604166666666665,
              "duration": 0.21875
            }
          ]
        },
        "11": {
          "ctab": {
            "srcChannel": 11,
            "name": "EP",
            "accType": "CHORD1",
            "editable": false,
            "mutedNotes": [],
            "mutedChords": [],
            "autoStart": false,
            "sourceChordNote": 0,
            "sourceChordType": "Maj7",
            "ctb2Low": null,
            "ctb2Main": {
              "ntr": "ROOT_FIXED",
              "ntt": "CHORD",
              "bassOn": false,
              "chordRootUpperLimit": 11,
              "noteLowLimit": 0,
              "noteHighLimit": 127,
              "rtr": "PITCH_SHIFT"
            },
            "ctb2High": null
          },
          "notes": [
            {
              "pitch": 55,
              "velocity": 65,
              "position": 0,
              "duration": 0.4791666666666667
            },
            {
              "pitch": 59,
              "velocity": 64,
              "position": 0,
              "duration": 0.9791666666666666
            },
            {
              "pitch": 64,
              "velocity": 64,
              "position": 0,
              "duration": 0.9791666666666666
            },
            {
              "pitch": 55,
              "velocity": 52,
              "position": 0.5,
              "duration": 0.9791666666666666
            },
            {
              "pitch": 59,
              "velocity": 53,
              "position": 1,
              "duration": 0.9791666666666666
            },
            {
              "pitch": 64,
              "velocity": 53,
              "position": 1,
              "duration": 0.9791666666666666
            },
            {
              "pitch": 55,
              "velocity": 53,
              "position": 1.5,
              "duration": 0.9791666666666666
            },
            {
              "pitch": 59,
              "velocity": 58,
              "position": 2,
              "duration": 0.9791666666666666
            },
            {
              "pitch": 64,
              "velocity": 58,
              "position": 2,
              "duration": 0.9791666666666666
            },
            {
              "pitch": 55,
              "velocity": 48,
              "position": 2.5,
              "duration": 0.9791666666666666
            },
            {
              "pitch": 55,
              "velocity": 46,
              "position": 3.5,
              "duration": 0.4791666666666667
            },
            {
              "pitch": 59,
              "velocity": 57,
              "position": 3,
              "duration": 0.9791666666666666
            },
            {
              "pitch": 64,
              "velocity": 57,
              "position": 3,
              "duration": 0.9791666666666666
            }
          ]
        },
        "12": {
          "ctab": {
            "srcChannel": 12,
            "name": "Guitar",
            "accType": "CHORD2",
            "editable": false,
            "mutedNotes": [],
            "mutedChords": [],
            "autoStart": false,
            "sourceChordNote": 0,
            "sourceChordType": "Maj7",
            "ctb2Low": null,
            "ctb2Main": {
              "ntr": "ROOT_FIXED",
              "ntt": "CHORD",
              "bassOn": false,
              "chordRootUpperLimit": 7,
              "noteLowLimit": 0,
              "noteHighLimit": 127,
              "rtr": "PITCH_SHIFT"
            },
            "ctb2High": null
          },
          "notes": [
            {
              "pitch": 59,
              "velocity": 45,
              "position": 0,
              "duration": 1.4791666666666667
            },
            {
              "pitch": 64,
              "velocity": 45,
              "position": 0,
              "duration": 1.4791666666666667
            },
            {
              "pitch": 67,
              "velocity": 45,
              "position": 0,
              "duration": 1.4791666666666667
            },
            {
              "pitch": 59,
              "velocity": 45,
              "position": 1.5,
              "duration": 2.4791666666666665
            },
            {
              "pitch": 64,
              "velocity": 45,
              "position": 1.5,
              "duration": 2.4791666666666665
            },
            {
              "pitch": 67,
              "velocity": 45,
              "position": 1.5,
              "duration": 2.4791666666666665
            }
          ]
        },
        "13": {
          "ctab": {
            "srcChannel": 13,
            "name": "Strings",
            "accType": "PAD",
            "editable": false,
            "mutedNotes": [],
            "mutedChords": [],
            "autoStart": false,
            "sourceChordNote": 0,
            "sourceChordType": "Maj7",
            "ctb2Low": null,
            "ctb2Main": {
              "ntr": "ROOT_FIXED",
              "ntt": "CHORD",
              "bassOn": false,
              "chordRootUpperLimit": 0,
              "noteLowLimit": 0,
              "noteHighLimit": 127,
              "rtr": "PITCH_SHIFT"
            },
            "ctb2High": null
          },
          "notes": [
            {
              "pitch": 59,
              "velocity": 45,
              "position": 0,
              "duration": 3.9791666666666665
            },
            {
              "pitch": 64,
              "velocity": 45,
              "position": 0,
              "duration": 3.9791666666666665
            },
            {
              "pitch": 67,
              "velocity": 45,
              "position": 0,
              "duration": 3.9791666666666665
            }
          ]
        },
        "14": {
          "ctab": {
            "srcChannel": 14,
            "name": "Mute",
            "accType": "PHRASE1",
            "editable": false,
            "mutedNotes": [],
            "mutedChords": [],
            "autoStart": false,
            "sourceChordNote": 0,
            "sourceChordType": "min7(11)",
            "ctb2Low": null,
            "ctb2Main": {
              "ntr": "ROOT_FIXED",
              "ntt": "CHORD",
              "bassOn": false,
              "chordRootUpperLimit": 6,
              "noteLowLimit": 0,
              "noteHighLimit": 127,
              "rtr": "PITCH_SHIFT"
            },
            "ctb2High": null
          },
          "notes": [
            {
              "pitch": 55,
              "velocity": 85,
              "position": 0.5,
              "duration": 0.23958333333333334
            },
            {
              "pitch": 60,
              "velocity": 85,
              "position": 0.5,
              "duration": 0.23958333333333334
            },
            {
              "pitch": 55,
              "velocity": 47,
              "position": 0.7604166666666666,
              "duration": 0.052083333333333336
            },
            {
              "pitch": 60,
              "velocity": 47,
              "position": 0.7604166666666666,
              "duration": 0.052083333333333336
            },
            {
              "pitch": 55,
              "velocity": 75,
              "position": 1.2604166666666667,
              "duration": 0.07291666666666667
            },
            {
              "pitch": 60,
              "velocity": 75,
              "position": 1.2604166666666667,
              "duration": 0.07291666666666667
            },
            {
              "pitch": 55,
              "velocity": 85,
              "position": 2.5,
              "duration": 0.23958333333333334
            },
            {
              "pitch": 60,
              "velocity": 85,
              "position": 2.5,
              "duration": 0.23958333333333334
            },
            {
              "pitch": 55,
              "velocity": 47,
              "position": 2.7604166666666665,
              "duration": 0.041666666666666664
            },
            {
              "pitch": 60,
              "velocity": 47,
              "position": 2.7604166666666665,
              "duration": 0.07291666666666667
            },
            {
              "pitch": 55,
              "velocity": 67,
              "position": 3.2604166666666665,
              "duration": 0.21875
            },
            {
              "pitch": 60,
              "velocity": 67,
              "position": 3.2604166666666665,
              "duration": 0.21875
            },
            {
              "pitch": 55,
              "velocity": 41,
              "position": 3.5,
              "duration": 0.23958333333333334
            },
            {
              "pitch": 60,
              "velocity": 41,
              "position": 3.5,
              "duration": 0.23958333333333334
            },
            {
              "pitch": 55,
              "velocity": 74,
              "position": 3.7604166666666665,
              "duration": 0.07291666666666667
            },
            {
              "pitch": 60,
              "velocity": 74,
              "position": 3.7604166666666665,
              "duration": 0.07291666666666667
            }
          ]
        }
      }
    },
    "Intro_A": {
      "type": "Intro_A",
      "sizeInBeats": 4,
      "channels": {
        "0": {
          "ctab": {
            "srcChannel": 0,
            "name": "CC Crash",
            "accType": "RHYTHM",
            "editable": false,
            "mutedNotes": [],
            "mutedChords": [
              "1+2+5",
              "sus4",
              "1+5",
              "1+8",
              "7aug",
              "Maj7aug",
              "7(#9)",
              "7(b13)",
              "7(b9)",
              "7(13)",
              "7#11",
              "7(9)",
              "7b5",
              "7sus4",
              "7th",
              "dim7",
              "dim",
              "minMaj7(9)",
              "minMaj7",
              "min7(11)",
              "min7(9)",
              "min(9)",
              "m7b5",
              "min7",
              "min6",
              "min",
              "aug",
              "Maj6(9)",
              "Maj7(9)",
              "Maj(9)",
              "Maj7#11",
              "Maj7",
              "Maj6",
              "Maj"
            ],
            "autoStart": true,
            "sourceChordNote": 0,
            "sourceChordType": "Maj7",
            "ctb2Low": null,
            "ctb2Main": {
              "ntr": "ROOT_FIXED",
              "ntt": "BYPASS",
              "bassOn": false,
              "chordRootUpperLimit": 6,
              "noteLowLimit": 0,
              "noteHighLimit": 127,
              "rtr": "RETRIGGER"
            },
            "ctb2High": null
          },
          "notes": []
        },
        "3": {
          "ctab": {
            "srcChannel": 3,
            "name": "EP Rt",
            "accType": "CHORD1",
            "editable": false,
            "mutedNotes": [],
            "mutedChords": [],
            "autoStart": false,
            "sourceChordNote": 0,
            "sourceChordType": "Maj7",
            "ctb2Low": null,
            "ctb2Main": {
              "ntr": "ROOT_TRANSPOSITION",
              "ntt": "MELODY",
              "bassOn": true,
              "chordRootUpperLimit": 6,
              "noteLowLimit": 0,
              "noteHighLimit": 127,
              "rtr": "PITCH_SHIFT_TO_ROOT"
            },
            "ctb2High": null
          },
          "notes": []
        },
        "5": {
          "ctab": {
            "srcChannel": 5,
            "name": "Strng Rt",
            "accType": "PAD",
            "editable": false,
            "mutedNotes": [],
            "mutedChords": [
              "1+2+5",
              "sus4",
              "1+5",
              "1+8",
              "Maj7aug",
              "dim",
              "minMaj7(9)",
              "minMaj7",
              "min6",
              "min",
              "aug",
              "Maj7(9)",
              "Maj7#11",
              "Maj7",
              "Maj6",
              "Maj"
            ],
            "autoStart": false,
            "sourceChordNote": 0,
            "sourceChordType": "Maj7",
            "ctb2Low": null,
            "ctb2Main": {
              "ntr": "ROOT_TRANSPOSITION",
              "ntt": "CHORD",
              "bassOn": false,
              "chordRootUpperLimit": 10,
              "noteLowLimit": 0,
              "noteHighLimit": 127,
              "rtr": "PITCH_SHIFT"
            },
            "ctb2High": null
          },
          "notes": []
        },
        "8": {
          "ctab": {
            "srcChannel": 8,
            "name": "RHY 1",
            "accType": "SUBRHYTHM",
            "editable": false,
            "mutedNotes": [],
            "mutedChords": [],
            "autoStart": true,
            "sourceChordNote": 0,
            "sourceChordType": "Maj7",
            "ctb2Low": null,
            "ctb2Main": {
              "ntr": "ROOT_FIXED",
              "ntt": "BYPASS",
              "bassOn": false,
              "chordRootUpperLimit": 6,
              "noteLowLimit": 0,
              "noteHighLimit": 127,
              "rtr": "PITCH_SHIFT"
            },
            "ctb2High": null
          },
          "notes": []
        },
        "9": {
          "ctab": {
            "srcChannel": 9,
            "name": "RHY 2",
            "accType": "RHYTHM",
            "editable": false,
            "mutedNotes": [],
            "mutedChords": [],
            "autoStart": true,
            "sourceChordNote": 0,
            "sourceChordType": "Maj7",
            "ctb2Low": null,
            "ctb2Main": {
              "ntr": "ROOT_FIXED",
              "ntt": "BYPASS",
              "bassOn": false,
              "chordRootUpperLimit": 6,
              "noteLowLimit": 0,
              "noteHighLimit": 127,
              "rtr": "PITCH_SHIFT"
            },
            "ctb2High": null
          },
          "notes": [
            {
              "pitch": 42,
              "velocity": 50,
              "position": 0,
              "duration": 0.010416666666666666
            },
            {
              "pitch": 42,
              "velocity": 36,
              "position": 1,
              "duration": 0.010416666666666666
            },
            {
              "pitch": 42,
              "velocity": 36,
              "position": 2,
              "duration": 0.010416666666666666
            },
            {
              "pitch": 46,
              "velocity": 43,
              "position": 2.7604166666666665,
              "duration": 0.010416666666666666
            },
            {
              "pitch": 42,
              "velocity": 64,
              "position": 3,
              "duration": 0.010416666666666666
            },
            {
              "pitch": 42,
              "velocity": 26,
              "position": 3.2604166666666665,
              "duration": 0.010416666666666666
            },
            {
              "pitch": 46,
              "velocity": 43,
              "position": 3.5,
              "duration": 0.010416666666666666
            }
          ]
        },
        "10": {
          "ctab": {
            "srcChannel": 10,
            "name": "Bass",
            "accType": "BASS",
            "editable": false,
            "mutedNotes": [],
            "mutedChords": [],
            "autoStart": false,
            "sourceChordNote": 0,
            "sourceChordType": "Maj7",
            "ctb2Low": null,
            "ctb2Main": {
              "ntr": "ROOT_TRANSPOSITION",
              "ntt": "MELODY",
              "bassOn": true,
              "chordRootUpperLimit": 8,
              "noteLowLimit": 28,
              "noteHighLimit": 127,
              "rtr": "PITCH_SHIFT_TO_ROOT"
            },
            "ctb2High": null
          },
          "notes": []
        },
        "11": {
          "ctab": {
            "srcChannel": 11,
            "name": "EP",
            "accType": "CHORD1",
            "editable": false,
            "mutedNotes": [],
            "mutedChords": [],
            "autoStart": false,
            "sourceChordNote": 0,
            "sourceChordType": "Maj7",
            "ctb2Low": null,
            "ctb2Main": {
              "ntr": "ROOT_FIXED",
              "ntt": "CHORD",
              "bassOn": false,
              "chordRootUpperLimit": 11,
              "noteLowLimit": 0,
              "noteHighLimit": 127,
              "rtr": "PITCH_SHIFT"
            },
            "ctb2High": null
          },
          "notes": []
        },
        "12": {
          "ctab": {
            "srcChannel": 12,
            "name": "Guitar",
            "accType": "CHORD2",
            "editable": false,
            "mutedNotes": [],
            "mutedChords": [],
            "autoStart": false,
            "sourceChordNote": 0,
            "sourceChordType": "Maj7",
            "ctb2Low": null,
            "ctb2Main": {
              "ntr": "ROOT_FIXED",
              "ntt": "CHORD",
              "bassOn": false,
              "chordRootUpperLimit": 7,
              "noteLowLimit": 0,
              "noteHighLimit": 127,
              "rtr": "PITCH_SHIFT"
            },
            "ctb2High": null
          },
          "notes": []
        },
        "13": {
          "ctab": {
            "srcChannel": 13,
            "name": "Strings",
            "accType": "PAD",
            "editable": false,
            "mutedNotes": [],
            "mutedChords": [],
            "autoStart": false,
            "sourceChordNote": 0,
            "sourceChordType": "Maj7",
            "ctb2Low": null,
            "ctb2Main": {
              "ntr": "ROOT_FIXED",
              "ntt": "CHORD",
              "bassOn": false,
              "chordRootUpperLimit": 0,
              "noteLowLimit": 0,
              "noteHighLimit": 127,
              "rtr": "PITCH_SHIFT"
            },
            "ctb2High": null
          },
          "notes": []
        },
        "14": {
          "ctab": {
            "srcChannel": 14,
            "name": "Mute",
            "accType": "PHRASE1",
            "editable": false,
            "mutedNotes": [],
            "mutedChords": [],
            "autoStart": false,
            "sourceChordNote": 0,
            "sourceChordType": "min7(11)",
            "ctb2Low": null,
            "ctb2Main": {
              "ntr": "ROOT_FIXED",
              "ntt": "CHORD",
              "bassOn": false,
              "chordRootUpperLimit": 6,
              "noteLowLimit": 0,
              "noteHighLimit": 127,
              "rtr": "PITCH_SHIFT"
            },
            "ctb2High": null
          },
          "notes": []
        }
      }
    },
    "Main_D": {
      "type": "Main_D",
      "sizeInBeats": 16,
      "channels": {
        "0": {
          "ctab": {
            "srcChannel": 0,
            "name": "CC Crash",
            "accType": "RHYTHM",
            "editable": true,
            "mutedNotes": [],
            "mutedChords": [
              "1+2+5",
              "sus4",
              "1+5",
              "1+8",
              "7aug",
              "Maj7aug",
              "7(#9)",
              "7(b13)",
              "7(b9)",
              "7(13)",
              "7#11",
              "7(9)",
              "7b5",
              "7sus4",
              "7th",
              "dim7",
              "dim",
              "minMaj7(9)",
              "minMaj7",
              "min7(11)",
              "min7(9)",
              "min(9)",
              "m7b5",
              "min7",
              "min6",
              "min",
              "aug",
              "Maj6(9)",
              "Maj7(9)",
              "Maj(9)",
              "Maj7#11",
              "Maj7",
              "Maj6",
              "Maj"
            ],
            "autoStart": true,
            "sourceChordNote": 0,
            "sourceChordType": "Maj7",
            "ctb2Low": null,
            "ctb2Main": {
              "ntr": "ROOT_FIXED",
              "ntt": "BYPASS",
              "bassOn": false,
              "chordRootUpperLimit": 6,
              "noteLowLimit": 0,
              "noteHighLimit": 127,
              "rtr": "RETRIGGER"
            },
            "ctb2High": null
          },
          "notes": []
        },
        "3": {
          "ctab": {
            "srcChannel": 3,
            "name": "EP Rt",
            "accType": "CHORD1",
            "editable": false,
            "mutedNotes": [],
            "mutedChords": [
              "1+2+5",
              "sus4",
              "1+5",
              "1+8",
              "Maj7aug",
              "dim",
              "minMaj7(9)",
              "minMaj7",
              "min6",
              "min",
              "aug",
              "Maj7(9)",
              "Maj7#11",
              "Maj7",
              "Maj6",
              "Maj"
            ],
            "autoStart": false,
            "sourceChordNote": 0,
            "sourceChordType": "Maj7",
            "ctb2Low": null,
            "ctb2Main": {
              "ntr": "ROOT_TRANSPOSITION",
              "ntt": "CHORD",
              "bassOn": false,
              "chordRootUpperLimit": 6,
              "noteLowLimit": 0,
              "noteHighLimit": 127,
              "rtr": "PITCH_SHIFT"
            },
            "ctb2High": null
          },
          "notes": [
            {
              "pitch": 60,
              "velocity": 62,
              "position": 0,
              "duration": 0.9791666666666666
            },
            {
              "pitch": 60,
              "velocity": 54,
              "position": 1,
              "duration": 0.9791666666666666
            },
            {
              "pitch": 60,
              "velocity": 63,
              "position": 2,
              "duration": 0.9791666666666666
            },
            {
              "pitch": 60,
              "velocity": 53,
              "position": 3,
              "duration": 0.9791666666666666
            },
            {
              "pitch": 60,
              "velocity": 62,
              "position": 4,
              "duration": 0.9791666666666666
            },
            {
              "pitch": 60,
              "velocity": 54,
              "position": 5,
              "duration": 0.9791666666666666
            },
            {
              "pitch": 60,
              "velocity": 63,
              "position": 6,
              "duration": 0.9791666666666666
            },
            {
              "pitch": 60,
              "velocity": 53,
              "position": 7,
              "duration": 0.9791666666666666
            },
            {
              "pitch": 60,
              "velocity": 62,
              "position": 8,
              "duration": 0.9791666666666666
            },
            {
              "pitch": 60,
              "velocity": 54,
              "position": 9,
              "duration": 0.9791666666666666
            },
            {
              "pitch": 60,
              "velocity": 63,
              "position": 10,
              "duration": 0.9791666666666666
            },
            {
              "pitch": 60,
              "velocity": 53,
              "position": 11,
              "duration": 0.9791666666666666
            },
            {
              "pitch": 60,
              "velocity": 62,
              "position": 12,
              "duration": 0.9791666666666666
            },
            {
              "pitch": 60,
              "velocity": 54,
              "position": 13,
              "duration": 0.9791666666666666
            },
            {
              "pitch": 60,
              "velocity": 63,
              "position": 14,
              "duration": 0.9791666666666666
            },
            {
              "pitch": 60,
              "velocity": 53,
              "position": 15,
              "duration": 0.9791666666666666
            }
          ]
        },
        "5": {
          "ctab": {
            "srcChannel": 5,
            "name": "Strng Rt",
            "accType": "PAD",
            "editable": false,
            "mutedNotes": [],
            "mutedChords": [
              "1+2+5",
              "sus4",
              "1+5",
              "1+8",
              "Maj7aug",
              "dim",
              "minMaj7(9)",
              "minMaj7",
              "min6",
              "min",
              "aug",
              "Maj7(9)",
              "Maj7#11",
              "Maj7",
              "Maj6",
              "Maj"
            ],
            "autoStart": false,
            "sourceChordNote": 0,
            "sourceChordType": "Maj7",
            "ctb2Low": null,
            "ctb2Main": {
              "ntr": "ROOT_TRANSPOSITION",
              "ntt": "CHORD",
              "bassOn": false,
              "chordRootUpperLimit": 10,
              "noteLowLimit": 0,
              "noteHighLimit": 127,
              "rtr": "PITCH_SHIFT"
            },
            "ctb2High": null
          },
          "notes": [
            {
              "pitch": 60,
              "velocity": 54,
              "position": 0,
              "duration": 15.979166666666666
            }
          ]
        },
        "8": {
          "ctab": {
            "srcChannel": 8,
            "name": "RHY 1",
            "accType": "SUBRHYTHM",
            "editable": false,
            "mutedNotes": [],
            "mutedChords": [],
            "autoStart": true,
            "sourceChordNote": 0,
            "sourceChordType": "Maj7",
            "ctb2Low": null,
            "ctb2Main": {
              "ntr": "ROOT_FIXED",
              "ntt": "BYPASS",
              "bassOn": false,
              "chordRootUpperLimit": 6,
              "noteLowLimit": 0,
              "noteHighLimit": 127,
              "rtr": "PITCH_SHIFT"
            },
            "ctb2High": null
          },
          "notes": [
            {
              "pitch": 70,
              "velocity": 58,
              "position": 0,
              "duration": 0.010416666666666666
            },
            {
              "pitch": 80,
              "velocity": 20,
              "position": 0.010416666666666666,
              "duration": 0.010416666666666666
            },
            {
              "pitch": 80,
              "velocity": 30,
              "position": 0.25,
              "duration": 0.010416666666666666
            },
            {
              "pitch": 70,
              "velocity": 26,
              "position": 0.2604166666666667,
              "duration": 0.010416666666666666
            },
            {
              "pitch": 70,
              "velocity": 112,
              "position": 0.5,
              "duration": 0.010416666666666666
            },
            {
              "pitch": 81,
              "velocity": 33,
              "position": 0.5,
              "duration": 0.010416666666666666
            },
            {
              "pitch": 70,
              "velocity": 26,
              "position": 0.7604166666666666,
              "duration": 0.010416666666666666
            },
            {
              "pitch": 80,
              "velocity": 20,
              "position": 0.7604166666666666,
              "duration": 0.010416666666666666
            },
            {
              "pitch": 70,
              "velocity": 46,
              "position": 1,
              "duration": 0.010416666666666666
            },
            {
              "pitch": 80,
              "velocity": 30,
              "position": 1,
              "duration": 0.010416666666666666
            },
            {
              "pitch": 70,
              "velocity": 26,
              "position": 1.2604166666666667,
              "duration": 0.010416666666666666
            },
            {
              "pitch": 80,
              "velocity": 20,
              "position": 1.2604166666666667,
              "duration": 0.010416666666666666
            },
            {
              "pitch": 70,
              "velocity": 112,
              "position": 1.5,
              "duration": 0.010416666666666666
            },
            {
              "pitch": 81,
              "velocity": 33,
              "position": 1.5,
              "duration": 0.010416666666666666
            },
            {
              "pitch": 70,
              "velocity": 26,
              "position": 1.7604166666666667,
              "duration": 0.010416666666666666
            },
            {
              "pitch": 80,
              "velocity": 20,
              "position": 1.7604166666666667,
              "duration": 0.010416666666666666
            },
            {
              "pitch": 70,
              "velocity": 67,
              "position": 2,
              "duration": 0.010416666666666666
            },
            {
              "pitch": 80,
              "velocity": 30,
              "position": 2,
              "duration": 0.010416666666666666
            },
            {
              "pitch": 70,
              "velocity": 26,
              "position": 2.2604166666666665,
              "duration": 0.010416666666666666
            },
            {
              "pitch": 80,
              "velocity": 20,
              "position": 2.2604166666666665,
              "duration": 0.010416666666666666
            },
            {
              "pitch": 70,
              "velocity": 111,
              "position": 2.5,
              "duration": 0.010416666666666666
            },
            {
              "pitch": 81,
              "velocity": 33,
              "position": 2.5,
              "duration": 0.010416666666666666
            },
            {
              "pitch": 70,
              "velocity": 26,
              "position": 2.7604166666666665,
              "duration": 0.010416666666666666
            },
            {
              "pitch": 80,
              "velocity": 20,
              "position": 2.7604166666666665,
              "duration": 0.010416666666666666
            },
            {
              "pitch": 70,
              "velocity": 63,
              "position": 3,
              "duration": 0.010416666666666666
            },
            {
              "pitch": 80,
              "velocity": 30,
              "position": 3,
              "duration": 0.010416666666666666
            },
            {
              "pitch": 70,
              "velocity": 26,
              "position": 3.2604166666666665,
              "duration": 0.010416666666666666
            },
            {
              "pitch": 80,
              "velocity": 20,
              "position": 3.2604166666666665,
              "duration": 0.010416666666666666
            },
            {
              "pitch": 70,
              "velocity": 116,
              "position": 3.5,
              "duration": 0.010416666666666666
            },
            {
              "pitch": 81,
              "velocity": 33,
              "position": 3.5,
              "duration": 0.010416666666666666
            },
            {
              "pitch": 70,
              "velocity": 26,
              "position": 3.7604166666666665,
              "duration": 0.010416666666666666
            },
            {
              "pitch": 80,
              "velocity": 20,
              "position": 3.7604166666666665,
              "duration": 0.010416666666666666
            },
            {
              "pitch": 70,
              "velocity": 58,
              "position": 4,
              "duration": 0.010416666666666666
            },
            {
              "pitch": 80,
              "velocity": 20,
              "position": 4.010416666666667,
              "duration": 0.010416666666666666
            },
            {
              "pitch": 80,
              "velocity": 30,
              "position": 4.25,
              "duration": 0.010416666666666666
            },
            {
              "pitch": 70,
              "velocity": 26,
              "position": 4.260416666666667,
              "duration": 0.010416666666666666
            },
            {
              "pitch": 70,
              "velocity": 113,
              "position": 4.5,
              "duration": 0.010416666666666666
            },
            {
              "pitch": 81,
              "velocity": 33,
              "position": 4.5,
              "duration": 0.010416666666666666
            },
            {
              "pitch": 70,
              "velocity": 26,
              "position": 4.760416666666667,
              "duration": 0.010416666666666666
            },
            {
              "pitch": 80,
              "velocity": 20,
              "position": 4.760416666666667,
              "duration": 0.010416666666666666
            },
            {
              "pitch": 70,
              "velocity": 43,
              "position": 5,
              "duration": 0.010416666666666666
            },
            {
              "pitch": 80,
              "velocity": 30,
              "position": 5,
              "duration": 0.010416666666666666
            },
            {
              "pitch": 70,
              "velocity": 26,
              "position": 5.260416666666667,
              "duration": 0.010416666666666666
            },
            {
              "pitch": 80,
              "velocity": 20,
              "position": 5.260416666666667,
              "duration": 0.010416666666666666
            },
            {
              "pitch": 70,
              "velocity": 117,
              "position": 5.5,
              "duration": 0.010416666666666666
            },
            {
              "pitch": 81,
              "velocity": 33,
              "position": 5.5,
              "duration": 0.010416666666666666
            },
            {
              "pitch": 70,
              "velocity": 26,
              "position": 5.760416666666667,
              "duration": 0.010416666666666666
            },
            {
              "pitch": 80,
              "velocity": 20,
              "position": 5.760416666666667,
              "duration": 0.010416666666666666
            },
            {
              "pitch": 70,
              "velocity": 57,
              "position": 6,
              "duration": 0.010416666666666666
            },
            {
              "pitch": 80,
              "velocity": 30,
              "position": 6,
              "duration": 0.010416666666666666
            },
            {
              "pitch": 70,
              "velocity": 26,
              "position": 6.260416666666667,
              "duration": 0.010416666666666666
            },
            {
              "pitch": 80,
              "velocity": 20,
              "position": 6.260416666666667,
              "duration": 0.010416666666666666
            },
            {
              "pitch": 70,
              "velocity": 112,
              "position": 6.5,
              "duration": 0.010416666666666666
            },
            {
              "pitch": 81,
              "velocity": 33,
              "position": 6.5,
              "duration": 0.010416666666666666
            },
            {
              "pitch": 70,
              "velocity": 26,
              "position": 6.760416666666667,
              "duration": 0.010416666666666666
            },
            {
              "pitch": 80,
              "velocity": 20,
              "position": 6.760416666666667,
              "duration": 0.010416666666666666
            },
            {
              "pitch": 70,
              "velocity": 63,
              "position": 7,
              "duration": 0.010416666666666666
            },
            {
              "pitch": 80,
              "velocity": 30,
              "position": 7,
              "duration": 0.010416666666666666
            },
            {
              "pitch": 70,
              "velocity": 26,
              "position": 7.260416666666667,
              "duration": 0.010416666666666666
            },
            {
              "pitch": 80,
              "velocity": 20,
              "position": 7.260416666666667,
              "duration": 0.010416666666666666
            },
            {
              "pitch": 70,
              "velocity": 117,
              "position": 7.5,
              "duration": 0.010416666666666666
            },
            {
              "pitch": 81,
              "velocity": 33,
              "position": 7.5,
              "duration": 0.010416666666666666
            },
            {
              "pitch": 70,
              "velocity": 26,
              "position": 7.760416666666667,
              "duration": 0.010416666666666666
            },
            {
              "pitch": 80,
              "velocity": 20,
              "position": 7.760416666666667,
              "duration": 0.010416666666666666
            },
            {
              "pitch": 70,
              "velocity": 57,
              "position": 8,
              "duration": 0.010416666666666666
            },
            {
              "pitch": 80,
              "velocity": 20,
              "position": 8.010416666666666,
              "duration": 0.010416666666666666
            },
            {
              "pitch": 80,
              "velocity": 30,
              "position": 8.25,
              "duration": 0.010416666666666666
            },
            {
              "pitch": 70,
              "velocity": 26,
              "position": 8.260416666666666,
              "duration": 0.010416666666666666
            },
            {
              "pitch": 70,
              "velocity": 112,
              "position": 8.5,
              "duration": 0.010416666666666666
            },
            {
              "pitch": 81,
              "velocity": 33,
              "position": 8.5,
              "duration": 0.010416666666666666
            },
            {
              "pitch": 70,
              "velocity": 26,
              "position": 8.760416666666666,
              "duration": 0.010416666666666666
            },
            {
              "pitch": 80,
              "velocity": 20,
              "position": 8.760416666666666,
              "duration": 0.010416666666666666
            },
            {
              "pitch": 70,
              "velocity": 46,
              "position": 9,
              "duration": 0.010416666666666666
            },
            {
              "pitch": 80,
              "velocity": 30,
              "position": 9,
              "duration": 0.010416666666666666
            },
            {
              "pitch": 70,
              "velocity": 26,
              "position": 9.260416666666666,
              "duration": 0.010416666666666666
            },
            {
              "pitch": 80,
              "velocity": 20,
              "position": 9.260416666666666,
              "duration": 0.010416666666666666
            },
            {
              "pitch": 70,
              "velocity": 112,
              "position": 9.5,
              "duration": 0.010416666666666666
            },
            {
              "pitch": 81,
              "velocity": 33,
              "position": 9.5,
              "duration": 0.010416666666666666
            },
            {
              "pitch": 70,
              "velocity": 26,
              "position": 9.760416666666666,
              "duration": 0.010416666666666666
            },
            {
              "pitch": 80,
              "velocity": 20,
              "position": 9.760416666666666,
              "duration": 0.010416666666666666
            },
            {
              "pitch": 70,
              "velocity": 67,
              "position": 10,
              "duration": 0.010416666666666666
            },
            {
              "pitch": 80,
              "velocity": 30,
              "position": 10,
              "duration": 0.010416666666666666
            },
            {
              "pitch": 70,
              "velocity": 26,
              "position": 10.260416666666666,
              "duration": 0.010416666666666666
            },
            {
              "pitch": 80,
              "velocity": 20,
              "position": 10.260416666666666,
              "duration": 0.010416666666666666
            },
            {
              "pitch": 70,
              "velocity": 111,
              "position": 10.5,
              "duration": 0.010416666666666666
            },
            {
              "pitch": 81,
              "velocity": 33,
              "position": 10.5,
              "duration": 0.010416666666666666
            },
            {
              "pitch": 70,
              "velocity": 26,
              "position": 10.760416666666666,
              "duration": 0.010416666666666666
            },
            {
              "pitch": 80,
              "velocity": 20,
              "position": 10.760416666666666,
              "duration": 0.010416666666666666
            },
            {
              "pitch": 70,
              "velocity": 63,
              "position": 11,
              "duration": 0.010416666666666666
            },
            {
              "pitch": 80,
              "velocity": 30,
              "position": 11,
              "duration": 0.010416666666666666
            },
            {
              "pitch": 70,
              "velocity": 26,
              "position": 11.260416666666666,
              "duration": 0.010416666666666666
            },
            {
              "pitch": 80,
              "velocity": 20,
              "position": 11.260416666666666,
              "duration": 0.010416666666666666
            },
            {
              "pitch": 70,
              "velocity": 116,
              "position": 11.5,
              "duration": 0.010416666666666666
            },
            {
              "pitch": 81,
              "velocity": 33,
              "position": 11.5,
              "duration": 0.010416666666666666
            },
            {
              "pitch": 70,
              "velocity": 26,
              "position": 11.760416666666666,
              "duration": 0.010416666666666666
            },
            {
              "pitch": 80,
              "velocity": 20,
              "position": 11.760416666666666,
              "duration": 0.010416666666666666
            },
            {
              "pitch": 70,
              "velocity": 58,
              "position": 12,
              "duration": 0.010416666666666666
            },
            {
              "pitch": 80,
              "velocity": 20,
              "position": 12.010416666666666,
              "duration": 0.010416666666666666
            },
            {
              "pitch": 80,
              "velocity": 30,
              "position": 12.25,
              "duration": 0.010416666666666666
            },
            {
              "pitch": 70,
              "velocity": 26,
              "position": 12.260416666666666,
              "duration": 0.010416666666666666
            },
            {
              "pitch": 70,
              "velocity": 113,
              "position": 12.5,
              "duration": 0.010416666666666666
            },
            {
              "pitch": 81,
              "velocity": 33,
              "position": 12.5,
              "duration": 0.010416666666666666
            },
            {
              "pitch": 70,
              "velocity": 26,
              "position": 12.760416666666666,
              "duration": 0.010416666666666666
            },
            {
              "pitch": 80,
              "velocity": 20,
              "position": 12.760416666666666,
              "duration": 0.010416666666666666
            },
            {
              "pitch": 70,
              "velocity": 43,
              "position": 13,
              "duration": 0.010416666666666666
            },
            {
              "pitch": 80,
              "velocity": 30,
              "position": 13,
              "duration": 0.010416666666666666
            },
            {
              "pitch": 70,
              "velocity": 26,
              "position": 13.260416666666666,
              "duration": 0.010416666666666666
            },
            {
              "pitch": 80,
              "velocity": 20,
              "position": 13.260416666666666,
              "duration": 0.010416666666666666
            },
            {
              "pitch": 70,
              "velocity": 117,
              "position": 13.5,
              "duration": 0.010416666666666666
            },
            {
              "pitch": 81,
              "velocity": 33,
              "position": 13.5,
              "duration": 0.010416666666666666
            },
            {
              "pitch": 70,
              "velocity": 26,
              "position": 13.760416666666666,
              "duration": 0.010416666666666666
            },
            {
              "pitch": 80,
              "velocity": 20,
              "position": 13.760416666666666,
              "duration": 0.010416666666666666
            },
            {
              "pitch": 70,
              "velocity": 57,
              "position": 14,
              "duration": 0.010416666666666666
            },
            {
              "pitch": 80,
              "velocity": 30,
              "position": 14,
              "duration": 0.010416666666666666
            },
            {
              "pitch": 70,
              "velocity": 26,
              "position": 14.260416666666666,
              "duration": 0.010416666666666666
            },
            {
              "pitch": 80,
              "velocity": 20,
              "position": 14.260416666666666,
              "duration": 0.010416666666666666
            },
            {
              "pitch": 70,
              "velocity": 112,
              "position": 14.5,
              "duration": 0.010416666666666666
            },
            {
              "pitch": 81,
              "velocity": 33,
              "position": 14.5,
              "duration": 0.010416666666666666
            },
            {
              "pitch": 70,
              "velocity": 26,
              "position": 14.760416666666666,
              "duration": 0.010416666666666666
            },
            {
              "pitch": 80,
              "velocity": 20,
              "position": 14.760416666666666,
              "duration": 0.010416666666666666
            },
            {
              "pitch": 70,
              "velocity": 63,
              "position": 15,
              "duration": 0.010416666666666666
            },
            {
              "pitch": 80,
              "velocity": 30,
              "position": 15,
              "duration": 0.010416666666666666
            },
            {
              "pitch": 70,
              "velocity": 26,
              "position": 15.260416666666666,
              "duration": 0.010416666666666666
            },
            {
              "pitch": 80,
              "velocity": 20,
              "position": 15.260416666666666,
              "duration": 0.010416666666666666
            },
            {
              "pitch": 70,
              "velocity": 117,
              "position": 15.5,
              "duration": 0.010416666666666666
            },
            {
              "pitch": 81,
              "velocity": 33,
              "position": 15.5,
              "duration": 0.010416666666666666
            },
            {
              "pitch": 70,
              "velocity": 26,
              "position": 15.760416666666666,
              "duration": 0.010416666666666666
            },
            {
              "pitch": 80,
              "velocity": 20,
              "position": 15.760416666666666,
              "duration": 0.010416666666666666
            }
          ]
        },
        "9": {
          "ctab": {
            "srcChannel": 9,
            "name": "RHY 2",
            "accType": "RHYTHM",
            "editable": false,
            "mutedNotes": [],
            "mutedChords": [],
            "autoStart": true,
            "sourceChordNote": 0,
            "sourceChordType": "Maj7",
            "ctb2Low": null,
            "ctb2Main": {
              "ntr": "ROOT_FIXED",
              "ntt": "BYPASS",
              "bassOn": false,
              "chordRootUpperLimit": 6,
              "noteLowLimit": 0,
              "noteHighLimit": 127,
              "rtr": "PITCH_SHIFT"
            },
            "ctb2High": null
          },
          "notes": [
            {
              "pitch": 35,
              "velocity": 80,
              "position": 0,
              "duration": 0.010416666666666666
            },
            {
              "pitch": 42,
              "velocity": 112,
              "position": 0,
              "duration": 0.010416666666666666
            },
            {
              "pitch": 42,
              "velocity": 26,
              "position": 0.2604166666666667,
              "duration": 0.010416666666666666
            },
            {
              "pitch": 35,
              "velocity": 64,
              "position": 0.5,
              "duration": 0.010416666666666666
            },
            {
              "pitch": 42,
              "velocity": 46,
              "position": 0.5,
              "duration": 0.010416666666666666
            },
            {
              "pitch": 42,
              "velocity": 26,
              "position": 0.7604166666666666,
              "duration": 0.010416666666666666
            },
            {
              "pitch": 40,
              "velocity": 81,
              "position": 1,
              "duration": 0.010416666666666666
            },
            {
              "pitch": 42,
              "velocity": 112,
              "position": 1,
              "duration": 0.010416666666666666
            },
            {
              "pitch": 42,
              "velocity": 26,
              "position": 1.2604166666666667,
              "duration": 0.010416666666666666
            },
            {
              "pitch": 42,
              "velocity": 67,
              "position": 1.5,
              "duration": 0.010416666666666666
            },
            {
              "pitch": 35,
              "velocity": 50,
              "position": 1.7604166666666667,
              "duration": 0.010416666666666666
            },
            {
              "pitch": 42,
              "velocity": 26,
              "position": 1.7604166666666667,
              "duration": 0.010416666666666666
            },
            {
              "pitch": 35,
              "velocity": 82,
              "position": 2,
              "duration": 0.010416666666666666
            },
            {
              "pitch": 42,
              "velocity": 111,
              "position": 2,
              "duration": 0.010416666666666666
            },
            {
              "pitch": 42,
              "velocity": 26,
              "position": 2.2604166666666665,
              "duration": 0.010416666666666666
            },
            {
              "pitch": 35,
              "velocity": 81,
              "position": 2.5,
              "duration": 0.010416666666666666
            },
            {
              "pitch": 42,
              "velocity": 63,
              "position": 2.5,
              "duration": 0.010416666666666666
            },
            {
              "pitch": 42,
              "velocity": 26,
              "position": 2.7604166666666665,
              "duration": 0.010416666666666666
            },
            {
              "pitch": 40,
              "velocity": 81,
              "position": 3,
              "duration": 0.010416666666666666
            },
            {
              "pitch": 42,
              "velocity": 116,
              "position": 3,
              "duration": 0.010416666666666666
            },
            {
              "pitch": 42,
              "velocity": 26,
              "position": 3.2604166666666665,
              "duration": 0.010416666666666666
            },
            {
              "pitch": 42,
              "velocity": 58,
              "position": 3.5,
              "duration": 0.010416666666666666
            },
            {
              "pitch": 35,
              "velocity": 26,
              "position": 3.7604166666666665,
              "duration": 0.010416666666666666
            },
            {
              "pitch": 42,
              "velocity": 26,
              "position": 3.7604166666666665,
              "duration": 0.010416666666666666
            },
            {
              "pitch": 35,
              "velocity": 80,
              "position": 4,
              "duration": 0.010416666666666666
            },
            {
              "pitch": 42,
              "velocity": 113,
              "position": 4,
              "duration": 0.010416666666666666
            },
            {
              "pitch": 42,
              "velocity": 26,
              "position": 4.260416666666667,
              "duration": 0.010416666666666666
            },
            {
              "pitch": 35,
              "velocity": 64,
              "position": 4.5,
              "duration": 0.010416666666666666
            },
            {
              "pitch": 42,
              "velocity": 43,
              "position": 4.5,
              "duration": 0.010416666666666666
            },
            {
              "pitch": 42,
              "velocity": 26,
              "position": 4.760416666666667,
              "duration": 0.010416666666666666
            },
            {
              "pitch": 40,
              "velocity": 81,
              "position": 5,
              "duration": 0.010416666666666666
            },
            {
              "pitch": 42,
              "velocity": 117,
              "position": 5,
              "duration": 0.010416666666666666
            },
            {
              "pitch": 42,
              "velocity": 26,
              "position": 5.260416666666667,
              "duration": 0.010416666666666666
            },
            {
              "pitch": 42,
              "velocity": 57,
              "position": 5.5,
              "duration": 0.010416666666666666
            },
            {
              "pitch": 35,
              "velocity": 50,
              "position": 5.760416666666667,
              "duration": 0.010416666666666666
            },
            {
              "pitch": 42,
              "velocity": 26,
              "position": 5.760416666666667,
              "duration": 0.010416666666666666
            },
            {
              "pitch": 35,
              "velocity": 82,
              "position": 6,
              "duration": 0.010416666666666666
            },
            {
              "pitch": 42,
              "velocity": 112,
              "position": 6,
              "duration": 0.010416666666666666
            },
            {
              "pitch": 42,
              "velocity": 26,
              "position": 6.260416666666667,
              "duration": 0.010416666666666666
            },
            {
              "pitch": 35,
              "velocity": 81,
              "position": 6.5,
              "duration": 0.010416666666666666
            },
            {
              "pitch": 42,
              "velocity": 63,
              "position": 6.5,
              "duration": 0.010416666666666666
            },
            {
              "pitch": 42,
              "velocity": 26,
              "position": 6.760416666666667,
              "duration": 0.010416666666666666
            },
            {
              "pitch": 40,
              "velocity": 81,
              "position": 7,
              "duration": 0.010416666666666666
            },
            {
              "pitch": 42,
              "velocity": 117,
              "position": 7,
              "duration": 0.010416666666666666
            },
            {
              "pitch": 42,
              "velocity": 26,
              "position": 7.260416666666667,
              "duration": 0.010416666666666666
            },
            {
              "pitch": 42,
              "velocity": 57,
              "position": 7.5,
              "duration": 0.010416666666666666
            },
            {
              "pitch": 35,
              "velocity": 26,
              "position": 7.760416666666667,
              "duration": 0.010416666666666666
            },
            {
              "pitch": 42,
              "velocity": 26,
              "position": 7.760416666666667,
              "duration": 0.010416666666666666
            },
            {
              "pitch": 35,
              "velocity": 80,
              "position": 8,
              "duration": 0.010416666666666666
            },
            {
              "pitch": 42,
              "velocity": 112,
              "position": 8,
              "duration": 0.010416666666666666
            },
            {
              "pitch": 42,
              "velocity": 26,
              "position": 8.260416666666666,
              "duration": 0.010416666666666666
            },
            {
              "pitch": 35,
              "velocity": 64,
              "position": 8.5,
              "duration": 0.010416666666666666
            },
            {
              "pitch": 42,
              "velocity": 46,
              "position": 8.5,
              "duration": 0.010416666666666666
            },
            {
              "pitch": 42,
              "velocity": 26,
              "position": 8.760416666666666,
              "duration": 0.010416666666666666
            },
            {
              "pitch": 40,
              "velocity": 81,
              "position": 9,
              "duration": 0.010416666666666666
            },
            {
              "pitch": 42,
              "velocity": 112,
              "position": 9,
              "duration": 0.010416666666666666
            },
            {
              "pitch": 42,
              "velocity": 26,
              "position": 9.260416666666666,
              "duration": 0.010416666666666666
            },
            {
              "pitch": 42,
              "velocity": 67,
              "position": 9.5,
              "duration": 0.010416666666666666
            },
            {
              "pitch": 35,
              "velocity": 50,
              "position": 9.760416666666666,
              "duration": 0.010416666666666666
            },
            {
              "pitch": 42,
              "velocity": 26,
              "position": 9.760416666666666,
              "duration": 0.010416666666666666
            },
            {
              "pitch": 35,
              "velocity": 82,
              "position": 10,
              "duration": 0.010416666666666666
            },
            {
              "pitch": 42,
              "velocity": 111,
              "position": 10,
              "duration": 0.010416666666666666
            },
            {
              "pitch": 42,
              "velocity": 26,
              "position": 10.260416666666666,
              "duration": 0.010416666666666666
            },
            {
              "pitch": 35,
              "velocity": 81,
              "position": 10.5,
              "duration": 0.010416666666666666
            },
            {
              "pitch": 42,
              "velocity": 63,
              "position": 10.5,
              "duration": 0.010416666666666666
            },
            {
              "pitch": 42,
              "velocity": 26,
              "position": 10.760416666666666,
              "duration": 0.010416666666666666
            },
            {
              "pitch": 40,
              "velocity": 81,
              "position": 11,
              "duration": 0.010416666666666666
            },
            {
              "pitch": 42,
              "velocity": 116,
              "position": 11,
              "duration": 0.010416666666666666
            },
            {
              "pitch": 42,
              "velocity": 26,
              "position": 11.260416666666666,
              "duration": 0.010416666666666666
            },
            {
              "pitch": 42,
              "velocity": 58,
              "position": 11.5,
              "duration": 0.010416666666666666
            },
            {
              "pitch": 35,
              "velocity": 26,
              "position": 11.760416666666666,
              "duration": 0.010416666666666666
            },
            {
              "pitch": 42,
              "velocity": 26,
              "position": 11.760416666666666,
              "duration": 0.010416666666666666
            },
            {
              "pitch": 35,
              "velocity": 80,
              "position": 12,
              "duration": 0.010416666666666666
            },
            {
              "pitch": 42,
              "velocity": 113,
              "position": 12,
              "duration": 0.010416666666666666
            },
            {
              "pitch": 42,
              "velocity": 26,
              "position": 12.260416666666666,
              "duration": 0.010416666666666666
            },
            {
              "pitch": 35,
              "velocity": 64,
              "position": 12.5,
              "duration": 0.010416666666666666
            },
            {
              "pitch": 42,
              "velocity": 43,
              "position": 12.5,
              "duration": 0.010416666666666666
            },
            {
              "pitch": 42,
              "velocity": 26,
              "position": 12.760416666666666,
              "duration": 0.010416666666666666
            },
            {
              "pitch": 40,
              "velocity": 81,
              "position": 13,
              "duration": 0.010416666666666666
            },
            {
              "pitch": 42,
              "velocity": 117,
              "position": 13,
              "duration": 0.010416666666666666
            },
            {
              "pitch": 42,
              "velocity": 26,
              "position": 13.260416666666666,
              "duration": 0.010416666666666666
            },
            {
              "pitch": 42,
              "velocity": 57,
              "position": 13.5,
              "duration": 0.010416666666666666
            },
            {
              "pitch": 35,
              "velocity": 50,
              "position": 13.760416666666666,
              "duration": 0.010416666666666666
            },
            {
              "pitch": 42,
              "velocity": 26,
              "position": 13.760416666666666,
              "duration": 0.010416666666666666
            },
            {
              "pitch": 35,
              "velocity": 82,
              "position": 14,
              "duration": 0.010416666666666666
            },
            {
              "pitch": 42,
              "velocity": 112,
              "position": 14,
              "duration": 0.010416666666666666
            },
            {
              "pitch": 42,
              "velocity": 26,
              "position": 14.260416666666666,
              "duration": 0.010416666666666666
            },
            {
              "pitch": 35,
              "velocity": 81,
              "position": 14.5,
              "duration": 0.010416666666666666
            },
            {
              "pitch": 42,
              "velocity": 63,
              "position": 14.5,
              "duration": 0.010416666666666666
            },
            {
              "pitch": 42,
              "velocity": 26,
              "position": 14.760416666666666,
              "duration": 0.010416666666666666
            },
            {
              "pitch": 40,
              "velocity": 81,
              "position": 15,
              "duration": 0.010416666666666666
            },
            {
              "pitch": 42,
              "velocity": 117,
              "position": 15,
              "duration": 0.010416666666666666
            },
            {
              "pitch": 42,
              "velocity": 26,
              "position": 15.260416666666666,
              "duration": 0.010416666666666666
            },
            {
              "pitch": 42,
              "velocity": 57,
              "position": 15.5,
              "duration": 0.010416666666666666
            },
            {
              "pitch": 35,
              "velocity": 26,
              "position": 15.760416666666666,
              "duration": 0.010416666666666666
            },
            {
              "pitch": 42,
              "velocity": 26,
              "position": 15.760416666666666,
              "duration": 0.010416666666666666
            }
          ]
        },
        "10": {
          "ctab": {
            "srcChannel": 10,
            "name": "Bass",
            "accType": "BASS",
            "editable": false,
            "mutedNotes": [],
            "mutedChords": [],
            "autoStart": false,
            "sourceChordNote": 0,
            "sourceChordType": "Maj7",
            "ctb2Low": null,
            "ctb2Main": {
              "ntr": "ROOT_TRANSPOSITION",
              "ntt": "MELODY",
              "bassOn": true,
              "chordRootUpperLimit": 8,
              "noteLowLimit": 28,
              "noteHighLimit": 127,
              "rtr": "PITCH_SHIFT_TO_ROOT"
            },
            "ctb2High": null
          },
          "notes": [
            {
              "pitch": 24,
              "velocity": 95,
              "position": 0,
              "duration": 0.4895833333333333
            },
            {
              "pitch": 24,
              "velocity": 95,
              "position": 0.5,
              "duration": 0.25
            },
            {
              "pitch": 24,
              "velocity": 65,
              "position": 1.7604166666666667,
              "duration": 0.21875
            },
            {
              "pitch": 24,
              "velocity": 95,
              "position": 2,
              "duration": 0.4895833333333333
            },
            {
              "pitch": 24,
              "velocity": 95,
              "position": 2.5,
              "duration": 0.25
            },
            {
              "pitch": 31,
              "velocity": 84,
              "position": 3.5,
              "duration": 0.23958333333333334
            },
            {
              "pitch": 36,
              "velocity": 60,
              "position": 3.7604166666666665,
              "duration": 0.21875
            },
            {
              "pitch": 24,
              "velocity": 95,
              "position": 4,
              "duration": 0.4895833333333333
            },
            {
              "pitch": 24,
              "velocity": 95,
              "position": 4.5,
              "duration": 0.25
            },
            {
              "pitch": 24,
              "velocity": 65,
              "position": 5.760416666666667,
              "duration": 0.21875
            },
            {
              "pitch": 24,
              "velocity": 95,
              "position": 6,
              "duration": 0.4895833333333333
            },
            {
              "pitch": 24,
              "velocity": 95,
              "position": 6.5,
              "duration": 0.25
            },
            {
              "pitch": 31,
              "velocity": 84,
              "position": 7.5,
              "duration": 0.23958333333333334
            },
            {
              "pitch": 36,
              "velocity": 60,
              "position": 7.760416666666667,
              "duration": 0.21875
            },
            {
              "pitch": 24,
              "velocity": 95,
              "position": 8,
              "duration": 0.4895833333333333
            },
            {
              "pitch": 24,
              "velocity": 95,
              "position": 8.5,
              "duration": 0.25
            },
            {
              "pitch": 24,
              "velocity": 65,
              "position": 9.760416666666666,
              "duration": 0.21875
            },
            {
              "pitch": 24,
              "velocity": 95,
              "position": 10,
              "duration": 0.4895833333333333
            },
            {
              "pitch": 24,
              "velocity": 95,
              "position": 10.5,
              "duration": 0.25
            },
            {
              "pitch": 31,
              "velocity": 84,
              "position": 11.5,
              "duration": 0.23958333333333334
            },
            {
              "pitch": 36,
              "velocity": 60,
              "position": 11.760416666666666,
              "duration": 0.21875
            },
            {
              "pitch": 24,
              "velocity": 95,
              "position": 12,
              "duration": 0.4895833333333333
            },
            {
              "pitch": 24,
              "velocity": 95,
              "position": 12.5,
              "duration": 0.25
            },
            {
              "pitch": 24,
              "velocity": 65,
              "position": 13.760416666666666,
              "duration": 0.21875
            },
            {
              "pitch": 24,
              "velocity": 95,
              "position": 14,
              "duration": 0.4895833333333333
            },
            {
              "pitch": 24,
              "velocity": 95,
              "position": 14.5,
              "duration": 0.25
            },
            {
              "pitch": 31,
              "velocity": 84,
              "position": 15.5,
              "duration": 0.23958333333333334
            },
            {
              "pitch": 36,
              "velocity": 60,
              "position": 15.760416666666666,
              "duration": 0.21875
            }
          ]
        },
        "11": {
          "ctab": {
            "srcChannel": 11,
            "name": "EP",
            "accType": "CHORD1",
            "editable": false,
            "mutedNotes": [],
            "mutedChords": [],
            "autoStart": false,
            "sourceChordNote": 0,
            "sourceChordType": "Maj7",
            "ctb2Low": null,
            "ctb2Main": {
              "ntr": "ROOT_FIXED",
              "ntt": "CHORD",
              "bassOn": false,
              "chordRootUpperLimit": 11,
              "noteLowLimit": 0,
              "noteHighLimit": 127,
              "rtr": "PITCH_SHIFT"
            },
            "ctb2High": null
          },
          "notes": [
            {
              "pitch": 55,
              "velocity": 65,
              "position": 0,
              "duration": 0.9791666666666666
            },
            {
              "pitch": 59,
              "velocity": 65,
              "position": 0,
              "duration": 0.9791666666666666
            },
            {
              "pitch": 64,
              "velocity": 65,
              "position": 0,
              "duration": 0.9791666666666666
            },
            {
              "pitch": 55,
              "velocity": 57,
              "position": 1,
              "duration": 0.9791666666666666
            },
            {
              "pitch": 59,
              "velocity": 57,
              "position": 1,
              "duration": 0.9791666666666666
            },
            {
              "pitch": 64,
              "velocity": 57,
              "position": 1,
              "duration": 0.9791666666666666
            },
            {
              "pitch": 55,
              "velocity": 66,
              "position": 2,
              "duration": 0.9791666666666666
            },
            {
              "pitch": 59,
              "velocity": 66,
              "position": 2,
              "duration": 0.9791666666666666
            },
            {
              "pitch": 64,
              "velocity": 66,
              "position": 2,
              "duration": 0.9791666666666666
            },
            {
              "pitch": 55,
              "velocity": 56,
              "position": 3,
              "duration": 0.9791666666666666
            },
            {
              "pitch": 59,
              "velocity": 56,
              "position": 3,
              "duration": 0.9791666666666666
            },
            {
              "pitch": 64,
              "velocity": 56,
              "position": 3,
              "duration": 0.9791666666666666
            },
            {
              "pitch": 55,
              "velocity": 65,
              "position": 4,
              "duration": 0.9791666666666666
            },
            {
              "pitch": 59,
              "velocity": 65,
              "position": 4,
              "duration": 0.9791666666666666
            },
            {
              "pitch": 64,
              "velocity": 65,
              "position": 4,
              "duration": 0.9791666666666666
            },
            {
              "pitch": 55,
              "velocity": 57,
              "position": 5,
              "duration": 0.9791666666666666
            },
            {
              "pitch": 59,
              "velocity": 57,
              "position": 5,
              "duration": 0.9791666666666666
            },
            {
              "pitch": 64,
              "velocity": 57,
              "position": 5,
              "duration": 0.9791666666666666
            },
            {
              "pitch": 55,
              "velocity": 66,
              "position": 6,
              "duration": 0.9791666666666666
            },
            {
              "pitch": 59,
              "velocity": 66,
              "position": 6,
              "duration": 0.9791666666666666
            },
            {
              "pitch": 64,
              "velocity": 66,
              "position": 6,
              "duration": 0.9791666666666666
            },
            {
              "pitch": 55,
              "velocity": 56,
              "position": 7,
              "duration": 0.9791666666666666
            },
            {
              "pitch": 59,
              "velocity": 56,
              "position": 7,
              "duration": 0.9791666666666666
            },
            {
              "pitch": 64,
              "velocity": 56,
              "position": 7,
              "duration": 0.9791666666666666
            },
            {
              "pitch": 55,
              "velocity": 65,
              "position": 8,
              "duration": 0.9791666666666666
            },
            {
              "pitch": 59,
              "velocity": 65,
              "position": 8,
              "duration": 0.9791666666666666
            },
            {
              "pitch": 64,
              "velocity": 65,
              "position": 8,
              "duration": 0.9791666666666666
            },
            {
              "pitch": 55,
              "velocity": 57,
              "position": 9,
              "duration": 0.9791666666666666
            },
            {
              "pitch": 59,
              "velocity": 57,
              "position": 9,
              "duration": 0.9791666666666666
            },
            {
              "pitch": 64,
              "velocity": 57,
              "position": 9,
              "duration": 0.9791666666666666
            },
            {
              "pitch": 55,
              "velocity": 66,
              "position": 10,
              "duration": 0.9791666666666666
            },
            {
              "pitch": 59,
              "velocity": 66,
              "position": 10,
              "duration": 0.9791666666666666
            },
            {
              "pitch": 64,
              "velocity": 66,
              "position": 10,
              "duration": 0.9791666666666666
            },
            {
              "pitch": 55,
              "velocity": 56,
              "position": 11,
              "duration": 0.9791666666666666
            },
            {
              "pitch": 59,
              "velocity": 56,
              "position": 11,
              "duration": 0.9791666666666666
            },
            {
              "pitch": 64,
              "velocity": 56,
              "position": 11,
              "duration": 0.9791666666666666
            },
            {
              "pitch": 55,
              "velocity": 65,
              "position": 12,
              "duration": 0.9791666666666666
            },
            {
              "pitch": 59,
              "velocity": 65,
              "position": 12,
              "duration": 0.9791666666666666
            },
            {
              "pitch": 64,
              "velocity": 65,
              "position": 12,
              "duration": 0.9791666666666666
            },
            {
              "pitch": 55,
              "velocity": 57,
              "position": 13,
              "duration": 0.9791666666666666
            },
            {
              "pitch": 59,
              "velocity": 57,
              "position": 13,
              "duration": 0.9791666666666666
            },
            {
              "pitch": 64,
              "velocity": 57,
              "position": 13,
              "duration": 0.9791666666666666
            },
            {
              "pitch": 55,
              "velocity": 66,
              "position": 14,
              "duration": 0.9791666666666666
            },
            {
              "pitch": 59,
              "velocity": 66,
              "position": 14,
              "duration": 0.9791666666666666
            },
            {
              "pitch": 64,
              "velocity": 66,
              "position": 14,
              "duration": 0.9791666666666666
            },
            {
              "pitch": 55,
              "velocity": 56,
              "position": 15,
              "duration": 0.9791666666666666
            },
            {
              "pitch": 59,
              "velocity": 56,
              "position": 15,
              "duration": 0.9791666666666666
            },
            {
              "pitch": 64,
              "velocity": 56,
              "position": 15,
              "duration": 0.9791666666666666
            }
          ]
        },
        "12": {
          "ctab": {
            "srcChannel": 12,
            "name": "Guitar",
            "accType": "CHORD2",
            "editable": false,
            "mutedNotes": [],
            "mutedChords": [],
            "autoStart": false,
            "sourceChordNote": 0,
            "sourceChordType": "Maj7",
            "ctb2Low": null,
            "ctb2Main": {
              "ntr": "ROOT_FIXED",
              "ntt": "CHORD",
              "bassOn": false,
              "chordRootUpperLimit": 7,
              "noteLowLimit": 0,
              "noteHighLimit": 127,
              "rtr": "PITCH_SHIFT"
            },
            "ctb2High": null
          },
          "notes": [
            {
              "pitch": 59,
              "velocity": 54,
              "position": 0,
              "duration": 0.7395833333333334
            },
            {
              "pitch": 64,
              "velocity": 54,
              "position": 0,
              "duration": 0.7395833333333334
            },
            {
              "pitch": 67,
              "velocity": 54,
              "position": 0,
              "duration": 0.7395833333333334
            },
            {
              "pitch": 59,
              "velocity": 49,
              "position": 0.7604166666666666,
              "duration": 0.10416666666666667
            },
            {
              "pitch": 64,
              "velocity": 49,
              "position": 0.7604166666666666,
              "duration": 0.10416666666666667
            },
            {
              "pitch": 67,
              "velocity": 49,
              "position": 0.7604166666666666,
              "duration": 0.10416666666666667
            },
            {
              "pitch": 59,
              "velocity": 49,
              "position": 1.5,
              "duration": 2.4791666666666665
            },
            {
              "pitch": 64,
              "velocity": 49,
              "position": 1.5,
              "duration": 2.4791666666666665
            },
            {
              "pitch": 67,
              "velocity": 49,
              "position": 1.5,
              "duration": 2.4791666666666665
            },
            {
              "pitch": 59,
              "velocity": 54,
              "position": 4,
              "duration": 1.4791666666666667
            },
            {
              "pitch": 64,
              "velocity": 54,
              "position": 4,
              "duration": 1.4791666666666667
            },
            {
              "pitch": 67,
              "velocity": 54,
              "position": 4,
              "duration": 1.4791666666666667
            },
            {
              "pitch": 59,
              "velocity": 49,
              "position": 5.5,
              "duration": 2.4791666666666665
            },
            {
              "pitch": 64,
              "velocity": 49,
              "position": 5.5,
              "duration": 2.4791666666666665
            },
            {
              "pitch": 67,
              "velocity": 49,
              "position": 5.5,
              "duration": 2.4791666666666665
            },
            {
              "pitch": 59,
              "velocity": 53,
              "position": 8,
              "duration": 0.7395833333333334
            },
            {
              "pitch": 64,
              "velocity": 53,
              "position": 8,
              "duration": 0.7395833333333334
            },
            {
              "pitch": 67,
              "velocity": 53,
              "position": 8,
              "duration": 0.7395833333333334
            },
            {
              "pitch": 59,
              "velocity": 49,
              "position": 8.760416666666666,
              "duration": 0.10416666666666667
            },
            {
              "pitch": 64,
              "velocity": 49,
              "position": 8.760416666666666,
              "duration": 0.10416666666666667
            },
            {
              "pitch": 67,
              "velocity": 49,
              "position": 8.760416666666666,
              "duration": 0.10416666666666667
            },
            {
              "pitch": 59,
              "velocity": 49,
              "position": 9.5,
              "duration": 2.4791666666666665
            },
            {
              "pitch": 64,
              "velocity": 49,
              "position": 9.5,
              "duration": 2.4791666666666665
            },
            {
              "pitch": 67,
              "velocity": 49,
              "position": 9.5,
              "duration": 2.4791666666666665
            },
            {
              "pitch": 59,
              "velocity": 53,
              "position": 12,
              "duration": 1.4791666666666667
            },
            {
              "pitch": 64,
              "velocity": 53,
              "position": 12,
              "duration": 1.4791666666666667
            },
            {
              "pitch": 67,
              "velocity": 53,
              "position": 12,
              "duration": 1.4791666666666667
            },
            {
              "pitch": 59,
              "velocity": 48,
              "position": 13.5,
              "duration": 2.4791666666666665
            },
            {
              "pitch": 64,
              "velocity": 48,
              "position": 13.5,
              "duration": 2.4791666666666665
            },
            {
              "pitch": 67,
              "velocity": 48,
              "position": 13.5,
              "duration": 2.4791666666666665
            }
          ]
        },
        "13": {
          "ctab": {
            "srcChannel": 13,
            "name": "Strings",
            "accType": "PAD",
            "editable": false,
            "mutedNotes": [],
            "mutedChords": [],
            "autoStart": false,
            "sourceChordNote": 0,
            "sourceChordType": "Maj7",
            "ctb2Low": null,
            "ctb2Main": {
              "ntr": "ROOT_FIXED",
              "ntt": "CHORD",
              "bassOn": false,
              "chordRootUpperLimit": 0,
              "noteLowLimit": 0,
              "noteHighLimit": 127,
              "rtr": "PITCH_SHIFT"
            },
            "ctb2High": null
          },
          "notes": [
            {
              "pitch": 59,
              "velocity": 54,
              "position": 0,
              "duration": 15.979166666666666
            },
            {
              "pitch": 64,
              "velocity": 54,
              "position": 0,
              "duration": 15.979166666666666
            },
            {
              "pitch": 67,
              "velocity": 54,
              "position": 0,
              "duration": 15.979166666666666
            }
          ]
        },
        "14": {
          "ctab": {
            "srcChannel": 14,
            "name": "Mute",
            "accType": "PHRASE1",
            "editable": false,
            "mutedNotes": [],
            "mutedChords": [],
            "autoStart": false,
            "sourceChordNote": 0,
            "sourceChordType": "min7(11)",
            "ctb2Low": null,
            "ctb2Main": {
              "ntr": "ROOT_FIXED",
              "ntt": "CHORD",
              "bassOn": false,
              "chordRootUpperLimit": 6,
              "noteLowLimit": 0,
              "noteHighLimit": 127,
              "rtr": "PITCH_SHIFT"
            },
            "ctb2High": null
          },
          "notes": [
            {
              "pitch": 48,
              "velocity": 91,
              "position": 0,
              "duration": 0.23958333333333334
            },
            {
              "pitch": 55,
              "velocity": 91,
              "position": 0,
              "duration": 0.23958333333333334
            },
            {
              "pitch": 48,
              "velocity": 41,
              "position": 0.2604166666666667,
              "duration": 0.21875
            },
            {
              "pitch": 55,
              "velocity": 41,
              "position": 0.2604166666666667,
              "duration": 0.21875
            },
            {
              "pitch": 55,
              "velocity": 65,
              "position": 0.5,
              "duration": 0.07291666666666667
            },
            {
              "pitch": 60,
              "velocity": 65,
              "position": 0.5,
              "duration": 0.07291666666666667
            },
            {
              "pitch": 48,
              "velocity": 84,
              "position": 1,
              "duration": 0.23958333333333334
            },
            {
              "pitch": 55,
              "velocity": 84,
              "position": 1,
              "duration": 0.23958333333333334
            },
            {
              "pitch": 48,
              "velocity": 65,
              "position": 1.2604166666666667,
              "duration": 0.07291666666666667
            },
            {
              "pitch": 55,
              "velocity": 65,
              "position": 1.2604166666666667,
              "duration": 0.07291666666666667
            },
            {
              "pitch": 48,
              "velocity": 91,
              "position": 2,
              "duration": 0.23958333333333334
            },
            {
              "pitch": 55,
              "velocity": 91,
              "position": 2,
              "duration": 0.23958333333333334
            },
            {
              "pitch": 48,
              "velocity": 42,
              "position": 2.2604166666666665,
              "duration": 0.21875
            },
            {
              "pitch": 55,
              "velocity": 42,
              "position": 2.2604166666666665,
              "duration": 0.21875
            },
            {
              "pitch": 55,
              "velocity": 70,
              "position": 2.5,
              "duration": 0.07291666666666667
            },
            {
              "pitch": 60,
              "velocity": 70,
              "position": 2.5,
              "duration": 0.07291666666666667
            },
            {
              "pitch": 48,
              "velocity": 68,
              "position": 3,
              "duration": 0.23958333333333334
            },
            {
              "pitch": 55,
              "velocity": 68,
              "position": 3,
              "duration": 0.23958333333333334
            },
            {
              "pitch": 55,
              "velocity": 53,
              "position": 3.2604166666666665,
              "duration": 0.07291666666666667
            },
            {
              "pitch": 60,
              "velocity": 53,
              "position": 3.2604166666666665,
              "duration": 0.07291666666666667
            },
            {
              "pitch": 48,
              "velocity": 24,
              "position": 3.5,
              "duration": 0.23958333333333334
            },
            {
              "pitch": 55,
              "velocity": 24,
              "position": 3.5,
              "duration": 0.23958333333333334
            },
            {
              "pitch": 55,
              "velocity": 56,
              "position": 3.7604166666666665,
              "duration": 0.07291666666666667
            },
            {
              "pitch": 60,
              "velocity": 56,
              "position": 3.7604166666666665,
              "duration": 0.07291666666666667
            },
            {
              "pitch": 48,
              "velocity": 91,
              "position": 4,
              "duration": 0.23958333333333334
            },
            {
              "pitch": 55,
              "velocity": 91,
              "position": 4,
              "duration": 0.23958333333333334
            },
            {
              "pitch": 48,
              "velocity": 41,
              "position": 4.260416666666667,
              "duration": 0.21875
            },
            {
              "pitch": 55,
              "velocity": 41,
              "position": 4.260416666666667,
              "duration": 0.21875
            },
            {
              "pitch": 55,
              "velocity": 65,
              "position": 4.5,
              "duration": 0.07291666666666667
            },
            {
              "pitch": 60,
              "velocity": 65,
              "position": 4.5,
              "duration": 0.07291666666666667
            },
            {
              "pitch": 48,
              "velocity": 84,
              "position": 5,
              "duration": 0.23958333333333334
            },
            {
              "pitch": 55,
              "velocity": 84,
              "position": 5,
              "duration": 0.23958333333333334
            },
            {
              "pitch": 48,
              "velocity": 65,
              "position": 5.260416666666667,
              "duration": 0.07291666666666667
            },
            {
              "pitch": 55,
              "velocity": 65,
              "position": 5.260416666666667,
              "duration": 0.07291666666666667
            },
            {
              "pitch": 48,
              "velocity": 91,
              "position": 6,
              "duration": 0.23958333333333334
            },
            {
              "pitch": 55,
              "velocity": 91,
              "position": 6,
              "duration": 0.23958333333333334
            },
            {
              "pitch": 48,
              "velocity": 42,
              "position": 6.260416666666667,
              "duration": 0.21875
            },
            {
              "pitch": 55,
              "velocity": 42,
              "position": 6.260416666666667,
              "duration": 0.21875
            },
            {
              "pitch": 55,
              "velocity": 70,
              "position": 6.5,
              "duration": 0.07291666666666667
            },
            {
              "pitch": 60,
              "velocity": 70,
              "position": 6.5,
              "duration": 0.07291666666666667
            },
            {
              "pitch": 48,
              "velocity": 68,
              "position": 7,
              "duration": 0.23958333333333334
            },
            {
              "pitch": 55,
              "velocity": 68,
              "position": 7,
              "duration": 0.23958333333333334
            },
            {
              "pitch": 55,
              "velocity": 53,
              "position": 7.260416666666667,
              "duration": 0.07291666666666667
            },
            {
              "pitch": 60,
              "velocity": 53,
              "position": 7.260416666666667,
              "duration": 0.07291666666666667
            },
            {
              "pitch": 48,
              "velocity": 24,
              "position": 7.5,
              "duration": 0.23958333333333334
            },
            {
              "pitch": 55,
              "velocity": 24,
              "position": 7.5,
              "duration": 0.23958333333333334
            },
            {
              "pitch": 55,
              "velocity": 56,
              "position": 7.760416666666667,
              "duration": 0.07291666666666667
            },
            {
              "pitch": 60,
              "velocity": 56,
              "position": 7.760416666666667,
              "duration": 0.07291666666666667
            },
            {
              "pitch": 48,
              "velocity": 91,
              "position": 8,
              "duration": 0.23958333333333334
            },
            {
              "pitch": 55,
              "velocity": 91,
              "position": 8,
              "duration": 0.23958333333333334
            },
            {
              "pitch": 48,
              "velocity": 41,
              "position": 8.260416666666666,
              "duration": 0.21875
            },
            {
              "pitch": 55,
              "velocity": 41,
              "position": 8.260416666666666,
              "duration": 0.21875
            },
            {
              "pitch": 55,
              "velocity": 65,
              "position": 8.5,
              "duration": 0.07291666666666667
            },
            {
              "pitch": 60,
              "velocity": 65,
              "position": 8.5,
              "duration": 0.07291666666666667
            },
            {
              "pitch": 48,
              "velocity": 84,
              "position": 9,
              "duration": 0.23958333333333334
            },
            {
              "pitch": 55,
              "velocity": 84,
              "position": 9,
              "duration": 0.23958333333333334
            },
            {
              "pitch": 48,
              "velocity": 65,
              "position": 9.260416666666666,
              "duration": 0.07291666666666667
            },
            {
              "pitch": 55,
              "velocity": 65,
              "position": 9.260416666666666,
              "duration": 0.07291666666666667
            },
            {
              "pitch": 48,
              "velocity": 91,
              "position": 10,
              "duration": 0.23958333333333334
            },
            {
              "pitch": 55,
              "velocity": 91,
              "position": 10,
              "duration": 0.23958333333333334
            },
            {
              "pitch": 48,
              "velocity": 42,
              "position": 10.260416666666666,
              "duration": 0.21875
            },
            {
              "pitch": 55,
              "velocity": 42,
              "position": 10.260416666666666,
              "duration": 0.21875
            },
            {
              "pitch": 55,
              "velocity": 70,
              "position": 10.5,
              "duration": 0.07291666666666667
            },
            {
              "pitch": 60,
              "velocity": 70,
              "position": 10.5,
              "duration": 0.07291666666666667
            },
            {
              "pitch": 48,
              "velocity": 68,
              "position": 11,
              "duration": 0.23958333333333334
            },
            {
              "pitch": 55,
              "velocity": 68,
              "position": 11,
              "duration": 0.23958333333333334
            },
            {
              "pitch": 55,
              "velocity": 53,
              "position": 11.260416666666666,
              "duration": 0.07291666666666667
            },
            {
              "pitch": 60,
              "velocity": 53,
              "position": 11.260416666666666,
              "duration": 0.07291666666666667
            },
            {
              "pitch": 48,
              "velocity": 24,
              "position": 11.5,
              "duration": 0.23958333333333334
            },
            {
              "pitch": 55,
              "velocity": 24,
              "position": 11.5,
              "duration": 0.23958333333333334
            },
            {
              "pitch": 55,
              "velocity": 56,
              "position": 11.760416666666666,
              "duration": 0.07291666666666667
            },
            {
              "pitch": 60,
              "velocity": 56,
              "position": 11.760416666666666,
              "duration": 0.07291666666666667
            },
            {
              "pitch": 48,
              "velocity": 91,
              "position": 12,
              "duration": 0.23958333333333334
            },
            {
              "pitch": 55,
              "velocity": 91,
              "position": 12,
              "duration": 0.23958333333333334
            },
            {
              "pitch": 48,
              "velocity": 41,
              "position": 12.260416666666666,
              "duration": 0.21875
            },
            {
              "pitch": 55,
              "velocity": 41,
              "position": 12.260416666666666,
              "duration": 0.21875
            },
            {
              "pitch": 55,
              "velocity": 65,
              "position": 12.5,
              "duration": 0.07291666666666667
            },
            {
              "pitch": 60,
              "velocity": 65,
              "position": 12.5,
              "duration": 0.07291666666666667
            },
            {
              "pitch": 48,
              "velocity": 84,
              "position": 13,
              "duration": 0.23958333333333334
            },
            {
              "pitch": 55,
              "velocity": 84,
              "position": 13,
              "duration": 0.23958333333333334
            },
            {
              "pitch": 48,
              "velocity": 65,
              "position": 13.260416666666666,
              "duration": 0.07291666666666667
            },
            {
              "pitch": 55,
              "velocity": 65,
              "position": 13.260416666666666,
              "duration": 0.07291666666666667
            },
            {
              "pitch": 48,
              "velocity": 91,
              "position": 14,
              "duration": 0.23958333333333334
            },
            {
              "pitch": 55,
              "velocity": 91,
              "position": 14,
              "duration": 0.23958333333333334
            },
            {
              "pitch": 48,
              "velocity": 42,
              "position": 14.260416666666666,
              "duration": 0.21875
            },
            {
              "pitch": 55,
              "velocity": 42,
              "position": 14.260416666666666,
              "duration": 0.21875
            },
            {
              "pitch": 55,
              "velocity": 70,
              "position": 14.5,
              "duration": 0.07291666666666667
            },
            {
              "pitch": 60,
              "velocity": 70,
              "position": 14.5,
              "duration": 0.07291666666666667
            },
            {
              "pitch": 48,
              "velocity": 68,
              "position": 15,
              "duration": 0.23958333333333334
            },
            {
              "pitch": 55,
              "velocity": 68,
              "position": 15,
              "duration": 0.23958333333333334
            },
            {
              "pitch": 55,
              "velocity": 53,
              "position": 15.260416666666666,
              "duration": 0.07291666666666667
            },
            {
              "pitch": 60,
              "velocity": 53,
              "position": 15.260416666666666,
              "duration": 0.07291666666666667
            },
            {
              "pitch": 48,
              "velocity": 24,
              "position": 15.5,
              "duration": 0.23958333333333334
            },
            {
              "pitch": 55,
              "velocity": 24,
              "position": 15.5,
              "duration": 0.23958333333333334
            },
            {
              "pitch": 55,
              "velocity": 56,
              "position": 15.760416666666666,
              "duration": 0.07291666666666667
            },
            {
              "pitch": 60,
              "velocity": 56,
              "position": 15.760416666666666,
              "duration": 0.07291666666666667
            }
          ]
        }
      }
    },
    "Fill_In_DD": {
      "type": "Fill_In_DD",
      "sizeInBeats": 4,
      "channels": {
        "0": {
          "ctab": {
            "srcChannel": 0,
            "name": "CC Crash",
            "accType": "RHYTHM",
            "editable": true,
            "mutedNotes": [],
            "mutedChords": [
              "1+2+5",
              "sus4",
              "1+5",
              "1+8",
              "7aug",
              "Maj7aug",
              "7(#9)",
              "7(b13)",
              "7(b9)",
              "7(13)",
              "7#11",
              "7(9)",
              "7b5",
              "7sus4",
              "7th",
              "dim7",
              "dim",
              "minMaj7(9)",
              "minMaj7",
              "min7(11)",
              "min7(9)",
              "min(9)",
              "m7b5",
              "min7",
              "min6",
              "min",
              "aug",
              "Maj6(9)",
              "Maj7(9)",
              "Maj(9)",
              "Maj7#11",
              "Maj7",
              "Maj6",
              "Maj"
            ],
            "autoStart": true,
            "sourceChordNote": 0,
            "sourceChordType": "Maj7",
            "ctb2Low": null,
            "ctb2Main": {
              "ntr": "ROOT_FIXED",
              "ntt": "BYPASS",
              "bassOn": false,
              "chordRootUpperLimit": 6,
              "noteLowLimit": 0,
              "noteHighLimit": 127,
              "rtr": "RETRIGGER"
            },
            "ctb2High": null
          },
          "notes": []
        },
        "3": {
          "ctab": {
            "srcChannel": 3,
            "name": "EP Rt",
            "accType": "CHORD1",
            "editable": false,
            "mutedNotes": [],
            "mutedChords": [
              "1+2+5",
              "sus4",
              "1+5",
              "1+8",
              "Maj7aug",
              "dim",
              "minMaj7(9)",
              "minMaj7",
              "min6",
              "min",
              "aug",
              "Maj7(9)",
              "Maj7#11",
              "Maj7",
              "Maj6",
              "Maj"
            ],
            "autoStart": false,
            "sourceChordNote": 0,
            "sourceChordType": "Maj7",
            "ctb2Low": null,
            "ctb2Main": {
              "ntr": "ROOT_TRANSPOSITION",
              "ntt": "CHORD",
              "bassOn": false,
              "chordRootUpperLimit": 6,
              "noteLowLimit": 0,
              "noteHighLimit": 127,
              "rtr": "PITCH_SHIFT"
            },
            "ctb2High": null
          },
          "notes": [
            {
              "pitch": 60,
              "velocity": 62,
              "position": 0,
              "duration": 0.9791666666666666
            },
            {
              "pitch": 60,
              "velocity": 54,
              "position": 1,
              "duration": 0.9791666666666666
            },
            {
              "pitch": 60,
              "velocity": 63,
              "position": 2,
              "duration": 1.9791666666666667
            }
          ]
        },
        "5": {
          "ctab": {
            "srcChannel": 5,
            "name": "Strng Rt",
            "accType": "PAD",
            "editable": false,
            "mutedNotes": [],
            "mutedChords": [
              "1+2+5",
              "sus4",
              "1+5",
              "1+8",
              "Maj7aug",
              "dim",
              "minMaj7(9)",
              "minMaj7",
              "min6",
              "min",
              "aug",
              "Maj7(9)",
              "Maj7#11",
              "Maj7",
              "Maj6",
              "Maj"
            ],
            "autoStart": false,
            "sourceChordNote": 0,
            "sourceChordType": "Maj7",
            "ctb2Low": null,
            "ctb2Main": {
              "ntr": "ROOT_TRANSPOSITION",
              "ntt": "CHORD",
              "bassOn": false,
              "chordRootUpperLimit": 10,
              "noteLowLimit": 0,
              "noteHighLimit": 127,
              "rtr": "PITCH_SHIFT"
            },
            "ctb2High": null
          },
          "notes": [
            {
              "pitch": 60,
              "velocity": 54,
              "position": 0,
              "duration": 3.9791666666666665
            }
          ]
        },
        "8": {
          "ctab": {
            "srcChannel": 8,
            "name": "RHY 1",
            "accType": "SUBRHYTHM",
            "editable": false,
            "mutedNotes": [],
            "mutedChords": [],
            "autoStart": true,
            "sourceChordNote": 0,
            "sourceChordType": "Maj7",
            "ctb2Low": null,
            "ctb2Main": {
              "ntr": "ROOT_FIXED",
              "ntt": "BYPASS",
              "bassOn": false,
              "chordRootUpperLimit": 6,
              "noteLowLimit": 0,
              "noteHighLimit": 127,
              "rtr": "PITCH_SHIFT"
            },
            "ctb2High": null
          },
          "notes": [
            {
              "pitch": 70,
              "velocity": 26,
              "position": 0.010416666666666666,
              "duration": 0.010416666666666666
            },
            {
              "pitch": 80,
              "velocity": 20,
              "position": 0.010416666666666666,
              "duration": 0.010416666666666666
            },
            {
              "pitch": 70,
              "velocity": 46,
              "position": 0.25,
              "duration": 0.010416666666666666
            },
            {
              "pitch": 80,
              "velocity": 30,
              "position": 0.25,
              "duration": 0.010416666666666666
            },
            {
              "pitch": 70,
              "velocity": 112,
              "position": 0.5,
              "duration": 0.010416666666666666
            },
            {
              "pitch": 81,
              "velocity": 33,
              "position": 0.5,
              "duration": 0.010416666666666666
            },
            {
              "pitch": 70,
              "velocity": 26,
              "position": 0.7604166666666666,
              "duration": 0.010416666666666666
            },
            {
              "pitch": 80,
              "velocity": 20,
              "position": 0.7604166666666666,
              "duration": 0.010416666666666666
            },
            {
              "pitch": 70,
              "velocity": 46,
              "position": 1,
              "duration": 0.010416666666666666
            },
            {
              "pitch": 80,
              "velocity": 30,
              "position": 1,
              "duration": 0.010416666666666666
            },
            {
              "pitch": 70,
              "velocity": 26,
              "position": 1.2604166666666667,
              "duration": 0.010416666666666666
            },
            {
              "pitch": 80,
              "velocity": 20,
              "position": 1.2604166666666667,
              "duration": 0.010416666666666666
            },
            {
              "pitch": 70,
              "velocity": 112,
              "position": 1.5,
              "duration": 0.010416666666666666
            },
            {
              "pitch": 81,
              "velocity": 33,
              "position": 1.5,
              "duration": 0.010416666666666666
            },
            {
              "pitch": 70,
              "velocity": 26,
              "position": 1.7604166666666667,
              "duration": 0.010416666666666666
            },
            {
              "pitch": 80,
              "velocity": 20,
              "position": 1.7604166666666667,
              "duration": 0.010416666666666666
            },
            {
              "pitch": 70,
              "velocity": 67,
              "position": 2,
              "duration": 0.010416666666666666
            },
            {
              "pitch": 80,
              "velocity": 30,
              "position": 2,
              "duration": 0.010416666666666666
            },
            {
              "pitch": 70,
              "velocity": 26,
              "position": 2.2604166666666665,
              "duration": 0.010416666666666666
            },
            {
              "pitch": 80,
              "velocity": 20,
              "position": 2.2604166666666665,
              "duration": 0.010416666666666666
            },
            {
              "pitch": 70,
              "velocity": 111,
              "position": 2.5,
              "duration": 0.010416666666666666
            },
            {
              "pitch": 81,
              "velocity": 33,
              "position": 2.5,
              "duration": 0.010416666666666666
            },
            {
              "pitch": 70,
              "velocity": 26,
              "position": 2.7604166666666665,
              "duration": 0.010416666666666666
            },
            {
              "pitch": 80,
              "velocity": 20,
              "position": 2.7604166666666665,
              "duration": 0.010416666666666666
            },
            {
              "pitch": 70,
              "velocity": 63,
              "position": 3,
              "duration": 0.010416666666666666
            },
            {
              "pitch": 80,
              "velocity": 30,
              "position": 3,
              "duration": 0.010416666666666666
            },
            {
              "pitch": 70,
              "velocity": 26,
              "position": 3.2604166666666665,
              "duration": 0.010416666666666666
            },
            {
              "pitch": 80,
              "velocity": 20,
              "position": 3.2604166666666665,
              "duration": 0.010416666666666666
            },
            {
              "pitch": 70,
              "velocity": 116,
              "position": 3.5,
              "duration": 0.010416666666666666
            },
            {
              "pitch": 81,
              "velocity": 33,
              "position": 3.5,
              "duration": 0.010416666666666666
            },
            {
              "pitch": 70,
              "velocity": 26,
              "position": 3.7604166666666665,
              "duration": 0.010416666666666666
            },
            {
              "pitch": 80,
              "velocity": 20,
              "position": 3.7604166666666665,
              "duration": 0.010416666666666666
            }
          ]
        },
        "9": {
          "ctab": {
            "srcChannel": 9,
            "name": "RHY 2",
            "accType": "RHYTHM",
            "editable": false,
            "mutedNotes": [],
            "mutedChords": [],
            "autoStart": true,
            "sourceChordNote": 0,
            "sourceChordType": "Maj7",
            "ctb2Low": null,
            "ctb2Main": {
              "ntr": "ROOT_FIXED",
              "ntt": "BYPASS",
              "bassOn": false,
              "chordRootUpperLimit": 6,
              "noteLowLimit": 0,
              "noteHighLimit": 127,
              "rtr": "PITCH_SHIFT"
            },
            "ctb2High": null
          },
          "notes": [
            {
              "pitch": 35,
              "velocity": 94,
              "position": 0,
              "duration": 0.010416666666666666
            },
            {
              "pitch": 42,
              "velocity": 113,
              "position": 0,
              "duration": 0.010416666666666666
            },
            {
              "pitch": 42,
              "velocity": 26,
              "position": 0.2604166666666667,
              "duration": 0.010416666666666666
            },
            {
              "pitch": 42,
              "velocity": 43,
              "position": 0.5,
              "duration": 0.010416666666666666
            },
            {
              "pitch": 35,
              "velocity": 45,
              "position": 0.7604166666666666,
              "duration": 0.010416666666666666
            },
            {
              "pitch": 42,
              "velocity": 26,
              "position": 0.7604166666666666,
              "duration": 0.010416666666666666
            },
            {
              "pitch": 40,
              "velocity": 81,
              "position": 1,
              "duration": 0.010416666666666666
            },
            {
              "pitch": 42,
              "velocity": 117,
              "position": 1,
              "duration": 0.010416666666666666
            },
            {
              "pitch": 42,
              "velocity": 26,
              "position": 1.2604166666666667,
              "duration": 0.010416666666666666
            },
            {
              "pitch": 42,
              "velocity": 57,
              "position": 1.5,
              "duration": 0.010416666666666666
            },
            {
              "pitch": 35,
              "velocity": 29,
              "position": 1.7604166666666667,
              "duration": 0.010416666666666666
            },
            {
              "pitch": 42,
              "velocity": 26,
              "position": 1.7604166666666667,
              "duration": 0.010416666666666666
            },
            {
              "pitch": 35,
              "velocity": 90,
              "position": 2,
              "duration": 0.010416666666666666
            },
            {
              "pitch": 42,
              "velocity": 112,
              "position": 2,
              "duration": 0.010416666666666666
            },
            {
              "pitch": 57,
              "velocity": 70,
              "position": 2,
              "duration": 0.010416666666666666
            },
            {
              "pitch": 42,
              "velocity": 63,
              "position": 2.5,
              "duration": 0.010416666666666666
            },
            {
              "pitch": 40,
              "velocity": 81,
              "position": 2.7604166666666665,
              "duration": 0.010416666666666666
            },
            {
              "pitch": 43,
              "velocity": 70,
              "position": 2.7604166666666665,
              "duration": 0.010416666666666666
            },
            {
              "pitch": 45,
              "velocity": 21,
              "position": 3.2395833333333335,
              "duration": 0.010416666666666666
            },
            {
              "pitch": 45,
              "velocity": 70,
              "position": 3.2604166666666665,
              "duration": 0.010416666666666666
            },
            {
              "pitch": 43,
              "velocity": 70,
              "position": 3.5,
              "duration": 0.010416666666666666
            },
            {
              "pitch": 35,
              "velocity": 26,
              "position": 3.7604166666666665,
              "duration": 0.010416666666666666
            },
            {
              "pitch": 41,
              "velocity": 63,
              "position": 3.7604166666666665,
              "duration": 0.010416666666666666
            }
          ]
        },
        "10": {
          "ctab": {
            "srcChannel": 10,
            "name": "Bass",
            "accType": "BASS",
            "editable": false,
            "mutedNotes": [],
            "mutedChords": [],
            "autoStart": false,
            "sourceChordNote": 0,
            "sourceChordType": "Maj7",
            "ctb2Low": null,
            "ctb2Main": {
              "ntr": "ROOT_TRANSPOSITION",
              "ntt": "MELODY",
              "bassOn": true,
              "chordRootUpperLimit": 8,
              "noteLowLimit": 28,
              "noteHighLimit": 127,
              "rtr": "PITCH_SHIFT_TO_ROOT"
            },
            "ctb2High": null
          },
          "notes": [
            {
              "pitch": 24,
              "velocity": 86,
              "position": 0,
              "duration": 0.6041666666666666
            },
            {
              "pitch": 24,
              "velocity": 80,
              "position": 0.7604166666666666,
              "duration": 0.16666666666666666
            },
            {
              "pitch": 24,
              "velocity": 48,
              "position": 1.7604166666666667,
              "duration": 0.21875
            },
            {
              "pitch": 24,
              "velocity": 82,
              "position": 2,
              "duration": 1.4791666666666667
            },
            {
              "pitch": 31,
              "velocity": 84,
              "position": 3.5,
              "duration": 0.23958333333333334
            },
            {
              "pitch": 36,
              "velocity": 60,
              "position": 3.7604166666666665,
              "duration": 0.21875
            }
          ]
        },
        "11": {
          "ctab": {
            "srcChannel": 11,
            "name": "EP",
            "accType": "CHORD1",
            "editable": false,
            "mutedNotes": [],
            "mutedChords": [],
            "autoStart": false,
            "sourceChordNote": 0,
            "sourceChordType": "Maj7",
            "ctb2Low": null,
            "ctb2Main": {
              "ntr": "ROOT_FIXED",
              "ntt": "CHORD",
              "bassOn": false,
              "chordRootUpperLimit": 11,
              "noteLowLimit": 0,
              "noteHighLimit": 127,
              "rtr": "PITCH_SHIFT"
            },
            "ctb2High": null
          },
          "notes": [
            {
              "pitch": 55,
              "velocity": 65,
              "position": 0,
              "duration": 0.9791666666666666
            },
            {
              "pitch": 59,
              "velocity": 65,
              "position": 0,
              "duration": 0.9791666666666666
            },
            {
              "pitch": 64,
              "velocity": 65,
              "position": 0,
              "duration": 0.9791666666666666
            },
            {
              "pitch": 55,
              "velocity": 57,
              "position": 1,
              "duration": 0.9791666666666666
            },
            {
              "pitch": 59,
              "velocity": 57,
              "position": 1,
              "duration": 0.9791666666666666
            },
            {
              "pitch": 64,
              "velocity": 57,
              "position": 1,
              "duration": 0.9791666666666666
            },
            {
              "pitch": 55,
              "velocity": 66,
              "position": 2,
              "duration": 1.9791666666666667
            },
            {
              "pitch": 59,
              "velocity": 66,
              "position": 2,
              "duration": 1.9791666666666667
            },
            {
              "pitch": 64,
              "velocity": 66,
              "position": 2,
              "duration": 1.9791666666666667
            }
          ]
        },
        "12": {
          "ctab": {
            "srcChannel": 12,
            "name": "Guitar",
            "accType": "CHORD2",
            "editable": false,
            "mutedNotes": [],
            "mutedChords": [],
            "autoStart": false,
            "sourceChordNote": 0,
            "sourceChordType": "Maj7",
            "ctb2Low": null,
            "ctb2Main": {
              "ntr": "ROOT_FIXED",
              "ntt": "CHORD",
              "bassOn": false,
              "chordRootUpperLimit": 7,
              "noteLowLimit": 0,
              "noteHighLimit": 127,
              "rtr": "PITCH_SHIFT"
            },
            "ctb2High": null
          },
          "notes": [
            {
              "pitch": 59,
              "velocity": 54,
              "position": 0,
              "duration": 0.7395833333333334
            },
            {
              "pitch": 64,
              "velocity": 54,
              "position": 0,
              "duration": 0.7395833333333334
            },
            {
              "pitch": 67,
              "velocity": 54,
              "position": 0,
              "duration": 0.7395833333333334
            },
            {
              "pitch": 59,
              "velocity": 49,
              "position": 0.7604166666666666,
              "duration": 0.10416666666666667
            },
            {
              "pitch": 64,
              "velocity": 49,
              "position": 0.7604166666666666,
              "duration": 0.10416666666666667
            },
            {
              "pitch": 67,
              "velocity": 49,
              "position": 0.7604166666666666,
              "duration": 0.10416666666666667
            },
            {
              "pitch": 59,
              "velocity": 49,
              "position": 1.5,
              "duration": 2.4791666666666665
            },
            {
              "pitch": 64,
              "velocity": 49,
              "position": 1.5,
              "duration": 2.4791666666666665
            },
            {
              "pitch": 67,
              "velocity": 49,
              "position": 1.5,
              "duration": 2.4791666666666665
            }
          ]
        },
        "13": {
          "ctab": {
            "srcChannel": 13,
            "name": "Strings",
            "accType": "PAD",
            "editable": false,
            "mutedNotes": [],
            "mutedChords": [],
            "autoStart": false,
            "sourceChordNote": 0,
            "sourceChordType": "Maj7",
            "ctb2Low": null,
            "ctb2Main": {
              "ntr": "ROOT_FIXED",
              "ntt": "CHORD",
              "bassOn": false,
              "chordRootUpperLimit": 0,
              "noteLowLimit": 0,
              "noteHighLimit": 127,
              "rtr": "PITCH_SHIFT"
            },
            "ctb2High": null
          },
          "notes": [
            {
              "pitch": 59,
              "velocity": 54,
              "position": 0,
              "duration": 3.9791666666666665
            },
            {
              "pitch": 64,
              "velocity": 54,
              "position": 0,
              "duration": 3.9791666666666665
            },
            {
              "pitch": 67,
              "velocity": 54,
              "position": 0,
              "duration": 3.9791666666666665
            }
          ]
        },
        "14": {
          "ctab": {
            "srcChannel": 14,
            "name": "Mute",
            "accType": "PHRASE1",
            "editable": false,
            "mutedNotes": [],
            "mutedChords": [],
            "autoStart": false,
            "sourceChordNote": 0,
            "sourceChordType": "min7(11)",
            "ctb2Low": null,
            "ctb2Main": {
              "ntr": "ROOT_FIXED",
              "ntt": "CHORD",
              "bassOn": false,
              "chordRootUpperLimit": 6,
              "noteLowLimit": 0,
              "noteHighLimit": 127,
              "rtr": "PITCH_SHIFT"
            },
            "ctb2High": null
          },
          "notes": [
            {
              "pitch": 48,
              "velocity": 91,
              "position": 0,
              "duration": 0.23958333333333334
            },
            {
              "pitch": 55,
              "velocity": 91,
              "position": 0,
              "duration": 0.23958333333333334
            },
            {
              "pitch": 48,
              "velocity": 41,
              "position": 0.2604166666666667,
              "duration": 0.21875
            },
            {
              "pitch": 55,
              "velocity": 41,
              "position": 0.2604166666666667,
              "duration": 0.21875
            },
            {
              "pitch": 55,
              "velocity": 65,
              "position": 0.5,
              "duration": 0.07291666666666667
            },
            {
              "pitch": 60,
              "velocity": 65,
              "position": 0.5,
              "duration": 0.07291666666666667
            },
            {
              "pitch": 48,
              "velocity": 84,
              "position": 1,
              "duration": 0.23958333333333334
            },
            {
              "pitch": 55,
              "velocity": 84,
              "position": 1,
              "duration": 0.23958333333333334
            },
            {
              "pitch": 48,
              "velocity": 65,
              "position": 1.2604166666666667,
              "duration": 0.07291666666666667
            },
            {
              "pitch": 55,
              "velocity": 65,
              "position": 1.2604166666666667,
              "duration": 0.07291666666666667
            },
            {
              "pitch": 48,
              "velocity": 91,
              "position": 2,
              "duration": 0.23958333333333334
            },
            {
              "pitch": 55,
              "velocity": 91,
              "position": 2,
              "duration": 0.23958333333333334
            },
            {
              "pitch": 48,
              "velocity": 42,
              "position": 2.2604166666666665,
              "duration": 0.21875
            },
            {
              "pitch": 55,
              "velocity": 42,
              "position": 2.2604166666666665,
              "duration": 0.21875
            },
            {
              "pitch": 55,
              "velocity": 70,
              "position": 2.5,
              "duration": 0.07291666666666667
            },
            {
              "pitch": 60,
              "velocity": 70,
              "position": 2.5,
              "duration": 0.07291666666666667
            },
            {
              "pitch": 55,
              "velocity": 68,
              "position": 3.2604166666666665,
              "duration": 0.07291666666666667
            },
            {
              "pitch": 60,
              "velocity": 68,
              "position": 3.2604166666666665,
              "duration": 0.07291666666666667
            },
            {
              "pitch": 55,
              "velocity": 83,
              "position": 3.7604166666666665,
              "duration": 0.07291666666666667
            },
            {
              "pitch": 60,
              "velocity": 83,
              "position": 3.7604166666666665,
              "duration": 0.07291666666666667
            }
          ]
        }
      }
    },
    "Ending_A": {
      "type": "Ending_A",
      "sizeInBeats": 4,
      "channels": {
        "0": {
          "ctab": {
            "srcChannel": 0,
            "name": "CC Crash",
            "accType": "RHYTHM",
            "editable": true,
            "mutedNotes": [],
            "mutedChords": [
              "1+2+5",
              "sus4",
              "1+5",
              "1+8",
              "7aug",
              "Maj7aug",
              "7(#9)",
              "7(b13)",
              "7(b9)",
              "7(13)",
              "7#11",
              "7(9)",
              "7b5",
              "7sus4",
              "7th",
              "dim7",
              "dim",
              "minMaj7(9)",
              "minMaj7",
              "min7(11)",
              "min7(9)",
              "min(9)",
              "m7b5",
              "min7",
              "min6",
              "min",
              "aug",
              "Maj6(9)",
              "Maj7(9)",
              "Maj(9)",
              "Maj7#11",
              "Maj7",
              "Maj6",
              "Maj"
            ],
            "autoStart": true,
            "sourceChordNote": 0,
            "sourceChordType": "Maj7",
            "ctb2Low": null,
            "ctb2Main": {
              "ntr": "ROOT_FIXED",
              "ntt": "BYPASS",
              "bassOn": false,
              "chordRootUpperLimit": 6,
              "noteLowLimit": 0,
              "noteHighLimit": 127,
              "rtr": "RETRIGGER"
            },
            "ctb2High": null
          },
          "notes": []
        },
        "3": {
          "ctab": {
            "srcChannel": 3,
            "name": "EP Rt",
            "accType": "CHORD1",
            "editable": false,
            "mutedNotes": [],
            "mutedChords": [
              "1+2+5",
              "sus4",
              "1+5",
              "1+8",
              "Maj7aug",
              "dim",
              "minMaj7(9)",
              "minMaj7",
              "min6",
              "min",
              "aug",
              "Maj7(9)",
              "Maj7#11",
              "Maj7",
              "Maj6",
              "Maj"
            ],
            "autoStart": false,
            "sourceChordNote": 0,
            "sourceChordType": "Maj7",
            "ctb2Low": null,
            "ctb2Main": {
              "ntr": "ROOT_TRANSPOSITION",
              "ntt": "CHORD",
              "bassOn": false,
              "chordRootUpperLimit": 6,
              "noteLowLimit": 0,
              "noteHighLimit": 127,
              "rtr": "PITCH_SHIFT"
            },
            "ctb2High": null
          },
          "notes": [
            {
              "pitch": 60,
              "velocity": 62,
              "position": 0,
              "duration": 2.9895833333333335
            }
          ]
        },
        "5": {
          "ctab": {
            "srcChannel": 5,
            "name": "Strng Rt",
            "accType": "PAD",
            "editable": false,
            "mutedNotes": [],
            "mutedChords": [
              "1+2+5",
              "sus4",
              "1+5",
              "1+8",
              "Maj7aug",
              "dim",
              "minMaj7(9)",
              "minMaj7",
              "min6",
              "min",
              "aug",
              "Maj7(9)",
              "Maj7#11",
              "Maj7",
              "Maj6",
              "Maj"
            ],
            "autoStart": false,
            "sourceChordNote": 0,
            "sourceChordType": "Maj7",
            "ctb2Low": null,
            "ctb2Main": {
              "ntr": "ROOT_TRANSPOSITION",
              "ntt": "CHORD",
              "bassOn": false,
              "chordRootUpperLimit": 10,
              "noteLowLimit": 0,
              "noteHighLimit": 127,
              "rtr": "PITCH_SHIFT"
            },
            "ctb2High": null
          },
          "notes": []
        },
        "8": {
          "ctab": {
            "srcChannel": 8,
            "name": "RHY 1",
            "accType": "SUBRHYTHM",
            "editable": false,
            "mutedNotes": [],
            "mutedChords": [],
            "autoStart": true,
            "sourceChordNote": 0,
            "sourceChordType": "Maj7",
            "ctb2Low": null,
            "ctb2Main": {
              "ntr": "ROOT_FIXED",
              "ntt": "BYPASS",
              "bassOn": false,
              "chordRootUpperLimit": 6,
              "noteLowLimit": 0,
              "noteHighLimit": 127,
              "rtr": "PITCH_SHIFT"
            },
            "ctb2High": null
          },
          "notes": []
        },
        "9": {
          "ctab": {
            "srcChannel": 9,
            "name": "RHY 2",
            "accType": "RHYTHM",
            "editable": false,
            "mutedNotes": [],
            "mutedChords": [],
            "autoStart": true,
            "sourceChordNote": 0,
            "sourceChordType": "Maj7",
            "ctb2Low": null,
            "ctb2Main": {
              "ntr": "ROOT_FIXED",
              "ntt": "BYPASS",
              "bassOn": false,
              "chordRootUpperLimit": 6,
              "noteLowLimit": 0,
              "noteHighLimit": 127,
              "rtr": "PITCH_SHIFT"
            },
            "ctb2High": null
          },
          "notes": [
            {
              "pitch": 35,
              "velocity": 66,
              "position": 0,
              "duration": 0.010416666666666666
            },
            {
              "pitch": 46,
              "velocity": 52,
              "position": 0,
              "duration": 0.010416666666666666
            },
            {
              "pitch": 84,
              "velocity": 33,
              "position": 0,
              "duration": 0.010416666666666666
            }
          ]
        },
        "10": {
          "ctab": {
            "srcChannel": 10,
            "name": "Bass",
            "accType": "BASS",
            "editable": false,
            "mutedNotes": [],
            "mutedChords": [],
            "autoStart": false,
            "sourceChordNote": 0,
            "sourceChordType": "Maj7",
            "ctb2Low": null,
            "ctb2Main": {
              "ntr": "ROOT_TRANSPOSITION",
              "ntt": "MELODY",
              "bassOn": true,
              "chordRootUpperLimit": 8,
              "noteLowLimit": 28,
              "noteHighLimit": 127,
              "rtr": "PITCH_SHIFT_TO_ROOT"
            },
            "ctb2High": null
          },
          "notes": [
            {
              "pitch": 24,
              "velocity": 54,
              "position": 0.010416666666666666,
              "duration": 2.9791666666666665
            }
          ]
        },
        "11": {
          "ctab": {
            "srcChannel": 11,
            "name": "EP",
            "accType": "CHORD1",
            "editable": false,
            "mutedNotes": [],
            "mutedChords": [],
            "autoStart": false,
            "sourceChordNote": 0,
            "sourceChordType": "Maj7",
            "ctb2Low": null,
            "ctb2Main": {
              "ntr": "ROOT_FIXED",
              "ntt": "CHORD",
              "bassOn": false,
              "chordRootUpperLimit": 11,
              "noteLowLimit": 0,
              "noteHighLimit": 127,
              "rtr": "PITCH_SHIFT"
            },
            "ctb2High": null
          },
          "notes": [
            {
              "pitch": 55,
              "velocity": 55,
              "position": 0,
              "duration": 2.9895833333333335
            },
            {
              "pitch": 59,
              "velocity": 65,
              "position": 0,
              "duration": 2.9895833333333335
            },
            {
              "pitch": 64,
              "velocity": 65,
              "position": 0,
              "duration": 2.9895833333333335
            }
          ]
        },
        "12": {
          "ctab": {
            "srcChannel": 12,
            "name": "Guitar",
            "accType": "CHORD2",
            "editable": false,
            "mutedNotes": [],
            "mutedChords": [],
            "autoStart": false,
            "sourceChordNote": 0,
            "sourceChordType": "Maj7",
            "ctb2Low": null,
            "ctb2Main": {
              "ntr": "ROOT_FIXED",
              "ntt": "CHORD",
              "bassOn": false,
              "chordRootUpperLimit": 7,
              "noteLowLimit": 0,
              "noteHighLimit": 127,
              "rtr": "PITCH_SHIFT"
            },
            "ctb2High": null
          },
          "notes": []
        },
        "13": {
          "ctab": {
            "srcChannel": 13,
            "name": "Strings",
            "accType": "PAD",
            "editable": false,
            "mutedNotes": [],
            "mutedChords": [],
            "autoStart": false,
            "sourceChordNote": 0,
            "sourceChordType": "Maj7",
            "ctb2Low": null,
            "ctb2Main": {
              "ntr": "ROOT_FIXED",
              "ntt": "CHORD",
              "bassOn": false,
              "chordRootUpperLimit": 0,
              "noteLowLimit": 0,
              "noteHighLimit": 127,
              "rtr": "PITCH_SHIFT"
            },
            "ctb2High": null
          },
          "notes": []
        },
        "14": {
          "ctab": {
            "srcChannel": 14,
            "name": "Mute",
            "accType": "PHRASE1",
            "editable": false,
            "mutedNotes": [],
            "mutedChords": [],
            "autoStart": false,
            "sourceChordNote": 0,
            "sourceChordType": "min7(11)",
            "ctb2Low": null,
            "ctb2Main": {
              "ntr": "ROOT_FIXED",
              "ntt": "CHORD",
              "bassOn": false,
              "chordRootUpperLimit": 6,
              "noteLowLimit": 0,
              "noteHighLimit": 127,
              "rtr": "PITCH_SHIFT"
            },
            "ctb2High": null
          },
          "notes": []
        }
      }
    },
    "Fill_In_BA": {
      "type": "Fill_In_BA",
      "sizeInBeats": 4,
      "channels": {
        "0": {
          "ctab": {
            "srcChannel": 0,
            "name": "CC Crash",
            "accType": "RHYTHM",
            "editable": true,
            "mutedNotes": [],
            "mutedChords": [
              "1+2+5",
              "sus4",
              "1+5",
              "1+8",
              "7aug",
              "Maj7aug",
              "7(#9)",
              "7(b13)",
              "7(b9)",
              "7(13)",
              "7#11",
              "7(9)",
              "7b5",
              "7sus4",
              "7th",
              "dim7",
              "dim",
              "minMaj7(9)",
              "minMaj7",
              "min7(11)",
              "min7(9)",
              "min(9)",
              "m7b5",
              "min7",
              "min6",
              "min",
              "aug",
              "Maj6(9)",
              "Maj7(9)",
              "Maj(9)",
              "Maj7#11",
              "Maj7",
              "Maj6",
              "Maj"
            ],
            "autoStart": true,
            "sourceChordNote": 0,
            "sourceChordType": "Maj7",
            "ctb2Low": null,
            "ctb2Main": {
              "ntr": "ROOT_FIXED",
              "ntt": "BYPASS",
              "bassOn": false,
              "chordRootUpperLimit": 6,
              "noteLowLimit": 0,
              "noteHighLimit": 127,
              "rtr": "RETRIGGER"
            },
            "ctb2High": null
          },
          "notes": []
        },
        "3": {
          "ctab": {
            "srcChannel": 3,
            "name": "EP Rt",
            "accType": "CHORD1",
            "editable": false,
            "mutedNotes": [],
            "mutedChords": [
              "1+2+5",
              "sus4",
              "1+5",
              "1+8",
              "Maj7aug",
              "dim",
              "minMaj7(9)",
              "minMaj7",
              "min6",
              "min",
              "aug",
              "Maj7(9)",
              "Maj7#11",
              "Maj7",
              "Maj6",
              "Maj"
            ],
            "autoStart": false,
            "sourceChordNote": 0,
            "sourceChordType": "Maj7",
            "ctb2Low": null,
            "ctb2Main": {
              "ntr": "ROOT_TRANSPOSITION",
              "ntt": "CHORD",
              "bassOn": false,
              "chordRootUpperLimit": 6,
              "noteLowLimit": 0,
              "noteHighLimit": 127,
              "rtr": "PITCH_SHIFT"
            },
            "ctb2High": null
          },
          "notes": [
            {
              "pitch": 60,
              "velocity": 62,
              "position": 0,
              "duration": 0.9791666666666666
            }
          ]
        },
        "5": {
          "ctab": {
            "srcChannel": 5,
            "name": "Strng Rt",
            "accType": "PAD",
            "editable": false,
            "mutedNotes": [],
            "mutedChords": [
              "1+2+5",
              "sus4",
              "1+5",
              "1+8",
              "Maj7aug",
              "dim",
              "minMaj7(9)",
              "minMaj7",
              "min6",
              "min",
              "aug",
              "Maj7(9)",
              "Maj7#11",
              "Maj7",
              "Maj6",
              "Maj"
            ],
            "autoStart": false,
            "sourceChordNote": 0,
            "sourceChordType": "Maj7",
            "ctb2Low": null,
            "ctb2Main": {
              "ntr": "ROOT_TRANSPOSITION",
              "ntt": "CHORD",
              "bassOn": false,
              "chordRootUpperLimit": 10,
              "noteLowLimit": 0,
              "noteHighLimit": 127,
              "rtr": "PITCH_SHIFT"
            },
            "ctb2High": null
          },
          "notes": [
            {
              "pitch": 60,
              "velocity": 45,
              "position": 0,
              "duration": 0.9895833333333334
            }
          ]
        },
        "8": {
          "ctab": {
            "srcChannel": 8,
            "name": "RHY 1",
            "accType": "SUBRHYTHM",
            "editable": false,
            "mutedNotes": [],
            "mutedChords": [],
            "autoStart": true,
            "sourceChordNote": 0,
            "sourceChordType": "Maj7",
            "ctb2Low": null,
            "ctb2Main": {
              "ntr": "ROOT_FIXED",
              "ntt": "BYPASS",
              "bassOn": false,
              "chordRootUpperLimit": 6,
              "noteLowLimit": 0,
              "noteHighLimit": 127,
              "rtr": "PITCH_SHIFT"
            },
            "ctb2High": null
          },
          "notes": []
        },
        "9": {
          "ctab": {
            "srcChannel": 9,
            "name": "RHY 2",
            "accType": "RHYTHM",
            "editable": false,
            "mutedNotes": [],
            "mutedChords": [],
            "autoStart": true,
            "sourceChordNote": 0,
            "sourceChordType": "Maj7",
            "ctb2Low": null,
            "ctb2Main": {
              "ntr": "ROOT_FIXED",
              "ntt": "BYPASS",
              "bassOn": false,
              "chordRootUpperLimit": 6,
              "noteLowLimit": 0,
              "noteHighLimit": 127,
              "rtr": "PITCH_SHIFT"
            },
            "ctb2High": null
          },
          "notes": [
            {
              "pitch": 35,
              "velocity": 93,
              "position": 0,
              "duration": 0.010416666666666666
            },
            {
              "pitch": 42,
              "velocity": 59,
              "position": 0,
              "duration": 0.010416666666666666
            },
            {
              "pitch": 42,
              "velocity": 26,
              "position": 0.2604166666666667,
              "duration": 0.010416666666666666
            },
            {
              "pitch": 42,
              "velocity": 26,
              "position": 0.5,
              "duration": 0.010416666666666666
            },
            {
              "pitch": 40,
              "velocity": 16,
              "position": 0.7604166666666666,
              "duration": 0.010416666666666666
            },
            {
              "pitch": 42,
              "velocity": 26,
              "position": 0.7604166666666666,
              "duration": 0.010416666666666666
            },
            {
              "pitch": 40,
              "velocity": 81,
              "position": 1,
              "duration": 0.010416666666666666
            },
            {
              "pitch": 42,
              "velocity": 68,
              "position": 2,
              "duration": 0.010416666666666666
            },
            {
              "pitch": 43,
              "velocity": 63,
              "position": 2.7604166666666665,
              "duration": 0.010416666666666666
            },
            {
              "pitch": 42,
              "velocity": 95,
              "position": 3,
              "duration": 0.010416666666666666
            },
            {
              "pitch": 43,
              "velocity": 70,
              "position": 3,
              "duration": 0.010416666666666666
            },
            {
              "pitch": 46,
              "velocity": 54,
              "position": 3.5,
              "duration": 0.010416666666666666
            },
            {
              "pitch": 35,
              "velocity": 52,
              "position": 3.7604166666666665,
              "duration": 0.010416666666666666
            },
            {
              "pitch": 57,
              "velocity": 53,
              "position": 3.9895833333333335,
              "duration": 0.010416666666666666
            }
          ]
        },
        "10": {
          "ctab": {
            "srcChannel": 10,
            "name": "Bass",
            "accType": "BASS",
            "editable": false,
            "mutedNotes": [],
            "mutedChords": [],
            "autoStart": false,
            "sourceChordNote": 0,
            "sourceChordType": "Maj7",
            "ctb2Low": null,
            "ctb2Main": {
              "ntr": "ROOT_TRANSPOSITION",
              "ntt": "MELODY",
              "bassOn": true,
              "chordRootUpperLimit": 8,
              "noteLowLimit": 28,
              "noteHighLimit": 127,
              "rtr": "PITCH_SHIFT_TO_ROOT"
            },
            "ctb2High": null
          },
          "notes": [
            {
              "pitch": 24,
              "velocity": 87,
              "position": 0,
              "duration": 0.7395833333333334
            },
            {
              "pitch": 24,
              "velocity": 94,
              "position": 0.7604166666666666,
              "duration": 0.21875
            },
            {
              "pitch": 31,
              "velocity": 84,
              "position": 3.7604166666666665,
              "duration": 0.21875
            }
          ]
        },
        "11": {
          "ctab": {
            "srcChannel": 11,
            "name": "EP",
            "accType": "CHORD1",
            "editable": false,
            "mutedNotes": [],
            "mutedChords": [],
            "autoStart": false,
            "sourceChordNote": 0,
            "sourceChordType": "Maj7",
            "ctb2Low": null,
            "ctb2Main": {
              "ntr": "ROOT_FIXED",
              "ntt": "CHORD",
              "bassOn": false,
              "chordRootUpperLimit": 11,
              "noteLowLimit": 0,
              "noteHighLimit": 127,
              "rtr": "PITCH_SHIFT"
            },
            "ctb2High": null
          },
          "notes": [
            {
              "pitch": 55,
              "velocity": 66,
              "position": 0,
              "duration": 0.4791666666666667
            },
            {
              "pitch": 55,
              "velocity": 52,
              "position": 0.5,
              "duration": 0.4791666666666667
            },
            {
              "pitch": 59,
              "velocity": 65,
              "position": 0,
              "duration": 0.9791666666666666
            },
            {
              "pitch": 64,
              "velocity": 65,
              "position": 0,
              "duration": 0.9791666666666666
            }
          ]
        },
        "12": {
          "ctab": {
            "srcChannel": 12,
            "name": "Guitar",
            "accType": "CHORD2",
            "editable": false,
            "mutedNotes": [],
            "mutedChords": [],
            "autoStart": false,
            "sourceChordNote": 0,
            "sourceChordType": "Maj7",
            "ctb2Low": null,
            "ctb2Main": {
              "ntr": "ROOT_FIXED",
              "ntt": "CHORD",
              "bassOn": false,
              "chordRootUpperLimit": 7,
              "noteLowLimit": 0,
              "noteHighLimit": 127,
              "rtr": "PITCH_SHIFT"
            },
            "ctb2High": null
          },
          "notes": [
            {
              "pitch": 59,
              "velocity": 51,
              "position": 0,
              "duration": 0.9791666666666666
            },
            {
              "pitch": 64,
              "velocity": 51,
              "position": 0,
              "duration": 0.9791666666666666
            },
            {
              "pitch": 67,
              "velocity": 51,
              "position": 0,
              "duration": 0.9791666666666666
            },
            {
              "pitch": 59,
              "velocity": 57,
              "position": 1,
              "duration": 0.10416666666666667
            },
            {
              "pitch": 64,
              "velocity": 57,
              "position": 1,
              "duration": 0.10416666666666667
            },
            {
              "pitch": 67,
              "velocity": 57,
              "position": 1,
              "duration": 0.10416666666666667
            }
          ]
        },
        "13": {
          "ctab": {
            "srcChannel": 13,
            "name": "Strings",
            "accType": "PAD",
            "editable": false,
            "mutedNotes": [],
            "mutedChords": [],
            "autoStart": false,
            "sourceChordNote": 0,
            "sourceChordType": "Maj7",
            "ctb2Low": null,
            "ctb2Main": {
              "ntr": "ROOT_FIXED",
              "ntt": "CHORD",
              "bassOn": false,
              "chordRootUpperLimit": 0,
              "noteLowLimit": 0,
              "noteHighLimit": 127,
              "rtr": "PITCH_SHIFT"
            },
            "ctb2High": null
          },
          "notes": [
            {
              "pitch": 59,
              "velocity": 45,
              "position": 0,
              "duration": 0.9895833333333334
            },
            {
              "pitch": 64,
              "velocity": 45,
              "position": 0,
              "duration": 0.9895833333333334
            },
            {
              "pitch": 67,
              "velocity": 45,
              "position": 0,
              "duration": 0.9895833333333334
            }
          ]
        },
        "14": {
          "ctab": {
            "srcChannel": 14,
            "name": "Mute",
            "accType": "PHRASE1",
            "editable": false,
            "mutedNotes": [],
            "mutedChords": [],
            "autoStart": false,
            "sourceChordNote": 0,
            "sourceChordType": "min7(11)",
            "ctb2Low": null,
            "ctb2Main": {
              "ntr": "ROOT_FIXED",
              "ntt": "CHORD",
              "bassOn": false,
              "chordRootUpperLimit": 6,
              "noteLowLimit": 0,
              "noteHighLimit": 127,
              "rtr": "PITCH_SHIFT"
            },
            "ctb2High": null
          },
          "notes": [
            {
              "pitch": 55,
              "velocity": 69,
              "position": 0.5,
              "duration": 0.23958333333333334
            },
            {
              "pitch": 60,
              "velocity": 69,
              "position": 0.5,
              "duration": 0.23958333333333334
            },
            {
              "pitch": 55,
              "velocity": 30,
              "position": 0.7604166666666666,
              "duration": 0.052083333333333336
            },
            {
              "pitch": 60,
              "velocity": 30,
              "position": 0.7604166666666666,
              "duration": 0.052083333333333336
            }
          ]
        }
      }
    },
    "Intro_B": {
      "type": "Intro_B",
      "sizeInBeats": 8,
      "channels": {
        "2": {
          "ctab": {
            "srcChannel": 2,
            "name": "Bass m",
            "accType": "BASS",
            "editable": false,
            "mutedNotes": [],
            "mutedChords": [
              "1+2+5",
              "sus4",
              "1+5",
              "1+8",
              "7aug",
              "Maj7aug",
              "7(#9)",
              "7(b13)",
              "7(b9)",
              "7(13)",
              "7#11",
              "7(9)",
              "7b5",
              "7sus4",
              "7th",
              "aug",
              "Maj6(9)",
              "Maj7(9)",
              "Maj(9)",
              "Maj7#11",
              "Maj7",
              "Maj6",
              "Maj"
            ],
            "autoStart": false,
            "sourceChordNote": 0,
            "sourceChordType": "min",
            "ctb2Low": null,
            "ctb2Main": {
              "ntr": "ROOT_TRANSPOSITION",
              "ntt": "BYPASS",
              "bassOn": false,
              "chordRootUpperLimit": 3,
              "noteLowLimit": 28,
              "noteHighLimit": 127,
              "rtr": "PITCH_SHIFT"
            },
            "ctb2High": null
          },
          "notes": [
            {
              "pitch": 36,
              "velocity": 76,
              "position": 0,
              "duration": 0.96875
            },
            {
              "pitch": 38,
              "velocity": 70,
              "position": 1,
              "duration": 0.4791666666666667
            },
            {
              "pitch": 39,
              "velocity": 55,
              "position": 1.5,
              "duration": 0.23958333333333334
            },
            {
              "pitch": 41,
              "velocity": 76,
              "position": 1.7604166666666667,
              "duration": 1.21875
            },
            {
              "pitch": 31,
              "velocity": 74,
              "position": 3,
              "duration": 0.9791666666666666
            },
            {
              "pitch": 36,
              "velocity": 70,
              "position": 4,
              "duration": 1.6979166666666667
            },
            {
              "pitch": 36,
              "velocity": 74,
              "position": 5.760416666666667,
              "duration": 0.21875
            },
            {
              "pitch": 31,
              "velocity": 63,
              "position": 6,
              "duration": 0.9791666666666666
            },
            {
              "pitch": 43,
              "velocity": 68,
              "position": 7,
              "duration": 0.9791666666666666
            }
          ]
        },
        "3": {
          "ctab": {
            "srcChannel": 3,
            "name": "EP m",
            "accType": "CHORD1",
            "editable": true,
            "mutedNotes": [],
            "mutedChords": [
              "1+2+5",
              "sus4",
              "1+5",
              "1+8",
              "7aug",
              "Maj7aug",
              "7(#9)",
              "7(b13)",
              "7(b9)",
              "7(13)",
              "7#11",
              "7(9)",
              "7b5",
              "7sus4",
              "7th",
              "aug",
              "Maj6(9)",
              "Maj7(9)",
              "Maj(9)",
              "Maj7#11",
              "Maj7",
              "Maj6",
              "Maj"
            ],
            "autoStart": false,
            "sourceChordNote": 0,
            "sourceChordType": "min",
            "ctb2Low": null,
            "ctb2Main": {
              "ntr": "ROOT_TRANSPOSITION",
              "ntt": "BYPASS",
              "bassOn": false,
              "chordRootUpperLimit": 3,
              "noteLowLimit": 0,
              "noteHighLimit": 79,
              "rtr": "PITCH_SHIFT"
            },
            "ctb2High": null
          },
          "notes": [
            {
              "pitch": 75,
              "velocity": 82,
              "position": 0,
              "duration": 0.6041666666666666
            },
            {
              "pitch": 74,
              "velocity": 60,
              "position": 0.5,
              "duration": 0.25
            },
            {
              "pitch": 48,
              "velocity": 49,
              "position": 0,
              "duration": 0.9895833333333334
            },
            {
              "pitch": 67,
              "velocity": 48,
              "position": 0,
              "duration": 0.9895833333333334
            },
            {
              "pitch": 75,
              "velocity": 64,
              "position": 0.7604166666666666,
              "duration": 0.3645833333333333
            },
            {
              "pitch": 50,
              "velocity": 51,
              "position": 1,
              "duration": 0.4895833333333333
            },
            {
              "pitch": 68,
              "velocity": 64,
              "position": 1,
              "duration": 0.4895833333333333
            },
            {
              "pitch": 77,
              "velocity": 82,
              "position": 1,
              "duration": 0.4895833333333333
            },
            {
              "pitch": 70,
              "velocity": 72,
              "position": 1.5,
              "duration": 0.20833333333333334
            },
            {
              "pitch": 51,
              "velocity": 51,
              "position": 1.5,
              "duration": 0.2604166666666667
            },
            {
              "pitch": 79,
              "velocity": 82,
              "position": 1.5,
              "duration": 0.2604166666666667
            },
            {
              "pitch": 72,
              "velocity": 61,
              "position": 1.7604166666666667,
              "duration": 1.1041666666666667
            },
            {
              "pitch": 80,
              "velocity": 82,
              "position": 1.7604166666666667,
              "duration": 1.1041666666666667
            },
            {
              "pitch": 53,
              "velocity": 61,
              "position": 1.7604166666666667,
              "duration": 1.2395833333333333
            },
            {
              "pitch": 79,
              "velocity": 82,
              "position": 3,
              "duration": 0.3645833333333333
            },
            {
              "pitch": 43,
              "velocity": 60,
              "position": 3,
              "duration": 0.9895833333333334
            },
            {
              "pitch": 68,
              "velocity": 36,
              "position": 3,
              "duration": 0.9895833333333334
            },
            {
              "pitch": 77,
              "velocity": 81,
              "position": 3.2604166666666665,
              "duration": 0.7395833333333334
            },
            {
              "pitch": 67,
              "velocity": 45,
              "position": 4,
              "duration": 1.25
            },
            {
              "pitch": 75,
              "velocity": 66,
              "position": 4,
              "duration": 1.4895833333333333
            },
            {
              "pitch": 48,
              "velocity": 58,
              "position": 4,
              "duration": 1.875
            },
            {
              "pitch": 75,
              "velocity": 66,
              "position": 5.5,
              "duration": 0.4895833333333333
            },
            {
              "pitch": 43,
              "velocity": 41,
              "position": 6,
              "duration": 1.9895833333333333
            },
            {
              "pitch": 74,
              "velocity": 62,
              "position": 6,
              "duration": 1.9895833333333333
            }
          ]
        },
        "4": {
          "ctab": {
            "srcChannel": 4,
            "name": "Gut m",
            "accType": "CHORD2",
            "editable": true,
            "mutedNotes": [],
            "mutedChords": [
              "1+2+5",
              "sus4",
              "1+5",
              "1+8",
              "7aug",
              "Maj7aug",
              "7(#9)",
              "7(b13)",
              "7(b9)",
              "7(13)",
              "7#11",
              "7(9)",
              "7b5",
              "7sus4",
              "7th",
              "aug",
              "Maj6(9)",
              "Maj7(9)",
              "Maj(9)",
              "Maj7#11",
              "Maj7",
              "Maj6",
              "Maj"
            ],
            "autoStart": false,
            "sourceChordNote": 0,
            "sourceChordType": "min",
            "ctb2Low": null,
            "ctb2Main": {
              "ntr": "ROOT_TRANSPOSITION",
              "ntt": "BYPASS",
              "bassOn": false,
              "chordRootUpperLimit": 5,
              "noteLowLimit": 0,
              "noteHighLimit": 127,
              "rtr": "PITCH_SHIFT"
            },
            "ctb2High": null
          },
          "notes": [
            {
              "pitch": 55,
              "velocity": 50,
              "position": 0.2604166666666667,
              "duration": 0.23958333333333334
            },
            {
              "pitch": 63,
              "velocity": 51,
              "position": 0,
              "duration": 0.75
            },
            {
              "pitch": 58,
              "velocity": 60,
              "position": 0.5,
              "duration": 0.4895833333333333
            },
            {
              "pitch": 63,
              "velocity": 56,
              "position": 0.7604166666666666,
              "duration": 0.23958333333333334
            },
            {
              "pitch": 60,
              "velocity": 51,
              "position": 1.2604166666666667,
              "duration": 0.3020833333333333
            },
            {
              "pitch": 65,
              "velocity": 49,
              "position": 1,
              "duration": 0.75
            },
            {
              "pitch": 63,
              "velocity": 53,
              "position": 1.5,
              "duration": 0.4895833333333333
            },
            {
              "pitch": 68,
              "velocity": 62,
              "position": 1.7604166666666667,
              "duration": 0.9895833333333334
            },
            {
              "pitch": 60,
              "velocity": 45,
              "position": 2.5,
              "duration": 0.4895833333333333
            },
            {
              "pitch": 68,
              "velocity": 55,
              "position": 2.7604166666666665,
              "duration": 0.23958333333333334
            },
            {
              "pitch": 56,
              "velocity": 57,
              "position": 2.2604166666666665,
              "duration": 0.7395833333333334
            },
            {
              "pitch": 67,
              "velocity": 56,
              "position": 3,
              "duration": 0.25
            },
            {
              "pitch": 65,
              "velocity": 56,
              "position": 3.25,
              "duration": 0.5
            },
            {
              "pitch": 53,
              "velocity": 43,
              "position": 3.25,
              "duration": 0.7395833333333334
            },
            {
              "pitch": 59,
              "velocity": 51,
              "position": 3.5,
              "duration": 0.4895833333333333
            },
            {
              "pitch": 65,
              "velocity": 38,
              "position": 3.7604166666666665,
              "duration": 0.23958333333333334
            },
            {
              "pitch": 63,
              "velocity": 57,
              "position": 4,
              "duration": 1.25
            },
            {
              "pitch": 63,
              "velocity": 51,
              "position": 5.260416666666667,
              "duration": 0.6770833333333334
            },
            {
              "pitch": 55,
              "velocity": 48,
              "position": 4.5,
              "duration": 1.4895833333333333
            },
            {
              "pitch": 62,
              "velocity": 31,
              "position": 4.760416666666667,
              "duration": 1.2291666666666667
            },
            {
              "pitch": 55,
              "velocity": 56,
              "position": 6,
              "duration": 1.9791666666666667
            },
            {
              "pitch": 59,
              "velocity": 41,
              "position": 6,
              "duration": 1.9791666666666667
            },
            {
              "pitch": 62,
              "velocity": 48,
              "position": 6,
              "duration": 1.9791666666666667
            }
          ]
        },
        "8": {
          "ctab": {
            "srcChannel": 8,
            "name": "RHY 1",
            "accType": "SUBRHYTHM",
            "editable": false,
            "mutedNotes": [],
            "mutedChords": [],
            "autoStart": true,
            "sourceChordNote": 0,
            "sourceChordType": "Maj7",
            "ctb2Low": null,
            "ctb2Main": {
              "ntr": "ROOT_FIXED",
              "ntt": "BYPASS",
              "bassOn": false,
              "chordRootUpperLimit": 6,
              "noteLowLimit": 0,
              "noteHighLimit": 127,
              "rtr": "PITCH_SHIFT"
            },
            "ctb2High": null
          },
          "notes": [
            {
              "pitch": 54,
              "velocity": 47,
              "position": 3,
              "duration": 0.010416666666666666
            },
            {
              "pitch": 54,
              "velocity": 47,
              "position": 7,
              "duration": 0.010416666666666666
            }
          ]
        },
        "9": {
          "ctab": {
            "srcChannel": 9,
            "name": "RHY 2",
            "accType": "RHYTHM",
            "editable": false,
            "mutedNotes": [],
            "mutedChords": [],
            "autoStart": true,
            "sourceChordNote": 0,
            "sourceChordType": "Maj7",
            "ctb2Low": null,
            "ctb2Main": {
              "ntr": "ROOT_FIXED",
              "ntt": "BYPASS",
              "bassOn": false,
              "chordRootUpperLimit": 6,
              "noteLowLimit": 0,
              "noteHighLimit": 127,
              "rtr": "PITCH_SHIFT"
            },
            "ctb2High": null
          },
          "notes": [
            {
              "pitch": 35,
              "velocity": 71,
              "position": 0,
              "duration": 0.010416666666666666
            },
            {
              "pitch": 42,
              "velocity": 64,
              "position": 0,
              "duration": 0.010416666666666666
            },
            {
              "pitch": 42,
              "velocity": 26,
              "position": 0.5,
              "duration": 0.010416666666666666
            },
            {
              "pitch": 35,
              "velocity": 18,
              "position": 0.7604166666666666,
              "duration": 0.010416666666666666
            },
            {
              "pitch": 37,
              "velocity": 69,
              "position": 1,
              "duration": 0.010416666666666666
            },
            {
              "pitch": 42,
              "velocity": 79,
              "position": 1,
              "duration": 0.010416666666666666
            },
            {
              "pitch": 35,
              "velocity": 17,
              "position": 1.5,
              "duration": 0.010416666666666666
            },
            {
              "pitch": 42,
              "velocity": 26,
              "position": 1.5,
              "duration": 0.010416666666666666
            },
            {
              "pitch": 35,
              "velocity": 67,
              "position": 2,
              "duration": 0.010416666666666666
            },
            {
              "pitch": 42,
              "velocity": 70,
              "position": 2,
              "duration": 0.010416666666666666
            },
            {
              "pitch": 42,
              "velocity": 26,
              "position": 2.5,
              "duration": 0.010416666666666666
            },
            {
              "pitch": 37,
              "velocity": 69,
              "position": 3,
              "duration": 0.010416666666666666
            },
            {
              "pitch": 42,
              "velocity": 80,
              "position": 3,
              "duration": 0.010416666666666666
            },
            {
              "pitch": 42,
              "velocity": 26,
              "position": 3.5,
              "duration": 0.010416666666666666
            },
            {
              "pitch": 35,
              "velocity": 93,
              "position": 4,
              "duration": 0.010416666666666666
            },
            {
              "pitch": 42,
              "velocity": 69,
              "position": 4,
              "duration": 0.010416666666666666
            },
            {
              "pitch": 84,
              "velocity": 33,
              "position": 4,
              "duration": 0.010416666666666666
            },
            {
              "pitch": 42,
              "velocity": 26,
              "position": 4.5,
              "duration": 0.010416666666666666
            },
            {
              "pitch": 37,
              "velocity": 69,
              "position": 5,
              "duration": 0.010416666666666666
            },
            {
              "pitch": 42,
              "velocity": 83,
              "position": 5,
              "duration": 0.010416666666666666
            },
            {
              "pitch": 42,
              "velocity": 26,
              "position": 5.5,
              "duration": 0.010416666666666666
            },
            {
              "pitch": 35,
              "velocity": 17,
              "position": 5.760416666666667,
              "duration": 0.010416666666666666
            },
            {
              "pitch": 35,
              "velocity": 89,
              "position": 6,
              "duration": 0.010416666666666666
            },
            {
              "pitch": 42,
              "velocity": 70,
              "position": 6,
              "duration": 0.010416666666666666
            },
            {
              "pitch": 42,
              "velocity": 26,
              "position": 6.5,
              "duration": 0.010416666666666666
            },
            {
              "pitch": 42,
              "velocity": 26,
              "position": 6.760416666666667,
              "duration": 0.010416666666666666
            },
            {
              "pitch": 43,
              "velocity": 21,
              "position": 6.760416666666667,
              "duration": 0.010416666666666666
            },
            {
              "pitch": 42,
              "velocity": 81,
              "position": 7,
              "duration": 0.010416666666666666
            },
            {
              "pitch": 43,
              "velocity": 70,
              "position": 7,
              "duration": 0.010416666666666666
            },
            {
              "pitch": 41,
              "velocity": 41,
              "position": 7.5,
              "duration": 0.010416666666666666
            },
            {
              "pitch": 46,
              "velocity": 58,
              "position": 7.5,
              "duration": 0.010416666666666666
            },
            {
              "pitch": 35,
              "velocity": 17,
              "position": 7.760416666666667,
              "duration": 0.010416666666666666
            }
          ]
        },
        "10": {
          "ctab": {
            "srcChannel": 10,
            "name": "Bass",
            "accType": "BASS",
            "editable": false,
            "mutedNotes": [],
            "mutedChords": [
              "dim7",
              "dim",
              "minMaj7(9)",
              "minMaj7",
              "min7(11)",
              "min7(9)",
              "min(9)",
              "m7b5",
              "min7",
              "min6",
              "min"
            ],
            "autoStart": false,
            "sourceChordNote": 0,
            "sourceChordType": "Maj",
            "ctb2Low": null,
            "ctb2Main": {
              "ntr": "ROOT_TRANSPOSITION",
              "ntt": "BYPASS",
              "bassOn": false,
              "chordRootUpperLimit": 3,
              "noteLowLimit": 28,
              "noteHighLimit": 127,
              "rtr": "PITCH_SHIFT"
            },
            "ctb2High": null
          },
          "notes": [
            {
              "pitch": 38,
              "velocity": 76,
              "position": 0.010416666666666666,
              "duration": 0.96875
            },
            {
              "pitch": 40,
              "velocity": 70,
              "position": 1,
              "duration": 0.7395833333333334
            },
            {
              "pitch": 40,
              "velocity": 55,
              "position": 1.7604166666666667,
              "duration": 0.21875
            },
            {
              "pitch": 41,
              "velocity": 88,
              "position": 2,
              "duration": 0.9791666666666666
            },
            {
              "pitch": 31,
              "velocity": 74,
              "position": 3,
              "duration": 0.9791666666666666
            },
            {
              "pitch": 36,
              "velocity": 70,
              "position": 4,
              "duration": 1.6979166666666667
            },
            {
              "pitch": 36,
              "velocity": 74,
              "position": 5.760416666666667,
              "duration": 0.21875
            },
            {
              "pitch": 31,
              "velocity": 63,
              "position": 6,
              "duration": 0.9791666666666666
            },
            {
              "pitch": 43,
              "velocity": 68,
              "position": 7,
              "duration": 0.9791666666666666
            }
          ]
        },
        "11": {
          "ctab": {
            "srcChannel": 11,
            "name": "EP",
            "accType": "CHORD1",
            "editable": false,
            "mutedNotes": [],
            "mutedChords": [
              "dim7",
              "dim",
              "minMaj7(9)",
              "minMaj7",
              "min7(11)",
              "min7(9)",
              "min(9)",
              "m7b5",
              "min7",
              "min6",
              "min"
            ],
            "autoStart": false,
            "sourceChordNote": 0,
            "sourceChordType": "Maj",
            "ctb2Low": null,
            "ctb2Main": {
              "ntr": "ROOT_TRANSPOSITION",
              "ntt": "BYPASS",
              "bassOn": false,
              "chordRootUpperLimit": 3,
              "noteLowLimit": 0,
              "noteHighLimit": 79,
              "rtr": "PITCH_SHIFT"
            },
            "ctb2High": null
          },
          "notes": [
            {
              "pitch": 77,
              "velocity": 82,
              "position": 0,
              "duration": 0.6041666666666666
            },
            {
              "pitch": 76,
              "velocity": 60,
              "position": 0.5,
              "duration": 0.25
            },
            {
              "pitch": 50,
              "velocity": 49,
              "position": 0,
              "duration": 0.9895833333333334
            },
            {
              "pitch": 69,
              "velocity": 67,
              "position": 0,
              "duration": 0.9895833333333334
            },
            {
              "pitch": 72,
              "velocity": 67,
              "position": 0,
              "duration": 0.9895833333333334
            },
            {
              "pitch": 77,
              "velocity": 64,
              "position": 0.7604166666666666,
              "duration": 0.23958333333333334
            },
            {
              "pitch": 79,
              "velocity": 82,
              "position": 1,
              "duration": 0.5208333333333334
            },
            {
              "pitch": 72,
              "velocity": 81,
              "position": 1.5,
              "duration": 0.1875
            },
            {
              "pitch": 52,
              "velocity": 51,
              "position": 1,
              "duration": 0.75
            },
            {
              "pitch": 71,
              "velocity": 73,
              "position": 1,
              "duration": 0.75
            },
            {
              "pitch": 74,
              "velocity": 57,
              "position": 1,
              "duration": 0.75
            },
            {
              "pitch": 72,
              "velocity": 70,
              "position": 1.7604166666666667,
              "duration": 1.1041666666666667
            },
            {
              "pitch": 77,
              "velocity": 70,
              "position": 1.7604166666666667,
              "duration": 1.1041666666666667
            },
            {
              "pitch": 81,
              "velocity": 82,
              "position": 1.7604166666666667,
              "duration": 1.1041666666666667
            },
            {
              "pitch": 53,
              "velocity": 44,
              "position": 1.7604166666666667,
              "duration": 1.2395833333333333
            },
            {
              "pitch": 79,
              "velocity": 82,
              "position": 3,
              "duration": 0.3645833333333333
            },
            {
              "pitch": 43,
              "velocity": 60,
              "position": 3,
              "duration": 0.9895833333333334
            },
            {
              "pitch": 69,
              "velocity": 75,
              "position": 3,
              "duration": 0.9895833333333334
            },
            {
              "pitch": 77,
              "velocity": 81,
              "position": 3.2604166666666665,
              "duration": 0.7395833333333334
            },
            {
              "pitch": 67,
              "velocity": 71,
              "position": 4,
              "duration": 1.25
            },
            {
              "pitch": 76,
              "velocity": 66,
              "position": 4,
              "duration": 1.4895833333333333
            },
            {
              "pitch": 48,
              "velocity": 58,
              "position": 4,
              "duration": 1.875
            },
            {
              "pitch": 76,
              "velocity": 66,
              "position": 5.5,
              "duration": 0.4895833333333333
            },
            {
              "pitch": 67,
              "velocity": 73,
              "position": 5.260416666666667,
              "duration": 2.7291666666666665
            },
            {
              "pitch": 43,
              "velocity": 41,
              "position": 6,
              "duration": 1.9895833333333333
            },
            {
              "pitch": 74,
              "velocity": 66,
              "position": 6,
              "duration": 1.9895833333333333
            }
          ]
        },
        "12": {
          "ctab": {
            "srcChannel": 12,
            "name": "Guitar",
            "accType": "CHORD2",
            "editable": false,
            "mutedNotes": [],
            "mutedChords": [
              "dim7",
              "dim",
              "minMaj7(9)",
              "minMaj7",
              "min7(11)",
              "min7(9)",
              "min(9)",
              "m7b5",
              "min7",
              "min6",
              "min"
            ],
            "autoStart": false,
            "sourceChordNote": 0,
            "sourceChordType": "Maj",
            "ctb2Low": null,
            "ctb2Main": {
              "ntr": "ROOT_TRANSPOSITION",
              "ntt": "BYPASS",
              "bassOn": false,
              "chordRootUpperLimit": 5,
              "noteLowLimit": 0,
              "noteHighLimit": 127,
              "rtr": "PITCH_SHIFT"
            },
            "ctb2High": null
          },
          "notes": [
            {
              "pitch": 57,
              "velocity": 61,
              "position": 0.2604166666666667,
              "duration": 0.23958333333333334
            },
            {
              "pitch": 65,
              "velocity": 79,
              "position": 0,
              "duration": 0.75
            },
            {
              "pitch": 60,
              "velocity": 71,
              "position": 0.5,
              "duration": 0.4895833333333333
            },
            {
              "pitch": 65,
              "velocity": 67,
              "position": 0.7604166666666666,
              "duration": 0.23958333333333334
            },
            {
              "pitch": 60,
              "velocity": 55,
              "position": 1.2604166666666667,
              "duration": 0.3020833333333333
            },
            {
              "pitch": 67,
              "velocity": 78,
              "position": 1,
              "duration": 0.75
            },
            {
              "pitch": 64,
              "velocity": 57,
              "position": 1.5,
              "duration": 0.4895833333333333
            },
            {
              "pitch": 69,
              "velocity": 73,
              "position": 1.7604166666666667,
              "duration": 0.9895833333333334
            },
            {
              "pitch": 60,
              "velocity": 49,
              "position": 2.5,
              "duration": 0.4895833333333333
            },
            {
              "pitch": 69,
              "velocity": 66,
              "position": 2.7604166666666665,
              "duration": 0.23958333333333334
            },
            {
              "pitch": 57,
              "velocity": 61,
              "position": 2.2604166666666665,
              "duration": 0.7395833333333334
            },
            {
              "pitch": 59,
              "velocity": 59,
              "position": 3,
              "duration": 0.25
            },
            {
              "pitch": 67,
              "velocity": 67,
              "position": 3,
              "duration": 0.25
            },
            {
              "pitch": 57,
              "velocity": 55,
              "position": 3.2604166666666665,
              "duration": 0.3541666666666667
            },
            {
              "pitch": 65,
              "velocity": 67,
              "position": 3.2604166666666665,
              "duration": 0.49583333333333335
            },
            {
              "pitch": 60,
              "velocity": 55,
              "position": 3.5,
              "duration": 0.4895833333333333
            },
            {
              "pitch": 65,
              "velocity": 53,
              "position": 3.7604166666666665,
              "duration": 0.23958333333333334
            },
            {
              "pitch": 64,
              "velocity": 68,
              "position": 4,
              "duration": 1.25
            },
            {
              "pitch": 64,
              "velocity": 62,
              "position": 5.260416666666667,
              "duration": 0.6770833333333334
            },
            {
              "pitch": 55,
              "velocity": 59,
              "position": 4.5,
              "duration": 1.4895833333333333
            },
            {
              "pitch": 62,
              "velocity": 42,
              "position": 4.760416666666667,
              "duration": 1.2291666666666667
            },
            {
              "pitch": 57,
              "velocity": 46,
              "position": 6,
              "duration": 0.25
            },
            {
              "pitch": 55,
              "velocity": 67,
              "position": 6,
              "duration": 1.9895833333333333
            },
            {
              "pitch": 62,
              "velocity": 59,
              "position": 6,
              "duration": 1.9895833333333333
            }
          ]
        }
      }
    },
    "Ending_B": {
      "type": "Ending_B",
      "sizeInBeats": 8,
      "channels": {
        "2": {
          "ctab": {
            "srcChannel": 2,
            "name": "Bass m",
            "accType": "BASS",
            "editable": false,
            "mutedNotes": [],
            "mutedChords": [
              "1+2+5",
              "sus4",
              "1+5",
              "1+8",
              "7aug",
              "Maj7aug",
              "7(#9)",
              "7(b13)",
              "7(b9)",
              "7(13)",
              "7#11",
              "7(9)",
              "7b5",
              "7sus4",
              "7th",
              "aug",
              "Maj6(9)",
              "Maj7(9)",
              "Maj(9)",
              "Maj7#11",
              "Maj7",
              "Maj6",
              "Maj"
            ],
            "autoStart": false,
            "sourceChordNote": 0,
            "sourceChordType": "min",
            "ctb2Low": null,
            "ctb2Main": {
              "ntr": "ROOT_TRANSPOSITION",
              "ntt": "BYPASS",
              "bassOn": false,
              "chordRootUpperLimit": 3,
              "noteLowLimit": 28,
              "noteHighLimit": 127,
              "rtr": "PITCH_SHIFT"
            },
            "ctb2High": null
          },
          "notes": [
            {
              "pitch": 36,
              "velocity": 76,
              "position": 0,
              "duration": 0.9791666666666666
            },
            {
              "pitch": 34,
              "velocity": 70,
              "position": 1,
              "duration": 0.9791666666666666
            },
            {
              "pitch": 32,
              "velocity": 88,
              "position": 2,
              "duration": 0.25
            },
            {
              "pitch": 31,
              "velocity": 65,
              "position": 3,
              "duration": 0.9791666666666666
            },
            {
              "pitch": 36,
              "velocity": 51,
              "position": 4,
              "duration": 2.9895833333333335
            }
          ]
        },
        "3": {
          "ctab": {
            "srcChannel": 3,
            "name": "EP m",
            "accType": "CHORD1",
            "editable": true,
            "mutedNotes": [],
            "mutedChords": [
              "1+2+5",
              "sus4",
              "1+5",
              "1+8",
              "7aug",
              "Maj7aug",
              "7(#9)",
              "7(b13)",
              "7(b9)",
              "7(13)",
              "7#11",
              "7(9)",
              "7b5",
              "7sus4",
              "7th",
              "aug",
              "Maj6(9)",
              "Maj7(9)",
              "Maj(9)",
              "Maj7#11",
              "Maj7",
              "Maj6",
              "Maj"
            ],
            "autoStart": false,
            "sourceChordNote": 0,
            "sourceChordType": "min",
            "ctb2Low": null,
            "ctb2Main": {
              "ntr": "ROOT_TRANSPOSITION",
              "ntt": "BYPASS",
              "bassOn": false,
              "chordRootUpperLimit": 3,
              "noteLowLimit": 0,
              "noteHighLimit": 79,
              "rtr": "PITCH_SHIFT"
            },
            "ctb2High": null
          },
          "notes": [
            {
              "pitch": 67,
              "velocity": 61,
              "position": 0,
              "duration": 0.4791666666666667
            },
            {
              "pitch": 75,
              "velocity": 82,
              "position": 0,
              "duration": 0.7395833333333334
            },
            {
              "pitch": 67,
              "velocity": 82,
              "position": 0.5,
              "duration": 0.3958333333333333
            },
            {
              "pitch": 60,
              "velocity": 62,
              "position": 0,
              "duration": 0.9791666666666666
            },
            {
              "pitch": 75,
              "velocity": 68,
              "position": 0.7604166666666666,
              "duration": 0.23958333333333334
            },
            {
              "pitch": 65,
              "velocity": 45,
              "position": 1,
              "duration": 0.21875
            },
            {
              "pitch": 74,
              "velocity": 82,
              "position": 1,
              "duration": 0.4791666666666667
            },
            {
              "pitch": 65,
              "velocity": 67,
              "position": 1.2604166666666667,
              "duration": 0.3229166666666667
            },
            {
              "pitch": 74,
              "velocity": 82,
              "position": 1.5,
              "duration": 0.21875
            },
            {
              "pitch": 58,
              "velocity": 52,
              "position": 1,
              "duration": 0.75
            },
            {
              "pitch": 56,
              "velocity": 74,
              "position": 1.7604166666666667,
              "duration": 0.3541666666666667
            },
            {
              "pitch": 63,
              "velocity": 84,
              "position": 1.7604166666666667,
              "duration": 0.3541666666666667
            },
            {
              "pitch": 72,
              "velocity": 84,
              "position": 1.7604166666666667,
              "duration": 0.3541666666666667
            },
            {
              "pitch": 69,
              "velocity": 29,
              "position": 2.9791666666666665,
              "duration": 0.08333333333333333
            },
            {
              "pitch": 55,
              "velocity": 60,
              "position": 3,
              "duration": 0.7395833333333334
            },
            {
              "pitch": 62,
              "velocity": 47,
              "position": 3,
              "duration": 0.7395833333333334
            },
            {
              "pitch": 71,
              "velocity": 84,
              "position": 3,
              "duration": 0.7395833333333334
            },
            {
              "pitch": 48,
              "velocity": 63,
              "position": 3.7604166666666665,
              "duration": 3.2395833333333335
            },
            {
              "pitch": 63,
              "velocity": 78,
              "position": 3.7604166666666665,
              "duration": 3.2395833333333335
            },
            {
              "pitch": 67,
              "velocity": 51,
              "position": 3.7604166666666665,
              "duration": 3.2395833333333335
            },
            {
              "pitch": 72,
              "velocity": 68,
              "position": 3.7604166666666665,
              "duration": 3.2395833333333335
            }
          ]
        },
        "4": {
          "ctab": {
            "srcChannel": 4,
            "name": "Gut m",
            "accType": "CHORD2",
            "editable": true,
            "mutedNotes": [],
            "mutedChords": [
              "1+2+5",
              "sus4",
              "1+5",
              "1+8",
              "7aug",
              "Maj7aug",
              "7(#9)",
              "7(b13)",
              "7(b9)",
              "7(13)",
              "7#11",
              "7(9)",
              "7b5",
              "7sus4",
              "7th",
              "aug",
              "Maj6(9)",
              "Maj7(9)",
              "Maj(9)",
              "Maj7#11",
              "Maj7",
              "Maj6",
              "Maj"
            ],
            "autoStart": false,
            "sourceChordNote": 0,
            "sourceChordType": "min",
            "ctb2Low": null,
            "ctb2Main": {
              "ntr": "ROOT_TRANSPOSITION",
              "ntt": "BYPASS",
              "bassOn": false,
              "chordRootUpperLimit": 5,
              "noteLowLimit": 0,
              "noteHighLimit": 127,
              "rtr": "PITCH_SHIFT"
            },
            "ctb2High": null
          },
          "notes": [
            {
              "pitch": 55,
              "velocity": 50,
              "position": 0.2604166666666667,
              "duration": 0.23958333333333334
            },
            {
              "pitch": 63,
              "velocity": 68,
              "position": 0,
              "duration": 0.75
            },
            {
              "pitch": 60,
              "velocity": 60,
              "position": 0.5,
              "duration": 0.4895833333333333
            },
            {
              "pitch": 63,
              "velocity": 56,
              "position": 0.7604166666666666,
              "duration": 0.23958333333333334
            },
            {
              "pitch": 53,
              "velocity": 44,
              "position": 1.2604166666666667,
              "duration": 0.3020833333333333
            },
            {
              "pitch": 62,
              "velocity": 67,
              "position": 1,
              "duration": 0.75
            },
            {
              "pitch": 58,
              "velocity": 46,
              "position": 1.5,
              "duration": 0.4895833333333333
            },
            {
              "pitch": 60,
              "velocity": 62,
              "position": 1.7604166666666667,
              "duration": 0.3541666666666667
            }
          ]
        },
        "8": {
          "ctab": {
            "srcChannel": 8,
            "name": "RHY 1",
            "accType": "SUBRHYTHM",
            "editable": false,
            "mutedNotes": [],
            "mutedChords": [],
            "autoStart": true,
            "sourceChordNote": 0,
            "sourceChordType": "Maj7",
            "ctb2Low": null,
            "ctb2Main": {
              "ntr": "ROOT_FIXED",
              "ntt": "BYPASS",
              "bassOn": false,
              "chordRootUpperLimit": 6,
              "noteLowLimit": 0,
              "noteHighLimit": 127,
              "rtr": "PITCH_SHIFT"
            },
            "ctb2High": null
          },
          "notes": [
            {
              "pitch": 54,
              "velocity": 70,
              "position": 3,
              "duration": 0.010416666666666666
            }
          ]
        },
        "9": {
          "ctab": {
            "srcChannel": 9,
            "name": "RHY 2",
            "accType": "RHYTHM",
            "editable": false,
            "mutedNotes": [],
            "mutedChords": [],
            "autoStart": true,
            "sourceChordNote": 0,
            "sourceChordType": "Maj7",
            "ctb2Low": null,
            "ctb2Main": {
              "ntr": "ROOT_FIXED",
              "ntt": "BYPASS",
              "bassOn": false,
              "chordRootUpperLimit": 6,
              "noteLowLimit": 0,
              "noteHighLimit": 127,
              "rtr": "PITCH_SHIFT"
            },
            "ctb2High": null
          },
          "notes": [
            {
              "pitch": 35,
              "velocity": 71,
              "position": 0,
              "duration": 0.010416666666666666
            },
            {
              "pitch": 42,
              "velocity": 64,
              "position": 0,
              "duration": 0.010416666666666666
            },
            {
              "pitch": 42,
              "velocity": 26,
              "position": 0.5,
              "duration": 0.010416666666666666
            },
            {
              "pitch": 35,
              "velocity": 18,
              "position": 0.7604166666666666,
              "duration": 0.010416666666666666
            },
            {
              "pitch": 37,
              "velocity": 55,
              "position": 1,
              "duration": 0.010416666666666666
            },
            {
              "pitch": 42,
              "velocity": 79,
              "position": 1,
              "duration": 0.010416666666666666
            },
            {
              "pitch": 35,
              "velocity": 17,
              "position": 1.5,
              "duration": 0.010416666666666666
            },
            {
              "pitch": 42,
              "velocity": 26,
              "position": 1.5,
              "duration": 0.010416666666666666
            },
            {
              "pitch": 35,
              "velocity": 67,
              "position": 2,
              "duration": 0.010416666666666666
            },
            {
              "pitch": 42,
              "velocity": 70,
              "position": 2,
              "duration": 0.010416666666666666
            },
            {
              "pitch": 42,
              "velocity": 26,
              "position": 2.75,
              "duration": 0.010416666666666666
            },
            {
              "pitch": 37,
              "velocity": 55,
              "position": 3,
              "duration": 0.010416666666666666
            },
            {
              "pitch": 42,
              "velocity": 80,
              "position": 3,
              "duration": 0.010416666666666666
            },
            {
              "pitch": 46,
              "velocity": 49,
              "position": 3.25,
              "duration": 0.010416666666666666
            },
            {
              "pitch": 84,
              "velocity": 29,
              "position": 4,
              "duration": 0.010416666666666666
            },
            {
              "pitch": 44,
              "velocity": 29,
              "position": 7,
              "duration": 0.010416666666666666
            }
          ]
        },
        "10": {
          "ctab": {
            "srcChannel": 10,
            "name": "Bass",
            "accType": "BASS",
            "editable": false,
            "mutedNotes": [],
            "mutedChords": [
              "dim7",
              "dim",
              "minMaj7(9)",
              "minMaj7",
              "min7(11)",
              "min7(9)",
              "min(9)",
              "m7b5",
              "min7",
              "min6",
              "min"
            ],
            "autoStart": false,
            "sourceChordNote": 0,
            "sourceChordType": "Maj",
            "ctb2Low": null,
            "ctb2Main": {
              "ntr": "ROOT_TRANSPOSITION",
              "ntt": "BYPASS",
              "bassOn": false,
              "chordRootUpperLimit": 3,
              "noteLowLimit": 28,
              "noteHighLimit": 127,
              "rtr": "PITCH_SHIFT"
            },
            "ctb2High": null
          },
          "notes": [
            {
              "pitch": 38,
              "velocity": 76,
              "position": 0,
              "duration": 0.9791666666666666
            },
            {
              "pitch": 40,
              "velocity": 70,
              "position": 1,
              "duration": 0.9791666666666666
            },
            {
              "pitch": 41,
              "velocity": 88,
              "position": 2,
              "duration": 0.25
            },
            {
              "pitch": 31,
              "velocity": 65,
              "position": 3,
              "duration": 0.9791666666666666
            },
            {
              "pitch": 36,
              "velocity": 51,
              "position": 4,
              "duration": 2.9895833333333335
            }
          ]
        },
        "11": {
          "ctab": {
            "srcChannel": 11,
            "name": "EP",
            "accType": "CHORD1",
            "editable": false,
            "mutedNotes": [],
            "mutedChords": [
              "dim7",
              "dim",
              "minMaj7(9)",
              "minMaj7",
              "min7(11)",
              "min7(9)",
              "min(9)",
              "m7b5",
              "min7",
              "min6",
              "min"
            ],
            "autoStart": false,
            "sourceChordNote": 0,
            "sourceChordType": "Maj",
            "ctb2Low": null,
            "ctb2Main": {
              "ntr": "ROOT_TRANSPOSITION",
              "ntt": "BYPASS",
              "bassOn": false,
              "chordRootUpperLimit": 3,
              "noteLowLimit": 0,
              "noteHighLimit": 79,
              "rtr": "PITCH_SHIFT"
            },
            "ctb2High": null
          },
          "notes": [
            {
              "pitch": 77,
              "velocity": 82,
              "position": 0,
              "duration": 0.6041666666666666
            },
            {
              "pitch": 76,
              "velocity": 60,
              "position": 0.5,
              "duration": 0.25
            },
            {
              "pitch": 50,
              "velocity": 49,
              "position": 0,
              "duration": 0.9895833333333334
            },
            {
              "pitch": 69,
              "velocity": 65,
              "position": 0,
              "duration": 0.9895833333333334
            },
            {
              "pitch": 72,
              "velocity": 65,
              "position": 0,
              "duration": 0.9895833333333334
            },
            {
              "pitch": 77,
              "velocity": 64,
              "position": 0.7604166666666666,
              "duration": 0.23958333333333334
            },
            {
              "pitch": 79,
              "velocity": 82,
              "position": 1,
              "duration": 0.5208333333333334
            },
            {
              "pitch": 72,
              "velocity": 81,
              "position": 1.5,
              "duration": 0.1875
            },
            {
              "pitch": 52,
              "velocity": 51,
              "position": 1,
              "duration": 0.75
            },
            {
              "pitch": 71,
              "velocity": 81,
              "position": 1,
              "duration": 0.75
            },
            {
              "pitch": 74,
              "velocity": 65,
              "position": 1,
              "duration": 0.75
            },
            {
              "pitch": 53,
              "velocity": 44,
              "position": 1.7604166666666667,
              "duration": 0.3541666666666667
            },
            {
              "pitch": 72,
              "velocity": 78,
              "position": 1.7604166666666667,
              "duration": 0.3541666666666667
            },
            {
              "pitch": 77,
              "velocity": 78,
              "position": 1.7604166666666667,
              "duration": 0.3541666666666667
            },
            {
              "pitch": 81,
              "velocity": 82,
              "position": 1.7604166666666667,
              "duration": 0.3541666666666667
            },
            {
              "pitch": 71,
              "velocity": 53,
              "position": 2.9583333333333335,
              "duration": 0.15625
            },
            {
              "pitch": 72,
              "velocity": 80,
              "position": 3,
              "duration": 0.4583333333333333
            },
            {
              "pitch": 65,
              "velocity": 70,
              "position": 3,
              "duration": 0.65625
            },
            {
              "pitch": 55,
              "velocity": 68,
              "position": 3,
              "duration": 0.7395833333333334
            },
            {
              "pitch": 71,
              "velocity": 72,
              "position": 3.5,
              "duration": 0.2916666666666667
            },
            {
              "pitch": 48,
              "velocity": 52,
              "position": 3.7604166666666665,
              "duration": 3.2395833333333335
            },
            {
              "pitch": 55,
              "velocity": 51,
              "position": 3.7604166666666665,
              "duration": 3.2395833333333335
            },
            {
              "pitch": 62,
              "velocity": 39,
              "position": 3.7604166666666665,
              "duration": 3.2395833333333335
            },
            {
              "pitch": 64,
              "velocity": 55,
              "position": 3.7604166666666665,
              "duration": 3.2395833333333335
            },
            {
              "pitch": 72,
              "velocity": 76,
              "position": 3.7604166666666665,
              "duration": 3.2395833333333335
            }
          ]
        },
        "12": {
          "ctab": {
            "srcChannel": 12,
            "name": "Guitar",
            "accType": "CHORD2",
            "editable": false,
            "mutedNotes": [],
            "mutedChords": [
              "dim7",
              "dim",
              "minMaj7(9)",
              "minMaj7",
              "min7(11)",
              "min7(9)",
              "min(9)",
              "m7b5",
              "min7",
              "min6",
              "min"
            ],
            "autoStart": false,
            "sourceChordNote": 0,
            "sourceChordType": "Maj",
            "ctb2Low": null,
            "ctb2Main": {
              "ntr": "ROOT_TRANSPOSITION",
              "ntt": "BYPASS",
              "bassOn": false,
              "chordRootUpperLimit": 5,
              "noteLowLimit": 0,
              "noteHighLimit": 127,
              "rtr": "PITCH_SHIFT"
            },
            "ctb2High": null
          },
          "notes": [
            {
              "pitch": 57,
              "velocity": 61,
              "position": 0.2604166666666667,
              "duration": 0.23958333333333334
            },
            {
              "pitch": 65,
              "velocity": 79,
              "position": 0,
              "duration": 0.75
            },
            {
              "pitch": 60,
              "velocity": 71,
              "position": 0.5,
              "duration": 0.4895833333333333
            },
            {
              "pitch": 65,
              "velocity": 67,
              "position": 0.7604166666666666,
              "duration": 0.23958333333333334
            },
            {
              "pitch": 60,
              "velocity": 55,
              "position": 1.2604166666666667,
              "duration": 0.3020833333333333
            },
            {
              "pitch": 67,
              "velocity": 78,
              "position": 1,
              "duration": 0.75
            },
            {
              "pitch": 64,
              "velocity": 57,
              "position": 1.5,
              "duration": 0.4895833333333333
            },
            {
              "pitch": 69,
              "velocity": 73,
              "position": 1.7604166666666667,
              "duration": 0.3541666666666667
            }
          ]
        }
      }
    },
    "Intro_C": {
      "type": "Intro_C",
      "sizeInBeats": 16,
      "channels": {
        "2": {
          "ctab": {
            "srcChannel": 2,
            "name": "Bass m",
            "accType": "BASS",
            "editable": false,
            "mutedNotes": [],
            "mutedChords": [
              "1+2+5",
              "sus4",
              "1+5",
              "1+8",
              "7aug",
              "Maj7aug",
              "7(#9)",
              "7(b13)",
              "7(b9)",
              "7(13)",
              "7#11",
              "7(9)",
              "7b5",
              "7sus4",
              "7th",
              "aug",
              "Maj6(9)",
              "Maj7(9)",
              "Maj(9)",
              "Maj7#11",
              "Maj7",
              "Maj6",
              "Maj"
            ],
            "autoStart": false,
            "sourceChordNote": 0,
            "sourceChordType": "min",
            "ctb2Low": null,
            "ctb2Main": {
              "ntr": "ROOT_TRANSPOSITION",
              "ntt": "BYPASS",
              "bassOn": false,
              "chordRootUpperLimit": 3,
              "noteLowLimit": 28,
              "noteHighLimit": 127,
              "rtr": "PITCH_SHIFT"
            },
            "ctb2High": null
          },
          "notes": [
            {
              "pitch": 48,
              "velocity": 68,
              "position": 3,
              "duration": 0.9791666666666666
            },
            {
              "pitch": 46,
              "velocity": 70,
              "position": 4,
              "duration": 2.96875
            },
            {
              "pitch": 43,
              "velocity": 88,
              "position": 7,
              "duration": 0.46875
            },
            {
              "pitch": 36,
              "velocity": 83,
              "position": 7.5,
              "duration": 0.46875
            },
            {
              "pitch": 32,
              "velocity": 88,
              "position": 8,
              "duration": 1.4791666666666667
            },
            {
              "pitch": 39,
              "velocity": 84,
              "position": 9.5,
              "duration": 0.23958333333333334
            },
            {
              "pitch": 44,
              "velocity": 57,
              "position": 9.760416666666666,
              "duration": 0.21875
            },
            {
              "pitch": 34,
              "velocity": 82,
              "position": 10,
              "duration": 0.9791666666666666
            },
            {
              "pitch": 34,
              "velocity": 88,
              "position": 11,
              "duration": 0.7395833333333334
            },
            {
              "pitch": 26,
              "velocity": 50,
              "position": 11.75,
              "duration": 0.21875
            },
            {
              "pitch": 24,
              "velocity": 87,
              "position": 12,
              "duration": 1.7395833333333333
            },
            {
              "pitch": 24,
              "velocity": 72,
              "position": 13.760416666666666,
              "duration": 0.21875
            },
            {
              "pitch": 24,
              "velocity": 87,
              "position": 14,
              "duration": 1.625
            },
            {
              "pitch": 24,
              "velocity": 57,
              "position": 15.75,
              "duration": 0.21875
            }
          ]
        },
        "3": {
          "ctab": {
            "srcChannel": 3,
            "name": "EP m",
            "accType": "CHORD1",
            "editable": false,
            "mutedNotes": [],
            "mutedChords": [
              "1+2+5",
              "sus4",
              "1+5",
              "1+8",
              "7aug",
              "Maj7aug",
              "7(#9)",
              "7(b13)",
              "7(b9)",
              "7(13)",
              "7#11",
              "7(9)",
              "7b5",
              "7sus4",
              "7th",
              "aug",
              "Maj6(9)",
              "Maj7(9)",
              "Maj(9)",
              "Maj7#11",
              "Maj7",
              "Maj6",
              "Maj"
            ],
            "autoStart": false,
            "sourceChordNote": 0,
            "sourceChordType": "min",
            "ctb2Low": null,
            "ctb2Main": {
              "ntr": "ROOT_TRANSPOSITION",
              "ntt": "BYPASS",
              "bassOn": false,
              "chordRootUpperLimit": 7,
              "noteLowLimit": 0,
              "noteHighLimit": 79,
              "rtr": "PITCH_SHIFT"
            },
            "ctb2High": null
          },
          "notes": [
            {
              "pitch": 75,
              "velocity": 88,
              "position": 0,
              "duration": 0.8645833333333334
            },
            {
              "pitch": 55,
              "velocity": 74,
              "position": 0.5,
              "duration": 0.3645833333333333
            },
            {
              "pitch": 67,
              "velocity": 82,
              "position": 0,
              "duration": 1.6041666666666667
            },
            {
              "pitch": 62,
              "velocity": 82,
              "position": 0.7604166666666666,
              "duration": 0.8541666666666666
            },
            {
              "pitch": 74,
              "velocity": 81,
              "position": 0.7604166666666666,
              "duration": 0.8541666666666666
            },
            {
              "pitch": 48,
              "velocity": 77,
              "position": 0,
              "duration": 3.9895833333333335
            },
            {
              "pitch": 63,
              "velocity": 74,
              "position": 1.5,
              "duration": 2.4895833333333335
            },
            {
              "pitch": 72,
              "velocity": 76,
              "position": 1.5,
              "duration": 2.4895833333333335
            },
            {
              "pitch": 79,
              "velocity": 80,
              "position": 1.5,
              "duration": 2.4895833333333335
            },
            {
              "pitch": 75,
              "velocity": 88,
              "position": 4,
              "duration": 0.8645833333333334
            },
            {
              "pitch": 53,
              "velocity": 74,
              "position": 4.5,
              "duration": 0.3645833333333333
            },
            {
              "pitch": 67,
              "velocity": 82,
              "position": 4,
              "duration": 1.6041666666666667
            },
            {
              "pitch": 62,
              "velocity": 82,
              "position": 4.760416666666667,
              "duration": 0.8541666666666666
            },
            {
              "pitch": 74,
              "velocity": 81,
              "position": 4.760416666666667,
              "duration": 0.8541666666666666
            },
            {
              "pitch": 46,
              "velocity": 77,
              "position": 4,
              "duration": 3.9895833333333335
            },
            {
              "pitch": 63,
              "velocity": 71,
              "position": 5.5,
              "duration": 2.4895833333333335
            },
            {
              "pitch": 72,
              "velocity": 74,
              "position": 5.5,
              "duration": 2.4895833333333335
            },
            {
              "pitch": 79,
              "velocity": 87,
              "position": 5.5,
              "duration": 2.4895833333333335
            },
            {
              "pitch": 51,
              "velocity": 56,
              "position": 8.5,
              "duration": 0.3645833333333333
            },
            {
              "pitch": 63,
              "velocity": 80,
              "position": 8,
              "duration": 0.9791666666666666
            },
            {
              "pitch": 72,
              "velocity": 90,
              "position": 8,
              "duration": 0.9895833333333334
            },
            {
              "pitch": 56,
              "velocity": 90,
              "position": 8.760416666666666,
              "duration": 0.3541666666666667
            },
            {
              "pitch": 72,
              "velocity": 89,
              "position": 9.260416666666666,
              "duration": 0.3541666666666667
            },
            {
              "pitch": 63,
              "velocity": 90,
              "position": 9,
              "duration": 0.75
            },
            {
              "pitch": 75,
              "velocity": 90,
              "position": 9.5,
              "duration": 0.3645833333333333
            },
            {
              "pitch": 44,
              "velocity": 90,
              "position": 8,
              "duration": 1.9895833333333333
            },
            {
              "pitch": 53,
              "velocity": 88,
              "position": 10.5,
              "duration": 0.3645833333333333
            },
            {
              "pitch": 74,
              "velocity": 90,
              "position": 9.760416666666666,
              "duration": 1.1145833333333333
            },
            {
              "pitch": 72,
              "velocity": 85,
              "position": 10.760416666666666,
              "duration": 0.8541666666666666
            },
            {
              "pitch": 46,
              "velocity": 90,
              "position": 10,
              "duration": 1.9895833333333333
            },
            {
              "pitch": 70,
              "velocity": 90,
              "position": 11.5,
              "duration": 0.4895833333333333
            },
            {
              "pitch": 65,
              "velocity": 87,
              "position": 9.760416666666666,
              "duration": 2.2395833333333335
            },
            {
              "pitch": 58,
              "velocity": 90,
              "position": 10.760416666666666,
              "duration": 1.2395833333333333
            },
            {
              "pitch": 55,
              "velocity": 51,
              "position": 12.5,
              "duration": 0.3541666666666667
            },
            {
              "pitch": 62,
              "velocity": 62,
              "position": 12.760416666666666,
              "duration": 0.6145833333333334
            },
            {
              "pitch": 48,
              "velocity": 85,
              "position": 12,
              "duration": 1.9895833333333333
            },
            {
              "pitch": 67,
              "velocity": 72,
              "position": 12,
              "duration": 1.9895833333333333
            },
            {
              "pitch": 72,
              "velocity": 81,
              "position": 12,
              "duration": 1.9895833333333333
            },
            {
              "pitch": 63,
              "velocity": 64,
              "position": 13.260416666666666,
              "duration": 0.7354166666666667
            },
            {
              "pitch": 72,
              "velocity": 67,
              "position": 14,
              "duration": 1.875
            },
            {
              "pitch": 48,
              "velocity": 90,
              "position": 14,
              "duration": 1.9791666666666667
            },
            {
              "pitch": 63,
              "velocity": 59,
              "position": 14,
              "duration": 1.9791666666666667
            },
            {
              "pitch": 67,
              "velocity": 90,
              "position": 14,
              "duration": 1.9791666666666667
            },
            {
              "pitch": 60,
              "velocity": 63,
              "position": 15,
              "duration": 0.9791666666666666
            },
            {
              "pitch": 55,
              "velocity": 60,
              "position": 14.5,
              "duration": 1.4895833333333333
            }
          ]
        },
        "4": {
          "ctab": {
            "srcChannel": 4,
            "name": "Gut m",
            "accType": "CHORD2",
            "editable": false,
            "mutedNotes": [],
            "mutedChords": [
              "1+2+5",
              "sus4",
              "1+5",
              "1+8",
              "7aug",
              "Maj7aug",
              "7(#9)",
              "7(b13)",
              "7(b9)",
              "7(13)",
              "7#11",
              "7(9)",
              "7b5",
              "7sus4",
              "7th",
              "aug",
              "Maj6(9)",
              "Maj7(9)",
              "Maj(9)",
              "Maj7#11",
              "Maj7",
              "Maj6",
              "Maj"
            ],
            "autoStart": false,
            "sourceChordNote": 0,
            "sourceChordType": "min",
            "ctb2Low": null,
            "ctb2Main": {
              "ntr": "ROOT_TRANSPOSITION",
              "ntt": "BYPASS",
              "bassOn": false,
              "chordRootUpperLimit": 9,
              "noteLowLimit": 0,
              "noteHighLimit": 127,
              "rtr": "PITCH_SHIFT"
            },
            "ctb2High": null
          },
          "notes": [
            {
              "pitch": 62,
              "velocity": 61,
              "position": 7,
              "duration": 0.10416666666666667
            },
            {
              "pitch": 63,
              "velocity": 50,
              "position": 7.114583333333333,
              "duration": 0.34375
            },
            {
              "pitch": 46,
              "velocity": 50,
              "position": 7,
              "duration": 0.4791666666666667
            },
            {
              "pitch": 55,
              "velocity": 48,
              "position": 7,
              "duration": 0.4791666666666667
            },
            {
              "pitch": 63,
              "velocity": 35,
              "position": 7.489583333333333,
              "duration": 0.23958333333333334
            },
            {
              "pitch": 46,
              "velocity": 35,
              "position": 7.5,
              "duration": 0.23958333333333334
            },
            {
              "pitch": 55,
              "velocity": 35,
              "position": 7.5,
              "duration": 0.23958333333333334
            },
            {
              "pitch": 63,
              "velocity": 46,
              "position": 7.75,
              "duration": 0.020833333333333332
            },
            {
              "pitch": 46,
              "velocity": 54,
              "position": 7.760416666666667,
              "duration": 0.020833333333333332
            },
            {
              "pitch": 55,
              "velocity": 46,
              "position": 7.760416666666667,
              "duration": 0.020833333333333332
            },
            {
              "pitch": 44,
              "velocity": 46,
              "position": 8,
              "duration": 0.7291666666666666
            },
            {
              "pitch": 51,
              "velocity": 58,
              "position": 8,
              "duration": 0.7291666666666666
            },
            {
              "pitch": 58,
              "velocity": 50,
              "position": 8,
              "duration": 0.7291666666666666
            },
            {
              "pitch": 60,
              "velocity": 55,
              "position": 8,
              "duration": 0.7291666666666666
            },
            {
              "pitch": 44,
              "velocity": 46,
              "position": 8.760416666666666,
              "duration": 0.08333333333333333
            },
            {
              "pitch": 51,
              "velocity": 46,
              "position": 8.760416666666666,
              "duration": 0.08333333333333333
            },
            {
              "pitch": 60,
              "velocity": 46,
              "position": 8.760416666666666,
              "duration": 0.08333333333333333
            },
            {
              "pitch": 44,
              "velocity": 40,
              "position": 9.260416666666666,
              "duration": 0.21875
            },
            {
              "pitch": 51,
              "velocity": 40,
              "position": 9.260416666666666,
              "duration": 0.21875
            },
            {
              "pitch": 60,
              "velocity": 40,
              "position": 9.260416666666666,
              "duration": 0.21875
            },
            {
              "pitch": 44,
              "velocity": 46,
              "position": 9.5,
              "duration": 0.020833333333333332
            },
            {
              "pitch": 51,
              "velocity": 46,
              "position": 9.5,
              "duration": 0.020833333333333332
            },
            {
              "pitch": 60,
              "velocity": 46,
              "position": 9.5,
              "duration": 0.020833333333333332
            },
            {
              "pitch": 63,
              "velocity": 64,
              "position": 8,
              "duration": 1.75
            },
            {
              "pitch": 62,
              "velocity": 52,
              "position": 9.760416666666666,
              "duration": 0.9895833333333334
            },
            {
              "pitch": 53,
              "velocity": 51,
              "position": 10.260416666666666,
              "duration": 1.1041666666666667
            },
            {
              "pitch": 62,
              "velocity": 54,
              "position": 10.760416666666666,
              "duration": 0.9479166666666666
            },
            {
              "pitch": 62,
              "velocity": 34,
              "position": 11.71875,
              "duration": 0.010416666666666666
            },
            {
              "pitch": 53,
              "velocity": 40,
              "position": 11.5,
              "duration": 0.23958333333333334
            },
            {
              "pitch": 65,
              "velocity": 67,
              "position": 11.260416666666666,
              "duration": 0.4791666666666667
            },
            {
              "pitch": 60,
              "velocity": 49,
              "position": 10.5,
              "duration": 1.25
            },
            {
              "pitch": 46,
              "velocity": 64,
              "position": 10,
              "duration": 2
            },
            {
              "pitch": 55,
              "velocity": 39,
              "position": 11.760416666666666,
              "duration": 0.8541666666666666
            },
            {
              "pitch": 63,
              "velocity": 50,
              "position": 11.75,
              "duration": 1.8541666666666667
            },
            {
              "pitch": 43,
              "velocity": 46,
              "position": 12.260416666666666,
              "duration": 1.6770833333333333
            },
            {
              "pitch": 55,
              "velocity": 53,
              "position": 12.760416666666666,
              "duration": 1.1875
            },
            {
              "pitch": 36,
              "velocity": 60,
              "position": 12,
              "duration": 1.9479166666666667
            },
            {
              "pitch": 51,
              "velocity": 41,
              "position": 12.5,
              "duration": 1.4583333333333333
            },
            {
              "pitch": 60,
              "velocity": 54,
              "position": 13.5,
              "duration": 0.4895833333333333
            },
            {
              "pitch": 43,
              "velocity": 46,
              "position": 14.25,
              "duration": 1.6770833333333333
            },
            {
              "pitch": 55,
              "velocity": 53,
              "position": 14.75,
              "duration": 1.1875
            },
            {
              "pitch": 51,
              "velocity": 41,
              "position": 14.489583333333334,
              "duration": 1.4583333333333333
            },
            {
              "pitch": 63,
              "velocity": 54,
              "position": 14,
              "duration": 1.9791666666666667
            },
            {
              "pitch": 60,
              "velocity": 47,
              "position": 15,
              "duration": 0.9791666666666666
            },
            {
              "pitch": 67,
              "velocity": 46,
              "position": 15,
              "duration": 0.9791666666666666
            }
          ]
        },
        "5": {
          "ctab": {
            "srcChannel": 5,
            "name": "Strng m",
            "accType": "PAD",
            "editable": false,
            "mutedNotes": [],
            "mutedChords": [
              "1+2+5",
              "sus4",
              "1+5",
              "1+8",
              "7aug",
              "Maj7aug",
              "7(#9)",
              "7(b13)",
              "7(b9)",
              "7(13)",
              "7#11",
              "7(9)",
              "7b5",
              "7sus4",
              "7th",
              "aug",
              "Maj6(9)",
              "Maj7(9)",
              "Maj(9)",
              "Maj7#11",
              "Maj7",
              "Maj6",
              "Maj"
            ],
            "autoStart": false,
            "sourceChordNote": 0,
            "sourceChordType": "min",
            "ctb2Low": null,
            "ctb2Main": {
              "ntr": "ROOT_TRANSPOSITION",
              "ntt": "BYPASS",
              "bassOn": false,
              "chordRootUpperLimit": 5,
              "noteLowLimit": 0,
              "noteHighLimit": 79,
              "rtr": "PITCH_SHIFT"
            },
            "ctb2High": null
          },
          "notes": [
            {
              "pitch": 68,
              "velocity": 50,
              "position": 8,
              "duration": 1.9791666666666667
            },
            {
              "pitch": 72,
              "velocity": 50,
              "position": 8,
              "duration": 1.9791666666666667
            },
            {
              "pitch": 75,
              "velocity": 50,
              "position": 8,
              "duration": 1.9791666666666667
            },
            {
              "pitch": 70,
              "velocity": 60,
              "position": 10,
              "duration": 1.9791666666666667
            },
            {
              "pitch": 74,
              "velocity": 60,
              "position": 10,
              "duration": 1.9791666666666667
            },
            {
              "pitch": 77,
              "velocity": 60,
              "position": 10,
              "duration": 1.9791666666666667
            },
            {
              "pitch": 72,
              "velocity": 56,
              "position": 12,
              "duration": 1.9791666666666667
            },
            {
              "pitch": 75,
              "velocity": 56,
              "position": 12,
              "duration": 1.9791666666666667
            },
            {
              "pitch": 79,
              "velocity": 56,
              "position": 12,
              "duration": 1.9791666666666667
            },
            {
              "pitch": 72,
              "velocity": 53,
              "position": 14,
              "duration": 0.9791666666666666
            },
            {
              "pitch": 67,
              "velocity": 53,
              "position": 14,
              "duration": 1.9791666666666667
            },
            {
              "pitch": 72,
              "velocity": 60,
              "position": 15,
              "duration": 0.9791666666666666
            },
            {
              "pitch": 75,
              "velocity": 53,
              "position": 14,
              "duration": 1.9791666666666667
            }
          ]
        },
        "6": {
          "ctab": {
            "srcChannel": 6,
            "name": "Mute m",
            "accType": "PHRASE1",
            "editable": false,
            "mutedNotes": [],
            "mutedChords": [
              "1+2+5",
              "sus4",
              "1+5",
              "1+8",
              "7aug",
              "Maj7aug",
              "7(#9)",
              "7(b13)",
              "7(b9)",
              "7(13)",
              "7#11",
              "7(9)",
              "7b5",
              "7sus4",
              "7th",
              "aug",
              "Maj6(9)",
              "Maj7(9)",
              "Maj(9)",
              "Maj7#11",
              "Maj7",
              "Maj6",
              "Maj"
            ],
            "autoStart": false,
            "sourceChordNote": 0,
            "sourceChordType": "min",
            "ctb2Low": null,
            "ctb2Main": {
              "ntr": "ROOT_TRANSPOSITION",
              "ntt": "BYPASS",
              "bassOn": false,
              "chordRootUpperLimit": 4,
              "noteLowLimit": 0,
              "noteHighLimit": 127,
              "rtr": "PITCH_SHIFT"
            },
            "ctb2High": null
          },
          "notes": [
            {
              "pitch": 56,
              "velocity": 67,
              "position": 8.5,
              "duration": 0.23958333333333334
            },
            {
              "pitch": 63,
              "velocity": 67,
              "position": 8.5,
              "duration": 0.23958333333333334
            },
            {
              "pitch": 56,
              "velocity": 30,
              "position": 8.760416666666666,
              "duration": 0.052083333333333336
            },
            {
              "pitch": 63,
              "velocity": 30,
              "position": 8.760416666666666,
              "duration": 0.052083333333333336
            },
            {
              "pitch": 56,
              "velocity": 58,
              "position": 9.260416666666666,
              "duration": 0.07291666666666667
            },
            {
              "pitch": 63,
              "velocity": 58,
              "position": 9.260416666666666,
              "duration": 0.07291666666666667
            },
            {
              "pitch": 58,
              "velocity": 67,
              "position": 10.5,
              "duration": 0.23958333333333334
            },
            {
              "pitch": 65,
              "velocity": 67,
              "position": 10.5,
              "duration": 0.23958333333333334
            },
            {
              "pitch": 58,
              "velocity": 30,
              "position": 10.760416666666666,
              "duration": 0.041666666666666664
            },
            {
              "pitch": 65,
              "velocity": 30,
              "position": 10.760416666666666,
              "duration": 0.07291666666666667
            },
            {
              "pitch": 58,
              "velocity": 49,
              "position": 11.260416666666666,
              "duration": 0.21875
            },
            {
              "pitch": 65,
              "velocity": 49,
              "position": 11.260416666666666,
              "duration": 0.21875
            },
            {
              "pitch": 58,
              "velocity": 24,
              "position": 11.5,
              "duration": 0.23958333333333334
            },
            {
              "pitch": 65,
              "velocity": 24,
              "position": 11.5,
              "duration": 0.23958333333333334
            },
            {
              "pitch": 58,
              "velocity": 56,
              "position": 11.760416666666666,
              "duration": 0.07291666666666667
            },
            {
              "pitch": 65,
              "velocity": 56,
              "position": 11.760416666666666,
              "duration": 0.07291666666666667
            },
            {
              "pitch": 55,
              "velocity": 67,
              "position": 12.5,
              "duration": 0.23958333333333334
            },
            {
              "pitch": 60,
              "velocity": 67,
              "position": 12.5,
              "duration": 0.23958333333333334
            },
            {
              "pitch": 55,
              "velocity": 30,
              "position": 12.760416666666666,
              "duration": 0.052083333333333336
            },
            {
              "pitch": 60,
              "velocity": 30,
              "position": 12.760416666666666,
              "duration": 0.052083333333333336
            },
            {
              "pitch": 55,
              "velocity": 58,
              "position": 13.260416666666666,
              "duration": 0.07291666666666667
            },
            {
              "pitch": 60,
              "velocity": 58,
              "position": 13.260416666666666,
              "duration": 0.07291666666666667
            },
            {
              "pitch": 55,
              "velocity": 67,
              "position": 14.5,
              "duration": 0.23958333333333334
            },
            {
              "pitch": 60,
              "velocity": 67,
              "position": 14.5,
              "duration": 0.23958333333333334
            },
            {
              "pitch": 55,
              "velocity": 30,
              "position": 14.760416666666666,
              "duration": 0.041666666666666664
            },
            {
              "pitch": 60,
              "velocity": 30,
              "position": 14.760416666666666,
              "duration": 0.07291666666666667
            },
            {
              "pitch": 55,
              "velocity": 49,
              "position": 15.260416666666666,
              "duration": 0.21875
            },
            {
              "pitch": 60,
              "velocity": 49,
              "position": 15.260416666666666,
              "duration": 0.21875
            },
            {
              "pitch": 55,
              "velocity": 24,
              "position": 15.5,
              "duration": 0.23958333333333334
            },
            {
              "pitch": 60,
              "velocity": 24,
              "position": 15.5,
              "duration": 0.23958333333333334
            },
            {
              "pitch": 55,
              "velocity": 56,
              "position": 15.760416666666666,
              "duration": 0.07291666666666667
            },
            {
              "pitch": 60,
              "velocity": 56,
              "position": 15.760416666666666,
              "duration": 0.07291666666666667
            }
          ]
        },
        "7": {
          "ctab": {
            "srcChannel": 7,
            "name": "Harm",
            "accType": "PHRASE2",
            "editable": false,
            "mutedNotes": [],
            "mutedChords": [
              "1+2+5",
              "sus4",
              "1+5",
              "1+8",
              "7aug",
              "Maj7aug",
              "7(#9)",
              "7(b13)",
              "7(b9)",
              "7(13)",
              "7#11",
              "7(9)",
              "7b5",
              "7sus4",
              "7th",
              "aug",
              "Maj6(9)",
              "Maj7(9)",
              "Maj(9)",
              "Maj7#11",
              "Maj7",
              "Maj6",
              "Maj"
            ],
            "autoStart": false,
            "sourceChordNote": 0,
            "sourceChordType": "min",
            "ctb2Low": null,
            "ctb2Main": {
              "ntr": "ROOT_TRANSPOSITION",
              "ntt": "BYPASS",
              "bassOn": false,
              "chordRootUpperLimit": 2,
              "noteLowLimit": 0,
              "noteHighLimit": 127,
              "rtr": "PITCH_SHIFT"
            },
            "ctb2High": null
          },
          "notes": [
            {
              "pitch": 74,
              "velocity": 63,
              "position": 0,
              "duration": 0.10416666666666667
            },
            {
              "pitch": 75,
              "velocity": 92,
              "position": 0.08333333333333333,
              "duration": 0.6666666666666666
            },
            {
              "pitch": 74,
              "velocity": 94,
              "position": 0.7604166666666666,
              "duration": 0.7395833333333334
            },
            {
              "pitch": 72,
              "velocity": 90,
              "position": 1.5104166666666667,
              "duration": 2.0625
            },
            {
              "pitch": 75,
              "velocity": 92,
              "position": 3.9916666666666667,
              "duration": 0.6916666666666667
            },
            {
              "pitch": 72,
              "velocity": 43,
              "position": 4.75,
              "duration": 0.10416666666666667
            },
            {
              "pitch": 74,
              "velocity": 92,
              "position": 4.833333333333333,
              "duration": 0.6875
            },
            {
              "pitch": 72,
              "velocity": 90,
              "position": 5.53125,
              "duration": 1.5520833333333333
            },
            {
              "pitch": 67,
              "velocity": 94,
              "position": 7.260416666666667,
              "duration": 0.125
            },
            {
              "pitch": 72,
              "velocity": 77,
              "position": 7.5,
              "duration": 0.25
            },
            {
              "pitch": 74,
              "velocity": 78,
              "position": 7.760416666666667,
              "duration": 0.125
            },
            {
              "pitch": 74,
              "velocity": 60,
              "position": 7.96875,
              "duration": 0.16875
            },
            {
              "pitch": 75,
              "velocity": 102,
              "position": 8.104166666666666,
              "duration": 0.6458333333333334
            },
            {
              "pitch": 72,
              "velocity": 76,
              "position": 8.760416666666666,
              "duration": 0.9895833333333334
            },
            {
              "pitch": 74,
              "velocity": 80,
              "position": 9.760416666666666,
              "duration": 1.2291666666666667
            },
            {
              "pitch": 70,
              "velocity": 49,
              "position": 11,
              "duration": 0.09583333333333334
            },
            {
              "pitch": 72,
              "velocity": 81,
              "position": 11.075,
              "duration": 0.6708333333333333
            },
            {
              "pitch": 72,
              "velocity": 88,
              "position": 11.760416666666666,
              "duration": 4.145833333333333
            }
          ]
        },
        "8": {
          "ctab": {
            "srcChannel": 8,
            "name": "RHY 1",
            "accType": "SUBRHYTHM",
            "editable": false,
            "mutedNotes": [],
            "mutedChords": [],
            "autoStart": true,
            "sourceChordNote": 0,
            "sourceChordType": "Maj7",
            "ctb2Low": null,
            "ctb2Main": {
              "ntr": "ROOT_FIXED",
              "ntt": "BYPASS",
              "bassOn": false,
              "chordRootUpperLimit": 6,
              "noteLowLimit": 0,
              "noteHighLimit": 127,
              "rtr": "PITCH_SHIFT"
            },
            "ctb2High": null
          },
          "notes": [
            {
              "pitch": 54,
              "velocity": 70,
              "position": 11,
              "duration": 0.010416666666666666
            },
            {
              "pitch": 54,
              "velocity": 70,
              "position": 15,
              "duration": 0.010416666666666666
            }
          ]
        },
        "9": {
          "ctab": {
            "srcChannel": 9,
            "name": "RHY 2",
            "accType": "RHYTHM",
            "editable": false,
            "mutedNotes": [],
            "mutedChords": [],
            "autoStart": true,
            "sourceChordNote": 0,
            "sourceChordType": "Maj7",
            "ctb2Low": null,
            "ctb2Main": {
              "ntr": "ROOT_FIXED",
              "ntt": "BYPASS",
              "bassOn": false,
              "chordRootUpperLimit": 6,
              "noteLowLimit": 0,
              "noteHighLimit": 127,
              "rtr": "PITCH_SHIFT"
            },
            "ctb2High": null
          },
          "notes": [
            {
              "pitch": 44,
              "velocity": 50,
              "position": 1,
              "duration": 0.010416666666666666
            },
            {
              "pitch": 44,
              "velocity": 52,
              "position": 3,
              "duration": 0.010416666666666666
            },
            {
              "pitch": 44,
              "velocity": 58,
              "position": 5,
              "duration": 0.010416666666666666
            },
            {
              "pitch": 43,
              "velocity": 41,
              "position": 6.760416666666667,
              "duration": 0.010416666666666666
            },
            {
              "pitch": 43,
              "velocity": 73,
              "position": 7,
              "duration": 0.010416666666666666
            },
            {
              "pitch": 44,
              "velocity": 59,
              "position": 7,
              "duration": 0.010416666666666666
            },
            {
              "pitch": 41,
              "velocity": 61,
              "position": 7.5,
              "duration": 0.010416666666666666
            },
            {
              "pitch": 35,
              "velocity": 94,
              "position": 8,
              "duration": 0.010416666666666666
            },
            {
              "pitch": 42,
              "velocity": 68,
              "position": 8,
              "duration": 0.010416666666666666
            },
            {
              "pitch": 42,
              "velocity": 26,
              "position": 8.260416666666666,
              "duration": 0.010416666666666666
            },
            {
              "pitch": 42,
              "velocity": 26,
              "position": 8.5,
              "duration": 0.010416666666666666
            },
            {
              "pitch": 35,
              "velocity": 29,
              "position": 8.760416666666666,
              "duration": 0.010416666666666666
            },
            {
              "pitch": 42,
              "velocity": 26,
              "position": 8.760416666666666,
              "duration": 0.010416666666666666
            },
            {
              "pitch": 40,
              "velocity": 74,
              "position": 9,
              "duration": 0.010416666666666666
            },
            {
              "pitch": 42,
              "velocity": 112,
              "position": 9,
              "duration": 0.010416666666666666
            },
            {
              "pitch": 42,
              "velocity": 26,
              "position": 9.260416666666666,
              "duration": 0.010416666666666666
            },
            {
              "pitch": 42,
              "velocity": 26,
              "position": 9.5,
              "duration": 0.010416666666666666
            },
            {
              "pitch": 35,
              "velocity": 24,
              "position": 9.760416666666666,
              "duration": 0.010416666666666666
            },
            {
              "pitch": 42,
              "velocity": 30,
              "position": 9.760416666666666,
              "duration": 0.010416666666666666
            },
            {
              "pitch": 35,
              "velocity": 90,
              "position": 10,
              "duration": 0.010416666666666666
            },
            {
              "pitch": 42,
              "velocity": 69,
              "position": 10,
              "duration": 0.010416666666666666
            },
            {
              "pitch": 42,
              "velocity": 26,
              "position": 10.260416666666666,
              "duration": 0.010416666666666666
            },
            {
              "pitch": 42,
              "velocity": 26,
              "position": 10.5,
              "duration": 0.010416666666666666
            },
            {
              "pitch": 40,
              "velocity": 41,
              "position": 10.760416666666666,
              "duration": 0.010416666666666666
            },
            {
              "pitch": 42,
              "velocity": 26,
              "position": 10.760416666666666,
              "duration": 0.010416666666666666
            },
            {
              "pitch": 40,
              "velocity": 75,
              "position": 11,
              "duration": 0.010416666666666666
            },
            {
              "pitch": 42,
              "velocity": 116,
              "position": 11,
              "duration": 0.010416666666666666
            },
            {
              "pitch": 42,
              "velocity": 26,
              "position": 11.260416666666666,
              "duration": 0.010416666666666666
            },
            {
              "pitch": 42,
              "velocity": 26,
              "position": 11.5,
              "duration": 0.010416666666666666
            },
            {
              "pitch": 42,
              "velocity": 26,
              "position": 11.760416666666666,
              "duration": 0.010416666666666666
            },
            {
              "pitch": 35,
              "velocity": 93,
              "position": 12,
              "duration": 0.010416666666666666
            },
            {
              "pitch": 42,
              "velocity": 69,
              "position": 12,
              "duration": 0.010416666666666666
            },
            {
              "pitch": 42,
              "velocity": 26,
              "position": 12.260416666666666,
              "duration": 0.010416666666666666
            },
            {
              "pitch": 42,
              "velocity": 26,
              "position": 12.5,
              "duration": 0.010416666666666666
            },
            {
              "pitch": 42,
              "velocity": 26,
              "position": 12.760416666666666,
              "duration": 0.010416666666666666
            },
            {
              "pitch": 40,
              "velocity": 75,
              "position": 13,
              "duration": 0.010416666666666666
            },
            {
              "pitch": 42,
              "velocity": 117,
              "position": 13,
              "duration": 0.010416666666666666
            },
            {
              "pitch": 42,
              "velocity": 26,
              "position": 13.260416666666666,
              "duration": 0.010416666666666666
            },
            {
              "pitch": 42,
              "velocity": 26,
              "position": 13.5,
              "duration": 0.010416666666666666
            },
            {
              "pitch": 35,
              "velocity": 21,
              "position": 13.760416666666666,
              "duration": 0.010416666666666666
            },
            {
              "pitch": 42,
              "velocity": 26,
              "position": 13.760416666666666,
              "duration": 0.010416666666666666
            },
            {
              "pitch": 35,
              "velocity": 89,
              "position": 14,
              "duration": 0.010416666666666666
            },
            {
              "pitch": 42,
              "velocity": 68,
              "position": 14,
              "duration": 0.010416666666666666
            },
            {
              "pitch": 42,
              "velocity": 26,
              "position": 14.260416666666666,
              "duration": 0.010416666666666666
            },
            {
              "pitch": 35,
              "velocity": 89,
              "position": 14.5,
              "duration": 0.010416666666666666
            },
            {
              "pitch": 42,
              "velocity": 26,
              "position": 14.5,
              "duration": 0.010416666666666666
            },
            {
              "pitch": 42,
              "velocity": 26,
              "position": 14.760416666666666,
              "duration": 0.010416666666666666
            },
            {
              "pitch": 40,
              "velocity": 24,
              "position": 14.75,
              "duration": 0.03125
            },
            {
              "pitch": 40,
              "velocity": 27,
              "position": 14.833333333333334,
              "duration": 0.03125
            },
            {
              "pitch": 40,
              "velocity": 36,
              "position": 14.916666666666666,
              "duration": 0.03125
            },
            {
              "pitch": 40,
              "velocity": 81,
              "position": 15,
              "duration": 0.010416666666666666
            },
            {
              "pitch": 42,
              "velocity": 117,
              "position": 15,
              "duration": 0.010416666666666666
            },
            {
              "pitch": 40,
              "velocity": 81,
              "position": 15.25,
              "duration": 0.010416666666666666
            },
            {
              "pitch": 42,
              "velocity": 26,
              "position": 15.260416666666666,
              "duration": 0.010416666666666666
            },
            {
              "pitch": 46,
              "velocity": 58,
              "position": 15.5,
              "duration": 0.010416666666666666
            },
            {
              "pitch": 35,
              "velocity": 21,
              "position": 15.75,
              "duration": 0.010416666666666666
            }
          ]
        },
        "10": {
          "ctab": {
            "srcChannel": 10,
            "name": "Bass",
            "accType": "BASS",
            "editable": false,
            "mutedNotes": [],
            "mutedChords": [
              "dim7",
              "dim",
              "minMaj7(9)",
              "minMaj7",
              "min7(11)",
              "min7(9)",
              "min(9)",
              "m7b5",
              "min7",
              "min6",
              "min"
            ],
            "autoStart": false,
            "sourceChordNote": 0,
            "sourceChordType": "Maj",
            "ctb2Low": null,
            "ctb2Main": {
              "ntr": "ROOT_TRANSPOSITION",
              "ntt": "BYPASS",
              "bassOn": false,
              "chordRootUpperLimit": 3,
              "noteLowLimit": 28,
              "noteHighLimit": 127,
              "rtr": "PITCH_SHIFT"
            },
            "ctb2High": null
          },
          "notes": [
            {
              "pitch": 48,
              "velocity": 68,
              "position": 3,
              "duration": 0.49166666666666664
            },
            {
              "pitch": 47,
              "velocity": 69,
              "position": 3.5,
              "duration": 0.49166666666666664
            },
            {
              "pitch": 45,
              "velocity": 70,
              "position": 4,
              "duration": 2.96875
            },
            {
              "pitch": 40,
              "velocity": 95,
              "position": 7,
              "duration": 0.46875
            },
            {
              "pitch": 33,
              "velocity": 83,
              "position": 7.5,
              "duration": 0.46875
            },
            {
              "pitch": 32,
              "velocity": 95,
              "position": 8,
              "duration": 1.4791666666666667
            },
            {
              "pitch": 39,
              "velocity": 84,
              "position": 9.5,
              "duration": 0.23958333333333334
            },
            {
              "pitch": 44,
              "velocity": 57,
              "position": 9.760416666666666,
              "duration": 0.21875
            },
            {
              "pitch": 31,
              "velocity": 95,
              "position": 10,
              "duration": 0.9791666666666666
            },
            {
              "pitch": 31,
              "velocity": 83,
              "position": 11,
              "duration": 0.7395833333333334
            },
            {
              "pitch": 26,
              "velocity": 50,
              "position": 11.75,
              "duration": 0.21875
            },
            {
              "pitch": 24,
              "velocity": 91,
              "position": 12,
              "duration": 1.7395833333333333
            },
            {
              "pitch": 24,
              "velocity": 76,
              "position": 13.760416666666666,
              "duration": 0.21875
            },
            {
              "pitch": 24,
              "velocity": 88,
              "position": 14,
              "duration": 1.625
            },
            {
              "pitch": 24,
              "velocity": 80,
              "position": 15.75,
              "duration": 0.19791666666666666
            }
          ]
        },
        "11": {
          "ctab": {
            "srcChannel": 11,
            "name": "EP",
            "accType": "CHORD1",
            "editable": false,
            "mutedNotes": [],
            "mutedChords": [
              "dim7",
              "dim",
              "minMaj7(9)",
              "minMaj7",
              "min7(11)",
              "min7(9)",
              "min(9)",
              "m7b5",
              "min7",
              "min6",
              "min"
            ],
            "autoStart": false,
            "sourceChordNote": 0,
            "sourceChordType": "Maj",
            "ctb2Low": null,
            "ctb2Main": {
              "ntr": "ROOT_TRANSPOSITION",
              "ntt": "BYPASS",
              "bassOn": false,
              "chordRootUpperLimit": 7,
              "noteLowLimit": 0,
              "noteHighLimit": 79,
              "rtr": "PITCH_SHIFT"
            },
            "ctb2High": null
          },
          "notes": [
            {
              "pitch": 62,
              "velocity": 71,
              "position": 0,
              "duration": 0.9895833333333334
            },
            {
              "pitch": 71,
              "velocity": 90,
              "position": 0,
              "duration": 0.9895833333333334
            },
            {
              "pitch": 60,
              "velocity": 53,
              "position": 1,
              "duration": 0.4895833333333333
            },
            {
              "pitch": 67,
              "velocity": 76,
              "position": 0,
              "duration": 1.4895833333333333
            },
            {
              "pitch": 72,
              "velocity": 90,
              "position": 0.7604166666666666,
              "duration": 1.2395833333333333
            },
            {
              "pitch": 55,
              "velocity": 51,
              "position": 0.5,
              "duration": 1.9895833333333333
            },
            {
              "pitch": 62,
              "velocity": 45,
              "position": 1.2604166666666667,
              "duration": 1.7291666666666667
            },
            {
              "pitch": 48,
              "velocity": 62,
              "position": 0,
              "duration": 3.4895833333333335
            },
            {
              "pitch": 55,
              "velocity": 55,
              "position": 2.5,
              "duration": 0.9895833333333334
            },
            {
              "pitch": 47,
              "velocity": 47,
              "position": 3.5,
              "duration": 0.4895833333333333
            },
            {
              "pitch": 62,
              "velocity": 68,
              "position": 3,
              "duration": 0.9895833333333334
            },
            {
              "pitch": 67,
              "velocity": 50,
              "position": 1.5,
              "duration": 2.6145833333333335
            },
            {
              "pitch": 55,
              "velocity": 53,
              "position": 3.7604166666666665,
              "duration": 0.3645833333333333
            },
            {
              "pitch": 60,
              "velocity": 59,
              "position": 2.7604166666666665,
              "duration": 1.3645833333333333
            },
            {
              "pitch": 76,
              "velocity": 70,
              "position": 1.7604166666666667,
              "duration": 2.5
            },
            {
              "pitch": 62,
              "velocity": 80,
              "position": 4,
              "duration": 0.7395833333333334
            },
            {
              "pitch": 59,
              "velocity": 56,
              "position": 4.5,
              "duration": 0.3645833333333333
            },
            {
              "pitch": 71,
              "velocity": 90,
              "position": 4,
              "duration": 0.8645833333333334
            },
            {
              "pitch": 52,
              "velocity": 50,
              "position": 4.260416666666667,
              "duration": 2.4895833333333335
            },
            {
              "pitch": 60,
              "velocity": 60,
              "position": 4.760416666666667,
              "duration": 2.2291666666666665
            },
            {
              "pitch": 72,
              "velocity": 90,
              "position": 4.760416666666667,
              "duration": 2.4895833333333335
            },
            {
              "pitch": 45,
              "velocity": 87,
              "position": 4,
              "duration": 3.9895833333333335
            },
            {
              "pitch": 72,
              "velocity": 77,
              "position": 7.5,
              "duration": 0.4895833333333333
            },
            {
              "pitch": 67,
              "velocity": 90,
              "position": 7.260416666666667,
              "duration": 0.7395833333333334
            },
            {
              "pitch": 79,
              "velocity": 90,
              "position": 5.5,
              "duration": 2.6145833333333335
            },
            {
              "pitch": 60,
              "velocity": 54,
              "position": 7,
              "duration": 1.1145833333333333
            },
            {
              "pitch": 52,
              "velocity": 64,
              "position": 6.760416666666667,
              "duration": 1.3645833333333333
            },
            {
              "pitch": 74,
              "velocity": 90,
              "position": 7.760416666666667,
              "duration": 0.3645833333333333
            },
            {
              "pitch": 75,
              "velocity": 90,
              "position": 8,
              "duration": 0.8645833333333334
            },
            {
              "pitch": 51,
              "velocity": 65,
              "position": 8.260416666666666,
              "duration": 0.9895833333333334
            },
            {
              "pitch": 58,
              "velocity": 57,
              "position": 8.5,
              "duration": 0.8645833333333334
            },
            {
              "pitch": 65,
              "velocity": 73,
              "position": 8.760416666666666,
              "duration": 0.9895833333333334
            },
            {
              "pitch": 70,
              "velocity": 70,
              "position": 8.760416666666666,
              "duration": 1.1145833333333333
            },
            {
              "pitch": 74,
              "velocity": 76,
              "position": 8.760416666666666,
              "duration": 1.1145833333333333
            },
            {
              "pitch": 51,
              "velocity": 61,
              "position": 9.260416666666666,
              "duration": 0.7083333333333334
            },
            {
              "pitch": 44,
              "velocity": 87,
              "position": 8,
              "duration": 1.9895833333333333
            },
            {
              "pitch": 58,
              "velocity": 76,
              "position": 9.5,
              "duration": 0.4895833333333333
            },
            {
              "pitch": 60,
              "velocity": 71,
              "position": 9.760416666666666,
              "duration": 0.7395833333333334
            },
            {
              "pitch": 67,
              "velocity": 90,
              "position": 11,
              "duration": 0.10416666666666667
            },
            {
              "pitch": 55,
              "velocity": 67,
              "position": 10.5,
              "duration": 0.6145833333333334
            },
            {
              "pitch": 53,
              "velocity": 49,
              "position": 10.260416666666666,
              "duration": 0.8645833333333334
            },
            {
              "pitch": 57,
              "velocity": 62,
              "position": 10.760416666666666,
              "duration": 0.3645833333333333
            },
            {
              "pitch": 65,
              "velocity": 68,
              "position": 9.760416666666666,
              "duration": 1.3645833333333333
            },
            {
              "pitch": 72,
              "velocity": 80,
              "position": 9.760416666666666,
              "duration": 1.3645833333333333
            },
            {
              "pitch": 69,
              "velocity": 67,
              "position": 11.125,
              "duration": 0.6145833333333334
            },
            {
              "pitch": 65,
              "velocity": 53,
              "position": 11.5,
              "duration": 0.3645833333333333
            },
            {
              "pitch": 60,
              "velocity": 81,
              "position": 11,
              "duration": 0.8645833333333334
            },
            {
              "pitch": 43,
              "velocity": 89,
              "position": 10,
              "duration": 1.9895833333333333
            },
            {
              "pitch": 62,
              "velocity": 79,
              "position": 11.760416666666666,
              "duration": 1.2395833333333333
            },
            {
              "pitch": 67,
              "velocity": 74,
              "position": 11.760416666666666,
              "duration": 1.2395833333333333
            },
            {
              "pitch": 48,
              "velocity": 76,
              "position": 12,
              "duration": 1.25
            },
            {
              "pitch": 60,
              "velocity": 63,
              "position": 12.5,
              "duration": 1.25
            },
            {
              "pitch": 55,
              "velocity": 68,
              "position": 12.260416666666666,
              "duration": 1.7291666666666667
            },
            {
              "pitch": 48,
              "velocity": 61,
              "position": 13.260416666666666,
              "duration": 0.7395833333333334
            },
            {
              "pitch": 64,
              "velocity": 76,
              "position": 12.760416666666666,
              "duration": 1.2395833333333333
            },
            {
              "pitch": 43,
              "velocity": 57,
              "position": 14,
              "duration": 1.9791666666666667
            },
            {
              "pitch": 60,
              "velocity": 70,
              "position": 13.760416666666666,
              "duration": 2.21875
            },
            {
              "pitch": 67,
              "velocity": 75,
              "position": 13.760416666666666,
              "duration": 2.21875
            },
            {
              "pitch": 52,
              "velocity": 69,
              "position": 14,
              "duration": 1.9791666666666667
            },
            {
              "pitch": 55,
              "velocity": 61,
              "position": 14,
              "duration": 1.9791666666666667
            },
            {
              "pitch": 62,
              "velocity": 68,
              "position": 14,
              "duration": 1.9791666666666667
            }
          ]
        },
        "12": {
          "ctab": {
            "srcChannel": 12,
            "name": "Guitar",
            "accType": "CHORD2",
            "editable": false,
            "mutedNotes": [],
            "mutedChords": [
              "dim7",
              "dim",
              "minMaj7(9)",
              "minMaj7",
              "min7(11)",
              "min7(9)",
              "min(9)",
              "m7b5",
              "min7",
              "min6",
              "min"
            ],
            "autoStart": false,
            "sourceChordNote": 0,
            "sourceChordType": "Maj",
            "ctb2Low": null,
            "ctb2Main": {
              "ntr": "ROOT_TRANSPOSITION",
              "ntt": "BYPASS",
              "bassOn": false,
              "chordRootUpperLimit": 9,
              "noteLowLimit": 0,
              "noteHighLimit": 127,
              "rtr": "PITCH_SHIFT"
            },
            "ctb2High": null
          },
          "notes": [
            {
              "pitch": 62,
              "velocity": 67,
              "position": 7,
              "duration": 0.10416666666666667
            },
            {
              "pitch": 64,
              "velocity": 56,
              "position": 7.125,
              "duration": 0.34375
            },
            {
              "pitch": 52,
              "velocity": 56,
              "position": 7,
              "duration": 0.4791666666666667
            },
            {
              "pitch": 55,
              "velocity": 54,
              "position": 7,
              "duration": 0.4791666666666667
            },
            {
              "pitch": 52,
              "velocity": 41,
              "position": 7.5,
              "duration": 0.23958333333333334
            },
            {
              "pitch": 55,
              "velocity": 41,
              "position": 7.5,
              "duration": 0.23958333333333334
            },
            {
              "pitch": 64,
              "velocity": 41,
              "position": 7.5,
              "duration": 0.23958333333333334
            },
            {
              "pitch": 52,
              "velocity": 60,
              "position": 7.760416666666667,
              "duration": 0.020833333333333332
            },
            {
              "pitch": 55,
              "velocity": 52,
              "position": 7.760416666666667,
              "duration": 0.020833333333333332
            },
            {
              "pitch": 64,
              "velocity": 52,
              "position": 7.760416666666667,
              "duration": 0.020833333333333332
            },
            {
              "pitch": 44,
              "velocity": 52,
              "position": 8,
              "duration": 0.7291666666666666
            },
            {
              "pitch": 51,
              "velocity": 64,
              "position": 8,
              "duration": 0.7291666666666666
            },
            {
              "pitch": 58,
              "velocity": 56,
              "position": 8,
              "duration": 0.7291666666666666
            },
            {
              "pitch": 60,
              "velocity": 61,
              "position": 8,
              "duration": 0.7291666666666666
            },
            {
              "pitch": 44,
              "velocity": 52,
              "position": 8.760416666666666,
              "duration": 0.08333333333333333
            },
            {
              "pitch": 51,
              "velocity": 52,
              "position": 8.760416666666666,
              "duration": 0.08333333333333333
            },
            {
              "pitch": 60,
              "velocity": 52,
              "position": 8.760416666666666,
              "duration": 0.08333333333333333
            },
            {
              "pitch": 44,
              "velocity": 46,
              "position": 9.260416666666666,
              "duration": 0.21875
            },
            {
              "pitch": 51,
              "velocity": 46,
              "position": 9.260416666666666,
              "duration": 0.21875
            },
            {
              "pitch": 60,
              "velocity": 46,
              "position": 9.260416666666666,
              "duration": 0.21875
            },
            {
              "pitch": 44,
              "velocity": 52,
              "position": 9.5,
              "duration": 0.020833333333333332
            },
            {
              "pitch": 51,
              "velocity": 52,
              "position": 9.5,
              "duration": 0.020833333333333332
            },
            {
              "pitch": 60,
              "velocity": 52,
              "position": 9.5,
              "duration": 0.020833333333333332
            },
            {
              "pitch": 60,
              "velocity": 58,
              "position": 9.760416666666666,
              "duration": 0.9895833333333334
            },
            {
              "pitch": 65,
              "velocity": 70,
              "position": 8,
              "duration": 3.2291666666666665
            },
            {
              "pitch": 50,
              "velocity": 63,
              "position": 10.260416666666666,
              "duration": 1.1041666666666667
            },
            {
              "pitch": 60,
              "velocity": 66,
              "position": 10.760416666666666,
              "duration": 0.9791666666666666
            },
            {
              "pitch": 50,
              "velocity": 46,
              "position": 11.5,
              "duration": 0.23958333333333334
            },
            {
              "pitch": 65,
              "velocity": 64,
              "position": 11.260416666666666,
              "duration": 0.4791666666666667
            },
            {
              "pitch": 57,
              "velocity": 61,
              "position": 10.5,
              "duration": 1.25
            },
            {
              "pitch": 43,
              "velocity": 70,
              "position": 10,
              "duration": 2
            },
            {
              "pitch": 55,
              "velocity": 45,
              "position": 11.760416666666666,
              "duration": 0.8541666666666666
            },
            {
              "pitch": 64,
              "velocity": 56,
              "position": 11.760416666666666,
              "duration": 1.8541666666666667
            },
            {
              "pitch": 52,
              "velocity": 47,
              "position": 12.5,
              "duration": 1.375
            },
            {
              "pitch": 55,
              "velocity": 59,
              "position": 12.760416666666666,
              "duration": 1.125
            },
            {
              "pitch": 43,
              "velocity": 52,
              "position": 12.260416666666666,
              "duration": 1.625
            },
            {
              "pitch": 60,
              "velocity": 60,
              "position": 13.5,
              "duration": 0.4895833333333333
            },
            {
              "pitch": 64,
              "velocity": 60,
              "position": 14,
              "duration": 0.9958333333333333
            },
            {
              "pitch": 52,
              "velocity": 47,
              "position": 14.489583333333334,
              "duration": 1.375
            },
            {
              "pitch": 43,
              "velocity": 52,
              "position": 14.25,
              "duration": 1.625
            },
            {
              "pitch": 55,
              "velocity": 59,
              "position": 14.75,
              "duration": 1.125
            },
            {
              "pitch": 60,
              "velocity": 53,
              "position": 15,
              "duration": 0.9791666666666666
            },
            {
              "pitch": 64,
              "velocity": 52,
              "position": 15,
              "duration": 0.9791666666666666
            }
          ]
        },
        "13": {
          "ctab": {
            "srcChannel": 13,
            "name": "Strings",
            "accType": "PAD",
            "editable": false,
            "mutedNotes": [],
            "mutedChords": [
              "dim7",
              "dim",
              "minMaj7(9)",
              "minMaj7",
              "min7(11)",
              "min7(9)",
              "min(9)",
              "m7b5",
              "min7",
              "min6",
              "min"
            ],
            "autoStart": false,
            "sourceChordNote": 0,
            "sourceChordType": "Maj",
            "ctb2Low": null,
            "ctb2Main": {
              "ntr": "ROOT_TRANSPOSITION",
              "ntt": "BYPASS",
              "bassOn": false,
              "chordRootUpperLimit": 5,
              "noteLowLimit": 0,
              "noteHighLimit": 79,
              "rtr": "PITCH_SHIFT"
            },
            "ctb2High": null
          },
          "notes": [
            {
              "pitch": 68,
              "velocity": 50,
              "position": 8,
              "duration": 1.9791666666666667
            },
            {
              "pitch": 72,
              "velocity": 50,
              "position": 8,
              "duration": 1.9791666666666667
            },
            {
              "pitch": 75,
              "velocity": 50,
              "position": 8,
              "duration": 1.9791666666666667
            },
            {
              "pitch": 67,
              "velocity": 60,
              "position": 10,
              "duration": 1.9791666666666667
            },
            {
              "pitch": 72,
              "velocity": 60,
              "position": 10,
              "duration": 1.9791666666666667
            },
            {
              "pitch": 77,
              "velocity": 60,
              "position": 10,
              "duration": 1.9791666666666667
            },
            {
              "pitch": 67,
              "velocity": 56,
              "position": 12,
              "duration": 1.9791666666666667
            },
            {
              "pitch": 72,
              "velocity": 56,
              "position": 12,
              "duration": 1.9791666666666667
            },
            {
              "pitch": 76,
              "velocity": 56,
              "position": 12,
              "duration": 1.9791666666666667
            },
            {
              "pitch": 67,
              "velocity": 53,
              "position": 14,
              "duration": 1.9791666666666667
            },
            {
              "pitch": 72,
              "velocity": 53,
              "position": 14,
              "duration": 1.9791666666666667
            },
            {
              "pitch": 76,
              "velocity": 53,
              "position": 14,
              "duration": 1.9791666666666667
            }
          ]
        },
        "14": {
          "ctab": {
            "srcChannel": 14,
            "name": "Mute",
            "accType": "PHRASE1",
            "editable": false,
            "mutedNotes": [],
            "mutedChords": [
              "dim7",
              "dim",
              "minMaj7(9)",
              "minMaj7",
              "min7(11)",
              "min7(9)",
              "min(9)",
              "m7b5",
              "min7",
              "min6",
              "min"
            ],
            "autoStart": false,
            "sourceChordNote": 0,
            "sourceChordType": "Maj",
            "ctb2Low": null,
            "ctb2Main": {
              "ntr": "ROOT_TRANSPOSITION",
              "ntt": "BYPASS",
              "bassOn": false,
              "chordRootUpperLimit": 4,
              "noteLowLimit": 0,
              "noteHighLimit": 127,
              "rtr": "PITCH_SHIFT"
            },
            "ctb2High": null
          },
          "notes": [
            {
              "pitch": 56,
              "velocity": 68,
              "position": 8.5,
              "duration": 0.23958333333333334
            },
            {
              "pitch": 63,
              "velocity": 68,
              "position": 8.5,
              "duration": 0.23958333333333334
            },
            {
              "pitch": 56,
              "velocity": 31,
              "position": 8.760416666666666,
              "duration": 0.052083333333333336
            },
            {
              "pitch": 63,
              "velocity": 31,
              "position": 8.760416666666666,
              "duration": 0.052083333333333336
            },
            {
              "pitch": 56,
              "velocity": 59,
              "position": 9.260416666666666,
              "duration": 0.07291666666666667
            },
            {
              "pitch": 63,
              "velocity": 59,
              "position": 9.260416666666666,
              "duration": 0.07291666666666667
            },
            {
              "pitch": 57,
              "velocity": 68,
              "position": 10.5,
              "duration": 0.23958333333333334
            },
            {
              "pitch": 62,
              "velocity": 68,
              "position": 10.5,
              "duration": 0.23958333333333334
            },
            {
              "pitch": 57,
              "velocity": 31,
              "position": 10.760416666666666,
              "duration": 0.041666666666666664
            },
            {
              "pitch": 62,
              "velocity": 31,
              "position": 10.760416666666666,
              "duration": 0.07291666666666667
            },
            {
              "pitch": 57,
              "velocity": 50,
              "position": 11.260416666666666,
              "duration": 0.21875
            },
            {
              "pitch": 62,
              "velocity": 50,
              "position": 11.260416666666666,
              "duration": 0.21875
            },
            {
              "pitch": 57,
              "velocity": 25,
              "position": 11.5,
              "duration": 0.23958333333333334
            },
            {
              "pitch": 62,
              "velocity": 25,
              "position": 11.5,
              "duration": 0.23958333333333334
            },
            {
              "pitch": 57,
              "velocity": 57,
              "position": 11.760416666666666,
              "duration": 0.07291666666666667
            },
            {
              "pitch": 62,
              "velocity": 57,
              "position": 11.760416666666666,
              "duration": 0.07291666666666667
            },
            {
              "pitch": 55,
              "velocity": 68,
              "position": 12.5,
              "duration": 0.23958333333333334
            },
            {
              "pitch": 60,
              "velocity": 68,
              "position": 12.5,
              "duration": 0.23958333333333334
            },
            {
              "pitch": 55,
              "velocity": 31,
              "position": 12.760416666666666,
              "duration": 0.052083333333333336
            },
            {
              "pitch": 60,
              "velocity": 31,
              "position": 12.760416666666666,
              "duration": 0.052083333333333336
            },
            {
              "pitch": 55,
              "velocity": 59,
              "position": 13.260416666666666,
              "duration": 0.07291666666666667
            },
            {
              "pitch": 60,
              "velocity": 59,
              "position": 13.260416666666666,
              "duration": 0.07291666666666667
            },
            {
              "pitch": 55,
              "velocity": 68,
              "position": 14.5,
              "duration": 0.23958333333333334
            },
            {
              "pitch": 60,
              "velocity": 68,
              "position": 14.5,
              "duration": 0.23958333333333334
            },
            {
              "pitch": 55,
              "velocity": 31,
              "position": 14.760416666666666,
              "duration": 0.041666666666666664
            },
            {
              "pitch": 60,
              "velocity": 31,
              "position": 14.760416666666666,
              "duration": 0.07291666666666667
            },
            {
              "pitch": 55,
              "velocity": 50,
              "position": 15.260416666666666,
              "duration": 0.21875
            },
            {
              "pitch": 60,
              "velocity": 50,
              "position": 15.260416666666666,
              "duration": 0.21875
            },
            {
              "pitch": 55,
              "velocity": 25,
              "position": 15.5,
              "duration": 0.23958333333333334
            },
            {
              "pitch": 60,
              "velocity": 25,
              "position": 15.5,
              "duration": 0.23958333333333334
            },
            {
              "pitch": 55,
              "velocity": 57,
              "position": 15.760416666666666,
              "duration": 0.07291666666666667
            },
            {
              "pitch": 60,
              "velocity": 57,
              "position": 15.760416666666666,
              "duration": 0.07291666666666667
            }
          ]
        },
        "15": {
          "ctab": {
            "srcChannel": 15,
            "name": "Harm",
            "accType": "PHRASE2",
            "editable": false,
            "mutedNotes": [],
            "mutedChords": [
              "dim7",
              "dim",
              "minMaj7(9)",
              "minMaj7",
              "min7(11)",
              "min7(9)",
              "min(9)",
              "m7b5",
              "min7",
              "min6",
              "min"
            ],
            "autoStart": false,
            "sourceChordNote": 0,
            "sourceChordType": "Maj",
            "ctb2Low": null,
            "ctb2Main": {
              "ntr": "ROOT_TRANSPOSITION",
              "ntt": "BYPASS",
              "bassOn": false,
              "chordRootUpperLimit": 4,
              "noteLowLimit": 0,
              "noteHighLimit": 127,
              "rtr": "PITCH_SHIFT"
            },
            "ctb2High": null
          },
          "notes": [
            {
              "pitch": 71,
              "velocity": 92,
              "position": 0.020833333333333332,
              "duration": 0.7291666666666666
            },
            {
              "pitch": 72,
              "velocity": 94,
              "position": 0.7604166666666666,
              "duration": 0.7395833333333334
            },
            {
              "pitch": 67,
              "velocity": 90,
              "position": 1.5104166666666667,
              "duration": 2.0625
            },
            {
              "pitch": 71,
              "velocity": 92,
              "position": 3.9916666666666667,
              "duration": 0.7541666666666667
            },
            {
              "pitch": 72,
              "velocity": 91,
              "position": 4.760416666666667,
              "duration": 0.7916666666666666
            },
            {
              "pitch": 78,
              "velocity": 41,
              "position": 5.5,
              "duration": 0.09583333333333334
            },
            {
              "pitch": 79,
              "velocity": 76,
              "position": 5.541666666666667,
              "duration": 1.7083333333333333
            },
            {
              "pitch": 67,
              "velocity": 72,
              "position": 7.260416666666667,
              "duration": 0.125
            },
            {
              "pitch": 72,
              "velocity": 77,
              "position": 7.5,
              "duration": 0.25
            },
            {
              "pitch": 74,
              "velocity": 77,
              "position": 7.760416666666667,
              "duration": 0.125
            },
            {
              "pitch": 74,
              "velocity": 60,
              "position": 7.96875,
              "duration": 0.18958333333333333
            },
            {
              "pitch": 75,
              "velocity": 102,
              "position": 8.125,
              "duration": 0.6458333333333334
            },
            {
              "pitch": 74,
              "velocity": 76,
              "position": 8.760416666666666,
              "duration": 0.9895833333333334
            },
            {
              "pitch": 72,
              "velocity": 80,
              "position": 9.760416666666666,
              "duration": 1.2291666666666667
            },
            {
              "pitch": 67,
              "velocity": 41,
              "position": 11,
              "duration": 0.09583333333333334
            },
            {
              "pitch": 69,
              "velocity": 85,
              "position": 11.075,
              "duration": 0.41041666666666665
            },
            {
              "pitch": 65,
              "velocity": 35,
              "position": 11.5,
              "duration": 0.25
            },
            {
              "pitch": 67,
              "velocity": 84,
              "position": 11.760416666666666,
              "duration": 4.145833333333333
            }
          ]
        }
      }
    },
    "Ending_C": {
      "type": "Ending_C",
      "sizeInBeats": 16,
      "channels": {
        "2": {
          "ctab": {
            "srcChannel": 2,
            "name": "Bass m",
            "accType": "BASS",
            "editable": false,
            "mutedNotes": [],
            "mutedChords": [
              "1+2+5",
              "sus4",
              "1+5",
              "1+8",
              "7aug",
              "Maj7aug",
              "7(#9)",
              "7(b13)",
              "7(b9)",
              "7(13)",
              "7#11",
              "7(9)",
              "7b5",
              "7sus4",
              "7th",
              "aug",
              "Maj6(9)",
              "Maj7(9)",
              "Maj(9)",
              "Maj7#11",
              "Maj7",
              "Maj6",
              "Maj"
            ],
            "autoStart": false,
            "sourceChordNote": 0,
            "sourceChordType": "min",
            "ctb2Low": null,
            "ctb2Main": {
              "ntr": "ROOT_TRANSPOSITION",
              "ntt": "BYPASS",
              "bassOn": false,
              "chordRootUpperLimit": 3,
              "noteLowLimit": 28,
              "noteHighLimit": 127,
              "rtr": "PITCH_SHIFT"
            },
            "ctb2High": null
          },
          "notes": [
            {
              "pitch": 24,
              "velocity": 76,
              "position": 0,
              "duration": 0.6041666666666666
            },
            {
              "pitch": 24,
              "velocity": 72,
              "position": 0.7604166666666666,
              "duration": 0.16666666666666666
            },
            {
              "pitch": 24,
              "velocity": 48,
              "position": 1.7604166666666667,
              "duration": 0.21875
            },
            {
              "pitch": 26,
              "velocity": 82,
              "position": 2,
              "duration": 0.7395833333333334
            },
            {
              "pitch": 28,
              "velocity": 82,
              "position": 2.7604166666666665,
              "duration": 1.2291666666666667
            },
            {
              "pitch": 29,
              "velocity": 82,
              "position": 4,
              "duration": 1.7395833333333333
            },
            {
              "pitch": 29,
              "velocity": 57,
              "position": 5.760416666666667,
              "duration": 0.21875
            },
            {
              "pitch": 31,
              "velocity": 79,
              "position": 6,
              "duration": 1.9791666666666667
            },
            {
              "pitch": 24,
              "velocity": 82,
              "position": 8,
              "duration": 4.989583333333333
            }
          ]
        },
        "3": {
          "ctab": {
            "srcChannel": 3,
            "name": "EP m",
            "accType": "CHORD1",
            "editable": false,
            "mutedNotes": [],
            "mutedChords": [
              "1+2+5",
              "sus4",
              "1+5",
              "1+8",
              "7aug",
              "Maj7aug",
              "7(#9)",
              "7(b13)",
              "7(b9)",
              "7(13)",
              "7#11",
              "7(9)",
              "7b5",
              "7sus4",
              "7th",
              "aug",
              "Maj6(9)",
              "Maj7(9)",
              "Maj(9)",
              "Maj7#11",
              "Maj7",
              "Maj6",
              "Maj"
            ],
            "autoStart": false,
            "sourceChordNote": 0,
            "sourceChordType": "min",
            "ctb2Low": null,
            "ctb2Main": {
              "ntr": "ROOT_TRANSPOSITION",
              "ntt": "BYPASS",
              "bassOn": false,
              "chordRootUpperLimit": 7,
              "noteLowLimit": 0,
              "noteHighLimit": 79,
              "rtr": "PITCH_SHIFT"
            },
            "ctb2High": null
          },
          "notes": [
            {
              "pitch": 55,
              "velocity": 69,
              "position": 0,
              "duration": 0.9791666666666666
            },
            {
              "pitch": 60,
              "velocity": 69,
              "position": 0,
              "duration": 0.9791666666666666
            },
            {
              "pitch": 63,
              "velocity": 69,
              "position": 0,
              "duration": 0.9791666666666666
            },
            {
              "pitch": 55,
              "velocity": 62,
              "position": 1,
              "duration": 0.9791666666666666
            },
            {
              "pitch": 60,
              "velocity": 62,
              "position": 1,
              "duration": 0.9791666666666666
            },
            {
              "pitch": 63,
              "velocity": 62,
              "position": 1,
              "duration": 0.9791666666666666
            },
            {
              "pitch": 55,
              "velocity": 71,
              "position": 2,
              "duration": 0.7395833333333334
            },
            {
              "pitch": 60,
              "velocity": 71,
              "position": 2,
              "duration": 0.7395833333333334
            },
            {
              "pitch": 72,
              "velocity": 74,
              "position": 2,
              "duration": 0.7395833333333334
            },
            {
              "pitch": 77,
              "velocity": 90,
              "position": 2,
              "duration": 0.7395833333333334
            },
            {
              "pitch": 72,
              "velocity": 86,
              "position": 2.7604166666666665,
              "duration": 0.7291666666666666
            },
            {
              "pitch": 79,
              "velocity": 90,
              "position": 2.7604166666666665,
              "duration": 0.7291666666666666
            },
            {
              "pitch": 55,
              "velocity": 75,
              "position": 2.7604166666666665,
              "duration": 1.2291666666666667
            },
            {
              "pitch": 60,
              "velocity": 71,
              "position": 2.7604166666666665,
              "duration": 1.2291666666666667
            },
            {
              "pitch": 64,
              "velocity": 49,
              "position": 2.7604166666666665,
              "duration": 1.2291666666666667
            },
            {
              "pitch": 67,
              "velocity": 90,
              "position": 2.7604166666666665,
              "duration": 1.2291666666666667
            },
            {
              "pitch": 48,
              "velocity": 59,
              "position": 4.260416666666667,
              "duration": 0.22916666666666666
            },
            {
              "pitch": 72,
              "velocity": 90,
              "position": 3.5,
              "duration": 1.2291666666666667
            },
            {
              "pitch": 79,
              "velocity": 64,
              "position": 4,
              "duration": 0.7395833333333334
            },
            {
              "pitch": 55,
              "velocity": 49,
              "position": 4.5,
              "duration": 0.25
            },
            {
              "pitch": 80,
              "velocity": 83,
              "position": 4,
              "duration": 1.4895833333333333
            },
            {
              "pitch": 72,
              "velocity": 65,
              "position": 4.760416666666667,
              "duration": 0.7395833333333334
            },
            {
              "pitch": 77,
              "velocity": 55,
              "position": 4.760416666666667,
              "duration": 0.9895833333333334
            },
            {
              "pitch": 80,
              "velocity": 76,
              "position": 5.5,
              "duration": 0.3645833333333333
            },
            {
              "pitch": 41,
              "velocity": 65,
              "position": 4,
              "duration": 1.9895833333333333
            },
            {
              "pitch": 60,
              "velocity": 52,
              "position": 5.5,
              "duration": 0.4895833333333333
            },
            {
              "pitch": 56,
              "velocity": 61,
              "position": 4.760416666666667,
              "duration": 1.2395833333333333
            },
            {
              "pitch": 50,
              "velocity": 62,
              "position": 6.260416666666667,
              "duration": 0.22916666666666666
            },
            {
              "pitch": 57,
              "velocity": 71,
              "position": 6.5,
              "duration": 0.23958333333333334
            },
            {
              "pitch": 71,
              "velocity": 75,
              "position": 5.760416666666667,
              "duration": 1.7395833333333333
            },
            {
              "pitch": 79,
              "velocity": 83,
              "position": 5.760416666666667,
              "duration": 1.7395833333333333
            },
            {
              "pitch": 74,
              "velocity": 40,
              "position": 7.5,
              "duration": 0.21875
            },
            {
              "pitch": 59,
              "velocity": 61,
              "position": 6.760416666666667,
              "duration": 0.9895833333333334
            },
            {
              "pitch": 43,
              "velocity": 62,
              "position": 6,
              "duration": 1.9895833333333333
            },
            {
              "pitch": 36,
              "velocity": 54,
              "position": 8,
              "duration": 4.989583333333333
            },
            {
              "pitch": 67,
              "velocity": 44,
              "position": 7.760416666666667,
              "duration": 5.229166666666667
            },
            {
              "pitch": 72,
              "velocity": 47,
              "position": 7.760416666666667,
              "duration": 5.229166666666667
            },
            {
              "pitch": 75,
              "velocity": 49,
              "position": 7.760416666666667,
              "duration": 5.229166666666667
            }
          ]
        },
        "4": {
          "ctab": {
            "srcChannel": 4,
            "name": "Gut m",
            "accType": "CHORD2",
            "editable": false,
            "mutedNotes": [],
            "mutedChords": [
              "1+2+5",
              "sus4",
              "1+5",
              "1+8",
              "7aug",
              "Maj7aug",
              "7(#9)",
              "7(b13)",
              "7(b9)",
              "7(13)",
              "7#11",
              "7(9)",
              "7b5",
              "7sus4",
              "7th",
              "aug",
              "Maj6(9)",
              "Maj7(9)",
              "Maj(9)",
              "Maj7#11",
              "Maj7",
              "Maj6",
              "Maj"
            ],
            "autoStart": false,
            "sourceChordNote": 0,
            "sourceChordType": "min",
            "ctb2Low": null,
            "ctb2Main": {
              "ntr": "ROOT_TRANSPOSITION",
              "ntt": "BYPASS",
              "bassOn": false,
              "chordRootUpperLimit": 9,
              "noteLowLimit": 0,
              "noteHighLimit": 127,
              "rtr": "PITCH_SHIFT"
            },
            "ctb2High": null
          },
          "notes": [
            {
              "pitch": 48,
              "velocity": 64,
              "position": 0,
              "duration": 0.7291666666666666
            },
            {
              "pitch": 51,
              "velocity": 55,
              "position": 0,
              "duration": 0.7291666666666666
            },
            {
              "pitch": 55,
              "velocity": 60,
              "position": 0,
              "duration": 0.7291666666666666
            },
            {
              "pitch": 48,
              "velocity": 51,
              "position": 0.7604166666666666,
              "duration": 0.08333333333333333
            },
            {
              "pitch": 55,
              "velocity": 51,
              "position": 0.7604166666666666,
              "duration": 0.08333333333333333
            },
            {
              "pitch": 48,
              "velocity": 45,
              "position": 1.2604166666666667,
              "duration": 0.21875
            },
            {
              "pitch": 55,
              "velocity": 45,
              "position": 1.2604166666666667,
              "duration": 0.21875
            },
            {
              "pitch": 48,
              "velocity": 51,
              "position": 1.5,
              "duration": 0.020833333333333332
            },
            {
              "pitch": 55,
              "velocity": 51,
              "position": 1.5,
              "duration": 0.020833333333333332
            },
            {
              "pitch": 50,
              "velocity": 70,
              "position": 2,
              "duration": 0.7395833333333334
            },
            {
              "pitch": 60,
              "velocity": 57,
              "position": 1.7604166666666667,
              "duration": 0.9895833333333334
            },
            {
              "pitch": 53,
              "velocity": 43,
              "position": 2.2604166666666665,
              "duration": 0.4895833333333333
            },
            {
              "pitch": 55,
              "velocity": 57,
              "position": 2.5,
              "duration": 0.4895833333333333
            },
            {
              "pitch": 60,
              "velocity": 67,
              "position": 2.7604166666666665,
              "duration": 0.7354166666666667
            },
            {
              "pitch": 52,
              "velocity": 67,
              "position": 2.7604166666666665,
              "duration": 0.9791666666666666
            },
            {
              "pitch": 60,
              "velocity": 56,
              "position": 3.5,
              "duration": 0.4791666666666667
            },
            {
              "pitch": 55,
              "velocity": 46,
              "position": 3.2604166666666665,
              "duration": 0.7291666666666666
            },
            {
              "pitch": 67,
              "velocity": 62,
              "position": 0,
              "duration": 3.9895833333333335
            },
            {
              "pitch": 44,
              "velocity": 45,
              "position": 4,
              "duration": 1.9791666666666667
            },
            {
              "pitch": 53,
              "velocity": 52,
              "position": 4,
              "duration": 1.9791666666666667
            },
            {
              "pitch": 60,
              "velocity": 54,
              "position": 4,
              "duration": 1.9791666666666667
            },
            {
              "pitch": 47,
              "velocity": 37,
              "position": 6,
              "duration": 1.9791666666666667
            },
            {
              "pitch": 55,
              "velocity": 45,
              "position": 6,
              "duration": 1.9791666666666667
            },
            {
              "pitch": 62,
              "velocity": 43,
              "position": 6,
              "duration": 1.9791666666666667
            },
            {
              "pitch": 55,
              "velocity": 44,
              "position": 8,
              "duration": 4.979166666666667
            },
            {
              "pitch": 63,
              "velocity": 45,
              "position": 8,
              "duration": 4.979166666666667
            }
          ]
        },
        "5": {
          "ctab": {
            "srcChannel": 5,
            "name": "Strng m",
            "accType": "PAD",
            "editable": false,
            "mutedNotes": [],
            "mutedChords": [
              "1+2+5",
              "sus4",
              "1+5",
              "1+8",
              "7aug",
              "Maj7aug",
              "7(#9)",
              "7(b13)",
              "7(b9)",
              "7(13)",
              "7#11",
              "7(9)",
              "7b5",
              "7sus4",
              "7th",
              "aug",
              "Maj6(9)",
              "Maj7(9)",
              "Maj(9)",
              "Maj7#11",
              "Maj7",
              "Maj6",
              "Maj"
            ],
            "autoStart": false,
            "sourceChordNote": 0,
            "sourceChordType": "min",
            "ctb2Low": null,
            "ctb2Main": {
              "ntr": "ROOT_TRANSPOSITION",
              "ntt": "BYPASS",
              "bassOn": false,
              "chordRootUpperLimit": 5,
              "noteLowLimit": 0,
              "noteHighLimit": 79,
              "rtr": "PITCH_SHIFT"
            },
            "ctb2High": null
          },
          "notes": [
            {
              "pitch": 67,
              "velocity": 55,
              "position": 0,
              "duration": 0.9791666666666666
            },
            {
              "pitch": 72,
              "velocity": 55,
              "position": 0,
              "duration": 0.9791666666666666
            },
            {
              "pitch": 75,
              "velocity": 55,
              "position": 0,
              "duration": 0.9791666666666666
            },
            {
              "pitch": 67,
              "velocity": 55,
              "position": 1,
              "duration": 0.9791666666666666
            },
            {
              "pitch": 72,
              "velocity": 55,
              "position": 1,
              "duration": 0.9791666666666666
            },
            {
              "pitch": 75,
              "velocity": 55,
              "position": 1,
              "duration": 0.9791666666666666
            },
            {
              "pitch": 87,
              "velocity": 61,
              "position": 0,
              "duration": 1.9791666666666667
            },
            {
              "pitch": 67,
              "velocity": 55,
              "position": 2,
              "duration": 0.7395833333333334
            },
            {
              "pitch": 72,
              "velocity": 55,
              "position": 2,
              "duration": 0.7395833333333334
            },
            {
              "pitch": 89,
              "velocity": 54,
              "position": 2,
              "duration": 0.7395833333333334
            },
            {
              "pitch": 91,
              "velocity": 63,
              "position": 2.7604166666666665,
              "duration": 1.21875
            },
            {
              "pitch": 67,
              "velocity": 55,
              "position": 2.7604166666666665,
              "duration": 1.2291666666666667
            },
            {
              "pitch": 72,
              "velocity": 55,
              "position": 2.7604166666666665,
              "duration": 1.2291666666666667
            },
            {
              "pitch": 76,
              "velocity": 55,
              "position": 2.7604166666666665,
              "duration": 1.2291666666666667
            },
            {
              "pitch": 79,
              "velocity": 55,
              "position": 2.7604166666666665,
              "duration": 1.2291666666666667
            },
            {
              "pitch": 80,
              "velocity": 56,
              "position": 4,
              "duration": 2.5
            },
            {
              "pitch": 92,
              "velocity": 56,
              "position": 4,
              "duration": 2.5
            }
          ]
        },
        "6": {
          "ctab": {
            "srcChannel": 6,
            "name": "Mute m",
            "accType": "PHRASE1",
            "editable": false,
            "mutedNotes": [],
            "mutedChords": [
              "1+2+5",
              "sus4",
              "1+5",
              "1+8",
              "7aug",
              "Maj7aug",
              "7(#9)",
              "7(b13)",
              "7(b9)",
              "7(13)",
              "7#11",
              "7(9)",
              "7b5",
              "7sus4",
              "7th",
              "aug",
              "Maj6(9)",
              "Maj7(9)",
              "Maj(9)",
              "Maj7#11",
              "Maj7",
              "Maj6",
              "Maj"
            ],
            "autoStart": false,
            "sourceChordNote": 0,
            "sourceChordType": "min",
            "ctb2Low": null,
            "ctb2Main": {
              "ntr": "ROOT_TRANSPOSITION",
              "ntt": "BYPASS",
              "bassOn": false,
              "chordRootUpperLimit": 4,
              "noteLowLimit": 0,
              "noteHighLimit": 127,
              "rtr": "PITCH_SHIFT"
            },
            "ctb2High": null
          },
          "notes": [
            {
              "pitch": 48,
              "velocity": 92,
              "position": 0,
              "duration": 0.23958333333333334
            },
            {
              "pitch": 55,
              "velocity": 92,
              "position": 0,
              "duration": 0.23958333333333334
            },
            {
              "pitch": 48,
              "velocity": 42,
              "position": 0.2604166666666667,
              "duration": 0.21875
            },
            {
              "pitch": 55,
              "velocity": 42,
              "position": 0.2604166666666667,
              "duration": 0.21875
            },
            {
              "pitch": 55,
              "velocity": 65,
              "position": 0.5,
              "duration": 0.07291666666666667
            },
            {
              "pitch": 60,
              "velocity": 65,
              "position": 0.5,
              "duration": 0.07291666666666667
            },
            {
              "pitch": 48,
              "velocity": 85,
              "position": 1,
              "duration": 0.23958333333333334
            },
            {
              "pitch": 55,
              "velocity": 85,
              "position": 1,
              "duration": 0.23958333333333334
            },
            {
              "pitch": 48,
              "velocity": 65,
              "position": 1.2604166666666667,
              "duration": 0.07291666666666667
            },
            {
              "pitch": 55,
              "velocity": 65,
              "position": 1.2604166666666667,
              "duration": 0.07291666666666667
            }
          ]
        },
        "7": {
          "ctab": {
            "srcChannel": 7,
            "name": "Harm",
            "accType": "PHRASE2",
            "editable": false,
            "mutedNotes": [],
            "mutedChords": [
              "1+2+5",
              "sus4",
              "1+5",
              "1+8",
              "7aug",
              "Maj7aug",
              "7(#9)",
              "7(b13)",
              "7(b9)",
              "7(13)",
              "7#11",
              "7(9)",
              "7b5",
              "7sus4",
              "7th",
              "aug",
              "Maj6(9)",
              "Maj7(9)",
              "Maj(9)",
              "Maj7#11",
              "Maj7",
              "Maj6",
              "Maj"
            ],
            "autoStart": false,
            "sourceChordNote": 0,
            "sourceChordType": "min",
            "ctb2Low": null,
            "ctb2Main": {
              "ntr": "ROOT_TRANSPOSITION",
              "ntt": "BYPASS",
              "bassOn": false,
              "chordRootUpperLimit": 2,
              "noteLowLimit": 0,
              "noteHighLimit": 127,
              "rtr": "PITCH_SHIFT"
            },
            "ctb2High": null
          },
          "notes": [
            {
              "pitch": 72,
              "velocity": 82,
              "position": 1.21875,
              "duration": 0.22083333333333333
            },
            {
              "pitch": 75,
              "velocity": 71,
              "position": 1.6270833333333334,
              "duration": 0.22291666666666668
            },
            {
              "pitch": 82,
              "velocity": 63,
              "position": 1.85625,
              "duration": 0.19166666666666668
            },
            {
              "pitch": 82,
              "velocity": 82,
              "position": 2.1875,
              "duration": 1.0208333333333333
            },
            {
              "pitch": 80,
              "velocity": 61,
              "position": 3.21875,
              "duration": 0.24166666666666667
            },
            {
              "pitch": 79,
              "velocity": 38,
              "position": 3.46875,
              "duration": 0.20833333333333334
            },
            {
              "pitch": 75,
              "velocity": 79,
              "position": 3.7708333333333335,
              "duration": 1.4708333333333334
            },
            {
              "pitch": 72,
              "velocity": 65,
              "position": 5.25,
              "duration": 0.23125
            },
            {
              "pitch": 75,
              "velocity": 53,
              "position": 5.491666666666666,
              "duration": 0.2604166666666667
            },
            {
              "pitch": 74,
              "velocity": 55,
              "position": 5.7625,
              "duration": 1.775
            },
            {
              "pitch": 72,
              "velocity": 46,
              "position": 7.552083333333333,
              "duration": 0.2625
            },
            {
              "pitch": 71,
              "velocity": 57,
              "position": 7.822916666666667,
              "duration": 0.28125
            },
            {
              "pitch": 72,
              "velocity": 57,
              "position": 8.10625,
              "duration": 4.629166666666666
            }
          ]
        },
        "8": {
          "ctab": {
            "srcChannel": 8,
            "name": "RHY 1",
            "accType": "SUBRHYTHM",
            "editable": false,
            "mutedNotes": [],
            "mutedChords": [],
            "autoStart": true,
            "sourceChordNote": 0,
            "sourceChordType": "Maj7",
            "ctb2Low": null,
            "ctb2Main": {
              "ntr": "ROOT_FIXED",
              "ntt": "BYPASS",
              "bassOn": false,
              "chordRootUpperLimit": 6,
              "noteLowLimit": 0,
              "noteHighLimit": 127,
              "rtr": "PITCH_SHIFT"
            },
            "ctb2High": null
          },
          "notes": []
        },
        "9": {
          "ctab": {
            "srcChannel": 9,
            "name": "RHY 2",
            "accType": "RHYTHM",
            "editable": false,
            "mutedNotes": [],
            "mutedChords": [],
            "autoStart": true,
            "sourceChordNote": 0,
            "sourceChordType": "Maj7",
            "ctb2Low": null,
            "ctb2Main": {
              "ntr": "ROOT_FIXED",
              "ntt": "BYPASS",
              "bassOn": false,
              "chordRootUpperLimit": 6,
              "noteLowLimit": 0,
              "noteHighLimit": 127,
              "rtr": "PITCH_SHIFT"
            },
            "ctb2High": null
          },
          "notes": [
            {
              "pitch": 35,
              "velocity": 94,
              "position": 0,
              "duration": 0.010416666666666666
            },
            {
              "pitch": 49,
              "velocity": 63,
              "position": 0,
              "duration": 0.010416666666666666
            },
            {
              "pitch": 42,
              "velocity": 26,
              "position": 0.2604166666666667,
              "duration": 0.010416666666666666
            },
            {
              "pitch": 42,
              "velocity": 43,
              "position": 0.5,
              "duration": 0.010416666666666666
            },
            {
              "pitch": 35,
              "velocity": 45,
              "position": 0.7604166666666666,
              "duration": 0.010416666666666666
            },
            {
              "pitch": 42,
              "velocity": 26,
              "position": 0.7604166666666666,
              "duration": 0.010416666666666666
            },
            {
              "pitch": 40,
              "velocity": 81,
              "position": 1,
              "duration": 0.010416666666666666
            },
            {
              "pitch": 42,
              "velocity": 117,
              "position": 1,
              "duration": 0.010416666666666666
            },
            {
              "pitch": 42,
              "velocity": 26,
              "position": 1.2604166666666667,
              "duration": 0.010416666666666666
            },
            {
              "pitch": 42,
              "velocity": 57,
              "position": 1.5,
              "duration": 0.010416666666666666
            },
            {
              "pitch": 35,
              "velocity": 29,
              "position": 1.7604166666666667,
              "duration": 0.010416666666666666
            },
            {
              "pitch": 42,
              "velocity": 26,
              "position": 1.7604166666666667,
              "duration": 0.010416666666666666
            },
            {
              "pitch": 35,
              "velocity": 90,
              "position": 2,
              "duration": 0.010416666666666666
            },
            {
              "pitch": 57,
              "velocity": 59,
              "position": 2,
              "duration": 0.010416666666666666
            },
            {
              "pitch": 42,
              "velocity": 63,
              "position": 2.5,
              "duration": 0.010416666666666666
            },
            {
              "pitch": 40,
              "velocity": 81,
              "position": 2.7604166666666665,
              "duration": 0.010416666666666666
            },
            {
              "pitch": 43,
              "velocity": 60,
              "position": 2.7604166666666665,
              "duration": 0.010416666666666666
            },
            {
              "pitch": 45,
              "velocity": 24,
              "position": 3.2395833333333335,
              "duration": 0.010416666666666666
            },
            {
              "pitch": 45,
              "velocity": 70,
              "position": 3.2604166666666665,
              "duration": 0.010416666666666666
            },
            {
              "pitch": 43,
              "velocity": 40,
              "position": 3.4791666666666665,
              "duration": 0.010416666666666666
            },
            {
              "pitch": 43,
              "velocity": 49,
              "position": 3.5,
              "duration": 0.010416666666666666
            },
            {
              "pitch": 35,
              "velocity": 26,
              "position": 3.7604166666666665,
              "duration": 0.010416666666666666
            },
            {
              "pitch": 41,
              "velocity": 45,
              "position": 3.7604166666666665,
              "duration": 0.010416666666666666
            },
            {
              "pitch": 35,
              "velocity": 62,
              "position": 4,
              "duration": 0.010416666666666666
            },
            {
              "pitch": 42,
              "velocity": 38,
              "position": 4,
              "duration": 0.010416666666666666
            },
            {
              "pitch": 49,
              "velocity": 50,
              "position": 4,
              "duration": 0.010416666666666666
            },
            {
              "pitch": 42,
              "velocity": 26,
              "position": 4.5,
              "duration": 0.010416666666666666
            },
            {
              "pitch": 42,
              "velocity": 76,
              "position": 5,
              "duration": 0.010416666666666666
            },
            {
              "pitch": 42,
              "velocity": 24,
              "position": 5.5,
              "duration": 0.010416666666666666
            },
            {
              "pitch": 42,
              "velocity": 38,
              "position": 6,
              "duration": 0.010416666666666666
            },
            {
              "pitch": 42,
              "velocity": 24,
              "position": 6.5,
              "duration": 0.010416666666666666
            },
            {
              "pitch": 42,
              "velocity": 38,
              "position": 7,
              "duration": 0.010416666666666666
            },
            {
              "pitch": 84,
              "velocity": 56,
              "position": 8,
              "duration": 0.03125
            }
          ]
        },
        "10": {
          "ctab": {
            "srcChannel": 10,
            "name": "Bass",
            "accType": "BASS",
            "editable": false,
            "mutedNotes": [],
            "mutedChords": [
              "dim7",
              "dim",
              "minMaj7(9)",
              "minMaj7",
              "min7(11)",
              "min7(9)",
              "min(9)",
              "m7b5",
              "min7",
              "min6",
              "min"
            ],
            "autoStart": false,
            "sourceChordNote": 0,
            "sourceChordType": "Maj",
            "ctb2Low": null,
            "ctb2Main": {
              "ntr": "ROOT_TRANSPOSITION",
              "ntt": "BYPASS",
              "bassOn": false,
              "chordRootUpperLimit": 3,
              "noteLowLimit": 28,
              "noteHighLimit": 127,
              "rtr": "PITCH_SHIFT"
            },
            "ctb2High": null
          },
          "notes": [
            {
              "pitch": 24,
              "velocity": 76,
              "position": 0,
              "duration": 0.6041666666666666
            },
            {
              "pitch": 24,
              "velocity": 72,
              "position": 0.7604166666666666,
              "duration": 0.16666666666666666
            },
            {
              "pitch": 24,
              "velocity": 48,
              "position": 1.7604166666666667,
              "duration": 0.21875
            },
            {
              "pitch": 26,
              "velocity": 82,
              "position": 2,
              "duration": 0.7395833333333334
            },
            {
              "pitch": 28,
              "velocity": 82,
              "position": 2.7604166666666665,
              "duration": 1.2291666666666667
            },
            {
              "pitch": 29,
              "velocity": 74,
              "position": 4,
              "duration": 1.7395833333333333
            },
            {
              "pitch": 29,
              "velocity": 57,
              "position": 5.760416666666667,
              "duration": 0.21875
            },
            {
              "pitch": 31,
              "velocity": 79,
              "position": 6,
              "duration": 1.9791666666666667
            },
            {
              "pitch": 24,
              "velocity": 82,
              "position": 8,
              "duration": 4.989583333333333
            }
          ]
        },
        "11": {
          "ctab": {
            "srcChannel": 11,
            "name": "EP",
            "accType": "CHORD1",
            "editable": false,
            "mutedNotes": [],
            "mutedChords": [
              "dim7",
              "dim",
              "minMaj7(9)",
              "minMaj7",
              "min7(11)",
              "min7(9)",
              "min(9)",
              "m7b5",
              "min7",
              "min6",
              "min"
            ],
            "autoStart": false,
            "sourceChordNote": 0,
            "sourceChordType": "Maj",
            "ctb2Low": null,
            "ctb2Main": {
              "ntr": "ROOT_TRANSPOSITION",
              "ntt": "BYPASS",
              "bassOn": false,
              "chordRootUpperLimit": 7,
              "noteLowLimit": 0,
              "noteHighLimit": 79,
              "rtr": "PITCH_SHIFT"
            },
            "ctb2High": null
          },
          "notes": [
            {
              "pitch": 55,
              "velocity": 69,
              "position": 0,
              "duration": 0.9791666666666666
            },
            {
              "pitch": 60,
              "velocity": 69,
              "position": 0,
              "duration": 0.9791666666666666
            },
            {
              "pitch": 62,
              "velocity": 47,
              "position": 0,
              "duration": 0.9791666666666666
            },
            {
              "pitch": 64,
              "velocity": 69,
              "position": 0,
              "duration": 0.9791666666666666
            },
            {
              "pitch": 55,
              "velocity": 62,
              "position": 1,
              "duration": 0.9791666666666666
            },
            {
              "pitch": 60,
              "velocity": 62,
              "position": 1,
              "duration": 0.9791666666666666
            },
            {
              "pitch": 62,
              "velocity": 37,
              "position": 1,
              "duration": 0.9791666666666666
            },
            {
              "pitch": 64,
              "velocity": 62,
              "position": 1,
              "duration": 0.9791666666666666
            },
            {
              "pitch": 55,
              "velocity": 71,
              "position": 2,
              "duration": 0.7395833333333334
            },
            {
              "pitch": 60,
              "velocity": 71,
              "position": 2,
              "duration": 0.7395833333333334
            },
            {
              "pitch": 72,
              "velocity": 74,
              "position": 2,
              "duration": 0.7395833333333334
            },
            {
              "pitch": 77,
              "velocity": 90,
              "position": 2,
              "duration": 0.7395833333333334
            },
            {
              "pitch": 72,
              "velocity": 86,
              "position": 2.7604166666666665,
              "duration": 0.7291666666666666
            },
            {
              "pitch": 79,
              "velocity": 90,
              "position": 2.7604166666666665,
              "duration": 0.7291666666666666
            },
            {
              "pitch": 55,
              "velocity": 75,
              "position": 2.7604166666666665,
              "duration": 1.2291666666666667
            },
            {
              "pitch": 60,
              "velocity": 71,
              "position": 2.7604166666666665,
              "duration": 1.2291666666666667
            },
            {
              "pitch": 64,
              "velocity": 49,
              "position": 2.7604166666666665,
              "duration": 1.2291666666666667
            },
            {
              "pitch": 67,
              "velocity": 90,
              "position": 2.7604166666666665,
              "duration": 1.2291666666666667
            },
            {
              "pitch": 48,
              "velocity": 59,
              "position": 4.260416666666667,
              "duration": 0.22916666666666666
            },
            {
              "pitch": 72,
              "velocity": 90,
              "position": 3.5,
              "duration": 1.2291666666666667
            },
            {
              "pitch": 79,
              "velocity": 64,
              "position": 4,
              "duration": 0.7395833333333334
            },
            {
              "pitch": 55,
              "velocity": 49,
              "position": 4.5,
              "duration": 0.25
            },
            {
              "pitch": 81,
              "velocity": 83,
              "position": 4,
              "duration": 1.4895833333333333
            },
            {
              "pitch": 72,
              "velocity": 65,
              "position": 4.760416666666667,
              "duration": 0.7395833333333334
            },
            {
              "pitch": 77,
              "velocity": 55,
              "position": 4.760416666666667,
              "duration": 0.9895833333333334
            },
            {
              "pitch": 81,
              "velocity": 76,
              "position": 5.5,
              "duration": 0.3645833333333333
            },
            {
              "pitch": 41,
              "velocity": 65,
              "position": 4,
              "duration": 1.9895833333333333
            },
            {
              "pitch": 60,
              "velocity": 52,
              "position": 5.5,
              "duration": 0.4895833333333333
            },
            {
              "pitch": 57,
              "velocity": 61,
              "position": 4.760416666666667,
              "duration": 1.2395833333333333
            },
            {
              "pitch": 50,
              "velocity": 62,
              "position": 6.260416666666667,
              "duration": 0.22916666666666666
            },
            {
              "pitch": 62,
              "velocity": 49,
              "position": 6.5,
              "duration": 0.4895833333333333
            },
            {
              "pitch": 71,
              "velocity": 75,
              "position": 5.760416666666667,
              "duration": 1.7395833333333333
            },
            {
              "pitch": 79,
              "velocity": 83,
              "position": 5.760416666666667,
              "duration": 1.7395833333333333
            },
            {
              "pitch": 74,
              "velocity": 40,
              "position": 7.5,
              "duration": 0.21875
            },
            {
              "pitch": 43,
              "velocity": 62,
              "position": 6,
              "duration": 1.9895833333333333
            },
            {
              "pitch": 57,
              "velocity": 71,
              "position": 6.5,
              "duration": 1.4895833333333333
            },
            {
              "pitch": 59,
              "velocity": 61,
              "position": 6.760416666666667,
              "duration": 1.2395833333333333
            },
            {
              "pitch": 36,
              "velocity": 54,
              "position": 8,
              "duration": 4.989583333333333
            },
            {
              "pitch": 67,
              "velocity": 44,
              "position": 7.760416666666667,
              "duration": 5.229166666666667
            },
            {
              "pitch": 72,
              "velocity": 47,
              "position": 7.760416666666667,
              "duration": 5.229166666666667
            }
          ]
        },
        "12": {
          "ctab": {
            "srcChannel": 12,
            "name": "Guitar",
            "accType": "CHORD2",
            "editable": false,
            "mutedNotes": [],
            "mutedChords": [
              "dim7",
              "dim",
              "minMaj7(9)",
              "minMaj7",
              "min7(11)",
              "min7(9)",
              "min(9)",
              "m7b5",
              "min7",
              "min6",
              "min"
            ],
            "autoStart": false,
            "sourceChordNote": 0,
            "sourceChordType": "Maj",
            "ctb2Low": null,
            "ctb2Main": {
              "ntr": "ROOT_TRANSPOSITION",
              "ntt": "BYPASS",
              "bassOn": false,
              "chordRootUpperLimit": 9,
              "noteLowLimit": 0,
              "noteHighLimit": 127,
              "rtr": "PITCH_SHIFT"
            },
            "ctb2High": null
          },
          "notes": [
            {
              "pitch": 48,
              "velocity": 65,
              "position": 0,
              "duration": 0.7291666666666666
            },
            {
              "pitch": 52,
              "velocity": 56,
              "position": 0,
              "duration": 0.7291666666666666
            },
            {
              "pitch": 55,
              "velocity": 61,
              "position": 0,
              "duration": 0.7291666666666666
            },
            {
              "pitch": 48,
              "velocity": 52,
              "position": 0.7604166666666666,
              "duration": 0.08333333333333333
            },
            {
              "pitch": 55,
              "velocity": 52,
              "position": 0.7604166666666666,
              "duration": 0.08333333333333333
            },
            {
              "pitch": 48,
              "velocity": 46,
              "position": 1.2604166666666667,
              "duration": 0.21875
            },
            {
              "pitch": 55,
              "velocity": 46,
              "position": 1.2604166666666667,
              "duration": 0.21875
            },
            {
              "pitch": 48,
              "velocity": 52,
              "position": 1.5,
              "duration": 0.020833333333333332
            },
            {
              "pitch": 55,
              "velocity": 52,
              "position": 1.5,
              "duration": 0.020833333333333332
            },
            {
              "pitch": 50,
              "velocity": 71,
              "position": 2,
              "duration": 0.7395833333333334
            },
            {
              "pitch": 60,
              "velocity": 58,
              "position": 1.7604166666666667,
              "duration": 0.9895833333333334
            },
            {
              "pitch": 53,
              "velocity": 44,
              "position": 2.2604166666666665,
              "duration": 0.4895833333333333
            },
            {
              "pitch": 55,
              "velocity": 58,
              "position": 2.5,
              "duration": 0.4895833333333333
            },
            {
              "pitch": 60,
              "velocity": 68,
              "position": 2.7604166666666665,
              "duration": 0.7354166666666667
            },
            {
              "pitch": 52,
              "velocity": 68,
              "position": 2.7604166666666665,
              "duration": 0.9791666666666666
            },
            {
              "pitch": 60,
              "velocity": 57,
              "position": 3.5,
              "duration": 0.4791666666666667
            },
            {
              "pitch": 55,
              "velocity": 47,
              "position": 3.2604166666666665,
              "duration": 0.7291666666666666
            },
            {
              "pitch": 67,
              "velocity": 62,
              "position": 0,
              "duration": 3.9895833333333335
            },
            {
              "pitch": 53,
              "velocity": 53,
              "position": 4,
              "duration": 1.9791666666666667
            },
            {
              "pitch": 57,
              "velocity": 53,
              "position": 4,
              "duration": 1.9791666666666667
            },
            {
              "pitch": 60,
              "velocity": 53,
              "position": 4,
              "duration": 1.9791666666666667
            },
            {
              "pitch": 55,
              "velocity": 49,
              "position": 5.96875,
              "duration": 1.90625
            },
            {
              "pitch": 59,
              "velocity": 49,
              "position": 5.98125,
              "duration": 1.9791666666666667
            },
            {
              "pitch": 62,
              "velocity": 49,
              "position": 6,
              "duration": 1.9791666666666667
            },
            {
              "pitch": 55,
              "velocity": 45,
              "position": 7.96875,
              "duration": 4.979166666666667
            },
            {
              "pitch": 60,
              "velocity": 45,
              "position": 7.989583333333333,
              "duration": 4.979166666666667
            },
            {
              "pitch": 64,
              "velocity": 45,
              "position": 8.020833333333334,
              "duration": 4.947916666666667
            }
          ]
        },
        "13": {
          "ctab": {
            "srcChannel": 13,
            "name": "Strings",
            "accType": "PAD",
            "editable": false,
            "mutedNotes": [],
            "mutedChords": [
              "dim7",
              "dim",
              "minMaj7(9)",
              "minMaj7",
              "min7(11)",
              "min7(9)",
              "min(9)",
              "m7b5",
              "min7",
              "min6",
              "min"
            ],
            "autoStart": false,
            "sourceChordNote": 0,
            "sourceChordType": "Maj",
            "ctb2Low": null,
            "ctb2Main": {
              "ntr": "ROOT_TRANSPOSITION",
              "ntt": "BYPASS",
              "bassOn": false,
              "chordRootUpperLimit": 5,
              "noteLowLimit": 0,
              "noteHighLimit": 79,
              "rtr": "PITCH_SHIFT"
            },
            "ctb2High": null
          },
          "notes": [
            {
              "pitch": 67,
              "velocity": 45,
              "position": 0,
              "duration": 1.9791666666666667
            },
            {
              "pitch": 72,
              "velocity": 45,
              "position": 0,
              "duration": 1.9791666666666667
            },
            {
              "pitch": 76,
              "velocity": 72,
              "position": 0,
              "duration": 1.9791666666666667
            },
            {
              "pitch": 88,
              "velocity": 72,
              "position": 0,
              "duration": 1.9791666666666667
            },
            {
              "pitch": 69,
              "velocity": 45,
              "position": 2,
              "duration": 0.7395833333333334
            },
            {
              "pitch": 72,
              "velocity": 45,
              "position": 2,
              "duration": 0.7395833333333334
            },
            {
              "pitch": 77,
              "velocity": 65,
              "position": 2,
              "duration": 0.7395833333333334
            },
            {
              "pitch": 89,
              "velocity": 65,
              "position": 2,
              "duration": 0.7395833333333334
            },
            {
              "pitch": 71,
              "velocity": 45,
              "position": 2.7604166666666665,
              "duration": 1.21875
            },
            {
              "pitch": 74,
              "velocity": 45,
              "position": 2.7604166666666665,
              "duration": 1.21875
            },
            {
              "pitch": 79,
              "velocity": 74,
              "position": 2.7604166666666665,
              "duration": 1.21875
            },
            {
              "pitch": 91,
              "velocity": 74,
              "position": 2.7604166666666665,
              "duration": 1.21875
            },
            {
              "pitch": 72,
              "velocity": 45,
              "position": 4,
              "duration": 2.5
            },
            {
              "pitch": 77,
              "velocity": 45,
              "position": 4,
              "duration": 2.5
            },
            {
              "pitch": 81,
              "velocity": 67,
              "position": 4,
              "duration": 2.5
            },
            {
              "pitch": 93,
              "velocity": 67,
              "position": 4,
              "duration": 2.5
            }
          ]
        },
        "14": {
          "ctab": {
            "srcChannel": 14,
            "name": "Mute",
            "accType": "PHRASE1",
            "editable": false,
            "mutedNotes": [],
            "mutedChords": [
              "dim7",
              "dim",
              "minMaj7(9)",
              "minMaj7",
              "min7(11)",
              "min7(9)",
              "min(9)",
              "m7b5",
              "min7",
              "min6",
              "min"
            ],
            "autoStart": false,
            "sourceChordNote": 0,
            "sourceChordType": "Maj",
            "ctb2Low": null,
            "ctb2Main": {
              "ntr": "ROOT_TRANSPOSITION",
              "ntt": "BYPASS",
              "bassOn": false,
              "chordRootUpperLimit": 4,
              "noteLowLimit": 0,
              "noteHighLimit": 127,
              "rtr": "PITCH_SHIFT"
            },
            "ctb2High": null
          },
          "notes": [
            {
              "pitch": 48,
              "velocity": 93,
              "position": 0,
              "duration": 0.23958333333333334
            },
            {
              "pitch": 55,
              "velocity": 93,
              "position": 0,
              "duration": 0.23958333333333334
            },
            {
              "pitch": 48,
              "velocity": 43,
              "position": 0.2604166666666667,
              "duration": 0.21875
            },
            {
              "pitch": 55,
              "velocity": 43,
              "position": 0.2604166666666667,
              "duration": 0.21875
            },
            {
              "pitch": 55,
              "velocity": 66,
              "position": 0.5,
              "duration": 0.07291666666666667
            },
            {
              "pitch": 60,
              "velocity": 66,
              "position": 0.5,
              "duration": 0.07291666666666667
            },
            {
              "pitch": 48,
              "velocity": 86,
              "position": 1,
              "duration": 0.23958333333333334
            },
            {
              "pitch": 55,
              "velocity": 86,
              "position": 1,
              "duration": 0.23958333333333334
            },
            {
              "pitch": 48,
              "velocity": 66,
              "position": 1.2604166666666667,
              "duration": 0.07291666666666667
            },
            {
              "pitch": 55,
              "velocity": 66,
              "position": 1.2604166666666667,
              "duration": 0.07291666666666667
            }
          ]
        },
        "15": {
          "ctab": {
            "srcChannel": 15,
            "name": "Harm",
            "accType": "PHRASE2",
            "editable": false,
            "mutedNotes": [],
            "mutedChords": [
              "dim7",
              "dim",
              "minMaj7(9)",
              "minMaj7",
              "min7(11)",
              "min7(9)",
              "min(9)",
              "m7b5",
              "min7",
              "min6",
              "min"
            ],
            "autoStart": false,
            "sourceChordNote": 0,
            "sourceChordType": "Maj",
            "ctb2Low": null,
            "ctb2Main": {
              "ntr": "ROOT_TRANSPOSITION",
              "ntt": "BYPASS",
              "bassOn": false,
              "chordRootUpperLimit": 4,
              "noteLowLimit": 0,
              "noteHighLimit": 127,
              "rtr": "PITCH_SHIFT"
            },
            "ctb2High": null
          },
          "notes": [
            {
              "pitch": 67,
              "velocity": 82,
              "position": 1.21875,
              "duration": 0.22083333333333333
            },
            {
              "pitch": 72,
              "velocity": 71,
              "position": 1.6270833333333334,
              "duration": 0.22291666666666668
            },
            {
              "pitch": 79,
              "velocity": 63,
              "position": 1.85625,
              "duration": 0.19166666666666668
            },
            {
              "pitch": 79,
              "velocity": 82,
              "position": 2.1875,
              "duration": 1.0208333333333333
            },
            {
              "pitch": 77,
              "velocity": 61,
              "position": 3.21875,
              "duration": 0.24166666666666667
            },
            {
              "pitch": 76,
              "velocity": 38,
              "position": 3.46875,
              "duration": 0.20833333333333334
            },
            {
              "pitch": 72,
              "velocity": 79,
              "position": 3.7708333333333335,
              "duration": 1.5125
            },
            {
              "pitch": 74,
              "velocity": 65,
              "position": 5.25,
              "duration": 0.25
            },
            {
              "pitch": 76,
              "velocity": 53,
              "position": 5.491666666666666,
              "duration": 0.275
            },
            {
              "pitch": 74,
              "velocity": 55,
              "position": 5.7625,
              "duration": 1.775
            },
            {
              "pitch": 72,
              "velocity": 46,
              "position": 7.552083333333333,
              "duration": 0.2625
            },
            {
              "pitch": 71,
              "velocity": 57,
              "position": 7.822916666666667,
              "duration": 0.28125
            },
            {
              "pitch": 72,
              "velocity": 57,
              "position": 8.10625,
              "duration": 4.8375
            }
          ]
        }
      }
    }
  }
}